<?xml version="1.0" encoding="UTF-8" standalone="no"?>
<!DOCTYPE svg PUBLIC "-//W3C//DTD SVG 1.1//EN"
 "http://www.w3.org/Graphics/SVG/1.1/DTD/svg11.dtd">
<!-- Generated by graphviz version 2.43.0 (0)
 -->
<!-- Title: bo4.UnkPrimHelper Pages: 1 -->
<svg width="1587pt" height="224pt"
 viewBox="0.00 0.00 1587.09 224.00" xmlns="http://www.w3.org/2000/svg" xmlns:xlink="http://www.w3.org/1999/xlink">
<g id="graph0" class="graph" transform="scale(1 1) rotate(0) translate(4 220)">
<title>bo4.UnkPrimHelper</title>
<polygon fill="white" stroke="transparent" points="-4,4 -4,-220 1583.09,-220 1583.09,4 -4,4"/>
<!-- bo4.UnkPrimHelper -->
<g id="node1" class="node">
<title>bo4.UnkPrimHelper</title>
<ellipse fill="green" stroke="black" cx="721.84" cy="-198" rx="103.98" ry="18"/>
<text text-anchor="middle" x="721.84" y="-194.3" font-family="Times,serif" font-size="14.00">bo4.UnkPrimHelper</text>
</g>
<!-- RotMatrix -->
<g id="node2" class="node">
<title>RotMatrix</title>
<g id="a_node2"><a xlink:href="RotMatrix.svg" xlink:title="RotMatrix">
<ellipse fill="lightblue" stroke="black" cx="57.84" cy="-18" rx="57.69" ry="18"/>
<text text-anchor="middle" x="57.84" y="-14.3" font-family="Times,serif" font-size="14.00">RotMatrix</text>
</a>
</g>
</g>
<!-- bo4.UnkPrimHelper&#45;&gt;RotMatrix -->
<g id="edge1" class="edge">
<title>bo4.UnkPrimHelper&#45;&gt;RotMatrix</title>
<path fill="none" stroke="black" d="M668.07,-182.58C542.99,-149.06 233.82,-66.17 110.17,-33.03"/>
<polygon fill="black" stroke="black" points="110.76,-29.56 100.19,-30.35 108.95,-36.32 110.76,-29.56"/>
<text text-anchor="middle" x="95.19" y="-34.15" font-family="Times,serif" font-size="14.00">1</text>
</g>
<!-- RotMatrixX -->
<g id="node3" class="node">
<title>RotMatrixX</title>
<g id="a_node3"><a xlink:href="RotMatrixX.svg" xlink:title="RotMatrixX">
<ellipse fill="lightblue" stroke="black" cx="197.84" cy="-18" rx="64.19" ry="18"/>
<text text-anchor="middle" x="197.84" y="-14.3" font-family="Times,serif" font-size="14.00">RotMatrixX</text>
</a>
</g>
</g>
<!-- bo4.UnkPrimHelper&#45;&gt;RotMatrixX -->
<g id="edge2" class="edge">
<title>bo4.UnkPrimHelper&#45;&gt;RotMatrixX</title>
<path fill="none" stroke="black" d="M676.72,-181.67C578.93,-148.45 348.19,-70.07 246.93,-35.67"/>
<polygon fill="black" stroke="black" points="247.85,-32.29 237.26,-32.39 245.6,-38.92 247.85,-32.29"/>
<text text-anchor="middle" x="232.26" y="-36.19" font-family="Times,serif" font-size="14.00">1</text>
</g>
<!-- RotMatrixY -->
<g id="node4" class="node">
<title>RotMatrixY</title>
<g id="a_node4"><a xlink:href="RotMatrixY.svg" xlink:title="RotMatrixY">
<ellipse fill="lightblue" stroke="black" cx="343.84" cy="-18" rx="63.89" ry="18"/>
<text text-anchor="middle" x="343.84" y="-14.3" font-family="Times,serif" font-size="14.00">RotMatrixY</text>
</a>
</g>
</g>
<!-- bo4.UnkPrimHelper&#45;&gt;RotMatrixY -->
<g id="edge3" class="edge">
<title>bo4.UnkPrimHelper&#45;&gt;RotMatrixY</title>
<path fill="none" stroke="black" d="M687.63,-180.89C617.83,-148.02 459.3,-73.37 384.43,-38.11"/>
<polygon fill="black" stroke="black" points="385.84,-34.91 375.3,-33.81 382.86,-41.24 385.84,-34.91"/>
<text text-anchor="middle" x="370.3" y="-37.61" font-family="Times,serif" font-size="14.00">1</text>
</g>
<!-- RotMatrixZ -->
<g id="node5" class="node">
<title>RotMatrixZ</title>
<g id="a_node5"><a xlink:href="RotMatrixZ.svg" xlink:title="RotMatrixZ">
<ellipse fill="lightblue" stroke="black" cx="489.84" cy="-18" rx="64.19" ry="18"/>
<text text-anchor="middle" x="489.84" y="-14.3" font-family="Times,serif" font-size="14.00">RotMatrixZ</text>
</a>
</g>
</g>
<!-- bo4.UnkPrimHelper&#45;&gt;RotMatrixZ -->
<g id="edge4" class="edge">
<title>bo4.UnkPrimHelper&#45;&gt;RotMatrixZ</title>
<path fill="none" stroke="black" d="M700.02,-180.25C657.99,-148.01 565.81,-77.29 518.74,-41.17"/>
<polygon fill="black" stroke="black" points="520.84,-38.37 510.77,-35.06 516.58,-43.92 520.84,-38.37"/>
<text text-anchor="middle" x="505.77" y="-38.86" font-family="Times,serif" font-size="14.00">1</text>
</g>
<!-- ScaleMatrix -->
<g id="node6" class="node">
<title>ScaleMatrix</title>
<g id="a_node6"><a xlink:href="ScaleMatrix.svg" xlink:title="ScaleMatrix">
<ellipse fill="lightblue" stroke="black" cx="638.84" cy="-18" rx="66.89" ry="18"/>
<text text-anchor="middle" x="638.84" y="-14.3" font-family="Times,serif" font-size="14.00">ScaleMatrix</text>
</a>
</g>
</g>
<!-- bo4.UnkPrimHelper&#45;&gt;ScaleMatrix -->
<g id="edge5" class="edge">
<title>bo4.UnkPrimHelper&#45;&gt;ScaleMatrix</title>
<path fill="none" stroke="black" d="M713.89,-179.93C699.32,-148.7 668.3,-82.17 651.05,-45.18"/>
<polygon fill="black" stroke="black" points="654.18,-43.6 646.78,-36.02 647.83,-46.56 654.18,-43.6"/>
<text text-anchor="middle" x="641.78" y="-39.82" font-family="Times,serif" font-size="14.00">1</text>
</g>
<!-- SetGeomOffset -->
<g id="node7" class="node">
<title>SetGeomOffset</title>
<g id="a_node7"><a xlink:href="SetGeomOffset.svg" xlink:title="SetGeomOffset">
<ellipse fill="lightblue" stroke="black" cx="804.84" cy="-18" rx="81.49" ry="18"/>
<text text-anchor="middle" x="804.84" y="-14.3" font-family="Times,serif" font-size="14.00">SetGeomOffset</text>
</a>
</g>
</g>
<!-- bo4.UnkPrimHelper&#45;&gt;SetGeomOffset -->
<g id="edge6" class="edge">
<title>bo4.UnkPrimHelper&#45;&gt;SetGeomOffset</title>
<path fill="none" stroke="black" d="M729.8,-179.93C744.37,-148.7 775.39,-82.17 792.64,-45.18"/>
<polygon fill="black" stroke="black" points="795.86,-46.56 796.91,-36.02 789.51,-43.6 795.86,-46.56"/>
<text text-anchor="middle" x="791.91" y="-39.82" font-family="Times,serif" font-size="14.00">1</text>
</g>
<!-- SetGeomScreen -->
<g id="node8" class="node">
<title>SetGeomScreen</title>
<g id="a_node8"><a xlink:href="SetGeomScreen.svg" xlink:title="SetGeomScreen">
<ellipse fill="lightblue" stroke="black" cx="988.84" cy="-18" rx="85.29" ry="18"/>
<text text-anchor="middle" x="988.84" y="-14.3" font-family="Times,serif" font-size="14.00">SetGeomScreen</text>
</a>
</g>
</g>
<!-- bo4.UnkPrimHelper&#45;&gt;SetGeomScreen -->
<g id="edge7" class="edge">
<title>bo4.UnkPrimHelper&#45;&gt;SetGeomScreen</title>
<path fill="none" stroke="black" d="M746.96,-180.25C795.41,-147.95 901.76,-77.06 955.85,-41"/>
<polygon fill="black" stroke="black" points="957.99,-43.77 964.37,-35.31 954.11,-37.95 957.99,-43.77"/>
<text text-anchor="middle" x="959.37" y="-39.11" font-family="Times,serif" font-size="14.00">1</text>
</g>
<!-- SetRotMatrix -->
<g id="node9" class="node">
<title>SetRotMatrix</title>
<g id="a_node9"><a xlink:href="SetRotMatrix.svg" xlink:title="SetRotMatrix">
<ellipse fill="lightblue" stroke="black" cx="1165.84" cy="-18" rx="73.39" ry="18"/>
<text text-anchor="middle" x="1165.84" y="-14.3" font-family="Times,serif" font-size="14.00">SetRotMatrix</text>
</a>
</g>
</g>
<!-- bo4.UnkPrimHelper&#45;&gt;SetRotMatrix -->
<g id="edge8" class="edge">
<title>bo4.UnkPrimHelper&#45;&gt;SetRotMatrix</title>
<path fill="none" stroke="black" d="M761.25,-181.2C843.38,-148.28 1032.5,-72.46 1119.95,-37.4"/>
<polygon fill="black" stroke="black" points="1121.37,-40.6 1129.35,-33.63 1118.77,-34.1 1121.37,-40.6"/>
<text text-anchor="middle" x="1124.35" y="-37.43" font-family="Times,serif" font-size="14.00">1</text>
</g>
<!-- SetTransMatrix -->
<g id="node10" class="node">
<title>SetTransMatrix</title>
<g id="a_node10"><a xlink:href="SetTransMatrix.svg" xlink:title="SetTransMatrix">
<ellipse fill="lightblue" stroke="black" cx="1340.84" cy="-18" rx="83.69" ry="18"/>
<text text-anchor="middle" x="1340.84" y="-14.3" font-family="Times,serif" font-size="14.00">SetTransMatrix</text>
</a>
</g>
</g>
<!-- bo4.UnkPrimHelper&#45;&gt;SetTransMatrix -->
<g id="edge9" class="edge">
<title>bo4.UnkPrimHelper&#45;&gt;SetTransMatrix</title>
<path fill="none" stroke="black" d="M773.03,-182.28C887.27,-149.43 1162.46,-70.3 1282.83,-35.68"/>
<polygon fill="black" stroke="black" points="1283.96,-39 1292.61,-32.87 1282.03,-32.27 1283.96,-39"/>
<text text-anchor="middle" x="1287.61" y="-36.67" font-family="Times,serif" font-size="14.00">1</text>
</g>
<!-- TransMatrix -->
<g id="node11" class="node">
<title>TransMatrix</title>
<g id="a_node11"><a xlink:href="TransMatrix.svg" xlink:title="TransMatrix">
<ellipse fill="lightblue" stroke="black" cx="1510.84" cy="-18" rx="68.49" ry="18"/>
<text text-anchor="middle" x="1510.84" y="-14.3" font-family="Times,serif" font-size="14.00">TransMatrix</text>
</a>
</g>
</g>
<!-- bo4.UnkPrimHelper&#45;&gt;TransMatrix -->
<g id="edge10" class="edge">
<title>bo4.UnkPrimHelper&#45;&gt;TransMatrix</title>
<path fill="none" stroke="black" d="M782.45,-183.33C929.39,-150.18 1303.38,-65.81 1450.28,-32.66"/>
<polygon fill="black" stroke="black" points="1451.48,-35.98 1460.46,-30.37 1449.94,-29.15 1451.48,-35.98"/>
<text text-anchor="middle" x="1455.46" y="-34.17" font-family="Times,serif" font-size="14.00">1</text>
</g>
</g>
</svg>
