<?xml version="1.0" encoding="UTF-8" standalone="no"?>
<!DOCTYPE svg PUBLIC "-//W3C//DTD SVG 1.1//EN"
 "http://www.w3.org/Graphics/SVG/1.1/DTD/svg11.dtd">
<!-- Generated by graphviz version 2.43.0 (0)
 -->
<!-- Title: bo4.DopplegangerStepStone Pages: 1 -->
<svg width="2795pt" height="404pt"
 viewBox="0.00 0.00 2795.48 404.00" xmlns="http://www.w3.org/2000/svg" xmlns:xlink="http://www.w3.org/1999/xlink">
<g id="graph0" class="graph" transform="scale(1 1) rotate(0) translate(4 400)">
<title>bo4.DopplegangerStepStone</title>
<polygon fill="white" stroke="transparent" points="-4,4 -4,-400 2791.48,-400 2791.48,4 -4,4"/>
<!-- bo4.DopplegangerStepStone -->
<g id="node1" class="node">
<title>bo4.DopplegangerStepStone</title>
<ellipse fill="green" stroke="black" cx="1617.73" cy="-198" rx="144.07" ry="18"/>
<text text-anchor="middle" x="1617.73" y="-194.3" font-family="Times,serif" font-size="14.00">bo4.DopplegangerStepStone</text>
</g>
<!-- bo4.BO4_CreateEntFactoryFromEntity -->
<g id="node2" class="node">
<title>bo4.BO4_CreateEntFactoryFromEntity</title>
<g id="a_node2"><a xlink:href="bo4.BO4_CreateEntFactoryFromEntity.svg" xlink:title="bo4.BO4_CreateEntFactoryFromEntity">
<ellipse fill="green" stroke="black" cx="191.73" cy="-18" rx="191.97" ry="18"/>
<text text-anchor="middle" x="191.73" y="-14.3" font-family="Times,serif" font-size="14.00">bo4.BO4_CreateEntFactoryFromEntity</text>
</a>
</g>
</g>
<!-- bo4.DopplegangerStepStone&#45;&gt;bo4.BO4_CreateEntFactoryFromEntity -->
<g id="edge1" class="edge">
<title>bo4.DopplegangerStepStone&#45;&gt;bo4.BO4_CreateEntFactoryFromEntity</title>
<path fill="none" stroke="black" d="M1519.72,-184.77C1266.12,-153.11 588.94,-68.58 312.15,-34.03"/>
<polygon fill="black" stroke="black" points="312.43,-30.54 302.07,-32.77 311.56,-37.48 312.43,-30.54"/>
<text text-anchor="middle" x="297.07" y="-36.57" font-family="Times,serif" font-size="14.00">6</text>
</g>
<!-- bo4.BO4_func_801133E68 -->
<g id="node3" class="node">
<title>bo4.BO4_func_801133E68</title>
<g id="a_node3"><a xlink:href="bo4.BO4_func_801133E68.svg" xlink:title="bo4.BO4_func_801133E68">
<ellipse fill="green" stroke="black" cx="534.73" cy="-18" rx="133.48" ry="18"/>
<text text-anchor="middle" x="534.73" y="-14.3" font-family="Times,serif" font-size="14.00">bo4.BO4_func_801133E68</text>
</a>
</g>
</g>
<!-- bo4.DopplegangerStepStone&#45;&gt;bo4.BO4_func_801133E68 -->
<g id="edge2" class="edge">
<title>bo4.DopplegangerStepStone&#45;&gt;bo4.BO4_func_801133E68</title>
<path fill="none" stroke="black" d="M1534.1,-183.25C1334.69,-150.48 832.52,-67.94 625.81,-33.97"/>
<polygon fill="black" stroke="black" points="626.33,-30.51 615.89,-32.34 625.19,-37.41 626.33,-30.51"/>
<text text-anchor="middle" x="610.89" y="-36.14" font-family="Times,serif" font-size="14.00">1</text>
</g>
<!-- bo4.BO4_func_us_801C5430 -->
<g id="node4" class="node">
<title>bo4.BO4_func_us_801C5430</title>
<g id="a_node4"><a xlink:href="bo4.BO4_func_us_801C5430.svg" xlink:title="bo4.BO4_func_us_801C5430">
<ellipse fill="green" stroke="black" cx="828.73" cy="-18" rx="142.17" ry="18"/>
<text text-anchor="middle" x="828.73" y="-14.3" font-family="Times,serif" font-size="14.00">bo4.BO4_func_us_801C5430</text>
</a>
</g>
</g>
<!-- bo4.DopplegangerStepStone&#45;&gt;bo4.BO4_func_us_801C5430 -->
<g id="edge3" class="edge">
<title>bo4.DopplegangerStepStone&#45;&gt;bo4.BO4_func_us_801C5430</title>
<path fill="none" stroke="black" d="M1551.14,-181.98C1405.46,-149.11 1059.17,-70.99 905.02,-36.21"/>
<polygon fill="black" stroke="black" points="905.67,-32.77 895.14,-33.98 904.13,-39.6 905.67,-32.77"/>
<text text-anchor="middle" x="890.14" y="-37.78" font-family="Times,serif" font-size="14.00">3</text>
</g>
<!-- bo4.DopSetVelocity -->
<g id="node5" class="node">
<title>bo4.DopSetVelocity</title>
<g id="a_node5"><a xlink:href="bo4.DopSetVelocity.svg" xlink:title="bo4.DopSetVelocity">
<ellipse fill="green" stroke="black" cx="1090.73" cy="-18" rx="101.28" ry="18"/>
<text text-anchor="middle" x="1090.73" y="-14.3" font-family="Times,serif" font-size="14.00">bo4.DopSetVelocity</text>
</a>
</g>
</g>
<!-- bo4.DopplegangerStepStone&#45;&gt;bo4.DopSetVelocity -->
<g id="edge4" class="edge">
<title>bo4.DopplegangerStepStone&#45;&gt;bo4.DopSetVelocity</title>
<path fill="none" stroke="black" d="M1570.04,-180.89C1472.1,-147.81 1248.86,-72.41 1145.33,-37.44"/>
<polygon fill="black" stroke="black" points="1146.29,-34.07 1135.69,-34.19 1144.05,-40.7 1146.29,-34.07"/>
<text text-anchor="middle" x="1130.69" y="-37.99" font-family="Times,serif" font-size="14.00">1</text>
</g>
<!-- bo4.SetDopplegangerAnim -->
<g id="node6" class="node">
<title>bo4.SetDopplegangerAnim</title>
<g id="a_node6"><a xlink:href="bo4.SetDopplegangerAnim.svg" xlink:title="bo4.SetDopplegangerAnim">
<ellipse fill="green" stroke="black" cx="1345.73" cy="-18" rx="135.68" ry="18"/>
<text text-anchor="middle" x="1345.73" y="-14.3" font-family="Times,serif" font-size="14.00">bo4.SetDopplegangerAnim</text>
</a>
</g>
</g>
<!-- bo4.DopplegangerStepStone&#45;&gt;bo4.SetDopplegangerAnim -->
<g id="edge5" class="edge">
<title>bo4.DopplegangerStepStone&#45;&gt;bo4.SetDopplegangerAnim</title>
<path fill="none" stroke="black" d="M1592.14,-180.25C1542.94,-148.05 1435.11,-77.49 1379.85,-41.33"/>
<polygon fill="black" stroke="black" points="1381.74,-38.38 1371.45,-35.83 1377.9,-44.24 1381.74,-38.38"/>
<text text-anchor="middle" x="1366.45" y="-39.63" font-family="Times,serif" font-size="14.00">2</text>
</g>
<!-- bo4.func_us_801C6040 -->
<g id="node7" class="node">
<title>bo4.func_us_801C6040</title>
<g id="a_node7"><a xlink:href="bo4.func_us_801C6040.svg" xlink:title="bo4.func_us_801C6040">
<ellipse fill="green" stroke="black" cx="1617.73" cy="-18" rx="118.08" ry="18"/>
<text text-anchor="middle" x="1617.73" y="-14.3" font-family="Times,serif" font-size="14.00">bo4.func_us_801C6040</text>
</a>
</g>
</g>
<!-- bo4.DopplegangerStepStone&#45;&gt;bo4.func_us_801C6040 -->
<g id="edge6" class="edge">
<title>bo4.DopplegangerStepStone&#45;&gt;bo4.func_us_801C6040</title>
<path fill="none" stroke="black" d="M1617.73,-179.93C1617.73,-148.97 1617.73,-83.3 1617.73,-46.13"/>
<polygon fill="black" stroke="black" points="1621.23,-46.02 1617.73,-36.02 1614.23,-46.02 1621.23,-46.02"/>
<text text-anchor="middle" x="1612.73" y="-39.82" font-family="Times,serif" font-size="14.00">1</text>
</g>
<!-- bo4.func_us_801C72BC -->
<g id="node8" class="node">
<title>bo4.func_us_801C72BC</title>
<g id="a_node8"><a xlink:href="bo4.func_us_801C72BC.svg" xlink:title="bo4.func_us_801C72BC">
<ellipse fill="green" stroke="black" cx="1874.73" cy="-18" rx="120.48" ry="18"/>
<text text-anchor="middle" x="1874.73" y="-14.3" font-family="Times,serif" font-size="14.00">bo4.func_us_801C72BC</text>
</a>
</g>
</g>
<!-- bo4.DopplegangerStepStone&#45;&gt;bo4.func_us_801C72BC -->
<g id="edge7" class="edge">
<title>bo4.DopplegangerStepStone&#45;&gt;bo4.func_us_801C72BC</title>
<path fill="none" stroke="black" d="M1641.91,-180.25C1688.31,-148.12 1789.87,-77.78 1842.17,-41.55"/>
<polygon fill="black" stroke="black" points="1844.2,-44.4 1850.43,-35.83 1840.22,-38.65 1844.2,-44.4"/>
<text text-anchor="middle" x="1845.43" y="-39.63" font-family="Times,serif" font-size="14.00">1</text>
</g>
<!-- bo4.func_us_801C7340 -->
<g id="node9" class="node">
<title>bo4.func_us_801C7340</title>
<g id="a_node9"><a xlink:href="bo4.func_us_801C7340.svg" xlink:title="bo4.func_us_801C7340">
<ellipse fill="green" stroke="black" cx="2131.73" cy="-18" rx="118.08" ry="18"/>
<text text-anchor="middle" x="2131.73" y="-14.3" font-family="Times,serif" font-size="14.00">bo4.func_us_801C7340</text>
</a>
</g>
</g>
<!-- bo4.DopplegangerStepStone&#45;&gt;bo4.func_us_801C7340 -->
<g id="edge8" class="edge">
<title>bo4.DopplegangerStepStone&#45;&gt;bo4.func_us_801C7340</title>
<path fill="none" stroke="black" d="M1664.25,-180.89C1759.29,-147.98 1975.32,-73.16 2076.95,-37.97"/>
<polygon fill="black" stroke="black" points="2078.12,-41.27 2086.42,-34.69 2075.83,-34.66 2078.12,-41.27"/>
<text text-anchor="middle" x="2081.42" y="-38.49" font-family="Times,serif" font-size="14.00">1</text>
</g>
<!-- dra.PlaySfx -->
<g id="node10" class="node">
<title>dra.PlaySfx</title>
<g id="a_node10"><a xlink:href="dra.PlaySfx.svg" xlink:title="dra.PlaySfx">
<ellipse fill="green" stroke="black" cx="2332.73" cy="-18" rx="64.19" ry="18"/>
<text text-anchor="middle" x="2332.73" y="-14.3" font-family="Times,serif" font-size="14.00">dra.PlaySfx</text>
</a>
</g>
</g>
<!-- bo4.DopplegangerStepStone&#45;&gt;dra.PlaySfx -->
<g id="edge9" class="edge">
<title>bo4.DopplegangerStepStone&#45;&gt;dra.PlaySfx</title>
<path fill="none" stroke="black" d="M1679.31,-181.67C1816.32,-147.56 2144.63,-65.83 2276.5,-33"/>
<polygon fill="black" stroke="black" points="2277.54,-36.35 2286.4,-30.54 2275.85,-29.55 2277.54,-36.35"/>
<text text-anchor="middle" x="2281.4" y="-34.34" font-family="Times,serif" font-size="14.00">3</text>
</g>
<!-- dra.func_80102CD8 -->
<g id="node11" class="node">
<title>dra.func_80102CD8</title>
<g id="a_node11"><a xlink:href="dra.func_80102CD8.svg" xlink:title="dra.func_80102CD8">
<ellipse fill="green" stroke="black" cx="2517.73" cy="-18" rx="102.88" ry="18"/>
<text text-anchor="middle" x="2517.73" y="-14.3" font-family="Times,serif" font-size="14.00">dra.func_80102CD8</text>
</a>
</g>
</g>
<!-- bo4.DopplegangerStepStone&#45;&gt;dra.func_80102CD8 -->
<g id="edge10" class="edge">
<title>bo4.DopplegangerStepStone&#45;&gt;dra.func_80102CD8</title>
<path fill="none" stroke="black" d="M1691.38,-182.43C1859.94,-149.1 2272.3,-67.54 2442.43,-33.89"/>
<polygon fill="black" stroke="black" points="2443.18,-37.31 2452.31,-31.94 2441.82,-30.45 2443.18,-37.31"/>
<text text-anchor="middle" x="2447.31" y="-35.74" font-family="Times,serif" font-size="14.00">1</text>
</g>
<!-- g_api_PlaySfx -->
<g id="node12" class="node">
<title>g_api_PlaySfx</title>
<g id="a_node12"><a xlink:href="g_api_PlaySfx.svg" xlink:title="g_api_PlaySfx">
<ellipse fill="lightblue" stroke="black" cx="2712.73" cy="-18" rx="74.99" ry="18"/>
<text text-anchor="middle" x="2712.73" y="-14.3" font-family="Times,serif" font-size="14.00">g_api_PlaySfx</text>
</a>
</g>
</g>
<!-- bo4.DopplegangerStepStone&#45;&gt;g_api_PlaySfx -->
<g id="edge11" class="edge">
<title>bo4.DopplegangerStepStone&#45;&gt;g_api_PlaySfx</title>
<path fill="none" stroke="black" d="M1708.33,-183.96C1885.66,-158.14 2290.83,-97.63 2629.73,-36 2635.81,-34.89 2642.13,-33.69 2648.44,-32.46"/>
<polygon fill="black" stroke="black" points="2649.2,-35.88 2658.33,-30.5 2647.84,-29.01 2649.2,-35.88"/>
<text text-anchor="middle" x="2653.33" y="-34.3" font-family="Times,serif" font-size="14.00">2</text>
</g>
<!-- bo4.EntityDoppleganger10 -->
<g id="node13" class="node">
<title>bo4.EntityDoppleganger10</title>
<g id="a_node13"><a xlink:href="bo4.EntityDoppleganger10.svg" xlink:title="bo4.EntityDoppleganger10">
<ellipse fill="green" stroke="black" cx="1617.73" cy="-378" rx="136.48" ry="18"/>
<text text-anchor="middle" x="1617.73" y="-374.3" font-family="Times,serif" font-size="14.00">bo4.EntityDoppleganger10</text>
</a>
</g>
</g>
<!-- bo4.EntityDoppleganger10&#45;&gt;bo4.DopplegangerStepStone -->
<g id="edge12" class="edge">
<title>bo4.EntityDoppleganger10&#45;&gt;bo4.DopplegangerStepStone</title>
<path fill="none" stroke="black" d="M1617.73,-359.93C1617.73,-328.97 1617.73,-263.3 1617.73,-226.13"/>
<polygon fill="black" stroke="black" points="1621.23,-226.02 1617.73,-216.02 1614.23,-226.02 1621.23,-226.02"/>
<text text-anchor="middle" x="1612.73" y="-348.73" font-family="Times,serif" font-size="14.00">1</text>
</g>
</g>
</svg>
