<?xml version="1.0" encoding="UTF-8" standalone="no"?>
<!DOCTYPE svg PUBLIC "-//W3C//DTD SVG 1.1//EN"
 "http://www.w3.org/Graphics/SVG/1.1/DTD/svg11.dtd">
<!-- Generated by graphviz version 2.43.0 (0)
 -->
<!-- Title: bo4.EntityEnemyBlood Pages: 1 -->
<svg width="1554pt" height="224pt"
 viewBox="0.00 0.00 1554.18 224.00" xmlns="http://www.w3.org/2000/svg" xmlns:xlink="http://www.w3.org/1999/xlink">
<g id="graph0" class="graph" transform="scale(1 1) rotate(0) translate(4 220)">
<title>bo4.EntityEnemyBlood</title>
<polygon fill="white" stroke="transparent" points="-4,4 -4,-220 1550.18,-220 1550.18,4 -4,4"/>
<!-- bo4.EntityEnemyBlood -->
<g id="node1" class="node">
<title>bo4.EntityEnemyBlood</title>
<ellipse fill="green" stroke="black" cx="685.19" cy="-198" rx="118.08" ry="18"/>
<text text-anchor="middle" x="685.19" y="-194.3" font-family="Times,serif" font-size="14.00">bo4.EntityEnemyBlood</text>
</g>
<!-- bo4.DestroyEntity -->
<g id="node2" class="node">
<title>bo4.DestroyEntity</title>
<g id="a_node2"><a xlink:href="bo4.DestroyEntity.svg" xlink:title="bo4.DestroyEntity">
<ellipse fill="green" stroke="black" cx="96.19" cy="-18" rx="96.38" ry="18"/>
<text text-anchor="middle" x="96.19" y="-14.3" font-family="Times,serif" font-size="14.00">bo4.DestroyEntity</text>
</a>
</g>
</g>
<!-- bo4.EntityEnemyBlood&#45;&gt;bo4.DestroyEntity -->
<g id="edge1" class="edge">
<title>bo4.EntityEnemyBlood&#45;&gt;bo4.DestroyEntity</title>
<path fill="none" stroke="black" d="M634.46,-181.67C525.47,-148.73 269.48,-71.37 154.23,-36.54"/>
<polygon fill="black" stroke="black" points="155.1,-33.15 144.52,-33.6 153.08,-39.85 155.1,-33.15"/>
<text text-anchor="middle" x="139.52" y="-37.4" font-family="Times,serif" font-size="14.00">1</text>
</g>
<!-- bo4.InitializeEntity -->
<g id="node3" class="node">
<title>bo4.InitializeEntity</title>
<g id="a_node3"><a xlink:href="bo4.InitializeEntity.svg" xlink:title="bo4.InitializeEntity">
<ellipse fill="green" stroke="black" cx="310.19" cy="-18" rx="100.18" ry="18"/>
<text text-anchor="middle" x="310.19" y="-14.3" font-family="Times,serif" font-size="14.00">bo4.InitializeEntity</text>
</a>
</g>
</g>
<!-- bo4.EntityEnemyBlood&#45;&gt;bo4.InitializeEntity -->
<g id="edge2" class="edge">
<title>bo4.EntityEnemyBlood&#45;&gt;bo4.InitializeEntity</title>
<path fill="none" stroke="black" d="M650.92,-180.73C582.34,-148.18 428.39,-75.11 353.18,-39.41"/>
<polygon fill="black" stroke="black" points="354.51,-36.16 343.98,-35.04 351.51,-42.49 354.51,-36.16"/>
<text text-anchor="middle" x="338.98" y="-38.84" font-family="Times,serif" font-size="14.00">1</text>
</g>
<!-- bo4.MoveEntity -->
<g id="node4" class="node">
<title>bo4.MoveEntity</title>
<g id="a_node4"><a xlink:href="bo4.MoveEntity.svg" xlink:title="bo4.MoveEntity">
<ellipse fill="green" stroke="black" cx="513.19" cy="-18" rx="85.29" ry="18"/>
<text text-anchor="middle" x="513.19" y="-14.3" font-family="Times,serif" font-size="14.00">bo4.MoveEntity</text>
</a>
</g>
</g>
<!-- bo4.EntityEnemyBlood&#45;&gt;bo4.MoveEntity -->
<g id="edge3" class="edge">
<title>bo4.EntityEnemyBlood&#45;&gt;bo4.MoveEntity</title>
<path fill="none" stroke="black" d="M668.7,-179.93C637.93,-148.09 571.7,-79.54 536.42,-43.04"/>
<polygon fill="black" stroke="black" points="538.85,-40.51 529.38,-35.76 533.81,-45.38 538.85,-40.51"/>
<text text-anchor="middle" x="524.38" y="-39.56" font-family="Times,serif" font-size="14.00">1</text>
</g>
<!-- bo4.Random -->
<g id="node5" class="node">
<title>bo4.Random</title>
<g id="a_node5"><a xlink:href="bo4.Random.svg" xlink:title="bo4.Random">
<ellipse fill="green" stroke="black" cx="685.19" cy="-18" rx="68.79" ry="18"/>
<text text-anchor="middle" x="685.19" y="-14.3" font-family="Times,serif" font-size="14.00">bo4.Random</text>
</a>
</g>
</g>
<!-- bo4.EntityEnemyBlood&#45;&gt;bo4.Random -->
<g id="edge4" class="edge">
<title>bo4.EntityEnemyBlood&#45;&gt;bo4.Random</title>
<path fill="none" stroke="black" d="M685.19,-179.93C685.19,-148.97 685.19,-83.3 685.19,-46.13"/>
<polygon fill="black" stroke="black" points="688.69,-46.02 685.19,-36.02 681.69,-46.02 688.69,-46.02"/>
<text text-anchor="middle" x="680.19" y="-39.82" font-family="Times,serif" font-size="14.00">5</text>
</g>
<!-- bo4.UnkEntityFunc0 -->
<g id="node6" class="node">
<title>bo4.UnkEntityFunc0</title>
<g id="a_node6"><a xlink:href="bo4.UnkEntityFunc0.svg" xlink:title="bo4.UnkEntityFunc0">
<ellipse fill="green" stroke="black" cx="879.19" cy="-18" rx="107.48" ry="18"/>
<text text-anchor="middle" x="879.19" y="-14.3" font-family="Times,serif" font-size="14.00">bo4.UnkEntityFunc0</text>
</a>
</g>
</g>
<!-- bo4.EntityEnemyBlood&#45;&gt;bo4.UnkEntityFunc0 -->
<g id="edge5" class="edge">
<title>bo4.EntityEnemyBlood&#45;&gt;bo4.UnkEntityFunc0</title>
<path fill="none" stroke="black" d="M703.79,-179.93C738.65,-147.95 813.83,-78.97 853.49,-42.58"/>
<polygon fill="black" stroke="black" points="855.93,-45.1 860.93,-35.76 851.19,-39.94 855.93,-45.1"/>
<text text-anchor="middle" x="855.93" y="-39.56" font-family="Times,serif" font-size="14.00">1</text>
</g>
<!-- dra.CheckEquipmentItemCount -->
<g id="node7" class="node">
<title>dra.CheckEquipmentItemCount</title>
<g id="a_node7"><a xlink:href="dra.CheckEquipmentItemCount.svg" xlink:title="dra.CheckEquipmentItemCount">
<ellipse fill="green" stroke="black" cx="1162.19" cy="-18" rx="157.87" ry="18"/>
<text text-anchor="middle" x="1162.19" y="-14.3" font-family="Times,serif" font-size="14.00">dra.CheckEquipmentItemCount</text>
</a>
</g>
</g>
<!-- bo4.EntityEnemyBlood&#45;&gt;dra.CheckEquipmentItemCount -->
<g id="edge6" class="edge">
<title>bo4.EntityEnemyBlood&#45;&gt;dra.CheckEquipmentItemCount</title>
<path fill="none" stroke="black" d="M727.94,-181.05C815.16,-148.5 1013.41,-74.52 1108.87,-38.9"/>
<polygon fill="black" stroke="black" points="1110.19,-42.14 1118.33,-35.37 1107.74,-35.58 1110.19,-42.14"/>
<text text-anchor="middle" x="1113.33" y="-39.17" font-family="Times,serif" font-size="14.00">1</text>
</g>
<!-- dra.func_800EDB58 -->
<g id="node8" class="node">
<title>dra.func_800EDB58</title>
<g id="a_node8"><a xlink:href="dra.func_800EDB58.svg" xlink:title="dra.func_800EDB58">
<ellipse fill="green" stroke="black" cx="1442.19" cy="-18" rx="103.98" ry="18"/>
<text text-anchor="middle" x="1442.19" y="-14.3" font-family="Times,serif" font-size="14.00">dra.func_800EDB58</text>
</a>
</g>
</g>
<!-- bo4.EntityEnemyBlood&#45;&gt;dra.func_800EDB58 -->
<g id="edge7" class="edge">
<title>bo4.EntityEnemyBlood&#45;&gt;dra.func_800EDB58</title>
<path fill="none" stroke="black" d="M746.5,-182.58C886.11,-149.76 1226.92,-69.62 1373.41,-35.17"/>
<polygon fill="black" stroke="black" points="1374.26,-38.57 1383.2,-32.87 1372.66,-31.75 1374.26,-38.57"/>
<text text-anchor="middle" x="1378.2" y="-36.67" font-family="Times,serif" font-size="14.00">1</text>
</g>
</g>
</svg>
