<?xml version="1.0" encoding="UTF-8" standalone="no"?>
<!DOCTYPE svg PUBLIC "-//W3C//DTD SVG 1.1//EN"
 "http://www.w3.org/Graphics/SVG/1.1/DTD/svg11.dtd">
<!-- Generated by graphviz version 2.43.0 (0)
 -->
<!-- Title: bo4.func_us_801CA014 Pages: 1 -->
<svg width="977pt" height="404pt"
 viewBox="0.00 0.00 977.13 404.00" xmlns="http://www.w3.org/2000/svg" xmlns:xlink="http://www.w3.org/1999/xlink">
<g id="graph0" class="graph" transform="scale(1 1) rotate(0) translate(4 400)">
<title>bo4.func_us_801CA014</title>
<polygon fill="white" stroke="transparent" points="-4,4 -4,-400 973.13,-400 973.13,4 -4,4"/>
<!-- bo4.func_us_801CA014 -->
<g id="node1" class="node">
<title>bo4.func_us_801CA014</title>
<ellipse fill="green" stroke="black" cx="420.79" cy="-198" rx="118.08" ry="18"/>
<text text-anchor="middle" x="420.79" y="-194.3" font-family="Times,serif" font-size="14.00">bo4.func_us_801CA014</text>
</g>
<!-- D_us_801813D0 -->
<g id="node2" class="node">
<title>D_us_801813D0</title>
<g id="a_node2"><a xlink:href="D_us_801813D0.svg" xlink:title="D_us_801813D0">
<ellipse fill="lightblue" stroke="black" cx="85.79" cy="-18" rx="85.59" ry="18"/>
<text text-anchor="middle" x="85.79" y="-14.3" font-family="Times,serif" font-size="14.00">D_us_801813D0</text>
</a>
</g>
</g>
<!-- bo4.func_us_801CA014&#45;&gt;D_us_801813D0 -->
<g id="edge1" class="edge">
<title>bo4.func_us_801CA014&#45;&gt;D_us_801813D0</title>
<path fill="none" stroke="black" d="M389.88,-180.57C328.62,-148.02 191.93,-75.4 124.68,-39.66"/>
<polygon fill="black" stroke="black" points="126.14,-36.48 115.67,-34.87 122.86,-42.66 126.14,-36.48"/>
<text text-anchor="middle" x="110.67" y="-38.67" font-family="Times,serif" font-size="14.00">1</text>
</g>
<!-- FntPrint -->
<g id="node3" class="node">
<title>FntPrint</title>
<g id="a_node3"><a xlink:href="FntPrint.svg" xlink:title="FntPrint">
<ellipse fill="lightblue" stroke="black" cx="239.79" cy="-18" rx="50.09" ry="18"/>
<text text-anchor="middle" x="239.79" y="-14.3" font-family="Times,serif" font-size="14.00">FntPrint</text>
</a>
</g>
</g>
<!-- bo4.func_us_801CA014&#45;&gt;FntPrint -->
<g id="edge2" class="edge">
<title>bo4.func_us_801CA014&#45;&gt;FntPrint</title>
<path fill="none" stroke="black" d="M403.44,-179.93C370.89,-147.93 300.64,-78.84 263.67,-42.48"/>
<polygon fill="black" stroke="black" points="265.89,-39.76 256.31,-35.24 260.98,-44.75 265.89,-39.76"/>
<text text-anchor="middle" x="251.31" y="-39.04" font-family="Times,serif" font-size="14.00">1</text>
</g>
<!-- bo4.BO4_UpdateAnim -->
<g id="node4" class="node">
<title>bo4.BO4_UpdateAnim</title>
<g id="a_node4"><a xlink:href="bo4.BO4_UpdateAnim.svg" xlink:title="bo4.BO4_UpdateAnim">
<ellipse fill="green" stroke="black" cx="420.79" cy="-18" rx="113.18" ry="18"/>
<text text-anchor="middle" x="420.79" y="-14.3" font-family="Times,serif" font-size="14.00">bo4.BO4_UpdateAnim</text>
</a>
</g>
</g>
<!-- bo4.func_us_801CA014&#45;&gt;bo4.BO4_UpdateAnim -->
<g id="edge3" class="edge">
<title>bo4.func_us_801CA014&#45;&gt;bo4.BO4_UpdateAnim</title>
<path fill="none" stroke="black" d="M420.79,-179.93C420.79,-148.97 420.79,-83.3 420.79,-46.13"/>
<polygon fill="black" stroke="black" points="424.29,-46.02 420.79,-36.02 417.29,-46.02 424.29,-46.02"/>
<text text-anchor="middle" x="415.79" y="-39.82" font-family="Times,serif" font-size="14.00">1</text>
</g>
<!-- bo4.DestroyEntity -->
<g id="node5" class="node">
<title>bo4.DestroyEntity</title>
<g id="a_node5"><a xlink:href="bo4.DestroyEntity.svg" xlink:title="bo4.DestroyEntity">
<ellipse fill="green" stroke="black" cx="647.79" cy="-18" rx="96.38" ry="18"/>
<text text-anchor="middle" x="647.79" y="-14.3" font-family="Times,serif" font-size="14.00">bo4.DestroyEntity</text>
</a>
</g>
</g>
<!-- bo4.func_us_801CA014&#45;&gt;bo4.DestroyEntity -->
<g id="edge4" class="edge">
<title>bo4.func_us_801CA014&#45;&gt;bo4.DestroyEntity</title>
<path fill="none" stroke="black" d="M442.15,-180.25C482.98,-148.24 572.18,-78.29 618.53,-41.95"/>
<polygon fill="black" stroke="black" points="620.95,-44.5 626.66,-35.57 616.63,-38.99 620.95,-44.5"/>
<text text-anchor="middle" x="621.66" y="-39.37" font-family="Times,serif" font-size="14.00">1</text>
</g>
<!-- dra.func_800EA5AC -->
<g id="node6" class="node">
<title>dra.func_800EA5AC</title>
<g id="a_node6"><a xlink:href="dra.func_800EA5AC.svg" xlink:title="dra.func_800EA5AC">
<ellipse fill="green" stroke="black" cx="865.79" cy="-18" rx="103.18" ry="18"/>
<text text-anchor="middle" x="865.79" y="-14.3" font-family="Times,serif" font-size="14.00">dra.func_800EA5AC</text>
</a>
</g>
</g>
<!-- bo4.func_us_801CA014&#45;&gt;dra.func_800EA5AC -->
<g id="edge5" class="edge">
<title>bo4.func_us_801CA014&#45;&gt;dra.func_800EA5AC</title>
<path fill="none" stroke="black" d="M460.67,-181.05C542.39,-148.36 728.58,-73.88 817.19,-38.44"/>
<polygon fill="black" stroke="black" points="818.49,-41.69 826.48,-34.73 815.89,-35.19 818.49,-41.69"/>
<text text-anchor="middle" x="821.48" y="-38.53" font-family="Times,serif" font-size="14.00">1</text>
</g>
<!-- bo4.EntityUnkId16 -->
<g id="node7" class="node">
<title>bo4.EntityUnkId16</title>
<g id="a_node7"><a xlink:href="bo4.EntityUnkId16.svg" xlink:title="bo4.EntityUnkId16">
<ellipse fill="green" stroke="black" cx="420.79" cy="-378" rx="99.38" ry="18"/>
<text text-anchor="middle" x="420.79" y="-374.3" font-family="Times,serif" font-size="14.00">bo4.EntityUnkId16</text>
</a>
</g>
</g>
<!-- bo4.EntityUnkId16&#45;&gt;bo4.func_us_801CA014 -->
<g id="edge6" class="edge">
<title>bo4.EntityUnkId16&#45;&gt;bo4.func_us_801CA014</title>
<path fill="none" stroke="black" d="M420.79,-359.93C420.79,-328.97 420.79,-263.3 420.79,-226.13"/>
<polygon fill="black" stroke="black" points="424.29,-226.02 420.79,-216.02 417.29,-226.02 424.29,-226.02"/>
<text text-anchor="middle" x="415.79" y="-348.73" font-family="Times,serif" font-size="14.00">1</text>
</g>
</g>
</svg>
