<?xml version="1.0" encoding="UTF-8" standalone="no"?>
<!DOCTYPE svg PUBLIC "-//W3C//DTD SVG 1.1//EN"
 "http://www.w3.org/Graphics/SVG/1.1/DTD/svg11.dtd">
<!-- Generated by graphviz version 2.43.0 (0)
 -->
<!-- Title: bo4.EntityPrizeDrop Pages: 1 -->
<svg width="3672pt" height="404pt"
 viewBox="0.00 0.00 3671.93 404.00" xmlns="http://www.w3.org/2000/svg" xmlns:xlink="http://www.w3.org/1999/xlink">
<g id="graph0" class="graph" transform="scale(1 1) rotate(0) translate(4 400)">
<title>bo4.EntityPrizeDrop</title>
<polygon fill="white" stroke="transparent" points="-4,4 -4,-400 3667.93,-400 3667.93,4 -4,4"/>
<!-- bo4.EntityPrizeDrop -->
<g id="node1" class="node">
<title>bo4.EntityPrizeDrop</title>
<ellipse fill="green" stroke="black" cx="1917.14" cy="-198" rx="106.68" ry="18"/>
<text text-anchor="middle" x="1917.14" y="-194.3" font-family="Times,serif" font-size="14.00">bo4.EntityPrizeDrop</text>
</g>
<!-- bo4.AnimateEntity -->
<g id="node2" class="node">
<title>bo4.AnimateEntity</title>
<g id="a_node2"><a xlink:href="bo4.AnimateEntity.svg" xlink:title="bo4.AnimateEntity">
<ellipse fill="green" stroke="black" cx="98.14" cy="-18" rx="98.28" ry="18"/>
<text text-anchor="middle" x="98.14" y="-14.3" font-family="Times,serif" font-size="14.00">bo4.AnimateEntity</text>
</a>
</g>
</g>
<!-- bo4.EntityPrizeDrop&#45;&gt;bo4.AnimateEntity -->
<g id="edge1" class="edge">
<title>bo4.EntityPrizeDrop&#45;&gt;bo4.AnimateEntity</title>
<path fill="none" stroke="black" d="M1820.84,-190.11C1560.08,-170.98 818.6,-113.5 205.14,-36 196.23,-34.87 186.93,-33.58 177.68,-32.21"/>
<polygon fill="black" stroke="black" points="178.1,-28.74 167.69,-30.71 177.06,-35.66 178.1,-28.74"/>
<text text-anchor="middle" x="162.69" y="-34.51" font-family="Times,serif" font-size="14.00">1</text>
</g>
<!-- bo4.CheckFieldCollision -->
<g id="node3" class="node">
<title>bo4.CheckFieldCollision</title>
<g id="a_node3"><a xlink:href="bo4.CheckFieldCollision.svg" xlink:title="bo4.CheckFieldCollision">
<ellipse fill="green" stroke="black" cx="336.14" cy="-18" rx="122.38" ry="18"/>
<text text-anchor="middle" x="336.14" y="-14.3" font-family="Times,serif" font-size="14.00">bo4.CheckFieldCollision</text>
</a>
</g>
</g>
<!-- bo4.EntityPrizeDrop&#45;&gt;bo4.CheckFieldCollision -->
<g id="edge2" class="edge">
<title>bo4.EntityPrizeDrop&#45;&gt;bo4.CheckFieldCollision</title>
<path fill="none" stroke="black" d="M1829.22,-187.81C1603.11,-164.05 982.96,-98.1 467.14,-36 456.42,-34.71 445.21,-33.32 434.06,-31.91"/>
<polygon fill="black" stroke="black" points="434.2,-28.4 423.84,-30.61 433.32,-35.34 434.2,-28.4"/>
<text text-anchor="middle" x="418.84" y="-34.41" font-family="Times,serif" font-size="14.00">2</text>
</g>
<!-- bo4.CollectDummy -->
<g id="node4" class="node">
<title>bo4.CollectDummy</title>
<g id="a_node4"><a xlink:href="bo4.CollectDummy.svg" xlink:title="bo4.CollectDummy">
<ellipse fill="green" stroke="black" cx="575.14" cy="-18" rx="98.58" ry="18"/>
<text text-anchor="middle" x="575.14" y="-14.3" font-family="Times,serif" font-size="14.00">bo4.CollectDummy</text>
</a>
</g>
</g>
<!-- bo4.EntityPrizeDrop&#45;&gt;bo4.CollectDummy -->
<g id="edge3" class="edge">
<title>bo4.EntityPrizeDrop&#45;&gt;bo4.CollectDummy</title>
<path fill="none" stroke="black" d="M1833.25,-186.83C1633.69,-162.47 1115.12,-98.17 683.14,-36 674.54,-34.76 665.56,-33.42 656.62,-32.06"/>
<polygon fill="black" stroke="black" points="656.97,-28.57 646.56,-30.51 655.91,-35.49 656.97,-28.57"/>
<text text-anchor="middle" x="641.56" y="-34.31" font-family="Times,serif" font-size="14.00">1</text>
</g>
<!-- bo4.CollectGold -->
<g id="node5" class="node">
<title>bo4.CollectGold</title>
<g id="a_node5"><a xlink:href="bo4.CollectGold.svg" xlink:title="bo4.CollectGold">
<ellipse fill="green" stroke="black" cx="776.14" cy="-18" rx="84.49" ry="18"/>
<text text-anchor="middle" x="776.14" y="-14.3" font-family="Times,serif" font-size="14.00">bo4.CollectGold</text>
</a>
</g>
</g>
<!-- bo4.EntityPrizeDrop&#45;&gt;bo4.CollectGold -->
<g id="edge4" class="edge">
<title>bo4.EntityPrizeDrop&#45;&gt;bo4.CollectGold</title>
<path fill="none" stroke="black" d="M1838.8,-185.74C1664.36,-160.5 1230.84,-96.83 869.14,-36 862.08,-34.81 854.71,-33.53 847.36,-32.23"/>
<polygon fill="black" stroke="black" points="847.84,-28.76 837.38,-30.45 846.61,-35.65 847.84,-28.76"/>
<text text-anchor="middle" x="832.38" y="-34.25" font-family="Times,serif" font-size="14.00">1</text>
</g>
<!-- bo4.CollectHeart -->
<g id="node6" class="node">
<title>bo4.CollectHeart</title>
<g id="a_node6"><a xlink:href="bo4.CollectHeart.svg" xlink:title="bo4.CollectHeart">
<ellipse fill="green" stroke="black" cx="968.14" cy="-18" rx="89.88" ry="18"/>
<text text-anchor="middle" x="968.14" y="-14.3" font-family="Times,serif" font-size="14.00">bo4.CollectHeart</text>
</a>
</g>
</g>
<!-- bo4.EntityPrizeDrop&#45;&gt;bo4.CollectHeart -->
<g id="edge5" class="edge">
<title>bo4.EntityPrizeDrop&#45;&gt;bo4.CollectHeart</title>
<path fill="none" stroke="black" d="M1848.51,-184.13C1674.97,-151.58 1219.82,-66.21 1041.4,-32.74"/>
<polygon fill="black" stroke="black" points="1041.79,-29.25 1031.32,-30.85 1040.5,-36.13 1041.79,-29.25"/>
<text text-anchor="middle" x="1026.32" y="-34.65" font-family="Times,serif" font-size="14.00">1</text>
</g>
<!-- bo4.CollectHeartVessel -->
<g id="node7" class="node">
<title>bo4.CollectHeartVessel</title>
<g id="a_node7"><a xlink:href="bo4.CollectHeartVessel.svg" xlink:title="bo4.CollectHeartVessel">
<ellipse fill="green" stroke="black" cx="1195.14" cy="-18" rx="118.88" ry="18"/>
<text text-anchor="middle" x="1195.14" y="-14.3" font-family="Times,serif" font-size="14.00">bo4.CollectHeartVessel</text>
</a>
</g>
</g>
<!-- bo4.EntityPrizeDrop&#45;&gt;bo4.CollectHeartVessel -->
<g id="edge6" class="edge">
<title>bo4.EntityPrizeDrop&#45;&gt;bo4.CollectHeartVessel</title>
<path fill="none" stroke="black" d="M1859.58,-182.81C1728.18,-150.41 1406.57,-71.13 1264.52,-36.1"/>
<polygon fill="black" stroke="black" points="1265.16,-32.66 1254.61,-33.66 1263.48,-39.45 1265.16,-32.66"/>
<text text-anchor="middle" x="1249.61" y="-37.46" font-family="Times,serif" font-size="14.00">1</text>
</g>
<!-- bo4.CollectLifeVessel -->
<g id="node8" class="node">
<title>bo4.CollectLifeVessel</title>
<g id="a_node8"><a xlink:href="bo4.CollectLifeVessel.svg" xlink:title="bo4.CollectLifeVessel">
<ellipse fill="green" stroke="black" cx="1442.14" cy="-18" rx="109.68" ry="18"/>
<text text-anchor="middle" x="1442.14" y="-14.3" font-family="Times,serif" font-size="14.00">bo4.CollectLifeVessel</text>
</a>
</g>
</g>
<!-- bo4.EntityPrizeDrop&#45;&gt;bo4.CollectLifeVessel -->
<g id="edge7" class="edge">
<title>bo4.EntityPrizeDrop&#45;&gt;bo4.CollectLifeVessel</title>
<path fill="none" stroke="black" d="M1875.4,-181.36C1788.49,-148.79 1588.32,-73.78 1493.6,-38.28"/>
<polygon fill="black" stroke="black" points="1494.55,-34.9 1483.95,-34.67 1492.09,-41.46 1494.55,-34.9"/>
<text text-anchor="middle" x="1478.95" y="-38.47" font-family="Times,serif" font-size="14.00">1</text>
</g>
<!-- bo4.CollectSubweapon -->
<g id="node9" class="node">
<title>bo4.CollectSubweapon</title>
<g id="a_node9"><a xlink:href="bo4.CollectSubweapon.svg" xlink:title="bo4.CollectSubweapon">
<ellipse fill="green" stroke="black" cx="1686.14" cy="-18" rx="116.18" ry="18"/>
<text text-anchor="middle" x="1686.14" y="-14.3" font-family="Times,serif" font-size="14.00">bo4.CollectSubweapon</text>
</a>
</g>
</g>
<!-- bo4.EntityPrizeDrop&#45;&gt;bo4.CollectSubweapon -->
<g id="edge8" class="edge">
<title>bo4.EntityPrizeDrop&#45;&gt;bo4.CollectSubweapon</title>
<path fill="none" stroke="black" d="M1895.41,-180.25C1853.88,-148.25 1763.17,-78.36 1715.99,-42"/>
<polygon fill="black" stroke="black" points="1718.04,-39.16 1707.98,-35.83 1713.77,-44.71 1718.04,-39.16"/>
<text text-anchor="middle" x="1702.98" y="-39.63" font-family="Times,serif" font-size="14.00">1</text>
</g>
<!-- bo4.DestroyEntity -->
<g id="node10" class="node">
<title>bo4.DestroyEntity</title>
<g id="a_node10"><a xlink:href="bo4.DestroyEntity.svg" xlink:title="bo4.DestroyEntity">
<ellipse fill="green" stroke="black" cx="1917.14" cy="-18" rx="96.38" ry="18"/>
<text text-anchor="middle" x="1917.14" y="-14.3" font-family="Times,serif" font-size="14.00">bo4.DestroyEntity</text>
</a>
</g>
</g>
<!-- bo4.EntityPrizeDrop&#45;&gt;bo4.DestroyEntity -->
<g id="edge9" class="edge">
<title>bo4.EntityPrizeDrop&#45;&gt;bo4.DestroyEntity</title>
<path fill="none" stroke="black" d="M1917.14,-179.93C1917.14,-148.97 1917.14,-83.3 1917.14,-46.13"/>
<polygon fill="black" stroke="black" points="1920.64,-46.02 1917.14,-36.02 1913.64,-46.02 1920.64,-46.02"/>
<text text-anchor="middle" x="1912.14" y="-39.82" font-family="Times,serif" font-size="14.00">2</text>
</g>
<!-- bo4.FallEntity -->
<g id="node11" class="node">
<title>bo4.FallEntity</title>
<g id="a_node11"><a xlink:href="bo4.FallEntity.svg" xlink:title="bo4.FallEntity">
<ellipse fill="green" stroke="black" cx="2108.14" cy="-18" rx="76.89" ry="18"/>
<text text-anchor="middle" x="2108.14" y="-14.3" font-family="Times,serif" font-size="14.00">bo4.FallEntity</text>
</a>
</g>
</g>
<!-- bo4.EntityPrizeDrop&#45;&gt;bo4.FallEntity -->
<g id="edge10" class="edge">
<title>bo4.EntityPrizeDrop&#45;&gt;bo4.FallEntity</title>
<path fill="none" stroke="black" d="M1935.11,-180.25C1969.33,-148.37 2043.9,-78.87 2083.03,-42.4"/>
<polygon fill="black" stroke="black" points="2085.43,-44.95 2090.36,-35.57 2080.66,-39.83 2085.43,-44.95"/>
<text text-anchor="middle" x="2085.36" y="-39.37" font-family="Times,serif" font-size="14.00">2</text>
</g>
<!-- bo4.InitializeEntity -->
<g id="node12" class="node">
<title>bo4.InitializeEntity</title>
<g id="a_node12"><a xlink:href="bo4.InitializeEntity.svg" xlink:title="bo4.InitializeEntity">
<ellipse fill="green" stroke="black" cx="2303.14" cy="-18" rx="100.18" ry="18"/>
<text text-anchor="middle" x="2303.14" y="-14.3" font-family="Times,serif" font-size="14.00">bo4.InitializeEntity</text>
</a>
</g>
</g>
<!-- bo4.EntityPrizeDrop&#45;&gt;bo4.InitializeEntity -->
<g id="edge11" class="edge">
<title>bo4.EntityPrizeDrop&#45;&gt;bo4.InitializeEntity</title>
<path fill="none" stroke="black" d="M1952.08,-180.89C2022.55,-148.39 2181.62,-75.04 2259.08,-39.32"/>
<polygon fill="black" stroke="black" points="2260.95,-42.31 2268.56,-34.95 2258.02,-35.95 2260.95,-42.31"/>
<text text-anchor="middle" x="2263.56" y="-38.75" font-family="Times,serif" font-size="14.00">1</text>
</g>
<!-- bo4.MoveEntity -->
<g id="node13" class="node">
<title>bo4.MoveEntity</title>
<g id="a_node13"><a xlink:href="bo4.MoveEntity.svg" xlink:title="bo4.MoveEntity">
<ellipse fill="green" stroke="black" cx="2506.14" cy="-18" rx="85.29" ry="18"/>
<text text-anchor="middle" x="2506.14" y="-14.3" font-family="Times,serif" font-size="14.00">bo4.MoveEntity</text>
</a>
</g>
</g>
<!-- bo4.EntityPrizeDrop&#45;&gt;bo4.MoveEntity -->
<g id="edge12" class="edge">
<title>bo4.EntityPrizeDrop&#45;&gt;bo4.MoveEntity</title>
<path fill="none" stroke="black" d="M1966.6,-182.05C2075.3,-149.2 2334.49,-70.87 2449.5,-36.12"/>
<polygon fill="black" stroke="black" points="2450.62,-39.43 2459.18,-33.19 2448.6,-32.73 2450.62,-39.43"/>
<text text-anchor="middle" x="2454.18" y="-36.99" font-family="Times,serif" font-size="14.00">2</text>
</g>
<!-- bo4.PrizeDropFall -->
<g id="node14" class="node">
<title>bo4.PrizeDropFall</title>
<g id="a_node14"><a xlink:href="bo4.PrizeDropFall.svg" xlink:title="bo4.PrizeDropFall">
<ellipse fill="green" stroke="black" cx="2704.14" cy="-18" rx="94.78" ry="18"/>
<text text-anchor="middle" x="2704.14" y="-14.3" font-family="Times,serif" font-size="14.00">bo4.PrizeDropFall</text>
</a>
</g>
</g>
<!-- bo4.EntityPrizeDrop&#45;&gt;bo4.PrizeDropFall -->
<g id="edge13" class="edge">
<title>bo4.EntityPrizeDrop&#45;&gt;bo4.PrizeDropFall</title>
<path fill="none" stroke="black" d="M1978.24,-183.18C2122.63,-150.52 2484.16,-68.75 2635.66,-34.49"/>
<polygon fill="black" stroke="black" points="2636.78,-37.82 2645.76,-32.2 2635.24,-31 2636.78,-37.82"/>
<text text-anchor="middle" x="2640.76" y="-36" font-family="Times,serif" font-size="14.00">1</text>
</g>
<!-- bo4.PrizeDropFall2 -->
<g id="node15" class="node">
<title>bo4.PrizeDropFall2</title>
<g id="a_node15"><a xlink:href="bo4.PrizeDropFall2.svg" xlink:title="bo4.PrizeDropFall2">
<ellipse fill="green" stroke="black" cx="2918.14" cy="-18" rx="100.98" ry="18"/>
<text text-anchor="middle" x="2918.14" y="-14.3" font-family="Times,serif" font-size="14.00">bo4.PrizeDropFall2</text>
</a>
</g>
</g>
<!-- bo4.EntityPrizeDrop&#45;&gt;bo4.PrizeDropFall2 -->
<g id="edge14" class="edge">
<title>bo4.EntityPrizeDrop&#45;&gt;bo4.PrizeDropFall2</title>
<path fill="none" stroke="black" d="M1987.93,-184.41C2169.37,-152.15 2650.08,-66.67 2839.67,-32.95"/>
<polygon fill="black" stroke="black" points="2840.33,-36.39 2849.57,-31.19 2839.11,-29.5 2840.33,-36.39"/>
<text text-anchor="middle" x="2844.57" y="-34.99" font-family="Times,serif" font-size="14.00">3</text>
</g>
<!-- dra.AllocPrimitives -->
<g id="node16" class="node">
<title>dra.AllocPrimitives</title>
<g id="a_node16"><a xlink:href="dra.AllocPrimitives.svg" xlink:title="dra.AllocPrimitives">
<ellipse fill="green" stroke="black" cx="3136.14" cy="-18" rx="99.38" ry="18"/>
<text text-anchor="middle" x="3136.14" y="-14.3" font-family="Times,serif" font-size="14.00">dra.AllocPrimitives</text>
</a>
</g>
</g>
<!-- bo4.EntityPrizeDrop&#45;&gt;dra.AllocPrimitives -->
<g id="edge15" class="edge">
<title>bo4.EntityPrizeDrop&#45;&gt;dra.AllocPrimitives</title>
<path fill="none" stroke="black" d="M1996.33,-185.86C2178.54,-160.16 2641.52,-94.44 3028.14,-36 3036.6,-34.72 3045.42,-33.37 3054.22,-32"/>
<polygon fill="black" stroke="black" points="3054.78,-35.46 3064.12,-30.46 3053.7,-28.54 3054.78,-35.46"/>
<text text-anchor="middle" x="3059.12" y="-34.26" font-family="Times,serif" font-size="14.00">1</text>
</g>
<!-- dra.CheckCollision -->
<g id="node17" class="node">
<title>dra.CheckCollision</title>
<g id="a_node17"><a xlink:href="dra.CheckCollision.svg" xlink:title="dra.CheckCollision">
<ellipse fill="green" stroke="black" cx="3351.14" cy="-18" rx="97.48" ry="18"/>
<text text-anchor="middle" x="3351.14" y="-14.3" font-family="Times,serif" font-size="14.00">dra.CheckCollision</text>
</a>
</g>
</g>
<!-- bo4.EntityPrizeDrop&#45;&gt;dra.CheckCollision -->
<g id="edge16" class="edge">
<title>bo4.EntityPrizeDrop&#45;&gt;dra.CheckCollision</title>
<path fill="none" stroke="black" d="M2004.23,-187.56C2216.54,-164.29 2777.59,-101.34 3244.14,-36 3252.8,-34.79 3261.85,-33.45 3270.85,-32.08"/>
<polygon fill="black" stroke="black" points="3271.63,-35.51 3280.98,-30.53 3270.56,-28.59 3271.63,-35.51"/>
<text text-anchor="middle" x="3275.98" y="-34.33" font-family="Times,serif" font-size="14.00">4</text>
</g>
<!-- dra.FreePrimitives -->
<g id="node18" class="node">
<title>dra.FreePrimitives</title>
<g id="a_node18"><a xlink:href="dra.FreePrimitives.svg" xlink:title="dra.FreePrimitives">
<ellipse fill="green" stroke="black" cx="3565.14" cy="-18" rx="98.58" ry="18"/>
<text text-anchor="middle" x="3565.14" y="-14.3" font-family="Times,serif" font-size="14.00">dra.FreePrimitives</text>
</a>
</g>
</g>
<!-- bo4.EntityPrizeDrop&#45;&gt;dra.FreePrimitives -->
<g id="edge17" class="edge">
<title>bo4.EntityPrizeDrop&#45;&gt;dra.FreePrimitives</title>
<path fill="none" stroke="black" d="M2009.77,-189.01C2249.49,-167.96 2909.72,-107.65 3457.14,-36 3466.06,-34.83 3475.37,-33.52 3484.63,-32.14"/>
<polygon fill="black" stroke="black" points="3485.26,-35.59 3494.63,-30.64 3484.22,-28.67 3485.26,-35.59"/>
<text text-anchor="middle" x="3489.63" y="-34.44" font-family="Times,serif" font-size="14.00">1</text>
</g>
<!-- bo4.EntityEquipItemDrop -->
<g id="node19" class="node">
<title>bo4.EntityEquipItemDrop</title>
<g id="a_node19"><a xlink:href="bo4.EntityEquipItemDrop.svg" xlink:title="bo4.EntityEquipItemDrop">
<ellipse fill="green" stroke="black" cx="1917.14" cy="-378" rx="131.08" ry="18"/>
<text text-anchor="middle" x="1917.14" y="-374.3" font-family="Times,serif" font-size="14.00">bo4.EntityEquipItemDrop</text>
</a>
</g>
</g>
<!-- bo4.EntityEquipItemDrop&#45;&gt;bo4.EntityPrizeDrop -->
<g id="edge18" class="edge">
<title>bo4.EntityEquipItemDrop&#45;&gt;bo4.EntityPrizeDrop</title>
<path fill="none" stroke="black" d="M1917.14,-359.93C1917.14,-328.97 1917.14,-263.3 1917.14,-226.13"/>
<polygon fill="black" stroke="black" points="1920.64,-226.02 1917.14,-216.02 1913.64,-226.02 1920.64,-226.02"/>
<text text-anchor="middle" x="1912.14" y="-348.73" font-family="Times,serif" font-size="14.00">1</text>
</g>
</g>
</svg>
