<?xml version="1.0" encoding="UTF-8" standalone="no"?>
<!DOCTYPE svg PUBLIC "-//W3C//DTD SVG 1.1//EN"
 "http://www.w3.org/Graphics/SVG/1.1/DTD/svg11.dtd">
<!-- Generated by graphviz version 2.43.0 (0)
 -->
<!-- Title: bo4.func_us_801C6E7C Pages: 1 -->
<svg width="761pt" height="404pt"
 viewBox="0.00 0.00 761.42 404.00" xmlns="http://www.w3.org/2000/svg" xmlns:xlink="http://www.w3.org/1999/xlink">
<g id="graph0" class="graph" transform="scale(1 1) rotate(0) translate(4 400)">
<title>bo4.func_us_801C6E7C</title>
<polygon fill="white" stroke="transparent" points="-4,4 -4,-400 757.42,-400 757.42,4 -4,4"/>
<!-- bo4.func_us_801C6E7C -->
<g id="node1" class="node">
<title>bo4.func_us_801C6E7C</title>
<ellipse fill="green" stroke="black" cx="465.73" cy="-198" rx="120.48" ry="18"/>
<text text-anchor="middle" x="465.73" y="-194.3" font-family="Times,serif" font-size="14.00">bo4.func_us_801C6E7C</text>
</g>
<!-- bo4.BO4_CreateEntFactoryFromEntity -->
<g id="node2" class="node">
<title>bo4.BO4_CreateEntFactoryFromEntity</title>
<g id="a_node2"><a xlink:href="bo4.BO4_CreateEntFactoryFromEntity.svg" xlink:title="bo4.BO4_CreateEntFactoryFromEntity">
<ellipse fill="green" stroke="black" cx="191.73" cy="-18" rx="191.97" ry="18"/>
<text text-anchor="middle" x="191.73" y="-14.3" font-family="Times,serif" font-size="14.00">bo4.BO4_CreateEntFactoryFromEntity</text>
</a>
</g>
</g>
<!-- bo4.func_us_801C6E7C&#45;&gt;bo4.BO4_CreateEntFactoryFromEntity -->
<g id="edge1" class="edge">
<title>bo4.func_us_801C6E7C&#45;&gt;bo4.BO4_CreateEntFactoryFromEntity</title>
<path fill="none" stroke="black" d="M439.96,-180.25C390.51,-148.13 282.32,-77.85 226.53,-41.61"/>
<polygon fill="black" stroke="black" points="228.34,-38.6 218.04,-36.09 224.52,-44.47 228.34,-38.6"/>
<text text-anchor="middle" x="213.04" y="-39.89" font-family="Times,serif" font-size="14.00">1</text>
</g>
<!-- dra.PlaySfx -->
<g id="node3" class="node">
<title>dra.PlaySfx</title>
<g id="a_node3"><a xlink:href="dra.PlaySfx.svg" xlink:title="dra.PlaySfx">
<ellipse fill="green" stroke="black" cx="465.73" cy="-18" rx="64.19" ry="18"/>
<text text-anchor="middle" x="465.73" y="-14.3" font-family="Times,serif" font-size="14.00">dra.PlaySfx</text>
</a>
</g>
</g>
<!-- bo4.func_us_801C6E7C&#45;&gt;dra.PlaySfx -->
<g id="edge2" class="edge">
<title>bo4.func_us_801C6E7C&#45;&gt;dra.PlaySfx</title>
<path fill="none" stroke="black" d="M465.73,-179.93C465.73,-148.97 465.73,-83.3 465.73,-46.13"/>
<polygon fill="black" stroke="black" points="469.23,-46.02 465.73,-36.02 462.23,-46.02 469.23,-46.02"/>
<text text-anchor="middle" x="460.73" y="-39.82" font-family="Times,serif" font-size="14.00">1</text>
</g>
<!-- dra.func_80102CD8 -->
<g id="node4" class="node">
<title>dra.func_80102CD8</title>
<g id="a_node4"><a xlink:href="dra.func_80102CD8.svg" xlink:title="dra.func_80102CD8">
<ellipse fill="green" stroke="black" cx="650.73" cy="-18" rx="102.88" ry="18"/>
<text text-anchor="middle" x="650.73" y="-14.3" font-family="Times,serif" font-size="14.00">dra.func_80102CD8</text>
</a>
</g>
</g>
<!-- bo4.func_us_801C6E7C&#45;&gt;dra.func_80102CD8 -->
<g id="edge3" class="edge">
<title>bo4.func_us_801C6E7C&#45;&gt;dra.func_80102CD8</title>
<path fill="none" stroke="black" d="M483.47,-179.93C516.57,-148.09 587.81,-79.54 625.75,-43.04"/>
<polygon fill="black" stroke="black" points="628.54,-45.21 633.32,-35.76 623.69,-40.17 628.54,-45.21"/>
<text text-anchor="middle" x="628.32" y="-39.56" font-family="Times,serif" font-size="14.00">1</text>
</g>
<!-- bo4.DopplegangerStepHighJump -->
<g id="node5" class="node">
<title>bo4.DopplegangerStepHighJump</title>
<g id="a_node5"><a xlink:href="bo4.DopplegangerStepHighJump.svg" xlink:title="bo4.DopplegangerStepHighJump">
<ellipse fill="green" stroke="black" cx="465.73" cy="-378" rx="163.57" ry="18"/>
<text text-anchor="middle" x="465.73" y="-374.3" font-family="Times,serif" font-size="14.00">bo4.DopplegangerStepHighJump</text>
</a>
</g>
</g>
<!-- bo4.DopplegangerStepHighJump&#45;&gt;bo4.func_us_801C6E7C -->
<g id="edge4" class="edge">
<title>bo4.DopplegangerStepHighJump&#45;&gt;bo4.func_us_801C6E7C</title>
<path fill="none" stroke="black" d="M465.73,-359.93C465.73,-328.97 465.73,-263.3 465.73,-226.13"/>
<polygon fill="black" stroke="black" points="469.23,-226.02 465.73,-216.02 462.23,-226.02 469.23,-226.02"/>
<text text-anchor="middle" x="460.73" y="-348.73" font-family="Times,serif" font-size="14.00">2</text>
</g>
</g>
</svg>
