<?xml version="1.0" encoding="UTF-8" standalone="no"?>
<!DOCTYPE svg PUBLIC "-//W3C//DTD SVG 1.1//EN"
 "http://www.w3.org/Graphics/SVG/1.1/DTD/svg11.dtd">
<!-- Generated by graphviz version 2.43.0 (0)
 -->
<!-- Title: boss.GetPlayerCollisionWith Pages: 1 -->
<svg width="294pt" height="404pt"
 viewBox="0.00 0.00 293.97 404.00" xmlns="http://www.w3.org/2000/svg" xmlns:xlink="http://www.w3.org/1999/xlink">
<g id="graph0" class="graph" transform="scale(1 1) rotate(0) translate(4 400)">
<title>boss.GetPlayerCollisionWith</title>
<polygon fill="white" stroke="transparent" points="-4,4 -4,-400 289.97,-400 289.97,4 -4,4"/>
<!-- boss.GetPlayerCollisionWith -->
<g id="node1" class="node">
<title>boss.GetPlayerCollisionWith</title>
<ellipse fill="red" stroke="black" cx="142.99" cy="-198" rx="142.97" ry="18"/>
<text text-anchor="middle" x="142.99" y="-194.3" font-family="Times,serif" font-size="14.00">boss.GetPlayerCollisionWith</text>
</g>
<!-- dra.func_8010BF64 -->
<g id="node2" class="node">
<title>dra.func_8010BF64</title>
<g id="a_node2"><a xlink:href="dra.func_8010BF64.svg" xlink:title="dra.func_8010BF64">
<ellipse fill="green" stroke="black" cx="142.99" cy="-18" rx="102.08" ry="18"/>
<text text-anchor="middle" x="142.99" y="-14.3" font-family="Times,serif" font-size="14.00">dra.func_8010BF64</text>
</a>
</g>
</g>
<!-- boss.GetPlayerCollisionWith&#45;&gt;dra.func_8010BF64 -->
<g id="edge1" class="edge">
<title>boss.GetPlayerCollisionWith&#45;&gt;dra.func_8010BF64</title>
<path fill="none" stroke="black" d="M142.99,-179.93C142.99,-148.97 142.99,-83.3 142.99,-46.13"/>
<polygon fill="black" stroke="black" points="146.49,-46.02 142.99,-36.02 139.49,-46.02 146.49,-46.02"/>
<text text-anchor="middle" x="137.99" y="-39.82" font-family="Times,serif" font-size="14.00">1</text>
</g>
<!-- boss.func_us_80198944 -->
<g id="node3" class="node">
<title>boss.func_us_80198944</title>
<g id="a_node3"><a xlink:href="boss.func_us_80198944.svg" xlink:title="boss.func_us_80198944">
<ellipse fill="red" stroke="black" cx="142.99" cy="-378" rx="120.78" ry="18"/>
<text text-anchor="middle" x="142.99" y="-374.3" font-family="Times,serif" font-size="14.00">boss.func_us_80198944</text>
</a>
</g>
</g>
<!-- boss.func_us_80198944&#45;&gt;boss.GetPlayerCollisionWith -->
<g id="edge2" class="edge">
<title>boss.func_us_80198944&#45;&gt;boss.GetPlayerCollisionWith</title>
<path fill="none" stroke="black" d="M142.99,-359.93C142.99,-328.97 142.99,-263.3 142.99,-226.13"/>
<polygon fill="black" stroke="black" points="146.49,-226.02 142.99,-216.02 139.49,-226.02 146.49,-226.02"/>
<text text-anchor="middle" x="137.99" y="-348.73" font-family="Times,serif" font-size="14.00">1</text>
</g>
</g>
</svg>
