<?xml version="1.0" encoding="UTF-8" standalone="no"?>
<!DOCTYPE svg PUBLIC "-//W3C//DTD SVG 1.1//EN"
 "http://www.w3.org/Graphics/SVG/1.1/DTD/svg11.dtd">
<!-- Generated by graphviz version 2.43.0 (0)
 -->
<!-- Title: boss.CutsceneUnk4 Pages: 1 -->
<svg width="276pt" height="404pt"
 viewBox="0.00 0.00 275.78 404.00" xmlns="http://www.w3.org/2000/svg" xmlns:xlink="http://www.w3.org/1999/xlink">
<g id="graph0" class="graph" transform="scale(1 1) rotate(0) translate(4 400)">
<title>boss.CutsceneUnk4</title>
<polygon fill="white" stroke="transparent" points="-4,4 -4,-400 271.78,-400 271.78,4 -4,4"/>
<!-- boss.CutsceneUnk4 -->
<g id="node1" class="node">
<title>boss.CutsceneUnk4</title>
<ellipse fill="green" stroke="black" cx="133.89" cy="-198" rx="102.88" ry="18"/>
<text text-anchor="middle" x="133.89" y="-194.3" font-family="Times,serif" font-size="14.00">boss.CutsceneUnk4</text>
</g>
<!-- boss.CutsceneUnk3 -->
<g id="node2" class="node">
<title>boss.CutsceneUnk3</title>
<g id="a_node2"><a xlink:href="boss.CutsceneUnk3.svg" xlink:title="boss.CutsceneUnk3">
<ellipse fill="green" stroke="black" cx="133.89" cy="-18" rx="102.88" ry="18"/>
<text text-anchor="middle" x="133.89" y="-14.3" font-family="Times,serif" font-size="14.00">boss.CutsceneUnk3</text>
</a>
</g>
</g>
<!-- boss.CutsceneUnk4&#45;&gt;boss.CutsceneUnk3 -->
<g id="edge1" class="edge">
<title>boss.CutsceneUnk4&#45;&gt;boss.CutsceneUnk3</title>
<path fill="none" stroke="black" d="M133.89,-179.93C133.89,-148.97 133.89,-83.3 133.89,-46.13"/>
<polygon fill="black" stroke="black" points="137.39,-46.02 133.89,-36.02 130.39,-46.02 137.39,-46.02"/>
<text text-anchor="middle" x="128.89" y="-39.82" font-family="Times,serif" font-size="14.00">1</text>
</g>
<!-- boss.EntityMariaCutscene -->
<g id="node3" class="node">
<title>boss.EntityMariaCutscene</title>
<g id="a_node3"><a xlink:href="boss.EntityMariaCutscene.svg" xlink:title="boss.EntityMariaCutscene">
<ellipse fill="red" stroke="black" cx="133.89" cy="-378" rx="133.78" ry="18"/>
<text text-anchor="middle" x="133.89" y="-374.3" font-family="Times,serif" font-size="14.00">boss.EntityMariaCutscene</text>
</a>
</g>
</g>
<!-- boss.EntityMariaCutscene&#45;&gt;boss.CutsceneUnk4 -->
<g id="edge2" class="edge">
<title>boss.EntityMariaCutscene&#45;&gt;boss.CutsceneUnk4</title>
<path fill="none" stroke="black" d="M133.89,-359.93C133.89,-328.97 133.89,-263.3 133.89,-226.13"/>
<polygon fill="black" stroke="black" points="137.39,-226.02 133.89,-216.02 130.39,-226.02 137.39,-226.02"/>
<text text-anchor="middle" x="128.89" y="-348.73" font-family="Times,serif" font-size="14.00">2</text>
</g>
</g>
</svg>
