<?xml version="1.0" encoding="UTF-8" standalone="no"?>
<!DOCTYPE svg PUBLIC "-//W3C//DTD SVG 1.1//EN"
 "http://www.w3.org/Graphics/SVG/1.1/DTD/svg11.dtd">
<!-- Generated by graphviz version 2.43.0 (0)
 -->
<!-- Title: boss.UnkPrimHelper Pages: 1 -->
<svg width="1638pt" height="224pt"
 viewBox="0.00 0.00 1638.44 224.00" xmlns="http://www.w3.org/2000/svg" xmlns:xlink="http://www.w3.org/1999/xlink">
<g id="graph0" class="graph" transform="scale(1 1) rotate(0) translate(4 220)">
<title>boss.UnkPrimHelper</title>
<polygon fill="white" stroke="transparent" points="-4,4 -4,-220 1634.44,-220 1634.44,4 -4,4"/>
<!-- boss.UnkPrimHelper -->
<g id="node1" class="node">
<title>boss.UnkPrimHelper</title>
<ellipse fill="red" stroke="black" cx="723.84" cy="-198" rx="107.78" ry="18"/>
<text text-anchor="middle" x="723.84" y="-194.3" font-family="Times,serif" font-size="14.00">boss.UnkPrimHelper</text>
</g>
<!-- RotMatrix -->
<g id="node2" class="node">
<title>RotMatrix</title>
<g id="a_node2"><a xlink:href="RotMatrix.svg" xlink:title="RotMatrix">
<ellipse fill="lightblue" stroke="black" cx="57.84" cy="-18" rx="57.69" ry="18"/>
<text text-anchor="middle" x="57.84" y="-14.3" font-family="Times,serif" font-size="14.00">RotMatrix</text>
</a>
</g>
</g>
<!-- boss.UnkPrimHelper&#45;&gt;RotMatrix -->
<g id="edge1" class="edge">
<title>boss.UnkPrimHelper&#45;&gt;RotMatrix</title>
<path fill="none" stroke="black" d="M669.34,-182.43C543.49,-148.8 233.97,-66.07 110.22,-33"/>
<polygon fill="black" stroke="black" points="110.79,-29.53 100.23,-30.33 108.98,-36.29 110.79,-29.53"/>
<text text-anchor="middle" x="95.23" y="-34.13" font-family="Times,serif" font-size="14.00">1</text>
</g>
<!-- RotMatrixX -->
<g id="node3" class="node">
<title>RotMatrixX</title>
<g id="a_node3"><a xlink:href="RotMatrixX.svg" xlink:title="RotMatrixX">
<ellipse fill="lightblue" stroke="black" cx="197.84" cy="-18" rx="64.19" ry="18"/>
<text text-anchor="middle" x="197.84" y="-14.3" font-family="Times,serif" font-size="14.00">RotMatrixX</text>
</a>
</g>
</g>
<!-- boss.UnkPrimHelper&#45;&gt;RotMatrixX -->
<g id="edge2" class="edge">
<title>boss.UnkPrimHelper&#45;&gt;RotMatrixX</title>
<path fill="none" stroke="black" d="M678.09,-181.52C579.64,-148.2 348.44,-69.96 247.01,-35.64"/>
<polygon fill="black" stroke="black" points="247.91,-32.25 237.32,-32.36 245.67,-38.88 247.91,-32.25"/>
<text text-anchor="middle" x="232.32" y="-36.16" font-family="Times,serif" font-size="14.00">1</text>
</g>
<!-- RotMatrixY -->
<g id="node4" class="node">
<title>RotMatrixY</title>
<g id="a_node4"><a xlink:href="RotMatrixY.svg" xlink:title="RotMatrixY">
<ellipse fill="lightblue" stroke="black" cx="343.84" cy="-18" rx="63.89" ry="18"/>
<text text-anchor="middle" x="343.84" y="-14.3" font-family="Times,serif" font-size="14.00">RotMatrixY</text>
</a>
</g>
</g>
<!-- boss.UnkPrimHelper&#45;&gt;RotMatrixY -->
<g id="edge3" class="edge">
<title>boss.UnkPrimHelper&#45;&gt;RotMatrixY</title>
<path fill="none" stroke="black" d="M689.45,-180.89C619.2,-147.98 459.51,-73.18 384.37,-37.98"/>
<polygon fill="black" stroke="black" points="385.74,-34.76 375.2,-33.69 382.77,-41.1 385.74,-34.76"/>
<text text-anchor="middle" x="370.2" y="-37.49" font-family="Times,serif" font-size="14.00">1</text>
</g>
<!-- RotMatrixZ -->
<g id="node5" class="node">
<title>RotMatrixZ</title>
<g id="a_node5"><a xlink:href="RotMatrixZ.svg" xlink:title="RotMatrixZ">
<ellipse fill="lightblue" stroke="black" cx="489.84" cy="-18" rx="64.19" ry="18"/>
<text text-anchor="middle" x="489.84" y="-14.3" font-family="Times,serif" font-size="14.00">RotMatrixZ</text>
</a>
</g>
</g>
<!-- boss.UnkPrimHelper&#45;&gt;RotMatrixZ -->
<g id="edge4" class="edge">
<title>boss.UnkPrimHelper&#45;&gt;RotMatrixZ</title>
<path fill="none" stroke="black" d="M701.83,-180.25C659.44,-148.01 566.47,-77.29 518.99,-41.17"/>
<polygon fill="black" stroke="black" points="521.03,-38.33 510.95,-35.06 516.79,-43.9 521.03,-38.33"/>
<text text-anchor="middle" x="505.95" y="-38.86" font-family="Times,serif" font-size="14.00">1</text>
</g>
<!-- ScaleMatrix -->
<g id="node6" class="node">
<title>ScaleMatrix</title>
<g id="a_node6"><a xlink:href="ScaleMatrix.svg" xlink:title="ScaleMatrix">
<ellipse fill="lightblue" stroke="black" cx="638.84" cy="-18" rx="66.89" ry="18"/>
<text text-anchor="middle" x="638.84" y="-14.3" font-family="Times,serif" font-size="14.00">ScaleMatrix</text>
</a>
</g>
</g>
<!-- boss.UnkPrimHelper&#45;&gt;ScaleMatrix -->
<g id="edge5" class="edge">
<title>boss.UnkPrimHelper&#45;&gt;ScaleMatrix</title>
<path fill="none" stroke="black" d="M715.69,-179.93C700.78,-148.7 669.01,-82.17 651.35,-45.18"/>
<polygon fill="black" stroke="black" points="654.44,-43.53 646.97,-36.02 648.12,-46.55 654.44,-43.53"/>
<text text-anchor="middle" x="641.97" y="-39.82" font-family="Times,serif" font-size="14.00">1</text>
</g>
<!-- SetGeomScreen -->
<g id="node7" class="node">
<title>SetGeomScreen</title>
<g id="a_node7"><a xlink:href="SetGeomScreen.svg" xlink:title="SetGeomScreen">
<ellipse fill="lightblue" stroke="black" cx="808.84" cy="-18" rx="85.29" ry="18"/>
<text text-anchor="middle" x="808.84" y="-14.3" font-family="Times,serif" font-size="14.00">SetGeomScreen</text>
</a>
</g>
</g>
<!-- boss.UnkPrimHelper&#45;&gt;SetGeomScreen -->
<g id="edge6" class="edge">
<title>boss.UnkPrimHelper&#45;&gt;SetGeomScreen</title>
<path fill="none" stroke="black" d="M732,-179.93C746.91,-148.7 778.68,-82.17 796.34,-45.18"/>
<polygon fill="black" stroke="black" points="799.57,-46.55 800.72,-36.02 793.25,-43.53 799.57,-46.55"/>
<text text-anchor="middle" x="795.72" y="-39.82" font-family="Times,serif" font-size="14.00">1</text>
</g>
<!-- SetRotMatrix -->
<g id="node8" class="node">
<title>SetRotMatrix</title>
<g id="a_node8"><a xlink:href="SetRotMatrix.svg" xlink:title="SetRotMatrix">
<ellipse fill="lightblue" stroke="black" cx="985.84" cy="-18" rx="73.39" ry="18"/>
<text text-anchor="middle" x="985.84" y="-14.3" font-family="Times,serif" font-size="14.00">SetRotMatrix</text>
</a>
</g>
</g>
<!-- boss.UnkPrimHelper&#45;&gt;SetRotMatrix -->
<g id="edge7" class="edge">
<title>boss.UnkPrimHelper&#45;&gt;SetRotMatrix</title>
<path fill="none" stroke="black" d="M748.49,-180.25C796.16,-147.87 900.92,-76.7 953.87,-40.73"/>
<polygon fill="black" stroke="black" points="955.9,-43.57 962.21,-35.06 951.97,-37.78 955.9,-43.57"/>
<text text-anchor="middle" x="957.21" y="-38.86" font-family="Times,serif" font-size="14.00">1</text>
</g>
<!-- SetTransMatrix -->
<g id="node9" class="node">
<title>SetTransMatrix</title>
<g id="a_node9"><a xlink:href="SetTransMatrix.svg" xlink:title="SetTransMatrix">
<ellipse fill="lightblue" stroke="black" cx="1160.84" cy="-18" rx="83.69" ry="18"/>
<text text-anchor="middle" x="1160.84" y="-14.3" font-family="Times,serif" font-size="14.00">SetTransMatrix</text>
</a>
</g>
</g>
<!-- boss.UnkPrimHelper&#45;&gt;SetTransMatrix -->
<g id="edge8" class="edge">
<title>boss.UnkPrimHelper&#45;&gt;SetTransMatrix</title>
<path fill="none" stroke="black" d="M763.01,-181.05C843.58,-148.23 1027.57,-73.28 1114.16,-38.02"/>
<polygon fill="black" stroke="black" points="1115.54,-41.23 1123.48,-34.22 1112.9,-34.75 1115.54,-41.23"/>
<text text-anchor="middle" x="1118.48" y="-38.02" font-family="Times,serif" font-size="14.00">1</text>
</g>
<!-- TransMatrix -->
<g id="node10" class="node">
<title>TransMatrix</title>
<g id="a_node10"><a xlink:href="TransMatrix.svg" xlink:title="TransMatrix">
<ellipse fill="lightblue" stroke="black" cx="1330.84" cy="-18" rx="68.49" ry="18"/>
<text text-anchor="middle" x="1330.84" y="-14.3" font-family="Times,serif" font-size="14.00">TransMatrix</text>
</a>
</g>
</g>
<!-- boss.UnkPrimHelper&#45;&gt;TransMatrix -->
<g id="edge9" class="edge">
<title>boss.UnkPrimHelper&#45;&gt;TransMatrix</title>
<path fill="none" stroke="black" d="M774.81,-182.05C888.37,-148.75 1161.25,-68.73 1277.23,-34.72"/>
<polygon fill="black" stroke="black" points="1278.35,-38.04 1286.96,-31.87 1276.38,-31.32 1278.35,-38.04"/>
<text text-anchor="middle" x="1281.96" y="-35.67" font-family="Times,serif" font-size="14.00">1</text>
</g>
<!-- main.SetGeomOffset -->
<g id="node11" class="node">
<title>main.SetGeomOffset</title>
<g id="a_node11"><a xlink:href="main.SetGeomOffset.svg" xlink:title="main.SetGeomOffset">
<ellipse fill="red" stroke="black" cx="1523.84" cy="-18" rx="106.68" ry="18"/>
<text text-anchor="middle" x="1523.84" y="-14.3" font-family="Times,serif" font-size="14.00">main.SetGeomOffset</text>
</a>
</g>
</g>
<!-- boss.UnkPrimHelper&#45;&gt;main.SetGeomOffset -->
<g id="edge10" class="edge">
<title>boss.UnkPrimHelper&#45;&gt;main.SetGeomOffset</title>
<path fill="none" stroke="black" d="M785.95,-183.18C932.07,-150.67 1296.92,-69.49 1452.13,-34.96"/>
<polygon fill="black" stroke="black" points="1453.05,-38.34 1462.05,-32.75 1451.53,-31.5 1453.05,-38.34"/>
<text text-anchor="middle" x="1457.05" y="-36.55" font-family="Times,serif" font-size="14.00">1</text>
</g>
</g>
</svg>
