<?xml version="1.0" encoding="UTF-8" standalone="no"?>
<!DOCTYPE svg PUBLIC "-//W3C//DTD SVG 1.1//EN"
 "http://www.w3.org/Graphics/SVG/1.1/DTD/svg11.dtd">
<!-- Generated by graphviz version 2.43.0 (0)
 -->
<!-- Title: boss.EntityStageNamePopup Pages: 1 -->
<svg width="1249pt" height="224pt"
 viewBox="0.00 0.00 1249.49 224.00" xmlns="http://www.w3.org/2000/svg" xmlns:xlink="http://www.w3.org/1999/xlink">
<g id="graph0" class="graph" transform="scale(1 1) rotate(0) translate(4 220)">
<title>boss.EntityStageNamePopup</title>
<polygon fill="white" stroke="transparent" points="-4,4 -4,-220 1245.49,-220 1245.49,4 -4,4"/>
<!-- boss.EntityStageNamePopup -->
<g id="node1" class="node">
<title>boss.EntityStageNamePopup</title>
<ellipse fill="green" stroke="black" cx="537.05" cy="-198" rx="146.47" ry="18"/>
<text text-anchor="middle" x="537.05" y="-194.3" font-family="Times,serif" font-size="14.00">boss.EntityStageNamePopup</text>
</g>
<!-- FntPrint -->
<g id="node2" class="node">
<title>FntPrint</title>
<g id="a_node2"><a xlink:href="FntPrint.svg" xlink:title="FntPrint">
<ellipse fill="lightblue" stroke="black" cx="50.05" cy="-18" rx="50.09" ry="18"/>
<text text-anchor="middle" x="50.05" y="-14.3" font-family="Times,serif" font-size="14.00">FntPrint</text>
</a>
</g>
</g>
<!-- boss.EntityStageNamePopup&#45;&gt;FntPrint -->
<g id="edge1" class="edge">
<title>boss.EntityStageNamePopup&#45;&gt;FntPrint</title>
<path fill="none" stroke="black" d="M492.54,-180.73C399.54,-146.74 185.63,-68.56 93.53,-34.89"/>
<polygon fill="black" stroke="black" points="94.55,-31.54 83.96,-31.39 92.15,-38.11 94.55,-31.54"/>
<text text-anchor="middle" x="78.96" y="-35.19" font-family="Times,serif" font-size="14.00">2</text>
</g>
<!-- boss.DestroyEntity -->
<g id="node3" class="node">
<title>boss.DestroyEntity</title>
<g id="a_node3"><a xlink:href="boss.DestroyEntity.svg" xlink:title="boss.DestroyEntity">
<ellipse fill="green" stroke="black" cx="218.05" cy="-18" rx="100.18" ry="18"/>
<text text-anchor="middle" x="218.05" y="-14.3" font-family="Times,serif" font-size="14.00">boss.DestroyEntity</text>
</a>
</g>
</g>
<!-- boss.EntityStageNamePopup&#45;&gt;boss.DestroyEntity -->
<g id="edge2" class="edge">
<title>boss.EntityStageNamePopup&#45;&gt;boss.DestroyEntity</title>
<path fill="none" stroke="black" d="M507.03,-180.25C448.79,-147.75 320.52,-76.18 256.28,-40.33"/>
<polygon fill="black" stroke="black" points="257.72,-37.13 247.28,-35.31 254.31,-43.24 257.72,-37.13"/>
<text text-anchor="middle" x="242.28" y="-39.11" font-family="Times,serif" font-size="14.00">1</text>
</g>
<!-- boss.InitializeEntity -->
<g id="node4" class="node">
<title>boss.InitializeEntity</title>
<g id="a_node4"><a xlink:href="boss.InitializeEntity.svg" xlink:title="boss.InitializeEntity">
<ellipse fill="green" stroke="black" cx="440.05" cy="-18" rx="103.98" ry="18"/>
<text text-anchor="middle" x="440.05" y="-14.3" font-family="Times,serif" font-size="14.00">boss.InitializeEntity</text>
</a>
</g>
</g>
<!-- boss.EntityStageNamePopup&#45;&gt;boss.InitializeEntity -->
<g id="edge3" class="edge">
<title>boss.EntityStageNamePopup&#45;&gt;boss.InitializeEntity</title>
<path fill="none" stroke="black" d="M527.74,-179.93C510.73,-148.7 474.47,-82.17 454.31,-45.18"/>
<polygon fill="black" stroke="black" points="457.18,-43.12 449.32,-36.02 451.03,-46.47 457.18,-43.12"/>
<text text-anchor="middle" x="444.32" y="-39.82" font-family="Times,serif" font-size="14.00">1</text>
</g>
<!-- boss.Random -->
<g id="node5" class="node">
<title>boss.Random</title>
<g id="a_node5"><a xlink:href="boss.Random.svg" xlink:title="boss.Random">
<ellipse fill="green" stroke="black" cx="635.05" cy="-18" rx="72.59" ry="18"/>
<text text-anchor="middle" x="635.05" y="-14.3" font-family="Times,serif" font-size="14.00">boss.Random</text>
</a>
</g>
</g>
<!-- boss.EntityStageNamePopup&#45;&gt;boss.Random -->
<g id="edge4" class="edge">
<title>boss.EntityStageNamePopup&#45;&gt;boss.Random</title>
<path fill="none" stroke="black" d="M546.44,-179.93C563.64,-148.7 600.27,-82.17 620.63,-45.18"/>
<polygon fill="black" stroke="black" points="623.92,-46.46 625.68,-36.02 617.79,-43.09 623.92,-46.46"/>
<text text-anchor="middle" x="620.68" y="-39.82" font-family="Times,serif" font-size="14.00">4</text>
</g>
<!-- boss.StageNamePopupHelper -->
<g id="node6" class="node">
<title>boss.StageNamePopupHelper</title>
<g id="a_node6"><a xlink:href="boss.StageNamePopupHelper.svg" xlink:title="boss.StageNamePopupHelper">
<ellipse fill="green" stroke="black" cx="875.05" cy="-18" rx="149.47" ry="18"/>
<text text-anchor="middle" x="875.05" y="-14.3" font-family="Times,serif" font-size="14.00">boss.StageNamePopupHelper</text>
</a>
</g>
</g>
<!-- boss.EntityStageNamePopup&#45;&gt;boss.StageNamePopupHelper -->
<g id="edge5" class="edge">
<title>boss.EntityStageNamePopup&#45;&gt;boss.StageNamePopupHelper</title>
<path fill="none" stroke="black" d="M568.54,-180.41C630.05,-148.02 766.1,-76.37 834.34,-40.43"/>
<polygon fill="black" stroke="black" points="836.29,-43.37 843.51,-35.61 833.03,-37.17 836.29,-43.37"/>
<text text-anchor="middle" x="838.51" y="-39.41" font-family="Times,serif" font-size="14.00">2</text>
</g>
<!-- dra.AllocPrimitives -->
<g id="node7" class="node">
<title>dra.AllocPrimitives</title>
<g id="a_node7"><a xlink:href="dra.AllocPrimitives.svg" xlink:title="dra.AllocPrimitives">
<ellipse fill="green" stroke="black" cx="1142.05" cy="-18" rx="99.38" ry="18"/>
<text text-anchor="middle" x="1142.05" y="-14.3" font-family="Times,serif" font-size="14.00">dra.AllocPrimitives</text>
</a>
</g>
</g>
<!-- boss.EntityStageNamePopup&#45;&gt;dra.AllocPrimitives -->
<g id="edge6" class="edge">
<title>boss.EntityStageNamePopup&#45;&gt;dra.AllocPrimitives</title>
<path fill="none" stroke="black" d="M590.74,-181.2C703.56,-148.01 964.54,-71.23 1082.38,-36.55"/>
<polygon fill="black" stroke="black" points="1083.71,-39.81 1092.32,-33.63 1081.74,-33.1 1083.71,-39.81"/>
<text text-anchor="middle" x="1087.32" y="-37.43" font-family="Times,serif" font-size="14.00">1</text>
</g>
</g>
</svg>
