<?xml version="1.0" encoding="UTF-8" standalone="no"?>
<!DOCTYPE svg PUBLIC "-//W3C//DTD SVG 1.1//EN"
 "http://www.w3.org/Graphics/SVG/1.1/DTD/svg11.dtd">
<!-- Generated by graphviz version 2.43.0 (0)
 -->
<!-- Title: boss.MoveEntity Pages: 1 -->
<svg width="3141pt" height="224pt"
 viewBox="0.00 0.00 3141.08 224.00" xmlns="http://www.w3.org/2000/svg" xmlns:xlink="http://www.w3.org/1999/xlink">
<g id="graph0" class="graph" transform="scale(1 1) rotate(0) translate(4 220)">
<title>boss.MoveEntity</title>
<polygon fill="white" stroke="transparent" points="-4,4 -4,-220 3137.08,-220 3137.08,4 -4,4"/>
<!-- boss.MoveEntity -->
<g id="node1" class="node">
<title>boss.MoveEntity</title>
<ellipse fill="green" stroke="black" cx="1570.24" cy="-18" rx="89.08" ry="18"/>
<text text-anchor="middle" x="1570.24" y="-14.3" font-family="Times,serif" font-size="14.00">boss.MoveEntity</text>
</g>
<!-- boss.EntityBigRedFireball -->
<g id="node2" class="node">
<title>boss.EntityBigRedFireball</title>
<g id="a_node2"><a xlink:href="boss.EntityBigRedFireball.svg" xlink:title="boss.EntityBigRedFireball">
<ellipse fill="green" stroke="black" cx="133.24" cy="-198" rx="133.48" ry="18"/>
<text text-anchor="middle" x="133.24" y="-194.3" font-family="Times,serif" font-size="14.00">boss.EntityBigRedFireball</text>
</a>
</g>
</g>
<!-- boss.EntityBigRedFireball&#45;&gt;boss.MoveEntity -->
<g id="edge1" class="edge">
<title>boss.EntityBigRedFireball&#45;&gt;boss.MoveEntity</title>
<path fill="none" stroke="black" d="M227.8,-185.29C492.11,-152.55 1235.62,-60.45 1486.42,-29.38"/>
<polygon fill="black" stroke="black" points="1487.07,-32.83 1496.56,-28.13 1486.21,-25.88 1487.07,-32.83"/>
<text text-anchor="middle" x="222.8" y="-174.09" font-family="Times,serif" font-size="14.00">1</text>
</g>
<!-- boss.EntityEnemyBlood -->
<g id="node3" class="node">
<title>boss.EntityEnemyBlood</title>
<g id="a_node3"><a xlink:href="boss.EntityEnemyBlood.svg" xlink:title="boss.EntityEnemyBlood">
<ellipse fill="green" stroke="black" cx="406.24" cy="-198" rx="122.38" ry="18"/>
<text text-anchor="middle" x="406.24" y="-194.3" font-family="Times,serif" font-size="14.00">boss.EntityEnemyBlood</text>
</a>
</g>
</g>
<!-- boss.EntityEnemyBlood&#45;&gt;boss.MoveEntity -->
<g id="edge2" class="edge">
<title>boss.EntityEnemyBlood&#45;&gt;boss.MoveEntity</title>
<path fill="none" stroke="black" d="M487.63,-184.55C701.96,-151.78 1279.98,-63.39 1491.4,-31.06"/>
<polygon fill="black" stroke="black" points="1492.13,-34.48 1501.49,-29.51 1491.08,-27.57 1492.13,-34.48"/>
<text text-anchor="middle" x="482.63" y="-173.35" font-family="Times,serif" font-size="14.00">1</text>
</g>
<!-- boss.EntityEquipItemDrop -->
<g id="node4" class="node">
<title>boss.EntityEquipItemDrop</title>
<g id="a_node4"><a xlink:href="boss.EntityEquipItemDrop.svg" xlink:title="boss.EntityEquipItemDrop">
<ellipse fill="green" stroke="black" cx="681.24" cy="-198" rx="135.38" ry="18"/>
<text text-anchor="middle" x="681.24" y="-194.3" font-family="Times,serif" font-size="14.00">boss.EntityEquipItemDrop</text>
</a>
</g>
</g>
<!-- boss.EntityEquipItemDrop&#45;&gt;boss.MoveEntity -->
<g id="edge3" class="edge">
<title>boss.EntityEquipItemDrop&#45;&gt;boss.MoveEntity</title>
<path fill="none" stroke="black" d="M752.86,-182.66C919.81,-149.23 1333.2,-66.46 1499.38,-33.19"/>
<polygon fill="black" stroke="black" points="1500.38,-36.56 1509.49,-31.16 1499,-29.69 1500.38,-36.56"/>
<text text-anchor="middle" x="747.86" y="-171.46" font-family="Times,serif" font-size="14.00">1</text>
</g>
<!-- boss.EntityLifeUpSpawn -->
<g id="node5" class="node">
<title>boss.EntityLifeUpSpawn</title>
<g id="a_node5"><a xlink:href="boss.EntityLifeUpSpawn.svg" xlink:title="boss.EntityLifeUpSpawn">
<ellipse fill="green" stroke="black" cx="960.24" cy="-198" rx="126.18" ry="18"/>
<text text-anchor="middle" x="960.24" y="-194.3" font-family="Times,serif" font-size="14.00">boss.EntityLifeUpSpawn</text>
</a>
</g>
</g>
<!-- boss.EntityLifeUpSpawn&#45;&gt;boss.MoveEntity -->
<g id="edge4" class="edge">
<title>boss.EntityLifeUpSpawn&#45;&gt;boss.MoveEntity</title>
<path fill="none" stroke="black" d="M1013.04,-181.59C1126.63,-148.45 1393.48,-70.58 1511.88,-36.03"/>
<polygon fill="black" stroke="black" points="1512.89,-39.38 1521.51,-33.22 1510.93,-32.66 1512.89,-39.38"/>
<text text-anchor="middle" x="1008.04" y="-170.39" font-family="Times,serif" font-size="14.00">1</text>
</g>
<!-- boss.EntityPrizeDrop -->
<g id="node6" class="node">
<title>boss.EntityPrizeDrop</title>
<g id="a_node6"><a xlink:href="boss.EntityPrizeDrop.svg" xlink:title="boss.EntityPrizeDrop">
<ellipse fill="green" stroke="black" cx="1215.24" cy="-198" rx="110.48" ry="18"/>
<text text-anchor="middle" x="1215.24" y="-194.3" font-family="Times,serif" font-size="14.00">boss.EntityPrizeDrop</text>
</a>
</g>
</g>
<!-- boss.EntityPrizeDrop&#45;&gt;boss.MoveEntity -->
<g id="edge5" class="edge">
<title>boss.EntityPrizeDrop&#45;&gt;boss.MoveEntity</title>
<path fill="none" stroke="black" d="M1247.68,-180.73C1312.55,-148.21 1458.12,-75.22 1529.37,-39.49"/>
<polygon fill="black" stroke="black" points="1531.14,-42.52 1538.51,-34.91 1528,-36.26 1531.14,-42.52"/>
<text text-anchor="middle" x="1242.68" y="-169.53" font-family="Times,serif" font-size="14.00">2</text>
</g>
<!-- boss.EntityRelicOrb -->
<g id="node7" class="node">
<title>boss.EntityRelicOrb</title>
<g id="a_node7"><a xlink:href="boss.EntityRelicOrb.svg" xlink:title="boss.EntityRelicOrb">
<ellipse fill="green" stroke="black" cx="1447.24" cy="-198" rx="103.98" ry="18"/>
<text text-anchor="middle" x="1447.24" y="-194.3" font-family="Times,serif" font-size="14.00">boss.EntityRelicOrb</text>
</a>
</g>
</g>
<!-- boss.EntityRelicOrb&#45;&gt;boss.MoveEntity -->
<g id="edge6" class="edge">
<title>boss.EntityRelicOrb&#45;&gt;boss.MoveEntity</title>
<path fill="none" stroke="black" d="M1459.03,-179.93C1480.71,-148.57 1526.98,-81.6 1552.47,-44.71"/>
<polygon fill="black" stroke="black" points="1555.67,-46.23 1558.48,-36.02 1549.92,-42.25 1555.67,-46.23"/>
<text text-anchor="middle" x="1454.03" y="-168.73" font-family="Times,serif" font-size="14.00">1</text>
</g>
<!-- boss.EntitySoulStealOrb -->
<g id="node8" class="node">
<title>boss.EntitySoulStealOrb</title>
<g id="a_node8"><a xlink:href="boss.EntitySoulStealOrb.svg" xlink:title="boss.EntitySoulStealOrb">
<ellipse fill="green" stroke="black" cx="1694.24" cy="-198" rx="125.38" ry="18"/>
<text text-anchor="middle" x="1694.24" y="-194.3" font-family="Times,serif" font-size="14.00">boss.EntitySoulStealOrb</text>
</a>
</g>
</g>
<!-- boss.EntitySoulStealOrb&#45;&gt;boss.MoveEntity -->
<g id="edge7" class="edge">
<title>boss.EntitySoulStealOrb&#45;&gt;boss.MoveEntity</title>
<path fill="none" stroke="black" d="M1682.35,-179.93C1660.41,-148.43 1613.45,-81.03 1587.82,-44.24"/>
<polygon fill="black" stroke="black" points="1590.68,-42.22 1582.09,-36.02 1584.94,-46.22 1590.68,-42.22"/>
<text text-anchor="middle" x="1677.35" y="-168.73" font-family="Times,serif" font-size="14.00">1</text>
</g>
<!-- boss.InitializeUnkEntity -->
<g id="node9" class="node">
<title>boss.InitializeUnkEntity</title>
<g id="a_node9"><a xlink:href="boss.InitializeUnkEntity.svg" xlink:title="boss.InitializeUnkEntity">
<ellipse fill="green" stroke="black" cx="1960.24" cy="-198" rx="122.68" ry="18"/>
<text text-anchor="middle" x="1960.24" y="-194.3" font-family="Times,serif" font-size="14.00">boss.InitializeUnkEntity</text>
</a>
</g>
</g>
<!-- boss.InitializeUnkEntity&#45;&gt;boss.MoveEntity -->
<g id="edge8" class="edge">
<title>boss.InitializeUnkEntity&#45;&gt;boss.MoveEntity</title>
<path fill="none" stroke="black" d="M1924.59,-180.73C1853,-148.06 1691.95,-74.55 1614.06,-39"/>
<polygon fill="black" stroke="black" points="1615.09,-35.62 1604.54,-34.66 1612.18,-41.99 1615.09,-35.62"/>
<text text-anchor="middle" x="1919.59" y="-169.53" font-family="Times,serif" font-size="14.00">1</text>
</g>
<!-- boss.UnkCollisionFunc3 -->
<g id="node10" class="node">
<title>boss.UnkCollisionFunc3</title>
<g id="a_node10"><a xlink:href="boss.UnkCollisionFunc3.svg" xlink:title="boss.UnkCollisionFunc3">
<ellipse fill="green" stroke="black" cx="2223.24" cy="-198" rx="122.38" ry="18"/>
<text text-anchor="middle" x="2223.24" y="-194.3" font-family="Times,serif" font-size="14.00">boss.UnkCollisionFunc3</text>
</a>
</g>
</g>
<!-- boss.UnkCollisionFunc3&#45;&gt;boss.MoveEntity -->
<g id="edge9" class="edge">
<title>boss.UnkCollisionFunc3&#45;&gt;boss.MoveEntity</title>
<path fill="none" stroke="black" d="M2167.85,-181.9C2046.41,-148.8 1757.56,-70.06 1631.19,-35.61"/>
<polygon fill="black" stroke="black" points="1631.86,-32.17 1621.29,-32.92 1630.02,-38.92 1631.86,-32.17"/>
<text text-anchor="middle" x="2162.85" y="-170.7" font-family="Times,serif" font-size="14.00">1</text>
</g>
<!-- boss.UnkCollisionFunc4 -->
<g id="node11" class="node">
<title>boss.UnkCollisionFunc4</title>
<g id="a_node11"><a xlink:href="boss.UnkCollisionFunc4.svg" xlink:title="boss.UnkCollisionFunc4">
<ellipse fill="green" stroke="black" cx="2485.24" cy="-198" rx="122.38" ry="18"/>
<text text-anchor="middle" x="2485.24" y="-194.3" font-family="Times,serif" font-size="14.00">boss.UnkCollisionFunc4</text>
</a>
</g>
</g>
<!-- boss.UnkCollisionFunc4&#45;&gt;boss.MoveEntity -->
<g id="edge10" class="edge">
<title>boss.UnkCollisionFunc4&#45;&gt;boss.MoveEntity</title>
<path fill="none" stroke="black" d="M2414.58,-183.25C2244.43,-150.15 1813.37,-66.3 1642.05,-32.97"/>
<polygon fill="black" stroke="black" points="1642.61,-29.51 1632.12,-31.04 1641.27,-36.38 1642.61,-29.51"/>
<text text-anchor="middle" x="2409.58" y="-172.05" font-family="Times,serif" font-size="14.00">1</text>
</g>
<!-- boss.func_us_8018CA94 -->
<g id="node12" class="node">
<title>boss.func_us_8018CA94</title>
<g id="a_node12"><a xlink:href="boss.func_us_8018CA94.svg" xlink:title="boss.func_us_8018CA94">
<ellipse fill="red" stroke="black" cx="2747.24" cy="-198" rx="122.38" ry="18"/>
<text text-anchor="middle" x="2747.24" y="-194.3" font-family="Times,serif" font-size="14.00">boss.func_us_8018CA94</text>
</a>
</g>
</g>
<!-- boss.func_us_8018CA94&#45;&gt;boss.MoveEntity -->
<g id="edge11" class="edge">
<title>boss.func_us_8018CA94&#45;&gt;boss.MoveEntity</title>
<path fill="none" stroke="black" d="M2665.41,-184.62C2448.83,-151.87 1862.66,-63.22 1649.28,-30.95"/>
<polygon fill="black" stroke="black" points="1649.52,-27.45 1639.1,-29.41 1648.47,-34.37 1649.52,-27.45"/>
<text text-anchor="middle" x="2660.41" y="-173.42" font-family="Times,serif" font-size="14.00">3</text>
</g>
<!-- boss.func_us_801918BC -->
<g id="node13" class="node">
<title>boss.func_us_801918BC</title>
<g id="a_node13"><a xlink:href="boss.func_us_801918BC.svg" xlink:title="boss.func_us_801918BC">
<ellipse fill="green" stroke="black" cx="3010.24" cy="-198" rx="122.68" ry="18"/>
<text text-anchor="middle" x="3010.24" y="-194.3" font-family="Times,serif" font-size="14.00">boss.func_us_801918BC</text>
</a>
</g>
</g>
<!-- boss.func_us_801918BC&#45;&gt;boss.MoveEntity -->
<g id="edge12" class="edge">
<title>boss.func_us_801918BC&#45;&gt;boss.MoveEntity</title>
<path fill="none" stroke="black" d="M2921.49,-185.5C2907.04,-183.65 2892.22,-181.76 2878.24,-180 2416.42,-121.84 1862.56,-54.44 1654.6,-29.22"/>
<polygon fill="black" stroke="black" points="1654.72,-25.71 1644.37,-27.98 1653.88,-32.66 1654.72,-25.71"/>
<text text-anchor="middle" x="2916.49" y="-174.3" font-family="Times,serif" font-size="14.00">2</text>
</g>
</g>
</svg>
