<?xml version="1.0" encoding="UTF-8" standalone="no"?>
<!DOCTYPE svg PUBLIC "-//W3C//DTD SVG 1.1//EN"
 "http://www.w3.org/Graphics/SVG/1.1/DTD/svg11.dtd">
<!-- Generated by graphviz version 2.43.0 (0)
 -->
<!-- Title: boss.CreateEntityFromCurrentEntity Pages: 1 -->
<svg width="1013pt" height="404pt"
 viewBox="0.00 0.00 1013.38 404.00" xmlns="http://www.w3.org/2000/svg" xmlns:xlink="http://www.w3.org/1999/xlink">
<g id="graph0" class="graph" transform="scale(1 1) rotate(0) translate(4 400)">
<title>boss.CreateEntityFromCurrentEntity</title>
<polygon fill="white" stroke="transparent" points="-4,4 -4,-400 1009.38,-400 1009.38,4 -4,4"/>
<!-- boss.CreateEntityFromCurrentEntity -->
<g id="node1" class="node">
<title>boss.CreateEntityFromCurrentEntity</title>
<ellipse fill="red" stroke="black" cx="493.49" cy="-198" rx="184.67" ry="18"/>
<text text-anchor="middle" x="493.49" y="-194.3" font-family="Times,serif" font-size="14.00">boss.CreateEntityFromCurrentEntity</text>
</g>
<!-- boss.DestroyEntity -->
<g id="node2" class="node">
<title>boss.DestroyEntity</title>
<g id="a_node2"><a xlink:href="boss.DestroyEntity.svg" xlink:title="boss.DestroyEntity">
<ellipse fill="red" stroke="black" cx="493.49" cy="-18" rx="100.18" ry="18"/>
<text text-anchor="middle" x="493.49" y="-14.3" font-family="Times,serif" font-size="14.00">boss.DestroyEntity</text>
</a>
</g>
</g>
<!-- boss.CreateEntityFromCurrentEntity&#45;&gt;boss.DestroyEntity -->
<g id="edge1" class="edge">
<title>boss.CreateEntityFromCurrentEntity&#45;&gt;boss.DestroyEntity</title>
<path fill="none" stroke="black" d="M493.49,-179.93C493.49,-148.97 493.49,-83.3 493.49,-46.13"/>
<polygon fill="black" stroke="black" points="496.99,-46.02 493.49,-36.02 489.99,-46.02 496.99,-46.02"/>
<text text-anchor="middle" x="488.49" y="-39.82" font-family="Times,serif" font-size="14.00">1</text>
</g>
<!-- boss.EntityBreakable -->
<g id="node3" class="node">
<title>boss.EntityBreakable</title>
<g id="a_node3"><a xlink:href="boss.EntityBreakable.svg" xlink:title="boss.EntityBreakable">
<ellipse fill="red" stroke="black" cx="110.49" cy="-378" rx="110.48" ry="18"/>
<text text-anchor="middle" x="110.49" y="-374.3" font-family="Times,serif" font-size="14.00">boss.EntityBreakable</text>
</a>
</g>
</g>
<!-- boss.EntityBreakable&#45;&gt;boss.CreateEntityFromCurrentEntity -->
<g id="edge2" class="edge">
<title>boss.EntityBreakable&#45;&gt;boss.CreateEntityFromCurrentEntity</title>
<path fill="none" stroke="black" d="M145.15,-360.89C214.55,-328.64 370.52,-256.15 448.01,-220.13"/>
<polygon fill="black" stroke="black" points="449.92,-223.11 457.51,-215.72 446.97,-216.76 449.92,-223.11"/>
<text text-anchor="middle" x="140.15" y="-349.69" font-family="Times,serif" font-size="14.00">1</text>
</g>
<!-- boss.func_us_80197FEC -->
<g id="node4" class="node">
<title>boss.func_us_80197FEC</title>
<g id="a_node4"><a xlink:href="boss.func_us_80197FEC.svg" xlink:title="boss.func_us_80197FEC">
<ellipse fill="red" stroke="black" cx="362.49" cy="-378" rx="123.48" ry="18"/>
<text text-anchor="middle" x="362.49" y="-374.3" font-family="Times,serif" font-size="14.00">boss.func_us_80197FEC</text>
</a>
</g>
</g>
<!-- boss.func_us_80197FEC&#45;&gt;boss.CreateEntityFromCurrentEntity -->
<g id="edge3" class="edge">
<title>boss.func_us_80197FEC&#45;&gt;boss.CreateEntityFromCurrentEntity</title>
<path fill="none" stroke="black" d="M375.05,-359.93C398.23,-328.43 447.84,-261.03 474.91,-224.24"/>
<polygon fill="black" stroke="black" points="477.86,-226.14 480.97,-216.02 472.22,-222 477.86,-226.14"/>
<text text-anchor="middle" x="370.05" y="-348.73" font-family="Times,serif" font-size="14.00">6</text>
</g>
<!-- boss.func_us_80198574 -->
<g id="node5" class="node">
<title>boss.func_us_80198574</title>
<g id="a_node5"><a xlink:href="boss.func_us_80198574.svg" xlink:title="boss.func_us_80198574">
<ellipse fill="red" stroke="black" cx="624.49" cy="-378" rx="120.78" ry="18"/>
<text text-anchor="middle" x="624.49" y="-374.3" font-family="Times,serif" font-size="14.00">boss.func_us_80198574</text>
</a>
</g>
</g>
<!-- boss.func_us_80198574&#45;&gt;boss.CreateEntityFromCurrentEntity -->
<g id="edge4" class="edge">
<title>boss.func_us_80198574&#45;&gt;boss.CreateEntityFromCurrentEntity</title>
<path fill="none" stroke="black" d="M611.93,-359.93C588.75,-328.43 539.14,-261.03 512.07,-224.24"/>
<polygon fill="black" stroke="black" points="514.76,-222 506.01,-216.02 509.12,-226.14 514.76,-222"/>
<text text-anchor="middle" x="606.93" y="-348.73" font-family="Times,serif" font-size="14.00">1</text>
</g>
<!-- boss.func_us_80198944 -->
<g id="node6" class="node">
<title>boss.func_us_80198944</title>
<g id="a_node6"><a xlink:href="boss.func_us_80198944.svg" xlink:title="boss.func_us_80198944">
<ellipse fill="red" stroke="black" cx="884.49" cy="-378" rx="120.78" ry="18"/>
<text text-anchor="middle" x="884.49" y="-374.3" font-family="Times,serif" font-size="14.00">boss.func_us_80198944</text>
</a>
</g>
</g>
<!-- boss.func_us_80198944&#45;&gt;boss.CreateEntityFromCurrentEntity -->
<g id="edge5" class="edge">
<title>boss.func_us_80198944&#45;&gt;boss.CreateEntityFromCurrentEntity</title>
<path fill="none" stroke="black" d="M848.76,-360.73C777.56,-328.32 618.11,-255.73 539.33,-219.87"/>
<polygon fill="black" stroke="black" points="540.69,-216.64 530.14,-215.68 537.79,-223.01 540.69,-216.64"/>
<text text-anchor="middle" x="843.76" y="-349.53" font-family="Times,serif" font-size="14.00">1</text>
</g>
</g>
</svg>
