<?xml version="1.0" encoding="UTF-8" standalone="no"?>
<!DOCTYPE svg PUBLIC "-//W3C//DTD SVG 1.1//EN"
 "http://www.w3.org/Graphics/SVG/1.1/DTD/svg11.dtd">
<!-- Generated by graphviz version 2.43.0 (0)
 -->
<!-- Title: boss.DestroyEntity Pages: 1 -->
<svg width="10242pt" height="404pt"
 viewBox="0.00 0.00 10241.98 404.00" xmlns="http://www.w3.org/2000/svg" xmlns:xlink="http://www.w3.org/1999/xlink">
<g id="graph0" class="graph" transform="scale(1 1) rotate(0) translate(4 400)">
<title>boss.DestroyEntity</title>
<polygon fill="white" stroke="transparent" points="-4,4 -4,-400 10237.98,-400 10237.98,4 -4,4"/>
<!-- boss.DestroyEntity -->
<g id="node1" class="node">
<title>boss.DestroyEntity</title>
<ellipse fill="green" stroke="black" cx="5271.79" cy="-198" rx="100.18" ry="18"/>
<text text-anchor="middle" x="5271.79" y="-194.3" font-family="Times,serif" font-size="14.00">boss.DestroyEntity</text>
</g>
<!-- dra.FreePrimitives -->
<g id="node2" class="node">
<title>dra.FreePrimitives</title>
<g id="a_node2"><a xlink:href="dra.FreePrimitives.svg" xlink:title="dra.FreePrimitives">
<ellipse fill="green" stroke="black" cx="5271.79" cy="-18" rx="98.58" ry="18"/>
<text text-anchor="middle" x="5271.79" y="-14.3" font-family="Times,serif" font-size="14.00">dra.FreePrimitives</text>
</a>
</g>
</g>
<!-- boss.DestroyEntity&#45;&gt;dra.FreePrimitives -->
<g id="edge1" class="edge">
<title>boss.DestroyEntity&#45;&gt;dra.FreePrimitives</title>
<path fill="none" stroke="black" d="M5271.79,-179.93C5271.79,-148.97 5271.79,-83.3 5271.79,-46.13"/>
<polygon fill="black" stroke="black" points="5275.29,-46.02 5271.79,-36.02 5268.29,-46.02 5275.29,-46.02"/>
<text text-anchor="middle" x="5266.79" y="-39.82" font-family="Times,serif" font-size="14.00">1</text>
</g>
<!-- boss.AllocEntity -->
<g id="node3" class="node">
<title>boss.AllocEntity</title>
<g id="a_node3"><a xlink:href="boss.AllocEntity.svg" xlink:title="boss.AllocEntity">
<ellipse fill="green" stroke="black" cx="85.79" cy="-378" rx="85.59" ry="18"/>
<text text-anchor="middle" x="85.79" y="-374.3" font-family="Times,serif" font-size="14.00">boss.AllocEntity</text>
</a>
</g>
</g>
<!-- boss.AllocEntity&#45;&gt;boss.DestroyEntity -->
<g id="edge2" class="edge">
<title>boss.AllocEntity&#45;&gt;boss.DestroyEntity</title>
<path fill="none" stroke="black" d="M145.4,-364.97C157.09,-362.99 169.29,-361.2 180.79,-360 1195.24,-253.76 4515.53,-208.25 5162.11,-200.29"/>
<polygon fill="black" stroke="black" points="5162.39,-203.79 5172.35,-200.17 5162.3,-196.79 5162.39,-203.79"/>
<text text-anchor="middle" x="140.4" y="-353.77" font-family="Times,serif" font-size="14.00">1</text>
</g>
<!-- boss.CollectGold -->
<g id="node4" class="node">
<title>boss.CollectGold</title>
<g id="a_node4"><a xlink:href="boss.CollectGold.svg" xlink:title="boss.CollectGold">
<ellipse fill="green" stroke="black" cx="277.79" cy="-378" rx="88.28" ry="18"/>
<text text-anchor="middle" x="277.79" y="-374.3" font-family="Times,serif" font-size="14.00">boss.CollectGold</text>
</a>
</g>
</g>
<!-- boss.CollectGold&#45;&gt;boss.DestroyEntity -->
<g id="edge3" class="edge">
<title>boss.CollectGold&#45;&gt;boss.DestroyEntity</title>
<path fill="none" stroke="black" d="M338.93,-364.94C350.78,-362.98 363.14,-361.21 374.79,-360 1348.64,-259.16 4530.62,-209.49 5162.23,-200.5"/>
<polygon fill="black" stroke="black" points="5162.29,-204 5172.24,-200.36 5162.19,-197 5162.29,-204"/>
<text text-anchor="middle" x="333.93" y="-353.74" font-family="Times,serif" font-size="14.00">1</text>
</g>
<!-- boss.CollectHeart -->
<g id="node5" class="node">
<title>boss.CollectHeart</title>
<g id="a_node5"><a xlink:href="boss.CollectHeart.svg" xlink:title="boss.CollectHeart">
<ellipse fill="green" stroke="black" cx="477.79" cy="-378" rx="93.68" ry="18"/>
<text text-anchor="middle" x="477.79" y="-374.3" font-family="Times,serif" font-size="14.00">boss.CollectHeart</text>
</a>
</g>
</g>
<!-- boss.CollectHeart&#45;&gt;boss.DestroyEntity -->
<g id="edge4" class="edge">
<title>boss.CollectHeart&#45;&gt;boss.DestroyEntity</title>
<path fill="none" stroke="black" d="M542.37,-364.93C554.75,-362.98 567.65,-361.22 579.79,-360 1511,-266.83 4547.07,-211.26 5162.42,-200.81"/>
<polygon fill="black" stroke="black" points="5162.67,-204.3 5172.61,-200.63 5162.56,-197.3 5162.67,-204.3"/>
<text text-anchor="middle" x="537.37" y="-353.73" font-family="Times,serif" font-size="14.00">1</text>
</g>
<!-- boss.CollectHeartVessel -->
<g id="node6" class="node">
<title>boss.CollectHeartVessel</title>
<g id="a_node6"><a xlink:href="boss.CollectHeartVessel.svg" xlink:title="boss.CollectHeartVessel">
<ellipse fill="green" stroke="black" cx="711.79" cy="-378" rx="122.68" ry="18"/>
<text text-anchor="middle" x="711.79" y="-374.3" font-family="Times,serif" font-size="14.00">boss.CollectHeartVessel</text>
</a>
</g>
</g>
<!-- boss.CollectHeartVessel&#45;&gt;boss.DestroyEntity -->
<g id="edge5" class="edge">
<title>boss.CollectHeartVessel&#45;&gt;boss.DestroyEntity</title>
<path fill="none" stroke="black" d="M796.53,-364.92C812.21,-363.02 828.48,-361.26 843.79,-360 2560.79,-218.52 4662.53,-201.36 5161.75,-199.29"/>
<polygon fill="black" stroke="black" points="5161.84,-202.79 5171.83,-199.25 5161.81,-195.79 5161.84,-202.79"/>
<text text-anchor="middle" x="791.53" y="-353.72" font-family="Times,serif" font-size="14.00">1</text>
</g>
<!-- boss.CollectLifeVessel -->
<g id="node7" class="node">
<title>boss.CollectLifeVessel</title>
<g id="a_node7"><a xlink:href="boss.CollectLifeVessel.svg" xlink:title="boss.CollectLifeVessel">
<ellipse fill="green" stroke="black" cx="966.79" cy="-378" rx="113.98" ry="18"/>
<text text-anchor="middle" x="966.79" y="-374.3" font-family="Times,serif" font-size="14.00">boss.CollectLifeVessel</text>
</a>
</g>
</g>
<!-- boss.CollectLifeVessel&#45;&gt;boss.DestroyEntity -->
<g id="edge6" class="edge">
<title>boss.CollectLifeVessel&#45;&gt;boss.DestroyEntity</title>
<path fill="none" stroke="black" d="M1045.4,-364.96C1060.12,-363.04 1075.4,-361.27 1089.79,-360 2703.61,-217.76 4678.74,-201.16 5161.51,-199.25"/>
<polygon fill="black" stroke="black" points="5161.63,-202.75 5171.61,-199.21 5161.6,-195.75 5161.63,-202.75"/>
<text text-anchor="middle" x="1040.4" y="-353.76" font-family="Times,serif" font-size="14.00">1</text>
</g>
<!-- boss.CollectSubweapon -->
<g id="node8" class="node">
<title>boss.CollectSubweapon</title>
<g id="a_node8"><a xlink:href="boss.CollectSubweapon.svg" xlink:title="boss.CollectSubweapon">
<ellipse fill="green" stroke="black" cx="1218.79" cy="-378" rx="120.48" ry="18"/>
<text text-anchor="middle" x="1218.79" y="-374.3" font-family="Times,serif" font-size="14.00">boss.CollectSubweapon</text>
</a>
</g>
</g>
<!-- boss.CollectSubweapon&#45;&gt;boss.DestroyEntity -->
<g id="edge7" class="edge">
<title>boss.CollectSubweapon&#45;&gt;boss.DestroyEntity</title>
<path fill="none" stroke="black" d="M1301.94,-364.92C1317.17,-363.03 1332.94,-361.28 1347.79,-360 2855.33,-230 4698.03,-204.4 5161.86,-199.89"/>
<polygon fill="black" stroke="black" points="5161.94,-203.39 5171.9,-199.79 5161.87,-196.39 5161.94,-203.39"/>
<text text-anchor="middle" x="1296.94" y="-353.72" font-family="Times,serif" font-size="14.00">1</text>
</g>
<!-- boss.CreateEntityFromCurrentEntity -->
<g id="node9" class="node">
<title>boss.CreateEntityFromCurrentEntity</title>
<g id="a_node9"><a xlink:href="boss.CreateEntityFromCurrentEntity.svg" xlink:title="boss.CreateEntityFromCurrentEntity">
<ellipse fill="green" stroke="black" cx="1541.79" cy="-378" rx="184.67" ry="18"/>
<text text-anchor="middle" x="1541.79" y="-374.3" font-family="Times,serif" font-size="14.00">boss.CreateEntityFromCurrentEntity</text>
</a>
</g>
</g>
<!-- boss.CreateEntityFromCurrentEntity&#45;&gt;boss.DestroyEntity -->
<g id="edge8" class="edge">
<title>boss.CreateEntityFromCurrentEntity&#45;&gt;boss.DestroyEntity</title>
<path fill="none" stroke="black" d="M1669.83,-365.02C1691.82,-363.18 1714.46,-361.42 1735.79,-360 3086.82,-270.09 4731.62,-215.68 5163.69,-202.27"/>
<polygon fill="black" stroke="black" points="5164.09,-205.76 5173.98,-201.95 5163.88,-198.76 5164.09,-205.76"/>
<text text-anchor="middle" x="1664.83" y="-353.82" font-family="Times,serif" font-size="14.00">1</text>
</g>
<!-- boss.CreateEntityFromEntity -->
<g id="node10" class="node">
<title>boss.CreateEntityFromEntity</title>
<g id="a_node10"><a xlink:href="boss.CreateEntityFromEntity.svg" xlink:title="boss.CreateEntityFromEntity">
<ellipse fill="green" stroke="black" cx="1892.79" cy="-378" rx="148.37" ry="18"/>
<text text-anchor="middle" x="1892.79" y="-374.3" font-family="Times,serif" font-size="14.00">boss.CreateEntityFromEntity</text>
</a>
</g>
</g>
<!-- boss.CreateEntityFromEntity&#45;&gt;boss.DestroyEntity -->
<g id="edge9" class="edge">
<title>boss.CreateEntityFromEntity&#45;&gt;boss.DestroyEntity</title>
<path fill="none" stroke="black" d="M1995.98,-365.04C2014.22,-363.17 2033.05,-361.4 2050.79,-360 3271,-263.94 4756.03,-214.54 5163.81,-202.15"/>
<polygon fill="black" stroke="black" points="5163.93,-205.65 5173.82,-201.85 5163.72,-198.65 5163.93,-205.65"/>
<text text-anchor="middle" x="1990.98" y="-353.84" font-family="Times,serif" font-size="14.00">1</text>
</g>
<!-- boss.CreateEntityFromLayout -->
<g id="node11" class="node">
<title>boss.CreateEntityFromLayout</title>
<g id="a_node11"><a xlink:href="boss.CreateEntityFromLayout.svg" xlink:title="boss.CreateEntityFromLayout">
<ellipse fill="green" stroke="black" cx="2210.79" cy="-378" rx="151.37" ry="18"/>
<text text-anchor="middle" x="2210.79" y="-374.3" font-family="Times,serif" font-size="14.00">boss.CreateEntityFromLayout</text>
</a>
</g>
</g>
<!-- boss.CreateEntityFromLayout&#45;&gt;boss.DestroyEntity -->
<g id="edge10" class="edge">
<title>boss.CreateEntityFromLayout&#45;&gt;boss.DestroyEntity</title>
<path fill="none" stroke="black" d="M2316.38,-365.09C2334.83,-363.23 2353.86,-361.44 2371.79,-360 3461.03,-272.31 4784.31,-217.71 5164.81,-203.02"/>
<polygon fill="black" stroke="black" points="5165.12,-206.51 5174.98,-202.62 5164.86,-199.51 5165.12,-206.51"/>
<text text-anchor="middle" x="2311.38" y="-353.89" font-family="Times,serif" font-size="14.00">1</text>
</g>
<!-- boss.CutsceneRun -->
<g id="node12" class="node">
<title>boss.CutsceneRun</title>
<g id="a_node12"><a xlink:href="boss.CutsceneRun.svg" xlink:title="boss.CutsceneRun">
<ellipse fill="green" stroke="black" cx="2476.79" cy="-378" rx="96.38" ry="18"/>
<text text-anchor="middle" x="2476.79" y="-374.3" font-family="Times,serif" font-size="14.00">boss.CutsceneRun</text>
</a>
</g>
</g>
<!-- boss.CutsceneRun&#45;&gt;boss.DestroyEntity -->
<g id="edge11" class="edge">
<title>boss.CutsceneRun&#45;&gt;boss.DestroyEntity</title>
<path fill="none" stroke="black" d="M2544.23,-365.16C2557.01,-363.2 2570.29,-361.37 2582.79,-360 3581.65,-250.27 4798.04,-211.32 5163.18,-201.64"/>
<polygon fill="black" stroke="black" points="5163.31,-205.13 5173.21,-201.37 5163.12,-198.14 5163.31,-205.13"/>
<text text-anchor="middle" x="2539.23" y="-353.96" font-family="Times,serif" font-size="14.00">2</text>
</g>
<!-- boss.DestroyCurrentEntity -->
<g id="node13" class="node">
<title>boss.DestroyCurrentEntity</title>
<g id="a_node13"><a xlink:href="boss.DestroyCurrentEntity.svg" xlink:title="boss.DestroyCurrentEntity">
<ellipse fill="green" stroke="black" cx="2727.79" cy="-378" rx="136.48" ry="18"/>
<text text-anchor="middle" x="2727.79" y="-374.3" font-family="Times,serif" font-size="14.00">boss.DestroyCurrentEntity</text>
</a>
</g>
</g>
<!-- boss.DestroyCurrentEntity&#45;&gt;boss.DestroyEntity -->
<g id="edge12" class="edge">
<title>boss.DestroyCurrentEntity&#45;&gt;boss.DestroyEntity</title>
<path fill="none" stroke="black" d="M2823.27,-365.12C2839.77,-363.27 2856.77,-361.48 2872.79,-360 3758.35,-278.42 4831.43,-221.12 5166.62,-204.19"/>
<polygon fill="black" stroke="black" points="5166.99,-207.67 5176.8,-203.67 5166.63,-200.68 5166.99,-207.67"/>
<text text-anchor="middle" x="2818.27" y="-353.92" font-family="Times,serif" font-size="14.00">1</text>
</g>
<!-- boss.DestroyEntitiesFromIndex -->
<g id="node14" class="node">
<title>boss.DestroyEntitiesFromIndex</title>
<g id="a_node14"><a xlink:href="boss.DestroyEntitiesFromIndex.svg" xlink:title="boss.DestroyEntitiesFromIndex">
<ellipse fill="green" stroke="black" cx="3040.79" cy="-378" rx="158.67" ry="18"/>
<text text-anchor="middle" x="3040.79" y="-374.3" font-family="Times,serif" font-size="14.00">boss.DestroyEntitiesFromIndex</text>
</a>
</g>
</g>
<!-- boss.DestroyEntitiesFromIndex&#45;&gt;boss.DestroyEntity -->
<g id="edge13" class="edge">
<title>boss.DestroyEntitiesFromIndex&#45;&gt;boss.DestroyEntity</title>
<path fill="none" stroke="black" d="M3153.27,-365.26C3171.81,-363.43 3190.84,-361.61 3208.79,-360 3961.72,-292.53 4870.7,-227.2 5170.5,-206.08"/>
<polygon fill="black" stroke="black" points="5170.75,-209.57 5180.48,-205.37 5170.26,-202.59 5170.75,-209.57"/>
<text text-anchor="middle" x="3148.27" y="-354.06" font-family="Times,serif" font-size="14.00">1</text>
</g>
<!-- boss.DrawCutsceneAvatar -->
<g id="node15" class="node">
<title>boss.DrawCutsceneAvatar</title>
<g id="a_node15"><a xlink:href="boss.DrawCutsceneAvatar.svg" xlink:title="boss.DrawCutsceneAvatar">
<ellipse fill="green" stroke="black" cx="3350.79" cy="-378" rx="133.48" ry="18"/>
<text text-anchor="middle" x="3350.79" y="-374.3" font-family="Times,serif" font-size="14.00">boss.DrawCutsceneAvatar</text>
</a>
</g>
</g>
<!-- boss.DrawCutsceneAvatar&#45;&gt;boss.DestroyEntity -->
<g id="edge14" class="edge">
<title>boss.DrawCutsceneAvatar&#45;&gt;boss.DestroyEntity</title>
<path fill="none" stroke="black" d="M3445.46,-365.28C3461.26,-363.44 3477.48,-361.61 3492.79,-360 4131.87,-292.84 4901.91,-228.92 5172.21,-207"/>
<polygon fill="black" stroke="black" points="5172.7,-210.47 5182.39,-206.17 5172.14,-203.49 5172.7,-210.47"/>
<text text-anchor="middle" x="3440.46" y="-354.08" font-family="Times,serif" font-size="14.00">1</text>
</g>
<!-- boss.EntityBigRedFireball -->
<g id="node16" class="node">
<title>boss.EntityBigRedFireball</title>
<g id="a_node16"><a xlink:href="boss.EntityBigRedFireball.svg" xlink:title="boss.EntityBigRedFireball">
<ellipse fill="green" stroke="black" cx="3634.79" cy="-378" rx="133.48" ry="18"/>
<text text-anchor="middle" x="3634.79" y="-374.3" font-family="Times,serif" font-size="14.00">boss.EntityBigRedFireball</text>
</a>
</g>
</g>
<!-- boss.EntityBigRedFireball&#45;&gt;boss.DestroyEntity -->
<g id="edge15" class="edge">
<title>boss.EntityBigRedFireball&#45;&gt;boss.DestroyEntity</title>
<path fill="none" stroke="black" d="M3730.25,-365.41C3745.8,-363.57 3761.74,-361.71 3776.79,-360 4305.84,-299.85 4940.89,-233.34 5177.18,-208.79"/>
<polygon fill="black" stroke="black" points="5177.87,-212.24 5187.46,-207.73 5177.15,-205.28 5177.87,-212.24"/>
<text text-anchor="middle" x="3725.25" y="-354.21" font-family="Times,serif" font-size="14.00">1</text>
</g>
<!-- boss.EntityDamageDisplay -->
<g id="node17" class="node">
<title>boss.EntityDamageDisplay</title>
<g id="a_node17"><a xlink:href="boss.EntityDamageDisplay.svg" xlink:title="boss.EntityDamageDisplay">
<ellipse fill="green" stroke="black" cx="3921.79" cy="-378" rx="135.68" ry="18"/>
<text text-anchor="middle" x="3921.79" y="-374.3" font-family="Times,serif" font-size="14.00">boss.EntityDamageDisplay</text>
</a>
</g>
</g>
<!-- boss.EntityDamageDisplay&#45;&gt;boss.DestroyEntity -->
<g id="edge16" class="edge">
<title>boss.EntityDamageDisplay&#45;&gt;boss.DestroyEntity</title>
<path fill="none" stroke="black" d="M4014.32,-364.8C4262.35,-332.1 4939.77,-242.78 5183.2,-210.68"/>
<polygon fill="black" stroke="black" points="5183.96,-214.11 5193.42,-209.33 5183.05,-207.17 5183.96,-214.11"/>
<text text-anchor="middle" x="4009.32" y="-353.6" font-family="Times,serif" font-size="14.00">1</text>
</g>
<!-- boss.EntityEnemyBlood -->
<g id="node18" class="node">
<title>boss.EntityEnemyBlood</title>
<g id="a_node18"><a xlink:href="boss.EntityEnemyBlood.svg" xlink:title="boss.EntityEnemyBlood">
<ellipse fill="green" stroke="black" cx="4197.79" cy="-378" rx="122.38" ry="18"/>
<text text-anchor="middle" x="4197.79" y="-374.3" font-family="Times,serif" font-size="14.00">boss.EntityEnemyBlood</text>
</a>
</g>
</g>
<!-- boss.EntityEnemyBlood&#45;&gt;boss.DestroyEntity -->
<g id="edge17" class="edge">
<title>boss.EntityEnemyBlood&#45;&gt;boss.DestroyEntity</title>
<path fill="none" stroke="black" d="M4275.9,-364.06C4473.25,-331.35 4990.45,-245.63 5190.84,-212.42"/>
<polygon fill="black" stroke="black" points="5191.42,-215.87 5200.72,-210.78 5190.28,-208.96 5191.42,-215.87"/>
<text text-anchor="middle" x="4270.9" y="-352.86" font-family="Times,serif" font-size="14.00">1</text>
</g>
<!-- boss.EntityEquipItemDrop -->
<g id="node19" class="node">
<title>boss.EntityEquipItemDrop</title>
<g id="a_node19"><a xlink:href="boss.EntityEquipItemDrop.svg" xlink:title="boss.EntityEquipItemDrop">
<ellipse fill="green" stroke="black" cx="4472.79" cy="-378" rx="135.38" ry="18"/>
<text text-anchor="middle" x="4472.79" y="-374.3" font-family="Times,serif" font-size="14.00">boss.EntityEquipItemDrop</text>
</a>
</g>
</g>
<!-- boss.EntityEquipItemDrop&#45;&gt;boss.DestroyEntity -->
<g id="edge18" class="edge">
<title>boss.EntityEquipItemDrop&#45;&gt;boss.DestroyEntity</title>
<path fill="none" stroke="black" d="M4538.86,-362.28C4687.7,-329.12 5048.2,-248.81 5201.22,-214.72"/>
<polygon fill="black" stroke="black" points="5202.43,-218.04 5211.43,-212.45 5200.91,-211.21 5202.43,-218.04"/>
<text text-anchor="middle" x="4533.86" y="-351.08" font-family="Times,serif" font-size="14.00">2</text>
</g>
<!-- boss.EntityExplosion -->
<g id="node20" class="node">
<title>boss.EntityExplosion</title>
<g id="a_node20"><a xlink:href="boss.EntityExplosion.svg" xlink:title="boss.EntityExplosion">
<ellipse fill="green" stroke="black" cx="4734.79" cy="-378" rx="108.58" ry="18"/>
<text text-anchor="middle" x="4734.79" y="-374.3" font-family="Times,serif" font-size="14.00">boss.EntityExplosion</text>
</a>
</g>
</g>
<!-- boss.EntityExplosion&#45;&gt;boss.DestroyEntity -->
<g id="edge19" class="edge">
<title>boss.EntityExplosion&#45;&gt;boss.DestroyEntity</title>
<path fill="none" stroke="black" d="M4781.04,-361.67C4879.72,-328.96 5110.55,-252.45 5216.66,-217.27"/>
<polygon fill="black" stroke="black" points="5217.83,-220.57 5226.23,-214.1 5215.63,-213.93 5217.83,-220.57"/>
<text text-anchor="middle" x="4776.04" y="-350.47" font-family="Times,serif" font-size="14.00">1</text>
</g>
<!-- boss.EntityExplosionSpawn -->
<g id="node21" class="node">
<title>boss.EntityExplosionSpawn</title>
<g id="a_node21"><a xlink:href="boss.EntityExplosionSpawn.svg" xlink:title="boss.EntityExplosionSpawn">
<ellipse fill="green" stroke="black" cx="5000.79" cy="-378" rx="139.98" ry="18"/>
<text text-anchor="middle" x="5000.79" y="-374.3" font-family="Times,serif" font-size="14.00">boss.EntityExplosionSpawn</text>
</a>
</g>
</g>
<!-- boss.EntityExplosionSpawn&#45;&gt;boss.DestroyEntity -->
<g id="edge20" class="edge">
<title>boss.EntityExplosionSpawn&#45;&gt;boss.DestroyEntity</title>
<path fill="none" stroke="black" d="M5026.29,-360.25C5075.34,-328.04 5182.85,-257.42 5237.88,-221.27"/>
<polygon fill="black" stroke="black" points="5240.13,-223.99 5246.56,-215.57 5236.28,-218.14 5240.13,-223.99"/>
<text text-anchor="middle" x="5021.29" y="-349.05" font-family="Times,serif" font-size="14.00">1</text>
</g>
<!-- boss.EntityHeartDrop -->
<g id="node22" class="node">
<title>boss.EntityHeartDrop</title>
<g id="a_node22"><a xlink:href="boss.EntityHeartDrop.svg" xlink:title="boss.EntityHeartDrop">
<ellipse fill="green" stroke="black" cx="5271.79" cy="-378" rx="113.18" ry="18"/>
<text text-anchor="middle" x="5271.79" y="-374.3" font-family="Times,serif" font-size="14.00">boss.EntityHeartDrop</text>
</a>
</g>
</g>
<!-- boss.EntityHeartDrop&#45;&gt;boss.DestroyEntity -->
<g id="edge21" class="edge">
<title>boss.EntityHeartDrop&#45;&gt;boss.DestroyEntity</title>
<path fill="none" stroke="black" d="M5271.79,-359.93C5271.79,-328.97 5271.79,-263.3 5271.79,-226.13"/>
<polygon fill="black" stroke="black" points="5275.29,-226.02 5271.79,-216.02 5268.29,-226.02 5275.29,-226.02"/>
<text text-anchor="middle" x="5266.79" y="-348.73" font-family="Times,serif" font-size="14.00">1</text>
</g>
<!-- boss.EntityIntenseExplosion -->
<g id="node23" class="node">
<title>boss.EntityIntenseExplosion</title>
<g id="a_node23"><a xlink:href="boss.EntityIntenseExplosion.svg" xlink:title="boss.EntityIntenseExplosion">
<ellipse fill="green" stroke="black" cx="5546.79" cy="-378" rx="143.77" ry="18"/>
<text text-anchor="middle" x="5546.79" y="-374.3" font-family="Times,serif" font-size="14.00">boss.EntityIntenseExplosion</text>
</a>
</g>
</g>
<!-- boss.EntityIntenseExplosion&#45;&gt;boss.DestroyEntity -->
<g id="edge22" class="edge">
<title>boss.EntityIntenseExplosion&#45;&gt;boss.DestroyEntity</title>
<path fill="none" stroke="black" d="M5520.92,-360.25C5471.04,-327.97 5361.6,-257.13 5305.86,-221.05"/>
<polygon fill="black" stroke="black" points="5307.69,-218.07 5297.39,-215.57 5303.89,-223.94 5307.69,-218.07"/>
<text text-anchor="middle" x="5515.92" y="-349.05" font-family="Times,serif" font-size="14.00">1</text>
</g>
<!-- boss.EntityMariaCutscene -->
<g id="node24" class="node">
<title>boss.EntityMariaCutscene</title>
<g id="a_node24"><a xlink:href="boss.EntityMariaCutscene.svg" xlink:title="boss.EntityMariaCutscene">
<ellipse fill="green" stroke="black" cx="5842.79" cy="-378" rx="133.78" ry="18"/>
<text text-anchor="middle" x="5842.79" y="-374.3" font-family="Times,serif" font-size="14.00">boss.EntityMariaCutscene</text>
</a>
</g>
</g>
<!-- boss.EntityMariaCutscene&#45;&gt;boss.DestroyEntity -->
<g id="edge23" class="edge">
<title>boss.EntityMariaCutscene&#45;&gt;boss.DestroyEntity</title>
<path fill="none" stroke="black" d="M5792.12,-361.2C5686.01,-328.13 5441.05,-251.76 5329.27,-216.92"/>
<polygon fill="black" stroke="black" points="5330.11,-213.51 5319.52,-213.88 5328.03,-220.2 5330.11,-213.51"/>
<text text-anchor="middle" x="5787.12" y="-350" font-family="Times,serif" font-size="14.00">1</text>
</g>
<!-- boss.EntityMessageBox -->
<g id="node25" class="node">
<title>boss.EntityMessageBox</title>
<g id="a_node25"><a xlink:href="boss.EntityMessageBox.svg" xlink:title="boss.EntityMessageBox">
<ellipse fill="green" stroke="black" cx="6116.79" cy="-378" rx="122.38" ry="18"/>
<text text-anchor="middle" x="6116.79" y="-374.3" font-family="Times,serif" font-size="14.00">boss.EntityMessageBox</text>
</a>
</g>
</g>
<!-- boss.EntityMessageBox&#45;&gt;boss.DestroyEntity -->
<g id="edge24" class="edge">
<title>boss.EntityMessageBox&#45;&gt;boss.DestroyEntity</title>
<path fill="none" stroke="black" d="M6049.78,-362.88C5893.4,-329.94 5505.44,-248.22 5344.03,-214.22"/>
<polygon fill="black" stroke="black" points="5344.7,-210.78 5334.2,-212.15 5343.26,-217.63 5344.7,-210.78"/>
<text text-anchor="middle" x="6044.78" y="-351.68" font-family="Times,serif" font-size="14.00">1</text>
</g>
<!-- boss.EntityOlroxDrool -->
<g id="node26" class="node">
<title>boss.EntityOlroxDrool</title>
<g id="a_node26"><a xlink:href="boss.EntityOlroxDrool.svg" xlink:title="boss.EntityOlroxDrool">
<ellipse fill="green" stroke="black" cx="6371.79" cy="-378" rx="114.28" ry="18"/>
<text text-anchor="middle" x="6371.79" y="-374.3" font-family="Times,serif" font-size="14.00">boss.EntityOlroxDrool</text>
</a>
</g>
</g>
<!-- boss.EntityOlroxDrool&#45;&gt;boss.DestroyEntity -->
<g id="edge25" class="edge">
<title>boss.EntityOlroxDrool&#45;&gt;boss.DestroyEntity</title>
<path fill="none" stroke="black" d="M6294.88,-364.55C6094.83,-332.18 5559.53,-245.56 5353.85,-212.28"/>
<polygon fill="black" stroke="black" points="5354.15,-208.78 5343.72,-210.64 5353.03,-215.69 5354.15,-208.78"/>
<text text-anchor="middle" x="6289.88" y="-353.35" font-family="Times,serif" font-size="14.00">1</text>
</g>
<!-- boss.EntityPrizeDrop -->
<g id="node27" class="node">
<title>boss.EntityPrizeDrop</title>
<g id="a_node27"><a xlink:href="boss.EntityPrizeDrop.svg" xlink:title="boss.EntityPrizeDrop">
<ellipse fill="green" stroke="black" cx="6614.79" cy="-378" rx="110.48" ry="18"/>
<text text-anchor="middle" x="6614.79" y="-374.3" font-family="Times,serif" font-size="14.00">boss.EntityPrizeDrop</text>
</a>
</g>
</g>
<!-- boss.EntityPrizeDrop&#45;&gt;boss.DestroyEntity -->
<g id="edge26" class="edge">
<title>boss.EntityPrizeDrop&#45;&gt;boss.DestroyEntity</title>
<path fill="none" stroke="black" d="M6534.77,-365.55C6521.42,-363.67 6507.72,-361.77 6494.79,-360 6070.42,-302.01 5562.68,-236.36 5360.84,-210.42"/>
<polygon fill="black" stroke="black" points="5361.25,-206.94 5350.88,-209.14 5360.35,-213.88 5361.25,-206.94"/>
<text text-anchor="middle" x="6529.77" y="-354.35" font-family="Times,serif" font-size="14.00">2</text>
</g>
<!-- boss.EntityRedDoor -->
<g id="node28" class="node">
<title>boss.EntityRedDoor</title>
<g id="a_node28"><a xlink:href="boss.EntityRedDoor.svg" xlink:title="boss.EntityRedDoor">
<ellipse fill="green" stroke="black" cx="6846.79" cy="-378" rx="103.98" ry="18"/>
<text text-anchor="middle" x="6846.79" y="-374.3" font-family="Times,serif" font-size="14.00">boss.EntityRedDoor</text>
</a>
</g>
</g>
<!-- boss.EntityRedDoor&#45;&gt;boss.DestroyEntity -->
<g id="edge27" class="edge">
<title>boss.EntityRedDoor&#45;&gt;boss.DestroyEntity</title>
<path fill="none" stroke="black" d="M6772.39,-365.38C6759.53,-363.49 6746.28,-361.63 6733.79,-360 6220.12,-293.1 5602.51,-231.13 5368.23,-208.28"/>
<polygon fill="black" stroke="black" points="5368.33,-204.78 5358.04,-207.29 5367.65,-211.74 5368.33,-204.78"/>
<text text-anchor="middle" x="6767.39" y="-354.18" font-family="Times,serif" font-size="14.00">1</text>
</g>
<!-- boss.EntityRelicOrb -->
<g id="node29" class="node">
<title>boss.EntityRelicOrb</title>
<g id="a_node29"><a xlink:href="boss.EntityRelicOrb.svg" xlink:title="boss.EntityRelicOrb">
<ellipse fill="green" stroke="black" cx="7072.79" cy="-378" rx="103.98" ry="18"/>
<text text-anchor="middle" x="7072.79" y="-374.3" font-family="Times,serif" font-size="14.00">boss.EntityRelicOrb</text>
</a>
</g>
</g>
<!-- boss.EntityRelicOrb&#45;&gt;boss.DestroyEntity -->
<g id="edge28" class="edge">
<title>boss.EntityRelicOrb&#45;&gt;boss.DestroyEntity</title>
<path fill="none" stroke="black" d="M6999.02,-365.31C6985.97,-363.41 6972.49,-361.56 6959.79,-360 6358.97,-286.21 5634.28,-227.09 5372.35,-206.68"/>
<polygon fill="black" stroke="black" points="5372.34,-203.17 5362.1,-205.88 5371.8,-210.14 5372.34,-203.17"/>
<text text-anchor="middle" x="6994.02" y="-354.11" font-family="Times,serif" font-size="14.00">1</text>
</g>
<!-- boss.EntitySoulStealOrb -->
<g id="node30" class="node">
<title>boss.EntitySoulStealOrb</title>
<g id="a_node30"><a xlink:href="boss.EntitySoulStealOrb.svg" xlink:title="boss.EntitySoulStealOrb">
<ellipse fill="green" stroke="black" cx="7319.79" cy="-378" rx="125.38" ry="18"/>
<text text-anchor="middle" x="7319.79" y="-374.3" font-family="Times,serif" font-size="14.00">boss.EntitySoulStealOrb</text>
</a>
</g>
</g>
<!-- boss.EntitySoulStealOrb&#45;&gt;boss.DestroyEntity -->
<g id="edge29" class="edge">
<title>boss.EntitySoulStealOrb&#45;&gt;boss.DestroyEntity</title>
<path fill="none" stroke="black" d="M7231.2,-365.22C7216.06,-363.37 7200.48,-361.55 7185.79,-360 6494.6,-287.12 5660.19,-226.19 5373.92,-206.06"/>
<polygon fill="black" stroke="black" points="5373.78,-202.55 5363.56,-205.34 5373.29,-209.53 5373.78,-202.55"/>
<text text-anchor="middle" x="7226.2" y="-354.02" font-family="Times,serif" font-size="14.00">1</text>
</g>
<!-- boss.EntityStageNamePopup -->
<g id="node31" class="node">
<title>boss.EntityStageNamePopup</title>
<g id="a_node31"><a xlink:href="boss.EntityStageNamePopup.svg" xlink:title="boss.EntityStageNamePopup">
<ellipse fill="green" stroke="black" cx="7609.79" cy="-378" rx="146.47" ry="18"/>
<text text-anchor="middle" x="7609.79" y="-374.3" font-family="Times,serif" font-size="14.00">boss.EntityStageNamePopup</text>
</a>
</g>
</g>
<!-- boss.EntityStageNamePopup&#45;&gt;boss.DestroyEntity -->
<g id="edge30" class="edge">
<title>boss.EntityStageNamePopup&#45;&gt;boss.DestroyEntity</title>
<path fill="none" stroke="black" d="M7506.21,-365.2C7488.72,-363.35 7470.75,-361.55 7453.79,-360 6654.78,-287.01 5688.81,-224.86 5375.36,-205.35"/>
<polygon fill="black" stroke="black" points="5375.13,-201.83 5364.93,-204.71 5374.7,-208.82 5375.13,-201.83"/>
<text text-anchor="middle" x="7501.21" y="-354" font-family="Times,serif" font-size="14.00">1</text>
</g>
<!-- boss.EntityUnkId13 -->
<g id="node32" class="node">
<title>boss.EntityUnkId13</title>
<g id="a_node32"><a xlink:href="boss.EntityUnkId13.svg" xlink:title="boss.EntityUnkId13">
<ellipse fill="green" stroke="black" cx="7877.79" cy="-378" rx="103.18" ry="18"/>
<text text-anchor="middle" x="7877.79" y="-374.3" font-family="Times,serif" font-size="14.00">boss.EntityUnkId13</text>
</a>
</g>
</g>
<!-- boss.EntityUnkId13&#45;&gt;boss.DestroyEntity -->
<g id="edge31" class="edge">
<title>boss.EntityUnkId13&#45;&gt;boss.DestroyEntity</title>
<path fill="none" stroke="black" d="M7805.27,-365.16C7791.84,-363.23 7777.91,-361.41 7764.79,-360 6844.28,-261.21 5725.58,-215.23 5379.19,-202.68"/>
<polygon fill="black" stroke="black" points="5379.29,-199.18 5369.17,-202.31 5379.03,-206.17 5379.29,-199.18"/>
<text text-anchor="middle" x="7800.27" y="-353.96" font-family="Times,serif" font-size="14.00">1</text>
</g>
<!-- boss.EntityUnkId14 -->
<g id="node33" class="node">
<title>boss.EntityUnkId14</title>
<g id="a_node33"><a xlink:href="boss.EntityUnkId14.svg" xlink:title="boss.EntityUnkId14">
<ellipse fill="green" stroke="black" cx="8102.79" cy="-378" rx="103.18" ry="18"/>
<text text-anchor="middle" x="8102.79" y="-374.3" font-family="Times,serif" font-size="14.00">boss.EntityUnkId14</text>
</a>
</g>
</g>
<!-- boss.EntityUnkId14&#45;&gt;boss.DestroyEntity -->
<g id="edge32" class="edge">
<title>boss.EntityUnkId14&#45;&gt;boss.DestroyEntity</title>
<path fill="none" stroke="black" d="M8030.28,-365.1C8016.84,-363.18 8002.91,-361.37 7989.79,-360 6978.19,-254.16 5746.94,-212.5 5379.95,-201.9"/>
<polygon fill="black" stroke="black" points="5379.96,-198.4 5369.86,-201.61 5379.76,-205.4 5379.96,-198.4"/>
<text text-anchor="middle" x="8025.28" y="-353.9" font-family="Times,serif" font-size="14.00">1</text>
</g>
<!-- boss.EntityUnkId15 -->
<g id="node34" class="node">
<title>boss.EntityUnkId15</title>
<g id="a_node34"><a xlink:href="boss.EntityUnkId15.svg" xlink:title="boss.EntityUnkId15">
<ellipse fill="green" stroke="black" cx="8327.79" cy="-378" rx="103.18" ry="18"/>
<text text-anchor="middle" x="8327.79" y="-374.3" font-family="Times,serif" font-size="14.00">boss.EntityUnkId15</text>
</a>
</g>
</g>
<!-- boss.EntityUnkId15&#45;&gt;boss.DestroyEntity -->
<g id="edge33" class="edge">
<title>boss.EntityUnkId15&#45;&gt;boss.DestroyEntity</title>
<path fill="none" stroke="black" d="M8255.58,-365.1C8242.06,-363.16 8228.02,-361.35 8214.79,-360 7111.68,-247.1 5767.3,-209.97 5380.56,-201.24"/>
<polygon fill="black" stroke="black" points="5380.58,-197.74 5370.5,-201.01 5380.42,-204.73 5380.58,-197.74"/>
<text text-anchor="middle" x="8250.58" y="-353.9" font-family="Times,serif" font-size="14.00">1</text>
</g>
<!-- boss.HitDetection -->
<g id="node35" class="node">
<title>boss.HitDetection</title>
<g id="a_node35"><a xlink:href="boss.HitDetection.svg" xlink:title="boss.HitDetection">
<ellipse fill="green" stroke="black" cx="8543.79" cy="-378" rx="94.48" ry="18"/>
<text text-anchor="middle" x="8543.79" y="-374.3" font-family="Times,serif" font-size="14.00">boss.HitDetection</text>
</a>
</g>
</g>
<!-- boss.HitDetection&#45;&gt;boss.DestroyEntity -->
<g id="edge34" class="edge">
<title>boss.HitDetection&#45;&gt;boss.DestroyEntity</title>
<path fill="none" stroke="black" d="M8477.92,-365.1C8465.3,-363.14 8452.16,-361.32 8439.79,-360 7246.06,-232.5 5788.14,-205.4 5381.59,-200.16"/>
<polygon fill="black" stroke="black" points="5381.36,-196.66 5371.31,-200.03 5381.27,-203.66 5381.36,-196.66"/>
<text text-anchor="middle" x="8472.92" y="-353.9" font-family="Times,serif" font-size="14.00">1</text>
</g>
<!-- boss.InitializeUnkEntity -->
<g id="node36" class="node">
<title>boss.InitializeUnkEntity</title>
<g id="a_node36"><a xlink:href="boss.InitializeUnkEntity.svg" xlink:title="boss.InitializeUnkEntity">
<ellipse fill="green" stroke="black" cx="8778.79" cy="-378" rx="122.68" ry="18"/>
<text text-anchor="middle" x="8778.79" y="-374.3" font-family="Times,serif" font-size="14.00">boss.InitializeUnkEntity</text>
</a>
</g>
</g>
<!-- boss.InitializeUnkEntity&#45;&gt;boss.DestroyEntity -->
<g id="edge35" class="edge">
<title>boss.InitializeUnkEntity&#45;&gt;boss.DestroyEntity</title>
<path fill="none" stroke="black" d="M8693.69,-365.02C8678.12,-363.12 8661.98,-361.34 8646.79,-360 7365.08,-247.08 5802.07,-209.47 5380.73,-201.01"/>
<polygon fill="black" stroke="black" points="5380.76,-197.51 5370.69,-200.81 5380.62,-204.51 5380.76,-197.51"/>
<text text-anchor="middle" x="8688.69" y="-353.82" font-family="Times,serif" font-size="14.00">1</text>
</g>
<!-- boss.MakeEntityFromId -->
<g id="node37" class="node">
<title>boss.MakeEntityFromId</title>
<g id="a_node37"><a xlink:href="boss.MakeEntityFromId.svg" xlink:title="boss.MakeEntityFromId">
<ellipse fill="green" stroke="black" cx="9042.79" cy="-378" rx="122.68" ry="18"/>
<text text-anchor="middle" x="9042.79" y="-374.3" font-family="Times,serif" font-size="14.00">boss.MakeEntityFromId</text>
</a>
</g>
</g>
<!-- boss.MakeEntityFromId&#45;&gt;boss.DestroyEntity -->
<g id="edge36" class="edge">
<title>boss.MakeEntityFromId&#45;&gt;boss.DestroyEntity</title>
<path fill="none" stroke="black" d="M8957.7,-364.98C8942.12,-363.08 8925.99,-361.31 8910.79,-360 7520.68,-239.95 5823.65,-207.24 5381.34,-200.5"/>
<polygon fill="black" stroke="black" points="5381.18,-196.99 5371.13,-200.34 5381.07,-203.99 5381.18,-196.99"/>
<text text-anchor="middle" x="8952.7" y="-353.78" font-family="Times,serif" font-size="14.00">1</text>
</g>
<!-- boss.ReplaceBreakableWithItemDrop -->
<g id="node38" class="node">
<title>boss.ReplaceBreakableWithItemDrop</title>
<g id="a_node38"><a xlink:href="boss.ReplaceBreakableWithItemDrop.svg" xlink:title="boss.ReplaceBreakableWithItemDrop">
<ellipse fill="green" stroke="black" cx="9367.79" cy="-378" rx="184.67" ry="18"/>
<text text-anchor="middle" x="9367.79" y="-374.3" font-family="Times,serif" font-size="14.00">boss.ReplaceBreakableWithItemDrop</text>
</a>
</g>
</g>
<!-- boss.ReplaceBreakableWithItemDrop&#45;&gt;boss.DestroyEntity -->
<g id="edge37" class="edge">
<title>boss.ReplaceBreakableWithItemDrop&#45;&gt;boss.DestroyEntity</title>
<path fill="none" stroke="black" d="M9240.42,-364.93C9218.54,-363.1 9196.02,-361.37 9174.79,-360 7672.4,-262.9 5840.69,-213.13 5380.57,-201.63"/>
<polygon fill="black" stroke="black" points="5380.37,-198.12 5370.28,-201.37 5380.19,-205.12 5380.37,-198.12"/>
<text text-anchor="middle" x="9235.42" y="-353.73" font-family="Times,serif" font-size="14.00">1</text>
</g>
<!-- boss.Update -->
<g id="node39" class="node">
<title>boss.Update</title>
<g id="a_node39"><a xlink:href="boss.Update.svg" xlink:title="boss.Update">
<ellipse fill="green" stroke="black" cx="9638.79" cy="-378" rx="68.79" ry="18"/>
<text text-anchor="middle" x="9638.79" y="-374.3" font-family="Times,serif" font-size="14.00">boss.Update</text>
</a>
</g>
</g>
<!-- boss.Update&#45;&gt;boss.DestroyEntity -->
<g id="edge38" class="edge">
<title>boss.Update&#45;&gt;boss.DestroyEntity</title>
<path fill="none" stroke="black" d="M9590.56,-364.96C9581.07,-362.99 9571.16,-361.2 9561.79,-360 8717.53,-251.85 5964.82,-208.52 5381.17,-200.44"/>
<polygon fill="black" stroke="black" points="5381.12,-196.94 5371.07,-200.3 5381.02,-203.94 5381.12,-196.94"/>
<text text-anchor="middle" x="9585.56" y="-353.76" font-family="Times,serif" font-size="14.00">1</text>
</g>
<!-- boss.func_us_8018C90C -->
<g id="node40" class="node">
<title>boss.func_us_8018C90C</title>
<g id="a_node40"><a xlink:href="boss.func_us_8018C90C.svg" xlink:title="boss.func_us_8018C90C">
<ellipse fill="green" stroke="black" cx="9848.79" cy="-378" rx="122.68" ry="18"/>
<text text-anchor="middle" x="9848.79" y="-374.3" font-family="Times,serif" font-size="14.00">boss.func_us_8018C90C</text>
</a>
</g>
</g>
<!-- boss.func_us_8018C90C&#45;&gt;boss.DestroyEntity -->
<g id="edge39" class="edge">
<title>boss.func_us_8018C90C&#45;&gt;boss.DestroyEntity</title>
<path fill="none" stroke="black" d="M9764.06,-364.92C9748.37,-363.01 9732.11,-361.26 9716.79,-360 7992.72,-218.06 5882.22,-201.25 5381.84,-199.26"/>
<polygon fill="black" stroke="black" points="5381.75,-195.76 5371.74,-199.23 5381.73,-202.76 5381.75,-195.76"/>
<text text-anchor="middle" x="9759.06" y="-353.72" font-family="Times,serif" font-size="14.00">1</text>
</g>
<!-- boss.func_us_8018CA94 -->
<g id="node41" class="node">
<title>boss.func_us_8018CA94</title>
<g id="a_node41"><a xlink:href="boss.func_us_8018CA94.svg" xlink:title="boss.func_us_8018CA94">
<ellipse fill="green" stroke="black" cx="10111.79" cy="-378" rx="122.38" ry="18"/>
<text text-anchor="middle" x="10111.79" y="-374.3" font-family="Times,serif" font-size="14.00">boss.func_us_8018CA94</text>
</a>
</g>
</g>
<!-- boss.func_us_8018CA94&#45;&gt;boss.DestroyEntity -->
<g id="edge40" class="edge">
<title>boss.func_us_8018CA94&#45;&gt;boss.DestroyEntity</title>
<path fill="none" stroke="black" d="M10027.71,-364.89C10012.14,-362.99 9995.99,-361.24 9980.79,-360 8146.84,-209.99 5900.03,-199.3 5381.91,-198.91"/>
<polygon fill="black" stroke="black" points="5381.82,-195.41 5371.82,-198.9 5381.82,-202.41 5381.82,-195.41"/>
<text text-anchor="middle" x="10022.71" y="-353.69" font-family="Times,serif" font-size="14.00">1</text>
</g>
</g>
</svg>
