<?xml version="1.0" encoding="UTF-8" standalone="no"?>
<!DOCTYPE svg PUBLIC "-//W3C//DTD SVG 1.1//EN"
 "http://www.w3.org/Graphics/SVG/1.1/DTD/svg11.dtd">
<!-- Generated by graphviz version 2.43.0 (0)
 -->
<!-- Title: boss.EntityMariaCutscene Pages: 1 -->
<svg width="3514pt" height="224pt"
 viewBox="0.00 0.00 3514.28 224.00" xmlns="http://www.w3.org/2000/svg" xmlns:xlink="http://www.w3.org/1999/xlink">
<g id="graph0" class="graph" transform="scale(1 1) rotate(0) translate(4 220)">
<title>boss.EntityMariaCutscene</title>
<polygon fill="white" stroke="transparent" points="-4,4 -4,-220 3510.28,-220 3510.28,4 -4,4"/>
<!-- boss.EntityMariaCutscene -->
<g id="node1" class="node">
<title>boss.EntityMariaCutscene</title>
<ellipse fill="red" stroke="black" cx="1679.74" cy="-198" rx="133.78" ry="18"/>
<text text-anchor="middle" x="1679.74" y="-194.3" font-family="Times,serif" font-size="14.00">boss.EntityMariaCutscene</text>
</g>
<!-- LoadTPage -->
<g id="node2" class="node">
<title>LoadTPage</title>
<g id="a_node2"><a xlink:href="LoadTPage.svg" xlink:title="LoadTPage">
<ellipse fill="lightblue" stroke="black" cx="61.74" cy="-18" rx="61.99" ry="18"/>
<text text-anchor="middle" x="61.74" y="-14.3" font-family="Times,serif" font-size="14.00">LoadTPage</text>
</a>
</g>
</g>
<!-- boss.EntityMariaCutscene&#45;&gt;LoadTPage -->
<g id="edge1" class="edge">
<title>boss.EntityMariaCutscene&#45;&gt;LoadTPage</title>
<path fill="none" stroke="black" d="M1559.65,-189.89C1298.58,-173.26 660.41,-126.23 132.74,-36 127.36,-35.08 121.77,-33.99 116.2,-32.8"/>
<polygon fill="black" stroke="black" points="116.77,-29.35 106.25,-30.6 115.26,-36.18 116.77,-29.35"/>
<text text-anchor="middle" x="101.25" y="-34.4" font-family="Times,serif" font-size="14.00">1</text>
</g>
<!-- MoveImage -->
<g id="node3" class="node">
<title>MoveImage</title>
<g id="a_node3"><a xlink:href="MoveImage.svg" xlink:title="MoveImage">
<ellipse fill="lightblue" stroke="black" cx="206.74" cy="-18" rx="64.99" ry="18"/>
<text text-anchor="middle" x="206.74" y="-14.3" font-family="Times,serif" font-size="14.00">MoveImage</text>
</a>
</g>
</g>
<!-- boss.EntityMariaCutscene&#45;&gt;MoveImage -->
<g id="edge2" class="edge">
<title>boss.EntityMariaCutscene&#45;&gt;MoveImage</title>
<path fill="none" stroke="black" d="M1566.71,-188.29C1328,-168.94 755.42,-117.58 280.74,-36 275.09,-35.03 269.21,-33.89 263.35,-32.68"/>
<polygon fill="black" stroke="black" points="264.07,-29.26 253.56,-30.58 262.61,-36.1 264.07,-29.26"/>
<text text-anchor="middle" x="248.56" y="-34.38" font-family="Times,serif" font-size="14.00">1</text>
</g>
<!-- boss.CutsceneRun -->
<g id="node4" class="node">
<title>boss.CutsceneRun</title>
<g id="a_node4"><a xlink:href="boss.CutsceneRun.svg" xlink:title="boss.CutsceneRun">
<ellipse fill="green" stroke="black" cx="385.74" cy="-18" rx="96.38" ry="18"/>
<text text-anchor="middle" x="385.74" y="-14.3" font-family="Times,serif" font-size="14.00">boss.CutsceneRun</text>
</a>
</g>
</g>
<!-- boss.EntityMariaCutscene&#45;&gt;boss.CutsceneRun -->
<g id="edge3" class="edge">
<title>boss.EntityMariaCutscene&#45;&gt;boss.CutsceneRun</title>
<path fill="none" stroke="black" d="M1585.99,-185.14C1385.02,-159.55 897.94,-96.52 490.74,-36 482.47,-34.77 473.84,-33.44 465.24,-32.09"/>
<polygon fill="black" stroke="black" points="465.6,-28.61 455.18,-30.5 464.51,-35.52 465.6,-28.61"/>
<text text-anchor="middle" x="450.18" y="-34.3" font-family="Times,serif" font-size="14.00">1</text>
</g>
<!-- boss.CutsceneUnk1 -->
<g id="node5" class="node">
<title>boss.CutsceneUnk1</title>
<g id="a_node5"><a xlink:href="boss.CutsceneUnk1.svg" xlink:title="boss.CutsceneUnk1">
<ellipse fill="green" stroke="black" cx="602.74" cy="-18" rx="102.88" ry="18"/>
<text text-anchor="middle" x="602.74" y="-14.3" font-family="Times,serif" font-size="14.00">boss.CutsceneUnk1</text>
</a>
</g>
</g>
<!-- boss.EntityMariaCutscene&#45;&gt;boss.CutsceneUnk1 -->
<g id="edge4" class="edge">
<title>boss.EntityMariaCutscene&#45;&gt;boss.CutsceneUnk1</title>
<path fill="none" stroke="black" d="M1598.79,-183.62C1399.15,-150.62 884.93,-65.64 684.47,-32.51"/>
<polygon fill="black" stroke="black" points="685.03,-29.05 674.59,-30.87 683.89,-35.96 685.03,-29.05"/>
<text text-anchor="middle" x="669.59" y="-34.67" font-family="Times,serif" font-size="14.00">1</text>
</g>
<!-- boss.CutsceneUnk2 -->
<g id="node6" class="node">
<title>boss.CutsceneUnk2</title>
<g id="a_node6"><a xlink:href="boss.CutsceneUnk2.svg" xlink:title="boss.CutsceneUnk2">
<ellipse fill="green" stroke="black" cx="825.74" cy="-18" rx="102.88" ry="18"/>
<text text-anchor="middle" x="825.74" y="-14.3" font-family="Times,serif" font-size="14.00">boss.CutsceneUnk2</text>
</a>
</g>
</g>
<!-- boss.EntityMariaCutscene&#45;&gt;boss.CutsceneUnk2 -->
<g id="edge5" class="edge">
<title>boss.EntityMariaCutscene&#45;&gt;boss.CutsceneUnk2</title>
<path fill="none" stroke="black" d="M1610.58,-182.58C1451.7,-149.47 1061.83,-68.21 899.03,-34.27"/>
<polygon fill="black" stroke="black" points="899.61,-30.82 889.11,-32.21 898.18,-37.67 899.61,-30.82"/>
<text text-anchor="middle" x="884.11" y="-36.01" font-family="Times,serif" font-size="14.00">1</text>
</g>
<!-- boss.DestroyEntity -->
<g id="node7" class="node">
<title>boss.DestroyEntity</title>
<g id="a_node7"><a xlink:href="boss.DestroyEntity.svg" xlink:title="boss.DestroyEntity">
<ellipse fill="green" stroke="black" cx="1046.74" cy="-18" rx="100.18" ry="18"/>
<text text-anchor="middle" x="1046.74" y="-14.3" font-family="Times,serif" font-size="14.00">boss.DestroyEntity</text>
</a>
</g>
</g>
<!-- boss.EntityMariaCutscene&#45;&gt;boss.DestroyEntity -->
<g id="edge6" class="edge">
<title>boss.EntityMariaCutscene&#45;&gt;boss.DestroyEntity</title>
<path fill="none" stroke="black" d="M1624.68,-181.52C1506.8,-148.37 1230.79,-70.75 1107.78,-36.16"/>
<polygon fill="black" stroke="black" points="1108.7,-32.79 1098.13,-33.45 1106.81,-39.53 1108.7,-32.79"/>
<text text-anchor="middle" x="1093.13" y="-37.25" font-family="Times,serif" font-size="14.00">1</text>
</g>
<!-- boss.func_us_8018B238 -->
<g id="node8" class="node">
<title>boss.func_us_8018B238</title>
<g id="a_node8"><a xlink:href="boss.func_us_8018B238.svg" xlink:title="boss.func_us_8018B238">
<ellipse fill="red" stroke="black" cx="1286.74" cy="-18" rx="122.38" ry="18"/>
<text text-anchor="middle" x="1286.74" y="-14.3" font-family="Times,serif" font-size="14.00">boss.func_us_8018B238</text>
</a>
</g>
</g>
<!-- boss.EntityMariaCutscene&#45;&gt;boss.func_us_8018B238 -->
<g id="edge7" class="edge">
<title>boss.EntityMariaCutscene&#45;&gt;boss.func_us_8018B238</title>
<path fill="none" stroke="black" d="M1643.48,-180.57C1571.44,-147.95 1410.51,-75.06 1331.82,-39.42"/>
<polygon fill="black" stroke="black" points="1333.19,-36.2 1322.64,-35.26 1330.31,-42.57 1333.19,-36.2"/>
<text text-anchor="middle" x="1317.64" y="-39.06" font-family="Times,serif" font-size="14.00">2</text>
</g>
<!-- boss.func_us_8018B2F0 -->
<g id="node9" class="node">
<title>boss.func_us_8018B2F0</title>
<g id="a_node9"><a xlink:href="boss.func_us_8018B2F0.svg" xlink:title="boss.func_us_8018B2F0">
<ellipse fill="red" stroke="black" cx="1548.74" cy="-18" rx="122.38" ry="18"/>
<text text-anchor="middle" x="1548.74" y="-14.3" font-family="Times,serif" font-size="14.00">boss.func_us_8018B2F0</text>
</a>
</g>
</g>
<!-- boss.EntityMariaCutscene&#45;&gt;boss.func_us_8018B2F0 -->
<g id="edge8" class="edge">
<title>boss.EntityMariaCutscene&#45;&gt;boss.func_us_8018B2F0</title>
<path fill="none" stroke="black" d="M1667.18,-179.93C1644,-148.43 1594.4,-81.03 1567.32,-44.24"/>
<polygon fill="black" stroke="black" points="1570.01,-42 1561.27,-36.02 1564.38,-46.14 1570.01,-42"/>
<text text-anchor="middle" x="1556.27" y="-39.82" font-family="Times,serif" font-size="14.00">1</text>
</g>
<!-- boss.func_us_8018B474 -->
<g id="node10" class="node">
<title>boss.func_us_8018B474</title>
<g id="a_node10"><a xlink:href="boss.func_us_8018B474.svg" xlink:title="boss.func_us_8018B474">
<ellipse fill="red" stroke="black" cx="1810.74" cy="-18" rx="122.38" ry="18"/>
<text text-anchor="middle" x="1810.74" y="-14.3" font-family="Times,serif" font-size="14.00">boss.func_us_8018B474</text>
</a>
</g>
</g>
<!-- boss.EntityMariaCutscene&#45;&gt;boss.func_us_8018B474 -->
<g id="edge9" class="edge">
<title>boss.EntityMariaCutscene&#45;&gt;boss.func_us_8018B474</title>
<path fill="none" stroke="black" d="M1692.31,-179.93C1715.49,-148.43 1765.09,-81.03 1792.17,-44.24"/>
<polygon fill="black" stroke="black" points="1795.11,-46.14 1798.22,-36.02 1789.48,-42 1795.11,-46.14"/>
<text text-anchor="middle" x="1793.22" y="-39.82" font-family="Times,serif" font-size="14.00">1</text>
</g>
<!-- boss.func_us_8018B74C -->
<g id="node11" class="node">
<title>boss.func_us_8018B74C</title>
<g id="a_node11"><a xlink:href="boss.func_us_8018B74C.svg" xlink:title="boss.func_us_8018B74C">
<ellipse fill="red" stroke="black" cx="2073.74" cy="-18" rx="122.68" ry="18"/>
<text text-anchor="middle" x="2073.74" y="-14.3" font-family="Times,serif" font-size="14.00">boss.func_us_8018B74C</text>
</a>
</g>
</g>
<!-- boss.EntityMariaCutscene&#45;&gt;boss.func_us_8018B74C -->
<g id="edge10" class="edge">
<title>boss.EntityMariaCutscene&#45;&gt;boss.func_us_8018B74C</title>
<path fill="none" stroke="black" d="M1716.1,-180.57C1788.32,-147.95 1949.66,-75.06 2028.56,-39.42"/>
<polygon fill="black" stroke="black" points="2030.08,-42.57 2037.76,-35.26 2027.2,-36.19 2030.08,-42.57"/>
<text text-anchor="middle" x="2032.76" y="-39.06" font-family="Times,serif" font-size="14.00">1</text>
</g>
<!-- dra.AllocPrimitives -->
<g id="node12" class="node">
<title>dra.AllocPrimitives</title>
<g id="a_node12"><a xlink:href="dra.AllocPrimitives.svg" xlink:title="dra.AllocPrimitives">
<ellipse fill="green" stroke="black" cx="2313.74" cy="-18" rx="99.38" ry="18"/>
<text text-anchor="middle" x="2313.74" y="-14.3" font-family="Times,serif" font-size="14.00">dra.AllocPrimitives</text>
</a>
</g>
</g>
<!-- boss.EntityMariaCutscene&#45;&gt;dra.AllocPrimitives -->
<g id="edge11" class="edge">
<title>boss.EntityMariaCutscene&#45;&gt;dra.AllocPrimitives</title>
<path fill="none" stroke="black" d="M1734.9,-181.52C1852.96,-148.37 2129.41,-70.75 2252.61,-36.16"/>
<polygon fill="black" stroke="black" points="2253.6,-39.52 2262.28,-33.45 2251.71,-32.78 2253.6,-39.52"/>
<text text-anchor="middle" x="2257.28" y="-37.25" font-family="Times,serif" font-size="14.00">1</text>
</g>
<!-- dra.FreePrimitives -->
<g id="node13" class="node">
<title>dra.FreePrimitives</title>
<g id="a_node13"><a xlink:href="dra.FreePrimitives.svg" xlink:title="dra.FreePrimitives">
<ellipse fill="green" stroke="black" cx="2529.74" cy="-18" rx="98.58" ry="18"/>
<text text-anchor="middle" x="2529.74" y="-14.3" font-family="Times,serif" font-size="14.00">dra.FreePrimitives</text>
</a>
</g>
</g>
<!-- boss.EntityMariaCutscene&#45;&gt;dra.FreePrimitives -->
<g id="edge12" class="edge">
<title>boss.EntityMariaCutscene&#45;&gt;dra.FreePrimitives</title>
<path fill="none" stroke="black" d="M1748.94,-182.51C1907.63,-149.28 2296.44,-67.86 2457.77,-34.07"/>
<polygon fill="black" stroke="black" points="2458.53,-37.49 2467.6,-32.01 2457.1,-30.64 2458.53,-37.49"/>
<text text-anchor="middle" x="2462.6" y="-35.81" font-family="Times,serif" font-size="14.00">2</text>
</g>
<!-- dra.PlaySfx -->
<g id="node14" class="node">
<title>dra.PlaySfx</title>
<g id="a_node14"><a xlink:href="dra.PlaySfx.svg" xlink:title="dra.PlaySfx">
<ellipse fill="green" stroke="black" cx="2710.74" cy="-18" rx="64.19" ry="18"/>
<text text-anchor="middle" x="2710.74" y="-14.3" font-family="Times,serif" font-size="14.00">dra.PlaySfx</text>
</a>
</g>
</g>
<!-- boss.EntityMariaCutscene&#45;&gt;dra.PlaySfx -->
<g id="edge13" class="edge">
<title>boss.EntityMariaCutscene&#45;&gt;dra.PlaySfx</title>
<path fill="none" stroke="black" d="M1766.6,-184.26C1935.16,-159.12 2318.17,-100 2637.74,-36 2643.01,-34.95 2648.47,-33.79 2653.93,-32.59"/>
<polygon fill="black" stroke="black" points="2654.72,-36 2663.72,-30.41 2653.19,-29.17 2654.72,-36"/>
<text text-anchor="middle" x="2658.72" y="-34.21" font-family="Times,serif" font-size="14.00">2</text>
</g>
<!-- dra.TimeAttackController -->
<g id="node15" class="node">
<title>dra.TimeAttackController</title>
<g id="a_node15"><a xlink:href="dra.TimeAttackController.svg" xlink:title="dra.TimeAttackController">
<ellipse fill="green" stroke="black" cx="2922.74" cy="-18" rx="129.18" ry="18"/>
<text text-anchor="middle" x="2922.74" y="-14.3" font-family="Times,serif" font-size="14.00">dra.TimeAttackController</text>
</a>
</g>
</g>
<!-- boss.EntityMariaCutscene&#45;&gt;dra.TimeAttackController -->
<g id="edge14" class="edge">
<title>boss.EntityMariaCutscene&#45;&gt;dra.TimeAttackController</title>
<path fill="none" stroke="black" d="M1767.65,-184.41C1993.08,-152.13 2590.55,-66.57 2825.7,-32.9"/>
<polygon fill="black" stroke="black" points="2826.54,-36.31 2835.94,-31.43 2825.55,-29.38 2826.54,-36.31"/>
<text text-anchor="middle" x="2830.94" y="-35.23" font-family="Times,serif" font-size="14.00">1</text>
</g>
<!-- dra.func_80131F68 -->
<g id="node16" class="node">
<title>dra.func_80131F68</title>
<g id="a_node16"><a xlink:href="dra.func_80131F68.svg" xlink:title="dra.func_80131F68">
<ellipse fill="green" stroke="black" cx="3170.74" cy="-18" rx="100.98" ry="18"/>
<text text-anchor="middle" x="3170.74" y="-14.3" font-family="Times,serif" font-size="14.00">dra.func_80131F68</text>
</a>
</g>
</g>
<!-- boss.EntityMariaCutscene&#45;&gt;dra.func_80131F68 -->
<g id="edge15" class="edge">
<title>boss.EntityMariaCutscene&#45;&gt;dra.func_80131F68</title>
<path fill="none" stroke="black" d="M1782.12,-186.38C2011.42,-162.32 2583.55,-100.67 3060.74,-36 3069.67,-34.79 3079,-33.46 3088.28,-32.09"/>
<polygon fill="black" stroke="black" points="3088.94,-35.53 3098.32,-30.59 3087.91,-28.6 3088.94,-35.53"/>
<text text-anchor="middle" x="3093.32" y="-34.39" font-family="Times,serif" font-size="14.00">2</text>
</g>
<!-- g_api_FreePrimitives -->
<g id="node17" class="node">
<title>g_api_FreePrimitives</title>
<g id="a_node17"><a xlink:href="g_api_FreePrimitives.svg" xlink:title="g_api_FreePrimitives">
<ellipse fill="lightblue" stroke="black" cx="3397.74" cy="-18" rx="108.58" ry="18"/>
<text text-anchor="middle" x="3397.74" y="-14.3" font-family="Times,serif" font-size="14.00">g_api_FreePrimitives</text>
</a>
</g>
</g>
<!-- boss.EntityMariaCutscene&#45;&gt;g_api_FreePrimitives -->
<g id="edge16" class="edge">
<title>boss.EntityMariaCutscene&#45;&gt;g_api_FreePrimitives</title>
<path fill="none" stroke="black" d="M1789.6,-187.63C2049.31,-165.12 2721.36,-104.73 3280.74,-36 3290.45,-34.81 3300.59,-33.47 3310.67,-32.08"/>
<polygon fill="black" stroke="black" points="3311.29,-35.53 3320.71,-30.68 3310.33,-28.6 3311.29,-35.53"/>
<text text-anchor="middle" x="3315.71" y="-34.48" font-family="Times,serif" font-size="14.00">3</text>
</g>
</g>
</svg>
