<?xml version="1.0" encoding="UTF-8" standalone="no"?>
<!DOCTYPE svg PUBLIC "-//W3C//DTD SVG 1.1//EN"
 "http://www.w3.org/Graphics/SVG/1.1/DTD/svg11.dtd">
<!-- Generated by graphviz version 2.43.0 (0)
 -->
<!-- Title: boss.EntityUnkId12 Pages: 1 -->
<svg width="458pt" height="224pt"
 viewBox="0.00 0.00 458.43 224.00" xmlns="http://www.w3.org/2000/svg" xmlns:xlink="http://www.w3.org/1999/xlink">
<g id="graph0" class="graph" transform="scale(1 1) rotate(0) translate(4 220)">
<title>boss.EntityUnkId12</title>
<polygon fill="white" stroke="transparent" points="-4,4 -4,-220 454.43,-220 454.43,4 -4,4"/>
<!-- boss.EntityUnkId12 -->
<g id="node1" class="node">
<title>boss.EntityUnkId12</title>
<ellipse fill="green" stroke="black" cx="229.44" cy="-198" rx="103.18" ry="18"/>
<text text-anchor="middle" x="229.44" y="-194.3" font-family="Times,serif" font-size="14.00">boss.EntityUnkId12</text>
</g>
<!-- boss.GetSideToPlayer -->
<g id="node2" class="node">
<title>boss.GetSideToPlayer</title>
<g id="a_node2"><a xlink:href="boss.GetSideToPlayer.svg" xlink:title="boss.GetSideToPlayer">
<ellipse fill="green" stroke="black" cx="112.44" cy="-18" rx="112.38" ry="18"/>
<text text-anchor="middle" x="112.44" y="-14.3" font-family="Times,serif" font-size="14.00">boss.GetSideToPlayer</text>
</a>
</g>
</g>
<!-- boss.EntityUnkId12&#45;&gt;boss.GetSideToPlayer -->
<g id="edge1" class="edge">
<title>boss.EntityUnkId12&#45;&gt;boss.GetSideToPlayer</title>
<path fill="none" stroke="black" d="M218.22,-179.93C197.61,-148.57 153.59,-81.6 129.34,-44.71"/>
<polygon fill="black" stroke="black" points="132.04,-42.45 123.62,-36.02 126.19,-46.29 132.04,-42.45"/>
<text text-anchor="middle" x="118.62" y="-39.82" font-family="Times,serif" font-size="14.00">1</text>
</g>
<!-- boss.InitializeEntity -->
<g id="node3" class="node">
<title>boss.InitializeEntity</title>
<g id="a_node3"><a xlink:href="boss.InitializeEntity.svg" xlink:title="boss.InitializeEntity">
<ellipse fill="green" stroke="black" cx="346.44" cy="-18" rx="103.98" ry="18"/>
<text text-anchor="middle" x="346.44" y="-14.3" font-family="Times,serif" font-size="14.00">boss.InitializeEntity</text>
</a>
</g>
</g>
<!-- boss.EntityUnkId12&#45;&gt;boss.InitializeEntity -->
<g id="edge2" class="edge">
<title>boss.EntityUnkId12&#45;&gt;boss.InitializeEntity</title>
<path fill="none" stroke="black" d="M240.66,-179.93C261.27,-148.57 305.29,-81.6 329.54,-44.71"/>
<polygon fill="black" stroke="black" points="332.69,-46.29 335.26,-36.02 326.84,-42.45 332.69,-46.29"/>
<text text-anchor="middle" x="330.26" y="-39.82" font-family="Times,serif" font-size="14.00">1</text>
</g>
</g>
</svg>
