<?xml version="1.0" encoding="UTF-8" standalone="no"?>
<!DOCTYPE svg PUBLIC "-//W3C//DTD SVG 1.1//EN"
 "http://www.w3.org/Graphics/SVG/1.1/DTD/svg11.dtd">
<!-- Generated by graphviz version 2.43.0 (0)
 -->
<!-- Title: boss.StageNamePopupHelper Pages: 1 -->
<svg width="310pt" height="404pt"
 viewBox="0.00 0.00 309.57 404.00" xmlns="http://www.w3.org/2000/svg" xmlns:xlink="http://www.w3.org/1999/xlink">
<g id="graph0" class="graph" transform="scale(1 1) rotate(0) translate(4 400)">
<title>boss.StageNamePopupHelper</title>
<polygon fill="white" stroke="transparent" points="-4,4 -4,-400 305.57,-400 305.57,4 -4,4"/>
<!-- boss.StageNamePopupHelper -->
<g id="node1" class="node">
<title>boss.StageNamePopupHelper</title>
<ellipse fill="green" stroke="black" cx="150.79" cy="-198" rx="149.47" ry="18"/>
<text text-anchor="middle" x="150.79" y="-194.3" font-family="Times,serif" font-size="14.00">boss.StageNamePopupHelper</text>
</g>
<!-- boss.PrimDecreaseBrightness -->
<g id="node2" class="node">
<title>boss.PrimDecreaseBrightness</title>
<g id="a_node2"><a xlink:href="boss.PrimDecreaseBrightness.svg" xlink:title="boss.PrimDecreaseBrightness">
<ellipse fill="green" stroke="black" cx="150.79" cy="-18" rx="150.57" ry="18"/>
<text text-anchor="middle" x="150.79" y="-14.3" font-family="Times,serif" font-size="14.00">boss.PrimDecreaseBrightness</text>
</a>
</g>
</g>
<!-- boss.StageNamePopupHelper&#45;&gt;boss.PrimDecreaseBrightness -->
<g id="edge1" class="edge">
<title>boss.StageNamePopupHelper&#45;&gt;boss.PrimDecreaseBrightness</title>
<path fill="none" stroke="black" d="M150.79,-179.93C150.79,-148.97 150.79,-83.3 150.79,-46.13"/>
<polygon fill="black" stroke="black" points="154.29,-46.02 150.79,-36.02 147.29,-46.02 154.29,-46.02"/>
<text text-anchor="middle" x="145.79" y="-39.82" font-family="Times,serif" font-size="14.00">1</text>
</g>
<!-- boss.EntityStageNamePopup -->
<g id="node3" class="node">
<title>boss.EntityStageNamePopup</title>
<g id="a_node3"><a xlink:href="boss.EntityStageNamePopup.svg" xlink:title="boss.EntityStageNamePopup">
<ellipse fill="green" stroke="black" cx="150.79" cy="-378" rx="146.47" ry="18"/>
<text text-anchor="middle" x="150.79" y="-374.3" font-family="Times,serif" font-size="14.00">boss.EntityStageNamePopup</text>
</a>
</g>
</g>
<!-- boss.EntityStageNamePopup&#45;&gt;boss.StageNamePopupHelper -->
<g id="edge2" class="edge">
<title>boss.EntityStageNamePopup&#45;&gt;boss.StageNamePopupHelper</title>
<path fill="none" stroke="black" d="M150.79,-359.93C150.79,-328.97 150.79,-263.3 150.79,-226.13"/>
<polygon fill="black" stroke="black" points="154.29,-226.02 150.79,-216.02 147.29,-226.02 154.29,-226.02"/>
<text text-anchor="middle" x="145.79" y="-348.73" font-family="Times,serif" font-size="14.00">2</text>
</g>
</g>
</svg>
