<?xml version="1.0" encoding="UTF-8" standalone="no"?>
<!DOCTYPE svg PUBLIC "-//W3C//DTD SVG 1.1//EN"
 "http://www.w3.org/Graphics/SVG/1.1/DTD/svg11.dtd">
<!-- Generated by graphviz version 2.43.0 (0)
 -->
<!-- Title: boss.CheckFieldCollision Pages: 1 -->
<svg width="518pt" height="404pt"
 viewBox="0.00 0.00 517.68 404.00" xmlns="http://www.w3.org/2000/svg" xmlns:xlink="http://www.w3.org/1999/xlink">
<g id="graph0" class="graph" transform="scale(1 1) rotate(0) translate(4 400)">
<title>boss.CheckFieldCollision</title>
<polygon fill="white" stroke="transparent" points="-4,4 -4,-400 513.68,-400 513.68,4 -4,4"/>
<!-- boss.CheckFieldCollision -->
<g id="node1" class="node">
<title>boss.CheckFieldCollision</title>
<ellipse fill="green" stroke="black" cx="267.19" cy="-198" rx="126.18" ry="18"/>
<text text-anchor="middle" x="267.19" y="-194.3" font-family="Times,serif" font-size="14.00">boss.CheckFieldCollision</text>
</g>
<!-- dra.CheckCollision -->
<g id="node2" class="node">
<title>dra.CheckCollision</title>
<g id="a_node2"><a xlink:href="dra.CheckCollision.svg" xlink:title="dra.CheckCollision">
<ellipse fill="green" stroke="black" cx="267.19" cy="-18" rx="97.48" ry="18"/>
<text text-anchor="middle" x="267.19" y="-14.3" font-family="Times,serif" font-size="14.00">dra.CheckCollision</text>
</a>
</g>
</g>
<!-- boss.CheckFieldCollision&#45;&gt;dra.CheckCollision -->
<g id="edge1" class="edge">
<title>boss.CheckFieldCollision&#45;&gt;dra.CheckCollision</title>
<path fill="none" stroke="black" d="M267.19,-179.93C267.19,-148.97 267.19,-83.3 267.19,-46.13"/>
<polygon fill="black" stroke="black" points="270.69,-46.02 267.19,-36.02 263.69,-46.02 270.69,-46.02"/>
<text text-anchor="middle" x="262.19" y="-39.82" font-family="Times,serif" font-size="14.00">1</text>
</g>
<!-- boss.EntityEquipItemDrop -->
<g id="node3" class="node">
<title>boss.EntityEquipItemDrop</title>
<g id="a_node3"><a xlink:href="boss.EntityEquipItemDrop.svg" xlink:title="boss.EntityEquipItemDrop">
<ellipse fill="green" stroke="black" cx="135.19" cy="-378" rx="135.38" ry="18"/>
<text text-anchor="middle" x="135.19" y="-374.3" font-family="Times,serif" font-size="14.00">boss.EntityEquipItemDrop</text>
</a>
</g>
</g>
<!-- boss.EntityEquipItemDrop&#45;&gt;boss.CheckFieldCollision -->
<g id="edge2" class="edge">
<title>boss.EntityEquipItemDrop&#45;&gt;boss.CheckFieldCollision</title>
<path fill="none" stroke="black" d="M147.84,-359.93C171.2,-328.43 221.19,-261.03 248.47,-224.24"/>
<polygon fill="black" stroke="black" points="251.42,-226.13 254.57,-216.02 245.8,-221.96 251.42,-226.13"/>
<text text-anchor="middle" x="142.84" y="-348.73" font-family="Times,serif" font-size="14.00">1</text>
</g>
<!-- boss.EntityPrizeDrop -->
<g id="node4" class="node">
<title>boss.EntityPrizeDrop</title>
<g id="a_node4"><a xlink:href="boss.EntityPrizeDrop.svg" xlink:title="boss.EntityPrizeDrop">
<ellipse fill="green" stroke="black" cx="399.19" cy="-378" rx="110.48" ry="18"/>
<text text-anchor="middle" x="399.19" y="-374.3" font-family="Times,serif" font-size="14.00">boss.EntityPrizeDrop</text>
</a>
</g>
</g>
<!-- boss.EntityPrizeDrop&#45;&gt;boss.CheckFieldCollision -->
<g id="edge3" class="edge">
<title>boss.EntityPrizeDrop&#45;&gt;boss.CheckFieldCollision</title>
<path fill="none" stroke="black" d="M386.53,-359.93C363.17,-328.43 313.19,-261.03 285.91,-224.24"/>
<polygon fill="black" stroke="black" points="288.57,-221.96 279.81,-216.02 282.95,-226.13 288.57,-221.96"/>
<text text-anchor="middle" x="381.53" y="-348.73" font-family="Times,serif" font-size="14.00">2</text>
</g>
</g>
</svg>
