<?xml version="1.0" encoding="UTF-8" standalone="no"?>
<!DOCTYPE svg PUBLIC "-//W3C//DTD SVG 1.1//EN"
 "http://www.w3.org/Graphics/SVG/1.1/DTD/svg11.dtd">
<!-- Generated by graphviz version 2.43.0 (0)
 -->
<!-- Title: cat.EntityEquipItemDrop Pages: 1 -->
<svg width="3238pt" height="224pt"
 viewBox="0.00 0.00 3237.79 224.00" xmlns="http://www.w3.org/2000/svg" xmlns:xlink="http://www.w3.org/1999/xlink">
<g id="graph0" class="graph" transform="scale(1 1) rotate(0) translate(4 220)">
<title>cat.EntityEquipItemDrop</title>
<polygon fill="white" stroke="transparent" points="-4,4 -4,-220 3233.79,-220 3233.79,4 -4,4"/>
<!-- cat.EntityEquipItemDrop -->
<g id="node1" class="node">
<title>cat.EntityEquipItemDrop</title>
<ellipse fill="green" stroke="black" cx="1654.44" cy="-198" rx="128.08" ry="18"/>
<text text-anchor="middle" x="1654.44" y="-194.3" font-family="Times,serif" font-size="14.00">cat.EntityEquipItemDrop</text>
</g>
<!-- cat.BlinkItem -->
<g id="node2" class="node">
<title>cat.BlinkItem</title>
<g id="a_node2"><a xlink:href="cat.BlinkItem.svg" xlink:title="cat.BlinkItem">
<ellipse fill="green" stroke="black" cx="73.44" cy="-18" rx="73.39" ry="18"/>
<text text-anchor="middle" x="73.44" y="-14.3" font-family="Times,serif" font-size="14.00">cat.BlinkItem</text>
</a>
</g>
</g>
<!-- cat.EntityEquipItemDrop&#45;&gt;cat.BlinkItem -->
<g id="edge1" class="edge">
<title>cat.EntityEquipItemDrop&#45;&gt;cat.BlinkItem</title>
<path fill="none" stroke="black" d="M1544.03,-188.75C1295.33,-169.36 672.7,-116.43 156.44,-36 149.9,-34.98 143.09,-33.79 136.32,-32.53"/>
<polygon fill="black" stroke="black" points="136.92,-29.08 126.44,-30.64 135.6,-35.96 136.92,-29.08"/>
<text text-anchor="middle" x="121.44" y="-34.44" font-family="Times,serif" font-size="14.00">1</text>
</g>
<!-- cat.BottomCornerText -->
<g id="node3" class="node">
<title>cat.BottomCornerText</title>
<g id="a_node3"><a xlink:href="cat.BottomCornerText.svg" xlink:title="cat.BottomCornerText">
<ellipse fill="green" stroke="black" cx="279.44" cy="-18" rx="114.28" ry="18"/>
<text text-anchor="middle" x="279.44" y="-14.3" font-family="Times,serif" font-size="14.00">cat.BottomCornerText</text>
</a>
</g>
</g>
<!-- cat.EntityEquipItemDrop&#45;&gt;cat.BottomCornerText -->
<g id="edge2" class="edge">
<title>cat.EntityEquipItemDrop&#45;&gt;cat.BottomCornerText</title>
<path fill="none" stroke="black" d="M1562.13,-185.43C1354.73,-159.38 836.08,-93.85 402.44,-36 392.48,-34.67 382.08,-33.26 371.71,-31.85"/>
<polygon fill="black" stroke="black" points="372.18,-28.38 361.8,-30.49 371.23,-35.32 372.18,-28.38"/>
<text text-anchor="middle" x="356.8" y="-34.29" font-family="Times,serif" font-size="14.00">1</text>
</g>
<!-- cat.CheckFieldCollision -->
<g id="node4" class="node">
<title>cat.CheckFieldCollision</title>
<g id="a_node4"><a xlink:href="cat.CheckFieldCollision.svg" xlink:title="cat.CheckFieldCollision">
<ellipse fill="green" stroke="black" cx="531.44" cy="-18" rx="119.68" ry="18"/>
<text text-anchor="middle" x="531.44" y="-14.3" font-family="Times,serif" font-size="14.00">cat.CheckFieldCollision</text>
</a>
</g>
</g>
<!-- cat.EntityEquipItemDrop&#45;&gt;cat.CheckFieldCollision -->
<g id="edge3" class="edge">
<title>cat.EntityEquipItemDrop&#45;&gt;cat.CheckFieldCollision</title>
<path fill="none" stroke="black" d="M1572.78,-184.06C1367.93,-151.59 833.52,-66.88 620.74,-33.15"/>
<polygon fill="black" stroke="black" points="620.98,-29.65 610.55,-31.54 619.88,-36.56 620.98,-29.65"/>
<text text-anchor="middle" x="605.55" y="-35.34" font-family="Times,serif" font-size="14.00">1</text>
</g>
<!-- cat.DestroyEntity -->
<g id="node5" class="node">
<title>cat.DestroyEntity</title>
<g id="a_node5"><a xlink:href="cat.DestroyEntity.svg" xlink:title="cat.DestroyEntity">
<ellipse fill="green" stroke="black" cx="762.44" cy="-18" rx="92.88" ry="18"/>
<text text-anchor="middle" x="762.44" y="-14.3" font-family="Times,serif" font-size="14.00">cat.DestroyEntity</text>
</a>
</g>
</g>
<!-- cat.EntityEquipItemDrop&#45;&gt;cat.DestroyEntity -->
<g id="edge4" class="edge">
<title>cat.EntityEquipItemDrop&#45;&gt;cat.DestroyEntity</title>
<path fill="none" stroke="black" d="M1584.08,-182.96C1417.98,-149.81 1002.91,-66.98 834.82,-33.44"/>
<polygon fill="black" stroke="black" points="835.32,-29.97 824.83,-31.45 833.95,-36.84 835.32,-29.97"/>
<text text-anchor="middle" x="819.83" y="-35.25" font-family="Times,serif" font-size="14.00">2</text>
</g>
<!-- cat.EntityPrizeDrop -->
<g id="node6" class="node">
<title>cat.EntityPrizeDrop</title>
<g id="a_node6"><a xlink:href="cat.EntityPrizeDrop.svg" xlink:title="cat.EntityPrizeDrop">
<ellipse fill="green" stroke="black" cx="976.44" cy="-18" rx="103.18" ry="18"/>
<text text-anchor="middle" x="976.44" y="-14.3" font-family="Times,serif" font-size="14.00">cat.EntityPrizeDrop</text>
</a>
</g>
</g>
<!-- cat.EntityEquipItemDrop&#45;&gt;cat.EntityPrizeDrop -->
<g id="edge5" class="edge">
<title>cat.EntityEquipItemDrop&#45;&gt;cat.EntityPrizeDrop</title>
<path fill="none" stroke="black" d="M1596.93,-181.9C1471.35,-148.93 1173.3,-70.68 1041.29,-36.02"/>
<polygon fill="black" stroke="black" points="1041.88,-32.56 1031.32,-33.41 1040.1,-39.33 1041.88,-32.56"/>
<text text-anchor="middle" x="1026.32" y="-37.21" font-family="Times,serif" font-size="14.00">1</text>
</g>
<!-- cat.FallEntity -->
<g id="node7" class="node">
<title>cat.FallEntity</title>
<g id="a_node7"><a xlink:href="cat.FallEntity.svg" xlink:title="cat.FallEntity">
<ellipse fill="green" stroke="black" cx="1171.44" cy="-18" rx="73.39" ry="18"/>
<text text-anchor="middle" x="1171.44" y="-14.3" font-family="Times,serif" font-size="14.00">cat.FallEntity</text>
</a>
</g>
</g>
<!-- cat.EntityEquipItemDrop&#45;&gt;cat.FallEntity -->
<g id="edge6" class="edge">
<title>cat.EntityEquipItemDrop&#45;&gt;cat.FallEntity</title>
<path fill="none" stroke="black" d="M1611.16,-181.05C1521.14,-147.87 1314.33,-71.66 1219.97,-36.88"/>
<polygon fill="black" stroke="black" points="1220.98,-33.53 1210.39,-33.35 1218.56,-40.09 1220.98,-33.53"/>
<text text-anchor="middle" x="1205.39" y="-37.15" font-family="Times,serif" font-size="14.00">1</text>
</g>
<!-- cat.InitializeEntity -->
<g id="node8" class="node">
<title>cat.InitializeEntity</title>
<g id="a_node8"><a xlink:href="cat.InitializeEntity.svg" xlink:title="cat.InitializeEntity">
<ellipse fill="green" stroke="black" cx="1359.44" cy="-18" rx="96.68" ry="18"/>
<text text-anchor="middle" x="1359.44" y="-14.3" font-family="Times,serif" font-size="14.00">cat.InitializeEntity</text>
</a>
</g>
</g>
<!-- cat.EntityEquipItemDrop&#45;&gt;cat.InitializeEntity -->
<g id="edge7" class="edge">
<title>cat.EntityEquipItemDrop&#45;&gt;cat.InitializeEntity</title>
<path fill="none" stroke="black" d="M1626.96,-180.41C1573.35,-148.07 1454.9,-76.6 1395.25,-40.6"/>
<polygon fill="black" stroke="black" points="1396.91,-37.52 1386.54,-35.35 1393.3,-43.51 1396.91,-37.52"/>
<text text-anchor="middle" x="1381.54" y="-39.15" font-family="Times,serif" font-size="14.00">1</text>
</g>
<!-- cat.MoveEntity -->
<g id="node9" class="node">
<title>cat.MoveEntity</title>
<g id="a_node9"><a xlink:href="cat.MoveEntity.svg" xlink:title="cat.MoveEntity">
<ellipse fill="green" stroke="black" cx="1556.44" cy="-18" rx="81.79" ry="18"/>
<text text-anchor="middle" x="1556.44" y="-14.3" font-family="Times,serif" font-size="14.00">cat.MoveEntity</text>
</a>
</g>
</g>
<!-- cat.EntityEquipItemDrop&#45;&gt;cat.MoveEntity -->
<g id="edge8" class="edge">
<title>cat.EntityEquipItemDrop&#45;&gt;cat.MoveEntity</title>
<path fill="none" stroke="black" d="M1645.05,-179.93C1627.85,-148.7 1591.22,-82.17 1570.86,-45.18"/>
<polygon fill="black" stroke="black" points="1573.7,-43.09 1565.81,-36.02 1567.57,-46.46 1573.7,-43.09"/>
<text text-anchor="middle" x="1560.81" y="-39.82" font-family="Times,serif" font-size="14.00">1</text>
</g>
<!-- cat.PrizeDropFall2 -->
<g id="node10" class="node">
<title>cat.PrizeDropFall2</title>
<g id="a_node10"><a xlink:href="cat.PrizeDropFall2.svg" xlink:title="cat.PrizeDropFall2">
<ellipse fill="green" stroke="black" cx="1753.44" cy="-18" rx="97.48" ry="18"/>
<text text-anchor="middle" x="1753.44" y="-14.3" font-family="Times,serif" font-size="14.00">cat.PrizeDropFall2</text>
</a>
</g>
</g>
<!-- cat.EntityEquipItemDrop&#45;&gt;cat.PrizeDropFall2 -->
<g id="edge9" class="edge">
<title>cat.EntityEquipItemDrop&#45;&gt;cat.PrizeDropFall2</title>
<path fill="none" stroke="black" d="M1663.94,-179.93C1681.31,-148.7 1718.31,-82.17 1738.88,-45.18"/>
<polygon fill="black" stroke="black" points="1742.18,-46.46 1743.98,-36.02 1736.06,-43.05 1742.18,-46.46"/>
<text text-anchor="middle" x="1738.98" y="-39.82" font-family="Times,serif" font-size="14.00">2</text>
</g>
<!-- cat.SetStep -->
<g id="node11" class="node">
<title>cat.SetStep</title>
<g id="a_node11"><a xlink:href="cat.SetStep.svg" xlink:title="cat.SetStep">
<ellipse fill="green" stroke="black" cx="1933.44" cy="-18" rx="64.99" ry="18"/>
<text text-anchor="middle" x="1933.44" y="-14.3" font-family="Times,serif" font-size="14.00">cat.SetStep</text>
</a>
</g>
</g>
<!-- cat.EntityEquipItemDrop&#45;&gt;cat.SetStep -->
<g id="edge10" class="edge">
<title>cat.EntityEquipItemDrop&#45;&gt;cat.SetStep</title>
<path fill="none" stroke="black" d="M1680.69,-180.25C1731.68,-147.72 1844.03,-76.04 1900.16,-40.23"/>
<polygon fill="black" stroke="black" points="1902.12,-43.13 1908.67,-34.8 1898.36,-37.23 1902.12,-43.13"/>
<text text-anchor="middle" x="1903.67" y="-38.6" font-family="Times,serif" font-size="14.00">1</text>
</g>
<!-- dra.AddToInventory -->
<g id="node12" class="node">
<title>dra.AddToInventory</title>
<g id="a_node12"><a xlink:href="dra.AddToInventory.svg" xlink:title="dra.AddToInventory">
<ellipse fill="green" stroke="black" cx="2119.44" cy="-18" rx="102.88" ry="18"/>
<text text-anchor="middle" x="2119.44" y="-14.3" font-family="Times,serif" font-size="14.00">dra.AddToInventory</text>
</a>
</g>
</g>
<!-- cat.EntityEquipItemDrop&#45;&gt;dra.AddToInventory -->
<g id="edge11" class="edge">
<title>cat.EntityEquipItemDrop&#45;&gt;dra.AddToInventory</title>
<path fill="none" stroke="black" d="M1696.53,-180.89C1782.36,-148.03 1977.25,-73.43 2069.4,-38.16"/>
<polygon fill="black" stroke="black" points="2070.7,-41.41 2078.78,-34.56 2068.19,-34.87 2070.7,-41.41"/>
<text text-anchor="middle" x="2073.78" y="-38.36" font-family="Times,serif" font-size="14.00">1</text>
</g>
<!-- dra.AllocPrimitives -->
<g id="node13" class="node">
<title>dra.AllocPrimitives</title>
<g id="a_node13"><a xlink:href="dra.AllocPrimitives.svg" xlink:title="dra.AllocPrimitives">
<ellipse fill="green" stroke="black" cx="2339.44" cy="-18" rx="99.38" ry="18"/>
<text text-anchor="middle" x="2339.44" y="-14.3" font-family="Times,serif" font-size="14.00">dra.AllocPrimitives</text>
</a>
</g>
</g>
<!-- cat.EntityEquipItemDrop&#45;&gt;dra.AllocPrimitives -->
<g id="edge12" class="edge">
<title>cat.EntityEquipItemDrop&#45;&gt;dra.AllocPrimitives</title>
<path fill="none" stroke="black" d="M1712.55,-181.9C1839.75,-148.85 2142.05,-70.29 2274.92,-35.77"/>
<polygon fill="black" stroke="black" points="2276.15,-39.06 2284.95,-33.16 2274.39,-32.29 2276.15,-39.06"/>
<text text-anchor="middle" x="2279.95" y="-36.96" font-family="Times,serif" font-size="14.00">1</text>
</g>
<!-- dra.CheckCollision -->
<g id="node14" class="node">
<title>dra.CheckCollision</title>
<g id="a_node14"><a xlink:href="dra.CheckCollision.svg" xlink:title="dra.CheckCollision">
<ellipse fill="green" stroke="black" cx="2554.44" cy="-18" rx="97.48" ry="18"/>
<text text-anchor="middle" x="2554.44" y="-14.3" font-family="Times,serif" font-size="14.00">dra.CheckCollision</text>
</a>
</g>
</g>
<!-- cat.EntityEquipItemDrop&#45;&gt;dra.CheckCollision -->
<g id="edge13" class="edge">
<title>cat.EntityEquipItemDrop&#45;&gt;dra.CheckCollision</title>
<path fill="none" stroke="black" d="M1725.44,-182.96C1892.81,-149.86 2310.72,-67.2 2480.74,-33.58"/>
<polygon fill="black" stroke="black" points="2481.47,-37 2490.61,-31.63 2480.12,-30.13 2481.47,-37"/>
<text text-anchor="middle" x="2485.61" y="-35.43" font-family="Times,serif" font-size="14.00">3</text>
</g>
<!-- dra.FreePrimitives -->
<g id="node15" class="node">
<title>dra.FreePrimitives</title>
<g id="a_node15"><a xlink:href="dra.FreePrimitives.svg" xlink:title="dra.FreePrimitives">
<ellipse fill="green" stroke="black" cx="2768.44" cy="-18" rx="98.58" ry="18"/>
<text text-anchor="middle" x="2768.44" y="-14.3" font-family="Times,serif" font-size="14.00">dra.FreePrimitives</text>
</a>
</g>
</g>
<!-- cat.EntityEquipItemDrop&#45;&gt;dra.FreePrimitives -->
<g id="edge14" class="edge">
<title>cat.EntityEquipItemDrop&#45;&gt;dra.FreePrimitives</title>
<path fill="none" stroke="black" d="M1735.46,-184.06C1940.9,-151.23 2480.5,-65.01 2686.72,-32.06"/>
<polygon fill="black" stroke="black" points="2687.55,-35.47 2696.87,-30.44 2686.44,-28.56 2687.55,-35.47"/>
<text text-anchor="middle" x="2691.87" y="-34.24" font-family="Times,serif" font-size="14.00">1</text>
</g>
<!-- dra.LoadEquipIcon -->
<g id="node16" class="node">
<title>dra.LoadEquipIcon</title>
<g id="a_node16"><a xlink:href="dra.LoadEquipIcon.svg" xlink:title="dra.LoadEquipIcon">
<ellipse fill="green" stroke="black" cx="2984.44" cy="-18" rx="98.58" ry="18"/>
<text text-anchor="middle" x="2984.44" y="-14.3" font-family="Times,serif" font-size="14.00">dra.LoadEquipIcon</text>
</a>
</g>
</g>
<!-- cat.EntityEquipItemDrop&#45;&gt;dra.LoadEquipIcon -->
<g id="edge15" class="edge">
<title>cat.EntityEquipItemDrop&#45;&gt;dra.LoadEquipIcon</title>
<path fill="none" stroke="black" d="M1747.3,-185.57C1951.62,-160.26 2455.52,-96.85 2876.44,-36 2885.04,-34.76 2894.02,-33.41 2902.96,-32.05"/>
<polygon fill="black" stroke="black" points="2903.67,-35.48 2913.03,-30.5 2902.61,-28.56 2903.67,-35.48"/>
<text text-anchor="middle" x="2908.03" y="-34.3" font-family="Times,serif" font-size="14.00">1</text>
</g>
<!-- dra.PlaySfx -->
<g id="node17" class="node">
<title>dra.PlaySfx</title>
<g id="a_node17"><a xlink:href="dra.PlaySfx.svg" xlink:title="dra.PlaySfx">
<ellipse fill="green" stroke="black" cx="3165.44" cy="-18" rx="64.19" ry="18"/>
<text text-anchor="middle" x="3165.44" y="-14.3" font-family="Times,serif" font-size="14.00">dra.PlaySfx</text>
</a>
</g>
</g>
<!-- cat.EntityEquipItemDrop&#45;&gt;dra.PlaySfx -->
<g id="edge16" class="edge">
<title>cat.EntityEquipItemDrop&#45;&gt;dra.PlaySfx</title>
<path fill="none" stroke="black" d="M1765.57,-189.03C2007.85,-170.67 2601.3,-120.38 3092.44,-36 3097.89,-35.06 3103.55,-33.97 3109.18,-32.8"/>
<polygon fill="black" stroke="black" points="3110.23,-36.15 3119.27,-30.61 3108.75,-29.31 3110.23,-36.15"/>
<text text-anchor="middle" x="3114.27" y="-34.41" font-family="Times,serif" font-size="14.00">1</text>
</g>
</g>
</svg>
