<?xml version="1.0" encoding="UTF-8" standalone="no"?>
<!DOCTYPE svg PUBLIC "-//W3C//DTD SVG 1.1//EN"
 "http://www.w3.org/Graphics/SVG/1.1/DTD/svg11.dtd">
<!-- Generated by graphviz version 2.43.0 (0)
 -->
<!-- Title: cat.func_us_801D0F10 Pages: 1 -->
<svg width="1099pt" height="224pt"
 viewBox="0.00 0.00 1099.49 224.00" xmlns="http://www.w3.org/2000/svg" xmlns:xlink="http://www.w3.org/1999/xlink">
<g id="graph0" class="graph" transform="scale(1 1) rotate(0) translate(4 220)">
<title>cat.func_us_801D0F10</title>
<polygon fill="white" stroke="transparent" points="-4,4 -4,-220 1095.49,-220 1095.49,4 -4,4"/>
<!-- cat.func_us_801D0F10 -->
<g id="node1" class="node">
<title>cat.func_us_801D0F10</title>
<ellipse fill="red" stroke="black" cx="705.89" cy="-198" rx="116.18" ry="18"/>
<text text-anchor="middle" x="705.89" y="-194.3" font-family="Times,serif" font-size="14.00">cat.func_us_801D0F10</text>
</g>
<!-- cat.AnimateEntity -->
<g id="node2" class="node">
<title>cat.AnimateEntity</title>
<g id="a_node2"><a xlink:href="cat.AnimateEntity.svg" xlink:title="cat.AnimateEntity">
<ellipse fill="green" stroke="black" cx="94.89" cy="-18" rx="94.78" ry="18"/>
<text text-anchor="middle" x="94.89" y="-14.3" font-family="Times,serif" font-size="14.00">cat.AnimateEntity</text>
</a>
</g>
</g>
<!-- cat.func_us_801D0F10&#45;&gt;cat.AnimateEntity -->
<g id="edge1" class="edge">
<title>cat.func_us_801D0F10&#45;&gt;cat.AnimateEntity</title>
<path fill="none" stroke="black" d="M653.8,-181.82C540.68,-148.87 273.18,-70.94 153.98,-36.21"/>
<polygon fill="black" stroke="black" points="154.87,-32.83 144.29,-33.39 152.91,-39.55 154.87,-32.83"/>
<text text-anchor="middle" x="139.29" y="-37.19" font-family="Times,serif" font-size="14.00">1</text>
</g>
<!-- cat.DestroyEntity -->
<g id="node3" class="node">
<title>cat.DestroyEntity</title>
<g id="a_node3"><a xlink:href="cat.DestroyEntity.svg" xlink:title="cat.DestroyEntity">
<ellipse fill="green" stroke="black" cx="300.89" cy="-18" rx="92.88" ry="18"/>
<text text-anchor="middle" x="300.89" y="-14.3" font-family="Times,serif" font-size="14.00">cat.DestroyEntity</text>
</a>
</g>
</g>
<!-- cat.func_us_801D0F10&#45;&gt;cat.DestroyEntity -->
<g id="edge2" class="edge">
<title>cat.func_us_801D0F10&#45;&gt;cat.DestroyEntity</title>
<path fill="none" stroke="black" d="M669.24,-180.89C594.95,-148.24 426.87,-74.37 346.01,-38.83"/>
<polygon fill="black" stroke="black" points="347.16,-35.51 336.59,-34.69 344.34,-41.92 347.16,-35.51"/>
<text text-anchor="middle" x="331.59" y="-38.49" font-family="Times,serif" font-size="14.00">1</text>
</g>
<!-- cat.InitializeEntity -->
<g id="node4" class="node">
<title>cat.InitializeEntity</title>
<g id="a_node4"><a xlink:href="cat.InitializeEntity.svg" xlink:title="cat.InitializeEntity">
<ellipse fill="green" stroke="black" cx="508.89" cy="-18" rx="96.68" ry="18"/>
<text text-anchor="middle" x="508.89" y="-14.3" font-family="Times,serif" font-size="14.00">cat.InitializeEntity</text>
</a>
</g>
</g>
<!-- cat.func_us_801D0F10&#45;&gt;cat.InitializeEntity -->
<g id="edge3" class="edge">
<title>cat.func_us_801D0F10&#45;&gt;cat.InitializeEntity</title>
<path fill="none" stroke="black" d="M687,-179.93C651.61,-147.95 575.26,-78.97 534.99,-42.58"/>
<polygon fill="black" stroke="black" points="537.2,-39.86 527.44,-35.76 532.51,-45.06 537.2,-39.86"/>
<text text-anchor="middle" x="522.44" y="-39.56" font-family="Times,serif" font-size="14.00">1</text>
</g>
<!-- cat.MoveEntity -->
<g id="node5" class="node">
<title>cat.MoveEntity</title>
<g id="a_node5"><a xlink:href="cat.MoveEntity.svg" xlink:title="cat.MoveEntity">
<ellipse fill="green" stroke="black" cx="705.89" cy="-18" rx="81.79" ry="18"/>
<text text-anchor="middle" x="705.89" y="-14.3" font-family="Times,serif" font-size="14.00">cat.MoveEntity</text>
</a>
</g>
</g>
<!-- cat.func_us_801D0F10&#45;&gt;cat.MoveEntity -->
<g id="edge4" class="edge">
<title>cat.func_us_801D0F10&#45;&gt;cat.MoveEntity</title>
<path fill="none" stroke="black" d="M705.89,-179.93C705.89,-148.97 705.89,-83.3 705.89,-46.13"/>
<polygon fill="black" stroke="black" points="709.39,-46.02 705.89,-36.02 702.39,-46.02 709.39,-46.02"/>
<text text-anchor="middle" x="700.89" y="-39.82" font-family="Times,serif" font-size="14.00">1</text>
</g>
<!-- cat.Random -->
<g id="node6" class="node">
<title>cat.Random</title>
<g id="a_node6"><a xlink:href="cat.Random.svg" xlink:title="cat.Random">
<ellipse fill="green" stroke="black" cx="871.89" cy="-18" rx="65.79" ry="18"/>
<text text-anchor="middle" x="871.89" y="-14.3" font-family="Times,serif" font-size="14.00">cat.Random</text>
</a>
</g>
</g>
<!-- cat.func_us_801D0F10&#45;&gt;cat.Random -->
<g id="edge5" class="edge">
<title>cat.func_us_801D0F10&#45;&gt;cat.Random</title>
<path fill="none" stroke="black" d="M721.81,-179.93C751.38,-148.22 814.89,-80.12 849.05,-43.5"/>
<polygon fill="black" stroke="black" points="852,-45.46 856.27,-35.76 846.89,-40.68 852,-45.46"/>
<text text-anchor="middle" x="851.27" y="-39.56" font-family="Times,serif" font-size="14.00">2</text>
</g>
<!-- rcos -->
<g id="node7" class="node">
<title>rcos</title>
<g id="a_node7"><a xlink:href="rcos.svg" xlink:title="rcos">
<ellipse fill="lightblue" stroke="black" cx="985.89" cy="-18" rx="30.59" ry="18"/>
<text text-anchor="middle" x="985.89" y="-14.3" font-family="Times,serif" font-size="14.00">rcos</text>
</a>
</g>
</g>
<!-- cat.func_us_801D0F10&#45;&gt;rcos -->
<g id="edge6" class="edge">
<title>cat.func_us_801D0F10&#45;&gt;rcos</title>
<path fill="none" stroke="black" d="M731.98,-180.41C784.58,-146.98 902.96,-71.72 957.46,-37.08"/>
<polygon fill="black" stroke="black" points="959.38,-40 965.94,-31.68 955.62,-34.09 959.38,-40"/>
<text text-anchor="middle" x="960.94" y="-35.48" font-family="Times,serif" font-size="14.00">1</text>
</g>
<!-- rsin -->
<g id="node8" class="node">
<title>rsin</title>
<g id="a_node8"><a xlink:href="rsin.svg" xlink:title="rsin">
<ellipse fill="lightblue" stroke="black" cx="1062.89" cy="-18" rx="28.7" ry="18"/>
<text text-anchor="middle" x="1062.89" y="-14.3" font-family="Times,serif" font-size="14.00">rsin</text>
</a>
</g>
</g>
<!-- cat.func_us_801D0F10&#45;&gt;rsin -->
<g id="edge7" class="edge">
<title>cat.func_us_801D0F10&#45;&gt;rsin</title>
<path fill="none" stroke="black" d="M738.84,-180.57C807.44,-146.37 964.81,-67.9 1031.79,-34.51"/>
<polygon fill="black" stroke="black" points="1033.61,-37.51 1041,-29.92 1030.49,-31.25 1033.61,-37.51"/>
<text text-anchor="middle" x="1036" y="-33.72" font-family="Times,serif" font-size="14.00">1</text>
</g>
</g>
</svg>
