<?xml version="1.0" encoding="UTF-8" standalone="no"?>
<!DOCTYPE svg PUBLIC "-//W3C//DTD SVG 1.1//EN"
 "http://www.w3.org/Graphics/SVG/1.1/DTD/svg11.dtd">
<!-- Generated by graphviz version 2.43.0 (0)
 -->
<!-- Title: cat.func_us_801B8AD0 Pages: 1 -->
<svg width="1214pt" height="224pt"
 viewBox="0.00 0.00 1214.14 224.00" xmlns="http://www.w3.org/2000/svg" xmlns:xlink="http://www.w3.org/1999/xlink">
<g id="graph0" class="graph" transform="scale(1 1) rotate(0) translate(4 220)">
<title>cat.func_us_801B8AD0</title>
<polygon fill="white" stroke="transparent" points="-4,4 -4,-220 1210.14,-220 1210.14,4 -4,4"/>
<!-- cat.func_us_801B8AD0 -->
<g id="node1" class="node">
<title>cat.func_us_801B8AD0</title>
<ellipse fill="red" stroke="black" cx="527.05" cy="-198" rx="116.98" ry="18"/>
<text text-anchor="middle" x="527.05" y="-194.3" font-family="Times,serif" font-size="14.00">cat.func_us_801B8AD0</text>
</g>
<!-- FntPrint -->
<g id="node2" class="node">
<title>FntPrint</title>
<g id="a_node2"><a xlink:href="FntPrint.svg" xlink:title="FntPrint">
<ellipse fill="lightblue" stroke="black" cx="50.05" cy="-18" rx="50.09" ry="18"/>
<text text-anchor="middle" x="50.05" y="-14.3" font-family="Times,serif" font-size="14.00">FntPrint</text>
</a>
</g>
</g>
<!-- cat.func_us_801B8AD0&#45;&gt;FntPrint -->
<g id="edge1" class="edge">
<title>cat.func_us_801B8AD0&#45;&gt;FntPrint</title>
<path fill="none" stroke="black" d="M484.71,-181.2C394.41,-147.5 183.71,-68.88 92.92,-35"/>
<polygon fill="black" stroke="black" points="94.08,-31.7 83.49,-31.48 91.63,-38.25 94.08,-31.7"/>
<text text-anchor="middle" x="78.49" y="-35.28" font-family="Times,serif" font-size="14.00">1</text>
</g>
<!-- cat.DestroyEntity -->
<g id="node3" class="node">
<title>cat.DestroyEntity</title>
<g id="a_node3"><a xlink:href="cat.DestroyEntity.svg" xlink:title="cat.DestroyEntity">
<ellipse fill="green" stroke="black" cx="211.05" cy="-18" rx="92.88" ry="18"/>
<text text-anchor="middle" x="211.05" y="-14.3" font-family="Times,serif" font-size="14.00">cat.DestroyEntity</text>
</a>
</g>
</g>
<!-- cat.func_us_801B8AD0&#45;&gt;cat.DestroyEntity -->
<g id="edge2" class="edge">
<title>cat.func_us_801B8AD0&#45;&gt;cat.DestroyEntity</title>
<path fill="none" stroke="black" d="M497.6,-180.41C440.06,-148 312.77,-76.3 249,-40.38"/>
<polygon fill="black" stroke="black" points="250.5,-37.21 240.07,-35.35 247.07,-43.31 250.5,-37.21"/>
<text text-anchor="middle" x="235.07" y="-39.15" font-family="Times,serif" font-size="14.00">1</text>
</g>
<!-- cat.InitializeEntity -->
<g id="node4" class="node">
<title>cat.InitializeEntity</title>
<g id="a_node4"><a xlink:href="cat.InitializeEntity.svg" xlink:title="cat.InitializeEntity">
<ellipse fill="green" stroke="black" cx="419.05" cy="-18" rx="96.68" ry="18"/>
<text text-anchor="middle" x="419.05" y="-14.3" font-family="Times,serif" font-size="14.00">cat.InitializeEntity</text>
</a>
</g>
</g>
<!-- cat.func_us_801B8AD0&#45;&gt;cat.InitializeEntity -->
<g id="edge3" class="edge">
<title>cat.func_us_801B8AD0&#45;&gt;cat.InitializeEntity</title>
<path fill="none" stroke="black" d="M516.69,-179.93C497.66,-148.57 457.03,-81.6 434.64,-44.71"/>
<polygon fill="black" stroke="black" points="437.55,-42.75 429.37,-36.02 431.56,-46.38 437.55,-42.75"/>
<text text-anchor="middle" x="424.37" y="-39.82" font-family="Times,serif" font-size="14.00">1</text>
</g>
<!-- dra.func_800EA538 -->
<g id="node5" class="node">
<title>dra.func_800EA538</title>
<g id="a_node5"><a xlink:href="dra.func_800EA538.svg" xlink:title="dra.func_800EA538">
<ellipse fill="green" stroke="black" cx="636.05" cy="-18" rx="102.08" ry="18"/>
<text text-anchor="middle" x="636.05" y="-14.3" font-family="Times,serif" font-size="14.00">dra.func_800EA538</text>
</a>
</g>
</g>
<!-- cat.func_us_801B8AD0&#45;&gt;dra.func_800EA538 -->
<g id="edge4" class="edge">
<title>cat.func_us_801B8AD0&#45;&gt;dra.func_800EA538</title>
<path fill="none" stroke="black" d="M537.5,-179.93C556.7,-148.57 597.71,-81.6 620.3,-44.71"/>
<polygon fill="black" stroke="black" points="623.39,-46.37 625.63,-36.02 617.42,-42.72 623.39,-46.37"/>
<text text-anchor="middle" x="620.63" y="-39.82" font-family="Times,serif" font-size="14.00">1</text>
</g>
<!-- dra.func_800EA5E4 -->
<g id="node6" class="node">
<title>dra.func_800EA5E4</title>
<g id="a_node6"><a xlink:href="dra.func_800EA5E4.svg" xlink:title="dra.func_800EA5E4">
<ellipse fill="green" stroke="black" cx="859.05" cy="-18" rx="102.88" ry="18"/>
<text text-anchor="middle" x="859.05" y="-14.3" font-family="Times,serif" font-size="14.00">dra.func_800EA5E4</text>
</a>
</g>
</g>
<!-- cat.func_us_801B8AD0&#45;&gt;dra.func_800EA5E4 -->
<g id="edge5" class="edge">
<title>cat.func_us_801B8AD0&#45;&gt;dra.func_800EA5E4</title>
<path fill="none" stroke="black" d="M557.68,-180.57C618.09,-148.19 752.49,-76.13 819.49,-40.21"/>
<polygon fill="black" stroke="black" points="821.32,-43.2 828.48,-35.39 818.01,-37.03 821.32,-43.2"/>
<text text-anchor="middle" x="823.48" y="-39.19" font-family="Times,serif" font-size="14.00">2</text>
</g>
<!-- g_api_func_800EA5E4 -->
<g id="node7" class="node">
<title>g_api_func_800EA5E4</title>
<g id="a_node7"><a xlink:href="g_api_func_800EA5E4.svg" xlink:title="g_api_func_800EA5E4">
<ellipse fill="lightblue" stroke="black" cx="1093.05" cy="-18" rx="113.18" ry="18"/>
<text text-anchor="middle" x="1093.05" y="-14.3" font-family="Times,serif" font-size="14.00">g_api_func_800EA5E4</text>
</a>
</g>
</g>
<!-- cat.func_us_801B8AD0&#45;&gt;g_api_func_800EA5E4 -->
<g id="edge6" class="edge">
<title>cat.func_us_801B8AD0&#45;&gt;g_api_func_800EA5E4</title>
<path fill="none" stroke="black" d="M576.28,-181.52C680.45,-148.76 922.73,-72.56 1034.56,-37.39"/>
<polygon fill="black" stroke="black" points="1035.83,-40.66 1044.32,-34.32 1033.73,-33.98 1035.83,-40.66"/>
<text text-anchor="middle" x="1034.82" y="-38.12" font-family="Times,serif" font-size="14.00">11</text>
</g>
</g>
</svg>
