<?xml version="1.0" encoding="UTF-8" standalone="no"?>
<!DOCTYPE svg PUBLIC "-//W3C//DTD SVG 1.1//EN"
 "http://www.w3.org/Graphics/SVG/1.1/DTD/svg11.dtd">
<!-- Generated by graphviz version 2.43.0 (0)
 -->
<!-- Title: cat.func_us_801D0B38 Pages: 1 -->
<svg width="2109pt" height="224pt"
 viewBox="0.00 0.00 2109.49 224.00" xmlns="http://www.w3.org/2000/svg" xmlns:xlink="http://www.w3.org/1999/xlink">
<g id="graph0" class="graph" transform="scale(1 1) rotate(0) translate(4 220)">
<title>cat.func_us_801D0B38</title>
<polygon fill="white" stroke="transparent" points="-4,4 -4,-220 2105.49,-220 2105.49,4 -4,4"/>
<!-- cat.func_us_801D0B38 -->
<g id="node1" class="node">
<title>cat.func_us_801D0B38</title>
<ellipse fill="red" stroke="black" cx="1025.05" cy="-198" rx="116.18" ry="18"/>
<text text-anchor="middle" x="1025.05" y="-194.3" font-family="Times,serif" font-size="14.00">cat.func_us_801D0B38</text>
</g>
<!-- FntPrint -->
<g id="node2" class="node">
<title>FntPrint</title>
<g id="a_node2"><a xlink:href="FntPrint.svg" xlink:title="FntPrint">
<ellipse fill="lightblue" stroke="black" cx="50.05" cy="-18" rx="50.09" ry="18"/>
<text text-anchor="middle" x="50.05" y="-14.3" font-family="Times,serif" font-size="14.00">FntPrint</text>
</a>
</g>
</g>
<!-- cat.func_us_801D0B38&#45;&gt;FntPrint -->
<g id="edge1" class="edge">
<title>cat.func_us_801D0B38&#45;&gt;FntPrint</title>
<path fill="none" stroke="black" d="M941.72,-185.39C780.06,-162.21 413.05,-106.3 109.05,-36 105.01,-35.07 100.85,-34.03 96.68,-32.93"/>
<polygon fill="black" stroke="black" points="97.59,-29.55 87.03,-30.31 95.76,-36.31 97.59,-29.55"/>
<text text-anchor="middle" x="82.03" y="-34.11" font-family="Times,serif" font-size="14.00">1</text>
</g>
<!-- cat.AllocEntity -->
<g id="node3" class="node">
<title>cat.AllocEntity</title>
<g id="a_node3"><a xlink:href="cat.AllocEntity.svg" xlink:title="cat.AllocEntity">
<ellipse fill="green" stroke="black" cx="197.05" cy="-18" rx="79.09" ry="18"/>
<text text-anchor="middle" x="197.05" y="-14.3" font-family="Times,serif" font-size="14.00">cat.AllocEntity</text>
</a>
</g>
</g>
<!-- cat.func_us_801D0B38&#45;&gt;cat.AllocEntity -->
<g id="edge2" class="edge">
<title>cat.func_us_801D0B38&#45;&gt;cat.AllocEntity</title>
<path fill="none" stroke="black" d="M960.07,-183.03C805.54,-149.81 417.44,-66.38 262.46,-33.06"/>
<polygon fill="black" stroke="black" points="263.11,-29.62 252.59,-30.94 261.63,-36.47 263.11,-29.62"/>
<text text-anchor="middle" x="247.59" y="-34.74" font-family="Times,serif" font-size="14.00">1</text>
</g>
<!-- cat.CreateEntityFromEntity -->
<g id="node4" class="node">
<title>cat.CreateEntityFromEntity</title>
<g id="a_node4"><a xlink:href="cat.CreateEntityFromEntity.svg" xlink:title="cat.CreateEntityFromEntity">
<ellipse fill="green" stroke="black" cx="436.05" cy="-18" rx="141.88" ry="18"/>
<text text-anchor="middle" x="436.05" y="-14.3" font-family="Times,serif" font-size="14.00">cat.CreateEntityFromEntity</text>
</a>
</g>
</g>
<!-- cat.func_us_801D0B38&#45;&gt;cat.CreateEntityFromEntity -->
<g id="edge3" class="edge">
<title>cat.func_us_801D0B38&#45;&gt;cat.CreateEntityFromEntity</title>
<path fill="none" stroke="black" d="M974.57,-181.75C866.96,-149.22 615.24,-73.15 498.08,-37.75"/>
<polygon fill="black" stroke="black" points="498.77,-34.3 488.18,-34.76 496.74,-41 498.77,-34.3"/>
<text text-anchor="middle" x="483.18" y="-38.56" font-family="Times,serif" font-size="14.00">1</text>
</g>
<!-- cat.DestroyEntity -->
<g id="node5" class="node">
<title>cat.DestroyEntity</title>
<g id="a_node5"><a xlink:href="cat.DestroyEntity.svg" xlink:title="cat.DestroyEntity">
<ellipse fill="green" stroke="black" cx="689.05" cy="-18" rx="92.88" ry="18"/>
<text text-anchor="middle" x="689.05" y="-14.3" font-family="Times,serif" font-size="14.00">cat.DestroyEntity</text>
</a>
</g>
</g>
<!-- cat.func_us_801D0B38&#45;&gt;cat.DestroyEntity -->
<g id="edge4" class="edge">
<title>cat.func_us_801D0B38&#45;&gt;cat.DestroyEntity</title>
<path fill="none" stroke="black" d="M994.04,-180.57C932.75,-148.1 796.19,-75.76 728.56,-39.94"/>
<polygon fill="black" stroke="black" points="729.97,-36.72 719.49,-35.13 726.69,-42.9 729.97,-36.72"/>
<text text-anchor="middle" x="714.49" y="-38.93" font-family="Times,serif" font-size="14.00">1</text>
</g>
<!-- cat.FindFirstUnkPrim -->
<g id="node6" class="node">
<title>cat.FindFirstUnkPrim</title>
<g id="a_node6"><a xlink:href="cat.FindFirstUnkPrim.svg" xlink:title="cat.FindFirstUnkPrim">
<ellipse fill="green" stroke="black" cx="912.05" cy="-18" rx="112.38" ry="18"/>
<text text-anchor="middle" x="912.05" y="-14.3" font-family="Times,serif" font-size="14.00">cat.FindFirstUnkPrim</text>
</a>
</g>
</g>
<!-- cat.func_us_801D0B38&#45;&gt;cat.FindFirstUnkPrim -->
<g id="edge5" class="edge">
<title>cat.func_us_801D0B38&#45;&gt;cat.FindFirstUnkPrim</title>
<path fill="none" stroke="black" d="M1014.21,-179.93C994.3,-148.57 951.79,-81.6 928.37,-44.71"/>
<polygon fill="black" stroke="black" points="931.16,-42.58 922.85,-36.02 925.25,-46.33 931.16,-42.58"/>
<text text-anchor="middle" x="917.85" y="-39.82" font-family="Times,serif" font-size="14.00">1</text>
</g>
<!-- cat.InitializeEntity -->
<g id="node7" class="node">
<title>cat.InitializeEntity</title>
<g id="a_node7"><a xlink:href="cat.InitializeEntity.svg" xlink:title="cat.InitializeEntity">
<ellipse fill="green" stroke="black" cx="1139.05" cy="-18" rx="96.68" ry="18"/>
<text text-anchor="middle" x="1139.05" y="-14.3" font-family="Times,serif" font-size="14.00">cat.InitializeEntity</text>
</a>
</g>
</g>
<!-- cat.func_us_801D0B38&#45;&gt;cat.InitializeEntity -->
<g id="edge6" class="edge">
<title>cat.func_us_801D0B38&#45;&gt;cat.InitializeEntity</title>
<path fill="none" stroke="black" d="M1035.98,-179.93C1056.06,-148.57 1098.95,-81.6 1122.58,-44.71"/>
<polygon fill="black" stroke="black" points="1125.7,-46.32 1128.15,-36.02 1119.81,-42.55 1125.7,-46.32"/>
<text text-anchor="middle" x="1123.15" y="-39.82" font-family="Times,serif" font-size="14.00">1</text>
</g>
<!-- cat.Random -->
<g id="node8" class="node">
<title>cat.Random</title>
<g id="a_node8"><a xlink:href="cat.Random.svg" xlink:title="cat.Random">
<ellipse fill="green" stroke="black" cx="1319.05" cy="-18" rx="65.79" ry="18"/>
<text text-anchor="middle" x="1319.05" y="-14.3" font-family="Times,serif" font-size="14.00">cat.Random</text>
</a>
</g>
</g>
<!-- cat.func_us_801D0B38&#45;&gt;cat.Random -->
<g id="edge7" class="edge">
<title>cat.func_us_801D0B38&#45;&gt;cat.Random</title>
<path fill="none" stroke="black" d="M1052.44,-180.41C1106.27,-147.82 1225.72,-75.5 1284.71,-39.79"/>
<polygon fill="black" stroke="black" points="1286.56,-42.76 1293.3,-34.59 1282.94,-36.77 1286.56,-42.76"/>
<text text-anchor="middle" x="1288.3" y="-38.39" font-family="Times,serif" font-size="14.00">1</text>
</g>
<!-- cat.UnkCollisionFunc2 -->
<g id="node9" class="node">
<title>cat.UnkCollisionFunc2</title>
<g id="a_node9"><a xlink:href="cat.UnkCollisionFunc2.svg" xlink:title="cat.UnkCollisionFunc2">
<ellipse fill="green" stroke="black" cx="1518.05" cy="-18" rx="115.88" ry="18"/>
<text text-anchor="middle" x="1518.05" y="-14.3" font-family="Times,serif" font-size="14.00">cat.UnkCollisionFunc2</text>
</a>
</g>
</g>
<!-- cat.func_us_801D0B38&#45;&gt;cat.UnkCollisionFunc2 -->
<g id="edge8" class="edge">
<title>cat.func_us_801D0B38&#45;&gt;cat.UnkCollisionFunc2</title>
<path fill="none" stroke="black" d="M1068.8,-181.2C1159.34,-148.51 1366.97,-73.55 1464.98,-38.16"/>
<polygon fill="black" stroke="black" points="1466.18,-41.45 1474.39,-34.76 1463.8,-34.86 1466.18,-41.45"/>
<text text-anchor="middle" x="1469.39" y="-38.56" font-family="Times,serif" font-size="14.00">1</text>
</g>
<!-- cat.func_us_801CF87C -->
<g id="node10" class="node">
<title>cat.func_us_801CF87C</title>
<g id="a_node10"><a xlink:href="cat.func_us_801CF87C.svg" xlink:title="cat.func_us_801CF87C">
<ellipse fill="red" stroke="black" cx="1768.05" cy="-18" rx="116.18" ry="18"/>
<text text-anchor="middle" x="1768.05" y="-14.3" font-family="Times,serif" font-size="14.00">cat.func_us_801CF87C</text>
</a>
</g>
</g>
<!-- cat.func_us_801D0B38&#45;&gt;cat.func_us_801CF87C -->
<g id="edge9" class="edge">
<title>cat.func_us_801D0B38&#45;&gt;cat.func_us_801CF87C</title>
<path fill="none" stroke="black" d="M1085.22,-182.58C1221.35,-149.97 1552.39,-70.67 1697.69,-35.85"/>
<polygon fill="black" stroke="black" points="1698.92,-39.16 1707.83,-33.43 1697.29,-32.35 1698.92,-39.16"/>
<text text-anchor="middle" x="1702.83" y="-37.23" font-family="Times,serif" font-size="14.00">1</text>
</g>
<!-- dra.AllocPrimitives -->
<g id="node11" class="node">
<title>dra.AllocPrimitives</title>
<g id="a_node11"><a xlink:href="dra.AllocPrimitives.svg" xlink:title="dra.AllocPrimitives">
<ellipse fill="green" stroke="black" cx="2002.05" cy="-18" rx="99.38" ry="18"/>
<text text-anchor="middle" x="2002.05" y="-14.3" font-family="Times,serif" font-size="14.00">dra.AllocPrimitives</text>
</a>
</g>
</g>
<!-- cat.func_us_801D0B38&#45;&gt;dra.AllocPrimitives -->
<g id="edge10" class="edge">
<title>cat.func_us_801D0B38&#45;&gt;dra.AllocPrimitives</title>
<path fill="none" stroke="black" d="M1097.28,-183.84C1276.53,-151.18 1740.48,-66.66 1924.85,-33.06"/>
<polygon fill="black" stroke="black" points="1925.53,-36.5 1934.74,-31.26 1924.27,-29.61 1925.53,-36.5"/>
<text text-anchor="middle" x="1929.74" y="-35.06" font-family="Times,serif" font-size="14.00">1</text>
</g>
</g>
</svg>
