<?xml version="1.0" encoding="UTF-8" standalone="no"?>
<!DOCTYPE svg PUBLIC "-//W3C//DTD SVG 1.1//EN"
 "http://www.w3.org/Graphics/SVG/1.1/DTD/svg11.dtd">
<!-- Generated by graphviz version 2.43.0 (0)
 -->
<!-- Title: cen.HitDetection Pages: 1 -->
<svg width="2763pt" height="224pt"
 viewBox="0.00 0.00 2762.74 224.00" xmlns="http://www.w3.org/2000/svg" xmlns:xlink="http://www.w3.org/1999/xlink">
<g id="graph0" class="graph" transform="scale(1 1) rotate(0) translate(4 220)">
<title>cen.HitDetection</title>
<polygon fill="white" stroke="transparent" points="-4,4 -4,-220 2758.74,-220 2758.74,4 -4,4"/>
<!-- cen.HitDetection -->
<g id="node1" class="node">
<title>cen.HitDetection</title>
<ellipse fill="green" stroke="black" cx="1558.24" cy="-198" rx="89.08" ry="18"/>
<text text-anchor="middle" x="1558.24" y="-194.3" font-family="Times,serif" font-size="14.00">cen.HitDetection</text>
</g>
<!-- cen.AllocEntity -->
<g id="node2" class="node">
<title>cen.AllocEntity</title>
<g id="a_node2"><a xlink:href="cen.AllocEntity.svg" xlink:title="cen.AllocEntity">
<ellipse fill="green" stroke="black" cx="81.24" cy="-18" rx="81.49" ry="18"/>
<text text-anchor="middle" x="81.24" y="-14.3" font-family="Times,serif" font-size="14.00">cen.AllocEntity</text>
</a>
</g>
</g>
<!-- cen.HitDetection&#45;&gt;cen.AllocEntity -->
<g id="edge1" class="edge">
<title>cen.HitDetection&#45;&gt;cen.AllocEntity</title>
<path fill="none" stroke="black" d="M1479.07,-189.74C1266.79,-169.84 667.44,-110.93 172.24,-36 164.95,-34.9 157.35,-33.64 149.78,-32.33"/>
<polygon fill="black" stroke="black" points="150.34,-28.87 139.88,-30.57 149.12,-35.76 150.34,-28.87"/>
<text text-anchor="middle" x="134.88" y="-34.37" font-family="Times,serif" font-size="14.00">4</text>
</g>
<!-- cen.BottomCornerText -->
<g id="node3" class="node">
<title>cen.BottomCornerText</title>
<g id="a_node3"><a xlink:href="cen.BottomCornerText.svg" xlink:title="cen.BottomCornerText">
<ellipse fill="green" stroke="black" cx="297.24" cy="-18" rx="116.18" ry="18"/>
<text text-anchor="middle" x="297.24" y="-14.3" font-family="Times,serif" font-size="14.00">cen.BottomCornerText</text>
</a>
</g>
</g>
<!-- cen.HitDetection&#45;&gt;cen.BottomCornerText -->
<g id="edge2" class="edge">
<title>cen.HitDetection&#45;&gt;cen.BottomCornerText</title>
<path fill="none" stroke="black" d="M1487.29,-186.98C1272.82,-156.71 631.26,-66.15 390.18,-32.12"/>
<polygon fill="black" stroke="black" points="390.43,-28.62 380.04,-30.69 389.46,-35.55 390.43,-28.62"/>
<text text-anchor="middle" x="375.04" y="-34.49" font-family="Times,serif" font-size="14.00">1</text>
</g>
<!-- cen.CreateEntityFromEntity -->
<g id="node4" class="node">
<title>cen.CreateEntityFromEntity</title>
<g id="a_node4"><a xlink:href="cen.CreateEntityFromEntity.svg" xlink:title="cen.CreateEntityFromEntity">
<ellipse fill="green" stroke="black" cx="575.24" cy="-18" rx="143.77" ry="18"/>
<text text-anchor="middle" x="575.24" y="-14.3" font-family="Times,serif" font-size="14.00">cen.CreateEntityFromEntity</text>
</a>
</g>
</g>
<!-- cen.HitDetection&#45;&gt;cen.CreateEntityFromEntity -->
<g id="edge3" class="edge">
<title>cen.HitDetection&#45;&gt;cen.CreateEntityFromEntity</title>
<path fill="none" stroke="black" d="M1494.12,-185.39C1323.59,-154.51 858.58,-70.31 663.37,-34.96"/>
<polygon fill="black" stroke="black" points="663.9,-31.5 653.44,-33.16 662.65,-38.39 663.9,-31.5"/>
<text text-anchor="middle" x="648.44" y="-36.96" font-family="Times,serif" font-size="14.00">3</text>
</g>
<!-- cen.DestroyEntity -->
<g id="node5" class="node">
<title>cen.DestroyEntity</title>
<g id="a_node5"><a xlink:href="cen.DestroyEntity.svg" xlink:title="cen.DestroyEntity">
<ellipse fill="green" stroke="black" cx="832.24" cy="-18" rx="94.78" ry="18"/>
<text text-anchor="middle" x="832.24" y="-14.3" font-family="Times,serif" font-size="14.00">cen.DestroyEntity</text>
</a>
</g>
</g>
<!-- cen.HitDetection&#45;&gt;cen.DestroyEntity -->
<g id="edge4" class="edge">
<title>cen.HitDetection&#45;&gt;cen.DestroyEntity</title>
<path fill="none" stroke="black" d="M1503.97,-183.69C1372.89,-151.56 1039.4,-69.79 897.62,-35.03"/>
<polygon fill="black" stroke="black" points="898.3,-31.59 887.75,-32.61 896.63,-38.39 898.3,-31.59"/>
<text text-anchor="middle" x="882.75" y="-36.41" font-family="Times,serif" font-size="14.00">1</text>
</g>
<!-- cen.PreventEntityFromRespawning -->
<g id="node6" class="node">
<title>cen.PreventEntityFromRespawning</title>
<g id="a_node6"><a xlink:href="cen.PreventEntityFromRespawning.svg" xlink:title="cen.PreventEntityFromRespawning">
<ellipse fill="green" stroke="black" cx="1122.24" cy="-18" rx="176.57" ry="18"/>
<text text-anchor="middle" x="1122.24" y="-14.3" font-family="Times,serif" font-size="14.00">cen.PreventEntityFromRespawning</text>
</a>
</g>
</g>
<!-- cen.HitDetection&#45;&gt;cen.PreventEntityFromRespawning -->
<g id="edge5" class="edge">
<title>cen.HitDetection&#45;&gt;cen.PreventEntityFromRespawning</title>
<path fill="none" stroke="black" d="M1520.69,-181.67C1442.17,-149.61 1260.6,-75.48 1172.28,-39.43"/>
<polygon fill="black" stroke="black" points="1173.59,-36.18 1163.01,-35.64 1170.95,-42.66 1173.59,-36.18"/>
<text text-anchor="middle" x="1158.01" y="-39.44" font-family="Times,serif" font-size="14.00">1</text>
</g>
<!-- cen.Random -->
<g id="node7" class="node">
<title>cen.Random</title>
<g id="a_node7"><a xlink:href="cen.Random.svg" xlink:title="cen.Random">
<ellipse fill="green" stroke="black" cx="1384.24" cy="-18" rx="67.69" ry="18"/>
<text text-anchor="middle" x="1384.24" y="-14.3" font-family="Times,serif" font-size="14.00">cen.Random</text>
</a>
</g>
</g>
<!-- cen.HitDetection&#45;&gt;cen.Random -->
<g id="edge6" class="edge">
<title>cen.HitDetection&#45;&gt;cen.Random</title>
<path fill="none" stroke="black" d="M1541.87,-180.25C1510.83,-148.5 1443.33,-79.45 1407.57,-42.86"/>
<polygon fill="black" stroke="black" points="1409.94,-40.28 1400.44,-35.57 1404.93,-45.17 1409.94,-40.28"/>
<text text-anchor="middle" x="1395.44" y="-39.37" font-family="Times,serif" font-size="14.00">2</text>
</g>
<!-- dra.DealDamage -->
<g id="node8" class="node">
<title>dra.DealDamage</title>
<g id="a_node8"><a xlink:href="dra.DealDamage.svg" xlink:title="dra.DealDamage">
<ellipse fill="green" stroke="black" cx="1558.24" cy="-18" rx="88.28" ry="18"/>
<text text-anchor="middle" x="1558.24" y="-14.3" font-family="Times,serif" font-size="14.00">dra.DealDamage</text>
</a>
</g>
</g>
<!-- cen.HitDetection&#45;&gt;dra.DealDamage -->
<g id="edge7" class="edge">
<title>cen.HitDetection&#45;&gt;dra.DealDamage</title>
<path fill="none" stroke="black" d="M1558.24,-179.93C1558.24,-148.97 1558.24,-83.3 1558.24,-46.13"/>
<polygon fill="black" stroke="black" points="1561.74,-46.02 1558.24,-36.02 1554.74,-46.02 1561.74,-46.02"/>
<text text-anchor="middle" x="1553.24" y="-39.82" font-family="Times,serif" font-size="14.00">1</text>
</g>
<!-- dra.FreePrimitives -->
<g id="node9" class="node">
<title>dra.FreePrimitives</title>
<g id="a_node9"><a xlink:href="dra.FreePrimitives.svg" xlink:title="dra.FreePrimitives">
<ellipse fill="green" stroke="black" cx="1763.24" cy="-18" rx="98.58" ry="18"/>
<text text-anchor="middle" x="1763.24" y="-14.3" font-family="Times,serif" font-size="14.00">dra.FreePrimitives</text>
</a>
</g>
</g>
<!-- cen.HitDetection&#45;&gt;dra.FreePrimitives -->
<g id="edge8" class="edge">
<title>cen.HitDetection&#45;&gt;dra.FreePrimitives</title>
<path fill="none" stroke="black" d="M1577.53,-180.25C1614.23,-148.38 1694.22,-78.94 1736.23,-42.45"/>
<polygon fill="black" stroke="black" points="1738.6,-45.03 1743.86,-35.83 1734.01,-39.74 1738.6,-45.03"/>
<text text-anchor="middle" x="1738.86" y="-39.63" font-family="Times,serif" font-size="14.00">1</text>
</g>
<!-- dra.PlaySfx -->
<g id="node10" class="node">
<title>dra.PlaySfx</title>
<g id="a_node10"><a xlink:href="dra.PlaySfx.svg" xlink:title="dra.PlaySfx">
<ellipse fill="green" stroke="black" cx="1944.24" cy="-18" rx="64.19" ry="18"/>
<text text-anchor="middle" x="1944.24" y="-14.3" font-family="Times,serif" font-size="14.00">dra.PlaySfx</text>
</a>
</g>
</g>
<!-- cen.HitDetection&#45;&gt;dra.PlaySfx -->
<g id="edge9" class="edge">
<title>cen.HitDetection&#45;&gt;dra.PlaySfx</title>
<path fill="none" stroke="black" d="M1592.5,-181.2C1663.45,-148.48 1826.25,-73.41 1902.9,-38.07"/>
<polygon fill="black" stroke="black" points="1904.63,-41.12 1912.25,-33.75 1901.7,-34.76 1904.63,-41.12"/>
<text text-anchor="middle" x="1907.25" y="-37.55" font-family="Times,serif" font-size="14.00">4</text>
</g>
<!-- dra.func_800FE044 -->
<g id="node11" class="node">
<title>dra.func_800FE044</title>
<g id="a_node11"><a xlink:href="dra.func_800FE044.svg" xlink:title="dra.func_800FE044">
<ellipse fill="green" stroke="black" cx="2128.24" cy="-18" rx="102.08" ry="18"/>
<text text-anchor="middle" x="2128.24" y="-14.3" font-family="Times,serif" font-size="14.00">dra.func_800FE044</text>
</a>
</g>
</g>
<!-- cen.HitDetection&#45;&gt;dra.func_800FE044 -->
<g id="edge10" class="edge">
<title>cen.HitDetection&#45;&gt;dra.func_800FE044</title>
<path fill="none" stroke="black" d="M1604.41,-182.58C1707.7,-150.33 1957.27,-72.39 2070.57,-37.01"/>
<polygon fill="black" stroke="black" points="2071.94,-40.25 2080.45,-33.93 2069.86,-33.57 2071.94,-40.25"/>
<text text-anchor="middle" x="2075.45" y="-37.73" font-family="Times,serif" font-size="14.00">1</text>
</g>
<!-- dra.func_800FF460 -->
<g id="node12" class="node">
<title>dra.func_800FF460</title>
<g id="a_node12"><a xlink:href="dra.func_800FF460.svg" xlink:title="dra.func_800FF460">
<ellipse fill="green" stroke="black" cx="2349.24" cy="-18" rx="101.28" ry="18"/>
<text text-anchor="middle" x="2349.24" y="-14.3" font-family="Times,serif" font-size="14.00">dra.func_800FF460</text>
</a>
</g>
</g>
<!-- cen.HitDetection&#45;&gt;dra.func_800FF460 -->
<g id="edge11" class="edge">
<title>cen.HitDetection&#45;&gt;dra.func_800FF460</title>
<path fill="none" stroke="black" d="M1615.45,-184.13C1757.3,-152.21 2124.92,-69.48 2279.32,-34.73"/>
<polygon fill="black" stroke="black" points="2280.19,-38.13 2289.18,-32.52 2278.66,-31.3 2280.19,-38.13"/>
<text text-anchor="middle" x="2284.18" y="-36.32" font-family="Times,serif" font-size="14.00">1</text>
</g>
<!-- dra.func_800FF494 -->
<g id="node13" class="node">
<title>dra.func_800FF494</title>
<g id="a_node13"><a xlink:href="dra.func_800FF494.svg" xlink:title="dra.func_800FF494">
<ellipse fill="green" stroke="black" cx="2570.24" cy="-18" rx="101.28" ry="18"/>
<text text-anchor="middle" x="2570.24" y="-14.3" font-family="Times,serif" font-size="14.00">dra.func_800FF494</text>
</a>
</g>
</g>
<!-- cen.HitDetection&#45;&gt;dra.func_800FF494 -->
<g id="edge12" class="edge">
<title>cen.HitDetection&#45;&gt;dra.func_800FF494</title>
<path fill="none" stroke="black" d="M1623.09,-185.59C1801.06,-154.29 2296.73,-67.11 2490.84,-32.97"/>
<polygon fill="black" stroke="black" points="2491.73,-36.36 2500.97,-31.18 2490.51,-29.47 2491.73,-36.36"/>
<text text-anchor="middle" x="2495.97" y="-34.98" font-family="Times,serif" font-size="14.00">1</text>
</g>
<!-- rand -->
<g id="node14" class="node">
<title>rand</title>
<g id="a_node14"><a xlink:href="rand.svg" xlink:title="rand">
<ellipse fill="lightblue" stroke="black" cx="2722.24" cy="-18" rx="32.49" ry="18"/>
<text text-anchor="middle" x="2722.24" y="-14.3" font-family="Times,serif" font-size="14.00">rand</text>
</a>
</g>
</g>
<!-- cen.HitDetection&#45;&gt;rand -->
<g id="edge13" class="edge">
<title>cen.HitDetection&#45;&gt;rand</title>
<path fill="none" stroke="black" d="M1642.33,-191.9C1830.95,-178.97 2300.97,-138.34 2680.24,-36 2682.86,-35.29 2685.53,-34.47 2688.2,-33.57"/>
<polygon fill="black" stroke="black" points="2689.53,-36.81 2697.71,-30.08 2687.12,-30.24 2689.53,-36.81"/>
<text text-anchor="middle" x="2692.71" y="-33.88" font-family="Times,serif" font-size="14.00">2</text>
</g>
</g>
</svg>
