<?xml version="1.0" encoding="UTF-8" standalone="no"?>
<!DOCTYPE svg PUBLIC "-//W3C//DTD SVG 1.1//EN"
 "http://www.w3.org/Graphics/SVG/1.1/DTD/svg11.dtd">
<!-- Generated by graphviz version 2.43.0 (0)
 -->
<!-- Title: cen.EntitySoulStealOrb Pages: 1 -->
<svg width="1999pt" height="224pt"
 viewBox="0.00 0.00 1999.28 224.00" xmlns="http://www.w3.org/2000/svg" xmlns:xlink="http://www.w3.org/1999/xlink">
<g id="graph0" class="graph" transform="scale(1 1) rotate(0) translate(4 220)">
<title>cen.EntitySoulStealOrb</title>
<polygon fill="white" stroke="transparent" points="-4,4 -4,-220 1995.28,-220 1995.28,4 -4,4"/>
<!-- cen.EntitySoulStealOrb -->
<g id="node1" class="node">
<title>cen.EntitySoulStealOrb</title>
<ellipse fill="green" stroke="black" cx="1105.84" cy="-198" rx="120.48" ry="18"/>
<text text-anchor="middle" x="1105.84" y="-194.3" font-family="Times,serif" font-size="14.00">cen.EntitySoulStealOrb</text>
</g>
<!-- cen.AnimateEntity -->
<g id="node2" class="node">
<title>cen.AnimateEntity</title>
<g id="a_node2"><a xlink:href="cen.AnimateEntity.svg" xlink:title="cen.AnimateEntity">
<ellipse fill="green" stroke="black" cx="96.84" cy="-18" rx="96.68" ry="18"/>
<text text-anchor="middle" x="96.84" y="-14.3" font-family="Times,serif" font-size="14.00">cen.AnimateEntity</text>
</a>
</g>
</g>
<!-- cen.EntitySoulStealOrb&#45;&gt;cen.AnimateEntity -->
<g id="edge1" class="edge">
<title>cen.EntitySoulStealOrb&#45;&gt;cen.AnimateEntity</title>
<path fill="none" stroke="black" d="M1031.24,-183.84C845.36,-151.05 363.02,-65.96 174.22,-32.65"/>
<polygon fill="black" stroke="black" points="174.83,-29.2 164.37,-30.91 173.61,-36.1 174.83,-29.2"/>
<text text-anchor="middle" x="159.37" y="-34.71" font-family="Times,serif" font-size="14.00">1</text>
</g>
<!-- cen.DestroyEntity -->
<g id="node3" class="node">
<title>cen.DestroyEntity</title>
<g id="a_node3"><a xlink:href="cen.DestroyEntity.svg" xlink:title="cen.DestroyEntity">
<ellipse fill="green" stroke="black" cx="306.84" cy="-18" rx="94.78" ry="18"/>
<text text-anchor="middle" x="306.84" y="-14.3" font-family="Times,serif" font-size="14.00">cen.DestroyEntity</text>
</a>
</g>
</g>
<!-- cen.EntitySoulStealOrb&#45;&gt;cen.DestroyEntity -->
<g id="edge2" class="edge">
<title>cen.EntitySoulStealOrb&#45;&gt;cen.DestroyEntity</title>
<path fill="none" stroke="black" d="M1041.81,-182.73C893.75,-149.75 528.76,-68.44 375.91,-34.39"/>
<polygon fill="black" stroke="black" points="376.24,-30.87 365.72,-32.12 374.72,-37.71 376.24,-30.87"/>
<text text-anchor="middle" x="360.72" y="-35.92" font-family="Times,serif" font-size="14.00">1</text>
</g>
<!-- cen.GetAngleBetweenEntities -->
<g id="node4" class="node">
<title>cen.GetAngleBetweenEntities</title>
<g id="a_node4"><a xlink:href="cen.GetAngleBetweenEntities.svg" xlink:title="cen.GetAngleBetweenEntities">
<ellipse fill="green" stroke="black" cx="568.84" cy="-18" rx="149.47" ry="18"/>
<text text-anchor="middle" x="568.84" y="-14.3" font-family="Times,serif" font-size="14.00">cen.GetAngleBetweenEntities</text>
</a>
</g>
</g>
<!-- cen.EntitySoulStealOrb&#45;&gt;cen.GetAngleBetweenEntities -->
<g id="edge3" class="edge">
<title>cen.EntitySoulStealOrb&#45;&gt;cen.GetAngleBetweenEntities</title>
<path fill="none" stroke="black" d="M1058.66,-181.36C960.38,-148.78 733.98,-73.74 626.94,-38.26"/>
<polygon fill="black" stroke="black" points="627.86,-34.88 617.27,-35.05 625.66,-41.52 627.86,-34.88"/>
<text text-anchor="middle" x="612.27" y="-38.85" font-family="Times,serif" font-size="14.00">2</text>
</g>
<!-- cen.GetNormalizedAngle -->
<g id="node5" class="node">
<title>cen.GetNormalizedAngle</title>
<g id="a_node5"><a xlink:href="cen.GetNormalizedAngle.svg" xlink:title="cen.GetNormalizedAngle">
<ellipse fill="green" stroke="black" cx="862.84" cy="-18" rx="126.18" ry="18"/>
<text text-anchor="middle" x="862.84" y="-14.3" font-family="Times,serif" font-size="14.00">cen.GetNormalizedAngle</text>
</a>
</g>
</g>
<!-- cen.EntitySoulStealOrb&#45;&gt;cen.GetNormalizedAngle -->
<g id="edge4" class="edge">
<title>cen.EntitySoulStealOrb&#45;&gt;cen.GetNormalizedAngle</title>
<path fill="none" stroke="black" d="M1082.98,-180.25C1039.2,-148.18 943.48,-78.07 893.93,-41.78"/>
<polygon fill="black" stroke="black" points="895.95,-38.92 885.82,-35.83 891.82,-44.56 895.95,-38.92"/>
<text text-anchor="middle" x="880.82" y="-39.63" font-family="Times,serif" font-size="14.00">1</text>
</g>
<!-- cen.InitializeEntity -->
<g id="node6" class="node">
<title>cen.InitializeEntity</title>
<g id="a_node6"><a xlink:href="cen.InitializeEntity.svg" xlink:title="cen.InitializeEntity">
<ellipse fill="green" stroke="black" cx="1105.84" cy="-18" rx="98.58" ry="18"/>
<text text-anchor="middle" x="1105.84" y="-14.3" font-family="Times,serif" font-size="14.00">cen.InitializeEntity</text>
</a>
</g>
</g>
<!-- cen.EntitySoulStealOrb&#45;&gt;cen.InitializeEntity -->
<g id="edge5" class="edge">
<title>cen.EntitySoulStealOrb&#45;&gt;cen.InitializeEntity</title>
<path fill="none" stroke="black" d="M1105.84,-179.93C1105.84,-148.97 1105.84,-83.3 1105.84,-46.13"/>
<polygon fill="black" stroke="black" points="1109.34,-46.02 1105.84,-36.02 1102.34,-46.02 1109.34,-46.02"/>
<text text-anchor="middle" x="1100.84" y="-39.82" font-family="Times,serif" font-size="14.00">1</text>
</g>
<!-- cen.MoveEntity -->
<g id="node7" class="node">
<title>cen.MoveEntity</title>
<g id="a_node7"><a xlink:href="cen.MoveEntity.svg" xlink:title="cen.MoveEntity">
<ellipse fill="green" stroke="black" cx="1306.84" cy="-18" rx="83.69" ry="18"/>
<text text-anchor="middle" x="1306.84" y="-14.3" font-family="Times,serif" font-size="14.00">cen.MoveEntity</text>
</a>
</g>
</g>
<!-- cen.EntitySoulStealOrb&#45;&gt;cen.MoveEntity -->
<g id="edge6" class="edge">
<title>cen.EntitySoulStealOrb&#45;&gt;cen.MoveEntity</title>
<path fill="none" stroke="black" d="M1125.11,-179.93C1161.22,-147.95 1239.12,-78.97 1280.22,-42.58"/>
<polygon fill="black" stroke="black" points="1282.75,-45.01 1287.92,-35.76 1278.11,-39.77 1282.75,-45.01"/>
<text text-anchor="middle" x="1282.92" y="-39.56" font-family="Times,serif" font-size="14.00">1</text>
</g>
<!-- cen.Random -->
<g id="node8" class="node">
<title>cen.Random</title>
<g id="a_node8"><a xlink:href="cen.Random.svg" xlink:title="cen.Random">
<ellipse fill="green" stroke="black" cx="1475.84" cy="-18" rx="67.69" ry="18"/>
<text text-anchor="middle" x="1475.84" y="-14.3" font-family="Times,serif" font-size="14.00">cen.Random</text>
</a>
</g>
</g>
<!-- cen.EntitySoulStealOrb&#45;&gt;cen.Random -->
<g id="edge7" class="edge">
<title>cen.EntitySoulStealOrb&#45;&gt;cen.Random</title>
<path fill="none" stroke="black" d="M1139.99,-180.57C1208.39,-147.67 1361.91,-73.81 1435.29,-38.51"/>
<polygon fill="black" stroke="black" points="1437.18,-41.48 1444.67,-33.99 1434.15,-35.18 1437.18,-41.48"/>
<text text-anchor="middle" x="1439.67" y="-37.79" font-family="Times,serif" font-size="14.00">2</text>
</g>
<!-- cen.UnkEntityFunc0 -->
<g id="node9" class="node">
<title>cen.UnkEntityFunc0</title>
<g id="a_node9"><a xlink:href="cen.UnkEntityFunc0.svg" xlink:title="cen.UnkEntityFunc0">
<ellipse fill="green" stroke="black" cx="1667.84" cy="-18" rx="106.68" ry="18"/>
<text text-anchor="middle" x="1667.84" y="-14.3" font-family="Times,serif" font-size="14.00">cen.UnkEntityFunc0</text>
</a>
</g>
</g>
<!-- cen.EntitySoulStealOrb&#45;&gt;cen.UnkEntityFunc0 -->
<g id="edge8" class="edge">
<title>cen.EntitySoulStealOrb&#45;&gt;cen.UnkEntityFunc0</title>
<path fill="none" stroke="black" d="M1154.73,-181.52C1258.29,-148.71 1499.34,-72.37 1610.19,-37.26"/>
<polygon fill="black" stroke="black" points="1611.39,-40.55 1619.86,-34.2 1609.27,-33.88 1611.39,-40.55"/>
<text text-anchor="middle" x="1614.86" y="-38" font-family="Times,serif" font-size="14.00">1</text>
</g>
<!-- dra.AllocPrimitives -->
<g id="node10" class="node">
<title>dra.AllocPrimitives</title>
<g id="a_node10"><a xlink:href="dra.AllocPrimitives.svg" xlink:title="dra.AllocPrimitives">
<ellipse fill="green" stroke="black" cx="1891.84" cy="-18" rx="99.38" ry="18"/>
<text text-anchor="middle" x="1891.84" y="-14.3" font-family="Times,serif" font-size="14.00">dra.AllocPrimitives</text>
</a>
</g>
</g>
<!-- cen.EntitySoulStealOrb&#45;&gt;dra.AllocPrimitives -->
<g id="edge9" class="edge">
<title>cen.EntitySoulStealOrb&#45;&gt;dra.AllocPrimitives</title>
<path fill="none" stroke="black" d="M1169.17,-182.66C1314.51,-149.74 1671.14,-68.98 1822.31,-34.75"/>
<polygon fill="black" stroke="black" points="1823.42,-38.08 1832.4,-32.46 1821.87,-31.26 1823.42,-38.08"/>
<text text-anchor="middle" x="1827.4" y="-36.26" font-family="Times,serif" font-size="14.00">1</text>
</g>
</g>
</svg>
