<?xml version="1.0" encoding="UTF-8" standalone="no"?>
<!DOCTYPE svg PUBLIC "-//W3C//DTD SVG 1.1//EN"
 "http://www.w3.org/Graphics/SVG/1.1/DTD/svg11.dtd">
<!-- Generated by graphviz version 2.43.0 (0)
 -->
<!-- Title: cen.InitializeEntity Pages: 1 -->
<svg width="6435pt" height="224pt"
 viewBox="0.00 0.00 6435.08 224.00" xmlns="http://www.w3.org/2000/svg" xmlns:xlink="http://www.w3.org/1999/xlink">
<g id="graph0" class="graph" transform="scale(1 1) rotate(0) translate(4 220)">
<title>cen.InitializeEntity</title>
<polygon fill="white" stroke="transparent" points="-4,4 -4,-220 6431.08,-220 6431.08,4 -4,4"/>
<!-- cen.InitializeEntity -->
<g id="node1" class="node">
<title>cen.InitializeEntity</title>
<ellipse fill="green" stroke="black" cx="3385.74" cy="-18" rx="98.58" ry="18"/>
<text text-anchor="middle" x="3385.74" y="-14.3" font-family="Times,serif" font-size="14.00">cen.InitializeEntity</text>
</g>
<!-- cen.EntityBackgroundBlock -->
<g id="node2" class="node">
<title>cen.EntityBackgroundBlock</title>
<g id="a_node2"><a xlink:href="cen.EntityBackgroundBlock.svg" xlink:title="cen.EntityBackgroundBlock">
<ellipse fill="green" stroke="black" cx="139.74" cy="-198" rx="139.98" ry="18"/>
<text text-anchor="middle" x="139.74" y="-194.3" font-family="Times,serif" font-size="14.00">cen.EntityBackgroundBlock</text>
</a>
</g>
</g>
<!-- cen.EntityBackgroundBlock&#45;&gt;cen.InitializeEntity -->
<g id="edge1" class="edge">
<title>cen.EntityBackgroundBlock&#45;&gt;cen.InitializeEntity</title>
<path fill="none" stroke="black" d="M237.03,-185.02C254.24,-183.16 272,-181.39 288.74,-180 1458.74,-82.94 2882.57,-34.42 3278.92,-22.16"/>
<polygon fill="black" stroke="black" points="3279.05,-25.66 3288.93,-21.86 3278.83,-18.67 3279.05,-25.66"/>
<text text-anchor="middle" x="232.03" y="-173.82" font-family="Times,serif" font-size="14.00">1</text>
</g>
<!-- cen.EntityBigRedFireball -->
<g id="node3" class="node">
<title>cen.EntityBigRedFireball</title>
<g id="a_node3"><a xlink:href="cen.EntityBigRedFireball.svg" xlink:title="cen.EntityBigRedFireball">
<ellipse fill="green" stroke="black" cx="425.74" cy="-198" rx="128.08" ry="18"/>
<text text-anchor="middle" x="425.74" y="-194.3" font-family="Times,serif" font-size="14.00">cen.EntityBigRedFireball</text>
</a>
</g>
</g>
<!-- cen.EntityBigRedFireball&#45;&gt;cen.InitializeEntity -->
<g id="edge2" class="edge">
<title>cen.EntityBigRedFireball&#45;&gt;cen.InitializeEntity</title>
<path fill="none" stroke="black" d="M515.18,-185.03C531.01,-183.16 547.34,-181.39 562.74,-180 1620.17,-84.35 2905.89,-35.4 3279.35,-22.52"/>
<polygon fill="black" stroke="black" points="3279.73,-26 3289.6,-22.16 3279.49,-19.01 3279.73,-26"/>
<text text-anchor="middle" x="510.18" y="-173.83" font-family="Times,serif" font-size="14.00">1</text>
</g>
<!-- cen.EntityDamageDisplay -->
<g id="node4" class="node">
<title>cen.EntityDamageDisplay</title>
<g id="a_node4"><a xlink:href="cen.EntityDamageDisplay.svg" xlink:title="cen.EntityDamageDisplay">
<ellipse fill="green" stroke="black" cx="702.74" cy="-198" rx="131.08" ry="18"/>
<text text-anchor="middle" x="702.74" y="-194.3" font-family="Times,serif" font-size="14.00">cen.EntityDamageDisplay</text>
</a>
</g>
</g>
<!-- cen.EntityDamageDisplay&#45;&gt;cen.InitializeEntity -->
<g id="edge3" class="edge">
<title>cen.EntityDamageDisplay&#45;&gt;cen.InitializeEntity</title>
<path fill="none" stroke="black" d="M794.53,-185.09C810.58,-183.22 827.13,-181.44 842.74,-180 1786.84,-92.87 2932.54,-38.78 3280.56,-23.48"/>
<polygon fill="black" stroke="black" points="3280.78,-26.98 3290.62,-23.04 3280.47,-19.98 3280.78,-26.98"/>
<text text-anchor="middle" x="789.53" y="-173.89" font-family="Times,serif" font-size="14.00">1</text>
</g>
<!-- cen.EntityElevatorStationary -->
<g id="node5" class="node">
<title>cen.EntityElevatorStationary</title>
<g id="a_node5"><a xlink:href="cen.EntityElevatorStationary.svg" xlink:title="cen.EntityElevatorStationary">
<ellipse fill="green" stroke="black" cx="998.74" cy="-198" rx="146.77" ry="18"/>
<text text-anchor="middle" x="998.74" y="-194.3" font-family="Times,serif" font-size="14.00">cen.EntityElevatorStationary</text>
</a>
</g>
</g>
<!-- cen.EntityElevatorStationary&#45;&gt;cen.InitializeEntity -->
<g id="edge4" class="edge">
<title>cen.EntityElevatorStationary&#45;&gt;cen.InitializeEntity</title>
<path fill="none" stroke="black" d="M1102.32,-185.18C1119.8,-183.33 1137.78,-181.54 1154.74,-180 1974.69,-105.76 2966.68,-44.06 3283.38,-25.05"/>
<polygon fill="black" stroke="black" points="3283.69,-28.54 3293.46,-24.45 3283.27,-21.55 3283.69,-28.54"/>
<text text-anchor="middle" x="1097.32" y="-173.98" font-family="Times,serif" font-size="14.00">1</text>
</g>
<!-- cen.EntityEnemyBlood -->
<g id="node6" class="node">
<title>cen.EntityEnemyBlood</title>
<g id="a_node6"><a xlink:href="cen.EntityEnemyBlood.svg" xlink:title="cen.EntityEnemyBlood">
<ellipse fill="green" stroke="black" cx="1280.74" cy="-198" rx="116.98" ry="18"/>
<text text-anchor="middle" x="1280.74" y="-194.3" font-family="Times,serif" font-size="14.00">cen.EntityEnemyBlood</text>
</a>
</g>
</g>
<!-- cen.EntityEnemyBlood&#45;&gt;cen.InitializeEntity -->
<g id="edge5" class="edge">
<title>cen.EntityEnemyBlood&#45;&gt;cen.InitializeEntity</title>
<path fill="none" stroke="black" d="M1363.35,-185.22C1377.79,-183.34 1392.69,-181.52 1406.74,-180 2123.94,-102.5 2991.01,-44.12 3283.67,-25.39"/>
<polygon fill="black" stroke="black" points="3284.08,-28.87 3293.84,-24.74 3283.64,-21.88 3284.08,-28.87"/>
<text text-anchor="middle" x="1358.35" y="-174.02" font-family="Times,serif" font-size="14.00">1</text>
</g>
<!-- cen.EntityEquipItemDrop -->
<g id="node7" class="node">
<title>cen.EntityEquipItemDrop</title>
<g id="a_node7"><a xlink:href="cen.EntityEquipItemDrop.svg" xlink:title="cen.EntityEquipItemDrop">
<ellipse fill="green" stroke="black" cx="1545.74" cy="-198" rx="129.98" ry="18"/>
<text text-anchor="middle" x="1545.74" y="-194.3" font-family="Times,serif" font-size="14.00">cen.EntityEquipItemDrop</text>
</a>
</g>
</g>
<!-- cen.EntityEquipItemDrop&#45;&gt;cen.InitializeEntity -->
<g id="edge6" class="edge">
<title>cen.EntityEquipItemDrop&#45;&gt;cen.InitializeEntity</title>
<path fill="none" stroke="black" d="M1638.41,-185.31C1653.87,-183.46 1669.75,-181.63 1684.74,-180 2293.69,-113.96 3026.97,-49.71 3287.81,-27.33"/>
<polygon fill="black" stroke="black" points="3288.35,-30.79 3298.01,-26.45 3287.75,-23.82 3288.35,-30.79"/>
<text text-anchor="middle" x="1633.41" y="-174.11" font-family="Times,serif" font-size="14.00">1</text>
</g>
<!-- cen.EntityExplosion -->
<g id="node8" class="node">
<title>cen.EntityExplosion</title>
<g id="a_node8"><a xlink:href="cen.EntityExplosion.svg" xlink:title="cen.EntityExplosion">
<ellipse fill="green" stroke="black" cx="1797.74" cy="-198" rx="103.98" ry="18"/>
<text text-anchor="middle" x="1797.74" y="-194.3" font-family="Times,serif" font-size="14.00">cen.EntityExplosion</text>
</a>
</g>
</g>
<!-- cen.EntityExplosion&#45;&gt;cen.InitializeEntity -->
<g id="edge7" class="edge">
<title>cen.EntityExplosion&#45;&gt;cen.InitializeEntity</title>
<path fill="none" stroke="black" d="M1872.14,-185.37C1885,-183.48 1898.24,-181.62 1910.74,-180 2430.21,-112.6 3055.1,-50.69 3290.16,-28.08"/>
<polygon fill="black" stroke="black" points="3290.76,-31.53 3300.38,-27.09 3290.09,-24.57 3290.76,-31.53"/>
<text text-anchor="middle" x="1867.14" y="-174.17" font-family="Times,serif" font-size="14.00">1</text>
</g>
<!-- cen.EntityIntenseExplosion -->
<g id="node9" class="node">
<title>cen.EntityIntenseExplosion</title>
<g id="a_node9"><a xlink:href="cen.EntityIntenseExplosion.svg" xlink:title="cen.EntityIntenseExplosion">
<ellipse fill="green" stroke="black" cx="2057.74" cy="-198" rx="138.38" ry="18"/>
<text text-anchor="middle" x="2057.74" y="-194.3" font-family="Times,serif" font-size="14.00">cen.EntityIntenseExplosion</text>
</a>
</g>
</g>
<!-- cen.EntityIntenseExplosion&#45;&gt;cen.InitializeEntity -->
<g id="edge8" class="edge">
<title>cen.EntityIntenseExplosion&#45;&gt;cen.InitializeEntity</title>
<path fill="none" stroke="black" d="M2150.33,-184.59C2395.55,-151.72 3059.39,-62.74 3298.45,-30.7"/>
<polygon fill="black" stroke="black" points="3299.04,-34.15 3308.49,-29.35 3298.11,-27.21 3299.04,-34.15"/>
<text text-anchor="middle" x="2145.33" y="-173.39" font-family="Times,serif" font-size="14.00">1</text>
</g>
<!-- cen.EntityMaria -->
<g id="node10" class="node">
<title>cen.EntityMaria</title>
<g id="a_node10"><a xlink:href="cen.EntityMaria.svg" xlink:title="cen.EntityMaria">
<ellipse fill="green" stroke="black" cx="2299.74" cy="-198" rx="85.59" ry="18"/>
<text text-anchor="middle" x="2299.74" y="-194.3" font-family="Times,serif" font-size="14.00">cen.EntityMaria</text>
</a>
</g>
</g>
<!-- cen.EntityMaria&#45;&gt;cen.InitializeEntity -->
<g id="edge9" class="edge">
<title>cen.EntityMaria&#45;&gt;cen.InitializeEntity</title>
<path fill="none" stroke="black" d="M2362.31,-185.66C2373.12,-183.74 2384.25,-181.79 2394.74,-180 2731.5,-122.52 3133.49,-58.68 3303.43,-31.91"/>
<polygon fill="black" stroke="black" points="3304.22,-35.33 3313.55,-30.32 3303.13,-28.42 3304.22,-35.33"/>
<text text-anchor="middle" x="2357.31" y="-174.46" font-family="Times,serif" font-size="14.00">1</text>
</g>
<!-- cen.EntityMessageBox -->
<g id="node11" class="node">
<title>cen.EntityMessageBox</title>
<g id="a_node11"><a xlink:href="cen.EntityMessageBox.svg" xlink:title="cen.EntityMessageBox">
<ellipse fill="green" stroke="black" cx="2520.74" cy="-198" rx="116.98" ry="18"/>
<text text-anchor="middle" x="2520.74" y="-194.3" font-family="Times,serif" font-size="14.00">cen.EntityMessageBox</text>
</a>
</g>
</g>
<!-- cen.EntityMessageBox&#45;&gt;cen.InitializeEntity -->
<g id="edge10" class="edge">
<title>cen.EntityMessageBox&#45;&gt;cen.InitializeEntity</title>
<path fill="none" stroke="black" d="M2587.89,-183.18C2747.3,-150.38 3147.49,-68.03 3312.67,-34.03"/>
<polygon fill="black" stroke="black" points="3313.65,-37.41 3322.74,-31.96 3312.24,-30.55 3313.65,-37.41"/>
<text text-anchor="middle" x="2582.89" y="-171.98" font-family="Times,serif" font-size="14.00">1</text>
</g>
<!-- cen.EntityMovingElevator -->
<g id="node12" class="node">
<title>cen.EntityMovingElevator</title>
<g id="a_node12"><a xlink:href="cen.EntityMovingElevator.svg" xlink:title="cen.EntityMovingElevator">
<ellipse fill="green" stroke="black" cx="2788.74" cy="-198" rx="132.68" ry="18"/>
<text text-anchor="middle" x="2788.74" y="-194.3" font-family="Times,serif" font-size="14.00">cen.EntityMovingElevator</text>
</a>
</g>
</g>
<!-- cen.EntityMovingElevator&#45;&gt;cen.InitializeEntity -->
<g id="edge11" class="edge">
<title>cen.EntityMovingElevator&#45;&gt;cen.InitializeEntity</title>
<path fill="none" stroke="black" d="M2840.93,-181.44C2951.77,-148.39 3210.01,-71.39 3326.67,-36.61"/>
<polygon fill="black" stroke="black" points="3327.92,-39.89 3336.5,-33.68 3325.92,-33.18 3327.92,-39.89"/>
<text text-anchor="middle" x="2835.93" y="-170.24" font-family="Times,serif" font-size="14.00">1</text>
</g>
<!-- cen.EntityOlroxDrool -->
<g id="node13" class="node">
<title>cen.EntityOlroxDrool</title>
<g id="a_node13"><a xlink:href="cen.EntityOlroxDrool.svg" xlink:title="cen.EntityOlroxDrool">
<ellipse fill="green" stroke="black" cx="3048.74" cy="-198" rx="109.38" ry="18"/>
<text text-anchor="middle" x="3048.74" y="-194.3" font-family="Times,serif" font-size="14.00">cen.EntityOlroxDrool</text>
</a>
</g>
</g>
<!-- cen.EntityOlroxDrool&#45;&gt;cen.InitializeEntity -->
<g id="edge12" class="edge">
<title>cen.EntityOlroxDrool&#45;&gt;cen.InitializeEntity</title>
<path fill="none" stroke="black" d="M3079.84,-180.57C3141.31,-148.1 3278.27,-75.76 3346.1,-39.94"/>
<polygon fill="black" stroke="black" points="3347.99,-42.9 3355.2,-35.13 3344.72,-36.71 3347.99,-42.9"/>
<text text-anchor="middle" x="3074.84" y="-169.37" font-family="Times,serif" font-size="14.00">1</text>
</g>
<!-- cen.EntityPlatform -->
<g id="node14" class="node">
<title>cen.EntityPlatform</title>
<g id="a_node14"><a xlink:href="cen.EntityPlatform.svg" xlink:title="cen.EntityPlatform">
<ellipse fill="green" stroke="black" cx="3274.74" cy="-198" rx="98.58" ry="18"/>
<text text-anchor="middle" x="3274.74" y="-194.3" font-family="Times,serif" font-size="14.00">cen.EntityPlatform</text>
</a>
</g>
</g>
<!-- cen.EntityPlatform&#45;&gt;cen.InitializeEntity -->
<g id="edge13" class="edge">
<title>cen.EntityPlatform&#45;&gt;cen.InitializeEntity</title>
<path fill="none" stroke="black" d="M3285.38,-179.93C3304.94,-148.57 3346.7,-81.6 3369.71,-44.71"/>
<polygon fill="black" stroke="black" points="3372.81,-46.35 3375.13,-36.02 3366.87,-42.65 3372.81,-46.35"/>
<text text-anchor="middle" x="3280.38" y="-168.73" font-family="Times,serif" font-size="14.00">1</text>
</g>
<!-- cen.EntityPrizeDrop -->
<g id="node15" class="node">
<title>cen.EntityPrizeDrop</title>
<g id="a_node15"><a xlink:href="cen.EntityPrizeDrop.svg" xlink:title="cen.EntityPrizeDrop">
<ellipse fill="green" stroke="black" cx="3496.74" cy="-198" rx="105.08" ry="18"/>
<text text-anchor="middle" x="3496.74" y="-194.3" font-family="Times,serif" font-size="14.00">cen.EntityPrizeDrop</text>
</a>
</g>
</g>
<!-- cen.EntityPrizeDrop&#45;&gt;cen.InitializeEntity -->
<g id="edge14" class="edge">
<title>cen.EntityPrizeDrop&#45;&gt;cen.InitializeEntity</title>
<path fill="none" stroke="black" d="M3486.09,-179.93C3466.54,-148.57 3424.78,-81.6 3401.77,-44.71"/>
<polygon fill="black" stroke="black" points="3404.61,-42.65 3396.35,-36.02 3398.67,-46.35 3404.61,-42.65"/>
<text text-anchor="middle" x="3481.09" y="-168.73" font-family="Times,serif" font-size="14.00">1</text>
</g>
<!-- cen.EntityRedDoor -->
<g id="node16" class="node">
<title>cen.EntityRedDoor</title>
<g id="a_node16"><a xlink:href="cen.EntityRedDoor.svg" xlink:title="cen.EntityRedDoor">
<ellipse fill="green" stroke="black" cx="3718.74" cy="-198" rx="98.58" ry="18"/>
<text text-anchor="middle" x="3718.74" y="-194.3" font-family="Times,serif" font-size="14.00">cen.EntityRedDoor</text>
</a>
</g>
</g>
<!-- cen.EntityRedDoor&#45;&gt;cen.InitializeEntity -->
<g id="edge15" class="edge">
<title>cen.EntityRedDoor&#45;&gt;cen.InitializeEntity</title>
<path fill="none" stroke="black" d="M3688.3,-180.73C3627.73,-148.35 3492.15,-75.88 3424.99,-39.98"/>
<polygon fill="black" stroke="black" points="3426.45,-36.79 3415.98,-35.17 3423.15,-42.97 3426.45,-36.79"/>
<text text-anchor="middle" x="3683.3" y="-169.53" font-family="Times,serif" font-size="14.00">1</text>
</g>
<!-- cen.EntityRelicOrb -->
<g id="node17" class="node">
<title>cen.EntityRelicOrb</title>
<g id="a_node17"><a xlink:href="cen.EntityRelicOrb.svg" xlink:title="cen.EntityRelicOrb">
<ellipse fill="green" stroke="black" cx="3934.74" cy="-198" rx="98.58" ry="18"/>
<text text-anchor="middle" x="3934.74" y="-194.3" font-family="Times,serif" font-size="14.00">cen.EntityRelicOrb</text>
</a>
</g>
</g>
<!-- cen.EntityRelicOrb&#45;&gt;cen.InitializeEntity -->
<g id="edge16" class="edge">
<title>cen.EntityRelicOrb&#45;&gt;cen.InitializeEntity</title>
<path fill="none" stroke="black" d="M3888.4,-181.98C3788,-149.43 3550.69,-72.48 3441.94,-37.22"/>
<polygon fill="black" stroke="black" points="3442.73,-33.8 3432.14,-34.05 3440.57,-40.46 3442.73,-33.8"/>
<text text-anchor="middle" x="3883.4" y="-170.78" font-family="Times,serif" font-size="14.00">1</text>
</g>
<!-- cen.EntityRoomDarkness -->
<g id="node18" class="node">
<title>cen.EntityRoomDarkness</title>
<g id="a_node18"><a xlink:href="cen.EntityRoomDarkness.svg" xlink:title="cen.EntityRoomDarkness">
<ellipse fill="green" stroke="black" cx="4179.74" cy="-198" rx="128.08" ry="18"/>
<text text-anchor="middle" x="4179.74" y="-194.3" font-family="Times,serif" font-size="14.00">cen.EntityRoomDarkness</text>
</a>
</g>
</g>
<!-- cen.EntityRoomDarkness&#45;&gt;cen.InitializeEntity -->
<g id="edge17" class="edge">
<title>cen.EntityRoomDarkness&#45;&gt;cen.InitializeEntity</title>
<path fill="none" stroke="black" d="M4114.76,-182.43C3967.22,-149.36 3607.97,-68.82 3455.75,-34.69"/>
<polygon fill="black" stroke="black" points="3456.11,-31.19 3445.59,-32.42 3454.58,-38.02 3456.11,-31.19"/>
<text text-anchor="middle" x="4109.76" y="-171.23" font-family="Times,serif" font-size="14.00">1</text>
</g>
<!-- cen.EntitySoulStealOrb -->
<g id="node19" class="node">
<title>cen.EntitySoulStealOrb</title>
<g id="a_node19"><a xlink:href="cen.EntitySoulStealOrb.svg" xlink:title="cen.EntitySoulStealOrb">
<ellipse fill="green" stroke="black" cx="4445.74" cy="-198" rx="120.48" ry="18"/>
<text text-anchor="middle" x="4445.74" y="-194.3" font-family="Times,serif" font-size="14.00">cen.EntitySoulStealOrb</text>
</a>
</g>
</g>
<!-- cen.EntitySoulStealOrb&#45;&gt;cen.InitializeEntity -->
<g id="edge18" class="edge">
<title>cen.EntitySoulStealOrb&#45;&gt;cen.InitializeEntity</title>
<path fill="none" stroke="black" d="M4369.08,-184.13C4174.63,-151.47 3663.6,-65.66 3465.66,-32.42"/>
<polygon fill="black" stroke="black" points="3466.06,-28.94 3455.62,-30.73 3464.9,-35.84 3466.06,-28.94"/>
<text text-anchor="middle" x="4364.08" y="-172.93" font-family="Times,serif" font-size="14.00">1</text>
</g>
<!-- cen.EntityStageNamePopup -->
<g id="node20" class="node">
<title>cen.EntityStageNamePopup</title>
<g id="a_node20"><a xlink:href="cen.EntityStageNamePopup.svg" xlink:title="cen.EntityStageNamePopup">
<ellipse fill="green" stroke="black" cx="4725.74" cy="-198" rx="141.88" ry="18"/>
<text text-anchor="middle" x="4725.74" y="-194.3" font-family="Times,serif" font-size="14.00">cen.EntityStageNamePopup</text>
</a>
</g>
</g>
<!-- cen.EntityStageNamePopup&#45;&gt;cen.InitializeEntity -->
<g id="edge19" class="edge">
<title>cen.EntityStageNamePopup&#45;&gt;cen.InitializeEntity</title>
<path fill="none" stroke="black" d="M4631.78,-184.52C4383.73,-151.57 3713.9,-62.59 3473.29,-30.63"/>
<polygon fill="black" stroke="black" points="3473.56,-27.14 3463.19,-29.29 3472.64,-34.07 3473.56,-27.14"/>
<text text-anchor="middle" x="4626.78" y="-173.32" font-family="Times,serif" font-size="14.00">1</text>
</g>
<!-- cen.EntityUnkId01 -->
<g id="node21" class="node">
<title>cen.EntityUnkId01</title>
<g id="a_node21"><a xlink:href="cen.EntityUnkId01.svg" xlink:title="cen.EntityUnkId01">
<ellipse fill="green" stroke="black" cx="4983.74" cy="-198" rx="98.58" ry="18"/>
<text text-anchor="middle" x="4983.74" y="-194.3" font-family="Times,serif" font-size="14.00">cen.EntityUnkId01</text>
</a>
</g>
</g>
<!-- cen.EntityUnkId01&#45;&gt;cen.InitializeEntity -->
<g id="edge20" class="edge">
<title>cen.EntityUnkId01&#45;&gt;cen.InitializeEntity</title>
<path fill="none" stroke="black" d="M4913.3,-185.3C4901.13,-183.42 4888.58,-181.58 4876.74,-180 4351.68,-109.99 3719.46,-49.57 3482.04,-27.72"/>
<polygon fill="black" stroke="black" points="3482.34,-24.23 3472.06,-26.8 3481.69,-31.2 3482.34,-24.23"/>
<text text-anchor="middle" x="4908.3" y="-174.1" font-family="Times,serif" font-size="14.00">1</text>
</g>
<!-- cen.EntityUnkId08 -->
<g id="node22" class="node">
<title>cen.EntityUnkId08</title>
<g id="a_node22"><a xlink:href="cen.EntityUnkId08.svg" xlink:title="cen.EntityUnkId08">
<ellipse fill="green" stroke="black" cx="5199.74" cy="-198" rx="98.58" ry="18"/>
<text text-anchor="middle" x="5199.74" y="-194.3" font-family="Times,serif" font-size="14.00">cen.EntityUnkId08</text>
</a>
</g>
</g>
<!-- cen.EntityUnkId08&#45;&gt;cen.InitializeEntity -->
<g id="edge21" class="edge">
<title>cen.EntityUnkId08&#45;&gt;cen.InitializeEntity</title>
<path fill="none" stroke="black" d="M5129.53,-185.3C5116.97,-183.39 5103.98,-181.54 5091.74,-180 4483.69,-103.53 3749.56,-45.88 3485.97,-26.27"/>
<polygon fill="black" stroke="black" points="3485.9,-22.76 3475.66,-25.51 3485.38,-29.74 3485.9,-22.76"/>
<text text-anchor="middle" x="5124.53" y="-174.1" font-family="Times,serif" font-size="14.00">1</text>
</g>
<!-- cen.EntityUnkId12 -->
<g id="node23" class="node">
<title>cen.EntityUnkId12</title>
<g id="a_node23"><a xlink:href="cen.EntityUnkId12.svg" xlink:title="cen.EntityUnkId12">
<ellipse fill="green" stroke="black" cx="5415.74" cy="-198" rx="98.58" ry="18"/>
<text text-anchor="middle" x="5415.74" y="-194.3" font-family="Times,serif" font-size="14.00">cen.EntityUnkId12</text>
</a>
</g>
</g>
<!-- cen.EntityUnkId12&#45;&gt;cen.InitializeEntity -->
<g id="edge22" class="edge">
<title>cen.EntityUnkId12&#45;&gt;cen.InitializeEntity</title>
<path fill="none" stroke="black" d="M5345.84,-185.24C5333.18,-183.33 5320.08,-181.49 5307.74,-180 4614.9,-96.56 3776.36,-42.28 3488.5,-24.97"/>
<polygon fill="black" stroke="black" points="3488.68,-21.48 3478.49,-24.37 3488.27,-28.47 3488.68,-21.48"/>
<text text-anchor="middle" x="5340.84" y="-174.04" font-family="Times,serif" font-size="14.00">1</text>
</g>
<!-- cen.EntityUnkId13 -->
<g id="node24" class="node">
<title>cen.EntityUnkId13</title>
<g id="a_node24"><a xlink:href="cen.EntityUnkId13.svg" xlink:title="cen.EntityUnkId13">
<ellipse fill="green" stroke="black" cx="5631.74" cy="-198" rx="98.58" ry="18"/>
<text text-anchor="middle" x="5631.74" y="-194.3" font-family="Times,serif" font-size="14.00">cen.EntityUnkId13</text>
</a>
</g>
</g>
<!-- cen.EntityUnkId13&#45;&gt;cen.InitializeEntity -->
<g id="edge23" class="edge">
<title>cen.EntityUnkId13&#45;&gt;cen.InitializeEntity</title>
<path fill="none" stroke="black" d="M5562.14,-185.2C5549.39,-183.28 5536.18,-181.45 5523.74,-180 4745.25,-89.57 3801.11,-38.98 3490.38,-23.87"/>
<polygon fill="black" stroke="black" points="3490.2,-20.36 3480.04,-23.37 3489.86,-27.35 3490.2,-20.36"/>
<text text-anchor="middle" x="5557.14" y="-174" font-family="Times,serif" font-size="14.00">1</text>
</g>
<!-- cen.EntityUnkId1B -->
<g id="node25" class="node">
<title>cen.EntityUnkId1B</title>
<g id="a_node25"><a xlink:href="cen.EntityUnkId1B.svg" xlink:title="cen.EntityUnkId1B">
<ellipse fill="green" stroke="black" cx="5847.74" cy="-198" rx="99.38" ry="18"/>
<text text-anchor="middle" x="5847.74" y="-194.3" font-family="Times,serif" font-size="14.00">cen.EntityUnkId1B</text>
</a>
</g>
</g>
<!-- cen.EntityUnkId1B&#45;&gt;cen.InitializeEntity -->
<g id="edge24" class="edge">
<title>cen.EntityUnkId1B&#45;&gt;cen.InitializeEntity</title>
<path fill="none" stroke="black" d="M5778.14,-185.13C5765.39,-183.21 5752.19,-181.4 5739.74,-180 4874.79,-82.54 3823.93,-35.95 3491.68,-22.93"/>
<polygon fill="black" stroke="black" points="3491.72,-19.42 3481.59,-22.53 3491.44,-26.42 3491.72,-19.42"/>
<text text-anchor="middle" x="5773.14" y="-173.93" font-family="Times,serif" font-size="14.00">1</text>
</g>
<!-- cen.InitializeUnkEntity -->
<g id="node26" class="node">
<title>cen.InitializeUnkEntity</title>
<g id="a_node26"><a xlink:href="cen.InitializeUnkEntity.svg" xlink:title="cen.InitializeUnkEntity">
<ellipse fill="green" stroke="black" cx="6083.74" cy="-198" rx="118.08" ry="18"/>
<text text-anchor="middle" x="6083.74" y="-194.3" font-family="Times,serif" font-size="14.00">cen.InitializeUnkEntity</text>
</a>
</g>
</g>
<!-- cen.InitializeUnkEntity&#45;&gt;cen.InitializeEntity -->
<g id="edge25" class="edge">
<title>cen.InitializeUnkEntity&#45;&gt;cen.InitializeEntity</title>
<path fill="none" stroke="black" d="M6000.87,-185.14C5985.87,-183.24 5970.35,-181.43 5955.74,-180 5001.57,-86.86 3842.57,-36.79 3491.47,-22.99"/>
<polygon fill="black" stroke="black" points="3491.45,-19.48 3481.32,-22.59 3491.17,-26.48 3491.45,-19.48"/>
<text text-anchor="middle" x="5995.87" y="-173.94" font-family="Times,serif" font-size="14.00">1</text>
</g>
<!-- cen.func_8018DB18 -->
<g id="node27" class="node">
<title>cen.func_8018DB18</title>
<g id="a_node27"><a xlink:href="cen.func_8018DB18.svg" xlink:title="cen.func_8018DB18">
<ellipse fill="green" stroke="black" cx="6323.74" cy="-198" rx="103.18" ry="18"/>
<text text-anchor="middle" x="6323.74" y="-194.3" font-family="Times,serif" font-size="14.00">cen.func_8018DB18</text>
</a>
</g>
</g>
<!-- cen.func_8018DB18&#45;&gt;cen.InitializeEntity -->
<g id="edge26" class="edge">
<title>cen.func_8018DB18&#45;&gt;cen.InitializeEntity</title>
<path fill="none" stroke="black" d="M6251.53,-185.12C6238,-183.18 6223.96,-181.37 6210.74,-180 5154.53,-70.69 3867.91,-31.19 3492.98,-21.54"/>
<polygon fill="black" stroke="black" points="3493.05,-18.04 3482.96,-21.29 3492.87,-25.04 3493.05,-18.04"/>
<text text-anchor="middle" x="6246.53" y="-173.92" font-family="Times,serif" font-size="14.00">1</text>
</g>
</g>
</svg>
