<?xml version="1.0" encoding="UTF-8" standalone="no"?>
<!DOCTYPE svg PUBLIC "-//W3C//DTD SVG 1.1//EN"
 "http://www.w3.org/Graphics/SVG/1.1/DTD/svg11.dtd">
<!-- Generated by graphviz version 2.43.0 (0)
 -->
<!-- Title: cen.EntityUnkId16 Pages: 1 -->
<svg width="3364pt" height="224pt"
 viewBox="0.00 0.00 3364.28 224.00" xmlns="http://www.w3.org/2000/svg" xmlns:xlink="http://www.w3.org/1999/xlink">
<g id="graph0" class="graph" transform="scale(1 1) rotate(0) translate(4 220)">
<title>cen.EntityUnkId16</title>
<polygon fill="white" stroke="transparent" points="-4,4 -4,-220 3360.28,-220 3360.28,4 -4,4"/>
<!-- cen.EntityUnkId16 -->
<g id="node1" class="node">
<title>cen.EntityUnkId16</title>
<ellipse fill="red" stroke="black" cx="1607.74" cy="-198" rx="98.58" ry="18"/>
<text text-anchor="middle" x="1607.74" y="-194.3" font-family="Times,serif" font-size="14.00">cen.EntityUnkId16</text>
</g>
<!-- LoadTPage -->
<g id="node2" class="node">
<title>LoadTPage</title>
<g id="a_node2"><a xlink:href="LoadTPage.svg" xlink:title="LoadTPage">
<ellipse fill="lightblue" stroke="black" cx="61.74" cy="-18" rx="61.99" ry="18"/>
<text text-anchor="middle" x="61.74" y="-14.3" font-family="Times,serif" font-size="14.00">LoadTPage</text>
</a>
</g>
</g>
<!-- cen.EntityUnkId16&#45;&gt;LoadTPage -->
<g id="edge1" class="edge">
<title>cen.EntityUnkId16&#45;&gt;LoadTPage</title>
<path fill="none" stroke="black" d="M1516.55,-191.07C1284.35,-175.11 652.4,-126.2 132.74,-36 127.36,-35.07 121.77,-33.96 116.21,-32.78"/>
<polygon fill="black" stroke="black" points="116.78,-29.32 106.26,-30.57 115.26,-36.15 116.78,-29.32"/>
<text text-anchor="middle" x="101.26" y="-34.37" font-family="Times,serif" font-size="14.00">1</text>
</g>
<!-- MoveImage -->
<g id="node3" class="node">
<title>MoveImage</title>
<g id="a_node3"><a xlink:href="MoveImage.svg" xlink:title="MoveImage">
<ellipse fill="lightblue" stroke="black" cx="206.74" cy="-18" rx="64.99" ry="18"/>
<text text-anchor="middle" x="206.74" y="-14.3" font-family="Times,serif" font-size="14.00">MoveImage</text>
</a>
</g>
</g>
<!-- cen.EntityUnkId16&#45;&gt;MoveImage -->
<g id="edge2" class="edge">
<title>cen.EntityUnkId16&#45;&gt;MoveImage</title>
<path fill="none" stroke="black" d="M1520.33,-189.6C1307.31,-170.87 744.79,-117.22 280.74,-36 275.09,-35.01 269.21,-33.86 263.36,-32.65"/>
<polygon fill="black" stroke="black" points="264.08,-29.22 253.57,-30.54 262.61,-36.06 264.08,-29.22"/>
<text text-anchor="middle" x="248.57" y="-34.34" font-family="Times,serif" font-size="14.00">1</text>
</g>
<!-- cen.DestroyEntity -->
<g id="node4" class="node">
<title>cen.DestroyEntity</title>
<g id="a_node4"><a xlink:href="cen.DestroyEntity.svg" xlink:title="cen.DestroyEntity">
<ellipse fill="green" stroke="black" cx="384.74" cy="-18" rx="94.78" ry="18"/>
<text text-anchor="middle" x="384.74" y="-14.3" font-family="Times,serif" font-size="14.00">cen.DestroyEntity</text>
</a>
</g>
</g>
<!-- cen.EntityUnkId16&#45;&gt;cen.DestroyEntity -->
<g id="edge3" class="edge">
<title>cen.EntityUnkId16&#45;&gt;cen.DestroyEntity</title>
<path fill="none" stroke="black" d="M1531.35,-186.52C1350.19,-161.56 880.37,-96.18 488.74,-36 480.56,-34.74 472.01,-33.4 463.49,-32.04"/>
<polygon fill="black" stroke="black" points="463.95,-28.56 453.52,-30.43 462.84,-35.48 463.95,-28.56"/>
<text text-anchor="middle" x="448.52" y="-34.23" font-family="Times,serif" font-size="14.00">2</text>
</g>
<!-- cen.func_8018DF0C -->
<g id="node5" class="node">
<title>cen.func_8018DF0C</title>
<g id="a_node5"><a xlink:href="cen.func_8018DF0C.svg" xlink:title="cen.func_8018DF0C">
<ellipse fill="green" stroke="black" cx="601.74" cy="-18" rx="103.98" ry="18"/>
<text text-anchor="middle" x="601.74" y="-14.3" font-family="Times,serif" font-size="14.00">cen.func_8018DF0C</text>
</a>
</g>
</g>
<!-- cen.EntityUnkId16&#45;&gt;cen.func_8018DF0C -->
<g id="edge4" class="edge">
<title>cen.EntityUnkId16&#45;&gt;cen.func_8018DF0C</title>
<path fill="none" stroke="black" d="M1539.39,-184.91C1359.52,-153.08 873.73,-67.12 681.56,-33.12"/>
<polygon fill="black" stroke="black" points="681.98,-29.64 671.53,-31.35 680.76,-36.54 681.98,-29.64"/>
<text text-anchor="middle" x="666.53" y="-35.15" font-family="Times,serif" font-size="14.00">1</text>
</g>
<!-- cen.func_8018DF60 -->
<g id="node6" class="node">
<title>cen.func_8018DF60</title>
<g id="a_node6"><a xlink:href="cen.func_8018DF60.svg" xlink:title="cen.func_8018DF60">
<ellipse fill="green" stroke="black" cx="826.74" cy="-18" rx="102.88" ry="18"/>
<text text-anchor="middle" x="826.74" y="-14.3" font-family="Times,serif" font-size="14.00">cen.func_8018DF60</text>
</a>
</g>
</g>
<!-- cen.EntityUnkId16&#45;&gt;cen.func_8018DF60 -->
<g id="edge5" class="edge">
<title>cen.EntityUnkId16&#45;&gt;cen.func_8018DF60</title>
<path fill="none" stroke="black" d="M1548.72,-183.55C1407.17,-151.29 1048.85,-69.62 896.75,-34.96"/>
<polygon fill="black" stroke="black" points="897.13,-31.45 886.6,-32.64 895.57,-38.28 897.13,-31.45"/>
<text text-anchor="middle" x="881.6" y="-36.44" font-family="Times,serif" font-size="14.00">1</text>
</g>
<!-- cen.func_8018E180 -->
<g id="node7" class="node">
<title>cen.func_8018E180</title>
<g id="a_node7"><a xlink:href="cen.func_8018E180.svg" xlink:title="cen.func_8018E180">
<ellipse fill="green" stroke="black" cx="1049.74" cy="-18" rx="102.08" ry="18"/>
<text text-anchor="middle" x="1049.74" y="-14.3" font-family="Times,serif" font-size="14.00">cen.func_8018E180</text>
</a>
</g>
</g>
<!-- cen.EntityUnkId16&#45;&gt;cen.func_8018E180 -->
<g id="edge6" class="edge">
<title>cen.EntityUnkId16&#45;&gt;cen.func_8018E180</title>
<path fill="none" stroke="black" d="M1560.65,-181.98C1458.5,-149.39 1216.92,-72.33 1106.54,-37.12"/>
<polygon fill="black" stroke="black" points="1107.5,-33.75 1096.91,-34.05 1105.37,-40.42 1107.5,-33.75"/>
<text text-anchor="middle" x="1091.91" y="-37.85" font-family="Times,serif" font-size="14.00">2</text>
</g>
<!-- cen.func_8018E238 -->
<g id="node8" class="node">
<title>cen.func_8018E238</title>
<g id="a_node8"><a xlink:href="cen.func_8018E238.svg" xlink:title="cen.func_8018E238">
<ellipse fill="green" stroke="black" cx="1271.74" cy="-18" rx="102.08" ry="18"/>
<text text-anchor="middle" x="1271.74" y="-14.3" font-family="Times,serif" font-size="14.00">cen.func_8018E238</text>
</a>
</g>
</g>
<!-- cen.EntityUnkId16&#45;&gt;cen.func_8018E238 -->
<g id="edge7" class="edge">
<title>cen.EntityUnkId16&#45;&gt;cen.func_8018E238</title>
<path fill="none" stroke="black" d="M1577.04,-180.73C1516.07,-148.44 1379.81,-76.25 1311.87,-40.25"/>
<polygon fill="black" stroke="black" points="1313.22,-37.01 1302.75,-35.42 1309.94,-43.2 1313.22,-37.01"/>
<text text-anchor="middle" x="1297.75" y="-39.22" font-family="Times,serif" font-size="14.00">1</text>
</g>
<!-- cen.func_8018E3BC -->
<g id="node9" class="node">
<title>cen.func_8018E3BC</title>
<g id="a_node9"><a xlink:href="cen.func_8018E3BC.svg" xlink:title="cen.func_8018E3BC">
<ellipse fill="green" stroke="black" cx="1495.74" cy="-18" rx="103.98" ry="18"/>
<text text-anchor="middle" x="1495.74" y="-14.3" font-family="Times,serif" font-size="14.00">cen.func_8018E3BC</text>
</a>
</g>
</g>
<!-- cen.EntityUnkId16&#45;&gt;cen.func_8018E3BC -->
<g id="edge8" class="edge">
<title>cen.EntityUnkId16&#45;&gt;cen.func_8018E3BC</title>
<path fill="none" stroke="black" d="M1597.01,-179.93C1577.27,-148.57 1535.13,-81.6 1511.92,-44.71"/>
<polygon fill="black" stroke="black" points="1514.74,-42.62 1506.45,-36.02 1508.81,-46.34 1514.74,-42.62"/>
<text text-anchor="middle" x="1501.45" y="-39.82" font-family="Times,serif" font-size="14.00">1</text>
</g>
<!-- cen.func_8018E3E8 -->
<g id="node10" class="node">
<title>cen.func_8018E3E8</title>
<g id="a_node10"><a xlink:href="cen.func_8018E3E8.svg" xlink:title="cen.func_8018E3E8">
<ellipse fill="green" stroke="black" cx="1720.74" cy="-18" rx="102.88" ry="18"/>
<text text-anchor="middle" x="1720.74" y="-14.3" font-family="Times,serif" font-size="14.00">cen.func_8018E3E8</text>
</a>
</g>
</g>
<!-- cen.EntityUnkId16&#45;&gt;cen.func_8018E3E8 -->
<g id="edge9" class="edge">
<title>cen.EntityUnkId16&#45;&gt;cen.func_8018E3E8</title>
<path fill="none" stroke="black" d="M1618.58,-179.93C1638.49,-148.57 1681,-81.6 1704.42,-44.71"/>
<polygon fill="black" stroke="black" points="1707.54,-46.33 1709.94,-36.02 1701.63,-42.58 1707.54,-46.33"/>
<text text-anchor="middle" x="1704.94" y="-39.82" font-family="Times,serif" font-size="14.00">1</text>
</g>
<!-- cen.func_8018E6C4 -->
<g id="node11" class="node">
<title>cen.func_8018E6C4</title>
<g id="a_node11"><a xlink:href="cen.func_8018E6C4.svg" xlink:title="cen.func_8018E6C4">
<ellipse fill="green" stroke="black" cx="1943.74" cy="-18" rx="102.88" ry="18"/>
<text text-anchor="middle" x="1943.74" y="-14.3" font-family="Times,serif" font-size="14.00">cen.func_8018E6C4</text>
</a>
</g>
</g>
<!-- cen.EntityUnkId16&#45;&gt;cen.func_8018E6C4 -->
<g id="edge10" class="edge">
<title>cen.EntityUnkId16&#45;&gt;cen.func_8018E6C4</title>
<path fill="none" stroke="black" d="M1638.45,-180.73C1699.41,-148.44 1835.68,-76.25 1903.62,-40.25"/>
<polygon fill="black" stroke="black" points="1905.54,-43.2 1912.74,-35.42 1902.27,-37.01 1905.54,-43.2"/>
<text text-anchor="middle" x="1907.74" y="-39.22" font-family="Times,serif" font-size="14.00">1</text>
</g>
<!-- dra.AllocPrimitives -->
<g id="node12" class="node">
<title>dra.AllocPrimitives</title>
<g id="a_node12"><a xlink:href="dra.AllocPrimitives.svg" xlink:title="dra.AllocPrimitives">
<ellipse fill="green" stroke="black" cx="2163.74" cy="-18" rx="99.38" ry="18"/>
<text text-anchor="middle" x="2163.74" y="-14.3" font-family="Times,serif" font-size="14.00">dra.AllocPrimitives</text>
</a>
</g>
</g>
<!-- cen.EntityUnkId16&#45;&gt;dra.AllocPrimitives -->
<g id="edge11" class="edge">
<title>cen.EntityUnkId16&#45;&gt;dra.AllocPrimitives</title>
<path fill="none" stroke="black" d="M1654.67,-181.98C1756.58,-149.35 1997.77,-72.13 2107.57,-36.98"/>
<polygon fill="black" stroke="black" points="2108.68,-40.3 2117.14,-33.92 2106.55,-33.64 2108.68,-40.3"/>
<text text-anchor="middle" x="2112.14" y="-37.72" font-family="Times,serif" font-size="14.00">1</text>
</g>
<!-- dra.FreePrimitives -->
<g id="node13" class="node">
<title>dra.FreePrimitives</title>
<g id="a_node13"><a xlink:href="dra.FreePrimitives.svg" xlink:title="dra.FreePrimitives">
<ellipse fill="green" stroke="black" cx="2379.74" cy="-18" rx="98.58" ry="18"/>
<text text-anchor="middle" x="2379.74" y="-14.3" font-family="Times,serif" font-size="14.00">dra.FreePrimitives</text>
</a>
</g>
</g>
<!-- cen.EntityUnkId16&#45;&gt;dra.FreePrimitives -->
<g id="edge12" class="edge">
<title>cen.EntityUnkId16&#45;&gt;dra.FreePrimitives</title>
<path fill="none" stroke="black" d="M1666.4,-183.47C1806.74,-151.12 2161.3,-69.37 2311.17,-34.81"/>
<polygon fill="black" stroke="black" points="2312.22,-38.16 2321.17,-32.5 2310.64,-31.34 2312.22,-38.16"/>
<text text-anchor="middle" x="2316.17" y="-36.3" font-family="Times,serif" font-size="14.00">2</text>
</g>
<!-- dra.PlaySfx -->
<g id="node14" class="node">
<title>dra.PlaySfx</title>
<g id="a_node14"><a xlink:href="dra.PlaySfx.svg" xlink:title="dra.PlaySfx">
<ellipse fill="green" stroke="black" cx="2560.74" cy="-18" rx="64.19" ry="18"/>
<text text-anchor="middle" x="2560.74" y="-14.3" font-family="Times,serif" font-size="14.00">dra.PlaySfx</text>
</a>
</g>
</g>
<!-- cen.EntityUnkId16&#45;&gt;dra.PlaySfx -->
<g id="edge13" class="edge">
<title>cen.EntityUnkId16&#45;&gt;dra.PlaySfx</title>
<path fill="none" stroke="black" d="M1678.12,-185.3C1827.63,-160.19 2187.8,-98.33 2487.74,-36 2493,-34.91 2498.46,-33.73 2503.91,-32.51"/>
<polygon fill="black" stroke="black" points="2504.71,-35.92 2513.69,-30.31 2503.17,-29.09 2504.71,-35.92"/>
<text text-anchor="middle" x="2508.69" y="-34.11" font-family="Times,serif" font-size="14.00">2</text>
</g>
<!-- dra.TimeAttackController -->
<g id="node15" class="node">
<title>dra.TimeAttackController</title>
<g id="a_node15"><a xlink:href="dra.TimeAttackController.svg" xlink:title="dra.TimeAttackController">
<ellipse fill="green" stroke="black" cx="2772.74" cy="-18" rx="129.18" ry="18"/>
<text text-anchor="middle" x="2772.74" y="-14.3" font-family="Times,serif" font-size="14.00">dra.TimeAttackController</text>
</a>
</g>
</g>
<!-- cen.EntityUnkId16&#45;&gt;dra.TimeAttackController -->
<g id="edge14" class="edge">
<title>cen.EntityUnkId16&#45;&gt;dra.TimeAttackController</title>
<path fill="none" stroke="black" d="M1681.06,-185.8C1884.09,-154.78 2453.52,-67.77 2679.05,-33.32"/>
<polygon fill="black" stroke="black" points="2679.85,-36.73 2689.2,-31.76 2678.79,-29.81 2679.85,-36.73"/>
<text text-anchor="middle" x="2684.2" y="-35.56" font-family="Times,serif" font-size="14.00">1</text>
</g>
<!-- dra.func_80131F68 -->
<g id="node16" class="node">
<title>dra.func_80131F68</title>
<g id="a_node16"><a xlink:href="dra.func_80131F68.svg" xlink:title="dra.func_80131F68">
<ellipse fill="green" stroke="black" cx="3020.74" cy="-18" rx="100.98" ry="18"/>
<text text-anchor="middle" x="3020.74" y="-14.3" font-family="Times,serif" font-size="14.00">dra.func_80131F68</text>
</a>
</g>
</g>
<!-- cen.EntityUnkId16&#45;&gt;dra.func_80131F68 -->
<g id="edge15" class="edge">
<title>cen.EntityUnkId16&#45;&gt;dra.func_80131F68</title>
<path fill="none" stroke="black" d="M1689.42,-187.78C1894.87,-164.41 2449.62,-100.11 2910.74,-36 2919.67,-34.76 2928.99,-33.41 2938.27,-32.02"/>
<polygon fill="black" stroke="black" points="2938.94,-35.46 2948.31,-30.51 2937.9,-28.54 2938.94,-35.46"/>
<text text-anchor="middle" x="2943.31" y="-34.31" font-family="Times,serif" font-size="14.00">2</text>
</g>
<!-- g_api_FreePrimitives -->
<g id="node17" class="node">
<title>g_api_FreePrimitives</title>
<g id="a_node17"><a xlink:href="g_api_FreePrimitives.svg" xlink:title="g_api_FreePrimitives">
<ellipse fill="lightblue" stroke="black" cx="3247.74" cy="-18" rx="108.58" ry="18"/>
<text text-anchor="middle" x="3247.74" y="-14.3" font-family="Times,serif" font-size="14.00">g_api_FreePrimitives</text>
</a>
</g>
</g>
<!-- cen.EntityUnkId16&#45;&gt;g_api_FreePrimitives -->
<g id="edge16" class="edge">
<title>cen.EntityUnkId16&#45;&gt;g_api_FreePrimitives</title>
<path fill="none" stroke="black" d="M1693.76,-189.09C1925.92,-167.49 2584.65,-104.51 3130.74,-36 3140.37,-34.79 3150.42,-33.45 3160.43,-32.07"/>
<polygon fill="black" stroke="black" points="3160.97,-35.53 3170.39,-30.67 3160,-28.59 3160.97,-35.53"/>
<text text-anchor="middle" x="3165.39" y="-34.47" font-family="Times,serif" font-size="14.00">3</text>
</g>
</g>
</svg>
