<?xml version="1.0" encoding="UTF-8" standalone="no"?>
<!DOCTYPE svg PUBLIC "-//W3C//DTD SVG 1.1//EN"
 "http://www.w3.org/Graphics/SVG/1.1/DTD/svg11.dtd">
<!-- Generated by graphviz version 2.43.0 (0)
 -->
<!-- Title: cen.FallEntity Pages: 1 -->
<svg width="1157pt" height="224pt"
 viewBox="0.00 0.00 1157.03 224.00" xmlns="http://www.w3.org/2000/svg" xmlns:xlink="http://www.w3.org/1999/xlink">
<g id="graph0" class="graph" transform="scale(1 1) rotate(0) translate(4 220)">
<title>cen.FallEntity</title>
<polygon fill="white" stroke="transparent" points="-4,4 -4,-220 1153.03,-220 1153.03,4 -4,4"/>
<!-- cen.FallEntity -->
<g id="node1" class="node">
<title>cen.FallEntity</title>
<ellipse fill="green" stroke="black" cx="606.99" cy="-18" rx="75.29" ry="18"/>
<text text-anchor="middle" x="606.99" y="-14.3" font-family="Times,serif" font-size="14.00">cen.FallEntity</text>
</g>
<!-- cen.EntityEquipItemDrop -->
<g id="node2" class="node">
<title>cen.EntityEquipItemDrop</title>
<g id="a_node2"><a xlink:href="cen.EntityEquipItemDrop.svg" xlink:title="cen.EntityEquipItemDrop">
<ellipse fill="red" stroke="black" cx="129.99" cy="-198" rx="129.98" ry="18"/>
<text text-anchor="middle" x="129.99" y="-194.3" font-family="Times,serif" font-size="14.00">cen.EntityEquipItemDrop</text>
</a>
</g>
</g>
<!-- cen.EntityEquipItemDrop&#45;&gt;cen.FallEntity -->
<g id="edge1" class="edge">
<title>cen.EntityEquipItemDrop&#45;&gt;cen.FallEntity</title>
<path fill="none" stroke="black" d="M173.16,-180.89C262.09,-147.7 465.17,-71.92 558.47,-37.1"/>
<polygon fill="black" stroke="black" points="559.81,-40.34 567.96,-33.57 557.36,-33.78 559.81,-40.34"/>
<text text-anchor="middle" x="168.16" y="-169.69" font-family="Times,serif" font-size="14.00">1</text>
</g>
<!-- cen.EntityPrizeDrop -->
<g id="node3" class="node">
<title>cen.EntityPrizeDrop</title>
<g id="a_node3"><a xlink:href="cen.EntityPrizeDrop.svg" xlink:title="cen.EntityPrizeDrop">
<ellipse fill="red" stroke="black" cx="382.99" cy="-198" rx="105.08" ry="18"/>
<text text-anchor="middle" x="382.99" y="-194.3" font-family="Times,serif" font-size="14.00">cen.EntityPrizeDrop</text>
</a>
</g>
</g>
<!-- cen.EntityPrizeDrop&#45;&gt;cen.FallEntity -->
<g id="edge2" class="edge">
<title>cen.EntityPrizeDrop&#45;&gt;cen.FallEntity</title>
<path fill="none" stroke="black" d="M404.06,-180.25C444.36,-148.24 532.38,-78.29 578.11,-41.95"/>
<polygon fill="black" stroke="black" points="580.48,-44.53 586.13,-35.57 576.13,-39.05 580.48,-44.53"/>
<text text-anchor="middle" x="399.06" y="-169.05" font-family="Times,serif" font-size="14.00">2</text>
</g>
<!-- cen.func_80194674 -->
<g id="node4" class="node">
<title>cen.func_80194674</title>
<g id="a_node4"><a xlink:href="cen.func_80194674.svg" xlink:title="cen.func_80194674">
<ellipse fill="green" stroke="black" cx="606.99" cy="-198" rx="100.98" ry="18"/>
<text text-anchor="middle" x="606.99" y="-194.3" font-family="Times,serif" font-size="14.00">cen.func_80194674</text>
</a>
</g>
</g>
<!-- cen.func_80194674&#45;&gt;cen.FallEntity -->
<g id="edge3" class="edge">
<title>cen.func_80194674&#45;&gt;cen.FallEntity</title>
<path fill="none" stroke="black" d="M606.99,-179.93C606.99,-148.97 606.99,-83.3 606.99,-46.13"/>
<polygon fill="black" stroke="black" points="610.49,-46.02 606.99,-36.02 603.49,-46.02 610.49,-46.02"/>
<text text-anchor="middle" x="601.99" y="-168.73" font-family="Times,serif" font-size="14.00">1</text>
</g>
<!-- cen.func_80195798 -->
<g id="node5" class="node">
<title>cen.func_80195798</title>
<g id="a_node5"><a xlink:href="cen.func_80195798.svg" xlink:title="cen.func_80195798">
<ellipse fill="red" stroke="black" cx="825.99" cy="-198" rx="100.98" ry="18"/>
<text text-anchor="middle" x="825.99" y="-194.3" font-family="Times,serif" font-size="14.00">cen.func_80195798</text>
</a>
</g>
</g>
<!-- cen.func_80195798&#45;&gt;cen.FallEntity -->
<g id="edge4" class="edge">
<title>cen.func_80195798&#45;&gt;cen.FallEntity</title>
<path fill="none" stroke="black" d="M805.39,-180.25C765.99,-148.24 679.94,-78.29 635.22,-41.95"/>
<polygon fill="black" stroke="black" points="637.34,-39.16 627.38,-35.57 632.93,-44.59 637.34,-39.16"/>
<text text-anchor="middle" x="800.39" y="-169.05" font-family="Times,serif" font-size="14.00">1</text>
</g>
<!-- cen.func_801988B0 -->
<g id="node6" class="node">
<title>cen.func_801988B0</title>
<g id="a_node6"><a xlink:href="cen.func_801988B0.svg" xlink:title="cen.func_801988B0">
<ellipse fill="red" stroke="black" cx="1046.99" cy="-198" rx="102.08" ry="18"/>
<text text-anchor="middle" x="1046.99" y="-194.3" font-family="Times,serif" font-size="14.00">cen.func_801988B0</text>
</a>
</g>
</g>
<!-- cen.func_801988B0&#45;&gt;cen.FallEntity -->
<g id="edge5" class="edge">
<title>cen.func_801988B0&#45;&gt;cen.FallEntity</title>
<path fill="none" stroke="black" d="M1007.94,-181.2C926.65,-148.32 739.6,-72.65 652.79,-37.53"/>
<polygon fill="black" stroke="black" points="654.04,-34.26 643.46,-33.75 651.42,-40.75 654.04,-34.26"/>
<text text-anchor="middle" x="1002.94" y="-170" font-family="Times,serif" font-size="14.00">1</text>
</g>
</g>
</svg>
