<?xml version="1.0" encoding="UTF-8" standalone="no"?>
<!DOCTYPE svg PUBLIC "-//W3C//DTD SVG 1.1//EN"
 "http://www.w3.org/Graphics/SVG/1.1/DTD/svg11.dtd">
<!-- Generated by graphviz version 2.43.0 (0)
 -->
<!-- Title: cen.func_80199A30 Pages: 1 -->
<svg width="247pt" height="48pt"
 viewBox="0.00 0.00 246.78 47.68" xmlns="http://www.w3.org/2000/svg" xmlns:xlink="http://www.w3.org/1999/xlink">
<g id="graph0" class="graph" transform="scale(1 1) rotate(0) translate(4 43.68)">
<title>cen.func_80199A30</title>
<polygon fill="white" stroke="transparent" points="-4,4 -4,-43.68 242.78,-43.68 242.78,4 -4,4"/>
<!-- cen.func_80199A30 -->
<g id="node1" class="node">
<title>cen.func_80199A30</title>
<g id="a_node1"><a xlink:href="cen.func_80199A30.svg" xlink:title="cen.func_80199A30">
<ellipse fill="red" stroke="black" cx="101.39" cy="-18" rx="101.28" ry="18"/>
<text text-anchor="middle" x="101.39" y="-14.3" font-family="Times,serif" font-size="14.00">cen.func_80199A30</text>
</a>
</g>
</g>
<!-- cen.func_80199A30&#45;&gt;cen.func_80199A30 -->
<g id="edge1" class="edge">
<title>cen.func_80199A30&#45;&gt;cen.func_80199A30</title>
<path fill="none" stroke="black" d="M201.55,-20.88C213.2,-20.35 220.78,-19.39 220.78,-18 220.78,-17.07 217.36,-16.33 211.58,-15.78"/>
<polygon fill="black" stroke="black" points="211.76,-12.29 201.55,-15.12 211.3,-19.27 211.76,-12.29"/>
<text text-anchor="middle" x="206.55" y="-18.92" font-family="Times,serif" font-size="14.00">1</text>
</g>
<!-- cen.func_80199A30&#45;&gt;cen.func_80199A30 -->
<g id="edge2" class="edge">
<title>cen.func_80199A30&#45;&gt;cen.func_80199A30</title>
<path fill="none" stroke="black" d="M195.79,-24.68C220.3,-24.27 238.78,-22.04 238.78,-18 238.78,-14.54 225.26,-12.41 206,-11.61"/>
<polygon fill="black" stroke="black" points="205.88,-8.11 195.79,-11.32 205.68,-15.1 205.88,-8.11"/>
<text text-anchor="middle" x="190.79" y="-28.48" font-family="Times,serif" font-size="14.00">1</text>
</g>
</g>
</svg>
