<?xml version="1.0" encoding="UTF-8" standalone="no"?>
<!DOCTYPE svg PUBLIC "-//W3C//DTD SVG 1.1//EN"
 "http://www.w3.org/Graphics/SVG/1.1/DTD/svg11.dtd">
<!-- Generated by graphviz version 2.43.0 (0)
 -->
<!-- Title: cen.InitializeEntity Pages: 1 -->
<svg width="6347pt" height="224pt"
 viewBox="0.00 0.00 6347.48 224.00" xmlns="http://www.w3.org/2000/svg" xmlns:xlink="http://www.w3.org/1999/xlink">
<g id="graph0" class="graph" transform="scale(1 1) rotate(0) translate(4 220)">
<title>cen.InitializeEntity</title>
<polygon fill="white" stroke="transparent" points="-4,4 -4,-220 6343.48,-220 6343.48,4 -4,4"/>
<!-- cen.InitializeEntity -->
<g id="node1" class="node">
<title>cen.InitializeEntity</title>
<ellipse fill="green" stroke="black" cx="3333.74" cy="-18" rx="98.58" ry="18"/>
<text text-anchor="middle" x="3333.74" y="-14.3" font-family="Times,serif" font-size="14.00">cen.InitializeEntity</text>
</g>
<!-- cen.EntityBackgroundBlock -->
<g id="node2" class="node">
<title>cen.EntityBackgroundBlock</title>
<g id="a_node2"><a xlink:href="cen.EntityBackgroundBlock.svg" xlink:title="cen.EntityBackgroundBlock">
<ellipse fill="green" stroke="black" cx="139.74" cy="-198" rx="139.98" ry="18"/>
<text text-anchor="middle" x="139.74" y="-194.3" font-family="Times,serif" font-size="14.00">cen.EntityBackgroundBlock</text>
</a>
</g>
</g>
<!-- cen.EntityBackgroundBlock&#45;&gt;cen.InitializeEntity -->
<g id="edge1" class="edge">
<title>cen.EntityBackgroundBlock&#45;&gt;cen.InitializeEntity</title>
<path fill="none" stroke="black" d="M237.03,-185.04C254.24,-183.17 272,-181.4 288.74,-180 1437.52,-84.18 2835.15,-34.88 3227.09,-22.29"/>
<polygon fill="black" stroke="black" points="3227.39,-25.78 3237.28,-21.96 3227.17,-18.79 3227.39,-25.78"/>
<text text-anchor="middle" x="232.03" y="-173.84" font-family="Times,serif" font-size="14.00">1</text>
</g>
<!-- cen.EntityDamageDisplay -->
<g id="node3" class="node">
<title>cen.EntityDamageDisplay</title>
<g id="a_node3"><a xlink:href="cen.EntityDamageDisplay.svg" xlink:title="cen.EntityDamageDisplay">
<ellipse fill="green" stroke="black" cx="428.74" cy="-198" rx="131.08" ry="18"/>
<text text-anchor="middle" x="428.74" y="-194.3" font-family="Times,serif" font-size="14.00">cen.EntityDamageDisplay</text>
</a>
</g>
</g>
<!-- cen.EntityDamageDisplay&#45;&gt;cen.InitializeEntity -->
<g id="edge2" class="edge">
<title>cen.EntityDamageDisplay&#45;&gt;cen.InitializeEntity</title>
<path fill="none" stroke="black" d="M520.15,-185.06C536.32,-183.19 553.01,-181.41 568.74,-180 1602.81,-87.2 2859.47,-36.41 3227.65,-22.78"/>
<polygon fill="black" stroke="black" points="3227.9,-26.27 3237.76,-22.41 3227.64,-19.28 3227.9,-26.27"/>
<text text-anchor="middle" x="515.15" y="-173.86" font-family="Times,serif" font-size="14.00">1</text>
</g>
<!-- cen.EntityElevatorStationary -->
<g id="node4" class="node">
<title>cen.EntityElevatorStationary</title>
<g id="a_node4"><a xlink:href="cen.EntityElevatorStationary.svg" xlink:title="cen.EntityElevatorStationary">
<ellipse fill="green" stroke="black" cx="724.74" cy="-198" rx="146.77" ry="18"/>
<text text-anchor="middle" x="724.74" y="-194.3" font-family="Times,serif" font-size="14.00">cen.EntityElevatorStationary</text>
</a>
</g>
</g>
<!-- cen.EntityElevatorStationary&#45;&gt;cen.InitializeEntity -->
<g id="edge3" class="edge">
<title>cen.EntityElevatorStationary&#45;&gt;cen.InitializeEntity</title>
<path fill="none" stroke="black" d="M827.89,-185.13C845.51,-183.28 863.64,-181.49 880.74,-180 1789.65,-100.69 2891.11,-41.57 3229.73,-24.22"/>
<polygon fill="black" stroke="black" points="3229.96,-27.71 3239.77,-23.71 3229.6,-20.72 3229.96,-27.71"/>
<text text-anchor="middle" x="822.89" y="-173.93" font-family="Times,serif" font-size="14.00">1</text>
</g>
<!-- cen.EntityEnemyBlood -->
<g id="node5" class="node">
<title>cen.EntityEnemyBlood</title>
<g id="a_node5"><a xlink:href="cen.EntityEnemyBlood.svg" xlink:title="cen.EntityEnemyBlood">
<ellipse fill="green" stroke="black" cx="1006.74" cy="-198" rx="116.98" ry="18"/>
<text text-anchor="middle" x="1006.74" y="-194.3" font-family="Times,serif" font-size="14.00">cen.EntityEnemyBlood</text>
</a>
</g>
</g>
<!-- cen.EntityEnemyBlood&#45;&gt;cen.InitializeEntity -->
<g id="edge4" class="edge">
<title>cen.EntityEnemyBlood&#45;&gt;cen.InitializeEntity</title>
<path fill="none" stroke="black" d="M1089,-185.16C1103.55,-183.28 1118.58,-181.47 1132.74,-180 1938.32,-96.27 2914.27,-41.04 3229.92,-24.33"/>
<polygon fill="black" stroke="black" points="3230.17,-27.83 3239.97,-23.8 3229.8,-20.84 3230.17,-27.83"/>
<text text-anchor="middle" x="1084" y="-173.96" font-family="Times,serif" font-size="14.00">1</text>
</g>
<!-- cen.EntityEquipItemDrop -->
<g id="node6" class="node">
<title>cen.EntityEquipItemDrop</title>
<g id="a_node6"><a xlink:href="cen.EntityEquipItemDrop.svg" xlink:title="cen.EntityEquipItemDrop">
<ellipse fill="red" stroke="black" cx="1271.74" cy="-198" rx="129.98" ry="18"/>
<text text-anchor="middle" x="1271.74" y="-194.3" font-family="Times,serif" font-size="14.00">cen.EntityEquipItemDrop</text>
</a>
</g>
</g>
<!-- cen.EntityEquipItemDrop&#45;&gt;cen.InitializeEntity -->
<g id="edge5" class="edge">
<title>cen.EntityEquipItemDrop&#45;&gt;cen.InitializeEntity</title>
<path fill="none" stroke="black" d="M1363.65,-185.26C1379.35,-183.4 1395.5,-181.57 1410.74,-180 2106.57,-108.35 2946.55,-46.48 3232.67,-26.09"/>
<polygon fill="black" stroke="black" points="3233.3,-29.56 3243.03,-25.36 3232.8,-22.58 3233.3,-29.56"/>
<text text-anchor="middle" x="1358.65" y="-174.06" font-family="Times,serif" font-size="14.00">1</text>
</g>
<!-- cen.EntityExplosion -->
<g id="node7" class="node">
<title>cen.EntityExplosion</title>
<g id="a_node7"><a xlink:href="cen.EntityExplosion.svg" xlink:title="cen.EntityExplosion">
<ellipse fill="red" stroke="black" cx="1523.74" cy="-198" rx="103.98" ry="18"/>
<text text-anchor="middle" x="1523.74" y="-194.3" font-family="Times,serif" font-size="14.00">cen.EntityExplosion</text>
</a>
</g>
</g>
<!-- cen.EntityExplosion&#45;&gt;cen.InitializeEntity -->
<g id="edge6" class="edge">
<title>cen.EntityExplosion&#45;&gt;cen.InitializeEntity</title>
<path fill="none" stroke="black" d="M1597.51,-185.31C1610.56,-183.41 1624.04,-181.56 1636.74,-180 2241.84,-105.84 2971.94,-46.78 3234.06,-26.54"/>
<polygon fill="black" stroke="black" points="3234.61,-30.01 3244.31,-25.75 3234.07,-23.03 3234.61,-30.01"/>
<text text-anchor="middle" x="1592.51" y="-174.11" font-family="Times,serif" font-size="14.00">1</text>
</g>
<!-- cen.EntityIntenseExplosion -->
<g id="node8" class="node">
<title>cen.EntityIntenseExplosion</title>
<g id="a_node8"><a xlink:href="cen.EntityIntenseExplosion.svg" xlink:title="cen.EntityIntenseExplosion">
<ellipse fill="green" stroke="black" cx="1783.74" cy="-198" rx="138.38" ry="18"/>
<text text-anchor="middle" x="1783.74" y="-194.3" font-family="Times,serif" font-size="14.00">cen.EntityIntenseExplosion</text>
</a>
</g>
</g>
<!-- cen.EntityIntenseExplosion&#45;&gt;cen.InitializeEntity -->
<g id="edge7" class="edge">
<title>cen.EntityIntenseExplosion&#45;&gt;cen.InitializeEntity</title>
<path fill="none" stroke="black" d="M1883.37,-185.47C1899.21,-183.64 1915.42,-181.76 1930.74,-180 2425.48,-123.01 3018.42,-55.09 3242.23,-29.47"/>
<polygon fill="black" stroke="black" points="3242.75,-32.94 3252.29,-28.32 3241.96,-25.98 3242.75,-32.94"/>
<text text-anchor="middle" x="1878.37" y="-174.27" font-family="Times,serif" font-size="14.00">1</text>
</g>
<!-- cen.EntityMaria -->
<g id="node9" class="node">
<title>cen.EntityMaria</title>
<g id="a_node9"><a xlink:href="cen.EntityMaria.svg" xlink:title="cen.EntityMaria">
<ellipse fill="green" stroke="black" cx="2025.74" cy="-198" rx="85.59" ry="18"/>
<text text-anchor="middle" x="2025.74" y="-194.3" font-family="Times,serif" font-size="14.00">cen.EntityMaria</text>
</a>
</g>
</g>
<!-- cen.EntityMaria&#45;&gt;cen.InitializeEntity -->
<g id="edge8" class="edge">
<title>cen.EntityMaria&#45;&gt;cen.InitializeEntity</title>
<path fill="none" stroke="black" d="M2087.76,-185.49C2098.73,-183.57 2110.06,-181.66 2120.74,-180 2539,-114.85 3041.04,-53.58 3243.03,-29.62"/>
<polygon fill="black" stroke="black" points="3243.48,-33.09 3253,-28.44 3242.66,-26.14 3243.48,-33.09"/>
<text text-anchor="middle" x="2082.76" y="-174.29" font-family="Times,serif" font-size="14.00">1</text>
</g>
<!-- cen.EntityMessageBox -->
<g id="node10" class="node">
<title>cen.EntityMessageBox</title>
<g id="a_node10"><a xlink:href="cen.EntityMessageBox.svg" xlink:title="cen.EntityMessageBox">
<ellipse fill="green" stroke="black" cx="2246.74" cy="-198" rx="116.98" ry="18"/>
<text text-anchor="middle" x="2246.74" y="-194.3" font-family="Times,serif" font-size="14.00">cen.EntityMessageBox</text>
</a>
</g>
</g>
<!-- cen.EntityMessageBox&#45;&gt;cen.InitializeEntity -->
<g id="edge9" class="edge">
<title>cen.EntityMessageBox&#45;&gt;cen.InitializeEntity</title>
<path fill="none" stroke="black" d="M2323.61,-184.41C2522.02,-151.92 3050.01,-65.46 3252.82,-32.25"/>
<polygon fill="black" stroke="black" points="3253.51,-35.68 3262.81,-30.61 3252.38,-28.78 3253.51,-35.68"/>
<text text-anchor="middle" x="2318.61" y="-173.21" font-family="Times,serif" font-size="14.00">1</text>
</g>
<!-- cen.EntityMovingElevator -->
<g id="node11" class="node">
<title>cen.EntityMovingElevator</title>
<g id="a_node11"><a xlink:href="cen.EntityMovingElevator.svg" xlink:title="cen.EntityMovingElevator">
<ellipse fill="green" stroke="black" cx="2514.74" cy="-198" rx="132.68" ry="18"/>
<text text-anchor="middle" x="2514.74" y="-194.3" font-family="Times,serif" font-size="14.00">cen.EntityMovingElevator</text>
</a>
</g>
</g>
<!-- cen.EntityMovingElevator&#45;&gt;cen.InitializeEntity -->
<g id="edge10" class="edge">
<title>cen.EntityMovingElevator&#45;&gt;cen.InitializeEntity</title>
<path fill="none" stroke="black" d="M2581.76,-182.43C2734.37,-149.26 3106.62,-68.36 3262.86,-34.41"/>
<polygon fill="black" stroke="black" points="3263.8,-37.78 3272.83,-32.24 3262.32,-30.94 3263.8,-37.78"/>
<text text-anchor="middle" x="2576.76" y="-171.23" font-family="Times,serif" font-size="14.00">1</text>
</g>
<!-- cen.EntityOlroxDrool -->
<g id="node12" class="node">
<title>cen.EntityOlroxDrool</title>
<g id="a_node12"><a xlink:href="cen.EntityOlroxDrool.svg" xlink:title="cen.EntityOlroxDrool">
<ellipse fill="green" stroke="black" cx="2774.74" cy="-198" rx="109.38" ry="18"/>
<text text-anchor="middle" x="2774.74" y="-194.3" font-family="Times,serif" font-size="14.00">cen.EntityOlroxDrool</text>
</a>
</g>
</g>
<!-- cen.EntityOlroxDrool&#45;&gt;cen.InitializeEntity -->
<g id="edge11" class="edge">
<title>cen.EntityOlroxDrool&#45;&gt;cen.InitializeEntity</title>
<path fill="none" stroke="black" d="M2822.88,-181.67C2925.84,-148.89 3166.98,-72.1 3277.09,-37.04"/>
<polygon fill="black" stroke="black" points="3278.23,-40.35 3286.7,-33.98 3276.11,-33.68 3278.23,-40.35"/>
<text text-anchor="middle" x="2817.88" y="-170.47" font-family="Times,serif" font-size="14.00">1</text>
</g>
<!-- cen.EntityPlatform -->
<g id="node13" class="node">
<title>cen.EntityPlatform</title>
<g id="a_node13"><a xlink:href="cen.EntityPlatform.svg" xlink:title="cen.EntityPlatform">
<ellipse fill="green" stroke="black" cx="3000.74" cy="-198" rx="98.58" ry="18"/>
<text text-anchor="middle" x="3000.74" y="-194.3" font-family="Times,serif" font-size="14.00">cen.EntityPlatform</text>
</a>
</g>
</g>
<!-- cen.EntityPlatform&#45;&gt;cen.InitializeEntity -->
<g id="edge12" class="edge">
<title>cen.EntityPlatform&#45;&gt;cen.InitializeEntity</title>
<path fill="none" stroke="black" d="M3031.17,-180.73C3091.74,-148.35 3227.32,-75.88 3294.49,-39.98"/>
<polygon fill="black" stroke="black" points="3296.33,-42.97 3303.49,-35.17 3293.03,-36.79 3296.33,-42.97"/>
<text text-anchor="middle" x="3026.17" y="-169.53" font-family="Times,serif" font-size="14.00">1</text>
</g>
<!-- cen.EntityPrizeDrop -->
<g id="node14" class="node">
<title>cen.EntityPrizeDrop</title>
<g id="a_node14"><a xlink:href="cen.EntityPrizeDrop.svg" xlink:title="cen.EntityPrizeDrop">
<ellipse fill="red" stroke="black" cx="3222.74" cy="-198" rx="105.08" ry="18"/>
<text text-anchor="middle" x="3222.74" y="-194.3" font-family="Times,serif" font-size="14.00">cen.EntityPrizeDrop</text>
</a>
</g>
</g>
<!-- cen.EntityPrizeDrop&#45;&gt;cen.InitializeEntity -->
<g id="edge13" class="edge">
<title>cen.EntityPrizeDrop&#45;&gt;cen.InitializeEntity</title>
<path fill="none" stroke="black" d="M3233.38,-179.93C3252.94,-148.57 3294.7,-81.6 3317.71,-44.71"/>
<polygon fill="black" stroke="black" points="3320.81,-46.35 3323.13,-36.02 3314.87,-42.65 3320.81,-46.35"/>
<text text-anchor="middle" x="3228.38" y="-168.73" font-family="Times,serif" font-size="14.00">1</text>
</g>
<!-- cen.EntityRedDoor -->
<g id="node15" class="node">
<title>cen.EntityRedDoor</title>
<g id="a_node15"><a xlink:href="cen.EntityRedDoor.svg" xlink:title="cen.EntityRedDoor">
<ellipse fill="green" stroke="black" cx="3444.74" cy="-198" rx="98.58" ry="18"/>
<text text-anchor="middle" x="3444.74" y="-194.3" font-family="Times,serif" font-size="14.00">cen.EntityRedDoor</text>
</a>
</g>
</g>
<!-- cen.EntityRedDoor&#45;&gt;cen.InitializeEntity -->
<g id="edge14" class="edge">
<title>cen.EntityRedDoor&#45;&gt;cen.InitializeEntity</title>
<path fill="none" stroke="black" d="M3434.09,-179.93C3414.54,-148.57 3372.78,-81.6 3349.77,-44.71"/>
<polygon fill="black" stroke="black" points="3352.61,-42.65 3344.35,-36.02 3346.67,-46.35 3352.61,-42.65"/>
<text text-anchor="middle" x="3429.09" y="-168.73" font-family="Times,serif" font-size="14.00">1</text>
</g>
<!-- cen.EntityRelicOrb -->
<g id="node16" class="node">
<title>cen.EntityRelicOrb</title>
<g id="a_node16"><a xlink:href="cen.EntityRelicOrb.svg" xlink:title="cen.EntityRelicOrb">
<ellipse fill="green" stroke="black" cx="3660.74" cy="-198" rx="98.58" ry="18"/>
<text text-anchor="middle" x="3660.74" y="-194.3" font-family="Times,serif" font-size="14.00">cen.EntityRelicOrb</text>
</a>
</g>
</g>
<!-- cen.EntityRelicOrb&#45;&gt;cen.InitializeEntity -->
<g id="edge15" class="edge">
<title>cen.EntityRelicOrb&#45;&gt;cen.InitializeEntity</title>
<path fill="none" stroke="black" d="M3630.85,-180.73C3571.52,-148.44 3438.91,-76.25 3372.78,-40.25"/>
<polygon fill="black" stroke="black" points="3374.37,-37.13 3363.91,-35.42 3371.02,-43.28 3374.37,-37.13"/>
<text text-anchor="middle" x="3625.85" y="-169.53" font-family="Times,serif" font-size="14.00">1</text>
</g>
<!-- cen.EntityRoomDarkness -->
<g id="node17" class="node">
<title>cen.EntityRoomDarkness</title>
<g id="a_node17"><a xlink:href="cen.EntityRoomDarkness.svg" xlink:title="cen.EntityRoomDarkness">
<ellipse fill="green" stroke="black" cx="3905.74" cy="-198" rx="128.08" ry="18"/>
<text text-anchor="middle" x="3905.74" y="-194.3" font-family="Times,serif" font-size="14.00">cen.EntityRoomDarkness</text>
</a>
</g>
</g>
<!-- cen.EntityRoomDarkness&#45;&gt;cen.InitializeEntity -->
<g id="edge16" class="edge">
<title>cen.EntityRoomDarkness&#45;&gt;cen.InitializeEntity</title>
<path fill="none" stroke="black" d="M3855.48,-181.36C3749.36,-148.34 3503.04,-71.68 3391.02,-36.83"/>
<polygon fill="black" stroke="black" points="3391.85,-33.42 3381.26,-33.79 3389.77,-40.1 3391.85,-33.42"/>
<text text-anchor="middle" x="3850.48" y="-170.16" font-family="Times,serif" font-size="14.00">1</text>
</g>
<!-- cen.EntitySoulStealOrb -->
<g id="node18" class="node">
<title>cen.EntitySoulStealOrb</title>
<g id="a_node18"><a xlink:href="cen.EntitySoulStealOrb.svg" xlink:title="cen.EntitySoulStealOrb">
<ellipse fill="green" stroke="black" cx="4171.74" cy="-198" rx="120.48" ry="18"/>
<text text-anchor="middle" x="4171.74" y="-194.3" font-family="Times,serif" font-size="14.00">cen.EntitySoulStealOrb</text>
</a>
</g>
</g>
<!-- cen.EntitySoulStealOrb&#45;&gt;cen.InitializeEntity -->
<g id="edge17" class="edge">
<title>cen.EntitySoulStealOrb&#45;&gt;cen.InitializeEntity</title>
<path fill="none" stroke="black" d="M4105.63,-182.96C3950.86,-150.08 3565.99,-68.33 3405.64,-34.27"/>
<polygon fill="black" stroke="black" points="3405.92,-30.75 3395.41,-32.1 3404.47,-37.6 3405.92,-30.75"/>
<text text-anchor="middle" x="4100.63" y="-171.76" font-family="Times,serif" font-size="14.00">1</text>
</g>
<!-- cen.EntityStageNamePopup -->
<g id="node19" class="node">
<title>cen.EntityStageNamePopup</title>
<g id="a_node19"><a xlink:href="cen.EntityStageNamePopup.svg" xlink:title="cen.EntityStageNamePopup">
<ellipse fill="green" stroke="black" cx="4451.74" cy="-198" rx="141.88" ry="18"/>
<text text-anchor="middle" x="4451.74" y="-194.3" font-family="Times,serif" font-size="14.00">cen.EntityStageNamePopup</text>
</a>
</g>
</g>
<!-- cen.EntityStageNamePopup&#45;&gt;cen.InitializeEntity -->
<g id="edge18" class="edge">
<title>cen.EntityStageNamePopup&#45;&gt;cen.InitializeEntity</title>
<path fill="none" stroke="black" d="M4367.25,-183.55C4158.64,-150.34 3621.21,-64.77 3415.5,-32.02"/>
<polygon fill="black" stroke="black" points="3415.79,-28.52 3405.37,-30.4 3414.69,-35.43 3415.79,-28.52"/>
<text text-anchor="middle" x="4362.25" y="-172.35" font-family="Times,serif" font-size="14.00">1</text>
</g>
<!-- cen.EntityUnkId01 -->
<g id="node20" class="node">
<title>cen.EntityUnkId01</title>
<g id="a_node20"><a xlink:href="cen.EntityUnkId01.svg" xlink:title="cen.EntityUnkId01">
<ellipse fill="green" stroke="black" cx="4709.74" cy="-198" rx="98.58" ry="18"/>
<text text-anchor="middle" x="4709.74" y="-194.3" font-family="Times,serif" font-size="14.00">cen.EntityUnkId01</text>
</a>
</g>
</g>
<!-- cen.EntityUnkId01&#45;&gt;cen.InitializeEntity -->
<g id="edge19" class="edge">
<title>cen.EntityUnkId01&#45;&gt;cen.InitializeEntity</title>
<path fill="none" stroke="black" d="M4638.7,-185.39C4626.71,-183.53 4614.38,-181.66 4602.74,-180 4162.02,-117.05 3633.37,-53.96 3424.76,-29.55"/>
<polygon fill="black" stroke="black" points="3425.11,-26.07 3414.77,-28.39 3424.29,-33.02 3425.11,-26.07"/>
<text text-anchor="middle" x="4633.7" y="-174.19" font-family="Times,serif" font-size="14.00">1</text>
</g>
<!-- cen.EntityUnkId08 -->
<g id="node21" class="node">
<title>cen.EntityUnkId08</title>
<g id="a_node21"><a xlink:href="cen.EntityUnkId08.svg" xlink:title="cen.EntityUnkId08">
<ellipse fill="green" stroke="black" cx="4925.74" cy="-198" rx="98.58" ry="18"/>
<text text-anchor="middle" x="4925.74" y="-194.3" font-family="Times,serif" font-size="14.00">cen.EntityUnkId08</text>
</a>
</g>
</g>
<!-- cen.EntityUnkId08&#45;&gt;cen.InitializeEntity -->
<g id="edge20" class="edge">
<title>cen.EntityUnkId08&#45;&gt;cen.InitializeEntity</title>
<path fill="none" stroke="black" d="M4854.93,-185.36C4842.55,-183.46 4829.78,-181.6 4817.74,-180 4295.66,-110.63 3667.25,-49.94 3430.36,-27.86"/>
<polygon fill="black" stroke="black" points="3430.34,-24.34 3420.06,-26.9 3429.69,-31.31 3430.34,-24.34"/>
<text text-anchor="middle" x="4849.93" y="-174.16" font-family="Times,serif" font-size="14.00">1</text>
</g>
<!-- cen.EntityUnkId12 -->
<g id="node22" class="node">
<title>cen.EntityUnkId12</title>
<g id="a_node22"><a xlink:href="cen.EntityUnkId12.svg" xlink:title="cen.EntityUnkId12">
<ellipse fill="red" stroke="black" cx="5141.74" cy="-198" rx="98.58" ry="18"/>
<text text-anchor="middle" x="5141.74" y="-194.3" font-family="Times,serif" font-size="14.00">cen.EntityUnkId12</text>
</a>
</g>
</g>
<!-- cen.EntityUnkId12&#45;&gt;cen.InitializeEntity -->
<g id="edge21" class="edge">
<title>cen.EntityUnkId12&#45;&gt;cen.InitializeEntity</title>
<path fill="none" stroke="black" d="M5071.53,-185.31C5058.97,-183.4 5045.98,-181.54 5033.74,-180 4428.19,-103.74 3697.15,-46.01 3434.09,-26.33"/>
<polygon fill="black" stroke="black" points="3434.04,-22.82 3423.8,-25.56 3433.51,-29.8 3434.04,-22.82"/>
<text text-anchor="middle" x="5066.53" y="-174.11" font-family="Times,serif" font-size="14.00">1</text>
</g>
<!-- cen.EntityUnkId13 -->
<g id="node23" class="node">
<title>cen.EntityUnkId13</title>
<g id="a_node23"><a xlink:href="cen.EntityUnkId13.svg" xlink:title="cen.EntityUnkId13">
<ellipse fill="green" stroke="black" cx="5357.74" cy="-198" rx="98.58" ry="18"/>
<text text-anchor="middle" x="5357.74" y="-194.3" font-family="Times,serif" font-size="14.00">cen.EntityUnkId13</text>
</a>
</g>
</g>
<!-- cen.EntityUnkId13&#45;&gt;cen.InitializeEntity -->
<g id="edge22" class="edge">
<title>cen.EntityUnkId13&#45;&gt;cen.InitializeEntity</title>
<path fill="none" stroke="black" d="M5287.83,-185.24C5275.18,-183.33 5262.08,-181.49 5249.74,-180 4559.4,-96.77 3723.96,-42.39 3436.6,-25.02"/>
<polygon fill="black" stroke="black" points="3436.4,-21.5 3426.2,-24.39 3435.97,-28.49 3436.4,-21.5"/>
<text text-anchor="middle" x="5282.83" y="-174.04" font-family="Times,serif" font-size="14.00">1</text>
</g>
<!-- cen.EntityUnkId1B -->
<g id="node24" class="node">
<title>cen.EntityUnkId1B</title>
<g id="a_node24"><a xlink:href="cen.EntityUnkId1B.svg" xlink:title="cen.EntityUnkId1B">
<ellipse fill="green" stroke="black" cx="5573.74" cy="-198" rx="99.38" ry="18"/>
<text text-anchor="middle" x="5573.74" y="-194.3" font-family="Times,serif" font-size="14.00">cen.EntityUnkId1B</text>
</a>
</g>
</g>
<!-- cen.EntityUnkId1B&#45;&gt;cen.InitializeEntity -->
<g id="edge23" class="edge">
<title>cen.EntityUnkId1B&#45;&gt;cen.InitializeEntity</title>
<path fill="none" stroke="black" d="M5503.85,-185.15C5491.19,-183.25 5478.09,-181.44 5465.74,-180 4689.66,-89.77 3748.5,-39.07 3438.36,-23.9"/>
<polygon fill="black" stroke="black" points="3438.2,-20.39 3428.04,-23.4 3437.86,-27.38 3438.2,-20.39"/>
<text text-anchor="middle" x="5498.85" y="-173.95" font-family="Times,serif" font-size="14.00">1</text>
</g>
<!-- cen.func_8018DB18 -->
<g id="node25" class="node">
<title>cen.func_8018DB18</title>
<g id="a_node25"><a xlink:href="cen.func_8018DB18.svg" xlink:title="cen.func_8018DB18">
<ellipse fill="green" stroke="black" cx="5794.74" cy="-198" rx="103.18" ry="18"/>
<text text-anchor="middle" x="5794.74" y="-194.3" font-family="Times,serif" font-size="14.00">cen.func_8018DB18</text>
</a>
</g>
</g>
<!-- cen.func_8018DB18&#45;&gt;cen.InitializeEntity -->
<g id="edge24" class="edge">
<title>cen.func_8018DB18&#45;&gt;cen.InitializeEntity</title>
<path fill="none" stroke="black" d="M5721.91,-185.16C5708.57,-183.24 5694.75,-181.42 5681.74,-180 4818.42,-85.62 3770.1,-36.98 3439.09,-23.18"/>
<polygon fill="black" stroke="black" points="3439.18,-19.68 3429.04,-22.77 3438.88,-26.68 3439.18,-19.68"/>
<text text-anchor="middle" x="5716.91" y="-173.96" font-family="Times,serif" font-size="14.00">1</text>
</g>
<!-- cen.func_8019902C -->
<g id="node26" class="node">
<title>cen.func_8019902C</title>
<g id="a_node26"><a xlink:href="cen.func_8019902C.svg" xlink:title="cen.func_8019902C">
<ellipse fill="red" stroke="black" cx="6017.74" cy="-198" rx="102.08" ry="18"/>
<text text-anchor="middle" x="6017.74" y="-194.3" font-family="Times,serif" font-size="14.00">cen.func_8019902C</text>
</a>
</g>
</g>
<!-- cen.func_8019902C&#45;&gt;cen.InitializeEntity -->
<g id="edge25" class="edge">
<title>cen.func_8019902C&#45;&gt;cen.InitializeEntity</title>
<path fill="none" stroke="black" d="M5946.21,-185.08C5933.11,-183.17 5919.53,-181.38 5906.74,-180 4953.26,-77.36 3793.43,-33.75 3440.59,-22.26"/>
<polygon fill="black" stroke="black" points="3440.49,-18.75 3430.38,-21.93 3440.26,-25.75 3440.49,-18.75"/>
<text text-anchor="middle" x="5941.21" y="-173.88" font-family="Times,serif" font-size="14.00">1</text>
</g>
<!-- cen.func_80199278 -->
<g id="node27" class="node">
<title>cen.func_80199278</title>
<g id="a_node27"><a xlink:href="cen.func_80199278.svg" xlink:title="cen.func_80199278">
<ellipse fill="red" stroke="black" cx="6238.74" cy="-198" rx="100.98" ry="18"/>
<text text-anchor="middle" x="6238.74" y="-194.3" font-family="Times,serif" font-size="14.00">cen.func_80199278</text>
</a>
</g>
</g>
<!-- cen.func_80199278&#45;&gt;cen.InitializeEntity -->
<g id="edge26" class="edge">
<title>cen.func_80199278&#45;&gt;cen.InitializeEntity</title>
<path fill="none" stroke="black" d="M6168.16,-185.07C6155.08,-183.15 6141.52,-181.35 6128.74,-180 5085.41,-69.59 3814.4,-30.91 3441.42,-21.49"/>
<polygon fill="black" stroke="black" points="3441.26,-17.99 3431.17,-21.23 3441.08,-24.98 3441.26,-17.99"/>
<text text-anchor="middle" x="6163.16" y="-173.87" font-family="Times,serif" font-size="14.00">1</text>
</g>
</g>
</svg>
