<?xml version="1.0" encoding="UTF-8" standalone="no"?>
<!DOCTYPE svg PUBLIC "-//W3C//DTD SVG 1.1//EN"
 "http://www.w3.org/Graphics/SVG/1.1/DTD/svg11.dtd">
<!-- Generated by graphviz version 2.43.0 (0)
 -->
<!-- Title: cen.MoveEntity Pages: 1 -->
<svg width="2605pt" height="224pt"
 viewBox="0.00 0.00 2605.08 224.00" xmlns="http://www.w3.org/2000/svg" xmlns:xlink="http://www.w3.org/1999/xlink">
<g id="graph0" class="graph" transform="scale(1 1) rotate(0) translate(4 220)">
<title>cen.MoveEntity</title>
<polygon fill="white" stroke="transparent" points="-4,4 -4,-220 2601.08,-220 2601.08,4 -4,4"/>
<!-- cen.MoveEntity -->
<g id="node1" class="node">
<title>cen.MoveEntity</title>
<ellipse fill="green" stroke="black" cx="1368.04" cy="-18" rx="83.69" ry="18"/>
<text text-anchor="middle" x="1368.04" y="-14.3" font-family="Times,serif" font-size="14.00">cen.MoveEntity</text>
</g>
<!-- cen.EntityBigRedFireball -->
<g id="node2" class="node">
<title>cen.EntityBigRedFireball</title>
<g id="a_node2"><a xlink:href="cen.EntityBigRedFireball.svg" xlink:title="cen.EntityBigRedFireball">
<ellipse fill="green" stroke="black" cx="128.04" cy="-198" rx="128.08" ry="18"/>
<text text-anchor="middle" x="128.04" y="-194.3" font-family="Times,serif" font-size="14.00">cen.EntityBigRedFireball</text>
</a>
</g>
</g>
<!-- cen.EntityBigRedFireball&#45;&gt;cen.MoveEntity -->
<g id="edge1" class="edge">
<title>cen.EntityBigRedFireball&#45;&gt;cen.MoveEntity</title>
<path fill="none" stroke="black" d="M214.25,-184.62C444.29,-151.6 1070.11,-61.77 1290.21,-30.17"/>
<polygon fill="black" stroke="black" points="1290.98,-33.6 1300.38,-28.71 1289.98,-26.67 1290.98,-33.6"/>
<text text-anchor="middle" x="209.25" y="-173.42" font-family="Times,serif" font-size="14.00">1</text>
</g>
<!-- cen.EntityEnemyBlood -->
<g id="node3" class="node">
<title>cen.EntityEnemyBlood</title>
<g id="a_node3"><a xlink:href="cen.EntityEnemyBlood.svg" xlink:title="cen.EntityEnemyBlood">
<ellipse fill="green" stroke="black" cx="391.04" cy="-198" rx="116.98" ry="18"/>
<text text-anchor="middle" x="391.04" y="-194.3" font-family="Times,serif" font-size="14.00">cen.EntityEnemyBlood</text>
</a>
</g>
</g>
<!-- cen.EntityEnemyBlood&#45;&gt;cen.MoveEntity -->
<g id="edge2" class="edge">
<title>cen.EntityEnemyBlood&#45;&gt;cen.MoveEntity</title>
<path fill="none" stroke="black" d="M463.28,-183.84C644.38,-150.84 1116.13,-64.89 1296.49,-32.03"/>
<polygon fill="black" stroke="black" points="1297.2,-35.46 1306.41,-30.23 1295.94,-28.58 1297.2,-35.46"/>
<text text-anchor="middle" x="458.28" y="-172.64" font-family="Times,serif" font-size="14.00">1</text>
</g>
<!-- cen.EntityEquipItemDrop -->
<g id="node4" class="node">
<title>cen.EntityEquipItemDrop</title>
<g id="a_node4"><a xlink:href="cen.EntityEquipItemDrop.svg" xlink:title="cen.EntityEquipItemDrop">
<ellipse fill="red" stroke="black" cx="656.04" cy="-198" rx="129.98" ry="18"/>
<text text-anchor="middle" x="656.04" y="-194.3" font-family="Times,serif" font-size="14.00">cen.EntityEquipItemDrop</text>
</a>
</g>
</g>
<!-- cen.EntityEquipItemDrop&#45;&gt;cen.MoveEntity -->
<g id="edge3" class="edge">
<title>cen.EntityEquipItemDrop&#45;&gt;cen.MoveEntity</title>
<path fill="none" stroke="black" d="M716.13,-181.98C849.74,-148.57 1170.32,-68.43 1305.86,-34.55"/>
<polygon fill="black" stroke="black" points="1306.83,-37.91 1315.68,-32.09 1305.13,-31.12 1306.83,-37.91"/>
<text text-anchor="middle" x="711.13" y="-170.78" font-family="Times,serif" font-size="14.00">1</text>
</g>
<!-- cen.EntityPrizeDrop -->
<g id="node5" class="node">
<title>cen.EntityPrizeDrop</title>
<g id="a_node5"><a xlink:href="cen.EntityPrizeDrop.svg" xlink:title="cen.EntityPrizeDrop">
<ellipse fill="red" stroke="black" cx="909.04" cy="-198" rx="105.08" ry="18"/>
<text text-anchor="middle" x="909.04" y="-194.3" font-family="Times,serif" font-size="14.00">cen.EntityPrizeDrop</text>
</a>
</g>
</g>
<!-- cen.EntityPrizeDrop&#45;&gt;cen.MoveEntity -->
<g id="edge4" class="edge">
<title>cen.EntityPrizeDrop&#45;&gt;cen.MoveEntity</title>
<path fill="none" stroke="black" d="M949.37,-181.36C1033.8,-148.62 1228.83,-72.99 1319.75,-37.73"/>
<polygon fill="black" stroke="black" points="1321.21,-40.92 1329.26,-34.04 1318.67,-34.39 1321.21,-40.92"/>
<text text-anchor="middle" x="944.37" y="-170.16" font-family="Times,serif" font-size="14.00">2</text>
</g>
<!-- cen.EntityRelicOrb -->
<g id="node6" class="node">
<title>cen.EntityRelicOrb</title>
<g id="a_node6"><a xlink:href="cen.EntityRelicOrb.svg" xlink:title="cen.EntityRelicOrb">
<ellipse fill="green" stroke="black" cx="1131.04" cy="-198" rx="98.58" ry="18"/>
<text text-anchor="middle" x="1131.04" y="-194.3" font-family="Times,serif" font-size="14.00">cen.EntityRelicOrb</text>
</a>
</g>
</g>
<!-- cen.EntityRelicOrb&#45;&gt;cen.MoveEntity -->
<g id="edge5" class="edge">
<title>cen.EntityRelicOrb&#45;&gt;cen.MoveEntity</title>
<path fill="none" stroke="black" d="M1153.34,-180.25C1196.06,-148.17 1289.48,-78 1337.78,-41.72"/>
<polygon fill="black" stroke="black" points="1340.08,-44.38 1345.97,-35.57 1335.88,-38.78 1340.08,-44.38"/>
<text text-anchor="middle" x="1148.34" y="-169.05" font-family="Times,serif" font-size="14.00">1</text>
</g>
<!-- cen.EntitySoulStealOrb -->
<g id="node7" class="node">
<title>cen.EntitySoulStealOrb</title>
<g id="a_node7"><a xlink:href="cen.EntitySoulStealOrb.svg" xlink:title="cen.EntitySoulStealOrb">
<ellipse fill="green" stroke="black" cx="1368.04" cy="-198" rx="120.48" ry="18"/>
<text text-anchor="middle" x="1368.04" y="-194.3" font-family="Times,serif" font-size="14.00">cen.EntitySoulStealOrb</text>
</a>
</g>
</g>
<!-- cen.EntitySoulStealOrb&#45;&gt;cen.MoveEntity -->
<g id="edge6" class="edge">
<title>cen.EntitySoulStealOrb&#45;&gt;cen.MoveEntity</title>
<path fill="none" stroke="black" d="M1368.04,-179.93C1368.04,-148.97 1368.04,-83.3 1368.04,-46.13"/>
<polygon fill="black" stroke="black" points="1371.54,-46.02 1368.04,-36.02 1364.54,-46.02 1371.54,-46.02"/>
<text text-anchor="middle" x="1363.04" y="-168.73" font-family="Times,serif" font-size="14.00">1</text>
</g>
<!-- cen.func_8018DB18 -->
<g id="node8" class="node">
<title>cen.func_8018DB18</title>
<g id="a_node8"><a xlink:href="cen.func_8018DB18.svg" xlink:title="cen.func_8018DB18">
<ellipse fill="green" stroke="black" cx="1610.04" cy="-198" rx="103.18" ry="18"/>
<text text-anchor="middle" x="1610.04" y="-194.3" font-family="Times,serif" font-size="14.00">cen.func_8018DB18</text>
</a>
</g>
</g>
<!-- cen.func_8018DB18&#45;&gt;cen.MoveEntity -->
<g id="edge7" class="edge">
<title>cen.func_8018DB18&#45;&gt;cen.MoveEntity</title>
<path fill="none" stroke="black" d="M1587.27,-180.25C1543.56,-148.1 1447.86,-77.71 1398.63,-41.5"/>
<polygon fill="black" stroke="black" points="1400.7,-38.68 1390.57,-35.57 1396.55,-44.32 1400.7,-38.68"/>
<text text-anchor="middle" x="1582.27" y="-169.05" font-family="Times,serif" font-size="14.00">1</text>
</g>
<!-- cen.func_80194674 -->
<g id="node9" class="node">
<title>cen.func_80194674</title>
<g id="a_node9"><a xlink:href="cen.func_80194674.svg" xlink:title="cen.func_80194674">
<ellipse fill="green" stroke="black" cx="1832.04" cy="-198" rx="100.98" ry="18"/>
<text text-anchor="middle" x="1832.04" y="-194.3" font-family="Times,serif" font-size="14.00">cen.func_80194674</text>
</a>
</g>
</g>
<!-- cen.func_80194674&#45;&gt;cen.MoveEntity -->
<g id="edge8" class="edge">
<title>cen.func_80194674&#45;&gt;cen.MoveEntity</title>
<path fill="none" stroke="black" d="M1791.27,-181.36C1705.84,-148.59 1508.37,-72.83 1416.58,-37.62"/>
<polygon fill="black" stroke="black" points="1417.83,-34.35 1407.24,-34.04 1415.32,-40.89 1417.83,-34.35"/>
<text text-anchor="middle" x="1786.27" y="-170.16" font-family="Times,serif" font-size="14.00">1</text>
</g>
<!-- cen.func_80195798 -->
<g id="node10" class="node">
<title>cen.func_80195798</title>
<g id="a_node10"><a xlink:href="cen.func_80195798.svg" xlink:title="cen.func_80195798">
<ellipse fill="red" stroke="black" cx="2051.04" cy="-198" rx="100.98" ry="18"/>
<text text-anchor="middle" x="2051.04" y="-194.3" font-family="Times,serif" font-size="14.00">cen.func_80195798</text>
</a>
</g>
</g>
<!-- cen.func_80195798&#45;&gt;cen.MoveEntity -->
<g id="edge9" class="edge">
<title>cen.func_80195798&#45;&gt;cen.MoveEntity</title>
<path fill="none" stroke="black" d="M1996.59,-182.81C1870.92,-150.06 1561.33,-69.37 1429.3,-34.96"/>
<polygon fill="black" stroke="black" points="1429.9,-31.51 1419.34,-32.37 1428.14,-38.28 1429.9,-31.51"/>
<text text-anchor="middle" x="1991.59" y="-171.61" font-family="Times,serif" font-size="14.00">2</text>
</g>
<!-- cen.func_801989AC -->
<g id="node11" class="node">
<title>cen.func_801989AC</title>
<g id="a_node11"><a xlink:href="cen.func_801989AC.svg" xlink:title="cen.func_801989AC">
<ellipse fill="green" stroke="black" cx="2272.04" cy="-198" rx="102.88" ry="18"/>
<text text-anchor="middle" x="2272.04" y="-194.3" font-family="Times,serif" font-size="14.00">cen.func_801989AC</text>
</a>
</g>
</g>
<!-- cen.func_801989AC&#45;&gt;cen.MoveEntity -->
<g id="edge10" class="edge">
<title>cen.func_801989AC&#45;&gt;cen.MoveEntity</title>
<path fill="none" stroke="black" d="M2206.3,-184.06C2040.58,-151.42 1606.92,-66.04 1437.38,-32.65"/>
<polygon fill="black" stroke="black" points="1438.06,-29.22 1427.57,-30.72 1436.71,-36.09 1438.06,-29.22"/>
<text text-anchor="middle" x="2201.3" y="-172.86" font-family="Times,serif" font-size="14.00">1</text>
</g>
<!-- cen.func_8019902C -->
<g id="node12" class="node">
<title>cen.func_8019902C</title>
<g id="a_node12"><a xlink:href="cen.func_8019902C.svg" xlink:title="cen.func_8019902C">
<ellipse fill="red" stroke="black" cx="2495.04" cy="-198" rx="102.08" ry="18"/>
<text text-anchor="middle" x="2495.04" y="-194.3" font-family="Times,serif" font-size="14.00">cen.func_8019902C</text>
</a>
</g>
</g>
<!-- cen.func_8019902C&#45;&gt;cen.MoveEntity -->
<g id="edge11" class="edge">
<title>cen.func_8019902C&#45;&gt;cen.MoveEntity</title>
<path fill="none" stroke="black" d="M2421.53,-185.39C2218.1,-153.26 1649.21,-63.41 1443.49,-30.92"/>
<polygon fill="black" stroke="black" points="1443.8,-27.42 1433.38,-29.32 1442.71,-34.34 1443.8,-27.42"/>
<text text-anchor="middle" x="2416.53" y="-174.19" font-family="Times,serif" font-size="14.00">1</text>
</g>
</g>
</svg>
