<?xml version="1.0" encoding="UTF-8" standalone="no"?>
<!DOCTYPE svg PUBLIC "-//W3C//DTD SVG 1.1//EN"
 "http://www.w3.org/Graphics/SVG/1.1/DTD/svg11.dtd">
<!-- Generated by graphviz version 2.43.0 (0)
 -->
<!-- Title: cen.EntityRoomForeground Pages: 1 -->
<svg width="418pt" height="224pt"
 viewBox="0.00 0.00 417.63 224.00" xmlns="http://www.w3.org/2000/svg" xmlns:xlink="http://www.w3.org/1999/xlink">
<g id="graph0" class="graph" transform="scale(1 1) rotate(0) translate(4 220)">
<title>cen.EntityRoomForeground</title>
<polygon fill="white" stroke="transparent" points="-4,4 -4,-220 413.63,-220 413.63,4 -4,4"/>
<!-- cen.EntityRoomForeground -->
<g id="node1" class="node">
<title>cen.EntityRoomForeground</title>
<ellipse fill="green" stroke="black" cx="203.84" cy="-198" rx="139.18" ry="18"/>
<text text-anchor="middle" x="203.84" y="-194.3" font-family="Times,serif" font-size="14.00">cen.EntityRoomForeground</text>
</g>
<!-- cen.AnimateEntity -->
<g id="node2" class="node">
<title>cen.AnimateEntity</title>
<g id="a_node2"><a xlink:href="cen.AnimateEntity.svg" xlink:title="cen.AnimateEntity">
<ellipse fill="green" stroke="black" cx="96.84" cy="-18" rx="96.68" ry="18"/>
<text text-anchor="middle" x="96.84" y="-14.3" font-family="Times,serif" font-size="14.00">cen.AnimateEntity</text>
</a>
</g>
</g>
<!-- cen.EntityRoomForeground&#45;&gt;cen.AnimateEntity -->
<g id="edge1" class="edge">
<title>cen.EntityRoomForeground&#45;&gt;cen.AnimateEntity</title>
<path fill="none" stroke="black" d="M193.58,-179.93C174.73,-148.57 134.47,-81.6 112.29,-44.71"/>
<polygon fill="black" stroke="black" points="115.22,-42.78 107.07,-36.02 109.22,-46.39 115.22,-42.78"/>
<text text-anchor="middle" x="102.07" y="-39.82" font-family="Times,serif" font-size="14.00">1</text>
</g>
<!-- cen.InitializeEntity -->
<g id="node3" class="node">
<title>cen.InitializeEntity</title>
<g id="a_node3"><a xlink:href="cen.InitializeEntity.svg" xlink:title="cen.InitializeEntity">
<ellipse fill="green" stroke="black" cx="310.84" cy="-18" rx="98.58" ry="18"/>
<text text-anchor="middle" x="310.84" y="-14.3" font-family="Times,serif" font-size="14.00">cen.InitializeEntity</text>
</a>
</g>
</g>
<!-- cen.EntityRoomForeground&#45;&gt;cen.InitializeEntity -->
<g id="edge2" class="edge">
<title>cen.EntityRoomForeground&#45;&gt;cen.InitializeEntity</title>
<path fill="none" stroke="black" d="M214.1,-179.93C232.96,-148.57 273.21,-81.6 295.39,-44.71"/>
<polygon fill="black" stroke="black" points="298.46,-46.39 300.61,-36.02 292.46,-42.78 298.46,-46.39"/>
<text text-anchor="middle" x="295.61" y="-39.82" font-family="Times,serif" font-size="14.00">1</text>
</g>
</g>
</svg>
