<?xml version="1.0" encoding="UTF-8" standalone="no"?>
<!DOCTYPE svg PUBLIC "-//W3C//DTD SVG 1.1//EN"
 "http://www.w3.org/Graphics/SVG/1.1/DTD/svg11.dtd">
<!-- Generated by graphviz version 2.43.0 (0)
 -->
<!-- Title: cen.EntityHolyGlassesCutscene Pages: 1 -->
<svg width="3434pt" height="224pt"
 viewBox="0.00 0.00 3434.28 224.00" xmlns="http://www.w3.org/2000/svg" xmlns:xlink="http://www.w3.org/1999/xlink">
<g id="graph0" class="graph" transform="scale(1 1) rotate(0) translate(4 220)">
<title>cen.EntityHolyGlassesCutscene</title>
<polygon fill="white" stroke="transparent" points="-4,4 -4,-220 3430.28,-220 3430.28,4 -4,4"/>
<!-- cen.EntityHolyGlassesCutscene -->
<g id="node1" class="node">
<title>cen.EntityHolyGlassesCutscene</title>
<ellipse fill="green" stroke="black" cx="1600.74" cy="-198" rx="158.67" ry="18"/>
<text text-anchor="middle" x="1600.74" y="-194.3" font-family="Times,serif" font-size="14.00">cen.EntityHolyGlassesCutscene</text>
</g>
<!-- LoadTPage -->
<g id="node2" class="node">
<title>LoadTPage</title>
<g id="a_node2"><a xlink:href="LoadTPage.svg" xlink:title="LoadTPage">
<ellipse fill="lightblue" stroke="black" cx="61.74" cy="-18" rx="61.99" ry="18"/>
<text text-anchor="middle" x="61.74" y="-14.3" font-family="Times,serif" font-size="14.00">LoadTPage</text>
</a>
</g>
</g>
<!-- cen.EntityHolyGlassesCutscene&#45;&gt;LoadTPage -->
<g id="edge1" class="edge">
<title>cen.EntityHolyGlassesCutscene&#45;&gt;LoadTPage</title>
<path fill="none" stroke="black" d="M1468.12,-188.07C1209.73,-169.44 621.37,-120.94 132.74,-36 127.36,-35.06 121.77,-33.96 116.21,-32.77"/>
<polygon fill="black" stroke="black" points="116.78,-29.31 106.26,-30.56 115.26,-36.15 116.78,-29.31"/>
<text text-anchor="middle" x="101.26" y="-34.36" font-family="Times,serif" font-size="14.00">1</text>
</g>
<!-- MoveImage -->
<g id="node3" class="node">
<title>MoveImage</title>
<g id="a_node3"><a xlink:href="MoveImage.svg" xlink:title="MoveImage">
<ellipse fill="lightblue" stroke="black" cx="206.74" cy="-18" rx="64.99" ry="18"/>
<text text-anchor="middle" x="206.74" y="-14.3" font-family="Times,serif" font-size="14.00">MoveImage</text>
</a>
</g>
</g>
<!-- cen.EntityHolyGlassesCutscene&#45;&gt;MoveImage -->
<g id="edge2" class="edge">
<title>cen.EntityHolyGlassesCutscene&#45;&gt;MoveImage</title>
<path fill="none" stroke="black" d="M1479.1,-186.45C1245.64,-165.25 719.05,-112.86 280.74,-36 275.09,-35.01 269.21,-33.86 263.36,-32.64"/>
<polygon fill="black" stroke="black" points="264.08,-29.22 253.57,-30.53 262.61,-36.06 264.08,-29.22"/>
<text text-anchor="middle" x="248.57" y="-34.33" font-family="Times,serif" font-size="14.00">1</text>
</g>
<!-- cen.CutsceneRun -->
<g id="node4" class="node">
<title>cen.CutsceneRun</title>
<g id="a_node4"><a xlink:href="cen.CutsceneRun.svg" xlink:title="cen.CutsceneRun">
<ellipse fill="green" stroke="black" cx="380.74" cy="-18" rx="90.98" ry="18"/>
<text text-anchor="middle" x="380.74" y="-14.3" font-family="Times,serif" font-size="14.00">cen.CutsceneRun</text>
</a>
</g>
</g>
<!-- cen.EntityHolyGlassesCutscene&#45;&gt;cen.CutsceneRun -->
<g id="edge3" class="edge">
<title>cen.EntityHolyGlassesCutscene&#45;&gt;cen.CutsceneRun</title>
<path fill="none" stroke="black" d="M1502.87,-183.79C1308.04,-157.3 857.97,-95.17 480.74,-36 472.89,-34.77 464.7,-33.44 456.53,-32.09"/>
<polygon fill="black" stroke="black" points="457.04,-28.63 446.6,-30.44 455.89,-35.54 457.04,-28.63"/>
<text text-anchor="middle" x="441.6" y="-34.24" font-family="Times,serif" font-size="14.00">1</text>
</g>
<!-- cen.CutsceneUnk1 -->
<g id="node5" class="node">
<title>cen.CutsceneUnk1</title>
<g id="a_node5"><a xlink:href="cen.CutsceneUnk1.svg" xlink:title="cen.CutsceneUnk1">
<ellipse fill="green" stroke="black" cx="586.74" cy="-18" rx="97.48" ry="18"/>
<text text-anchor="middle" x="586.74" y="-14.3" font-family="Times,serif" font-size="14.00">cen.CutsceneUnk1</text>
</a>
</g>
</g>
<!-- cen.EntityHolyGlassesCutscene&#45;&gt;cen.CutsceneUnk1 -->
<g id="edge4" class="edge">
<title>cen.EntityHolyGlassesCutscene&#45;&gt;cen.CutsceneUnk1</title>
<path fill="none" stroke="black" d="M1518.62,-182.58C1326.96,-148.94 852.18,-65.6 664.7,-32.68"/>
<polygon fill="black" stroke="black" points="665.1,-29.2 654.64,-30.92 663.89,-36.1 665.1,-29.2"/>
<text text-anchor="middle" x="649.64" y="-34.72" font-family="Times,serif" font-size="14.00">1</text>
</g>
<!-- cen.CutsceneUnk4 -->
<g id="node6" class="node">
<title>cen.CutsceneUnk4</title>
<g id="a_node6"><a xlink:href="cen.CutsceneUnk4.svg" xlink:title="cen.CutsceneUnk4">
<ellipse fill="green" stroke="black" cx="799.74" cy="-18" rx="97.48" ry="18"/>
<text text-anchor="middle" x="799.74" y="-14.3" font-family="Times,serif" font-size="14.00">cen.CutsceneUnk4</text>
</a>
</g>
</g>
<!-- cen.EntityHolyGlassesCutscene&#45;&gt;cen.CutsceneUnk4 -->
<g id="edge5" class="edge">
<title>cen.EntityHolyGlassesCutscene&#45;&gt;cen.CutsceneUnk4</title>
<path fill="none" stroke="black" d="M1532.11,-181.75C1381.17,-148.21 1021.79,-68.34 869.67,-34.54"/>
<polygon fill="black" stroke="black" points="870.04,-31.04 859.52,-32.28 868.52,-37.87 870.04,-31.04"/>
<text text-anchor="middle" x="854.52" y="-36.08" font-family="Times,serif" font-size="14.00">2</text>
</g>
<!-- cen.CutsceneUnk6 -->
<g id="node7" class="node">
<title>cen.CutsceneUnk6</title>
<g id="a_node7"><a xlink:href="cen.CutsceneUnk6.svg" xlink:title="cen.CutsceneUnk6">
<ellipse fill="green" stroke="black" cx="1012.74" cy="-18" rx="97.48" ry="18"/>
<text text-anchor="middle" x="1012.74" y="-14.3" font-family="Times,serif" font-size="14.00">cen.CutsceneUnk6</text>
</a>
</g>
</g>
<!-- cen.EntityHolyGlassesCutscene&#45;&gt;cen.CutsceneUnk6 -->
<g id="edge6" class="edge">
<title>cen.EntityHolyGlassesCutscene&#45;&gt;cen.CutsceneUnk6</title>
<path fill="none" stroke="black" d="M1547.79,-180.97C1437.79,-147.67 1185.34,-71.25 1070.96,-36.62"/>
<polygon fill="black" stroke="black" points="1071.91,-33.25 1061.32,-33.71 1069.88,-39.95 1071.91,-33.25"/>
<text text-anchor="middle" x="1056.32" y="-37.51" font-family="Times,serif" font-size="14.00">1</text>
</g>
<!-- cen.DestroyEntity -->
<g id="node8" class="node">
<title>cen.DestroyEntity</title>
<g id="a_node8"><a xlink:href="cen.DestroyEntity.svg" xlink:title="cen.DestroyEntity">
<ellipse fill="green" stroke="black" cx="1222.74" cy="-18" rx="94.78" ry="18"/>
<text text-anchor="middle" x="1222.74" y="-14.3" font-family="Times,serif" font-size="14.00">cen.DestroyEntity</text>
</a>
</g>
</g>
<!-- cen.EntityHolyGlassesCutscene&#45;&gt;cen.DestroyEntity -->
<g id="edge7" class="edge">
<title>cen.EntityHolyGlassesCutscene&#45;&gt;cen.DestroyEntity</title>
<path fill="none" stroke="black" d="M1565.52,-180.41C1495.92,-147.64 1340.99,-74.68 1265.6,-39.18"/>
<polygon fill="black" stroke="black" points="1266.92,-35.93 1256.38,-34.84 1263.94,-42.27 1266.92,-35.93"/>
<text text-anchor="middle" x="1251.38" y="-38.64" font-family="Times,serif" font-size="14.00">2</text>
</g>
<!-- cen.DrawCutsceneAvatar -->
<g id="node9" class="node">
<title>cen.DrawCutsceneAvatar</title>
<g id="a_node9"><a xlink:href="cen.DrawCutsceneAvatar.svg" xlink:title="cen.DrawCutsceneAvatar">
<ellipse fill="green" stroke="black" cx="1463.74" cy="-18" rx="128.08" ry="18"/>
<text text-anchor="middle" x="1463.74" y="-14.3" font-family="Times,serif" font-size="14.00">cen.DrawCutsceneAvatar</text>
</a>
</g>
</g>
<!-- cen.EntityHolyGlassesCutscene&#45;&gt;cen.DrawCutsceneAvatar -->
<g id="edge8" class="edge">
<title>cen.EntityHolyGlassesCutscene&#45;&gt;cen.DrawCutsceneAvatar</title>
<path fill="none" stroke="black" d="M1587.61,-179.93C1563.37,-148.43 1511.49,-81.03 1483.17,-44.24"/>
<polygon fill="black" stroke="black" points="1485.71,-41.81 1476.84,-36.02 1480.17,-46.08 1485.71,-41.81"/>
<text text-anchor="middle" x="1471.84" y="-39.82" font-family="Times,serif" font-size="14.00">1</text>
</g>
<!-- cen.ScaleCutsceneAvatar -->
<g id="node10" class="node">
<title>cen.ScaleCutsceneAvatar</title>
<g id="a_node10"><a xlink:href="cen.ScaleCutsceneAvatar.svg" xlink:title="cen.ScaleCutsceneAvatar">
<ellipse fill="green" stroke="black" cx="1737.74" cy="-18" rx="128.08" ry="18"/>
<text text-anchor="middle" x="1737.74" y="-14.3" font-family="Times,serif" font-size="14.00">cen.ScaleCutsceneAvatar</text>
</a>
</g>
</g>
<!-- cen.EntityHolyGlassesCutscene&#45;&gt;cen.ScaleCutsceneAvatar -->
<g id="edge9" class="edge">
<title>cen.EntityHolyGlassesCutscene&#45;&gt;cen.ScaleCutsceneAvatar</title>
<path fill="none" stroke="black" d="M1613.88,-179.93C1638.12,-148.43 1690,-81.03 1718.32,-44.24"/>
<polygon fill="black" stroke="black" points="1721.32,-46.08 1724.65,-36.02 1715.78,-41.81 1721.32,-46.08"/>
<text text-anchor="middle" x="1719.65" y="-39.82" font-family="Times,serif" font-size="14.00">1</text>
</g>
<!-- cen.SetCutsceneScript -->
<g id="node11" class="node">
<title>cen.SetCutsceneScript</title>
<g id="a_node11"><a xlink:href="cen.SetCutsceneScript.svg" xlink:title="cen.SetCutsceneScript">
<ellipse fill="green" stroke="black" cx="1999.74" cy="-18" rx="116.18" ry="18"/>
<text text-anchor="middle" x="1999.74" y="-14.3" font-family="Times,serif" font-size="14.00">cen.SetCutsceneScript</text>
</a>
</g>
</g>
<!-- cen.EntityHolyGlassesCutscene&#45;&gt;cen.SetCutsceneScript -->
<g id="edge10" class="edge">
<title>cen.EntityHolyGlassesCutscene&#45;&gt;cen.SetCutsceneScript</title>
<path fill="none" stroke="black" d="M1637.92,-180.41C1711.26,-147.7 1874.35,-74.94 1954.08,-39.37"/>
<polygon fill="black" stroke="black" points="1955.68,-42.49 1963.38,-35.22 1952.82,-36.1 1955.68,-42.49"/>
<text text-anchor="middle" x="1958.38" y="-39.02" font-family="Times,serif" font-size="14.00">1</text>
</g>
<!-- dra.AllocPrimitives -->
<g id="node12" class="node">
<title>dra.AllocPrimitives</title>
<g id="a_node12"><a xlink:href="dra.AllocPrimitives.svg" xlink:title="dra.AllocPrimitives">
<ellipse fill="green" stroke="black" cx="2233.74" cy="-18" rx="99.38" ry="18"/>
<text text-anchor="middle" x="2233.74" y="-14.3" font-family="Times,serif" font-size="14.00">dra.AllocPrimitives</text>
</a>
</g>
</g>
<!-- cen.EntityHolyGlassesCutscene&#45;&gt;dra.AllocPrimitives -->
<g id="edge11" class="edge">
<title>cen.EntityHolyGlassesCutscene&#45;&gt;dra.AllocPrimitives</title>
<path fill="none" stroke="black" d="M1657.2,-181.13C1775.68,-147.81 2049.45,-70.82 2172.22,-36.3"/>
<polygon fill="black" stroke="black" points="2173.53,-39.57 2182.21,-33.49 2171.64,-32.83 2173.53,-39.57"/>
<text text-anchor="middle" x="2177.21" y="-37.29" font-family="Times,serif" font-size="14.00">1</text>
</g>
<!-- dra.FreePrimitives -->
<g id="node13" class="node">
<title>dra.FreePrimitives</title>
<g id="a_node13"><a xlink:href="dra.FreePrimitives.svg" xlink:title="dra.FreePrimitives">
<ellipse fill="green" stroke="black" cx="2449.74" cy="-18" rx="98.58" ry="18"/>
<text text-anchor="middle" x="2449.74" y="-14.3" font-family="Times,serif" font-size="14.00">dra.FreePrimitives</text>
</a>
</g>
</g>
<!-- cen.EntityHolyGlassesCutscene&#45;&gt;dra.FreePrimitives -->
<g id="edge12" class="edge">
<title>cen.EntityHolyGlassesCutscene&#45;&gt;dra.FreePrimitives</title>
<path fill="none" stroke="black" d="M1672.76,-181.9C1832.91,-148.33 2217,-67.8 2377.42,-34.16"/>
<polygon fill="black" stroke="black" points="2378.59,-37.49 2387.66,-32.02 2377.16,-30.64 2378.59,-37.49"/>
<text text-anchor="middle" x="2382.66" y="-35.82" font-family="Times,serif" font-size="14.00">2</text>
</g>
<!-- dra.PlaySfx -->
<g id="node14" class="node">
<title>dra.PlaySfx</title>
<g id="a_node14"><a xlink:href="dra.PlaySfx.svg" xlink:title="dra.PlaySfx">
<ellipse fill="green" stroke="black" cx="2630.74" cy="-18" rx="64.19" ry="18"/>
<text text-anchor="middle" x="2630.74" y="-14.3" font-family="Times,serif" font-size="14.00">dra.PlaySfx</text>
</a>
</g>
</g>
<!-- cen.EntityHolyGlassesCutscene&#45;&gt;dra.PlaySfx -->
<g id="edge13" class="edge">
<title>cen.EntityHolyGlassesCutscene&#45;&gt;dra.PlaySfx</title>
<path fill="none" stroke="black" d="M1693.48,-183.36C1864.8,-157.72 2242.22,-99.22 2557.74,-36 2563.01,-34.95 2568.47,-33.79 2573.93,-32.59"/>
<polygon fill="black" stroke="black" points="2574.72,-36 2583.71,-30.4 2573.19,-29.17 2574.72,-36"/>
<text text-anchor="middle" x="2578.71" y="-34.2" font-family="Times,serif" font-size="14.00">2</text>
</g>
<!-- dra.TimeAttackController -->
<g id="node15" class="node">
<title>dra.TimeAttackController</title>
<g id="a_node15"><a xlink:href="dra.TimeAttackController.svg" xlink:title="dra.TimeAttackController">
<ellipse fill="green" stroke="black" cx="2842.74" cy="-18" rx="129.18" ry="18"/>
<text text-anchor="middle" x="2842.74" y="-14.3" font-family="Times,serif" font-size="14.00">dra.TimeAttackController</text>
</a>
</g>
</g>
<!-- cen.EntityHolyGlassesCutscene&#45;&gt;dra.TimeAttackController -->
<g id="edge14" class="edge">
<title>cen.EntityHolyGlassesCutscene&#45;&gt;dra.TimeAttackController</title>
<path fill="none" stroke="black" d="M1694.86,-183.51C1924.76,-150.56 2513.06,-66.25 2745.83,-32.89"/>
<polygon fill="black" stroke="black" points="2746.57,-36.32 2755.97,-31.44 2745.58,-29.39 2746.57,-36.32"/>
<text text-anchor="middle" x="2750.97" y="-35.24" font-family="Times,serif" font-size="14.00">1</text>
</g>
<!-- dra.func_80131F68 -->
<g id="node16" class="node">
<title>dra.func_80131F68</title>
<g id="a_node16"><a xlink:href="dra.func_80131F68.svg" xlink:title="dra.func_80131F68">
<ellipse fill="green" stroke="black" cx="3090.74" cy="-18" rx="100.98" ry="18"/>
<text text-anchor="middle" x="3090.74" y="-14.3" font-family="Times,serif" font-size="14.00">dra.func_80131F68</text>
</a>
</g>
</g>
<!-- cen.EntityHolyGlassesCutscene&#45;&gt;dra.func_80131F68 -->
<g id="edge15" class="edge">
<title>cen.EntityHolyGlassesCutscene&#45;&gt;dra.func_80131F68</title>
<path fill="none" stroke="black" d="M1713.62,-185.27C1949.35,-160.45 2511.07,-99.67 2980.74,-36 2989.67,-34.79 2999,-33.46 3008.28,-32.08"/>
<polygon fill="black" stroke="black" points="3008.94,-35.52 3018.32,-30.58 3007.91,-28.6 3008.94,-35.52"/>
<text text-anchor="middle" x="3013.32" y="-34.38" font-family="Times,serif" font-size="14.00">2</text>
</g>
<!-- g_api_FreePrimitives -->
<g id="node17" class="node">
<title>g_api_FreePrimitives</title>
<g id="a_node17"><a xlink:href="g_api_FreePrimitives.svg" xlink:title="g_api_FreePrimitives">
<ellipse fill="lightblue" stroke="black" cx="3317.74" cy="-18" rx="108.58" ry="18"/>
<text text-anchor="middle" x="3317.74" y="-14.3" font-family="Times,serif" font-size="14.00">g_api_FreePrimitives</text>
</a>
</g>
</g>
<!-- cen.EntityHolyGlassesCutscene&#45;&gt;g_api_FreePrimitives -->
<g id="edge16" class="edge">
<title>cen.EntityHolyGlassesCutscene&#45;&gt;g_api_FreePrimitives</title>
<path fill="none" stroke="black" d="M1723.14,-186.53C1991.27,-163.2 2650.54,-103.62 3200.74,-36 3210.45,-34.81 3220.59,-33.47 3230.67,-32.08"/>
<polygon fill="black" stroke="black" points="3231.29,-35.53 3240.71,-30.68 3230.33,-28.6 3231.29,-35.53"/>
<text text-anchor="middle" x="3235.71" y="-34.48" font-family="Times,serif" font-size="14.00">3</text>
</g>
</g>
</svg>
