<?xml version="1.0" encoding="UTF-8" standalone="no"?>
<!DOCTYPE svg PUBLIC "-//W3C//DTD SVG 1.1//EN"
 "http://www.w3.org/Graphics/SVG/1.1/DTD/svg11.dtd">
<!-- Generated by graphviz version 2.43.0 (0)
 -->
<!-- Title: cen.func_80194BE8 Pages: 1 -->
<svg width="434pt" height="404pt"
 viewBox="0.00 0.00 434.08 404.00" xmlns="http://www.w3.org/2000/svg" xmlns:xlink="http://www.w3.org/1999/xlink">
<g id="graph0" class="graph" transform="scale(1 1) rotate(0) translate(4 400)">
<title>cen.func_80194BE8</title>
<polygon fill="white" stroke="transparent" points="-4,4 -4,-400 430.08,-400 430.08,4 -4,4"/>
<!-- cen.func_80194BE8 -->
<g id="node1" class="node">
<title>cen.func_80194BE8</title>
<ellipse fill="green" stroke="black" cx="213.04" cy="-198" rx="102.88" ry="18"/>
<text text-anchor="middle" x="213.04" y="-194.3" font-family="Times,serif" font-size="14.00">cen.func_80194BE8</text>
</g>
<!-- ratan2 -->
<g id="node2" class="node">
<title>ratan2</title>
<g id="a_node2"><a xlink:href="ratan2.svg" xlink:title="ratan2">
<ellipse fill="lightblue" stroke="black" cx="213.04" cy="-18" rx="41.69" ry="18"/>
<text text-anchor="middle" x="213.04" y="-14.3" font-family="Times,serif" font-size="14.00">ratan2</text>
</a>
</g>
</g>
<!-- cen.func_80194BE8&#45;&gt;ratan2 -->
<g id="edge1" class="edge">
<title>cen.func_80194BE8&#45;&gt;ratan2</title>
<path fill="none" stroke="black" d="M213.04,-179.93C213.04,-148.97 213.04,-83.3 213.04,-46.13"/>
<polygon fill="black" stroke="black" points="216.54,-46.02 213.04,-36.02 209.54,-46.02 216.54,-46.02"/>
<text text-anchor="middle" x="208.04" y="-39.82" font-family="Times,serif" font-size="14.00">1</text>
</g>
<!-- cen.func_80194C20 -->
<g id="node3" class="node">
<title>cen.func_80194C20</title>
<g id="a_node3"><a xlink:href="cen.func_80194C20.svg" xlink:title="cen.func_80194C20">
<ellipse fill="green" stroke="black" cx="102.04" cy="-378" rx="102.08" ry="18"/>
<text text-anchor="middle" x="102.04" y="-374.3" font-family="Times,serif" font-size="14.00">cen.func_80194C20</text>
</a>
</g>
</g>
<!-- cen.func_80194C20&#45;&gt;cen.func_80194BE8 -->
<g id="edge2" class="edge">
<title>cen.func_80194C20&#45;&gt;cen.func_80194BE8</title>
<path fill="none" stroke="black" d="M112.68,-359.93C132.24,-328.57 174,-261.6 197.01,-224.71"/>
<polygon fill="black" stroke="black" points="200.11,-226.35 202.43,-216.02 194.17,-222.65 200.11,-226.35"/>
<text text-anchor="middle" x="107.68" y="-348.73" font-family="Times,serif" font-size="14.00">1</text>
</g>
<!-- cen.func_80194C68 -->
<g id="node4" class="node">
<title>cen.func_80194C68</title>
<g id="a_node4"><a xlink:href="cen.func_80194C68.svg" xlink:title="cen.func_80194C68">
<ellipse fill="green" stroke="black" cx="324.04" cy="-378" rx="102.08" ry="18"/>
<text text-anchor="middle" x="324.04" y="-374.3" font-family="Times,serif" font-size="14.00">cen.func_80194C68</text>
</a>
</g>
</g>
<!-- cen.func_80194C68&#45;&gt;cen.func_80194BE8 -->
<g id="edge3" class="edge">
<title>cen.func_80194C68&#45;&gt;cen.func_80194BE8</title>
<path fill="none" stroke="black" d="M313.4,-359.93C293.84,-328.57 252.08,-261.6 229.07,-224.71"/>
<polygon fill="black" stroke="black" points="231.91,-222.65 223.65,-216.02 225.97,-226.35 231.91,-222.65"/>
<text text-anchor="middle" x="308.4" y="-348.73" font-family="Times,serif" font-size="14.00">1</text>
</g>
</g>
</svg>
