<?xml version="1.0" encoding="UTF-8" standalone="no"?>
<!DOCTYPE svg PUBLIC "-//W3C//DTD SVG 1.1//EN"
 "http://www.w3.org/Graphics/SVG/1.1/DTD/svg11.dtd">
<!-- Generated by graphviz version 2.43.0 (0)
 -->
<!-- Title: cen.MoveEntity Pages: 1 -->
<svg width="2702pt" height="224pt"
 viewBox="0.00 0.00 2701.78 224.00" xmlns="http://www.w3.org/2000/svg" xmlns:xlink="http://www.w3.org/1999/xlink">
<g id="graph0" class="graph" transform="scale(1 1) rotate(0) translate(4 220)">
<title>cen.MoveEntity</title>
<polygon fill="white" stroke="transparent" points="-4,4 -4,-220 2697.78,-220 2697.78,4 -4,4"/>
<!-- cen.MoveEntity -->
<g id="node1" class="node">
<title>cen.MoveEntity</title>
<ellipse fill="green" stroke="black" cx="1368.04" cy="-18" rx="83.69" ry="18"/>
<text text-anchor="middle" x="1368.04" y="-14.3" font-family="Times,serif" font-size="14.00">cen.MoveEntity</text>
</g>
<!-- cen.EntityBigRedFireball -->
<g id="node2" class="node">
<title>cen.EntityBigRedFireball</title>
<g id="a_node2"><a xlink:href="cen.EntityBigRedFireball.svg" xlink:title="cen.EntityBigRedFireball">
<ellipse fill="green" stroke="black" cx="128.04" cy="-198" rx="128.08" ry="18"/>
<text text-anchor="middle" x="128.04" y="-194.3" font-family="Times,serif" font-size="14.00">cen.EntityBigRedFireball</text>
</a>
</g>
</g>
<!-- cen.EntityBigRedFireball&#45;&gt;cen.MoveEntity -->
<g id="edge1" class="edge">
<title>cen.EntityBigRedFireball&#45;&gt;cen.MoveEntity</title>
<path fill="none" stroke="black" d="M214.25,-184.62C444.29,-151.6 1070.11,-61.77 1290.21,-30.17"/>
<polygon fill="black" stroke="black" points="1290.98,-33.6 1300.38,-28.71 1289.98,-26.67 1290.98,-33.6"/>
<text text-anchor="middle" x="209.25" y="-173.42" font-family="Times,serif" font-size="14.00">1</text>
</g>
<!-- cen.EntityEnemyBlood -->
<g id="node3" class="node">
<title>cen.EntityEnemyBlood</title>
<g id="a_node3"><a xlink:href="cen.EntityEnemyBlood.svg" xlink:title="cen.EntityEnemyBlood">
<ellipse fill="green" stroke="black" cx="391.04" cy="-198" rx="116.98" ry="18"/>
<text text-anchor="middle" x="391.04" y="-194.3" font-family="Times,serif" font-size="14.00">cen.EntityEnemyBlood</text>
</a>
</g>
</g>
<!-- cen.EntityEnemyBlood&#45;&gt;cen.MoveEntity -->
<g id="edge2" class="edge">
<title>cen.EntityEnemyBlood&#45;&gt;cen.MoveEntity</title>
<path fill="none" stroke="black" d="M463.28,-183.84C644.38,-150.84 1116.13,-64.89 1296.49,-32.03"/>
<polygon fill="black" stroke="black" points="1297.2,-35.46 1306.41,-30.23 1295.94,-28.58 1297.2,-35.46"/>
<text text-anchor="middle" x="458.28" y="-172.64" font-family="Times,serif" font-size="14.00">1</text>
</g>
<!-- cen.EntityEquipItemDrop -->
<g id="node4" class="node">
<title>cen.EntityEquipItemDrop</title>
<g id="a_node4"><a xlink:href="cen.EntityEquipItemDrop.svg" xlink:title="cen.EntityEquipItemDrop">
<ellipse fill="green" stroke="black" cx="656.04" cy="-198" rx="129.98" ry="18"/>
<text text-anchor="middle" x="656.04" y="-194.3" font-family="Times,serif" font-size="14.00">cen.EntityEquipItemDrop</text>
</a>
</g>
</g>
<!-- cen.EntityEquipItemDrop&#45;&gt;cen.MoveEntity -->
<g id="edge3" class="edge">
<title>cen.EntityEquipItemDrop&#45;&gt;cen.MoveEntity</title>
<path fill="none" stroke="black" d="M716.13,-181.98C849.74,-148.57 1170.32,-68.43 1305.86,-34.55"/>
<polygon fill="black" stroke="black" points="1306.83,-37.91 1315.68,-32.09 1305.13,-31.12 1306.83,-37.91"/>
<text text-anchor="middle" x="711.13" y="-170.78" font-family="Times,serif" font-size="14.00">1</text>
</g>
<!-- cen.EntityPrizeDrop -->
<g id="node5" class="node">
<title>cen.EntityPrizeDrop</title>
<g id="a_node5"><a xlink:href="cen.EntityPrizeDrop.svg" xlink:title="cen.EntityPrizeDrop">
<ellipse fill="green" stroke="black" cx="909.04" cy="-198" rx="105.08" ry="18"/>
<text text-anchor="middle" x="909.04" y="-194.3" font-family="Times,serif" font-size="14.00">cen.EntityPrizeDrop</text>
</a>
</g>
</g>
<!-- cen.EntityPrizeDrop&#45;&gt;cen.MoveEntity -->
<g id="edge4" class="edge">
<title>cen.EntityPrizeDrop&#45;&gt;cen.MoveEntity</title>
<path fill="none" stroke="black" d="M949.37,-181.36C1033.8,-148.62 1228.83,-72.99 1319.75,-37.73"/>
<polygon fill="black" stroke="black" points="1321.21,-40.92 1329.26,-34.04 1318.67,-34.39 1321.21,-40.92"/>
<text text-anchor="middle" x="944.37" y="-170.16" font-family="Times,serif" font-size="14.00">2</text>
</g>
<!-- cen.EntityRelicOrb -->
<g id="node6" class="node">
<title>cen.EntityRelicOrb</title>
<g id="a_node6"><a xlink:href="cen.EntityRelicOrb.svg" xlink:title="cen.EntityRelicOrb">
<ellipse fill="green" stroke="black" cx="1131.04" cy="-198" rx="98.58" ry="18"/>
<text text-anchor="middle" x="1131.04" y="-194.3" font-family="Times,serif" font-size="14.00">cen.EntityRelicOrb</text>
</a>
</g>
</g>
<!-- cen.EntityRelicOrb&#45;&gt;cen.MoveEntity -->
<g id="edge5" class="edge">
<title>cen.EntityRelicOrb&#45;&gt;cen.MoveEntity</title>
<path fill="none" stroke="black" d="M1153.34,-180.25C1196.06,-148.17 1289.48,-78 1337.78,-41.72"/>
<polygon fill="black" stroke="black" points="1340.08,-44.38 1345.97,-35.57 1335.88,-38.78 1340.08,-44.38"/>
<text text-anchor="middle" x="1148.34" y="-169.05" font-family="Times,serif" font-size="14.00">1</text>
</g>
<!-- cen.EntitySoulStealOrb -->
<g id="node7" class="node">
<title>cen.EntitySoulStealOrb</title>
<g id="a_node7"><a xlink:href="cen.EntitySoulStealOrb.svg" xlink:title="cen.EntitySoulStealOrb">
<ellipse fill="green" stroke="black" cx="1368.04" cy="-198" rx="120.48" ry="18"/>
<text text-anchor="middle" x="1368.04" y="-194.3" font-family="Times,serif" font-size="14.00">cen.EntitySoulStealOrb</text>
</a>
</g>
</g>
<!-- cen.EntitySoulStealOrb&#45;&gt;cen.MoveEntity -->
<g id="edge6" class="edge">
<title>cen.EntitySoulStealOrb&#45;&gt;cen.MoveEntity</title>
<path fill="none" stroke="black" d="M1368.04,-179.93C1368.04,-148.97 1368.04,-83.3 1368.04,-46.13"/>
<polygon fill="black" stroke="black" points="1371.54,-46.02 1368.04,-36.02 1364.54,-46.02 1371.54,-46.02"/>
<text text-anchor="middle" x="1363.04" y="-168.73" font-family="Times,serif" font-size="14.00">1</text>
</g>
<!-- cen.InitializeUnkEntity -->
<g id="node8" class="node">
<title>cen.InitializeUnkEntity</title>
<g id="a_node8"><a xlink:href="cen.InitializeUnkEntity.svg" xlink:title="cen.InitializeUnkEntity">
<ellipse fill="green" stroke="black" cx="1625.04" cy="-198" rx="118.08" ry="18"/>
<text text-anchor="middle" x="1625.04" y="-194.3" font-family="Times,serif" font-size="14.00">cen.InitializeUnkEntity</text>
</a>
</g>
</g>
<!-- cen.InitializeUnkEntity&#45;&gt;cen.MoveEntity -->
<g id="edge7" class="edge">
<title>cen.InitializeUnkEntity&#45;&gt;cen.MoveEntity</title>
<path fill="none" stroke="black" d="M1600.86,-180.25C1554.32,-148.02 1452.29,-77.35 1400.12,-41.22"/>
<polygon fill="black" stroke="black" points="1401.81,-38.13 1391.59,-35.31 1397.82,-43.89 1401.81,-38.13"/>
<text text-anchor="middle" x="1595.86" y="-169.05" font-family="Times,serif" font-size="14.00">1</text>
</g>
<!-- cen.UnkCollisionFunc3 -->
<g id="node9" class="node">
<title>cen.UnkCollisionFunc3</title>
<g id="a_node9"><a xlink:href="cen.UnkCollisionFunc3.svg" xlink:title="cen.UnkCollisionFunc3">
<ellipse fill="green" stroke="black" cx="1879.04" cy="-198" rx="117.78" ry="18"/>
<text text-anchor="middle" x="1879.04" y="-194.3" font-family="Times,serif" font-size="14.00">cen.UnkCollisionFunc3</text>
</a>
</g>
</g>
<!-- cen.UnkCollisionFunc3&#45;&gt;cen.MoveEntity -->
<g id="edge8" class="edge">
<title>cen.UnkCollisionFunc3&#45;&gt;cen.MoveEntity</title>
<path fill="none" stroke="black" d="M1834.14,-181.36C1739.51,-148.4 1520.06,-71.96 1419.75,-37.01"/>
<polygon fill="black" stroke="black" points="1420.73,-33.65 1410.13,-33.66 1418.43,-40.26 1420.73,-33.65"/>
<text text-anchor="middle" x="1829.14" y="-170.16" font-family="Times,serif" font-size="14.00">1</text>
</g>
<!-- cen.UnkCollisionFunc4 -->
<g id="node10" class="node">
<title>cen.UnkCollisionFunc4</title>
<g id="a_node10"><a xlink:href="cen.UnkCollisionFunc4.svg" xlink:title="cen.UnkCollisionFunc4">
<ellipse fill="green" stroke="black" cx="2132.04" cy="-198" rx="117.78" ry="18"/>
<text text-anchor="middle" x="2132.04" y="-194.3" font-family="Times,serif" font-size="14.00">cen.UnkCollisionFunc4</text>
</a>
</g>
</g>
<!-- cen.UnkCollisionFunc4&#45;&gt;cen.MoveEntity -->
<g id="edge9" class="edge">
<title>cen.UnkCollisionFunc4&#45;&gt;cen.MoveEntity</title>
<path fill="none" stroke="black" d="M2070.49,-182.66C1928.22,-149.51 1577.72,-67.85 1432.58,-34.04"/>
<polygon fill="black" stroke="black" points="1433.03,-30.55 1422.49,-31.69 1431.44,-37.37 1433.03,-30.55"/>
<text text-anchor="middle" x="2065.49" y="-171.46" font-family="Times,serif" font-size="14.00">1</text>
</g>
<!-- cen.func_8018DB18 -->
<g id="node11" class="node">
<title>cen.func_8018DB18</title>
<g id="a_node11"><a xlink:href="cen.func_8018DB18.svg" xlink:title="cen.func_8018DB18">
<ellipse fill="green" stroke="black" cx="2371.04" cy="-198" rx="103.18" ry="18"/>
<text text-anchor="middle" x="2371.04" y="-194.3" font-family="Times,serif" font-size="14.00">cen.func_8018DB18</text>
</a>
</g>
</g>
<!-- cen.func_8018DB18&#45;&gt;cen.MoveEntity -->
<g id="edge10" class="edge">
<title>cen.func_8018DB18&#45;&gt;cen.MoveEntity</title>
<path fill="none" stroke="black" d="M2301.31,-184.62C2118.42,-152.17 1626.27,-64.83 1440.43,-31.85"/>
<polygon fill="black" stroke="black" points="1440.94,-28.38 1430.49,-30.08 1439.72,-35.28 1440.94,-28.38"/>
<text text-anchor="middle" x="2296.31" y="-173.42" font-family="Times,serif" font-size="14.00">1</text>
</g>
<!-- cen.func_80195798 -->
<g id="node12" class="node">
<title>cen.func_80195798</title>
<g id="a_node12"><a xlink:href="cen.func_80195798.svg" xlink:title="cen.func_80195798">
<ellipse fill="green" stroke="black" cx="2593.04" cy="-198" rx="100.98" ry="18"/>
<text text-anchor="middle" x="2593.04" y="-194.3" font-family="Times,serif" font-size="14.00">cen.func_80195798</text>
</a>
</g>
</g>
<!-- cen.func_80195798&#45;&gt;cen.MoveEntity -->
<g id="edge11" class="edge">
<title>cen.func_80195798&#45;&gt;cen.MoveEntity</title>
<path fill="none" stroke="black" d="M2519.98,-185.61C2507.65,-183.71 2494.98,-181.79 2483.04,-180 2093.85,-121.83 1627.7,-55.65 1445.95,-29.98"/>
<polygon fill="black" stroke="black" points="1446.34,-26.5 1435.95,-28.57 1445.36,-33.43 1446.34,-26.5"/>
<text text-anchor="middle" x="2514.98" y="-174.41" font-family="Times,serif" font-size="14.00">2</text>
</g>
</g>
</svg>
