<?xml version="1.0" encoding="UTF-8" standalone="no"?>
<!DOCTYPE svg PUBLIC "-//W3C//DTD SVG 1.1//EN"
 "http://www.w3.org/Graphics/SVG/1.1/DTD/svg11.dtd">
<!-- Generated by graphviz version 2.43.0 (0)
 -->
<!-- Title: cen.CutsceneUnk3 Pages: 1 -->
<svg width="203pt" height="404pt"
 viewBox="0.00 0.00 202.98 404.00" xmlns="http://www.w3.org/2000/svg" xmlns:xlink="http://www.w3.org/1999/xlink">
<g id="graph0" class="graph" transform="scale(1 1) rotate(0) translate(4 400)">
<title>cen.CutsceneUnk3</title>
<polygon fill="white" stroke="transparent" points="-4,4 -4,-400 198.98,-400 198.98,4 -4,4"/>
<!-- cen.CutsceneUnk3 -->
<g id="node1" class="node">
<title>cen.CutsceneUnk3</title>
<ellipse fill="red" stroke="black" cx="97.49" cy="-198" rx="97.48" ry="18"/>
<text text-anchor="middle" x="97.49" y="-194.3" font-family="Times,serif" font-size="14.00">cen.CutsceneUnk3</text>
</g>
<!-- ClearImage -->
<g id="node2" class="node">
<title>ClearImage</title>
<g id="a_node2"><a xlink:href="ClearImage.svg" xlink:title="ClearImage">
<ellipse fill="lightblue" stroke="black" cx="97.49" cy="-18" rx="64.19" ry="18"/>
<text text-anchor="middle" x="97.49" y="-14.3" font-family="Times,serif" font-size="14.00">ClearImage</text>
</a>
</g>
</g>
<!-- cen.CutsceneUnk3&#45;&gt;ClearImage -->
<g id="edge1" class="edge">
<title>cen.CutsceneUnk3&#45;&gt;ClearImage</title>
<path fill="none" stroke="black" d="M97.49,-179.93C97.49,-148.97 97.49,-83.3 97.49,-46.13"/>
<polygon fill="black" stroke="black" points="100.99,-46.02 97.49,-36.02 93.99,-46.02 100.99,-46.02"/>
<text text-anchor="middle" x="92.49" y="-39.82" font-family="Times,serif" font-size="14.00">1</text>
</g>
<!-- cen.CutsceneUnk4 -->
<g id="node3" class="node">
<title>cen.CutsceneUnk4</title>
<g id="a_node3"><a xlink:href="cen.CutsceneUnk4.svg" xlink:title="cen.CutsceneUnk4">
<ellipse fill="red" stroke="black" cx="97.49" cy="-378" rx="97.48" ry="18"/>
<text text-anchor="middle" x="97.49" y="-374.3" font-family="Times,serif" font-size="14.00">cen.CutsceneUnk4</text>
</a>
</g>
</g>
<!-- cen.CutsceneUnk4&#45;&gt;cen.CutsceneUnk3 -->
<g id="edge2" class="edge">
<title>cen.CutsceneUnk4&#45;&gt;cen.CutsceneUnk3</title>
<path fill="none" stroke="black" d="M97.49,-359.93C97.49,-328.97 97.49,-263.3 97.49,-226.13"/>
<polygon fill="black" stroke="black" points="100.99,-226.02 97.49,-216.02 93.99,-226.02 100.99,-226.02"/>
<text text-anchor="middle" x="92.49" y="-348.73" font-family="Times,serif" font-size="14.00">1</text>
</g>
</g>
</svg>
