<?xml version="1.0" encoding="UTF-8" standalone="no"?>
<!DOCTYPE svg PUBLIC "-//W3C//DTD SVG 1.1//EN"
 "http://www.w3.org/Graphics/SVG/1.1/DTD/svg11.dtd">
<!-- Generated by graphviz version 2.43.0 (0)
 -->
<!-- Title: cen.EntityPrizeDrop Pages: 1 -->
<svg width="3641pt" height="404pt"
 viewBox="0.00 0.00 3640.63 404.00" xmlns="http://www.w3.org/2000/svg" xmlns:xlink="http://www.w3.org/1999/xlink">
<g id="graph0" class="graph" transform="scale(1 1) rotate(0) translate(4 400)">
<title>cen.EntityPrizeDrop</title>
<polygon fill="white" stroke="transparent" points="-4,4 -4,-400 3636.63,-400 3636.63,4 -4,4"/>
<!-- cen.EntityPrizeDrop -->
<g id="node1" class="node">
<title>cen.EntityPrizeDrop</title>
<ellipse fill="green" stroke="black" cx="1900.84" cy="-198" rx="105.08" ry="18"/>
<text text-anchor="middle" x="1900.84" y="-194.3" font-family="Times,serif" font-size="14.00">cen.EntityPrizeDrop</text>
</g>
<!-- cen.AnimateEntity -->
<g id="node2" class="node">
<title>cen.AnimateEntity</title>
<g id="a_node2"><a xlink:href="cen.AnimateEntity.svg" xlink:title="cen.AnimateEntity">
<ellipse fill="green" stroke="black" cx="96.84" cy="-18" rx="96.68" ry="18"/>
<text text-anchor="middle" x="96.84" y="-14.3" font-family="Times,serif" font-size="14.00">cen.AnimateEntity</text>
</a>
</g>
</g>
<!-- cen.EntityPrizeDrop&#45;&gt;cen.AnimateEntity -->
<g id="edge1" class="edge">
<title>cen.EntityPrizeDrop&#45;&gt;cen.AnimateEntity</title>
<path fill="none" stroke="black" d="M1805.73,-190.2C1547.34,-171.26 810.91,-114.08 201.84,-36 193.26,-34.9 184.3,-33.63 175.39,-32.3"/>
<polygon fill="black" stroke="black" points="175.79,-28.82 165.37,-30.76 174.73,-35.74 175.79,-28.82"/>
<text text-anchor="middle" x="160.37" y="-34.56" font-family="Times,serif" font-size="14.00">1</text>
</g>
<!-- cen.CheckFieldCollision -->
<g id="node3" class="node">
<title>cen.CheckFieldCollision</title>
<g id="a_node3"><a xlink:href="cen.CheckFieldCollision.svg" xlink:title="cen.CheckFieldCollision">
<ellipse fill="green" stroke="black" cx="332.84" cy="-18" rx="121.58" ry="18"/>
<text text-anchor="middle" x="332.84" y="-14.3" font-family="Times,serif" font-size="14.00">cen.CheckFieldCollision</text>
</a>
</g>
</g>
<!-- cen.EntityPrizeDrop&#45;&gt;cen.CheckFieldCollision -->
<g id="edge2" class="edge">
<title>cen.EntityPrizeDrop&#45;&gt;cen.CheckFieldCollision</title>
<path fill="none" stroke="black" d="M1813.71,-187.77C1589.63,-163.93 975.07,-97.8 463.84,-36 452.92,-34.68 441.5,-33.26 430.14,-31.82"/>
<polygon fill="black" stroke="black" points="430.55,-28.34 420.19,-30.55 429.67,-35.29 430.55,-28.34"/>
<text text-anchor="middle" x="415.19" y="-34.35" font-family="Times,serif" font-size="14.00">2</text>
</g>
<!-- cen.CollectDummy -->
<g id="node4" class="node">
<title>cen.CollectDummy</title>
<g id="a_node4"><a xlink:href="cen.CollectDummy.svg" xlink:title="cen.CollectDummy">
<ellipse fill="green" stroke="black" cx="570.84" cy="-18" rx="98.28" ry="18"/>
<text text-anchor="middle" x="570.84" y="-14.3" font-family="Times,serif" font-size="14.00">cen.CollectDummy</text>
</a>
</g>
</g>
<!-- cen.EntityPrizeDrop&#45;&gt;cen.CollectDummy -->
<g id="edge3" class="edge">
<title>cen.EntityPrizeDrop&#45;&gt;cen.CollectDummy</title>
<path fill="none" stroke="black" d="M1818.06,-186.88C1620.55,-162.55 1106.21,-98.21 677.84,-36 669.32,-34.76 660.43,-33.42 651.56,-32.06"/>
<polygon fill="black" stroke="black" points="652.01,-28.59 641.59,-30.51 650.94,-35.51 652.01,-28.59"/>
<text text-anchor="middle" x="636.59" y="-34.31" font-family="Times,serif" font-size="14.00">1</text>
</g>
<!-- cen.CollectGold -->
<g id="node5" class="node">
<title>cen.CollectGold</title>
<g id="a_node5"><a xlink:href="cen.CollectGold.svg" xlink:title="cen.CollectGold">
<ellipse fill="green" stroke="black" cx="769.84" cy="-18" rx="83.39" ry="18"/>
<text text-anchor="middle" x="769.84" y="-14.3" font-family="Times,serif" font-size="14.00">cen.CollectGold</text>
</a>
</g>
</g>
<!-- cen.EntityPrizeDrop&#45;&gt;cen.CollectGold -->
<g id="edge4" class="edge">
<title>cen.EntityPrizeDrop&#45;&gt;cen.CollectGold</title>
<path fill="none" stroke="black" d="M1823.17,-185.75C1650.22,-160.53 1220.41,-96.9 861.84,-36 854.8,-34.8 847.45,-33.52 840.13,-32.2"/>
<polygon fill="black" stroke="black" points="840.63,-28.74 830.17,-30.41 839.39,-35.63 840.63,-28.74"/>
<text text-anchor="middle" x="825.17" y="-34.21" font-family="Times,serif" font-size="14.00">1</text>
</g>
<!-- cen.CollectHeart -->
<g id="node6" class="node">
<title>cen.CollectHeart</title>
<g id="a_node6"><a xlink:href="cen.CollectHeart.svg" xlink:title="cen.CollectHeart">
<ellipse fill="green" stroke="black" cx="959.84" cy="-18" rx="89.08" ry="18"/>
<text text-anchor="middle" x="959.84" y="-14.3" font-family="Times,serif" font-size="14.00">cen.CollectHeart</text>
</a>
</g>
</g>
<!-- cen.EntityPrizeDrop&#45;&gt;cen.CollectHeart -->
<g id="edge5" class="edge">
<title>cen.EntityPrizeDrop&#45;&gt;cen.CollectHeart</title>
<path fill="none" stroke="black" d="M1833.17,-184.2C1661.4,-151.71 1209.66,-66.26 1032.56,-32.75"/>
<polygon fill="black" stroke="black" points="1033.03,-29.28 1022.56,-30.86 1031.73,-36.16 1033.03,-29.28"/>
<text text-anchor="middle" x="1017.56" y="-34.66" font-family="Times,serif" font-size="14.00">1</text>
</g>
<!-- cen.CollectHeartVessel -->
<g id="node7" class="node">
<title>cen.CollectHeartVessel</title>
<g id="a_node7"><a xlink:href="cen.CollectHeartVessel.svg" xlink:title="cen.CollectHeartVessel">
<ellipse fill="green" stroke="black" cx="1184.84" cy="-18" rx="118.08" ry="18"/>
<text text-anchor="middle" x="1184.84" y="-14.3" font-family="Times,serif" font-size="14.00">cen.CollectHeartVessel</text>
</a>
</g>
</g>
<!-- cen.EntityPrizeDrop&#45;&gt;cen.CollectHeartVessel -->
<g id="edge6" class="edge">
<title>cen.EntityPrizeDrop&#45;&gt;cen.CollectHeartVessel</title>
<path fill="none" stroke="black" d="M1843.76,-182.81C1713.45,-150.41 1394.51,-71.13 1253.64,-36.1"/>
<polygon fill="black" stroke="black" points="1254.36,-32.68 1243.82,-33.66 1252.68,-39.47 1254.36,-32.68"/>
<text text-anchor="middle" x="1238.82" y="-37.46" font-family="Times,serif" font-size="14.00">1</text>
</g>
<!-- cen.CollectLifeVessel -->
<g id="node8" class="node">
<title>cen.CollectLifeVessel</title>
<g id="a_node8"><a xlink:href="cen.CollectLifeVessel.svg" xlink:title="cen.CollectLifeVessel">
<ellipse fill="green" stroke="black" cx="1429.84" cy="-18" rx="108.58" ry="18"/>
<text text-anchor="middle" x="1429.84" y="-14.3" font-family="Times,serif" font-size="14.00">cen.CollectLifeVessel</text>
</a>
</g>
</g>
<!-- cen.EntityPrizeDrop&#45;&gt;cen.CollectLifeVessel -->
<g id="edge7" class="edge">
<title>cen.EntityPrizeDrop&#45;&gt;cen.CollectLifeVessel</title>
<path fill="none" stroke="black" d="M1859.46,-181.36C1773.28,-148.79 1574.79,-73.78 1480.87,-38.28"/>
<polygon fill="black" stroke="black" points="1481.89,-34.93 1471.3,-34.67 1479.42,-41.48 1481.89,-34.93"/>
<text text-anchor="middle" x="1466.3" y="-38.47" font-family="Times,serif" font-size="14.00">1</text>
</g>
<!-- cen.CollectSubweapon -->
<g id="node9" class="node">
<title>cen.CollectSubweapon</title>
<g id="a_node9"><a xlink:href="cen.CollectSubweapon.svg" xlink:title="cen.CollectSubweapon">
<ellipse fill="green" stroke="black" cx="1671.84" cy="-18" rx="115.88" ry="18"/>
<text text-anchor="middle" x="1671.84" y="-14.3" font-family="Times,serif" font-size="14.00">cen.CollectSubweapon</text>
</a>
</g>
</g>
<!-- cen.EntityPrizeDrop&#45;&gt;cen.CollectSubweapon -->
<g id="edge8" class="edge">
<title>cen.EntityPrizeDrop&#45;&gt;cen.CollectSubweapon</title>
<path fill="none" stroke="black" d="M1879.3,-180.25C1838.12,-148.25 1748.21,-78.36 1701.43,-42"/>
<polygon fill="black" stroke="black" points="1703.54,-39.2 1693.49,-35.83 1699.24,-44.73 1703.54,-39.2"/>
<text text-anchor="middle" x="1688.49" y="-39.63" font-family="Times,serif" font-size="14.00">1</text>
</g>
<!-- cen.DestroyEntity -->
<g id="node10" class="node">
<title>cen.DestroyEntity</title>
<g id="a_node10"><a xlink:href="cen.DestroyEntity.svg" xlink:title="cen.DestroyEntity">
<ellipse fill="green" stroke="black" cx="1900.84" cy="-18" rx="94.78" ry="18"/>
<text text-anchor="middle" x="1900.84" y="-14.3" font-family="Times,serif" font-size="14.00">cen.DestroyEntity</text>
</a>
</g>
</g>
<!-- cen.EntityPrizeDrop&#45;&gt;cen.DestroyEntity -->
<g id="edge9" class="edge">
<title>cen.EntityPrizeDrop&#45;&gt;cen.DestroyEntity</title>
<path fill="none" stroke="black" d="M1900.84,-179.93C1900.84,-148.97 1900.84,-83.3 1900.84,-46.13"/>
<polygon fill="black" stroke="black" points="1904.34,-46.02 1900.84,-36.02 1897.34,-46.02 1904.34,-46.02"/>
<text text-anchor="middle" x="1895.84" y="-39.82" font-family="Times,serif" font-size="14.00">2</text>
</g>
<!-- cen.FallEntity -->
<g id="node11" class="node">
<title>cen.FallEntity</title>
<g id="a_node11"><a xlink:href="cen.FallEntity.svg" xlink:title="cen.FallEntity">
<ellipse fill="green" stroke="black" cx="2088.84" cy="-18" rx="75.29" ry="18"/>
<text text-anchor="middle" x="2088.84" y="-14.3" font-family="Times,serif" font-size="14.00">cen.FallEntity</text>
</a>
</g>
</g>
<!-- cen.EntityPrizeDrop&#45;&gt;cen.FallEntity -->
<g id="edge10" class="edge">
<title>cen.EntityPrizeDrop&#45;&gt;cen.FallEntity</title>
<path fill="none" stroke="black" d="M1918.53,-180.25C1952.07,-148.5 2025,-79.45 2063.64,-42.86"/>
<polygon fill="black" stroke="black" points="2066.48,-44.99 2071.34,-35.57 2061.67,-39.91 2066.48,-44.99"/>
<text text-anchor="middle" x="2066.34" y="-39.37" font-family="Times,serif" font-size="14.00">2</text>
</g>
<!-- cen.InitializeEntity -->
<g id="node12" class="node">
<title>cen.InitializeEntity</title>
<g id="a_node12"><a xlink:href="cen.InitializeEntity.svg" xlink:title="cen.InitializeEntity">
<ellipse fill="green" stroke="black" cx="2280.84" cy="-18" rx="98.58" ry="18"/>
<text text-anchor="middle" x="2280.84" y="-14.3" font-family="Times,serif" font-size="14.00">cen.InitializeEntity</text>
</a>
</g>
</g>
<!-- cen.EntityPrizeDrop&#45;&gt;cen.InitializeEntity -->
<g id="edge11" class="edge">
<title>cen.EntityPrizeDrop&#45;&gt;cen.InitializeEntity</title>
<path fill="none" stroke="black" d="M1935.23,-180.89C2004.61,-148.39 2161.21,-75.04 2237.47,-39.32"/>
<polygon fill="black" stroke="black" points="2239.23,-42.36 2246.8,-34.95 2236.26,-36.02 2239.23,-42.36"/>
<text text-anchor="middle" x="2241.8" y="-38.75" font-family="Times,serif" font-size="14.00">1</text>
</g>
<!-- cen.MoveEntity -->
<g id="node13" class="node">
<title>cen.MoveEntity</title>
<g id="a_node13"><a xlink:href="cen.MoveEntity.svg" xlink:title="cen.MoveEntity">
<ellipse fill="green" stroke="black" cx="2481.84" cy="-18" rx="83.69" ry="18"/>
<text text-anchor="middle" x="2481.84" y="-14.3" font-family="Times,serif" font-size="14.00">cen.MoveEntity</text>
</a>
</g>
</g>
<!-- cen.EntityPrizeDrop&#45;&gt;cen.MoveEntity -->
<g id="edge12" class="edge">
<title>cen.EntityPrizeDrop&#45;&gt;cen.MoveEntity</title>
<path fill="none" stroke="black" d="M1949.88,-181.98C2057.16,-149.11 2312.19,-70.98 2425.69,-36.2"/>
<polygon fill="black" stroke="black" points="2427.04,-39.45 2435.57,-33.18 2424.98,-32.76 2427.04,-39.45"/>
<text text-anchor="middle" x="2430.57" y="-36.98" font-family="Times,serif" font-size="14.00">2</text>
</g>
<!-- cen.PrizeDropFall -->
<g id="node14" class="node">
<title>cen.PrizeDropFall</title>
<g id="a_node14"><a xlink:href="cen.PrizeDropFall.svg" xlink:title="cen.PrizeDropFall">
<ellipse fill="green" stroke="black" cx="2676.84" cy="-18" rx="93.68" ry="18"/>
<text text-anchor="middle" x="2676.84" y="-14.3" font-family="Times,serif" font-size="14.00">cen.PrizeDropFall</text>
</a>
</g>
</g>
<!-- cen.EntityPrizeDrop&#45;&gt;cen.PrizeDropFall -->
<g id="edge13" class="edge">
<title>cen.EntityPrizeDrop&#45;&gt;cen.PrizeDropFall</title>
<path fill="none" stroke="black" d="M1961.09,-183.18C2103.46,-150.52 2459.93,-68.75 2609.32,-34.49"/>
<polygon fill="black" stroke="black" points="2610.31,-37.85 2619.28,-32.2 2608.75,-31.03 2610.31,-37.85"/>
<text text-anchor="middle" x="2614.28" y="-36" font-family="Times,serif" font-size="14.00">1</text>
</g>
<!-- cen.PrizeDropFall2 -->
<g id="node15" class="node">
<title>cen.PrizeDropFall2</title>
<g id="a_node15"><a xlink:href="cen.PrizeDropFall2.svg" xlink:title="cen.PrizeDropFall2">
<ellipse fill="green" stroke="black" cx="2887.84" cy="-18" rx="99.38" ry="18"/>
<text text-anchor="middle" x="2887.84" y="-14.3" font-family="Times,serif" font-size="14.00">cen.PrizeDropFall2</text>
</a>
</g>
</g>
<!-- cen.EntityPrizeDrop&#45;&gt;cen.PrizeDropFall2 -->
<g id="edge14" class="edge">
<title>cen.EntityPrizeDrop&#45;&gt;cen.PrizeDropFall2</title>
<path fill="none" stroke="black" d="M1970.64,-184.41C2149.35,-152.18 2622.49,-66.86 2809.85,-33.07"/>
<polygon fill="black" stroke="black" points="2810.68,-36.47 2819.9,-31.25 2809.44,-29.58 2810.68,-36.47"/>
<text text-anchor="middle" x="2814.9" y="-35.05" font-family="Times,serif" font-size="14.00">3</text>
</g>
<!-- dra.AllocPrimitives -->
<g id="node16" class="node">
<title>dra.AllocPrimitives</title>
<g id="a_node16"><a xlink:href="dra.AllocPrimitives.svg" xlink:title="dra.AllocPrimitives">
<ellipse fill="green" stroke="black" cx="3104.84" cy="-18" rx="99.38" ry="18"/>
<text text-anchor="middle" x="3104.84" y="-14.3" font-family="Times,serif" font-size="14.00">dra.AllocPrimitives</text>
</a>
</g>
</g>
<!-- cen.EntityPrizeDrop&#45;&gt;dra.AllocPrimitives -->
<g id="edge15" class="edge">
<title>cen.EntityPrizeDrop&#45;&gt;dra.AllocPrimitives</title>
<path fill="none" stroke="black" d="M1978.54,-185.81C2157.86,-159.94 2614.46,-93.78 2995.84,-36 3004.44,-34.7 3013.42,-33.32 3022.37,-31.94"/>
<polygon fill="black" stroke="black" points="3023.1,-35.37 3032.44,-30.38 3022.03,-28.45 3023.1,-35.37"/>
<text text-anchor="middle" x="3027.44" y="-34.18" font-family="Times,serif" font-size="14.00">1</text>
</g>
<!-- dra.CheckCollision -->
<g id="node17" class="node">
<title>dra.CheckCollision</title>
<g id="a_node17"><a xlink:href="dra.CheckCollision.svg" xlink:title="dra.CheckCollision">
<ellipse fill="green" stroke="black" cx="3319.84" cy="-18" rx="97.48" ry="18"/>
<text text-anchor="middle" x="3319.84" y="-14.3" font-family="Times,serif" font-size="14.00">dra.CheckCollision</text>
</a>
</g>
</g>
<!-- cen.EntityPrizeDrop&#45;&gt;dra.CheckCollision -->
<g id="edge16" class="edge">
<title>cen.EntityPrizeDrop&#45;&gt;dra.CheckCollision</title>
<path fill="none" stroke="black" d="M1986.94,-187.5C2196.85,-164.12 2751.53,-100.93 3212.84,-36 3221.5,-34.78 3230.55,-33.44 3239.55,-32.07"/>
<polygon fill="black" stroke="black" points="3240.33,-35.49 3249.68,-30.51 3239.26,-28.58 3240.33,-35.49"/>
<text text-anchor="middle" x="3244.68" y="-34.31" font-family="Times,serif" font-size="14.00">4</text>
</g>
<!-- dra.FreePrimitives -->
<g id="node18" class="node">
<title>dra.FreePrimitives</title>
<g id="a_node18"><a xlink:href="dra.FreePrimitives.svg" xlink:title="dra.FreePrimitives">
<ellipse fill="green" stroke="black" cx="3533.84" cy="-18" rx="98.58" ry="18"/>
<text text-anchor="middle" x="3533.84" y="-14.3" font-family="Times,serif" font-size="14.00">dra.FreePrimitives</text>
</a>
</g>
</g>
<!-- cen.EntityPrizeDrop&#45;&gt;dra.FreePrimitives -->
<g id="edge17" class="edge">
<title>cen.EntityPrizeDrop&#45;&gt;dra.FreePrimitives</title>
<path fill="none" stroke="black" d="M1992.13,-189C2229.15,-167.87 2883.41,-107.28 3425.84,-36 3434.76,-34.83 3444.07,-33.51 3453.33,-32.14"/>
<polygon fill="black" stroke="black" points="3453.96,-35.58 3463.33,-30.63 3452.92,-28.66 3453.96,-35.58"/>
<text text-anchor="middle" x="3458.33" y="-34.43" font-family="Times,serif" font-size="14.00">1</text>
</g>
<!-- cen.EntityEquipItemDrop -->
<g id="node19" class="node">
<title>cen.EntityEquipItemDrop</title>
<g id="a_node19"><a xlink:href="cen.EntityEquipItemDrop.svg" xlink:title="cen.EntityEquipItemDrop">
<ellipse fill="green" stroke="black" cx="1900.84" cy="-378" rx="129.98" ry="18"/>
<text text-anchor="middle" x="1900.84" y="-374.3" font-family="Times,serif" font-size="14.00">cen.EntityEquipItemDrop</text>
</a>
</g>
</g>
<!-- cen.EntityEquipItemDrop&#45;&gt;cen.EntityPrizeDrop -->
<g id="edge18" class="edge">
<title>cen.EntityEquipItemDrop&#45;&gt;cen.EntityPrizeDrop</title>
<path fill="none" stroke="black" d="M1900.84,-359.93C1900.84,-328.97 1900.84,-263.3 1900.84,-226.13"/>
<polygon fill="black" stroke="black" points="1904.34,-226.02 1900.84,-216.02 1897.34,-226.02 1904.34,-226.02"/>
<text text-anchor="middle" x="1895.84" y="-348.73" font-family="Times,serif" font-size="14.00">1</text>
</g>
</g>
</svg>
