<?xml version="1.0" encoding="UTF-8" standalone="no"?>
<!DOCTYPE svg PUBLIC "-//W3C//DTD SVG 1.1//EN"
 "http://www.w3.org/Graphics/SVG/1.1/DTD/svg11.dtd">
<!-- Generated by graphviz version 2.43.0 (0)
 -->
<!-- Title: chi.UnkCollisionFunc3 Pages: 1 -->
<svg width="782pt" height="404pt"
 viewBox="0.00 0.00 782.33 404.00" xmlns="http://www.w3.org/2000/svg" xmlns:xlink="http://www.w3.org/1999/xlink">
<g id="graph0" class="graph" transform="scale(1 1) rotate(0) translate(4 400)">
<title>chi.UnkCollisionFunc3</title>
<polygon fill="white" stroke="transparent" points="-4,4 -4,-400 778.33,-400 778.33,4 -4,4"/>
<!-- chi.UnkCollisionFunc3 -->
<g id="node1" class="node">
<title>chi.UnkCollisionFunc3</title>
<ellipse fill="green" stroke="black" cx="344.44" cy="-198" rx="115.08" ry="18"/>
<text text-anchor="middle" x="344.44" y="-194.3" font-family="Times,serif" font-size="14.00">chi.UnkCollisionFunc3</text>
</g>
<!-- chi.FallEntity -->
<g id="node2" class="node">
<title>chi.FallEntity</title>
<g id="a_node2"><a xlink:href="chi.FallEntity.svg" xlink:title="chi.FallEntity">
<ellipse fill="green" stroke="black" cx="73.44" cy="-18" rx="73.39" ry="18"/>
<text text-anchor="middle" x="73.44" y="-14.3" font-family="Times,serif" font-size="14.00">chi.FallEntity</text>
</a>
</g>
</g>
<!-- chi.UnkCollisionFunc3&#45;&gt;chi.FallEntity -->
<g id="edge1" class="edge">
<title>chi.UnkCollisionFunc3&#45;&gt;chi.FallEntity</title>
<path fill="none" stroke="black" d="M318.95,-180.25C269.65,-147.87 161.29,-76.7 106.52,-40.73"/>
<polygon fill="black" stroke="black" points="108.17,-37.62 97.89,-35.06 104.33,-43.47 108.17,-37.62"/>
<text text-anchor="middle" x="92.89" y="-38.86" font-family="Times,serif" font-size="14.00">1</text>
</g>
<!-- chi.MoveEntity -->
<g id="node3" class="node">
<title>chi.MoveEntity</title>
<g id="a_node3"><a xlink:href="chi.MoveEntity.svg" xlink:title="chi.MoveEntity">
<ellipse fill="green" stroke="black" cx="246.44" cy="-18" rx="81.49" ry="18"/>
<text text-anchor="middle" x="246.44" y="-14.3" font-family="Times,serif" font-size="14.00">chi.MoveEntity</text>
</a>
</g>
</g>
<!-- chi.UnkCollisionFunc3&#45;&gt;chi.MoveEntity -->
<g id="edge2" class="edge">
<title>chi.UnkCollisionFunc3&#45;&gt;chi.MoveEntity</title>
<path fill="none" stroke="black" d="M335.05,-179.93C317.85,-148.7 281.22,-82.17 260.86,-45.18"/>
<polygon fill="black" stroke="black" points="263.7,-43.09 255.81,-36.02 257.57,-46.46 263.7,-43.09"/>
<text text-anchor="middle" x="250.81" y="-39.82" font-family="Times,serif" font-size="14.00">1</text>
</g>
<!-- dra.CheckCollision -->
<g id="node4" class="node">
<title>dra.CheckCollision</title>
<g id="a_node4"><a xlink:href="dra.CheckCollision.svg" xlink:title="dra.CheckCollision">
<ellipse fill="green" stroke="black" cx="443.44" cy="-18" rx="97.48" ry="18"/>
<text text-anchor="middle" x="443.44" y="-14.3" font-family="Times,serif" font-size="14.00">dra.CheckCollision</text>
</a>
</g>
</g>
<!-- chi.UnkCollisionFunc3&#45;&gt;dra.CheckCollision -->
<g id="edge3" class="edge">
<title>chi.UnkCollisionFunc3&#45;&gt;dra.CheckCollision</title>
<path fill="none" stroke="black" d="M353.94,-179.93C371.31,-148.7 408.31,-82.17 428.88,-45.18"/>
<polygon fill="black" stroke="black" points="432.18,-46.46 433.98,-36.02 426.06,-43.05 432.18,-46.46"/>
<text text-anchor="middle" x="428.98" y="-39.82" font-family="Times,serif" font-size="14.00">1</text>
</g>
<!-- g_api_CheckCollision -->
<g id="node5" class="node">
<title>g_api_CheckCollision</title>
<g id="a_node5"><a xlink:href="g_api_CheckCollision.svg" xlink:title="g_api_CheckCollision">
<ellipse fill="lightblue" stroke="black" cx="666.44" cy="-18" rx="107.78" ry="18"/>
<text text-anchor="middle" x="666.44" y="-14.3" font-family="Times,serif" font-size="14.00">g_api_CheckCollision</text>
</a>
</g>
</g>
<!-- chi.UnkCollisionFunc3&#45;&gt;g_api_CheckCollision -->
<g id="edge4" class="edge">
<title>chi.UnkCollisionFunc3&#45;&gt;g_api_CheckCollision</title>
<path fill="none" stroke="black" d="M374.16,-180.57C432.63,-148.25 562.56,-76.42 627.68,-40.43"/>
<polygon fill="black" stroke="black" points="629.74,-43.29 636.8,-35.39 626.35,-37.16 629.74,-43.29"/>
<text text-anchor="middle" x="631.8" y="-39.19" font-family="Times,serif" font-size="14.00">2</text>
</g>
<!-- chi.EntityThornweed -->
<g id="node6" class="node">
<title>chi.EntityThornweed</title>
<g id="a_node6"><a xlink:href="chi.EntityThornweed.svg" xlink:title="chi.EntityThornweed">
<ellipse fill="green" stroke="black" cx="109.44" cy="-378" rx="107.78" ry="18"/>
<text text-anchor="middle" x="109.44" y="-374.3" font-family="Times,serif" font-size="14.00">chi.EntityThornweed</text>
</a>
</g>
</g>
<!-- chi.EntityThornweed&#45;&gt;chi.UnkCollisionFunc3 -->
<g id="edge5" class="edge">
<title>chi.EntityThornweed&#45;&gt;chi.UnkCollisionFunc3</title>
<path fill="none" stroke="black" d="M131.55,-360.25C173.8,-328.25 266.08,-258.36 314.08,-222"/>
<polygon fill="black" stroke="black" points="316.36,-224.66 322.22,-215.83 312.14,-219.08 316.36,-224.66"/>
<text text-anchor="middle" x="126.55" y="-349.05" font-family="Times,serif" font-size="14.00">1</text>
</g>
<!-- chi.EntityVenusWeed -->
<g id="node7" class="node">
<title>chi.EntityVenusWeed</title>
<g id="a_node7"><a xlink:href="chi.EntityVenusWeed.svg" xlink:title="chi.EntityVenusWeed">
<ellipse fill="green" stroke="black" cx="344.44" cy="-378" rx="109.38" ry="18"/>
<text text-anchor="middle" x="344.44" y="-374.3" font-family="Times,serif" font-size="14.00">chi.EntityVenusWeed</text>
</a>
</g>
</g>
<!-- chi.EntityVenusWeed&#45;&gt;chi.UnkCollisionFunc3 -->
<g id="edge6" class="edge">
<title>chi.EntityVenusWeed&#45;&gt;chi.UnkCollisionFunc3</title>
<path fill="none" stroke="black" d="M344.44,-359.93C344.44,-328.97 344.44,-263.3 344.44,-226.13"/>
<polygon fill="black" stroke="black" points="347.94,-226.02 344.44,-216.02 340.94,-226.02 347.94,-226.02"/>
<text text-anchor="middle" x="339.44" y="-348.73" font-family="Times,serif" font-size="14.00">1</text>
</g>
<!-- chi.EntityVenusWeedTendril -->
<g id="node8" class="node">
<title>chi.EntityVenusWeedTendril</title>
<g id="a_node8"><a xlink:href="chi.EntityVenusWeedTendril.svg" xlink:title="chi.EntityVenusWeedTendril">
<ellipse fill="green" stroke="black" cx="613.44" cy="-378" rx="141.88" ry="18"/>
<text text-anchor="middle" x="613.44" y="-374.3" font-family="Times,serif" font-size="14.00">chi.EntityVenusWeedTendril</text>
</a>
</g>
</g>
<!-- chi.EntityVenusWeedTendril&#45;&gt;chi.UnkCollisionFunc3 -->
<g id="edge7" class="edge">
<title>chi.EntityVenusWeedTendril&#45;&gt;chi.UnkCollisionFunc3</title>
<path fill="none" stroke="black" d="M588.14,-360.25C539.45,-328.04 432.73,-257.42 378.11,-221.27"/>
<polygon fill="black" stroke="black" points="379.76,-218.17 369.49,-215.57 375.9,-224.01 379.76,-218.17"/>
<text text-anchor="middle" x="583.14" y="-349.05" font-family="Times,serif" font-size="14.00">1</text>
</g>
</g>
</svg>
