<?xml version="1.0" encoding="UTF-8" standalone="no"?>
<!DOCTYPE svg PUBLIC "-//W3C//DTD SVG 1.1//EN"
 "http://www.w3.org/Graphics/SVG/1.1/DTD/svg11.dtd">
<!-- Generated by graphviz version 2.43.0 (0)
 -->
<!-- Title: chi.CheckColliderOffsets Pages: 1 -->
<svg width="258pt" height="404pt"
 viewBox="0.00 0.00 257.58 404.00" xmlns="http://www.w3.org/2000/svg" xmlns:xlink="http://www.w3.org/1999/xlink">
<g id="graph0" class="graph" transform="scale(1 1) rotate(0) translate(4 400)">
<title>chi.CheckColliderOffsets</title>
<polygon fill="white" stroke="transparent" points="-4,4 -4,-400 253.58,-400 253.58,4 -4,4"/>
<!-- chi.CheckColliderOffsets -->
<g id="node1" class="node">
<title>chi.CheckColliderOffsets</title>
<ellipse fill="green" stroke="black" cx="124.79" cy="-198" rx="124.58" ry="18"/>
<text text-anchor="middle" x="124.79" y="-194.3" font-family="Times,serif" font-size="14.00">chi.CheckColliderOffsets</text>
</g>
<!-- dra.CheckCollision -->
<g id="node2" class="node">
<title>dra.CheckCollision</title>
<g id="a_node2"><a xlink:href="dra.CheckCollision.svg" xlink:title="dra.CheckCollision">
<ellipse fill="green" stroke="black" cx="124.79" cy="-18" rx="97.48" ry="18"/>
<text text-anchor="middle" x="124.79" y="-14.3" font-family="Times,serif" font-size="14.00">dra.CheckCollision</text>
</a>
</g>
</g>
<!-- chi.CheckColliderOffsets&#45;&gt;dra.CheckCollision -->
<g id="edge1" class="edge">
<title>chi.CheckColliderOffsets&#45;&gt;dra.CheckCollision</title>
<path fill="none" stroke="black" d="M124.79,-179.93C124.79,-148.97 124.79,-83.3 124.79,-46.13"/>
<polygon fill="black" stroke="black" points="128.29,-46.02 124.79,-36.02 121.29,-46.02 128.29,-46.02"/>
<text text-anchor="middle" x="119.79" y="-39.82" font-family="Times,serif" font-size="14.00">1</text>
</g>
<!-- chi.EntityOlroxDrool -->
<g id="node3" class="node">
<title>chi.EntityOlroxDrool</title>
<g id="a_node3"><a xlink:href="chi.EntityOlroxDrool.svg" xlink:title="chi.EntityOlroxDrool">
<ellipse fill="green" stroke="black" cx="124.79" cy="-378" rx="106.68" ry="18"/>
<text text-anchor="middle" x="124.79" y="-374.3" font-family="Times,serif" font-size="14.00">chi.EntityOlroxDrool</text>
</a>
</g>
</g>
<!-- chi.EntityOlroxDrool&#45;&gt;chi.CheckColliderOffsets -->
<g id="edge2" class="edge">
<title>chi.EntityOlroxDrool&#45;&gt;chi.CheckColliderOffsets</title>
<path fill="none" stroke="black" d="M124.79,-359.93C124.79,-328.97 124.79,-263.3 124.79,-226.13"/>
<polygon fill="black" stroke="black" points="128.29,-226.02 124.79,-216.02 121.29,-226.02 128.29,-226.02"/>
<text text-anchor="middle" x="119.79" y="-348.73" font-family="Times,serif" font-size="14.00">1</text>
</g>
</g>
</svg>
