<?xml version="1.0" encoding="UTF-8" standalone="no"?>
<!DOCTYPE svg PUBLIC "-//W3C//DTD SVG 1.1//EN"
 "http://www.w3.org/Graphics/SVG/1.1/DTD/svg11.dtd">
<!-- Generated by graphviz version 2.43.0 (0)
 -->
<!-- Title: chi.UpdateRoomPosition Pages: 1 -->
<svg width="1136pt" height="224pt"
 viewBox="0.00 0.00 1135.68 224.00" xmlns="http://www.w3.org/2000/svg" xmlns:xlink="http://www.w3.org/1999/xlink">
<g id="graph0" class="graph" transform="scale(1 1) rotate(0) translate(4 220)">
<title>chi.UpdateRoomPosition</title>
<polygon fill="white" stroke="transparent" points="-4,4 -4,-220 1131.68,-220 1131.68,4 -4,4"/>
<!-- chi.UpdateRoomPosition -->
<g id="node1" class="node">
<title>chi.UpdateRoomPosition</title>
<ellipse fill="green" stroke="black" cx="529.49" cy="-198" rx="124.58" ry="18"/>
<text text-anchor="middle" x="529.49" y="-194.3" font-family="Times,serif" font-size="14.00">chi.UpdateRoomPosition</text>
</g>
<!-- chi.CreateEntitiesAbove -->
<g id="node2" class="node">
<title>chi.CreateEntitiesAbove</title>
<g id="a_node2"><a xlink:href="chi.CreateEntitiesAbove.svg" xlink:title="chi.CreateEntitiesAbove">
<ellipse fill="green" stroke="black" cx="123.49" cy="-18" rx="123.48" ry="18"/>
<text text-anchor="middle" x="123.49" y="-14.3" font-family="Times,serif" font-size="14.00">chi.CreateEntitiesAbove</text>
</a>
</g>
</g>
<!-- chi.UpdateRoomPosition&#45;&gt;chi.CreateEntitiesAbove -->
<g id="edge1" class="edge">
<title>chi.UpdateRoomPosition&#45;&gt;chi.CreateEntitiesAbove</title>
<path fill="none" stroke="black" d="M492.38,-180.73C418.17,-148.2 251.63,-75.18 170.16,-39.46"/>
<polygon fill="black" stroke="black" points="171.22,-36.1 160.66,-35.29 168.41,-42.52 171.22,-36.1"/>
<text text-anchor="middle" x="155.66" y="-39.09" font-family="Times,serif" font-size="14.00">1</text>
</g>
<!-- chi.CreateEntitiesBelow -->
<g id="node3" class="node">
<title>chi.CreateEntitiesBelow</title>
<g id="a_node3"><a xlink:href="chi.CreateEntitiesBelow.svg" xlink:title="chi.CreateEntitiesBelow">
<ellipse fill="green" stroke="black" cx="388.49" cy="-18" rx="123.48" ry="18"/>
<text text-anchor="middle" x="388.49" y="-14.3" font-family="Times,serif" font-size="14.00">chi.CreateEntitiesBelow</text>
</a>
</g>
</g>
<!-- chi.UpdateRoomPosition&#45;&gt;chi.CreateEntitiesBelow -->
<g id="edge2" class="edge">
<title>chi.UpdateRoomPosition&#45;&gt;chi.CreateEntitiesBelow</title>
<path fill="none" stroke="black" d="M515.97,-179.93C491.02,-148.43 437.63,-81.03 408.48,-44.24"/>
<polygon fill="black" stroke="black" points="410.92,-41.68 401.97,-36.02 405.43,-46.03 410.92,-41.68"/>
<text text-anchor="middle" x="396.97" y="-39.82" font-family="Times,serif" font-size="14.00">1</text>
</g>
<!-- chi.CreateEntitiesToTheLeft -->
<g id="node4" class="node">
<title>chi.CreateEntitiesToTheLeft</title>
<g id="a_node4"><a xlink:href="chi.CreateEntitiesToTheLeft.svg" xlink:title="chi.CreateEntitiesToTheLeft">
<ellipse fill="green" stroke="black" cx="671.49" cy="-18" rx="141.88" ry="18"/>
<text text-anchor="middle" x="671.49" y="-14.3" font-family="Times,serif" font-size="14.00">chi.CreateEntitiesToTheLeft</text>
</a>
</g>
</g>
<!-- chi.UpdateRoomPosition&#45;&gt;chi.CreateEntitiesToTheLeft -->
<g id="edge3" class="edge">
<title>chi.UpdateRoomPosition&#45;&gt;chi.CreateEntitiesToTheLeft</title>
<path fill="none" stroke="black" d="M543.1,-179.93C568.23,-148.43 622,-81.03 651.35,-44.24"/>
<polygon fill="black" stroke="black" points="654.41,-46.02 657.91,-36.02 648.94,-41.65 654.41,-46.02"/>
<text text-anchor="middle" x="652.91" y="-39.82" font-family="Times,serif" font-size="14.00">1</text>
</g>
<!-- chi.CreateEntitiesToTheRight -->
<g id="node5" class="node">
<title>chi.CreateEntitiesToTheRight</title>
<g id="a_node5"><a xlink:href="chi.CreateEntitiesToTheRight.svg" xlink:title="chi.CreateEntitiesToTheRight">
<ellipse fill="green" stroke="black" cx="979.49" cy="-18" rx="148.37" ry="18"/>
<text text-anchor="middle" x="979.49" y="-14.3" font-family="Times,serif" font-size="14.00">chi.CreateEntitiesToTheRight</text>
</a>
</g>
</g>
<!-- chi.UpdateRoomPosition&#45;&gt;chi.CreateEntitiesToTheRight -->
<g id="edge4" class="edge">
<title>chi.UpdateRoomPosition&#45;&gt;chi.CreateEntitiesToTheRight</title>
<path fill="none" stroke="black" d="M570.22,-180.89C652.57,-148.32 838.67,-74.7 928.75,-39.07"/>
<polygon fill="black" stroke="black" points="930.19,-42.26 938.2,-35.33 927.62,-35.75 930.19,-42.26"/>
<text text-anchor="middle" x="933.2" y="-39.13" font-family="Times,serif" font-size="14.00">1</text>
</g>
</g>
</svg>
