<?xml version="1.0" encoding="UTF-8" standalone="no"?>
<!DOCTYPE svg PUBLIC "-//W3C//DTD SVG 1.1//EN"
 "http://www.w3.org/Graphics/SVG/1.1/DTD/svg11.dtd">
<!-- Generated by graphviz version 2.43.0 (0)
 -->
<!-- Title: chi.UnkCollisionFunc5 Pages: 1 -->
<svg width="368pt" height="224pt"
 viewBox="0.00 0.00 367.93 224.00" xmlns="http://www.w3.org/2000/svg" xmlns:xlink="http://www.w3.org/1999/xlink">
<g id="graph0" class="graph" transform="scale(1 1) rotate(0) translate(4 220)">
<title>chi.UnkCollisionFunc5</title>
<polygon fill="white" stroke="transparent" points="-4,4 -4,-220 363.93,-220 363.93,4 -4,4"/>
<!-- chi.UnkCollisionFunc5 -->
<g id="node1" class="node">
<title>chi.UnkCollisionFunc5</title>
<ellipse fill="green" stroke="black" cx="167.44" cy="-198" rx="115.08" ry="18"/>
<text text-anchor="middle" x="167.44" y="-194.3" font-family="Times,serif" font-size="14.00">chi.UnkCollisionFunc5</text>
</g>
<!-- chi.FallEntity -->
<g id="node2" class="node">
<title>chi.FallEntity</title>
<g id="a_node2"><a xlink:href="chi.FallEntity.svg" xlink:title="chi.FallEntity">
<ellipse fill="green" stroke="black" cx="73.44" cy="-18" rx="73.39" ry="18"/>
<text text-anchor="middle" x="73.44" y="-14.3" font-family="Times,serif" font-size="14.00">chi.FallEntity</text>
</a>
</g>
</g>
<!-- chi.UnkCollisionFunc5&#45;&gt;chi.FallEntity -->
<g id="edge1" class="edge">
<title>chi.UnkCollisionFunc5&#45;&gt;chi.FallEntity</title>
<path fill="none" stroke="black" d="M158.43,-179.93C141.94,-148.7 106.8,-82.17 87.27,-45.18"/>
<polygon fill="black" stroke="black" points="90.19,-43.22 82.43,-36.02 84,-46.49 90.19,-43.22"/>
<text text-anchor="middle" x="77.43" y="-39.82" font-family="Times,serif" font-size="14.00">1</text>
</g>
<!-- dra.CheckCollision -->
<g id="node3" class="node">
<title>dra.CheckCollision</title>
<g id="a_node3"><a xlink:href="dra.CheckCollision.svg" xlink:title="dra.CheckCollision">
<ellipse fill="green" stroke="black" cx="262.44" cy="-18" rx="97.48" ry="18"/>
<text text-anchor="middle" x="262.44" y="-14.3" font-family="Times,serif" font-size="14.00">dra.CheckCollision</text>
</a>
</g>
</g>
<!-- chi.UnkCollisionFunc5&#45;&gt;dra.CheckCollision -->
<g id="edge2" class="edge">
<title>chi.UnkCollisionFunc5&#45;&gt;dra.CheckCollision</title>
<path fill="none" stroke="black" d="M176.55,-179.93C193.22,-148.7 228.73,-82.17 248.47,-45.18"/>
<polygon fill="black" stroke="black" points="251.74,-46.49 253.36,-36.02 245.57,-43.19 251.74,-46.49"/>
<text text-anchor="middle" x="248.36" y="-39.82" font-family="Times,serif" font-size="14.00">1</text>
</g>
</g>
</svg>
