<?xml version="1.0" encoding="UTF-8" standalone="no"?>
<!DOCTYPE svg PUBLIC "-//W3C//DTD SVG 1.1//EN"
 "http://www.w3.org/Graphics/SVG/1.1/DTD/svg11.dtd">
<!-- Generated by graphviz version 2.43.0 (0)
 -->
<!-- Title: chi.PreventEntityFromRespawning Pages: 1 -->
<svg width="790pt" height="224pt"
 viewBox="0.00 0.00 789.97 224.00" xmlns="http://www.w3.org/2000/svg" xmlns:xlink="http://www.w3.org/1999/xlink">
<g id="graph0" class="graph" transform="scale(1 1) rotate(0) translate(4 220)">
<title>chi.PreventEntityFromRespawning</title>
<polygon fill="white" stroke="transparent" points="-4,4 -4,-220 785.97,-220 785.97,4 -4,4"/>
<!-- chi.PreventEntityFromRespawning -->
<g id="node1" class="node">
<title>chi.PreventEntityFromRespawning</title>
<ellipse fill="green" stroke="black" cx="323.19" cy="-18" rx="174.37" ry="18"/>
<text text-anchor="middle" x="323.19" y="-14.3" font-family="Times,serif" font-size="14.00">chi.PreventEntityFromRespawning</text>
</g>
<!-- chi.EntityVenusWeed -->
<g id="node2" class="node">
<title>chi.EntityVenusWeed</title>
<g id="a_node2"><a xlink:href="chi.EntityVenusWeed.svg" xlink:title="chi.EntityVenusWeed">
<ellipse fill="green" stroke="black" cx="109.19" cy="-198" rx="109.38" ry="18"/>
<text text-anchor="middle" x="109.19" y="-194.3" font-family="Times,serif" font-size="14.00">chi.EntityVenusWeed</text>
</a>
</g>
</g>
<!-- chi.EntityVenusWeed&#45;&gt;chi.PreventEntityFromRespawning -->
<g id="edge1" class="edge">
<title>chi.EntityVenusWeed&#45;&gt;chi.PreventEntityFromRespawning</title>
<path fill="none" stroke="black" d="M129.32,-180.25C167.62,-148.4 251.05,-79 294.93,-42.51"/>
<polygon fill="black" stroke="black" points="297.19,-45.18 302.64,-36.09 292.72,-39.8 297.19,-45.18"/>
<text text-anchor="middle" x="124.32" y="-169.05" font-family="Times,serif" font-size="14.00">1</text>
</g>
<!-- chi.HitDetection -->
<g id="node3" class="node">
<title>chi.HitDetection</title>
<g id="a_node3"><a xlink:href="chi.HitDetection.svg" xlink:title="chi.HitDetection">
<ellipse fill="green" stroke="black" cx="323.19" cy="-198" rx="87.18" ry="18"/>
<text text-anchor="middle" x="323.19" y="-194.3" font-family="Times,serif" font-size="14.00">chi.HitDetection</text>
</a>
</g>
</g>
<!-- chi.HitDetection&#45;&gt;chi.PreventEntityFromRespawning -->
<g id="edge2" class="edge">
<title>chi.HitDetection&#45;&gt;chi.PreventEntityFromRespawning</title>
<path fill="none" stroke="black" d="M323.19,-179.93C323.19,-148.97 323.19,-83.3 323.19,-46.13"/>
<polygon fill="black" stroke="black" points="326.69,-46.02 323.19,-36.02 319.69,-46.02 326.69,-46.02"/>
<text text-anchor="middle" x="318.19" y="-168.73" font-family="Times,serif" font-size="14.00">1</text>
</g>
<!-- chi.ReplaceBreakableWithItemDrop -->
<g id="node4" class="node">
<title>chi.ReplaceBreakableWithItemDrop</title>
<g id="a_node4"><a xlink:href="chi.ReplaceBreakableWithItemDrop.svg" xlink:title="chi.ReplaceBreakableWithItemDrop">
<ellipse fill="green" stroke="black" cx="605.19" cy="-198" rx="176.57" ry="18"/>
<text text-anchor="middle" x="605.19" y="-194.3" font-family="Times,serif" font-size="14.00">chi.ReplaceBreakableWithItemDrop</text>
</a>
</g>
</g>
<!-- chi.ReplaceBreakableWithItemDrop&#45;&gt;chi.PreventEntityFromRespawning -->
<g id="edge3" class="edge">
<title>chi.ReplaceBreakableWithItemDrop&#45;&gt;chi.PreventEntityFromRespawning</title>
<path fill="none" stroke="black" d="M578.41,-180.09C527.25,-147.8 415.65,-77.36 358.49,-41.28"/>
<polygon fill="black" stroke="black" points="360.12,-38.17 349.8,-35.79 356.38,-44.09 360.12,-38.17"/>
<text text-anchor="middle" x="573.41" y="-168.89" font-family="Times,serif" font-size="14.00">1</text>
</g>
</g>
</svg>
