<?xml version="1.0" encoding="UTF-8" standalone="no"?>
<!DOCTYPE svg PUBLIC "-//W3C//DTD SVG 1.1//EN"
 "http://www.w3.org/Graphics/SVG/1.1/DTD/svg11.dtd">
<!-- Generated by graphviz version 2.43.0 (0)
 -->
<!-- Title: dai.FallEntity Pages: 1 -->
<svg width="1501pt" height="224pt"
 viewBox="0.00 0.00 1501.38 224.00" xmlns="http://www.w3.org/2000/svg" xmlns:xlink="http://www.w3.org/1999/xlink">
<g id="graph0" class="graph" transform="scale(1 1) rotate(0) translate(4 220)">
<title>dai.FallEntity</title>
<polygon fill="white" stroke="transparent" points="-4,4 -4,-220 1497.38,-220 1497.38,4 -4,4"/>
<!-- dai.FallEntity -->
<g id="node1" class="node">
<title>dai.FallEntity</title>
<ellipse fill="green" stroke="black" cx="787.69" cy="-18" rx="73.39" ry="18"/>
<text text-anchor="middle" x="787.69" y="-14.3" font-family="Times,serif" font-size="14.00">dai.FallEntity</text>
</g>
<!-- dai.EntityBoneHalberdParts -->
<g id="node2" class="node">
<title>dai.EntityBoneHalberdParts</title>
<g id="a_node2"><a xlink:href="dai.EntityBoneHalberdParts.svg" xlink:title="dai.EntityBoneHalberdParts">
<ellipse fill="green" stroke="black" cx="141.69" cy="-198" rx="141.88" ry="18"/>
<text text-anchor="middle" x="141.69" y="-194.3" font-family="Times,serif" font-size="14.00">dai.EntityBoneHalberdParts</text>
</a>
</g>
</g>
<!-- dai.EntityBoneHalberdParts&#45;&gt;dai.FallEntity -->
<g id="edge1" class="edge">
<title>dai.EntityBoneHalberdParts&#45;&gt;dai.FallEntity</title>
<path fill="none" stroke="black" d="M198.17,-181.44C320.32,-147.78 607.91,-68.54 730.6,-34.73"/>
<polygon fill="black" stroke="black" points="731.84,-38.02 740.55,-31.99 729.98,-31.27 731.84,-38.02"/>
<text text-anchor="middle" x="193.17" y="-170.24" font-family="Times,serif" font-size="14.00">1</text>
</g>
<!-- dai.EntityEquipItemDrop -->
<g id="node3" class="node">
<title>dai.EntityEquipItemDrop</title>
<g id="a_node3"><a xlink:href="dai.EntityEquipItemDrop.svg" xlink:title="dai.EntityEquipItemDrop">
<ellipse fill="green" stroke="black" cx="429.69" cy="-198" rx="128.08" ry="18"/>
<text text-anchor="middle" x="429.69" y="-194.3" font-family="Times,serif" font-size="14.00">dai.EntityEquipItemDrop</text>
</a>
</g>
</g>
<!-- dai.EntityEquipItemDrop&#45;&gt;dai.FallEntity -->
<g id="edge2" class="edge">
<title>dai.EntityEquipItemDrop&#45;&gt;dai.FallEntity</title>
<path fill="none" stroke="black" d="M462.73,-180.57C528.66,-147.79 676.34,-74.36 747.65,-38.91"/>
<polygon fill="black" stroke="black" points="749.38,-41.96 756.78,-34.37 746.26,-35.69 749.38,-41.96"/>
<text text-anchor="middle" x="457.73" y="-169.37" font-family="Times,serif" font-size="14.00">1</text>
</g>
<!-- dai.EntityPrizeDrop -->
<g id="node4" class="node">
<title>dai.EntityPrizeDrop</title>
<g id="a_node4"><a xlink:href="dai.EntityPrizeDrop.svg" xlink:title="dai.EntityPrizeDrop">
<ellipse fill="green" stroke="black" cx="678.69" cy="-198" rx="103.18" ry="18"/>
<text text-anchor="middle" x="678.69" y="-194.3" font-family="Times,serif" font-size="14.00">dai.EntityPrizeDrop</text>
</a>
</g>
</g>
<!-- dai.EntityPrizeDrop&#45;&gt;dai.FallEntity -->
<g id="edge3" class="edge">
<title>dai.EntityPrizeDrop&#45;&gt;dai.FallEntity</title>
<path fill="none" stroke="black" d="M689.14,-179.93C708.35,-148.57 749.35,-81.6 771.95,-44.71"/>
<polygon fill="black" stroke="black" points="775.03,-46.37 777.27,-36.02 769.06,-42.72 775.03,-46.37"/>
<text text-anchor="middle" x="684.14" y="-168.73" font-family="Times,serif" font-size="14.00">2</text>
</g>
<!-- dai.PrizeDropFall2 -->
<g id="node5" class="node">
<title>dai.PrizeDropFall2</title>
<g id="a_node5"><a xlink:href="dai.PrizeDropFall2.svg" xlink:title="dai.PrizeDropFall2">
<ellipse fill="green" stroke="black" cx="897.69" cy="-198" rx="97.48" ry="18"/>
<text text-anchor="middle" x="897.69" y="-194.3" font-family="Times,serif" font-size="14.00">dai.PrizeDropFall2</text>
</a>
</g>
</g>
<!-- dai.PrizeDropFall2&#45;&gt;dai.FallEntity -->
<g id="edge4" class="edge">
<title>dai.PrizeDropFall2&#45;&gt;dai.FallEntity</title>
<path fill="none" stroke="black" d="M887.14,-179.93C867.76,-148.57 826.37,-81.6 803.57,-44.71"/>
<polygon fill="black" stroke="black" points="806.44,-42.68 798.2,-36.02 800.48,-46.36 806.44,-42.68"/>
<text text-anchor="middle" x="882.14" y="-168.73" font-family="Times,serif" font-size="14.00">1</text>
</g>
<!-- dai.UnkCollisionFunc3 -->
<g id="node6" class="node">
<title>dai.UnkCollisionFunc3</title>
<g id="a_node6"><a xlink:href="dai.UnkCollisionFunc3.svg" xlink:title="dai.UnkCollisionFunc3">
<ellipse fill="green" stroke="black" cx="1128.69" cy="-198" rx="115.88" ry="18"/>
<text text-anchor="middle" x="1128.69" y="-194.3" font-family="Times,serif" font-size="14.00">dai.UnkCollisionFunc3</text>
</a>
</g>
</g>
<!-- dai.UnkCollisionFunc3&#45;&gt;dai.FallEntity -->
<g id="edge5" class="edge">
<title>dai.UnkCollisionFunc3&#45;&gt;dai.FallEntity</title>
<path fill="none" stroke="black" d="M1097.22,-180.57C1034.7,-147.94 895.02,-75.03 826.76,-39.39"/>
<polygon fill="black" stroke="black" points="828.1,-36.15 817.61,-34.62 824.86,-42.35 828.1,-36.15"/>
<text text-anchor="middle" x="1092.22" y="-169.37" font-family="Times,serif" font-size="14.00">1</text>
</g>
<!-- dai.UnkCollisionFunc5 -->
<g id="node7" class="node">
<title>dai.UnkCollisionFunc5</title>
<g id="a_node7"><a xlink:href="dai.UnkCollisionFunc5.svg" xlink:title="dai.UnkCollisionFunc5">
<ellipse fill="green" stroke="black" cx="1377.69" cy="-198" rx="115.88" ry="18"/>
<text text-anchor="middle" x="1377.69" y="-194.3" font-family="Times,serif" font-size="14.00">dai.UnkCollisionFunc5</text>
</a>
</g>
</g>
<!-- dai.UnkCollisionFunc5&#45;&gt;dai.FallEntity -->
<g id="edge6" class="edge">
<title>dai.UnkCollisionFunc5&#45;&gt;dai.FallEntity</title>
<path fill="none" stroke="black" d="M1327.13,-181.75C1216.87,-148.48 955.58,-69.65 841.99,-35.38"/>
<polygon fill="black" stroke="black" points="842.7,-31.94 832.11,-32.4 840.67,-38.64 842.7,-31.94"/>
<text text-anchor="middle" x="1322.13" y="-170.55" font-family="Times,serif" font-size="14.00">1</text>
</g>
</g>
</svg>
