<?xml version="1.0" encoding="UTF-8" standalone="no"?>
<!DOCTYPE svg PUBLIC "-//W3C//DTD SVG 1.1//EN"
 "http://www.w3.org/Graphics/SVG/1.1/DTD/svg11.dtd">
<!-- Generated by graphviz version 2.43.0 (0)
 -->
<!-- Title: dai.EntityPriestBladeDebris Pages: 1 -->
<svg width="738pt" height="224pt"
 viewBox="0.00 0.00 737.59 224.00" xmlns="http://www.w3.org/2000/svg" xmlns:xlink="http://www.w3.org/1999/xlink">
<g id="graph0" class="graph" transform="scale(1 1) rotate(0) translate(4 220)">
<title>dai.EntityPriestBladeDebris</title>
<polygon fill="white" stroke="transparent" points="-4,4 -4,-220 733.59,-220 733.59,4 -4,4"/>
<!-- dai.EntityPriestBladeDebris -->
<g id="node1" class="node">
<title>dai.EntityPriestBladeDebris</title>
<ellipse fill="green" stroke="black" cx="398.94" cy="-198" rx="141.88" ry="18"/>
<text text-anchor="middle" x="398.94" y="-194.3" font-family="Times,serif" font-size="14.00">dai.EntityPriestBladeDebris</text>
</g>
<!-- dai.DestroyEntity -->
<g id="node2" class="node">
<title>dai.DestroyEntity</title>
<g id="a_node2"><a xlink:href="dai.DestroyEntity.svg" xlink:title="dai.DestroyEntity">
<ellipse fill="green" stroke="black" cx="92.94" cy="-18" rx="92.88" ry="18"/>
<text text-anchor="middle" x="92.94" y="-14.3" font-family="Times,serif" font-size="14.00">dai.DestroyEntity</text>
</a>
</g>
</g>
<!-- dai.EntityPriestBladeDebris&#45;&gt;dai.DestroyEntity -->
<g id="edge1" class="edge">
<title>dai.EntityPriestBladeDebris&#45;&gt;dai.DestroyEntity</title>
<path fill="none" stroke="black" d="M370.15,-180.25C314.4,-147.82 191.74,-76.47 130,-40.56"/>
<polygon fill="black" stroke="black" points="131.39,-37.32 120.99,-35.31 127.87,-43.37 131.39,-37.32"/>
<text text-anchor="middle" x="115.99" y="-39.11" font-family="Times,serif" font-size="14.00">1</text>
</g>
<!-- dai.InitializeEntity -->
<g id="node3" class="node">
<title>dai.InitializeEntity</title>
<g id="a_node3"><a xlink:href="dai.InitializeEntity.svg" xlink:title="dai.InitializeEntity">
<ellipse fill="green" stroke="black" cx="300.94" cy="-18" rx="96.68" ry="18"/>
<text text-anchor="middle" x="300.94" y="-14.3" font-family="Times,serif" font-size="14.00">dai.InitializeEntity</text>
</a>
</g>
</g>
<!-- dai.EntityPriestBladeDebris&#45;&gt;dai.InitializeEntity -->
<g id="edge2" class="edge">
<title>dai.EntityPriestBladeDebris&#45;&gt;dai.InitializeEntity</title>
<path fill="none" stroke="black" d="M389.55,-179.93C372.35,-148.7 335.72,-82.17 315.35,-45.18"/>
<polygon fill="black" stroke="black" points="318.2,-43.09 310.31,-36.02 312.07,-46.46 318.2,-43.09"/>
<text text-anchor="middle" x="305.31" y="-39.82" font-family="Times,serif" font-size="14.00">1</text>
</g>
<!-- dai.MoveEntity -->
<g id="node4" class="node">
<title>dai.MoveEntity</title>
<g id="a_node4"><a xlink:href="dai.MoveEntity.svg" xlink:title="dai.MoveEntity">
<ellipse fill="green" stroke="black" cx="497.94" cy="-18" rx="81.79" ry="18"/>
<text text-anchor="middle" x="497.94" y="-14.3" font-family="Times,serif" font-size="14.00">dai.MoveEntity</text>
</a>
</g>
</g>
<!-- dai.EntityPriestBladeDebris&#45;&gt;dai.MoveEntity -->
<g id="edge3" class="edge">
<title>dai.EntityPriestBladeDebris&#45;&gt;dai.MoveEntity</title>
<path fill="none" stroke="black" d="M408.43,-179.93C425.8,-148.7 462.81,-82.17 483.38,-45.18"/>
<polygon fill="black" stroke="black" points="486.68,-46.46 488.48,-36.02 480.56,-43.05 486.68,-46.46"/>
<text text-anchor="middle" x="483.48" y="-39.82" font-family="Times,serif" font-size="14.00">1</text>
</g>
<!-- dai.Random -->
<g id="node5" class="node">
<title>dai.Random</title>
<g id="a_node5"><a xlink:href="dai.Random.svg" xlink:title="dai.Random">
<ellipse fill="green" stroke="black" cx="663.94" cy="-18" rx="65.79" ry="18"/>
<text text-anchor="middle" x="663.94" y="-14.3" font-family="Times,serif" font-size="14.00">dai.Random</text>
</a>
</g>
</g>
<!-- dai.EntityPriestBladeDebris&#45;&gt;dai.Random -->
<g id="edge4" class="edge">
<title>dai.EntityPriestBladeDebris&#45;&gt;dai.Random</title>
<path fill="none" stroke="black" d="M423.87,-180.25C472.08,-147.87 578.04,-76.7 631.6,-40.73"/>
<polygon fill="black" stroke="black" points="633.69,-43.54 640.04,-35.06 629.78,-37.73 633.69,-43.54"/>
<text text-anchor="middle" x="635.04" y="-38.86" font-family="Times,serif" font-size="14.00">4</text>
</g>
</g>
</svg>
