<?xml version="1.0" encoding="UTF-8" standalone="no"?>
<!DOCTYPE svg PUBLIC "-//W3C//DTD SVG 1.1//EN"
 "http://www.w3.org/Graphics/SVG/1.1/DTD/svg11.dtd">
<!-- Generated by graphviz version 2.43.0 (0)
 -->
<!-- Title: dai.EntitySealedDoor Pages: 1 -->
<svg width="2739pt" height="224pt"
 viewBox="0.00 0.00 2738.89 224.00" xmlns="http://www.w3.org/2000/svg" xmlns:xlink="http://www.w3.org/1999/xlink">
<g id="graph0" class="graph" transform="scale(1 1) rotate(0) translate(4 220)">
<title>dai.EntitySealedDoor</title>
<polygon fill="white" stroke="transparent" points="-4,4 -4,-220 2734.89,-220 2734.89,4 -4,4"/>
<!-- dai.EntitySealedDoor -->
<g id="node1" class="node">
<title>dai.EntitySealedDoor</title>
<ellipse fill="green" stroke="black" cx="1626.29" cy="-198" rx="110.48" ry="18"/>
<text text-anchor="middle" x="1626.29" y="-194.3" font-family="Times,serif" font-size="14.00">dai.EntitySealedDoor</text>
</g>
<!-- dai.AllocEntity -->
<g id="node2" class="node">
<title>dai.AllocEntity</title>
<g id="a_node2"><a xlink:href="dai.AllocEntity.svg" xlink:title="dai.AllocEntity">
<ellipse fill="green" stroke="black" cx="79.29" cy="-18" rx="79.09" ry="18"/>
<text text-anchor="middle" x="79.29" y="-14.3" font-family="Times,serif" font-size="14.00">dai.AllocEntity</text>
</a>
</g>
</g>
<!-- dai.EntitySealedDoor&#45;&gt;dai.AllocEntity -->
<g id="edge1" class="edge">
<title>dai.EntitySealedDoor&#45;&gt;dai.AllocEntity</title>
<path fill="none" stroke="black" d="M1529.92,-189.08C1295.74,-169.26 678.46,-113.45 167.29,-36 160.47,-34.97 153.37,-33.78 146.3,-32.53"/>
<polygon fill="black" stroke="black" points="146.45,-29 135.98,-30.65 145.19,-35.88 146.45,-29"/>
<text text-anchor="middle" x="130.98" y="-34.45" font-family="Times,serif" font-size="14.00">1</text>
</g>
<!-- dai.CreateEntityFromCurrentEntity -->
<g id="node3" class="node">
<title>dai.CreateEntityFromCurrentEntity</title>
<g id="a_node3"><a xlink:href="dai.CreateEntityFromCurrentEntity.svg" xlink:title="dai.CreateEntityFromCurrentEntity">
<ellipse fill="green" stroke="black" cx="354.29" cy="-18" rx="178.17" ry="18"/>
<text text-anchor="middle" x="354.29" y="-14.3" font-family="Times,serif" font-size="14.00">dai.CreateEntityFromCurrentEntity</text>
</a>
</g>
</g>
<!-- dai.EntitySealedDoor&#45;&gt;dai.CreateEntityFromCurrentEntity -->
<g id="edge2" class="edge">
<title>dai.EntitySealedDoor&#45;&gt;dai.CreateEntityFromCurrentEntity</title>
<path fill="none" stroke="black" d="M1545.27,-185.66C1325.06,-154.85 715.27,-69.51 464.34,-34.4"/>
<polygon fill="black" stroke="black" points="464.5,-30.89 454.11,-32.97 463.53,-37.82 464.5,-30.89"/>
<text text-anchor="middle" x="449.11" y="-36.77" font-family="Times,serif" font-size="14.00">1</text>
</g>
<!-- dai.DestroyEntity -->
<g id="node4" class="node">
<title>dai.DestroyEntity</title>
<g id="a_node4"><a xlink:href="dai.DestroyEntity.svg" xlink:title="dai.DestroyEntity">
<ellipse fill="green" stroke="black" cx="643.29" cy="-18" rx="92.88" ry="18"/>
<text text-anchor="middle" x="643.29" y="-14.3" font-family="Times,serif" font-size="14.00">dai.DestroyEntity</text>
</a>
</g>
</g>
<!-- dai.EntitySealedDoor&#45;&gt;dai.DestroyEntity -->
<g id="edge3" class="edge">
<title>dai.EntitySealedDoor&#45;&gt;dai.DestroyEntity</title>
<path fill="none" stroke="black" d="M1555.2,-184.13C1375.27,-151.55 903.05,-66.04 718.62,-32.64"/>
<polygon fill="black" stroke="black" points="719.2,-29.19 708.74,-30.85 717.95,-36.08 719.2,-29.19"/>
<text text-anchor="middle" x="703.74" y="-34.65" font-family="Times,serif" font-size="14.00">1</text>
</g>
<!-- dai.GetPlayerCollisionWith -->
<g id="node5" class="node">
<title>dai.GetPlayerCollisionWith</title>
<g id="a_node5"><a xlink:href="dai.GetPlayerCollisionWith.svg" xlink:title="dai.GetPlayerCollisionWith">
<ellipse fill="green" stroke="black" cx="890.29" cy="-18" rx="135.68" ry="18"/>
<text text-anchor="middle" x="890.29" y="-14.3" font-family="Times,serif" font-size="14.00">dai.GetPlayerCollisionWith</text>
</a>
</g>
</g>
<!-- dai.EntitySealedDoor&#45;&gt;dai.GetPlayerCollisionWith -->
<g id="edge4" class="edge">
<title>dai.EntitySealedDoor&#45;&gt;dai.GetPlayerCollisionWith</title>
<path fill="none" stroke="black" d="M1567.31,-182.73C1433.51,-150.38 1107.38,-71.5 962.13,-36.37"/>
<polygon fill="black" stroke="black" points="962.95,-32.97 952.41,-34.02 961.3,-39.78 962.95,-32.97"/>
<text text-anchor="middle" x="947.41" y="-37.82" font-family="Times,serif" font-size="14.00">1</text>
</g>
<!-- dai.GetSideToPlayer -->
<g id="node6" class="node">
<title>dai.GetSideToPlayer</title>
<g id="a_node6"><a xlink:href="dai.GetSideToPlayer.svg" xlink:title="dai.GetSideToPlayer">
<ellipse fill="green" stroke="black" cx="1149.29" cy="-18" rx="105.08" ry="18"/>
<text text-anchor="middle" x="1149.29" y="-14.3" font-family="Times,serif" font-size="14.00">dai.GetSideToPlayer</text>
</a>
</g>
</g>
<!-- dai.EntitySealedDoor&#45;&gt;dai.GetSideToPlayer -->
<g id="edge5" class="edge">
<title>dai.EntitySealedDoor&#45;&gt;dai.GetSideToPlayer</title>
<path fill="none" stroke="black" d="M1583.96,-181.2C1496.34,-148.51 1295.37,-73.51 1200.57,-38.13"/>
<polygon fill="black" stroke="black" points="1201.78,-34.85 1191.19,-34.63 1199.33,-41.41 1201.78,-34.85"/>
<text text-anchor="middle" x="1186.19" y="-38.43" font-family="Times,serif" font-size="14.00">2</text>
</g>
<!-- dai.InitializeEntity -->
<g id="node7" class="node">
<title>dai.InitializeEntity</title>
<g id="a_node7"><a xlink:href="dai.InitializeEntity.svg" xlink:title="dai.InitializeEntity">
<ellipse fill="green" stroke="black" cx="1369.29" cy="-18" rx="96.68" ry="18"/>
<text text-anchor="middle" x="1369.29" y="-14.3" font-family="Times,serif" font-size="14.00">dai.InitializeEntity</text>
</a>
</g>
</g>
<!-- dai.EntitySealedDoor&#45;&gt;dai.InitializeEntity -->
<g id="edge6" class="edge">
<title>dai.EntitySealedDoor&#45;&gt;dai.InitializeEntity</title>
<path fill="none" stroke="black" d="M1602.12,-180.25C1555.6,-148.04 1453.64,-77.42 1401.45,-41.27"/>
<polygon fill="black" stroke="black" points="1403.43,-38.39 1393.22,-35.57 1399.45,-44.14 1403.43,-38.39"/>
<text text-anchor="middle" x="1388.22" y="-39.37" font-family="Times,serif" font-size="14.00">1</text>
</g>
<!-- dai.SealedDoorIsNearPlayer -->
<g id="node8" class="node">
<title>dai.SealedDoorIsNearPlayer</title>
<g id="a_node8"><a xlink:href="dai.SealedDoorIsNearPlayer.svg" xlink:title="dai.SealedDoorIsNearPlayer">
<ellipse fill="green" stroke="black" cx="1626.29" cy="-18" rx="142.17" ry="18"/>
<text text-anchor="middle" x="1626.29" y="-14.3" font-family="Times,serif" font-size="14.00">dai.SealedDoorIsNearPlayer</text>
</a>
</g>
</g>
<!-- dai.EntitySealedDoor&#45;&gt;dai.SealedDoorIsNearPlayer -->
<g id="edge7" class="edge">
<title>dai.EntitySealedDoor&#45;&gt;dai.SealedDoorIsNearPlayer</title>
<path fill="none" stroke="black" d="M1626.29,-179.93C1626.29,-148.97 1626.29,-83.3 1626.29,-46.13"/>
<polygon fill="black" stroke="black" points="1629.79,-46.02 1626.29,-36.02 1622.79,-46.02 1629.79,-46.02"/>
<text text-anchor="middle" x="1621.29" y="-39.82" font-family="Times,serif" font-size="14.00">3</text>
</g>
<!-- dra.AllocPrimitives -->
<g id="node9" class="node">
<title>dra.AllocPrimitives</title>
<g id="a_node9"><a xlink:href="dra.AllocPrimitives.svg" xlink:title="dra.AllocPrimitives">
<ellipse fill="green" stroke="black" cx="1886.29" cy="-18" rx="99.38" ry="18"/>
<text text-anchor="middle" x="1886.29" y="-14.3" font-family="Times,serif" font-size="14.00">dra.AllocPrimitives</text>
</a>
</g>
</g>
<!-- dai.EntitySealedDoor&#45;&gt;dra.AllocPrimitives -->
<g id="edge8" class="edge">
<title>dai.EntitySealedDoor&#45;&gt;dra.AllocPrimitives</title>
<path fill="none" stroke="black" d="M1650.75,-180.25C1697.81,-148.04 1800.96,-77.42 1853.76,-41.27"/>
<polygon fill="black" stroke="black" points="1855.81,-44.11 1862.09,-35.57 1851.86,-38.33 1855.81,-44.11"/>
<text text-anchor="middle" x="1857.09" y="-39.37" font-family="Times,serif" font-size="14.00">1</text>
</g>
<!-- dra.PlaySfx -->
<g id="node10" class="node">
<title>dra.PlaySfx</title>
<g id="a_node10"><a xlink:href="dra.PlaySfx.svg" xlink:title="dra.PlaySfx">
<ellipse fill="green" stroke="black" cx="2068.29" cy="-18" rx="64.19" ry="18"/>
<text text-anchor="middle" x="2068.29" y="-14.3" font-family="Times,serif" font-size="14.00">dra.PlaySfx</text>
</a>
</g>
</g>
<!-- dai.EntitySealedDoor&#45;&gt;dra.PlaySfx -->
<g id="edge9" class="edge">
<title>dai.EntitySealedDoor&#45;&gt;dra.PlaySfx</title>
<path fill="none" stroke="black" d="M1665.91,-181.05C1748.23,-147.89 1937.32,-71.74 2023.74,-36.94"/>
<polygon fill="black" stroke="black" points="2025.29,-40.09 2033.26,-33.11 2022.68,-33.6 2025.29,-40.09"/>
<text text-anchor="middle" x="2028.26" y="-36.91" font-family="Times,serif" font-size="14.00">2</text>
</g>
<!-- dra.func_8010DFF0 -->
<g id="node11" class="node">
<title>dra.func_8010DFF0</title>
<g id="a_node11"><a xlink:href="dra.func_8010DFF0.svg" xlink:title="dra.func_8010DFF0">
<ellipse fill="green" stroke="black" cx="2253.29" cy="-18" rx="102.88" ry="18"/>
<text text-anchor="middle" x="2253.29" y="-14.3" font-family="Times,serif" font-size="14.00">dra.func_8010DFF0</text>
</a>
</g>
</g>
<!-- dai.EntitySealedDoor&#45;&gt;dra.func_8010DFF0 -->
<g id="edge10" class="edge">
<title>dai.EntitySealedDoor&#45;&gt;dra.func_8010DFF0</title>
<path fill="none" stroke="black" d="M1678.67,-182.13C1793.87,-149.43 2068.74,-71.39 2191.84,-36.45"/>
<polygon fill="black" stroke="black" points="2192.84,-39.8 2201.5,-33.7 2190.93,-33.07 2192.84,-39.8"/>
<text text-anchor="middle" x="2196.5" y="-37.5" font-family="Times,serif" font-size="14.00">1</text>
</g>
<!-- dra.func_8010E168 -->
<g id="node12" class="node">
<title>dra.func_8010E168</title>
<g id="a_node12"><a xlink:href="dra.func_8010E168.svg" xlink:title="dra.func_8010E168">
<ellipse fill="green" stroke="black" cx="2475.29" cy="-18" rx="101.28" ry="18"/>
<text text-anchor="middle" x="2475.29" y="-14.3" font-family="Times,serif" font-size="14.00">dra.func_8010E168</text>
</a>
</g>
</g>
<!-- dai.EntitySealedDoor&#45;&gt;dra.func_8010E168 -->
<g id="edge11" class="edge">
<title>dai.EntitySealedDoor&#45;&gt;dra.func_8010E168</title>
<path fill="none" stroke="black" d="M1691.15,-183.4C1846.54,-150.82 2239.27,-68.48 2402.45,-34.27"/>
<polygon fill="black" stroke="black" points="2403.32,-37.66 2412.39,-32.19 2401.89,-30.81 2403.32,-37.66"/>
<text text-anchor="middle" x="2407.39" y="-35.99" font-family="Times,serif" font-size="14.00">1</text>
</g>
<!-- rcos -->
<g id="node13" class="node">
<title>rcos</title>
<g id="a_node13"><a xlink:href="rcos.svg" xlink:title="rcos">
<ellipse fill="lightblue" stroke="black" cx="2625.29" cy="-18" rx="30.59" ry="18"/>
<text text-anchor="middle" x="2625.29" y="-14.3" font-family="Times,serif" font-size="14.00">rcos</text>
</a>
</g>
</g>
<!-- dai.EntitySealedDoor&#45;&gt;rcos -->
<g id="edge12" class="edge">
<title>dai.EntitySealedDoor&#45;&gt;rcos</title>
<path fill="none" stroke="black" d="M1720.85,-188.58C1894.78,-171.46 2275.97,-126.32 2585.29,-36 2587.7,-35.3 2590.16,-34.49 2592.61,-33.62"/>
<polygon fill="black" stroke="black" points="2593.88,-36.88 2601.94,-30.01 2591.35,-30.35 2593.88,-36.88"/>
<text text-anchor="middle" x="2596.94" y="-33.81" font-family="Times,serif" font-size="14.00">2</text>
</g>
<!-- rsin -->
<g id="node14" class="node">
<title>rsin</title>
<g id="a_node14"><a xlink:href="rsin.svg" xlink:title="rsin">
<ellipse fill="lightblue" stroke="black" cx="2702.29" cy="-18" rx="28.7" ry="18"/>
<text text-anchor="middle" x="2702.29" y="-14.3" font-family="Times,serif" font-size="14.00">rsin</text>
</a>
</g>
</g>
<!-- dai.EntitySealedDoor&#45;&gt;rsin -->
<g id="edge13" class="edge">
<title>dai.EntitySealedDoor&#45;&gt;rsin</title>
<path fill="none" stroke="black" d="M1727.55,-190.64C1915.76,-176.78 2330.78,-136.63 2665.29,-36 2667.22,-35.42 2669.18,-34.76 2671.14,-34.04"/>
<polygon fill="black" stroke="black" points="2672.84,-37.12 2680.77,-30.1 2670.19,-30.65 2672.84,-37.12"/>
<text text-anchor="middle" x="2675.77" y="-33.9" font-family="Times,serif" font-size="14.00">2</text>
</g>
</g>
</svg>
