<?xml version="1.0" encoding="UTF-8" standalone="no"?>
<!DOCTYPE svg PUBLIC "-//W3C//DTD SVG 1.1//EN"
 "http://www.w3.org/Graphics/SVG/1.1/DTD/svg11.dtd">
<!-- Generated by graphviz version 2.43.0 (0)
 -->
<!-- Title: dai.EntitySpectralSword Pages: 1 -->
<svg width="2827pt" height="224pt"
 viewBox="0.00 0.00 2826.64 224.00" xmlns="http://www.w3.org/2000/svg" xmlns:xlink="http://www.w3.org/1999/xlink">
<g id="graph0" class="graph" transform="scale(1 1) rotate(0) translate(4 220)">
<title>dai.EntitySpectralSword</title>
<polygon fill="white" stroke="transparent" points="-4,4 -4,-220 2822.64,-220 2822.64,4 -4,4"/>
<!-- dai.EntitySpectralSword -->
<g id="node1" class="node">
<title>dai.EntitySpectralSword</title>
<ellipse fill="green" stroke="black" cx="1642.05" cy="-198" rx="125.38" ry="18"/>
<text text-anchor="middle" x="1642.05" y="-194.3" font-family="Times,serif" font-size="14.00">dai.EntitySpectralSword</text>
</g>
<!-- FntPrint -->
<g id="node2" class="node">
<title>FntPrint</title>
<g id="a_node2"><a xlink:href="FntPrint.svg" xlink:title="FntPrint">
<ellipse fill="lightblue" stroke="black" cx="50.05" cy="-18" rx="50.09" ry="18"/>
<text text-anchor="middle" x="50.05" y="-14.3" font-family="Times,serif" font-size="14.00">FntPrint</text>
</a>
</g>
</g>
<!-- dai.EntitySpectralSword&#45;&gt;FntPrint -->
<g id="edge1" class="edge">
<title>dai.EntitySpectralSword&#45;&gt;FntPrint</title>
<path fill="none" stroke="black" d="M1524.77,-191.54C1266.89,-178.03 631.97,-136.59 110.05,-36 105.62,-35.15 101.05,-34.12 96.49,-33"/>
<polygon fill="black" stroke="black" points="97.17,-29.56 86.61,-30.44 95.41,-36.34 97.17,-29.56"/>
<text text-anchor="middle" x="81.61" y="-34.24" font-family="Times,serif" font-size="14.00">1</text>
</g>
<!-- SquareRoot0 -->
<g id="node3" class="node">
<title>SquareRoot0</title>
<g id="a_node3"><a xlink:href="SquareRoot0.svg" xlink:title="SquareRoot0">
<ellipse fill="lightblue" stroke="black" cx="190.05" cy="-18" rx="71.49" ry="18"/>
<text text-anchor="middle" x="190.05" y="-14.3" font-family="Times,serif" font-size="14.00">SquareRoot0</text>
</a>
</g>
</g>
<!-- dai.EntitySpectralSword&#45;&gt;SquareRoot0 -->
<g id="edge2" class="edge">
<title>dai.EntitySpectralSword&#45;&gt;SquareRoot0</title>
<path fill="none" stroke="black" d="M1537.54,-187.96C1307.67,-167.38 741.13,-112.77 271.05,-36 264.81,-34.98 258.33,-33.81 251.87,-32.57"/>
<polygon fill="black" stroke="black" points="252.26,-29.08 241.77,-30.58 250.9,-35.95 252.26,-29.08"/>
<text text-anchor="middle" x="236.77" y="-34.38" font-family="Times,serif" font-size="14.00">2</text>
</g>
<!-- dai.AllocEntity -->
<g id="node4" class="node">
<title>dai.AllocEntity</title>
<g id="a_node4"><a xlink:href="dai.AllocEntity.svg" xlink:title="dai.AllocEntity">
<ellipse fill="green" stroke="black" cx="359.05" cy="-18" rx="79.09" ry="18"/>
<text text-anchor="middle" x="359.05" y="-14.3" font-family="Times,serif" font-size="14.00">dai.AllocEntity</text>
</a>
</g>
</g>
<!-- dai.EntitySpectralSword&#45;&gt;dai.AllocEntity -->
<g id="edge3" class="edge">
<title>dai.EntitySpectralSword&#45;&gt;dai.AllocEntity</title>
<path fill="none" stroke="black" d="M1547.66,-186.14C1345.39,-162.45 855.31,-102.88 447.05,-36 440.34,-34.9 433.36,-33.68 426.4,-32.42"/>
<polygon fill="black" stroke="black" points="426.71,-28.92 416.24,-30.54 425.44,-35.8 426.71,-28.92"/>
<text text-anchor="middle" x="411.24" y="-34.34" font-family="Times,serif" font-size="14.00">2</text>
</g>
<!-- dai.CreateEntityFromEntity -->
<g id="node5" class="node">
<title>dai.CreateEntityFromEntity</title>
<g id="a_node5"><a xlink:href="dai.CreateEntityFromEntity.svg" xlink:title="dai.CreateEntityFromEntity">
<ellipse fill="green" stroke="black" cx="598.05" cy="-18" rx="141.88" ry="18"/>
<text text-anchor="middle" x="598.05" y="-14.3" font-family="Times,serif" font-size="14.00">dai.CreateEntityFromEntity</text>
</a>
</g>
</g>
<!-- dai.EntitySpectralSword&#45;&gt;dai.CreateEntityFromEntity -->
<g id="edge4" class="edge">
<title>dai.EntitySpectralSword&#45;&gt;dai.CreateEntityFromEntity</title>
<path fill="none" stroke="black" d="M1564.43,-183.77C1375.29,-151.52 891.31,-69 689.04,-34.51"/>
<polygon fill="black" stroke="black" points="689.48,-31.04 679.04,-32.81 688.31,-37.94 689.48,-31.04"/>
<text text-anchor="middle" x="674.04" y="-36.61" font-family="Times,serif" font-size="14.00">4</text>
</g>
<!-- dai.DestroyEntity -->
<g id="node6" class="node">
<title>dai.DestroyEntity</title>
<g id="a_node6"><a xlink:href="dai.DestroyEntity.svg" xlink:title="dai.DestroyEntity">
<ellipse fill="green" stroke="black" cx="851.05" cy="-18" rx="92.88" ry="18"/>
<text text-anchor="middle" x="851.05" y="-14.3" font-family="Times,serif" font-size="14.00">dai.DestroyEntity</text>
</a>
</g>
</g>
<!-- dai.EntitySpectralSword&#45;&gt;dai.DestroyEntity -->
<g id="edge5" class="edge">
<title>dai.EntitySpectralSword&#45;&gt;dai.DestroyEntity</title>
<path fill="none" stroke="black" d="M1577.65,-182.51C1430.37,-149.37 1070.03,-68.28 919.2,-34.34"/>
<polygon fill="black" stroke="black" points="919.66,-30.85 909.14,-32.07 918.13,-37.68 919.66,-30.85"/>
<text text-anchor="middle" x="904.14" y="-35.87" font-family="Times,serif" font-size="14.00">2</text>
</g>
<!-- dai.GetDistanceToPlayerX -->
<g id="node7" class="node">
<title>dai.GetDistanceToPlayerX</title>
<g id="a_node7"><a xlink:href="dai.GetDistanceToPlayerX.svg" xlink:title="dai.GetDistanceToPlayerX">
<ellipse fill="green" stroke="black" cx="1094.05" cy="-18" rx="131.88" ry="18"/>
<text text-anchor="middle" x="1094.05" y="-14.3" font-family="Times,serif" font-size="14.00">dai.GetDistanceToPlayerX</text>
</a>
</g>
</g>
<!-- dai.EntitySpectralSword&#45;&gt;dai.GetDistanceToPlayerX -->
<g id="edge6" class="edge">
<title>dai.EntitySpectralSword&#45;&gt;dai.GetDistanceToPlayerX</title>
<path fill="none" stroke="black" d="M1593.89,-181.36C1493.35,-148.7 1261.4,-73.36 1152.51,-37.99"/>
<polygon fill="black" stroke="black" points="1153.27,-34.56 1142.68,-34.8 1151.11,-41.21 1153.27,-34.56"/>
<text text-anchor="middle" x="1137.68" y="-38.6" font-family="Times,serif" font-size="14.00">1</text>
</g>
<!-- dai.InitializeEntity -->
<g id="node8" class="node">
<title>dai.InitializeEntity</title>
<g id="a_node8"><a xlink:href="dai.InitializeEntity.svg" xlink:title="dai.InitializeEntity">
<ellipse fill="green" stroke="black" cx="1341.05" cy="-18" rx="96.68" ry="18"/>
<text text-anchor="middle" x="1341.05" y="-14.3" font-family="Times,serif" font-size="14.00">dai.InitializeEntity</text>
</a>
</g>
</g>
<!-- dai.EntitySpectralSword&#45;&gt;dai.InitializeEntity -->
<g id="edge7" class="edge">
<title>dai.EntitySpectralSword&#45;&gt;dai.InitializeEntity</title>
<path fill="none" stroke="black" d="M1614,-180.41C1559.3,-148.07 1438.44,-76.6 1377.58,-40.6"/>
<polygon fill="black" stroke="black" points="1379.08,-37.43 1368.69,-35.35 1375.52,-43.45 1379.08,-37.43"/>
<text text-anchor="middle" x="1363.69" y="-39.15" font-family="Times,serif" font-size="14.00">1</text>
</g>
<!-- dai.MoveEntity -->
<g id="node9" class="node">
<title>dai.MoveEntity</title>
<g id="a_node9"><a xlink:href="dai.MoveEntity.svg" xlink:title="dai.MoveEntity">
<ellipse fill="green" stroke="black" cx="1538.05" cy="-18" rx="81.79" ry="18"/>
<text text-anchor="middle" x="1538.05" y="-14.3" font-family="Times,serif" font-size="14.00">dai.MoveEntity</text>
</a>
</g>
</g>
<!-- dai.EntitySpectralSword&#45;&gt;dai.MoveEntity -->
<g id="edge8" class="edge">
<title>dai.EntitySpectralSword&#45;&gt;dai.MoveEntity</title>
<path fill="none" stroke="black" d="M1632.07,-179.93C1613.75,-148.57 1574.62,-81.6 1553.07,-44.71"/>
<polygon fill="black" stroke="black" points="1556.05,-42.88 1547.99,-36.02 1550.01,-46.42 1556.05,-42.88"/>
<text text-anchor="middle" x="1542.99" y="-39.82" font-family="Times,serif" font-size="14.00">2</text>
</g>
<!-- dai.PlaySfxPositional -->
<g id="node10" class="node">
<title>dai.PlaySfxPositional</title>
<g id="a_node10"><a xlink:href="dai.PlaySfxPositional.svg" xlink:title="dai.PlaySfxPositional">
<ellipse fill="green" stroke="black" cx="1746.05" cy="-18" rx="108.58" ry="18"/>
<text text-anchor="middle" x="1746.05" y="-14.3" font-family="Times,serif" font-size="14.00">dai.PlaySfxPositional</text>
</a>
</g>
</g>
<!-- dai.EntitySpectralSword&#45;&gt;dai.PlaySfxPositional -->
<g id="edge9" class="edge">
<title>dai.EntitySpectralSword&#45;&gt;dai.PlaySfxPositional</title>
<path fill="none" stroke="black" d="M1652.02,-179.93C1670.34,-148.57 1709.47,-81.6 1731.03,-44.71"/>
<polygon fill="black" stroke="black" points="1734.08,-46.42 1736.1,-36.02 1728.04,-42.88 1734.08,-46.42"/>
<text text-anchor="middle" x="1731.1" y="-39.82" font-family="Times,serif" font-size="14.00">4</text>
</g>
<!-- dai.Random -->
<g id="node11" class="node">
<title>dai.Random</title>
<g id="a_node11"><a xlink:href="dai.Random.svg" xlink:title="dai.Random">
<ellipse fill="green" stroke="black" cx="1938.05" cy="-18" rx="65.79" ry="18"/>
<text text-anchor="middle" x="1938.05" y="-14.3" font-family="Times,serif" font-size="14.00">dai.Random</text>
</a>
</g>
</g>
<!-- dai.EntitySpectralSword&#45;&gt;dai.Random -->
<g id="edge10" class="edge">
<title>dai.EntitySpectralSword&#45;&gt;dai.Random</title>
<path fill="none" stroke="black" d="M1669.63,-180.41C1723.82,-147.82 1844.08,-75.5 1903.48,-39.79"/>
<polygon fill="black" stroke="black" points="1905.36,-42.74 1912.13,-34.59 1901.75,-36.74 1905.36,-42.74"/>
<text text-anchor="middle" x="1907.13" y="-38.39" font-family="Times,serif" font-size="14.00">2</text>
</g>
<!-- dai.SetStep -->
<g id="node12" class="node">
<title>dai.SetStep</title>
<g id="a_node12"><a xlink:href="dai.SetStep.svg" xlink:title="dai.SetStep">
<ellipse fill="green" stroke="black" cx="2087.05" cy="-18" rx="64.99" ry="18"/>
<text text-anchor="middle" x="2087.05" y="-14.3" font-family="Times,serif" font-size="14.00">dai.SetStep</text>
</a>
</g>
</g>
<!-- dai.EntitySpectralSword&#45;&gt;dai.SetStep -->
<g id="edge11" class="edge">
<title>dai.EntitySpectralSword&#45;&gt;dai.SetStep</title>
<path fill="none" stroke="black" d="M1682.32,-180.89C1765.43,-147.65 1955.38,-71.66 2042.23,-36.93"/>
<polygon fill="black" stroke="black" points="2043.56,-40.16 2051.55,-33.2 2040.96,-33.66 2043.56,-40.16"/>
<text text-anchor="middle" x="2046.55" y="-37" font-family="Times,serif" font-size="14.00">5</text>
</g>
<!-- dai.StepTowards -->
<g id="node13" class="node">
<title>dai.StepTowards</title>
<g id="a_node13"><a xlink:href="dai.StepTowards.svg" xlink:title="dai.StepTowards">
<ellipse fill="green" stroke="black" cx="2258.05" cy="-18" rx="88.28" ry="18"/>
<text text-anchor="middle" x="2258.05" y="-14.3" font-family="Times,serif" font-size="14.00">dai.StepTowards</text>
</a>
</g>
</g>
<!-- dai.EntitySpectralSword&#45;&gt;dai.StepTowards -->
<g id="edge12" class="edge">
<title>dai.EntitySpectralSword&#45;&gt;dai.StepTowards</title>
<path fill="none" stroke="black" d="M1695.1,-181.67C1809.78,-148.53 2080.02,-70.44 2199.49,-35.92"/>
<polygon fill="black" stroke="black" points="2200.57,-39.25 2209.21,-33.11 2198.63,-32.53 2200.57,-39.25"/>
<text text-anchor="middle" x="2204.21" y="-36.91" font-family="Times,serif" font-size="14.00">5</text>
</g>
<!-- dra.AllocPrimitives -->
<g id="node14" class="node">
<title>dra.AllocPrimitives</title>
<g id="a_node14"><a xlink:href="dra.AllocPrimitives.svg" xlink:title="dra.AllocPrimitives">
<ellipse fill="green" stroke="black" cx="2464.05" cy="-18" rx="99.38" ry="18"/>
<text text-anchor="middle" x="2464.05" y="-14.3" font-family="Times,serif" font-size="14.00">dra.AllocPrimitives</text>
</a>
</g>
</g>
<!-- dai.EntitySpectralSword&#45;&gt;dra.AllocPrimitives -->
<g id="edge13" class="edge">
<title>dai.EntitySpectralSword&#45;&gt;dra.AllocPrimitives</title>
<path fill="none" stroke="black" d="M1708.27,-182.66C1860.8,-149.63 2235.82,-68.42 2392.96,-34.39"/>
<polygon fill="black" stroke="black" points="2393.96,-37.76 2402.99,-32.22 2392.48,-30.92 2393.96,-37.76"/>
<text text-anchor="middle" x="2397.99" y="-36.02" font-family="Times,serif" font-size="14.00">1</text>
</g>
<!-- ratan2 -->
<g id="node15" class="node">
<title>ratan2</title>
<g id="a_node15"><a xlink:href="ratan2.svg" xlink:title="ratan2">
<ellipse fill="lightblue" stroke="black" cx="2623.05" cy="-18" rx="41.69" ry="18"/>
<text text-anchor="middle" x="2623.05" y="-14.3" font-family="Times,serif" font-size="14.00">ratan2</text>
</a>
</g>
</g>
<!-- dai.EntitySpectralSword&#45;&gt;ratan2 -->
<g id="edge14" class="edge">
<title>dai.EntitySpectralSword&#45;&gt;ratan2</title>
<path fill="none" stroke="black" d="M1734.09,-185.74C1902.16,-164.14 2269.33,-112.19 2572.05,-36 2575.41,-35.15 2578.86,-34.2 2582.32,-33.18"/>
<polygon fill="black" stroke="black" points="2583.46,-36.49 2591.98,-30.18 2581.39,-29.8 2583.46,-36.49"/>
<text text-anchor="middle" x="2586.98" y="-33.98" font-family="Times,serif" font-size="14.00">1</text>
</g>
<!-- rcos -->
<g id="node16" class="node">
<title>rcos</title>
<g id="a_node16"><a xlink:href="rcos.svg" xlink:title="rcos">
<ellipse fill="lightblue" stroke="black" cx="2713.05" cy="-18" rx="30.59" ry="18"/>
<text text-anchor="middle" x="2713.05" y="-14.3" font-family="Times,serif" font-size="14.00">rcos</text>
</a>
</g>
</g>
<!-- dai.EntitySpectralSword&#45;&gt;rcos -->
<g id="edge15" class="edge">
<title>dai.EntitySpectralSword&#45;&gt;rcos</title>
<path fill="none" stroke="black" d="M1751.75,-189.16C1942.5,-173.5 2346.25,-131.29 2674.05,-36 2676.32,-35.34 2678.64,-34.58 2680.95,-33.75"/>
<polygon fill="black" stroke="black" points="2682.28,-36.98 2690.31,-30.07 2679.72,-30.47 2682.28,-36.98"/>
<text text-anchor="middle" x="2685.31" y="-33.87" font-family="Times,serif" font-size="14.00">4</text>
</g>
<!-- rsin -->
<g id="node17" class="node">
<title>rsin</title>
<g id="a_node17"><a xlink:href="rsin.svg" xlink:title="rsin">
<ellipse fill="lightblue" stroke="black" cx="2790.05" cy="-18" rx="28.7" ry="18"/>
<text text-anchor="middle" x="2790.05" y="-14.3" font-family="Times,serif" font-size="14.00">rsin</text>
</a>
</g>
</g>
<!-- dai.EntitySpectralSword&#45;&gt;rsin -->
<g id="edge16" class="edge">
<title>dai.EntitySpectralSword&#45;&gt;rsin</title>
<path fill="none" stroke="black" d="M1758.33,-191.11C1963.16,-178.34 2400.02,-140.31 2753.05,-36 2754.98,-35.43 2756.94,-34.77 2758.9,-34.06"/>
<polygon fill="black" stroke="black" points="2760.59,-37.15 2768.53,-30.14 2757.95,-30.67 2760.59,-37.15"/>
<text text-anchor="middle" x="2763.53" y="-33.94" font-family="Times,serif" font-size="14.00">4</text>
</g>
</g>
</svg>
