<?xml version="1.0" encoding="UTF-8" standalone="no"?>
<!DOCTYPE svg PUBLIC "-//W3C//DTD SVG 1.1//EN"
 "http://www.w3.org/Graphics/SVG/1.1/DTD/svg11.dtd">
<!-- Generated by graphviz version 2.43.0 (0)
 -->
<!-- Title: dai.UnkEntityFunc0 Pages: 1 -->
<svg width="492pt" height="404pt"
 viewBox="0.00 0.00 492.33 404.00" xmlns="http://www.w3.org/2000/svg" xmlns:xlink="http://www.w3.org/1999/xlink">
<g id="graph0" class="graph" transform="scale(1 1) rotate(0) translate(4 400)">
<title>dai.UnkEntityFunc0</title>
<polygon fill="white" stroke="transparent" points="-4,4 -4,-400 488.33,-400 488.33,4 -4,4"/>
<!-- dai.UnkEntityFunc0 -->
<g id="node1" class="node">
<title>dai.UnkEntityFunc0</title>
<ellipse fill="green" stroke="black" cx="240.04" cy="-198" rx="104.78" ry="18"/>
<text text-anchor="middle" x="240.04" y="-194.3" font-family="Times,serif" font-size="14.00">dai.UnkEntityFunc0</text>
</g>
<!-- rcos -->
<g id="node2" class="node">
<title>rcos</title>
<g id="a_node2"><a xlink:href="rcos.svg" xlink:title="rcos">
<ellipse fill="lightblue" stroke="black" cx="202.04" cy="-18" rx="30.59" ry="18"/>
<text text-anchor="middle" x="202.04" y="-14.3" font-family="Times,serif" font-size="14.00">rcos</text>
</a>
</g>
</g>
<!-- dai.UnkEntityFunc0&#45;&gt;rcos -->
<g id="edge1" class="edge">
<title>dai.UnkEntityFunc0&#45;&gt;rcos</title>
<path fill="none" stroke="black" d="M236.4,-179.93C229.79,-148.97 215.77,-83.3 207.83,-46.13"/>
<polygon fill="black" stroke="black" points="211.18,-45.06 205.67,-36.02 204.34,-46.53 211.18,-45.06"/>
<text text-anchor="middle" x="200.67" y="-39.82" font-family="Times,serif" font-size="14.00">1</text>
</g>
<!-- rsin -->
<g id="node3" class="node">
<title>rsin</title>
<g id="a_node3"><a xlink:href="rsin.svg" xlink:title="rsin">
<ellipse fill="lightblue" stroke="black" cx="279.04" cy="-18" rx="28.7" ry="18"/>
<text text-anchor="middle" x="279.04" y="-14.3" font-family="Times,serif" font-size="14.00">rsin</text>
</a>
</g>
</g>
<!-- dai.UnkEntityFunc0&#45;&gt;rsin -->
<g id="edge2" class="edge">
<title>dai.UnkEntityFunc0&#45;&gt;rsin</title>
<path fill="none" stroke="black" d="M243.78,-179.93C250.56,-148.97 264.95,-83.3 273.1,-46.13"/>
<polygon fill="black" stroke="black" points="276.59,-46.53 275.31,-36.02 269.75,-45.03 276.59,-46.53"/>
<text text-anchor="middle" x="270.31" y="-39.82" font-family="Times,serif" font-size="14.00">1</text>
</g>
<!-- dai.EntityEnemyBlood -->
<g id="node4" class="node">
<title>dai.EntityEnemyBlood</title>
<g id="a_node4"><a xlink:href="dai.EntityEnemyBlood.svg" xlink:title="dai.EntityEnemyBlood">
<ellipse fill="green" stroke="black" cx="115.04" cy="-378" rx="115.08" ry="18"/>
<text text-anchor="middle" x="115.04" y="-374.3" font-family="Times,serif" font-size="14.00">dai.EntityEnemyBlood</text>
</a>
</g>
</g>
<!-- dai.EntityEnemyBlood&#45;&gt;dai.UnkEntityFunc0 -->
<g id="edge3" class="edge">
<title>dai.EntityEnemyBlood&#45;&gt;dai.UnkEntityFunc0</title>
<path fill="none" stroke="black" d="M127.03,-359.93C149.14,-328.43 196.48,-261.03 222.31,-224.24"/>
<polygon fill="black" stroke="black" points="225.21,-226.21 228.09,-216.02 219.48,-222.19 225.21,-226.21"/>
<text text-anchor="middle" x="122.03" y="-348.73" font-family="Times,serif" font-size="14.00">1</text>
</g>
<!-- dai.EntitySoulStealOrb -->
<g id="node5" class="node">
<title>dai.EntitySoulStealOrb</title>
<g id="a_node5"><a xlink:href="dai.EntitySoulStealOrb.svg" xlink:title="dai.EntitySoulStealOrb">
<ellipse fill="green" stroke="black" cx="366.04" cy="-378" rx="118.08" ry="18"/>
<text text-anchor="middle" x="366.04" y="-374.3" font-family="Times,serif" font-size="14.00">dai.EntitySoulStealOrb</text>
</a>
</g>
</g>
<!-- dai.EntitySoulStealOrb&#45;&gt;dai.UnkEntityFunc0 -->
<g id="edge4" class="edge">
<title>dai.EntitySoulStealOrb&#45;&gt;dai.UnkEntityFunc0</title>
<path fill="none" stroke="black" d="M353.96,-359.93C331.66,-328.43 283.95,-261.03 257.91,-224.24"/>
<polygon fill="black" stroke="black" points="260.72,-222.16 252.08,-216.02 255.01,-226.2 260.72,-222.16"/>
<text text-anchor="middle" x="348.96" y="-348.73" font-family="Times,serif" font-size="14.00">1</text>
</g>
</g>
</svg>
