<?xml version="1.0" encoding="UTF-8" standalone="no"?>
<!DOCTYPE svg PUBLIC "-//W3C//DTD SVG 1.1//EN"
 "http://www.w3.org/Graphics/SVG/1.1/DTD/svg11.dtd">
<!-- Generated by graphviz version 2.43.0 (0)
 -->
<!-- Title: dai.CollectDummy Pages: 1 -->
<svg width="215pt" height="404pt"
 viewBox="0.00 0.00 214.68 404.00" xmlns="http://www.w3.org/2000/svg" xmlns:xlink="http://www.w3.org/1999/xlink">
<g id="graph0" class="graph" transform="scale(1 1) rotate(0) translate(4 400)">
<title>dai.CollectDummy</title>
<polygon fill="white" stroke="transparent" points="-4,4 -4,-400 210.68,-400 210.68,4 -4,4"/>
<!-- dai.CollectDummy -->
<g id="node1" class="node">
<title>dai.CollectDummy</title>
<ellipse fill="green" stroke="black" cx="103.34" cy="-198" rx="96.38" ry="18"/>
<text text-anchor="middle" x="103.34" y="-194.3" font-family="Times,serif" font-size="14.00">dai.CollectDummy</text>
</g>
<!-- dai.DestroyEntity -->
<g id="node2" class="node">
<title>dai.DestroyEntity</title>
<g id="a_node2"><a xlink:href="dai.DestroyEntity.svg" xlink:title="dai.DestroyEntity">
<ellipse fill="green" stroke="black" cx="103.34" cy="-18" rx="92.88" ry="18"/>
<text text-anchor="middle" x="103.34" y="-14.3" font-family="Times,serif" font-size="14.00">dai.DestroyEntity</text>
</a>
</g>
</g>
<!-- dai.CollectDummy&#45;&gt;dai.DestroyEntity -->
<g id="edge1" class="edge">
<title>dai.CollectDummy&#45;&gt;dai.DestroyEntity</title>
<path fill="none" stroke="black" d="M103.34,-179.93C103.34,-148.97 103.34,-83.3 103.34,-46.13"/>
<polygon fill="black" stroke="black" points="106.84,-46.02 103.34,-36.02 99.84,-46.02 106.84,-46.02"/>
<text text-anchor="middle" x="98.34" y="-39.82" font-family="Times,serif" font-size="14.00">1</text>
</g>
<!-- dai.EntityPrizeDrop -->
<g id="node3" class="node">
<title>dai.EntityPrizeDrop</title>
<g id="a_node3"><a xlink:href="dai.EntityPrizeDrop.svg" xlink:title="dai.EntityPrizeDrop">
<ellipse fill="green" stroke="black" cx="103.34" cy="-378" rx="103.18" ry="18"/>
<text text-anchor="middle" x="103.34" y="-374.3" font-family="Times,serif" font-size="14.00">dai.EntityPrizeDrop</text>
</a>
</g>
</g>
<!-- dai.EntityPrizeDrop&#45;&gt;dai.CollectDummy -->
<g id="edge2" class="edge">
<title>dai.EntityPrizeDrop&#45;&gt;dai.CollectDummy</title>
<path fill="none" stroke="black" d="M103.34,-359.93C103.34,-328.97 103.34,-263.3 103.34,-226.13"/>
<polygon fill="black" stroke="black" points="106.84,-226.02 103.34,-216.02 99.84,-226.02 106.84,-226.02"/>
<text text-anchor="middle" x="98.34" y="-348.73" font-family="Times,serif" font-size="14.00">1</text>
</g>
</g>
</svg>
