<?xml version="1.0" encoding="UTF-8" standalone="no"?>
<!DOCTYPE svg PUBLIC "-//W3C//DTD SVG 1.1//EN"
 "http://www.w3.org/Graphics/SVG/1.1/DTD/svg11.dtd">
<!-- Generated by graphviz version 2.43.0 (0)
 -->
<!-- Title: dai.EntityChair Pages: 1 -->
<svg width="1283pt" height="224pt"
 viewBox="0.00 0.00 1283.14 224.00" xmlns="http://www.w3.org/2000/svg" xmlns:xlink="http://www.w3.org/1999/xlink">
<g id="graph0" class="graph" transform="scale(1 1) rotate(0) translate(4 220)">
<title>dai.EntityChair</title>
<polygon fill="white" stroke="transparent" points="-4,4 -4,-220 1279.14,-220 1279.14,4 -4,4"/>
<!-- dai.EntityChair -->
<g id="node1" class="node">
<title>dai.EntityChair</title>
<ellipse fill="green" stroke="black" cx="679.05" cy="-198" rx="81.79" ry="18"/>
<text text-anchor="middle" x="679.05" y="-194.3" font-family="Times,serif" font-size="14.00">dai.EntityChair</text>
</g>
<!-- FntPrint -->
<g id="node2" class="node">
<title>FntPrint</title>
<g id="a_node2"><a xlink:href="FntPrint.svg" xlink:title="FntPrint">
<ellipse fill="lightblue" stroke="black" cx="50.05" cy="-18" rx="50.09" ry="18"/>
<text text-anchor="middle" x="50.05" y="-14.3" font-family="Times,serif" font-size="14.00">FntPrint</text>
</a>
</g>
</g>
<!-- dai.EntityChair&#45;&gt;FntPrint -->
<g id="edge1" class="edge">
<title>dai.EntityChair&#45;&gt;FntPrint</title>
<path fill="none" stroke="black" d="M630.6,-183.41C532.25,-155.8 302.12,-91.08 109.05,-36 105.29,-34.93 101.4,-33.82 97.49,-32.69"/>
<polygon fill="black" stroke="black" points="98.38,-29.31 87.81,-29.91 96.45,-36.04 98.38,-29.31"/>
<text text-anchor="middle" x="82.81" y="-33.71" font-family="Times,serif" font-size="14.00">1</text>
</g>
<!-- dai.CreateEntityFromCurrentEntity -->
<g id="node3" class="node">
<title>dai.CreateEntityFromCurrentEntity</title>
<g id="a_node3"><a xlink:href="dai.CreateEntityFromCurrentEntity.svg" xlink:title="dai.CreateEntityFromCurrentEntity">
<ellipse fill="green" stroke="black" cx="296.05" cy="-18" rx="178.17" ry="18"/>
<text text-anchor="middle" x="296.05" y="-14.3" font-family="Times,serif" font-size="14.00">dai.CreateEntityFromCurrentEntity</text>
</a>
</g>
</g>
<!-- dai.EntityChair&#45;&gt;dai.CreateEntityFromCurrentEntity -->
<g id="edge2" class="edge">
<title>dai.EntityChair&#45;&gt;dai.CreateEntityFromCurrentEntity</title>
<path fill="none" stroke="black" d="M645.73,-181.52C576.91,-149.53 419.01,-76.15 341.15,-39.96"/>
<polygon fill="black" stroke="black" points="342.6,-36.78 332.06,-35.74 339.65,-43.13 342.6,-36.78"/>
<text text-anchor="middle" x="327.06" y="-39.54" font-family="Times,serif" font-size="14.00">2</text>
</g>
<!-- dai.InitializeEntity -->
<g id="node4" class="node">
<title>dai.InitializeEntity</title>
<g id="a_node4"><a xlink:href="dai.InitializeEntity.svg" xlink:title="dai.InitializeEntity">
<ellipse fill="green" stroke="black" cx="589.05" cy="-18" rx="96.68" ry="18"/>
<text text-anchor="middle" x="589.05" y="-14.3" font-family="Times,serif" font-size="14.00">dai.InitializeEntity</text>
</a>
</g>
</g>
<!-- dai.EntityChair&#45;&gt;dai.InitializeEntity -->
<g id="edge3" class="edge">
<title>dai.EntityChair&#45;&gt;dai.InitializeEntity</title>
<path fill="none" stroke="black" d="M670.42,-179.93C654.62,-148.7 620.98,-82.17 602.28,-45.18"/>
<polygon fill="black" stroke="black" points="605.28,-43.36 597.65,-36.02 599.04,-46.52 605.28,-43.36"/>
<text text-anchor="middle" x="592.65" y="-39.82" font-family="Times,serif" font-size="14.00">1</text>
</g>
<!-- dai.Random -->
<g id="node5" class="node">
<title>dai.Random</title>
<g id="a_node5"><a xlink:href="dai.Random.svg" xlink:title="dai.Random">
<ellipse fill="green" stroke="black" cx="769.05" cy="-18" rx="65.79" ry="18"/>
<text text-anchor="middle" x="769.05" y="-14.3" font-family="Times,serif" font-size="14.00">dai.Random</text>
</a>
</g>
</g>
<!-- dai.EntityChair&#45;&gt;dai.Random -->
<g id="edge4" class="edge">
<title>dai.EntityChair&#45;&gt;dai.Random</title>
<path fill="none" stroke="black" d="M687.68,-179.93C703.47,-148.7 737.11,-82.17 755.81,-45.18"/>
<polygon fill="black" stroke="black" points="759.05,-46.52 760.44,-36.02 752.81,-43.36 759.05,-46.52"/>
<text text-anchor="middle" x="755.44" y="-39.82" font-family="Times,serif" font-size="14.00">1</text>
</g>
<!-- dai.func_us_801C3104 -->
<g id="node6" class="node">
<title>dai.func_us_801C3104</title>
<g id="a_node6"><a xlink:href="dai.func_us_801C3104.svg" xlink:title="dai.func_us_801C3104">
<ellipse fill="green" stroke="black" cx="968.05" cy="-18" rx="115.08" ry="18"/>
<text text-anchor="middle" x="968.05" y="-14.3" font-family="Times,serif" font-size="14.00">dai.func_us_801C3104</text>
</a>
</g>
</g>
<!-- dai.EntityChair&#45;&gt;dai.func_us_801C3104 -->
<g id="edge5" class="edge">
<title>dai.EntityChair&#45;&gt;dai.func_us_801C3104</title>
<path fill="none" stroke="black" d="M705.2,-180.89C757.14,-148.9 873.35,-77.33 932.29,-41.02"/>
<polygon fill="black" stroke="black" points="934.22,-43.94 940.9,-35.72 930.55,-37.98 934.22,-43.94"/>
<text text-anchor="middle" x="935.9" y="-39.52" font-family="Times,serif" font-size="14.00">1</text>
</g>
<!-- dra.UpdateAnim -->
<g id="node7" class="node">
<title>dra.UpdateAnim</title>
<g id="a_node7"><a xlink:href="dra.UpdateAnim.svg" xlink:title="dra.UpdateAnim">
<ellipse fill="green" stroke="black" cx="1188.05" cy="-18" rx="87.18" ry="18"/>
<text text-anchor="middle" x="1188.05" y="-14.3" font-family="Times,serif" font-size="14.00">dra.UpdateAnim</text>
</a>
</g>
</g>
<!-- dai.EntityChair&#45;&gt;dra.UpdateAnim -->
<g id="edge6" class="edge">
<title>dai.EntityChair&#45;&gt;dra.UpdateAnim</title>
<path fill="none" stroke="black" d="M720.7,-182.43C813.07,-150.13 1034.9,-72.56 1136.12,-37.16"/>
<polygon fill="black" stroke="black" points="1137.53,-40.37 1145.82,-33.77 1135.22,-33.77 1137.53,-40.37"/>
<text text-anchor="middle" x="1140.82" y="-37.57" font-family="Times,serif" font-size="14.00">1</text>
</g>
</g>
</svg>
