<?xml version="1.0" encoding="UTF-8" standalone="no"?>
<!DOCTYPE svg PUBLIC "-//W3C//DTD SVG 1.1//EN"
 "http://www.w3.org/Graphics/SVG/1.1/DTD/svg11.dtd">
<!-- Generated by graphviz version 2.43.0 (0)
 -->
<!-- Title: dai.EntityCornerGuard Pages: 1 -->
<svg width="4495pt" height="224pt"
 viewBox="0.00 0.00 4494.73 224.00" xmlns="http://www.w3.org/2000/svg" xmlns:xlink="http://www.w3.org/1999/xlink">
<g id="graph0" class="graph" transform="scale(1 1) rotate(0) translate(4 220)">
<title>dai.EntityCornerGuard</title>
<polygon fill="white" stroke="transparent" points="-4,4 -4,-220 4490.73,-220 4490.73,4 -4,4"/>
<!-- dai.EntityCornerGuard -->
<g id="node1" class="node">
<title>dai.EntityCornerGuard</title>
<ellipse fill="green" stroke="black" cx="2474.29" cy="-198" rx="117.78" ry="18"/>
<text text-anchor="middle" x="2474.29" y="-194.3" font-family="Times,serif" font-size="14.00">dai.EntityCornerGuard</text>
</g>
<!-- dai.AllocEntity -->
<g id="node2" class="node">
<title>dai.AllocEntity</title>
<g id="a_node2"><a xlink:href="dai.AllocEntity.svg" xlink:title="dai.AllocEntity">
<ellipse fill="green" stroke="black" cx="79.29" cy="-18" rx="79.09" ry="18"/>
<text text-anchor="middle" x="79.29" y="-14.3" font-family="Times,serif" font-size="14.00">dai.AllocEntity</text>
</a>
</g>
</g>
<!-- dai.EntityCornerGuard&#45;&gt;dai.AllocEntity -->
<g id="edge1" class="edge">
<title>dai.EntityCornerGuard&#45;&gt;dai.AllocEntity</title>
<path fill="none" stroke="black" d="M2359.48,-193.91C2021.95,-183.76 1004.04,-145.61 167.29,-36 160,-35.04 152.4,-33.86 144.85,-32.57"/>
<polygon fill="black" stroke="black" points="145.45,-29.12 134.99,-30.82 144.22,-36.01 145.45,-29.12"/>
<text text-anchor="middle" x="129.99" y="-34.62" font-family="Times,serif" font-size="14.00">1</text>
</g>
<!-- dai.AnimateEntity -->
<g id="node3" class="node">
<title>dai.AnimateEntity</title>
<g id="a_node3"><a xlink:href="dai.AnimateEntity.svg" xlink:title="dai.AnimateEntity">
<ellipse fill="green" stroke="black" cx="271.29" cy="-18" rx="94.78" ry="18"/>
<text text-anchor="middle" x="271.29" y="-14.3" font-family="Times,serif" font-size="14.00">dai.AnimateEntity</text>
</a>
</g>
</g>
<!-- dai.EntityCornerGuard&#45;&gt;dai.AnimateEntity -->
<g id="edge2" class="edge">
<title>dai.EntityCornerGuard&#45;&gt;dai.AnimateEntity</title>
<path fill="none" stroke="black" d="M2363.59,-191.85C2050.6,-176.57 1132.81,-126.8 375.29,-36 366.58,-34.96 357.49,-33.71 348.45,-32.37"/>
<polygon fill="black" stroke="black" points="348.72,-28.87 338.31,-30.82 347.67,-35.79 348.72,-28.87"/>
<text text-anchor="middle" x="333.31" y="-34.62" font-family="Times,serif" font-size="14.00">6</text>
</g>
<!-- dai.CreateEntityFromCurrentEntity -->
<g id="node4" class="node">
<title>dai.CreateEntityFromCurrentEntity</title>
<g id="a_node4"><a xlink:href="dai.CreateEntityFromCurrentEntity.svg" xlink:title="dai.CreateEntityFromCurrentEntity">
<ellipse fill="green" stroke="black" cx="562.29" cy="-18" rx="178.17" ry="18"/>
<text text-anchor="middle" x="562.29" y="-14.3" font-family="Times,serif" font-size="14.00">dai.CreateEntityFromCurrentEntity</text>
</a>
</g>
</g>
<!-- dai.EntityCornerGuard&#45;&gt;dai.CreateEntityFromCurrentEntity -->
<g id="edge3" class="edge">
<title>dai.EntityCornerGuard&#45;&gt;dai.CreateEntityFromCurrentEntity</title>
<path fill="none" stroke="black" d="M2376.52,-187.9C2060.23,-158.45 1064.25,-65.73 698.63,-31.69"/>
<polygon fill="black" stroke="black" points="698.8,-28.19 688.52,-30.75 698.15,-35.16 698.8,-28.19"/>
<text text-anchor="middle" x="683.52" y="-34.55" font-family="Times,serif" font-size="14.00">1</text>
</g>
<!-- dai.CreateEntityFromEntity -->
<g id="node5" class="node">
<title>dai.CreateEntityFromEntity</title>
<g id="a_node5"><a xlink:href="dai.CreateEntityFromEntity.svg" xlink:title="dai.CreateEntityFromEntity">
<ellipse fill="green" stroke="black" cx="900.29" cy="-18" rx="141.88" ry="18"/>
<text text-anchor="middle" x="900.29" y="-14.3" font-family="Times,serif" font-size="14.00">dai.CreateEntityFromEntity</text>
</a>
</g>
</g>
<!-- dai.EntityCornerGuard&#45;&gt;dai.CreateEntityFromEntity -->
<g id="edge4" class="edge">
<title>dai.EntityCornerGuard&#45;&gt;dai.CreateEntityFromEntity</title>
<path fill="none" stroke="black" d="M2382.86,-186.66C2111.26,-155.94 1309.67,-65.3 1012.67,-31.71"/>
<polygon fill="black" stroke="black" points="1012.65,-28.18 1002.32,-30.54 1011.86,-35.14 1012.65,-28.18"/>
<text text-anchor="middle" x="997.32" y="-34.34" font-family="Times,serif" font-size="14.00">1</text>
</g>
<!-- dai.DestroyEntity -->
<g id="node6" class="node">
<title>dai.DestroyEntity</title>
<g id="a_node6"><a xlink:href="dai.DestroyEntity.svg" xlink:title="dai.DestroyEntity">
<ellipse fill="green" stroke="black" cx="1153.29" cy="-18" rx="92.88" ry="18"/>
<text text-anchor="middle" x="1153.29" y="-14.3" font-family="Times,serif" font-size="14.00">dai.DestroyEntity</text>
</a>
</g>
</g>
<!-- dai.EntityCornerGuard&#45;&gt;dai.DestroyEntity -->
<g id="edge5" class="edge">
<title>dai.EntityCornerGuard&#45;&gt;dai.DestroyEntity</title>
<path fill="none" stroke="black" d="M2385.06,-186.26C2183.42,-161.77 1677.29,-99.02 1255.29,-36 1247.28,-34.8 1238.92,-33.5 1230.58,-32.16"/>
<polygon fill="black" stroke="black" points="1230.88,-28.67 1220.45,-30.53 1229.77,-35.58 1230.88,-28.67"/>
<text text-anchor="middle" x="1215.45" y="-34.33" font-family="Times,serif" font-size="14.00">2</text>
</g>
<!-- dai.EntityExplosionVariantsSpawner -->
<g id="node7" class="node">
<title>dai.EntityExplosionVariantsSpawner</title>
<g id="a_node7"><a xlink:href="dai.EntityExplosionVariantsSpawner.svg" xlink:title="dai.EntityExplosionVariantsSpawner">
<ellipse fill="green" stroke="black" cx="1445.29" cy="-18" rx="181.17" ry="18"/>
<text text-anchor="middle" x="1445.29" y="-14.3" font-family="Times,serif" font-size="14.00">dai.EntityExplosionVariantsSpawner</text>
</a>
</g>
</g>
<!-- dai.EntityCornerGuard&#45;&gt;dai.EntityExplosionVariantsSpawner -->
<g id="edge6" class="edge">
<title>dai.EntityCornerGuard&#45;&gt;dai.EntityExplosionVariantsSpawner</title>
<path fill="none" stroke="black" d="M2399.46,-184.06C2216.18,-152.35 1744.95,-70.84 1541.35,-35.62"/>
<polygon fill="black" stroke="black" points="1541.72,-32.13 1531.27,-33.87 1540.53,-39.03 1541.72,-32.13"/>
<text text-anchor="middle" x="1526.27" y="-37.67" font-family="Times,serif" font-size="14.00">1</text>
</g>
<!-- dai.GetDistanceToPlayerX -->
<g id="node8" class="node">
<title>dai.GetDistanceToPlayerX</title>
<g id="a_node8"><a xlink:href="dai.GetDistanceToPlayerX.svg" xlink:title="dai.GetDistanceToPlayerX">
<ellipse fill="green" stroke="black" cx="1776.29" cy="-18" rx="131.88" ry="18"/>
<text text-anchor="middle" x="1776.29" y="-14.3" font-family="Times,serif" font-size="14.00">dai.GetDistanceToPlayerX</text>
</a>
</g>
</g>
<!-- dai.EntityCornerGuard&#45;&gt;dai.GetDistanceToPlayerX -->
<g id="edge7" class="edge">
<title>dai.EntityCornerGuard&#45;&gt;dai.GetDistanceToPlayerX</title>
<path fill="none" stroke="black" d="M2416.58,-182.28C2288.96,-149.74 1983.24,-71.77 1845.57,-36.67"/>
<polygon fill="black" stroke="black" points="1846.11,-33.19 1835.55,-34.11 1844.38,-39.97 1846.11,-33.19"/>
<text text-anchor="middle" x="1830.55" y="-37.91" font-family="Times,serif" font-size="14.00">6</text>
</g>
<!-- dai.GetSideToPlayer -->
<g id="node9" class="node">
<title>dai.GetSideToPlayer</title>
<g id="a_node9"><a xlink:href="dai.GetSideToPlayer.svg" xlink:title="dai.GetSideToPlayer">
<ellipse fill="green" stroke="black" cx="2031.29" cy="-18" rx="105.08" ry="18"/>
<text text-anchor="middle" x="2031.29" y="-14.3" font-family="Times,serif" font-size="14.00">dai.GetSideToPlayer</text>
</a>
</g>
</g>
<!-- dai.EntityCornerGuard&#45;&gt;dai.GetSideToPlayer -->
<g id="edge8" class="edge">
<title>dai.EntityCornerGuard&#45;&gt;dai.GetSideToPlayer</title>
<path fill="none" stroke="black" d="M2434.59,-181.05C2353.32,-148.39 2168.26,-74.03 2079.94,-38.55"/>
<polygon fill="black" stroke="black" points="2081.01,-35.21 2070.43,-34.73 2078.4,-41.7 2081.01,-35.21"/>
<text text-anchor="middle" x="2065.43" y="-38.53" font-family="Times,serif" font-size="14.00">6</text>
</g>
<!-- dai.InitializeEntity -->
<g id="node10" class="node">
<title>dai.InitializeEntity</title>
<g id="a_node10"><a xlink:href="dai.InitializeEntity.svg" xlink:title="dai.InitializeEntity">
<ellipse fill="green" stroke="black" cx="2251.29" cy="-18" rx="96.68" ry="18"/>
<text text-anchor="middle" x="2251.29" y="-14.3" font-family="Times,serif" font-size="14.00">dai.InitializeEntity</text>
</a>
</g>
</g>
<!-- dai.EntityCornerGuard&#45;&gt;dai.InitializeEntity -->
<g id="edge9" class="edge">
<title>dai.EntityCornerGuard&#45;&gt;dai.InitializeEntity</title>
<path fill="none" stroke="black" d="M2453.31,-180.25C2413.3,-148.32 2326.02,-78.65 2280.39,-42.23"/>
<polygon fill="black" stroke="black" points="2282.38,-39.33 2272.38,-35.83 2278.01,-44.8 2282.38,-39.33"/>
<text text-anchor="middle" x="2267.38" y="-39.63" font-family="Times,serif" font-size="14.00">1</text>
</g>
<!-- dai.PlaySfxPositional -->
<g id="node11" class="node">
<title>dai.PlaySfxPositional</title>
<g id="a_node11"><a xlink:href="dai.PlaySfxPositional.svg" xlink:title="dai.PlaySfxPositional">
<ellipse fill="green" stroke="black" cx="2474.29" cy="-18" rx="108.58" ry="18"/>
<text text-anchor="middle" x="2474.29" y="-14.3" font-family="Times,serif" font-size="14.00">dai.PlaySfxPositional</text>
</a>
</g>
</g>
<!-- dai.EntityCornerGuard&#45;&gt;dai.PlaySfxPositional -->
<g id="edge10" class="edge">
<title>dai.EntityCornerGuard&#45;&gt;dai.PlaySfxPositional</title>
<path fill="none" stroke="black" d="M2474.29,-179.93C2474.29,-148.97 2474.29,-83.3 2474.29,-46.13"/>
<polygon fill="black" stroke="black" points="2477.79,-46.02 2474.29,-36.02 2470.79,-46.02 2477.79,-46.02"/>
<text text-anchor="middle" x="2469.29" y="-39.82" font-family="Times,serif" font-size="14.00">4</text>
</g>
<!-- dai.Random -->
<g id="node12" class="node">
<title>dai.Random</title>
<g id="a_node12"><a xlink:href="dai.Random.svg" xlink:title="dai.Random">
<ellipse fill="green" stroke="black" cx="2666.29" cy="-18" rx="65.79" ry="18"/>
<text text-anchor="middle" x="2666.29" y="-14.3" font-family="Times,serif" font-size="14.00">dai.Random</text>
</a>
</g>
</g>
<!-- dai.EntityCornerGuard&#45;&gt;dai.Random -->
<g id="edge11" class="edge">
<title>dai.EntityCornerGuard&#45;&gt;dai.Random</title>
<path fill="none" stroke="black" d="M2492.7,-179.93C2527.28,-147.87 2601.99,-78.62 2641.16,-42.3"/>
<polygon fill="black" stroke="black" points="2643.54,-44.86 2648.5,-35.5 2638.78,-39.73 2643.54,-44.86"/>
<text text-anchor="middle" x="2643.5" y="-39.3" font-family="Times,serif" font-size="14.00">3</text>
</g>
<!-- dai.SetStep -->
<g id="node13" class="node">
<title>dai.SetStep</title>
<g id="a_node13"><a xlink:href="dai.SetStep.svg" xlink:title="dai.SetStep">
<ellipse fill="green" stroke="black" cx="2815.29" cy="-18" rx="64.99" ry="18"/>
<text text-anchor="middle" x="2815.29" y="-14.3" font-family="Times,serif" font-size="14.00">dai.SetStep</text>
</a>
</g>
</g>
<!-- dai.EntityCornerGuard&#45;&gt;dai.SetStep -->
<g id="edge12" class="edge">
<title>dai.EntityCornerGuard&#45;&gt;dai.SetStep</title>
<path fill="none" stroke="black" d="M2505.76,-180.57C2568.59,-147.78 2709.37,-74.29 2777.25,-38.86"/>
<polygon fill="black" stroke="black" points="2779.08,-41.85 2786.33,-34.12 2775.85,-35.64 2779.08,-41.85"/>
<text text-anchor="middle" x="2781.33" y="-37.92" font-family="Times,serif" font-size="14.00">7</text>
</g>
<!-- dai.SetSubStep -->
<g id="node14" class="node">
<title>dai.SetSubStep</title>
<g id="a_node14"><a xlink:href="dai.SetSubStep.svg" xlink:title="dai.SetSubStep">
<ellipse fill="green" stroke="black" cx="2981.29" cy="-18" rx="83.39" ry="18"/>
<text text-anchor="middle" x="2981.29" y="-14.3" font-family="Times,serif" font-size="14.00">dai.SetSubStep</text>
</a>
</g>
</g>
<!-- dai.EntityCornerGuard&#45;&gt;dai.SetSubStep -->
<g id="edge13" class="edge">
<title>dai.EntityCornerGuard&#45;&gt;dai.SetSubStep</title>
<path fill="none" stroke="black" d="M2519.29,-181.2C2613.45,-148.14 2830.78,-71.84 2930.1,-36.97"/>
<polygon fill="black" stroke="black" points="2931.34,-40.25 2939.62,-33.63 2929.02,-33.64 2931.34,-40.25"/>
<text text-anchor="middle" x="2934.62" y="-37.43" font-family="Times,serif" font-size="14.00">1</text>
</g>
<!-- dai.UnkCollisionFunc2 -->
<g id="node15" class="node">
<title>dai.UnkCollisionFunc2</title>
<g id="a_node15"><a xlink:href="dai.UnkCollisionFunc2.svg" xlink:title="dai.UnkCollisionFunc2">
<ellipse fill="green" stroke="black" cx="3198.29" cy="-18" rx="115.88" ry="18"/>
<text text-anchor="middle" x="3198.29" y="-14.3" font-family="Times,serif" font-size="14.00">dai.UnkCollisionFunc2</text>
</a>
</g>
</g>
<!-- dai.EntityCornerGuard&#45;&gt;dai.UnkCollisionFunc2 -->
<g id="edge14" class="edge">
<title>dai.EntityCornerGuard&#45;&gt;dai.UnkCollisionFunc2</title>
<path fill="none" stroke="black" d="M2533.54,-182.43C2666.45,-149.76 2987.8,-70.75 3129.36,-35.95"/>
<polygon fill="black" stroke="black" points="3130.37,-39.3 3139.24,-33.52 3128.7,-32.51 3130.37,-39.3"/>
<text text-anchor="middle" x="3134.24" y="-37.32" font-family="Times,serif" font-size="14.00">3</text>
</g>
<!-- dai.UnkCollisionFunc3 -->
<g id="node16" class="node">
<title>dai.UnkCollisionFunc3</title>
<g id="a_node16"><a xlink:href="dai.UnkCollisionFunc3.svg" xlink:title="dai.UnkCollisionFunc3">
<ellipse fill="green" stroke="black" cx="3447.29" cy="-18" rx="115.88" ry="18"/>
<text text-anchor="middle" x="3447.29" y="-14.3" font-family="Times,serif" font-size="14.00">dai.UnkCollisionFunc3</text>
</a>
</g>
</g>
<!-- dai.EntityCornerGuard&#45;&gt;dai.UnkCollisionFunc3 -->
<g id="edge15" class="edge">
<title>dai.EntityCornerGuard&#45;&gt;dai.UnkCollisionFunc3</title>
<path fill="none" stroke="black" d="M2546.63,-183.77C2723.83,-151.35 3178.72,-68.13 3365.44,-33.97"/>
<polygon fill="black" stroke="black" points="3366.26,-37.38 3375.47,-32.14 3365,-30.5 3366.26,-37.38"/>
<text text-anchor="middle" x="3370.47" y="-35.94" font-family="Times,serif" font-size="14.00">1</text>
</g>
<!-- dai.UnkPolyFunc2 -->
<g id="node17" class="node">
<title>dai.UnkPolyFunc2</title>
<g id="a_node17"><a xlink:href="dai.UnkPolyFunc2.svg" xlink:title="dai.UnkPolyFunc2">
<ellipse fill="green" stroke="black" cx="3676.29" cy="-18" rx="94.78" ry="18"/>
<text text-anchor="middle" x="3676.29" y="-14.3" font-family="Times,serif" font-size="14.00">dai.UnkPolyFunc2</text>
</a>
</g>
</g>
<!-- dai.EntityCornerGuard&#45;&gt;dai.UnkPolyFunc2 -->
<g id="edge16" class="edge">
<title>dai.EntityCornerGuard&#45;&gt;dai.UnkPolyFunc2</title>
<path fill="none" stroke="black" d="M2557.7,-185.25C2741.23,-159.28 3193.9,-94.66 3572.29,-36 3580.48,-34.73 3589.02,-33.38 3597.54,-32.01"/>
<polygon fill="black" stroke="black" points="3598.19,-35.45 3607.51,-30.41 3597.08,-28.54 3598.19,-35.45"/>
<text text-anchor="middle" x="3602.51" y="-34.21" font-family="Times,serif" font-size="14.00">1</text>
</g>
<!-- dai.func_us_801D1010 -->
<g id="node18" class="node">
<title>dai.func_us_801D1010</title>
<g id="a_node18"><a xlink:href="dai.func_us_801D1010.svg" xlink:title="dai.func_us_801D1010">
<ellipse fill="green" stroke="black" cx="3905.29" cy="-18" rx="115.88" ry="18"/>
<text text-anchor="middle" x="3905.29" y="-14.3" font-family="Times,serif" font-size="14.00">dai.func_us_801D1010</text>
</a>
</g>
</g>
<!-- dai.EntityCornerGuard&#45;&gt;dai.func_us_801D1010 -->
<g id="edge17" class="edge">
<title>dai.EntityCornerGuard&#45;&gt;dai.func_us_801D1010</title>
<path fill="none" stroke="black" d="M2564.2,-186.31C2776.12,-161.03 3323.5,-95.22 3780.29,-36 3790.5,-34.68 3801.17,-33.27 3811.79,-31.85"/>
<polygon fill="black" stroke="black" points="3812.49,-35.28 3821.94,-30.48 3811.56,-28.35 3812.49,-35.28"/>
<text text-anchor="middle" x="3816.94" y="-34.28" font-family="Times,serif" font-size="14.00">3</text>
</g>
<!-- dai.func_us_801D1084 -->
<g id="node19" class="node">
<title>dai.func_us_801D1084</title>
<g id="a_node19"><a xlink:href="dai.func_us_801D1084.svg" xlink:title="dai.func_us_801D1084">
<ellipse fill="green" stroke="black" cx="4154.29" cy="-18" rx="115.88" ry="18"/>
<text text-anchor="middle" x="4154.29" y="-14.3" font-family="Times,serif" font-size="14.00">dai.func_us_801D1084</text>
</a>
</g>
</g>
<!-- dai.EntityCornerGuard&#45;&gt;dai.func_us_801D1084 -->
<g id="edge18" class="edge">
<title>dai.EntityCornerGuard&#45;&gt;dai.func_us_801D1084</title>
<path fill="none" stroke="black" d="M2572.27,-188C2817.94,-165.19 3479.89,-102.19 4030.29,-36 4040.51,-34.77 4051.19,-33.42 4061.82,-32.02"/>
<polygon fill="black" stroke="black" points="4062.51,-35.46 4071.97,-30.68 4061.59,-28.52 4062.51,-35.46"/>
<text text-anchor="middle" x="4066.97" y="-34.48" font-family="Times,serif" font-size="14.00">1</text>
</g>
<!-- dra.AllocPrimitives -->
<g id="node20" class="node">
<title>dra.AllocPrimitives</title>
<g id="a_node20"><a xlink:href="dra.AllocPrimitives.svg" xlink:title="dra.AllocPrimitives">
<ellipse fill="green" stroke="black" cx="4387.29" cy="-18" rx="99.38" ry="18"/>
<text text-anchor="middle" x="4387.29" y="-14.3" font-family="Times,serif" font-size="14.00">dra.AllocPrimitives</text>
</a>
</g>
</g>
<!-- dai.EntityCornerGuard&#45;&gt;dra.AllocPrimitives -->
<g id="edge19" class="edge">
<title>dai.EntityCornerGuard&#45;&gt;dra.AllocPrimitives</title>
<path fill="none" stroke="black" d="M2580.1,-190.06C2858.78,-171.23 3635.86,-115.25 4279.29,-36 4288.29,-34.89 4297.68,-33.61 4307.01,-32.25"/>
<polygon fill="black" stroke="black" points="4307.72,-35.68 4317.09,-30.75 4306.69,-28.76 4307.72,-35.68"/>
<text text-anchor="middle" x="4312.09" y="-34.55" font-family="Times,serif" font-size="14.00">1</text>
</g>
</g>
</svg>
