<?xml version="1.0" encoding="UTF-8" standalone="no"?>
<!DOCTYPE svg PUBLIC "-//W3C//DTD SVG 1.1//EN"
 "http://www.w3.org/Graphics/SVG/1.1/DTD/svg11.dtd">
<!-- Generated by graphviz version 2.43.0 (0)
 -->
<!-- Title: dai.CutsceneUnk3 Pages: 1 -->
<svg width="199pt" height="404pt"
 viewBox="0.00 0.00 199.08 404.00" xmlns="http://www.w3.org/2000/svg" xmlns:xlink="http://www.w3.org/1999/xlink">
<g id="graph0" class="graph" transform="scale(1 1) rotate(0) translate(4 400)">
<title>dai.CutsceneUnk3</title>
<polygon fill="white" stroke="transparent" points="-4,4 -4,-400 195.08,-400 195.08,4 -4,4"/>
<!-- dai.CutsceneUnk3 -->
<g id="node1" class="node">
<title>dai.CutsceneUnk3</title>
<ellipse fill="green" stroke="black" cx="95.54" cy="-198" rx="95.58" ry="18"/>
<text text-anchor="middle" x="95.54" y="-194.3" font-family="Times,serif" font-size="14.00">dai.CutsceneUnk3</text>
</g>
<!-- ClearImage -->
<g id="node2" class="node">
<title>ClearImage</title>
<g id="a_node2"><a xlink:href="ClearImage.svg" xlink:title="ClearImage">
<ellipse fill="lightblue" stroke="black" cx="95.54" cy="-18" rx="64.19" ry="18"/>
<text text-anchor="middle" x="95.54" y="-14.3" font-family="Times,serif" font-size="14.00">ClearImage</text>
</a>
</g>
</g>
<!-- dai.CutsceneUnk3&#45;&gt;ClearImage -->
<g id="edge1" class="edge">
<title>dai.CutsceneUnk3&#45;&gt;ClearImage</title>
<path fill="none" stroke="black" d="M95.54,-179.93C95.54,-148.97 95.54,-83.3 95.54,-46.13"/>
<polygon fill="black" stroke="black" points="99.04,-46.02 95.54,-36.02 92.04,-46.02 99.04,-46.02"/>
<text text-anchor="middle" x="90.54" y="-39.82" font-family="Times,serif" font-size="14.00">1</text>
</g>
<!-- dai.CutsceneUnk4 -->
<g id="node3" class="node">
<title>dai.CutsceneUnk4</title>
<g id="a_node3"><a xlink:href="dai.CutsceneUnk4.svg" xlink:title="dai.CutsceneUnk4">
<ellipse fill="green" stroke="black" cx="95.54" cy="-378" rx="95.58" ry="18"/>
<text text-anchor="middle" x="95.54" y="-374.3" font-family="Times,serif" font-size="14.00">dai.CutsceneUnk4</text>
</a>
</g>
</g>
<!-- dai.CutsceneUnk4&#45;&gt;dai.CutsceneUnk3 -->
<g id="edge2" class="edge">
<title>dai.CutsceneUnk4&#45;&gt;dai.CutsceneUnk3</title>
<path fill="none" stroke="black" d="M95.54,-359.93C95.54,-328.97 95.54,-263.3 95.54,-226.13"/>
<polygon fill="black" stroke="black" points="99.04,-226.02 95.54,-216.02 92.04,-226.02 99.04,-226.02"/>
<text text-anchor="middle" x="90.54" y="-348.73" font-family="Times,serif" font-size="14.00">1</text>
</g>
</g>
</svg>
