<?xml version="1.0" encoding="UTF-8" standalone="no"?>
<!DOCTYPE svg PUBLIC "-//W3C//DTD SVG 1.1//EN"
 "http://www.w3.org/Graphics/SVG/1.1/DTD/svg11.dtd">
<!-- Generated by graphviz version 2.43.0 (0)
 -->
<!-- Title: dai.GetAngleBetweenEntitiesShifted Pages: 1 -->
<svg width="558pt" height="404pt"
 viewBox="0.00 0.00 557.83 404.00" xmlns="http://www.w3.org/2000/svg" xmlns:xlink="http://www.w3.org/1999/xlink">
<g id="graph0" class="graph" transform="scale(1 1) rotate(0) translate(4 400)">
<title>dai.GetAngleBetweenEntitiesShifted</title>
<polygon fill="white" stroke="transparent" points="-4,4 -4,-400 553.83,-400 553.83,4 -4,4"/>
<!-- dai.GetAngleBetweenEntitiesShifted -->
<g id="node1" class="node">
<title>dai.GetAngleBetweenEntitiesShifted</title>
<ellipse fill="green" stroke="black" cx="298.64" cy="-198" rx="181.17" ry="18"/>
<text text-anchor="middle" x="298.64" y="-194.3" font-family="Times,serif" font-size="14.00">dai.GetAngleBetweenEntitiesShifted</text>
</g>
<!-- dai.Ratan2Shifted -->
<g id="node2" class="node">
<title>dai.Ratan2Shifted</title>
<g id="a_node2"><a xlink:href="dai.Ratan2Shifted.svg" xlink:title="dai.Ratan2Shifted">
<ellipse fill="green" stroke="black" cx="298.64" cy="-18" rx="94.78" ry="18"/>
<text text-anchor="middle" x="298.64" y="-14.3" font-family="Times,serif" font-size="14.00">dai.Ratan2Shifted</text>
</a>
</g>
</g>
<!-- dai.GetAngleBetweenEntitiesShifted&#45;&gt;dai.Ratan2Shifted -->
<g id="edge1" class="edge">
<title>dai.GetAngleBetweenEntitiesShifted&#45;&gt;dai.Ratan2Shifted</title>
<path fill="none" stroke="black" d="M298.64,-179.93C298.64,-148.97 298.64,-83.3 298.64,-46.13"/>
<polygon fill="black" stroke="black" points="302.14,-46.02 298.64,-36.02 295.14,-46.02 302.14,-46.02"/>
<text text-anchor="middle" x="293.64" y="-39.82" font-family="Times,serif" font-size="14.00">1</text>
</g>
<!-- dai.EntitySkelerangBoomerang -->
<g id="node3" class="node">
<title>dai.EntitySkelerangBoomerang</title>
<g id="a_node3"><a xlink:href="dai.EntitySkelerangBoomerang.svg" xlink:title="dai.EntitySkelerangBoomerang">
<ellipse fill="green" stroke="black" cx="156.64" cy="-378" rx="156.77" ry="18"/>
<text text-anchor="middle" x="156.64" y="-374.3" font-family="Times,serif" font-size="14.00">dai.EntitySkelerangBoomerang</text>
</a>
</g>
</g>
<!-- dai.EntitySkelerangBoomerang&#45;&gt;dai.GetAngleBetweenEntitiesShifted -->
<g id="edge2" class="edge">
<title>dai.EntitySkelerangBoomerang&#45;&gt;dai.GetAngleBetweenEntitiesShifted</title>
<path fill="none" stroke="black" d="M170.25,-359.93C195.38,-328.43 249.15,-261.03 278.5,-224.24"/>
<polygon fill="black" stroke="black" points="281.56,-226.02 285.06,-216.02 276.09,-221.65 281.56,-226.02"/>
<text text-anchor="middle" x="165.25" y="-348.73" font-family="Times,serif" font-size="14.00">1</text>
</g>
<!-- dai.EntitySpikesDust -->
<g id="node4" class="node">
<title>dai.EntitySpikesDust</title>
<g id="a_node4"><a xlink:href="dai.EntitySpikesDust.svg" xlink:title="dai.EntitySpikesDust">
<ellipse fill="green" stroke="black" cx="440.64" cy="-378" rx="109.38" ry="18"/>
<text text-anchor="middle" x="440.64" y="-374.3" font-family="Times,serif" font-size="14.00">dai.EntitySpikesDust</text>
</a>
</g>
</g>
<!-- dai.EntitySpikesDust&#45;&gt;dai.GetAngleBetweenEntitiesShifted -->
<g id="edge3" class="edge">
<title>dai.EntitySpikesDust&#45;&gt;dai.GetAngleBetweenEntitiesShifted</title>
<path fill="none" stroke="black" d="M427.02,-359.93C401.89,-328.43 348.12,-261.03 318.77,-224.24"/>
<polygon fill="black" stroke="black" points="321.18,-221.65 312.21,-216.02 315.71,-226.02 321.18,-221.65"/>
<text text-anchor="middle" x="422.02" y="-348.73" font-family="Times,serif" font-size="14.00">1</text>
</g>
</g>
</svg>
