<?xml version="1.0" encoding="UTF-8" standalone="no"?>
<!DOCTYPE svg PUBLIC "-//W3C//DTD SVG 1.1//EN"
 "http://www.w3.org/Graphics/SVG/1.1/DTD/svg11.dtd">
<!-- Generated by graphviz version 2.43.0 (0)
 -->
<!-- Title: dai.EntityBlueRaven Pages: 1 -->
<svg width="2448pt" height="224pt"
 viewBox="0.00 0.00 2448.29 224.00" xmlns="http://www.w3.org/2000/svg" xmlns:xlink="http://www.w3.org/1999/xlink">
<g id="graph0" class="graph" transform="scale(1 1) rotate(0) translate(4 220)">
<title>dai.EntityBlueRaven</title>
<polygon fill="white" stroke="transparent" points="-4,4 -4,-220 2444.29,-220 2444.29,4 -4,4"/>
<!-- dai.EntityBlueRaven -->
<g id="node1" class="node">
<title>dai.EntityBlueRaven</title>
<ellipse fill="green" stroke="black" cx="1303.29" cy="-198" rx="106.68" ry="18"/>
<text text-anchor="middle" x="1303.29" y="-194.3" font-family="Times,serif" font-size="14.00">dai.EntityBlueRaven</text>
</g>
<!-- dai.AllocEntity -->
<g id="node2" class="node">
<title>dai.AllocEntity</title>
<g id="a_node2"><a xlink:href="dai.AllocEntity.svg" xlink:title="dai.AllocEntity">
<ellipse fill="green" stroke="black" cx="79.29" cy="-18" rx="79.09" ry="18"/>
<text text-anchor="middle" x="79.29" y="-14.3" font-family="Times,serif" font-size="14.00">dai.AllocEntity</text>
</a>
</g>
</g>
<!-- dai.EntityBlueRaven&#45;&gt;dai.AllocEntity -->
<g id="edge1" class="edge">
<title>dai.EntityBlueRaven&#45;&gt;dai.AllocEntity</title>
<path fill="none" stroke="black" d="M1220.05,-186.65C1031.97,-162.96 559.97,-101.71 167.29,-36 160.59,-34.88 153.61,-33.64 146.65,-32.37"/>
<polygon fill="black" stroke="black" points="146.97,-28.87 136.5,-30.48 145.69,-35.75 146.97,-28.87"/>
<text text-anchor="middle" x="131.5" y="-34.28" font-family="Times,serif" font-size="14.00">1</text>
</g>
<!-- dai.AnimateEntity -->
<g id="node3" class="node">
<title>dai.AnimateEntity</title>
<g id="a_node3"><a xlink:href="dai.AnimateEntity.svg" xlink:title="dai.AnimateEntity">
<ellipse fill="green" stroke="black" cx="271.29" cy="-18" rx="94.78" ry="18"/>
<text text-anchor="middle" x="271.29" y="-14.3" font-family="Times,serif" font-size="14.00">dai.AnimateEntity</text>
</a>
</g>
</g>
<!-- dai.EntityBlueRaven&#45;&gt;dai.AnimateEntity -->
<g id="edge2" class="edge">
<title>dai.EntityBlueRaven&#45;&gt;dai.AnimateEntity</title>
<path fill="none" stroke="black" d="M1231.54,-184.62C1044.4,-152.35 542.52,-65.78 348.94,-32.39"/>
<polygon fill="black" stroke="black" points="349.3,-28.9 338.85,-30.65 348.11,-35.8 349.3,-28.9"/>
<text text-anchor="middle" x="333.85" y="-34.45" font-family="Times,serif" font-size="14.00">4</text>
</g>
<!-- dai.CreateEntityFromEntity -->
<g id="node4" class="node">
<title>dai.CreateEntityFromEntity</title>
<g id="a_node4"><a xlink:href="dai.CreateEntityFromEntity.svg" xlink:title="dai.CreateEntityFromEntity">
<ellipse fill="green" stroke="black" cx="526.29" cy="-18" rx="141.88" ry="18"/>
<text text-anchor="middle" x="526.29" y="-14.3" font-family="Times,serif" font-size="14.00">dai.CreateEntityFromEntity</text>
</a>
</g>
</g>
<!-- dai.EntityBlueRaven&#45;&gt;dai.CreateEntityFromEntity -->
<g id="edge3" class="edge">
<title>dai.EntityBlueRaven&#45;&gt;dai.CreateEntityFromEntity</title>
<path fill="none" stroke="black" d="M1242.65,-183.11C1102.24,-150.94 755.13,-71.42 601.51,-36.23"/>
<polygon fill="black" stroke="black" points="602.2,-32.8 591.68,-33.98 600.64,-39.62 602.2,-32.8"/>
<text text-anchor="middle" x="586.68" y="-37.78" font-family="Times,serif" font-size="14.00">1</text>
</g>
<!-- dai.DestroyEntity -->
<g id="node5" class="node">
<title>dai.DestroyEntity</title>
<g id="a_node5"><a xlink:href="dai.DestroyEntity.svg" xlink:title="dai.DestroyEntity">
<ellipse fill="green" stroke="black" cx="779.29" cy="-18" rx="92.88" ry="18"/>
<text text-anchor="middle" x="779.29" y="-14.3" font-family="Times,serif" font-size="14.00">dai.DestroyEntity</text>
</a>
</g>
</g>
<!-- dai.EntityBlueRaven&#45;&gt;dai.DestroyEntity -->
<g id="edge4" class="edge">
<title>dai.EntityBlueRaven&#45;&gt;dai.DestroyEntity</title>
<path fill="none" stroke="black" d="M1258.16,-181.67C1161.85,-148.95 936.52,-72.41 833.02,-37.25"/>
<polygon fill="black" stroke="black" points="833.98,-33.88 823.39,-33.98 831.73,-40.51 833.98,-33.88"/>
<text text-anchor="middle" x="818.39" y="-37.78" font-family="Times,serif" font-size="14.00">1</text>
</g>
<!-- dai.GetDistanceToPlayerX -->
<g id="node6" class="node">
<title>dai.GetDistanceToPlayerX</title>
<g id="a_node6"><a xlink:href="dai.GetDistanceToPlayerX.svg" xlink:title="dai.GetDistanceToPlayerX">
<ellipse fill="green" stroke="black" cx="1022.29" cy="-18" rx="131.88" ry="18"/>
<text text-anchor="middle" x="1022.29" y="-14.3" font-family="Times,serif" font-size="14.00">dai.GetDistanceToPlayerX</text>
</a>
</g>
</g>
<!-- dai.EntityBlueRaven&#45;&gt;dai.GetDistanceToPlayerX -->
<g id="edge5" class="edge">
<title>dai.EntityBlueRaven&#45;&gt;dai.GetDistanceToPlayerX</title>
<path fill="none" stroke="black" d="M1277.11,-180.41C1226.41,-148.3 1114.82,-77.61 1057.62,-41.38"/>
<polygon fill="black" stroke="black" points="1059.24,-38.26 1048.92,-35.87 1055.5,-44.18 1059.24,-38.26"/>
<text text-anchor="middle" x="1043.92" y="-39.67" font-family="Times,serif" font-size="14.00">1</text>
</g>
<!-- dai.GetDistanceToPlayerY -->
<g id="node7" class="node">
<title>dai.GetDistanceToPlayerY</title>
<g id="a_node7"><a xlink:href="dai.GetDistanceToPlayerY.svg" xlink:title="dai.GetDistanceToPlayerY">
<ellipse fill="green" stroke="black" cx="1303.29" cy="-18" rx="131.08" ry="18"/>
<text text-anchor="middle" x="1303.29" y="-14.3" font-family="Times,serif" font-size="14.00">dai.GetDistanceToPlayerY</text>
</a>
</g>
</g>
<!-- dai.EntityBlueRaven&#45;&gt;dai.GetDistanceToPlayerY -->
<g id="edge6" class="edge">
<title>dai.EntityBlueRaven&#45;&gt;dai.GetDistanceToPlayerY</title>
<path fill="none" stroke="black" d="M1303.29,-179.93C1303.29,-148.97 1303.29,-83.3 1303.29,-46.13"/>
<polygon fill="black" stroke="black" points="1306.79,-46.02 1303.29,-36.02 1299.79,-46.02 1306.79,-46.02"/>
<text text-anchor="middle" x="1298.29" y="-39.82" font-family="Times,serif" font-size="14.00">2</text>
</g>
<!-- dai.GetSideToPlayer -->
<g id="node8" class="node">
<title>dai.GetSideToPlayer</title>
<g id="a_node8"><a xlink:href="dai.GetSideToPlayer.svg" xlink:title="dai.GetSideToPlayer">
<ellipse fill="green" stroke="black" cx="1558.29" cy="-18" rx="105.08" ry="18"/>
<text text-anchor="middle" x="1558.29" y="-14.3" font-family="Times,serif" font-size="14.00">dai.GetSideToPlayer</text>
</a>
</g>
</g>
<!-- dai.EntityBlueRaven&#45;&gt;dai.GetSideToPlayer -->
<g id="edge7" class="edge">
<title>dai.EntityBlueRaven&#45;&gt;dai.GetSideToPlayer</title>
<path fill="none" stroke="black" d="M1327.28,-180.25C1373.34,-148.1 1474.19,-77.71 1526.06,-41.5"/>
<polygon fill="black" stroke="black" points="1528.36,-44.17 1534.55,-35.57 1524.35,-38.43 1528.36,-44.17"/>
<text text-anchor="middle" x="1529.55" y="-39.37" font-family="Times,serif" font-size="14.00">2</text>
</g>
<!-- dai.InitializeEntity -->
<g id="node9" class="node">
<title>dai.InitializeEntity</title>
<g id="a_node9"><a xlink:href="dai.InitializeEntity.svg" xlink:title="dai.InitializeEntity">
<ellipse fill="green" stroke="black" cx="1778.29" cy="-18" rx="96.68" ry="18"/>
<text text-anchor="middle" x="1778.29" y="-14.3" font-family="Times,serif" font-size="14.00">dai.InitializeEntity</text>
</a>
</g>
</g>
<!-- dai.EntityBlueRaven&#45;&gt;dai.InitializeEntity -->
<g id="edge8" class="edge">
<title>dai.EntityBlueRaven&#45;&gt;dai.InitializeEntity</title>
<path fill="none" stroke="black" d="M1345.03,-181.36C1432.16,-148.71 1633.12,-73.4 1727.54,-38.02"/>
<polygon fill="black" stroke="black" points="1729.02,-41.2 1737.16,-34.41 1726.57,-34.65 1729.02,-41.2"/>
<text text-anchor="middle" x="1732.16" y="-38.21" font-family="Times,serif" font-size="14.00">1</text>
</g>
<!-- dai.MoveEntity -->
<g id="node10" class="node">
<title>dai.MoveEntity</title>
<g id="a_node10"><a xlink:href="dai.MoveEntity.svg" xlink:title="dai.MoveEntity">
<ellipse fill="green" stroke="black" cx="1975.29" cy="-18" rx="81.79" ry="18"/>
<text text-anchor="middle" x="1975.29" y="-14.3" font-family="Times,serif" font-size="14.00">dai.MoveEntity</text>
</a>
</g>
</g>
<!-- dai.EntityBlueRaven&#45;&gt;dai.MoveEntity -->
<g id="edge9" class="edge">
<title>dai.EntityBlueRaven&#45;&gt;dai.MoveEntity</title>
<path fill="none" stroke="black" d="M1358,-182.51C1482.45,-149.55 1785.93,-69.16 1915.29,-34.89"/>
<polygon fill="black" stroke="black" points="1916.27,-38.26 1925.04,-32.31 1914.47,-31.49 1916.27,-38.26"/>
<text text-anchor="middle" x="1920.04" y="-36.11" font-family="Times,serif" font-size="14.00">2</text>
</g>
<!-- dai.PlaySfxPositional -->
<g id="node11" class="node">
<title>dai.PlaySfxPositional</title>
<g id="a_node11"><a xlink:href="dai.PlaySfxPositional.svg" xlink:title="dai.PlaySfxPositional">
<ellipse fill="green" stroke="black" cx="2183.29" cy="-18" rx="108.58" ry="18"/>
<text text-anchor="middle" x="2183.29" y="-14.3" font-family="Times,serif" font-size="14.00">dai.PlaySfxPositional</text>
</a>
</g>
</g>
<!-- dai.EntityBlueRaven&#45;&gt;dai.PlaySfxPositional -->
<g id="edge10" class="edge">
<title>dai.EntityBlueRaven&#45;&gt;dai.PlaySfxPositional</title>
<path fill="none" stroke="black" d="M1368.72,-183.77C1528.45,-151.46 1937.66,-68.68 2107.57,-34.32"/>
<polygon fill="black" stroke="black" points="2108.33,-37.73 2117.44,-32.32 2106.94,-30.87 2108.33,-37.73"/>
<text text-anchor="middle" x="2112.44" y="-36.12" font-family="Times,serif" font-size="14.00">2</text>
</g>
<!-- dai.SetStep -->
<g id="node12" class="node">
<title>dai.SetStep</title>
<g id="a_node12"><a xlink:href="dai.SetStep.svg" xlink:title="dai.SetStep">
<ellipse fill="green" stroke="black" cx="2375.29" cy="-18" rx="64.99" ry="18"/>
<text text-anchor="middle" x="2375.29" y="-14.3" font-family="Times,serif" font-size="14.00">dai.SetStep</text>
</a>
</g>
</g>
<!-- dai.EntityBlueRaven&#45;&gt;dai.SetStep -->
<g id="edge11" class="edge">
<title>dai.EntityBlueRaven&#45;&gt;dai.SetStep</title>
<path fill="none" stroke="black" d="M1382.85,-185.98C1552.33,-162.12 1961.32,-102.4 2301.29,-36 2306.63,-34.96 2312.17,-33.81 2317.7,-32.62"/>
<polygon fill="black" stroke="black" points="2318.61,-36 2327.62,-30.44 2317.1,-29.17 2318.61,-36"/>
<text text-anchor="middle" x="2322.62" y="-34.24" font-family="Times,serif" font-size="14.00">3</text>
</g>
</g>
</svg>
