<?xml version="1.0" encoding="UTF-8" standalone="no"?>
<!DOCTYPE svg PUBLIC "-//W3C//DTD SVG 1.1//EN"
 "http://www.w3.org/Graphics/SVG/1.1/DTD/svg11.dtd">
<!-- Generated by graphviz version 2.43.0 (0)
 -->
<!-- Title: dai.UnkCollisionFunc4 Pages: 1 -->
<svg width="406pt" height="224pt"
 viewBox="0.00 0.00 405.78 224.00" xmlns="http://www.w3.org/2000/svg" xmlns:xlink="http://www.w3.org/1999/xlink">
<g id="graph0" class="graph" transform="scale(1 1) rotate(0) translate(4 220)">
<title>dai.UnkCollisionFunc4</title>
<polygon fill="white" stroke="transparent" points="-4,4 -4,-220 401.78,-220 401.78,4 -4,4"/>
<!-- dai.UnkCollisionFunc4 -->
<g id="node1" class="node">
<title>dai.UnkCollisionFunc4</title>
<ellipse fill="green" stroke="black" cx="185.89" cy="-198" rx="115.88" ry="18"/>
<text text-anchor="middle" x="185.89" y="-194.3" font-family="Times,serif" font-size="14.00">dai.UnkCollisionFunc4</text>
</g>
<!-- dai.MoveEntity -->
<g id="node2" class="node">
<title>dai.MoveEntity</title>
<g id="a_node2"><a xlink:href="dai.MoveEntity.svg" xlink:title="dai.MoveEntity">
<ellipse fill="green" stroke="black" cx="81.89" cy="-18" rx="81.79" ry="18"/>
<text text-anchor="middle" x="81.89" y="-14.3" font-family="Times,serif" font-size="14.00">dai.MoveEntity</text>
</a>
</g>
</g>
<!-- dai.UnkCollisionFunc4&#45;&gt;dai.MoveEntity -->
<g id="edge1" class="edge">
<title>dai.UnkCollisionFunc4&#45;&gt;dai.MoveEntity</title>
<path fill="none" stroke="black" d="M175.92,-179.93C157.6,-148.57 118.47,-81.6 96.91,-44.71"/>
<polygon fill="black" stroke="black" points="99.9,-42.88 91.83,-36.02 93.86,-46.42 99.9,-42.88"/>
<text text-anchor="middle" x="86.83" y="-39.82" font-family="Times,serif" font-size="14.00">1</text>
</g>
<!-- g_api_CheckCollision -->
<g id="node3" class="node">
<title>g_api_CheckCollision</title>
<g id="a_node3"><a xlink:href="g_api_CheckCollision.svg" xlink:title="g_api_CheckCollision">
<ellipse fill="lightblue" stroke="black" cx="289.89" cy="-18" rx="107.78" ry="18"/>
<text text-anchor="middle" x="289.89" y="-14.3" font-family="Times,serif" font-size="14.00">g_api_CheckCollision</text>
</a>
</g>
</g>
<!-- dai.UnkCollisionFunc4&#45;&gt;g_api_CheckCollision -->
<g id="edge2" class="edge">
<title>dai.UnkCollisionFunc4&#45;&gt;g_api_CheckCollision</title>
<path fill="none" stroke="black" d="M195.86,-179.93C214.19,-148.57 253.32,-81.6 274.87,-44.71"/>
<polygon fill="black" stroke="black" points="277.93,-46.42 279.95,-36.02 271.88,-42.88 277.93,-46.42"/>
<text text-anchor="middle" x="274.95" y="-39.82" font-family="Times,serif" font-size="14.00">8</text>
</g>
</g>
</svg>
