<?xml version="1.0" encoding="UTF-8" standalone="no"?>
<!DOCTYPE svg PUBLIC "-//W3C//DTD SVG 1.1//EN"
 "http://www.w3.org/Graphics/SVG/1.1/DTD/svg11.dtd">
<!-- Generated by graphviz version 2.43.0 (0)
 -->
<!-- Title: dra.DealDamage Pages: 1 -->
<svg width="1580pt" height="404pt"
 viewBox="0.00 0.00 1580.03 404.00" xmlns="http://www.w3.org/2000/svg" xmlns:xlink="http://www.w3.org/1999/xlink">
<g id="graph0" class="graph" transform="scale(1 1) rotate(0) translate(4 400)">
<title>dra.DealDamage</title>
<polygon fill="white" stroke="transparent" points="-4,4 -4,-400 1576.03,-400 1576.03,4 -4,4"/>
<!-- dra.DealDamage -->
<g id="node1" class="node">
<title>dra.DealDamage</title>
<ellipse fill="green" stroke="black" cx="780.04" cy="-198" rx="88.28" ry="18"/>
<text text-anchor="middle" x="780.04" y="-194.3" font-family="Times,serif" font-size="14.00">dra.DealDamage</text>
</g>
<!-- SquareRoot0 -->
<g id="node2" class="node">
<title>SquareRoot0</title>
<g id="a_node2"><a xlink:href="SquareRoot0.svg" xlink:title="SquareRoot0">
<ellipse fill="lightblue" stroke="black" cx="533.04" cy="-18" rx="71.49" ry="18"/>
<text text-anchor="middle" x="533.04" y="-14.3" font-family="Times,serif" font-size="14.00">SquareRoot0</text>
</a>
</g>
</g>
<!-- dra.DealDamage&#45;&gt;SquareRoot0 -->
<g id="edge1" class="edge">
<title>dra.DealDamage&#45;&gt;SquareRoot0</title>
<path fill="none" stroke="black" d="M757.25,-180.57C712.65,-148.44 613.86,-77.24 563.63,-41.05"/>
<polygon fill="black" stroke="black" points="565.58,-38.14 555.42,-35.13 561.49,-43.82 565.58,-38.14"/>
<text text-anchor="middle" x="550.42" y="-38.93" font-family="Times,serif" font-size="14.00">1</text>
</g>
<!-- dra.CheckEquipmentItemCount -->
<g id="node3" class="node">
<title>dra.CheckEquipmentItemCount</title>
<g id="a_node3"><a xlink:href="dra.CheckEquipmentItemCount.svg" xlink:title="dra.CheckEquipmentItemCount">
<ellipse fill="green" stroke="black" cx="780.04" cy="-18" rx="157.87" ry="18"/>
<text text-anchor="middle" x="780.04" y="-14.3" font-family="Times,serif" font-size="14.00">dra.CheckEquipmentItemCount</text>
</a>
</g>
</g>
<!-- dra.DealDamage&#45;&gt;dra.CheckEquipmentItemCount -->
<g id="edge2" class="edge">
<title>dra.DealDamage&#45;&gt;dra.CheckEquipmentItemCount</title>
<path fill="none" stroke="black" d="M780.04,-179.93C780.04,-148.97 780.04,-83.3 780.04,-46.13"/>
<polygon fill="black" stroke="black" points="783.54,-46.02 780.04,-36.02 776.54,-46.02 783.54,-46.02"/>
<text text-anchor="middle" x="775.04" y="-39.82" font-family="Times,serif" font-size="14.00">1</text>
</g>
<!-- rand -->
<g id="node4" class="node">
<title>rand</title>
<g id="a_node4"><a xlink:href="rand.svg" xlink:title="rand">
<ellipse fill="lightblue" stroke="black" cx="988.04" cy="-18" rx="32.49" ry="18"/>
<text text-anchor="middle" x="988.04" y="-14.3" font-family="Times,serif" font-size="14.00">rand</text>
</a>
</g>
</g>
<!-- dra.DealDamage&#45;&gt;rand -->
<g id="edge3" class="edge">
<title>dra.DealDamage&#45;&gt;rand</title>
<path fill="none" stroke="black" d="M799.61,-180.25C837.63,-147.72 921.41,-76.03 963.25,-40.22"/>
<polygon fill="black" stroke="black" points="965.71,-42.72 971.03,-33.56 961.16,-37.4 965.71,-42.72"/>
<text text-anchor="middle" x="966.03" y="-37.36" font-family="Times,serif" font-size="14.00">3</text>
</g>
<!-- cen.HitDetection -->
<g id="node5" class="node">
<title>cen.HitDetection</title>
<g id="a_node5"><a xlink:href="cen.HitDetection.svg" xlink:title="cen.HitDetection">
<ellipse fill="green" stroke="black" cx="89.04" cy="-378" rx="89.08" ry="18"/>
<text text-anchor="middle" x="89.04" y="-374.3" font-family="Times,serif" font-size="14.00">cen.HitDetection</text>
</a>
</g>
</g>
<!-- cen.HitDetection&#45;&gt;dra.DealDamage -->
<g id="edge4" class="edge">
<title>cen.HitDetection&#45;&gt;dra.DealDamage</title>
<path fill="none" stroke="black" d="M141.83,-363.4C267.25,-331.09 582.68,-249.84 717.43,-215.13"/>
<polygon fill="black" stroke="black" points="718.39,-218.5 727.2,-212.61 716.65,-211.72 718.39,-218.5"/>
<text text-anchor="middle" x="136.83" y="-352.2" font-family="Times,serif" font-size="14.00">1</text>
</g>
<!-- dre.HitDetection -->
<g id="node6" class="node">
<title>dre.HitDetection</title>
<g id="a_node6"><a xlink:href="dre.HitDetection.svg" xlink:title="dre.HitDetection">
<ellipse fill="green" stroke="black" cx="285.04" cy="-378" rx="89.08" ry="18"/>
<text text-anchor="middle" x="285.04" y="-374.3" font-family="Times,serif" font-size="14.00">dre.HitDetection</text>
</a>
</g>
</g>
<!-- dre.HitDetection&#45;&gt;dra.DealDamage -->
<g id="edge5" class="edge">
<title>dre.HitDetection&#45;&gt;dra.DealDamage</title>
<path fill="none" stroke="black" d="M326.82,-361.98C417.27,-329.45 630.99,-252.6 729.14,-217.3"/>
<polygon fill="black" stroke="black" points="730.33,-220.6 738.55,-213.92 727.96,-214.01 730.33,-220.6"/>
<text text-anchor="middle" x="321.82" y="-350.78" font-family="Times,serif" font-size="14.00">1</text>
</g>
<!-- no3.HitDetection -->
<g id="node7" class="node">
<title>no3.HitDetection</title>
<g id="a_node7"><a xlink:href="no3.HitDetection.svg" xlink:title="no3.HitDetection">
<ellipse fill="green" stroke="black" cx="482.04" cy="-378" rx="90.18" ry="18"/>
<text text-anchor="middle" x="482.04" y="-374.3" font-family="Times,serif" font-size="14.00">no3.HitDetection</text>
</a>
</g>
</g>
<!-- no3.HitDetection&#45;&gt;dra.DealDamage -->
<g id="edge6" class="edge">
<title>no3.HitDetection&#45;&gt;dra.DealDamage</title>
<path fill="none" stroke="black" d="M509.28,-360.73C563.26,-328.49 683.82,-256.48 744.18,-220.42"/>
<polygon fill="black" stroke="black" points="746.19,-223.3 752.98,-215.17 742.6,-217.29 746.19,-223.3"/>
<text text-anchor="middle" x="504.28" y="-349.53" font-family="Times,serif" font-size="14.00">1</text>
</g>
<!-- np3.HitDetection -->
<g id="node8" class="node">
<title>np3.HitDetection</title>
<g id="a_node8"><a xlink:href="np3.HitDetection.svg" xlink:title="np3.HitDetection">
<ellipse fill="green" stroke="black" cx="681.04" cy="-378" rx="90.98" ry="18"/>
<text text-anchor="middle" x="681.04" y="-374.3" font-family="Times,serif" font-size="14.00">np3.HitDetection</text>
</a>
</g>
</g>
<!-- np3.HitDetection&#45;&gt;dra.DealDamage -->
<g id="edge7" class="edge">
<title>np3.HitDetection&#45;&gt;dra.DealDamage</title>
<path fill="none" stroke="black" d="M690.53,-359.93C707.91,-328.7 744.91,-262.17 765.48,-225.18"/>
<polygon fill="black" stroke="black" points="768.78,-226.46 770.58,-216.02 762.66,-223.05 768.78,-226.46"/>
<text text-anchor="middle" x="685.53" y="-348.73" font-family="Times,serif" font-size="14.00">1</text>
</g>
<!-- nz0.HitDetection -->
<g id="node9" class="node">
<title>nz0.HitDetection</title>
<g id="a_node9"><a xlink:href="nz0.HitDetection.svg" xlink:title="nz0.HitDetection">
<ellipse fill="green" stroke="black" cx="880.04" cy="-378" rx="89.88" ry="18"/>
<text text-anchor="middle" x="880.04" y="-374.3" font-family="Times,serif" font-size="14.00">nz0.HitDetection</text>
</a>
</g>
</g>
<!-- nz0.HitDetection&#45;&gt;dra.DealDamage -->
<g id="edge8" class="edge">
<title>nz0.HitDetection&#45;&gt;dra.DealDamage</title>
<path fill="none" stroke="black" d="M870.45,-359.93C852.91,-328.7 815.53,-262.17 794.75,-225.18"/>
<polygon fill="black" stroke="black" points="797.55,-223.02 789.6,-216.02 791.45,-226.45 797.55,-223.02"/>
<text text-anchor="middle" x="865.45" y="-348.73" font-family="Times,serif" font-size="14.00">1</text>
</g>
<!-- rwrp.HitDetection -->
<g id="node10" class="node">
<title>rwrp.HitDetection</title>
<g id="a_node10"><a xlink:href="rwrp.HitDetection.svg" xlink:title="rwrp.HitDetection">
<ellipse fill="green" stroke="black" cx="1083.04" cy="-378" rx="95.58" ry="18"/>
<text text-anchor="middle" x="1083.04" y="-374.3" font-family="Times,serif" font-size="14.00">rwrp.HitDetection</text>
</a>
</g>
</g>
<!-- rwrp.HitDetection&#45;&gt;dra.DealDamage -->
<g id="edge9" class="edge">
<title>rwrp.HitDetection&#45;&gt;dra.DealDamage</title>
<path fill="none" stroke="black" d="M1055.35,-360.73C1000.46,-328.49 877.88,-256.48 816.51,-220.42"/>
<polygon fill="black" stroke="black" points="817.96,-217.21 807.56,-215.17 814.41,-223.25 817.96,-217.21"/>
<text text-anchor="middle" x="1050.35" y="-349.53" font-family="Times,serif" font-size="14.00">1</text>
</g>
<!-- st0.HitDetection -->
<g id="node11" class="node">
<title>st0.HitDetection</title>
<g id="a_node11"><a xlink:href="st0.HitDetection.svg" xlink:title="st0.HitDetection">
<ellipse fill="green" stroke="black" cx="1284.04" cy="-378" rx="87.99" ry="18"/>
<text text-anchor="middle" x="1284.04" y="-374.3" font-family="Times,serif" font-size="14.00">st0.HitDetection</text>
</a>
</g>
</g>
<!-- st0.HitDetection&#45;&gt;dra.DealDamage -->
<g id="edge10" class="edge">
<title>st0.HitDetection&#45;&gt;dra.DealDamage</title>
<path fill="none" stroke="black" d="M1241.94,-362.13C1150.13,-329.7 932.13,-252.71 831.98,-217.34"/>
<polygon fill="black" stroke="black" points="832.98,-213.98 822.38,-213.95 830.64,-220.58 832.98,-213.98"/>
<text text-anchor="middle" x="1236.94" y="-350.93" font-family="Times,serif" font-size="14.00">1</text>
</g>
<!-- wrp.HitDetection -->
<g id="node12" class="node">
<title>wrp.HitDetection</title>
<g id="a_node12"><a xlink:href="wrp.HitDetection.svg" xlink:title="wrp.HitDetection">
<ellipse fill="green" stroke="black" cx="1481.04" cy="-378" rx="90.98" ry="18"/>
<text text-anchor="middle" x="1481.04" y="-374.3" font-family="Times,serif" font-size="14.00">wrp.HitDetection</text>
</a>
</g>
</g>
<!-- wrp.HitDetection&#45;&gt;dra.DealDamage -->
<g id="edge11" class="edge">
<title>wrp.HitDetection&#45;&gt;dra.DealDamage</title>
<path fill="none" stroke="black" d="M1427.49,-363.4C1300.09,-331.05 979.47,-249.64 843.06,-215"/>
<polygon fill="black" stroke="black" points="843.72,-211.56 833.17,-212.49 842,-218.34 843.72,-211.56"/>
<text text-anchor="middle" x="1422.49" y="-352.2" font-family="Times,serif" font-size="14.00">1</text>
</g>
</g>
</svg>
