<?xml version="1.0" encoding="UTF-8" standalone="no"?>
<!DOCTYPE svg PUBLIC "-//W3C//DTD SVG 1.1//EN"
 "http://www.w3.org/Graphics/SVG/1.1/DTD/svg11.dtd">
<!-- Generated by graphviz version 2.43.0 (0)
 -->
<!-- Title: dra.func_8012D024 Pages: 1 -->
<svg width="1524pt" height="404pt"
 viewBox="0.00 0.00 1524.48 404.00" xmlns="http://www.w3.org/2000/svg" xmlns:xlink="http://www.w3.org/1999/xlink">
<g id="graph0" class="graph" transform="scale(1 1) rotate(0) translate(4 400)">
<title>dra.func_8012D024</title>
<polygon fill="white" stroke="transparent" points="-4,4 -4,-400 1520.48,-400 1520.48,4 -4,4"/>
<!-- dra.func_8012D024 -->
<g id="node1" class="node">
<title>dra.func_8012D024</title>
<ellipse fill="green" stroke="black" cx="739.79" cy="-198" rx="102.08" ry="18"/>
<text text-anchor="middle" x="739.79" y="-194.3" font-family="Times,serif" font-size="14.00">dra.func_8012D024</text>
</g>
<!-- dra.DecelerateX -->
<g id="node2" class="node">
<title>dra.DecelerateX</title>
<g id="a_node2"><a xlink:href="dra.DecelerateX.svg" xlink:title="dra.DecelerateX">
<ellipse fill="green" stroke="black" cx="85.79" cy="-18" rx="85.59" ry="18"/>
<text text-anchor="middle" x="85.79" y="-14.3" font-family="Times,serif" font-size="14.00">dra.DecelerateX</text>
</a>
</g>
</g>
<!-- dra.func_8012D024&#45;&gt;dra.DecelerateX -->
<g id="edge1" class="edge">
<title>dra.func_8012D024&#45;&gt;dra.DecelerateX</title>
<path fill="none" stroke="black" d="M686.83,-182.58C566.47,-149.83 273.04,-69.96 146.03,-35.4"/>
<polygon fill="black" stroke="black" points="146.66,-31.94 136.09,-32.69 144.82,-38.69 146.66,-31.94"/>
<text text-anchor="middle" x="131.09" y="-36.49" font-family="Times,serif" font-size="14.00">1</text>
</g>
<!-- dra.func_8010DA48 -->
<g id="node3" class="node">
<title>dra.func_8010DA48</title>
<g id="a_node3"><a xlink:href="dra.func_8010DA48.svg" xlink:title="dra.func_8010DA48">
<ellipse fill="green" stroke="black" cx="291.79" cy="-18" rx="102.88" ry="18"/>
<text text-anchor="middle" x="291.79" y="-14.3" font-family="Times,serif" font-size="14.00">dra.func_8010DA48</text>
</a>
</g>
</g>
<!-- dra.func_8012D024&#45;&gt;dra.func_8010DA48 -->
<g id="edge2" class="edge">
<title>dra.func_8012D024&#45;&gt;dra.func_8010DA48</title>
<path fill="none" stroke="black" d="M700.43,-181.36C618.54,-148.82 430.04,-73.93 340.6,-38.39"/>
<polygon fill="black" stroke="black" points="341.81,-35.11 331.23,-34.67 339.23,-41.61 341.81,-35.11"/>
<text text-anchor="middle" x="326.23" y="-38.47" font-family="Times,serif" font-size="14.00">1</text>
</g>
<!-- dra.func_8012CB4C -->
<g id="node4" class="node">
<title>dra.func_8012CB4C</title>
<g id="a_node4"><a xlink:href="dra.func_8012CB4C.svg" xlink:title="dra.func_8012CB4C">
<ellipse fill="green" stroke="black" cx="515.79" cy="-18" rx="103.18" ry="18"/>
<text text-anchor="middle" x="515.79" y="-14.3" font-family="Times,serif" font-size="14.00">dra.func_8012CB4C</text>
</a>
</g>
</g>
<!-- dra.func_8012D024&#45;&gt;dra.func_8012CB4C -->
<g id="edge3" class="edge">
<title>dra.func_8012D024&#45;&gt;dra.func_8012CB4C</title>
<path fill="none" stroke="black" d="M718.72,-180.25C678.53,-148.32 590.85,-78.65 545.02,-42.23"/>
<polygon fill="black" stroke="black" points="546.98,-39.31 536.97,-35.83 542.62,-44.79 546.98,-39.31"/>
<text text-anchor="middle" x="531.97" y="-39.63" font-family="Times,serif" font-size="14.00">1</text>
</g>
<!-- dra.func_8012CC30 -->
<g id="node5" class="node">
<title>dra.func_8012CC30</title>
<g id="a_node5"><a xlink:href="dra.func_8012CC30.svg" xlink:title="dra.func_8012CC30">
<ellipse fill="green" stroke="black" cx="739.79" cy="-18" rx="102.88" ry="18"/>
<text text-anchor="middle" x="739.79" y="-14.3" font-family="Times,serif" font-size="14.00">dra.func_8012CC30</text>
</a>
</g>
</g>
<!-- dra.func_8012D024&#45;&gt;dra.func_8012CC30 -->
<g id="edge4" class="edge">
<title>dra.func_8012D024&#45;&gt;dra.func_8012CC30</title>
<path fill="none" stroke="black" d="M739.79,-179.93C739.79,-148.97 739.79,-83.3 739.79,-46.13"/>
<polygon fill="black" stroke="black" points="743.29,-46.02 739.79,-36.02 736.29,-46.02 743.29,-46.02"/>
<text text-anchor="middle" x="734.79" y="-39.82" font-family="Times,serif" font-size="14.00">1</text>
</g>
<!-- dra.func_8012CCE4 -->
<g id="node6" class="node">
<title>dra.func_8012CCE4</title>
<g id="a_node6"><a xlink:href="dra.func_8012CCE4.svg" xlink:title="dra.func_8012CCE4">
<ellipse fill="green" stroke="black" cx="963.79" cy="-18" rx="103.18" ry="18"/>
<text text-anchor="middle" x="963.79" y="-14.3" font-family="Times,serif" font-size="14.00">dra.func_8012CCE4</text>
</a>
</g>
</g>
<!-- dra.func_8012D024&#45;&gt;dra.func_8012CCE4 -->
<g id="edge5" class="edge">
<title>dra.func_8012D024&#45;&gt;dra.func_8012CCE4</title>
<path fill="none" stroke="black" d="M760.87,-180.25C801.06,-148.32 888.73,-78.65 934.56,-42.23"/>
<polygon fill="black" stroke="black" points="936.96,-44.79 942.61,-35.83 932.61,-39.31 936.96,-44.79"/>
<text text-anchor="middle" x="937.61" y="-39.63" font-family="Times,serif" font-size="14.00">1</text>
</g>
<!-- dra.func_8012CED4 -->
<g id="node7" class="node">
<title>dra.func_8012CED4</title>
<g id="a_node7"><a xlink:href="dra.func_8012CED4.svg" xlink:title="dra.func_8012CED4">
<ellipse fill="green" stroke="black" cx="1188.79" cy="-18" rx="103.98" ry="18"/>
<text text-anchor="middle" x="1188.79" y="-14.3" font-family="Times,serif" font-size="14.00">dra.func_8012CED4</text>
</a>
</g>
</g>
<!-- dra.func_8012D024&#45;&gt;dra.func_8012CED4 -->
<g id="edge6" class="edge">
<title>dra.func_8012D024&#45;&gt;dra.func_8012CED4</title>
<path fill="none" stroke="black" d="M779.24,-181.36C861.32,-148.82 1050.23,-73.93 1139.88,-38.39"/>
<polygon fill="black" stroke="black" points="1141.26,-41.61 1149.27,-34.67 1138.68,-35.1 1141.26,-41.61"/>
<text text-anchor="middle" x="1144.27" y="-38.47" font-family="Times,serif" font-size="14.00">1</text>
</g>
<!-- dra.func_8012CFF0 -->
<g id="node8" class="node">
<title>dra.func_8012CFF0</title>
<g id="a_node8"><a xlink:href="dra.func_8012CFF0.svg" xlink:title="dra.func_8012CFF0">
<ellipse fill="green" stroke="black" cx="1413.79" cy="-18" rx="102.88" ry="18"/>
<text text-anchor="middle" x="1413.79" y="-14.3" font-family="Times,serif" font-size="14.00">dra.func_8012CFF0</text>
</a>
</g>
</g>
<!-- dra.func_8012D024&#45;&gt;dra.func_8012CFF0 -->
<g id="edge7" class="edge">
<title>dra.func_8012D024&#45;&gt;dra.func_8012CFF0</title>
<path fill="none" stroke="black" d="M794.09,-182.66C917.29,-150.12 1217.5,-70.84 1349.6,-35.95"/>
<polygon fill="black" stroke="black" points="1350.8,-39.26 1359.58,-33.32 1349.02,-32.49 1350.8,-39.26"/>
<text text-anchor="middle" x="1354.58" y="-37.12" font-family="Times,serif" font-size="14.00">1</text>
</g>
<!-- dra.func_8012EF2C -->
<g id="node9" class="node">
<title>dra.func_8012EF2C</title>
<g id="a_node9"><a xlink:href="dra.func_8012EF2C.svg" xlink:title="dra.func_8012EF2C">
<ellipse fill="green" stroke="black" cx="739.79" cy="-378" rx="102.88" ry="18"/>
<text text-anchor="middle" x="739.79" y="-374.3" font-family="Times,serif" font-size="14.00">dra.func_8012EF2C</text>
</a>
</g>
</g>
<!-- dra.func_8012EF2C&#45;&gt;dra.func_8012D024 -->
<g id="edge8" class="edge">
<title>dra.func_8012EF2C&#45;&gt;dra.func_8012D024</title>
<path fill="none" stroke="black" d="M739.79,-359.93C739.79,-328.97 739.79,-263.3 739.79,-226.13"/>
<polygon fill="black" stroke="black" points="743.29,-226.02 739.79,-216.02 736.29,-226.02 743.29,-226.02"/>
<text text-anchor="middle" x="734.79" y="-348.73" font-family="Times,serif" font-size="14.00">1</text>
</g>
</g>
</svg>
