<?xml version="1.0" encoding="UTF-8" standalone="no"?>
<!DOCTYPE svg PUBLIC "-//W3C//DTD SVG 1.1//EN"
 "http://www.w3.org/Graphics/SVG/1.1/DTD/svg11.dtd">
<!-- Generated by graphviz version 2.43.0 (0)
 -->
<!-- Title: dra.func_800EDB58 Pages: 1 -->
<svg width="7168pt" height="404pt"
 viewBox="0.00 0.00 7167.93 404.00" xmlns="http://www.w3.org/2000/svg" xmlns:xlink="http://www.w3.org/1999/xlink">
<g id="graph0" class="graph" transform="scale(1 1) rotate(0) translate(4 400)">
<title>dra.func_800EDB58</title>
<polygon fill="white" stroke="transparent" points="-4,4 -4,-400 7163.93,-400 7163.93,4 -4,4"/>
<!-- dra.func_800EDB58 -->
<g id="node1" class="node">
<title>dra.func_800EDB58</title>
<ellipse fill="green" stroke="black" cx="3570.99" cy="-198" rx="103.98" ry="18"/>
<text text-anchor="middle" x="3570.99" y="-194.3" font-family="Times,serif" font-size="14.00">dra.func_800EDB58</text>
</g>
<!-- dra.DestroyPrimitive -->
<g id="node2" class="node">
<title>dra.DestroyPrimitive</title>
<g id="a_node2"><a xlink:href="dra.DestroyPrimitive.svg" xlink:title="dra.DestroyPrimitive">
<ellipse fill="green" stroke="black" cx="3570.99" cy="-18" rx="108.58" ry="18"/>
<text text-anchor="middle" x="3570.99" y="-14.3" font-family="Times,serif" font-size="14.00">dra.DestroyPrimitive</text>
</a>
</g>
</g>
<!-- dra.func_800EDB58&#45;&gt;dra.DestroyPrimitive -->
<g id="edge1" class="edge">
<title>dra.func_800EDB58&#45;&gt;dra.DestroyPrimitive</title>
<path fill="none" stroke="black" d="M3570.99,-179.93C3570.99,-148.97 3570.99,-83.3 3570.99,-46.13"/>
<polygon fill="black" stroke="black" points="3574.49,-46.02 3570.99,-36.02 3567.49,-46.02 3574.49,-46.02"/>
<text text-anchor="middle" x="3565.99" y="-39.82" font-family="Times,serif" font-size="14.00">1</text>
</g>
<!-- cen.EntityEnemyBlood -->
<g id="node3" class="node">
<title>cen.EntityEnemyBlood</title>
<g id="a_node3"><a xlink:href="cen.EntityEnemyBlood.svg" xlink:title="cen.EntityEnemyBlood">
<ellipse fill="green" stroke="black" cx="116.99" cy="-378" rx="116.98" ry="18"/>
<text text-anchor="middle" x="116.99" y="-374.3" font-family="Times,serif" font-size="14.00">cen.EntityEnemyBlood</text>
</a>
</g>
</g>
<!-- cen.EntityEnemyBlood&#45;&gt;dra.func_800EDB58 -->
<g id="edge2" class="edge">
<title>cen.EntityEnemyBlood&#45;&gt;dra.func_800EDB58</title>
<path fill="none" stroke="black" d="M198.21,-365C213.08,-363.1 228.48,-361.33 242.99,-360 1500.8,-244.94 3034.07,-209.03 3457.84,-200.96"/>
<polygon fill="black" stroke="black" points="3458.01,-204.45 3467.94,-200.77 3457.88,-197.46 3458.01,-204.45"/>
<text text-anchor="middle" x="193.21" y="-353.8" font-family="Times,serif" font-size="14.00">1</text>
</g>
<!-- dra.EntityGiantSpinningCross -->
<g id="node4" class="node">
<title>dra.EntityGiantSpinningCross</title>
<g id="a_node4"><a xlink:href="dra.EntityGiantSpinningCross.svg" xlink:title="dra.EntityGiantSpinningCross">
<ellipse fill="green" stroke="black" cx="402.99" cy="-378" rx="151.37" ry="18"/>
<text text-anchor="middle" x="402.99" y="-374.3" font-family="Times,serif" font-size="14.00">dra.EntityGiantSpinningCross</text>
</a>
</g>
</g>
<!-- dra.EntityGiantSpinningCross&#45;&gt;dra.func_800EDB58 -->
<g id="edge3" class="edge">
<title>dra.EntityGiantSpinningCross&#45;&gt;dra.func_800EDB58</title>
<path fill="none" stroke="black" d="M508.57,-365.06C527.03,-363.2 546.06,-361.43 563.99,-360 1693.34,-270.2 3065.4,-217.07 3460.01,-202.87"/>
<polygon fill="black" stroke="black" points="3460.41,-206.36 3470.28,-202.5 3460.16,-199.36 3460.41,-206.36"/>
<text text-anchor="middle" x="503.57" y="-353.86" font-family="Times,serif" font-size="14.00">1</text>
</g>
<!-- dra.EntityGravityBootBeam -->
<g id="node5" class="node">
<title>dra.EntityGravityBootBeam</title>
<g id="a_node5"><a xlink:href="dra.EntityGravityBootBeam.svg" xlink:title="dra.EntityGravityBootBeam">
<ellipse fill="green" stroke="black" cx="712.99" cy="-378" rx="140.28" ry="18"/>
<text text-anchor="middle" x="712.99" y="-374.3" font-family="Times,serif" font-size="14.00">dra.EntityGravityBootBeam</text>
</a>
</g>
</g>
<!-- dra.EntityGravityBootBeam&#45;&gt;dra.func_800EDB58 -->
<g id="edge4" class="edge">
<title>dra.EntityGravityBootBeam&#45;&gt;dra.func_800EDB58</title>
<path fill="none" stroke="black" d="M811.35,-365.09C828.55,-363.23 846.28,-361.44 862.99,-360 1870.31,-273.04 3092.51,-218.71 3460.83,-203.43"/>
<polygon fill="black" stroke="black" points="3461.11,-206.92 3470.95,-203.01 3460.82,-199.93 3461.11,-206.92"/>
<text text-anchor="middle" x="806.35" y="-353.89" font-family="Times,serif" font-size="14.00">1</text>
</g>
<!-- dra.EntitySubwpnThrownVibhuti -->
<g id="node6" class="node">
<title>dra.EntitySubwpnThrownVibhuti</title>
<g id="a_node6"><a xlink:href="dra.EntitySubwpnThrownVibhuti.svg" xlink:title="dra.EntitySubwpnThrownVibhuti">
<ellipse fill="green" stroke="black" cx="1035.99" cy="-378" rx="164.37" ry="18"/>
<text text-anchor="middle" x="1035.99" y="-374.3" font-family="Times,serif" font-size="14.00">dra.EntitySubwpnThrownVibhuti</text>
</a>
</g>
</g>
<!-- dra.EntitySubwpnThrownVibhuti&#45;&gt;dra.func_800EDB58 -->
<g id="edge5" class="edge">
<title>dra.EntitySubwpnThrownVibhuti&#45;&gt;dra.func_800EDB58</title>
<path fill="none" stroke="black" d="M1152.01,-365.19C1171.36,-363.35 1191.24,-361.56 1209.99,-360 2078.98,-287.94 3129.89,-224.7 3463.78,-205.19"/>
<polygon fill="black" stroke="black" points="3464.15,-208.67 3473.93,-204.6 3463.74,-201.68 3464.15,-208.67"/>
<text text-anchor="middle" x="1147.01" y="-353.99" font-family="Times,serif" font-size="14.00">1</text>
</g>
<!-- dra.func_8011E4BC -->
<g id="node7" class="node">
<title>dra.func_8011E4BC</title>
<g id="a_node7"><a xlink:href="dra.func_8011E4BC.svg" xlink:title="dra.func_8011E4BC">
<ellipse fill="green" stroke="black" cx="1321.99" cy="-378" rx="103.18" ry="18"/>
<text text-anchor="middle" x="1321.99" y="-374.3" font-family="Times,serif" font-size="14.00">dra.func_8011E4BC</text>
</a>
</g>
</g>
<!-- dra.func_8011E4BC&#45;&gt;dra.func_800EDB58 -->
<g id="edge6" class="edge">
<title>dra.func_8011E4BC&#45;&gt;dra.func_800EDB58</title>
<path fill="none" stroke="black" d="M1395.13,-365.19C1408.37,-363.28 1422.08,-361.46 1434.99,-360 2209.78,-272.64 3148.18,-220.38 3462.52,-204.33"/>
<polygon fill="black" stroke="black" points="3462.73,-207.82 3472.54,-203.82 3462.38,-200.83 3462.73,-207.82"/>
<text text-anchor="middle" x="1390.13" y="-353.99" font-family="Times,serif" font-size="14.00">1</text>
</g>
<!-- dre.EntityEnemyBlood -->
<g id="node8" class="node">
<title>dre.EntityEnemyBlood</title>
<g id="a_node8"><a xlink:href="dre.EntityEnemyBlood.svg" xlink:title="dre.EntityEnemyBlood">
<ellipse fill="green" stroke="black" cx="1559.99" cy="-378" rx="116.18" ry="18"/>
<text text-anchor="middle" x="1559.99" y="-374.3" font-family="Times,serif" font-size="14.00">dre.EntityEnemyBlood</text>
</a>
</g>
</g>
<!-- dre.EntityEnemyBlood&#45;&gt;dra.func_800EDB58 -->
<g id="edge7" class="edge">
<title>dre.EntityEnemyBlood&#45;&gt;dra.func_800EDB58</title>
<path fill="none" stroke="black" d="M1642.61,-365.27C1657.05,-363.38 1671.95,-361.55 1685.99,-360 2362.82,-285.48 3179.62,-226.07 3465.83,-206.17"/>
<polygon fill="black" stroke="black" points="3466.46,-209.63 3476.19,-205.45 3465.97,-202.65 3466.46,-209.63"/>
<text text-anchor="middle" x="1637.61" y="-354.07" font-family="Times,serif" font-size="14.00">1</text>
</g>
<!-- mar.EntityEnemyBlood -->
<g id="node9" class="node">
<title>mar.EntityEnemyBlood</title>
<g id="a_node9"><a xlink:href="mar.EntityEnemyBlood.svg" xlink:title="mar.EntityEnemyBlood">
<ellipse fill="green" stroke="black" cx="1812.99" cy="-378" rx="118.08" ry="18"/>
<text text-anchor="middle" x="1812.99" y="-374.3" font-family="Times,serif" font-size="14.00">mar.EntityEnemyBlood</text>
</a>
</g>
</g>
<!-- mar.EntityEnemyBlood&#45;&gt;dra.func_800EDB58 -->
<g id="edge8" class="edge">
<title>mar.EntityEnemyBlood&#45;&gt;dra.func_800EDB58</title>
<path fill="none" stroke="black" d="M1897.31,-365.3C1911.54,-363.44 1926.18,-361.61 1939.99,-360 2518.37,-292.76 3214.28,-230.14 3470.23,-207.72"/>
<polygon fill="black" stroke="black" points="3470.59,-211.2 3480.25,-206.84 3469.98,-204.23 3470.59,-211.2"/>
<text text-anchor="middle" x="1892.31" y="-354.1" font-family="Times,serif" font-size="14.00">1</text>
</g>
<!-- mar.EntityLifeUpSpawn -->
<g id="node10" class="node">
<title>mar.EntityLifeUpSpawn</title>
<g id="a_node10"><a xlink:href="mar.EntityLifeUpSpawn.svg" xlink:title="mar.EntityLifeUpSpawn">
<ellipse fill="green" stroke="black" cx="2070.99" cy="-378" rx="122.38" ry="18"/>
<text text-anchor="middle" x="2070.99" y="-374.3" font-family="Times,serif" font-size="14.00">mar.EntityLifeUpSpawn</text>
</a>
</g>
</g>
<!-- mar.EntityLifeUpSpawn&#45;&gt;dra.func_800EDB58 -->
<g id="edge9" class="edge">
<title>mar.EntityLifeUpSpawn&#45;&gt;dra.func_800EDB58</title>
<path fill="none" stroke="black" d="M2159.05,-365.42C2173.4,-363.58 2188.11,-361.72 2201.99,-360 2680.62,-300.8 3254.06,-235.03 3476.43,-209.73"/>
<polygon fill="black" stroke="black" points="3476.89,-213.2 3486.43,-208.59 3476.1,-206.24 3476.89,-213.2"/>
<text text-anchor="middle" x="2154.05" y="-354.22" font-family="Times,serif" font-size="14.00">1</text>
</g>
<!-- no0.EntityEnemyBlood -->
<g id="node11" class="node">
<title>no0.EntityEnemyBlood</title>
<g id="a_node11"><a xlink:href="no0.EntityEnemyBlood.svg" xlink:title="no0.EntityEnemyBlood">
<ellipse fill="green" stroke="black" cx="2328.99" cy="-378" rx="118.08" ry="18"/>
<text text-anchor="middle" x="2328.99" y="-374.3" font-family="Times,serif" font-size="14.00">no0.EntityEnemyBlood</text>
</a>
</g>
</g>
<!-- no0.EntityEnemyBlood&#45;&gt;dra.func_800EDB58 -->
<g id="edge10" class="edge">
<title>no0.EntityEnemyBlood&#45;&gt;dra.func_800EDB58</title>
<path fill="none" stroke="black" d="M2411.93,-365.11C2636.31,-332.96 3253.85,-244.45 3483.48,-211.54"/>
<polygon fill="black" stroke="black" points="3484.06,-214.99 3493.46,-210.11 3483.07,-208.06 3484.06,-214.99"/>
<text text-anchor="middle" x="2406.93" y="-353.91" font-family="Times,serif" font-size="14.00">1</text>
</g>
<!-- no3.EntityEnemyBlood -->
<g id="node12" class="node">
<title>no3.EntityEnemyBlood</title>
<g id="a_node12"><a xlink:href="no3.EntityEnemyBlood.svg" xlink:title="no3.EntityEnemyBlood">
<ellipse fill="green" stroke="black" cx="2583.99" cy="-378" rx="118.08" ry="18"/>
<text text-anchor="middle" x="2583.99" y="-374.3" font-family="Times,serif" font-size="14.00">no3.EntityEnemyBlood</text>
</a>
</g>
</g>
<!-- no3.EntityEnemyBlood&#45;&gt;dra.func_800EDB58 -->
<g id="edge11" class="edge">
<title>no3.EntityEnemyBlood&#45;&gt;dra.func_800EDB58</title>
<path fill="none" stroke="black" d="M2657.37,-363.77C2838.33,-331.13 3304.76,-247.01 3491.73,-213.29"/>
<polygon fill="black" stroke="black" points="3492.55,-216.7 3501.77,-211.48 3491.3,-209.81 3492.55,-216.7"/>
<text text-anchor="middle" x="2652.37" y="-352.57" font-family="Times,serif" font-size="14.00">1</text>
</g>
<!-- no3.EntityWaterDrop -->
<g id="node13" class="node">
<title>no3.EntityWaterDrop</title>
<g id="a_node13"><a xlink:href="no3.EntityWaterDrop.svg" xlink:title="no3.EntityWaterDrop">
<ellipse fill="green" stroke="black" cx="2830.99" cy="-378" rx="110.48" ry="18"/>
<text text-anchor="middle" x="2830.99" y="-374.3" font-family="Times,serif" font-size="14.00">no3.EntityWaterDrop</text>
</a>
</g>
</g>
<!-- no3.EntityWaterDrop&#45;&gt;dra.func_800EDB58 -->
<g id="edge12" class="edge">
<title>no3.EntityWaterDrop&#45;&gt;dra.func_800EDB58</title>
<path fill="none" stroke="black" d="M2890.3,-362.73C3026.11,-330.07 3359.03,-249.99 3502.91,-215.38"/>
<polygon fill="black" stroke="black" points="3504.03,-218.71 3512.94,-212.96 3502.4,-211.9 3504.03,-218.71"/>
<text text-anchor="middle" x="2885.3" y="-351.53" font-family="Times,serif" font-size="14.00">1</text>
</g>
<!-- np3.EntityEnemyBlood -->
<g id="node14" class="node">
<title>np3.EntityEnemyBlood</title>
<g id="a_node14"><a xlink:href="np3.EntityEnemyBlood.svg" xlink:title="np3.EntityEnemyBlood">
<ellipse fill="green" stroke="black" cx="3077.99" cy="-378" rx="118.08" ry="18"/>
<text text-anchor="middle" x="3077.99" y="-374.3" font-family="Times,serif" font-size="14.00">np3.EntityEnemyBlood</text>
</a>
</g>
</g>
<!-- np3.EntityEnemyBlood&#45;&gt;dra.func_800EDB58 -->
<g id="edge13" class="edge">
<title>np3.EntityEnemyBlood&#45;&gt;dra.func_800EDB58</title>
<path fill="none" stroke="black" d="M3121.74,-361.2C3212.42,-328.46 3420.54,-253.32 3518.36,-218"/>
<polygon fill="black" stroke="black" points="3519.82,-221.19 3528.04,-214.51 3517.45,-214.61 3519.82,-221.19"/>
<text text-anchor="middle" x="3116.74" y="-350" font-family="Times,serif" font-size="14.00">1</text>
</g>
<!-- np3.EntityWaterDrop -->
<g id="node15" class="node">
<title>np3.EntityWaterDrop</title>
<g id="a_node15"><a xlink:href="np3.EntityWaterDrop.svg" xlink:title="np3.EntityWaterDrop">
<ellipse fill="green" stroke="black" cx="3324.99" cy="-378" rx="110.48" ry="18"/>
<text text-anchor="middle" x="3324.99" y="-374.3" font-family="Times,serif" font-size="14.00">np3.EntityWaterDrop</text>
</a>
</g>
</g>
<!-- np3.EntityWaterDrop&#45;&gt;dra.func_800EDB58 -->
<g id="edge14" class="edge">
<title>np3.EntityWaterDrop&#45;&gt;dra.func_800EDB58</title>
<path fill="none" stroke="black" d="M3348.13,-360.25C3392.57,-328.1 3489.85,-257.71 3539.9,-221.5"/>
<polygon fill="black" stroke="black" points="3542.04,-224.27 3548.09,-215.57 3537.93,-218.6 3542.04,-224.27"/>
<text text-anchor="middle" x="3343.13" y="-349.05" font-family="Times,serif" font-size="14.00">1</text>
</g>
<!-- nz0.EntityEnemyBlood -->
<g id="node16" class="node">
<title>nz0.EntityEnemyBlood</title>
<g id="a_node16"><a xlink:href="nz0.EntityEnemyBlood.svg" xlink:title="nz0.EntityEnemyBlood">
<ellipse fill="green" stroke="black" cx="3570.99" cy="-378" rx="117.78" ry="18"/>
<text text-anchor="middle" x="3570.99" y="-374.3" font-family="Times,serif" font-size="14.00">nz0.EntityEnemyBlood</text>
</a>
</g>
</g>
<!-- nz0.EntityEnemyBlood&#45;&gt;dra.func_800EDB58 -->
<g id="edge15" class="edge">
<title>nz0.EntityEnemyBlood&#45;&gt;dra.func_800EDB58</title>
<path fill="none" stroke="black" d="M3570.99,-359.93C3570.99,-328.97 3570.99,-263.3 3570.99,-226.13"/>
<polygon fill="black" stroke="black" points="3574.49,-226.02 3570.99,-216.02 3567.49,-226.02 3574.49,-226.02"/>
<text text-anchor="middle" x="3565.99" y="-348.73" font-family="Times,serif" font-size="14.00">1</text>
</g>
<!-- nz0.EntityLifeUpSpawn -->
<g id="node17" class="node">
<title>nz0.EntityLifeUpSpawn</title>
<g id="a_node17"><a xlink:href="nz0.EntityLifeUpSpawn.svg" xlink:title="nz0.EntityLifeUpSpawn">
<ellipse fill="green" stroke="black" cx="3827.99" cy="-378" rx="121.58" ry="18"/>
<text text-anchor="middle" x="3827.99" y="-374.3" font-family="Times,serif" font-size="14.00">nz0.EntityLifeUpSpawn</text>
</a>
</g>
</g>
<!-- nz0.EntityLifeUpSpawn&#45;&gt;dra.func_800EDB58 -->
<g id="edge16" class="edge">
<title>nz0.EntityLifeUpSpawn&#45;&gt;dra.func_800EDB58</title>
<path fill="none" stroke="black" d="M3803.81,-360.25C3757.29,-328.04 3655.34,-257.42 3603.15,-221.27"/>
<polygon fill="black" stroke="black" points="3605.13,-218.39 3594.92,-215.57 3601.14,-224.14 3605.13,-218.39"/>
<text text-anchor="middle" x="3798.81" y="-349.05" font-family="Times,serif" font-size="14.00">1</text>
</g>
<!-- rbo3.EntityEnemyBlood -->
<g id="node18" class="node">
<title>rbo3.EntityEnemyBlood</title>
<g id="a_node18"><a xlink:href="rbo3.EntityEnemyBlood.svg" xlink:title="rbo3.EntityEnemyBlood">
<ellipse fill="red" stroke="black" cx="4089.99" cy="-378" rx="122.38" ry="18"/>
<text text-anchor="middle" x="4089.99" y="-374.3" font-family="Times,serif" font-size="14.00">rbo3.EntityEnemyBlood</text>
</a>
</g>
</g>
<!-- rbo3.EntityEnemyBlood&#45;&gt;dra.func_800EDB58 -->
<g id="edge17" class="edge">
<title>rbo3.EntityEnemyBlood&#45;&gt;dra.func_800EDB58</title>
<path fill="none" stroke="black" d="M4043.93,-361.2C3948.16,-328.36 3727.94,-252.83 3625.38,-217.66"/>
<polygon fill="black" stroke="black" points="3626.43,-214.31 3615.83,-214.38 3624.16,-220.94 3626.43,-214.31"/>
<text text-anchor="middle" x="4038.93" y="-350" font-family="Times,serif" font-size="14.00">1</text>
</g>
<!-- rbo3.EntityLifeUpSpawn -->
<g id="node19" class="node">
<title>rbo3.EntityLifeUpSpawn</title>
<g id="a_node19"><a xlink:href="rbo3.EntityLifeUpSpawn.svg" xlink:title="rbo3.EntityLifeUpSpawn">
<ellipse fill="red" stroke="black" cx="4355.99" cy="-378" rx="126.18" ry="18"/>
<text text-anchor="middle" x="4355.99" y="-374.3" font-family="Times,serif" font-size="14.00">rbo3.EntityLifeUpSpawn</text>
</a>
</g>
</g>
<!-- rbo3.EntityLifeUpSpawn&#45;&gt;dra.func_800EDB58 -->
<g id="edge18" class="edge">
<title>rbo3.EntityLifeUpSpawn&#45;&gt;dra.func_800EDB58</title>
<path fill="none" stroke="black" d="M4291.75,-362.43C4146.33,-329.46 3792.88,-249.31 3641.6,-215.01"/>
<polygon fill="black" stroke="black" points="3642.02,-211.52 3631.49,-212.72 3640.47,-218.34 3642.02,-211.52"/>
<text text-anchor="middle" x="4286.75" y="-351.23" font-family="Times,serif" font-size="14.00">1</text>
</g>
<!-- rbo3.func_us_8019F2F8 -->
<g id="node20" class="node">
<title>rbo3.func_us_8019F2F8</title>
<g id="a_node20"><a xlink:href="rbo3.func_us_8019F2F8.svg" xlink:title="rbo3.func_us_8019F2F8">
<ellipse fill="red" stroke="black" cx="4621.99" cy="-378" rx="122.38" ry="18"/>
<text text-anchor="middle" x="4621.99" y="-374.3" font-family="Times,serif" font-size="14.00">rbo3.func_us_8019F2F8</text>
</a>
</g>
</g>
<!-- rbo3.func_us_8019F2F8&#45;&gt;dra.func_800EDB58 -->
<g id="edge19" class="edge">
<title>rbo3.func_us_8019F2F8&#45;&gt;dra.func_800EDB58</title>
<path fill="none" stroke="black" d="M4545.13,-363.98C4352.45,-331.35 3850.16,-246.28 3652.55,-212.81"/>
<polygon fill="black" stroke="black" points="3652.96,-209.33 3642.52,-211.11 3651.79,-216.23 3652.96,-209.33"/>
<text text-anchor="middle" x="4540.13" y="-352.78" font-family="Times,serif" font-size="14.00">1</text>
</g>
<!-- ric.RicEntityCrashCrossBeam -->
<g id="node21" class="node">
<title>ric.RicEntityCrashCrossBeam</title>
<g id="a_node21"><a xlink:href="ric.RicEntityCrashCrossBeam.svg" xlink:title="ric.RicEntityCrashCrossBeam">
<ellipse fill="green" stroke="black" cx="4911.99" cy="-378" rx="149.47" ry="18"/>
<text text-anchor="middle" x="4911.99" y="-374.3" font-family="Times,serif" font-size="14.00">ric.RicEntityCrashCrossBeam</text>
</a>
</g>
</g>
<!-- ric.RicEntityCrashCrossBeam&#45;&gt;dra.func_800EDB58 -->
<g id="edge20" class="edge">
<title>ric.RicEntityCrashCrossBeam&#45;&gt;dra.func_800EDB58</title>
<path fill="none" stroke="black" d="M4815.55,-364.2C4566.3,-331.11 3903.33,-243.11 3661.17,-210.97"/>
<polygon fill="black" stroke="black" points="3661.37,-207.47 3651,-209.62 3660.45,-214.41 3661.37,-207.47"/>
<text text-anchor="middle" x="4810.55" y="-353" font-family="Times,serif" font-size="14.00">1</text>
</g>
<!-- ric.RicEntityHitByCutBlood -->
<g id="node22" class="node">
<title>ric.RicEntityHitByCutBlood</title>
<g id="a_node22"><a xlink:href="ric.RicEntityHitByCutBlood.svg" xlink:title="ric.RicEntityHitByCutBlood">
<ellipse fill="green" stroke="black" cx="5218.99" cy="-378" rx="139.18" ry="18"/>
<text text-anchor="middle" x="5218.99" y="-374.3" font-family="Times,serif" font-size="14.00">ric.RicEntityHitByCutBlood</text>
</a>
</g>
</g>
<!-- ric.RicEntityHitByCutBlood&#45;&gt;dra.func_800EDB58 -->
<g id="edge21" class="edge">
<title>ric.RicEntityHitByCutBlood&#45;&gt;dra.func_800EDB58</title>
<path fill="none" stroke="black" d="M5118.81,-365.48C5102.5,-363.63 5085.77,-361.75 5069.99,-360 4540.71,-301.38 3905.93,-234.25 3667.63,-209.16"/>
<polygon fill="black" stroke="black" points="3667.92,-205.67 3657.61,-208.1 3667.19,-212.63 3667.92,-205.67"/>
<text text-anchor="middle" x="5113.81" y="-354.28" font-family="Times,serif" font-size="14.00">1</text>
</g>
<!-- ric.RicEntitySubwpnThrownVibhuti -->
<g id="node23" class="node">
<title>ric.RicEntitySubwpnThrownVibhuti</title>
<g id="a_node23"><a xlink:href="ric.RicEntitySubwpnThrownVibhuti.svg" xlink:title="ric.RicEntitySubwpnThrownVibhuti">
<ellipse fill="green" stroke="black" cx="5551.99" cy="-378" rx="175.47" ry="18"/>
<text text-anchor="middle" x="5551.99" y="-374.3" font-family="Times,serif" font-size="14.00">ric.RicEntitySubwpnThrownVibhuti</text>
</a>
</g>
</g>
<!-- ric.RicEntitySubwpnThrownVibhuti&#45;&gt;dra.func_800EDB58 -->
<g id="edge22" class="edge">
<title>ric.RicEntitySubwpnThrownVibhuti&#45;&gt;dra.func_800EDB58</title>
<path fill="none" stroke="black" d="M5426.11,-365.39C5406.32,-363.58 5386.1,-361.73 5366.99,-360 4720.96,-301.36 3944.09,-232.17 3671.43,-207.92"/>
<polygon fill="black" stroke="black" points="3671.44,-204.41 3661.17,-207.01 3670.82,-211.38 3671.44,-204.41"/>
<text text-anchor="middle" x="5421.11" y="-354.19" font-family="Times,serif" font-size="14.00">1</text>
</g>
<!-- st0.EntityBackgroundVortex -->
<g id="node24" class="node">
<title>st0.EntityBackgroundVortex</title>
<g id="a_node24"><a xlink:href="st0.EntityBackgroundVortex.svg" xlink:title="st0.EntityBackgroundVortex">
<ellipse fill="red" stroke="black" cx="5887.99" cy="-378" rx="142.97" ry="18"/>
<text text-anchor="middle" x="5887.99" y="-374.3" font-family="Times,serif" font-size="14.00">st0.EntityBackgroundVortex</text>
</a>
</g>
</g>
<!-- st0.EntityBackgroundVortex&#45;&gt;dra.func_800EDB58 -->
<g id="edge23" class="edge">
<title>st0.EntityBackgroundVortex&#45;&gt;dra.func_800EDB58</title>
<path fill="none" stroke="black" d="M5787.07,-365.18C5770.03,-363.34 5752.51,-361.54 5735.99,-360 4946.15,-286.49 3991.7,-225.03 3677.15,-205.49"/>
<polygon fill="black" stroke="black" points="3677.32,-202 3667.13,-204.87 3676.89,-208.98 3677.32,-202"/>
<text text-anchor="middle" x="5782.07" y="-353.98" font-family="Times,serif" font-size="14.00">1</text>
</g>
<!-- st0.EntityClouds -->
<g id="node25" class="node">
<title>st0.EntityClouds</title>
<g id="a_node25"><a xlink:href="st0.EntityClouds.svg" xlink:title="st0.EntityClouds">
<ellipse fill="red" stroke="black" cx="6137.99" cy="-378" rx="89.08" ry="18"/>
<text text-anchor="middle" x="6137.99" y="-374.3" font-family="Times,serif" font-size="14.00">st0.EntityClouds</text>
</a>
</g>
</g>
<!-- st0.EntityClouds&#45;&gt;dra.func_800EDB58 -->
<g id="edge24" class="edge">
<title>st0.EntityClouds&#45;&gt;dra.func_800EDB58</title>
<path fill="none" stroke="black" d="M6075.4,-365.12C6063.67,-363.18 6051.48,-361.37 6039.99,-360 5134.25,-252.22 4032.36,-212.47 3682.89,-202.05"/>
<polygon fill="black" stroke="black" points="3682.87,-198.54 3672.77,-201.75 3682.66,-205.54 3682.87,-198.54"/>
<text text-anchor="middle" x="6070.4" y="-353.92" font-family="Times,serif" font-size="14.00">1</text>
</g>
<!-- st0.EntityDracula -->
<g id="node26" class="node">
<title>st0.EntityDracula</title>
<g id="a_node26"><a xlink:href="st0.EntityDracula.svg" xlink:title="st0.EntityDracula">
<ellipse fill="green" stroke="black" cx="6337.99" cy="-378" rx="92.88" ry="18"/>
<text text-anchor="middle" x="6337.99" y="-374.3" font-family="Times,serif" font-size="14.00">st0.EntityDracula</text>
</a>
</g>
</g>
<!-- st0.EntityDracula&#45;&gt;dra.func_800EDB58 -->
<g id="edge25" class="edge">
<title>st0.EntityDracula&#45;&gt;dra.func_800EDB58</title>
<path fill="none" stroke="black" d="M6272.84,-365.1C6260.62,-363.16 6247.94,-361.35 6235.99,-360 5250.66,-248.44 4051.04,-210.9 3683.4,-201.58"/>
<polygon fill="black" stroke="black" points="3683.38,-198.07 3673.29,-201.32 3683.2,-205.07 3683.38,-198.07"/>
<text text-anchor="middle" x="6267.84" y="-353.9" font-family="Times,serif" font-size="14.00">1</text>
</g>
<!-- st0.EntityEnemyBlood -->
<g id="node27" class="node">
<title>st0.EntityEnemyBlood</title>
<g id="a_node27"><a xlink:href="st0.EntityEnemyBlood.svg" xlink:title="st0.EntityEnemyBlood">
<ellipse fill="green" stroke="black" cx="6564.99" cy="-378" rx="115.88" ry="18"/>
<text text-anchor="middle" x="6564.99" y="-374.3" font-family="Times,serif" font-size="14.00">st0.EntityEnemyBlood</text>
</a>
</g>
</g>
<!-- st0.EntityEnemyBlood&#45;&gt;dra.func_800EDB58 -->
<g id="edge26" class="edge">
<title>st0.EntityEnemyBlood&#45;&gt;dra.func_800EDB58</title>
<path fill="none" stroke="black" d="M6484.07,-365.04C6469.42,-363.15 6454.27,-361.37 6439.99,-360 5369.39,-257.32 4067.28,-213.4 3682.86,-202.09"/>
<polygon fill="black" stroke="black" points="3682.95,-198.59 3672.85,-201.8 3682.75,-205.59 3682.95,-198.59"/>
<text text-anchor="middle" x="6479.07" y="-353.84" font-family="Times,serif" font-size="14.00">1</text>
</g>
<!-- st0.func_801BD8F0 -->
<g id="node28" class="node">
<title>st0.func_801BD8F0</title>
<g id="a_node28"><a xlink:href="st0.func_801BD8F0.svg" xlink:title="st0.func_801BD8F0">
<ellipse fill="green" stroke="black" cx="6800.99" cy="-378" rx="102.88" ry="18"/>
<text text-anchor="middle" x="6800.99" y="-374.3" font-family="Times,serif" font-size="14.00">st0.func_801BD8F0</text>
</a>
</g>
</g>
<!-- st0.func_801BD8F0&#45;&gt;dra.func_800EDB58 -->
<g id="edge27" class="edge">
<title>st0.func_801BD8F0&#45;&gt;dra.func_800EDB58</title>
<path fill="none" stroke="black" d="M6729.77,-365.01C6716.57,-363.1 6702.89,-361.32 6689.99,-360 5518.83,-240.39 4090.7,-207.86 3683.92,-200.74"/>
<polygon fill="black" stroke="black" points="3683.98,-197.24 3673.92,-200.56 3683.86,-204.24 3683.98,-197.24"/>
<text text-anchor="middle" x="6724.77" y="-353.81" font-family="Times,serif" font-size="14.00">1</text>
</g>
<!-- wrp.EntityEnemyBlood -->
<g id="node29" class="node">
<title>wrp.EntityEnemyBlood</title>
<g id="a_node29"><a xlink:href="wrp.EntityEnemyBlood.svg" xlink:title="wrp.EntityEnemyBlood">
<ellipse fill="green" stroke="black" cx="7040.99" cy="-378" rx="118.88" ry="18"/>
<text text-anchor="middle" x="7040.99" y="-374.3" font-family="Times,serif" font-size="14.00">wrp.EntityEnemyBlood</text>
</a>
</g>
</g>
<!-- wrp.EntityEnemyBlood&#45;&gt;dra.func_800EDB58 -->
<g id="edge28" class="edge">
<title>wrp.EntityEnemyBlood&#45;&gt;dra.func_800EDB58</title>
<path fill="none" stroke="black" d="M6958.48,-365.01C6943.37,-363.11 6927.73,-361.33 6912.99,-360 5649.05,-245.82 4108.39,-209.27 3683.89,-201"/>
<polygon fill="black" stroke="black" points="3683.83,-197.5 3673.76,-200.81 3683.69,-204.5 3683.83,-197.5"/>
<text text-anchor="middle" x="6953.48" y="-353.81" font-family="Times,serif" font-size="14.00">1</text>
</g>
</g>
</svg>
