<?xml version="1.0" encoding="UTF-8" standalone="no"?>
<!DOCTYPE svg PUBLIC "-//W3C//DTD SVG 1.1//EN"
 "http://www.w3.org/Graphics/SVG/1.1/DTD/svg11.dtd">
<!-- Generated by graphviz version 2.43.0 (0)
 -->
<!-- Title: dra.MistFormFinished Pages: 1 -->
<svg width="937pt" height="404pt"
 viewBox="0.00 0.00 937.18 404.00" xmlns="http://www.w3.org/2000/svg" xmlns:xlink="http://www.w3.org/1999/xlink">
<g id="graph0" class="graph" transform="scale(1 1) rotate(0) translate(4 400)">
<title>dra.MistFormFinished</title>
<polygon fill="white" stroke="transparent" points="-4,4 -4,-400 933.18,-400 933.18,4 -4,4"/>
<!-- dra.MistFormFinished -->
<g id="node1" class="node">
<title>dra.MistFormFinished</title>
<ellipse fill="green" stroke="black" cx="507.49" cy="-198" rx="114.28" ry="18"/>
<text text-anchor="middle" x="507.49" y="-194.3" font-family="Times,serif" font-size="14.00">dra.MistFormFinished</text>
</g>
<!-- dra.HandleTransformationMP -->
<g id="node2" class="node">
<title>dra.HandleTransformationMP</title>
<g id="a_node2"><a xlink:href="dra.HandleTransformationMP.svg" xlink:title="dra.HandleTransformationMP">
<ellipse fill="green" stroke="black" cx="149.49" cy="-18" rx="149.47" ry="18"/>
<text text-anchor="middle" x="149.49" y="-14.3" font-family="Times,serif" font-size="14.00">dra.HandleTransformationMP</text>
</a>
</g>
</g>
<!-- dra.MistFormFinished&#45;&gt;dra.HandleTransformationMP -->
<g id="edge1" class="edge">
<title>dra.MistFormFinished&#45;&gt;dra.HandleTransformationMP</title>
<path fill="none" stroke="black" d="M474.77,-180.73C409.76,-148.41 264.41,-76.14 192.07,-40.17"/>
<polygon fill="black" stroke="black" points="193.29,-36.87 182.78,-35.55 190.17,-43.14 193.29,-36.87"/>
<text text-anchor="middle" x="177.78" y="-39.35" font-family="Times,serif" font-size="14.00">1</text>
</g>
<!-- dra.IsRelicActive -->
<g id="node3" class="node">
<title>dra.IsRelicActive</title>
<g id="a_node3"><a xlink:href="dra.IsRelicActive.svg" xlink:title="dra.IsRelicActive">
<ellipse fill="green" stroke="black" cx="406.49" cy="-18" rx="89.08" ry="18"/>
<text text-anchor="middle" x="406.49" y="-14.3" font-family="Times,serif" font-size="14.00">dra.IsRelicActive</text>
</a>
</g>
</g>
<!-- dra.MistFormFinished&#45;&gt;dra.IsRelicActive -->
<g id="edge2" class="edge">
<title>dra.MistFormFinished&#45;&gt;dra.IsRelicActive</title>
<path fill="none" stroke="black" d="M497.8,-179.93C480.08,-148.7 442.33,-82.17 421.34,-45.18"/>
<polygon fill="black" stroke="black" points="424.12,-42.99 416.14,-36.02 418.03,-46.44 424.12,-42.99"/>
<text text-anchor="middle" x="411.14" y="-39.82" font-family="Times,serif" font-size="14.00">1</text>
</g>
<!-- dra.SetPlayerStep -->
<g id="node4" class="node">
<title>dra.SetPlayerStep</title>
<g id="a_node4"><a xlink:href="dra.SetPlayerStep.svg" xlink:title="dra.SetPlayerStep">
<ellipse fill="green" stroke="black" cx="609.49" cy="-18" rx="96.38" ry="18"/>
<text text-anchor="middle" x="609.49" y="-14.3" font-family="Times,serif" font-size="14.00">dra.SetPlayerStep</text>
</a>
</g>
</g>
<!-- dra.MistFormFinished&#45;&gt;dra.SetPlayerStep -->
<g id="edge3" class="edge">
<title>dra.MistFormFinished&#45;&gt;dra.SetPlayerStep</title>
<path fill="none" stroke="black" d="M517.27,-179.93C535.24,-148.57 573.61,-81.6 594.76,-44.71"/>
<polygon fill="black" stroke="black" points="597.8,-46.43 599.74,-36.02 591.73,-42.95 597.8,-46.43"/>
<text text-anchor="middle" x="594.74" y="-39.82" font-family="Times,serif" font-size="14.00">1</text>
</g>
<!-- dra.func_8010E27C -->
<g id="node5" class="node">
<title>dra.func_8010E27C</title>
<g id="a_node5"><a xlink:href="dra.func_8010E27C.svg" xlink:title="dra.func_8010E27C">
<ellipse fill="green" stroke="black" cx="826.49" cy="-18" rx="102.88" ry="18"/>
<text text-anchor="middle" x="826.49" y="-14.3" font-family="Times,serif" font-size="14.00">dra.func_8010E27C</text>
</a>
</g>
</g>
<!-- dra.MistFormFinished&#45;&gt;dra.func_8010E27C -->
<g id="edge4" class="edge">
<title>dra.MistFormFinished&#45;&gt;dra.func_8010E27C</title>
<path fill="none" stroke="black" d="M536.93,-180.57C594.85,-148.25 723.58,-76.42 788.08,-40.43"/>
<polygon fill="black" stroke="black" points="790.09,-43.32 797.12,-35.39 786.68,-37.2 790.09,-43.32"/>
<text text-anchor="middle" x="792.12" y="-39.19" font-family="Times,serif" font-size="14.00">1</text>
</g>
<!-- dra.ControlMistForm -->
<g id="node6" class="node">
<title>dra.ControlMistForm</title>
<g id="a_node6"><a xlink:href="dra.ControlMistForm.svg" xlink:title="dra.ControlMistForm">
<ellipse fill="green" stroke="black" cx="507.49" cy="-378" rx="109.38" ry="18"/>
<text text-anchor="middle" x="507.49" y="-374.3" font-family="Times,serif" font-size="14.00">dra.ControlMistForm</text>
</a>
</g>
</g>
<!-- dra.ControlMistForm&#45;&gt;dra.MistFormFinished -->
<g id="edge5" class="edge">
<title>dra.ControlMistForm&#45;&gt;dra.MistFormFinished</title>
<path fill="none" stroke="black" d="M507.49,-359.93C507.49,-328.97 507.49,-263.3 507.49,-226.13"/>
<polygon fill="black" stroke="black" points="510.99,-226.02 507.49,-216.02 503.99,-226.02 510.99,-226.02"/>
<text text-anchor="middle" x="502.49" y="-348.73" font-family="Times,serif" font-size="14.00">1</text>
</g>
</g>
</svg>
