<?xml version="1.0" encoding="UTF-8" standalone="no"?>
<!DOCTYPE svg PUBLIC "-//W3C//DTD SVG 1.1//EN"
 "http://www.w3.org/Graphics/SVG/1.1/DTD/svg11.dtd">
<!-- Generated by graphviz version 2.43.0 (0)
 -->
<!-- Title: dra.PerformSoulSteal Pages: 1 -->
<svg width="1007pt" height="404pt"
 viewBox="0.00 0.00 1006.74 404.00" xmlns="http://www.w3.org/2000/svg" xmlns:xlink="http://www.w3.org/1999/xlink">
<g id="graph0" class="graph" transform="scale(1 1) rotate(0) translate(4 400)">
<title>dra.PerformSoulSteal</title>
<polygon fill="white" stroke="transparent" points="-4,4 -4,-400 1002.74,-400 1002.74,4 -4,4"/>
<!-- dra.PerformSoulSteal -->
<g id="node1" class="node">
<title>dra.PerformSoulSteal</title>
<ellipse fill="green" stroke="black" cx="458.34" cy="-198" rx="111.28" ry="18"/>
<text text-anchor="middle" x="458.34" y="-194.3" font-family="Times,serif" font-size="14.00">dra.PerformSoulSteal</text>
</g>
<!-- dra.PlaySfx -->
<g id="node2" class="node">
<title>dra.PlaySfx</title>
<g id="a_node2"><a xlink:href="dra.PlaySfx.svg" xlink:title="dra.PlaySfx">
<ellipse fill="green" stroke="black" cx="64.34" cy="-18" rx="64.19" ry="18"/>
<text text-anchor="middle" x="64.34" y="-14.3" font-family="Times,serif" font-size="14.00">dra.PlaySfx</text>
</a>
</g>
</g>
<!-- dra.PerformSoulSteal&#45;&gt;dra.PlaySfx -->
<g id="edge1" class="edge">
<title>dra.PerformSoulSteal&#45;&gt;dra.PlaySfx</title>
<path fill="none" stroke="black" d="M422.68,-180.89C349.84,-147.98 184.27,-73.18 106.36,-37.98"/>
<polygon fill="black" stroke="black" points="107.41,-34.62 96.86,-33.69 104.53,-41 107.41,-34.62"/>
<text text-anchor="middle" x="91.86" y="-37.49" font-family="Times,serif" font-size="14.00">1</text>
</g>
<!-- dra.SetPlayerAnim -->
<g id="node3" class="node">
<title>dra.SetPlayerAnim</title>
<g id="a_node3"><a xlink:href="dra.SetPlayerAnim.svg" xlink:title="dra.SetPlayerAnim">
<ellipse fill="green" stroke="black" cx="245.34" cy="-18" rx="98.58" ry="18"/>
<text text-anchor="middle" x="245.34" y="-14.3" font-family="Times,serif" font-size="14.00">dra.SetPlayerAnim</text>
</a>
</g>
</g>
<!-- dra.PerformSoulSteal&#45;&gt;dra.SetPlayerAnim -->
<g id="edge2" class="edge">
<title>dra.PerformSoulSteal&#45;&gt;dra.SetPlayerAnim</title>
<path fill="none" stroke="black" d="M438.31,-180.25C400.17,-148.38 317.06,-78.94 273.41,-42.45"/>
<polygon fill="black" stroke="black" points="275.4,-39.56 265.48,-35.83 270.91,-44.93 275.4,-39.56"/>
<text text-anchor="middle" x="260.48" y="-39.63" font-family="Times,serif" font-size="14.00">1</text>
</g>
<!-- dra.SetPlayerStep -->
<g id="node4" class="node">
<title>dra.SetPlayerStep</title>
<g id="a_node4"><a xlink:href="dra.SetPlayerStep.svg" xlink:title="dra.SetPlayerStep">
<ellipse fill="green" stroke="black" cx="458.34" cy="-18" rx="96.38" ry="18"/>
<text text-anchor="middle" x="458.34" y="-14.3" font-family="Times,serif" font-size="14.00">dra.SetPlayerStep</text>
</a>
</g>
</g>
<!-- dra.PerformSoulSteal&#45;&gt;dra.SetPlayerStep -->
<g id="edge3" class="edge">
<title>dra.PerformSoulSteal&#45;&gt;dra.SetPlayerStep</title>
<path fill="none" stroke="black" d="M458.34,-179.93C458.34,-148.97 458.34,-83.3 458.34,-46.13"/>
<polygon fill="black" stroke="black" points="461.84,-46.02 458.34,-36.02 454.84,-46.02 461.84,-46.02"/>
<text text-anchor="middle" x="453.34" y="-39.82" font-family="Times,serif" font-size="14.00">1</text>
</g>
<!-- dra.func_8010E3E0 -->
<g id="node5" class="node">
<title>dra.func_8010E3E0</title>
<g id="a_node5"><a xlink:href="dra.func_8010E3E0.svg" xlink:title="dra.func_8010E3E0">
<ellipse fill="green" stroke="black" cx="675.34" cy="-18" rx="102.88" ry="18"/>
<text text-anchor="middle" x="675.34" y="-14.3" font-family="Times,serif" font-size="14.00">dra.func_8010E3E0</text>
</a>
</g>
</g>
<!-- dra.PerformSoulSteal&#45;&gt;dra.func_8010E3E0 -->
<g id="edge4" class="edge">
<title>dra.PerformSoulSteal&#45;&gt;dra.func_8010E3E0</title>
<path fill="none" stroke="black" d="M478.76,-180.25C517.69,-148.32 602.63,-78.65 647.03,-42.23"/>
<polygon fill="black" stroke="black" points="649.31,-44.88 654.83,-35.83 644.87,-39.47 649.31,-44.88"/>
<text text-anchor="middle" x="649.83" y="-39.63" font-family="Times,serif" font-size="14.00">1</text>
</g>
<!-- dra.func_80118C28 -->
<g id="node6" class="node">
<title>dra.func_80118C28</title>
<g id="a_node6"><a xlink:href="dra.func_80118C28.svg" xlink:title="dra.func_80118C28">
<ellipse fill="green" stroke="black" cx="897.34" cy="-18" rx="101.28" ry="18"/>
<text text-anchor="middle" x="897.34" y="-14.3" font-family="Times,serif" font-size="14.00">dra.func_80118C28</text>
</a>
</g>
</g>
<!-- dra.PerformSoulSteal&#45;&gt;dra.func_80118C28 -->
<g id="edge5" class="edge">
<title>dra.PerformSoulSteal&#45;&gt;dra.func_80118C28</title>
<path fill="none" stroke="black" d="M497.69,-181.05C578.22,-148.39 761.61,-74.03 849.13,-38.55"/>
<polygon fill="black" stroke="black" points="850.61,-41.73 858.56,-34.73 847.98,-35.24 850.61,-41.73"/>
<text text-anchor="middle" x="853.56" y="-38.53" font-family="Times,serif" font-size="14.00">1</text>
</g>
<!-- dra.CheckSoulStealInput -->
<g id="node7" class="node">
<title>dra.CheckSoulStealInput</title>
<g id="a_node7"><a xlink:href="dra.CheckSoulStealInput.svg" xlink:title="dra.CheckSoulStealInput">
<ellipse fill="green" stroke="black" cx="458.34" cy="-378" rx="126.98" ry="18"/>
<text text-anchor="middle" x="458.34" y="-374.3" font-family="Times,serif" font-size="14.00">dra.CheckSoulStealInput</text>
</a>
</g>
</g>
<!-- dra.CheckSoulStealInput&#45;&gt;dra.PerformSoulSteal -->
<g id="edge6" class="edge">
<title>dra.CheckSoulStealInput&#45;&gt;dra.PerformSoulSteal</title>
<path fill="none" stroke="black" d="M458.34,-359.93C458.34,-328.97 458.34,-263.3 458.34,-226.13"/>
<polygon fill="black" stroke="black" points="461.84,-226.02 458.34,-216.02 454.84,-226.02 461.84,-226.02"/>
<text text-anchor="middle" x="453.34" y="-348.73" font-family="Times,serif" font-size="14.00">1</text>
</g>
</g>
</svg>
