<?xml version="1.0" encoding="UTF-8" standalone="no"?>
<!DOCTYPE svg PUBLIC "-//W3C//DTD SVG 1.1//EN"
 "http://www.w3.org/Graphics/SVG/1.1/DTD/svg11.dtd">
<!-- Generated by graphviz version 2.43.0 (0)
 -->
<!-- Title: dra.func_80102CD8 Pages: 1 -->
<svg width="5545pt" height="224pt"
 viewBox="0.00 0.00 5545.28 224.00" xmlns="http://www.w3.org/2000/svg" xmlns:xlink="http://www.w3.org/1999/xlink">
<g id="graph0" class="graph" transform="scale(1 1) rotate(0) translate(4 220)">
<title>dra.func_80102CD8</title>
<polygon fill="white" stroke="transparent" points="-4,4 -4,-220 5541.28,-220 5541.28,4 -4,4"/>
<!-- dra.func_80102CD8 -->
<g id="node1" class="node">
<title>dra.func_80102CD8</title>
<ellipse fill="green" stroke="black" cx="2488.84" cy="-18" rx="102.88" ry="18"/>
<text text-anchor="middle" x="2488.84" y="-14.3" font-family="Times,serif" font-size="14.00">dra.func_80102CD8</text>
</g>
<!-- dra.AlucardHandleDamage -->
<g id="node2" class="node">
<title>dra.AlucardHandleDamage</title>
<g id="a_node2"><a xlink:href="dra.AlucardHandleDamage.svg" xlink:title="dra.AlucardHandleDamage">
<ellipse fill="green" stroke="black" cx="135.84" cy="-198" rx="135.68" ry="18"/>
<text text-anchor="middle" x="135.84" y="-194.3" font-family="Times,serif" font-size="14.00">dra.AlucardHandleDamage</text>
</a>
</g>
</g>
<!-- dra.AlucardHandleDamage&#45;&gt;dra.func_80102CD8 -->
<g id="edge1" class="edge">
<title>dra.AlucardHandleDamage&#45;&gt;dra.func_80102CD8</title>
<path fill="none" stroke="black" d="M231.05,-185.15C247.31,-183.3 264.05,-181.51 279.84,-180 1087.36,-102.95 2064.06,-43.55 2382.75,-25.04"/>
<polygon fill="black" stroke="black" points="2383.12,-28.53 2392.9,-24.45 2382.71,-21.54 2383.12,-28.53"/>
<text text-anchor="middle" x="226.05" y="-173.95" font-family="Times,serif" font-size="14.00">2</text>
</g>
<!-- dra.ControlBatForm -->
<g id="node3" class="node">
<title>dra.ControlBatForm</title>
<g id="a_node3"><a xlink:href="dra.ControlBatForm.svg" xlink:title="dra.ControlBatForm">
<ellipse fill="green" stroke="black" cx="393.84" cy="-198" rx="104.78" ry="18"/>
<text text-anchor="middle" x="393.84" y="-194.3" font-family="Times,serif" font-size="14.00">dra.ControlBatForm</text>
</a>
</g>
</g>
<!-- dra.ControlBatForm&#45;&gt;dra.func_80102CD8 -->
<g id="edge2" class="edge">
<title>dra.ControlBatForm&#45;&gt;dra.func_80102CD8</title>
<path fill="none" stroke="black" d="M467.59,-185.16C480.65,-183.28 494.13,-181.47 506.84,-180 1221.33,-97.33 2085.6,-42.59 2382.63,-25.07"/>
<polygon fill="black" stroke="black" points="2383.18,-28.54 2392.96,-24.46 2382.77,-21.55 2383.18,-28.54"/>
<text text-anchor="middle" x="462.59" y="-173.96" font-family="Times,serif" font-size="14.00">1</text>
</g>
<!-- dra.func_801139CC -->
<g id="node4" class="node">
<title>dra.func_801139CC</title>
<g id="a_node4"><a xlink:href="dra.func_801139CC.svg" xlink:title="dra.func_801139CC">
<ellipse fill="green" stroke="black" cx="618.84" cy="-198" rx="102.88" ry="18"/>
<text text-anchor="middle" x="618.84" y="-194.3" font-family="Times,serif" font-size="14.00">dra.func_801139CC</text>
</a>
</g>
</g>
<!-- dra.func_801139CC&#45;&gt;dra.func_80102CD8 -->
<g id="edge3" class="edge">
<title>dra.func_801139CC&#45;&gt;dra.func_80102CD8</title>
<path fill="none" stroke="black" d="M691.59,-185.21C704.32,-183.33 717.45,-181.51 729.84,-180 1356.44,-103.41 2112.69,-45.89 2384.93,-26.3"/>
<polygon fill="black" stroke="black" points="2385.46,-29.77 2395.19,-25.56 2384.96,-22.79 2385.46,-29.77"/>
<text text-anchor="middle" x="686.59" y="-174.01" font-family="Times,serif" font-size="14.00">1</text>
</g>
<!-- dra.func_80114DF4 -->
<g id="node5" class="node">
<title>dra.func_80114DF4</title>
<g id="a_node5"><a xlink:href="dra.func_80114DF4.svg" xlink:title="dra.func_80114DF4">
<ellipse fill="green" stroke="black" cx="841.84" cy="-198" rx="102.88" ry="18"/>
<text text-anchor="middle" x="841.84" y="-194.3" font-family="Times,serif" font-size="14.00">dra.func_80114DF4</text>
</a>
</g>
</g>
<!-- dra.func_80114DF4&#45;&gt;dra.func_80102CD8 -->
<g id="edge4" class="edge">
<title>dra.func_80114DF4&#45;&gt;dra.func_80102CD8</title>
<path fill="none" stroke="black" d="M914.91,-185.3C927.54,-183.43 940.56,-181.58 952.84,-180 1493.22,-110.34 2143.52,-49.83 2388.75,-27.83"/>
<polygon fill="black" stroke="black" points="2389.42,-31.28 2399.07,-26.91 2388.8,-24.31 2389.42,-31.28"/>
<text text-anchor="middle" x="909.91" y="-174.1" font-family="Times,serif" font-size="14.00">2</text>
</g>
<!-- dra.func_8012D28C -->
<g id="node6" class="node">
<title>dra.func_8012D28C</title>
<g id="a_node6"><a xlink:href="dra.func_8012D28C.svg" xlink:title="dra.func_8012D28C">
<ellipse fill="green" stroke="black" cx="1064.84" cy="-198" rx="102.88" ry="18"/>
<text text-anchor="middle" x="1064.84" y="-194.3" font-family="Times,serif" font-size="14.00">dra.func_8012D28C</text>
</a>
</g>
</g>
<!-- dra.func_8012D28C&#45;&gt;dra.func_80102CD8 -->
<g id="edge5" class="edge">
<title>dra.func_8012D28C&#45;&gt;dra.func_80102CD8</title>
<path fill="none" stroke="black" d="M1138.9,-185.45C1151.55,-183.57 1164.56,-181.68 1176.84,-180 1632.84,-117.43 2179.64,-54.08 2395.07,-29.58"/>
<polygon fill="black" stroke="black" points="2395.54,-33.05 2405.08,-28.44 2394.74,-26.09 2395.54,-33.05"/>
<text text-anchor="middle" x="1133.9" y="-174.25" font-family="Times,serif" font-size="14.00">1</text>
</g>
<!-- dra.func_8012E040 -->
<g id="node7" class="node">
<title>dra.func_8012E040</title>
<g id="a_node7"><a xlink:href="dra.func_8012E040.svg" xlink:title="dra.func_8012E040">
<ellipse fill="green" stroke="black" cx="1286.84" cy="-198" rx="101.28" ry="18"/>
<text text-anchor="middle" x="1286.84" y="-194.3" font-family="Times,serif" font-size="14.00">dra.func_8012E040</text>
</a>
</g>
</g>
<!-- dra.func_8012E040&#45;&gt;dra.func_80102CD8 -->
<g id="edge6" class="edge">
<title>dra.func_8012E040&#45;&gt;dra.func_80102CD8</title>
<path fill="none" stroke="black" d="M1360.49,-185.54C1372.63,-183.68 1385.09,-181.77 1396.84,-180 1771.05,-123.5 2217.78,-58.36 2402.43,-31.53"/>
<polygon fill="black" stroke="black" points="2402.96,-34.99 2412.36,-30.09 2401.96,-28.06 2402.96,-34.99"/>
<text text-anchor="middle" x="1355.49" y="-174.34" font-family="Times,serif" font-size="14.00">1</text>
</g>
<!-- np3.EntityHammer -->
<g id="node8" class="node">
<title>np3.EntityHammer</title>
<g id="a_node8"><a xlink:href="np3.EntityHammer.svg" xlink:title="np3.EntityHammer">
<ellipse fill="red" stroke="black" cx="1506.84" cy="-198" rx="100.98" ry="18"/>
<text text-anchor="middle" x="1506.84" y="-194.3" font-family="Times,serif" font-size="14.00">np3.EntityHammer</text>
</a>
</g>
</g>
<!-- np3.EntityHammer&#45;&gt;dra.func_80102CD8 -->
<g id="edge7" class="edge">
<title>np3.EntityHammer&#45;&gt;dra.func_80102CD8</title>
<path fill="none" stroke="black" d="M1574.72,-184.7C1751,-152.74 2222.57,-67.26 2410.22,-33.25"/>
<polygon fill="black" stroke="black" points="2411.08,-36.65 2420.29,-31.43 2409.83,-29.76 2411.08,-36.65"/>
<text text-anchor="middle" x="1569.72" y="-173.5" font-family="Times,serif" font-size="14.00">1</text>
</g>
<!-- np3.EntitySlogra -->
<g id="node9" class="node">
<title>np3.EntitySlogra</title>
<g id="a_node9"><a xlink:href="np3.EntitySlogra.svg" xlink:title="np3.EntitySlogra">
<ellipse fill="green" stroke="black" cx="1715.84" cy="-198" rx="90.18" ry="18"/>
<text text-anchor="middle" x="1715.84" y="-194.3" font-family="Times,serif" font-size="14.00">np3.EntitySlogra</text>
</a>
</g>
</g>
<!-- np3.EntitySlogra&#45;&gt;dra.func_80102CD8 -->
<g id="edge8" class="edge">
<title>np3.EntitySlogra&#45;&gt;dra.func_80102CD8</title>
<path fill="none" stroke="black" d="M1772.68,-183.91C1911.57,-151.93 2267.84,-69.89 2419.17,-35.04"/>
<polygon fill="black" stroke="black" points="2420.31,-38.37 2429.27,-32.72 2418.74,-31.55 2420.31,-38.37"/>
<text text-anchor="middle" x="1767.68" y="-172.71" font-family="Times,serif" font-size="14.00">1</text>
</g>
<!-- nz0.EntityCannon -->
<g id="node10" class="node">
<title>nz0.EntityCannon</title>
<g id="a_node10"><a xlink:href="nz0.EntityCannon.svg" xlink:title="nz0.EntityCannon">
<ellipse fill="green" stroke="black" cx="1918.84" cy="-198" rx="94.48" ry="18"/>
<text text-anchor="middle" x="1918.84" y="-194.3" font-family="Times,serif" font-size="14.00">nz0.EntityCannon</text>
</a>
</g>
</g>
<!-- nz0.EntityCannon&#45;&gt;dra.func_80102CD8 -->
<g id="edge9" class="edge">
<title>nz0.EntityCannon&#45;&gt;dra.func_80102CD8</title>
<path fill="none" stroke="black" d="M1965.97,-182.28C2069.79,-149.86 2317.96,-72.36 2430.99,-37.06"/>
<polygon fill="black" stroke="black" points="2432.35,-40.31 2440.85,-33.99 2430.26,-33.63 2432.35,-40.31"/>
<text text-anchor="middle" x="1960.97" y="-171.08" font-family="Times,serif" font-size="14.00">1</text>
</g>
<!-- nz0.EntityCannonShot -->
<g id="node11" class="node">
<title>nz0.EntityCannonShot</title>
<g id="a_node11"><a xlink:href="nz0.EntityCannonShot.svg" xlink:title="nz0.EntityCannonShot">
<ellipse fill="green" stroke="black" cx="2146.84" cy="-198" rx="115.88" ry="18"/>
<text text-anchor="middle" x="2146.84" y="-194.3" font-family="Times,serif" font-size="14.00">nz0.EntityCannonShot</text>
</a>
</g>
</g>
<!-- nz0.EntityCannonShot&#45;&gt;dra.func_80102CD8 -->
<g id="edge10" class="edge">
<title>nz0.EntityCannonShot&#45;&gt;dra.func_80102CD8</title>
<path fill="none" stroke="black" d="M2178.4,-180.57C2240.63,-148.19 2379.07,-76.13 2448.09,-40.21"/>
<polygon fill="black" stroke="black" points="2450.1,-43.11 2457.35,-35.39 2446.87,-36.9 2450.1,-43.11"/>
<text text-anchor="middle" x="2173.4" y="-169.37" font-family="Times,serif" font-size="14.00">1</text>
</g>
<!-- nz0.EntitySlogra -->
<g id="node12" class="node">
<title>nz0.EntitySlogra</title>
<g id="a_node12"><a xlink:href="nz0.EntitySlogra.svg" xlink:title="nz0.EntitySlogra">
<ellipse fill="green" stroke="black" cx="2369.84" cy="-198" rx="89.08" ry="18"/>
<text text-anchor="middle" x="2369.84" y="-194.3" font-family="Times,serif" font-size="14.00">nz0.EntitySlogra</text>
</a>
</g>
</g>
<!-- nz0.EntitySlogra&#45;&gt;dra.func_80102CD8 -->
<g id="edge11" class="edge">
<title>nz0.EntitySlogra&#45;&gt;dra.func_80102CD8</title>
<path fill="none" stroke="black" d="M2381.25,-179.93C2402.22,-148.57 2446.99,-81.6 2471.65,-44.71"/>
<polygon fill="black" stroke="black" points="2474.81,-46.27 2477.46,-36.02 2468.99,-42.38 2474.81,-46.27"/>
<text text-anchor="middle" x="2376.25" y="-168.73" font-family="Times,serif" font-size="14.00">1</text>
</g>
<!-- ric.RichterHandleDamage -->
<g id="node13" class="node">
<title>ric.RichterHandleDamage</title>
<g id="a_node13"><a xlink:href="ric.RichterHandleDamage.svg" xlink:title="ric.RichterHandleDamage">
<ellipse fill="green" stroke="black" cx="2607.84" cy="-198" rx="131.08" ry="18"/>
<text text-anchor="middle" x="2607.84" y="-194.3" font-family="Times,serif" font-size="14.00">ric.RichterHandleDamage</text>
</a>
</g>
</g>
<!-- ric.RichterHandleDamage&#45;&gt;dra.func_80102CD8 -->
<g id="edge12" class="edge">
<title>ric.RichterHandleDamage&#45;&gt;dra.func_80102CD8</title>
<path fill="none" stroke="black" d="M2596.43,-179.93C2575.46,-148.57 2530.69,-81.6 2506.02,-44.71"/>
<polygon fill="black" stroke="black" points="2508.68,-42.38 2500.21,-36.02 2502.86,-46.27 2508.68,-42.38"/>
<text text-anchor="middle" x="2591.43" y="-168.73" font-family="Times,serif" font-size="14.00">2</text>
</g>
<!-- ric.func_80158B04 -->
<g id="node14" class="node">
<title>ric.func_80158B04</title>
<g id="a_node14"><a xlink:href="ric.func_80158B04.svg" xlink:title="ric.func_80158B04">
<ellipse fill="green" stroke="black" cx="2854.84" cy="-198" rx="98.28" ry="18"/>
<text text-anchor="middle" x="2854.84" y="-194.3" font-family="Times,serif" font-size="14.00">ric.func_80158B04</text>
</a>
</g>
</g>
<!-- ric.func_80158B04&#45;&gt;dra.func_80102CD8 -->
<g id="edge13" class="edge">
<title>ric.func_80158B04&#45;&gt;dra.func_80102CD8</title>
<path fill="none" stroke="black" d="M2821.71,-180.89C2754.97,-148.43 2604.45,-75.22 2530.89,-39.45"/>
<polygon fill="black" stroke="black" points="2532.41,-36.3 2521.89,-35.07 2529.35,-42.59 2532.41,-36.3"/>
<text text-anchor="middle" x="2816.71" y="-169.69" font-family="Times,serif" font-size="14.00">1</text>
</g>
<!-- st0.EntityDracula -->
<g id="node15" class="node">
<title>st0.EntityDracula</title>
<g id="a_node15"><a xlink:href="st0.EntityDracula.svg" xlink:title="st0.EntityDracula">
<ellipse fill="green" stroke="black" cx="3063.84" cy="-198" rx="92.88" ry="18"/>
<text text-anchor="middle" x="3063.84" y="-194.3" font-family="Times,serif" font-size="14.00">st0.EntityDracula</text>
</a>
</g>
</g>
<!-- st0.EntityDracula&#45;&gt;dra.func_80102CD8 -->
<g id="edge14" class="edge">
<title>st0.EntityDracula&#45;&gt;dra.func_80102CD8</title>
<path fill="none" stroke="black" d="M3016.78,-182.43C2912.27,-150.08 2661.07,-72.32 2546.97,-37"/>
<polygon fill="black" stroke="black" points="2547.94,-33.63 2537.35,-34.02 2545.87,-40.32 2547.94,-33.63"/>
<text text-anchor="middle" x="3011.78" y="-171.23" font-family="Times,serif" font-size="14.00">1</text>
</g>
<!-- st0.EntityDraculaFinalForm -->
<g id="node16" class="node">
<title>st0.EntityDraculaFinalForm</title>
<g id="a_node16"><a xlink:href="st0.EntityDraculaFinalForm.svg" xlink:title="st0.EntityDraculaFinalForm">
<ellipse fill="green" stroke="black" cx="3315.84" cy="-198" rx="141.07" ry="18"/>
<text text-anchor="middle" x="3315.84" y="-194.3" font-family="Times,serif" font-size="14.00">st0.EntityDraculaFinalForm</text>
</a>
</g>
</g>
<!-- st0.EntityDraculaFinalForm&#45;&gt;dra.func_80102CD8 -->
<g id="edge15" class="edge">
<title>st0.EntityDraculaFinalForm&#45;&gt;dra.func_80102CD8</title>
<path fill="none" stroke="black" d="M3247.1,-182.21C3092.55,-148.94 2718.82,-68.5 2561.04,-34.54"/>
<polygon fill="black" stroke="black" points="2561.48,-31.06 2550.97,-32.37 2560.01,-37.9 2561.48,-31.06"/>
<text text-anchor="middle" x="3242.1" y="-171.01" font-family="Times,serif" font-size="14.00">3</text>
</g>
<!-- w_015.func_ptr_8017000C -->
<g id="node17" class="node">
<title>w_015.func_ptr_8017000C</title>
<g id="a_node17"><a xlink:href="w_015.func_ptr_8017000C.svg" xlink:title="w_015.func_ptr_8017000C">
<ellipse fill="red" stroke="black" cx="3608.84" cy="-198" rx="133.78" ry="18"/>
<text text-anchor="middle" x="3608.84" y="-194.3" font-family="Times,serif" font-size="14.00">w_015.func_ptr_8017000C</text>
</a>
</g>
</g>
<!-- w_015.func_ptr_8017000C&#45;&gt;dra.func_80102CD8 -->
<g id="edge16" class="edge">
<title>w_015.func_ptr_8017000C&#45;&gt;dra.func_80102CD8</title>
<path fill="none" stroke="black" d="M3526.03,-183.84C3318.89,-150.92 2780.11,-65.29 2572.29,-32.26"/>
<polygon fill="black" stroke="black" points="2572.78,-28.8 2562.35,-30.68 2571.68,-35.71 2572.78,-28.8"/>
<text text-anchor="middle" x="3521.03" y="-172.64" font-family="Times,serif" font-size="14.00">1</text>
</g>
<!-- w_016.func_ptr_80170014 -->
<g id="node18" class="node">
<title>w_016.func_ptr_80170014</title>
<g id="a_node18"><a xlink:href="w_016.func_ptr_80170014.svg" xlink:title="w_016.func_ptr_80170014">
<ellipse fill="green" stroke="black" cx="3893.84" cy="-198" rx="133.48" ry="18"/>
<text text-anchor="middle" x="3893.84" y="-194.3" font-family="Times,serif" font-size="14.00">w_016.func_ptr_80170014</text>
</a>
</g>
</g>
<!-- w_016.func_ptr_80170014&#45;&gt;dra.func_80102CD8 -->
<g id="edge17" class="edge">
<title>w_016.func_ptr_80170014&#45;&gt;dra.func_80102CD8</title>
<path fill="none" stroke="black" d="M3800.29,-185.15C3544.03,-152.68 2833.01,-62.6 2579.82,-30.53"/>
<polygon fill="black" stroke="black" points="2579.91,-27.01 2569.55,-29.23 2579.03,-33.96 2579.91,-27.01"/>
<text text-anchor="middle" x="3795.29" y="-173.95" font-family="Times,serif" font-size="14.00">4</text>
</g>
<!-- w_017.EntityWeaponAttack -->
<g id="node19" class="node">
<title>w_017.EntityWeaponAttack</title>
<g id="a_node19"><a xlink:href="w_017.EntityWeaponAttack.svg" xlink:title="w_017.EntityWeaponAttack">
<ellipse fill="red" stroke="black" cx="4183.84" cy="-198" rx="138.38" ry="18"/>
<text text-anchor="middle" x="4183.84" y="-194.3" font-family="Times,serif" font-size="14.00">w_017.EntityWeaponAttack</text>
</a>
</g>
</g>
<!-- w_017.EntityWeaponAttack&#45;&gt;dra.func_80102CD8 -->
<g id="edge18" class="edge">
<title>w_017.EntityWeaponAttack&#45;&gt;dra.func_80102CD8</title>
<path fill="none" stroke="black" d="M4084.34,-185.42C4068.13,-183.58 4051.52,-181.72 4035.84,-180 3487.74,-120 2829.78,-53.29 2585.93,-28.74"/>
<polygon fill="black" stroke="black" points="2585.98,-25.23 2575.68,-27.71 2585.27,-32.19 2585.98,-25.23"/>
<text text-anchor="middle" x="4079.34" y="-174.22" font-family="Times,serif" font-size="14.00">1</text>
</g>
<!-- w_018.EntityWeaponAttack -->
<g id="node20" class="node">
<title>w_018.EntityWeaponAttack</title>
<g id="a_node20"><a xlink:href="w_018.EntityWeaponAttack.svg" xlink:title="w_018.EntityWeaponAttack">
<ellipse fill="red" stroke="black" cx="4478.84" cy="-198" rx="138.38" ry="18"/>
<text text-anchor="middle" x="4478.84" y="-194.3" font-family="Times,serif" font-size="14.00">w_018.EntityWeaponAttack</text>
</a>
</g>
</g>
<!-- w_018.EntityWeaponAttack&#45;&gt;dra.func_80102CD8 -->
<g id="edge19" class="edge">
<title>w_018.EntityWeaponAttack&#45;&gt;dra.func_80102CD8</title>
<path fill="none" stroke="black" d="M4380.16,-185.29C4363.7,-183.44 4346.79,-181.61 4330.84,-180 3668.32,-113.01 2870.05,-48.87 2591.03,-26.95"/>
<polygon fill="black" stroke="black" points="2591.16,-23.45 2580.92,-26.16 2590.62,-30.43 2591.16,-23.45"/>
<text text-anchor="middle" x="4375.16" y="-174.09" font-family="Times,serif" font-size="14.00">1</text>
</g>
<!-- w_024.EntityWeaponShieldSpell -->
<g id="node21" class="node">
<title>w_024.EntityWeaponShieldSpell</title>
<g id="a_node21"><a xlink:href="w_024.EntityWeaponShieldSpell.svg" xlink:title="w_024.EntityWeaponShieldSpell">
<ellipse fill="red" stroke="black" cx="4796.84" cy="-198" rx="161.37" ry="18"/>
<text text-anchor="middle" x="4796.84" y="-194.3" font-family="Times,serif" font-size="14.00">w_024.EntityWeaponShieldSpell</text>
</a>
</g>
</g>
<!-- w_024.EntityWeaponShieldSpell&#45;&gt;dra.func_80102CD8 -->
<g id="edge20" class="edge">
<title>w_024.EntityWeaponShieldSpell&#45;&gt;dra.func_80102CD8</title>
<path fill="none" stroke="black" d="M4682.36,-185.24C4663.48,-183.41 4644.12,-181.6 4625.84,-180 3845.46,-111.82 2903.21,-46.89 2593.22,-25.98"/>
<polygon fill="black" stroke="black" points="2593.11,-22.46 2582.9,-25.28 2592.64,-29.45 2593.11,-22.46"/>
<text text-anchor="middle" x="4677.36" y="-174.04" font-family="Times,serif" font-size="14.00">1</text>
</g>
<!-- w_030.func_ptr_80170008 -->
<g id="node22" class="node">
<title>w_030.func_ptr_80170008</title>
<g id="a_node22"><a xlink:href="w_030.func_ptr_80170008.svg" xlink:title="w_030.func_ptr_80170008">
<ellipse fill="red" stroke="black" cx="5108.84" cy="-198" rx="133.48" ry="18"/>
<text text-anchor="middle" x="5108.84" y="-194.3" font-family="Times,serif" font-size="14.00">w_030.func_ptr_80170008</text>
</a>
</g>
</g>
<!-- w_030.func_ptr_80170008&#45;&gt;dra.func_80102CD8 -->
<g id="edge21" class="edge">
<title>w_030.func_ptr_80170008&#45;&gt;dra.func_80102CD8</title>
<path fill="none" stroke="black" d="M5015.73,-185.12C4999.45,-183.25 4982.66,-181.46 4966.84,-180 4051.81,-95.56 2942.66,-40.12 2596.98,-23.93"/>
<polygon fill="black" stroke="black" points="2597.12,-20.43 2586.97,-23.46 2596.8,-27.42 2597.12,-20.43"/>
<text text-anchor="middle" x="5010.73" y="-173.92" font-family="Times,serif" font-size="14.00">1</text>
</g>
<!-- w_047.EntityWeaponAttack -->
<g id="node23" class="node">
<title>w_047.EntityWeaponAttack</title>
<g id="a_node23"><a xlink:href="w_047.EntityWeaponAttack.svg" xlink:title="w_047.EntityWeaponAttack">
<ellipse fill="red" stroke="black" cx="5398.84" cy="-198" rx="138.38" ry="18"/>
<text text-anchor="middle" x="5398.84" y="-194.3" font-family="Times,serif" font-size="14.00">w_047.EntityWeaponAttack</text>
</a>
</g>
</g>
<!-- w_047.EntityWeaponAttack&#45;&gt;dra.func_80102CD8 -->
<g id="edge22" class="edge">
<title>w_047.EntityWeaponAttack&#45;&gt;dra.func_80102CD8</title>
<path fill="none" stroke="black" d="M5302.19,-185.11C5285.1,-183.23 5267.46,-181.44 5250.84,-180 4220.85,-90.9 2970.41,-37.82 2598.29,-23.17"/>
<polygon fill="black" stroke="black" points="2598.2,-19.66 2588.07,-22.77 2597.92,-26.66 2598.2,-19.66"/>
<text text-anchor="middle" x="5297.19" y="-173.91" font-family="Times,serif" font-size="14.00">1</text>
</g>
</g>
</svg>
