<?xml version="1.0" encoding="UTF-8" standalone="no"?>
<!DOCTYPE svg PUBLIC "-//W3C//DTD SVG 1.1//EN"
 "http://www.w3.org/Graphics/SVG/1.1/DTD/svg11.dtd">
<!-- Generated by graphviz version 2.43.0 (0)
 -->
<!-- Title: dra.func_800E346C Pages: 1 -->
<svg width="1768pt" height="224pt"
 viewBox="0.00 0.00 1767.53 224.00" xmlns="http://www.w3.org/2000/svg" xmlns:xlink="http://www.w3.org/1999/xlink">
<g id="graph0" class="graph" transform="scale(1 1) rotate(0) translate(4 220)">
<title>dra.func_800E346C</title>
<polygon fill="white" stroke="transparent" points="-4,4 -4,-220 1763.53,-220 1763.53,4 -4,4"/>
<!-- dra.func_800E346C -->
<g id="node1" class="node">
<title>dra.func_800E346C</title>
<ellipse fill="green" stroke="black" cx="880.79" cy="-18" rx="102.88" ry="18"/>
<text text-anchor="middle" x="880.79" y="-14.3" font-family="Times,serif" font-size="14.00">dra.func_800E346C</text>
</g>
<!-- dra.HandleGameOver -->
<g id="node2" class="node">
<title>dra.HandleGameOver</title>
<g id="a_node2"><a xlink:href="dra.HandleGameOver.svg" xlink:title="dra.HandleGameOver">
<ellipse fill="green" stroke="black" cx="111.79" cy="-198" rx="111.58" ry="18"/>
<text text-anchor="middle" x="111.79" y="-194.3" font-family="Times,serif" font-size="14.00">dra.HandleGameOver</text>
</a>
</g>
</g>
<!-- dra.HandleGameOver&#45;&gt;dra.func_800E346C -->
<g id="edge1" class="edge">
<title>dra.HandleGameOver&#45;&gt;dra.func_800E346C</title>
<path fill="none" stroke="black" d="M172.78,-182.88C313.94,-150.21 662.46,-69.54 811.44,-35.05"/>
<polygon fill="black" stroke="black" points="812.44,-38.41 821.39,-32.75 810.86,-31.59 812.44,-38.41"/>
<text text-anchor="middle" x="167.78" y="-171.68" font-family="Times,serif" font-size="14.00">1</text>
</g>
<!-- dra.HandlePlay -->
<g id="node3" class="node">
<title>dra.HandlePlay</title>
<g id="a_node3"><a xlink:href="dra.HandlePlay.svg" xlink:title="dra.HandlePlay">
<ellipse fill="green" stroke="black" cx="323.79" cy="-198" rx="82.59" ry="18"/>
<text text-anchor="middle" x="323.79" y="-194.3" font-family="Times,serif" font-size="14.00">dra.HandlePlay</text>
</a>
</g>
</g>
<!-- dra.HandlePlay&#45;&gt;dra.func_800E346C -->
<g id="edge2" class="edge">
<title>dra.HandlePlay&#45;&gt;dra.func_800E346C</title>
<path fill="none" stroke="black" d="M368.43,-182.73C468.92,-150.62 712.75,-72.7 823.89,-37.18"/>
<polygon fill="black" stroke="black" points="825.12,-40.46 833.58,-34.09 822.99,-33.8 825.12,-40.46"/>
<text text-anchor="middle" x="363.43" y="-171.53" font-family="Times,serif" font-size="14.00">1</text>
</g>
<!-- dra.HandlePrologueEnd -->
<g id="node4" class="node">
<title>dra.HandlePrologueEnd</title>
<g id="a_node4"><a xlink:href="dra.HandlePrologueEnd.svg" xlink:title="dra.HandlePrologueEnd">
<ellipse fill="green" stroke="black" cx="546.79" cy="-198" rx="122.38" ry="18"/>
<text text-anchor="middle" x="546.79" y="-194.3" font-family="Times,serif" font-size="14.00">dra.HandlePrologueEnd</text>
</a>
</g>
</g>
<!-- dra.HandlePrologueEnd&#45;&gt;dra.func_800E346C -->
<g id="edge3" class="edge">
<title>dra.HandlePrologueEnd&#45;&gt;dra.func_800E346C</title>
<path fill="none" stroke="black" d="M577.61,-180.57C638.38,-148.19 773.59,-76.13 841,-40.21"/>
<polygon fill="black" stroke="black" points="842.86,-43.18 850.04,-35.39 839.57,-37 842.86,-43.18"/>
<text text-anchor="middle" x="572.61" y="-169.37" font-family="Times,serif" font-size="14.00">1</text>
</g>
<!-- dra.MenuHandle -->
<g id="node5" class="node">
<title>dra.MenuHandle</title>
<g id="a_node5"><a xlink:href="dra.MenuHandle.svg" xlink:title="dra.MenuHandle">
<ellipse fill="green" stroke="black" cx="775.79" cy="-198" rx="89.08" ry="18"/>
<text text-anchor="middle" x="775.79" y="-194.3" font-family="Times,serif" font-size="14.00">dra.MenuHandle</text>
</a>
</g>
</g>
<!-- dra.MenuHandle&#45;&gt;dra.func_800E346C -->
<g id="edge4" class="edge">
<title>dra.MenuHandle&#45;&gt;dra.func_800E346C</title>
<path fill="none" stroke="black" d="M785.86,-179.93C804.36,-148.57 843.86,-81.6 865.63,-44.71"/>
<polygon fill="black" stroke="black" points="868.69,-46.41 870.75,-36.02 862.66,-42.85 868.69,-46.41"/>
<text text-anchor="middle" x="780.86" y="-168.73" font-family="Times,serif" font-size="14.00">2</text>
</g>
<!-- dra.RunMainEngine -->
<g id="node6" class="node">
<title>dra.RunMainEngine</title>
<g id="a_node6"><a xlink:href="dra.RunMainEngine.svg" xlink:title="dra.RunMainEngine">
<ellipse fill="green" stroke="black" cx="986.79" cy="-198" rx="103.98" ry="18"/>
<text text-anchor="middle" x="986.79" y="-194.3" font-family="Times,serif" font-size="14.00">dra.RunMainEngine</text>
</a>
</g>
</g>
<!-- dra.RunMainEngine&#45;&gt;dra.func_800E346C -->
<g id="edge5" class="edge">
<title>dra.RunMainEngine&#45;&gt;dra.func_800E346C</title>
<path fill="none" stroke="black" d="M976.63,-179.93C957.95,-148.57 918.07,-81.6 896.1,-44.71"/>
<polygon fill="black" stroke="black" points="899.05,-42.82 890.92,-36.02 893.03,-46.4 899.05,-42.82"/>
<text text-anchor="middle" x="971.63" y="-168.73" font-family="Times,serif" font-size="14.00">1</text>
</g>
<!-- dra.func_800E34DC -->
<g id="node7" class="node">
<title>dra.func_800E34DC</title>
<g id="a_node7"><a xlink:href="dra.func_800E34DC.svg" xlink:title="dra.func_800E34DC">
<ellipse fill="green" stroke="black" cx="1212.79" cy="-198" rx="103.98" ry="18"/>
<text text-anchor="middle" x="1212.79" y="-194.3" font-family="Times,serif" font-size="14.00">dra.func_800E34DC</text>
</a>
</g>
</g>
<!-- dra.func_800E34DC&#45;&gt;dra.func_800E346C -->
<g id="edge6" class="edge">
<title>dra.func_800E34DC&#45;&gt;dra.func_800E346C</title>
<path fill="none" stroke="black" d="M1182.45,-180.73C1122.21,-148.44 987.57,-76.25 920.43,-40.25"/>
<polygon fill="black" stroke="black" points="921.89,-37.06 911.42,-35.42 918.58,-43.23 921.89,-37.06"/>
<text text-anchor="middle" x="1177.45" y="-169.53" font-family="Times,serif" font-size="14.00">1</text>
</g>
<!-- dra.func_800E376C -->
<g id="node8" class="node">
<title>dra.func_800E376C</title>
<g id="a_node8"><a xlink:href="dra.func_800E376C.svg" xlink:title="dra.func_800E376C">
<ellipse fill="green" stroke="black" cx="1437.79" cy="-198" rx="102.88" ry="18"/>
<text text-anchor="middle" x="1437.79" y="-194.3" font-family="Times,serif" font-size="14.00">dra.func_800E376C</text>
</a>
</g>
</g>
<!-- dra.func_800E376C&#45;&gt;dra.func_800E346C -->
<g id="edge7" class="edge">
<title>dra.func_800E376C&#45;&gt;dra.func_800E346C</title>
<path fill="none" stroke="black" d="M1390.78,-181.98C1288.82,-149.39 1047.66,-72.33 937.48,-37.12"/>
<polygon fill="black" stroke="black" points="938.46,-33.76 927.87,-34.05 936.33,-40.42 938.46,-33.76"/>
<text text-anchor="middle" x="1385.78" y="-170.78" font-family="Times,serif" font-size="14.00">1</text>
</g>
<!-- dra.func_800F2404 -->
<g id="node9" class="node">
<title>dra.func_800F2404</title>
<g id="a_node9"><a xlink:href="dra.func_800F2404.svg" xlink:title="dra.func_800F2404">
<ellipse fill="green" stroke="black" cx="1658.79" cy="-198" rx="100.98" ry="18"/>
<text text-anchor="middle" x="1658.79" y="-194.3" font-family="Times,serif" font-size="14.00">dra.func_800F2404</text>
</a>
</g>
</g>
<!-- dra.func_800F2404&#45;&gt;dra.func_800E346C -->
<g id="edge8" class="edge">
<title>dra.func_800F2404&#45;&gt;dra.func_800E346C</title>
<path fill="none" stroke="black" d="M1599.35,-183.4C1457.94,-151.05 1102.01,-69.61 950.65,-34.98"/>
<polygon fill="black" stroke="black" points="951.08,-31.49 940.55,-32.67 949.52,-38.31 951.08,-31.49"/>
<text text-anchor="middle" x="1594.35" y="-172.2" font-family="Times,serif" font-size="14.00">1</text>
</g>
</g>
</svg>
