<?xml version="1.0" encoding="UTF-8" standalone="no"?>
<!DOCTYPE svg PUBLIC "-//W3C//DTD SVG 1.1//EN"
 "http://www.w3.org/Graphics/SVG/1.1/DTD/svg11.dtd">
<!-- Generated by graphviz version 2.43.0 (0)
 -->
<!-- Title: dra.UnknownEntId48 Pages: 1 -->
<svg width="614pt" height="224pt"
 viewBox="0.00 0.00 613.63 224.00" xmlns="http://www.w3.org/2000/svg" xmlns:xlink="http://www.w3.org/1999/xlink">
<g id="graph0" class="graph" transform="scale(1 1) rotate(0) translate(4 220)">
<title>dra.UnknownEntId48</title>
<polygon fill="white" stroke="transparent" points="-4,4 -4,-220 609.63,-220 609.63,4 -4,4"/>
<!-- dra.UnknownEntId48 -->
<g id="node1" class="node">
<title>dra.UnknownEntId48</title>
<ellipse fill="green" stroke="black" cx="296.89" cy="-198" rx="110.48" ry="18"/>
<text text-anchor="middle" x="296.89" y="-194.3" font-family="Times,serif" font-size="14.00">dra.UnknownEntId48</text>
</g>
<!-- dra.DestroyEntity -->
<g id="node2" class="node">
<title>dra.DestroyEntity</title>
<g id="a_node2"><a xlink:href="dra.DestroyEntity.svg" xlink:title="dra.DestroyEntity">
<ellipse fill="green" stroke="black" cx="94.89" cy="-18" rx="94.78" ry="18"/>
<text text-anchor="middle" x="94.89" y="-14.3" font-family="Times,serif" font-size="14.00">dra.DestroyEntity</text>
</a>
</g>
</g>
<!-- dra.UnknownEntId48&#45;&gt;dra.DestroyEntity -->
<g id="edge1" class="edge">
<title>dra.UnknownEntId48&#45;&gt;dra.DestroyEntity</title>
<path fill="none" stroke="black" d="M277.89,-180.25C241.72,-148.38 162.91,-78.94 121.51,-42.45"/>
<polygon fill="black" stroke="black" points="123.81,-39.82 113.99,-35.83 119.18,-45.07 123.81,-39.82"/>
<text text-anchor="middle" x="108.99" y="-39.63" font-family="Times,serif" font-size="14.00">1</text>
</g>
<!-- dra.IsRelicActive -->
<g id="node3" class="node">
<title>dra.IsRelicActive</title>
<g id="a_node3"><a xlink:href="dra.IsRelicActive.svg" xlink:title="dra.IsRelicActive">
<ellipse fill="green" stroke="black" cx="296.89" cy="-18" rx="89.08" ry="18"/>
<text text-anchor="middle" x="296.89" y="-14.3" font-family="Times,serif" font-size="14.00">dra.IsRelicActive</text>
</a>
</g>
</g>
<!-- dra.UnknownEntId48&#45;&gt;dra.IsRelicActive -->
<g id="edge2" class="edge">
<title>dra.UnknownEntId48&#45;&gt;dra.IsRelicActive</title>
<path fill="none" stroke="black" d="M296.89,-179.93C296.89,-148.97 296.89,-83.3 296.89,-46.13"/>
<polygon fill="black" stroke="black" points="300.39,-46.02 296.89,-36.02 293.39,-46.02 300.39,-46.02"/>
<text text-anchor="middle" x="291.89" y="-39.82" font-family="Times,serif" font-size="14.00">1</text>
</g>
<!-- dra.func_8011A328 -->
<g id="node4" class="node">
<title>dra.func_8011A328</title>
<g id="a_node4"><a xlink:href="dra.func_8011A328.svg" xlink:title="dra.func_8011A328">
<ellipse fill="green" stroke="black" cx="504.89" cy="-18" rx="100.98" ry="18"/>
<text text-anchor="middle" x="504.89" y="-14.3" font-family="Times,serif" font-size="14.00">dra.func_8011A328</text>
</a>
</g>
</g>
<!-- dra.UnknownEntId48&#45;&gt;dra.func_8011A328 -->
<g id="edge3" class="edge">
<title>dra.UnknownEntId48&#45;&gt;dra.func_8011A328</title>
<path fill="none" stroke="black" d="M316.46,-180.25C353.7,-148.38 434.85,-78.94 477.48,-42.45"/>
<polygon fill="black" stroke="black" points="479.9,-44.99 485.22,-35.83 475.35,-39.67 479.9,-44.99"/>
<text text-anchor="middle" x="480.22" y="-39.63" font-family="Times,serif" font-size="14.00">1</text>
</g>
</g>
</svg>
