<?xml version="1.0" encoding="UTF-8" standalone="no"?>
<!DOCTYPE svg PUBLIC "-//W3C//DTD SVG 1.1//EN"
 "http://www.w3.org/Graphics/SVG/1.1/DTD/svg11.dtd">
<!-- Generated by graphviz version 2.43.0 (0)
 -->
<!-- Title: dra.UpdateAnim Pages: 1 -->
<svg width="4325pt" height="224pt"
 viewBox="0.00 0.00 4325.23 224.00" xmlns="http://www.w3.org/2000/svg" xmlns:xlink="http://www.w3.org/1999/xlink">
<g id="graph0" class="graph" transform="scale(1 1) rotate(0) translate(4 220)">
<title>dra.UpdateAnim</title>
<polygon fill="white" stroke="transparent" points="-4,4 -4,-220 4321.23,-220 4321.23,4 -4,4"/>
<!-- dra.UpdateAnim -->
<g id="node1" class="node">
<title>dra.UpdateAnim</title>
<ellipse fill="green" stroke="black" cx="2027.99" cy="-18" rx="87.18" ry="18"/>
<text text-anchor="middle" x="2027.99" y="-14.3" font-family="Times,serif" font-size="14.00">dra.UpdateAnim</text>
</g>
<!-- dra.UpdatePlayerEntities -->
<g id="node2" class="node">
<title>dra.UpdatePlayerEntities</title>
<g id="a_node2"><a xlink:href="dra.UpdatePlayerEntities.svg" xlink:title="dra.UpdatePlayerEntities">
<ellipse fill="green" stroke="black" cx="129.99" cy="-198" rx="129.98" ry="18"/>
<text text-anchor="middle" x="129.99" y="-194.3" font-family="Times,serif" font-size="14.00">dra.UpdatePlayerEntities</text>
</a>
</g>
</g>
<!-- dra.UpdatePlayerEntities&#45;&gt;dra.UpdateAnim -->
<g id="edge1" class="edge">
<title>dra.UpdatePlayerEntities&#45;&gt;dra.UpdateAnim</title>
<path fill="none" stroke="black" d="M222.28,-185.31C237.86,-183.45 253.88,-181.61 268.99,-180 908.03,-111.69 1679.63,-47.32 1938.47,-26.22"/>
<polygon fill="black" stroke="black" points="1938.89,-29.7 1948.57,-25.4 1938.32,-22.73 1938.89,-29.7"/>
<text text-anchor="middle" x="217.28" y="-174.11" font-family="Times,serif" font-size="14.00">1</text>
</g>
<!-- dra.func_8011A870 -->
<g id="node3" class="node">
<title>dra.func_8011A870</title>
<g id="a_node3"><a xlink:href="dra.func_8011A870.svg" xlink:title="dra.func_8011A870">
<ellipse fill="green" stroke="black" cx="378.99" cy="-198" rx="100.98" ry="18"/>
<text text-anchor="middle" x="378.99" y="-194.3" font-family="Times,serif" font-size="14.00">dra.func_8011A870</text>
</a>
</g>
</g>
<!-- dra.func_8011A870&#45;&gt;dra.UpdateAnim -->
<g id="edge2" class="edge">
<title>dra.func_8011A870&#45;&gt;dra.UpdateAnim</title>
<path fill="none" stroke="black" d="M451.1,-185.34C463.72,-183.44 476.72,-181.59 488.99,-180 1038.96,-108.78 1702.68,-47.73 1939.09,-26.76"/>
<polygon fill="black" stroke="black" points="1939.7,-30.22 1949.35,-25.85 1939.08,-23.25 1939.7,-30.22"/>
<text text-anchor="middle" x="446.1" y="-174.14" font-family="Times,serif" font-size="14.00">1</text>
</g>
<!-- no0.func_us_801D8150 -->
<g id="node4" class="node">
<title>no0.func_us_801D8150</title>
<g id="a_node4"><a xlink:href="no0.func_us_801D8150.svg" xlink:title="no0.func_us_801D8150">
<ellipse fill="red" stroke="black" cx="615.99" cy="-198" rx="118.08" ry="18"/>
<text text-anchor="middle" x="615.99" y="-194.3" font-family="Times,serif" font-size="14.00">no0.func_us_801D8150</text>
</a>
</g>
</g>
<!-- no0.func_us_801D8150&#45;&gt;dra.UpdateAnim -->
<g id="edge3" class="edge">
<title>no0.func_us_801D8150&#45;&gt;dra.UpdateAnim</title>
<path fill="none" stroke="black" d="M701.7,-185.53C715.82,-183.66 730.32,-181.77 743.99,-180 1197.28,-121.48 1741.01,-54.29 1945.16,-29.17"/>
<polygon fill="black" stroke="black" points="1945.71,-32.63 1955.21,-27.94 1944.86,-25.68 1945.71,-32.63"/>
<text text-anchor="middle" x="696.7" y="-174.33" font-family="Times,serif" font-size="14.00">5</text>
</g>
<!-- no0.func_us_801D8FFC -->
<g id="node5" class="node">
<title>no0.func_us_801D8FFC</title>
<g id="a_node5"><a xlink:href="no0.func_us_801D8FFC.svg" xlink:title="no0.func_us_801D8FFC">
<ellipse fill="red" stroke="black" cx="872.99" cy="-198" rx="120.48" ry="18"/>
<text text-anchor="middle" x="872.99" y="-194.3" font-family="Times,serif" font-size="14.00">no0.func_us_801D8FFC</text>
</a>
</g>
</g>
<!-- no0.func_us_801D8FFC&#45;&gt;dra.UpdateAnim -->
<g id="edge4" class="edge">
<title>no0.func_us_801D8FFC&#45;&gt;dra.UpdateAnim</title>
<path fill="none" stroke="black" d="M953.75,-184.55C1166.68,-151.74 1741.34,-63.18 1950.5,-30.94"/>
<polygon fill="black" stroke="black" points="1951.13,-34.39 1960.48,-29.4 1950.07,-27.47 1951.13,-34.39"/>
<text text-anchor="middle" x="948.75" y="-173.35" font-family="Times,serif" font-size="14.00">1</text>
</g>
<!-- ric.RicMain -->
<g id="node6" class="node">
<title>ric.RicMain</title>
<g id="a_node6"><a xlink:href="ric.RicMain.svg" xlink:title="ric.RicMain">
<ellipse fill="green" stroke="black" cx="1074.99" cy="-198" rx="63.89" ry="18"/>
<text text-anchor="middle" x="1074.99" y="-194.3" font-family="Times,serif" font-size="14.00">ric.RicMain</text>
</a>
</g>
</g>
<!-- ric.RicMain&#45;&gt;dra.UpdateAnim -->
<g id="edge5" class="edge">
<title>ric.RicMain&#45;&gt;dra.UpdateAnim</title>
<path fill="none" stroke="black" d="M1122.04,-185.69C1130.65,-183.72 1139.58,-181.75 1147.99,-180 1444.36,-118.42 1799.52,-57.29 1952.17,-31.61"/>
<polygon fill="black" stroke="black" points="1953.09,-35.01 1962.37,-29.9 1951.93,-28.1 1953.09,-35.01"/>
<text text-anchor="middle" x="1117.04" y="-174.49" font-family="Times,serif" font-size="14.00">1</text>
</g>
<!-- ric.RicUpdatePlayerEntities -->
<g id="node7" class="node">
<title>ric.RicUpdatePlayerEntities</title>
<g id="a_node7"><a xlink:href="ric.RicUpdatePlayerEntities.svg" xlink:title="ric.RicUpdatePlayerEntities">
<ellipse fill="green" stroke="black" cx="1297.99" cy="-198" rx="141.07" ry="18"/>
<text text-anchor="middle" x="1297.99" y="-194.3" font-family="Times,serif" font-size="14.00">ric.RicUpdatePlayerEntities</text>
</a>
</g>
</g>
<!-- ric.RicUpdatePlayerEntities&#45;&gt;dra.UpdateAnim -->
<g id="edge6" class="edge">
<title>ric.RicUpdatePlayerEntities&#45;&gt;dra.UpdateAnim</title>
<path fill="none" stroke="black" d="M1360.23,-181.82C1497.47,-148.36 1824.9,-68.52 1963.87,-34.64"/>
<polygon fill="black" stroke="black" points="1965.05,-37.95 1973.94,-32.18 1963.39,-31.15 1965.05,-37.95"/>
<text text-anchor="middle" x="1355.23" y="-170.62" font-family="Times,serif" font-size="14.00">1</text>
</g>
<!-- tt_000.UpdateServantDefault -->
<g id="node8" class="node">
<title>tt_000.UpdateServantDefault</title>
<g id="a_node8"><a xlink:href="tt_000.UpdateServantDefault.svg" xlink:title="tt_000.UpdateServantDefault">
<ellipse fill="red" stroke="black" cx="1604.99" cy="-198" rx="148.37" ry="18"/>
<text text-anchor="middle" x="1604.99" y="-194.3" font-family="Times,serif" font-size="14.00">tt_000.UpdateServantDefault</text>
</a>
</g>
</g>
<!-- tt_000.UpdateServantDefault&#45;&gt;dra.UpdateAnim -->
<g id="edge7" class="edge">
<title>tt_000.UpdateServantDefault&#45;&gt;dra.UpdateAnim</title>
<path fill="none" stroke="black" d="M1644.03,-180.57C1722.41,-147.59 1898.57,-73.46 1982.22,-38.26"/>
<polygon fill="black" stroke="black" points="1983.61,-41.47 1991.47,-34.37 1980.89,-35.02 1983.61,-41.47"/>
<text text-anchor="middle" x="1639.03" y="-169.37" font-family="Times,serif" font-size="14.00">1</text>
</g>
<!-- tt_000.func_80172C30 -->
<g id="node9" class="node">
<title>tt_000.func_80172C30</title>
<g id="a_node9"><a xlink:href="tt_000.func_80172C30.svg" xlink:title="tt_000.func_80172C30">
<ellipse fill="red" stroke="black" cx="1886.99" cy="-198" rx="115.88" ry="18"/>
<text text-anchor="middle" x="1886.99" y="-194.3" font-family="Times,serif" font-size="14.00">tt_000.func_80172C30</text>
</a>
</g>
</g>
<!-- tt_000.func_80172C30&#45;&gt;dra.UpdateAnim -->
<g id="edge8" class="edge">
<title>tt_000.func_80172C30&#45;&gt;dra.UpdateAnim</title>
<path fill="none" stroke="black" d="M1900.51,-179.93C1925.46,-148.43 1978.85,-81.03 2007.99,-44.24"/>
<polygon fill="black" stroke="black" points="2011.04,-46.03 2014.51,-36.02 2005.56,-41.68 2011.04,-46.03"/>
<text text-anchor="middle" x="1895.51" y="-168.73" font-family="Times,serif" font-size="14.00">1</text>
</g>
<!-- tt_001.UpdateServantDefault -->
<g id="node10" class="node">
<title>tt_001.UpdateServantDefault</title>
<g id="a_node10"><a xlink:href="tt_001.UpdateServantDefault.svg" xlink:title="tt_001.UpdateServantDefault">
<ellipse fill="green" stroke="black" cx="2168.99" cy="-198" rx="148.37" ry="18"/>
<text text-anchor="middle" x="2168.99" y="-194.3" font-family="Times,serif" font-size="14.00">tt_001.UpdateServantDefault</text>
</a>
</g>
</g>
<!-- tt_001.UpdateServantDefault&#45;&gt;dra.UpdateAnim -->
<g id="edge9" class="edge">
<title>tt_001.UpdateServantDefault&#45;&gt;dra.UpdateAnim</title>
<path fill="none" stroke="black" d="M2155.47,-179.93C2130.52,-148.43 2077.13,-81.03 2047.98,-44.24"/>
<polygon fill="black" stroke="black" points="2050.42,-41.68 2041.47,-36.02 2044.93,-46.03 2050.42,-41.68"/>
<text text-anchor="middle" x="2150.47" y="-168.73" font-family="Times,serif" font-size="14.00">1</text>
</g>
<!-- w_020.EntityWeaponAttack -->
<g id="node11" class="node">
<title>w_020.EntityWeaponAttack</title>
<g id="a_node11"><a xlink:href="w_020.EntityWeaponAttack.svg" xlink:title="w_020.EntityWeaponAttack">
<ellipse fill="green" stroke="black" cx="2473.99" cy="-198" rx="138.38" ry="18"/>
<text text-anchor="middle" x="2473.99" y="-194.3" font-family="Times,serif" font-size="14.00">w_020.EntityWeaponAttack</text>
</a>
</g>
</g>
<!-- w_020.EntityWeaponAttack&#45;&gt;dra.UpdateAnim -->
<g id="edge10" class="edge">
<title>w_020.EntityWeaponAttack&#45;&gt;dra.UpdateAnim</title>
<path fill="none" stroke="black" d="M2433.23,-180.73C2350.63,-147.77 2163.89,-73.24 2075.75,-38.06"/>
<polygon fill="black" stroke="black" points="2076.85,-34.73 2066.27,-34.28 2074.26,-41.24 2076.85,-34.73"/>
<text text-anchor="middle" x="2428.23" y="-169.53" font-family="Times,serif" font-size="14.00">1</text>
</g>
<!-- w_030.func_ptr_80170008 -->
<g id="node12" class="node">
<title>w_030.func_ptr_80170008</title>
<g id="a_node12"><a xlink:href="w_030.func_ptr_80170008.svg" xlink:title="w_030.func_ptr_80170008">
<ellipse fill="green" stroke="black" cx="2763.99" cy="-198" rx="133.48" ry="18"/>
<text text-anchor="middle" x="2763.99" y="-194.3" font-family="Times,serif" font-size="14.00">w_030.func_ptr_80170008</text>
</a>
</g>
</g>
<!-- w_030.func_ptr_80170008&#45;&gt;dra.UpdateAnim -->
<g id="edge11" class="edge">
<title>w_030.func_ptr_80170008&#45;&gt;dra.UpdateAnim</title>
<path fill="none" stroke="black" d="M2701.87,-181.98C2563.79,-148.58 2232.52,-68.47 2092.36,-34.57"/>
<polygon fill="black" stroke="black" points="2093.15,-31.16 2082.6,-32.21 2091.5,-37.96 2093.15,-31.16"/>
<text text-anchor="middle" x="2696.87" y="-170.78" font-family="Times,serif" font-size="14.00">1</text>
</g>
<!-- w_040.func_ptr_80170004 -->
<g id="node13" class="node">
<title>w_040.func_ptr_80170004</title>
<g id="a_node13"><a xlink:href="w_040.func_ptr_80170004.svg" xlink:title="w_040.func_ptr_80170004">
<ellipse fill="green" stroke="black" cx="3047.99" cy="-198" rx="133.48" ry="18"/>
<text text-anchor="middle" x="3047.99" y="-194.3" font-family="Times,serif" font-size="14.00">w_040.func_ptr_80170004</text>
</a>
</g>
</g>
<!-- w_040.func_ptr_80170004&#45;&gt;dra.UpdateAnim -->
<g id="edge12" class="edge">
<title>w_040.func_ptr_80170004&#45;&gt;dra.UpdateAnim</title>
<path fill="none" stroke="black" d="M2969.64,-183.33C2778.29,-149.93 2289.12,-64.57 2102.17,-31.94"/>
<polygon fill="black" stroke="black" points="2102.61,-28.47 2092.16,-30.2 2101.41,-35.37 2102.61,-28.47"/>
<text text-anchor="middle" x="2964.64" y="-172.13" font-family="Times,serif" font-size="14.00">1</text>
</g>
<!-- w_040.func_ptr_80170008 -->
<g id="node14" class="node">
<title>w_040.func_ptr_80170008</title>
<g id="a_node14"><a xlink:href="w_040.func_ptr_80170008.svg" xlink:title="w_040.func_ptr_80170008">
<ellipse fill="green" stroke="black" cx="3331.99" cy="-198" rx="133.48" ry="18"/>
<text text-anchor="middle" x="3331.99" y="-194.3" font-family="Times,serif" font-size="14.00">w_040.func_ptr_80170008</text>
</a>
</g>
</g>
<!-- w_040.func_ptr_80170008&#45;&gt;dra.UpdateAnim -->
<g id="edge13" class="edge">
<title>w_040.func_ptr_80170008&#45;&gt;dra.UpdateAnim</title>
<path fill="none" stroke="black" d="M3241.84,-184.7C2999.86,-151.66 2338.77,-61.42 2108.42,-29.98"/>
<polygon fill="black" stroke="black" points="2108.82,-26.5 2098.44,-28.62 2107.87,-33.44 2108.82,-26.5"/>
<text text-anchor="middle" x="3236.84" y="-173.5" font-family="Times,serif" font-size="14.00">1</text>
</g>
<!-- w_041.func_ptr_80170004 -->
<g id="node15" class="node">
<title>w_041.func_ptr_80170004</title>
<g id="a_node15"><a xlink:href="w_041.func_ptr_80170004.svg" xlink:title="w_041.func_ptr_80170004">
<ellipse fill="green" stroke="black" cx="3615.99" cy="-198" rx="133.48" ry="18"/>
<text text-anchor="middle" x="3615.99" y="-194.3" font-family="Times,serif" font-size="14.00">w_041.func_ptr_80170004</text>
</a>
</g>
</g>
<!-- w_041.func_ptr_80170004&#45;&gt;dra.UpdateAnim -->
<g id="edge14" class="edge">
<title>w_041.func_ptr_80170004&#45;&gt;dra.UpdateAnim</title>
<path fill="none" stroke="black" d="M3520.14,-185.42C3504.71,-183.58 3488.91,-181.72 3473.99,-180 2957.5,-120.33 2336.74,-52.53 2113.3,-28.25"/>
<polygon fill="black" stroke="black" points="2113.6,-24.76 2103.28,-27.16 2112.84,-31.72 2113.6,-24.76"/>
<text text-anchor="middle" x="3515.14" y="-174.22" font-family="Times,serif" font-size="14.00">1</text>
</g>
<!-- w_042.func_ptr_80170004 -->
<g id="node16" class="node">
<title>w_042.func_ptr_80170004</title>
<g id="a_node16"><a xlink:href="w_042.func_ptr_80170004.svg" xlink:title="w_042.func_ptr_80170004">
<ellipse fill="green" stroke="black" cx="3899.99" cy="-198" rx="133.48" ry="18"/>
<text text-anchor="middle" x="3899.99" y="-194.3" font-family="Times,serif" font-size="14.00">w_042.func_ptr_80170004</text>
</a>
</g>
</g>
<!-- w_042.func_ptr_80170004&#45;&gt;dra.UpdateAnim -->
<g id="edge15" class="edge">
<title>w_042.func_ptr_80170004&#45;&gt;dra.UpdateAnim</title>
<path fill="none" stroke="black" d="M3805.31,-185.31C3789.52,-183.47 3773.3,-181.63 3757.99,-180 3130.1,-113.21 2372.34,-48 2116.92,-26.44"/>
<polygon fill="black" stroke="black" points="2117.21,-22.95 2106.95,-25.6 2116.62,-29.93 2117.21,-22.95"/>
<text text-anchor="middle" x="3800.31" y="-174.11" font-family="Times,serif" font-size="14.00">1</text>
</g>
<!-- w_042.func_ptr_80170008 -->
<g id="node17" class="node">
<title>w_042.func_ptr_80170008</title>
<g id="a_node17"><a xlink:href="w_042.func_ptr_80170008.svg" xlink:title="w_042.func_ptr_80170008">
<ellipse fill="green" stroke="black" cx="4183.99" cy="-198" rx="133.48" ry="18"/>
<text text-anchor="middle" x="4183.99" y="-194.3" font-family="Times,serif" font-size="14.00">w_042.func_ptr_80170008</text>
</a>
</g>
</g>
<!-- w_042.func_ptr_80170008&#45;&gt;dra.UpdateAnim -->
<g id="edge16" class="edge">
<title>w_042.func_ptr_80170008&#45;&gt;dra.UpdateAnim</title>
<path fill="none" stroke="black" d="M4089.71,-185.19C4073.8,-183.34 4057.43,-181.54 4041.99,-180 3301.59,-106.12 2405.36,-44.13 2119.93,-25.05"/>
<polygon fill="black" stroke="black" points="2119.84,-21.54 2109.63,-24.37 2119.37,-28.53 2119.84,-21.54"/>
<text text-anchor="middle" x="4084.71" y="-173.99" font-family="Times,serif" font-size="14.00">1</text>
</g>
</g>
</svg>
