<?xml version="1.0" encoding="UTF-8" standalone="no"?>
<!DOCTYPE svg PUBLIC "-//W3C//DTD SVG 1.1//EN"
 "http://www.w3.org/Graphics/SVG/1.1/DTD/svg11.dtd">
<!-- Generated by graphviz version 2.43.0 (0)
 -->
<!-- Title: dra.func_8010DF70 Pages: 1 -->
<svg width="216pt" height="404pt"
 viewBox="0.00 0.00 215.98 404.00" xmlns="http://www.w3.org/2000/svg" xmlns:xlink="http://www.w3.org/1999/xlink">
<g id="graph0" class="graph" transform="scale(1 1) rotate(0) translate(4 400)">
<title>dra.func_8010DF70</title>
<polygon fill="white" stroke="transparent" points="-4,4 -4,-400 211.98,-400 211.98,4 -4,4"/>
<!-- dra.func_8010DF70 -->
<g id="node1" class="node">
<title>dra.func_8010DF70</title>
<ellipse fill="green" stroke="black" cx="103.99" cy="-198" rx="102.88" ry="18"/>
<text text-anchor="middle" x="103.99" y="-194.3" font-family="Times,serif" font-size="14.00">dra.func_8010DF70</text>
</g>
<!-- dra.PlayAnimation -->
<g id="node2" class="node">
<title>dra.PlayAnimation</title>
<g id="a_node2"><a xlink:href="dra.PlayAnimation.svg" xlink:title="dra.PlayAnimation">
<ellipse fill="green" stroke="black" cx="103.99" cy="-18" rx="96.68" ry="18"/>
<text text-anchor="middle" x="103.99" y="-14.3" font-family="Times,serif" font-size="14.00">dra.PlayAnimation</text>
</a>
</g>
</g>
<!-- dra.func_8010DF70&#45;&gt;dra.PlayAnimation -->
<g id="edge1" class="edge">
<title>dra.func_8010DF70&#45;&gt;dra.PlayAnimation</title>
<path fill="none" stroke="black" d="M103.99,-179.93C103.99,-148.97 103.99,-83.3 103.99,-46.13"/>
<polygon fill="black" stroke="black" points="107.49,-46.02 103.99,-36.02 100.49,-46.02 107.49,-46.02"/>
<text text-anchor="middle" x="98.99" y="-39.82" font-family="Times,serif" font-size="14.00">1</text>
</g>
<!-- dra.RunMainEngine -->
<g id="node3" class="node">
<title>dra.RunMainEngine</title>
<g id="a_node3"><a xlink:href="dra.RunMainEngine.svg" xlink:title="dra.RunMainEngine">
<ellipse fill="green" stroke="black" cx="103.99" cy="-378" rx="103.98" ry="18"/>
<text text-anchor="middle" x="103.99" y="-374.3" font-family="Times,serif" font-size="14.00">dra.RunMainEngine</text>
</a>
</g>
</g>
<!-- dra.RunMainEngine&#45;&gt;dra.func_8010DF70 -->
<g id="edge2" class="edge">
<title>dra.RunMainEngine&#45;&gt;dra.func_8010DF70</title>
<path fill="none" stroke="black" d="M103.99,-359.93C103.99,-328.97 103.99,-263.3 103.99,-226.13"/>
<polygon fill="black" stroke="black" points="107.49,-226.02 103.99,-216.02 100.49,-226.02 107.49,-226.02"/>
<text text-anchor="middle" x="98.99" y="-348.73" font-family="Times,serif" font-size="14.00">1</text>
</g>
</g>
</svg>
