<?xml version="1.0" encoding="UTF-8" standalone="no"?>
<!DOCTYPE svg PUBLIC "-//W3C//DTD SVG 1.1//EN"
 "http://www.w3.org/Graphics/SVG/1.1/DTD/svg11.dtd">
<!-- Generated by graphviz version 2.43.0 (0)
 -->
<!-- Title: dra.func_801120B4 Pages: 1 -->
<svg width="2223pt" height="404pt"
 viewBox="0.00 0.00 2223.43 404.00" xmlns="http://www.w3.org/2000/svg" xmlns:xlink="http://www.w3.org/1999/xlink">
<g id="graph0" class="graph" transform="scale(1 1) rotate(0) translate(4 400)">
<title>dra.func_801120B4</title>
<polygon fill="white" stroke="transparent" points="-4,4 -4,-400 2219.43,-400 2219.43,4 -4,4"/>
<!-- dra.func_801120B4 -->
<g id="node1" class="node">
<title>dra.func_801120B4</title>
<ellipse fill="green" stroke="black" cx="1114.74" cy="-198" rx="101.28" ry="18"/>
<text text-anchor="middle" x="1114.74" y="-194.3" font-family="Times,serif" font-size="14.00">dra.func_801120B4</text>
</g>
<!-- dra.CreateEntFactoryFromEntity -->
<g id="node2" class="node">
<title>dra.CreateEntFactoryFromEntity</title>
<g id="a_node2"><a xlink:href="dra.CreateEntFactoryFromEntity.svg" xlink:title="dra.CreateEntFactoryFromEntity">
<ellipse fill="green" stroke="black" cx="165.74" cy="-18" rx="165.97" ry="18"/>
<text text-anchor="middle" x="165.74" y="-14.3" font-family="Times,serif" font-size="14.00">dra.CreateEntFactoryFromEntity</text>
</a>
</g>
</g>
<!-- dra.func_801120B4&#45;&gt;dra.CreateEntFactoryFromEntity -->
<g id="edge1" class="edge">
<title>dra.func_801120B4&#45;&gt;dra.CreateEntFactoryFromEntity</title>
<path fill="none" stroke="black" d="M1047.63,-184.41C880.07,-152.99 443.33,-71.07 254.67,-35.68"/>
<polygon fill="black" stroke="black" points="255.26,-32.23 244.78,-33.83 253.97,-39.11 255.26,-32.23"/>
<text text-anchor="middle" x="239.78" y="-37.63" font-family="Times,serif" font-size="14.00">3</text>
</g>
<!-- dra.DecelerateX -->
<g id="node3" class="node">
<title>dra.DecelerateX</title>
<g id="a_node3"><a xlink:href="dra.DecelerateX.svg" xlink:title="dra.DecelerateX">
<ellipse fill="green" stroke="black" cx="435.74" cy="-18" rx="85.59" ry="18"/>
<text text-anchor="middle" x="435.74" y="-14.3" font-family="Times,serif" font-size="14.00">dra.DecelerateX</text>
</a>
</g>
</g>
<!-- dra.func_801120B4&#45;&gt;dra.DecelerateX -->
<g id="edge2" class="edge">
<title>dra.func_801120B4&#45;&gt;dra.DecelerateX</title>
<path fill="none" stroke="black" d="M1060.32,-182.73C935.34,-149.97 628.44,-69.52 497.05,-35.07"/>
<polygon fill="black" stroke="black" points="497.7,-31.63 487.14,-32.48 495.93,-38.4 497.7,-31.63"/>
<text text-anchor="middle" x="482.14" y="-36.28" font-family="Times,serif" font-size="14.00">1</text>
</g>
<!-- dra.PlaySfx -->
<g id="node4" class="node">
<title>dra.PlaySfx</title>
<g id="a_node4"><a xlink:href="dra.PlaySfx.svg" xlink:title="dra.PlaySfx">
<ellipse fill="green" stroke="black" cx="603.74" cy="-18" rx="64.19" ry="18"/>
<text text-anchor="middle" x="603.74" y="-14.3" font-family="Times,serif" font-size="14.00">dra.PlaySfx</text>
</a>
</g>
</g>
<!-- dra.func_801120B4&#45;&gt;dra.PlaySfx -->
<g id="edge3" class="edge">
<title>dra.func_801120B4&#45;&gt;dra.PlaySfx</title>
<path fill="none" stroke="black" d="M1070.73,-181.67C975.49,-148.49 750.9,-70.26 651.97,-35.8"/>
<polygon fill="black" stroke="black" points="653.11,-32.49 642.51,-32.51 650.8,-39.1 653.11,-32.49"/>
<text text-anchor="middle" x="637.51" y="-36.31" font-family="Times,serif" font-size="14.00">1</text>
</g>
<!-- dra.SetPlayerAnim -->
<g id="node5" class="node">
<title>dra.SetPlayerAnim</title>
<g id="a_node5"><a xlink:href="dra.SetPlayerAnim.svg" xlink:title="dra.SetPlayerAnim">
<ellipse fill="green" stroke="black" cx="784.74" cy="-18" rx="98.58" ry="18"/>
<text text-anchor="middle" x="784.74" y="-14.3" font-family="Times,serif" font-size="14.00">dra.SetPlayerAnim</text>
</a>
</g>
</g>
<!-- dra.func_801120B4&#45;&gt;dra.SetPlayerAnim -->
<g id="edge4" class="edge">
<title>dra.func_801120B4&#45;&gt;dra.SetPlayerAnim</title>
<path fill="none" stroke="black" d="M1084.58,-180.73C1024.55,-148.35 890.19,-75.88 823.63,-39.98"/>
<polygon fill="black" stroke="black" points="825.17,-36.83 814.71,-35.17 821.85,-42.99 825.17,-36.83"/>
<text text-anchor="middle" x="809.71" y="-38.97" font-family="Times,serif" font-size="14.00">8</text>
</g>
<!-- dra.func_8010DFF0 -->
<g id="node6" class="node">
<title>dra.func_8010DFF0</title>
<g id="a_node6"><a xlink:href="dra.func_8010DFF0.svg" xlink:title="dra.func_8010DFF0">
<ellipse fill="green" stroke="black" cx="1003.74" cy="-18" rx="102.88" ry="18"/>
<text text-anchor="middle" x="1003.74" y="-14.3" font-family="Times,serif" font-size="14.00">dra.func_8010DFF0</text>
</a>
</g>
</g>
<!-- dra.func_801120B4&#45;&gt;dra.func_8010DFF0 -->
<g id="edge5" class="edge">
<title>dra.func_801120B4&#45;&gt;dra.func_8010DFF0</title>
<path fill="none" stroke="black" d="M1104.09,-179.93C1084.53,-148.57 1042.77,-81.6 1019.77,-44.71"/>
<polygon fill="black" stroke="black" points="1022.61,-42.65 1014.35,-36.02 1016.67,-46.35 1022.61,-42.65"/>
<text text-anchor="middle" x="1009.35" y="-39.82" font-family="Times,serif" font-size="14.00">7</text>
</g>
<!-- dra.func_8010E27C -->
<g id="node7" class="node">
<title>dra.func_8010E27C</title>
<g id="a_node7"><a xlink:href="dra.func_8010E27C.svg" xlink:title="dra.func_8010E27C">
<ellipse fill="green" stroke="black" cx="1226.74" cy="-18" rx="102.88" ry="18"/>
<text text-anchor="middle" x="1226.74" y="-14.3" font-family="Times,serif" font-size="14.00">dra.func_8010E27C</text>
</a>
</g>
</g>
<!-- dra.func_801120B4&#45;&gt;dra.func_8010E27C -->
<g id="edge6" class="edge">
<title>dra.func_801120B4&#45;&gt;dra.func_8010E27C</title>
<path fill="none" stroke="black" d="M1125.47,-179.93C1145.21,-148.57 1187.35,-81.6 1210.56,-44.71"/>
<polygon fill="black" stroke="black" points="1213.67,-46.34 1216.03,-36.02 1207.74,-42.62 1213.67,-46.34"/>
<text text-anchor="middle" x="1211.03" y="-39.82" font-family="Times,serif" font-size="14.00">3</text>
</g>
<!-- dra.func_8010E570 -->
<g id="node8" class="node">
<title>dra.func_8010E570</title>
<g id="a_node8"><a xlink:href="dra.func_8010E570.svg" xlink:title="dra.func_8010E570">
<ellipse fill="green" stroke="black" cx="1448.74" cy="-18" rx="101.28" ry="18"/>
<text text-anchor="middle" x="1448.74" y="-14.3" font-family="Times,serif" font-size="14.00">dra.func_8010E570</text>
</a>
</g>
</g>
<!-- dra.func_801120B4&#45;&gt;dra.func_8010E570 -->
<g id="edge7" class="edge">
<title>dra.func_801120B4&#45;&gt;dra.func_8010E570</title>
<path fill="none" stroke="black" d="M1145.26,-180.73C1205.86,-148.44 1341.31,-76.25 1408.85,-40.25"/>
<polygon fill="black" stroke="black" points="1410.74,-43.22 1417.92,-35.42 1407.45,-37.04 1410.74,-43.22"/>
<text text-anchor="middle" x="1412.92" y="-39.22" font-family="Times,serif" font-size="14.00">1</text>
</g>
<!-- dra.func_8010E6AC -->
<g id="node9" class="node">
<title>dra.func_8010E6AC</title>
<g id="a_node9"><a xlink:href="dra.func_8010E6AC.svg" xlink:title="dra.func_8010E6AC">
<ellipse fill="green" stroke="black" cx="1670.74" cy="-18" rx="102.88" ry="18"/>
<text text-anchor="middle" x="1670.74" y="-14.3" font-family="Times,serif" font-size="14.00">dra.func_8010E6AC</text>
</a>
</g>
</g>
<!-- dra.func_801120B4&#45;&gt;dra.func_8010E6AC -->
<g id="edge8" class="edge">
<title>dra.func_801120B4&#45;&gt;dra.func_8010E6AC</title>
<path fill="none" stroke="black" d="M1161.66,-181.98C1263.44,-149.39 1504.16,-72.33 1614.15,-37.12"/>
<polygon fill="black" stroke="black" points="1615.28,-40.43 1623.74,-34.05 1613.15,-33.76 1615.28,-40.43"/>
<text text-anchor="middle" x="1618.74" y="-37.85" font-family="Times,serif" font-size="14.00">1</text>
</g>
<!-- dra.func_8010FAF4 -->
<g id="node10" class="node">
<title>dra.func_8010FAF4</title>
<g id="a_node10"><a xlink:href="dra.func_8010FAF4.svg" xlink:title="dra.func_8010FAF4">
<ellipse fill="green" stroke="black" cx="1891.74" cy="-18" rx="100.98" ry="18"/>
<text text-anchor="middle" x="1891.74" y="-14.3" font-family="Times,serif" font-size="14.00">dra.func_8010FAF4</text>
</a>
</g>
</g>
<!-- dra.func_801120B4&#45;&gt;dra.func_8010FAF4 -->
<g id="edge9" class="edge">
<title>dra.func_801120B4&#45;&gt;dra.func_8010FAF4</title>
<path fill="none" stroke="black" d="M1174.09,-183.4C1315.41,-151.03 1671.23,-69.51 1822.24,-34.92"/>
<polygon fill="black" stroke="black" points="1823.35,-38.26 1832.32,-32.61 1821.79,-31.43 1823.35,-38.26"/>
<text text-anchor="middle" x="1827.32" y="-36.41" font-family="Times,serif" font-size="14.00">1</text>
</g>
<!-- dra.func_8010FDF8 -->
<g id="node11" class="node">
<title>dra.func_8010FDF8</title>
<g id="a_node11"><a xlink:href="dra.func_8010FDF8.svg" xlink:title="dra.func_8010FDF8">
<ellipse fill="green" stroke="black" cx="2112.74" cy="-18" rx="102.88" ry="18"/>
<text text-anchor="middle" x="2112.74" y="-14.3" font-family="Times,serif" font-size="14.00">dra.func_8010FDF8</text>
</a>
</g>
</g>
<!-- dra.func_801120B4&#45;&gt;dra.func_8010FDF8 -->
<g id="edge10" class="edge">
<title>dra.func_801120B4&#45;&gt;dra.func_8010FDF8</title>
<path fill="none" stroke="black" d="M1183.73,-184.7C1363.07,-152.71 1843.18,-67.08 2033.47,-33.14"/>
<polygon fill="black" stroke="black" points="2034.17,-36.57 2043.4,-31.37 2032.94,-29.68 2034.17,-36.57"/>
<text text-anchor="middle" x="2038.4" y="-35.17" font-family="Times,serif" font-size="14.00">2</text>
</g>
<!-- dra.EntityAlucard -->
<g id="node12" class="node">
<title>dra.EntityAlucard</title>
<g id="a_node12"><a xlink:href="dra.EntityAlucard.svg" xlink:title="dra.EntityAlucard">
<ellipse fill="green" stroke="black" cx="1114.74" cy="-378" rx="93.68" ry="18"/>
<text text-anchor="middle" x="1114.74" y="-374.3" font-family="Times,serif" font-size="14.00">dra.EntityAlucard</text>
</a>
</g>
</g>
<!-- dra.EntityAlucard&#45;&gt;dra.func_801120B4 -->
<g id="edge11" class="edge">
<title>dra.EntityAlucard&#45;&gt;dra.func_801120B4</title>
<path fill="none" stroke="black" d="M1114.74,-359.93C1114.74,-328.97 1114.74,-263.3 1114.74,-226.13"/>
<polygon fill="black" stroke="black" points="1118.24,-226.02 1114.74,-216.02 1111.24,-226.02 1118.24,-226.02"/>
<text text-anchor="middle" x="1109.74" y="-348.73" font-family="Times,serif" font-size="14.00">1</text>
</g>
</g>
</svg>
