<?xml version="1.0" encoding="UTF-8" standalone="no"?>
<!DOCTYPE svg PUBLIC "-//W3C//DTD SVG 1.1//EN"
 "http://www.w3.org/Graphics/SVG/1.1/DTD/svg11.dtd">
<!-- Generated by graphviz version 2.43.0 (0)
 -->
<!-- Title: dra.UpdateCd Pages: 1 -->
<svg width="3472pt" height="404pt"
 viewBox="0.00 0.00 3471.53 404.00" xmlns="http://www.w3.org/2000/svg" xmlns:xlink="http://www.w3.org/1999/xlink">
<g id="graph0" class="graph" transform="scale(1 1) rotate(0) translate(4 400)">
<title>dra.UpdateCd</title>
<polygon fill="white" stroke="transparent" points="-4,4 -4,-400 3467.53,-400 3467.53,4 -4,4"/>
<!-- dra.UpdateCd -->
<g id="node1" class="node">
<title>dra.UpdateCd</title>
<ellipse fill="green" stroke="black" cx="1407.84" cy="-198" rx="76.09" ry="18"/>
<text text-anchor="middle" x="1407.84" y="-194.3" font-family="Times,serif" font-size="14.00">dra.UpdateCd</text>
</g>
<!-- CdControl -->
<g id="node2" class="node">
<title>CdControl</title>
<g id="a_node2"><a xlink:href="CdControl.svg" xlink:title="CdControl">
<ellipse fill="lightblue" stroke="black" cx="57.84" cy="-18" rx="57.69" ry="18"/>
<text text-anchor="middle" x="57.84" y="-14.3" font-family="Times,serif" font-size="14.00">CdControl</text>
</a>
</g>
</g>
<!-- dra.UpdateCd&#45;&gt;CdControl -->
<g id="edge1" class="edge">
<title>dra.UpdateCd&#45;&gt;CdControl</title>
<path fill="none" stroke="black" d="M1337.13,-191.22C1142.54,-174.66 583.12,-122.55 124.84,-36 119.89,-35.06 114.75,-33.98 109.63,-32.81"/>
<polygon fill="black" stroke="black" points="110.38,-29.39 99.84,-30.5 108.77,-36.21 110.38,-29.39"/>
<text text-anchor="middle" x="94.84" y="-34.3" font-family="Times,serif" font-size="14.00">8</text>
</g>
<!-- CdControlF -->
<g id="node3" class="node">
<title>CdControlF</title>
<g id="a_node3"><a xlink:href="CdControlF.svg" xlink:title="CdControlF">
<ellipse fill="lightblue" stroke="black" cx="197.84" cy="-18" rx="64.19" ry="18"/>
<text text-anchor="middle" x="197.84" y="-14.3" font-family="Times,serif" font-size="14.00">CdControlF</text>
</a>
</g>
</g>
<!-- dra.UpdateCd&#45;&gt;CdControlF -->
<g id="edge2" class="edge">
<title>dra.UpdateCd&#45;&gt;CdControlF</title>
<path fill="none" stroke="black" d="M1340.55,-189.57C1164.18,-169.65 674.3,-111.39 270.84,-36 265.49,-35 259.93,-33.87 254.38,-32.68"/>
<polygon fill="black" stroke="black" points="254.97,-29.23 244.45,-30.5 253.46,-36.06 254.97,-29.23"/>
<text text-anchor="middle" x="239.45" y="-34.3" font-family="Times,serif" font-size="14.00">2</text>
</g>
<!-- CdDataCallback -->
<g id="node4" class="node">
<title>CdDataCallback</title>
<g id="a_node4"><a xlink:href="CdDataCallback.svg" xlink:title="CdDataCallback">
<ellipse fill="lightblue" stroke="black" cx="364.84" cy="-18" rx="85.29" ry="18"/>
<text text-anchor="middle" x="364.84" y="-14.3" font-family="Times,serif" font-size="14.00">CdDataCallback</text>
</a>
</g>
</g>
<!-- dra.UpdateCd&#45;&gt;CdDataCallback -->
<g id="edge3" class="edge">
<title>dra.UpdateCd&#45;&gt;CdDataCallback</title>
<path fill="none" stroke="black" d="M1347.57,-187.01C1197.39,-162.06 794.43,-94.81 458.84,-36 451.77,-34.76 444.4,-33.45 437.03,-32.14"/>
<polygon fill="black" stroke="black" points="437.48,-28.66 427.02,-30.34 436.25,-35.55 437.48,-28.66"/>
<text text-anchor="middle" x="422.02" y="-34.14" font-family="Times,serif" font-size="14.00">1</text>
</g>
<!-- CdInit -->
<g id="node5" class="node">
<title>CdInit</title>
<g id="a_node5"><a xlink:href="CdInit.svg" xlink:title="CdInit">
<ellipse fill="lightblue" stroke="black" cx="507.84" cy="-18" rx="39.79" ry="18"/>
<text text-anchor="middle" x="507.84" y="-14.3" font-family="Times,serif" font-size="14.00">CdInit</text>
</a>
</g>
</g>
<!-- dra.UpdateCd&#45;&gt;CdInit -->
<g id="edge4" class="edge">
<title>dra.UpdateCd&#45;&gt;CdInit</title>
<path fill="none" stroke="black" d="M1343.49,-188.29C1200.36,-168.18 845.43,-114.14 555.84,-36 552.91,-35.21 549.9,-34.32 546.88,-33.38"/>
<polygon fill="black" stroke="black" points="547.92,-30.04 537.32,-30.24 545.73,-36.69 547.92,-30.04"/>
<text text-anchor="middle" x="532.32" y="-34.04" font-family="Times,serif" font-size="14.00">2</text>
</g>
<!-- CdIntToPos -->
<g id="node6" class="node">
<title>CdIntToPos</title>
<g id="a_node6"><a xlink:href="CdIntToPos.svg" xlink:title="CdIntToPos">
<ellipse fill="lightblue" stroke="black" cx="628.84" cy="-18" rx="63.89" ry="18"/>
<text text-anchor="middle" x="628.84" y="-14.3" font-family="Times,serif" font-size="14.00">CdIntToPos</text>
</a>
</g>
</g>
<!-- dra.UpdateCd&#45;&gt;CdIntToPos -->
<g id="edge5" class="edge">
<title>dra.UpdateCd&#45;&gt;CdIntToPos</title>
<path fill="none" stroke="black" d="M1354.6,-185.03C1236.73,-158.49 944.88,-92.59 700.84,-36 695.97,-34.87 690.9,-33.69 685.82,-32.5"/>
<polygon fill="black" stroke="black" points="686.62,-29.09 676.08,-30.21 685.02,-35.9 686.62,-29.09"/>
<text text-anchor="middle" x="671.08" y="-34.01" font-family="Times,serif" font-size="14.00">6</text>
</g>
<!-- CdReadyCallback -->
<g id="node7" class="node">
<title>CdReadyCallback</title>
<g id="a_node7"><a xlink:href="CdReadyCallback.svg" xlink:title="CdReadyCallback">
<ellipse fill="lightblue" stroke="black" cx="801.84" cy="-18" rx="91.78" ry="18"/>
<text text-anchor="middle" x="801.84" y="-14.3" font-family="Times,serif" font-size="14.00">CdReadyCallback</text>
</a>
</g>
</g>
<!-- dra.UpdateCd&#45;&gt;CdReadyCallback -->
<g id="edge6" class="edge">
<title>dra.UpdateCd&#45;&gt;CdReadyCallback</title>
<path fill="none" stroke="black" d="M1361.8,-183.47C1253.13,-151.55 980.82,-71.57 860.53,-36.24"/>
<polygon fill="black" stroke="black" points="861.34,-32.83 850.76,-33.37 859.37,-39.54 861.34,-32.83"/>
<text text-anchor="middle" x="845.76" y="-37.17" font-family="Times,serif" font-size="14.00">1</text>
</g>
<!-- CdSync -->
<g id="node8" class="node">
<title>CdSync</title>
<g id="a_node8"><a xlink:href="CdSync.svg" xlink:title="CdSync">
<ellipse fill="lightblue" stroke="black" cx="957.84" cy="-18" rx="46.29" ry="18"/>
<text text-anchor="middle" x="957.84" y="-14.3" font-family="Times,serif" font-size="14.00">CdSync</text>
</a>
</g>
</g>
<!-- dra.UpdateCd&#45;&gt;CdSync -->
<g id="edge7" class="edge">
<title>dra.UpdateCd&#45;&gt;CdSync</title>
<path fill="none" stroke="black" d="M1370.64,-182.28C1287.1,-149.24 1085.19,-69.37 998.5,-35.08"/>
<polygon fill="black" stroke="black" points="999.59,-31.75 989.01,-31.33 997.02,-38.26 999.59,-31.75"/>
<text text-anchor="middle" x="998.51" y="-35.13" font-family="Times,serif" font-size="14.00">14</text>
</g>
<!-- DrawSync -->
<g id="node9" class="node">
<title>DrawSync</title>
<g id="a_node9"><a xlink:href="DrawSync.svg" xlink:title="DrawSync">
<ellipse fill="lightblue" stroke="black" cx="1079.84" cy="-18" rx="57.69" ry="18"/>
<text text-anchor="middle" x="1079.84" y="-14.3" font-family="Times,serif" font-size="14.00">DrawSync</text>
</a>
</g>
</g>
<!-- dra.UpdateCd&#45;&gt;DrawSync -->
<g id="edge8" class="edge">
<title>dra.UpdateCd&#45;&gt;DrawSync</title>
<path fill="none" stroke="black" d="M1378.74,-181.2C1318.96,-148.77 1182.48,-74.7 1116.67,-38.99"/>
<polygon fill="black" stroke="black" points="1117.95,-35.7 1107.49,-34 1114.61,-41.85 1117.95,-35.7"/>
<text text-anchor="middle" x="1102.49" y="-37.8" font-family="Times,serif" font-size="14.00">1</text>
</g>
<!-- FntPrint -->
<g id="node10" class="node">
<title>FntPrint</title>
<g id="a_node10"><a xlink:href="FntPrint.svg" xlink:title="FntPrint">
<ellipse fill="lightblue" stroke="black" cx="1205.84" cy="-18" rx="50.09" ry="18"/>
<text text-anchor="middle" x="1205.84" y="-14.3" font-family="Times,serif" font-size="14.00">FntPrint</text>
</a>
</g>
</g>
<!-- dra.UpdateCd&#45;&gt;FntPrint -->
<g id="edge9" class="edge">
<title>dra.UpdateCd&#45;&gt;FntPrint</title>
<path fill="none" stroke="black" d="M1388.84,-180.25C1352.47,-148.21 1272.98,-78.16 1231.78,-41.85"/>
<polygon fill="black" stroke="black" points="1233.88,-39.04 1224.07,-35.06 1229.26,-44.3 1233.88,-39.04"/>
<text text-anchor="middle" x="1219.07" y="-38.86" font-family="Times,serif" font-size="14.00">7</text>
</g>
<!-- LoadImage -->
<g id="node11" class="node">
<title>LoadImage</title>
<g id="a_node11"><a xlink:href="LoadImage.svg" xlink:title="LoadImage">
<ellipse fill="lightblue" stroke="black" cx="1335.84" cy="-18" rx="61.99" ry="18"/>
<text text-anchor="middle" x="1335.84" y="-14.3" font-family="Times,serif" font-size="14.00">LoadImage</text>
</a>
</g>
</g>
<!-- dra.UpdateCd&#45;&gt;LoadImage -->
<g id="edge10" class="edge">
<title>dra.UpdateCd&#45;&gt;LoadImage</title>
<path fill="none" stroke="black" d="M1400.94,-179.93C1388.36,-148.83 1361.63,-82.73 1346.63,-45.65"/>
<polygon fill="black" stroke="black" points="1349.72,-43.97 1342.73,-36.02 1343.23,-46.6 1349.72,-43.97"/>
<text text-anchor="middle" x="1337.73" y="-39.82" font-family="Times,serif" font-size="14.00">2</text>
</g>
<!-- SsVabClose -->
<g id="node12" class="node">
<title>SsVabClose</title>
<g id="a_node12"><a xlink:href="SsVabClose.svg" xlink:title="SsVabClose">
<ellipse fill="lightblue" stroke="black" cx="1479.84" cy="-18" rx="64.19" ry="18"/>
<text text-anchor="middle" x="1479.84" y="-14.3" font-family="Times,serif" font-size="14.00">SsVabClose</text>
</a>
</g>
</g>
<!-- dra.UpdateCd&#45;&gt;SsVabClose -->
<g id="edge11" class="edge">
<title>dra.UpdateCd&#45;&gt;SsVabClose</title>
<path fill="none" stroke="black" d="M1414.75,-179.93C1427.33,-148.83 1454.06,-82.73 1469.06,-45.65"/>
<polygon fill="black" stroke="black" points="1472.46,-46.6 1472.96,-36.02 1465.97,-43.97 1472.46,-46.6"/>
<text text-anchor="middle" x="1467.96" y="-39.82" font-family="Times,serif" font-size="14.00">1</text>
</g>
<!-- SsVabOpenHeadSticky -->
<g id="node13" class="node">
<title>SsVabOpenHeadSticky</title>
<g id="a_node13"><a xlink:href="SsVabOpenHeadSticky.svg" xlink:title="SsVabOpenHeadSticky">
<ellipse fill="lightblue" stroke="black" cx="1678.84" cy="-18" rx="116.18" ry="18"/>
<text text-anchor="middle" x="1678.84" y="-14.3" font-family="Times,serif" font-size="14.00">SsVabOpenHeadSticky</text>
</a>
</g>
</g>
<!-- dra.UpdateCd&#45;&gt;SsVabOpenHeadSticky -->
<g id="edge12" class="edge">
<title>dra.UpdateCd&#45;&gt;SsVabOpenHeadSticky</title>
<path fill="none" stroke="black" d="M1432.37,-180.89C1480.98,-148.97 1589.6,-77.62 1644.98,-41.25"/>
<polygon fill="black" stroke="black" points="1646.95,-44.14 1653.39,-35.72 1643.11,-38.28 1646.95,-44.14"/>
<text text-anchor="middle" x="1648.39" y="-39.52" font-family="Times,serif" font-size="14.00">1</text>
</g>
<!-- StoreImage -->
<g id="node14" class="node">
<title>StoreImage</title>
<g id="a_node14"><a xlink:href="StoreImage.svg" xlink:title="StoreImage">
<ellipse fill="lightblue" stroke="black" cx="1877.84" cy="-18" rx="64.99" ry="18"/>
<text text-anchor="middle" x="1877.84" y="-14.3" font-family="Times,serif" font-size="14.00">StoreImage</text>
</a>
</g>
</g>
<!-- dra.UpdateCd&#45;&gt;StoreImage -->
<g id="edge13" class="edge">
<title>dra.UpdateCd&#45;&gt;StoreImage</title>
<path fill="none" stroke="black" d="M1446.31,-182.43C1532.17,-149.92 1739.17,-71.52 1831.75,-36.46"/>
<polygon fill="black" stroke="black" points="1833.03,-39.72 1841.14,-32.9 1830.55,-33.17 1833.03,-39.72"/>
<text text-anchor="middle" x="1836.14" y="-36.7" font-family="Times,serif" font-size="14.00">4</text>
</g>
<!-- dra.MuteSound -->
<g id="node15" class="node">
<title>dra.MuteSound</title>
<g id="a_node15"><a xlink:href="dra.MuteSound.svg" xlink:title="dra.MuteSound">
<ellipse fill="green" stroke="black" cx="2043.84" cy="-18" rx="83.39" ry="18"/>
<text text-anchor="middle" x="2043.84" y="-14.3" font-family="Times,serif" font-size="14.00">dra.MuteSound</text>
</a>
</g>
</g>
<!-- dra.UpdateCd&#45;&gt;dra.MuteSound -->
<g id="edge14" class="edge">
<title>dra.UpdateCd&#45;&gt;dra.MuteSound</title>
<path fill="none" stroke="black" d="M1454.87,-183.84C1568.89,-151.93 1859.87,-70.49 1985.09,-35.44"/>
<polygon fill="black" stroke="black" points="1986.2,-38.77 1994.89,-32.7 1984.32,-32.03 1986.2,-38.77"/>
<text text-anchor="middle" x="1989.89" y="-36.5" font-family="Times,serif" font-size="14.00">2</text>
</g>
<!-- dra.PlaySfx -->
<g id="node16" class="node">
<title>dra.PlaySfx</title>
<g id="a_node16"><a xlink:href="dra.PlaySfx.svg" xlink:title="dra.PlaySfx">
<ellipse fill="green" stroke="black" cx="2209.84" cy="-18" rx="64.19" ry="18"/>
<text text-anchor="middle" x="2209.84" y="-14.3" font-family="Times,serif" font-size="14.00">dra.PlaySfx</text>
</a>
</g>
</g>
<!-- dra.UpdateCd&#45;&gt;dra.PlaySfx -->
<g id="edge15" class="edge">
<title>dra.UpdateCd&#45;&gt;dra.PlaySfx</title>
<path fill="none" stroke="black" d="M1461.76,-185.23C1582.53,-158.84 1883.93,-92.79 2135.84,-36 2141.07,-34.82 2146.5,-33.59 2151.94,-32.35"/>
<polygon fill="black" stroke="black" points="2152.72,-35.76 2161.69,-30.12 2151.16,-28.94 2152.72,-35.76"/>
<text text-anchor="middle" x="2156.69" y="-33.92" font-family="Times,serif" font-size="14.00">1</text>
</g>
<!-- dra.func_801073C0 -->
<g id="node17" class="node">
<title>dra.func_801073C0</title>
<g id="a_node17"><a xlink:href="dra.func_801073C0.svg" xlink:title="dra.func_801073C0">
<ellipse fill="green" stroke="black" cx="2393.84" cy="-18" rx="101.28" ry="18"/>
<text text-anchor="middle" x="2393.84" y="-14.3" font-family="Times,serif" font-size="14.00">dra.func_801073C0</text>
</a>
</g>
</g>
<!-- dra.UpdateCd&#45;&gt;dra.func_801073C0 -->
<g id="edge16" class="edge">
<title>dra.UpdateCd&#45;&gt;dra.func_801073C0</title>
<path fill="none" stroke="black" d="M1466.57,-186.4C1635.7,-155.87 2124,-67.71 2315.48,-33.15"/>
<polygon fill="black" stroke="black" points="2316.25,-36.56 2325.47,-31.34 2315.01,-29.68 2316.25,-36.56"/>
<text text-anchor="middle" x="2320.47" y="-35.14" font-family="Times,serif" font-size="14.00">4</text>
</g>
<!-- dra.func_801073E8 -->
<g id="node18" class="node">
<title>dra.func_801073E8</title>
<g id="a_node18"><a xlink:href="dra.func_801073E8.svg" xlink:title="dra.func_801073E8">
<ellipse fill="green" stroke="black" cx="2614.84" cy="-18" rx="101.28" ry="18"/>
<text text-anchor="middle" x="2614.84" y="-14.3" font-family="Times,serif" font-size="14.00">dra.func_801073E8</text>
</a>
</g>
</g>
<!-- dra.UpdateCd&#45;&gt;dra.func_801073E8 -->
<g id="edge17" class="edge">
<title>dra.UpdateCd&#45;&gt;dra.func_801073E8</title>
<path fill="none" stroke="black" d="M1470.88,-187.88C1638.83,-163.54 2111.1,-94.92 2503.84,-36 2512.69,-34.67 2521.94,-33.27 2531.15,-31.87"/>
<polygon fill="black" stroke="black" points="2531.76,-35.32 2541.12,-30.36 2530.7,-28.4 2531.76,-35.32"/>
<text text-anchor="middle" x="2536.12" y="-34.16" font-family="Times,serif" font-size="14.00">1</text>
</g>
<!-- dra.func_8010838C -->
<g id="node19" class="node">
<title>dra.func_8010838C</title>
<g id="a_node19"><a xlink:href="dra.func_8010838C.svg" xlink:title="dra.func_8010838C">
<ellipse fill="green" stroke="black" cx="2835.84" cy="-18" rx="101.28" ry="18"/>
<text text-anchor="middle" x="2835.84" y="-14.3" font-family="Times,serif" font-size="14.00">dra.func_8010838C</text>
</a>
</g>
</g>
<!-- dra.UpdateCd&#45;&gt;dra.func_8010838C -->
<g id="edge18" class="edge">
<title>dra.UpdateCd&#45;&gt;dra.func_8010838C</title>
<path fill="none" stroke="black" d="M1475.1,-189.51C1669.16,-167.73 2246.77,-101.81 2724.84,-36 2733.85,-34.76 2743.26,-33.41 2752.62,-32.03"/>
<polygon fill="black" stroke="black" points="2753.37,-35.45 2762.75,-30.52 2752.34,-28.53 2753.37,-35.45"/>
<text text-anchor="middle" x="2757.75" y="-34.32" font-family="Times,serif" font-size="14.00">5</text>
</g>
<!-- dra.func_80131EBC -->
<g id="node20" class="node">
<title>dra.func_80131EBC</title>
<g id="a_node20"><a xlink:href="dra.func_80131EBC.svg" xlink:title="dra.func_80131EBC">
<ellipse fill="green" stroke="black" cx="3058.84" cy="-18" rx="103.18" ry="18"/>
<text text-anchor="middle" x="3058.84" y="-14.3" font-family="Times,serif" font-size="14.00">dra.func_80131EBC</text>
</a>
</g>
</g>
<!-- dra.UpdateCd&#45;&gt;dra.func_80131EBC -->
<g id="edge19" class="edge">
<title>dra.UpdateCd&#45;&gt;dra.func_80131EBC</title>
<path fill="none" stroke="black" d="M1477.72,-190.82C1695.41,-171.31 2380.59,-108.07 2945.84,-36 2955.19,-34.81 2964.96,-33.47 2974.67,-32.09"/>
<polygon fill="black" stroke="black" points="2975.36,-35.53 2984.75,-30.63 2974.36,-28.6 2975.36,-35.53"/>
<text text-anchor="middle" x="2979.75" y="-34.43" font-family="Times,serif" font-size="14.00">1</text>
</g>
<!-- main.SsVabTransCompleted -->
<g id="node21" class="node">
<title>main.SsVabTransCompleted</title>
<g id="a_node21"><a xlink:href="main.SsVabTransCompleted.svg" xlink:title="main.SsVabTransCompleted">
<ellipse fill="green" stroke="black" cx="3321.84" cy="-18" rx="141.88" ry="18"/>
<text text-anchor="middle" x="3321.84" y="-14.3" font-family="Times,serif" font-size="14.00">main.SsVabTransCompleted</text>
</a>
</g>
</g>
<!-- dra.UpdateCd&#45;&gt;main.SsVabTransCompleted -->
<g id="edge20" class="edge">
<title>dra.UpdateCd&#45;&gt;main.SsVabTransCompleted</title>
<path fill="none" stroke="black" d="M1478.44,-191.09C1716.76,-171.03 2513.45,-103.02 3170.84,-36 3183.71,-34.69 3197.18,-33.26 3210.55,-31.8"/>
<polygon fill="black" stroke="black" points="3211.19,-35.25 3220.75,-30.68 3210.43,-28.29 3211.19,-35.25"/>
<text text-anchor="middle" x="3215.75" y="-34.48" font-family="Times,serif" font-size="14.00">2</text>
</g>
<!-- dra.MainGame -->
<g id="node22" class="node">
<title>dra.MainGame</title>
<g id="a_node22"><a xlink:href="dra.MainGame.svg" xlink:title="dra.MainGame">
<ellipse fill="green" stroke="black" cx="1407.84" cy="-378" rx="79.09" ry="18"/>
<text text-anchor="middle" x="1407.84" y="-374.3" font-family="Times,serif" font-size="14.00">dra.MainGame</text>
</a>
</g>
</g>
<!-- dra.MainGame&#45;&gt;dra.UpdateCd -->
<g id="edge21" class="edge">
<title>dra.MainGame&#45;&gt;dra.UpdateCd</title>
<path fill="none" stroke="black" d="M1407.84,-359.93C1407.84,-328.97 1407.84,-263.3 1407.84,-226.13"/>
<polygon fill="black" stroke="black" points="1411.34,-226.02 1407.84,-216.02 1404.34,-226.02 1411.34,-226.02"/>
<text text-anchor="middle" x="1402.84" y="-348.73" font-family="Times,serif" font-size="14.00">1</text>
</g>
</g>
</svg>
