<?xml version="1.0" encoding="UTF-8" standalone="no"?>
<!DOCTYPE svg PUBLIC "-//W3C//DTD SVG 1.1//EN"
 "http://www.w3.org/Graphics/SVG/1.1/DTD/svg11.dtd">
<!-- Generated by graphviz version 2.43.0 (0)
 -->
<!-- Title: dra.func_800F1FC4 Pages: 1 -->
<svg width="1383pt" height="404pt"
 viewBox="0.00 0.00 1383.28 404.00" xmlns="http://www.w3.org/2000/svg" xmlns:xlink="http://www.w3.org/1999/xlink">
<g id="graph0" class="graph" transform="scale(1 1) rotate(0) translate(4 400)">
<title>dra.func_800F1FC4</title>
<polygon fill="white" stroke="transparent" points="-4,4 -4,-400 1379.28,-400 1379.28,4 -4,4"/>
<!-- dra.func_800F1FC4 -->
<g id="node1" class="node">
<title>dra.func_800F1FC4</title>
<ellipse fill="green" stroke="black" cx="579.24" cy="-198" rx="102.88" ry="18"/>
<text text-anchor="middle" x="579.24" y="-194.3" font-family="Times,serif" font-size="14.00">dra.func_800F1FC4</text>
</g>
<!-- dra.func_800F1EB0 -->
<g id="node2" class="node">
<title>dra.func_800F1EB0</title>
<g id="a_node2"><a xlink:href="dra.func_800F1EB0.svg" xlink:title="dra.func_800F1EB0">
<ellipse fill="green" stroke="black" cx="579.24" cy="-18" rx="102.88" ry="18"/>
<text text-anchor="middle" x="579.24" y="-14.3" font-family="Times,serif" font-size="14.00">dra.func_800F1EB0</text>
</a>
</g>
</g>
<!-- dra.func_800F1FC4&#45;&gt;dra.func_800F1EB0 -->
<g id="edge1" class="edge">
<title>dra.func_800F1FC4&#45;&gt;dra.func_800F1EB0</title>
<path fill="none" stroke="black" d="M579.24,-179.93C579.24,-148.97 579.24,-83.3 579.24,-46.13"/>
<polygon fill="black" stroke="black" points="582.74,-46.02 579.24,-36.02 575.74,-46.02 582.74,-46.02"/>
<text text-anchor="middle" x="574.24" y="-39.82" font-family="Times,serif" font-size="14.00">1</text>
</g>
<!-- no0.func_us_801CCC74 -->
<g id="node3" class="node">
<title>no0.func_us_801CCC74</title>
<g id="a_node3"><a xlink:href="no0.func_us_801CCC74.svg" xlink:title="no0.func_us_801CCC74">
<ellipse fill="red" stroke="black" cx="120.24" cy="-378" rx="120.48" ry="18"/>
<text text-anchor="middle" x="120.24" y="-374.3" font-family="Times,serif" font-size="14.00">no0.func_us_801CCC74</text>
</a>
</g>
</g>
<!-- no0.func_us_801CCC74&#45;&gt;dra.func_800F1FC4 -->
<g id="edge2" class="edge">
<title>no0.func_us_801CCC74&#45;&gt;dra.func_800F1FC4</title>
<path fill="none" stroke="black" d="M161.38,-361.05C245.77,-328.32 438.2,-253.7 529.45,-218.31"/>
<polygon fill="black" stroke="black" points="530.96,-221.48 539.02,-214.6 528.43,-214.95 530.96,-221.48"/>
<text text-anchor="middle" x="156.38" y="-349.85" font-family="Times,serif" font-size="14.00">1</text>
</g>
<!-- no3.EntityUnkId26 -->
<g id="node4" class="node">
<title>no3.EntityUnkId26</title>
<g id="a_node4"><a xlink:href="no3.EntityUnkId26.svg" xlink:title="no3.EntityUnkId26">
<ellipse fill="green" stroke="black" cx="358.24" cy="-378" rx="99.38" ry="18"/>
<text text-anchor="middle" x="358.24" y="-374.3" font-family="Times,serif" font-size="14.00">no3.EntityUnkId26</text>
</a>
</g>
</g>
<!-- no3.EntityUnkId26&#45;&gt;dra.func_800F1FC4 -->
<g id="edge3" class="edge">
<title>no3.EntityUnkId26&#45;&gt;dra.func_800F1FC4</title>
<path fill="none" stroke="black" d="M379.03,-360.25C418.68,-328.32 505.18,-258.65 550.4,-222.23"/>
<polygon fill="black" stroke="black" points="552.75,-224.83 558.34,-215.83 548.36,-219.38 552.75,-224.83"/>
<text text-anchor="middle" x="374.03" y="-349.05" font-family="Times,serif" font-size="14.00">1</text>
</g>
<!-- np3.func_801B5488 -->
<g id="node5" class="node">
<title>np3.func_801B5488</title>
<g id="a_node5"><a xlink:href="np3.func_801B5488.svg" xlink:title="np3.func_801B5488">
<ellipse fill="green" stroke="black" cx="579.24" cy="-378" rx="103.18" ry="18"/>
<text text-anchor="middle" x="579.24" y="-374.3" font-family="Times,serif" font-size="14.00">np3.func_801B5488</text>
</a>
</g>
</g>
<!-- np3.func_801B5488&#45;&gt;dra.func_800F1FC4 -->
<g id="edge4" class="edge">
<title>np3.func_801B5488&#45;&gt;dra.func_800F1FC4</title>
<path fill="none" stroke="black" d="M579.24,-359.93C579.24,-328.97 579.24,-263.3 579.24,-226.13"/>
<polygon fill="black" stroke="black" points="582.74,-226.02 579.24,-216.02 575.74,-226.02 582.74,-226.02"/>
<text text-anchor="middle" x="574.24" y="-348.73" font-family="Times,serif" font-size="14.00">1</text>
</g>
<!-- nz0.EntityBottomSecretRoomFloor -->
<g id="node6" class="node">
<title>nz0.EntityBottomSecretRoomFloor</title>
<g id="a_node6"><a xlink:href="nz0.EntityBottomSecretRoomFloor.svg" xlink:title="nz0.EntityBottomSecretRoomFloor">
<ellipse fill="green" stroke="black" cx="875.24" cy="-378" rx="174.37" ry="18"/>
<text text-anchor="middle" x="875.24" y="-374.3" font-family="Times,serif" font-size="14.00">nz0.EntityBottomSecretRoomFloor</text>
</a>
</g>
</g>
<!-- nz0.EntityBottomSecretRoomFloor&#45;&gt;dra.func_800F1FC4 -->
<g id="edge5" class="edge">
<title>nz0.EntityBottomSecretRoomFloor&#45;&gt;dra.func_800F1FC4</title>
<path fill="none" stroke="black" d="M847.13,-360.09C793.18,-327.65 675.21,-256.71 615.46,-220.78"/>
<polygon fill="black" stroke="black" points="617.11,-217.69 606.74,-215.53 613.5,-223.69 617.11,-217.69"/>
<text text-anchor="middle" x="842.13" y="-348.89" font-family="Times,serif" font-size="14.00">1</text>
</g>
<!-- nz0.EntityLeftSecretRoomWall -->
<g id="node7" class="node">
<title>nz0.EntityLeftSecretRoomWall</title>
<g id="a_node7"><a xlink:href="nz0.EntityLeftSecretRoomWall.svg" xlink:title="nz0.EntityLeftSecretRoomWall">
<ellipse fill="green" stroke="black" cx="1221.24" cy="-378" rx="154.07" ry="18"/>
<text text-anchor="middle" x="1221.24" y="-374.3" font-family="Times,serif" font-size="14.00">nz0.EntityLeftSecretRoomWall</text>
</a>
</g>
</g>
<!-- nz0.EntityLeftSecretRoomWall&#45;&gt;dra.func_800F1FC4 -->
<g id="edge6" class="edge">
<title>nz0.EntityLeftSecretRoomWall&#45;&gt;dra.func_800F1FC4</title>
<path fill="none" stroke="black" d="M1164.27,-361.2C1044.15,-327.9 765.8,-250.73 641.33,-216.22"/>
<polygon fill="black" stroke="black" points="642.14,-212.81 631.56,-213.51 640.27,-219.55 642.14,-212.81"/>
<text text-anchor="middle" x="1159.27" y="-350" font-family="Times,serif" font-size="14.00">1</text>
</g>
</g>
</svg>
