<?xml version="1.0" encoding="UTF-8" standalone="no"?>
<!DOCTYPE svg PUBLIC "-//W3C//DTD SVG 1.1//EN"
 "http://www.w3.org/Graphics/SVG/1.1/DTD/svg11.dtd">
<!-- Generated by graphviz version 2.43.0 (0)
 -->
<!-- Title: dra.EntitySubwpnHolyWaterBreakGlass Pages: 1 -->
<svg width="517pt" height="224pt"
 viewBox="0.00 0.00 517.02 224.00" xmlns="http://www.w3.org/2000/svg" xmlns:xlink="http://www.w3.org/1999/xlink">
<g id="graph0" class="graph" transform="scale(1 1) rotate(0) translate(4 220)">
<title>dra.EntitySubwpnHolyWaterBreakGlass</title>
<polygon fill="white" stroke="transparent" points="-4,4 -4,-220 513.02,-220 513.02,4 -4,4"/>
<!-- dra.EntitySubwpnHolyWaterBreakGlass -->
<g id="node1" class="node">
<title>dra.EntitySubwpnHolyWaterBreakGlass</title>
<ellipse fill="green" stroke="black" cx="311.44" cy="-198" rx="197.66" ry="18"/>
<text text-anchor="middle" x="311.44" y="-194.3" font-family="Times,serif" font-size="14.00">dra.EntitySubwpnHolyWaterBreakGlass</text>
</g>
<!-- dra.AllocPrimitives -->
<g id="node2" class="node">
<title>dra.AllocPrimitives</title>
<g id="a_node2"><a xlink:href="dra.AllocPrimitives.svg" xlink:title="dra.AllocPrimitives">
<ellipse fill="green" stroke="black" cx="99.44" cy="-18" rx="99.38" ry="18"/>
<text text-anchor="middle" x="99.44" y="-14.3" font-family="Times,serif" font-size="14.00">dra.AllocPrimitives</text>
</a>
</g>
</g>
<!-- dra.EntitySubwpnHolyWaterBreakGlass&#45;&gt;dra.AllocPrimitives -->
<g id="edge1" class="edge">
<title>dra.EntitySubwpnHolyWaterBreakGlass&#45;&gt;dra.AllocPrimitives</title>
<path fill="none" stroke="black" d="M291.11,-179.93C252.95,-147.89 170.52,-78.68 127.25,-42.35"/>
<polygon fill="black" stroke="black" points="129.31,-39.51 119.4,-35.76 124.81,-44.87 129.31,-39.51"/>
<text text-anchor="middle" x="114.4" y="-39.56" font-family="Times,serif" font-size="14.00">1</text>
</g>
<!-- dra.DestroyEntity -->
<g id="node3" class="node">
<title>dra.DestroyEntity</title>
<g id="a_node3"><a xlink:href="dra.DestroyEntity.svg" xlink:title="dra.DestroyEntity">
<ellipse fill="green" stroke="black" cx="311.44" cy="-18" rx="94.78" ry="18"/>
<text text-anchor="middle" x="311.44" y="-14.3" font-family="Times,serif" font-size="14.00">dra.DestroyEntity</text>
</a>
</g>
</g>
<!-- dra.EntitySubwpnHolyWaterBreakGlass&#45;&gt;dra.DestroyEntity -->
<g id="edge2" class="edge">
<title>dra.EntitySubwpnHolyWaterBreakGlass&#45;&gt;dra.DestroyEntity</title>
<path fill="none" stroke="black" d="M311.44,-179.93C311.44,-148.97 311.44,-83.3 311.44,-46.13"/>
<polygon fill="black" stroke="black" points="314.94,-46.02 311.44,-36.02 307.94,-46.02 314.94,-46.02"/>
<text text-anchor="middle" x="306.44" y="-39.82" font-family="Times,serif" font-size="14.00">1</text>
</g>
<!-- rand -->
<g id="node4" class="node">
<title>rand</title>
<g id="a_node4"><a xlink:href="rand.svg" xlink:title="rand">
<ellipse fill="lightblue" stroke="black" cx="456.44" cy="-18" rx="32.49" ry="18"/>
<text text-anchor="middle" x="456.44" y="-14.3" font-family="Times,serif" font-size="14.00">rand</text>
</a>
</g>
</g>
<!-- dra.EntitySubwpnHolyWaterBreakGlass&#45;&gt;rand -->
<g id="edge3" class="edge">
<title>dra.EntitySubwpnHolyWaterBreakGlass&#45;&gt;rand</title>
<path fill="none" stroke="black" d="M325.34,-179.93C351.33,-148.03 407.32,-79.3 437.02,-42.84"/>
<polygon fill="black" stroke="black" points="440.02,-44.7 443.63,-34.73 434.6,-40.28 440.02,-44.7"/>
<text text-anchor="middle" x="438.63" y="-38.53" font-family="Times,serif" font-size="14.00">6</text>
</g>
</g>
</svg>
