<?xml version="1.0" encoding="UTF-8" standalone="no"?>
<!DOCTYPE svg PUBLIC "-//W3C//DTD SVG 1.1//EN"
 "http://www.w3.org/Graphics/SVG/1.1/DTD/svg11.dtd">
<!-- Generated by graphviz version 2.43.0 (0)
 -->
<!-- Title: dra.MenuEquipSortDraw Pages: 1 -->
<svg width="420pt" height="404pt"
 viewBox="0.00 0.00 419.93 404.00" xmlns="http://www.w3.org/2000/svg" xmlns:xlink="http://www.w3.org/1999/xlink">
<g id="graph0" class="graph" transform="scale(1 1) rotate(0) translate(4 400)">
<title>dra.MenuEquipSortDraw</title>
<polygon fill="white" stroke="transparent" points="-4,4 -4,-400 415.93,-400 415.93,4 -4,4"/>
<!-- dra.MenuEquipSortDraw -->
<g id="node1" class="node">
<title>dra.MenuEquipSortDraw</title>
<ellipse fill="green" stroke="black" cx="201.89" cy="-198" rx="128.08" ry="18"/>
<text text-anchor="middle" x="201.89" y="-194.3" font-family="Times,serif" font-size="14.00">dra.MenuEquipSortDraw</text>
</g>
<!-- dra.MenuDrawStr -->
<g id="node2" class="node">
<title>dra.MenuDrawStr</title>
<g id="a_node2"><a xlink:href="dra.MenuDrawStr.svg" xlink:title="dra.MenuDrawStr">
<ellipse fill="green" stroke="black" cx="94.89" cy="-18" rx="94.78" ry="18"/>
<text text-anchor="middle" x="94.89" y="-14.3" font-family="Times,serif" font-size="14.00">dra.MenuDrawStr</text>
</a>
</g>
</g>
<!-- dra.MenuEquipSortDraw&#45;&gt;dra.MenuDrawStr -->
<g id="edge1" class="edge">
<title>dra.MenuEquipSortDraw&#45;&gt;dra.MenuDrawStr</title>
<path fill="none" stroke="black" d="M191.63,-179.93C172.78,-148.57 132.52,-81.6 110.35,-44.71"/>
<polygon fill="black" stroke="black" points="113.27,-42.78 105.12,-36.02 107.27,-46.39 113.27,-42.78"/>
<text text-anchor="middle" x="100.12" y="-39.82" font-family="Times,serif" font-size="14.00">1</text>
</g>
<!-- dra.func_800F5E68 -->
<g id="node3" class="node">
<title>dra.func_800F5E68</title>
<g id="a_node3"><a xlink:href="dra.func_800F5E68.svg" xlink:title="dra.func_800F5E68">
<ellipse fill="green" stroke="black" cx="309.89" cy="-18" rx="102.08" ry="18"/>
<text text-anchor="middle" x="309.89" y="-14.3" font-family="Times,serif" font-size="14.00">dra.func_800F5E68</text>
</a>
</g>
</g>
<!-- dra.MenuEquipSortDraw&#45;&gt;dra.func_800F5E68 -->
<g id="edge2" class="edge">
<title>dra.MenuEquipSortDraw&#45;&gt;dra.func_800F5E68</title>
<path fill="none" stroke="black" d="M212.25,-179.93C231.28,-148.57 271.91,-81.6 294.29,-44.71"/>
<polygon fill="black" stroke="black" points="297.37,-46.38 299.57,-36.02 291.39,-42.75 297.37,-46.38"/>
<text text-anchor="middle" x="294.57" y="-39.82" font-family="Times,serif" font-size="14.00">1</text>
</g>
<!-- dra.MenuDraw -->
<g id="node4" class="node">
<title>dra.MenuDraw</title>
<g id="a_node4"><a xlink:href="dra.MenuDraw.svg" xlink:title="dra.MenuDraw">
<ellipse fill="green" stroke="black" cx="201.89" cy="-378" rx="80.69" ry="18"/>
<text text-anchor="middle" x="201.89" y="-374.3" font-family="Times,serif" font-size="14.00">dra.MenuDraw</text>
</a>
</g>
</g>
<!-- dra.MenuDraw&#45;&gt;dra.MenuEquipSortDraw -->
<g id="edge3" class="edge">
<title>dra.MenuDraw&#45;&gt;dra.MenuEquipSortDraw</title>
<path fill="none" stroke="black" d="M201.89,-359.93C201.89,-328.97 201.89,-263.3 201.89,-226.13"/>
<polygon fill="black" stroke="black" points="205.39,-226.02 201.89,-216.02 198.39,-226.02 205.39,-226.02"/>
<text text-anchor="middle" x="196.89" y="-348.73" font-family="Times,serif" font-size="14.00">1</text>
</g>
</g>
</svg>
