<?xml version="1.0" encoding="UTF-8" standalone="no"?>
<!DOCTYPE svg PUBLIC "-//W3C//DTD SVG 1.1//EN"
 "http://www.w3.org/Graphics/SVG/1.1/DTD/svg11.dtd">
<!-- Generated by graphviz version 2.43.0 (0)
 -->
<!-- Title: dra.func_800F1A3C Pages: 1 -->
<svg width="432pt" height="404pt"
 viewBox="0.00 0.00 431.78 404.00" xmlns="http://www.w3.org/2000/svg" xmlns:xlink="http://www.w3.org/1999/xlink">
<g id="graph0" class="graph" transform="scale(1 1) rotate(0) translate(4 400)">
<title>dra.func_800F1A3C</title>
<polygon fill="white" stroke="transparent" points="-4,4 -4,-400 427.78,-400 427.78,4 -4,4"/>
<!-- dra.func_800F1A3C -->
<g id="node1" class="node">
<title>dra.func_800F1A3C</title>
<ellipse fill="green" stroke="black" cx="212.04" cy="-198" rx="102.88" ry="18"/>
<text text-anchor="middle" x="212.04" y="-194.3" font-family="Times,serif" font-size="14.00">dra.func_800F1A3C</text>
</g>
<!-- dra.func_800F18C4 -->
<g id="node2" class="node">
<title>dra.func_800F18C4</title>
<g id="a_node2"><a xlink:href="dra.func_800F18C4.svg" xlink:title="dra.func_800F18C4">
<ellipse fill="green" stroke="black" cx="102.04" cy="-18" rx="102.08" ry="18"/>
<text text-anchor="middle" x="102.04" y="-14.3" font-family="Times,serif" font-size="14.00">dra.func_800F18C4</text>
</a>
</g>
</g>
<!-- dra.func_800F1A3C&#45;&gt;dra.func_800F18C4 -->
<g id="edge1" class="edge">
<title>dra.func_800F1A3C&#45;&gt;dra.func_800F18C4</title>
<path fill="none" stroke="black" d="M201.49,-179.93C182.11,-148.57 140.73,-81.6 117.93,-44.71"/>
<polygon fill="black" stroke="black" points="120.79,-42.68 112.56,-36.02 114.84,-46.36 120.79,-42.68"/>
<text text-anchor="middle" x="107.56" y="-39.82" font-family="Times,serif" font-size="14.00">6</text>
</g>
<!-- dra.func_800F1954 -->
<g id="node3" class="node">
<title>dra.func_800F1954</title>
<g id="a_node3"><a xlink:href="dra.func_800F1954.svg" xlink:title="dra.func_800F1954">
<ellipse fill="green" stroke="black" cx="323.04" cy="-18" rx="100.98" ry="18"/>
<text text-anchor="middle" x="323.04" y="-14.3" font-family="Times,serif" font-size="14.00">dra.func_800F1954</text>
</a>
</g>
</g>
<!-- dra.func_800F1A3C&#45;&gt;dra.func_800F1954 -->
<g id="edge2" class="edge">
<title>dra.func_800F1A3C&#45;&gt;dra.func_800F1954</title>
<path fill="none" stroke="black" d="M222.68,-179.93C242.24,-148.57 284,-81.6 307.01,-44.71"/>
<polygon fill="black" stroke="black" points="310.11,-46.35 312.43,-36.02 304.17,-42.65 310.11,-46.35"/>
<text text-anchor="middle" x="307.43" y="-39.82" font-family="Times,serif" font-size="14.00">6</text>
</g>
<!-- dra.func_800F2120 -->
<g id="node4" class="node">
<title>dra.func_800F2120</title>
<g id="a_node4"><a xlink:href="dra.func_800F2120.svg" xlink:title="dra.func_800F2120">
<ellipse fill="green" stroke="black" cx="212.04" cy="-378" rx="100.98" ry="18"/>
<text text-anchor="middle" x="212.04" y="-374.3" font-family="Times,serif" font-size="14.00">dra.func_800F2120</text>
</a>
</g>
</g>
<!-- dra.func_800F2120&#45;&gt;dra.func_800F1A3C -->
<g id="edge3" class="edge">
<title>dra.func_800F2120&#45;&gt;dra.func_800F1A3C</title>
<path fill="none" stroke="black" d="M212.04,-359.93C212.04,-328.97 212.04,-263.3 212.04,-226.13"/>
<polygon fill="black" stroke="black" points="215.54,-226.02 212.04,-216.02 208.54,-226.02 215.54,-226.02"/>
<text text-anchor="middle" x="207.04" y="-348.73" font-family="Times,serif" font-size="14.00">1</text>
</g>
</g>
</svg>
