<?xml version="1.0" encoding="UTF-8" standalone="no"?>
<!DOCTYPE svg PUBLIC "-//W3C//DTD SVG 1.1//EN"
 "http://www.w3.org/Graphics/SVG/1.1/DTD/svg11.dtd">
<!-- Generated by graphviz version 2.43.0 (0)
 -->
<!-- Title: dra.UpdateAnim Pages: 1 -->
<svg width="2911pt" height="224pt"
 viewBox="0.00 0.00 2910.93 224.00" xmlns="http://www.w3.org/2000/svg" xmlns:xlink="http://www.w3.org/1999/xlink">
<g id="graph0" class="graph" transform="scale(1 1) rotate(0) translate(4 220)">
<title>dra.UpdateAnim</title>
<polygon fill="white" stroke="transparent" points="-4,4 -4,-220 2906.93,-220 2906.93,4 -4,4"/>
<!-- dra.UpdateAnim -->
<g id="node1" class="node">
<title>dra.UpdateAnim</title>
<ellipse fill="green" stroke="black" cx="1349.69" cy="-18" rx="87.18" ry="18"/>
<text text-anchor="middle" x="1349.69" y="-14.3" font-family="Times,serif" font-size="14.00">dra.UpdateAnim</text>
</g>
<!-- dra.func_8011A4D0 -->
<g id="node2" class="node">
<title>dra.func_8011A4D0</title>
<g id="a_node2"><a xlink:href="dra.func_8011A4D0.svg" xlink:title="dra.func_8011A4D0">
<ellipse fill="green" stroke="black" cx="102.69" cy="-198" rx="102.88" ry="18"/>
<text text-anchor="middle" x="102.69" y="-194.3" font-family="Times,serif" font-size="14.00">dra.func_8011A4D0</text>
</a>
</g>
</g>
<!-- dra.func_8011A4D0&#45;&gt;dra.UpdateAnim -->
<g id="edge1" class="edge">
<title>dra.func_8011A4D0&#45;&gt;dra.UpdateAnim</title>
<path fill="none" stroke="black" d="M177.01,-185.5C189.26,-183.64 201.83,-181.75 213.69,-180 609.65,-121.62 1083.86,-55.7 1269.57,-30.04"/>
<polygon fill="black" stroke="black" points="1270.09,-33.5 1279.52,-28.67 1269.14,-26.57 1270.09,-33.5"/>
<text text-anchor="middle" x="172.01" y="-174.3" font-family="Times,serif" font-size="14.00">1</text>
</g>
<!-- dra.func_8011A870 -->
<g id="node3" class="node">
<title>dra.func_8011A870</title>
<g id="a_node3"><a xlink:href="dra.func_8011A870.svg" xlink:title="dra.func_8011A870">
<ellipse fill="green" stroke="black" cx="323.69" cy="-198" rx="100.98" ry="18"/>
<text text-anchor="middle" x="323.69" y="-194.3" font-family="Times,serif" font-size="14.00">dra.func_8011A870</text>
</a>
</g>
</g>
<!-- dra.func_8011A870&#45;&gt;dra.UpdateAnim -->
<g id="edge2" class="edge">
<title>dra.func_8011A870&#45;&gt;dra.UpdateAnim</title>
<path fill="none" stroke="black" d="M393.41,-184.91C579.06,-152.7 1084.31,-65.04 1275.26,-31.91"/>
<polygon fill="black" stroke="black" points="1275.95,-35.35 1285.2,-30.19 1274.75,-28.45 1275.95,-35.35"/>
<text text-anchor="middle" x="388.41" y="-173.71" font-family="Times,serif" font-size="14.00">1</text>
</g>
<!-- ric.UpdateEntityRichter -->
<g id="node4" class="node">
<title>ric.UpdateEntityRichter</title>
<g id="a_node4"><a xlink:href="ric.UpdateEntityRichter.svg" xlink:title="ric.UpdateEntityRichter">
<ellipse fill="green" stroke="black" cx="565.69" cy="-198" rx="122.68" ry="18"/>
<text text-anchor="middle" x="565.69" y="-194.3" font-family="Times,serif" font-size="14.00">ric.UpdateEntityRichter</text>
</a>
</g>
</g>
<!-- ric.UpdateEntityRichter&#45;&gt;dra.UpdateAnim -->
<g id="edge3" class="edge">
<title>ric.UpdateEntityRichter&#45;&gt;dra.UpdateAnim</title>
<path fill="none" stroke="black" d="M629.18,-182.58C775.38,-149.39 1134.59,-67.84 1283.43,-34.04"/>
<polygon fill="black" stroke="black" points="1284.38,-37.42 1293.35,-31.79 1282.83,-30.59 1284.38,-37.42"/>
<text text-anchor="middle" x="624.18" y="-171.38" font-family="Times,serif" font-size="14.00">1</text>
</g>
<!-- ric.func_801603C4 -->
<g id="node5" class="node">
<title>ric.func_801603C4</title>
<g id="a_node5"><a xlink:href="ric.func_801603C4.svg" xlink:title="ric.func_801603C4">
<ellipse fill="green" stroke="black" cx="804.69" cy="-198" rx="98.28" ry="18"/>
<text text-anchor="middle" x="804.69" y="-194.3" font-family="Times,serif" font-size="14.00">ric.func_801603C4</text>
</a>
</g>
</g>
<!-- ric.func_801603C4&#45;&gt;dra.UpdateAnim -->
<g id="edge4" class="edge">
<title>ric.func_801603C4&#45;&gt;dra.UpdateAnim</title>
<path fill="none" stroke="black" d="M850.69,-181.98C950.85,-149.26 1188.3,-71.71 1295.5,-36.7"/>
<polygon fill="black" stroke="black" points="1296.74,-39.98 1305.15,-33.55 1294.56,-33.32 1296.74,-39.98"/>
<text text-anchor="middle" x="845.69" y="-170.78" font-family="Times,serif" font-size="14.00">1</text>
</g>
<!-- w_020.EntityWeaponAttack -->
<g id="node6" class="node">
<title>w_020.EntityWeaponAttack</title>
<g id="a_node6"><a xlink:href="w_020.EntityWeaponAttack.svg" xlink:title="w_020.EntityWeaponAttack">
<ellipse fill="red" stroke="black" cx="1059.69" cy="-198" rx="138.38" ry="18"/>
<text text-anchor="middle" x="1059.69" y="-194.3" font-family="Times,serif" font-size="14.00">w_020.EntityWeaponAttack</text>
</a>
</g>
</g>
<!-- w_020.EntityWeaponAttack&#45;&gt;dra.UpdateAnim -->
<g id="edge5" class="edge">
<title>w_020.EntityWeaponAttack&#45;&gt;dra.UpdateAnim</title>
<path fill="none" stroke="black" d="M1086.97,-180.25C1139.81,-147.82 1256.05,-76.47 1314.57,-40.56"/>
<polygon fill="black" stroke="black" points="1316.42,-43.53 1323.11,-35.31 1312.76,-37.56 1316.42,-43.53"/>
<text text-anchor="middle" x="1081.97" y="-169.05" font-family="Times,serif" font-size="14.00">1</text>
</g>
<!-- w_030.func_ptr_80170008 -->
<g id="node7" class="node">
<title>w_030.func_ptr_80170008</title>
<g id="a_node7"><a xlink:href="w_030.func_ptr_80170008.svg" xlink:title="w_030.func_ptr_80170008">
<ellipse fill="red" stroke="black" cx="1349.69" cy="-198" rx="133.48" ry="18"/>
<text text-anchor="middle" x="1349.69" y="-194.3" font-family="Times,serif" font-size="14.00">w_030.func_ptr_80170008</text>
</a>
</g>
</g>
<!-- w_030.func_ptr_80170008&#45;&gt;dra.UpdateAnim -->
<g id="edge6" class="edge">
<title>w_030.func_ptr_80170008&#45;&gt;dra.UpdateAnim</title>
<path fill="none" stroke="black" d="M1349.69,-179.93C1349.69,-148.97 1349.69,-83.3 1349.69,-46.13"/>
<polygon fill="black" stroke="black" points="1353.19,-46.02 1349.69,-36.02 1346.19,-46.02 1353.19,-46.02"/>
<text text-anchor="middle" x="1344.69" y="-168.73" font-family="Times,serif" font-size="14.00">1</text>
</g>
<!-- w_040.func_ptr_80170004 -->
<g id="node8" class="node">
<title>w_040.func_ptr_80170004</title>
<g id="a_node8"><a xlink:href="w_040.func_ptr_80170004.svg" xlink:title="w_040.func_ptr_80170004">
<ellipse fill="green" stroke="black" cx="1633.69" cy="-198" rx="133.48" ry="18"/>
<text text-anchor="middle" x="1633.69" y="-194.3" font-family="Times,serif" font-size="14.00">w_040.func_ptr_80170004</text>
</a>
</g>
</g>
<!-- w_040.func_ptr_80170004&#45;&gt;dra.UpdateAnim -->
<g id="edge7" class="edge">
<title>w_040.func_ptr_80170004&#45;&gt;dra.UpdateAnim</title>
<path fill="none" stroke="black" d="M1606.97,-180.25C1555.33,-147.89 1441.86,-76.77 1384.44,-40.78"/>
<polygon fill="black" stroke="black" points="1386.05,-37.66 1375.72,-35.31 1382.33,-43.59 1386.05,-37.66"/>
<text text-anchor="middle" x="1601.97" y="-169.05" font-family="Times,serif" font-size="14.00">1</text>
</g>
<!-- w_040.func_ptr_80170008 -->
<g id="node9" class="node">
<title>w_040.func_ptr_80170008</title>
<g id="a_node9"><a xlink:href="w_040.func_ptr_80170008.svg" xlink:title="w_040.func_ptr_80170008">
<ellipse fill="green" stroke="black" cx="1917.69" cy="-198" rx="133.48" ry="18"/>
<text text-anchor="middle" x="1917.69" y="-194.3" font-family="Times,serif" font-size="14.00">w_040.func_ptr_80170008</text>
</a>
</g>
</g>
<!-- w_040.func_ptr_80170008&#45;&gt;dra.UpdateAnim -->
<g id="edge8" class="edge">
<title>w_040.func_ptr_80170008&#45;&gt;dra.UpdateAnim</title>
<path fill="none" stroke="black" d="M1867.28,-181.2C1761.21,-147.96 1515.62,-71 1405.21,-36.4"/>
<polygon fill="black" stroke="black" points="1406.18,-33.04 1395.59,-33.38 1404.09,-39.71 1406.18,-33.04"/>
<text text-anchor="middle" x="1862.28" y="-170" font-family="Times,serif" font-size="14.00">1</text>
</g>
<!-- w_041.func_ptr_80170004 -->
<g id="node10" class="node">
<title>w_041.func_ptr_80170004</title>
<g id="a_node10"><a xlink:href="w_041.func_ptr_80170004.svg" xlink:title="w_041.func_ptr_80170004">
<ellipse fill="green" stroke="black" cx="2201.69" cy="-198" rx="133.48" ry="18"/>
<text text-anchor="middle" x="2201.69" y="-194.3" font-family="Times,serif" font-size="14.00">w_041.func_ptr_80170004</text>
</a>
</g>
</g>
<!-- w_041.func_ptr_80170004&#45;&gt;dra.UpdateAnim -->
<g id="edge9" class="edge">
<title>w_041.func_ptr_80170004&#45;&gt;dra.UpdateAnim</title>
<path fill="none" stroke="black" d="M2132.69,-182.58C1972.88,-149.2 1578.85,-66.88 1418.87,-33.45"/>
<polygon fill="black" stroke="black" points="1419.18,-29.94 1408.67,-31.32 1417.75,-36.79 1419.18,-29.94"/>
<text text-anchor="middle" x="2127.69" y="-171.38" font-family="Times,serif" font-size="14.00">1</text>
</g>
<!-- w_042.func_ptr_80170004 -->
<g id="node11" class="node">
<title>w_042.func_ptr_80170004</title>
<g id="a_node11"><a xlink:href="w_042.func_ptr_80170004.svg" xlink:title="w_042.func_ptr_80170004">
<ellipse fill="green" stroke="black" cx="2485.69" cy="-198" rx="133.48" ry="18"/>
<text text-anchor="middle" x="2485.69" y="-194.3" font-family="Times,serif" font-size="14.00">w_042.func_ptr_80170004</text>
</a>
</g>
</g>
<!-- w_042.func_ptr_80170004&#45;&gt;dra.UpdateAnim -->
<g id="edge10" class="edge">
<title>w_042.func_ptr_80170004&#45;&gt;dra.UpdateAnim</title>
<path fill="none" stroke="black" d="M2402.16,-183.91C2189.9,-150.65 1632.13,-63.26 1426.91,-31.1"/>
<polygon fill="black" stroke="black" points="1427.24,-27.61 1416.82,-29.52 1426.16,-34.52 1427.24,-27.61"/>
<text text-anchor="middle" x="2397.16" y="-172.71" font-family="Times,serif" font-size="14.00">1</text>
</g>
<!-- w_042.func_ptr_80170008 -->
<g id="node12" class="node">
<title>w_042.func_ptr_80170008</title>
<g id="a_node12"><a xlink:href="w_042.func_ptr_80170008.svg" xlink:title="w_042.func_ptr_80170008">
<ellipse fill="green" stroke="black" cx="2769.69" cy="-198" rx="133.48" ry="18"/>
<text text-anchor="middle" x="2769.69" y="-194.3" font-family="Times,serif" font-size="14.00">w_042.func_ptr_80170008</text>
</a>
</g>
</g>
<!-- w_042.func_ptr_80170008&#45;&gt;dra.UpdateAnim -->
<g id="edge11" class="edge">
<title>w_042.func_ptr_80170008&#45;&gt;dra.UpdateAnim</title>
<path fill="none" stroke="black" d="M2675.7,-185.22C2413.85,-152.39 1679.15,-60.3 1432,-29.32"/>
<polygon fill="black" stroke="black" points="1432.36,-25.84 1422,-28.06 1431.49,-32.78 1432.36,-25.84"/>
<text text-anchor="middle" x="2670.7" y="-174.02" font-family="Times,serif" font-size="14.00">1</text>
</g>
</g>
</svg>
