<?xml version="1.0" encoding="UTF-8" standalone="no"?>
<!DOCTYPE svg PUBLIC "-//W3C//DTD SVG 1.1//EN"
 "http://www.w3.org/Graphics/SVG/1.1/DTD/svg11.dtd">
<!-- Generated by graphviz version 2.43.0 (0)
 -->
<!-- Title: dra.func_800EA538 Pages: 1 -->
<svg width="3005pt" height="224pt"
 viewBox="0.00 0.00 3004.68 224.00" xmlns="http://www.w3.org/2000/svg" xmlns:xlink="http://www.w3.org/1999/xlink">
<g id="graph0" class="graph" transform="scale(1 1) rotate(0) translate(4 220)">
<title>dra.func_800EA538</title>
<polygon fill="white" stroke="transparent" points="-4,4 -4,-220 3000.68,-220 3000.68,4 -4,4"/>
<!-- dra.func_800EA538 -->
<g id="node1" class="node">
<title>dra.func_800EA538</title>
<ellipse fill="green" stroke="black" cx="1473.19" cy="-18" rx="102.08" ry="18"/>
<text text-anchor="middle" x="1473.19" y="-14.3" font-family="Times,serif" font-size="14.00">dra.func_800EA538</text>
</g>
<!-- dra.ControlMistForm -->
<g id="node2" class="node">
<title>dra.ControlMistForm</title>
<g id="a_node2"><a xlink:href="dra.ControlMistForm.svg" xlink:title="dra.ControlMistForm">
<ellipse fill="green" stroke="black" cx="109.19" cy="-198" rx="109.38" ry="18"/>
<text text-anchor="middle" x="109.19" y="-194.3" font-family="Times,serif" font-size="14.00">dra.ControlMistForm</text>
</a>
</g>
</g>
<!-- dra.ControlMistForm&#45;&gt;dra.func_800EA538 -->
<g id="edge1" class="edge">
<title>dra.ControlMistForm&#45;&gt;dra.func_800EA538</title>
<path fill="none" stroke="black" d="M187.87,-185.5C201,-183.63 214.48,-181.74 227.19,-180 659.14,-120.98 1176.14,-55.98 1382.07,-30.31"/>
<polygon fill="black" stroke="black" points="1382.74,-33.76 1392.23,-29.05 1381.88,-26.81 1382.74,-33.76"/>
<text text-anchor="middle" x="182.87" y="-174.3" font-family="Times,serif" font-size="14.00">1</text>
</g>
<!-- dra.EntityMist -->
<g id="node3" class="node">
<title>dra.EntityMist</title>
<g id="a_node3"><a xlink:href="dra.EntityMist.svg" xlink:title="dra.EntityMist">
<ellipse fill="green" stroke="black" cx="315.19" cy="-198" rx="79.09" ry="18"/>
<text text-anchor="middle" x="315.19" y="-194.3" font-family="Times,serif" font-size="14.00">dra.EntityMist</text>
</a>
</g>
</g>
<!-- dra.EntityMist&#45;&gt;dra.func_800EA538 -->
<g id="edge2" class="edge">
<title>dra.EntityMist&#45;&gt;dra.func_800EA538</title>
<path fill="none" stroke="black" d="M372.88,-185.5C382.97,-183.59 393.38,-181.69 403.19,-180 766.61,-117.58 1201.79,-56.23 1385.02,-31"/>
<polygon fill="black" stroke="black" points="1385.71,-34.44 1395.14,-29.61 1384.76,-27.51 1385.71,-34.44"/>
<text text-anchor="middle" x="367.88" y="-174.3" font-family="Times,serif" font-size="14.00">2</text>
</g>
<!-- dra.HandleEnding -->
<g id="node4" class="node">
<title>dra.HandleEnding</title>
<g id="a_node4"><a xlink:href="dra.HandleEnding.svg" xlink:title="dra.HandleEnding">
<ellipse fill="green" stroke="black" cx="508.19" cy="-198" rx="95.58" ry="18"/>
<text text-anchor="middle" x="508.19" y="-194.3" font-family="Times,serif" font-size="14.00">dra.HandleEnding</text>
</a>
</g>
</g>
<!-- dra.HandleEnding&#45;&gt;dra.func_800EA538 -->
<g id="edge3" class="edge">
<title>dra.HandleEnding&#45;&gt;dra.func_800EA538</title>
<path fill="none" stroke="black" d="M573.76,-184.91C745.9,-153.15 1210.14,-67.52 1395.35,-33.36"/>
<polygon fill="black" stroke="black" points="1396.09,-36.78 1405.29,-31.53 1394.82,-29.9 1396.09,-36.78"/>
<text text-anchor="middle" x="568.76" y="-173.71" font-family="Times,serif" font-size="14.00">1</text>
</g>
<!-- dra.HandleGameOver -->
<g id="node5" class="node">
<title>dra.HandleGameOver</title>
<g id="a_node5"><a xlink:href="dra.HandleGameOver.svg" xlink:title="dra.HandleGameOver">
<ellipse fill="green" stroke="black" cx="733.19" cy="-198" rx="111.58" ry="18"/>
<text text-anchor="middle" x="733.19" y="-194.3" font-family="Times,serif" font-size="14.00">dra.HandleGameOver</text>
</a>
</g>
</g>
<!-- dra.HandleGameOver&#45;&gt;dra.func_800EA538 -->
<g id="edge4" class="edge">
<title>dra.HandleGameOver&#45;&gt;dra.func_800EA538</title>
<path fill="none" stroke="black" d="M792.5,-182.73C928.39,-150.05 1261.64,-69.89 1405.38,-35.31"/>
<polygon fill="black" stroke="black" points="1406.49,-38.64 1415.39,-32.9 1404.85,-31.84 1406.49,-38.64"/>
<text text-anchor="middle" x="787.5" y="-171.53" font-family="Times,serif" font-size="14.00">1</text>
</g>
<!-- dra.HandlePlay -->
<g id="node6" class="node">
<title>dra.HandlePlay</title>
<g id="a_node6"><a xlink:href="dra.HandlePlay.svg" xlink:title="dra.HandlePlay">
<ellipse fill="green" stroke="black" cx="945.19" cy="-198" rx="82.59" ry="18"/>
<text text-anchor="middle" x="945.19" y="-194.3" font-family="Times,serif" font-size="14.00">dra.HandlePlay</text>
</a>
</g>
</g>
<!-- dra.HandlePlay&#45;&gt;dra.func_800EA538 -->
<g id="edge5" class="edge">
<title>dra.HandlePlay&#45;&gt;dra.func_800EA538</title>
<path fill="none" stroke="black" d="M987.95,-182.58C1083.3,-150.44 1313.2,-72.94 1418.66,-37.38"/>
<polygon fill="black" stroke="black" points="1419.81,-40.69 1428.16,-34.18 1417.57,-34.06 1419.81,-40.69"/>
<text text-anchor="middle" x="982.95" y="-171.38" font-family="Times,serif" font-size="14.00">1</text>
</g>
<!-- dra.HandleTitle -->
<g id="node7" class="node">
<title>dra.HandleTitle</title>
<g id="a_node7"><a xlink:href="dra.HandleTitle.svg" xlink:title="dra.HandleTitle">
<ellipse fill="green" stroke="black" cx="1129.19" cy="-198" rx="83.39" ry="18"/>
<text text-anchor="middle" x="1129.19" y="-194.3" font-family="Times,serif" font-size="14.00">dra.HandleTitle</text>
</a>
</g>
</g>
<!-- dra.HandleTitle&#45;&gt;dra.func_800EA538 -->
<g id="edge6" class="edge">
<title>dra.HandleTitle&#45;&gt;dra.func_800EA538</title>
<path fill="none" stroke="black" d="M1159.72,-181.2C1221.96,-149 1363.49,-75.76 1433.07,-39.76"/>
<polygon fill="black" stroke="black" points="1434.72,-42.85 1441.99,-35.15 1431.5,-36.63 1434.72,-42.85"/>
<text text-anchor="middle" x="1154.72" y="-170" font-family="Times,serif" font-size="14.00">1</text>
</g>
<!-- dra.HandleVideoPlayback -->
<g id="node8" class="node">
<title>dra.HandleVideoPlayback</title>
<g id="a_node8"><a xlink:href="dra.HandleVideoPlayback.svg" xlink:title="dra.HandleVideoPlayback">
<ellipse fill="green" stroke="black" cx="1360.19" cy="-198" rx="129.98" ry="18"/>
<text text-anchor="middle" x="1360.19" y="-194.3" font-family="Times,serif" font-size="14.00">dra.HandleVideoPlayback</text>
</a>
</g>
</g>
<!-- dra.HandleVideoPlayback&#45;&gt;dra.func_800EA538 -->
<g id="edge7" class="edge">
<title>dra.HandleVideoPlayback&#45;&gt;dra.func_800EA538</title>
<path fill="none" stroke="black" d="M1371.03,-179.93C1390.94,-148.57 1433.45,-81.6 1456.87,-44.71"/>
<polygon fill="black" stroke="black" points="1459.98,-46.33 1462.39,-36.02 1454.07,-42.58 1459.98,-46.33"/>
<text text-anchor="middle" x="1366.03" y="-168.73" font-family="Times,serif" font-size="14.00">1</text>
</g>
<!-- dra.MainGame -->
<g id="node9" class="node">
<title>dra.MainGame</title>
<g id="a_node9"><a xlink:href="dra.MainGame.svg" xlink:title="dra.MainGame">
<ellipse fill="green" stroke="black" cx="1587.19" cy="-198" rx="79.09" ry="18"/>
<text text-anchor="middle" x="1587.19" y="-194.3" font-family="Times,serif" font-size="14.00">dra.MainGame</text>
</a>
</g>
</g>
<!-- dra.MainGame&#45;&gt;dra.func_800EA538 -->
<g id="edge8" class="edge">
<title>dra.MainGame&#45;&gt;dra.func_800EA538</title>
<path fill="none" stroke="black" d="M1576.26,-179.93C1556.17,-148.57 1513.28,-81.6 1489.65,-44.71"/>
<polygon fill="black" stroke="black" points="1492.43,-42.55 1484.09,-36.02 1486.53,-46.32 1492.43,-42.55"/>
<text text-anchor="middle" x="1571.26" y="-168.73" font-family="Times,serif" font-size="14.00">1</text>
</g>
<!-- dra.UpdateCapePalette -->
<g id="node10" class="node">
<title>dra.UpdateCapePalette</title>
<g id="a_node10"><a xlink:href="dra.UpdateCapePalette.svg" xlink:title="dra.UpdateCapePalette">
<ellipse fill="green" stroke="black" cx="1804.19" cy="-198" rx="119.68" ry="18"/>
<text text-anchor="middle" x="1804.19" y="-194.3" font-family="Times,serif" font-size="14.00">dra.UpdateCapePalette</text>
</a>
</g>
</g>
<!-- dra.UpdateCapePalette&#45;&gt;dra.func_800EA538 -->
<g id="edge9" class="edge">
<title>dra.UpdateCapePalette&#45;&gt;dra.func_800EA538</title>
<path fill="none" stroke="black" d="M1773.64,-180.57C1713.42,-148.19 1579.42,-76.13 1512.63,-40.21"/>
<polygon fill="black" stroke="black" points="1514.13,-37.04 1503.66,-35.39 1510.81,-43.21 1514.13,-37.04"/>
<text text-anchor="middle" x="1768.64" y="-169.37" font-family="Times,serif" font-size="14.00">1</text>
</g>
<!-- dra.func_800E414C -->
<g id="node11" class="node">
<title>dra.func_800E414C</title>
<g id="a_node11"><a xlink:href="dra.func_800E414C.svg" xlink:title="dra.func_800E414C">
<ellipse fill="green" stroke="black" cx="2044.19" cy="-198" rx="102.88" ry="18"/>
<text text-anchor="middle" x="2044.19" y="-194.3" font-family="Times,serif" font-size="14.00">dra.func_800E414C</text>
</a>
</g>
</g>
<!-- dra.func_800E414C&#45;&gt;dra.func_800EA538 -->
<g id="edge10" class="edge">
<title>dra.func_800E414C&#45;&gt;dra.func_800EA538</title>
<path fill="none" stroke="black" d="M1996,-181.98C1891.34,-149.35 1643.64,-72.13 1530.88,-36.98"/>
<polygon fill="black" stroke="black" points="1531.64,-33.55 1521.05,-33.92 1529.56,-40.24 1531.64,-33.55"/>
<text text-anchor="middle" x="1991" y="-170.78" font-family="Times,serif" font-size="14.00">1</text>
</g>
<!-- dra.func_800E4970 -->
<g id="node12" class="node">
<title>dra.func_800E4970</title>
<g id="a_node12"><a xlink:href="dra.func_800E4970.svg" xlink:title="dra.func_800E4970">
<ellipse fill="green" stroke="black" cx="2266.19" cy="-198" rx="101.28" ry="18"/>
<text text-anchor="middle" x="2266.19" y="-194.3" font-family="Times,serif" font-size="14.00">dra.func_800E4970</text>
</a>
</g>
</g>
<!-- dra.func_800E4970&#45;&gt;dra.func_800EA538 -->
<g id="edge11" class="edge">
<title>dra.func_800E4970&#45;&gt;dra.func_800EA538</title>
<path fill="none" stroke="black" d="M2205.94,-183.47C2061.72,-151.1 1697.3,-69.3 1543.45,-34.77"/>
<polygon fill="black" stroke="black" points="1544.15,-31.34 1533.62,-32.57 1542.62,-38.17 1544.15,-31.34"/>
<text text-anchor="middle" x="2200.94" y="-172.27" font-family="Times,serif" font-size="14.00">1</text>
</g>
<!-- dra.func_800F298C -->
<g id="node13" class="node">
<title>dra.func_800F298C</title>
<g id="a_node13"><a xlink:href="dra.func_800F298C.svg" xlink:title="dra.func_800F298C">
<ellipse fill="green" stroke="black" cx="2487.19" cy="-198" rx="102.08" ry="18"/>
<text text-anchor="middle" x="2487.19" y="-194.3" font-family="Times,serif" font-size="14.00">dra.func_800F298C</text>
</a>
</g>
</g>
<!-- dra.func_800F298C&#45;&gt;dra.func_800EA538 -->
<g id="edge12" class="edge">
<title>dra.func_800F298C&#45;&gt;dra.func_800EA538</title>
<path fill="none" stroke="black" d="M2417.49,-184.77C2235.29,-152.78 1745.58,-66.82 1552.76,-32.97"/>
<polygon fill="black" stroke="black" points="1553.16,-29.48 1542.7,-31.2 1551.95,-36.38 1553.16,-29.48"/>
<text text-anchor="middle" x="2412.49" y="-173.57" font-family="Times,serif" font-size="14.00">2</text>
</g>
<!-- dra.func_800F6A48 -->
<g id="node14" class="node">
<title>dra.func_800F6A48</title>
<g id="a_node14"><a xlink:href="dra.func_800F6A48.svg" xlink:title="dra.func_800F6A48">
<ellipse fill="green" stroke="black" cx="2708.19" cy="-198" rx="101.28" ry="18"/>
<text text-anchor="middle" x="2708.19" y="-194.3" font-family="Times,serif" font-size="14.00">dra.func_800F6A48</text>
</a>
</g>
</g>
<!-- dra.func_800F6A48&#45;&gt;dra.func_800EA538 -->
<g id="edge13" class="edge">
<title>dra.func_800F6A48&#45;&gt;dra.func_800EA538</title>
<path fill="none" stroke="black" d="M2634.84,-185.55C2622.6,-183.67 2610.04,-181.76 2598.19,-180 2211.82,-122.5 1750.2,-57.64 1560.81,-31.2"/>
<polygon fill="black" stroke="black" points="1561.02,-27.7 1550.64,-29.78 1560.06,-34.63 1561.02,-27.7"/>
<text text-anchor="middle" x="2629.84" y="-174.35" font-family="Times,serif" font-size="14.00">1</text>
</g>
<!-- sel.SEL_Update -->
<g id="node15" class="node">
<title>sel.SEL_Update</title>
<g id="a_node15"><a xlink:href="sel.SEL_Update.svg" xlink:title="sel.SEL_Update">
<ellipse fill="green" stroke="black" cx="2912.19" cy="-198" rx="84.49" ry="18"/>
<text text-anchor="middle" x="2912.19" y="-194.3" font-family="Times,serif" font-size="14.00">sel.SEL_Update</text>
</a>
</g>
</g>
<!-- sel.SEL_Update&#45;&gt;dra.func_800EA538 -->
<g id="edge14" class="edge">
<title>sel.SEL_Update&#45;&gt;dra.func_800EA538</title>
<path fill="none" stroke="black" d="M2851.35,-185.45C2840.33,-183.51 2828.93,-181.61 2818.19,-180 2352.08,-110.02 1791.42,-50.93 1569.95,-28.58"/>
<polygon fill="black" stroke="black" points="1570.28,-25.09 1559.98,-27.57 1569.57,-32.06 1570.28,-25.09"/>
<text text-anchor="middle" x="2846.35" y="-174.25" font-family="Times,serif" font-size="14.00">1</text>
</g>
</g>
</svg>
