<?xml version="1.0" encoding="UTF-8" standalone="no"?>
<!DOCTYPE svg PUBLIC "-//W3C//DTD SVG 1.1//EN"
 "http://www.w3.org/Graphics/SVG/1.1/DTD/svg11.dtd">
<!-- Generated by graphviz version 2.43.0 (0)
 -->
<!-- Title: dra.func_80111CC0 Pages: 1 -->
<svg width="1633pt" height="404pt"
 viewBox="0.00 0.00 1633.18 404.00" xmlns="http://www.w3.org/2000/svg" xmlns:xlink="http://www.w3.org/1999/xlink">
<g id="graph0" class="graph" transform="scale(1 1) rotate(0) translate(4 400)">
<title>dra.func_80111CC0</title>
<polygon fill="white" stroke="transparent" points="-4,4 -4,-400 1629.18,-400 1629.18,4 -4,4"/>
<!-- dra.func_80111CC0 -->
<g id="node1" class="node">
<title>dra.func_80111CC0</title>
<ellipse fill="green" stroke="black" cx="859.84" cy="-198" rx="102.88" ry="18"/>
<text text-anchor="middle" x="859.84" y="-194.3" font-family="Times,serif" font-size="14.00">dra.func_80111CC0</text>
</g>
<!-- dra.CreateEntFactoryFromEntity -->
<g id="node2" class="node">
<title>dra.CreateEntFactoryFromEntity</title>
<g id="a_node2"><a xlink:href="dra.CreateEntFactoryFromEntity.svg" xlink:title="dra.CreateEntFactoryFromEntity">
<ellipse fill="green" stroke="black" cx="859.84" cy="-18" rx="165.97" ry="18"/>
<text text-anchor="middle" x="859.84" y="-14.3" font-family="Times,serif" font-size="14.00">dra.CreateEntFactoryFromEntity</text>
</a>
</g>
</g>
<!-- dra.func_80111CC0&#45;&gt;dra.CreateEntFactoryFromEntity -->
<g id="edge1" class="edge">
<title>dra.func_80111CC0&#45;&gt;dra.CreateEntFactoryFromEntity</title>
<path fill="none" stroke="black" d="M859.84,-179.93C859.84,-148.97 859.84,-83.3 859.84,-46.13"/>
<polygon fill="black" stroke="black" points="863.34,-46.02 859.84,-36.02 856.34,-46.02 863.34,-46.02"/>
<text text-anchor="middle" x="854.84" y="-39.82" font-family="Times,serif" font-size="14.00">2</text>
</g>
<!-- dra.AlucardHandleDamage -->
<g id="node3" class="node">
<title>dra.AlucardHandleDamage</title>
<g id="a_node3"><a xlink:href="dra.AlucardHandleDamage.svg" xlink:title="dra.AlucardHandleDamage">
<ellipse fill="green" stroke="black" cx="135.84" cy="-378" rx="135.68" ry="18"/>
<text text-anchor="middle" x="135.84" y="-374.3" font-family="Times,serif" font-size="14.00">dra.AlucardHandleDamage</text>
</a>
</g>
</g>
<!-- dra.AlucardHandleDamage&#45;&gt;dra.func_80111CC0 -->
<g id="edge2" class="edge">
<title>dra.AlucardHandleDamage&#45;&gt;dra.func_80111CC0</title>
<path fill="none" stroke="black" d="M197.25,-361.9C332.13,-328.74 653.29,-249.78 793,-215.43"/>
<polygon fill="black" stroke="black" points="793.87,-218.82 802.74,-213.04 792.2,-212.03 793.87,-218.82"/>
<text text-anchor="middle" x="192.25" y="-350.7" font-family="Times,serif" font-size="14.00">1</text>
</g>
<!-- dra.PlayerStepHellfire -->
<g id="node4" class="node">
<title>dra.PlayerStepHellfire</title>
<g id="a_node4"><a xlink:href="dra.PlayerStepHellfire.svg" xlink:title="dra.PlayerStepHellfire">
<ellipse fill="green" stroke="black" cx="404.84" cy="-378" rx="115.08" ry="18"/>
<text text-anchor="middle" x="404.84" y="-374.3" font-family="Times,serif" font-size="14.00">dra.PlayerStepHellfire</text>
</a>
</g>
</g>
<!-- dra.PlayerStepHellfire&#45;&gt;dra.func_80111CC0 -->
<g id="edge3" class="edge">
<title>dra.PlayerStepHellfire&#45;&gt;dra.func_80111CC0</title>
<path fill="none" stroke="black" d="M445.62,-361.05C529.27,-328.32 720.02,-253.7 810.49,-218.31"/>
<polygon fill="black" stroke="black" points="811.93,-221.5 819.96,-214.6 809.38,-214.98 811.93,-221.5"/>
<text text-anchor="middle" x="440.62" y="-349.85" font-family="Times,serif" font-size="14.00">1</text>
</g>
<!-- dra.func_8010A234 -->
<g id="node5" class="node">
<title>dra.func_8010A234</title>
<g id="a_node5"><a xlink:href="dra.func_8010A234.svg" xlink:title="dra.func_8010A234">
<ellipse fill="green" stroke="black" cx="638.84" cy="-378" rx="100.98" ry="18"/>
<text text-anchor="middle" x="638.84" y="-374.3" font-family="Times,serif" font-size="14.00">dra.func_8010A234</text>
</a>
</g>
</g>
<!-- dra.func_8010A234&#45;&gt;dra.func_80111CC0 -->
<g id="edge4" class="edge">
<title>dra.func_8010A234&#45;&gt;dra.func_80111CC0</title>
<path fill="none" stroke="black" d="M659.63,-360.25C699.28,-328.32 785.78,-258.65 831,-222.23"/>
<polygon fill="black" stroke="black" points="833.35,-224.83 838.94,-215.83 828.96,-219.38 833.35,-224.83"/>
<text text-anchor="middle" x="654.63" y="-349.05" font-family="Times,serif" font-size="14.00">1</text>
</g>
<!-- dra.func_8010E4D0 -->
<g id="node6" class="node">
<title>dra.func_8010E4D0</title>
<g id="a_node6"><a xlink:href="dra.func_8010E4D0.svg" xlink:title="dra.func_8010E4D0">
<ellipse fill="green" stroke="black" cx="859.84" cy="-378" rx="102.88" ry="18"/>
<text text-anchor="middle" x="859.84" y="-374.3" font-family="Times,serif" font-size="14.00">dra.func_8010E4D0</text>
</a>
</g>
</g>
<!-- dra.func_8010E4D0&#45;&gt;dra.func_80111CC0 -->
<g id="edge5" class="edge">
<title>dra.func_8010E4D0&#45;&gt;dra.func_80111CC0</title>
<path fill="none" stroke="black" d="M859.84,-359.93C859.84,-328.97 859.84,-263.3 859.84,-226.13"/>
<polygon fill="black" stroke="black" points="863.34,-226.02 859.84,-216.02 856.34,-226.02 863.34,-226.02"/>
<text text-anchor="middle" x="854.84" y="-348.73" font-family="Times,serif" font-size="14.00">3</text>
</g>
<!-- dra.func_801177A0 -->
<g id="node7" class="node">
<title>dra.func_801177A0</title>
<g id="a_node7"><a xlink:href="dra.func_801177A0.svg" xlink:title="dra.func_801177A0">
<ellipse fill="green" stroke="black" cx="1080.84" cy="-378" rx="100.98" ry="18"/>
<text text-anchor="middle" x="1080.84" y="-374.3" font-family="Times,serif" font-size="14.00">dra.func_801177A0</text>
</a>
</g>
</g>
<!-- dra.func_801177A0&#45;&gt;dra.func_80111CC0 -->
<g id="edge6" class="edge">
<title>dra.func_801177A0&#45;&gt;dra.func_80111CC0</title>
<path fill="none" stroke="black" d="M1060.05,-360.25C1020.39,-328.32 933.89,-258.65 888.68,-222.23"/>
<polygon fill="black" stroke="black" points="890.72,-219.38 880.73,-215.83 886.33,-224.83 890.72,-219.38"/>
<text text-anchor="middle" x="1055.05" y="-349.05" font-family="Times,serif" font-size="14.00">1</text>
</g>
<!-- dra.func_801182F8 -->
<g id="node8" class="node">
<title>dra.func_801182F8</title>
<g id="a_node8"><a xlink:href="dra.func_801182F8.svg" xlink:title="dra.func_801182F8">
<ellipse fill="green" stroke="black" cx="1299.84" cy="-378" rx="100.98" ry="18"/>
<text text-anchor="middle" x="1299.84" y="-374.3" font-family="Times,serif" font-size="14.00">dra.func_801182F8</text>
</a>
</g>
</g>
<!-- dra.func_801182F8&#45;&gt;dra.func_80111CC0 -->
<g id="edge7" class="edge">
<title>dra.func_801182F8&#45;&gt;dra.func_80111CC0</title>
<path fill="none" stroke="black" d="M1261.18,-361.36C1180.93,-328.9 996.46,-254.27 908.37,-218.63"/>
<polygon fill="black" stroke="black" points="909.47,-215.3 898.88,-214.8 906.84,-221.79 909.47,-215.3"/>
<text text-anchor="middle" x="1256.18" y="-350.16" font-family="Times,serif" font-size="14.00">1</text>
</g>
<!-- dra.func_8012EAD0 -->
<g id="node9" class="node">
<title>dra.func_8012EAD0</title>
<g id="a_node9"><a xlink:href="dra.func_8012EAD0.svg" xlink:title="dra.func_8012EAD0">
<ellipse fill="green" stroke="black" cx="1521.84" cy="-378" rx="103.18" ry="18"/>
<text text-anchor="middle" x="1521.84" y="-374.3" font-family="Times,serif" font-size="14.00">dra.func_8012EAD0</text>
</a>
</g>
</g>
<!-- dra.func_8012EAD0&#45;&gt;dra.func_80111CC0 -->
<g id="edge8" class="edge">
<title>dra.func_8012EAD0&#45;&gt;dra.func_80111CC0</title>
<path fill="none" stroke="black" d="M1468.22,-362.58C1347.18,-330.04 1053.16,-250.98 923.3,-216.06"/>
<polygon fill="black" stroke="black" points="924.05,-212.64 913.49,-213.43 922.24,-219.4 924.05,-212.64"/>
<text text-anchor="middle" x="1463.22" y="-351.38" font-family="Times,serif" font-size="14.00">1</text>
</g>
</g>
</svg>
