<?xml version="1.0" encoding="UTF-8" standalone="no"?>
<!DOCTYPE svg PUBLIC "-//W3C//DTD SVG 1.1//EN"
 "http://www.w3.org/Graphics/SVG/1.1/DTD/svg11.dtd">
<!-- Generated by graphviz version 2.43.0 (0)
 -->
<!-- Title: dra.IsRelicActive Pages: 1 -->
<svg width="3637pt" height="224pt"
 viewBox="0.00 0.00 3637.33 224.00" xmlns="http://www.w3.org/2000/svg" xmlns:xlink="http://www.w3.org/1999/xlink">
<g id="graph0" class="graph" transform="scale(1 1) rotate(0) translate(4 220)">
<title>dra.IsRelicActive</title>
<polygon fill="white" stroke="transparent" points="-4,4 -4,-220 3633.33,-220 3633.33,4 -4,4"/>
<!-- dra.IsRelicActive -->
<g id="node1" class="node">
<title>dra.IsRelicActive</title>
<ellipse fill="green" stroke="black" cx="1913.64" cy="-18" rx="89.08" ry="18"/>
<text text-anchor="middle" x="1913.64" y="-14.3" font-family="Times,serif" font-size="14.00">dra.IsRelicActive</text>
</g>
<!-- dra.CheckGravityBootsInput -->
<g id="node2" class="node">
<title>dra.CheckGravityBootsInput</title>
<g id="a_node2"><a xlink:href="dra.CheckGravityBootsInput.svg" xlink:title="dra.CheckGravityBootsInput">
<ellipse fill="green" stroke="black" cx="143.64" cy="-198" rx="143.77" ry="18"/>
<text text-anchor="middle" x="143.64" y="-194.3" font-family="Times,serif" font-size="14.00">dra.CheckGravityBootsInput</text>
</a>
</g>
</g>
<!-- dra.CheckGravityBootsInput&#45;&gt;dra.IsRelicActive -->
<g id="edge1" class="edge">
<title>dra.CheckGravityBootsInput&#45;&gt;dra.IsRelicActive</title>
<path fill="none" stroke="black" d="M246.23,-185.35C262.75,-183.53 279.66,-181.69 295.64,-180 878.55,-118.4 1580.32,-50.81 1824.65,-27.47"/>
<polygon fill="black" stroke="black" points="1825.27,-30.93 1834.89,-26.49 1824.6,-23.96 1825.27,-30.93"/>
<text text-anchor="middle" x="241.23" y="-174.15" font-family="Times,serif" font-size="14.00">1</text>
</g>
<!-- dra.ControlBatForm -->
<g id="node3" class="node">
<title>dra.ControlBatForm</title>
<g id="a_node3"><a xlink:href="dra.ControlBatForm.svg" xlink:title="dra.ControlBatForm">
<ellipse fill="green" stroke="black" cx="409.64" cy="-198" rx="104.78" ry="18"/>
<text text-anchor="middle" x="409.64" y="-194.3" font-family="Times,serif" font-size="14.00">dra.ControlBatForm</text>
</a>
</g>
</g>
<!-- dra.ControlBatForm&#45;&gt;dra.IsRelicActive -->
<g id="edge2" class="edge">
<title>dra.ControlBatForm&#45;&gt;dra.IsRelicActive</title>
<path fill="none" stroke="black" d="M484.71,-185.45C497.68,-183.55 511.04,-181.67 523.64,-180 1015.25,-114.89 1606.67,-51.25 1826.13,-28.13"/>
<polygon fill="black" stroke="black" points="1826.72,-31.59 1836.3,-27.06 1825.99,-24.63 1826.72,-31.59"/>
<text text-anchor="middle" x="479.71" y="-174.25" font-family="Times,serif" font-size="14.00">2</text>
</g>
<!-- dra.ControlMistForm -->
<g id="node4" class="node">
<title>dra.ControlMistForm</title>
<g id="a_node4"><a xlink:href="dra.ControlMistForm.svg" xlink:title="dra.ControlMistForm">
<ellipse fill="green" stroke="black" cx="641.64" cy="-198" rx="109.38" ry="18"/>
<text text-anchor="middle" x="641.64" y="-194.3" font-family="Times,serif" font-size="14.00">dra.ControlMistForm</text>
</a>
</g>
</g>
<!-- dra.ControlMistForm&#45;&gt;dra.IsRelicActive -->
<g id="edge3" class="edge">
<title>dra.ControlMistForm&#45;&gt;dra.IsRelicActive</title>
<path fill="none" stroke="black" d="M720.65,-185.57C733.68,-183.7 747.03,-181.79 759.64,-180 1162.06,-122.94 1643.68,-56.27 1832.27,-30.22"/>
<polygon fill="black" stroke="black" points="1832.95,-33.66 1842.38,-28.83 1831.99,-26.73 1832.95,-33.66"/>
<text text-anchor="middle" x="715.65" y="-174.37" font-family="Times,serif" font-size="14.00">3</text>
</g>
<!-- dra.EntityAlucard -->
<g id="node5" class="node">
<title>dra.EntityAlucard</title>
<g id="a_node5"><a xlink:href="dra.EntityAlucard.svg" xlink:title="dra.EntityAlucard">
<ellipse fill="green" stroke="black" cx="862.64" cy="-198" rx="93.68" ry="18"/>
<text text-anchor="middle" x="862.64" y="-194.3" font-family="Times,serif" font-size="14.00">dra.EntityAlucard</text>
</a>
</g>
</g>
<!-- dra.EntityAlucard&#45;&gt;dra.IsRelicActive -->
<g id="edge4" class="edge">
<title>dra.EntityAlucard&#45;&gt;dra.IsRelicActive</title>
<path fill="none" stroke="black" d="M930.38,-185.53C1117.57,-153.82 1640.96,-65.18 1837.64,-31.87"/>
<polygon fill="black" stroke="black" points="1838.33,-35.3 1847.6,-30.18 1837.16,-28.4 1838.33,-35.3"/>
<text text-anchor="middle" x="925.38" y="-174.33" font-family="Times,serif" font-size="14.00">2</text>
</g>
<!-- dra.EntityBatEcho -->
<g id="node6" class="node">
<title>dra.EntityBatEcho</title>
<g id="a_node6"><a xlink:href="dra.EntityBatEcho.svg" xlink:title="dra.EntityBatEcho">
<ellipse fill="red" stroke="black" cx="1070.64" cy="-198" rx="96.68" ry="18"/>
<text text-anchor="middle" x="1070.64" y="-194.3" font-family="Times,serif" font-size="14.00">dra.EntityBatEcho</text>
</a>
</g>
</g>
<!-- dra.EntityBatEcho&#45;&gt;dra.IsRelicActive -->
<g id="edge5" class="edge">
<title>dra.EntityBatEcho&#45;&gt;dra.IsRelicActive</title>
<path fill="none" stroke="black" d="M1131.94,-184.06C1285.12,-151.71 1683.78,-67.53 1844.74,-33.55"/>
<polygon fill="black" stroke="black" points="1845.47,-36.97 1854.53,-31.48 1844.03,-30.12 1845.47,-36.97"/>
<text text-anchor="middle" x="1126.94" y="-172.86" font-family="Times,serif" font-size="14.00">1</text>
</g>
<!-- dra.EntityPlayerBlinkWhite -->
<g id="node7" class="node">
<title>dra.EntityPlayerBlinkWhite</title>
<g id="a_node7"><a xlink:href="dra.EntityPlayerBlinkWhite.svg" xlink:title="dra.EntityPlayerBlinkWhite">
<ellipse fill="green" stroke="black" cx="1324.64" cy="-198" rx="139.18" ry="18"/>
<text text-anchor="middle" x="1324.64" y="-194.3" font-family="Times,serif" font-size="14.00">dra.EntityPlayerBlinkWhite</text>
</a>
</g>
</g>
<!-- dra.EntityPlayerBlinkWhite&#45;&gt;dra.IsRelicActive -->
<g id="edge6" class="edge">
<title>dra.EntityPlayerBlinkWhite&#45;&gt;dra.IsRelicActive</title>
<path fill="none" stroke="black" d="M1376.65,-181.28C1486.74,-148.01 1742.54,-70.71 1856.77,-36.19"/>
<polygon fill="black" stroke="black" points="1857.83,-39.52 1866.39,-33.28 1855.81,-32.82 1857.83,-39.52"/>
<text text-anchor="middle" x="1371.65" y="-170.08" font-family="Times,serif" font-size="14.00">1</text>
</g>
<!-- dra.HandleTransformationMP -->
<g id="node8" class="node">
<title>dra.HandleTransformationMP</title>
<g id="a_node8"><a xlink:href="dra.HandleTransformationMP.svg" xlink:title="dra.HandleTransformationMP">
<ellipse fill="green" stroke="black" cx="1631.64" cy="-198" rx="149.47" ry="18"/>
<text text-anchor="middle" x="1631.64" y="-194.3" font-family="Times,serif" font-size="14.00">dra.HandleTransformationMP</text>
</a>
</g>
</g>
<!-- dra.HandleTransformationMP&#45;&gt;dra.IsRelicActive -->
<g id="edge7" class="edge">
<title>dra.HandleTransformationMP&#45;&gt;dra.IsRelicActive</title>
<path fill="none" stroke="black" d="M1658.17,-180.25C1709.44,-147.89 1822.12,-76.77 1879.14,-40.78"/>
<polygon fill="black" stroke="black" points="1881.2,-43.61 1887.79,-35.31 1877.47,-37.69 1881.2,-43.61"/>
<text text-anchor="middle" x="1653.17" y="-169.05" font-family="Times,serif" font-size="14.00">4</text>
</g>
<!-- dra.MistFormFinished -->
<g id="node9" class="node">
<title>dra.MistFormFinished</title>
<g id="a_node9"><a xlink:href="dra.MistFormFinished.svg" xlink:title="dra.MistFormFinished">
<ellipse fill="green" stroke="black" cx="1913.64" cy="-198" rx="114.28" ry="18"/>
<text text-anchor="middle" x="1913.64" y="-194.3" font-family="Times,serif" font-size="14.00">dra.MistFormFinished</text>
</a>
</g>
</g>
<!-- dra.MistFormFinished&#45;&gt;dra.IsRelicActive -->
<g id="edge8" class="edge">
<title>dra.MistFormFinished&#45;&gt;dra.IsRelicActive</title>
<path fill="none" stroke="black" d="M1913.64,-179.93C1913.64,-148.97 1913.64,-83.3 1913.64,-46.13"/>
<polygon fill="black" stroke="black" points="1917.14,-46.02 1913.64,-36.02 1910.14,-46.02 1917.14,-46.02"/>
<text text-anchor="middle" x="1908.64" y="-168.73" font-family="Times,serif" font-size="14.00">1</text>
</g>
<!-- dra.UnknownEntId48 -->
<g id="node10" class="node">
<title>dra.UnknownEntId48</title>
<g id="a_node10"><a xlink:href="dra.UnknownEntId48.svg" xlink:title="dra.UnknownEntId48">
<ellipse fill="green" stroke="black" cx="2156.64" cy="-198" rx="110.48" ry="18"/>
<text text-anchor="middle" x="2156.64" y="-194.3" font-family="Times,serif" font-size="14.00">dra.UnknownEntId48</text>
</a>
</g>
</g>
<!-- dra.UnknownEntId48&#45;&gt;dra.IsRelicActive -->
<g id="edge9" class="edge">
<title>dra.UnknownEntId48&#45;&gt;dra.IsRelicActive</title>
<path fill="none" stroke="black" d="M2133.78,-180.25C2089.88,-148.1 1993.79,-77.71 1944.35,-41.5"/>
<polygon fill="black" stroke="black" points="1946.4,-38.66 1936.26,-35.57 1942.26,-44.3 1946.4,-38.66"/>
<text text-anchor="middle" x="2128.78" y="-169.05" font-family="Times,serif" font-size="14.00">1</text>
</g>
<!-- dra.WolfFormFinished -->
<g id="node11" class="node">
<title>dra.WolfFormFinished</title>
<g id="a_node11"><a xlink:href="dra.WolfFormFinished.svg" xlink:title="dra.WolfFormFinished">
<ellipse fill="green" stroke="black" cx="2399.64" cy="-198" rx="114.28" ry="18"/>
<text text-anchor="middle" x="2399.64" y="-194.3" font-family="Times,serif" font-size="14.00">dra.WolfFormFinished</text>
</a>
</g>
</g>
<!-- dra.WolfFormFinished&#45;&gt;dra.IsRelicActive -->
<g id="edge10" class="edge">
<title>dra.WolfFormFinished&#45;&gt;dra.IsRelicActive</title>
<path fill="none" stroke="black" d="M2356.51,-181.2C2266.67,-148.3 2059.89,-72.57 1964.07,-37.47"/>
<polygon fill="black" stroke="black" points="1965.2,-34.16 1954.6,-34 1962.79,-40.73 1965.2,-34.16"/>
<text text-anchor="middle" x="2351.51" y="-170" font-family="Times,serif" font-size="14.00">1</text>
</g>
<!-- dra.func_8010FDF8 -->
<g id="node12" class="node">
<title>dra.func_8010FDF8</title>
<g id="a_node12"><a xlink:href="dra.func_8010FDF8.svg" xlink:title="dra.func_8010FDF8">
<ellipse fill="green" stroke="black" cx="2634.64" cy="-198" rx="102.88" ry="18"/>
<text text-anchor="middle" x="2634.64" y="-194.3" font-family="Times,serif" font-size="14.00">dra.func_8010FDF8</text>
</a>
</g>
</g>
<!-- dra.func_8010FDF8&#45;&gt;dra.IsRelicActive -->
<g id="edge11" class="edge">
<title>dra.func_8010FDF8&#45;&gt;dra.IsRelicActive</title>
<path fill="none" stroke="black" d="M2577.76,-182.96C2445.4,-150.28 2117.46,-69.32 1978.02,-34.9"/>
<polygon fill="black" stroke="black" points="1978.46,-31.4 1967.92,-32.4 1976.79,-38.2 1978.46,-31.4"/>
<text text-anchor="middle" x="2572.76" y="-171.76" font-family="Times,serif" font-size="14.00">1</text>
</g>
<!-- dra.func_8012C97C -->
<g id="node13" class="node">
<title>dra.func_8012C97C</title>
<g id="a_node13"><a xlink:href="dra.func_8012C97C.svg" xlink:title="dra.func_8012C97C">
<ellipse fill="green" stroke="black" cx="2857.64" cy="-198" rx="102.88" ry="18"/>
<text text-anchor="middle" x="2857.64" y="-194.3" font-family="Times,serif" font-size="14.00">dra.func_8012C97C</text>
</a>
</g>
</g>
<!-- dra.func_8012C97C&#45;&gt;dra.IsRelicActive -->
<g id="edge12" class="edge">
<title>dra.func_8012C97C&#45;&gt;dra.IsRelicActive</title>
<path fill="none" stroke="black" d="M2790.5,-184.34C2618.72,-151.95 2164.24,-66.25 1986.42,-32.72"/>
<polygon fill="black" stroke="black" points="1986.86,-29.25 1976.38,-30.83 1985.56,-36.12 1986.86,-29.25"/>
<text text-anchor="middle" x="2785.5" y="-173.14" font-family="Times,serif" font-size="14.00">2</text>
</g>
<!-- dra.func_8012CC30 -->
<g id="node14" class="node">
<title>dra.func_8012CC30</title>
<g id="a_node14"><a xlink:href="dra.func_8012CC30.svg" xlink:title="dra.func_8012CC30">
<ellipse fill="green" stroke="black" cx="3080.64" cy="-198" rx="102.88" ry="18"/>
<text text-anchor="middle" x="3080.64" y="-194.3" font-family="Times,serif" font-size="14.00">dra.func_8012CC30</text>
</a>
</g>
</g>
<!-- dra.func_8012CC30&#45;&gt;dra.IsRelicActive -->
<g id="edge13" class="edge">
<title>dra.func_8012CC30&#45;&gt;dra.IsRelicActive</title>
<path fill="none" stroke="black" d="M3006,-185.56C2993.85,-183.7 2981.39,-181.8 2969.64,-180 2604.35,-124.18 2167.95,-57.72 1992.44,-31"/>
<polygon fill="black" stroke="black" points="1992.93,-27.53 1982.52,-29.49 1991.88,-34.45 1992.93,-27.53"/>
<text text-anchor="middle" x="3001" y="-174.36" font-family="Times,serif" font-size="14.00">1</text>
</g>
<!-- dra.func_8012D3E8 -->
<g id="node15" class="node">
<title>dra.func_8012D3E8</title>
<g id="a_node15"><a xlink:href="dra.func_8012D3E8.svg" xlink:title="dra.func_8012D3E8">
<ellipse fill="green" stroke="black" cx="3303.64" cy="-198" rx="102.88" ry="18"/>
<text text-anchor="middle" x="3303.64" y="-194.3" font-family="Times,serif" font-size="14.00">dra.func_8012D3E8</text>
</a>
</g>
</g>
<!-- dra.func_8012D3E8&#45;&gt;dra.IsRelicActive -->
<g id="edge14" class="edge">
<title>dra.func_8012D3E8&#45;&gt;dra.IsRelicActive</title>
<path fill="none" stroke="black" d="M3229.94,-185.43C3217.5,-183.56 3204.71,-181.68 3192.64,-180 2743.61,-117.36 2204.33,-53.04 1998.81,-28.92"/>
<polygon fill="black" stroke="black" points="1999.03,-25.43 1988.69,-27.74 1998.22,-32.38 1999.03,-25.43"/>
<text text-anchor="middle" x="3224.94" y="-174.23" font-family="Times,serif" font-size="14.00">2</text>
</g>
<!-- dra.func_8012ED30 -->
<g id="node16" class="node">
<title>dra.func_8012ED30</title>
<g id="a_node16"><a xlink:href="dra.func_8012ED30.svg" xlink:title="dra.func_8012ED30">
<ellipse fill="green" stroke="black" cx="3526.64" cy="-198" rx="102.88" ry="18"/>
<text text-anchor="middle" x="3526.64" y="-194.3" font-family="Times,serif" font-size="14.00">dra.func_8012ED30</text>
</a>
</g>
</g>
<!-- dra.func_8012ED30&#45;&gt;dra.IsRelicActive -->
<g id="edge15" class="edge">
<title>dra.func_8012ED30&#45;&gt;dra.IsRelicActive</title>
<path fill="none" stroke="black" d="M3453.56,-185.33C3440.93,-183.45 3427.91,-181.6 3415.64,-180 2881.02,-110.44 2236.49,-48.78 2003.3,-27.18"/>
<polygon fill="black" stroke="black" points="2003.45,-23.68 1993.17,-26.25 2002.81,-30.65 2003.45,-23.68"/>
<text text-anchor="middle" x="3448.56" y="-174.13" font-family="Times,serif" font-size="14.00">1</text>
</g>
</g>
</svg>
