<?xml version="1.0" encoding="UTF-8" standalone="no"?>
<!DOCTYPE svg PUBLIC "-//W3C//DTD SVG 1.1//EN"
 "http://www.w3.org/Graphics/SVG/1.1/DTD/svg11.dtd">
<!-- Generated by graphviz version 2.43.0 (0)
 -->
<!-- Title: dra.func_80107C6C Pages: 1 -->
<svg width="951pt" height="224pt"
 viewBox="0.00 0.00 950.83 224.00" xmlns="http://www.w3.org/2000/svg" xmlns:xlink="http://www.w3.org/1999/xlink">
<g id="graph0" class="graph" transform="scale(1 1) rotate(0) translate(4 220)">
<title>dra.func_80107C6C</title>
<polygon fill="white" stroke="transparent" points="-4,4 -4,-220 946.83,-220 946.83,4 -4,4"/>
<!-- dra.func_80107C6C -->
<g id="node1" class="node">
<title>dra.func_80107C6C</title>
<ellipse fill="green" stroke="black" cx="422.14" cy="-198" rx="102.88" ry="18"/>
<text text-anchor="middle" x="422.14" y="-194.3" font-family="Times,serif" font-size="14.00">dra.func_80107C6C</text>
</g>
<!-- CdDataCallback -->
<g id="node2" class="node">
<title>CdDataCallback</title>
<g id="a_node2"><a xlink:href="CdDataCallback.svg" xlink:title="CdDataCallback">
<ellipse fill="lightblue" stroke="black" cx="85.14" cy="-18" rx="85.29" ry="18"/>
<text text-anchor="middle" x="85.14" y="-14.3" font-family="Times,serif" font-size="14.00">CdDataCallback</text>
</a>
</g>
</g>
<!-- dra.func_80107C6C&#45;&gt;CdDataCallback -->
<g id="edge1" class="edge">
<title>dra.func_80107C6C&#45;&gt;CdDataCallback</title>
<path fill="none" stroke="black" d="M391.34,-180.73C329.89,-148.27 192.14,-75.52 124.35,-39.71"/>
<polygon fill="black" stroke="black" points="125.74,-36.49 115.26,-34.91 122.47,-42.68 125.74,-36.49"/>
<text text-anchor="middle" x="110.26" y="-38.71" font-family="Times,serif" font-size="14.00">2</text>
</g>
<!-- SsVabTransBodyPartly -->
<g id="node3" class="node">
<title>SsVabTransBodyPartly</title>
<g id="a_node3"><a xlink:href="SsVabTransBodyPartly.svg" xlink:title="SsVabTransBodyPartly">
<ellipse fill="lightblue" stroke="black" cx="304.14" cy="-18" rx="116.18" ry="18"/>
<text text-anchor="middle" x="304.14" y="-14.3" font-family="Times,serif" font-size="14.00">SsVabTransBodyPartly</text>
</a>
</g>
</g>
<!-- dra.func_80107C6C&#45;&gt;SsVabTransBodyPartly -->
<g id="edge2" class="edge">
<title>dra.func_80107C6C&#45;&gt;SsVabTransBodyPartly</title>
<path fill="none" stroke="black" d="M410.83,-179.93C390.04,-148.57 345.64,-81.6 321.18,-44.71"/>
<polygon fill="black" stroke="black" points="323.87,-42.42 315.42,-36.02 318.03,-46.28 323.87,-42.42"/>
<text text-anchor="middle" x="310.42" y="-39.82" font-family="Times,serif" font-size="14.00">1</text>
</g>
<!-- dra.func_801073C0 -->
<g id="node4" class="node">
<title>dra.func_801073C0</title>
<g id="a_node4"><a xlink:href="dra.func_801073C0.svg" xlink:title="dra.func_801073C0">
<ellipse fill="green" stroke="black" cx="540.14" cy="-18" rx="101.28" ry="18"/>
<text text-anchor="middle" x="540.14" y="-14.3" font-family="Times,serif" font-size="14.00">dra.func_801073C0</text>
</a>
</g>
</g>
<!-- dra.func_80107C6C&#45;&gt;dra.func_801073C0 -->
<g id="edge3" class="edge">
<title>dra.func_80107C6C&#45;&gt;dra.func_801073C0</title>
<path fill="none" stroke="black" d="M433.46,-179.93C454.25,-148.57 498.64,-81.6 523.1,-44.71"/>
<polygon fill="black" stroke="black" points="526.25,-46.28 528.86,-36.02 520.42,-42.42 526.25,-46.28"/>
<text text-anchor="middle" x="523.86" y="-39.82" font-family="Times,serif" font-size="14.00">1</text>
</g>
<!-- main.SsVabTransCompleted -->
<g id="node5" class="node">
<title>main.SsVabTransCompleted</title>
<g id="a_node5"><a xlink:href="main.SsVabTransCompleted.svg" xlink:title="main.SsVabTransCompleted">
<ellipse fill="green" stroke="black" cx="801.14" cy="-18" rx="141.88" ry="18"/>
<text text-anchor="middle" x="801.14" y="-14.3" font-family="Times,serif" font-size="14.00">main.SsVabTransCompleted</text>
</a>
</g>
</g>
<!-- dra.func_80107C6C&#45;&gt;main.SsVabTransCompleted -->
<g id="edge4" class="edge">
<title>dra.func_80107C6C&#45;&gt;main.SsVabTransCompleted</title>
<path fill="none" stroke="black" d="M456.44,-180.89C525.29,-148.55 680.25,-75.78 756.73,-39.86"/>
<polygon fill="black" stroke="black" points="758.53,-42.88 766.09,-35.46 755.56,-36.54 758.53,-42.88"/>
<text text-anchor="middle" x="761.09" y="-39.26" font-family="Times,serif" font-size="14.00">1</text>
</g>
</g>
</svg>
