<?xml version="1.0" encoding="UTF-8" standalone="no"?>
<!DOCTYPE svg PUBLIC "-//W3C//DTD SVG 1.1//EN"
 "http://www.w3.org/Graphics/SVG/1.1/DTD/svg11.dtd">
<!-- Generated by graphviz version 2.43.0 (0)
 -->
<!-- Title: dra.func_8011A9D8 Pages: 1 -->
<svg width="480pt" height="404pt"
 viewBox="0.00 0.00 480.48 404.00" xmlns="http://www.w3.org/2000/svg" xmlns:xlink="http://www.w3.org/1999/xlink">
<g id="graph0" class="graph" transform="scale(1 1) rotate(0) translate(4 400)">
<title>dra.func_8011A9D8</title>
<polygon fill="white" stroke="transparent" points="-4,4 -4,-400 476.48,-400 476.48,4 -4,4"/>
<!-- dra.func_8011A9D8 -->
<g id="node1" class="node">
<title>dra.func_8011A9D8</title>
<ellipse fill="green" stroke="black" cx="254.59" cy="-198" rx="102.88" ry="18"/>
<text text-anchor="middle" x="254.59" y="-194.3" font-family="Times,serif" font-size="14.00">dra.func_8011A9D8</text>
</g>
<!-- UnknownpfnEntityUpdate -->
<g id="node2" class="node">
<title>UnknownpfnEntityUpdate</title>
<g id="a_node2"><a xlink:href="UnknownpfnEntityUpdate.svg" xlink:title="UnknownpfnEntityUpdate">
<ellipse fill="lightblue" stroke="black" cx="132.59" cy="-18" rx="132.68" ry="18"/>
<text text-anchor="middle" x="132.59" y="-14.3" font-family="Times,serif" font-size="14.00">UnknownpfnEntityUpdate</text>
</a>
</g>
</g>
<!-- dra.func_8011A9D8&#45;&gt;UnknownpfnEntityUpdate -->
<g id="edge1" class="edge">
<title>dra.func_8011A9D8&#45;&gt;UnknownpfnEntityUpdate</title>
<path fill="none" stroke="black" d="M242.89,-179.93C221.39,-148.57 175.5,-81.6 150.21,-44.71"/>
<polygon fill="black" stroke="black" points="152.79,-42.29 144.25,-36.02 147.02,-46.24 152.79,-42.29"/>
<text text-anchor="middle" x="139.25" y="-39.82" font-family="Times,serif" font-size="14.00">2</text>
</g>
<!-- dra.DestroyEntity -->
<g id="node3" class="node">
<title>dra.DestroyEntity</title>
<g id="a_node3"><a xlink:href="dra.DestroyEntity.svg" xlink:title="dra.DestroyEntity">
<ellipse fill="green" stroke="black" cx="377.59" cy="-18" rx="94.78" ry="18"/>
<text text-anchor="middle" x="377.59" y="-14.3" font-family="Times,serif" font-size="14.00">dra.DestroyEntity</text>
</a>
</g>
</g>
<!-- dra.func_8011A9D8&#45;&gt;dra.DestroyEntity -->
<g id="edge2" class="edge">
<title>dra.func_8011A9D8&#45;&gt;dra.DestroyEntity</title>
<path fill="none" stroke="black" d="M266.38,-179.93C288.06,-148.57 334.33,-81.6 359.82,-44.71"/>
<polygon fill="black" stroke="black" points="363.02,-46.23 365.83,-36.02 357.27,-42.25 363.02,-46.23"/>
<text text-anchor="middle" x="360.83" y="-39.82" font-family="Times,serif" font-size="14.00">1</text>
</g>
<!-- dra.RunMainEngine -->
<g id="node4" class="node">
<title>dra.RunMainEngine</title>
<g id="a_node4"><a xlink:href="dra.RunMainEngine.svg" xlink:title="dra.RunMainEngine">
<ellipse fill="green" stroke="black" cx="254.59" cy="-378" rx="103.98" ry="18"/>
<text text-anchor="middle" x="254.59" y="-374.3" font-family="Times,serif" font-size="14.00">dra.RunMainEngine</text>
</a>
</g>
</g>
<!-- dra.RunMainEngine&#45;&gt;dra.func_8011A9D8 -->
<g id="edge3" class="edge">
<title>dra.RunMainEngine&#45;&gt;dra.func_8011A9D8</title>
<path fill="none" stroke="black" d="M254.59,-359.93C254.59,-328.97 254.59,-263.3 254.59,-226.13"/>
<polygon fill="black" stroke="black" points="258.09,-226.02 254.59,-216.02 251.09,-226.02 258.09,-226.02"/>
<text text-anchor="middle" x="249.59" y="-348.73" font-family="Times,serif" font-size="14.00">2</text>
</g>
</g>
</svg>
