<?xml version="1.0" encoding="UTF-8" standalone="no"?>
<!DOCTYPE svg PUBLIC "-//W3C//DTD SVG 1.1//EN"
 "http://www.w3.org/Graphics/SVG/1.1/DTD/svg11.dtd">
<!-- Generated by graphviz version 2.43.0 (0)
 -->
<!-- Title: dra.func_801073E8 Pages: 1 -->
<svg width="393pt" height="404pt"
 viewBox="0.00 0.00 393.49 404.00" xmlns="http://www.w3.org/2000/svg" xmlns:xlink="http://www.w3.org/1999/xlink">
<g id="graph0" class="graph" transform="scale(1 1) rotate(0) translate(4 400)">
<title>dra.func_801073E8</title>
<polygon fill="white" stroke="transparent" points="-4,4 -4,-400 389.49,-400 389.49,4 -4,4"/>
<!-- dra.func_801073E8 -->
<g id="node1" class="node">
<title>dra.func_801073E8</title>
<ellipse fill="green" stroke="black" cx="211.34" cy="-198" rx="101.28" ry="18"/>
<text text-anchor="middle" x="211.34" y="-194.3" font-family="Times,serif" font-size="14.00">dra.func_801073E8</text>
</g>
<!-- CdControlF -->
<g id="node2" class="node">
<title>CdControlF</title>
<g id="a_node2"><a xlink:href="CdControlF.svg" xlink:title="CdControlF">
<ellipse fill="lightblue" stroke="black" cx="64.34" cy="-18" rx="64.19" ry="18"/>
<text text-anchor="middle" x="64.34" y="-14.3" font-family="Times,serif" font-size="14.00">CdControlF</text>
</a>
</g>
</g>
<!-- dra.func_801073E8&#45;&gt;CdControlF -->
<g id="edge1" class="edge">
<title>dra.func_801073E8&#45;&gt;CdControlF</title>
<path fill="none" stroke="black" d="M197.25,-179.93C171.06,-148.22 114.82,-80.12 84.57,-43.5"/>
<polygon fill="black" stroke="black" points="87.25,-41.24 78.18,-35.76 81.85,-45.7 87.25,-41.24"/>
<text text-anchor="middle" x="73.18" y="-39.56" font-family="Times,serif" font-size="14.00">1</text>
</g>
<!-- CdLastCom -->
<g id="node3" class="node">
<title>CdLastCom</title>
<g id="a_node3"><a xlink:href="CdLastCom.svg" xlink:title="CdLastCom">
<ellipse fill="lightblue" stroke="black" cx="211.34" cy="-18" rx="64.19" ry="18"/>
<text text-anchor="middle" x="211.34" y="-14.3" font-family="Times,serif" font-size="14.00">CdLastCom</text>
</a>
</g>
</g>
<!-- dra.func_801073E8&#45;&gt;CdLastCom -->
<g id="edge2" class="edge">
<title>dra.func_801073E8&#45;&gt;CdLastCom</title>
<path fill="none" stroke="black" d="M211.34,-179.93C211.34,-148.97 211.34,-83.3 211.34,-46.13"/>
<polygon fill="black" stroke="black" points="214.84,-46.02 211.34,-36.02 207.84,-46.02 214.84,-46.02"/>
<text text-anchor="middle" x="206.34" y="-39.82" font-family="Times,serif" font-size="14.00">1</text>
</g>
<!-- CdSync -->
<g id="node4" class="node">
<title>CdSync</title>
<g id="a_node4"><a xlink:href="CdSync.svg" xlink:title="CdSync">
<ellipse fill="lightblue" stroke="black" cx="339.34" cy="-18" rx="46.29" ry="18"/>
<text text-anchor="middle" x="339.34" y="-14.3" font-family="Times,serif" font-size="14.00">CdSync</text>
</a>
</g>
</g>
<!-- dra.func_801073E8&#45;&gt;CdSync -->
<g id="edge3" class="edge">
<title>dra.func_801073E8&#45;&gt;CdSync</title>
<path fill="none" stroke="black" d="M223.62,-179.93C246.38,-148.27 295.23,-80.34 321.6,-43.68"/>
<polygon fill="black" stroke="black" points="324.48,-45.66 327.48,-35.5 318.8,-41.57 324.48,-45.66"/>
<text text-anchor="middle" x="322.48" y="-39.3" font-family="Times,serif" font-size="14.00">1</text>
</g>
<!-- dra.UpdateCd -->
<g id="node5" class="node">
<title>dra.UpdateCd</title>
<g id="a_node5"><a xlink:href="dra.UpdateCd.svg" xlink:title="dra.UpdateCd">
<ellipse fill="green" stroke="black" cx="211.34" cy="-378" rx="76.09" ry="18"/>
<text text-anchor="middle" x="211.34" y="-374.3" font-family="Times,serif" font-size="14.00">dra.UpdateCd</text>
</a>
</g>
</g>
<!-- dra.UpdateCd&#45;&gt;dra.func_801073E8 -->
<g id="edge4" class="edge">
<title>dra.UpdateCd&#45;&gt;dra.func_801073E8</title>
<path fill="none" stroke="black" d="M211.34,-359.93C211.34,-328.97 211.34,-263.3 211.34,-226.13"/>
<polygon fill="black" stroke="black" points="214.84,-226.02 211.34,-216.02 207.84,-226.02 214.84,-226.02"/>
<text text-anchor="middle" x="206.34" y="-348.73" font-family="Times,serif" font-size="14.00">1</text>
</g>
</g>
</svg>
