<?xml version="1.0" encoding="UTF-8" standalone="no"?>
<!DOCTYPE svg PUBLIC "-//W3C//DTD SVG 1.1//EN"
 "http://www.w3.org/Graphics/SVG/1.1/DTD/svg11.dtd">
<!-- Generated by graphviz version 2.43.0 (0)
 -->
<!-- Title: dra.InitRenderer Pages: 1 -->
<svg width="911pt" height="404pt"
 viewBox="0.00 0.00 911.34 404.00" xmlns="http://www.w3.org/2000/svg" xmlns:xlink="http://www.w3.org/1999/xlink">
<g id="graph0" class="graph" transform="scale(1 1) rotate(0) translate(4 400)">
<title>dra.InitRenderer</title>
<polygon fill="white" stroke="transparent" points="-4,4 -4,-400 907.34,-400 907.34,4 -4,4"/>
<!-- dra.InitRenderer -->
<g id="node1" class="node">
<title>dra.InitRenderer</title>
<ellipse fill="green" stroke="black" cx="486.79" cy="-198" rx="89.08" ry="18"/>
<text text-anchor="middle" x="486.79" y="-194.3" font-family="Times,serif" font-size="14.00">dra.InitRenderer</text>
</g>
<!-- SetLineG2 -->
<g id="node2" class="node">
<title>SetLineG2</title>
<g id="a_node2"><a xlink:href="SetLineG2.svg" xlink:title="SetLineG2">
<ellipse fill="lightblue" stroke="black" cx="59.79" cy="-18" rx="59.59" ry="18"/>
<text text-anchor="middle" x="59.79" y="-14.3" font-family="Times,serif" font-size="14.00">SetLineG2</text>
</a>
</g>
</g>
<!-- dra.InitRenderer&#45;&gt;SetLineG2 -->
<g id="edge1" class="edge">
<title>dra.InitRenderer&#45;&gt;SetLineG2</title>
<path fill="none" stroke="black" d="M449.65,-181.52C370.7,-148.6 186.6,-71.86 102.76,-36.91"/>
<polygon fill="black" stroke="black" points="103.86,-33.58 93.28,-32.96 101.17,-40.04 103.86,-33.58"/>
<text text-anchor="middle" x="88.28" y="-36.76" font-family="Times,serif" font-size="14.00">2</text>
</g>
<!-- SetPolyG4 -->
<g id="node3" class="node">
<title>SetPolyG4</title>
<g id="a_node3"><a xlink:href="SetPolyG4.svg" xlink:title="SetPolyG4">
<ellipse fill="lightblue" stroke="black" cx="196.79" cy="-18" rx="59.29" ry="18"/>
<text text-anchor="middle" x="196.79" y="-14.3" font-family="Times,serif" font-size="14.00">SetPolyG4</text>
</a>
</g>
</g>
<!-- dra.InitRenderer&#45;&gt;SetPolyG4 -->
<g id="edge2" class="edge">
<title>dra.InitRenderer&#45;&gt;SetPolyG4</title>
<path fill="none" stroke="black" d="M460.29,-180.73C407.47,-148.31 289.14,-75.68 230.73,-39.83"/>
<polygon fill="black" stroke="black" points="232.24,-36.65 221.89,-34.4 228.58,-42.62 232.24,-36.65"/>
<text text-anchor="middle" x="216.89" y="-38.2" font-family="Times,serif" font-size="14.00">2</text>
</g>
<!-- SetPolyGT3 -->
<g id="node4" class="node">
<title>SetPolyGT3</title>
<g id="a_node4"><a xlink:href="SetPolyGT3.svg" xlink:title="SetPolyGT3">
<ellipse fill="lightblue" stroke="black" cx="338.79" cy="-18" rx="64.99" ry="18"/>
<text text-anchor="middle" x="338.79" y="-14.3" font-family="Times,serif" font-size="14.00">SetPolyGT3</text>
</a>
</g>
</g>
<!-- dra.InitRenderer&#45;&gt;SetPolyGT3 -->
<g id="edge3" class="edge">
<title>dra.InitRenderer&#45;&gt;SetPolyGT3</title>
<path fill="none" stroke="black" d="M472.6,-179.93C446.24,-148.22 389.61,-80.12 359.16,-43.5"/>
<polygon fill="black" stroke="black" points="361.81,-41.21 352.73,-35.76 356.43,-45.68 361.81,-41.21"/>
<text text-anchor="middle" x="347.73" y="-39.56" font-family="Times,serif" font-size="14.00">2</text>
</g>
<!-- SetPolyGT4 -->
<g id="node5" class="node">
<title>SetPolyGT4</title>
<g id="a_node5"><a xlink:href="SetPolyGT4.svg" xlink:title="SetPolyGT4">
<ellipse fill="lightblue" stroke="black" cx="486.79" cy="-18" rx="64.99" ry="18"/>
<text text-anchor="middle" x="486.79" y="-14.3" font-family="Times,serif" font-size="14.00">SetPolyGT4</text>
</a>
</g>
</g>
<!-- dra.InitRenderer&#45;&gt;SetPolyGT4 -->
<g id="edge4" class="edge">
<title>dra.InitRenderer&#45;&gt;SetPolyGT4</title>
<path fill="none" stroke="black" d="M486.79,-179.93C486.79,-148.97 486.79,-83.3 486.79,-46.13"/>
<polygon fill="black" stroke="black" points="490.29,-46.02 486.79,-36.02 483.29,-46.02 490.29,-46.02"/>
<text text-anchor="middle" x="481.79" y="-39.82" font-family="Times,serif" font-size="14.00">2</text>
</g>
<!-- SetSprt -->
<g id="node6" class="node">
<title>SetSprt</title>
<g id="a_node6"><a xlink:href="SetSprt.svg" xlink:title="SetSprt">
<ellipse fill="lightblue" stroke="black" cx="616.79" cy="-18" rx="46.59" ry="18"/>
<text text-anchor="middle" x="616.79" y="-14.3" font-family="Times,serif" font-size="14.00">SetSprt</text>
</a>
</g>
</g>
<!-- dra.InitRenderer&#45;&gt;SetSprt -->
<g id="edge5" class="edge">
<title>dra.InitRenderer&#45;&gt;SetSprt</title>
<path fill="none" stroke="black" d="M499.26,-179.93C522.38,-148.27 571.99,-80.34 598.77,-43.68"/>
<polygon fill="black" stroke="black" points="601.67,-45.64 604.75,-35.5 596.02,-41.51 601.67,-45.64"/>
<text text-anchor="middle" x="599.75" y="-39.3" font-family="Times,serif" font-size="14.00">2</text>
</g>
<!-- SetSprt16 -->
<g id="node7" class="node">
<title>SetSprt16</title>
<g id="a_node7"><a xlink:href="SetSprt16.svg" xlink:title="SetSprt16">
<ellipse fill="lightblue" stroke="black" cx="739.79" cy="-18" rx="58.49" ry="18"/>
<text text-anchor="middle" x="739.79" y="-14.3" font-family="Times,serif" font-size="14.00">SetSprt16</text>
</a>
</g>
</g>
<!-- dra.InitRenderer&#45;&gt;SetSprt16 -->
<g id="edge6" class="edge">
<title>dra.InitRenderer&#45;&gt;SetSprt16</title>
<path fill="none" stroke="black" d="M510.14,-180.57C555.94,-148.36 657.53,-76.88 708.85,-40.77"/>
<polygon fill="black" stroke="black" points="711.07,-43.49 717.23,-34.87 707.04,-37.77 711.07,-43.49"/>
<text text-anchor="middle" x="712.23" y="-38.67" font-family="Times,serif" font-size="14.00">2</text>
</g>
<!-- SetTile -->
<g id="node8" class="node">
<title>SetTile</title>
<g id="a_node8"><a xlink:href="SetTile.svg" xlink:title="SetTile">
<ellipse fill="lightblue" stroke="black" cx="859.79" cy="-18" rx="43.59" ry="18"/>
<text text-anchor="middle" x="859.79" y="-14.3" font-family="Times,serif" font-size="14.00">SetTile</text>
</a>
</g>
</g>
<!-- dra.InitRenderer&#45;&gt;SetTile -->
<g id="edge7" class="edge">
<title>dra.InitRenderer&#45;&gt;SetTile</title>
<path fill="none" stroke="black" d="M519.9,-181.2C589.51,-147.98 750.63,-71.09 823.2,-36.46"/>
<polygon fill="black" stroke="black" points="824.91,-39.53 832.42,-32.06 821.89,-33.21 824.91,-39.53"/>
<text text-anchor="middle" x="827.42" y="-35.86" font-family="Times,serif" font-size="14.00">2</text>
</g>
<!-- dra.HandleTitle -->
<g id="node9" class="node">
<title>dra.HandleTitle</title>
<g id="a_node9"><a xlink:href="dra.HandleTitle.svg" xlink:title="dra.HandleTitle">
<ellipse fill="green" stroke="black" cx="396.79" cy="-378" rx="83.39" ry="18"/>
<text text-anchor="middle" x="396.79" y="-374.3" font-family="Times,serif" font-size="14.00">dra.HandleTitle</text>
</a>
</g>
</g>
<!-- dra.HandleTitle&#45;&gt;dra.InitRenderer -->
<g id="edge8" class="edge">
<title>dra.HandleTitle&#45;&gt;dra.InitRenderer</title>
<path fill="none" stroke="black" d="M405.42,-359.93C421.22,-328.7 454.86,-262.17 473.56,-225.18"/>
<polygon fill="black" stroke="black" points="476.8,-226.52 478.19,-216.02 470.56,-223.36 476.8,-226.52"/>
<text text-anchor="middle" x="400.42" y="-348.73" font-family="Times,serif" font-size="14.00">1</text>
</g>
<!-- dra.MainGame -->
<g id="node10" class="node">
<title>dra.MainGame</title>
<g id="a_node10"><a xlink:href="dra.MainGame.svg" xlink:title="dra.MainGame">
<ellipse fill="green" stroke="black" cx="576.79" cy="-378" rx="79.09" ry="18"/>
<text text-anchor="middle" x="576.79" y="-374.3" font-family="Times,serif" font-size="14.00">dra.MainGame</text>
</a>
</g>
</g>
<!-- dra.MainGame&#45;&gt;dra.InitRenderer -->
<g id="edge9" class="edge">
<title>dra.MainGame&#45;&gt;dra.InitRenderer</title>
<path fill="none" stroke="black" d="M568.17,-359.93C552.37,-328.7 518.73,-262.17 500.03,-225.18"/>
<polygon fill="black" stroke="black" points="503.03,-223.36 495.4,-216.02 496.79,-226.52 503.03,-223.36"/>
<text text-anchor="middle" x="563.17" y="-348.73" font-family="Times,serif" font-size="14.00">1</text>
</g>
</g>
</svg>
