<?xml version="1.0" encoding="UTF-8" standalone="no"?>
<!DOCTYPE svg PUBLIC "-//W3C//DTD SVG 1.1//EN"
 "http://www.w3.org/Graphics/SVG/1.1/DTD/svg11.dtd">
<!-- Generated by graphviz version 2.43.0 (0)
 -->
<!-- Title: dra.func_8010E570 Pages: 1 -->
<svg width="3400pt" height="404pt"
 viewBox="0.00 0.00 3399.53 404.00" xmlns="http://www.w3.org/2000/svg" xmlns:xlink="http://www.w3.org/1999/xlink">
<g id="graph0" class="graph" transform="scale(1 1) rotate(0) translate(4 400)">
<title>dra.func_8010E570</title>
<polygon fill="white" stroke="transparent" points="-4,4 -4,-400 3395.53,-400 3395.53,4 -4,4"/>
<!-- dra.func_8010E570 -->
<g id="node1" class="node">
<title>dra.func_8010E570</title>
<ellipse fill="green" stroke="black" cx="1742.84" cy="-198" rx="101.28" ry="18"/>
<text text-anchor="middle" x="1742.84" y="-194.3" font-family="Times,serif" font-size="14.00">dra.func_8010E570</text>
</g>
<!-- dra.SetPlayerAnim -->
<g id="node2" class="node">
<title>dra.SetPlayerAnim</title>
<g id="a_node2"><a xlink:href="dra.SetPlayerAnim.svg" xlink:title="dra.SetPlayerAnim">
<ellipse fill="green" stroke="black" cx="1636.84" cy="-18" rx="98.58" ry="18"/>
<text text-anchor="middle" x="1636.84" y="-14.3" font-family="Times,serif" font-size="14.00">dra.SetPlayerAnim</text>
</a>
</g>
</g>
<!-- dra.func_8010E570&#45;&gt;dra.SetPlayerAnim -->
<g id="edge1" class="edge">
<title>dra.func_8010E570&#45;&gt;dra.SetPlayerAnim</title>
<path fill="none" stroke="black" d="M1732.67,-179.93C1714,-148.57 1674.12,-81.6 1652.15,-44.71"/>
<polygon fill="black" stroke="black" points="1655.09,-42.82 1646.97,-36.02 1649.08,-46.4 1655.09,-42.82"/>
<text text-anchor="middle" x="1641.97" y="-39.82" font-family="Times,serif" font-size="14.00">1</text>
</g>
<!-- dra.SetPlayerStep -->
<g id="node3" class="node">
<title>dra.SetPlayerStep</title>
<g id="a_node3"><a xlink:href="dra.SetPlayerStep.svg" xlink:title="dra.SetPlayerStep">
<ellipse fill="green" stroke="black" cx="1849.84" cy="-18" rx="96.38" ry="18"/>
<text text-anchor="middle" x="1849.84" y="-14.3" font-family="Times,serif" font-size="14.00">dra.SetPlayerStep</text>
</a>
</g>
</g>
<!-- dra.func_8010E570&#45;&gt;dra.SetPlayerStep -->
<g id="edge2" class="edge">
<title>dra.func_8010E570&#45;&gt;dra.SetPlayerStep</title>
<path fill="none" stroke="black" d="M1753.1,-179.93C1771.95,-148.57 1812.21,-81.6 1834.38,-44.71"/>
<polygon fill="black" stroke="black" points="1837.46,-46.39 1839.61,-36.02 1831.46,-42.78 1837.46,-46.39"/>
<text text-anchor="middle" x="1834.61" y="-39.82" font-family="Times,serif" font-size="14.00">1</text>
</g>
<!-- dra.AlucardHandleDamage -->
<g id="node4" class="node">
<title>dra.AlucardHandleDamage</title>
<g id="a_node4"><a xlink:href="dra.AlucardHandleDamage.svg" xlink:title="dra.AlucardHandleDamage">
<ellipse fill="green" stroke="black" cx="135.84" cy="-378" rx="135.68" ry="18"/>
<text text-anchor="middle" x="135.84" y="-374.3" font-family="Times,serif" font-size="14.00">dra.AlucardHandleDamage</text>
</a>
</g>
</g>
<!-- dra.AlucardHandleDamage&#45;&gt;dra.func_8010E570 -->
<g id="edge3" class="edge">
<title>dra.AlucardHandleDamage&#45;&gt;dra.func_8010E570</title>
<path fill="none" stroke="black" d="M233.71,-365.43C249.47,-363.59 265.6,-361.73 280.84,-360 796.78,-301.35 1415.55,-234.29 1648.23,-209.19"/>
<polygon fill="black" stroke="black" points="1648.79,-212.65 1658.35,-208.09 1648.03,-205.69 1648.79,-212.65"/>
<text text-anchor="middle" x="228.71" y="-354.23" font-family="Times,serif" font-size="14.00">1</text>
</g>
<!-- dra.PlayerStepHellfire -->
<g id="node5" class="node">
<title>dra.PlayerStepHellfire</title>
<g id="a_node5"><a xlink:href="dra.PlayerStepHellfire.svg" xlink:title="dra.PlayerStepHellfire">
<ellipse fill="green" stroke="black" cx="404.84" cy="-378" rx="115.08" ry="18"/>
<text text-anchor="middle" x="404.84" y="-374.3" font-family="Times,serif" font-size="14.00">dra.PlayerStepHellfire</text>
</a>
</g>
</g>
<!-- dra.PlayerStepHellfire&#45;&gt;dra.func_8010E570 -->
<g id="edge4" class="edge">
<title>dra.PlayerStepHellfire&#45;&gt;dra.func_8010E570</title>
<path fill="none" stroke="black" d="M488.21,-365.52C501.79,-363.66 515.7,-361.77 528.84,-360 949.77,-303.23 1453.04,-237.02 1653.8,-210.67"/>
<polygon fill="black" stroke="black" points="1654.54,-214.11 1663.99,-209.33 1653.62,-207.16 1654.54,-214.11"/>
<text text-anchor="middle" x="483.21" y="-354.32" font-family="Times,serif" font-size="14.00">2</text>
</g>
<!-- dra.func_80109594 -->
<g id="node6" class="node">
<title>dra.func_80109594</title>
<g id="a_node6"><a xlink:href="dra.func_80109594.svg" xlink:title="dra.func_80109594">
<ellipse fill="green" stroke="black" cx="638.84" cy="-378" rx="100.98" ry="18"/>
<text text-anchor="middle" x="638.84" y="-374.3" font-family="Times,serif" font-size="14.00">dra.func_80109594</text>
</a>
</g>
</g>
<!-- dra.func_80109594&#45;&gt;dra.func_8010E570 -->
<g id="edge5" class="edge">
<title>dra.func_80109594&#45;&gt;dra.func_8010E570</title>
<path fill="none" stroke="black" d="M710.85,-365.39C907.39,-333.7 1452.22,-245.86 1660.46,-212.28"/>
<polygon fill="black" stroke="black" points="1661.1,-215.72 1670.42,-210.68 1659.99,-208.81 1661.1,-215.72"/>
<text text-anchor="middle" x="705.85" y="-354.19" font-family="Times,serif" font-size="14.00">1</text>
</g>
<!-- dra.func_8010A234 -->
<g id="node7" class="node">
<title>dra.func_8010A234</title>
<g id="a_node7"><a xlink:href="dra.func_8010A234.svg" xlink:title="dra.func_8010A234">
<ellipse fill="green" stroke="black" cx="857.84" cy="-378" rx="100.98" ry="18"/>
<text text-anchor="middle" x="857.84" y="-374.3" font-family="Times,serif" font-size="14.00">dra.func_8010A234</text>
</a>
</g>
</g>
<!-- dra.func_8010A234&#45;&gt;dra.func_8010E570 -->
<g id="edge6" class="edge">
<title>dra.func_8010A234&#45;&gt;dra.func_8010E570</title>
<path fill="none" stroke="black" d="M922.2,-364.06C1082.39,-331.84 1498.31,-248.18 1668.54,-213.94"/>
<polygon fill="black" stroke="black" points="1669.31,-217.36 1678.42,-211.96 1667.93,-210.5 1669.31,-217.36"/>
<text text-anchor="middle" x="917.2" y="-352.86" font-family="Times,serif" font-size="14.00">1</text>
</g>
<!-- dra.func_8010FDF8 -->
<g id="node8" class="node">
<title>dra.func_8010FDF8</title>
<g id="a_node8"><a xlink:href="dra.func_8010FDF8.svg" xlink:title="dra.func_8010FDF8">
<ellipse fill="green" stroke="black" cx="1078.84" cy="-378" rx="102.88" ry="18"/>
<text text-anchor="middle" x="1078.84" y="-374.3" font-family="Times,serif" font-size="14.00">dra.func_8010FDF8</text>
</a>
</g>
</g>
<!-- dra.func_8010FDF8&#45;&gt;dra.func_8010E570 -->
<g id="edge7" class="edge">
<title>dra.func_8010FDF8&#45;&gt;dra.func_8010E570</title>
<path fill="none" stroke="black" d="M1132.61,-362.58C1254.03,-330.04 1548.93,-250.98 1679.19,-216.06"/>
<polygon fill="black" stroke="black" points="1680.27,-219.4 1689.02,-213.43 1678.46,-212.63 1680.27,-219.4"/>
<text text-anchor="middle" x="1127.61" y="-351.38" font-family="Times,serif" font-size="14.00">3</text>
</g>
<!-- dra.func_801120B4 -->
<g id="node9" class="node">
<title>dra.func_801120B4</title>
<g id="a_node9"><a xlink:href="dra.func_801120B4.svg" xlink:title="dra.func_801120B4">
<ellipse fill="green" stroke="black" cx="1300.84" cy="-378" rx="101.28" ry="18"/>
<text text-anchor="middle" x="1300.84" y="-374.3" font-family="Times,serif" font-size="14.00">dra.func_801120B4</text>
</a>
</g>
</g>
<!-- dra.func_801120B4&#45;&gt;dra.func_8010E570 -->
<g id="edge8" class="edge">
<title>dra.func_801120B4&#45;&gt;dra.func_8010E570</title>
<path fill="none" stroke="black" d="M1339.68,-361.36C1420.39,-328.86 1606.06,-254.08 1694.42,-218.5"/>
<polygon fill="black" stroke="black" points="1695.96,-221.65 1703.93,-214.67 1693.35,-215.16 1695.96,-221.65"/>
<text text-anchor="middle" x="1334.68" y="-350.16" font-family="Times,serif" font-size="14.00">1</text>
</g>
<!-- dra.func_80112B64 -->
<g id="node10" class="node">
<title>dra.func_80112B64</title>
<g id="a_node10"><a xlink:href="dra.func_80112B64.svg" xlink:title="dra.func_80112B64">
<ellipse fill="green" stroke="black" cx="1521.84" cy="-378" rx="101.28" ry="18"/>
<text text-anchor="middle" x="1521.84" y="-374.3" font-family="Times,serif" font-size="14.00">dra.func_80112B64</text>
</a>
</g>
</g>
<!-- dra.func_80112B64&#45;&gt;dra.func_8010E570 -->
<g id="edge9" class="edge">
<title>dra.func_80112B64&#45;&gt;dra.func_8010E570</title>
<path fill="none" stroke="black" d="M1542.63,-360.25C1582.28,-328.32 1668.78,-258.65 1714,-222.23"/>
<polygon fill="black" stroke="black" points="1716.35,-224.83 1721.94,-215.83 1711.96,-219.38 1716.35,-224.83"/>
<text text-anchor="middle" x="1537.63" y="-349.05" font-family="Times,serif" font-size="14.00">1</text>
</g>
<!-- dra.func_801131C4 -->
<g id="node11" class="node">
<title>dra.func_801131C4</title>
<g id="a_node11"><a xlink:href="dra.func_801131C4.svg" xlink:title="dra.func_801131C4">
<ellipse fill="green" stroke="black" cx="1742.84" cy="-378" rx="101.28" ry="18"/>
<text text-anchor="middle" x="1742.84" y="-374.3" font-family="Times,serif" font-size="14.00">dra.func_801131C4</text>
</a>
</g>
</g>
<!-- dra.func_801131C4&#45;&gt;dra.func_8010E570 -->
<g id="edge10" class="edge">
<title>dra.func_801131C4&#45;&gt;dra.func_8010E570</title>
<path fill="none" stroke="black" d="M1742.84,-359.93C1742.84,-328.97 1742.84,-263.3 1742.84,-226.13"/>
<polygon fill="black" stroke="black" points="1746.34,-226.02 1742.84,-216.02 1739.34,-226.02 1746.34,-226.02"/>
<text text-anchor="middle" x="1737.84" y="-348.73" font-family="Times,serif" font-size="14.00">1</text>
</g>
<!-- dra.func_80115BB0 -->
<g id="node12" class="node">
<title>dra.func_80115BB0</title>
<g id="a_node12"><a xlink:href="dra.func_80115BB0.svg" xlink:title="dra.func_80115BB0">
<ellipse fill="green" stroke="black" cx="1964.84" cy="-378" rx="102.88" ry="18"/>
<text text-anchor="middle" x="1964.84" y="-374.3" font-family="Times,serif" font-size="14.00">dra.func_80115BB0</text>
</a>
</g>
</g>
<!-- dra.func_80115BB0&#45;&gt;dra.func_8010E570 -->
<g id="edge11" class="edge">
<title>dra.func_80115BB0&#45;&gt;dra.func_8010E570</title>
<path fill="none" stroke="black" d="M1943.95,-360.25C1904.12,-328.32 1817.23,-258.65 1771.81,-222.23"/>
<polygon fill="black" stroke="black" points="1773.82,-219.36 1763.83,-215.83 1769.44,-224.82 1773.82,-219.36"/>
<text text-anchor="middle" x="1938.95" y="-349.05" font-family="Times,serif" font-size="14.00">1</text>
</g>
<!-- dra.func_80115DA0 -->
<g id="node13" class="node">
<title>dra.func_80115DA0</title>
<g id="a_node13"><a xlink:href="dra.func_80115DA0.svg" xlink:title="dra.func_80115DA0">
<ellipse fill="green" stroke="black" cx="2187.84" cy="-378" rx="102.88" ry="18"/>
<text text-anchor="middle" x="2187.84" y="-374.3" font-family="Times,serif" font-size="14.00">dra.func_80115DA0</text>
</a>
</g>
</g>
<!-- dra.func_80115DA0&#45;&gt;dra.func_8010E570 -->
<g id="edge12" class="edge">
<title>dra.func_80115DA0&#45;&gt;dra.func_8010E570</title>
<path fill="none" stroke="black" d="M2148.35,-361.2C2066.77,-328.57 1879.87,-253.81 1791.21,-218.35"/>
<polygon fill="black" stroke="black" points="1792.51,-215.1 1781.92,-214.63 1789.91,-221.6 1792.51,-215.1"/>
<text text-anchor="middle" x="2143.35" y="-350" font-family="Times,serif" font-size="14.00">2</text>
</g>
<!-- dra.func_801166A4 -->
<g id="node14" class="node">
<title>dra.func_801166A4</title>
<g id="a_node14"><a xlink:href="dra.func_801166A4.svg" xlink:title="dra.func_801166A4">
<ellipse fill="green" stroke="black" cx="2408.84" cy="-378" rx="100.98" ry="18"/>
<text text-anchor="middle" x="2408.84" y="-374.3" font-family="Times,serif" font-size="14.00">dra.func_801166A4</text>
</a>
</g>
</g>
<!-- dra.func_801166A4&#45;&gt;dra.func_8010E570 -->
<g id="edge13" class="edge">
<title>dra.func_801166A4&#45;&gt;dra.func_8010E570</title>
<path fill="none" stroke="black" d="M2355.18,-362.66C2233.45,-330.12 1936.81,-250.84 1806.27,-215.95"/>
<polygon fill="black" stroke="black" points="1806.97,-212.52 1796.41,-213.32 1805.17,-219.28 1806.97,-212.52"/>
<text text-anchor="middle" x="2350.18" y="-351.46" font-family="Times,serif" font-size="14.00">1</text>
</g>
<!-- dra.func_8011678C -->
<g id="node15" class="node">
<title>dra.func_8011678C</title>
<g id="a_node15"><a xlink:href="dra.func_8011678C.svg" xlink:title="dra.func_8011678C">
<ellipse fill="green" stroke="black" cx="2628.84" cy="-378" rx="101.28" ry="18"/>
<text text-anchor="middle" x="2628.84" y="-374.3" font-family="Times,serif" font-size="14.00">dra.func_8011678C</text>
</a>
</g>
</g>
<!-- dra.func_8011678C&#45;&gt;dra.func_8010E570 -->
<g id="edge14" class="edge">
<title>dra.func_8011678C&#45;&gt;dra.func_8010E570</title>
<path fill="none" stroke="black" d="M2564.41,-364.06C2404.03,-331.84 1987.65,-248.18 1817.22,-213.94"/>
<polygon fill="black" stroke="black" points="1817.82,-210.49 1807.33,-211.96 1816.44,-217.36 1817.82,-210.49"/>
<text text-anchor="middle" x="2559.41" y="-352.86" font-family="Times,serif" font-size="14.00">1</text>
</g>
<!-- dra.func_80118614 -->
<g id="node16" class="node">
<title>dra.func_80118614</title>
<g id="a_node16"><a xlink:href="dra.func_80118614.svg" xlink:title="dra.func_80118614">
<ellipse fill="green" stroke="black" cx="2848.84" cy="-378" rx="100.98" ry="18"/>
<text text-anchor="middle" x="2848.84" y="-374.3" font-family="Times,serif" font-size="14.00">dra.func_80118614</text>
</a>
</g>
</g>
<!-- dra.func_80118614&#45;&gt;dra.func_8010E570 -->
<g id="edge15" class="edge">
<title>dra.func_80118614&#45;&gt;dra.func_8010E570</title>
<path fill="none" stroke="black" d="M2776.7,-365.39C2579.8,-333.7 2033.98,-245.86 1825.37,-212.28"/>
<polygon fill="black" stroke="black" points="1825.82,-208.81 1815.39,-210.68 1824.71,-215.72 1825.82,-208.81"/>
<text text-anchor="middle" x="2771.7" y="-354.19" font-family="Times,serif" font-size="14.00">1</text>
</g>
<!-- dra.func_80118670 -->
<g id="node17" class="node">
<title>dra.func_80118670</title>
<g id="a_node17"><a xlink:href="dra.func_80118670.svg" xlink:title="dra.func_80118670">
<ellipse fill="green" stroke="black" cx="3067.84" cy="-378" rx="100.98" ry="18"/>
<text text-anchor="middle" x="3067.84" y="-374.3" font-family="Times,serif" font-size="14.00">dra.func_80118670</text>
</a>
</g>
</g>
<!-- dra.func_80118670&#45;&gt;dra.func_8010E570 -->
<g id="edge16" class="edge">
<title>dra.func_80118670&#45;&gt;dra.func_8010E570</title>
<path fill="none" stroke="black" d="M2995.46,-365.47C2983.25,-363.6 2970.69,-361.71 2958.84,-360 2538.59,-299.42 2035.33,-235.54 1833.29,-210.25"/>
<polygon fill="black" stroke="black" points="1833.68,-206.77 1823.32,-209 1832.81,-213.72 1833.68,-206.77"/>
<text text-anchor="middle" x="2990.46" y="-354.27" font-family="Times,serif" font-size="14.00">1</text>
</g>
<!-- dra.func_801186EC -->
<g id="node18" class="node">
<title>dra.func_801186EC</title>
<g id="a_node18"><a xlink:href="dra.func_801186EC.svg" xlink:title="dra.func_801186EC">
<ellipse fill="green" stroke="black" cx="3288.84" cy="-378" rx="102.88" ry="18"/>
<text text-anchor="middle" x="3288.84" y="-374.3" font-family="Times,serif" font-size="14.00">dra.func_801186EC</text>
</a>
</g>
</g>
<!-- dra.func_801186EC&#45;&gt;dra.func_8010E570 -->
<g id="edge17" class="edge">
<title>dra.func_801186EC&#45;&gt;dra.func_8010E570</title>
<path fill="none" stroke="black" d="M3215.46,-365.34C3202.92,-363.46 3190.01,-361.61 3177.84,-360 2674.92,-293.3 2070.4,-231.45 1839.18,-208.46"/>
<polygon fill="black" stroke="black" points="1839.41,-204.96 1829.12,-207.46 1838.72,-211.93 1839.41,-204.96"/>
<text text-anchor="middle" x="3210.46" y="-354.14" font-family="Times,serif" font-size="14.00">1</text>
</g>
</g>
</svg>
