<?xml version="1.0" encoding="UTF-8" standalone="no"?>
<!DOCTYPE svg PUBLIC "-//W3C//DTD SVG 1.1//EN"
 "http://www.w3.org/Graphics/SVG/1.1/DTD/svg11.dtd">
<!-- Generated by graphviz version 2.43.0 (0)
 -->
<!-- Title: dra.func_800FF460 Pages: 1 -->
<svg width="1378pt" height="224pt"
 viewBox="0.00 0.00 1378.03 224.00" xmlns="http://www.w3.org/2000/svg" xmlns:xlink="http://www.w3.org/1999/xlink">
<g id="graph0" class="graph" transform="scale(1 1) rotate(0) translate(4 220)">
<title>dra.func_800FF460</title>
<polygon fill="white" stroke="transparent" points="-4,4 -4,-220 1374.03,-220 1374.03,4 -4,4"/>
<!-- dra.func_800FF460 -->
<g id="node1" class="node">
<title>dra.func_800FF460</title>
<ellipse fill="green" stroke="black" cx="682.04" cy="-18" rx="101.28" ry="18"/>
<text text-anchor="middle" x="682.04" y="-14.3" font-family="Times,serif" font-size="14.00">dra.func_800FF460</text>
</g>
<!-- cen.HitDetection -->
<g id="node2" class="node">
<title>cen.HitDetection</title>
<g id="a_node2"><a xlink:href="cen.HitDetection.svg" xlink:title="cen.HitDetection">
<ellipse fill="green" stroke="black" cx="89.04" cy="-198" rx="89.08" ry="18"/>
<text text-anchor="middle" x="89.04" y="-194.3" font-family="Times,serif" font-size="14.00">cen.HitDetection</text>
</a>
</g>
</g>
<!-- cen.HitDetection&#45;&gt;dra.func_800FF460 -->
<g id="edge1" class="edge">
<title>cen.HitDetection&#45;&gt;dra.func_800FF460</title>
<path fill="none" stroke="black" d="M136.57,-182.73C243.92,-150.51 504.96,-72.15 622.7,-36.81"/>
<polygon fill="black" stroke="black" points="624.05,-40.06 632.63,-33.83 622.04,-33.36 624.05,-40.06"/>
<text text-anchor="middle" x="131.57" y="-171.53" font-family="Times,serif" font-size="14.00">1</text>
</g>
<!-- dre.HitDetection -->
<g id="node3" class="node">
<title>dre.HitDetection</title>
<g id="a_node3"><a xlink:href="dre.HitDetection.svg" xlink:title="dre.HitDetection">
<ellipse fill="green" stroke="black" cx="285.04" cy="-198" rx="89.08" ry="18"/>
<text text-anchor="middle" x="285.04" y="-194.3" font-family="Times,serif" font-size="14.00">dre.HitDetection</text>
</a>
</g>
</g>
<!-- dre.HitDetection&#45;&gt;dra.func_800FF460 -->
<g id="edge2" class="edge">
<title>dre.HitDetection&#45;&gt;dra.func_800FF460</title>
<path fill="none" stroke="black" d="M319.93,-181.36C392.02,-149.04 557.35,-74.91 637.22,-39.1"/>
<polygon fill="black" stroke="black" points="638.83,-42.21 646.53,-34.92 635.97,-35.82 638.83,-42.21"/>
<text text-anchor="middle" x="314.93" y="-170.16" font-family="Times,serif" font-size="14.00">1</text>
</g>
<!-- mar.HitDetection -->
<g id="node4" class="node">
<title>mar.HitDetection</title>
<g id="a_node4"><a xlink:href="mar.HitDetection.svg" xlink:title="mar.HitDetection">
<ellipse fill="green" stroke="black" cx="483.04" cy="-198" rx="90.98" ry="18"/>
<text text-anchor="middle" x="483.04" y="-194.3" font-family="Times,serif" font-size="14.00">mar.HitDetection</text>
</a>
</g>
</g>
<!-- mar.HitDetection&#45;&gt;dra.func_800FF460 -->
<g id="edge3" class="edge">
<title>mar.HitDetection&#45;&gt;dra.func_800FF460</title>
<path fill="none" stroke="black" d="M501.76,-180.25C537.32,-148.45 614.71,-79.22 655.57,-42.68"/>
<polygon fill="black" stroke="black" points="658.11,-45.11 663.23,-35.83 653.44,-39.89 658.11,-45.11"/>
<text text-anchor="middle" x="496.76" y="-169.05" font-family="Times,serif" font-size="14.00">1</text>
</g>
<!-- no3.HitDetection -->
<g id="node5" class="node">
<title>no3.HitDetection</title>
<g id="a_node5"><a xlink:href="no3.HitDetection.svg" xlink:title="no3.HitDetection">
<ellipse fill="green" stroke="black" cx="682.04" cy="-198" rx="90.18" ry="18"/>
<text text-anchor="middle" x="682.04" y="-194.3" font-family="Times,serif" font-size="14.00">no3.HitDetection</text>
</a>
</g>
</g>
<!-- no3.HitDetection&#45;&gt;dra.func_800FF460 -->
<g id="edge4" class="edge">
<title>no3.HitDetection&#45;&gt;dra.func_800FF460</title>
<path fill="none" stroke="black" d="M682.04,-179.93C682.04,-148.97 682.04,-83.3 682.04,-46.13"/>
<polygon fill="black" stroke="black" points="685.54,-46.02 682.04,-36.02 678.54,-46.02 685.54,-46.02"/>
<text text-anchor="middle" x="677.04" y="-168.73" font-family="Times,serif" font-size="14.00">1</text>
</g>
<!-- np3.HitDetection -->
<g id="node6" class="node">
<title>np3.HitDetection</title>
<g id="a_node6"><a xlink:href="np3.HitDetection.svg" xlink:title="np3.HitDetection">
<ellipse fill="green" stroke="black" cx="881.04" cy="-198" rx="90.98" ry="18"/>
<text text-anchor="middle" x="881.04" y="-194.3" font-family="Times,serif" font-size="14.00">np3.HitDetection</text>
</a>
</g>
</g>
<!-- np3.HitDetection&#45;&gt;dra.func_800FF460 -->
<g id="edge5" class="edge">
<title>np3.HitDetection&#45;&gt;dra.func_800FF460</title>
<path fill="none" stroke="black" d="M862.32,-180.25C826.76,-148.45 749.37,-79.22 708.52,-42.68"/>
<polygon fill="black" stroke="black" points="710.65,-39.89 700.86,-35.83 705.98,-45.11 710.65,-39.89"/>
<text text-anchor="middle" x="857.32" y="-169.05" font-family="Times,serif" font-size="14.00">1</text>
</g>
<!-- nz0.HitDetection -->
<g id="node7" class="node">
<title>nz0.HitDetection</title>
<g id="a_node7"><a xlink:href="nz0.HitDetection.svg" xlink:title="nz0.HitDetection">
<ellipse fill="green" stroke="black" cx="1080.04" cy="-198" rx="89.88" ry="18"/>
<text text-anchor="middle" x="1080.04" y="-194.3" font-family="Times,serif" font-size="14.00">nz0.HitDetection</text>
</a>
</g>
</g>
<!-- nz0.HitDetection&#45;&gt;dra.func_800FF460 -->
<g id="edge6" class="edge">
<title>nz0.HitDetection&#45;&gt;dra.func_800FF460</title>
<path fill="none" stroke="black" d="M1045.07,-181.36C972.8,-149.04 807.05,-74.91 726.98,-39.1"/>
<polygon fill="black" stroke="black" points="728.21,-35.81 717.65,-34.92 725.35,-42.2 728.21,-35.81"/>
<text text-anchor="middle" x="1040.07" y="-170.16" font-family="Times,serif" font-size="14.00">1</text>
</g>
<!-- wrp.HitDetection -->
<g id="node8" class="node">
<title>wrp.HitDetection</title>
<g id="a_node8"><a xlink:href="wrp.HitDetection.svg" xlink:title="wrp.HitDetection">
<ellipse fill="green" stroke="black" cx="1279.04" cy="-198" rx="90.98" ry="18"/>
<text text-anchor="middle" x="1279.04" y="-194.3" font-family="Times,serif" font-size="14.00">wrp.HitDetection</text>
</a>
</g>
</g>
<!-- wrp.HitDetection&#45;&gt;dra.func_800FF460 -->
<g id="edge7" class="edge">
<title>wrp.HitDetection&#45;&gt;dra.func_800FF460</title>
<path fill="none" stroke="black" d="M1230.94,-182.66C1122.58,-150.35 859.6,-71.94 741.36,-36.69"/>
<polygon fill="black" stroke="black" points="742.32,-33.32 731.74,-33.82 740.32,-40.03 742.32,-33.32"/>
<text text-anchor="middle" x="1225.94" y="-171.46" font-family="Times,serif" font-size="14.00">1</text>
</g>
</g>
</svg>
