<?xml version="1.0" encoding="UTF-8" standalone="no"?>
<!DOCTYPE svg PUBLIC "-//W3C//DTD SVG 1.1//EN"
 "http://www.w3.org/Graphics/SVG/1.1/DTD/svg11.dtd">
<!-- Generated by graphviz version 2.43.0 (0)
 -->
<!-- Title: dra.DemoSaveFile Pages: 1 -->
<svg width="478pt" height="404pt"
 viewBox="0.00 0.00 477.54 404.00" xmlns="http://www.w3.org/2000/svg" xmlns:xlink="http://www.w3.org/1999/xlink">
<g id="graph0" class="graph" transform="scale(1 1) rotate(0) translate(4 400)">
<title>dra.DemoSaveFile</title>
<polygon fill="white" stroke="transparent" points="-4,4 -4,-400 473.54,-400 473.54,4 -4,4"/>
<!-- dra.DemoSaveFile -->
<g id="node1" class="node">
<title>dra.DemoSaveFile</title>
<ellipse fill="green" stroke="black" cx="270.45" cy="-198" rx="96.38" ry="18"/>
<text text-anchor="middle" x="270.45" y="-194.3" font-family="Times,serif" font-size="14.00">dra.DemoSaveFile</text>
</g>
<!-- close -->
<g id="node2" class="node">
<title>close</title>
<g id="a_node2"><a xlink:href="close.svg" xlink:title="close">
<ellipse fill="lightblue" stroke="black" cx="34.45" cy="-18" rx="34.39" ry="18"/>
<text text-anchor="middle" x="34.45" y="-14.3" font-family="Times,serif" font-size="14.00">close</text>
</a>
</g>
</g>
<!-- dra.DemoSaveFile&#45;&gt;close -->
<g id="edge1" class="edge">
<title>dra.DemoSaveFile&#45;&gt;close</title>
<path fill="none" stroke="black" d="M248.24,-180.25C204.82,-147.5 108.78,-75.07 61.64,-39.51"/>
<polygon fill="black" stroke="black" points="63.52,-36.54 53.42,-33.31 59.3,-42.13 63.52,-36.54"/>
<text text-anchor="middle" x="48.42" y="-37.11" font-family="Times,serif" font-size="14.00">2</text>
</g>
<!-- dra.DebugInputWait -->
<g id="node3" class="node">
<title>dra.DebugInputWait</title>
<g id="a_node3"><a xlink:href="dra.DebugInputWait.svg" xlink:title="dra.DebugInputWait">
<ellipse fill="green" stroke="black" cx="192.45" cy="-18" rx="105.08" ry="18"/>
<text text-anchor="middle" x="192.45" y="-14.3" font-family="Times,serif" font-size="14.00">dra.DebugInputWait</text>
</a>
</g>
</g>
<!-- dra.DemoSaveFile&#45;&gt;dra.DebugInputWait -->
<g id="edge2" class="edge">
<title>dra.DemoSaveFile&#45;&gt;dra.DebugInputWait</title>
<path fill="none" stroke="black" d="M262.97,-179.93C249.28,-148.7 220.13,-82.17 203.92,-45.18"/>
<polygon fill="black" stroke="black" points="207.12,-43.77 199.9,-36.02 200.71,-46.58 207.12,-43.77"/>
<text text-anchor="middle" x="194.9" y="-39.82" font-family="Times,serif" font-size="14.00">1</text>
</g>
<!-- open -->
<g id="node4" class="node">
<title>open</title>
<g id="a_node4"><a xlink:href="open.svg" xlink:title="open">
<ellipse fill="lightblue" stroke="black" cx="348.45" cy="-18" rx="33.29" ry="18"/>
<text text-anchor="middle" x="348.45" y="-14.3" font-family="Times,serif" font-size="14.00">open</text>
</a>
</g>
</g>
<!-- dra.DemoSaveFile&#45;&gt;open -->
<g id="edge3" class="edge">
<title>dra.DemoSaveFile&#45;&gt;open</title>
<path fill="none" stroke="black" d="M277.93,-179.93C291.59,-148.75 320.67,-82.4 336.89,-45.37"/>
<polygon fill="black" stroke="black" points="340.3,-46.32 341.1,-35.76 333.89,-43.51 340.3,-46.32"/>
<text text-anchor="middle" x="336.1" y="-39.56" font-family="Times,serif" font-size="14.00">1</text>
</g>
<!-- write -->
<g id="node5" class="node">
<title>write</title>
<g id="a_node5"><a xlink:href="write.svg" xlink:title="write">
<ellipse fill="lightblue" stroke="black" cx="434.45" cy="-18" rx="35.19" ry="18"/>
<text text-anchor="middle" x="434.45" y="-14.3" font-family="Times,serif" font-size="14.00">write</text>
</a>
</g>
</g>
<!-- dra.DemoSaveFile&#45;&gt;write -->
<g id="edge4" class="edge">
<title>dra.DemoSaveFile&#45;&gt;write</title>
<path fill="none" stroke="black" d="M286.17,-179.93C315.76,-147.82 379.74,-78.37 413.15,-42.11"/>
<polygon fill="black" stroke="black" points="415.98,-44.21 420.18,-34.48 410.83,-39.46 415.98,-44.21"/>
<text text-anchor="middle" x="415.18" y="-38.28" font-family="Times,serif" font-size="14.00">1</text>
</g>
<!-- dra.DemoUpdate -->
<g id="node6" class="node">
<title>dra.DemoUpdate</title>
<g id="a_node6"><a xlink:href="dra.DemoUpdate.svg" xlink:title="dra.DemoUpdate">
<ellipse fill="green" stroke="black" cx="270.45" cy="-378" rx="90.18" ry="18"/>
<text text-anchor="middle" x="270.45" y="-374.3" font-family="Times,serif" font-size="14.00">dra.DemoUpdate</text>
</a>
</g>
</g>
<!-- dra.DemoUpdate&#45;&gt;dra.DemoSaveFile -->
<g id="edge5" class="edge">
<title>dra.DemoUpdate&#45;&gt;dra.DemoSaveFile</title>
<path fill="none" stroke="black" d="M270.45,-359.93C270.45,-328.97 270.45,-263.3 270.45,-226.13"/>
<polygon fill="black" stroke="black" points="273.95,-226.02 270.45,-216.02 266.95,-226.02 273.95,-226.02"/>
<text text-anchor="middle" x="265.45" y="-348.73" font-family="Times,serif" font-size="14.00">1</text>
</g>
</g>
</svg>
