<?xml version="1.0" encoding="UTF-8" standalone="no"?>
<!DOCTYPE svg PUBLIC "-//W3C//DTD SVG 1.1//EN"
 "http://www.w3.org/Graphics/SVG/1.1/DTD/svg11.dtd">
<!-- Generated by graphviz version 2.43.0 (0)
 -->
<!-- Title: dra.func_8010E470 Pages: 1 -->
<svg width="1167pt" height="404pt"
 viewBox="0.00 0.00 1166.58 404.00" xmlns="http://www.w3.org/2000/svg" xmlns:xlink="http://www.w3.org/1999/xlink">
<g id="graph0" class="graph" transform="scale(1 1) rotate(0) translate(4 400)">
<title>dra.func_8010E470</title>
<polygon fill="white" stroke="transparent" points="-4,4 -4,-400 1162.58,-400 1162.58,4 -4,4"/>
<!-- dra.func_8010E470 -->
<g id="node1" class="node">
<title>dra.func_8010E470</title>
<ellipse fill="green" stroke="black" cx="615.84" cy="-198" rx="101.28" ry="18"/>
<text text-anchor="middle" x="615.84" y="-194.3" font-family="Times,serif" font-size="14.00">dra.func_8010E470</text>
</g>
<!-- dra.SetPlayerAnim -->
<g id="node2" class="node">
<title>dra.SetPlayerAnim</title>
<g id="a_node2"><a xlink:href="dra.SetPlayerAnim.svg" xlink:title="dra.SetPlayerAnim">
<ellipse fill="green" stroke="black" cx="615.84" cy="-18" rx="98.58" ry="18"/>
<text text-anchor="middle" x="615.84" y="-14.3" font-family="Times,serif" font-size="14.00">dra.SetPlayerAnim</text>
</a>
</g>
</g>
<!-- dra.func_8010E470&#45;&gt;dra.SetPlayerAnim -->
<g id="edge1" class="edge">
<title>dra.func_8010E470&#45;&gt;dra.SetPlayerAnim</title>
<path fill="none" stroke="black" d="M615.84,-179.93C615.84,-148.97 615.84,-83.3 615.84,-46.13"/>
<polygon fill="black" stroke="black" points="619.34,-46.02 615.84,-36.02 612.34,-46.02 619.34,-46.02"/>
<text text-anchor="middle" x="610.84" y="-39.82" font-family="Times,serif" font-size="14.00">1</text>
</g>
<!-- dra.AlucardHandleDamage -->
<g id="node3" class="node">
<title>dra.AlucardHandleDamage</title>
<g id="a_node3"><a xlink:href="dra.AlucardHandleDamage.svg" xlink:title="dra.AlucardHandleDamage">
<ellipse fill="green" stroke="black" cx="135.84" cy="-378" rx="135.68" ry="18"/>
<text text-anchor="middle" x="135.84" y="-374.3" font-family="Times,serif" font-size="14.00">dra.AlucardHandleDamage</text>
</a>
</g>
</g>
<!-- dra.AlucardHandleDamage&#45;&gt;dra.func_8010E470 -->
<g id="edge2" class="edge">
<title>dra.AlucardHandleDamage&#45;&gt;dra.func_8010E470</title>
<path fill="none" stroke="black" d="M179.28,-360.89C268.08,-327.96 469.98,-253.09 564.82,-217.92"/>
<polygon fill="black" stroke="black" points="566.05,-221.2 574.21,-214.44 563.62,-214.63 566.05,-221.2"/>
<text text-anchor="middle" x="174.28" y="-349.69" font-family="Times,serif" font-size="14.00">1</text>
</g>
<!-- dra.func_8010E4D0 -->
<g id="node4" class="node">
<title>dra.func_8010E4D0</title>
<g id="a_node4"><a xlink:href="dra.func_8010E4D0.svg" xlink:title="dra.func_8010E4D0">
<ellipse fill="green" stroke="black" cx="392.84" cy="-378" rx="102.88" ry="18"/>
<text text-anchor="middle" x="392.84" y="-374.3" font-family="Times,serif" font-size="14.00">dra.func_8010E4D0</text>
</a>
</g>
</g>
<!-- dra.func_8010E4D0&#45;&gt;dra.func_8010E470 -->
<g id="edge3" class="edge">
<title>dra.func_8010E4D0&#45;&gt;dra.func_8010E470</title>
<path fill="none" stroke="black" d="M413.82,-360.25C453.83,-328.32 541.11,-258.65 586.74,-222.23"/>
<polygon fill="black" stroke="black" points="589.12,-224.8 594.75,-215.83 584.75,-219.33 589.12,-224.8"/>
<text text-anchor="middle" x="408.82" y="-349.05" font-family="Times,serif" font-size="14.00">1</text>
</g>
<!-- dra.func_8010FDF8 -->
<g id="node5" class="node">
<title>dra.func_8010FDF8</title>
<g id="a_node5"><a xlink:href="dra.func_8010FDF8.svg" xlink:title="dra.func_8010FDF8">
<ellipse fill="green" stroke="black" cx="615.84" cy="-378" rx="102.88" ry="18"/>
<text text-anchor="middle" x="615.84" y="-374.3" font-family="Times,serif" font-size="14.00">dra.func_8010FDF8</text>
</a>
</g>
</g>
<!-- dra.func_8010FDF8&#45;&gt;dra.func_8010E470 -->
<g id="edge4" class="edge">
<title>dra.func_8010FDF8&#45;&gt;dra.func_8010E470</title>
<path fill="none" stroke="black" d="M615.84,-359.93C615.84,-328.97 615.84,-263.3 615.84,-226.13"/>
<polygon fill="black" stroke="black" points="619.34,-226.02 615.84,-216.02 612.34,-226.02 619.34,-226.02"/>
<text text-anchor="middle" x="610.84" y="-348.73" font-family="Times,serif" font-size="14.00">4</text>
</g>
<!-- dra.func_801131C4 -->
<g id="node6" class="node">
<title>dra.func_801131C4</title>
<g id="a_node6"><a xlink:href="dra.func_801131C4.svg" xlink:title="dra.func_801131C4">
<ellipse fill="green" stroke="black" cx="837.84" cy="-378" rx="101.28" ry="18"/>
<text text-anchor="middle" x="837.84" y="-374.3" font-family="Times,serif" font-size="14.00">dra.func_801131C4</text>
</a>
</g>
</g>
<!-- dra.func_801131C4&#45;&gt;dra.func_8010E470 -->
<g id="edge5" class="edge">
<title>dra.func_801131C4&#45;&gt;dra.func_8010E470</title>
<path fill="none" stroke="black" d="M816.95,-360.25C777.12,-328.32 690.23,-258.65 644.81,-222.23"/>
<polygon fill="black" stroke="black" points="646.82,-219.36 636.83,-215.83 642.44,-224.82 646.82,-219.36"/>
<text text-anchor="middle" x="811.95" y="-349.05" font-family="Times,serif" font-size="14.00">2</text>
</g>
<!-- dra.func_80118640 -->
<g id="node7" class="node">
<title>dra.func_80118640</title>
<g id="a_node7"><a xlink:href="dra.func_80118640.svg" xlink:title="dra.func_80118640">
<ellipse fill="green" stroke="black" cx="1057.84" cy="-378" rx="100.98" ry="18"/>
<text text-anchor="middle" x="1057.84" y="-374.3" font-family="Times,serif" font-size="14.00">dra.func_80118640</text>
</a>
</g>
</g>
<!-- dra.func_80118640&#45;&gt;dra.func_8010E470 -->
<g id="edge6" class="edge">
<title>dra.func_80118640&#45;&gt;dra.func_8010E470</title>
<path fill="none" stroke="black" d="M1019,-361.36C938.29,-328.86 752.61,-254.08 664.26,-218.5"/>
<polygon fill="black" stroke="black" points="665.33,-215.16 654.74,-214.67 662.71,-221.65 665.33,-215.16"/>
<text text-anchor="middle" x="1014" y="-350.16" font-family="Times,serif" font-size="14.00">1</text>
</g>
</g>
</svg>
