<?xml version="1.0" encoding="UTF-8" standalone="no"?>
<!DOCTYPE svg PUBLIC "-//W3C//DTD SVG 1.1//EN"
 "http://www.w3.org/Graphics/SVG/1.1/DTD/svg11.dtd">
<!-- Generated by graphviz version 2.43.0 (0)
 -->
<!-- Title: dra.func_8010BF64 Pages: 1 -->
<svg width="2071pt" height="404pt"
 viewBox="0.00 0.00 2071.07 404.00" xmlns="http://www.w3.org/2000/svg" xmlns:xlink="http://www.w3.org/1999/xlink">
<g id="graph0" class="graph" transform="scale(1 1) rotate(0) translate(4 400)">
<title>dra.func_8010BF64</title>
<polygon fill="white" stroke="transparent" points="-4,4 -4,-400 2067.07,-400 2067.07,4 -4,4"/>
<!-- dra.func_8010BF64 -->
<g id="node1" class="node">
<title>dra.func_8010BF64</title>
<ellipse fill="green" stroke="black" cx="1024.79" cy="-198" rx="102.08" ry="18"/>
<text text-anchor="middle" x="1024.79" y="-194.3" font-family="Times,serif" font-size="14.00">dra.func_8010BF64</text>
</g>
<!-- D_8013C00C -->
<g id="node2" class="node">
<title>D_8013C00C</title>
<g id="a_node2"><a xlink:href="D_8013C00C.svg" xlink:title="D_8013C00C">
<ellipse fill="lightblue" stroke="black" cx="1024.79" cy="-18" rx="71.49" ry="18"/>
<text text-anchor="middle" x="1024.79" y="-14.3" font-family="Times,serif" font-size="14.00">D_8013C00C</text>
</a>
</g>
</g>
<!-- dra.func_8010BF64&#45;&gt;D_8013C00C -->
<g id="edge1" class="edge">
<title>dra.func_8010BF64&#45;&gt;D_8013C00C</title>
<path fill="none" stroke="black" d="M1024.79,-179.93C1024.79,-148.97 1024.79,-83.3 1024.79,-46.13"/>
<polygon fill="black" stroke="black" points="1028.29,-46.02 1024.79,-36.02 1021.29,-46.02 1028.29,-46.02"/>
<text text-anchor="middle" x="1019.79" y="-39.82" font-family="Times,serif" font-size="14.00">1</text>
</g>
<!-- cen.GetPlayerCollisionWith -->
<g id="node3" class="node">
<title>cen.GetPlayerCollisionWith</title>
<g id="a_node3"><a xlink:href="cen.GetPlayerCollisionWith.svg" xlink:title="cen.GetPlayerCollisionWith">
<ellipse fill="green" stroke="black" cx="137.79" cy="-378" rx="137.58" ry="18"/>
<text text-anchor="middle" x="137.79" y="-374.3" font-family="Times,serif" font-size="14.00">cen.GetPlayerCollisionWith</text>
</a>
</g>
</g>
<!-- cen.GetPlayerCollisionWith&#45;&gt;dra.func_8010BF64 -->
<g id="edge2" class="edge">
<title>cen.GetPlayerCollisionWith&#45;&gt;dra.func_8010BF64</title>
<path fill="none" stroke="black" d="M209.62,-362.58C375.13,-329.37 781.97,-247.73 950.16,-213.98"/>
<polygon fill="black" stroke="black" points="951.05,-217.37 960.16,-211.97 949.67,-210.5 951.05,-217.37"/>
<text text-anchor="middle" x="204.62" y="-351.38" font-family="Times,serif" font-size="14.00">1</text>
</g>
<!-- dre.GetPlayerCollisionWith -->
<g id="node4" class="node">
<title>dre.GetPlayerCollisionWith</title>
<g id="a_node4"><a xlink:href="dre.GetPlayerCollisionWith.svg" xlink:title="dre.GetPlayerCollisionWith">
<ellipse fill="green" stroke="black" cx="431.79" cy="-378" rx="137.58" ry="18"/>
<text text-anchor="middle" x="431.79" y="-374.3" font-family="Times,serif" font-size="14.00">dre.GetPlayerCollisionWith</text>
</a>
</g>
</g>
<!-- dre.GetPlayerCollisionWith&#45;&gt;dra.func_8010BF64 -->
<g id="edge3" class="edge">
<title>dre.GetPlayerCollisionWith&#45;&gt;dra.func_8010BF64</title>
<path fill="none" stroke="black" d="M484.15,-361.28C594.44,-328.18 849.98,-251.47 965.81,-216.7"/>
<polygon fill="black" stroke="black" points="967.01,-220 975.58,-213.77 964.99,-213.29 967.01,-220"/>
<text text-anchor="middle" x="479.15" y="-350.08" font-family="Times,serif" font-size="14.00">1</text>
</g>
<!-- mar.GetPlayerCollisionWith -->
<g id="node5" class="node">
<title>mar.GetPlayerCollisionWith</title>
<g id="a_node5"><a xlink:href="mar.GetPlayerCollisionWith.svg" xlink:title="mar.GetPlayerCollisionWith">
<ellipse fill="green" stroke="black" cx="727.79" cy="-378" rx="139.98" ry="18"/>
<text text-anchor="middle" x="727.79" y="-374.3" font-family="Times,serif" font-size="14.00">mar.GetPlayerCollisionWith</text>
</a>
</g>
</g>
<!-- mar.GetPlayerCollisionWith&#45;&gt;dra.func_8010BF64 -->
<g id="edge4" class="edge">
<title>mar.GetPlayerCollisionWith&#45;&gt;dra.func_8010BF64</title>
<path fill="none" stroke="black" d="M755.73,-360.25C809.71,-327.9 928.29,-256.84 988.36,-220.83"/>
<polygon fill="black" stroke="black" points="990.36,-223.71 997.14,-215.57 986.76,-217.71 990.36,-223.71"/>
<text text-anchor="middle" x="750.73" y="-349.05" font-family="Times,serif" font-size="14.00">1</text>
</g>
<!-- no3.GetPlayerCollisionWith -->
<g id="node6" class="node">
<title>no3.GetPlayerCollisionWith</title>
<g id="a_node6"><a xlink:href="no3.GetPlayerCollisionWith.svg" xlink:title="no3.GetPlayerCollisionWith">
<ellipse fill="green" stroke="black" cx="1024.79" cy="-378" rx="139.18" ry="18"/>
<text text-anchor="middle" x="1024.79" y="-374.3" font-family="Times,serif" font-size="14.00">no3.GetPlayerCollisionWith</text>
</a>
</g>
</g>
<!-- no3.GetPlayerCollisionWith&#45;&gt;dra.func_8010BF64 -->
<g id="edge5" class="edge">
<title>no3.GetPlayerCollisionWith&#45;&gt;dra.func_8010BF64</title>
<path fill="none" stroke="black" d="M1024.79,-359.93C1024.79,-328.97 1024.79,-263.3 1024.79,-226.13"/>
<polygon fill="black" stroke="black" points="1028.29,-226.02 1024.79,-216.02 1021.29,-226.02 1028.29,-226.02"/>
<text text-anchor="middle" x="1019.79" y="-348.73" font-family="Times,serif" font-size="14.00">1</text>
</g>
<!-- np3.GetPlayerCollisionWith -->
<g id="node7" class="node">
<title>np3.GetPlayerCollisionWith</title>
<g id="a_node7"><a xlink:href="np3.GetPlayerCollisionWith.svg" xlink:title="np3.GetPlayerCollisionWith">
<ellipse fill="green" stroke="black" cx="1321.79" cy="-378" rx="139.98" ry="18"/>
<text text-anchor="middle" x="1321.79" y="-374.3" font-family="Times,serif" font-size="14.00">np3.GetPlayerCollisionWith</text>
</a>
</g>
</g>
<!-- np3.GetPlayerCollisionWith&#45;&gt;dra.func_8010BF64 -->
<g id="edge6" class="edge">
<title>np3.GetPlayerCollisionWith&#45;&gt;dra.func_8010BF64</title>
<path fill="none" stroke="black" d="M1293.85,-360.25C1239.87,-327.9 1121.29,-256.84 1061.21,-220.83"/>
<polygon fill="black" stroke="black" points="1062.81,-217.71 1052.44,-215.57 1059.22,-223.71 1062.81,-217.71"/>
<text text-anchor="middle" x="1288.85" y="-349.05" font-family="Times,serif" font-size="14.00">1</text>
</g>
<!-- nz0.GetPlayerCollisionWith -->
<g id="node8" class="node">
<title>nz0.GetPlayerCollisionWith</title>
<g id="a_node8"><a xlink:href="nz0.GetPlayerCollisionWith.svg" xlink:title="nz0.GetPlayerCollisionWith">
<ellipse fill="green" stroke="black" cx="1617.79" cy="-378" rx="138.38" ry="18"/>
<text text-anchor="middle" x="1617.79" y="-374.3" font-family="Times,serif" font-size="14.00">nz0.GetPlayerCollisionWith</text>
</a>
</g>
</g>
<!-- nz0.GetPlayerCollisionWith&#45;&gt;dra.func_8010BF64 -->
<g id="edge7" class="edge">
<title>nz0.GetPlayerCollisionWith&#45;&gt;dra.func_8010BF64</title>
<path fill="none" stroke="black" d="M1565.42,-361.28C1455.14,-328.18 1199.6,-251.47 1083.76,-216.7"/>
<polygon fill="black" stroke="black" points="1084.58,-213.29 1074,-213.77 1082.57,-220 1084.58,-213.29"/>
<text text-anchor="middle" x="1560.42" y="-350.08" font-family="Times,serif" font-size="14.00">1</text>
</g>
<!-- rwrp.GetPlayerCollisionWith -->
<g id="node9" class="node">
<title>rwrp.GetPlayerCollisionWith</title>
<g id="a_node9"><a xlink:href="rwrp.GetPlayerCollisionWith.svg" xlink:title="rwrp.GetPlayerCollisionWith">
<ellipse fill="green" stroke="black" cx="1918.79" cy="-378" rx="144.07" ry="18"/>
<text text-anchor="middle" x="1918.79" y="-374.3" font-family="Times,serif" font-size="14.00">rwrp.GetPlayerCollisionWith</text>
</a>
</g>
</g>
<!-- rwrp.GetPlayerCollisionWith&#45;&gt;dra.func_8010BF64 -->
<g id="edge8" class="edge">
<title>rwrp.GetPlayerCollisionWith&#45;&gt;dra.func_8010BF64</title>
<path fill="none" stroke="black" d="M1845.63,-362.43C1678.19,-329.1 1268.59,-247.54 1099.59,-213.89"/>
<polygon fill="black" stroke="black" points="1100.27,-210.46 1089.78,-211.94 1098.9,-217.33 1100.27,-210.46"/>
<text text-anchor="middle" x="1840.63" y="-351.23" font-family="Times,serif" font-size="14.00">1</text>
</g>
</g>
</svg>
