<?xml version="1.0" encoding="UTF-8" standalone="no"?>
<!DOCTYPE svg PUBLIC "-//W3C//DTD SVG 1.1//EN"
 "http://www.w3.org/Graphics/SVG/1.1/DTD/svg11.dtd">
<!-- Generated by graphviz version 2.43.0 (0)
 -->
<!-- Title: dra.func_8010DFF0 Pages: 1 -->
<svg width="6062pt" height="224pt"
 viewBox="0.00 0.00 6061.53 224.00" xmlns="http://www.w3.org/2000/svg" xmlns:xlink="http://www.w3.org/1999/xlink">
<g id="graph0" class="graph" transform="scale(1 1) rotate(0) translate(4 220)">
<title>dra.func_8010DFF0</title>
<polygon fill="white" stroke="transparent" points="-4,4 -4,-220 6057.53,-220 6057.53,4 -4,4"/>
<!-- dra.func_8010DFF0 -->
<g id="node1" class="node">
<title>dra.func_8010DFF0</title>
<ellipse fill="green" stroke="black" cx="3165.79" cy="-18" rx="102.88" ry="18"/>
<text text-anchor="middle" x="3165.79" y="-14.3" font-family="Times,serif" font-size="14.00">dra.func_8010DFF0</text>
</g>
<!-- cen.EntityRedDoor -->
<g id="node2" class="node">
<title>cen.EntityRedDoor</title>
<g id="a_node2"><a xlink:href="cen.EntityRedDoor.svg" xlink:title="cen.EntityRedDoor">
<ellipse fill="green" stroke="black" cx="98.79" cy="-198" rx="98.58" ry="18"/>
<text text-anchor="middle" x="98.79" y="-194.3" font-family="Times,serif" font-size="14.00">cen.EntityRedDoor</text>
</a>
</g>
</g>
<!-- cen.EntityRedDoor&#45;&gt;dra.func_8010DFF0 -->
<g id="edge1" class="edge">
<title>cen.EntityRedDoor&#45;&gt;dra.func_8010DFF0</title>
<path fill="none" stroke="black" d="M167.44,-185.02C180.16,-183.11 193.35,-181.32 205.79,-180 1312.58,-62.3 2661.86,-28.56 3054.01,-20.92"/>
<polygon fill="black" stroke="black" points="3054.29,-24.42 3064.22,-20.73 3054.15,-17.42 3054.29,-24.42"/>
<text text-anchor="middle" x="162.44" y="-173.82" font-family="Times,serif" font-size="14.00">1</text>
</g>
<!-- dra.EntityAlucard -->
<g id="node3" class="node">
<title>dra.EntityAlucard</title>
<g id="a_node3"><a xlink:href="dra.EntityAlucard.svg" xlink:title="dra.EntityAlucard">
<ellipse fill="green" stroke="black" cx="308.79" cy="-198" rx="93.68" ry="18"/>
<text text-anchor="middle" x="308.79" y="-194.3" font-family="Times,serif" font-size="14.00">dra.EntityAlucard</text>
</a>
</g>
</g>
<!-- dra.EntityAlucard&#45;&gt;dra.func_8010DFF0 -->
<g id="edge2" class="edge">
<title>dra.EntityAlucard&#45;&gt;dra.func_8010DFF0</title>
<path fill="none" stroke="black" d="M374.31,-185.13C386.73,-183.18 399.63,-181.35 411.79,-180 1434.48,-66.03 2680.4,-29.96 3054.49,-21.31"/>
<polygon fill="black" stroke="black" points="3054.58,-24.81 3064.5,-21.08 3054.42,-17.81 3054.58,-24.81"/>
<text text-anchor="middle" x="369.31" y="-173.93" font-family="Times,serif" font-size="14.00">2</text>
</g>
<!-- dra.EntityMpReplenished -->
<g id="node4" class="node">
<title>dra.EntityMpReplenished</title>
<g id="a_node4"><a xlink:href="dra.EntityMpReplenished.svg" xlink:title="dra.EntityMpReplenished">
<ellipse fill="red" stroke="black" cx="550.79" cy="-198" rx="129.98" ry="18"/>
<text text-anchor="middle" x="550.79" y="-194.3" font-family="Times,serif" font-size="14.00">dra.EntityMpReplenished</text>
</a>
</g>
</g>
<!-- dra.EntityMpReplenished&#45;&gt;dra.func_8010DFF0 -->
<g id="edge3" class="edge">
<title>dra.EntityMpReplenished&#45;&gt;dra.func_8010DFF0</title>
<path fill="none" stroke="black" d="M641.93,-185.1C657.87,-183.24 674.3,-181.45 689.79,-180 1603.97,-94.44 2712.3,-39.75 3057.73,-23.83"/>
<polygon fill="black" stroke="black" points="3057.9,-27.33 3067.73,-23.37 3057.58,-20.34 3057.9,-27.33"/>
<text text-anchor="middle" x="636.93" y="-173.9" font-family="Times,serif" font-size="14.00">1</text>
</g>
<!-- dra.EntityPlayerBlinkWhite -->
<g id="node5" class="node">
<title>dra.EntityPlayerBlinkWhite</title>
<g id="a_node5"><a xlink:href="dra.EntityPlayerBlinkWhite.svg" xlink:title="dra.EntityPlayerBlinkWhite">
<ellipse fill="green" stroke="black" cx="837.79" cy="-198" rx="139.18" ry="18"/>
<text text-anchor="middle" x="837.79" y="-194.3" font-family="Times,serif" font-size="14.00">dra.EntityPlayerBlinkWhite</text>
</a>
</g>
</g>
<!-- dra.EntityPlayerBlinkWhite&#45;&gt;dra.func_8010DFF0 -->
<g id="edge4" class="edge">
<title>dra.EntityPlayerBlinkWhite&#45;&gt;dra.func_8010DFF0</title>
<path fill="none" stroke="black" d="M935.65,-185.19C952.37,-183.34 969.57,-181.53 985.79,-180 1782.15,-104.89 2744.95,-44.32 3060.28,-25.27"/>
<polygon fill="black" stroke="black" points="3060.55,-28.76 3070.32,-24.66 3060.13,-21.77 3060.55,-28.76"/>
<text text-anchor="middle" x="930.65" y="-173.99" font-family="Times,serif" font-size="14.00">1</text>
</g>
<!-- dra.EntityPlayerDissolves -->
<g id="node6" class="node">
<title>dra.EntityPlayerDissolves</title>
<g id="a_node6"><a xlink:href="dra.EntityPlayerDissolves.svg" xlink:title="dra.EntityPlayerDissolves">
<ellipse fill="red" stroke="black" cx="1126.79" cy="-198" rx="131.88" ry="18"/>
<text text-anchor="middle" x="1126.79" y="-194.3" font-family="Times,serif" font-size="14.00">dra.EntityPlayerDissolves</text>
</a>
</g>
</g>
<!-- dra.EntityPlayerDissolves&#45;&gt;dra.func_8010DFF0 -->
<g id="edge5" class="edge">
<title>dra.EntityPlayerDissolves&#45;&gt;dra.func_8010DFF0</title>
<path fill="none" stroke="black" d="M1220.41,-185.24C1236.21,-183.39 1252.46,-181.57 1267.79,-180 1951.82,-109.78 2776.81,-47.41 3062.51,-26.47"/>
<polygon fill="black" stroke="black" points="3063.14,-29.93 3072.86,-25.71 3062.63,-22.95 3063.14,-29.93"/>
<text text-anchor="middle" x="1215.41" y="-174.04" font-family="Times,serif" font-size="14.00">1</text>
</g>
<!-- dra.EntitySubwpnCrashCross -->
<g id="node7" class="node">
<title>dra.EntitySubwpnCrashCross</title>
<g id="a_node7"><a xlink:href="dra.EntitySubwpnCrashCross.svg" xlink:title="dra.EntitySubwpnCrashCross">
<ellipse fill="green" stroke="black" cx="1425.79" cy="-198" rx="149.47" ry="18"/>
<text text-anchor="middle" x="1425.79" y="-194.3" font-family="Times,serif" font-size="14.00">dra.EntitySubwpnCrashCross</text>
</a>
</g>
</g>
<!-- dra.EntitySubwpnCrashCross&#45;&gt;dra.func_8010DFF0 -->
<g id="edge6" class="edge">
<title>dra.EntitySubwpnCrashCross&#45;&gt;dra.func_8010DFF0</title>
<path fill="none" stroke="black" d="M1532.87,-185.39C1549.9,-183.57 1567.33,-181.72 1583.79,-180 2146.08,-121.14 2821.11,-53.42 3068.69,-28.69"/>
<polygon fill="black" stroke="black" points="3069.14,-32.16 3078.74,-27.68 3068.44,-25.19 3069.14,-32.16"/>
<text text-anchor="middle" x="1527.87" y="-174.19" font-family="Times,serif" font-size="14.00">1</text>
</g>
<!-- dra.EntityTransparentWhiteCircle -->
<g id="node8" class="node">
<title>dra.EntityTransparentWhiteCircle</title>
<g id="a_node8"><a xlink:href="dra.EntityTransparentWhiteCircle.svg" xlink:title="dra.EntityTransparentWhiteCircle">
<ellipse fill="green" stroke="black" cx="1762.79" cy="-198" rx="169.77" ry="18"/>
<text text-anchor="middle" x="1762.79" y="-194.3" font-family="Times,serif" font-size="14.00">dra.EntityTransparentWhiteCircle</text>
</a>
</g>
</g>
<!-- dra.EntityTransparentWhiteCircle&#45;&gt;dra.func_8010DFF0 -->
<g id="edge7" class="edge">
<title>dra.EntityTransparentWhiteCircle&#45;&gt;dra.func_8010DFF0</title>
<path fill="none" stroke="black" d="M1867.1,-183.77C2131.74,-150.19 2825.92,-62.12 3075.11,-30.51"/>
<polygon fill="black" stroke="black" points="3075.73,-33.95 3085.21,-29.22 3074.85,-27.01 3075.73,-33.95"/>
<text text-anchor="middle" x="1862.1" y="-172.57" font-family="Times,serif" font-size="14.00">1</text>
</g>
<!-- dra.PlayerStepJump -->
<g id="node9" class="node">
<title>dra.PlayerStepJump</title>
<g id="a_node9"><a xlink:href="dra.PlayerStepJump.svg" xlink:title="dra.PlayerStepJump">
<ellipse fill="green" stroke="black" cx="2054.79" cy="-198" rx="104.78" ry="18"/>
<text text-anchor="middle" x="2054.79" y="-194.3" font-family="Times,serif" font-size="14.00">dra.PlayerStepJump</text>
</a>
</g>
</g>
<!-- dra.PlayerStepJump&#45;&gt;dra.func_8010DFF0 -->
<g id="edge8" class="edge">
<title>dra.PlayerStepJump&#45;&gt;dra.func_8010DFF0</title>
<path fill="none" stroke="black" d="M2128.55,-185.18C2327.39,-153.33 2873.6,-65.81 3082.78,-32.3"/>
<polygon fill="black" stroke="black" points="3083.47,-35.73 3092.79,-30.7 3082.36,-28.82 3083.47,-35.73"/>
<text text-anchor="middle" x="2123.55" y="-173.98" font-family="Times,serif" font-size="14.00">4</text>
</g>
<!-- dra.func_800E414C -->
<g id="node10" class="node">
<title>dra.func_800E414C</title>
<g id="a_node10"><a xlink:href="dra.func_800E414C.svg" xlink:title="dra.func_800E414C">
<ellipse fill="green" stroke="black" cx="2279.79" cy="-198" rx="102.88" ry="18"/>
<text text-anchor="middle" x="2279.79" y="-194.3" font-family="Times,serif" font-size="14.00">dra.func_800E414C</text>
</a>
</g>
</g>
<!-- dra.func_800E414C&#45;&gt;dra.func_8010DFF0 -->
<g id="edge9" class="edge">
<title>dra.func_800E414C&#45;&gt;dra.func_8010DFF0</title>
<path fill="none" stroke="black" d="M2344.58,-183.98C2505.14,-151.73 2920.74,-68.23 3091.18,-33.99"/>
<polygon fill="black" stroke="black" points="3091.96,-37.4 3101.07,-32 3090.58,-30.54 3091.96,-37.4"/>
<text text-anchor="middle" x="2339.58" y="-172.78" font-family="Times,serif" font-size="14.00">1</text>
</g>
<!-- dra.func_80109594 -->
<g id="node11" class="node">
<title>dra.func_80109594</title>
<g id="a_node11"><a xlink:href="dra.func_80109594.svg" xlink:title="dra.func_80109594">
<ellipse fill="green" stroke="black" cx="2500.79" cy="-198" rx="100.98" ry="18"/>
<text text-anchor="middle" x="2500.79" y="-194.3" font-family="Times,serif" font-size="14.00">dra.func_80109594</text>
</a>
</g>
</g>
<!-- dra.func_80109594&#45;&gt;dra.func_8010DFF0 -->
<g id="edge10" class="edge">
<title>dra.func_80109594&#45;&gt;dra.func_8010DFF0</title>
<path fill="none" stroke="black" d="M2554.37,-182.66C2675.77,-150.16 2971.38,-71.04 3101.97,-36.08"/>
<polygon fill="black" stroke="black" points="3103.08,-39.41 3111.84,-33.44 3101.27,-32.65 3103.08,-39.41"/>
<text text-anchor="middle" x="2549.37" y="-171.46" font-family="Times,serif" font-size="14.00">1</text>
</g>
<!-- dra.func_8010A234 -->
<g id="node12" class="node">
<title>dra.func_8010A234</title>
<g id="a_node12"><a xlink:href="dra.func_8010A234.svg" xlink:title="dra.func_8010A234">
<ellipse fill="green" stroke="black" cx="2719.79" cy="-198" rx="100.98" ry="18"/>
<text text-anchor="middle" x="2719.79" y="-194.3" font-family="Times,serif" font-size="14.00">dra.func_8010A234</text>
</a>
</g>
</g>
<!-- dra.func_8010A234&#45;&gt;dra.func_8010DFF0 -->
<g id="edge11" class="edge">
<title>dra.func_8010A234&#45;&gt;dra.func_8010DFF0</title>
<path fill="none" stroke="black" d="M2758.98,-181.36C2840.5,-148.82 3028.16,-73.93 3117.2,-38.39"/>
<polygon fill="black" stroke="black" points="3118.54,-41.63 3126.53,-34.67 3115.95,-35.12 3118.54,-41.63"/>
<text text-anchor="middle" x="2753.98" y="-170.16" font-family="Times,serif" font-size="14.00">1</text>
</g>
<!-- dra.func_8010E0D0 -->
<g id="node13" class="node">
<title>dra.func_8010E0D0</title>
<g id="a_node13"><a xlink:href="dra.func_8010E0D0.svg" xlink:title="dra.func_8010E0D0">
<ellipse fill="green" stroke="black" cx="2940.79" cy="-198" rx="102.88" ry="18"/>
<text text-anchor="middle" x="2940.79" y="-194.3" font-family="Times,serif" font-size="14.00">dra.func_8010E0D0</text>
</a>
</g>
</g>
<!-- dra.func_8010E0D0&#45;&gt;dra.func_8010DFF0 -->
<g id="edge12" class="edge">
<title>dra.func_8010E0D0&#45;&gt;dra.func_8010DFF0</title>
<path fill="none" stroke="black" d="M2961.96,-180.25C3002.33,-148.32 3090.4,-78.65 3136.43,-42.23"/>
<polygon fill="black" stroke="black" points="3138.85,-44.78 3144.52,-35.83 3134.5,-39.29 3138.85,-44.78"/>
<text text-anchor="middle" x="2956.96" y="-169.05" font-family="Times,serif" font-size="14.00">1</text>
</g>
<!-- dra.func_8010EDB8 -->
<g id="node14" class="node">
<title>dra.func_8010EDB8</title>
<g id="a_node14"><a xlink:href="dra.func_8010EDB8.svg" xlink:title="dra.func_8010EDB8">
<ellipse fill="green" stroke="black" cx="3165.79" cy="-198" rx="103.98" ry="18"/>
<text text-anchor="middle" x="3165.79" y="-194.3" font-family="Times,serif" font-size="14.00">dra.func_8010EDB8</text>
</a>
</g>
</g>
<!-- dra.func_8010EDB8&#45;&gt;dra.func_8010DFF0 -->
<g id="edge13" class="edge">
<title>dra.func_8010EDB8&#45;&gt;dra.func_8010DFF0</title>
<path fill="none" stroke="black" d="M3165.79,-179.93C3165.79,-148.97 3165.79,-83.3 3165.79,-46.13"/>
<polygon fill="black" stroke="black" points="3169.29,-46.02 3165.79,-36.02 3162.29,-46.02 3169.29,-46.02"/>
<text text-anchor="middle" x="3160.79" y="-168.73" font-family="Times,serif" font-size="14.00">1</text>
</g>
<!-- dra.func_801120B4 -->
<g id="node15" class="node">
<title>dra.func_801120B4</title>
<g id="a_node15"><a xlink:href="dra.func_801120B4.svg" xlink:title="dra.func_801120B4">
<ellipse fill="green" stroke="black" cx="3388.79" cy="-198" rx="101.28" ry="18"/>
<text text-anchor="middle" x="3388.79" y="-194.3" font-family="Times,serif" font-size="14.00">dra.func_801120B4</text>
</a>
</g>
</g>
<!-- dra.func_801120B4&#45;&gt;dra.func_8010DFF0 -->
<g id="edge14" class="edge">
<title>dra.func_801120B4&#45;&gt;dra.func_8010DFF0</title>
<path fill="none" stroke="black" d="M3367.81,-180.25C3327.8,-148.32 3240.52,-78.65 3194.89,-42.23"/>
<polygon fill="black" stroke="black" points="3196.88,-39.33 3186.88,-35.83 3192.51,-44.8 3196.88,-39.33"/>
<text text-anchor="middle" x="3362.81" y="-169.05" font-family="Times,serif" font-size="14.00">7</text>
</g>
<!-- dra.func_801131C4 -->
<g id="node16" class="node">
<title>dra.func_801131C4</title>
<g id="a_node16"><a xlink:href="dra.func_801131C4.svg" xlink:title="dra.func_801131C4">
<ellipse fill="green" stroke="black" cx="3609.79" cy="-198" rx="101.28" ry="18"/>
<text text-anchor="middle" x="3609.79" y="-194.3" font-family="Times,serif" font-size="14.00">dra.func_801131C4</text>
</a>
</g>
</g>
<!-- dra.func_801131C4&#45;&gt;dra.func_8010DFF0 -->
<g id="edge15" class="edge">
<title>dra.func_801131C4&#45;&gt;dra.func_8010DFF0</title>
<path fill="none" stroke="black" d="M3570.78,-181.36C3489.62,-148.82 3302.81,-73.93 3214.16,-38.39"/>
<polygon fill="black" stroke="black" points="3215.46,-35.14 3204.87,-34.67 3212.85,-41.64 3215.46,-35.14"/>
<text text-anchor="middle" x="3565.78" y="-170.16" font-family="Times,serif" font-size="14.00">6</text>
</g>
<!-- dre.EntityRedDoor -->
<g id="node17" class="node">
<title>dre.EntityRedDoor</title>
<g id="a_node17"><a xlink:href="dre.EntityRedDoor.svg" xlink:title="dre.EntityRedDoor">
<ellipse fill="green" stroke="black" cx="3827.79" cy="-198" rx="98.58" ry="18"/>
<text text-anchor="middle" x="3827.79" y="-194.3" font-family="Times,serif" font-size="14.00">dre.EntityRedDoor</text>
</a>
</g>
</g>
<!-- dre.EntityRedDoor&#45;&gt;dra.func_8010DFF0 -->
<g id="edge16" class="edge">
<title>dre.EntityRedDoor&#45;&gt;dra.func_8010DFF0</title>
<path fill="none" stroke="black" d="M3774.74,-182.73C3654.08,-150.29 3359.53,-71.09 3229.39,-36.1"/>
<polygon fill="black" stroke="black" points="3230.13,-32.67 3219.56,-33.46 3228.31,-39.43 3230.13,-32.67"/>
<text text-anchor="middle" x="3769.74" y="-171.53" font-family="Times,serif" font-size="14.00">1</text>
</g>
<!-- no3.EntityRedDoor -->
<g id="node18" class="node">
<title>no3.EntityRedDoor</title>
<g id="a_node18"><a xlink:href="no3.EntityRedDoor.svg" xlink:title="no3.EntityRedDoor">
<ellipse fill="green" stroke="black" cx="4044.79" cy="-198" rx="100.18" ry="18"/>
<text text-anchor="middle" x="4044.79" y="-194.3" font-family="Times,serif" font-size="14.00">no3.EntityRedDoor</text>
</a>
</g>
</g>
<!-- no3.EntityRedDoor&#45;&gt;dra.func_8010DFF0 -->
<g id="edge17" class="edge">
<title>no3.EntityRedDoor&#45;&gt;dra.func_8010DFF0</title>
<path fill="none" stroke="black" d="M3980.87,-184.06C3821.96,-151.88 3409.67,-68.39 3240.2,-34.07"/>
<polygon fill="black" stroke="black" points="3240.86,-30.63 3230.37,-32.08 3239.47,-37.49 3240.86,-30.63"/>
<text text-anchor="middle" x="3975.87" y="-172.86" font-family="Times,serif" font-size="14.00">1</text>
</g>
<!-- np3.EntityRedDoor -->
<g id="node19" class="node">
<title>np3.EntityRedDoor</title>
<g id="a_node19"><a xlink:href="np3.EntityRedDoor.svg" xlink:title="np3.EntityRedDoor">
<ellipse fill="green" stroke="black" cx="4263.79" cy="-198" rx="100.98" ry="18"/>
<text text-anchor="middle" x="4263.79" y="-194.3" font-family="Times,serif" font-size="14.00">np3.EntityRedDoor</text>
</a>
</g>
</g>
<!-- np3.EntityRedDoor&#45;&gt;dra.func_8010DFF0 -->
<g id="edge18" class="edge">
<title>np3.EntityRedDoor&#45;&gt;dra.func_8010DFF0</title>
<path fill="none" stroke="black" d="M4191.75,-185.32C3996.12,-153.61 3455.82,-66.02 3248.38,-32.39"/>
<polygon fill="black" stroke="black" points="3248.89,-28.93 3238.46,-30.78 3247.77,-35.84 3248.89,-28.93"/>
<text text-anchor="middle" x="4186.75" y="-174.12" font-family="Times,serif" font-size="14.00">1</text>
</g>
<!-- nz0.EntityElevator -->
<g id="node20" class="node">
<title>nz0.EntityElevator</title>
<g id="a_node20"><a xlink:href="nz0.EntityElevator.svg" xlink:title="nz0.EntityElevator">
<ellipse fill="green" stroke="black" cx="4481.79" cy="-198" rx="98.58" ry="18"/>
<text text-anchor="middle" x="4481.79" y="-194.3" font-family="Times,serif" font-size="14.00">nz0.EntityElevator</text>
</a>
</g>
</g>
<!-- nz0.EntityElevator&#45;&gt;dra.func_8010DFF0 -->
<g id="edge19" class="edge">
<title>nz0.EntityElevator&#45;&gt;dra.func_8010DFF0</title>
<path fill="none" stroke="black" d="M4410.37,-185.51C4398.17,-183.62 4385.62,-181.72 4373.79,-180 3957.1,-119.45 3458.22,-55.74 3256.77,-30.38"/>
<polygon fill="black" stroke="black" points="3257.18,-26.9 3246.82,-29.13 3256.31,-33.85 3257.18,-26.9"/>
<text text-anchor="middle" x="4405.37" y="-174.31" font-family="Times,serif" font-size="14.00">2</text>
</g>
<!-- nz0.EntityMagicallySealedDoor -->
<g id="node21" class="node">
<title>nz0.EntityMagicallySealedDoor</title>
<g id="a_node21"><a xlink:href="nz0.EntityMagicallySealedDoor.svg" xlink:title="nz0.EntityMagicallySealedDoor">
<ellipse fill="green" stroke="black" cx="4755.79" cy="-198" rx="157.07" ry="18"/>
<text text-anchor="middle" x="4755.79" y="-194.3" font-family="Times,serif" font-size="14.00">nz0.EntityMagicallySealedDoor</text>
</a>
</g>
</g>
<!-- nz0.EntityMagicallySealedDoor&#45;&gt;dra.func_8010DFF0 -->
<g id="edge20" class="edge">
<title>nz0.EntityMagicallySealedDoor&#45;&gt;dra.func_8010DFF0</title>
<path fill="none" stroke="black" d="M4647.75,-184.91C4352.94,-151.9 3538.13,-60.68 3260.14,-29.56"/>
<polygon fill="black" stroke="black" points="3260.41,-26.07 3250.09,-28.44 3259.63,-33.03 3260.41,-26.07"/>
<text text-anchor="middle" x="4642.75" y="-173.71" font-family="Times,serif" font-size="14.00">1</text>
</g>
<!-- nz0.EntityRedDoor -->
<g id="node22" class="node">
<title>nz0.EntityRedDoor</title>
<g id="a_node22"><a xlink:href="nz0.EntityRedDoor.svg" xlink:title="nz0.EntityRedDoor">
<ellipse fill="green" stroke="black" cx="5030.79" cy="-198" rx="99.38" ry="18"/>
<text text-anchor="middle" x="5030.79" y="-194.3" font-family="Times,serif" font-size="14.00">nz0.EntityRedDoor</text>
</a>
</g>
</g>
<!-- nz0.EntityRedDoor&#45;&gt;dra.func_8010DFF0 -->
<g id="edge21" class="edge">
<title>nz0.EntityRedDoor&#45;&gt;dra.func_8010DFF0</title>
<path fill="none" stroke="black" d="M4959.94,-185.28C4947.25,-183.38 4934.15,-181.53 4921.79,-180 4296.36,-102.64 3541.34,-45.59 3269.54,-26.21"/>
<polygon fill="black" stroke="black" points="3269.52,-22.7 3259.29,-25.48 3269.02,-29.68 3269.52,-22.7"/>
<text text-anchor="middle" x="4954.94" y="-174.08" font-family="Times,serif" font-size="14.00">1</text>
</g>
<!-- rwrp.EntityRWarpRoom -->
<g id="node23" class="node">
<title>rwrp.EntityRWarpRoom</title>
<g id="a_node23"><a xlink:href="rwrp.EntityRWarpRoom.svg" xlink:title="rwrp.EntityRWarpRoom">
<ellipse fill="red" stroke="black" cx="5270.79" cy="-198" rx="122.38" ry="18"/>
<text text-anchor="middle" x="5270.79" y="-194.3" font-family="Times,serif" font-size="14.00">rwrp.EntityRWarpRoom</text>
</a>
</g>
</g>
<!-- rwrp.EntityRWarpRoom&#45;&gt;dra.func_8010DFF0 -->
<g id="edge22" class="edge">
<title>rwrp.EntityRWarpRoom&#45;&gt;dra.func_8010DFF0</title>
<path fill="none" stroke="black" d="M5184.23,-185.27C5169.1,-183.38 5153.5,-181.55 5138.79,-180 4425.86,-105.04 3564.84,-45.35 3270.38,-25.81"/>
<polygon fill="black" stroke="black" points="3270.36,-22.3 3260.15,-25.13 3269.89,-29.28 3270.36,-22.3"/>
<text text-anchor="middle" x="5179.23" y="-174.07" font-family="Times,serif" font-size="14.00">2</text>
</g>
<!-- rwrp.EntityRedDoor -->
<g id="node24" class="node">
<title>rwrp.EntityRedDoor</title>
<g id="a_node24"><a xlink:href="rwrp.EntityRedDoor.svg" xlink:title="rwrp.EntityRedDoor">
<ellipse fill="green" stroke="black" cx="5515.79" cy="-198" rx="105.08" ry="18"/>
<text text-anchor="middle" x="5515.79" y="-194.3" font-family="Times,serif" font-size="14.00">rwrp.EntityRedDoor</text>
</a>
</g>
</g>
<!-- rwrp.EntityRedDoor&#45;&gt;dra.func_8010DFF0 -->
<g id="edge23" class="edge">
<title>rwrp.EntityRedDoor&#45;&gt;dra.func_8010DFF0</title>
<path fill="none" stroke="black" d="M5442,-185.16C5428.64,-183.25 5414.82,-181.44 5401.79,-180 4586.42,-89.98 3597.95,-39.06 3274.15,-23.87"/>
<polygon fill="black" stroke="black" points="3273.99,-20.36 3263.84,-23.39 3273.66,-27.35 3273.99,-20.36"/>
<text text-anchor="middle" x="5437" y="-173.96" font-family="Times,serif" font-size="14.00">1</text>
</g>
<!-- st0.EntityRedDoor -->
<g id="node25" class="node">
<title>st0.EntityRedDoor</title>
<g id="a_node25"><a xlink:href="st0.EntityRedDoor.svg" xlink:title="st0.EntityRedDoor">
<ellipse fill="green" stroke="black" cx="5736.79" cy="-198" rx="97.48" ry="18"/>
<text text-anchor="middle" x="5736.79" y="-194.3" font-family="Times,serif" font-size="14.00">st0.EntityRedDoor</text>
</a>
</g>
</g>
<!-- st0.EntityRedDoor&#45;&gt;dra.func_8010DFF0 -->
<g id="edge24" class="edge">
<title>st0.EntityRedDoor&#45;&gt;dra.func_8010DFF0</title>
<path fill="none" stroke="black" d="M5668.13,-185.13C5655.41,-183.21 5642.22,-181.39 5629.79,-180 4723.82,-78.65 3622.77,-34.58 3275.88,-22.57"/>
<polygon fill="black" stroke="black" points="3275.95,-19.07 3265.84,-22.22 3275.71,-26.06 3275.95,-19.07"/>
<text text-anchor="middle" x="5663.13" y="-173.93" font-family="Times,serif" font-size="14.00">1</text>
</g>
<!-- wrp.EntityRedDoor -->
<g id="node26" class="node">
<title>wrp.EntityRedDoor</title>
<g id="a_node26"><a xlink:href="wrp.EntityRedDoor.svg" xlink:title="wrp.EntityRedDoor">
<ellipse fill="green" stroke="black" cx="5952.79" cy="-198" rx="100.98" ry="18"/>
<text text-anchor="middle" x="5952.79" y="-194.3" font-family="Times,serif" font-size="14.00">wrp.EntityRedDoor</text>
</a>
</g>
</g>
<!-- wrp.EntityRedDoor&#45;&gt;dra.func_8010DFF0 -->
<g id="edge25" class="edge">
<title>wrp.EntityRedDoor&#45;&gt;dra.func_8010DFF0</title>
<path fill="none" stroke="black" d="M5882.21,-185.1C5869.13,-183.17 5855.57,-181.37 5842.79,-180 4850.38,-73.7 3642.91,-32.53 3276.42,-21.96"/>
<polygon fill="black" stroke="black" points="3276.45,-18.45 3266.35,-21.67 3276.24,-25.45 3276.45,-18.45"/>
<text text-anchor="middle" x="5877.21" y="-173.9" font-family="Times,serif" font-size="14.00">1</text>
</g>
</g>
</svg>
