<?xml version="1.0" encoding="UTF-8" standalone="no"?>
<!DOCTYPE svg PUBLIC "-//W3C//DTD SVG 1.1//EN"
 "http://www.w3.org/Graphics/SVG/1.1/DTD/svg11.dtd">
<!-- Generated by graphviz version 2.43.0 (0)
 -->
<!-- Title: dra.ControlBatForm Pages: 1 -->
<svg width="3434pt" height="404pt"
 viewBox="0.00 0.00 3434.23 404.00" xmlns="http://www.w3.org/2000/svg" xmlns:xlink="http://www.w3.org/1999/xlink">
<g id="graph0" class="graph" transform="scale(1 1) rotate(0) translate(4 400)">
<title>dra.ControlBatForm</title>
<polygon fill="white" stroke="transparent" points="-4,4 -4,-400 3430.23,-400 3430.23,4 -4,4"/>
<!-- dra.ControlBatForm -->
<g id="node1" class="node">
<title>dra.ControlBatForm</title>
<ellipse fill="green" stroke="black" cx="1779.84" cy="-198" rx="104.78" ry="18"/>
<text text-anchor="middle" x="1779.84" y="-194.3" font-family="Times,serif" font-size="14.00">dra.ControlBatForm</text>
</g>
<!-- dra.BatFormFinished -->
<g id="node2" class="node">
<title>dra.BatFormFinished</title>
<g id="a_node2"><a xlink:href="dra.BatFormFinished.svg" xlink:title="dra.BatFormFinished">
<ellipse fill="green" stroke="black" cx="109.84" cy="-18" rx="109.68" ry="18"/>
<text text-anchor="middle" x="109.84" y="-14.3" font-family="Times,serif" font-size="14.00">dra.BatFormFinished</text>
</a>
</g>
</g>
<!-- dra.ControlBatForm&#45;&gt;dra.BatFormFinished -->
<g id="edge1" class="edge">
<title>dra.ControlBatForm&#45;&gt;dra.BatFormFinished</title>
<path fill="none" stroke="black" d="M1689.67,-188.86C1450.97,-167.06 783,-104.32 228.84,-36 218.98,-34.78 208.66,-33.43 198.41,-32.04"/>
<polygon fill="black" stroke="black" points="198.58,-28.53 188.2,-30.63 197.63,-35.46 198.58,-28.53"/>
<text text-anchor="middle" x="183.2" y="-34.43" font-family="Times,serif" font-size="14.00">3</text>
</g>
<!-- dra.CastSpell -->
<g id="node3" class="node">
<title>dra.CastSpell</title>
<g id="a_node3"><a xlink:href="dra.CastSpell.svg" xlink:title="dra.CastSpell">
<ellipse fill="green" stroke="black" cx="310.84" cy="-18" rx="73.39" ry="18"/>
<text text-anchor="middle" x="310.84" y="-14.3" font-family="Times,serif" font-size="14.00">dra.CastSpell</text>
</a>
</g>
</g>
<!-- dra.ControlBatForm&#45;&gt;dra.CastSpell -->
<g id="edge2" class="edge">
<title>dra.ControlBatForm&#45;&gt;dra.CastSpell</title>
<path fill="none" stroke="black" d="M1688.17,-189.2C1465.42,-169.63 878.36,-114.35 392.84,-36 386.62,-35 380.16,-33.85 373.72,-32.63"/>
<polygon fill="black" stroke="black" points="374.13,-29.14 363.65,-30.67 372.79,-36.01 374.13,-29.14"/>
<text text-anchor="middle" x="358.65" y="-34.47" font-family="Times,serif" font-size="14.00">2</text>
</g>
<!-- dra.CheckWingSmashInput -->
<g id="node4" class="node">
<title>dra.CheckWingSmashInput</title>
<g id="a_node4"><a xlink:href="dra.CheckWingSmashInput.svg" xlink:title="dra.CheckWingSmashInput">
<ellipse fill="green" stroke="black" cx="539.84" cy="-18" rx="137.58" ry="18"/>
<text text-anchor="middle" x="539.84" y="-14.3" font-family="Times,serif" font-size="14.00">dra.CheckWingSmashInput</text>
</a>
</g>
</g>
<!-- dra.ControlBatForm&#45;&gt;dra.CheckWingSmashInput -->
<g id="edge3" class="edge">
<title>dra.ControlBatForm&#45;&gt;dra.CheckWingSmashInput</title>
<path fill="none" stroke="black" d="M1702.27,-185.87C1486.4,-154.88 878.77,-67.65 638.96,-33.23"/>
<polygon fill="black" stroke="black" points="639.25,-29.73 628.85,-31.78 638.26,-36.66 639.25,-29.73"/>
<text text-anchor="middle" x="623.85" y="-35.58" font-family="Times,serif" font-size="14.00">1</text>
</g>
<!-- dra.CreateEntFactoryFromEntity -->
<g id="node5" class="node">
<title>dra.CreateEntFactoryFromEntity</title>
<g id="a_node5"><a xlink:href="dra.CreateEntFactoryFromEntity.svg" xlink:title="dra.CreateEntFactoryFromEntity">
<ellipse fill="green" stroke="black" cx="861.84" cy="-18" rx="165.97" ry="18"/>
<text text-anchor="middle" x="861.84" y="-14.3" font-family="Times,serif" font-size="14.00">dra.CreateEntFactoryFromEntity</text>
</a>
</g>
</g>
<!-- dra.ControlBatForm&#45;&gt;dra.CreateEntFactoryFromEntity -->
<g id="edge4" class="edge">
<title>dra.ControlBatForm&#45;&gt;dra.CreateEntFactoryFromEntity</title>
<path fill="none" stroke="black" d="M1713.08,-184.06C1550.01,-152.44 1131.46,-71.28 949.03,-35.91"/>
<polygon fill="black" stroke="black" points="949.69,-32.47 939.2,-34 948.35,-39.34 949.69,-32.47"/>
<text text-anchor="middle" x="934.2" y="-37.8" font-family="Times,serif" font-size="14.00">8</text>
</g>
<!-- dra.DecelerateX -->
<g id="node6" class="node">
<title>dra.DecelerateX</title>
<g id="a_node6"><a xlink:href="dra.DecelerateX.svg" xlink:title="dra.DecelerateX">
<ellipse fill="green" stroke="black" cx="1131.84" cy="-18" rx="85.59" ry="18"/>
<text text-anchor="middle" x="1131.84" y="-14.3" font-family="Times,serif" font-size="14.00">dra.DecelerateX</text>
</a>
</g>
</g>
<!-- dra.ControlBatForm&#45;&gt;dra.DecelerateX -->
<g id="edge5" class="edge">
<title>dra.ControlBatForm&#45;&gt;dra.DecelerateX</title>
<path fill="none" stroke="black" d="M1726.81,-182.43C1607.33,-149.61 1317.69,-70.05 1191.86,-35.49"/>
<polygon fill="black" stroke="black" points="1192.58,-32.05 1182.01,-32.78 1190.72,-38.8 1192.58,-32.05"/>
<text text-anchor="middle" x="1177.01" y="-36.58" font-family="Times,serif" font-size="14.00">9</text>
</g>
<!-- dra.DecelerateY -->
<g id="node7" class="node">
<title>dra.DecelerateY</title>
<g id="a_node7"><a xlink:href="dra.DecelerateY.svg" xlink:title="dra.DecelerateY">
<ellipse fill="green" stroke="black" cx="1320.84" cy="-18" rx="85.29" ry="18"/>
<text text-anchor="middle" x="1320.84" y="-14.3" font-family="Times,serif" font-size="14.00">dra.DecelerateY</text>
</a>
</g>
</g>
<!-- dra.ControlBatForm&#45;&gt;dra.DecelerateY -->
<g id="edge6" class="edge">
<title>dra.ControlBatForm&#45;&gt;dra.DecelerateY</title>
<path fill="none" stroke="black" d="M1739.51,-181.36C1655.08,-148.62 1460.05,-72.99 1369.13,-37.73"/>
<polygon fill="black" stroke="black" points="1370.2,-34.39 1359.62,-34.04 1367.67,-40.92 1370.2,-34.39"/>
<text text-anchor="middle" x="1354.62" y="-37.84" font-family="Times,serif" font-size="14.00">9</text>
</g>
<!-- dra.IsRelicActive -->
<g id="node8" class="node">
<title>dra.IsRelicActive</title>
<g id="a_node8"><a xlink:href="dra.IsRelicActive.svg" xlink:title="dra.IsRelicActive">
<ellipse fill="green" stroke="black" cx="1512.84" cy="-18" rx="89.08" ry="18"/>
<text text-anchor="middle" x="1512.84" y="-14.3" font-family="Times,serif" font-size="14.00">dra.IsRelicActive</text>
</a>
</g>
</g>
<!-- dra.ControlBatForm&#45;&gt;dra.IsRelicActive -->
<g id="edge7" class="edge">
<title>dra.ControlBatForm&#45;&gt;dra.IsRelicActive</title>
<path fill="none" stroke="black" d="M1754.72,-180.25C1706.27,-147.95 1599.93,-77.06 1545.84,-41"/>
<polygon fill="black" stroke="black" points="1547.57,-37.95 1537.31,-35.31 1543.69,-43.77 1547.57,-37.95"/>
<text text-anchor="middle" x="1532.31" y="-39.11" font-family="Times,serif" font-size="14.00">2</text>
</g>
<!-- dra.LearnSpell -->
<g id="node9" class="node">
<title>dra.LearnSpell</title>
<g id="a_node9"><a xlink:href="dra.LearnSpell.svg" xlink:title="dra.LearnSpell">
<ellipse fill="green" stroke="black" cx="1698.84" cy="-18" rx="79.09" ry="18"/>
<text text-anchor="middle" x="1698.84" y="-14.3" font-family="Times,serif" font-size="14.00">dra.LearnSpell</text>
</a>
</g>
</g>
<!-- dra.ControlBatForm&#45;&gt;dra.LearnSpell -->
<g id="edge8" class="edge">
<title>dra.ControlBatForm&#45;&gt;dra.LearnSpell</title>
<path fill="none" stroke="black" d="M1772.07,-179.93C1757.86,-148.7 1727.59,-82.17 1710.75,-45.18"/>
<polygon fill="black" stroke="black" points="1713.91,-43.67 1706.58,-36.02 1707.54,-46.57 1713.91,-43.67"/>
<text text-anchor="middle" x="1701.58" y="-39.82" font-family="Times,serif" font-size="14.00">1</text>
</g>
<!-- dra.PlaySfx -->
<g id="node10" class="node">
<title>dra.PlaySfx</title>
<g id="a_node10"><a xlink:href="dra.PlaySfx.svg" xlink:title="dra.PlaySfx">
<ellipse fill="green" stroke="black" cx="1860.84" cy="-18" rx="64.19" ry="18"/>
<text text-anchor="middle" x="1860.84" y="-14.3" font-family="Times,serif" font-size="14.00">dra.PlaySfx</text>
</a>
</g>
</g>
<!-- dra.ControlBatForm&#45;&gt;dra.PlaySfx -->
<g id="edge9" class="edge">
<title>dra.ControlBatForm&#45;&gt;dra.PlaySfx</title>
<path fill="none" stroke="black" d="M1787.61,-179.93C1801.82,-148.7 1832.09,-82.17 1848.93,-45.18"/>
<polygon fill="black" stroke="black" points="1852.14,-46.57 1853.1,-36.02 1845.77,-43.67 1852.14,-46.57"/>
<text text-anchor="middle" x="1848.1" y="-39.82" font-family="Times,serif" font-size="14.00">2</text>
</g>
<!-- dra.SetPlayerAnim -->
<g id="node11" class="node">
<title>dra.SetPlayerAnim</title>
<g id="a_node11"><a xlink:href="dra.SetPlayerAnim.svg" xlink:title="dra.SetPlayerAnim">
<ellipse fill="green" stroke="black" cx="2041.84" cy="-18" rx="98.58" ry="18"/>
<text text-anchor="middle" x="2041.84" y="-14.3" font-family="Times,serif" font-size="14.00">dra.SetPlayerAnim</text>
</a>
</g>
</g>
<!-- dra.ControlBatForm&#45;&gt;dra.SetPlayerAnim -->
<g id="edge10" class="edge">
<title>dra.ControlBatForm&#45;&gt;dra.SetPlayerAnim</title>
<path fill="none" stroke="black" d="M1804.49,-180.25C1851.91,-148.04 1955.85,-77.42 2009.05,-41.27"/>
<polygon fill="black" stroke="black" points="2011.14,-44.09 2017.45,-35.57 2007.21,-38.3 2011.14,-44.09"/>
<text text-anchor="middle" x="2012.45" y="-39.37" font-family="Times,serif" font-size="14.00">6</text>
</g>
<!-- dra.SetSpeedX -->
<g id="node12" class="node">
<title>dra.SetSpeedX</title>
<g id="a_node12"><a xlink:href="dra.SetSpeedX.svg" xlink:title="dra.SetSpeedX">
<ellipse fill="green" stroke="black" cx="2238.84" cy="-18" rx="79.89" ry="18"/>
<text text-anchor="middle" x="2238.84" y="-14.3" font-family="Times,serif" font-size="14.00">dra.SetSpeedX</text>
</a>
</g>
</g>
<!-- dra.ControlBatForm&#45;&gt;dra.SetSpeedX -->
<g id="edge11" class="edge">
<title>dra.ControlBatForm&#45;&gt;dra.SetSpeedX</title>
<path fill="none" stroke="black" d="M1820.17,-181.36C1904.7,-148.58 2100.12,-72.8 2190.89,-37.59"/>
<polygon fill="black" stroke="black" points="2192.33,-40.79 2200.39,-33.91 2189.8,-34.26 2192.33,-40.79"/>
<text text-anchor="middle" x="2195.39" y="-37.71" font-family="Times,serif" font-size="14.00">2</text>
</g>
<!-- dra.func_80102CD8 -->
<g id="node13" class="node">
<title>dra.func_80102CD8</title>
<g id="a_node13"><a xlink:href="dra.func_80102CD8.svg" xlink:title="dra.func_80102CD8">
<ellipse fill="green" stroke="black" cx="2439.84" cy="-18" rx="102.88" ry="18"/>
<text text-anchor="middle" x="2439.84" y="-14.3" font-family="Times,serif" font-size="14.00">dra.func_80102CD8</text>
</a>
</g>
</g>
<!-- dra.ControlBatForm&#45;&gt;dra.func_80102CD8 -->
<g id="edge12" class="edge">
<title>dra.ControlBatForm&#45;&gt;dra.func_80102CD8</title>
<path fill="none" stroke="black" d="M1833.57,-182.51C1954.45,-149.91 2247.3,-70.93 2376.64,-36.04"/>
<polygon fill="black" stroke="black" points="2377.67,-39.39 2386.41,-33.41 2375.84,-32.63 2377.67,-39.39"/>
<text text-anchor="middle" x="2381.41" y="-37.21" font-family="Times,serif" font-size="14.00">1</text>
</g>
<!-- dra.func_8010E27C -->
<g id="node14" class="node">
<title>dra.func_8010E27C</title>
<g id="a_node14"><a xlink:href="dra.func_8010E27C.svg" xlink:title="dra.func_8010E27C">
<ellipse fill="green" stroke="black" cx="2662.84" cy="-18" rx="102.88" ry="18"/>
<text text-anchor="middle" x="2662.84" y="-14.3" font-family="Times,serif" font-size="14.00">dra.func_8010E27C</text>
</a>
</g>
</g>
<!-- dra.ControlBatForm&#45;&gt;dra.func_8010E27C -->
<g id="edge13" class="edge">
<title>dra.ControlBatForm&#45;&gt;dra.func_8010E27C</title>
<path fill="none" stroke="black" d="M1845.13,-183.84C2005.61,-151.49 2418.63,-68.23 2588.34,-34.02"/>
<polygon fill="black" stroke="black" points="2589.07,-37.44 2598.19,-32.03 2587.69,-30.58 2589.07,-37.44"/>
<text text-anchor="middle" x="2593.19" y="-35.83" font-family="Times,serif" font-size="14.00">1</text>
</g>
<!-- dra.func_8010FAF4 -->
<g id="node15" class="node">
<title>dra.func_8010FAF4</title>
<g id="a_node15"><a xlink:href="dra.func_8010FAF4.svg" xlink:title="dra.func_8010FAF4">
<ellipse fill="green" stroke="black" cx="2883.84" cy="-18" rx="100.98" ry="18"/>
<text text-anchor="middle" x="2883.84" y="-14.3" font-family="Times,serif" font-size="14.00">dra.func_8010FAF4</text>
</a>
</g>
</g>
<!-- dra.ControlBatForm&#45;&gt;dra.func_8010FAF4 -->
<g id="edge14" class="edge">
<title>dra.ControlBatForm&#45;&gt;dra.func_8010FAF4</title>
<path fill="none" stroke="black" d="M1853.56,-185.11C2051.65,-153.18 2594.45,-65.66 2801.82,-32.22"/>
<polygon fill="black" stroke="black" points="2802.42,-35.67 2811.73,-30.63 2801.3,-28.76 2802.42,-35.67"/>
<text text-anchor="middle" x="2806.73" y="-34.43" font-family="Times,serif" font-size="14.00">1</text>
</g>
<!-- dra.func_8011203C -->
<g id="node16" class="node">
<title>dra.func_8011203C</title>
<g id="a_node16"><a xlink:href="dra.func_8011203C.svg" xlink:title="dra.func_8011203C">
<ellipse fill="green" stroke="black" cx="3103.84" cy="-18" rx="101.28" ry="18"/>
<text text-anchor="middle" x="3103.84" y="-14.3" font-family="Times,serif" font-size="14.00">dra.func_8011203C</text>
</a>
</g>
</g>
<!-- dra.ControlBatForm&#45;&gt;dra.func_8011203C -->
<g id="edge15" class="edge">
<title>dra.ControlBatForm&#45;&gt;dra.func_8011203C</title>
<path fill="none" stroke="black" d="M1861.63,-186.77C2057.37,-162.15 2568.2,-97.11 2993.84,-36 3002.53,-34.75 3011.59,-33.41 3020.63,-32.05"/>
<polygon fill="black" stroke="black" points="3021.44,-35.47 3030.8,-30.51 3020.39,-28.55 3021.44,-35.47"/>
<text text-anchor="middle" x="3025.8" y="-34.31" font-family="Times,serif" font-size="14.00">1</text>
</g>
<!-- dra.func_8011690C -->
<g id="node17" class="node">
<title>dra.func_8011690C</title>
<g id="a_node17"><a xlink:href="dra.func_8011690C.svg" xlink:title="dra.func_8011690C">
<ellipse fill="green" stroke="black" cx="3324.84" cy="-18" rx="101.28" ry="18"/>
<text text-anchor="middle" x="3324.84" y="-14.3" font-family="Times,serif" font-size="14.00">dra.func_8011690C</text>
</a>
</g>
</g>
<!-- dra.ControlBatForm&#45;&gt;dra.func_8011690C -->
<g id="edge16" class="edge">
<title>dra.ControlBatForm&#45;&gt;dra.func_8011690C</title>
<path fill="none" stroke="black" d="M1868.52,-188.3C2093.68,-165.92 2705.66,-103.41 3213.84,-36 3223.02,-34.78 3232.62,-33.43 3242.15,-32.04"/>
<polygon fill="black" stroke="black" points="3242.68,-35.5 3252.06,-30.57 3241.65,-28.57 3242.68,-35.5"/>
<text text-anchor="middle" x="3242.56" y="-34.37" font-family="Times,serif" font-size="14.00">13</text>
</g>
<!-- dra.EntityAlucard -->
<g id="node18" class="node">
<title>dra.EntityAlucard</title>
<g id="a_node18"><a xlink:href="dra.EntityAlucard.svg" xlink:title="dra.EntityAlucard">
<ellipse fill="green" stroke="black" cx="1779.84" cy="-378" rx="93.68" ry="18"/>
<text text-anchor="middle" x="1779.84" y="-374.3" font-family="Times,serif" font-size="14.00">dra.EntityAlucard</text>
</a>
</g>
</g>
<!-- dra.EntityAlucard&#45;&gt;dra.ControlBatForm -->
<g id="edge17" class="edge">
<title>dra.EntityAlucard&#45;&gt;dra.ControlBatForm</title>
<path fill="none" stroke="black" d="M1779.84,-359.93C1779.84,-328.97 1779.84,-263.3 1779.84,-226.13"/>
<polygon fill="black" stroke="black" points="1783.34,-226.02 1779.84,-216.02 1776.34,-226.02 1783.34,-226.02"/>
<text text-anchor="middle" x="1774.84" y="-348.73" font-family="Times,serif" font-size="14.00">1</text>
</g>
</g>
</svg>
