<?xml version="1.0" encoding="UTF-8" standalone="no"?>
<!DOCTYPE svg PUBLIC "-//W3C//DTD SVG 1.1//EN"
 "http://www.w3.org/Graphics/SVG/1.1/DTD/svg11.dtd">
<!-- Generated by graphviz version 2.43.0 (0)
 -->
<!-- Title: dra.func_801080DC Pages: 1 -->
<svg width="320pt" height="224pt"
 viewBox="0.00 0.00 319.89 224.00" xmlns="http://www.w3.org/2000/svg" xmlns:xlink="http://www.w3.org/1999/xlink">
<g id="graph0" class="graph" transform="scale(1 1) rotate(0) translate(4 220)">
<title>dra.func_801080DC</title>
<polygon fill="white" stroke="transparent" points="-4,4 -4,-220 315.89,-220 315.89,4 -4,4"/>
<!-- dra.func_801080DC -->
<g id="node1" class="node">
<title>dra.func_801080DC</title>
<ellipse fill="green" stroke="black" cx="167.14" cy="-198" rx="102.88" ry="18"/>
<text text-anchor="middle" x="167.14" y="-194.3" font-family="Times,serif" font-size="14.00">dra.func_801080DC</text>
</g>
<!-- CdDataCallback -->
<g id="node2" class="node">
<title>CdDataCallback</title>
<g id="a_node2"><a xlink:href="CdDataCallback.svg" xlink:title="CdDataCallback">
<ellipse fill="lightblue" stroke="black" cx="85.14" cy="-18" rx="85.29" ry="18"/>
<text text-anchor="middle" x="85.14" y="-14.3" font-family="Times,serif" font-size="14.00">CdDataCallback</text>
</a>
</g>
</g>
<!-- dra.func_801080DC&#45;&gt;CdDataCallback -->
<g id="edge1" class="edge">
<title>dra.func_801080DC&#45;&gt;CdDataCallback</title>
<path fill="none" stroke="black" d="M159.28,-179.93C144.89,-148.7 114.24,-82.17 97.2,-45.18"/>
<polygon fill="black" stroke="black" points="100.34,-43.63 92.98,-36.02 93.99,-46.56 100.34,-43.63"/>
<text text-anchor="middle" x="87.98" y="-39.82" font-family="Times,serif" font-size="14.00">1</text>
</g>
<!-- LoadImage -->
<g id="node3" class="node">
<title>LoadImage</title>
<g id="a_node3"><a xlink:href="LoadImage.svg" xlink:title="LoadImage">
<ellipse fill="lightblue" stroke="black" cx="250.14" cy="-18" rx="61.99" ry="18"/>
<text text-anchor="middle" x="250.14" y="-14.3" font-family="Times,serif" font-size="14.00">LoadImage</text>
</a>
</g>
</g>
<!-- dra.func_801080DC&#45;&gt;LoadImage -->
<g id="edge2" class="edge">
<title>dra.func_801080DC&#45;&gt;LoadImage</title>
<path fill="none" stroke="black" d="M175.1,-179.93C189.66,-148.7 220.69,-82.17 237.94,-45.18"/>
<polygon fill="black" stroke="black" points="241.15,-46.56 242.21,-36.02 234.81,-43.6 241.15,-46.56"/>
<text text-anchor="middle" x="237.21" y="-39.82" font-family="Times,serif" font-size="14.00">3</text>
</g>
</g>
</svg>
