<?xml version="1.0" encoding="UTF-8" standalone="no"?>
<!DOCTYPE svg PUBLIC "-//W3C//DTD SVG 1.1//EN"
 "http://www.w3.org/Graphics/SVG/1.1/DTD/svg11.dtd">
<!-- Generated by graphviz version 2.43.0 (0)
 -->
<!-- Title: dra.AlucardHandleDamage Pages: 1 -->
<svg width="4404pt" height="404pt"
 viewBox="0.00 0.00 4404.04 404.00" xmlns="http://www.w3.org/2000/svg" xmlns:xlink="http://www.w3.org/1999/xlink">
<g id="graph0" class="graph" transform="scale(1 1) rotate(0) translate(4 400)">
<title>dra.AlucardHandleDamage</title>
<polygon fill="white" stroke="transparent" points="-4,4 -4,-400 4400.04,-400 4400.04,4 -4,4"/>
<!-- dra.AlucardHandleDamage -->
<g id="node1" class="node">
<title>dra.AlucardHandleDamage</title>
<ellipse fill="green" stroke="black" cx="2208.54" cy="-198" rx="135.68" ry="18"/>
<text text-anchor="middle" x="2208.54" y="-194.3" font-family="Times,serif" font-size="14.00">dra.AlucardHandleDamage</text>
</g>
<!-- D_8017A010 -->
<g id="node2" class="node">
<title>D_8017A010</title>
<g id="a_node2"><a xlink:href="D_8017A010.svg" xlink:title="D_8017A010">
<ellipse fill="lightblue" stroke="black" cx="69.54" cy="-18" rx="69.59" ry="18"/>
<text text-anchor="middle" x="69.54" y="-14.3" font-family="Times,serif" font-size="14.00">D_8017A010</text>
</a>
</g>
</g>
<!-- dra.AlucardHandleDamage&#45;&gt;D_8017A010 -->
<g id="edge1" class="edge">
<title>dra.AlucardHandleDamage&#45;&gt;D_8017A010</title>
<path fill="none" stroke="black" d="M2078.32,-192.88C1751.92,-181.24 873.12,-141.79 148.54,-36 142.26,-35.08 135.72,-33.96 129.23,-32.73"/>
<polygon fill="black" stroke="black" points="129.58,-29.23 119.09,-30.72 128.22,-36.1 129.58,-29.23"/>
<text text-anchor="middle" x="114.09" y="-34.52" font-family="Times,serif" font-size="14.00">1</text>
</g>
<!-- FntPrint -->
<g id="node3" class="node">
<title>FntPrint</title>
<g id="a_node3"><a xlink:href="FntPrint.svg" xlink:title="FntPrint">
<ellipse fill="lightblue" stroke="black" cx="207.54" cy="-18" rx="50.09" ry="18"/>
<text text-anchor="middle" x="207.54" y="-14.3" font-family="Times,serif" font-size="14.00">FntPrint</text>
</a>
</g>
</g>
<!-- dra.AlucardHandleDamage&#45;&gt;FntPrint -->
<g id="edge2" class="edge">
<title>dra.AlucardHandleDamage&#45;&gt;FntPrint</title>
<path fill="none" stroke="black" d="M2074.61,-194.99C1757.71,-188.26 938.06,-159.32 266.54,-36 262.18,-35.2 257.67,-34.21 253.19,-33.11"/>
<polygon fill="black" stroke="black" points="254.03,-29.71 243.47,-30.57 252.26,-36.49 254.03,-29.71"/>
<text text-anchor="middle" x="238.47" y="-34.37" font-family="Times,serif" font-size="14.00">1</text>
</g>
<!-- dra.CreateEntFactoryFromEntity -->
<g id="node4" class="node">
<title>dra.CreateEntFactoryFromEntity</title>
<g id="a_node4"><a xlink:href="dra.CreateEntFactoryFromEntity.svg" xlink:title="dra.CreateEntFactoryFromEntity">
<ellipse fill="green" stroke="black" cx="441.54" cy="-18" rx="165.97" ry="18"/>
<text text-anchor="middle" x="441.54" y="-14.3" font-family="Times,serif" font-size="14.00">dra.CreateEntFactoryFromEntity</text>
</a>
</g>
</g>
<!-- dra.AlucardHandleDamage&#45;&gt;dra.CreateEntFactoryFromEntity -->
<g id="edge3" class="edge">
<title>dra.AlucardHandleDamage&#45;&gt;dra.CreateEntFactoryFromEntity</title>
<path fill="none" stroke="black" d="M2103.96,-186.46C1797.51,-155.59 902.38,-65.42 568.8,-31.82"/>
<polygon fill="black" stroke="black" points="568.91,-28.31 558.61,-30.79 568.21,-35.28 568.91,-28.31"/>
<text text-anchor="middle" x="549.11" y="-34.59" font-family="Times,serif" font-size="14.00">22</text>
</g>
<!-- dra.DecelerateX -->
<g id="node5" class="node">
<title>dra.DecelerateX</title>
<g id="a_node5"><a xlink:href="dra.DecelerateX.svg" xlink:title="dra.DecelerateX">
<ellipse fill="green" stroke="black" cx="711.54" cy="-18" rx="85.59" ry="18"/>
<text text-anchor="middle" x="711.54" y="-14.3" font-family="Times,serif" font-size="14.00">dra.DecelerateX</text>
</a>
</g>
</g>
<!-- dra.AlucardHandleDamage&#45;&gt;dra.DecelerateX -->
<g id="edge4" class="edge">
<title>dra.AlucardHandleDamage&#45;&gt;dra.DecelerateX</title>
<path fill="none" stroke="black" d="M2100.95,-186.97C1865.62,-164.52 1287.72,-106.61 806.54,-36 798.91,-34.88 790.95,-33.61 783.02,-32.29"/>
<polygon fill="black" stroke="black" points="783.48,-28.81 773.03,-30.58 782.3,-35.71 783.48,-28.81"/>
<text text-anchor="middle" x="768.03" y="-34.38" font-family="Times,serif" font-size="14.00">2</text>
</g>
<!-- dra.GetStatusAilmentTimer -->
<g id="node6" class="node">
<title>dra.GetStatusAilmentTimer</title>
<g id="a_node6"><a xlink:href="dra.GetStatusAilmentTimer.svg" xlink:title="dra.GetStatusAilmentTimer">
<ellipse fill="green" stroke="black" cx="955.54" cy="-18" rx="139.98" ry="18"/>
<text text-anchor="middle" x="955.54" y="-14.3" font-family="Times,serif" font-size="14.00">dra.GetStatusAilmentTimer</text>
</a>
</g>
</g>
<!-- dra.AlucardHandleDamage&#45;&gt;dra.GetStatusAilmentTimer -->
<g id="edge5" class="edge">
<title>dra.AlucardHandleDamage&#45;&gt;dra.GetStatusAilmentTimer</title>
<path fill="none" stroke="black" d="M2119.69,-184.38C1892.94,-152.17 1294.01,-67.08 1055.56,-33.21"/>
<polygon fill="black" stroke="black" points="1055.9,-29.72 1045.51,-31.78 1054.91,-36.65 1055.9,-29.72"/>
<text text-anchor="middle" x="1040.51" y="-35.58" font-family="Times,serif" font-size="14.00">2</text>
</g>
<!-- dra.PlaySfx -->
<g id="node7" class="node">
<title>dra.PlaySfx</title>
<g id="a_node7"><a xlink:href="dra.PlaySfx.svg" xlink:title="dra.PlaySfx">
<ellipse fill="green" stroke="black" cx="1177.54" cy="-18" rx="64.19" ry="18"/>
<text text-anchor="middle" x="1177.54" y="-14.3" font-family="Times,serif" font-size="14.00">dra.PlaySfx</text>
</a>
</g>
</g>
<!-- dra.AlucardHandleDamage&#45;&gt;dra.PlaySfx -->
<g id="edge6" class="edge">
<title>dra.AlucardHandleDamage&#45;&gt;dra.PlaySfx</title>
<path fill="none" stroke="black" d="M2121.03,-184.16C1952.13,-158.97 1569.7,-99.92 1250.54,-36 1245.28,-34.95 1239.82,-33.79 1234.36,-32.59"/>
<polygon fill="black" stroke="black" points="1235.1,-29.17 1224.57,-30.41 1233.57,-36 1235.1,-29.17"/>
<text text-anchor="middle" x="1219.57" y="-34.21" font-family="Times,serif" font-size="14.00">8</text>
</g>
<!-- dra.SetSpeedX -->
<g id="node8" class="node">
<title>dra.SetSpeedX</title>
<g id="a_node8"><a xlink:href="dra.SetSpeedX.svg" xlink:title="dra.SetSpeedX">
<ellipse fill="green" stroke="black" cx="1339.54" cy="-18" rx="79.89" ry="18"/>
<text text-anchor="middle" x="1339.54" y="-14.3" font-family="Times,serif" font-size="14.00">dra.SetSpeedX</text>
</a>
</g>
</g>
<!-- dra.AlucardHandleDamage&#45;&gt;dra.SetSpeedX -->
<g id="edge7" class="edge">
<title>dra.AlucardHandleDamage&#45;&gt;dra.SetSpeedX</title>
<path fill="none" stroke="black" d="M2138.17,-182.58C1974.08,-148.97 1567.9,-65.77 1406.87,-32.79"/>
<polygon fill="black" stroke="black" points="1407.12,-29.27 1396.62,-30.69 1405.71,-36.13 1407.12,-29.27"/>
<text text-anchor="middle" x="1391.62" y="-34.49" font-family="Times,serif" font-size="14.00">1</text>
</g>
<!-- dra.func_80102CD8 -->
<g id="node9" class="node">
<title>dra.func_80102CD8</title>
<g id="a_node9"><a xlink:href="dra.func_80102CD8.svg" xlink:title="dra.func_80102CD8">
<ellipse fill="green" stroke="black" cx="1540.54" cy="-18" rx="102.88" ry="18"/>
<text text-anchor="middle" x="1540.54" y="-14.3" font-family="Times,serif" font-size="14.00">dra.func_80102CD8</text>
</a>
</g>
</g>
<!-- dra.AlucardHandleDamage&#45;&gt;dra.func_80102CD8 -->
<g id="edge8" class="edge">
<title>dra.AlucardHandleDamage&#45;&gt;dra.func_80102CD8</title>
<path fill="none" stroke="black" d="M2151.01,-181.67C2026.71,-148.55 1733.87,-70.52 1604.22,-35.97"/>
<polygon fill="black" stroke="black" points="1604.99,-32.55 1594.43,-33.36 1603.19,-39.31 1604.99,-32.55"/>
<text text-anchor="middle" x="1589.43" y="-37.16" font-family="Times,serif" font-size="14.00">2</text>
</g>
<!-- dra.func_8010DA48 -->
<g id="node10" class="node">
<title>dra.func_8010DA48</title>
<g id="a_node10"><a xlink:href="dra.func_8010DA48.svg" xlink:title="dra.func_8010DA48">
<ellipse fill="green" stroke="black" cx="1763.54" cy="-18" rx="102.88" ry="18"/>
<text text-anchor="middle" x="1763.54" y="-14.3" font-family="Times,serif" font-size="14.00">dra.func_8010DA48</text>
</a>
</g>
</g>
<!-- dra.AlucardHandleDamage&#45;&gt;dra.func_8010DA48 -->
<g id="edge9" class="edge">
<title>dra.AlucardHandleDamage&#45;&gt;dra.func_8010DA48</title>
<path fill="none" stroke="black" d="M2167.87,-180.73C2085.77,-147.89 1900.55,-73.8 1812.2,-38.46"/>
<polygon fill="black" stroke="black" points="1813.27,-35.12 1802.68,-34.66 1810.67,-41.62 1813.27,-35.12"/>
<text text-anchor="middle" x="1797.68" y="-38.46" font-family="Times,serif" font-size="14.00">4</text>
</g>
<!-- dra.func_8010E3B8 -->
<g id="node11" class="node">
<title>dra.func_8010E3B8</title>
<g id="a_node11"><a xlink:href="dra.func_8010E3B8.svg" xlink:title="dra.func_8010E3B8">
<ellipse fill="green" stroke="black" cx="1986.54" cy="-18" rx="102.88" ry="18"/>
<text text-anchor="middle" x="1986.54" y="-14.3" font-family="Times,serif" font-size="14.00">dra.func_8010E3B8</text>
</a>
</g>
</g>
<!-- dra.AlucardHandleDamage&#45;&gt;dra.func_8010E3B8 -->
<g id="edge10" class="edge">
<title>dra.AlucardHandleDamage&#45;&gt;dra.func_8010E3B8</title>
<path fill="none" stroke="black" d="M2187.26,-179.93C2147.21,-147.82 2060.62,-78.39 2015.39,-42.13"/>
<polygon fill="black" stroke="black" points="2017.43,-39.28 2007.44,-35.76 2013.05,-44.74 2017.43,-39.28"/>
<text text-anchor="middle" x="2002.44" y="-39.56" font-family="Times,serif" font-size="14.00">7</text>
</g>
<!-- dra.func_8010E470 -->
<g id="node12" class="node">
<title>dra.func_8010E470</title>
<g id="a_node12"><a xlink:href="dra.func_8010E470.svg" xlink:title="dra.func_8010E470">
<ellipse fill="green" stroke="black" cx="2208.54" cy="-18" rx="101.28" ry="18"/>
<text text-anchor="middle" x="2208.54" y="-14.3" font-family="Times,serif" font-size="14.00">dra.func_8010E470</text>
</a>
</g>
</g>
<!-- dra.AlucardHandleDamage&#45;&gt;dra.func_8010E470 -->
<g id="edge11" class="edge">
<title>dra.AlucardHandleDamage&#45;&gt;dra.func_8010E470</title>
<path fill="none" stroke="black" d="M2208.54,-179.93C2208.54,-148.97 2208.54,-83.3 2208.54,-46.13"/>
<polygon fill="black" stroke="black" points="2212.04,-46.02 2208.54,-36.02 2205.04,-46.02 2212.04,-46.02"/>
<text text-anchor="middle" x="2203.54" y="-39.82" font-family="Times,serif" font-size="14.00">1</text>
</g>
<!-- dra.func_8010E570 -->
<g id="node13" class="node">
<title>dra.func_8010E570</title>
<g id="a_node13"><a xlink:href="dra.func_8010E570.svg" xlink:title="dra.func_8010E570">
<ellipse fill="green" stroke="black" cx="2429.54" cy="-18" rx="101.28" ry="18"/>
<text text-anchor="middle" x="2429.54" y="-14.3" font-family="Times,serif" font-size="14.00">dra.func_8010E570</text>
</a>
</g>
</g>
<!-- dra.AlucardHandleDamage&#45;&gt;dra.func_8010E570 -->
<g id="edge12" class="edge">
<title>dra.AlucardHandleDamage&#45;&gt;dra.func_8010E570</title>
<path fill="none" stroke="black" d="M2229.73,-179.93C2269.6,-147.82 2355.8,-78.39 2400.83,-42.13"/>
<polygon fill="black" stroke="black" points="2403.15,-44.75 2408.74,-35.76 2398.76,-39.3 2403.15,-44.75"/>
<text text-anchor="middle" x="2403.74" y="-39.56" font-family="Times,serif" font-size="14.00">1</text>
</g>
<!-- dra.func_8010E7AC -->
<g id="node14" class="node">
<title>dra.func_8010E7AC</title>
<g id="a_node14"><a xlink:href="dra.func_8010E7AC.svg" xlink:title="dra.func_8010E7AC">
<ellipse fill="green" stroke="black" cx="2651.54" cy="-18" rx="102.88" ry="18"/>
<text text-anchor="middle" x="2651.54" y="-14.3" font-family="Times,serif" font-size="14.00">dra.func_8010E7AC</text>
</a>
</g>
</g>
<!-- dra.AlucardHandleDamage&#45;&gt;dra.func_8010E7AC -->
<g id="edge13" class="edge">
<title>dra.AlucardHandleDamage&#45;&gt;dra.func_8010E7AC</title>
<path fill="none" stroke="black" d="M2249.03,-180.73C2330.76,-147.89 2515.16,-73.8 2603.11,-38.46"/>
<polygon fill="black" stroke="black" points="2604.61,-41.63 2612.58,-34.66 2602,-35.14 2604.61,-41.63"/>
<text text-anchor="middle" x="2607.58" y="-38.46" font-family="Times,serif" font-size="14.00">1</text>
</g>
<!-- dra.func_8010FDF8 -->
<g id="node15" class="node">
<title>dra.func_8010FDF8</title>
<g id="a_node15"><a xlink:href="dra.func_8010FDF8.svg" xlink:title="dra.func_8010FDF8">
<ellipse fill="green" stroke="black" cx="2874.54" cy="-18" rx="102.88" ry="18"/>
<text text-anchor="middle" x="2874.54" y="-14.3" font-family="Times,serif" font-size="14.00">dra.func_8010FDF8</text>
</a>
</g>
</g>
<!-- dra.AlucardHandleDamage&#45;&gt;dra.func_8010FDF8 -->
<g id="edge14" class="edge">
<title>dra.AlucardHandleDamage&#45;&gt;dra.func_8010FDF8</title>
<path fill="none" stroke="black" d="M2265.9,-181.67C2389.83,-148.55 2681.79,-70.52 2811.06,-35.97"/>
<polygon fill="black" stroke="black" points="2812.07,-39.32 2820.82,-33.36 2810.26,-32.56 2812.07,-39.32"/>
<text text-anchor="middle" x="2815.82" y="-37.16" font-family="Times,serif" font-size="14.00">2</text>
</g>
<!-- dra.func_80111CC0 -->
<g id="node16" class="node">
<title>dra.func_80111CC0</title>
<g id="a_node16"><a xlink:href="dra.func_80111CC0.svg" xlink:title="dra.func_80111CC0">
<ellipse fill="green" stroke="black" cx="3097.54" cy="-18" rx="102.88" ry="18"/>
<text text-anchor="middle" x="3097.54" y="-14.3" font-family="Times,serif" font-size="14.00">dra.func_80111CC0</text>
</a>
</g>
</g>
<!-- dra.AlucardHandleDamage&#45;&gt;dra.func_80111CC0 -->
<g id="edge15" class="edge">
<title>dra.AlucardHandleDamage&#45;&gt;dra.func_80111CC0</title>
<path fill="none" stroke="black" d="M2280.17,-182.66C2445.78,-149.5 2853.92,-67.78 3022.66,-33.99"/>
<polygon fill="black" stroke="black" points="3023.58,-37.38 3032.7,-31.98 3022.21,-30.51 3023.58,-37.38"/>
<text text-anchor="middle" x="3027.7" y="-35.78" font-family="Times,serif" font-size="14.00">1</text>
</g>
<!-- dra.func_801139CC -->
<g id="node17" class="node">
<title>dra.func_801139CC</title>
<g id="a_node17"><a xlink:href="dra.func_801139CC.svg" xlink:title="dra.func_801139CC">
<ellipse fill="green" stroke="black" cx="3320.54" cy="-18" rx="102.88" ry="18"/>
<text text-anchor="middle" x="3320.54" y="-14.3" font-family="Times,serif" font-size="14.00">dra.func_801139CC</text>
</a>
</g>
</g>
<!-- dra.AlucardHandleDamage&#45;&gt;dra.func_801139CC -->
<g id="edge16" class="edge">
<title>dra.AlucardHandleDamage&#45;&gt;dra.func_801139CC</title>
<path fill="none" stroke="black" d="M2291.67,-183.69C2497.82,-150.7 3030.8,-65.38 3237.19,-32.34"/>
<polygon fill="black" stroke="black" points="3238.04,-35.75 3247.36,-30.71 3236.93,-28.84 3238.04,-35.75"/>
<text text-anchor="middle" x="3242.36" y="-34.51" font-family="Times,serif" font-size="14.00">2</text>
</g>
<!-- dra.func_80113D7C -->
<g id="node18" class="node">
<title>dra.func_80113D7C</title>
<g id="a_node18"><a xlink:href="dra.func_80113D7C.svg" xlink:title="dra.func_80113D7C">
<ellipse fill="green" stroke="black" cx="3543.54" cy="-18" rx="102.88" ry="18"/>
<text text-anchor="middle" x="3543.54" y="-14.3" font-family="Times,serif" font-size="14.00">dra.func_80113D7C</text>
</a>
</g>
</g>
<!-- dra.AlucardHandleDamage&#45;&gt;dra.func_80113D7C -->
<g id="edge17" class="edge">
<title>dra.AlucardHandleDamage&#45;&gt;dra.func_80113D7C</title>
<path fill="none" stroke="black" d="M2303.86,-185.16C2509.96,-159.41 3012.4,-95.8 3432.54,-36 3441.33,-34.75 3450.51,-33.41 3459.65,-32.04"/>
<polygon fill="black" stroke="black" points="3460.17,-35.5 3469.54,-30.56 3459.13,-28.58 3460.17,-35.5"/>
<text text-anchor="middle" x="3464.54" y="-34.36" font-family="Times,serif" font-size="14.00">1</text>
</g>
<!-- dra.func_80113E68 -->
<g id="node19" class="node">
<title>dra.func_80113E68</title>
<g id="a_node19"><a xlink:href="dra.func_80113E68.svg" xlink:title="dra.func_80113E68">
<ellipse fill="green" stroke="black" cx="3765.54" cy="-18" rx="101.28" ry="18"/>
<text text-anchor="middle" x="3765.54" y="-14.3" font-family="Times,serif" font-size="14.00">dra.func_80113E68</text>
</a>
</g>
</g>
<!-- dra.AlucardHandleDamage&#45;&gt;dra.func_80113E68 -->
<g id="edge18" class="edge">
<title>dra.AlucardHandleDamage&#45;&gt;dra.func_80113E68</title>
<path fill="none" stroke="black" d="M2314.93,-186.73C2554.62,-163.24 3155.04,-102.49 3655.54,-36 3664.48,-34.81 3673.81,-33.49 3683.09,-32.13"/>
<polygon fill="black" stroke="black" points="3683.75,-35.57 3693.12,-30.64 3682.72,-28.65 3683.75,-35.57"/>
<text text-anchor="middle" x="3688.12" y="-34.44" font-family="Times,serif" font-size="14.00">3</text>
</g>
<!-- dra.func_80113EE0 -->
<g id="node20" class="node">
<title>dra.func_80113EE0</title>
<g id="a_node20"><a xlink:href="dra.func_80113EE0.svg" xlink:title="dra.func_80113EE0">
<ellipse fill="green" stroke="black" cx="3987.54" cy="-18" rx="102.88" ry="18"/>
<text text-anchor="middle" x="3987.54" y="-14.3" font-family="Times,serif" font-size="14.00">dra.func_80113EE0</text>
</a>
</g>
</g>
<!-- dra.AlucardHandleDamage&#45;&gt;dra.func_80113EE0 -->
<g id="edge19" class="edge">
<title>dra.AlucardHandleDamage&#45;&gt;dra.func_80113EE0</title>
<path fill="none" stroke="black" d="M2322.47,-188.15C2592.61,-166.68 3293.05,-108.28 3875.54,-36 3884.89,-34.84 3894.65,-33.52 3904.36,-32.14"/>
<polygon fill="black" stroke="black" points="3905.03,-35.58 3914.42,-30.68 3904.03,-28.65 3905.03,-35.58"/>
<text text-anchor="middle" x="3909.42" y="-34.48" font-family="Times,serif" font-size="14.00">1</text>
</g>
<!-- dra.func_80113F7C -->
<g id="node21" class="node">
<title>dra.func_80113F7C</title>
<g id="a_node21"><a xlink:href="dra.func_80113F7C.svg" xlink:title="dra.func_80113F7C">
<ellipse fill="green" stroke="black" cx="4210.54" cy="-18" rx="102.08" ry="18"/>
<text text-anchor="middle" x="4210.54" y="-14.3" font-family="Times,serif" font-size="14.00">dra.func_80113F7C</text>
</a>
</g>
</g>
<!-- dra.AlucardHandleDamage&#45;&gt;dra.func_80113F7C -->
<g id="edge20" class="edge">
<title>dra.AlucardHandleDamage&#45;&gt;dra.func_80113F7C</title>
<path fill="none" stroke="black" d="M2328.85,-189.57C2628.58,-170.44 3432.51,-115.38 4099.54,-36 4108.88,-34.89 4118.64,-33.59 4128.34,-32.22"/>
<polygon fill="black" stroke="black" points="4128.99,-35.66 4138.39,-30.77 4127.99,-28.73 4128.99,-35.66"/>
<text text-anchor="middle" x="4133.39" y="-34.57" font-family="Times,serif" font-size="14.00">2</text>
</g>
<!-- rand -->
<g id="node22" class="node">
<title>rand</title>
<g id="a_node22"><a xlink:href="rand.svg" xlink:title="rand">
<ellipse fill="lightblue" stroke="black" cx="4363.54" cy="-18" rx="32.49" ry="18"/>
<text text-anchor="middle" x="4363.54" y="-14.3" font-family="Times,serif" font-size="14.00">rand</text>
</a>
</g>
</g>
<!-- dra.AlucardHandleDamage&#45;&gt;rand -->
<g id="edge21" class="edge">
<title>dra.AlucardHandleDamage&#45;&gt;rand</title>
<path fill="none" stroke="black" d="M2337.87,-192.36C2736.29,-177.26 3940.97,-125.24 4321.54,-36 4324.34,-35.34 4327.2,-34.53 4330.04,-33.61"/>
<polygon fill="black" stroke="black" points="4331.31,-36.88 4339.53,-30.2 4328.93,-30.29 4331.31,-36.88"/>
<text text-anchor="middle" x="4334.53" y="-34" font-family="Times,serif" font-size="14.00">5</text>
</g>
<!-- dra.EntityAlucard -->
<g id="node23" class="node">
<title>dra.EntityAlucard</title>
<g id="a_node23"><a xlink:href="dra.EntityAlucard.svg" xlink:title="dra.EntityAlucard">
<ellipse fill="green" stroke="black" cx="2208.54" cy="-378" rx="93.68" ry="18"/>
<text text-anchor="middle" x="2208.54" y="-374.3" font-family="Times,serif" font-size="14.00">dra.EntityAlucard</text>
</a>
</g>
</g>
<!-- dra.EntityAlucard&#45;&gt;dra.AlucardHandleDamage -->
<g id="edge22" class="edge">
<title>dra.EntityAlucard&#45;&gt;dra.AlucardHandleDamage</title>
<path fill="none" stroke="black" d="M2208.54,-359.93C2208.54,-328.97 2208.54,-263.3 2208.54,-226.13"/>
<polygon fill="black" stroke="black" points="2212.04,-226.02 2208.54,-216.02 2205.04,-226.02 2212.04,-226.02"/>
<text text-anchor="middle" x="2203.54" y="-348.73" font-family="Times,serif" font-size="14.00">1</text>
</g>
</g>
</svg>
