<?xml version="1.0" encoding="UTF-8" standalone="no"?>
<!DOCTYPE svg PUBLIC "-//W3C//DTD SVG 1.1//EN"
 "http://www.w3.org/Graphics/SVG/1.1/DTD/svg11.dtd">
<!-- Generated by graphviz version 2.43.0 (0)
 -->
<!-- Title: dra.func_800EDB08 Pages: 1 -->
<svg width="661pt" height="224pt"
 viewBox="0.00 0.00 661.43 224.00" xmlns="http://www.w3.org/2000/svg" xmlns:xlink="http://www.w3.org/1999/xlink">
<g id="graph0" class="graph" transform="scale(1 1) rotate(0) translate(4 220)">
<title>dra.func_800EDB08</title>
<polygon fill="white" stroke="transparent" points="-4,4 -4,-220 657.43,-220 657.43,4 -4,4"/>
<!-- dra.func_800EDB08 -->
<g id="node1" class="node">
<title>dra.func_800EDB08</title>
<ellipse fill="green" stroke="black" cx="339.39" cy="-18" rx="103.98" ry="18"/>
<text text-anchor="middle" x="339.39" y="-14.3" font-family="Times,serif" font-size="14.00">dra.func_800EDB08</text>
</g>
<!-- dra.func_801093C4 -->
<g id="node2" class="node">
<title>dra.func_801093C4</title>
<g id="a_node2"><a xlink:href="dra.func_801093C4.svg" xlink:title="dra.func_801093C4">
<ellipse fill="green" stroke="black" cx="101.39" cy="-198" rx="101.28" ry="18"/>
<text text-anchor="middle" x="101.39" y="-194.3" font-family="Times,serif" font-size="14.00">dra.func_801093C4</text>
</a>
</g>
</g>
<!-- dra.func_801093C4&#45;&gt;dra.func_800EDB08 -->
<g id="edge1" class="edge">
<title>dra.func_801093C4&#45;&gt;dra.func_800EDB08</title>
<path fill="none" stroke="black" d="M123.78,-180.25C166.57,-148.25 260.03,-78.36 308.64,-42"/>
<polygon fill="black" stroke="black" points="310.97,-44.62 316.89,-35.83 306.78,-39.02 310.97,-44.62"/>
<text text-anchor="middle" x="118.78" y="-169.05" font-family="Times,serif" font-size="14.00">2</text>
</g>
<!-- no0.func_us_801D9264 -->
<g id="node3" class="node">
<title>no0.func_us_801D9264</title>
<g id="a_node3"><a xlink:href="no0.func_us_801D9264.svg" xlink:title="no0.func_us_801D9264">
<ellipse fill="red" stroke="black" cx="339.39" cy="-198" rx="118.08" ry="18"/>
<text text-anchor="middle" x="339.39" y="-194.3" font-family="Times,serif" font-size="14.00">no0.func_us_801D9264</text>
</a>
</g>
</g>
<!-- no0.func_us_801D9264&#45;&gt;dra.func_800EDB08 -->
<g id="edge2" class="edge">
<title>no0.func_us_801D9264&#45;&gt;dra.func_800EDB08</title>
<path fill="none" stroke="black" d="M339.39,-179.93C339.39,-148.97 339.39,-83.3 339.39,-46.13"/>
<polygon fill="black" stroke="black" points="342.89,-46.02 339.39,-36.02 335.89,-46.02 342.89,-46.02"/>
<text text-anchor="middle" x="334.39" y="-168.73" font-family="Times,serif" font-size="14.00">2</text>
</g>
<!-- no3..L801CFFC4 -->
<g id="node4" class="node">
<title>no3..L801CFFC4</title>
<g id="a_node4"><a xlink:href="no3..L801CFFC4.svg" xlink:title="no3..L801CFFC4">
<ellipse fill="green" stroke="black" cx="564.39" cy="-198" rx="89.08" ry="18"/>
<text text-anchor="middle" x="564.39" y="-194.3" font-family="Times,serif" font-size="14.00">no3..L801CFFC4</text>
</a>
</g>
</g>
<!-- no3..L801CFFC4&#45;&gt;dra.func_800EDB08 -->
<g id="edge3" class="edge">
<title>no3..L801CFFC4&#45;&gt;dra.func_800EDB08</title>
<path fill="none" stroke="black" d="M543.22,-180.25C502.85,-148.32 414.79,-78.65 368.75,-42.23"/>
<polygon fill="black" stroke="black" points="370.68,-39.29 360.67,-35.83 366.34,-44.78 370.68,-39.29"/>
<text text-anchor="middle" x="538.22" y="-169.05" font-family="Times,serif" font-size="14.00">2</text>
</g>
</g>
</svg>
