<?xml version="1.0" encoding="UTF-8" standalone="no"?>
<!DOCTYPE svg PUBLIC "-//W3C//DTD SVG 1.1//EN"
 "http://www.w3.org/Graphics/SVG/1.1/DTD/svg11.dtd">
<!-- Generated by graphviz version 2.43.0 (0)
 -->
<!-- Title: dra.func_800EA5AC Pages: 1 -->
<svg width="619pt" height="224pt"
 viewBox="0.00 0.00 619.23 224.00" xmlns="http://www.w3.org/2000/svg" xmlns:xlink="http://www.w3.org/1999/xlink">
<g id="graph0" class="graph" transform="scale(1 1) rotate(0) translate(4 220)">
<title>dra.func_800EA5AC</title>
<polygon fill="white" stroke="transparent" points="-4,4 -4,-220 615.23,-220 615.23,4 -4,4"/>
<!-- dra.func_800EA5AC -->
<g id="node1" class="node">
<title>dra.func_800EA5AC</title>
<ellipse fill="green" stroke="black" cx="285.54" cy="-18" rx="103.18" ry="18"/>
<text text-anchor="middle" x="285.54" y="-14.3" font-family="Times,serif" font-size="14.00">dra.func_800EA5AC</text>
</g>
<!-- dra.HandlePlay -->
<g id="node2" class="node">
<title>dra.HandlePlay</title>
<g id="a_node2"><a xlink:href="dra.HandlePlay.svg" xlink:title="dra.HandlePlay">
<ellipse fill="green" stroke="black" cx="82.54" cy="-198" rx="82.59" ry="18"/>
<text text-anchor="middle" x="82.54" y="-194.3" font-family="Times,serif" font-size="14.00">dra.HandlePlay</text>
</a>
</g>
</g>
<!-- dra.HandlePlay&#45;&gt;dra.func_800EA5AC -->
<g id="edge1" class="edge">
<title>dra.HandlePlay&#45;&gt;dra.func_800EA5AC</title>
<path fill="none" stroke="black" d="M101.64,-180.25C137.99,-148.38 217.19,-78.94 258.79,-42.45"/>
<polygon fill="black" stroke="black" points="261.14,-45.06 266.35,-35.83 256.52,-39.79 261.14,-45.06"/>
<text text-anchor="middle" x="96.64" y="-169.05" font-family="Times,serif" font-size="14.00">1</text>
</g>
<!-- dra.func_800F298C -->
<g id="node3" class="node">
<title>dra.func_800F298C</title>
<g id="a_node3"><a xlink:href="dra.func_800F298C.svg" xlink:title="dra.func_800F298C">
<ellipse fill="green" stroke="black" cx="285.54" cy="-198" rx="102.08" ry="18"/>
<text text-anchor="middle" x="285.54" y="-194.3" font-family="Times,serif" font-size="14.00">dra.func_800F298C</text>
</a>
</g>
</g>
<!-- dra.func_800F298C&#45;&gt;dra.func_800EA5AC -->
<g id="edge2" class="edge">
<title>dra.func_800F298C&#45;&gt;dra.func_800EA5AC</title>
<path fill="none" stroke="black" d="M285.54,-179.93C285.54,-148.97 285.54,-83.3 285.54,-46.13"/>
<polygon fill="black" stroke="black" points="289.04,-46.02 285.54,-36.02 282.04,-46.02 289.04,-46.02"/>
<text text-anchor="middle" x="280.54" y="-168.73" font-family="Times,serif" font-size="14.00">5</text>
</g>
<!-- dra.func_8011A4D0 -->
<g id="node4" class="node">
<title>dra.func_8011A4D0</title>
<g id="a_node4"><a xlink:href="dra.func_8011A4D0.svg" xlink:title="dra.func_8011A4D0">
<ellipse fill="green" stroke="black" cx="508.54" cy="-198" rx="102.88" ry="18"/>
<text text-anchor="middle" x="508.54" y="-194.3" font-family="Times,serif" font-size="14.00">dra.func_8011A4D0</text>
</a>
</g>
</g>
<!-- dra.func_8011A4D0&#45;&gt;dra.func_800EA5AC -->
<g id="edge3" class="edge">
<title>dra.func_8011A4D0&#45;&gt;dra.func_800EA5AC</title>
<path fill="none" stroke="black" d="M487.56,-180.25C447.55,-148.32 360.27,-78.65 314.64,-42.23"/>
<polygon fill="black" stroke="black" points="316.63,-39.33 306.63,-35.83 312.26,-44.8 316.63,-39.33"/>
<text text-anchor="middle" x="482.56" y="-169.05" font-family="Times,serif" font-size="14.00">1</text>
</g>
</g>
</svg>
