<?xml version="1.0" encoding="UTF-8" standalone="no"?>
<!DOCTYPE svg PUBLIC "-//W3C//DTD SVG 1.1//EN"
 "http://www.w3.org/Graphics/SVG/1.1/DTD/svg11.dtd">
<!-- Generated by graphviz version 2.43.0 (0)
 -->
<!-- Title: dra.func_8011A4D0 Pages: 1 -->
<svg width="1015pt" height="404pt"
 viewBox="0.00 0.00 1015.39 404.00" xmlns="http://www.w3.org/2000/svg" xmlns:xlink="http://www.w3.org/1999/xlink">
<g id="graph0" class="graph" transform="scale(1 1) rotate(0) translate(4 400)">
<title>dra.func_8011A4D0</title>
<polygon fill="white" stroke="transparent" points="-4,4 -4,-400 1011.39,-400 1011.39,4 -4,4"/>
<!-- dra.func_8011A4D0 -->
<g id="node1" class="node">
<title>dra.func_8011A4D0</title>
<ellipse fill="green" stroke="black" cx="496.05" cy="-198" rx="102.88" ry="18"/>
<text text-anchor="middle" x="496.05" y="-194.3" font-family="Times,serif" font-size="14.00">dra.func_8011A4D0</text>
</g>
<!-- FntPrint -->
<g id="node2" class="node">
<title>FntPrint</title>
<g id="a_node2"><a xlink:href="FntPrint.svg" xlink:title="FntPrint">
<ellipse fill="lightblue" stroke="black" cx="50.05" cy="-18" rx="50.09" ry="18"/>
<text text-anchor="middle" x="50.05" y="-14.3" font-family="Times,serif" font-size="14.00">FntPrint</text>
</a>
</g>
</g>
<!-- dra.func_8011A4D0&#45;&gt;FntPrint -->
<g id="edge1" class="edge">
<title>dra.func_8011A4D0&#45;&gt;FntPrint</title>
<path fill="none" stroke="black" d="M456.86,-181.36C373.14,-147.95 177.53,-69.88 91.68,-35.62"/>
<polygon fill="black" stroke="black" points="92.84,-32.31 82.26,-31.86 90.25,-38.81 92.84,-32.31"/>
<text text-anchor="middle" x="77.26" y="-35.66" font-family="Times,serif" font-size="14.00">1</text>
</g>
<!-- UnknownpfnEntityUpdate -->
<g id="node3" class="node">
<title>UnknownpfnEntityUpdate</title>
<g id="a_node3"><a xlink:href="UnknownpfnEntityUpdate.svg" xlink:title="UnknownpfnEntityUpdate">
<ellipse fill="lightblue" stroke="black" cx="251.05" cy="-18" rx="132.68" ry="18"/>
<text text-anchor="middle" x="251.05" y="-14.3" font-family="Times,serif" font-size="14.00">UnknownpfnEntityUpdate</text>
</a>
</g>
</g>
<!-- dra.func_8011A4D0&#45;&gt;UnknownpfnEntityUpdate -->
<g id="edge2" class="edge">
<title>dra.func_8011A4D0&#45;&gt;UnknownpfnEntityUpdate</title>
<path fill="none" stroke="black" d="M473,-180.25C428.86,-148.18 332.35,-78.07 282.39,-41.78"/>
<polygon fill="black" stroke="black" points="284.36,-38.88 274.21,-35.83 280.24,-44.54 284.36,-38.88"/>
<text text-anchor="middle" x="269.21" y="-39.63" font-family="Times,serif" font-size="14.00">1</text>
</g>
<!-- dra.DestroyEntity -->
<g id="node4" class="node">
<title>dra.DestroyEntity</title>
<g id="a_node4"><a xlink:href="dra.DestroyEntity.svg" xlink:title="dra.DestroyEntity">
<ellipse fill="green" stroke="black" cx="496.05" cy="-18" rx="94.78" ry="18"/>
<text text-anchor="middle" x="496.05" y="-14.3" font-family="Times,serif" font-size="14.00">dra.DestroyEntity</text>
</a>
</g>
</g>
<!-- dra.func_8011A4D0&#45;&gt;dra.DestroyEntity -->
<g id="edge3" class="edge">
<title>dra.func_8011A4D0&#45;&gt;dra.DestroyEntity</title>
<path fill="none" stroke="black" d="M496.05,-179.93C496.05,-148.97 496.05,-83.3 496.05,-46.13"/>
<polygon fill="black" stroke="black" points="499.55,-46.02 496.05,-36.02 492.55,-46.02 499.55,-46.02"/>
<text text-anchor="middle" x="491.05" y="-39.82" font-family="Times,serif" font-size="14.00">1</text>
</g>
<!-- dra.UpdateAnim -->
<g id="node5" class="node">
<title>dra.UpdateAnim</title>
<g id="a_node5"><a xlink:href="dra.UpdateAnim.svg" xlink:title="dra.UpdateAnim">
<ellipse fill="green" stroke="black" cx="696.05" cy="-18" rx="87.18" ry="18"/>
<text text-anchor="middle" x="696.05" y="-14.3" font-family="Times,serif" font-size="14.00">dra.UpdateAnim</text>
</a>
</g>
</g>
<!-- dra.func_8011A4D0&#45;&gt;dra.UpdateAnim -->
<g id="edge4" class="edge">
<title>dra.func_8011A4D0&#45;&gt;dra.UpdateAnim</title>
<path fill="none" stroke="black" d="M514.86,-180.25C550.6,-148.45 628.38,-79.22 669.44,-42.68"/>
<polygon fill="black" stroke="black" points="671.99,-45.09 677.13,-35.83 667.34,-39.86 671.99,-45.09"/>
<text text-anchor="middle" x="672.13" y="-39.63" font-family="Times,serif" font-size="14.00">1</text>
</g>
<!-- dra.func_800EA5AC -->
<g id="node6" class="node">
<title>dra.func_800EA5AC</title>
<g id="a_node6"><a xlink:href="dra.func_800EA5AC.svg" xlink:title="dra.func_800EA5AC">
<ellipse fill="green" stroke="black" cx="904.05" cy="-18" rx="103.18" ry="18"/>
<text text-anchor="middle" x="904.05" y="-14.3" font-family="Times,serif" font-size="14.00">dra.func_800EA5AC</text>
</a>
</g>
</g>
<!-- dra.func_8011A4D0&#45;&gt;dra.func_800EA5AC -->
<g id="edge5" class="edge">
<title>dra.func_8011A4D0&#45;&gt;dra.func_800EA5AC</title>
<path fill="none" stroke="black" d="M532.61,-181.05C607.14,-148.53 776.44,-74.67 858.18,-39.01"/>
<polygon fill="black" stroke="black" points="859.94,-42.06 867.71,-34.85 857.14,-35.64 859.94,-42.06"/>
<text text-anchor="middle" x="862.71" y="-38.65" font-family="Times,serif" font-size="14.00">1</text>
</g>
<!-- dra.RunMainEngine -->
<g id="node7" class="node">
<title>dra.RunMainEngine</title>
<g id="a_node7"><a xlink:href="dra.RunMainEngine.svg" xlink:title="dra.RunMainEngine">
<ellipse fill="green" stroke="black" cx="496.05" cy="-378" rx="103.98" ry="18"/>
<text text-anchor="middle" x="496.05" y="-374.3" font-family="Times,serif" font-size="14.00">dra.RunMainEngine</text>
</a>
</g>
</g>
<!-- dra.RunMainEngine&#45;&gt;dra.func_8011A4D0 -->
<g id="edge6" class="edge">
<title>dra.RunMainEngine&#45;&gt;dra.func_8011A4D0</title>
<path fill="none" stroke="black" d="M496.05,-359.93C496.05,-328.97 496.05,-263.3 496.05,-226.13"/>
<polygon fill="black" stroke="black" points="499.55,-226.02 496.05,-216.02 492.55,-226.02 499.55,-226.02"/>
<text text-anchor="middle" x="491.05" y="-348.73" font-family="Times,serif" font-size="14.00">2</text>
</g>
</g>
</svg>
