<?xml version="1.0" encoding="UTF-8" standalone="no"?>
<!DOCTYPE svg PUBLIC "-//W3C//DTD SVG 1.1//EN"
 "http://www.w3.org/Graphics/SVG/1.1/DTD/svg11.dtd">
<!-- Generated by graphviz version 2.43.0 (0)
 -->
<!-- Title: dra.EntityLevelUpAnimation Pages: 1 -->
<svg width="1065pt" height="224pt"
 viewBox="0.00 0.00 1065.04 224.00" xmlns="http://www.w3.org/2000/svg" xmlns:xlink="http://www.w3.org/1999/xlink">
<g id="graph0" class="graph" transform="scale(1 1) rotate(0) translate(4 220)">
<title>dra.EntityLevelUpAnimation</title>
<polygon fill="white" stroke="transparent" points="-4,4 -4,-220 1061.04,-220 1061.04,4 -4,4"/>
<!-- dra.EntityLevelUpAnimation -->
<g id="node1" class="node">
<title>dra.EntityLevelUpAnimation</title>
<ellipse fill="green" stroke="black" cx="749.44" cy="-198" rx="143.77" ry="18"/>
<text text-anchor="middle" x="749.44" y="-194.3" font-family="Times,serif" font-size="14.00">dra.EntityLevelUpAnimation</text>
</g>
<!-- dra.AllocPrimitives -->
<g id="node2" class="node">
<title>dra.AllocPrimitives</title>
<g id="a_node2"><a xlink:href="dra.AllocPrimitives.svg" xlink:title="dra.AllocPrimitives">
<ellipse fill="green" stroke="black" cx="99.44" cy="-18" rx="99.38" ry="18"/>
<text text-anchor="middle" x="99.44" y="-14.3" font-family="Times,serif" font-size="14.00">dra.AllocPrimitives</text>
</a>
</g>
</g>
<!-- dra.EntityLevelUpAnimation&#45;&gt;dra.AllocPrimitives -->
<g id="edge1" class="edge">
<title>dra.EntityLevelUpAnimation&#45;&gt;dra.AllocPrimitives</title>
<path fill="none" stroke="black" d="M692.61,-181.44C571.39,-148.24 288.23,-70.7 162.05,-36.14"/>
<polygon fill="black" stroke="black" points="162.71,-32.7 152.15,-33.43 160.87,-39.45 162.71,-32.7"/>
<text text-anchor="middle" x="147.15" y="-37.23" font-family="Times,serif" font-size="14.00">1</text>
</g>
<!-- dra.CreateEntFactoryFromEntity -->
<g id="node3" class="node">
<title>dra.CreateEntFactoryFromEntity</title>
<g id="a_node3"><a xlink:href="dra.CreateEntFactoryFromEntity.svg" xlink:title="dra.CreateEntFactoryFromEntity">
<ellipse fill="green" stroke="black" cx="382.44" cy="-18" rx="165.97" ry="18"/>
<text text-anchor="middle" x="382.44" y="-14.3" font-family="Times,serif" font-size="14.00">dra.CreateEntFactoryFromEntity</text>
</a>
</g>
</g>
<!-- dra.EntityLevelUpAnimation&#45;&gt;dra.CreateEntFactoryFromEntity -->
<g id="edge2" class="edge">
<title>dra.EntityLevelUpAnimation&#45;&gt;dra.CreateEntFactoryFromEntity</title>
<path fill="none" stroke="black" d="M715.24,-180.41C648.27,-147.93 499.9,-75.97 426.01,-40.13"/>
<polygon fill="black" stroke="black" points="427.48,-36.95 416.95,-35.74 424.42,-43.25 427.48,-36.95"/>
<text text-anchor="middle" x="411.95" y="-39.54" font-family="Times,serif" font-size="14.00">2</text>
</g>
<!-- dra.DestroyEntity -->
<g id="node4" class="node">
<title>dra.DestroyEntity</title>
<g id="a_node4"><a xlink:href="dra.DestroyEntity.svg" xlink:title="dra.DestroyEntity">
<ellipse fill="green" stroke="black" cx="661.44" cy="-18" rx="94.78" ry="18"/>
<text text-anchor="middle" x="661.44" y="-14.3" font-family="Times,serif" font-size="14.00">dra.DestroyEntity</text>
</a>
</g>
</g>
<!-- dra.EntityLevelUpAnimation&#45;&gt;dra.DestroyEntity -->
<g id="edge3" class="edge">
<title>dra.EntityLevelUpAnimation&#45;&gt;dra.DestroyEntity</title>
<path fill="none" stroke="black" d="M741,-179.93C725.56,-148.7 692.67,-82.17 674.38,-45.18"/>
<polygon fill="black" stroke="black" points="677.42,-43.43 669.85,-36.02 671.15,-46.53 677.42,-43.43"/>
<text text-anchor="middle" x="664.85" y="-39.82" font-family="Times,serif" font-size="14.00">1</text>
</g>
<!-- dra.PlaySfx -->
<g id="node5" class="node">
<title>dra.PlaySfx</title>
<g id="a_node5"><a xlink:href="dra.PlaySfx.svg" xlink:title="dra.PlaySfx">
<ellipse fill="green" stroke="black" cx="838.44" cy="-18" rx="64.19" ry="18"/>
<text text-anchor="middle" x="838.44" y="-14.3" font-family="Times,serif" font-size="14.00">dra.PlaySfx</text>
</a>
</g>
</g>
<!-- dra.EntityLevelUpAnimation&#45;&gt;dra.PlaySfx -->
<g id="edge4" class="edge">
<title>dra.EntityLevelUpAnimation&#45;&gt;dra.PlaySfx</title>
<path fill="none" stroke="black" d="M757.97,-179.93C773.59,-148.7 806.86,-82.17 825.35,-45.18"/>
<polygon fill="black" stroke="black" points="828.59,-46.53 829.93,-36.02 822.33,-43.39 828.59,-46.53"/>
<text text-anchor="middle" x="824.93" y="-39.82" font-family="Times,serif" font-size="14.00">1</text>
</g>
<!-- rcos -->
<g id="node6" class="node">
<title>rcos</title>
<g id="a_node6"><a xlink:href="rcos.svg" xlink:title="rcos">
<ellipse fill="lightblue" stroke="black" cx="951.44" cy="-18" rx="30.59" ry="18"/>
<text text-anchor="middle" x="951.44" y="-14.3" font-family="Times,serif" font-size="14.00">rcos</text>
</a>
</g>
</g>
<!-- dra.EntityLevelUpAnimation&#45;&gt;rcos -->
<g id="edge5" class="edge">
<title>dra.EntityLevelUpAnimation&#45;&gt;rcos</title>
<path fill="none" stroke="black" d="M768.81,-179.93C805.93,-147.22 887,-75.78 927.47,-40.12"/>
<polygon fill="black" stroke="black" points="929.81,-42.73 934.99,-33.49 925.18,-37.48 929.81,-42.73"/>
<text text-anchor="middle" x="929.99" y="-37.29" font-family="Times,serif" font-size="14.00">2</text>
</g>
<!-- rsin -->
<g id="node7" class="node">
<title>rsin</title>
<g id="a_node7"><a xlink:href="rsin.svg" xlink:title="rsin">
<ellipse fill="lightblue" stroke="black" cx="1028.44" cy="-18" rx="28.7" ry="18"/>
<text text-anchor="middle" x="1028.44" y="-14.3" font-family="Times,serif" font-size="14.00">rsin</text>
</a>
</g>
</g>
<!-- dra.EntityLevelUpAnimation&#45;&gt;rsin -->
<g id="edge6" class="edge">
<title>dra.EntityLevelUpAnimation&#45;&gt;rsin</title>
<path fill="none" stroke="black" d="M775.69,-180.25C828.26,-146.71 946.08,-71.55 1000.23,-37"/>
<polygon fill="black" stroke="black" points="1002.42,-39.75 1008.97,-31.42 998.65,-33.85 1002.42,-39.75"/>
<text text-anchor="middle" x="1003.97" y="-35.22" font-family="Times,serif" font-size="14.00">2</text>
</g>
</g>
</svg>
