<?xml version="1.0" encoding="UTF-8" standalone="no"?>
<!DOCTYPE svg PUBLIC "-//W3C//DTD SVG 1.1//EN"
 "http://www.w3.org/Graphics/SVG/1.1/DTD/svg11.dtd">
<!-- Generated by graphviz version 2.43.0 (0)
 -->
<!-- Title: dra.func_8012CC30 Pages: 1 -->
<svg width="1327pt" height="404pt"
 viewBox="0.00 0.00 1327.43 404.00" xmlns="http://www.w3.org/2000/svg" xmlns:xlink="http://www.w3.org/1999/xlink">
<g id="graph0" class="graph" transform="scale(1 1) rotate(0) translate(4 400)">
<title>dra.func_8012CC30</title>
<polygon fill="white" stroke="transparent" points="-4,4 -4,-400 1323.43,-400 1323.43,4 -4,4"/>
<!-- dra.func_8012CC30 -->
<g id="node1" class="node">
<title>dra.func_8012CC30</title>
<ellipse fill="green" stroke="black" cx="662.04" cy="-198" rx="102.88" ry="18"/>
<text text-anchor="middle" x="662.04" y="-194.3" font-family="Times,serif" font-size="14.00">dra.func_8012CC30</text>
</g>
<!-- dra.CastSpell -->
<g id="node2" class="node">
<title>dra.CastSpell</title>
<g id="a_node2"><a xlink:href="dra.CastSpell.svg" xlink:title="dra.CastSpell">
<ellipse fill="green" stroke="black" cx="208.04" cy="-18" rx="73.39" ry="18"/>
<text text-anchor="middle" x="208.04" y="-14.3" font-family="Times,serif" font-size="14.00">dra.CastSpell</text>
</a>
</g>
</g>
<!-- dra.func_8012CC30&#45;&gt;dra.CastSpell -->
<g id="edge1" class="edge">
<title>dra.func_8012CC30&#45;&gt;dra.CastSpell</title>
<path fill="none" stroke="black" d="M622.15,-181.36C538.22,-148.46 343.8,-72.23 254.46,-37.2"/>
<polygon fill="black" stroke="black" points="255.71,-33.93 245.13,-33.54 253.16,-40.45 255.71,-33.93"/>
<text text-anchor="middle" x="240.13" y="-37.34" font-family="Times,serif" font-size="14.00">1</text>
</g>
<!-- dra.IsRelicActive -->
<g id="node3" class="node">
<title>dra.IsRelicActive</title>
<g id="a_node3"><a xlink:href="dra.IsRelicActive.svg" xlink:title="dra.IsRelicActive">
<ellipse fill="green" stroke="black" cx="388.04" cy="-18" rx="89.08" ry="18"/>
<text text-anchor="middle" x="388.04" y="-14.3" font-family="Times,serif" font-size="14.00">dra.IsRelicActive</text>
</a>
</g>
</g>
<!-- dra.func_8012CC30&#45;&gt;dra.IsRelicActive -->
<g id="edge2" class="edge">
<title>dra.func_8012CC30&#45;&gt;dra.IsRelicActive</title>
<path fill="none" stroke="black" d="M636.26,-180.25C586.44,-147.89 476.96,-76.77 421.56,-40.78"/>
<polygon fill="black" stroke="black" points="423.45,-37.83 413.15,-35.31 419.63,-43.7 423.45,-37.83"/>
<text text-anchor="middle" x="408.15" y="-39.11" font-family="Times,serif" font-size="14.00">1</text>
</g>
<!-- dra.LearnSpell -->
<g id="node4" class="node">
<title>dra.LearnSpell</title>
<g id="a_node4"><a xlink:href="dra.LearnSpell.svg" xlink:title="dra.LearnSpell">
<ellipse fill="green" stroke="black" cx="574.04" cy="-18" rx="79.09" ry="18"/>
<text text-anchor="middle" x="574.04" y="-14.3" font-family="Times,serif" font-size="14.00">dra.LearnSpell</text>
</a>
</g>
</g>
<!-- dra.func_8012CC30&#45;&gt;dra.LearnSpell -->
<g id="edge3" class="edge">
<title>dra.func_8012CC30&#45;&gt;dra.LearnSpell</title>
<path fill="none" stroke="black" d="M653.6,-179.93C638.16,-148.7 605.27,-82.17 586.98,-45.18"/>
<polygon fill="black" stroke="black" points="590.02,-43.43 582.45,-36.02 583.75,-46.53 590.02,-43.43"/>
<text text-anchor="middle" x="577.45" y="-39.82" font-family="Times,serif" font-size="14.00">1</text>
</g>
<!-- dra.SetSpeedX -->
<g id="node5" class="node">
<title>dra.SetSpeedX</title>
<g id="a_node5"><a xlink:href="dra.SetSpeedX.svg" xlink:title="dra.SetSpeedX">
<ellipse fill="green" stroke="black" cx="751.04" cy="-18" rx="79.89" ry="18"/>
<text text-anchor="middle" x="751.04" y="-14.3" font-family="Times,serif" font-size="14.00">dra.SetSpeedX</text>
</a>
</g>
</g>
<!-- dra.func_8012CC30&#45;&gt;dra.SetSpeedX -->
<g id="edge4" class="edge">
<title>dra.func_8012CC30&#45;&gt;dra.SetSpeedX</title>
<path fill="none" stroke="black" d="M670.57,-179.93C686.19,-148.7 719.46,-82.17 737.95,-45.18"/>
<polygon fill="black" stroke="black" points="741.19,-46.53 742.53,-36.02 734.93,-43.39 741.19,-46.53"/>
<text text-anchor="middle" x="737.53" y="-39.82" font-family="Times,serif" font-size="14.00">1</text>
</g>
<!-- dra.func_8010DA48 -->
<g id="node6" class="node">
<title>dra.func_8010DA48</title>
<g id="a_node6"><a xlink:href="dra.func_8010DA48.svg" xlink:title="dra.func_8010DA48">
<ellipse fill="green" stroke="black" cx="952.04" cy="-18" rx="102.88" ry="18"/>
<text text-anchor="middle" x="952.04" y="-14.3" font-family="Times,serif" font-size="14.00">dra.func_8010DA48</text>
</a>
</g>
</g>
<!-- dra.func_8012CC30&#45;&gt;dra.func_8010DA48 -->
<g id="edge5" class="edge">
<title>dra.func_8012CC30&#45;&gt;dra.func_8010DA48</title>
<path fill="none" stroke="black" d="M688.8,-180.57C741.35,-148.32 858.01,-76.72 916.77,-40.65"/>
<polygon fill="black" stroke="black" points="918.65,-43.6 925.34,-35.39 914.99,-37.64 918.65,-43.6"/>
<text text-anchor="middle" x="920.34" y="-39.19" font-family="Times,serif" font-size="14.00">1</text>
</g>
<!-- dra.func_8010E27C -->
<g id="node7" class="node">
<title>dra.func_8010E27C</title>
<g id="a_node7"><a xlink:href="dra.func_8010E27C.svg" xlink:title="dra.func_8010E27C">
<ellipse fill="green" stroke="black" cx="1175.04" cy="-18" rx="102.88" ry="18"/>
<text text-anchor="middle" x="1175.04" y="-14.3" font-family="Times,serif" font-size="14.00">dra.func_8010E27C</text>
</a>
</g>
</g>
<!-- dra.func_8012CC30&#45;&gt;dra.func_8010E27C -->
<g id="edge6" class="edge">
<title>dra.func_8012CC30&#45;&gt;dra.func_8010E27C</title>
<path fill="none" stroke="black" d="M706.22,-181.67C800.16,-149.07 1019.46,-72.98 1121.3,-37.65"/>
<polygon fill="black" stroke="black" points="1122.48,-40.94 1130.78,-34.36 1120.19,-34.33 1122.48,-40.94"/>
<text text-anchor="middle" x="1125.78" y="-38.16" font-family="Times,serif" font-size="14.00">1</text>
</g>
<!-- dra.func_8012D024 -->
<g id="node8" class="node">
<title>dra.func_8012D024</title>
<g id="a_node8"><a xlink:href="dra.func_8012D024.svg" xlink:title="dra.func_8012D024">
<ellipse fill="green" stroke="black" cx="102.04" cy="-378" rx="102.08" ry="18"/>
<text text-anchor="middle" x="102.04" y="-374.3" font-family="Times,serif" font-size="14.00">dra.func_8012D024</text>
</a>
</g>
</g>
<!-- dra.func_8012D024&#45;&gt;dra.func_8012CC30 -->
<g id="edge7" class="edge">
<title>dra.func_8012D024&#45;&gt;dra.func_8012CC30</title>
<path fill="none" stroke="black" d="M149.3,-361.98C251.82,-329.39 494.27,-252.33 605.04,-217.12"/>
<polygon fill="black" stroke="black" points="606.24,-220.41 614.71,-214.05 604.12,-213.74 606.24,-220.41"/>
<text text-anchor="middle" x="144.3" y="-350.78" font-family="Times,serif" font-size="14.00">1</text>
</g>
<!-- dra.func_8012D3E8 -->
<g id="node9" class="node">
<title>dra.func_8012D3E8</title>
<g id="a_node9"><a xlink:href="dra.func_8012D3E8.svg" xlink:title="dra.func_8012D3E8">
<ellipse fill="green" stroke="black" cx="325.04" cy="-378" rx="102.88" ry="18"/>
<text text-anchor="middle" x="325.04" y="-374.3" font-family="Times,serif" font-size="14.00">dra.func_8012D3E8</text>
</a>
</g>
</g>
<!-- dra.func_8012D3E8&#45;&gt;dra.func_8012CC30 -->
<g id="edge8" class="edge">
<title>dra.func_8012D3E8&#45;&gt;dra.func_8012CC30</title>
<path fill="none" stroke="black" d="M355.84,-360.73C416.98,-328.44 553.65,-256.25 621.8,-220.25"/>
<polygon fill="black" stroke="black" points="623.74,-223.19 630.95,-215.42 620.47,-217 623.74,-223.19"/>
<text text-anchor="middle" x="350.84" y="-349.53" font-family="Times,serif" font-size="14.00">1</text>
</g>
<!-- dra.func_8012DBBC -->
<g id="node10" class="node">
<title>dra.func_8012DBBC</title>
<g id="a_node10"><a xlink:href="dra.func_8012DBBC.svg" xlink:title="dra.func_8012DBBC">
<ellipse fill="green" stroke="black" cx="550.04" cy="-378" rx="104.78" ry="18"/>
<text text-anchor="middle" x="550.04" y="-374.3" font-family="Times,serif" font-size="14.00">dra.func_8012DBBC</text>
</a>
</g>
</g>
<!-- dra.func_8012DBBC&#45;&gt;dra.func_8012CC30 -->
<g id="edge9" class="edge">
<title>dra.func_8012DBBC&#45;&gt;dra.func_8012CC30</title>
<path fill="none" stroke="black" d="M560.78,-359.93C580.52,-328.57 622.65,-261.6 645.87,-224.71"/>
<polygon fill="black" stroke="black" points="648.97,-226.34 651.33,-216.02 643.05,-222.62 648.97,-226.34"/>
<text text-anchor="middle" x="555.78" y="-348.73" font-family="Times,serif" font-size="14.00">1</text>
</g>
<!-- dra.func_8012DF04 -->
<g id="node11" class="node">
<title>dra.func_8012DF04</title>
<g id="a_node11"><a xlink:href="dra.func_8012DF04.svg" xlink:title="dra.func_8012DF04">
<ellipse fill="green" stroke="black" cx="775.04" cy="-378" rx="102.88" ry="18"/>
<text text-anchor="middle" x="775.04" y="-374.3" font-family="Times,serif" font-size="14.00">dra.func_8012DF04</text>
</a>
</g>
</g>
<!-- dra.func_8012DF04&#45;&gt;dra.func_8012CC30 -->
<g id="edge10" class="edge">
<title>dra.func_8012DF04&#45;&gt;dra.func_8012CC30</title>
<path fill="none" stroke="black" d="M764.21,-359.93C744.29,-328.57 701.78,-261.6 678.36,-224.71"/>
<polygon fill="black" stroke="black" points="681.16,-222.58 672.84,-216.02 675.25,-226.33 681.16,-222.58"/>
<text text-anchor="middle" x="759.21" y="-348.73" font-family="Times,serif" font-size="14.00">1</text>
</g>
<!-- dra.func_8012E040 -->
<g id="node12" class="node">
<title>dra.func_8012E040</title>
<g id="a_node12"><a xlink:href="dra.func_8012E040.svg" xlink:title="dra.func_8012E040">
<ellipse fill="green" stroke="black" cx="997.04" cy="-378" rx="101.28" ry="18"/>
<text text-anchor="middle" x="997.04" y="-374.3" font-family="Times,serif" font-size="14.00">dra.func_8012E040</text>
</a>
</g>
</g>
<!-- dra.func_8012E040&#45;&gt;dra.func_8012CC30 -->
<g id="edge11" class="edge">
<title>dra.func_8012E040&#45;&gt;dra.func_8012CC30</title>
<path fill="none" stroke="black" d="M966.42,-360.73C905.64,-328.44 769.79,-256.25 702.04,-220.25"/>
<polygon fill="black" stroke="black" points="703.42,-217.03 692.95,-215.42 700.14,-223.21 703.42,-217.03"/>
<text text-anchor="middle" x="961.42" y="-349.53" font-family="Times,serif" font-size="14.00">1</text>
</g>
<!-- dra.func_8012E550 -->
<g id="node13" class="node">
<title>dra.func_8012E550</title>
<g id="a_node13"><a xlink:href="dra.func_8012E550.svg" xlink:title="dra.func_8012E550">
<ellipse fill="green" stroke="black" cx="1218.04" cy="-378" rx="101.28" ry="18"/>
<text text-anchor="middle" x="1218.04" y="-374.3" font-family="Times,serif" font-size="14.00">dra.func_8012E550</text>
</a>
</g>
</g>
<!-- dra.func_8012E550&#45;&gt;dra.func_8012CC30 -->
<g id="edge12" class="edge">
<title>dra.func_8012E550&#45;&gt;dra.func_8012CC30</title>
<path fill="none" stroke="black" d="M1171.12,-361.98C1069.33,-329.39 828.61,-252.33 718.63,-217.12"/>
<polygon fill="black" stroke="black" points="719.63,-213.76 709.04,-214.05 717.49,-220.43 719.63,-213.76"/>
<text text-anchor="middle" x="1166.12" y="-350.78" font-family="Times,serif" font-size="14.00">1</text>
</g>
</g>
</svg>
