<?xml version="1.0" encoding="UTF-8" standalone="no"?>
<!DOCTYPE svg PUBLIC "-//W3C//DTD SVG 1.1//EN"
 "http://www.w3.org/Graphics/SVG/1.1/DTD/svg11.dtd">
<!-- Generated by graphviz version 2.43.0 (0)
 -->
<!-- Title: dra.func_80111CC0 Pages: 1 -->
<svg width="1887pt" height="404pt"
 viewBox="0.00 0.00 1886.53 404.00" xmlns="http://www.w3.org/2000/svg" xmlns:xlink="http://www.w3.org/1999/xlink">
<g id="graph0" class="graph" transform="scale(1 1) rotate(0) translate(4 400)">
<title>dra.func_80111CC0</title>
<polygon fill="white" stroke="transparent" points="-4,4 -4,-400 1882.53,-400 1882.53,4 -4,4"/>
<!-- dra.func_80111CC0 -->
<g id="node1" class="node">
<title>dra.func_80111CC0</title>
<ellipse fill="green" stroke="black" cx="981.84" cy="-198" rx="102.88" ry="18"/>
<text text-anchor="middle" x="981.84" y="-194.3" font-family="Times,serif" font-size="14.00">dra.func_80111CC0</text>
</g>
<!-- dra.CreateEntFactoryFromEntity -->
<g id="node2" class="node">
<title>dra.CreateEntFactoryFromEntity</title>
<g id="a_node2"><a xlink:href="dra.CreateEntFactoryFromEntity.svg" xlink:title="dra.CreateEntFactoryFromEntity">
<ellipse fill="green" stroke="black" cx="981.84" cy="-18" rx="165.97" ry="18"/>
<text text-anchor="middle" x="981.84" y="-14.3" font-family="Times,serif" font-size="14.00">dra.CreateEntFactoryFromEntity</text>
</a>
</g>
</g>
<!-- dra.func_80111CC0&#45;&gt;dra.CreateEntFactoryFromEntity -->
<g id="edge1" class="edge">
<title>dra.func_80111CC0&#45;&gt;dra.CreateEntFactoryFromEntity</title>
<path fill="none" stroke="black" d="M981.84,-179.93C981.84,-148.97 981.84,-83.3 981.84,-46.13"/>
<polygon fill="black" stroke="black" points="985.34,-46.02 981.84,-36.02 978.34,-46.02 985.34,-46.02"/>
<text text-anchor="middle" x="976.84" y="-39.82" font-family="Times,serif" font-size="14.00">2</text>
</g>
<!-- dra.AlucardHandleDamage -->
<g id="node3" class="node">
<title>dra.AlucardHandleDamage</title>
<g id="a_node3"><a xlink:href="dra.AlucardHandleDamage.svg" xlink:title="dra.AlucardHandleDamage">
<ellipse fill="green" stroke="black" cx="135.84" cy="-378" rx="135.68" ry="18"/>
<text text-anchor="middle" x="135.84" y="-374.3" font-family="Times,serif" font-size="14.00">dra.AlucardHandleDamage</text>
</a>
</g>
</g>
<!-- dra.AlucardHandleDamage&#45;&gt;dra.func_80111CC0 -->
<g id="edge2" class="edge">
<title>dra.AlucardHandleDamage&#45;&gt;dra.func_80111CC0</title>
<path fill="none" stroke="black" d="M205.07,-362.43C362.87,-329.23 748,-248.2 909.1,-214.3"/>
<polygon fill="black" stroke="black" points="909.86,-217.72 918.92,-212.24 908.42,-210.87 909.86,-217.72"/>
<text text-anchor="middle" x="200.07" y="-351.23" font-family="Times,serif" font-size="14.00">1</text>
</g>
<!-- dra.PlayerStepHellfire -->
<g id="node4" class="node">
<title>dra.PlayerStepHellfire</title>
<g id="a_node4"><a xlink:href="dra.PlayerStepHellfire.svg" xlink:title="dra.PlayerStepHellfire">
<ellipse fill="green" stroke="black" cx="404.84" cy="-378" rx="115.08" ry="18"/>
<text text-anchor="middle" x="404.84" y="-374.3" font-family="Times,serif" font-size="14.00">dra.PlayerStepHellfire</text>
</a>
</g>
</g>
<!-- dra.PlayerStepHellfire&#45;&gt;dra.func_80111CC0 -->
<g id="edge3" class="edge">
<title>dra.PlayerStepHellfire&#45;&gt;dra.func_80111CC0</title>
<path fill="none" stroke="black" d="M454.28,-361.75C560.5,-328.98 810.03,-252 923.65,-216.95"/>
<polygon fill="black" stroke="black" points="924.71,-220.29 933.23,-214 922.64,-213.6 924.71,-220.29"/>
<text text-anchor="middle" x="449.28" y="-350.55" font-family="Times,serif" font-size="14.00">1</text>
</g>
<!-- dra.PlayerStepUnmorphBat -->
<g id="node5" class="node">
<title>dra.PlayerStepUnmorphBat</title>
<g id="a_node5"><a xlink:href="dra.PlayerStepUnmorphBat.svg" xlink:title="dra.PlayerStepUnmorphBat">
<ellipse fill="green" stroke="black" cx="677.84" cy="-378" rx="140.28" ry="18"/>
<text text-anchor="middle" x="677.84" y="-374.3" font-family="Times,serif" font-size="14.00">dra.PlayerStepUnmorphBat</text>
</a>
</g>
</g>
<!-- dra.PlayerStepUnmorphBat&#45;&gt;dra.func_80111CC0 -->
<g id="edge4" class="edge">
<title>dra.PlayerStepUnmorphBat&#45;&gt;dra.func_80111CC0</title>
<path fill="none" stroke="black" d="M706.44,-360.25C761.69,-327.9 883.06,-256.84 944.56,-220.83"/>
<polygon fill="black" stroke="black" points="946.67,-223.64 953.54,-215.57 943.14,-217.6 946.67,-223.64"/>
<text text-anchor="middle" x="701.44" y="-349.05" font-family="Times,serif" font-size="14.00">1</text>
</g>
<!-- dra.PlayerStepUnmorphMist -->
<g id="node6" class="node">
<title>dra.PlayerStepUnmorphMist</title>
<g id="a_node6"><a xlink:href="dra.PlayerStepUnmorphMist.svg" xlink:title="dra.PlayerStepUnmorphMist">
<ellipse fill="green" stroke="black" cx="981.84" cy="-378" rx="145.67" ry="18"/>
<text text-anchor="middle" x="981.84" y="-374.3" font-family="Times,serif" font-size="14.00">dra.PlayerStepUnmorphMist</text>
</a>
</g>
</g>
<!-- dra.PlayerStepUnmorphMist&#45;&gt;dra.func_80111CC0 -->
<g id="edge5" class="edge">
<title>dra.PlayerStepUnmorphMist&#45;&gt;dra.func_80111CC0</title>
<path fill="none" stroke="black" d="M981.84,-359.93C981.84,-328.97 981.84,-263.3 981.84,-226.13"/>
<polygon fill="black" stroke="black" points="985.34,-226.02 981.84,-216.02 978.34,-226.02 985.34,-226.02"/>
<text text-anchor="middle" x="976.84" y="-348.73" font-family="Times,serif" font-size="14.00">1</text>
</g>
<!-- dra.PlayerStepUnmorphWolf -->
<g id="node7" class="node">
<title>dra.PlayerStepUnmorphWolf</title>
<g id="a_node7"><a xlink:href="dra.PlayerStepUnmorphWolf.svg" xlink:title="dra.PlayerStepUnmorphWolf">
<ellipse fill="green" stroke="black" cx="1290.84" cy="-378" rx="144.87" ry="18"/>
<text text-anchor="middle" x="1290.84" y="-374.3" font-family="Times,serif" font-size="14.00">dra.PlayerStepUnmorphWolf</text>
</a>
</g>
</g>
<!-- dra.PlayerStepUnmorphWolf&#45;&gt;dra.func_80111CC0 -->
<g id="edge6" class="edge">
<title>dra.PlayerStepUnmorphWolf&#45;&gt;dra.func_80111CC0</title>
<path fill="none" stroke="black" d="M1261.77,-360.25C1205.35,-327.75 1081.1,-256.18 1018.87,-220.33"/>
<polygon fill="black" stroke="black" points="1020.57,-217.27 1010.16,-215.31 1017.08,-223.34 1020.57,-217.27"/>
<text text-anchor="middle" x="1256.77" y="-349.05" font-family="Times,serif" font-size="14.00">1</text>
</g>
<!-- dra.func_8010A234 -->
<g id="node8" class="node">
<title>dra.func_8010A234</title>
<g id="a_node8"><a xlink:href="dra.func_8010A234.svg" xlink:title="dra.func_8010A234">
<ellipse fill="green" stroke="black" cx="1554.84" cy="-378" rx="100.98" ry="18"/>
<text text-anchor="middle" x="1554.84" y="-374.3" font-family="Times,serif" font-size="14.00">dra.func_8010A234</text>
</a>
</g>
</g>
<!-- dra.func_8010A234&#45;&gt;dra.func_80111CC0 -->
<g id="edge7" class="edge">
<title>dra.func_8010A234&#45;&gt;dra.func_80111CC0</title>
<path fill="none" stroke="black" d="M1506.97,-362.13C1402.27,-329.61 1153.25,-252.25 1039.86,-217.02"/>
<polygon fill="black" stroke="black" points="1040.56,-213.58 1029.97,-213.95 1038.48,-220.26 1040.56,-213.58"/>
<text text-anchor="middle" x="1501.97" y="-350.93" font-family="Times,serif" font-size="14.00">1</text>
</g>
<!-- dra.func_8010E4D0 -->
<g id="node9" class="node">
<title>dra.func_8010E4D0</title>
<g id="a_node9"><a xlink:href="dra.func_8010E4D0.svg" xlink:title="dra.func_8010E4D0">
<ellipse fill="green" stroke="black" cx="1775.84" cy="-378" rx="102.88" ry="18"/>
<text text-anchor="middle" x="1775.84" y="-374.3" font-family="Times,serif" font-size="14.00">dra.func_8010E4D0</text>
</a>
</g>
</g>
<!-- dra.func_8010E4D0&#45;&gt;dra.func_80111CC0 -->
<g id="edge8" class="edge">
<title>dra.func_8010E4D0&#45;&gt;dra.func_80111CC0</title>
<path fill="none" stroke="black" d="M1715.18,-363.4C1570.63,-331 1206.44,-249.35 1052.39,-214.82"/>
<polygon fill="black" stroke="black" points="1053.08,-211.38 1042.55,-212.61 1051.55,-218.21 1053.08,-211.38"/>
<text text-anchor="middle" x="1710.18" y="-352.2" font-family="Times,serif" font-size="14.00">3</text>
</g>
</g>
</svg>
