<?xml version="1.0" encoding="UTF-8" standalone="no"?>
<!DOCTYPE svg PUBLIC "-//W3C//DTD SVG 1.1//EN"
 "http://www.w3.org/Graphics/SVG/1.1/DTD/svg11.dtd">
<!-- Generated by graphviz version 2.43.0 (0)
 -->
<!-- Title: dra.CheckHellfireInput Pages: 1 -->
<svg width="670pt" height="404pt"
 viewBox="0.00 0.00 670.44 404.00" xmlns="http://www.w3.org/2000/svg" xmlns:xlink="http://www.w3.org/1999/xlink">
<g id="graph0" class="graph" transform="scale(1 1) rotate(0) translate(4 400)">
<title>dra.CheckHellfireInput</title>
<polygon fill="white" stroke="transparent" points="-4,4 -4,-400 666.44,-400 666.44,4 -4,4"/>
<!-- dra.CheckHellfireInput -->
<g id="node1" class="node">
<title>dra.CheckHellfireInput</title>
<ellipse fill="green" stroke="black" cx="276.05" cy="-198" rx="116.98" ry="18"/>
<text text-anchor="middle" x="276.05" y="-194.3" font-family="Times,serif" font-size="14.00">dra.CheckHellfireInput</text>
</g>
<!-- FntPrint -->
<g id="node2" class="node">
<title>FntPrint</title>
<g id="a_node2"><a xlink:href="FntPrint.svg" xlink:title="FntPrint">
<ellipse fill="lightblue" stroke="black" cx="50.05" cy="-18" rx="50.09" ry="18"/>
<text text-anchor="middle" x="50.05" y="-14.3" font-family="Times,serif" font-size="14.00">FntPrint</text>
</a>
</g>
</g>
<!-- dra.CheckHellfireInput&#45;&gt;FntPrint -->
<g id="edge1" class="edge">
<title>dra.CheckHellfireInput&#45;&gt;FntPrint</title>
<path fill="none" stroke="black" d="M254.78,-180.25C213.72,-147.91 123.51,-76.86 77.79,-40.85"/>
<polygon fill="black" stroke="black" points="79.81,-37.99 69.79,-34.55 75.48,-43.49 79.81,-37.99"/>
<text text-anchor="middle" x="64.79" y="-38.35" font-family="Times,serif" font-size="14.00">1</text>
</g>
<!-- dra.CastSpell -->
<g id="node3" class="node">
<title>dra.CastSpell</title>
<g id="a_node3"><a xlink:href="dra.CastSpell.svg" xlink:title="dra.CastSpell">
<ellipse fill="green" stroke="black" cx="191.05" cy="-18" rx="73.39" ry="18"/>
<text text-anchor="middle" x="191.05" y="-14.3" font-family="Times,serif" font-size="14.00">dra.CastSpell</text>
</a>
</g>
</g>
<!-- dra.CheckHellfireInput&#45;&gt;dra.CastSpell -->
<g id="edge2" class="edge">
<title>dra.CheckHellfireInput&#45;&gt;dra.CastSpell</title>
<path fill="none" stroke="black" d="M267.9,-179.93C252.98,-148.7 221.21,-82.17 203.55,-45.18"/>
<polygon fill="black" stroke="black" points="206.64,-43.53 199.17,-36.02 200.32,-46.55 206.64,-43.53"/>
<text text-anchor="middle" x="194.17" y="-39.82" font-family="Times,serif" font-size="14.00">1</text>
</g>
<!-- dra.LearnSpell -->
<g id="node4" class="node">
<title>dra.LearnSpell</title>
<g id="a_node4"><a xlink:href="dra.LearnSpell.svg" xlink:title="dra.LearnSpell">
<ellipse fill="green" stroke="black" cx="362.05" cy="-18" rx="79.09" ry="18"/>
<text text-anchor="middle" x="362.05" y="-14.3" font-family="Times,serif" font-size="14.00">dra.LearnSpell</text>
</a>
</g>
</g>
<!-- dra.CheckHellfireInput&#45;&gt;dra.LearnSpell -->
<g id="edge3" class="edge">
<title>dra.CheckHellfireInput&#45;&gt;dra.LearnSpell</title>
<path fill="none" stroke="black" d="M284.29,-179.93C299.38,-148.7 331.53,-82.17 349.4,-45.18"/>
<polygon fill="black" stroke="black" points="352.63,-46.54 353.82,-36.02 346.32,-43.5 352.63,-46.54"/>
<text text-anchor="middle" x="348.82" y="-39.82" font-family="Times,serif" font-size="14.00">1</text>
</g>
<!-- dra.PerformHellfire -->
<g id="node5" class="node">
<title>dra.PerformHellfire</title>
<g id="a_node5"><a xlink:href="dra.PerformHellfire.svg" xlink:title="dra.PerformHellfire">
<ellipse fill="green" stroke="black" cx="561.05" cy="-18" rx="101.28" ry="18"/>
<text text-anchor="middle" x="561.05" y="-14.3" font-family="Times,serif" font-size="14.00">dra.PerformHellfire</text>
</a>
</g>
</g>
<!-- dra.CheckHellfireInput&#45;&gt;dra.PerformHellfire -->
<g id="edge4" class="edge">
<title>dra.CheckHellfireInput&#45;&gt;dra.PerformHellfire</title>
<path fill="none" stroke="black" d="M302.6,-180.41C354.15,-148.22 467.78,-77.25 525.66,-41.1"/>
<polygon fill="black" stroke="black" points="527.83,-43.87 534.45,-35.61 524.12,-37.94 527.83,-43.87"/>
<text text-anchor="middle" x="529.45" y="-39.41" font-family="Times,serif" font-size="14.00">1</text>
</g>
<!-- dra.CheckSpecialMoveInputs -->
<g id="node6" class="node">
<title>dra.CheckSpecialMoveInputs</title>
<g id="a_node6"><a xlink:href="dra.CheckSpecialMoveInputs.svg" xlink:title="dra.CheckSpecialMoveInputs">
<ellipse fill="green" stroke="black" cx="276.05" cy="-378" rx="146.47" ry="18"/>
<text text-anchor="middle" x="276.05" y="-374.3" font-family="Times,serif" font-size="14.00">dra.CheckSpecialMoveInputs</text>
</a>
</g>
</g>
<!-- dra.CheckSpecialMoveInputs&#45;&gt;dra.CheckHellfireInput -->
<g id="edge5" class="edge">
<title>dra.CheckSpecialMoveInputs&#45;&gt;dra.CheckHellfireInput</title>
<path fill="none" stroke="black" d="M276.05,-359.93C276.05,-328.97 276.05,-263.3 276.05,-226.13"/>
<polygon fill="black" stroke="black" points="279.55,-226.02 276.05,-216.02 272.55,-226.02 279.55,-226.02"/>
<text text-anchor="middle" x="271.05" y="-348.73" font-family="Times,serif" font-size="14.00">1</text>
</g>
</g>
</svg>
