<?xml version="1.0" encoding="UTF-8" standalone="no"?>
<!DOCTYPE svg PUBLIC "-//W3C//DTD SVG 1.1//EN"
 "http://www.w3.org/Graphics/SVG/1.1/DTD/svg11.dtd">
<!-- Generated by graphviz version 2.43.0 (0)
 -->
<!-- Title: dra.func_8010EDB8 Pages: 1 -->
<svg width="3741pt" height="404pt"
 viewBox="0.00 0.00 3741.04 404.00" xmlns="http://www.w3.org/2000/svg" xmlns:xlink="http://www.w3.org/1999/xlink">
<g id="graph0" class="graph" transform="scale(1 1) rotate(0) translate(4 400)">
<title>dra.func_8010EDB8</title>
<polygon fill="white" stroke="transparent" points="-4,4 -4,-400 3737.04,-400 3737.04,4 -4,4"/>
<!-- dra.func_8010EDB8 -->
<g id="node1" class="node">
<title>dra.func_8010EDB8</title>
<ellipse fill="green" stroke="black" cx="2004.54" cy="-198" rx="103.98" ry="18"/>
<text text-anchor="middle" x="2004.54" y="-194.3" font-family="Times,serif" font-size="14.00">dra.func_8010EDB8</text>
</g>
<!-- dra.CheckChainLimit -->
<g id="node2" class="node">
<title>dra.CheckChainLimit</title>
<g id="a_node2"><a xlink:href="dra.CheckChainLimit.svg" xlink:title="dra.CheckChainLimit">
<ellipse fill="green" stroke="black" cx="108.54" cy="-18" rx="108.58" ry="18"/>
<text text-anchor="middle" x="108.54" y="-14.3" font-family="Times,serif" font-size="14.00">dra.CheckChainLimit</text>
</a>
</g>
</g>
<!-- dra.func_8010EDB8&#45;&gt;dra.CheckChainLimit -->
<g id="edge1" class="edge">
<title>dra.func_8010EDB8&#45;&gt;dra.CheckChainLimit</title>
<path fill="none" stroke="black" d="M1910.33,-190.28C1644.84,-170.94 868.08,-111.7 225.54,-36 215.76,-34.85 205.53,-33.53 195.36,-32.15"/>
<polygon fill="black" stroke="black" points="195.63,-28.65 185.24,-30.75 194.67,-35.59 195.63,-28.65"/>
<text text-anchor="middle" x="180.24" y="-34.55" font-family="Times,serif" font-size="14.00">8</text>
</g>
<!-- dra.CreateEntFactoryFromEntity -->
<g id="node3" class="node">
<title>dra.CreateEntFactoryFromEntity</title>
<g id="a_node3"><a xlink:href="dra.CreateEntFactoryFromEntity.svg" xlink:title="dra.CreateEntFactoryFromEntity">
<ellipse fill="green" stroke="black" cx="400.54" cy="-18" rx="165.97" ry="18"/>
<text text-anchor="middle" x="400.54" y="-14.3" font-family="Times,serif" font-size="14.00">dra.CreateEntFactoryFromEntity</text>
</a>
</g>
</g>
<!-- dra.func_8010EDB8&#45;&gt;dra.CreateEntFactoryFromEntity -->
<g id="edge2" class="edge">
<title>dra.func_8010EDB8&#45;&gt;dra.CreateEntFactoryFromEntity</title>
<path fill="none" stroke="black" d="M1919.72,-187.59C1653.34,-158.03 832.79,-66.97 521.76,-32.45"/>
<polygon fill="black" stroke="black" points="522.13,-28.97 511.81,-31.35 521.36,-35.93 522.13,-28.97"/>
<text text-anchor="middle" x="506.81" y="-35.15" font-family="Times,serif" font-size="14.00">3</text>
</g>
<!-- dra.GetEquipItemCategory -->
<g id="node4" class="node">
<title>dra.GetEquipItemCategory</title>
<g id="a_node4"><a xlink:href="dra.GetEquipItemCategory.svg" xlink:title="dra.GetEquipItemCategory">
<ellipse fill="green" stroke="black" cx="721.54" cy="-18" rx="137.28" ry="18"/>
<text text-anchor="middle" x="721.54" y="-14.3" font-family="Times,serif" font-size="14.00">dra.GetEquipItemCategory</text>
</a>
</g>
</g>
<!-- dra.func_8010EDB8&#45;&gt;dra.GetEquipItemCategory -->
<g id="edge3" class="edge">
<title>dra.func_8010EDB8&#45;&gt;dra.GetEquipItemCategory</title>
<path fill="none" stroke="black" d="M1926.21,-186.13C1704.05,-155.31 1070,-67.34 822.37,-32.99"/>
<polygon fill="black" stroke="black" points="822.68,-29.5 812.29,-31.59 821.72,-36.43 822.68,-29.5"/>
<text text-anchor="middle" x="807.29" y="-35.39" font-family="Times,serif" font-size="14.00">2</text>
</g>
<!-- dra.GetEquipProperties -->
<g id="node5" class="node">
<title>dra.GetEquipProperties</title>
<g id="a_node5"><a xlink:href="dra.GetEquipProperties.svg" xlink:title="dra.GetEquipProperties">
<ellipse fill="green" stroke="black" cx="998.54" cy="-18" rx="122.38" ry="18"/>
<text text-anchor="middle" x="998.54" y="-14.3" font-family="Times,serif" font-size="14.00">dra.GetEquipProperties</text>
</a>
</g>
</g>
<!-- dra.func_8010EDB8&#45;&gt;dra.GetEquipProperties -->
<g id="edge4" class="edge">
<title>dra.func_8010EDB8&#45;&gt;dra.GetEquipProperties</title>
<path fill="none" stroke="black" d="M1934.6,-184.62C1755.03,-152.85 1278.23,-68.49 1083.34,-34.01"/>
<polygon fill="black" stroke="black" points="1083.89,-30.55 1073.44,-32.25 1082.67,-37.44 1083.89,-30.55"/>
<text text-anchor="middle" x="1068.44" y="-36.05" font-family="Times,serif" font-size="14.00">1</text>
</g>
<!-- dra.HasEnoughMp -->
<g id="node6" class="node">
<title>dra.HasEnoughMp</title>
<g id="a_node6"><a xlink:href="dra.HasEnoughMp.svg" xlink:title="dra.HasEnoughMp">
<ellipse fill="green" stroke="black" cx="1236.54" cy="-18" rx="98.28" ry="18"/>
<text text-anchor="middle" x="1236.54" y="-14.3" font-family="Times,serif" font-size="14.00">dra.HasEnoughMp</text>
</a>
</g>
</g>
<!-- dra.func_8010EDB8&#45;&gt;dra.HasEnoughMp -->
<g id="edge5" class="edge">
<title>dra.func_8010EDB8&#45;&gt;dra.HasEnoughMp</title>
<path fill="none" stroke="black" d="M1944.92,-183.18C1804.44,-150.62 1453.37,-69.25 1304.73,-34.8"/>
<polygon fill="black" stroke="black" points="1305.34,-31.35 1294.81,-32.51 1303.76,-38.17 1305.34,-31.35"/>
<text text-anchor="middle" x="1289.81" y="-36.31" font-family="Times,serif" font-size="14.00">3</text>
</g>
<!-- dra.PlaySfx -->
<g id="node7" class="node">
<title>dra.PlaySfx</title>
<g id="a_node7"><a xlink:href="dra.PlaySfx.svg" xlink:title="dra.PlaySfx">
<ellipse fill="green" stroke="black" cx="1416.54" cy="-18" rx="64.19" ry="18"/>
<text text-anchor="middle" x="1416.54" y="-14.3" font-family="Times,serif" font-size="14.00">dra.PlaySfx</text>
</a>
</g>
</g>
<!-- dra.func_8010EDB8&#45;&gt;dra.PlaySfx -->
<g id="edge6" class="edge">
<title>dra.func_8010EDB8&#45;&gt;dra.PlaySfx</title>
<path fill="none" stroke="black" d="M1955.42,-182.13C1845.57,-148.88 1580.89,-68.75 1468.46,-34.72"/>
<polygon fill="black" stroke="black" points="1469.29,-31.31 1458.71,-31.76 1467.26,-38.01 1469.29,-31.31"/>
<text text-anchor="middle" x="1453.71" y="-35.56" font-family="Times,serif" font-size="14.00">5</text>
</g>
<!-- dra.SetPlayerAnim -->
<g id="node8" class="node">
<title>dra.SetPlayerAnim</title>
<g id="a_node8"><a xlink:href="dra.SetPlayerAnim.svg" xlink:title="dra.SetPlayerAnim">
<ellipse fill="green" stroke="black" cx="1597.54" cy="-18" rx="98.58" ry="18"/>
<text text-anchor="middle" x="1597.54" y="-14.3" font-family="Times,serif" font-size="14.00">dra.SetPlayerAnim</text>
</a>
</g>
</g>
<!-- dra.func_8010EDB8&#45;&gt;dra.SetPlayerAnim -->
<g id="edge7" class="edge">
<title>dra.func_8010EDB8&#45;&gt;dra.SetPlayerAnim</title>
<path fill="none" stroke="black" d="M1968.06,-181.05C1893.72,-148.53 1724.84,-74.67 1643.29,-39.01"/>
<polygon fill="black" stroke="black" points="1644.35,-35.65 1633.79,-34.85 1641.55,-42.07 1644.35,-35.65"/>
<text text-anchor="middle" x="1628.79" y="-38.65" font-family="Times,serif" font-size="14.00">9</text>
</g>
<!-- dra.SetPlayerStep -->
<g id="node9" class="node">
<title>dra.SetPlayerStep</title>
<g id="a_node9"><a xlink:href="dra.SetPlayerStep.svg" xlink:title="dra.SetPlayerStep">
<ellipse fill="green" stroke="black" cx="1810.54" cy="-18" rx="96.38" ry="18"/>
<text text-anchor="middle" x="1810.54" y="-14.3" font-family="Times,serif" font-size="14.00">dra.SetPlayerStep</text>
</a>
</g>
</g>
<!-- dra.func_8010EDB8&#45;&gt;dra.SetPlayerStep -->
<g id="edge8" class="edge">
<title>dra.func_8010EDB8&#45;&gt;dra.SetPlayerStep</title>
<path fill="none" stroke="black" d="M1986.29,-180.25C1951.63,-148.45 1876.18,-79.22 1836.35,-42.68"/>
<polygon fill="black" stroke="black" points="1838.62,-40.01 1828.88,-35.83 1833.89,-45.17 1838.62,-40.01"/>
<text text-anchor="middle" x="1823.88" y="-39.63" font-family="Times,serif" font-size="14.00">1</text>
</g>
<!-- dra.SetSpeedX -->
<g id="node10" class="node">
<title>dra.SetSpeedX</title>
<g id="a_node10"><a xlink:href="dra.SetSpeedX.svg" xlink:title="dra.SetSpeedX">
<ellipse fill="green" stroke="black" cx="2004.54" cy="-18" rx="79.89" ry="18"/>
<text text-anchor="middle" x="2004.54" y="-14.3" font-family="Times,serif" font-size="14.00">dra.SetSpeedX</text>
</a>
</g>
</g>
<!-- dra.func_8010EDB8&#45;&gt;dra.SetSpeedX -->
<g id="edge9" class="edge">
<title>dra.func_8010EDB8&#45;&gt;dra.SetSpeedX</title>
<path fill="none" stroke="black" d="M2004.54,-179.93C2004.54,-148.97 2004.54,-83.3 2004.54,-46.13"/>
<polygon fill="black" stroke="black" points="2008.04,-46.02 2004.54,-36.02 2001.04,-46.02 2008.04,-46.02"/>
<text text-anchor="middle" x="1999.54" y="-39.82" font-family="Times,serif" font-size="14.00">2</text>
</g>
<!-- dra.func_800FDD44 -->
<g id="node11" class="node">
<title>dra.func_800FDD44</title>
<g id="a_node11"><a xlink:href="dra.func_800FDD44.svg" xlink:title="dra.func_800FDD44">
<ellipse fill="green" stroke="black" cx="2206.54" cy="-18" rx="103.98" ry="18"/>
<text text-anchor="middle" x="2206.54" y="-14.3" font-family="Times,serif" font-size="14.00">dra.func_800FDD44</text>
</a>
</g>
</g>
<!-- dra.func_8010EDB8&#45;&gt;dra.func_800FDD44 -->
<g id="edge10" class="edge">
<title>dra.func_8010EDB8&#45;&gt;dra.func_800FDD44</title>
<path fill="none" stroke="black" d="M2023.54,-180.25C2059.71,-148.38 2138.52,-78.94 2179.92,-42.45"/>
<polygon fill="black" stroke="black" points="2182.25,-45.07 2187.44,-35.83 2177.62,-39.82 2182.25,-45.07"/>
<text text-anchor="middle" x="2182.44" y="-39.63" font-family="Times,serif" font-size="14.00">3</text>
</g>
<!-- dra.func_8010DFF0 -->
<g id="node12" class="node">
<title>dra.func_8010DFF0</title>
<g id="a_node12"><a xlink:href="dra.func_8010DFF0.svg" xlink:title="dra.func_8010DFF0">
<ellipse fill="green" stroke="black" cx="2431.54" cy="-18" rx="102.88" ry="18"/>
<text text-anchor="middle" x="2431.54" y="-14.3" font-family="Times,serif" font-size="14.00">dra.func_8010DFF0</text>
</a>
</g>
</g>
<!-- dra.func_8010EDB8&#45;&gt;dra.func_8010DFF0 -->
<g id="edge11" class="edge">
<title>dra.func_8010EDB8&#45;&gt;dra.func_8010DFF0</title>
<path fill="none" stroke="black" d="M2042.43,-181.2C2120.46,-148.68 2298.88,-74.3 2384.28,-38.7"/>
<polygon fill="black" stroke="black" points="2385.85,-41.84 2393.73,-34.76 2383.16,-35.38 2385.85,-41.84"/>
<text text-anchor="middle" x="2388.73" y="-38.56" font-family="Times,serif" font-size="14.00">1</text>
</g>
<!-- dra.func_8010E27C -->
<g id="node13" class="node">
<title>dra.func_8010E27C</title>
<g id="a_node13"><a xlink:href="dra.func_8010E27C.svg" xlink:title="dra.func_8010E27C">
<ellipse fill="green" stroke="black" cx="2654.54" cy="-18" rx="102.88" ry="18"/>
<text text-anchor="middle" x="2654.54" y="-14.3" font-family="Times,serif" font-size="14.00">dra.func_8010E27C</text>
</a>
</g>
</g>
<!-- dra.func_8010EDB8&#45;&gt;dra.func_8010E27C -->
<g id="edge12" class="edge">
<title>dra.func_8010EDB8&#45;&gt;dra.func_8010E27C</title>
<path fill="none" stroke="black" d="M2057.73,-182.43C2176.7,-149.85 2463.83,-71.23 2591.51,-36.26"/>
<polygon fill="black" stroke="black" points="2592.8,-39.54 2601.52,-33.52 2590.96,-32.78 2592.8,-39.54"/>
<text text-anchor="middle" x="2596.52" y="-37.32" font-family="Times,serif" font-size="14.00">2</text>
</g>
<!-- dra.func_8010E42C -->
<g id="node14" class="node">
<title>dra.func_8010E42C</title>
<g id="a_node14"><a xlink:href="dra.func_8010E42C.svg" xlink:title="dra.func_8010E42C">
<ellipse fill="green" stroke="black" cx="2877.54" cy="-18" rx="102.88" ry="18"/>
<text text-anchor="middle" x="2877.54" y="-14.3" font-family="Times,serif" font-size="14.00">dra.func_8010E42C</text>
</a>
</g>
</g>
<!-- dra.func_8010EDB8&#45;&gt;dra.func_8010E42C -->
<g id="edge13" class="edge">
<title>dra.func_8010EDB8&#45;&gt;dra.func_8010E42C</title>
<path fill="none" stroke="black" d="M2069.09,-183.84C2227.58,-151.52 2635.19,-68.41 2803.32,-34.13"/>
<polygon fill="black" stroke="black" points="2804.22,-37.52 2813.32,-32.09 2802.83,-30.66 2804.22,-37.52"/>
<text text-anchor="middle" x="2808.32" y="-35.89" font-family="Times,serif" font-size="14.00">1</text>
</g>
<!-- dra.func_8010EA54 -->
<g id="node15" class="node">
<title>dra.func_8010EA54</title>
<g id="a_node15"><a xlink:href="dra.func_8010EA54.svg" xlink:title="dra.func_8010EA54">
<ellipse fill="green" stroke="black" cx="3100.54" cy="-18" rx="102.08" ry="18"/>
<text text-anchor="middle" x="3100.54" y="-14.3" font-family="Times,serif" font-size="14.00">dra.func_8010EA54</text>
</a>
</g>
</g>
<!-- dra.func_8010EDB8&#45;&gt;dra.func_8010EA54 -->
<g id="edge14" class="edge">
<title>dra.func_8010EDB8&#45;&gt;dra.func_8010EA54</title>
<path fill="none" stroke="black" d="M2077.73,-185.11C2274.15,-153.21 2811.95,-65.87 3018.37,-32.35"/>
<polygon fill="black" stroke="black" points="3018.93,-35.8 3028.24,-30.74 3017.81,-28.89 3018.93,-35.8"/>
<text text-anchor="middle" x="3023.24" y="-34.54" font-family="Times,serif" font-size="14.00">3</text>
</g>
<!-- dra.func_8010EB5C -->
<g id="node16" class="node">
<title>dra.func_8010EB5C</title>
<g id="a_node16"><a xlink:href="dra.func_8010EB5C.svg" xlink:title="dra.func_8010EB5C">
<ellipse fill="green" stroke="black" cx="3323.54" cy="-18" rx="103.18" ry="18"/>
<text text-anchor="middle" x="3323.54" y="-14.3" font-family="Times,serif" font-size="14.00">dra.func_8010EB5C</text>
</a>
</g>
</g>
<!-- dra.func_8010EDB8&#45;&gt;dra.func_8010EB5C -->
<g id="edge15" class="edge">
<title>dra.func_8010EDB8&#45;&gt;dra.func_8010EB5C</title>
<path fill="none" stroke="black" d="M2085.84,-186.67C2280.43,-161.83 2788.26,-96.35 3211.54,-36 3220.41,-34.74 3229.66,-33.38 3238.88,-32.02"/>
<polygon fill="black" stroke="black" points="3239.49,-35.46 3248.86,-30.53 3238.46,-28.54 3239.49,-35.46"/>
<text text-anchor="middle" x="3243.86" y="-34.33" font-family="Times,serif" font-size="14.00">1</text>
</g>
<!-- dra.func_8010ED54 -->
<g id="node17" class="node">
<title>dra.func_8010ED54</title>
<g id="a_node17"><a xlink:href="dra.func_8010ED54.svg" xlink:title="dra.func_8010ED54">
<ellipse fill="green" stroke="black" cx="3547.54" cy="-18" rx="102.88" ry="18"/>
<text text-anchor="middle" x="3547.54" y="-14.3" font-family="Times,serif" font-size="14.00">dra.func_8010ED54</text>
</a>
</g>
</g>
<!-- dra.func_8010EDB8&#45;&gt;dra.func_8010ED54 -->
<g id="edge16" class="edge">
<title>dra.func_8010EDB8&#45;&gt;dra.func_8010ED54</title>
<path fill="none" stroke="black" d="M2092.62,-188.29C2316.96,-165.83 2928.06,-103.04 3435.54,-36 3444.73,-34.79 3454.33,-33.44 3463.88,-32.06"/>
<polygon fill="black" stroke="black" points="3464.41,-35.52 3473.8,-30.61 3463.4,-28.59 3464.41,-35.52"/>
<text text-anchor="middle" x="3468.8" y="-34.41" font-family="Times,serif" font-size="14.00">1</text>
</g>
<!-- rand -->
<g id="node18" class="node">
<title>rand</title>
<g id="a_node18"><a xlink:href="rand.svg" xlink:title="rand">
<ellipse fill="lightblue" stroke="black" cx="3700.54" cy="-18" rx="32.49" ry="18"/>
<text text-anchor="middle" x="3700.54" y="-14.3" font-family="Times,serif" font-size="14.00">rand</text>
</a>
</g>
</g>
<!-- dra.func_8010EDB8&#45;&gt;rand -->
<g id="edge17" class="edge">
<title>dra.func_8010EDB8&#45;&gt;rand</title>
<path fill="none" stroke="black" d="M2108.51,-197.46C2372.14,-196.38 3086.47,-179.29 3659.54,-36 3662.03,-35.38 3664.56,-34.63 3667.08,-33.8"/>
<polygon fill="black" stroke="black" points="3668.48,-37.02 3676.66,-30.29 3666.07,-30.45 3668.48,-37.02"/>
<text text-anchor="middle" x="3671.66" y="-34.09" font-family="Times,serif" font-size="14.00">1</text>
</g>
<!-- dra.func_8010FDF8 -->
<g id="node19" class="node">
<title>dra.func_8010FDF8</title>
<g id="a_node19"><a xlink:href="dra.func_8010FDF8.svg" xlink:title="dra.func_8010FDF8">
<ellipse fill="green" stroke="black" cx="2004.54" cy="-378" rx="102.88" ry="18"/>
<text text-anchor="middle" x="2004.54" y="-374.3" font-family="Times,serif" font-size="14.00">dra.func_8010FDF8</text>
</a>
</g>
</g>
<!-- dra.func_8010FDF8&#45;&gt;dra.func_8010EDB8 -->
<g id="edge18" class="edge">
<title>dra.func_8010FDF8&#45;&gt;dra.func_8010EDB8</title>
<path fill="none" stroke="black" d="M2004.54,-359.93C2004.54,-328.97 2004.54,-263.3 2004.54,-226.13"/>
<polygon fill="black" stroke="black" points="2008.04,-226.02 2004.54,-216.02 2001.04,-226.02 2008.04,-226.02"/>
<text text-anchor="middle" x="1999.54" y="-348.73" font-family="Times,serif" font-size="14.00">1</text>
</g>
</g>
</svg>
