<?xml version="1.0" encoding="UTF-8" standalone="no"?>
<!DOCTYPE svg PUBLIC "-//W3C//DTD SVG 1.1//EN"
 "http://www.w3.org/Graphics/SVG/1.1/DTD/svg11.dtd">
<!-- Generated by graphviz version 2.43.0 (0)
 -->
<!-- Title: dra.func_801042C4 Pages: 1 -->
<svg width="1171pt" height="404pt"
 viewBox="0.00 0.00 1171.04 404.00" xmlns="http://www.w3.org/2000/svg" xmlns:xlink="http://www.w3.org/1999/xlink">
<g id="graph0" class="graph" transform="scale(1 1) rotate(0) translate(4 400)">
<title>dra.func_801042C4</title>
<polygon fill="white" stroke="transparent" points="-4,4 -4,-400 1167.04,-400 1167.04,4 -4,4"/>
<!-- dra.func_801042C4 -->
<g id="node1" class="node">
<title>dra.func_801042C4</title>
<ellipse fill="green" stroke="black" cx="562.14" cy="-198" rx="101.28" ry="18"/>
<text text-anchor="middle" x="562.14" y="-194.3" font-family="Times,serif" font-size="14.00">dra.func_801042C4</text>
</g>
<!-- SetGeomScreen -->
<g id="node2" class="node">
<title>SetGeomScreen</title>
<g id="a_node2"><a xlink:href="SetGeomScreen.svg" xlink:title="SetGeomScreen">
<ellipse fill="lightblue" stroke="black" cx="85.14" cy="-18" rx="85.29" ry="18"/>
<text text-anchor="middle" x="85.14" y="-14.3" font-family="Times,serif" font-size="14.00">SetGeomScreen</text>
</a>
</g>
</g>
<!-- dra.func_801042C4&#45;&gt;SetGeomScreen -->
<g id="edge1" class="edge">
<title>dra.func_801042C4&#45;&gt;SetGeomScreen</title>
<path fill="none" stroke="black" d="M520.65,-181.52C432.97,-148.8 229.2,-72.76 134.79,-37.53"/>
<polygon fill="black" stroke="black" points="135.79,-34.16 125.19,-33.95 133.34,-40.72 135.79,-34.16"/>
<text text-anchor="middle" x="120.19" y="-37.75" font-family="Times,serif" font-size="14.00">1</text>
</g>
<!-- dra.AllocPrimitives -->
<g id="node3" class="node">
<title>dra.AllocPrimitives</title>
<g id="a_node3"><a xlink:href="dra.AllocPrimitives.svg" xlink:title="dra.AllocPrimitives">
<ellipse fill="green" stroke="black" cx="288.14" cy="-18" rx="99.38" ry="18"/>
<text text-anchor="middle" x="288.14" y="-14.3" font-family="Times,serif" font-size="14.00">dra.AllocPrimitives</text>
</a>
</g>
</g>
<!-- dra.func_801042C4&#45;&gt;dra.AllocPrimitives -->
<g id="edge2" class="edge">
<title>dra.func_801042C4&#45;&gt;dra.AllocPrimitives</title>
<path fill="none" stroke="black" d="M536.37,-180.25C486.67,-147.97 377.62,-77.13 322.09,-41.05"/>
<polygon fill="black" stroke="black" points="323.94,-38.08 313.65,-35.57 320.13,-43.95 323.94,-38.08"/>
<text text-anchor="middle" x="308.65" y="-39.37" font-family="Times,serif" font-size="14.00">3</text>
</g>
<!-- dra.PlaySfx -->
<g id="node4" class="node">
<title>dra.PlaySfx</title>
<g id="a_node4"><a xlink:href="dra.PlaySfx.svg" xlink:title="dra.PlaySfx">
<ellipse fill="green" stroke="black" cx="470.14" cy="-18" rx="64.19" ry="18"/>
<text text-anchor="middle" x="470.14" y="-14.3" font-family="Times,serif" font-size="14.00">dra.PlaySfx</text>
</a>
</g>
</g>
<!-- dra.func_801042C4&#45;&gt;dra.PlaySfx -->
<g id="edge3" class="edge">
<title>dra.func_801042C4&#45;&gt;dra.PlaySfx</title>
<path fill="none" stroke="black" d="M553.32,-179.93C537.18,-148.7 502.79,-82.17 483.67,-45.18"/>
<polygon fill="black" stroke="black" points="486.64,-43.29 478.94,-36.02 480.42,-46.51 486.64,-43.29"/>
<text text-anchor="middle" x="473.94" y="-39.82" font-family="Times,serif" font-size="14.00">1</text>
</g>
<!-- dra.func_800EA5E4 -->
<g id="node5" class="node">
<title>dra.func_800EA5E4</title>
<g id="a_node5"><a xlink:href="dra.func_800EA5E4.svg" xlink:title="dra.func_800EA5E4">
<ellipse fill="green" stroke="black" cx="655.14" cy="-18" rx="102.88" ry="18"/>
<text text-anchor="middle" x="655.14" y="-14.3" font-family="Times,serif" font-size="14.00">dra.func_800EA5E4</text>
</a>
</g>
</g>
<!-- dra.func_801042C4&#45;&gt;dra.func_800EA5E4 -->
<g id="edge4" class="edge">
<title>dra.func_801042C4&#45;&gt;dra.func_800EA5E4</title>
<path fill="none" stroke="black" d="M571.06,-179.93C587.38,-148.7 622.14,-82.17 641.46,-45.18"/>
<polygon fill="black" stroke="black" points="644.72,-46.5 646.25,-36.02 638.52,-43.26 644.72,-46.5"/>
<text text-anchor="middle" x="641.25" y="-39.82" font-family="Times,serif" font-size="14.00">3</text>
</g>
<!-- dra.func_80103EAC -->
<g id="node6" class="node">
<title>dra.func_80103EAC</title>
<g id="a_node6"><a xlink:href="dra.func_80103EAC.svg" xlink:title="dra.func_80103EAC">
<ellipse fill="green" stroke="black" cx="878.14" cy="-18" rx="102.88" ry="18"/>
<text text-anchor="middle" x="878.14" y="-14.3" font-family="Times,serif" font-size="14.00">dra.func_80103EAC</text>
</a>
</g>
</g>
<!-- dra.func_801042C4&#45;&gt;dra.func_80103EAC -->
<g id="edge5" class="edge">
<title>dra.func_801042C4&#45;&gt;dra.func_80103EAC</title>
<path fill="none" stroke="black" d="M591.02,-180.73C648.24,-148.5 775.98,-76.55 840.02,-40.48"/>
<polygon fill="black" stroke="black" points="841.99,-43.38 848.99,-35.42 838.56,-37.28 841.99,-43.38"/>
<text text-anchor="middle" x="843.99" y="-39.22" font-family="Times,serif" font-size="14.00">1</text>
</g>
<!-- func_80017008 -->
<g id="node7" class="node">
<title>func_80017008</title>
<g id="a_node7"><a xlink:href="func_80017008.svg" xlink:title="func_80017008">
<ellipse fill="lightblue" stroke="black" cx="1081.14" cy="-18" rx="81.79" ry="18"/>
<text text-anchor="middle" x="1081.14" y="-14.3" font-family="Times,serif" font-size="14.00">func_80017008</text>
</a>
</g>
</g>
<!-- dra.func_801042C4&#45;&gt;func_80017008 -->
<g id="edge6" class="edge">
<title>dra.func_801042C4&#45;&gt;func_80017008</title>
<path fill="none" stroke="black" d="M606.84,-181.67C702.72,-148.79 927.65,-71.64 1029.46,-36.73"/>
<polygon fill="black" stroke="black" points="1030.6,-40.04 1038.92,-33.48 1028.32,-33.41 1030.6,-40.04"/>
<text text-anchor="middle" x="1033.92" y="-37.28" font-family="Times,serif" font-size="14.00">2</text>
</g>
<!-- dra.func_800F24F4 -->
<g id="node8" class="node">
<title>dra.func_800F24F4</title>
<g id="a_node8"><a xlink:href="dra.func_800F24F4.svg" xlink:title="dra.func_800F24F4">
<ellipse fill="green" stroke="black" cx="562.14" cy="-378" rx="101.28" ry="18"/>
<text text-anchor="middle" x="562.14" y="-374.3" font-family="Times,serif" font-size="14.00">dra.func_800F24F4</text>
</a>
</g>
</g>
<!-- dra.func_800F24F4&#45;&gt;dra.func_801042C4 -->
<g id="edge7" class="edge">
<title>dra.func_800F24F4&#45;&gt;dra.func_801042C4</title>
<path fill="none" stroke="black" d="M562.14,-359.93C562.14,-328.97 562.14,-263.3 562.14,-226.13"/>
<polygon fill="black" stroke="black" points="565.64,-226.02 562.14,-216.02 558.64,-226.02 565.64,-226.02"/>
<text text-anchor="middle" x="557.14" y="-348.73" font-family="Times,serif" font-size="14.00">1</text>
</g>
</g>
</svg>
