<?xml version="1.0" encoding="UTF-8" standalone="no"?>
<!DOCTYPE svg PUBLIC "-//W3C//DTD SVG 1.1//EN"
 "http://www.w3.org/Graphics/SVG/1.1/DTD/svg11.dtd">
<!-- Generated by graphviz version 2.43.0 (0)
 -->
<!-- Title: dra.SetPlayerAnim Pages: 1 -->
<svg width="11664pt" height="224pt"
 viewBox="0.00 0.00 11664.23 224.00" xmlns="http://www.w3.org/2000/svg" xmlns:xlink="http://www.w3.org/1999/xlink">
<g id="graph0" class="graph" transform="scale(1 1) rotate(0) translate(4 220)">
<title>dra.SetPlayerAnim</title>
<polygon fill="white" stroke="transparent" points="-4,4 -4,-220 11660.23,-220 11660.23,4 -4,4"/>
<!-- dra.SetPlayerAnim -->
<g id="node1" class="node">
<title>dra.SetPlayerAnim</title>
<ellipse fill="green" stroke="black" cx="6197.84" cy="-18" rx="98.58" ry="18"/>
<text text-anchor="middle" x="6197.84" y="-14.3" font-family="Times,serif" font-size="14.00">dra.SetPlayerAnim</text>
</g>
<!-- dra.AlucardHandleDamage -->
<g id="node2" class="node">
<title>dra.AlucardHandleDamage</title>
<g id="a_node2"><a xlink:href="dra.AlucardHandleDamage.svg" xlink:title="dra.AlucardHandleDamage">
<ellipse fill="green" stroke="black" cx="135.84" cy="-198" rx="135.68" ry="18"/>
<text text-anchor="middle" x="135.84" y="-194.3" font-family="Times,serif" font-size="14.00">dra.AlucardHandleDamage</text>
</a>
</g>
</g>
<!-- dra.AlucardHandleDamage&#45;&gt;dra.SetPlayerAnim -->
<g id="edge1" class="edge">
<title>dra.AlucardHandleDamage&#45;&gt;dra.SetPlayerAnim</title>
<path fill="none" stroke="black" d="M228.93,-184.84C246.16,-182.94 264.03,-181.21 280.84,-180 1473.57,-94.03 5387.97,-31.31 6089.65,-20.62"/>
<polygon fill="black" stroke="black" points="6089.8,-24.12 6099.75,-20.46 6089.69,-17.12 6089.8,-24.12"/>
<text text-anchor="middle" x="223.93" y="-173.64" font-family="Times,serif" font-size="14.00">4</text>
</g>
<!-- dra.BatFormFinished -->
<g id="node3" class="node">
<title>dra.BatFormFinished</title>
<g id="a_node3"><a xlink:href="dra.BatFormFinished.svg" xlink:title="dra.BatFormFinished">
<ellipse fill="green" stroke="black" cx="399.84" cy="-198" rx="109.68" ry="18"/>
<text text-anchor="middle" x="399.84" y="-194.3" font-family="Times,serif" font-size="14.00">dra.BatFormFinished</text>
</a>
</g>
</g>
<!-- dra.BatFormFinished&#45;&gt;dra.SetPlayerAnim -->
<g id="edge2" class="edge">
<title>dra.BatFormFinished&#45;&gt;dra.SetPlayerAnim</title>
<path fill="none" stroke="black" d="M475.23,-184.82C489.35,-182.92 504.02,-181.19 517.84,-180 1659.16,-81.94 5404.21,-29.3 6089.61,-20.37"/>
<polygon fill="black" stroke="black" points="6089.77,-23.87 6099.72,-20.24 6089.68,-16.87 6089.77,-23.87"/>
<text text-anchor="middle" x="470.23" y="-173.62" font-family="Times,serif" font-size="14.00">1</text>
</g>
<!-- dra.ControlBatForm -->
<g id="node4" class="node">
<title>dra.ControlBatForm</title>
<g id="a_node4"><a xlink:href="dra.ControlBatForm.svg" xlink:title="dra.ControlBatForm">
<ellipse fill="green" stroke="black" cx="631.84" cy="-198" rx="104.78" ry="18"/>
<text text-anchor="middle" x="631.84" y="-194.3" font-family="Times,serif" font-size="14.00">dra.ControlBatForm</text>
</a>
</g>
</g>
<!-- dra.ControlBatForm&#45;&gt;dra.SetPlayerAnim -->
<g id="edge3" class="edge">
<title>dra.ControlBatForm&#45;&gt;dra.SetPlayerAnim</title>
<path fill="none" stroke="black" d="M704.05,-184.91C717.89,-182.97 732.28,-181.21 745.84,-180 1838.75,-82.72 5420.71,-29.63 6089.7,-20.44"/>
<polygon fill="black" stroke="black" points="6089.86,-23.94 6099.81,-20.3 6089.77,-16.94 6089.86,-23.94"/>
<text text-anchor="middle" x="699.05" y="-173.71" font-family="Times,serif" font-size="14.00">6</text>
</g>
<!-- dra.ControlMistForm -->
<g id="node5" class="node">
<title>dra.ControlMistForm</title>
<g id="a_node5"><a xlink:href="dra.ControlMistForm.svg" xlink:title="dra.ControlMistForm">
<ellipse fill="green" stroke="black" cx="863.84" cy="-198" rx="109.38" ry="18"/>
<text text-anchor="middle" x="863.84" y="-194.3" font-family="Times,serif" font-size="14.00">dra.ControlMistForm</text>
</a>
</g>
</g>
<!-- dra.ControlMistForm&#45;&gt;dra.SetPlayerAnim -->
<g id="edge4" class="edge">
<title>dra.ControlMistForm&#45;&gt;dra.SetPlayerAnim</title>
<path fill="none" stroke="black" d="M938.91,-184.9C953.14,-182.97 967.92,-181.21 981.84,-180 2025.01,-89.05 5437.1,-31.08 6089.49,-20.68"/>
<polygon fill="black" stroke="black" points="6089.87,-24.18 6099.82,-20.52 6089.76,-17.18 6089.87,-24.18"/>
<text text-anchor="middle" x="933.91" y="-173.7" font-family="Times,serif" font-size="14.00">1</text>
</g>
<!-- dra.DoGravityJump -->
<g id="node6" class="node">
<title>dra.DoGravityJump</title>
<g id="a_node6"><a xlink:href="dra.DoGravityJump.svg" xlink:title="dra.DoGravityJump">
<ellipse fill="green" stroke="black" cx="1091.84" cy="-198" rx="100.98" ry="18"/>
<text text-anchor="middle" x="1091.84" y="-194.3" font-family="Times,serif" font-size="14.00">dra.DoGravityJump</text>
</a>
</g>
</g>
<!-- dra.DoGravityJump&#45;&gt;dra.SetPlayerAnim -->
<g id="edge5" class="edge">
<title>dra.DoGravityJump&#45;&gt;dra.SetPlayerAnim</title>
<path fill="none" stroke="black" d="M1161.16,-184.88C1174.3,-182.96 1187.97,-181.21 1200.84,-180 2197.38,-86.59 5454,-30.82 6089.69,-20.68"/>
<polygon fill="black" stroke="black" points="6089.82,-24.18 6099.76,-20.52 6089.71,-17.18 6089.82,-24.18"/>
<text text-anchor="middle" x="1156.16" y="-173.68" font-family="Times,serif" font-size="14.00">1</text>
</g>
<!-- dra.EntityAlucard -->
<g id="node7" class="node">
<title>dra.EntityAlucard</title>
<g id="a_node7"><a xlink:href="dra.EntityAlucard.svg" xlink:title="dra.EntityAlucard">
<ellipse fill="green" stroke="black" cx="1303.84" cy="-198" rx="93.68" ry="18"/>
<text text-anchor="middle" x="1303.84" y="-194.3" font-family="Times,serif" font-size="14.00">dra.EntityAlucard</text>
</a>
</g>
</g>
<!-- dra.EntityAlucard&#45;&gt;dra.SetPlayerAnim -->
<g id="edge6" class="edge">
<title>dra.EntityAlucard&#45;&gt;dra.SetPlayerAnim</title>
<path fill="none" stroke="black" d="M1368.78,-184.97C1381.37,-183.01 1394.48,-181.22 1406.84,-180 2359.58,-85.77 5469.6,-30.87 6089.71,-20.72"/>
<polygon fill="black" stroke="black" points="6090.03,-24.22 6099.97,-20.55 6089.92,-17.22 6090.03,-24.22"/>
<text text-anchor="middle" x="1363.78" y="-173.77" font-family="Times,serif" font-size="14.00">1</text>
</g>
<!-- dra.PerformDarkMetamorphosis -->
<g id="node8" class="node">
<title>dra.PerformDarkMetamorphosis</title>
<g id="a_node8"><a xlink:href="dra.PerformDarkMetamorphosis.svg" xlink:title="dra.PerformDarkMetamorphosis">
<ellipse fill="green" stroke="black" cx="1576.84" cy="-198" rx="161.37" ry="18"/>
<text text-anchor="middle" x="1576.84" y="-194.3" font-family="Times,serif" font-size="14.00">dra.PerformDarkMetamorphosis</text>
</a>
</g>
</g>
<!-- dra.PerformDarkMetamorphosis&#45;&gt;dra.SetPlayerAnim -->
<g id="edge7" class="edge">
<title>dra.PerformDarkMetamorphosis&#45;&gt;dra.SetPlayerAnim</title>
<path fill="none" stroke="black" d="M1687.86,-184.87C1707.49,-183.02 1727.75,-181.3 1746.84,-180 3477,-62.32 5591.73,-27.27 6089.38,-20.38"/>
<polygon fill="black" stroke="black" points="6089.48,-23.88 6099.43,-20.25 6089.38,-16.88 6089.48,-23.88"/>
<text text-anchor="middle" x="1682.86" y="-173.67" font-family="Times,serif" font-size="14.00">1</text>
</g>
<!-- dra.PerformSoulSteal -->
<g id="node9" class="node">
<title>dra.PerformSoulSteal</title>
<g id="a_node9"><a xlink:href="dra.PerformSoulSteal.svg" xlink:title="dra.PerformSoulSteal">
<ellipse fill="green" stroke="black" cx="1866.84" cy="-198" rx="111.28" ry="18"/>
<text text-anchor="middle" x="1866.84" y="-194.3" font-family="Times,serif" font-size="14.00">dra.PerformSoulSteal</text>
</a>
</g>
</g>
<!-- dra.PerformSoulSteal&#45;&gt;dra.SetPlayerAnim -->
<g id="edge8" class="edge">
<title>dra.PerformSoulSteal&#45;&gt;dra.SetPlayerAnim</title>
<path fill="none" stroke="black" d="M1943.52,-184.94C1957.89,-183.02 1972.8,-181.26 1986.84,-180 3613.86,-34.04 5606.15,-20.21 6088.8,-19.06"/>
<polygon fill="black" stroke="black" points="6088.91,-22.56 6098.9,-19.04 6088.89,-15.56 6088.91,-22.56"/>
<text text-anchor="middle" x="1938.52" y="-173.74" font-family="Times,serif" font-size="14.00">1</text>
</g>
<!-- dra.PerformSummonSpirit -->
<g id="node10" class="node">
<title>dra.PerformSummonSpirit</title>
<g id="a_node10"><a xlink:href="dra.PerformSummonSpirit.svg" xlink:title="dra.PerformSummonSpirit">
<ellipse fill="green" stroke="black" cx="2129.84" cy="-198" rx="133.78" ry="18"/>
<text text-anchor="middle" x="2129.84" y="-194.3" font-family="Times,serif" font-size="14.00">dra.PerformSummonSpirit</text>
</a>
</g>
</g>
<!-- dra.PerformSummonSpirit&#45;&gt;dra.SetPlayerAnim -->
<g id="edge9" class="edge">
<title>dra.PerformSummonSpirit&#45;&gt;dra.SetPlayerAnim</title>
<path fill="none" stroke="black" d="M2222.43,-184.93C2239.18,-183.05 2256.51,-181.3 2272.84,-180 3782.88,-59.45 5627.35,-26.89 6089.13,-20.38"/>
<polygon fill="black" stroke="black" points="6089.51,-23.87 6099.46,-20.23 6089.41,-16.88 6089.51,-23.87"/>
<text text-anchor="middle" x="2217.43" y="-173.73" font-family="Times,serif" font-size="14.00">1</text>
</g>
<!-- dra.PerformSwordBrothers -->
<g id="node11" class="node">
<title>dra.PerformSwordBrothers</title>
<g id="a_node11"><a xlink:href="dra.PerformSwordBrothers.svg" xlink:title="dra.PerformSwordBrothers">
<ellipse fill="green" stroke="black" cx="2419.84" cy="-198" rx="137.58" ry="18"/>
<text text-anchor="middle" x="2419.84" y="-194.3" font-family="Times,serif" font-size="14.00">dra.PerformSwordBrothers</text>
</a>
</g>
</g>
<!-- dra.PerformSwordBrothers&#45;&gt;dra.SetPlayerAnim -->
<g id="edge10" class="edge">
<title>dra.PerformSwordBrothers&#45;&gt;dra.SetPlayerAnim</title>
<path fill="none" stroke="black" d="M2514.77,-184.95C2531.75,-183.08 2549.3,-181.33 2565.84,-180 3955.54,-68.44 5651.04,-29.53 6090.02,-20.96"/>
<polygon fill="black" stroke="black" points="6090.23,-24.46 6100.16,-20.76 6090.09,-17.46 6090.23,-24.46"/>
<text text-anchor="middle" x="2509.77" y="-173.75" font-family="Times,serif" font-size="14.00">1</text>
</g>
<!-- dra.PerformTetraSpirit -->
<g id="node12" class="node">
<title>dra.PerformTetraSpirit</title>
<g id="a_node12"><a xlink:href="dra.PerformTetraSpirit.svg" xlink:title="dra.PerformTetraSpirit">
<ellipse fill="green" stroke="black" cx="2692.84" cy="-198" rx="117.78" ry="18"/>
<text text-anchor="middle" x="2692.84" y="-194.3" font-family="Times,serif" font-size="14.00">dra.PerformTetraSpirit</text>
</a>
</g>
</g>
<!-- dra.PerformTetraSpirit&#45;&gt;dra.SetPlayerAnim -->
<g id="edge11" class="edge">
<title>dra.PerformTetraSpirit&#45;&gt;dra.SetPlayerAnim</title>
<path fill="none" stroke="black" d="M2774.7,-185C2789.69,-183.1 2805.22,-181.32 2819.84,-180 4103.49,-63.71 5669.66,-28.47 6089.85,-20.79"/>
<polygon fill="black" stroke="black" points="6089.93,-24.29 6099.86,-20.61 6089.8,-17.29 6089.93,-24.29"/>
<text text-anchor="middle" x="2769.7" y="-173.8" font-family="Times,serif" font-size="14.00">1</text>
</g>
<!-- dra.PlayerStepBossGrab -->
<g id="node13" class="node">
<title>dra.PlayerStepBossGrab</title>
<g id="a_node13"><a xlink:href="dra.PlayerStepBossGrab.svg" xlink:title="dra.PlayerStepBossGrab">
<ellipse fill="green" stroke="black" cx="2953.84" cy="-198" rx="125.38" ry="18"/>
<text text-anchor="middle" x="2953.84" y="-194.3" font-family="Times,serif" font-size="14.00">dra.PlayerStepBossGrab</text>
</a>
</g>
</g>
<!-- dra.PlayerStepBossGrab&#45;&gt;dra.SetPlayerAnim -->
<g id="edge12" class="edge">
<title>dra.PlayerStepBossGrab&#45;&gt;dra.SetPlayerAnim</title>
<path fill="none" stroke="black" d="M3040.95,-184.99C3056.54,-183.12 3072.66,-181.35 3087.84,-180 4262.12,-75.26 5692.36,-32.14 6090.53,-21.66"/>
<polygon fill="black" stroke="black" points="6090.69,-25.16 6100.59,-21.4 6090.5,-18.16 6090.69,-25.16"/>
<text text-anchor="middle" x="3035.95" y="-173.79" font-family="Times,serif" font-size="14.00">1</text>
</g>
<!-- dra.PlayerStepCrouch -->
<g id="node14" class="node">
<title>dra.PlayerStepCrouch</title>
<g id="a_node14"><a xlink:href="dra.PlayerStepCrouch.svg" xlink:title="dra.PlayerStepCrouch">
<ellipse fill="green" stroke="black" cx="3210.84" cy="-198" rx="113.98" ry="18"/>
<text text-anchor="middle" x="3210.84" y="-194.3" font-family="Times,serif" font-size="14.00">dra.PlayerStepCrouch</text>
</a>
</g>
</g>
<!-- dra.PlayerStepCrouch&#45;&gt;dra.SetPlayerAnim -->
<g id="edge13" class="edge">
<title>dra.PlayerStepCrouch&#45;&gt;dra.SetPlayerAnim</title>
<path fill="none" stroke="black" d="M3290.13,-185.08C3304.64,-183.17 3319.68,-181.37 3333.84,-180 4406.8,-75.87 5712.94,-32.72 6090.78,-21.88"/>
<polygon fill="black" stroke="black" points="6090.99,-25.38 6100.89,-21.59 6090.79,-18.38 6090.99,-25.38"/>
<text text-anchor="middle" x="3285.13" y="-173.88" font-family="Times,serif" font-size="14.00">5</text>
</g>
<!-- dra.PlayerStepHellfire -->
<g id="node15" class="node">
<title>dra.PlayerStepHellfire</title>
<g id="a_node15"><a xlink:href="dra.PlayerStepHellfire.svg" xlink:title="dra.PlayerStepHellfire">
<ellipse fill="green" stroke="black" cx="3457.84" cy="-198" rx="115.08" ry="18"/>
<text text-anchor="middle" x="3457.84" y="-194.3" font-family="Times,serif" font-size="14.00">dra.PlayerStepHellfire</text>
</a>
</g>
</g>
<!-- dra.PlayerStepHellfire&#45;&gt;dra.SetPlayerAnim -->
<g id="edge14" class="edge">
<title>dra.PlayerStepHellfire&#45;&gt;dra.SetPlayerAnim</title>
<path fill="none" stroke="black" d="M3538.11,-185.1C3552.64,-183.2 3567.67,-181.4 3581.84,-180 4554.23,-83.56 5736.06,-35.63 6091.69,-22.68"/>
<polygon fill="black" stroke="black" points="6091.85,-26.18 6101.72,-22.32 6091.6,-19.18 6091.85,-26.18"/>
<text text-anchor="middle" x="3533.11" y="-173.9" font-family="Times,serif" font-size="14.00">4</text>
</g>
<!-- dra.PlayerStepHighJump -->
<g id="node16" class="node">
<title>dra.PlayerStepHighJump</title>
<g id="a_node16"><a xlink:href="dra.PlayerStepHighJump.svg" xlink:title="dra.PlayerStepHighJump">
<ellipse fill="green" stroke="black" cx="3717.84" cy="-198" rx="126.98" ry="18"/>
<text text-anchor="middle" x="3717.84" y="-194.3" font-family="Times,serif" font-size="14.00">dra.PlayerStepHighJump</text>
</a>
</g>
</g>
<!-- dra.PlayerStepHighJump&#45;&gt;dra.SetPlayerAnim -->
<g id="edge15" class="edge">
<title>dra.PlayerStepHighJump&#45;&gt;dra.SetPlayerAnim</title>
<path fill="none" stroke="black" d="M3806.71,-185.08C3822.08,-183.23 3837.91,-181.45 3852.84,-180 4716.88,-96 5764.23,-40.43 6093.57,-24.04"/>
<polygon fill="black" stroke="black" points="6093.76,-27.54 6103.58,-23.55 6093.41,-20.55 6093.76,-27.54"/>
<text text-anchor="middle" x="3801.71" y="-173.88" font-family="Times,serif" font-size="14.00">4</text>
</g>
<!-- dra.PlayerStepJump -->
<g id="node17" class="node">
<title>dra.PlayerStepJump</title>
<g id="a_node17"><a xlink:href="dra.PlayerStepJump.svg" xlink:title="dra.PlayerStepJump">
<ellipse fill="green" stroke="black" cx="3966.84" cy="-198" rx="104.78" ry="18"/>
<text text-anchor="middle" x="3966.84" y="-194.3" font-family="Times,serif" font-size="14.00">dra.PlayerStepJump</text>
</a>
</g>
</g>
<!-- dra.PlayerStepJump&#45;&gt;dra.SetPlayerAnim -->
<g id="edge16" class="edge">
<title>dra.PlayerStepJump&#45;&gt;dra.SetPlayerAnim</title>
<path fill="none" stroke="black" d="M4040.63,-185.2C4053.99,-183.29 4067.81,-181.46 4080.84,-180 4851.59,-93.34 5785.58,-40.37 6093.71,-24.25"/>
<polygon fill="black" stroke="black" points="6094.17,-27.73 6103.97,-23.72 6093.8,-20.74 6094.17,-27.73"/>
<text text-anchor="middle" x="4035.63" y="-174" font-family="Times,serif" font-size="14.00">6</text>
</g>
<!-- dra.PlayerStepKill -->
<g id="node18" class="node">
<title>dra.PlayerStepKill</title>
<g id="a_node18"><a xlink:href="dra.PlayerStepKill.svg" xlink:title="dra.PlayerStepKill">
<ellipse fill="green" stroke="black" cx="4185.84" cy="-198" rx="96.38" ry="18"/>
<text text-anchor="middle" x="4185.84" y="-194.3" font-family="Times,serif" font-size="14.00">dra.PlayerStepKill</text>
</a>
</g>
</g>
<!-- dra.PlayerStepKill&#45;&gt;dra.SetPlayerAnim -->
<g id="edge17" class="edge">
<title>dra.PlayerStepKill&#45;&gt;dra.SetPlayerAnim</title>
<path fill="none" stroke="black" d="M4253.79,-185.22C4266.1,-183.31 4278.83,-181.48 4290.84,-180 4976.94,-95.62 5807.41,-42.05 6094.42,-24.95"/>
<polygon fill="black" stroke="black" points="6095.03,-28.42 6104.81,-24.33 6094.62,-21.43 6095.03,-28.42"/>
<text text-anchor="middle" x="4248.79" y="-174.02" font-family="Times,serif" font-size="14.00">1</text>
</g>
<!-- dra.PlayerStepStand -->
<g id="node19" class="node">
<title>dra.PlayerStepStand</title>
<g id="a_node19"><a xlink:href="dra.PlayerStepStand.svg" xlink:title="dra.PlayerStepStand">
<ellipse fill="green" stroke="black" cx="4407.84" cy="-198" rx="107.78" ry="18"/>
<text text-anchor="middle" x="4407.84" y="-194.3" font-family="Times,serif" font-size="14.00">dra.PlayerStepStand</text>
</a>
</g>
</g>
<!-- dra.PlayerStepStand&#45;&gt;dra.SetPlayerAnim -->
<g id="edge18" class="edge">
<title>dra.PlayerStepStand&#45;&gt;dra.SetPlayerAnim</title>
<path fill="none" stroke="black" d="M4484.55,-185.31C4497.96,-183.42 4511.8,-181.57 4524.84,-180 5121.24,-108.02 5840.38,-47.69 6099.13,-26.82"/>
<polygon fill="black" stroke="black" points="6099.57,-30.3 6109.25,-26.01 6099,-23.32 6099.57,-30.3"/>
<text text-anchor="middle" x="4479.55" y="-174.11" font-family="Times,serif" font-size="14.00">8</text>
</g>
<!-- dra.PlayerStepStoned -->
<g id="node20" class="node">
<title>dra.PlayerStepStoned</title>
<g id="a_node20"><a xlink:href="dra.PlayerStepStoned.svg" xlink:title="dra.PlayerStepStoned">
<ellipse fill="green" stroke="black" cx="4646.84" cy="-198" rx="113.18" ry="18"/>
<text text-anchor="middle" x="4646.84" y="-194.3" font-family="Times,serif" font-size="14.00">dra.PlayerStepStoned</text>
</a>
</g>
</g>
<!-- dra.PlayerStepStoned&#45;&gt;dra.SetPlayerAnim -->
<g id="edge19" class="edge">
<title>dra.PlayerStepStoned&#45;&gt;dra.SetPlayerAnim</title>
<path fill="none" stroke="black" d="M4727.84,-185.41C4741.52,-183.54 4755.58,-181.67 4768.84,-180 5271.38,-116.69 5874.89,-52.61 6103.71,-28.74"/>
<polygon fill="black" stroke="black" points="6104.41,-32.19 6113.99,-27.67 6103.68,-25.22 6104.41,-32.19"/>
<text text-anchor="middle" x="4722.84" y="-174.21" font-family="Times,serif" font-size="14.00">3</text>
</g>
<!-- dra.PlayerStepStuck -->
<g id="node21" class="node">
<title>dra.PlayerStepStuck</title>
<g id="a_node21"><a xlink:href="dra.PlayerStepStuck.svg" xlink:title="dra.PlayerStepStuck">
<ellipse fill="green" stroke="black" cx="4884.84" cy="-198" rx="106.68" ry="18"/>
<text text-anchor="middle" x="4884.84" y="-194.3" font-family="Times,serif" font-size="14.00">dra.PlayerStepStuck</text>
</a>
</g>
</g>
<!-- dra.PlayerStepStuck&#45;&gt;dra.SetPlayerAnim -->
<g id="edge20" class="edge">
<title>dra.PlayerStepStuck&#45;&gt;dra.SetPlayerAnim</title>
<path fill="none" stroke="black" d="M4961.83,-185.48C4974.53,-183.62 4987.55,-181.73 4999.84,-180 5414.97,-121.42 5911.75,-56.22 6109.94,-30.41"/>
<polygon fill="black" stroke="black" points="6110.54,-33.86 6120,-29.1 6109.63,-26.92 6110.54,-33.86"/>
<text text-anchor="middle" x="4956.83" y="-174.28" font-family="Times,serif" font-size="14.00">2</text>
</g>
<!-- dra.PlayerStepUnmorphMist -->
<g id="node22" class="node">
<title>dra.PlayerStepUnmorphMist</title>
<g id="a_node22"><a xlink:href="dra.PlayerStepUnmorphMist.svg" xlink:title="dra.PlayerStepUnmorphMist">
<ellipse fill="green" stroke="black" cx="5154.84" cy="-198" rx="145.67" ry="18"/>
<text text-anchor="middle" x="5154.84" y="-194.3" font-family="Times,serif" font-size="14.00">dra.PlayerStepUnmorphMist</text>
</a>
</g>
</g>
<!-- dra.PlayerStepUnmorphMist&#45;&gt;dra.SetPlayerAnim -->
<g id="edge21" class="edge">
<title>dra.PlayerStepUnmorphMist&#45;&gt;dra.SetPlayerAnim</title>
<path fill="none" stroke="black" d="M5236.68,-183.03C5432.24,-149.66 5924.72,-65.61 6118.11,-32.61"/>
<polygon fill="black" stroke="black" points="6118.93,-36.02 6128.2,-30.88 6117.76,-29.12 6118.93,-36.02"/>
<text text-anchor="middle" x="5231.68" y="-171.83" font-family="Times,serif" font-size="14.00">2</text>
</g>
<!-- dra.PlayerStepUnmorphWolf -->
<g id="node23" class="node">
<title>dra.PlayerStepUnmorphWolf</title>
<g id="a_node23"><a xlink:href="dra.PlayerStepUnmorphWolf.svg" xlink:title="dra.PlayerStepUnmorphWolf">
<ellipse fill="green" stroke="black" cx="5463.84" cy="-198" rx="144.87" ry="18"/>
<text text-anchor="middle" x="5463.84" y="-194.3" font-family="Times,serif" font-size="14.00">dra.PlayerStepUnmorphWolf</text>
</a>
</g>
</g>
<!-- dra.PlayerStepUnmorphWolf&#45;&gt;dra.SetPlayerAnim -->
<g id="edge22" class="edge">
<title>dra.PlayerStepUnmorphWolf&#45;&gt;dra.SetPlayerAnim</title>
<path fill="none" stroke="black" d="M5526.74,-181.75C5664.23,-148.4 5990.49,-69.28 6131.27,-35.14"/>
<polygon fill="black" stroke="black" points="6132.19,-38.52 6141.08,-32.76 6130.54,-31.72 6132.19,-38.52"/>
<text text-anchor="middle" x="5521.74" y="-170.55" font-family="Times,serif" font-size="14.00">1</text>
</g>
<!-- dra.WolfFormFinished -->
<g id="node24" class="node">
<title>dra.WolfFormFinished</title>
<g id="a_node24"><a xlink:href="dra.WolfFormFinished.svg" xlink:title="dra.WolfFormFinished">
<ellipse fill="green" stroke="black" cx="5740.84" cy="-198" rx="114.28" ry="18"/>
<text text-anchor="middle" x="5740.84" y="-194.3" font-family="Times,serif" font-size="14.00">dra.WolfFormFinished</text>
</a>
</g>
</g>
<!-- dra.WolfFormFinished&#45;&gt;dra.SetPlayerAnim -->
<g id="edge23" class="edge">
<title>dra.WolfFormFinished&#45;&gt;dra.SetPlayerAnim</title>
<path fill="none" stroke="black" d="M5781.8,-181.05C5865.82,-148.32 6057.41,-73.7 6148.27,-38.31"/>
<polygon fill="black" stroke="black" points="6149.74,-41.49 6157.79,-34.6 6147.2,-34.97 6149.74,-41.49"/>
<text text-anchor="middle" x="5776.8" y="-169.85" font-family="Times,serif" font-size="14.00">1</text>
</g>
<!-- dra.func_8010E42C -->
<g id="node25" class="node">
<title>dra.func_8010E42C</title>
<g id="a_node25"><a xlink:href="dra.func_8010E42C.svg" xlink:title="dra.func_8010E42C">
<ellipse fill="green" stroke="black" cx="5975.84" cy="-198" rx="102.88" ry="18"/>
<text text-anchor="middle" x="5975.84" y="-194.3" font-family="Times,serif" font-size="14.00">dra.func_8010E42C</text>
</a>
</g>
</g>
<!-- dra.func_8010E42C&#45;&gt;dra.SetPlayerAnim -->
<g id="edge24" class="edge">
<title>dra.func_8010E42C&#45;&gt;dra.SetPlayerAnim</title>
<path fill="none" stroke="black" d="M5996.72,-180.25C6036.56,-148.32 6123.45,-78.65 6168.87,-42.23"/>
<polygon fill="black" stroke="black" points="6171.23,-44.82 6176.85,-35.83 6166.86,-39.36 6171.23,-44.82"/>
<text text-anchor="middle" x="5991.72" y="-169.05" font-family="Times,serif" font-size="14.00">1</text>
</g>
<!-- dra.func_8010E470 -->
<g id="node26" class="node">
<title>dra.func_8010E470</title>
<g id="a_node26"><a xlink:href="dra.func_8010E470.svg" xlink:title="dra.func_8010E470">
<ellipse fill="green" stroke="black" cx="6197.84" cy="-198" rx="101.28" ry="18"/>
<text text-anchor="middle" x="6197.84" y="-194.3" font-family="Times,serif" font-size="14.00">dra.func_8010E470</text>
</a>
</g>
</g>
<!-- dra.func_8010E470&#45;&gt;dra.SetPlayerAnim -->
<g id="edge25" class="edge">
<title>dra.func_8010E470&#45;&gt;dra.SetPlayerAnim</title>
<path fill="none" stroke="black" d="M6197.84,-179.93C6197.84,-148.97 6197.84,-83.3 6197.84,-46.13"/>
<polygon fill="black" stroke="black" points="6201.34,-46.02 6197.84,-36.02 6194.34,-46.02 6201.34,-46.02"/>
<text text-anchor="middle" x="6192.84" y="-168.73" font-family="Times,serif" font-size="14.00">1</text>
</g>
<!-- dra.func_8010E4D0 -->
<g id="node27" class="node">
<title>dra.func_8010E4D0</title>
<g id="a_node27"><a xlink:href="dra.func_8010E4D0.svg" xlink:title="dra.func_8010E4D0">
<ellipse fill="green" stroke="black" cx="6419.84" cy="-198" rx="102.88" ry="18"/>
<text text-anchor="middle" x="6419.84" y="-194.3" font-family="Times,serif" font-size="14.00">dra.func_8010E4D0</text>
</a>
</g>
</g>
<!-- dra.func_8010E4D0&#45;&gt;dra.SetPlayerAnim -->
<g id="edge26" class="edge">
<title>dra.func_8010E4D0&#45;&gt;dra.SetPlayerAnim</title>
<path fill="none" stroke="black" d="M6398.95,-180.25C6359.12,-148.32 6272.23,-78.65 6226.81,-42.23"/>
<polygon fill="black" stroke="black" points="6228.82,-39.36 6218.83,-35.83 6224.44,-44.82 6228.82,-39.36"/>
<text text-anchor="middle" x="6393.95" y="-169.05" font-family="Times,serif" font-size="14.00">1</text>
</g>
<!-- dra.func_8010E570 -->
<g id="node28" class="node">
<title>dra.func_8010E570</title>
<g id="a_node28"><a xlink:href="dra.func_8010E570.svg" xlink:title="dra.func_8010E570">
<ellipse fill="green" stroke="black" cx="6641.84" cy="-198" rx="101.28" ry="18"/>
<text text-anchor="middle" x="6641.84" y="-194.3" font-family="Times,serif" font-size="14.00">dra.func_8010E570</text>
</a>
</g>
</g>
<!-- dra.func_8010E570&#45;&gt;dra.SetPlayerAnim -->
<g id="edge27" class="edge">
<title>dra.func_8010E570&#45;&gt;dra.SetPlayerAnim</title>
<path fill="none" stroke="black" d="M6602.83,-181.36C6521.67,-148.82 6334.85,-73.93 6246.21,-38.39"/>
<polygon fill="black" stroke="black" points="6247.51,-35.14 6236.92,-34.67 6244.9,-41.64 6247.51,-35.14"/>
<text text-anchor="middle" x="6597.83" y="-170.16" font-family="Times,serif" font-size="14.00">1</text>
</g>
<!-- dra.func_8010E6AC -->
<g id="node29" class="node">
<title>dra.func_8010E6AC</title>
<g id="a_node29"><a xlink:href="dra.func_8010E6AC.svg" xlink:title="dra.func_8010E6AC">
<ellipse fill="green" stroke="black" cx="6863.84" cy="-198" rx="102.88" ry="18"/>
<text text-anchor="middle" x="6863.84" y="-194.3" font-family="Times,serif" font-size="14.00">dra.func_8010E6AC</text>
</a>
</g>
</g>
<!-- dra.func_8010E6AC&#45;&gt;dra.SetPlayerAnim -->
<g id="edge28" class="edge">
<title>dra.func_8010E6AC&#45;&gt;dra.SetPlayerAnim</title>
<path fill="none" stroke="black" d="M6809.9,-182.58C6687.97,-150 6391.6,-70.79 6261.2,-35.93"/>
<polygon fill="black" stroke="black" points="6261.91,-32.5 6251.35,-33.3 6260.11,-39.27 6261.91,-32.5"/>
<text text-anchor="middle" x="6804.9" y="-171.38" font-family="Times,serif" font-size="14.00">2</text>
</g>
<!-- dra.func_8010E7AC -->
<g id="node30" class="node">
<title>dra.func_8010E7AC</title>
<g id="a_node30"><a xlink:href="dra.func_8010E7AC.svg" xlink:title="dra.func_8010E7AC">
<ellipse fill="green" stroke="black" cx="7086.84" cy="-198" rx="102.88" ry="18"/>
<text text-anchor="middle" x="7086.84" y="-194.3" font-family="Times,serif" font-size="14.00">dra.func_8010E7AC</text>
</a>
</g>
</g>
<!-- dra.func_8010E7AC&#45;&gt;dra.SetPlayerAnim -->
<g id="edge29" class="edge">
<title>dra.func_8010E7AC&#45;&gt;dra.SetPlayerAnim</title>
<path fill="none" stroke="black" d="M7021.83,-183.98C6860.33,-151.65 6441.69,-67.83 6271.45,-33.74"/>
<polygon fill="black" stroke="black" points="6272.07,-30.29 6261.58,-31.76 6270.7,-37.16 6272.07,-30.29"/>
<text text-anchor="middle" x="7016.83" y="-172.78" font-family="Times,serif" font-size="14.00">1</text>
</g>
<!-- dra.func_8010E83C -->
<g id="node31" class="node">
<title>dra.func_8010E83C</title>
<g id="a_node31"><a xlink:href="dra.func_8010E83C.svg" xlink:title="dra.func_8010E83C">
<ellipse fill="green" stroke="black" cx="7309.84" cy="-198" rx="102.88" ry="18"/>
<text text-anchor="middle" x="7309.84" y="-194.3" font-family="Times,serif" font-size="14.00">dra.func_8010E83C</text>
</a>
</g>
</g>
<!-- dra.func_8010E83C&#45;&gt;dra.SetPlayerAnim -->
<g id="edge30" class="edge">
<title>dra.func_8010E83C&#45;&gt;dra.SetPlayerAnim</title>
<path fill="none" stroke="black" d="M7236.88,-185.32C7038.16,-153.51 6488.28,-65.49 6279.6,-32.09"/>
<polygon fill="black" stroke="black" points="6280.05,-28.62 6269.62,-30.49 6278.94,-35.53 6280.05,-28.62"/>
<text text-anchor="middle" x="7231.88" y="-174.12" font-family="Times,serif" font-size="14.00">2</text>
</g>
<!-- dra.func_8010E940 -->
<g id="node32" class="node">
<title>dra.func_8010E940</title>
<g id="a_node32"><a xlink:href="dra.func_8010E940.svg" xlink:title="dra.func_8010E940">
<ellipse fill="green" stroke="black" cx="7531.84" cy="-198" rx="101.28" ry="18"/>
<text text-anchor="middle" x="7531.84" y="-194.3" font-family="Times,serif" font-size="14.00">dra.func_8010E940</text>
</a>
</g>
</g>
<!-- dra.func_8010E940&#45;&gt;dra.SetPlayerAnim -->
<g id="edge31" class="edge">
<title>dra.func_8010E940&#45;&gt;dra.SetPlayerAnim</title>
<path fill="none" stroke="black" d="M7458.8,-185.48C7446.47,-183.6 7433.79,-181.71 7421.84,-180 6997.5,-119.31 6489.12,-55.18 6287.01,-30.03"/>
<polygon fill="black" stroke="black" points="6287.4,-26.55 6277.04,-28.79 6286.53,-33.5 6287.4,-26.55"/>
<text text-anchor="middle" x="7453.8" y="-174.28" font-family="Times,serif" font-size="14.00">1</text>
</g>
<!-- dra.func_8010EB5C -->
<g id="node33" class="node">
<title>dra.func_8010EB5C</title>
<g id="a_node33"><a xlink:href="dra.func_8010EB5C.svg" xlink:title="dra.func_8010EB5C">
<ellipse fill="green" stroke="black" cx="7754.84" cy="-198" rx="103.18" ry="18"/>
<text text-anchor="middle" x="7754.84" y="-194.3" font-family="Times,serif" font-size="14.00">dra.func_8010EB5C</text>
</a>
</g>
</g>
<!-- dra.func_8010EB5C&#45;&gt;dra.SetPlayerAnim -->
<g id="edge32" class="edge">
<title>dra.func_8010EB5C&#45;&gt;dra.SetPlayerAnim</title>
<path fill="none" stroke="black" d="M7680.74,-185.44C7667.78,-183.53 7654.43,-181.65 7641.84,-180 7134.15,-113.53 6523.73,-51.25 6292.66,-28.3"/>
<polygon fill="black" stroke="black" points="6292.91,-24.81 6282.61,-27.31 6292.22,-31.78 6292.91,-24.81"/>
<text text-anchor="middle" x="7675.74" y="-174.24" font-family="Times,serif" font-size="14.00">1</text>
</g>
<!-- dra.func_8010ED54 -->
<g id="node34" class="node">
<title>dra.func_8010ED54</title>
<g id="a_node34"><a xlink:href="dra.func_8010ED54.svg" xlink:title="dra.func_8010ED54">
<ellipse fill="green" stroke="black" cx="7978.84" cy="-198" rx="102.88" ry="18"/>
<text text-anchor="middle" x="7978.84" y="-194.3" font-family="Times,serif" font-size="14.00">dra.func_8010ED54</text>
</a>
</g>
</g>
<!-- dra.func_8010ED54&#45;&gt;dra.SetPlayerAnim -->
<g id="edge33" class="edge">
<title>dra.func_8010ED54&#45;&gt;dra.SetPlayerAnim</title>
<path fill="none" stroke="black" d="M7905.72,-185.31C7892.78,-183.42 7879.43,-181.56 7866.84,-180 7272.8,-106.32 6556.25,-47.13 6297.27,-26.69"/>
<polygon fill="black" stroke="black" points="6297.38,-23.19 6287.13,-25.89 6296.83,-30.17 6297.38,-23.19"/>
<text text-anchor="middle" x="7900.72" y="-174.11" font-family="Times,serif" font-size="14.00">1</text>
</g>
<!-- dra.func_8010EDB8 -->
<g id="node35" class="node">
<title>dra.func_8010EDB8</title>
<g id="a_node35"><a xlink:href="dra.func_8010EDB8.svg" xlink:title="dra.func_8010EDB8">
<ellipse fill="green" stroke="black" cx="8203.84" cy="-198" rx="103.98" ry="18"/>
<text text-anchor="middle" x="8203.84" y="-194.3" font-family="Times,serif" font-size="14.00">dra.func_8010EDB8</text>
</a>
</g>
</g>
<!-- dra.func_8010EDB8&#45;&gt;dra.SetPlayerAnim -->
<g id="edge34" class="edge">
<title>dra.func_8010EDB8&#45;&gt;dra.SetPlayerAnim</title>
<path fill="none" stroke="black" d="M8130.38,-185.25C8117.23,-183.34 8103.64,-181.51 8090.84,-180 7408.9,-99.79 6584.25,-43.57 6299.94,-25.36"/>
<polygon fill="black" stroke="black" points="6299.86,-21.85 6289.65,-24.7 6299.41,-28.83 6299.86,-21.85"/>
<text text-anchor="middle" x="8125.38" y="-174.05" font-family="Times,serif" font-size="14.00">9</text>
</g>
<!-- dra.func_8010FD88 -->
<g id="node36" class="node">
<title>dra.func_8010FD88</title>
<g id="a_node36"><a xlink:href="dra.func_8010FD88.svg" xlink:title="dra.func_8010FD88">
<ellipse fill="green" stroke="black" cx="8428.84" cy="-198" rx="102.88" ry="18"/>
<text text-anchor="middle" x="8428.84" y="-194.3" font-family="Times,serif" font-size="14.00">dra.func_8010FD88</text>
</a>
</g>
</g>
<!-- dra.func_8010FD88&#45;&gt;dra.SetPlayerAnim -->
<g id="edge35" class="edge">
<title>dra.func_8010FD88&#45;&gt;dra.SetPlayerAnim</title>
<path fill="none" stroke="black" d="M8356.34,-185.19C8343.22,-183.28 8329.64,-181.46 8316.84,-180 7545.47,-92.28 6610.53,-39.99 6302.07,-24.15"/>
<polygon fill="black" stroke="black" points="6301.97,-20.64 6291.8,-23.63 6301.61,-27.63 6301.97,-20.64"/>
<text text-anchor="middle" x="8351.34" y="-173.99" font-family="Times,serif" font-size="14.00">1</text>
</g>
<!-- dra.func_8012C97C -->
<g id="node37" class="node">
<title>dra.func_8012C97C</title>
<g id="a_node37"><a xlink:href="dra.func_8012C97C.svg" xlink:title="dra.func_8012C97C">
<ellipse fill="green" stroke="black" cx="8651.84" cy="-198" rx="102.88" ry="18"/>
<text text-anchor="middle" x="8651.84" y="-194.3" font-family="Times,serif" font-size="14.00">dra.func_8012C97C</text>
</a>
</g>
</g>
<!-- dra.func_8012C97C&#45;&gt;dra.SetPlayerAnim -->
<g id="edge36" class="edge">
<title>dra.func_8012C97C&#45;&gt;dra.SetPlayerAnim</title>
<path fill="none" stroke="black" d="M8580,-185.1C8566.99,-183.2 8553.53,-181.41 8540.84,-180 7679.73,-84.64 6633.92,-36.66 6303.27,-23.11"/>
<polygon fill="black" stroke="black" points="6303.36,-19.61 6293.22,-22.7 6303.07,-26.6 6303.36,-19.61"/>
<text text-anchor="middle" x="8575" y="-173.9" font-family="Times,serif" font-size="14.00">1</text>
</g>
<!-- dra.func_8012CA64 -->
<g id="node38" class="node">
<title>dra.func_8012CA64</title>
<g id="a_node38"><a xlink:href="dra.func_8012CA64.svg" xlink:title="dra.func_8012CA64">
<ellipse fill="green" stroke="black" cx="8874.84" cy="-198" rx="102.08" ry="18"/>
<text text-anchor="middle" x="8874.84" y="-194.3" font-family="Times,serif" font-size="14.00">dra.func_8012CA64</text>
</a>
</g>
</g>
<!-- dra.func_8012CA64&#45;&gt;dra.SetPlayerAnim -->
<g id="edge37" class="edge">
<title>dra.func_8012CA64&#45;&gt;dra.SetPlayerAnim</title>
<path fill="none" stroke="black" d="M8803.31,-185.08C8790.21,-183.18 8776.63,-181.38 8763.84,-180 7813.23,-77.59 6656.95,-33.84 6304.7,-22.28"/>
<polygon fill="black" stroke="black" points="6304.62,-18.78 6294.51,-21.95 6304.39,-25.78 6304.62,-18.78"/>
<text text-anchor="middle" x="8798.31" y="-173.88" font-family="Times,serif" font-size="14.00">2</text>
</g>
<!-- dra.func_8012CB4C -->
<g id="node39" class="node">
<title>dra.func_8012CB4C</title>
<g id="a_node39"><a xlink:href="dra.func_8012CB4C.svg" xlink:title="dra.func_8012CB4C">
<ellipse fill="green" stroke="black" cx="9097.84" cy="-198" rx="103.18" ry="18"/>
<text text-anchor="middle" x="9097.84" y="-194.3" font-family="Times,serif" font-size="14.00">dra.func_8012CB4C</text>
</a>
</g>
</g>
<!-- dra.func_8012CB4C&#45;&gt;dra.SetPlayerAnim -->
<g id="edge38" class="edge">
<title>dra.func_8012CB4C&#45;&gt;dra.SetPlayerAnim</title>
<path fill="none" stroke="black" d="M9025.67,-185.04C9012.45,-183.13 8998.75,-181.35 8985.84,-180 7944.98,-71.19 6677.25,-31.41 6305.24,-21.61"/>
<polygon fill="black" stroke="black" points="6305.11,-18.1 6295.02,-21.34 6304.93,-25.1 6305.11,-18.1"/>
<text text-anchor="middle" x="9020.67" y="-173.84" font-family="Times,serif" font-size="14.00">3</text>
</g>
<!-- dra.func_8012CC30 -->
<g id="node40" class="node">
<title>dra.func_8012CC30</title>
<g id="a_node40"><a xlink:href="dra.func_8012CC30.svg" xlink:title="dra.func_8012CC30">
<ellipse fill="green" stroke="black" cx="9321.84" cy="-198" rx="102.88" ry="18"/>
<text text-anchor="middle" x="9321.84" y="-194.3" font-family="Times,serif" font-size="14.00">dra.func_8012CC30</text>
</a>
</g>
</g>
<!-- dra.func_8012CC30&#45;&gt;dra.SetPlayerAnim -->
<g id="edge39" class="edge">
<title>dra.func_8012CC30&#45;&gt;dra.SetPlayerAnim</title>
<path fill="none" stroke="black" d="M9250.27,-185.08C9236.87,-183.15 9222.95,-181.34 9209.84,-180 8077.71,-64.1 6697.12,-28.95 6305.79,-20.98"/>
<polygon fill="black" stroke="black" points="6305.69,-17.48 6295.62,-20.77 6305.54,-24.47 6305.69,-17.48"/>
<text text-anchor="middle" x="9245.27" y="-173.88" font-family="Times,serif" font-size="14.00">1</text>
</g>
<!-- dra.func_8012CCE4 -->
<g id="node41" class="node">
<title>dra.func_8012CCE4</title>
<g id="a_node41"><a xlink:href="dra.func_8012CCE4.svg" xlink:title="dra.func_8012CCE4">
<ellipse fill="green" stroke="black" cx="9545.84" cy="-198" rx="103.18" ry="18"/>
<text text-anchor="middle" x="9545.84" y="-194.3" font-family="Times,serif" font-size="14.00">dra.func_8012CCE4</text>
</a>
</g>
</g>
<!-- dra.func_8012CCE4&#45;&gt;dra.SetPlayerAnim -->
<g id="edge40" class="edge">
<title>dra.func_8012CCE4&#45;&gt;dra.SetPlayerAnim</title>
<path fill="none" stroke="black" d="M9473.98,-185C9460.66,-183.08 9446.85,-181.31 9433.84,-180 8209.99,-56.99 6715.86,-26.66 6306.13,-20.43"/>
<polygon fill="black" stroke="black" points="6306.12,-16.92 6296.07,-20.27 6306.01,-23.92 6306.12,-16.92"/>
<text text-anchor="middle" x="9468.98" y="-173.8" font-family="Times,serif" font-size="14.00">3</text>
</g>
<!-- dra.func_8012CED4 -->
<g id="node42" class="node">
<title>dra.func_8012CED4</title>
<g id="a_node42"><a xlink:href="dra.func_8012CED4.svg" xlink:title="dra.func_8012CED4">
<ellipse fill="green" stroke="black" cx="9770.84" cy="-198" rx="103.98" ry="18"/>
<text text-anchor="middle" x="9770.84" y="-194.3" font-family="Times,serif" font-size="14.00">dra.func_8012CED4</text>
</a>
</g>
</g>
<!-- dra.func_8012CED4&#45;&gt;dra.SetPlayerAnim -->
<g id="edge41" class="edge">
<title>dra.func_8012CED4&#45;&gt;dra.SetPlayerAnim</title>
<path fill="none" stroke="black" d="M9698.64,-185.01C9685.11,-183.08 9671.07,-181.3 9657.84,-180 8341.81,-50.73 6733.68,-24.75 6306.33,-19.99"/>
<polygon fill="black" stroke="black" points="6306.19,-16.49 6296.15,-19.88 6306.11,-23.49 6306.19,-16.49"/>
<text text-anchor="middle" x="9693.64" y="-173.81" font-family="Times,serif" font-size="14.00">2</text>
</g>
<!-- dra.func_8012CFA8 -->
<g id="node43" class="node">
<title>dra.func_8012CFA8</title>
<g id="a_node43"><a xlink:href="dra.func_8012CFA8.svg" xlink:title="dra.func_8012CFA8">
<ellipse fill="green" stroke="black" cx="9993.84" cy="-198" rx="101.28" ry="18"/>
<text text-anchor="middle" x="9993.84" y="-194.3" font-family="Times,serif" font-size="14.00">dra.func_8012CFA8</text>
</a>
</g>
</g>
<!-- dra.func_8012CFA8&#45;&gt;dra.SetPlayerAnim -->
<g id="edge42" class="edge">
<title>dra.func_8012CFA8&#45;&gt;dra.SetPlayerAnim</title>
<path fill="none" stroke="black" d="M9923.57,-184.97C9910.4,-183.04 9896.72,-181.27 9883.84,-180 8475.04,-40.79 6751.48,-21.95 6306.64,-19.4"/>
<polygon fill="black" stroke="black" points="6306.39,-15.9 6296.37,-19.34 6306.35,-22.9 6306.39,-15.9"/>
<text text-anchor="middle" x="9918.57" y="-173.77" font-family="Times,serif" font-size="14.00">1</text>
</g>
<!-- dra.func_8012CFF0 -->
<g id="node44" class="node">
<title>dra.func_8012CFF0</title>
<g id="a_node44"><a xlink:href="dra.func_8012CFF0.svg" xlink:title="dra.func_8012CFF0">
<ellipse fill="green" stroke="black" cx="10215.84" cy="-198" rx="102.88" ry="18"/>
<text text-anchor="middle" x="10215.84" y="-194.3" font-family="Times,serif" font-size="14.00">dra.func_8012CFF0</text>
</a>
</g>
</g>
<!-- dra.func_8012CFF0&#45;&gt;dra.SetPlayerAnim -->
<g id="edge43" class="edge">
<title>dra.func_8012CFF0&#45;&gt;dra.SetPlayerAnim</title>
<path fill="none" stroke="black" d="M10144.59,-184.99C10131.08,-183.05 10117.05,-181.27 10103.84,-180 8604.08,-35.71 6768.18,-20.6 6306.9,-19.13"/>
<polygon fill="black" stroke="black" points="6306.6,-15.63 6296.59,-19.1 6306.58,-22.63 6306.6,-15.63"/>
<text text-anchor="middle" x="10139.59" y="-173.79" font-family="Times,serif" font-size="14.00">1</text>
</g>
<!-- dra.func_8012D024 -->
<g id="node45" class="node">
<title>dra.func_8012D024</title>
<g id="a_node45"><a xlink:href="dra.func_8012D024.svg" xlink:title="dra.func_8012D024">
<ellipse fill="green" stroke="black" cx="10438.84" cy="-198" rx="102.08" ry="18"/>
<text text-anchor="middle" x="10438.84" y="-194.3" font-family="Times,serif" font-size="14.00">dra.func_8012D024</text>
</a>
</g>
</g>
<!-- dra.func_8012D024&#45;&gt;dra.SetPlayerAnim -->
<g id="edge44" class="edge">
<title>dra.func_8012D024&#45;&gt;dra.SetPlayerAnim</title>
<path fill="none" stroke="black" d="M10368.23,-184.96C10354.85,-183.03 10340.94,-181.25 10327.84,-180 8735.56,-27.52 6784.75,-18.51 6307.15,-18.73"/>
<polygon fill="black" stroke="black" points="6306.82,-15.23 6296.82,-18.74 6306.82,-22.23 6306.82,-15.23"/>
<text text-anchor="middle" x="10363.23" y="-173.76" font-family="Times,serif" font-size="14.00">1</text>
</g>
<!-- dra.func_8012D3E8 -->
<g id="node46" class="node">
<title>dra.func_8012D3E8</title>
<g id="a_node46"><a xlink:href="dra.func_8012D3E8.svg" xlink:title="dra.func_8012D3E8">
<ellipse fill="green" stroke="black" cx="10661.84" cy="-198" rx="102.88" ry="18"/>
<text text-anchor="middle" x="10661.84" y="-194.3" font-family="Times,serif" font-size="14.00">dra.func_8012D3E8</text>
</a>
</g>
</g>
<!-- dra.func_8012D3E8&#45;&gt;dra.SetPlayerAnim -->
<g id="edge45" class="edge">
<title>dra.func_8012D3E8&#45;&gt;dra.SetPlayerAnim</title>
<path fill="none" stroke="black" d="M10590.59,-184.94C10577.09,-183.01 10563.05,-181.24 10549.84,-180 8865.34,-21.52 6800.37,-17.08 6307.25,-18.48"/>
<polygon fill="black" stroke="black" points="6306.93,-14.98 6296.95,-18.51 6306.96,-21.98 6306.93,-14.98"/>
<text text-anchor="middle" x="10585.59" y="-173.74" font-family="Times,serif" font-size="14.00">3</text>
</g>
<!-- dra.func_8012DBBC -->
<g id="node47" class="node">
<title>dra.func_8012DBBC</title>
<g id="a_node47"><a xlink:href="dra.func_8012DBBC.svg" xlink:title="dra.func_8012DBBC">
<ellipse fill="green" stroke="black" cx="10886.84" cy="-198" rx="104.78" ry="18"/>
<text text-anchor="middle" x="10886.84" y="-194.3" font-family="Times,serif" font-size="14.00">dra.func_8012DBBC</text>
</a>
</g>
</g>
<!-- dra.func_8012DBBC&#45;&gt;dra.SetPlayerAnim -->
<g id="edge46" class="edge">
<title>dra.func_8012DBBC&#45;&gt;dra.SetPlayerAnim</title>
<path fill="none" stroke="black" d="M10814.65,-184.89C10801.12,-182.97 10787.07,-181.22 10773.84,-180 9865.69,-95.99 6909.16,-33.23 6305.9,-21.12"/>
<polygon fill="black" stroke="black" points="6305.55,-17.62 6295.48,-20.91 6305.41,-24.61 6305.55,-17.62"/>
<text text-anchor="middle" x="10809.65" y="-173.69" font-family="Times,serif" font-size="14.00">2</text>
</g>
<!-- dra.func_8012DF04 -->
<g id="node48" class="node">
<title>dra.func_8012DF04</title>
<g id="a_node48"><a xlink:href="dra.func_8012DF04.svg" xlink:title="dra.func_8012DF04">
<ellipse fill="green" stroke="black" cx="11111.84" cy="-198" rx="102.88" ry="18"/>
<text text-anchor="middle" x="11111.84" y="-194.3" font-family="Times,serif" font-size="14.00">dra.func_8012DF04</text>
</a>
</g>
</g>
<!-- dra.func_8012DF04&#45;&gt;dra.SetPlayerAnim -->
<g id="edge47" class="edge">
<title>dra.func_8012DF04&#45;&gt;dra.SetPlayerAnim</title>
<path fill="none" stroke="black" d="M11041.23,-184.9C11027.85,-182.98 11013.94,-181.22 11000.84,-180 10045.18,-91.12 6927.8,-31.95 6306.22,-20.88"/>
<polygon fill="black" stroke="black" points="6305.99,-17.38 6295.93,-20.7 6305.87,-24.38 6305.99,-17.38"/>
<text text-anchor="middle" x="11036.23" y="-173.7" font-family="Times,serif" font-size="14.00">1</text>
</g>
<!-- dra.func_8012E040 -->
<g id="node49" class="node">
<title>dra.func_8012E040</title>
<g id="a_node49"><a xlink:href="dra.func_8012E040.svg" xlink:title="dra.func_8012E040">
<ellipse fill="green" stroke="black" cx="11333.84" cy="-198" rx="101.28" ry="18"/>
<text text-anchor="middle" x="11333.84" y="-194.3" font-family="Times,serif" font-size="14.00">dra.func_8012E040</text>
</a>
</g>
</g>
<!-- dra.func_8012E040&#45;&gt;dra.SetPlayerAnim -->
<g id="edge48" class="edge">
<title>dra.func_8012E040&#45;&gt;dra.SetPlayerAnim</title>
<path fill="none" stroke="black" d="M11263.87,-184.89C11250.61,-182.96 11236.83,-181.21 11223.84,-180 10221.17,-86.81 6944.21,-30.83 6306.09,-20.68"/>
<polygon fill="black" stroke="black" points="6306.04,-17.18 6295.98,-20.52 6305.93,-24.17 6306.04,-17.18"/>
<text text-anchor="middle" x="11258.87" y="-173.69" font-family="Times,serif" font-size="14.00">2</text>
</g>
<!-- dra.func_8012E550 -->
<g id="node50" class="node">
<title>dra.func_8012E550</title>
<g id="a_node50"><a xlink:href="dra.func_8012E550.svg" xlink:title="dra.func_8012E550">
<ellipse fill="green" stroke="black" cx="11554.84" cy="-198" rx="101.28" ry="18"/>
<text text-anchor="middle" x="11554.84" y="-194.3" font-family="Times,serif" font-size="14.00">dra.func_8012E550</text>
</a>
</g>
</g>
<!-- dra.func_8012E550&#45;&gt;dra.SetPlayerAnim -->
<g id="edge49" class="edge">
<title>dra.func_8012E550&#45;&gt;dra.SetPlayerAnim</title>
<path fill="none" stroke="black" d="M11484.83,-184.96C11471.27,-183 11457.14,-181.22 11443.84,-180 10394.8,-83.93 6961.19,-30.06 6306.29,-20.53"/>
<polygon fill="black" stroke="black" points="6305.98,-17.03 6295.93,-20.38 6305.88,-24.03 6305.98,-17.03"/>
<text text-anchor="middle" x="11479.83" y="-173.76" font-family="Times,serif" font-size="14.00">3</text>
</g>
</g>
</svg>
