<?xml version="1.0" encoding="UTF-8" standalone="no"?>
<!DOCTYPE svg PUBLIC "-//W3C//DTD SVG 1.1//EN"
 "http://www.w3.org/Graphics/SVG/1.1/DTD/svg11.dtd">
<!-- Generated by graphviz version 2.43.0 (0)
 -->
<!-- Title: dra.MenuDraw Pages: 1 -->
<svg width="6408pt" height="404pt"
 viewBox="0.00 0.00 6407.83 404.00" xmlns="http://www.w3.org/2000/svg" xmlns:xlink="http://www.w3.org/1999/xlink">
<g id="graph0" class="graph" transform="scale(1 1) rotate(0) translate(4 400)">
<title>dra.MenuDraw</title>
<polygon fill="white" stroke="transparent" points="-4,4 -4,-400 6403.83,-400 6403.83,4 -4,4"/>
<!-- dra.MenuDraw -->
<g id="node1" class="node">
<title>dra.MenuDraw</title>
<ellipse fill="green" stroke="black" cx="3365.09" cy="-198" rx="80.69" ry="18"/>
<text text-anchor="middle" x="3365.09" y="-194.3" font-family="Times,serif" font-size="14.00">dra.MenuDraw</text>
</g>
<!-- dra.DrawConsumableCount -->
<g id="node2" class="node">
<title>dra.DrawConsumableCount</title>
<g id="a_node2"><a xlink:href="dra.DrawConsumableCount.svg" xlink:title="dra.DrawConsumableCount">
<ellipse fill="green" stroke="black" cx="139.09" cy="-18" rx="139.18" ry="18"/>
<text text-anchor="middle" x="139.09" y="-14.3" font-family="Times,serif" font-size="14.00">dra.DrawConsumableCount</text>
</a>
</g>
</g>
<!-- dra.MenuDraw&#45;&gt;dra.DrawConsumableCount -->
<g id="edge1" class="edge">
<title>dra.MenuDraw&#45;&gt;dra.DrawConsumableCount</title>
<path fill="none" stroke="black" d="M3285.6,-194.66C2933.34,-183.9 1477.9,-135.44 287.09,-36 273.71,-34.88 259.67,-33.52 245.8,-32.06"/>
<polygon fill="black" stroke="black" points="246.05,-28.56 235.73,-30.98 245.3,-35.52 246.05,-28.56"/>
<text text-anchor="middle" x="230.73" y="-34.78" font-family="Times,serif" font-size="14.00">2</text>
</g>
<!-- dra.DrawRelicsMenu -->
<g id="node3" class="node">
<title>dra.DrawRelicsMenu</title>
<g id="a_node3"><a xlink:href="dra.DrawRelicsMenu.svg" xlink:title="dra.DrawRelicsMenu">
<ellipse fill="green" stroke="black" cx="405.09" cy="-18" rx="108.58" ry="18"/>
<text text-anchor="middle" x="405.09" y="-14.3" font-family="Times,serif" font-size="14.00">dra.DrawRelicsMenu</text>
</a>
</g>
</g>
<!-- dra.MenuDraw&#45;&gt;dra.DrawRelicsMenu -->
<g id="edge2" class="edge">
<title>dra.MenuDraw&#45;&gt;dra.DrawRelicsMenu</title>
<path fill="none" stroke="black" d="M3285.46,-195.05C2949.36,-186.28 1613.75,-146 522.09,-36 511.87,-34.97 501.18,-33.69 490.6,-32.31"/>
<polygon fill="black" stroke="black" points="490.87,-28.81 480.49,-30.95 489.94,-35.75 490.87,-28.81"/>
<text text-anchor="middle" x="475.49" y="-34.75" font-family="Times,serif" font-size="14.00">1</text>
</g>
<!-- dra.LoadEquipIcon -->
<g id="node4" class="node">
<title>dra.LoadEquipIcon</title>
<g id="a_node4"><a xlink:href="dra.LoadEquipIcon.svg" xlink:title="dra.LoadEquipIcon">
<ellipse fill="green" stroke="black" cx="630.09" cy="-18" rx="98.58" ry="18"/>
<text text-anchor="middle" x="630.09" y="-14.3" font-family="Times,serif" font-size="14.00">dra.LoadEquipIcon</text>
</a>
</g>
</g>
<!-- dra.MenuDraw&#45;&gt;dra.LoadEquipIcon -->
<g id="edge3" class="edge">
<title>dra.MenuDraw&#45;&gt;dra.LoadEquipIcon</title>
<path fill="none" stroke="black" d="M3285.57,-194.93C2965.33,-185.98 1739.27,-146.05 737.09,-36 728.03,-35 718.56,-33.78 709.17,-32.44"/>
<polygon fill="black" stroke="black" points="709.43,-28.94 699.03,-30.95 708.41,-35.87 709.43,-28.94"/>
<text text-anchor="middle" x="694.03" y="-34.75" font-family="Times,serif" font-size="14.00">3</text>
</g>
<!-- dra.MenuButtonConfigDraw -->
<g id="node5" class="node">
<title>dra.MenuButtonConfigDraw</title>
<g id="a_node5"><a xlink:href="dra.MenuButtonConfigDraw.svg" xlink:title="dra.MenuButtonConfigDraw">
<ellipse fill="green" stroke="black" cx="888.09" cy="-18" rx="141.88" ry="18"/>
<text text-anchor="middle" x="888.09" y="-14.3" font-family="Times,serif" font-size="14.00">dra.MenuButtonConfigDraw</text>
</a>
</g>
</g>
<!-- dra.MenuDraw&#45;&gt;dra.MenuButtonConfigDraw -->
<g id="edge4" class="edge">
<title>dra.MenuDraw&#45;&gt;dra.MenuButtonConfigDraw</title>
<path fill="none" stroke="black" d="M3287.69,-192.85C2994.06,-176.87 1920.92,-116.12 1039.09,-36 1025.77,-34.79 1011.8,-33.39 997.97,-31.93"/>
<polygon fill="black" stroke="black" points="998.25,-28.44 987.93,-30.85 997.5,-35.4 998.25,-28.44"/>
<text text-anchor="middle" x="982.93" y="-34.65" font-family="Times,serif" font-size="14.00">1</text>
</g>
<!-- dra.MenuDrawAlucardCloakPreview -->
<g id="node6" class="node">
<title>dra.MenuDrawAlucardCloakPreview</title>
<g id="a_node6"><a xlink:href="dra.MenuDrawAlucardCloakPreview.svg" xlink:title="dra.MenuDrawAlucardCloakPreview">
<ellipse fill="green" stroke="black" cx="1227.09" cy="-18" rx="179.27" ry="18"/>
<text text-anchor="middle" x="1227.09" y="-14.3" font-family="Times,serif" font-size="14.00">dra.MenuDrawAlucardCloakPreview</text>
</a>
</g>
</g>
<!-- dra.MenuDraw&#45;&gt;dra.MenuDrawAlucardCloakPreview -->
<g id="edge5" class="edge">
<title>dra.MenuDraw&#45;&gt;dra.MenuDrawAlucardCloakPreview</title>
<path fill="none" stroke="black" d="M3290.68,-191.07C3031.76,-170.38 2146.1,-99.23 1415.09,-36 1398.78,-34.59 1381.68,-33.08 1364.72,-31.57"/>
<polygon fill="black" stroke="black" points="1365.02,-28.08 1354.75,-30.68 1364.4,-35.06 1365.02,-28.08"/>
<text text-anchor="middle" x="1349.75" y="-34.48" font-family="Times,serif" font-size="14.00">1</text>
</g>
<!-- dra.MenuDrawLine -->
<g id="node7" class="node">
<title>dra.MenuDrawLine</title>
<g id="a_node7"><a xlink:href="dra.MenuDrawLine.svg" xlink:title="dra.MenuDrawLine">
<ellipse fill="green" stroke="black" cx="1525.09" cy="-18" rx="100.98" ry="18"/>
<text text-anchor="middle" x="1525.09" y="-14.3" font-family="Times,serif" font-size="14.00">dra.MenuDrawLine</text>
</a>
</g>
</g>
<!-- dra.MenuDraw&#45;&gt;dra.MenuDrawLine -->
<g id="edge6" class="edge">
<title>dra.MenuDraw&#45;&gt;dra.MenuDrawLine</title>
<path fill="none" stroke="black" d="M3289.4,-191.64C3047.64,-174.18 2272.42,-115.39 1634.09,-36 1625.09,-34.88 1615.68,-33.59 1606.34,-32.24"/>
<polygon fill="black" stroke="black" points="1606.64,-28.75 1596.24,-30.75 1605.62,-35.67 1606.64,-28.75"/>
<text text-anchor="middle" x="1591.24" y="-34.55" font-family="Times,serif" font-size="14.00">4</text>
</g>
<!-- dra.MenuDrawStats -->
<g id="node8" class="node">
<title>dra.MenuDrawStats</title>
<g id="a_node8"><a xlink:href="dra.MenuDrawStats.svg" xlink:title="dra.MenuDrawStats">
<ellipse fill="green" stroke="black" cx="1748.09" cy="-18" rx="104.78" ry="18"/>
<text text-anchor="middle" x="1748.09" y="-14.3" font-family="Times,serif" font-size="14.00">dra.MenuDrawStats</text>
</a>
</g>
</g>
<!-- dra.MenuDraw&#45;&gt;dra.MenuDrawStats -->
<g id="edge7" class="edge">
<title>dra.MenuDraw&#45;&gt;dra.MenuDrawStats</title>
<path fill="none" stroke="black" d="M3292.23,-190.27C3074.65,-169.95 2410.68,-106.26 1862.09,-36 1852.66,-34.79 1842.81,-33.45 1833.01,-32.06"/>
<polygon fill="black" stroke="black" points="1833.23,-28.56 1822.84,-30.6 1832.24,-35.48 1833.23,-28.56"/>
<text text-anchor="middle" x="1817.84" y="-34.4" font-family="Times,serif" font-size="14.00">2</text>
</g>
<!-- dra.MenuDrawStr -->
<g id="node9" class="node">
<title>dra.MenuDrawStr</title>
<g id="a_node9"><a xlink:href="dra.MenuDrawStr.svg" xlink:title="dra.MenuDrawStr">
<ellipse fill="green" stroke="black" cx="1966.09" cy="-18" rx="94.78" ry="18"/>
<text text-anchor="middle" x="1966.09" y="-14.3" font-family="Times,serif" font-size="14.00">dra.MenuDrawStr</text>
</a>
</g>
</g>
<!-- dra.MenuDraw&#45;&gt;dra.MenuDrawStr -->
<g id="edge8" class="edge">
<title>dra.MenuDraw&#45;&gt;dra.MenuDrawStr</title>
<path fill="none" stroke="black" d="M3294.42,-189.18C3099.23,-167.37 2536.25,-103.05 2070.09,-36 2061.76,-34.8 2053.06,-33.49 2044.4,-32.13"/>
<polygon fill="black" stroke="black" points="2044.7,-28.64 2034.28,-30.53 2043.61,-35.55 2044.7,-28.64"/>
<text text-anchor="middle" x="2029.28" y="-34.33" font-family="Times,serif" font-size="14.00">3</text>
</g>
<!-- dra.MenuEquipSortDraw -->
<g id="node10" class="node">
<title>dra.MenuEquipSortDraw</title>
<g id="a_node10"><a xlink:href="dra.MenuEquipSortDraw.svg" xlink:title="dra.MenuEquipSortDraw">
<ellipse fill="green" stroke="black" cx="2207.09" cy="-18" rx="128.08" ry="18"/>
<text text-anchor="middle" x="2207.09" y="-14.3" font-family="Times,serif" font-size="14.00">dra.MenuEquipSortDraw</text>
</a>
</g>
</g>
<!-- dra.MenuDraw&#45;&gt;dra.MenuEquipSortDraw -->
<g id="edge9" class="edge">
<title>dra.MenuDraw&#45;&gt;dra.MenuEquipSortDraw</title>
<path fill="none" stroke="black" d="M3300.76,-187.11C3106.78,-157.3 2526.98,-68.17 2299.83,-33.26"/>
<polygon fill="black" stroke="black" points="2300.35,-29.79 2289.93,-31.73 2299.28,-36.71 2300.35,-29.79"/>
<text text-anchor="middle" x="2284.93" y="-35.53" font-family="Times,serif" font-size="14.00">1</text>
</g>
<!-- dra.MenuFamiliarsDraw -->
<g id="node11" class="node">
<title>dra.MenuFamiliarsDraw</title>
<g id="a_node11"><a xlink:href="dra.MenuFamiliarsDraw.svg" xlink:title="dra.MenuFamiliarsDraw">
<ellipse fill="green" stroke="black" cx="2477.09" cy="-18" rx="124.28" ry="18"/>
<text text-anchor="middle" x="2477.09" y="-14.3" font-family="Times,serif" font-size="14.00">dra.MenuFamiliarsDraw</text>
</a>
</g>
</g>
<!-- dra.MenuDraw&#45;&gt;dra.MenuFamiliarsDraw -->
<g id="edge10" class="edge">
<title>dra.MenuDraw&#45;&gt;dra.MenuFamiliarsDraw</title>
<path fill="none" stroke="black" d="M3307.17,-185.39C3153.14,-154.51 2733.17,-70.33 2556.78,-34.97"/>
<polygon fill="black" stroke="black" points="2557.28,-31.5 2546.79,-32.97 2555.9,-38.37 2557.28,-31.5"/>
<text text-anchor="middle" x="2541.79" y="-36.77" font-family="Times,serif" font-size="14.00">1</text>
</g>
<!-- dra.MenuJosephsCloakDraw -->
<g id="node12" class="node">
<title>dra.MenuJosephsCloakDraw</title>
<g id="a_node12"><a xlink:href="dra.MenuJosephsCloakDraw.svg" xlink:title="dra.MenuJosephsCloakDraw">
<ellipse fill="green" stroke="black" cx="2761.09" cy="-18" rx="141.88" ry="18"/>
<text text-anchor="middle" x="2761.09" y="-14.3" font-family="Times,serif" font-size="14.00">dra.MenuJosephsCloakDraw</text>
</a>
</g>
</g>
<!-- dra.MenuDraw&#45;&gt;dra.MenuJosephsCloakDraw -->
<g id="edge11" class="edge">
<title>dra.MenuDraw&#45;&gt;dra.MenuJosephsCloakDraw</title>
<path fill="none" stroke="black" d="M3318.45,-183.25C3211.06,-151.61 2946.24,-73.56 2824.35,-37.64"/>
<polygon fill="black" stroke="black" points="2825,-34.19 2814.42,-34.72 2823.02,-40.9 2825,-34.19"/>
<text text-anchor="middle" x="2809.42" y="-38.52" font-family="Times,serif" font-size="14.00">1</text>
</g>
<!-- dra.MenuReverseCloakDraw -->
<g id="node13" class="node">
<title>dra.MenuReverseCloakDraw</title>
<g id="a_node13"><a xlink:href="dra.MenuReverseCloakDraw.svg" xlink:title="dra.MenuReverseCloakDraw">
<ellipse fill="green" stroke="black" cx="3064.09" cy="-18" rx="143.77" ry="18"/>
<text text-anchor="middle" x="3064.09" y="-14.3" font-family="Times,serif" font-size="14.00">dra.MenuReverseCloakDraw</text>
</a>
</g>
</g>
<!-- dra.MenuDraw&#45;&gt;dra.MenuReverseCloakDraw -->
<g id="edge12" class="edge">
<title>dra.MenuDraw&#45;&gt;dra.MenuReverseCloakDraw</title>
<path fill="none" stroke="black" d="M3337.85,-180.89C3283.75,-148.9 3162.72,-77.33 3101.33,-41.02"/>
<polygon fill="black" stroke="black" points="3102.75,-37.8 3092.36,-35.72 3099.19,-43.82 3102.75,-37.8"/>
<text text-anchor="middle" x="3087.36" y="-39.52" font-family="Times,serif" font-size="14.00">1</text>
</g>
<!-- dra.MenuSoundConfigDraw -->
<g id="node14" class="node">
<title>dra.MenuSoundConfigDraw</title>
<g id="a_node14"><a xlink:href="dra.MenuSoundConfigDraw.svg" xlink:title="dra.MenuSoundConfigDraw">
<ellipse fill="green" stroke="black" cx="3365.09" cy="-18" rx="139.98" ry="18"/>
<text text-anchor="middle" x="3365.09" y="-14.3" font-family="Times,serif" font-size="14.00">dra.MenuSoundConfigDraw</text>
</a>
</g>
</g>
<!-- dra.MenuDraw&#45;&gt;dra.MenuSoundConfigDraw -->
<g id="edge13" class="edge">
<title>dra.MenuDraw&#45;&gt;dra.MenuSoundConfigDraw</title>
<path fill="none" stroke="black" d="M3365.09,-179.93C3365.09,-148.97 3365.09,-83.3 3365.09,-46.13"/>
<polygon fill="black" stroke="black" points="3368.59,-46.02 3365.09,-36.02 3361.59,-46.02 3368.59,-46.02"/>
<text text-anchor="middle" x="3360.09" y="-39.82" font-family="Times,serif" font-size="14.00">1</text>
</g>
<!-- dra.MenuSpellsDraw -->
<g id="node15" class="node">
<title>dra.MenuSpellsDraw</title>
<g id="a_node15"><a xlink:href="dra.MenuSpellsDraw.svg" xlink:title="dra.MenuSpellsDraw">
<ellipse fill="green" stroke="black" cx="3631.09" cy="-18" rx="108.58" ry="18"/>
<text text-anchor="middle" x="3631.09" y="-14.3" font-family="Times,serif" font-size="14.00">dra.MenuSpellsDraw</text>
</a>
</g>
</g>
<!-- dra.MenuDraw&#45;&gt;dra.MenuSpellsDraw -->
<g id="edge14" class="edge">
<title>dra.MenuDraw&#45;&gt;dra.MenuSpellsDraw</title>
<path fill="none" stroke="black" d="M3389.64,-180.57C3437.52,-148.53 3543.42,-77.67 3597.65,-41.37"/>
<polygon fill="black" stroke="black" points="3599.85,-44.12 3606.21,-35.65 3595.96,-38.3 3599.85,-44.12"/>
<text text-anchor="middle" x="3601.21" y="-39.45" font-family="Times,serif" font-size="14.00">1</text>
</g>
<!-- dra.MenuStatChangesDraw -->
<g id="node16" class="node">
<title>dra.MenuStatChangesDraw</title>
<g id="a_node16"><a xlink:href="dra.MenuStatChangesDraw.svg" xlink:title="dra.MenuStatChangesDraw">
<ellipse fill="green" stroke="black" cx="3897.09" cy="-18" rx="139.98" ry="18"/>
<text text-anchor="middle" x="3897.09" y="-14.3" font-family="Times,serif" font-size="14.00">dra.MenuStatChangesDraw</text>
</a>
</g>
</g>
<!-- dra.MenuDraw&#45;&gt;dra.MenuStatChangesDraw -->
<g id="edge15" class="edge">
<title>dra.MenuDraw&#45;&gt;dra.MenuStatChangesDraw</title>
<path fill="none" stroke="black" d="M3408.17,-182.58C3503.52,-150.68 3732.42,-74.1 3839.73,-38.19"/>
<polygon fill="black" stroke="black" points="3841.05,-41.44 3849.42,-34.95 3838.83,-34.8 3841.05,-41.44"/>
<text text-anchor="middle" x="3844.42" y="-38.75" font-family="Times,serif" font-size="14.00">1</text>
</g>
<!-- dra.MenuSystemDraw -->
<g id="node17" class="node">
<title>dra.MenuSystemDraw</title>
<g id="a_node17"><a xlink:href="dra.MenuSystemDraw.svg" xlink:title="dra.MenuSystemDraw">
<ellipse fill="green" stroke="black" cx="4170.09" cy="-18" rx="115.08" ry="18"/>
<text text-anchor="middle" x="4170.09" y="-14.3" font-family="Times,serif" font-size="14.00">dra.MenuSystemDraw</text>
</a>
</g>
</g>
<!-- dra.MenuDraw&#45;&gt;dra.MenuSystemDraw -->
<g id="edge16" class="edge">
<title>dra.MenuDraw&#45;&gt;dra.MenuSystemDraw</title>
<path fill="none" stroke="black" d="M3420.1,-184.84C3561.3,-153.61 3936.61,-70.63 4096.4,-35.29"/>
<polygon fill="black" stroke="black" points="4097.6,-38.61 4106.6,-33.04 4096.09,-31.78 4097.6,-38.61"/>
<text text-anchor="middle" x="4101.6" y="-36.84" font-family="Times,serif" font-size="14.00">1</text>
</g>
<!-- dra.MenuTimeAttackDraw -->
<g id="node18" class="node">
<title>dra.MenuTimeAttackDraw</title>
<g id="a_node18"><a xlink:href="dra.MenuTimeAttackDraw.svg" xlink:title="dra.MenuTimeAttackDraw">
<ellipse fill="green" stroke="black" cx="4436.09" cy="-18" rx="133.48" ry="18"/>
<text text-anchor="middle" x="4436.09" y="-14.3" font-family="Times,serif" font-size="14.00">dra.MenuTimeAttackDraw</text>
</a>
</g>
</g>
<!-- dra.MenuDraw&#45;&gt;dra.MenuTimeAttackDraw -->
<g id="edge17" class="edge">
<title>dra.MenuDraw&#45;&gt;dra.MenuTimeAttackDraw</title>
<path fill="none" stroke="black" d="M3427.69,-186.6C3608.73,-156.51 4133.41,-69.3 4345.52,-34.05"/>
<polygon fill="black" stroke="black" points="4346.4,-37.45 4355.69,-32.36 4345.25,-30.55 4346.4,-37.45"/>
<text text-anchor="middle" x="4350.69" y="-36.16" font-family="Times,serif" font-size="14.00">1</text>
</g>
<!-- dra.MenuWindowColorsDraw -->
<g id="node19" class="node">
<title>dra.MenuWindowColorsDraw</title>
<g id="a_node19"><a xlink:href="dra.MenuWindowColorsDraw.svg" xlink:title="dra.MenuWindowColorsDraw">
<ellipse fill="green" stroke="black" cx="4735.09" cy="-18" rx="147.57" ry="18"/>
<text text-anchor="middle" x="4735.09" y="-14.3" font-family="Times,serif" font-size="14.00">dra.MenuWindowColorsDraw</text>
</a>
</g>
</g>
<!-- dra.MenuDraw&#45;&gt;dra.MenuWindowColorsDraw -->
<g id="edge18" class="edge">
<title>dra.MenuDraw&#45;&gt;dra.MenuWindowColorsDraw</title>
<path fill="none" stroke="black" d="M3433.03,-188.17C3654.65,-159.38 4357.79,-68.02 4627.94,-32.92"/>
<polygon fill="black" stroke="black" points="4628.68,-36.36 4638.14,-31.6 4627.78,-29.41 4628.68,-36.36"/>
<text text-anchor="middle" x="4633.14" y="-35.4" font-family="Times,serif" font-size="14.00">1</text>
</g>
<!-- dra.SetPrimRect -->
<g id="node20" class="node">
<title>dra.SetPrimRect</title>
<g id="a_node20"><a xlink:href="dra.SetPrimRect.svg" xlink:title="dra.SetPrimRect">
<ellipse fill="green" stroke="black" cx="4989.09" cy="-18" rx="88.28" ry="18"/>
<text text-anchor="middle" x="4989.09" y="-14.3" font-family="Times,serif" font-size="14.00">dra.SetPrimRect</text>
</a>
</g>
</g>
<!-- dra.MenuDraw&#45;&gt;dra.SetPrimRect -->
<g id="edge19" class="edge">
<title>dra.MenuDraw&#45;&gt;dra.SetPrimRect</title>
<path fill="none" stroke="black" d="M3439.59,-190.97C3661.31,-172.62 4336.05,-113.94 4892.09,-36 4899.83,-34.92 4907.89,-33.68 4915.92,-32.37"/>
<polygon fill="black" stroke="black" points="4916.76,-35.78 4926.05,-30.69 4915.61,-28.88 4916.76,-35.78"/>
<text text-anchor="middle" x="4921.05" y="-34.49" font-family="Times,serif" font-size="14.00">1</text>
</g>
<!-- dra.func_800F5AE4 -->
<g id="node21" class="node">
<title>dra.func_800F5AE4</title>
<g id="a_node21"><a xlink:href="dra.func_800F5AE4.svg" xlink:title="dra.func_800F5AE4">
<ellipse fill="green" stroke="black" cx="5198.09" cy="-18" rx="102.88" ry="18"/>
<text text-anchor="middle" x="5198.09" y="-14.3" font-family="Times,serif" font-size="14.00">dra.func_800F5AE4</text>
</a>
</g>
</g>
<!-- dra.MenuDraw&#45;&gt;dra.func_800F5AE4 -->
<g id="edge20" class="edge">
<title>dra.MenuDraw&#45;&gt;dra.func_800F5AE4</title>
<path fill="none" stroke="black" d="M3440.32,-191.51C3680.64,-173.65 4451.27,-113.81 5086.09,-36 5095.43,-34.85 5105.2,-33.54 5114.9,-32.17"/>
<polygon fill="black" stroke="black" points="5115.57,-35.61 5124.97,-30.72 5114.57,-28.68 5115.57,-35.61"/>
<text text-anchor="middle" x="5119.97" y="-34.52" font-family="Times,serif" font-size="14.00">1</text>
</g>
<!-- dra.func_800F6568 -->
<g id="node22" class="node">
<title>dra.func_800F6568</title>
<g id="a_node22"><a xlink:href="dra.func_800F6568.svg" xlink:title="dra.func_800F6568">
<ellipse fill="green" stroke="black" cx="5419.09" cy="-18" rx="100.98" ry="18"/>
<text text-anchor="middle" x="5419.09" y="-14.3" font-family="Times,serif" font-size="14.00">dra.func_800F6568</text>
</a>
</g>
</g>
<!-- dra.MenuDraw&#45;&gt;dra.func_800F6568 -->
<g id="edge21" class="edge">
<title>dra.MenuDraw&#45;&gt;dra.func_800F6568</title>
<path fill="none" stroke="black" d="M3442.2,-192.62C3704.46,-177.31 4585.89,-122.33 5310.09,-36 5319.17,-34.92 5328.65,-33.65 5338.07,-32.3"/>
<polygon fill="black" stroke="black" points="5338.86,-35.72 5348.24,-30.81 5337.84,-28.79 5338.86,-35.72"/>
<text text-anchor="middle" x="5343.24" y="-34.61" font-family="Times,serif" font-size="14.00">1</text>
</g>
<!-- dra.func_800F6618 -->
<g id="node23" class="node">
<title>dra.func_800F6618</title>
<g id="a_node23"><a xlink:href="dra.func_800F6618.svg" xlink:title="dra.func_800F6618">
<ellipse fill="green" stroke="black" cx="5638.09" cy="-18" rx="100.98" ry="18"/>
<text text-anchor="middle" x="5638.09" y="-14.3" font-family="Times,serif" font-size="14.00">dra.func_800F6618</text>
</a>
</g>
</g>
<!-- dra.MenuDraw&#45;&gt;dra.func_800F6618 -->
<g id="edge22" class="edge">
<title>dra.MenuDraw&#45;&gt;dra.func_800F6618</title>
<path fill="none" stroke="black" d="M3443.42,-193.45C3725.61,-180.2 4716.46,-129.45 5529.09,-36 5538.17,-34.96 5547.66,-33.71 5557.08,-32.37"/>
<polygon fill="black" stroke="black" points="5557.86,-35.8 5567.25,-30.89 5556.85,-28.87 5557.86,-35.8"/>
<text text-anchor="middle" x="5562.25" y="-34.69" font-family="Times,serif" font-size="14.00">1</text>
</g>
<!-- dra.func_800F8754 -->
<g id="node24" class="node">
<title>dra.func_800F8754</title>
<g id="a_node24"><a xlink:href="dra.func_800F8754.svg" xlink:title="dra.func_800F8754">
<ellipse fill="green" stroke="black" cx="5857.09" cy="-18" rx="100.98" ry="18"/>
<text text-anchor="middle" x="5857.09" y="-14.3" font-family="Times,serif" font-size="14.00">dra.func_800F8754</text>
</a>
</g>
</g>
<!-- dra.MenuDraw&#45;&gt;dra.func_800F8754 -->
<g id="edge23" class="edge">
<title>dra.MenuDraw&#45;&gt;dra.func_800F8754</title>
<path fill="none" stroke="black" d="M3443.99,-194.17C3744.52,-182.87 4846.1,-136.61 5748.09,-36 5757.34,-34.97 5767.01,-33.71 5776.6,-32.36"/>
<polygon fill="black" stroke="black" points="5777.16,-35.82 5786.55,-30.92 5776.16,-28.89 5777.16,-35.82"/>
<text text-anchor="middle" x="5781.55" y="-34.72" font-family="Times,serif" font-size="14.00">1</text>
</g>
<!-- dra.func_800F892C -->
<g id="node25" class="node">
<title>dra.func_800F892C</title>
<g id="a_node25"><a xlink:href="dra.func_800F892C.svg" xlink:title="dra.func_800F892C">
<ellipse fill="green" stroke="black" cx="6078.09" cy="-18" rx="102.08" ry="18"/>
<text text-anchor="middle" x="6078.09" y="-14.3" font-family="Times,serif" font-size="14.00">dra.func_800F892C</text>
</a>
</g>
</g>
<!-- dra.MenuDraw&#45;&gt;dra.func_800F892C -->
<g id="edge24" class="edge">
<title>dra.MenuDraw&#45;&gt;dra.func_800F892C</title>
<path fill="none" stroke="black" d="M3444.34,-194.7C3762.18,-184.95 4975.08,-142.44 5967.09,-36 5976.58,-34.98 5986.51,-33.73 5996.35,-32.37"/>
<polygon fill="black" stroke="black" points="5997.15,-35.79 6006.56,-30.92 5996.17,-28.86 5997.15,-35.79"/>
<text text-anchor="middle" x="6001.56" y="-34.72" font-family="Times,serif" font-size="14.00">1</text>
</g>
<!-- dra.func_800F8990 -->
<g id="node26" class="node">
<title>dra.func_800F8990</title>
<g id="a_node26"><a xlink:href="dra.func_800F8990.svg" xlink:title="dra.func_800F8990">
<ellipse fill="green" stroke="black" cx="6299.09" cy="-18" rx="100.98" ry="18"/>
<text text-anchor="middle" x="6299.09" y="-14.3" font-family="Times,serif" font-size="14.00">dra.func_800F8990</text>
</a>
</g>
</g>
<!-- dra.MenuDraw&#45;&gt;dra.func_800F8990 -->
<g id="edge25" class="edge">
<title>dra.MenuDraw&#45;&gt;dra.func_800F8990</title>
<path fill="none" stroke="black" d="M3444.77,-195.27C3779.66,-187.4 5105.84,-150.32 6189.09,-36 6198.57,-35 6208.49,-33.75 6218.32,-32.39"/>
<polygon fill="black" stroke="black" points="6219.1,-35.82 6228.51,-30.94 6218.11,-28.89 6219.1,-35.82"/>
<text text-anchor="middle" x="6223.51" y="-34.74" font-family="Times,serif" font-size="14.00">1</text>
</g>
<!-- dra.MenuHandle -->
<g id="node27" class="node">
<title>dra.MenuHandle</title>
<g id="a_node27"><a xlink:href="dra.MenuHandle.svg" xlink:title="dra.MenuHandle">
<ellipse fill="green" stroke="black" cx="3365.09" cy="-378" rx="89.08" ry="18"/>
<text text-anchor="middle" x="3365.09" y="-374.3" font-family="Times,serif" font-size="14.00">dra.MenuHandle</text>
</a>
</g>
</g>
<!-- dra.MenuHandle&#45;&gt;dra.MenuDraw -->
<g id="edge26" class="edge">
<title>dra.MenuHandle&#45;&gt;dra.MenuDraw</title>
<path fill="none" stroke="black" d="M3365.09,-359.93C3365.09,-328.97 3365.09,-263.3 3365.09,-226.13"/>
<polygon fill="black" stroke="black" points="3368.59,-226.02 3365.09,-216.02 3361.59,-226.02 3368.59,-226.02"/>
<text text-anchor="middle" x="3360.09" y="-348.73" font-family="Times,serif" font-size="14.00">1</text>
</g>
</g>
</svg>
