<?xml version="1.0" encoding="UTF-8" standalone="no"?>
<!DOCTYPE svg PUBLIC "-//W3C//DTD SVG 1.1//EN"
 "http://www.w3.org/Graphics/SVG/1.1/DTD/svg11.dtd">
<!-- Generated by graphviz version 2.43.0 (0)
 -->
<!-- Title: dra.VSyncHandler Pages: 1 -->
<svg width="308pt" height="224pt"
 viewBox="0.00 0.00 308.04 224.00" xmlns="http://www.w3.org/2000/svg" xmlns:xlink="http://www.w3.org/1999/xlink">
<g id="graph0" class="graph" transform="scale(1 1) rotate(0) translate(4 220)">
<title>dra.VSyncHandler</title>
<polygon fill="white" stroke="transparent" points="-4,4 -4,-220 304.04,-220 304.04,4 -4,4"/>
<!-- dra.VSyncHandler -->
<g id="node1" class="node">
<title>dra.VSyncHandler</title>
<ellipse fill="green" stroke="black" cx="140.74" cy="-198" rx="95.58" ry="18"/>
<text text-anchor="middle" x="140.74" y="-194.3" font-family="Times,serif" font-size="14.00">dra.VSyncHandler</text>
</g>
<!-- LoadImage -->
<g id="node2" class="node">
<title>LoadImage</title>
<g id="a_node2"><a xlink:href="LoadImage.svg" xlink:title="LoadImage">
<ellipse fill="lightblue" stroke="black" cx="61.74" cy="-18" rx="61.99" ry="18"/>
<text text-anchor="middle" x="61.74" y="-14.3" font-family="Times,serif" font-size="14.00">LoadImage</text>
</a>
</g>
</g>
<!-- dra.VSyncHandler&#45;&gt;LoadImage -->
<g id="edge1" class="edge">
<title>dra.VSyncHandler&#45;&gt;LoadImage</title>
<path fill="none" stroke="black" d="M133.17,-179.93C119.31,-148.7 89.78,-82.17 73.36,-45.18"/>
<polygon fill="black" stroke="black" points="76.55,-43.74 69.3,-36.02 70.15,-46.58 76.55,-43.74"/>
<text text-anchor="middle" x="64.3" y="-39.82" font-family="Times,serif" font-size="14.00">1</text>
</g>
<!-- dra.nullsub_10 -->
<g id="node3" class="node">
<title>dra.nullsub_10</title>
<g id="a_node3"><a xlink:href="dra.nullsub_10.svg" xlink:title="dra.nullsub_10">
<ellipse fill="green" stroke="black" cx="220.74" cy="-18" rx="79.09" ry="18"/>
<text text-anchor="middle" x="220.74" y="-14.3" font-family="Times,serif" font-size="14.00">dra.nullsub_10</text>
</a>
</g>
</g>
<!-- dra.VSyncHandler&#45;&gt;dra.nullsub_10 -->
<g id="edge2" class="edge">
<title>dra.VSyncHandler&#45;&gt;dra.nullsub_10</title>
<path fill="none" stroke="black" d="M148.42,-179.93C162.45,-148.7 192.35,-82.17 208.98,-45.18"/>
<polygon fill="black" stroke="black" points="212.19,-46.57 213.1,-36.02 205.81,-43.7 212.19,-46.57"/>
<text text-anchor="middle" x="208.1" y="-39.82" font-family="Times,serif" font-size="14.00">1</text>
</g>
</g>
</svg>
