<?xml version="1.0" encoding="UTF-8" standalone="no"?>
<!DOCTYPE svg PUBLIC "-//W3C//DTD SVG 1.1//EN"
 "http://www.w3.org/Graphics/SVG/1.1/DTD/svg11.dtd">
<!-- Generated by graphviz version 2.43.0 (0)
 -->
<!-- Title: dra.func_800FF494 Pages: 1 -->
<svg width="1187pt" height="404pt"
 viewBox="0.00 0.00 1186.58 404.00" xmlns="http://www.w3.org/2000/svg" xmlns:xlink="http://www.w3.org/1999/xlink">
<g id="graph0" class="graph" transform="scale(1 1) rotate(0) translate(4 400)">
<title>dra.func_800FF494</title>
<polygon fill="white" stroke="transparent" points="-4,4 -4,-400 1182.58,-400 1182.58,4 -4,4"/>
<!-- dra.func_800FF494 -->
<g id="node1" class="node">
<title>dra.func_800FF494</title>
<ellipse fill="green" stroke="black" cx="581.04" cy="-198" rx="101.28" ry="18"/>
<text text-anchor="middle" x="581.04" y="-194.3" font-family="Times,serif" font-size="14.00">dra.func_800FF494</text>
</g>
<!-- dra.CheckEquipmentItemCount -->
<g id="node2" class="node">
<title>dra.CheckEquipmentItemCount</title>
<g id="a_node2"><a xlink:href="dra.CheckEquipmentItemCount.svg" xlink:title="dra.CheckEquipmentItemCount">
<ellipse fill="green" stroke="black" cx="477.04" cy="-18" rx="157.87" ry="18"/>
<text text-anchor="middle" x="477.04" y="-14.3" font-family="Times,serif" font-size="14.00">dra.CheckEquipmentItemCount</text>
</a>
</g>
</g>
<!-- dra.func_800FF494&#45;&gt;dra.CheckEquipmentItemCount -->
<g id="edge1" class="edge">
<title>dra.func_800FF494&#45;&gt;dra.CheckEquipmentItemCount</title>
<path fill="none" stroke="black" d="M571.07,-179.93C552.74,-148.57 513.62,-81.6 492.06,-44.71"/>
<polygon fill="black" stroke="black" points="495.05,-42.88 486.98,-36.02 489.01,-46.42 495.05,-42.88"/>
<text text-anchor="middle" x="481.98" y="-39.82" font-family="Times,serif" font-size="14.00">1</text>
</g>
<!-- rand -->
<g id="node3" class="node">
<title>rand</title>
<g id="a_node3"><a xlink:href="rand.svg" xlink:title="rand">
<ellipse fill="lightblue" stroke="black" cx="685.04" cy="-18" rx="32.49" ry="18"/>
<text text-anchor="middle" x="685.04" y="-14.3" font-family="Times,serif" font-size="14.00">rand</text>
</a>
</g>
</g>
<!-- dra.func_800FF494&#45;&gt;rand -->
<g id="edge2" class="edge">
<title>dra.func_800FF494&#45;&gt;rand</title>
<path fill="none" stroke="black" d="M591.01,-179.93C609.4,-148.46 648.73,-81.15 670.24,-44.33"/>
<polygon fill="black" stroke="black" points="673.53,-45.64 675.55,-35.24 667.49,-42.11 673.53,-45.64"/>
<text text-anchor="middle" x="670.55" y="-39.04" font-family="Times,serif" font-size="14.00">4</text>
</g>
<!-- cen.HitDetection -->
<g id="node4" class="node">
<title>cen.HitDetection</title>
<g id="a_node4"><a xlink:href="cen.HitDetection.svg" xlink:title="cen.HitDetection">
<ellipse fill="green" stroke="black" cx="89.04" cy="-378" rx="89.08" ry="18"/>
<text text-anchor="middle" x="89.04" y="-374.3" font-family="Times,serif" font-size="14.00">cen.HitDetection</text>
</a>
</g>
</g>
<!-- cen.HitDetection&#45;&gt;dra.func_800FF494 -->
<g id="edge3" class="edge">
<title>cen.HitDetection&#45;&gt;dra.func_800FF494</title>
<path fill="none" stroke="black" d="M130.57,-361.98C220.02,-329.61 430.77,-253.37 528.98,-217.84"/>
<polygon fill="black" stroke="black" points="530.19,-221.12 538.41,-214.42 527.81,-214.54 530.19,-221.12"/>
<text text-anchor="middle" x="125.57" y="-350.78" font-family="Times,serif" font-size="14.00">1</text>
</g>
<!-- dre.HitDetection -->
<g id="node5" class="node">
<title>dre.HitDetection</title>
<g id="a_node5"><a xlink:href="dre.HitDetection.svg" xlink:title="dre.HitDetection">
<ellipse fill="green" stroke="black" cx="285.04" cy="-378" rx="89.08" ry="18"/>
<text text-anchor="middle" x="285.04" y="-374.3" font-family="Times,serif" font-size="14.00">dre.HitDetection</text>
</a>
</g>
</g>
<!-- dre.HitDetection&#45;&gt;dra.func_800FF494 -->
<g id="edge4" class="edge">
<title>dre.HitDetection&#45;&gt;dra.func_800FF494</title>
<path fill="none" stroke="black" d="M312.09,-360.73C365.58,-328.57 484.86,-256.84 544.96,-220.7"/>
<polygon fill="black" stroke="black" points="546.96,-223.58 553.73,-215.42 543.36,-217.58 546.96,-223.58"/>
<text text-anchor="middle" x="307.09" y="-349.53" font-family="Times,serif" font-size="14.00">1</text>
</g>
<!-- no3.HitDetection -->
<g id="node6" class="node">
<title>no3.HitDetection</title>
<g id="a_node6"><a xlink:href="no3.HitDetection.svg" xlink:title="no3.HitDetection">
<ellipse fill="green" stroke="black" cx="482.04" cy="-378" rx="90.18" ry="18"/>
<text text-anchor="middle" x="482.04" y="-374.3" font-family="Times,serif" font-size="14.00">no3.HitDetection</text>
</a>
</g>
</g>
<!-- no3.HitDetection&#45;&gt;dra.func_800FF494 -->
<g id="edge5" class="edge">
<title>no3.HitDetection&#45;&gt;dra.func_800FF494</title>
<path fill="none" stroke="black" d="M491.53,-359.93C508.91,-328.7 545.91,-262.17 566.48,-225.18"/>
<polygon fill="black" stroke="black" points="569.78,-226.46 571.58,-216.02 563.66,-223.05 569.78,-226.46"/>
<text text-anchor="middle" x="486.53" y="-348.73" font-family="Times,serif" font-size="14.00">1</text>
</g>
<!-- np3.HitDetection -->
<g id="node7" class="node">
<title>np3.HitDetection</title>
<g id="a_node7"><a xlink:href="np3.HitDetection.svg" xlink:title="np3.HitDetection">
<ellipse fill="green" stroke="black" cx="681.04" cy="-378" rx="90.98" ry="18"/>
<text text-anchor="middle" x="681.04" y="-374.3" font-family="Times,serif" font-size="14.00">np3.HitDetection</text>
</a>
</g>
</g>
<!-- np3.HitDetection&#45;&gt;dra.func_800FF494 -->
<g id="edge6" class="edge">
<title>np3.HitDetection&#45;&gt;dra.func_800FF494</title>
<path fill="none" stroke="black" d="M671.45,-359.93C653.91,-328.7 616.53,-262.17 595.75,-225.18"/>
<polygon fill="black" stroke="black" points="598.55,-223.02 590.6,-216.02 592.45,-226.45 598.55,-223.02"/>
<text text-anchor="middle" x="666.45" y="-348.73" font-family="Times,serif" font-size="14.00">1</text>
</g>
<!-- nz0.HitDetection -->
<g id="node8" class="node">
<title>nz0.HitDetection</title>
<g id="a_node8"><a xlink:href="nz0.HitDetection.svg" xlink:title="nz0.HitDetection">
<ellipse fill="green" stroke="black" cx="880.04" cy="-378" rx="89.88" ry="18"/>
<text text-anchor="middle" x="880.04" y="-374.3" font-family="Times,serif" font-size="14.00">nz0.HitDetection</text>
</a>
</g>
</g>
<!-- nz0.HitDetection&#45;&gt;dra.func_800FF494 -->
<g id="edge7" class="edge">
<title>nz0.HitDetection&#45;&gt;dra.func_800FF494</title>
<path fill="none" stroke="black" d="M852.72,-360.73C798.69,-328.57 678.2,-256.84 617.49,-220.7"/>
<polygon fill="black" stroke="black" points="619.01,-217.53 608.63,-215.42 615.43,-223.55 619.01,-217.53"/>
<text text-anchor="middle" x="847.72" y="-349.53" font-family="Times,serif" font-size="14.00">1</text>
</g>
<!-- rwrp.HitDetection -->
<g id="node9" class="node">
<title>rwrp.HitDetection</title>
<g id="a_node9"><a xlink:href="rwrp.HitDetection.svg" xlink:title="rwrp.HitDetection">
<ellipse fill="green" stroke="black" cx="1083.04" cy="-378" rx="95.58" ry="18"/>
<text text-anchor="middle" x="1083.04" y="-374.3" font-family="Times,serif" font-size="14.00">rwrp.HitDetection</text>
</a>
</g>
</g>
<!-- rwrp.HitDetection&#45;&gt;dra.func_800FF494 -->
<g id="edge8" class="edge">
<title>rwrp.HitDetection&#45;&gt;dra.func_800FF494</title>
<path fill="none" stroke="black" d="M1040.24,-361.82C948.69,-329.36 734.04,-253.25 634.05,-217.79"/>
<polygon fill="black" stroke="black" points="635.04,-214.43 624.45,-214.39 632.7,-221.03 635.04,-214.43"/>
<text text-anchor="middle" x="1035.24" y="-350.62" font-family="Times,serif" font-size="14.00">1</text>
</g>
</g>
</svg>
