<?xml version="1.0" encoding="UTF-8" standalone="no"?>
<!DOCTYPE svg PUBLIC "-//W3C//DTD SVG 1.1//EN"
 "http://www.w3.org/Graphics/SVG/1.1/DTD/svg11.dtd">
<!-- Generated by graphviz version 2.43.0 (0)
 -->
<!-- Title: dra.func_8010FB68 Pages: 1 -->
<svg width="1882pt" height="404pt"
 viewBox="0.00 0.00 1882.13 404.00" xmlns="http://www.w3.org/2000/svg" xmlns:xlink="http://www.w3.org/1999/xlink">
<g id="graph0" class="graph" transform="scale(1 1) rotate(0) translate(4 400)">
<title>dra.func_8010FB68</title>
<polygon fill="white" stroke="transparent" points="-4,4 -4,-400 1878.13,-400 1878.13,4 -4,4"/>
<!-- dra.func_8010FB68 -->
<g id="node1" class="node">
<title>dra.func_8010FB68</title>
<ellipse fill="green" stroke="black" cx="997.74" cy="-198" rx="102.08" ry="18"/>
<text text-anchor="middle" x="997.74" y="-194.3" font-family="Times,serif" font-size="14.00">dra.func_8010FB68</text>
</g>
<!-- dra.CreateEntFactoryFromEntity -->
<g id="node2" class="node">
<title>dra.CreateEntFactoryFromEntity</title>
<g id="a_node2"><a xlink:href="dra.CreateEntFactoryFromEntity.svg" xlink:title="dra.CreateEntFactoryFromEntity">
<ellipse fill="green" stroke="black" cx="165.74" cy="-18" rx="165.97" ry="18"/>
<text text-anchor="middle" x="165.74" y="-14.3" font-family="Times,serif" font-size="14.00">dra.CreateEntFactoryFromEntity</text>
</a>
</g>
</g>
<!-- dra.func_8010FB68&#45;&gt;dra.CreateEntFactoryFromEntity -->
<g id="edge1" class="edge">
<title>dra.func_8010FB68&#45;&gt;dra.CreateEntFactoryFromEntity</title>
<path fill="none" stroke="black" d="M935.54,-183.69C787.36,-151.99 413.5,-72.01 247.42,-36.47"/>
<polygon fill="black" stroke="black" points="247.77,-32.97 237.26,-34.3 246.31,-39.82 247.77,-32.97"/>
<text text-anchor="middle" x="232.26" y="-38.1" font-family="Times,serif" font-size="14.00">1</text>
</g>
<!-- dra.GetStatusAilmentTimer -->
<g id="node3" class="node">
<title>dra.GetStatusAilmentTimer</title>
<g id="a_node3"><a xlink:href="dra.GetStatusAilmentTimer.svg" xlink:title="dra.GetStatusAilmentTimer">
<ellipse fill="green" stroke="black" cx="488.74" cy="-18" rx="139.98" ry="18"/>
<text text-anchor="middle" x="488.74" y="-14.3" font-family="Times,serif" font-size="14.00">dra.GetStatusAilmentTimer</text>
</a>
</g>
</g>
<!-- dra.func_8010FB68&#45;&gt;dra.GetStatusAilmentTimer -->
<g id="edge2" class="edge">
<title>dra.func_8010FB68&#45;&gt;dra.GetStatusAilmentTimer</title>
<path fill="none" stroke="black" d="M953.9,-181.67C861.39,-149.32 646.37,-74.12 544.35,-38.45"/>
<polygon fill="black" stroke="black" points="545.44,-35.12 534.84,-35.12 543.13,-41.73 545.44,-35.12"/>
<text text-anchor="middle" x="529.84" y="-38.92" font-family="Times,serif" font-size="14.00">1</text>
</g>
<!-- dra.PlaySfx -->
<g id="node4" class="node">
<title>dra.PlaySfx</title>
<g id="a_node4"><a xlink:href="dra.PlaySfx.svg" xlink:title="dra.PlaySfx">
<ellipse fill="green" stroke="black" cx="710.74" cy="-18" rx="64.19" ry="18"/>
<text text-anchor="middle" x="710.74" y="-14.3" font-family="Times,serif" font-size="14.00">dra.PlaySfx</text>
</a>
</g>
</g>
<!-- dra.func_8010FB68&#45;&gt;dra.PlaySfx -->
<g id="edge3" class="edge">
<title>dra.func_8010FB68&#45;&gt;dra.PlaySfx</title>
<path fill="none" stroke="black" d="M971.25,-180.57C918.96,-148.14 802.51,-75.92 744.68,-40.05"/>
<polygon fill="black" stroke="black" points="746.26,-36.92 735.92,-34.62 742.58,-42.87 746.26,-36.92"/>
<text text-anchor="middle" x="730.92" y="-38.42" font-family="Times,serif" font-size="14.00">2</text>
</g>
<!-- dra.SetPlayerStep -->
<g id="node5" class="node">
<title>dra.SetPlayerStep</title>
<g id="a_node5"><a xlink:href="dra.SetPlayerStep.svg" xlink:title="dra.SetPlayerStep">
<ellipse fill="green" stroke="black" cx="889.74" cy="-18" rx="96.38" ry="18"/>
<text text-anchor="middle" x="889.74" y="-14.3" font-family="Times,serif" font-size="14.00">dra.SetPlayerStep</text>
</a>
</g>
</g>
<!-- dra.func_8010FB68&#45;&gt;dra.SetPlayerStep -->
<g id="edge4" class="edge">
<title>dra.func_8010FB68&#45;&gt;dra.SetPlayerStep</title>
<path fill="none" stroke="black" d="M987.38,-179.93C968.35,-148.57 927.72,-81.6 905.33,-44.71"/>
<polygon fill="black" stroke="black" points="908.24,-42.75 900.06,-36.02 902.25,-46.38 908.24,-42.75"/>
<text text-anchor="middle" x="895.06" y="-39.82" font-family="Times,serif" font-size="14.00">1</text>
</g>
<!-- dra.func_801092E8 -->
<g id="node6" class="node">
<title>dra.func_801092E8</title>
<g id="a_node6"><a xlink:href="dra.func_801092E8.svg" xlink:title="dra.func_801092E8">
<ellipse fill="green" stroke="black" cx="1105.74" cy="-18" rx="101.28" ry="18"/>
<text text-anchor="middle" x="1105.74" y="-14.3" font-family="Times,serif" font-size="14.00">dra.func_801092E8</text>
</a>
</g>
</g>
<!-- dra.func_8010FB68&#45;&gt;dra.func_801092E8 -->
<g id="edge5" class="edge">
<title>dra.func_8010FB68&#45;&gt;dra.func_801092E8</title>
<path fill="none" stroke="black" d="M1008.09,-179.93C1027.12,-148.57 1067.75,-81.6 1090.14,-44.71"/>
<polygon fill="black" stroke="black" points="1093.22,-46.38 1095.41,-36.02 1087.23,-42.75 1093.22,-46.38"/>
<text text-anchor="middle" x="1090.41" y="-39.82" font-family="Times,serif" font-size="14.00">1</text>
</g>
<!-- dra.func_8010DA48 -->
<g id="node7" class="node">
<title>dra.func_8010DA48</title>
<g id="a_node7"><a xlink:href="dra.func_8010DA48.svg" xlink:title="dra.func_8010DA48">
<ellipse fill="green" stroke="black" cx="1327.74" cy="-18" rx="102.88" ry="18"/>
<text text-anchor="middle" x="1327.74" y="-14.3" font-family="Times,serif" font-size="14.00">dra.func_8010DA48</text>
</a>
</g>
</g>
<!-- dra.func_8010FB68&#45;&gt;dra.func_8010DA48 -->
<g id="edge6" class="edge">
<title>dra.func_8010FB68&#45;&gt;dra.func_8010DA48</title>
<path fill="none" stroke="black" d="M1027.9,-180.73C1087.77,-148.44 1221.6,-76.25 1288.33,-40.25"/>
<polygon fill="black" stroke="black" points="1290.15,-43.25 1297.29,-35.42 1286.82,-37.09 1290.15,-43.25"/>
<text text-anchor="middle" x="1292.29" y="-39.22" font-family="Times,serif" font-size="14.00">1</text>
</g>
<!-- dra.func_8010E3E0 -->
<g id="node8" class="node">
<title>dra.func_8010E3E0</title>
<g id="a_node8"><a xlink:href="dra.func_8010E3E0.svg" xlink:title="dra.func_8010E3E0">
<ellipse fill="green" stroke="black" cx="1550.74" cy="-18" rx="102.88" ry="18"/>
<text text-anchor="middle" x="1550.74" y="-14.3" font-family="Times,serif" font-size="14.00">dra.func_8010E3E0</text>
</a>
</g>
</g>
<!-- dra.func_8010FB68&#45;&gt;dra.func_8010E3E0 -->
<g id="edge7" class="edge">
<title>dra.func_8010FB68&#45;&gt;dra.func_8010E3E0</title>
<path fill="none" stroke="black" d="M1044.41,-181.98C1145.64,-149.39 1385.06,-72.33 1494.45,-37.12"/>
<polygon fill="black" stroke="black" points="1495.55,-40.44 1503.99,-34.05 1493.4,-33.78 1495.55,-40.44"/>
<text text-anchor="middle" x="1498.99" y="-37.85" font-family="Times,serif" font-size="14.00">1</text>
</g>
<!-- dra.func_80118C28 -->
<g id="node9" class="node">
<title>dra.func_80118C28</title>
<g id="a_node9"><a xlink:href="dra.func_80118C28.svg" xlink:title="dra.func_80118C28">
<ellipse fill="green" stroke="black" cx="1772.74" cy="-18" rx="101.28" ry="18"/>
<text text-anchor="middle" x="1772.74" y="-14.3" font-family="Times,serif" font-size="14.00">dra.func_80118C28</text>
</a>
</g>
</g>
<!-- dra.func_8010FB68&#45;&gt;dra.func_80118C28 -->
<g id="edge8" class="edge">
<title>dra.func_8010FB68&#45;&gt;dra.func_80118C28</title>
<path fill="none" stroke="black" d="M1057.26,-183.33C1198.37,-150.92 1552.6,-69.56 1703.22,-34.97"/>
<polygon fill="black" stroke="black" points="1704.31,-38.31 1713.27,-32.66 1702.74,-31.48 1704.31,-38.31"/>
<text text-anchor="middle" x="1708.27" y="-36.46" font-family="Times,serif" font-size="14.00">1</text>
</g>
<!-- dra.CheckDarkMetamorphosisInput -->
<g id="node10" class="node">
<title>dra.CheckDarkMetamorphosisInput</title>
<g id="a_node10"><a xlink:href="dra.CheckDarkMetamorphosisInput.svg" xlink:title="dra.CheckDarkMetamorphosisInput">
<ellipse fill="green" stroke="black" cx="997.74" cy="-378" rx="176.57" ry="18"/>
<text text-anchor="middle" x="997.74" y="-374.3" font-family="Times,serif" font-size="14.00">dra.CheckDarkMetamorphosisInput</text>
</a>
</g>
</g>
<!-- dra.CheckDarkMetamorphosisInput&#45;&gt;dra.func_8010FB68 -->
<g id="edge9" class="edge">
<title>dra.CheckDarkMetamorphosisInput&#45;&gt;dra.func_8010FB68</title>
<path fill="none" stroke="black" d="M997.74,-359.93C997.74,-328.97 997.74,-263.3 997.74,-226.13"/>
<polygon fill="black" stroke="black" points="1001.24,-226.02 997.74,-216.02 994.24,-226.02 1001.24,-226.02"/>
<text text-anchor="middle" x="992.74" y="-348.73" font-family="Times,serif" font-size="14.00">1</text>
</g>
</g>
</svg>
