<?xml version="1.0" encoding="UTF-8" standalone="no"?>
<!DOCTYPE svg PUBLIC "-//W3C//DTD SVG 1.1//EN"
 "http://www.w3.org/Graphics/SVG/1.1/DTD/svg11.dtd">
<!-- Generated by graphviz version 2.43.0 (0)
 -->
<!-- Title: dra.func_8010E470 Pages: 1 -->
<svg width="1289pt" height="404pt"
 viewBox="0.00 0.00 1288.53 404.00" xmlns="http://www.w3.org/2000/svg" xmlns:xlink="http://www.w3.org/1999/xlink">
<g id="graph0" class="graph" transform="scale(1 1) rotate(0) translate(4 400)">
<title>dra.func_8010E470</title>
<polygon fill="white" stroke="transparent" points="-4,4 -4,-400 1284.53,-400 1284.53,4 -4,4"/>
<!-- dra.func_8010E470 -->
<g id="node1" class="node">
<title>dra.func_8010E470</title>
<ellipse fill="green" stroke="black" cx="684.84" cy="-198" rx="101.28" ry="18"/>
<text text-anchor="middle" x="684.84" y="-194.3" font-family="Times,serif" font-size="14.00">dra.func_8010E470</text>
</g>
<!-- dra.SetPlayerAnim -->
<g id="node2" class="node">
<title>dra.SetPlayerAnim</title>
<g id="a_node2"><a xlink:href="dra.SetPlayerAnim.svg" xlink:title="dra.SetPlayerAnim">
<ellipse fill="green" stroke="black" cx="684.84" cy="-18" rx="98.58" ry="18"/>
<text text-anchor="middle" x="684.84" y="-14.3" font-family="Times,serif" font-size="14.00">dra.SetPlayerAnim</text>
</a>
</g>
</g>
<!-- dra.func_8010E470&#45;&gt;dra.SetPlayerAnim -->
<g id="edge1" class="edge">
<title>dra.func_8010E470&#45;&gt;dra.SetPlayerAnim</title>
<path fill="none" stroke="black" d="M684.84,-179.93C684.84,-148.97 684.84,-83.3 684.84,-46.13"/>
<polygon fill="black" stroke="black" points="688.34,-46.02 684.84,-36.02 681.34,-46.02 688.34,-46.02"/>
<text text-anchor="middle" x="679.84" y="-39.82" font-family="Times,serif" font-size="14.00">1</text>
</g>
<!-- dra.AlucardHandleDamage -->
<g id="node3" class="node">
<title>dra.AlucardHandleDamage</title>
<g id="a_node3"><a xlink:href="dra.AlucardHandleDamage.svg" xlink:title="dra.AlucardHandleDamage">
<ellipse fill="green" stroke="black" cx="135.84" cy="-378" rx="135.68" ry="18"/>
<text text-anchor="middle" x="135.84" y="-374.3" font-family="Times,serif" font-size="14.00">dra.AlucardHandleDamage</text>
</a>
</g>
</g>
<!-- dra.AlucardHandleDamage&#45;&gt;dra.func_8010E470 -->
<g id="edge2" class="edge">
<title>dra.AlucardHandleDamage&#45;&gt;dra.func_8010E470</title>
<path fill="none" stroke="black" d="M185.04,-361.05C287,-327.99 520.81,-252.18 628.57,-217.25"/>
<polygon fill="black" stroke="black" points="629.85,-220.51 638.28,-214.1 627.69,-213.85 629.85,-220.51"/>
<text text-anchor="middle" x="180.04" y="-349.85" font-family="Times,serif" font-size="14.00">1</text>
</g>
<!-- dra.PlayerStepCrouch -->
<g id="node4" class="node">
<title>dra.PlayerStepCrouch</title>
<g id="a_node4"><a xlink:href="dra.PlayerStepCrouch.svg" xlink:title="dra.PlayerStepCrouch">
<ellipse fill="green" stroke="black" cx="403.84" cy="-378" rx="113.98" ry="18"/>
<text text-anchor="middle" x="403.84" y="-374.3" font-family="Times,serif" font-size="14.00">dra.PlayerStepCrouch</text>
</a>
</g>
</g>
<!-- dra.PlayerStepCrouch&#45;&gt;dra.func_8010E470 -->
<g id="edge3" class="edge">
<title>dra.PlayerStepCrouch&#45;&gt;dra.func_8010E470</title>
<path fill="none" stroke="black" d="M430.02,-360.41C480.85,-328.22 592.88,-257.25 649.95,-221.1"/>
<polygon fill="black" stroke="black" points="652.04,-223.92 658.62,-215.61 648.3,-218 652.04,-223.92"/>
<text text-anchor="middle" x="425.02" y="-349.21" font-family="Times,serif" font-size="14.00">2</text>
</g>
<!-- dra.PlayerStepSummonSpells -->
<g id="node5" class="node">
<title>dra.PlayerStepSummonSpells</title>
<g id="a_node5"><a xlink:href="dra.PlayerStepSummonSpells.svg" xlink:title="dra.PlayerStepSummonSpells">
<ellipse fill="green" stroke="black" cx="684.84" cy="-378" rx="149.47" ry="18"/>
<text text-anchor="middle" x="684.84" y="-374.3" font-family="Times,serif" font-size="14.00">dra.PlayerStepSummonSpells</text>
</a>
</g>
</g>
<!-- dra.PlayerStepSummonSpells&#45;&gt;dra.func_8010E470 -->
<g id="edge4" class="edge">
<title>dra.PlayerStepSummonSpells&#45;&gt;dra.func_8010E470</title>
<path fill="none" stroke="black" d="M684.84,-359.93C684.84,-328.97 684.84,-263.3 684.84,-226.13"/>
<polygon fill="black" stroke="black" points="688.34,-226.02 684.84,-216.02 681.34,-226.02 688.34,-226.02"/>
<text text-anchor="middle" x="679.84" y="-348.73" font-family="Times,serif" font-size="14.00">1</text>
</g>
<!-- dra.func_8010E4D0 -->
<g id="node6" class="node">
<title>dra.func_8010E4D0</title>
<g id="a_node6"><a xlink:href="dra.func_8010E4D0.svg" xlink:title="dra.func_8010E4D0">
<ellipse fill="green" stroke="black" cx="954.84" cy="-378" rx="102.88" ry="18"/>
<text text-anchor="middle" x="954.84" y="-374.3" font-family="Times,serif" font-size="14.00">dra.func_8010E4D0</text>
</a>
</g>
</g>
<!-- dra.func_8010E4D0&#45;&gt;dra.func_8010E470 -->
<g id="edge5" class="edge">
<title>dra.func_8010E4D0&#45;&gt;dra.func_8010E470</title>
<path fill="none" stroke="black" d="M929.44,-360.25C880.57,-328.04 773.45,-257.42 718.63,-221.27"/>
<polygon fill="black" stroke="black" points="720.25,-218.15 709.97,-215.57 716.4,-224 720.25,-218.15"/>
<text text-anchor="middle" x="924.44" y="-349.05" font-family="Times,serif" font-size="14.00">1</text>
</g>
<!-- dra.func_8010FDF8 -->
<g id="node7" class="node">
<title>dra.func_8010FDF8</title>
<g id="a_node7"><a xlink:href="dra.func_8010FDF8.svg" xlink:title="dra.func_8010FDF8">
<ellipse fill="green" stroke="black" cx="1177.84" cy="-378" rx="102.88" ry="18"/>
<text text-anchor="middle" x="1177.84" y="-374.3" font-family="Times,serif" font-size="14.00">dra.func_8010FDF8</text>
</a>
</g>
</g>
<!-- dra.func_8010FDF8&#45;&gt;dra.func_8010E470 -->
<g id="edge6" class="edge">
<title>dra.func_8010FDF8&#45;&gt;dra.func_8010E470</title>
<path fill="none" stroke="black" d="M1134.95,-361.52C1044.69,-328.93 835.41,-253.36 737.33,-217.95"/>
<polygon fill="black" stroke="black" points="738.22,-214.55 727.63,-214.45 735.84,-221.14 738.22,-214.55"/>
<text text-anchor="middle" x="1129.95" y="-350.32" font-family="Times,serif" font-size="14.00">4</text>
</g>
</g>
</svg>
