<?xml version="1.0" encoding="UTF-8" standalone="no"?>
<!DOCTYPE svg PUBLIC "-//W3C//DTD SVG 1.1//EN"
 "http://www.w3.org/Graphics/SVG/1.1/DTD/svg11.dtd">
<!-- Generated by graphviz version 2.43.0 (0)
 -->
<!-- Title: dra.LoadEquipIcon Pages: 1 -->
<svg width="5840pt" height="404pt"
 viewBox="0.00 0.00 5839.93 404.00" xmlns="http://www.w3.org/2000/svg" xmlns:xlink="http://www.w3.org/1999/xlink">
<g id="graph0" class="graph" transform="scale(1 1) rotate(0) translate(4 400)">
<title>dra.LoadEquipIcon</title>
<polygon fill="white" stroke="transparent" points="-4,4 -4,-400 5835.93,-400 5835.93,4 -4,4"/>
<!-- dra.LoadEquipIcon -->
<g id="node1" class="node">
<title>dra.LoadEquipIcon</title>
<ellipse fill="green" stroke="black" cx="2825.19" cy="-198" rx="98.58" ry="18"/>
<text text-anchor="middle" x="2825.19" y="-194.3" font-family="Times,serif" font-size="14.00">dra.LoadEquipIcon</text>
</g>
<!-- LoadClut2 -->
<g id="node2" class="node">
<title>LoadClut2</title>
<g id="a_node2"><a xlink:href="LoadClut2.svg" xlink:title="LoadClut2">
<ellipse fill="lightblue" stroke="black" cx="2756.19" cy="-18" rx="58.49" ry="18"/>
<text text-anchor="middle" x="2756.19" y="-14.3" font-family="Times,serif" font-size="14.00">LoadClut2</text>
</a>
</g>
</g>
<!-- dra.LoadEquipIcon&#45;&gt;LoadClut2 -->
<g id="edge1" class="edge">
<title>dra.LoadEquipIcon&#45;&gt;LoadClut2</title>
<path fill="none" stroke="black" d="M2818.57,-179.93C2806.52,-148.83 2780.89,-82.73 2766.52,-45.65"/>
<polygon fill="black" stroke="black" points="2769.66,-44.07 2762.78,-36.02 2763.14,-46.6 2769.66,-44.07"/>
<text text-anchor="middle" x="2757.78" y="-39.82" font-family="Times,serif" font-size="14.00">2</text>
</g>
<!-- LoadTPage -->
<g id="node3" class="node">
<title>LoadTPage</title>
<g id="a_node3"><a xlink:href="LoadTPage.svg" xlink:title="LoadTPage">
<ellipse fill="lightblue" stroke="black" cx="2894.19" cy="-18" rx="61.99" ry="18"/>
<text text-anchor="middle" x="2894.19" y="-14.3" font-family="Times,serif" font-size="14.00">LoadTPage</text>
</a>
</g>
</g>
<!-- dra.LoadEquipIcon&#45;&gt;LoadTPage -->
<g id="edge2" class="edge">
<title>dra.LoadEquipIcon&#45;&gt;LoadTPage</title>
<path fill="none" stroke="black" d="M2831.8,-179.93C2843.86,-148.83 2869.48,-82.73 2883.86,-45.65"/>
<polygon fill="black" stroke="black" points="2887.24,-46.6 2887.59,-36.02 2880.71,-44.07 2887.24,-46.6"/>
<text text-anchor="middle" x="2882.59" y="-39.82" font-family="Times,serif" font-size="14.00">1</text>
</g>
<!-- boss.EntityEquipItemDrop -->
<g id="node4" class="node">
<title>boss.EntityEquipItemDrop</title>
<g id="a_node4"><a xlink:href="boss.EntityEquipItemDrop.svg" xlink:title="boss.EntityEquipItemDrop">
<ellipse fill="red" stroke="black" cx="135.19" cy="-378" rx="135.38" ry="18"/>
<text text-anchor="middle" x="135.19" y="-374.3" font-family="Times,serif" font-size="14.00">boss.EntityEquipItemDrop</text>
</a>
</g>
</g>
<!-- boss.EntityEquipItemDrop&#45;&gt;dra.LoadEquipIcon -->
<g id="edge3" class="edge">
<title>boss.EntityEquipItemDrop&#45;&gt;dra.LoadEquipIcon</title>
<path fill="none" stroke="black" d="M229.61,-365.11C246.12,-363.24 263.14,-361.45 279.19,-360 1224.82,-274.35 2372.17,-219.24 2720.19,-203.59"/>
<polygon fill="black" stroke="black" points="2720.42,-207.08 2730.26,-203.14 2720.11,-200.09 2720.42,-207.08"/>
<text text-anchor="middle" x="224.61" y="-353.91" font-family="Times,serif" font-size="14.00">1</text>
</g>
<!-- boss.EntityRelicOrb -->
<g id="node5" class="node">
<title>boss.EntityRelicOrb</title>
<g id="a_node5"><a xlink:href="boss.EntityRelicOrb.svg" xlink:title="boss.EntityRelicOrb">
<ellipse fill="red" stroke="black" cx="392.19" cy="-378" rx="103.98" ry="18"/>
<text text-anchor="middle" x="392.19" y="-374.3" font-family="Times,serif" font-size="14.00">boss.EntityRelicOrb</text>
</a>
</g>
</g>
<!-- boss.EntityRelicOrb&#45;&gt;dra.LoadEquipIcon -->
<g id="edge4" class="edge">
<title>boss.EntityRelicOrb&#45;&gt;dra.LoadEquipIcon</title>
<path fill="none" stroke="black" d="M465.32,-365.12C478.57,-363.22 492.27,-361.42 505.19,-360 1356.81,-266.54 2390.61,-217.4 2719.46,-203.32"/>
<polygon fill="black" stroke="black" points="2720.08,-206.8 2729.92,-202.87 2719.78,-199.8 2720.08,-206.8"/>
<text text-anchor="middle" x="460.32" y="-353.92" font-family="Times,serif" font-size="14.00">1</text>
</g>
<!-- cen.EntityEquipItemDrop -->
<g id="node6" class="node">
<title>cen.EntityEquipItemDrop</title>
<g id="a_node6"><a xlink:href="cen.EntityEquipItemDrop.svg" xlink:title="cen.EntityEquipItemDrop">
<ellipse fill="green" stroke="black" cx="644.19" cy="-378" rx="129.98" ry="18"/>
<text text-anchor="middle" x="644.19" y="-374.3" font-family="Times,serif" font-size="14.00">cen.EntityEquipItemDrop</text>
</a>
</g>
</g>
<!-- cen.EntityEquipItemDrop&#45;&gt;dra.LoadEquipIcon -->
<g id="edge5" class="edge">
<title>cen.EntityEquipItemDrop&#45;&gt;dra.LoadEquipIcon</title>
<path fill="none" stroke="black" d="M736.09,-365.19C751.79,-363.34 767.95,-361.53 783.19,-360 1526.27,-285.3 2424.39,-224.81 2723.1,-205.49"/>
<polygon fill="black" stroke="black" points="2723.72,-208.96 2733.48,-204.82 2723.27,-201.97 2723.72,-208.96"/>
<text text-anchor="middle" x="731.09" y="-353.99" font-family="Times,serif" font-size="14.00">1</text>
</g>
<!-- cen.EntityRelicOrb -->
<g id="node7" class="node">
<title>cen.EntityRelicOrb</title>
<g id="a_node7"><a xlink:href="cen.EntityRelicOrb.svg" xlink:title="cen.EntityRelicOrb">
<ellipse fill="green" stroke="black" cx="891.19" cy="-378" rx="98.58" ry="18"/>
<text text-anchor="middle" x="891.19" y="-374.3" font-family="Times,serif" font-size="14.00">cen.EntityRelicOrb</text>
</a>
</g>
</g>
<!-- cen.EntityRelicOrb&#45;&gt;dra.LoadEquipIcon -->
<g id="edge6" class="edge">
<title>cen.EntityRelicOrb&#45;&gt;dra.LoadEquipIcon</title>
<path fill="none" stroke="black" d="M961.02,-365.19C973.38,-363.3 986.15,-361.49 998.19,-360 1653.73,-279.14 2446.48,-223.61 2723.66,-205.45"/>
<polygon fill="black" stroke="black" points="2723.95,-208.94 2733.7,-204.8 2723.49,-201.96 2723.95,-208.94"/>
<text text-anchor="middle" x="956.02" y="-353.99" font-family="Times,serif" font-size="14.00">1</text>
</g>
<!-- dra.MenuDraw -->
<g id="node8" class="node">
<title>dra.MenuDraw</title>
<g id="a_node8"><a xlink:href="dra.MenuDraw.svg" xlink:title="dra.MenuDraw">
<ellipse fill="green" stroke="black" cx="1088.19" cy="-378" rx="80.69" ry="18"/>
<text text-anchor="middle" x="1088.19" y="-374.3" font-family="Times,serif" font-size="14.00">dra.MenuDraw</text>
</a>
</g>
</g>
<!-- dra.MenuDraw&#45;&gt;dra.LoadEquipIcon -->
<g id="edge7" class="edge">
<title>dra.MenuDraw&#45;&gt;dra.LoadEquipIcon</title>
<path fill="none" stroke="black" d="M1145.68,-365.35C1156.45,-363.39 1167.64,-361.51 1178.19,-360 1760.55,-276.7 2465.01,-223.65 2723.66,-205.76"/>
<polygon fill="black" stroke="black" points="2724.05,-209.24 2733.79,-205.06 2723.57,-202.25 2724.05,-209.24"/>
<text text-anchor="middle" x="1140.68" y="-354.15" font-family="Times,serif" font-size="14.00">3</text>
</g>
<!-- dra.MenuHandle -->
<g id="node9" class="node">
<title>dra.MenuHandle</title>
<g id="a_node9"><a xlink:href="dra.MenuHandle.svg" xlink:title="dra.MenuHandle">
<ellipse fill="green" stroke="black" cx="1276.19" cy="-378" rx="89.08" ry="18"/>
<text text-anchor="middle" x="1276.19" y="-374.3" font-family="Times,serif" font-size="14.00">dra.MenuHandle</text>
</a>
</g>
</g>
<!-- dra.MenuHandle&#45;&gt;dra.LoadEquipIcon -->
<g id="edge8" class="edge">
<title>dra.MenuHandle&#45;&gt;dra.LoadEquipIcon</title>
<path fill="none" stroke="black" d="M1339.88,-365.37C1351.29,-363.45 1363.08,-361.58 1374.19,-360 1882.62,-287.76 2495.16,-229.02 2728.53,-207.66"/>
<polygon fill="black" stroke="black" points="2729.04,-211.13 2738.68,-206.73 2728.41,-204.16 2729.04,-211.13"/>
<text text-anchor="middle" x="1334.88" y="-354.17" font-family="Times,serif" font-size="14.00">1</text>
</g>
<!-- dra.func_800EB6B4 -->
<g id="node10" class="node">
<title>dra.func_800EB6B4</title>
<g id="a_node10"><a xlink:href="dra.func_800EB6B4.svg" xlink:title="dra.func_800EB6B4">
<ellipse fill="green" stroke="black" cx="1486.19" cy="-378" rx="103.18" ry="18"/>
<text text-anchor="middle" x="1486.19" y="-374.3" font-family="Times,serif" font-size="14.00">dra.func_800EB6B4</text>
</a>
</g>
</g>
<!-- dra.func_800EB6B4&#45;&gt;dra.LoadEquipIcon -->
<g id="edge9" class="edge">
<title>dra.func_800EB6B4&#45;&gt;dra.LoadEquipIcon</title>
<path fill="none" stroke="black" d="M1560.56,-365.5C1573.11,-363.62 1586.02,-361.72 1598.19,-360 2023.9,-299.77 2533.85,-235.32 2736.18,-210.05"/>
<polygon fill="black" stroke="black" points="2736.67,-213.52 2746.16,-208.81 2735.8,-206.57 2736.67,-213.52"/>
<text text-anchor="middle" x="1555.56" y="-354.3" font-family="Times,serif" font-size="14.00">1</text>
</g>
<!-- dra.func_800F8990 -->
<g id="node11" class="node">
<title>dra.func_800F8990</title>
<g id="a_node11"><a xlink:href="dra.func_800F8990.svg" xlink:title="dra.func_800F8990">
<ellipse fill="green" stroke="black" cx="1708.19" cy="-378" rx="100.98" ry="18"/>
<text text-anchor="middle" x="1708.19" y="-374.3" font-family="Times,serif" font-size="14.00">dra.func_800F8990</text>
</a>
</g>
</g>
<!-- dra.func_800F8990&#45;&gt;dra.LoadEquipIcon -->
<g id="edge10" class="edge">
<title>dra.func_800F8990&#45;&gt;dra.LoadEquipIcon</title>
<path fill="none" stroke="black" d="M1780.62,-365.46C1979.56,-333.76 2533.49,-245.48 2743.26,-212.06"/>
<polygon fill="black" stroke="black" points="2743.96,-215.49 2753.29,-210.46 2742.86,-208.58 2743.96,-215.49"/>
<text text-anchor="middle" x="1775.62" y="-354.26" font-family="Times,serif" font-size="14.00">1</text>
</g>
<!-- dra.func_800FAD34 -->
<g id="node12" class="node">
<title>dra.func_800FAD34</title>
<g id="a_node12"><a xlink:href="dra.func_800FAD34.svg" xlink:title="dra.func_800FAD34">
<ellipse fill="green" stroke="black" cx="1929.19" cy="-378" rx="102.08" ry="18"/>
<text text-anchor="middle" x="1929.19" y="-374.3" font-family="Times,serif" font-size="14.00">dra.func_800FAD34</text>
</a>
</g>
</g>
<!-- dra.func_800FAD34&#45;&gt;dra.LoadEquipIcon -->
<g id="edge11" class="edge">
<title>dra.func_800FAD34&#45;&gt;dra.LoadEquipIcon</title>
<path fill="none" stroke="black" d="M1994.35,-364.06C2156.92,-331.76 2579.67,-247.77 2751.23,-213.69"/>
<polygon fill="black" stroke="black" points="2752.05,-217.1 2761.17,-211.72 2750.68,-210.23 2752.05,-217.1"/>
<text text-anchor="middle" x="1989.35" y="-352.86" font-family="Times,serif" font-size="14.00">1</text>
</g>
<!-- dre.EntityEquipItemDrop -->
<g id="node13" class="node">
<title>dre.EntityEquipItemDrop</title>
<g id="a_node13"><a xlink:href="dre.EntityEquipItemDrop.svg" xlink:title="dre.EntityEquipItemDrop">
<ellipse fill="green" stroke="black" cx="2179.19" cy="-378" rx="129.98" ry="18"/>
<text text-anchor="middle" x="2179.19" y="-374.3" font-family="Times,serif" font-size="14.00">dre.EntityEquipItemDrop</text>
</a>
</g>
</g>
<!-- dre.EntityEquipItemDrop&#45;&gt;dra.LoadEquipIcon -->
<g id="edge12" class="edge">
<title>dre.EntityEquipItemDrop&#45;&gt;dra.LoadEquipIcon</title>
<path fill="none" stroke="black" d="M2234.82,-361.67C2354.91,-328.58 2637.66,-250.67 2763.23,-216.07"/>
<polygon fill="black" stroke="black" points="2764.37,-219.39 2773.08,-213.36 2762.51,-212.64 2764.37,-219.39"/>
<text text-anchor="middle" x="2229.82" y="-350.47" font-family="Times,serif" font-size="14.00">1</text>
</g>
<!-- dre.EntityRelicOrb -->
<g id="node14" class="node">
<title>dre.EntityRelicOrb</title>
<g id="a_node14"><a xlink:href="dre.EntityRelicOrb.svg" xlink:title="dre.EntityRelicOrb">
<ellipse fill="green" stroke="black" cx="2426.19" cy="-378" rx="98.58" ry="18"/>
<text text-anchor="middle" x="2426.19" y="-374.3" font-family="Times,serif" font-size="14.00">dre.EntityRelicOrb</text>
</a>
</g>
</g>
<!-- dre.EntityRelicOrb&#45;&gt;dra.LoadEquipIcon -->
<g id="edge13" class="edge">
<title>dre.EntityRelicOrb&#45;&gt;dra.LoadEquipIcon</title>
<path fill="none" stroke="black" d="M2461.95,-361.05C2534.83,-328.53 2700.39,-254.67 2780.34,-219.01"/>
<polygon fill="black" stroke="black" points="2781.95,-222.12 2789.65,-214.85 2779.09,-215.73 2781.95,-222.12"/>
<text text-anchor="middle" x="2456.95" y="-349.85" font-family="Times,serif" font-size="14.00">1</text>
</g>
<!-- no3.EntityDeathStolenItem -->
<g id="node15" class="node">
<title>no3.EntityDeathStolenItem</title>
<g id="a_node15"><a xlink:href="no3.EntityDeathStolenItem.svg" xlink:title="no3.EntityDeathStolenItem">
<ellipse fill="green" stroke="black" cx="2681.19" cy="-378" rx="138.38" ry="18"/>
<text text-anchor="middle" x="2681.19" y="-374.3" font-family="Times,serif" font-size="14.00">no3.EntityDeathStolenItem</text>
</a>
</g>
</g>
<!-- no3.EntityDeathStolenItem&#45;&gt;dra.LoadEquipIcon -->
<g id="edge14" class="edge">
<title>no3.EntityDeathStolenItem&#45;&gt;dra.LoadEquipIcon</title>
<path fill="none" stroke="black" d="M2695,-359.93C2720.48,-328.43 2775,-261.03 2804.77,-224.24"/>
<polygon fill="black" stroke="black" points="2807.85,-225.99 2811.42,-216.02 2802.41,-221.59 2807.85,-225.99"/>
<text text-anchor="middle" x="2690" y="-348.73" font-family="Times,serif" font-size="14.00">1</text>
</g>
<!-- no3.EntityEquipItemDrop -->
<g id="node16" class="node">
<title>no3.EntityEquipItemDrop</title>
<g id="a_node16"><a xlink:href="no3.EntityEquipItemDrop.svg" xlink:title="no3.EntityEquipItemDrop">
<ellipse fill="green" stroke="black" cx="2969.19" cy="-378" rx="131.08" ry="18"/>
<text text-anchor="middle" x="2969.19" y="-374.3" font-family="Times,serif" font-size="14.00">no3.EntityEquipItemDrop</text>
</a>
</g>
</g>
<!-- no3.EntityEquipItemDrop&#45;&gt;dra.LoadEquipIcon -->
<g id="edge15" class="edge">
<title>no3.EntityEquipItemDrop&#45;&gt;dra.LoadEquipIcon</title>
<path fill="none" stroke="black" d="M2955.38,-359.93C2929.9,-328.43 2875.37,-261.03 2845.61,-224.24"/>
<polygon fill="black" stroke="black" points="2847.96,-221.59 2838.95,-216.02 2842.52,-225.99 2847.96,-221.59"/>
<text text-anchor="middle" x="2950.38" y="-348.73" font-family="Times,serif" font-size="14.00">1</text>
</g>
<!-- no3.EntityRelicOrb -->
<g id="node17" class="node">
<title>no3.EntityRelicOrb</title>
<g id="a_node17"><a xlink:href="no3.EntityRelicOrb.svg" xlink:title="no3.EntityRelicOrb">
<ellipse fill="green" stroke="black" cx="3218.19" cy="-378" rx="100.18" ry="18"/>
<text text-anchor="middle" x="3218.19" y="-374.3" font-family="Times,serif" font-size="14.00">no3.EntityRelicOrb</text>
</a>
</g>
</g>
<!-- no3.EntityRelicOrb&#45;&gt;dra.LoadEquipIcon -->
<g id="edge16" class="edge">
<title>no3.EntityRelicOrb&#45;&gt;dra.LoadEquipIcon</title>
<path fill="none" stroke="black" d="M3182.97,-361.05C3111.18,-328.53 2948.11,-254.67 2869.36,-219.01"/>
<polygon fill="black" stroke="black" points="2870.74,-215.79 2860.19,-214.85 2867.86,-222.17 2870.74,-215.79"/>
<text text-anchor="middle" x="3177.97" y="-349.85" font-family="Times,serif" font-size="14.00">1</text>
</g>
<!-- np3.EntityEquipItemDrop -->
<g id="node18" class="node">
<title>np3.EntityEquipItemDrop</title>
<g id="a_node18"><a xlink:href="np3.EntityEquipItemDrop.svg" xlink:title="np3.EntityEquipItemDrop">
<ellipse fill="green" stroke="black" cx="3468.19" cy="-378" rx="131.88" ry="18"/>
<text text-anchor="middle" x="3468.19" y="-374.3" font-family="Times,serif" font-size="14.00">np3.EntityEquipItemDrop</text>
</a>
</g>
</g>
<!-- np3.EntityEquipItemDrop&#45;&gt;dra.LoadEquipIcon -->
<g id="edge17" class="edge">
<title>np3.EntityEquipItemDrop&#45;&gt;dra.LoadEquipIcon</title>
<path fill="none" stroke="black" d="M3412.53,-361.59C3292.82,-328.45 3011.65,-250.62 2886.79,-216.05"/>
<polygon fill="black" stroke="black" points="2887.57,-212.64 2877,-213.34 2885.7,-219.38 2887.57,-212.64"/>
<text text-anchor="middle" x="3407.53" y="-350.39" font-family="Times,serif" font-size="14.00">1</text>
</g>
<!-- np3.EntityRelicOrb -->
<g id="node19" class="node">
<title>np3.EntityRelicOrb</title>
<g id="a_node19"><a xlink:href="np3.EntityRelicOrb.svg" xlink:title="np3.EntityRelicOrb">
<ellipse fill="green" stroke="black" cx="3719.19" cy="-378" rx="100.98" ry="18"/>
<text text-anchor="middle" x="3719.19" y="-374.3" font-family="Times,serif" font-size="14.00">np3.EntityRelicOrb</text>
</a>
</g>
</g>
<!-- np3.EntityRelicOrb&#45;&gt;dra.LoadEquipIcon -->
<g id="edge18" class="edge">
<title>np3.EntityRelicOrb&#45;&gt;dra.LoadEquipIcon</title>
<path fill="none" stroke="black" d="M3654.53,-364.13C3492.61,-331.89 3070.42,-247.83 2899.07,-213.71"/>
<polygon fill="black" stroke="black" points="2899.62,-210.25 2889.13,-211.73 2898.25,-217.12 2899.62,-210.25"/>
<text text-anchor="middle" x="3649.53" y="-352.93" font-family="Times,serif" font-size="14.00">1</text>
</g>
<!-- nz0.EntityEquipItemDrop -->
<g id="node20" class="node">
<title>nz0.EntityEquipItemDrop</title>
<g id="a_node20"><a xlink:href="nz0.EntityEquipItemDrop.svg" xlink:title="nz0.EntityEquipItemDrop">
<ellipse fill="green" stroke="black" cx="3968.19" cy="-378" rx="130.78" ry="18"/>
<text text-anchor="middle" x="3968.19" y="-374.3" font-family="Times,serif" font-size="14.00">nz0.EntityEquipItemDrop</text>
</a>
</g>
</g>
<!-- nz0.EntityEquipItemDrop&#45;&gt;dra.LoadEquipIcon -->
<g id="edge19" class="edge">
<title>nz0.EntityEquipItemDrop&#45;&gt;dra.LoadEquipIcon</title>
<path fill="none" stroke="black" d="M3885.07,-364.06C3673.79,-331.15 3118.08,-244.61 2907.59,-211.83"/>
<polygon fill="black" stroke="black" points="2907.95,-208.35 2897.53,-210.27 2906.87,-215.26 2907.95,-208.35"/>
<text text-anchor="middle" x="3880.07" y="-352.86" font-family="Times,serif" font-size="14.00">1</text>
</g>
<!-- nz0.EntityRelicOrb -->
<g id="node21" class="node">
<title>nz0.EntityRelicOrb</title>
<g id="a_node21"><a xlink:href="nz0.EntityRelicOrb.svg" xlink:title="nz0.EntityRelicOrb">
<ellipse fill="green" stroke="black" cx="4216.19" cy="-378" rx="99.38" ry="18"/>
<text text-anchor="middle" x="4216.19" y="-374.3" font-family="Times,serif" font-size="14.00">nz0.EntityRelicOrb</text>
</a>
</g>
</g>
<!-- nz0.EntityRelicOrb&#45;&gt;dra.LoadEquipIcon -->
<g id="edge20" class="edge">
<title>nz0.EntityRelicOrb&#45;&gt;dra.LoadEquipIcon</title>
<path fill="none" stroke="black" d="M4144.78,-365.44C4132.58,-363.55 4120.03,-361.67 4108.19,-360 3662.05,-296.91 3126.81,-233.78 2916.44,-209.46"/>
<polygon fill="black" stroke="black" points="2916.7,-205.96 2906.36,-208.29 2915.9,-212.92 2916.7,-205.96"/>
<text text-anchor="middle" x="4139.78" y="-354.24" font-family="Times,serif" font-size="14.00">1</text>
</g>
<!-- rwrp.EntityEquipItemDrop -->
<g id="node22" class="node">
<title>rwrp.EntityEquipItemDrop</title>
<g id="a_node22"><a xlink:href="rwrp.EntityEquipItemDrop.svg" xlink:title="rwrp.EntityEquipItemDrop">
<ellipse fill="green" stroke="black" cx="4470.19" cy="-378" rx="136.48" ry="18"/>
<text text-anchor="middle" x="4470.19" y="-374.3" font-family="Times,serif" font-size="14.00">rwrp.EntityEquipItemDrop</text>
</a>
</g>
</g>
<!-- rwrp.EntityEquipItemDrop&#45;&gt;dra.LoadEquipIcon -->
<g id="edge21" class="edge">
<title>rwrp.EntityEquipItemDrop&#45;&gt;dra.LoadEquipIcon</title>
<path fill="none" stroke="black" d="M4372.03,-365.45C4356.04,-363.6 4339.66,-361.73 4324.19,-360 3792.67,-300.51 3154.63,-233.42 2918.75,-208.76"/>
<polygon fill="black" stroke="black" points="2918.81,-205.24 2908.5,-207.68 2918.08,-212.21 2918.81,-205.24"/>
<text text-anchor="middle" x="4367.03" y="-354.25" font-family="Times,serif" font-size="14.00">1</text>
</g>
<!-- rwrp.EntityRelicOrb -->
<g id="node23" class="node">
<title>rwrp.EntityRelicOrb</title>
<g id="a_node23"><a xlink:href="rwrp.EntityRelicOrb.svg" xlink:title="rwrp.EntityRelicOrb">
<ellipse fill="green" stroke="black" cx="4730.19" cy="-378" rx="105.08" ry="18"/>
<text text-anchor="middle" x="4730.19" y="-374.3" font-family="Times,serif" font-size="14.00">rwrp.EntityRelicOrb</text>
</a>
</g>
</g>
<!-- rwrp.EntityRelicOrb&#45;&gt;dra.LoadEquipIcon -->
<g id="edge22" class="edge">
<title>rwrp.EntityRelicOrb&#45;&gt;dra.LoadEquipIcon</title>
<path fill="none" stroke="black" d="M4655.42,-365.32C4642.04,-363.41 4628.21,-361.55 4615.19,-360 3973.55,-283.78 3198.67,-225.52 2925.98,-206.04"/>
<polygon fill="black" stroke="black" points="2925.94,-202.53 2915.72,-205.31 2925.44,-209.51 2925.94,-202.53"/>
<text text-anchor="middle" x="4650.42" y="-354.12" font-family="Times,serif" font-size="14.00">1</text>
</g>
<!-- st0.EntityEquipItemDrop -->
<g id="node24" class="node">
<title>st0.EntityEquipItemDrop</title>
<g id="a_node24"><a xlink:href="st0.EntityEquipItemDrop.svg" xlink:title="st0.EntityEquipItemDrop">
<ellipse fill="green" stroke="black" cx="4982.19" cy="-378" rx="128.88" ry="18"/>
<text text-anchor="middle" x="4982.19" y="-374.3" font-family="Times,serif" font-size="14.00">st0.EntityEquipItemDrop</text>
</a>
</g>
</g>
<!-- st0.EntityEquipItemDrop&#45;&gt;dra.LoadEquipIcon -->
<g id="edge23" class="edge">
<title>st0.EntityEquipItemDrop&#45;&gt;dra.LoadEquipIcon</title>
<path fill="none" stroke="black" d="M4891.32,-365.24C4875.61,-363.37 4859.44,-361.55 4844.19,-360 4110.14,-285.55 3223.04,-224.99 2926.91,-205.56"/>
<polygon fill="black" stroke="black" points="2926.83,-202.05 2916.62,-204.88 2926.37,-209.03 2926.83,-202.05"/>
<text text-anchor="middle" x="4886.32" y="-354.04" font-family="Times,serif" font-size="14.00">1</text>
</g>
<!-- st0.func_801B7308 -->
<g id="node25" class="node">
<title>st0.func_801B7308</title>
<g id="a_node25"><a xlink:href="st0.func_801B7308.svg" xlink:title="st0.func_801B7308">
<ellipse fill="red" stroke="black" cx="5229.19" cy="-378" rx="100.98" ry="18"/>
<text text-anchor="middle" x="5229.19" y="-374.3" font-family="Times,serif" font-size="14.00">st0.func_801B7308</text>
</a>
</g>
</g>
<!-- st0.func_801B7308&#45;&gt;dra.LoadEquipIcon -->
<g id="edge24" class="edge">
<title>st0.func_801B7308&#45;&gt;dra.LoadEquipIcon</title>
<path fill="none" stroke="black" d="M5158.65,-365.11C5145.88,-363.21 5132.65,-361.41 5120.19,-360 4278.97,-265.07 3257.56,-216.97 2930.94,-203.23"/>
<polygon fill="black" stroke="black" points="2930.69,-199.71 2920.55,-202.79 2930.39,-206.71 2930.69,-199.71"/>
<text text-anchor="middle" x="5153.65" y="-353.91" font-family="Times,serif" font-size="14.00">1</text>
</g>
<!-- wrp.EntityEquipItemDrop -->
<g id="node26" class="node">
<title>wrp.EntityEquipItemDrop</title>
<g id="a_node26"><a xlink:href="wrp.EntityEquipItemDrop.svg" xlink:title="wrp.EntityEquipItemDrop">
<ellipse fill="green" stroke="black" cx="5480.19" cy="-378" rx="131.88" ry="18"/>
<text text-anchor="middle" x="5480.19" y="-374.3" font-family="Times,serif" font-size="14.00">wrp.EntityEquipItemDrop</text>
</a>
</g>
</g>
<!-- wrp.EntityEquipItemDrop&#45;&gt;dra.LoadEquipIcon -->
<g id="edge25" class="edge">
<title>wrp.EntityEquipItemDrop&#45;&gt;dra.LoadEquipIcon</title>
<path fill="none" stroke="black" d="M5387.74,-365.1C5371.57,-363.24 5354.9,-361.45 5339.19,-360 4406.84,-274.01 3275.72,-219.25 2930.32,-203.62"/>
<polygon fill="black" stroke="black" points="2930.23,-200.11 2920.08,-203.16 2929.92,-207.1 2930.23,-200.11"/>
<text text-anchor="middle" x="5382.74" y="-353.9" font-family="Times,serif" font-size="14.00">1</text>
</g>
<!-- wrp.EntityRelicOrb -->
<g id="node27" class="node">
<title>wrp.EntityRelicOrb</title>
<g id="a_node27"><a xlink:href="wrp.EntityRelicOrb.svg" xlink:title="wrp.EntityRelicOrb">
<ellipse fill="green" stroke="black" cx="5731.19" cy="-378" rx="100.98" ry="18"/>
<text text-anchor="middle" x="5731.19" y="-374.3" font-family="Times,serif" font-size="14.00">wrp.EntityRelicOrb</text>
</a>
</g>
</g>
<!-- wrp.EntityRelicOrb&#45;&gt;dra.LoadEquipIcon -->
<g id="edge26" class="edge">
<title>wrp.EntityRelicOrb&#45;&gt;dra.LoadEquipIcon</title>
<path fill="none" stroke="black" d="M5660.61,-365.07C5647.53,-363.15 5633.97,-361.35 5621.19,-360 4577.49,-249.56 3306.02,-210.9 2932.9,-201.49"/>
<polygon fill="black" stroke="black" points="2932.74,-197.98 2922.66,-201.23 2932.57,-204.98 2932.74,-197.98"/>
<text text-anchor="middle" x="5655.61" y="-353.87" font-family="Times,serif" font-size="14.00">1</text>
</g>
</g>
</svg>
