<?xml version="1.0" encoding="UTF-8" standalone="no"?>
<!DOCTYPE svg PUBLIC "-//W3C//DTD SVG 1.1//EN"
 "http://www.w3.org/Graphics/SVG/1.1/DTD/svg11.dtd">
<!-- Generated by graphviz version 2.43.0 (0)
 -->
<!-- Title: dra.func_801131C4 Pages: 1 -->
<svg width="2707pt" height="404pt"
 viewBox="0.00 0.00 2707.43 404.00" xmlns="http://www.w3.org/2000/svg" xmlns:xlink="http://www.w3.org/1999/xlink">
<g id="graph0" class="graph" transform="scale(1 1) rotate(0) translate(4 400)">
<title>dra.func_801131C4</title>
<polygon fill="white" stroke="transparent" points="-4,4 -4,-400 2703.43,-400 2703.43,4 -4,4"/>
<!-- dra.func_801131C4 -->
<g id="node1" class="node">
<title>dra.func_801131C4</title>
<ellipse fill="green" stroke="black" cx="1377.74" cy="-198" rx="101.28" ry="18"/>
<text text-anchor="middle" x="1377.74" y="-194.3" font-family="Times,serif" font-size="14.00">dra.func_801131C4</text>
</g>
<!-- dra.CreateEntFactoryFromEntity -->
<g id="node2" class="node">
<title>dra.CreateEntFactoryFromEntity</title>
<g id="a_node2"><a xlink:href="dra.CreateEntFactoryFromEntity.svg" xlink:title="dra.CreateEntFactoryFromEntity">
<ellipse fill="green" stroke="black" cx="165.74" cy="-18" rx="165.97" ry="18"/>
<text text-anchor="middle" x="165.74" y="-14.3" font-family="Times,serif" font-size="14.00">dra.CreateEntFactoryFromEntity</text>
</a>
</g>
</g>
<!-- dra.func_801131C4&#45;&gt;dra.CreateEntFactoryFromEntity -->
<g id="edge1" class="edge">
<title>dra.func_801131C4&#45;&gt;dra.CreateEntFactoryFromEntity</title>
<path fill="none" stroke="black" d="M1302.38,-185.93C1093.98,-155.33 509.55,-69.49 270.08,-34.32"/>
<polygon fill="black" stroke="black" points="270.38,-30.83 259.97,-32.84 269.36,-37.76 270.38,-30.83"/>
<text text-anchor="middle" x="254.97" y="-36.64" font-family="Times,serif" font-size="14.00">1</text>
</g>
<!-- dra.DecelerateX -->
<g id="node3" class="node">
<title>dra.DecelerateX</title>
<g id="a_node3"><a xlink:href="dra.DecelerateX.svg" xlink:title="dra.DecelerateX">
<ellipse fill="green" stroke="black" cx="435.74" cy="-18" rx="85.59" ry="18"/>
<text text-anchor="middle" x="435.74" y="-14.3" font-family="Times,serif" font-size="14.00">dra.DecelerateX</text>
</a>
</g>
</g>
<!-- dra.func_801131C4&#45;&gt;dra.DecelerateX -->
<g id="edge2" class="edge">
<title>dra.func_801131C4&#45;&gt;dra.DecelerateX</title>
<path fill="none" stroke="black" d="M1311.12,-184.41C1139.6,-152 683.89,-65.89 507.17,-32.5"/>
<polygon fill="black" stroke="black" points="507.67,-29.03 497.2,-30.61 506.37,-35.91 507.67,-29.03"/>
<text text-anchor="middle" x="492.2" y="-34.41" font-family="Times,serif" font-size="14.00">1</text>
</g>
<!-- dra.SetSpeedX -->
<g id="node4" class="node">
<title>dra.SetSpeedX</title>
<g id="a_node4"><a xlink:href="dra.SetSpeedX.svg" xlink:title="dra.SetSpeedX">
<ellipse fill="green" stroke="black" cx="619.74" cy="-18" rx="79.89" ry="18"/>
<text text-anchor="middle" x="619.74" y="-14.3" font-family="Times,serif" font-size="14.00">dra.SetSpeedX</text>
</a>
</g>
</g>
<!-- dra.func_801131C4&#45;&gt;dra.SetSpeedX -->
<g id="edge3" class="edge">
<title>dra.func_801131C4&#45;&gt;dra.SetSpeedX</title>
<path fill="none" stroke="black" d="M1319.2,-183.25C1179.48,-150.45 827.42,-67.77 683.02,-33.86"/>
<polygon fill="black" stroke="black" points="683.52,-30.38 672.99,-31.5 681.92,-37.2 683.52,-30.38"/>
<text text-anchor="middle" x="667.99" y="-35.3" font-family="Times,serif" font-size="14.00">1</text>
</g>
<!-- dra.func_8010DA48 -->
<g id="node5" class="node">
<title>dra.func_8010DA48</title>
<g id="a_node5"><a xlink:href="dra.func_8010DA48.svg" xlink:title="dra.func_8010DA48">
<ellipse fill="green" stroke="black" cx="820.74" cy="-18" rx="102.88" ry="18"/>
<text text-anchor="middle" x="820.74" y="-14.3" font-family="Times,serif" font-size="14.00">dra.func_8010DA48</text>
</a>
</g>
</g>
<!-- dra.func_801131C4&#45;&gt;dra.func_8010DA48 -->
<g id="edge4" class="edge">
<title>dra.func_801131C4&#45;&gt;dra.func_8010DA48</title>
<path fill="none" stroke="black" d="M1330.73,-181.98C1228.76,-149.39 987.61,-72.33 877.43,-37.12"/>
<polygon fill="black" stroke="black" points="878.41,-33.76 867.82,-34.05 876.28,-40.42 878.41,-33.76"/>
<text text-anchor="middle" x="862.82" y="-37.85" font-family="Times,serif" font-size="14.00">5</text>
</g>
<!-- dra.func_8010DFF0 -->
<g id="node6" class="node">
<title>dra.func_8010DFF0</title>
<g id="a_node6"><a xlink:href="dra.func_8010DFF0.svg" xlink:title="dra.func_8010DFF0">
<ellipse fill="green" stroke="black" cx="1043.74" cy="-18" rx="102.88" ry="18"/>
<text text-anchor="middle" x="1043.74" y="-14.3" font-family="Times,serif" font-size="14.00">dra.func_8010DFF0</text>
</a>
</g>
</g>
<!-- dra.func_801131C4&#45;&gt;dra.func_8010DFF0 -->
<g id="edge5" class="edge">
<title>dra.func_801131C4&#45;&gt;dra.func_8010DFF0</title>
<path fill="none" stroke="black" d="M1347.21,-180.73C1286.61,-148.44 1151.16,-76.25 1083.62,-40.25"/>
<polygon fill="black" stroke="black" points="1085.02,-37.04 1074.55,-35.42 1081.73,-43.22 1085.02,-37.04"/>
<text text-anchor="middle" x="1069.55" y="-39.22" font-family="Times,serif" font-size="14.00">6</text>
</g>
<!-- dra.func_8010E27C -->
<g id="node7" class="node">
<title>dra.func_8010E27C</title>
<g id="a_node7"><a xlink:href="dra.func_8010E27C.svg" xlink:title="dra.func_8010E27C">
<ellipse fill="green" stroke="black" cx="1266.74" cy="-18" rx="102.88" ry="18"/>
<text text-anchor="middle" x="1266.74" y="-14.3" font-family="Times,serif" font-size="14.00">dra.func_8010E27C</text>
</a>
</g>
</g>
<!-- dra.func_801131C4&#45;&gt;dra.func_8010E27C -->
<g id="edge6" class="edge">
<title>dra.func_801131C4&#45;&gt;dra.func_8010E27C</title>
<path fill="none" stroke="black" d="M1367.09,-179.93C1347.53,-148.57 1305.77,-81.6 1282.77,-44.71"/>
<polygon fill="black" stroke="black" points="1285.61,-42.65 1277.35,-36.02 1279.67,-46.35 1285.61,-42.65"/>
<text text-anchor="middle" x="1272.35" y="-39.82" font-family="Times,serif" font-size="14.00">3</text>
</g>
<!-- dra.func_8010E470 -->
<g id="node8" class="node">
<title>dra.func_8010E470</title>
<g id="a_node8"><a xlink:href="dra.func_8010E470.svg" xlink:title="dra.func_8010E470">
<ellipse fill="green" stroke="black" cx="1488.74" cy="-18" rx="101.28" ry="18"/>
<text text-anchor="middle" x="1488.74" y="-14.3" font-family="Times,serif" font-size="14.00">dra.func_8010E470</text>
</a>
</g>
</g>
<!-- dra.func_801131C4&#45;&gt;dra.func_8010E470 -->
<g id="edge7" class="edge">
<title>dra.func_801131C4&#45;&gt;dra.func_8010E470</title>
<path fill="none" stroke="black" d="M1388.38,-179.93C1407.94,-148.57 1449.7,-81.6 1472.7,-44.71"/>
<polygon fill="black" stroke="black" points="1475.8,-46.35 1478.12,-36.02 1469.86,-42.65 1475.8,-46.35"/>
<text text-anchor="middle" x="1473.12" y="-39.82" font-family="Times,serif" font-size="14.00">2</text>
</g>
<!-- dra.func_8010E570 -->
<g id="node9" class="node">
<title>dra.func_8010E570</title>
<g id="a_node9"><a xlink:href="dra.func_8010E570.svg" xlink:title="dra.func_8010E570">
<ellipse fill="green" stroke="black" cx="1709.74" cy="-18" rx="101.28" ry="18"/>
<text text-anchor="middle" x="1709.74" y="-14.3" font-family="Times,serif" font-size="14.00">dra.func_8010E570</text>
</a>
</g>
</g>
<!-- dra.func_801131C4&#45;&gt;dra.func_8010E570 -->
<g id="edge8" class="edge">
<title>dra.func_801131C4&#45;&gt;dra.func_8010E570</title>
<path fill="none" stroke="black" d="M1408.08,-180.73C1468.31,-148.44 1602.95,-76.25 1670.09,-40.25"/>
<polygon fill="black" stroke="black" points="1671.94,-43.23 1679.1,-35.42 1668.64,-37.06 1671.94,-43.23"/>
<text text-anchor="middle" x="1674.1" y="-39.22" font-family="Times,serif" font-size="14.00">1</text>
</g>
<!-- dra.func_8010E6AC -->
<g id="node10" class="node">
<title>dra.func_8010E6AC</title>
<g id="a_node10"><a xlink:href="dra.func_8010E6AC.svg" xlink:title="dra.func_8010E6AC">
<ellipse fill="green" stroke="black" cx="1931.74" cy="-18" rx="102.88" ry="18"/>
<text text-anchor="middle" x="1931.74" y="-14.3" font-family="Times,serif" font-size="14.00">dra.func_8010E6AC</text>
</a>
</g>
</g>
<!-- dra.func_801131C4&#45;&gt;dra.func_8010E6AC -->
<g id="edge9" class="edge">
<title>dra.func_801131C4&#45;&gt;dra.func_8010E6AC</title>
<path fill="none" stroke="black" d="M1424.49,-181.98C1525.91,-149.39 1765.76,-72.33 1875.35,-37.12"/>
<polygon fill="black" stroke="black" points="1876.46,-40.44 1884.91,-34.05 1874.32,-33.77 1876.46,-40.44"/>
<text text-anchor="middle" x="1879.91" y="-37.85" font-family="Times,serif" font-size="14.00">1</text>
</g>
<!-- dra.func_8010E83C -->
<g id="node11" class="node">
<title>dra.func_8010E83C</title>
<g id="a_node11"><a xlink:href="dra.func_8010E83C.svg" xlink:title="dra.func_8010E83C">
<ellipse fill="green" stroke="black" cx="2154.74" cy="-18" rx="102.88" ry="18"/>
<text text-anchor="middle" x="2154.74" y="-14.3" font-family="Times,serif" font-size="14.00">dra.func_8010E83C</text>
</a>
</g>
</g>
<!-- dra.func_801131C4&#45;&gt;dra.func_8010E83C -->
<g id="edge10" class="edge">
<title>dra.func_801131C4&#45;&gt;dra.func_8010E83C</title>
<path fill="none" stroke="black" d="M1437.09,-183.4C1578.32,-151.05 1933.8,-69.61 2084.96,-34.98"/>
<polygon fill="black" stroke="black" points="2086.09,-38.32 2095.05,-32.67 2084.52,-31.49 2086.09,-38.32"/>
<text text-anchor="middle" x="2090.05" y="-36.47" font-family="Times,serif" font-size="14.00">1</text>
</g>
<!-- dra.func_8010FAF4 -->
<g id="node12" class="node">
<title>dra.func_8010FAF4</title>
<g id="a_node12"><a xlink:href="dra.func_8010FAF4.svg" xlink:title="dra.func_8010FAF4">
<ellipse fill="green" stroke="black" cx="2375.74" cy="-18" rx="100.98" ry="18"/>
<text text-anchor="middle" x="2375.74" y="-14.3" font-family="Times,serif" font-size="14.00">dra.func_8010FAF4</text>
</a>
</g>
</g>
<!-- dra.func_801131C4&#45;&gt;dra.func_8010FAF4 -->
<g id="edge11" class="edge">
<title>dra.func_801131C4&#45;&gt;dra.func_8010FAF4</title>
<path fill="none" stroke="black" d="M1446.73,-184.7C1626.29,-152.67 2107.35,-66.87 2297.16,-33.01"/>
<polygon fill="black" stroke="black" points="2297.83,-36.45 2307.06,-31.25 2296.61,-29.56 2297.83,-36.45"/>
<text text-anchor="middle" x="2302.06" y="-35.05" font-family="Times,serif" font-size="14.00">1</text>
</g>
<!-- dra.func_8010FDF8 -->
<g id="node13" class="node">
<title>dra.func_8010FDF8</title>
<g id="a_node13"><a xlink:href="dra.func_8010FDF8.svg" xlink:title="dra.func_8010FDF8">
<ellipse fill="green" stroke="black" cx="2596.74" cy="-18" rx="102.88" ry="18"/>
<text text-anchor="middle" x="2596.74" y="-14.3" font-family="Times,serif" font-size="14.00">dra.func_8010FDF8</text>
</a>
</g>
</g>
<!-- dra.func_801131C4&#45;&gt;dra.func_8010FDF8 -->
<g id="edge12" class="edge">
<title>dra.func_801131C4&#45;&gt;dra.func_8010FDF8</title>
<path fill="none" stroke="black" d="M1454,-186.12C1633.77,-160.44 2098.11,-93.85 2485.74,-36 2494.35,-34.71 2503.34,-33.36 2512.31,-32"/>
<polygon fill="black" stroke="black" points="2513.05,-35.43 2522.41,-30.46 2512,-28.51 2513.05,-35.43"/>
<text text-anchor="middle" x="2517.41" y="-34.26" font-family="Times,serif" font-size="14.00">1</text>
</g>
<!-- dra.EntityAlucard -->
<g id="node14" class="node">
<title>dra.EntityAlucard</title>
<g id="a_node14"><a xlink:href="dra.EntityAlucard.svg" xlink:title="dra.EntityAlucard">
<ellipse fill="green" stroke="black" cx="1377.74" cy="-378" rx="93.68" ry="18"/>
<text text-anchor="middle" x="1377.74" y="-374.3" font-family="Times,serif" font-size="14.00">dra.EntityAlucard</text>
</a>
</g>
</g>
<!-- dra.EntityAlucard&#45;&gt;dra.func_801131C4 -->
<g id="edge13" class="edge">
<title>dra.EntityAlucard&#45;&gt;dra.func_801131C4</title>
<path fill="none" stroke="black" d="M1377.74,-359.93C1377.74,-328.97 1377.74,-263.3 1377.74,-226.13"/>
<polygon fill="black" stroke="black" points="1381.24,-226.02 1377.74,-216.02 1374.24,-226.02 1381.24,-226.02"/>
<text text-anchor="middle" x="1372.74" y="-348.73" font-family="Times,serif" font-size="14.00">1</text>
</g>
</g>
</svg>
