<?xml version="1.0" encoding="UTF-8" standalone="no"?>
<!DOCTYPE svg PUBLIC "-//W3C//DTD SVG 1.1//EN"
 "http://www.w3.org/Graphics/SVG/1.1/DTD/svg11.dtd">
<!-- Generated by graphviz version 2.43.0 (0)
 -->
<!-- Title: dra.func_800FE044 Pages: 1 -->
<svg width="5846pt" height="224pt"
 viewBox="0.00 0.00 5846.28 224.00" xmlns="http://www.w3.org/2000/svg" xmlns:xlink="http://www.w3.org/1999/xlink">
<g id="graph0" class="graph" transform="scale(1 1) rotate(0) translate(4 220)">
<title>dra.func_800FE044</title>
<polygon fill="white" stroke="transparent" points="-4,4 -4,-220 5842.28,-220 5842.28,4 -4,4"/>
<!-- dra.func_800FE044 -->
<g id="node1" class="node">
<title>dra.func_800FE044</title>
<ellipse fill="green" stroke="black" cx="2955.29" cy="-18" rx="102.08" ry="18"/>
<text text-anchor="middle" x="2955.29" y="-14.3" font-family="Times,serif" font-size="14.00">dra.func_800FE044</text>
</g>
<!-- cen.CollectHeartVessel -->
<g id="node2" class="node">
<title>cen.CollectHeartVessel</title>
<g id="a_node2"><a xlink:href="cen.CollectHeartVessel.svg" xlink:title="cen.CollectHeartVessel">
<ellipse fill="green" stroke="black" cx="118.29" cy="-198" rx="118.08" ry="18"/>
<text text-anchor="middle" x="118.29" y="-194.3" font-family="Times,serif" font-size="14.00">cen.CollectHeartVessel</text>
</a>
</g>
</g>
<!-- cen.CollectHeartVessel&#45;&gt;dra.func_800FE044 -->
<g id="edge1" class="edge">
<title>cen.CollectHeartVessel&#45;&gt;dra.func_800FE044</title>
<path fill="none" stroke="black" d="M200.85,-185.05C215.63,-183.17 230.9,-181.39 245.29,-180 1253.29,-82.73 2478.27,-35.32 2845.93,-22.6"/>
<polygon fill="black" stroke="black" points="2846.16,-26.09 2856.04,-22.25 2845.92,-19.1 2846.16,-26.09"/>
<text text-anchor="middle" x="195.85" y="-173.85" font-family="Times,serif" font-size="14.00">1</text>
</g>
<!-- cen.CollectLifeVessel -->
<g id="node3" class="node">
<title>cen.CollectLifeVessel</title>
<g id="a_node3"><a xlink:href="cen.CollectLifeVessel.svg" xlink:title="cen.CollectLifeVessel">
<ellipse fill="green" stroke="black" cx="363.29" cy="-198" rx="108.58" ry="18"/>
<text text-anchor="middle" x="363.29" y="-194.3" font-family="Times,serif" font-size="14.00">cen.CollectLifeVessel</text>
</a>
</g>
</g>
<!-- cen.CollectLifeVessel&#45;&gt;dra.func_800FE044 -->
<g id="edge2" class="edge">
<title>cen.CollectLifeVessel&#45;&gt;dra.func_800FE044</title>
<path fill="none" stroke="black" d="M439.02,-185.1C452.73,-183.2 466.92,-181.4 480.29,-180 1392.55,-84.21 2500.35,-36.36 2846.59,-22.99"/>
<polygon fill="black" stroke="black" points="2846.75,-26.49 2856.61,-22.6 2846.48,-19.49 2846.75,-26.49"/>
<text text-anchor="middle" x="434.02" y="-173.9" font-family="Times,serif" font-size="14.00">1</text>
</g>
<!-- cen.EntityRelicOrb -->
<g id="node4" class="node">
<title>cen.EntityRelicOrb</title>
<g id="a_node4"><a xlink:href="cen.EntityRelicOrb.svg" xlink:title="cen.EntityRelicOrb">
<ellipse fill="green" stroke="black" cx="588.29" cy="-198" rx="98.58" ry="18"/>
<text text-anchor="middle" x="588.29" y="-194.3" font-family="Times,serif" font-size="14.00">cen.EntityRelicOrb</text>
</a>
</g>
</g>
<!-- cen.EntityRelicOrb&#45;&gt;dra.func_800FE044 -->
<g id="edge3" class="edge">
<title>cen.EntityRelicOrb&#45;&gt;dra.func_800FE044</title>
<path fill="none" stroke="black" d="M657.89,-185.15C670.64,-183.24 683.84,-181.42 696.29,-180 1520.39,-85.94 2520.3,-37.57 2846.64,-23.46"/>
<polygon fill="black" stroke="black" points="2847.2,-26.94 2857.04,-23.02 2846.89,-19.95 2847.2,-26.94"/>
<text text-anchor="middle" x="652.89" y="-173.95" font-family="Times,serif" font-size="14.00">1</text>
</g>
<!-- cen.HitDetection -->
<g id="node5" class="node">
<title>cen.HitDetection</title>
<g id="a_node5"><a xlink:href="cen.HitDetection.svg" xlink:title="cen.HitDetection">
<ellipse fill="green" stroke="black" cx="794.29" cy="-198" rx="89.08" ry="18"/>
<text text-anchor="middle" x="794.29" y="-194.3" font-family="Times,serif" font-size="14.00">cen.HitDetection</text>
</a>
</g>
</g>
<!-- cen.HitDetection&#45;&gt;dra.func_800FE044 -->
<g id="edge4" class="edge">
<title>cen.HitDetection&#45;&gt;dra.func_800FE044</title>
<path fill="none" stroke="black" d="M857.16,-185.2C868.81,-183.26 880.9,-181.43 892.29,-180 1637.28,-86.52 2540.88,-38.37 2847.55,-23.84"/>
<polygon fill="black" stroke="black" points="2847.94,-27.32 2857.77,-23.35 2847.61,-20.33 2847.94,-27.32"/>
<text text-anchor="middle" x="852.16" y="-174" font-family="Times,serif" font-size="14.00">1</text>
</g>
<!-- dre.CollectHeartVessel -->
<g id="node6" class="node">
<title>dre.CollectHeartVessel</title>
<g id="a_node6"><a xlink:href="dre.CollectHeartVessel.svg" xlink:title="dre.CollectHeartVessel">
<ellipse fill="green" stroke="black" cx="1019.29" cy="-198" rx="117.78" ry="18"/>
<text text-anchor="middle" x="1019.29" y="-194.3" font-family="Times,serif" font-size="14.00">dre.CollectHeartVessel</text>
</a>
</g>
</g>
<!-- dre.CollectHeartVessel&#45;&gt;dra.func_800FE044 -->
<g id="edge5" class="edge">
<title>dre.CollectHeartVessel&#45;&gt;dra.func_800FE044</title>
<path fill="none" stroke="black" d="M1102.59,-185.22C1116.82,-183.36 1131.47,-181.55 1145.29,-180 1794.1,-107.41 2576.72,-46.97 2852.84,-26.47"/>
<polygon fill="black" stroke="black" points="2853.13,-29.96 2862.84,-25.73 2852.61,-22.98 2853.13,-29.96"/>
<text text-anchor="middle" x="1097.59" y="-174.02" font-family="Times,serif" font-size="14.00">1</text>
</g>
<!-- dre.CollectLifeVessel -->
<g id="node7" class="node">
<title>dre.CollectLifeVessel</title>
<g id="a_node7"><a xlink:href="dre.CollectLifeVessel.svg" xlink:title="dre.CollectLifeVessel">
<ellipse fill="green" stroke="black" cx="1263.29" cy="-198" rx="108.58" ry="18"/>
<text text-anchor="middle" x="1263.29" y="-194.3" font-family="Times,serif" font-size="14.00">dre.CollectLifeVessel</text>
</a>
</g>
</g>
<!-- dre.CollectLifeVessel&#45;&gt;dra.func_800FE044 -->
<g id="edge6" class="edge">
<title>dre.CollectLifeVessel&#45;&gt;dra.func_800FE044</title>
<path fill="none" stroke="black" d="M1340.64,-185.29C1353.85,-183.42 1367.46,-181.59 1380.29,-180 1936.89,-111.15 2606.81,-49.77 2855.79,-27.69"/>
<polygon fill="black" stroke="black" points="2856.25,-31.17 2865.9,-26.8 2855.63,-24.19 2856.25,-31.17"/>
<text text-anchor="middle" x="1335.64" y="-174.09" font-family="Times,serif" font-size="14.00">1</text>
</g>
<!-- dre.EntityRelicOrb -->
<g id="node8" class="node">
<title>dre.EntityRelicOrb</title>
<g id="a_node8"><a xlink:href="dre.EntityRelicOrb.svg" xlink:title="dre.EntityRelicOrb">
<ellipse fill="green" stroke="black" cx="1488.29" cy="-198" rx="98.58" ry="18"/>
<text text-anchor="middle" x="1488.29" y="-194.3" font-family="Times,serif" font-size="14.00">dre.EntityRelicOrb</text>
</a>
</g>
</g>
<!-- dre.EntityRelicOrb&#45;&gt;dra.func_800FE044 -->
<g id="edge7" class="edge">
<title>dre.EntityRelicOrb&#45;&gt;dra.func_800FE044</title>
<path fill="none" stroke="black" d="M1559.4,-185.41C1571.69,-183.52 1584.35,-181.65 1596.29,-180 2069.74,-114.72 2638.24,-52.62 2860.09,-29.01"/>
<polygon fill="black" stroke="black" points="2860.5,-32.49 2870.07,-27.95 2859.76,-25.53 2860.5,-32.49"/>
<text text-anchor="middle" x="1554.4" y="-174.21" font-family="Times,serif" font-size="14.00">1</text>
</g>
<!-- dre.HitDetection -->
<g id="node9" class="node">
<title>dre.HitDetection</title>
<g id="a_node9"><a xlink:href="dre.HitDetection.svg" xlink:title="dre.HitDetection">
<ellipse fill="green" stroke="black" cx="1694.29" cy="-198" rx="89.08" ry="18"/>
<text text-anchor="middle" x="1694.29" y="-194.3" font-family="Times,serif" font-size="14.00">dre.HitDetection</text>
</a>
</g>
</g>
<!-- dre.HitDetection&#45;&gt;dra.func_800FE044 -->
<g id="edge8" class="edge">
<title>dre.HitDetection&#45;&gt;dra.func_800FE044</title>
<path fill="none" stroke="black" d="M1758.55,-185.53C1769.79,-183.62 1781.37,-181.7 1792.29,-180 2191.18,-117.81 2668.97,-55.48 2864.82,-30.45"/>
<polygon fill="black" stroke="black" points="2865.31,-33.92 2874.78,-29.18 2864.42,-26.98 2865.31,-33.92"/>
<text text-anchor="middle" x="1753.55" y="-174.33" font-family="Times,serif" font-size="14.00">1</text>
</g>
<!-- no3.CollectHeartVessel -->
<g id="node10" class="node">
<title>no3.CollectHeartVessel</title>
<g id="a_node10"><a xlink:href="no3.CollectHeartVessel.svg" xlink:title="no3.CollectHeartVessel">
<ellipse fill="green" stroke="black" cx="1920.29" cy="-198" rx="118.88" ry="18"/>
<text text-anchor="middle" x="1920.29" y="-194.3" font-family="Times,serif" font-size="14.00">no3.CollectHeartVessel</text>
</a>
</g>
</g>
<!-- no3.CollectHeartVessel&#45;&gt;dra.func_800FE044 -->
<g id="edge9" class="edge">
<title>no3.CollectHeartVessel&#45;&gt;dra.func_800FE044</title>
<path fill="none" stroke="black" d="M1995.56,-184.06C2185.08,-151.46 2680.68,-66.23 2875.24,-32.77"/>
<polygon fill="black" stroke="black" points="2875.85,-36.21 2885.11,-31.07 2874.66,-29.31 2875.85,-36.21"/>
<text text-anchor="middle" x="1990.56" y="-172.86" font-family="Times,serif" font-size="14.00">1</text>
</g>
<!-- no3.CollectLifeVessel -->
<g id="node11" class="node">
<title>no3.CollectLifeVessel</title>
<g id="a_node11"><a xlink:href="no3.CollectLifeVessel.svg" xlink:title="no3.CollectLifeVessel">
<ellipse fill="green" stroke="black" cx="2167.29" cy="-198" rx="109.68" ry="18"/>
<text text-anchor="middle" x="2167.29" y="-194.3" font-family="Times,serif" font-size="14.00">no3.CollectLifeVessel</text>
</a>
</g>
</g>
<!-- no3.CollectLifeVessel&#45;&gt;dra.func_800FE044 -->
<g id="edge10" class="edge">
<title>no3.CollectLifeVessel&#45;&gt;dra.func_800FE044</title>
<path fill="none" stroke="black" d="M2229.12,-183.03C2373.56,-150.41 2732.41,-69.35 2884.91,-34.9"/>
<polygon fill="black" stroke="black" points="2886.11,-38.21 2895.1,-32.6 2884.57,-31.39 2886.11,-38.21"/>
<text text-anchor="middle" x="2224.12" y="-171.83" font-family="Times,serif" font-size="14.00">1</text>
</g>
<!-- no3.EntityRelicOrb -->
<g id="node12" class="node">
<title>no3.EntityRelicOrb</title>
<g id="a_node12"><a xlink:href="no3.EntityRelicOrb.svg" xlink:title="no3.EntityRelicOrb">
<ellipse fill="green" stroke="black" cx="2395.29" cy="-198" rx="100.18" ry="18"/>
<text text-anchor="middle" x="2395.29" y="-194.3" font-family="Times,serif" font-size="14.00">no3.EntityRelicOrb</text>
</a>
</g>
</g>
<!-- no3.EntityRelicOrb&#45;&gt;dra.func_800FE044 -->
<g id="edge11" class="edge">
<title>no3.EntityRelicOrb&#45;&gt;dra.func_800FE044</title>
<path fill="none" stroke="black" d="M2442.55,-181.98C2545.07,-149.39 2787.52,-72.33 2898.29,-37.12"/>
<polygon fill="black" stroke="black" points="2899.49,-40.41 2907.96,-34.05 2897.37,-33.74 2899.49,-40.41"/>
<text text-anchor="middle" x="2437.55" y="-170.78" font-family="Times,serif" font-size="14.00">1</text>
</g>
<!-- no3.HitDetection -->
<g id="node13" class="node">
<title>no3.HitDetection</title>
<g id="a_node13"><a xlink:href="no3.HitDetection.svg" xlink:title="no3.HitDetection">
<ellipse fill="green" stroke="black" cx="2603.29" cy="-198" rx="90.18" ry="18"/>
<text text-anchor="middle" x="2603.29" y="-194.3" font-family="Times,serif" font-size="14.00">no3.HitDetection</text>
</a>
</g>
</g>
<!-- no3.HitDetection&#45;&gt;dra.func_800FE044 -->
<g id="edge12" class="edge">
<title>no3.HitDetection&#45;&gt;dra.func_800FE044</title>
<path fill="none" stroke="black" d="M2634.84,-181.05C2698.71,-148.75 2843.28,-75.64 2914.32,-39.72"/>
<polygon fill="black" stroke="black" points="2916.09,-42.75 2923.43,-35.11 2912.93,-36.5 2916.09,-42.75"/>
<text text-anchor="middle" x="2629.84" y="-169.85" font-family="Times,serif" font-size="14.00">1</text>
</g>
<!-- np3.CollectHeartVessel -->
<g id="node14" class="node">
<title>np3.CollectHeartVessel</title>
<g id="a_node14"><a xlink:href="np3.CollectHeartVessel.svg" xlink:title="np3.CollectHeartVessel">
<ellipse fill="green" stroke="black" cx="2831.29" cy="-198" rx="119.68" ry="18"/>
<text text-anchor="middle" x="2831.29" y="-194.3" font-family="Times,serif" font-size="14.00">np3.CollectHeartVessel</text>
</a>
</g>
</g>
<!-- np3.CollectHeartVessel&#45;&gt;dra.func_800FE044 -->
<g id="edge13" class="edge">
<title>np3.CollectHeartVessel&#45;&gt;dra.func_800FE044</title>
<path fill="none" stroke="black" d="M2843.18,-179.93C2865.12,-148.43 2912.07,-81.03 2937.71,-44.24"/>
<polygon fill="black" stroke="black" points="2940.59,-46.22 2943.44,-36.02 2934.85,-42.22 2940.59,-46.22"/>
<text text-anchor="middle" x="2838.18" y="-168.73" font-family="Times,serif" font-size="14.00">1</text>
</g>
<!-- np3.CollectLifeVessel -->
<g id="node15" class="node">
<title>np3.CollectLifeVessel</title>
<g id="a_node15"><a xlink:href="np3.CollectLifeVessel.svg" xlink:title="np3.CollectLifeVessel">
<ellipse fill="green" stroke="black" cx="3079.29" cy="-198" rx="110.48" ry="18"/>
<text text-anchor="middle" x="3079.29" y="-194.3" font-family="Times,serif" font-size="14.00">np3.CollectLifeVessel</text>
</a>
</g>
</g>
<!-- np3.CollectLifeVessel&#45;&gt;dra.func_800FE044 -->
<g id="edge14" class="edge">
<title>np3.CollectLifeVessel&#45;&gt;dra.func_800FE044</title>
<path fill="none" stroke="black" d="M3067.4,-179.93C3045.46,-148.43 2998.5,-81.03 2972.87,-44.24"/>
<polygon fill="black" stroke="black" points="2975.73,-42.22 2967.14,-36.02 2969.99,-46.22 2975.73,-42.22"/>
<text text-anchor="middle" x="3062.4" y="-168.73" font-family="Times,serif" font-size="14.00">1</text>
</g>
<!-- np3.EntityRelicOrb -->
<g id="node16" class="node">
<title>np3.EntityRelicOrb</title>
<g id="a_node16"><a xlink:href="np3.EntityRelicOrb.svg" xlink:title="np3.EntityRelicOrb">
<ellipse fill="green" stroke="black" cx="3308.29" cy="-198" rx="100.98" ry="18"/>
<text text-anchor="middle" x="3308.29" y="-194.3" font-family="Times,serif" font-size="14.00">np3.EntityRelicOrb</text>
</a>
</g>
</g>
<!-- np3.EntityRelicOrb&#45;&gt;dra.func_800FE044 -->
<g id="edge15" class="edge">
<title>np3.EntityRelicOrb&#45;&gt;dra.func_800FE044</title>
<path fill="none" stroke="black" d="M3276.34,-180.89C3212.18,-148.54 3067.75,-75.71 2996.55,-39.81"/>
<polygon fill="black" stroke="black" points="2997.93,-36.58 2987.42,-35.2 2994.77,-42.83 2997.93,-36.58"/>
<text text-anchor="middle" x="3271.34" y="-169.69" font-family="Times,serif" font-size="14.00">1</text>
</g>
<!-- np3.HitDetection -->
<g id="node17" class="node">
<title>np3.HitDetection</title>
<g id="a_node17"><a xlink:href="np3.HitDetection.svg" xlink:title="np3.HitDetection">
<ellipse fill="green" stroke="black" cx="3518.29" cy="-198" rx="90.98" ry="18"/>
<text text-anchor="middle" x="3518.29" y="-194.3" font-family="Times,serif" font-size="14.00">np3.HitDetection</text>
</a>
</g>
</g>
<!-- np3.HitDetection&#45;&gt;dra.func_800FE044 -->
<g id="edge16" class="edge">
<title>np3.HitDetection&#45;&gt;dra.func_800FE044</title>
<path fill="none" stroke="black" d="M3472.22,-182.43C3369.99,-150.11 3124.42,-72.47 3012.55,-37.1"/>
<polygon fill="black" stroke="black" points="3013.38,-33.7 3002.79,-34.02 3011.27,-40.37 3013.38,-33.7"/>
<text text-anchor="middle" x="3467.22" y="-171.23" font-family="Times,serif" font-size="14.00">1</text>
</g>
<!-- nz0.CollectHeartVessel -->
<g id="node18" class="node">
<title>nz0.CollectHeartVessel</title>
<g id="a_node18"><a xlink:href="nz0.CollectHeartVessel.svg" xlink:title="nz0.CollectHeartVessel">
<ellipse fill="green" stroke="black" cx="3745.29" cy="-198" rx="118.08" ry="18"/>
<text text-anchor="middle" x="3745.29" y="-194.3" font-family="Times,serif" font-size="14.00">nz0.CollectHeartVessel</text>
</a>
</g>
</g>
<!-- nz0.CollectHeartVessel&#45;&gt;dra.func_800FE044 -->
<g id="edge17" class="edge">
<title>nz0.CollectHeartVessel&#45;&gt;dra.func_800FE044</title>
<path fill="none" stroke="black" d="M3681.98,-182.73C3536.3,-149.91 3178.23,-69.23 3025.81,-34.89"/>
<polygon fill="black" stroke="black" points="3026.16,-31.38 3015.64,-32.6 3024.63,-38.21 3026.16,-31.38"/>
<text text-anchor="middle" x="3676.98" y="-171.53" font-family="Times,serif" font-size="14.00">1</text>
</g>
<!-- nz0.EntityRelicOrb -->
<g id="node19" class="node">
<title>nz0.EntityRelicOrb</title>
<g id="a_node19"><a xlink:href="nz0.EntityRelicOrb.svg" xlink:title="nz0.EntityRelicOrb">
<ellipse fill="green" stroke="black" cx="3981.29" cy="-198" rx="99.38" ry="18"/>
<text text-anchor="middle" x="3981.29" y="-194.3" font-family="Times,serif" font-size="14.00">nz0.EntityRelicOrb</text>
</a>
</g>
</g>
<!-- nz0.EntityRelicOrb&#45;&gt;dra.func_800FE044 -->
<g id="edge18" class="edge">
<title>nz0.EntityRelicOrb&#45;&gt;dra.func_800FE044</title>
<path fill="none" stroke="black" d="M3911.98,-184.97C3728.35,-153.12 3230.08,-66.67 3035.07,-32.84"/>
<polygon fill="black" stroke="black" points="3035.63,-29.39 3025.18,-31.12 3034.43,-36.28 3035.63,-29.39"/>
<text text-anchor="middle" x="3906.98" y="-173.77" font-family="Times,serif" font-size="14.00">1</text>
</g>
<!-- nz0.HitDetection -->
<g id="node20" class="node">
<title>nz0.HitDetection</title>
<g id="a_node20"><a xlink:href="nz0.HitDetection.svg" xlink:title="nz0.HitDetection">
<ellipse fill="green" stroke="black" cx="4188.29" cy="-198" rx="89.88" ry="18"/>
<text text-anchor="middle" x="4188.29" y="-194.3" font-family="Times,serif" font-size="14.00">nz0.HitDetection</text>
</a>
</g>
</g>
<!-- nz0.HitDetection&#45;&gt;dra.func_800FE044 -->
<g id="edge19" class="edge">
<title>nz0.HitDetection&#45;&gt;dra.func_800FE044</title>
<path fill="none" stroke="black" d="M4123.37,-185.57C4112.02,-183.66 4100.32,-181.73 4089.29,-180 3700.89,-119.09 3236.03,-56.23 3044.48,-30.77"/>
<polygon fill="black" stroke="black" points="3044.83,-27.28 3034.46,-29.44 3043.91,-34.22 3044.83,-27.28"/>
<text text-anchor="middle" x="4118.37" y="-174.37" font-family="Times,serif" font-size="14.00">1</text>
</g>
<!-- nz0.func_801BE294 -->
<g id="node21" class="node">
<title>nz0.func_801BE294</title>
<g id="a_node21"><a xlink:href="nz0.func_801BE294.svg" xlink:title="nz0.func_801BE294">
<ellipse fill="green" stroke="black" cx="4399.29" cy="-198" rx="103.18" ry="18"/>
<text text-anchor="middle" x="4399.29" y="-194.3" font-family="Times,serif" font-size="14.00">nz0.func_801BE294</text>
</a>
</g>
</g>
<!-- nz0.func_801BE294&#45;&gt;dra.func_800FE044 -->
<g id="edge20" class="edge">
<title>nz0.func_801BE294&#45;&gt;dra.func_800FE044</title>
<path fill="none" stroke="black" d="M4325.23,-185.44C4312.58,-183.55 4299.57,-181.67 4287.29,-180 3823.82,-116.83 3267.85,-53.7 3049.69,-29.41"/>
<polygon fill="black" stroke="black" points="3049.88,-25.91 3039.56,-28.29 3049.11,-32.87 3049.88,-25.91"/>
<text text-anchor="middle" x="4320.23" y="-174.24" font-family="Times,serif" font-size="14.00">1</text>
</g>
<!-- rwrp.EntityRelicOrb -->
<g id="node22" class="node">
<title>rwrp.EntityRelicOrb</title>
<g id="a_node22"><a xlink:href="rwrp.EntityRelicOrb.svg" xlink:title="rwrp.EntityRelicOrb">
<ellipse fill="green" stroke="black" cx="4626.29" cy="-198" rx="105.08" ry="18"/>
<text text-anchor="middle" x="4626.29" y="-194.3" font-family="Times,serif" font-size="14.00">rwrp.EntityRelicOrb</text>
</a>
</g>
</g>
<!-- rwrp.EntityRelicOrb&#45;&gt;dra.func_800FE044 -->
<g id="edge21" class="edge">
<title>rwrp.EntityRelicOrb&#45;&gt;dra.func_800FE044</title>
<path fill="none" stroke="black" d="M4550.89,-185.37C4537.7,-183.48 4524.11,-181.61 4511.29,-180 3962.12,-111.03 3301.19,-49.84 3054.49,-27.75"/>
<polygon fill="black" stroke="black" points="3054.74,-24.26 3044.47,-26.85 3054.12,-31.23 3054.74,-24.26"/>
<text text-anchor="middle" x="4545.89" y="-174.17" font-family="Times,serif" font-size="14.00">1</text>
</g>
<!-- rwrp.HitDetection -->
<g id="node23" class="node">
<title>rwrp.HitDetection</title>
<g id="a_node23"><a xlink:href="rwrp.HitDetection.svg" xlink:title="rwrp.HitDetection">
<ellipse fill="green" stroke="black" cx="4845.29" cy="-198" rx="95.58" ry="18"/>
<text text-anchor="middle" x="4845.29" y="-194.3" font-family="Times,serif" font-size="14.00">rwrp.HitDetection</text>
</a>
</g>
</g>
<!-- rwrp.HitDetection&#45;&gt;dra.func_800FE044 -->
<g id="edge22" class="edge">
<title>rwrp.HitDetection&#45;&gt;dra.func_800FE044</title>
<path fill="none" stroke="black" d="M4777.33,-185.28C4765.02,-183.36 4752.29,-181.51 4740.29,-180 4104.02,-99.9 3335.3,-44.42 3059.79,-25.84"/>
<polygon fill="black" stroke="black" points="3059.62,-22.32 3049.41,-25.14 3059.15,-29.3 3059.62,-22.32"/>
<text text-anchor="middle" x="4772.33" y="-174.08" font-family="Times,serif" font-size="14.00">1</text>
</g>
<!-- st0.HitDetection -->
<g id="node24" class="node">
<title>st0.HitDetection</title>
<g id="a_node24"><a xlink:href="st0.HitDetection.svg" xlink:title="st0.HitDetection">
<ellipse fill="green" stroke="black" cx="5046.29" cy="-198" rx="87.99" ry="18"/>
<text text-anchor="middle" x="5046.29" y="-194.3" font-family="Times,serif" font-size="14.00">st0.HitDetection</text>
</a>
</g>
</g>
<!-- st0.HitDetection&#45;&gt;dra.func_800FE044 -->
<g id="edge23" class="edge">
<title>st0.HitDetection&#45;&gt;dra.func_800FE044</title>
<path fill="none" stroke="black" d="M4984.45,-185.16C4973.12,-183.24 4961.37,-181.42 4950.29,-180 4232.68,-87.72 3362.63,-39.04 3062.85,-24.09"/>
<polygon fill="black" stroke="black" points="3062.59,-20.57 3052.42,-23.57 3062.24,-27.56 3062.59,-20.57"/>
<text text-anchor="middle" x="4979.45" y="-173.96" font-family="Times,serif" font-size="14.00">1</text>
</g>
<!-- wrp.CollectHeartVessel -->
<g id="node25" class="node">
<title>wrp.CollectHeartVessel</title>
<g id="a_node25"><a xlink:href="wrp.CollectHeartVessel.svg" xlink:title="wrp.CollectHeartVessel">
<ellipse fill="green" stroke="black" cx="5272.29" cy="-198" rx="120.48" ry="18"/>
<text text-anchor="middle" x="5272.29" y="-194.3" font-family="Times,serif" font-size="14.00">wrp.CollectHeartVessel</text>
</a>
</g>
</g>
<!-- wrp.CollectHeartVessel&#45;&gt;dra.func_800FE044 -->
<g id="edge24" class="edge">
<title>wrp.CollectHeartVessel&#45;&gt;dra.func_800FE044</title>
<path fill="none" stroke="black" d="M5187.71,-185.15C5172.92,-183.28 5157.67,-181.48 5143.29,-180 4344.9,-98.09 3378.48,-41.94 3061.53,-24.64"/>
<polygon fill="black" stroke="black" points="3061.61,-21.14 3051.44,-24.09 3061.23,-28.13 3061.61,-21.14"/>
<text text-anchor="middle" x="5182.71" y="-173.95" font-family="Times,serif" font-size="14.00">1</text>
</g>
<!-- wrp.EntityRelicOrb -->
<g id="node26" class="node">
<title>wrp.EntityRelicOrb</title>
<g id="a_node26"><a xlink:href="wrp.EntityRelicOrb.svg" xlink:title="wrp.EntityRelicOrb">
<ellipse fill="green" stroke="black" cx="5511.29" cy="-198" rx="100.98" ry="18"/>
<text text-anchor="middle" x="5511.29" y="-194.3" font-family="Times,serif" font-size="14.00">wrp.EntityRelicOrb</text>
</a>
</g>
</g>
<!-- wrp.EntityRelicOrb&#45;&gt;dra.func_800FE044 -->
<g id="edge25" class="edge">
<title>wrp.EntityRelicOrb&#45;&gt;dra.func_800FE044</title>
<path fill="none" stroke="black" d="M5440.7,-185.15C5427.62,-183.23 5414.06,-181.4 5401.29,-180 4501.68,-81.07 3408.76,-35.4 3064.51,-22.77"/>
<polygon fill="black" stroke="black" points="3064.42,-19.27 3054.3,-22.4 3064.16,-26.26 3064.42,-19.27"/>
<text text-anchor="middle" x="5435.7" y="-173.95" font-family="Times,serif" font-size="14.00">1</text>
</g>
<!-- wrp.func_8018CFA8 -->
<g id="node27" class="node">
<title>wrp.func_8018CFA8</title>
<g id="a_node27"><a xlink:href="wrp.func_8018CFA8.svg" xlink:title="wrp.func_8018CFA8">
<ellipse fill="green" stroke="black" cx="5734.29" cy="-198" rx="103.98" ry="18"/>
<text text-anchor="middle" x="5734.29" y="-194.3" font-family="Times,serif" font-size="14.00">wrp.func_8018CFA8</text>
</a>
</g>
</g>
<!-- wrp.func_8018CFA8&#45;&gt;dra.func_800FE044 -->
<g id="edge26" class="edge">
<title>wrp.func_8018CFA8&#45;&gt;dra.func_800FE044</title>
<path fill="none" stroke="black" d="M5661.47,-185.07C5648.13,-183.16 5634.31,-181.37 5621.29,-180 4632.46,-75.97 3429.68,-33.26 3065.13,-22.13"/>
<polygon fill="black" stroke="black" points="3065.21,-18.63 3055.11,-21.82 3065,-25.63 3065.21,-18.63"/>
<text text-anchor="middle" x="5656.47" y="-173.87" font-family="Times,serif" font-size="14.00">1</text>
</g>
</g>
</svg>
