<?xml version="1.0" encoding="UTF-8" standalone="no"?>
<!DOCTYPE svg PUBLIC "-//W3C//DTD SVG 1.1//EN"
 "http://www.w3.org/Graphics/SVG/1.1/DTD/svg11.dtd">
<!-- Generated by graphviz version 2.43.0 (0)
 -->
<!-- Title: dra.func_80102CD8 Pages: 1 -->
<svg width="6489pt" height="224pt"
 viewBox="0.00 0.00 6489.28 224.00" xmlns="http://www.w3.org/2000/svg" xmlns:xlink="http://www.w3.org/1999/xlink">
<g id="graph0" class="graph" transform="scale(1 1) rotate(0) translate(4 220)">
<title>dra.func_80102CD8</title>
<polygon fill="white" stroke="transparent" points="-4,4 -4,-220 6485.28,-220 6485.28,4 -4,4"/>
<!-- dra.func_80102CD8 -->
<g id="node1" class="node">
<title>dra.func_80102CD8</title>
<ellipse fill="green" stroke="black" cx="3061.84" cy="-18" rx="102.88" ry="18"/>
<text text-anchor="middle" x="3061.84" y="-14.3" font-family="Times,serif" font-size="14.00">dra.func_80102CD8</text>
</g>
<!-- dra.AlucardHandleDamage -->
<g id="node2" class="node">
<title>dra.AlucardHandleDamage</title>
<g id="a_node2"><a xlink:href="dra.AlucardHandleDamage.svg" xlink:title="dra.AlucardHandleDamage">
<ellipse fill="green" stroke="black" cx="135.84" cy="-198" rx="135.68" ry="18"/>
<text text-anchor="middle" x="135.84" y="-194.3" font-family="Times,serif" font-size="14.00">dra.AlucardHandleDamage</text>
</a>
</g>
</g>
<!-- dra.AlucardHandleDamage&#45;&gt;dra.func_80102CD8 -->
<g id="edge1" class="edge">
<title>dra.AlucardHandleDamage&#45;&gt;dra.func_80102CD8</title>
<path fill="none" stroke="black" d="M230.25,-185.04C246.76,-183.18 263.79,-181.41 279.84,-180 1317.98,-88.76 2578.8,-37.07 2952.5,-22.98"/>
<polygon fill="black" stroke="black" points="2952.64,-26.48 2962.5,-22.6 2952.38,-19.48 2952.64,-26.48"/>
<text text-anchor="middle" x="225.25" y="-173.84" font-family="Times,serif" font-size="14.00">2</text>
</g>
<!-- dra.ControlBatForm -->
<g id="node3" class="node">
<title>dra.ControlBatForm</title>
<g id="a_node3"><a xlink:href="dra.ControlBatForm.svg" xlink:title="dra.ControlBatForm">
<ellipse fill="green" stroke="black" cx="393.84" cy="-198" rx="104.78" ry="18"/>
<text text-anchor="middle" x="393.84" y="-194.3" font-family="Times,serif" font-size="14.00">dra.ControlBatForm</text>
</a>
</g>
</g>
<!-- dra.ControlBatForm&#45;&gt;dra.func_80102CD8 -->
<g id="edge2" class="edge">
<title>dra.ControlBatForm&#45;&gt;dra.func_80102CD8</title>
<path fill="none" stroke="black" d="M466.97,-185.06C480.21,-183.16 493.92,-181.38 506.84,-180 1450.18,-79.51 2596.66,-34.67 2951.72,-22.54"/>
<polygon fill="black" stroke="black" points="2951.87,-26.03 2961.74,-22.2 2951.63,-19.04 2951.87,-26.03"/>
<text text-anchor="middle" x="461.97" y="-173.86" font-family="Times,serif" font-size="14.00">1</text>
</g>
<!-- dra.func_801139CC -->
<g id="node4" class="node">
<title>dra.func_801139CC</title>
<g id="a_node4"><a xlink:href="dra.func_801139CC.svg" xlink:title="dra.func_801139CC">
<ellipse fill="green" stroke="black" cx="618.84" cy="-198" rx="102.88" ry="18"/>
<text text-anchor="middle" x="618.84" y="-194.3" font-family="Times,serif" font-size="14.00">dra.func_801139CC</text>
</a>
</g>
</g>
<!-- dra.func_801139CC&#45;&gt;dra.func_80102CD8 -->
<g id="edge3" class="edge">
<title>dra.func_801139CC&#45;&gt;dra.func_80102CD8</title>
<path fill="none" stroke="black" d="M690.67,-185.11C703.68,-183.21 717.15,-181.41 729.84,-180 1583.41,-85.34 2619.33,-37.16 2952.84,-23.3"/>
<polygon fill="black" stroke="black" points="2953.13,-26.79 2962.98,-22.88 2952.84,-19.8 2953.13,-26.79"/>
<text text-anchor="middle" x="685.67" y="-173.91" font-family="Times,serif" font-size="14.00">1</text>
</g>
<!-- dra.func_80114DF4 -->
<g id="node5" class="node">
<title>dra.func_80114DF4</title>
<g id="a_node5"><a xlink:href="dra.func_80114DF4.svg" xlink:title="dra.func_80114DF4">
<ellipse fill="green" stroke="black" cx="841.84" cy="-198" rx="102.88" ry="18"/>
<text text-anchor="middle" x="841.84" y="-194.3" font-family="Times,serif" font-size="14.00">dra.func_80114DF4</text>
</a>
</g>
</g>
<!-- dra.func_80114DF4&#45;&gt;dra.func_80102CD8 -->
<g id="edge4" class="edge">
<title>dra.func_80114DF4&#45;&gt;dra.func_80102CD8</title>
<path fill="none" stroke="black" d="M913.98,-185.14C926.9,-183.25 940.25,-181.44 952.84,-180 1717.13,-92.43 2642.88,-40.36 2954,-24.34"/>
<polygon fill="black" stroke="black" points="2954.55,-27.82 2964.36,-23.81 2954.19,-20.82 2954.55,-27.82"/>
<text text-anchor="middle" x="908.98" y="-173.94" font-family="Times,serif" font-size="14.00">2</text>
</g>
<!-- dra.func_8012D28C -->
<g id="node6" class="node">
<title>dra.func_8012D28C</title>
<g id="a_node6"><a xlink:href="dra.func_8012D28C.svg" xlink:title="dra.func_8012D28C">
<ellipse fill="green" stroke="black" cx="1064.84" cy="-198" rx="102.88" ry="18"/>
<text text-anchor="middle" x="1064.84" y="-194.3" font-family="Times,serif" font-size="14.00">dra.func_8012D28C</text>
</a>
</g>
</g>
<!-- dra.func_8012D28C&#45;&gt;dra.func_80102CD8 -->
<g id="edge5" class="edge">
<title>dra.func_8012D28C&#45;&gt;dra.func_80102CD8</title>
<path fill="none" stroke="black" d="M1137.64,-185.24C1150.67,-183.34 1164.14,-181.5 1176.84,-180 1853.03,-99.89 2670.23,-43.95 2956.6,-25.56"/>
<polygon fill="black" stroke="black" points="2957.22,-29.03 2966.98,-24.9 2956.77,-22.04 2957.22,-29.03"/>
<text text-anchor="middle" x="1132.64" y="-174.04" font-family="Times,serif" font-size="14.00">1</text>
</g>
<!-- dra.func_8012E040 -->
<g id="node7" class="node">
<title>dra.func_8012E040</title>
<g id="a_node7"><a xlink:href="dra.func_8012E040.svg" xlink:title="dra.func_8012E040">
<ellipse fill="green" stroke="black" cx="1286.84" cy="-198" rx="101.28" ry="18"/>
<text text-anchor="middle" x="1286.84" y="-194.3" font-family="Times,serif" font-size="14.00">dra.func_8012E040</text>
</a>
</g>
</g>
<!-- dra.func_8012E040&#45;&gt;dra.func_80102CD8 -->
<g id="edge6" class="edge">
<title>dra.func_8012E040&#45;&gt;dra.func_80102CD8</title>
<path fill="none" stroke="black" d="M1358.94,-185.26C1371.56,-183.37 1384.57,-181.54 1396.84,-180 1986.87,-105.94 2698.24,-47.35 2959.36,-26.87"/>
<polygon fill="black" stroke="black" points="2959.88,-30.34 2969.58,-26.07 2959.34,-23.36 2959.88,-30.34"/>
<text text-anchor="middle" x="1353.94" y="-174.06" font-family="Times,serif" font-size="14.00">1</text>
</g>
<!-- no0.func_us_801CF4A8 -->
<g id="node8" class="node">
<title>no0.func_us_801CF4A8</title>
<g id="a_node8"><a xlink:href="no0.func_us_801CF4A8.svg" xlink:title="no0.func_us_801CF4A8">
<ellipse fill="red" stroke="black" cx="1524.84" cy="-198" rx="118.88" ry="18"/>
<text text-anchor="middle" x="1524.84" y="-194.3" font-family="Times,serif" font-size="14.00">no0.func_us_801CF4A8</text>
</a>
</g>
</g>
<!-- no0.func_us_801CF4A8&#45;&gt;dra.func_80102CD8 -->
<g id="edge7" class="edge">
<title>no0.func_us_801CF4A8&#45;&gt;dra.func_80102CD8</title>
<path fill="none" stroke="black" d="M1610.19,-185.44C1624.42,-183.58 1639.04,-181.7 1652.84,-180 2146.78,-118.98 2739.18,-53.94 2966.58,-29.28"/>
<polygon fill="black" stroke="black" points="2967.24,-32.73 2976.8,-28.17 2966.48,-25.77 2967.24,-32.73"/>
<text text-anchor="middle" x="1605.19" y="-174.24" font-family="Times,serif" font-size="14.00">1</text>
</g>
<!-- no0.func_us_801CFBE8 -->
<g id="node9" class="node">
<title>no0.func_us_801CFBE8</title>
<g id="a_node9"><a xlink:href="no0.func_us_801CFBE8.svg" xlink:title="no0.func_us_801CFBE8">
<ellipse fill="red" stroke="black" cx="1781.84" cy="-198" rx="120.48" ry="18"/>
<text text-anchor="middle" x="1781.84" y="-194.3" font-family="Times,serif" font-size="14.00">no0.func_us_801CFBE8</text>
</a>
</g>
</g>
<!-- no0.func_us_801CFBE8&#45;&gt;dra.func_80102CD8 -->
<g id="edge8" class="edge">
<title>no0.func_us_801CFBE8&#45;&gt;dra.func_80102CD8</title>
<path fill="none" stroke="black" d="M1866.81,-185.18C2098.3,-152.99 2738.45,-63.97 2973.66,-31.26"/>
<polygon fill="black" stroke="black" points="2974.46,-34.69 2983.88,-29.84 2973.49,-27.75 2974.46,-34.69"/>
<text text-anchor="middle" x="1861.81" y="-173.98" font-family="Times,serif" font-size="14.00">3</text>
</g>
<!-- no0.func_us_801D0E7C -->
<g id="node10" class="node">
<title>no0.func_us_801D0E7C</title>
<g id="a_node10"><a xlink:href="no0.func_us_801D0E7C.svg" xlink:title="no0.func_us_801D0E7C">
<ellipse fill="red" stroke="black" cx="2039.84" cy="-198" rx="120.48" ry="18"/>
<text text-anchor="middle" x="2039.84" y="-194.3" font-family="Times,serif" font-size="14.00">no0.func_us_801D0E7C</text>
</a>
</g>
</g>
<!-- no0.func_us_801D0E7C&#45;&gt;dra.func_80102CD8 -->
<g id="edge9" class="edge">
<title>no0.func_us_801D0E7C&#45;&gt;dra.func_80102CD8</title>
<path fill="none" stroke="black" d="M2114.99,-183.91C2302.36,-151.28 2789,-66.52 2981.64,-32.97"/>
<polygon fill="black" stroke="black" points="2982.44,-36.38 2991.69,-31.22 2981.24,-29.49 2982.44,-36.38"/>
<text text-anchor="middle" x="2109.99" y="-172.71" font-family="Times,serif" font-size="14.00">1</text>
</g>
<!-- no0.func_us_801D542C -->
<g id="node11" class="node">
<title>no0.func_us_801D542C</title>
<g id="a_node11"><a xlink:href="no0.func_us_801D542C.svg" xlink:title="no0.func_us_801D542C">
<ellipse fill="red" stroke="black" cx="2297.84" cy="-198" rx="119.68" ry="18"/>
<text text-anchor="middle" x="2297.84" y="-194.3" font-family="Times,serif" font-size="14.00">no0.func_us_801D542C</text>
</a>
</g>
</g>
<!-- no0.func_us_801D542C&#45;&gt;dra.func_80102CD8 -->
<g id="edge10" class="edge">
<title>no0.func_us_801D542C&#45;&gt;dra.func_80102CD8</title>
<path fill="none" stroke="black" d="M2359.71,-182.58C2500.79,-149.72 2845.42,-69.42 2992.97,-35.05"/>
<polygon fill="black" stroke="black" points="2993.88,-38.43 3002.82,-32.75 2992.29,-31.61 2993.88,-38.43"/>
<text text-anchor="middle" x="2354.71" y="-171.38" font-family="Times,serif" font-size="14.00">1</text>
</g>
<!-- np3.EntityHammer -->
<g id="node12" class="node">
<title>np3.EntityHammer</title>
<g id="a_node12"><a xlink:href="np3.EntityHammer.svg" xlink:title="np3.EntityHammer">
<ellipse fill="green" stroke="black" cx="2535.84" cy="-198" rx="100.98" ry="18"/>
<text text-anchor="middle" x="2535.84" y="-194.3" font-family="Times,serif" font-size="14.00">np3.EntityHammer</text>
</a>
</g>
</g>
<!-- np3.EntityHammer&#45;&gt;dra.func_80102CD8 -->
<g id="edge11" class="edge">
<title>np3.EntityHammer&#45;&gt;dra.func_80102CD8</title>
<path fill="none" stroke="black" d="M2580.68,-181.82C2676.83,-149.29 2902.54,-72.91 3007.01,-37.55"/>
<polygon fill="black" stroke="black" points="3008.38,-40.78 3016.73,-34.26 3006.14,-34.15 3008.38,-40.78"/>
<text text-anchor="middle" x="2575.68" y="-170.62" font-family="Times,serif" font-size="14.00">1</text>
</g>
<!-- np3.EntitySlogra -->
<g id="node13" class="node">
<title>np3.EntitySlogra</title>
<g id="a_node13"><a xlink:href="np3.EntitySlogra.svg" xlink:title="np3.EntitySlogra">
<ellipse fill="green" stroke="black" cx="2744.84" cy="-198" rx="90.18" ry="18"/>
<text text-anchor="middle" x="2744.84" y="-194.3" font-family="Times,serif" font-size="14.00">np3.EntitySlogra</text>
</a>
</g>
</g>
<!-- np3.EntitySlogra&#45;&gt;dra.func_80102CD8 -->
<g id="edge12" class="edge">
<title>np3.EntitySlogra&#45;&gt;dra.func_80102CD8</title>
<path fill="none" stroke="black" d="M2773.53,-180.89C2830.76,-148.75 2959.14,-76.67 3023.51,-40.52"/>
<polygon fill="black" stroke="black" points="3025.52,-43.41 3032.52,-35.46 3022.09,-37.3 3025.52,-43.41"/>
<text text-anchor="middle" x="2768.53" y="-169.69" font-family="Times,serif" font-size="14.00">1</text>
</g>
<!-- nz0.EntityCannon -->
<g id="node14" class="node">
<title>nz0.EntityCannon</title>
<g id="a_node14"><a xlink:href="nz0.EntityCannon.svg" xlink:title="nz0.EntityCannon">
<ellipse fill="green" stroke="black" cx="2947.84" cy="-198" rx="94.48" ry="18"/>
<text text-anchor="middle" x="2947.84" y="-194.3" font-family="Times,serif" font-size="14.00">nz0.EntityCannon</text>
</a>
</g>
</g>
<!-- nz0.EntityCannon&#45;&gt;dra.func_80102CD8 -->
<g id="edge13" class="edge">
<title>nz0.EntityCannon&#45;&gt;dra.func_80102CD8</title>
<path fill="none" stroke="black" d="M2958.77,-179.93C2978.86,-148.57 3021.74,-81.6 3045.37,-44.71"/>
<polygon fill="black" stroke="black" points="3048.49,-46.32 3050.94,-36.02 3042.6,-42.55 3048.49,-46.32"/>
<text text-anchor="middle" x="2953.77" y="-168.73" font-family="Times,serif" font-size="14.00">1</text>
</g>
<!-- nz0.EntityCannonShot -->
<g id="node15" class="node">
<title>nz0.EntityCannonShot</title>
<g id="a_node15"><a xlink:href="nz0.EntityCannonShot.svg" xlink:title="nz0.EntityCannonShot">
<ellipse fill="green" stroke="black" cx="3175.84" cy="-198" rx="115.88" ry="18"/>
<text text-anchor="middle" x="3175.84" y="-194.3" font-family="Times,serif" font-size="14.00">nz0.EntityCannonShot</text>
</a>
</g>
</g>
<!-- nz0.EntityCannonShot&#45;&gt;dra.func_80102CD8 -->
<g id="edge14" class="edge">
<title>nz0.EntityCannonShot&#45;&gt;dra.func_80102CD8</title>
<path fill="none" stroke="black" d="M3164.91,-179.93C3144.82,-148.57 3101.93,-81.6 3078.3,-44.71"/>
<polygon fill="black" stroke="black" points="3081.08,-42.55 3072.74,-36.02 3075.18,-46.32 3081.08,-42.55"/>
<text text-anchor="middle" x="3159.91" y="-168.73" font-family="Times,serif" font-size="14.00">1</text>
</g>
<!-- nz0.EntitySlogra -->
<g id="node16" class="node">
<title>nz0.EntitySlogra</title>
<g id="a_node16"><a xlink:href="nz0.EntitySlogra.svg" xlink:title="nz0.EntitySlogra">
<ellipse fill="green" stroke="black" cx="3398.84" cy="-198" rx="89.08" ry="18"/>
<text text-anchor="middle" x="3398.84" y="-194.3" font-family="Times,serif" font-size="14.00">nz0.EntitySlogra</text>
</a>
</g>
</g>
<!-- nz0.EntitySlogra&#45;&gt;dra.func_80102CD8 -->
<g id="edge15" class="edge">
<title>nz0.EntitySlogra&#45;&gt;dra.func_80102CD8</title>
<path fill="none" stroke="black" d="M3368.63,-181.05C3307.69,-148.85 3169.99,-76.13 3101.74,-40.07"/>
<polygon fill="black" stroke="black" points="3103.06,-36.81 3092.58,-35.24 3099.79,-43 3103.06,-36.81"/>
<text text-anchor="middle" x="3363.63" y="-169.85" font-family="Times,serif" font-size="14.00">1</text>
</g>
<!-- ric.RicHandleHit -->
<g id="node17" class="node">
<title>ric.RicHandleHit</title>
<g id="a_node17"><a xlink:href="ric.RicHandleHit.svg" xlink:title="ric.RicHandleHit">
<ellipse fill="green" stroke="black" cx="3593.84" cy="-198" rx="88.28" ry="18"/>
<text text-anchor="middle" x="3593.84" y="-194.3" font-family="Times,serif" font-size="14.00">ric.RicHandleHit</text>
</a>
</g>
</g>
<!-- ric.RicHandleHit&#45;&gt;dra.func_80102CD8 -->
<g id="edge16" class="edge">
<title>ric.RicHandleHit&#45;&gt;dra.func_80102CD8</title>
<path fill="none" stroke="black" d="M3549.85,-182.28C3453.29,-149.97 3222.94,-72.9 3116.94,-37.44"/>
<polygon fill="black" stroke="black" points="3117.98,-34.09 3107.38,-34.24 3115.76,-40.73 3117.98,-34.09"/>
<text text-anchor="middle" x="3544.85" y="-171.08" font-family="Times,serif" font-size="14.00">2</text>
</g>
<!-- ric.func_80158B04 -->
<g id="node18" class="node">
<title>ric.func_80158B04</title>
<g id="a_node18"><a xlink:href="ric.func_80158B04.svg" xlink:title="ric.func_80158B04">
<ellipse fill="green" stroke="black" cx="3798.84" cy="-198" rx="98.28" ry="18"/>
<text text-anchor="middle" x="3798.84" y="-194.3" font-family="Times,serif" font-size="14.00">ric.func_80158B04</text>
</a>
</g>
</g>
<!-- ric.func_80158B04&#45;&gt;dra.func_80102CD8 -->
<g id="edge17" class="edge">
<title>ric.func_80158B04&#45;&gt;dra.func_80102CD8</title>
<path fill="none" stroke="black" d="M3741.93,-183.25C3608.06,-150.92 3273.69,-70.17 3129.63,-35.37"/>
<polygon fill="black" stroke="black" points="3130.13,-31.89 3119.59,-32.95 3128.49,-38.7 3130.13,-31.89"/>
<text text-anchor="middle" x="3736.93" y="-172.05" font-family="Times,serif" font-size="14.00">1</text>
</g>
<!-- st0.EntityDracula -->
<g id="node19" class="node">
<title>st0.EntityDracula</title>
<g id="a_node19"><a xlink:href="st0.EntityDracula.svg" xlink:title="st0.EntityDracula">
<ellipse fill="green" stroke="black" cx="4007.84" cy="-198" rx="92.88" ry="18"/>
<text text-anchor="middle" x="4007.84" y="-194.3" font-family="Times,serif" font-size="14.00">st0.EntityDracula</text>
</a>
</g>
</g>
<!-- st0.EntityDracula&#45;&gt;dra.func_80102CD8 -->
<g id="edge18" class="edge">
<title>st0.EntityDracula&#45;&gt;dra.func_80102CD8</title>
<path fill="none" stroke="black" d="M3943.56,-184.91C3775.1,-153.21 3321.26,-67.81 3139.08,-33.53"/>
<polygon fill="black" stroke="black" points="3139.51,-30.05 3129.04,-31.64 3138.22,-36.93 3139.51,-30.05"/>
<text text-anchor="middle" x="3938.56" y="-173.71" font-family="Times,serif" font-size="14.00">1</text>
</g>
<!-- st0.EntityDraculaFinalForm -->
<g id="node20" class="node">
<title>st0.EntityDraculaFinalForm</title>
<g id="a_node20"><a xlink:href="st0.EntityDraculaFinalForm.svg" xlink:title="st0.EntityDraculaFinalForm">
<ellipse fill="green" stroke="black" cx="4259.84" cy="-198" rx="141.07" ry="18"/>
<text text-anchor="middle" x="4259.84" y="-194.3" font-family="Times,serif" font-size="14.00">st0.EntityDraculaFinalForm</text>
</a>
</g>
</g>
<!-- st0.EntityDraculaFinalForm&#45;&gt;dra.func_80102CD8 -->
<g id="edge19" class="edge">
<title>st0.EntityDraculaFinalForm&#45;&gt;dra.func_80102CD8</title>
<path fill="none" stroke="black" d="M4171.75,-183.91C3949.41,-150.88 3367.6,-64.43 3147.69,-31.76"/>
<polygon fill="black" stroke="black" points="3147.9,-28.25 3137.49,-30.24 3146.87,-35.17 3147.9,-28.25"/>
<text text-anchor="middle" x="4166.75" y="-172.71" font-family="Times,serif" font-size="14.00">3</text>
</g>
<!-- w_015.func_ptr_8017000C -->
<g id="node21" class="node">
<title>w_015.func_ptr_8017000C</title>
<g id="a_node21"><a xlink:href="w_015.func_ptr_8017000C.svg" xlink:title="w_015.func_ptr_8017000C">
<ellipse fill="green" stroke="black" cx="4552.84" cy="-198" rx="133.78" ry="18"/>
<text text-anchor="middle" x="4552.84" y="-194.3" font-family="Times,serif" font-size="14.00">w_015.func_ptr_8017000C</text>
</a>
</g>
</g>
<!-- w_015.func_ptr_8017000C&#45;&gt;dra.func_80102CD8 -->
<g id="edge20" class="edge">
<title>w_015.func_ptr_8017000C&#45;&gt;dra.func_80102CD8</title>
<path fill="none" stroke="black" d="M4456.44,-185.49C4185.62,-153.16 3420.33,-61.8 3154.33,-30.04"/>
<polygon fill="black" stroke="black" points="3154.66,-26.56 3144.32,-28.85 3153.83,-33.51 3154.66,-26.56"/>
<text text-anchor="middle" x="4451.44" y="-174.29" font-family="Times,serif" font-size="14.00">1</text>
</g>
<!-- w_016.func_ptr_80170014 -->
<g id="node22" class="node">
<title>w_016.func_ptr_80170014</title>
<g id="a_node22"><a xlink:href="w_016.func_ptr_80170014.svg" xlink:title="w_016.func_ptr_80170014">
<ellipse fill="green" stroke="black" cx="4837.84" cy="-198" rx="133.48" ry="18"/>
<text text-anchor="middle" x="4837.84" y="-194.3" font-family="Times,serif" font-size="14.00">w_016.func_ptr_80170014</text>
</a>
</g>
</g>
<!-- w_016.func_ptr_80170014&#45;&gt;dra.func_80102CD8 -->
<g id="edge21" class="edge">
<title>w_016.func_ptr_80170014&#45;&gt;dra.func_80102CD8</title>
<path fill="none" stroke="black" d="M4742.77,-185.34C4727.1,-183.5 4711.02,-181.66 4695.84,-180 4114.54,-116.57 3415.66,-51.42 3160.88,-28.03"/>
<polygon fill="black" stroke="black" points="3161.19,-24.54 3150.91,-27.12 3160.55,-31.51 3161.19,-24.54"/>
<text text-anchor="middle" x="4737.77" y="-174.14" font-family="Times,serif" font-size="14.00">4</text>
</g>
<!-- w_017.EntityWeaponAttack -->
<g id="node23" class="node">
<title>w_017.EntityWeaponAttack</title>
<g id="a_node23"><a xlink:href="w_017.EntityWeaponAttack.svg" xlink:title="w_017.EntityWeaponAttack">
<ellipse fill="green" stroke="black" cx="5127.84" cy="-198" rx="138.38" ry="18"/>
<text text-anchor="middle" x="5127.84" y="-194.3" font-family="Times,serif" font-size="14.00">w_017.EntityWeaponAttack</text>
</a>
</g>
</g>
<!-- w_017.EntityWeaponAttack&#45;&gt;dra.func_80102CD8 -->
<g id="edge22" class="edge">
<title>w_017.EntityWeaponAttack&#45;&gt;dra.func_80102CD8</title>
<path fill="none" stroke="black" d="M5029.56,-185.28C5012.98,-183.43 4995.92,-181.6 4979.84,-180 4287.27,-111.17 3452.05,-47.77 3164.73,-26.52"/>
<polygon fill="black" stroke="black" points="3164.97,-23.03 3154.74,-25.78 3164.46,-30.01 3164.97,-23.03"/>
<text text-anchor="middle" x="5024.56" y="-174.08" font-family="Times,serif" font-size="14.00">1</text>
</g>
<!-- w_018.EntityWeaponAttack -->
<g id="node24" class="node">
<title>w_018.EntityWeaponAttack</title>
<g id="a_node24"><a xlink:href="w_018.EntityWeaponAttack.svg" xlink:title="w_018.EntityWeaponAttack">
<ellipse fill="green" stroke="black" cx="5422.84" cy="-198" rx="138.38" ry="18"/>
<text text-anchor="middle" x="5422.84" y="-194.3" font-family="Times,serif" font-size="14.00">w_018.EntityWeaponAttack</text>
</a>
</g>
</g>
<!-- w_018.EntityWeaponAttack&#45;&gt;dra.func_80102CD8 -->
<g id="edge23" class="edge">
<title>w_018.EntityWeaponAttack&#45;&gt;dra.func_80102CD8</title>
<path fill="none" stroke="black" d="M5324.98,-185.18C5308.26,-183.32 5291.06,-181.52 5274.84,-180 4465.5,-104.11 3486.77,-43.94 3167.83,-25.14"/>
<polygon fill="black" stroke="black" points="3167.86,-21.63 3157.67,-24.54 3167.45,-28.62 3167.86,-21.63"/>
<text text-anchor="middle" x="5319.98" y="-173.98" font-family="Times,serif" font-size="14.00">1</text>
</g>
<!-- w_024.EntityWeaponShieldSpell -->
<g id="node25" class="node">
<title>w_024.EntityWeaponShieldSpell</title>
<g id="a_node25"><a xlink:href="w_024.EntityWeaponShieldSpell.svg" xlink:title="w_024.EntityWeaponShieldSpell">
<ellipse fill="green" stroke="black" cx="5740.84" cy="-198" rx="161.37" ry="18"/>
<text text-anchor="middle" x="5740.84" y="-194.3" font-family="Times,serif" font-size="14.00">w_024.EntityWeaponShieldSpell</text>
</a>
</g>
</g>
<!-- w_024.EntityWeaponShieldSpell&#45;&gt;dra.func_80102CD8 -->
<g id="edge24" class="edge">
<title>w_024.EntityWeaponShieldSpell&#45;&gt;dra.func_80102CD8</title>
<path fill="none" stroke="black" d="M5627.29,-185.15C5608.12,-183.31 5588.42,-181.52 5569.84,-180 4640.79,-104.02 3515.67,-42.73 3168.79,-24.52"/>
<polygon fill="black" stroke="black" points="3168.93,-21.03 3158.76,-24 3168.56,-28.02 3168.93,-21.03"/>
<text text-anchor="middle" x="5622.29" y="-173.95" font-family="Times,serif" font-size="14.00">1</text>
</g>
<!-- w_030.func_ptr_80170008 -->
<g id="node26" class="node">
<title>w_030.func_ptr_80170008</title>
<g id="a_node26"><a xlink:href="w_030.func_ptr_80170008.svg" xlink:title="w_030.func_ptr_80170008">
<ellipse fill="green" stroke="black" cx="6052.84" cy="-198" rx="133.48" ry="18"/>
<text text-anchor="middle" x="6052.84" y="-194.3" font-family="Times,serif" font-size="14.00">w_030.func_ptr_80170008</text>
</a>
</g>
</g>
<!-- w_030.func_ptr_80170008&#45;&gt;dra.func_80102CD8 -->
<g id="edge25" class="edge">
<title>w_030.func_ptr_80170008&#45;&gt;dra.func_80102CD8</title>
<path fill="none" stroke="black" d="M5960.12,-185.05C5943.72,-183.18 5926.79,-181.4 5910.84,-180 4845.95,-86.26 3552.09,-36.16 3171.84,-22.73"/>
<polygon fill="black" stroke="black" points="3171.79,-19.23 3161.67,-22.37 3171.54,-26.22 3171.79,-19.23"/>
<text text-anchor="middle" x="5955.12" y="-173.85" font-family="Times,serif" font-size="14.00">1</text>
</g>
<!-- w_047.EntityWeaponAttack -->
<g id="node27" class="node">
<title>w_047.EntityWeaponAttack</title>
<g id="a_node27"><a xlink:href="w_047.EntityWeaponAttack.svg" xlink:title="w_047.EntityWeaponAttack">
<ellipse fill="green" stroke="black" cx="6342.84" cy="-198" rx="138.38" ry="18"/>
<text text-anchor="middle" x="6342.84" y="-194.3" font-family="Times,serif" font-size="14.00">w_047.EntityWeaponAttack</text>
</a>
</g>
</g>
<!-- w_047.EntityWeaponAttack&#45;&gt;dra.func_80102CD8 -->
<g id="edge26" class="edge">
<title>w_047.EntityWeaponAttack&#45;&gt;dra.func_80102CD8</title>
<path fill="none" stroke="black" d="M6246.59,-185.05C6229.38,-183.17 6211.59,-181.39 6194.84,-180 5013.97,-81.94 3577.42,-34.27 3172.65,-22.17"/>
<polygon fill="black" stroke="black" points="3172.52,-18.66 3162.42,-21.86 3172.31,-25.66 3172.52,-18.66"/>
<text text-anchor="middle" x="6241.59" y="-173.85" font-family="Times,serif" font-size="14.00">1</text>
</g>
</g>
</svg>
