<?xml version="1.0" encoding="UTF-8" standalone="no"?>
<!DOCTYPE svg PUBLIC "-//W3C//DTD SVG 1.1//EN"
 "http://www.w3.org/Graphics/SVG/1.1/DTD/svg11.dtd">
<!-- Generated by graphviz version 2.43.0 (0)
 -->
<!-- Title: dra.func_80118970 Pages: 1 -->
<svg width="780pt" height="224pt"
 viewBox="0.00 0.00 779.63 224.00" xmlns="http://www.w3.org/2000/svg" xmlns:xlink="http://www.w3.org/1999/xlink">
<g id="graph0" class="graph" transform="scale(1 1) rotate(0) translate(4 220)">
<title>dra.func_80118970</title>
<polygon fill="white" stroke="transparent" points="-4,4 -4,-220 775.63,-220 775.63,4 -4,4"/>
<!-- dra.func_80118970 -->
<g id="node1" class="node">
<title>dra.func_80118970</title>
<ellipse fill="green" stroke="black" cx="352.74" cy="-18" rx="100.98" ry="18"/>
<text text-anchor="middle" x="352.74" y="-14.3" font-family="Times,serif" font-size="14.00">dra.func_80118970</text>
</g>
<!-- dra.func_80129864 -->
<g id="node2" class="node">
<title>dra.func_80129864</title>
<g id="a_node2"><a xlink:href="dra.func_80129864.svg" xlink:title="dra.func_80129864">
<ellipse fill="green" stroke="black" cx="100.74" cy="-198" rx="100.98" ry="18"/>
<text text-anchor="middle" x="100.74" y="-194.3" font-family="Times,serif" font-size="14.00">dra.func_80129864</text>
</a>
</g>
</g>
<!-- dra.func_80129864&#45;&gt;dra.func_80118970 -->
<g id="edge1" class="edge">
<title>dra.func_80129864&#45;&gt;dra.func_80118970</title>
<path fill="none" stroke="black" d="M124.45,-180.25C169.97,-148.1 269.62,-77.71 320.89,-41.5"/>
<polygon fill="black" stroke="black" points="323.13,-44.2 329.28,-35.57 319.09,-38.48 323.13,-44.2"/>
<text text-anchor="middle" x="119.45" y="-169.05" font-family="Times,serif" font-size="14.00">1</text>
</g>
<!-- w_027.func_ptr_80170024 -->
<g id="node3" class="node">
<title>w_027.func_ptr_80170024</title>
<g id="a_node3"><a xlink:href="w_027.func_ptr_80170024.svg" xlink:title="w_027.func_ptr_80170024">
<ellipse fill="green" stroke="black" cx="352.74" cy="-198" rx="133.48" ry="18"/>
<text text-anchor="middle" x="352.74" y="-194.3" font-family="Times,serif" font-size="14.00">w_027.func_ptr_80170024</text>
</a>
</g>
</g>
<!-- w_027.func_ptr_80170024&#45;&gt;dra.func_80118970 -->
<g id="edge2" class="edge">
<title>w_027.func_ptr_80170024&#45;&gt;dra.func_80118970</title>
<path fill="none" stroke="black" d="M352.74,-179.93C352.74,-148.97 352.74,-83.3 352.74,-46.13"/>
<polygon fill="black" stroke="black" points="356.24,-46.02 352.74,-36.02 349.24,-46.02 356.24,-46.02"/>
<text text-anchor="middle" x="347.74" y="-168.73" font-family="Times,serif" font-size="14.00">1</text>
</g>
<!-- w_030.func_ptr_8017000C -->
<g id="node4" class="node">
<title>w_030.func_ptr_8017000C</title>
<g id="a_node4"><a xlink:href="w_030.func_ptr_8017000C.svg" xlink:title="w_030.func_ptr_8017000C">
<ellipse fill="green" stroke="black" cx="637.74" cy="-198" rx="133.78" ry="18"/>
<text text-anchor="middle" x="637.74" y="-194.3" font-family="Times,serif" font-size="14.00">w_030.func_ptr_8017000C</text>
</a>
</g>
</g>
<!-- w_030.func_ptr_8017000C&#45;&gt;dra.func_80118970 -->
<g id="edge3" class="edge">
<title>w_030.func_ptr_8017000C&#45;&gt;dra.func_80118970</title>
<path fill="none" stroke="black" d="M610.93,-180.25C559.24,-147.97 445.81,-77.13 388.05,-41.05"/>
<polygon fill="black" stroke="black" points="389.61,-37.9 379.27,-35.57 385.9,-43.84 389.61,-37.9"/>
<text text-anchor="middle" x="605.93" y="-169.05" font-family="Times,serif" font-size="14.00">1</text>
</g>
</g>
</svg>
