<?xml version="1.0" encoding="UTF-8" standalone="no"?>
<!DOCTYPE svg PUBLIC "-//W3C//DTD SVG 1.1//EN"
 "http://www.w3.org/Graphics/SVG/1.1/DTD/svg11.dtd">
<!-- Generated by graphviz version 2.43.0 (0)
 -->
<!-- Title: dra.UpdateCapePalette Pages: 1 -->
<svg width="687pt" height="404pt"
 viewBox="0.00 0.00 687.03 404.00" xmlns="http://www.w3.org/2000/svg" xmlns:xlink="http://www.w3.org/1999/xlink">
<g id="graph0" class="graph" transform="scale(1 1) rotate(0) translate(4 400)">
<title>dra.UpdateCapePalette</title>
<polygon fill="white" stroke="transparent" points="-4,4 -4,-400 683.03,-400 683.03,4 -4,4"/>
<!-- dra.UpdateCapePalette -->
<g id="node1" class="node">
<title>dra.UpdateCapePalette</title>
<ellipse fill="green" stroke="black" cx="328.49" cy="-198" rx="119.68" ry="18"/>
<text text-anchor="middle" x="328.49" y="-194.3" font-family="Times,serif" font-size="14.00">dra.UpdateCapePalette</text>
</g>
<!-- dra.func_800EA538 -->
<g id="node2" class="node">
<title>dra.func_800EA538</title>
<g id="a_node2"><a xlink:href="dra.func_800EA538.svg" xlink:title="dra.func_800EA538">
<ellipse fill="green" stroke="black" cx="217.49" cy="-18" rx="102.08" ry="18"/>
<text text-anchor="middle" x="217.49" y="-14.3" font-family="Times,serif" font-size="14.00">dra.func_800EA538</text>
</a>
</g>
</g>
<!-- dra.UpdateCapePalette&#45;&gt;dra.func_800EA538 -->
<g id="edge1" class="edge">
<title>dra.UpdateCapePalette&#45;&gt;dra.func_800EA538</title>
<path fill="none" stroke="black" d="M317.85,-179.93C298.29,-148.57 256.53,-81.6 233.52,-44.71"/>
<polygon fill="black" stroke="black" points="236.36,-42.65 228.1,-36.02 230.42,-46.35 236.36,-42.65"/>
<text text-anchor="middle" x="223.1" y="-39.82" font-family="Times,serif" font-size="14.00">1</text>
</g>
<!-- dra.func_800EA5E4 -->
<g id="node3" class="node">
<title>dra.func_800EA5E4</title>
<g id="a_node3"><a xlink:href="dra.func_800EA5E4.svg" xlink:title="dra.func_800EA5E4">
<ellipse fill="green" stroke="black" cx="440.49" cy="-18" rx="102.88" ry="18"/>
<text text-anchor="middle" x="440.49" y="-14.3" font-family="Times,serif" font-size="14.00">dra.func_800EA5E4</text>
</a>
</g>
</g>
<!-- dra.UpdateCapePalette&#45;&gt;dra.func_800EA5E4 -->
<g id="edge2" class="edge">
<title>dra.UpdateCapePalette&#45;&gt;dra.func_800EA5E4</title>
<path fill="none" stroke="black" d="M339.23,-179.93C358.96,-148.57 401.1,-81.6 424.31,-44.71"/>
<polygon fill="black" stroke="black" points="427.42,-46.34 429.78,-36.02 421.5,-42.62 427.42,-46.34"/>
<text text-anchor="middle" x="424.78" y="-39.82" font-family="Times,serif" font-size="14.00">2</text>
</g>
<!-- dra.InitStatsAndGear -->
<g id="node4" class="node">
<title>dra.InitStatsAndGear</title>
<g id="a_node4"><a xlink:href="dra.InitStatsAndGear.svg" xlink:title="dra.InitStatsAndGear">
<ellipse fill="green" stroke="black" cx="110.49" cy="-378" rx="110.48" ry="18"/>
<text text-anchor="middle" x="110.49" y="-374.3" font-family="Times,serif" font-size="14.00">dra.InitStatsAndGear</text>
</a>
</g>
</g>
<!-- dra.InitStatsAndGear&#45;&gt;dra.UpdateCapePalette -->
<g id="edge3" class="edge">
<title>dra.InitStatsAndGear&#45;&gt;dra.UpdateCapePalette</title>
<path fill="none" stroke="black" d="M131,-360.25C170.11,-328.32 255.44,-258.65 300.04,-222.23"/>
<polygon fill="black" stroke="black" points="302.34,-224.87 307.88,-215.83 297.92,-219.44 302.34,-224.87"/>
<text text-anchor="middle" x="126" y="-349.05" font-family="Times,serif" font-size="14.00">2</text>
</g>
<!-- dra.MenuHandle -->
<g id="node5" class="node">
<title>dra.MenuHandle</title>
<g id="a_node5"><a xlink:href="dra.MenuHandle.svg" xlink:title="dra.MenuHandle">
<ellipse fill="green" stroke="black" cx="328.49" cy="-378" rx="89.08" ry="18"/>
<text text-anchor="middle" x="328.49" y="-374.3" font-family="Times,serif" font-size="14.00">dra.MenuHandle</text>
</a>
</g>
</g>
<!-- dra.MenuHandle&#45;&gt;dra.UpdateCapePalette -->
<g id="edge4" class="edge">
<title>dra.MenuHandle&#45;&gt;dra.UpdateCapePalette</title>
<path fill="none" stroke="black" d="M328.49,-359.93C328.49,-328.97 328.49,-263.3 328.49,-226.13"/>
<polygon fill="black" stroke="black" points="331.99,-226.02 328.49,-216.02 324.99,-226.02 331.99,-226.02"/>
<text text-anchor="middle" x="323.49" y="-348.73" font-family="Times,serif" font-size="14.00">1</text>
</g>
<!-- dra.RefreshCapePalette -->
<g id="node6" class="node">
<title>dra.RefreshCapePalette</title>
<g id="a_node6"><a xlink:href="dra.RefreshCapePalette.svg" xlink:title="dra.RefreshCapePalette">
<ellipse fill="green" stroke="black" cx="557.49" cy="-378" rx="121.58" ry="18"/>
<text text-anchor="middle" x="557.49" y="-374.3" font-family="Times,serif" font-size="14.00">dra.RefreshCapePalette</text>
</a>
</g>
</g>
<!-- dra.RefreshCapePalette&#45;&gt;dra.UpdateCapePalette -->
<g id="edge5" class="edge">
<title>dra.RefreshCapePalette&#45;&gt;dra.UpdateCapePalette</title>
<path fill="none" stroke="black" d="M535.95,-360.25C494.77,-328.25 404.85,-258.36 358.08,-222"/>
<polygon fill="black" stroke="black" points="360.19,-219.2 350.14,-215.83 355.89,-224.73 360.19,-219.2"/>
<text text-anchor="middle" x="530.95" y="-349.05" font-family="Times,serif" font-size="14.00">1</text>
</g>
</g>
</svg>
