<?xml version="1.0" encoding="UTF-8" standalone="no"?>
<!DOCTYPE svg PUBLIC "-//W3C//DTD SVG 1.1//EN"
 "http://www.w3.org/Graphics/SVG/1.1/DTD/svg11.dtd">
<!-- Generated by graphviz version 2.43.0 (0)
 -->
<!-- Title: dra.ReadPads Pages: 1 -->
<svg width="418pt" height="404pt"
 viewBox="0.00 0.00 417.63 404.00" xmlns="http://www.w3.org/2000/svg" xmlns:xlink="http://www.w3.org/1999/xlink">
<g id="graph0" class="graph" transform="scale(1 1) rotate(0) translate(4 400)">
<title>dra.ReadPads</title>
<polygon fill="white" stroke="transparent" points="-4,4 -4,-400 413.63,-400 413.63,4 -4,4"/>
<!-- dra.ReadPads -->
<g id="node1" class="node">
<title>dra.ReadPads</title>
<ellipse fill="green" stroke="black" cx="225.29" cy="-198" rx="74.99" ry="18"/>
<text text-anchor="middle" x="225.29" y="-194.3" font-family="Times,serif" font-size="14.00">dra.ReadPads</text>
</g>
<!-- dra.UpdatePadsRepeat -->
<g id="node2" class="node">
<title>dra.UpdatePadsRepeat</title>
<g id="a_node2"><a xlink:href="dra.UpdatePadsRepeat.svg" xlink:title="dra.UpdatePadsRepeat">
<ellipse fill="green" stroke="black" cx="118.29" cy="-18" rx="118.08" ry="18"/>
<text text-anchor="middle" x="118.29" y="-14.3" font-family="Times,serif" font-size="14.00">dra.UpdatePadsRepeat</text>
</a>
</g>
</g>
<!-- dra.ReadPads&#45;&gt;dra.UpdatePadsRepeat -->
<g id="edge1" class="edge">
<title>dra.ReadPads&#45;&gt;dra.UpdatePadsRepeat</title>
<path fill="none" stroke="black" d="M215.03,-179.93C196.18,-148.57 155.92,-81.6 133.74,-44.71"/>
<polygon fill="black" stroke="black" points="136.67,-42.78 128.52,-36.02 130.67,-46.39 136.67,-42.78"/>
<text text-anchor="middle" x="123.52" y="-39.82" font-family="Times,serif" font-size="14.00">1</text>
</g>
<!-- main.PadRead -->
<g id="node3" class="node">
<title>main.PadRead</title>
<g id="a_node3"><a xlink:href="main.PadRead.svg" xlink:title="main.PadRead">
<ellipse fill="green" stroke="black" cx="332.29" cy="-18" rx="77.19" ry="18"/>
<text text-anchor="middle" x="332.29" y="-14.3" font-family="Times,serif" font-size="14.00">main.PadRead</text>
</a>
</g>
</g>
<!-- dra.ReadPads&#45;&gt;main.PadRead -->
<g id="edge2" class="edge">
<title>dra.ReadPads&#45;&gt;main.PadRead</title>
<path fill="none" stroke="black" d="M235.55,-179.93C254.4,-148.57 294.66,-81.6 316.84,-44.71"/>
<polygon fill="black" stroke="black" points="319.91,-46.39 322.06,-36.02 313.91,-42.78 319.91,-46.39"/>
<text text-anchor="middle" x="317.06" y="-39.82" font-family="Times,serif" font-size="14.00">1</text>
</g>
<!-- dra.MainGame -->
<g id="node4" class="node">
<title>dra.MainGame</title>
<g id="a_node4"><a xlink:href="dra.MainGame.svg" xlink:title="dra.MainGame">
<ellipse fill="green" stroke="black" cx="225.29" cy="-378" rx="79.09" ry="18"/>
<text text-anchor="middle" x="225.29" y="-374.3" font-family="Times,serif" font-size="14.00">dra.MainGame</text>
</a>
</g>
</g>
<!-- dra.MainGame&#45;&gt;dra.ReadPads -->
<g id="edge3" class="edge">
<title>dra.MainGame&#45;&gt;dra.ReadPads</title>
<path fill="none" stroke="black" d="M225.29,-359.93C225.29,-328.97 225.29,-263.3 225.29,-226.13"/>
<polygon fill="black" stroke="black" points="228.79,-226.02 225.29,-216.02 221.79,-226.02 228.79,-226.02"/>
<text text-anchor="middle" x="220.29" y="-348.73" font-family="Times,serif" font-size="14.00">1</text>
</g>
</g>
</svg>
