<?xml version="1.0" encoding="UTF-8" standalone="no"?>
<!DOCTYPE svg PUBLIC "-//W3C//DTD SVG 1.1//EN"
 "http://www.w3.org/Graphics/SVG/1.1/DTD/svg11.dtd">
<!-- Generated by graphviz version 2.43.0 (0)
 -->
<!-- Title: dra.PlayerStepCrouch Pages: 1 -->
<svg width="2748pt" height="404pt"
 viewBox="0.00 0.00 2747.78 404.00" xmlns="http://www.w3.org/2000/svg" xmlns:xlink="http://www.w3.org/1999/xlink">
<g id="graph0" class="graph" transform="scale(1 1) rotate(0) translate(4 400)">
<title>dra.PlayerStepCrouch</title>
<polygon fill="white" stroke="transparent" points="-4,4 -4,-400 2743.78,-400 2743.78,4 -4,4"/>
<!-- dra.PlayerStepCrouch -->
<g id="node1" class="node">
<title>dra.PlayerStepCrouch</title>
<ellipse fill="green" stroke="black" cx="1418.09" cy="-198" rx="113.98" ry="18"/>
<text text-anchor="middle" x="1418.09" y="-194.3" font-family="Times,serif" font-size="14.00">dra.PlayerStepCrouch</text>
</g>
<!-- dra.CheckMoveDirection -->
<g id="node2" class="node">
<title>dra.CheckMoveDirection</title>
<g id="a_node2"><a xlink:href="dra.CheckMoveDirection.svg" xlink:title="dra.CheckMoveDirection">
<ellipse fill="green" stroke="black" cx="126.09" cy="-18" rx="126.18" ry="18"/>
<text text-anchor="middle" x="126.09" y="-14.3" font-family="Times,serif" font-size="14.00">dra.CheckMoveDirection</text>
</a>
</g>
</g>
<!-- dra.PlayerStepCrouch&#45;&gt;dra.CheckMoveDirection -->
<g id="edge1" class="edge">
<title>dra.PlayerStepCrouch&#45;&gt;dra.CheckMoveDirection</title>
<path fill="none" stroke="black" d="M1335.3,-185.59C1106.78,-154.11 467.94,-66.1 223.19,-32.38"/>
<polygon fill="black" stroke="black" points="223.63,-28.91 213.25,-31.01 222.67,-35.84 223.63,-28.91"/>
<text text-anchor="middle" x="208.25" y="-34.81" font-family="Times,serif" font-size="14.00">3</text>
</g>
<!-- dra.CreateEntFactoryFromEntity -->
<g id="node3" class="node">
<title>dra.CreateEntFactoryFromEntity</title>
<g id="a_node3"><a xlink:href="dra.CreateEntFactoryFromEntity.svg" xlink:title="dra.CreateEntFactoryFromEntity">
<ellipse fill="green" stroke="black" cx="436.09" cy="-18" rx="165.97" ry="18"/>
<text text-anchor="middle" x="436.09" y="-14.3" font-family="Times,serif" font-size="14.00">dra.CreateEntFactoryFromEntity</text>
</a>
</g>
</g>
<!-- dra.PlayerStepCrouch&#45;&gt;dra.CreateEntFactoryFromEntity -->
<g id="edge2" class="edge">
<title>dra.PlayerStepCrouch&#45;&gt;dra.CreateEntFactoryFromEntity</title>
<path fill="none" stroke="black" d="M1346.28,-183.98C1170.92,-152.2 721.09,-70.66 527.23,-35.52"/>
<polygon fill="black" stroke="black" points="527.82,-32.07 517.35,-33.73 526.57,-38.96 527.82,-32.07"/>
<text text-anchor="middle" x="512.35" y="-37.53" font-family="Times,serif" font-size="14.00">1</text>
</g>
<!-- dra.DecelerateX -->
<g id="node4" class="node">
<title>dra.DecelerateX</title>
<g id="a_node4"><a xlink:href="dra.DecelerateX.svg" xlink:title="dra.DecelerateX">
<ellipse fill="green" stroke="black" cx="706.09" cy="-18" rx="85.59" ry="18"/>
<text text-anchor="middle" x="706.09" y="-14.3" font-family="Times,serif" font-size="14.00">dra.DecelerateX</text>
</a>
</g>
</g>
<!-- dra.PlayerStepCrouch&#45;&gt;dra.DecelerateX -->
<g id="edge3" class="edge">
<title>dra.PlayerStepCrouch&#45;&gt;dra.DecelerateX</title>
<path fill="none" stroke="black" d="M1360.12,-182.51C1228.14,-149.51 906.08,-69 769.25,-34.79"/>
<polygon fill="black" stroke="black" points="769.89,-31.34 759.34,-32.31 768.19,-38.13 769.89,-31.34"/>
<text text-anchor="middle" x="754.34" y="-36.11" font-family="Times,serif" font-size="14.00">1</text>
</g>
<!-- dra.SetPlayerAnim -->
<g id="node5" class="node">
<title>dra.SetPlayerAnim</title>
<g id="a_node5"><a xlink:href="dra.SetPlayerAnim.svg" xlink:title="dra.SetPlayerAnim">
<ellipse fill="green" stroke="black" cx="909.09" cy="-18" rx="98.58" ry="18"/>
<text text-anchor="middle" x="909.09" y="-14.3" font-family="Times,serif" font-size="14.00">dra.SetPlayerAnim</text>
</a>
</g>
</g>
<!-- dra.PlayerStepCrouch&#45;&gt;dra.SetPlayerAnim -->
<g id="edge4" class="edge">
<title>dra.PlayerStepCrouch&#45;&gt;dra.SetPlayerAnim</title>
<path fill="none" stroke="black" d="M1373.36,-181.36C1279.69,-148.6 1063.24,-72.91 962.48,-37.67"/>
<polygon fill="black" stroke="black" points="963.4,-34.29 952.81,-34.29 961.09,-40.89 963.4,-34.29"/>
<text text-anchor="middle" x="947.81" y="-38.09" font-family="Times,serif" font-size="14.00">5</text>
</g>
<!-- dra.SetSpeedX -->
<g id="node6" class="node">
<title>dra.SetSpeedX</title>
<g id="a_node6"><a xlink:href="dra.SetSpeedX.svg" xlink:title="dra.SetSpeedX">
<ellipse fill="green" stroke="black" cx="1106.09" cy="-18" rx="79.89" ry="18"/>
<text text-anchor="middle" x="1106.09" y="-14.3" font-family="Times,serif" font-size="14.00">dra.SetSpeedX</text>
</a>
</g>
</g>
<!-- dra.PlayerStepCrouch&#45;&gt;dra.SetSpeedX -->
<g id="edge5" class="edge">
<title>dra.PlayerStepCrouch&#45;&gt;dra.SetSpeedX</title>
<path fill="none" stroke="black" d="M1389.3,-180.57C1332.36,-148.09 1205.46,-75.69 1142.69,-39.88"/>
<polygon fill="black" stroke="black" points="1144.33,-36.79 1133.91,-34.87 1140.87,-42.87 1144.33,-36.79"/>
<text text-anchor="middle" x="1128.91" y="-38.67" font-family="Times,serif" font-size="14.00">1</text>
</g>
<!-- dra.func_8010DFF0 -->
<g id="node7" class="node">
<title>dra.func_8010DFF0</title>
<g id="a_node7"><a xlink:href="dra.func_8010DFF0.svg" xlink:title="dra.func_8010DFF0">
<ellipse fill="green" stroke="black" cx="1307.09" cy="-18" rx="102.88" ry="18"/>
<text text-anchor="middle" x="1307.09" y="-14.3" font-family="Times,serif" font-size="14.00">dra.func_8010DFF0</text>
</a>
</g>
</g>
<!-- dra.PlayerStepCrouch&#45;&gt;dra.func_8010DFF0 -->
<g id="edge6" class="edge">
<title>dra.PlayerStepCrouch&#45;&gt;dra.func_8010DFF0</title>
<path fill="none" stroke="black" d="M1407.45,-179.93C1387.89,-148.57 1346.13,-81.6 1323.12,-44.71"/>
<polygon fill="black" stroke="black" points="1325.96,-42.65 1317.7,-36.02 1320.02,-46.35 1325.96,-42.65"/>
<text text-anchor="middle" x="1312.7" y="-39.82" font-family="Times,serif" font-size="14.00">6</text>
</g>
<!-- dra.func_8010E470 -->
<g id="node8" class="node">
<title>dra.func_8010E470</title>
<g id="a_node8"><a xlink:href="dra.func_8010E470.svg" xlink:title="dra.func_8010E470">
<ellipse fill="green" stroke="black" cx="1529.09" cy="-18" rx="101.28" ry="18"/>
<text text-anchor="middle" x="1529.09" y="-14.3" font-family="Times,serif" font-size="14.00">dra.func_8010E470</text>
</a>
</g>
</g>
<!-- dra.PlayerStepCrouch&#45;&gt;dra.func_8010E470 -->
<g id="edge7" class="edge">
<title>dra.PlayerStepCrouch&#45;&gt;dra.func_8010E470</title>
<path fill="none" stroke="black" d="M1428.73,-179.93C1448.29,-148.57 1490.05,-81.6 1513.06,-44.71"/>
<polygon fill="black" stroke="black" points="1516.16,-46.35 1518.48,-36.02 1510.22,-42.65 1516.16,-46.35"/>
<text text-anchor="middle" x="1513.48" y="-39.82" font-family="Times,serif" font-size="14.00">2</text>
</g>
<!-- dra.func_8010E570 -->
<g id="node9" class="node">
<title>dra.func_8010E570</title>
<g id="a_node9"><a xlink:href="dra.func_8010E570.svg" xlink:title="dra.func_8010E570">
<ellipse fill="green" stroke="black" cx="1750.09" cy="-18" rx="101.28" ry="18"/>
<text text-anchor="middle" x="1750.09" y="-14.3" font-family="Times,serif" font-size="14.00">dra.func_8010E570</text>
</a>
</g>
</g>
<!-- dra.PlayerStepCrouch&#45;&gt;dra.func_8010E570 -->
<g id="edge8" class="edge">
<title>dra.PlayerStepCrouch&#45;&gt;dra.func_8010E570</title>
<path fill="none" stroke="black" d="M1448.73,-180.57C1509.13,-148.19 1643.53,-76.13 1710.53,-40.21"/>
<polygon fill="black" stroke="black" points="1712.36,-43.2 1719.52,-35.39 1709.06,-37.03 1712.36,-43.2"/>
<text text-anchor="middle" x="1714.52" y="-39.19" font-family="Times,serif" font-size="14.00">1</text>
</g>
<!-- dra.func_8010E6AC -->
<g id="node10" class="node">
<title>dra.func_8010E6AC</title>
<g id="a_node10"><a xlink:href="dra.func_8010E6AC.svg" xlink:title="dra.func_8010E6AC">
<ellipse fill="green" stroke="black" cx="1972.09" cy="-18" rx="102.88" ry="18"/>
<text text-anchor="middle" x="1972.09" y="-14.3" font-family="Times,serif" font-size="14.00">dra.func_8010E6AC</text>
</a>
</g>
</g>
<!-- dra.PlayerStepCrouch&#45;&gt;dra.func_8010E6AC -->
<g id="edge9" class="edge">
<title>dra.PlayerStepCrouch&#45;&gt;dra.func_8010E6AC</title>
<path fill="none" stroke="black" d="M1466.28,-181.52C1568.4,-148.71 1806.1,-72.33 1915.34,-37.23"/>
<polygon fill="black" stroke="black" points="1916.73,-40.46 1925.18,-34.07 1914.59,-33.8 1916.73,-40.46"/>
<text text-anchor="middle" x="1920.18" y="-37.87" font-family="Times,serif" font-size="14.00">1</text>
</g>
<!-- dra.func_8010E83C -->
<g id="node11" class="node">
<title>dra.func_8010E83C</title>
<g id="a_node11"><a xlink:href="dra.func_8010E83C.svg" xlink:title="dra.func_8010E83C">
<ellipse fill="green" stroke="black" cx="2195.09" cy="-18" rx="102.88" ry="18"/>
<text text-anchor="middle" x="2195.09" y="-14.3" font-family="Times,serif" font-size="14.00">dra.func_8010E83C</text>
</a>
</g>
</g>
<!-- dra.PlayerStepCrouch&#45;&gt;dra.func_8010E83C -->
<g id="edge10" class="edge">
<title>dra.PlayerStepCrouch&#45;&gt;dra.func_8010E83C</title>
<path fill="none" stroke="black" d="M1480.03,-182.81C1622.99,-150.06 1975.15,-69.38 2125.37,-34.97"/>
<polygon fill="black" stroke="black" points="2126.44,-38.32 2135.4,-32.67 2124.87,-31.5 2126.44,-38.32"/>
<text text-anchor="middle" x="2130.4" y="-36.47" font-family="Times,serif" font-size="14.00">1</text>
</g>
<!-- dra.func_8010FAF4 -->
<g id="node12" class="node">
<title>dra.func_8010FAF4</title>
<g id="a_node12"><a xlink:href="dra.func_8010FAF4.svg" xlink:title="dra.func_8010FAF4">
<ellipse fill="green" stroke="black" cx="2416.09" cy="-18" rx="100.98" ry="18"/>
<text text-anchor="middle" x="2416.09" y="-14.3" font-family="Times,serif" font-size="14.00">dra.func_8010FAF4</text>
</a>
</g>
</g>
<!-- dra.PlayerStepCrouch&#45;&gt;dra.func_8010FAF4 -->
<g id="edge11" class="edge">
<title>dra.PlayerStepCrouch&#45;&gt;dra.func_8010FAF4</title>
<path fill="none" stroke="black" d="M1490.67,-184.06C1672.9,-151.55 2148.62,-66.7 2337.32,-33.05"/>
<polygon fill="black" stroke="black" points="2338.21,-36.45 2347.44,-31.24 2336.98,-29.55 2338.21,-36.45"/>
<text text-anchor="middle" x="2342.44" y="-35.04" font-family="Times,serif" font-size="14.00">1</text>
</g>
<!-- dra.func_8010FDF8 -->
<g id="node13" class="node">
<title>dra.func_8010FDF8</title>
<g id="a_node13"><a xlink:href="dra.func_8010FDF8.svg" xlink:title="dra.func_8010FDF8">
<ellipse fill="green" stroke="black" cx="2637.09" cy="-18" rx="102.88" ry="18"/>
<text text-anchor="middle" x="2637.09" y="-14.3" font-family="Times,serif" font-size="14.00">dra.func_8010FDF8</text>
</a>
</g>
</g>
<!-- dra.PlayerStepCrouch&#45;&gt;dra.func_8010FDF8 -->
<g id="edge12" class="edge">
<title>dra.PlayerStepCrouch&#45;&gt;dra.func_8010FDF8</title>
<path fill="none" stroke="black" d="M1499.44,-185.4C1682.75,-159.2 2142.06,-93.31 2526.09,-36 2534.7,-34.71 2543.69,-33.36 2552.67,-32"/>
<polygon fill="black" stroke="black" points="2553.4,-35.43 2562.76,-30.46 2552.35,-28.51 2553.4,-35.43"/>
<text text-anchor="middle" x="2557.76" y="-34.26" font-family="Times,serif" font-size="14.00">1</text>
</g>
<!-- dra.EntityAlucard -->
<g id="node14" class="node">
<title>dra.EntityAlucard</title>
<g id="a_node14"><a xlink:href="dra.EntityAlucard.svg" xlink:title="dra.EntityAlucard">
<ellipse fill="green" stroke="black" cx="1418.09" cy="-378" rx="93.68" ry="18"/>
<text text-anchor="middle" x="1418.09" y="-374.3" font-family="Times,serif" font-size="14.00">dra.EntityAlucard</text>
</a>
</g>
</g>
<!-- dra.EntityAlucard&#45;&gt;dra.PlayerStepCrouch -->
<g id="edge13" class="edge">
<title>dra.EntityAlucard&#45;&gt;dra.PlayerStepCrouch</title>
<path fill="none" stroke="black" d="M1418.09,-359.93C1418.09,-328.97 1418.09,-263.3 1418.09,-226.13"/>
<polygon fill="black" stroke="black" points="1421.59,-226.02 1418.09,-216.02 1414.59,-226.02 1421.59,-226.02"/>
<text text-anchor="middle" x="1413.09" y="-348.73" font-family="Times,serif" font-size="14.00">1</text>
</g>
</g>
</svg>
