<?xml version="1.0" encoding="UTF-8" standalone="no"?>
<!DOCTYPE svg PUBLIC "-//W3C//DTD SVG 1.1//EN"
 "http://www.w3.org/Graphics/SVG/1.1/DTD/svg11.dtd">
<!-- Generated by graphviz version 2.43.0 (0)
 -->
<!-- Title: dra.func_8011A3AC Pages: 1 -->
<svg width="768pt" height="404pt"
 viewBox="0.00 0.00 767.78 404.00" xmlns="http://www.w3.org/2000/svg" xmlns:xlink="http://www.w3.org/1999/xlink">
<g id="graph0" class="graph" transform="scale(1 1) rotate(0) translate(4 400)">
<title>dra.func_8011A3AC</title>
<polygon fill="white" stroke="transparent" points="-4,4 -4,-400 763.78,-400 763.78,4 -4,4"/>
<!-- dra.func_8011A3AC -->
<g id="node1" class="node">
<title>dra.func_8011A3AC</title>
<ellipse fill="green" stroke="black" cx="379.89" cy="-198" rx="102.88" ry="18"/>
<text text-anchor="middle" x="379.89" y="-194.3" font-family="Times,serif" font-size="14.00">dra.func_8011A3AC</text>
</g>
<!-- dra.func_800FD9D4 -->
<g id="node2" class="node">
<title>dra.func_800FD9D4</title>
<g id="a_node2"><a xlink:href="dra.func_800FD9D4.svg" xlink:title="dra.func_800FD9D4">
<ellipse fill="green" stroke="black" cx="268.89" cy="-18" rx="103.98" ry="18"/>
<text text-anchor="middle" x="268.89" y="-14.3" font-family="Times,serif" font-size="14.00">dra.func_800FD9D4</text>
</a>
</g>
</g>
<!-- dra.func_8011A3AC&#45;&gt;dra.func_800FD9D4 -->
<g id="edge1" class="edge">
<title>dra.func_8011A3AC&#45;&gt;dra.func_800FD9D4</title>
<path fill="none" stroke="black" d="M369.25,-179.93C349.69,-148.57 307.93,-81.6 284.92,-44.71"/>
<polygon fill="black" stroke="black" points="287.76,-42.65 279.5,-36.02 281.82,-46.35 287.76,-42.65"/>
<text text-anchor="middle" x="274.5" y="-39.82" font-family="Times,serif" font-size="14.00">1</text>
</g>
<!-- dra.func_80118894 -->
<g id="node3" class="node">
<title>dra.func_80118894</title>
<g id="a_node3"><a xlink:href="dra.func_80118894.svg" xlink:title="dra.func_80118894">
<ellipse fill="green" stroke="black" cx="491.89" cy="-18" rx="100.98" ry="18"/>
<text text-anchor="middle" x="491.89" y="-14.3" font-family="Times,serif" font-size="14.00">dra.func_80118894</text>
</a>
</g>
</g>
<!-- dra.func_8011A3AC&#45;&gt;dra.func_80118894 -->
<g id="edge2" class="edge">
<title>dra.func_8011A3AC&#45;&gt;dra.func_80118894</title>
<path fill="none" stroke="black" d="M390.63,-179.93C410.36,-148.57 452.5,-81.6 475.71,-44.71"/>
<polygon fill="black" stroke="black" points="478.82,-46.34 481.18,-36.02 472.89,-42.62 478.82,-46.34"/>
<text text-anchor="middle" x="476.18" y="-39.82" font-family="Times,serif" font-size="14.00">1</text>
</g>
<!-- servant.func_801719E0 -->
<g id="node4" class="node">
<title>servant.func_801719E0</title>
<g id="a_node4"><a xlink:href="servant.func_801719E0.svg" xlink:title="servant.func_801719E0">
<ellipse fill="green" stroke="black" cx="120.89" cy="-378" rx="120.78" ry="18"/>
<text text-anchor="middle" x="120.89" y="-374.3" font-family="Times,serif" font-size="14.00">servant.func_801719E0</text>
</a>
</g>
</g>
<!-- servant.func_801719E0&#45;&gt;dra.func_8011A3AC -->
<g id="edge3" class="edge">
<title>servant.func_801719E0&#45;&gt;dra.func_8011A3AC</title>
<path fill="none" stroke="black" d="M145.26,-360.25C192.13,-328.04 294.89,-257.42 347.48,-221.27"/>
<polygon fill="black" stroke="black" points="349.52,-224.12 355.78,-215.57 345.55,-218.35 349.52,-224.12"/>
<text text-anchor="middle" x="140.26" y="-349.05" font-family="Times,serif" font-size="14.00">1</text>
</g>
<!-- servant.func_80172120 -->
<g id="node5" class="node">
<title>servant.func_80172120</title>
<g id="a_node5"><a xlink:href="servant.func_80172120.svg" xlink:title="servant.func_80172120">
<ellipse fill="red" stroke="black" cx="379.89" cy="-378" rx="120.48" ry="18"/>
<text text-anchor="middle" x="379.89" y="-374.3" font-family="Times,serif" font-size="14.00">servant.func_80172120</text>
</a>
</g>
</g>
<!-- servant.func_80172120&#45;&gt;dra.func_8011A3AC -->
<g id="edge4" class="edge">
<title>servant.func_80172120&#45;&gt;dra.func_8011A3AC</title>
<path fill="none" stroke="black" d="M379.89,-359.93C379.89,-328.97 379.89,-263.3 379.89,-226.13"/>
<polygon fill="black" stroke="black" points="383.39,-226.02 379.89,-216.02 376.39,-226.02 383.39,-226.02"/>
<text text-anchor="middle" x="374.89" y="-348.73" font-family="Times,serif" font-size="14.00">2</text>
</g>
<!-- servant.func_80172C30 -->
<g id="node6" class="node">
<title>servant.func_80172C30</title>
<g id="a_node6"><a xlink:href="servant.func_80172C30.svg" xlink:title="servant.func_80172C30">
<ellipse fill="red" stroke="black" cx="638.89" cy="-378" rx="120.78" ry="18"/>
<text text-anchor="middle" x="638.89" y="-374.3" font-family="Times,serif" font-size="14.00">servant.func_80172C30</text>
</a>
</g>
</g>
<!-- servant.func_80172C30&#45;&gt;dra.func_8011A3AC -->
<g id="edge5" class="edge">
<title>servant.func_80172C30&#45;&gt;dra.func_8011A3AC</title>
<path fill="none" stroke="black" d="M614.52,-360.25C567.64,-328.04 464.89,-257.42 412.3,-221.27"/>
<polygon fill="black" stroke="black" points="414.23,-218.35 404,-215.57 410.26,-224.12 414.23,-218.35"/>
<text text-anchor="middle" x="609.52" y="-349.05" font-family="Times,serif" font-size="14.00">1</text>
</g>
</g>
</svg>
