<?xml version="1.0" encoding="UTF-8" standalone="no"?>
<!DOCTYPE svg PUBLIC "-//W3C//DTD SVG 1.1//EN"
 "http://www.w3.org/Graphics/SVG/1.1/DTD/svg11.dtd">
<!-- Generated by graphviz version 2.43.0 (0)
 -->
<!-- Title: dra.UpdateAnim Pages: 1 -->
<svg width="3739pt" height="224pt"
 viewBox="0.00 0.00 3739.23 224.00" xmlns="http://www.w3.org/2000/svg" xmlns:xlink="http://www.w3.org/1999/xlink">
<g id="graph0" class="graph" transform="scale(1 1) rotate(0) translate(4 220)">
<title>dra.UpdateAnim</title>
<polygon fill="white" stroke="transparent" points="-4,4 -4,-220 3735.23,-220 3735.23,4 -4,4"/>
<!-- dra.UpdateAnim -->
<g id="node1" class="node">
<title>dra.UpdateAnim</title>
<ellipse fill="green" stroke="black" cx="1741.99" cy="-18" rx="87.18" ry="18"/>
<text text-anchor="middle" x="1741.99" y="-14.3" font-family="Times,serif" font-size="14.00">dra.UpdateAnim</text>
</g>
<!-- dra.UpdatePlayerEntities -->
<g id="node2" class="node">
<title>dra.UpdatePlayerEntities</title>
<g id="a_node2"><a xlink:href="dra.UpdatePlayerEntities.svg" xlink:title="dra.UpdatePlayerEntities">
<ellipse fill="green" stroke="black" cx="129.99" cy="-198" rx="129.98" ry="18"/>
<text text-anchor="middle" x="129.99" y="-194.3" font-family="Times,serif" font-size="14.00">dra.UpdatePlayerEntities</text>
</a>
</g>
</g>
<!-- dra.UpdatePlayerEntities&#45;&gt;dra.UpdateAnim -->
<g id="edge1" class="edge">
<title>dra.UpdatePlayerEntities&#45;&gt;dra.UpdateAnim</title>
<path fill="none" stroke="black" d="M223.43,-185.41C238.65,-183.56 254.26,-181.71 268.99,-180 795.62,-119.02 1428.93,-51.88 1655.88,-28.02"/>
<polygon fill="black" stroke="black" points="1656.48,-31.48 1666.06,-26.95 1655.75,-24.52 1656.48,-31.48"/>
<text text-anchor="middle" x="218.43" y="-174.21" font-family="Times,serif" font-size="14.00">1</text>
</g>
<!-- dra.func_8011A870 -->
<g id="node3" class="node">
<title>dra.func_8011A870</title>
<g id="a_node3"><a xlink:href="dra.func_8011A870.svg" xlink:title="dra.func_8011A870">
<ellipse fill="green" stroke="black" cx="378.99" cy="-198" rx="100.98" ry="18"/>
<text text-anchor="middle" x="378.99" y="-194.3" font-family="Times,serif" font-size="14.00">dra.func_8011A870</text>
</a>
</g>
</g>
<!-- dra.func_8011A870&#45;&gt;dra.UpdateAnim -->
<g id="edge2" class="edge">
<title>dra.func_8011A870&#45;&gt;dra.UpdateAnim</title>
<path fill="none" stroke="black" d="M451.36,-185.43C463.58,-183.56 476.14,-181.68 487.99,-180 928,-117.45 1456.45,-53.13 1658.17,-28.97"/>
<polygon fill="black" stroke="black" points="1658.88,-32.41 1668.4,-27.74 1658.05,-25.46 1658.88,-32.41"/>
<text text-anchor="middle" x="446.36" y="-174.23" font-family="Times,serif" font-size="14.00">1</text>
</g>
<!-- ric.RicMain -->
<g id="node4" class="node">
<title>ric.RicMain</title>
<g id="a_node4"><a xlink:href="ric.RicMain.svg" xlink:title="ric.RicMain">
<ellipse fill="green" stroke="black" cx="560.99" cy="-198" rx="63.89" ry="18"/>
<text text-anchor="middle" x="560.99" y="-194.3" font-family="Times,serif" font-size="14.00">ric.RicMain</text>
</a>
</g>
</g>
<!-- ric.RicMain&#45;&gt;dra.UpdateAnim -->
<g id="edge3" class="edge">
<title>ric.RicMain&#45;&gt;dra.UpdateAnim</title>
<path fill="none" stroke="black" d="M607.6,-185.53C616.34,-183.55 625.42,-181.62 633.99,-180 1014.03,-108.27 1472.61,-50.79 1658.09,-28.73"/>
<polygon fill="black" stroke="black" points="1658.53,-32.2 1668.05,-27.55 1657.71,-25.25 1658.53,-32.2"/>
<text text-anchor="middle" x="602.6" y="-174.33" font-family="Times,serif" font-size="14.00">1</text>
</g>
<!-- ric.RicUpdatePlayerEntities -->
<g id="node5" class="node">
<title>ric.RicUpdatePlayerEntities</title>
<g id="a_node5"><a xlink:href="ric.RicUpdatePlayerEntities.svg" xlink:title="ric.RicUpdatePlayerEntities">
<ellipse fill="green" stroke="black" cx="783.99" cy="-198" rx="141.07" ry="18"/>
<text text-anchor="middle" x="783.99" y="-194.3" font-family="Times,serif" font-size="14.00">ric.RicUpdatePlayerEntities</text>
</a>
</g>
</g>
<!-- ric.RicUpdatePlayerEntities&#45;&gt;dra.UpdateAnim -->
<g id="edge4" class="edge">
<title>ric.RicUpdatePlayerEntities&#45;&gt;dra.UpdateAnim</title>
<path fill="none" stroke="black" d="M860.36,-182.81C1041.04,-149.24 1492.76,-65.31 1669.49,-32.47"/>
<polygon fill="black" stroke="black" points="1670.28,-35.88 1679.47,-30.62 1669,-29 1670.28,-35.88"/>
<text text-anchor="middle" x="855.36" y="-171.61" font-family="Times,serif" font-size="14.00">1</text>
</g>
<!-- servant.func_80172120 -->
<g id="node6" class="node">
<title>servant.func_80172120</title>
<g id="a_node6"><a xlink:href="servant.func_80172120.svg" xlink:title="servant.func_80172120">
<ellipse fill="red" stroke="black" cx="1062.99" cy="-198" rx="120.48" ry="18"/>
<text text-anchor="middle" x="1062.99" y="-194.3" font-family="Times,serif" font-size="14.00">servant.func_80172120</text>
</a>
</g>
</g>
<!-- servant.func_80172120&#45;&gt;dra.UpdateAnim -->
<g id="edge5" class="edge">
<title>servant.func_80172120&#45;&gt;dra.UpdateAnim</title>
<path fill="none" stroke="black" d="M1120,-182.05C1246.47,-148.9 1549.63,-69.43 1680.32,-35.17"/>
<polygon fill="black" stroke="black" points="1681.39,-38.5 1690.17,-32.58 1679.61,-31.73 1681.39,-38.5"/>
<text text-anchor="middle" x="1115" y="-170.85" font-family="Times,serif" font-size="14.00">1</text>
</g>
<!-- servant.func_80172C30 -->
<g id="node7" class="node">
<title>servant.func_80172C30</title>
<g id="a_node7"><a xlink:href="servant.func_80172C30.svg" xlink:title="servant.func_80172C30">
<ellipse fill="red" stroke="black" cx="1321.99" cy="-198" rx="120.78" ry="18"/>
<text text-anchor="middle" x="1321.99" y="-194.3" font-family="Times,serif" font-size="14.00">servant.func_80172C30</text>
</a>
</g>
</g>
<!-- servant.func_80172C30&#45;&gt;dra.UpdateAnim -->
<g id="edge6" class="edge">
<title>servant.func_80172C30&#45;&gt;dra.UpdateAnim</title>
<path fill="none" stroke="black" d="M1360,-180.89C1437.39,-148.09 1612.93,-73.69 1696.34,-38.35"/>
<polygon fill="black" stroke="black" points="1697.72,-41.56 1705.56,-34.44 1694.99,-35.12 1697.72,-41.56"/>
<text text-anchor="middle" x="1355" y="-169.69" font-family="Times,serif" font-size="14.00">1</text>
</g>
<!-- servant.func_us_80171864 -->
<g id="node8" class="node">
<title>servant.func_us_80171864</title>
<g id="a_node8"><a xlink:href="servant.func_us_80171864.svg" xlink:title="servant.func_us_80171864">
<ellipse fill="red" stroke="black" cx="1595.99" cy="-198" rx="135.38" ry="18"/>
<text text-anchor="middle" x="1595.99" y="-194.3" font-family="Times,serif" font-size="14.00">servant.func_us_80171864</text>
</a>
</g>
</g>
<!-- servant.func_us_80171864&#45;&gt;dra.UpdateAnim -->
<g id="edge7" class="edge">
<title>servant.func_us_80171864&#45;&gt;dra.UpdateAnim</title>
<path fill="none" stroke="black" d="M1609.99,-179.93C1635.93,-148.3 1691.57,-80.46 1721.67,-43.78"/>
<polygon fill="black" stroke="black" points="1724.4,-45.97 1728.03,-36.02 1718.98,-41.53 1724.4,-45.97"/>
<text text-anchor="middle" x="1604.99" y="-168.73" font-family="Times,serif" font-size="14.00">1</text>
</g>
<!-- w_020.EntityWeaponAttack -->
<g id="node9" class="node">
<title>w_020.EntityWeaponAttack</title>
<g id="a_node9"><a xlink:href="w_020.EntityWeaponAttack.svg" xlink:title="w_020.EntityWeaponAttack">
<ellipse fill="green" stroke="black" cx="1887.99" cy="-198" rx="138.38" ry="18"/>
<text text-anchor="middle" x="1887.99" y="-194.3" font-family="Times,serif" font-size="14.00">w_020.EntityWeaponAttack</text>
</a>
</g>
</g>
<!-- w_020.EntityWeaponAttack&#45;&gt;dra.UpdateAnim -->
<g id="edge8" class="edge">
<title>w_020.EntityWeaponAttack&#45;&gt;dra.UpdateAnim</title>
<path fill="none" stroke="black" d="M1873.99,-179.93C1848.04,-148.3 1792.4,-80.46 1762.31,-43.78"/>
<polygon fill="black" stroke="black" points="1764.99,-41.53 1755.95,-36.02 1759.58,-45.97 1764.99,-41.53"/>
<text text-anchor="middle" x="1868.99" y="-168.73" font-family="Times,serif" font-size="14.00">1</text>
</g>
<!-- w_030.func_ptr_80170008 -->
<g id="node10" class="node">
<title>w_030.func_ptr_80170008</title>
<g id="a_node10"><a xlink:href="w_030.func_ptr_80170008.svg" xlink:title="w_030.func_ptr_80170008">
<ellipse fill="red" stroke="black" cx="2177.99" cy="-198" rx="133.48" ry="18"/>
<text text-anchor="middle" x="2177.99" y="-194.3" font-family="Times,serif" font-size="14.00">w_030.func_ptr_80170008</text>
</a>
</g>
</g>
<!-- w_030.func_ptr_80170008&#45;&gt;dra.UpdateAnim -->
<g id="edge9" class="edge">
<title>w_030.func_ptr_80170008&#45;&gt;dra.UpdateAnim</title>
<path fill="none" stroke="black" d="M2138.14,-180.73C2057.4,-147.77 1874.85,-73.24 1788.68,-38.06"/>
<polygon fill="black" stroke="black" points="1789.99,-34.82 1779.41,-34.28 1787.35,-41.3 1789.99,-34.82"/>
<text text-anchor="middle" x="2133.14" y="-169.53" font-family="Times,serif" font-size="14.00">1</text>
</g>
<!-- w_040.func_ptr_80170004 -->
<g id="node11" class="node">
<title>w_040.func_ptr_80170004</title>
<g id="a_node11"><a xlink:href="w_040.func_ptr_80170004.svg" xlink:title="w_040.func_ptr_80170004">
<ellipse fill="green" stroke="black" cx="2461.99" cy="-198" rx="133.48" ry="18"/>
<text text-anchor="middle" x="2461.99" y="-194.3" font-family="Times,serif" font-size="14.00">w_040.func_ptr_80170004</text>
</a>
</g>
</g>
<!-- w_040.func_ptr_80170004&#45;&gt;dra.UpdateAnim -->
<g id="edge10" class="edge">
<title>w_040.func_ptr_80170004&#45;&gt;dra.UpdateAnim</title>
<path fill="none" stroke="black" d="M2401.22,-181.98C2266.44,-148.66 1943.51,-68.82 1805.88,-34.79"/>
<polygon fill="black" stroke="black" points="1806.45,-31.33 1795.9,-32.33 1804.77,-38.13 1806.45,-31.33"/>
<text text-anchor="middle" x="2396.22" y="-170.78" font-family="Times,serif" font-size="14.00">1</text>
</g>
<!-- w_040.func_ptr_80170008 -->
<g id="node12" class="node">
<title>w_040.func_ptr_80170008</title>
<g id="a_node12"><a xlink:href="w_040.func_ptr_80170008.svg" xlink:title="w_040.func_ptr_80170008">
<ellipse fill="green" stroke="black" cx="2745.99" cy="-198" rx="133.48" ry="18"/>
<text text-anchor="middle" x="2745.99" y="-194.3" font-family="Times,serif" font-size="14.00">w_040.func_ptr_80170008</text>
</a>
</g>
</g>
<!-- w_040.func_ptr_80170008&#45;&gt;dra.UpdateAnim -->
<g id="edge11" class="edge">
<title>w_040.func_ptr_80170008&#45;&gt;dra.UpdateAnim</title>
<path fill="none" stroke="black" d="M2668.46,-183.25C2480.01,-149.84 1999.9,-64.72 1815.58,-32.05"/>
<polygon fill="black" stroke="black" points="1816.17,-28.6 1805.71,-30.3 1814.95,-35.49 1816.17,-28.6"/>
<text text-anchor="middle" x="2663.46" y="-172.05" font-family="Times,serif" font-size="14.00">1</text>
</g>
<!-- w_041.func_ptr_80170004 -->
<g id="node13" class="node">
<title>w_041.func_ptr_80170004</title>
<g id="a_node13"><a xlink:href="w_041.func_ptr_80170004.svg" xlink:title="w_041.func_ptr_80170004">
<ellipse fill="green" stroke="black" cx="3029.99" cy="-198" rx="133.48" ry="18"/>
<text text-anchor="middle" x="3029.99" y="-194.3" font-family="Times,serif" font-size="14.00">w_041.func_ptr_80170004</text>
</a>
</g>
</g>
<!-- w_041.func_ptr_80170004&#45;&gt;dra.UpdateAnim -->
<g id="edge12" class="edge">
<title>w_041.func_ptr_80170004&#45;&gt;dra.UpdateAnim</title>
<path fill="none" stroke="black" d="M2940.44,-184.62C2701.37,-151.59 2050.8,-61.68 1822.49,-30.13"/>
<polygon fill="black" stroke="black" points="1822.65,-26.61 1812.27,-28.71 1821.69,-33.55 1822.65,-26.61"/>
<text text-anchor="middle" x="2935.44" y="-173.42" font-family="Times,serif" font-size="14.00">1</text>
</g>
<!-- w_042.func_ptr_80170004 -->
<g id="node14" class="node">
<title>w_042.func_ptr_80170004</title>
<g id="a_node14"><a xlink:href="w_042.func_ptr_80170004.svg" xlink:title="w_042.func_ptr_80170004">
<ellipse fill="green" stroke="black" cx="3313.99" cy="-198" rx="133.48" ry="18"/>
<text text-anchor="middle" x="3313.99" y="-194.3" font-family="Times,serif" font-size="14.00">w_042.func_ptr_80170004</text>
</a>
</g>
</g>
<!-- w_042.func_ptr_80170004&#45;&gt;dra.UpdateAnim -->
<g id="edge13" class="edge">
<title>w_042.func_ptr_80170004&#45;&gt;dra.UpdateAnim</title>
<path fill="none" stroke="black" d="M3218.14,-185.43C3202.71,-183.6 3186.91,-181.73 3171.99,-180 2661.74,-120.73 2048.66,-52.81 1827.08,-28.37"/>
<polygon fill="black" stroke="black" points="1827.15,-24.86 1816.83,-27.24 1826.38,-31.81 1827.15,-24.86"/>
<text text-anchor="middle" x="3213.14" y="-174.23" font-family="Times,serif" font-size="14.00">1</text>
</g>
<!-- w_042.func_ptr_80170008 -->
<g id="node15" class="node">
<title>w_042.func_ptr_80170008</title>
<g id="a_node15"><a xlink:href="w_042.func_ptr_80170008.svg" xlink:title="w_042.func_ptr_80170008">
<ellipse fill="green" stroke="black" cx="3597.99" cy="-198" rx="133.48" ry="18"/>
<text text-anchor="middle" x="3597.99" y="-194.3" font-family="Times,serif" font-size="14.00">w_042.func_ptr_80170008</text>
</a>
</g>
</g>
<!-- w_042.func_ptr_80170008&#45;&gt;dra.UpdateAnim -->
<g id="edge14" class="edge">
<title>w_042.func_ptr_80170008&#45;&gt;dra.UpdateAnim</title>
<path fill="none" stroke="black" d="M3503.31,-185.33C3487.52,-183.48 3471.3,-181.63 3455.99,-180 2834.93,-113.67 2085.66,-48.34 1831.37,-26.59"/>
<polygon fill="black" stroke="black" points="1831.34,-23.07 1821.08,-25.71 1830.74,-30.05 1831.34,-23.07"/>
<text text-anchor="middle" x="3498.31" y="-174.13" font-family="Times,serif" font-size="14.00">1</text>
</g>
</g>
</svg>
