<?xml version="1.0" encoding="UTF-8" standalone="no"?>
<!DOCTYPE svg PUBLIC "-//W3C//DTD SVG 1.1//EN"
 "http://www.w3.org/Graphics/SVG/1.1/DTD/svg11.dtd">
<!-- Generated by graphviz version 2.43.0 (0)
 -->
<!-- Title: dra.func_800FE044 Pages: 1 -->
<svg width="6777pt" height="224pt"
 viewBox="0.00 0.00 6777.28 224.00" xmlns="http://www.w3.org/2000/svg" xmlns:xlink="http://www.w3.org/1999/xlink">
<g id="graph0" class="graph" transform="scale(1 1) rotate(0) translate(4 220)">
<title>dra.func_800FE044</title>
<polygon fill="white" stroke="transparent" points="-4,4 -4,-220 6773.28,-220 6773.28,4 -4,4"/>
<!-- dra.func_800FE044 -->
<g id="node1" class="node">
<title>dra.func_800FE044</title>
<ellipse fill="green" stroke="black" cx="3415.29" cy="-18" rx="102.08" ry="18"/>
<text text-anchor="middle" x="3415.29" y="-14.3" font-family="Times,serif" font-size="14.00">dra.func_800FE044</text>
</g>
<!-- cen.CollectHeartVessel -->
<g id="node2" class="node">
<title>cen.CollectHeartVessel</title>
<g id="a_node2"><a xlink:href="cen.CollectHeartVessel.svg" xlink:title="cen.CollectHeartVessel">
<ellipse fill="green" stroke="black" cx="118.29" cy="-198" rx="118.08" ry="18"/>
<text text-anchor="middle" x="118.29" y="-194.3" font-family="Times,serif" font-size="14.00">cen.CollectHeartVessel</text>
</a>
</g>
</g>
<!-- cen.CollectHeartVessel&#45;&gt;dra.func_800FE044 -->
<g id="edge1" class="edge">
<title>cen.CollectHeartVessel&#45;&gt;dra.func_800FE044</title>
<path fill="none" stroke="black" d="M200.5,-184.99C215.38,-183.1 230.78,-181.34 245.29,-180 1440.44,-69.85 2896.53,-30.59 3304.45,-21.33"/>
<polygon fill="black" stroke="black" points="3304.55,-24.83 3314.47,-21.1 3304.39,-17.83 3304.55,-24.83"/>
<text text-anchor="middle" x="195.5" y="-173.79" font-family="Times,serif" font-size="14.00">1</text>
</g>
<!-- cen.CollectLifeVessel -->
<g id="node3" class="node">
<title>cen.CollectLifeVessel</title>
<g id="a_node3"><a xlink:href="cen.CollectLifeVessel.svg" xlink:title="cen.CollectLifeVessel">
<ellipse fill="green" stroke="black" cx="363.29" cy="-198" rx="108.58" ry="18"/>
<text text-anchor="middle" x="363.29" y="-194.3" font-family="Times,serif" font-size="14.00">cen.CollectLifeVessel</text>
</a>
</g>
</g>
<!-- cen.CollectLifeVessel&#45;&gt;dra.func_800FE044 -->
<g id="edge2" class="edge">
<title>cen.CollectLifeVessel&#45;&gt;dra.func_800FE044</title>
<path fill="none" stroke="black" d="M438.69,-185.03C452.5,-183.13 466.81,-181.35 480.29,-180 1578.48,-70.32 2915.85,-31.05 3304.51,-21.5"/>
<polygon fill="black" stroke="black" points="3304.71,-25 3314.62,-21.26 3304.54,-18 3304.71,-25"/>
<text text-anchor="middle" x="433.69" y="-173.83" font-family="Times,serif" font-size="14.00">1</text>
</g>
<!-- cen.EntityRelicOrb -->
<g id="node4" class="node">
<title>cen.EntityRelicOrb</title>
<g id="a_node4"><a xlink:href="cen.EntityRelicOrb.svg" xlink:title="cen.EntityRelicOrb">
<ellipse fill="green" stroke="black" cx="588.29" cy="-198" rx="98.58" ry="18"/>
<text text-anchor="middle" x="588.29" y="-194.3" font-family="Times,serif" font-size="14.00">cen.EntityRelicOrb</text>
</a>
</g>
</g>
<!-- cen.EntityRelicOrb&#45;&gt;dra.func_800FE044 -->
<g id="edge3" class="edge">
<title>cen.EntityRelicOrb&#45;&gt;dra.func_800FE044</title>
<path fill="none" stroke="black" d="M657.29,-185.12C670.22,-183.18 683.65,-181.37 696.29,-180 1705.86,-70.91 2934.89,-31.55 3304.84,-21.7"/>
<polygon fill="black" stroke="black" points="3305.1,-25.19 3315,-21.43 3304.92,-18.19 3305.1,-25.19"/>
<text text-anchor="middle" x="652.29" y="-173.92" font-family="Times,serif" font-size="14.00">1</text>
</g>
<!-- cen.HitDetection -->
<g id="node5" class="node">
<title>cen.HitDetection</title>
<g id="a_node5"><a xlink:href="cen.HitDetection.svg" xlink:title="cen.HitDetection">
<ellipse fill="green" stroke="black" cx="794.29" cy="-198" rx="89.08" ry="18"/>
<text text-anchor="middle" x="794.29" y="-194.3" font-family="Times,serif" font-size="14.00">cen.HitDetection</text>
</a>
</g>
</g>
<!-- cen.HitDetection&#45;&gt;dra.func_800FE044 -->
<g id="edge4" class="edge">
<title>cen.HitDetection&#45;&gt;dra.func_800FE044</title>
<path fill="none" stroke="black" d="M856.88,-185.11C868.61,-183.17 880.8,-181.36 892.29,-180 1821.34,-70.1 2952.36,-31.6 3304.97,-21.79"/>
<polygon fill="black" stroke="black" points="3305.28,-25.28 3315.18,-21.5 3305.08,-18.28 3305.28,-25.28"/>
<text text-anchor="middle" x="851.88" y="-173.91" font-family="Times,serif" font-size="14.00">1</text>
</g>
<!-- dre.CollectHeartVessel -->
<g id="node6" class="node">
<title>dre.CollectHeartVessel</title>
<g id="a_node6"><a xlink:href="dre.CollectHeartVessel.svg" xlink:title="dre.CollectHeartVessel">
<ellipse fill="green" stroke="black" cx="1019.29" cy="-198" rx="117.78" ry="18"/>
<text text-anchor="middle" x="1019.29" y="-194.3" font-family="Times,serif" font-size="14.00">dre.CollectHeartVessel</text>
</a>
</g>
</g>
<!-- dre.CollectHeartVessel&#45;&gt;dra.func_800FE044 -->
<g id="edge5" class="edge">
<title>dre.CollectHeartVessel&#45;&gt;dra.func_800FE044</title>
<path fill="none" stroke="black" d="M1101.89,-185.09C1116.34,-183.23 1131.24,-181.44 1145.29,-180 1975.85,-94.6 2982.06,-40.48 3307.93,-24.19"/>
<polygon fill="black" stroke="black" points="3308.49,-27.67 3318.3,-23.68 3308.14,-20.68 3308.49,-27.67"/>
<text text-anchor="middle" x="1096.89" y="-173.89" font-family="Times,serif" font-size="14.00">1</text>
</g>
<!-- dre.CollectLifeVessel -->
<g id="node7" class="node">
<title>dre.CollectLifeVessel</title>
<g id="a_node7"><a xlink:href="dre.CollectLifeVessel.svg" xlink:title="dre.CollectLifeVessel">
<ellipse fill="green" stroke="black" cx="1263.29" cy="-198" rx="108.58" ry="18"/>
<text text-anchor="middle" x="1263.29" y="-194.3" font-family="Times,serif" font-size="14.00">dre.CollectLifeVessel</text>
</a>
</g>
</g>
<!-- dre.CollectLifeVessel&#45;&gt;dra.func_800FE044 -->
<g id="edge6" class="edge">
<title>dre.CollectLifeVessel&#45;&gt;dra.func_800FE044</title>
<path fill="none" stroke="black" d="M1339.66,-185.17C1353.18,-183.29 1367.13,-181.47 1380.29,-180 2116.82,-97.45 3008,-42.33 3309.67,-24.91"/>
<polygon fill="black" stroke="black" points="3309.94,-28.4 3319.72,-24.33 3309.54,-21.42 3309.94,-28.4"/>
<text text-anchor="middle" x="1334.66" y="-173.97" font-family="Times,serif" font-size="14.00">1</text>
</g>
<!-- dre.EntityRelicOrb -->
<g id="node8" class="node">
<title>dre.EntityRelicOrb</title>
<g id="a_node8"><a xlink:href="dre.EntityRelicOrb.svg" xlink:title="dre.EntityRelicOrb">
<ellipse fill="green" stroke="black" cx="1488.29" cy="-198" rx="98.58" ry="18"/>
<text text-anchor="middle" x="1488.29" y="-194.3" font-family="Times,serif" font-size="14.00">dre.EntityRelicOrb</text>
</a>
</g>
</g>
<!-- dre.EntityRelicOrb&#45;&gt;dra.func_800FE044 -->
<g id="edge7" class="edge">
<title>dre.EntityRelicOrb&#45;&gt;dra.func_800FE044</title>
<path fill="none" stroke="black" d="M1558.49,-185.24C1571.05,-183.34 1584.04,-181.5 1596.29,-180 2246.7,-100.12 3032.63,-44.27 3311.24,-25.73"/>
<polygon fill="black" stroke="black" points="3311.59,-29.21 3321.34,-25.06 3311.13,-22.23 3311.59,-29.21"/>
<text text-anchor="middle" x="1553.49" y="-174.04" font-family="Times,serif" font-size="14.00">1</text>
</g>
<!-- dre.HitDetection -->
<g id="node9" class="node">
<title>dre.HitDetection</title>
<g id="a_node9"><a xlink:href="dre.HitDetection.svg" xlink:title="dre.HitDetection">
<ellipse fill="green" stroke="black" cx="1694.29" cy="-198" rx="89.08" ry="18"/>
<text text-anchor="middle" x="1694.29" y="-194.3" font-family="Times,serif" font-size="14.00">dre.HitDetection</text>
</a>
</g>
</g>
<!-- dre.HitDetection&#45;&gt;dra.func_800FE044 -->
<g id="edge8" class="edge">
<title>dre.HitDetection&#45;&gt;dra.func_800FE044</title>
<path fill="none" stroke="black" d="M1757.71,-185.3C1769.19,-183.38 1781.08,-181.53 1792.29,-180 2365.06,-102.02 3056.43,-46.03 3313,-26.54"/>
<polygon fill="black" stroke="black" points="3313.35,-30.03 3323.05,-25.78 3312.82,-23.05 3313.35,-30.03"/>
<text text-anchor="middle" x="1752.71" y="-174.1" font-family="Times,serif" font-size="14.00">1</text>
</g>
<!-- mar.CollectHeartVessel -->
<g id="node10" class="node">
<title>mar.CollectHeartVessel</title>
<g id="a_node10"><a xlink:href="mar.CollectHeartVessel.svg" xlink:title="mar.CollectHeartVessel">
<ellipse fill="green" stroke="black" cx="1921.29" cy="-198" rx="119.68" ry="18"/>
<text text-anchor="middle" x="1921.29" y="-194.3" font-family="Times,serif" font-size="14.00">mar.CollectHeartVessel</text>
</a>
</g>
</g>
<!-- mar.CollectHeartVessel&#45;&gt;dra.func_800FE044 -->
<g id="edge9" class="edge">
<title>mar.CollectHeartVessel&#45;&gt;dra.func_800FE044</title>
<path fill="none" stroke="black" d="M2007.66,-185.45C2021.9,-183.6 2036.5,-181.72 2050.29,-180 2528.06,-120.35 3100.67,-54.71 3321.81,-29.58"/>
<polygon fill="black" stroke="black" points="3322.21,-33.06 3331.76,-28.45 3321.42,-26.1 3322.21,-33.06"/>
<text text-anchor="middle" x="2002.66" y="-174.25" font-family="Times,serif" font-size="14.00">1</text>
</g>
<!-- mar.CollectLifeVessel -->
<g id="node11" class="node">
<title>mar.CollectLifeVessel</title>
<g id="a_node11"><a xlink:href="mar.CollectLifeVessel.svg" xlink:title="mar.CollectLifeVessel">
<ellipse fill="green" stroke="black" cx="2169.29" cy="-198" rx="110.48" ry="18"/>
<text text-anchor="middle" x="2169.29" y="-194.3" font-family="Times,serif" font-size="14.00">mar.CollectLifeVessel</text>
</a>
</g>
</g>
<!-- mar.CollectLifeVessel&#45;&gt;dra.func_800FE044 -->
<g id="edge10" class="edge">
<title>mar.CollectLifeVessel&#45;&gt;dra.func_800FE044</title>
<path fill="none" stroke="black" d="M2249.6,-185.53C2472.6,-153.67 3098.08,-64.32 3328.58,-31.39"/>
<polygon fill="black" stroke="black" points="3329.19,-34.84 3338.59,-29.96 3328.2,-27.91 3329.19,-34.84"/>
<text text-anchor="middle" x="2244.6" y="-174.33" font-family="Times,serif" font-size="14.00">1</text>
</g>
<!-- mar.EntityRelicOrb -->
<g id="node12" class="node">
<title>mar.EntityRelicOrb</title>
<g id="a_node12"><a xlink:href="mar.EntityRelicOrb.svg" xlink:title="mar.EntityRelicOrb">
<ellipse fill="green" stroke="black" cx="2398.29" cy="-198" rx="100.98" ry="18"/>
<text text-anchor="middle" x="2398.29" y="-194.3" font-family="Times,serif" font-size="14.00">mar.EntityRelicOrb</text>
</a>
</g>
</g>
<!-- mar.EntityRelicOrb&#45;&gt;dra.func_800FE044 -->
<g id="edge11" class="edge">
<title>mar.EntityRelicOrb&#45;&gt;dra.func_800FE044</title>
<path fill="none" stroke="black" d="M2467.79,-184.84C2650.19,-152.91 3141.81,-66.87 3335.39,-32.98"/>
<polygon fill="black" stroke="black" points="3336.25,-36.39 3345.5,-31.22 3335.04,-29.49 3336.25,-36.39"/>
<text text-anchor="middle" x="2462.79" y="-173.64" font-family="Times,serif" font-size="14.00">1</text>
</g>
<!-- mar.HitDetection -->
<g id="node13" class="node">
<title>mar.HitDetection</title>
<g id="a_node13"><a xlink:href="mar.HitDetection.svg" xlink:title="mar.HitDetection">
<ellipse fill="green" stroke="black" cx="2608.29" cy="-198" rx="90.98" ry="18"/>
<text text-anchor="middle" x="2608.29" y="-194.3" font-family="Times,serif" font-size="14.00">mar.HitDetection</text>
</a>
</g>
</g>
<!-- mar.HitDetection&#45;&gt;dra.func_800FE044 -->
<g id="edge12" class="edge">
<title>mar.HitDetection&#45;&gt;dra.func_800FE044</title>
<path fill="none" stroke="black" d="M2666.65,-184.13C2811.46,-152.19 3186.88,-69.38 3344.24,-34.67"/>
<polygon fill="black" stroke="black" points="3345.28,-38.03 3354.29,-32.45 3343.77,-31.19 3345.28,-38.03"/>
<text text-anchor="middle" x="2661.65" y="-172.93" font-family="Times,serif" font-size="14.00">1</text>
</g>
<!-- no3.CollectHeartVessel -->
<g id="node14" class="node">
<title>no3.CollectHeartVessel</title>
<g id="a_node14"><a xlink:href="no3.CollectHeartVessel.svg" xlink:title="no3.CollectHeartVessel">
<ellipse fill="green" stroke="black" cx="2836.29" cy="-198" rx="118.88" ry="18"/>
<text text-anchor="middle" x="2836.29" y="-194.3" font-family="Times,serif" font-size="14.00">no3.CollectHeartVessel</text>
</a>
</g>
</g>
<!-- no3.CollectHeartVessel&#45;&gt;dra.func_800FE044 -->
<g id="edge13" class="edge">
<title>no3.CollectHeartVessel&#45;&gt;dra.func_800FE044</title>
<path fill="none" stroke="black" d="M2886.41,-181.59C2993.32,-148.73 3243.25,-71.89 3357.03,-36.91"/>
<polygon fill="black" stroke="black" points="3358.09,-40.25 3366.62,-33.96 3356.03,-33.56 3358.09,-40.25"/>
<text text-anchor="middle" x="2881.41" y="-170.39" font-family="Times,serif" font-size="14.00">1</text>
</g>
<!-- no3.CollectLifeVessel -->
<g id="node15" class="node">
<title>no3.CollectLifeVessel</title>
<g id="a_node15"><a xlink:href="no3.CollectLifeVessel.svg" xlink:title="no3.CollectLifeVessel">
<ellipse fill="green" stroke="black" cx="3083.29" cy="-198" rx="109.68" ry="18"/>
<text text-anchor="middle" x="3083.29" y="-194.3" font-family="Times,serif" font-size="14.00">no3.CollectLifeVessel</text>
</a>
</g>
</g>
<!-- no3.CollectLifeVessel&#45;&gt;dra.func_800FE044 -->
<g id="edge14" class="edge">
<title>no3.CollectLifeVessel&#45;&gt;dra.func_800FE044</title>
<path fill="none" stroke="black" d="M3113.93,-180.57C3174.33,-148.19 3308.73,-76.13 3375.73,-40.21"/>
<polygon fill="black" stroke="black" points="3377.57,-43.2 3384.72,-35.39 3374.26,-37.03 3377.57,-43.2"/>
<text text-anchor="middle" x="3108.93" y="-169.37" font-family="Times,serif" font-size="14.00">1</text>
</g>
<!-- no3.EntityRelicOrb -->
<g id="node16" class="node">
<title>no3.EntityRelicOrb</title>
<g id="a_node16"><a xlink:href="no3.EntityRelicOrb.svg" xlink:title="no3.EntityRelicOrb">
<ellipse fill="green" stroke="black" cx="3311.29" cy="-198" rx="100.18" ry="18"/>
<text text-anchor="middle" x="3311.29" y="-194.3" font-family="Times,serif" font-size="14.00">no3.EntityRelicOrb</text>
</a>
</g>
</g>
<!-- no3.EntityRelicOrb&#45;&gt;dra.func_800FE044 -->
<g id="edge15" class="edge">
<title>no3.EntityRelicOrb&#45;&gt;dra.func_800FE044</title>
<path fill="none" stroke="black" d="M3321.26,-179.93C3339.59,-148.57 3378.71,-81.6 3400.27,-44.71"/>
<polygon fill="black" stroke="black" points="3403.32,-46.42 3405.35,-36.02 3397.28,-42.88 3403.32,-46.42"/>
<text text-anchor="middle" x="3316.26" y="-168.73" font-family="Times,serif" font-size="14.00">1</text>
</g>
<!-- no3.HitDetection -->
<g id="node17" class="node">
<title>no3.HitDetection</title>
<g id="a_node17"><a xlink:href="no3.HitDetection.svg" xlink:title="no3.HitDetection">
<ellipse fill="green" stroke="black" cx="3519.29" cy="-198" rx="90.18" ry="18"/>
<text text-anchor="middle" x="3519.29" y="-194.3" font-family="Times,serif" font-size="14.00">no3.HitDetection</text>
</a>
</g>
</g>
<!-- no3.HitDetection&#45;&gt;dra.func_800FE044 -->
<g id="edge16" class="edge">
<title>no3.HitDetection&#45;&gt;dra.func_800FE044</title>
<path fill="none" stroke="black" d="M3509.32,-179.93C3490.99,-148.57 3451.87,-81.6 3430.31,-44.71"/>
<polygon fill="black" stroke="black" points="3433.3,-42.88 3425.23,-36.02 3427.25,-46.42 3433.3,-42.88"/>
<text text-anchor="middle" x="3504.32" y="-168.73" font-family="Times,serif" font-size="14.00">1</text>
</g>
<!-- np3.CollectHeartVessel -->
<g id="node18" class="node">
<title>np3.CollectHeartVessel</title>
<g id="a_node18"><a xlink:href="np3.CollectHeartVessel.svg" xlink:title="np3.CollectHeartVessel">
<ellipse fill="green" stroke="black" cx="3747.29" cy="-198" rx="119.68" ry="18"/>
<text text-anchor="middle" x="3747.29" y="-194.3" font-family="Times,serif" font-size="14.00">np3.CollectHeartVessel</text>
</a>
</g>
</g>
<!-- np3.CollectHeartVessel&#45;&gt;dra.func_800FE044 -->
<g id="edge17" class="edge">
<title>np3.CollectHeartVessel&#45;&gt;dra.func_800FE044</title>
<path fill="none" stroke="black" d="M3716.65,-180.57C3656.24,-148.19 3521.84,-76.13 3454.85,-40.21"/>
<polygon fill="black" stroke="black" points="3456.32,-37.03 3445.85,-35.39 3453.01,-43.2 3456.32,-37.03"/>
<text text-anchor="middle" x="3711.65" y="-169.37" font-family="Times,serif" font-size="14.00">1</text>
</g>
<!-- np3.CollectLifeVessel -->
<g id="node19" class="node">
<title>np3.CollectLifeVessel</title>
<g id="a_node19"><a xlink:href="np3.CollectLifeVessel.svg" xlink:title="np3.CollectLifeVessel">
<ellipse fill="green" stroke="black" cx="3995.29" cy="-198" rx="110.48" ry="18"/>
<text text-anchor="middle" x="3995.29" y="-194.3" font-family="Times,serif" font-size="14.00">np3.CollectLifeVessel</text>
</a>
</g>
</g>
<!-- np3.CollectLifeVessel&#45;&gt;dra.func_800FE044 -->
<g id="edge18" class="edge">
<title>np3.CollectLifeVessel&#45;&gt;dra.func_800FE044</title>
<path fill="none" stroke="black" d="M3945.84,-181.82C3839.1,-149.07 3587.55,-71.87 3473.42,-36.84"/>
<polygon fill="black" stroke="black" points="3474.38,-33.47 3463.8,-33.89 3472.33,-40.17 3474.38,-33.47"/>
<text text-anchor="middle" x="3940.84" y="-170.62" font-family="Times,serif" font-size="14.00">1</text>
</g>
<!-- np3.EntityRelicOrb -->
<g id="node20" class="node">
<title>np3.EntityRelicOrb</title>
<g id="a_node20"><a xlink:href="np3.EntityRelicOrb.svg" xlink:title="np3.EntityRelicOrb">
<ellipse fill="green" stroke="black" cx="4224.29" cy="-198" rx="100.98" ry="18"/>
<text text-anchor="middle" x="4224.29" y="-194.3" font-family="Times,serif" font-size="14.00">np3.EntityRelicOrb</text>
</a>
</g>
</g>
<!-- np3.EntityRelicOrb&#45;&gt;dra.func_800FE044 -->
<g id="edge19" class="edge">
<title>np3.EntityRelicOrb&#45;&gt;dra.func_800FE044</title>
<path fill="none" stroke="black" d="M4163.48,-183.62C4016.69,-151.32 3643.49,-69.21 3486.55,-34.68"/>
<polygon fill="black" stroke="black" points="3487.04,-31.2 3476.52,-32.47 3485.54,-38.04 3487.04,-31.2"/>
<text text-anchor="middle" x="4158.48" y="-172.42" font-family="Times,serif" font-size="14.00">1</text>
</g>
<!-- np3.HitDetection -->
<g id="node21" class="node">
<title>np3.HitDetection</title>
<g id="a_node21"><a xlink:href="np3.HitDetection.svg" xlink:title="np3.HitDetection">
<ellipse fill="green" stroke="black" cx="4434.29" cy="-198" rx="90.98" ry="18"/>
<text text-anchor="middle" x="4434.29" y="-194.3" font-family="Times,serif" font-size="14.00">np3.HitDetection</text>
</a>
</g>
</g>
<!-- np3.HitDetection&#45;&gt;dra.func_800FE044 -->
<g id="edge20" class="edge">
<title>np3.HitDetection&#45;&gt;dra.func_800FE044</title>
<path fill="none" stroke="black" d="M4368.61,-185.53C4188.96,-154.15 3689.91,-66.97 3494.86,-32.9"/>
<polygon fill="black" stroke="black" points="3495.42,-29.44 3484.97,-31.17 3494.22,-36.34 3495.42,-29.44"/>
<text text-anchor="middle" x="4363.61" y="-174.33" font-family="Times,serif" font-size="14.00">1</text>
</g>
<!-- nz0.CollectHeartVessel -->
<g id="node22" class="node">
<title>nz0.CollectHeartVessel</title>
<g id="a_node22"><a xlink:href="nz0.CollectHeartVessel.svg" xlink:title="nz0.CollectHeartVessel">
<ellipse fill="green" stroke="black" cx="4661.29" cy="-198" rx="118.08" ry="18"/>
<text text-anchor="middle" x="4661.29" y="-194.3" font-family="Times,serif" font-size="14.00">nz0.CollectHeartVessel</text>
</a>
</g>
</g>
<!-- nz0.CollectHeartVessel&#45;&gt;dra.func_800FE044 -->
<g id="edge21" class="edge">
<title>nz0.CollectHeartVessel&#45;&gt;dra.func_800FE044</title>
<path fill="none" stroke="black" d="M4578.09,-185.11C4352.58,-152.9 3731.23,-64.13 3501.85,-31.37"/>
<polygon fill="black" stroke="black" points="3502.27,-27.89 3491.88,-29.94 3501.28,-34.82 3502.27,-27.89"/>
<text text-anchor="middle" x="4573.09" y="-173.91" font-family="Times,serif" font-size="14.00">1</text>
</g>
<!-- nz0.CollectLifeVessel -->
<g id="node23" class="node">
<title>nz0.CollectLifeVessel</title>
<g id="a_node23"><a xlink:href="nz0.CollectLifeVessel.svg" xlink:title="nz0.CollectLifeVessel">
<ellipse fill="green" stroke="black" cx="4906.29" cy="-198" rx="109.38" ry="18"/>
<text text-anchor="middle" x="4906.29" y="-194.3" font-family="Times,serif" font-size="14.00">nz0.CollectLifeVessel</text>
</a>
</g>
</g>
<!-- nz0.CollectLifeVessel&#45;&gt;dra.func_800FE044 -->
<g id="edge22" class="edge">
<title>nz0.CollectLifeVessel&#45;&gt;dra.func_800FE044</title>
<path fill="none" stroke="black" d="M4827.94,-185.42C4814.71,-183.55 4801.12,-181.68 4788.29,-180 4308.4,-117.31 3732.62,-53.48 3509.78,-29.21"/>
<polygon fill="black" stroke="black" points="3510.07,-25.72 3499.75,-28.12 3509.32,-32.68 3510.07,-25.72"/>
<text text-anchor="middle" x="4822.94" y="-174.22" font-family="Times,serif" font-size="14.00">1</text>
</g>
<!-- nz0.EntityRelicOrb -->
<g id="node24" class="node">
<title>nz0.EntityRelicOrb</title>
<g id="a_node24"><a xlink:href="nz0.EntityRelicOrb.svg" xlink:title="nz0.EntityRelicOrb">
<ellipse fill="green" stroke="black" cx="5133.29" cy="-198" rx="99.38" ry="18"/>
<text text-anchor="middle" x="5133.29" y="-194.3" font-family="Times,serif" font-size="14.00">nz0.EntityRelicOrb</text>
</a>
</g>
</g>
<!-- nz0.EntityRelicOrb&#45;&gt;dra.func_800FE044 -->
<g id="edge23" class="edge">
<title>nz0.EntityRelicOrb&#45;&gt;dra.func_800FE044</title>
<path fill="none" stroke="black" d="M5062.42,-185.37C5049.74,-183.45 5036.64,-181.58 5024.29,-180 4455.75,-107.27 3770.64,-48.15 3516.53,-27.18"/>
<polygon fill="black" stroke="black" points="3516.47,-23.67 3506.21,-26.33 3515.89,-30.64 3516.47,-23.67"/>
<text text-anchor="middle" x="5057.42" y="-174.17" font-family="Times,serif" font-size="14.00">1</text>
</g>
<!-- nz0.HitDetection -->
<g id="node25" class="node">
<title>nz0.HitDetection</title>
<g id="a_node25"><a xlink:href="nz0.HitDetection.svg" xlink:title="nz0.HitDetection">
<ellipse fill="green" stroke="black" cx="5340.29" cy="-198" rx="89.88" ry="18"/>
<text text-anchor="middle" x="5340.29" y="-194.3" font-family="Times,serif" font-size="14.00">nz0.HitDetection</text>
</a>
</g>
</g>
<!-- nz0.HitDetection&#45;&gt;dra.func_800FE044 -->
<g id="edge24" class="edge">
<title>nz0.HitDetection&#45;&gt;dra.func_800FE044</title>
<path fill="none" stroke="black" d="M5276.5,-185.25C5264.81,-183.33 5252.7,-181.48 5241.29,-180 4589.74,-95.48 3801.53,-42.57 3520.81,-25.26"/>
<polygon fill="black" stroke="black" points="3520.83,-21.76 3510.64,-24.64 3520.4,-28.74 3520.83,-21.76"/>
<text text-anchor="middle" x="5271.5" y="-174.05" font-family="Times,serif" font-size="14.00">1</text>
</g>
<!-- rwrp.EntityRelicOrb -->
<g id="node26" class="node">
<title>rwrp.EntityRelicOrb</title>
<g id="a_node26"><a xlink:href="rwrp.EntityRelicOrb.svg" xlink:title="rwrp.EntityRelicOrb">
<ellipse fill="green" stroke="black" cx="5553.29" cy="-198" rx="105.08" ry="18"/>
<text text-anchor="middle" x="5553.29" y="-194.3" font-family="Times,serif" font-size="14.00">rwrp.EntityRelicOrb</text>
</a>
</g>
</g>
<!-- rwrp.EntityRelicOrb&#45;&gt;dra.func_800FE044 -->
<g id="edge25" class="edge">
<title>rwrp.EntityRelicOrb&#45;&gt;dra.func_800FE044</title>
<path fill="none" stroke="black" d="M5479.19,-185.2C5465.92,-183.3 5452.21,-181.48 5439.29,-180 4707.54,-96.44 3822,-42.03 3521.15,-24.85"/>
<polygon fill="black" stroke="black" points="3521.31,-21.35 3511.13,-24.28 3520.91,-28.34 3521.31,-21.35"/>
<text text-anchor="middle" x="5474.19" y="-174" font-family="Times,serif" font-size="14.00">1</text>
</g>
<!-- st0.HitDetection -->
<g id="node27" class="node">
<title>st0.HitDetection</title>
<g id="a_node27"><a xlink:href="st0.HitDetection.svg" xlink:title="st0.HitDetection">
<ellipse fill="green" stroke="black" cx="5764.29" cy="-198" rx="87.99" ry="18"/>
<text text-anchor="middle" x="5764.29" y="-194.3" font-family="Times,serif" font-size="14.00">st0.HitDetection</text>
</a>
</g>
</g>
<!-- st0.HitDetection&#45;&gt;dra.func_800FE044 -->
<g id="edge26" class="edge">
<title>st0.HitDetection&#45;&gt;dra.func_800FE044</title>
<path fill="none" stroke="black" d="M5702.33,-185.17C5690.72,-183.23 5678.66,-181.4 5667.29,-180 4847.54,-79.13 3851.56,-35.24 3524.82,-22.86"/>
<polygon fill="black" stroke="black" points="3524.54,-19.35 3514.42,-22.47 3524.28,-26.34 3524.54,-19.35"/>
<text text-anchor="middle" x="5697.33" y="-173.97" font-family="Times,serif" font-size="14.00">1</text>
</g>
<!-- wrp.CollectHeartVessel -->
<g id="node28" class="node">
<title>wrp.CollectHeartVessel</title>
<g id="a_node28"><a xlink:href="wrp.CollectHeartVessel.svg" xlink:title="wrp.CollectHeartVessel">
<ellipse fill="green" stroke="black" cx="5990.29" cy="-198" rx="120.48" ry="18"/>
<text text-anchor="middle" x="5990.29" y="-194.3" font-family="Times,serif" font-size="14.00">wrp.CollectHeartVessel</text>
</a>
</g>
</g>
<!-- wrp.CollectHeartVessel&#45;&gt;dra.func_800FE044 -->
<g id="edge27" class="edge">
<title>wrp.CollectHeartVessel&#45;&gt;dra.func_800FE044</title>
<path fill="none" stroke="black" d="M5906.07,-185.1C5891.17,-183.22 5875.79,-181.43 5861.29,-180 4959.85,-91.03 3866.5,-38.71 3523.52,-23.6"/>
<polygon fill="black" stroke="black" points="3523.49,-20.09 3513.35,-23.15 3523.18,-27.09 3523.49,-20.09"/>
<text text-anchor="middle" x="5901.07" y="-173.9" font-family="Times,serif" font-size="14.00">1</text>
</g>
<!-- wrp.CollectLifeVessel -->
<g id="node29" class="node">
<title>wrp.CollectLifeVessel</title>
<g id="a_node29"><a xlink:href="wrp.CollectLifeVessel.svg" xlink:title="wrp.CollectLifeVessel">
<ellipse fill="green" stroke="black" cx="6239.29" cy="-198" rx="110.48" ry="18"/>
<text text-anchor="middle" x="6239.29" y="-194.3" font-family="Times,serif" font-size="14.00">wrp.CollectLifeVessel</text>
</a>
</g>
</g>
<!-- wrp.CollectLifeVessel&#45;&gt;dra.func_800FE044 -->
<g id="edge28" class="edge">
<title>wrp.CollectLifeVessel&#45;&gt;dra.func_800FE044</title>
<path fill="none" stroke="black" d="M6161.94,-185.1C6147.78,-183.19 6133.11,-181.39 6119.29,-180 5114.48,-79.08 3892.78,-34.18 3525.07,-22.33"/>
<polygon fill="black" stroke="black" points="3525.07,-18.83 3514.96,-22.01 3524.85,-25.83 3525.07,-18.83"/>
<text text-anchor="middle" x="6156.94" y="-173.9" font-family="Times,serif" font-size="14.00">1</text>
</g>
<!-- wrp.EntityRelicOrb -->
<g id="node30" class="node">
<title>wrp.EntityRelicOrb</title>
<g id="a_node30"><a xlink:href="wrp.EntityRelicOrb.svg" xlink:title="wrp.EntityRelicOrb">
<ellipse fill="green" stroke="black" cx="6468.29" cy="-198" rx="100.98" ry="18"/>
<text text-anchor="middle" x="6468.29" y="-194.3" font-family="Times,serif" font-size="14.00">wrp.EntityRelicOrb</text>
</a>
</g>
</g>
<!-- wrp.EntityRelicOrb&#45;&gt;dra.func_800FE044 -->
<g id="edge29" class="edge">
<title>wrp.EntityRelicOrb&#45;&gt;dra.func_800FE044</title>
<path fill="none" stroke="black" d="M6398.01,-185.08C6384.84,-183.15 6371.17,-181.34 6358.29,-180 5257.61,-65.12 3916.25,-29.44 3526.41,-21.13"/>
<polygon fill="black" stroke="black" points="3526.34,-17.63 3516.26,-20.91 3526.19,-24.63 3526.34,-17.63"/>
<text text-anchor="middle" x="6393.01" y="-173.88" font-family="Times,serif" font-size="14.00">1</text>
</g>
<!-- wrp.HitDetection -->
<g id="node31" class="node">
<title>wrp.HitDetection</title>
<g id="a_node31"><a xlink:href="wrp.HitDetection.svg" xlink:title="wrp.HitDetection">
<ellipse fill="green" stroke="black" cx="6678.29" cy="-198" rx="90.98" ry="18"/>
<text text-anchor="middle" x="6678.29" y="-194.3" font-family="Times,serif" font-size="14.00">wrp.HitDetection</text>
</a>
</g>
</g>
<!-- wrp.HitDetection&#45;&gt;dra.func_800FE044 -->
<g id="edge30" class="edge">
<title>wrp.HitDetection&#45;&gt;dra.func_800FE044</title>
<path fill="none" stroke="black" d="M6614.7,-185.04C6602.64,-183.1 6590.11,-181.3 6578.29,-180 5388.93,-49.09 3936.03,-24.4 3527.08,-19.94"/>
<polygon fill="black" stroke="black" points="3527.06,-16.44 3517.03,-19.84 3526.99,-23.44 3527.06,-16.44"/>
<text text-anchor="middle" x="6609.7" y="-173.84" font-family="Times,serif" font-size="14.00">1</text>
</g>
</g>
</svg>
