<?xml version="1.0" encoding="UTF-8" standalone="no"?>
<!DOCTYPE svg PUBLIC "-//W3C//DTD SVG 1.1//EN"
 "http://www.w3.org/Graphics/SVG/1.1/DTD/svg11.dtd">
<!-- Generated by graphviz version 2.43.0 (0)
 -->
<!-- Title: dra.func_8010C36C Pages: 1 -->
<svg width="213pt" height="404pt"
 viewBox="0.00 0.00 213.38 404.00" xmlns="http://www.w3.org/2000/svg" xmlns:xlink="http://www.w3.org/1999/xlink">
<g id="graph0" class="graph" transform="scale(1 1) rotate(0) translate(4 400)">
<title>dra.func_8010C36C</title>
<polygon fill="white" stroke="transparent" points="-4,4 -4,-400 209.38,-400 209.38,4 -4,4"/>
<!-- dra.func_8010C36C -->
<g id="node1" class="node">
<title>dra.func_8010C36C</title>
<ellipse fill="red" stroke="black" cx="102.69" cy="-198" rx="102.88" ry="18"/>
<text text-anchor="middle" x="102.69" y="-194.3" font-family="Times,serif" font-size="14.00">dra.func_8010C36C</text>
</g>
<!-- dra.CheckCollision -->
<g id="node2" class="node">
<title>dra.CheckCollision</title>
<g id="a_node2"><a xlink:href="dra.CheckCollision.svg" xlink:title="dra.CheckCollision">
<ellipse fill="green" stroke="black" cx="102.69" cy="-18" rx="97.48" ry="18"/>
<text text-anchor="middle" x="102.69" y="-14.3" font-family="Times,serif" font-size="14.00">dra.CheckCollision</text>
</a>
</g>
</g>
<!-- dra.func_8010C36C&#45;&gt;dra.CheckCollision -->
<g id="edge1" class="edge">
<title>dra.func_8010C36C&#45;&gt;dra.CheckCollision</title>
<path fill="none" stroke="black" d="M102.69,-179.93C102.69,-148.97 102.69,-83.3 102.69,-46.13"/>
<polygon fill="black" stroke="black" points="106.19,-46.02 102.69,-36.02 99.19,-46.02 106.19,-46.02"/>
<text text-anchor="middle" x="97.69" y="-39.82" font-family="Times,serif" font-size="14.00">4</text>
</g>
<!-- dra.func_80109A44 -->
<g id="node3" class="node">
<title>dra.func_80109A44</title>
<g id="a_node3"><a xlink:href="dra.func_80109A44.svg" xlink:title="dra.func_80109A44">
<ellipse fill="red" stroke="black" cx="102.69" cy="-378" rx="100.98" ry="18"/>
<text text-anchor="middle" x="102.69" y="-374.3" font-family="Times,serif" font-size="14.00">dra.func_80109A44</text>
</a>
</g>
</g>
<!-- dra.func_80109A44&#45;&gt;dra.func_8010C36C -->
<g id="edge2" class="edge">
<title>dra.func_80109A44&#45;&gt;dra.func_8010C36C</title>
<path fill="none" stroke="black" d="M102.69,-359.93C102.69,-328.97 102.69,-263.3 102.69,-226.13"/>
<polygon fill="black" stroke="black" points="106.19,-226.02 102.69,-216.02 99.19,-226.02 106.19,-226.02"/>
<text text-anchor="middle" x="97.69" y="-348.73" font-family="Times,serif" font-size="14.00">1</text>
</g>
</g>
</svg>
