<?xml version="1.0" encoding="UTF-8" standalone="no"?>
<!DOCTYPE svg PUBLIC "-//W3C//DTD SVG 1.1//EN"
 "http://www.w3.org/Graphics/SVG/1.1/DTD/svg11.dtd">
<!-- Generated by graphviz version 2.43.0 (0)
 -->
<!-- Title: dra.func_801025F4 Pages: 1 -->
<svg width="632pt" height="224pt"
 viewBox="0.00 0.00 631.78 224.00" xmlns="http://www.w3.org/2000/svg" xmlns:xlink="http://www.w3.org/1999/xlink">
<g id="graph0" class="graph" transform="scale(1 1) rotate(0) translate(4 220)">
<title>dra.func_801025F4</title>
<polygon fill="white" stroke="transparent" points="-4,4 -4,-220 627.78,-220 627.78,4 -4,4"/>
<!-- dra.func_801025F4 -->
<g id="node1" class="node">
<title>dra.func_801025F4</title>
<ellipse fill="green" stroke="black" cx="300.04" cy="-18" rx="100.98" ry="18"/>
<text text-anchor="middle" x="300.04" y="-14.3" font-family="Times,serif" font-size="14.00">dra.func_801025F4</text>
</g>
<!-- dra.MenuHandle -->
<g id="node2" class="node">
<title>dra.MenuHandle</title>
<g id="a_node2"><a xlink:href="dra.MenuHandle.svg" xlink:title="dra.MenuHandle">
<ellipse fill="green" stroke="black" cx="89.04" cy="-198" rx="89.08" ry="18"/>
<text text-anchor="middle" x="89.04" y="-194.3" font-family="Times,serif" font-size="14.00">dra.MenuHandle</text>
</a>
</g>
</g>
<!-- dra.MenuHandle&#45;&gt;dra.func_801025F4 -->
<g id="edge1" class="edge">
<title>dra.MenuHandle&#45;&gt;dra.func_801025F4</title>
<path fill="none" stroke="black" d="M108.89,-180.25C146.67,-148.38 229,-78.94 272.24,-42.45"/>
<polygon fill="black" stroke="black" points="274.7,-44.95 280.09,-35.83 270.19,-39.6 274.7,-44.95"/>
<text text-anchor="middle" x="103.89" y="-169.05" font-family="Times,serif" font-size="14.00">5</text>
</g>
<!-- dra.RunMainEngine -->
<g id="node3" class="node">
<title>dra.RunMainEngine</title>
<g id="a_node3"><a xlink:href="dra.RunMainEngine.svg" xlink:title="dra.RunMainEngine">
<ellipse fill="green" stroke="black" cx="300.04" cy="-198" rx="103.98" ry="18"/>
<text text-anchor="middle" x="300.04" y="-194.3" font-family="Times,serif" font-size="14.00">dra.RunMainEngine</text>
</a>
</g>
</g>
<!-- dra.RunMainEngine&#45;&gt;dra.func_801025F4 -->
<g id="edge2" class="edge">
<title>dra.RunMainEngine&#45;&gt;dra.func_801025F4</title>
<path fill="none" stroke="black" d="M300.04,-179.93C300.04,-148.97 300.04,-83.3 300.04,-46.13"/>
<polygon fill="black" stroke="black" points="303.54,-46.02 300.04,-36.02 296.54,-46.02 303.54,-46.02"/>
<text text-anchor="middle" x="295.04" y="-168.73" font-family="Times,serif" font-size="14.00">3</text>
</g>
<!-- dra.func_80105428 -->
<g id="node4" class="node">
<title>dra.func_80105428</title>
<g id="a_node4"><a xlink:href="dra.func_80105428.svg" xlink:title="dra.func_80105428">
<ellipse fill="green" stroke="black" cx="523.04" cy="-198" rx="100.98" ry="18"/>
<text text-anchor="middle" x="523.04" y="-194.3" font-family="Times,serif" font-size="14.00">dra.func_80105428</text>
</a>
</g>
</g>
<!-- dra.func_80105428&#45;&gt;dra.func_801025F4 -->
<g id="edge3" class="edge">
<title>dra.func_80105428&#45;&gt;dra.func_801025F4</title>
<path fill="none" stroke="black" d="M502.06,-180.25C462.05,-148.32 374.77,-78.65 329.14,-42.23"/>
<polygon fill="black" stroke="black" points="331.13,-39.33 321.13,-35.83 326.76,-44.8 331.13,-39.33"/>
<text text-anchor="middle" x="497.06" y="-169.05" font-family="Times,serif" font-size="14.00">1</text>
</g>
</g>
</svg>
