<?xml version="1.0" encoding="UTF-8" standalone="no"?>
<!DOCTYPE svg PUBLIC "-//W3C//DTD SVG 1.1//EN"
 "http://www.w3.org/Graphics/SVG/1.1/DTD/svg11.dtd">
<!-- Generated by graphviz version 2.43.0 (0)
 -->
<!-- Title: dra.HandleNowLoading Pages: 1 -->
<svg width="2879pt" height="404pt"
 viewBox="0.00 0.00 2879.23 404.00" xmlns="http://www.w3.org/2000/svg" xmlns:xlink="http://www.w3.org/1999/xlink">
<g id="graph0" class="graph" transform="scale(1 1) rotate(0) translate(4 400)">
<title>dra.HandleNowLoading</title>
<polygon fill="white" stroke="transparent" points="-4,4 -4,-400 2875.23,-400 2875.23,4 -4,4"/>
<!-- dra.HandleNowLoading -->
<g id="node1" class="node">
<title>dra.HandleNowLoading</title>
<ellipse fill="green" stroke="black" cx="1378.84" cy="-198" rx="120.48" ry="18"/>
<text text-anchor="middle" x="1378.84" y="-194.3" font-family="Times,serif" font-size="14.00">dra.HandleNowLoading</text>
</g>
<!-- D_8017A01C -->
<g id="node2" class="node">
<title>D_8017A01C</title>
<g id="a_node2"><a xlink:href="D_8017A01C.svg" xlink:title="D_8017A01C">
<ellipse fill="lightblue" stroke="black" cx="70.84" cy="-18" rx="70.69" ry="18"/>
<text text-anchor="middle" x="70.84" y="-14.3" font-family="Times,serif" font-size="14.00">D_8017A01C</text>
</a>
</g>
</g>
<!-- dra.HandleNowLoading&#45;&gt;D_8017A01C -->
<g id="edge1" class="edge">
<title>dra.HandleNowLoading&#45;&gt;D_8017A01C</title>
<path fill="none" stroke="black" d="M1282.92,-187.04C1075.58,-164.92 570.45,-107.97 150.84,-36 144.69,-34.94 138.29,-33.75 131.91,-32.5"/>
<polygon fill="black" stroke="black" points="132.44,-29.03 121.94,-30.49 131.05,-35.89 132.44,-29.03"/>
<text text-anchor="middle" x="116.94" y="-34.29" font-family="Times,serif" font-size="14.00">1</text>
</g>
<!-- D_8017D01C -->
<g id="node3" class="node">
<title>D_8017D01C</title>
<g id="a_node3"><a xlink:href="D_8017D01C.svg" xlink:title="D_8017D01C">
<ellipse fill="lightblue" stroke="black" cx="230.84" cy="-18" rx="71.49" ry="18"/>
<text text-anchor="middle" x="230.84" y="-14.3" font-family="Times,serif" font-size="14.00">D_8017D01C</text>
</a>
</g>
</g>
<!-- dra.HandleNowLoading&#45;&gt;D_8017D01C -->
<g id="edge2" class="edge">
<title>dra.HandleNowLoading&#45;&gt;D_8017D01C</title>
<path fill="none" stroke="black" d="M1291.78,-185.58C1109.45,-161.29 674.36,-101.34 311.84,-36 305.72,-34.9 299.35,-33.68 292.99,-32.42"/>
<polygon fill="black" stroke="black" points="293.54,-28.96 283.05,-30.41 292.16,-35.82 293.54,-28.96"/>
<text text-anchor="middle" x="278.05" y="-34.21" font-family="Times,serif" font-size="14.00">2</text>
</g>
<!-- FntPrint -->
<g id="node4" class="node">
<title>FntPrint</title>
<g id="a_node4"><a xlink:href="FntPrint.svg" xlink:title="FntPrint">
<ellipse fill="lightblue" stroke="black" cx="370.84" cy="-18" rx="50.09" ry="18"/>
<text text-anchor="middle" x="370.84" y="-14.3" font-family="Times,serif" font-size="14.00">FntPrint</text>
</a>
</g>
</g>
<!-- dra.HandleNowLoading&#45;&gt;FntPrint -->
<g id="edge3" class="edge">
<title>dra.HandleNowLoading&#45;&gt;FntPrint</title>
<path fill="none" stroke="black" d="M1291.52,-185.54C1123.51,-162.74 744.09,-107.69 429.84,-36 425.81,-35.08 421.64,-34.05 417.48,-32.96"/>
<polygon fill="black" stroke="black" points="418.38,-29.58 407.82,-30.34 416.55,-36.34 418.38,-29.58"/>
<text text-anchor="middle" x="402.82" y="-34.14" font-family="Times,serif" font-size="14.00">7</text>
</g>
<!-- dra.AnimateNowLoading -->
<g id="node5" class="node">
<title>dra.AnimateNowLoading</title>
<g id="a_node5"><a xlink:href="dra.AnimateNowLoading.svg" xlink:title="dra.AnimateNowLoading">
<ellipse fill="green" stroke="black" cx="564.84" cy="-18" rx="126.18" ry="18"/>
<text text-anchor="middle" x="564.84" y="-14.3" font-family="Times,serif" font-size="14.00">dra.AnimateNowLoading</text>
</a>
</g>
</g>
<!-- dra.HandleNowLoading&#45;&gt;dra.AnimateNowLoading -->
<g id="edge4" class="edge">
<title>dra.HandleNowLoading&#45;&gt;dra.AnimateNowLoading</title>
<path fill="none" stroke="black" d="M1313.95,-182.81C1165.14,-150.27 799.95,-70.41 640.92,-35.64"/>
<polygon fill="black" stroke="black" points="641.26,-32.13 630.75,-33.41 639.77,-38.97 641.26,-32.13"/>
<text text-anchor="middle" x="625.75" y="-37.21" font-family="Times,serif" font-size="14.00">3</text>
</g>
<!-- dra.CheckWeaponCombo -->
<g id="node6" class="node">
<title>dra.CheckWeaponCombo</title>
<g id="a_node6"><a xlink:href="dra.CheckWeaponCombo.svg" xlink:title="dra.CheckWeaponCombo">
<ellipse fill="green" stroke="black" cx="834.84" cy="-18" rx="126.18" ry="18"/>
<text text-anchor="middle" x="834.84" y="-14.3" font-family="Times,serif" font-size="14.00">dra.CheckWeaponCombo</text>
</a>
</g>
</g>
<!-- dra.HandleNowLoading&#45;&gt;dra.CheckWeaponCombo -->
<g id="edge5" class="edge">
<title>dra.HandleNowLoading&#45;&gt;dra.CheckWeaponCombo</title>
<path fill="none" stroke="black" d="M1331.04,-181.36C1231.1,-148.66 1000.4,-73.17 892.47,-37.86"/>
<polygon fill="black" stroke="black" points="893.32,-34.45 882.73,-34.67 891.15,-41.1 893.32,-34.45"/>
<text text-anchor="middle" x="877.73" y="-38.47" font-family="Times,serif" font-size="14.00">1</text>
</g>
<!-- dra.ClearBackbuffer -->
<g id="node7" class="node">
<title>dra.ClearBackbuffer</title>
<g id="a_node7"><a xlink:href="dra.ClearBackbuffer.svg" xlink:title="dra.ClearBackbuffer">
<ellipse fill="green" stroke="black" cx="1083.84" cy="-18" rx="104.78" ry="18"/>
<text text-anchor="middle" x="1083.84" y="-14.3" font-family="Times,serif" font-size="14.00">dra.ClearBackbuffer</text>
</a>
</g>
</g>
<!-- dra.HandleNowLoading&#45;&gt;dra.ClearBackbuffer -->
<g id="edge6" class="edge">
<title>dra.HandleNowLoading&#45;&gt;dra.ClearBackbuffer</title>
<path fill="none" stroke="black" d="M1351.36,-180.41C1297.89,-148.15 1179.9,-76.96 1120.1,-40.88"/>
<polygon fill="black" stroke="black" points="1121.74,-37.78 1111.37,-35.61 1118.12,-43.77 1121.74,-37.78"/>
<text text-anchor="middle" x="1106.37" y="-39.41" font-family="Times,serif" font-size="14.00">1</text>
</g>
<!-- dra.DemoInit -->
<g id="node8" class="node">
<title>dra.DemoInit</title>
<g id="a_node8"><a xlink:href="dra.DemoInit.svg" xlink:title="dra.DemoInit">
<ellipse fill="green" stroke="black" cx="1278.84" cy="-18" rx="72.29" ry="18"/>
<text text-anchor="middle" x="1278.84" y="-14.3" font-family="Times,serif" font-size="14.00">dra.DemoInit</text>
</a>
</g>
</g>
<!-- dra.HandleNowLoading&#45;&gt;dra.DemoInit -->
<g id="edge7" class="edge">
<title>dra.HandleNowLoading&#45;&gt;dra.DemoInit</title>
<path fill="none" stroke="black" d="M1369.26,-179.93C1351.71,-148.7 1314.33,-82.17 1293.55,-45.18"/>
<polygon fill="black" stroke="black" points="1296.35,-43.02 1288.4,-36.02 1290.25,-46.45 1296.35,-43.02"/>
<text text-anchor="middle" x="1283.4" y="-39.82" font-family="Times,serif" font-size="14.00">1</text>
</g>
<!-- dra.InitStatsAndGear -->
<g id="node9" class="node">
<title>dra.InitStatsAndGear</title>
<g id="a_node9"><a xlink:href="dra.InitStatsAndGear.svg" xlink:title="dra.InitStatsAndGear">
<ellipse fill="green" stroke="black" cx="1479.84" cy="-18" rx="110.48" ry="18"/>
<text text-anchor="middle" x="1479.84" y="-14.3" font-family="Times,serif" font-size="14.00">dra.InitStatsAndGear</text>
</a>
</g>
</g>
<!-- dra.HandleNowLoading&#45;&gt;dra.InitStatsAndGear -->
<g id="edge8" class="edge">
<title>dra.HandleNowLoading&#45;&gt;dra.InitStatsAndGear</title>
<path fill="none" stroke="black" d="M1388.53,-179.93C1406.25,-148.7 1444,-82.17 1464.99,-45.18"/>
<polygon fill="black" stroke="black" points="1468.3,-46.44 1470.19,-36.02 1462.21,-42.99 1468.3,-46.44"/>
<text text-anchor="middle" x="1465.19" y="-39.82" font-family="Times,serif" font-size="14.00">1</text>
</g>
<!-- dra.LoadFileSim -->
<g id="node10" class="node">
<title>dra.LoadFileSim</title>
<g id="a_node10"><a xlink:href="dra.LoadFileSim.svg" xlink:title="dra.LoadFileSim">
<ellipse fill="green" stroke="black" cx="1695.84" cy="-18" rx="87.18" ry="18"/>
<text text-anchor="middle" x="1695.84" y="-14.3" font-family="Times,serif" font-size="14.00">dra.LoadFileSim</text>
</a>
</g>
</g>
<!-- dra.HandleNowLoading&#45;&gt;dra.LoadFileSim -->
<g id="edge9" class="edge">
<title>dra.HandleNowLoading&#45;&gt;dra.LoadFileSim</title>
<path fill="none" stroke="black" d="M1408.38,-180.41C1466.25,-147.92 1594.44,-75.94 1658.25,-40.11"/>
<polygon fill="black" stroke="black" points="1660.18,-43.04 1667.18,-35.09 1656.75,-36.94 1660.18,-43.04"/>
<text text-anchor="middle" x="1657.68" y="-38.89" font-family="Times,serif" font-size="14.00">14</text>
</g>
<!-- dra.PlaySfx -->
<g id="node11" class="node">
<title>dra.PlaySfx</title>
<g id="a_node11"><a xlink:href="dra.PlaySfx.svg" xlink:title="dra.PlaySfx">
<ellipse fill="green" stroke="black" cx="1864.84" cy="-18" rx="64.19" ry="18"/>
<text text-anchor="middle" x="1864.84" y="-14.3" font-family="Times,serif" font-size="14.00">dra.PlaySfx</text>
</a>
</g>
</g>
<!-- dra.HandleNowLoading&#45;&gt;dra.PlaySfx -->
<g id="edge10" class="edge">
<title>dra.HandleNowLoading&#45;&gt;dra.PlaySfx</title>
<path fill="none" stroke="black" d="M1422.4,-181.05C1513.54,-147.67 1723.66,-70.71 1817.77,-36.24"/>
<polygon fill="black" stroke="black" points="1819.13,-39.47 1827.31,-32.75 1816.72,-32.9 1819.13,-39.47"/>
<text text-anchor="middle" x="1822.31" y="-36.55" font-family="Times,serif" font-size="14.00">5</text>
</g>
<!-- dra.SetGameState -->
<g id="node12" class="node">
<title>dra.SetGameState</title>
<g id="a_node12"><a xlink:href="dra.SetGameState.svg" xlink:title="dra.SetGameState">
<ellipse fill="green" stroke="black" cx="2043.84" cy="-18" rx="96.68" ry="18"/>
<text text-anchor="middle" x="2043.84" y="-14.3" font-family="Times,serif" font-size="14.00">dra.SetGameState</text>
</a>
</g>
</g>
<!-- dra.HandleNowLoading&#45;&gt;dra.SetGameState -->
<g id="edge11" class="edge">
<title>dra.HandleNowLoading&#45;&gt;dra.SetGameState</title>
<path fill="none" stroke="black" d="M1434.68,-182.05C1557.78,-149.1 1851.81,-70.4 1981.06,-35.8"/>
<polygon fill="black" stroke="black" points="1982.07,-39.16 1990.83,-33.19 1980.26,-32.4 1982.07,-39.16"/>
<text text-anchor="middle" x="1985.83" y="-36.99" font-family="Times,serif" font-size="14.00">1</text>
</g>
<!-- dra.SetStageDisplayBuffer -->
<g id="node13" class="node">
<title>dra.SetStageDisplayBuffer</title>
<g id="a_node13"><a xlink:href="dra.SetStageDisplayBuffer.svg" xlink:title="dra.SetStageDisplayBuffer">
<ellipse fill="green" stroke="black" cx="2293.84" cy="-18" rx="135.38" ry="18"/>
<text text-anchor="middle" x="2293.84" y="-14.3" font-family="Times,serif" font-size="14.00">dra.SetStageDisplayBuffer</text>
</a>
</g>
</g>
<!-- dra.HandleNowLoading&#45;&gt;dra.SetStageDisplayBuffer -->
<g id="edge12" class="edge">
<title>dra.HandleNowLoading&#45;&gt;dra.SetStageDisplayBuffer</title>
<path fill="none" stroke="black" d="M1449.12,-183.33C1615.46,-150.97 2032.64,-69.81 2210.94,-35.13"/>
<polygon fill="black" stroke="black" points="2211.64,-38.56 2220.79,-33.21 2210.31,-31.69 2211.64,-38.56"/>
<text text-anchor="middle" x="2215.79" y="-37.01" font-family="Times,serif" font-size="14.00">1</text>
</g>
<!-- dra.func_800E6250 -->
<g id="node14" class="node">
<title>dra.func_800E6250</title>
<g id="a_node14"><a xlink:href="dra.func_800E6250.svg" xlink:title="dra.func_800E6250">
<ellipse fill="green" stroke="black" cx="2548.84" cy="-18" rx="101.28" ry="18"/>
<text text-anchor="middle" x="2548.84" y="-14.3" font-family="Times,serif" font-size="14.00">dra.func_800E6250</text>
</a>
</g>
</g>
<!-- dra.HandleNowLoading&#45;&gt;dra.func_800E6250 -->
<g id="edge13" class="edge">
<title>dra.HandleNowLoading&#45;&gt;dra.func_800E6250</title>
<path fill="none" stroke="black" d="M1460.23,-184.66C1637.76,-157.73 2073.15,-91.65 2437.84,-36 2446.62,-34.66 2455.78,-33.26 2464.92,-31.86"/>
<polygon fill="black" stroke="black" points="2465.45,-35.32 2474.81,-30.35 2464.39,-28.4 2465.45,-35.32"/>
<text text-anchor="middle" x="2469.81" y="-34.15" font-family="Times,serif" font-size="14.00">1</text>
</g>
<!-- dra.func_800E6300 -->
<g id="node15" class="node">
<title>dra.func_800E6300</title>
<g id="a_node15"><a xlink:href="dra.func_800E6300.svg" xlink:title="dra.func_800E6300">
<ellipse fill="green" stroke="black" cx="2769.84" cy="-18" rx="101.28" ry="18"/>
<text text-anchor="middle" x="2769.84" y="-14.3" font-family="Times,serif" font-size="14.00">dra.func_800E6300</text>
</a>
</g>
</g>
<!-- dra.HandleNowLoading&#45;&gt;dra.func_800E6300 -->
<g id="edge14" class="edge">
<title>dra.HandleNowLoading&#45;&gt;dra.func_800E6300</title>
<path fill="none" stroke="black" d="M1470.53,-186.32C1680.84,-161.65 2214.08,-98.02 2658.84,-36 2667.85,-34.74 2677.25,-33.38 2686.62,-31.99"/>
<polygon fill="black" stroke="black" points="2687.37,-35.42 2696.74,-30.48 2686.34,-28.5 2687.37,-35.42"/>
<text text-anchor="middle" x="2691.74" y="-34.28" font-family="Times,serif" font-size="14.00">1</text>
</g>
<!-- dra.UpdateGame -->
<g id="node16" class="node">
<title>dra.UpdateGame</title>
<g id="a_node16"><a xlink:href="dra.UpdateGame.svg" xlink:title="dra.UpdateGame">
<ellipse fill="green" stroke="black" cx="1378.84" cy="-378" rx="90.18" ry="18"/>
<text text-anchor="middle" x="1378.84" y="-374.3" font-family="Times,serif" font-size="14.00">dra.UpdateGame</text>
</a>
</g>
</g>
<!-- dra.UpdateGame&#45;&gt;dra.HandleNowLoading -->
<g id="edge15" class="edge">
<title>dra.UpdateGame&#45;&gt;dra.HandleNowLoading</title>
<path fill="none" stroke="black" d="M1378.84,-359.93C1378.84,-328.97 1378.84,-263.3 1378.84,-226.13"/>
<polygon fill="black" stroke="black" points="1382.34,-226.02 1378.84,-216.02 1375.34,-226.02 1382.34,-226.02"/>
<text text-anchor="middle" x="1373.84" y="-348.73" font-family="Times,serif" font-size="14.00">1</text>
</g>
</g>
</svg>
