<?xml version="1.0" encoding="UTF-8" standalone="no"?>
<!DOCTYPE svg PUBLIC "-//W3C//DTD SVG 1.1//EN"
 "http://www.w3.org/Graphics/SVG/1.1/DTD/svg11.dtd">
<!-- Generated by graphviz version 2.43.0 (0)
 -->
<!-- Title: dra.func_80111D24 Pages: 1 -->
<svg width="520pt" height="404pt"
 viewBox="0.00 0.00 519.98 404.00" xmlns="http://www.w3.org/2000/svg" xmlns:xlink="http://www.w3.org/1999/xlink">
<g id="graph0" class="graph" transform="scale(1 1) rotate(0) translate(4 400)">
<title>dra.func_80111D24</title>
<polygon fill="white" stroke="transparent" points="-4,4 -4,-400 515.98,-400 515.98,4 -4,4"/>
<!-- dra.func_80111D24 -->
<g id="node1" class="node">
<title>dra.func_80111D24</title>
<ellipse fill="green" stroke="black" cx="277.59" cy="-198" rx="102.08" ry="18"/>
<text text-anchor="middle" x="277.59" y="-194.3" font-family="Times,serif" font-size="14.00">dra.func_80111D24</text>
</g>
<!-- dra.CheckCollision -->
<g id="node2" class="node">
<title>dra.CheckCollision</title>
<g id="a_node2"><a xlink:href="dra.CheckCollision.svg" xlink:title="dra.CheckCollision">
<ellipse fill="green" stroke="black" cx="180.59" cy="-18" rx="97.48" ry="18"/>
<text text-anchor="middle" x="180.59" y="-14.3" font-family="Times,serif" font-size="14.00">dra.CheckCollision</text>
</a>
</g>
</g>
<!-- dra.func_80111D24&#45;&gt;dra.CheckCollision -->
<g id="edge1" class="edge">
<title>dra.func_80111D24&#45;&gt;dra.CheckCollision</title>
<path fill="none" stroke="black" d="M268.29,-179.93C251.27,-148.7 215.01,-82.17 194.85,-45.18"/>
<polygon fill="black" stroke="black" points="197.72,-43.12 189.86,-36.02 191.57,-46.47 197.72,-43.12"/>
<text text-anchor="middle" x="184.86" y="-39.82" font-family="Times,serif" font-size="14.00">2</text>
</g>
<!-- dra.SetSpeedX -->
<g id="node3" class="node">
<title>dra.SetSpeedX</title>
<g id="a_node3"><a xlink:href="dra.SetSpeedX.svg" xlink:title="dra.SetSpeedX">
<ellipse fill="green" stroke="black" cx="375.59" cy="-18" rx="79.89" ry="18"/>
<text text-anchor="middle" x="375.59" y="-14.3" font-family="Times,serif" font-size="14.00">dra.SetSpeedX</text>
</a>
</g>
</g>
<!-- dra.func_80111D24&#45;&gt;dra.SetSpeedX -->
<g id="edge2" class="edge">
<title>dra.func_80111D24&#45;&gt;dra.SetSpeedX</title>
<path fill="none" stroke="black" d="M286.98,-179.93C304.18,-148.7 340.81,-82.17 361.17,-45.18"/>
<polygon fill="black" stroke="black" points="364.46,-46.46 366.22,-36.02 358.33,-43.09 364.46,-46.46"/>
<text text-anchor="middle" x="361.22" y="-39.82" font-family="Times,serif" font-size="14.00">1</text>
</g>
<!-- dra.PlayerStepUnmorphMist -->
<g id="node4" class="node">
<title>dra.PlayerStepUnmorphMist</title>
<g id="a_node4"><a xlink:href="dra.PlayerStepUnmorphMist.svg" xlink:title="dra.PlayerStepUnmorphMist">
<ellipse fill="green" stroke="black" cx="145.59" cy="-378" rx="145.67" ry="18"/>
<text text-anchor="middle" x="145.59" y="-374.3" font-family="Times,serif" font-size="14.00">dra.PlayerStepUnmorphMist</text>
</a>
</g>
</g>
<!-- dra.PlayerStepUnmorphMist&#45;&gt;dra.func_80111D24 -->
<g id="edge3" class="edge">
<title>dra.PlayerStepUnmorphMist&#45;&gt;dra.func_80111D24</title>
<path fill="none" stroke="black" d="M158.24,-359.93C181.6,-328.43 231.58,-261.03 258.87,-224.24"/>
<polygon fill="black" stroke="black" points="261.82,-226.13 264.97,-216.02 256.2,-221.96 261.82,-226.13"/>
<text text-anchor="middle" x="153.24" y="-348.73" font-family="Times,serif" font-size="14.00">1</text>
</g>
<!-- dra.func_8011203C -->
<g id="node5" class="node">
<title>dra.func_8011203C</title>
<g id="a_node5"><a xlink:href="dra.func_8011203C.svg" xlink:title="dra.func_8011203C">
<ellipse fill="green" stroke="black" cx="410.59" cy="-378" rx="101.28" ry="18"/>
<text text-anchor="middle" x="410.59" y="-374.3" font-family="Times,serif" font-size="14.00">dra.func_8011203C</text>
</a>
</g>
</g>
<!-- dra.func_8011203C&#45;&gt;dra.func_80111D24 -->
<g id="edge4" class="edge">
<title>dra.func_8011203C&#45;&gt;dra.func_80111D24</title>
<path fill="none" stroke="black" d="M397.83,-359.93C374.3,-328.43 323.94,-261.03 296.45,-224.24"/>
<polygon fill="black" stroke="black" points="299.09,-221.93 290.3,-216.02 293.48,-226.12 299.09,-221.93"/>
<text text-anchor="middle" x="392.83" y="-348.73" font-family="Times,serif" font-size="14.00">1</text>
</g>
</g>
</svg>
