<?xml version="1.0" encoding="UTF-8" standalone="no"?>
<!DOCTYPE svg PUBLIC "-//W3C//DTD SVG 1.1//EN"
 "http://www.w3.org/Graphics/SVG/1.1/DTD/svg11.dtd">
<!-- Generated by graphviz version 2.43.0 (0)
 -->
<!-- Title: dra.HandleGameOver Pages: 1 -->
<svg width="5374pt" height="404pt"
 viewBox="0.00 0.00 5374.24 404.00" xmlns="http://www.w3.org/2000/svg" xmlns:xlink="http://www.w3.org/1999/xlink">
<g id="graph0" class="graph" transform="scale(1 1) rotate(0) translate(4 400)">
<title>dra.HandleGameOver</title>
<polygon fill="white" stroke="transparent" points="-4,4 -4,-400 5370.24,-400 5370.24,4 -4,4"/>
<!-- dra.HandleGameOver -->
<g id="node1" class="node">
<title>dra.HandleGameOver</title>
<ellipse fill="red" stroke="black" cx="2684.74" cy="-198" rx="111.58" ry="18"/>
<text text-anchor="middle" x="2684.74" y="-194.3" font-family="Times,serif" font-size="14.00">dra.HandleGameOver</text>
</g>
<!-- LoadImage -->
<g id="node2" class="node">
<title>LoadImage</title>
<g id="a_node2"><a xlink:href="LoadImage.svg" xlink:title="LoadImage">
<ellipse fill="lightblue" stroke="black" cx="61.74" cy="-18" rx="61.99" ry="18"/>
<text text-anchor="middle" x="61.74" y="-14.3" font-family="Times,serif" font-size="14.00">LoadImage</text>
</a>
</g>
</g>
<!-- dra.HandleGameOver&#45;&gt;LoadImage -->
<g id="edge1" class="edge">
<title>dra.HandleGameOver&#45;&gt;LoadImage</title>
<path fill="none" stroke="black" d="M2573.02,-196.79C2215.59,-194.65 1068.67,-176.5 132.74,-36 127.26,-35.18 121.58,-34.14 115.92,-32.98"/>
<polygon fill="black" stroke="black" points="116.34,-29.49 105.83,-30.8 114.86,-36.33 116.34,-29.49"/>
<text text-anchor="middle" x="100.83" y="-34.6" font-family="Times,serif" font-size="14.00">4</text>
</g>
<!-- MoveImage -->
<g id="node3" class="node">
<title>MoveImage</title>
<g id="a_node3"><a xlink:href="MoveImage.svg" xlink:title="MoveImage">
<ellipse fill="lightblue" stroke="black" cx="206.74" cy="-18" rx="64.99" ry="18"/>
<text text-anchor="middle" x="206.74" y="-14.3" font-family="Times,serif" font-size="14.00">MoveImage</text>
</a>
</g>
</g>
<!-- dra.HandleGameOver&#45;&gt;MoveImage -->
<g id="edge2" class="edge">
<title>dra.HandleGameOver&#45;&gt;MoveImage</title>
<path fill="none" stroke="black" d="M2573.55,-195.82C2230.33,-190.85 1157.79,-165.27 280.74,-36 274.9,-35.14 268.83,-34.06 262.79,-32.86"/>
<polygon fill="black" stroke="black" points="263.22,-29.37 252.71,-30.75 261.79,-36.22 263.22,-29.37"/>
<text text-anchor="middle" x="247.71" y="-34.55" font-family="Times,serif" font-size="14.00">1</text>
</g>
<!-- StoreImage -->
<g id="node4" class="node">
<title>StoreImage</title>
<g id="a_node4"><a xlink:href="StoreImage.svg" xlink:title="StoreImage">
<ellipse fill="lightblue" stroke="black" cx="354.74" cy="-18" rx="64.99" ry="18"/>
<text text-anchor="middle" x="354.74" y="-14.3" font-family="Times,serif" font-size="14.00">StoreImage</text>
</a>
</g>
</g>
<!-- dra.HandleGameOver&#45;&gt;StoreImage -->
<g id="edge3" class="edge">
<title>dra.HandleGameOver&#45;&gt;StoreImage</title>
<path fill="none" stroke="black" d="M2574.33,-195.15C2245.84,-188.37 1246.68,-158.39 428.74,-36 422.98,-35.14 417,-34.07 411.05,-32.88"/>
<polygon fill="black" stroke="black" points="411.62,-29.43 401.12,-30.81 410.19,-36.28 411.62,-29.43"/>
<text text-anchor="middle" x="396.12" y="-34.61" font-family="Times,serif" font-size="14.00">2</text>
</g>
<!-- dra.AllocPrimitives -->
<g id="node5" class="node">
<title>dra.AllocPrimitives</title>
<g id="a_node5"><a xlink:href="dra.AllocPrimitives.svg" xlink:title="dra.AllocPrimitives">
<ellipse fill="green" stroke="black" cx="536.74" cy="-18" rx="99.38" ry="18"/>
<text text-anchor="middle" x="536.74" y="-14.3" font-family="Times,serif" font-size="14.00">dra.AllocPrimitives</text>
</a>
</g>
</g>
<!-- dra.HandleGameOver&#45;&gt;dra.AllocPrimitives -->
<g id="edge4" class="edge">
<title>dra.HandleGameOver&#45;&gt;dra.AllocPrimitives</title>
<path fill="none" stroke="black" d="M2580.23,-191.56C2279.17,-175.27 1384.38,-122.64 645.74,-36 636.43,-34.91 626.68,-33.61 617.02,-32.23"/>
<polygon fill="black" stroke="black" points="617.4,-28.75 607,-30.76 616.39,-35.67 617.4,-28.75"/>
<text text-anchor="middle" x="602" y="-34.56" font-family="Times,serif" font-size="14.00">1</text>
</g>
<!-- dra.DestroyAllPrimitives -->
<g id="node6" class="node">
<title>dra.DestroyAllPrimitives</title>
<g id="a_node6"><a xlink:href="dra.DestroyAllPrimitives.svg" xlink:title="dra.DestroyAllPrimitives">
<ellipse fill="green" stroke="black" cx="780.74" cy="-18" rx="126.18" ry="18"/>
<text text-anchor="middle" x="780.74" y="-14.3" font-family="Times,serif" font-size="14.00">dra.DestroyAllPrimitives</text>
</a>
</g>
</g>
<!-- dra.HandleGameOver&#45;&gt;dra.DestroyAllPrimitives -->
<g id="edge5" class="edge">
<title>dra.HandleGameOver&#45;&gt;dra.DestroyAllPrimitives</title>
<path fill="none" stroke="black" d="M2586.82,-189.28C2319,-167.91 1551.92,-104.98 915.74,-36 904.28,-34.76 892.27,-33.37 880.35,-31.94"/>
<polygon fill="black" stroke="black" points="880.72,-28.46 870.38,-30.73 879.88,-35.41 880.72,-28.46"/>
<text text-anchor="middle" x="865.38" y="-34.53" font-family="Times,serif" font-size="14.00">1</text>
</g>
<!-- dra.DestroyEntitiesFromIndex -->
<g id="node7" class="node">
<title>dra.DestroyEntitiesFromIndex</title>
<g id="a_node7"><a xlink:href="dra.DestroyEntitiesFromIndex.svg" xlink:title="dra.DestroyEntitiesFromIndex">
<ellipse fill="green" stroke="black" cx="1077.74" cy="-18" rx="153.27" ry="18"/>
<text text-anchor="middle" x="1077.74" y="-14.3" font-family="Times,serif" font-size="14.00">dra.DestroyEntitiesFromIndex</text>
</a>
</g>
</g>
<!-- dra.HandleGameOver&#45;&gt;dra.DestroyEntitiesFromIndex -->
<g id="edge6" class="edge">
<title>dra.HandleGameOver&#45;&gt;dra.DestroyEntitiesFromIndex</title>
<path fill="none" stroke="black" d="M2595.48,-187.11C2323.07,-156.94 1502.37,-66.03 1195.35,-32.03"/>
<polygon fill="black" stroke="black" points="1195.42,-28.51 1185.09,-30.89 1194.65,-35.47 1195.42,-28.51"/>
<text text-anchor="middle" x="1180.09" y="-34.69" font-family="Times,serif" font-size="14.00">1</text>
</g>
<!-- dra.FreePrimitives -->
<g id="node8" class="node">
<title>dra.FreePrimitives</title>
<g id="a_node8"><a xlink:href="dra.FreePrimitives.svg" xlink:title="dra.FreePrimitives">
<ellipse fill="green" stroke="black" cx="1347.74" cy="-18" rx="98.58" ry="18"/>
<text text-anchor="middle" x="1347.74" y="-14.3" font-family="Times,serif" font-size="14.00">dra.FreePrimitives</text>
</a>
</g>
</g>
<!-- dra.HandleGameOver&#45;&gt;dra.FreePrimitives -->
<g id="edge7" class="edge">
<title>dra.HandleGameOver&#45;&gt;dra.FreePrimitives</title>
<path fill="none" stroke="black" d="M2598.59,-186.49C2397.98,-161.85 1884.12,-97.76 1455.74,-36 1447.15,-34.76 1438.17,-33.42 1429.22,-32.06"/>
<polygon fill="black" stroke="black" points="1429.58,-28.57 1419.16,-30.51 1428.51,-35.49 1429.58,-28.57"/>
<text text-anchor="middle" x="1414.16" y="-34.31" font-family="Times,serif" font-size="14.00">1</text>
</g>
<!-- dra.HideAllBackgroundLayers -->
<g id="node9" class="node">
<title>dra.HideAllBackgroundLayers</title>
<g id="a_node9"><a xlink:href="dra.HideAllBackgroundLayers.svg" xlink:title="dra.HideAllBackgroundLayers">
<ellipse fill="green" stroke="black" cx="1614.74" cy="-18" rx="150.27" ry="18"/>
<text text-anchor="middle" x="1614.74" y="-14.3" font-family="Times,serif" font-size="14.00">dra.HideAllBackgroundLayers</text>
</a>
</g>
</g>
<!-- dra.HandleGameOver&#45;&gt;dra.HideAllBackgroundLayers -->
<g id="edge8" class="edge">
<title>dra.HandleGameOver&#45;&gt;dra.HideAllBackgroundLayers</title>
<path fill="none" stroke="black" d="M2609.93,-184.55C2419.79,-152.92 1918.32,-69.5 1708.81,-34.65"/>
<polygon fill="black" stroke="black" points="1709.2,-31.16 1698.76,-32.98 1708.05,-38.07 1709.2,-31.16"/>
<text text-anchor="middle" x="1693.76" y="-36.78" font-family="Times,serif" font-size="14.00">1</text>
</g>
<!-- dra.LoadFileSim -->
<g id="node10" class="node">
<title>dra.LoadFileSim</title>
<g id="a_node10"><a xlink:href="dra.LoadFileSim.svg" xlink:title="dra.LoadFileSim">
<ellipse fill="green" stroke="black" cx="1869.74" cy="-18" rx="87.18" ry="18"/>
<text text-anchor="middle" x="1869.74" y="-14.3" font-family="Times,serif" font-size="14.00">dra.LoadFileSim</text>
</a>
</g>
</g>
<!-- dra.HandleGameOver&#45;&gt;dra.LoadFileSim -->
<g id="edge9" class="edge">
<title>dra.HandleGameOver&#45;&gt;dra.LoadFileSim</title>
<path fill="none" stroke="black" d="M2621.13,-183.11C2470.29,-150.16 2091.98,-67.54 1937.27,-33.75"/>
<polygon fill="black" stroke="black" points="1937.93,-30.31 1927.41,-31.59 1936.43,-37.15 1937.93,-30.31"/>
<text text-anchor="middle" x="1922.41" y="-35.39" font-family="Times,serif" font-size="14.00">4</text>
</g>
<!-- dra.MuteSound -->
<g id="node11" class="node">
<title>dra.MuteSound</title>
<g id="a_node11"><a xlink:href="dra.MuteSound.svg" xlink:title="dra.MuteSound">
<ellipse fill="green" stroke="black" cx="2057.74" cy="-18" rx="83.39" ry="18"/>
<text text-anchor="middle" x="2057.74" y="-14.3" font-family="Times,serif" font-size="14.00">dra.MuteSound</text>
</a>
</g>
</g>
<!-- dra.HandleGameOver&#45;&gt;dra.MuteSound -->
<g id="edge10" class="edge">
<title>dra.HandleGameOver&#45;&gt;dra.MuteSound</title>
<path fill="none" stroke="black" d="M2632.1,-182.05C2515.69,-149.01 2237.18,-69.94 2115.87,-35.5"/>
<polygon fill="black" stroke="black" points="2116.59,-32.07 2106.02,-32.7 2114.68,-38.8 2116.59,-32.07"/>
<text text-anchor="middle" x="2101.02" y="-36.5" font-family="Times,serif" font-size="14.00">1</text>
</g>
<!-- dra.PlaySfx -->
<g id="node12" class="node">
<title>dra.PlaySfx</title>
<g id="a_node12"><a xlink:href="dra.PlaySfx.svg" xlink:title="dra.PlaySfx">
<ellipse fill="green" stroke="black" cx="2223.74" cy="-18" rx="64.19" ry="18"/>
<text text-anchor="middle" x="2223.74" y="-14.3" font-family="Times,serif" font-size="14.00">dra.PlaySfx</text>
</a>
</g>
</g>
<!-- dra.HandleGameOver&#45;&gt;dra.PlaySfx -->
<g id="edge11" class="edge">
<title>dra.HandleGameOver&#45;&gt;dra.PlaySfx</title>
<path fill="none" stroke="black" d="M2643.83,-181.2C2557.94,-148.04 2359.34,-71.36 2269.44,-36.64"/>
<polygon fill="black" stroke="black" points="2270.64,-33.36 2260.05,-33.02 2268.12,-39.89 2270.64,-33.36"/>
<text text-anchor="middle" x="2255.05" y="-36.82" font-family="Times,serif" font-size="14.00">6</text>
</g>
<!-- dra.ResetPendingGfxLoad -->
<g id="node13" class="node">
<title>dra.ResetPendingGfxLoad</title>
<g id="a_node13"><a xlink:href="dra.ResetPendingGfxLoad.svg" xlink:title="dra.ResetPendingGfxLoad">
<ellipse fill="green" stroke="black" cx="2437.74" cy="-18" rx="131.88" ry="18"/>
<text text-anchor="middle" x="2437.74" y="-14.3" font-family="Times,serif" font-size="14.00">dra.ResetPendingGfxLoad</text>
</a>
</g>
</g>
<!-- dra.HandleGameOver&#45;&gt;dra.ResetPendingGfxLoad -->
<g id="edge12" class="edge">
<title>dra.HandleGameOver&#45;&gt;dra.ResetPendingGfxLoad</title>
<path fill="none" stroke="black" d="M2661.51,-180.25C2617.01,-148.18 2519.71,-78.07 2469.35,-41.78"/>
<polygon fill="black" stroke="black" points="2471.26,-38.84 2461.1,-35.83 2467.17,-44.52 2471.26,-38.84"/>
<text text-anchor="middle" x="2456.1" y="-39.63" font-family="Times,serif" font-size="14.00">1</text>
</g>
<!-- dra.SetGameState -->
<g id="node14" class="node">
<title>dra.SetGameState</title>
<g id="a_node14"><a xlink:href="dra.SetGameState.svg" xlink:title="dra.SetGameState">
<ellipse fill="green" stroke="black" cx="2684.74" cy="-18" rx="96.68" ry="18"/>
<text text-anchor="middle" x="2684.74" y="-14.3" font-family="Times,serif" font-size="14.00">dra.SetGameState</text>
</a>
</g>
</g>
<!-- dra.HandleGameOver&#45;&gt;dra.SetGameState -->
<g id="edge13" class="edge">
<title>dra.HandleGameOver&#45;&gt;dra.SetGameState</title>
<path fill="none" stroke="black" d="M2684.74,-179.93C2684.74,-148.97 2684.74,-83.3 2684.74,-46.13"/>
<polygon fill="black" stroke="black" points="2688.24,-46.02 2684.74,-36.02 2681.24,-46.02 2688.24,-46.02"/>
<text text-anchor="middle" x="2679.74" y="-39.82" font-family="Times,serif" font-size="14.00">1</text>
</g>
<!-- dra.SetTexturedPrimRect -->
<g id="node15" class="node">
<title>dra.SetTexturedPrimRect</title>
<g id="a_node15"><a xlink:href="dra.SetTexturedPrimRect.svg" xlink:title="dra.SetTexturedPrimRect">
<ellipse fill="green" stroke="black" cx="2929.74" cy="-18" rx="129.98" ry="18"/>
<text text-anchor="middle" x="2929.74" y="-14.3" font-family="Times,serif" font-size="14.00">dra.SetTexturedPrimRect</text>
</a>
</g>
</g>
<!-- dra.HandleGameOver&#45;&gt;dra.SetTexturedPrimRect -->
<g id="edge14" class="edge">
<title>dra.HandleGameOver&#45;&gt;dra.SetTexturedPrimRect</title>
<path fill="none" stroke="black" d="M2707.79,-180.25C2751.93,-148.18 2848.44,-78.07 2898.4,-41.78"/>
<polygon fill="black" stroke="black" points="2900.55,-44.54 2906.58,-35.83 2896.43,-38.88 2900.55,-44.54"/>
<text text-anchor="middle" x="2901.58" y="-39.63" font-family="Times,serif" font-size="14.00">4</text>
</g>
<!-- dra.func_800E346C -->
<g id="node16" class="node">
<title>dra.func_800E346C</title>
<g id="a_node16"><a xlink:href="dra.func_800E346C.svg" xlink:title="dra.func_800E346C">
<ellipse fill="green" stroke="black" cx="3180.74" cy="-18" rx="102.88" ry="18"/>
<text text-anchor="middle" x="3180.74" y="-14.3" font-family="Times,serif" font-size="14.00">dra.func_800E346C</text>
</a>
</g>
</g>
<!-- dra.HandleGameOver&#45;&gt;dra.func_800E346C -->
<g id="edge15" class="edge">
<title>dra.HandleGameOver&#45;&gt;dra.func_800E346C</title>
<path fill="none" stroke="black" d="M2728.33,-181.36C2819.49,-148.64 3030.01,-73.1 3128.35,-37.8"/>
<polygon fill="black" stroke="black" points="3129.56,-41.09 3137.79,-34.41 3127.2,-34.5 3129.56,-41.09"/>
<text text-anchor="middle" x="3132.79" y="-38.21" font-family="Times,serif" font-size="14.00">1</text>
</g>
<!-- dra.func_800E5358 -->
<g id="node17" class="node">
<title>dra.func_800E5358</title>
<g id="a_node17"><a xlink:href="dra.func_800E5358.svg" xlink:title="dra.func_800E5358">
<ellipse fill="green" stroke="black" cx="3402.74" cy="-18" rx="101.28" ry="18"/>
<text text-anchor="middle" x="3402.74" y="-14.3" font-family="Times,serif" font-size="14.00">dra.func_800E5358</text>
</a>
</g>
</g>
<!-- dra.HandleGameOver&#45;&gt;dra.func_800E5358 -->
<g id="edge16" class="edge">
<title>dra.HandleGameOver&#45;&gt;dra.func_800E5358</title>
<path fill="none" stroke="black" d="M2742.89,-182.58C2874.93,-149.85 3196.72,-70.07 3336.32,-35.47"/>
<polygon fill="black" stroke="black" points="3337.19,-38.86 3346.05,-33.06 3335.5,-32.06 3337.19,-38.86"/>
<text text-anchor="middle" x="3341.05" y="-36.86" font-family="Times,serif" font-size="14.00">5</text>
</g>
<!-- dra.func_800EA538 -->
<g id="node18" class="node">
<title>dra.func_800EA538</title>
<g id="a_node18"><a xlink:href="dra.func_800EA538.svg" xlink:title="dra.func_800EA538">
<ellipse fill="green" stroke="black" cx="3623.74" cy="-18" rx="102.08" ry="18"/>
<text text-anchor="middle" x="3623.74" y="-14.3" font-family="Times,serif" font-size="14.00">dra.func_800EA538</text>
</a>
</g>
</g>
<!-- dra.HandleGameOver&#45;&gt;dra.func_800EA538 -->
<g id="edge17" class="edge">
<title>dra.HandleGameOver&#45;&gt;dra.func_800EA538</title>
<path fill="none" stroke="black" d="M2754.17,-183.84C2925.63,-151.34 3368.14,-67.45 3547.02,-33.54"/>
<polygon fill="black" stroke="black" points="3547.71,-36.98 3556.88,-31.68 3546.4,-30.1 3547.71,-36.98"/>
<text text-anchor="middle" x="3551.88" y="-35.48" font-family="Times,serif" font-size="14.00">1</text>
</g>
<!-- dra.func_800EAD7C -->
<g id="node19" class="node">
<title>dra.func_800EAD7C</title>
<g id="a_node19"><a xlink:href="dra.func_800EAD7C.svg" xlink:title="dra.func_800EAD7C">
<ellipse fill="green" stroke="black" cx="3848.74" cy="-18" rx="104.78" ry="18"/>
<text text-anchor="middle" x="3848.74" y="-14.3" font-family="Times,serif" font-size="14.00">dra.func_800EAD7C</text>
</a>
</g>
</g>
<!-- dra.HandleGameOver&#45;&gt;dra.func_800EAD7C -->
<g id="edge18" class="edge">
<title>dra.HandleGameOver&#45;&gt;dra.func_800EAD7C</title>
<path fill="none" stroke="black" d="M2762.93,-185.04C2972.41,-153.01 3545.2,-65.42 3763.07,-32.1"/>
<polygon fill="black" stroke="black" points="3763.82,-35.53 3773.18,-30.56 3762.76,-28.61 3763.82,-35.53"/>
<text text-anchor="middle" x="3768.18" y="-34.36" font-family="Times,serif" font-size="14.00">1</text>
</g>
<!-- dra.func_800EDAE4 -->
<g id="node20" class="node">
<title>dra.func_800EDAE4</title>
<g id="a_node20"><a xlink:href="dra.func_800EDAE4.svg" xlink:title="dra.func_800EDAE4">
<ellipse fill="green" stroke="black" cx="4075.74" cy="-18" rx="104.78" ry="18"/>
<text text-anchor="middle" x="4075.74" y="-14.3" font-family="Times,serif" font-size="14.00">dra.func_800EDAE4</text>
</a>
</g>
</g>
<!-- dra.HandleGameOver&#45;&gt;dra.func_800EDAE4 -->
<g id="edge19" class="edge">
<title>dra.HandleGameOver&#45;&gt;dra.func_800EDAE4</title>
<path fill="none" stroke="black" d="M2772,-186.74C2978.92,-162.25 3515.54,-97.8 3962.74,-36 3971.69,-34.76 3981.03,-33.43 3990.34,-32.07"/>
<polygon fill="black" stroke="black" points="3991.02,-35.51 4000.41,-30.59 3990.01,-28.58 3991.02,-35.51"/>
<text text-anchor="middle" x="3995.41" y="-34.39" font-family="Times,serif" font-size="14.00">1</text>
</g>
<!-- dra.func_80107250 -->
<g id="node21" class="node">
<title>dra.func_80107250</title>
<g id="a_node21"><a xlink:href="dra.func_80107250.svg" xlink:title="dra.func_80107250">
<ellipse fill="green" stroke="black" cx="4298.74" cy="-18" rx="100.98" ry="18"/>
<text text-anchor="middle" x="4298.74" y="-14.3" font-family="Times,serif" font-size="14.00">dra.func_80107250</text>
</a>
</g>
</g>
<!-- dra.HandleGameOver&#45;&gt;dra.func_80107250 -->
<g id="edge20" class="edge">
<title>dra.HandleGameOver&#45;&gt;dra.func_80107250</title>
<path fill="none" stroke="black" d="M2779.58,-188.45C3017.35,-166.68 3657.92,-105.88 4189.74,-36 4198.6,-34.84 4207.85,-33.53 4217.05,-32.18"/>
<polygon fill="black" stroke="black" points="4217.62,-35.63 4226.99,-30.69 4216.58,-28.71 4217.62,-35.63"/>
<text text-anchor="middle" x="4221.99" y="-34.49" font-family="Times,serif" font-size="14.00">4</text>
</g>
<!-- dra.func_801072BC -->
<g id="node22" class="node">
<title>dra.func_801072BC</title>
<g id="a_node22"><a xlink:href="dra.func_801072BC.svg" xlink:title="dra.func_801072BC">
<ellipse fill="green" stroke="black" cx="4519.74" cy="-18" rx="102.88" ry="18"/>
<text text-anchor="middle" x="4519.74" y="-14.3" font-family="Times,serif" font-size="14.00">dra.func_801072BC</text>
</a>
</g>
</g>
<!-- dra.HandleGameOver&#45;&gt;dra.func_801072BC -->
<g id="edge21" class="edge">
<title>dra.HandleGameOver&#45;&gt;dra.func_801072BC</title>
<path fill="none" stroke="black" d="M2784.57,-189.74C3049.63,-170.03 3793.02,-111.83 4408.74,-36 4417.94,-34.87 4427.54,-33.57 4437.08,-32.21"/>
<polygon fill="black" stroke="black" points="4437.59,-35.67 4446.99,-30.77 4436.59,-28.74 4437.59,-35.67"/>
<text text-anchor="middle" x="4441.99" y="-34.57" font-family="Times,serif" font-size="14.00">1</text>
</g>
<!-- dra.func_801072DC -->
<g id="node23" class="node">
<title>dra.func_801072DC</title>
<g id="a_node23"><a xlink:href="dra.func_801072DC.svg" xlink:title="dra.func_801072DC">
<ellipse fill="green" stroke="black" cx="4742.74" cy="-18" rx="102.88" ry="18"/>
<text text-anchor="middle" x="4742.74" y="-14.3" font-family="Times,serif" font-size="14.00">dra.func_801072DC</text>
</a>
</g>
</g>
<!-- dra.HandleGameOver&#45;&gt;dra.func_801072DC -->
<g id="edge22" class="edge">
<title>dra.HandleGameOver&#45;&gt;dra.func_801072DC</title>
<path fill="none" stroke="black" d="M2787.9,-191C3078.59,-173.56 3929,-118.77 4631.74,-36 4641.01,-34.91 4650.7,-33.63 4660.32,-32.27"/>
<polygon fill="black" stroke="black" points="4660.9,-35.73 4670.3,-30.84 4659.9,-28.8 4660.9,-35.73"/>
<text text-anchor="middle" x="4665.3" y="-34.64" font-family="Times,serif" font-size="14.00">2</text>
</g>
<!-- dra.func_80131F68 -->
<g id="node24" class="node">
<title>dra.func_80131F68</title>
<g id="a_node24"><a xlink:href="dra.func_80131F68.svg" xlink:title="dra.func_80131F68">
<ellipse fill="green" stroke="black" cx="4963.74" cy="-18" rx="100.98" ry="18"/>
<text text-anchor="middle" x="4963.74" y="-14.3" font-family="Times,serif" font-size="14.00">dra.func_80131F68</text>
</a>
</g>
</g>
<!-- dra.HandleGameOver&#45;&gt;dra.func_80131F68 -->
<g id="edge23" class="edge">
<title>dra.HandleGameOver&#45;&gt;dra.func_80131F68</title>
<path fill="none" stroke="black" d="M2790.6,-192.18C3105.6,-177.18 4064.26,-126.82 4854.74,-36 4863.99,-34.94 4873.66,-33.67 4883.25,-32.3"/>
<polygon fill="black" stroke="black" points="4883.81,-35.76 4893.2,-30.85 4882.8,-28.83 4883.81,-35.76"/>
<text text-anchor="middle" x="4888.2" y="-34.65" font-family="Times,serif" font-size="14.00">2</text>
</g>
<!-- dra.func_80133950 -->
<g id="node25" class="node">
<title>dra.func_80133950</title>
<g id="a_node25"><a xlink:href="dra.func_80133950.svg" xlink:title="dra.func_80133950">
<ellipse fill="green" stroke="black" cx="5182.74" cy="-18" rx="100.98" ry="18"/>
<text text-anchor="middle" x="5182.74" y="-14.3" font-family="Times,serif" font-size="14.00">dra.func_80133950</text>
</a>
</g>
</g>
<!-- dra.HandleGameOver&#45;&gt;dra.func_80133950 -->
<g id="edge24" class="edge">
<title>dra.HandleGameOver&#45;&gt;dra.func_80133950</title>
<path fill="none" stroke="black" d="M2792.49,-193.1C3129.92,-180.16 4196.08,-133.83 5073.74,-36 5083,-34.97 5092.67,-33.72 5102.26,-32.36"/>
<polygon fill="black" stroke="black" points="5102.82,-35.82 5112.21,-30.92 5101.81,-28.89 5102.82,-35.82"/>
<text text-anchor="middle" x="5107.21" y="-34.72" font-family="Times,serif" font-size="14.00">1</text>
</g>
<!-- rand -->
<g id="node26" class="node">
<title>rand</title>
<g id="a_node26"><a xlink:href="rand.svg" xlink:title="rand">
<ellipse fill="lightblue" stroke="black" cx="5333.74" cy="-18" rx="32.49" ry="18"/>
<text text-anchor="middle" x="5333.74" y="-14.3" font-family="Times,serif" font-size="14.00">rand</text>
</a>
</g>
</g>
<!-- dra.HandleGameOver&#45;&gt;rand -->
<g id="edge25" class="edge">
<title>dra.HandleGameOver&#45;&gt;rand</title>
<path fill="none" stroke="black" d="M2795.01,-195.04C3227.25,-186.6 4806.17,-148.57 5292.74,-36 5295.24,-35.42 5297.78,-34.71 5300.31,-33.9"/>
<polygon fill="black" stroke="black" points="5301.69,-37.13 5309.9,-30.44 5299.31,-30.54 5301.69,-37.13"/>
<text text-anchor="middle" x="5304.9" y="-34.24" font-family="Times,serif" font-size="14.00">1</text>
</g>
<!-- dra.UpdateGame -->
<g id="node27" class="node">
<title>dra.UpdateGame</title>
<g id="a_node27"><a xlink:href="dra.UpdateGame.svg" xlink:title="dra.UpdateGame">
<ellipse fill="green" stroke="black" cx="2684.74" cy="-378" rx="90.18" ry="18"/>
<text text-anchor="middle" x="2684.74" y="-374.3" font-family="Times,serif" font-size="14.00">dra.UpdateGame</text>
</a>
</g>
</g>
<!-- dra.UpdateGame&#45;&gt;dra.HandleGameOver -->
<g id="edge26" class="edge">
<title>dra.UpdateGame&#45;&gt;dra.HandleGameOver</title>
<path fill="none" stroke="black" d="M2684.74,-359.93C2684.74,-328.97 2684.74,-263.3 2684.74,-226.13"/>
<polygon fill="black" stroke="black" points="2688.24,-226.02 2684.74,-216.02 2681.24,-226.02 2688.24,-226.02"/>
<text text-anchor="middle" x="2679.74" y="-348.73" font-family="Times,serif" font-size="14.00">1</text>
</g>
</g>
</svg>
