<?xml version="1.0" encoding="UTF-8" standalone="no"?>
<!DOCTYPE svg PUBLIC "-//W3C//DTD SVG 1.1//EN"
 "http://www.w3.org/Graphics/SVG/1.1/DTD/svg11.dtd">
<!-- Generated by graphviz version 2.43.0 (0)
 -->
<!-- Title: dre.GetSideToPlayer Pages: 1 -->
<svg width="649pt" height="224pt"
 viewBox="0.00 0.00 649.18 224.00" xmlns="http://www.w3.org/2000/svg" xmlns:xlink="http://www.w3.org/1999/xlink">
<g id="graph0" class="graph" transform="scale(1 1) rotate(0) translate(4 220)">
<title>dre.GetSideToPlayer</title>
<polygon fill="white" stroke="transparent" points="-4,4 -4,-220 645.18,-220 645.18,4 -4,4"/>
<!-- dre.GetSideToPlayer -->
<g id="node1" class="node">
<title>dre.GetSideToPlayer</title>
<ellipse fill="green" stroke="black" cx="317.79" cy="-18" rx="106.68" ry="18"/>
<text text-anchor="middle" x="317.79" y="-14.3" font-family="Times,serif" font-size="14.00">dre.GetSideToPlayer</text>
</g>
<!-- dre.EntityRedDoor -->
<g id="node2" class="node">
<title>dre.EntityRedDoor</title>
<g id="a_node2"><a xlink:href="dre.EntityRedDoor.svg" xlink:title="dre.EntityRedDoor">
<ellipse fill="red" stroke="black" cx="98.79" cy="-198" rx="98.58" ry="18"/>
<text text-anchor="middle" x="98.79" y="-194.3" font-family="Times,serif" font-size="14.00">dre.EntityRedDoor</text>
</a>
</g>
</g>
<!-- dre.EntityRedDoor&#45;&gt;dre.GetSideToPlayer -->
<g id="edge1" class="edge">
<title>dre.EntityRedDoor&#45;&gt;dre.GetSideToPlayer</title>
<path fill="none" stroke="black" d="M119.39,-180.25C158.69,-148.32 244.41,-78.65 289.21,-42.23"/>
<polygon fill="black" stroke="black" points="291.53,-44.85 297.08,-35.83 287.12,-39.42 291.53,-44.85"/>
<text text-anchor="middle" x="114.39" y="-169.05" font-family="Times,serif" font-size="14.00">1</text>
</g>
<!-- dre.EntitySuccubus -->
<g id="node3" class="node">
<title>dre.EntitySuccubus</title>
<g id="a_node3"><a xlink:href="dre.EntitySuccubus.svg" xlink:title="dre.EntitySuccubus">
<ellipse fill="green" stroke="black" cx="317.79" cy="-198" rx="102.88" ry="18"/>
<text text-anchor="middle" x="317.79" y="-194.3" font-family="Times,serif" font-size="14.00">dre.EntitySuccubus</text>
</a>
</g>
</g>
<!-- dre.EntitySuccubus&#45;&gt;dre.GetSideToPlayer -->
<g id="edge2" class="edge">
<title>dre.EntitySuccubus&#45;&gt;dre.GetSideToPlayer</title>
<path fill="none" stroke="black" d="M317.79,-179.93C317.79,-148.97 317.79,-83.3 317.79,-46.13"/>
<polygon fill="black" stroke="black" points="321.29,-46.02 317.79,-36.02 314.29,-46.02 321.29,-46.02"/>
<text text-anchor="middle" x="312.79" y="-168.73" font-family="Times,serif" font-size="14.00">6</text>
</g>
<!-- dre.func_80191B44 -->
<g id="node4" class="node">
<title>dre.func_80191B44</title>
<g id="a_node4"><a xlink:href="dre.func_80191B44.svg" xlink:title="dre.func_80191B44">
<ellipse fill="green" stroke="black" cx="539.79" cy="-198" rx="101.28" ry="18"/>
<text text-anchor="middle" x="539.79" y="-194.3" font-family="Times,serif" font-size="14.00">dre.func_80191B44</text>
</a>
</g>
</g>
<!-- dre.func_80191B44&#45;&gt;dre.GetSideToPlayer -->
<g id="edge3" class="edge">
<title>dre.func_80191B44&#45;&gt;dre.GetSideToPlayer</title>
<path fill="none" stroke="black" d="M518.91,-180.25C479.07,-148.32 392.18,-78.65 346.76,-42.23"/>
<polygon fill="black" stroke="black" points="348.77,-39.36 338.78,-35.83 344.4,-44.82 348.77,-39.36"/>
<text text-anchor="middle" x="513.91" y="-169.05" font-family="Times,serif" font-size="14.00">1</text>
</g>
</g>
</svg>
