<?xml version="1.0" encoding="UTF-8" standalone="no"?>
<!DOCTYPE svg PUBLIC "-//W3C//DTD SVG 1.1//EN"
 "http://www.w3.org/Graphics/SVG/1.1/DTD/svg11.dtd">
<!-- Generated by graphviz version 2.43.0 (0)
 -->
<!-- Title: dre.EntitySuccubusClone Pages: 1 -->
<svg width="1874pt" height="224pt"
 viewBox="0.00 0.00 1873.58 224.00" xmlns="http://www.w3.org/2000/svg" xmlns:xlink="http://www.w3.org/1999/xlink">
<g id="graph0" class="graph" transform="scale(1 1) rotate(0) translate(4 220)">
<title>dre.EntitySuccubusClone</title>
<polygon fill="white" stroke="transparent" points="-4,4 -4,-220 1869.58,-220 1869.58,4 -4,4"/>
<!-- dre.EntitySuccubusClone -->
<g id="node1" class="node">
<title>dre.EntitySuccubusClone</title>
<ellipse fill="green" stroke="black" cx="998.54" cy="-198" rx="128.88" ry="18"/>
<text text-anchor="middle" x="998.54" y="-194.3" font-family="Times,serif" font-size="14.00">dre.EntitySuccubusClone</text>
</g>
<!-- dra.PlaySfxVolPan -->
<g id="node2" class="node">
<title>dra.PlaySfxVolPan</title>
<g id="a_node2"><a xlink:href="dra.PlaySfxVolPan.svg" xlink:title="dra.PlaySfxVolPan">
<ellipse fill="green" stroke="black" cx="95.54" cy="-18" rx="95.58" ry="18"/>
<text text-anchor="middle" x="95.54" y="-14.3" font-family="Times,serif" font-size="14.00">dra.PlaySfxVolPan</text>
</a>
</g>
</g>
<!-- dre.EntitySuccubusClone&#45;&gt;dra.PlaySfxVolPan -->
<g id="edge1" class="edge">
<title>dre.EntitySuccubusClone&#45;&gt;dra.PlaySfxVolPan</title>
<path fill="none" stroke="black" d="M927.31,-182.96C759.18,-149.82 339.06,-67 168.87,-33.45"/>
<polygon fill="black" stroke="black" points="169.48,-30.01 159,-31.51 168.13,-36.88 169.48,-30.01"/>
<text text-anchor="middle" x="154" y="-35.31" font-family="Times,serif" font-size="14.00">1</text>
</g>
<!-- dre.AllocEntity -->
<g id="node3" class="node">
<title>dre.AllocEntity</title>
<g id="a_node3"><a xlink:href="dre.AllocEntity.svg" xlink:title="dre.AllocEntity">
<ellipse fill="green" stroke="black" cx="289.54" cy="-18" rx="80.69" ry="18"/>
<text text-anchor="middle" x="289.54" y="-14.3" font-family="Times,serif" font-size="14.00">dre.AllocEntity</text>
</a>
</g>
</g>
<!-- dre.EntitySuccubusClone&#45;&gt;dre.AllocEntity -->
<g id="edge2" class="edge">
<title>dre.EntitySuccubusClone&#45;&gt;dre.AllocEntity</title>
<path fill="none" stroke="black" d="M938.7,-181.98C805.49,-148.53 485.64,-68.23 350.97,-34.42"/>
<polygon fill="black" stroke="black" points="351.76,-31.01 341.21,-31.97 350.06,-37.8 351.76,-31.01"/>
<text text-anchor="middle" x="336.21" y="-35.77" font-family="Times,serif" font-size="14.00">1</text>
</g>
<!-- dre.AnimateEntity -->
<g id="node4" class="node">
<title>dre.AnimateEntity</title>
<g id="a_node4"><a xlink:href="dre.AnimateEntity.svg" xlink:title="dre.AnimateEntity">
<ellipse fill="green" stroke="black" cx="484.54" cy="-18" rx="96.68" ry="18"/>
<text text-anchor="middle" x="484.54" y="-14.3" font-family="Times,serif" font-size="14.00">dre.AnimateEntity</text>
</a>
</g>
</g>
<!-- dre.EntitySuccubusClone&#45;&gt;dre.AnimateEntity -->
<g id="edge3" class="edge">
<title>dre.EntitySuccubusClone&#45;&gt;dre.AnimateEntity</title>
<path fill="none" stroke="black" d="M952.48,-181.05C857.21,-148.06 638.99,-72.49 537.84,-37.46"/>
<polygon fill="black" stroke="black" points="538.73,-34.06 528.13,-34.1 536.43,-40.67 538.73,-34.06"/>
<text text-anchor="middle" x="523.13" y="-37.9" font-family="Times,serif" font-size="14.00">1</text>
</g>
<!-- dre.CreateEntityFromEntity -->
<g id="node5" class="node">
<title>dre.CreateEntityFromEntity</title>
<g id="a_node5"><a xlink:href="dre.CreateEntityFromEntity.svg" xlink:title="dre.CreateEntityFromEntity">
<ellipse fill="green" stroke="black" cx="742.54" cy="-18" rx="142.97" ry="18"/>
<text text-anchor="middle" x="742.54" y="-14.3" font-family="Times,serif" font-size="14.00">dre.CreateEntityFromEntity</text>
</a>
</g>
</g>
<!-- dre.EntitySuccubusClone&#45;&gt;dre.CreateEntityFromEntity -->
<g id="edge4" class="edge">
<title>dre.EntitySuccubusClone&#45;&gt;dre.CreateEntityFromEntity</title>
<path fill="none" stroke="black" d="M974.46,-180.25C928.24,-148.12 827.08,-77.78 774.98,-41.55"/>
<polygon fill="black" stroke="black" points="776.96,-38.67 766.75,-35.83 772.96,-44.41 776.96,-38.67"/>
<text text-anchor="middle" x="761.75" y="-39.63" font-family="Times,serif" font-size="14.00">1</text>
</g>
<!-- dre.DestroyEntity -->
<g id="node6" class="node">
<title>dre.DestroyEntity</title>
<g id="a_node6"><a xlink:href="dre.DestroyEntity.svg" xlink:title="dre.DestroyEntity">
<ellipse fill="green" stroke="black" cx="998.54" cy="-18" rx="94.78" ry="18"/>
<text text-anchor="middle" x="998.54" y="-14.3" font-family="Times,serif" font-size="14.00">dre.DestroyEntity</text>
</a>
</g>
</g>
<!-- dre.EntitySuccubusClone&#45;&gt;dre.DestroyEntity -->
<g id="edge5" class="edge">
<title>dre.EntitySuccubusClone&#45;&gt;dre.DestroyEntity</title>
<path fill="none" stroke="black" d="M998.54,-179.93C998.54,-148.97 998.54,-83.3 998.54,-46.13"/>
<polygon fill="black" stroke="black" points="1002.04,-46.02 998.54,-36.02 995.04,-46.02 1002.04,-46.02"/>
<text text-anchor="middle" x="993.54" y="-39.82" font-family="Times,serif" font-size="14.00">1</text>
</g>
<!-- dre.InitializeEntity -->
<g id="node7" class="node">
<title>dre.InitializeEntity</title>
<g id="a_node7"><a xlink:href="dre.InitializeEntity.svg" xlink:title="dre.InitializeEntity">
<ellipse fill="green" stroke="black" cx="1210.54" cy="-18" rx="98.58" ry="18"/>
<text text-anchor="middle" x="1210.54" y="-14.3" font-family="Times,serif" font-size="14.00">dre.InitializeEntity</text>
</a>
</g>
</g>
<!-- dre.EntitySuccubusClone&#45;&gt;dre.InitializeEntity -->
<g id="edge6" class="edge">
<title>dre.EntitySuccubusClone&#45;&gt;dre.InitializeEntity</title>
<path fill="none" stroke="black" d="M1018.87,-179.93C1057.03,-147.89 1139.46,-78.68 1182.73,-42.35"/>
<polygon fill="black" stroke="black" points="1185.18,-44.87 1190.59,-35.76 1180.68,-39.51 1185.18,-44.87"/>
<text text-anchor="middle" x="1185.59" y="-39.56" font-family="Times,serif" font-size="14.00">1</text>
</g>
<!-- dre.MoveEntity -->
<g id="node8" class="node">
<title>dre.MoveEntity</title>
<g id="a_node8"><a xlink:href="dre.MoveEntity.svg" xlink:title="dre.MoveEntity">
<ellipse fill="green" stroke="black" cx="1410.54" cy="-18" rx="83.39" ry="18"/>
<text text-anchor="middle" x="1410.54" y="-14.3" font-family="Times,serif" font-size="14.00">dre.MoveEntity</text>
</a>
</g>
</g>
<!-- dre.EntitySuccubusClone&#45;&gt;dre.MoveEntity -->
<g id="edge7" class="edge">
<title>dre.EntitySuccubusClone&#45;&gt;dre.MoveEntity</title>
<path fill="none" stroke="black" d="M1036.2,-180.73C1112.17,-147.91 1283.52,-73.88 1365.36,-38.52"/>
<polygon fill="black" stroke="black" points="1367.1,-41.58 1374.89,-34.4 1364.32,-35.16 1367.1,-41.58"/>
<text text-anchor="middle" x="1369.89" y="-38.2" font-family="Times,serif" font-size="14.00">1</text>
</g>
<!-- dre.SetStep -->
<g id="node9" class="node">
<title>dre.SetStep</title>
<g id="a_node9"><a xlink:href="dre.SetStep.svg" xlink:title="dre.SetStep">
<ellipse fill="green" stroke="black" cx="1577.54" cy="-18" rx="66.09" ry="18"/>
<text text-anchor="middle" x="1577.54" y="-14.3" font-family="Times,serif" font-size="14.00">dre.SetStep</text>
</a>
</g>
</g>
<!-- dre.EntitySuccubusClone&#45;&gt;dre.SetStep -->
<g id="edge8" class="edge">
<title>dre.EntitySuccubusClone&#45;&gt;dre.SetStep</title>
<path fill="none" stroke="black" d="M1049.16,-181.44C1158.42,-147.85 1415.37,-68.85 1525.71,-34.93"/>
<polygon fill="black" stroke="black" points="1526.76,-38.27 1535.29,-31.99 1524.71,-31.58 1526.76,-38.27"/>
<text text-anchor="middle" x="1530.29" y="-35.79" font-family="Times,serif" font-size="14.00">5</text>
</g>
<!-- dre.func_801A046C -->
<g id="node10" class="node">
<title>dre.func_801A046C</title>
<g id="a_node10"><a xlink:href="dre.func_801A046C.svg" xlink:title="dre.func_801A046C">
<ellipse fill="green" stroke="black" cx="1763.54" cy="-18" rx="102.08" ry="18"/>
<text text-anchor="middle" x="1763.54" y="-14.3" font-family="Times,serif" font-size="14.00">dre.func_801A046C</text>
</a>
</g>
</g>
<!-- dre.EntitySuccubusClone&#45;&gt;dre.func_801A046C -->
<g id="edge9" class="edge">
<title>dre.EntitySuccubusClone&#45;&gt;dre.func_801A046C</title>
<path fill="none" stroke="black" d="M1061.8,-182.28C1203.87,-149.22 1547.34,-69.31 1694.61,-35.04"/>
<polygon fill="black" stroke="black" points="1695.5,-38.42 1704.45,-32.75 1693.92,-31.61 1695.5,-38.42"/>
<text text-anchor="middle" x="1699.45" y="-36.55" font-family="Times,serif" font-size="14.00">4</text>
</g>
</g>
</svg>
