<?xml version="1.0" encoding="UTF-8" standalone="no"?>
<!DOCTYPE svg PUBLIC "-//W3C//DTD SVG 1.1//EN"
 "http://www.w3.org/Graphics/SVG/1.1/DTD/svg11.dtd">
<!-- Generated by graphviz version 2.43.0 (0)
 -->
<!-- Title: dre.EntityExplosionSpawn Pages: 1 -->
<svg width="436pt" height="224pt"
 viewBox="0.00 0.00 435.73 224.00" xmlns="http://www.w3.org/2000/svg" xmlns:xlink="http://www.w3.org/1999/xlink">
<g id="graph0" class="graph" transform="scale(1 1) rotate(0) translate(4 220)">
<title>dre.EntityExplosionSpawn</title>
<polygon fill="white" stroke="transparent" points="-4,4 -4,-220 431.73,-220 431.73,4 -4,4"/>
<!-- dre.EntityExplosionSpawn -->
<g id="node1" class="node">
<title>dre.EntityExplosionSpawn</title>
<ellipse fill="green" stroke="black" cx="205.89" cy="-198" rx="134.58" ry="18"/>
<text text-anchor="middle" x="205.89" y="-194.3" font-family="Times,serif" font-size="14.00">dre.EntityExplosionSpawn</text>
</g>
<!-- dre.DestroyEntity -->
<g id="node2" class="node">
<title>dre.DestroyEntity</title>
<g id="a_node2"><a xlink:href="dre.DestroyEntity.svg" xlink:title="dre.DestroyEntity">
<ellipse fill="green" stroke="black" cx="94.89" cy="-18" rx="94.78" ry="18"/>
<text text-anchor="middle" x="94.89" y="-14.3" font-family="Times,serif" font-size="14.00">dre.DestroyEntity</text>
</a>
</g>
</g>
<!-- dre.EntityExplosionSpawn&#45;&gt;dre.DestroyEntity -->
<g id="edge1" class="edge">
<title>dre.EntityExplosionSpawn&#45;&gt;dre.DestroyEntity</title>
<path fill="none" stroke="black" d="M195.25,-179.93C175.69,-148.57 133.93,-81.6 110.92,-44.71"/>
<polygon fill="black" stroke="black" points="113.76,-42.65 105.5,-36.02 107.82,-46.35 113.76,-42.65"/>
<text text-anchor="middle" x="100.5" y="-39.82" font-family="Times,serif" font-size="14.00">1</text>
</g>
<!-- dre.PlaySfxPositional -->
<g id="node3" class="node">
<title>dre.PlaySfxPositional</title>
<g id="a_node3"><a xlink:href="dre.PlaySfxPositional.svg" xlink:title="dre.PlaySfxPositional">
<ellipse fill="green" stroke="black" cx="317.89" cy="-18" rx="109.68" ry="18"/>
<text text-anchor="middle" x="317.89" y="-14.3" font-family="Times,serif" font-size="14.00">dre.PlaySfxPositional</text>
</a>
</g>
</g>
<!-- dre.EntityExplosionSpawn&#45;&gt;dre.PlaySfxPositional -->
<g id="edge2" class="edge">
<title>dre.EntityExplosionSpawn&#45;&gt;dre.PlaySfxPositional</title>
<path fill="none" stroke="black" d="M216.63,-179.93C236.37,-148.57 278.5,-81.6 301.72,-44.71"/>
<polygon fill="black" stroke="black" points="304.82,-46.34 307.19,-36.02 298.9,-42.62 304.82,-46.34"/>
<text text-anchor="middle" x="302.19" y="-39.82" font-family="Times,serif" font-size="14.00">1</text>
</g>
</g>
</svg>
