<?xml version="1.0" encoding="UTF-8" standalone="no"?>
<!DOCTYPE svg PUBLIC "-//W3C//DTD SVG 1.1//EN"
 "http://www.w3.org/Graphics/SVG/1.1/DTD/svg11.dtd">
<!-- Generated by graphviz version 2.43.0 (0)
 -->
<!-- Title: dre.EntityPrizeDrop Pages: 1 -->
<svg width="3726pt" height="404pt"
 viewBox="0.00 0.00 3726.13 404.00" xmlns="http://www.w3.org/2000/svg" xmlns:xlink="http://www.w3.org/1999/xlink">
<g id="graph0" class="graph" transform="scale(1 1) rotate(0) translate(4 400)">
<title>dre.EntityPrizeDrop</title>
<polygon fill="white" stroke="transparent" points="-4,4 -4,-400 3722.13,-400 3722.13,4 -4,4"/>
<!-- dre.EntityPrizeDrop -->
<g id="node1" class="node">
<title>dre.EntityPrizeDrop</title>
<ellipse fill="green" stroke="black" cx="1858.44" cy="-198" rx="104.78" ry="18"/>
<text text-anchor="middle" x="1858.44" y="-194.3" font-family="Times,serif" font-size="14.00">dre.EntityPrizeDrop</text>
</g>
<!-- dra.AllocPrimitives -->
<g id="node2" class="node">
<title>dra.AllocPrimitives</title>
<g id="a_node2"><a xlink:href="dra.AllocPrimitives.svg" xlink:title="dra.AllocPrimitives">
<ellipse fill="green" stroke="black" cx="99.44" cy="-18" rx="99.38" ry="18"/>
<text text-anchor="middle" x="99.44" y="-14.3" font-family="Times,serif" font-size="14.00">dra.AllocPrimitives</text>
</a>
</g>
</g>
<!-- dre.EntityPrizeDrop&#45;&gt;dra.AllocPrimitives -->
<g id="edge1" class="edge">
<title>dre.EntityPrizeDrop&#45;&gt;dra.AllocPrimitives</title>
<path fill="none" stroke="black" d="M1765.2,-189.79C1513.52,-169.93 799.5,-110.87 208.44,-36 199.37,-34.85 189.89,-33.54 180.48,-32.17"/>
<polygon fill="black" stroke="black" points="180.71,-28.66 170.3,-30.66 179.68,-35.59 180.71,-28.66"/>
<text text-anchor="middle" x="165.3" y="-34.46" font-family="Times,serif" font-size="14.00">1</text>
</g>
<!-- dra.CheckCollision -->
<g id="node3" class="node">
<title>dra.CheckCollision</title>
<g id="a_node3"><a xlink:href="dra.CheckCollision.svg" xlink:title="dra.CheckCollision">
<ellipse fill="green" stroke="black" cx="314.44" cy="-18" rx="97.48" ry="18"/>
<text text-anchor="middle" x="314.44" y="-14.3" font-family="Times,serif" font-size="14.00">dra.CheckCollision</text>
</a>
</g>
</g>
<!-- dre.EntityPrizeDrop&#45;&gt;dra.CheckCollision -->
<g id="edge2" class="edge">
<title>dre.EntityPrizeDrop&#45;&gt;dra.CheckCollision</title>
<path fill="none" stroke="black" d="M1769.07,-188.49C1542.87,-166.61 929.48,-105.28 420.44,-36 411.85,-34.83 402.89,-33.53 393.97,-32.17"/>
<polygon fill="black" stroke="black" points="394.35,-28.69 383.93,-30.63 393.28,-35.61 394.35,-28.69"/>
<text text-anchor="middle" x="378.93" y="-34.43" font-family="Times,serif" font-size="14.00">4</text>
</g>
<!-- dra.FreePrimitives -->
<g id="node4" class="node">
<title>dra.FreePrimitives</title>
<g id="a_node4"><a xlink:href="dra.FreePrimitives.svg" xlink:title="dra.FreePrimitives">
<ellipse fill="green" stroke="black" cx="528.44" cy="-18" rx="98.58" ry="18"/>
<text text-anchor="middle" x="528.44" y="-14.3" font-family="Times,serif" font-size="14.00">dra.FreePrimitives</text>
</a>
</g>
</g>
<!-- dre.EntityPrizeDrop&#45;&gt;dra.FreePrimitives -->
<g id="edge3" class="edge">
<title>dre.EntityPrizeDrop&#45;&gt;dra.FreePrimitives</title>
<path fill="none" stroke="black" d="M1776.1,-186.88C1579.03,-162.49 1064.78,-97.92 636.44,-36 627.84,-34.76 618.87,-33.41 609.92,-32.05"/>
<polygon fill="black" stroke="black" points="610.27,-28.56 599.86,-30.5 609.21,-35.48 610.27,-28.56"/>
<text text-anchor="middle" x="594.86" y="-34.3" font-family="Times,serif" font-size="14.00">1</text>
</g>
<!-- dre.AnimateEntity -->
<g id="node5" class="node">
<title>dre.AnimateEntity</title>
<g id="a_node5"><a xlink:href="dre.AnimateEntity.svg" xlink:title="dre.AnimateEntity">
<ellipse fill="green" stroke="black" cx="742.44" cy="-18" rx="96.68" ry="18"/>
<text text-anchor="middle" x="742.44" y="-14.3" font-family="Times,serif" font-size="14.00">dre.AnimateEntity</text>
</a>
</g>
</g>
<!-- dre.EntityPrizeDrop&#45;&gt;dre.AnimateEntity -->
<g id="edge4" class="edge">
<title>dre.EntityPrizeDrop&#45;&gt;dre.AnimateEntity</title>
<path fill="none" stroke="black" d="M1784.31,-185.21C1617.27,-158.63 1198.67,-92 848.44,-36 840.24,-34.69 831.68,-33.32 823.14,-31.95"/>
<polygon fill="black" stroke="black" points="823.57,-28.47 813.14,-30.35 822.46,-35.39 823.57,-28.47"/>
<text text-anchor="middle" x="808.14" y="-34.15" font-family="Times,serif" font-size="14.00">1</text>
</g>
<!-- dre.CheckFieldCollision -->
<g id="node6" class="node">
<title>dre.CheckFieldCollision</title>
<g id="a_node6"><a xlink:href="dre.CheckFieldCollision.svg" xlink:title="dre.CheckFieldCollision">
<ellipse fill="green" stroke="black" cx="978.44" cy="-18" rx="120.78" ry="18"/>
<text text-anchor="middle" x="978.44" y="-14.3" font-family="Times,serif" font-size="14.00">dre.CheckFieldCollision</text>
</a>
</g>
</g>
<!-- dre.EntityPrizeDrop&#45;&gt;dre.CheckFieldCollision -->
<g id="edge5" class="edge">
<title>dre.EntityPrizeDrop&#45;&gt;dre.CheckFieldCollision</title>
<path fill="none" stroke="black" d="M1793.38,-183.84C1634.8,-151.76 1228.83,-69.65 1057.07,-34.9"/>
<polygon fill="black" stroke="black" points="1057.59,-31.44 1047.09,-32.89 1056.2,-38.3 1057.59,-31.44"/>
<text text-anchor="middle" x="1042.09" y="-36.69" font-family="Times,serif" font-size="14.00">2</text>
</g>
<!-- dre.CollectGold -->
<g id="node7" class="node">
<title>dre.CollectGold</title>
<g id="a_node7"><a xlink:href="dre.CollectGold.svg" xlink:title="dre.CollectGold">
<ellipse fill="green" stroke="black" cx="1200.44" cy="-18" rx="83.39" ry="18"/>
<text text-anchor="middle" x="1200.44" y="-14.3" font-family="Times,serif" font-size="14.00">dre.CollectGold</text>
</a>
</g>
</g>
<!-- dre.EntityPrizeDrop&#45;&gt;dre.CollectGold -->
<g id="edge6" class="edge">
<title>dre.EntityPrizeDrop&#45;&gt;dre.CollectGold</title>
<path fill="none" stroke="black" d="M1804.87,-182.51C1683.44,-149.66 1387.91,-69.71 1260.51,-35.25"/>
<polygon fill="black" stroke="black" points="1261.11,-31.79 1250.54,-32.55 1259.28,-38.54 1261.11,-31.79"/>
<text text-anchor="middle" x="1245.54" y="-36.35" font-family="Times,serif" font-size="14.00">1</text>
</g>
<!-- dre.CollectHeart -->
<g id="node8" class="node">
<title>dre.CollectHeart</title>
<g id="a_node8"><a xlink:href="dre.CollectHeart.svg" xlink:title="dre.CollectHeart">
<ellipse fill="green" stroke="black" cx="1390.44" cy="-18" rx="88.28" ry="18"/>
<text text-anchor="middle" x="1390.44" y="-14.3" font-family="Times,serif" font-size="14.00">dre.CollectHeart</text>
</a>
</g>
</g>
<!-- dre.EntityPrizeDrop&#45;&gt;dre.CollectHeart -->
<g id="edge7" class="edge">
<title>dre.EntityPrizeDrop&#45;&gt;dre.CollectHeart</title>
<path fill="none" stroke="black" d="M1817.32,-181.36C1731.26,-148.63 1532.48,-73.02 1439.74,-37.75"/>
<polygon fill="black" stroke="black" points="1440.9,-34.45 1430.31,-34.16 1438.41,-40.99 1440.9,-34.45"/>
<text text-anchor="middle" x="1425.31" y="-37.96" font-family="Times,serif" font-size="14.00">1</text>
</g>
<!-- dre.CollectHeartVessel -->
<g id="node9" class="node">
<title>dre.CollectHeartVessel</title>
<g id="a_node9"><a xlink:href="dre.CollectHeartVessel.svg" xlink:title="dre.CollectHeartVessel">
<ellipse fill="green" stroke="black" cx="1614.44" cy="-18" rx="117.78" ry="18"/>
<text text-anchor="middle" x="1614.44" y="-14.3" font-family="Times,serif" font-size="14.00">dre.CollectHeartVessel</text>
</a>
</g>
</g>
<!-- dre.EntityPrizeDrop&#45;&gt;dre.CollectHeartVessel -->
<g id="edge8" class="edge">
<title>dre.EntityPrizeDrop&#45;&gt;dre.CollectHeartVessel</title>
<path fill="none" stroke="black" d="M1835.49,-180.25C1791.53,-148.18 1695.41,-78.07 1645.66,-41.78"/>
<polygon fill="black" stroke="black" points="1647.65,-38.9 1637.51,-35.83 1643.53,-44.55 1647.65,-38.9"/>
<text text-anchor="middle" x="1632.51" y="-39.63" font-family="Times,serif" font-size="14.00">1</text>
</g>
<!-- dre.CollectLifeVessel -->
<g id="node10" class="node">
<title>dre.CollectLifeVessel</title>
<g id="a_node10"><a xlink:href="dre.CollectLifeVessel.svg" xlink:title="dre.CollectLifeVessel">
<ellipse fill="green" stroke="black" cx="1858.44" cy="-18" rx="108.58" ry="18"/>
<text text-anchor="middle" x="1858.44" y="-14.3" font-family="Times,serif" font-size="14.00">dre.CollectLifeVessel</text>
</a>
</g>
</g>
<!-- dre.EntityPrizeDrop&#45;&gt;dre.CollectLifeVessel -->
<g id="edge9" class="edge">
<title>dre.EntityPrizeDrop&#45;&gt;dre.CollectLifeVessel</title>
<path fill="none" stroke="black" d="M1858.44,-179.93C1858.44,-148.97 1858.44,-83.3 1858.44,-46.13"/>
<polygon fill="black" stroke="black" points="1861.94,-46.02 1858.44,-36.02 1854.94,-46.02 1861.94,-46.02"/>
<text text-anchor="middle" x="1853.44" y="-39.82" font-family="Times,serif" font-size="14.00">1</text>
</g>
<!-- dre.CollectSubweapon -->
<g id="node11" class="node">
<title>dre.CollectSubweapon</title>
<g id="a_node11"><a xlink:href="dre.CollectSubweapon.svg" xlink:title="dre.CollectSubweapon">
<ellipse fill="green" stroke="black" cx="2100.44" cy="-18" rx="115.08" ry="18"/>
<text text-anchor="middle" x="2100.44" y="-14.3" font-family="Times,serif" font-size="14.00">dre.CollectSubweapon</text>
</a>
</g>
</g>
<!-- dre.EntityPrizeDrop&#45;&gt;dre.CollectSubweapon -->
<g id="edge10" class="edge">
<title>dre.EntityPrizeDrop&#45;&gt;dre.CollectSubweapon</title>
<path fill="none" stroke="black" d="M1881.21,-180.25C1924.81,-148.18 2020.14,-78.07 2069.48,-41.78"/>
<polygon fill="black" stroke="black" points="2071.58,-44.58 2077.56,-35.83 2067.43,-38.94 2071.58,-44.58"/>
<text text-anchor="middle" x="2072.56" y="-39.63" font-family="Times,serif" font-size="14.00">1</text>
</g>
<!-- dre.DestroyCurrentEntity -->
<g id="node12" class="node">
<title>dre.DestroyCurrentEntity</title>
<g id="a_node12"><a xlink:href="dre.DestroyCurrentEntity.svg" xlink:title="dre.DestroyCurrentEntity">
<ellipse fill="green" stroke="black" cx="2364.44" cy="-18" rx="131.08" ry="18"/>
<text text-anchor="middle" x="2364.44" y="-14.3" font-family="Times,serif" font-size="14.00">dre.DestroyCurrentEntity</text>
</a>
</g>
</g>
<!-- dre.EntityPrizeDrop&#45;&gt;dre.DestroyCurrentEntity -->
<g id="edge11" class="edge">
<title>dre.EntityPrizeDrop&#45;&gt;dre.DestroyCurrentEntity</title>
<path fill="none" stroke="black" d="M1902.46,-181.52C1994.72,-149.06 2208.18,-73.97 2309.35,-38.38"/>
<polygon fill="black" stroke="black" points="2310.8,-41.58 2319.07,-34.96 2308.48,-34.98 2310.8,-41.58"/>
<text text-anchor="middle" x="2314.07" y="-38.76" font-family="Times,serif" font-size="14.00">1</text>
</g>
<!-- dre.DestroyEntity -->
<g id="node13" class="node">
<title>dre.DestroyEntity</title>
<g id="a_node13"><a xlink:href="dre.DestroyEntity.svg" xlink:title="dre.DestroyEntity">
<ellipse fill="green" stroke="black" cx="2608.44" cy="-18" rx="94.78" ry="18"/>
<text text-anchor="middle" x="2608.44" y="-14.3" font-family="Times,serif" font-size="14.00">dre.DestroyEntity</text>
</a>
</g>
</g>
<!-- dre.EntityPrizeDrop&#45;&gt;dre.DestroyEntity -->
<g id="edge12" class="edge">
<title>dre.EntityPrizeDrop&#45;&gt;dre.DestroyEntity</title>
<path fill="none" stroke="black" d="M1917.29,-183.03C2054.8,-150.4 2396.46,-69.31 2541.56,-34.87"/>
<polygon fill="black" stroke="black" points="2542.74,-38.19 2551.66,-32.48 2541.12,-31.38 2542.74,-38.19"/>
<text text-anchor="middle" x="2546.66" y="-36.28" font-family="Times,serif" font-size="14.00">2</text>
</g>
<!-- dre.FallEntity -->
<g id="node14" class="node">
<title>dre.FallEntity</title>
<g id="a_node14"><a xlink:href="dre.FallEntity.svg" xlink:title="dre.FallEntity">
<ellipse fill="green" stroke="black" cx="2796.44" cy="-18" rx="75.29" ry="18"/>
<text text-anchor="middle" x="2796.44" y="-14.3" font-family="Times,serif" font-size="14.00">dre.FallEntity</text>
</a>
</g>
</g>
<!-- dre.EntityPrizeDrop&#45;&gt;dre.FallEntity -->
<g id="edge13" class="edge">
<title>dre.EntityPrizeDrop&#45;&gt;dre.FallEntity</title>
<path fill="none" stroke="black" d="M1927.13,-184.37C2072.26,-157.62 2420.74,-93.01 2712.44,-36 2718.48,-34.82 2724.76,-33.58 2731.04,-32.32"/>
<polygon fill="black" stroke="black" points="2731.77,-35.75 2740.89,-30.35 2730.39,-28.88 2731.77,-35.75"/>
<text text-anchor="middle" x="2735.89" y="-34.15" font-family="Times,serif" font-size="14.00">2</text>
</g>
<!-- dre.InitializeEntity -->
<g id="node15" class="node">
<title>dre.InitializeEntity</title>
<g id="a_node15"><a xlink:href="dre.InitializeEntity.svg" xlink:title="dre.InitializeEntity">
<ellipse fill="green" stroke="black" cx="2988.44" cy="-18" rx="98.58" ry="18"/>
<text text-anchor="middle" x="2988.44" y="-14.3" font-family="Times,serif" font-size="14.00">dre.InitializeEntity</text>
</a>
</g>
</g>
<!-- dre.EntityPrizeDrop&#45;&gt;dre.InitializeEntity -->
<g id="edge14" class="edge">
<title>dre.EntityPrizeDrop&#45;&gt;dre.InitializeEntity</title>
<path fill="none" stroke="black" d="M1933.02,-185.25C2135.59,-153.34 2694.94,-65.23 2906.21,-31.95"/>
<polygon fill="black" stroke="black" points="2906.97,-35.38 2916.3,-30.36 2905.88,-28.46 2906.97,-35.38"/>
<text text-anchor="middle" x="2911.3" y="-34.16" font-family="Times,serif" font-size="14.00">1</text>
</g>
<!-- dre.MoveEntity -->
<g id="node16" class="node">
<title>dre.MoveEntity</title>
<g id="a_node16"><a xlink:href="dre.MoveEntity.svg" xlink:title="dre.MoveEntity">
<ellipse fill="green" stroke="black" cx="3188.44" cy="-18" rx="83.39" ry="18"/>
<text text-anchor="middle" x="3188.44" y="-14.3" font-family="Times,serif" font-size="14.00">dre.MoveEntity</text>
</a>
</g>
</g>
<!-- dre.EntityPrizeDrop&#45;&gt;dre.MoveEntity -->
<g id="edge15" class="edge">
<title>dre.EntityPrizeDrop&#45;&gt;dre.MoveEntity</title>
<path fill="none" stroke="black" d="M1943.84,-187.49C2145.11,-164.72 2664.75,-103.91 3096.44,-36 3103.69,-34.86 3111.25,-33.59 3118.78,-32.28"/>
<polygon fill="black" stroke="black" points="3119.4,-35.72 3128.64,-30.53 3118.18,-28.83 3119.4,-35.72"/>
<text text-anchor="middle" x="3123.64" y="-34.33" font-family="Times,serif" font-size="14.00">2</text>
</g>
<!-- dre.func_8018CAB0 -->
<g id="node17" class="node">
<title>dre.func_8018CAB0</title>
<g id="a_node17"><a xlink:href="dre.func_8018CAB0.svg" xlink:title="dre.func_8018CAB0">
<ellipse fill="green" stroke="black" cx="3392.44" cy="-18" rx="102.88" ry="18"/>
<text text-anchor="middle" x="3392.44" y="-14.3" font-family="Times,serif" font-size="14.00">dre.func_8018CAB0</text>
</a>
</g>
</g>
<!-- dre.EntityPrizeDrop&#45;&gt;dre.func_8018CAB0 -->
<g id="edge16" class="edge">
<title>dre.EntityPrizeDrop&#45;&gt;dre.func_8018CAB0</title>
<path fill="none" stroke="black" d="M1946.37,-188.22C2169.63,-165.66 2776.45,-102.76 3280.44,-36 3289.63,-34.78 3299.23,-33.44 3308.78,-32.05"/>
<polygon fill="black" stroke="black" points="3309.31,-35.51 3318.7,-30.6 3308.29,-28.59 3309.31,-35.51"/>
<text text-anchor="middle" x="3313.7" y="-34.4" font-family="Times,serif" font-size="14.00">1</text>
</g>
<!-- dre.func_8018CB34 -->
<g id="node18" class="node">
<title>dre.func_8018CB34</title>
<g id="a_node18"><a xlink:href="dre.func_8018CB34.svg" xlink:title="dre.func_8018CB34">
<ellipse fill="green" stroke="black" cx="3615.44" cy="-18" rx="102.88" ry="18"/>
<text text-anchor="middle" x="3615.44" y="-14.3" font-family="Times,serif" font-size="14.00">dre.func_8018CB34</text>
</a>
</g>
</g>
<!-- dre.EntityPrizeDrop&#45;&gt;dre.func_8018CB34 -->
<g id="edge17" class="edge">
<title>dre.EntityPrizeDrop&#45;&gt;dre.func_8018CB34</title>
<path fill="none" stroke="black" d="M1951.45,-189.69C2202.49,-169.57 2914.7,-109.95 3504.44,-36 3513.63,-34.85 3523.23,-33.54 3532.77,-32.17"/>
<polygon fill="black" stroke="black" points="3533.29,-35.63 3542.68,-30.72 3532.28,-28.7 3533.29,-35.63"/>
<text text-anchor="middle" x="3537.68" y="-34.52" font-family="Times,serif" font-size="14.00">3</text>
</g>
<!-- dre.EntityEquipItemDrop -->
<g id="node19" class="node">
<title>dre.EntityEquipItemDrop</title>
<g id="a_node19"><a xlink:href="dre.EntityEquipItemDrop.svg" xlink:title="dre.EntityEquipItemDrop">
<ellipse fill="green" stroke="black" cx="1858.44" cy="-378" rx="129.98" ry="18"/>
<text text-anchor="middle" x="1858.44" y="-374.3" font-family="Times,serif" font-size="14.00">dre.EntityEquipItemDrop</text>
</a>
</g>
</g>
<!-- dre.EntityEquipItemDrop&#45;&gt;dre.EntityPrizeDrop -->
<g id="edge18" class="edge">
<title>dre.EntityEquipItemDrop&#45;&gt;dre.EntityPrizeDrop</title>
<path fill="none" stroke="black" d="M1858.44,-359.93C1858.44,-328.97 1858.44,-263.3 1858.44,-226.13"/>
<polygon fill="black" stroke="black" points="1861.94,-226.02 1858.44,-216.02 1854.94,-226.02 1861.94,-226.02"/>
<text text-anchor="middle" x="1853.44" y="-348.73" font-family="Times,serif" font-size="14.00">1</text>
</g>
</g>
</svg>
