<?xml version="1.0" encoding="UTF-8" standalone="no"?>
<!DOCTYPE svg PUBLIC "-//W3C//DTD SVG 1.1//EN"
 "http://www.w3.org/Graphics/SVG/1.1/DTD/svg11.dtd">
<!-- Generated by graphviz version 2.43.0 (0)
 -->
<!-- Title: dre.CutsceneRun Pages: 1 -->
<svg width="299pt" height="404pt"
 viewBox="0.00 0.00 299.17 404.00" xmlns="http://www.w3.org/2000/svg" xmlns:xlink="http://www.w3.org/1999/xlink">
<g id="graph0" class="graph" transform="scale(1 1) rotate(0) translate(4 400)">
<title>dre.CutsceneRun</title>
<polygon fill="white" stroke="transparent" points="-4,4 -4,-400 295.17,-400 295.17,4 -4,4"/>
<!-- dre.CutsceneRun -->
<g id="node1" class="node">
<title>dre.CutsceneRun</title>
<ellipse fill="green" stroke="black" cx="145.59" cy="-198" rx="90.98" ry="18"/>
<text text-anchor="middle" x="145.59" y="-194.3" font-family="Times,serif" font-size="14.00">dre.CutsceneRun</text>
</g>
<!-- dre.DestroyEntity -->
<g id="node2" class="node">
<title>dre.DestroyEntity</title>
<g id="a_node2"><a xlink:href="dre.DestroyEntity.svg" xlink:title="dre.DestroyEntity">
<ellipse fill="green" stroke="black" cx="145.59" cy="-18" rx="94.78" ry="18"/>
<text text-anchor="middle" x="145.59" y="-14.3" font-family="Times,serif" font-size="14.00">dre.DestroyEntity</text>
</a>
</g>
</g>
<!-- dre.CutsceneRun&#45;&gt;dre.DestroyEntity -->
<g id="edge1" class="edge">
<title>dre.CutsceneRun&#45;&gt;dre.DestroyEntity</title>
<path fill="none" stroke="black" d="M145.59,-179.93C145.59,-148.97 145.59,-83.3 145.59,-46.13"/>
<polygon fill="black" stroke="black" points="149.09,-46.02 145.59,-36.02 142.09,-46.02 149.09,-46.02"/>
<text text-anchor="middle" x="140.59" y="-39.82" font-family="Times,serif" font-size="14.00">2</text>
</g>
<!-- dre.EntitySuccubusCutscene -->
<g id="node3" class="node">
<title>dre.EntitySuccubusCutscene</title>
<g id="a_node3"><a xlink:href="dre.EntitySuccubusCutscene.svg" xlink:title="dre.EntitySuccubusCutscene">
<ellipse fill="green" stroke="black" cx="145.59" cy="-378" rx="145.67" ry="18"/>
<text text-anchor="middle" x="145.59" y="-374.3" font-family="Times,serif" font-size="14.00">dre.EntitySuccubusCutscene</text>
</a>
</g>
</g>
<!-- dre.EntitySuccubusCutscene&#45;&gt;dre.CutsceneRun -->
<g id="edge2" class="edge">
<title>dre.EntitySuccubusCutscene&#45;&gt;dre.CutsceneRun</title>
<path fill="none" stroke="black" d="M145.59,-359.93C145.59,-328.97 145.59,-263.3 145.59,-226.13"/>
<polygon fill="black" stroke="black" points="149.09,-226.02 145.59,-216.02 142.09,-226.02 149.09,-226.02"/>
<text text-anchor="middle" x="140.59" y="-348.73" font-family="Times,serif" font-size="14.00">1</text>
</g>
</g>
</svg>
