<?xml version="1.0" encoding="UTF-8" standalone="no"?>
<!DOCTYPE svg PUBLIC "-//W3C//DTD SVG 1.1//EN"
 "http://www.w3.org/Graphics/SVG/1.1/DTD/svg11.dtd">
<!-- Generated by graphviz version 2.43.0 (0)
 -->
<!-- Title: dre.func_8019BB94 Pages: 1 -->
<svg width="495pt" height="404pt"
 viewBox="0.00 0.00 494.64 404.00" xmlns="http://www.w3.org/2000/svg" xmlns:xlink="http://www.w3.org/1999/xlink">
<g id="graph0" class="graph" transform="scale(1 1) rotate(0) translate(4 400)">
<title>dre.func_8019BB94</title>
<polygon fill="white" stroke="transparent" points="-4,4 -4,-400 490.64,-400 490.64,4 -4,4"/>
<!-- dre.func_8019BB94 -->
<g id="node1" class="node">
<title>dre.func_8019BB94</title>
<ellipse fill="green" stroke="black" cx="241.34" cy="-198" rx="102.88" ry="18"/>
<text text-anchor="middle" x="241.34" y="-194.3" font-family="Times,serif" font-size="14.00">dre.func_8019BB94</text>
</g>
<!-- dra.PlaySfx -->
<g id="node2" class="node">
<title>dra.PlaySfx</title>
<g id="a_node2"><a xlink:href="dra.PlaySfx.svg" xlink:title="dra.PlaySfx">
<ellipse fill="green" stroke="black" cx="64.34" cy="-18" rx="64.19" ry="18"/>
<text text-anchor="middle" x="64.34" y="-14.3" font-family="Times,serif" font-size="14.00">dra.PlaySfx</text>
</a>
</g>
</g>
<!-- dre.func_8019BB94&#45;&gt;dra.PlaySfx -->
<g id="edge1" class="edge">
<title>dre.func_8019BB94&#45;&gt;dra.PlaySfx</title>
<path fill="none" stroke="black" d="M224.37,-179.93C192.63,-148.01 124.2,-79.19 87.97,-42.76"/>
<polygon fill="black" stroke="black" points="90.28,-40.12 80.75,-35.5 85.32,-45.06 90.28,-40.12"/>
<text text-anchor="middle" x="75.75" y="-39.3" font-family="Times,serif" font-size="14.00">1</text>
</g>
<!-- dre.DestroyEntity -->
<g id="node3" class="node">
<title>dre.DestroyEntity</title>
<g id="a_node3"><a xlink:href="dre.DestroyEntity.svg" xlink:title="dre.DestroyEntity">
<ellipse fill="green" stroke="black" cx="241.34" cy="-18" rx="94.78" ry="18"/>
<text text-anchor="middle" x="241.34" y="-14.3" font-family="Times,serif" font-size="14.00">dre.DestroyEntity</text>
</a>
</g>
</g>
<!-- dre.func_8019BB94&#45;&gt;dre.DestroyEntity -->
<g id="edge2" class="edge">
<title>dre.func_8019BB94&#45;&gt;dre.DestroyEntity</title>
<path fill="none" stroke="black" d="M241.34,-179.93C241.34,-148.97 241.34,-83.3 241.34,-46.13"/>
<polygon fill="black" stroke="black" points="244.84,-46.02 241.34,-36.02 237.84,-46.02 244.84,-46.02"/>
<text text-anchor="middle" x="236.34" y="-39.82" font-family="Times,serif" font-size="14.00">1</text>
</g>
<!-- dre.SetStep -->
<g id="node4" class="node">
<title>dre.SetStep</title>
<g id="a_node4"><a xlink:href="dre.SetStep.svg" xlink:title="dre.SetStep">
<ellipse fill="green" stroke="black" cx="420.34" cy="-18" rx="66.09" ry="18"/>
<text text-anchor="middle" x="420.34" y="-14.3" font-family="Times,serif" font-size="14.00">dre.SetStep</text>
</a>
</g>
</g>
<!-- dre.func_8019BB94&#45;&gt;dre.SetStep -->
<g id="edge3" class="edge">
<title>dre.func_8019BB94&#45;&gt;dre.SetStep</title>
<path fill="none" stroke="black" d="M258.51,-179.93C290.61,-148.01 359.81,-79.19 396.45,-42.76"/>
<polygon fill="black" stroke="black" points="399.13,-45.03 403.75,-35.5 394.2,-40.07 399.13,-45.03"/>
<text text-anchor="middle" x="398.75" y="-39.3" font-family="Times,serif" font-size="14.00">1</text>
</g>
<!-- dre.EntityPrizeDrop -->
<g id="node5" class="node">
<title>dre.EntityPrizeDrop</title>
<g id="a_node5"><a xlink:href="dre.EntityPrizeDrop.svg" xlink:title="dre.EntityPrizeDrop">
<ellipse fill="green" stroke="black" cx="241.34" cy="-378" rx="104.78" ry="18"/>
<text text-anchor="middle" x="241.34" y="-374.3" font-family="Times,serif" font-size="14.00">dre.EntityPrizeDrop</text>
</a>
</g>
</g>
<!-- dre.EntityPrizeDrop&#45;&gt;dre.func_8019BB94 -->
<g id="edge4" class="edge">
<title>dre.EntityPrizeDrop&#45;&gt;dre.func_8019BB94</title>
<path fill="none" stroke="black" d="M241.34,-359.93C241.34,-328.97 241.34,-263.3 241.34,-226.13"/>
<polygon fill="black" stroke="black" points="244.84,-226.02 241.34,-216.02 237.84,-226.02 244.84,-226.02"/>
<text text-anchor="middle" x="236.34" y="-348.73" font-family="Times,serif" font-size="14.00">1</text>
</g>
</g>
</svg>
