<?xml version="1.0" encoding="UTF-8" standalone="no"?>
<!DOCTYPE svg PUBLIC "-//W3C//DTD SVG 1.1//EN"
 "http://www.w3.org/Graphics/SVG/1.1/DTD/svg11.dtd">
<!-- Generated by graphviz version 2.43.0 (0)
 -->
<!-- Title: dre.func_8019AF88 Pages: 1 -->
<svg width="548pt" height="224pt"
 viewBox="0.00 0.00 548.28 224.00" xmlns="http://www.w3.org/2000/svg" xmlns:xlink="http://www.w3.org/1999/xlink">
<g id="graph0" class="graph" transform="scale(1 1) rotate(0) translate(4 220)">
<title>dre.func_8019AF88</title>
<polygon fill="white" stroke="transparent" points="-4,4 -4,-220 544.28,-220 544.28,4 -4,4"/>
<!-- dre.func_8019AF88 -->
<g id="node1" class="node">
<title>dre.func_8019AF88</title>
<ellipse fill="green" stroke="black" cx="280.04" cy="-18" rx="101.28" ry="18"/>
<text text-anchor="middle" x="280.04" y="-14.3" font-family="Times,serif" font-size="14.00">dre.func_8019AF88</text>
</g>
<!-- dre.EntityPinkBallProjectile -->
<g id="node2" class="node">
<title>dre.EntityPinkBallProjectile</title>
<g id="a_node2"><a xlink:href="dre.EntityPinkBallProjectile.svg" xlink:title="dre.EntityPinkBallProjectile">
<ellipse fill="green" stroke="black" cx="141.04" cy="-198" rx="141.07" ry="18"/>
<text text-anchor="middle" x="141.04" y="-194.3" font-family="Times,serif" font-size="14.00">dre.EntityPinkBallProjectile</text>
</a>
</g>
</g>
<!-- dre.EntityPinkBallProjectile&#45;&gt;dre.func_8019AF88 -->
<g id="edge1" class="edge">
<title>dre.EntityPinkBallProjectile&#45;&gt;dre.func_8019AF88</title>
<path fill="none" stroke="black" d="M154.37,-179.93C178.96,-148.43 231.6,-81.03 260.33,-44.24"/>
<polygon fill="black" stroke="black" points="263.35,-46.05 266.75,-36.02 257.84,-41.74 263.35,-46.05"/>
<text text-anchor="middle" x="149.37" y="-168.73" font-family="Times,serif" font-size="14.00">1</text>
</g>
<!-- dre.EntitySoulStealOrb -->
<g id="node3" class="node">
<title>dre.EntitySoulStealOrb</title>
<g id="a_node3"><a xlink:href="dre.EntitySoulStealOrb.svg" xlink:title="dre.EntitySoulStealOrb">
<ellipse fill="green" stroke="black" cx="420.04" cy="-198" rx="120.48" ry="18"/>
<text text-anchor="middle" x="420.04" y="-194.3" font-family="Times,serif" font-size="14.00">dre.EntitySoulStealOrb</text>
</a>
</g>
</g>
<!-- dre.EntitySoulStealOrb&#45;&gt;dre.func_8019AF88 -->
<g id="edge2" class="edge">
<title>dre.EntitySoulStealOrb&#45;&gt;dre.func_8019AF88</title>
<path fill="none" stroke="black" d="M406.61,-179.93C381.84,-148.43 328.83,-81.03 299.89,-44.24"/>
<polygon fill="black" stroke="black" points="302.35,-41.71 293.42,-36.02 296.85,-46.04 302.35,-41.71"/>
<text text-anchor="middle" x="401.61" y="-168.73" font-family="Times,serif" font-size="14.00">1</text>
</g>
</g>
</svg>
