<?xml version="1.0" encoding="UTF-8" standalone="no"?>
<!DOCTYPE svg PUBLIC "-//W3C//DTD SVG 1.1//EN"
 "http://www.w3.org/Graphics/SVG/1.1/DTD/svg11.dtd">
<!-- Generated by graphviz version 2.43.0 (0)
 -->
<!-- Title: dre.func_8019E7C4 Pages: 1 -->
<svg width="1292pt" height="224pt"
 viewBox="0.00 0.00 1292.13 224.00" xmlns="http://www.w3.org/2000/svg" xmlns:xlink="http://www.w3.org/1999/xlink">
<g id="graph0" class="graph" transform="scale(1 1) rotate(0) translate(4 220)">
<title>dre.func_8019E7C4</title>
<polygon fill="white" stroke="transparent" points="-4,4 -4,-220 1288.13,-220 1288.13,4 -4,4"/>
<!-- dre.func_8019E7C4 -->
<g id="node1" class="node">
<title>dre.func_8019E7C4</title>
<ellipse fill="red" stroke="black" cx="633.44" cy="-198" rx="102.88" ry="18"/>
<text text-anchor="middle" x="633.44" y="-194.3" font-family="Times,serif" font-size="14.00">dre.func_8019E7C4</text>
</g>
<!-- dra.AllocPrimitives -->
<g id="node2" class="node">
<title>dra.AllocPrimitives</title>
<g id="a_node2"><a xlink:href="dra.AllocPrimitives.svg" xlink:title="dra.AllocPrimitives">
<ellipse fill="green" stroke="black" cx="99.44" cy="-18" rx="99.38" ry="18"/>
<text text-anchor="middle" x="99.44" y="-14.3" font-family="Times,serif" font-size="14.00">dra.AllocPrimitives</text>
</a>
</g>
</g>
<!-- dre.func_8019E7C4&#45;&gt;dra.AllocPrimitives -->
<g id="edge1" class="edge">
<title>dre.func_8019E7C4&#45;&gt;dra.AllocPrimitives</title>
<path fill="none" stroke="black" d="M587.91,-181.82C490.08,-149.21 260.12,-72.56 154.39,-37.32"/>
<polygon fill="black" stroke="black" points="155.45,-33.98 144.85,-34.14 153.23,-40.62 155.45,-33.98"/>
<text text-anchor="middle" x="139.85" y="-37.94" font-family="Times,serif" font-size="14.00">1</text>
</g>
<!-- dra.FreePrimitives -->
<g id="node3" class="node">
<title>dra.FreePrimitives</title>
<g id="a_node3"><a xlink:href="dra.FreePrimitives.svg" xlink:title="dra.FreePrimitives">
<ellipse fill="green" stroke="black" cx="315.44" cy="-18" rx="98.58" ry="18"/>
<text text-anchor="middle" x="315.44" y="-14.3" font-family="Times,serif" font-size="14.00">dra.FreePrimitives</text>
</a>
</g>
</g>
<!-- dre.func_8019E7C4&#45;&gt;dra.FreePrimitives -->
<g id="edge2" class="edge">
<title>dre.func_8019E7C4&#45;&gt;dra.FreePrimitives</title>
<path fill="none" stroke="black" d="M604.38,-180.73C546.8,-148.5 418.25,-76.55 353.81,-40.48"/>
<polygon fill="black" stroke="black" points="355.22,-37.25 344.78,-35.42 351.8,-43.36 355.22,-37.25"/>
<text text-anchor="middle" x="339.78" y="-39.22" font-family="Times,serif" font-size="14.00">1</text>
</g>
<!-- dre.DestroyEntity -->
<g id="node4" class="node">
<title>dre.DestroyEntity</title>
<g id="a_node4"><a xlink:href="dre.DestroyEntity.svg" xlink:title="dre.DestroyEntity">
<ellipse fill="green" stroke="black" cx="527.44" cy="-18" rx="94.78" ry="18"/>
<text text-anchor="middle" x="527.44" y="-14.3" font-family="Times,serif" font-size="14.00">dre.DestroyEntity</text>
</a>
</g>
</g>
<!-- dre.func_8019E7C4&#45;&gt;dre.DestroyEntity -->
<g id="edge3" class="edge">
<title>dre.func_8019E7C4&#45;&gt;dre.DestroyEntity</title>
<path fill="none" stroke="black" d="M623.28,-179.93C604.6,-148.57 564.72,-81.6 542.75,-44.71"/>
<polygon fill="black" stroke="black" points="545.7,-42.82 537.57,-36.02 539.68,-46.4 545.7,-42.82"/>
<text text-anchor="middle" x="532.57" y="-39.82" font-family="Times,serif" font-size="14.00">1</text>
</g>
<!-- dre.InitializeEntity -->
<g id="node5" class="node">
<title>dre.InitializeEntity</title>
<g id="a_node5"><a xlink:href="dre.InitializeEntity.svg" xlink:title="dre.InitializeEntity">
<ellipse fill="green" stroke="black" cx="739.44" cy="-18" rx="98.58" ry="18"/>
<text text-anchor="middle" x="739.44" y="-14.3" font-family="Times,serif" font-size="14.00">dre.InitializeEntity</text>
</a>
</g>
</g>
<!-- dre.func_8019E7C4&#45;&gt;dre.InitializeEntity -->
<g id="edge4" class="edge">
<title>dre.func_8019E7C4&#45;&gt;dre.InitializeEntity</title>
<path fill="none" stroke="black" d="M643.6,-179.93C662.28,-148.57 702.16,-81.6 724.13,-44.71"/>
<polygon fill="black" stroke="black" points="727.2,-46.4 729.31,-36.02 721.18,-42.82 727.2,-46.4"/>
<text text-anchor="middle" x="724.31" y="-39.82" font-family="Times,serif" font-size="14.00">1</text>
</g>
<!-- dre.func_8019E1C8 -->
<g id="node6" class="node">
<title>dre.func_8019E1C8</title>
<g id="a_node6"><a xlink:href="dre.func_8019E1C8.svg" xlink:title="dre.func_8019E1C8">
<ellipse fill="red" stroke="black" cx="958.44" cy="-18" rx="102.88" ry="18"/>
<text text-anchor="middle" x="958.44" y="-14.3" font-family="Times,serif" font-size="14.00">dre.func_8019E1C8</text>
</a>
</g>
</g>
<!-- dre.func_8019E7C4&#45;&gt;dre.func_8019E1C8 -->
<g id="edge5" class="edge">
<title>dre.func_8019E7C4&#45;&gt;dre.func_8019E1C8</title>
<path fill="none" stroke="black" d="M663.14,-180.73C722.11,-148.44 853.91,-76.25 919.63,-40.25"/>
<polygon fill="black" stroke="black" points="921.36,-43.3 928.45,-35.42 918,-37.16 921.36,-43.3"/>
<text text-anchor="middle" x="923.45" y="-39.22" font-family="Times,serif" font-size="14.00">1</text>
</g>
<!-- dre.func_8019E3C8 -->
<g id="node7" class="node">
<title>dre.func_8019E3C8</title>
<g id="a_node7"><a xlink:href="dre.func_8019E3C8.svg" xlink:title="dre.func_8019E3C8">
<ellipse fill="red" stroke="black" cx="1181.44" cy="-18" rx="102.88" ry="18"/>
<text text-anchor="middle" x="1181.44" y="-14.3" font-family="Times,serif" font-size="14.00">dre.func_8019E3C8</text>
</a>
</g>
</g>
<!-- dre.func_8019E7C4&#45;&gt;dre.func_8019E3C8 -->
<g id="edge6" class="edge">
<title>dre.func_8019E7C4&#45;&gt;dre.func_8019E3C8</title>
<path fill="none" stroke="black" d="M680.16,-181.82C780.56,-149.21 1016.55,-72.56 1125.06,-37.32"/>
<polygon fill="black" stroke="black" points="1126.41,-40.56 1134.84,-34.14 1124.25,-33.9 1126.41,-40.56"/>
<text text-anchor="middle" x="1129.84" y="-37.94" font-family="Times,serif" font-size="14.00">1</text>
</g>
</g>
</svg>
