<?xml version="1.0" encoding="UTF-8" standalone="no"?>
<!DOCTYPE svg PUBLIC "-//W3C//DTD SVG 1.1//EN"
 "http://www.w3.org/Graphics/SVG/1.1/DTD/svg11.dtd">
<!-- Generated by graphviz version 2.43.0 (0)
 -->
<!-- Title: dre.func_80198F18 Pages: 1 -->
<svg width="608pt" height="404pt"
 viewBox="0.00 0.00 608.17 404.00" xmlns="http://www.w3.org/2000/svg" xmlns:xlink="http://www.w3.org/1999/xlink">
<g id="graph0" class="graph" transform="scale(1 1) rotate(0) translate(4 400)">
<title>dre.func_80198F18</title>
<polygon fill="white" stroke="transparent" points="-4,4 -4,-400 604.17,-400 604.17,4 -4,4"/>
<!-- dre.func_80198F18 -->
<g id="node1" class="node">
<title>dre.func_80198F18</title>
<ellipse fill="red" stroke="black" cx="343.78" cy="-198" rx="100.98" ry="18"/>
<text text-anchor="middle" x="343.78" y="-194.3" font-family="Times,serif" font-size="14.00">dre.func_80198F18</text>
</g>
<!-- dre.CreateEntityWhenInVerticalRange -->
<g id="node2" class="node">
<title>dre.CreateEntityWhenInVerticalRange</title>
<g id="a_node2"><a xlink:href="dre.CreateEntityWhenInVerticalRange.svg" xlink:title="dre.CreateEntityWhenInVerticalRange">
<ellipse fill="green" stroke="black" cx="189.78" cy="-18" rx="189.57" ry="18"/>
<text text-anchor="middle" x="189.78" y="-14.3" font-family="Times,serif" font-size="14.00">dre.CreateEntityWhenInVerticalRange</text>
</a>
</g>
</g>
<!-- dre.func_80198F18&#45;&gt;dre.CreateEntityWhenInVerticalRange -->
<g id="edge1" class="edge">
<title>dre.func_80198F18&#45;&gt;dre.CreateEntityWhenInVerticalRange</title>
<path fill="none" stroke="black" d="M329.02,-179.93C301.65,-148.3 242.96,-80.46 211.22,-43.78"/>
<polygon fill="black" stroke="black" points="213.69,-41.29 204.5,-36.02 208.4,-45.87 213.69,-41.29"/>
<text text-anchor="middle" x="199.5" y="-39.82" font-family="Times,serif" font-size="14.00">1</text>
</g>
<!-- dre.func_80198E74 -->
<g id="node3" class="node">
<title>dre.func_80198E74</title>
<g id="a_node3"><a xlink:href="dre.func_80198E74.svg" xlink:title="dre.func_80198E74">
<ellipse fill="green" stroke="black" cx="498.78" cy="-18" rx="101.28" ry="18"/>
<text text-anchor="middle" x="498.78" y="-14.3" font-family="Times,serif" font-size="14.00">dre.func_80198E74</text>
</a>
</g>
</g>
<!-- dre.func_80198F18&#45;&gt;dre.func_80198E74 -->
<g id="edge2" class="edge">
<title>dre.func_80198F18&#45;&gt;dre.func_80198E74</title>
<path fill="none" stroke="black" d="M358.65,-179.93C386.19,-148.3 445.26,-80.46 477.21,-43.78"/>
<polygon fill="black" stroke="black" points="480.04,-45.86 483.97,-36.02 474.76,-41.26 480.04,-45.86"/>
<text text-anchor="middle" x="478.97" y="-39.82" font-family="Times,serif" font-size="14.00">1</text>
</g>
<!-- dre.InitRoomEntities -->
<g id="node4" class="node">
<title>dre.InitRoomEntities</title>
<g id="a_node4"><a xlink:href="dre.InitRoomEntities.svg" xlink:title="dre.InitRoomEntities">
<ellipse fill="green" stroke="black" cx="230.78" cy="-378" rx="108.58" ry="18"/>
<text text-anchor="middle" x="230.78" y="-374.3" font-family="Times,serif" font-size="14.00">dre.InitRoomEntities</text>
</a>
</g>
</g>
<!-- dre.InitRoomEntities&#45;&gt;dre.func_80198F18 -->
<g id="edge3" class="edge">
<title>dre.InitRoomEntities&#45;&gt;dre.func_80198F18</title>
<path fill="none" stroke="black" d="M241.62,-359.93C261.53,-328.57 304.04,-261.6 327.46,-224.71"/>
<polygon fill="black" stroke="black" points="330.58,-226.33 332.98,-216.02 324.67,-222.58 330.58,-226.33"/>
<text text-anchor="middle" x="236.62" y="-348.73" font-family="Times,serif" font-size="14.00">1</text>
</g>
<!-- dre.func_80199554 -->
<g id="node5" class="node">
<title>dre.func_80199554</title>
<g id="a_node5"><a xlink:href="dre.func_80199554.svg" xlink:title="dre.func_80199554">
<ellipse fill="green" stroke="black" cx="457.78" cy="-378" rx="100.98" ry="18"/>
<text text-anchor="middle" x="457.78" y="-374.3" font-family="Times,serif" font-size="14.00">dre.func_80199554</text>
</a>
</g>
</g>
<!-- dre.func_80199554&#45;&gt;dre.func_80198F18 -->
<g id="edge4" class="edge">
<title>dre.func_80199554&#45;&gt;dre.func_80198F18</title>
<path fill="none" stroke="black" d="M446.85,-359.93C426.76,-328.57 383.88,-261.6 360.25,-224.71"/>
<polygon fill="black" stroke="black" points="363.02,-222.55 354.68,-216.02 357.13,-226.32 363.02,-222.55"/>
<text text-anchor="middle" x="441.85" y="-348.73" font-family="Times,serif" font-size="14.00">1</text>
</g>
</g>
</svg>
