<?xml version="1.0" encoding="UTF-8" standalone="no"?>
<!DOCTYPE svg PUBLIC "-//W3C//DTD SVG 1.1//EN"
 "http://www.w3.org/Graphics/SVG/1.1/DTD/svg11.dtd">
<!-- Generated by graphviz version 2.43.0 (0)
 -->
<!-- Title: lib.LIB_EntityLockCamera Pages: 1 -->
<svg width="690pt" height="224pt"
 viewBox="0.00 0.00 690.13 224.00" xmlns="http://www.w3.org/2000/svg" xmlns:xlink="http://www.w3.org/1999/xlink">
<g id="graph0" class="graph" transform="scale(1 1) rotate(0) translate(4 220)">
<title>lib.LIB_EntityLockCamera</title>
<polygon fill="white" stroke="transparent" points="-4,4 -4,-220 686.13,-220 686.13,4 -4,4"/>
<!-- lib.LIB_EntityLockCamera -->
<g id="node1" class="node">
<title>lib.LIB_EntityLockCamera</title>
<ellipse fill="green" stroke="black" cx="318.69" cy="-198" rx="131.88" ry="18"/>
<text text-anchor="middle" x="318.69" y="-194.3" font-family="Times,serif" font-size="14.00">lib.LIB_EntityLockCamera</text>
</g>
<!-- lib.GetSideToPlayer -->
<g id="node2" class="node">
<title>lib.GetSideToPlayer</title>
<g id="a_node2"><a xlink:href="lib.GetSideToPlayer.svg" xlink:title="lib.GetSideToPlayer">
<ellipse fill="green" stroke="black" cx="102.69" cy="-18" rx="102.88" ry="18"/>
<text text-anchor="middle" x="102.69" y="-14.3" font-family="Times,serif" font-size="14.00">lib.GetSideToPlayer</text>
</a>
</g>
</g>
<!-- lib.LIB_EntityLockCamera&#45;&gt;lib.GetSideToPlayer -->
<g id="edge1" class="edge">
<title>lib.LIB_EntityLockCamera&#45;&gt;lib.GetSideToPlayer</title>
<path fill="none" stroke="black" d="M297.98,-179.93C259.01,-147.82 174.77,-78.39 130.75,-42.13"/>
<polygon fill="black" stroke="black" points="132.97,-39.41 123.02,-35.76 128.52,-44.82 132.97,-39.41"/>
<text text-anchor="middle" x="118.02" y="-39.56" font-family="Times,serif" font-size="14.00">1</text>
</g>
<!-- lib.InitializeEntity -->
<g id="node3" class="node">
<title>lib.InitializeEntity</title>
<g id="a_node3"><a xlink:href="lib.InitializeEntity.svg" xlink:title="lib.InitializeEntity">
<ellipse fill="green" stroke="black" cx="318.69" cy="-18" rx="94.78" ry="18"/>
<text text-anchor="middle" x="318.69" y="-14.3" font-family="Times,serif" font-size="14.00">lib.InitializeEntity</text>
</a>
</g>
</g>
<!-- lib.LIB_EntityLockCamera&#45;&gt;lib.InitializeEntity -->
<g id="edge2" class="edge">
<title>lib.LIB_EntityLockCamera&#45;&gt;lib.InitializeEntity</title>
<path fill="none" stroke="black" d="M318.69,-179.93C318.69,-148.97 318.69,-83.3 318.69,-46.13"/>
<polygon fill="black" stroke="black" points="322.19,-46.02 318.69,-36.02 315.19,-46.02 322.19,-46.02"/>
<text text-anchor="middle" x="313.69" y="-39.82" font-family="Times,serif" font-size="14.00">1</text>
</g>
<!-- lib.PlayerIsWithinHitbox -->
<g id="node4" class="node">
<title>lib.PlayerIsWithinHitbox</title>
<g id="a_node4"><a xlink:href="lib.PlayerIsWithinHitbox.svg" xlink:title="lib.PlayerIsWithinHitbox">
<ellipse fill="green" stroke="black" cx="556.69" cy="-18" rx="125.38" ry="18"/>
<text text-anchor="middle" x="556.69" y="-14.3" font-family="Times,serif" font-size="14.00">lib.PlayerIsWithinHitbox</text>
</a>
</g>
</g>
<!-- lib.LIB_EntityLockCamera&#45;&gt;lib.PlayerIsWithinHitbox -->
<g id="edge3" class="edge">
<title>lib.LIB_EntityLockCamera&#45;&gt;lib.PlayerIsWithinHitbox</title>
<path fill="none" stroke="black" d="M341.08,-180.25C383.87,-148.25 477.33,-78.36 525.94,-42"/>
<polygon fill="black" stroke="black" points="528.27,-44.62 534.19,-35.83 524.08,-39.02 528.27,-44.62"/>
<text text-anchor="middle" x="529.19" y="-39.63" font-family="Times,serif" font-size="14.00">1</text>
</g>
</g>
</svg>
