<?xml version="1.0" encoding="UTF-8" standalone="no"?>
<!DOCTYPE svg PUBLIC "-//W3C//DTD SVG 1.1//EN"
 "http://www.w3.org/Graphics/SVG/1.1/DTD/svg11.dtd">
<!-- Generated by graphviz version 2.43.0 (0)
 -->
<!-- Title: lib.EntityLibrarianChair Pages: 1 -->
<svg width="1694pt" height="224pt"
 viewBox="0.00 0.00 1693.74 224.00" xmlns="http://www.w3.org/2000/svg" xmlns:xlink="http://www.w3.org/1999/xlink">
<g id="graph0" class="graph" transform="scale(1 1) rotate(0) translate(4 220)">
<title>lib.EntityLibrarianChair</title>
<polygon fill="white" stroke="transparent" points="-4,4 -4,-220 1689.74,-220 1689.74,4 -4,4"/>
<!-- lib.EntityLibrarianChair -->
<g id="node1" class="node">
<title>lib.EntityLibrarianChair</title>
<ellipse fill="green" stroke="black" cx="860.34" cy="-198" rx="122.38" ry="18"/>
<text text-anchor="middle" x="860.34" y="-194.3" font-family="Times,serif" font-size="14.00">lib.EntityLibrarianChair</text>
</g>
<!-- dra.PlaySfx -->
<g id="node2" class="node">
<title>dra.PlaySfx</title>
<g id="a_node2"><a xlink:href="dra.PlaySfx.svg" xlink:title="dra.PlaySfx">
<ellipse fill="green" stroke="black" cx="64.34" cy="-18" rx="64.19" ry="18"/>
<text text-anchor="middle" x="64.34" y="-14.3" font-family="Times,serif" font-size="14.00">dra.PlaySfx</text>
</a>
</g>
</g>
<!-- lib.EntityLibrarianChair&#45;&gt;dra.PlaySfx -->
<g id="edge1" class="edge">
<title>lib.EntityLibrarianChair&#45;&gt;dra.PlaySfx</title>
<path fill="none" stroke="black" d="M795,-182.67C668.13,-154.8 379.65,-91.19 137.34,-36 132.4,-34.87 127.26,-33.69 122.11,-32.51"/>
<polygon fill="black" stroke="black" points="122.77,-29.07 112.24,-30.22 121.19,-35.89 122.77,-29.07"/>
<text text-anchor="middle" x="107.24" y="-34.02" font-family="Times,serif" font-size="14.00">1</text>
</g>
<!-- lib.AllocEntity -->
<g id="node3" class="node">
<title>lib.AllocEntity</title>
<g id="a_node3"><a xlink:href="lib.AllocEntity.svg" xlink:title="lib.AllocEntity">
<ellipse fill="green" stroke="black" cx="223.34" cy="-18" rx="76.89" ry="18"/>
<text text-anchor="middle" x="223.34" y="-14.3" font-family="Times,serif" font-size="14.00">lib.AllocEntity</text>
</a>
</g>
</g>
<!-- lib.EntityLibrarianChair&#45;&gt;lib.AllocEntity -->
<g id="edge2" class="edge">
<title>lib.EntityLibrarianChair&#45;&gt;lib.AllocEntity</title>
<path fill="none" stroke="black" d="M806.03,-181.82C686.78,-148.5 402.97,-69.19 280.84,-35.07"/>
<polygon fill="black" stroke="black" points="281.51,-31.62 270.93,-32.3 279.62,-38.36 281.51,-31.62"/>
<text text-anchor="middle" x="265.93" y="-36.1" font-family="Times,serif" font-size="14.00">4</text>
</g>
<!-- lib.AnimateEntity -->
<g id="node4" class="node">
<title>lib.AnimateEntity</title>
<g id="a_node4"><a xlink:href="lib.AnimateEntity.svg" xlink:title="lib.AnimateEntity">
<ellipse fill="green" stroke="black" cx="411.34" cy="-18" rx="92.88" ry="18"/>
<text text-anchor="middle" x="411.34" y="-14.3" font-family="Times,serif" font-size="14.00">lib.AnimateEntity</text>
</a>
</g>
</g>
<!-- lib.EntityLibrarianChair&#45;&gt;lib.AnimateEntity -->
<g id="edge3" class="edge">
<title>lib.EntityLibrarianChair&#45;&gt;lib.AnimateEntity</title>
<path fill="none" stroke="black" d="M819.71,-180.89C736.81,-148.03 548.55,-73.39 459.6,-38.13"/>
<polygon fill="black" stroke="black" points="460.87,-34.87 450.29,-34.44 458.29,-41.38 460.87,-34.87"/>
<text text-anchor="middle" x="440.79" y="-38.24" font-family="Times,serif" font-size="14.00">10</text>
</g>
<!-- lib.CreateEntityFromCurrentEntity -->
<g id="node5" class="node">
<title>lib.CreateEntityFromCurrentEntity</title>
<g id="a_node5"><a xlink:href="lib.CreateEntityFromCurrentEntity.svg" xlink:title="lib.CreateEntityFromCurrentEntity">
<ellipse fill="green" stroke="black" cx="697.34" cy="-18" rx="175.47" ry="18"/>
<text text-anchor="middle" x="697.34" y="-14.3" font-family="Times,serif" font-size="14.00">lib.CreateEntityFromCurrentEntity</text>
</a>
</g>
</g>
<!-- lib.EntityLibrarianChair&#45;&gt;lib.CreateEntityFromCurrentEntity -->
<g id="edge4" class="edge">
<title>lib.EntityLibrarianChair&#45;&gt;lib.CreateEntityFromCurrentEntity</title>
<path fill="none" stroke="black" d="M844.72,-179.93C815.75,-148.3 753.63,-80.46 720.03,-43.78"/>
<polygon fill="black" stroke="black" points="722.26,-41.03 712.93,-36.02 717.1,-45.75 722.26,-41.03"/>
<text text-anchor="middle" x="707.93" y="-39.82" font-family="Times,serif" font-size="14.00">4</text>
</g>
<!-- lib.GetPlayerCollisionWith -->
<g id="node6" class="node">
<title>lib.GetPlayerCollisionWith</title>
<g id="a_node6"><a xlink:href="lib.GetPlayerCollisionWith.svg" xlink:title="lib.GetPlayerCollisionWith">
<ellipse fill="green" stroke="black" cx="1024.34" cy="-18" rx="133.78" ry="18"/>
<text text-anchor="middle" x="1024.34" y="-14.3" font-family="Times,serif" font-size="14.00">lib.GetPlayerCollisionWith</text>
</a>
</g>
</g>
<!-- lib.EntityLibrarianChair&#45;&gt;lib.GetPlayerCollisionWith -->
<g id="edge5" class="edge">
<title>lib.EntityLibrarianChair&#45;&gt;lib.GetPlayerCollisionWith</title>
<path fill="none" stroke="black" d="M876.07,-179.93C905.21,-148.3 967.71,-80.46 1001.52,-43.78"/>
<polygon fill="black" stroke="black" points="1004.46,-45.74 1008.67,-36.02 999.32,-41 1004.46,-45.74"/>
<text text-anchor="middle" x="1003.67" y="-39.82" font-family="Times,serif" font-size="14.00">2</text>
</g>
<!-- lib.InitializeEntity -->
<g id="node7" class="node">
<title>lib.InitializeEntity</title>
<g id="a_node7"><a xlink:href="lib.InitializeEntity.svg" xlink:title="lib.InitializeEntity">
<ellipse fill="green" stroke="black" cx="1271.34" cy="-18" rx="94.78" ry="18"/>
<text text-anchor="middle" x="1271.34" y="-14.3" font-family="Times,serif" font-size="14.00">lib.InitializeEntity</text>
</a>
</g>
</g>
<!-- lib.EntityLibrarianChair&#45;&gt;lib.InitializeEntity -->
<g id="edge6" class="edge">
<title>lib.EntityLibrarianChair&#45;&gt;lib.InitializeEntity</title>
<path fill="none" stroke="black" d="M897.91,-180.73C973.51,-147.99 1143.77,-74.25 1225.66,-38.79"/>
<polygon fill="black" stroke="black" points="1227.41,-41.84 1235.2,-34.66 1224.63,-35.42 1227.41,-41.84"/>
<text text-anchor="middle" x="1230.2" y="-38.46" font-family="Times,serif" font-size="14.00">1</text>
</g>
<!-- lib.MoveEntity -->
<g id="node8" class="node">
<title>lib.MoveEntity</title>
<g id="a_node8"><a xlink:href="lib.MoveEntity.svg" xlink:title="lib.MoveEntity">
<ellipse fill="green" stroke="black" cx="1463.34" cy="-18" rx="79.09" ry="18"/>
<text text-anchor="middle" x="1463.34" y="-14.3" font-family="Times,serif" font-size="14.00">lib.MoveEntity</text>
</a>
</g>
</g>
<!-- lib.EntityLibrarianChair&#45;&gt;lib.MoveEntity -->
<g id="edge7" class="edge">
<title>lib.EntityLibrarianChair&#45;&gt;lib.MoveEntity</title>
<path fill="none" stroke="black" d="M912.28,-181.67C1024.84,-148.44 1290.51,-70.02 1406.97,-35.64"/>
<polygon fill="black" stroke="black" points="1408.17,-38.94 1416.77,-32.75 1406.19,-32.22 1408.17,-38.94"/>
<text text-anchor="middle" x="1411.77" y="-36.55" font-family="Times,serif" font-size="14.00">1</text>
</g>
<!-- lib.SetStep -->
<g id="node9" class="node">
<title>lib.SetStep</title>
<g id="a_node9"><a xlink:href="lib.SetStep.svg" xlink:title="lib.SetStep">
<ellipse fill="green" stroke="black" cx="1623.34" cy="-18" rx="62.29" ry="18"/>
<text text-anchor="middle" x="1623.34" y="-14.3" font-family="Times,serif" font-size="14.00">lib.SetStep</text>
</a>
</g>
</g>
<!-- lib.EntityLibrarianChair&#45;&gt;lib.SetStep -->
<g id="edge8" class="edge">
<title>lib.EntityLibrarianChair&#45;&gt;lib.SetStep</title>
<path fill="none" stroke="black" d="M922.77,-182.52C1043.97,-154.39 1319.59,-90.36 1551.34,-36 1556.3,-34.84 1561.44,-33.63 1566.6,-32.41"/>
<polygon fill="black" stroke="black" points="1567.55,-35.79 1576.49,-30.09 1565.95,-28.97 1567.55,-35.79"/>
<text text-anchor="middle" x="1566.99" y="-33.89" font-family="Times,serif" font-size="14.00">14</text>
</g>
</g>
</svg>
