<?xml version="1.0" encoding="UTF-8" standalone="no"?>
<!DOCTYPE svg PUBLIC "-//W3C//DTD SVG 1.1//EN"
 "http://www.w3.org/Graphics/SVG/1.1/DTD/svg11.dtd">
<!-- Generated by graphviz version 2.43.0 (0)
 -->
<!-- Title: lib.func_us_801D2108 Pages: 1 -->
<svg width="684pt" height="224pt"
 viewBox="0.00 0.00 684.33 224.00" xmlns="http://www.w3.org/2000/svg" xmlns:xlink="http://www.w3.org/1999/xlink">
<g id="graph0" class="graph" transform="scale(1 1) rotate(0) translate(4 220)">
<title>lib.func_us_801D2108</title>
<polygon fill="white" stroke="transparent" points="-4,4 -4,-220 680.33,-220 680.33,4 -4,4"/>
<!-- lib.func_us_801D2108 -->
<g id="node1" class="node">
<title>lib.func_us_801D2108</title>
<ellipse fill="green" stroke="black" cx="332.24" cy="-18" rx="113.18" ry="18"/>
<text text-anchor="middle" x="332.24" y="-14.3" font-family="Times,serif" font-size="14.00">lib.func_us_801D2108</text>
</g>
<!-- lib.EntityMagicTome -->
<g id="node2" class="node">
<title>lib.EntityMagicTome</title>
<g id="a_node2"><a xlink:href="lib.EntityMagicTome.svg" xlink:title="lib.EntityMagicTome">
<ellipse fill="green" stroke="black" cx="107.24" cy="-198" rx="107.48" ry="18"/>
<text text-anchor="middle" x="107.24" y="-194.3" font-family="Times,serif" font-size="14.00">lib.EntityMagicTome</text>
</a>
</g>
</g>
<!-- lib.EntityMagicTome&#45;&gt;lib.func_us_801D2108 -->
<g id="edge1" class="edge">
<title>lib.EntityMagicTome&#45;&gt;lib.func_us_801D2108</title>
<path fill="none" stroke="black" d="M128.41,-180.25C168.78,-148.32 256.84,-78.65 302.88,-42.23"/>
<polygon fill="black" stroke="black" points="305.29,-44.78 310.97,-35.83 300.95,-39.29 305.29,-44.78"/>
<text text-anchor="middle" x="123.41" y="-169.05" font-family="Times,serif" font-size="14.00">3</text>
</g>
<!-- lib.EntitySpellbook -->
<g id="node3" class="node">
<title>lib.EntitySpellbook</title>
<g id="a_node3"><a xlink:href="lib.EntitySpellbook.svg" xlink:title="lib.EntitySpellbook">
<ellipse fill="green" stroke="black" cx="332.24" cy="-198" rx="99.38" ry="18"/>
<text text-anchor="middle" x="332.24" y="-194.3" font-family="Times,serif" font-size="14.00">lib.EntitySpellbook</text>
</a>
</g>
</g>
<!-- lib.EntitySpellbook&#45;&gt;lib.func_us_801D2108 -->
<g id="edge2" class="edge">
<title>lib.EntitySpellbook&#45;&gt;lib.func_us_801D2108</title>
<path fill="none" stroke="black" d="M332.24,-179.93C332.24,-148.97 332.24,-83.3 332.24,-46.13"/>
<polygon fill="black" stroke="black" points="335.74,-46.02 332.24,-36.02 328.74,-46.02 335.74,-46.02"/>
<text text-anchor="middle" x="327.24" y="-168.73" font-family="Times,serif" font-size="14.00">3</text>
</g>
<!-- lib.func_us_801D2148 -->
<g id="node4" class="node">
<title>lib.func_us_801D2148</title>
<g id="a_node4"><a xlink:href="lib.func_us_801D2148.svg" xlink:title="lib.func_us_801D2148">
<ellipse fill="green" stroke="black" cx="563.24" cy="-198" rx="113.18" ry="18"/>
<text text-anchor="middle" x="563.24" y="-194.3" font-family="Times,serif" font-size="14.00">lib.func_us_801D2148</text>
</a>
</g>
</g>
<!-- lib.func_us_801D2148&#45;&gt;lib.func_us_801D2108 -->
<g id="edge3" class="edge">
<title>lib.func_us_801D2148&#45;&gt;lib.func_us_801D2108</title>
<path fill="none" stroke="black" d="M541.51,-180.25C499.98,-148.25 409.27,-78.36 362.09,-42"/>
<polygon fill="black" stroke="black" points="364.14,-39.16 354.08,-35.83 359.87,-44.71 364.14,-39.16"/>
<text text-anchor="middle" x="536.51" y="-169.05" font-family="Times,serif" font-size="14.00">1</text>
</g>
</g>
</svg>
