<?xml version="1.0" encoding="UTF-8" standalone="no"?>
<!DOCTYPE svg PUBLIC "-//W3C//DTD SVG 1.1//EN"
 "http://www.w3.org/Graphics/SVG/1.1/DTD/svg11.dtd">
<!-- Generated by graphviz version 2.43.0 (0)
 -->
<!-- Title: lib.EntityExplosionVariantsSpawner Pages: 1 -->
<svg width="442pt" height="404pt"
 viewBox="0.00 0.00 441.98 404.00" xmlns="http://www.w3.org/2000/svg" xmlns:xlink="http://www.w3.org/1999/xlink">
<g id="graph0" class="graph" transform="scale(1 1) rotate(0) translate(4 400)">
<title>lib.EntityExplosionVariantsSpawner</title>
<polygon fill="white" stroke="transparent" points="-4,4 -4,-400 437.98,-400 437.98,4 -4,4"/>
<!-- lib.EntityExplosionVariantsSpawner -->
<g id="node1" class="node">
<title>lib.EntityExplosionVariantsSpawner</title>
<ellipse fill="green" stroke="black" cx="216.34" cy="-198" rx="178.97" ry="18"/>
<text text-anchor="middle" x="216.34" y="-194.3" font-family="Times,serif" font-size="14.00">lib.EntityExplosionVariantsSpawner</text>
</g>
<!-- lib.AllocEntity -->
<g id="node2" class="node">
<title>lib.AllocEntity</title>
<g id="a_node2"><a xlink:href="lib.AllocEntity.svg" xlink:title="lib.AllocEntity">
<ellipse fill="green" stroke="black" cx="216.34" cy="-18" rx="76.89" ry="18"/>
<text text-anchor="middle" x="216.34" y="-14.3" font-family="Times,serif" font-size="14.00">lib.AllocEntity</text>
</a>
</g>
</g>
<!-- lib.EntityExplosionVariantsSpawner&#45;&gt;lib.AllocEntity -->
<g id="edge1" class="edge">
<title>lib.EntityExplosionVariantsSpawner&#45;&gt;lib.AllocEntity</title>
<path fill="none" stroke="black" d="M216.34,-179.93C216.34,-148.97 216.34,-83.3 216.34,-46.13"/>
<polygon fill="black" stroke="black" points="219.84,-46.02 216.34,-36.02 212.84,-46.02 219.84,-46.02"/>
<text text-anchor="middle" x="211.34" y="-39.82" font-family="Times,serif" font-size="14.00">1</text>
</g>
<!-- lib.EntityFleaArmor -->
<g id="node3" class="node">
<title>lib.EntityFleaArmor</title>
<g id="a_node3"><a xlink:href="lib.EntityFleaArmor.svg" xlink:title="lib.EntityFleaArmor">
<ellipse fill="green" stroke="black" cx="103.34" cy="-378" rx="103.18" ry="18"/>
<text text-anchor="middle" x="103.34" y="-374.3" font-family="Times,serif" font-size="14.00">lib.EntityFleaArmor</text>
</a>
</g>
</g>
<!-- lib.EntityFleaArmor&#45;&gt;lib.EntityExplosionVariantsSpawner -->
<g id="edge2" class="edge">
<title>lib.EntityFleaArmor&#45;&gt;lib.EntityExplosionVariantsSpawner</title>
<path fill="none" stroke="black" d="M114.18,-359.93C134.09,-328.57 176.6,-261.6 200.02,-224.71"/>
<polygon fill="black" stroke="black" points="203.13,-226.33 205.54,-216.02 197.22,-222.58 203.13,-226.33"/>
<text text-anchor="middle" x="109.18" y="-348.73" font-family="Times,serif" font-size="14.00">1</text>
</g>
<!-- lib.EntityOlroxDrool -->
<g id="node4" class="node">
<title>lib.EntityOlroxDrool</title>
<g id="a_node4"><a xlink:href="lib.EntityOlroxDrool.svg" xlink:title="lib.EntityOlroxDrool">
<ellipse fill="green" stroke="black" cx="329.34" cy="-378" rx="104.78" ry="18"/>
<text text-anchor="middle" x="329.34" y="-374.3" font-family="Times,serif" font-size="14.00">lib.EntityOlroxDrool</text>
</a>
</g>
</g>
<!-- lib.EntityOlroxDrool&#45;&gt;lib.EntityExplosionVariantsSpawner -->
<g id="edge3" class="edge">
<title>lib.EntityOlroxDrool&#45;&gt;lib.EntityExplosionVariantsSpawner</title>
<path fill="none" stroke="black" d="M318.51,-359.93C298.59,-328.57 256.08,-261.6 232.66,-224.71"/>
<polygon fill="black" stroke="black" points="235.46,-222.58 227.14,-216.02 229.55,-226.33 235.46,-222.58"/>
<text text-anchor="middle" x="313.51" y="-348.73" font-family="Times,serif" font-size="14.00">1</text>
</g>
</g>
</svg>
