<?xml version="1.0" encoding="UTF-8" standalone="no"?>
<!DOCTYPE svg PUBLIC "-//W3C//DTD SVG 1.1//EN"
 "http://www.w3.org/Graphics/SVG/1.1/DTD/svg11.dtd">
<!-- Generated by graphviz version 2.43.0 (0)
 -->
<!-- Title: lib.PrizeDropFall2 Pages: 1 -->
<svg width="737pt" height="404pt"
 viewBox="0.00 0.00 736.53 404.00" xmlns="http://www.w3.org/2000/svg" xmlns:xlink="http://www.w3.org/1999/xlink">
<g id="graph0" class="graph" transform="scale(1 1) rotate(0) translate(4 400)">
<title>lib.PrizeDropFall2</title>
<polygon fill="white" stroke="transparent" points="-4,4 -4,-400 732.53,-400 732.53,4 -4,4"/>
<!-- lib.PrizeDropFall2 -->
<g id="node1" class="node">
<title>lib.PrizeDropFall2</title>
<ellipse fill="green" stroke="black" cx="368.49" cy="-198" rx="94.78" ry="18"/>
<text text-anchor="middle" x="368.49" y="-194.3" font-family="Times,serif" font-size="14.00">lib.PrizeDropFall2</text>
</g>
<!-- dra.CheckCollision -->
<g id="node2" class="node">
<title>dra.CheckCollision</title>
<g id="a_node2"><a xlink:href="dra.CheckCollision.svg" xlink:title="dra.CheckCollision">
<ellipse fill="green" stroke="black" cx="97.49" cy="-18" rx="97.48" ry="18"/>
<text text-anchor="middle" x="97.49" y="-14.3" font-family="Times,serif" font-size="14.00">dra.CheckCollision</text>
</a>
</g>
</g>
<!-- lib.PrizeDropFall2&#45;&gt;dra.CheckCollision -->
<g id="edge1" class="edge">
<title>lib.PrizeDropFall2&#45;&gt;dra.CheckCollision</title>
<path fill="none" stroke="black" d="M343.48,-180.57C294.6,-148.47 186.36,-77.37 131.21,-41.15"/>
<polygon fill="black" stroke="black" points="133.11,-38.21 122.83,-35.65 129.27,-44.06 133.11,-38.21"/>
<text text-anchor="middle" x="117.83" y="-39.45" font-family="Times,serif" font-size="14.00">2</text>
</g>
<!-- lib.FallEntity -->
<g id="node3" class="node">
<title>lib.FallEntity</title>
<g id="a_node3"><a xlink:href="lib.FallEntity.svg" xlink:title="lib.FallEntity">
<ellipse fill="green" stroke="black" cx="284.49" cy="-18" rx="71.49" ry="18"/>
<text text-anchor="middle" x="284.49" y="-14.3" font-family="Times,serif" font-size="14.00">lib.FallEntity</text>
</a>
</g>
</g>
<!-- lib.PrizeDropFall2&#45;&gt;lib.FallEntity -->
<g id="edge2" class="edge">
<title>lib.PrizeDropFall2&#45;&gt;lib.FallEntity</title>
<path fill="none" stroke="black" d="M360.44,-179.93C345.7,-148.7 314.3,-82.17 296.85,-45.18"/>
<polygon fill="black" stroke="black" points="299.95,-43.57 292.52,-36.02 293.62,-46.55 299.95,-43.57"/>
<text text-anchor="middle" x="287.52" y="-39.82" font-family="Times,serif" font-size="14.00">1</text>
</g>
<!-- lib.MoveEntity -->
<g id="node4" class="node">
<title>lib.MoveEntity</title>
<g id="a_node4"><a xlink:href="lib.MoveEntity.svg" xlink:title="lib.MoveEntity">
<ellipse fill="green" stroke="black" cx="453.49" cy="-18" rx="79.09" ry="18"/>
<text text-anchor="middle" x="453.49" y="-14.3" font-family="Times,serif" font-size="14.00">lib.MoveEntity</text>
</a>
</g>
</g>
<!-- lib.PrizeDropFall2&#45;&gt;lib.MoveEntity -->
<g id="edge3" class="edge">
<title>lib.PrizeDropFall2&#45;&gt;lib.MoveEntity</title>
<path fill="none" stroke="black" d="M376.64,-179.93C391.56,-148.7 423.33,-82.17 440.99,-45.18"/>
<polygon fill="black" stroke="black" points="444.22,-46.55 445.37,-36.02 437.9,-43.53 444.22,-46.55"/>
<text text-anchor="middle" x="440.37" y="-39.82" font-family="Times,serif" font-size="14.00">2</text>
</g>
<!-- lib.PrizeDropFall -->
<g id="node5" class="node">
<title>lib.PrizeDropFall</title>
<g id="a_node5"><a xlink:href="lib.PrizeDropFall.svg" xlink:title="lib.PrizeDropFall">
<ellipse fill="green" stroke="black" cx="639.49" cy="-18" rx="89.08" ry="18"/>
<text text-anchor="middle" x="639.49" y="-14.3" font-family="Times,serif" font-size="14.00">lib.PrizeDropFall</text>
</a>
</g>
</g>
<!-- lib.PrizeDropFall2&#45;&gt;lib.PrizeDropFall -->
<g id="edge4" class="edge">
<title>lib.PrizeDropFall2&#45;&gt;lib.PrizeDropFall</title>
<path fill="none" stroke="black" d="M393.5,-180.57C442.4,-148.45 550.72,-77.31 605.85,-41.1"/>
<polygon fill="black" stroke="black" points="608.11,-43.8 614.54,-35.39 604.26,-37.95 608.11,-43.8"/>
<text text-anchor="middle" x="609.54" y="-39.19" font-family="Times,serif" font-size="14.00">1</text>
</g>
<!-- lib.EntityEquipItemDrop -->
<g id="node6" class="node">
<title>lib.EntityEquipItemDrop</title>
<g id="a_node6"><a xlink:href="lib.EntityEquipItemDrop.svg" xlink:title="lib.EntityEquipItemDrop">
<ellipse fill="green" stroke="black" cx="246.49" cy="-378" rx="126.18" ry="18"/>
<text text-anchor="middle" x="246.49" y="-374.3" font-family="Times,serif" font-size="14.00">lib.EntityEquipItemDrop</text>
</a>
</g>
</g>
<!-- lib.EntityEquipItemDrop&#45;&gt;lib.PrizeDropFall2 -->
<g id="edge5" class="edge">
<title>lib.EntityEquipItemDrop&#45;&gt;lib.PrizeDropFall2</title>
<path fill="none" stroke="black" d="M258.19,-359.93C279.69,-328.57 325.58,-261.6 350.87,-224.71"/>
<polygon fill="black" stroke="black" points="354.06,-226.24 356.83,-216.02 348.29,-222.29 354.06,-226.24"/>
<text text-anchor="middle" x="253.19" y="-348.73" font-family="Times,serif" font-size="14.00">2</text>
</g>
<!-- lib.EntityPrizeDrop -->
<g id="node7" class="node">
<title>lib.EntityPrizeDrop</title>
<g id="a_node7"><a xlink:href="lib.EntityPrizeDrop.svg" xlink:title="lib.EntityPrizeDrop">
<ellipse fill="green" stroke="black" cx="491.49" cy="-378" rx="100.98" ry="18"/>
<text text-anchor="middle" x="491.49" y="-374.3" font-family="Times,serif" font-size="14.00">lib.EntityPrizeDrop</text>
</a>
</g>
</g>
<!-- lib.EntityPrizeDrop&#45;&gt;lib.PrizeDropFall2 -->
<g id="edge6" class="edge">
<title>lib.EntityPrizeDrop&#45;&gt;lib.PrizeDropFall2</title>
<path fill="none" stroke="black" d="M479.7,-359.93C458.02,-328.57 411.75,-261.6 386.26,-224.71"/>
<polygon fill="black" stroke="black" points="388.81,-222.25 380.25,-216.02 383.05,-226.23 388.81,-222.25"/>
<text text-anchor="middle" x="474.7" y="-348.73" font-family="Times,serif" font-size="14.00">3</text>
</g>
</g>
</svg>
