<?xml version="1.0" encoding="UTF-8" standalone="no"?>
<!DOCTYPE svg PUBLIC "-//W3C//DTD SVG 1.1//EN"
 "http://www.w3.org/Graphics/SVG/1.1/DTD/svg11.dtd">
<!-- Generated by graphviz version 2.43.0 (0)
 -->
<!-- Title: lib.GetAngleBetweenEntitiesShifted Pages: 1 -->
<svg width="365pt" height="404pt"
 viewBox="0.00 0.00 365.47 404.00" xmlns="http://www.w3.org/2000/svg" xmlns:xlink="http://www.w3.org/1999/xlink">
<g id="graph0" class="graph" transform="scale(1 1) rotate(0) translate(4 400)">
<title>lib.GetAngleBetweenEntitiesShifted</title>
<polygon fill="white" stroke="transparent" points="-4,4 -4,-400 361.47,-400 361.47,4 -4,4"/>
<!-- lib.GetAngleBetweenEntitiesShifted -->
<g id="node1" class="node">
<title>lib.GetAngleBetweenEntitiesShifted</title>
<ellipse fill="green" stroke="black" cx="178.73" cy="-198" rx="178.97" ry="18"/>
<text text-anchor="middle" x="178.73" y="-194.3" font-family="Times,serif" font-size="14.00">lib.GetAngleBetweenEntitiesShifted</text>
</g>
<!-- lib.Ratan2Shifted -->
<g id="node2" class="node">
<title>lib.Ratan2Shifted</title>
<g id="a_node2"><a xlink:href="lib.Ratan2Shifted.svg" xlink:title="lib.Ratan2Shifted">
<ellipse fill="green" stroke="black" cx="178.73" cy="-18" rx="92.08" ry="18"/>
<text text-anchor="middle" x="178.73" y="-14.3" font-family="Times,serif" font-size="14.00">lib.Ratan2Shifted</text>
</a>
</g>
</g>
<!-- lib.GetAngleBetweenEntitiesShifted&#45;&gt;lib.Ratan2Shifted -->
<g id="edge1" class="edge">
<title>lib.GetAngleBetweenEntitiesShifted&#45;&gt;lib.Ratan2Shifted</title>
<path fill="none" stroke="black" d="M178.73,-179.93C178.73,-148.97 178.73,-83.3 178.73,-46.13"/>
<polygon fill="black" stroke="black" points="182.23,-46.02 178.73,-36.02 175.23,-46.02 182.23,-46.02"/>
<text text-anchor="middle" x="173.73" y="-39.82" font-family="Times,serif" font-size="14.00">1</text>
</g>
<!-- lib.EntityFlyingZombie1 -->
<g id="node3" class="node">
<title>lib.EntityFlyingZombie1</title>
<g id="a_node3"><a xlink:href="lib.EntityFlyingZombie1.svg" xlink:title="lib.EntityFlyingZombie1">
<ellipse fill="green" stroke="black" cx="178.73" cy="-378" rx="124.28" ry="18"/>
<text text-anchor="middle" x="178.73" y="-374.3" font-family="Times,serif" font-size="14.00">lib.EntityFlyingZombie1</text>
</a>
</g>
</g>
<!-- lib.EntityFlyingZombie1&#45;&gt;lib.GetAngleBetweenEntitiesShifted -->
<g id="edge2" class="edge">
<title>lib.EntityFlyingZombie1&#45;&gt;lib.GetAngleBetweenEntitiesShifted</title>
<path fill="none" stroke="black" d="M178.73,-359.93C178.73,-328.97 178.73,-263.3 178.73,-226.13"/>
<polygon fill="black" stroke="black" points="182.23,-226.02 178.73,-216.02 175.23,-226.02 182.23,-226.02"/>
<text text-anchor="middle" x="173.73" y="-348.73" font-family="Times,serif" font-size="14.00">1</text>
</g>
</g>
</svg>
