<?xml version="1.0" encoding="UTF-8" standalone="no"?>
<!DOCTYPE svg PUBLIC "-//W3C//DTD SVG 1.1//EN"
 "http://www.w3.org/Graphics/SVG/1.1/DTD/svg11.dtd">
<!-- Generated by graphviz version 2.43.0 (0)
 -->
<!-- Title: lib.CreateEntityWhenInHorizontalRange Pages: 1 -->
<svg width="512pt" height="404pt"
 viewBox="0.00 0.00 512.08 404.00" xmlns="http://www.w3.org/2000/svg" xmlns:xlink="http://www.w3.org/1999/xlink">
<g id="graph0" class="graph" transform="scale(1 1) rotate(0) translate(4 400)">
<title>lib.CreateEntityWhenInHorizontalRange</title>
<polygon fill="white" stroke="transparent" points="-4,4 -4,-400 508.08,-400 508.08,4 -4,4"/>
<!-- lib.CreateEntityWhenInHorizontalRange -->
<g id="node1" class="node">
<title>lib.CreateEntityWhenInHorizontalRange</title>
<ellipse fill="green" stroke="black" cx="251.54" cy="-198" rx="198.76" ry="18"/>
<text text-anchor="middle" x="251.54" y="-194.3" font-family="Times,serif" font-size="14.00">lib.CreateEntityWhenInHorizontalRange</text>
</g>
<!-- lib.CreateEntityFromLayout -->
<g id="node2" class="node">
<title>lib.CreateEntityFromLayout</title>
<g id="a_node2"><a xlink:href="lib.CreateEntityFromLayout.svg" xlink:title="lib.CreateEntityFromLayout">
<ellipse fill="green" stroke="black" cx="251.54" cy="-18" rx="141.88" ry="18"/>
<text text-anchor="middle" x="251.54" y="-14.3" font-family="Times,serif" font-size="14.00">lib.CreateEntityFromLayout</text>
</a>
</g>
</g>
<!-- lib.CreateEntityWhenInHorizontalRange&#45;&gt;lib.CreateEntityFromLayout -->
<g id="edge1" class="edge">
<title>lib.CreateEntityWhenInHorizontalRange&#45;&gt;lib.CreateEntityFromLayout</title>
<path fill="none" stroke="black" d="M251.54,-179.93C251.54,-148.97 251.54,-83.3 251.54,-46.13"/>
<polygon fill="black" stroke="black" points="255.04,-46.02 251.54,-36.02 248.04,-46.02 255.04,-46.02"/>
<text text-anchor="middle" x="246.54" y="-39.82" font-family="Times,serif" font-size="14.00">1</text>
</g>
<!-- lib.CreateEntitiesAbove -->
<g id="node3" class="node">
<title>lib.CreateEntitiesAbove</title>
<g id="a_node3"><a xlink:href="lib.CreateEntitiesAbove.svg" xlink:title="lib.CreateEntitiesAbove">
<ellipse fill="green" stroke="black" cx="121.54" cy="-378" rx="121.58" ry="18"/>
<text text-anchor="middle" x="121.54" y="-374.3" font-family="Times,serif" font-size="14.00">lib.CreateEntitiesAbove</text>
</a>
</g>
</g>
<!-- lib.CreateEntitiesAbove&#45;&gt;lib.CreateEntityWhenInHorizontalRange -->
<g id="edge2" class="edge">
<title>lib.CreateEntitiesAbove&#45;&gt;lib.CreateEntityWhenInHorizontalRange</title>
<path fill="none" stroke="black" d="M134,-359.93C157.01,-328.43 206.23,-261.03 233.11,-224.24"/>
<polygon fill="black" stroke="black" points="236.04,-226.16 239.11,-216.02 230.39,-222.03 236.04,-226.16"/>
<text text-anchor="middle" x="129" y="-348.73" font-family="Times,serif" font-size="14.00">1</text>
</g>
<!-- lib.CreateEntitiesBelow -->
<g id="node4" class="node">
<title>lib.CreateEntitiesBelow</title>
<g id="a_node4"><a xlink:href="lib.CreateEntitiesBelow.svg" xlink:title="lib.CreateEntitiesBelow">
<ellipse fill="green" stroke="black" cx="382.54" cy="-378" rx="121.58" ry="18"/>
<text text-anchor="middle" x="382.54" y="-374.3" font-family="Times,serif" font-size="14.00">lib.CreateEntitiesBelow</text>
</a>
</g>
</g>
<!-- lib.CreateEntitiesBelow&#45;&gt;lib.CreateEntityWhenInHorizontalRange -->
<g id="edge3" class="edge">
<title>lib.CreateEntitiesBelow&#45;&gt;lib.CreateEntityWhenInHorizontalRange</title>
<path fill="none" stroke="black" d="M369.98,-359.93C346.8,-328.43 297.19,-261.03 270.12,-224.24"/>
<polygon fill="black" stroke="black" points="272.81,-222 264.06,-216.02 267.17,-226.14 272.81,-222"/>
<text text-anchor="middle" x="364.98" y="-348.73" font-family="Times,serif" font-size="14.00">1</text>
</g>
</g>
</svg>
