<?xml version="1.0" encoding="UTF-8" standalone="no"?>
<!DOCTYPE svg PUBLIC "-//W3C//DTD SVG 1.1//EN"
 "http://www.w3.org/Graphics/SVG/1.1/DTD/svg11.dtd">
<!-- Generated by graphviz version 2.43.0 (0)
 -->
<!-- Title: lib.EntityDamageDisplay Pages: 1 -->
<svg width="614pt" height="224pt"
 viewBox="0.00 0.00 614.33 224.00" xmlns="http://www.w3.org/2000/svg" xmlns:xlink="http://www.w3.org/1999/xlink">
<g id="graph0" class="graph" transform="scale(1 1) rotate(0) translate(4 220)">
<title>lib.EntityDamageDisplay</title>
<polygon fill="white" stroke="transparent" points="-4,4 -4,-220 610.33,-220 610.33,4 -4,4"/>
<!-- lib.EntityDamageDisplay -->
<g id="node1" class="node">
<title>lib.EntityDamageDisplay</title>
<ellipse fill="green" stroke="black" cx="307.44" cy="-198" rx="126.98" ry="18"/>
<text text-anchor="middle" x="307.44" y="-194.3" font-family="Times,serif" font-size="14.00">lib.EntityDamageDisplay</text>
</g>
<!-- dra.AllocPrimitives -->
<g id="node2" class="node">
<title>dra.AllocPrimitives</title>
<g id="a_node2"><a xlink:href="dra.AllocPrimitives.svg" xlink:title="dra.AllocPrimitives">
<ellipse fill="green" stroke="black" cx="99.44" cy="-18" rx="99.38" ry="18"/>
<text text-anchor="middle" x="99.44" y="-14.3" font-family="Times,serif" font-size="14.00">dra.AllocPrimitives</text>
</a>
</g>
</g>
<!-- lib.EntityDamageDisplay&#45;&gt;dra.AllocPrimitives -->
<g id="edge1" class="edge">
<title>lib.EntityDamageDisplay&#45;&gt;dra.AllocPrimitives</title>
<path fill="none" stroke="black" d="M287.5,-179.93C250.05,-147.89 169.18,-78.68 126.73,-42.35"/>
<polygon fill="black" stroke="black" points="128.89,-39.6 119.02,-35.76 124.34,-44.92 128.89,-39.6"/>
<text text-anchor="middle" x="114.02" y="-39.56" font-family="Times,serif" font-size="14.00">1</text>
</g>
<!-- lib.DestroyEntity -->
<g id="node3" class="node">
<title>lib.DestroyEntity</title>
<g id="a_node3"><a xlink:href="lib.DestroyEntity.svg" xlink:title="lib.DestroyEntity">
<ellipse fill="green" stroke="black" cx="307.44" cy="-18" rx="90.98" ry="18"/>
<text text-anchor="middle" x="307.44" y="-14.3" font-family="Times,serif" font-size="14.00">lib.DestroyEntity</text>
</a>
</g>
</g>
<!-- lib.EntityDamageDisplay&#45;&gt;lib.DestroyEntity -->
<g id="edge2" class="edge">
<title>lib.EntityDamageDisplay&#45;&gt;lib.DestroyEntity</title>
<path fill="none" stroke="black" d="M307.44,-179.93C307.44,-148.97 307.44,-83.3 307.44,-46.13"/>
<polygon fill="black" stroke="black" points="310.94,-46.02 307.44,-36.02 303.94,-46.02 310.94,-46.02"/>
<text text-anchor="middle" x="302.44" y="-39.82" font-family="Times,serif" font-size="14.00">1</text>
</g>
<!-- lib.InitializeEntity -->
<g id="node4" class="node">
<title>lib.InitializeEntity</title>
<g id="a_node4"><a xlink:href="lib.InitializeEntity.svg" xlink:title="lib.InitializeEntity">
<ellipse fill="green" stroke="black" cx="511.44" cy="-18" rx="94.78" ry="18"/>
<text text-anchor="middle" x="511.44" y="-14.3" font-family="Times,serif" font-size="14.00">lib.InitializeEntity</text>
</a>
</g>
</g>
<!-- lib.EntityDamageDisplay&#45;&gt;lib.InitializeEntity -->
<g id="edge3" class="edge">
<title>lib.EntityDamageDisplay&#45;&gt;lib.InitializeEntity</title>
<path fill="none" stroke="black" d="M327,-179.93C363.73,-147.89 443.04,-78.68 484.68,-42.35"/>
<polygon fill="black" stroke="black" points="487,-44.97 492.24,-35.76 482.4,-39.69 487,-44.97"/>
<text text-anchor="middle" x="487.24" y="-39.56" font-family="Times,serif" font-size="14.00">1</text>
</g>
</g>
</svg>
