<?xml version="1.0" encoding="UTF-8" standalone="no"?>
<!DOCTYPE svg PUBLIC "-//W3C//DTD SVG 1.1//EN"
 "http://www.w3.org/Graphics/SVG/1.1/DTD/svg11.dtd">
<!-- Generated by graphviz version 2.43.0 (0)
 -->
<!-- Title: lib.func_us_801CCED0 Pages: 1 -->
<svg width="400pt" height="404pt"
 viewBox="0.00 0.00 400.18 404.00" xmlns="http://www.w3.org/2000/svg" xmlns:xlink="http://www.w3.org/1999/xlink">
<g id="graph0" class="graph" transform="scale(1 1) rotate(0) translate(4 400)">
<title>lib.func_us_801CCED0</title>
<polygon fill="white" stroke="transparent" points="-4,4 -4,-400 396.18,-400 396.18,4 -4,4"/>
<!-- lib.func_us_801CCED0 -->
<g id="node1" class="node">
<title>lib.func_us_801CCED0</title>
<ellipse fill="green" stroke="black" cx="198.19" cy="-198" rx="116.18" ry="18"/>
<text text-anchor="middle" x="198.19" y="-194.3" font-family="Times,serif" font-size="14.00">lib.func_us_801CCED0</text>
</g>
<!-- dra.GetFreeEntity -->
<g id="node2" class="node">
<title>dra.GetFreeEntity</title>
<g id="a_node2"><a xlink:href="dra.GetFreeEntity.svg" xlink:title="dra.GetFreeEntity">
<ellipse fill="green" stroke="black" cx="96.19" cy="-18" rx="96.38" ry="18"/>
<text text-anchor="middle" x="96.19" y="-14.3" font-family="Times,serif" font-size="14.00">dra.GetFreeEntity</text>
</a>
</g>
</g>
<!-- lib.func_us_801CCED0&#45;&gt;dra.GetFreeEntity -->
<g id="edge1" class="edge">
<title>lib.func_us_801CCED0&#45;&gt;dra.GetFreeEntity</title>
<path fill="none" stroke="black" d="M188.41,-179.93C170.44,-148.57 132.06,-81.6 110.92,-44.71"/>
<polygon fill="black" stroke="black" points="113.95,-42.95 105.94,-36.02 107.88,-46.43 113.95,-42.95"/>
<text text-anchor="middle" x="100.94" y="-39.82" font-family="Times,serif" font-size="14.00">1</text>
</g>
<!-- lib.DestroyEntity -->
<g id="node3" class="node">
<title>lib.DestroyEntity</title>
<g id="a_node3"><a xlink:href="lib.DestroyEntity.svg" xlink:title="lib.DestroyEntity">
<ellipse fill="green" stroke="black" cx="301.19" cy="-18" rx="90.98" ry="18"/>
<text text-anchor="middle" x="301.19" y="-14.3" font-family="Times,serif" font-size="14.00">lib.DestroyEntity</text>
</a>
</g>
</g>
<!-- lib.func_us_801CCED0&#45;&gt;lib.DestroyEntity -->
<g id="edge2" class="edge">
<title>lib.func_us_801CCED0&#45;&gt;lib.DestroyEntity</title>
<path fill="none" stroke="black" d="M208.07,-179.93C226.22,-148.57 264.97,-81.6 286.32,-44.71"/>
<polygon fill="black" stroke="black" points="289.37,-46.42 291.35,-36.02 283.31,-42.92 289.37,-46.42"/>
<text text-anchor="middle" x="286.35" y="-39.82" font-family="Times,serif" font-size="14.00">1</text>
</g>
<!-- lib.func_us_801CD318 -->
<g id="node4" class="node">
<title>lib.func_us_801CD318</title>
<g id="a_node4"><a xlink:href="lib.func_us_801CD318.svg" xlink:title="lib.func_us_801CD318">
<ellipse fill="green" stroke="black" cx="198.19" cy="-378" rx="114.28" ry="18"/>
<text text-anchor="middle" x="198.19" y="-374.3" font-family="Times,serif" font-size="14.00">lib.func_us_801CD318</text>
</a>
</g>
</g>
<!-- lib.func_us_801CD318&#45;&gt;lib.func_us_801CCED0 -->
<g id="edge3" class="edge">
<title>lib.func_us_801CD318&#45;&gt;lib.func_us_801CCED0</title>
<path fill="none" stroke="black" d="M198.19,-359.93C198.19,-328.97 198.19,-263.3 198.19,-226.13"/>
<polygon fill="black" stroke="black" points="201.69,-226.02 198.19,-216.02 194.69,-226.02 201.69,-226.02"/>
<text text-anchor="middle" x="193.19" y="-348.73" font-family="Times,serif" font-size="14.00">1</text>
</g>
</g>
</svg>
