<?xml version="1.0" encoding="UTF-8" standalone="no"?>
<!DOCTYPE svg PUBLIC "-//W3C//DTD SVG 1.1//EN"
 "http://www.w3.org/Graphics/SVG/1.1/DTD/svg11.dtd">
<!-- Generated by graphviz version 2.43.0 (0)
 -->
<!-- Title: lib.UnkRecursivePrimFunc2 Pages: 1 -->
<svg width="327pt" height="240pt"
 viewBox="0.00 0.00 327.37 240.22" xmlns="http://www.w3.org/2000/svg" xmlns:xlink="http://www.w3.org/1999/xlink">
<g id="graph0" class="graph" transform="scale(1 1) rotate(0) translate(4 236.22)">
<title>lib.UnkRecursivePrimFunc2</title>
<polygon fill="white" stroke="transparent" points="-4,4 -4,-236.22 323.37,-236.22 323.37,4 -4,4"/>
<!-- lib.UnkRecursivePrimFunc2 -->
<g id="node1" class="node">
<title>lib.UnkRecursivePrimFunc2</title>
<g id="a_node1"><a xlink:href="lib.UnkRecursivePrimFunc2.svg" xlink:title="lib.UnkRecursivePrimFunc2">
<ellipse fill="green" stroke="black" cx="141.69" cy="-34.22" rx="141.88" ry="18"/>
<text text-anchor="middle" x="141.69" y="-30.52" font-family="Times,serif" font-size="14.00">lib.UnkRecursivePrimFunc2</text>
</a>
</g>
</g>
<!-- lib.UnkRecursivePrimFunc2&#45;&gt;lib.UnkRecursivePrimFunc2 -->
<g id="edge1" class="edge">
<title>lib.UnkRecursivePrimFunc2&#45;&gt;lib.UnkRecursivePrimFunc2</title>
<path fill="none" stroke="black" d="M212.7,-49.8C257.95,-53.78 301.37,-48.59 301.37,-34.22 301.37,-20.91 264.16,-15.48 222.73,-17.91"/>
<polygon fill="black" stroke="black" points="222.42,-14.42 212.7,-18.64 222.93,-21.4 222.42,-14.42"/>
<text text-anchor="middle" x="207.7" y="-7.44" font-family="Times,serif" font-size="14.00">1</text>
</g>
<!-- lib.UnkRecursivePrimFunc2&#45;&gt;lib.UnkRecursivePrimFunc2 -->
<g id="edge2" class="edge">
<title>lib.UnkRecursivePrimFunc2&#45;&gt;lib.UnkRecursivePrimFunc2</title>
<path fill="none" stroke="black" d="M172.68,-51.83C234.65,-78.15 319.37,-72.27 319.37,-34.22 319.37,1.91 243.04,9.03 182.28,-12.84"/>
<polygon fill="black" stroke="black" points="180.72,-9.7 172.68,-16.6 183.27,-16.22 180.72,-9.7"/>
<text text-anchor="middle" x="167.68" y="-55.63" font-family="Times,serif" font-size="14.00">1</text>
</g>
<!-- lib.func_us_801AE8E8 -->
<g id="node2" class="node">
<title>lib.func_us_801AE8E8</title>
<g id="a_node2"><a xlink:href="lib.func_us_801AE8E8.svg" xlink:title="lib.func_us_801AE8E8">
<ellipse fill="green" stroke="black" cx="141.69" cy="-214.22" rx="114.28" ry="18"/>
<text text-anchor="middle" x="141.69" y="-210.52" font-family="Times,serif" font-size="14.00">lib.func_us_801AE8E8</text>
</a>
</g>
</g>
<!-- lib.func_us_801AE8E8&#45;&gt;lib.UnkRecursivePrimFunc2 -->
<g id="edge3" class="edge">
<title>lib.func_us_801AE8E8&#45;&gt;lib.UnkRecursivePrimFunc2</title>
<path fill="none" stroke="black" d="M141.69,-196.15C141.69,-165.18 141.69,-99.52 141.69,-62.35"/>
<polygon fill="black" stroke="black" points="145.19,-62.23 141.69,-52.23 138.19,-62.23 145.19,-62.23"/>
<text text-anchor="middle" x="136.69" y="-184.95" font-family="Times,serif" font-size="14.00">1</text>
</g>
</g>
</svg>
