<?xml version="1.0" encoding="UTF-8" standalone="no"?>
<!DOCTYPE svg PUBLIC "-//W3C//DTD SVG 1.1//EN"
 "http://www.w3.org/Graphics/SVG/1.1/DTD/svg11.dtd">
<!-- Generated by graphviz version 2.43.0 (0)
 -->
<!-- Title: lib.Ratan2Shifted Pages: 1 -->
<svg width="714pt" height="404pt"
 viewBox="0.00 0.00 713.82 404.00" xmlns="http://www.w3.org/2000/svg" xmlns:xlink="http://www.w3.org/1999/xlink">
<g id="graph0" class="graph" transform="scale(1 1) rotate(0) translate(4 400)">
<title>lib.Ratan2Shifted</title>
<polygon fill="white" stroke="transparent" points="-4,4 -4,-400 709.82,-400 709.82,4 -4,4"/>
<!-- lib.Ratan2Shifted -->
<g id="node1" class="node">
<title>lib.Ratan2Shifted</title>
<ellipse fill="green" stroke="black" cx="359.73" cy="-198" rx="92.08" ry="18"/>
<text text-anchor="middle" x="359.73" y="-194.3" font-family="Times,serif" font-size="14.00">lib.Ratan2Shifted</text>
</g>
<!-- ratan2 -->
<g id="node2" class="node">
<title>ratan2</title>
<g id="a_node2"><a xlink:href="ratan2.svg" xlink:title="ratan2">
<ellipse fill="lightblue" stroke="black" cx="359.73" cy="-18" rx="41.69" ry="18"/>
<text text-anchor="middle" x="359.73" y="-14.3" font-family="Times,serif" font-size="14.00">ratan2</text>
</a>
</g>
</g>
<!-- lib.Ratan2Shifted&#45;&gt;ratan2 -->
<g id="edge1" class="edge">
<title>lib.Ratan2Shifted&#45;&gt;ratan2</title>
<path fill="none" stroke="black" d="M359.73,-179.93C359.73,-148.97 359.73,-83.3 359.73,-46.13"/>
<polygon fill="black" stroke="black" points="363.23,-46.02 359.73,-36.02 356.23,-46.02 363.23,-46.02"/>
<text text-anchor="middle" x="354.73" y="-39.82" font-family="Times,serif" font-size="14.00">1</text>
</g>
<!-- lib.GetAngleBetweenEntitiesShifted -->
<g id="node3" class="node">
<title>lib.GetAngleBetweenEntitiesShifted</title>
<g id="a_node3"><a xlink:href="lib.GetAngleBetweenEntitiesShifted.svg" xlink:title="lib.GetAngleBetweenEntitiesShifted">
<ellipse fill="green" stroke="black" cx="178.73" cy="-378" rx="178.97" ry="18"/>
<text text-anchor="middle" x="178.73" y="-374.3" font-family="Times,serif" font-size="14.00">lib.GetAngleBetweenEntitiesShifted</text>
</a>
</g>
</g>
<!-- lib.GetAngleBetweenEntitiesShifted&#45;&gt;lib.Ratan2Shifted -->
<g id="edge2" class="edge">
<title>lib.GetAngleBetweenEntitiesShifted&#45;&gt;lib.Ratan2Shifted</title>
<path fill="none" stroke="black" d="M196.09,-359.93C228.47,-328.09 298.17,-259.54 335.29,-223.04"/>
<polygon fill="black" stroke="black" points="338.02,-225.26 342.7,-215.76 333.11,-220.27 338.02,-225.26"/>
<text text-anchor="middle" x="191.09" y="-348.73" font-family="Times,serif" font-size="14.00">1</text>
</g>
<!-- lib.GetAnglePointToEntityShifted -->
<g id="node4" class="node">
<title>lib.GetAnglePointToEntityShifted</title>
<g id="a_node4"><a xlink:href="lib.GetAnglePointToEntityShifted.svg" xlink:title="lib.GetAnglePointToEntityShifted">
<ellipse fill="green" stroke="black" cx="540.73" cy="-378" rx="165.17" ry="18"/>
<text text-anchor="middle" x="540.73" y="-374.3" font-family="Times,serif" font-size="14.00">lib.GetAnglePointToEntityShifted</text>
</a>
</g>
</g>
<!-- lib.GetAnglePointToEntityShifted&#45;&gt;lib.Ratan2Shifted -->
<g id="edge3" class="edge">
<title>lib.GetAnglePointToEntityShifted&#45;&gt;lib.Ratan2Shifted</title>
<path fill="none" stroke="black" d="M523.38,-359.93C491,-328.09 421.3,-259.54 384.17,-223.04"/>
<polygon fill="black" stroke="black" points="386.36,-220.27 376.77,-215.76 381.45,-225.26 386.36,-220.27"/>
<text text-anchor="middle" x="518.38" y="-348.73" font-family="Times,serif" font-size="14.00">1</text>
</g>
</g>
</svg>
