<?xml version="1.0" encoding="UTF-8" standalone="no"?>
<!DOCTYPE svg PUBLIC "-//W3C//DTD SVG 1.1//EN"
 "http://www.w3.org/Graphics/SVG/1.1/DTD/svg11.dtd">
<!-- Generated by graphviz version 2.43.0 (0)
 -->
<!-- Title: lib.BottomCornerText Pages: 1 -->
<svg width="624pt" height="404pt"
 viewBox="0.00 0.00 624.44 404.00" xmlns="http://www.w3.org/2000/svg" xmlns:xlink="http://www.w3.org/1999/xlink">
<g id="graph0" class="graph" transform="scale(1 1) rotate(0) translate(4 400)">
<title>lib.BottomCornerText</title>
<polygon fill="white" stroke="transparent" points="-4,4 -4,-400 620.44,-400 620.44,4 -4,4"/>
<!-- lib.BottomCornerText -->
<g id="node1" class="node">
<title>lib.BottomCornerText</title>
<ellipse fill="green" stroke="black" cx="302.29" cy="-198" rx="111.58" ry="18"/>
<text text-anchor="middle" x="302.29" y="-194.3" font-family="Times,serif" font-size="14.00">lib.BottomCornerText</text>
</g>
<!-- dra.AllocPrimitives -->
<g id="node2" class="node">
<title>dra.AllocPrimitives</title>
<g id="a_node2"><a xlink:href="dra.AllocPrimitives.svg" xlink:title="dra.AllocPrimitives">
<ellipse fill="green" stroke="black" cx="302.29" cy="-18" rx="99.38" ry="18"/>
<text text-anchor="middle" x="302.29" y="-14.3" font-family="Times,serif" font-size="14.00">dra.AllocPrimitives</text>
</a>
</g>
</g>
<!-- lib.BottomCornerText&#45;&gt;dra.AllocPrimitives -->
<g id="edge1" class="edge">
<title>lib.BottomCornerText&#45;&gt;dra.AllocPrimitives</title>
<path fill="none" stroke="black" d="M302.29,-179.93C302.29,-148.97 302.29,-83.3 302.29,-46.13"/>
<polygon fill="black" stroke="black" points="305.79,-46.02 302.29,-36.02 298.79,-46.02 305.79,-46.02"/>
<text text-anchor="middle" x="297.29" y="-39.82" font-family="Times,serif" font-size="14.00">1</text>
</g>
<!-- lib.CollectGold -->
<g id="node3" class="node">
<title>lib.CollectGold</title>
<g id="a_node3"><a xlink:href="lib.CollectGold.svg" xlink:title="lib.CollectGold">
<ellipse fill="green" stroke="black" cx="79.29" cy="-378" rx="79.09" ry="18"/>
<text text-anchor="middle" x="79.29" y="-374.3" font-family="Times,serif" font-size="14.00">lib.CollectGold</text>
</a>
</g>
</g>
<!-- lib.CollectGold&#45;&gt;lib.BottomCornerText -->
<g id="edge2" class="edge">
<title>lib.CollectGold&#45;&gt;lib.BottomCornerText</title>
<path fill="none" stroke="black" d="M99.87,-360.57C139.66,-328.81 227.25,-258.9 273.07,-222.33"/>
<polygon fill="black" stroke="black" points="275.48,-224.88 281.11,-215.91 271.11,-219.41 275.48,-224.88"/>
<text text-anchor="middle" x="94.87" y="-349.37" font-family="Times,serif" font-size="14.00">1</text>
</g>
<!-- lib.EntityEquipItemDrop -->
<g id="node4" class="node">
<title>lib.EntityEquipItemDrop</title>
<g id="a_node4"><a xlink:href="lib.EntityEquipItemDrop.svg" xlink:title="lib.EntityEquipItemDrop">
<ellipse fill="green" stroke="black" cx="302.29" cy="-378" rx="126.18" ry="18"/>
<text text-anchor="middle" x="302.29" y="-374.3" font-family="Times,serif" font-size="14.00">lib.EntityEquipItemDrop</text>
</a>
</g>
</g>
<!-- lib.EntityEquipItemDrop&#45;&gt;lib.BottomCornerText -->
<g id="edge3" class="edge">
<title>lib.EntityEquipItemDrop&#45;&gt;lib.BottomCornerText</title>
<path fill="none" stroke="black" d="M302.29,-359.93C302.29,-328.97 302.29,-263.3 302.29,-226.13"/>
<polygon fill="black" stroke="black" points="305.79,-226.02 302.29,-216.02 298.79,-226.02 305.79,-226.02"/>
<text text-anchor="middle" x="297.29" y="-348.73" font-family="Times,serif" font-size="14.00">1</text>
</g>
<!-- lib.HitDetection -->
<g id="node5" class="node">
<title>lib.HitDetection</title>
<g id="a_node5"><a xlink:href="lib.HitDetection.svg" xlink:title="lib.HitDetection">
<ellipse fill="green" stroke="black" cx="531.29" cy="-378" rx="85.29" ry="18"/>
<text text-anchor="middle" x="531.29" y="-374.3" font-family="Times,serif" font-size="14.00">lib.HitDetection</text>
</a>
</g>
</g>
<!-- lib.HitDetection&#45;&gt;lib.BottomCornerText -->
<g id="edge4" class="edge">
<title>lib.HitDetection&#45;&gt;lib.BottomCornerText</title>
<path fill="none" stroke="black" d="M509.75,-360.25C468.58,-328.25 378.66,-258.36 331.88,-222"/>
<polygon fill="black" stroke="black" points="333.99,-219.2 323.95,-215.83 329.69,-224.73 333.99,-219.2"/>
<text text-anchor="middle" x="504.75" y="-349.05" font-family="Times,serif" font-size="14.00">1</text>
</g>
</g>
</svg>
