<?xml version="1.0" encoding="UTF-8" standalone="no"?>
<!DOCTYPE svg PUBLIC "-//W3C//DTD SVG 1.1//EN"
 "http://www.w3.org/Graphics/SVG/1.1/DTD/svg11.dtd">
<!-- Generated by graphviz version 2.43.0 (0)
 -->
<!-- Title: lib.UnkCollisionFunc2 Pages: 1 -->
<svg width="1408pt" height="404pt"
 viewBox="0.00 0.00 1408.38 404.00" xmlns="http://www.w3.org/2000/svg" xmlns:xlink="http://www.w3.org/1999/xlink">
<g id="graph0" class="graph" transform="scale(1 1) rotate(0) translate(4 400)">
<title>lib.UnkCollisionFunc2</title>
<polygon fill="white" stroke="transparent" points="-4,4 -4,-400 1404.38,-400 1404.38,4 -4,4"/>
<!-- lib.UnkCollisionFunc2 -->
<g id="node1" class="node">
<title>lib.UnkCollisionFunc2</title>
<ellipse fill="green" stroke="black" cx="679.24" cy="-198" rx="113.18" ry="18"/>
<text text-anchor="middle" x="679.24" y="-194.3" font-family="Times,serif" font-size="14.00">lib.UnkCollisionFunc2</text>
</g>
<!-- dra.CheckCollision -->
<g id="node2" class="node">
<title>dra.CheckCollision</title>
<g id="a_node2"><a xlink:href="dra.CheckCollision.svg" xlink:title="dra.CheckCollision">
<ellipse fill="green" stroke="black" cx="568.24" cy="-18" rx="97.48" ry="18"/>
<text text-anchor="middle" x="568.24" y="-14.3" font-family="Times,serif" font-size="14.00">dra.CheckCollision</text>
</a>
</g>
</g>
<!-- lib.UnkCollisionFunc2&#45;&gt;dra.CheckCollision -->
<g id="edge1" class="edge">
<title>lib.UnkCollisionFunc2&#45;&gt;dra.CheckCollision</title>
<path fill="none" stroke="black" d="M668.6,-179.93C649.04,-148.57 607.28,-81.6 584.27,-44.71"/>
<polygon fill="black" stroke="black" points="587.11,-42.65 578.85,-36.02 581.17,-46.35 587.11,-42.65"/>
<text text-anchor="middle" x="573.85" y="-39.82" font-family="Times,serif" font-size="14.00">1</text>
</g>
<!-- g_api_CheckCollision -->
<g id="node3" class="node">
<title>g_api_CheckCollision</title>
<g id="a_node3"><a xlink:href="g_api_CheckCollision.svg" xlink:title="g_api_CheckCollision">
<ellipse fill="lightblue" stroke="black" cx="791.24" cy="-18" rx="107.78" ry="18"/>
<text text-anchor="middle" x="791.24" y="-14.3" font-family="Times,serif" font-size="14.00">g_api_CheckCollision</text>
</a>
</g>
</g>
<!-- lib.UnkCollisionFunc2&#45;&gt;g_api_CheckCollision -->
<g id="edge2" class="edge">
<title>lib.UnkCollisionFunc2&#45;&gt;g_api_CheckCollision</title>
<path fill="none" stroke="black" d="M689.98,-179.93C709.71,-148.57 751.85,-81.6 775.06,-44.71"/>
<polygon fill="black" stroke="black" points="778.17,-46.34 780.53,-36.02 772.24,-42.62 778.17,-46.34"/>
<text text-anchor="middle" x="775.53" y="-39.82" font-family="Times,serif" font-size="14.00">2</text>
</g>
<!-- lib.EntityBloodyZombie -->
<g id="node4" class="node">
<title>lib.EntityBloodyZombie</title>
<g id="a_node4"><a xlink:href="lib.EntityBloodyZombie.svg" xlink:title="lib.EntityBloodyZombie">
<ellipse fill="green" stroke="black" cx="120.24" cy="-378" rx="120.48" ry="18"/>
<text text-anchor="middle" x="120.24" y="-374.3" font-family="Times,serif" font-size="14.00">lib.EntityBloodyZombie</text>
</a>
</g>
</g>
<!-- lib.EntityBloodyZombie&#45;&gt;lib.UnkCollisionFunc2 -->
<g id="edge3" class="edge">
<title>lib.EntityBloodyZombie&#45;&gt;lib.UnkCollisionFunc2</title>
<path fill="none" stroke="black" d="M168.87,-361.52C271.75,-328.76 511.03,-252.56 621.48,-217.39"/>
<polygon fill="black" stroke="black" points="622.65,-220.69 631.12,-214.32 620.53,-214.02 622.65,-220.69"/>
<text text-anchor="middle" x="163.87" y="-350.32" font-family="Times,serif" font-size="14.00">2</text>
</g>
<!-- lib.EntityDhuron -->
<g id="node5" class="node">
<title>lib.EntityDhuron</title>
<g id="a_node5"><a xlink:href="lib.EntityDhuron.svg" xlink:title="lib.EntityDhuron">
<ellipse fill="green" stroke="black" cx="347.24" cy="-378" rx="89.08" ry="18"/>
<text text-anchor="middle" x="347.24" y="-374.3" font-family="Times,serif" font-size="14.00">lib.EntityDhuron</text>
</a>
</g>
</g>
<!-- lib.EntityDhuron&#45;&gt;lib.UnkCollisionFunc2 -->
<g id="edge4" class="edge">
<title>lib.EntityDhuron&#45;&gt;lib.UnkCollisionFunc2</title>
<path fill="none" stroke="black" d="M377.29,-360.89C437.35,-328.69 572.23,-256.37 639.51,-220.3"/>
<polygon fill="black" stroke="black" points="641.38,-223.27 648.54,-215.46 638.07,-217.1 641.38,-223.27"/>
<text text-anchor="middle" x="372.29" y="-349.69" font-family="Times,serif" font-size="14.00">2</text>
</g>
<!-- lib.EntityFleaArmor -->
<g id="node6" class="node">
<title>lib.EntityFleaArmor</title>
<g id="a_node6"><a xlink:href="lib.EntityFleaArmor.svg" xlink:title="lib.EntityFleaArmor">
<ellipse fill="green" stroke="black" cx="557.24" cy="-378" rx="103.18" ry="18"/>
<text text-anchor="middle" x="557.24" y="-374.3" font-family="Times,serif" font-size="14.00">lib.EntityFleaArmor</text>
</a>
</g>
</g>
<!-- lib.EntityFleaArmor&#45;&gt;lib.UnkCollisionFunc2 -->
<g id="edge5" class="edge">
<title>lib.EntityFleaArmor&#45;&gt;lib.UnkCollisionFunc2</title>
<path fill="none" stroke="black" d="M568.94,-359.93C590.43,-328.57 636.33,-261.6 661.62,-224.71"/>
<polygon fill="black" stroke="black" points="664.81,-226.24 667.58,-216.02 659.04,-222.29 664.81,-226.24"/>
<text text-anchor="middle" x="563.94" y="-348.73" font-family="Times,serif" font-size="14.00">1</text>
</g>
<!-- lib.EntityFlyingZombie2 -->
<g id="node7" class="node">
<title>lib.EntityFlyingZombie2</title>
<g id="a_node7"><a xlink:href="lib.EntityFlyingZombie2.svg" xlink:title="lib.EntityFlyingZombie2">
<ellipse fill="green" stroke="black" cx="802.24" cy="-378" rx="124.28" ry="18"/>
<text text-anchor="middle" x="802.24" y="-374.3" font-family="Times,serif" font-size="14.00">lib.EntityFlyingZombie2</text>
</a>
</g>
</g>
<!-- lib.EntityFlyingZombie2&#45;&gt;lib.UnkCollisionFunc2 -->
<g id="edge6" class="edge">
<title>lib.EntityFlyingZombie2&#45;&gt;lib.UnkCollisionFunc2</title>
<path fill="none" stroke="black" d="M790.45,-359.93C768.77,-328.57 722.5,-261.6 697,-224.71"/>
<polygon fill="black" stroke="black" points="699.56,-222.25 691,-216.02 693.8,-226.23 699.56,-222.25"/>
<text text-anchor="middle" x="785.45" y="-348.73" font-family="Times,serif" font-size="14.00">2</text>
</g>
<!-- lib.EntityMudman -->
<g id="node8" class="node">
<title>lib.EntityMudman</title>
<g id="a_node8"><a xlink:href="lib.EntityMudman.svg" xlink:title="lib.EntityMudman">
<ellipse fill="green" stroke="black" cx="1039.24" cy="-378" rx="94.78" ry="18"/>
<text text-anchor="middle" x="1039.24" y="-374.3" font-family="Times,serif" font-size="14.00">lib.EntityMudman</text>
</a>
</g>
</g>
<!-- lib.EntityMudman&#45;&gt;lib.UnkCollisionFunc2 -->
<g id="edge7" class="edge">
<title>lib.EntityMudman&#45;&gt;lib.UnkCollisionFunc2</title>
<path fill="none" stroke="black" d="M1006.97,-361.05C941.73,-328.79 794.17,-255.83 721.41,-219.85"/>
<polygon fill="black" stroke="black" points="722.6,-216.53 712.08,-215.24 719.49,-222.81 722.6,-216.53"/>
<text text-anchor="middle" x="1001.97" y="-349.85" font-family="Times,serif" font-size="14.00">1</text>
</g>
<!-- lib.SkeletonAttackCheck -->
<g id="node9" class="node">
<title>lib.SkeletonAttackCheck</title>
<g id="a_node9"><a xlink:href="lib.SkeletonAttackCheck.svg" xlink:title="lib.SkeletonAttackCheck">
<ellipse fill="green" stroke="black" cx="1276.24" cy="-378" rx="124.28" ry="18"/>
<text text-anchor="middle" x="1276.24" y="-374.3" font-family="Times,serif" font-size="14.00">lib.SkeletonAttackCheck</text>
</a>
</g>
</g>
<!-- lib.SkeletonAttackCheck&#45;&gt;lib.UnkCollisionFunc2 -->
<g id="edge8" class="edge">
<title>lib.SkeletonAttackCheck&#45;&gt;lib.UnkCollisionFunc2</title>
<path fill="none" stroke="black" d="M1224.56,-361.59C1114.61,-328.81 857.91,-252.27 740.2,-217.17"/>
<polygon fill="black" stroke="black" points="740.85,-213.72 730.26,-214.21 738.85,-220.42 740.85,-213.72"/>
<text text-anchor="middle" x="1219.56" y="-350.39" font-family="Times,serif" font-size="14.00">1</text>
</g>
</g>
</svg>
