<?xml version="1.0" encoding="UTF-8" standalone="no"?>
<!DOCTYPE svg PUBLIC "-//W3C//DTD SVG 1.1//EN"
 "http://www.w3.org/Graphics/SVG/1.1/DTD/svg11.dtd">
<!-- Generated by graphviz version 2.43.0 (0)
 -->
<!-- Title: lib.func_us_801B8234 Pages: 1 -->
<svg width="2099pt" height="224pt"
 viewBox="0.00 0.00 2098.83 224.00" xmlns="http://www.w3.org/2000/svg" xmlns:xlink="http://www.w3.org/1999/xlink">
<g id="graph0" class="graph" transform="scale(1 1) rotate(0) translate(4 220)">
<title>lib.func_us_801B8234</title>
<polygon fill="white" stroke="transparent" points="-4,4 -4,-220 2094.83,-220 2094.83,4 -4,4"/>
<!-- lib.func_us_801B8234 -->
<g id="node1" class="node">
<title>lib.func_us_801B8234</title>
<ellipse fill="green" stroke="black" cx="1046.44" cy="-198" rx="112.38" ry="18"/>
<text text-anchor="middle" x="1046.44" y="-194.3" font-family="Times,serif" font-size="14.00">lib.func_us_801B8234</text>
</g>
<!-- dra.AllocPrimitives -->
<g id="node2" class="node">
<title>dra.AllocPrimitives</title>
<g id="a_node2"><a xlink:href="dra.AllocPrimitives.svg" xlink:title="dra.AllocPrimitives">
<ellipse fill="green" stroke="black" cx="99.44" cy="-18" rx="99.38" ry="18"/>
<text text-anchor="middle" x="99.44" y="-14.3" font-family="Times,serif" font-size="14.00">dra.AllocPrimitives</text>
</a>
</g>
</g>
<!-- lib.func_us_801B8234&#45;&gt;dra.AllocPrimitives -->
<g id="edge1" class="edge">
<title>lib.func_us_801B8234&#45;&gt;dra.AllocPrimitives</title>
<path fill="none" stroke="black" d="M976.42,-183.84C803.08,-151.26 355.05,-67.05 175.51,-33.3"/>
<polygon fill="black" stroke="black" points="176.09,-29.85 165.62,-31.44 174.8,-36.73 176.09,-29.85"/>
<text text-anchor="middle" x="160.62" y="-35.24" font-family="Times,serif" font-size="14.00">1</text>
</g>
<!-- dra.LoadMonsterLibrarianPreview -->
<g id="node3" class="node">
<title>dra.LoadMonsterLibrarianPreview</title>
<g id="a_node3"><a xlink:href="dra.LoadMonsterLibrarianPreview.svg" xlink:title="dra.LoadMonsterLibrarianPreview">
<ellipse fill="green" stroke="black" cx="387.44" cy="-18" rx="170.87" ry="18"/>
<text text-anchor="middle" x="387.44" y="-14.3" font-family="Times,serif" font-size="14.00">dra.LoadMonsterLibrarianPreview</text>
</a>
</g>
</g>
<!-- lib.func_us_801B8234&#45;&gt;dra.LoadMonsterLibrarianPreview -->
<g id="edge2" class="edge">
<title>lib.func_us_801B8234&#45;&gt;dra.LoadMonsterLibrarianPreview</title>
<path fill="none" stroke="black" d="M991.67,-182.21C872.17,-149.93 588.21,-73.23 456.61,-37.68"/>
<polygon fill="black" stroke="black" points="457.21,-34.22 446.64,-34.99 455.38,-40.98 457.21,-34.22"/>
<text text-anchor="middle" x="441.64" y="-38.79" font-family="Times,serif" font-size="14.00">1</text>
</g>
<!-- lib.DestroyEntity -->
<g id="node4" class="node">
<title>lib.DestroyEntity</title>
<g id="a_node4"><a xlink:href="lib.DestroyEntity.svg" xlink:title="lib.DestroyEntity">
<ellipse fill="green" stroke="black" cx="667.44" cy="-18" rx="90.98" ry="18"/>
<text text-anchor="middle" x="667.44" y="-14.3" font-family="Times,serif" font-size="14.00">lib.DestroyEntity</text>
</a>
</g>
</g>
<!-- lib.func_us_801B8234&#45;&gt;lib.DestroyEntity -->
<g id="edge3" class="edge">
<title>lib.func_us_801B8234&#45;&gt;lib.DestroyEntity</title>
<path fill="none" stroke="black" d="M1011.8,-180.73C942.32,-148.1 786.11,-74.74 710.32,-39.14"/>
<polygon fill="black" stroke="black" points="711.59,-35.87 701.05,-34.78 708.61,-42.2 711.59,-35.87"/>
<text text-anchor="middle" x="696.05" y="-38.58" font-family="Times,serif" font-size="14.00">1</text>
</g>
<!-- lib.InitializeEntity -->
<g id="node5" class="node">
<title>lib.InitializeEntity</title>
<g id="a_node5"><a xlink:href="lib.InitializeEntity.svg" xlink:title="lib.InitializeEntity">
<ellipse fill="green" stroke="black" cx="871.44" cy="-18" rx="94.78" ry="18"/>
<text text-anchor="middle" x="871.44" y="-14.3" font-family="Times,serif" font-size="14.00">lib.InitializeEntity</text>
</a>
</g>
</g>
<!-- lib.func_us_801B8234&#45;&gt;lib.InitializeEntity -->
<g id="edge4" class="edge">
<title>lib.func_us_801B8234&#45;&gt;lib.InitializeEntity</title>
<path fill="none" stroke="black" d="M1029.66,-179.93C998.35,-148.09 930.97,-79.54 895.07,-43.04"/>
<polygon fill="black" stroke="black" points="897.42,-40.43 887.91,-35.76 892.43,-45.34 897.42,-40.43"/>
<text text-anchor="middle" x="882.91" y="-39.56" font-family="Times,serif" font-size="14.00">1</text>
</g>
<!-- lib.SetStep -->
<g id="node6" class="node">
<title>lib.SetStep</title>
<g id="a_node6"><a xlink:href="lib.SetStep.svg" xlink:title="lib.SetStep">
<ellipse fill="green" stroke="black" cx="1046.44" cy="-18" rx="62.29" ry="18"/>
<text text-anchor="middle" x="1046.44" y="-14.3" font-family="Times,serif" font-size="14.00">lib.SetStep</text>
</a>
</g>
</g>
<!-- lib.func_us_801B8234&#45;&gt;lib.SetStep -->
<g id="edge5" class="edge">
<title>lib.func_us_801B8234&#45;&gt;lib.SetStep</title>
<path fill="none" stroke="black" d="M1046.44,-179.93C1046.44,-148.97 1046.44,-83.3 1046.44,-46.13"/>
<polygon fill="black" stroke="black" points="1049.94,-46.02 1046.44,-36.02 1042.94,-46.02 1049.94,-46.02"/>
<text text-anchor="middle" x="1041.44" y="-39.82" font-family="Times,serif" font-size="14.00">6</text>
</g>
<!-- lib.func_us_801B0C40 -->
<g id="node7" class="node">
<title>lib.func_us_801B0C40</title>
<g id="a_node7"><a xlink:href="lib.func_us_801B0C40.svg" xlink:title="lib.func_us_801B0C40">
<ellipse fill="green" stroke="black" cx="1240.44" cy="-18" rx="113.98" ry="18"/>
<text text-anchor="middle" x="1240.44" y="-14.3" font-family="Times,serif" font-size="14.00">lib.func_us_801B0C40</text>
</a>
</g>
</g>
<!-- lib.func_us_801B8234&#45;&gt;lib.func_us_801B0C40 -->
<g id="edge6" class="edge">
<title>lib.func_us_801B8234&#45;&gt;lib.func_us_801B0C40</title>
<path fill="none" stroke="black" d="M1065.04,-179.93C1099.81,-148.04 1174.7,-79.32 1214.44,-42.86"/>
<polygon fill="black" stroke="black" points="1216.89,-45.36 1221.9,-36.02 1212.16,-40.2 1216.89,-45.36"/>
<text text-anchor="middle" x="1216.9" y="-39.82" font-family="Times,serif" font-size="14.00">1</text>
</g>
<!-- lib.func_us_801B11A0 -->
<g id="node8" class="node">
<title>lib.func_us_801B11A0</title>
<g id="a_node8"><a xlink:href="lib.func_us_801B11A0.svg" xlink:title="lib.func_us_801B11A0">
<ellipse fill="green" stroke="black" cx="1485.44" cy="-18" rx="113.18" ry="18"/>
<text text-anchor="middle" x="1485.44" y="-14.3" font-family="Times,serif" font-size="14.00">lib.func_us_801B11A0</text>
</a>
</g>
</g>
<!-- lib.func_us_801B8234&#45;&gt;lib.func_us_801B11A0 -->
<g id="edge7" class="edge">
<title>lib.func_us_801B8234&#45;&gt;lib.func_us_801B11A0</title>
<path fill="none" stroke="black" d="M1085.79,-181.05C1166.11,-148.48 1348.79,-74.41 1436.57,-38.82"/>
<polygon fill="black" stroke="black" points="1438.07,-41.98 1446.03,-34.98 1435.44,-35.5 1438.07,-41.98"/>
<text text-anchor="middle" x="1441.03" y="-38.78" font-family="Times,serif" font-size="14.00">1</text>
</g>
<!-- lib.func_us_801B245C -->
<g id="node9" class="node">
<title>lib.func_us_801B245C</title>
<g id="a_node9"><a xlink:href="lib.func_us_801B245C.svg" xlink:title="lib.func_us_801B245C">
<ellipse fill="green" stroke="black" cx="1730.44" cy="-18" rx="113.98" ry="18"/>
<text text-anchor="middle" x="1730.44" y="-14.3" font-family="Times,serif" font-size="14.00">lib.func_us_801B245C</text>
</a>
</g>
</g>
<!-- lib.func_us_801B8234&#45;&gt;lib.func_us_801B245C -->
<g id="edge8" class="edge">
<title>lib.func_us_801B8234&#45;&gt;lib.func_us_801B245C</title>
<path fill="none" stroke="black" d="M1102.71,-182.36C1228.04,-149.74 1529.68,-71.25 1663.99,-36.29"/>
<polygon fill="black" stroke="black" points="1664.96,-39.66 1673.76,-33.75 1663.2,-32.88 1664.96,-39.66"/>
<text text-anchor="middle" x="1668.76" y="-37.55" font-family="Times,serif" font-size="14.00">3</text>
</g>
<!-- lib.func_us_801B7DF8 -->
<g id="node10" class="node">
<title>lib.func_us_801B7DF8</title>
<g id="a_node10"><a xlink:href="lib.func_us_801B7DF8.svg" xlink:title="lib.func_us_801B7DF8">
<ellipse fill="green" stroke="black" cx="1976.44" cy="-18" rx="114.28" ry="18"/>
<text text-anchor="middle" x="1976.44" y="-14.3" font-family="Times,serif" font-size="14.00">lib.func_us_801B7DF8</text>
</a>
</g>
</g>
<!-- lib.func_us_801B8234&#45;&gt;lib.func_us_801B7DF8 -->
<g id="edge9" class="edge">
<title>lib.func_us_801B8234&#45;&gt;lib.func_us_801B7DF8</title>
<path fill="none" stroke="black" d="M1115.58,-183.77C1284.56,-151.42 1717.72,-68.52 1896.95,-34.21"/>
<polygon fill="black" stroke="black" points="1897.68,-37.64 1906.84,-32.32 1896.36,-30.76 1897.68,-37.64"/>
<text text-anchor="middle" x="1901.84" y="-36.12" font-family="Times,serif" font-size="14.00">1</text>
</g>
</g>
</svg>
