<?xml version="1.0" encoding="UTF-8" standalone="no"?>
<!DOCTYPE svg PUBLIC "-//W3C//DTD SVG 1.1//EN"
 "http://www.w3.org/Graphics/SVG/1.1/DTD/svg11.dtd">
<!-- Generated by graphviz version 2.43.0 (0)
 -->
<!-- Title: lib.AllocEntity Pages: 1 -->
<svg width="6069pt" height="404pt"
 viewBox="0.00 0.00 6068.63 404.00" xmlns="http://www.w3.org/2000/svg" xmlns:xlink="http://www.w3.org/1999/xlink">
<g id="graph0" class="graph" transform="scale(1 1) rotate(0) translate(4 400)">
<title>lib.AllocEntity</title>
<polygon fill="white" stroke="transparent" points="-4,4 -4,-400 6064.63,-400 6064.63,4 -4,4"/>
<!-- lib.AllocEntity -->
<g id="node1" class="node">
<title>lib.AllocEntity</title>
<ellipse fill="green" stroke="black" cx="3279.24" cy="-198" rx="76.89" ry="18"/>
<text text-anchor="middle" x="3279.24" y="-194.3" font-family="Times,serif" font-size="14.00">lib.AllocEntity</text>
</g>
<!-- lib.DestroyEntity -->
<g id="node2" class="node">
<title>lib.DestroyEntity</title>
<g id="a_node2"><a xlink:href="lib.DestroyEntity.svg" xlink:title="lib.DestroyEntity">
<ellipse fill="green" stroke="black" cx="3279.24" cy="-18" rx="90.98" ry="18"/>
<text text-anchor="middle" x="3279.24" y="-14.3" font-family="Times,serif" font-size="14.00">lib.DestroyEntity</text>
</a>
</g>
</g>
<!-- lib.AllocEntity&#45;&gt;lib.DestroyEntity -->
<g id="edge1" class="edge">
<title>lib.AllocEntity&#45;&gt;lib.DestroyEntity</title>
<path fill="none" stroke="black" d="M3279.24,-179.93C3279.24,-148.97 3279.24,-83.3 3279.24,-46.13"/>
<polygon fill="black" stroke="black" points="3282.74,-46.02 3279.24,-36.02 3275.74,-46.02 3282.74,-46.02"/>
<text text-anchor="middle" x="3274.24" y="-39.82" font-family="Times,serif" font-size="14.00">1</text>
</g>
<!-- lib.EntityBloodyZombie -->
<g id="node3" class="node">
<title>lib.EntityBloodyZombie</title>
<g id="a_node3"><a xlink:href="lib.EntityBloodyZombie.svg" xlink:title="lib.EntityBloodyZombie">
<ellipse fill="green" stroke="black" cx="120.24" cy="-378" rx="120.48" ry="18"/>
<text text-anchor="middle" x="120.24" y="-374.3" font-family="Times,serif" font-size="14.00">lib.EntityBloodyZombie</text>
</a>
</g>
</g>
<!-- lib.EntityBloodyZombie&#45;&gt;lib.AllocEntity -->
<g id="edge2" class="edge">
<title>lib.EntityBloodyZombie&#45;&gt;lib.AllocEntity</title>
<path fill="none" stroke="black" d="M203.75,-365.03C218.87,-363.14 234.51,-361.36 249.24,-360 1412.08,-252.65 2833.08,-210.49 3193.17,-201.12"/>
<polygon fill="black" stroke="black" points="3193.36,-204.61 3203.26,-200.86 3193.18,-197.62 3193.36,-204.61"/>
<text text-anchor="middle" x="198.75" y="-353.83" font-family="Times,serif" font-size="14.00">5</text>
</g>
<!-- lib.EntityBreakable -->
<g id="node4" class="node">
<title>lib.EntityBreakable</title>
<g id="a_node4"><a xlink:href="lib.EntityBreakable.svg" xlink:title="lib.EntityBreakable">
<ellipse fill="green" stroke="black" cx="359.24" cy="-378" rx="100.98" ry="18"/>
<text text-anchor="middle" x="359.24" y="-374.3" font-family="Times,serif" font-size="14.00">lib.EntityBreakable</text>
</a>
</g>
</g>
<!-- lib.EntityBreakable&#45;&gt;lib.AllocEntity -->
<g id="edge3" class="edge">
<title>lib.EntityBreakable&#45;&gt;lib.AllocEntity</title>
<path fill="none" stroke="black" d="M429.82,-365.07C442.9,-363.15 456.46,-361.35 469.24,-360 1539.94,-246.86 2849.15,-209.21 3193.16,-200.92"/>
<polygon fill="black" stroke="black" points="3193.38,-204.41 3203.3,-200.67 3193.22,-197.41 3193.38,-204.41"/>
<text text-anchor="middle" x="424.82" y="-353.87" font-family="Times,serif" font-size="14.00">5</text>
</g>
<!-- lib.EntityCandleTable -->
<g id="node5" class="node">
<title>lib.EntityCandleTable</title>
<g id="a_node5"><a xlink:href="lib.EntityCandleTable.svg" xlink:title="lib.EntityCandleTable">
<ellipse fill="green" stroke="black" cx="589.24" cy="-378" rx="111.28" ry="18"/>
<text text-anchor="middle" x="589.24" y="-374.3" font-family="Times,serif" font-size="14.00">lib.EntityCandleTable</text>
</a>
</g>
</g>
<!-- lib.EntityCandleTable&#45;&gt;lib.AllocEntity -->
<g id="edge4" class="edge">
<title>lib.EntityCandleTable&#45;&gt;lib.AllocEntity</title>
<path fill="none" stroke="black" d="M666.92,-365.09C680.98,-363.19 695.53,-361.4 709.24,-360 1682.12,-260.77 2868.86,-213.57 3193.63,-201.93"/>
<polygon fill="black" stroke="black" points="3194.03,-205.42 3203.9,-201.56 3193.78,-198.42 3194.03,-205.42"/>
<text text-anchor="middle" x="661.92" y="-353.89" font-family="Times,serif" font-size="14.00">1</text>
</g>
<!-- lib.EntityCorpseweed -->
<g id="node6" class="node">
<title>lib.EntityCorpseweed</title>
<g id="a_node6"><a xlink:href="lib.EntityCorpseweed.svg" xlink:title="lib.EntityCorpseweed">
<ellipse fill="green" stroke="black" cx="829.24" cy="-378" rx="111.28" ry="18"/>
<text text-anchor="middle" x="829.24" y="-374.3" font-family="Times,serif" font-size="14.00">lib.EntityCorpseweed</text>
</a>
</g>
</g>
<!-- lib.EntityCorpseweed&#45;&gt;lib.AllocEntity -->
<g id="edge5" class="edge">
<title>lib.EntityCorpseweed&#45;&gt;lib.AllocEntity</title>
<path fill="none" stroke="black" d="M907.24,-365.12C921.21,-363.23 935.64,-361.43 949.24,-360 1824.44,-267.89 2890.35,-216.24 3194.56,-202.65"/>
<polygon fill="black" stroke="black" points="3194.8,-206.15 3204.63,-202.2 3194.48,-199.15 3194.8,-206.15"/>
<text text-anchor="middle" x="902.24" y="-353.92" font-family="Times,serif" font-size="14.00">2</text>
</g>
<!-- lib.EntityCorpseweedProjectile -->
<g id="node7" class="node">
<title>lib.EntityCorpseweedProjectile</title>
<g id="a_node7"><a xlink:href="lib.EntityCorpseweedProjectile.svg" xlink:title="lib.EntityCorpseweedProjectile">
<ellipse fill="green" stroke="black" cx="1113.24" cy="-378" rx="155.17" ry="18"/>
<text text-anchor="middle" x="1113.24" y="-374.3" font-family="Times,serif" font-size="14.00">lib.EntityCorpseweedProjectile</text>
</a>
</g>
</g>
<!-- lib.EntityCorpseweedProjectile&#45;&gt;lib.AllocEntity -->
<g id="edge6" class="edge">
<title>lib.EntityCorpseweedProjectile&#45;&gt;lib.AllocEntity</title>
<path fill="none" stroke="black" d="M1223.03,-365.27C1241.14,-363.43 1259.71,-361.61 1277.24,-360 2021.58,-291.5 2923.14,-224.83 3196.68,-204.95"/>
<polygon fill="black" stroke="black" points="3197.2,-208.43 3206.92,-204.21 3196.69,-201.44 3197.2,-208.43"/>
<text text-anchor="middle" x="1218.03" y="-354.07" font-family="Times,serif" font-size="14.00">1</text>
</g>
<!-- lib.EntityDhuron -->
<g id="node8" class="node">
<title>lib.EntityDhuron</title>
<g id="a_node8"><a xlink:href="lib.EntityDhuron.svg" xlink:title="lib.EntityDhuron">
<ellipse fill="green" stroke="black" cx="1375.24" cy="-378" rx="89.08" ry="18"/>
<text text-anchor="middle" x="1375.24" y="-374.3" font-family="Times,serif" font-size="14.00">lib.EntityDhuron</text>
</a>
</g>
</g>
<!-- lib.EntityDhuron&#45;&gt;lib.AllocEntity -->
<g id="edge7" class="edge">
<title>lib.EntityDhuron&#45;&gt;lib.AllocEntity</title>
<path fill="none" stroke="black" d="M1438.38,-365.25C1449.95,-363.33 1461.94,-361.48 1473.24,-360 2134.67,-273.3 2938.62,-219.81 3195.87,-203.97"/>
<polygon fill="black" stroke="black" points="3196.12,-207.46 3205.89,-203.35 3195.69,-200.47 3196.12,-207.46"/>
<text text-anchor="middle" x="1433.38" y="-354.05" font-family="Times,serif" font-size="14.00">3</text>
</g>
<!-- lib.EntityExplosionVariantsSpawner -->
<g id="node9" class="node">
<title>lib.EntityExplosionVariantsSpawner</title>
<g id="a_node9"><a xlink:href="lib.EntityExplosionVariantsSpawner.svg" xlink:title="lib.EntityExplosionVariantsSpawner">
<ellipse fill="green" stroke="black" cx="1661.24" cy="-378" rx="178.97" ry="18"/>
<text text-anchor="middle" x="1661.24" y="-374.3" font-family="Times,serif" font-size="14.00">lib.EntityExplosionVariantsSpawner</text>
</a>
</g>
</g>
<!-- lib.EntityExplosionVariantsSpawner&#45;&gt;lib.AllocEntity -->
<g id="edge8" class="edge">
<title>lib.EntityExplosionVariantsSpawner&#45;&gt;lib.AllocEntity</title>
<path fill="none" stroke="black" d="M1776.95,-364.27C2088.5,-330 2939.13,-236.42 3201.28,-207.58"/>
<polygon fill="black" stroke="black" points="3201.91,-211.03 3211.47,-206.46 3201.15,-204.07 3201.91,-211.03"/>
<text text-anchor="middle" x="1771.95" y="-353.07" font-family="Times,serif" font-size="14.00">1</text>
</g>
<!-- lib.EntityFleaArmor -->
<g id="node10" class="node">
<title>lib.EntityFleaArmor</title>
<g id="a_node10"><a xlink:href="lib.EntityFleaArmor.svg" xlink:title="lib.EntityFleaArmor">
<ellipse fill="green" stroke="black" cx="1961.24" cy="-378" rx="103.18" ry="18"/>
<text text-anchor="middle" x="1961.24" y="-374.3" font-family="Times,serif" font-size="14.00">lib.EntityFleaArmor</text>
</a>
</g>
</g>
<!-- lib.EntityFleaArmor&#45;&gt;lib.AllocEntity -->
<g id="edge9" class="edge">
<title>lib.EntityFleaArmor&#45;&gt;lib.AllocEntity</title>
<path fill="none" stroke="black" d="M2035.92,-365.47C2048.37,-363.61 2061.17,-361.72 2073.24,-360 2500.09,-299.12 3012.97,-232.97 3203.31,-208.66"/>
<polygon fill="black" stroke="black" points="3204.01,-212.09 3213.49,-207.36 3203.13,-205.15 3204.01,-212.09"/>
<text text-anchor="middle" x="2030.92" y="-354.27" font-family="Times,serif" font-size="14.00">2</text>
</g>
<!-- lib.EntityFlyingZombie1 -->
<g id="node11" class="node">
<title>lib.EntityFlyingZombie1</title>
<g id="a_node11"><a xlink:href="lib.EntityFlyingZombie1.svg" xlink:title="lib.EntityFlyingZombie1">
<ellipse fill="green" stroke="black" cx="2206.24" cy="-378" rx="124.28" ry="18"/>
<text text-anchor="middle" x="2206.24" y="-374.3" font-family="Times,serif" font-size="14.00">lib.EntityFlyingZombie1</text>
</a>
</g>
</g>
<!-- lib.EntityFlyingZombie1&#45;&gt;lib.AllocEntity -->
<g id="edge10" class="edge">
<title>lib.EntityFlyingZombie1&#45;&gt;lib.AllocEntity</title>
<path fill="none" stroke="black" d="M2284.7,-363.98C2485.59,-330.66 3016.13,-242.65 3208.39,-210.75"/>
<polygon fill="black" stroke="black" points="3209.09,-214.18 3218.38,-209.1 3207.95,-207.28 3209.09,-214.18"/>
<text text-anchor="middle" x="2279.7" y="-352.78" font-family="Times,serif" font-size="14.00">4</text>
</g>
<!-- lib.EntityFlyingZombie2 -->
<g id="node12" class="node">
<title>lib.EntityFlyingZombie2</title>
<g id="a_node12"><a xlink:href="lib.EntityFlyingZombie2.svg" xlink:title="lib.EntityFlyingZombie2">
<ellipse fill="green" stroke="black" cx="2472.24" cy="-378" rx="124.28" ry="18"/>
<text text-anchor="middle" x="2472.24" y="-374.3" font-family="Times,serif" font-size="14.00">lib.EntityFlyingZombie2</text>
</a>
</g>
</g>
<!-- lib.EntityFlyingZombie2&#45;&gt;lib.AllocEntity -->
<g id="edge11" class="edge">
<title>lib.EntityFlyingZombie2&#45;&gt;lib.AllocEntity</title>
<path fill="none" stroke="black" d="M2537.26,-362.66C2688.96,-329.2 3064.83,-246.29 3215.39,-213.08"/>
<polygon fill="black" stroke="black" points="3216.39,-216.45 3225.4,-210.88 3214.88,-209.61 3216.39,-216.45"/>
<text text-anchor="middle" x="2532.26" y="-351.46" font-family="Times,serif" font-size="14.00">3</text>
</g>
<!-- lib.EntityGreyPuffSpawner -->
<g id="node13" class="node">
<title>lib.EntityGreyPuffSpawner</title>
<g id="a_node13"><a xlink:href="lib.EntityGreyPuffSpawner.svg" xlink:title="lib.EntityGreyPuffSpawner">
<ellipse fill="green" stroke="black" cx="2750.24" cy="-378" rx="135.68" ry="18"/>
<text text-anchor="middle" x="2750.24" y="-374.3" font-family="Times,serif" font-size="14.00">lib.EntityGreyPuffSpawner</text>
</a>
</g>
</g>
<!-- lib.EntityGreyPuffSpawner&#45;&gt;lib.AllocEntity -->
<g id="edge12" class="edge">
<title>lib.EntityGreyPuffSpawner&#45;&gt;lib.AllocEntity</title>
<path fill="none" stroke="black" d="M2797.65,-361.05C2896.78,-327.69 3125.25,-250.81 3227.79,-216.31"/>
<polygon fill="black" stroke="black" points="3228.95,-219.61 3237.31,-213.11 3226.72,-212.98 3228.95,-219.61"/>
<text text-anchor="middle" x="2792.65" y="-349.85" font-family="Times,serif" font-size="14.00">1</text>
</g>
<!-- lib.EntityLesserDemon -->
<g id="node14" class="node">
<title>lib.EntityLesserDemon</title>
<g id="a_node14"><a xlink:href="lib.EntityLesserDemon.svg" xlink:title="lib.EntityLesserDemon">
<ellipse fill="green" stroke="black" cx="3021.24" cy="-378" rx="117.78" ry="18"/>
<text text-anchor="middle" x="3021.24" y="-374.3" font-family="Times,serif" font-size="14.00">lib.EntityLesserDemon</text>
</a>
</g>
</g>
<!-- lib.EntityLesserDemon&#45;&gt;lib.AllocEntity -->
<g id="edge13" class="edge">
<title>lib.EntityLesserDemon&#45;&gt;lib.AllocEntity</title>
<path fill="none" stroke="black" d="M3045.51,-360.25C3092.33,-327.95 3195.09,-257.06 3247.35,-221"/>
<polygon fill="black" stroke="black" points="3249.35,-223.87 3255.59,-215.31 3245.37,-218.11 3249.35,-223.87"/>
<text text-anchor="middle" x="3040.51" y="-349.05" font-family="Times,serif" font-size="14.00">5</text>
</g>
<!-- lib.EntityLibrarianChair -->
<g id="node15" class="node">
<title>lib.EntityLibrarianChair</title>
<g id="a_node15"><a xlink:href="lib.EntityLibrarianChair.svg" xlink:title="lib.EntityLibrarianChair">
<ellipse fill="green" stroke="black" cx="3279.24" cy="-378" rx="122.38" ry="18"/>
<text text-anchor="middle" x="3279.24" y="-374.3" font-family="Times,serif" font-size="14.00">lib.EntityLibrarianChair</text>
</a>
</g>
</g>
<!-- lib.EntityLibrarianChair&#45;&gt;lib.AllocEntity -->
<g id="edge14" class="edge">
<title>lib.EntityLibrarianChair&#45;&gt;lib.AllocEntity</title>
<path fill="none" stroke="black" d="M3279.24,-359.93C3279.24,-328.97 3279.24,-263.3 3279.24,-226.13"/>
<polygon fill="black" stroke="black" points="3282.74,-226.02 3279.24,-216.02 3275.74,-226.02 3282.74,-226.02"/>
<text text-anchor="middle" x="3274.24" y="-348.73" font-family="Times,serif" font-size="14.00">4</text>
</g>
<!-- lib.EntityMagicTome -->
<g id="node16" class="node">
<title>lib.EntityMagicTome</title>
<g id="a_node16"><a xlink:href="lib.EntityMagicTome.svg" xlink:title="lib.EntityMagicTome">
<ellipse fill="green" stroke="black" cx="3526.24" cy="-378" rx="107.48" ry="18"/>
<text text-anchor="middle" x="3526.24" y="-374.3" font-family="Times,serif" font-size="14.00">lib.EntityMagicTome</text>
</a>
</g>
</g>
<!-- lib.EntityMagicTome&#45;&gt;lib.AllocEntity -->
<g id="edge15" class="edge">
<title>lib.EntityMagicTome&#45;&gt;lib.AllocEntity</title>
<path fill="none" stroke="black" d="M3503,-360.25C3458.27,-328.02 3360.21,-257.35 3310.08,-221.22"/>
<polygon fill="black" stroke="black" points="3312.04,-218.32 3301.88,-215.31 3307.94,-224 3312.04,-218.32"/>
<text text-anchor="middle" x="3498" y="-349.05" font-family="Times,serif" font-size="14.00">2</text>
</g>
<!-- lib.EntityMistDoor -->
<g id="node17" class="node">
<title>lib.EntityMistDoor</title>
<g id="a_node17"><a xlink:href="lib.EntityMistDoor.svg" xlink:title="lib.EntityMistDoor">
<ellipse fill="green" stroke="black" cx="3749.24" cy="-378" rx="97.48" ry="18"/>
<text text-anchor="middle" x="3749.24" y="-374.3" font-family="Times,serif" font-size="14.00">lib.EntityMistDoor</text>
</a>
</g>
</g>
<!-- lib.EntityMistDoor&#45;&gt;lib.AllocEntity -->
<g id="edge16" class="edge">
<title>lib.EntityMistDoor&#45;&gt;lib.AllocEntity</title>
<path fill="none" stroke="black" d="M3708.35,-361.52C3621.64,-328.68 3419.68,-252.19 3327.12,-217.13"/>
<polygon fill="black" stroke="black" points="3328.31,-213.84 3317.72,-213.57 3325.83,-220.39 3328.31,-213.84"/>
<text text-anchor="middle" x="3703.35" y="-350.32" font-family="Times,serif" font-size="14.00">1</text>
</g>
<!-- lib.EntityMudman -->
<g id="node18" class="node">
<title>lib.EntityMudman</title>
<g id="a_node18"><a xlink:href="lib.EntityMudman.svg" xlink:title="lib.EntityMudman">
<ellipse fill="green" stroke="black" cx="3959.24" cy="-378" rx="94.78" ry="18"/>
<text text-anchor="middle" x="3959.24" y="-374.3" font-family="Times,serif" font-size="14.00">lib.EntityMudman</text>
</a>
</g>
</g>
<!-- lib.EntityMudman&#45;&gt;lib.AllocEntity -->
<g id="edge17" class="edge">
<title>lib.EntityMudman&#45;&gt;lib.AllocEntity</title>
<path fill="none" stroke="black" d="M3905.88,-363.03C3780.77,-330.28 3469.26,-248.74 3338.5,-214.51"/>
<polygon fill="black" stroke="black" points="3339.22,-211.08 3328.66,-211.94 3337.44,-217.85 3339.22,-211.08"/>
<text text-anchor="middle" x="3900.88" y="-351.83" font-family="Times,serif" font-size="14.00">3</text>
</g>
<!-- lib.EntitySkeleton -->
<g id="node19" class="node">
<title>lib.EntitySkeleton</title>
<g id="a_node19"><a xlink:href="lib.EntitySkeleton.svg" xlink:title="lib.EntitySkeleton">
<ellipse fill="green" stroke="black" cx="4167.24" cy="-378" rx="94.78" ry="18"/>
<text text-anchor="middle" x="4167.24" y="-374.3" font-family="Times,serif" font-size="14.00">lib.EntitySkeleton</text>
</a>
</g>
</g>
<!-- lib.EntitySkeleton&#45;&gt;lib.AllocEntity -->
<g id="edge18" class="edge">
<title>lib.EntitySkeleton&#45;&gt;lib.AllocEntity</title>
<path fill="none" stroke="black" d="M4104.44,-364.41C3942.41,-331.93 3511.36,-245.53 3345.53,-212.29"/>
<polygon fill="black" stroke="black" points="3345.96,-208.81 3335.47,-210.27 3344.59,-215.67 3345.96,-208.81"/>
<text text-anchor="middle" x="4099.44" y="-353.21" font-family="Times,serif" font-size="14.00">2</text>
</g>
<!-- lib.EntitySpellbook -->
<g id="node20" class="node">
<title>lib.EntitySpellbook</title>
<g id="a_node20"><a xlink:href="lib.EntitySpellbook.svg" xlink:title="lib.EntitySpellbook">
<ellipse fill="green" stroke="black" cx="4379.24" cy="-378" rx="99.38" ry="18"/>
<text text-anchor="middle" x="4379.24" y="-374.3" font-family="Times,serif" font-size="14.00">lib.EntitySpellbook</text>
</a>
</g>
</g>
<!-- lib.EntitySpellbook&#45;&gt;lib.AllocEntity -->
<g id="edge19" class="edge">
<title>lib.EntitySpellbook&#45;&gt;lib.AllocEntity</title>
<path fill="none" stroke="black" d="M4307.49,-365.39C4108.22,-333.14 3549.63,-242.75 3350.7,-210.56"/>
<polygon fill="black" stroke="black" points="3351.09,-207.08 3340.66,-208.94 3349.97,-213.99 3351.09,-207.08"/>
<text text-anchor="middle" x="4302.49" y="-354.19" font-family="Times,serif" font-size="14.00">3</text>
</g>
<!-- lib.EntityThornweed -->
<g id="node21" class="node">
<title>lib.EntityThornweed</title>
<g id="a_node21"><a xlink:href="lib.EntityThornweed.svg" xlink:title="lib.EntityThornweed">
<ellipse fill="green" stroke="black" cx="4602.24" cy="-378" rx="105.88" ry="18"/>
<text text-anchor="middle" x="4602.24" y="-374.3" font-family="Times,serif" font-size="14.00">lib.EntityThornweed</text>
</a>
</g>
</g>
<!-- lib.EntityThornweed&#45;&gt;lib.AllocEntity -->
<g id="edge20" class="edge">
<title>lib.EntityThornweed&#45;&gt;lib.AllocEntity</title>
<path fill="none" stroke="black" d="M4525.56,-365.51C4512.77,-363.64 4499.63,-361.74 4487.24,-360 4059.32,-299.86 3545.29,-233.2 3354.93,-208.71"/>
<polygon fill="black" stroke="black" points="3355.12,-205.2 3344.76,-207.4 3354.23,-212.15 3355.12,-205.2"/>
<text text-anchor="middle" x="4520.56" y="-354.31" font-family="Times,serif" font-size="14.00">2</text>
</g>
<!-- lib.EntityUnkId13 -->
<g id="node22" class="node">
<title>lib.EntityUnkId13</title>
<g id="a_node22"><a xlink:href="lib.EntityUnkId13.svg" xlink:title="lib.EntityUnkId13">
<ellipse fill="green" stroke="black" cx="4820.24" cy="-378" rx="94.48" ry="18"/>
<text text-anchor="middle" x="4820.24" y="-374.3" font-family="Times,serif" font-size="14.00">lib.EntityUnkId13</text>
</a>
</g>
</g>
<!-- lib.EntityUnkId13&#45;&gt;lib.AllocEntity -->
<g id="edge21" class="edge">
<title>lib.EntityUnkId13&#45;&gt;lib.AllocEntity</title>
<path fill="none" stroke="black" d="M4753,-365.38C4741.1,-363.48 4728.82,-361.6 4717.24,-360 4201,-288.55 3577.11,-227.17 3359.06,-206.46"/>
<polygon fill="black" stroke="black" points="3359.27,-202.97 3348.99,-205.51 3358.61,-209.94 3359.27,-202.97"/>
<text text-anchor="middle" x="4748" y="-354.18" font-family="Times,serif" font-size="14.00">1</text>
</g>
<!-- lib.HitDetection -->
<g id="node23" class="node">
<title>lib.HitDetection</title>
<g id="a_node23"><a xlink:href="lib.HitDetection.svg" xlink:title="lib.HitDetection">
<ellipse fill="green" stroke="black" cx="5017.24" cy="-378" rx="85.29" ry="18"/>
<text text-anchor="middle" x="5017.24" y="-374.3" font-family="Times,serif" font-size="14.00">lib.HitDetection</text>
</a>
</g>
</g>
<!-- lib.HitDetection&#45;&gt;lib.AllocEntity -->
<g id="edge22" class="edge">
<title>lib.HitDetection&#45;&gt;lib.AllocEntity</title>
<path fill="none" stroke="black" d="M4956.68,-365.3C4945.58,-363.37 4934.08,-361.51 4923.24,-360 4326.79,-277 3602.72,-221.84 3361.68,-204.69"/>
<polygon fill="black" stroke="black" points="3361.82,-201.19 3351.6,-203.98 3361.32,-208.17 3361.82,-201.19"/>
<text text-anchor="middle" x="4951.68" y="-354.1" font-family="Times,serif" font-size="14.00">4</text>
</g>
<!-- lib.MakeExplosions -->
<g id="node24" class="node">
<title>lib.MakeExplosions</title>
<g id="a_node24"><a xlink:href="lib.MakeExplosions.svg" xlink:title="lib.MakeExplosions">
<ellipse fill="green" stroke="black" cx="5221.24" cy="-378" rx="100.98" ry="18"/>
<text text-anchor="middle" x="5221.24" y="-374.3" font-family="Times,serif" font-size="14.00">lib.MakeExplosions</text>
</a>
</g>
</g>
<!-- lib.MakeExplosions&#45;&gt;lib.AllocEntity -->
<g id="edge23" class="edge">
<title>lib.MakeExplosions&#45;&gt;lib.AllocEntity</title>
<path fill="none" stroke="black" d="M5149.74,-365.25C5136.94,-363.35 5123.71,-361.51 5111.24,-360 4438.35,-278.53 3621.66,-221.46 3362.38,-204.35"/>
<polygon fill="black" stroke="black" points="3362.5,-200.85 3352.29,-203.69 3362.04,-207.84 3362.5,-200.85"/>
<text text-anchor="middle" x="5144.74" y="-354.05" font-family="Times,serif" font-size="14.00">1</text>
</g>
<!-- lib.func_us_801BB200 -->
<g id="node25" class="node">
<title>lib.func_us_801BB200</title>
<g id="a_node25"><a xlink:href="lib.func_us_801BB200.svg" xlink:title="lib.func_us_801BB200">
<ellipse fill="green" stroke="black" cx="5453.24" cy="-378" rx="113.98" ry="18"/>
<text text-anchor="middle" x="5453.24" y="-374.3" font-family="Times,serif" font-size="14.00">lib.func_us_801BB200</text>
</a>
</g>
</g>
<!-- lib.func_us_801BB200&#45;&gt;lib.AllocEntity -->
<g id="edge24" class="edge">
<title>lib.func_us_801BB200&#45;&gt;lib.AllocEntity</title>
<path fill="none" stroke="black" d="M5373.26,-365.15C5359.27,-363.28 5344.85,-361.48 5331.24,-360 4568.88,-277.05 3642.71,-220.04 3363.07,-203.76"/>
<polygon fill="black" stroke="black" points="3363.19,-200.26 3353,-203.18 3362.78,-207.25 3363.19,-200.26"/>
<text text-anchor="middle" x="5368.26" y="-353.95" font-family="Times,serif" font-size="14.00">1</text>
</g>
<!-- lib.func_us_801BB53C -->
<g id="node26" class="node">
<title>lib.func_us_801BB53C</title>
<g id="a_node26"><a xlink:href="lib.func_us_801BB53C.svg" xlink:title="lib.func_us_801BB53C">
<ellipse fill="green" stroke="black" cx="5699.24" cy="-378" rx="114.28" ry="18"/>
<text text-anchor="middle" x="5699.24" y="-374.3" font-family="Times,serif" font-size="14.00">lib.func_us_801BB53C</text>
</a>
</g>
</g>
<!-- lib.func_us_801BB53C&#45;&gt;lib.AllocEntity -->
<g id="edge25" class="edge">
<title>lib.func_us_801BB53C&#45;&gt;lib.AllocEntity</title>
<path fill="none" stroke="black" d="M5618.95,-365.11C5604.74,-363.23 5590.07,-361.44 5576.24,-360 4714.68,-270.37 3665.99,-217.13 3364.18,-202.88"/>
<polygon fill="black" stroke="black" points="3363.91,-199.37 3353.76,-202.39 3363.59,-206.36 3363.91,-199.37"/>
<text text-anchor="middle" x="5613.95" y="-353.91" font-family="Times,serif" font-size="14.00">1</text>
</g>
<!-- lib.func_us_801BD268 -->
<g id="node27" class="node">
<title>lib.func_us_801BD268</title>
<g id="a_node27"><a xlink:href="lib.func_us_801BD268.svg" xlink:title="lib.func_us_801BD268">
<ellipse fill="green" stroke="black" cx="5946.24" cy="-378" rx="114.28" ry="18"/>
<text text-anchor="middle" x="5946.24" y="-374.3" font-family="Times,serif" font-size="14.00">lib.func_us_801BD268</text>
</a>
</g>
</g>
<!-- lib.func_us_801BD268&#45;&gt;lib.AllocEntity -->
<g id="edge26" class="edge">
<title>lib.func_us_801BD268&#45;&gt;lib.AllocEntity</title>
<path fill="none" stroke="black" d="M5865.96,-365.12C5851.43,-363.22 5836.4,-361.42 5822.24,-360 4859.89,-263.7 3686.57,-214.46 3364.48,-202.13"/>
<polygon fill="black" stroke="black" points="3364.42,-198.63 3354.29,-201.75 3364.15,-205.63 3364.42,-198.63"/>
<text text-anchor="middle" x="5860.96" y="-353.92" font-family="Times,serif" font-size="14.00">1</text>
</g>
</g>
</svg>
