<?xml version="1.0" encoding="UTF-8" standalone="no"?>
<!DOCTYPE svg PUBLIC "-//W3C//DTD SVG 1.1//EN"
 "http://www.w3.org/Graphics/SVG/1.1/DTD/svg11.dtd">
<!-- Generated by graphviz version 2.43.0 (0)
 -->
<!-- Title: lib.FallEntity Pages: 1 -->
<svg width="1442pt" height="224pt"
 viewBox="0.00 0.00 1442.18 224.00" xmlns="http://www.w3.org/2000/svg" xmlns:xlink="http://www.w3.org/1999/xlink">
<g id="graph0" class="graph" transform="scale(1 1) rotate(0) translate(4 220)">
<title>lib.FallEntity</title>
<polygon fill="white" stroke="transparent" points="-4,4 -4,-220 1438.18,-220 1438.18,4 -4,4"/>
<!-- lib.FallEntity -->
<g id="node1" class="node">
<title>lib.FallEntity</title>
<ellipse fill="green" stroke="black" cx="732.09" cy="-18" rx="71.49" ry="18"/>
<text text-anchor="middle" x="732.09" y="-14.3" font-family="Times,serif" font-size="14.00">lib.FallEntity</text>
</g>
<!-- lib.EntityEquipItemDrop -->
<g id="node2" class="node">
<title>lib.EntityEquipItemDrop</title>
<g id="a_node2"><a xlink:href="lib.EntityEquipItemDrop.svg" xlink:title="lib.EntityEquipItemDrop">
<ellipse fill="green" stroke="black" cx="126.09" cy="-198" rx="126.18" ry="18"/>
<text text-anchor="middle" x="126.09" y="-194.3" font-family="Times,serif" font-size="14.00">lib.EntityEquipItemDrop</text>
</a>
</g>
</g>
<!-- lib.EntityEquipItemDrop&#45;&gt;lib.FallEntity -->
<g id="edge1" class="edge">
<title>lib.EntityEquipItemDrop&#45;&gt;lib.FallEntity</title>
<path fill="none" stroke="black" d="M178.54,-181.59C292.53,-148.11 561.88,-69 677.65,-34.99"/>
<polygon fill="black" stroke="black" points="678.76,-38.31 687.37,-32.14 676.79,-31.6 678.76,-38.31"/>
<text text-anchor="middle" x="173.54" y="-170.39" font-family="Times,serif" font-size="14.00">1</text>
</g>
<!-- lib.EntityPrizeDrop -->
<g id="node3" class="node">
<title>lib.EntityPrizeDrop</title>
<g id="a_node3"><a xlink:href="lib.EntityPrizeDrop.svg" xlink:title="lib.EntityPrizeDrop">
<ellipse fill="green" stroke="black" cx="371.09" cy="-198" rx="100.98" ry="18"/>
<text text-anchor="middle" x="371.09" y="-194.3" font-family="Times,serif" font-size="14.00">lib.EntityPrizeDrop</text>
</a>
</g>
</g>
<!-- lib.EntityPrizeDrop&#45;&gt;lib.FallEntity -->
<g id="edge2" class="edge">
<title>lib.EntityPrizeDrop&#45;&gt;lib.FallEntity</title>
<path fill="none" stroke="black" d="M403.76,-180.89C469.95,-148.25 619.71,-74.41 691.81,-38.86"/>
<polygon fill="black" stroke="black" points="693.61,-41.87 701.04,-34.31 690.52,-35.6 693.61,-41.87"/>
<text text-anchor="middle" x="398.76" y="-169.69" font-family="Times,serif" font-size="14.00">2</text>
</g>
<!-- lib.EntitySkeletonPieces -->
<g id="node4" class="node">
<title>lib.EntitySkeletonPieces</title>
<g id="a_node4"><a xlink:href="lib.EntitySkeletonPieces.svg" xlink:title="lib.EntitySkeletonPieces">
<ellipse fill="green" stroke="black" cx="614.09" cy="-198" rx="124.28" ry="18"/>
<text text-anchor="middle" x="614.09" y="-194.3" font-family="Times,serif" font-size="14.00">lib.EntitySkeletonPieces</text>
</a>
</g>
</g>
<!-- lib.EntitySkeletonPieces&#45;&gt;lib.FallEntity -->
<g id="edge3" class="edge">
<title>lib.EntitySkeletonPieces&#45;&gt;lib.FallEntity</title>
<path fill="none" stroke="black" d="M625.4,-179.93C646.2,-148.57 690.59,-81.6 715.05,-44.71"/>
<polygon fill="black" stroke="black" points="718.2,-46.28 720.81,-36.02 712.37,-42.42 718.2,-46.28"/>
<text text-anchor="middle" x="620.4" y="-168.73" font-family="Times,serif" font-size="14.00">1</text>
</g>
<!-- lib.PrizeDropFall2 -->
<g id="node5" class="node">
<title>lib.PrizeDropFall2</title>
<g id="a_node5"><a xlink:href="lib.PrizeDropFall2.svg" xlink:title="lib.PrizeDropFall2">
<ellipse fill="green" stroke="black" cx="851.09" cy="-198" rx="94.78" ry="18"/>
<text text-anchor="middle" x="851.09" y="-194.3" font-family="Times,serif" font-size="14.00">lib.PrizeDropFall2</text>
</a>
</g>
</g>
<!-- lib.PrizeDropFall2&#45;&gt;lib.FallEntity -->
<g id="edge4" class="edge">
<title>lib.PrizeDropFall2&#45;&gt;lib.FallEntity</title>
<path fill="none" stroke="black" d="M839.68,-179.93C818.71,-148.57 773.94,-81.6 749.28,-44.71"/>
<polygon fill="black" stroke="black" points="751.93,-42.38 743.46,-36.02 746.11,-46.27 751.93,-42.38"/>
<text text-anchor="middle" x="834.68" y="-168.73" font-family="Times,serif" font-size="14.00">1</text>
</g>
<!-- lib.UnkCollisionFunc3 -->
<g id="node6" class="node">
<title>lib.UnkCollisionFunc3</title>
<g id="a_node6"><a xlink:href="lib.UnkCollisionFunc3.svg" xlink:title="lib.UnkCollisionFunc3">
<ellipse fill="green" stroke="black" cx="1077.09" cy="-198" rx="113.18" ry="18"/>
<text text-anchor="middle" x="1077.09" y="-194.3" font-family="Times,serif" font-size="14.00">lib.UnkCollisionFunc3</text>
</a>
</g>
</g>
<!-- lib.UnkCollisionFunc3&#45;&gt;lib.FallEntity -->
<g id="edge5" class="edge">
<title>lib.UnkCollisionFunc3&#45;&gt;lib.FallEntity</title>
<path fill="none" stroke="black" d="M1045.25,-180.57C981.84,-147.86 839.97,-74.66 771.1,-39.13"/>
<polygon fill="black" stroke="black" points="772.37,-35.84 761.88,-34.37 769.16,-42.06 772.37,-35.84"/>
<text text-anchor="middle" x="1040.25" y="-169.37" font-family="Times,serif" font-size="14.00">1</text>
</g>
<!-- lib.UnkCollisionFunc5 -->
<g id="node7" class="node">
<title>lib.UnkCollisionFunc5</title>
<g id="a_node7"><a xlink:href="lib.UnkCollisionFunc5.svg" xlink:title="lib.UnkCollisionFunc5">
<ellipse fill="green" stroke="black" cx="1321.09" cy="-198" rx="113.18" ry="18"/>
<text text-anchor="middle" x="1321.09" y="-194.3" font-family="Times,serif" font-size="14.00">lib.UnkCollisionFunc5</text>
</a>
</g>
</g>
<!-- lib.UnkCollisionFunc5&#45;&gt;lib.FallEntity -->
<g id="edge6" class="edge">
<title>lib.UnkCollisionFunc5&#45;&gt;lib.FallEntity</title>
<path fill="none" stroke="black" d="M1270.87,-181.82C1160.83,-148.57 899.23,-69.51 785.94,-35.27"/>
<polygon fill="black" stroke="black" points="786.68,-31.84 776.09,-32.3 784.65,-38.54 786.68,-31.84"/>
<text text-anchor="middle" x="1265.87" y="-170.62" font-family="Times,serif" font-size="14.00">1</text>
</g>
</g>
</svg>
