<?xml version="1.0" encoding="UTF-8" standalone="no"?>
<!DOCTYPE svg PUBLIC "-//W3C//DTD SVG 1.1//EN"
 "http://www.w3.org/Graphics/SVG/1.1/DTD/svg11.dtd">
<!-- Generated by graphviz version 2.43.0 (0)
 -->
<!-- Title: lib.func_us_801B3EC8 Pages: 1 -->
<svg width="970pt" height="224pt"
 viewBox="0.00 0.00 970.13 224.00" xmlns="http://www.w3.org/2000/svg" xmlns:xlink="http://www.w3.org/1999/xlink">
<g id="graph0" class="graph" transform="scale(1 1) rotate(0) translate(4 220)">
<title>lib.func_us_801B3EC8</title>
<polygon fill="white" stroke="transparent" points="-4,4 -4,-220 966.13,-220 966.13,4 -4,4"/>
<!-- lib.func_us_801B3EC8 -->
<g id="node1" class="node">
<title>lib.func_us_801B3EC8</title>
<ellipse fill="green" stroke="black" cx="480.74" cy="-18" rx="114.28" ry="18"/>
<text text-anchor="middle" x="480.74" y="-14.3" font-family="Times,serif" font-size="14.00">lib.func_us_801B3EC8</text>
</g>
<!-- lib.func_us_801B420C -->
<g id="node2" class="node">
<title>lib.func_us_801B420C</title>
<g id="a_node2"><a xlink:href="lib.func_us_801B420C.svg" xlink:title="lib.func_us_801B420C">
<ellipse fill="green" stroke="black" cx="113.74" cy="-198" rx="113.98" ry="18"/>
<text text-anchor="middle" x="113.74" y="-194.3" font-family="Times,serif" font-size="14.00">lib.func_us_801B420C</text>
</a>
</g>
</g>
<!-- lib.func_us_801B420C&#45;&gt;lib.func_us_801B3EC8 -->
<g id="edge1" class="edge">
<title>lib.func_us_801B420C&#45;&gt;lib.func_us_801B3EC8</title>
<path fill="none" stroke="black" d="M147.28,-180.73C214.23,-148.26 364.3,-75.47 438.1,-39.68"/>
<polygon fill="black" stroke="black" points="439.67,-42.81 447.14,-35.29 436.62,-36.51 439.67,-42.81"/>
<text text-anchor="middle" x="142.28" y="-169.53" font-family="Times,serif" font-size="14.00">6</text>
</g>
<!-- lib.func_us_801B56E4 -->
<g id="node3" class="node">
<title>lib.func_us_801B56E4</title>
<g id="a_node3"><a xlink:href="lib.func_us_801B56E4.svg" xlink:title="lib.func_us_801B56E4">
<ellipse fill="green" stroke="black" cx="358.74" cy="-198" rx="113.98" ry="18"/>
<text text-anchor="middle" x="358.74" y="-194.3" font-family="Times,serif" font-size="14.00">lib.func_us_801B56E4</text>
</a>
</g>
</g>
<!-- lib.func_us_801B56E4&#45;&gt;lib.func_us_801B3EC8 -->
<g id="edge2" class="edge">
<title>lib.func_us_801B56E4&#45;&gt;lib.func_us_801B3EC8</title>
<path fill="none" stroke="black" d="M370.44,-179.93C391.94,-148.57 437.83,-81.6 463.12,-44.71"/>
<polygon fill="black" stroke="black" points="466.31,-46.24 469.08,-36.02 460.54,-42.29 466.31,-46.24"/>
<text text-anchor="middle" x="365.44" y="-168.73" font-family="Times,serif" font-size="14.00">4</text>
</g>
<!-- lib.func_us_801B6124 -->
<g id="node4" class="node">
<title>lib.func_us_801B6124</title>
<g id="a_node4"><a xlink:href="lib.func_us_801B6124.svg" xlink:title="lib.func_us_801B6124">
<ellipse fill="green" stroke="black" cx="602.74" cy="-198" rx="112.38" ry="18"/>
<text text-anchor="middle" x="602.74" y="-194.3" font-family="Times,serif" font-size="14.00">lib.func_us_801B6124</text>
</a>
</g>
</g>
<!-- lib.func_us_801B6124&#45;&gt;lib.func_us_801B3EC8 -->
<g id="edge3" class="edge">
<title>lib.func_us_801B6124&#45;&gt;lib.func_us_801B3EC8</title>
<path fill="none" stroke="black" d="M591.04,-179.93C569.54,-148.57 523.65,-81.6 498.36,-44.71"/>
<polygon fill="black" stroke="black" points="500.94,-42.29 492.4,-36.02 495.17,-46.24 500.94,-42.29"/>
<text text-anchor="middle" x="586.04" y="-168.73" font-family="Times,serif" font-size="14.00">1</text>
</g>
<!-- lib.func_us_801B7DF8 -->
<g id="node5" class="node">
<title>lib.func_us_801B7DF8</title>
<g id="a_node5"><a xlink:href="lib.func_us_801B7DF8.svg" xlink:title="lib.func_us_801B7DF8">
<ellipse fill="green" stroke="black" cx="847.74" cy="-198" rx="114.28" ry="18"/>
<text text-anchor="middle" x="847.74" y="-194.3" font-family="Times,serif" font-size="14.00">lib.func_us_801B7DF8</text>
</a>
</g>
</g>
<!-- lib.func_us_801B7DF8&#45;&gt;lib.func_us_801B3EC8 -->
<g id="edge4" class="edge">
<title>lib.func_us_801B7DF8&#45;&gt;lib.func_us_801B3EC8</title>
<path fill="none" stroke="black" d="M814.2,-180.73C747.25,-148.26 597.18,-75.47 523.37,-39.68"/>
<polygon fill="black" stroke="black" points="524.86,-36.51 514.34,-35.29 521.81,-42.81 524.86,-36.51"/>
<text text-anchor="middle" x="809.2" y="-169.53" font-family="Times,serif" font-size="14.00">4</text>
</g>
</g>
</svg>
