<?xml version="1.0" encoding="UTF-8" standalone="no"?>
<!DOCTYPE svg PUBLIC "-//W3C//DTD SVG 1.1//EN"
 "http://www.w3.org/Graphics/SVG/1.1/DTD/svg11.dtd">
<!-- Generated by graphviz version 2.43.0 (0)
 -->
<!-- Title: main.SetGeomOffset Pages: 1 -->
<svg width="9709pt" height="224pt"
 viewBox="0.00 0.00 9708.93 224.00" xmlns="http://www.w3.org/2000/svg" xmlns:xlink="http://www.w3.org/1999/xlink">
<g id="graph0" class="graph" transform="scale(1 1) rotate(0) translate(4 220)">
<title>main.SetGeomOffset</title>
<polygon fill="white" stroke="transparent" points="-4,4 -4,-220 9704.93,-220 9704.93,4 -4,4"/>
<!-- main.SetGeomOffset -->
<g id="node1" class="node">
<title>main.SetGeomOffset</title>
<ellipse fill="red" stroke="black" cx="4942.69" cy="-18" rx="106.68" ry="18"/>
<text text-anchor="middle" x="4942.69" y="-14.3" font-family="Times,serif" font-size="14.00">main.SetGeomOffset</text>
</g>
<!-- cen.UnkPrimHelper -->
<g id="node2" class="node">
<title>cen.UnkPrimHelper</title>
<g id="a_node2"><a xlink:href="cen.UnkPrimHelper.svg" xlink:title="cen.UnkPrimHelper">
<ellipse fill="green" stroke="black" cx="102.69" cy="-198" rx="102.88" ry="18"/>
<text text-anchor="middle" x="102.69" y="-194.3" font-family="Times,serif" font-size="14.00">cen.UnkPrimHelper</text>
</a>
</g>
</g>
<!-- cen.UnkPrimHelper&#45;&gt;main.SetGeomOffset -->
<g id="edge1" class="edge">
<title>cen.UnkPrimHelper&#45;&gt;main.SetGeomOffset</title>
<path fill="none" stroke="black" d="M173.64,-184.96C187.23,-183.01 201.37,-181.23 214.69,-180 1151.14,-93.28 4195.85,-32.87 4827.37,-21.1"/>
<polygon fill="black" stroke="black" points="4827.45,-24.6 4837.38,-20.91 4827.32,-17.6 4827.45,-24.6"/>
<text text-anchor="middle" x="168.64" y="-173.76" font-family="Times,serif" font-size="14.00">1</text>
</g>
<!-- dra.EntityGiantSpinningCross -->
<g id="node3" class="node">
<title>dra.EntityGiantSpinningCross</title>
<g id="a_node3"><a xlink:href="dra.EntityGiantSpinningCross.svg" xlink:title="dra.EntityGiantSpinningCross">
<ellipse fill="green" stroke="black" cx="374.69" cy="-198" rx="151.37" ry="18"/>
<text text-anchor="middle" x="374.69" y="-194.3" font-family="Times,serif" font-size="14.00">dra.EntityGiantSpinningCross</text>
</a>
</g>
</g>
<!-- dra.EntityGiantSpinningCross&#45;&gt;main.SetGeomOffset -->
<g id="edge2" class="edge">
<title>dra.EntityGiantSpinningCross&#45;&gt;main.SetGeomOffset</title>
<path fill="none" stroke="black" d="M478.74,-184.89C497.35,-183.02 516.58,-181.29 534.69,-180 2237.81,-58.57 4318.01,-26.53 4826.51,-20.28"/>
<polygon fill="black" stroke="black" points="4826.83,-23.78 4836.79,-20.16 4826.75,-16.78 4826.83,-23.78"/>
<text text-anchor="middle" x="473.74" y="-173.69" font-family="Times,serif" font-size="14.00">1</text>
</g>
<!-- dra.func_80105428 -->
<g id="node4" class="node">
<title>dra.func_80105428</title>
<g id="a_node4"><a xlink:href="dra.func_80105428.svg" xlink:title="dra.func_80105428">
<ellipse fill="green" stroke="black" cx="644.69" cy="-198" rx="100.98" ry="18"/>
<text text-anchor="middle" x="644.69" y="-194.3" font-family="Times,serif" font-size="14.00">dra.func_80105428</text>
</a>
</g>
</g>
<!-- dra.func_80105428&#45;&gt;main.SetGeomOffset -->
<g id="edge3" class="edge">
<title>dra.func_80105428&#45;&gt;main.SetGeomOffset</title>
<path fill="none" stroke="black" d="M714.37,-185C727.72,-183.05 741.61,-181.26 754.69,-180 2362.44,-25.38 4330.86,-17.85 4825.64,-18.58"/>
<polygon fill="black" stroke="black" points="4826,-22.08 4836,-18.6 4826.01,-15.08 4826,-22.08"/>
<text text-anchor="middle" x="709.37" y="-173.8" font-family="Times,serif" font-size="14.00">1</text>
</g>
<!-- dre.Entity3DBackgroundHouse -->
<g id="node5" class="node">
<title>dre.Entity3DBackgroundHouse</title>
<g id="a_node5"><a xlink:href="dre.Entity3DBackgroundHouse.svg" xlink:title="dre.Entity3DBackgroundHouse">
<ellipse fill="green" stroke="black" cx="919.69" cy="-198" rx="155.97" ry="18"/>
<text text-anchor="middle" x="919.69" y="-194.3" font-family="Times,serif" font-size="14.00">dre.Entity3DBackgroundHouse</text>
</a>
</g>
</g>
<!-- dre.Entity3DBackgroundHouse&#45;&gt;main.SetGeomOffset -->
<g id="edge4" class="edge">
<title>dre.Entity3DBackgroundHouse&#45;&gt;main.SetGeomOffset</title>
<path fill="none" stroke="black" d="M1027.45,-184.94C1046.5,-183.08 1066.16,-181.34 1084.69,-180 2560.66,-73.27 4359.8,-30.89 4827.32,-21.25"/>
<polygon fill="black" stroke="black" points="4827.53,-24.74 4837.45,-21.04 4827.38,-17.74 4827.53,-24.74"/>
<text text-anchor="middle" x="1022.45" y="-173.74" font-family="Times,serif" font-size="14.00">1</text>
</g>
<!-- dre.UnkPrimHelper -->
<g id="node6" class="node">
<title>dre.UnkPrimHelper</title>
<g id="a_node6"><a xlink:href="dre.UnkPrimHelper.svg" xlink:title="dre.UnkPrimHelper">
<ellipse fill="green" stroke="black" cx="1196.69" cy="-198" rx="102.88" ry="18"/>
<text text-anchor="middle" x="1196.69" y="-194.3" font-family="Times,serif" font-size="14.00">dre.UnkPrimHelper</text>
</a>
</g>
</g>
<!-- dre.UnkPrimHelper&#45;&gt;main.SetGeomOffset -->
<g id="edge5" class="edge">
<title>dre.UnkPrimHelper&#45;&gt;main.SetGeomOffset</title>
<path fill="none" stroke="black" d="M1267.95,-185.02C1281.45,-183.08 1295.48,-181.29 1308.69,-180 2688.39,-45.11 4373.92,-23.17 4826.35,-19.66"/>
<polygon fill="black" stroke="black" points="4826.52,-23.16 4836.49,-19.58 4826.46,-16.16 4826.52,-23.16"/>
<text text-anchor="middle" x="1262.95" y="-173.82" font-family="Times,serif" font-size="14.00">1</text>
</g>
<!-- mar.EntityLifeUpSpawn -->
<g id="node7" class="node">
<title>mar.EntityLifeUpSpawn</title>
<g id="a_node7"><a xlink:href="mar.EntityLifeUpSpawn.svg" xlink:title="mar.EntityLifeUpSpawn">
<ellipse fill="green" stroke="black" cx="1439.69" cy="-198" rx="122.38" ry="18"/>
<text text-anchor="middle" x="1439.69" y="-194.3" font-family="Times,serif" font-size="14.00">mar.EntityLifeUpSpawn</text>
</a>
</g>
</g>
<!-- mar.EntityLifeUpSpawn&#45;&gt;main.SetGeomOffset -->
<g id="edge6" class="edge">
<title>mar.EntityLifeUpSpawn&#45;&gt;main.SetGeomOffset</title>
<path fill="none" stroke="black" d="M1524.49,-184.97C1539.85,-183.09 1555.73,-181.33 1570.69,-180 2844.33,-67.14 4396.11,-29.71 4826.96,-21.12"/>
<polygon fill="black" stroke="black" points="4827.31,-24.61 4837.24,-20.91 4827.17,-17.61 4827.31,-24.61"/>
<text text-anchor="middle" x="1519.49" y="-173.77" font-family="Times,serif" font-size="14.00">1</text>
</g>
<!-- mar.UnkPrimHelper -->
<g id="node8" class="node">
<title>mar.UnkPrimHelper</title>
<g id="a_node8"><a xlink:href="mar.UnkPrimHelper.svg" xlink:title="mar.UnkPrimHelper">
<ellipse fill="green" stroke="black" cx="1684.69" cy="-198" rx="104.78" ry="18"/>
<text text-anchor="middle" x="1684.69" y="-194.3" font-family="Times,serif" font-size="14.00">mar.UnkPrimHelper</text>
</a>
</g>
</g>
<!-- mar.UnkPrimHelper&#45;&gt;main.SetGeomOffset -->
<g id="edge7" class="edge">
<title>mar.UnkPrimHelper&#45;&gt;main.SetGeomOffset</title>
<path fill="none" stroke="black" d="M1757.54,-185.06C1771.18,-183.13 1785.35,-181.33 1798.69,-180 2977.79,-62.17 4414.78,-28.45 4827.11,-20.88"/>
<polygon fill="black" stroke="black" points="4827.31,-24.38 4837.24,-20.7 4827.18,-17.38 4827.31,-24.38"/>
<text text-anchor="middle" x="1752.54" y="-173.86" font-family="Times,serif" font-size="14.00">1</text>
</g>
<!-- no0.UnkPrimHelper -->
<g id="node9" class="node">
<title>no0.UnkPrimHelper</title>
<g id="a_node9"><a xlink:href="no0.UnkPrimHelper.svg" xlink:title="no0.UnkPrimHelper">
<ellipse fill="green" stroke="black" cx="1911.69" cy="-198" rx="103.98" ry="18"/>
<text text-anchor="middle" x="1911.69" y="-194.3" font-family="Times,serif" font-size="14.00">no0.UnkPrimHelper</text>
</a>
</g>
</g>
<!-- no0.UnkPrimHelper&#45;&gt;main.SetGeomOffset -->
<g id="edge8" class="edge">
<title>no0.UnkPrimHelper&#45;&gt;main.SetGeomOffset</title>
<path fill="none" stroke="black" d="M1984.2,-185.06C1997.64,-183.14 2011.57,-181.35 2024.69,-180 3111.56,-68.51 4434.64,-30.67 4827.5,-21.46"/>
<polygon fill="black" stroke="black" points="4827.81,-24.95 4837.73,-21.22 4827.65,-17.95 4827.81,-24.95"/>
<text text-anchor="middle" x="1979.2" y="-173.86" font-family="Times,serif" font-size="14.00">1</text>
</g>
<!-- no0.func_us_801D44A0 -->
<g id="node10" class="node">
<title>no0.func_us_801D44A0</title>
<g id="a_node10"><a xlink:href="no0.func_us_801D44A0.svg" xlink:title="no0.func_us_801D44A0">
<ellipse fill="red" stroke="black" cx="2152.69" cy="-198" rx="118.88" ry="18"/>
<text text-anchor="middle" x="2152.69" y="-194.3" font-family="Times,serif" font-size="14.00">no0.func_us_801D44A0</text>
</a>
</g>
</g>
<!-- no0.func_us_801D44A0&#45;&gt;main.SetGeomOffset -->
<g id="edge9" class="edge">
<title>no0.func_us_801D44A0&#45;&gt;main.SetGeomOffset</title>
<path fill="none" stroke="black" d="M2235.9,-185.07C2250.8,-183.18 2266.19,-181.4 2280.69,-180 3265.48,-84.95 4460.97,-36.4 4829.27,-22.95"/>
<polygon fill="black" stroke="black" points="4829.53,-26.44 4839.4,-22.58 4829.28,-19.45 4829.53,-26.44"/>
<text text-anchor="middle" x="2230.9" y="-173.87" font-family="Times,serif" font-size="14.00">1</text>
</g>
<!-- no0.func_us_801D542C -->
<g id="node11" class="node">
<title>no0.func_us_801D542C</title>
<g id="a_node11"><a xlink:href="no0.func_us_801D542C.svg" xlink:title="no0.func_us_801D542C">
<ellipse fill="red" stroke="black" cx="2409.69" cy="-198" rx="119.68" ry="18"/>
<text text-anchor="middle" x="2409.69" y="-194.3" font-family="Times,serif" font-size="14.00">no0.func_us_801D542C</text>
</a>
</g>
</g>
<!-- no0.func_us_801D542C&#45;&gt;main.SetGeomOffset -->
<g id="edge10" class="edge">
<title>no0.func_us_801D542C&#45;&gt;main.SetGeomOffset</title>
<path fill="none" stroke="black" d="M2493.26,-185.1C2508.04,-183.23 2523.3,-181.44 2537.69,-180 3419.1,-92.06 4487.16,-39.47 4830.62,-23.9"/>
<polygon fill="black" stroke="black" points="4830.98,-27.39 4840.81,-23.44 4830.67,-20.39 4830.98,-27.39"/>
<text text-anchor="middle" x="2488.26" y="-173.9" font-family="Times,serif" font-size="14.00">1</text>
</g>
<!-- no3.EntityBackgroundBushes -->
<g id="node12" class="node">
<title>no3.EntityBackgroundBushes</title>
<g id="a_node12"><a xlink:href="no3.EntityBackgroundBushes.svg" xlink:title="no3.EntityBackgroundBushes">
<ellipse fill="green" stroke="black" cx="2695.69" cy="-198" rx="148.67" ry="18"/>
<text text-anchor="middle" x="2695.69" y="-194.3" font-family="Times,serif" font-size="14.00">no3.EntityBackgroundBushes</text>
</a>
</g>
</g>
<!-- no3.EntityBackgroundBushes&#45;&gt;main.SetGeomOffset -->
<g id="edge11" class="edge">
<title>no3.EntityBackgroundBushes&#45;&gt;main.SetGeomOffset</title>
<path fill="none" stroke="black" d="M2801.03,-185.22C2818.61,-183.38 2836.66,-181.57 2853.69,-180 3611.83,-110.02 4526.73,-46.84 4835.23,-26.13"/>
<polygon fill="black" stroke="black" points="4835.76,-29.6 4845.51,-25.44 4835.3,-22.62 4835.76,-29.6"/>
<text text-anchor="middle" x="2796.03" y="-174.02" font-family="Times,serif" font-size="14.00">1</text>
</g>
<!-- no3.EntityCastleDoor -->
<g id="node13" class="node">
<title>no3.EntityCastleDoor</title>
<g id="a_node13"><a xlink:href="no3.EntityCastleDoor.svg" xlink:title="no3.EntityCastleDoor">
<ellipse fill="green" stroke="black" cx="2973.69" cy="-198" rx="111.28" ry="18"/>
<text text-anchor="middle" x="2973.69" y="-194.3" font-family="Times,serif" font-size="14.00">no3.EntityCastleDoor</text>
</a>
</g>
</g>
<!-- no3.EntityCastleDoor&#45;&gt;main.SetGeomOffset -->
<g id="edge12" class="edge">
<title>no3.EntityCastleDoor&#45;&gt;main.SetGeomOffset</title>
<path fill="none" stroke="black" d="M3052.36,-185.24C3066.12,-183.36 3080.31,-181.53 3093.69,-180 3754.22,-104.51 4551.08,-46.12 4835.46,-26.31"/>
<polygon fill="black" stroke="black" points="4836.04,-29.78 4845.77,-25.59 4835.55,-22.79 4836.04,-29.78"/>
<text text-anchor="middle" x="3047.36" y="-174.04" font-family="Times,serif" font-size="14.00">1</text>
</g>
<!-- no3.EntityDeathSkySwirl -->
<g id="node14" class="node">
<title>no3.EntityDeathSkySwirl</title>
<g id="a_node14"><a xlink:href="no3.EntityDeathSkySwirl.svg" xlink:title="no3.EntityDeathSkySwirl">
<ellipse fill="green" stroke="black" cx="3231.69" cy="-198" rx="128.88" ry="18"/>
<text text-anchor="middle" x="3231.69" y="-194.3" font-family="Times,serif" font-size="14.00">no3.EntityDeathSkySwirl</text>
</a>
</g>
</g>
<!-- no3.EntityDeathSkySwirl&#45;&gt;main.SetGeomOffset -->
<g id="edge13" class="edge">
<title>no3.EntityDeathSkySwirl&#45;&gt;main.SetGeomOffset</title>
<path fill="none" stroke="black" d="M3323.71,-185.4C3339.06,-183.54 3354.82,-181.68 3369.69,-180 3925.3,-117.35 4592.52,-52.48 4842.05,-28.58"/>
<polygon fill="black" stroke="black" points="4842.56,-32.04 4852.18,-27.61 4841.9,-25.08 4842.56,-32.04"/>
<text text-anchor="middle" x="3318.71" y="-174.2" font-family="Times,serif" font-size="14.00">1</text>
</g>
<!-- no3.EntityShuttingWindow -->
<g id="node15" class="node">
<title>no3.EntityShuttingWindow</title>
<g id="a_node15"><a xlink:href="no3.EntityShuttingWindow.svg" xlink:title="no3.EntityShuttingWindow">
<ellipse fill="green" stroke="black" cx="3515.69" cy="-198" rx="137.28" ry="18"/>
<text text-anchor="middle" x="3515.69" y="-194.3" font-family="Times,serif" font-size="14.00">no3.EntityShuttingWindow</text>
</a>
</g>
</g>
<!-- no3.EntityShuttingWindow&#45;&gt;main.SetGeomOffset -->
<g id="edge14" class="edge">
<title>no3.EntityShuttingWindow&#45;&gt;main.SetGeomOffset</title>
<path fill="none" stroke="black" d="M3611.26,-185.08C3871.7,-152.59 4591.66,-62.79 4849.4,-30.64"/>
<polygon fill="black" stroke="black" points="4849.99,-34.09 4859.48,-29.38 4849.13,-27.14 4849.99,-34.09"/>
<text text-anchor="middle" x="3606.26" y="-173.88" font-family="Times,serif" font-size="14.00">1</text>
</g>
<!-- no3.EntityUnkId1C -->
<g id="node16" class="node">
<title>no3.EntityUnkId1C</title>
<g id="a_node16"><a xlink:href="no3.EntityUnkId1C.svg" xlink:title="no3.EntityUnkId1C">
<ellipse fill="green" stroke="black" cx="3771.69" cy="-198" rx="100.98" ry="18"/>
<text text-anchor="middle" x="3771.69" y="-194.3" font-family="Times,serif" font-size="14.00">no3.EntityUnkId1C</text>
</a>
</g>
</g>
<!-- no3.EntityUnkId1C&#45;&gt;main.SetGeomOffset -->
<g id="edge15" class="edge">
<title>no3.EntityUnkId1C&#45;&gt;main.SetGeomOffset</title>
<path fill="none" stroke="black" d="M3845.06,-185.63C3857.29,-183.75 3869.85,-181.81 3881.69,-180 4243.63,-124.57 4675.18,-59.36 4856.13,-32.05"/>
<polygon fill="black" stroke="black" points="4856.76,-35.5 4866.12,-30.55 4855.71,-28.58 4856.76,-35.5"/>
<text text-anchor="middle" x="3840.06" y="-174.43" font-family="Times,serif" font-size="14.00">1</text>
</g>
<!-- no3.UnkPrimHelper -->
<g id="node17" class="node">
<title>no3.UnkPrimHelper</title>
<g id="a_node17"><a xlink:href="no3.UnkPrimHelper.svg" xlink:title="no3.UnkPrimHelper">
<ellipse fill="green" stroke="black" cx="3994.69" cy="-198" rx="103.98" ry="18"/>
<text text-anchor="middle" x="3994.69" y="-194.3" font-family="Times,serif" font-size="14.00">no3.UnkPrimHelper</text>
</a>
</g>
</g>
<!-- no3.UnkPrimHelper&#45;&gt;main.SetGeomOffset -->
<g id="edge16" class="edge">
<title>no3.UnkPrimHelper&#45;&gt;main.SetGeomOffset</title>
<path fill="none" stroke="black" d="M4062.49,-184.27C4233.53,-152.15 4681.9,-67.97 4864.06,-33.76"/>
<polygon fill="black" stroke="black" points="4864.92,-37.16 4874.1,-31.88 4863.63,-30.28 4864.92,-37.16"/>
<text text-anchor="middle" x="4057.49" y="-173.07" font-family="Times,serif" font-size="14.00">1</text>
</g>
<!-- np3.EntityBackgroundBushes -->
<g id="node18" class="node">
<title>np3.EntityBackgroundBushes</title>
<g id="a_node18"><a xlink:href="np3.EntityBackgroundBushes.svg" xlink:title="np3.EntityBackgroundBushes">
<ellipse fill="green" stroke="black" cx="4265.69" cy="-198" rx="149.47" ry="18"/>
<text text-anchor="middle" x="4265.69" y="-194.3" font-family="Times,serif" font-size="14.00">np3.EntityBackgroundBushes</text>
</a>
</g>
</g>
<!-- np3.EntityBackgroundBushes&#45;&gt;main.SetGeomOffset -->
<g id="edge17" class="edge">
<title>np3.EntityBackgroundBushes&#45;&gt;main.SetGeomOffset</title>
<path fill="none" stroke="black" d="M4324.88,-181.44C4451.27,-148.21 4746.65,-70.54 4877.88,-36.04"/>
<polygon fill="black" stroke="black" points="4879.02,-39.36 4887.8,-33.43 4877.24,-32.59 4879.02,-39.36"/>
<text text-anchor="middle" x="4319.88" y="-170.24" font-family="Times,serif" font-size="14.00">1</text>
</g>
<!-- np3.EntityCastleDoor -->
<g id="node19" class="node">
<title>np3.EntityCastleDoor</title>
<g id="a_node19"><a xlink:href="np3.EntityCastleDoor.svg" xlink:title="np3.EntityCastleDoor">
<ellipse fill="green" stroke="black" cx="4544.69" cy="-198" rx="111.58" ry="18"/>
<text text-anchor="middle" x="4544.69" y="-194.3" font-family="Times,serif" font-size="14.00">np3.EntityCastleDoor</text>
</a>
</g>
</g>
<!-- np3.EntityCastleDoor&#45;&gt;main.SetGeomOffset -->
<g id="edge18" class="edge">
<title>np3.EntityCastleDoor&#45;&gt;main.SetGeomOffset</title>
<path fill="none" stroke="black" d="M4580.71,-180.89C4653.44,-148.37 4817.64,-74.93 4897.45,-39.23"/>
<polygon fill="black" stroke="black" points="4899.05,-42.35 4906.75,-35.07 4896.19,-35.96 4899.05,-42.35"/>
<text text-anchor="middle" x="4575.71" y="-169.69" font-family="Times,serif" font-size="14.00">1</text>
</g>
<!-- np3.EntityShuttingWindow -->
<g id="node20" class="node">
<title>np3.EntityShuttingWindow</title>
<g id="a_node20"><a xlink:href="np3.EntityShuttingWindow.svg" xlink:title="np3.EntityShuttingWindow">
<ellipse fill="green" stroke="black" cx="4812.69" cy="-198" rx="137.58" ry="18"/>
<text text-anchor="middle" x="4812.69" y="-194.3" font-family="Times,serif" font-size="14.00">np3.EntityShuttingWindow</text>
</a>
</g>
</g>
<!-- np3.EntityShuttingWindow&#45;&gt;main.SetGeomOffset -->
<g id="edge19" class="edge">
<title>np3.EntityShuttingWindow&#45;&gt;main.SetGeomOffset</title>
<path fill="none" stroke="black" d="M4825.16,-179.93C4848.16,-148.43 4897.39,-81.03 4924.26,-44.24"/>
<polygon fill="black" stroke="black" points="4927.19,-46.16 4930.26,-36.02 4921.54,-42.03 4927.19,-46.16"/>
<text text-anchor="middle" x="4820.16" y="-168.73" font-family="Times,serif" font-size="14.00">1</text>
</g>
<!-- np3.UnkPrimHelper -->
<g id="node21" class="node">
<title>np3.UnkPrimHelper</title>
<g id="a_node21"><a xlink:href="np3.UnkPrimHelper.svg" xlink:title="np3.UnkPrimHelper">
<ellipse fill="green" stroke="black" cx="5072.69" cy="-198" rx="104.78" ry="18"/>
<text text-anchor="middle" x="5072.69" y="-194.3" font-family="Times,serif" font-size="14.00">np3.UnkPrimHelper</text>
</a>
</g>
</g>
<!-- np3.UnkPrimHelper&#45;&gt;main.SetGeomOffset -->
<g id="edge20" class="edge">
<title>np3.UnkPrimHelper&#45;&gt;main.SetGeomOffset</title>
<path fill="none" stroke="black" d="M5060.23,-179.93C5037.22,-148.43 4988,-81.03 4961.12,-44.24"/>
<polygon fill="black" stroke="black" points="4963.84,-42.03 4955.12,-36.02 4958.19,-46.16 4963.84,-42.03"/>
<text text-anchor="middle" x="5055.23" y="-168.73" font-family="Times,serif" font-size="14.00">1</text>
</g>
<!-- np3.func_801B3704 -->
<g id="node22" class="node">
<title>np3.func_801B3704</title>
<g id="a_node22"><a xlink:href="np3.func_801B3704.svg" xlink:title="np3.func_801B3704">
<ellipse fill="green" stroke="black" cx="5298.69" cy="-198" rx="103.18" ry="18"/>
<text text-anchor="middle" x="5298.69" y="-194.3" font-family="Times,serif" font-size="14.00">np3.func_801B3704</text>
</a>
</g>
</g>
<!-- np3.func_801B3704&#45;&gt;main.SetGeomOffset -->
<g id="edge21" class="edge">
<title>np3.func_801B3704&#45;&gt;main.SetGeomOffset</title>
<path fill="none" stroke="black" d="M5266.47,-180.89C5201.77,-148.54 5056.11,-75.71 4984.31,-39.81"/>
<polygon fill="black" stroke="black" points="4985.6,-36.54 4975.1,-35.2 4982.47,-42.8 4985.6,-36.54"/>
<text text-anchor="middle" x="5261.47" y="-169.69" font-family="Times,serif" font-size="14.00">1</text>
</g>
<!-- nz0.EntityLifeUpSpawn -->
<g id="node23" class="node">
<title>nz0.EntityLifeUpSpawn</title>
<g id="a_node23"><a xlink:href="nz0.EntityLifeUpSpawn.svg" xlink:title="nz0.EntityLifeUpSpawn">
<ellipse fill="green" stroke="black" cx="5541.69" cy="-198" rx="121.58" ry="18"/>
<text text-anchor="middle" x="5541.69" y="-194.3" font-family="Times,serif" font-size="14.00">nz0.EntityLifeUpSpawn</text>
</a>
</g>
</g>
<!-- nz0.EntityLifeUpSpawn&#45;&gt;main.SetGeomOffset -->
<g id="edge22" class="edge">
<title>nz0.EntityLifeUpSpawn&#45;&gt;main.SetGeomOffset</title>
<path fill="none" stroke="black" d="M5490.1,-181.67C5379.67,-148.85 5120.86,-71.95 5003.03,-36.93"/>
<polygon fill="black" stroke="black" points="5003.68,-33.47 4993.1,-33.98 5001.69,-40.18 5003.68,-33.47"/>
<text text-anchor="middle" x="5485.1" y="-170.47" font-family="Times,serif" font-size="14.00">1</text>
</g>
<!-- nz0.UnkPrimHelper -->
<g id="node24" class="node">
<title>nz0.UnkPrimHelper</title>
<g id="a_node24"><a xlink:href="nz0.UnkPrimHelper.svg" xlink:title="nz0.UnkPrimHelper">
<ellipse fill="green" stroke="black" cx="5784.69" cy="-198" rx="103.18" ry="18"/>
<text text-anchor="middle" x="5784.69" y="-194.3" font-family="Times,serif" font-size="14.00">nz0.UnkPrimHelper</text>
</a>
</g>
</g>
<!-- nz0.UnkPrimHelper&#45;&gt;main.SetGeomOffset -->
<g id="edge23" class="edge">
<title>nz0.UnkPrimHelper&#45;&gt;main.SetGeomOffset</title>
<path fill="none" stroke="black" d="M5721.75,-183.69C5569.08,-151.42 5179.67,-69.1 5016.45,-34.59"/>
<polygon fill="black" stroke="black" points="5017,-31.13 5006.49,-32.49 5015.55,-37.98 5017,-31.13"/>
<text text-anchor="middle" x="5716.75" y="-172.49" font-family="Times,serif" font-size="14.00">1</text>
</g>
<!-- rbo3.EntityLifeUpSpawn -->
<g id="node25" class="node">
<title>rbo3.EntityLifeUpSpawn</title>
<g id="a_node25"><a xlink:href="rbo3.EntityLifeUpSpawn.svg" xlink:title="rbo3.EntityLifeUpSpawn">
<ellipse fill="red" stroke="black" cx="6031.69" cy="-198" rx="126.18" ry="18"/>
<text text-anchor="middle" x="6031.69" y="-194.3" font-family="Times,serif" font-size="14.00">rbo3.EntityLifeUpSpawn</text>
</a>
</g>
</g>
<!-- rbo3.EntityLifeUpSpawn&#45;&gt;main.SetGeomOffset -->
<g id="edge24" class="edge">
<title>rbo3.EntityLifeUpSpawn&#45;&gt;main.SetGeomOffset</title>
<path fill="none" stroke="black" d="M5952.06,-183.98C5752.19,-151.31 5230.8,-66.09 5026.52,-32.7"/>
<polygon fill="black" stroke="black" points="5026.88,-29.22 5016.45,-31.06 5025.75,-36.12 5026.88,-29.22"/>
<text text-anchor="middle" x="5947.06" y="-172.78" font-family="Times,serif" font-size="14.00">1</text>
</g>
<!-- rbo3.UnkPrimHelper -->
<g id="node26" class="node">
<title>rbo3.UnkPrimHelper</title>
<g id="a_node26"><a xlink:href="rbo3.UnkPrimHelper.svg" xlink:title="rbo3.UnkPrimHelper">
<ellipse fill="red" stroke="black" cx="6284.69" cy="-198" rx="108.58" ry="18"/>
<text text-anchor="middle" x="6284.69" y="-194.3" font-family="Times,serif" font-size="14.00">rbo3.UnkPrimHelper</text>
</a>
</g>
</g>
<!-- rbo3.UnkPrimHelper&#45;&gt;main.SetGeomOffset -->
<g id="edge25" class="edge">
<title>rbo3.UnkPrimHelper&#45;&gt;main.SetGeomOffset</title>
<path fill="none" stroke="black" d="M6206,-185.53C6192.88,-183.65 6179.4,-181.75 6166.69,-180 5744.39,-121.81 5239.46,-56.86 5035.2,-30.77"/>
<polygon fill="black" stroke="black" points="5035.48,-27.28 5025.12,-29.49 5034.59,-34.22 5035.48,-27.28"/>
<text text-anchor="middle" x="6201" y="-174.33" font-family="Times,serif" font-size="14.00">1</text>
</g>
<!-- rbo3.func_us_8019F2F8 -->
<g id="node27" class="node">
<title>rbo3.func_us_8019F2F8</title>
<g id="a_node27"><a xlink:href="rbo3.func_us_8019F2F8.svg" xlink:title="rbo3.func_us_8019F2F8">
<ellipse fill="red" stroke="black" cx="6533.69" cy="-198" rx="122.38" ry="18"/>
<text text-anchor="middle" x="6533.69" y="-194.3" font-family="Times,serif" font-size="14.00">rbo3.func_us_8019F2F8</text>
</a>
</g>
</g>
<!-- rbo3.func_us_8019F2F8&#45;&gt;main.SetGeomOffset -->
<g id="edge26" class="edge">
<title>rbo3.func_us_8019F2F8&#45;&gt;main.SetGeomOffset</title>
<path fill="none" stroke="black" d="M6445.99,-185.38C6431.53,-183.53 6416.69,-181.68 6402.69,-180 5890.94,-118.58 5277.17,-53.79 5041.48,-29.23"/>
<polygon fill="black" stroke="black" points="5041.53,-25.72 5031.22,-28.16 5040.8,-32.68 5041.53,-25.72"/>
<text text-anchor="middle" x="6440.99" y="-174.18" font-family="Times,serif" font-size="14.00">1</text>
</g>
<!-- ric.RicEntityCrashCrossBeam -->
<g id="node28" class="node">
<title>ric.RicEntityCrashCrossBeam</title>
<g id="a_node28"><a xlink:href="ric.RicEntityCrashCrossBeam.svg" xlink:title="ric.RicEntityCrashCrossBeam">
<ellipse fill="green" stroke="black" cx="6823.69" cy="-198" rx="149.47" ry="18"/>
<text text-anchor="middle" x="6823.69" y="-194.3" font-family="Times,serif" font-size="14.00">ric.RicEntityCrashCrossBeam</text>
</a>
</g>
</g>
<!-- ric.RicEntityCrashCrossBeam&#45;&gt;main.SetGeomOffset -->
<g id="edge27" class="edge">
<title>ric.RicEntityCrashCrossBeam&#45;&gt;main.SetGeomOffset</title>
<path fill="none" stroke="black" d="M6716.8,-185.37C6699.39,-183.54 6681.54,-181.69 6664.69,-180 6050.04,-118.41 5311.19,-51.83 5044.71,-28.06"/>
<polygon fill="black" stroke="black" points="5044.94,-24.57 5034.67,-27.17 5044.32,-31.54 5044.94,-24.57"/>
<text text-anchor="middle" x="6711.8" y="-174.17" font-family="Times,serif" font-size="14.00">1</text>
</g>
<!-- rwrp.UnkPrimHelper -->
<g id="node29" class="node">
<title>rwrp.UnkPrimHelper</title>
<g id="a_node29"><a xlink:href="rwrp.UnkPrimHelper.svg" xlink:title="rwrp.UnkPrimHelper">
<ellipse fill="green" stroke="black" cx="7100.69" cy="-198" rx="109.38" ry="18"/>
<text text-anchor="middle" x="7100.69" y="-194.3" font-family="Times,serif" font-size="14.00">rwrp.UnkPrimHelper</text>
</a>
</g>
</g>
<!-- rwrp.UnkPrimHelper&#45;&gt;main.SetGeomOffset -->
<g id="edge28" class="edge">
<title>rwrp.UnkPrimHelper&#45;&gt;main.SetGeomOffset</title>
<path fill="none" stroke="black" d="M7023.33,-185.23C7009.48,-183.33 6995.17,-181.49 6981.69,-180 6246.67,-98.56 5358.13,-43.08 5052.29,-25.21"/>
<polygon fill="black" stroke="black" points="5052.28,-21.71 5042.09,-24.62 5051.87,-28.69 5052.28,-21.71"/>
<text text-anchor="middle" x="7018.33" y="-174.03" font-family="Times,serif" font-size="14.00">1</text>
</g>
<!-- st0..L801BBDE8 -->
<g id="node30" class="node">
<title>st0..L801BBDE8</title>
<g id="a_node30"><a xlink:href="st0..L801BBDE8.svg" xlink:title="st0..L801BBDE8">
<ellipse fill="green" stroke="black" cx="7316.69" cy="-198" rx="88.28" ry="18"/>
<text text-anchor="middle" x="7316.69" y="-194.3" font-family="Times,serif" font-size="14.00">st0..L801BBDE8</text>
</a>
</g>
</g>
<!-- st0..L801BBDE8&#45;&gt;main.SetGeomOffset -->
<g id="edge29" class="edge">
<title>st0..L801BBDE8&#45;&gt;main.SetGeomOffset</title>
<path fill="none" stroke="black" d="M7254.36,-185.21C7242.54,-183.26 7230.26,-181.41 7218.69,-180 6392.39,-79.37 5389.09,-35.46 5056.11,-22.96"/>
<polygon fill="black" stroke="black" points="5056.1,-19.46 5045.98,-22.58 5055.84,-26.45 5056.1,-19.46"/>
<text text-anchor="middle" x="7249.36" y="-174.01" font-family="Times,serif" font-size="14.00">1</text>
</g>
<!-- st0.EntityBackgroundVortex -->
<g id="node31" class="node">
<title>st0.EntityBackgroundVortex</title>
<g id="a_node31"><a xlink:href="st0.EntityBackgroundVortex.svg" xlink:title="st0.EntityBackgroundVortex">
<ellipse fill="red" stroke="black" cx="7565.69" cy="-198" rx="142.97" ry="18"/>
<text text-anchor="middle" x="7565.69" y="-194.3" font-family="Times,serif" font-size="14.00">st0.EntityBackgroundVortex</text>
</a>
</g>
</g>
<!-- st0.EntityBackgroundVortex&#45;&gt;main.SetGeomOffset -->
<g id="edge30" class="edge">
<title>st0.EntityBackgroundVortex&#45;&gt;main.SetGeomOffset</title>
<path fill="none" stroke="black" d="M7465.6,-185.14C7448.3,-183.28 7430.49,-181.49 7413.69,-180 6503.58,-99.5 5401.54,-41.7 5053.52,-24.39"/>
<polygon fill="black" stroke="black" points="5053.6,-20.89 5043.44,-23.89 5053.26,-27.88 5053.6,-20.89"/>
<text text-anchor="middle" x="7460.6" y="-173.94" font-family="Times,serif" font-size="14.00">1</text>
</g>
<!-- st0.EntityClockTower3D -->
<g id="node32" class="node">
<title>st0.EntityClockTower3D</title>
<g id="a_node32"><a xlink:href="st0.EntityClockTower3D.svg" xlink:title="st0.EntityClockTower3D">
<ellipse fill="red" stroke="black" cx="7850.69" cy="-198" rx="124.28" ry="18"/>
<text text-anchor="middle" x="7850.69" y="-194.3" font-family="Times,serif" font-size="14.00">st0.EntityClockTower3D</text>
</a>
</g>
</g>
<!-- st0.EntityClockTower3D&#45;&gt;main.SetGeomOffset -->
<g id="edge31" class="edge">
<title>st0.EntityClockTower3D&#45;&gt;main.SetGeomOffset</title>
<path fill="none" stroke="black" d="M7764.22,-185.07C7748.75,-183.18 7732.76,-181.4 7717.69,-180 6686.77,-84.32 5434.78,-35.93 5056.33,-22.77"/>
<polygon fill="black" stroke="black" points="5056.31,-19.27 5046.2,-22.42 5056.07,-26.26 5056.31,-19.27"/>
<text text-anchor="middle" x="7759.22" y="-173.87" font-family="Times,serif" font-size="14.00">1</text>
</g>
<!-- st0.EntityClouds -->
<g id="node33" class="node">
<title>st0.EntityClouds</title>
<g id="a_node33"><a xlink:href="st0.EntityClouds.svg" xlink:title="st0.EntityClouds">
<ellipse fill="red" stroke="black" cx="8081.69" cy="-198" rx="89.08" ry="18"/>
<text text-anchor="middle" x="8081.69" y="-194.3" font-family="Times,serif" font-size="14.00">st0.EntityClouds</text>
</a>
</g>
</g>
<!-- st0.EntityClouds&#45;&gt;main.SetGeomOffset -->
<g id="edge32" class="edge">
<title>st0.EntityClouds&#45;&gt;main.SetGeomOffset</title>
<path fill="none" stroke="black" d="M8019.38,-185.05C8007.56,-183.11 7995.27,-181.31 7983.69,-180 6848.85,-51.99 5463.97,-25.38 5059.03,-20.19"/>
<polygon fill="black" stroke="black" points="5058.82,-16.68 5048.78,-20.06 5058.74,-23.68 5058.82,-16.68"/>
<text text-anchor="middle" x="8014.38" y="-173.85" font-family="Times,serif" font-size="14.00">1</text>
</g>
<!-- st0.UnkPrimHelper -->
<g id="node34" class="node">
<title>st0.UnkPrimHelper</title>
<g id="a_node34"><a xlink:href="st0.UnkPrimHelper.svg" xlink:title="st0.UnkPrimHelper">
<ellipse fill="green" stroke="black" cx="8289.69" cy="-198" rx="101.28" ry="18"/>
<text text-anchor="middle" x="8289.69" y="-194.3" font-family="Times,serif" font-size="14.00">st0.UnkPrimHelper</text>
</a>
</g>
</g>
<!-- st0.UnkPrimHelper&#45;&gt;main.SetGeomOffset -->
<g id="edge33" class="edge">
<title>st0.UnkPrimHelper&#45;&gt;main.SetGeomOffset</title>
<path fill="none" stroke="black" d="M8219.12,-184.99C8206.04,-183.08 8192.48,-181.3 8179.69,-180 6962.96,-56.06 5478.82,-26.52 5058.51,-20.43"/>
<polygon fill="black" stroke="black" points="5058.53,-16.93 5048.48,-20.28 5058.43,-23.92 5058.53,-16.93"/>
<text text-anchor="middle" x="8214.12" y="-173.79" font-family="Times,serif" font-size="14.00">1</text>
</g>
<!-- st0.func_801BC5C0 -->
<g id="node35" class="node">
<title>st0.func_801BC5C0</title>
<g id="a_node35"><a xlink:href="st0.func_801BC5C0.svg" xlink:title="st0.func_801BC5C0">
<ellipse fill="red" stroke="black" cx="8511.69" cy="-198" rx="102.88" ry="18"/>
<text text-anchor="middle" x="8511.69" y="-194.3" font-family="Times,serif" font-size="14.00">st0.func_801BC5C0</text>
</a>
</g>
</g>
<!-- st0.func_801BC5C0&#45;&gt;main.SetGeomOffset -->
<g id="edge34" class="edge">
<title>st0.func_801BC5C0&#45;&gt;main.SetGeomOffset</title>
<path fill="none" stroke="black" d="M8440.13,-185C8426.72,-183.08 8412.8,-181.3 8399.69,-180 7092.72,-50.73 5497.23,-24.84 5058.85,-20.03"/>
<polygon fill="black" stroke="black" points="5058.75,-16.53 5048.71,-19.92 5058.67,-23.53 5058.75,-16.53"/>
<text text-anchor="middle" x="8435.13" y="-173.8" font-family="Times,serif" font-size="14.00">2</text>
</g>
<!-- st0.func_801BD8F0 -->
<g id="node36" class="node">
<title>st0.func_801BD8F0</title>
<g id="a_node36"><a xlink:href="st0.func_801BD8F0.svg" xlink:title="st0.func_801BD8F0">
<ellipse fill="green" stroke="black" cx="8734.69" cy="-198" rx="102.88" ry="18"/>
<text text-anchor="middle" x="8734.69" y="-194.3" font-family="Times,serif" font-size="14.00">st0.func_801BD8F0</text>
</a>
</g>
</g>
<!-- st0.func_801BD8F0&#45;&gt;main.SetGeomOffset -->
<g id="edge35" class="edge">
<title>st0.func_801BD8F0&#45;&gt;main.SetGeomOffset</title>
<path fill="none" stroke="black" d="M8663.78,-184.97C8650.49,-183.05 8636.69,-181.28 8623.69,-180 7225.05,-42.72 5515.95,-22.49 5059.37,-19.51"/>
<polygon fill="black" stroke="black" points="5059.17,-16.01 5049.15,-19.45 5059.13,-23.01 5059.17,-16.01"/>
<text text-anchor="middle" x="8658.78" y="-173.77" font-family="Times,serif" font-size="14.00">1</text>
</g>
<!-- w_017.EntityWeaponAttack -->
<g id="node37" class="node">
<title>w_017.EntityWeaponAttack</title>
<g id="a_node37"><a xlink:href="w_017.EntityWeaponAttack.svg" xlink:title="w_017.EntityWeaponAttack">
<ellipse fill="green" stroke="black" cx="8993.69" cy="-198" rx="138.38" ry="18"/>
<text text-anchor="middle" x="8993.69" y="-194.3" font-family="Times,serif" font-size="14.00">w_017.EntityWeaponAttack</text>
</a>
</g>
</g>
<!-- w_017.EntityWeaponAttack&#45;&gt;main.SetGeomOffset -->
<g id="edge36" class="edge">
<title>w_017.EntityWeaponAttack&#45;&gt;main.SetGeomOffset</title>
<path fill="none" stroke="black" d="M8898.11,-184.91C8881.01,-183.04 8863.34,-181.3 8846.69,-180 7352.98,-62.99 5530.68,-28.04 5058.68,-20.65"/>
<polygon fill="black" stroke="black" points="5058.5,-17.15 5048.45,-20.49 5058.4,-24.15 5058.5,-17.15"/>
<text text-anchor="middle" x="8893.11" y="-173.71" font-family="Times,serif" font-size="14.00">1</text>
</g>
<!-- w_023.func_ptr_80170024 -->
<g id="node38" class="node">
<title>w_023.func_ptr_80170024</title>
<g id="a_node38"><a xlink:href="w_023.func_ptr_80170024.svg" xlink:title="w_023.func_ptr_80170024">
<ellipse fill="green" stroke="black" cx="9283.69" cy="-198" rx="133.48" ry="18"/>
<text text-anchor="middle" x="9283.69" y="-194.3" font-family="Times,serif" font-size="14.00">w_023.func_ptr_80170024</text>
</a>
</g>
</g>
<!-- w_023.func_ptr_80170024&#45;&gt;main.SetGeomOffset -->
<g id="edge37" class="edge">
<title>w_023.func_ptr_80170024&#45;&gt;main.SetGeomOffset</title>
<path fill="none" stroke="black" d="M9191.49,-184.94C9174.61,-183.05 9157.14,-181.29 9140.69,-180 7525.73,-53.24 5553.12,-25.25 5059.06,-20.05"/>
<polygon fill="black" stroke="black" points="5058.75,-16.55 5048.71,-19.95 5058.68,-23.55 5058.75,-16.55"/>
<text text-anchor="middle" x="9186.49" y="-173.74" font-family="Times,serif" font-size="14.00">1</text>
</g>
<!-- w_026.func_ptr_80170024 -->
<g id="node39" class="node">
<title>w_026.func_ptr_80170024</title>
<g id="a_node39"><a xlink:href="w_026.func_ptr_80170024.svg" xlink:title="w_026.func_ptr_80170024">
<ellipse fill="green" stroke="black" cx="9567.69" cy="-198" rx="133.48" ry="18"/>
<text text-anchor="middle" x="9567.69" y="-194.3" font-family="Times,serif" font-size="14.00">w_026.func_ptr_80170024</text>
</a>
</g>
</g>
<!-- w_026.func_ptr_80170024&#45;&gt;main.SetGeomOffset -->
<g id="edge38" class="edge">
<title>w_026.func_ptr_80170024&#45;&gt;main.SetGeomOffset</title>
<path fill="none" stroke="black" d="M9476.14,-184.9C9459.38,-183.01 9442.03,-181.27 9425.69,-180 7692.58,-45.37 5573.65,-23.11 5059.22,-19.62"/>
<polygon fill="black" stroke="black" points="5059.21,-16.12 5049.19,-19.55 5059.17,-23.12 5059.21,-16.12"/>
<text text-anchor="middle" x="9471.14" y="-173.7" font-family="Times,serif" font-size="14.00">1</text>
</g>
</g>
</svg>
