<?xml version="1.0" encoding="UTF-8" standalone="no"?>
<!DOCTYPE svg PUBLIC "-//W3C//DTD SVG 1.1//EN"
 "http://www.w3.org/Graphics/SVG/1.1/DTD/svg11.dtd">
<!-- Generated by graphviz version 2.43.0 (0)
 -->
<!-- Title: main.PadRead Pages: 1 -->
<svg width="1732pt" height="224pt"
 viewBox="0.00 0.00 1732.48 224.00" xmlns="http://www.w3.org/2000/svg" xmlns:xlink="http://www.w3.org/1999/xlink">
<g id="graph0" class="graph" transform="scale(1 1) rotate(0) translate(4 220)">
<title>main.PadRead</title>
<polygon fill="white" stroke="transparent" points="-4,4 -4,-220 1728.48,-220 1728.48,4 -4,4"/>
<!-- main.PadRead -->
<g id="node1" class="node">
<title>main.PadRead</title>
<ellipse fill="green" stroke="black" cx="837.39" cy="-18" rx="77.19" ry="18"/>
<text text-anchor="middle" x="837.39" y="-14.3" font-family="Times,serif" font-size="14.00">main.PadRead</text>
</g>
<!-- cat.func_801CD734 -->
<g id="node2" class="node">
<title>cat.func_801CD734</title>
<g id="a_node2"><a xlink:href="cat.func_801CD734.svg" xlink:title="cat.func_801CD734">
<ellipse fill="green" stroke="black" cx="101.39" cy="-198" rx="101.28" ry="18"/>
<text text-anchor="middle" x="101.39" y="-194.3" font-family="Times,serif" font-size="14.00">cat.func_801CD734</text>
</a>
</g>
</g>
<!-- cat.func_801CD734&#45;&gt;main.PadRead -->
<g id="edge1" class="edge">
<title>cat.func_801CD734&#45;&gt;main.PadRead</title>
<path fill="none" stroke="black" d="M158.84,-183.11C294.96,-150.19 636.17,-67.67 776.08,-33.83"/>
<polygon fill="black" stroke="black" points="776.9,-37.23 785.8,-31.48 775.26,-30.43 776.9,-37.23"/>
<text text-anchor="middle" x="153.84" y="-171.91" font-family="Times,serif" font-size="14.00">2</text>
</g>
<!-- dra.DebugInputWait -->
<g id="node3" class="node">
<title>dra.DebugInputWait</title>
<g id="a_node3"><a xlink:href="dra.DebugInputWait.svg" xlink:title="dra.DebugInputWait">
<ellipse fill="green" stroke="black" cx="326.39" cy="-198" rx="105.08" ry="18"/>
<text text-anchor="middle" x="326.39" y="-194.3" font-family="Times,serif" font-size="14.00">dra.DebugInputWait</text>
</a>
</g>
</g>
<!-- dra.DebugInputWait&#45;&gt;main.PadRead -->
<g id="edge2" class="edge">
<title>dra.DebugInputWait&#45;&gt;main.PadRead</title>
<path fill="none" stroke="black" d="M370.84,-181.52C465.55,-148.53 686.69,-71.5 786.69,-36.66"/>
<polygon fill="black" stroke="black" points="787.97,-39.92 796.26,-33.33 785.67,-33.31 787.97,-39.92"/>
<text text-anchor="middle" x="365.84" y="-170.32" font-family="Times,serif" font-size="14.00">2</text>
</g>
<!-- dra.ReadPads -->
<g id="node4" class="node">
<title>dra.ReadPads</title>
<g id="a_node4"><a xlink:href="dra.ReadPads.svg" xlink:title="dra.ReadPads">
<ellipse fill="green" stroke="black" cx="524.39" cy="-198" rx="74.99" ry="18"/>
<text text-anchor="middle" x="524.39" y="-194.3" font-family="Times,serif" font-size="14.00">dra.ReadPads</text>
</a>
</g>
</g>
<!-- dra.ReadPads&#45;&gt;main.PadRead -->
<g id="edge3" class="edge">
<title>dra.ReadPads&#45;&gt;main.PadRead</title>
<path fill="none" stroke="black" d="M552.17,-181.2C608.64,-149.09 736.85,-76.18 800.34,-40.07"/>
<polygon fill="black" stroke="black" points="802.26,-43 809.23,-35.02 798.8,-36.92 802.26,-43"/>
<text text-anchor="middle" x="547.17" y="-170" font-family="Times,serif" font-size="14.00">1</text>
</g>
<!-- no1.DebugInputWait -->
<g id="node5" class="node">
<title>no1.DebugInputWait</title>
<g id="a_node5"><a xlink:href="no1.DebugInputWait.svg" xlink:title="no1.DebugInputWait">
<ellipse fill="green" stroke="black" cx="723.39" cy="-198" rx="106.68" ry="18"/>
<text text-anchor="middle" x="723.39" y="-194.3" font-family="Times,serif" font-size="14.00">no1.DebugInputWait</text>
</a>
</g>
</g>
<!-- no1.DebugInputWait&#45;&gt;main.PadRead -->
<g id="edge4" class="edge">
<title>no1.DebugInputWait&#45;&gt;main.PadRead</title>
<path fill="none" stroke="black" d="M734.32,-179.93C754.41,-148.57 797.3,-81.6 820.93,-44.71"/>
<polygon fill="black" stroke="black" points="824.05,-46.32 826.49,-36.02 818.15,-42.55 824.05,-46.32"/>
<text text-anchor="middle" x="729.32" y="-168.73" font-family="Times,serif" font-size="14.00">2</text>
</g>
<!-- no2.func_801CD734 -->
<g id="node6" class="node">
<title>no2.func_801CD734</title>
<g id="a_node6"><a xlink:href="no2.func_801CD734.svg" xlink:title="no2.func_801CD734">
<ellipse fill="green" stroke="black" cx="952.39" cy="-198" rx="104.78" ry="18"/>
<text text-anchor="middle" x="952.39" y="-194.3" font-family="Times,serif" font-size="14.00">no2.func_801CD734</text>
</a>
</g>
</g>
<!-- no2.func_801CD734&#45;&gt;main.PadRead -->
<g id="edge5" class="edge">
<title>no2.func_801CD734&#45;&gt;main.PadRead</title>
<path fill="none" stroke="black" d="M941.36,-179.93C921.1,-148.57 877.84,-81.6 854,-44.71"/>
<polygon fill="black" stroke="black" points="856.75,-42.52 848.38,-36.02 850.87,-46.31 856.75,-42.52"/>
<text text-anchor="middle" x="936.36" y="-168.73" font-family="Times,serif" font-size="14.00">2</text>
</g>
<!-- np3.func_801CD734 -->
<g id="node7" class="node">
<title>np3.func_801CD734</title>
<g id="a_node7"><a xlink:href="np3.func_801CD734.svg" xlink:title="np3.func_801CD734">
<ellipse fill="green" stroke="black" cx="1179.39" cy="-198" rx="104.78" ry="18"/>
<text text-anchor="middle" x="1179.39" y="-194.3" font-family="Times,serif" font-size="14.00">np3.func_801CD734</text>
</a>
</g>
</g>
<!-- np3.func_801CD734&#45;&gt;main.PadRead -->
<g id="edge6" class="edge">
<title>np3.func_801CD734&#45;&gt;main.PadRead</title>
<path fill="none" stroke="black" d="M1148.13,-180.73C1085.61,-148.19 945.27,-75.15 876.66,-39.44"/>
<polygon fill="black" stroke="black" points="877.96,-36.17 867.47,-34.66 874.73,-42.38 877.96,-36.17"/>
<text text-anchor="middle" x="1143.13" y="-169.53" font-family="Times,serif" font-size="14.00">2</text>
</g>
<!-- ric.DebugInputWait -->
<g id="node8" class="node">
<title>ric.DebugInputWait</title>
<g id="a_node8"><a xlink:href="ric.DebugInputWait.svg" xlink:title="ric.DebugInputWait">
<ellipse fill="green" stroke="black" cx="1404.39" cy="-198" rx="102.08" ry="18"/>
<text text-anchor="middle" x="1404.39" y="-194.3" font-family="Times,serif" font-size="14.00">ric.DebugInputWait</text>
</a>
</g>
</g>
<!-- ric.DebugInputWait&#45;&gt;main.PadRead -->
<g id="edge7" class="edge">
<title>ric.DebugInputWait&#45;&gt;main.PadRead</title>
<path fill="none" stroke="black" d="M1356.54,-181.98C1251.45,-148.99 1001.11,-70.4 890.96,-35.82"/>
<polygon fill="black" stroke="black" points="891.97,-32.47 881.38,-32.81 889.87,-39.14 891.97,-32.47"/>
<text text-anchor="middle" x="1351.54" y="-170.78" font-family="Times,serif" font-size="14.00">2</text>
</g>
<!-- sel.func_801B9C80 -->
<g id="node9" class="node">
<title>sel.func_801B9C80</title>
<g id="a_node9"><a xlink:href="sel.func_801B9C80.svg" xlink:title="sel.func_801B9C80">
<ellipse fill="red" stroke="black" cx="1624.39" cy="-198" rx="100.18" ry="18"/>
<text text-anchor="middle" x="1624.39" y="-194.3" font-family="Times,serif" font-size="14.00">sel.func_801B9C80</text>
</a>
</g>
</g>
<!-- sel.func_801B9C80&#45;&gt;main.PadRead -->
<g id="edge8" class="edge">
<title>sel.func_801B9C80&#45;&gt;main.PadRead</title>
<path fill="none" stroke="black" d="M1564.59,-183.47C1419.42,-150.64 1049.4,-66.95 900.69,-33.32"/>
<polygon fill="black" stroke="black" points="901.32,-29.87 890.8,-31.08 899.78,-36.7 901.32,-29.87"/>
<text text-anchor="middle" x="1559.59" y="-172.27" font-family="Times,serif" font-size="14.00">2</text>
</g>
</g>
</svg>
