<?xml version="1.0" encoding="UTF-8" standalone="no"?>
<!DOCTYPE svg PUBLIC "-//W3C//DTD SVG 1.1//EN"
 "http://www.w3.org/Graphics/SVG/1.1/DTD/svg11.dtd">
<!-- Generated by graphviz version 2.43.0 (0)
 -->
<!-- Title: main.SetGeomOffset Pages: 1 -->
<svg width="8006pt" height="224pt"
 viewBox="0.00 0.00 8006.33 224.00" xmlns="http://www.w3.org/2000/svg" xmlns:xlink="http://www.w3.org/1999/xlink">
<g id="graph0" class="graph" transform="scale(1 1) rotate(0) translate(4 220)">
<title>main.SetGeomOffset</title>
<polygon fill="white" stroke="transparent" points="-4,4 -4,-220 8002.33,-220 8002.33,4 -4,4"/>
<!-- main.SetGeomOffset -->
<g id="node1" class="node">
<title>main.SetGeomOffset</title>
<ellipse fill="red" stroke="black" cx="3979.69" cy="-18" rx="106.68" ry="18"/>
<text text-anchor="middle" x="3979.69" y="-14.3" font-family="Times,serif" font-size="14.00">main.SetGeomOffset</text>
</g>
<!-- cen.UnkPrimHelper -->
<g id="node2" class="node">
<title>cen.UnkPrimHelper</title>
<g id="a_node2"><a xlink:href="cen.UnkPrimHelper.svg" xlink:title="cen.UnkPrimHelper">
<ellipse fill="green" stroke="black" cx="102.69" cy="-198" rx="102.88" ry="18"/>
<text text-anchor="middle" x="102.69" y="-194.3" font-family="Times,serif" font-size="14.00">cen.UnkPrimHelper</text>
</a>
</g>
</g>
<!-- cen.UnkPrimHelper&#45;&gt;main.SetGeomOffset -->
<g id="edge1" class="edge">
<title>cen.UnkPrimHelper&#45;&gt;main.SetGeomOffset</title>
<path fill="none" stroke="black" d="M173.95,-185.01C187.45,-183.07 201.48,-181.28 214.69,-180 1648.12,-40.97 3400.16,-22 3863.05,-19.41"/>
<polygon fill="black" stroke="black" points="3863.11,-22.91 3873.09,-19.35 3863.07,-15.91 3863.11,-22.91"/>
<text text-anchor="middle" x="168.95" y="-173.81" font-family="Times,serif" font-size="14.00">1</text>
</g>
<!-- dra.EntityGiantSpinningCross -->
<g id="node3" class="node">
<title>dra.EntityGiantSpinningCross</title>
<g id="a_node3"><a xlink:href="dra.EntityGiantSpinningCross.svg" xlink:title="dra.EntityGiantSpinningCross">
<ellipse fill="green" stroke="black" cx="374.69" cy="-198" rx="151.37" ry="18"/>
<text text-anchor="middle" x="374.69" y="-194.3" font-family="Times,serif" font-size="14.00">dra.EntityGiantSpinningCross</text>
</a>
</g>
</g>
<!-- dra.EntityGiantSpinningCross&#45;&gt;main.SetGeomOffset -->
<g id="edge2" class="edge">
<title>dra.EntityGiantSpinningCross&#45;&gt;main.SetGeomOffset</title>
<path fill="none" stroke="black" d="M479.61,-184.96C497.95,-183.11 516.87,-181.36 534.69,-180 1840.8,-80.18 3430.53,-33.39 3865.21,-21.89"/>
<polygon fill="black" stroke="black" points="3865.36,-25.39 3875.27,-21.63 3865.18,-18.39 3865.36,-25.39"/>
<text text-anchor="middle" x="474.61" y="-173.76" font-family="Times,serif" font-size="14.00">1</text>
</g>
<!-- dra.func_80105428 -->
<g id="node4" class="node">
<title>dra.func_80105428</title>
<g id="a_node4"><a xlink:href="dra.func_80105428.svg" xlink:title="dra.func_80105428">
<ellipse fill="green" stroke="black" cx="644.69" cy="-198" rx="100.98" ry="18"/>
<text text-anchor="middle" x="644.69" y="-194.3" font-family="Times,serif" font-size="14.00">dra.func_80105428</text>
</a>
</g>
</g>
<!-- dra.func_80105428&#45;&gt;main.SetGeomOffset -->
<g id="edge3" class="edge">
<title>dra.func_80105428&#45;&gt;main.SetGeomOffset</title>
<path fill="none" stroke="black" d="M714.97,-185.03C728.14,-183.1 741.81,-181.31 754.69,-180 1966.56,-56.44 3444.71,-26.64 3863.94,-20.45"/>
<polygon fill="black" stroke="black" points="3864,-23.95 3873.95,-20.31 3863.9,-16.95 3864,-23.95"/>
<text text-anchor="middle" x="709.97" y="-173.83" font-family="Times,serif" font-size="14.00">1</text>
</g>
<!-- dre.Entity3DBackgroundHouse -->
<g id="node5" class="node">
<title>dre.Entity3DBackgroundHouse</title>
<g id="a_node5"><a xlink:href="dre.Entity3DBackgroundHouse.svg" xlink:title="dre.Entity3DBackgroundHouse">
<ellipse fill="green" stroke="black" cx="919.69" cy="-198" rx="155.97" ry="18"/>
<text text-anchor="middle" x="919.69" y="-194.3" font-family="Times,serif" font-size="14.00">dre.Entity3DBackgroundHouse</text>
</a>
</g>
</g>
<!-- dre.Entity3DBackgroundHouse&#45;&gt;main.SetGeomOffset -->
<g id="edge4" class="edge">
<title>dre.Entity3DBackgroundHouse&#45;&gt;main.SetGeomOffset</title>
<path fill="none" stroke="black" d="M1028.35,-185.07C1047.12,-183.22 1066.46,-181.45 1084.69,-180 2166.53,-94.23 3479.39,-38.74 3866.92,-23.36"/>
<polygon fill="black" stroke="black" points="3867.16,-26.85 3877.01,-22.96 3866.88,-19.86 3867.16,-26.85"/>
<text text-anchor="middle" x="1023.35" y="-173.87" font-family="Times,serif" font-size="14.00">1</text>
</g>
<!-- dre.UnkPrimHelper -->
<g id="node6" class="node">
<title>dre.UnkPrimHelper</title>
<g id="a_node6"><a xlink:href="dre.UnkPrimHelper.svg" xlink:title="dre.UnkPrimHelper">
<ellipse fill="green" stroke="black" cx="1196.69" cy="-198" rx="102.88" ry="18"/>
<text text-anchor="middle" x="1196.69" y="-194.3" font-family="Times,serif" font-size="14.00">dre.UnkPrimHelper</text>
</a>
</g>
</g>
<!-- dre.UnkPrimHelper&#45;&gt;main.SetGeomOffset -->
<g id="edge5" class="edge">
<title>dre.UnkPrimHelper&#45;&gt;main.SetGeomOffset</title>
<path fill="none" stroke="black" d="M1268.56,-185.11C1281.88,-183.18 1295.68,-181.38 1308.69,-180 2295.3,-75.6 3494.65,-33.34 3865.16,-22.2"/>
<polygon fill="black" stroke="black" points="3865.46,-25.69 3875.35,-21.89 3865.25,-18.7 3865.46,-25.69"/>
<text text-anchor="middle" x="1263.56" y="-173.91" font-family="Times,serif" font-size="14.00">1</text>
</g>
<!-- no3.EntityBackgroundBushes -->
<g id="node7" class="node">
<title>no3.EntityBackgroundBushes</title>
<g id="a_node7"><a xlink:href="no3.EntityBackgroundBushes.svg" xlink:title="no3.EntityBackgroundBushes">
<ellipse fill="red" stroke="black" cx="1466.69" cy="-198" rx="148.67" ry="18"/>
<text text-anchor="middle" x="1466.69" y="-194.3" font-family="Times,serif" font-size="14.00">no3.EntityBackgroundBushes</text>
</a>
</g>
</g>
<!-- no3.EntityBackgroundBushes&#45;&gt;main.SetGeomOffset -->
<g id="edge6" class="edge">
<title>no3.EntityBackgroundBushes&#45;&gt;main.SetGeomOffset</title>
<path fill="none" stroke="black" d="M1571.17,-185.18C1589.02,-183.33 1607.38,-181.52 1624.69,-180 2488.59,-104.02 3533.48,-43.64 3869.79,-24.99"/>
<polygon fill="black" stroke="black" points="3870.23,-28.47 3880.02,-24.42 3869.84,-21.48 3870.23,-28.47"/>
<text text-anchor="middle" x="1566.17" y="-173.98" font-family="Times,serif" font-size="14.00">1</text>
</g>
<!-- no3.EntityCastleDoor -->
<g id="node8" class="node">
<title>no3.EntityCastleDoor</title>
<g id="a_node8"><a xlink:href="no3.EntityCastleDoor.svg" xlink:title="no3.EntityCastleDoor">
<ellipse fill="green" stroke="black" cx="1744.69" cy="-198" rx="111.28" ry="18"/>
<text text-anchor="middle" x="1744.69" y="-194.3" font-family="Times,serif" font-size="14.00">no3.EntityCastleDoor</text>
</a>
</g>
</g>
<!-- no3.EntityCastleDoor&#45;&gt;main.SetGeomOffset -->
<g id="edge7" class="edge">
<title>no3.EntityCastleDoor&#45;&gt;main.SetGeomOffset</title>
<path fill="none" stroke="black" d="M1823.03,-185.16C1836.89,-183.27 1851.2,-181.47 1864.69,-180 2630.2,-96.73 3556.25,-42.07 3869.84,-24.85"/>
<polygon fill="black" stroke="black" points="3870.04,-28.34 3879.84,-24.3 3869.66,-21.35 3870.04,-28.34"/>
<text text-anchor="middle" x="1818.03" y="-173.96" font-family="Times,serif" font-size="14.00">1</text>
</g>
<!-- no3.EntityDeathSkySwirl -->
<g id="node9" class="node">
<title>no3.EntityDeathSkySwirl</title>
<g id="a_node9"><a xlink:href="no3.EntityDeathSkySwirl.svg" xlink:title="no3.EntityDeathSkySwirl">
<ellipse fill="green" stroke="black" cx="2002.69" cy="-198" rx="128.88" ry="18"/>
<text text-anchor="middle" x="2002.69" y="-194.3" font-family="Times,serif" font-size="14.00">no3.EntityDeathSkySwirl</text>
</a>
</g>
</g>
<!-- no3.EntityDeathSkySwirl&#45;&gt;main.SetGeomOffset -->
<g id="edge8" class="edge">
<title>no3.EntityDeathSkySwirl&#45;&gt;main.SetGeomOffset</title>
<path fill="none" stroke="black" d="M2093.94,-185.3C2109.53,-183.43 2125.57,-181.59 2140.69,-180 2799.1,-110.65 3592.35,-48.39 3874.13,-26.93"/>
<polygon fill="black" stroke="black" points="3874.64,-30.4 3884.34,-26.16 3874.1,-23.42 3874.64,-30.4"/>
<text text-anchor="middle" x="2088.94" y="-174.1" font-family="Times,serif" font-size="14.00">1</text>
</g>
<!-- no3.EntityShuttingWindow -->
<g id="node10" class="node">
<title>no3.EntityShuttingWindow</title>
<g id="a_node10"><a xlink:href="no3.EntityShuttingWindow.svg" xlink:title="no3.EntityShuttingWindow">
<ellipse fill="green" stroke="black" cx="2286.69" cy="-198" rx="137.28" ry="18"/>
<text text-anchor="middle" x="2286.69" y="-194.3" font-family="Times,serif" font-size="14.00">no3.EntityShuttingWindow</text>
</a>
</g>
</g>
<!-- no3.EntityShuttingWindow&#45;&gt;main.SetGeomOffset -->
<g id="edge9" class="edge">
<title>no3.EntityShuttingWindow&#45;&gt;main.SetGeomOffset</title>
<path fill="none" stroke="black" d="M2384.84,-185.4C2400.83,-183.56 2417.22,-181.71 2432.69,-180 2979.03,-119.77 3634.61,-53.53 3880.3,-28.92"/>
<polygon fill="black" stroke="black" points="3880.68,-32.4 3890.28,-27.92 3879.98,-25.43 3880.68,-32.4"/>
<text text-anchor="middle" x="2379.84" y="-174.2" font-family="Times,serif" font-size="14.00">1</text>
</g>
<!-- no3.EntityUnkId1C -->
<g id="node11" class="node">
<title>no3.EntityUnkId1C</title>
<g id="a_node11"><a xlink:href="no3.EntityUnkId1C.svg" xlink:title="no3.EntityUnkId1C">
<ellipse fill="green" stroke="black" cx="2542.69" cy="-198" rx="100.98" ry="18"/>
<text text-anchor="middle" x="2542.69" y="-194.3" font-family="Times,serif" font-size="14.00">no3.EntityUnkId1C</text>
</a>
</g>
</g>
<!-- no3.EntityUnkId1C&#45;&gt;main.SetGeomOffset -->
<g id="edge10" class="edge">
<title>no3.EntityUnkId1C&#45;&gt;main.SetGeomOffset</title>
<path fill="none" stroke="black" d="M2615.12,-185.46C2627.64,-183.57 2640.54,-181.68 2652.69,-180 3112.37,-116.61 3663.52,-54.02 3882.82,-29.66"/>
<polygon fill="black" stroke="black" points="3883.46,-33.11 3893.01,-28.53 3882.68,-26.15 3883.46,-33.11"/>
<text text-anchor="middle" x="2610.12" y="-174.26" font-family="Times,serif" font-size="14.00">1</text>
</g>
<!-- no3.UnkPrimHelper -->
<g id="node12" class="node">
<title>no3.UnkPrimHelper</title>
<g id="a_node12"><a xlink:href="no3.UnkPrimHelper.svg" xlink:title="no3.UnkPrimHelper">
<ellipse fill="green" stroke="black" cx="2765.69" cy="-198" rx="103.98" ry="18"/>
<text text-anchor="middle" x="2765.69" y="-194.3" font-family="Times,serif" font-size="14.00">no3.UnkPrimHelper</text>
</a>
</g>
</g>
<!-- no3.UnkPrimHelper&#45;&gt;main.SetGeomOffset -->
<g id="edge11" class="edge">
<title>no3.UnkPrimHelper&#45;&gt;main.SetGeomOffset</title>
<path fill="none" stroke="black" d="M2841.36,-185.57C2853.83,-183.7 2866.62,-181.79 2878.69,-180 3255.37,-124.13 3704.76,-58.84 3891.54,-31.76"/>
<polygon fill="black" stroke="black" points="3892.19,-35.21 3901.58,-30.31 3891.18,-28.28 3892.19,-35.21"/>
<text text-anchor="middle" x="2836.36" y="-174.37" font-family="Times,serif" font-size="14.00">1</text>
</g>
<!-- np3.EntityCastleDoor -->
<g id="node13" class="node">
<title>np3.EntityCastleDoor</title>
<g id="a_node13"><a xlink:href="np3.EntityCastleDoor.svg" xlink:title="np3.EntityCastleDoor">
<ellipse fill="green" stroke="black" cx="2999.69" cy="-198" rx="111.58" ry="18"/>
<text text-anchor="middle" x="2999.69" y="-194.3" font-family="Times,serif" font-size="14.00">np3.EntityCastleDoor</text>
</a>
</g>
</g>
<!-- np3.EntityCastleDoor&#45;&gt;main.SetGeomOffset -->
<g id="edge12" class="edge">
<title>np3.EntityCastleDoor&#45;&gt;main.SetGeomOffset</title>
<path fill="none" stroke="black" d="M3070.96,-184.06C3249.15,-151.69 3713.1,-67.42 3899.97,-33.48"/>
<polygon fill="black" stroke="black" points="3900.79,-36.89 3910,-31.66 3899.54,-30 3900.79,-36.89"/>
<text text-anchor="middle" x="3065.96" y="-172.86" font-family="Times,serif" font-size="14.00">1</text>
</g>
<!-- np3.EntityShuttingWindow -->
<g id="node14" class="node">
<title>np3.EntityShuttingWindow</title>
<g id="a_node14"><a xlink:href="np3.EntityShuttingWindow.svg" xlink:title="np3.EntityShuttingWindow">
<ellipse fill="green" stroke="black" cx="3267.69" cy="-198" rx="137.58" ry="18"/>
<text text-anchor="middle" x="3267.69" y="-194.3" font-family="Times,serif" font-size="14.00">np3.EntityShuttingWindow</text>
</a>
</g>
</g>
<!-- np3.EntityShuttingWindow&#45;&gt;main.SetGeomOffset -->
<g id="edge13" class="edge">
<title>np3.EntityShuttingWindow&#45;&gt;main.SetGeomOffset</title>
<path fill="none" stroke="black" d="M3328.4,-181.82C3460.78,-148.73 3774.59,-70.27 3912.6,-35.77"/>
<polygon fill="black" stroke="black" points="3913.77,-39.09 3922.62,-33.27 3912.07,-32.3 3913.77,-39.09"/>
<text text-anchor="middle" x="3323.4" y="-170.62" font-family="Times,serif" font-size="14.00">1</text>
</g>
<!-- np3.UnkPrimHelper -->
<g id="node15" class="node">
<title>np3.UnkPrimHelper</title>
<g id="a_node15"><a xlink:href="np3.UnkPrimHelper.svg" xlink:title="np3.UnkPrimHelper">
<ellipse fill="green" stroke="black" cx="3527.69" cy="-198" rx="104.78" ry="18"/>
<text text-anchor="middle" x="3527.69" y="-194.3" font-family="Times,serif" font-size="14.00">np3.UnkPrimHelper</text>
</a>
</g>
</g>
<!-- np3.UnkPrimHelper&#45;&gt;main.SetGeomOffset -->
<g id="edge14" class="edge">
<title>np3.UnkPrimHelper&#45;&gt;main.SetGeomOffset</title>
<path fill="none" stroke="black" d="M3567.8,-181.2C3650.56,-148.61 3840.03,-74 3930.22,-38.48"/>
<polygon fill="black" stroke="black" points="3931.65,-41.68 3939.67,-34.76 3929.08,-35.17 3931.65,-41.68"/>
<text text-anchor="middle" x="3562.8" y="-170" font-family="Times,serif" font-size="14.00">1</text>
</g>
<!-- np3.func_801B32A8 -->
<g id="node16" class="node">
<title>np3.func_801B32A8</title>
<g id="a_node16"><a xlink:href="np3.func_801B32A8.svg" xlink:title="np3.func_801B32A8">
<ellipse fill="green" stroke="black" cx="3754.69" cy="-198" rx="103.98" ry="18"/>
<text text-anchor="middle" x="3754.69" y="-194.3" font-family="Times,serif" font-size="14.00">np3.func_801B32A8</text>
</a>
</g>
</g>
<!-- np3.func_801B32A8&#45;&gt;main.SetGeomOffset -->
<g id="edge15" class="edge">
<title>np3.func_801B32A8&#45;&gt;main.SetGeomOffset</title>
<path fill="none" stroke="black" d="M3775.86,-180.25C3816.23,-148.32 3904.3,-78.65 3950.33,-42.23"/>
<polygon fill="black" stroke="black" points="3952.74,-44.78 3958.42,-35.83 3948.4,-39.29 3952.74,-44.78"/>
<text text-anchor="middle" x="3770.86" y="-169.05" font-family="Times,serif" font-size="14.00">1</text>
</g>
<!-- np3.func_801B3704 -->
<g id="node17" class="node">
<title>np3.func_801B3704</title>
<g id="a_node17"><a xlink:href="np3.func_801B3704.svg" xlink:title="np3.func_801B3704">
<ellipse fill="green" stroke="black" cx="3979.69" cy="-198" rx="103.18" ry="18"/>
<text text-anchor="middle" x="3979.69" y="-194.3" font-family="Times,serif" font-size="14.00">np3.func_801B3704</text>
</a>
</g>
</g>
<!-- np3.func_801B3704&#45;&gt;main.SetGeomOffset -->
<g id="edge16" class="edge">
<title>np3.func_801B3704&#45;&gt;main.SetGeomOffset</title>
<path fill="none" stroke="black" d="M3979.69,-179.93C3979.69,-148.97 3979.69,-83.3 3979.69,-46.13"/>
<polygon fill="black" stroke="black" points="3983.19,-46.02 3979.69,-36.02 3976.19,-46.02 3983.19,-46.02"/>
<text text-anchor="middle" x="3974.69" y="-168.73" font-family="Times,serif" font-size="14.00">1</text>
</g>
<!-- nz0.EntityLifeUpSpawn -->
<g id="node18" class="node">
<title>nz0.EntityLifeUpSpawn</title>
<g id="a_node18"><a xlink:href="nz0.EntityLifeUpSpawn.svg" xlink:title="nz0.EntityLifeUpSpawn">
<ellipse fill="green" stroke="black" cx="4222.69" cy="-198" rx="121.58" ry="18"/>
<text text-anchor="middle" x="4222.69" y="-194.3" font-family="Times,serif" font-size="14.00">nz0.EntityLifeUpSpawn</text>
</a>
</g>
</g>
<!-- nz0.EntityLifeUpSpawn&#45;&gt;main.SetGeomOffset -->
<g id="edge17" class="edge">
<title>nz0.EntityLifeUpSpawn&#45;&gt;main.SetGeomOffset</title>
<path fill="none" stroke="black" d="M4199.83,-180.25C4156.05,-148.18 4060.33,-78.07 4010.78,-41.78"/>
<polygon fill="black" stroke="black" points="4012.8,-38.92 4002.67,-35.83 4008.67,-44.56 4012.8,-38.92"/>
<text text-anchor="middle" x="4194.83" y="-169.05" font-family="Times,serif" font-size="14.00">1</text>
</g>
<!-- nz0.UnkPrimHelper -->
<g id="node19" class="node">
<title>nz0.UnkPrimHelper</title>
<g id="a_node19"><a xlink:href="nz0.UnkPrimHelper.svg" xlink:title="nz0.UnkPrimHelper">
<ellipse fill="green" stroke="black" cx="4465.69" cy="-198" rx="103.18" ry="18"/>
<text text-anchor="middle" x="4465.69" y="-194.3" font-family="Times,serif" font-size="14.00">nz0.UnkPrimHelper</text>
</a>
</g>
</g>
<!-- nz0.UnkPrimHelper&#45;&gt;main.SetGeomOffset -->
<g id="edge18" class="edge">
<title>nz0.UnkPrimHelper&#45;&gt;main.SetGeomOffset</title>
<path fill="none" stroke="black" d="M4423.41,-181.52C4334.55,-148.97 4128.64,-73.55 4031.8,-38.09"/>
<polygon fill="black" stroke="black" points="4032.81,-34.73 4022.22,-34.58 4030.4,-41.3 4032.81,-34.73"/>
<text text-anchor="middle" x="4418.41" y="-170.32" font-family="Times,serif" font-size="14.00">1</text>
</g>
<!-- ric.RicEntityGiantSpinningCross -->
<g id="node20" class="node">
<title>ric.RicEntityGiantSpinningCross</title>
<g id="a_node20"><a xlink:href="ric.RicEntityGiantSpinningCross.svg" xlink:title="ric.RicEntityGiantSpinningCross">
<ellipse fill="green" stroke="black" cx="4749.69" cy="-198" rx="162.47" ry="18"/>
<text text-anchor="middle" x="4749.69" y="-194.3" font-family="Times,serif" font-size="14.00">ric.RicEntityGiantSpinningCross</text>
</a>
</g>
</g>
<!-- ric.RicEntityGiantSpinningCross&#45;&gt;main.SetGeomOffset -->
<g id="edge19" class="edge">
<title>ric.RicEntityGiantSpinningCross&#45;&gt;main.SetGeomOffset</title>
<path fill="none" stroke="black" d="M4682.71,-181.52C4537.94,-148.05 4197.09,-69.26 4049.67,-35.18"/>
<polygon fill="black" stroke="black" points="4050.35,-31.74 4039.82,-32.9 4048.77,-38.56 4050.35,-31.74"/>
<text text-anchor="middle" x="4677.71" y="-170.32" font-family="Times,serif" font-size="14.00">1</text>
</g>
<!-- rwrp.UnkPrimHelper -->
<g id="node21" class="node">
<title>rwrp.UnkPrimHelper</title>
<g id="a_node21"><a xlink:href="rwrp.UnkPrimHelper.svg" xlink:title="rwrp.UnkPrimHelper">
<ellipse fill="green" stroke="black" cx="5039.69" cy="-198" rx="109.38" ry="18"/>
<text text-anchor="middle" x="5039.69" y="-194.3" font-family="Times,serif" font-size="14.00">rwrp.UnkPrimHelper</text>
</a>
</g>
</g>
<!-- rwrp.UnkPrimHelper&#45;&gt;main.SetGeomOffset -->
<g id="edge20" class="edge">
<title>rwrp.UnkPrimHelper&#45;&gt;main.SetGeomOffset</title>
<path fill="none" stroke="black" d="M4966,-184.62C4774.73,-152.51 4263.44,-66.65 4062.46,-32.9"/>
<polygon fill="black" stroke="black" points="4062.99,-29.44 4052.55,-31.23 4061.83,-36.34 4062.99,-29.44"/>
<text text-anchor="middle" x="4961" y="-173.42" font-family="Times,serif" font-size="14.00">1</text>
</g>
<!-- st0.EntityBackgroundVortex -->
<g id="node22" class="node">
<title>st0.EntityBackgroundVortex</title>
<g id="a_node22"><a xlink:href="st0.EntityBackgroundVortex.svg" xlink:title="st0.EntityBackgroundVortex">
<ellipse fill="red" stroke="black" cx="5309.69" cy="-198" rx="142.97" ry="18"/>
<text text-anchor="middle" x="5309.69" y="-194.3" font-family="Times,serif" font-size="14.00">st0.EntityBackgroundVortex</text>
</a>
</g>
</g>
<!-- st0.EntityBackgroundVortex&#45;&gt;main.SetGeomOffset -->
<g id="edge21" class="edge">
<title>st0.EntityBackgroundVortex&#45;&gt;main.SetGeomOffset</title>
<path fill="none" stroke="black" d="M5215.64,-184.41C4970.22,-151.57 4312.72,-63.57 4070.72,-31.18"/>
<polygon fill="black" stroke="black" points="4070.93,-27.68 4060.55,-29.82 4070,-34.62 4070.93,-27.68"/>
<text text-anchor="middle" x="5210.64" y="-173.21" font-family="Times,serif" font-size="14.00">1</text>
</g>
<!-- st0.EntityClockTower3D -->
<g id="node23" class="node">
<title>st0.EntityClockTower3D</title>
<g id="a_node23"><a xlink:href="st0.EntityClockTower3D.svg" xlink:title="st0.EntityClockTower3D">
<ellipse fill="red" stroke="black" cx="5594.69" cy="-198" rx="124.28" ry="18"/>
<text text-anchor="middle" x="5594.69" y="-194.3" font-family="Times,serif" font-size="14.00">st0.EntityClockTower3D</text>
</a>
</g>
</g>
<!-- st0.EntityClockTower3D&#45;&gt;main.SetGeomOffset -->
<g id="edge22" class="edge">
<title>st0.EntityClockTower3D&#45;&gt;main.SetGeomOffset</title>
<path fill="none" stroke="black" d="M5505.65,-185.38C5490.97,-183.53 5475.91,-181.68 5461.69,-180 4941,-118.45 4316.3,-53.49 4078.3,-29.06"/>
<polygon fill="black" stroke="black" points="4078.59,-25.57 4068.29,-28.03 4077.88,-32.54 4078.59,-25.57"/>
<text text-anchor="middle" x="5500.65" y="-174.18" font-family="Times,serif" font-size="14.00">1</text>
</g>
<!-- st0.EntityClouds -->
<g id="node24" class="node">
<title>st0.EntityClouds</title>
<g id="a_node24"><a xlink:href="st0.EntityClouds.svg" xlink:title="st0.EntityClouds">
<ellipse fill="red" stroke="black" cx="5825.69" cy="-198" rx="89.08" ry="18"/>
<text text-anchor="middle" x="5825.69" y="-194.3" font-family="Times,serif" font-size="14.00">st0.EntityClouds</text>
</a>
</g>
</g>
<!-- st0.EntityClouds&#45;&gt;main.SetGeomOffset -->
<g id="edge23" class="edge">
<title>st0.EntityClouds&#45;&gt;main.SetGeomOffset</title>
<path fill="none" stroke="black" d="M5762.54,-185.28C5750.98,-183.35 5738.99,-181.5 5727.69,-180 5109.51,-98.05 4362.8,-44.24 4087.96,-25.95"/>
<polygon fill="black" stroke="black" points="4087.81,-22.43 4077.6,-25.26 4087.34,-29.42 4087.81,-22.43"/>
<text text-anchor="middle" x="5757.54" y="-174.08" font-family="Times,serif" font-size="14.00">1</text>
</g>
<!-- st0.EntityCutscenePhotograph -->
<g id="node25" class="node">
<title>st0.EntityCutscenePhotograph</title>
<g id="a_node25"><a xlink:href="st0.EntityCutscenePhotograph.svg" xlink:title="st0.EntityCutscenePhotograph">
<ellipse fill="red" stroke="black" cx="6086.69" cy="-198" rx="154.07" ry="18"/>
<text text-anchor="middle" x="6086.69" y="-194.3" font-family="Times,serif" font-size="14.00">st0.EntityCutscenePhotograph</text>
</a>
</g>
</g>
<!-- st0.EntityCutscenePhotograph&#45;&gt;main.SetGeomOffset -->
<g id="edge24" class="edge">
<title>st0.EntityCutscenePhotograph&#45;&gt;main.SetGeomOffset</title>
<path fill="none" stroke="black" d="M5977.56,-185.29C5959.57,-183.46 5941.11,-181.63 5923.69,-180 5222.24,-114.38 4377.07,-49.09 4084.98,-26.93"/>
<polygon fill="black" stroke="black" points="4085.06,-23.42 4074.83,-26.16 4084.53,-30.4 4085.06,-23.42"/>
<text text-anchor="middle" x="5972.56" y="-174.09" font-family="Times,serif" font-size="14.00">1</text>
</g>
<!-- st0.UnkPrimHelper -->
<g id="node26" class="node">
<title>st0.UnkPrimHelper</title>
<g id="a_node26"><a xlink:href="st0.UnkPrimHelper.svg" xlink:title="st0.UnkPrimHelper">
<ellipse fill="green" stroke="black" cx="6359.69" cy="-198" rx="101.28" ry="18"/>
<text text-anchor="middle" x="6359.69" y="-194.3" font-family="Times,serif" font-size="14.00">st0.UnkPrimHelper</text>
</a>
</g>
</g>
<!-- st0.UnkPrimHelper&#45;&gt;main.SetGeomOffset -->
<g id="edge25" class="edge">
<title>st0.UnkPrimHelper&#45;&gt;main.SetGeomOffset</title>
<path fill="none" stroke="black" d="M6288.5,-185.12C6275.61,-183.22 6262.27,-181.42 6249.69,-180 5423.95,-87.07 4422.83,-38.17 4091.85,-23.67"/>
<polygon fill="black" stroke="black" points="4091.92,-20.17 4081.78,-23.23 4091.62,-27.17 4091.92,-20.17"/>
<text text-anchor="middle" x="6283.5" y="-173.92" font-family="Times,serif" font-size="14.00">1</text>
</g>
<!-- st0.func_801BC5C0 -->
<g id="node27" class="node">
<title>st0.func_801BC5C0</title>
<g id="a_node27"><a xlink:href="st0.func_801BC5C0.svg" xlink:title="st0.func_801BC5C0">
<ellipse fill="red" stroke="black" cx="6581.69" cy="-198" rx="102.88" ry="18"/>
<text text-anchor="middle" x="6581.69" y="-194.3" font-family="Times,serif" font-size="14.00">st0.func_801BC5C0</text>
</a>
</g>
</g>
<!-- st0.func_801BC5C0&#45;&gt;main.SetGeomOffset -->
<g id="edge26" class="edge">
<title>st0.func_801BC5C0&#45;&gt;main.SetGeomOffset</title>
<path fill="none" stroke="black" d="M6509.51,-185.11C6496.29,-183.2 6482.6,-181.39 6469.69,-180 5555.95,-81.3 4446.56,-35.62 4093.37,-22.86"/>
<polygon fill="black" stroke="black" points="4093.26,-19.36 4083.14,-22.5 4093.01,-26.35 4093.26,-19.36"/>
<text text-anchor="middle" x="6504.51" y="-173.91" font-family="Times,serif" font-size="14.00">2</text>
</g>
<!-- st0.func_801BD8F0 -->
<g id="node28" class="node">
<title>st0.func_801BD8F0</title>
<g id="a_node28"><a xlink:href="st0.func_801BD8F0.svg" xlink:title="st0.func_801BD8F0">
<ellipse fill="red" stroke="black" cx="6804.69" cy="-198" rx="102.88" ry="18"/>
<text text-anchor="middle" x="6804.69" y="-194.3" font-family="Times,serif" font-size="14.00">st0.func_801BD8F0</text>
</a>
</g>
</g>
<!-- st0.func_801BD8F0&#45;&gt;main.SetGeomOffset -->
<g id="edge27" class="edge">
<title>st0.func_801BD8F0&#45;&gt;main.SetGeomOffset</title>
<path fill="none" stroke="black" d="M6733.16,-185.05C6720.06,-183.14 6706.49,-181.36 6693.69,-180 5689.57,-73.56 4468.44,-32.58 4094.16,-21.99"/>
<polygon fill="black" stroke="black" points="4094.23,-18.49 4084.13,-21.71 4094.03,-25.49 4094.23,-18.49"/>
<text text-anchor="middle" x="6728.16" y="-173.85" font-family="Times,serif" font-size="14.00">1</text>
</g>
<!-- w_017.EntityWeaponAttack -->
<g id="node29" class="node">
<title>w_017.EntityWeaponAttack</title>
<g id="a_node29"><a xlink:href="w_017.EntityWeaponAttack.svg" xlink:title="w_017.EntityWeaponAttack">
<ellipse fill="red" stroke="black" cx="7063.69" cy="-198" rx="138.38" ry="18"/>
<text text-anchor="middle" x="7063.69" y="-194.3" font-family="Times,serif" font-size="14.00">w_017.EntityWeaponAttack</text>
</a>
</g>
</g>
<!-- w_017.EntityWeaponAttack&#45;&gt;main.SetGeomOffset -->
<g id="edge28" class="edge">
<title>w_017.EntityWeaponAttack&#45;&gt;main.SetGeomOffset</title>
<path fill="none" stroke="black" d="M6967.31,-185.01C6950.45,-183.16 6933.07,-181.4 6916.69,-180 5819.1,-86.54 4485.9,-36.27 4093.46,-22.76"/>
<polygon fill="black" stroke="black" points="4093.36,-19.26 4083.25,-22.41 4093.12,-26.25 4093.36,-19.26"/>
<text text-anchor="middle" x="6962.31" y="-173.81" font-family="Times,serif" font-size="14.00">1</text>
</g>
<!-- w_023.func_ptr_80170024 -->
<g id="node30" class="node">
<title>w_023.func_ptr_80170024</title>
<g id="a_node30"><a xlink:href="w_023.func_ptr_80170024.svg" xlink:title="w_023.func_ptr_80170024">
<ellipse fill="green" stroke="black" cx="7353.69" cy="-198" rx="133.48" ry="18"/>
<text text-anchor="middle" x="7353.69" y="-194.3" font-family="Times,serif" font-size="14.00">w_023.func_ptr_80170024</text>
</a>
</g>
</g>
<!-- w_023.func_ptr_80170024&#45;&gt;main.SetGeomOffset -->
<g id="edge29" class="edge">
<title>w_023.func_ptr_80170024&#45;&gt;main.SetGeomOffset</title>
<path fill="none" stroke="black" d="M7261.09,-185.05C7244.34,-183.16 7227.01,-181.37 7210.69,-180 5993.84,-77.47 4513.27,-32.97 4094.75,-21.88"/>
<polygon fill="black" stroke="black" points="4094.56,-18.37 4084.47,-21.61 4094.37,-25.37 4094.56,-18.37"/>
<text text-anchor="middle" x="7256.09" y="-173.85" font-family="Times,serif" font-size="14.00">1</text>
</g>
<!-- w_026.func_ptr_80170024 -->
<g id="node31" class="node">
<title>w_026.func_ptr_80170024</title>
<g id="a_node31"><a xlink:href="w_026.func_ptr_80170024.svg" xlink:title="w_026.func_ptr_80170024">
<ellipse fill="green" stroke="black" cx="7637.69" cy="-198" rx="133.48" ry="18"/>
<text text-anchor="middle" x="7637.69" y="-194.3" font-family="Times,serif" font-size="14.00">w_026.func_ptr_80170024</text>
</a>
</g>
</g>
<!-- w_026.func_ptr_80170024&#45;&gt;main.SetGeomOffset -->
<g id="edge30" class="edge">
<title>w_026.func_ptr_80170024&#45;&gt;main.SetGeomOffset</title>
<path fill="none" stroke="black" d="M7545.37,-184.95C7528.85,-183.08 7511.77,-181.33 7495.69,-180 6161.87,-69.77 4536.7,-30.31 4095.07,-21.21"/>
<polygon fill="black" stroke="black" points="4094.93,-17.7 4084.86,-21 4094.78,-24.7 4094.93,-17.7"/>
<text text-anchor="middle" x="7540.37" y="-173.75" font-family="Times,serif" font-size="14.00">1</text>
</g>
<!-- wrp.UnkPrimHelper -->
<g id="node32" class="node">
<title>wrp.UnkPrimHelper</title>
<g id="a_node32"><a xlink:href="wrp.UnkPrimHelper.svg" xlink:title="wrp.UnkPrimHelper">
<ellipse fill="green" stroke="black" cx="7893.69" cy="-198" rx="104.78" ry="18"/>
<text text-anchor="middle" x="7893.69" y="-194.3" font-family="Times,serif" font-size="14.00">wrp.UnkPrimHelper</text>
</a>
</g>
</g>
<!-- wrp.UnkPrimHelper&#45;&gt;main.SetGeomOffset -->
<g id="edge31" class="edge">
<title>wrp.UnkPrimHelper&#45;&gt;main.SetGeomOffset</title>
<path fill="none" stroke="black" d="M7821.16,-185.01C7807.42,-183.07 7793.14,-181.28 7779.69,-180 6331.53,-41.73 4561.56,-22.21 4096.22,-19.45"/>
<polygon fill="black" stroke="black" points="4096.15,-15.95 4086.13,-19.39 4096.11,-22.95 4096.15,-15.95"/>
<text text-anchor="middle" x="7816.16" y="-173.81" font-family="Times,serif" font-size="14.00">1</text>
</g>
</g>
</svg>
