<?xml version="1.0" encoding="UTF-8" standalone="no"?>
<!DOCTYPE svg PUBLIC "-//W3C//DTD SVG 1.1//EN"
 "http://www.w3.org/Graphics/SVG/1.1/DTD/svg11.dtd">
<!-- Generated by graphviz version 2.43.0 (0)
 -->
<!-- Title: mar.CutsceneUnk1 Pages: 1 -->
<svg width="522pt" height="224pt"
 viewBox="0.00 0.00 522.28 224.00" xmlns="http://www.w3.org/2000/svg" xmlns:xlink="http://www.w3.org/1999/xlink">
<g id="graph0" class="graph" transform="scale(1 1) rotate(0) translate(4 220)">
<title>mar.CutsceneUnk1</title>
<polygon fill="white" stroke="transparent" points="-4,4 -4,-220 518.28,-220 518.28,4 -4,4"/>
<!-- mar.CutsceneUnk1 -->
<g id="node1" class="node">
<title>mar.CutsceneUnk1</title>
<ellipse fill="green" stroke="black" cx="262.99" cy="-18" rx="98.58" ry="18"/>
<text text-anchor="middle" x="262.99" y="-14.3" font-family="Times,serif" font-size="14.00">mar.CutsceneUnk1</text>
</g>
<!-- mar.EntityMariaCutscene -->
<g id="node2" class="node">
<title>mar.EntityMariaCutscene</title>
<g id="a_node2"><a xlink:href="mar.EntityMariaCutscene.svg" xlink:title="mar.EntityMariaCutscene">
<ellipse fill="green" stroke="black" cx="129.99" cy="-198" rx="129.98" ry="18"/>
<text text-anchor="middle" x="129.99" y="-194.3" font-family="Times,serif" font-size="14.00">mar.EntityMariaCutscene</text>
</a>
</g>
</g>
<!-- mar.EntityMariaCutscene&#45;&gt;mar.CutsceneUnk1 -->
<g id="edge1" class="edge">
<title>mar.EntityMariaCutscene&#45;&gt;mar.CutsceneUnk1</title>
<path fill="none" stroke="black" d="M142.74,-179.93C166.28,-148.43 216.64,-81.03 244.13,-44.24"/>
<polygon fill="black" stroke="black" points="247.09,-46.12 250.27,-36.02 241.49,-41.93 247.09,-46.12"/>
<text text-anchor="middle" x="137.74" y="-168.73" font-family="Times,serif" font-size="14.00">1</text>
</g>
<!-- mar.SetCutsceneScript -->
<g id="node3" class="node">
<title>mar.SetCutsceneScript</title>
<g id="a_node3"><a xlink:href="mar.SetCutsceneScript.svg" xlink:title="mar.SetCutsceneScript">
<ellipse fill="green" stroke="black" cx="395.99" cy="-198" rx="118.08" ry="18"/>
<text text-anchor="middle" x="395.99" y="-194.3" font-family="Times,serif" font-size="14.00">mar.SetCutsceneScript</text>
</a>
</g>
</g>
<!-- mar.SetCutsceneScript&#45;&gt;mar.CutsceneUnk1 -->
<g id="edge2" class="edge">
<title>mar.SetCutsceneScript&#45;&gt;mar.CutsceneUnk1</title>
<path fill="none" stroke="black" d="M383.24,-179.93C359.7,-148.43 309.34,-81.03 281.85,-44.24"/>
<polygon fill="black" stroke="black" points="284.49,-41.93 275.7,-36.02 278.88,-46.12 284.49,-41.93"/>
<text text-anchor="middle" x="378.24" y="-168.73" font-family="Times,serif" font-size="14.00">1</text>
</g>
</g>
</svg>
