<?xml version="1.0" encoding="UTF-8" standalone="no"?>
<!DOCTYPE svg PUBLIC "-//W3C//DTD SVG 1.1//EN"
 "http://www.w3.org/Graphics/SVG/1.1/DTD/svg11.dtd">
<!-- Generated by graphviz version 2.43.0 (0)
 -->
<!-- Title: mar.AnimateEntity Pages: 1 -->
<svg width="2632pt" height="224pt"
 viewBox="0.00 0.00 2631.93 224.00" xmlns="http://www.w3.org/2000/svg" xmlns:xlink="http://www.w3.org/1999/xlink">
<g id="graph0" class="graph" transform="scale(1 1) rotate(0) translate(4 220)">
<title>mar.AnimateEntity</title>
<polygon fill="white" stroke="transparent" points="-4,4 -4,-220 2627.93,-220 2627.93,4 -4,4"/>
<!-- mar.AnimateEntity -->
<g id="node1" class="node">
<title>mar.AnimateEntity</title>
<ellipse fill="green" stroke="black" cx="1249.99" cy="-18" rx="98.58" ry="18"/>
<text text-anchor="middle" x="1249.99" y="-14.3" font-family="Times,serif" font-size="14.00">mar.AnimateEntity</text>
</g>
<!-- mar.EntityBigRedFireball -->
<g id="node2" class="node">
<title>mar.EntityBigRedFireball</title>
<g id="a_node2"><a xlink:href="mar.EntityBigRedFireball.svg" xlink:title="mar.EntityBigRedFireball">
<ellipse fill="green" stroke="black" cx="129.99" cy="-198" rx="129.98" ry="18"/>
<text text-anchor="middle" x="129.99" y="-194.3" font-family="Times,serif" font-size="14.00">mar.EntityBigRedFireball</text>
</a>
</g>
</g>
<!-- mar.EntityBigRedFireball&#45;&gt;mar.AnimateEntity -->
<g id="edge1" class="edge">
<title>mar.EntityBigRedFireball&#45;&gt;mar.AnimateEntity</title>
<path fill="none" stroke="black" d="M211.89,-183.98C418.91,-151.08 961.34,-64.87 1168.22,-32"/>
<polygon fill="black" stroke="black" points="1168.78,-35.45 1178.11,-30.42 1167.68,-28.54 1168.78,-35.45"/>
<text text-anchor="middle" x="206.89" y="-172.78" font-family="Times,serif" font-size="14.00">1</text>
</g>
<!-- mar.EntityBreakable -->
<g id="node3" class="node">
<title>mar.EntityBreakable</title>
<g id="a_node3"><a xlink:href="mar.EntityBreakable.svg" xlink:title="mar.EntityBreakable">
<ellipse fill="green" stroke="black" cx="384.99" cy="-198" rx="106.68" ry="18"/>
<text text-anchor="middle" x="384.99" y="-194.3" font-family="Times,serif" font-size="14.00">mar.EntityBreakable</text>
</a>
</g>
</g>
<!-- mar.EntityBreakable&#45;&gt;mar.AnimateEntity -->
<g id="edge2" class="edge">
<title>mar.EntityBreakable&#45;&gt;mar.AnimateEntity</title>
<path fill="none" stroke="black" d="M450,-183.62C607.98,-151.11 1011.2,-68.14 1177.05,-34.01"/>
<polygon fill="black" stroke="black" points="1178.06,-37.37 1187.15,-31.93 1176.65,-30.52 1178.06,-37.37"/>
<text text-anchor="middle" x="445" y="-172.42" font-family="Times,serif" font-size="14.00">1</text>
</g>
<!-- mar.EntityExplosion -->
<g id="node4" class="node">
<title>mar.EntityExplosion</title>
<g id="a_node4"><a xlink:href="mar.EntityExplosion.svg" xlink:title="mar.EntityExplosion">
<ellipse fill="green" stroke="black" cx="614.99" cy="-198" rx="105.08" ry="18"/>
<text text-anchor="middle" x="614.99" y="-194.3" font-family="Times,serif" font-size="14.00">mar.EntityExplosion</text>
</a>
</g>
</g>
<!-- mar.EntityExplosion&#45;&gt;mar.AnimateEntity -->
<g id="edge3" class="edge">
<title>mar.EntityExplosion&#45;&gt;mar.AnimateEntity</title>
<path fill="none" stroke="black" d="M667.22,-182.36C783.63,-149.73 1063.88,-71.17 1188.48,-36.24"/>
<polygon fill="black" stroke="black" points="1189.57,-39.57 1198.25,-33.5 1187.68,-32.83 1189.57,-39.57"/>
<text text-anchor="middle" x="662.22" y="-171.16" font-family="Times,serif" font-size="14.00">1</text>
</g>
<!-- mar.EntityPrizeDrop -->
<g id="node5" class="node">
<title>mar.EntityPrizeDrop</title>
<g id="a_node5"><a xlink:href="mar.EntityPrizeDrop.svg" xlink:title="mar.EntityPrizeDrop">
<ellipse fill="green" stroke="black" cx="844.99" cy="-198" rx="106.68" ry="18"/>
<text text-anchor="middle" x="844.99" y="-194.3" font-family="Times,serif" font-size="14.00">mar.EntityPrizeDrop</text>
</a>
</g>
</g>
<!-- mar.EntityPrizeDrop&#45;&gt;mar.AnimateEntity -->
<g id="edge4" class="edge">
<title>mar.EntityPrizeDrop&#45;&gt;mar.AnimateEntity</title>
<path fill="none" stroke="black" d="M881.29,-181.05C955.26,-148.53 1123.32,-74.67 1204.46,-39.01"/>
<polygon fill="black" stroke="black" points="1206.17,-42.08 1213.92,-34.85 1203.35,-35.67 1206.17,-42.08"/>
<text text-anchor="middle" x="876.29" y="-169.85" font-family="Times,serif" font-size="14.00">1</text>
</g>
<!-- mar.EntityRoomForeground -->
<g id="node6" class="node">
<title>mar.EntityRoomForeground</title>
<g id="a_node6"><a xlink:href="mar.EntityRoomForeground.svg" xlink:title="mar.EntityRoomForeground">
<ellipse fill="green" stroke="black" cx="1109.99" cy="-198" rx="140.28" ry="18"/>
<text text-anchor="middle" x="1109.99" y="-194.3" font-family="Times,serif" font-size="14.00">mar.EntityRoomForeground</text>
</a>
</g>
</g>
<!-- mar.EntityRoomForeground&#45;&gt;mar.AnimateEntity -->
<g id="edge5" class="edge">
<title>mar.EntityRoomForeground&#45;&gt;mar.AnimateEntity</title>
<path fill="none" stroke="black" d="M1123.41,-179.93C1148.19,-148.43 1201.2,-81.03 1230.14,-44.24"/>
<polygon fill="black" stroke="black" points="1233.17,-46.04 1236.61,-36.02 1227.67,-41.71 1233.17,-46.04"/>
<text text-anchor="middle" x="1118.41" y="-168.73" font-family="Times,serif" font-size="14.00">1</text>
</g>
<!-- mar.EntitySoulStealOrb -->
<g id="node7" class="node">
<title>mar.EntitySoulStealOrb</title>
<g id="a_node7"><a xlink:href="mar.EntitySoulStealOrb.svg" xlink:title="mar.EntitySoulStealOrb">
<ellipse fill="green" stroke="black" cx="1390.99" cy="-198" rx="122.38" ry="18"/>
<text text-anchor="middle" x="1390.99" y="-194.3" font-family="Times,serif" font-size="14.00">mar.EntitySoulStealOrb</text>
</a>
</g>
</g>
<!-- mar.EntitySoulStealOrb&#45;&gt;mar.AnimateEntity -->
<g id="edge6" class="edge">
<title>mar.EntitySoulStealOrb&#45;&gt;mar.AnimateEntity</title>
<path fill="none" stroke="black" d="M1377.47,-179.93C1352.52,-148.43 1299.13,-81.03 1269.98,-44.24"/>
<polygon fill="black" stroke="black" points="1272.42,-41.68 1263.47,-36.02 1266.93,-46.03 1272.42,-41.68"/>
<text text-anchor="middle" x="1372.47" y="-168.73" font-family="Times,serif" font-size="14.00">1</text>
</g>
<!-- mar.EntityStatueGear -->
<g id="node8" class="node">
<title>mar.EntityStatueGear</title>
<g id="a_node8"><a xlink:href="mar.EntityStatueGear.svg" xlink:title="mar.EntityStatueGear">
<ellipse fill="green" stroke="black" cx="1643.99" cy="-198" rx="113.18" ry="18"/>
<text text-anchor="middle" x="1643.99" y="-194.3" font-family="Times,serif" font-size="14.00">mar.EntityStatueGear</text>
</a>
</g>
</g>
<!-- mar.EntityStatueGear&#45;&gt;mar.AnimateEntity -->
<g id="edge7" class="edge">
<title>mar.EntityStatueGear&#45;&gt;mar.AnimateEntity</title>
<path fill="none" stroke="black" d="M1608.33,-180.89C1536.25,-148.32 1373.37,-74.74 1294.48,-39.1"/>
<polygon fill="black" stroke="black" points="1295.84,-35.87 1285.28,-34.95 1292.96,-42.25 1295.84,-35.87"/>
<text text-anchor="middle" x="1603.33" y="-169.69" font-family="Times,serif" font-size="14.00">1</text>
</g>
<!-- mar.InitializeUnkEntity -->
<g id="node9" class="node">
<title>mar.InitializeUnkEntity</title>
<g id="a_node9"><a xlink:href="mar.InitializeUnkEntity.svg" xlink:title="mar.InitializeUnkEntity">
<ellipse fill="green" stroke="black" cx="1894.99" cy="-198" rx="119.68" ry="18"/>
<text text-anchor="middle" x="1894.99" y="-194.3" font-family="Times,serif" font-size="14.00">mar.InitializeUnkEntity</text>
</a>
</g>
</g>
<!-- mar.InitializeUnkEntity&#45;&gt;mar.AnimateEntity -->
<g id="edge8" class="edge">
<title>mar.InitializeUnkEntity&#45;&gt;mar.AnimateEntity</title>
<path fill="none" stroke="black" d="M1840.27,-181.9C1720.92,-148.96 1437.83,-70.84 1312.06,-36.13"/>
<polygon fill="black" stroke="black" points="1312.76,-32.69 1302.19,-33.41 1310.9,-39.44 1312.76,-32.69"/>
<text text-anchor="middle" x="1835.27" y="-170.7" font-family="Times,serif" font-size="14.00">1</text>
</g>
<!-- mar.MAR_EntityBackgroundBlock -->
<g id="node10" class="node">
<title>mar.MAR_EntityBackgroundBlock</title>
<g id="a_node10"><a xlink:href="mar.MAR_EntityBackgroundBlock.svg" xlink:title="mar.MAR_EntityBackgroundBlock">
<ellipse fill="green" stroke="black" cx="2199.99" cy="-198" rx="167.87" ry="18"/>
<text text-anchor="middle" x="2199.99" y="-194.3" font-family="Times,serif" font-size="14.00">mar.MAR_EntityBackgroundBlock</text>
</a>
</g>
</g>
<!-- mar.MAR_EntityBackgroundBlock&#45;&gt;mar.AnimateEntity -->
<g id="edge9" class="edge">
<title>mar.MAR_EntityBackgroundBlock&#45;&gt;mar.AnimateEntity</title>
<path fill="none" stroke="black" d="M2120.63,-182.13C1940.61,-148.4 1503.27,-66.46 1326.25,-33.29"/>
<polygon fill="black" stroke="black" points="1326.72,-29.82 1316.24,-31.41 1325.43,-36.7 1326.72,-29.82"/>
<text text-anchor="middle" x="2115.63" y="-170.93" font-family="Times,serif" font-size="14.00">1</text>
</g>
<!-- mar.func_us_8018CA94 -->
<g id="node11" class="node">
<title>mar.func_us_8018CA94</title>
<g id="a_node11"><a xlink:href="mar.func_us_8018CA94.svg" xlink:title="mar.func_us_8018CA94">
<ellipse fill="green" stroke="black" cx="2504.99" cy="-198" rx="118.88" ry="18"/>
<text text-anchor="middle" x="2504.99" y="-194.3" font-family="Times,serif" font-size="14.00">mar.func_us_8018CA94</text>
</a>
</g>
</g>
<!-- mar.func_us_8018CA94&#45;&gt;mar.AnimateEntity -->
<g id="edge10" class="edge">
<title>mar.func_us_8018CA94&#45;&gt;mar.AnimateEntity</title>
<path fill="none" stroke="black" d="M2421.18,-185.11C2193.5,-152.82 1565.23,-63.71 1335.53,-31.13"/>
<polygon fill="black" stroke="black" points="1335.94,-27.66 1325.55,-29.72 1334.96,-34.59 1335.94,-27.66"/>
<text text-anchor="middle" x="2411.68" y="-173.91" font-family="Times,serif" font-size="14.00">11</text>
</g>
</g>
</svg>
