<?xml version="1.0" encoding="UTF-8" standalone="no"?>
<!DOCTYPE svg PUBLIC "-//W3C//DTD SVG 1.1//EN"
 "http://www.w3.org/Graphics/SVG/1.1/DTD/svg11.dtd">
<!-- Generated by graphviz version 2.43.0 (0)
 -->
<!-- Title: mar.func_us_8018C90C Pages: 1 -->
<svg width="422pt" height="224pt"
 viewBox="0.00 0.00 421.58 224.00" xmlns="http://www.w3.org/2000/svg" xmlns:xlink="http://www.w3.org/1999/xlink">
<g id="graph0" class="graph" transform="scale(1 1) rotate(0) translate(4 220)">
<title>mar.func_us_8018C90C</title>
<polygon fill="white" stroke="transparent" points="-4,4 -4,-220 417.58,-220 417.58,4 -4,4"/>
<!-- mar.func_us_8018C90C -->
<g id="node1" class="node">
<title>mar.func_us_8018C90C</title>
<ellipse fill="green" stroke="black" cx="204.84" cy="-198" rx="119.68" ry="18"/>
<text text-anchor="middle" x="204.84" y="-194.3" font-family="Times,serif" font-size="14.00">mar.func_us_8018C90C</text>
</g>
<!-- mar.DestroyEntity -->
<g id="node2" class="node">
<title>mar.DestroyEntity</title>
<g id="a_node2"><a xlink:href="mar.DestroyEntity.svg" xlink:title="mar.DestroyEntity">
<ellipse fill="green" stroke="black" cx="96.84" cy="-18" rx="96.68" ry="18"/>
<text text-anchor="middle" x="96.84" y="-14.3" font-family="Times,serif" font-size="14.00">mar.DestroyEntity</text>
</a>
</g>
</g>
<!-- mar.func_us_8018C90C&#45;&gt;mar.DestroyEntity -->
<g id="edge1" class="edge">
<title>mar.func_us_8018C90C&#45;&gt;mar.DestroyEntity</title>
<path fill="none" stroke="black" d="M194.49,-179.93C175.46,-148.57 134.82,-81.6 112.44,-44.71"/>
<polygon fill="black" stroke="black" points="115.35,-42.75 107.17,-36.02 109.36,-46.38 115.35,-42.75"/>
<text text-anchor="middle" x="102.17" y="-39.82" font-family="Times,serif" font-size="14.00">1</text>
</g>
<!-- mar.InitializeEntity -->
<g id="node3" class="node">
<title>mar.InitializeEntity</title>
<g id="a_node3"><a xlink:href="mar.InitializeEntity.svg" xlink:title="mar.InitializeEntity">
<ellipse fill="green" stroke="black" cx="312.84" cy="-18" rx="100.98" ry="18"/>
<text text-anchor="middle" x="312.84" y="-14.3" font-family="Times,serif" font-size="14.00">mar.InitializeEntity</text>
</a>
</g>
</g>
<!-- mar.func_us_8018C90C&#45;&gt;mar.InitializeEntity -->
<g id="edge2" class="edge">
<title>mar.func_us_8018C90C&#45;&gt;mar.InitializeEntity</title>
<path fill="none" stroke="black" d="M215.2,-179.93C234.23,-148.57 274.86,-81.6 297.24,-44.71"/>
<polygon fill="black" stroke="black" points="300.32,-46.38 302.52,-36.02 294.34,-42.75 300.32,-46.38"/>
<text text-anchor="middle" x="297.52" y="-39.82" font-family="Times,serif" font-size="14.00">1</text>
</g>
</g>
</svg>
