<?xml version="1.0" encoding="UTF-8" standalone="no"?>
<!DOCTYPE svg PUBLIC "-//W3C//DTD SVG 1.1//EN"
 "http://www.w3.org/Graphics/SVG/1.1/DTD/svg11.dtd">
<!-- Generated by graphviz version 2.43.0 (0)
 -->
<!-- Title: mar.CreateEntitiesToTheRight Pages: 1 -->
<svg width="722pt" height="404pt"
 viewBox="0.00 0.00 722.37 404.00" xmlns="http://www.w3.org/2000/svg" xmlns:xlink="http://www.w3.org/1999/xlink">
<g id="graph0" class="graph" transform="scale(1 1) rotate(0) translate(4 400)">
<title>mar.CreateEntitiesToTheRight</title>
<polygon fill="white" stroke="transparent" points="-4,4 -4,-400 718.37,-400 718.37,4 -4,4"/>
<!-- mar.CreateEntitiesToTheRight -->
<g id="node1" class="node">
<title>mar.CreateEntitiesToTheRight</title>
<ellipse fill="green" stroke="black" cx="374.73" cy="-198" rx="152.17" ry="18"/>
<text text-anchor="middle" x="374.73" y="-194.3" font-family="Times,serif" font-size="14.00">mar.CreateEntitiesToTheRight</text>
</g>
<!-- mar.CreateEntityWhenInVerticalRange -->
<g id="node2" class="node">
<title>mar.CreateEntityWhenInVerticalRange</title>
<g id="a_node2"><a xlink:href="mar.CreateEntityWhenInVerticalRange.svg" xlink:title="mar.CreateEntityWhenInVerticalRange">
<ellipse fill="green" stroke="black" cx="191.73" cy="-18" rx="191.97" ry="18"/>
<text text-anchor="middle" x="191.73" y="-14.3" font-family="Times,serif" font-size="14.00">mar.CreateEntityWhenInVerticalRange</text>
</a>
</g>
</g>
<!-- mar.CreateEntitiesToTheRight&#45;&gt;mar.CreateEntityWhenInVerticalRange -->
<g id="edge1" class="edge">
<title>mar.CreateEntitiesToTheRight&#45;&gt;mar.CreateEntityWhenInVerticalRange</title>
<path fill="none" stroke="black" d="M357.19,-179.93C324.53,-148.17 254.34,-79.89 216.73,-43.32"/>
<polygon fill="black" stroke="black" points="218.84,-40.48 209.23,-36.02 213.95,-45.5 218.84,-40.48"/>
<text text-anchor="middle" x="204.23" y="-39.82" font-family="Times,serif" font-size="14.00">1</text>
</g>
<!-- mar.FindFirstEntityToTheRight -->
<g id="node3" class="node">
<title>mar.FindFirstEntityToTheRight</title>
<g id="a_node3"><a xlink:href="mar.FindFirstEntityToTheRight.svg" xlink:title="mar.FindFirstEntityToTheRight">
<ellipse fill="green" stroke="black" cx="557.73" cy="-18" rx="156.77" ry="18"/>
<text text-anchor="middle" x="557.73" y="-14.3" font-family="Times,serif" font-size="14.00">mar.FindFirstEntityToTheRight</text>
</a>
</g>
</g>
<!-- mar.CreateEntitiesToTheRight&#45;&gt;mar.FindFirstEntityToTheRight -->
<g id="edge2" class="edge">
<title>mar.CreateEntitiesToTheRight&#45;&gt;mar.FindFirstEntityToTheRight</title>
<path fill="none" stroke="black" d="M392.28,-179.93C424.94,-148.17 495.13,-79.89 532.73,-43.32"/>
<polygon fill="black" stroke="black" points="535.51,-45.5 540.24,-36.02 530.63,-40.48 535.51,-45.5"/>
<text text-anchor="middle" x="535.24" y="-39.82" font-family="Times,serif" font-size="14.00">1</text>
</g>
<!-- mar.InitRoomEntities -->
<g id="node4" class="node">
<title>mar.InitRoomEntities</title>
<g id="a_node4"><a xlink:href="mar.InitRoomEntities.svg" xlink:title="mar.InitRoomEntities">
<ellipse fill="green" stroke="black" cx="246.73" cy="-378" rx="110.48" ry="18"/>
<text text-anchor="middle" x="246.73" y="-374.3" font-family="Times,serif" font-size="14.00">mar.InitRoomEntities</text>
</a>
</g>
</g>
<!-- mar.InitRoomEntities&#45;&gt;mar.CreateEntitiesToTheRight -->
<g id="edge3" class="edge">
<title>mar.InitRoomEntities&#45;&gt;mar.CreateEntitiesToTheRight</title>
<path fill="none" stroke="black" d="M259.01,-359.93C281.66,-328.43 330.12,-261.03 356.58,-224.24"/>
<polygon fill="black" stroke="black" points="359.5,-226.18 362.5,-216.02 353.82,-222.09 359.5,-226.18"/>
<text text-anchor="middle" x="254.01" y="-348.73" font-family="Times,serif" font-size="14.00">1</text>
</g>
<!-- mar.UpdateRoomPosition -->
<g id="node5" class="node">
<title>mar.UpdateRoomPosition</title>
<g id="a_node5"><a xlink:href="mar.UpdateRoomPosition.svg" xlink:title="mar.UpdateRoomPosition">
<ellipse fill="green" stroke="black" cx="503.73" cy="-378" rx="128.88" ry="18"/>
<text text-anchor="middle" x="503.73" y="-374.3" font-family="Times,serif" font-size="14.00">mar.UpdateRoomPosition</text>
</a>
</g>
</g>
<!-- mar.UpdateRoomPosition&#45;&gt;mar.CreateEntitiesToTheRight -->
<g id="edge4" class="edge">
<title>mar.UpdateRoomPosition&#45;&gt;mar.CreateEntitiesToTheRight</title>
<path fill="none" stroke="black" d="M491.36,-359.93C468.54,-328.43 419.69,-261.03 393.03,-224.24"/>
<polygon fill="black" stroke="black" points="395.77,-222.06 387.06,-216.02 390.1,-226.17 395.77,-222.06"/>
<text text-anchor="middle" x="486.36" y="-348.73" font-family="Times,serif" font-size="14.00">1</text>
</g>
</g>
</svg>
