<?xml version="1.0" encoding="UTF-8" standalone="no"?>
<!DOCTYPE svg PUBLIC "-//W3C//DTD SVG 1.1//EN"
 "http://www.w3.org/Graphics/SVG/1.1/DTD/svg11.dtd">
<!-- Generated by graphviz version 2.43.0 (0)
 -->
<!-- Title: mar.CreateEntityFromCurrentEntity Pages: 1 -->
<svg width="1006pt" height="404pt"
 viewBox="0.00 0.00 1005.58 404.00" xmlns="http://www.w3.org/2000/svg" xmlns:xlink="http://www.w3.org/1999/xlink">
<g id="graph0" class="graph" transform="scale(1 1) rotate(0) translate(4 400)">
<title>mar.CreateEntityFromCurrentEntity</title>
<polygon fill="white" stroke="transparent" points="-4,4 -4,-400 1001.58,-400 1001.58,4 -4,4"/>
<!-- mar.CreateEntityFromCurrentEntity -->
<g id="node1" class="node">
<title>mar.CreateEntityFromCurrentEntity</title>
<ellipse fill="green" stroke="black" cx="492.59" cy="-198" rx="181.17" ry="18"/>
<text text-anchor="middle" x="492.59" y="-194.3" font-family="Times,serif" font-size="14.00">mar.CreateEntityFromCurrentEntity</text>
</g>
<!-- mar.DestroyEntity -->
<g id="node2" class="node">
<title>mar.DestroyEntity</title>
<g id="a_node2"><a xlink:href="mar.DestroyEntity.svg" xlink:title="mar.DestroyEntity">
<ellipse fill="green" stroke="black" cx="492.59" cy="-18" rx="96.68" ry="18"/>
<text text-anchor="middle" x="492.59" y="-14.3" font-family="Times,serif" font-size="14.00">mar.DestroyEntity</text>
</a>
</g>
</g>
<!-- mar.CreateEntityFromCurrentEntity&#45;&gt;mar.DestroyEntity -->
<g id="edge1" class="edge">
<title>mar.CreateEntityFromCurrentEntity&#45;&gt;mar.DestroyEntity</title>
<path fill="none" stroke="black" d="M492.59,-179.93C492.59,-148.97 492.59,-83.3 492.59,-46.13"/>
<polygon fill="black" stroke="black" points="496.09,-46.02 492.59,-36.02 489.09,-46.02 496.09,-46.02"/>
<text text-anchor="middle" x="487.59" y="-39.82" font-family="Times,serif" font-size="14.00">1</text>
</g>
<!-- mar.EntityBreakable -->
<g id="node3" class="node">
<title>mar.EntityBreakable</title>
<g id="a_node3"><a xlink:href="mar.EntityBreakable.svg" xlink:title="mar.EntityBreakable">
<ellipse fill="green" stroke="black" cx="106.59" cy="-378" rx="106.68" ry="18"/>
<text text-anchor="middle" x="106.59" y="-374.3" font-family="Times,serif" font-size="14.00">mar.EntityBreakable</text>
</a>
</g>
</g>
<!-- mar.EntityBreakable&#45;&gt;mar.CreateEntityFromCurrentEntity -->
<g id="edge2" class="edge">
<title>mar.EntityBreakable&#45;&gt;mar.CreateEntityFromCurrentEntity</title>
<path fill="none" stroke="black" d="M141.53,-360.89C211.61,-328.57 369.3,-255.85 447.23,-219.92"/>
<polygon fill="black" stroke="black" points="448.72,-223.09 456.33,-215.72 445.79,-216.73 448.72,-223.09"/>
<text text-anchor="middle" x="136.53" y="-349.69" font-family="Times,serif" font-size="14.00">1</text>
</g>
<!-- mar.EntityClockHands -->
<g id="node4" class="node">
<title>mar.EntityClockHands</title>
<g id="a_node4"><a xlink:href="mar.EntityClockHands.svg" xlink:title="mar.EntityClockHands">
<ellipse fill="green" stroke="black" cx="346.59" cy="-378" rx="115.08" ry="18"/>
<text text-anchor="middle" x="346.59" y="-374.3" font-family="Times,serif" font-size="14.00">mar.EntityClockHands</text>
</a>
</g>
</g>
<!-- mar.EntityClockHands&#45;&gt;mar.CreateEntityFromCurrentEntity -->
<g id="edge3" class="edge">
<title>mar.EntityClockHands&#45;&gt;mar.CreateEntityFromCurrentEntity</title>
<path fill="none" stroke="black" d="M360.59,-359.93C386.53,-328.3 442.18,-260.46 472.27,-223.78"/>
<polygon fill="black" stroke="black" points="475,-225.97 478.63,-216.02 469.59,-221.53 475,-225.97"/>
<text text-anchor="middle" x="355.59" y="-348.73" font-family="Times,serif" font-size="14.00">1</text>
</g>
<!-- mar.EntityClockRoomController -->
<g id="node5" class="node">
<title>mar.EntityClockRoomController</title>
<g id="a_node5"><a xlink:href="mar.EntityClockRoomController.svg" xlink:title="mar.EntityClockRoomController">
<ellipse fill="green" stroke="black" cx="638.59" cy="-378" rx="159.47" ry="18"/>
<text text-anchor="middle" x="638.59" y="-374.3" font-family="Times,serif" font-size="14.00">mar.EntityClockRoomController</text>
</a>
</g>
</g>
<!-- mar.EntityClockRoomController&#45;&gt;mar.CreateEntityFromCurrentEntity -->
<g id="edge4" class="edge">
<title>mar.EntityClockRoomController&#45;&gt;mar.CreateEntityFromCurrentEntity</title>
<path fill="none" stroke="black" d="M624.59,-359.93C598.65,-328.3 543.01,-260.46 512.91,-223.78"/>
<polygon fill="black" stroke="black" points="515.6,-221.53 506.55,-216.02 510.18,-225.97 515.6,-221.53"/>
<text text-anchor="middle" x="619.59" y="-348.73" font-family="Times,serif" font-size="14.00">6</text>
</g>
<!-- mar.EntityStatue -->
<g id="node6" class="node">
<title>mar.EntityStatue</title>
<g id="a_node6"><a xlink:href="mar.EntityStatue.svg" xlink:title="mar.EntityStatue">
<ellipse fill="green" stroke="black" cx="906.59" cy="-378" rx="90.98" ry="18"/>
<text text-anchor="middle" x="906.59" y="-374.3" font-family="Times,serif" font-size="14.00">mar.EntityStatue</text>
</a>
</g>
</g>
<!-- mar.EntityStatue&#45;&gt;mar.CreateEntityFromCurrentEntity -->
<g id="edge5" class="edge">
<title>mar.EntityStatue&#45;&gt;mar.CreateEntityFromCurrentEntity</title>
<path fill="none" stroke="black" d="M870.21,-361.36C795.45,-329.22 624.54,-255.73 540.73,-219.7"/>
<polygon fill="black" stroke="black" points="542,-216.44 531.43,-215.7 539.24,-222.87 542,-216.44"/>
<text text-anchor="middle" x="865.21" y="-350.16" font-family="Times,serif" font-size="14.00">1</text>
</g>
</g>
</svg>
