<?xml version="1.0" encoding="UTF-8" standalone="no"?>
<!DOCTYPE svg PUBLIC "-//W3C//DTD SVG 1.1//EN"
 "http://www.w3.org/Graphics/SVG/1.1/DTD/svg11.dtd">
<!-- Generated by graphviz version 2.43.0 (0)
 -->
<!-- Title: no0.EntityPrizeDrop Pages: 1 -->
<svg width="3766pt" height="404pt"
 viewBox="0.00 0.00 3766.43 404.00" xmlns="http://www.w3.org/2000/svg" xmlns:xlink="http://www.w3.org/1999/xlink">
<g id="graph0" class="graph" transform="scale(1 1) rotate(0) translate(4 400)">
<title>no0.EntityPrizeDrop</title>
<polygon fill="white" stroke="transparent" points="-4,4 -4,-400 3762.43,-400 3762.43,4 -4,4"/>
<!-- no0.EntityPrizeDrop -->
<g id="node1" class="node">
<title>no0.EntityPrizeDrop</title>
<ellipse fill="red" stroke="black" cx="1872.44" cy="-198" rx="106.68" ry="18"/>
<text text-anchor="middle" x="1872.44" y="-194.3" font-family="Times,serif" font-size="14.00">no0.EntityPrizeDrop</text>
</g>
<!-- dra.AllocPrimitives -->
<g id="node2" class="node">
<title>dra.AllocPrimitives</title>
<g id="a_node2"><a xlink:href="dra.AllocPrimitives.svg" xlink:title="dra.AllocPrimitives">
<ellipse fill="green" stroke="black" cx="99.44" cy="-18" rx="99.38" ry="18"/>
<text text-anchor="middle" x="99.44" y="-14.3" font-family="Times,serif" font-size="14.00">dra.AllocPrimitives</text>
</a>
</g>
</g>
<!-- no0.EntityPrizeDrop&#45;&gt;dra.AllocPrimitives -->
<g id="edge1" class="edge">
<title>no0.EntityPrizeDrop&#45;&gt;dra.AllocPrimitives</title>
<path fill="none" stroke="black" d="M1777.48,-189.76C1522.84,-169.93 803.78,-111.16 208.44,-36 199.37,-34.85 189.89,-33.55 180.48,-32.17"/>
<polygon fill="black" stroke="black" points="180.71,-28.67 170.3,-30.66 179.68,-35.59 180.71,-28.67"/>
<text text-anchor="middle" x="165.3" y="-34.46" font-family="Times,serif" font-size="14.00">1</text>
</g>
<!-- dra.CheckCollision -->
<g id="node3" class="node">
<title>dra.CheckCollision</title>
<g id="a_node3"><a xlink:href="dra.CheckCollision.svg" xlink:title="dra.CheckCollision">
<ellipse fill="green" stroke="black" cx="314.44" cy="-18" rx="97.48" ry="18"/>
<text text-anchor="middle" x="314.44" y="-14.3" font-family="Times,serif" font-size="14.00">dra.CheckCollision</text>
</a>
</g>
</g>
<!-- no0.EntityPrizeDrop&#45;&gt;dra.CheckCollision -->
<g id="edge2" class="edge">
<title>no0.EntityPrizeDrop&#45;&gt;dra.CheckCollision</title>
<path fill="none" stroke="black" d="M1781.78,-188.49C1553.04,-166.69 934.1,-105.62 420.44,-36 411.85,-34.84 402.89,-33.53 393.97,-32.18"/>
<polygon fill="black" stroke="black" points="394.35,-28.7 383.93,-30.64 393.28,-35.62 394.35,-28.7"/>
<text text-anchor="middle" x="378.93" y="-34.44" font-family="Times,serif" font-size="14.00">4</text>
</g>
<!-- dra.FreePrimitives -->
<g id="node4" class="node">
<title>dra.FreePrimitives</title>
<g id="a_node4"><a xlink:href="dra.FreePrimitives.svg" xlink:title="dra.FreePrimitives">
<ellipse fill="green" stroke="black" cx="528.44" cy="-18" rx="98.58" ry="18"/>
<text text-anchor="middle" x="528.44" y="-14.3" font-family="Times,serif" font-size="14.00">dra.FreePrimitives</text>
</a>
</g>
</g>
<!-- no0.EntityPrizeDrop&#45;&gt;dra.FreePrimitives -->
<g id="edge3" class="edge">
<title>no0.EntityPrizeDrop&#45;&gt;dra.FreePrimitives</title>
<path fill="none" stroke="black" d="M1788.41,-186.84C1588.53,-162.49 1069.11,-98.22 636.44,-36 627.84,-34.76 618.86,-33.43 609.92,-32.06"/>
<polygon fill="black" stroke="black" points="610.27,-28.58 599.86,-30.52 609.21,-35.49 610.27,-28.58"/>
<text text-anchor="middle" x="594.86" y="-34.32" font-family="Times,serif" font-size="14.00">1</text>
</g>
<!-- no0.AnimateEntity -->
<g id="node5" class="node">
<title>no0.AnimateEntity</title>
<g id="a_node5"><a xlink:href="no0.AnimateEntity.svg" xlink:title="no0.AnimateEntity">
<ellipse fill="green" stroke="black" cx="743.44" cy="-18" rx="98.28" ry="18"/>
<text text-anchor="middle" x="743.44" y="-14.3" font-family="Times,serif" font-size="14.00">no0.AnimateEntity</text>
</a>
</g>
</g>
<!-- no0.EntityPrizeDrop&#45;&gt;no0.AnimateEntity -->
<g id="edge4" class="edge">
<title>no0.EntityPrizeDrop&#45;&gt;no0.AnimateEntity</title>
<path fill="none" stroke="black" d="M1797.11,-185.17C1627.87,-158.58 1204.6,-92.03 850.44,-36 842.23,-34.7 833.66,-33.34 825.11,-31.99"/>
<polygon fill="black" stroke="black" points="825.52,-28.51 815.1,-30.4 824.42,-35.42 825.52,-28.51"/>
<text text-anchor="middle" x="810.1" y="-34.2" font-family="Times,serif" font-size="14.00">1</text>
</g>
<!-- no0.CheckFieldCollision -->
<g id="node6" class="node">
<title>no0.CheckFieldCollision</title>
<g id="a_node6"><a xlink:href="no0.CheckFieldCollision.svg" xlink:title="no0.CheckFieldCollision">
<ellipse fill="green" stroke="black" cx="981.44" cy="-18" rx="122.38" ry="18"/>
<text text-anchor="middle" x="981.44" y="-14.3" font-family="Times,serif" font-size="14.00">no0.CheckFieldCollision</text>
</a>
</g>
</g>
<!-- no0.EntityPrizeDrop&#45;&gt;no0.CheckFieldCollision -->
<g id="edge5" class="edge">
<title>no0.EntityPrizeDrop&#45;&gt;no0.CheckFieldCollision</title>
<path fill="none" stroke="black" d="M1806.56,-183.84C1645.92,-151.75 1234.55,-69.56 1060.8,-34.85"/>
<polygon fill="black" stroke="black" points="1061.44,-31.41 1050.95,-32.89 1060.07,-38.28 1061.44,-31.41"/>
<text text-anchor="middle" x="1045.95" y="-36.69" font-family="Times,serif" font-size="14.00">2</text>
</g>
<!-- no0.CollectGold -->
<g id="node7" class="node">
<title>no0.CollectGold</title>
<g id="a_node7"><a xlink:href="no0.CollectGold.svg" xlink:title="no0.CollectGold">
<ellipse fill="red" stroke="black" cx="1206.44" cy="-18" rx="84.49" ry="18"/>
<text text-anchor="middle" x="1206.44" y="-14.3" font-family="Times,serif" font-size="14.00">no0.CollectGold</text>
</a>
</g>
</g>
<!-- no0.EntityPrizeDrop&#45;&gt;no0.CollectGold -->
<g id="edge6" class="edge">
<title>no0.EntityPrizeDrop&#45;&gt;no0.CollectGold</title>
<path fill="none" stroke="black" d="M1817.94,-182.43C1694.71,-149.5 1395.39,-69.5 1266.79,-35.13"/>
<polygon fill="black" stroke="black" points="1267.66,-31.74 1257.09,-32.54 1265.85,-38.5 1267.66,-31.74"/>
<text text-anchor="middle" x="1252.09" y="-36.34" font-family="Times,serif" font-size="14.00">1</text>
</g>
<!-- no0.CollectHeart -->
<g id="node8" class="node">
<title>no0.CollectHeart</title>
<g id="a_node8"><a xlink:href="no0.CollectHeart.svg" xlink:title="no0.CollectHeart">
<ellipse fill="red" stroke="black" cx="1398.44" cy="-18" rx="89.88" ry="18"/>
<text text-anchor="middle" x="1398.44" y="-14.3" font-family="Times,serif" font-size="14.00">no0.CollectHeart</text>
</a>
</g>
</g>
<!-- no0.EntityPrizeDrop&#45;&gt;no0.CollectHeart -->
<g id="edge7" class="edge">
<title>no0.EntityPrizeDrop&#45;&gt;no0.CollectHeart</title>
<path fill="none" stroke="black" d="M1830.79,-181.36C1743.63,-148.63 1542.3,-73.02 1448.38,-37.75"/>
<polygon fill="black" stroke="black" points="1449.41,-34.4 1438.82,-34.16 1446.95,-40.95 1449.41,-34.4"/>
<text text-anchor="middle" x="1433.82" y="-37.96" font-family="Times,serif" font-size="14.00">1</text>
</g>
<!-- no0.CollectHeartVessel -->
<g id="node9" class="node">
<title>no0.CollectHeartVessel</title>
<g id="a_node9"><a xlink:href="no0.CollectHeartVessel.svg" xlink:title="no0.CollectHeartVessel">
<ellipse fill="red" stroke="black" cx="1625.44" cy="-18" rx="118.88" ry="18"/>
<text text-anchor="middle" x="1625.44" y="-14.3" font-family="Times,serif" font-size="14.00">no0.CollectHeartVessel</text>
</a>
</g>
</g>
<!-- no0.EntityPrizeDrop&#45;&gt;no0.CollectHeartVessel -->
<g id="edge8" class="edge">
<title>no0.EntityPrizeDrop&#45;&gt;no0.CollectHeartVessel</title>
<path fill="none" stroke="black" d="M1849.2,-180.25C1804.7,-148.18 1707.41,-78.07 1657.05,-41.78"/>
<polygon fill="black" stroke="black" points="1658.96,-38.84 1648.8,-35.83 1654.86,-44.52 1658.96,-38.84"/>
<text text-anchor="middle" x="1643.8" y="-39.63" font-family="Times,serif" font-size="14.00">1</text>
</g>
<!-- no0.CollectLifeVessel -->
<g id="node10" class="node">
<title>no0.CollectLifeVessel</title>
<g id="a_node10"><a xlink:href="no0.CollectLifeVessel.svg" xlink:title="no0.CollectLifeVessel">
<ellipse fill="red" stroke="black" cx="1872.44" cy="-18" rx="109.68" ry="18"/>
<text text-anchor="middle" x="1872.44" y="-14.3" font-family="Times,serif" font-size="14.00">no0.CollectLifeVessel</text>
</a>
</g>
</g>
<!-- no0.EntityPrizeDrop&#45;&gt;no0.CollectLifeVessel -->
<g id="edge9" class="edge">
<title>no0.EntityPrizeDrop&#45;&gt;no0.CollectLifeVessel</title>
<path fill="none" stroke="black" d="M1872.44,-179.93C1872.44,-148.97 1872.44,-83.3 1872.44,-46.13"/>
<polygon fill="black" stroke="black" points="1875.94,-46.02 1872.44,-36.02 1868.94,-46.02 1875.94,-46.02"/>
<text text-anchor="middle" x="1867.44" y="-39.82" font-family="Times,serif" font-size="14.00">1</text>
</g>
<!-- no0.CollectSubweapon -->
<g id="node11" class="node">
<title>no0.CollectSubweapon</title>
<g id="a_node11"><a xlink:href="no0.CollectSubweapon.svg" xlink:title="no0.CollectSubweapon">
<ellipse fill="red" stroke="black" cx="2116.44" cy="-18" rx="116.18" ry="18"/>
<text text-anchor="middle" x="2116.44" y="-14.3" font-family="Times,serif" font-size="14.00">no0.CollectSubweapon</text>
</a>
</g>
</g>
<!-- no0.EntityPrizeDrop&#45;&gt;no0.CollectSubweapon -->
<g id="edge10" class="edge">
<title>no0.EntityPrizeDrop&#45;&gt;no0.CollectSubweapon</title>
<path fill="none" stroke="black" d="M1895.4,-180.25C1939.36,-148.18 2035.47,-78.07 2085.22,-41.78"/>
<polygon fill="black" stroke="black" points="2087.35,-44.55 2093.37,-35.83 2083.23,-38.9 2087.35,-44.55"/>
<text text-anchor="middle" x="2088.37" y="-39.63" font-family="Times,serif" font-size="14.00">1</text>
</g>
<!-- no0.DestroyCurrentEntity -->
<g id="node12" class="node">
<title>no0.DestroyCurrentEntity</title>
<g id="a_node12"><a xlink:href="no0.DestroyCurrentEntity.svg" xlink:title="no0.DestroyCurrentEntity">
<ellipse fill="red" stroke="black" cx="2383.44" cy="-18" rx="132.68" ry="18"/>
<text text-anchor="middle" x="2383.44" y="-14.3" font-family="Times,serif" font-size="14.00">no0.DestroyCurrentEntity</text>
</a>
</g>
</g>
<!-- no0.EntityPrizeDrop&#45;&gt;no0.DestroyCurrentEntity -->
<g id="edge11" class="edge">
<title>no0.EntityPrizeDrop&#45;&gt;no0.DestroyCurrentEntity</title>
<path fill="none" stroke="black" d="M1916.9,-181.52C2010.16,-149.03 2226.07,-73.82 2328.11,-38.27"/>
<polygon fill="black" stroke="black" points="2329.33,-41.55 2337.63,-34.96 2327.03,-34.94 2329.33,-41.55"/>
<text text-anchor="middle" x="2332.63" y="-38.76" font-family="Times,serif" font-size="14.00">1</text>
</g>
<!-- no0.DestroyEntity -->
<g id="node13" class="node">
<title>no0.DestroyEntity</title>
<g id="a_node13"><a xlink:href="no0.DestroyEntity.svg" xlink:title="no0.DestroyEntity">
<ellipse fill="green" stroke="black" cx="2630.44" cy="-18" rx="96.38" ry="18"/>
<text text-anchor="middle" x="2630.44" y="-14.3" font-family="Times,serif" font-size="14.00">no0.DestroyEntity</text>
</a>
</g>
</g>
<!-- no0.EntityPrizeDrop&#45;&gt;no0.DestroyEntity -->
<g id="edge12" class="edge">
<title>no0.EntityPrizeDrop&#45;&gt;no0.DestroyEntity</title>
<path fill="none" stroke="black" d="M1931.92,-183.03C2071.03,-150.37 2416.89,-69.15 2563.29,-34.77"/>
<polygon fill="black" stroke="black" points="2564.12,-38.17 2573.06,-32.48 2562.52,-31.35 2564.12,-38.17"/>
<text text-anchor="middle" x="2568.06" y="-36.28" font-family="Times,serif" font-size="14.00">2</text>
</g>
<!-- no0.FallEntity -->
<g id="node14" class="node">
<title>no0.FallEntity</title>
<g id="a_node14"><a xlink:href="no0.FallEntity.svg" xlink:title="no0.FallEntity">
<ellipse fill="green" stroke="black" cx="2821.44" cy="-18" rx="76.89" ry="18"/>
<text text-anchor="middle" x="2821.44" y="-14.3" font-family="Times,serif" font-size="14.00">no0.FallEntity</text>
</a>
</g>
</g>
<!-- no0.EntityPrizeDrop&#45;&gt;no0.FallEntity -->
<g id="edge13" class="edge">
<title>no0.EntityPrizeDrop&#45;&gt;no0.FallEntity</title>
<path fill="none" stroke="black" d="M1941.84,-184.31C2088.48,-157.45 2440.58,-92.65 2735.44,-36 2741.72,-34.79 2748.25,-33.53 2754.79,-32.25"/>
<polygon fill="black" stroke="black" points="2755.88,-35.6 2765.02,-30.24 2754.53,-28.73 2755.88,-35.6"/>
<text text-anchor="middle" x="2760.02" y="-34.04" font-family="Times,serif" font-size="14.00">2</text>
</g>
<!-- no0.InitializeEntity -->
<g id="node15" class="node">
<title>no0.InitializeEntity</title>
<g id="a_node15"><a xlink:href="no0.InitializeEntity.svg" xlink:title="no0.InitializeEntity">
<ellipse fill="green" stroke="black" cx="3016.44" cy="-18" rx="100.18" ry="18"/>
<text text-anchor="middle" x="3016.44" y="-14.3" font-family="Times,serif" font-size="14.00">no0.InitializeEntity</text>
</a>
</g>
</g>
<!-- no0.EntityPrizeDrop&#45;&gt;no0.InitializeEntity -->
<g id="edge14" class="edge">
<title>no0.EntityPrizeDrop&#45;&gt;no0.InitializeEntity</title>
<path fill="none" stroke="black" d="M1948.08,-185.24C2119.04,-158.67 2548.3,-91.94 2907.44,-36 2915.9,-34.68 2924.72,-33.31 2933.53,-31.93"/>
<polygon fill="black" stroke="black" points="2934.1,-35.39 2943.45,-30.39 2933.03,-28.47 2934.1,-35.39"/>
<text text-anchor="middle" x="2938.45" y="-34.19" font-family="Times,serif" font-size="14.00">1</text>
</g>
<!-- no0.MoveEntity -->
<g id="node16" class="node">
<title>no0.MoveEntity</title>
<g id="a_node16"><a xlink:href="no0.MoveEntity.svg" xlink:title="no0.MoveEntity">
<ellipse fill="green" stroke="black" cx="3219.44" cy="-18" rx="85.29" ry="18"/>
<text text-anchor="middle" x="3219.44" y="-14.3" font-family="Times,serif" font-size="14.00">no0.MoveEntity</text>
</a>
</g>
</g>
<!-- no0.EntityPrizeDrop&#45;&gt;no0.MoveEntity -->
<g id="edge15" class="edge">
<title>no0.EntityPrizeDrop&#45;&gt;no0.MoveEntity</title>
<path fill="none" stroke="black" d="M1958.87,-187.44C2162.54,-164.57 2688.42,-103.55 3125.44,-36 3132.79,-34.86 3140.45,-33.6 3148.09,-32.3"/>
<polygon fill="black" stroke="black" points="3148.83,-35.72 3158.08,-30.56 3147.63,-28.83 3148.83,-35.72"/>
<text text-anchor="middle" x="3153.08" y="-34.36" font-family="Times,serif" font-size="14.00">2</text>
</g>
<!-- no0.func_8018CAB0 -->
<g id="node17" class="node">
<title>no0.func_8018CAB0</title>
<g id="a_node17"><a xlink:href="no0.func_8018CAB0.svg" xlink:title="no0.func_8018CAB0">
<ellipse fill="red" stroke="black" cx="3427.44" cy="-18" rx="104.78" ry="18"/>
<text text-anchor="middle" x="3427.44" y="-14.3" font-family="Times,serif" font-size="14.00">no0.func_8018CAB0</text>
</a>
</g>
</g>
<!-- no0.EntityPrizeDrop&#45;&gt;no0.func_8018CAB0 -->
<g id="edge16" class="edge">
<title>no0.EntityPrizeDrop&#45;&gt;no0.func_8018CAB0</title>
<path fill="none" stroke="black" d="M1961.95,-188.15C2188.52,-165.52 2802.97,-102.56 3313.44,-36 3322.79,-34.78 3332.56,-33.43 3342.29,-32.05"/>
<polygon fill="black" stroke="black" points="3342.98,-35.49 3352.38,-30.59 3341.98,-28.56 3342.98,-35.49"/>
<text text-anchor="middle" x="3347.38" y="-34.39" font-family="Times,serif" font-size="14.00">1</text>
</g>
<!-- no0.func_8018CB34 -->
<g id="node18" class="node">
<title>no0.func_8018CB34</title>
<g id="a_node18"><a xlink:href="no0.func_8018CB34.svg" xlink:title="no0.func_8018CB34">
<ellipse fill="red" stroke="black" cx="3654.44" cy="-18" rx="103.98" ry="18"/>
<text text-anchor="middle" x="3654.44" y="-14.3" font-family="Times,serif" font-size="14.00">no0.func_8018CB34</text>
</a>
</g>
</g>
<!-- no0.EntityPrizeDrop&#45;&gt;no0.func_8018CB34 -->
<g id="edge17" class="edge">
<title>no0.EntityPrizeDrop&#45;&gt;no0.func_8018CB34</title>
<path fill="none" stroke="black" d="M1967.2,-189.63C2222.14,-169.44 2943.75,-109.73 3541.44,-36 3550.79,-34.85 3560.57,-33.54 3570.28,-32.17"/>
<polygon fill="black" stroke="black" points="3570.96,-35.6 3580.36,-30.72 3569.97,-28.67 3570.96,-35.6"/>
<text text-anchor="middle" x="3575.36" y="-34.52" font-family="Times,serif" font-size="14.00">3</text>
</g>
<!-- no0.EntityEquipItemDrop -->
<g id="node19" class="node">
<title>no0.EntityEquipItemDrop</title>
<g id="a_node19"><a xlink:href="no0.EntityEquipItemDrop.svg" xlink:title="no0.EntityEquipItemDrop">
<ellipse fill="red" stroke="black" cx="1872.44" cy="-378" rx="131.08" ry="18"/>
<text text-anchor="middle" x="1872.44" y="-374.3" font-family="Times,serif" font-size="14.00">no0.EntityEquipItemDrop</text>
</a>
</g>
</g>
<!-- no0.EntityEquipItemDrop&#45;&gt;no0.EntityPrizeDrop -->
<g id="edge18" class="edge">
<title>no0.EntityEquipItemDrop&#45;&gt;no0.EntityPrizeDrop</title>
<path fill="none" stroke="black" d="M1872.44,-359.93C1872.44,-328.97 1872.44,-263.3 1872.44,-226.13"/>
<polygon fill="black" stroke="black" points="1875.94,-226.02 1872.44,-216.02 1868.94,-226.02 1875.94,-226.02"/>
<text text-anchor="middle" x="1867.44" y="-348.73" font-family="Times,serif" font-size="14.00">1</text>
</g>
</g>
</svg>
