<?xml version="1.0" encoding="UTF-8" standalone="no"?>
<!DOCTYPE svg PUBLIC "-//W3C//DTD SVG 1.1//EN"
 "http://www.w3.org/Graphics/SVG/1.1/DTD/svg11.dtd">
<!-- Generated by graphviz version 2.43.0 (0)
 -->
<!-- Title: no0.AllocEntity Pages: 1 -->
<svg width="7391pt" height="404pt"
 viewBox="0.00 0.00 7391.13 404.00" xmlns="http://www.w3.org/2000/svg" xmlns:xlink="http://www.w3.org/1999/xlink">
<g id="graph0" class="graph" transform="scale(1 1) rotate(0) translate(4 400)">
<title>no0.AllocEntity</title>
<polygon fill="white" stroke="transparent" points="-4,4 -4,-400 7387.13,-400 7387.13,4 -4,4"/>
<!-- no0.AllocEntity -->
<g id="node1" class="node">
<title>no0.AllocEntity</title>
<ellipse fill="green" stroke="black" cx="3663.89" cy="-198" rx="81.79" ry="18"/>
<text text-anchor="middle" x="3663.89" y="-194.3" font-family="Times,serif" font-size="14.00">no0.AllocEntity</text>
</g>
<!-- no0.DestroyEntity -->
<g id="node2" class="node">
<title>no0.DestroyEntity</title>
<g id="a_node2"><a xlink:href="no0.DestroyEntity.svg" xlink:title="no0.DestroyEntity">
<ellipse fill="green" stroke="black" cx="3663.89" cy="-18" rx="96.38" ry="18"/>
<text text-anchor="middle" x="3663.89" y="-14.3" font-family="Times,serif" font-size="14.00">no0.DestroyEntity</text>
</a>
</g>
</g>
<!-- no0.AllocEntity&#45;&gt;no0.DestroyEntity -->
<g id="edge1" class="edge">
<title>no0.AllocEntity&#45;&gt;no0.DestroyEntity</title>
<path fill="none" stroke="black" d="M3663.89,-179.93C3663.89,-148.97 3663.89,-83.3 3663.89,-46.13"/>
<polygon fill="black" stroke="black" points="3667.39,-46.02 3663.89,-36.02 3660.39,-46.02 3667.39,-46.02"/>
<text text-anchor="middle" x="3658.89" y="-39.82" font-family="Times,serif" font-size="14.00">1</text>
</g>
<!-- no0.EntityAxeKnight -->
<g id="node3" class="node">
<title>no0.EntityAxeKnight</title>
<g id="a_node3"><a xlink:href="no0.EntityAxeKnight.svg" xlink:title="no0.EntityAxeKnight">
<ellipse fill="red" stroke="black" cx="107.89" cy="-378" rx="107.78" ry="18"/>
<text text-anchor="middle" x="107.89" y="-374.3" font-family="Times,serif" font-size="14.00">no0.EntityAxeKnight</text>
</a>
</g>
</g>
<!-- no0.EntityAxeKnight&#45;&gt;no0.AllocEntity -->
<g id="edge2" class="edge">
<title>no0.EntityAxeKnight&#45;&gt;no0.AllocEntity</title>
<path fill="none" stroke="black" d="M182.97,-364.99C196.88,-363.07 211.3,-361.3 224.89,-360 1550.67,-232.95 3174,-205.1 3572.42,-200.01"/>
<polygon fill="black" stroke="black" points="3572.49,-203.51 3582.44,-199.88 3572.4,-196.51 3572.49,-203.51"/>
<text text-anchor="middle" x="177.97" y="-353.79" font-family="Times,serif" font-size="14.00">4</text>
</g>
<!-- no0.EntityGreyPuffSpawner -->
<g id="node4" class="node">
<title>no0.EntityGreyPuffSpawner</title>
<g id="a_node4"><a xlink:href="no0.EntityGreyPuffSpawner.svg" xlink:title="no0.EntityGreyPuffSpawner">
<ellipse fill="red" stroke="black" cx="375.89" cy="-378" rx="141.88" ry="18"/>
<text text-anchor="middle" x="375.89" y="-374.3" font-family="Times,serif" font-size="14.00">no0.EntityGreyPuffSpawner</text>
</a>
</g>
</g>
<!-- no0.EntityGreyPuffSpawner&#45;&gt;no0.AllocEntity -->
<g id="edge3" class="edge">
<title>no0.EntityGreyPuffSpawner&#45;&gt;no0.AllocEntity</title>
<path fill="none" stroke="black" d="M474.49,-365.02C491.93,-363.16 509.93,-361.39 526.89,-360 1729.71,-261.52 3197.21,-212.99 3572.92,-201.64"/>
<polygon fill="black" stroke="black" points="3573.29,-205.13 3583.18,-201.33 3573.08,-198.14 3573.29,-205.13"/>
<text text-anchor="middle" x="469.49" y="-353.82" font-family="Times,serif" font-size="14.00">1</text>
</g>
<!-- no0.EntityMagicallySealedDoor -->
<g id="node5" class="node">
<title>no0.EntityMagicallySealedDoor</title>
<g id="a_node5"><a xlink:href="no0.EntityMagicallySealedDoor.svg" xlink:title="no0.EntityMagicallySealedDoor">
<ellipse fill="red" stroke="black" cx="693.89" cy="-378" rx="157.87" ry="18"/>
<text text-anchor="middle" x="693.89" y="-374.3" font-family="Times,serif" font-size="14.00">no0.EntityMagicallySealedDoor</text>
</a>
</g>
</g>
<!-- no0.EntityMagicallySealedDoor&#45;&gt;no0.AllocEntity -->
<g id="edge4" class="edge">
<title>no0.EntityMagicallySealedDoor&#45;&gt;no0.AllocEntity</title>
<path fill="none" stroke="black" d="M804.32,-365.07C823.18,-363.23 842.59,-361.46 860.89,-360 1927.25,-275.14 3225.25,-217.46 3574.05,-202.72"/>
<polygon fill="black" stroke="black" points="3574.25,-206.21 3584.09,-202.29 3573.96,-199.22 3574.25,-206.21"/>
<text text-anchor="middle" x="799.32" y="-353.87" font-family="Times,serif" font-size="14.00">1</text>
</g>
<!-- no0.EntitySkeleton -->
<g id="node6" class="node">
<title>no0.EntitySkeleton</title>
<g id="a_node6"><a xlink:href="no0.EntitySkeleton.svg" xlink:title="no0.EntitySkeleton">
<ellipse fill="red" stroke="black" cx="969.89" cy="-378" rx="100.18" ry="18"/>
<text text-anchor="middle" x="969.89" y="-374.3" font-family="Times,serif" font-size="14.00">no0.EntitySkeleton</text>
</a>
</g>
</g>
<!-- no0.EntitySkeleton&#45;&gt;no0.AllocEntity -->
<g id="edge5" class="edge">
<title>no0.EntitySkeleton&#45;&gt;no0.AllocEntity</title>
<path fill="none" stroke="black" d="M1040.18,-365.16C1053.35,-363.22 1067.02,-361.39 1079.89,-360 2052.93,-254.72 3240.12,-212.06 3573.21,-201.66"/>
<polygon fill="black" stroke="black" points="3573.4,-205.15 3583.29,-201.35 3573.18,-198.16 3573.4,-205.15"/>
<text text-anchor="middle" x="1035.18" y="-353.96" font-family="Times,serif" font-size="14.00">2</text>
</g>
<!-- no0.EntityUnkId13 -->
<g id="node7" class="node">
<title>no0.EntityUnkId13</title>
<g id="a_node7"><a xlink:href="no0.EntityUnkId13.svg" xlink:title="no0.EntityUnkId13">
<ellipse fill="red" stroke="black" cx="1187.89" cy="-378" rx="99.38" ry="18"/>
<text text-anchor="middle" x="1187.89" y="-374.3" font-family="Times,serif" font-size="14.00">no0.EntityUnkId13</text>
</a>
</g>
</g>
<!-- no0.EntityUnkId13&#45;&gt;no0.AllocEntity -->
<g id="edge6" class="edge">
<title>no0.EntityUnkId13&#45;&gt;no0.AllocEntity</title>
<path fill="none" stroke="black" d="M1257.84,-365.17C1270.8,-363.24 1284.23,-361.41 1296.89,-360 2181,-261.18 3258.14,-214.5 3573.27,-202.33"/>
<polygon fill="black" stroke="black" points="3573.86,-205.81 3583.72,-201.93 3573.59,-198.81 3573.86,-205.81"/>
<text text-anchor="middle" x="1252.84" y="-353.97" font-family="Times,serif" font-size="14.00">1</text>
</g>
<!-- no0.EntityUnkId14Spawner -->
<g id="node8" class="node">
<title>no0.EntityUnkId14Spawner</title>
<g id="a_node8"><a xlink:href="no0.EntityUnkId14Spawner.svg" xlink:title="no0.EntityUnkId14Spawner">
<ellipse fill="red" stroke="black" cx="1445.89" cy="-378" rx="140.28" ry="18"/>
<text text-anchor="middle" x="1445.89" y="-374.3" font-family="Times,serif" font-size="14.00">no0.EntityUnkId14Spawner</text>
</a>
</g>
</g>
<!-- no0.EntityUnkId14Spawner&#45;&gt;no0.AllocEntity -->
<g id="edge7" class="edge">
<title>no0.EntityUnkId14Spawner&#45;&gt;no0.AllocEntity</title>
<path fill="none" stroke="black" d="M1545.08,-365.26C1562.02,-363.4 1579.45,-361.57 1595.89,-360 2362.09,-286.78 3290.4,-223.6 3576.05,-204.73"/>
<polygon fill="black" stroke="black" points="3576.59,-208.2 3586.34,-204.05 3576.13,-201.22 3576.59,-208.2"/>
<text text-anchor="middle" x="1540.08" y="-354.06" font-family="Times,serif" font-size="14.00">1</text>
</g>
<!-- no0.HitDetection -->
<g id="node9" class="node">
<title>no0.HitDetection</title>
<g id="a_node9"><a xlink:href="no0.HitDetection.svg" xlink:title="no0.HitDetection">
<ellipse fill="green" stroke="black" cx="1694.89" cy="-378" rx="90.18" ry="18"/>
<text text-anchor="middle" x="1694.89" y="-374.3" font-family="Times,serif" font-size="14.00">no0.HitDetection</text>
</a>
</g>
</g>
<!-- no0.HitDetection&#45;&gt;no0.AllocEntity -->
<g id="edge8" class="edge">
<title>no0.HitDetection&#45;&gt;no0.AllocEntity</title>
<path fill="none" stroke="black" d="M1758.68,-365.23C1770.37,-363.31 1782.47,-361.47 1793.89,-360 2477.13,-272.08 3307.18,-219.58 3575.63,-203.95"/>
<polygon fill="black" stroke="black" points="3575.92,-207.44 3585.7,-203.37 3575.52,-200.45 3575.92,-207.44"/>
<text text-anchor="middle" x="1753.68" y="-354.03" font-family="Times,serif" font-size="14.00">4</text>
</g>
<!-- no0.MakeExplosions -->
<g id="node10" class="node">
<title>no0.MakeExplosions</title>
<g id="a_node10"><a xlink:href="no0.MakeExplosions.svg" xlink:title="no0.MakeExplosions">
<ellipse fill="red" stroke="black" cx="1909.89" cy="-378" rx="106.68" ry="18"/>
<text text-anchor="middle" x="1909.89" y="-374.3" font-family="Times,serif" font-size="14.00">no0.MakeExplosions</text>
</a>
</g>
</g>
<!-- no0.MakeExplosions&#45;&gt;no0.AllocEntity -->
<g id="edge9" class="edge">
<title>no0.MakeExplosions&#45;&gt;no0.AllocEntity</title>
<path fill="none" stroke="black" d="M1985.6,-365.27C1998.69,-363.4 2012.17,-361.56 2024.89,-360 2617.64,-287.12 3334.24,-225.99 3577.98,-205.95"/>
<polygon fill="black" stroke="black" points="3578.51,-209.42 3588.19,-205.11 3577.93,-202.44 3578.51,-209.42"/>
<text text-anchor="middle" x="1980.6" y="-354.07" font-family="Times,serif" font-size="14.00">1</text>
</g>
<!-- no0.func_801C3F9C -->
<g id="node11" class="node">
<title>no0.func_801C3F9C</title>
<g id="a_node11"><a xlink:href="no0.func_801C3F9C.svg" xlink:title="no0.func_801C3F9C">
<ellipse fill="red" stroke="black" cx="2138.89" cy="-378" rx="104.78" ry="18"/>
<text text-anchor="middle" x="2138.89" y="-374.3" font-family="Times,serif" font-size="14.00">no0.func_801C3F9C</text>
</a>
</g>
</g>
<!-- no0.func_801C3F9C&#45;&gt;no0.AllocEntity -->
<g id="edge10" class="edge">
<title>no0.func_801C3F9C&#45;&gt;no0.AllocEntity</title>
<path fill="none" stroke="black" d="M2213.96,-365.43C2226.93,-363.54 2240.29,-361.66 2252.89,-360 2756.41,-293.75 3363.13,-229.88 3581.01,-207.45"/>
<polygon fill="black" stroke="black" points="3581.5,-210.92 3591.09,-206.41 3580.78,-203.95 3581.5,-210.92"/>
<text text-anchor="middle" x="2208.96" y="-354.23" font-family="Times,serif" font-size="14.00">1</text>
</g>
<!-- no0.func_us_801C1E48 -->
<g id="node12" class="node">
<title>no0.func_us_801C1E48</title>
<g id="a_node12"><a xlink:href="no0.func_us_801C1E48.svg" xlink:title="no0.func_us_801C1E48">
<ellipse fill="red" stroke="black" cx="2380.89" cy="-378" rx="118.88" ry="18"/>
<text text-anchor="middle" x="2380.89" y="-374.3" font-family="Times,serif" font-size="14.00">no0.func_us_801C1E48</text>
</a>
</g>
</g>
<!-- no0.func_us_801C1E48&#45;&gt;no0.AllocEntity -->
<g id="edge11" class="edge">
<title>no0.func_us_801C1E48&#45;&gt;no0.AllocEntity</title>
<path fill="none" stroke="black" d="M2465.57,-365.25C2700.88,-332.6 3360.23,-241.13 3586.51,-209.74"/>
<polygon fill="black" stroke="black" points="3587.21,-213.17 3596.64,-208.33 3586.25,-206.24 3587.21,-213.17"/>
<text text-anchor="middle" x="2460.57" y="-354.05" font-family="Times,serif" font-size="14.00">1</text>
</g>
<!-- no0.func_us_801CC1D0 -->
<g id="node13" class="node">
<title>no0.func_us_801CC1D0</title>
<g id="a_node13"><a xlink:href="no0.func_us_801CC1D0.svg" xlink:title="no0.func_us_801CC1D0">
<ellipse fill="red" stroke="black" cx="2637.89" cy="-378" rx="120.48" ry="18"/>
<text text-anchor="middle" x="2637.89" y="-374.3" font-family="Times,serif" font-size="14.00">no0.func_us_801CC1D0</text>
</a>
</g>
</g>
<!-- no0.func_us_801CC1D0&#45;&gt;no0.AllocEntity -->
<g id="edge12" class="edge">
<title>no0.func_us_801CC1D0&#45;&gt;no0.AllocEntity</title>
<path fill="none" stroke="black" d="M2713.33,-363.91C2904.19,-330.8 3404.32,-244.03 3591.65,-211.53"/>
<polygon fill="black" stroke="black" points="3592.42,-214.95 3601.67,-209.79 3591.22,-208.05 3592.42,-214.95"/>
<text text-anchor="middle" x="2708.33" y="-352.71" font-family="Times,serif" font-size="14.00">1</text>
</g>
<!-- no0.func_us_801CF4A8 -->
<g id="node14" class="node">
<title>no0.func_us_801CF4A8</title>
<g id="a_node14"><a xlink:href="no0.func_us_801CF4A8.svg" xlink:title="no0.func_us_801CF4A8">
<ellipse fill="red" stroke="black" cx="2894.89" cy="-378" rx="118.88" ry="18"/>
<text text-anchor="middle" x="2894.89" y="-374.3" font-family="Times,serif" font-size="14.00">no0.func_us_801CF4A8</text>
</a>
</g>
</g>
<!-- no0.func_us_801CF4A8&#45;&gt;no0.AllocEntity -->
<g id="edge13" class="edge">
<title>no0.func_us_801CF4A8&#45;&gt;no0.AllocEntity</title>
<path fill="none" stroke="black" d="M2957.17,-362.58C3100.77,-329.34 3453.92,-247.6 3599.53,-213.9"/>
<polygon fill="black" stroke="black" points="3600.69,-217.22 3609.65,-211.56 3599.11,-210.4 3600.69,-217.22"/>
<text text-anchor="middle" x="2952.17" y="-351.38" font-family="Times,serif" font-size="14.00">2</text>
</g>
<!-- no0.func_us_801CF910 -->
<g id="node15" class="node">
<title>no0.func_us_801CF910</title>
<g id="a_node15"><a xlink:href="no0.func_us_801CF910.svg" xlink:title="no0.func_us_801CF910">
<ellipse fill="red" stroke="black" cx="3149.89" cy="-378" rx="118.08" ry="18"/>
<text text-anchor="middle" x="3149.89" y="-374.3" font-family="Times,serif" font-size="14.00">no0.func_us_801CF910</text>
</a>
</g>
</g>
<!-- no0.func_us_801CF910&#45;&gt;no0.AllocEntity -->
<g id="edge14" class="edge">
<title>no0.func_us_801CF910&#45;&gt;no0.AllocEntity</title>
<path fill="none" stroke="black" d="M3195.05,-361.36C3290.36,-328.36 3511.52,-251.77 3612.25,-216.88"/>
<polygon fill="black" stroke="black" points="3613.6,-220.12 3621.9,-213.54 3611.31,-213.51 3613.6,-220.12"/>
<text text-anchor="middle" x="3190.05" y="-350.16" font-family="Times,serif" font-size="14.00">1</text>
</g>
<!-- no0.func_us_801CFBE8 -->
<g id="node16" class="node">
<title>no0.func_us_801CFBE8</title>
<g id="a_node16"><a xlink:href="no0.func_us_801CFBE8.svg" xlink:title="no0.func_us_801CFBE8">
<ellipse fill="red" stroke="black" cx="3406.89" cy="-378" rx="120.48" ry="18"/>
<text text-anchor="middle" x="3406.89" y="-374.3" font-family="Times,serif" font-size="14.00">no0.func_us_801CFBE8</text>
</a>
</g>
</g>
<!-- no0.func_us_801CFBE8&#45;&gt;no0.AllocEntity -->
<g id="edge15" class="edge">
<title>no0.func_us_801CFBE8&#45;&gt;no0.AllocEntity</title>
<path fill="none" stroke="black" d="M3431.07,-360.25C3477.61,-328.02 3579.64,-257.35 3631.8,-221.22"/>
<polygon fill="black" stroke="black" points="3634.11,-223.89 3640.34,-215.31 3630.12,-218.13 3634.11,-223.89"/>
<text text-anchor="middle" x="3426.07" y="-349.05" font-family="Times,serif" font-size="14.00">3</text>
</g>
<!-- no0.func_us_801D0898 -->
<g id="node17" class="node">
<title>no0.func_us_801D0898</title>
<g id="a_node17"><a xlink:href="no0.func_us_801D0898.svg" xlink:title="no0.func_us_801D0898">
<ellipse fill="red" stroke="black" cx="3663.89" cy="-378" rx="118.08" ry="18"/>
<text text-anchor="middle" x="3663.89" y="-374.3" font-family="Times,serif" font-size="14.00">no0.func_us_801D0898</text>
</a>
</g>
</g>
<!-- no0.func_us_801D0898&#45;&gt;no0.AllocEntity -->
<g id="edge16" class="edge">
<title>no0.func_us_801D0898&#45;&gt;no0.AllocEntity</title>
<path fill="none" stroke="black" d="M3663.89,-359.93C3663.89,-328.97 3663.89,-263.3 3663.89,-226.13"/>
<polygon fill="black" stroke="black" points="3667.39,-226.02 3663.89,-216.02 3660.39,-226.02 3667.39,-226.02"/>
<text text-anchor="middle" x="3658.89" y="-348.73" font-family="Times,serif" font-size="14.00">1</text>
</g>
<!-- no0.func_us_801D0E7C -->
<g id="node18" class="node">
<title>no0.func_us_801D0E7C</title>
<g id="a_node18"><a xlink:href="no0.func_us_801D0E7C.svg" xlink:title="no0.func_us_801D0E7C">
<ellipse fill="red" stroke="black" cx="3920.89" cy="-378" rx="120.48" ry="18"/>
<text text-anchor="middle" x="3920.89" y="-374.3" font-family="Times,serif" font-size="14.00">no0.func_us_801D0E7C</text>
</a>
</g>
</g>
<!-- no0.func_us_801D0E7C&#45;&gt;no0.AllocEntity -->
<g id="edge17" class="edge">
<title>no0.func_us_801D0E7C&#45;&gt;no0.AllocEntity</title>
<path fill="none" stroke="black" d="M3896.71,-360.25C3850.17,-328.02 3748.14,-257.35 3695.98,-221.22"/>
<polygon fill="black" stroke="black" points="3697.66,-218.13 3687.44,-215.31 3693.67,-223.89 3697.66,-218.13"/>
<text text-anchor="middle" x="3891.71" y="-349.05" font-family="Times,serif" font-size="14.00">2</text>
</g>
<!-- no0.func_us_801D191C -->
<g id="node19" class="node">
<title>no0.func_us_801D191C</title>
<g id="a_node19"><a xlink:href="no0.func_us_801D191C.svg" xlink:title="no0.func_us_801D191C">
<ellipse fill="red" stroke="black" cx="4178.89" cy="-378" rx="119.68" ry="18"/>
<text text-anchor="middle" x="4178.89" y="-374.3" font-family="Times,serif" font-size="14.00">no0.func_us_801D191C</text>
</a>
</g>
</g>
<!-- no0.func_us_801D191C&#45;&gt;no0.AllocEntity -->
<g id="edge18" class="edge">
<title>no0.func_us_801D191C&#45;&gt;no0.AllocEntity</title>
<path fill="none" stroke="black" d="M4133.19,-361.2C4037.42,-328.1 3816.23,-251.65 3715.52,-216.84"/>
<polygon fill="black" stroke="black" points="3716.46,-213.47 3705.86,-213.51 3714.17,-220.08 3716.46,-213.47"/>
<text text-anchor="middle" x="4128.19" y="-350" font-family="Times,serif" font-size="14.00">4</text>
</g>
<!-- no0.func_us_801D20A4 -->
<g id="node20" class="node">
<title>no0.func_us_801D20A4</title>
<g id="a_node20"><a xlink:href="no0.func_us_801D20A4.svg" xlink:title="no0.func_us_801D20A4">
<ellipse fill="red" stroke="black" cx="4435.89" cy="-378" rx="118.88" ry="18"/>
<text text-anchor="middle" x="4435.89" y="-374.3" font-family="Times,serif" font-size="14.00">no0.func_us_801D20A4</text>
</a>
</g>
</g>
<!-- no0.func_us_801D20A4&#45;&gt;no0.AllocEntity -->
<g id="edge19" class="edge">
<title>no0.func_us_801D20A4&#45;&gt;no0.AllocEntity</title>
<path fill="none" stroke="black" d="M4373.37,-362.58C4229.12,-329.32 3874.25,-247.5 3728.24,-213.84"/>
<polygon fill="black" stroke="black" points="3728.62,-210.33 3718.09,-211.5 3727.05,-217.15 3728.62,-210.33"/>
<text text-anchor="middle" x="4368.37" y="-351.38" font-family="Times,serif" font-size="14.00">1</text>
</g>
<!-- no0.func_us_801D2A64 -->
<g id="node21" class="node">
<title>no0.func_us_801D2A64</title>
<g id="a_node21"><a xlink:href="no0.func_us_801D2A64.svg" xlink:title="no0.func_us_801D2A64">
<ellipse fill="red" stroke="black" cx="4691.89" cy="-378" rx="118.88" ry="18"/>
<text text-anchor="middle" x="4691.89" y="-374.3" font-family="Times,serif" font-size="14.00">no0.func_us_801D2A64</text>
</a>
</g>
</g>
<!-- no0.func_us_801D2A64&#45;&gt;no0.AllocEntity -->
<g id="edge20" class="edge">
<title>no0.func_us_801D2A64&#45;&gt;no0.AllocEntity</title>
<path fill="none" stroke="black" d="M4616.72,-363.98C4425.71,-330.91 3923.65,-243.98 3736.01,-211.49"/>
<polygon fill="black" stroke="black" points="3736.43,-208.01 3725.98,-209.75 3735.23,-214.91 3736.43,-208.01"/>
<text text-anchor="middle" x="4611.72" y="-352.78" font-family="Times,serif" font-size="14.00">1</text>
</g>
<!-- no0.func_us_801D4324 -->
<g id="node22" class="node">
<title>no0.func_us_801D4324</title>
<g id="a_node22"><a xlink:href="no0.func_us_801D4324.svg" xlink:title="no0.func_us_801D4324">
<ellipse fill="red" stroke="black" cx="4946.89" cy="-378" rx="118.08" ry="18"/>
<text text-anchor="middle" x="4946.89" y="-374.3" font-family="Times,serif" font-size="14.00">no0.func_us_801D4324</text>
</a>
</g>
</g>
<!-- no0.func_us_801D4324&#45;&gt;no0.AllocEntity -->
<g id="edge21" class="edge">
<title>no0.func_us_801D4324&#45;&gt;no0.AllocEntity</title>
<path fill="none" stroke="black" d="M4862.71,-365.32C4627.85,-332.74 3967.87,-241.17 3741.35,-209.75"/>
<polygon fill="black" stroke="black" points="3741.6,-206.25 3731.22,-208.34 3740.64,-213.18 3741.6,-206.25"/>
<text text-anchor="middle" x="4857.71" y="-354.12" font-family="Times,serif" font-size="14.00">1</text>
</g>
<!-- no0.func_us_801D542C -->
<g id="node23" class="node">
<title>no0.func_us_801D542C</title>
<g id="a_node23"><a xlink:href="no0.func_us_801D542C.svg" xlink:title="no0.func_us_801D542C">
<ellipse fill="red" stroke="black" cx="5202.89" cy="-378" rx="119.68" ry="18"/>
<text text-anchor="middle" x="5202.89" y="-374.3" font-family="Times,serif" font-size="14.00">no0.func_us_801D542C</text>
</a>
</g>
</g>
<!-- no0.func_us_801D542C&#45;&gt;no0.AllocEntity -->
<g id="edge22" class="edge">
<title>no0.func_us_801D542C&#45;&gt;no0.AllocEntity</title>
<path fill="none" stroke="black" d="M5116.87,-365.45C5102.53,-363.59 5087.79,-361.71 5073.89,-360 4569.58,-297.98 3962.77,-231.4 3745.88,-207.86"/>
<polygon fill="black" stroke="black" points="3746.16,-204.37 3735.84,-206.77 3745.41,-211.33 3746.16,-204.37"/>
<text text-anchor="middle" x="5111.87" y="-354.25" font-family="Times,serif" font-size="14.00">1</text>
</g>
<!-- no0.func_us_801D5E4C -->
<g id="node24" class="node">
<title>no0.func_us_801D5E4C</title>
<g id="a_node24"><a xlink:href="no0.func_us_801D5E4C.svg" xlink:title="no0.func_us_801D5E4C">
<ellipse fill="red" stroke="black" cx="5460.89" cy="-378" rx="120.48" ry="18"/>
<text text-anchor="middle" x="5460.89" y="-374.3" font-family="Times,serif" font-size="14.00">no0.func_us_801D5E4C</text>
</a>
</g>
</g>
<!-- no0.func_us_801D5E4C&#45;&gt;no0.AllocEntity -->
<g id="edge23" class="edge">
<title>no0.func_us_801D5E4C&#45;&gt;no0.AllocEntity</title>
<path fill="none" stroke="black" d="M5375.25,-365.29C5360.78,-363.43 5345.92,-361.6 5331.89,-360 4726.35,-290.9 3994.88,-227.08 3749.09,-206.17"/>
<polygon fill="black" stroke="black" points="3749.06,-202.65 3738.8,-205.29 3748.47,-209.63 3749.06,-202.65"/>
<text text-anchor="middle" x="5370.25" y="-354.09" font-family="Times,serif" font-size="14.00">1</text>
</g>
<!-- no0.func_us_801D606C -->
<g id="node25" class="node">
<title>no0.func_us_801D606C</title>
<g id="a_node25"><a xlink:href="no0.func_us_801D606C.svg" xlink:title="no0.func_us_801D606C">
<ellipse fill="red" stroke="black" cx="5718.89" cy="-378" rx="119.68" ry="18"/>
<text text-anchor="middle" x="5718.89" y="-374.3" font-family="Times,serif" font-size="14.00">no0.func_us_801D606C</text>
</a>
</g>
</g>
<!-- no0.func_us_801D606C&#45;&gt;no0.AllocEntity -->
<g id="edge24" class="edge">
<title>no0.func_us_801D606C&#45;&gt;no0.AllocEntity</title>
<path fill="none" stroke="black" d="M5634.3,-365.27C5619.51,-363.38 5604.26,-361.55 5589.89,-360 4881.73,-283.78 4023.75,-223.27 3751.3,-204.82"/>
<polygon fill="black" stroke="black" points="3751.29,-201.31 3741.08,-204.13 3750.82,-208.29 3751.29,-201.31"/>
<text text-anchor="middle" x="5629.3" y="-354.07" font-family="Times,serif" font-size="14.00">1</text>
</g>
<!-- no0.func_us_801D6474 -->
<g id="node26" class="node">
<title>no0.func_us_801D6474</title>
<g id="a_node26"><a xlink:href="no0.func_us_801D6474.svg" xlink:title="no0.func_us_801D6474">
<ellipse fill="red" stroke="black" cx="5974.89" cy="-378" rx="118.08" ry="18"/>
<text text-anchor="middle" x="5974.89" y="-374.3" font-family="Times,serif" font-size="14.00">no0.func_us_801D6474</text>
</a>
</g>
</g>
<!-- no0.func_us_801D6474&#45;&gt;no0.AllocEntity -->
<g id="edge25" class="edge">
<title>no0.func_us_801D6474&#45;&gt;no0.AllocEntity</title>
<path fill="none" stroke="black" d="M5891.63,-365.13C5877.07,-363.27 5862.05,-361.47 5847.89,-360 5036.42,-275.85 4050.85,-219.65 3753.18,-203.67"/>
<polygon fill="black" stroke="black" points="3753.05,-200.16 3742.88,-203.12 3752.68,-207.15 3753.05,-200.16"/>
<text text-anchor="middle" x="5886.63" y="-353.93" font-family="Times,serif" font-size="14.00">1</text>
</g>
<!-- no0.func_us_801D9264 -->
<g id="node27" class="node">
<title>no0.func_us_801D9264</title>
<g id="a_node27"><a xlink:href="no0.func_us_801D9264.svg" xlink:title="no0.func_us_801D9264">
<ellipse fill="red" stroke="black" cx="6229.89" cy="-378" rx="118.08" ry="18"/>
<text text-anchor="middle" x="6229.89" y="-374.3" font-family="Times,serif" font-size="14.00">no0.func_us_801D9264</text>
</a>
</g>
</g>
<!-- no0.func_us_801D9264&#45;&gt;no0.AllocEntity -->
<g id="edge26" class="edge">
<title>no0.func_us_801D9264&#45;&gt;no0.AllocEntity</title>
<path fill="none" stroke="black" d="M6146.67,-365.14C6131.78,-363.24 6116.39,-361.44 6101.89,-360 5186.88,-269.13 4073.4,-216.71 3753.63,-202.78"/>
<polygon fill="black" stroke="black" points="3753.64,-199.28 3743.5,-202.34 3753.34,-206.27 3753.64,-199.28"/>
<text text-anchor="middle" x="6141.67" y="-353.94" font-family="Times,serif" font-size="14.00">5</text>
</g>
<!-- no0.func_us_801DA488 -->
<g id="node28" class="node">
<title>no0.func_us_801DA488</title>
<g id="a_node28"><a xlink:href="no0.func_us_801DA488.svg" xlink:title="no0.func_us_801DA488">
<ellipse fill="red" stroke="black" cx="6484.89" cy="-378" rx="118.88" ry="18"/>
<text text-anchor="middle" x="6484.89" y="-374.3" font-family="Times,serif" font-size="14.00">no0.func_us_801DA488</text>
</a>
</g>
</g>
<!-- no0.func_us_801DA488&#45;&gt;no0.AllocEntity -->
<g id="edge27" class="edge">
<title>no0.func_us_801DA488&#45;&gt;no0.AllocEntity</title>
<path fill="none" stroke="black" d="M6401.68,-365.06C6386.79,-363.18 6371.39,-361.39 6356.89,-360 5337.73,-261.99 4095.46,-213.97 3754.26,-202.03"/>
<polygon fill="black" stroke="black" points="3754.31,-198.53 3744.19,-201.68 3754.06,-205.52 3754.31,-198.53"/>
<text text-anchor="middle" x="6396.68" y="-353.86" font-family="Times,serif" font-size="14.00">1</text>
</g>
<!-- no0.func_us_801DBDCC -->
<g id="node29" class="node">
<title>no0.func_us_801DBDCC</title>
<g id="a_node29"><a xlink:href="no0.func_us_801DBDCC.svg" xlink:title="no0.func_us_801DBDCC">
<ellipse fill="red" stroke="black" cx="6744.89" cy="-378" rx="122.68" ry="18"/>
<text text-anchor="middle" x="6744.89" y="-374.3" font-family="Times,serif" font-size="14.00">no0.func_us_801DBDCC</text>
</a>
</g>
</g>
<!-- no0.func_us_801DBDCC&#45;&gt;no0.AllocEntity -->
<g id="edge28" class="edge">
<title>no0.func_us_801DBDCC&#45;&gt;no0.AllocEntity</title>
<path fill="none" stroke="black" d="M6659.43,-365.06C6643.96,-363.17 6627.96,-361.38 6612.89,-360 5488.56,-257.05 4116.6,-212.09 3754.83,-201.53"/>
<polygon fill="black" stroke="black" points="3754.78,-198.02 3744.68,-201.23 3754.57,-205.02 3754.78,-198.02"/>
<text text-anchor="middle" x="6654.43" y="-353.86" font-family="Times,serif" font-size="14.00">1</text>
</g>
<!-- no0.func_us_801DC194 -->
<g id="node30" class="node">
<title>no0.func_us_801DC194</title>
<g id="a_node30"><a xlink:href="no0.func_us_801DC194.svg" xlink:title="no0.func_us_801DC194">
<ellipse fill="red" stroke="black" cx="7004.89" cy="-378" rx="119.68" ry="18"/>
<text text-anchor="middle" x="7004.89" y="-374.3" font-family="Times,serif" font-size="14.00">no0.func_us_801DC194</text>
</a>
</g>
</g>
<!-- no0.func_us_801DC194&#45;&gt;no0.AllocEntity -->
<g id="edge29" class="edge">
<title>no0.func_us_801DC194&#45;&gt;no0.AllocEntity</title>
<path fill="none" stroke="black" d="M6922.03,-364.99C6907.03,-363.1 6891.51,-361.34 6876.89,-360 5643.98,-247.43 4137.21,-209.09 3755.23,-200.84"/>
<polygon fill="black" stroke="black" points="3755.14,-197.33 3745.07,-200.62 3754.99,-204.33 3755.14,-197.33"/>
<text text-anchor="middle" x="6917.03" y="-353.79" font-family="Times,serif" font-size="14.00">1</text>
</g>
<!-- no0.func_us_801DCB48 -->
<g id="node31" class="node">
<title>no0.func_us_801DCB48</title>
<g id="a_node31"><a xlink:href="no0.func_us_801DCB48.svg" xlink:title="no0.func_us_801DCB48">
<ellipse fill="red" stroke="black" cx="7262.89" cy="-378" rx="120.48" ry="18"/>
<text text-anchor="middle" x="7262.89" y="-374.3" font-family="Times,serif" font-size="14.00">no0.func_us_801DCB48</text>
</a>
</g>
</g>
<!-- no0.func_us_801DCB48&#45;&gt;no0.AllocEntity -->
<g id="edge30" class="edge">
<title>no0.func_us_801DCB48&#45;&gt;no0.AllocEntity</title>
<path fill="none" stroke="black" d="M7179.73,-364.99C7164.51,-363.09 7148.74,-361.32 7133.89,-360 5794.59,-240.9 4156.16,-207.13 3755.48,-200.4"/>
<polygon fill="black" stroke="black" points="3755.45,-196.9 3745.39,-200.23 3755.34,-203.9 3755.45,-196.9"/>
<text text-anchor="middle" x="7174.73" y="-353.79" font-family="Times,serif" font-size="14.00">2</text>
</g>
</g>
</svg>
