<?xml version="1.0" encoding="UTF-8" standalone="no"?>
<!DOCTYPE svg PUBLIC "-//W3C//DTD SVG 1.1//EN"
 "http://www.w3.org/Graphics/SVG/1.1/DTD/svg11.dtd">
<!-- Generated by graphviz version 2.43.0 (0)
 -->
<!-- Title: no0.CreateEntityFromLayout Pages: 1 -->
<svg width="670pt" height="404pt"
 viewBox="0.00 0.00 670.37 404.00" xmlns="http://www.w3.org/2000/svg" xmlns:xlink="http://www.w3.org/1999/xlink">
<g id="graph0" class="graph" transform="scale(1 1) rotate(0) translate(4 400)">
<title>no0.CreateEntityFromLayout</title>
<polygon fill="white" stroke="transparent" points="-4,4 -4,-400 666.37,-400 666.37,4 -4,4"/>
<!-- no0.CreateEntityFromLayout -->
<g id="node1" class="node">
<title>no0.CreateEntityFromLayout</title>
<ellipse fill="red" stroke="black" cx="374.08" cy="-198" rx="147.57" ry="18"/>
<text text-anchor="middle" x="374.08" y="-194.3" font-family="Times,serif" font-size="14.00">no0.CreateEntityFromLayout</text>
</g>
<!-- no0.DestroyEntity -->
<g id="node2" class="node">
<title>no0.DestroyEntity</title>
<g id="a_node2"><a xlink:href="no0.DestroyEntity.svg" xlink:title="no0.DestroyEntity">
<ellipse fill="green" stroke="black" cx="374.08" cy="-18" rx="96.38" ry="18"/>
<text text-anchor="middle" x="374.08" y="-14.3" font-family="Times,serif" font-size="14.00">no0.DestroyEntity</text>
</a>
</g>
</g>
<!-- no0.CreateEntityFromLayout&#45;&gt;no0.DestroyEntity -->
<g id="edge1" class="edge">
<title>no0.CreateEntityFromLayout&#45;&gt;no0.DestroyEntity</title>
<path fill="none" stroke="black" d="M374.08,-179.93C374.08,-148.97 374.08,-83.3 374.08,-46.13"/>
<polygon fill="black" stroke="black" points="377.58,-46.02 374.08,-36.02 370.58,-46.02 377.58,-46.02"/>
<text text-anchor="middle" x="369.08" y="-39.82" font-family="Times,serif" font-size="14.00">1</text>
</g>
<!-- no0.CreateEntityWhenInHorizontalRange -->
<g id="node3" class="node">
<title>no0.CreateEntityWhenInHorizontalRange</title>
<g id="a_node3"><a xlink:href="no0.CreateEntityWhenInHorizontalRange.svg" xlink:title="no0.CreateEntityWhenInHorizontalRange">
<ellipse fill="green" stroke="black" cx="204.08" cy="-378" rx="204.16" ry="18"/>
<text text-anchor="middle" x="204.08" y="-374.3" font-family="Times,serif" font-size="14.00">no0.CreateEntityWhenInHorizontalRange</text>
</a>
</g>
</g>
<!-- no0.CreateEntityWhenInHorizontalRange&#45;&gt;no0.CreateEntityFromLayout -->
<g id="edge2" class="edge">
<title>no0.CreateEntityWhenInHorizontalRange&#45;&gt;no0.CreateEntityFromLayout</title>
<path fill="none" stroke="black" d="M220.38,-359.93C250.72,-328.17 315.92,-259.89 350.86,-223.32"/>
<polygon fill="black" stroke="black" points="353.46,-225.66 357.83,-216.02 348.39,-220.83 353.46,-225.66"/>
<text text-anchor="middle" x="215.38" y="-348.73" font-family="Times,serif" font-size="14.00">1</text>
</g>
<!-- no0.func_us_801C5554 -->
<g id="node4" class="node">
<title>no0.func_us_801C5554</title>
<g id="a_node4"><a xlink:href="no0.func_us_801C5554.svg" xlink:title="no0.func_us_801C5554">
<ellipse fill="red" stroke="black" cx="544.08" cy="-378" rx="118.08" ry="18"/>
<text text-anchor="middle" x="544.08" y="-374.3" font-family="Times,serif" font-size="14.00">no0.func_us_801C5554</text>
</a>
</g>
</g>
<!-- no0.func_us_801C5554&#45;&gt;no0.CreateEntityFromLayout -->
<g id="edge3" class="edge">
<title>no0.func_us_801C5554&#45;&gt;no0.CreateEntityFromLayout</title>
<path fill="none" stroke="black" d="M527.78,-359.93C497.45,-328.17 432.24,-259.89 397.3,-223.32"/>
<polygon fill="black" stroke="black" points="399.77,-220.83 390.33,-216.02 394.71,-225.66 399.77,-220.83"/>
<text text-anchor="middle" x="522.78" y="-348.73" font-family="Times,serif" font-size="14.00">1</text>
</g>
</g>
</svg>
