<?xml version="1.0" encoding="UTF-8" standalone="no"?>
<!DOCTYPE svg PUBLIC "-//W3C//DTD SVG 1.1//EN"
 "http://www.w3.org/Graphics/SVG/1.1/DTD/svg11.dtd">
<!-- Generated by graphviz version 2.43.0 (0)
 -->
<!-- Title: no0.func_us_801D75E4 Pages: 1 -->
<svg width="641pt" height="404pt"
 viewBox="0.00 0.00 640.88 404.00" xmlns="http://www.w3.org/2000/svg" xmlns:xlink="http://www.w3.org/1999/xlink">
<g id="graph0" class="graph" transform="scale(1 1) rotate(0) translate(4 400)">
<title>no0.func_us_801D75E4</title>
<polygon fill="white" stroke="transparent" points="-4,4 -4,-400 636.88,-400 636.88,4 -4,4"/>
<!-- no0.func_us_801D75E4 -->
<g id="node1" class="node">
<title>no0.func_us_801D75E4</title>
<ellipse fill="red" stroke="black" cx="265.59" cy="-198" rx="119.68" ry="18"/>
<text text-anchor="middle" x="265.59" y="-194.3" font-family="Times,serif" font-size="14.00">no0.func_us_801D75E4</text>
</g>
<!-- no0.SetStep -->
<g id="node2" class="node">
<title>no0.SetStep</title>
<g id="a_node2"><a xlink:href="no0.SetStep.svg" xlink:title="no0.SetStep">
<ellipse fill="green" stroke="black" cx="67.59" cy="-18" rx="67.69" ry="18"/>
<text text-anchor="middle" x="67.59" y="-14.3" font-family="Times,serif" font-size="14.00">no0.SetStep</text>
</a>
</g>
</g>
<!-- no0.func_us_801D75E4&#45;&gt;no0.SetStep -->
<g id="edge1" class="edge">
<title>no0.func_us_801D75E4&#45;&gt;no0.SetStep</title>
<path fill="none" stroke="black" d="M246.61,-179.93C210.95,-147.87 133.91,-78.62 93.51,-42.3"/>
<polygon fill="black" stroke="black" points="95.72,-39.58 85.95,-35.5 91.04,-44.79 95.72,-39.58"/>
<text text-anchor="middle" x="80.95" y="-39.3" font-family="Times,serif" font-size="14.00">1</text>
</g>
<!-- no0.UnkCollisionFunc -->
<g id="node3" class="node">
<title>no0.UnkCollisionFunc</title>
<g id="a_node3"><a xlink:href="no0.UnkCollisionFunc.svg" xlink:title="no0.UnkCollisionFunc">
<ellipse fill="green" stroke="black" cx="265.59" cy="-18" rx="112.38" ry="18"/>
<text text-anchor="middle" x="265.59" y="-14.3" font-family="Times,serif" font-size="14.00">no0.UnkCollisionFunc</text>
</a>
</g>
</g>
<!-- no0.func_us_801D75E4&#45;&gt;no0.UnkCollisionFunc -->
<g id="edge2" class="edge">
<title>no0.func_us_801D75E4&#45;&gt;no0.UnkCollisionFunc</title>
<path fill="none" stroke="black" d="M265.59,-179.93C265.59,-148.97 265.59,-83.3 265.59,-46.13"/>
<polygon fill="black" stroke="black" points="269.09,-46.02 265.59,-36.02 262.09,-46.02 269.09,-46.02"/>
<text text-anchor="middle" x="260.59" y="-39.82" font-family="Times,serif" font-size="14.00">1</text>
</g>
<!-- no0.UnkCollisionFunc2 -->
<g id="node4" class="node">
<title>no0.UnkCollisionFunc2</title>
<g id="a_node4"><a xlink:href="no0.UnkCollisionFunc2.svg" xlink:title="no0.UnkCollisionFunc2">
<ellipse fill="green" stroke="black" cx="514.59" cy="-18" rx="118.08" ry="18"/>
<text text-anchor="middle" x="514.59" y="-14.3" font-family="Times,serif" font-size="14.00">no0.UnkCollisionFunc2</text>
</a>
</g>
</g>
<!-- no0.func_us_801D75E4&#45;&gt;no0.UnkCollisionFunc2 -->
<g id="edge3" class="edge">
<title>no0.func_us_801D75E4&#45;&gt;no0.UnkCollisionFunc2</title>
<path fill="none" stroke="black" d="M289.02,-180.25C333.88,-148.18 431.97,-78.07 482.73,-41.78"/>
<polygon fill="black" stroke="black" points="484.95,-44.49 491.05,-35.83 480.88,-38.8 484.95,-44.49"/>
<text text-anchor="middle" x="486.05" y="-39.63" font-family="Times,serif" font-size="14.00">1</text>
</g>
<!-- no0.func_us_801D7670 -->
<g id="node5" class="node">
<title>no0.func_us_801D7670</title>
<g id="a_node5"><a xlink:href="no0.func_us_801D7670.svg" xlink:title="no0.func_us_801D7670">
<ellipse fill="red" stroke="black" cx="265.59" cy="-378" rx="118.08" ry="18"/>
<text text-anchor="middle" x="265.59" y="-374.3" font-family="Times,serif" font-size="14.00">no0.func_us_801D7670</text>
</a>
</g>
</g>
<!-- no0.func_us_801D7670&#45;&gt;no0.func_us_801D75E4 -->
<g id="edge4" class="edge">
<title>no0.func_us_801D7670&#45;&gt;no0.func_us_801D75E4</title>
<path fill="none" stroke="black" d="M265.59,-359.93C265.59,-328.97 265.59,-263.3 265.59,-226.13"/>
<polygon fill="black" stroke="black" points="269.09,-226.02 265.59,-216.02 262.09,-226.02 269.09,-226.02"/>
<text text-anchor="middle" x="260.59" y="-348.73" font-family="Times,serif" font-size="14.00">1</text>
</g>
</g>
</svg>
