<?xml version="1.0" encoding="UTF-8" standalone="no"?>
<!DOCTYPE svg PUBLIC "-//W3C//DTD SVG 1.1//EN"
 "http://www.w3.org/Graphics/SVG/1.1/DTD/svg11.dtd">
<!-- Generated by graphviz version 2.43.0 (0)
 -->
<!-- Title: no0.func_us_801D7D00 Pages: 1 -->
<svg width="410pt" height="404pt"
 viewBox="0.00 0.00 410.38 404.00" xmlns="http://www.w3.org/2000/svg" xmlns:xlink="http://www.w3.org/1999/xlink">
<g id="graph0" class="graph" transform="scale(1 1) rotate(0) translate(4 400)">
<title>no0.func_us_801D7D00</title>
<polygon fill="white" stroke="transparent" points="-4,4 -4,-400 406.38,-400 406.38,4 -4,4"/>
<!-- no0.func_us_801D7D00 -->
<g id="node1" class="node">
<title>no0.func_us_801D7D00</title>
<ellipse fill="red" stroke="black" cx="201.19" cy="-198" rx="120.48" ry="18"/>
<text text-anchor="middle" x="201.19" y="-194.3" font-family="Times,serif" font-size="14.00">no0.func_us_801D7D00</text>
</g>
<!-- dra.GetFreeEntity -->
<g id="node2" class="node">
<title>dra.GetFreeEntity</title>
<g id="a_node2"><a xlink:href="dra.GetFreeEntity.svg" xlink:title="dra.GetFreeEntity">
<ellipse fill="green" stroke="black" cx="96.19" cy="-18" rx="96.38" ry="18"/>
<text text-anchor="middle" x="96.19" y="-14.3" font-family="Times,serif" font-size="14.00">dra.GetFreeEntity</text>
</a>
</g>
</g>
<!-- no0.func_us_801D7D00&#45;&gt;dra.GetFreeEntity -->
<g id="edge1" class="edge">
<title>no0.func_us_801D7D00&#45;&gt;dra.GetFreeEntity</title>
<path fill="none" stroke="black" d="M191.12,-179.93C172.62,-148.57 133.12,-81.6 111.36,-44.71"/>
<polygon fill="black" stroke="black" points="114.32,-42.85 106.23,-36.02 108.3,-46.41 114.32,-42.85"/>
<text text-anchor="middle" x="101.23" y="-39.82" font-family="Times,serif" font-size="14.00">1</text>
</g>
<!-- no0.DestroyEntity -->
<g id="node3" class="node">
<title>no0.DestroyEntity</title>
<g id="a_node3"><a xlink:href="no0.DestroyEntity.svg" xlink:title="no0.DestroyEntity">
<ellipse fill="green" stroke="black" cx="306.19" cy="-18" rx="96.38" ry="18"/>
<text text-anchor="middle" x="306.19" y="-14.3" font-family="Times,serif" font-size="14.00">no0.DestroyEntity</text>
</a>
</g>
</g>
<!-- no0.func_us_801D7D00&#45;&gt;no0.DestroyEntity -->
<g id="edge2" class="edge">
<title>no0.func_us_801D7D00&#45;&gt;no0.DestroyEntity</title>
<path fill="none" stroke="black" d="M211.26,-179.93C229.76,-148.57 269.26,-81.6 291.03,-44.71"/>
<polygon fill="black" stroke="black" points="294.09,-46.41 296.15,-36.02 288.06,-42.85 294.09,-46.41"/>
<text text-anchor="middle" x="291.15" y="-39.82" font-family="Times,serif" font-size="14.00">1</text>
</g>
<!-- no0.func_us_801D8150 -->
<g id="node4" class="node">
<title>no0.func_us_801D8150</title>
<g id="a_node4"><a xlink:href="no0.func_us_801D8150.svg" xlink:title="no0.func_us_801D8150">
<ellipse fill="red" stroke="black" cx="201.19" cy="-378" rx="118.08" ry="18"/>
<text text-anchor="middle" x="201.19" y="-374.3" font-family="Times,serif" font-size="14.00">no0.func_us_801D8150</text>
</a>
</g>
</g>
<!-- no0.func_us_801D8150&#45;&gt;no0.func_us_801D7D00 -->
<g id="edge3" class="edge">
<title>no0.func_us_801D8150&#45;&gt;no0.func_us_801D7D00</title>
<path fill="none" stroke="black" d="M201.19,-359.93C201.19,-328.97 201.19,-263.3 201.19,-226.13"/>
<polygon fill="black" stroke="black" points="204.69,-226.02 201.19,-216.02 197.69,-226.02 204.69,-226.02"/>
<text text-anchor="middle" x="196.19" y="-348.73" font-family="Times,serif" font-size="14.00">3</text>
</g>
</g>
</svg>
