<?xml version="1.0" encoding="UTF-8" standalone="no"?>
<!DOCTYPE svg PUBLIC "-//W3C//DTD SVG 1.1//EN"
 "http://www.w3.org/Graphics/SVG/1.1/DTD/svg11.dtd">
<!-- Generated by graphviz version 2.43.0 (0)
 -->
<!-- Title: no0.EntityCtulhu Pages: 1 -->
<svg width="4563pt" height="224pt"
 viewBox="0.00 0.00 4562.64 224.00" xmlns="http://www.w3.org/2000/svg" xmlns:xlink="http://www.w3.org/1999/xlink">
<g id="graph0" class="graph" transform="scale(1 1) rotate(0) translate(4 220)">
<title>no0.EntityCtulhu</title>
<polygon fill="white" stroke="transparent" points="-4,4 -4,-220 4558.64,-220 4558.64,4 -4,4"/>
<!-- no0.EntityCtulhu -->
<g id="node1" class="node">
<title>no0.EntityCtulhu</title>
<ellipse fill="green" stroke="black" cx="2431.05" cy="-198" rx="90.98" ry="18"/>
<text text-anchor="middle" x="2431.05" y="-194.3" font-family="Times,serif" font-size="14.00">no0.EntityCtulhu</text>
</g>
<!-- FntPrint -->
<g id="node2" class="node">
<title>FntPrint</title>
<g id="a_node2"><a xlink:href="FntPrint.svg" xlink:title="FntPrint">
<ellipse fill="lightblue" stroke="black" cx="50.05" cy="-18" rx="50.09" ry="18"/>
<text text-anchor="middle" x="50.05" y="-14.3" font-family="Times,serif" font-size="14.00">FntPrint</text>
</a>
</g>
</g>
<!-- no0.EntityCtulhu&#45;&gt;FntPrint -->
<g id="edge1" class="edge">
<title>no0.EntityCtulhu&#45;&gt;FntPrint</title>
<path fill="none" stroke="black" d="M2340.02,-197.56C2027.02,-198.04 967.08,-187.6 109.05,-36 104.68,-35.23 100.17,-34.26 95.68,-33.17"/>
<polygon fill="black" stroke="black" points="96.51,-29.77 85.96,-30.65 94.76,-36.55 96.51,-29.77"/>
<text text-anchor="middle" x="80.96" y="-34.45" font-family="Times,serif" font-size="14.00">1</text>
</g>
<!-- SetDrawEnv -->
<g id="node3" class="node">
<title>SetDrawEnv</title>
<g id="a_node3"><a xlink:href="SetDrawEnv.svg" xlink:title="SetDrawEnv">
<ellipse fill="lightblue" stroke="black" cx="188.05" cy="-18" rx="69.59" ry="18"/>
<text text-anchor="middle" x="188.05" y="-14.3" font-family="Times,serif" font-size="14.00">SetDrawEnv</text>
</a>
</g>
</g>
<!-- no0.EntityCtulhu&#45;&gt;SetDrawEnv -->
<g id="edge2" class="edge">
<title>no0.EntityCtulhu&#45;&gt;SetDrawEnv</title>
<path fill="none" stroke="black" d="M2341.42,-194.75C2044.48,-186.36 1066.41,-151.18 267.05,-36 260.76,-35.09 254.22,-33.98 247.72,-32.75"/>
<polygon fill="black" stroke="black" points="248.07,-29.25 237.58,-30.75 246.72,-36.12 248.07,-29.25"/>
<text text-anchor="middle" x="232.58" y="-34.55" font-family="Times,serif" font-size="14.00">2</text>
</g>
<!-- dra.AllocPrimitives -->
<g id="node4" class="node">
<title>dra.AllocPrimitives</title>
<g id="a_node4"><a xlink:href="dra.AllocPrimitives.svg" xlink:title="dra.AllocPrimitives">
<ellipse fill="green" stroke="black" cx="375.05" cy="-18" rx="99.38" ry="18"/>
<text text-anchor="middle" x="375.05" y="-14.3" font-family="Times,serif" font-size="14.00">dra.AllocPrimitives</text>
</a>
</g>
</g>
<!-- no0.EntityCtulhu&#45;&gt;dra.AllocPrimitives -->
<g id="edge3" class="edge">
<title>no0.EntityCtulhu&#45;&gt;dra.AllocPrimitives</title>
<path fill="none" stroke="black" d="M2344.89,-192.15C2071.67,-176.29 1200.3,-121.97 483.05,-36 474.05,-34.92 464.65,-33.65 455.32,-32.31"/>
<polygon fill="black" stroke="black" points="455.64,-28.82 445.24,-30.82 454.62,-35.74 455.64,-28.82"/>
<text text-anchor="middle" x="440.24" y="-34.62" font-family="Times,serif" font-size="14.00">1</text>
</g>
<!-- dra.func_800EDB08 -->
<g id="node5" class="node">
<title>dra.func_800EDB08</title>
<g id="a_node5"><a xlink:href="dra.func_800EDB08.svg" xlink:title="dra.func_800EDB08">
<ellipse fill="green" stroke="black" cx="596.05" cy="-18" rx="103.98" ry="18"/>
<text text-anchor="middle" x="596.05" y="-14.3" font-family="Times,serif" font-size="14.00">dra.func_800EDB08</text>
</a>
</g>
</g>
<!-- no0.EntityCtulhu&#45;&gt;dra.func_800EDB08 -->
<g id="edge4" class="edge">
<title>no0.EntityCtulhu&#45;&gt;dra.func_800EDB08</title>
<path fill="none" stroke="black" d="M2347.09,-190.83C2097.25,-172.11 1336.83,-112.51 709.05,-36 699.62,-34.85 689.77,-33.54 679.98,-32.16"/>
<polygon fill="black" stroke="black" points="680.21,-28.66 669.82,-30.71 679.22,-35.59 680.21,-28.66"/>
<text text-anchor="middle" x="664.82" y="-34.51" font-family="Times,serif" font-size="14.00">2</text>
</g>
<!-- no0.AllocEntity -->
<g id="node6" class="node">
<title>no0.AllocEntity</title>
<g id="a_node6"><a xlink:href="no0.AllocEntity.svg" xlink:title="no0.AllocEntity">
<ellipse fill="green" stroke="black" cx="800.05" cy="-18" rx="81.79" ry="18"/>
<text text-anchor="middle" x="800.05" y="-14.3" font-family="Times,serif" font-size="14.00">no0.AllocEntity</text>
</a>
</g>
</g>
<!-- no0.EntityCtulhu&#45;&gt;no0.AllocEntity -->
<g id="edge5" class="edge">
<title>no0.EntityCtulhu&#45;&gt;no0.AllocEntity</title>
<path fill="none" stroke="black" d="M2347.7,-190.66C2115.99,-172.53 1444.7,-116.52 891.05,-36 883.75,-34.94 876.14,-33.71 868.57,-32.41"/>
<polygon fill="black" stroke="black" points="869.13,-28.96 858.67,-30.67 867.91,-35.85 869.13,-28.96"/>
<text text-anchor="middle" x="853.67" y="-34.47" font-family="Times,serif" font-size="14.00">5</text>
</g>
<!-- no0.AnimateEntity -->
<g id="node7" class="node">
<title>no0.AnimateEntity</title>
<g id="a_node7"><a xlink:href="no0.AnimateEntity.svg" xlink:title="no0.AnimateEntity">
<ellipse fill="green" stroke="black" cx="998.05" cy="-18" rx="98.28" ry="18"/>
<text text-anchor="middle" x="998.05" y="-14.3" font-family="Times,serif" font-size="14.00">no0.AnimateEntity</text>
</a>
</g>
</g>
<!-- no0.EntityCtulhu&#45;&gt;no0.AnimateEntity -->
<g id="edge6" class="edge">
<title>no0.EntityCtulhu&#45;&gt;no0.AnimateEntity</title>
<path fill="none" stroke="black" d="M2353.2,-188.56C2148.46,-166.14 1578.14,-102.28 1105.05,-36 1096.45,-34.8 1087.48,-33.47 1078.55,-32.12"/>
<polygon fill="black" stroke="black" points="1078.91,-28.63 1068.5,-30.57 1077.85,-35.55 1078.91,-28.63"/>
<text text-anchor="middle" x="1059" y="-34.37" font-family="Times,serif" font-size="14.00">11</text>
</g>
<!-- no0.CreateEntityFromCurrentEntity -->
<g id="node8" class="node">
<title>no0.CreateEntityFromCurrentEntity</title>
<g id="a_node8"><a xlink:href="no0.CreateEntityFromCurrentEntity.svg" xlink:title="no0.CreateEntityFromCurrentEntity">
<ellipse fill="green" stroke="black" cx="1295.05" cy="-18" rx="180.87" ry="18"/>
<text text-anchor="middle" x="1295.05" y="-14.3" font-family="Times,serif" font-size="14.00">no0.CreateEntityFromCurrentEntity</text>
</a>
</g>
</g>
<!-- no0.EntityCtulhu&#45;&gt;no0.CreateEntityFromCurrentEntity -->
<g id="edge7" class="edge">
<title>no0.EntityCtulhu&#45;&gt;no0.CreateEntityFromCurrentEntity</title>
<path fill="none" stroke="black" d="M2362.12,-186.2C2169.57,-156.03 1625.22,-70.74 1397.35,-35.03"/>
<polygon fill="black" stroke="black" points="1397.82,-31.56 1387.4,-33.47 1396.74,-38.48 1397.82,-31.56"/>
<text text-anchor="middle" x="1382.4" y="-37.27" font-family="Times,serif" font-size="14.00">2</text>
</g>
<!-- no0.CreateEntityFromEntity -->
<g id="node9" class="node">
<title>no0.CreateEntityFromEntity</title>
<g id="a_node9"><a xlink:href="no0.CreateEntityFromEntity.svg" xlink:title="no0.CreateEntityFromEntity">
<ellipse fill="green" stroke="black" cx="1638.05" cy="-18" rx="144.07" ry="18"/>
<text text-anchor="middle" x="1638.05" y="-14.3" font-family="Times,serif" font-size="14.00">no0.CreateEntityFromEntity</text>
</a>
</g>
</g>
<!-- no0.EntityCtulhu&#45;&gt;no0.CreateEntityFromEntity -->
<g id="edge8" class="edge">
<title>no0.EntityCtulhu&#45;&gt;no0.CreateEntityFromEntity</title>
<path fill="none" stroke="black" d="M2373.38,-184.06C2233,-152.55 1873.47,-71.84 1715.02,-36.28"/>
<polygon fill="black" stroke="black" points="1715.4,-32.78 1704.87,-34 1713.87,-39.61 1715.4,-32.78"/>
<text text-anchor="middle" x="1699.87" y="-37.8" font-family="Times,serif" font-size="14.00">3</text>
</g>
<!-- no0.DestroyEntity -->
<g id="node10" class="node">
<title>no0.DestroyEntity</title>
<g id="a_node10"><a xlink:href="no0.DestroyEntity.svg" xlink:title="no0.DestroyEntity">
<ellipse fill="green" stroke="black" cx="1896.05" cy="-18" rx="96.38" ry="18"/>
<text text-anchor="middle" x="1896.05" y="-14.3" font-family="Times,serif" font-size="14.00">no0.DestroyEntity</text>
</a>
</g>
</g>
<!-- no0.EntityCtulhu&#45;&gt;no0.DestroyEntity -->
<g id="edge9" class="edge">
<title>no0.EntityCtulhu&#45;&gt;no0.DestroyEntity</title>
<path fill="none" stroke="black" d="M2386.35,-182.13C2288.7,-149.64 2056.55,-72.4 1950.54,-37.13"/>
<polygon fill="black" stroke="black" points="1951.58,-33.79 1940.99,-33.95 1949.37,-40.43 1951.58,-33.79"/>
<text text-anchor="middle" x="1935.99" y="-37.75" font-family="Times,serif" font-size="14.00">1</text>
</g>
<!-- no0.GetDistanceToPlayerX -->
<g id="node11" class="node">
<title>no0.GetDistanceToPlayerX</title>
<g id="a_node11"><a xlink:href="no0.GetDistanceToPlayerX.svg" xlink:title="no0.GetDistanceToPlayerX">
<ellipse fill="green" stroke="black" cx="2145.05" cy="-18" rx="134.58" ry="18"/>
<text text-anchor="middle" x="2145.05" y="-14.3" font-family="Times,serif" font-size="14.00">no0.GetDistanceToPlayerX</text>
</a>
</g>
</g>
<!-- no0.EntityCtulhu&#45;&gt;no0.GetDistanceToPlayerX -->
<g id="edge10" class="edge">
<title>no0.EntityCtulhu&#45;&gt;no0.GetDistanceToPlayerX</title>
<path fill="none" stroke="black" d="M2404.91,-180.73C2353.36,-148.65 2238.56,-77.2 2180.35,-40.97"/>
<polygon fill="black" stroke="black" points="2182.19,-38 2171.85,-35.68 2178.49,-43.94 2182.19,-38"/>
<text text-anchor="middle" x="2166.85" y="-39.48" font-family="Times,serif" font-size="14.00">2</text>
</g>
<!-- no0.GetDistanceToPlayerY -->
<g id="node12" class="node">
<title>no0.GetDistanceToPlayerY</title>
<g id="a_node12"><a xlink:href="no0.GetDistanceToPlayerY.svg" xlink:title="no0.GetDistanceToPlayerY">
<ellipse fill="green" stroke="black" cx="2431.05" cy="-18" rx="133.78" ry="18"/>
<text text-anchor="middle" x="2431.05" y="-14.3" font-family="Times,serif" font-size="14.00">no0.GetDistanceToPlayerY</text>
</a>
</g>
</g>
<!-- no0.EntityCtulhu&#45;&gt;no0.GetDistanceToPlayerY -->
<g id="edge11" class="edge">
<title>no0.EntityCtulhu&#45;&gt;no0.GetDistanceToPlayerY</title>
<path fill="none" stroke="black" d="M2431.05,-179.93C2431.05,-148.97 2431.05,-83.3 2431.05,-46.13"/>
<polygon fill="black" stroke="black" points="2434.55,-46.02 2431.05,-36.02 2427.55,-46.02 2434.55,-46.02"/>
<text text-anchor="middle" x="2426.05" y="-39.82" font-family="Times,serif" font-size="14.00">3</text>
</g>
<!-- no0.GetSideToPlayer -->
<g id="node13" class="node">
<title>no0.GetSideToPlayer</title>
<g id="a_node13"><a xlink:href="no0.GetSideToPlayer.svg" xlink:title="no0.GetSideToPlayer">
<ellipse fill="green" stroke="black" cx="2691.05" cy="-18" rx="108.58" ry="18"/>
<text text-anchor="middle" x="2691.05" y="-14.3" font-family="Times,serif" font-size="14.00">no0.GetSideToPlayer</text>
</a>
</g>
</g>
<!-- no0.EntityCtulhu&#45;&gt;no0.GetSideToPlayer -->
<g id="edge12" class="edge">
<title>no0.EntityCtulhu&#45;&gt;no0.GetSideToPlayer</title>
<path fill="none" stroke="black" d="M2455.04,-180.57C2501.84,-148.53 2605.35,-77.67 2658.37,-41.37"/>
<polygon fill="black" stroke="black" points="2660.46,-44.18 2666.73,-35.65 2656.5,-38.41 2660.46,-44.18"/>
<text text-anchor="middle" x="2661.73" y="-39.45" font-family="Times,serif" font-size="14.00">3</text>
</g>
<!-- no0.InitializeEntity -->
<g id="node14" class="node">
<title>no0.InitializeEntity</title>
<g id="a_node14"><a xlink:href="no0.InitializeEntity.svg" xlink:title="no0.InitializeEntity">
<ellipse fill="green" stroke="black" cx="2918.05" cy="-18" rx="100.18" ry="18"/>
<text text-anchor="middle" x="2918.05" y="-14.3" font-family="Times,serif" font-size="14.00">no0.InitializeEntity</text>
</a>
</g>
</g>
<!-- no0.EntityCtulhu&#45;&gt;no0.InitializeEntity -->
<g id="edge13" class="edge">
<title>no0.EntityCtulhu&#45;&gt;no0.InitializeEntity</title>
<path fill="none" stroke="black" d="M2472.57,-181.82C2561.3,-149.39 2769.2,-73.4 2866.33,-37.9"/>
<polygon fill="black" stroke="black" points="2867.75,-41.11 2875.94,-34.39 2865.34,-34.54 2867.75,-41.11"/>
<text text-anchor="middle" x="2870.94" y="-38.19" font-family="Times,serif" font-size="14.00">1</text>
</g>
<!-- no0.MoveEntity -->
<g id="node15" class="node">
<title>no0.MoveEntity</title>
<g id="a_node15"><a xlink:href="no0.MoveEntity.svg" xlink:title="no0.MoveEntity">
<ellipse fill="green" stroke="black" cx="3121.05" cy="-18" rx="85.29" ry="18"/>
<text text-anchor="middle" x="3121.05" y="-14.3" font-family="Times,serif" font-size="14.00">no0.MoveEntity</text>
</a>
</g>
</g>
<!-- no0.EntityCtulhu&#45;&gt;no0.MoveEntity -->
<g id="edge14" class="edge">
<title>no0.EntityCtulhu&#45;&gt;no0.MoveEntity</title>
<path fill="none" stroke="black" d="M2484.04,-183.33C2609.81,-150.88 2925.73,-69.39 3059.58,-34.86"/>
<polygon fill="black" stroke="black" points="3060.47,-38.24 3069.28,-32.35 3058.72,-31.46 3060.47,-38.24"/>
<text text-anchor="middle" x="3064.28" y="-36.15" font-family="Times,serif" font-size="14.00">2</text>
</g>
<!-- no0.PlaySfxPositional -->
<g id="node16" class="node">
<title>no0.PlaySfxPositional</title>
<g id="a_node16"><a xlink:href="no0.PlaySfxPositional.svg" xlink:title="no0.PlaySfxPositional">
<ellipse fill="green" stroke="black" cx="3335.05" cy="-18" rx="111.28" ry="18"/>
<text text-anchor="middle" x="3335.05" y="-14.3" font-family="Times,serif" font-size="14.00">no0.PlaySfxPositional</text>
</a>
</g>
</g>
<!-- no0.EntityCtulhu&#45;&gt;no0.PlaySfxPositional -->
<g id="edge15" class="edge">
<title>no0.EntityCtulhu&#45;&gt;no0.PlaySfxPositional</title>
<path fill="none" stroke="black" d="M2493.18,-184.77C2653.52,-153.19 3080.96,-69.03 3257.3,-34.31"/>
<polygon fill="black" stroke="black" points="3258.15,-37.71 3267.29,-32.34 3256.8,-30.84 3258.15,-37.71"/>
<text text-anchor="middle" x="3257.79" y="-36.14" font-family="Times,serif" font-size="14.00">12</text>
</g>
<!-- no0.Random -->
<g id="node17" class="node">
<title>no0.Random</title>
<g id="a_node17"><a xlink:href="no0.Random.svg" xlink:title="no0.Random">
<ellipse fill="green" stroke="black" cx="3533.05" cy="-18" rx="68.79" ry="18"/>
<text text-anchor="middle" x="3533.05" y="-14.3" font-family="Times,serif" font-size="14.00">no0.Random</text>
</a>
</g>
</g>
<!-- no0.EntityCtulhu&#45;&gt;no0.Random -->
<g id="edge16" class="edge">
<title>no0.EntityCtulhu&#45;&gt;no0.Random</title>
<path fill="none" stroke="black" d="M2503.61,-187.08C2671.54,-163.81 3099.73,-102.59 3455.05,-36 3460.81,-34.92 3466.79,-33.73 3472.77,-32.5"/>
<polygon fill="black" stroke="black" points="3473.71,-35.88 3482.78,-30.41 3472.28,-29.03 3473.71,-35.88"/>
<text text-anchor="middle" x="3477.78" y="-34.21" font-family="Times,serif" font-size="14.00">1</text>
</g>
<!-- no0.SetStep -->
<g id="node18" class="node">
<title>no0.SetStep</title>
<g id="a_node18"><a xlink:href="no0.SetStep.svg" xlink:title="no0.SetStep">
<ellipse fill="green" stroke="black" cx="3687.05" cy="-18" rx="67.69" ry="18"/>
<text text-anchor="middle" x="3687.05" y="-14.3" font-family="Times,serif" font-size="14.00">no0.SetStep</text>
</a>
</g>
</g>
<!-- no0.EntityCtulhu&#45;&gt;no0.SetStep -->
<g id="edge17" class="edge">
<title>no0.EntityCtulhu&#45;&gt;no0.SetStep</title>
<path fill="none" stroke="black" d="M2509.07,-188.66C2698.63,-167.91 3198.2,-110.2 3611.05,-36 3616.53,-35.01 3622.23,-33.9 3627.92,-32.74"/>
<polygon fill="black" stroke="black" points="3629.05,-36.07 3638.11,-30.58 3627.6,-29.22 3629.05,-36.07"/>
<text text-anchor="middle" x="3628.61" y="-34.38" font-family="Times,serif" font-size="14.00">11</text>
</g>
<!-- no0.SetSubStep -->
<g id="node19" class="node">
<title>no0.SetSubStep</title>
<g id="a_node19"><a xlink:href="no0.SetSubStep.svg" xlink:title="no0.SetSubStep">
<ellipse fill="green" stroke="black" cx="3858.05" cy="-18" rx="85.59" ry="18"/>
<text text-anchor="middle" x="3858.05" y="-14.3" font-family="Times,serif" font-size="14.00">no0.SetSubStep</text>
</a>
</g>
</g>
<!-- no0.EntityCtulhu&#45;&gt;no0.SetSubStep -->
<g id="edge18" class="edge">
<title>no0.EntityCtulhu&#45;&gt;no0.SetSubStep</title>
<path fill="none" stroke="black" d="M2510.14,-189.09C2716.81,-168.05 3289.78,-107.46 3764.05,-36 3771.4,-34.89 3779.06,-33.65 3786.7,-32.36"/>
<polygon fill="black" stroke="black" points="3787.44,-35.78 3796.7,-30.63 3786.25,-28.88 3787.44,-35.78"/>
<text text-anchor="middle" x="3791.7" y="-34.43" font-family="Times,serif" font-size="14.00">6</text>
</g>
<!-- no0.UnkCollisionFunc2 -->
<g id="node20" class="node">
<title>no0.UnkCollisionFunc2</title>
<g id="a_node20"><a xlink:href="no0.UnkCollisionFunc2.svg" xlink:title="no0.UnkCollisionFunc2">
<ellipse fill="green" stroke="black" cx="4080.05" cy="-18" rx="118.08" ry="18"/>
<text text-anchor="middle" x="4080.05" y="-14.3" font-family="Times,serif" font-size="14.00">no0.UnkCollisionFunc2</text>
</a>
</g>
</g>
<!-- no0.EntityCtulhu&#45;&gt;no0.UnkCollisionFunc2 -->
<g id="edge19" class="edge">
<title>no0.EntityCtulhu&#45;&gt;no0.UnkCollisionFunc2</title>
<path fill="none" stroke="black" d="M2511.17,-189.31C2737.73,-167.41 3402.31,-101.98 3953.05,-36 3963.53,-34.74 3974.49,-33.37 3985.4,-31.96"/>
<polygon fill="black" stroke="black" points="3985.91,-35.43 3995.38,-30.67 3985.01,-28.48 3985.91,-35.43"/>
<text text-anchor="middle" x="3990.38" y="-34.47" font-family="Times,serif" font-size="14.00">1</text>
</g>
<!-- no0.UnkCollisionFunc3 -->
<g id="node21" class="node">
<title>no0.UnkCollisionFunc3</title>
<g id="a_node21"><a xlink:href="no0.UnkCollisionFunc3.svg" xlink:title="no0.UnkCollisionFunc3">
<ellipse fill="green" stroke="black" cx="4335.05" cy="-18" rx="118.08" ry="18"/>
<text text-anchor="middle" x="4335.05" y="-14.3" font-family="Times,serif" font-size="14.00">no0.UnkCollisionFunc3</text>
</a>
</g>
</g>
<!-- no0.EntityCtulhu&#45;&gt;no0.UnkCollisionFunc3 -->
<g id="edge20" class="edge">
<title>no0.EntityCtulhu&#45;&gt;no0.UnkCollisionFunc3</title>
<path fill="none" stroke="black" d="M2514.39,-190.69C2768.58,-171.16 3556.29,-108.68 4207.05,-36 4217.99,-34.78 4229.44,-33.4 4240.81,-31.97"/>
<polygon fill="black" stroke="black" points="4241.29,-35.44 4250.76,-30.7 4240.4,-28.49 4241.29,-35.44"/>
<text text-anchor="middle" x="4245.76" y="-34.5" font-family="Times,serif" font-size="14.00">4</text>
</g>
<!-- ratan2 -->
<g id="node22" class="node">
<title>ratan2</title>
<g id="a_node22"><a xlink:href="ratan2.svg" xlink:title="ratan2">
<ellipse fill="lightblue" stroke="black" cx="4513.05" cy="-18" rx="41.69" ry="18"/>
<text text-anchor="middle" x="4513.05" y="-14.3" font-family="Times,serif" font-size="14.00">ratan2</text>
</a>
</g>
</g>
<!-- no0.EntityCtulhu&#45;&gt;ratan2 -->
<g id="edge21" class="edge">
<title>no0.EntityCtulhu&#45;&gt;ratan2</title>
<path fill="none" stroke="black" d="M2522.22,-197.6C2810.15,-197.82 3724.59,-185.82 4462.05,-36 4465.64,-35.27 4469.34,-34.36 4473.01,-33.35"/>
<polygon fill="black" stroke="black" points="4474.05,-36.69 4482.63,-30.47 4472.05,-29.99 4474.05,-36.69"/>
<text text-anchor="middle" x="4477.63" y="-34.27" font-family="Times,serif" font-size="14.00">1</text>
</g>
</g>
</svg>
