<?xml version="1.0" encoding="UTF-8" standalone="no"?>
<!DOCTYPE svg PUBLIC "-//W3C//DTD SVG 1.1//EN"
 "http://www.w3.org/Graphics/SVG/1.1/DTD/svg11.dtd">
<!-- Generated by graphviz version 2.43.0 (0)
 -->
<!-- Title: no0.EntityWargExplosionPuffOpaque Pages: 1 -->
<svg width="1130pt" height="224pt"
 viewBox="0.00 0.00 1129.74 224.00" xmlns="http://www.w3.org/2000/svg" xmlns:xlink="http://www.w3.org/1999/xlink">
<g id="graph0" class="graph" transform="scale(1 1) rotate(0) translate(4 220)">
<title>no0.EntityWargExplosionPuffOpaque</title>
<polygon fill="white" stroke="transparent" points="-4,4 -4,-220 1125.74,-220 1125.74,4 -4,4"/>
<!-- no0.EntityWargExplosionPuffOpaque -->
<g id="node1" class="node">
<title>no0.EntityWargExplosionPuffOpaque</title>
<ellipse fill="red" stroke="black" cx="727.14" cy="-198" rx="183.07" ry="18"/>
<text text-anchor="middle" x="727.14" y="-194.3" font-family="Times,serif" font-size="14.00">no0.EntityWargExplosionPuffOpaque</text>
</g>
<!-- no0.AnimateEntity -->
<g id="node2" class="node">
<title>no0.AnimateEntity</title>
<g id="a_node2"><a xlink:href="no0.AnimateEntity.svg" xlink:title="no0.AnimateEntity">
<ellipse fill="red" stroke="black" cx="98.14" cy="-18" rx="98.28" ry="18"/>
<text text-anchor="middle" x="98.14" y="-14.3" font-family="Times,serif" font-size="14.00">no0.AnimateEntity</text>
</a>
</g>
</g>
<!-- no0.EntityWargExplosionPuffOpaque&#45;&gt;no0.AnimateEntity -->
<g id="edge1" class="edge">
<title>no0.EntityWargExplosionPuffOpaque&#45;&gt;no0.AnimateEntity</title>
<path fill="none" stroke="black" d="M670.21,-180.89C551.97,-147.43 280.68,-70.66 159.07,-36.24"/>
<polygon fill="black" stroke="black" points="159.75,-32.8 149.18,-33.44 157.85,-39.53 159.75,-32.8"/>
<text text-anchor="middle" x="144.18" y="-37.24" font-family="Times,serif" font-size="14.00">2</text>
</g>
<!-- no0.DestroyEntity -->
<g id="node3" class="node">
<title>no0.DestroyEntity</title>
<g id="a_node3"><a xlink:href="no0.DestroyEntity.svg" xlink:title="no0.DestroyEntity">
<ellipse fill="red" stroke="black" cx="310.14" cy="-18" rx="96.38" ry="18"/>
<text text-anchor="middle" x="310.14" y="-14.3" font-family="Times,serif" font-size="14.00">no0.DestroyEntity</text>
</a>
</g>
</g>
<!-- no0.EntityWargExplosionPuffOpaque&#45;&gt;no0.DestroyEntity -->
<g id="edge2" class="edge">
<title>no0.EntityWargExplosionPuffOpaque&#45;&gt;no0.DestroyEntity</title>
<path fill="none" stroke="black" d="M687.91,-180.25C610.58,-147.25 438.84,-73.93 356.25,-38.68"/>
<polygon fill="black" stroke="black" points="357.44,-35.38 346.87,-34.68 354.69,-41.82 357.44,-35.38"/>
<text text-anchor="middle" x="341.87" y="-38.48" font-family="Times,serif" font-size="14.00">1</text>
</g>
<!-- no0.InitializeEntity -->
<g id="node4" class="node">
<title>no0.InitializeEntity</title>
<g id="a_node4"><a xlink:href="no0.InitializeEntity.svg" xlink:title="no0.InitializeEntity">
<ellipse fill="red" stroke="black" cx="524.14" cy="-18" rx="100.18" ry="18"/>
<text text-anchor="middle" x="524.14" y="-14.3" font-family="Times,serif" font-size="14.00">no0.InitializeEntity</text>
</a>
</g>
</g>
<!-- no0.EntityWargExplosionPuffOpaque&#45;&gt;no0.InitializeEntity -->
<g id="edge3" class="edge">
<title>no0.EntityWargExplosionPuffOpaque&#45;&gt;no0.InitializeEntity</title>
<path fill="none" stroke="black" d="M707.68,-179.93C671.13,-147.89 592.21,-78.68 550.77,-42.35"/>
<polygon fill="black" stroke="black" points="553.08,-39.72 543.25,-35.76 548.46,-44.98 553.08,-39.72"/>
<text text-anchor="middle" x="538.25" y="-39.56" font-family="Times,serif" font-size="14.00">1</text>
</g>
<!-- no0.MoveEntity -->
<g id="node5" class="node">
<title>no0.MoveEntity</title>
<g id="a_node5"><a xlink:href="no0.MoveEntity.svg" xlink:title="no0.MoveEntity">
<ellipse fill="red" stroke="black" cx="727.14" cy="-18" rx="85.29" ry="18"/>
<text text-anchor="middle" x="727.14" y="-14.3" font-family="Times,serif" font-size="14.00">no0.MoveEntity</text>
</a>
</g>
</g>
<!-- no0.EntityWargExplosionPuffOpaque&#45;&gt;no0.MoveEntity -->
<g id="edge4" class="edge">
<title>no0.EntityWargExplosionPuffOpaque&#45;&gt;no0.MoveEntity</title>
<path fill="none" stroke="black" d="M727.14,-179.93C727.14,-148.97 727.14,-83.3 727.14,-46.13"/>
<polygon fill="black" stroke="black" points="730.64,-46.02 727.14,-36.02 723.64,-46.02 730.64,-46.02"/>
<text text-anchor="middle" x="722.14" y="-39.82" font-family="Times,serif" font-size="14.00">2</text>
</g>
<!-- no0.Random -->
<g id="node6" class="node">
<title>no0.Random</title>
<g id="a_node6"><a xlink:href="no0.Random.svg" xlink:title="no0.Random">
<ellipse fill="green" stroke="black" cx="899.14" cy="-18" rx="68.79" ry="18"/>
<text text-anchor="middle" x="899.14" y="-14.3" font-family="Times,serif" font-size="14.00">no0.Random</text>
</a>
</g>
</g>
<!-- no0.EntityWargExplosionPuffOpaque&#45;&gt;no0.Random -->
<g id="edge5" class="edge">
<title>no0.EntityWargExplosionPuffOpaque&#45;&gt;no0.Random</title>
<path fill="none" stroke="black" d="M743.63,-179.93C774.4,-148.09 840.64,-79.54 875.92,-43.04"/>
<polygon fill="black" stroke="black" points="878.52,-45.38 882.95,-35.76 873.48,-40.51 878.52,-45.38"/>
<text text-anchor="middle" x="877.95" y="-39.56" font-family="Times,serif" font-size="14.00">1</text>
</g>
<!-- rcos -->
<g id="node7" class="node">
<title>rcos</title>
<g id="a_node7"><a xlink:href="rcos.svg" xlink:title="rcos">
<ellipse fill="lightblue" stroke="black" cx="1016.14" cy="-18" rx="30.59" ry="18"/>
<text text-anchor="middle" x="1016.14" y="-14.3" font-family="Times,serif" font-size="14.00">rcos</text>
</a>
</g>
</g>
<!-- no0.EntityWargExplosionPuffOpaque&#45;&gt;rcos -->
<g id="edge6" class="edge">
<title>no0.EntityWargExplosionPuffOpaque&#45;&gt;rcos</title>
<path fill="none" stroke="black" d="M754.59,-180.09C809.18,-146.47 930.92,-71.49 986.92,-37"/>
<polygon fill="black" stroke="black" points="988.96,-39.85 995.64,-31.63 985.29,-33.89 988.96,-39.85"/>
<text text-anchor="middle" x="990.64" y="-35.43" font-family="Times,serif" font-size="14.00">1</text>
</g>
<!-- rsin -->
<g id="node8" class="node">
<title>rsin</title>
<g id="a_node8"><a xlink:href="rsin.svg" xlink:title="rsin">
<ellipse fill="lightblue" stroke="black" cx="1093.14" cy="-18" rx="28.7" ry="18"/>
<text text-anchor="middle" x="1093.14" y="-14.3" font-family="Times,serif" font-size="14.00">rsin</text>
</a>
</g>
</g>
<!-- no0.EntityWargExplosionPuffOpaque&#45;&gt;rsin -->
<g id="edge7" class="edge">
<title>no0.EntityWargExplosionPuffOpaque&#45;&gt;rsin</title>
<path fill="none" stroke="black" d="M761.57,-180.25C832.47,-145.77 993.8,-67.32 1061.89,-34.2"/>
<polygon fill="black" stroke="black" points="1063.78,-37.17 1071.24,-29.65 1060.71,-30.88 1063.78,-37.17"/>
<text text-anchor="middle" x="1066.24" y="-33.45" font-family="Times,serif" font-size="14.00">1</text>
</g>
</g>
</svg>
