<?xml version="1.0" encoding="UTF-8" standalone="no"?>
<!DOCTYPE svg PUBLIC "-//W3C//DTD SVG 1.1//EN"
 "http://www.w3.org/Graphics/SVG/1.1/DTD/svg11.dtd">
<!-- Generated by graphviz version 2.43.0 (0)
 -->
<!-- Title: no0.UnkCollisionFunc2 Pages: 1 -->
<svg width="1199pt" height="404pt"
 viewBox="0.00 0.00 1199.08 404.00" xmlns="http://www.w3.org/2000/svg" xmlns:xlink="http://www.w3.org/1999/xlink">
<g id="graph0" class="graph" transform="scale(1 1) rotate(0) translate(4 400)">
<title>no0.UnkCollisionFunc2</title>
<polygon fill="white" stroke="transparent" points="-4,4 -4,-400 1195.08,-400 1195.08,4 -4,4"/>
<!-- no0.UnkCollisionFunc2 -->
<g id="node1" class="node">
<title>no0.UnkCollisionFunc2</title>
<ellipse fill="green" stroke="black" cx="542.89" cy="-198" rx="118.08" ry="18"/>
<text text-anchor="middle" x="542.89" y="-194.3" font-family="Times,serif" font-size="14.00">no0.UnkCollisionFunc2</text>
</g>
<!-- dra.CheckCollision -->
<g id="node2" class="node">
<title>dra.CheckCollision</title>
<g id="a_node2"><a xlink:href="dra.CheckCollision.svg" xlink:title="dra.CheckCollision">
<ellipse fill="green" stroke="black" cx="431.89" cy="-18" rx="97.48" ry="18"/>
<text text-anchor="middle" x="431.89" y="-14.3" font-family="Times,serif" font-size="14.00">dra.CheckCollision</text>
</a>
</g>
</g>
<!-- no0.UnkCollisionFunc2&#45;&gt;dra.CheckCollision -->
<g id="edge1" class="edge">
<title>no0.UnkCollisionFunc2&#45;&gt;dra.CheckCollision</title>
<path fill="none" stroke="black" d="M532.25,-179.93C512.69,-148.57 470.93,-81.6 447.92,-44.71"/>
<polygon fill="black" stroke="black" points="450.76,-42.65 442.5,-36.02 444.82,-46.35 450.76,-42.65"/>
<text text-anchor="middle" x="437.5" y="-39.82" font-family="Times,serif" font-size="14.00">1</text>
</g>
<!-- g_api_CheckCollision -->
<g id="node3" class="node">
<title>g_api_CheckCollision</title>
<g id="a_node3"><a xlink:href="g_api_CheckCollision.svg" xlink:title="g_api_CheckCollision">
<ellipse fill="lightblue" stroke="black" cx="654.89" cy="-18" rx="107.78" ry="18"/>
<text text-anchor="middle" x="654.89" y="-14.3" font-family="Times,serif" font-size="14.00">g_api_CheckCollision</text>
</a>
</g>
</g>
<!-- no0.UnkCollisionFunc2&#45;&gt;g_api_CheckCollision -->
<g id="edge2" class="edge">
<title>no0.UnkCollisionFunc2&#45;&gt;g_api_CheckCollision</title>
<path fill="none" stroke="black" d="M553.63,-179.93C573.36,-148.57 615.5,-81.6 638.71,-44.71"/>
<polygon fill="black" stroke="black" points="641.82,-46.34 644.18,-36.02 635.9,-42.62 641.82,-46.34"/>
<text text-anchor="middle" x="639.18" y="-39.82" font-family="Times,serif" font-size="14.00">2</text>
</g>
<!-- no0.EntityAxeKnight -->
<g id="node4" class="node">
<title>no0.EntityAxeKnight</title>
<g id="a_node4"><a xlink:href="no0.EntityAxeKnight.svg" xlink:title="no0.EntityAxeKnight">
<ellipse fill="green" stroke="black" cx="107.89" cy="-378" rx="107.78" ry="18"/>
<text text-anchor="middle" x="107.89" y="-374.3" font-family="Times,serif" font-size="14.00">no0.EntityAxeKnight</text>
</a>
</g>
</g>
<!-- no0.EntityAxeKnight&#45;&gt;no0.UnkCollisionFunc2 -->
<g id="edge3" class="edge">
<title>no0.EntityAxeKnight&#45;&gt;no0.UnkCollisionFunc2</title>
<path fill="none" stroke="black" d="M146.88,-361.05C226.37,-328.52 407.02,-254.6 494.13,-218.95"/>
<polygon fill="black" stroke="black" points="495.59,-222.14 503.52,-215.11 492.94,-215.66 495.59,-222.14"/>
<text text-anchor="middle" x="141.88" y="-349.85" font-family="Times,serif" font-size="14.00">1</text>
</g>
<!-- no0.EntityCtulhu -->
<g id="node5" class="node">
<title>no0.EntityCtulhu</title>
<g id="a_node5"><a xlink:href="no0.EntityCtulhu.svg" xlink:title="no0.EntityCtulhu">
<ellipse fill="green" stroke="black" cx="324.89" cy="-378" rx="90.98" ry="18"/>
<text text-anchor="middle" x="324.89" y="-374.3" font-family="Times,serif" font-size="14.00">no0.EntityCtulhu</text>
</a>
</g>
</g>
<!-- no0.EntityCtulhu&#45;&gt;no0.UnkCollisionFunc2 -->
<g id="edge4" class="edge">
<title>no0.EntityCtulhu&#45;&gt;no0.UnkCollisionFunc2</title>
<path fill="none" stroke="black" d="M345.4,-360.25C384.51,-328.32 469.84,-258.65 514.44,-222.23"/>
<polygon fill="black" stroke="black" points="516.74,-224.87 522.28,-215.83 512.32,-219.44 516.74,-224.87"/>
<text text-anchor="middle" x="340.4" y="-349.05" font-family="Times,serif" font-size="14.00">1</text>
</g>
<!-- no0.EntityOuijaTable -->
<g id="node6" class="node">
<title>no0.EntityOuijaTable</title>
<g id="a_node6"><a xlink:href="no0.EntityOuijaTable.svg" xlink:title="no0.EntityOuijaTable">
<ellipse fill="green" stroke="black" cx="542.89" cy="-378" rx="108.58" ry="18"/>
<text text-anchor="middle" x="542.89" y="-374.3" font-family="Times,serif" font-size="14.00">no0.EntityOuijaTable</text>
</a>
</g>
</g>
<!-- no0.EntityOuijaTable&#45;&gt;no0.UnkCollisionFunc2 -->
<g id="edge5" class="edge">
<title>no0.EntityOuijaTable&#45;&gt;no0.UnkCollisionFunc2</title>
<path fill="none" stroke="black" d="M542.89,-359.93C542.89,-328.97 542.89,-263.3 542.89,-226.13"/>
<polygon fill="black" stroke="black" points="546.39,-226.02 542.89,-216.02 539.39,-226.02 546.39,-226.02"/>
<text text-anchor="middle" x="537.89" y="-348.73" font-family="Times,serif" font-size="14.00">1</text>
</g>
<!-- no0.SkeletonAttackCheck -->
<g id="node7" class="node">
<title>no0.SkeletonAttackCheck</title>
<g id="a_node7"><a xlink:href="no0.SkeletonAttackCheck.svg" xlink:title="no0.SkeletonAttackCheck">
<ellipse fill="green" stroke="black" cx="798.89" cy="-378" rx="129.18" ry="18"/>
<text text-anchor="middle" x="798.89" y="-374.3" font-family="Times,serif" font-size="14.00">no0.SkeletonAttackCheck</text>
</a>
</g>
</g>
<!-- no0.SkeletonAttackCheck&#45;&gt;no0.UnkCollisionFunc2 -->
<g id="edge6" class="edge">
<title>no0.SkeletonAttackCheck&#45;&gt;no0.UnkCollisionFunc2</title>
<path fill="none" stroke="black" d="M774.81,-360.25C728.59,-328.12 627.42,-257.78 575.32,-221.55"/>
<polygon fill="black" stroke="black" points="577.31,-218.67 567.1,-215.83 573.31,-224.41 577.31,-218.67"/>
<text text-anchor="middle" x="769.81" y="-349.05" font-family="Times,serif" font-size="14.00">1</text>
</g>
<!-- no0.SlingerAttackCheck -->
<g id="node8" class="node">
<title>no0.SlingerAttackCheck</title>
<g id="a_node8"><a xlink:href="no0.SlingerAttackCheck.svg" xlink:title="no0.SlingerAttackCheck">
<ellipse fill="green" stroke="black" cx="1068.89" cy="-378" rx="122.38" ry="18"/>
<text text-anchor="middle" x="1068.89" y="-374.3" font-family="Times,serif" font-size="14.00">no0.SlingerAttackCheck</text>
</a>
</g>
</g>
<!-- no0.SlingerAttackCheck&#45;&gt;no0.UnkCollisionFunc2 -->
<g id="edge7" class="edge">
<title>no0.SlingerAttackCheck&#45;&gt;no0.UnkCollisionFunc2</title>
<path fill="none" stroke="black" d="M1022.21,-361.2C925.39,-328.44 703.08,-253.21 598.8,-217.92"/>
<polygon fill="black" stroke="black" points="599.68,-214.52 589.09,-214.63 597.44,-221.15 599.68,-214.52"/>
<text text-anchor="middle" x="1017.21" y="-350" font-family="Times,serif" font-size="14.00">1</text>
</g>
</g>
</svg>
