<?xml version="1.0" encoding="UTF-8" standalone="no"?>
<!DOCTYPE svg PUBLIC "-//W3C//DTD SVG 1.1//EN"
 "http://www.w3.org/Graphics/SVG/1.1/DTD/svg11.dtd">
<!-- Generated by graphviz version 2.43.0 (0)
 -->
<!-- Title: no0.func_801C4550 Pages: 1 -->
<svg width="298pt" height="404pt"
 viewBox="0.00 0.00 298.49 404.00" xmlns="http://www.w3.org/2000/svg" xmlns:xlink="http://www.w3.org/1999/xlink">
<g id="graph0" class="graph" transform="scale(1 1) rotate(0) translate(4 400)">
<title>no0.func_801C4550</title>
<polygon fill="white" stroke="transparent" points="-4,4 -4,-400 294.49,-400 294.49,4 -4,4"/>
<!-- no0.func_801C4550 -->
<g id="node1" class="node">
<title>no0.func_801C4550</title>
<ellipse fill="red" stroke="black" cx="145.89" cy="-198" rx="102.88" ry="18"/>
<text text-anchor="middle" x="145.89" y="-194.3" font-family="Times,serif" font-size="14.00">no0.func_801C4550</text>
</g>
<!-- no0.Random -->
<g id="node2" class="node">
<title>no0.Random</title>
<g id="a_node2"><a xlink:href="no0.Random.svg" xlink:title="no0.Random">
<ellipse fill="green" stroke="black" cx="68.89" cy="-18" rx="68.79" ry="18"/>
<text text-anchor="middle" x="68.89" y="-14.3" font-family="Times,serif" font-size="14.00">no0.Random</text>
</a>
</g>
</g>
<!-- no0.func_801C4550&#45;&gt;no0.Random -->
<g id="edge1" class="edge">
<title>no0.func_801C4550&#45;&gt;no0.Random</title>
<path fill="none" stroke="black" d="M138.51,-179.93C125.06,-148.83 96.46,-82.73 80.42,-45.65"/>
<polygon fill="black" stroke="black" points="83.44,-43.8 76.25,-36.02 77.01,-46.58 83.44,-43.8"/>
<text text-anchor="middle" x="71.25" y="-39.82" font-family="Times,serif" font-size="14.00">1</text>
</g>
<!-- no0.SetStep -->
<g id="node3" class="node">
<title>no0.SetStep</title>
<g id="a_node3"><a xlink:href="no0.SetStep.svg" xlink:title="no0.SetStep">
<ellipse fill="green" stroke="black" cx="222.89" cy="-18" rx="67.69" ry="18"/>
<text text-anchor="middle" x="222.89" y="-14.3" font-family="Times,serif" font-size="14.00">no0.SetStep</text>
</a>
</g>
</g>
<!-- no0.func_801C4550&#45;&gt;no0.SetStep -->
<g id="edge2" class="edge">
<title>no0.func_801C4550&#45;&gt;no0.SetStep</title>
<path fill="none" stroke="black" d="M153.28,-179.93C166.73,-148.83 195.32,-82.73 211.36,-45.65"/>
<polygon fill="black" stroke="black" points="214.78,-46.58 215.53,-36.02 208.35,-43.8 214.78,-46.58"/>
<text text-anchor="middle" x="210.53" y="-39.82" font-family="Times,serif" font-size="14.00">1</text>
</g>
<!-- no0.EntityAxeKnight -->
<g id="node4" class="node">
<title>no0.EntityAxeKnight</title>
<g id="a_node4"><a xlink:href="no0.EntityAxeKnight.svg" xlink:title="no0.EntityAxeKnight">
<ellipse fill="red" stroke="black" cx="145.89" cy="-378" rx="107.78" ry="18"/>
<text text-anchor="middle" x="145.89" y="-374.3" font-family="Times,serif" font-size="14.00">no0.EntityAxeKnight</text>
</a>
</g>
</g>
<!-- no0.EntityAxeKnight&#45;&gt;no0.func_801C4550 -->
<g id="edge3" class="edge">
<title>no0.EntityAxeKnight&#45;&gt;no0.func_801C4550</title>
<path fill="none" stroke="black" d="M145.89,-359.93C145.89,-328.97 145.89,-263.3 145.89,-226.13"/>
<polygon fill="black" stroke="black" points="149.39,-226.02 145.89,-216.02 142.39,-226.02 149.39,-226.02"/>
<text text-anchor="middle" x="140.89" y="-348.73" font-family="Times,serif" font-size="14.00">1</text>
</g>
</g>
</svg>
