<?xml version="1.0" encoding="UTF-8" standalone="no"?>
<!DOCTYPE svg PUBLIC "-//W3C//DTD SVG 1.1//EN"
 "http://www.w3.org/Graphics/SVG/1.1/DTD/svg11.dtd">
<!-- Generated by graphviz version 2.43.0 (0)
 -->
<!-- Title: no0.EntityStageNamePopup Pages: 1 -->
<svg width="1218pt" height="224pt"
 viewBox="0.00 0.00 1217.63 224.00" xmlns="http://www.w3.org/2000/svg" xmlns:xlink="http://www.w3.org/1999/xlink">
<g id="graph0" class="graph" transform="scale(1 1) rotate(0) translate(4 220)">
<title>no0.EntityStageNamePopup</title>
<polygon fill="white" stroke="transparent" points="-4,4 -4,-220 1213.63,-220 1213.63,4 -4,4"/>
<!-- no0.EntityStageNamePopup -->
<g id="node1" class="node">
<title>no0.EntityStageNamePopup</title>
<ellipse fill="red" stroke="black" cx="538.05" cy="-198" rx="142.17" ry="18"/>
<text text-anchor="middle" x="538.05" y="-194.3" font-family="Times,serif" font-size="14.00">no0.EntityStageNamePopup</text>
</g>
<!-- FntPrint -->
<g id="node2" class="node">
<title>FntPrint</title>
<g id="a_node2"><a xlink:href="FntPrint.svg" xlink:title="FntPrint">
<ellipse fill="lightblue" stroke="black" cx="50.05" cy="-18" rx="50.09" ry="18"/>
<text text-anchor="middle" x="50.05" y="-14.3" font-family="Times,serif" font-size="14.00">FntPrint</text>
</a>
</g>
</g>
<!-- no0.EntityStageNamePopup&#45;&gt;FntPrint -->
<g id="edge1" class="edge">
<title>no0.EntityStageNamePopup&#45;&gt;FntPrint</title>
<path fill="none" stroke="black" d="M493.45,-180.73C400.25,-146.74 185.91,-68.56 93.62,-34.89"/>
<polygon fill="black" stroke="black" points="94.62,-31.53 84.03,-31.39 92.22,-38.11 94.62,-31.53"/>
<text text-anchor="middle" x="79.03" y="-35.19" font-family="Times,serif" font-size="14.00">2</text>
</g>
<!-- dra.AllocPrimitives -->
<g id="node3" class="node">
<title>dra.AllocPrimitives</title>
<g id="a_node3"><a xlink:href="dra.AllocPrimitives.svg" xlink:title="dra.AllocPrimitives">
<ellipse fill="green" stroke="black" cx="217.05" cy="-18" rx="99.38" ry="18"/>
<text text-anchor="middle" x="217.05" y="-14.3" font-family="Times,serif" font-size="14.00">dra.AllocPrimitives</text>
</a>
</g>
</g>
<!-- no0.EntityStageNamePopup&#45;&gt;dra.AllocPrimitives -->
<g id="edge2" class="edge">
<title>no0.EntityStageNamePopup&#45;&gt;dra.AllocPrimitives</title>
<path fill="none" stroke="black" d="M507.85,-180.25C449.24,-147.75 320.16,-76.18 255.52,-40.33"/>
<polygon fill="black" stroke="black" points="256.91,-37.1 246.47,-35.31 253.51,-43.22 256.91,-37.1"/>
<text text-anchor="middle" x="241.47" y="-39.11" font-family="Times,serif" font-size="14.00">1</text>
</g>
<!-- no0.DestroyEntity -->
<g id="node4" class="node">
<title>no0.DestroyEntity</title>
<g id="a_node4"><a xlink:href="no0.DestroyEntity.svg" xlink:title="no0.DestroyEntity">
<ellipse fill="green" stroke="black" cx="431.05" cy="-18" rx="96.38" ry="18"/>
<text text-anchor="middle" x="431.05" y="-14.3" font-family="Times,serif" font-size="14.00">no0.DestroyEntity</text>
</a>
</g>
</g>
<!-- no0.EntityStageNamePopup&#45;&gt;no0.DestroyEntity -->
<g id="edge3" class="edge">
<title>no0.EntityStageNamePopup&#45;&gt;no0.DestroyEntity</title>
<path fill="none" stroke="black" d="M527.79,-179.93C508.93,-148.57 468.68,-81.6 446.5,-44.71"/>
<polygon fill="black" stroke="black" points="449.43,-42.78 441.27,-36.02 443.43,-46.39 449.43,-42.78"/>
<text text-anchor="middle" x="436.27" y="-39.82" font-family="Times,serif" font-size="14.00">1</text>
</g>
<!-- no0.InitializeEntity -->
<g id="node5" class="node">
<title>no0.InitializeEntity</title>
<g id="a_node5"><a xlink:href="no0.InitializeEntity.svg" xlink:title="no0.InitializeEntity">
<ellipse fill="green" stroke="black" cx="645.05" cy="-18" rx="100.18" ry="18"/>
<text text-anchor="middle" x="645.05" y="-14.3" font-family="Times,serif" font-size="14.00">no0.InitializeEntity</text>
</a>
</g>
</g>
<!-- no0.EntityStageNamePopup&#45;&gt;no0.InitializeEntity -->
<g id="edge4" class="edge">
<title>no0.EntityStageNamePopup&#45;&gt;no0.InitializeEntity</title>
<path fill="none" stroke="black" d="M548.31,-179.93C567.16,-148.57 607.41,-81.6 629.59,-44.71"/>
<polygon fill="black" stroke="black" points="632.66,-46.39 634.82,-36.02 626.67,-42.78 632.66,-46.39"/>
<text text-anchor="middle" x="629.82" y="-39.82" font-family="Times,serif" font-size="14.00">1</text>
</g>
<!-- no0.Random -->
<g id="node6" class="node">
<title>no0.Random</title>
<g id="a_node6"><a xlink:href="no0.Random.svg" xlink:title="no0.Random">
<ellipse fill="green" stroke="black" cx="832.05" cy="-18" rx="68.79" ry="18"/>
<text text-anchor="middle" x="832.05" y="-14.3" font-family="Times,serif" font-size="14.00">no0.Random</text>
</a>
</g>
</g>
<!-- no0.EntityStageNamePopup&#45;&gt;no0.Random -->
<g id="edge5" class="edge">
<title>no0.EntityStageNamePopup&#45;&gt;no0.Random</title>
<path fill="none" stroke="black" d="M565.7,-180.25C619.55,-147.66 738.32,-75.75 797.34,-40.01"/>
<polygon fill="black" stroke="black" points="799.2,-42.98 805.94,-34.8 795.58,-36.99 799.2,-42.98"/>
<text text-anchor="middle" x="800.94" y="-38.6" font-family="Times,serif" font-size="14.00">4</text>
</g>
<!-- no0.StageNamePopupHelper -->
<g id="node7" class="node">
<title>no0.StageNamePopupHelper</title>
<g id="a_node7"><a xlink:href="no0.StageNamePopupHelper.svg" xlink:title="no0.StageNamePopupHelper">
<ellipse fill="red" stroke="black" cx="1064.05" cy="-18" rx="145.67" ry="18"/>
<text text-anchor="middle" x="1064.05" y="-14.3" font-family="Times,serif" font-size="14.00">no0.StageNamePopupHelper</text>
</a>
</g>
</g>
<!-- no0.EntityStageNamePopup&#45;&gt;no0.StageNamePopupHelper -->
<g id="edge6" class="edge">
<title>no0.EntityStageNamePopup&#45;&gt;no0.StageNamePopupHelper</title>
<path fill="none" stroke="black" d="M585.65,-180.89C682.54,-148.1 902.32,-73.73 1006.8,-38.37"/>
<polygon fill="black" stroke="black" points="1008.2,-41.59 1016.55,-35.07 1005.95,-34.96 1008.2,-41.59"/>
<text text-anchor="middle" x="1011.55" y="-38.87" font-family="Times,serif" font-size="14.00">2</text>
</g>
</g>
</svg>
