<?xml version="1.0" encoding="UTF-8" standalone="no"?>
<!DOCTYPE svg PUBLIC "-//W3C//DTD SVG 1.1//EN"
 "http://www.w3.org/Graphics/SVG/1.1/DTD/svg11.dtd">
<!-- Generated by graphviz version 2.43.0 (0)
 -->
<!-- Title: no0.EntityRelicOrb Pages: 1 -->
<svg width="1876pt" height="224pt"
 viewBox="0.00 0.00 1876.49 224.00" xmlns="http://www.w3.org/2000/svg" xmlns:xlink="http://www.w3.org/1999/xlink">
<g id="graph0" class="graph" transform="scale(1 1) rotate(0) translate(4 220)">
<title>no0.EntityRelicOrb</title>
<polygon fill="white" stroke="transparent" points="-4,4 -4,-220 1872.49,-220 1872.49,4 -4,4"/>
<!-- no0.EntityRelicOrb -->
<g id="node1" class="node">
<title>no0.EntityRelicOrb</title>
<ellipse fill="red" stroke="black" cx="920.34" cy="-198" rx="100.18" ry="18"/>
<text text-anchor="middle" x="920.34" y="-194.3" font-family="Times,serif" font-size="14.00">no0.EntityRelicOrb</text>
</g>
<!-- ClearImage -->
<g id="node2" class="node">
<title>ClearImage</title>
<g id="a_node2"><a xlink:href="ClearImage.svg" xlink:title="ClearImage">
<ellipse fill="lightblue" stroke="black" cx="64.34" cy="-18" rx="64.19" ry="18"/>
<text text-anchor="middle" x="64.34" y="-14.3" font-family="Times,serif" font-size="14.00">ClearImage</text>
</a>
</g>
</g>
<!-- no0.EntityRelicOrb&#45;&gt;ClearImage -->
<g id="edge1" class="edge">
<title>no0.EntityRelicOrb&#45;&gt;ClearImage</title>
<path fill="none" stroke="black" d="M855.51,-184.26C721.28,-157.76 403.22,-94.28 137.34,-36 132.31,-34.9 127.09,-33.73 121.85,-32.54"/>
<polygon fill="black" stroke="black" points="122.35,-29.06 111.82,-30.24 120.79,-35.89 122.35,-29.06"/>
<text text-anchor="middle" x="106.82" y="-34.04" font-family="Times,serif" font-size="14.00">1</text>
</g>
<!-- LoadTPage -->
<g id="node3" class="node">
<title>LoadTPage</title>
<g id="a_node3"><a xlink:href="LoadTPage.svg" xlink:title="LoadTPage">
<ellipse fill="lightblue" stroke="black" cx="208.34" cy="-18" rx="61.99" ry="18"/>
<text text-anchor="middle" x="208.34" y="-14.3" font-family="Times,serif" font-size="14.00">LoadTPage</text>
</a>
</g>
</g>
<!-- no0.EntityRelicOrb&#45;&gt;LoadTPage -->
<g id="edge2" class="edge">
<title>no0.EntityRelicOrb&#45;&gt;LoadTPage</title>
<path fill="none" stroke="black" d="M864.47,-183.03C731.24,-149.72 396.11,-65.94 263.55,-32.8"/>
<polygon fill="black" stroke="black" points="264.16,-29.35 253.61,-30.32 262.46,-36.14 264.16,-29.35"/>
<text text-anchor="middle" x="248.61" y="-34.12" font-family="Times,serif" font-size="14.00">1</text>
</g>
<!-- dra.AllocPrimitives -->
<g id="node4" class="node">
<title>dra.AllocPrimitives</title>
<g id="a_node4"><a xlink:href="dra.AllocPrimitives.svg" xlink:title="dra.AllocPrimitives">
<ellipse fill="green" stroke="black" cx="387.34" cy="-18" rx="99.38" ry="18"/>
<text text-anchor="middle" x="387.34" y="-14.3" font-family="Times,serif" font-size="14.00">dra.AllocPrimitives</text>
</a>
</g>
</g>
<!-- no0.EntityRelicOrb&#45;&gt;dra.AllocPrimitives -->
<g id="edge3" class="edge">
<title>no0.EntityRelicOrb&#45;&gt;dra.AllocPrimitives</title>
<path fill="none" stroke="black" d="M874.9,-181.82C777.25,-149.21 547.72,-72.56 442.19,-37.32"/>
<polygon fill="black" stroke="black" points="443.27,-33.99 432.67,-34.14 441.05,-40.63 443.27,-33.99"/>
<text text-anchor="middle" x="427.67" y="-37.94" font-family="Times,serif" font-size="14.00">1</text>
</g>
<!-- dra.LoadEquipIcon -->
<g id="node5" class="node">
<title>dra.LoadEquipIcon</title>
<g id="a_node5"><a xlink:href="dra.LoadEquipIcon.svg" xlink:title="dra.LoadEquipIcon">
<ellipse fill="green" stroke="black" cx="603.34" cy="-18" rx="98.58" ry="18"/>
<text text-anchor="middle" x="603.34" y="-14.3" font-family="Times,serif" font-size="14.00">dra.LoadEquipIcon</text>
</a>
</g>
</g>
<!-- no0.EntityRelicOrb&#45;&gt;dra.LoadEquipIcon -->
<g id="edge4" class="edge">
<title>no0.EntityRelicOrb&#45;&gt;dra.LoadEquipIcon</title>
<path fill="none" stroke="black" d="M891.37,-180.73C833.98,-148.5 705.83,-76.55 641.59,-40.48"/>
<polygon fill="black" stroke="black" points="643.03,-37.27 632.59,-35.42 639.6,-43.37 643.03,-37.27"/>
<text text-anchor="middle" x="627.59" y="-39.22" font-family="Times,serif" font-size="14.00">1</text>
</g>
<!-- dra.func_800FE044 -->
<g id="node6" class="node">
<title>dra.func_800FE044</title>
<g id="a_node6"><a xlink:href="dra.func_800FE044.svg" xlink:title="dra.func_800FE044">
<ellipse fill="green" stroke="black" cx="822.34" cy="-18" rx="102.08" ry="18"/>
<text text-anchor="middle" x="822.34" y="-14.3" font-family="Times,serif" font-size="14.00">dra.func_800FE044</text>
</a>
</g>
</g>
<!-- no0.EntityRelicOrb&#45;&gt;dra.func_800FE044 -->
<g id="edge5" class="edge">
<title>no0.EntityRelicOrb&#45;&gt;dra.func_800FE044</title>
<path fill="none" stroke="black" d="M910.95,-179.93C893.75,-148.7 857.12,-82.17 836.76,-45.18"/>
<polygon fill="black" stroke="black" points="839.6,-43.09 831.71,-36.02 833.47,-46.46 839.6,-43.09"/>
<text text-anchor="middle" x="826.71" y="-39.82" font-family="Times,serif" font-size="14.00">1</text>
</g>
<!-- no0.BlinkItem -->
<g id="node7" class="node">
<title>no0.BlinkItem</title>
<g id="a_node7"><a xlink:href="no0.BlinkItem.svg" xlink:title="no0.BlinkItem">
<ellipse fill="red" stroke="black" cx="1018.34" cy="-18" rx="76.09" ry="18"/>
<text text-anchor="middle" x="1018.34" y="-14.3" font-family="Times,serif" font-size="14.00">no0.BlinkItem</text>
</a>
</g>
</g>
<!-- no0.EntityRelicOrb&#45;&gt;no0.BlinkItem -->
<g id="edge6" class="edge">
<title>no0.EntityRelicOrb&#45;&gt;no0.BlinkItem</title>
<path fill="none" stroke="black" d="M929.74,-179.93C946.94,-148.7 983.57,-82.17 1003.93,-45.18"/>
<polygon fill="black" stroke="black" points="1007.22,-46.46 1008.98,-36.02 1001.09,-43.09 1007.22,-46.46"/>
<text text-anchor="middle" x="1003.98" y="-39.82" font-family="Times,serif" font-size="14.00">1</text>
</g>
<!-- no0.BlitChar -->
<g id="node8" class="node">
<title>no0.BlitChar</title>
<g id="a_node8"><a xlink:href="no0.BlitChar.svg" xlink:title="no0.BlitChar">
<ellipse fill="red" stroke="black" cx="1182.34" cy="-18" rx="69.59" ry="18"/>
<text text-anchor="middle" x="1182.34" y="-14.3" font-family="Times,serif" font-size="14.00">no0.BlitChar</text>
</a>
</g>
</g>
<!-- no0.EntityRelicOrb&#45;&gt;no0.BlitChar -->
<g id="edge7" class="edge">
<title>no0.EntityRelicOrb&#45;&gt;no0.BlitChar</title>
<path fill="none" stroke="black" d="M944.99,-180.25C992.66,-147.87 1097.42,-76.7 1150.37,-40.73"/>
<polygon fill="black" stroke="black" points="1152.4,-43.57 1158.71,-35.06 1148.47,-37.78 1152.4,-43.57"/>
<text text-anchor="middle" x="1153.71" y="-38.86" font-family="Times,serif" font-size="14.00">1</text>
</g>
<!-- no0.DestroyEntity -->
<g id="node9" class="node">
<title>no0.DestroyEntity</title>
<g id="a_node9"><a xlink:href="no0.DestroyEntity.svg" xlink:title="no0.DestroyEntity">
<ellipse fill="green" stroke="black" cx="1366.34" cy="-18" rx="96.38" ry="18"/>
<text text-anchor="middle" x="1366.34" y="-14.3" font-family="Times,serif" font-size="14.00">no0.DestroyEntity</text>
</a>
</g>
</g>
<!-- no0.EntityRelicOrb&#45;&gt;no0.DestroyEntity -->
<g id="edge8" class="edge">
<title>no0.EntityRelicOrb&#45;&gt;no0.DestroyEntity</title>
<path fill="none" stroke="black" d="M959.53,-181.36C1041.16,-148.78 1229.18,-73.74 1318.09,-38.26"/>
<polygon fill="black" stroke="black" points="1319.41,-41.5 1327.4,-34.54 1316.82,-35 1319.41,-41.5"/>
<text text-anchor="middle" x="1322.4" y="-38.34" font-family="Times,serif" font-size="14.00">1</text>
</g>
<!-- no0.InitializeEntity -->
<g id="node10" class="node">
<title>no0.InitializeEntity</title>
<g id="a_node10"><a xlink:href="no0.InitializeEntity.svg" xlink:title="no0.InitializeEntity">
<ellipse fill="green" stroke="black" cx="1580.34" cy="-18" rx="100.18" ry="18"/>
<text text-anchor="middle" x="1580.34" y="-14.3" font-family="Times,serif" font-size="14.00">no0.InitializeEntity</text>
</a>
</g>
</g>
<!-- no0.EntityRelicOrb&#45;&gt;no0.InitializeEntity -->
<g id="edge9" class="edge">
<title>no0.EntityRelicOrb&#45;&gt;no0.InitializeEntity</title>
<path fill="none" stroke="black" d="M973.52,-182.66C1094.15,-150.12 1388.12,-70.84 1517.49,-35.95"/>
<polygon fill="black" stroke="black" points="1518.51,-39.3 1527.26,-33.32 1516.69,-32.54 1518.51,-39.3"/>
<text text-anchor="middle" x="1522.26" y="-37.12" font-family="Times,serif" font-size="14.00">1</text>
</g>
<!-- no0.MoveEntity -->
<g id="node11" class="node">
<title>no0.MoveEntity</title>
<g id="a_node11"><a xlink:href="no0.MoveEntity.svg" xlink:title="no0.MoveEntity">
<ellipse fill="green" stroke="black" cx="1783.34" cy="-18" rx="85.29" ry="18"/>
<text text-anchor="middle" x="1783.34" y="-14.3" font-family="Times,serif" font-size="14.00">no0.MoveEntity</text>
</a>
</g>
</g>
<!-- no0.EntityRelicOrb&#45;&gt;no0.MoveEntity -->
<g id="edge10" class="edge">
<title>no0.EntityRelicOrb&#45;&gt;no0.MoveEntity</title>
<path fill="none" stroke="black" d="M983.45,-183.98C1141.12,-151.46 1551.25,-66.87 1714.67,-33.16"/>
<polygon fill="black" stroke="black" points="1715.52,-36.56 1724.61,-31.11 1714.11,-29.71 1715.52,-36.56"/>
<text text-anchor="middle" x="1719.61" y="-34.91" font-family="Times,serif" font-size="14.00">1</text>
</g>
</g>
</svg>
