<?xml version="1.0" encoding="UTF-8" standalone="no"?>
<!DOCTYPE svg PUBLIC "-//W3C//DTD SVG 1.1//EN"
 "http://www.w3.org/Graphics/SVG/1.1/DTD/svg11.dtd">
<!-- Generated by graphviz version 2.43.0 (0)
 -->
<!-- Title: no0.EntityAxeKnight Pages: 1 -->
<svg width="3627pt" height="224pt"
 viewBox="0.00 0.00 3627.18 224.00" xmlns="http://www.w3.org/2000/svg" xmlns:xlink="http://www.w3.org/1999/xlink">
<g id="graph0" class="graph" transform="scale(1 1) rotate(0) translate(4 220)">
<title>no0.EntityAxeKnight</title>
<polygon fill="white" stroke="transparent" points="-4,4 -4,-220 3623.18,-220 3623.18,4 -4,4"/>
<!-- no0.EntityAxeKnight -->
<g id="node1" class="node">
<title>no0.EntityAxeKnight</title>
<ellipse fill="red" stroke="black" cx="1914.89" cy="-198" rx="107.78" ry="18"/>
<text text-anchor="middle" x="1914.89" y="-194.3" font-family="Times,serif" font-size="14.00">no0.EntityAxeKnight</text>
</g>
<!-- no0.AllocEntity -->
<g id="node2" class="node">
<title>no0.AllocEntity</title>
<g id="a_node2"><a xlink:href="no0.AllocEntity.svg" xlink:title="no0.AllocEntity">
<ellipse fill="green" stroke="black" cx="81.89" cy="-18" rx="81.79" ry="18"/>
<text text-anchor="middle" x="81.89" y="-14.3" font-family="Times,serif" font-size="14.00">no0.AllocEntity</text>
</a>
</g>
</g>
<!-- no0.EntityAxeKnight&#45;&gt;no0.AllocEntity -->
<g id="edge1" class="edge">
<title>no0.EntityAxeKnight&#45;&gt;no0.AllocEntity</title>
<path fill="none" stroke="black" d="M1815.34,-191.04C1548.4,-174.35 794.83,-122.64 172.89,-36 165.48,-34.97 157.75,-33.75 150.06,-32.44"/>
<polygon fill="black" stroke="black" points="150.47,-28.96 140.02,-30.69 149.26,-35.86 150.47,-28.96"/>
<text text-anchor="middle" x="135.02" y="-34.49" font-family="Times,serif" font-size="14.00">4</text>
</g>
<!-- no0.AnimateEntity -->
<g id="node3" class="node">
<title>no0.AnimateEntity</title>
<g id="a_node3"><a xlink:href="no0.AnimateEntity.svg" xlink:title="no0.AnimateEntity">
<ellipse fill="green" stroke="black" cx="279.89" cy="-18" rx="98.28" ry="18"/>
<text text-anchor="middle" x="279.89" y="-14.3" font-family="Times,serif" font-size="14.00">no0.AnimateEntity</text>
</a>
</g>
</g>
<!-- no0.EntityAxeKnight&#45;&gt;no0.AnimateEntity -->
<g id="edge2" class="edge">
<title>no0.EntityAxeKnight&#45;&gt;no0.AnimateEntity</title>
<path fill="none" stroke="black" d="M1821.67,-188.9C1582.73,-167.76 929.02,-107.58 386.89,-36 378.22,-34.86 369.17,-33.57 360.16,-32.22"/>
<polygon fill="black" stroke="black" points="360.45,-28.72 350.03,-30.68 359.4,-35.64 360.45,-28.72"/>
<text text-anchor="middle" x="345.03" y="-34.48" font-family="Times,serif" font-size="14.00">6</text>
</g>
<!-- no0.CreateEntityFromCurrentEntity -->
<g id="node4" class="node">
<title>no0.CreateEntityFromCurrentEntity</title>
<g id="a_node4"><a xlink:href="no0.CreateEntityFromCurrentEntity.svg" xlink:title="no0.CreateEntityFromCurrentEntity">
<ellipse fill="green" stroke="black" cx="576.89" cy="-18" rx="180.87" ry="18"/>
<text text-anchor="middle" x="576.89" y="-14.3" font-family="Times,serif" font-size="14.00">no0.CreateEntityFromCurrentEntity</text>
</a>
</g>
</g>
<!-- no0.EntityAxeKnight&#45;&gt;no0.CreateEntityFromCurrentEntity -->
<g id="edge3" class="edge">
<title>no0.EntityAxeKnight&#45;&gt;no0.CreateEntityFromCurrentEntity</title>
<path fill="none" stroke="black" d="M1833.21,-186.13C1603.96,-155.63 954.12,-69.18 690.3,-34.09"/>
<polygon fill="black" stroke="black" points="690.69,-30.61 680.32,-32.76 689.77,-37.55 690.69,-30.61"/>
<text text-anchor="middle" x="675.32" y="-36.56" font-family="Times,serif" font-size="14.00">3</text>
</g>
<!-- no0.CreateEntityFromEntity -->
<g id="node5" class="node">
<title>no0.CreateEntityFromEntity</title>
<g id="a_node5"><a xlink:href="no0.CreateEntityFromEntity.svg" xlink:title="no0.CreateEntityFromEntity">
<ellipse fill="green" stroke="black" cx="919.89" cy="-18" rx="144.07" ry="18"/>
<text text-anchor="middle" x="919.89" y="-14.3" font-family="Times,serif" font-size="14.00">no0.CreateEntityFromEntity</text>
</a>
</g>
</g>
<!-- no0.EntityAxeKnight&#45;&gt;no0.CreateEntityFromEntity -->
<g id="edge4" class="edge">
<title>no0.EntityAxeKnight&#45;&gt;no0.CreateEntityFromEntity</title>
<path fill="none" stroke="black" d="M1844.13,-184.34C1666.85,-152.63 1203.93,-69.81 1008.74,-34.89"/>
<polygon fill="black" stroke="black" points="1009.27,-31.43 998.81,-33.12 1008.03,-38.32 1009.27,-31.43"/>
<text text-anchor="middle" x="993.81" y="-36.92" font-family="Times,serif" font-size="14.00">1</text>
</g>
<!-- no0.DestroyEntity -->
<g id="node6" class="node">
<title>no0.DestroyEntity</title>
<g id="a_node6"><a xlink:href="no0.DestroyEntity.svg" xlink:title="no0.DestroyEntity">
<ellipse fill="green" stroke="black" cx="1177.89" cy="-18" rx="96.38" ry="18"/>
<text text-anchor="middle" x="1177.89" y="-14.3" font-family="Times,serif" font-size="14.00">no0.DestroyEntity</text>
</a>
</g>
</g>
<!-- no0.EntityAxeKnight&#45;&gt;no0.DestroyEntity -->
<g id="edge5" class="edge">
<title>no0.EntityAxeKnight&#45;&gt;no0.DestroyEntity</title>
<path fill="none" stroke="black" d="M1856.14,-182.81C1720.59,-150.07 1386.76,-69.45 1244.19,-35.01"/>
<polygon fill="black" stroke="black" points="1244.8,-31.56 1234.26,-32.61 1243.15,-38.36 1244.8,-31.56"/>
<text text-anchor="middle" x="1229.26" y="-36.41" font-family="Times,serif" font-size="14.00">1</text>
</g>
<!-- no0.GetDistanceToPlayerX -->
<g id="node7" class="node">
<title>no0.GetDistanceToPlayerX</title>
<g id="a_node7"><a xlink:href="no0.GetDistanceToPlayerX.svg" xlink:title="no0.GetDistanceToPlayerX">
<ellipse fill="green" stroke="black" cx="1426.89" cy="-18" rx="134.58" ry="18"/>
<text text-anchor="middle" x="1426.89" y="-14.3" font-family="Times,serif" font-size="14.00">no0.GetDistanceToPlayerX</text>
</a>
</g>
</g>
<!-- no0.EntityAxeKnight&#45;&gt;no0.GetDistanceToPlayerX -->
<g id="edge6" class="edge">
<title>no0.EntityAxeKnight&#45;&gt;no0.GetDistanceToPlayerX</title>
<path fill="none" stroke="black" d="M1872.01,-181.36C1782.97,-148.88 1578.21,-74.19 1480.57,-38.58"/>
<polygon fill="black" stroke="black" points="1481.5,-35.19 1470.9,-35.05 1479.1,-41.77 1481.5,-35.19"/>
<text text-anchor="middle" x="1465.9" y="-38.85" font-family="Times,serif" font-size="14.00">4</text>
</g>
<!-- no0.GetSideToPlayer -->
<g id="node8" class="node">
<title>no0.GetSideToPlayer</title>
<g id="a_node8"><a xlink:href="no0.GetSideToPlayer.svg" xlink:title="no0.GetSideToPlayer">
<ellipse fill="green" stroke="black" cx="1687.89" cy="-18" rx="108.58" ry="18"/>
<text text-anchor="middle" x="1687.89" y="-14.3" font-family="Times,serif" font-size="14.00">no0.GetSideToPlayer</text>
</a>
</g>
</g>
<!-- no0.EntityAxeKnight&#45;&gt;no0.GetSideToPlayer -->
<g id="edge7" class="edge">
<title>no0.EntityAxeKnight&#45;&gt;no0.GetSideToPlayer</title>
<path fill="none" stroke="black" d="M1893.54,-180.25C1852.81,-148.32 1763.96,-78.65 1717.51,-42.23"/>
<polygon fill="black" stroke="black" points="1719.39,-39.25 1709.36,-35.83 1715.07,-44.76 1719.39,-39.25"/>
<text text-anchor="middle" x="1704.36" y="-39.63" font-family="Times,serif" font-size="14.00">4</text>
</g>
<!-- no0.InitializeEntity -->
<g id="node9" class="node">
<title>no0.InitializeEntity</title>
<g id="a_node9"><a xlink:href="no0.InitializeEntity.svg" xlink:title="no0.InitializeEntity">
<ellipse fill="green" stroke="black" cx="1914.89" cy="-18" rx="100.18" ry="18"/>
<text text-anchor="middle" x="1914.89" y="-14.3" font-family="Times,serif" font-size="14.00">no0.InitializeEntity</text>
</a>
</g>
</g>
<!-- no0.EntityAxeKnight&#45;&gt;no0.InitializeEntity -->
<g id="edge8" class="edge">
<title>no0.EntityAxeKnight&#45;&gt;no0.InitializeEntity</title>
<path fill="none" stroke="black" d="M1914.89,-179.93C1914.89,-148.97 1914.89,-83.3 1914.89,-46.13"/>
<polygon fill="black" stroke="black" points="1918.39,-46.02 1914.89,-36.02 1911.39,-46.02 1918.39,-46.02"/>
<text text-anchor="middle" x="1909.89" y="-39.82" font-family="Times,serif" font-size="14.00">1</text>
</g>
<!-- no0.PlaySfxPositional -->
<g id="node10" class="node">
<title>no0.PlaySfxPositional</title>
<g id="a_node10"><a xlink:href="no0.PlaySfxPositional.svg" xlink:title="no0.PlaySfxPositional">
<ellipse fill="green" stroke="black" cx="2143.89" cy="-18" rx="111.28" ry="18"/>
<text text-anchor="middle" x="2143.89" y="-14.3" font-family="Times,serif" font-size="14.00">no0.PlaySfxPositional</text>
</a>
</g>
</g>
<!-- no0.EntityAxeKnight&#45;&gt;no0.PlaySfxPositional -->
<g id="edge9" class="edge">
<title>no0.EntityAxeKnight&#45;&gt;no0.PlaySfxPositional</title>
<path fill="none" stroke="black" d="M1936.44,-180.25C1977.61,-148.25 2067.53,-78.36 2114.3,-42"/>
<polygon fill="black" stroke="black" points="2116.49,-44.73 2122.24,-35.83 2112.2,-39.2 2116.49,-44.73"/>
<text text-anchor="middle" x="2117.24" y="-39.63" font-family="Times,serif" font-size="14.00">4</text>
</g>
<!-- no0.SetStep -->
<g id="node11" class="node">
<title>no0.SetStep</title>
<g id="a_node11"><a xlink:href="no0.SetStep.svg" xlink:title="no0.SetStep">
<ellipse fill="green" stroke="black" cx="2340.89" cy="-18" rx="67.69" ry="18"/>
<text text-anchor="middle" x="2340.89" y="-14.3" font-family="Times,serif" font-size="14.00">no0.SetStep</text>
</a>
</g>
</g>
<!-- no0.EntityAxeKnight&#45;&gt;no0.SetStep -->
<g id="edge10" class="edge">
<title>no0.EntityAxeKnight&#45;&gt;no0.SetStep</title>
<path fill="none" stroke="black" d="M1953.07,-181.05C2032.12,-148.02 2213.31,-72.31 2297.02,-37.33"/>
<polygon fill="black" stroke="black" points="2298.37,-40.56 2306.25,-33.48 2295.67,-34.1 2298.37,-40.56"/>
<text text-anchor="middle" x="2301.25" y="-37.28" font-family="Times,serif" font-size="14.00">6</text>
</g>
<!-- no0.UnkCollisionFunc2 -->
<g id="node12" class="node">
<title>no0.UnkCollisionFunc2</title>
<g id="a_node12"><a xlink:href="no0.UnkCollisionFunc2.svg" xlink:title="no0.UnkCollisionFunc2">
<ellipse fill="green" stroke="black" cx="2544.89" cy="-18" rx="118.08" ry="18"/>
<text text-anchor="middle" x="2544.89" y="-14.3" font-family="Times,serif" font-size="14.00">no0.UnkCollisionFunc2</text>
</a>
</g>
</g>
<!-- no0.EntityAxeKnight&#45;&gt;no0.UnkCollisionFunc2 -->
<g id="edge11" class="edge">
<title>no0.EntityAxeKnight&#45;&gt;no0.UnkCollisionFunc2</title>
<path fill="none" stroke="black" d="M1967.25,-182.21C2082.39,-149.68 2357.2,-72.03 2481.69,-36.86"/>
<polygon fill="black" stroke="black" points="2482.79,-40.18 2491.47,-34.1 2480.89,-33.45 2482.79,-40.18"/>
<text text-anchor="middle" x="2486.47" y="-37.9" font-family="Times,serif" font-size="14.00">1</text>
</g>
<!-- no0.UnkCollisionFunc3 -->
<g id="node13" class="node">
<title>no0.UnkCollisionFunc3</title>
<g id="a_node13"><a xlink:href="no0.UnkCollisionFunc3.svg" xlink:title="no0.UnkCollisionFunc3">
<ellipse fill="green" stroke="black" cx="2799.89" cy="-18" rx="118.08" ry="18"/>
<text text-anchor="middle" x="2799.89" y="-14.3" font-family="Times,serif" font-size="14.00">no0.UnkCollisionFunc3</text>
</a>
</g>
</g>
<!-- no0.EntityAxeKnight&#45;&gt;no0.UnkCollisionFunc3 -->
<g id="edge12" class="edge">
<title>no0.EntityAxeKnight&#45;&gt;no0.UnkCollisionFunc3</title>
<path fill="none" stroke="black" d="M1981.05,-183.69C2141.28,-151.47 2549.62,-69.34 2721.62,-34.74"/>
<polygon fill="black" stroke="black" points="2722.5,-38.14 2731.62,-32.73 2721.12,-31.27 2722.5,-38.14"/>
<text text-anchor="middle" x="2726.62" y="-36.53" font-family="Times,serif" font-size="14.00">1</text>
</g>
<!-- no0.func_801C4198 -->
<g id="node14" class="node">
<title>no0.func_801C4198</title>
<g id="a_node14"><a xlink:href="no0.func_801C4198.svg" xlink:title="no0.func_801C4198">
<ellipse fill="red" stroke="black" cx="3038.89" cy="-18" rx="102.88" ry="18"/>
<text text-anchor="middle" x="3038.89" y="-14.3" font-family="Times,serif" font-size="14.00">no0.func_801C4198</text>
</a>
</g>
</g>
<!-- no0.EntityAxeKnight&#45;&gt;no0.func_801C4198 -->
<g id="edge13" class="edge">
<title>no0.EntityAxeKnight&#45;&gt;no0.func_801C4198</title>
<path fill="none" stroke="black" d="M1990.39,-185.04C2192.45,-153.04 2744.57,-65.61 2955.48,-32.21"/>
<polygon fill="black" stroke="black" points="2956.23,-35.63 2965.56,-30.61 2955.14,-28.72 2956.23,-35.63"/>
<text text-anchor="middle" x="2960.56" y="-34.41" font-family="Times,serif" font-size="14.00">1</text>
</g>
<!-- no0.func_801C4550 -->
<g id="node15" class="node">
<title>no0.func_801C4550</title>
<g id="a_node15"><a xlink:href="no0.func_801C4550.svg" xlink:title="no0.func_801C4550">
<ellipse fill="red" stroke="black" cx="3261.89" cy="-18" rx="102.88" ry="18"/>
<text text-anchor="middle" x="3261.89" y="-14.3" font-family="Times,serif" font-size="14.00">no0.func_801C4550</text>
</a>
</g>
</g>
<!-- no0.EntityAxeKnight&#45;&gt;no0.func_801C4550 -->
<g id="edge14" class="edge">
<title>no0.EntityAxeKnight&#45;&gt;no0.func_801C4550</title>
<path fill="none" stroke="black" d="M1999.28,-186.67C2199.39,-162.03 2718.36,-97.28 3150.89,-36 3159.68,-34.75 3168.86,-33.41 3178,-32.05"/>
<polygon fill="black" stroke="black" points="3178.52,-35.51 3187.89,-30.57 3177.48,-28.59 3178.52,-35.51"/>
<text text-anchor="middle" x="3182.89" y="-34.37" font-family="Times,serif" font-size="14.00">1</text>
</g>
<!-- no0.func_us_801C3334 -->
<g id="node16" class="node">
<title>no0.func_us_801C3334</title>
<g id="a_node16"><a xlink:href="no0.func_us_801C3334.svg" xlink:title="no0.func_us_801C3334">
<ellipse fill="red" stroke="black" cx="3500.89" cy="-18" rx="118.08" ry="18"/>
<text text-anchor="middle" x="3500.89" y="-14.3" font-family="Times,serif" font-size="14.00">no0.func_us_801C3334</text>
</a>
</g>
</g>
<!-- no0.EntityAxeKnight&#45;&gt;no0.func_us_801C3334 -->
<g id="edge15" class="edge">
<title>no0.EntityAxeKnight&#45;&gt;no0.func_us_801C3334</title>
<path fill="none" stroke="black" d="M2004.21,-187.87C2232.45,-164.39 2855.65,-99.27 3373.89,-36 3384.37,-34.72 3395.34,-33.33 3406.24,-31.92"/>
<polygon fill="black" stroke="black" points="3406.76,-35.38 3416.22,-30.61 3405.85,-28.44 3406.76,-35.38"/>
<text text-anchor="middle" x="3411.22" y="-34.41" font-family="Times,serif" font-size="14.00">1</text>
</g>
</g>
</svg>
