<?xml version="1.0" encoding="UTF-8" standalone="no"?>
<!DOCTYPE svg PUBLIC "-//W3C//DTD SVG 1.1//EN"
 "http://www.w3.org/Graphics/SVG/1.1/DTD/svg11.dtd">
<!-- Generated by graphviz version 2.43.0 (0)
 -->
<!-- Title: no0.EntityAxeKnight Pages: 1 -->
<svg width="3605pt" height="224pt"
 viewBox="0.00 0.00 3604.58 224.00" xmlns="http://www.w3.org/2000/svg" xmlns:xlink="http://www.w3.org/1999/xlink">
<g id="graph0" class="graph" transform="scale(1 1) rotate(0) translate(4 220)">
<title>no0.EntityAxeKnight</title>
<polygon fill="white" stroke="transparent" points="-4,4 -4,-220 3600.58,-220 3600.58,4 -4,4"/>
<!-- no0.EntityAxeKnight -->
<g id="node1" class="node">
<title>no0.EntityAxeKnight</title>
<ellipse fill="red" stroke="black" cx="1914.89" cy="-198" rx="107.78" ry="18"/>
<text text-anchor="middle" x="1914.89" y="-194.3" font-family="Times,serif" font-size="14.00">no0.EntityAxeKnight</text>
</g>
<!-- no0.AllocEntity -->
<g id="node2" class="node">
<title>no0.AllocEntity</title>
<g id="a_node2"><a xlink:href="no0.AllocEntity.svg" xlink:title="no0.AllocEntity">
<ellipse fill="green" stroke="black" cx="81.89" cy="-18" rx="81.79" ry="18"/>
<text text-anchor="middle" x="81.89" y="-14.3" font-family="Times,serif" font-size="14.00">no0.AllocEntity</text>
</a>
</g>
</g>
<!-- no0.EntityAxeKnight&#45;&gt;no0.AllocEntity -->
<g id="edge1" class="edge">
<title>no0.EntityAxeKnight&#45;&gt;no0.AllocEntity</title>
<path fill="none" stroke="black" d="M1815.34,-191.04C1548.4,-174.35 794.83,-122.64 172.89,-36 165.48,-34.97 157.75,-33.75 150.06,-32.44"/>
<polygon fill="black" stroke="black" points="150.47,-28.96 140.02,-30.69 149.26,-35.86 150.47,-28.96"/>
<text text-anchor="middle" x="135.02" y="-34.49" font-family="Times,serif" font-size="14.00">4</text>
</g>
<!-- no0.AnimateEntity -->
<g id="node3" class="node">
<title>no0.AnimateEntity</title>
<g id="a_node3"><a xlink:href="no0.AnimateEntity.svg" xlink:title="no0.AnimateEntity">
<ellipse fill="green" stroke="black" cx="279.89" cy="-18" rx="98.28" ry="18"/>
<text text-anchor="middle" x="279.89" y="-14.3" font-family="Times,serif" font-size="14.00">no0.AnimateEntity</text>
</a>
</g>
</g>
<!-- no0.EntityAxeKnight&#45;&gt;no0.AnimateEntity -->
<g id="edge2" class="edge">
<title>no0.EntityAxeKnight&#45;&gt;no0.AnimateEntity</title>
<path fill="none" stroke="black" d="M1821.67,-188.9C1582.73,-167.76 929.02,-107.58 386.89,-36 378.22,-34.86 369.17,-33.57 360.16,-32.22"/>
<polygon fill="black" stroke="black" points="360.45,-28.72 350.03,-30.68 359.4,-35.64 360.45,-28.72"/>
<text text-anchor="middle" x="345.03" y="-34.48" font-family="Times,serif" font-size="14.00">6</text>
</g>
<!-- no0.CreateEntityFromCurrentEntity -->
<g id="node4" class="node">
<title>no0.CreateEntityFromCurrentEntity</title>
<g id="a_node4"><a xlink:href="no0.CreateEntityFromCurrentEntity.svg" xlink:title="no0.CreateEntityFromCurrentEntity">
<ellipse fill="red" stroke="black" cx="576.89" cy="-18" rx="180.87" ry="18"/>
<text text-anchor="middle" x="576.89" y="-14.3" font-family="Times,serif" font-size="14.00">no0.CreateEntityFromCurrentEntity</text>
</a>
</g>
</g>
<!-- no0.EntityAxeKnight&#45;&gt;no0.CreateEntityFromCurrentEntity -->
<g id="edge3" class="edge">
<title>no0.EntityAxeKnight&#45;&gt;no0.CreateEntityFromCurrentEntity</title>
<path fill="none" stroke="black" d="M1833.21,-186.13C1603.96,-155.63 954.12,-69.18 690.3,-34.09"/>
<polygon fill="black" stroke="black" points="690.69,-30.61 680.32,-32.76 689.77,-37.55 690.69,-30.61"/>
<text text-anchor="middle" x="675.32" y="-36.56" font-family="Times,serif" font-size="14.00">3</text>
</g>
<!-- no0.CreateEntityFromEntity -->
<g id="node5" class="node">
<title>no0.CreateEntityFromEntity</title>
<g id="a_node5"><a xlink:href="no0.CreateEntityFromEntity.svg" xlink:title="no0.CreateEntityFromEntity">
<ellipse fill="red" stroke="black" cx="919.89" cy="-18" rx="144.07" ry="18"/>
<text text-anchor="middle" x="919.89" y="-14.3" font-family="Times,serif" font-size="14.00">no0.CreateEntityFromEntity</text>
</a>
</g>
</g>
<!-- no0.EntityAxeKnight&#45;&gt;no0.CreateEntityFromEntity -->
<g id="edge4" class="edge">
<title>no0.EntityAxeKnight&#45;&gt;no0.CreateEntityFromEntity</title>
<path fill="none" stroke="black" d="M1844.13,-184.34C1666.85,-152.63 1203.93,-69.81 1008.74,-34.89"/>
<polygon fill="black" stroke="black" points="1009.27,-31.43 998.81,-33.12 1008.03,-38.32 1009.27,-31.43"/>
<text text-anchor="middle" x="993.81" y="-36.92" font-family="Times,serif" font-size="14.00">1</text>
</g>
<!-- no0.DestroyEntity -->
<g id="node6" class="node">
<title>no0.DestroyEntity</title>
<g id="a_node6"><a xlink:href="no0.DestroyEntity.svg" xlink:title="no0.DestroyEntity">
<ellipse fill="green" stroke="black" cx="1177.89" cy="-18" rx="96.38" ry="18"/>
<text text-anchor="middle" x="1177.89" y="-14.3" font-family="Times,serif" font-size="14.00">no0.DestroyEntity</text>
</a>
</g>
</g>
<!-- no0.EntityAxeKnight&#45;&gt;no0.DestroyEntity -->
<g id="edge5" class="edge">
<title>no0.EntityAxeKnight&#45;&gt;no0.DestroyEntity</title>
<path fill="none" stroke="black" d="M1856.14,-182.81C1720.59,-150.07 1386.76,-69.45 1244.19,-35.01"/>
<polygon fill="black" stroke="black" points="1244.8,-31.56 1234.26,-32.61 1243.15,-38.36 1244.8,-31.56"/>
<text text-anchor="middle" x="1229.26" y="-36.41" font-family="Times,serif" font-size="14.00">1</text>
</g>
<!-- no0.GetDistanceToPlayerX -->
<g id="node7" class="node">
<title>no0.GetDistanceToPlayerX</title>
<g id="a_node7"><a xlink:href="no0.GetDistanceToPlayerX.svg" xlink:title="no0.GetDistanceToPlayerX">
<ellipse fill="green" stroke="black" cx="1426.89" cy="-18" rx="134.58" ry="18"/>
<text text-anchor="middle" x="1426.89" y="-14.3" font-family="Times,serif" font-size="14.00">no0.GetDistanceToPlayerX</text>
</a>
</g>
</g>
<!-- no0.EntityAxeKnight&#45;&gt;no0.GetDistanceToPlayerX -->
<g id="edge6" class="edge">
<title>no0.EntityAxeKnight&#45;&gt;no0.GetDistanceToPlayerX</title>
<path fill="none" stroke="black" d="M1872.01,-181.36C1782.97,-148.88 1578.21,-74.19 1480.57,-38.58"/>
<polygon fill="black" stroke="black" points="1481.5,-35.19 1470.9,-35.05 1479.1,-41.77 1481.5,-35.19"/>
<text text-anchor="middle" x="1465.9" y="-38.85" font-family="Times,serif" font-size="14.00">4</text>
</g>
<!-- no0.GetSideToPlayer -->
<g id="node8" class="node">
<title>no0.GetSideToPlayer</title>
<g id="a_node8"><a xlink:href="no0.GetSideToPlayer.svg" xlink:title="no0.GetSideToPlayer">
<ellipse fill="green" stroke="black" cx="1687.89" cy="-18" rx="108.58" ry="18"/>
<text text-anchor="middle" x="1687.89" y="-14.3" font-family="Times,serif" font-size="14.00">no0.GetSideToPlayer</text>
</a>
</g>
</g>
<!-- no0.EntityAxeKnight&#45;&gt;no0.GetSideToPlayer -->
<g id="edge7" class="edge">
<title>no0.EntityAxeKnight&#45;&gt;no0.GetSideToPlayer</title>
<path fill="none" stroke="black" d="M1893.54,-180.25C1852.81,-148.32 1763.96,-78.65 1717.51,-42.23"/>
<polygon fill="black" stroke="black" points="1719.39,-39.25 1709.36,-35.83 1715.07,-44.76 1719.39,-39.25"/>
<text text-anchor="middle" x="1704.36" y="-39.63" font-family="Times,serif" font-size="14.00">4</text>
</g>
<!-- no0.InitializeEntity -->
<g id="node9" class="node">
<title>no0.InitializeEntity</title>
<g id="a_node9"><a xlink:href="no0.InitializeEntity.svg" xlink:title="no0.InitializeEntity">
<ellipse fill="green" stroke="black" cx="1914.89" cy="-18" rx="100.18" ry="18"/>
<text text-anchor="middle" x="1914.89" y="-14.3" font-family="Times,serif" font-size="14.00">no0.InitializeEntity</text>
</a>
</g>
</g>
<!-- no0.EntityAxeKnight&#45;&gt;no0.InitializeEntity -->
<g id="edge8" class="edge">
<title>no0.EntityAxeKnight&#45;&gt;no0.InitializeEntity</title>
<path fill="none" stroke="black" d="M1914.89,-179.93C1914.89,-148.97 1914.89,-83.3 1914.89,-46.13"/>
<polygon fill="black" stroke="black" points="1918.39,-46.02 1914.89,-36.02 1911.39,-46.02 1918.39,-46.02"/>
<text text-anchor="middle" x="1909.89" y="-39.82" font-family="Times,serif" font-size="14.00">1</text>
</g>
<!-- no0.MakeExplosions -->
<g id="node10" class="node">
<title>no0.MakeExplosions</title>
<g id="a_node10"><a xlink:href="no0.MakeExplosions.svg" xlink:title="no0.MakeExplosions">
<ellipse fill="red" stroke="black" cx="2139.89" cy="-18" rx="106.68" ry="18"/>
<text text-anchor="middle" x="2139.89" y="-14.3" font-family="Times,serif" font-size="14.00">no0.MakeExplosions</text>
</a>
</g>
</g>
<!-- no0.EntityAxeKnight&#45;&gt;no0.MakeExplosions -->
<g id="edge9" class="edge">
<title>no0.EntityAxeKnight&#45;&gt;no0.MakeExplosions</title>
<path fill="none" stroke="black" d="M1936.06,-180.25C1976.43,-148.32 2064.5,-78.65 2110.53,-42.23"/>
<polygon fill="black" stroke="black" points="2112.95,-44.78 2118.62,-35.83 2108.6,-39.29 2112.95,-44.78"/>
<text text-anchor="middle" x="2113.62" y="-39.63" font-family="Times,serif" font-size="14.00">1</text>
</g>
<!-- no0.PlaySfxPositional -->
<g id="node11" class="node">
<title>no0.PlaySfxPositional</title>
<g id="a_node11"><a xlink:href="no0.PlaySfxPositional.svg" xlink:title="no0.PlaySfxPositional">
<ellipse fill="red" stroke="black" cx="2375.89" cy="-18" rx="111.28" ry="18"/>
<text text-anchor="middle" x="2375.89" y="-14.3" font-family="Times,serif" font-size="14.00">no0.PlaySfxPositional</text>
</a>
</g>
</g>
<!-- no0.EntityAxeKnight&#45;&gt;no0.PlaySfxPositional -->
<g id="edge10" class="edge">
<title>no0.EntityAxeKnight&#45;&gt;no0.PlaySfxPositional</title>
<path fill="none" stroke="black" d="M1955.8,-181.2C2040.3,-148.58 2233.84,-73.85 2325.71,-38.38"/>
<polygon fill="black" stroke="black" points="2327.01,-41.63 2335.07,-34.76 2324.48,-35.1 2327.01,-41.63"/>
<text text-anchor="middle" x="2330.07" y="-38.56" font-family="Times,serif" font-size="14.00">4</text>
</g>
<!-- no0.SetStep -->
<g id="node12" class="node">
<title>no0.SetStep</title>
<g id="a_node12"><a xlink:href="no0.SetStep.svg" xlink:title="no0.SetStep">
<ellipse fill="green" stroke="black" cx="2572.89" cy="-18" rx="67.69" ry="18"/>
<text text-anchor="middle" x="2572.89" y="-14.3" font-family="Times,serif" font-size="14.00">no0.SetStep</text>
</a>
</g>
</g>
<!-- no0.EntityAxeKnight&#45;&gt;no0.SetStep -->
<g id="edge11" class="edge">
<title>no0.EntityAxeKnight&#45;&gt;no0.SetStep</title>
<path fill="none" stroke="black" d="M1969.02,-182.36C2092.34,-149 2393.1,-67.64 2517.56,-33.97"/>
<polygon fill="black" stroke="black" points="2518.54,-37.33 2527.28,-31.34 2516.71,-30.57 2518.54,-37.33"/>
<text text-anchor="middle" x="2522.28" y="-35.14" font-family="Times,serif" font-size="14.00">6</text>
</g>
<!-- no0.UnkCollisionFunc2 -->
<g id="node13" class="node">
<title>no0.UnkCollisionFunc2</title>
<g id="a_node13"><a xlink:href="no0.UnkCollisionFunc2.svg" xlink:title="no0.UnkCollisionFunc2">
<ellipse fill="green" stroke="black" cx="2776.89" cy="-18" rx="118.08" ry="18"/>
<text text-anchor="middle" x="2776.89" y="-14.3" font-family="Times,serif" font-size="14.00">no0.UnkCollisionFunc2</text>
</a>
</g>
</g>
<!-- no0.EntityAxeKnight&#45;&gt;no0.UnkCollisionFunc2 -->
<g id="edge12" class="edge">
<title>no0.EntityAxeKnight&#45;&gt;no0.UnkCollisionFunc2</title>
<path fill="none" stroke="black" d="M1980.04,-183.55C2136.28,-151.28 2531.78,-69.61 2699.65,-34.95"/>
<polygon fill="black" stroke="black" points="2700.56,-38.34 2709.64,-32.89 2699.14,-31.48 2700.56,-38.34"/>
<text text-anchor="middle" x="2704.64" y="-36.69" font-family="Times,serif" font-size="14.00">1</text>
</g>
<!-- no0.UnkCollisionFunc3 -->
<g id="node14" class="node">
<title>no0.UnkCollisionFunc3</title>
<g id="a_node14"><a xlink:href="no0.UnkCollisionFunc3.svg" xlink:title="no0.UnkCollisionFunc3">
<ellipse fill="green" stroke="black" cx="3031.89" cy="-18" rx="118.08" ry="18"/>
<text text-anchor="middle" x="3031.89" y="-14.3" font-family="Times,serif" font-size="14.00">no0.UnkCollisionFunc3</text>
</a>
</g>
</g>
<!-- no0.EntityAxeKnight&#45;&gt;no0.UnkCollisionFunc3 -->
<g id="edge13" class="edge">
<title>no0.EntityAxeKnight&#45;&gt;no0.UnkCollisionFunc3</title>
<path fill="none" stroke="black" d="M1989.92,-185.04C2189.02,-153.32 2730.1,-67.09 2943.58,-33.07"/>
<polygon fill="black" stroke="black" points="2944.17,-36.52 2953.49,-31.49 2943.07,-29.61 2944.17,-36.52"/>
<text text-anchor="middle" x="2948.49" y="-35.29" font-family="Times,serif" font-size="14.00">1</text>
</g>
<!-- no0.func_801C4198 -->
<g id="node15" class="node">
<title>no0.func_801C4198</title>
<g id="a_node15"><a xlink:href="no0.func_801C4198.svg" xlink:title="no0.func_801C4198">
<ellipse fill="red" stroke="black" cx="3270.89" cy="-18" rx="102.88" ry="18"/>
<text text-anchor="middle" x="3270.89" y="-14.3" font-family="Times,serif" font-size="14.00">no0.func_801C4198</text>
</a>
</g>
</g>
<!-- no0.EntityAxeKnight&#45;&gt;no0.func_801C4198 -->
<g id="edge14" class="edge">
<title>no0.EntityAxeKnight&#45;&gt;no0.func_801C4198</title>
<path fill="none" stroke="black" d="M1999.45,-186.71C2200.58,-162.08 2723.27,-97.24 3158.89,-36 3167.9,-34.73 3177.32,-33.37 3186.69,-31.98"/>
<polygon fill="black" stroke="black" points="3187.45,-35.41 3196.82,-30.48 3186.42,-28.49 3187.45,-35.41"/>
<text text-anchor="middle" x="3191.82" y="-34.28" font-family="Times,serif" font-size="14.00">1</text>
</g>
<!-- no0.func_801C4550 -->
<g id="node16" class="node">
<title>no0.func_801C4550</title>
<g id="a_node16"><a xlink:href="no0.func_801C4550.svg" xlink:title="no0.func_801C4550">
<ellipse fill="red" stroke="black" cx="3493.89" cy="-18" rx="102.88" ry="18"/>
<text text-anchor="middle" x="3493.89" y="-14.3" font-family="Times,serif" font-size="14.00">no0.func_801C4550</text>
</a>
</g>
</g>
<!-- no0.EntityAxeKnight&#45;&gt;no0.func_801C4550 -->
<g id="edge15" class="edge">
<title>no0.EntityAxeKnight&#45;&gt;no0.func_801C4550</title>
<path fill="none" stroke="black" d="M2006.1,-188.36C2236.96,-166.21 2863.04,-104.28 3382.89,-36 3391.91,-34.82 3401.32,-33.5 3410.69,-32.14"/>
<polygon fill="black" stroke="black" points="3411.43,-35.57 3420.81,-30.65 3410.41,-28.64 3411.43,-35.57"/>
<text text-anchor="middle" x="3415.81" y="-34.45" font-family="Times,serif" font-size="14.00">1</text>
</g>
</g>
</svg>
