<?xml version="1.0" encoding="UTF-8" standalone="no"?>
<!DOCTYPE svg PUBLIC "-//W3C//DTD SVG 1.1//EN"
 "http://www.w3.org/Graphics/SVG/1.1/DTD/svg11.dtd">
<!-- Generated by graphviz version 2.43.0 (0)
 -->
<!-- Title: no1.func_us_801C01F0 Pages: 1 -->
<svg width="2177pt" height="224pt"
 viewBox="0.00 0.00 2177.43 224.00" xmlns="http://www.w3.org/2000/svg" xmlns:xlink="http://www.w3.org/1999/xlink">
<g id="graph0" class="graph" transform="scale(1 1) rotate(0) translate(4 220)">
<title>no1.func_us_801C01F0</title>
<polygon fill="white" stroke="transparent" points="-4,4 -4,-220 2173.43,-220 2173.43,4 -4,4"/>
<!-- no1.func_us_801C01F0 -->
<g id="node1" class="node">
<title>no1.func_us_801C01F0</title>
<ellipse fill="green" stroke="black" cx="1098.44" cy="-198" rx="118.08" ry="18"/>
<text text-anchor="middle" x="1098.44" y="-194.3" font-family="Times,serif" font-size="14.00">no1.func_us_801C01F0</text>
</g>
<!-- dra.AllocPrimitives -->
<g id="node2" class="node">
<title>dra.AllocPrimitives</title>
<g id="a_node2"><a xlink:href="dra.AllocPrimitives.svg" xlink:title="dra.AllocPrimitives">
<ellipse fill="green" stroke="black" cx="99.44" cy="-18" rx="99.38" ry="18"/>
<text text-anchor="middle" x="99.44" y="-14.3" font-family="Times,serif" font-size="14.00">dra.AllocPrimitives</text>
</a>
</g>
</g>
<!-- no1.func_us_801C01F0&#45;&gt;dra.AllocPrimitives -->
<g id="edge1" class="edge">
<title>no1.func_us_801C01F0&#45;&gt;dra.AllocPrimitives</title>
<path fill="none" stroke="black" d="M1024.58,-183.84C841.08,-151.14 365.75,-66.45 177.69,-32.94"/>
<polygon fill="black" stroke="black" points="178.07,-29.45 167.61,-31.15 176.84,-36.35 178.07,-29.45"/>
<text text-anchor="middle" x="162.61" y="-34.95" font-family="Times,serif" font-size="14.00">1</text>
</g>
<!-- dra.CheckCollision -->
<g id="node3" class="node">
<title>dra.CheckCollision</title>
<g id="a_node3"><a xlink:href="dra.CheckCollision.svg" xlink:title="dra.CheckCollision">
<ellipse fill="green" stroke="black" cx="314.44" cy="-18" rx="97.48" ry="18"/>
<text text-anchor="middle" x="314.44" y="-14.3" font-family="Times,serif" font-size="14.00">dra.CheckCollision</text>
</a>
</g>
</g>
<!-- no1.func_us_801C01F0&#45;&gt;dra.CheckCollision -->
<g id="edge2" class="edge">
<title>no1.func_us_801C01F0&#45;&gt;dra.CheckCollision</title>
<path fill="none" stroke="black" d="M1035.61,-182.73C890.69,-149.83 533.94,-68.83 383.32,-34.64"/>
<polygon fill="black" stroke="black" points="383.8,-31.16 373.27,-32.36 382.25,-37.98 383.8,-31.16"/>
<text text-anchor="middle" x="368.27" y="-36.16" font-family="Times,serif" font-size="14.00">1</text>
</g>
<!-- no1.AllocEntity -->
<g id="node4" class="node">
<title>no1.AllocEntity</title>
<g id="a_node4"><a xlink:href="no1.AllocEntity.svg" xlink:title="no1.AllocEntity">
<ellipse fill="green" stroke="black" cx="511.44" cy="-18" rx="81.79" ry="18"/>
<text text-anchor="middle" x="511.44" y="-14.3" font-family="Times,serif" font-size="14.00">no1.AllocEntity</text>
</a>
</g>
</g>
<!-- no1.func_us_801C01F0&#45;&gt;no1.AllocEntity -->
<g id="edge3" class="edge">
<title>no1.func_us_801C01F0&#45;&gt;no1.AllocEntity</title>
<path fill="none" stroke="black" d="M1047.89,-181.67C938.58,-148.52 680.96,-70.41 567.16,-35.89"/>
<polygon fill="black" stroke="black" points="568.16,-32.54 557.58,-32.99 566.13,-39.24 568.16,-32.54"/>
<text text-anchor="middle" x="552.58" y="-36.79" font-family="Times,serif" font-size="14.00">1</text>
</g>
<!-- no1.AnimateEntity -->
<g id="node5" class="node">
<title>no1.AnimateEntity</title>
<g id="a_node5"><a xlink:href="no1.AnimateEntity.svg" xlink:title="no1.AnimateEntity">
<ellipse fill="green" stroke="black" cx="709.44" cy="-18" rx="98.28" ry="18"/>
<text text-anchor="middle" x="709.44" y="-14.3" font-family="Times,serif" font-size="14.00">no1.AnimateEntity</text>
</a>
</g>
</g>
<!-- no1.func_us_801C01F0&#45;&gt;no1.AnimateEntity -->
<g id="edge4" class="edge">
<title>no1.func_us_801C01F0&#45;&gt;no1.AnimateEntity</title>
<path fill="none" stroke="black" d="M1062.89,-180.73C991.66,-148.14 831.65,-74.92 753.74,-39.27"/>
<polygon fill="black" stroke="black" points="754.76,-35.89 744.21,-34.91 751.85,-42.25 754.76,-35.89"/>
<text text-anchor="middle" x="739.21" y="-38.71" font-family="Times,serif" font-size="14.00">1</text>
</g>
<!-- no1.CreateEntityFromEntity -->
<g id="node6" class="node">
<title>no1.CreateEntityFromEntity</title>
<g id="a_node6"><a xlink:href="no1.CreateEntityFromEntity.svg" xlink:title="no1.CreateEntityFromEntity">
<ellipse fill="green" stroke="black" cx="969.44" cy="-18" rx="144.07" ry="18"/>
<text text-anchor="middle" x="969.44" y="-14.3" font-family="Times,serif" font-size="14.00">no1.CreateEntityFromEntity</text>
</a>
</g>
</g>
<!-- no1.func_us_801C01F0&#45;&gt;no1.CreateEntityFromEntity -->
<g id="edge5" class="edge">
<title>no1.func_us_801C01F0&#45;&gt;no1.CreateEntityFromEntity</title>
<path fill="none" stroke="black" d="M1086.07,-179.93C1063.24,-148.43 1014.4,-81.03 987.73,-44.24"/>
<polygon fill="black" stroke="black" points="990.48,-42.06 981.77,-36.02 984.81,-46.17 990.48,-42.06"/>
<text text-anchor="middle" x="976.77" y="-39.82" font-family="Times,serif" font-size="14.00">1</text>
</g>
<!-- no1.DestroyEntity -->
<g id="node7" class="node">
<title>no1.DestroyEntity</title>
<g id="a_node7"><a xlink:href="no1.DestroyEntity.svg" xlink:title="no1.DestroyEntity">
<ellipse fill="green" stroke="black" cx="1227.44" cy="-18" rx="96.38" ry="18"/>
<text text-anchor="middle" x="1227.44" y="-14.3" font-family="Times,serif" font-size="14.00">no1.DestroyEntity</text>
</a>
</g>
</g>
<!-- no1.func_us_801C01F0&#45;&gt;no1.DestroyEntity -->
<g id="edge6" class="edge">
<title>no1.func_us_801C01F0&#45;&gt;no1.DestroyEntity</title>
<path fill="none" stroke="black" d="M1110.81,-179.93C1133.64,-148.43 1182.48,-81.03 1209.15,-44.24"/>
<polygon fill="black" stroke="black" points="1212.08,-46.17 1215.11,-36.02 1206.41,-42.06 1212.08,-46.17"/>
<text text-anchor="middle" x="1210.11" y="-39.82" font-family="Times,serif" font-size="14.00">1</text>
</g>
<!-- no1.InitializeEntity -->
<g id="node8" class="node">
<title>no1.InitializeEntity</title>
<g id="a_node8"><a xlink:href="no1.InitializeEntity.svg" xlink:title="no1.InitializeEntity">
<ellipse fill="green" stroke="black" cx="1441.44" cy="-18" rx="100.18" ry="18"/>
<text text-anchor="middle" x="1441.44" y="-14.3" font-family="Times,serif" font-size="14.00">no1.InitializeEntity</text>
</a>
</g>
</g>
<!-- no1.func_us_801C01F0&#45;&gt;no1.InitializeEntity -->
<g id="edge7" class="edge">
<title>no1.func_us_801C01F0&#45;&gt;no1.InitializeEntity</title>
<path fill="none" stroke="black" d="M1130.09,-180.57C1192.66,-148.1 1332.06,-75.76 1401.1,-39.94"/>
<polygon fill="black" stroke="black" points="1403.1,-42.84 1410.36,-35.13 1399.87,-36.63 1403.1,-42.84"/>
<text text-anchor="middle" x="1405.36" y="-38.93" font-family="Times,serif" font-size="14.00">1</text>
</g>
<!-- no1.MoveEntity -->
<g id="node9" class="node">
<title>no1.MoveEntity</title>
<g id="a_node9"><a xlink:href="no1.MoveEntity.svg" xlink:title="no1.MoveEntity">
<ellipse fill="green" stroke="black" cx="1644.44" cy="-18" rx="85.29" ry="18"/>
<text text-anchor="middle" x="1644.44" y="-14.3" font-family="Times,serif" font-size="14.00">no1.MoveEntity</text>
</a>
</g>
</g>
<!-- no1.func_us_801C01F0&#45;&gt;no1.MoveEntity -->
<g id="edge8" class="edge">
<title>no1.func_us_801C01F0&#45;&gt;no1.MoveEntity</title>
<path fill="none" stroke="black" d="M1146.42,-181.36C1247.99,-148.25 1484.12,-71.26 1590.63,-36.54"/>
<polygon fill="black" stroke="black" points="1591.8,-39.84 1600.22,-33.42 1589.63,-33.19 1591.8,-39.84"/>
<text text-anchor="middle" x="1595.22" y="-37.22" font-family="Times,serif" font-size="14.00">1</text>
</g>
<!-- no1.UnkPolyFunc2 -->
<g id="node10" class="node">
<title>no1.UnkPolyFunc2</title>
<g id="a_node10"><a xlink:href="no1.UnkPolyFunc2.svg" xlink:title="no1.UnkPolyFunc2">
<ellipse fill="green" stroke="black" cx="1845.44" cy="-18" rx="98.28" ry="18"/>
<text text-anchor="middle" x="1845.44" y="-14.3" font-family="Times,serif" font-size="14.00">no1.UnkPolyFunc2</text>
</a>
</g>
</g>
<!-- no1.func_us_801C01F0&#45;&gt;no1.UnkPolyFunc2 -->
<g id="edge9" class="edge">
<title>no1.func_us_801C01F0&#45;&gt;no1.UnkPolyFunc2</title>
<path fill="none" stroke="black" d="M1159.25,-182.51C1297.36,-149.6 1633.81,-69.43 1778.01,-35.07"/>
<polygon fill="black" stroke="black" points="1779.14,-38.4 1788.06,-32.67 1777.52,-31.59 1779.14,-38.4"/>
<text text-anchor="middle" x="1783.06" y="-36.47" font-family="Times,serif" font-size="14.00">1</text>
</g>
<!-- no1.UnkPrimHelper -->
<g id="node11" class="node">
<title>no1.UnkPrimHelper</title>
<g id="a_node11"><a xlink:href="no1.UnkPrimHelper.svg" xlink:title="no1.UnkPrimHelper">
<ellipse fill="green" stroke="black" cx="2065.44" cy="-18" rx="103.98" ry="18"/>
<text text-anchor="middle" x="2065.44" y="-14.3" font-family="Times,serif" font-size="14.00">no1.UnkPrimHelper</text>
</a>
</g>
</g>
<!-- no1.func_us_801C01F0&#45;&gt;no1.UnkPrimHelper -->
<g id="edge10" class="edge">
<title>no1.func_us_801C01F0&#45;&gt;no1.UnkPrimHelper</title>
<path fill="none" stroke="black" d="M1170.73,-183.69C1348.11,-151.04 1803.78,-67.17 1987.21,-33.4"/>
<polygon fill="black" stroke="black" points="1987.85,-36.84 1997.06,-31.59 1986.59,-29.96 1987.85,-36.84"/>
<text text-anchor="middle" x="1992.06" y="-35.39" font-family="Times,serif" font-size="14.00">1</text>
</g>
</g>
</svg>
