<?xml version="1.0" encoding="UTF-8" standalone="no"?>
<!DOCTYPE svg PUBLIC "-//W3C//DTD SVG 1.1//EN"
 "http://www.w3.org/Graphics/SVG/1.1/DTD/svg11.dtd">
<!-- Generated by graphviz version 2.43.0 (0)
 -->
<!-- Title: no1.CreateEntityFromCurrentEntity Pages: 1 -->
<svg width="3566pt" height="404pt"
 viewBox="0.00 0.00 3566.03 404.00" xmlns="http://www.w3.org/2000/svg" xmlns:xlink="http://www.w3.org/1999/xlink">
<g id="graph0" class="graph" transform="scale(1 1) rotate(0) translate(4 400)">
<title>no1.CreateEntityFromCurrentEntity</title>
<polygon fill="white" stroke="transparent" points="-4,4 -4,-400 3562.03,-400 3562.03,4 -4,4"/>
<!-- no1.CreateEntityFromCurrentEntity -->
<g id="node1" class="node">
<title>no1.CreateEntityFromCurrentEntity</title>
<ellipse fill="green" stroke="black" cx="1791.74" cy="-198" rx="180.87" ry="18"/>
<text text-anchor="middle" x="1791.74" y="-194.3" font-family="Times,serif" font-size="14.00">no1.CreateEntityFromCurrentEntity</text>
</g>
<!-- no1.DestroyEntity -->
<g id="node2" class="node">
<title>no1.DestroyEntity</title>
<g id="a_node2"><a xlink:href="no1.DestroyEntity.svg" xlink:title="no1.DestroyEntity">
<ellipse fill="green" stroke="black" cx="1791.74" cy="-18" rx="96.38" ry="18"/>
<text text-anchor="middle" x="1791.74" y="-14.3" font-family="Times,serif" font-size="14.00">no1.DestroyEntity</text>
</a>
</g>
</g>
<!-- no1.CreateEntityFromCurrentEntity&#45;&gt;no1.DestroyEntity -->
<g id="edge1" class="edge">
<title>no1.CreateEntityFromCurrentEntity&#45;&gt;no1.DestroyEntity</title>
<path fill="none" stroke="black" d="M1791.74,-179.93C1791.74,-148.97 1791.74,-83.3 1791.74,-46.13"/>
<polygon fill="black" stroke="black" points="1795.24,-46.02 1791.74,-36.02 1788.24,-46.02 1795.24,-46.02"/>
<text text-anchor="middle" x="1786.74" y="-39.82" font-family="Times,serif" font-size="14.00">1</text>
</g>
<!-- no1.AxeKnightUnkFunc1 -->
<g id="node3" class="node">
<title>no1.AxeKnightUnkFunc1</title>
<g id="a_node3"><a xlink:href="no1.AxeKnightUnkFunc1.svg" xlink:title="no1.AxeKnightUnkFunc1">
<ellipse fill="green" stroke="black" cx="126.74" cy="-378" rx="126.98" ry="18"/>
<text text-anchor="middle" x="126.74" y="-374.3" font-family="Times,serif" font-size="14.00">no1.AxeKnightUnkFunc1</text>
</a>
</g>
</g>
<!-- no1.AxeKnightUnkFunc1&#45;&gt;no1.CreateEntityFromCurrentEntity -->
<g id="edge2" class="edge">
<title>no1.AxeKnightUnkFunc1&#45;&gt;no1.CreateEntityFromCurrentEntity</title>
<path fill="none" stroke="black" d="M217.12,-365.36C232.02,-363.52 247.31,-361.67 261.74,-360 777.47,-300.4 1392.09,-238.49 1658.1,-212.14"/>
<polygon fill="black" stroke="black" points="1658.58,-215.61 1668.19,-211.14 1657.89,-208.64 1658.58,-215.61"/>
<text text-anchor="middle" x="212.12" y="-354.16" font-family="Times,serif" font-size="14.00">1</text>
</g>
<!-- no1.EntityAxeKnightBlue -->
<g id="node4" class="node">
<title>no1.EntityAxeKnightBlue</title>
<g id="a_node4"><a xlink:href="no1.EntityAxeKnightBlue.svg" xlink:title="no1.EntityAxeKnightBlue">
<ellipse fill="green" stroke="black" cx="399.74" cy="-378" rx="128.88" ry="18"/>
<text text-anchor="middle" x="399.74" y="-374.3" font-family="Times,serif" font-size="14.00">no1.EntityAxeKnightBlue</text>
</a>
</g>
</g>
<!-- no1.EntityAxeKnightBlue&#45;&gt;no1.CreateEntityFromCurrentEntity -->
<g id="edge3" class="edge">
<title>no1.EntityAxeKnightBlue&#45;&gt;no1.CreateEntityFromCurrentEntity</title>
<path fill="none" stroke="black" d="M491.34,-365.29C735.97,-334 1404.36,-248.53 1675.33,-213.89"/>
<polygon fill="black" stroke="black" points="1676.1,-217.32 1685.58,-212.57 1675.22,-210.37 1676.1,-217.32"/>
<text text-anchor="middle" x="486.34" y="-354.09" font-family="Times,serif" font-size="14.00">3</text>
</g>
<!-- no1.EntityMistDoor -->
<g id="node5" class="node">
<title>no1.EntityMistDoor</title>
<g id="a_node5"><a xlink:href="no1.EntityMistDoor.svg" xlink:title="no1.EntityMistDoor">
<ellipse fill="green" stroke="black" cx="648.74" cy="-378" rx="102.88" ry="18"/>
<text text-anchor="middle" x="648.74" y="-374.3" font-family="Times,serif" font-size="14.00">no1.EntityMistDoor</text>
</a>
</g>
</g>
<!-- no1.EntityMistDoor&#45;&gt;no1.CreateEntityFromCurrentEntity -->
<g id="edge4" class="edge">
<title>no1.EntityMistDoor&#45;&gt;no1.CreateEntityFromCurrentEntity</title>
<path fill="none" stroke="black" d="M722.85,-365.46C920.63,-334.66 1461.3,-250.46 1688.75,-215.04"/>
<polygon fill="black" stroke="black" points="1689.34,-218.49 1698.68,-213.49 1688.26,-211.57 1689.34,-218.49"/>
<text text-anchor="middle" x="717.85" y="-354.26" font-family="Times,serif" font-size="14.00">1</text>
</g>
<!-- no1.EntitySkeleton -->
<g id="node6" class="node">
<title>no1.EntitySkeleton</title>
<g id="a_node6"><a xlink:href="no1.EntitySkeleton.svg" xlink:title="no1.EntitySkeleton">
<ellipse fill="green" stroke="black" cx="869.74" cy="-378" rx="100.18" ry="18"/>
<text text-anchor="middle" x="869.74" y="-374.3" font-family="Times,serif" font-size="14.00">no1.EntitySkeleton</text>
</a>
</g>
</g>
<!-- no1.EntitySkeleton&#45;&gt;no1.CreateEntityFromCurrentEntity -->
<g id="edge5" class="edge">
<title>no1.EntitySkeleton&#45;&gt;no1.CreateEntityFromCurrentEntity</title>
<path fill="none" stroke="black" d="M935.31,-364.34C1097.6,-333.01 1518.23,-251.8 1702.76,-216.18"/>
<polygon fill="black" stroke="black" points="1703.54,-219.59 1712.7,-214.26 1702.22,-212.72 1703.54,-219.59"/>
<text text-anchor="middle" x="930.31" y="-353.14" font-family="Times,serif" font-size="14.00">2</text>
</g>
<!-- no1.EntitySkeletonApe -->
<g id="node7" class="node">
<title>no1.EntitySkeletonApe</title>
<g id="a_node7"><a xlink:href="no1.EntitySkeletonApe.svg" xlink:title="no1.EntitySkeletonApe">
<ellipse fill="green" stroke="black" cx="1105.74" cy="-378" rx="117.78" ry="18"/>
<text text-anchor="middle" x="1105.74" y="-374.3" font-family="Times,serif" font-size="14.00">no1.EntitySkeletonApe</text>
</a>
</g>
</g>
<!-- no1.EntitySkeletonApe&#45;&gt;no1.CreateEntityFromCurrentEntity -->
<g id="edge6" class="edge">
<title>no1.EntitySkeletonApe&#45;&gt;no1.CreateEntityFromCurrentEntity</title>
<path fill="none" stroke="black" d="M1162.75,-362.21C1287.28,-329.89 1583.33,-253.08 1720.15,-217.58"/>
<polygon fill="black" stroke="black" points="1721.32,-220.89 1730.12,-214.99 1719.56,-214.11 1721.32,-220.89"/>
<text text-anchor="middle" x="1157.75" y="-351.01" font-family="Times,serif" font-size="14.00">3</text>
</g>
<!-- no1.EntitySkeletonApeBarrel -->
<g id="node8" class="node">
<title>no1.EntitySkeletonApeBarrel</title>
<g id="a_node8"><a xlink:href="no1.EntitySkeletonApeBarrel.svg" xlink:title="no1.EntitySkeletonApeBarrel">
<ellipse fill="green" stroke="black" cx="1388.74" cy="-378" rx="146.77" ry="18"/>
<text text-anchor="middle" x="1388.74" y="-374.3" font-family="Times,serif" font-size="14.00">no1.EntitySkeletonApeBarrel</text>
</a>
</g>
</g>
<!-- no1.EntitySkeletonApeBarrel&#45;&gt;no1.CreateEntityFromCurrentEntity -->
<g id="edge7" class="edge">
<title>no1.EntitySkeletonApeBarrel&#45;&gt;no1.CreateEntityFromCurrentEntity</title>
<path fill="none" stroke="black" d="M1425.93,-360.57C1499.52,-328.07 1663.57,-255.61 1744.59,-219.82"/>
<polygon fill="black" stroke="black" points="1746.32,-222.89 1754.05,-215.65 1743.49,-216.48 1746.32,-222.89"/>
<text text-anchor="middle" x="1420.93" y="-349.37" font-family="Times,serif" font-size="14.00">2</text>
</g>
<!-- no1.EntitySpearGuard -->
<g id="node9" class="node">
<title>no1.EntitySpearGuard</title>
<g id="a_node9"><a xlink:href="no1.EntitySpearGuard.svg" xlink:title="no1.EntitySpearGuard">
<ellipse fill="green" stroke="black" cx="1669.74" cy="-378" rx="115.88" ry="18"/>
<text text-anchor="middle" x="1669.74" y="-374.3" font-family="Times,serif" font-size="14.00">no1.EntitySpearGuard</text>
</a>
</g>
</g>
<!-- no1.EntitySpearGuard&#45;&gt;no1.CreateEntityFromCurrentEntity -->
<g id="edge8" class="edge">
<title>no1.EntitySpearGuard&#45;&gt;no1.CreateEntityFromCurrentEntity</title>
<path fill="none" stroke="black" d="M1681.44,-359.93C1702.93,-328.57 1748.83,-261.6 1774.12,-224.71"/>
<polygon fill="black" stroke="black" points="1777.31,-226.24 1780.08,-216.02 1771.54,-222.29 1777.31,-226.24"/>
<text text-anchor="middle" x="1676.44" y="-348.73" font-family="Times,serif" font-size="14.00">3</text>
</g>
<!-- no1.EntitySwordLord -->
<g id="node10" class="node">
<title>no1.EntitySwordLord</title>
<g id="a_node10"><a xlink:href="no1.EntitySwordLord.svg" xlink:title="no1.EntitySwordLord">
<ellipse fill="green" stroke="black" cx="1913.74" cy="-378" rx="110.48" ry="18"/>
<text text-anchor="middle" x="1913.74" y="-374.3" font-family="Times,serif" font-size="14.00">no1.EntitySwordLord</text>
</a>
</g>
</g>
<!-- no1.EntitySwordLord&#45;&gt;no1.CreateEntityFromCurrentEntity -->
<g id="edge9" class="edge">
<title>no1.EntitySwordLord&#45;&gt;no1.CreateEntityFromCurrentEntity</title>
<path fill="none" stroke="black" d="M1902.04,-359.93C1880.54,-328.57 1834.65,-261.6 1809.36,-224.71"/>
<polygon fill="black" stroke="black" points="1811.94,-222.29 1803.4,-216.02 1806.17,-226.24 1811.94,-222.29"/>
<text text-anchor="middle" x="1897.04" y="-348.73" font-family="Times,serif" font-size="14.00">2</text>
</g>
<!-- no1.func_us_801B5E20 -->
<g id="node11" class="node">
<title>no1.func_us_801B5E20</title>
<g id="a_node11"><a xlink:href="no1.func_us_801B5E20.svg" xlink:title="no1.func_us_801B5E20">
<ellipse fill="green" stroke="black" cx="2160.74" cy="-378" rx="118.88" ry="18"/>
<text text-anchor="middle" x="2160.74" y="-374.3" font-family="Times,serif" font-size="14.00">no1.func_us_801B5E20</text>
</a>
</g>
</g>
<!-- no1.func_us_801B5E20&#45;&gt;no1.CreateEntityFromCurrentEntity -->
<g id="edge10" class="edge">
<title>no1.func_us_801B5E20&#45;&gt;no1.CreateEntityFromCurrentEntity</title>
<path fill="none" stroke="black" d="M2127.01,-360.73C2059.96,-328.39 1909.96,-256.03 1835.46,-220.09"/>
<polygon fill="black" stroke="black" points="1836.85,-216.88 1826.32,-215.68 1833.81,-223.18 1836.85,-216.88"/>
<text text-anchor="middle" x="2122.01" y="-349.53" font-family="Times,serif" font-size="14.00">2</text>
</g>
<!-- no1.func_us_801B6198 -->
<g id="node12" class="node">
<title>no1.func_us_801B6198</title>
<g id="a_node12"><a xlink:href="no1.func_us_801B6198.svg" xlink:title="no1.func_us_801B6198">
<ellipse fill="green" stroke="black" cx="2415.74" cy="-378" rx="118.08" ry="18"/>
<text text-anchor="middle" x="2415.74" y="-374.3" font-family="Times,serif" font-size="14.00">no1.func_us_801B6198</text>
</a>
</g>
</g>
<!-- no1.func_us_801B6198&#45;&gt;no1.CreateEntityFromCurrentEntity -->
<g id="edge11" class="edge">
<title>no1.func_us_801B6198&#45;&gt;no1.CreateEntityFromCurrentEntity</title>
<path fill="none" stroke="black" d="M2362.81,-361.9C2249.35,-329.54 1982.93,-253.54 1858.26,-217.98"/>
<polygon fill="black" stroke="black" points="1859.03,-214.55 1848.45,-215.18 1857.11,-221.29 1859.03,-214.55"/>
<text text-anchor="middle" x="2357.81" y="-350.7" font-family="Times,serif" font-size="14.00">1</text>
</g>
<!-- no1.func_us_801BA290 -->
<g id="node13" class="node">
<title>no1.func_us_801BA290</title>
<g id="a_node13"><a xlink:href="no1.func_us_801BA290.svg" xlink:title="no1.func_us_801BA290">
<ellipse fill="green" stroke="black" cx="2670.74" cy="-378" rx="118.08" ry="18"/>
<text text-anchor="middle" x="2670.74" y="-374.3" font-family="Times,serif" font-size="14.00">no1.func_us_801BA290</text>
</a>
</g>
</g>
<!-- no1.func_us_801BA290&#45;&gt;no1.CreateEntityFromCurrentEntity -->
<g id="edge12" class="edge">
<title>no1.func_us_801BA290&#45;&gt;no1.CreateEntityFromCurrentEntity</title>
<path fill="none" stroke="black" d="M2602.86,-363.25C2444.75,-331.24 2052.15,-251.73 1877.67,-216.4"/>
<polygon fill="black" stroke="black" points="1878.25,-212.95 1867.76,-214.39 1876.86,-219.81 1878.25,-212.95"/>
<text text-anchor="middle" x="2597.86" y="-352.05" font-family="Times,serif" font-size="14.00">1</text>
</g>
<!-- no1.func_us_801C0B9C -->
<g id="node14" class="node">
<title>no1.func_us_801C0B9C</title>
<g id="a_node14"><a xlink:href="no1.func_us_801C0B9C.svg" xlink:title="no1.func_us_801C0B9C">
<ellipse fill="green" stroke="black" cx="2927.74" cy="-378" rx="120.48" ry="18"/>
<text text-anchor="middle" x="2927.74" y="-374.3" font-family="Times,serif" font-size="14.00">no1.func_us_801C0B9C</text>
</a>
</g>
</g>
<!-- no1.func_us_801C0B9C&#45;&gt;no1.CreateEntityFromCurrentEntity -->
<g id="edge13" class="edge">
<title>no1.func_us_801C0B9C&#45;&gt;no1.CreateEntityFromCurrentEntity</title>
<path fill="none" stroke="black" d="M2847.86,-364.48C2646.54,-332.94 2118.52,-250.2 1894.55,-215.11"/>
<polygon fill="black" stroke="black" points="1894.86,-211.62 1884.44,-213.53 1893.78,-218.53 1894.86,-211.62"/>
<text text-anchor="middle" x="2842.86" y="-353.28" font-family="Times,serif" font-size="14.00">2</text>
</g>
<!-- no1.func_us_801D1388 -->
<g id="node15" class="node">
<title>no1.func_us_801D1388</title>
<g id="a_node15"><a xlink:href="no1.func_us_801D1388.svg" xlink:title="no1.func_us_801D1388">
<ellipse fill="green" stroke="black" cx="3184.74" cy="-378" rx="118.08" ry="18"/>
<text text-anchor="middle" x="3184.74" y="-374.3" font-family="Times,serif" font-size="14.00">no1.func_us_801D1388</text>
</a>
</g>
</g>
<!-- no1.func_us_801D1388&#45;&gt;no1.CreateEntityFromCurrentEntity -->
<g id="edge14" class="edge">
<title>no1.func_us_801D1388&#45;&gt;no1.CreateEntityFromCurrentEntity</title>
<path fill="none" stroke="black" d="M3099.03,-365.55C3084.9,-363.68 3070.41,-361.78 3056.74,-360 2634.57,-305.1 2132.88,-241.84 1909.33,-213.75"/>
<polygon fill="black" stroke="black" points="1909.58,-210.25 1899.22,-212.48 1908.71,-217.2 1909.58,-210.25"/>
<text text-anchor="middle" x="3094.03" y="-354.35" font-family="Times,serif" font-size="14.00">1</text>
</g>
<!-- no1.func_us_801D4558 -->
<g id="node16" class="node">
<title>no1.func_us_801D4558</title>
<g id="a_node16"><a xlink:href="no1.func_us_801D4558.svg" xlink:title="no1.func_us_801D4558">
<ellipse fill="green" stroke="black" cx="3439.74" cy="-378" rx="118.08" ry="18"/>
<text text-anchor="middle" x="3439.74" y="-374.3" font-family="Times,serif" font-size="14.00">no1.func_us_801D4558</text>
</a>
</g>
</g>
<!-- no1.func_us_801D4558&#45;&gt;no1.CreateEntityFromCurrentEntity -->
<g id="edge15" class="edge">
<title>no1.func_us_801D4558&#45;&gt;no1.CreateEntityFromCurrentEntity</title>
<path fill="none" stroke="black" d="M3354.75,-365.39C3340.4,-363.52 3325.65,-361.66 3311.74,-360 2800.87,-299.03 2191.97,-238.06 1926.55,-212.07"/>
<polygon fill="black" stroke="black" points="1926.78,-208.57 1916.49,-211.08 1926.1,-215.54 1926.78,-208.57"/>
<text text-anchor="middle" x="3349.75" y="-354.19" font-family="Times,serif" font-size="14.00">1</text>
</g>
</g>
</svg>
