<?xml version="1.0" encoding="UTF-8" standalone="no"?>
<!DOCTYPE svg PUBLIC "-//W3C//DTD SVG 1.1//EN"
 "http://www.w3.org/Graphics/SVG/1.1/DTD/svg11.dtd">
<!-- Generated by graphviz version 2.43.0 (0)
 -->
<!-- Title: no1.func_us_801D1A9C Pages: 1 -->
<svg width="1102pt" height="404pt"
 viewBox="0.00 0.00 1102.43 404.00" xmlns="http://www.w3.org/2000/svg" xmlns:xlink="http://www.w3.org/1999/xlink">
<g id="graph0" class="graph" transform="scale(1 1) rotate(0) translate(4 400)">
<title>no1.func_us_801D1A9C</title>
<polygon fill="white" stroke="transparent" points="-4,4 -4,-400 1098.43,-400 1098.43,4 -4,4"/>
<!-- no1.func_us_801D1A9C -->
<g id="node1" class="node">
<title>no1.func_us_801D1A9C</title>
<ellipse fill="green" stroke="black" cx="543.44" cy="-198" rx="120.48" ry="18"/>
<text text-anchor="middle" x="543.44" y="-194.3" font-family="Times,serif" font-size="14.00">no1.func_us_801D1A9C</text>
</g>
<!-- dra.AllocPrimitives -->
<g id="node2" class="node">
<title>dra.AllocPrimitives</title>
<g id="a_node2"><a xlink:href="dra.AllocPrimitives.svg" xlink:title="dra.AllocPrimitives">
<ellipse fill="green" stroke="black" cx="99.44" cy="-18" rx="99.38" ry="18"/>
<text text-anchor="middle" x="99.44" y="-14.3" font-family="Times,serif" font-size="14.00">dra.AllocPrimitives</text>
</a>
</g>
</g>
<!-- no1.func_us_801D1A9C&#45;&gt;dra.AllocPrimitives -->
<g id="edge1" class="edge">
<title>no1.func_us_801D1A9C&#45;&gt;dra.AllocPrimitives</title>
<path fill="none" stroke="black" d="M503.26,-180.89C421.57,-148.14 236.43,-73.92 148.1,-38.51"/>
<polygon fill="black" stroke="black" points="149.16,-35.16 138.58,-34.69 146.56,-41.66 149.16,-35.16"/>
<text text-anchor="middle" x="133.58" y="-38.49" font-family="Times,serif" font-size="14.00">1</text>
</g>
<!-- dra.FreePrimitives -->
<g id="node3" class="node">
<title>dra.FreePrimitives</title>
<g id="a_node3"><a xlink:href="dra.FreePrimitives.svg" xlink:title="dra.FreePrimitives">
<ellipse fill="green" stroke="black" cx="315.44" cy="-18" rx="98.58" ry="18"/>
<text text-anchor="middle" x="315.44" y="-14.3" font-family="Times,serif" font-size="14.00">dra.FreePrimitives</text>
</a>
</g>
</g>
<!-- no1.func_us_801D1A9C&#45;&gt;dra.FreePrimitives -->
<g id="edge2" class="edge">
<title>no1.func_us_801D1A9C&#45;&gt;dra.FreePrimitives</title>
<path fill="none" stroke="black" d="M521.99,-180.25C481,-148.25 391.47,-78.36 344.9,-42"/>
<polygon fill="black" stroke="black" points="347.04,-39.23 337,-35.83 342.73,-44.74 347.04,-39.23"/>
<text text-anchor="middle" x="332" y="-39.63" font-family="Times,serif" font-size="14.00">1</text>
</g>
<!-- no1.PlaySfxPositional -->
<g id="node4" class="node">
<title>no1.PlaySfxPositional</title>
<g id="a_node4"><a xlink:href="no1.PlaySfxPositional.svg" xlink:title="no1.PlaySfxPositional">
<ellipse fill="green" stroke="black" cx="543.44" cy="-18" rx="111.28" ry="18"/>
<text text-anchor="middle" x="543.44" y="-14.3" font-family="Times,serif" font-size="14.00">no1.PlaySfxPositional</text>
</a>
</g>
</g>
<!-- no1.func_us_801D1A9C&#45;&gt;no1.PlaySfxPositional -->
<g id="edge3" class="edge">
<title>no1.func_us_801D1A9C&#45;&gt;no1.PlaySfxPositional</title>
<path fill="none" stroke="black" d="M543.44,-179.93C543.44,-148.97 543.44,-83.3 543.44,-46.13"/>
<polygon fill="black" stroke="black" points="546.94,-46.02 543.44,-36.02 539.94,-46.02 546.94,-46.02"/>
<text text-anchor="middle" x="538.44" y="-39.82" font-family="Times,serif" font-size="14.00">1</text>
</g>
<!-- no1.UnkPolyFunc2 -->
<g id="node5" class="node">
<title>no1.UnkPolyFunc2</title>
<g id="a_node5"><a xlink:href="no1.UnkPolyFunc2.svg" xlink:title="no1.UnkPolyFunc2">
<ellipse fill="green" stroke="black" cx="770.44" cy="-18" rx="98.28" ry="18"/>
<text text-anchor="middle" x="770.44" y="-14.3" font-family="Times,serif" font-size="14.00">no1.UnkPolyFunc2</text>
</a>
</g>
</g>
<!-- no1.func_us_801D1A9C&#45;&gt;no1.UnkPolyFunc2 -->
<g id="edge4" class="edge">
<title>no1.func_us_801D1A9C&#45;&gt;no1.UnkPolyFunc2</title>
<path fill="none" stroke="black" d="M564.8,-180.25C605.53,-148.32 694.38,-78.65 740.82,-42.23"/>
<polygon fill="black" stroke="black" points="743.27,-44.76 748.98,-35.83 738.95,-39.25 743.27,-44.76"/>
<text text-anchor="middle" x="743.98" y="-39.63" font-family="Times,serif" font-size="14.00">1</text>
</g>
<!-- no1.UnkPrimHelper -->
<g id="node6" class="node">
<title>no1.UnkPrimHelper</title>
<g id="a_node6"><a xlink:href="no1.UnkPrimHelper.svg" xlink:title="no1.UnkPrimHelper">
<ellipse fill="green" stroke="black" cx="990.44" cy="-18" rx="103.98" ry="18"/>
<text text-anchor="middle" x="990.44" y="-14.3" font-family="Times,serif" font-size="14.00">no1.UnkPrimHelper</text>
</a>
</g>
</g>
<!-- no1.func_us_801D1A9C&#45;&gt;no1.UnkPrimHelper -->
<g id="edge5" class="edge">
<title>no1.func_us_801D1A9C&#45;&gt;no1.UnkPrimHelper</title>
<path fill="none" stroke="black" d="M583.9,-180.89C666.22,-148.11 852.91,-73.77 941.73,-38.4"/>
<polygon fill="black" stroke="black" points="943.04,-41.64 951.04,-34.69 940.45,-35.14 943.04,-41.64"/>
<text text-anchor="middle" x="946.04" y="-38.49" font-family="Times,serif" font-size="14.00">2</text>
</g>
<!-- no1.EntityArmorLord -->
<g id="node7" class="node">
<title>no1.EntityArmorLord</title>
<g id="a_node7"><a xlink:href="no1.EntityArmorLord.svg" xlink:title="no1.EntityArmorLord">
<ellipse fill="green" stroke="black" cx="543.44" cy="-378" rx="110.48" ry="18"/>
<text text-anchor="middle" x="543.44" y="-374.3" font-family="Times,serif" font-size="14.00">no1.EntityArmorLord</text>
</a>
</g>
</g>
<!-- no1.EntityArmorLord&#45;&gt;no1.func_us_801D1A9C -->
<g id="edge6" class="edge">
<title>no1.EntityArmorLord&#45;&gt;no1.func_us_801D1A9C</title>
<path fill="none" stroke="black" d="M543.44,-359.93C543.44,-328.97 543.44,-263.3 543.44,-226.13"/>
<polygon fill="black" stroke="black" points="546.94,-226.02 543.44,-216.02 539.94,-226.02 546.94,-226.02"/>
<text text-anchor="middle" x="538.44" y="-348.73" font-family="Times,serif" font-size="14.00">1</text>
</g>
</g>
</svg>
