<?xml version="1.0" encoding="UTF-8" standalone="no"?>
<!DOCTYPE svg PUBLIC "-//W3C//DTD SVG 1.1//EN"
 "http://www.w3.org/Graphics/SVG/1.1/DTD/svg11.dtd">
<!-- Generated by graphviz version 2.43.0 (0)
 -->
<!-- Title: no1.func_us_801D1388 Pages: 1 -->
<svg width="1609pt" height="404pt"
 viewBox="0.00 0.00 1608.63 404.00" xmlns="http://www.w3.org/2000/svg" xmlns:xlink="http://www.w3.org/1999/xlink">
<g id="graph0" class="graph" transform="scale(1 1) rotate(0) translate(4 400)">
<title>no1.func_us_801D1388</title>
<polygon fill="white" stroke="transparent" points="-4,4 -4,-400 1604.63,-400 1604.63,4 -4,4"/>
<!-- no1.func_us_801D1388 -->
<g id="node1" class="node">
<title>no1.func_us_801D1388</title>
<ellipse fill="green" stroke="black" cx="895.49" cy="-198" rx="118.08" ry="18"/>
<text text-anchor="middle" x="895.49" y="-194.3" font-family="Times,serif" font-size="14.00">no1.func_us_801D1388</text>
</g>
<!-- dra.CheckCollision -->
<g id="node2" class="node">
<title>dra.CheckCollision</title>
<g id="a_node2"><a xlink:href="dra.CheckCollision.svg" xlink:title="dra.CheckCollision">
<ellipse fill="green" stroke="black" cx="97.49" cy="-18" rx="97.48" ry="18"/>
<text text-anchor="middle" x="97.49" y="-14.3" font-family="Times,serif" font-size="14.00">dra.CheckCollision</text>
</a>
</g>
</g>
<!-- no1.func_us_801D1388&#45;&gt;dra.CheckCollision -->
<g id="edge1" class="edge">
<title>no1.func_us_801D1388&#45;&gt;dra.CheckCollision</title>
<path fill="none" stroke="black" d="M831.87,-182.81C684.37,-149.91 319.97,-68.63 166.94,-34.49"/>
<polygon fill="black" stroke="black" points="167.69,-31.07 157.17,-32.31 166.16,-37.9 167.69,-31.07"/>
<text text-anchor="middle" x="152.17" y="-36.11" font-family="Times,serif" font-size="14.00">1</text>
</g>
<!-- no1.AllocEntity -->
<g id="node3" class="node">
<title>no1.AllocEntity</title>
<g id="a_node3"><a xlink:href="no1.AllocEntity.svg" xlink:title="no1.AllocEntity">
<ellipse fill="green" stroke="black" cx="294.49" cy="-18" rx="81.79" ry="18"/>
<text text-anchor="middle" x="294.49" y="-14.3" font-family="Times,serif" font-size="14.00">no1.AllocEntity</text>
</a>
</g>
</g>
<!-- no1.func_us_801D1388&#45;&gt;no1.AllocEntity -->
<g id="edge2" class="edge">
<title>no1.func_us_801D1388&#45;&gt;no1.AllocEntity</title>
<path fill="none" stroke="black" d="M843.99,-181.75C732.11,-148.61 467.59,-70.27 351.17,-35.79"/>
<polygon fill="black" stroke="black" points="351.95,-32.37 341.37,-32.88 349.97,-39.08 351.95,-32.37"/>
<text text-anchor="middle" x="336.37" y="-36.68" font-family="Times,serif" font-size="14.00">1</text>
</g>
<!-- no1.CreateEntityFromCurrentEntity -->
<g id="node4" class="node">
<title>no1.CreateEntityFromCurrentEntity</title>
<g id="a_node4"><a xlink:href="no1.CreateEntityFromCurrentEntity.svg" xlink:title="no1.CreateEntityFromCurrentEntity">
<ellipse fill="green" stroke="black" cx="575.49" cy="-18" rx="180.87" ry="18"/>
<text text-anchor="middle" x="575.49" y="-14.3" font-family="Times,serif" font-size="14.00">no1.CreateEntityFromCurrentEntity</text>
</a>
</g>
</g>
<!-- no1.func_us_801D1388&#45;&gt;no1.CreateEntityFromCurrentEntity -->
<g id="edge3" class="edge">
<title>no1.func_us_801D1388&#45;&gt;no1.CreateEntityFromCurrentEntity</title>
<path fill="none" stroke="black" d="M865.67,-180.41C807.7,-148.17 679.81,-77.03 614.92,-40.93"/>
<polygon fill="black" stroke="black" points="616.26,-37.67 605.82,-35.87 612.85,-43.79 616.26,-37.67"/>
<text text-anchor="middle" x="600.82" y="-39.67" font-family="Times,serif" font-size="14.00">1</text>
</g>
<!-- no1.FindFirstUnkPrim2 -->
<g id="node5" class="node">
<title>no1.FindFirstUnkPrim2</title>
<g id="a_node5"><a xlink:href="no1.FindFirstUnkPrim2.svg" xlink:title="no1.FindFirstUnkPrim2">
<ellipse fill="green" stroke="black" cx="895.49" cy="-18" rx="121.58" ry="18"/>
<text text-anchor="middle" x="895.49" y="-14.3" font-family="Times,serif" font-size="14.00">no1.FindFirstUnkPrim2</text>
</a>
</g>
</g>
<!-- no1.func_us_801D1388&#45;&gt;no1.FindFirstUnkPrim2 -->
<g id="edge4" class="edge">
<title>no1.func_us_801D1388&#45;&gt;no1.FindFirstUnkPrim2</title>
<path fill="none" stroke="black" d="M895.49,-179.93C895.49,-148.97 895.49,-83.3 895.49,-46.13"/>
<polygon fill="black" stroke="black" points="898.99,-46.02 895.49,-36.02 891.99,-46.02 898.99,-46.02"/>
<text text-anchor="middle" x="890.49" y="-39.82" font-family="Times,serif" font-size="14.00">2</text>
</g>
<!-- no1.Random -->
<g id="node6" class="node">
<title>no1.Random</title>
<g id="a_node6"><a xlink:href="no1.Random.svg" xlink:title="no1.Random">
<ellipse fill="green" stroke="black" cx="1103.49" cy="-18" rx="68.79" ry="18"/>
<text text-anchor="middle" x="1103.49" y="-14.3" font-family="Times,serif" font-size="14.00">no1.Random</text>
</a>
</g>
</g>
<!-- no1.func_us_801D1388&#45;&gt;no1.Random -->
<g id="edge5" class="edge">
<title>no1.func_us_801D1388&#45;&gt;no1.Random</title>
<path fill="none" stroke="black" d="M915.44,-179.93C952.98,-147.81 1034.16,-78.33 1076.53,-42.07"/>
<polygon fill="black" stroke="black" points="1078.89,-44.66 1084.21,-35.5 1074.34,-39.34 1078.89,-44.66"/>
<text text-anchor="middle" x="1079.21" y="-39.3" font-family="Times,serif" font-size="14.00">1</text>
</g>
<!-- no1.UnkPolyFunc0 -->
<g id="node7" class="node">
<title>no1.UnkPolyFunc0</title>
<g id="a_node7"><a xlink:href="no1.UnkPolyFunc0.svg" xlink:title="no1.UnkPolyFunc0">
<ellipse fill="green" stroke="black" cx="1288.49" cy="-18" rx="98.28" ry="18"/>
<text text-anchor="middle" x="1288.49" y="-14.3" font-family="Times,serif" font-size="14.00">no1.UnkPolyFunc0</text>
</a>
</g>
</g>
<!-- no1.func_us_801D1388&#45;&gt;no1.UnkPolyFunc0 -->
<g id="edge6" class="edge">
<title>no1.func_us_801D1388&#45;&gt;no1.UnkPolyFunc0</title>
<path fill="none" stroke="black" d="M931.41,-180.73C1003.51,-148.07 1165.69,-74.62 1244.21,-39.05"/>
<polygon fill="black" stroke="black" points="1245.7,-42.22 1253.36,-34.91 1242.81,-35.85 1245.7,-42.22"/>
<text text-anchor="middle" x="1248.36" y="-38.71" font-family="Times,serif" font-size="14.00">1</text>
</g>
<!-- no1.UnkPolyFunc2 -->
<g id="node8" class="node">
<title>no1.UnkPolyFunc2</title>
<g id="a_node8"><a xlink:href="no1.UnkPolyFunc2.svg" xlink:title="no1.UnkPolyFunc2">
<ellipse fill="green" stroke="black" cx="1502.49" cy="-18" rx="98.28" ry="18"/>
<text text-anchor="middle" x="1502.49" y="-14.3" font-family="Times,serif" font-size="14.00">no1.UnkPolyFunc2</text>
</a>
</g>
</g>
<!-- no1.func_us_801D1388&#45;&gt;no1.UnkPolyFunc2 -->
<g id="edge7" class="edge">
<title>no1.func_us_801D1388&#45;&gt;no1.UnkPolyFunc2</title>
<path fill="none" stroke="black" d="M947.51,-181.75C1059.78,-148.82 1324.25,-71.27 1442.97,-36.45"/>
<polygon fill="black" stroke="black" points="1444.02,-39.79 1452.63,-33.62 1442.05,-33.08 1444.02,-39.79"/>
<text text-anchor="middle" x="1447.63" y="-37.42" font-family="Times,serif" font-size="14.00">2</text>
</g>
<!-- no1.EntityArmorLordFireWave -->
<g id="node9" class="node">
<title>no1.EntityArmorLordFireWave</title>
<g id="a_node9"><a xlink:href="no1.EntityArmorLordFireWave.svg" xlink:title="no1.EntityArmorLordFireWave">
<ellipse fill="green" stroke="black" cx="895.49" cy="-378" rx="154.07" ry="18"/>
<text text-anchor="middle" x="895.49" y="-374.3" font-family="Times,serif" font-size="14.00">no1.EntityArmorLordFireWave</text>
</a>
</g>
</g>
<!-- no1.EntityArmorLordFireWave&#45;&gt;no1.func_us_801D1388 -->
<g id="edge8" class="edge">
<title>no1.EntityArmorLordFireWave&#45;&gt;no1.func_us_801D1388</title>
<path fill="none" stroke="black" d="M895.49,-359.93C895.49,-328.97 895.49,-263.3 895.49,-226.13"/>
<polygon fill="black" stroke="black" points="898.99,-226.02 895.49,-216.02 891.99,-226.02 898.99,-226.02"/>
<text text-anchor="middle" x="890.49" y="-348.73" font-family="Times,serif" font-size="14.00">1</text>
</g>
</g>
</svg>
