<?xml version="1.0" encoding="UTF-8" standalone="no"?>
<!DOCTYPE svg PUBLIC "-//W3C//DTD SVG 1.1//EN"
 "http://www.w3.org/Graphics/SVG/1.1/DTD/svg11.dtd">
<!-- Generated by graphviz version 2.43.0 (0)
 -->
<!-- Title: no1.func_us_801BC9A8 Pages: 1 -->
<svg width="248pt" height="404pt"
 viewBox="0.00 0.00 248.48 404.00" xmlns="http://www.w3.org/2000/svg" xmlns:xlink="http://www.w3.org/1999/xlink">
<g id="graph0" class="graph" transform="scale(1 1) rotate(0) translate(4 400)">
<title>no1.func_us_801BC9A8</title>
<polygon fill="white" stroke="transparent" points="-4,4 -4,-400 244.48,-400 244.48,4 -4,4"/>
<!-- no1.func_us_801BC9A8 -->
<g id="node1" class="node">
<title>no1.func_us_801BC9A8</title>
<ellipse fill="green" stroke="black" cx="120.24" cy="-198" rx="119.68" ry="18"/>
<text text-anchor="middle" x="120.24" y="-194.3" font-family="Times,serif" font-size="14.00">no1.func_us_801BC9A8</text>
</g>
<!-- no1.UnkPrimHelper -->
<g id="node2" class="node">
<title>no1.UnkPrimHelper</title>
<g id="a_node2"><a xlink:href="no1.UnkPrimHelper.svg" xlink:title="no1.UnkPrimHelper">
<ellipse fill="green" stroke="black" cx="120.24" cy="-18" rx="103.98" ry="18"/>
<text text-anchor="middle" x="120.24" y="-14.3" font-family="Times,serif" font-size="14.00">no1.UnkPrimHelper</text>
</a>
</g>
</g>
<!-- no1.func_us_801BC9A8&#45;&gt;no1.UnkPrimHelper -->
<g id="edge1" class="edge">
<title>no1.func_us_801BC9A8&#45;&gt;no1.UnkPrimHelper</title>
<path fill="none" stroke="black" d="M120.24,-179.93C120.24,-148.97 120.24,-83.3 120.24,-46.13"/>
<polygon fill="black" stroke="black" points="123.74,-46.02 120.24,-36.02 116.74,-46.02 123.74,-46.02"/>
<text text-anchor="middle" x="115.24" y="-39.82" font-family="Times,serif" font-size="14.00">1</text>
</g>
<!-- no1.func_us_801BCB34 -->
<g id="node3" class="node">
<title>no1.func_us_801BCB34</title>
<g id="a_node3"><a xlink:href="no1.func_us_801BCB34.svg" xlink:title="no1.func_us_801BCB34">
<ellipse fill="green" stroke="black" cx="120.24" cy="-378" rx="120.48" ry="18"/>
<text text-anchor="middle" x="120.24" y="-374.3" font-family="Times,serif" font-size="14.00">no1.func_us_801BCB34</text>
</a>
</g>
</g>
<!-- no1.func_us_801BCB34&#45;&gt;no1.func_us_801BC9A8 -->
<g id="edge2" class="edge">
<title>no1.func_us_801BCB34&#45;&gt;no1.func_us_801BC9A8</title>
<path fill="none" stroke="black" d="M120.24,-359.93C120.24,-328.97 120.24,-263.3 120.24,-226.13"/>
<polygon fill="black" stroke="black" points="123.74,-226.02 120.24,-216.02 116.74,-226.02 123.74,-226.02"/>
<text text-anchor="middle" x="115.24" y="-348.73" font-family="Times,serif" font-size="14.00">1</text>
</g>
</g>
</svg>
