<?xml version="1.0" encoding="UTF-8" standalone="no"?>
<!DOCTYPE svg PUBLIC "-//W3C//DTD SVG 1.1//EN"
 "http://www.w3.org/Graphics/SVG/1.1/DTD/svg11.dtd">
<!-- Generated by graphviz version 2.43.0 (0)
 -->
<!-- Title: no1.func_us_801B6198 Pages: 1 -->
<svg width="2340pt" height="224pt"
 viewBox="0.00 0.00 2340.43 224.00" xmlns="http://www.w3.org/2000/svg" xmlns:xlink="http://www.w3.org/1999/xlink">
<g id="graph0" class="graph" transform="scale(1 1) rotate(0) translate(4 220)">
<title>no1.func_us_801B6198</title>
<polygon fill="white" stroke="transparent" points="-4,4 -4,-220 2336.43,-220 2336.43,4 -4,4"/>
<!-- no1.func_us_801B6198 -->
<g id="node1" class="node">
<title>no1.func_us_801B6198</title>
<ellipse fill="green" stroke="black" cx="1234.44" cy="-198" rx="118.08" ry="18"/>
<text text-anchor="middle" x="1234.44" y="-194.3" font-family="Times,serif" font-size="14.00">no1.func_us_801B6198</text>
</g>
<!-- dra.AllocPrimitives -->
<g id="node2" class="node">
<title>dra.AllocPrimitives</title>
<g id="a_node2"><a xlink:href="dra.AllocPrimitives.svg" xlink:title="dra.AllocPrimitives">
<ellipse fill="green" stroke="black" cx="99.44" cy="-18" rx="99.38" ry="18"/>
<text text-anchor="middle" x="99.44" y="-14.3" font-family="Times,serif" font-size="14.00">dra.AllocPrimitives</text>
</a>
</g>
</g>
<!-- no1.func_us_801B6198&#45;&gt;dra.AllocPrimitives -->
<g id="edge1" class="edge">
<title>no1.func_us_801B6198&#45;&gt;dra.AllocPrimitives</title>
<path fill="none" stroke="black" d="M1155.08,-184.55C947.95,-152.07 392.46,-64.95 181.9,-31.93"/>
<polygon fill="black" stroke="black" points="182.26,-28.44 171.83,-30.35 181.17,-35.36 182.26,-28.44"/>
<text text-anchor="middle" x="166.83" y="-34.15" font-family="Times,serif" font-size="14.00">1</text>
</g>
<!-- dra.CheckCollision -->
<g id="node3" class="node">
<title>dra.CheckCollision</title>
<g id="a_node3"><a xlink:href="dra.CheckCollision.svg" xlink:title="dra.CheckCollision">
<ellipse fill="green" stroke="black" cx="314.44" cy="-18" rx="97.48" ry="18"/>
<text text-anchor="middle" x="314.44" y="-14.3" font-family="Times,serif" font-size="14.00">dra.CheckCollision</text>
</a>
</g>
</g>
<!-- no1.func_us_801B6198&#45;&gt;dra.CheckCollision -->
<g id="edge2" class="edge">
<title>no1.func_us_801B6198&#45;&gt;dra.CheckCollision</title>
<path fill="none" stroke="black" d="M1164.54,-183.47C995.06,-150.69 563.45,-67.18 389.14,-33.45"/>
<polygon fill="black" stroke="black" points="389.77,-30.01 379.29,-31.55 388.44,-36.88 389.77,-30.01"/>
<text text-anchor="middle" x="374.29" y="-35.35" font-family="Times,serif" font-size="14.00">1</text>
</g>
<!-- dra.PlaySfx -->
<g id="node4" class="node">
<title>dra.PlaySfx</title>
<g id="a_node4"><a xlink:href="dra.PlaySfx.svg" xlink:title="dra.PlaySfx">
<ellipse fill="green" stroke="black" cx="494.44" cy="-18" rx="64.19" ry="18"/>
<text text-anchor="middle" x="494.44" y="-14.3" font-family="Times,serif" font-size="14.00">dra.PlaySfx</text>
</a>
</g>
</g>
<!-- no1.func_us_801B6198&#45;&gt;dra.PlaySfx -->
<g id="edge3" class="edge">
<title>no1.func_us_801B6198&#45;&gt;dra.PlaySfx</title>
<path fill="none" stroke="black" d="M1174.2,-182.51C1034.16,-148.82 688.27,-65.62 551.46,-32.71"/>
<polygon fill="black" stroke="black" points="552.13,-29.28 541.59,-30.34 550.49,-36.08 552.13,-29.28"/>
<text text-anchor="middle" x="536.59" y="-34.14" font-family="Times,serif" font-size="14.00">1</text>
</g>
<!-- no1.AllocEntity -->
<g id="node5" class="node">
<title>no1.AllocEntity</title>
<g id="a_node5"><a xlink:href="no1.AllocEntity.svg" xlink:title="no1.AllocEntity">
<ellipse fill="green" stroke="black" cx="658.44" cy="-18" rx="81.79" ry="18"/>
<text text-anchor="middle" x="658.44" y="-14.3" font-family="Times,serif" font-size="14.00">no1.AllocEntity</text>
</a>
</g>
</g>
<!-- no1.func_us_801B6198&#45;&gt;no1.AllocEntity -->
<g id="edge4" class="edge">
<title>no1.func_us_801B6198&#45;&gt;no1.AllocEntity</title>
<path fill="none" stroke="black" d="M1184.58,-181.59C1077.41,-148.47 825.74,-70.7 713.8,-36.11"/>
<polygon fill="black" stroke="black" points="714.65,-32.71 704.06,-33.1 712.58,-39.39 714.65,-32.71"/>
<text text-anchor="middle" x="699.06" y="-36.9" font-family="Times,serif" font-size="14.00">1</text>
</g>
<!-- no1.CreateEntityFromCurrentEntity -->
<g id="node6" class="node">
<title>no1.CreateEntityFromCurrentEntity</title>
<g id="a_node6"><a xlink:href="no1.CreateEntityFromCurrentEntity.svg" xlink:title="no1.CreateEntityFromCurrentEntity">
<ellipse fill="green" stroke="black" cx="939.44" cy="-18" rx="180.87" ry="18"/>
<text text-anchor="middle" x="939.44" y="-14.3" font-family="Times,serif" font-size="14.00">no1.CreateEntityFromCurrentEntity</text>
</a>
</g>
</g>
<!-- no1.func_us_801B6198&#45;&gt;no1.CreateEntityFromCurrentEntity -->
<g id="edge5" class="edge">
<title>no1.func_us_801B6198&#45;&gt;no1.CreateEntityFromCurrentEntity</title>
<path fill="none" stroke="black" d="M1206.95,-180.41C1153.62,-148.23 1036.1,-77.32 976.16,-41.15"/>
<polygon fill="black" stroke="black" points="977.77,-38.04 967.4,-35.87 974.15,-44.03 977.77,-38.04"/>
<text text-anchor="middle" x="962.4" y="-39.67" font-family="Times,serif" font-size="14.00">1</text>
</g>
<!-- no1.DestroyEntity -->
<g id="node7" class="node">
<title>no1.DestroyEntity</title>
<g id="a_node7"><a xlink:href="no1.DestroyEntity.svg" xlink:title="no1.DestroyEntity">
<ellipse fill="green" stroke="black" cx="1234.44" cy="-18" rx="96.38" ry="18"/>
<text text-anchor="middle" x="1234.44" y="-14.3" font-family="Times,serif" font-size="14.00">no1.DestroyEntity</text>
</a>
</g>
</g>
<!-- no1.func_us_801B6198&#45;&gt;no1.DestroyEntity -->
<g id="edge6" class="edge">
<title>no1.func_us_801B6198&#45;&gt;no1.DestroyEntity</title>
<path fill="none" stroke="black" d="M1234.44,-179.93C1234.44,-148.97 1234.44,-83.3 1234.44,-46.13"/>
<polygon fill="black" stroke="black" points="1237.94,-46.02 1234.44,-36.02 1230.94,-46.02 1237.94,-46.02"/>
<text text-anchor="middle" x="1229.44" y="-39.82" font-family="Times,serif" font-size="14.00">1</text>
</g>
<!-- no1.InitializeEntity -->
<g id="node8" class="node">
<title>no1.InitializeEntity</title>
<g id="a_node8"><a xlink:href="no1.InitializeEntity.svg" xlink:title="no1.InitializeEntity">
<ellipse fill="green" stroke="black" cx="1448.44" cy="-18" rx="100.18" ry="18"/>
<text text-anchor="middle" x="1448.44" y="-14.3" font-family="Times,serif" font-size="14.00">no1.InitializeEntity</text>
</a>
</g>
</g>
<!-- no1.func_us_801B6198&#45;&gt;no1.InitializeEntity -->
<g id="edge7" class="edge">
<title>no1.func_us_801B6198&#45;&gt;no1.InitializeEntity</title>
<path fill="none" stroke="black" d="M1254.57,-180.25C1292.97,-148.32 1376.73,-78.65 1420.52,-42.23"/>
<polygon fill="black" stroke="black" points="1422.76,-44.92 1428.21,-35.83 1418.28,-39.53 1422.76,-44.92"/>
<text text-anchor="middle" x="1423.21" y="-39.63" font-family="Times,serif" font-size="14.00">2</text>
</g>
<!-- no1.MoveEntity -->
<g id="node9" class="node">
<title>no1.MoveEntity</title>
<g id="a_node9"><a xlink:href="no1.MoveEntity.svg" xlink:title="no1.MoveEntity">
<ellipse fill="green" stroke="black" cx="1651.44" cy="-18" rx="85.29" ry="18"/>
<text text-anchor="middle" x="1651.44" y="-14.3" font-family="Times,serif" font-size="14.00">no1.MoveEntity</text>
</a>
</g>
</g>
<!-- no1.func_us_801B6198&#45;&gt;no1.MoveEntity -->
<g id="edge8" class="edge">
<title>no1.func_us_801B6198&#45;&gt;no1.MoveEntity</title>
<path fill="none" stroke="black" d="M1272.18,-180.89C1348.94,-148.13 1522.95,-73.85 1605.87,-38.45"/>
<polygon fill="black" stroke="black" points="1607.45,-41.58 1615.28,-34.44 1604.7,-35.14 1607.45,-41.58"/>
<text text-anchor="middle" x="1610.28" y="-38.24" font-family="Times,serif" font-size="14.00">1</text>
</g>
<!-- no1.Random -->
<g id="node10" class="node">
<title>no1.Random</title>
<g id="a_node10"><a xlink:href="no1.Random.svg" xlink:title="no1.Random">
<ellipse fill="green" stroke="black" cx="1823.44" cy="-18" rx="68.79" ry="18"/>
<text text-anchor="middle" x="1823.44" y="-14.3" font-family="Times,serif" font-size="14.00">no1.Random</text>
</a>
</g>
</g>
<!-- no1.func_us_801B6198&#45;&gt;no1.Random -->
<g id="edge9" class="edge">
<title>no1.func_us_801B6198&#45;&gt;no1.Random</title>
<path fill="none" stroke="black" d="M1285.17,-181.67C1395.68,-148.27 1657.3,-69.21 1770.13,-35.11"/>
<polygon fill="black" stroke="black" points="1771.37,-38.39 1779.93,-32.15 1769.34,-31.69 1771.37,-38.39"/>
<text text-anchor="middle" x="1774.93" y="-35.95" font-family="Times,serif" font-size="14.00">2</text>
</g>
<!-- no1.UnkPolyFunc2 -->
<g id="node11" class="node">
<title>no1.UnkPolyFunc2</title>
<g id="a_node11"><a xlink:href="no1.UnkPolyFunc2.svg" xlink:title="no1.UnkPolyFunc2">
<ellipse fill="green" stroke="black" cx="2008.44" cy="-18" rx="98.28" ry="18"/>
<text text-anchor="middle" x="2008.44" y="-14.3" font-family="Times,serif" font-size="14.00">no1.UnkPolyFunc2</text>
</a>
</g>
</g>
<!-- no1.func_us_801B6198&#45;&gt;no1.UnkPolyFunc2 -->
<g id="edge10" class="edge">
<title>no1.func_us_801B6198&#45;&gt;no1.UnkPolyFunc2</title>
<path fill="none" stroke="black" d="M1296.8,-182.66C1439.93,-149.74 1791.11,-68.98 1939.97,-34.75"/>
<polygon fill="black" stroke="black" points="1940.94,-38.11 1949.9,-32.46 1939.37,-31.29 1940.94,-38.11"/>
<text text-anchor="middle" x="1944.9" y="-36.26" font-family="Times,serif" font-size="14.00">1</text>
</g>
<!-- no1.UnkPrimHelper -->
<g id="node12" class="node">
<title>no1.UnkPrimHelper</title>
<g id="a_node12"><a xlink:href="no1.UnkPrimHelper.svg" xlink:title="no1.UnkPrimHelper">
<ellipse fill="green" stroke="black" cx="2228.44" cy="-18" rx="103.98" ry="18"/>
<text text-anchor="middle" x="2228.44" y="-14.3" font-family="Times,serif" font-size="14.00">no1.UnkPrimHelper</text>
</a>
</g>
</g>
<!-- no1.func_us_801B6198&#45;&gt;no1.UnkPrimHelper -->
<g id="edge11" class="edge">
<title>no1.func_us_801B6198&#45;&gt;no1.UnkPrimHelper</title>
<path fill="none" stroke="black" d="M1307.94,-183.84C1489.97,-151.24 1960.61,-66.96 2148.88,-33.25"/>
<polygon fill="black" stroke="black" points="2149.75,-36.65 2158.98,-31.44 2148.52,-29.76 2149.75,-36.65"/>
<text text-anchor="middle" x="2153.98" y="-35.24" font-family="Times,serif" font-size="14.00">1</text>
</g>
</g>
</svg>
