<?xml version="1.0" encoding="UTF-8" standalone="no"?>
<!DOCTYPE svg PUBLIC "-//W3C//DTD SVG 1.1//EN"
 "http://www.w3.org/Graphics/SVG/1.1/DTD/svg11.dtd">
<!-- Generated by graphviz version 2.43.0 (0)
 -->
<!-- Title: no1.func_us_801CF57C Pages: 1 -->
<svg width="670pt" height="404pt"
 viewBox="0.00 0.00 670.13 404.00" xmlns="http://www.w3.org/2000/svg" xmlns:xlink="http://www.w3.org/1999/xlink">
<g id="graph0" class="graph" transform="scale(1 1) rotate(0) translate(4 400)">
<title>no1.func_us_801CF57C</title>
<polygon fill="white" stroke="transparent" points="-4,4 -4,-400 666.13,-400 666.13,4 -4,4"/>
<!-- no1.func_us_801CF57C -->
<g id="node1" class="node">
<title>no1.func_us_801CF57C</title>
<ellipse fill="green" stroke="black" cx="338.14" cy="-198" rx="119.68" ry="18"/>
<text text-anchor="middle" x="338.14" y="-194.3" font-family="Times,serif" font-size="14.00">no1.func_us_801CF57C</text>
</g>
<!-- no1.PlaySfxPositional -->
<g id="node2" class="node">
<title>no1.PlaySfxPositional</title>
<g id="a_node2"><a xlink:href="no1.PlaySfxPositional.svg" xlink:title="no1.PlaySfxPositional">
<ellipse fill="green" stroke="black" cx="111.14" cy="-18" rx="111.28" ry="18"/>
<text text-anchor="middle" x="111.14" y="-14.3" font-family="Times,serif" font-size="14.00">no1.PlaySfxPositional</text>
</a>
</g>
</g>
<!-- no1.func_us_801CF57C&#45;&gt;no1.PlaySfxPositional -->
<g id="edge1" class="edge">
<title>no1.func_us_801CF57C&#45;&gt;no1.PlaySfxPositional</title>
<path fill="none" stroke="black" d="M316.78,-180.25C276.06,-148.32 187.21,-78.65 140.76,-42.23"/>
<polygon fill="black" stroke="black" points="142.63,-39.25 132.6,-35.83 138.31,-44.76 142.63,-39.25"/>
<text text-anchor="middle" x="127.6" y="-39.63" font-family="Times,serif" font-size="14.00">1</text>
</g>
<!-- no1.UnkPolyFunc2 -->
<g id="node3" class="node">
<title>no1.UnkPolyFunc2</title>
<g id="a_node3"><a xlink:href="no1.UnkPolyFunc2.svg" xlink:title="no1.UnkPolyFunc2">
<ellipse fill="green" stroke="black" cx="338.14" cy="-18" rx="98.28" ry="18"/>
<text text-anchor="middle" x="338.14" y="-14.3" font-family="Times,serif" font-size="14.00">no1.UnkPolyFunc2</text>
</a>
</g>
</g>
<!-- no1.func_us_801CF57C&#45;&gt;no1.UnkPolyFunc2 -->
<g id="edge2" class="edge">
<title>no1.func_us_801CF57C&#45;&gt;no1.UnkPolyFunc2</title>
<path fill="none" stroke="black" d="M338.14,-179.93C338.14,-148.97 338.14,-83.3 338.14,-46.13"/>
<polygon fill="black" stroke="black" points="341.64,-46.02 338.14,-36.02 334.64,-46.02 341.64,-46.02"/>
<text text-anchor="middle" x="333.14" y="-39.82" font-family="Times,serif" font-size="14.00">1</text>
</g>
<!-- no1.UnkPrimHelper -->
<g id="node4" class="node">
<title>no1.UnkPrimHelper</title>
<g id="a_node4"><a xlink:href="no1.UnkPrimHelper.svg" xlink:title="no1.UnkPrimHelper">
<ellipse fill="green" stroke="black" cx="558.14" cy="-18" rx="103.98" ry="18"/>
<text text-anchor="middle" x="558.14" y="-14.3" font-family="Times,serif" font-size="14.00">no1.UnkPrimHelper</text>
</a>
</g>
</g>
<!-- no1.func_us_801CF57C&#45;&gt;no1.UnkPrimHelper -->
<g id="edge3" class="edge">
<title>no1.func_us_801CF57C&#45;&gt;no1.UnkPrimHelper</title>
<path fill="none" stroke="black" d="M358.84,-180.25C398.31,-148.32 484.42,-78.65 529.43,-42.23"/>
<polygon fill="black" stroke="black" points="531.77,-44.84 537.34,-35.83 527.36,-39.4 531.77,-44.84"/>
<text text-anchor="middle" x="532.34" y="-39.63" font-family="Times,serif" font-size="14.00">2</text>
</g>
<!-- no1.EntitySwordLord -->
<g id="node5" class="node">
<title>no1.EntitySwordLord</title>
<g id="a_node5"><a xlink:href="no1.EntitySwordLord.svg" xlink:title="no1.EntitySwordLord">
<ellipse fill="green" stroke="black" cx="338.14" cy="-378" rx="110.48" ry="18"/>
<text text-anchor="middle" x="338.14" y="-374.3" font-family="Times,serif" font-size="14.00">no1.EntitySwordLord</text>
</a>
</g>
</g>
<!-- no1.EntitySwordLord&#45;&gt;no1.func_us_801CF57C -->
<g id="edge4" class="edge">
<title>no1.EntitySwordLord&#45;&gt;no1.func_us_801CF57C</title>
<path fill="none" stroke="black" d="M338.14,-359.93C338.14,-328.97 338.14,-263.3 338.14,-226.13"/>
<polygon fill="black" stroke="black" points="341.64,-226.02 338.14,-216.02 334.64,-226.02 341.64,-226.02"/>
<text text-anchor="middle" x="333.14" y="-348.73" font-family="Times,serif" font-size="14.00">1</text>
</g>
</g>
</svg>
