<?xml version="1.0" encoding="UTF-8" standalone="no"?>
<!DOCTYPE svg PUBLIC "-//W3C//DTD SVG 1.1//EN"
 "http://www.w3.org/Graphics/SVG/1.1/DTD/svg11.dtd">
<!-- Generated by graphviz version 2.43.0 (0)
 -->
<!-- Title: no1.func_us_801B9028 Pages: 1 -->
<svg width="326pt" height="224pt"
 viewBox="0.00 0.00 326.14 224.00" xmlns="http://www.w3.org/2000/svg" xmlns:xlink="http://www.w3.org/1999/xlink">
<g id="graph0" class="graph" transform="scale(1 1) rotate(0) translate(4 220)">
<title>no1.func_us_801B9028</title>
<polygon fill="white" stroke="transparent" points="-4,4 -4,-220 322.14,-220 322.14,4 -4,4"/>
<!-- no1.func_us_801B9028 -->
<g id="node1" class="node">
<title>no1.func_us_801B9028</title>
<ellipse fill="green" stroke="black" cx="134.05" cy="-198" rx="118.08" ry="18"/>
<text text-anchor="middle" x="134.05" y="-194.3" font-family="Times,serif" font-size="14.00">no1.func_us_801B9028</text>
</g>
<!-- FntPrint -->
<g id="node2" class="node">
<title>FntPrint</title>
<g id="a_node2"><a xlink:href="FntPrint.svg" xlink:title="FntPrint">
<ellipse fill="lightblue" stroke="black" cx="50.05" cy="-18" rx="50.09" ry="18"/>
<text text-anchor="middle" x="50.05" y="-14.3" font-family="Times,serif" font-size="14.00">FntPrint</text>
</a>
</g>
</g>
<!-- no1.func_us_801B9028&#45;&gt;FntPrint -->
<g id="edge1" class="edge">
<title>no1.func_us_801B9028&#45;&gt;FntPrint</title>
<path fill="none" stroke="black" d="M125.99,-179.93C111.25,-148.7 79.86,-82.17 62.4,-45.18"/>
<polygon fill="black" stroke="black" points="65.51,-43.57 58.08,-36.02 59.18,-46.55 65.51,-43.57"/>
<text text-anchor="middle" x="53.08" y="-39.82" font-family="Times,serif" font-size="14.00">1</text>
</g>
<!-- no1.InitializeEntity -->
<g id="node3" class="node">
<title>no1.InitializeEntity</title>
<g id="a_node3"><a xlink:href="no1.InitializeEntity.svg" xlink:title="no1.InitializeEntity">
<ellipse fill="green" stroke="black" cx="218.05" cy="-18" rx="100.18" ry="18"/>
<text text-anchor="middle" x="218.05" y="-14.3" font-family="Times,serif" font-size="14.00">no1.InitializeEntity</text>
</a>
</g>
</g>
<!-- no1.func_us_801B9028&#45;&gt;no1.InitializeEntity -->
<g id="edge2" class="edge">
<title>no1.func_us_801B9028&#45;&gt;no1.InitializeEntity</title>
<path fill="none" stroke="black" d="M142.1,-179.93C156.84,-148.7 188.24,-82.17 205.69,-45.18"/>
<polygon fill="black" stroke="black" points="208.91,-46.55 210.02,-36.02 202.58,-43.57 208.91,-46.55"/>
<text text-anchor="middle" x="205.02" y="-39.82" font-family="Times,serif" font-size="14.00">1</text>
</g>
</g>
</svg>
