<?xml version="1.0" encoding="UTF-8" standalone="no"?>
<!DOCTYPE svg PUBLIC "-//W3C//DTD SVG 1.1//EN"
 "http://www.w3.org/Graphics/SVG/1.1/DTD/svg11.dtd">
<!-- Generated by graphviz version 2.43.0 (0)
 -->
<!-- Title: no1.func_us_801CAD20 Pages: 1 -->
<svg width="584pt" height="404pt"
 viewBox="0.00 0.00 584.48 404.00" xmlns="http://www.w3.org/2000/svg" xmlns:xlink="http://www.w3.org/1999/xlink">
<g id="graph0" class="graph" transform="scale(1 1) rotate(0) translate(4 400)">
<title>no1.func_us_801CAD20</title>
<polygon fill="white" stroke="transparent" points="-4,4 -4,-400 580.48,-400 580.48,4 -4,4"/>
<!-- no1.func_us_801CAD20 -->
<g id="node1" class="node">
<title>no1.func_us_801CAD20</title>
<ellipse fill="green" stroke="black" cx="354.89" cy="-198" rx="120.48" ry="18"/>
<text text-anchor="middle" x="354.89" y="-194.3" font-family="Times,serif" font-size="14.00">no1.func_us_801CAD20</text>
</g>
<!-- no1.GetDistanceToPlayerY -->
<g id="node2" class="node">
<title>no1.GetDistanceToPlayerY</title>
<g id="a_node2"><a xlink:href="no1.GetDistanceToPlayerY.svg" xlink:title="no1.GetDistanceToPlayerY">
<ellipse fill="green" stroke="black" cx="133.89" cy="-18" rx="133.78" ry="18"/>
<text text-anchor="middle" x="133.89" y="-14.3" font-family="Times,serif" font-size="14.00">no1.GetDistanceToPlayerY</text>
</a>
</g>
</g>
<!-- no1.func_us_801CAD20&#45;&gt;no1.GetDistanceToPlayerY -->
<g id="edge1" class="edge">
<title>no1.func_us_801CAD20&#45;&gt;no1.GetDistanceToPlayerY</title>
<path fill="none" stroke="black" d="M334.1,-180.25C294.44,-148.32 207.94,-78.65 162.73,-42.23"/>
<polygon fill="black" stroke="black" points="164.77,-39.38 154.79,-35.83 160.38,-44.83 164.77,-39.38"/>
<text text-anchor="middle" x="149.79" y="-39.63" font-family="Times,serif" font-size="14.00">1</text>
</g>
<!-- no1.Random -->
<g id="node3" class="node">
<title>no1.Random</title>
<g id="a_node3"><a xlink:href="no1.Random.svg" xlink:title="no1.Random">
<ellipse fill="green" stroke="black" cx="354.89" cy="-18" rx="68.79" ry="18"/>
<text text-anchor="middle" x="354.89" y="-14.3" font-family="Times,serif" font-size="14.00">no1.Random</text>
</a>
</g>
</g>
<!-- no1.func_us_801CAD20&#45;&gt;no1.Random -->
<g id="edge2" class="edge">
<title>no1.func_us_801CAD20&#45;&gt;no1.Random</title>
<path fill="none" stroke="black" d="M354.89,-179.93C354.89,-148.97 354.89,-83.3 354.89,-46.13"/>
<polygon fill="black" stroke="black" points="358.39,-46.02 354.89,-36.02 351.39,-46.02 358.39,-46.02"/>
<text text-anchor="middle" x="349.89" y="-39.82" font-family="Times,serif" font-size="14.00">1</text>
</g>
<!-- no1.SetStep -->
<g id="node4" class="node">
<title>no1.SetStep</title>
<g id="a_node4"><a xlink:href="no1.SetStep.svg" xlink:title="no1.SetStep">
<ellipse fill="green" stroke="black" cx="508.89" cy="-18" rx="67.69" ry="18"/>
<text text-anchor="middle" x="508.89" y="-14.3" font-family="Times,serif" font-size="14.00">no1.SetStep</text>
</a>
</g>
</g>
<!-- no1.func_us_801CAD20&#45;&gt;no1.SetStep -->
<g id="edge3" class="edge">
<title>no1.func_us_801CAD20&#45;&gt;no1.SetStep</title>
<path fill="none" stroke="black" d="M369.65,-179.93C397.09,-148.22 456.01,-80.12 487.7,-43.5"/>
<polygon fill="black" stroke="black" points="490.5,-45.61 494.39,-35.76 485.2,-41.03 490.5,-45.61"/>
<text text-anchor="middle" x="489.39" y="-39.56" font-family="Times,serif" font-size="14.00">1</text>
</g>
<!-- no1.EntityAxeKnightBlue -->
<g id="node5" class="node">
<title>no1.EntityAxeKnightBlue</title>
<g id="a_node5"><a xlink:href="no1.EntityAxeKnightBlue.svg" xlink:title="no1.EntityAxeKnightBlue">
<ellipse fill="green" stroke="black" cx="354.89" cy="-378" rx="128.88" ry="18"/>
<text text-anchor="middle" x="354.89" y="-374.3" font-family="Times,serif" font-size="14.00">no1.EntityAxeKnightBlue</text>
</a>
</g>
</g>
<!-- no1.EntityAxeKnightBlue&#45;&gt;no1.func_us_801CAD20 -->
<g id="edge4" class="edge">
<title>no1.EntityAxeKnightBlue&#45;&gt;no1.func_us_801CAD20</title>
<path fill="none" stroke="black" d="M354.89,-359.93C354.89,-328.97 354.89,-263.3 354.89,-226.13"/>
<polygon fill="black" stroke="black" points="358.39,-226.02 354.89,-216.02 351.39,-226.02 358.39,-226.02"/>
<text text-anchor="middle" x="349.89" y="-348.73" font-family="Times,serif" font-size="14.00">1</text>
</g>
</g>
</svg>
