<?xml version="1.0" encoding="UTF-8" standalone="no"?>
<!DOCTYPE svg PUBLIC "-//W3C//DTD SVG 1.1//EN"
 "http://www.w3.org/Graphics/SVG/1.1/DTD/svg11.dtd">
<!-- Generated by graphviz version 2.43.0 (0)
 -->
<!-- Title: no1.EntityMedusaHeadBlue Pages: 1 -->
<svg width="1139pt" height="404pt"
 viewBox="0.00 0.00 1138.64 404.00" xmlns="http://www.w3.org/2000/svg" xmlns:xlink="http://www.w3.org/1999/xlink">
<g id="graph0" class="graph" transform="scale(1 1) rotate(0) translate(4 400)">
<title>no1.EntityMedusaHeadBlue</title>
<polygon fill="white" stroke="transparent" points="-4,4 -4,-400 1134.64,-400 1134.64,4 -4,4"/>
<!-- no1.EntityMedusaHeadBlue -->
<g id="node1" class="node">
<title>no1.EntityMedusaHeadBlue</title>
<ellipse fill="green" stroke="black" cx="705.14" cy="-198" rx="141.88" ry="18"/>
<text text-anchor="middle" x="705.14" y="-194.3" font-family="Times,serif" font-size="14.00">no1.EntityMedusaHeadBlue</text>
</g>
<!-- no1.AnimateEntity -->
<g id="node2" class="node">
<title>no1.AnimateEntity</title>
<g id="a_node2"><a xlink:href="no1.AnimateEntity.svg" xlink:title="no1.AnimateEntity">
<ellipse fill="green" stroke="black" cx="98.14" cy="-18" rx="98.28" ry="18"/>
<text text-anchor="middle" x="98.14" y="-14.3" font-family="Times,serif" font-size="14.00">no1.AnimateEntity</text>
</a>
</g>
</g>
<!-- no1.EntityMedusaHeadBlue&#45;&gt;no1.AnimateEntity -->
<g id="edge1" class="edge">
<title>no1.EntityMedusaHeadBlue&#45;&gt;no1.AnimateEntity</title>
<path fill="none" stroke="black" d="M651.54,-181.28C538.4,-148.1 275.9,-71.13 157.71,-36.47"/>
<polygon fill="black" stroke="black" points="158.67,-33.1 148.09,-33.65 156.7,-39.82 158.67,-33.1"/>
<text text-anchor="middle" x="143.09" y="-37.45" font-family="Times,serif" font-size="14.00">1</text>
</g>
<!-- no1.EntityExplosionSpawn -->
<g id="node3" class="node">
<title>no1.EntityExplosionSpawn</title>
<g id="a_node3"><a xlink:href="no1.EntityExplosionSpawn.svg" xlink:title="no1.EntityExplosionSpawn">
<ellipse fill="green" stroke="black" cx="350.14" cy="-18" rx="135.68" ry="18"/>
<text text-anchor="middle" x="350.14" y="-14.3" font-family="Times,serif" font-size="14.00">no1.EntityExplosionSpawn</text>
</a>
</g>
</g>
<!-- no1.EntityMedusaHeadBlue&#45;&gt;no1.EntityExplosionSpawn -->
<g id="edge2" class="edge">
<title>no1.EntityMedusaHeadBlue&#45;&gt;no1.EntityExplosionSpawn</title>
<path fill="none" stroke="black" d="M672.06,-180.41C607.24,-147.91 463.61,-75.9 392.18,-40.08"/>
<polygon fill="black" stroke="black" points="393.52,-36.83 383.01,-35.48 390.38,-43.09 393.52,-36.83"/>
<text text-anchor="middle" x="378.01" y="-39.28" font-family="Times,serif" font-size="14.00">1</text>
</g>
<!-- no1.InitializeEntity -->
<g id="node4" class="node">
<title>no1.InitializeEntity</title>
<g id="a_node4"><a xlink:href="no1.InitializeEntity.svg" xlink:title="no1.InitializeEntity">
<ellipse fill="green" stroke="black" cx="604.14" cy="-18" rx="100.18" ry="18"/>
<text text-anchor="middle" x="604.14" y="-14.3" font-family="Times,serif" font-size="14.00">no1.InitializeEntity</text>
</a>
</g>
</g>
<!-- no1.EntityMedusaHeadBlue&#45;&gt;no1.InitializeEntity -->
<g id="edge3" class="edge">
<title>no1.EntityMedusaHeadBlue&#45;&gt;no1.InitializeEntity</title>
<path fill="none" stroke="black" d="M695.46,-179.93C677.74,-148.7 639.98,-82.17 619,-45.18"/>
<polygon fill="black" stroke="black" points="621.78,-42.99 613.8,-36.02 615.69,-46.44 621.78,-42.99"/>
<text text-anchor="middle" x="608.8" y="-39.82" font-family="Times,serif" font-size="14.00">1</text>
</g>
<!-- no1.MoveEntity -->
<g id="node5" class="node">
<title>no1.MoveEntity</title>
<g id="a_node5"><a xlink:href="no1.MoveEntity.svg" xlink:title="no1.MoveEntity">
<ellipse fill="green" stroke="black" cx="807.14" cy="-18" rx="85.29" ry="18"/>
<text text-anchor="middle" x="807.14" y="-14.3" font-family="Times,serif" font-size="14.00">no1.MoveEntity</text>
</a>
</g>
</g>
<!-- no1.EntityMedusaHeadBlue&#45;&gt;no1.MoveEntity -->
<g id="edge4" class="edge">
<title>no1.EntityMedusaHeadBlue&#45;&gt;no1.MoveEntity</title>
<path fill="none" stroke="black" d="M714.92,-179.93C732.89,-148.57 771.27,-81.6 792.41,-44.71"/>
<polygon fill="black" stroke="black" points="795.46,-46.43 797.39,-36.02 789.38,-42.95 795.46,-46.43"/>
<text text-anchor="middle" x="792.39" y="-39.82" font-family="Times,serif" font-size="14.00">1</text>
</g>
<!-- no1.Random -->
<g id="node6" class="node">
<title>no1.Random</title>
<g id="a_node6"><a xlink:href="no1.Random.svg" xlink:title="no1.Random">
<ellipse fill="green" stroke="black" cx="979.14" cy="-18" rx="68.79" ry="18"/>
<text text-anchor="middle" x="979.14" y="-14.3" font-family="Times,serif" font-size="14.00">no1.Random</text>
</a>
</g>
</g>
<!-- no1.EntityMedusaHeadBlue&#45;&gt;no1.Random -->
<g id="edge5" class="edge">
<title>no1.EntityMedusaHeadBlue&#45;&gt;no1.Random</title>
<path fill="none" stroke="black" d="M730.92,-180.25C780.77,-147.87 890.32,-76.7 945.7,-40.73"/>
<polygon fill="black" stroke="black" points="947.94,-43.44 954.42,-35.06 944.13,-37.57 947.94,-43.44"/>
<text text-anchor="middle" x="949.42" y="-38.86" font-family="Times,serif" font-size="14.00">1</text>
</g>
<!-- rand -->
<g id="node7" class="node">
<title>rand</title>
<g id="a_node7"><a xlink:href="rand.svg" xlink:title="rand">
<ellipse fill="lightblue" stroke="black" cx="1098.14" cy="-18" rx="32.49" ry="18"/>
<text text-anchor="middle" x="1098.14" y="-14.3" font-family="Times,serif" font-size="14.00">rand</text>
</a>
</g>
</g>
<!-- no1.EntityMedusaHeadBlue&#45;&gt;rand -->
<g id="edge6" class="edge">
<title>no1.EntityMedusaHeadBlue&#45;&gt;rand</title>
<path fill="none" stroke="black" d="M741.41,-180.57C817.06,-146.31 990.76,-67.64 1064.28,-34.34"/>
<polygon fill="black" stroke="black" points="1065.89,-37.45 1073.56,-30.13 1063,-31.07 1065.89,-37.45"/>
<text text-anchor="middle" x="1068.56" y="-33.93" font-family="Times,serif" font-size="14.00">1</text>
</g>
<!-- no1.EntityMedusaHeadYellow -->
<g id="node8" class="node">
<title>no1.EntityMedusaHeadYellow</title>
<g id="a_node8"><a xlink:href="no1.EntityMedusaHeadYellow.svg" xlink:title="no1.EntityMedusaHeadYellow">
<ellipse fill="green" stroke="black" cx="705.14" cy="-378" rx="150.27" ry="18"/>
<text text-anchor="middle" x="705.14" y="-374.3" font-family="Times,serif" font-size="14.00">no1.EntityMedusaHeadYellow</text>
</a>
</g>
</g>
<!-- no1.EntityMedusaHeadYellow&#45;&gt;no1.EntityMedusaHeadBlue -->
<g id="edge7" class="edge">
<title>no1.EntityMedusaHeadYellow&#45;&gt;no1.EntityMedusaHeadBlue</title>
<path fill="none" stroke="black" d="M705.14,-359.93C705.14,-328.97 705.14,-263.3 705.14,-226.13"/>
<polygon fill="black" stroke="black" points="708.64,-226.02 705.14,-216.02 701.64,-226.02 708.64,-226.02"/>
<text text-anchor="middle" x="700.14" y="-348.73" font-family="Times,serif" font-size="14.00">1</text>
</g>
</g>
</svg>
