<?xml version="1.0" encoding="UTF-8" standalone="no"?>
<!DOCTYPE svg PUBLIC "-//W3C//DTD SVG 1.1//EN"
 "http://www.w3.org/Graphics/SVG/1.1/DTD/svg11.dtd">
<!-- Generated by graphviz version 2.43.0 (0)
 -->
<!-- Title: no2.EntityBloodSplatter Pages: 1 -->
<svg width="1794pt" height="224pt"
 viewBox="0.00 0.00 1793.88 224.00" xmlns="http://www.w3.org/2000/svg" xmlns:xlink="http://www.w3.org/1999/xlink">
<g id="graph0" class="graph" transform="scale(1 1) rotate(0) translate(4 220)">
<title>no2.EntityBloodSplatter</title>
<polygon fill="white" stroke="transparent" points="-4,4 -4,-220 1789.88,-220 1789.88,4 -4,4"/>
<!-- no2.EntityBloodSplatter -->
<g id="node1" class="node">
<title>no2.EntityBloodSplatter</title>
<ellipse fill="green" stroke="black" cx="897.44" cy="-198" rx="124.28" ry="18"/>
<text text-anchor="middle" x="897.44" y="-194.3" font-family="Times,serif" font-size="14.00">no2.EntityBloodSplatter</text>
</g>
<!-- dra.AllocPrimitives -->
<g id="node2" class="node">
<title>dra.AllocPrimitives</title>
<g id="a_node2"><a xlink:href="dra.AllocPrimitives.svg" xlink:title="dra.AllocPrimitives">
<ellipse fill="green" stroke="black" cx="99.44" cy="-18" rx="99.38" ry="18"/>
<text text-anchor="middle" x="99.44" y="-14.3" font-family="Times,serif" font-size="14.00">dra.AllocPrimitives</text>
</a>
</g>
</g>
<!-- no2.EntityBloodSplatter&#45;&gt;dra.AllocPrimitives -->
<g id="edge1" class="edge">
<title>no2.EntityBloodSplatter&#45;&gt;dra.AllocPrimitives</title>
<path fill="none" stroke="black" d="M832.81,-182.58C684.77,-149.56 322.1,-68.67 169.22,-34.56"/>
<polygon fill="black" stroke="black" points="169.98,-31.15 159.46,-32.39 168.45,-37.98 169.98,-31.15"/>
<text text-anchor="middle" x="154.46" y="-36.19" font-family="Times,serif" font-size="14.00">1</text>
</g>
<!-- no2.DestroyEntity -->
<g id="node3" class="node">
<title>no2.DestroyEntity</title>
<g id="a_node3"><a xlink:href="no2.DestroyEntity.svg" xlink:title="no2.DestroyEntity">
<ellipse fill="green" stroke="black" cx="313.44" cy="-18" rx="96.38" ry="18"/>
<text text-anchor="middle" x="313.44" y="-14.3" font-family="Times,serif" font-size="14.00">no2.DestroyEntity</text>
</a>
</g>
</g>
<!-- no2.EntityBloodSplatter&#45;&gt;no2.DestroyEntity -->
<g id="edge2" class="edge">
<title>no2.EntityBloodSplatter&#45;&gt;no2.DestroyEntity</title>
<path fill="none" stroke="black" d="M846.64,-181.52C738.37,-148.52 485.52,-71.45 371.29,-36.63"/>
<polygon fill="black" stroke="black" points="372.24,-33.26 361.66,-33.7 370.2,-39.96 372.24,-33.26"/>
<text text-anchor="middle" x="356.66" y="-37.5" font-family="Times,serif" font-size="14.00">1</text>
</g>
<!-- no2.FindFirstUnkPrim2 -->
<g id="node4" class="node">
<title>no2.FindFirstUnkPrim2</title>
<g id="a_node4"><a xlink:href="no2.FindFirstUnkPrim2.svg" xlink:title="no2.FindFirstUnkPrim2">
<ellipse fill="green" stroke="black" cx="549.44" cy="-18" rx="121.58" ry="18"/>
<text text-anchor="middle" x="549.44" y="-14.3" font-family="Times,serif" font-size="14.00">no2.FindFirstUnkPrim2</text>
</a>
</g>
</g>
<!-- no2.EntityBloodSplatter&#45;&gt;no2.FindFirstUnkPrim2 -->
<g id="edge3" class="edge">
<title>no2.EntityBloodSplatter&#45;&gt;no2.FindFirstUnkPrim2</title>
<path fill="none" stroke="black" d="M865.33,-180.57C801.88,-148.12 660.56,-75.83 590.47,-39.99"/>
<polygon fill="black" stroke="black" points="591.98,-36.82 581.48,-35.39 588.79,-43.06 591.98,-36.82"/>
<text text-anchor="middle" x="576.48" y="-39.19" font-family="Times,serif" font-size="14.00">2</text>
</g>
<!-- no2.InitializeEntity -->
<g id="node5" class="node">
<title>no2.InitializeEntity</title>
<g id="a_node5"><a xlink:href="no2.InitializeEntity.svg" xlink:title="no2.InitializeEntity">
<ellipse fill="green" stroke="black" cx="789.44" cy="-18" rx="100.18" ry="18"/>
<text text-anchor="middle" x="789.44" y="-14.3" font-family="Times,serif" font-size="14.00">no2.InitializeEntity</text>
</a>
</g>
</g>
<!-- no2.EntityBloodSplatter&#45;&gt;no2.InitializeEntity -->
<g id="edge4" class="edge">
<title>no2.EntityBloodSplatter&#45;&gt;no2.InitializeEntity</title>
<path fill="none" stroke="black" d="M887.09,-179.93C868.06,-148.57 827.42,-81.6 805.04,-44.71"/>
<polygon fill="black" stroke="black" points="807.94,-42.75 799.77,-36.02 801.96,-46.38 807.94,-42.75"/>
<text text-anchor="middle" x="794.77" y="-39.82" font-family="Times,serif" font-size="14.00">1</text>
</g>
<!-- no2.UnkPolyFunc0 -->
<g id="node6" class="node">
<title>no2.UnkPolyFunc0</title>
<g id="a_node6"><a xlink:href="no2.UnkPolyFunc0.svg" xlink:title="no2.UnkPolyFunc0">
<ellipse fill="green" stroke="black" cx="1005.44" cy="-18" rx="98.28" ry="18"/>
<text text-anchor="middle" x="1005.44" y="-14.3" font-family="Times,serif" font-size="14.00">no2.UnkPolyFunc0</text>
</a>
</g>
</g>
<!-- no2.EntityBloodSplatter&#45;&gt;no2.UnkPolyFunc0 -->
<g id="edge5" class="edge">
<title>no2.EntityBloodSplatter&#45;&gt;no2.UnkPolyFunc0</title>
<path fill="none" stroke="black" d="M907.8,-179.93C926.83,-148.57 967.46,-81.6 989.84,-44.71"/>
<polygon fill="black" stroke="black" points="992.92,-46.38 995.12,-36.02 986.94,-42.75 992.92,-46.38"/>
<text text-anchor="middle" x="990.12" y="-39.82" font-family="Times,serif" font-size="14.00">2</text>
</g>
<!-- no2.UnkPolyFunc2 -->
<g id="node7" class="node">
<title>no2.UnkPolyFunc2</title>
<g id="a_node7"><a xlink:href="no2.UnkPolyFunc2.svg" xlink:title="no2.UnkPolyFunc2">
<ellipse fill="green" stroke="black" cx="1219.44" cy="-18" rx="98.28" ry="18"/>
<text text-anchor="middle" x="1219.44" y="-14.3" font-family="Times,serif" font-size="14.00">no2.UnkPolyFunc2</text>
</a>
</g>
</g>
<!-- no2.EntityBloodSplatter&#45;&gt;no2.UnkPolyFunc2 -->
<g id="edge6" class="edge">
<title>no2.EntityBloodSplatter&#45;&gt;no2.UnkPolyFunc2</title>
<path fill="none" stroke="black" d="M927.45,-180.41C986.08,-148 1115.78,-76.3 1180.76,-40.38"/>
<polygon fill="black" stroke="black" points="1182.8,-43.25 1189.86,-35.35 1179.42,-37.13 1182.8,-43.25"/>
<text text-anchor="middle" x="1184.86" y="-39.15" font-family="Times,serif" font-size="14.00">2</text>
</g>
<!-- no2.UnkPrimHelper -->
<g id="node8" class="node">
<title>no2.UnkPrimHelper</title>
<g id="a_node8"><a xlink:href="no2.UnkPrimHelper.svg" xlink:title="no2.UnkPrimHelper">
<ellipse fill="green" stroke="black" cx="1439.44" cy="-18" rx="103.98" ry="18"/>
<text text-anchor="middle" x="1439.44" y="-14.3" font-family="Times,serif" font-size="14.00">no2.UnkPrimHelper</text>
</a>
</g>
</g>
<!-- no2.EntityBloodSplatter&#45;&gt;no2.UnkPrimHelper -->
<g id="edge7" class="edge">
<title>no2.EntityBloodSplatter&#45;&gt;no2.UnkPrimHelper</title>
<path fill="none" stroke="black" d="M945.07,-181.36C1045.14,-148.49 1276.81,-72.41 1383.64,-37.33"/>
<polygon fill="black" stroke="black" points="1384.86,-40.61 1393.27,-34.16 1382.68,-33.96 1384.86,-40.61"/>
<text text-anchor="middle" x="1388.27" y="-37.96" font-family="Times,serif" font-size="14.00">2</text>
</g>
<!-- no2.UpdateAnimation -->
<g id="node9" class="node">
<title>no2.UpdateAnimation</title>
<g id="a_node9"><a xlink:href="no2.UpdateAnimation.svg" xlink:title="no2.UpdateAnimation">
<ellipse fill="green" stroke="black" cx="1673.44" cy="-18" rx="112.38" ry="18"/>
<text text-anchor="middle" x="1673.44" y="-14.3" font-family="Times,serif" font-size="14.00">no2.UpdateAnimation</text>
</a>
</g>
</g>
<!-- no2.EntityBloodSplatter&#45;&gt;no2.UpdateAnimation -->
<g id="edge8" class="edge">
<title>no2.EntityBloodSplatter&#45;&gt;no2.UpdateAnimation</title>
<path fill="none" stroke="black" d="M960.94,-182.43C1104.16,-149.58 1451.52,-69.91 1601.98,-35.39"/>
<polygon fill="black" stroke="black" points="1603.07,-38.73 1612.03,-33.09 1601.5,-31.91 1603.07,-38.73"/>
<text text-anchor="middle" x="1607.03" y="-36.89" font-family="Times,serif" font-size="14.00">2</text>
</g>
</g>
</svg>
