<?xml version="1.0" encoding="UTF-8" standalone="no"?>
<!DOCTYPE svg PUBLIC "-//W3C//DTD SVG 1.1//EN"
 "http://www.w3.org/Graphics/SVG/1.1/DTD/svg11.dtd">
<!-- Generated by graphviz version 2.43.0 (0)
 -->
<!-- Title: no2.func_801CDD00 Pages: 1 -->
<svg width="452pt" height="224pt"
 viewBox="0.00 0.00 451.53 224.00" xmlns="http://www.w3.org/2000/svg" xmlns:xlink="http://www.w3.org/1999/xlink">
<g id="graph0" class="graph" transform="scale(1 1) rotate(0) translate(4 220)">
<title>no2.func_801CDD00</title>
<polygon fill="white" stroke="transparent" points="-4,4 -4,-220 447.53,-220 447.53,4 -4,4"/>
<!-- no2.func_801CDD00 -->
<g id="node1" class="node">
<title>no2.func_801CDD00</title>
<ellipse fill="green" stroke="black" cx="220.94" cy="-18" rx="105.88" ry="18"/>
<text text-anchor="middle" x="220.94" y="-14.3" font-family="Times,serif" font-size="14.00">no2.func_801CDD00</text>
</g>
<!-- no2.func_801CDD80 -->
<g id="node2" class="node">
<title>no2.func_801CDD80</title>
<g id="a_node2"><a xlink:href="no2.func_801CDD80.svg" xlink:title="no2.func_801CDD80">
<ellipse fill="green" stroke="black" cx="105.94" cy="-198" rx="105.88" ry="18"/>
<text text-anchor="middle" x="105.94" y="-194.3" font-family="Times,serif" font-size="14.00">no2.func_801CDD80</text>
</a>
</g>
</g>
<!-- no2.func_801CDD80&#45;&gt;no2.func_801CDD00 -->
<g id="edge1" class="edge">
<title>no2.func_801CDD80&#45;&gt;no2.func_801CDD00</title>
<path fill="none" stroke="black" d="M116.97,-179.93C137.23,-148.57 180.5,-81.6 204.33,-44.71"/>
<polygon fill="black" stroke="black" points="207.46,-46.31 209.95,-36.02 201.58,-42.52 207.46,-46.31"/>
<text text-anchor="middle" x="111.97" y="-168.73" font-family="Times,serif" font-size="14.00">1</text>
</g>
<!-- no2.func_801CDFD8 -->
<g id="node3" class="node">
<title>no2.func_801CDFD8</title>
<g id="a_node3"><a xlink:href="no2.func_801CDFD8.svg" xlink:title="no2.func_801CDFD8">
<ellipse fill="green" stroke="black" cx="336.94" cy="-198" rx="106.68" ry="18"/>
<text text-anchor="middle" x="336.94" y="-194.3" font-family="Times,serif" font-size="14.00">no2.func_801CDFD8</text>
</a>
</g>
</g>
<!-- no2.func_801CDFD8&#45;&gt;no2.func_801CDD00 -->
<g id="edge2" class="edge">
<title>no2.func_801CDFD8&#45;&gt;no2.func_801CDD00</title>
<path fill="none" stroke="black" d="M325.82,-179.93C305.38,-148.57 261.74,-81.6 237.69,-44.71"/>
<polygon fill="black" stroke="black" points="240.42,-42.48 232.03,-36.02 234.56,-46.3 240.42,-42.48"/>
<text text-anchor="middle" x="320.82" y="-168.73" font-family="Times,serif" font-size="14.00">1</text>
</g>
</g>
</svg>
