<?xml version="1.0" encoding="UTF-8" standalone="no"?>
<!DOCTYPE svg PUBLIC "-//W3C//DTD SVG 1.1//EN"
 "http://www.w3.org/Graphics/SVG/1.1/DTD/svg11.dtd">
<!-- Generated by graphviz version 2.43.0 (0)
 -->
<!-- Title: no2.func_us_801B68EC Pages: 1 -->
<svg width="3338pt" height="224pt"
 viewBox="0.00 0.00 3337.73 224.00" xmlns="http://www.w3.org/2000/svg" xmlns:xlink="http://www.w3.org/1999/xlink">
<g id="graph0" class="graph" transform="scale(1 1) rotate(0) translate(4 220)">
<title>no2.func_us_801B68EC</title>
<polygon fill="white" stroke="transparent" points="-4,4 -4,-220 3333.73,-220 3333.73,4 -4,4"/>
<!-- no2.func_us_801B68EC -->
<g id="node1" class="node">
<title>no2.func_us_801B68EC</title>
<ellipse fill="green" stroke="black" cx="1756.44" cy="-198" rx="120.48" ry="18"/>
<text text-anchor="middle" x="1756.44" y="-194.3" font-family="Times,serif" font-size="14.00">no2.func_us_801B68EC</text>
</g>
<!-- dra.AllocPrimitives -->
<g id="node2" class="node">
<title>dra.AllocPrimitives</title>
<g id="a_node2"><a xlink:href="dra.AllocPrimitives.svg" xlink:title="dra.AllocPrimitives">
<ellipse fill="green" stroke="black" cx="99.44" cy="-18" rx="99.38" ry="18"/>
<text text-anchor="middle" x="99.44" y="-14.3" font-family="Times,serif" font-size="14.00">dra.AllocPrimitives</text>
</a>
</g>
</g>
<!-- no2.func_us_801B68EC&#45;&gt;dra.AllocPrimitives -->
<g id="edge1" class="edge">
<title>no2.func_us_801B68EC&#45;&gt;dra.AllocPrimitives</title>
<path fill="none" stroke="black" d="M1654.73,-188.29C1406.8,-166.66 751.68,-107.07 207.44,-36 198.6,-34.84 189.36,-33.54 180.17,-32.18"/>
<polygon fill="black" stroke="black" points="180.65,-28.71 170.24,-30.69 179.61,-35.64 180.65,-28.71"/>
<text text-anchor="middle" x="165.24" y="-34.49" font-family="Times,serif" font-size="14.00">1</text>
</g>
<!-- dra.FreePrimitives -->
<g id="node3" class="node">
<title>dra.FreePrimitives</title>
<g id="a_node3"><a xlink:href="dra.FreePrimitives.svg" xlink:title="dra.FreePrimitives">
<ellipse fill="green" stroke="black" cx="315.44" cy="-18" rx="98.58" ry="18"/>
<text text-anchor="middle" x="315.44" y="-14.3" font-family="Times,serif" font-size="14.00">dra.FreePrimitives</text>
</a>
</g>
</g>
<!-- no2.func_us_801B68EC&#45;&gt;dra.FreePrimitives -->
<g id="edge2" class="edge">
<title>no2.func_us_801B68EC&#45;&gt;dra.FreePrimitives</title>
<path fill="none" stroke="black" d="M1662.15,-186.79C1443.91,-162.9 887.23,-100.49 423.44,-36 414.77,-34.79 405.71,-33.47 396.69,-32.11"/>
<polygon fill="black" stroke="black" points="396.97,-28.61 386.55,-30.57 395.91,-35.53 396.97,-28.61"/>
<text text-anchor="middle" x="381.55" y="-34.37" font-family="Times,serif" font-size="14.00">1</text>
</g>
<!-- dra.PlaySfx -->
<g id="node4" class="node">
<title>dra.PlaySfx</title>
<g id="a_node4"><a xlink:href="dra.PlaySfx.svg" xlink:title="dra.PlaySfx">
<ellipse fill="green" stroke="black" cx="496.44" cy="-18" rx="64.19" ry="18"/>
<text text-anchor="middle" x="496.44" y="-14.3" font-family="Times,serif" font-size="14.00">dra.PlaySfx</text>
</a>
</g>
</g>
<!-- no2.func_us_801B68EC&#45;&gt;dra.PlaySfx -->
<g id="edge3" class="edge">
<title>no2.func_us_801B68EC&#45;&gt;dra.PlaySfx</title>
<path fill="none" stroke="black" d="M1661.05,-187.03C1459,-165.26 973.4,-109.48 570.44,-36 564.79,-34.97 558.92,-33.8 553.07,-32.56"/>
<polygon fill="black" stroke="black" points="553.8,-29.14 543.28,-30.44 552.31,-35.98 553.8,-29.14"/>
<text text-anchor="middle" x="538.28" y="-34.24" font-family="Times,serif" font-size="14.00">1</text>
</g>
<!-- dra.RevealSecretPassageAtPlayerPositionOnMap -->
<g id="node5" class="node">
<title>dra.RevealSecretPassageAtPlayerPositionOnMap</title>
<g id="a_node5"><a xlink:href="dra.RevealSecretPassageAtPlayerPositionOnMap.svg" xlink:title="dra.RevealSecretPassageAtPlayerPositionOnMap">
<ellipse fill="green" stroke="black" cx="818.44" cy="-18" rx="239.36" ry="18"/>
<text text-anchor="middle" x="818.44" y="-14.3" font-family="Times,serif" font-size="14.00">dra.RevealSecretPassageAtPlayerPositionOnMap</text>
</a>
</g>
</g>
<!-- no2.func_us_801B68EC&#45;&gt;dra.RevealSecretPassageAtPlayerPositionOnMap -->
<g id="edge4" class="edge">
<title>no2.func_us_801B68EC&#45;&gt;dra.RevealSecretPassageAtPlayerPositionOnMap</title>
<path fill="none" stroke="black" d="M1685.17,-183.47C1517.79,-151.71 1099.63,-72.36 912.06,-36.77"/>
<polygon fill="black" stroke="black" points="912.7,-33.32 902.22,-34.9 911.39,-40.2 912.7,-33.32"/>
<text text-anchor="middle" x="897.22" y="-38.7" font-family="Times,serif" font-size="14.00">1</text>
</g>
<!-- dra.func_800EDB58 -->
<g id="node6" class="node">
<title>dra.func_800EDB58</title>
<g id="a_node6"><a xlink:href="dra.func_800EDB58.svg" xlink:title="dra.func_800EDB58">
<ellipse fill="green" stroke="black" cx="1179.44" cy="-18" rx="103.98" ry="18"/>
<text text-anchor="middle" x="1179.44" y="-14.3" font-family="Times,serif" font-size="14.00">dra.func_800EDB58</text>
</a>
</g>
</g>
<!-- no2.func_us_801B68EC&#45;&gt;dra.func_800EDB58 -->
<g id="edge5" class="edge">
<title>no2.func_us_801B68EC&#45;&gt;dra.func_800EDB58</title>
<path fill="none" stroke="black" d="M1706.5,-181.59C1599.96,-148.73 1350.89,-71.89 1237.5,-36.91"/>
<polygon fill="black" stroke="black" points="1238.53,-33.57 1227.94,-33.96 1236.47,-40.25 1238.53,-33.57"/>
<text text-anchor="middle" x="1222.94" y="-37.76" font-family="Times,serif" font-size="14.00">1</text>
</g>
<!-- no2.AllocEntity -->
<g id="node7" class="node">
<title>no2.AllocEntity</title>
<g id="a_node7"><a xlink:href="no2.AllocEntity.svg" xlink:title="no2.AllocEntity">
<ellipse fill="green" stroke="black" cx="1383.44" cy="-18" rx="81.79" ry="18"/>
<text text-anchor="middle" x="1383.44" y="-14.3" font-family="Times,serif" font-size="14.00">no2.AllocEntity</text>
</a>
</g>
</g>
<!-- no2.func_us_801B68EC&#45;&gt;no2.AllocEntity -->
<g id="edge6" class="edge">
<title>no2.func_us_801B68EC&#45;&gt;no2.AllocEntity</title>
<path fill="none" stroke="black" d="M1722.35,-180.73C1653.8,-148.02 1499.46,-74.37 1425.08,-38.87"/>
<polygon fill="black" stroke="black" points="1426.52,-35.68 1415.98,-34.53 1423.5,-42 1426.52,-35.68"/>
<text text-anchor="middle" x="1410.98" y="-38.33" font-family="Times,serif" font-size="14.00">2</text>
</g>
<!-- no2.CreateEntityFromEntity -->
<g id="node8" class="node">
<title>no2.CreateEntityFromEntity</title>
<g id="a_node8"><a xlink:href="no2.CreateEntityFromEntity.svg" xlink:title="no2.CreateEntityFromEntity">
<ellipse fill="green" stroke="black" cx="1627.44" cy="-18" rx="144.07" ry="18"/>
<text text-anchor="middle" x="1627.44" y="-14.3" font-family="Times,serif" font-size="14.00">no2.CreateEntityFromEntity</text>
</a>
</g>
</g>
<!-- no2.func_us_801B68EC&#45;&gt;no2.CreateEntityFromEntity -->
<g id="edge7" class="edge">
<title>no2.func_us_801B68EC&#45;&gt;no2.CreateEntityFromEntity</title>
<path fill="none" stroke="black" d="M1744.07,-179.93C1721.24,-148.43 1672.4,-81.03 1645.73,-44.24"/>
<polygon fill="black" stroke="black" points="1648.48,-42.06 1639.77,-36.02 1642.81,-46.17 1648.48,-42.06"/>
<text text-anchor="middle" x="1634.77" y="-39.82" font-family="Times,serif" font-size="14.00">2</text>
</g>
<!-- no2.DestroyEntity -->
<g id="node9" class="node">
<title>no2.DestroyEntity</title>
<g id="a_node9"><a xlink:href="no2.DestroyEntity.svg" xlink:title="no2.DestroyEntity">
<ellipse fill="green" stroke="black" cx="1885.44" cy="-18" rx="96.38" ry="18"/>
<text text-anchor="middle" x="1885.44" y="-14.3" font-family="Times,serif" font-size="14.00">no2.DestroyEntity</text>
</a>
</g>
</g>
<!-- no2.func_us_801B68EC&#45;&gt;no2.DestroyEntity -->
<g id="edge8" class="edge">
<title>no2.func_us_801B68EC&#45;&gt;no2.DestroyEntity</title>
<path fill="none" stroke="black" d="M1768.81,-179.93C1791.64,-148.43 1840.48,-81.03 1867.15,-44.24"/>
<polygon fill="black" stroke="black" points="1870.08,-46.17 1873.11,-36.02 1864.41,-42.06 1870.08,-46.17"/>
<text text-anchor="middle" x="1868.11" y="-39.82" font-family="Times,serif" font-size="14.00">1</text>
</g>
<!-- no2.FindFirstUnkPrim -->
<g id="node10" class="node">
<title>no2.FindFirstUnkPrim</title>
<g id="a_node10"><a xlink:href="no2.FindFirstUnkPrim.svg" xlink:title="no2.FindFirstUnkPrim">
<ellipse fill="green" stroke="black" cx="2115.44" cy="-18" rx="115.88" ry="18"/>
<text text-anchor="middle" x="2115.44" y="-14.3" font-family="Times,serif" font-size="14.00">no2.FindFirstUnkPrim</text>
</a>
</g>
</g>
<!-- no2.func_us_801B68EC&#45;&gt;no2.FindFirstUnkPrim -->
<g id="edge9" class="edge">
<title>no2.func_us_801B68EC&#45;&gt;no2.FindFirstUnkPrim</title>
<path fill="none" stroke="black" d="M1789.57,-180.57C1855.02,-148.12 2000.82,-75.83 2073.11,-39.99"/>
<polygon fill="black" stroke="black" points="2074.99,-42.96 2082.39,-35.39 2071.88,-36.69 2074.99,-42.96"/>
<text text-anchor="middle" x="2077.39" y="-39.19" font-family="Times,serif" font-size="14.00">1</text>
</g>
<!-- no2.InitializeEntity -->
<g id="node11" class="node">
<title>no2.InitializeEntity</title>
<g id="a_node11"><a xlink:href="no2.InitializeEntity.svg" xlink:title="no2.InitializeEntity">
<ellipse fill="green" stroke="black" cx="2349.44" cy="-18" rx="100.18" ry="18"/>
<text text-anchor="middle" x="2349.44" y="-14.3" font-family="Times,serif" font-size="14.00">no2.InitializeEntity</text>
</a>
</g>
</g>
<!-- no2.func_us_801B68EC&#45;&gt;no2.InitializeEntity -->
<g id="edge10" class="edge">
<title>no2.func_us_801B68EC&#45;&gt;no2.InitializeEntity</title>
<path fill="none" stroke="black" d="M1807.51,-181.67C1917.12,-148.77 2174.33,-71.56 2290.57,-36.67"/>
<polygon fill="black" stroke="black" points="2291.8,-39.96 2300.37,-33.73 2289.79,-33.25 2291.8,-39.96"/>
<text text-anchor="middle" x="2295.37" y="-37.53" font-family="Times,serif" font-size="14.00">1</text>
</g>
<!-- no2.Random -->
<g id="node12" class="node">
<title>no2.Random</title>
<g id="a_node12"><a xlink:href="no2.Random.svg" xlink:title="no2.Random">
<ellipse fill="green" stroke="black" cx="2536.44" cy="-18" rx="68.79" ry="18"/>
<text text-anchor="middle" x="2536.44" y="-14.3" font-family="Times,serif" font-size="14.00">no2.Random</text>
</a>
</g>
</g>
<!-- no2.func_us_801B68EC&#45;&gt;no2.Random -->
<g id="edge11" class="edge">
<title>no2.func_us_801B68EC&#45;&gt;no2.Random</title>
<path fill="none" stroke="black" d="M1819.61,-182.58C1966.95,-148.96 2331.77,-65.71 2476.19,-32.75"/>
<polygon fill="black" stroke="black" points="2477.23,-36.1 2486.2,-30.47 2475.67,-29.28 2477.23,-36.1"/>
<text text-anchor="middle" x="2481.2" y="-34.27" font-family="Times,serif" font-size="14.00">2</text>
</g>
<!-- no2.UnkPolyFunc2 -->
<g id="node13" class="node">
<title>no2.UnkPolyFunc2</title>
<g id="a_node13"><a xlink:href="no2.UnkPolyFunc2.svg" xlink:title="no2.UnkPolyFunc2">
<ellipse fill="green" stroke="black" cx="2721.44" cy="-18" rx="98.28" ry="18"/>
<text text-anchor="middle" x="2721.44" y="-14.3" font-family="Times,serif" font-size="14.00">no2.UnkPolyFunc2</text>
</a>
</g>
</g>
<!-- no2.func_us_801B68EC&#45;&gt;no2.UnkPolyFunc2 -->
<g id="edge12" class="edge">
<title>no2.func_us_801B68EC&#45;&gt;no2.UnkPolyFunc2</title>
<path fill="none" stroke="black" d="M1828.97,-183.62C2006.75,-150.83 2462.9,-66.69 2644.84,-33.13"/>
<polygon fill="black" stroke="black" points="2645.67,-36.54 2654.86,-31.28 2644.4,-29.65 2645.67,-36.54"/>
<text text-anchor="middle" x="2649.86" y="-35.08" font-family="Times,serif" font-size="14.00">1</text>
</g>
<!-- no2.func_us_801B59C4 -->
<g id="node14" class="node">
<title>no2.func_us_801B59C4</title>
<g id="a_node14"><a xlink:href="no2.func_us_801B59C4.svg" xlink:title="no2.func_us_801B59C4">
<ellipse fill="green" stroke="black" cx="2956.44" cy="-18" rx="118.88" ry="18"/>
<text text-anchor="middle" x="2956.44" y="-14.3" font-family="Times,serif" font-size="14.00">no2.func_us_801B59C4</text>
</a>
</g>
</g>
<!-- no2.func_us_801B68EC&#45;&gt;no2.func_us_801B59C4 -->
<g id="edge13" class="edge">
<title>no2.func_us_801B68EC&#45;&gt;no2.func_us_801B59C4</title>
<path fill="none" stroke="black" d="M1838.45,-184.84C2054.34,-152.81 2637.33,-66.33 2864.28,-32.67"/>
<polygon fill="black" stroke="black" points="2865.11,-36.09 2874.48,-31.16 2864.08,-29.16 2865.11,-36.09"/>
<text text-anchor="middle" x="2869.48" y="-34.96" font-family="Times,serif" font-size="14.00">1</text>
</g>
<!-- no2.func_us_801B6794 -->
<g id="node15" class="node">
<title>no2.func_us_801B6794</title>
<g id="a_node15"><a xlink:href="no2.func_us_801B6794.svg" xlink:title="no2.func_us_801B6794">
<ellipse fill="green" stroke="black" cx="3211.44" cy="-18" rx="118.08" ry="18"/>
<text text-anchor="middle" x="3211.44" y="-14.3" font-family="Times,serif" font-size="14.00">no2.func_us_801B6794</text>
</a>
</g>
</g>
<!-- no2.func_us_801B68EC&#45;&gt;no2.func_us_801B6794 -->
<g id="edge14" class="edge">
<title>no2.func_us_801B68EC&#45;&gt;no2.func_us_801B6794</title>
<path fill="none" stroke="black" d="M1848.26,-186.27C2064.04,-160.96 2620.23,-95.21 3084.44,-36 3094.73,-34.69 3105.47,-33.29 3116.18,-31.88"/>
<polygon fill="black" stroke="black" points="3116.95,-35.31 3126.41,-30.53 3116.04,-28.37 3116.95,-35.31"/>
<text text-anchor="middle" x="3121.41" y="-34.33" font-family="Times,serif" font-size="14.00">1</text>
</g>
</g>
</svg>
