<?xml version="1.0" encoding="UTF-8" standalone="no"?>
<!DOCTYPE svg PUBLIC "-//W3C//DTD SVG 1.1//EN"
 "http://www.w3.org/Graphics/SVG/1.1/DTD/svg11.dtd">
<!-- Generated by graphviz version 2.43.0 (0)
 -->
<!-- Title: no2.func_us_801B5368 Pages: 1 -->
<svg width="975pt" height="224pt"
 viewBox="0.00 0.00 975.39 224.00" xmlns="http://www.w3.org/2000/svg" xmlns:xlink="http://www.w3.org/1999/xlink">
<g id="graph0" class="graph" transform="scale(1 1) rotate(0) translate(4 220)">
<title>no2.func_us_801B5368</title>
<polygon fill="white" stroke="transparent" points="-4,4 -4,-220 971.39,-220 971.39,4 -4,4"/>
<!-- no2.func_us_801B5368 -->
<g id="node1" class="node">
<title>no2.func_us_801B5368</title>
<ellipse fill="green" stroke="black" cx="523.49" cy="-198" rx="118.08" ry="18"/>
<text text-anchor="middle" x="523.49" y="-194.3" font-family="Times,serif" font-size="14.00">no2.func_us_801B5368</text>
</g>
<!-- dra.CheckCollision -->
<g id="node2" class="node">
<title>dra.CheckCollision</title>
<g id="a_node2"><a xlink:href="dra.CheckCollision.svg" xlink:title="dra.CheckCollision">
<ellipse fill="green" stroke="black" cx="97.49" cy="-18" rx="97.48" ry="18"/>
<text text-anchor="middle" x="97.49" y="-14.3" font-family="Times,serif" font-size="14.00">dra.CheckCollision</text>
</a>
</g>
</g>
<!-- no2.func_us_801B5368&#45;&gt;dra.CheckCollision -->
<g id="edge1" class="edge">
<title>no2.func_us_801B5368&#45;&gt;dra.CheckCollision</title>
<path fill="none" stroke="black" d="M484.94,-180.89C406.64,-148.18 229.28,-74.07 144.43,-38.61"/>
<polygon fill="black" stroke="black" points="145.62,-35.32 135.04,-34.69 142.92,-41.78 145.62,-35.32"/>
<text text-anchor="middle" x="130.04" y="-38.49" font-family="Times,serif" font-size="14.00">1</text>
</g>
<!-- no2.DestroyEntity -->
<g id="node3" class="node">
<title>no2.DestroyEntity</title>
<g id="a_node3"><a xlink:href="no2.DestroyEntity.svg" xlink:title="no2.DestroyEntity">
<ellipse fill="green" stroke="black" cx="309.49" cy="-18" rx="96.38" ry="18"/>
<text text-anchor="middle" x="309.49" y="-14.3" font-family="Times,serif" font-size="14.00">no2.DestroyEntity</text>
</a>
</g>
</g>
<!-- no2.func_us_801B5368&#45;&gt;no2.DestroyEntity -->
<g id="edge2" class="edge">
<title>no2.func_us_801B5368&#45;&gt;no2.DestroyEntity</title>
<path fill="none" stroke="black" d="M503.36,-180.25C464.96,-148.32 381.2,-78.65 337.42,-42.23"/>
<polygon fill="black" stroke="black" points="339.65,-39.53 329.73,-35.83 335.18,-44.92 339.65,-39.53"/>
<text text-anchor="middle" x="324.73" y="-39.63" font-family="Times,serif" font-size="14.00">1</text>
</g>
<!-- no2.InitializeEntity -->
<g id="node4" class="node">
<title>no2.InitializeEntity</title>
<g id="a_node4"><a xlink:href="no2.InitializeEntity.svg" xlink:title="no2.InitializeEntity">
<ellipse fill="green" stroke="black" cx="523.49" cy="-18" rx="100.18" ry="18"/>
<text text-anchor="middle" x="523.49" y="-14.3" font-family="Times,serif" font-size="14.00">no2.InitializeEntity</text>
</a>
</g>
</g>
<!-- no2.func_us_801B5368&#45;&gt;no2.InitializeEntity -->
<g id="edge3" class="edge">
<title>no2.func_us_801B5368&#45;&gt;no2.InitializeEntity</title>
<path fill="none" stroke="black" d="M523.49,-179.93C523.49,-148.97 523.49,-83.3 523.49,-46.13"/>
<polygon fill="black" stroke="black" points="526.99,-46.02 523.49,-36.02 519.99,-46.02 526.99,-46.02"/>
<text text-anchor="middle" x="518.49" y="-39.82" font-family="Times,serif" font-size="14.00">1</text>
</g>
<!-- no2.MoveEntity -->
<g id="node5" class="node">
<title>no2.MoveEntity</title>
<g id="a_node5"><a xlink:href="no2.MoveEntity.svg" xlink:title="no2.MoveEntity">
<ellipse fill="green" stroke="black" cx="726.49" cy="-18" rx="85.29" ry="18"/>
<text text-anchor="middle" x="726.49" y="-14.3" font-family="Times,serif" font-size="14.00">no2.MoveEntity</text>
</a>
</g>
</g>
<!-- no2.func_us_801B5368&#45;&gt;no2.MoveEntity -->
<g id="edge4" class="edge">
<title>no2.func_us_801B5368&#45;&gt;no2.MoveEntity</title>
<path fill="none" stroke="black" d="M542.96,-179.93C579.5,-147.89 658.43,-78.68 699.86,-42.35"/>
<polygon fill="black" stroke="black" points="702.17,-44.98 707.38,-35.76 697.56,-39.72 702.17,-44.98"/>
<text text-anchor="middle" x="702.38" y="-39.56" font-family="Times,serif" font-size="14.00">1</text>
</g>
<!-- no2.Random -->
<g id="node6" class="node">
<title>no2.Random</title>
<g id="a_node6"><a xlink:href="no2.Random.svg" xlink:title="no2.Random">
<ellipse fill="green" stroke="black" cx="898.49" cy="-18" rx="68.79" ry="18"/>
<text text-anchor="middle" x="898.49" y="-14.3" font-family="Times,serif" font-size="14.00">no2.Random</text>
</a>
</g>
</g>
<!-- no2.func_us_801B5368&#45;&gt;no2.Random -->
<g id="edge5" class="edge">
<title>no2.func_us_801B5368&#45;&gt;no2.Random</title>
<path fill="none" stroke="black" d="M557.76,-180.73C627.03,-147.85 783.41,-73.62 857.76,-38.34"/>
<polygon fill="black" stroke="black" points="859.3,-41.48 866.83,-34.03 856.3,-35.15 859.3,-41.48"/>
<text text-anchor="middle" x="861.83" y="-37.83" font-family="Times,serif" font-size="14.00">3</text>
</g>
</g>
</svg>
