<?xml version="1.0" encoding="UTF-8" standalone="no"?>
<!DOCTYPE svg PUBLIC "-//W3C//DTD SVG 1.1//EN"
 "http://www.w3.org/Graphics/SVG/1.1/DTD/svg11.dtd">
<!-- Generated by graphviz version 2.43.0 (0)
 -->
<!-- Title: no2.func_801CF7A0 Pages: 1 -->
<svg width="444pt" height="404pt"
 viewBox="0.00 0.00 443.63 404.00" xmlns="http://www.w3.org/2000/svg" xmlns:xlink="http://www.w3.org/1999/xlink">
<g id="graph0" class="graph" transform="scale(1 1) rotate(0) translate(4 400)">
<title>no2.func_801CF7A0</title>
<polygon fill="white" stroke="transparent" points="-4,4 -4,-400 439.63,-400 439.63,4 -4,4"/>
<!-- no2.func_801CF7A0 -->
<g id="node1" class="node">
<title>no2.func_801CF7A0</title>
<ellipse fill="green" stroke="black" cx="216.99" cy="-198" rx="103.98" ry="18"/>
<text text-anchor="middle" x="216.99" y="-194.3" font-family="Times,serif" font-size="14.00">no2.func_801CF7A0</text>
</g>
<!-- no2.func_801CE120 -->
<g id="node2" class="node">
<title>no2.func_801CE120</title>
<g id="a_node2"><a xlink:href="no2.func_801CE120.svg" xlink:title="no2.func_801CE120">
<ellipse fill="green" stroke="black" cx="103.99" cy="-18" rx="103.98" ry="18"/>
<text text-anchor="middle" x="103.99" y="-14.3" font-family="Times,serif" font-size="14.00">no2.func_801CE120</text>
</a>
</g>
</g>
<!-- no2.func_801CF7A0&#45;&gt;no2.func_801CE120 -->
<g id="edge1" class="edge">
<title>no2.func_801CF7A0&#45;&gt;no2.func_801CE120</title>
<path fill="none" stroke="black" d="M206.16,-179.93C186.24,-148.57 143.73,-81.6 120.31,-44.71"/>
<polygon fill="black" stroke="black" points="123.11,-42.58 114.79,-36.02 117.2,-46.33 123.11,-42.58"/>
<text text-anchor="middle" x="109.79" y="-39.82" font-family="Times,serif" font-size="14.00">1</text>
</g>
<!-- no2.func_801CE1E8 -->
<g id="node3" class="node">
<title>no2.func_801CE1E8</title>
<g id="a_node3"><a xlink:href="no2.func_801CE1E8.svg" xlink:title="no2.func_801CE1E8">
<ellipse fill="green" stroke="black" cx="330.99" cy="-18" rx="104.78" ry="18"/>
<text text-anchor="middle" x="330.99" y="-14.3" font-family="Times,serif" font-size="14.00">no2.func_801CE1E8</text>
</a>
</g>
</g>
<!-- no2.func_801CF7A0&#45;&gt;no2.func_801CE1E8 -->
<g id="edge2" class="edge">
<title>no2.func_801CF7A0&#45;&gt;no2.func_801CE1E8</title>
<path fill="none" stroke="black" d="M227.92,-179.93C248.01,-148.57 290.9,-81.6 314.53,-44.71"/>
<polygon fill="black" stroke="black" points="317.65,-46.32 320.09,-36.02 311.75,-42.55 317.65,-46.32"/>
<text text-anchor="middle" x="315.09" y="-39.82" font-family="Times,serif" font-size="14.00">3</text>
</g>
<!-- no2.EntityGurkha -->
<g id="node4" class="node">
<title>no2.EntityGurkha</title>
<g id="a_node4"><a xlink:href="no2.EntityGurkha.svg" xlink:title="no2.EntityGurkha">
<ellipse fill="green" stroke="black" cx="216.99" cy="-378" rx="93.68" ry="18"/>
<text text-anchor="middle" x="216.99" y="-374.3" font-family="Times,serif" font-size="14.00">no2.EntityGurkha</text>
</a>
</g>
</g>
<!-- no2.EntityGurkha&#45;&gt;no2.func_801CF7A0 -->
<g id="edge3" class="edge">
<title>no2.EntityGurkha&#45;&gt;no2.func_801CF7A0</title>
<path fill="none" stroke="black" d="M216.99,-359.93C216.99,-328.97 216.99,-263.3 216.99,-226.13"/>
<polygon fill="black" stroke="black" points="220.49,-226.02 216.99,-216.02 213.49,-226.02 220.49,-226.02"/>
<text text-anchor="middle" x="211.99" y="-348.73" font-family="Times,serif" font-size="14.00">4</text>
</g>
</g>
</svg>
