<?xml version="1.0" encoding="UTF-8" standalone="no"?>
<!DOCTYPE svg PUBLIC "-//W3C//DTD SVG 1.1//EN"
 "http://www.w3.org/Graphics/SVG/1.1/DTD/svg11.dtd">
<!-- Generated by graphviz version 2.43.0 (0)
 -->
<!-- Title: no2.GetSideToPlayer Pages: 1 -->
<svg width="3060pt" height="224pt"
 viewBox="0.00 0.00 3060.43 224.00" xmlns="http://www.w3.org/2000/svg" xmlns:xlink="http://www.w3.org/1999/xlink">
<g id="graph0" class="graph" transform="scale(1 1) rotate(0) translate(4 220)">
<title>no2.GetSideToPlayer</title>
<polygon fill="white" stroke="transparent" points="-4,4 -4,-220 3056.43,-220 3056.43,4 -4,4"/>
<!-- no2.GetSideToPlayer -->
<g id="node1" class="node">
<title>no2.GetSideToPlayer</title>
<ellipse fill="green" stroke="black" cx="1395.79" cy="-18" rx="108.58" ry="18"/>
<text text-anchor="middle" x="1395.79" y="-14.3" font-family="Times,serif" font-size="14.00">no2.GetSideToPlayer</text>
</g>
<!-- no2.EntityBlade -->
<g id="node2" class="node">
<title>no2.EntityBlade</title>
<g id="a_node2"><a xlink:href="no2.EntityBlade.svg" xlink:title="no2.EntityBlade">
<ellipse fill="green" stroke="black" cx="85.79" cy="-198" rx="85.59" ry="18"/>
<text text-anchor="middle" x="85.79" y="-194.3" font-family="Times,serif" font-size="14.00">no2.EntityBlade</text>
</a>
</g>
</g>
<!-- no2.EntityBlade&#45;&gt;no2.GetSideToPlayer -->
<g id="edge1" class="edge">
<title>no2.EntityBlade&#45;&gt;no2.GetSideToPlayer</title>
<path fill="none" stroke="black" d="M147.81,-185.48C158.79,-183.57 170.11,-181.66 180.79,-180 596.12,-115.36 1093.93,-54.61 1299.63,-30.24"/>
<polygon fill="black" stroke="black" points="1300.27,-33.69 1309.79,-29.04 1299.45,-26.74 1300.27,-33.69"/>
<text text-anchor="middle" x="142.81" y="-174.28" font-family="Times,serif" font-size="14.00">1</text>
</g>
<!-- no2.EntityBloodyZombie -->
<g id="node3" class="node">
<title>no2.EntityBloodyZombie</title>
<g id="a_node3"><a xlink:href="no2.EntityBloodyZombie.svg" xlink:title="no2.EntityBloodyZombie">
<ellipse fill="green" stroke="black" cx="315.79" cy="-198" rx="126.18" ry="18"/>
<text text-anchor="middle" x="315.79" y="-194.3" font-family="Times,serif" font-size="14.00">no2.EntityBloodyZombie</text>
</a>
</g>
</g>
<!-- no2.EntityBloodyZombie&#45;&gt;no2.GetSideToPlayer -->
<g id="edge2" class="edge">
<title>no2.EntityBloodyZombie&#45;&gt;no2.GetSideToPlayer</title>
<path fill="none" stroke="black" d="M395.21,-183.91C593.41,-151.24 1108.5,-66.35 1311.64,-32.87"/>
<polygon fill="black" stroke="black" points="1312.37,-36.3 1321.66,-31.22 1311.23,-29.39 1312.37,-36.3"/>
<text text-anchor="middle" x="390.21" y="-172.71" font-family="Times,serif" font-size="14.00">3</text>
</g>
<!-- no2.EntityBreakable -->
<g id="node4" class="node">
<title>no2.EntityBreakable</title>
<g id="a_node4"><a xlink:href="no2.EntityBreakable.svg" xlink:title="no2.EntityBreakable">
<ellipse fill="green" stroke="black" cx="566.79" cy="-198" rx="106.68" ry="18"/>
<text text-anchor="middle" x="566.79" y="-194.3" font-family="Times,serif" font-size="14.00">no2.EntityBreakable</text>
</a>
</g>
</g>
<!-- no2.EntityBreakable&#45;&gt;no2.GetSideToPlayer -->
<g id="edge3" class="edge">
<title>no2.EntityBreakable&#45;&gt;no2.GetSideToPlayer</title>
<path fill="none" stroke="black" d="M629.78,-183.47C780.6,-151.09 1161.8,-69.24 1322.53,-34.73"/>
<polygon fill="black" stroke="black" points="1323.29,-38.15 1332.33,-32.63 1321.82,-31.3 1323.29,-38.15"/>
<text text-anchor="middle" x="624.78" y="-172.27" font-family="Times,serif" font-size="14.00">1</text>
</g>
<!-- no2.EntityGurkha -->
<g id="node5" class="node">
<title>no2.EntityGurkha</title>
<g id="a_node5"><a xlink:href="no2.EntityGurkha.svg" xlink:title="no2.EntityGurkha">
<ellipse fill="green" stroke="black" cx="784.79" cy="-198" rx="93.68" ry="18"/>
<text text-anchor="middle" x="784.79" y="-194.3" font-family="Times,serif" font-size="14.00">no2.EntityGurkha</text>
</a>
</g>
</g>
<!-- no2.EntityGurkha&#45;&gt;no2.GetSideToPlayer -->
<g id="edge4" class="edge">
<title>no2.EntityGurkha&#45;&gt;no2.GetSideToPlayer</title>
<path fill="none" stroke="black" d="M834.02,-182.66C944.78,-150.39 1213.4,-72.13 1334.63,-36.82"/>
<polygon fill="black" stroke="black" points="1335.88,-40.1 1344.5,-33.94 1333.92,-33.38 1335.88,-40.1"/>
<text text-anchor="middle" x="829.02" y="-171.46" font-family="Times,serif" font-size="14.00">1</text>
</g>
<!-- no2.EntityHammer -->
<g id="node6" class="node">
<title>no2.EntityHammer</title>
<g id="a_node6"><a xlink:href="no2.EntityHammer.svg" xlink:title="no2.EntityHammer">
<ellipse fill="green" stroke="black" cx="996.79" cy="-198" rx="100.18" ry="18"/>
<text text-anchor="middle" x="996.79" y="-194.3" font-family="Times,serif" font-size="14.00">no2.EntityHammer</text>
</a>
</g>
</g>
<!-- no2.EntityHammer&#45;&gt;no2.GetSideToPlayer -->
<g id="edge5" class="edge">
<title>no2.EntityHammer&#45;&gt;no2.GetSideToPlayer</title>
<path fill="none" stroke="black" d="M1032.55,-181.05C1105.25,-148.62 1270.16,-75.05 1350.34,-39.28"/>
<polygon fill="black" stroke="black" points="1351.98,-42.38 1359.68,-35.11 1349.12,-35.99 1351.98,-42.38"/>
<text text-anchor="middle" x="1027.55" y="-169.85" font-family="Times,serif" font-size="14.00">1</text>
</g>
<!-- no2.EntityOwl -->
<g id="node7" class="node">
<title>no2.EntityOwl</title>
<g id="a_node7"><a xlink:href="no2.EntityOwl.svg" xlink:title="no2.EntityOwl">
<ellipse fill="green" stroke="black" cx="1191.79" cy="-198" rx="77.19" ry="18"/>
<text text-anchor="middle" x="1191.79" y="-194.3" font-family="Times,serif" font-size="14.00">no2.EntityOwl</text>
</a>
</g>
</g>
<!-- no2.EntityOwl&#45;&gt;no2.GetSideToPlayer -->
<g id="edge6" class="edge">
<title>no2.EntityOwl&#45;&gt;no2.GetSideToPlayer</title>
<path fill="none" stroke="black" d="M1210.98,-180.25C1247.51,-148.38 1327.1,-78.94 1368.91,-42.45"/>
<polygon fill="black" stroke="black" points="1371.27,-45.04 1376.5,-35.83 1366.67,-39.77 1371.27,-45.04"/>
<text text-anchor="middle" x="1205.98" y="-169.05" font-family="Times,serif" font-size="14.00">4</text>
</g>
<!-- no2.EntityOwlKnight -->
<g id="node8" class="node">
<title>no2.EntityOwlKnight</title>
<g id="a_node8"><a xlink:href="no2.EntityOwlKnight.svg" xlink:title="no2.EntityOwlKnight">
<ellipse fill="green" stroke="black" cx="1395.79" cy="-198" rx="108.58" ry="18"/>
<text text-anchor="middle" x="1395.79" y="-194.3" font-family="Times,serif" font-size="14.00">no2.EntityOwlKnight</text>
</a>
</g>
</g>
<!-- no2.EntityOwlKnight&#45;&gt;no2.GetSideToPlayer -->
<g id="edge7" class="edge">
<title>no2.EntityOwlKnight&#45;&gt;no2.GetSideToPlayer</title>
<path fill="none" stroke="black" d="M1395.79,-179.93C1395.79,-148.97 1395.79,-83.3 1395.79,-46.13"/>
<polygon fill="black" stroke="black" points="1399.29,-46.02 1395.79,-36.02 1392.29,-46.02 1399.29,-46.02"/>
<text text-anchor="middle" x="1386.29" y="-168.73" font-family="Times,serif" font-size="14.00">16</text>
</g>
<!-- no2.EntitySealedDoor -->
<g id="node9" class="node">
<title>no2.EntitySealedDoor</title>
<g id="a_node9"><a xlink:href="no2.EntitySealedDoor.svg" xlink:title="no2.EntitySealedDoor">
<ellipse fill="green" stroke="black" cx="1635.79" cy="-198" rx="113.18" ry="18"/>
<text text-anchor="middle" x="1635.79" y="-194.3" font-family="Times,serif" font-size="14.00">no2.EntitySealedDoor</text>
</a>
</g>
</g>
<!-- no2.EntitySealedDoor&#45;&gt;no2.GetSideToPlayer -->
<g id="edge8" class="edge">
<title>no2.EntitySealedDoor&#45;&gt;no2.GetSideToPlayer</title>
<path fill="none" stroke="black" d="M1613.21,-180.25C1570.06,-148.25 1475.82,-78.36 1426.81,-42"/>
<polygon fill="black" stroke="black" points="1428.6,-38.98 1418.49,-35.83 1424.43,-44.6 1428.6,-38.98"/>
<text text-anchor="middle" x="1608.21" y="-169.05" font-family="Times,serif" font-size="14.00">1</text>
</g>
<!-- no2.EntitySkelerang -->
<g id="node10" class="node">
<title>no2.EntitySkelerang</title>
<g id="a_node10"><a xlink:href="no2.EntitySkelerang.svg" xlink:title="no2.EntitySkelerang">
<ellipse fill="green" stroke="black" cx="1873.79" cy="-198" rx="106.68" ry="18"/>
<text text-anchor="middle" x="1873.79" y="-194.3" font-family="Times,serif" font-size="14.00">no2.EntitySkelerang</text>
</a>
</g>
</g>
<!-- no2.EntitySkelerang&#45;&gt;no2.GetSideToPlayer -->
<g id="edge9" class="edge">
<title>no2.EntitySkelerang&#45;&gt;no2.GetSideToPlayer</title>
<path fill="none" stroke="black" d="M1831.79,-181.36C1744.24,-148.76 1542.49,-73.63 1447.29,-38.18"/>
<polygon fill="black" stroke="black" points="1448.46,-34.88 1437.87,-34.67 1446.02,-41.44 1448.46,-34.88"/>
<text text-anchor="middle" x="1826.79" y="-170.16" font-family="Times,serif" font-size="14.00">3</text>
</g>
<!-- no2.EntityValhallaKnight -->
<g id="node11" class="node">
<title>no2.EntityValhallaKnight</title>
<g id="a_node11"><a xlink:href="no2.EntityValhallaKnight.svg" xlink:title="no2.EntityValhallaKnight">
<ellipse fill="green" stroke="black" cx="2125.79" cy="-198" rx="127.28" ry="18"/>
<text text-anchor="middle" x="2125.79" y="-194.3" font-family="Times,serif" font-size="14.00">no2.EntityValhallaKnight</text>
</a>
</g>
</g>
<!-- no2.EntityValhallaKnight&#45;&gt;no2.GetSideToPlayer -->
<g id="edge10" class="edge">
<title>no2.EntityValhallaKnight&#45;&gt;no2.GetSideToPlayer</title>
<path fill="none" stroke="black" d="M2064.81,-182.13C1929.61,-149.16 1605.53,-70.14 1463.93,-35.61"/>
<polygon fill="black" stroke="black" points="1464.6,-32.18 1454.06,-33.21 1462.94,-38.98 1464.6,-32.18"/>
<text text-anchor="middle" x="2059.81" y="-170.93" font-family="Times,serif" font-size="14.00">1</text>
</g>
<!-- no2.NO2_EntityLockCamera -->
<g id="node12" class="node">
<title>no2.NO2_EntityLockCamera</title>
<g id="a_node12"><a xlink:href="no2.NO2_EntityLockCamera.svg" xlink:title="no2.NO2_EntityLockCamera">
<ellipse fill="green" stroke="black" cx="2413.79" cy="-198" rx="142.17" ry="18"/>
<text text-anchor="middle" x="2413.79" y="-194.3" font-family="Times,serif" font-size="14.00">no2.NO2_EntityLockCamera</text>
</a>
</g>
</g>
<!-- no2.NO2_EntityLockCamera&#45;&gt;no2.GetSideToPlayer -->
<g id="edge11" class="edge">
<title>no2.NO2_EntityLockCamera&#45;&gt;no2.GetSideToPlayer</title>
<path fill="none" stroke="black" d="M2333.91,-183.03C2144.42,-149.9 1669.31,-66.82 1477.75,-33.33"/>
<polygon fill="black" stroke="black" points="1478.2,-29.86 1467.74,-31.58 1476.99,-36.75 1478.2,-29.86"/>
<text text-anchor="middle" x="2328.91" y="-171.83" font-family="Times,serif" font-size="14.00">1</text>
</g>
<!-- no2.NO2_EntityRedDoor -->
<g id="node13" class="node">
<title>no2.NO2_EntityRedDoor</title>
<g id="a_node13"><a xlink:href="no2.NO2_EntityRedDoor.svg" xlink:title="no2.NO2_EntityRedDoor">
<ellipse fill="green" stroke="black" cx="2699.79" cy="-198" rx="125.38" ry="18"/>
<text text-anchor="middle" x="2699.79" y="-194.3" font-family="Times,serif" font-size="14.00">no2.NO2_EntityRedDoor</text>
</a>
</g>
</g>
<!-- no2.NO2_EntityRedDoor&#45;&gt;no2.GetSideToPlayer -->
<g id="edge12" class="edge">
<title>no2.NO2_EntityRedDoor&#45;&gt;no2.GetSideToPlayer</title>
<path fill="none" stroke="black" d="M2612.21,-185.04C2375.91,-152.79 1726.99,-64.21 1486.78,-31.42"/>
<polygon fill="black" stroke="black" points="1487.07,-27.93 1476.69,-30.04 1486.12,-34.86 1487.07,-27.93"/>
<text text-anchor="middle" x="2607.21" y="-173.84" font-family="Times,serif" font-size="14.00">1</text>
</g>
<!-- no2.func_801D0B78 -->
<g id="node14" class="node">
<title>no2.func_801D0B78</title>
<g id="a_node14"><a xlink:href="no2.func_801D0B78.svg" xlink:title="no2.func_801D0B78">
<ellipse fill="green" stroke="black" cx="2947.79" cy="-198" rx="104.78" ry="18"/>
<text text-anchor="middle" x="2947.79" y="-194.3" font-family="Times,serif" font-size="14.00">no2.func_801D0B78</text>
</a>
</g>
</g>
<!-- no2.func_801D0B78&#45;&gt;no2.GetSideToPlayer -->
<g id="edge13" class="edge">
<title>no2.func_801D0B78&#45;&gt;no2.GetSideToPlayer</title>
<path fill="none" stroke="black" d="M2872.73,-185.41C2859.76,-183.52 2846.39,-181.64 2833.79,-180 2332.76,-114.62 1731.36,-52.59 1496.59,-29.01"/>
<polygon fill="black" stroke="black" points="1496.67,-25.5 1486.37,-27.98 1495.97,-32.46 1496.67,-25.5"/>
<text text-anchor="middle" x="2867.73" y="-174.21" font-family="Times,serif" font-size="14.00">1</text>
</g>
</g>
</svg>
