<?xml version="1.0" encoding="UTF-8" standalone="no"?>
<!DOCTYPE svg PUBLIC "-//W3C//DTD SVG 1.1//EN"
 "http://www.w3.org/Graphics/SVG/1.1/DTD/svg11.dtd">
<!-- Generated by graphviz version 2.43.0 (0)
 -->
<!-- Title: no3.EntityCastleDoorTransition Pages: 1 -->
<svg width="873pt" height="224pt"
 viewBox="0.00 0.00 873.09 224.00" xmlns="http://www.w3.org/2000/svg" xmlns:xlink="http://www.w3.org/1999/xlink">
<g id="graph0" class="graph" transform="scale(1 1) rotate(0) translate(4 220)">
<title>no3.EntityCastleDoorTransition</title>
<polygon fill="white" stroke="transparent" points="-4,4 -4,-220 869.09,-220 869.09,4 -4,4"/>
<!-- no3.EntityCastleDoorTransition -->
<g id="node1" class="node">
<title>no3.EntityCastleDoorTransition</title>
<ellipse fill="green" stroke="black" cx="480.19" cy="-198" rx="158.67" ry="18"/>
<text text-anchor="middle" x="480.19" y="-194.3" font-family="Times,serif" font-size="14.00">no3.EntityCastleDoorTransition</text>
</g>
<!-- no3.DestroyEntity -->
<g id="node2" class="node">
<title>no3.DestroyEntity</title>
<g id="a_node2"><a xlink:href="no3.DestroyEntity.svg" xlink:title="no3.DestroyEntity">
<ellipse fill="green" stroke="black" cx="96.19" cy="-18" rx="96.38" ry="18"/>
<text text-anchor="middle" x="96.19" y="-14.3" font-family="Times,serif" font-size="14.00">no3.DestroyEntity</text>
</a>
</g>
</g>
<!-- no3.EntityCastleDoorTransition&#45;&gt;no3.DestroyEntity -->
<g id="edge1" class="edge">
<title>no3.EntityCastleDoorTransition&#45;&gt;no3.DestroyEntity</title>
<path fill="none" stroke="black" d="M444.41,-180.41C373.7,-147.64 216.32,-74.68 139.73,-39.18"/>
<polygon fill="black" stroke="black" points="140.91,-35.87 130.36,-34.84 137.96,-42.22 140.91,-35.87"/>
<text text-anchor="middle" x="125.36" y="-38.64" font-family="Times,serif" font-size="14.00">1</text>
</g>
<!-- no3.EntityUnkId14Spawner -->
<g id="node3" class="node">
<title>no3.EntityUnkId14Spawner</title>
<g id="a_node3"><a xlink:href="no3.EntityUnkId14Spawner.svg" xlink:title="no3.EntityUnkId14Spawner">
<ellipse fill="green" stroke="black" cx="351.19" cy="-18" rx="140.28" ry="18"/>
<text text-anchor="middle" x="351.19" y="-14.3" font-family="Times,serif" font-size="14.00">no3.EntityUnkId14Spawner</text>
</a>
</g>
</g>
<!-- no3.EntityCastleDoorTransition&#45;&gt;no3.EntityUnkId14Spawner -->
<g id="edge2" class="edge">
<title>no3.EntityCastleDoorTransition&#45;&gt;no3.EntityUnkId14Spawner</title>
<path fill="none" stroke="black" d="M467.82,-179.93C445,-148.43 396.15,-81.03 369.48,-44.24"/>
<polygon fill="black" stroke="black" points="372.23,-42.06 363.52,-36.02 366.56,-46.17 372.23,-42.06"/>
<text text-anchor="middle" x="358.52" y="-39.82" font-family="Times,serif" font-size="14.00">1</text>
</g>
<!-- no3.InitializeEntity -->
<g id="node4" class="node">
<title>no3.InitializeEntity</title>
<g id="a_node4"><a xlink:href="no3.InitializeEntity.svg" xlink:title="no3.InitializeEntity">
<ellipse fill="green" stroke="black" cx="609.19" cy="-18" rx="100.18" ry="18"/>
<text text-anchor="middle" x="609.19" y="-14.3" font-family="Times,serif" font-size="14.00">no3.InitializeEntity</text>
</a>
</g>
</g>
<!-- no3.EntityCastleDoorTransition&#45;&gt;no3.InitializeEntity -->
<g id="edge3" class="edge">
<title>no3.EntityCastleDoorTransition&#45;&gt;no3.InitializeEntity</title>
<path fill="none" stroke="black" d="M492.56,-179.93C515.39,-148.43 564.23,-81.03 590.9,-44.24"/>
<polygon fill="black" stroke="black" points="593.83,-46.17 596.86,-36.02 588.16,-42.06 593.83,-46.17"/>
<text text-anchor="middle" x="591.86" y="-39.82" font-family="Times,serif" font-size="14.00">1</text>
</g>
<!-- no3.Random -->
<g id="node5" class="node">
<title>no3.Random</title>
<g id="a_node5"><a xlink:href="no3.Random.svg" xlink:title="no3.Random">
<ellipse fill="green" stroke="black" cx="796.19" cy="-18" rx="68.79" ry="18"/>
<text text-anchor="middle" x="796.19" y="-14.3" font-family="Times,serif" font-size="14.00">no3.Random</text>
</a>
</g>
</g>
<!-- no3.EntityCastleDoorTransition&#45;&gt;no3.Random -->
<g id="edge4" class="edge">
<title>no3.EntityCastleDoorTransition&#45;&gt;no3.Random</title>
<path fill="none" stroke="black" d="M509.92,-180.25C568.06,-147.51 696.62,-75.09 759.76,-39.52"/>
<polygon fill="black" stroke="black" points="761.59,-42.51 768.58,-34.55 758.15,-36.41 761.59,-42.51"/>
<text text-anchor="middle" x="763.58" y="-38.35" font-family="Times,serif" font-size="14.00">1</text>
</g>
</g>
</svg>
