<?xml version="1.0" encoding="UTF-8" standalone="no"?>
<!DOCTYPE svg PUBLIC "-//W3C//DTD SVG 1.1//EN"
 "http://www.w3.org/Graphics/SVG/1.1/DTD/svg11.dtd">
<!-- Generated by graphviz version 2.43.0 (0)
 -->
<!-- Title: no3..L801CD43C Pages: 1 -->
<svg width="955pt" height="224pt"
 viewBox="0.00 0.00 954.69 224.00" xmlns="http://www.w3.org/2000/svg" xmlns:xlink="http://www.w3.org/1999/xlink">
<g id="graph0" class="graph" transform="scale(1 1) rotate(0) translate(4 220)">
<title>no3..L801CD43C</title>
<polygon fill="white" stroke="transparent" points="-4,4 -4,-220 950.69,-220 950.69,4 -4,4"/>
<!-- no3..L801CD43C -->
<g id="node1" class="node">
<title>no3..L801CD43C</title>
<ellipse fill="green" stroke="black" cx="427.89" cy="-198" rx="89.88" ry="18"/>
<text text-anchor="middle" x="427.89" y="-194.3" font-family="Times,serif" font-size="14.00">no3..L801CD43C</text>
</g>
<!-- no3.AllocEntity -->
<g id="node2" class="node">
<title>no3.AllocEntity</title>
<g id="a_node2"><a xlink:href="no3.AllocEntity.svg" xlink:title="no3.AllocEntity">
<ellipse fill="green" stroke="black" cx="81.89" cy="-18" rx="81.79" ry="18"/>
<text text-anchor="middle" x="81.89" y="-14.3" font-family="Times,serif" font-size="14.00">no3.AllocEntity</text>
</a>
</g>
</g>
<!-- no3..L801CD43C&#45;&gt;no3.AllocEntity -->
<g id="edge1" class="edge">
<title>no3..L801CD43C&#45;&gt;no3.AllocEntity</title>
<path fill="none" stroke="black" d="M396.88,-181.05C333.86,-148.63 190.92,-75.09 121.37,-39.31"/>
<polygon fill="black" stroke="black" points="122.95,-36.19 112.46,-34.73 119.75,-42.41 122.95,-36.19"/>
<text text-anchor="middle" x="107.46" y="-38.53" font-family="Times,serif" font-size="14.00">1</text>
</g>
<!-- no3.AnimateEntity -->
<g id="node3" class="node">
<title>no3.AnimateEntity</title>
<g id="a_node3"><a xlink:href="no3.AnimateEntity.svg" xlink:title="no3.AnimateEntity">
<ellipse fill="green" stroke="black" cx="279.89" cy="-18" rx="98.28" ry="18"/>
<text text-anchor="middle" x="279.89" y="-14.3" font-family="Times,serif" font-size="14.00">no3.AnimateEntity</text>
</a>
</g>
</g>
<!-- no3..L801CD43C&#45;&gt;no3.AnimateEntity -->
<g id="edge2" class="edge">
<title>no3..L801CD43C&#45;&gt;no3.AnimateEntity</title>
<path fill="none" stroke="black" d="M413.7,-179.93C387.4,-148.3 331,-80.46 300.49,-43.78"/>
<polygon fill="black" stroke="black" points="303.13,-41.47 294.04,-36.02 297.74,-45.94 303.13,-41.47"/>
<text text-anchor="middle" x="289.04" y="-39.82" font-family="Times,serif" font-size="14.00">2</text>
</g>
<!-- no3.CreateEntityFromCurrentEntity -->
<g id="node4" class="node">
<title>no3.CreateEntityFromCurrentEntity</title>
<g id="a_node4"><a xlink:href="no3.CreateEntityFromCurrentEntity.svg" xlink:title="no3.CreateEntityFromCurrentEntity">
<ellipse fill="green" stroke="black" cx="576.89" cy="-18" rx="180.87" ry="18"/>
<text text-anchor="middle" x="576.89" y="-14.3" font-family="Times,serif" font-size="14.00">no3.CreateEntityFromCurrentEntity</text>
</a>
</g>
</g>
<!-- no3..L801CD43C&#45;&gt;no3.CreateEntityFromCurrentEntity -->
<g id="edge3" class="edge">
<title>no3..L801CD43C&#45;&gt;no3.CreateEntityFromCurrentEntity</title>
<path fill="none" stroke="black" d="M442.18,-179.93C468.66,-148.3 525.44,-80.46 556.15,-43.78"/>
<polygon fill="black" stroke="black" points="558.91,-45.93 562.65,-36.02 553.55,-41.44 558.91,-45.93"/>
<text text-anchor="middle" x="557.65" y="-39.82" font-family="Times,serif" font-size="14.00">1</text>
</g>
<!-- no3.SetSubStep -->
<g id="node5" class="node">
<title>no3.SetSubStep</title>
<g id="a_node5"><a xlink:href="no3.SetSubStep.svg" xlink:title="no3.SetSubStep">
<ellipse fill="green" stroke="black" cx="860.89" cy="-18" rx="85.59" ry="18"/>
<text text-anchor="middle" x="860.89" y="-14.3" font-family="Times,serif" font-size="14.00">no3.SetSubStep</text>
</a>
</g>
</g>
<!-- no3..L801CD43C&#45;&gt;no3.SetSubStep -->
<g id="edge4" class="edge">
<title>no3..L801CD43C&#45;&gt;no3.SetSubStep</title>
<path fill="none" stroke="black" d="M465.56,-181.52C544.69,-148.99 728,-73.63 814.33,-38.14"/>
<polygon fill="black" stroke="black" points="815.7,-41.36 823.62,-34.32 813.04,-34.89 815.7,-41.36"/>
<text text-anchor="middle" x="818.62" y="-38.12" font-family="Times,serif" font-size="14.00">1</text>
</g>
</g>
</svg>
