<?xml version="1.0" encoding="UTF-8" standalone="no"?>
<!DOCTYPE svg PUBLIC "-//W3C//DTD SVG 1.1//EN"
 "http://www.w3.org/Graphics/SVG/1.1/DTD/svg11.dtd">
<!-- Generated by graphviz version 2.43.0 (0)
 -->
<!-- Title: no3.EntityFireWarg Pages: 1 -->
<svg width="4472pt" height="224pt"
 viewBox="0.00 0.00 4472.13 224.00" xmlns="http://www.w3.org/2000/svg" xmlns:xlink="http://www.w3.org/1999/xlink">
<g id="graph0" class="graph" transform="scale(1 1) rotate(0) translate(4 220)">
<title>no3.EntityFireWarg</title>
<polygon fill="white" stroke="transparent" points="-4,4 -4,-220 4468.13,-220 4468.13,4 -4,4"/>
<!-- no3.EntityFireWarg -->
<g id="node1" class="node">
<title>no3.EntityFireWarg</title>
<ellipse fill="red" stroke="black" cx="2437.49" cy="-198" rx="102.88" ry="18"/>
<text text-anchor="middle" x="2437.49" y="-194.3" font-family="Times,serif" font-size="14.00">no3.EntityFireWarg</text>
</g>
<!-- dra.CheckCollision -->
<g id="node2" class="node">
<title>dra.CheckCollision</title>
<g id="a_node2"><a xlink:href="dra.CheckCollision.svg" xlink:title="dra.CheckCollision">
<ellipse fill="green" stroke="black" cx="97.49" cy="-18" rx="97.48" ry="18"/>
<text text-anchor="middle" x="97.49" y="-14.3" font-family="Times,serif" font-size="14.00">dra.CheckCollision</text>
</a>
</g>
</g>
<!-- no3.EntityFireWarg&#45;&gt;dra.CheckCollision -->
<g id="edge1" class="edge">
<title>no3.EntityFireWarg&#45;&gt;dra.CheckCollision</title>
<path fill="none" stroke="black" d="M2338.66,-192.95C2025.25,-179.46 1025.75,-131.38 203.49,-36 194.52,-34.96 185.14,-33.7 175.84,-32.35"/>
<polygon fill="black" stroke="black" points="176.2,-28.87 165.8,-30.85 175.17,-35.79 176.2,-28.87"/>
<text text-anchor="middle" x="160.8" y="-34.65" font-family="Times,serif" font-size="14.00">2</text>
</g>
<!-- no3.AllocEntity -->
<g id="node3" class="node">
<title>no3.AllocEntity</title>
<g id="a_node3"><a xlink:href="no3.AllocEntity.svg" xlink:title="no3.AllocEntity">
<ellipse fill="green" stroke="black" cx="294.49" cy="-18" rx="81.79" ry="18"/>
<text text-anchor="middle" x="294.49" y="-14.3" font-family="Times,serif" font-size="14.00">no3.AllocEntity</text>
</a>
</g>
</g>
<!-- no3.EntityFireWarg&#45;&gt;no3.AllocEntity -->
<g id="edge2" class="edge">
<title>no3.EntityFireWarg&#45;&gt;no3.AllocEntity</title>
<path fill="none" stroke="black" d="M2338.86,-192.99C2042.28,-180.13 1132.98,-134.86 385.49,-36 378.07,-35.02 370.33,-33.83 362.65,-32.55"/>
<polygon fill="black" stroke="black" points="363.05,-29.06 352.6,-30.81 361.86,-35.96 363.05,-29.06"/>
<text text-anchor="middle" x="347.6" y="-34.61" font-family="Times,serif" font-size="14.00">2</text>
</g>
<!-- no3.AnimateEntity -->
<g id="node4" class="node">
<title>no3.AnimateEntity</title>
<g id="a_node4"><a xlink:href="no3.AnimateEntity.svg" xlink:title="no3.AnimateEntity">
<ellipse fill="green" stroke="black" cx="492.49" cy="-18" rx="98.28" ry="18"/>
<text text-anchor="middle" x="492.49" y="-14.3" font-family="Times,serif" font-size="14.00">no3.AnimateEntity</text>
</a>
</g>
</g>
<!-- no3.EntityFireWarg&#45;&gt;no3.AnimateEntity -->
<g id="edge3" class="edge">
<title>no3.EntityFireWarg&#45;&gt;no3.AnimateEntity</title>
<path fill="none" stroke="black" d="M2342.55,-191.05C2070.46,-173.47 1264.74,-117.88 599.49,-36 590.58,-34.9 581.27,-33.62 572.02,-32.27"/>
<polygon fill="black" stroke="black" points="572.44,-28.79 562.04,-30.77 571.41,-35.72 572.44,-28.79"/>
<text text-anchor="middle" x="552.54" y="-34.57" font-family="Times,serif" font-size="14.00">24</text>
</g>
<!-- no3.CreateEntityFromCurrentEntity -->
<g id="node5" class="node">
<title>no3.CreateEntityFromCurrentEntity</title>
<g id="a_node5"><a xlink:href="no3.CreateEntityFromCurrentEntity.svg" xlink:title="no3.CreateEntityFromCurrentEntity">
<ellipse fill="green" stroke="black" cx="789.49" cy="-18" rx="180.87" ry="18"/>
<text text-anchor="middle" x="789.49" y="-14.3" font-family="Times,serif" font-size="14.00">no3.CreateEntityFromCurrentEntity</text>
</a>
</g>
</g>
<!-- no3.EntityFireWarg&#45;&gt;no3.CreateEntityFromCurrentEntity -->
<g id="edge4" class="edge">
<title>no3.EntityFireWarg&#45;&gt;no3.CreateEntityFromCurrentEntity</title>
<path fill="none" stroke="black" d="M2352.64,-187.84C2082.38,-158.64 1240.51,-67.71 917.47,-32.82"/>
<polygon fill="black" stroke="black" points="917.45,-29.3 907.13,-31.71 916.7,-36.26 917.45,-29.3"/>
<text text-anchor="middle" x="902.13" y="-35.51" font-family="Times,serif" font-size="14.00">4</text>
</g>
<!-- no3.DestroyEntity -->
<g id="node6" class="node">
<title>no3.DestroyEntity</title>
<g id="a_node6"><a xlink:href="no3.DestroyEntity.svg" xlink:title="no3.DestroyEntity">
<ellipse fill="green" stroke="black" cx="1084.49" cy="-18" rx="96.38" ry="18"/>
<text text-anchor="middle" x="1084.49" y="-14.3" font-family="Times,serif" font-size="14.00">no3.DestroyEntity</text>
</a>
</g>
</g>
<!-- no3.EntityFireWarg&#45;&gt;no3.DestroyEntity -->
<g id="edge5" class="edge">
<title>no3.EntityFireWarg&#45;&gt;no3.DestroyEntity</title>
<path fill="none" stroke="black" d="M2354.86,-187.27C2154.65,-163.5 1627.81,-99.74 1189.49,-36 1181.15,-34.79 1172.45,-33.47 1163.77,-32.11"/>
<polygon fill="black" stroke="black" points="1164.05,-28.62 1153.63,-30.52 1162.97,-35.53 1164.05,-28.62"/>
<text text-anchor="middle" x="1148.63" y="-34.32" font-family="Times,serif" font-size="14.00">2</text>
</g>
<!-- no3.EntityExplosionVariantsSpawner -->
<g id="node7" class="node">
<title>no3.EntityExplosionVariantsSpawner</title>
<g id="a_node7"><a xlink:href="no3.EntityExplosionVariantsSpawner.svg" xlink:title="no3.EntityExplosionVariantsSpawner">
<ellipse fill="green" stroke="black" cx="1383.49" cy="-18" rx="184.67" ry="18"/>
<text text-anchor="middle" x="1383.49" y="-14.3" font-family="Times,serif" font-size="14.00">no3.EntityExplosionVariantsSpawner</text>
</a>
</g>
</g>
<!-- no3.EntityFireWarg&#45;&gt;no3.EntityExplosionVariantsSpawner -->
<g id="edge6" class="edge">
<title>no3.EntityFireWarg&#45;&gt;no3.EntityExplosionVariantsSpawner</title>
<path fill="none" stroke="black" d="M2366.29,-184.97C2182.58,-153.95 1692.32,-71.16 1481.79,-35.6"/>
<polygon fill="black" stroke="black" points="1482.11,-32.11 1471.67,-33.89 1480.95,-39.01 1482.11,-32.11"/>
<text text-anchor="middle" x="1462.17" y="-37.69" font-family="Times,serif" font-size="14.00">12</text>
</g>
<!-- no3.GetDistanceToPlayerX -->
<g id="node8" class="node">
<title>no3.GetDistanceToPlayerX</title>
<g id="a_node8"><a xlink:href="no3.GetDistanceToPlayerX.svg" xlink:title="no3.GetDistanceToPlayerX">
<ellipse fill="green" stroke="black" cx="1720.49" cy="-18" rx="134.58" ry="18"/>
<text text-anchor="middle" x="1720.49" y="-14.3" font-family="Times,serif" font-size="14.00">no3.GetDistanceToPlayerX</text>
</a>
</g>
</g>
<!-- no3.EntityFireWarg&#45;&gt;no3.GetDistanceToPlayerX -->
<g id="edge7" class="edge">
<title>no3.EntityFireWarg&#45;&gt;no3.GetDistanceToPlayerX</title>
<path fill="none" stroke="black" d="M2380.93,-182.96C2251.36,-150.79 1933.28,-71.83 1791.13,-36.54"/>
<polygon fill="black" stroke="black" points="1791.75,-33.08 1781.2,-34.07 1790.06,-39.88 1791.75,-33.08"/>
<text text-anchor="middle" x="1776.2" y="-37.87" font-family="Times,serif" font-size="14.00">2</text>
</g>
<!-- no3.GetSideToPlayer -->
<g id="node9" class="node">
<title>no3.GetSideToPlayer</title>
<g id="a_node9"><a xlink:href="no3.GetSideToPlayer.svg" xlink:title="no3.GetSideToPlayer">
<ellipse fill="green" stroke="black" cx="1981.49" cy="-18" rx="108.58" ry="18"/>
<text text-anchor="middle" x="1981.49" y="-14.3" font-family="Times,serif" font-size="14.00">no3.GetSideToPlayer</text>
</a>
</g>
</g>
<!-- no3.EntityFireWarg&#45;&gt;no3.GetSideToPlayer -->
<g id="edge8" class="edge">
<title>no3.EntityFireWarg&#45;&gt;no3.GetSideToPlayer</title>
<path fill="none" stroke="black" d="M2397.42,-181.36C2314.18,-148.86 2122.69,-74.12 2031.51,-38.53"/>
<polygon fill="black" stroke="black" points="2032.55,-35.17 2021.96,-34.8 2030,-41.69 2032.55,-35.17"/>
<text text-anchor="middle" x="2016.96" y="-38.6" font-family="Times,serif" font-size="14.00">2</text>
</g>
<!-- no3.InitializeEntity -->
<g id="node10" class="node">
<title>no3.InitializeEntity</title>
<g id="a_node10"><a xlink:href="no3.InitializeEntity.svg" xlink:title="no3.InitializeEntity">
<ellipse fill="green" stroke="black" cx="2208.49" cy="-18" rx="100.18" ry="18"/>
<text text-anchor="middle" x="2208.49" y="-14.3" font-family="Times,serif" font-size="14.00">no3.InitializeEntity</text>
</a>
</g>
</g>
<!-- no3.EntityFireWarg&#45;&gt;no3.InitializeEntity -->
<g id="edge9" class="edge">
<title>no3.EntityFireWarg&#45;&gt;no3.InitializeEntity</title>
<path fill="none" stroke="black" d="M2415.95,-180.25C2374.77,-148.25 2284.86,-78.36 2238.08,-42"/>
<polygon fill="black" stroke="black" points="2240.19,-39.2 2230.14,-35.83 2235.89,-44.73 2240.19,-39.2"/>
<text text-anchor="middle" x="2225.14" y="-39.63" font-family="Times,serif" font-size="14.00">2</text>
</g>
<!-- no3.PlaySfxPositional -->
<g id="node11" class="node">
<title>no3.PlaySfxPositional</title>
<g id="a_node11"><a xlink:href="no3.PlaySfxPositional.svg" xlink:title="no3.PlaySfxPositional">
<ellipse fill="green" stroke="black" cx="2437.49" cy="-18" rx="111.28" ry="18"/>
<text text-anchor="middle" x="2437.49" y="-14.3" font-family="Times,serif" font-size="14.00">no3.PlaySfxPositional</text>
</a>
</g>
</g>
<!-- no3.EntityFireWarg&#45;&gt;no3.PlaySfxPositional -->
<g id="edge10" class="edge">
<title>no3.EntityFireWarg&#45;&gt;no3.PlaySfxPositional</title>
<path fill="none" stroke="black" d="M2437.49,-179.93C2437.49,-148.97 2437.49,-83.3 2437.49,-46.13"/>
<polygon fill="black" stroke="black" points="2440.99,-46.02 2437.49,-36.02 2433.99,-46.02 2440.99,-46.02"/>
<text text-anchor="middle" x="2432.49" y="-39.82" font-family="Times,serif" font-size="14.00">5</text>
</g>
<!-- no3.Random -->
<g id="node12" class="node">
<title>no3.Random</title>
<g id="a_node12"><a xlink:href="no3.Random.svg" xlink:title="no3.Random">
<ellipse fill="green" stroke="black" cx="2635.49" cy="-18" rx="68.79" ry="18"/>
<text text-anchor="middle" x="2635.49" y="-14.3" font-family="Times,serif" font-size="14.00">no3.Random</text>
</a>
</g>
</g>
<!-- no3.EntityFireWarg&#45;&gt;no3.Random -->
<g id="edge11" class="edge">
<title>no3.EntityFireWarg&#45;&gt;no3.Random</title>
<path fill="none" stroke="black" d="M2456.12,-180.25C2491.59,-148.37 2568.89,-78.87 2609.46,-42.4"/>
<polygon fill="black" stroke="black" points="2611.96,-44.86 2617.06,-35.57 2607.28,-39.65 2611.96,-44.86"/>
<text text-anchor="middle" x="2607.56" y="-39.37" font-family="Times,serif" font-size="14.00">17</text>
</g>
<!-- no3.SetStep -->
<g id="node13" class="node">
<title>no3.SetStep</title>
<g id="a_node13"><a xlink:href="no3.SetStep.svg" xlink:title="no3.SetStep">
<ellipse fill="green" stroke="black" cx="2789.49" cy="-18" rx="67.69" ry="18"/>
<text text-anchor="middle" x="2789.49" y="-14.3" font-family="Times,serif" font-size="14.00">no3.SetStep</text>
</a>
</g>
</g>
<!-- no3.EntityFireWarg&#45;&gt;no3.SetStep -->
<g id="edge12" class="edge">
<title>no3.EntityFireWarg&#45;&gt;no3.SetStep</title>
<path fill="none" stroke="black" d="M2469.66,-180.73C2534.47,-147.96 2680.51,-74.11 2750.56,-38.68"/>
<polygon fill="black" stroke="black" points="2752.18,-41.79 2759.53,-34.15 2749.02,-35.54 2752.18,-41.79"/>
<text text-anchor="middle" x="2754.53" y="-37.95" font-family="Times,serif" font-size="14.00">6</text>
</g>
<!-- no3.SetSubStep -->
<g id="node14" class="node">
<title>no3.SetSubStep</title>
<g id="a_node14"><a xlink:href="no3.SetSubStep.svg" xlink:title="no3.SetSubStep">
<ellipse fill="green" stroke="black" cx="2960.49" cy="-18" rx="85.59" ry="18"/>
<text text-anchor="middle" x="2960.49" y="-14.3" font-family="Times,serif" font-size="14.00">no3.SetSubStep</text>
</a>
</g>
</g>
<!-- no3.EntityFireWarg&#45;&gt;no3.SetSubStep -->
<g id="edge13" class="edge">
<title>no3.EntityFireWarg&#45;&gt;no3.SetSubStep</title>
<path fill="none" stroke="black" d="M2482.53,-181.67C2579.03,-148.83 2805.25,-71.84 2908.03,-36.86"/>
<polygon fill="black" stroke="black" points="2909.24,-40.14 2917.58,-33.6 2906.98,-33.51 2909.24,-40.14"/>
<text text-anchor="middle" x="2912.58" y="-37.4" font-family="Times,serif" font-size="14.00">7</text>
</g>
<!-- no3.UnkCollisionFunc2 -->
<g id="node15" class="node">
<title>no3.UnkCollisionFunc2</title>
<g id="a_node15"><a xlink:href="no3.UnkCollisionFunc2.svg" xlink:title="no3.UnkCollisionFunc2">
<ellipse fill="green" stroke="black" cx="3182.49" cy="-18" rx="118.08" ry="18"/>
<text text-anchor="middle" x="3182.49" y="-14.3" font-family="Times,serif" font-size="14.00">no3.UnkCollisionFunc2</text>
</a>
</g>
</g>
<!-- no3.EntityFireWarg&#45;&gt;no3.UnkCollisionFunc2 -->
<g id="edge14" class="edge">
<title>no3.EntityFireWarg&#45;&gt;no3.UnkCollisionFunc2</title>
<path fill="none" stroke="black" d="M2495.64,-183.11C2630.8,-150.81 2965.73,-70.79 3112.12,-35.81"/>
<polygon fill="black" stroke="black" points="3112.99,-39.2 3121.91,-33.48 3111.37,-32.39 3112.99,-39.2"/>
<text text-anchor="middle" x="3116.91" y="-37.28" font-family="Times,serif" font-size="14.00">5</text>
</g>
<!-- no3.UnkCollisionFunc3 -->
<g id="node16" class="node">
<title>no3.UnkCollisionFunc3</title>
<g id="a_node16"><a xlink:href="no3.UnkCollisionFunc3.svg" xlink:title="no3.UnkCollisionFunc3">
<ellipse fill="green" stroke="black" cx="3437.49" cy="-18" rx="118.08" ry="18"/>
<text text-anchor="middle" x="3437.49" y="-14.3" font-family="Times,serif" font-size="14.00">no3.UnkCollisionFunc3</text>
</a>
</g>
</g>
<!-- no3.EntityFireWarg&#45;&gt;no3.UnkCollisionFunc3 -->
<g id="edge15" class="edge">
<title>no3.EntityFireWarg&#45;&gt;no3.UnkCollisionFunc3</title>
<path fill="none" stroke="black" d="M2507.02,-184.62C2685.64,-152.83 3160.15,-68.37 3353.61,-33.93"/>
<polygon fill="black" stroke="black" points="3354.49,-37.33 3363.72,-32.13 3353.26,-30.44 3354.49,-37.33"/>
<text text-anchor="middle" x="3358.72" y="-35.93" font-family="Times,serif" font-size="14.00">3</text>
</g>
<!-- no3.func_801CC5A4 -->
<g id="node17" class="node">
<title>no3.func_801CC5A4</title>
<g id="a_node17"><a xlink:href="no3.func_801CC5A4.svg" xlink:title="no3.func_801CC5A4">
<ellipse fill="green" stroke="black" cx="3678.49" cy="-18" rx="104.78" ry="18"/>
<text text-anchor="middle" x="3678.49" y="-14.3" font-family="Times,serif" font-size="14.00">no3.func_801CC5A4</text>
</a>
</g>
</g>
<!-- no3.EntityFireWarg&#45;&gt;no3.func_801CC5A4 -->
<g id="edge16" class="edge">
<title>no3.EntityFireWarg&#45;&gt;no3.func_801CC5A4</title>
<path fill="none" stroke="black" d="M2514.72,-186.13C2697.31,-160.41 3169.92,-93.6 3564.49,-36 3573.51,-34.68 3582.92,-33.3 3592.31,-31.91"/>
<polygon fill="black" stroke="black" points="3593.08,-35.33 3602.46,-30.4 3592.06,-28.41 3593.08,-35.33"/>
<text text-anchor="middle" x="3597.46" y="-34.2" font-family="Times,serif" font-size="14.00">3</text>
</g>
<!-- no3.func_801CC6F8 -->
<g id="node18" class="node">
<title>no3.func_801CC6F8</title>
<g id="a_node18"><a xlink:href="no3.func_801CC6F8.svg" xlink:title="no3.func_801CC6F8">
<ellipse fill="green" stroke="black" cx="3905.49" cy="-18" rx="104.78" ry="18"/>
<text text-anchor="middle" x="3905.49" y="-14.3" font-family="Times,serif" font-size="14.00">no3.func_801CC6F8</text>
</a>
</g>
</g>
<!-- no3.EntityFireWarg&#45;&gt;no3.func_801CC6F8 -->
<g id="edge17" class="edge">
<title>no3.EntityFireWarg&#45;&gt;no3.func_801CC6F8</title>
<path fill="none" stroke="black" d="M2522.43,-187.84C2736.07,-164.58 3312.95,-100.54 3792.49,-36 3801.52,-34.79 3810.94,-33.46 3820.32,-32.1"/>
<polygon fill="black" stroke="black" points="3821.08,-35.53 3830.47,-30.62 3820.07,-28.6 3821.08,-35.53"/>
<text text-anchor="middle" x="3825.47" y="-34.42" font-family="Times,serif" font-size="14.00">1</text>
</g>
<!-- no3.func_801CC820 -->
<g id="node19" class="node">
<title>no3.func_801CC820</title>
<g id="a_node19"><a xlink:href="no3.func_801CC820.svg" xlink:title="no3.func_801CC820">
<ellipse fill="green" stroke="black" cx="4132.49" cy="-18" rx="103.98" ry="18"/>
<text text-anchor="middle" x="4132.49" y="-14.3" font-family="Times,serif" font-size="14.00">no3.func_801CC820</text>
</a>
</g>
</g>
<!-- no3.EntityFireWarg&#45;&gt;no3.func_801CC820 -->
<g id="edge18" class="edge">
<title>no3.EntityFireWarg&#45;&gt;no3.func_801CC820</title>
<path fill="none" stroke="black" d="M2527.74,-189.34C2769.75,-168.47 3453.19,-107.37 4019.49,-36 4028.84,-34.82 4038.61,-33.5 4048.32,-32.12"/>
<polygon fill="black" stroke="black" points="4049.01,-35.55 4058.41,-30.66 4048.01,-28.63 4049.01,-35.55"/>
<text text-anchor="middle" x="4053.41" y="-34.46" font-family="Times,serif" font-size="14.00">3</text>
</g>
<!-- no3.func_801CC90C -->
<g id="node20" class="node">
<title>no3.func_801CC90C</title>
<g id="a_node20"><a xlink:href="no3.func_801CC90C.svg" xlink:title="no3.func_801CC90C">
<ellipse fill="green" stroke="black" cx="4359.49" cy="-18" rx="104.78" ry="18"/>
<text text-anchor="middle" x="4359.49" y="-14.3" font-family="Times,serif" font-size="14.00">no3.func_801CC90C</text>
</a>
</g>
</g>
<!-- no3.EntityFireWarg&#45;&gt;no3.func_801CC90C -->
<g id="edge19" class="edge">
<title>no3.EntityFireWarg&#45;&gt;no3.func_801CC90C</title>
<path fill="none" stroke="black" d="M2531.32,-190.61C2799.33,-171.95 3591.09,-113.86 4245.49,-36 4255.1,-34.86 4265.15,-33.54 4275.13,-32.15"/>
<polygon fill="black" stroke="black" points="4275.66,-35.61 4285.07,-30.75 4274.68,-28.68 4275.66,-35.61"/>
<text text-anchor="middle" x="4280.07" y="-34.55" font-family="Times,serif" font-size="14.00">5</text>
</g>
</g>
</svg>
