<?xml version="1.0" encoding="UTF-8" standalone="no"?>
<!DOCTYPE svg PUBLIC "-//W3C//DTD SVG 1.1//EN"
 "http://www.w3.org/Graphics/SVG/1.1/DTD/svg11.dtd">
<!-- Generated by graphviz version 2.43.0 (0)
 -->
<!-- Title: no3.EntityRoomTransition2 Pages: 1 -->
<svg width="2057pt" height="224pt"
 viewBox="0.00 0.00 2056.53 224.00" xmlns="http://www.w3.org/2000/svg" xmlns:xlink="http://www.w3.org/1999/xlink">
<g id="graph0" class="graph" transform="scale(1 1) rotate(0) translate(4 220)">
<title>no3.EntityRoomTransition2</title>
<polygon fill="white" stroke="transparent" points="-4,4 -4,-220 2052.53,-220 2052.53,4 -4,4"/>
<!-- no3.EntityRoomTransition2 -->
<g id="node1" class="node">
<title>no3.EntityRoomTransition2</title>
<ellipse fill="green" stroke="black" cx="852.44" cy="-198" rx="139.18" ry="18"/>
<text text-anchor="middle" x="852.44" y="-194.3" font-family="Times,serif" font-size="14.00">no3.EntityRoomTransition2</text>
</g>
<!-- dra.AllocPrimitives -->
<g id="node2" class="node">
<title>dra.AllocPrimitives</title>
<g id="a_node2"><a xlink:href="dra.AllocPrimitives.svg" xlink:title="dra.AllocPrimitives">
<ellipse fill="green" stroke="black" cx="99.44" cy="-18" rx="99.38" ry="18"/>
<text text-anchor="middle" x="99.44" y="-14.3" font-family="Times,serif" font-size="14.00">dra.AllocPrimitives</text>
</a>
</g>
</g>
<!-- no3.EntityRoomTransition2&#45;&gt;dra.AllocPrimitives -->
<g id="edge1" class="edge">
<title>no3.EntityRoomTransition2&#45;&gt;dra.AllocPrimitives</title>
<path fill="none" stroke="black" d="M788.89,-181.98C648.31,-148.75 312.01,-69.25 167.42,-35.07"/>
<polygon fill="black" stroke="black" points="167.89,-31.58 157.35,-32.69 166.27,-38.4 167.89,-31.58"/>
<text text-anchor="middle" x="152.35" y="-36.49" font-family="Times,serif" font-size="14.00">1</text>
</g>
<!-- dra.InitStatsAndGear -->
<g id="node3" class="node">
<title>dra.InitStatsAndGear</title>
<g id="a_node3"><a xlink:href="dra.InitStatsAndGear.svg" xlink:title="dra.InitStatsAndGear">
<ellipse fill="green" stroke="black" cx="327.44" cy="-18" rx="110.48" ry="18"/>
<text text-anchor="middle" x="327.44" y="-14.3" font-family="Times,serif" font-size="14.00">dra.InitStatsAndGear</text>
</a>
</g>
</g>
<!-- no3.EntityRoomTransition2&#45;&gt;dra.InitStatsAndGear -->
<g id="edge2" class="edge">
<title>no3.EntityRoomTransition2&#45;&gt;dra.InitStatsAndGear</title>
<path fill="none" stroke="black" d="M805.39,-181.05C708.35,-148.15 486.42,-72.9 382.73,-37.75"/>
<polygon fill="black" stroke="black" points="383.67,-34.37 373.08,-34.47 381.42,-41 383.67,-34.37"/>
<text text-anchor="middle" x="368.08" y="-38.27" font-family="Times,serif" font-size="14.00">1</text>
</g>
<!-- dra.PlaySfx -->
<g id="node4" class="node">
<title>dra.PlaySfx</title>
<g id="a_node4"><a xlink:href="dra.PlaySfx.svg" xlink:title="dra.PlaySfx">
<ellipse fill="green" stroke="black" cx="520.44" cy="-18" rx="64.19" ry="18"/>
<text text-anchor="middle" x="520.44" y="-14.3" font-family="Times,serif" font-size="14.00">dra.PlaySfx</text>
</a>
</g>
</g>
<!-- no3.EntityRoomTransition2&#45;&gt;dra.PlaySfx -->
<g id="edge3" class="edge">
<title>no3.EntityRoomTransition2&#45;&gt;dra.PlaySfx</title>
<path fill="none" stroke="black" d="M821.51,-180.41C760.32,-147.61 624.04,-74.54 557.9,-39.08"/>
<polygon fill="black" stroke="black" points="559.51,-35.98 549.04,-34.33 556.2,-42.14 559.51,-35.98"/>
<text text-anchor="middle" x="544.04" y="-38.13" font-family="Times,serif" font-size="14.00">2</text>
</g>
<!-- g_api_PlaySfx -->
<g id="node5" class="node">
<title>g_api_PlaySfx</title>
<g id="a_node5"><a xlink:href="g_api_PlaySfx.svg" xlink:title="g_api_PlaySfx">
<ellipse fill="lightblue" stroke="black" cx="677.44" cy="-18" rx="74.99" ry="18"/>
<text text-anchor="middle" x="677.44" y="-14.3" font-family="Times,serif" font-size="14.00">g_api_PlaySfx</text>
</a>
</g>
</g>
<!-- no3.EntityRoomTransition2&#45;&gt;g_api_PlaySfx -->
<g id="edge4" class="edge">
<title>no3.EntityRoomTransition2&#45;&gt;g_api_PlaySfx</title>
<path fill="none" stroke="black" d="M835.66,-179.93C804.35,-148.09 736.97,-79.54 701.07,-43.04"/>
<polygon fill="black" stroke="black" points="703.42,-40.43 693.91,-35.76 698.43,-45.34 703.42,-40.43"/>
<text text-anchor="middle" x="688.91" y="-39.56" font-family="Times,serif" font-size="14.00">2</text>
</g>
<!-- no3.AllocEntity -->
<g id="node6" class="node">
<title>no3.AllocEntity</title>
<g id="a_node6"><a xlink:href="no3.AllocEntity.svg" xlink:title="no3.AllocEntity">
<ellipse fill="green" stroke="black" cx="852.44" cy="-18" rx="81.79" ry="18"/>
<text text-anchor="middle" x="852.44" y="-14.3" font-family="Times,serif" font-size="14.00">no3.AllocEntity</text>
</a>
</g>
</g>
<!-- no3.EntityRoomTransition2&#45;&gt;no3.AllocEntity -->
<g id="edge5" class="edge">
<title>no3.EntityRoomTransition2&#45;&gt;no3.AllocEntity</title>
<path fill="none" stroke="black" d="M852.44,-179.93C852.44,-148.97 852.44,-83.3 852.44,-46.13"/>
<polygon fill="black" stroke="black" points="855.94,-46.02 852.44,-36.02 848.94,-46.02 855.94,-46.02"/>
<text text-anchor="middle" x="847.44" y="-39.82" font-family="Times,serif" font-size="14.00">1</text>
</g>
<!-- no3.CreateEntityFromCurrentEntity -->
<g id="node7" class="node">
<title>no3.CreateEntityFromCurrentEntity</title>
<g id="a_node7"><a xlink:href="no3.CreateEntityFromCurrentEntity.svg" xlink:title="no3.CreateEntityFromCurrentEntity">
<ellipse fill="green" stroke="black" cx="1133.44" cy="-18" rx="180.87" ry="18"/>
<text text-anchor="middle" x="1133.44" y="-14.3" font-family="Times,serif" font-size="14.00">no3.CreateEntityFromCurrentEntity</text>
</a>
</g>
</g>
<!-- no3.EntityRoomTransition2&#45;&gt;no3.CreateEntityFromCurrentEntity -->
<g id="edge6" class="edge">
<title>no3.EntityRoomTransition2&#45;&gt;no3.CreateEntityFromCurrentEntity</title>
<path fill="none" stroke="black" d="M878.88,-180.25C929.71,-148.05 1041.11,-77.49 1098.19,-41.33"/>
<polygon fill="black" stroke="black" points="1100.3,-44.14 1106.87,-35.83 1096.55,-38.23 1100.3,-44.14"/>
<text text-anchor="middle" x="1101.87" y="-39.63" font-family="Times,serif" font-size="14.00">1</text>
</g>
<!-- no3.CreateEntityFromEntity -->
<g id="node8" class="node">
<title>no3.CreateEntityFromEntity</title>
<g id="a_node8"><a xlink:href="no3.CreateEntityFromEntity.svg" xlink:title="no3.CreateEntityFromEntity">
<ellipse fill="green" stroke="black" cx="1476.44" cy="-18" rx="144.07" ry="18"/>
<text text-anchor="middle" x="1476.44" y="-14.3" font-family="Times,serif" font-size="14.00">no3.CreateEntityFromEntity</text>
</a>
</g>
</g>
<!-- no3.EntityRoomTransition2&#45;&gt;no3.CreateEntityFromEntity -->
<g id="edge7" class="edge">
<title>no3.EntityRoomTransition2&#45;&gt;no3.CreateEntityFromEntity</title>
<path fill="none" stroke="black" d="M907,-181.44C1021.93,-148.65 1288.47,-72.62 1411.76,-37.45"/>
<polygon fill="black" stroke="black" points="1412.8,-40.79 1421.45,-34.69 1410.88,-34.06 1412.8,-40.79"/>
<text text-anchor="middle" x="1416.45" y="-38.49" font-family="Times,serif" font-size="14.00">1</text>
</g>
<!-- no3.DestroyEntity -->
<g id="node9" class="node">
<title>no3.DestroyEntity</title>
<g id="a_node9"><a xlink:href="no3.DestroyEntity.svg" xlink:title="no3.DestroyEntity">
<ellipse fill="green" stroke="black" cx="1734.44" cy="-18" rx="96.38" ry="18"/>
<text text-anchor="middle" x="1734.44" y="-14.3" font-family="Times,serif" font-size="14.00">no3.DestroyEntity</text>
</a>
</g>
</g>
<!-- no3.EntityRoomTransition2&#45;&gt;no3.DestroyEntity -->
<g id="edge8" class="edge">
<title>no3.EntityRoomTransition2&#45;&gt;no3.DestroyEntity</title>
<path fill="none" stroke="black" d="M924.24,-182.51C1089.51,-149.16 1495.32,-67.26 1661.59,-33.7"/>
<polygon fill="black" stroke="black" points="1662.6,-37.07 1671.71,-31.66 1661.22,-30.21 1662.6,-37.07"/>
<text text-anchor="middle" x="1666.71" y="-35.46" font-family="Times,serif" font-size="14.00">3</text>
</g>
<!-- no3.InitializeEntity -->
<g id="node10" class="node">
<title>no3.InitializeEntity</title>
<g id="a_node10"><a xlink:href="no3.InitializeEntity.svg" xlink:title="no3.InitializeEntity">
<ellipse fill="green" stroke="black" cx="1948.44" cy="-18" rx="100.18" ry="18"/>
<text text-anchor="middle" x="1948.44" y="-14.3" font-family="Times,serif" font-size="14.00">no3.InitializeEntity</text>
</a>
</g>
</g>
<!-- no3.EntityRoomTransition2&#45;&gt;no3.InitializeEntity -->
<g id="edge9" class="edge">
<title>no3.EntityRoomTransition2&#45;&gt;no3.InitializeEntity</title>
<path fill="none" stroke="black" d="M935.72,-183.47C1140.08,-150.28 1664.41,-65.13 1866.92,-32.24"/>
<polygon fill="black" stroke="black" points="1867.59,-35.68 1876.9,-30.62 1866.47,-28.77 1867.59,-35.68"/>
<text text-anchor="middle" x="1871.9" y="-34.42" font-family="Times,serif" font-size="14.00">1</text>
</g>
</g>
</svg>
