<?xml version="1.0" encoding="UTF-8" standalone="no"?>
<!DOCTYPE svg PUBLIC "-//W3C//DTD SVG 1.1//EN"
 "http://www.w3.org/Graphics/SVG/1.1/DTD/svg11.dtd">
<!-- Generated by graphviz version 2.43.0 (0)
 -->
<!-- Title: no3.func_801C5A98 Pages: 1 -->
<svg width="217pt" height="404pt"
 viewBox="0.00 0.00 217.28 404.00" xmlns="http://www.w3.org/2000/svg" xmlns:xlink="http://www.w3.org/1999/xlink">
<g id="graph0" class="graph" transform="scale(1 1) rotate(0) translate(4 400)">
<title>no3.func_801C5A98</title>
<polygon fill="white" stroke="transparent" points="-4,4 -4,-400 213.28,-400 213.28,4 -4,4"/>
<!-- no3.func_801C5A98 -->
<g id="node1" class="node">
<title>no3.func_801C5A98</title>
<ellipse fill="green" stroke="black" cx="104.64" cy="-198" rx="103.18" ry="18"/>
<text text-anchor="middle" x="104.64" y="-194.3" font-family="Times,serif" font-size="14.00">no3.func_801C5A98</text>
</g>
<!-- dra.CheckCollision -->
<g id="node2" class="node">
<title>dra.CheckCollision</title>
<g id="a_node2"><a xlink:href="dra.CheckCollision.svg" xlink:title="dra.CheckCollision">
<ellipse fill="green" stroke="black" cx="104.64" cy="-18" rx="97.48" ry="18"/>
<text text-anchor="middle" x="104.64" y="-14.3" font-family="Times,serif" font-size="14.00">dra.CheckCollision</text>
</a>
</g>
</g>
<!-- no3.func_801C5A98&#45;&gt;dra.CheckCollision -->
<g id="edge1" class="edge">
<title>no3.func_801C5A98&#45;&gt;dra.CheckCollision</title>
<path fill="none" stroke="black" d="M104.64,-179.93C104.64,-148.97 104.64,-83.3 104.64,-46.13"/>
<polygon fill="black" stroke="black" points="108.14,-46.02 104.64,-36.02 101.14,-46.02 108.14,-46.02"/>
<text text-anchor="middle" x="99.64" y="-39.82" font-family="Times,serif" font-size="14.00">1</text>
</g>
<!-- no3.func_801D59D0 -->
<g id="node3" class="node">
<title>no3.func_801D59D0</title>
<g id="a_node3"><a xlink:href="no3.func_801D59D0.svg" xlink:title="no3.func_801D59D0">
<ellipse fill="green" stroke="black" cx="104.64" cy="-378" rx="104.78" ry="18"/>
<text text-anchor="middle" x="104.64" y="-374.3" font-family="Times,serif" font-size="14.00">no3.func_801D59D0</text>
</a>
</g>
</g>
<!-- no3.func_801D59D0&#45;&gt;no3.func_801C5A98 -->
<g id="edge2" class="edge">
<title>no3.func_801D59D0&#45;&gt;no3.func_801C5A98</title>
<path fill="none" stroke="black" d="M104.64,-359.93C104.64,-328.97 104.64,-263.3 104.64,-226.13"/>
<polygon fill="black" stroke="black" points="108.14,-226.02 104.64,-216.02 101.14,-226.02 108.14,-226.02"/>
<text text-anchor="middle" x="99.64" y="-348.73" font-family="Times,serif" font-size="14.00">1</text>
</g>
</g>
</svg>
