<?xml version="1.0" encoding="UTF-8" standalone="no"?>
<!DOCTYPE svg PUBLIC "-//W3C//DTD SVG 1.1//EN"
 "http://www.w3.org/Graphics/SVG/1.1/DTD/svg11.dtd">
<!-- Generated by graphviz version 2.43.0 (0)
 -->
<!-- Title: no3.func_801C3E10 Pages: 1 -->
<svg width="895pt" height="224pt"
 viewBox="0.00 0.00 894.63 224.00" xmlns="http://www.w3.org/2000/svg" xmlns:xlink="http://www.w3.org/1999/xlink">
<g id="graph0" class="graph" transform="scale(1 1) rotate(0) translate(4 220)">
<title>no3.func_801C3E10</title>
<polygon fill="white" stroke="transparent" points="-4,4 -4,-220 890.63,-220 890.63,4 -4,4"/>
<!-- no3.func_801C3E10 -->
<g id="node1" class="node">
<title>no3.func_801C3E10</title>
<ellipse fill="green" stroke="black" cx="444.64" cy="-198" rx="103.98" ry="18"/>
<text text-anchor="middle" x="444.64" y="-194.3" font-family="Times,serif" font-size="14.00">no3.func_801C3E10</text>
</g>
<!-- no3.func_801C37D4 -->
<g id="node2" class="node">
<title>no3.func_801C37D4</title>
<g id="a_node2"><a xlink:href="no3.func_801C37D4.svg" xlink:title="no3.func_801C37D4">
<ellipse fill="green" stroke="black" cx="104.64" cy="-18" rx="104.78" ry="18"/>
<text text-anchor="middle" x="104.64" y="-14.3" font-family="Times,serif" font-size="14.00">no3.func_801C37D4</text>
</a>
</g>
</g>
<!-- no3.func_801C3E10&#45;&gt;no3.func_801C37D4 -->
<g id="edge1" class="edge">
<title>no3.func_801C3E10&#45;&gt;no3.func_801C37D4</title>
<path fill="none" stroke="black" d="M413.57,-180.73C351.88,-148.44 214,-76.25 145.24,-40.25"/>
<polygon fill="black" stroke="black" points="146.49,-36.96 136.01,-35.42 143.25,-43.16 146.49,-36.96"/>
<text text-anchor="middle" x="131.01" y="-39.22" font-family="Times,serif" font-size="14.00">1</text>
</g>
<!-- no3.func_801C38D0 -->
<g id="node3" class="node">
<title>no3.func_801C38D0</title>
<g id="a_node3"><a xlink:href="no3.func_801C38D0.svg" xlink:title="no3.func_801C38D0">
<ellipse fill="green" stroke="black" cx="331.64" cy="-18" rx="104.78" ry="18"/>
<text text-anchor="middle" x="331.64" y="-14.3" font-family="Times,serif" font-size="14.00">no3.func_801C38D0</text>
</a>
</g>
</g>
<!-- no3.func_801C3E10&#45;&gt;no3.func_801C38D0 -->
<g id="edge2" class="edge">
<title>no3.func_801C3E10&#45;&gt;no3.func_801C38D0</title>
<path fill="none" stroke="black" d="M433.81,-179.93C413.89,-148.57 371.38,-81.6 347.96,-44.71"/>
<polygon fill="black" stroke="black" points="350.76,-42.58 342.44,-36.02 344.85,-46.33 350.76,-42.58"/>
<text text-anchor="middle" x="337.44" y="-39.82" font-family="Times,serif" font-size="14.00">1</text>
</g>
<!-- no3.func_801C3A88 -->
<g id="node4" class="node">
<title>no3.func_801C3A88</title>
<g id="a_node4"><a xlink:href="no3.func_801C3A88.svg" xlink:title="no3.func_801C3A88">
<ellipse fill="green" stroke="black" cx="557.64" cy="-18" rx="103.18" ry="18"/>
<text text-anchor="middle" x="557.64" y="-14.3" font-family="Times,serif" font-size="14.00">no3.func_801C3A88</text>
</a>
</g>
</g>
<!-- no3.func_801C3E10&#45;&gt;no3.func_801C3A88 -->
<g id="edge3" class="edge">
<title>no3.func_801C3E10&#45;&gt;no3.func_801C3A88</title>
<path fill="none" stroke="black" d="M455.48,-179.93C475.39,-148.57 517.9,-81.6 541.32,-44.71"/>
<polygon fill="black" stroke="black" points="544.43,-46.33 546.84,-36.02 538.52,-42.58 544.43,-46.33"/>
<text text-anchor="middle" x="541.84" y="-39.82" font-family="Times,serif" font-size="14.00">1</text>
</g>
<!-- no3.func_801C3B84 -->
<g id="node5" class="node">
<title>no3.func_801C3B84</title>
<g id="a_node5"><a xlink:href="no3.func_801C3B84.svg" xlink:title="no3.func_801C3B84">
<ellipse fill="green" stroke="black" cx="782.64" cy="-18" rx="103.98" ry="18"/>
<text text-anchor="middle" x="782.64" y="-14.3" font-family="Times,serif" font-size="14.00">no3.func_801C3B84</text>
</a>
</g>
</g>
<!-- no3.func_801C3E10&#45;&gt;no3.func_801C3B84 -->
<g id="edge4" class="edge">
<title>no3.func_801C3E10&#45;&gt;no3.func_801C3B84</title>
<path fill="none" stroke="black" d="M475.53,-180.73C536.86,-148.44 673.93,-76.25 742.28,-40.25"/>
<polygon fill="black" stroke="black" points="744.24,-43.18 751.45,-35.42 740.98,-36.99 744.24,-43.18"/>
<text text-anchor="middle" x="746.45" y="-39.22" font-family="Times,serif" font-size="14.00">1</text>
</g>
</g>
</svg>
