<?xml version="1.0" encoding="UTF-8" standalone="no"?>
<!DOCTYPE svg PUBLIC "-//W3C//DTD SVG 1.1//EN"
 "http://www.w3.org/Graphics/SVG/1.1/DTD/svg11.dtd">
<!-- Generated by graphviz version 2.43.0 (0)
 -->
<!-- Title: no3.EntityUnkId14Spawner Pages: 1 -->
<svg width="1010pt" height="404pt"
 viewBox="0.00 0.00 1009.73 404.00" xmlns="http://www.w3.org/2000/svg" xmlns:xlink="http://www.w3.org/1999/xlink">
<g id="graph0" class="graph" transform="scale(1 1) rotate(0) translate(4 400)">
<title>no3.EntityUnkId14Spawner</title>
<polygon fill="white" stroke="transparent" points="-4,4 -4,-400 1005.73,-400 1005.73,4 -4,4"/>
<!-- no3.EntityUnkId14Spawner -->
<g id="node1" class="node">
<title>no3.EntityUnkId14Spawner</title>
<ellipse fill="green" stroke="black" cx="498.04" cy="-198" rx="140.28" ry="18"/>
<text text-anchor="middle" x="498.04" y="-194.3" font-family="Times,serif" font-size="14.00">no3.EntityUnkId14Spawner</text>
</g>
<!-- no3.AllocEntity -->
<g id="node2" class="node">
<title>no3.AllocEntity</title>
<g id="a_node2"><a xlink:href="no3.AllocEntity.svg" xlink:title="no3.AllocEntity">
<ellipse fill="green" stroke="black" cx="498.04" cy="-18" rx="81.79" ry="18"/>
<text text-anchor="middle" x="498.04" y="-14.3" font-family="Times,serif" font-size="14.00">no3.AllocEntity</text>
</a>
</g>
</g>
<!-- no3.EntityUnkId14Spawner&#45;&gt;no3.AllocEntity -->
<g id="edge1" class="edge">
<title>no3.EntityUnkId14Spawner&#45;&gt;no3.AllocEntity</title>
<path fill="none" stroke="black" d="M498.04,-179.93C498.04,-148.97 498.04,-83.3 498.04,-46.13"/>
<polygon fill="black" stroke="black" points="501.54,-46.02 498.04,-36.02 494.54,-46.02 501.54,-46.02"/>
<text text-anchor="middle" x="493.04" y="-39.82" font-family="Times,serif" font-size="14.00">1</text>
</g>
<!-- no3..L801CFE00 -->
<g id="node3" class="node">
<title>no3..L801CFE00</title>
<g id="a_node3"><a xlink:href="no3..L801CFE00.svg" xlink:title="no3..L801CFE00">
<ellipse fill="green" stroke="black" cx="89.04" cy="-378" rx="89.08" ry="18"/>
<text text-anchor="middle" x="89.04" y="-374.3" font-family="Times,serif" font-size="14.00">no3..L801CFE00</text>
</a>
</g>
</g>
<!-- no3..L801CFE00&#45;&gt;no3.EntityUnkId14Spawner -->
<g id="edge2" class="edge">
<title>no3..L801CFE00&#45;&gt;no3.EntityUnkId14Spawner</title>
<path fill="none" stroke="black" d="M124.98,-361.36C198.95,-329.17 368.2,-255.51 450.87,-219.53"/>
<polygon fill="black" stroke="black" points="452.49,-222.64 460.27,-215.44 449.7,-216.22 452.49,-222.64"/>
<text text-anchor="middle" x="119.98" y="-350.16" font-family="Times,serif" font-size="14.00">3</text>
</g>
<!-- no3.EntityCastleDoorTransition -->
<g id="node4" class="node">
<title>no3.EntityCastleDoorTransition</title>
<g id="a_node4"><a xlink:href="no3.EntityCastleDoorTransition.svg" xlink:title="no3.EntityCastleDoorTransition">
<ellipse fill="green" stroke="black" cx="355.04" cy="-378" rx="158.67" ry="18"/>
<text text-anchor="middle" x="355.04" y="-374.3" font-family="Times,serif" font-size="14.00">no3.EntityCastleDoorTransition</text>
</a>
</g>
</g>
<!-- no3.EntityCastleDoorTransition&#45;&gt;no3.EntityUnkId14Spawner -->
<g id="edge3" class="edge">
<title>no3.EntityCastleDoorTransition&#45;&gt;no3.EntityUnkId14Spawner</title>
<path fill="none" stroke="black" d="M368.75,-359.93C394.06,-328.43 448.21,-261.03 477.76,-224.24"/>
<polygon fill="black" stroke="black" points="480.84,-226 484.37,-216.02 475.38,-221.62 480.84,-226"/>
<text text-anchor="middle" x="363.75" y="-348.73" font-family="Times,serif" font-size="14.00">1</text>
</g>
<!-- no3.EntityOlroxDrool -->
<g id="node5" class="node">
<title>no3.EntityOlroxDrool</title>
<g id="a_node5"><a xlink:href="no3.EntityOlroxDrool.svg" xlink:title="no3.EntityOlroxDrool">
<ellipse fill="green" stroke="black" cx="642.04" cy="-378" rx="110.48" ry="18"/>
<text text-anchor="middle" x="642.04" y="-374.3" font-family="Times,serif" font-size="14.00">no3.EntityOlroxDrool</text>
</a>
</g>
</g>
<!-- no3.EntityOlroxDrool&#45;&gt;no3.EntityUnkId14Spawner -->
<g id="edge4" class="edge">
<title>no3.EntityOlroxDrool&#45;&gt;no3.EntityUnkId14Spawner</title>
<path fill="none" stroke="black" d="M628.23,-359.93C602.75,-328.43 548.23,-261.03 518.46,-224.24"/>
<polygon fill="black" stroke="black" points="520.82,-221.59 511.81,-216.02 515.38,-225.99 520.82,-221.59"/>
<text text-anchor="middle" x="623.23" y="-348.73" font-family="Times,serif" font-size="14.00">1</text>
</g>
<!-- no3.EntityStrongWarg -->
<g id="node6" class="node">
<title>no3.EntityStrongWarg</title>
<g id="a_node6"><a xlink:href="no3.EntityStrongWarg.svg" xlink:title="no3.EntityStrongWarg">
<ellipse fill="red" stroke="black" cx="886.04" cy="-378" rx="115.88" ry="18"/>
<text text-anchor="middle" x="886.04" y="-374.3" font-family="Times,serif" font-size="14.00">no3.EntityStrongWarg</text>
</a>
</g>
</g>
<!-- no3.EntityStrongWarg&#45;&gt;no3.EntityUnkId14Spawner -->
<g id="edge5" class="edge">
<title>no3.EntityStrongWarg&#45;&gt;no3.EntityUnkId14Spawner</title>
<path fill="none" stroke="black" d="M850.58,-360.73C779.75,-328.24 620.9,-255.36 542.94,-219.6"/>
<polygon fill="black" stroke="black" points="544.39,-216.41 533.84,-215.42 541.47,-222.77 544.39,-216.41"/>
<text text-anchor="middle" x="841.08" y="-349.53" font-family="Times,serif" font-size="14.00">12</text>
</g>
</g>
</svg>
