<?xml version="1.0" encoding="UTF-8" standalone="no"?>
<!DOCTYPE svg PUBLIC "-//W3C//DTD SVG 1.1//EN"
 "http://www.w3.org/Graphics/SVG/1.1/DTD/svg11.dtd">
<!-- Generated by graphviz version 2.43.0 (0)
 -->
<!-- Title: no3.FallEntity Pages: 1 -->
<svg width="1781pt" height="224pt"
 viewBox="0.00 0.00 1781.18 224.00" xmlns="http://www.w3.org/2000/svg" xmlns:xlink="http://www.w3.org/1999/xlink">
<g id="graph0" class="graph" transform="scale(1 1) rotate(0) translate(4 220)">
<title>no3.FallEntity</title>
<polygon fill="white" stroke="transparent" points="-4,4 -4,-220 1777.18,-220 1777.18,4 -4,4"/>
<!-- no3.FallEntity -->
<g id="node1" class="node">
<title>no3.FallEntity</title>
<ellipse fill="green" stroke="black" cx="937.89" cy="-18" rx="76.89" ry="18"/>
<text text-anchor="middle" x="937.89" y="-14.3" font-family="Times,serif" font-size="14.00">no3.FallEntity</text>
</g>
<!-- no3.EntityBoneScimitarParts -->
<g id="node2" class="node">
<title>no3.EntityBoneScimitarParts</title>
<g id="a_node2"><a xlink:href="no3.EntityBoneScimitarParts.svg" xlink:title="no3.EntityBoneScimitarParts">
<ellipse fill="green" stroke="black" cx="146.89" cy="-198" rx="146.77" ry="18"/>
<text text-anchor="middle" x="146.89" y="-194.3" font-family="Times,serif" font-size="14.00">no3.EntityBoneScimitarParts</text>
</a>
</g>
</g>
<!-- no3.EntityBoneScimitarParts&#45;&gt;no3.FallEntity -->
<g id="edge1" class="edge">
<title>no3.EntityBoneScimitarParts&#45;&gt;no3.FallEntity</title>
<path fill="none" stroke="black" d="M213.99,-181.9C364.68,-147.99 728.22,-66.18 874.93,-33.17"/>
<polygon fill="black" stroke="black" points="875.7,-36.58 884.69,-30.97 874.17,-29.75 875.7,-36.58"/>
<text text-anchor="middle" x="208.99" y="-170.7" font-family="Times,serif" font-size="14.00">1</text>
</g>
<!-- no3.EntityEquipItemDrop -->
<g id="node3" class="node">
<title>no3.EntityEquipItemDrop</title>
<g id="a_node3"><a xlink:href="no3.EntityEquipItemDrop.svg" xlink:title="no3.EntityEquipItemDrop">
<ellipse fill="green" stroke="black" cx="442.89" cy="-198" rx="131.08" ry="18"/>
<text text-anchor="middle" x="442.89" y="-194.3" font-family="Times,serif" font-size="14.00">no3.EntityEquipItemDrop</text>
</a>
</g>
</g>
<!-- no3.EntityEquipItemDrop&#45;&gt;no3.FallEntity -->
<g id="edge2" class="edge">
<title>no3.EntityEquipItemDrop&#45;&gt;no3.FallEntity</title>
<path fill="none" stroke="black" d="M487.25,-181.05C579.48,-147.88 791.35,-71.69 888.08,-36.91"/>
<polygon fill="black" stroke="black" points="889.41,-40.15 897.63,-33.48 887.04,-33.57 889.41,-40.15"/>
<text text-anchor="middle" x="482.25" y="-169.85" font-family="Times,serif" font-size="14.00">1</text>
</g>
<!-- no3.EntityExplosion3 -->
<g id="node4" class="node">
<title>no3.EntityExplosion3</title>
<g id="a_node4"><a xlink:href="no3.EntityExplosion3.svg" xlink:title="no3.EntityExplosion3">
<ellipse fill="green" stroke="black" cx="702.89" cy="-198" rx="110.48" ry="18"/>
<text text-anchor="middle" x="702.89" y="-194.3" font-family="Times,serif" font-size="14.00">no3.EntityExplosion3</text>
</a>
</g>
</g>
<!-- no3.EntityExplosion3&#45;&gt;no3.FallEntity -->
<g id="edge3" class="edge">
<title>no3.EntityExplosion3&#45;&gt;no3.FallEntity</title>
<path fill="none" stroke="black" d="M725,-180.25C767.46,-148.09 860.47,-77.64 908.25,-41.45"/>
<polygon fill="black" stroke="black" points="910.49,-44.14 916.35,-35.31 906.26,-38.56 910.49,-44.14"/>
<text text-anchor="middle" x="720" y="-169.05" font-family="Times,serif" font-size="14.00">1</text>
</g>
<!-- no3.EntityPrizeDrop -->
<g id="node5" class="node">
<title>no3.EntityPrizeDrop</title>
<g id="a_node5"><a xlink:href="no3.EntityPrizeDrop.svg" xlink:title="no3.EntityPrizeDrop">
<ellipse fill="green" stroke="black" cx="937.89" cy="-198" rx="106.68" ry="18"/>
<text text-anchor="middle" x="937.89" y="-194.3" font-family="Times,serif" font-size="14.00">no3.EntityPrizeDrop</text>
</a>
</g>
</g>
<!-- no3.EntityPrizeDrop&#45;&gt;no3.FallEntity -->
<g id="edge4" class="edge">
<title>no3.EntityPrizeDrop&#45;&gt;no3.FallEntity</title>
<path fill="none" stroke="black" d="M937.89,-179.93C937.89,-148.97 937.89,-83.3 937.89,-46.13"/>
<polygon fill="black" stroke="black" points="941.39,-46.02 937.89,-36.02 934.39,-46.02 941.39,-46.02"/>
<text text-anchor="middle" x="932.89" y="-168.73" font-family="Times,serif" font-size="14.00">2</text>
</g>
<!-- no3.PrizeDropFall2 -->
<g id="node6" class="node">
<title>no3.PrizeDropFall2</title>
<g id="a_node6"><a xlink:href="no3.PrizeDropFall2.svg" xlink:title="no3.PrizeDropFall2">
<ellipse fill="green" stroke="black" cx="1162.89" cy="-198" rx="100.98" ry="18"/>
<text text-anchor="middle" x="1162.89" y="-194.3" font-family="Times,serif" font-size="14.00">no3.PrizeDropFall2</text>
</a>
</g>
</g>
<!-- no3.PrizeDropFall2&#45;&gt;no3.FallEntity -->
<g id="edge5" class="edge">
<title>no3.PrizeDropFall2&#45;&gt;no3.FallEntity</title>
<path fill="none" stroke="black" d="M1141.72,-180.25C1101.25,-148.24 1012.83,-78.29 966.9,-41.95"/>
<polygon fill="black" stroke="black" points="968.85,-39.03 958.83,-35.57 964.51,-44.52 968.85,-39.03"/>
<text text-anchor="middle" x="1136.72" y="-169.05" font-family="Times,serif" font-size="14.00">1</text>
</g>
<!-- no3.UnkCollisionFunc3 -->
<g id="node7" class="node">
<title>no3.UnkCollisionFunc3</title>
<g id="a_node7"><a xlink:href="no3.UnkCollisionFunc3.svg" xlink:title="no3.UnkCollisionFunc3">
<ellipse fill="green" stroke="black" cx="1399.89" cy="-198" rx="118.08" ry="18"/>
<text text-anchor="middle" x="1399.89" y="-194.3" font-family="Times,serif" font-size="14.00">no3.UnkCollisionFunc3</text>
</a>
</g>
</g>
<!-- no3.UnkCollisionFunc3&#45;&gt;no3.FallEntity -->
<g id="edge6" class="edge">
<title>no3.UnkCollisionFunc3&#45;&gt;no3.FallEntity</title>
<path fill="none" stroke="black" d="M1358.48,-181.05C1272.79,-148.03 1076.43,-72.38 985.6,-37.38"/>
<polygon fill="black" stroke="black" points="986.69,-34.05 976.1,-33.72 984.17,-40.58 986.69,-34.05"/>
<text text-anchor="middle" x="1353.48" y="-169.85" font-family="Times,serif" font-size="14.00">1</text>
</g>
<!-- no3.UnkCollisionFunc5 -->
<g id="node8" class="node">
<title>no3.UnkCollisionFunc5</title>
<g id="a_node8"><a xlink:href="no3.UnkCollisionFunc5.svg" xlink:title="no3.UnkCollisionFunc5">
<ellipse fill="green" stroke="black" cx="1654.89" cy="-198" rx="118.08" ry="18"/>
<text text-anchor="middle" x="1654.89" y="-194.3" font-family="Times,serif" font-size="14.00">no3.UnkCollisionFunc5</text>
</a>
</g>
</g>
<!-- no3.UnkCollisionFunc5&#45;&gt;no3.FallEntity -->
<g id="edge7" class="edge">
<title>no3.UnkCollisionFunc5&#45;&gt;no3.FallEntity</title>
<path fill="none" stroke="black" d="M1595.91,-182.36C1461.59,-149.01 1134.08,-67.71 998.35,-34.01"/>
<polygon fill="black" stroke="black" points="999.08,-30.59 988.53,-31.57 997.39,-37.38 999.08,-30.59"/>
<text text-anchor="middle" x="1590.91" y="-171.16" font-family="Times,serif" font-size="14.00">1</text>
</g>
</g>
</svg>
