<?xml version="1.0" encoding="UTF-8" standalone="no"?>
<!DOCTYPE svg PUBLIC "-//W3C//DTD SVG 1.1//EN"
 "http://www.w3.org/Graphics/SVG/1.1/DTD/svg11.dtd">
<!-- Generated by graphviz version 2.43.0 (0)
 -->
<!-- Title: no3.UnkCollisionFunc2 Pages: 1 -->
<svg width="2792pt" height="404pt"
 viewBox="0.00 0.00 2792.28 404.00" xmlns="http://www.w3.org/2000/svg" xmlns:xlink="http://www.w3.org/1999/xlink">
<g id="graph0" class="graph" transform="scale(1 1) rotate(0) translate(4 400)">
<title>no3.UnkCollisionFunc2</title>
<polygon fill="white" stroke="transparent" points="-4,4 -4,-400 2788.28,-400 2788.28,4 -4,4"/>
<!-- no3.UnkCollisionFunc2 -->
<g id="node1" class="node">
<title>no3.UnkCollisionFunc2</title>
<ellipse fill="green" stroke="black" cx="1267.04" cy="-198" rx="118.08" ry="18"/>
<text text-anchor="middle" x="1267.04" y="-194.3" font-family="Times,serif" font-size="14.00">no3.UnkCollisionFunc2</text>
</g>
<!-- dra.CheckCollision -->
<g id="node2" class="node">
<title>dra.CheckCollision</title>
<g id="a_node2"><a xlink:href="dra.CheckCollision.svg" xlink:title="dra.CheckCollision">
<ellipse fill="green" stroke="black" cx="1156.04" cy="-18" rx="97.48" ry="18"/>
<text text-anchor="middle" x="1156.04" y="-14.3" font-family="Times,serif" font-size="14.00">dra.CheckCollision</text>
</a>
</g>
</g>
<!-- no3.UnkCollisionFunc2&#45;&gt;dra.CheckCollision -->
<g id="edge1" class="edge">
<title>no3.UnkCollisionFunc2&#45;&gt;dra.CheckCollision</title>
<path fill="none" stroke="black" d="M1256.4,-179.93C1236.84,-148.57 1195.08,-81.6 1172.07,-44.71"/>
<polygon fill="black" stroke="black" points="1174.91,-42.65 1166.65,-36.02 1168.97,-46.35 1174.91,-42.65"/>
<text text-anchor="middle" x="1161.65" y="-39.82" font-family="Times,serif" font-size="14.00">1</text>
</g>
<!-- g_api_CheckCollision -->
<g id="node3" class="node">
<title>g_api_CheckCollision</title>
<g id="a_node3"><a xlink:href="g_api_CheckCollision.svg" xlink:title="g_api_CheckCollision">
<ellipse fill="lightblue" stroke="black" cx="1379.04" cy="-18" rx="107.78" ry="18"/>
<text text-anchor="middle" x="1379.04" y="-14.3" font-family="Times,serif" font-size="14.00">g_api_CheckCollision</text>
</a>
</g>
</g>
<!-- no3.UnkCollisionFunc2&#45;&gt;g_api_CheckCollision -->
<g id="edge2" class="edge">
<title>no3.UnkCollisionFunc2&#45;&gt;g_api_CheckCollision</title>
<path fill="none" stroke="black" d="M1277.78,-179.93C1297.52,-148.57 1339.65,-81.6 1362.87,-44.71"/>
<polygon fill="black" stroke="black" points="1365.97,-46.34 1368.34,-36.02 1360.05,-42.62 1365.97,-46.34"/>
<text text-anchor="middle" x="1363.34" y="-39.82" font-family="Times,serif" font-size="14.00">2</text>
</g>
<!-- no3..L801CCC94 -->
<g id="node4" class="node">
<title>no3..L801CCC94</title>
<g id="a_node4"><a xlink:href="no3..L801CCC94.svg" xlink:title="no3..L801CCC94">
<ellipse fill="green" stroke="black" cx="89.04" cy="-378" rx="89.08" ry="18"/>
<text text-anchor="middle" x="89.04" y="-374.3" font-family="Times,serif" font-size="14.00">no3..L801CCC94</text>
</a>
</g>
</g>
<!-- no3..L801CCC94&#45;&gt;no3.UnkCollisionFunc2 -->
<g id="edge3" class="edge">
<title>no3..L801CCC94&#45;&gt;no3.UnkCollisionFunc2</title>
<path fill="none" stroke="black" d="M153.58,-365.58C164.73,-363.67 176.22,-361.75 187.04,-360 551.14,-301.29 985.57,-238.83 1173.16,-212.23"/>
<polygon fill="black" stroke="black" points="1173.85,-215.67 1183.26,-210.8 1172.87,-208.74 1173.85,-215.67"/>
<text text-anchor="middle" x="148.58" y="-354.38" font-family="Times,serif" font-size="14.00">1</text>
</g>
<!-- no3..L801CCF30 -->
<g id="node5" class="node">
<title>no3..L801CCF30</title>
<g id="a_node5"><a xlink:href="no3..L801CCF30.svg" xlink:title="no3..L801CCF30">
<ellipse fill="green" stroke="black" cx="285.04" cy="-378" rx="89.08" ry="18"/>
<text text-anchor="middle" x="285.04" y="-374.3" font-family="Times,serif" font-size="14.00">no3..L801CCF30</text>
</a>
</g>
</g>
<!-- no3..L801CCF30&#45;&gt;no3.UnkCollisionFunc2 -->
<g id="edge4" class="edge">
<title>no3..L801CCF30&#45;&gt;no3.UnkCollisionFunc2</title>
<path fill="none" stroke="black" d="M349.1,-365.39C520.94,-334.24 992.11,-248.83 1184.04,-214.05"/>
<polygon fill="black" stroke="black" points="1184.85,-217.45 1194.07,-212.23 1183.6,-210.57 1184.85,-217.45"/>
<text text-anchor="middle" x="344.1" y="-354.19" font-family="Times,serif" font-size="14.00">1</text>
</g>
<!-- no3..L801CD2E8 -->
<g id="node6" class="node">
<title>no3..L801CD2E8</title>
<g id="a_node6"><a xlink:href="no3..L801CD2E8.svg" xlink:title="no3..L801CD2E8">
<ellipse fill="green" stroke="black" cx="482.04" cy="-378" rx="89.88" ry="18"/>
<text text-anchor="middle" x="482.04" y="-374.3" font-family="Times,serif" font-size="14.00">no3..L801CD2E8</text>
</a>
</g>
</g>
<!-- no3..L801CD2E8&#45;&gt;no3.UnkCollisionFunc2 -->
<g id="edge5" class="edge">
<title>no3..L801CD2E8&#45;&gt;no3.UnkCollisionFunc2</title>
<path fill="none" stroke="black" d="M539.13,-364.06C679.04,-332.33 1038.87,-250.74 1194.03,-215.55"/>
<polygon fill="black" stroke="black" points="1194.98,-218.93 1203.95,-213.31 1193.43,-212.1 1194.98,-218.93"/>
<text text-anchor="middle" x="534.13" y="-352.86" font-family="Times,serif" font-size="14.00">1</text>
</g>
<!-- no3..L801CD534 -->
<g id="node7" class="node">
<title>no3..L801CD534</title>
<g id="a_node7"><a xlink:href="no3..L801CD534.svg" xlink:title="no3..L801CD534">
<ellipse fill="green" stroke="black" cx="679.04" cy="-378" rx="89.08" ry="18"/>
<text text-anchor="middle" x="679.04" y="-374.3" font-family="Times,serif" font-size="14.00">no3..L801CD534</text>
</a>
</g>
</g>
<!-- no3..L801CD534&#45;&gt;no3.UnkCollisionFunc2 -->
<g id="edge6" class="edge">
<title>no3..L801CD534&#45;&gt;no3.UnkCollisionFunc2</title>
<path fill="none" stroke="black" d="M726.66,-362.58C832.93,-330.42 1089.26,-252.82 1206.58,-217.3"/>
<polygon fill="black" stroke="black" points="1207.92,-220.55 1216.48,-214.31 1205.9,-213.85 1207.92,-220.55"/>
<text text-anchor="middle" x="721.66" y="-351.38" font-family="Times,serif" font-size="14.00">1</text>
</g>
<!-- no3..L801CD880 -->
<g id="node8" class="node">
<title>no3..L801CD880</title>
<g id="a_node8"><a xlink:href="no3..L801CD880.svg" xlink:title="no3..L801CD880">
<ellipse fill="green" stroke="black" cx="875.04" cy="-378" rx="89.08" ry="18"/>
<text text-anchor="middle" x="875.04" y="-374.3" font-family="Times,serif" font-size="14.00">no3..L801CD880</text>
</a>
</g>
</g>
<!-- no3..L801CD880&#45;&gt;no3.UnkCollisionFunc2 -->
<g id="edge7" class="edge">
<title>no3..L801CD880&#45;&gt;no3.UnkCollisionFunc2</title>
<path fill="none" stroke="black" d="M909.49,-361.36C980.49,-329.12 1143.09,-255.28 1222.19,-219.37"/>
<polygon fill="black" stroke="black" points="1223.75,-222.5 1231.41,-215.18 1220.85,-216.13 1223.75,-222.5"/>
<text text-anchor="middle" x="904.49" y="-350.16" font-family="Times,serif" font-size="14.00">1</text>
</g>
<!-- no3..L801CF9B8 -->
<g id="node9" class="node">
<title>no3..L801CF9B8</title>
<g id="a_node9"><a xlink:href="no3..L801CF9B8.svg" xlink:title="no3..L801CF9B8">
<ellipse fill="green" stroke="black" cx="1071.04" cy="-378" rx="89.08" ry="18"/>
<text text-anchor="middle" x="1071.04" y="-374.3" font-family="Times,serif" font-size="14.00">no3..L801CF9B8</text>
</a>
</g>
</g>
<!-- no3..L801CF9B8&#45;&gt;no3.UnkCollisionFunc2 -->
<g id="edge8" class="edge">
<title>no3..L801CF9B8&#45;&gt;no3.UnkCollisionFunc2</title>
<path fill="none" stroke="black" d="M1089.48,-360.25C1124.5,-328.45 1200.73,-259.22 1240.96,-222.68"/>
<polygon fill="black" stroke="black" points="1243.46,-225.14 1248.51,-215.83 1238.75,-219.96 1243.46,-225.14"/>
<text text-anchor="middle" x="1084.48" y="-349.05" font-family="Times,serif" font-size="14.00">1</text>
</g>
<!-- no3..L801CFC38 -->
<g id="node10" class="node">
<title>no3..L801CFC38</title>
<g id="a_node10"><a xlink:href="no3..L801CFC38.svg" xlink:title="no3..L801CFC38">
<ellipse fill="green" stroke="black" cx="1267.04" cy="-378" rx="89.08" ry="18"/>
<text text-anchor="middle" x="1267.04" y="-374.3" font-family="Times,serif" font-size="14.00">no3..L801CFC38</text>
</a>
</g>
</g>
<!-- no3..L801CFC38&#45;&gt;no3.UnkCollisionFunc2 -->
<g id="edge9" class="edge">
<title>no3..L801CFC38&#45;&gt;no3.UnkCollisionFunc2</title>
<path fill="none" stroke="black" d="M1267.04,-359.93C1267.04,-328.97 1267.04,-263.3 1267.04,-226.13"/>
<polygon fill="black" stroke="black" points="1270.54,-226.02 1267.04,-216.02 1263.54,-226.02 1270.54,-226.02"/>
<text text-anchor="middle" x="1262.04" y="-348.73" font-family="Times,serif" font-size="14.00">1</text>
</g>
<!-- no3..L801CFE00 -->
<g id="node11" class="node">
<title>no3..L801CFE00</title>
<g id="a_node11"><a xlink:href="no3..L801CFE00.svg" xlink:title="no3..L801CFE00">
<ellipse fill="green" stroke="black" cx="1463.04" cy="-378" rx="89.08" ry="18"/>
<text text-anchor="middle" x="1463.04" y="-374.3" font-family="Times,serif" font-size="14.00">no3..L801CFE00</text>
</a>
</g>
</g>
<!-- no3..L801CFE00&#45;&gt;no3.UnkCollisionFunc2 -->
<g id="edge10" class="edge">
<title>no3..L801CFE00&#45;&gt;no3.UnkCollisionFunc2</title>
<path fill="none" stroke="black" d="M1444.6,-360.25C1409.58,-328.45 1333.36,-259.22 1293.12,-222.68"/>
<polygon fill="black" stroke="black" points="1295.33,-219.96 1285.58,-215.83 1290.62,-225.14 1295.33,-219.96"/>
<text text-anchor="middle" x="1439.6" y="-349.05" font-family="Times,serif" font-size="14.00">1</text>
</g>
<!-- no3.BoneScimitarAttackCheck -->
<g id="node12" class="node">
<title>no3.BoneScimitarAttackCheck</title>
<g id="a_node12"><a xlink:href="no3.BoneScimitarAttackCheck.svg" xlink:title="no3.BoneScimitarAttackCheck">
<ellipse fill="green" stroke="black" cx="1721.04" cy="-378" rx="151.37" ry="18"/>
<text text-anchor="middle" x="1721.04" y="-374.3" font-family="Times,serif" font-size="14.00">no3.BoneScimitarAttackCheck</text>
</a>
</g>
</g>
<!-- no3.BoneScimitarAttackCheck&#45;&gt;no3.UnkCollisionFunc2 -->
<g id="edge11" class="edge">
<title>no3.BoneScimitarAttackCheck&#45;&gt;no3.UnkCollisionFunc2</title>
<path fill="none" stroke="black" d="M1679.14,-360.57C1595.38,-327.73 1407.56,-254.09 1317.32,-218.71"/>
<polygon fill="black" stroke="black" points="1318.44,-215.39 1307.86,-215 1315.89,-221.91 1318.44,-215.39"/>
<text text-anchor="middle" x="1674.14" y="-349.37" font-family="Times,serif" font-size="14.00">1</text>
</g>
<!-- no3.EntityBoneScimitar -->
<g id="node13" class="node">
<title>no3.EntityBoneScimitar</title>
<g id="a_node13"><a xlink:href="no3.EntityBoneScimitar.svg" xlink:title="no3.EntityBoneScimitar">
<ellipse fill="green" stroke="black" cx="2013.04" cy="-378" rx="122.38" ry="18"/>
<text text-anchor="middle" x="2013.04" y="-374.3" font-family="Times,serif" font-size="14.00">no3.EntityBoneScimitar</text>
</a>
</g>
</g>
<!-- no3.EntityBoneScimitar&#45;&gt;no3.UnkCollisionFunc2 -->
<g id="edge12" class="edge">
<title>no3.EntityBoneScimitar&#45;&gt;no3.UnkCollisionFunc2</title>
<path fill="none" stroke="black" d="M1951.68,-362.36C1814.37,-329.6 1483.04,-250.54 1337.55,-215.82"/>
<polygon fill="black" stroke="black" points="1338.36,-212.42 1327.82,-213.5 1336.74,-219.23 1338.36,-212.42"/>
<text text-anchor="middle" x="1946.68" y="-351.16" font-family="Times,serif" font-size="14.00">1</text>
</g>
<!-- no3.EntityMerman -->
<g id="node14" class="node">
<title>no3.EntityMerman</title>
<g id="a_node14"><a xlink:href="no3.EntityMerman.svg" xlink:title="no3.EntityMerman">
<ellipse fill="green" stroke="black" cx="2252.04" cy="-378" rx="98.58" ry="18"/>
<text text-anchor="middle" x="2252.04" y="-374.3" font-family="Times,serif" font-size="14.00">no3.EntityMerman</text>
</a>
</g>
</g>
<!-- no3.EntityMerman&#45;&gt;no3.UnkCollisionFunc2 -->
<g id="edge13" class="edge">
<title>no3.EntityMerman&#45;&gt;no3.UnkCollisionFunc2</title>
<path fill="none" stroke="black" d="M2184.34,-364.77C2009.16,-333.11 1541.37,-248.57 1350.19,-214.03"/>
<polygon fill="black" stroke="black" points="1350.66,-210.55 1340.2,-212.22 1349.42,-217.44 1350.66,-210.55"/>
<text text-anchor="middle" x="2179.34" y="-353.57" font-family="Times,serif" font-size="14.00">1</text>
</g>
<!-- no3.EntityMerman2 -->
<g id="node15" class="node">
<title>no3.EntityMerman2</title>
<g id="a_node15"><a xlink:href="no3.EntityMerman2.svg" xlink:title="no3.EntityMerman2">
<ellipse fill="green" stroke="black" cx="2473.04" cy="-378" rx="104.78" ry="18"/>
<text text-anchor="middle" x="2473.04" y="-374.3" font-family="Times,serif" font-size="14.00">no3.EntityMerman2</text>
</a>
</g>
</g>
<!-- no3.EntityMerman2&#45;&gt;no3.UnkCollisionFunc2 -->
<g id="edge14" class="edge">
<title>no3.EntityMerman2&#45;&gt;no3.UnkCollisionFunc2</title>
<path fill="none" stroke="black" d="M2397.07,-365.54C2384.69,-363.68 2372.01,-361.78 2360.04,-360 1989.33,-304.81 1547.74,-240.07 1359.46,-212.51"/>
<polygon fill="black" stroke="black" points="1359.72,-209.02 1349.32,-211.03 1358.71,-215.94 1359.72,-209.02"/>
<text text-anchor="middle" x="2392.07" y="-354.34" font-family="Times,serif" font-size="14.00">1</text>
</g>
<!-- no3.EntityZombie -->
<g id="node16" class="node">
<title>no3.EntityZombie</title>
<g id="a_node16"><a xlink:href="no3.EntityZombie.svg" xlink:title="no3.EntityZombie">
<ellipse fill="green" stroke="black" cx="2690.04" cy="-378" rx="94.48" ry="18"/>
<text text-anchor="middle" x="2690.04" y="-374.3" font-family="Times,serif" font-size="14.00">no3.EntityZombie</text>
</a>
</g>
</g>
<!-- no3.EntityZombie&#45;&gt;no3.UnkCollisionFunc2 -->
<g id="edge15" class="edge">
<title>no3.EntityZombie&#45;&gt;no3.UnkCollisionFunc2</title>
<path fill="none" stroke="black" d="M2622.51,-365.44C2610.7,-363.53 2598.52,-361.65 2587.04,-360 2135.22,-295.19 1593.96,-234.46 1370.91,-210.16"/>
<polygon fill="black" stroke="black" points="1371.17,-206.67 1360.85,-209.06 1370.41,-213.63 1371.17,-206.67"/>
<text text-anchor="middle" x="2617.51" y="-354.24" font-family="Times,serif" font-size="14.00">1</text>
</g>
</g>
</svg>
