<?xml version="1.0" encoding="UTF-8" standalone="no"?>
<!DOCTYPE svg PUBLIC "-//W3C//DTD SVG 1.1//EN"
 "http://www.w3.org/Graphics/SVG/1.1/DTD/svg11.dtd">
<!-- Generated by graphviz version 2.43.0 (0)
 -->
<!-- Title: no3..L801CF930 Pages: 1 -->
<svg width="612pt" height="224pt"
 viewBox="0.00 0.00 612.43 224.00" xmlns="http://www.w3.org/2000/svg" xmlns:xlink="http://www.w3.org/1999/xlink">
<g id="graph0" class="graph" transform="scale(1 1) rotate(0) translate(4 220)">
<title>no3..L801CF930</title>
<polygon fill="white" stroke="transparent" points="-4,4 -4,-220 608.43,-220 608.43,4 -4,4"/>
<!-- no3..L801CF930 -->
<g id="node1" class="node">
<title>no3..L801CF930</title>
<ellipse fill="green" stroke="black" cx="282.14" cy="-198" rx="87.99" ry="18"/>
<text text-anchor="middle" x="282.14" y="-194.3" font-family="Times,serif" font-size="14.00">no3..L801CF930</text>
</g>
<!-- no3.AnimateEntity -->
<g id="node2" class="node">
<title>no3.AnimateEntity</title>
<g id="a_node2"><a xlink:href="no3.AnimateEntity.svg" xlink:title="no3.AnimateEntity">
<ellipse fill="green" stroke="black" cx="98.14" cy="-18" rx="98.28" ry="18"/>
<text text-anchor="middle" x="98.14" y="-14.3" font-family="Times,serif" font-size="14.00">no3.AnimateEntity</text>
</a>
</g>
</g>
<!-- no3..L801CF930&#45;&gt;no3.AnimateEntity -->
<g id="edge1" class="edge">
<title>no3..L801CF930&#45;&gt;no3.AnimateEntity</title>
<path fill="none" stroke="black" d="M264.83,-180.25C232.09,-148.58 160.99,-79.8 123.1,-43.14"/>
<polygon fill="black" stroke="black" points="125.16,-40.27 115.54,-35.83 120.29,-45.3 125.16,-40.27"/>
<text text-anchor="middle" x="110.54" y="-39.63" font-family="Times,serif" font-size="14.00">1</text>
</g>
<!-- no3.SetStep -->
<g id="node3" class="node">
<title>no3.SetStep</title>
<g id="a_node3"><a xlink:href="no3.SetStep.svg" xlink:title="no3.SetStep">
<ellipse fill="green" stroke="black" cx="282.14" cy="-18" rx="67.69" ry="18"/>
<text text-anchor="middle" x="282.14" y="-14.3" font-family="Times,serif" font-size="14.00">no3.SetStep</text>
</a>
</g>
</g>
<!-- no3..L801CF930&#45;&gt;no3.SetStep -->
<g id="edge2" class="edge">
<title>no3..L801CF930&#45;&gt;no3.SetStep</title>
<path fill="none" stroke="black" d="M282.14,-179.93C282.14,-148.97 282.14,-83.3 282.14,-46.13"/>
<polygon fill="black" stroke="black" points="285.64,-46.02 282.14,-36.02 278.64,-46.02 285.64,-46.02"/>
<text text-anchor="middle" x="277.14" y="-39.82" font-family="Times,serif" font-size="14.00">1</text>
</g>
<!-- no3.UnkCollisionFunc3 -->
<g id="node4" class="node">
<title>no3.UnkCollisionFunc3</title>
<g id="a_node4"><a xlink:href="no3.UnkCollisionFunc3.svg" xlink:title="no3.UnkCollisionFunc3">
<ellipse fill="green" stroke="black" cx="486.14" cy="-18" rx="118.08" ry="18"/>
<text text-anchor="middle" x="486.14" y="-14.3" font-family="Times,serif" font-size="14.00">no3.UnkCollisionFunc3</text>
</a>
</g>
</g>
<!-- no3..L801CF930&#45;&gt;no3.UnkCollisionFunc3 -->
<g id="edge3" class="edge">
<title>no3..L801CF930&#45;&gt;no3.UnkCollisionFunc3</title>
<path fill="none" stroke="black" d="M301.33,-180.25C337.86,-148.38 417.45,-78.94 459.26,-42.45"/>
<polygon fill="black" stroke="black" points="461.62,-45.04 466.85,-35.83 457.02,-39.77 461.62,-45.04"/>
<text text-anchor="middle" x="461.85" y="-39.63" font-family="Times,serif" font-size="14.00">1</text>
</g>
</g>
</svg>
