<?xml version="1.0" encoding="UTF-8" standalone="no"?>
<!DOCTYPE svg PUBLIC "-//W3C//DTD SVG 1.1//EN"
 "http://www.w3.org/Graphics/SVG/1.1/DTD/svg11.dtd">
<!-- Generated by graphviz version 2.43.0 (0)
 -->
<!-- Title: no3.UnkCollisionFunc3 Pages: 1 -->
<svg width="1336pt" height="404pt"
 viewBox="0.00 0.00 1336.43 404.00" xmlns="http://www.w3.org/2000/svg" xmlns:xlink="http://www.w3.org/1999/xlink">
<g id="graph0" class="graph" transform="scale(1 1) rotate(0) translate(4 400)">
<title>no3.UnkCollisionFunc3</title>
<polygon fill="white" stroke="transparent" points="-4,4 -4,-400 1332.43,-400 1332.43,4 -4,4"/>
<!-- no3.UnkCollisionFunc3 -->
<g id="node1" class="node">
<title>no3.UnkCollisionFunc3</title>
<ellipse fill="green" stroke="black" cx="701.19" cy="-198" rx="118.08" ry="18"/>
<text text-anchor="middle" x="701.19" y="-194.3" font-family="Times,serif" font-size="14.00">no3.UnkCollisionFunc3</text>
</g>
<!-- dra.CheckCollision -->
<g id="node2" class="node">
<title>dra.CheckCollision</title>
<g id="a_node2"><a xlink:href="dra.CheckCollision.svg" xlink:title="dra.CheckCollision">
<ellipse fill="green" stroke="black" cx="377.19" cy="-18" rx="97.48" ry="18"/>
<text text-anchor="middle" x="377.19" y="-14.3" font-family="Times,serif" font-size="14.00">dra.CheckCollision</text>
</a>
</g>
</g>
<!-- no3.UnkCollisionFunc3&#45;&gt;dra.CheckCollision -->
<g id="edge1" class="edge">
<title>no3.UnkCollisionFunc3&#45;&gt;dra.CheckCollision</title>
<path fill="none" stroke="black" d="M671.29,-180.57C612.34,-148.19 481.18,-76.13 415.79,-40.21"/>
<polygon fill="black" stroke="black" points="417.47,-37.13 407.02,-35.39 414.1,-43.27 417.47,-37.13"/>
<text text-anchor="middle" x="402.02" y="-39.19" font-family="Times,serif" font-size="14.00">1</text>
</g>
<!-- g_api_CheckCollision -->
<g id="node3" class="node">
<title>g_api_CheckCollision</title>
<g id="a_node3"><a xlink:href="g_api_CheckCollision.svg" xlink:title="g_api_CheckCollision">
<ellipse fill="lightblue" stroke="black" cx="600.19" cy="-18" rx="107.78" ry="18"/>
<text text-anchor="middle" x="600.19" y="-14.3" font-family="Times,serif" font-size="14.00">g_api_CheckCollision</text>
</a>
</g>
</g>
<!-- no3.UnkCollisionFunc3&#45;&gt;g_api_CheckCollision -->
<g id="edge2" class="edge">
<title>no3.UnkCollisionFunc3&#45;&gt;g_api_CheckCollision</title>
<path fill="none" stroke="black" d="M691.5,-179.93C673.78,-148.7 636.03,-82.17 615.04,-45.18"/>
<polygon fill="black" stroke="black" points="617.82,-42.99 609.84,-36.02 611.74,-46.44 617.82,-42.99"/>
<text text-anchor="middle" x="604.84" y="-39.82" font-family="Times,serif" font-size="14.00">2</text>
</g>
<!-- no3.FallEntity -->
<g id="node4" class="node">
<title>no3.FallEntity</title>
<g id="a_node4"><a xlink:href="no3.FallEntity.svg" xlink:title="no3.FallEntity">
<ellipse fill="green" stroke="black" cx="803.19" cy="-18" rx="76.89" ry="18"/>
<text text-anchor="middle" x="803.19" y="-14.3" font-family="Times,serif" font-size="14.00">no3.FallEntity</text>
</a>
</g>
</g>
<!-- no3.UnkCollisionFunc3&#45;&gt;no3.FallEntity -->
<g id="edge3" class="edge">
<title>no3.UnkCollisionFunc3&#45;&gt;no3.FallEntity</title>
<path fill="none" stroke="black" d="M710.97,-179.93C728.94,-148.57 767.32,-81.6 788.46,-44.71"/>
<polygon fill="black" stroke="black" points="791.5,-46.43 793.44,-36.02 785.43,-42.95 791.5,-46.43"/>
<text text-anchor="middle" x="788.44" y="-39.82" font-family="Times,serif" font-size="14.00">1</text>
</g>
<!-- no3.MoveEntity -->
<g id="node5" class="node">
<title>no3.MoveEntity</title>
<g id="a_node5"><a xlink:href="no3.MoveEntity.svg" xlink:title="no3.MoveEntity">
<ellipse fill="green" stroke="black" cx="983.19" cy="-18" rx="85.29" ry="18"/>
<text text-anchor="middle" x="983.19" y="-14.3" font-family="Times,serif" font-size="14.00">no3.MoveEntity</text>
</a>
</g>
</g>
<!-- no3.UnkCollisionFunc3&#45;&gt;no3.MoveEntity -->
<g id="edge4" class="edge">
<title>no3.UnkCollisionFunc3&#45;&gt;no3.MoveEntity</title>
<path fill="none" stroke="black" d="M727.47,-180.41C778.6,-148.14 891.48,-76.89 948.61,-40.83"/>
<polygon fill="black" stroke="black" points="950.7,-43.65 957.29,-35.35 946.96,-37.73 950.7,-43.65"/>
<text text-anchor="middle" x="952.29" y="-39.15" font-family="Times,serif" font-size="14.00">1</text>
</g>
<!-- no3.EntityBoneScimitar -->
<g id="node6" class="node">
<title>no3.EntityBoneScimitar</title>
<g id="a_node6"><a xlink:href="no3.EntityBoneScimitar.svg" xlink:title="no3.EntityBoneScimitar">
<ellipse fill="red" stroke="black" cx="122.19" cy="-378" rx="122.38" ry="18"/>
<text text-anchor="middle" x="122.19" y="-374.3" font-family="Times,serif" font-size="14.00">no3.EntityBoneScimitar</text>
</a>
</g>
</g>
<!-- no3.EntityBoneScimitar&#45;&gt;no3.UnkCollisionFunc3 -->
<g id="edge5" class="edge">
<title>no3.EntityBoneScimitar&#45;&gt;no3.UnkCollisionFunc3</title>
<path fill="none" stroke="black" d="M172.56,-361.52C279.09,-328.76 526.84,-252.6 641.28,-217.42"/>
<polygon fill="black" stroke="black" points="642.41,-220.73 650.94,-214.45 640.35,-214.04 642.41,-220.73"/>
<text text-anchor="middle" x="167.56" y="-350.32" font-family="Times,serif" font-size="14.00">2</text>
</g>
<!-- no3.EntityMerman -->
<g id="node7" class="node">
<title>no3.EntityMerman</title>
<g id="a_node7"><a xlink:href="no3.EntityMerman.svg" xlink:title="no3.EntityMerman">
<ellipse fill="green" stroke="black" cx="361.19" cy="-378" rx="98.58" ry="18"/>
<text text-anchor="middle" x="361.19" y="-374.3" font-family="Times,serif" font-size="14.00">no3.EntityMerman</text>
</a>
</g>
</g>
<!-- no3.EntityMerman&#45;&gt;no3.UnkCollisionFunc3 -->
<g id="edge6" class="edge">
<title>no3.EntityMerman&#45;&gt;no3.UnkCollisionFunc3</title>
<path fill="none" stroke="black" d="M391.96,-360.89C453.47,-328.69 591.6,-256.37 660.5,-220.3"/>
<polygon fill="black" stroke="black" points="662.51,-223.2 669.75,-215.46 659.27,-217 662.51,-223.2"/>
<text text-anchor="middle" x="386.96" y="-349.69" font-family="Times,serif" font-size="14.00">4</text>
</g>
<!-- no3.EntityMerman2 -->
<g id="node8" class="node">
<title>no3.EntityMerman2</title>
<g id="a_node8"><a xlink:href="no3.EntityMerman2.svg" xlink:title="no3.EntityMerman2">
<ellipse fill="green" stroke="black" cx="582.19" cy="-378" rx="104.78" ry="18"/>
<text text-anchor="middle" x="582.19" y="-374.3" font-family="Times,serif" font-size="14.00">no3.EntityMerman2</text>
</a>
</g>
</g>
<!-- no3.EntityMerman2&#45;&gt;no3.UnkCollisionFunc3 -->
<g id="edge7" class="edge">
<title>no3.EntityMerman2&#45;&gt;no3.UnkCollisionFunc3</title>
<path fill="none" stroke="black" d="M593.6,-359.93C614.57,-328.57 659.34,-261.6 684,-224.71"/>
<polygon fill="black" stroke="black" points="687.17,-226.27 689.81,-216.02 681.35,-222.38 687.17,-226.27"/>
<text text-anchor="middle" x="588.6" y="-348.73" font-family="Times,serif" font-size="14.00">3</text>
</g>
<!-- no3.EntityStrongWarg -->
<g id="node9" class="node">
<title>no3.EntityStrongWarg</title>
<g id="a_node9"><a xlink:href="no3.EntityStrongWarg.svg" xlink:title="no3.EntityStrongWarg">
<ellipse fill="red" stroke="black" cx="820.19" cy="-378" rx="115.88" ry="18"/>
<text text-anchor="middle" x="820.19" y="-374.3" font-family="Times,serif" font-size="14.00">no3.EntityStrongWarg</text>
</a>
</g>
</g>
<!-- no3.EntityStrongWarg&#45;&gt;no3.UnkCollisionFunc3 -->
<g id="edge8" class="edge">
<title>no3.EntityStrongWarg&#45;&gt;no3.UnkCollisionFunc3</title>
<path fill="none" stroke="black" d="M808.78,-359.93C787.81,-328.57 743.04,-261.6 718.38,-224.71"/>
<polygon fill="black" stroke="black" points="721.03,-222.38 712.56,-216.02 715.21,-226.27 721.03,-222.38"/>
<text text-anchor="middle" x="803.78" y="-348.73" font-family="Times,serif" font-size="14.00">3</text>
</g>
<!-- no3.EntityWarg -->
<g id="node10" class="node">
<title>no3.EntityWarg</title>
<g id="a_node10"><a xlink:href="no3.EntityWarg.svg" xlink:title="no3.EntityWarg">
<ellipse fill="red" stroke="black" cx="1038.19" cy="-378" rx="83.69" ry="18"/>
<text text-anchor="middle" x="1038.19" y="-374.3" font-family="Times,serif" font-size="14.00">no3.EntityWarg</text>
</a>
</g>
</g>
<!-- no3.EntityWarg&#45;&gt;no3.UnkCollisionFunc3 -->
<g id="edge9" class="edge">
<title>no3.EntityWarg&#45;&gt;no3.UnkCollisionFunc3</title>
<path fill="none" stroke="black" d="M1007.99,-361.05C947.19,-328.94 810.04,-256.49 741.61,-220.35"/>
<polygon fill="black" stroke="black" points="742.9,-217.07 732.42,-215.5 739.63,-223.26 742.9,-217.07"/>
<text text-anchor="middle" x="1002.99" y="-349.85" font-family="Times,serif" font-size="14.00">2</text>
</g>
<!-- no3.EntityZombie -->
<g id="node11" class="node">
<title>no3.EntityZombie</title>
<g id="a_node11"><a xlink:href="no3.EntityZombie.svg" xlink:title="no3.EntityZombie">
<ellipse fill="green" stroke="black" cx="1234.19" cy="-378" rx="94.48" ry="18"/>
<text text-anchor="middle" x="1234.19" y="-374.3" font-family="Times,serif" font-size="14.00">no3.EntityZombie</text>
</a>
</g>
</g>
<!-- no3.EntityZombie&#45;&gt;no3.UnkCollisionFunc3 -->
<g id="edge10" class="edge">
<title>no3.EntityZombie&#45;&gt;no3.UnkCollisionFunc3</title>
<path fill="none" stroke="black" d="M1189.66,-362.13C1092.98,-329.84 863.98,-253.36 757.47,-217.8"/>
<polygon fill="black" stroke="black" points="758.45,-214.43 747.86,-214.59 756.24,-221.07 758.45,-214.43"/>
<text text-anchor="middle" x="1184.66" y="-350.93" font-family="Times,serif" font-size="14.00">1</text>
</g>
</g>
</svg>
