<?xml version="1.0" encoding="UTF-8" standalone="no"?>
<!DOCTYPE svg PUBLIC "-//W3C//DTD SVG 1.1//EN"
 "http://www.w3.org/Graphics/SVG/1.1/DTD/svg11.dtd">
<!-- Generated by graphviz version 2.43.0 (0)
 -->
<!-- Title: no3.NO3_EntityCutscene Pages: 1 -->
<svg width="3892pt" height="224pt"
 viewBox="0.00 0.00 3892.34 224.00" xmlns="http://www.w3.org/2000/svg" xmlns:xlink="http://www.w3.org/1999/xlink">
<g id="graph0" class="graph" transform="scale(1 1) rotate(0) translate(4 220)">
<title>no3.NO3_EntityCutscene</title>
<polygon fill="white" stroke="transparent" points="-4,4 -4,-220 3888.34,-220 3888.34,4 -4,4"/>
<!-- no3.NO3_EntityCutscene -->
<g id="node1" class="node">
<title>no3.NO3_EntityCutscene</title>
<ellipse fill="green" stroke="black" cx="1835.74" cy="-198" rx="128.08" ry="18"/>
<text text-anchor="middle" x="1835.74" y="-194.3" font-family="Times,serif" font-size="14.00">no3.NO3_EntityCutscene</text>
</g>
<!-- LoadTPage -->
<g id="node2" class="node">
<title>LoadTPage</title>
<g id="a_node2"><a xlink:href="LoadTPage.svg" xlink:title="LoadTPage">
<ellipse fill="lightblue" stroke="black" cx="61.74" cy="-18" rx="61.99" ry="18"/>
<text text-anchor="middle" x="61.74" y="-14.3" font-family="Times,serif" font-size="14.00">LoadTPage</text>
</a>
</g>
</g>
<!-- no3.NO3_EntityCutscene&#45;&gt;LoadTPage -->
<g id="edge1" class="edge">
<title>no3.NO3_EntityCutscene&#45;&gt;LoadTPage</title>
<path fill="none" stroke="black" d="M1716.28,-191.5C1437.39,-177.4 722.33,-133.95 132.74,-36 127.35,-35.1 121.76,-34.03 116.19,-32.86"/>
<polygon fill="black" stroke="black" points="116.76,-29.4 106.24,-30.67 115.25,-36.23 116.76,-29.4"/>
<text text-anchor="middle" x="101.24" y="-34.47" font-family="Times,serif" font-size="14.00">1</text>
</g>
<!-- MoveImage -->
<g id="node3" class="node">
<title>MoveImage</title>
<g id="a_node3"><a xlink:href="MoveImage.svg" xlink:title="MoveImage">
<ellipse fill="lightblue" stroke="black" cx="206.74" cy="-18" rx="64.99" ry="18"/>
<text text-anchor="middle" x="206.74" y="-14.3" font-family="Times,serif" font-size="14.00">MoveImage</text>
</a>
</g>
</g>
<!-- no3.NO3_EntityCutscene&#45;&gt;MoveImage -->
<g id="edge2" class="edge">
<title>no3.NO3_EntityCutscene&#45;&gt;MoveImage</title>
<path fill="none" stroke="black" d="M1720.97,-189.95C1462.5,-173.03 815.57,-124.78 280.74,-36 275.08,-35.06 269.2,-33.95 263.34,-32.75"/>
<polygon fill="black" stroke="black" points="264.06,-29.32 253.55,-30.66 262.6,-36.17 264.06,-29.32"/>
<text text-anchor="middle" x="248.55" y="-34.46" font-family="Times,serif" font-size="14.00">1</text>
</g>
<!-- dra.AllocPrimitives -->
<g id="node4" class="node">
<title>dra.AllocPrimitives</title>
<g id="a_node4"><a xlink:href="dra.AllocPrimitives.svg" xlink:title="dra.AllocPrimitives">
<ellipse fill="green" stroke="black" cx="388.74" cy="-18" rx="99.38" ry="18"/>
<text text-anchor="middle" x="388.74" y="-14.3" font-family="Times,serif" font-size="14.00">dra.AllocPrimitives</text>
</a>
</g>
</g>
<!-- no3.NO3_EntityCutscene&#45;&gt;dra.AllocPrimitives -->
<g id="edge3" class="edge">
<title>no3.NO3_EntityCutscene&#45;&gt;dra.AllocPrimitives</title>
<path fill="none" stroke="black" d="M1737.31,-186.41C1515.54,-162.27 960,-100.29 496.74,-36 488.14,-34.81 479.16,-33.5 470.21,-32.15"/>
<polygon fill="black" stroke="black" points="470.56,-28.66 460.15,-30.62 469.5,-35.58 470.56,-28.66"/>
<text text-anchor="middle" x="455.15" y="-34.42" font-family="Times,serif" font-size="14.00">1</text>
</g>
<!-- dra.FreePrimitives -->
<g id="node5" class="node">
<title>dra.FreePrimitives</title>
<g id="a_node5"><a xlink:href="dra.FreePrimitives.svg" xlink:title="dra.FreePrimitives">
<ellipse fill="green" stroke="black" cx="604.74" cy="-18" rx="98.58" ry="18"/>
<text text-anchor="middle" x="604.74" y="-14.3" font-family="Times,serif" font-size="14.00">dra.FreePrimitives</text>
</a>
</g>
</g>
<!-- no3.NO3_EntityCutscene&#45;&gt;dra.FreePrimitives -->
<g id="edge4" class="edge">
<title>no3.NO3_EntityCutscene&#45;&gt;dra.FreePrimitives</title>
<path fill="none" stroke="black" d="M1747.96,-184.83C1558.69,-158.51 1098.14,-93.96 712.74,-36 704.22,-34.72 695.32,-33.36 686.45,-31.98"/>
<polygon fill="black" stroke="black" points="686.89,-28.51 676.47,-30.43 685.81,-35.43 686.89,-28.51"/>
<text text-anchor="middle" x="671.47" y="-34.23" font-family="Times,serif" font-size="14.00">2</text>
</g>
<!-- dra.PlaySfx -->
<g id="node6" class="node">
<title>dra.PlaySfx</title>
<g id="a_node6"><a xlink:href="dra.PlaySfx.svg" xlink:title="dra.PlaySfx">
<ellipse fill="green" stroke="black" cx="785.74" cy="-18" rx="64.19" ry="18"/>
<text text-anchor="middle" x="785.74" y="-14.3" font-family="Times,serif" font-size="14.00">dra.PlaySfx</text>
</a>
</g>
</g>
<!-- no3.NO3_EntityCutscene&#45;&gt;dra.PlaySfx -->
<g id="edge5" class="edge">
<title>no3.NO3_EntityCutscene&#45;&gt;dra.PlaySfx</title>
<path fill="none" stroke="black" d="M1749.58,-184.63C1579.08,-159.75 1186.83,-100.48 859.74,-36 854.33,-34.93 848.7,-33.76 843.09,-32.54"/>
<polygon fill="black" stroke="black" points="843.54,-29.06 833.02,-30.32 842.03,-35.9 843.54,-29.06"/>
<text text-anchor="middle" x="828.02" y="-34.12" font-family="Times,serif" font-size="14.00">1</text>
</g>
<!-- dra.TimeAttackController -->
<g id="node7" class="node">
<title>dra.TimeAttackController</title>
<g id="a_node7"><a xlink:href="dra.TimeAttackController.svg" xlink:title="dra.TimeAttackController">
<ellipse fill="green" stroke="black" cx="997.74" cy="-18" rx="129.18" ry="18"/>
<text text-anchor="middle" x="997.74" y="-14.3" font-family="Times,serif" font-size="14.00">dra.TimeAttackController</text>
</a>
</g>
</g>
<!-- no3.NO3_EntityCutscene&#45;&gt;dra.TimeAttackController -->
<g id="edge6" class="edge">
<title>no3.NO3_EntityCutscene&#45;&gt;dra.TimeAttackController</title>
<path fill="none" stroke="black" d="M1768.23,-182.66C1614.39,-149.98 1238.53,-70.14 1075.4,-35.5"/>
<polygon fill="black" stroke="black" points="1075.95,-32.03 1065.44,-33.38 1074.5,-38.88 1075.95,-32.03"/>
<text text-anchor="middle" x="1060.44" y="-37.18" font-family="Times,serif" font-size="14.00">1</text>
</g>
<!-- dra.func_80131F68 -->
<g id="node8" class="node">
<title>dra.func_80131F68</title>
<g id="a_node8"><a xlink:href="dra.func_80131F68.svg" xlink:title="dra.func_80131F68">
<ellipse fill="green" stroke="black" cx="1245.74" cy="-18" rx="100.98" ry="18"/>
<text text-anchor="middle" x="1245.74" y="-14.3" font-family="Times,serif" font-size="14.00">dra.func_80131F68</text>
</a>
</g>
</g>
<!-- no3.NO3_EntityCutscene&#45;&gt;dra.func_80131F68 -->
<g id="edge7" class="edge">
<title>no3.NO3_EntityCutscene&#45;&gt;dra.func_80131F68</title>
<path fill="none" stroke="black" d="M1784.16,-181.44C1674.76,-148.43 1420.04,-71.59 1304.55,-36.74"/>
<polygon fill="black" stroke="black" points="1305.4,-33.34 1294.81,-33.8 1303.38,-40.04 1305.4,-33.34"/>
<text text-anchor="middle" x="1289.81" y="-37.6" font-family="Times,serif" font-size="14.00">2</text>
</g>
<!-- no3.CreateEntityFromCurrentEntity -->
<g id="node9" class="node">
<title>no3.CreateEntityFromCurrentEntity</title>
<g id="a_node9"><a xlink:href="no3.CreateEntityFromCurrentEntity.svg" xlink:title="no3.CreateEntityFromCurrentEntity">
<ellipse fill="green" stroke="black" cx="1544.74" cy="-18" rx="180.87" ry="18"/>
<text text-anchor="middle" x="1544.74" y="-14.3" font-family="Times,serif" font-size="14.00">no3.CreateEntityFromCurrentEntity</text>
</a>
</g>
</g>
<!-- no3.NO3_EntityCutscene&#45;&gt;no3.CreateEntityFromCurrentEntity -->
<g id="edge8" class="edge">
<title>no3.NO3_EntityCutscene&#45;&gt;no3.CreateEntityFromCurrentEntity</title>
<path fill="none" stroke="black" d="M1808.37,-180.25C1755.61,-147.99 1639.89,-77.2 1580.88,-41.11"/>
<polygon fill="black" stroke="black" points="1582.62,-38.06 1572.26,-35.83 1578.96,-44.03 1582.62,-38.06"/>
<text text-anchor="middle" x="1567.26" y="-39.63" font-family="Times,serif" font-size="14.00">1</text>
</g>
<!-- no3.CutsceneRun -->
<g id="node10" class="node">
<title>no3.CutsceneRun</title>
<g id="a_node10"><a xlink:href="no3.CutsceneRun.svg" xlink:title="no3.CutsceneRun">
<ellipse fill="green" stroke="black" cx="1835.74" cy="-18" rx="92.08" ry="18"/>
<text text-anchor="middle" x="1835.74" y="-14.3" font-family="Times,serif" font-size="14.00">no3.CutsceneRun</text>
</a>
</g>
</g>
<!-- no3.NO3_EntityCutscene&#45;&gt;no3.CutsceneRun -->
<g id="edge9" class="edge">
<title>no3.NO3_EntityCutscene&#45;&gt;no3.CutsceneRun</title>
<path fill="none" stroke="black" d="M1835.74,-179.93C1835.74,-148.97 1835.74,-83.3 1835.74,-46.13"/>
<polygon fill="black" stroke="black" points="1839.24,-46.02 1835.74,-36.02 1832.24,-46.02 1839.24,-46.02"/>
<text text-anchor="middle" x="1830.74" y="-39.82" font-family="Times,serif" font-size="14.00">1</text>
</g>
<!-- no3.CutsceneUnk1 -->
<g id="node11" class="node">
<title>no3.CutsceneUnk1</title>
<g id="a_node11"><a xlink:href="no3.CutsceneUnk1.svg" xlink:title="no3.CutsceneUnk1">
<ellipse fill="green" stroke="black" cx="2044.74" cy="-18" rx="98.58" ry="18"/>
<text text-anchor="middle" x="2044.74" y="-14.3" font-family="Times,serif" font-size="14.00">no3.CutsceneUnk1</text>
</a>
</g>
</g>
<!-- no3.NO3_EntityCutscene&#45;&gt;no3.CutsceneUnk1 -->
<g id="edge10" class="edge">
<title>no3.NO3_EntityCutscene&#45;&gt;no3.CutsceneUnk1</title>
<path fill="none" stroke="black" d="M1855.78,-179.93C1893.41,-147.89 1974.67,-78.68 2017.33,-42.35"/>
<polygon fill="black" stroke="black" points="2019.73,-44.9 2025.07,-35.76 2015.19,-39.58 2019.73,-44.9"/>
<text text-anchor="middle" x="2020.07" y="-39.56" font-family="Times,serif" font-size="14.00">1</text>
</g>
<!-- no3.CutsceneUnk4 -->
<g id="node12" class="node">
<title>no3.CutsceneUnk4</title>
<g id="a_node12"><a xlink:href="no3.CutsceneUnk4.svg" xlink:title="no3.CutsceneUnk4">
<ellipse fill="green" stroke="black" cx="2260.74" cy="-18" rx="98.58" ry="18"/>
<text text-anchor="middle" x="2260.74" y="-14.3" font-family="Times,serif" font-size="14.00">no3.CutsceneUnk4</text>
</a>
</g>
</g>
<!-- no3.NO3_EntityCutscene&#45;&gt;no3.CutsceneUnk4 -->
<g id="edge11" class="edge">
<title>no3.NO3_EntityCutscene&#45;&gt;no3.CutsceneUnk4</title>
<path fill="none" stroke="black" d="M1874.59,-180.73C1952.82,-147.97 2129.1,-74.14 2213.7,-38.7"/>
<polygon fill="black" stroke="black" points="2215.19,-41.87 2223.06,-34.78 2212.49,-35.42 2215.19,-41.87"/>
<text text-anchor="middle" x="2218.06" y="-38.58" font-family="Times,serif" font-size="14.00">2</text>
</g>
<!-- no3.DestroyEntity -->
<g id="node13" class="node">
<title>no3.DestroyEntity</title>
<g id="a_node13"><a xlink:href="no3.DestroyEntity.svg" xlink:title="no3.DestroyEntity">
<ellipse fill="green" stroke="black" cx="2473.74" cy="-18" rx="96.38" ry="18"/>
<text text-anchor="middle" x="2473.74" y="-14.3" font-family="Times,serif" font-size="14.00">no3.DestroyEntity</text>
</a>
</g>
</g>
<!-- no3.NO3_EntityCutscene&#45;&gt;no3.DestroyEntity -->
<g id="edge12" class="edge">
<title>no3.NO3_EntityCutscene&#45;&gt;no3.DestroyEntity</title>
<path fill="none" stroke="black" d="M1890.69,-181.67C2009.29,-148.58 2288.54,-70.67 2412.55,-36.07"/>
<polygon fill="black" stroke="black" points="2413.59,-39.42 2422.28,-33.36 2411.71,-32.67 2413.59,-39.42"/>
<text text-anchor="middle" x="2417.28" y="-37.16" font-family="Times,serif" font-size="14.00">2</text>
</g>
<!-- no3.DrawCutsceneActorName -->
<g id="node14" class="node">
<title>no3.DrawCutsceneActorName</title>
<g id="a_node14"><a xlink:href="no3.DrawCutsceneActorName.svg" xlink:title="no3.DrawCutsceneActorName">
<ellipse fill="green" stroke="black" cx="2738.74" cy="-18" rx="150.57" ry="18"/>
<text text-anchor="middle" x="2738.74" y="-14.3" font-family="Times,serif" font-size="14.00">no3.DrawCutsceneActorName</text>
</a>
</g>
</g>
<!-- no3.NO3_EntityCutscene&#45;&gt;no3.DrawCutsceneActorName -->
<g id="edge13" class="edge">
<title>no3.NO3_EntityCutscene&#45;&gt;no3.DrawCutsceneActorName</title>
<path fill="none" stroke="black" d="M1906.98,-182.96C2071.51,-150.53 2477.38,-70.52 2654.17,-35.67"/>
<polygon fill="black" stroke="black" points="2655.07,-39.06 2664.2,-33.69 2653.72,-32.19 2655.07,-39.06"/>
<text text-anchor="middle" x="2659.2" y="-37.49" font-family="Times,serif" font-size="14.00">1</text>
</g>
<!-- no3.ScaleCutsceneAvatar -->
<g id="node15" class="node">
<title>no3.ScaleCutsceneAvatar</title>
<g id="a_node15"><a xlink:href="no3.ScaleCutsceneAvatar.svg" xlink:title="no3.ScaleCutsceneAvatar">
<ellipse fill="green" stroke="black" cx="3036.74" cy="-18" rx="129.18" ry="18"/>
<text text-anchor="middle" x="3036.74" y="-14.3" font-family="Times,serif" font-size="14.00">no3.ScaleCutsceneAvatar</text>
</a>
</g>
</g>
<!-- no3.NO3_EntityCutscene&#45;&gt;no3.ScaleCutsceneAvatar -->
<g id="edge14" class="edge">
<title>no3.NO3_EntityCutscene&#45;&gt;no3.ScaleCutsceneAvatar</title>
<path fill="none" stroke="black" d="M1920.68,-184.41C2138.1,-152.19 2713.68,-66.88 2941.74,-33.08"/>
<polygon fill="black" stroke="black" points="2942.3,-36.54 2951.68,-31.61 2941.27,-29.61 2942.3,-36.54"/>
<text text-anchor="middle" x="2946.68" y="-35.41" font-family="Times,serif" font-size="14.00">1</text>
</g>
<!-- no3.SetCutsceneEnd -->
<g id="node16" class="node">
<title>no3.SetCutsceneEnd</title>
<g id="a_node16"><a xlink:href="no3.SetCutsceneEnd.svg" xlink:title="no3.SetCutsceneEnd">
<ellipse fill="green" stroke="black" cx="3291.74" cy="-18" rx="107.78" ry="18"/>
<text text-anchor="middle" x="3291.74" y="-14.3" font-family="Times,serif" font-size="14.00">no3.SetCutsceneEnd</text>
</a>
</g>
</g>
<!-- no3.NO3_EntityCutscene&#45;&gt;no3.SetCutsceneEnd -->
<g id="edge15" class="edge">
<title>no3.NO3_EntityCutscene&#45;&gt;no3.SetCutsceneEnd</title>
<path fill="none" stroke="black" d="M1932.47,-186.2C2153,-161.39 2709.96,-97.7 3174.74,-36 3184.18,-34.75 3194.04,-33.39 3203.86,-32.01"/>
<polygon fill="black" stroke="black" points="3204.65,-35.43 3214.06,-30.56 3203.66,-28.5 3204.65,-35.43"/>
<text text-anchor="middle" x="3209.06" y="-34.36" font-family="Times,serif" font-size="14.00">1</text>
</g>
<!-- no3.SetCutsceneScript -->
<g id="node17" class="node">
<title>no3.SetCutsceneScript</title>
<g id="a_node17"><a xlink:href="no3.SetCutsceneScript.svg" xlink:title="no3.SetCutsceneScript">
<ellipse fill="green" stroke="black" cx="3535.74" cy="-18" rx="117.78" ry="18"/>
<text text-anchor="middle" x="3535.74" y="-14.3" font-family="Times,serif" font-size="14.00">no3.SetCutsceneScript</text>
</a>
</g>
</g>
<!-- no3.NO3_EntityCutscene&#45;&gt;no3.SetCutsceneScript -->
<g id="edge16" class="edge">
<title>no3.NO3_EntityCutscene&#45;&gt;no3.SetCutsceneScript</title>
<path fill="none" stroke="black" d="M1939.86,-187.47C2192.13,-164.14 2856,-101.27 3408.74,-36 3419.4,-34.74 3430.55,-33.35 3441.63,-31.93"/>
<polygon fill="black" stroke="black" points="3442.3,-35.37 3451.76,-30.62 3441.4,-28.43 3442.3,-35.37"/>
<text text-anchor="middle" x="3446.76" y="-34.42" font-family="Times,serif" font-size="14.00">1</text>
</g>
<!-- no3.func_801BECCC -->
<g id="node18" class="node">
<title>no3.func_801BECCC</title>
<g id="a_node18"><a xlink:href="no3.func_801BECCC.svg" xlink:title="no3.func_801BECCC">
<ellipse fill="green" stroke="black" cx="3777.74" cy="-18" rx="106.68" ry="18"/>
<text text-anchor="middle" x="3777.74" y="-14.3" font-family="Times,serif" font-size="14.00">no3.func_801BECCC</text>
</a>
</g>
</g>
<!-- no3.NO3_EntityCutscene&#45;&gt;no3.func_801BECCC -->
<g id="edge17" class="edge">
<title>no3.NO3_EntityCutscene&#45;&gt;no3.func_801BECCC</title>
<path fill="none" stroke="black" d="M1948.25,-189.4C2234.79,-169.55 3015.27,-112.32 3662.74,-36 3672.37,-34.87 3682.42,-33.56 3692.41,-32.19"/>
<polygon fill="black" stroke="black" points="3692.94,-35.65 3702.36,-30.79 3691.97,-28.71 3692.94,-35.65"/>
<text text-anchor="middle" x="3697.36" y="-34.59" font-family="Times,serif" font-size="14.00">1</text>
</g>
</g>
</svg>
