<?xml version="1.0" encoding="UTF-8" standalone="no"?>
<!DOCTYPE svg PUBLIC "-//W3C//DTD SVG 1.1//EN"
 "http://www.w3.org/Graphics/SVG/1.1/DTD/svg11.dtd">
<!-- Generated by graphviz version 2.43.0 (0)
 -->
<!-- Title: no3..L801CFFC4 Pages: 1 -->
<svg width="2323pt" height="224pt"
 viewBox="0.00 0.00 2322.83 224.00" xmlns="http://www.w3.org/2000/svg" xmlns:xlink="http://www.w3.org/1999/xlink">
<g id="graph0" class="graph" transform="scale(1 1) rotate(0) translate(4 220)">
<title>no3..L801CFFC4</title>
<polygon fill="white" stroke="transparent" points="-4,4 -4,-220 2318.83,-220 2318.83,4 -4,4"/>
<!-- no3..L801CFFC4 -->
<g id="node1" class="node">
<title>no3..L801CFFC4</title>
<ellipse fill="green" stroke="black" cx="1026.54" cy="-198" rx="89.08" ry="18"/>
<text text-anchor="middle" x="1026.54" y="-194.3" font-family="Times,serif" font-size="14.00">no3..L801CFFC4</text>
</g>
<!-- SetDrawEnv -->
<g id="node2" class="node">
<title>SetDrawEnv</title>
<g id="a_node2"><a xlink:href="SetDrawEnv.svg" xlink:title="SetDrawEnv">
<ellipse fill="lightblue" stroke="black" cx="69.54" cy="-18" rx="69.59" ry="18"/>
<text text-anchor="middle" x="69.54" y="-14.3" font-family="Times,serif" font-size="14.00">SetDrawEnv</text>
</a>
</g>
</g>
<!-- no3..L801CFFC4&#45;&gt;SetDrawEnv -->
<g id="edge1" class="edge">
<title>no3..L801CFFC4&#45;&gt;SetDrawEnv</title>
<path fill="none" stroke="black" d="M961.15,-185.71C815.14,-160.36 451.56,-96.37 148.54,-36 142.81,-34.86 136.86,-33.64 130.9,-32.4"/>
<polygon fill="black" stroke="black" points="131.42,-28.93 120.92,-30.29 129.98,-35.78 131.42,-28.93"/>
<text text-anchor="middle" x="115.92" y="-34.09" font-family="Times,serif" font-size="14.00">1</text>
</g>
<!-- dra.AllocPrimitives -->
<g id="node3" class="node">
<title>dra.AllocPrimitives</title>
<g id="a_node3"><a xlink:href="dra.AllocPrimitives.svg" xlink:title="dra.AllocPrimitives">
<ellipse fill="green" stroke="black" cx="256.54" cy="-18" rx="99.38" ry="18"/>
<text text-anchor="middle" x="256.54" y="-14.3" font-family="Times,serif" font-size="14.00">dra.AllocPrimitives</text>
</a>
</g>
</g>
<!-- no3..L801CFFC4&#45;&gt;dra.AllocPrimitives -->
<g id="edge2" class="edge">
<title>no3..L801CFFC4&#45;&gt;dra.AllocPrimitives</title>
<path fill="none" stroke="black" d="M970.24,-183.98C831.88,-152 475.6,-69.64 325.19,-34.87"/>
<polygon fill="black" stroke="black" points="325.68,-31.39 315.15,-32.55 324.1,-38.21 325.68,-31.39"/>
<text text-anchor="middle" x="310.15" y="-36.35" font-family="Times,serif" font-size="14.00">1</text>
</g>
<!-- dra.PlaySfx -->
<g id="node4" class="node">
<title>dra.PlaySfx</title>
<g id="a_node4"><a xlink:href="dra.PlaySfx.svg" xlink:title="dra.PlaySfx">
<ellipse fill="green" stroke="black" cx="438.54" cy="-18" rx="64.19" ry="18"/>
<text text-anchor="middle" x="438.54" y="-14.3" font-family="Times,serif" font-size="14.00">dra.PlaySfx</text>
</a>
</g>
</g>
<!-- no3..L801CFFC4&#45;&gt;dra.PlaySfx -->
<g id="edge3" class="edge">
<title>no3..L801CFFC4&#45;&gt;dra.PlaySfx</title>
<path fill="none" stroke="black" d="M978.92,-182.58C869.98,-149.6 603.3,-68.88 490.4,-34.7"/>
<polygon fill="black" stroke="black" points="491.19,-31.28 480.6,-31.73 489.16,-37.98 491.19,-31.28"/>
<text text-anchor="middle" x="475.6" y="-35.53" font-family="Times,serif" font-size="14.00">1</text>
</g>
<!-- dra.func_800EDB08 -->
<g id="node5" class="node">
<title>dra.func_800EDB08</title>
<g id="a_node5"><a xlink:href="dra.func_800EDB08.svg" xlink:title="dra.func_800EDB08">
<ellipse fill="green" stroke="black" cx="624.54" cy="-18" rx="103.98" ry="18"/>
<text text-anchor="middle" x="624.54" y="-14.3" font-family="Times,serif" font-size="14.00">dra.func_800EDB08</text>
</a>
</g>
</g>
<!-- no3..L801CFFC4&#45;&gt;dra.func_800EDB08 -->
<g id="edge4" class="edge">
<title>no3..L801CFFC4&#45;&gt;dra.func_800EDB08</title>
<path fill="none" stroke="black" d="M991.22,-181.36C918.22,-149.04 750.81,-74.91 669.93,-39.1"/>
<polygon fill="black" stroke="black" points="671.07,-35.77 660.51,-34.92 668.23,-42.17 671.07,-35.77"/>
<text text-anchor="middle" x="655.51" y="-38.72" font-family="Times,serif" font-size="14.00">2</text>
</g>
<!-- no3.AllocEntity -->
<g id="node6" class="node">
<title>no3.AllocEntity</title>
<g id="a_node6"><a xlink:href="no3.AllocEntity.svg" xlink:title="no3.AllocEntity">
<ellipse fill="green" stroke="black" cx="828.54" cy="-18" rx="81.79" ry="18"/>
<text text-anchor="middle" x="828.54" y="-14.3" font-family="Times,serif" font-size="14.00">no3.AllocEntity</text>
</a>
</g>
</g>
<!-- no3..L801CFFC4&#45;&gt;no3.AllocEntity -->
<g id="edge5" class="edge">
<title>no3..L801CFFC4&#45;&gt;no3.AllocEntity</title>
<path fill="none" stroke="black" d="M1007.92,-180.25C972.45,-148.37 895.14,-78.87 854.58,-42.4"/>
<polygon fill="black" stroke="black" points="856.75,-39.65 846.98,-35.57 852.07,-44.86 856.75,-39.65"/>
<text text-anchor="middle" x="841.98" y="-39.37" font-family="Times,serif" font-size="14.00">1</text>
</g>
<!-- no3.AnimateEntity -->
<g id="node7" class="node">
<title>no3.AnimateEntity</title>
<g id="a_node7"><a xlink:href="no3.AnimateEntity.svg" xlink:title="no3.AnimateEntity">
<ellipse fill="green" stroke="black" cx="1026.54" cy="-18" rx="98.28" ry="18"/>
<text text-anchor="middle" x="1026.54" y="-14.3" font-family="Times,serif" font-size="14.00">no3.AnimateEntity</text>
</a>
</g>
</g>
<!-- no3..L801CFFC4&#45;&gt;no3.AnimateEntity -->
<g id="edge6" class="edge">
<title>no3..L801CFFC4&#45;&gt;no3.AnimateEntity</title>
<path fill="none" stroke="black" d="M1026.54,-179.93C1026.54,-148.97 1026.54,-83.3 1026.54,-46.13"/>
<polygon fill="black" stroke="black" points="1030.04,-46.02 1026.54,-36.02 1023.04,-46.02 1030.04,-46.02"/>
<text text-anchor="middle" x="1021.54" y="-39.82" font-family="Times,serif" font-size="14.00">2</text>
</g>
<!-- no3.CreateEntityFromCurrentEntity -->
<g id="node8" class="node">
<title>no3.CreateEntityFromCurrentEntity</title>
<g id="a_node8"><a xlink:href="no3.CreateEntityFromCurrentEntity.svg" xlink:title="no3.CreateEntityFromCurrentEntity">
<ellipse fill="green" stroke="black" cx="1323.54" cy="-18" rx="180.87" ry="18"/>
<text text-anchor="middle" x="1323.54" y="-14.3" font-family="Times,serif" font-size="14.00">no3.CreateEntityFromCurrentEntity</text>
</a>
</g>
</g>
<!-- no3..L801CFFC4&#45;&gt;no3.CreateEntityFromCurrentEntity -->
<g id="edge7" class="edge">
<title>no3..L801CFFC4&#45;&gt;no3.CreateEntityFromCurrentEntity</title>
<path fill="none" stroke="black" d="M1053.69,-180.73C1107.08,-148.73 1225.82,-77.57 1286.42,-41.25"/>
<polygon fill="black" stroke="black" points="1288.49,-44.09 1295.27,-35.94 1284.9,-38.08 1288.49,-44.09"/>
<text text-anchor="middle" x="1290.27" y="-39.74" font-family="Times,serif" font-size="14.00">1</text>
</g>
<!-- no3.DestroyEntity -->
<g id="node9" class="node">
<title>no3.DestroyEntity</title>
<g id="a_node9"><a xlink:href="no3.DestroyEntity.svg" xlink:title="no3.DestroyEntity">
<ellipse fill="green" stroke="black" cx="1618.54" cy="-18" rx="96.38" ry="18"/>
<text text-anchor="middle" x="1618.54" y="-14.3" font-family="Times,serif" font-size="14.00">no3.DestroyEntity</text>
</a>
</g>
</g>
<!-- no3..L801CFFC4&#45;&gt;no3.DestroyEntity -->
<g id="edge8" class="edge">
<title>no3..L801CFFC4&#45;&gt;no3.DestroyEntity</title>
<path fill="none" stroke="black" d="M1073.99,-182.73C1181.43,-150.43 1443.06,-71.76 1560.18,-36.55"/>
<polygon fill="black" stroke="black" points="1561.48,-39.81 1570.04,-33.58 1559.46,-33.11 1561.48,-39.81"/>
<text text-anchor="middle" x="1565.04" y="-37.38" font-family="Times,serif" font-size="14.00">2</text>
</g>
<!-- no3.Random -->
<g id="node10" class="node">
<title>no3.Random</title>
<g id="a_node10"><a xlink:href="no3.Random.svg" xlink:title="no3.Random">
<ellipse fill="green" stroke="black" cx="1801.54" cy="-18" rx="68.79" ry="18"/>
<text text-anchor="middle" x="1801.54" y="-14.3" font-family="Times,serif" font-size="14.00">no3.Random</text>
</a>
</g>
</g>
<!-- no3..L801CFFC4&#45;&gt;no3.Random -->
<g id="edge9" class="edge">
<title>no3..L801CFFC4&#45;&gt;no3.Random</title>
<path fill="none" stroke="black" d="M1082.9,-184.06C1224.75,-151.48 1595.57,-66.31 1741.4,-32.81"/>
<polygon fill="black" stroke="black" points="1742.54,-36.14 1751.5,-30.49 1740.97,-29.32 1742.54,-36.14"/>
<text text-anchor="middle" x="1746.5" y="-34.29" font-family="Times,serif" font-size="14.00">4</text>
</g>
<!-- no3.SetSubStep -->
<g id="node11" class="node">
<title>no3.SetSubStep</title>
<g id="a_node11"><a xlink:href="no3.SetSubStep.svg" xlink:title="no3.SetSubStep">
<ellipse fill="green" stroke="black" cx="1974.54" cy="-18" rx="85.59" ry="18"/>
<text text-anchor="middle" x="1974.54" y="-14.3" font-family="Times,serif" font-size="14.00">no3.SetSubStep</text>
</a>
</g>
</g>
<!-- no3..L801CFFC4&#45;&gt;no3.SetSubStep -->
<g id="edge10" class="edge">
<title>no3..L801CFFC4&#45;&gt;no3.SetSubStep</title>
<path fill="none" stroke="black" d="M1089.48,-185.18C1258.93,-153.37 1724.02,-66.04 1903.02,-32.43"/>
<polygon fill="black" stroke="black" points="1903.68,-35.87 1912.87,-30.58 1902.39,-28.99 1903.68,-35.87"/>
<text text-anchor="middle" x="1907.87" y="-34.38" font-family="Times,serif" font-size="14.00">1</text>
</g>
<!-- no3.UnkCollisionFunc3 -->
<g id="node12" class="node">
<title>no3.UnkCollisionFunc3</title>
<g id="a_node12"><a xlink:href="no3.UnkCollisionFunc3.svg" xlink:title="no3.UnkCollisionFunc3">
<ellipse fill="green" stroke="black" cx="2196.54" cy="-18" rx="118.08" ry="18"/>
<text text-anchor="middle" x="2196.54" y="-14.3" font-family="Times,serif" font-size="14.00">no3.UnkCollisionFunc3</text>
</a>
</g>
</g>
<!-- no3..L801CFFC4&#45;&gt;no3.UnkCollisionFunc3 -->
<g id="edge11" class="edge">
<title>no3..L801CFFC4&#45;&gt;no3.UnkCollisionFunc3</title>
<path fill="none" stroke="black" d="M1095.36,-186.53C1295.93,-156.02 1879.97,-67.16 2105.86,-32.8"/>
<polygon fill="black" stroke="black" points="2106.66,-36.21 2116.02,-31.25 2105.61,-29.29 2106.66,-36.21"/>
<text text-anchor="middle" x="2111.02" y="-35.05" font-family="Times,serif" font-size="14.00">1</text>
</g>
</g>
</svg>
