<?xml version="1.0" encoding="UTF-8" standalone="no"?>
<!DOCTYPE svg PUBLIC "-//W3C//DTD SVG 1.1//EN"
 "http://www.w3.org/Graphics/SVG/1.1/DTD/svg11.dtd">
<!-- Generated by graphviz version 2.43.0 (0)
 -->
<!-- Title: no3.func_801CF6D8 Pages: 1 -->
<svg width="776pt" height="404pt"
 viewBox="0.00 0.00 776.08 404.00" xmlns="http://www.w3.org/2000/svg" xmlns:xlink="http://www.w3.org/1999/xlink">
<g id="graph0" class="graph" transform="scale(1 1) rotate(0) translate(4 400)">
<title>no3.func_801CF6D8</title>
<polygon fill="white" stroke="transparent" points="-4,4 -4,-400 772.08,-400 772.08,4 -4,4"/>
<!-- no3.func_801CF6D8 -->
<g id="node1" class="node">
<title>no3.func_801CF6D8</title>
<ellipse fill="green" stroke="black" cx="383.04" cy="-198" rx="104.78" ry="18"/>
<text text-anchor="middle" x="383.04" y="-194.3" font-family="Times,serif" font-size="14.00">no3.func_801CF6D8</text>
</g>
<!-- no3.GetDistanceToPlayerX -->
<g id="node2" class="node">
<title>no3.GetDistanceToPlayerX</title>
<g id="a_node2"><a xlink:href="no3.GetDistanceToPlayerX.svg" xlink:title="no3.GetDistanceToPlayerX">
<ellipse fill="green" stroke="black" cx="383.04" cy="-18" rx="134.58" ry="18"/>
<text text-anchor="middle" x="383.04" y="-14.3" font-family="Times,serif" font-size="14.00">no3.GetDistanceToPlayerX</text>
</a>
</g>
</g>
<!-- no3.func_801CF6D8&#45;&gt;no3.GetDistanceToPlayerX -->
<g id="edge1" class="edge">
<title>no3.func_801CF6D8&#45;&gt;no3.GetDistanceToPlayerX</title>
<path fill="none" stroke="black" d="M383.04,-179.93C383.04,-148.97 383.04,-83.3 383.04,-46.13"/>
<polygon fill="black" stroke="black" points="386.54,-46.02 383.04,-36.02 379.54,-46.02 386.54,-46.02"/>
<text text-anchor="middle" x="378.04" y="-39.82" font-family="Times,serif" font-size="14.00">1</text>
</g>
<!-- no3..L801CF9B8 -->
<g id="node3" class="node">
<title>no3..L801CF9B8</title>
<g id="a_node3"><a xlink:href="no3..L801CF9B8.svg" xlink:title="no3..L801CF9B8">
<ellipse fill="green" stroke="black" cx="89.04" cy="-378" rx="89.08" ry="18"/>
<text text-anchor="middle" x="89.04" y="-374.3" font-family="Times,serif" font-size="14.00">no3..L801CF9B8</text>
</a>
</g>
</g>
<!-- no3..L801CF9B8&#45;&gt;no3.func_801CF6D8 -->
<g id="edge2" class="edge">
<title>no3..L801CF9B8&#45;&gt;no3.func_801CF6D8</title>
<path fill="none" stroke="black" d="M115.91,-360.73C169.04,-328.57 287.51,-256.84 347.2,-220.7"/>
<polygon fill="black" stroke="black" points="349.17,-223.6 355.92,-215.42 345.55,-217.61 349.17,-223.6"/>
<text text-anchor="middle" x="110.91" y="-349.53" font-family="Times,serif" font-size="14.00">1</text>
</g>
<!-- no3..L801CFBF8 -->
<g id="node4" class="node">
<title>no3..L801CFBF8</title>
<g id="a_node4"><a xlink:href="no3..L801CFBF8.svg" xlink:title="no3..L801CFBF8">
<ellipse fill="green" stroke="black" cx="285.04" cy="-378" rx="89.08" ry="18"/>
<text text-anchor="middle" x="285.04" y="-374.3" font-family="Times,serif" font-size="14.00">no3..L801CFBF8</text>
</a>
</g>
</g>
<!-- no3..L801CFBF8&#45;&gt;no3.func_801CF6D8 -->
<g id="edge3" class="edge">
<title>no3..L801CFBF8&#45;&gt;no3.func_801CF6D8</title>
<path fill="none" stroke="black" d="M294.44,-359.93C311.63,-328.7 348.26,-262.17 368.63,-225.18"/>
<polygon fill="black" stroke="black" points="371.92,-226.46 373.67,-216.02 365.78,-223.09 371.92,-226.46"/>
<text text-anchor="middle" x="289.44" y="-348.73" font-family="Times,serif" font-size="14.00">1</text>
</g>
<!-- no3..L801CFD6C -->
<g id="node5" class="node">
<title>no3..L801CFD6C</title>
<g id="a_node5"><a xlink:href="no3..L801CFD6C.svg" xlink:title="no3..L801CFD6C">
<ellipse fill="green" stroke="black" cx="482.04" cy="-378" rx="90.18" ry="18"/>
<text text-anchor="middle" x="482.04" y="-374.3" font-family="Times,serif" font-size="14.00">no3..L801CFD6C</text>
</a>
</g>
</g>
<!-- no3..L801CFD6C&#45;&gt;no3.func_801CF6D8 -->
<g id="edge4" class="edge">
<title>no3..L801CFD6C&#45;&gt;no3.func_801CF6D8</title>
<path fill="none" stroke="black" d="M472.55,-359.93C455.18,-328.7 418.18,-262.17 397.6,-225.18"/>
<polygon fill="black" stroke="black" points="400.43,-223.05 392.51,-216.02 394.31,-226.46 400.43,-223.05"/>
<text text-anchor="middle" x="467.55" y="-348.73" font-family="Times,serif" font-size="14.00">1</text>
</g>
<!-- no3..L801CFE00 -->
<g id="node6" class="node">
<title>no3..L801CFE00</title>
<g id="a_node6"><a xlink:href="no3..L801CFE00.svg" xlink:title="no3..L801CFE00">
<ellipse fill="green" stroke="black" cx="679.04" cy="-378" rx="89.08" ry="18"/>
<text text-anchor="middle" x="679.04" y="-374.3" font-family="Times,serif" font-size="14.00">no3..L801CFE00</text>
</a>
</g>
</g>
<!-- no3..L801CFE00&#45;&gt;no3.func_801CF6D8 -->
<g id="edge5" class="edge">
<title>no3..L801CFE00&#45;&gt;no3.func_801CF6D8</title>
<path fill="none" stroke="black" d="M651.99,-360.73C598.5,-328.57 479.23,-256.84 419.12,-220.7"/>
<polygon fill="black" stroke="black" points="420.73,-217.58 410.35,-215.42 417.12,-223.58 420.73,-217.58"/>
<text text-anchor="middle" x="646.99" y="-349.53" font-family="Times,serif" font-size="14.00">1</text>
</g>
</g>
</svg>
