<?xml version="1.0" encoding="UTF-8" standalone="no"?>
<!DOCTYPE svg PUBLIC "-//W3C//DTD SVG 1.1//EN"
 "http://www.w3.org/Graphics/SVG/1.1/DTD/svg11.dtd">
<!-- Generated by graphviz version 2.43.0 (0)
 -->
<!-- Title: no3.func_801BE544 Pages: 1 -->
<svg width="512pt" height="224pt"
 viewBox="0.00 0.00 512.08 224.00" xmlns="http://www.w3.org/2000/svg" xmlns:xlink="http://www.w3.org/1999/xlink">
<g id="graph0" class="graph" transform="scale(1 1) rotate(0) translate(4 220)">
<title>no3.func_801BE544</title>
<polygon fill="white" stroke="transparent" points="-4,4 -4,-220 508.08,-220 508.08,4 -4,4"/>
<!-- no3.func_801BE544 -->
<g id="node1" class="node">
<title>no3.func_801BE544</title>
<ellipse fill="green" stroke="black" cx="269.09" cy="-18" rx="103.98" ry="18"/>
<text text-anchor="middle" x="269.09" y="-14.3" font-family="Times,serif" font-size="14.00">no3.func_801BE544</text>
</g>
<!-- no3.EntityRoomTransition1 -->
<g id="node2" class="node">
<title>no3.EntityRoomTransition1</title>
<g id="a_node2"><a xlink:href="no3.EntityRoomTransition1.svg" xlink:title="no3.EntityRoomTransition1">
<ellipse fill="red" stroke="black" cx="139.09" cy="-198" rx="139.18" ry="18"/>
<text text-anchor="middle" x="139.09" y="-194.3" font-family="Times,serif" font-size="14.00">no3.EntityRoomTransition1</text>
</a>
</g>
</g>
<!-- no3.EntityRoomTransition1&#45;&gt;no3.func_801BE544 -->
<g id="edge1" class="edge">
<title>no3.EntityRoomTransition1&#45;&gt;no3.func_801BE544</title>
<path fill="none" stroke="black" d="M151.55,-179.93C174.56,-148.43 223.78,-81.03 250.65,-44.24"/>
<polygon fill="black" stroke="black" points="253.59,-46.16 256.66,-36.02 247.94,-42.03 253.59,-46.16"/>
<text text-anchor="middle" x="146.55" y="-168.73" font-family="Times,serif" font-size="14.00">1</text>
</g>
<!-- no3.func_801BE598 -->
<g id="node3" class="node">
<title>no3.func_801BE598</title>
<g id="a_node3"><a xlink:href="no3.func_801BE598.svg" xlink:title="no3.func_801BE598">
<ellipse fill="green" stroke="black" cx="400.09" cy="-198" rx="103.98" ry="18"/>
<text text-anchor="middle" x="400.09" y="-194.3" font-family="Times,serif" font-size="14.00">no3.func_801BE598</text>
</a>
</g>
</g>
<!-- no3.func_801BE598&#45;&gt;no3.func_801BE544 -->
<g id="edge2" class="edge">
<title>no3.func_801BE598&#45;&gt;no3.func_801BE544</title>
<path fill="none" stroke="black" d="M387.53,-179.93C364.35,-148.43 314.74,-81.03 287.66,-44.24"/>
<polygon fill="black" stroke="black" points="290.36,-42 281.61,-36.02 284.72,-46.14 290.36,-42"/>
<text text-anchor="middle" x="382.53" y="-168.73" font-family="Times,serif" font-size="14.00">1</text>
</g>
</g>
</svg>
