<?xml version="1.0" encoding="UTF-8" standalone="no"?>
<!DOCTYPE svg PUBLIC "-//W3C//DTD SVG 1.1//EN"
 "http://www.w3.org/Graphics/SVG/1.1/DTD/svg11.dtd">
<!-- Generated by graphviz version 2.43.0 (0)
 -->
<!-- Title: no3..L801CCC94 Pages: 1 -->
<svg width="1802pt" height="224pt"
 viewBox="0.00 0.00 1802.13 224.00" xmlns="http://www.w3.org/2000/svg" xmlns:xlink="http://www.w3.org/1999/xlink">
<g id="graph0" class="graph" transform="scale(1 1) rotate(0) translate(4 220)">
<title>no3..L801CCC94</title>
<polygon fill="white" stroke="transparent" points="-4,4 -4,-220 1798.13,-220 1798.13,4 -4,4"/>
<!-- no3..L801CCC94 -->
<g id="node1" class="node">
<title>no3..L801CCC94</title>
<ellipse fill="green" stroke="black" cx="920.49" cy="-198" rx="89.08" ry="18"/>
<text text-anchor="middle" x="920.49" y="-194.3" font-family="Times,serif" font-size="14.00">no3..L801CCC94</text>
</g>
<!-- dra.CheckCollision -->
<g id="node2" class="node">
<title>dra.CheckCollision</title>
<g id="a_node2"><a xlink:href="dra.CheckCollision.svg" xlink:title="dra.CheckCollision">
<ellipse fill="green" stroke="black" cx="97.49" cy="-18" rx="97.48" ry="18"/>
<text text-anchor="middle" x="97.49" y="-14.3" font-family="Times,serif" font-size="14.00">dra.CheckCollision</text>
</a>
</g>
</g>
<!-- no3..L801CCC94&#45;&gt;dra.CheckCollision -->
<g id="edge1" class="edge">
<title>no3..L801CCC94&#45;&gt;dra.CheckCollision</title>
<path fill="none" stroke="black" d="M861.96,-184.34C714.54,-152.46 328.34,-68.93 168.42,-34.34"/>
<polygon fill="black" stroke="black" points="168.73,-30.83 158.22,-32.13 167.25,-37.67 168.73,-30.83"/>
<text text-anchor="middle" x="153.22" y="-35.93" font-family="Times,serif" font-size="14.00">1</text>
</g>
<!-- no3.AnimateEntity -->
<g id="node3" class="node">
<title>no3.AnimateEntity</title>
<g id="a_node3"><a xlink:href="no3.AnimateEntity.svg" xlink:title="no3.AnimateEntity">
<ellipse fill="green" stroke="black" cx="311.49" cy="-18" rx="98.28" ry="18"/>
<text text-anchor="middle" x="311.49" y="-14.3" font-family="Times,serif" font-size="14.00">no3.AnimateEntity</text>
</a>
</g>
</g>
<!-- no3..L801CCC94&#45;&gt;no3.AnimateEntity -->
<g id="edge2" class="edge">
<title>no3..L801CCC94&#45;&gt;no3.AnimateEntity</title>
<path fill="none" stroke="black" d="M871.94,-182.81C761.48,-150.52 491.66,-71.66 371.23,-36.46"/>
<polygon fill="black" stroke="black" points="372.02,-33.04 361.44,-33.6 370.05,-39.76 372.02,-33.04"/>
<text text-anchor="middle" x="356.44" y="-37.4" font-family="Times,serif" font-size="14.00">2</text>
</g>
<!-- no3.GetDistanceToPlayerX -->
<g id="node4" class="node">
<title>no3.GetDistanceToPlayerX</title>
<g id="a_node4"><a xlink:href="no3.GetDistanceToPlayerX.svg" xlink:title="no3.GetDistanceToPlayerX">
<ellipse fill="green" stroke="black" cx="562.49" cy="-18" rx="134.58" ry="18"/>
<text text-anchor="middle" x="562.49" y="-14.3" font-family="Times,serif" font-size="14.00">no3.GetDistanceToPlayerX</text>
</a>
</g>
</g>
<!-- no3..L801CCC94&#45;&gt;no3.GetDistanceToPlayerX -->
<g id="edge3" class="edge">
<title>no3..L801CCC94&#45;&gt;no3.GetDistanceToPlayerX</title>
<path fill="none" stroke="black" d="M888.41,-181.05C823.69,-148.87 677.53,-76.2 604.98,-40.13"/>
<polygon fill="black" stroke="black" points="606.18,-36.82 595.67,-35.5 603.07,-43.08 606.18,-36.82"/>
<text text-anchor="middle" x="590.67" y="-39.3" font-family="Times,serif" font-size="14.00">1</text>
</g>
<!-- no3.GetSideToPlayer -->
<g id="node5" class="node">
<title>no3.GetSideToPlayer</title>
<g id="a_node5"><a xlink:href="no3.GetSideToPlayer.svg" xlink:title="no3.GetSideToPlayer">
<ellipse fill="green" stroke="black" cx="823.49" cy="-18" rx="108.58" ry="18"/>
<text text-anchor="middle" x="823.49" y="-14.3" font-family="Times,serif" font-size="14.00">no3.GetSideToPlayer</text>
</a>
</g>
</g>
<!-- no3..L801CCC94&#45;&gt;no3.GetSideToPlayer -->
<g id="edge4" class="edge">
<title>no3..L801CCC94&#45;&gt;no3.GetSideToPlayer</title>
<path fill="none" stroke="black" d="M911.19,-179.93C894.17,-148.7 857.91,-82.17 837.76,-45.18"/>
<polygon fill="black" stroke="black" points="840.62,-43.12 832.76,-36.02 834.48,-46.47 840.62,-43.12"/>
<text text-anchor="middle" x="827.76" y="-39.82" font-family="Times,serif" font-size="14.00">1</text>
</g>
<!-- no3.SetStep -->
<g id="node6" class="node">
<title>no3.SetStep</title>
<g id="a_node6"><a xlink:href="no3.SetStep.svg" xlink:title="no3.SetStep">
<ellipse fill="green" stroke="black" cx="1017.49" cy="-18" rx="67.69" ry="18"/>
<text text-anchor="middle" x="1017.49" y="-14.3" font-family="Times,serif" font-size="14.00">no3.SetStep</text>
</a>
</g>
</g>
<!-- no3..L801CCC94&#45;&gt;no3.SetStep -->
<g id="edge5" class="edge">
<title>no3..L801CCC94&#45;&gt;no3.SetStep</title>
<path fill="none" stroke="black" d="M929.79,-179.93C946.81,-148.7 983.07,-82.17 1003.23,-45.18"/>
<polygon fill="black" stroke="black" points="1006.51,-46.47 1008.22,-36.02 1000.36,-43.12 1006.51,-46.47"/>
<text text-anchor="middle" x="1003.22" y="-39.82" font-family="Times,serif" font-size="14.00">2</text>
</g>
<!-- no3.UnkCollisionFunc2 -->
<g id="node7" class="node">
<title>no3.UnkCollisionFunc2</title>
<g id="a_node7"><a xlink:href="no3.UnkCollisionFunc2.svg" xlink:title="no3.UnkCollisionFunc2">
<ellipse fill="green" stroke="black" cx="1221.49" cy="-18" rx="118.08" ry="18"/>
<text text-anchor="middle" x="1221.49" y="-14.3" font-family="Times,serif" font-size="14.00">no3.UnkCollisionFunc2</text>
</a>
</g>
</g>
<!-- no3..L801CCC94&#45;&gt;no3.UnkCollisionFunc2 -->
<g id="edge6" class="edge">
<title>no3..L801CCC94&#45;&gt;no3.UnkCollisionFunc2</title>
<path fill="none" stroke="black" d="M948,-180.73C1002.25,-148.65 1123.07,-77.2 1184.33,-40.97"/>
<polygon fill="black" stroke="black" points="1186.45,-43.79 1193.28,-35.68 1182.89,-37.76 1186.45,-43.79"/>
<text text-anchor="middle" x="1188.28" y="-39.48" font-family="Times,serif" font-size="14.00">1</text>
</g>
<!-- no3.func_801CC6F8 -->
<g id="node8" class="node">
<title>no3.func_801CC6F8</title>
<g id="a_node8"><a xlink:href="no3.func_801CC6F8.svg" xlink:title="no3.func_801CC6F8">
<ellipse fill="green" stroke="black" cx="1462.49" cy="-18" rx="104.78" ry="18"/>
<text text-anchor="middle" x="1462.49" y="-14.3" font-family="Times,serif" font-size="14.00">no3.func_801CC6F8</text>
</a>
</g>
</g>
<!-- no3..L801CCC94&#45;&gt;no3.func_801CC6F8 -->
<g id="edge7" class="edge">
<title>no3..L801CCC94&#45;&gt;no3.func_801CC6F8</title>
<path fill="none" stroke="black" d="M965.31,-182.28C1063.69,-149.97 1298.36,-72.9 1406.35,-37.44"/>
<polygon fill="black" stroke="black" points="1407.68,-40.68 1416.09,-34.24 1405.5,-34.03 1407.68,-40.68"/>
<text text-anchor="middle" x="1411.09" y="-38.04" font-family="Times,serif" font-size="14.00">1</text>
</g>
<!-- no3.func_801CC90C -->
<g id="node9" class="node">
<title>no3.func_801CC90C</title>
<g id="a_node9"><a xlink:href="no3.func_801CC90C.svg" xlink:title="no3.func_801CC90C">
<ellipse fill="green" stroke="black" cx="1689.49" cy="-18" rx="104.78" ry="18"/>
<text text-anchor="middle" x="1689.49" y="-14.3" font-family="Times,serif" font-size="14.00">no3.func_801CC90C</text>
</a>
</g>
</g>
<!-- no3..L801CCC94&#45;&gt;no3.func_801CC90C -->
<g id="edge8" class="edge">
<title>no3..L801CCC94&#45;&gt;no3.func_801CC90C</title>
<path fill="none" stroke="black" d="M976.73,-183.98C1114.48,-152.1 1468.54,-70.14 1619.55,-35.19"/>
<polygon fill="black" stroke="black" points="1620.68,-38.52 1629.64,-32.85 1619.1,-31.7 1620.68,-38.52"/>
<text text-anchor="middle" x="1624.64" y="-36.65" font-family="Times,serif" font-size="14.00">1</text>
</g>
</g>
</svg>
