<?xml version="1.0" encoding="UTF-8" standalone="no"?>
<!DOCTYPE svg PUBLIC "-//W3C//DTD SVG 1.1//EN"
 "http://www.w3.org/Graphics/SVG/1.1/DTD/svg11.dtd">
<!-- Generated by graphviz version 2.43.0 (0)
 -->
<!-- Title: no3.GetDistanceToPlayerX Pages: 1 -->
<svg width="2538pt" height="224pt"
 viewBox="0.00 0.00 2537.68 224.00" xmlns="http://www.w3.org/2000/svg" xmlns:xlink="http://www.w3.org/1999/xlink">
<g id="graph0" class="graph" transform="scale(1 1) rotate(0) translate(4 220)">
<title>no3.GetDistanceToPlayerX</title>
<polygon fill="white" stroke="transparent" points="-4,4 -4,-220 2533.68,-220 2533.68,4 -4,4"/>
<!-- no3.GetDistanceToPlayerX -->
<g id="node1" class="node">
<title>no3.GetDistanceToPlayerX</title>
<ellipse fill="green" stroke="black" cx="1268.04" cy="-18" rx="134.58" ry="18"/>
<text text-anchor="middle" x="1268.04" y="-14.3" font-family="Times,serif" font-size="14.00">no3.GetDistanceToPlayerX</text>
</g>
<!-- no3..L801CF97C -->
<g id="node2" class="node">
<title>no3..L801CF97C</title>
<g id="a_node2"><a xlink:href="no3..L801CF97C.svg" xlink:title="no3..L801CF97C">
<ellipse fill="green" stroke="black" cx="89.04" cy="-198" rx="89.08" ry="18"/>
<text text-anchor="middle" x="89.04" y="-194.3" font-family="Times,serif" font-size="14.00">no3..L801CF97C</text>
</a>
</g>
</g>
<!-- no3..L801CF97C&#45;&gt;no3.GetDistanceToPlayerX -->
<g id="edge1" class="edge">
<title>no3..L801CF97C&#45;&gt;no3.GetDistanceToPlayerX</title>
<path fill="none" stroke="black" d="M153.58,-185.58C164.73,-183.67 176.22,-181.74 187.04,-180 548.21,-121.79 978.51,-59.94 1168.96,-32.95"/>
<polygon fill="black" stroke="black" points="1169.54,-36.4 1178.95,-31.53 1168.56,-29.47 1169.54,-36.4"/>
<text text-anchor="middle" x="148.58" y="-174.38" font-family="Times,serif" font-size="14.00">1</text>
</g>
<!-- no3.BoneScimitarAttackCheck -->
<g id="node3" class="node">
<title>no3.BoneScimitarAttackCheck</title>
<g id="a_node3"><a xlink:href="no3.BoneScimitarAttackCheck.svg" xlink:title="no3.BoneScimitarAttackCheck">
<ellipse fill="green" stroke="black" cx="347.04" cy="-198" rx="151.37" ry="18"/>
<text text-anchor="middle" x="347.04" y="-194.3" font-family="Times,serif" font-size="14.00">no3.BoneScimitarAttackCheck</text>
</a>
</g>
</g>
<!-- no3.BoneScimitarAttackCheck&#45;&gt;no3.GetDistanceToPlayerX -->
<g id="edge2" class="edge">
<title>no3.BoneScimitarAttackCheck&#45;&gt;no3.GetDistanceToPlayerX</title>
<path fill="none" stroke="black" d="M422.8,-182.36C593.54,-149.36 1007.3,-69.39 1184.85,-35.08"/>
<polygon fill="black" stroke="black" points="1185.77,-38.47 1194.92,-33.13 1184.44,-31.59 1185.77,-38.47"/>
<text text-anchor="middle" x="417.8" y="-171.16" font-family="Times,serif" font-size="14.00">1</text>
</g>
<!-- no3.EntityBat -->
<g id="node4" class="node">
<title>no3.EntityBat</title>
<g id="a_node4"><a xlink:href="no3.EntityBat.svg" xlink:title="no3.EntityBat">
<ellipse fill="green" stroke="black" cx="592.04" cy="-198" rx="75.29" ry="18"/>
<text text-anchor="middle" x="592.04" y="-194.3" font-family="Times,serif" font-size="14.00">no3.EntityBat</text>
</a>
</g>
</g>
<!-- no3.EntityBat&#45;&gt;no3.GetDistanceToPlayerX -->
<g id="edge3" class="edge">
<title>no3.EntityBat&#45;&gt;no3.GetDistanceToPlayerX</title>
<path fill="none" stroke="black" d="M640.66,-184.2C759.24,-152.97 1063.58,-72.84 1200.05,-36.9"/>
<polygon fill="black" stroke="black" points="1201.19,-40.22 1209.97,-34.29 1199.41,-33.45 1201.19,-40.22"/>
<text text-anchor="middle" x="635.66" y="-173" font-family="Times,serif" font-size="14.00">1</text>
</g>
<!-- no3.EntityBoneScimitar -->
<g id="node5" class="node">
<title>no3.EntityBoneScimitar</title>
<g id="a_node5"><a xlink:href="no3.EntityBoneScimitar.svg" xlink:title="no3.EntityBoneScimitar">
<ellipse fill="green" stroke="black" cx="808.04" cy="-198" rx="122.38" ry="18"/>
<text text-anchor="middle" x="808.04" y="-194.3" font-family="Times,serif" font-size="14.00">no3.EntityBoneScimitar</text>
</a>
</g>
</g>
<!-- no3.EntityBoneScimitar&#45;&gt;no3.GetDistanceToPlayerX -->
<g id="edge4" class="edge">
<title>no3.EntityBoneScimitar&#45;&gt;no3.GetDistanceToPlayerX</title>
<path fill="none" stroke="black" d="M849.27,-181.05C933.4,-148.49 1124.66,-74.48 1216.69,-38.87"/>
<polygon fill="black" stroke="black" points="1218.02,-42.11 1226.08,-35.24 1215.49,-35.58 1218.02,-42.11"/>
<text text-anchor="middle" x="844.27" y="-169.85" font-family="Times,serif" font-size="14.00">3</text>
</g>
<!-- no3.EntityMerman -->
<g id="node6" class="node">
<title>no3.EntityMerman</title>
<g id="a_node6"><a xlink:href="no3.EntityMerman.svg" xlink:title="no3.EntityMerman">
<ellipse fill="green" stroke="black" cx="1047.04" cy="-198" rx="98.58" ry="18"/>
<text text-anchor="middle" x="1047.04" y="-194.3" font-family="Times,serif" font-size="14.00">no3.EntityMerman</text>
</a>
</g>
</g>
<!-- no3.EntityMerman&#45;&gt;no3.GetDistanceToPlayerX -->
<g id="edge5" class="edge">
<title>no3.EntityMerman&#45;&gt;no3.GetDistanceToPlayerX</title>
<path fill="none" stroke="black" d="M1067.83,-180.25C1107.49,-148.32 1193.99,-78.65 1239.2,-42.23"/>
<polygon fill="black" stroke="black" points="1241.55,-44.83 1247.15,-35.83 1237.16,-39.38 1241.55,-44.83"/>
<text text-anchor="middle" x="1062.83" y="-169.05" font-family="Times,serif" font-size="14.00">1</text>
</g>
<!-- no3.EntityMerman2 -->
<g id="node7" class="node">
<title>no3.EntityMerman2</title>
<g id="a_node7"><a xlink:href="no3.EntityMerman2.svg" xlink:title="no3.EntityMerman2">
<ellipse fill="green" stroke="black" cx="1268.04" cy="-198" rx="104.78" ry="18"/>
<text text-anchor="middle" x="1268.04" y="-194.3" font-family="Times,serif" font-size="14.00">no3.EntityMerman2</text>
</a>
</g>
</g>
<!-- no3.EntityMerman2&#45;&gt;no3.GetDistanceToPlayerX -->
<g id="edge6" class="edge">
<title>no3.EntityMerman2&#45;&gt;no3.GetDistanceToPlayerX</title>
<path fill="none" stroke="black" d="M1268.04,-179.93C1268.04,-148.97 1268.04,-83.3 1268.04,-46.13"/>
<polygon fill="black" stroke="black" points="1271.54,-46.02 1268.04,-36.02 1264.54,-46.02 1271.54,-46.02"/>
<text text-anchor="middle" x="1263.04" y="-168.73" font-family="Times,serif" font-size="14.00">1</text>
</g>
<!-- no3.EntityStrongWarg -->
<g id="node8" class="node">
<title>no3.EntityStrongWarg</title>
<g id="a_node8"><a xlink:href="no3.EntityStrongWarg.svg" xlink:title="no3.EntityStrongWarg">
<ellipse fill="red" stroke="black" cx="1506.04" cy="-198" rx="115.88" ry="18"/>
<text text-anchor="middle" x="1506.04" y="-194.3" font-family="Times,serif" font-size="14.00">no3.EntityStrongWarg</text>
</a>
</g>
</g>
<!-- no3.EntityStrongWarg&#45;&gt;no3.GetDistanceToPlayerX -->
<g id="edge7" class="edge">
<title>no3.EntityStrongWarg&#45;&gt;no3.GetDistanceToPlayerX</title>
<path fill="none" stroke="black" d="M1483.65,-180.25C1440.86,-148.25 1347.41,-78.36 1298.8,-42"/>
<polygon fill="black" stroke="black" points="1300.65,-39.02 1290.55,-35.83 1296.46,-44.62 1300.65,-39.02"/>
<text text-anchor="middle" x="1478.65" y="-169.05" font-family="Times,serif" font-size="14.00">2</text>
</g>
<!-- no3.func_801CC6F8 -->
<g id="node9" class="node">
<title>no3.func_801CC6F8</title>
<g id="a_node9"><a xlink:href="no3.func_801CC6F8.svg" xlink:title="no3.func_801CC6F8">
<ellipse fill="green" stroke="black" cx="1744.04" cy="-198" rx="104.78" ry="18"/>
<text text-anchor="middle" x="1744.04" y="-194.3" font-family="Times,serif" font-size="14.00">no3.func_801CC6F8</text>
</a>
</g>
</g>
<!-- no3.func_801CC6F8&#45;&gt;no3.GetDistanceToPlayerX -->
<g id="edge8" class="edge">
<title>no3.func_801CC6F8&#45;&gt;no3.GetDistanceToPlayerX</title>
<path fill="none" stroke="black" d="M1702.22,-181.36C1615.47,-148.92 1416.14,-74.38 1320.76,-38.72"/>
<polygon fill="black" stroke="black" points="1321.91,-35.41 1311.31,-35.18 1319.45,-41.96 1321.91,-35.41"/>
<text text-anchor="middle" x="1697.22" y="-170.16" font-family="Times,serif" font-size="14.00">1</text>
</g>
<!-- no3.func_801CC820 -->
<g id="node10" class="node">
<title>no3.func_801CC820</title>
<g id="a_node10"><a xlink:href="no3.func_801CC820.svg" xlink:title="no3.func_801CC820">
<ellipse fill="green" stroke="black" cx="1971.04" cy="-198" rx="103.98" ry="18"/>
<text text-anchor="middle" x="1971.04" y="-194.3" font-family="Times,serif" font-size="14.00">no3.func_801CC820</text>
</a>
</g>
</g>
<!-- no3.func_801CC820&#45;&gt;no3.GetDistanceToPlayerX -->
<g id="edge9" class="edge">
<title>no3.func_801CC820&#45;&gt;no3.GetDistanceToPlayerX</title>
<path fill="none" stroke="black" d="M1915,-182.81C1787.69,-150.58 1477.01,-71.91 1337.67,-36.63"/>
<polygon fill="black" stroke="black" points="1338.49,-33.23 1327.94,-34.17 1336.77,-40.01 1338.49,-33.23"/>
<text text-anchor="middle" x="1910" y="-171.61" font-family="Times,serif" font-size="14.00">1</text>
</g>
<!-- no3.func_801CC90C -->
<g id="node11" class="node">
<title>no3.func_801CC90C</title>
<g id="a_node11"><a xlink:href="no3.func_801CC90C.svg" xlink:title="no3.func_801CC90C">
<ellipse fill="green" stroke="black" cx="2198.04" cy="-198" rx="104.78" ry="18"/>
<text text-anchor="middle" x="2198.04" y="-194.3" font-family="Times,serif" font-size="14.00">no3.func_801CC90C</text>
</a>
</g>
</g>
<!-- no3.func_801CC90C&#45;&gt;no3.GetDistanceToPlayerX -->
<g id="edge10" class="edge">
<title>no3.func_801CC90C&#45;&gt;no3.GetDistanceToPlayerX</title>
<path fill="none" stroke="black" d="M2130.78,-184.13C1964.53,-152.31 1534.51,-70 1351.97,-35.06"/>
<polygon fill="black" stroke="black" points="1352.36,-31.58 1341.88,-33.13 1351.05,-38.45 1352.36,-31.58"/>
<text text-anchor="middle" x="2125.78" y="-172.93" font-family="Times,serif" font-size="14.00">1</text>
</g>
<!-- no3.func_801CF6D8 -->
<g id="node12" class="node">
<title>no3.func_801CF6D8</title>
<g id="a_node12"><a xlink:href="no3.func_801CF6D8.svg" xlink:title="no3.func_801CF6D8">
<ellipse fill="green" stroke="black" cx="2425.04" cy="-198" rx="104.78" ry="18"/>
<text text-anchor="middle" x="2425.04" y="-194.3" font-family="Times,serif" font-size="14.00">no3.func_801CF6D8</text>
</a>
</g>
</g>
<!-- no3.func_801CF6D8&#45;&gt;no3.GetDistanceToPlayerX -->
<g id="edge11" class="edge">
<title>no3.func_801CF6D8&#45;&gt;no3.GetDistanceToPlayerX</title>
<path fill="none" stroke="black" d="M2349.57,-185.39C2146.23,-154.11 1587.17,-68.1 1362.93,-33.6"/>
<polygon fill="black" stroke="black" points="1363.25,-30.11 1352.83,-32.04 1362.18,-37.02 1363.25,-30.11"/>
<text text-anchor="middle" x="2344.57" y="-174.19" font-family="Times,serif" font-size="14.00">1</text>
</g>
</g>
</svg>
