<?xml version="1.0" encoding="UTF-8" standalone="no"?>
<!DOCTYPE svg PUBLIC "-//W3C//DTD SVG 1.1//EN"
 "http://www.w3.org/Graphics/SVG/1.1/DTD/svg11.dtd">
<!-- Generated by graphviz version 2.43.0 (0)
 -->
<!-- Title: no4.EntityExplosionSpawn Pages: 1 -->
<svg width="822pt" height="404pt"
 viewBox="0.00 0.00 821.78 404.00" xmlns="http://www.w3.org/2000/svg" xmlns:xlink="http://www.w3.org/1999/xlink">
<g id="graph0" class="graph" transform="scale(1 1) rotate(0) translate(4 400)">
<title>no4.EntityExplosionSpawn</title>
<polygon fill="white" stroke="transparent" points="-4,4 -4,-400 817.78,-400 817.78,4 -4,4"/>
<!-- no4.EntityExplosionSpawn -->
<g id="node1" class="node">
<title>no4.EntityExplosionSpawn</title>
<ellipse fill="green" stroke="black" cx="400.64" cy="-198" rx="135.68" ry="18"/>
<text text-anchor="middle" x="400.64" y="-194.3" font-family="Times,serif" font-size="14.00">no4.EntityExplosionSpawn</text>
</g>
<!-- no4.DestroyEntity -->
<g id="node2" class="node">
<title>no4.DestroyEntity</title>
<g id="a_node2"><a xlink:href="no4.DestroyEntity.svg" xlink:title="no4.DestroyEntity">
<ellipse fill="green" stroke="black" cx="288.64" cy="-18" rx="96.38" ry="18"/>
<text text-anchor="middle" x="288.64" y="-14.3" font-family="Times,serif" font-size="14.00">no4.DestroyEntity</text>
</a>
</g>
</g>
<!-- no4.EntityExplosionSpawn&#45;&gt;no4.DestroyEntity -->
<g id="edge1" class="edge">
<title>no4.EntityExplosionSpawn&#45;&gt;no4.DestroyEntity</title>
<path fill="none" stroke="black" d="M389.9,-179.93C370.17,-148.57 328.03,-81.6 304.82,-44.71"/>
<polygon fill="black" stroke="black" points="307.63,-42.62 299.35,-36.02 301.71,-46.34 307.63,-42.62"/>
<text text-anchor="middle" x="294.35" y="-39.82" font-family="Times,serif" font-size="14.00">1</text>
</g>
<!-- no4.PlaySfxPositional -->
<g id="node3" class="node">
<title>no4.PlaySfxPositional</title>
<g id="a_node3"><a xlink:href="no4.PlaySfxPositional.svg" xlink:title="no4.PlaySfxPositional">
<ellipse fill="green" stroke="black" cx="513.64" cy="-18" rx="111.28" ry="18"/>
<text text-anchor="middle" x="513.64" y="-14.3" font-family="Times,serif" font-size="14.00">no4.PlaySfxPositional</text>
</a>
</g>
</g>
<!-- no4.EntityExplosionSpawn&#45;&gt;no4.PlaySfxPositional -->
<g id="edge2" class="edge">
<title>no4.EntityExplosionSpawn&#45;&gt;no4.PlaySfxPositional</title>
<path fill="none" stroke="black" d="M411.47,-179.93C431.39,-148.57 473.9,-81.6 497.32,-44.71"/>
<polygon fill="black" stroke="black" points="500.43,-46.33 502.84,-36.02 494.52,-42.58 500.43,-46.33"/>
<text text-anchor="middle" x="497.84" y="-39.82" font-family="Times,serif" font-size="14.00">1</text>
</g>
<!-- no4.EntitySkeletonApe -->
<g id="node4" class="node">
<title>no4.EntitySkeletonApe</title>
<g id="a_node4"><a xlink:href="no4.EntitySkeletonApe.svg" xlink:title="no4.EntitySkeletonApe">
<ellipse fill="green" stroke="black" cx="117.64" cy="-378" rx="117.78" ry="18"/>
<text text-anchor="middle" x="117.64" y="-374.3" font-family="Times,serif" font-size="14.00">no4.EntitySkeletonApe</text>
</a>
</g>
</g>
<!-- no4.EntitySkeletonApe&#45;&gt;no4.EntityExplosionSpawn -->
<g id="edge3" class="edge">
<title>no4.EntitySkeletonApe&#45;&gt;no4.EntityExplosionSpawn</title>
<path fill="none" stroke="black" d="M144.01,-360.41C195.07,-328.3 307.45,-257.61 365.06,-221.38"/>
<polygon fill="black" stroke="black" points="367.22,-224.16 373.82,-215.87 363.49,-218.23 367.22,-224.16"/>
<text text-anchor="middle" x="139.01" y="-349.21" font-family="Times,serif" font-size="14.00">1</text>
</g>
<!-- no4.EntitySkeletonApeBarrel -->
<g id="node5" class="node">
<title>no4.EntitySkeletonApeBarrel</title>
<g id="a_node5"><a xlink:href="no4.EntitySkeletonApeBarrel.svg" xlink:title="no4.EntitySkeletonApeBarrel">
<ellipse fill="green" stroke="black" cx="400.64" cy="-378" rx="146.77" ry="18"/>
<text text-anchor="middle" x="400.64" y="-374.3" font-family="Times,serif" font-size="14.00">no4.EntitySkeletonApeBarrel</text>
</a>
</g>
</g>
<!-- no4.EntitySkeletonApeBarrel&#45;&gt;no4.EntityExplosionSpawn -->
<g id="edge4" class="edge">
<title>no4.EntitySkeletonApeBarrel&#45;&gt;no4.EntityExplosionSpawn</title>
<path fill="none" stroke="black" d="M400.64,-359.93C400.64,-328.97 400.64,-263.3 400.64,-226.13"/>
<polygon fill="black" stroke="black" points="404.14,-226.02 400.64,-216.02 397.14,-226.02 404.14,-226.02"/>
<text text-anchor="middle" x="395.64" y="-348.73" font-family="Times,serif" font-size="14.00">1</text>
</g>
<!-- no4.EntityThrownBarrel -->
<g id="node6" class="node">
<title>no4.EntityThrownBarrel</title>
<g id="a_node6"><a xlink:href="no4.EntityThrownBarrel.svg" xlink:title="no4.EntityThrownBarrel">
<ellipse fill="green" stroke="black" cx="689.64" cy="-378" rx="124.28" ry="18"/>
<text text-anchor="middle" x="689.64" y="-374.3" font-family="Times,serif" font-size="14.00">no4.EntityThrownBarrel</text>
</a>
</g>
</g>
<!-- no4.EntityThrownBarrel&#45;&gt;no4.EntityExplosionSpawn -->
<g id="edge5" class="edge">
<title>no4.EntityThrownBarrel&#45;&gt;no4.EntityExplosionSpawn</title>
<path fill="none" stroke="black" d="M662.71,-360.41C610.46,-328.23 495.33,-257.32 436.61,-221.15"/>
<polygon fill="black" stroke="black" points="438.38,-218.13 428.03,-215.87 434.71,-224.09 438.38,-218.13"/>
<text text-anchor="middle" x="657.71" y="-349.21" font-family="Times,serif" font-size="14.00">2</text>
</g>
</g>
</svg>
