<?xml version="1.0" encoding="UTF-8" standalone="no"?>
<!DOCTYPE svg PUBLIC "-//W3C//DTD SVG 1.1//EN"
 "http://www.w3.org/Graphics/SVG/1.1/DTD/svg11.dtd">
<!-- Generated by graphviz version 2.43.0 (0)
 -->
<!-- Title: no4.AllocEntity Pages: 1 -->
<svg width="8468pt" height="404pt"
 viewBox="0.00 0.00 8468.08 404.00" xmlns="http://www.w3.org/2000/svg" xmlns:xlink="http://www.w3.org/1999/xlink">
<g id="graph0" class="graph" transform="scale(1 1) rotate(0) translate(4 400)">
<title>no4.AllocEntity</title>
<polygon fill="white" stroke="transparent" points="-4,4 -4,-400 8464.08,-400 8464.08,4 -4,4"/>
<!-- no4.AllocEntity -->
<g id="node1" class="node">
<title>no4.AllocEntity</title>
<ellipse fill="green" stroke="black" cx="4536.14" cy="-198" rx="81.79" ry="18"/>
<text text-anchor="middle" x="4536.14" y="-194.3" font-family="Times,serif" font-size="14.00">no4.AllocEntity</text>
</g>
<!-- no4.DestroyEntity -->
<g id="node2" class="node">
<title>no4.DestroyEntity</title>
<g id="a_node2"><a xlink:href="no4.DestroyEntity.svg" xlink:title="no4.DestroyEntity">
<ellipse fill="green" stroke="black" cx="4536.14" cy="-18" rx="96.38" ry="18"/>
<text text-anchor="middle" x="4536.14" y="-14.3" font-family="Times,serif" font-size="14.00">no4.DestroyEntity</text>
</a>
</g>
</g>
<!-- no4.AllocEntity&#45;&gt;no4.DestroyEntity -->
<g id="edge1" class="edge">
<title>no4.AllocEntity&#45;&gt;no4.DestroyEntity</title>
<path fill="none" stroke="black" d="M4536.14,-179.93C4536.14,-148.97 4536.14,-83.3 4536.14,-46.13"/>
<polygon fill="black" stroke="black" points="4539.64,-46.02 4536.14,-36.02 4532.64,-46.02 4539.64,-46.02"/>
<text text-anchor="middle" x="4531.14" y="-39.82" font-family="Times,serif" font-size="14.00">1</text>
</g>
<!-- no4.EntityAlucardWaterEffect -->
<g id="node3" class="node">
<title>no4.EntityAlucardWaterEffect</title>
<g id="a_node3"><a xlink:href="no4.EntityAlucardWaterEffect.svg" xlink:title="no4.EntityAlucardWaterEffect">
<ellipse fill="green" stroke="black" cx="150.14" cy="-378" rx="150.27" ry="18"/>
<text text-anchor="middle" x="150.14" y="-374.3" font-family="Times,serif" font-size="14.00">no4.EntityAlucardWaterEffect</text>
</a>
</g>
</g>
<!-- no4.EntityAlucardWaterEffect&#45;&gt;no4.AllocEntity -->
<g id="edge2" class="edge">
<title>no4.EntityAlucardWaterEffect&#45;&gt;no4.AllocEntity</title>
<path fill="none" stroke="black" d="M253.76,-364.95C272.5,-363.07 291.89,-361.32 310.14,-360 1966.26,-240.61 3994.3,-206.51 4444.72,-200.19"/>
<polygon fill="black" stroke="black" points="4444.8,-203.69 4454.75,-200.05 4444.7,-196.69 4444.8,-203.69"/>
<text text-anchor="middle" x="248.76" y="-353.75" font-family="Times,serif" font-size="14.00">6</text>
</g>
<!-- no4.EntityBat -->
<g id="node4" class="node">
<title>no4.EntityBat</title>
<g id="a_node4"><a xlink:href="no4.EntityBat.svg" xlink:title="no4.EntityBat">
<ellipse fill="green" stroke="black" cx="394.14" cy="-378" rx="75.29" ry="18"/>
<text text-anchor="middle" x="394.14" y="-374.3" font-family="Times,serif" font-size="14.00">no4.EntityBat</text>
</a>
</g>
</g>
<!-- no4.EntityBat&#45;&gt;no4.AllocEntity -->
<g id="edge3" class="edge">
<title>no4.EntityBat&#45;&gt;no4.AllocEntity</title>
<path fill="none" stroke="black" d="M446.98,-365.09C457.58,-363.08 468.68,-361.25 479.14,-360 1284.42,-264.1 3919.66,-210.53 4444.68,-200.67"/>
<polygon fill="black" stroke="black" points="4444.91,-204.16 4454.85,-200.48 4444.78,-197.16 4444.91,-204.16"/>
<text text-anchor="middle" x="441.98" y="-353.89" font-family="Times,serif" font-size="14.00">1</text>
</g>
<!-- no4.EntityBoneArcher -->
<g id="node5" class="node">
<title>no4.EntityBoneArcher</title>
<g id="a_node5"><a xlink:href="no4.EntityBoneArcher.svg" xlink:title="no4.EntityBoneArcher">
<ellipse fill="green" stroke="black" cx="602.14" cy="-378" rx="114.28" ry="18"/>
<text text-anchor="middle" x="602.14" y="-374.3" font-family="Times,serif" font-size="14.00">no4.EntityBoneArcher</text>
</a>
</g>
</g>
<!-- no4.EntityBoneArcher&#45;&gt;no4.AllocEntity -->
<g id="edge4" class="edge">
<title>no4.EntityBoneArcher&#45;&gt;no4.AllocEntity</title>
<path fill="none" stroke="black" d="M681.39,-365.01C696.23,-363.08 711.64,-361.3 726.14,-360 2206.45,-227.55 4020.34,-203.59 4444.46,-199.7"/>
<polygon fill="black" stroke="black" points="4444.55,-203.2 4454.51,-199.61 4444.48,-196.2 4444.55,-203.2"/>
<text text-anchor="middle" x="676.39" y="-353.81" font-family="Times,serif" font-size="14.00">4</text>
</g>
<!-- no4.EntityBoneArcherArrow -->
<g id="node6" class="node">
<title>no4.EntityBoneArcherArrow</title>
<g id="a_node6"><a xlink:href="no4.EntityBoneArcherArrow.svg" xlink:title="no4.EntityBoneArcherArrow">
<ellipse fill="green" stroke="black" cx="877.14" cy="-378" rx="142.17" ry="18"/>
<text text-anchor="middle" x="877.14" y="-374.3" font-family="Times,serif" font-size="14.00">no4.EntityBoneArcherArrow</text>
</a>
</g>
</g>
<!-- no4.EntityBoneArcherArrow&#45;&gt;no4.AllocEntity -->
<g id="edge5" class="edge">
<title>no4.EntityBoneArcherArrow&#45;&gt;no4.AllocEntity</title>
<path fill="none" stroke="black" d="M975.73,-364.95C993.17,-363.09 1011.17,-361.34 1028.14,-360 2384.68,-252.63 4042.43,-210.1 4444.95,-200.96"/>
<polygon fill="black" stroke="black" points="4445.15,-204.46 4455.07,-200.73 4445,-197.46 4445.15,-204.46"/>
<text text-anchor="middle" x="970.73" y="-353.75" font-family="Times,serif" font-size="14.00">1</text>
</g>
<!-- no4.EntityBreakable -->
<g id="node7" class="node">
<title>no4.EntityBreakable</title>
<g id="a_node7"><a xlink:href="no4.EntityBreakable.svg" xlink:title="no4.EntityBreakable">
<ellipse fill="green" stroke="black" cx="1144.14" cy="-378" rx="106.68" ry="18"/>
<text text-anchor="middle" x="1144.14" y="-374.3" font-family="Times,serif" font-size="14.00">no4.EntityBreakable</text>
</a>
</g>
</g>
<!-- no4.EntityBreakable&#45;&gt;no4.AllocEntity -->
<g id="edge6" class="edge">
<title>no4.EntityBreakable&#45;&gt;no4.AllocEntity</title>
<path fill="none" stroke="black" d="M1218.27,-365.05C1232.15,-363.12 1246.56,-361.32 1260.14,-360 2518.13,-237.2 4057.51,-206.31 4444.55,-200.27"/>
<polygon fill="black" stroke="black" points="4444.63,-203.77 4454.57,-200.11 4444.52,-196.77 4444.63,-203.77"/>
<text text-anchor="middle" x="1213.27" y="-353.85" font-family="Times,serif" font-size="14.00">4</text>
</g>
<!-- no4.EntityBreakableCrystalFloor -->
<g id="node8" class="node">
<title>no4.EntityBreakableCrystalFloor</title>
<g id="a_node8"><a xlink:href="no4.EntityBreakableCrystalFloor.svg" xlink:title="no4.EntityBreakableCrystalFloor">
<ellipse fill="green" stroke="black" cx="1433.14" cy="-378" rx="164.37" ry="18"/>
<text text-anchor="middle" x="1433.14" y="-374.3" font-family="Times,serif" font-size="14.00">no4.EntityBreakableCrystalFloor</text>
</a>
</g>
</g>
<!-- no4.EntityBreakableCrystalFloor&#45;&gt;no4.AllocEntity -->
<g id="edge7" class="edge">
<title>no4.EntityBreakableCrystalFloor&#45;&gt;no4.AllocEntity</title>
<path fill="none" stroke="black" d="M1548.2,-365.06C1567.85,-363.22 1588.07,-361.45 1607.14,-360 2725.6,-274.66 4087.66,-216.99 4446.2,-202.55"/>
<polygon fill="black" stroke="black" points="4446.41,-206.04 4456.26,-202.14 4446.13,-199.05 4446.41,-206.04"/>
<text text-anchor="middle" x="1543.2" y="-353.86" font-family="Times,serif" font-size="14.00">2</text>
</g>
<!-- no4.EntityBreakableWall -->
<g id="node9" class="node">
<title>no4.EntityBreakableWall</title>
<g id="a_node9"><a xlink:href="no4.EntityBreakableWall.svg" xlink:title="no4.EntityBreakableWall">
<ellipse fill="green" stroke="black" cx="1742.14" cy="-378" rx="126.18" ry="18"/>
<text text-anchor="middle" x="1742.14" y="-374.3" font-family="Times,serif" font-size="14.00">no4.EntityBreakableWall</text>
</a>
</g>
</g>
<!-- no4.EntityBreakableWall&#45;&gt;no4.AllocEntity -->
<g id="edge8" class="edge">
<title>no4.EntityBreakableWall&#45;&gt;no4.AllocEntity</title>
<path fill="none" stroke="black" d="M1830.28,-365.07C1845.87,-363.19 1861.97,-361.41 1877.14,-360 2882.66,-266.35 4107.42,-215.32 4445.82,-202.34"/>
<polygon fill="black" stroke="black" points="4446.19,-205.83 4456.05,-201.95 4445.92,-198.84 4446.19,-205.83"/>
<text text-anchor="middle" x="1825.28" y="-353.87" font-family="Times,serif" font-size="14.00">2</text>
</g>
<!-- no4.EntityBreakableWallDebris -->
<g id="node10" class="node">
<title>no4.EntityBreakableWallDebris</title>
<g id="a_node10"><a xlink:href="no4.EntityBreakableWallDebris.svg" xlink:title="no4.EntityBreakableWallDebris">
<ellipse fill="green" stroke="black" cx="2043.14" cy="-378" rx="157.07" ry="18"/>
<text text-anchor="middle" x="2043.14" y="-374.3" font-family="Times,serif" font-size="14.00">no4.EntityBreakableWallDebris</text>
</a>
</g>
</g>
<!-- no4.EntityBreakableWallDebris&#45;&gt;no4.AllocEntity -->
<g id="edge9" class="edge">
<title>no4.EntityBreakableWallDebris&#45;&gt;no4.AllocEntity</title>
<path fill="none" stroke="black" d="M2153.81,-365.15C2172.28,-363.32 2191.24,-361.54 2209.14,-360 3081.08,-285.21 4139.16,-221.96 4447.75,-204.06"/>
<polygon fill="black" stroke="black" points="4448.19,-207.54 4457.97,-203.47 4447.79,-200.55 4448.19,-207.54"/>
<text text-anchor="middle" x="2148.81" y="-353.95" font-family="Times,serif" font-size="14.00">1</text>
</g>
<!-- no4.EntityExplosionVariantsSpawner -->
<g id="node11" class="node">
<title>no4.EntityExplosionVariantsSpawner</title>
<g id="a_node11"><a xlink:href="no4.EntityExplosionVariantsSpawner.svg" xlink:title="no4.EntityExplosionVariantsSpawner">
<ellipse fill="green" stroke="black" cx="2403.14" cy="-378" rx="184.67" ry="18"/>
<text text-anchor="middle" x="2403.14" y="-374.3" font-family="Times,serif" font-size="14.00">no4.EntityExplosionVariantsSpawner</text>
</a>
</g>
</g>
<!-- no4.EntityExplosionVariantsSpawner&#45;&gt;no4.AllocEntity -->
<g id="edge10" class="edge">
<title>no4.EntityExplosionVariantsSpawner&#45;&gt;no4.AllocEntity</title>
<path fill="none" stroke="black" d="M2534.88,-365.37C2555.71,-363.56 2577.01,-361.72 2597.14,-360 3313.65,-298.86 4179.38,-228.07 4450.65,-205.96"/>
<polygon fill="black" stroke="black" points="4451.13,-209.43 4460.81,-205.13 4450.56,-202.45 4451.13,-209.43"/>
<text text-anchor="middle" x="2529.88" y="-354.17" font-family="Times,serif" font-size="14.00">1</text>
</g>
<!-- no4.EntityFerrymanController -->
<g id="node12" class="node">
<title>no4.EntityFerrymanController</title>
<g id="a_node12"><a xlink:href="no4.EntityFerrymanController.svg" xlink:title="no4.EntityFerrymanController">
<ellipse fill="green" stroke="black" cx="2758.14" cy="-378" rx="152.17" ry="18"/>
<text text-anchor="middle" x="2758.14" y="-374.3" font-family="Times,serif" font-size="14.00">no4.EntityFerrymanController</text>
</a>
</g>
</g>
<!-- no4.EntityFerrymanController&#45;&gt;no4.AllocEntity -->
<g id="edge11" class="edge">
<title>no4.EntityFerrymanController&#45;&gt;no4.AllocEntity</title>
<path fill="none" stroke="black" d="M2867.25,-365.39C2884.6,-363.57 2902.36,-361.72 2919.14,-360 3506.37,-299.76 4213.92,-230.44 4452.79,-207.12"/>
<polygon fill="black" stroke="black" points="4453.18,-210.6 4462.79,-206.15 4452.5,-203.63 4453.18,-210.6"/>
<text text-anchor="middle" x="2862.25" y="-354.19" font-family="Times,serif" font-size="14.00">4</text>
</g>
<!-- no4.EntityFerrymanGateController -->
<g id="node13" class="node">
<title>no4.EntityFerrymanGateController</title>
<g id="a_node13"><a xlink:href="no4.EntityFerrymanGateController.svg" xlink:title="no4.EntityFerrymanGateController">
<ellipse fill="green" stroke="black" cx="3102.14" cy="-378" rx="174.37" ry="18"/>
<text text-anchor="middle" x="3102.14" y="-374.3" font-family="Times,serif" font-size="14.00">no4.EntityFerrymanGateController</text>
</a>
</g>
</g>
<!-- no4.EntityFerrymanGateController&#45;&gt;no4.AllocEntity -->
<g id="edge12" class="edge">
<title>no4.EntityFerrymanGateController&#45;&gt;no4.AllocEntity</title>
<path fill="none" stroke="black" d="M3209.04,-363.73C3484.6,-329.53 4214.38,-238.94 4456.68,-208.86"/>
<polygon fill="black" stroke="black" points="4457.33,-212.31 4466.82,-207.6 4456.46,-205.36 4457.33,-212.31"/>
<text text-anchor="middle" x="3204.04" y="-352.53" font-family="Times,serif" font-size="14.00">1</text>
</g>
<!-- no4.EntityFishhead -->
<g id="node14" class="node">
<title>no4.EntityFishhead</title>
<g id="a_node14"><a xlink:href="no4.EntityFishhead.svg" xlink:title="no4.EntityFishhead">
<ellipse fill="green" stroke="black" cx="3396.14" cy="-378" rx="102.08" ry="18"/>
<text text-anchor="middle" x="3396.14" y="-374.3" font-family="Times,serif" font-size="14.00">no4.EntityFishhead</text>
</a>
</g>
</g>
<!-- no4.EntityFishhead&#45;&gt;no4.AllocEntity -->
<g id="edge13" class="edge">
<title>no4.EntityFishhead&#45;&gt;no4.AllocEntity</title>
<path fill="none" stroke="black" d="M3470.06,-365.46C3675.9,-333.32 4254.15,-243.03 4461.21,-210.7"/>
<polygon fill="black" stroke="black" points="4462.03,-214.11 4471.37,-209.11 4460.95,-207.2 4462.03,-214.11"/>
<text text-anchor="middle" x="3465.06" y="-354.26" font-family="Times,serif" font-size="14.00">5</text>
</g>
<!-- no4.EntityFrog -->
<g id="node15" class="node">
<title>no4.EntityFrog</title>
<g id="a_node15"><a xlink:href="no4.EntityFrog.svg" xlink:title="no4.EntityFrog">
<ellipse fill="green" stroke="black" cx="3597.14" cy="-378" rx="81.49" ry="18"/>
<text text-anchor="middle" x="3597.14" y="-374.3" font-family="Times,serif" font-size="14.00">no4.EntityFrog</text>
</a>
</g>
</g>
<!-- no4.EntityFrog&#45;&gt;no4.AllocEntity -->
<g id="edge14" class="edge">
<title>no4.EntityFrog&#45;&gt;no4.AllocEntity</title>
<path fill="none" stroke="black" d="M3656.59,-365.73C3822.29,-334.32 4288.77,-245.89 4466.33,-212.23"/>
<polygon fill="black" stroke="black" points="4467.17,-215.64 4476.34,-210.34 4465.86,-208.76 4467.17,-215.64"/>
<text text-anchor="middle" x="3651.59" y="-354.53" font-family="Times,serif" font-size="14.00">1</text>
</g>
<!-- no4.EntityFrozenShade -->
<g id="node16" class="node">
<title>no4.EntityFrozenShade</title>
<g id="a_node16"><a xlink:href="no4.EntityFrozenShade.svg" xlink:title="no4.EntityFrozenShade">
<ellipse fill="green" stroke="black" cx="3816.14" cy="-378" rx="120.48" ry="18"/>
<text text-anchor="middle" x="3816.14" y="-374.3" font-family="Times,serif" font-size="14.00">no4.EntityFrozenShade</text>
</a>
</g>
</g>
<!-- no4.EntityFrozenShade&#45;&gt;no4.AllocEntity -->
<g id="edge15" class="edge">
<title>no4.EntityFrozenShade&#45;&gt;no4.AllocEntity</title>
<path fill="none" stroke="black" d="M3875.67,-362.28C4010.27,-329.01 4336.93,-248.25 4473.99,-214.37"/>
<polygon fill="black" stroke="black" points="4475.05,-217.71 4483.91,-211.91 4473.37,-210.91 4475.05,-217.71"/>
<text text-anchor="middle" x="3870.67" y="-351.08" font-family="Times,serif" font-size="14.00">1</text>
</g>
<!-- no4.EntityFrozenShadeIcicle -->
<g id="node17" class="node">
<title>no4.EntityFrozenShadeIcicle</title>
<g id="a_node17"><a xlink:href="no4.EntityFrozenShadeIcicle.svg" xlink:title="no4.EntityFrozenShadeIcicle">
<ellipse fill="green" stroke="black" cx="4099.14" cy="-378" rx="144.87" ry="18"/>
<text text-anchor="middle" x="4099.14" y="-374.3" font-family="Times,serif" font-size="14.00">no4.EntityFrozenShadeIcicle</text>
</a>
</g>
</g>
<!-- no4.EntityFrozenShadeIcicle&#45;&gt;no4.AllocEntity -->
<g id="edge16" class="edge">
<title>no4.EntityFrozenShadeIcicle&#45;&gt;no4.AllocEntity</title>
<path fill="none" stroke="black" d="M4139.47,-360.57C4220.64,-327.51 4403.35,-253.09 4489.5,-218"/>
<polygon fill="black" stroke="black" points="4491.08,-221.13 4499.02,-214.12 4488.44,-214.65 4491.08,-221.13"/>
<text text-anchor="middle" x="4134.47" y="-349.37" font-family="Times,serif" font-size="14.00">1</text>
</g>
<!-- no4.EntityGreyPuffSpawner -->
<g id="node18" class="node">
<title>no4.EntityGreyPuffSpawner</title>
<g id="a_node18"><a xlink:href="no4.EntityGreyPuffSpawner.svg" xlink:title="no4.EntityGreyPuffSpawner">
<ellipse fill="green" stroke="black" cx="4404.14" cy="-378" rx="141.88" ry="18"/>
<text text-anchor="middle" x="4404.14" y="-374.3" font-family="Times,serif" font-size="14.00">no4.EntityGreyPuffSpawner</text>
</a>
</g>
</g>
<!-- no4.EntityGreyPuffSpawner&#45;&gt;no4.AllocEntity -->
<g id="edge17" class="edge">
<title>no4.EntityGreyPuffSpawner&#45;&gt;no4.AllocEntity</title>
<path fill="none" stroke="black" d="M4416.79,-359.93C4440.15,-328.43 4490.13,-261.03 4517.42,-224.24"/>
<polygon fill="black" stroke="black" points="4520.37,-226.13 4523.52,-216.02 4514.75,-221.96 4520.37,-226.13"/>
<text text-anchor="middle" x="4411.79" y="-348.73" font-family="Times,serif" font-size="14.00">1</text>
</g>
<!-- no4.EntityKillerFish -->
<g id="node19" class="node">
<title>no4.EntityKillerFish</title>
<g id="a_node19"><a xlink:href="no4.EntityKillerFish.svg" xlink:title="no4.EntityKillerFish">
<ellipse fill="green" stroke="black" cx="4668.14" cy="-378" rx="104.78" ry="18"/>
<text text-anchor="middle" x="4668.14" y="-374.3" font-family="Times,serif" font-size="14.00">no4.EntityKillerFish</text>
</a>
</g>
</g>
<!-- no4.EntityKillerFish&#45;&gt;no4.AllocEntity -->
<g id="edge18" class="edge">
<title>no4.EntityKillerFish&#45;&gt;no4.AllocEntity</title>
<path fill="none" stroke="black" d="M4655.48,-359.93C4632.12,-328.43 4582.14,-261.03 4554.85,-224.24"/>
<polygon fill="black" stroke="black" points="4557.52,-221.96 4548.76,-216.02 4551.9,-226.13 4557.52,-221.96"/>
<text text-anchor="middle" x="4650.48" y="-348.73" font-family="Times,serif" font-size="14.00">1</text>
</g>
<!-- no4.EntitySkeletonApe -->
<g id="node20" class="node">
<title>no4.EntitySkeletonApe</title>
<g id="a_node20"><a xlink:href="no4.EntitySkeletonApe.svg" xlink:title="no4.EntitySkeletonApe">
<ellipse fill="green" stroke="black" cx="4908.14" cy="-378" rx="117.78" ry="18"/>
<text text-anchor="middle" x="4908.14" y="-374.3" font-family="Times,serif" font-size="14.00">no4.EntitySkeletonApe</text>
</a>
</g>
</g>
<!-- no4.EntitySkeletonApe&#45;&gt;no4.AllocEntity -->
<g id="edge19" class="edge">
<title>no4.EntitySkeletonApe&#45;&gt;no4.AllocEntity</title>
<path fill="none" stroke="black" d="M4874.14,-360.73C4805.77,-328.02 4651.84,-254.37 4577.66,-218.87"/>
<polygon fill="black" stroke="black" points="4579.12,-215.69 4568.59,-214.53 4576.1,-222 4579.12,-215.69"/>
<text text-anchor="middle" x="4869.14" y="-349.53" font-family="Times,serif" font-size="14.00">2</text>
</g>
<!-- no4.EntitySkeletonApeBarrel -->
<g id="node21" class="node">
<title>no4.EntitySkeletonApeBarrel</title>
<g id="a_node21"><a xlink:href="no4.EntitySkeletonApeBarrel.svg" xlink:title="no4.EntitySkeletonApeBarrel">
<ellipse fill="green" stroke="black" cx="5191.14" cy="-378" rx="146.77" ry="18"/>
<text text-anchor="middle" x="5191.14" y="-374.3" font-family="Times,serif" font-size="14.00">no4.EntitySkeletonApeBarrel</text>
</a>
</g>
</g>
<!-- no4.EntitySkeletonApeBarrel&#45;&gt;no4.AllocEntity -->
<g id="edge20" class="edge">
<title>no4.EntitySkeletonApeBarrel&#45;&gt;no4.AllocEntity</title>
<path fill="none" stroke="black" d="M5133.58,-361.36C5010.03,-327.78 4720.49,-249.1 4595.41,-215.11"/>
<polygon fill="black" stroke="black" points="4596.19,-211.69 4585.62,-212.45 4594.35,-218.45 4596.19,-211.69"/>
<text text-anchor="middle" x="5128.58" y="-350.16" font-family="Times,serif" font-size="14.00">2</text>
</g>
<!-- no4.EntitySpearGuard -->
<g id="node22" class="node">
<title>no4.EntitySpearGuard</title>
<g id="a_node22"><a xlink:href="no4.EntitySpearGuard.svg" xlink:title="no4.EntitySpearGuard">
<ellipse fill="green" stroke="black" cx="5472.14" cy="-378" rx="115.88" ry="18"/>
<text text-anchor="middle" x="5472.14" y="-374.3" font-family="Times,serif" font-size="14.00">no4.EntitySpearGuard</text>
</a>
</g>
</g>
<!-- no4.EntitySpearGuard&#45;&gt;no4.AllocEntity -->
<g id="edge21" class="edge">
<title>no4.EntitySpearGuard&#45;&gt;no4.AllocEntity</title>
<path fill="none" stroke="black" d="M5401.78,-363.62C5227.85,-330.54 4779.21,-245.23 4605.9,-212.27"/>
<polygon fill="black" stroke="black" points="4606.35,-208.79 4595.88,-210.36 4605.05,-215.67 4606.35,-208.79"/>
<text text-anchor="middle" x="5396.78" y="-352.42" font-family="Times,serif" font-size="14.00">2</text>
</g>
<!-- no4.EntitySplashWater -->
<g id="node23" class="node">
<title>no4.EntitySplashWater</title>
<g id="a_node23"><a xlink:href="no4.EntitySplashWater.svg" xlink:title="no4.EntitySplashWater">
<ellipse fill="green" stroke="black" cx="5724.14" cy="-378" rx="118.08" ry="18"/>
<text text-anchor="middle" x="5724.14" y="-374.3" font-family="Times,serif" font-size="14.00">no4.EntitySplashWater</text>
</a>
</g>
</g>
<!-- no4.EntitySplashWater&#45;&gt;no4.AllocEntity -->
<g id="edge22" class="edge">
<title>no4.EntitySplashWater&#45;&gt;no4.AllocEntity</title>
<path fill="none" stroke="black" d="M5642.95,-364.84C5424.16,-332.05 4824.49,-242.2 4612.01,-210.37"/>
<polygon fill="black" stroke="black" points="4612.29,-206.87 4601.89,-208.85 4611.26,-213.79 4612.29,-206.87"/>
<text text-anchor="middle" x="5637.95" y="-353.64" font-family="Times,serif" font-size="14.00">1</text>
</g>
<!-- no4.EntityToad -->
<g id="node24" class="node">
<title>no4.EntityToad</title>
<g id="a_node24"><a xlink:href="no4.EntityToad.svg" xlink:title="no4.EntityToad">
<ellipse fill="green" stroke="black" cx="5942.14" cy="-378" rx="81.49" ry="18"/>
<text text-anchor="middle" x="5942.14" y="-374.3" font-family="Times,serif" font-size="14.00">no4.EntityToad</text>
</a>
</g>
</g>
<!-- no4.EntityToad&#45;&gt;no4.AllocEntity -->
<g id="edge23" class="edge">
<title>no4.EntityToad&#45;&gt;no4.AllocEntity</title>
<path fill="none" stroke="black" d="M5883.49,-365.48C5872.75,-363.53 5861.62,-361.62 5851.14,-360 5387.3,-288.35 4827.41,-228.63 4619.3,-207.35"/>
<polygon fill="black" stroke="black" points="4619.36,-203.84 4609.06,-206.3 4618.65,-210.8 4619.36,-203.84"/>
<text text-anchor="middle" x="5878.49" y="-354.28" font-family="Times,serif" font-size="14.00">2</text>
</g>
<!-- no4.EntityUnkId13 -->
<g id="node25" class="node">
<title>no4.EntityUnkId13</title>
<g id="a_node25"><a xlink:href="no4.EntityUnkId13.svg" xlink:title="no4.EntityUnkId13">
<ellipse fill="green" stroke="black" cx="6141.14" cy="-378" rx="99.38" ry="18"/>
<text text-anchor="middle" x="6141.14" y="-374.3" font-family="Times,serif" font-size="14.00">no4.EntityUnkId13</text>
</a>
</g>
</g>
<!-- no4.EntityUnkId13&#45;&gt;no4.AllocEntity -->
<g id="edge24" class="edge">
<title>no4.EntityUnkId13&#45;&gt;no4.AllocEntity</title>
<path fill="none" stroke="black" d="M6069.97,-365.4C6057.38,-363.49 6044.38,-361.61 6032.14,-360 5495.86,-289.36 4848.37,-227.66 4620.43,-206.66"/>
<polygon fill="black" stroke="black" points="4620.5,-203.15 4610.22,-205.72 4619.86,-210.12 4620.5,-203.15"/>
<text text-anchor="middle" x="6064.97" y="-354.2" font-family="Times,serif" font-size="14.00">1</text>
</g>
<!-- no4.GenerateBowWave -->
<g id="node26" class="node">
<title>no4.GenerateBowWave</title>
<g id="a_node26"><a xlink:href="no4.GenerateBowWave.svg" xlink:title="no4.GenerateBowWave">
<ellipse fill="green" stroke="black" cx="6377.14" cy="-378" rx="118.08" ry="18"/>
<text text-anchor="middle" x="6377.14" y="-374.3" font-family="Times,serif" font-size="14.00">no4.GenerateBowWave</text>
</a>
</g>
</g>
<!-- no4.GenerateBowWave&#45;&gt;no4.AllocEntity -->
<g id="edge25" class="edge">
<title>no4.GenerateBowWave&#45;&gt;no4.AllocEntity</title>
<path fill="none" stroke="black" d="M6292.85,-365.34C6278.28,-363.46 6263.28,-361.6 6249.14,-360 5625.95,-289.36 4872.7,-226.29 4621.94,-205.89"/>
<polygon fill="black" stroke="black" points="4622.05,-202.39 4611.8,-205.07 4621.49,-209.37 4622.05,-202.39"/>
<text text-anchor="middle" x="6287.85" y="-354.14" font-family="Times,serif" font-size="14.00">1</text>
</g>
<!-- no4.HitDetection -->
<g id="node27" class="node">
<title>no4.HitDetection</title>
<g id="a_node27"><a xlink:href="no4.HitDetection.svg" xlink:title="no4.HitDetection">
<ellipse fill="green" stroke="black" cx="6604.14" cy="-378" rx="90.18" ry="18"/>
<text text-anchor="middle" x="6604.14" y="-374.3" font-family="Times,serif" font-size="14.00">no4.HitDetection</text>
</a>
</g>
</g>
<!-- no4.HitDetection&#45;&gt;no4.AllocEntity -->
<g id="edge26" class="edge">
<title>no4.HitDetection&#45;&gt;no4.AllocEntity</title>
<path fill="none" stroke="black" d="M6539.97,-365.25C6528.09,-363.31 6515.76,-361.46 6504.14,-360 5781.78,-269.23 4903.52,-218.26 4625.18,-203.52"/>
<polygon fill="black" stroke="black" points="4625.3,-200.03 4615.13,-202.99 4624.93,-207.02 4625.3,-200.03"/>
<text text-anchor="middle" x="6534.97" y="-354.05" font-family="Times,serif" font-size="14.00">4</text>
</g>
<!-- no4.MakeExplosions -->
<g id="node28" class="node">
<title>no4.MakeExplosions</title>
<g id="a_node28"><a xlink:href="no4.MakeExplosions.svg" xlink:title="no4.MakeExplosions">
<ellipse fill="green" stroke="black" cx="6819.14" cy="-378" rx="106.68" ry="18"/>
<text text-anchor="middle" x="6819.14" y="-374.3" font-family="Times,serif" font-size="14.00">no4.MakeExplosions</text>
</a>
</g>
</g>
<!-- no4.MakeExplosions&#45;&gt;no4.AllocEntity -->
<g id="edge27" class="edge">
<title>no4.MakeExplosions&#45;&gt;no4.AllocEntity</title>
<path fill="none" stroke="black" d="M6744.05,-365.2C6730.45,-363.29 6716.39,-361.46 6703.14,-360 5898.97,-271.31 4921.38,-218.23 4625.28,-203.34"/>
<polygon fill="black" stroke="black" points="4625.2,-199.83 4615.04,-202.82 4624.85,-206.82 4625.2,-199.83"/>
<text text-anchor="middle" x="6739.05" y="-354" font-family="Times,serif" font-size="14.00">1</text>
</g>
<!-- no4.func_us_801C4738 -->
<g id="node29" class="node">
<title>no4.func_us_801C4738</title>
<g id="a_node29"><a xlink:href="no4.func_us_801C4738.svg" xlink:title="no4.func_us_801C4738">
<ellipse fill="green" stroke="black" cx="7062.14" cy="-378" rx="118.08" ry="18"/>
<text text-anchor="middle" x="7062.14" y="-374.3" font-family="Times,serif" font-size="14.00">no4.func_us_801C4738</text>
</a>
</g>
</g>
<!-- no4.func_us_801C4738&#45;&gt;no4.AllocEntity -->
<g id="edge28" class="edge">
<title>no4.func_us_801C4738&#45;&gt;no4.AllocEntity</title>
<path fill="none" stroke="black" d="M6979.23,-365.1C6964.56,-363.22 6949.41,-361.43 6935.14,-360 6036.08,-269.76 4942.23,-217.02 4625.8,-202.88"/>
<polygon fill="black" stroke="black" points="4625.91,-199.38 4615.76,-202.43 4625.6,-206.37 4625.91,-199.38"/>
<text text-anchor="middle" x="6974.23" y="-353.9" font-family="Times,serif" font-size="14.00">2</text>
</g>
<!-- no4.func_us_801C4D2C -->
<g id="node30" class="node">
<title>no4.func_us_801C4D2C</title>
<g id="a_node30"><a xlink:href="no4.func_us_801C4D2C.svg" xlink:title="no4.func_us_801C4D2C">
<ellipse fill="green" stroke="black" cx="7319.14" cy="-378" rx="120.48" ry="18"/>
<text text-anchor="middle" x="7319.14" y="-374.3" font-family="Times,serif" font-size="14.00">no4.func_us_801C4D2C</text>
</a>
</g>
</g>
<!-- no4.func_us_801C4D2C&#45;&gt;no4.AllocEntity -->
<g id="edge29" class="edge">
<title>no4.func_us_801C4D2C&#45;&gt;no4.AllocEntity</title>
<path fill="none" stroke="black" d="M7234.97,-365.13C7219.73,-363.22 7203.98,-361.42 7189.14,-360 6186.39,-264.13 4964.64,-214.69 4626.55,-202.21"/>
<polygon fill="black" stroke="black" points="4626.45,-198.7 4616.33,-201.83 4626.2,-205.7 4626.45,-198.7"/>
<text text-anchor="middle" x="7229.97" y="-353.93" font-family="Times,serif" font-size="14.00">2</text>
</g>
<!-- no4.func_us_801C5134 -->
<g id="node31" class="node">
<title>no4.func_us_801C5134</title>
<g id="a_node31"><a xlink:href="no4.func_us_801C5134.svg" xlink:title="no4.func_us_801C5134">
<ellipse fill="green" stroke="black" cx="7576.14" cy="-378" rx="118.08" ry="18"/>
<text text-anchor="middle" x="7576.14" y="-374.3" font-family="Times,serif" font-size="14.00">no4.func_us_801C5134</text>
</a>
</g>
</g>
<!-- no4.func_us_801C5134&#45;&gt;no4.AllocEntity -->
<g id="edge30" class="edge">
<title>no4.func_us_801C5134&#45;&gt;no4.AllocEntity</title>
<path fill="none" stroke="black" d="M7493.62,-365.09C7478.51,-363.18 7462.87,-361.38 7448.14,-360 6339.04,-255.84 4985.51,-211.8 4626.85,-201.48"/>
<polygon fill="black" stroke="black" points="4626.88,-197.98 4616.79,-201.19 4626.68,-204.97 4626.88,-197.98"/>
<text text-anchor="middle" x="7488.62" y="-353.89" font-family="Times,serif" font-size="14.00">2</text>
</g>
<!-- no4.func_us_801C5628 -->
<g id="node32" class="node">
<title>no4.func_us_801C5628</title>
<g id="a_node32"><a xlink:href="no4.func_us_801C5628.svg" xlink:title="no4.func_us_801C5628">
<ellipse fill="green" stroke="black" cx="7831.14" cy="-378" rx="118.08" ry="18"/>
<text text-anchor="middle" x="7831.14" y="-374.3" font-family="Times,serif" font-size="14.00">no4.func_us_801C5628</text>
</a>
</g>
</g>
<!-- no4.func_us_801C5628&#45;&gt;no4.AllocEntity -->
<g id="edge31" class="edge">
<title>no4.func_us_801C5628&#45;&gt;no4.AllocEntity</title>
<path fill="none" stroke="black" d="M7748.62,-365.04C7733.51,-363.13 7717.87,-361.35 7703.14,-360 6489.23,-248.72 5006,-209.49 4627.44,-200.93"/>
<polygon fill="black" stroke="black" points="4627.44,-197.43 4617.36,-200.7 4627.28,-204.43 4627.44,-197.43"/>
<text text-anchor="middle" x="7743.62" y="-353.84" font-family="Times,serif" font-size="14.00">1</text>
</g>
<!-- no4.func_us_801C58A0 -->
<g id="node33" class="node">
<title>no4.func_us_801C58A0</title>
<g id="a_node33"><a xlink:href="no4.func_us_801C58A0.svg" xlink:title="no4.func_us_801C58A0">
<ellipse fill="green" stroke="black" cx="8086.14" cy="-378" rx="118.08" ry="18"/>
<text text-anchor="middle" x="8086.14" y="-374.3" font-family="Times,serif" font-size="14.00">no4.func_us_801C58A0</text>
</a>
</g>
</g>
<!-- no4.func_us_801C58A0&#45;&gt;no4.AllocEntity -->
<g id="edge32" class="edge">
<title>no4.func_us_801C58A0&#45;&gt;no4.AllocEntity</title>
<path fill="none" stroke="black" d="M8003.97,-365.04C7988.76,-363.12 7972.98,-361.33 7958.14,-360 6638.85,-241.57 5025.1,-207.35 4627.74,-200.45"/>
<polygon fill="black" stroke="black" points="4627.52,-196.95 4617.46,-200.27 4627.4,-203.95 4627.52,-196.95"/>
<text text-anchor="middle" x="7998.97" y="-353.84" font-family="Times,serif" font-size="14.00">1</text>
</g>
<!-- no4.func_us_801C82B8 -->
<g id="node34" class="node">
<title>no4.func_us_801C82B8</title>
<g id="a_node34"><a xlink:href="no4.func_us_801C82B8.svg" xlink:title="no4.func_us_801C82B8">
<ellipse fill="green" stroke="black" cx="8341.14" cy="-378" rx="118.88" ry="18"/>
<text text-anchor="middle" x="8341.14" y="-374.3" font-family="Times,serif" font-size="14.00">no4.func_us_801C82B8</text>
</a>
</g>
</g>
<!-- no4.func_us_801C82B8&#45;&gt;no4.AllocEntity -->
<g id="edge33" class="edge">
<title>no4.func_us_801C82B8&#45;&gt;no4.AllocEntity</title>
<path fill="none" stroke="black" d="M8258.63,-364.95C8243.52,-363.06 8227.88,-361.3 8213.14,-360 6788.14,-234.42 5043.42,-205.35 4627.99,-200.04"/>
<polygon fill="black" stroke="black" points="4627.88,-196.54 4617.84,-199.91 4627.79,-203.53 4627.88,-196.54"/>
<text text-anchor="middle" x="8253.63" y="-353.75" font-family="Times,serif" font-size="14.00">1</text>
</g>
</g>
</svg>
