<?xml version="1.0" encoding="UTF-8" standalone="no"?>
<!DOCTYPE svg PUBLIC "-//W3C//DTD SVG 1.1//EN"
 "http://www.w3.org/Graphics/SVG/1.1/DTD/svg11.dtd">
<!-- Generated by graphviz version 2.43.0 (0)
 -->
<!-- Title: no4.EntityBoatElevatorController Pages: 1 -->
<svg width="1836pt" height="224pt"
 viewBox="0.00 0.00 1835.73 224.00" xmlns="http://www.w3.org/2000/svg" xmlns:xlink="http://www.w3.org/1999/xlink">
<g id="graph0" class="graph" transform="scale(1 1) rotate(0) translate(4 220)">
<title>no4.EntityBoatElevatorController</title>
<polygon fill="white" stroke="transparent" points="-4,4 -4,-220 1831.73,-220 1831.73,4 -4,4"/>
<!-- no4.EntityBoatElevatorController -->
<g id="node1" class="node">
<title>no4.EntityBoatElevatorController</title>
<ellipse fill="green" stroke="black" cx="944.44" cy="-198" rx="167.87" ry="18"/>
<text text-anchor="middle" x="944.44" y="-194.3" font-family="Times,serif" font-size="14.00">no4.EntityBoatElevatorController</text>
</g>
<!-- dra.AllocPrimitives -->
<g id="node2" class="node">
<title>dra.AllocPrimitives</title>
<g id="a_node2"><a xlink:href="dra.AllocPrimitives.svg" xlink:title="dra.AllocPrimitives">
<ellipse fill="green" stroke="black" cx="99.44" cy="-18" rx="99.38" ry="18"/>
<text text-anchor="middle" x="99.44" y="-14.3" font-family="Times,serif" font-size="14.00">dra.AllocPrimitives</text>
</a>
</g>
</g>
<!-- no4.EntityBoatElevatorController&#45;&gt;dra.AllocPrimitives -->
<g id="edge1" class="edge">
<title>no4.EntityBoatElevatorController&#45;&gt;dra.AllocPrimitives</title>
<path fill="none" stroke="black" d="M872.03,-181.75C712.35,-148.11 331.52,-67.89 171.85,-34.25"/>
<polygon fill="black" stroke="black" points="172.16,-30.74 161.65,-32.11 170.72,-37.59 172.16,-30.74"/>
<text text-anchor="middle" x="156.65" y="-35.91" font-family="Times,serif" font-size="14.00">1</text>
</g>
<!-- no4.AnimateEntity -->
<g id="node3" class="node">
<title>no4.AnimateEntity</title>
<g id="a_node3"><a xlink:href="no4.AnimateEntity.svg" xlink:title="no4.AnimateEntity">
<ellipse fill="green" stroke="black" cx="315.44" cy="-18" rx="98.28" ry="18"/>
<text text-anchor="middle" x="315.44" y="-14.3" font-family="Times,serif" font-size="14.00">no4.AnimateEntity</text>
</a>
</g>
</g>
<!-- no4.EntityBoatElevatorController&#45;&gt;no4.AnimateEntity -->
<g id="edge2" class="edge">
<title>no4.EntityBoatElevatorController&#45;&gt;no4.AnimateEntity</title>
<path fill="none" stroke="black" d="M888.07,-181.05C770.16,-147.68 498.38,-70.77 376.51,-36.28"/>
<polygon fill="black" stroke="black" points="377.17,-32.83 366.59,-33.48 375.26,-39.57 377.17,-32.83"/>
<text text-anchor="middle" x="361.59" y="-37.28" font-family="Times,serif" font-size="14.00">2</text>
</g>
<!-- no4.GetPlayerCollisionWith -->
<g id="node4" class="node">
<title>no4.GetPlayerCollisionWith</title>
<g id="a_node4"><a xlink:href="no4.GetPlayerCollisionWith.svg" xlink:title="no4.GetPlayerCollisionWith">
<ellipse fill="green" stroke="black" cx="570.44" cy="-18" rx="139.18" ry="18"/>
<text text-anchor="middle" x="570.44" y="-14.3" font-family="Times,serif" font-size="14.00">no4.GetPlayerCollisionWith</text>
</a>
</g>
</g>
<!-- no4.EntityBoatElevatorController&#45;&gt;no4.GetPlayerCollisionWith -->
<g id="edge3" class="edge">
<title>no4.EntityBoatElevatorController&#45;&gt;no4.GetPlayerCollisionWith</title>
<path fill="none" stroke="black" d="M909.26,-180.25C840.64,-147.6 689.12,-75.48 614.17,-39.81"/>
<polygon fill="black" stroke="black" points="615.52,-36.58 604.99,-35.44 612.51,-42.9 615.52,-36.58"/>
<text text-anchor="middle" x="599.99" y="-39.24" font-family="Times,serif" font-size="14.00">1</text>
</g>
<!-- no4.InitializeEntity -->
<g id="node5" class="node">
<title>no4.InitializeEntity</title>
<g id="a_node5"><a xlink:href="no4.InitializeEntity.svg" xlink:title="no4.InitializeEntity">
<ellipse fill="green" stroke="black" cx="827.44" cy="-18" rx="100.18" ry="18"/>
<text text-anchor="middle" x="827.44" y="-14.3" font-family="Times,serif" font-size="14.00">no4.InitializeEntity</text>
</a>
</g>
</g>
<!-- no4.EntityBoatElevatorController&#45;&gt;no4.InitializeEntity -->
<g id="edge4" class="edge">
<title>no4.EntityBoatElevatorController&#45;&gt;no4.InitializeEntity</title>
<path fill="none" stroke="black" d="M933.22,-179.93C912.61,-148.57 868.59,-81.6 844.34,-44.71"/>
<polygon fill="black" stroke="black" points="847.04,-42.45 838.63,-36.02 841.19,-46.29 847.04,-42.45"/>
<text text-anchor="middle" x="833.63" y="-39.82" font-family="Times,serif" font-size="14.00">1</text>
</g>
<!-- no4.MoveBoatElevator -->
<g id="node6" class="node">
<title>no4.MoveBoatElevator</title>
<g id="a_node6"><a xlink:href="no4.MoveBoatElevator.svg" xlink:title="no4.MoveBoatElevator">
<ellipse fill="green" stroke="black" cx="1062.44" cy="-18" rx="116.98" ry="18"/>
<text text-anchor="middle" x="1062.44" y="-14.3" font-family="Times,serif" font-size="14.00">no4.MoveBoatElevator</text>
</a>
</g>
</g>
<!-- no4.EntityBoatElevatorController&#45;&gt;no4.MoveBoatElevator -->
<g id="edge5" class="edge">
<title>no4.EntityBoatElevatorController&#45;&gt;no4.MoveBoatElevator</title>
<path fill="none" stroke="black" d="M955.76,-179.93C976.55,-148.57 1020.94,-81.6 1045.4,-44.71"/>
<polygon fill="black" stroke="black" points="1048.55,-46.28 1051.16,-36.02 1042.72,-42.42 1048.55,-46.28"/>
<text text-anchor="middle" x="1046.16" y="-39.82" font-family="Times,serif" font-size="14.00">2</text>
</g>
<!-- no4.PlaySfxPositional -->
<g id="node7" class="node">
<title>no4.PlaySfxPositional</title>
<g id="a_node7"><a xlink:href="no4.PlaySfxPositional.svg" xlink:title="no4.PlaySfxPositional">
<ellipse fill="green" stroke="black" cx="1308.44" cy="-18" rx="111.28" ry="18"/>
<text text-anchor="middle" x="1308.44" y="-14.3" font-family="Times,serif" font-size="14.00">no4.PlaySfxPositional</text>
</a>
</g>
</g>
<!-- no4.EntityBoatElevatorController&#45;&gt;no4.PlaySfxPositional -->
<g id="edge6" class="edge">
<title>no4.EntityBoatElevatorController&#45;&gt;no4.PlaySfxPositional</title>
<path fill="none" stroke="black" d="M978.69,-180.25C1045.5,-147.58 1193.09,-75.41 1265.99,-39.76"/>
<polygon fill="black" stroke="black" points="1267.9,-42.72 1275.34,-35.19 1264.82,-36.43 1267.9,-42.72"/>
<text text-anchor="middle" x="1270.34" y="-38.99" font-family="Times,serif" font-size="14.00">2</text>
</g>
<!-- no4.SetStep -->
<g id="node8" class="node">
<title>no4.SetStep</title>
<g id="a_node8"><a xlink:href="no4.SetStep.svg" xlink:title="no4.SetStep">
<ellipse fill="green" stroke="black" cx="1505.44" cy="-18" rx="67.69" ry="18"/>
<text text-anchor="middle" x="1505.44" y="-14.3" font-family="Times,serif" font-size="14.00">no4.SetStep</text>
</a>
</g>
</g>
<!-- no4.EntityBoatElevatorController&#45;&gt;no4.SetStep -->
<g id="edge7" class="edge">
<title>no4.EntityBoatElevatorController&#45;&gt;no4.SetStep</title>
<path fill="none" stroke="black" d="M995.71,-180.73C1102.47,-146.86 1347.53,-69.1 1454.23,-35.25"/>
<polygon fill="black" stroke="black" points="1455.34,-38.57 1463.81,-32.21 1453.22,-31.9 1455.34,-38.57"/>
<text text-anchor="middle" x="1458.81" y="-36.01" font-family="Times,serif" font-size="14.00">1</text>
</g>
<!-- no4.func_us_801C7204 -->
<g id="node9" class="node">
<title>no4.func_us_801C7204</title>
<g id="a_node9"><a xlink:href="no4.func_us_801C7204.svg" xlink:title="no4.func_us_801C7204">
<ellipse fill="green" stroke="black" cx="1709.44" cy="-18" rx="118.08" ry="18"/>
<text text-anchor="middle" x="1709.44" y="-14.3" font-family="Times,serif" font-size="14.00">no4.func_us_801C7204</text>
</a>
</g>
</g>
<!-- no4.EntityBoatElevatorController&#45;&gt;no4.func_us_801C7204 -->
<g id="edge8" class="edge">
<title>no4.EntityBoatElevatorController&#45;&gt;no4.func_us_801C7204</title>
<path fill="none" stroke="black" d="M1011.33,-181.44C1154.66,-148.09 1490.35,-69.98 1637.81,-35.67"/>
<polygon fill="black" stroke="black" points="1638.73,-39.05 1647.68,-33.37 1637.14,-32.23 1638.73,-39.05"/>
<text text-anchor="middle" x="1642.68" y="-37.17" font-family="Times,serif" font-size="14.00">8</text>
</g>
</g>
</svg>
