<?xml version="1.0" encoding="UTF-8" standalone="no"?>
<!DOCTYPE svg PUBLIC "-//W3C//DTD SVG 1.1//EN"
 "http://www.w3.org/Graphics/SVG/1.1/DTD/svg11.dtd">
<!-- Generated by graphviz version 2.43.0 (0)
 -->
<!-- Title: no4.MoveEntity Pages: 1 -->
<svg width="7425pt" height="224pt"
 viewBox="0.00 0.00 7425.33 224.00" xmlns="http://www.w3.org/2000/svg" xmlns:xlink="http://www.w3.org/1999/xlink">
<g id="graph0" class="graph" transform="scale(1 1) rotate(0) translate(4 220)">
<title>no4.MoveEntity</title>
<polygon fill="white" stroke="transparent" points="-4,4 -4,-220 7421.33,-220 7421.33,4 -4,4"/>
<!-- no4.MoveEntity -->
<g id="node1" class="node">
<title>no4.MoveEntity</title>
<ellipse fill="green" stroke="black" cx="3917.39" cy="-18" rx="85.29" ry="18"/>
<text text-anchor="middle" x="3917.39" y="-14.3" font-family="Times,serif" font-size="14.00">no4.MoveEntity</text>
</g>
<!-- no4.EntityBat -->
<g id="node2" class="node">
<title>no4.EntityBat</title>
<g id="a_node2"><a xlink:href="no4.EntityBat.svg" xlink:title="no4.EntityBat">
<ellipse fill="green" stroke="black" cx="75.39" cy="-198" rx="75.29" ry="18"/>
<text text-anchor="middle" x="75.39" y="-194.3" font-family="Times,serif" font-size="14.00">no4.EntityBat</text>
</a>
</g>
</g>
<!-- no4.EntityBat&#45;&gt;no4.MoveEntity -->
<g id="edge1" class="edge">
<title>no4.EntityBat&#45;&gt;no4.MoveEntity</title>
<path fill="none" stroke="black" d="M128.24,-185.12C138.84,-183.11 149.93,-181.26 160.39,-180 901.28,-90.58 3315.08,-32.47 3823.04,-21.06"/>
<polygon fill="black" stroke="black" points="3823.34,-24.56 3833.26,-20.83 3823.18,-17.56 3823.34,-24.56"/>
<text text-anchor="middle" x="123.24" y="-173.92" font-family="Times,serif" font-size="14.00">2</text>
</g>
<!-- no4.EntityBigRedFireball -->
<g id="node3" class="node">
<title>no4.EntityBigRedFireball</title>
<g id="a_node3"><a xlink:href="no4.EntityBigRedFireball.svg" xlink:title="no4.EntityBigRedFireball">
<ellipse fill="green" stroke="black" cx="298.39" cy="-198" rx="129.18" ry="18"/>
<text text-anchor="middle" x="298.39" y="-194.3" font-family="Times,serif" font-size="14.00">no4.EntityBigRedFireball</text>
</a>
</g>
</g>
<!-- no4.EntityBigRedFireball&#45;&gt;no4.MoveEntity -->
<g id="edge2" class="edge">
<title>no4.EntityBigRedFireball&#45;&gt;no4.MoveEntity</title>
<path fill="none" stroke="black" d="M388.39,-184.99C404.68,-183.1 421.53,-181.34 437.39,-180 1778.11,-67.16 3416.54,-28.86 3822.87,-20.76"/>
<polygon fill="black" stroke="black" points="3823.17,-24.25 3833.1,-20.55 3823.03,-17.25 3823.17,-24.25"/>
<text text-anchor="middle" x="383.39" y="-173.79" font-family="Times,serif" font-size="14.00">1</text>
</g>
<!-- no4.EntityBoneArcher -->
<g id="node4" class="node">
<title>no4.EntityBoneArcher</title>
<g id="a_node4"><a xlink:href="no4.EntityBoneArcher.svg" xlink:title="no4.EntityBoneArcher">
<ellipse fill="green" stroke="black" cx="560.39" cy="-198" rx="114.28" ry="18"/>
<text text-anchor="middle" x="560.39" y="-194.3" font-family="Times,serif" font-size="14.00">no4.EntityBoneArcher</text>
</a>
</g>
</g>
<!-- no4.EntityBoneArcher&#45;&gt;no4.MoveEntity -->
<g id="edge3" class="edge">
<title>no4.EntityBoneArcher&#45;&gt;no4.MoveEntity</title>
<path fill="none" stroke="black" d="M639.99,-185.05C654.73,-183.13 670.01,-181.34 684.39,-180 1921.92,-64.57 3434.18,-28.42 3822.83,-20.72"/>
<polygon fill="black" stroke="black" points="3822.98,-24.22 3832.91,-20.52 3822.84,-17.22 3822.98,-24.22"/>
<text text-anchor="middle" x="634.99" y="-173.85" font-family="Times,serif" font-size="14.00">1</text>
</g>
<!-- no4.EntityBoneArcherArrow -->
<g id="node5" class="node">
<title>no4.EntityBoneArcherArrow</title>
<g id="a_node5"><a xlink:href="no4.EntityBoneArcherArrow.svg" xlink:title="no4.EntityBoneArcherArrow">
<ellipse fill="green" stroke="black" cx="835.39" cy="-198" rx="142.17" ry="18"/>
<text text-anchor="middle" x="835.39" y="-194.3" font-family="Times,serif" font-size="14.00">no4.EntityBoneArcherArrow</text>
</a>
</g>
</g>
<!-- no4.EntityBoneArcherArrow&#45;&gt;no4.MoveEntity -->
<g id="edge4" class="edge">
<title>no4.EntityBoneArcherArrow&#45;&gt;no4.MoveEntity</title>
<path fill="none" stroke="black" d="M934.66,-185.08C952.21,-183.21 970.33,-181.42 987.39,-180 2101.84,-87.13 3459.4,-35.15 3823.72,-22.22"/>
<polygon fill="black" stroke="black" points="3824.09,-25.71 3833.96,-21.86 3823.84,-18.71 3824.09,-25.71"/>
<text text-anchor="middle" x="929.66" y="-173.88" font-family="Times,serif" font-size="14.00">2</text>
</g>
<!-- no4.EntityBreakableWallDebris -->
<g id="node6" class="node">
<title>no4.EntityBreakableWallDebris</title>
<g id="a_node6"><a xlink:href="no4.EntityBreakableWallDebris.svg" xlink:title="no4.EntityBreakableWallDebris">
<ellipse fill="green" stroke="black" cx="1153.39" cy="-198" rx="157.07" ry="18"/>
<text text-anchor="middle" x="1153.39" y="-194.3" font-family="Times,serif" font-size="14.00">no4.EntityBreakableWallDebris</text>
</a>
</g>
</g>
<!-- no4.EntityBreakableWallDebris&#45;&gt;no4.MoveEntity -->
<g id="edge5" class="edge">
<title>no4.EntityBreakableWallDebris&#45;&gt;no4.MoveEntity</title>
<path fill="none" stroke="black" d="M1263.83,-185.14C1282.69,-183.29 1302.09,-181.5 1320.39,-180 2299.62,-99.84 3489.5,-39.67 3825.28,-23.39"/>
<polygon fill="black" stroke="black" points="3825.62,-26.88 3835.44,-22.9 3825.28,-19.89 3825.62,-26.88"/>
<text text-anchor="middle" x="1258.83" y="-173.94" font-family="Times,serif" font-size="14.00">1</text>
</g>
<!-- no4.EntityEnemyBlood -->
<g id="node7" class="node">
<title>no4.EntityEnemyBlood</title>
<g id="a_node7"><a xlink:href="no4.EntityEnemyBlood.svg" xlink:title="no4.EntityEnemyBlood">
<ellipse fill="green" stroke="black" cx="1447.39" cy="-198" rx="118.08" ry="18"/>
<text text-anchor="middle" x="1447.39" y="-194.3" font-family="Times,serif" font-size="14.00">no4.EntityEnemyBlood</text>
</a>
</g>
</g>
<!-- no4.EntityEnemyBlood&#45;&gt;no4.MoveEntity -->
<g id="edge6" class="edge">
<title>no4.EntityEnemyBlood&#45;&gt;no4.MoveEntity</title>
<path fill="none" stroke="black" d="M1530.62,-185.17C1545.51,-183.27 1560.9,-181.46 1575.39,-180 2448.65,-92.08 3510,-38.15 3825.04,-23.24"/>
<polygon fill="black" stroke="black" points="3825.22,-26.73 3835.04,-22.77 3824.89,-19.74 3825.22,-26.73"/>
<text text-anchor="middle" x="1525.62" y="-173.97" font-family="Times,serif" font-size="14.00">1</text>
</g>
<!-- no4.EntityEquipItemDrop -->
<g id="node8" class="node">
<title>no4.EntityEquipItemDrop</title>
<g id="a_node8"><a xlink:href="no4.EntityEquipItemDrop.svg" xlink:title="no4.EntityEquipItemDrop">
<ellipse fill="green" stroke="black" cx="1715.39" cy="-198" rx="131.08" ry="18"/>
<text text-anchor="middle" x="1715.39" y="-194.3" font-family="Times,serif" font-size="14.00">no4.EntityEquipItemDrop</text>
</a>
</g>
</g>
<!-- no4.EntityEquipItemDrop&#45;&gt;no4.MoveEntity -->
<g id="edge7" class="edge">
<title>no4.EntityEquipItemDrop&#45;&gt;no4.MoveEntity</title>
<path fill="none" stroke="black" d="M1807.96,-185.19C1823.77,-183.34 1840.04,-181.53 1855.39,-180 2616.36,-104.13 3538.31,-43.07 3826.72,-24.68"/>
<polygon fill="black" stroke="black" points="3826.95,-28.18 3836.71,-24.05 3826.51,-21.19 3826.95,-28.18"/>
<text text-anchor="middle" x="1802.96" y="-173.99" font-family="Times,serif" font-size="14.00">1</text>
</g>
<!-- no4.EntityFishheadDeathParts -->
<g id="node9" class="node">
<title>no4.EntityFishheadDeathParts</title>
<g id="a_node9"><a xlink:href="no4.EntityFishheadDeathParts.svg" xlink:title="no4.EntityFishheadDeathParts">
<ellipse fill="green" stroke="black" cx="2018.39" cy="-198" rx="154.07" ry="18"/>
<text text-anchor="middle" x="2018.39" y="-194.3" font-family="Times,serif" font-size="14.00">no4.EntityFishheadDeathParts</text>
</a>
</g>
</g>
<!-- no4.EntityFishheadDeathParts&#45;&gt;no4.MoveEntity -->
<g id="edge8" class="edge">
<title>no4.EntityFishheadDeathParts&#45;&gt;no4.MoveEntity</title>
<path fill="none" stroke="black" d="M2128.41,-185.35C2146.13,-183.53 2164.26,-181.69 2181.39,-180 2813.49,-117.73 3575.75,-49.37 3830.08,-26.74"/>
<polygon fill="black" stroke="black" points="3830.71,-30.2 3840.36,-25.83 3830.09,-23.23 3830.71,-30.2"/>
<text text-anchor="middle" x="2123.41" y="-174.15" font-family="Times,serif" font-size="14.00">1</text>
</g>
<!-- no4.EntityFishheadFireball -->
<g id="node10" class="node">
<title>no4.EntityFishheadFireball</title>
<g id="a_node10"><a xlink:href="no4.EntityFishheadFireball.svg" xlink:title="no4.EntityFishheadFireball">
<ellipse fill="green" stroke="black" cx="2328.39" cy="-198" rx="137.58" ry="18"/>
<text text-anchor="middle" x="2328.39" y="-194.3" font-family="Times,serif" font-size="14.00">no4.EntityFishheadFireball</text>
</a>
</g>
</g>
<!-- no4.EntityFishheadFireball&#45;&gt;no4.MoveEntity -->
<g id="edge9" class="edge">
<title>no4.EntityFishheadFireball&#45;&gt;no4.MoveEntity</title>
<path fill="none" stroke="black" d="M2427.62,-185.47C2443.6,-183.63 2459.95,-181.76 2475.39,-180 2991.56,-121.34 3611.89,-52.71 3833.59,-28.24"/>
<polygon fill="black" stroke="black" points="3834.29,-31.68 3843.85,-27.11 3833.53,-24.73 3834.29,-31.68"/>
<text text-anchor="middle" x="2422.62" y="-174.27" font-family="Times,serif" font-size="14.00">1</text>
</g>
<!-- no4.EntityFishheadParticles -->
<g id="node11" class="node">
<title>no4.EntityFishheadParticles</title>
<g id="a_node11"><a xlink:href="no4.EntityFishheadParticles.svg" xlink:title="no4.EntityFishheadParticles">
<ellipse fill="green" stroke="black" cx="2626.39" cy="-198" rx="142.17" ry="18"/>
<text text-anchor="middle" x="2626.39" y="-194.3" font-family="Times,serif" font-size="14.00">no4.EntityFishheadParticles</text>
</a>
</g>
</g>
<!-- no4.EntityFishheadParticles&#45;&gt;no4.MoveEntity -->
<g id="edge10" class="edge">
<title>no4.EntityFishheadParticles&#45;&gt;no4.MoveEntity</title>
<path fill="none" stroke="black" d="M2718.72,-184.27C2960.85,-150.89 3611.04,-61.24 3837.95,-29.95"/>
<polygon fill="black" stroke="black" points="3838.68,-33.39 3848.11,-28.55 3837.72,-26.45 3838.68,-33.39"/>
<text text-anchor="middle" x="2713.72" y="-173.07" font-family="Times,serif" font-size="14.00">2</text>
</g>
<!-- no4.EntityFrozenShade -->
<g id="node12" class="node">
<title>no4.EntityFrozenShade</title>
<g id="a_node12"><a xlink:href="no4.EntityFrozenShade.svg" xlink:title="no4.EntityFrozenShade">
<ellipse fill="green" stroke="black" cx="2907.39" cy="-198" rx="120.48" ry="18"/>
<text text-anchor="middle" x="2907.39" y="-194.3" font-family="Times,serif" font-size="14.00">no4.EntityFrozenShade</text>
</a>
</g>
</g>
<!-- no4.EntityFrozenShade&#45;&gt;no4.MoveEntity -->
<g id="edge11" class="edge">
<title>no4.EntityFrozenShade&#45;&gt;no4.MoveEntity</title>
<path fill="none" stroke="black" d="M2982.07,-183.84C3169.61,-150.79 3658.63,-64.6 3844.38,-31.87"/>
<polygon fill="black" stroke="black" points="3845.08,-35.3 3854.32,-30.12 3843.86,-28.41 3845.08,-35.3"/>
<text text-anchor="middle" x="2977.07" y="-172.64" font-family="Times,serif" font-size="14.00">2</text>
</g>
<!-- no4.EntityFrozenShadeIcicle -->
<g id="node13" class="node">
<title>no4.EntityFrozenShadeIcicle</title>
<g id="a_node13"><a xlink:href="no4.EntityFrozenShadeIcicle.svg" xlink:title="no4.EntityFrozenShadeIcicle">
<ellipse fill="green" stroke="black" cx="3190.39" cy="-198" rx="144.87" ry="18"/>
<text text-anchor="middle" x="3190.39" y="-194.3" font-family="Times,serif" font-size="14.00">no4.EntityFrozenShadeIcicle</text>
</a>
</g>
</g>
<!-- no4.EntityFrozenShadeIcicle&#45;&gt;no4.MoveEntity -->
<g id="edge12" class="edge">
<title>no4.EntityFrozenShadeIcicle&#45;&gt;no4.MoveEntity</title>
<path fill="none" stroke="black" d="M3252.69,-181.75C3389.74,-148.19 3716.16,-68.27 3854.11,-34.49"/>
<polygon fill="black" stroke="black" points="3855.23,-37.82 3864.11,-32.05 3853.56,-31.02 3855.23,-37.82"/>
<text text-anchor="middle" x="3247.69" y="-170.55" font-family="Times,serif" font-size="14.00">1</text>
</g>
<!-- no4.EntityFrozenShadeIcicleUnk -->
<g id="node14" class="node">
<title>no4.EntityFrozenShadeIcicleUnk</title>
<g id="a_node14"><a xlink:href="no4.EntityFrozenShadeIcicleUnk.svg" xlink:title="no4.EntityFrozenShadeIcicleUnk">
<ellipse fill="green" stroke="black" cx="3517.39" cy="-198" rx="163.57" ry="18"/>
<text text-anchor="middle" x="3517.39" y="-194.3" font-family="Times,serif" font-size="14.00">no4.EntityFrozenShadeIcicleUnk</text>
</a>
</g>
</g>
<!-- no4.EntityFrozenShadeIcicleUnk&#45;&gt;no4.MoveEntity -->
<g id="edge13" class="edge">
<title>no4.EntityFrozenShadeIcicleUnk&#45;&gt;no4.MoveEntity</title>
<path fill="none" stroke="black" d="M3554.67,-180.41C3628.75,-147.45 3794.18,-73.83 3873.43,-38.57"/>
<polygon fill="black" stroke="black" points="3874.94,-41.72 3882.65,-34.46 3872.09,-35.33 3874.94,-41.72"/>
<text text-anchor="middle" x="3549.67" y="-169.21" font-family="Times,serif" font-size="14.00">1</text>
</g>
<!-- no4.EntityKillerFish -->
<g id="node15" class="node">
<title>no4.EntityKillerFish</title>
<g id="a_node15"><a xlink:href="no4.EntityKillerFish.svg" xlink:title="no4.EntityKillerFish">
<ellipse fill="green" stroke="black" cx="3803.39" cy="-198" rx="104.78" ry="18"/>
<text text-anchor="middle" x="3803.39" y="-194.3" font-family="Times,serif" font-size="14.00">no4.EntityKillerFish</text>
</a>
</g>
</g>
<!-- no4.EntityKillerFish&#45;&gt;no4.MoveEntity -->
<g id="edge14" class="edge">
<title>no4.EntityKillerFish&#45;&gt;no4.MoveEntity</title>
<path fill="none" stroke="black" d="M3814.32,-179.93C3834.41,-148.57 3877.3,-81.6 3900.93,-44.71"/>
<polygon fill="black" stroke="black" points="3904.05,-46.32 3906.5,-36.02 3898.15,-42.55 3904.05,-46.32"/>
<text text-anchor="middle" x="3809.32" y="-168.73" font-family="Times,serif" font-size="14.00">1</text>
</g>
<!-- no4.EntityPrizeDrop -->
<g id="node16" class="node">
<title>no4.EntityPrizeDrop</title>
<g id="a_node16"><a xlink:href="no4.EntityPrizeDrop.svg" xlink:title="no4.EntityPrizeDrop">
<ellipse fill="green" stroke="black" cx="4032.39" cy="-198" rx="106.68" ry="18"/>
<text text-anchor="middle" x="4032.39" y="-194.3" font-family="Times,serif" font-size="14.00">no4.EntityPrizeDrop</text>
</a>
</g>
</g>
<!-- no4.EntityPrizeDrop&#45;&gt;no4.MoveEntity -->
<g id="edge15" class="edge">
<title>no4.EntityPrizeDrop&#45;&gt;no4.MoveEntity</title>
<path fill="none" stroke="black" d="M4021.37,-179.93C4001.1,-148.57 3957.84,-81.6 3934,-44.71"/>
<polygon fill="black" stroke="black" points="3936.75,-42.52 3928.39,-36.02 3930.87,-46.31 3936.75,-42.52"/>
<text text-anchor="middle" x="4016.37" y="-168.73" font-family="Times,serif" font-size="14.00">2</text>
</g>
<!-- no4.EntityRelicOrb -->
<g id="node17" class="node">
<title>no4.EntityRelicOrb</title>
<g id="a_node17"><a xlink:href="no4.EntityRelicOrb.svg" xlink:title="no4.EntityRelicOrb">
<ellipse fill="green" stroke="black" cx="4257.39" cy="-198" rx="100.18" ry="18"/>
<text text-anchor="middle" x="4257.39" y="-194.3" font-family="Times,serif" font-size="14.00">no4.EntityRelicOrb</text>
</a>
</g>
</g>
<!-- no4.EntityRelicOrb&#45;&gt;no4.MoveEntity -->
<g id="edge16" class="edge">
<title>no4.EntityRelicOrb&#45;&gt;no4.MoveEntity</title>
<path fill="none" stroke="black" d="M4226.32,-180.73C4164.32,-148.27 4025.35,-75.52 3956.95,-39.71"/>
<polygon fill="black" stroke="black" points="3958.27,-36.45 3947.78,-34.91 3955.02,-42.65 3958.27,-36.45"/>
<text text-anchor="middle" x="4221.32" y="-169.53" font-family="Times,serif" font-size="14.00">1</text>
</g>
<!-- no4.EntitySideWaterSplash -->
<g id="node18" class="node">
<title>no4.EntitySideWaterSplash</title>
<g id="a_node18"><a xlink:href="no4.EntitySideWaterSplash.svg" xlink:title="no4.EntitySideWaterSplash">
<ellipse fill="green" stroke="black" cx="4514.39" cy="-198" rx="139.18" ry="18"/>
<text text-anchor="middle" x="4514.39" y="-194.3" font-family="Times,serif" font-size="14.00">no4.EntitySideWaterSplash</text>
</a>
</g>
</g>
<!-- no4.EntitySideWaterSplash&#45;&gt;no4.MoveEntity -->
<g id="edge17" class="edge">
<title>no4.EntitySideWaterSplash&#45;&gt;no4.MoveEntity</title>
<path fill="none" stroke="black" d="M4461.68,-181.28C4349.82,-147.93 4089.53,-70.32 3974.17,-35.93"/>
<polygon fill="black" stroke="black" points="3975.05,-32.54 3964.46,-33.03 3973.05,-39.25 3975.05,-32.54"/>
<text text-anchor="middle" x="4456.68" y="-170.08" font-family="Times,serif" font-size="14.00">1</text>
</g>
<!-- no4.EntitySmallWaterDrop -->
<g id="node19" class="node">
<title>no4.EntitySmallWaterDrop</title>
<g id="a_node19"><a xlink:href="no4.EntitySmallWaterDrop.svg" xlink:title="no4.EntitySmallWaterDrop">
<ellipse fill="green" stroke="black" cx="4808.39" cy="-198" rx="136.48" ry="18"/>
<text text-anchor="middle" x="4808.39" y="-194.3" font-family="Times,serif" font-size="14.00">no4.EntitySmallWaterDrop</text>
</a>
</g>
</g>
<!-- no4.EntitySmallWaterDrop&#45;&gt;no4.MoveEntity -->
<g id="edge18" class="edge">
<title>no4.EntitySmallWaterDrop&#45;&gt;no4.MoveEntity</title>
<path fill="none" stroke="black" d="M4736.61,-182.66C4568.88,-149.15 4152.96,-66.06 3987.2,-32.95"/>
<polygon fill="black" stroke="black" points="3987.61,-29.46 3977.12,-30.93 3986.24,-36.32 3987.61,-29.46"/>
<text text-anchor="middle" x="4731.61" y="-171.46" font-family="Times,serif" font-size="14.00">1</text>
</g>
<!-- no4.EntitySoulStealOrb -->
<g id="node20" class="node">
<title>no4.EntitySoulStealOrb</title>
<g id="a_node20"><a xlink:href="no4.EntitySoulStealOrb.svg" xlink:title="no4.EntitySoulStealOrb">
<ellipse fill="green" stroke="black" cx="5084.39" cy="-198" rx="121.58" ry="18"/>
<text text-anchor="middle" x="5084.39" y="-194.3" font-family="Times,serif" font-size="14.00">no4.EntitySoulStealOrb</text>
</a>
</g>
</g>
<!-- no4.EntitySoulStealOrb&#45;&gt;no4.MoveEntity -->
<g id="edge19" class="edge">
<title>no4.EntitySoulStealOrb&#45;&gt;no4.MoveEntity</title>
<path fill="none" stroke="black" d="M5002.8,-184.55C4787.14,-151.66 4204.27,-62.76 3994.19,-30.71"/>
<polygon fill="black" stroke="black" points="3994.58,-27.23 3984.17,-29.19 3993.53,-34.15 3994.58,-27.23"/>
<text text-anchor="middle" x="4997.8" y="-173.35" font-family="Times,serif" font-size="14.00">1</text>
</g>
<!-- no4.EntitySplashWater -->
<g id="node21" class="node">
<title>no4.EntitySplashWater</title>
<g id="a_node21"><a xlink:href="no4.EntitySplashWater.svg" xlink:title="no4.EntitySplashWater">
<ellipse fill="green" stroke="black" cx="5342.39" cy="-198" rx="118.08" ry="18"/>
<text text-anchor="middle" x="5342.39" y="-194.3" font-family="Times,serif" font-size="14.00">no4.EntitySplashWater</text>
</a>
</g>
</g>
<!-- no4.EntitySplashWater&#45;&gt;no4.MoveEntity -->
<g id="edge20" class="edge">
<title>no4.EntitySplashWater&#45;&gt;no4.MoveEntity</title>
<path fill="none" stroke="black" d="M5257.02,-185.46C5243.11,-183.61 5228.85,-181.74 5215.39,-180 4756.12,-120.78 4204.87,-53.74 3999.64,-28.92"/>
<polygon fill="black" stroke="black" points="3999.89,-25.43 3989.54,-27.7 3999.05,-32.38 3999.89,-25.43"/>
<text text-anchor="middle" x="5252.02" y="-174.26" font-family="Times,serif" font-size="14.00">2</text>
</g>
<!-- no4.EntitySurfacingWater -->
<g id="node22" class="node">
<title>no4.EntitySurfacingWater</title>
<g id="a_node22"><a xlink:href="no4.EntitySurfacingWater.svg" xlink:title="no4.EntitySurfacingWater">
<ellipse fill="green" stroke="black" cx="5610.39" cy="-198" rx="131.88" ry="18"/>
<text text-anchor="middle" x="5610.39" y="-194.3" font-family="Times,serif" font-size="14.00">no4.EntitySurfacingWater</text>
</a>
</g>
</g>
<!-- no4.EntitySurfacingWater&#45;&gt;no4.MoveEntity -->
<g id="edge21" class="edge">
<title>no4.EntitySurfacingWater&#45;&gt;no4.MoveEntity</title>
<path fill="none" stroke="black" d="M5515.99,-185.4C5500.43,-183.55 5484.46,-181.69 5469.39,-180 4910.69,-117.34 4237.84,-50.46 4003.12,-27.39"/>
<polygon fill="black" stroke="black" points="4003.24,-23.88 3992.94,-26.39 4002.55,-30.85 4003.24,-23.88"/>
<text text-anchor="middle" x="5510.99" y="-174.2" font-family="Times,serif" font-size="14.00">1</text>
</g>
<!-- no4.EntityThrownSpear -->
<g id="node23" class="node">
<title>no4.EntityThrownSpear</title>
<g id="a_node23"><a xlink:href="no4.EntityThrownSpear.svg" xlink:title="no4.EntityThrownSpear">
<ellipse fill="green" stroke="black" cx="5882.39" cy="-198" rx="122.38" ry="18"/>
<text text-anchor="middle" x="5882.39" y="-194.3" font-family="Times,serif" font-size="14.00">no4.EntityThrownSpear</text>
</a>
</g>
</g>
<!-- no4.EntityThrownSpear&#45;&gt;no4.MoveEntity -->
<g id="edge22" class="edge">
<title>no4.EntityThrownSpear&#45;&gt;no4.MoveEntity</title>
<path fill="none" stroke="black" d="M5795.78,-185.24C5780.98,-183.38 5765.76,-181.56 5751.39,-180 5081.99,-107.22 4272.35,-45.19 4006.59,-25.51"/>
<polygon fill="black" stroke="black" points="4006.84,-22.02 3996.61,-24.77 4006.32,-29 4006.84,-22.02"/>
<text text-anchor="middle" x="5790.78" y="-174.04" font-family="Times,serif" font-size="14.00">1</text>
</g>
<!-- no4.InitializeUnkEntity -->
<g id="node24" class="node">
<title>no4.InitializeUnkEntity</title>
<g id="a_node24"><a xlink:href="no4.InitializeUnkEntity.svg" xlink:title="no4.InitializeUnkEntity">
<ellipse fill="green" stroke="black" cx="6141.39" cy="-198" rx="118.88" ry="18"/>
<text text-anchor="middle" x="6141.39" y="-194.3" font-family="Times,serif" font-size="14.00">no4.InitializeUnkEntity</text>
</a>
</g>
</g>
<!-- no4.InitializeUnkEntity&#45;&gt;no4.MoveEntity -->
<g id="edge23" class="edge">
<title>no4.InitializeUnkEntity&#45;&gt;no4.MoveEntity</title>
<path fill="none" stroke="black" d="M6057.47,-185.18C6042.8,-183.3 6027.66,-181.49 6013.39,-180 5239.45,-98.94 4300.7,-41.22 4008.58,-24.19"/>
<polygon fill="black" stroke="black" points="4008.65,-20.69 3998.46,-23.61 4008.24,-27.68 4008.65,-20.69"/>
<text text-anchor="middle" x="6052.47" y="-173.98" font-family="Times,serif" font-size="14.00">1</text>
</g>
<!-- no4.MoveBoat -->
<g id="node25" class="node">
<title>no4.MoveBoat</title>
<g id="a_node25"><a xlink:href="no4.MoveBoat.svg" xlink:title="no4.MoveBoat">
<ellipse fill="green" stroke="black" cx="6355.39" cy="-198" rx="77.19" ry="18"/>
<text text-anchor="middle" x="6355.39" y="-194.3" font-family="Times,serif" font-size="14.00">no4.MoveBoat</text>
</a>
</g>
</g>
<!-- no4.MoveBoat&#45;&gt;no4.MoveEntity -->
<g id="edge24" class="edge">
<title>no4.MoveBoat&#45;&gt;no4.MoveEntity</title>
<path fill="none" stroke="black" d="M6300.97,-185.16C6290.53,-183.2 6279.65,-181.36 6269.39,-180 5396.89,-64.38 4330.62,-29.4 4011.75,-21.17"/>
<polygon fill="black" stroke="black" points="4011.72,-17.66 4001.63,-20.91 4011.54,-24.66 4011.72,-17.66"/>
<text text-anchor="middle" x="6295.97" y="-173.96" font-family="Times,serif" font-size="14.00">1</text>
</g>
<!-- no4.PrizeDropFall2 -->
<g id="node26" class="node">
<title>no4.PrizeDropFall2</title>
<g id="a_node26"><a xlink:href="no4.PrizeDropFall2.svg" xlink:title="no4.PrizeDropFall2">
<ellipse fill="green" stroke="black" cx="6551.39" cy="-198" rx="100.98" ry="18"/>
<text text-anchor="middle" x="6551.39" y="-194.3" font-family="Times,serif" font-size="14.00">no4.PrizeDropFall2</text>
</a>
</g>
</g>
<!-- no4.PrizeDropFall2&#45;&gt;no4.MoveEntity -->
<g id="edge25" class="edge">
<title>no4.PrizeDropFall2&#45;&gt;no4.MoveEntity</title>
<path fill="none" stroke="black" d="M6480.8,-185.13C6467.73,-183.21 6454.17,-181.39 6441.39,-180 5495.8,-76.98 4343.17,-33.03 4011.02,-21.94"/>
<polygon fill="black" stroke="black" points="4011.07,-18.44 4000.96,-21.61 4010.84,-25.44 4011.07,-18.44"/>
<text text-anchor="middle" x="6475.8" y="-173.93" font-family="Times,serif" font-size="14.00">2</text>
</g>
<!-- no4.UnkCollisionFunc3 -->
<g id="node27" class="node">
<title>no4.UnkCollisionFunc3</title>
<g id="a_node27"><a xlink:href="no4.UnkCollisionFunc3.svg" xlink:title="no4.UnkCollisionFunc3">
<ellipse fill="green" stroke="black" cx="6788.39" cy="-198" rx="118.08" ry="18"/>
<text text-anchor="middle" x="6788.39" y="-194.3" font-family="Times,serif" font-size="14.00">no4.UnkCollisionFunc3</text>
</a>
</g>
</g>
<!-- no4.UnkCollisionFunc3&#45;&gt;no4.MoveEntity -->
<g id="edge26" class="edge">
<title>no4.UnkCollisionFunc3&#45;&gt;no4.MoveEntity</title>
<path fill="none" stroke="black" d="M6705.83,-185.04C6691.06,-183.16 6675.79,-181.38 6661.39,-180 5624.5,-80.32 4360.83,-33.57 4011,-21.96"/>
<polygon fill="black" stroke="black" points="4011.03,-18.46 4000.92,-21.63 4010.8,-25.46 4011.03,-18.46"/>
<text text-anchor="middle" x="6700.83" y="-173.84" font-family="Times,serif" font-size="14.00">1</text>
</g>
<!-- no4.UnkCollisionFunc4 -->
<g id="node28" class="node">
<title>no4.UnkCollisionFunc4</title>
<g id="a_node28"><a xlink:href="no4.UnkCollisionFunc4.svg" xlink:title="no4.UnkCollisionFunc4">
<ellipse fill="green" stroke="black" cx="7043.39" cy="-198" rx="118.08" ry="18"/>
<text text-anchor="middle" x="7043.39" y="-194.3" font-family="Times,serif" font-size="14.00">no4.UnkCollisionFunc4</text>
</a>
</g>
</g>
<!-- no4.UnkCollisionFunc4&#45;&gt;no4.MoveEntity -->
<g id="edge27" class="edge">
<title>no4.UnkCollisionFunc4&#45;&gt;no4.MoveEntity</title>
<path fill="none" stroke="black" d="M6960.87,-185.07C6945.77,-183.17 6930.13,-181.37 6915.39,-180 5774.24,-73.74 4381.71,-31.24 4011.45,-21.37"/>
<polygon fill="black" stroke="black" points="4011.41,-17.86 4001.32,-21.1 4011.23,-24.86 4011.41,-17.86"/>
<text text-anchor="middle" x="6955.87" y="-173.87" font-family="Times,serif" font-size="14.00">1</text>
</g>
<!-- no4.func_us_801C542C -->
<g id="node29" class="node">
<title>no4.func_us_801C542C</title>
<g id="a_node29"><a xlink:href="no4.func_us_801C542C.svg" xlink:title="no4.func_us_801C542C">
<ellipse fill="green" stroke="black" cx="7298.39" cy="-198" rx="118.88" ry="18"/>
<text text-anchor="middle" x="7298.39" y="-194.3" font-family="Times,serif" font-size="14.00">no4.func_us_801C542C</text>
</a>
</g>
</g>
<!-- no4.func_us_801C542C&#45;&gt;no4.MoveEntity -->
<g id="edge28" class="edge">
<title>no4.func_us_801C542C&#45;&gt;no4.MoveEntity</title>
<path fill="none" stroke="black" d="M7215.88,-185.02C7200.77,-183.12 7185.13,-181.34 7170.39,-180 5924.27,-66.61 4401.83,-28.95 4011.87,-20.82"/>
<polygon fill="black" stroke="black" points="4011.83,-17.32 4001.76,-20.61 4011.69,-24.32 4011.83,-17.32"/>
<text text-anchor="middle" x="7210.88" y="-173.82" font-family="Times,serif" font-size="14.00">1</text>
</g>
</g>
</svg>
