<?xml version="1.0" encoding="UTF-8" standalone="no"?>
<!DOCTYPE svg PUBLIC "-//W3C//DTD SVG 1.1//EN"
 "http://www.w3.org/Graphics/SVG/1.1/DTD/svg11.dtd">
<!-- Generated by graphviz version 2.43.0 (0)
 -->
<!-- Title: np3.UpdateRoomPosition Pages: 1 -->
<svg width="1167pt" height="224pt"
 viewBox="0.00 0.00 1167.48 224.00" xmlns="http://www.w3.org/2000/svg" xmlns:xlink="http://www.w3.org/1999/xlink">
<g id="graph0" class="graph" transform="scale(1 1) rotate(0) translate(4 220)">
<title>np3.UpdateRoomPosition</title>
<polygon fill="white" stroke="transparent" points="-4,4 -4,-220 1163.48,-220 1163.48,4 -4,4"/>
<!-- np3.UpdateRoomPosition -->
<g id="node1" class="node">
<title>np3.UpdateRoomPosition</title>
<ellipse fill="green" stroke="black" cx="545.39" cy="-198" rx="128.88" ry="18"/>
<text text-anchor="middle" x="545.39" y="-194.3" font-family="Times,serif" font-size="14.00">np3.UpdateRoomPosition</text>
</g>
<!-- np3.CreateEntitiesAbove -->
<g id="node2" class="node">
<title>np3.CreateEntitiesAbove</title>
<g id="a_node2"><a xlink:href="np3.CreateEntitiesAbove.svg" xlink:title="np3.CreateEntitiesAbove">
<ellipse fill="green" stroke="black" cx="127.39" cy="-18" rx="127.28" ry="18"/>
<text text-anchor="middle" x="127.39" y="-14.3" font-family="Times,serif" font-size="14.00">np3.CreateEntitiesAbove</text>
</a>
</g>
</g>
<!-- np3.UpdateRoomPosition&#45;&gt;np3.CreateEntitiesAbove -->
<g id="edge1" class="edge">
<title>np3.UpdateRoomPosition&#45;&gt;np3.CreateEntitiesAbove</title>
<path fill="none" stroke="black" d="M507.19,-180.73C430.63,-148.13 258.61,-74.88 174.93,-39.24"/>
<polygon fill="black" stroke="black" points="176.23,-35.99 165.65,-35.29 173.48,-42.43 176.23,-35.99"/>
<text text-anchor="middle" x="160.65" y="-39.09" font-family="Times,serif" font-size="14.00">1</text>
</g>
<!-- np3.CreateEntitiesBelow -->
<g id="node3" class="node">
<title>np3.CreateEntitiesBelow</title>
<g id="a_node3"><a xlink:href="np3.CreateEntitiesBelow.svg" xlink:title="np3.CreateEntitiesBelow">
<ellipse fill="green" stroke="black" cx="400.39" cy="-18" rx="127.28" ry="18"/>
<text text-anchor="middle" x="400.39" y="-14.3" font-family="Times,serif" font-size="14.00">np3.CreateEntitiesBelow</text>
</a>
</g>
</g>
<!-- np3.UpdateRoomPosition&#45;&gt;np3.CreateEntitiesBelow -->
<g id="edge2" class="edge">
<title>np3.UpdateRoomPosition&#45;&gt;np3.CreateEntitiesBelow</title>
<path fill="none" stroke="black" d="M531.49,-179.93C505.72,-148.3 450.46,-80.46 420.57,-43.78"/>
<polygon fill="black" stroke="black" points="423.28,-41.56 414.25,-36.02 417.85,-45.98 423.28,-41.56"/>
<text text-anchor="middle" x="409.25" y="-39.82" font-family="Times,serif" font-size="14.00">1</text>
</g>
<!-- np3.CreateEntitiesToTheLeft -->
<g id="node4" class="node">
<title>np3.CreateEntitiesToTheLeft</title>
<g id="a_node4"><a xlink:href="np3.CreateEntitiesToTheLeft.svg" xlink:title="np3.CreateEntitiesToTheLeft">
<ellipse fill="green" stroke="black" cx="691.39" cy="-18" rx="145.67" ry="18"/>
<text text-anchor="middle" x="691.39" y="-14.3" font-family="Times,serif" font-size="14.00">np3.CreateEntitiesToTheLeft</text>
</a>
</g>
</g>
<!-- np3.UpdateRoomPosition&#45;&gt;np3.CreateEntitiesToTheLeft -->
<g id="edge3" class="edge">
<title>np3.UpdateRoomPosition&#45;&gt;np3.CreateEntitiesToTheLeft</title>
<path fill="none" stroke="black" d="M559.39,-179.93C585.33,-148.3 640.97,-80.46 671.07,-43.78"/>
<polygon fill="black" stroke="black" points="673.8,-45.97 677.43,-36.02 668.38,-41.53 673.8,-45.97"/>
<text text-anchor="middle" x="672.43" y="-39.82" font-family="Times,serif" font-size="14.00">1</text>
</g>
<!-- np3.CreateEntitiesToTheRight -->
<g id="node5" class="node">
<title>np3.CreateEntitiesToTheRight</title>
<g id="a_node5"><a xlink:href="np3.CreateEntitiesToTheRight.svg" xlink:title="np3.CreateEntitiesToTheRight">
<ellipse fill="green" stroke="black" cx="1007.39" cy="-18" rx="152.17" ry="18"/>
<text text-anchor="middle" x="1007.39" y="-14.3" font-family="Times,serif" font-size="14.00">np3.CreateEntitiesToTheRight</text>
</a>
</g>
</g>
<!-- np3.UpdateRoomPosition&#45;&gt;np3.CreateEntitiesToTheRight -->
<g id="edge4" class="edge">
<title>np3.UpdateRoomPosition&#45;&gt;np3.CreateEntitiesToTheRight</title>
<path fill="none" stroke="black" d="M587.2,-180.89C671.83,-148.28 863.2,-74.55 955.58,-38.96"/>
<polygon fill="black" stroke="black" points="956.93,-42.19 965,-35.33 954.41,-35.66 956.93,-42.19"/>
<text text-anchor="middle" x="960" y="-39.13" font-family="Times,serif" font-size="14.00">1</text>
</g>
</g>
</svg>
