<?xml version="1.0" encoding="UTF-8" standalone="no"?>
<!DOCTYPE svg PUBLIC "-//W3C//DTD SVG 1.1//EN"
 "http://www.w3.org/Graphics/SVG/1.1/DTD/svg11.dtd">
<!-- Generated by graphviz version 2.43.0 (0)
 -->
<!-- Title: np3.EntityMermanWaterSplash Pages: 1 -->
<svg width="1129pt" height="224pt"
 viewBox="0.00 0.00 1129.18 224.00" xmlns="http://www.w3.org/2000/svg" xmlns:xlink="http://www.w3.org/1999/xlink">
<g id="graph0" class="graph" transform="scale(1 1) rotate(0) translate(4 220)">
<title>np3.EntityMermanWaterSplash</title>
<polygon fill="white" stroke="transparent" points="-4,4 -4,-220 1125.18,-220 1125.18,4 -4,4"/>
<!-- np3.EntityMermanWaterSplash -->
<g id="node1" class="node">
<title>np3.EntityMermanWaterSplash</title>
<ellipse fill="green" stroke="black" cx="544.44" cy="-198" rx="157.87" ry="18"/>
<text text-anchor="middle" x="544.44" y="-194.3" font-family="Times,serif" font-size="14.00">np3.EntityMermanWaterSplash</text>
</g>
<!-- dra.AllocPrimitives -->
<g id="node2" class="node">
<title>dra.AllocPrimitives</title>
<g id="a_node2"><a xlink:href="dra.AllocPrimitives.svg" xlink:title="dra.AllocPrimitives">
<ellipse fill="green" stroke="black" cx="99.44" cy="-18" rx="99.38" ry="18"/>
<text text-anchor="middle" x="99.44" y="-14.3" font-family="Times,serif" font-size="14.00">dra.AllocPrimitives</text>
</a>
</g>
</g>
<!-- np3.EntityMermanWaterSplash&#45;&gt;dra.AllocPrimitives -->
<g id="edge1" class="edge">
<title>np3.EntityMermanWaterSplash&#45;&gt;dra.AllocPrimitives</title>
<path fill="none" stroke="black" d="M503.37,-180.57C421.04,-147.64 236.15,-73.68 147.99,-38.42"/>
<polygon fill="black" stroke="black" points="149.08,-35.09 138.49,-34.62 146.48,-41.58 149.08,-35.09"/>
<text text-anchor="middle" x="133.49" y="-38.42" font-family="Times,serif" font-size="14.00">1</text>
</g>
<!-- np3.AllocEntity -->
<g id="node3" class="node">
<title>np3.AllocEntity</title>
<g id="a_node3"><a xlink:href="np3.AllocEntity.svg" xlink:title="np3.AllocEntity">
<ellipse fill="green" stroke="black" cx="299.44" cy="-18" rx="82.59" ry="18"/>
<text text-anchor="middle" x="299.44" y="-14.3" font-family="Times,serif" font-size="14.00">np3.AllocEntity</text>
</a>
</g>
</g>
<!-- np3.EntityMermanWaterSplash&#45;&gt;np3.AllocEntity -->
<g id="edge2" class="edge">
<title>np3.EntityMermanWaterSplash&#45;&gt;np3.AllocEntity</title>
<path fill="none" stroke="black" d="M520.95,-179.93C476.45,-147.61 379.91,-77.46 330.27,-41.4"/>
<polygon fill="black" stroke="black" points="332.3,-38.54 322.15,-35.5 328.18,-44.21 332.3,-38.54"/>
<text text-anchor="middle" x="317.15" y="-39.3" font-family="Times,serif" font-size="14.00">1</text>
</g>
<!-- np3.CreateEntityFromEntity -->
<g id="node4" class="node">
<title>np3.CreateEntityFromEntity</title>
<g id="a_node4"><a xlink:href="np3.CreateEntityFromEntity.svg" xlink:title="np3.CreateEntityFromEntity">
<ellipse fill="green" stroke="black" cx="544.44" cy="-18" rx="144.87" ry="18"/>
<text text-anchor="middle" x="544.44" y="-14.3" font-family="Times,serif" font-size="14.00">np3.CreateEntityFromEntity</text>
</a>
</g>
</g>
<!-- np3.EntityMermanWaterSplash&#45;&gt;np3.CreateEntityFromEntity -->
<g id="edge3" class="edge">
<title>np3.EntityMermanWaterSplash&#45;&gt;np3.CreateEntityFromEntity</title>
<path fill="none" stroke="black" d="M544.44,-179.93C544.44,-148.97 544.44,-83.3 544.44,-46.13"/>
<polygon fill="black" stroke="black" points="547.94,-46.02 544.44,-36.02 540.94,-46.02 547.94,-46.02"/>
<text text-anchor="middle" x="539.44" y="-39.82" font-family="Times,serif" font-size="14.00">1</text>
</g>
<!-- np3.DestroyEntity -->
<g id="node5" class="node">
<title>np3.DestroyEntity</title>
<g id="a_node5"><a xlink:href="np3.DestroyEntity.svg" xlink:title="np3.DestroyEntity">
<ellipse fill="green" stroke="black" cx="804.44" cy="-18" rx="96.68" ry="18"/>
<text text-anchor="middle" x="804.44" y="-14.3" font-family="Times,serif" font-size="14.00">np3.DestroyEntity</text>
</a>
</g>
</g>
<!-- np3.EntityMermanWaterSplash&#45;&gt;np3.DestroyEntity -->
<g id="edge4" class="edge">
<title>np3.EntityMermanWaterSplash&#45;&gt;np3.DestroyEntity</title>
<path fill="none" stroke="black" d="M569.37,-179.93C616.69,-147.54 719.47,-77.17 772.05,-41.18"/>
<polygon fill="black" stroke="black" points="774.07,-44.03 780.34,-35.5 770.11,-38.26 774.07,-44.03"/>
<text text-anchor="middle" x="775.34" y="-39.3" font-family="Times,serif" font-size="14.00">1</text>
</g>
<!-- np3.InitializeEntity -->
<g id="node6" class="node">
<title>np3.InitializeEntity</title>
<g id="a_node6"><a xlink:href="np3.InitializeEntity.svg" xlink:title="np3.InitializeEntity">
<ellipse fill="green" stroke="black" cx="1020.44" cy="-18" rx="100.98" ry="18"/>
<text text-anchor="middle" x="1020.44" y="-14.3" font-family="Times,serif" font-size="14.00">np3.InitializeEntity</text>
</a>
</g>
</g>
<!-- np3.EntityMermanWaterSplash&#45;&gt;np3.InitializeEntity -->
<g id="edge5" class="edge">
<title>np3.EntityMermanWaterSplash&#45;&gt;np3.InitializeEntity</title>
<path fill="none" stroke="black" d="M588.37,-180.57C676.73,-147.53 875.51,-73.2 969.44,-38.07"/>
<polygon fill="black" stroke="black" points="970.87,-41.28 979.01,-34.49 968.41,-34.72 970.87,-41.28"/>
<text text-anchor="middle" x="974.01" y="-38.29" font-family="Times,serif" font-size="14.00">1</text>
</g>
</g>
</svg>
