<?xml version="1.0" encoding="UTF-8" standalone="no"?>
<!DOCTYPE svg PUBLIC "-//W3C//DTD SVG 1.1//EN"
 "http://www.w3.org/Graphics/SVG/1.1/DTD/svg11.dtd">
<!-- Generated by graphviz version 2.43.0 (0)
 -->
<!-- Title: np3.EntitySlogra Pages: 1 -->
<svg width="3578pt" height="224pt"
 viewBox="0.00 0.00 3577.64 224.00" xmlns="http://www.w3.org/2000/svg" xmlns:xlink="http://www.w3.org/1999/xlink">
<g id="graph0" class="graph" transform="scale(1 1) rotate(0) translate(4 220)">
<title>np3.EntitySlogra</title>
<polygon fill="white" stroke="transparent" points="-4,4 -4,-220 3573.64,-220 3573.64,4 -4,4"/>
<!-- np3.EntitySlogra -->
<g id="node1" class="node">
<title>np3.EntitySlogra</title>
<ellipse fill="green" stroke="black" cx="1906.05" cy="-198" rx="90.18" ry="18"/>
<text text-anchor="middle" x="1906.05" y="-194.3" font-family="Times,serif" font-size="14.00">np3.EntitySlogra</text>
</g>
<!-- FntPrint -->
<g id="node2" class="node">
<title>FntPrint</title>
<g id="a_node2"><a xlink:href="FntPrint.svg" xlink:title="FntPrint">
<ellipse fill="lightblue" stroke="black" cx="50.05" cy="-18" rx="50.09" ry="18"/>
<text text-anchor="middle" x="50.05" y="-14.3" font-family="Times,serif" font-size="14.00">FntPrint</text>
</a>
</g>
</g>
<!-- np3.EntitySlogra&#45;&gt;FntPrint -->
<g id="edge1" class="edge">
<title>np3.EntitySlogra&#45;&gt;FntPrint</title>
<path fill="none" stroke="black" d="M1816.88,-195.03C1553.47,-187.92 756.76,-157.18 109.05,-36 104.68,-35.18 100.18,-34.18 95.7,-33.08"/>
<polygon fill="black" stroke="black" points="96.54,-29.68 85.98,-30.53 94.76,-36.45 96.54,-29.68"/>
<text text-anchor="middle" x="80.98" y="-34.33" font-family="Times,serif" font-size="14.00">1</text>
</g>
<!-- dra.func_80102CD8 -->
<g id="node3" class="node">
<title>dra.func_80102CD8</title>
<g id="a_node3"><a xlink:href="dra.func_80102CD8.svg" xlink:title="dra.func_80102CD8">
<ellipse fill="green" stroke="black" cx="221.05" cy="-18" rx="102.88" ry="18"/>
<text text-anchor="middle" x="221.05" y="-14.3" font-family="Times,serif" font-size="14.00">dra.func_80102CD8</text>
</a>
</g>
</g>
<!-- np3.EntitySlogra&#45;&gt;dra.func_80102CD8 -->
<g id="edge2" class="edge">
<title>np3.EntitySlogra&#45;&gt;dra.func_80102CD8</title>
<path fill="none" stroke="black" d="M1824.37,-190.1C1591.08,-170.07 901.87,-108.73 332.05,-36 323.03,-34.85 313.61,-33.55 304.24,-32.2"/>
<polygon fill="black" stroke="black" points="304.52,-28.71 294.11,-30.72 303.5,-35.63 304.52,-28.71"/>
<text text-anchor="middle" x="289.11" y="-34.52" font-family="Times,serif" font-size="14.00">1</text>
</g>
<!-- np3.AllocEntity -->
<g id="node4" class="node">
<title>np3.AllocEntity</title>
<g id="a_node4"><a xlink:href="np3.AllocEntity.svg" xlink:title="np3.AllocEntity">
<ellipse fill="green" stroke="black" cx="424.05" cy="-18" rx="82.59" ry="18"/>
<text text-anchor="middle" x="424.05" y="-14.3" font-family="Times,serif" font-size="14.00">np3.AllocEntity</text>
</a>
</g>
</g>
<!-- np3.EntitySlogra&#45;&gt;np3.AllocEntity -->
<g id="edge3" class="edge">
<title>np3.EntitySlogra&#45;&gt;np3.AllocEntity</title>
<path fill="none" stroke="black" d="M1825.81,-189.68C1612.09,-169.76 1011.42,-111 515.05,-36 507.94,-34.93 500.55,-33.71 493.18,-32.43"/>
<polygon fill="black" stroke="black" points="493.63,-28.96 483.17,-30.66 492.41,-35.85 493.63,-28.96"/>
<text text-anchor="middle" x="478.17" y="-34.46" font-family="Times,serif" font-size="14.00">3</text>
</g>
<!-- np3.AnimateEntity -->
<g id="node5" class="node">
<title>np3.AnimateEntity</title>
<g id="a_node5"><a xlink:href="np3.AnimateEntity.svg" xlink:title="np3.AnimateEntity">
<ellipse fill="green" stroke="black" cx="623.05" cy="-18" rx="98.58" ry="18"/>
<text text-anchor="middle" x="623.05" y="-14.3" font-family="Times,serif" font-size="14.00">np3.AnimateEntity</text>
</a>
</g>
</g>
<!-- np3.EntitySlogra&#45;&gt;np3.AnimateEntity -->
<g id="edge4" class="edge">
<title>np3.EntitySlogra&#45;&gt;np3.AnimateEntity</title>
<path fill="none" stroke="black" d="M1832.42,-187.43C1647.23,-163.25 1147.11,-97.24 731.05,-36 722.45,-34.73 713.48,-33.38 704.53,-32"/>
<polygon fill="black" stroke="black" points="704.89,-28.52 694.47,-30.45 703.82,-35.44 704.89,-28.52"/>
<text text-anchor="middle" x="684.97" y="-34.25" font-family="Times,serif" font-size="14.00">14</text>
</g>
<!-- np3.CreateEntityFromCurrentEntity -->
<g id="node6" class="node">
<title>np3.CreateEntityFromCurrentEntity</title>
<g id="a_node6"><a xlink:href="np3.CreateEntityFromCurrentEntity.svg" xlink:title="np3.CreateEntityFromCurrentEntity">
<ellipse fill="green" stroke="black" cx="921.05" cy="-18" rx="181.17" ry="18"/>
<text text-anchor="middle" x="921.05" y="-14.3" font-family="Times,serif" font-size="14.00">np3.CreateEntityFromCurrentEntity</text>
</a>
</g>
</g>
<!-- np3.EntitySlogra&#45;&gt;np3.CreateEntityFromCurrentEntity -->
<g id="edge5" class="edge">
<title>np3.EntitySlogra&#45;&gt;np3.CreateEntityFromCurrentEntity</title>
<path fill="none" stroke="black" d="M1841.42,-185.32C1671.67,-154.65 1212.65,-71.7 1014.36,-35.86"/>
<polygon fill="black" stroke="black" points="1014.72,-32.37 1004.26,-34.04 1013.47,-39.26 1014.72,-32.37"/>
<text text-anchor="middle" x="999.26" y="-37.84" font-family="Times,serif" font-size="14.00">1</text>
</g>
<!-- np3.CreateEntityFromEntity -->
<g id="node7" class="node">
<title>np3.CreateEntityFromEntity</title>
<g id="a_node7"><a xlink:href="np3.CreateEntityFromEntity.svg" xlink:title="np3.CreateEntityFromEntity">
<ellipse fill="green" stroke="black" cx="1265.05" cy="-18" rx="144.87" ry="18"/>
<text text-anchor="middle" x="1265.05" y="-14.3" font-family="Times,serif" font-size="14.00">np3.CreateEntityFromEntity</text>
</a>
</g>
</g>
<!-- np3.EntitySlogra&#45;&gt;np3.CreateEntityFromEntity -->
<g id="edge6" class="edge">
<title>np3.EntitySlogra&#45;&gt;np3.CreateEntityFromEntity</title>
<path fill="none" stroke="black" d="M1855.75,-183.03C1740.98,-151.16 1459.8,-73.08 1331.19,-37.37"/>
<polygon fill="black" stroke="black" points="1332.03,-33.97 1321.46,-34.66 1330.15,-40.71 1332.03,-33.97"/>
<text text-anchor="middle" x="1316.46" y="-38.46" font-family="Times,serif" font-size="14.00">3</text>
</g>
<!-- np3.DestroyEntity -->
<g id="node8" class="node">
<title>np3.DestroyEntity</title>
<g id="a_node8"><a xlink:href="np3.DestroyEntity.svg" xlink:title="np3.DestroyEntity">
<ellipse fill="green" stroke="black" cx="1525.05" cy="-18" rx="96.68" ry="18"/>
<text text-anchor="middle" x="1525.05" y="-14.3" font-family="Times,serif" font-size="14.00">np3.DestroyEntity</text>
</a>
</g>
</g>
<!-- np3.EntitySlogra&#45;&gt;np3.DestroyEntity -->
<g id="edge7" class="edge">
<title>np3.EntitySlogra&#45;&gt;np3.DestroyEntity</title>
<path fill="none" stroke="black" d="M1872.23,-181.2C1802.99,-148.85 1645.11,-75.09 1568.43,-39.27"/>
<polygon fill="black" stroke="black" points="1569.6,-35.95 1559.05,-34.89 1566.63,-42.29 1569.6,-35.95"/>
<text text-anchor="middle" x="1554.05" y="-38.69" font-family="Times,serif" font-size="14.00">1</text>
</g>
<!-- np3.GetDistanceToPlayerX -->
<g id="node9" class="node">
<title>np3.GetDistanceToPlayerX</title>
<g id="a_node9"><a xlink:href="np3.GetDistanceToPlayerX.svg" xlink:title="np3.GetDistanceToPlayerX">
<ellipse fill="green" stroke="black" cx="1775.05" cy="-18" rx="135.38" ry="18"/>
<text text-anchor="middle" x="1775.05" y="-14.3" font-family="Times,serif" font-size="14.00">np3.GetDistanceToPlayerX</text>
</a>
</g>
</g>
<!-- np3.EntitySlogra&#45;&gt;np3.GetDistanceToPlayerX -->
<g id="edge8" class="edge">
<title>np3.EntitySlogra&#45;&gt;np3.GetDistanceToPlayerX</title>
<path fill="none" stroke="black" d="M1893.48,-179.93C1870.3,-148.43 1820.7,-81.03 1793.62,-44.24"/>
<polygon fill="black" stroke="black" points="1796.31,-42 1787.57,-36.02 1790.68,-46.14 1796.31,-42"/>
<text text-anchor="middle" x="1782.57" y="-39.82" font-family="Times,serif" font-size="14.00">5</text>
</g>
<!-- np3.GetSideToPlayer -->
<g id="node10" class="node">
<title>np3.GetSideToPlayer</title>
<g id="a_node10"><a xlink:href="np3.GetSideToPlayer.svg" xlink:title="np3.GetSideToPlayer">
<ellipse fill="green" stroke="black" cx="2037.05" cy="-18" rx="108.58" ry="18"/>
<text text-anchor="middle" x="2037.05" y="-14.3" font-family="Times,serif" font-size="14.00">np3.GetSideToPlayer</text>
</a>
</g>
</g>
<!-- np3.EntitySlogra&#45;&gt;np3.GetSideToPlayer -->
<g id="edge9" class="edge">
<title>np3.EntitySlogra&#45;&gt;np3.GetSideToPlayer</title>
<path fill="none" stroke="black" d="M1918.61,-179.93C1941.79,-148.43 1991.39,-81.03 2018.47,-44.24"/>
<polygon fill="black" stroke="black" points="2021.41,-46.14 2024.52,-36.02 2015.78,-42 2021.41,-46.14"/>
<text text-anchor="middle" x="2019.52" y="-39.82" font-family="Times,serif" font-size="14.00">6</text>
</g>
<!-- np3.InitializeEntity -->
<g id="node11" class="node">
<title>np3.InitializeEntity</title>
<g id="a_node11"><a xlink:href="np3.InitializeEntity.svg" xlink:title="np3.InitializeEntity">
<ellipse fill="green" stroke="black" cx="2264.05" cy="-18" rx="100.98" ry="18"/>
<text text-anchor="middle" x="2264.05" y="-14.3" font-family="Times,serif" font-size="14.00">np3.InitializeEntity</text>
</a>
</g>
</g>
<!-- np3.EntitySlogra&#45;&gt;np3.InitializeEntity -->
<g id="edge10" class="edge">
<title>np3.EntitySlogra&#45;&gt;np3.InitializeEntity</title>
<path fill="none" stroke="black" d="M1938.13,-181.05C2003.09,-148.75 2150.12,-75.64 2222.38,-39.72"/>
<polygon fill="black" stroke="black" points="2224.25,-42.7 2231.65,-35.11 2221.13,-36.43 2224.25,-42.7"/>
<text text-anchor="middle" x="2226.65" y="-38.91" font-family="Times,serif" font-size="14.00">1</text>
</g>
<!-- np3.PlaySfxPositional -->
<g id="node12" class="node">
<title>np3.PlaySfxPositional</title>
<g id="a_node12"><a xlink:href="np3.PlaySfxPositional.svg" xlink:title="np3.PlaySfxPositional">
<ellipse fill="green" stroke="black" cx="2495.05" cy="-18" rx="111.58" ry="18"/>
<text text-anchor="middle" x="2495.05" y="-14.3" font-family="Times,serif" font-size="14.00">np3.PlaySfxPositional</text>
</a>
</g>
</g>
<!-- np3.EntitySlogra&#45;&gt;np3.PlaySfxPositional -->
<g id="edge11" class="edge">
<title>np3.EntitySlogra&#45;&gt;np3.PlaySfxPositional</title>
<path fill="none" stroke="black" d="M1953.75,-182.58C2060.32,-150.38 2317.6,-72.62 2434.92,-37.17"/>
<polygon fill="black" stroke="black" points="2436.26,-40.42 2444.82,-34.18 2434.23,-33.72 2436.26,-40.42"/>
<text text-anchor="middle" x="2439.82" y="-37.98" font-family="Times,serif" font-size="14.00">7</text>
</g>
<!-- np3.Random -->
<g id="node13" class="node">
<title>np3.Random</title>
<g id="a_node13"><a xlink:href="np3.Random.svg" xlink:title="np3.Random">
<ellipse fill="green" stroke="black" cx="2694.05" cy="-18" rx="69.59" ry="18"/>
<text text-anchor="middle" x="2694.05" y="-14.3" font-family="Times,serif" font-size="14.00">np3.Random</text>
</a>
</g>
</g>
<!-- np3.EntitySlogra&#45;&gt;np3.Random -->
<g id="edge12" class="edge">
<title>np3.EntitySlogra&#45;&gt;np3.Random</title>
<path fill="none" stroke="black" d="M1963.35,-184.06C2107.81,-151.42 2485.83,-66.03 2633.6,-32.65"/>
<polygon fill="black" stroke="black" points="2634.44,-36.05 2643.42,-30.44 2632.89,-29.23 2634.44,-36.05"/>
<text text-anchor="middle" x="2638.42" y="-34.24" font-family="Times,serif" font-size="14.00">4</text>
</g>
<!-- np3.SetStep -->
<g id="node14" class="node">
<title>np3.SetStep</title>
<g id="a_node14"><a xlink:href="np3.SetStep.svg" xlink:title="np3.SetStep">
<ellipse fill="green" stroke="black" cx="2850.05" cy="-18" rx="68.49" ry="18"/>
<text text-anchor="middle" x="2850.05" y="-14.3" font-family="Times,serif" font-size="14.00">np3.SetStep</text>
</a>
</g>
</g>
<!-- np3.EntitySlogra&#45;&gt;np3.SetStep -->
<g id="edge13" class="edge">
<title>np3.EntitySlogra&#45;&gt;np3.SetStep</title>
<path fill="none" stroke="black" d="M1971.72,-185.58C2116.65,-160.22 2474.68,-96.62 2773.05,-36 2778.5,-34.89 2784.16,-33.71 2789.82,-32.5"/>
<polygon fill="black" stroke="black" points="2790.94,-35.84 2799.98,-30.31 2789.47,-29 2790.94,-35.84"/>
<text text-anchor="middle" x="2790.48" y="-34.11" font-family="Times,serif" font-size="14.00">17</text>
</g>
<!-- np3.SetSubStep -->
<g id="node15" class="node">
<title>np3.SetSubStep</title>
<g id="a_node15"><a xlink:href="np3.SetSubStep.svg" xlink:title="np3.SetSubStep">
<ellipse fill="green" stroke="black" cx="3023.05" cy="-18" rx="86.38" ry="18"/>
<text text-anchor="middle" x="3023.05" y="-14.3" font-family="Times,serif" font-size="14.00">np3.SetSubStep</text>
</a>
</g>
</g>
<!-- np3.EntitySlogra&#45;&gt;np3.SetSubStep -->
<g id="edge14" class="edge">
<title>np3.EntitySlogra&#45;&gt;np3.SetSubStep</title>
<path fill="none" stroke="black" d="M1975.75,-186.47C2141.06,-161.4 2569.76,-95.8 2927.05,-36 2934.42,-34.77 2942.1,-33.45 2949.77,-32.12"/>
<polygon fill="black" stroke="black" points="2950.57,-35.54 2959.82,-30.37 2949.36,-28.64 2950.57,-35.54"/>
<text text-anchor="middle" x="2954.82" y="-34.17" font-family="Times,serif" font-size="14.00">2</text>
</g>
<!-- np3.func_801BC8E4 -->
<g id="node16" class="node">
<title>np3.func_801BC8E4</title>
<g id="a_node16"><a xlink:href="np3.func_801BC8E4.svg" xlink:title="np3.func_801BC8E4">
<ellipse fill="green" stroke="black" cx="3233.05" cy="-18" rx="105.08" ry="18"/>
<text text-anchor="middle" x="3233.05" y="-14.3" font-family="Times,serif" font-size="14.00">np3.func_801BC8E4</text>
</a>
</g>
</g>
<!-- np3.EntitySlogra&#45;&gt;np3.func_801BC8E4 -->
<g id="edge15" class="edge">
<title>np3.EntitySlogra&#45;&gt;np3.func_801BC8E4</title>
<path fill="none" stroke="black" d="M1979.88,-187.58C2169.15,-163.33 2687.12,-96.47 3118.05,-36 3127.32,-34.7 3137,-33.31 3146.65,-31.91"/>
<polygon fill="black" stroke="black" points="3147.28,-35.36 3156.67,-30.45 3146.27,-28.43 3147.28,-35.36"/>
<text text-anchor="middle" x="3151.67" y="-34.25" font-family="Times,serif" font-size="14.00">3</text>
</g>
<!-- np3.func_801BCB5C -->
<g id="node17" class="node">
<title>np3.func_801BCB5C</title>
<g id="a_node17"><a xlink:href="np3.func_801BCB5C.svg" xlink:title="np3.func_801BCB5C">
<ellipse fill="green" stroke="black" cx="3463.05" cy="-18" rx="106.68" ry="18"/>
<text text-anchor="middle" x="3463.05" y="-14.3" font-family="Times,serif" font-size="14.00">np3.func_801BCB5C</text>
</a>
</g>
</g>
<!-- np3.EntitySlogra&#45;&gt;np3.func_801BCB5C -->
<g id="edge16" class="edge">
<title>np3.EntitySlogra&#45;&gt;np3.func_801BCB5C</title>
<path fill="none" stroke="black" d="M1985.04,-189.13C2202.53,-167.27 2828.38,-102.96 3347.05,-36 3356.66,-34.76 3366.71,-33.39 3376.7,-31.99"/>
<polygon fill="black" stroke="black" points="3377.25,-35.44 3386.66,-30.57 3376.27,-28.51 3377.25,-35.44"/>
<text text-anchor="middle" x="3381.66" y="-34.37" font-family="Times,serif" font-size="14.00">2</text>
</g>
</g>
</svg>
