<?xml version="1.0" encoding="UTF-8" standalone="no"?>
<!DOCTYPE svg PUBLIC "-//W3C//DTD SVG 1.1//EN"
 "http://www.w3.org/Graphics/SVG/1.1/DTD/svg11.dtd">
<!-- Generated by graphviz version 2.43.0 (0)
 -->
<!-- Title: np3.EntityBloodyZombie Pages: 1 -->
<svg width="3637pt" height="224pt"
 viewBox="0.00 0.00 3637.43 224.00" xmlns="http://www.w3.org/2000/svg" xmlns:xlink="http://www.w3.org/1999/xlink">
<g id="graph0" class="graph" transform="scale(1 1) rotate(0) translate(4 220)">
<title>np3.EntityBloodyZombie</title>
<polygon fill="white" stroke="transparent" points="-4,4 -4,-220 3633.43,-220 3633.43,4 -4,4"/>
<!-- np3.EntityBloodyZombie -->
<g id="node1" class="node">
<title>np3.EntityBloodyZombie</title>
<ellipse fill="green" stroke="black" cx="1907.44" cy="-198" rx="126.18" ry="18"/>
<text text-anchor="middle" x="1907.44" y="-194.3" font-family="Times,serif" font-size="14.00">np3.EntityBloodyZombie</text>
</g>
<!-- dra.AllocPrimitives -->
<g id="node2" class="node">
<title>dra.AllocPrimitives</title>
<g id="a_node2"><a xlink:href="dra.AllocPrimitives.svg" xlink:title="dra.AllocPrimitives">
<ellipse fill="green" stroke="black" cx="99.44" cy="-18" rx="99.38" ry="18"/>
<text text-anchor="middle" x="99.44" y="-14.3" font-family="Times,serif" font-size="14.00">dra.AllocPrimitives</text>
</a>
</g>
</g>
<!-- np3.EntityBloodyZombie&#45;&gt;dra.AllocPrimitives -->
<g id="edge1" class="edge">
<title>np3.EntityBloodyZombie&#45;&gt;dra.AllocPrimitives</title>
<path fill="none" stroke="black" d="M1797.8,-188.97C1527.18,-168.65 806.01,-111.38 207.44,-36 198.52,-34.88 189.2,-33.59 179.94,-32.23"/>
<polygon fill="black" stroke="black" points="180.34,-28.75 169.94,-30.74 179.31,-35.68 180.34,-28.75"/>
<text text-anchor="middle" x="164.94" y="-34.54" font-family="Times,serif" font-size="14.00">1</text>
</g>
<!-- np3.AllocEntity -->
<g id="node3" class="node">
<title>np3.AllocEntity</title>
<g id="a_node3"><a xlink:href="np3.AllocEntity.svg" xlink:title="np3.AllocEntity">
<ellipse fill="green" stroke="black" cx="299.44" cy="-18" rx="82.59" ry="18"/>
<text text-anchor="middle" x="299.44" y="-14.3" font-family="Times,serif" font-size="14.00">np3.AllocEntity</text>
</a>
</g>
</g>
<!-- np3.EntityBloodyZombie&#45;&gt;np3.AllocEntity -->
<g id="edge2" class="edge">
<title>np3.EntityBloodyZombie&#45;&gt;np3.AllocEntity</title>
<path fill="none" stroke="black" d="M1799.94,-188.53C1551.17,-168.28 916.85,-112.98 390.44,-36 383.33,-34.96 375.94,-33.77 368.56,-32.5"/>
<polygon fill="black" stroke="black" points="369.01,-29.03 358.56,-30.74 367.8,-35.92 369.01,-29.03"/>
<text text-anchor="middle" x="353.56" y="-34.54" font-family="Times,serif" font-size="14.00">5</text>
</g>
<!-- np3.AnimateEntity -->
<g id="node4" class="node">
<title>np3.AnimateEntity</title>
<g id="a_node4"><a xlink:href="np3.AnimateEntity.svg" xlink:title="np3.AnimateEntity">
<ellipse fill="green" stroke="black" cx="498.44" cy="-18" rx="98.58" ry="18"/>
<text text-anchor="middle" x="498.44" y="-14.3" font-family="Times,serif" font-size="14.00">np3.AnimateEntity</text>
</a>
</g>
</g>
<!-- np3.EntityBloodyZombie&#45;&gt;np3.AnimateEntity -->
<g id="edge3" class="edge">
<title>np3.EntityBloodyZombie&#45;&gt;np3.AnimateEntity</title>
<path fill="none" stroke="black" d="M1811.81,-186.26C1596.36,-161.83 1056.63,-99.27 606.44,-36 597.77,-34.78 588.72,-33.45 579.7,-32.09"/>
<polygon fill="black" stroke="black" points="579.97,-28.59 569.56,-30.54 578.91,-35.51 579.97,-28.59"/>
<text text-anchor="middle" x="564.56" y="-34.34" font-family="Times,serif" font-size="14.00">5</text>
</g>
<!-- np3.CreateEntityFromEntity -->
<g id="node5" class="node">
<title>np3.CreateEntityFromEntity</title>
<g id="a_node5"><a xlink:href="np3.CreateEntityFromEntity.svg" xlink:title="np3.CreateEntityFromEntity">
<ellipse fill="green" stroke="black" cx="760.44" cy="-18" rx="144.87" ry="18"/>
<text text-anchor="middle" x="760.44" y="-14.3" font-family="Times,serif" font-size="14.00">np3.CreateEntityFromEntity</text>
</a>
</g>
</g>
<!-- np3.EntityBloodyZombie&#45;&gt;np3.CreateEntityFromEntity -->
<g id="edge4" class="edge">
<title>np3.EntityBloodyZombie&#45;&gt;np3.CreateEntityFromEntity</title>
<path fill="none" stroke="black" d="M1825.41,-184.27C1619,-152.24 1078.81,-68.41 857.32,-34.03"/>
<polygon fill="black" stroke="black" points="857.75,-30.56 847.33,-32.48 856.68,-37.48 857.75,-30.56"/>
<text text-anchor="middle" x="842.33" y="-36.28" font-family="Times,serif" font-size="14.00">5</text>
</g>
<!-- np3.DestroyEntity -->
<g id="node6" class="node">
<title>np3.DestroyEntity</title>
<g id="a_node6"><a xlink:href="np3.DestroyEntity.svg" xlink:title="np3.DestroyEntity">
<ellipse fill="green" stroke="black" cx="1020.44" cy="-18" rx="96.68" ry="18"/>
<text text-anchor="middle" x="1020.44" y="-14.3" font-family="Times,serif" font-size="14.00">np3.DestroyEntity</text>
</a>
</g>
</g>
<!-- np3.EntityBloodyZombie&#45;&gt;np3.DestroyEntity -->
<g id="edge5" class="edge">
<title>np3.EntityBloodyZombie&#45;&gt;np3.DestroyEntity</title>
<path fill="none" stroke="black" d="M1837.47,-182.96C1672.7,-149.89 1261.56,-67.39 1093.63,-33.69"/>
<polygon fill="black" stroke="black" points="1094.14,-30.22 1083.65,-31.68 1092.77,-37.08 1094.14,-30.22"/>
<text text-anchor="middle" x="1078.65" y="-35.48" font-family="Times,serif" font-size="14.00">2</text>
</g>
<!-- np3.FindFirstUnkPrim2 -->
<g id="node7" class="node">
<title>np3.FindFirstUnkPrim2</title>
<g id="a_node7"><a xlink:href="np3.FindFirstUnkPrim2.svg" xlink:title="np3.FindFirstUnkPrim2">
<ellipse fill="green" stroke="black" cx="1257.44" cy="-18" rx="122.38" ry="18"/>
<text text-anchor="middle" x="1257.44" y="-14.3" font-family="Times,serif" font-size="14.00">np3.FindFirstUnkPrim2</text>
</a>
</g>
</g>
<!-- np3.EntityBloodyZombie&#45;&gt;np3.FindFirstUnkPrim2 -->
<g id="edge6" class="edge">
<title>np3.EntityBloodyZombie&#45;&gt;np3.FindFirstUnkPrim2</title>
<path fill="none" stroke="black" d="M1852.02,-181.82C1732.34,-149.05 1450.2,-71.79 1322.39,-36.79"/>
<polygon fill="black" stroke="black" points="1323.29,-33.4 1312.72,-34.14 1321.44,-40.15 1323.29,-33.4"/>
<text text-anchor="middle" x="1307.72" y="-37.94" font-family="Times,serif" font-size="14.00">1</text>
</g>
<!-- np3.GetDistanceToPlayerX -->
<g id="node8" class="node">
<title>np3.GetDistanceToPlayerX</title>
<g id="a_node8"><a xlink:href="np3.GetDistanceToPlayerX.svg" xlink:title="np3.GetDistanceToPlayerX">
<ellipse fill="green" stroke="black" cx="1532.44" cy="-18" rx="135.38" ry="18"/>
<text text-anchor="middle" x="1532.44" y="-14.3" font-family="Times,serif" font-size="14.00">np3.GetDistanceToPlayerX</text>
</a>
</g>
</g>
<!-- np3.EntityBloodyZombie&#45;&gt;np3.GetDistanceToPlayerX -->
<g id="edge7" class="edge">
<title>np3.EntityBloodyZombie&#45;&gt;np3.GetDistanceToPlayerX</title>
<path fill="none" stroke="black" d="M1872.83,-180.57C1804.41,-148.1 1651.94,-75.72 1576.48,-39.91"/>
<polygon fill="black" stroke="black" points="1577.77,-36.64 1567.24,-35.52 1574.77,-42.97 1577.77,-36.64"/>
<text text-anchor="middle" x="1562.24" y="-39.32" font-family="Times,serif" font-size="14.00">2</text>
</g>
<!-- np3.GetSideToPlayer -->
<g id="node9" class="node">
<title>np3.GetSideToPlayer</title>
<g id="a_node9"><a xlink:href="np3.GetSideToPlayer.svg" xlink:title="np3.GetSideToPlayer">
<ellipse fill="green" stroke="black" cx="1794.44" cy="-18" rx="108.58" ry="18"/>
<text text-anchor="middle" x="1794.44" y="-14.3" font-family="Times,serif" font-size="14.00">np3.GetSideToPlayer</text>
</a>
</g>
</g>
<!-- np3.EntityBloodyZombie&#45;&gt;np3.GetSideToPlayer -->
<g id="edge8" class="edge">
<title>np3.EntityBloodyZombie&#45;&gt;np3.GetSideToPlayer</title>
<path fill="none" stroke="black" d="M1896.61,-179.93C1876.69,-148.57 1834.18,-81.6 1810.76,-44.71"/>
<polygon fill="black" stroke="black" points="1813.56,-42.58 1805.24,-36.02 1807.65,-46.33 1813.56,-42.58"/>
<text text-anchor="middle" x="1800.24" y="-39.82" font-family="Times,serif" font-size="14.00">3</text>
</g>
<!-- np3.InitializeEntity -->
<g id="node10" class="node">
<title>np3.InitializeEntity</title>
<g id="a_node10"><a xlink:href="np3.InitializeEntity.svg" xlink:title="np3.InitializeEntity">
<ellipse fill="green" stroke="black" cx="2021.44" cy="-18" rx="100.98" ry="18"/>
<text text-anchor="middle" x="2021.44" y="-14.3" font-family="Times,serif" font-size="14.00">np3.InitializeEntity</text>
</a>
</g>
</g>
<!-- np3.EntityBloodyZombie&#45;&gt;np3.InitializeEntity -->
<g id="edge9" class="edge">
<title>np3.EntityBloodyZombie&#45;&gt;np3.InitializeEntity</title>
<path fill="none" stroke="black" d="M1918.37,-179.93C1938.46,-148.57 1981.35,-81.6 2004.98,-44.71"/>
<polygon fill="black" stroke="black" points="2008.1,-46.32 2010.54,-36.02 2002.2,-42.55 2008.1,-46.32"/>
<text text-anchor="middle" x="2005.54" y="-39.82" font-family="Times,serif" font-size="14.00">1</text>
</g>
<!-- np3.PlaySfxPositional -->
<g id="node11" class="node">
<title>np3.PlaySfxPositional</title>
<g id="a_node11"><a xlink:href="np3.PlaySfxPositional.svg" xlink:title="np3.PlaySfxPositional">
<ellipse fill="green" stroke="black" cx="2252.44" cy="-18" rx="111.58" ry="18"/>
<text text-anchor="middle" x="2252.44" y="-14.3" font-family="Times,serif" font-size="14.00">np3.PlaySfxPositional</text>
</a>
</g>
</g>
<!-- np3.EntityBloodyZombie&#45;&gt;np3.PlaySfxPositional -->
<g id="edge10" class="edge">
<title>np3.EntityBloodyZombie&#45;&gt;np3.PlaySfxPositional</title>
<path fill="none" stroke="black" d="M1939.28,-180.57C2002.18,-148.12 2142.29,-75.83 2211.76,-39.99"/>
<polygon fill="black" stroke="black" points="2213.4,-43.08 2220.68,-35.39 2210.19,-36.86 2213.4,-43.08"/>
<text text-anchor="middle" x="2215.68" y="-39.19" font-family="Times,serif" font-size="14.00">7</text>
</g>
<!-- np3.Random -->
<g id="node12" class="node">
<title>np3.Random</title>
<g id="a_node12"><a xlink:href="np3.Random.svg" xlink:title="np3.Random">
<ellipse fill="green" stroke="black" cx="2451.44" cy="-18" rx="69.59" ry="18"/>
<text text-anchor="middle" x="2451.44" y="-14.3" font-family="Times,serif" font-size="14.00">np3.Random</text>
</a>
</g>
</g>
<!-- np3.EntityBloodyZombie&#45;&gt;np3.Random -->
<g id="edge11" class="edge">
<title>np3.EntityBloodyZombie&#45;&gt;np3.Random</title>
<path fill="none" stroke="black" d="M1955.72,-181.2C2057.99,-147.74 2295.67,-69.97 2400.36,-35.71"/>
<polygon fill="black" stroke="black" points="2401.66,-38.97 2410.07,-32.54 2399.48,-32.32 2401.66,-38.97"/>
<text text-anchor="middle" x="2405.07" y="-36.34" font-family="Times,serif" font-size="14.00">2</text>
</g>
<!-- np3.SetStep -->
<g id="node13" class="node">
<title>np3.SetStep</title>
<g id="a_node13"><a xlink:href="np3.SetStep.svg" xlink:title="np3.SetStep">
<ellipse fill="green" stroke="black" cx="2607.44" cy="-18" rx="68.49" ry="18"/>
<text text-anchor="middle" x="2607.44" y="-14.3" font-family="Times,serif" font-size="14.00">np3.SetStep</text>
</a>
</g>
</g>
<!-- np3.EntityBloodyZombie&#45;&gt;np3.SetStep -->
<g id="edge12" class="edge">
<title>np3.EntityBloodyZombie&#45;&gt;np3.SetStep</title>
<path fill="none" stroke="black" d="M1966.22,-182.05C2098.69,-148.37 2419.18,-66.87 2550.19,-33.56"/>
<polygon fill="black" stroke="black" points="2551.21,-36.91 2560.04,-31.05 2549.48,-30.13 2551.21,-36.91"/>
<text text-anchor="middle" x="2555.04" y="-34.85" font-family="Times,serif" font-size="14.00">7</text>
</g>
<!-- np3.UnkCollisionFunc2 -->
<g id="node14" class="node">
<title>np3.UnkCollisionFunc2</title>
<g id="a_node14"><a xlink:href="np3.UnkCollisionFunc2.svg" xlink:title="np3.UnkCollisionFunc2">
<ellipse fill="green" stroke="black" cx="2812.44" cy="-18" rx="118.88" ry="18"/>
<text text-anchor="middle" x="2812.44" y="-14.3" font-family="Times,serif" font-size="14.00">np3.UnkCollisionFunc2</text>
</a>
</g>
</g>
<!-- np3.EntityBloodyZombie&#45;&gt;np3.UnkCollisionFunc2 -->
<g id="edge13" class="edge">
<title>np3.EntityBloodyZombie&#45;&gt;np3.UnkCollisionFunc2</title>
<path fill="none" stroke="black" d="M1978.46,-183.03C2144.82,-150.31 2558.84,-68.88 2733.12,-34.6"/>
<polygon fill="black" stroke="black" points="2733.86,-38.02 2743,-32.66 2732.51,-31.15 2733.86,-38.02"/>
<text text-anchor="middle" x="2738" y="-36.46" font-family="Times,serif" font-size="14.00">2</text>
</g>
<!-- np3.UnkCollisionFunc3 -->
<g id="node15" class="node">
<title>np3.UnkCollisionFunc3</title>
<g id="a_node15"><a xlink:href="np3.UnkCollisionFunc3.svg" xlink:title="np3.UnkCollisionFunc3">
<ellipse fill="green" stroke="black" cx="3068.44" cy="-18" rx="118.88" ry="18"/>
<text text-anchor="middle" x="3068.44" y="-14.3" font-family="Times,serif" font-size="14.00">np3.UnkCollisionFunc3</text>
</a>
</g>
</g>
<!-- np3.EntityBloodyZombie&#45;&gt;np3.UnkCollisionFunc3 -->
<g id="edge14" class="edge">
<title>np3.EntityBloodyZombie&#45;&gt;np3.UnkCollisionFunc3</title>
<path fill="none" stroke="black" d="M1990.01,-184.34C2201,-151.99 2758.73,-66.48 2978.04,-32.86"/>
<polygon fill="black" stroke="black" points="2978.87,-36.27 2988.23,-31.3 2977.81,-29.35 2978.87,-36.27"/>
<text text-anchor="middle" x="2983.23" y="-35.1" font-family="Times,serif" font-size="14.00">1</text>
</g>
<!-- np3.UnkPolyFunc2 -->
<g id="node16" class="node">
<title>np3.UnkPolyFunc2</title>
<g id="a_node16"><a xlink:href="np3.UnkPolyFunc2.svg" xlink:title="np3.UnkPolyFunc2">
<ellipse fill="green" stroke="black" cx="3304.44" cy="-18" rx="98.58" ry="18"/>
<text text-anchor="middle" x="3304.44" y="-14.3" font-family="Times,serif" font-size="14.00">np3.UnkPolyFunc2</text>
</a>
</g>
</g>
<!-- np3.EntityBloodyZombie&#45;&gt;np3.UnkPolyFunc2 -->
<g id="edge15" class="edge">
<title>np3.EntityBloodyZombie&#45;&gt;np3.UnkPolyFunc2</title>
<path fill="none" stroke="black" d="M2002.58,-186.17C2216.31,-161.61 2750.66,-98.91 3196.44,-36 3205.11,-34.78 3214.17,-33.44 3223.18,-32.08"/>
<polygon fill="black" stroke="black" points="3223.97,-35.5 3233.32,-30.52 3222.91,-28.58 3223.97,-35.5"/>
<text text-anchor="middle" x="3228.32" y="-34.32" font-family="Times,serif" font-size="14.00">1</text>
</g>
<!-- np3.func_801CA498 -->
<g id="node17" class="node">
<title>np3.func_801CA498</title>
<g id="a_node17"><a xlink:href="np3.func_801CA498.svg" xlink:title="np3.func_801CA498">
<ellipse fill="green" stroke="black" cx="3525.44" cy="-18" rx="103.98" ry="18"/>
<text text-anchor="middle" x="3525.44" y="-14.3" font-family="Times,serif" font-size="14.00">np3.func_801CA498</text>
</a>
</g>
</g>
<!-- np3.EntityBloodyZombie&#45;&gt;np3.func_801CA498 -->
<g id="edge16" class="edge">
<title>np3.EntityBloodyZombie&#45;&gt;np3.func_801CA498</title>
<path fill="none" stroke="black" d="M2010.26,-187.53C2254.08,-164.74 2886.3,-103.69 3412.44,-36 3421.71,-34.81 3431.4,-33.48 3441.04,-32.1"/>
<polygon fill="black" stroke="black" points="3441.65,-35.55 3451.04,-30.65 3440.65,-28.62 3441.65,-35.55"/>
<text text-anchor="middle" x="3446.04" y="-34.45" font-family="Times,serif" font-size="14.00">2</text>
</g>
</g>
</svg>
