<?xml version="1.0" encoding="UTF-8" standalone="no"?>
<!DOCTYPE svg PUBLIC "-//W3C//DTD SVG 1.1//EN"
 "http://www.w3.org/Graphics/SVG/1.1/DTD/svg11.dtd">
<!-- Generated by graphviz version 2.43.0 (0)
 -->
<!-- Title: np3.func_801BD034 Pages: 1 -->
<svg width="252pt" height="404pt"
 viewBox="0.00 0.00 252.38 404.00" xmlns="http://www.w3.org/2000/svg" xmlns:xlink="http://www.w3.org/1999/xlink">
<g id="graph0" class="graph" transform="scale(1 1) rotate(0) translate(4 400)">
<title>np3.func_801BD034</title>
<polygon fill="white" stroke="transparent" points="-4,4 -4,-400 248.38,-400 248.38,4 -4,4"/>
<!-- np3.func_801BD034 -->
<g id="node1" class="node">
<title>np3.func_801BD034</title>
<ellipse fill="green" stroke="black" cx="122.19" cy="-198" rx="104.78" ry="18"/>
<text text-anchor="middle" x="122.19" y="-194.3" font-family="Times,serif" font-size="14.00">np3.func_801BD034</text>
</g>
<!-- ratan2 -->
<g id="node2" class="node">
<title>ratan2</title>
<g id="a_node2"><a xlink:href="ratan2.svg" xlink:title="ratan2">
<ellipse fill="lightblue" stroke="black" cx="122.19" cy="-18" rx="41.69" ry="18"/>
<text text-anchor="middle" x="122.19" y="-14.3" font-family="Times,serif" font-size="14.00">ratan2</text>
</a>
</g>
</g>
<!-- np3.func_801BD034&#45;&gt;ratan2 -->
<g id="edge1" class="edge">
<title>np3.func_801BD034&#45;&gt;ratan2</title>
<path fill="none" stroke="black" d="M122.19,-179.93C122.19,-148.97 122.19,-83.3 122.19,-46.13"/>
<polygon fill="black" stroke="black" points="125.69,-46.02 122.19,-36.02 118.69,-46.02 125.69,-46.02"/>
<text text-anchor="middle" x="117.19" y="-39.82" font-family="Times,serif" font-size="14.00">1</text>
</g>
<!-- np3.EntitySoulStealOrb -->
<g id="node3" class="node">
<title>np3.EntitySoulStealOrb</title>
<g id="a_node3"><a xlink:href="np3.EntitySoulStealOrb.svg" xlink:title="np3.EntitySoulStealOrb">
<ellipse fill="green" stroke="black" cx="122.19" cy="-378" rx="122.38" ry="18"/>
<text text-anchor="middle" x="122.19" y="-374.3" font-family="Times,serif" font-size="14.00">np3.EntitySoulStealOrb</text>
</a>
</g>
</g>
<!-- np3.EntitySoulStealOrb&#45;&gt;np3.func_801BD034 -->
<g id="edge2" class="edge">
<title>np3.EntitySoulStealOrb&#45;&gt;np3.func_801BD034</title>
<path fill="none" stroke="black" d="M122.19,-359.93C122.19,-328.97 122.19,-263.3 122.19,-226.13"/>
<polygon fill="black" stroke="black" points="125.69,-226.02 122.19,-216.02 118.69,-226.02 125.69,-226.02"/>
<text text-anchor="middle" x="117.19" y="-348.73" font-family="Times,serif" font-size="14.00">2</text>
</g>
</g>
</svg>
