<?xml version="1.0" encoding="UTF-8" standalone="no"?>
<!DOCTYPE svg PUBLIC "-//W3C//DTD SVG 1.1//EN"
 "http://www.w3.org/Graphics/SVG/1.1/DTD/svg11.dtd">
<!-- Generated by graphviz version 2.43.0 (0)
 -->
<!-- Title: np3.EntityExplosionSpawn Pages: 1 -->
<svg width="426pt" height="224pt"
 viewBox="0.00 0.00 426.18 224.00" xmlns="http://www.w3.org/2000/svg" xmlns:xlink="http://www.w3.org/1999/xlink">
<g id="graph0" class="graph" transform="scale(1 1) rotate(0) translate(4 220)">
<title>np3.EntityExplosionSpawn</title>
<polygon fill="white" stroke="transparent" points="-4,4 -4,-220 422.18,-220 422.18,4 -4,4"/>
<!-- np3.EntityExplosionSpawn -->
<g id="node1" class="node">
<title>np3.EntityExplosionSpawn</title>
<ellipse fill="green" stroke="black" cx="205.84" cy="-198" rx="136.48" ry="18"/>
<text text-anchor="middle" x="205.84" y="-194.3" font-family="Times,serif" font-size="14.00">np3.EntityExplosionSpawn</text>
</g>
<!-- np3.DestroyEntity -->
<g id="node2" class="node">
<title>np3.DestroyEntity</title>
<g id="a_node2"><a xlink:href="np3.DestroyEntity.svg" xlink:title="np3.DestroyEntity">
<ellipse fill="green" stroke="black" cx="96.84" cy="-18" rx="96.68" ry="18"/>
<text text-anchor="middle" x="96.84" y="-14.3" font-family="Times,serif" font-size="14.00">np3.DestroyEntity</text>
</a>
</g>
</g>
<!-- np3.EntityExplosionSpawn&#45;&gt;np3.DestroyEntity -->
<g id="edge1" class="edge">
<title>np3.EntityExplosionSpawn&#45;&gt;np3.DestroyEntity</title>
<path fill="none" stroke="black" d="M195.39,-179.93C176.18,-148.57 135.18,-81.6 112.58,-44.71"/>
<polygon fill="black" stroke="black" points="115.47,-42.72 107.26,-36.02 109.5,-46.37 115.47,-42.72"/>
<text text-anchor="middle" x="102.26" y="-39.82" font-family="Times,serif" font-size="14.00">1</text>
</g>
<!-- np3.func_801C2598 -->
<g id="node3" class="node">
<title>np3.func_801C2598</title>
<g id="a_node3"><a xlink:href="np3.func_801C2598.svg" xlink:title="np3.func_801C2598">
<ellipse fill="green" stroke="black" cx="314.84" cy="-18" rx="103.18" ry="18"/>
<text text-anchor="middle" x="314.84" y="-14.3" font-family="Times,serif" font-size="14.00">np3.func_801C2598</text>
</a>
</g>
</g>
<!-- np3.EntityExplosionSpawn&#45;&gt;np3.func_801C2598 -->
<g id="edge2" class="edge">
<title>np3.EntityExplosionSpawn&#45;&gt;np3.func_801C2598</title>
<path fill="none" stroke="black" d="M216.29,-179.93C235.5,-148.57 276.51,-81.6 299.1,-44.71"/>
<polygon fill="black" stroke="black" points="302.18,-46.37 304.42,-36.02 296.21,-42.72 302.18,-46.37"/>
<text text-anchor="middle" x="299.42" y="-39.82" font-family="Times,serif" font-size="14.00">1</text>
</g>
</g>
</svg>
