<?xml version="1.0" encoding="UTF-8" standalone="no"?>
<!DOCTYPE svg PUBLIC "-//W3C//DTD SVG 1.1//EN"
 "http://www.w3.org/Graphics/SVG/1.1/DTD/svg11.dtd">
<!-- Generated by graphviz version 2.43.0 (0)
 -->
<!-- Title: np3.GetPlayerCollisionWith Pages: 1 -->
<svg width="1252pt" height="404pt"
 viewBox="0.00 0.00 1252.32 404.00" xmlns="http://www.w3.org/2000/svg" xmlns:xlink="http://www.w3.org/1999/xlink">
<g id="graph0" class="graph" transform="scale(1 1) rotate(0) translate(4 400)">
<title>np3.GetPlayerCollisionWith</title>
<polygon fill="white" stroke="transparent" points="-4,4 -4,-400 1248.32,-400 1248.32,4 -4,4"/>
<!-- np3.GetPlayerCollisionWith -->
<g id="node1" class="node">
<title>np3.GetPlayerCollisionWith</title>
<ellipse fill="green" stroke="black" cx="638.99" cy="-198" rx="139.98" ry="18"/>
<text text-anchor="middle" x="638.99" y="-194.3" font-family="Times,serif" font-size="14.00">np3.GetPlayerCollisionWith</text>
</g>
<!-- dra.GetPlayerSensor -->
<g id="node2" class="node">
<title>dra.GetPlayerSensor</title>
<g id="a_node2"><a xlink:href="dra.GetPlayerSensor.svg" xlink:title="dra.GetPlayerSensor">
<ellipse fill="green" stroke="black" cx="638.99" cy="-18" rx="107.78" ry="18"/>
<text text-anchor="middle" x="638.99" y="-14.3" font-family="Times,serif" font-size="14.00">dra.GetPlayerSensor</text>
</a>
</g>
</g>
<!-- np3.GetPlayerCollisionWith&#45;&gt;dra.GetPlayerSensor -->
<g id="edge1" class="edge">
<title>np3.GetPlayerCollisionWith&#45;&gt;dra.GetPlayerSensor</title>
<path fill="none" stroke="black" d="M638.99,-179.93C638.99,-148.97 638.99,-83.3 638.99,-46.13"/>
<polygon fill="black" stroke="black" points="642.49,-46.02 638.99,-36.02 635.49,-46.02 642.49,-46.02"/>
<text text-anchor="middle" x="633.99" y="-39.82" font-family="Times,serif" font-size="14.00">1</text>
</g>
<!-- np3.EntityCavernDoorPlatform -->
<g id="node3" class="node">
<title>np3.EntityCavernDoorPlatform</title>
<g id="a_node3"><a xlink:href="np3.EntityCavernDoorPlatform.svg" xlink:title="np3.EntityCavernDoorPlatform">
<ellipse fill="green" stroke="black" cx="155.99" cy="-378" rx="155.97" ry="18"/>
<text text-anchor="middle" x="155.99" y="-374.3" font-family="Times,serif" font-size="14.00">np3.EntityCavernDoorPlatform</text>
</a>
</g>
</g>
<!-- np3.EntityCavernDoorPlatform&#45;&gt;np3.GetPlayerCollisionWith -->
<g id="edge2" class="edge">
<title>np3.EntityCavernDoorPlatform&#45;&gt;np3.GetPlayerCollisionWith</title>
<path fill="none" stroke="black" d="M200.13,-360.73C289.06,-327.96 489.48,-254.1 585.59,-218.68"/>
<polygon fill="black" stroke="black" points="586.95,-221.91 595.12,-215.17 584.53,-215.34 586.95,-221.91"/>
<text text-anchor="middle" x="195.13" y="-349.53" font-family="Times,serif" font-size="14.00">1</text>
</g>
<!-- np3.EntityHeartRoomSwitch -->
<g id="node4" class="node">
<title>np3.EntityHeartRoomSwitch</title>
<g id="a_node4"><a xlink:href="np3.EntityHeartRoomSwitch.svg" xlink:title="np3.EntityHeartRoomSwitch">
<ellipse fill="green" stroke="black" cx="474.99" cy="-378" rx="144.87" ry="18"/>
<text text-anchor="middle" x="474.99" y="-374.3" font-family="Times,serif" font-size="14.00">np3.EntityHeartRoomSwitch</text>
</a>
</g>
</g>
<!-- np3.EntityHeartRoomSwitch&#45;&gt;np3.GetPlayerCollisionWith -->
<g id="edge3" class="edge">
<title>np3.EntityHeartRoomSwitch&#45;&gt;np3.GetPlayerCollisionWith</title>
<path fill="none" stroke="black" d="M490.71,-359.93C519.85,-328.3 582.36,-260.46 616.16,-223.78"/>
<polygon fill="black" stroke="black" points="619.11,-225.74 623.31,-216.02 613.96,-221 619.11,-225.74"/>
<text text-anchor="middle" x="485.71" y="-348.73" font-family="Times,serif" font-size="14.00">1</text>
</g>
<!-- np3.EntityPathBlockSmallWeight -->
<g id="node5" class="node">
<title>np3.EntityPathBlockSmallWeight</title>
<g id="a_node5"><a xlink:href="np3.EntityPathBlockSmallWeight.svg" xlink:title="np3.EntityPathBlockSmallWeight">
<ellipse fill="green" stroke="black" cx="802.99" cy="-378" rx="165.17" ry="18"/>
<text text-anchor="middle" x="802.99" y="-374.3" font-family="Times,serif" font-size="14.00">np3.EntityPathBlockSmallWeight</text>
</a>
</g>
</g>
<!-- np3.EntityPathBlockSmallWeight&#45;&gt;np3.GetPlayerCollisionWith -->
<g id="edge4" class="edge">
<title>np3.EntityPathBlockSmallWeight&#45;&gt;np3.GetPlayerCollisionWith</title>
<path fill="none" stroke="black" d="M787.26,-359.93C758.12,-328.3 695.62,-260.46 661.81,-223.78"/>
<polygon fill="black" stroke="black" points="664.01,-221 654.66,-216.02 658.87,-225.74 664.01,-221"/>
<text text-anchor="middle" x="782.26" y="-348.73" font-family="Times,serif" font-size="14.00">1</text>
</g>
<!-- np3.EntityWeightsSwitch -->
<g id="node6" class="node">
<title>np3.EntityWeightsSwitch</title>
<g id="a_node6"><a xlink:href="np3.EntityWeightsSwitch.svg" xlink:title="np3.EntityWeightsSwitch">
<ellipse fill="green" stroke="black" cx="1114.99" cy="-378" rx="129.18" ry="18"/>
<text text-anchor="middle" x="1114.99" y="-374.3" font-family="Times,serif" font-size="14.00">np3.EntityWeightsSwitch</text>
</a>
</g>
</g>
<!-- np3.EntityWeightsSwitch&#45;&gt;np3.GetPlayerCollisionWith -->
<g id="edge5" class="edge">
<title>np3.EntityWeightsSwitch&#45;&gt;np3.GetPlayerCollisionWith</title>
<path fill="none" stroke="black" d="M1071.9,-360.89C984.51,-328.21 786.64,-254.22 691.72,-218.72"/>
<polygon fill="black" stroke="black" points="692.91,-215.43 682.31,-215.2 690.45,-221.98 692.91,-215.43"/>
<text text-anchor="middle" x="1066.9" y="-349.69" font-family="Times,serif" font-size="14.00">1</text>
</g>
</g>
</svg>
