<?xml version="1.0" encoding="UTF-8" standalone="no"?>
<!DOCTYPE svg PUBLIC "-//W3C//DTD SVG 1.1//EN"
 "http://www.w3.org/Graphics/SVG/1.1/DTD/svg11.dtd">
<!-- Generated by graphviz version 2.43.0 (0)
 -->
<!-- Title: np3.EntityLargeGaibonProjectile Pages: 1 -->
<svg width="1471pt" height="224pt"
 viewBox="0.00 0.00 1471.14 224.00" xmlns="http://www.w3.org/2000/svg" xmlns:xlink="http://www.w3.org/1999/xlink">
<g id="graph0" class="graph" transform="scale(1 1) rotate(0) translate(4 220)">
<title>np3.EntityLargeGaibonProjectile</title>
<polygon fill="white" stroke="transparent" points="-4,4 -4,-220 1467.14,-220 1467.14,4 -4,4"/>
<!-- np3.EntityLargeGaibonProjectile -->
<g id="node1" class="node">
<title>np3.EntityLargeGaibonProjectile</title>
<ellipse fill="green" stroke="black" cx="911.54" cy="-198" rx="163.57" ry="18"/>
<text text-anchor="middle" x="911.54" y="-194.3" font-family="Times,serif" font-size="14.00">np3.EntityLargeGaibonProjectile</text>
</g>
<!-- np3.AllocEntity -->
<g id="node2" class="node">
<title>np3.AllocEntity</title>
<g id="a_node2"><a xlink:href="np3.AllocEntity.svg" xlink:title="np3.AllocEntity">
<ellipse fill="green" stroke="black" cx="82.54" cy="-18" rx="82.59" ry="18"/>
<text text-anchor="middle" x="82.54" y="-14.3" font-family="Times,serif" font-size="14.00">np3.AllocEntity</text>
</a>
</g>
</g>
<!-- np3.EntityLargeGaibonProjectile&#45;&gt;np3.AllocEntity -->
<g id="edge1" class="edge">
<title>np3.EntityLargeGaibonProjectile&#45;&gt;np3.AllocEntity</title>
<path fill="none" stroke="black" d="M840.5,-181.75C682.31,-147.78 302.89,-66.31 149.04,-33.28"/>
<polygon fill="black" stroke="black" points="149.74,-29.85 139.23,-31.17 148.28,-36.69 149.74,-29.85"/>
<text text-anchor="middle" x="134.23" y="-34.97" font-family="Times,serif" font-size="14.00">1</text>
</g>
<!-- np3.AnimateEntity -->
<g id="node3" class="node">
<title>np3.AnimateEntity</title>
<g id="a_node3"><a xlink:href="np3.AnimateEntity.svg" xlink:title="np3.AnimateEntity">
<ellipse fill="green" stroke="black" cx="281.54" cy="-18" rx="98.58" ry="18"/>
<text text-anchor="middle" x="281.54" y="-14.3" font-family="Times,serif" font-size="14.00">np3.AnimateEntity</text>
</a>
</g>
</g>
<!-- np3.EntityLargeGaibonProjectile&#45;&gt;np3.AnimateEntity -->
<g id="edge2" class="edge">
<title>np3.EntityLargeGaibonProjectile&#45;&gt;np3.AnimateEntity</title>
<path fill="none" stroke="black" d="M855.08,-181.05C736.99,-147.68 464.77,-70.77 342.71,-36.28"/>
<polygon fill="black" stroke="black" points="343.35,-32.83 332.77,-33.48 341.45,-39.56 343.35,-32.83"/>
<text text-anchor="middle" x="327.77" y="-37.28" font-family="Times,serif" font-size="14.00">2</text>
</g>
<!-- np3.CreateEntityFromEntity -->
<g id="node4" class="node">
<title>np3.CreateEntityFromEntity</title>
<g id="a_node4"><a xlink:href="np3.CreateEntityFromEntity.svg" xlink:title="np3.CreateEntityFromEntity">
<ellipse fill="green" stroke="black" cx="543.54" cy="-18" rx="144.87" ry="18"/>
<text text-anchor="middle" x="543.54" y="-14.3" font-family="Times,serif" font-size="14.00">np3.CreateEntityFromEntity</text>
</a>
</g>
</g>
<!-- np3.EntityLargeGaibonProjectile&#45;&gt;np3.CreateEntityFromEntity -->
<g id="edge3" class="edge">
<title>np3.EntityLargeGaibonProjectile&#45;&gt;np3.CreateEntityFromEntity</title>
<path fill="none" stroke="black" d="M876.92,-180.25C809.49,-147.64 660.69,-75.67 586.85,-39.95"/>
<polygon fill="black" stroke="black" points="588.33,-36.78 577.8,-35.57 585.28,-43.08 588.33,-36.78"/>
<text text-anchor="middle" x="572.8" y="-39.37" font-family="Times,serif" font-size="14.00">1</text>
</g>
<!-- np3.DestroyEntity -->
<g id="node5" class="node">
<title>np3.DestroyEntity</title>
<g id="a_node5"><a xlink:href="np3.DestroyEntity.svg" xlink:title="np3.DestroyEntity">
<ellipse fill="green" stroke="black" cx="803.54" cy="-18" rx="96.68" ry="18"/>
<text text-anchor="middle" x="803.54" y="-14.3" font-family="Times,serif" font-size="14.00">np3.DestroyEntity</text>
</a>
</g>
</g>
<!-- np3.EntityLargeGaibonProjectile&#45;&gt;np3.DestroyEntity -->
<g id="edge4" class="edge">
<title>np3.EntityLargeGaibonProjectile&#45;&gt;np3.DestroyEntity</title>
<path fill="none" stroke="black" d="M901.19,-179.93C882.16,-148.57 841.53,-81.6 819.14,-44.71"/>
<polygon fill="black" stroke="black" points="822.05,-42.75 813.87,-36.02 816.06,-46.38 822.05,-42.75"/>
<text text-anchor="middle" x="808.87" y="-39.82" font-family="Times,serif" font-size="14.00">1</text>
</g>
<!-- np3.InitializeEntity -->
<g id="node6" class="node">
<title>np3.InitializeEntity</title>
<g id="a_node6"><a xlink:href="np3.InitializeEntity.svg" xlink:title="np3.InitializeEntity">
<ellipse fill="green" stroke="black" cx="1019.54" cy="-18" rx="100.98" ry="18"/>
<text text-anchor="middle" x="1019.54" y="-14.3" font-family="Times,serif" font-size="14.00">np3.InitializeEntity</text>
</a>
</g>
</g>
<!-- np3.EntityLargeGaibonProjectile&#45;&gt;np3.InitializeEntity -->
<g id="edge5" class="edge">
<title>np3.EntityLargeGaibonProjectile&#45;&gt;np3.InitializeEntity</title>
<path fill="none" stroke="black" d="M921.9,-179.93C940.93,-148.57 981.56,-81.6 1003.94,-44.71"/>
<polygon fill="black" stroke="black" points="1007.02,-46.38 1009.22,-36.02 1001.04,-42.75 1007.02,-46.38"/>
<text text-anchor="middle" x="1004.22" y="-39.82" font-family="Times,serif" font-size="14.00">1</text>
</g>
<!-- np3.MoveEntity -->
<g id="node7" class="node">
<title>np3.MoveEntity</title>
<g id="a_node7"><a xlink:href="np3.MoveEntity.svg" xlink:title="np3.MoveEntity">
<ellipse fill="green" stroke="black" cx="1223.54" cy="-18" rx="85.29" ry="18"/>
<text text-anchor="middle" x="1223.54" y="-14.3" font-family="Times,serif" font-size="14.00">np3.MoveEntity</text>
</a>
</g>
</g>
<!-- np3.EntityLargeGaibonProjectile&#45;&gt;np3.MoveEntity -->
<g id="edge6" class="edge">
<title>np3.EntityLargeGaibonProjectile&#45;&gt;np3.MoveEntity</title>
<path fill="none" stroke="black" d="M940.89,-180.25C998.01,-147.67 1123.95,-75.82 1186.62,-40.06"/>
<polygon fill="black" stroke="black" points="1188.44,-43.05 1195.4,-35.06 1184.98,-36.97 1188.44,-43.05"/>
<text text-anchor="middle" x="1190.4" y="-38.86" font-family="Times,serif" font-size="14.00">1</text>
</g>
<!-- rcos -->
<g id="node8" class="node">
<title>rcos</title>
<g id="a_node8"><a xlink:href="rcos.svg" xlink:title="rcos">
<ellipse fill="lightblue" stroke="black" cx="1357.54" cy="-18" rx="30.59" ry="18"/>
<text text-anchor="middle" x="1357.54" y="-14.3" font-family="Times,serif" font-size="14.00">rcos</text>
</a>
</g>
</g>
<!-- np3.EntityLargeGaibonProjectile&#45;&gt;rcos -->
<g id="edge7" class="edge">
<title>np3.EntityLargeGaibonProjectile&#45;&gt;rcos</title>
<path fill="none" stroke="black" d="M954.06,-180.53C1028.11,-151.76 1185.5,-90.23 1317.54,-36 1319.72,-35.11 1321.96,-34.18 1324.22,-33.23"/>
<polygon fill="black" stroke="black" points="1325.61,-36.45 1333.47,-29.34 1322.89,-29.99 1325.61,-36.45"/>
<text text-anchor="middle" x="1328.47" y="-33.14" font-family="Times,serif" font-size="14.00">1</text>
</g>
<!-- rsin -->
<g id="node9" class="node">
<title>rsin</title>
<g id="a_node9"><a xlink:href="rsin.svg" xlink:title="rsin">
<ellipse fill="lightblue" stroke="black" cx="1434.54" cy="-18" rx="28.7" ry="18"/>
<text text-anchor="middle" x="1434.54" y="-14.3" font-family="Times,serif" font-size="14.00">rsin</text>
</a>
</g>
</g>
<!-- np3.EntityLargeGaibonProjectile&#45;&gt;rsin -->
<g id="edge8" class="edge">
<title>np3.EntityLargeGaibonProjectile&#45;&gt;rsin</title>
<path fill="none" stroke="black" d="M966.55,-180.95C1057.37,-153.98 1243.93,-96.52 1397.54,-36 1399.37,-35.28 1401.23,-34.52 1403.11,-33.73"/>
<polygon fill="black" stroke="black" points="1404.66,-36.87 1412.41,-29.65 1401.85,-30.46 1404.66,-36.87"/>
<text text-anchor="middle" x="1407.41" y="-33.45" font-family="Times,serif" font-size="14.00">1</text>
</g>
</g>
</svg>
