<?xml version="1.0" encoding="UTF-8" standalone="no"?>
<!DOCTYPE svg PUBLIC "-//W3C//DTD SVG 1.1//EN"
 "http://www.w3.org/Graphics/SVG/1.1/DTD/svg11.dtd">
<!-- Generated by graphviz version 2.43.0 (0)
 -->
<!-- Title: np3.FindFirstEntityAbove Pages: 1 -->
<svg width="502pt" height="224pt"
 viewBox="0.00 0.00 501.88 224.00" xmlns="http://www.w3.org/2000/svg" xmlns:xlink="http://www.w3.org/1999/xlink">
<g id="graph0" class="graph" transform="scale(1 1) rotate(0) translate(4 220)">
<title>np3.FindFirstEntityAbove</title>
<polygon fill="white" stroke="transparent" points="-4,4 -4,-220 497.88,-220 497.88,4 -4,4"/>
<!-- np3.FindFirstEntityAbove -->
<g id="node1" class="node">
<title>np3.FindFirstEntityAbove</title>
<ellipse fill="green" stroke="black" cx="255.39" cy="-18" rx="131.88" ry="18"/>
<text text-anchor="middle" x="255.39" y="-14.3" font-family="Times,serif" font-size="14.00">np3.FindFirstEntityAbove</text>
</g>
<!-- np3.CreateEntitiesAbove -->
<g id="node2" class="node">
<title>np3.CreateEntitiesAbove</title>
<g id="a_node2"><a xlink:href="np3.CreateEntitiesAbove.svg" xlink:title="np3.CreateEntitiesAbove">
<ellipse fill="green" stroke="black" cx="127.39" cy="-198" rx="127.28" ry="18"/>
<text text-anchor="middle" x="127.39" y="-194.3" font-family="Times,serif" font-size="14.00">np3.CreateEntitiesAbove</text>
</a>
</g>
</g>
<!-- np3.CreateEntitiesAbove&#45;&gt;np3.FindFirstEntityAbove -->
<g id="edge1" class="edge">
<title>np3.CreateEntitiesAbove&#45;&gt;np3.FindFirstEntityAbove</title>
<path fill="none" stroke="black" d="M139.66,-179.93C162.31,-148.43 210.78,-81.03 237.24,-44.24"/>
<polygon fill="black" stroke="black" points="240.16,-46.18 243.15,-36.02 234.47,-42.09 240.16,-46.18"/>
<text text-anchor="middle" x="134.66" y="-168.73" font-family="Times,serif" font-size="14.00">1</text>
</g>
<!-- np3.InitRoomEntities -->
<g id="node3" class="node">
<title>np3.InitRoomEntities</title>
<g id="a_node3"><a xlink:href="np3.InitRoomEntities.svg" xlink:title="np3.InitRoomEntities">
<ellipse fill="green" stroke="black" cx="383.39" cy="-198" rx="110.48" ry="18"/>
<text text-anchor="middle" x="383.39" y="-194.3" font-family="Times,serif" font-size="14.00">np3.InitRoomEntities</text>
</a>
</g>
</g>
<!-- np3.InitRoomEntities&#45;&gt;np3.FindFirstEntityAbove -->
<g id="edge2" class="edge">
<title>np3.InitRoomEntities&#45;&gt;np3.FindFirstEntityAbove</title>
<path fill="none" stroke="black" d="M371.12,-179.93C348.47,-148.43 300,-81.03 273.54,-44.24"/>
<polygon fill="black" stroke="black" points="276.3,-42.09 267.62,-36.02 270.62,-46.18 276.3,-42.09"/>
<text text-anchor="middle" x="366.12" y="-168.73" font-family="Times,serif" font-size="14.00">1</text>
</g>
</g>
</svg>
