<?xml version="1.0" encoding="UTF-8" standalone="no"?>
<!DOCTYPE svg PUBLIC "-//W3C//DTD SVG 1.1//EN"
 "http://www.w3.org/Graphics/SVG/1.1/DTD/svg11.dtd">
<!-- Generated by graphviz version 2.43.0 (0)
 -->
<!-- Title: np3.EntitySurfacingWater Pages: 1 -->
<svg width="1119pt" height="224pt"
 viewBox="0.00 0.00 1118.94 224.00" xmlns="http://www.w3.org/2000/svg" xmlns:xlink="http://www.w3.org/1999/xlink">
<g id="graph0" class="graph" transform="scale(1 1) rotate(0) translate(4 220)">
<title>np3.EntitySurfacingWater</title>
<polygon fill="white" stroke="transparent" points="-4,4 -4,-220 1114.94,-220 1114.94,4 -4,4"/>
<!-- np3.EntitySurfacingWater -->
<g id="node1" class="node">
<title>np3.EntitySurfacingWater</title>
<ellipse fill="green" stroke="black" cx="630.44" cy="-198" rx="132.68" ry="18"/>
<text text-anchor="middle" x="630.44" y="-194.3" font-family="Times,serif" font-size="14.00">np3.EntitySurfacingWater</text>
</g>
<!-- dra.AllocPrimitives -->
<g id="node2" class="node">
<title>dra.AllocPrimitives</title>
<g id="a_node2"><a xlink:href="dra.AllocPrimitives.svg" xlink:title="dra.AllocPrimitives">
<ellipse fill="green" stroke="black" cx="99.44" cy="-18" rx="99.38" ry="18"/>
<text text-anchor="middle" x="99.44" y="-14.3" font-family="Times,serif" font-size="14.00">dra.AllocPrimitives</text>
</a>
</g>
</g>
<!-- np3.EntitySurfacingWater&#45;&gt;dra.AllocPrimitives -->
<g id="edge1" class="edge">
<title>np3.EntitySurfacingWater&#45;&gt;dra.AllocPrimitives</title>
<path fill="none" stroke="black" d="M582.85,-181.05C484.33,-148.02 258.55,-72.33 154.18,-37.35"/>
<polygon fill="black" stroke="black" points="155.07,-33.95 144.47,-34.1 152.84,-40.59 155.07,-33.95"/>
<text text-anchor="middle" x="139.47" y="-37.9" font-family="Times,serif" font-size="14.00">1</text>
</g>
<!-- dra.PlaySfxVolPan -->
<g id="node3" class="node">
<title>dra.PlaySfxVolPan</title>
<g id="a_node3"><a xlink:href="dra.PlaySfxVolPan.svg" xlink:title="dra.PlaySfxVolPan">
<ellipse fill="green" stroke="black" cx="312.44" cy="-18" rx="95.58" ry="18"/>
<text text-anchor="middle" x="312.44" y="-14.3" font-family="Times,serif" font-size="14.00">dra.PlaySfxVolPan</text>
</a>
</g>
</g>
<!-- np3.EntitySurfacingWater&#45;&gt;dra.PlaySfxVolPan -->
<g id="edge2" class="edge">
<title>np3.EntitySurfacingWater&#45;&gt;dra.PlaySfxVolPan</title>
<path fill="none" stroke="black" d="M600.81,-180.41C542.91,-148 414.81,-76.3 350.64,-40.38"/>
<polygon fill="black" stroke="black" points="352.09,-37.18 341.65,-35.35 348.67,-43.29 352.09,-37.18"/>
<text text-anchor="middle" x="336.65" y="-39.15" font-family="Times,serif" font-size="14.00">1</text>
</g>
<!-- np3.DestroyEntity -->
<g id="node4" class="node">
<title>np3.DestroyEntity</title>
<g id="a_node4"><a xlink:href="np3.DestroyEntity.svg" xlink:title="np3.DestroyEntity">
<ellipse fill="green" stroke="black" cx="522.44" cy="-18" rx="96.68" ry="18"/>
<text text-anchor="middle" x="522.44" y="-14.3" font-family="Times,serif" font-size="14.00">np3.DestroyEntity</text>
</a>
</g>
</g>
<!-- np3.EntitySurfacingWater&#45;&gt;np3.DestroyEntity -->
<g id="edge3" class="edge">
<title>np3.EntitySurfacingWater&#45;&gt;np3.DestroyEntity</title>
<path fill="none" stroke="black" d="M620.09,-179.93C601.06,-148.57 560.42,-81.6 538.04,-44.71"/>
<polygon fill="black" stroke="black" points="540.94,-42.75 532.77,-36.02 534.96,-46.38 540.94,-42.75"/>
<text text-anchor="middle" x="527.77" y="-39.82" font-family="Times,serif" font-size="14.00">1</text>
</g>
<!-- np3.InitializeEntity -->
<g id="node5" class="node">
<title>np3.InitializeEntity</title>
<g id="a_node5"><a xlink:href="np3.InitializeEntity.svg" xlink:title="np3.InitializeEntity">
<ellipse fill="green" stroke="black" cx="738.44" cy="-18" rx="100.98" ry="18"/>
<text text-anchor="middle" x="738.44" y="-14.3" font-family="Times,serif" font-size="14.00">np3.InitializeEntity</text>
</a>
</g>
</g>
<!-- np3.EntitySurfacingWater&#45;&gt;np3.InitializeEntity -->
<g id="edge4" class="edge">
<title>np3.EntitySurfacingWater&#45;&gt;np3.InitializeEntity</title>
<path fill="none" stroke="black" d="M640.8,-179.93C659.83,-148.57 700.46,-81.6 722.84,-44.71"/>
<polygon fill="black" stroke="black" points="725.92,-46.38 728.12,-36.02 719.94,-42.75 725.92,-46.38"/>
<text text-anchor="middle" x="723.12" y="-39.82" font-family="Times,serif" font-size="14.00">1</text>
</g>
<!-- np3.MoveEntity -->
<g id="node6" class="node">
<title>np3.MoveEntity</title>
<g id="a_node6"><a xlink:href="np3.MoveEntity.svg" xlink:title="np3.MoveEntity">
<ellipse fill="green" stroke="black" cx="942.44" cy="-18" rx="85.29" ry="18"/>
<text text-anchor="middle" x="942.44" y="-14.3" font-family="Times,serif" font-size="14.00">np3.MoveEntity</text>
</a>
</g>
</g>
<!-- np3.EntitySurfacingWater&#45;&gt;np3.MoveEntity -->
<g id="edge5" class="edge">
<title>np3.EntitySurfacingWater&#45;&gt;np3.MoveEntity</title>
<path fill="none" stroke="black" d="M659.51,-180.41C716.47,-147.92 842.64,-75.94 905.44,-40.11"/>
<polygon fill="black" stroke="black" points="907.28,-43.09 914.23,-35.09 903.81,-37.01 907.28,-43.09"/>
<text text-anchor="middle" x="909.23" y="-38.89" font-family="Times,serif" font-size="14.00">1</text>
</g>
<!-- rand -->
<g id="node7" class="node">
<title>rand</title>
<g id="a_node7"><a xlink:href="rand.svg" xlink:title="rand">
<ellipse fill="lightblue" stroke="black" cx="1078.44" cy="-18" rx="32.49" ry="18"/>
<text text-anchor="middle" x="1078.44" y="-14.3" font-family="Times,serif" font-size="14.00">rand</text>
</a>
</g>
</g>
<!-- np3.EntitySurfacingWater&#45;&gt;rand -->
<g id="edge6" class="edge">
<title>np3.EntitySurfacingWater&#45;&gt;rand</title>
<path fill="none" stroke="black" d="M671.4,-180.87C744.68,-151.98 903.06,-89.44 1036.44,-36 1038.66,-35.11 1040.94,-34.19 1043.24,-33.27"/>
<polygon fill="black" stroke="black" points="1044.72,-36.45 1052.69,-29.46 1042.1,-29.95 1044.72,-36.45"/>
<text text-anchor="middle" x="1047.69" y="-33.26" font-family="Times,serif" font-size="14.00">1</text>
</g>
</g>
</svg>
