<?xml version="1.0" encoding="UTF-8" standalone="no"?>
<!DOCTYPE svg PUBLIC "-//W3C//DTD SVG 1.1//EN"
 "http://www.w3.org/Graphics/SVG/1.1/DTD/svg11.dtd">
<!-- Generated by graphviz version 2.43.0 (0)
 -->
<!-- Title: np3.BottomCornerText Pages: 1 -->
<svg width="669pt" height="404pt"
 viewBox="0.00 0.00 668.68 404.00" xmlns="http://www.w3.org/2000/svg" xmlns:xlink="http://www.w3.org/1999/xlink">
<g id="graph0" class="graph" transform="scale(1 1) rotate(0) translate(4 400)">
<title>np3.BottomCornerText</title>
<polygon fill="white" stroke="transparent" points="-4,4 -4,-400 664.68,-400 664.68,4 -4,4"/>
<!-- np3.BottomCornerText -->
<g id="node1" class="node">
<title>np3.BottomCornerText</title>
<ellipse fill="green" stroke="black" cx="320.14" cy="-198" rx="117.78" ry="18"/>
<text text-anchor="middle" x="320.14" y="-194.3" font-family="Times,serif" font-size="14.00">np3.BottomCornerText</text>
</g>
<!-- dra.AllocPrimitives -->
<g id="node2" class="node">
<title>dra.AllocPrimitives</title>
<g id="a_node2"><a xlink:href="dra.AllocPrimitives.svg" xlink:title="dra.AllocPrimitives">
<ellipse fill="green" stroke="black" cx="320.14" cy="-18" rx="99.38" ry="18"/>
<text text-anchor="middle" x="320.14" y="-14.3" font-family="Times,serif" font-size="14.00">dra.AllocPrimitives</text>
</a>
</g>
</g>
<!-- np3.BottomCornerText&#45;&gt;dra.AllocPrimitives -->
<g id="edge1" class="edge">
<title>np3.BottomCornerText&#45;&gt;dra.AllocPrimitives</title>
<path fill="none" stroke="black" d="M320.14,-179.93C320.14,-148.97 320.14,-83.3 320.14,-46.13"/>
<polygon fill="black" stroke="black" points="323.64,-46.02 320.14,-36.02 316.64,-46.02 323.64,-46.02"/>
<text text-anchor="middle" x="315.14" y="-39.82" font-family="Times,serif" font-size="14.00">1</text>
</g>
<!-- np3.CollectGold -->
<g id="node3" class="node">
<title>np3.CollectGold</title>
<g id="a_node3"><a xlink:href="np3.CollectGold.svg" xlink:title="np3.CollectGold">
<ellipse fill="green" stroke="black" cx="85.14" cy="-378" rx="85.29" ry="18"/>
<text text-anchor="middle" x="85.14" y="-374.3" font-family="Times,serif" font-size="14.00">np3.CollectGold</text>
</a>
</g>
</g>
<!-- np3.CollectGold&#45;&gt;np3.BottomCornerText -->
<g id="edge2" class="edge">
<title>np3.CollectGold&#45;&gt;np3.BottomCornerText</title>
<path fill="none" stroke="black" d="M106.83,-360.57C148.85,-328.75 241.45,-258.61 289.64,-222.1"/>
<polygon fill="black" stroke="black" points="291.96,-224.73 297.82,-215.91 287.74,-219.15 291.96,-224.73"/>
<text text-anchor="middle" x="101.83" y="-349.37" font-family="Times,serif" font-size="14.00">1</text>
</g>
<!-- np3.EntityEquipItemDrop -->
<g id="node4" class="node">
<title>np3.EntityEquipItemDrop</title>
<g id="a_node4"><a xlink:href="np3.EntityEquipItemDrop.svg" xlink:title="np3.EntityEquipItemDrop">
<ellipse fill="green" stroke="black" cx="320.14" cy="-378" rx="131.88" ry="18"/>
<text text-anchor="middle" x="320.14" y="-374.3" font-family="Times,serif" font-size="14.00">np3.EntityEquipItemDrop</text>
</a>
</g>
</g>
<!-- np3.EntityEquipItemDrop&#45;&gt;np3.BottomCornerText -->
<g id="edge3" class="edge">
<title>np3.EntityEquipItemDrop&#45;&gt;np3.BottomCornerText</title>
<path fill="none" stroke="black" d="M320.14,-359.93C320.14,-328.97 320.14,-263.3 320.14,-226.13"/>
<polygon fill="black" stroke="black" points="323.64,-226.02 320.14,-216.02 316.64,-226.02 323.64,-226.02"/>
<text text-anchor="middle" x="315.14" y="-348.73" font-family="Times,serif" font-size="14.00">1</text>
</g>
<!-- np3.TestCollisions -->
<g id="node5" class="node">
<title>np3.TestCollisions</title>
<g id="a_node5"><a xlink:href="np3.TestCollisions.svg" xlink:title="np3.TestCollisions">
<ellipse fill="red" stroke="black" cx="565.14" cy="-378" rx="95.58" ry="18"/>
<text text-anchor="middle" x="565.14" y="-374.3" font-family="Times,serif" font-size="14.00">np3.TestCollisions</text>
</a>
</g>
</g>
<!-- np3.TestCollisions&#45;&gt;np3.BottomCornerText -->
<g id="edge4" class="edge">
<title>np3.TestCollisions&#45;&gt;np3.BottomCornerText</title>
<path fill="none" stroke="black" d="M542.09,-360.25C497.95,-328.18 401.44,-258.07 351.49,-221.78"/>
<polygon fill="black" stroke="black" points="353.46,-218.88 343.31,-215.83 349.34,-224.54 353.46,-218.88"/>
<text text-anchor="middle" x="537.09" y="-349.05" font-family="Times,serif" font-size="14.00">1</text>
</g>
</g>
</svg>
