<?xml version="1.0" encoding="UTF-8" standalone="no"?>
<!DOCTYPE svg PUBLIC "-//W3C//DTD SVG 1.1//EN"
 "http://www.w3.org/Graphics/SVG/1.1/DTD/svg11.dtd">
<!-- Generated by graphviz version 2.43.0 (0)
 -->
<!-- Title: np3.polarPlacePartsList Pages: 1 -->
<svg width="607pt" height="404pt"
 viewBox="0.00 0.00 607.18 404.00" xmlns="http://www.w3.org/2000/svg" xmlns:xlink="http://www.w3.org/1999/xlink">
<g id="graph0" class="graph" transform="scale(1 1) rotate(0) translate(4 400)">
<title>np3.polarPlacePartsList</title>
<polygon fill="white" stroke="transparent" points="-4,4 -4,-400 603.18,-400 603.18,4 -4,4"/>
<!-- np3.polarPlacePartsList -->
<g id="node1" class="node">
<title>np3.polarPlacePartsList</title>
<ellipse fill="green" stroke="black" cx="285.44" cy="-198" rx="122.38" ry="18"/>
<text text-anchor="middle" x="285.44" y="-194.3" font-family="Times,serif" font-size="14.00">np3.polarPlacePartsList</text>
</g>
<!-- np3.polarPlacePart -->
<g id="node2" class="node">
<title>np3.polarPlacePart</title>
<g id="a_node2"><a xlink:href="np3.polarPlacePart.svg" xlink:title="np3.polarPlacePart">
<ellipse fill="green" stroke="black" cx="285.44" cy="-18" rx="99.38" ry="18"/>
<text text-anchor="middle" x="285.44" y="-14.3" font-family="Times,serif" font-size="14.00">np3.polarPlacePart</text>
</a>
</g>
</g>
<!-- np3.polarPlacePartsList&#45;&gt;np3.polarPlacePart -->
<g id="edge1" class="edge">
<title>np3.polarPlacePartsList&#45;&gt;np3.polarPlacePart</title>
<path fill="none" stroke="black" d="M285.44,-179.93C285.44,-148.97 285.44,-83.3 285.44,-46.13"/>
<polygon fill="black" stroke="black" points="288.94,-46.02 285.44,-36.02 281.94,-46.02 288.94,-46.02"/>
<text text-anchor="middle" x="280.44" y="-39.82" font-family="Times,serif" font-size="14.00">1</text>
</g>
<!-- np3.EntityBlade -->
<g id="node3" class="node">
<title>np3.EntityBlade</title>
<g id="a_node3"><a xlink:href="np3.EntityBlade.svg" xlink:title="np3.EntityBlade">
<ellipse fill="green" stroke="black" cx="86.44" cy="-378" rx="86.38" ry="18"/>
<text text-anchor="middle" x="86.44" y="-374.3" font-family="Times,serif" font-size="14.00">np3.EntityBlade</text>
</a>
</g>
</g>
<!-- np3.EntityBlade&#45;&gt;np3.polarPlacePartsList -->
<g id="edge2" class="edge">
<title>np3.EntityBlade&#45;&gt;np3.polarPlacePartsList</title>
<path fill="none" stroke="black" d="M105.16,-360.25C140.72,-328.45 218.11,-259.22 258.97,-222.68"/>
<polygon fill="black" stroke="black" points="261.51,-225.11 266.63,-215.83 256.84,-219.89 261.51,-225.11"/>
<text text-anchor="middle" x="95.66" y="-349.05" font-family="Times,serif" font-size="14.00">11</text>
</g>
<!-- np3.EntityGurkha -->
<g id="node4" class="node">
<title>np3.EntityGurkha</title>
<g id="a_node4"><a xlink:href="np3.EntityGurkha.svg" xlink:title="np3.EntityGurkha">
<ellipse fill="green" stroke="black" cx="285.44" cy="-378" rx="94.48" ry="18"/>
<text text-anchor="middle" x="285.44" y="-374.3" font-family="Times,serif" font-size="14.00">np3.EntityGurkha</text>
</a>
</g>
</g>
<!-- np3.EntityGurkha&#45;&gt;np3.polarPlacePartsList -->
<g id="edge3" class="edge">
<title>np3.EntityGurkha&#45;&gt;np3.polarPlacePartsList</title>
<path fill="none" stroke="black" d="M285.44,-359.93C285.44,-328.97 285.44,-263.3 285.44,-226.13"/>
<polygon fill="black" stroke="black" points="288.94,-226.02 285.44,-216.02 281.94,-226.02 288.94,-226.02"/>
<text text-anchor="middle" x="275.94" y="-348.73" font-family="Times,serif" font-size="14.00">12</text>
</g>
<!-- np3.EntityHammer -->
<g id="node5" class="node">
<title>np3.EntityHammer</title>
<g id="a_node5"><a xlink:href="np3.EntityHammer.svg" xlink:title="np3.EntityHammer">
<ellipse fill="green" stroke="black" cx="498.44" cy="-378" rx="100.98" ry="18"/>
<text text-anchor="middle" x="498.44" y="-374.3" font-family="Times,serif" font-size="14.00">np3.EntityHammer</text>
</a>
</g>
</g>
<!-- np3.EntityHammer&#45;&gt;np3.polarPlacePartsList -->
<g id="edge4" class="edge">
<title>np3.EntityHammer&#45;&gt;np3.polarPlacePartsList</title>
<path fill="none" stroke="black" d="M478.4,-360.25C440.27,-328.38 357.16,-258.94 313.51,-222.45"/>
<polygon fill="black" stroke="black" points="315.5,-219.56 305.58,-215.83 311.01,-224.93 315.5,-219.56"/>
<text text-anchor="middle" x="473.4" y="-349.05" font-family="Times,serif" font-size="14.00">8</text>
</g>
</g>
</svg>
