<?xml version="1.0" encoding="UTF-8" standalone="no"?>
<!DOCTYPE svg PUBLIC "-//W3C//DTD SVG 1.1//EN"
 "http://www.w3.org/Graphics/SVG/1.1/DTD/svg11.dtd">
<!-- Generated by graphviz version 2.43.0 (0)
 -->
<!-- Title: np3.func_801C6458 Pages: 1 -->
<svg width="840pt" height="404pt"
 viewBox="0.00 0.00 840.43 404.00" xmlns="http://www.w3.org/2000/svg" xmlns:xlink="http://www.w3.org/1999/xlink">
<g id="graph0" class="graph" transform="scale(1 1) rotate(0) translate(4 400)">
<title>np3.func_801C6458</title>
<polygon fill="white" stroke="transparent" points="-4,4 -4,-400 836.43,-400 836.43,4 -4,4"/>
<!-- np3.func_801C6458 -->
<g id="node1" class="node">
<title>np3.func_801C6458</title>
<ellipse fill="green" stroke="black" cx="359.49" cy="-198" rx="103.18" ry="18"/>
<text text-anchor="middle" x="359.49" y="-194.3" font-family="Times,serif" font-size="14.00">np3.func_801C6458</text>
</g>
<!-- dra.CheckCollision -->
<g id="node2" class="node">
<title>dra.CheckCollision</title>
<g id="a_node2"><a xlink:href="dra.CheckCollision.svg" xlink:title="dra.CheckCollision">
<ellipse fill="green" stroke="black" cx="97.49" cy="-18" rx="97.48" ry="18"/>
<text text-anchor="middle" x="97.49" y="-14.3" font-family="Times,serif" font-size="14.00">dra.CheckCollision</text>
</a>
</g>
</g>
<!-- np3.func_801C6458&#45;&gt;dra.CheckCollision -->
<g id="edge1" class="edge">
<title>np3.func_801C6458&#45;&gt;dra.CheckCollision</title>
<path fill="none" stroke="black" d="M334.84,-180.25C287.42,-148.04 183.48,-77.42 130.28,-41.27"/>
<polygon fill="black" stroke="black" points="132.12,-38.3 121.88,-35.57 128.19,-44.09 132.12,-38.3"/>
<text text-anchor="middle" x="116.88" y="-39.37" font-family="Times,serif" font-size="14.00">1</text>
</g>
<!-- dra.PlaySfx -->
<g id="node3" class="node">
<title>dra.PlaySfx</title>
<g id="a_node3"><a xlink:href="dra.PlaySfx.svg" xlink:title="dra.PlaySfx">
<ellipse fill="green" stroke="black" cx="277.49" cy="-18" rx="64.19" ry="18"/>
<text text-anchor="middle" x="277.49" y="-14.3" font-family="Times,serif" font-size="14.00">dra.PlaySfx</text>
</a>
</g>
</g>
<!-- np3.func_801C6458&#45;&gt;dra.PlaySfx -->
<g id="edge2" class="edge">
<title>np3.func_801C6458&#45;&gt;dra.PlaySfx</title>
<path fill="none" stroke="black" d="M351.63,-179.93C337.24,-148.7 306.59,-82.17 289.55,-45.18"/>
<polygon fill="black" stroke="black" points="292.69,-43.63 285.33,-36.02 286.34,-46.56 292.69,-43.63"/>
<text text-anchor="middle" x="280.33" y="-39.82" font-family="Times,serif" font-size="14.00">1</text>
</g>
<!-- np3.AllocEntity -->
<g id="node4" class="node">
<title>np3.AllocEntity</title>
<g id="a_node4"><a xlink:href="np3.AllocEntity.svg" xlink:title="np3.AllocEntity">
<ellipse fill="green" stroke="black" cx="442.49" cy="-18" rx="82.59" ry="18"/>
<text text-anchor="middle" x="442.49" y="-14.3" font-family="Times,serif" font-size="14.00">np3.AllocEntity</text>
</a>
</g>
</g>
<!-- np3.func_801C6458&#45;&gt;np3.AllocEntity -->
<g id="edge3" class="edge">
<title>np3.func_801C6458&#45;&gt;np3.AllocEntity</title>
<path fill="none" stroke="black" d="M367.45,-179.93C382.01,-148.7 413.04,-82.17 430.28,-45.18"/>
<polygon fill="black" stroke="black" points="433.5,-46.56 434.56,-36.02 427.16,-43.6 433.5,-46.56"/>
<text text-anchor="middle" x="429.56" y="-39.82" font-family="Times,serif" font-size="14.00">1</text>
</g>
<!-- np3.CreateEntityFromEntity -->
<g id="node5" class="node">
<title>np3.CreateEntityFromEntity</title>
<g id="a_node5"><a xlink:href="np3.CreateEntityFromEntity.svg" xlink:title="np3.CreateEntityFromEntity">
<ellipse fill="green" stroke="black" cx="687.49" cy="-18" rx="144.87" ry="18"/>
<text text-anchor="middle" x="687.49" y="-14.3" font-family="Times,serif" font-size="14.00">np3.CreateEntityFromEntity</text>
</a>
</g>
</g>
<!-- np3.func_801C6458&#45;&gt;np3.CreateEntityFromEntity -->
<g id="edge4" class="edge">
<title>np3.func_801C6458&#45;&gt;np3.CreateEntityFromEntity</title>
<path fill="none" stroke="black" d="M389.47,-180.73C448.83,-148.52 581.32,-76.62 647.82,-40.53"/>
<polygon fill="black" stroke="black" points="649.63,-43.53 656.75,-35.68 646.29,-37.38 649.63,-43.53"/>
<text text-anchor="middle" x="651.75" y="-39.48" font-family="Times,serif" font-size="14.00">1</text>
</g>
<!-- np3.EntityMerman -->
<g id="node6" class="node">
<title>np3.EntityMerman</title>
<g id="a_node6"><a xlink:href="np3.EntityMerman.svg" xlink:title="np3.EntityMerman">
<ellipse fill="green" stroke="black" cx="249.49" cy="-378" rx="98.58" ry="18"/>
<text text-anchor="middle" x="249.49" y="-374.3" font-family="Times,serif" font-size="14.00">np3.EntityMerman</text>
</a>
</g>
</g>
<!-- np3.EntityMerman&#45;&gt;np3.func_801C6458 -->
<g id="edge5" class="edge">
<title>np3.EntityMerman&#45;&gt;np3.func_801C6458</title>
<path fill="none" stroke="black" d="M260.04,-359.93C279.42,-328.57 320.8,-261.6 343.6,-224.71"/>
<polygon fill="black" stroke="black" points="346.7,-226.36 348.98,-216.02 340.74,-222.68 346.7,-226.36"/>
<text text-anchor="middle" x="255.04" y="-348.73" font-family="Times,serif" font-size="14.00">4</text>
</g>
<!-- np3.EntityMerman2 -->
<g id="node7" class="node">
<title>np3.EntityMerman2</title>
<g id="a_node7"><a xlink:href="np3.EntityMerman2.svg" xlink:title="np3.EntityMerman2">
<ellipse fill="green" stroke="black" cx="470.49" cy="-378" rx="104.78" ry="18"/>
<text text-anchor="middle" x="470.49" y="-374.3" font-family="Times,serif" font-size="14.00">np3.EntityMerman2</text>
</a>
</g>
</g>
<!-- np3.EntityMerman2&#45;&gt;np3.func_801C6458 -->
<g id="edge6" class="edge">
<title>np3.EntityMerman2&#45;&gt;np3.func_801C6458</title>
<path fill="none" stroke="black" d="M459.85,-359.93C440.29,-328.57 398.53,-261.6 375.52,-224.71"/>
<polygon fill="black" stroke="black" points="378.36,-222.65 370.1,-216.02 372.42,-226.35 378.36,-222.65"/>
<text text-anchor="middle" x="454.85" y="-348.73" font-family="Times,serif" font-size="14.00">5</text>
</g>
</g>
</svg>
