<?xml version="1.0" encoding="UTF-8" standalone="no"?>
<!DOCTYPE svg PUBLIC "-//W3C//DTD SVG 1.1//EN"
 "http://www.w3.org/Graphics/SVG/1.1/DTD/svg11.dtd">
<!-- Generated by graphviz version 2.43.0 (0)
 -->
<!-- Title: np3.UpdateWeightChains Pages: 1 -->
<svg width="666pt" height="224pt"
 viewBox="0.00 0.00 666.42 224.00" xmlns="http://www.w3.org/2000/svg" xmlns:xlink="http://www.w3.org/1999/xlink">
<g id="graph0" class="graph" transform="scale(1 1) rotate(0) translate(4 220)">
<title>np3.UpdateWeightChains</title>
<polygon fill="white" stroke="transparent" points="-4,4 -4,-220 662.42,-220 662.42,4 -4,4"/>
<!-- np3.UpdateWeightChains -->
<g id="node1" class="node">
<title>np3.UpdateWeightChains</title>
<ellipse fill="green" stroke="black" cx="334.09" cy="-18" rx="129.98" ry="18"/>
<text text-anchor="middle" x="334.09" y="-14.3" font-family="Times,serif" font-size="14.00">np3.UpdateWeightChains</text>
</g>
<!-- np3.EntityPathBlockSmallWeight -->
<g id="node2" class="node">
<title>np3.EntityPathBlockSmallWeight</title>
<g id="a_node2"><a xlink:href="np3.EntityPathBlockSmallWeight.svg" xlink:title="np3.EntityPathBlockSmallWeight">
<ellipse fill="green" stroke="black" cx="165.09" cy="-198" rx="165.17" ry="18"/>
<text text-anchor="middle" x="165.09" y="-194.3" font-family="Times,serif" font-size="14.00">np3.EntityPathBlockSmallWeight</text>
</a>
</g>
</g>
<!-- np3.EntityPathBlockSmallWeight&#45;&gt;np3.UpdateWeightChains -->
<g id="edge1" class="edge">
<title>np3.EntityPathBlockSmallWeight&#45;&gt;np3.UpdateWeightChains</title>
<path fill="none" stroke="black" d="M181.29,-179.93C211.45,-148.17 276.27,-79.89 311,-43.32"/>
<polygon fill="black" stroke="black" points="313.58,-45.68 317.93,-36.02 308.51,-40.86 313.58,-45.68"/>
<text text-anchor="middle" x="176.29" y="-168.73" font-family="Times,serif" font-size="14.00">1</text>
</g>
<!-- np3.EntityPathBlockTallWeight -->
<g id="node3" class="node">
<title>np3.EntityPathBlockTallWeight</title>
<g id="a_node3"><a xlink:href="np3.EntityPathBlockTallWeight.svg" xlink:title="np3.EntityPathBlockTallWeight">
<ellipse fill="green" stroke="black" cx="503.09" cy="-198" rx="155.17" ry="18"/>
<text text-anchor="middle" x="503.09" y="-194.3" font-family="Times,serif" font-size="14.00">np3.EntityPathBlockTallWeight</text>
</a>
</g>
</g>
<!-- np3.EntityPathBlockTallWeight&#45;&gt;np3.UpdateWeightChains -->
<g id="edge2" class="edge">
<title>np3.EntityPathBlockTallWeight&#45;&gt;np3.UpdateWeightChains</title>
<path fill="none" stroke="black" d="M486.88,-179.93C456.72,-148.17 391.9,-79.89 357.17,-43.32"/>
<polygon fill="black" stroke="black" points="359.66,-40.86 350.24,-36.02 354.59,-45.68 359.66,-40.86"/>
<text text-anchor="middle" x="481.88" y="-168.73" font-family="Times,serif" font-size="14.00">1</text>
</g>
</g>
</svg>
