<?xml version="1.0" encoding="UTF-8" standalone="no"?>
<!DOCTYPE svg PUBLIC "-//W3C//DTD SVG 1.1//EN"
 "http://www.w3.org/Graphics/SVG/1.1/DTD/svg11.dtd">
<!-- Generated by graphviz version 2.43.0 (0)
 -->
<!-- Title: np3.func_801CE04C Pages: 1 -->
<svg width="908pt" height="404pt"
 viewBox="0.00 0.00 908.18 404.00" xmlns="http://www.w3.org/2000/svg" xmlns:xlink="http://www.w3.org/1999/xlink">
<g id="graph0" class="graph" transform="scale(1 1) rotate(0) translate(4 400)">
<title>np3.func_801CE04C</title>
<polygon fill="white" stroke="transparent" points="-4,4 -4,-400 904.18,-400 904.18,4 -4,4"/>
<!-- np3.func_801CE04C -->
<g id="node1" class="node">
<title>np3.func_801CE04C</title>
<ellipse fill="green" stroke="black" cx="412.44" cy="-198" rx="105.08" ry="18"/>
<text text-anchor="middle" x="412.44" y="-194.3" font-family="Times,serif" font-size="14.00">np3.func_801CE04C</text>
</g>
<!-- dra.CheckCollision -->
<g id="node2" class="node">
<title>dra.CheckCollision</title>
<g id="a_node2"><a xlink:href="dra.CheckCollision.svg" xlink:title="dra.CheckCollision">
<ellipse fill="green" stroke="black" cx="412.44" cy="-18" rx="97.48" ry="18"/>
<text text-anchor="middle" x="412.44" y="-14.3" font-family="Times,serif" font-size="14.00">dra.CheckCollision</text>
</a>
</g>
</g>
<!-- np3.func_801CE04C&#45;&gt;dra.CheckCollision -->
<g id="edge1" class="edge">
<title>np3.func_801CE04C&#45;&gt;dra.CheckCollision</title>
<path fill="none" stroke="black" d="M412.44,-179.93C412.44,-148.97 412.44,-83.3 412.44,-46.13"/>
<polygon fill="black" stroke="black" points="415.94,-46.02 412.44,-36.02 408.94,-46.02 415.94,-46.02"/>
<text text-anchor="middle" x="407.44" y="-39.82" font-family="Times,serif" font-size="14.00">1</text>
</g>
<!-- np3.EntityBlade -->
<g id="node3" class="node">
<title>np3.EntityBlade</title>
<g id="a_node3"><a xlink:href="np3.EntityBlade.svg" xlink:title="np3.EntityBlade">
<ellipse fill="red" stroke="black" cx="86.44" cy="-378" rx="86.38" ry="18"/>
<text text-anchor="middle" x="86.44" y="-374.3" font-family="Times,serif" font-size="14.00">np3.EntityBlade</text>
</a>
</g>
</g>
<!-- np3.EntityBlade&#45;&gt;np3.func_801CE04C -->
<g id="edge2" class="edge">
<title>np3.EntityBlade&#45;&gt;np3.func_801CE04C</title>
<path fill="none" stroke="black" d="M115.66,-361.05C174.47,-328.94 307.15,-256.49 373.34,-220.35"/>
<polygon fill="black" stroke="black" points="375.13,-223.36 382.23,-215.5 371.77,-217.22 375.13,-223.36"/>
<text text-anchor="middle" x="110.66" y="-349.85" font-family="Times,serif" font-size="14.00">3</text>
</g>
<!-- np3.EntityGurkha -->
<g id="node4" class="node">
<title>np3.EntityGurkha</title>
<g id="a_node4"><a xlink:href="np3.EntityGurkha.svg" xlink:title="np3.EntityGurkha">
<ellipse fill="red" stroke="black" cx="285.44" cy="-378" rx="94.48" ry="18"/>
<text text-anchor="middle" x="285.44" y="-374.3" font-family="Times,serif" font-size="14.00">np3.EntityGurkha</text>
</a>
</g>
</g>
<!-- np3.EntityGurkha&#45;&gt;np3.func_801CE04C -->
<g id="edge3" class="edge">
<title>np3.EntityGurkha&#45;&gt;np3.func_801CE04C</title>
<path fill="none" stroke="black" d="M297.62,-359.93C320.09,-328.43 368.18,-261.03 394.43,-224.24"/>
<polygon fill="black" stroke="black" points="397.34,-226.19 400.3,-216.02 391.64,-222.12 397.34,-226.19"/>
<text text-anchor="middle" x="292.62" y="-348.73" font-family="Times,serif" font-size="14.00">3</text>
</g>
<!-- np3.EntityGurkhaBodyParts -->
<g id="node5" class="node">
<title>np3.EntityGurkhaBodyParts</title>
<g id="a_node5"><a xlink:href="np3.EntityGurkhaBodyParts.svg" xlink:title="np3.EntityGurkhaBodyParts">
<ellipse fill="red" stroke="black" cx="539.44" cy="-378" rx="141.88" ry="18"/>
<text text-anchor="middle" x="539.44" y="-374.3" font-family="Times,serif" font-size="14.00">np3.EntityGurkhaBodyParts</text>
</a>
</g>
</g>
<!-- np3.EntityGurkhaBodyParts&#45;&gt;np3.func_801CE04C -->
<g id="edge4" class="edge">
<title>np3.EntityGurkhaBodyParts&#45;&gt;np3.func_801CE04C</title>
<path fill="none" stroke="black" d="M527.27,-359.93C504.79,-328.43 456.7,-261.03 430.45,-224.24"/>
<polygon fill="black" stroke="black" points="433.24,-222.12 424.58,-216.02 427.54,-226.19 433.24,-222.12"/>
<text text-anchor="middle" x="522.27" y="-348.73" font-family="Times,serif" font-size="14.00">1</text>
</g>
<!-- np3.EntityHammer -->
<g id="node6" class="node">
<title>np3.EntityHammer</title>
<g id="a_node6"><a xlink:href="np3.EntityHammer.svg" xlink:title="np3.EntityHammer">
<ellipse fill="red" stroke="black" cx="799.44" cy="-378" rx="100.98" ry="18"/>
<text text-anchor="middle" x="799.44" y="-374.3" font-family="Times,serif" font-size="14.00">np3.EntityHammer</text>
</a>
</g>
</g>
<!-- np3.EntityHammer&#45;&gt;np3.func_801CE04C -->
<g id="edge5" class="edge">
<title>np3.EntityHammer&#45;&gt;np3.func_801CE04C</title>
<path fill="none" stroke="black" d="M764.76,-361.05C694.39,-328.68 534.94,-255.34 457.01,-219.5"/>
<polygon fill="black" stroke="black" points="458.01,-216.11 447.47,-215.11 455.09,-222.47 458.01,-216.11"/>
<text text-anchor="middle" x="759.76" y="-349.85" font-family="Times,serif" font-size="14.00">3</text>
</g>
</g>
</svg>
