<?xml version="1.0" encoding="UTF-8" standalone="no"?>
<!DOCTYPE svg PUBLIC "-//W3C//DTD SVG 1.1//EN"
 "http://www.w3.org/Graphics/SVG/1.1/DTD/svg11.dtd">
<!-- Generated by graphviz version 2.43.0 (0)
 -->
<!-- Title: np3.EntityPathBlockSmallWeight Pages: 1 -->
<svg width="1404pt" height="224pt"
 viewBox="0.00 0.00 1404.08 224.00" xmlns="http://www.w3.org/2000/svg" xmlns:xlink="http://www.w3.org/1999/xlink">
<g id="graph0" class="graph" transform="scale(1 1) rotate(0) translate(4 220)">
<title>np3.EntityPathBlockSmallWeight</title>
<polygon fill="white" stroke="transparent" points="-4,4 -4,-220 1400.08,-220 1400.08,4 -4,4"/>
<!-- np3.EntityPathBlockSmallWeight -->
<g id="node1" class="node">
<title>np3.EntityPathBlockSmallWeight</title>
<ellipse fill="green" stroke="black" cx="697.44" cy="-198" rx="165.17" ry="18"/>
<text text-anchor="middle" x="697.44" y="-194.3" font-family="Times,serif" font-size="14.00">np3.EntityPathBlockSmallWeight</text>
</g>
<!-- dra.AllocPrimitives -->
<g id="node2" class="node">
<title>dra.AllocPrimitives</title>
<g id="a_node2"><a xlink:href="dra.AllocPrimitives.svg" xlink:title="dra.AllocPrimitives">
<ellipse fill="green" stroke="black" cx="99.44" cy="-18" rx="99.38" ry="18"/>
<text text-anchor="middle" x="99.44" y="-14.3" font-family="Times,serif" font-size="14.00">dra.AllocPrimitives</text>
</a>
</g>
</g>
<!-- np3.EntityPathBlockSmallWeight&#45;&gt;dra.AllocPrimitives -->
<g id="edge1" class="edge">
<title>np3.EntityPathBlockSmallWeight&#45;&gt;dra.AllocPrimitives</title>
<path fill="none" stroke="black" d="M643.58,-180.97C531.72,-147.67 274.97,-71.25 158.65,-36.62"/>
<polygon fill="black" stroke="black" points="159.43,-33.2 148.84,-33.71 157.43,-39.91 159.43,-33.2"/>
<text text-anchor="middle" x="143.84" y="-37.51" font-family="Times,serif" font-size="14.00">1</text>
</g>
<!-- np3.DestroyEntity -->
<g id="node3" class="node">
<title>np3.DestroyEntity</title>
<g id="a_node3"><a xlink:href="np3.DestroyEntity.svg" xlink:title="np3.DestroyEntity">
<ellipse fill="green" stroke="black" cx="313.44" cy="-18" rx="96.68" ry="18"/>
<text text-anchor="middle" x="313.44" y="-14.3" font-family="Times,serif" font-size="14.00">np3.DestroyEntity</text>
</a>
</g>
</g>
<!-- np3.EntityPathBlockSmallWeight&#45;&gt;np3.DestroyEntity -->
<g id="edge2" class="edge">
<title>np3.EntityPathBlockSmallWeight&#45;&gt;np3.DestroyEntity</title>
<path fill="none" stroke="black" d="M661.66,-180.41C591.04,-147.68 433.96,-74.87 357.27,-39.32"/>
<polygon fill="black" stroke="black" points="358.43,-36 347.89,-34.97 355.49,-42.35 358.43,-36"/>
<text text-anchor="middle" x="342.89" y="-38.77" font-family="Times,serif" font-size="14.00">1</text>
</g>
<!-- np3.GetPlayerCollisionWith -->
<g id="node4" class="node">
<title>np3.GetPlayerCollisionWith</title>
<g id="a_node4"><a xlink:href="np3.GetPlayerCollisionWith.svg" xlink:title="np3.GetPlayerCollisionWith">
<ellipse fill="green" stroke="black" cx="568.44" cy="-18" rx="139.98" ry="18"/>
<text text-anchor="middle" x="568.44" y="-14.3" font-family="Times,serif" font-size="14.00">np3.GetPlayerCollisionWith</text>
</a>
</g>
</g>
<!-- np3.EntityPathBlockSmallWeight&#45;&gt;np3.GetPlayerCollisionWith -->
<g id="edge3" class="edge">
<title>np3.EntityPathBlockSmallWeight&#45;&gt;np3.GetPlayerCollisionWith</title>
<path fill="none" stroke="black" d="M685.07,-179.93C662.24,-148.43 613.4,-81.03 586.73,-44.24"/>
<polygon fill="black" stroke="black" points="589.48,-42.06 580.77,-36.02 583.81,-46.17 589.48,-42.06"/>
<text text-anchor="middle" x="575.77" y="-39.82" font-family="Times,serif" font-size="14.00">1</text>
</g>
<!-- np3.InitializeEntity -->
<g id="node5" class="node">
<title>np3.InitializeEntity</title>
<g id="a_node5"><a xlink:href="np3.InitializeEntity.svg" xlink:title="np3.InitializeEntity">
<ellipse fill="green" stroke="black" cx="826.44" cy="-18" rx="100.98" ry="18"/>
<text text-anchor="middle" x="826.44" y="-14.3" font-family="Times,serif" font-size="14.00">np3.InitializeEntity</text>
</a>
</g>
</g>
<!-- np3.EntityPathBlockSmallWeight&#45;&gt;np3.InitializeEntity -->
<g id="edge4" class="edge">
<title>np3.EntityPathBlockSmallWeight&#45;&gt;np3.InitializeEntity</title>
<path fill="none" stroke="black" d="M709.81,-179.93C732.64,-148.43 781.48,-81.03 808.15,-44.24"/>
<polygon fill="black" stroke="black" points="811.08,-46.17 814.11,-36.02 805.41,-42.06 811.08,-46.17"/>
<text text-anchor="middle" x="809.11" y="-39.82" font-family="Times,serif" font-size="14.00">1</text>
</g>
<!-- np3.PlaySfxPositional -->
<g id="node6" class="node">
<title>np3.PlaySfxPositional</title>
<g id="a_node6"><a xlink:href="np3.PlaySfxPositional.svg" xlink:title="np3.PlaySfxPositional">
<ellipse fill="green" stroke="black" cx="1057.44" cy="-18" rx="111.58" ry="18"/>
<text text-anchor="middle" x="1057.44" y="-14.3" font-family="Times,serif" font-size="14.00">np3.PlaySfxPositional</text>
</a>
</g>
</g>
<!-- np3.EntityPathBlockSmallWeight&#45;&gt;np3.PlaySfxPositional -->
<g id="edge5" class="edge">
<title>np3.EntityPathBlockSmallWeight&#45;&gt;np3.PlaySfxPositional</title>
<path fill="none" stroke="black" d="M731.31,-180.25C797.31,-147.62 942.98,-75.59 1015.18,-39.9"/>
<polygon fill="black" stroke="black" points="1017.03,-42.88 1024.45,-35.31 1013.93,-36.61 1017.03,-42.88"/>
<text text-anchor="middle" x="1019.45" y="-39.11" font-family="Times,serif" font-size="14.00">1</text>
</g>
<!-- np3.func_801B44B4 -->
<g id="node7" class="node">
<title>np3.func_801B44B4</title>
<g id="a_node7"><a xlink:href="np3.func_801B44B4.svg" xlink:title="np3.func_801B44B4">
<ellipse fill="green" stroke="black" cx="1291.44" cy="-18" rx="104.78" ry="18"/>
<text text-anchor="middle" x="1291.44" y="-14.3" font-family="Times,serif" font-size="14.00">np3.func_801B44B4</text>
</a>
</g>
</g>
<!-- np3.EntityPathBlockSmallWeight&#45;&gt;np3.func_801B44B4 -->
<g id="edge6" class="edge">
<title>np3.EntityPathBlockSmallWeight&#45;&gt;np3.func_801B44B4</title>
<path fill="none" stroke="black" d="M750.94,-180.97C861.78,-147.75 1115.81,-71.63 1231.76,-36.88"/>
<polygon fill="black" stroke="black" points="1232.97,-40.18 1241.54,-33.95 1230.96,-33.47 1232.97,-40.18"/>
<text text-anchor="middle" x="1236.54" y="-37.75" font-family="Times,serif" font-size="14.00">1</text>
</g>
</g>
</svg>
