<?xml version="1.0" encoding="UTF-8" standalone="no"?>
<!DOCTYPE svg PUBLIC "-//W3C//DTD SVG 1.1//EN"
 "http://www.w3.org/Graphics/SVG/1.1/DTD/svg11.dtd">
<!-- Generated by graphviz version 2.43.0 (0)
 -->
<!-- Title: np3.EntityBat Pages: 1 -->
<svg width="2525pt" height="224pt"
 viewBox="0.00 0.00 2525.09 224.00" xmlns="http://www.w3.org/2000/svg" xmlns:xlink="http://www.w3.org/1999/xlink">
<g id="graph0" class="graph" transform="scale(1 1) rotate(0) translate(4 220)">
<title>np3.EntityBat</title>
<polygon fill="white" stroke="transparent" points="-4,4 -4,-220 2521.09,-220 2521.09,4 -4,4"/>
<!-- np3.EntityBat -->
<g id="node1" class="node">
<title>np3.EntityBat</title>
<ellipse fill="green" stroke="black" cx="1341.54" cy="-198" rx="76.09" ry="18"/>
<text text-anchor="middle" x="1341.54" y="-194.3" font-family="Times,serif" font-size="14.00">np3.EntityBat</text>
</g>
<!-- np3.AllocEntity -->
<g id="node2" class="node">
<title>np3.AllocEntity</title>
<g id="a_node2"><a xlink:href="np3.AllocEntity.svg" xlink:title="np3.AllocEntity">
<ellipse fill="green" stroke="black" cx="82.54" cy="-18" rx="82.59" ry="18"/>
<text text-anchor="middle" x="82.54" y="-14.3" font-family="Times,serif" font-size="14.00">np3.AllocEntity</text>
</a>
</g>
</g>
<!-- np3.EntityBat&#45;&gt;np3.AllocEntity -->
<g id="edge1" class="edge">
<title>np3.EntityBat&#45;&gt;np3.AllocEntity</title>
<path fill="none" stroke="black" d="M1275.52,-189.02C1097.32,-167.24 591.79,-103.85 173.54,-36 166.56,-34.87 159.29,-33.62 152.04,-32.34"/>
<polygon fill="black" stroke="black" points="152.65,-28.89 142.19,-30.56 151.41,-35.78 152.65,-28.89"/>
<text text-anchor="middle" x="137.19" y="-34.36" font-family="Times,serif" font-size="14.00">1</text>
</g>
<!-- np3.AnimateEntity -->
<g id="node3" class="node">
<title>np3.AnimateEntity</title>
<g id="a_node3"><a xlink:href="np3.AnimateEntity.svg" xlink:title="np3.AnimateEntity">
<ellipse fill="green" stroke="black" cx="281.54" cy="-18" rx="98.58" ry="18"/>
<text text-anchor="middle" x="281.54" y="-14.3" font-family="Times,serif" font-size="14.00">np3.AnimateEntity</text>
</a>
</g>
</g>
<!-- np3.EntityBat&#45;&gt;np3.AnimateEntity -->
<g id="edge2" class="edge">
<title>np3.EntityBat&#45;&gt;np3.AnimateEntity</title>
<path fill="none" stroke="black" d="M1281.52,-186.92C1101.38,-156.67 565.34,-66.66 361.46,-32.42"/>
<polygon fill="black" stroke="black" points="361.86,-28.94 351.42,-30.73 360.7,-35.84 361.86,-28.94"/>
<text text-anchor="middle" x="346.42" y="-34.53" font-family="Times,serif" font-size="14.00">3</text>
</g>
<!-- np3.CreateEntityFromEntity -->
<g id="node4" class="node">
<title>np3.CreateEntityFromEntity</title>
<g id="a_node4"><a xlink:href="np3.CreateEntityFromEntity.svg" xlink:title="np3.CreateEntityFromEntity">
<ellipse fill="green" stroke="black" cx="543.54" cy="-18" rx="144.87" ry="18"/>
<text text-anchor="middle" x="543.54" y="-14.3" font-family="Times,serif" font-size="14.00">np3.CreateEntityFromEntity</text>
</a>
</g>
</g>
<!-- np3.EntityBat&#45;&gt;np3.CreateEntityFromEntity -->
<g id="edge3" class="edge">
<title>np3.EntityBat&#45;&gt;np3.CreateEntityFromEntity</title>
<path fill="none" stroke="black" d="M1288.26,-185.11C1150.41,-154.37 781.63,-72.11 620.58,-36.18"/>
<polygon fill="black" stroke="black" points="621.26,-32.75 610.74,-33.99 619.74,-39.58 621.26,-32.75"/>
<text text-anchor="middle" x="605.74" y="-37.79" font-family="Times,serif" font-size="14.00">1</text>
</g>
<!-- np3.DestroyEntity -->
<g id="node5" class="node">
<title>np3.DestroyEntity</title>
<g id="a_node5"><a xlink:href="np3.DestroyEntity.svg" xlink:title="np3.DestroyEntity">
<ellipse fill="green" stroke="black" cx="803.54" cy="-18" rx="96.68" ry="18"/>
<text text-anchor="middle" x="803.54" y="-14.3" font-family="Times,serif" font-size="14.00">np3.DestroyEntity</text>
</a>
</g>
</g>
<!-- np3.EntityBat&#45;&gt;np3.DestroyEntity -->
<g id="edge4" class="edge">
<title>np3.EntityBat&#45;&gt;np3.DestroyEntity</title>
<path fill="none" stroke="black" d="M1298.88,-182.88C1202.11,-150.87 966.08,-72.78 858.54,-37.2"/>
<polygon fill="black" stroke="black" points="859.45,-33.81 848.86,-33.99 857.25,-40.46 859.45,-33.81"/>
<text text-anchor="middle" x="843.86" y="-37.79" font-family="Times,serif" font-size="14.00">1</text>
</g>
<!-- np3.GetDistanceToPlayerX -->
<g id="node6" class="node">
<title>np3.GetDistanceToPlayerX</title>
<g id="a_node6"><a xlink:href="np3.GetDistanceToPlayerX.svg" xlink:title="np3.GetDistanceToPlayerX">
<ellipse fill="green" stroke="black" cx="1053.54" cy="-18" rx="135.38" ry="18"/>
<text text-anchor="middle" x="1053.54" y="-14.3" font-family="Times,serif" font-size="14.00">np3.GetDistanceToPlayerX</text>
</a>
</g>
</g>
<!-- np3.EntityBat&#45;&gt;np3.GetDistanceToPlayerX -->
<g id="edge5" class="edge">
<title>np3.EntityBat&#45;&gt;np3.GetDistanceToPlayerX</title>
<path fill="none" stroke="black" d="M1315.73,-181.05C1264.12,-149.15 1148.11,-77.45 1089.25,-41.07"/>
<polygon fill="black" stroke="black" points="1091,-38.04 1080.66,-35.76 1087.32,-43.99 1091,-38.04"/>
<text text-anchor="middle" x="1075.66" y="-39.56" font-family="Times,serif" font-size="14.00">1</text>
</g>
<!-- np3.GetDistanceToPlayerY -->
<g id="node7" class="node">
<title>np3.GetDistanceToPlayerY</title>
<g id="a_node7"><a xlink:href="np3.GetDistanceToPlayerY.svg" xlink:title="np3.GetDistanceToPlayerY">
<ellipse fill="green" stroke="black" cx="1341.54" cy="-18" rx="134.58" ry="18"/>
<text text-anchor="middle" x="1341.54" y="-14.3" font-family="Times,serif" font-size="14.00">np3.GetDistanceToPlayerY</text>
</a>
</g>
</g>
<!-- np3.EntityBat&#45;&gt;np3.GetDistanceToPlayerY -->
<g id="edge6" class="edge">
<title>np3.EntityBat&#45;&gt;np3.GetDistanceToPlayerY</title>
<path fill="none" stroke="black" d="M1341.54,-179.93C1341.54,-148.97 1341.54,-83.3 1341.54,-46.13"/>
<polygon fill="black" stroke="black" points="1345.04,-46.02 1341.54,-36.02 1338.04,-46.02 1345.04,-46.02"/>
<text text-anchor="middle" x="1336.54" y="-39.82" font-family="Times,serif" font-size="14.00">2</text>
</g>
<!-- np3.GetSideToPlayer -->
<g id="node8" class="node">
<title>np3.GetSideToPlayer</title>
<g id="a_node8"><a xlink:href="np3.GetSideToPlayer.svg" xlink:title="np3.GetSideToPlayer">
<ellipse fill="green" stroke="black" cx="1602.54" cy="-18" rx="108.58" ry="18"/>
<text text-anchor="middle" x="1602.54" y="-14.3" font-family="Times,serif" font-size="14.00">np3.GetSideToPlayer</text>
</a>
</g>
</g>
<!-- np3.EntityBat&#45;&gt;np3.GetSideToPlayer -->
<g id="edge7" class="edge">
<title>np3.EntityBat&#45;&gt;np3.GetSideToPlayer</title>
<path fill="none" stroke="black" d="M1365.17,-180.89C1411.88,-149.03 1516.16,-77.91 1569.59,-41.47"/>
<polygon fill="black" stroke="black" points="1571.74,-44.25 1578.03,-35.72 1567.79,-38.46 1571.74,-44.25"/>
<text text-anchor="middle" x="1573.03" y="-39.52" font-family="Times,serif" font-size="14.00">2</text>
</g>
<!-- np3.InitializeEntity -->
<g id="node9" class="node">
<title>np3.InitializeEntity</title>
<g id="a_node9"><a xlink:href="np3.InitializeEntity.svg" xlink:title="np3.InitializeEntity">
<ellipse fill="green" stroke="black" cx="1829.54" cy="-18" rx="100.98" ry="18"/>
<text text-anchor="middle" x="1829.54" y="-14.3" font-family="Times,serif" font-size="14.00">np3.InitializeEntity</text>
</a>
</g>
</g>
<!-- np3.EntityBat&#45;&gt;np3.InitializeEntity -->
<g id="edge8" class="edge">
<title>np3.EntityBat&#45;&gt;np3.InitializeEntity</title>
<path fill="none" stroke="black" d="M1381.06,-182.58C1468.79,-150.59 1679.76,-73.63 1777.82,-37.87"/>
<polygon fill="black" stroke="black" points="1779.03,-41.15 1787.23,-34.43 1776.64,-34.57 1779.03,-41.15"/>
<text text-anchor="middle" x="1782.23" y="-38.23" font-family="Times,serif" font-size="14.00">1</text>
</g>
<!-- np3.MoveEntity -->
<g id="node10" class="node">
<title>np3.MoveEntity</title>
<g id="a_node10"><a xlink:href="np3.MoveEntity.svg" xlink:title="np3.MoveEntity">
<ellipse fill="green" stroke="black" cx="2033.54" cy="-18" rx="85.29" ry="18"/>
<text text-anchor="middle" x="2033.54" y="-14.3" font-family="Times,serif" font-size="14.00">np3.MoveEntity</text>
</a>
</g>
</g>
<!-- np3.EntityBat&#45;&gt;np3.MoveEntity -->
<g id="edge9" class="edge">
<title>np3.EntityBat&#45;&gt;np3.MoveEntity</title>
<path fill="none" stroke="black" d="M1391.03,-184.27C1514.61,-152.48 1836.52,-69.68 1972.02,-34.83"/>
<polygon fill="black" stroke="black" points="1973.02,-38.18 1981.83,-32.3 1971.28,-31.4 1973.02,-38.18"/>
<text text-anchor="middle" x="1976.83" y="-36.1" font-family="Times,serif" font-size="14.00">2</text>
</g>
<!-- np3.PlaySfxPositional -->
<g id="node11" class="node">
<title>np3.PlaySfxPositional</title>
<g id="a_node11"><a xlink:href="np3.PlaySfxPositional.svg" xlink:title="np3.PlaySfxPositional">
<ellipse fill="green" stroke="black" cx="2248.54" cy="-18" rx="111.58" ry="18"/>
<text text-anchor="middle" x="2248.54" y="-14.3" font-family="Times,serif" font-size="14.00">np3.PlaySfxPositional</text>
</a>
</g>
</g>
<!-- np3.EntityBat&#45;&gt;np3.PlaySfxPositional -->
<g id="edge10" class="edge">
<title>np3.EntityBat&#45;&gt;np3.PlaySfxPositional</title>
<path fill="none" stroke="black" d="M1398.28,-185.87C1554.62,-155.18 1991.88,-69.37 2170.76,-34.26"/>
<polygon fill="black" stroke="black" points="2171.49,-37.69 2180.63,-32.33 2170.14,-30.82 2171.49,-37.69"/>
<text text-anchor="middle" x="2175.63" y="-36.13" font-family="Times,serif" font-size="14.00">1</text>
</g>
<!-- np3.Random -->
<g id="node12" class="node">
<title>np3.Random</title>
<g id="a_node12"><a xlink:href="np3.Random.svg" xlink:title="np3.Random">
<ellipse fill="green" stroke="black" cx="2447.54" cy="-18" rx="69.59" ry="18"/>
<text text-anchor="middle" x="2447.54" y="-14.3" font-family="Times,serif" font-size="14.00">np3.Random</text>
</a>
</g>
</g>
<!-- np3.EntityBat&#45;&gt;np3.Random -->
<g id="edge11" class="edge">
<title>np3.EntityBat&#45;&gt;np3.Random</title>
<path fill="none" stroke="black" d="M1405.82,-188.28C1567.99,-166 2006.64,-103.9 2369.54,-36 2375.22,-34.94 2381.11,-33.77 2386.99,-32.56"/>
<polygon fill="black" stroke="black" points="2387.79,-35.97 2396.86,-30.5 2386.36,-29.12 2387.79,-35.97"/>
<text text-anchor="middle" x="2391.86" y="-34.3" font-family="Times,serif" font-size="14.00">1</text>
</g>
</g>
</svg>
