<?xml version="1.0" encoding="UTF-8" standalone="no"?>
<!DOCTYPE svg PUBLIC "-//W3C//DTD SVG 1.1//EN"
 "http://www.w3.org/Graphics/SVG/1.1/DTD/svg11.dtd">
<!-- Generated by graphviz version 2.43.0 (0)
 -->
<!-- Title: np3.func_801D0B78 Pages: 1 -->
<svg width="514pt" height="404pt"
 viewBox="0.00 0.00 513.73 404.00" xmlns="http://www.w3.org/2000/svg" xmlns:xlink="http://www.w3.org/1999/xlink">
<g id="graph0" class="graph" transform="scale(1 1) rotate(0) translate(4 400)">
<title>np3.func_801D0B78</title>
<polygon fill="white" stroke="transparent" points="-4,4 -4,-400 509.73,-400 509.73,4 -4,4"/>
<!-- np3.func_801D0B78 -->
<g id="node1" class="node">
<title>np3.func_801D0B78</title>
<ellipse fill="green" stroke="black" cx="266.19" cy="-198" rx="104.78" ry="18"/>
<text text-anchor="middle" x="266.19" y="-194.3" font-family="Times,serif" font-size="14.00">np3.func_801D0B78</text>
</g>
<!-- np3.GetDistanceToPlayerX -->
<g id="node2" class="node">
<title>np3.GetDistanceToPlayerX</title>
<g id="a_node2"><a xlink:href="np3.GetDistanceToPlayerX.svg" xlink:title="np3.GetDistanceToPlayerX">
<ellipse fill="green" stroke="black" cx="135.19" cy="-18" rx="135.38" ry="18"/>
<text text-anchor="middle" x="135.19" y="-14.3" font-family="Times,serif" font-size="14.00">np3.GetDistanceToPlayerX</text>
</a>
</g>
</g>
<!-- np3.func_801D0B78&#45;&gt;np3.GetDistanceToPlayerX -->
<g id="edge1" class="edge">
<title>np3.func_801D0B78&#45;&gt;np3.GetDistanceToPlayerX</title>
<path fill="none" stroke="black" d="M253.63,-179.93C230.45,-148.43 180.84,-81.03 153.76,-44.24"/>
<polygon fill="black" stroke="black" points="156.46,-42 147.71,-36.02 150.82,-46.14 156.46,-42"/>
<text text-anchor="middle" x="142.71" y="-39.82" font-family="Times,serif" font-size="14.00">9</text>
</g>
<!-- np3.GetSideToPlayer -->
<g id="node3" class="node">
<title>np3.GetSideToPlayer</title>
<g id="a_node3"><a xlink:href="np3.GetSideToPlayer.svg" xlink:title="np3.GetSideToPlayer">
<ellipse fill="green" stroke="black" cx="397.19" cy="-18" rx="108.58" ry="18"/>
<text text-anchor="middle" x="397.19" y="-14.3" font-family="Times,serif" font-size="14.00">np3.GetSideToPlayer</text>
</a>
</g>
</g>
<!-- np3.func_801D0B78&#45;&gt;np3.GetSideToPlayer -->
<g id="edge2" class="edge">
<title>np3.func_801D0B78&#45;&gt;np3.GetSideToPlayer</title>
<path fill="none" stroke="black" d="M278.75,-179.93C301.93,-148.43 351.53,-81.03 378.61,-44.24"/>
<polygon fill="black" stroke="black" points="381.56,-46.14 384.67,-36.02 375.92,-42 381.56,-46.14"/>
<text text-anchor="middle" x="379.67" y="-39.82" font-family="Times,serif" font-size="14.00">1</text>
</g>
<!-- np3.EntityBlade -->
<g id="node4" class="node">
<title>np3.EntityBlade</title>
<g id="a_node4"><a xlink:href="np3.EntityBlade.svg" xlink:title="np3.EntityBlade">
<ellipse fill="red" stroke="black" cx="266.19" cy="-378" rx="86.38" ry="18"/>
<text text-anchor="middle" x="266.19" y="-374.3" font-family="Times,serif" font-size="14.00">np3.EntityBlade</text>
</a>
</g>
</g>
<!-- np3.EntityBlade&#45;&gt;np3.func_801D0B78 -->
<g id="edge3" class="edge">
<title>np3.EntityBlade&#45;&gt;np3.func_801D0B78</title>
<path fill="none" stroke="black" d="M266.19,-359.93C266.19,-328.97 266.19,-263.3 266.19,-226.13"/>
<polygon fill="black" stroke="black" points="269.69,-226.02 266.19,-216.02 262.69,-226.02 269.69,-226.02"/>
<text text-anchor="middle" x="261.19" y="-348.73" font-family="Times,serif" font-size="14.00">5</text>
</g>
</g>
</svg>
