<?xml version="1.0" encoding="UTF-8" standalone="no"?>
<!DOCTYPE svg PUBLIC "-//W3C//DTD SVG 1.1//EN"
 "http://www.w3.org/Graphics/SVG/1.1/DTD/svg11.dtd">
<!-- Generated by graphviz version 2.43.0 (0)
 -->
<!-- Title: nz0.EntityBottomSecretRoomFloor Pages: 1 -->
<svg width="1637pt" height="224pt"
 viewBox="0.00 0.00 1636.67 224.00" xmlns="http://www.w3.org/2000/svg" xmlns:xlink="http://www.w3.org/1999/xlink">
<g id="graph0" class="graph" transform="scale(1 1) rotate(0) translate(4 220)">
<title>nz0.EntityBottomSecretRoomFloor</title>
<polygon fill="white" stroke="transparent" points="-4,4 -4,-220 1632.67,-220 1632.67,4 -4,4"/>
<!-- nz0.EntityBottomSecretRoomFloor -->
<g id="node1" class="node">
<title>nz0.EntityBottomSecretRoomFloor</title>
<ellipse fill="green" stroke="black" cx="948.18" cy="-198" rx="174.37" ry="18"/>
<text text-anchor="middle" x="948.18" y="-194.3" font-family="Times,serif" font-size="14.00">nz0.EntityBottomSecretRoomFloor</text>
</g>
<!-- dra.RevealSecretPassageAtPlayerPositionOnMap -->
<g id="node2" class="node">
<title>dra.RevealSecretPassageAtPlayerPositionOnMap</title>
<g id="a_node2"><a xlink:href="dra.RevealSecretPassageAtPlayerPositionOnMap.svg" xlink:title="dra.RevealSecretPassageAtPlayerPositionOnMap">
<ellipse fill="green" stroke="black" cx="239.18" cy="-18" rx="239.36" ry="18"/>
<text text-anchor="middle" x="239.18" y="-14.3" font-family="Times,serif" font-size="14.00">dra.RevealSecretPassageAtPlayerPositionOnMap</text>
</a>
</g>
</g>
<!-- nz0.EntityBottomSecretRoomFloor&#45;&gt;dra.RevealSecretPassageAtPlayerPositionOnMap -->
<g id="edge1" class="edge">
<title>nz0.EntityBottomSecretRoomFloor&#45;&gt;dra.RevealSecretPassageAtPlayerPositionOnMap</title>
<path fill="none" stroke="black" d="M885.26,-181.2C754.61,-148.4 454.44,-73.04 314.08,-37.81"/>
<polygon fill="black" stroke="black" points="314.81,-34.38 304.26,-35.34 313.11,-41.17 314.81,-34.38"/>
<text text-anchor="middle" x="299.26" y="-39.14" font-family="Times,serif" font-size="14.00">1</text>
</g>
<!-- nz0.AllocEntity -->
<g id="node3" class="node">
<title>nz0.AllocEntity</title>
<g id="a_node3"><a xlink:href="nz0.AllocEntity.svg" xlink:title="nz0.AllocEntity">
<ellipse fill="green" stroke="black" cx="577.18" cy="-18" rx="81.49" ry="18"/>
<text text-anchor="middle" x="577.18" y="-14.3" font-family="Times,serif" font-size="14.00">nz0.AllocEntity</text>
</a>
</g>
</g>
<!-- nz0.EntityBottomSecretRoomFloor&#45;&gt;nz0.AllocEntity -->
<g id="edge2" class="edge">
<title>nz0.EntityBottomSecretRoomFloor&#45;&gt;nz0.AllocEntity</title>
<path fill="none" stroke="black" d="M913.28,-180.25C844.74,-147.37 692.84,-74.49 619.04,-39.09"/>
<polygon fill="black" stroke="black" points="620.12,-35.72 609.59,-34.55 617.09,-42.03 620.12,-35.72"/>
<text text-anchor="middle" x="604.59" y="-38.35" font-family="Times,serif" font-size="14.00">1</text>
</g>
<!-- nz0.CreateEntityFromEntity -->
<g id="node4" class="node">
<title>nz0.CreateEntityFromEntity</title>
<g id="a_node4"><a xlink:href="nz0.CreateEntityFromEntity.svg" xlink:title="nz0.CreateEntityFromEntity">
<ellipse fill="green" stroke="black" cx="820.18" cy="-18" rx="143.77" ry="18"/>
<text text-anchor="middle" x="820.18" y="-14.3" font-family="Times,serif" font-size="14.00">nz0.CreateEntityFromEntity</text>
</a>
</g>
</g>
<!-- nz0.EntityBottomSecretRoomFloor&#45;&gt;nz0.CreateEntityFromEntity -->
<g id="edge3" class="edge">
<title>nz0.EntityBottomSecretRoomFloor&#45;&gt;nz0.CreateEntityFromEntity</title>
<path fill="none" stroke="black" d="M935.91,-179.93C913.26,-148.43 864.79,-81.03 838.33,-44.24"/>
<polygon fill="black" stroke="black" points="841.09,-42.09 832.41,-36.02 835.41,-46.18 841.09,-42.09"/>
<text text-anchor="middle" x="827.41" y="-39.82" font-family="Times,serif" font-size="14.00">1</text>
</g>
<!-- nz0.DestroyEntity -->
<g id="node5" class="node">
<title>nz0.DestroyEntity</title>
<g id="a_node5"><a xlink:href="nz0.DestroyEntity.svg" xlink:title="nz0.DestroyEntity">
<ellipse fill="green" stroke="black" cx="1077.18" cy="-18" rx="95.58" ry="18"/>
<text text-anchor="middle" x="1077.18" y="-14.3" font-family="Times,serif" font-size="14.00">nz0.DestroyEntity</text>
</a>
</g>
</g>
<!-- nz0.EntityBottomSecretRoomFloor&#45;&gt;nz0.DestroyEntity -->
<g id="edge4" class="edge">
<title>nz0.EntityBottomSecretRoomFloor&#45;&gt;nz0.DestroyEntity</title>
<path fill="none" stroke="black" d="M960.55,-179.93C983.37,-148.43 1032.22,-81.03 1058.89,-44.24"/>
<polygon fill="black" stroke="black" points="1061.81,-46.17 1064.85,-36.02 1056.14,-42.06 1061.81,-46.17"/>
<text text-anchor="middle" x="1059.85" y="-39.82" font-family="Times,serif" font-size="14.00">1</text>
</g>
<!-- nz0.InitializeEntity -->
<g id="node6" class="node">
<title>nz0.InitializeEntity</title>
<g id="a_node6"><a xlink:href="nz0.InitializeEntity.svg" xlink:title="nz0.InitializeEntity">
<ellipse fill="green" stroke="black" cx="1290.18" cy="-18" rx="99.38" ry="18"/>
<text text-anchor="middle" x="1290.18" y="-14.3" font-family="Times,serif" font-size="14.00">nz0.InitializeEntity</text>
</a>
</g>
</g>
<!-- nz0.EntityBottomSecretRoomFloor&#45;&gt;nz0.InitializeEntity -->
<g id="edge5" class="edge">
<title>nz0.EntityBottomSecretRoomFloor&#45;&gt;nz0.InitializeEntity</title>
<path fill="none" stroke="black" d="M980.35,-180.25C1042.93,-147.69 1180.88,-75.89 1249.61,-40.11"/>
<polygon fill="black" stroke="black" points="1251.58,-43.04 1258.83,-35.31 1248.35,-36.83 1251.58,-43.04"/>
<text text-anchor="middle" x="1253.83" y="-39.11" font-family="Times,serif" font-size="14.00">1</text>
</g>
<!-- nz0.PlaySfxPositional -->
<g id="node7" class="node">
<title>nz0.PlaySfxPositional</title>
<g id="a_node7"><a xlink:href="nz0.PlaySfxPositional.svg" xlink:title="nz0.PlaySfxPositional">
<ellipse fill="green" stroke="black" cx="1518.18" cy="-18" rx="110.48" ry="18"/>
<text text-anchor="middle" x="1518.18" y="-14.3" font-family="Times,serif" font-size="14.00">nz0.PlaySfxPositional</text>
</a>
</g>
</g>
<!-- nz0.EntityBottomSecretRoomFloor&#45;&gt;nz0.PlaySfxPositional -->
<g id="edge6" class="edge">
<title>nz0.EntityBottomSecretRoomFloor&#45;&gt;nz0.PlaySfxPositional</title>
<path fill="none" stroke="black" d="M1000.02,-180.81C1106.31,-147.62 1348.3,-72.05 1459.87,-37.21"/>
<polygon fill="black" stroke="black" points="1461.1,-40.49 1469.6,-34.17 1459.01,-33.81 1461.1,-40.49"/>
<text text-anchor="middle" x="1464.6" y="-37.97" font-family="Times,serif" font-size="14.00">1</text>
</g>
</g>
</svg>
