<?xml version="1.0" encoding="UTF-8" standalone="no"?>
<!DOCTYPE svg PUBLIC "-//W3C//DTD SVG 1.1//EN"
 "http://www.w3.org/Graphics/SVG/1.1/DTD/svg11.dtd">
<!-- Generated by graphviz version 2.43.0 (0)
 -->
<!-- Title: nz0.func_801BD44C Pages: 1 -->
<svg width="250pt" height="404pt"
 viewBox="0.00 0.00 249.78 404.00" xmlns="http://www.w3.org/2000/svg" xmlns:xlink="http://www.w3.org/1999/xlink">
<g id="graph0" class="graph" transform="scale(1 1) rotate(0) translate(4 400)">
<title>nz0.func_801BD44C</title>
<polygon fill="white" stroke="transparent" points="-4,4 -4,-400 245.78,-400 245.78,4 -4,4"/>
<!-- nz0.func_801BD44C -->
<g id="node1" class="node">
<title>nz0.func_801BD44C</title>
<ellipse fill="green" stroke="black" cx="120.89" cy="-198" rx="104.78" ry="18"/>
<text text-anchor="middle" x="120.89" y="-194.3" font-family="Times,serif" font-size="14.00">nz0.func_801BD44C</text>
</g>
<!-- ratan2 -->
<g id="node2" class="node">
<title>ratan2</title>
<g id="a_node2"><a xlink:href="ratan2.svg" xlink:title="ratan2">
<ellipse fill="lightblue" stroke="black" cx="120.89" cy="-18" rx="41.69" ry="18"/>
<text text-anchor="middle" x="120.89" y="-14.3" font-family="Times,serif" font-size="14.00">ratan2</text>
</a>
</g>
</g>
<!-- nz0.func_801BD44C&#45;&gt;ratan2 -->
<g id="edge1" class="edge">
<title>nz0.func_801BD44C&#45;&gt;ratan2</title>
<path fill="none" stroke="black" d="M120.89,-179.93C120.89,-148.97 120.89,-83.3 120.89,-46.13"/>
<polygon fill="black" stroke="black" points="124.39,-46.02 120.89,-36.02 117.39,-46.02 124.39,-46.02"/>
<text text-anchor="middle" x="115.89" y="-39.82" font-family="Times,serif" font-size="14.00">1</text>
</g>
<!-- nz0.EntitySoulStealOrb -->
<g id="node3" class="node">
<title>nz0.EntitySoulStealOrb</title>
<g id="a_node3"><a xlink:href="nz0.EntitySoulStealOrb.svg" xlink:title="nz0.EntitySoulStealOrb">
<ellipse fill="green" stroke="black" cx="120.89" cy="-378" rx="120.78" ry="18"/>
<text text-anchor="middle" x="120.89" y="-374.3" font-family="Times,serif" font-size="14.00">nz0.EntitySoulStealOrb</text>
</a>
</g>
</g>
<!-- nz0.EntitySoulStealOrb&#45;&gt;nz0.func_801BD44C -->
<g id="edge2" class="edge">
<title>nz0.EntitySoulStealOrb&#45;&gt;nz0.func_801BD44C</title>
<path fill="none" stroke="black" d="M120.89,-359.93C120.89,-328.97 120.89,-263.3 120.89,-226.13"/>
<polygon fill="black" stroke="black" points="124.39,-226.02 120.89,-216.02 117.39,-226.02 124.39,-226.02"/>
<text text-anchor="middle" x="115.89" y="-348.73" font-family="Times,serif" font-size="14.00">2</text>
</g>
</g>
</svg>
