<?xml version="1.0" encoding="UTF-8" standalone="no"?>
<!DOCTYPE svg PUBLIC "-//W3C//DTD SVG 1.1//EN"
 "http://www.w3.org/Graphics/SVG/1.1/DTD/svg11.dtd">
<!-- Generated by graphviz version 2.43.0 (0)
 -->
<!-- Title: nz0.func_801C07FC Pages: 1 -->
<svg width="902pt" height="224pt"
 viewBox="0.00 0.00 901.68 224.00" xmlns="http://www.w3.org/2000/svg" xmlns:xlink="http://www.w3.org/1999/xlink">
<g id="graph0" class="graph" transform="scale(1 1) rotate(0) translate(4 220)">
<title>nz0.func_801C07FC</title>
<polygon fill="white" stroke="transparent" points="-4,4 -4,-220 897.68,-220 897.68,4 -4,4"/>
<!-- nz0.func_801C07FC -->
<g id="node1" class="node">
<title>nz0.func_801C07FC</title>
<ellipse fill="green" stroke="black" cx="452.24" cy="-198" rx="103.98" ry="18"/>
<text text-anchor="middle" x="452.24" y="-194.3" font-family="Times,serif" font-size="14.00">nz0.func_801C07FC</text>
</g>
<!-- nz0.AllocEntity -->
<g id="node2" class="node">
<title>nz0.AllocEntity</title>
<g id="a_node2"><a xlink:href="nz0.AllocEntity.svg" xlink:title="nz0.AllocEntity">
<ellipse fill="green" stroke="black" cx="81.24" cy="-18" rx="81.49" ry="18"/>
<text text-anchor="middle" x="81.24" y="-14.3" font-family="Times,serif" font-size="14.00">nz0.AllocEntity</text>
</a>
</g>
</g>
<!-- nz0.func_801C07FC&#45;&gt;nz0.AllocEntity -->
<g id="edge1" class="edge">
<title>nz0.func_801C07FC&#45;&gt;nz0.AllocEntity</title>
<path fill="none" stroke="black" d="M418.66,-180.89C350.67,-148.27 196.88,-74.48 122.75,-38.91"/>
<polygon fill="black" stroke="black" points="124.21,-35.73 113.68,-34.56 121.18,-42.05 124.21,-35.73"/>
<text text-anchor="middle" x="108.68" y="-38.36" font-family="Times,serif" font-size="14.00">1</text>
</g>
<!-- nz0.CreateEntityFromEntity -->
<g id="node3" class="node">
<title>nz0.CreateEntityFromEntity</title>
<g id="a_node3"><a xlink:href="nz0.CreateEntityFromEntity.svg" xlink:title="nz0.CreateEntityFromEntity">
<ellipse fill="green" stroke="black" cx="324.24" cy="-18" rx="143.77" ry="18"/>
<text text-anchor="middle" x="324.24" y="-14.3" font-family="Times,serif" font-size="14.00">nz0.CreateEntityFromEntity</text>
</a>
</g>
</g>
<!-- nz0.func_801C07FC&#45;&gt;nz0.CreateEntityFromEntity -->
<g id="edge2" class="edge">
<title>nz0.func_801C07FC&#45;&gt;nz0.CreateEntityFromEntity</title>
<path fill="none" stroke="black" d="M439.97,-179.93C417.32,-148.43 368.85,-81.03 342.39,-44.24"/>
<polygon fill="black" stroke="black" points="345.16,-42.09 336.48,-36.02 339.48,-46.18 345.16,-42.09"/>
<text text-anchor="middle" x="331.48" y="-39.82" font-family="Times,serif" font-size="14.00">1</text>
</g>
<!-- nz0.DestroyEntity -->
<g id="node4" class="node">
<title>nz0.DestroyEntity</title>
<g id="a_node4"><a xlink:href="nz0.DestroyEntity.svg" xlink:title="nz0.DestroyEntity">
<ellipse fill="green" stroke="black" cx="581.24" cy="-18" rx="95.58" ry="18"/>
<text text-anchor="middle" x="581.24" y="-14.3" font-family="Times,serif" font-size="14.00">nz0.DestroyEntity</text>
</a>
</g>
</g>
<!-- nz0.func_801C07FC&#45;&gt;nz0.DestroyEntity -->
<g id="edge3" class="edge">
<title>nz0.func_801C07FC&#45;&gt;nz0.DestroyEntity</title>
<path fill="none" stroke="black" d="M464.61,-179.93C487.44,-148.43 536.29,-81.03 562.95,-44.24"/>
<polygon fill="black" stroke="black" points="565.88,-46.17 568.91,-36.02 560.21,-42.06 565.88,-46.17"/>
<text text-anchor="middle" x="563.91" y="-39.82" font-family="Times,serif" font-size="14.00">1</text>
</g>
<!-- nz0.InitializeEntity -->
<g id="node5" class="node">
<title>nz0.InitializeEntity</title>
<g id="a_node5"><a xlink:href="nz0.InitializeEntity.svg" xlink:title="nz0.InitializeEntity">
<ellipse fill="green" stroke="black" cx="794.24" cy="-18" rx="99.38" ry="18"/>
<text text-anchor="middle" x="794.24" y="-14.3" font-family="Times,serif" font-size="14.00">nz0.InitializeEntity</text>
</a>
</g>
</g>
<!-- nz0.func_801C07FC&#45;&gt;nz0.InitializeEntity -->
<g id="edge4" class="edge">
<title>nz0.func_801C07FC&#45;&gt;nz0.InitializeEntity</title>
<path fill="none" stroke="black" d="M483.5,-180.73C545.71,-148.35 684.95,-75.88 753.93,-39.98"/>
<polygon fill="black" stroke="black" points="755.93,-42.89 763.18,-35.17 752.7,-36.68 755.93,-42.89"/>
<text text-anchor="middle" x="758.18" y="-38.97" font-family="Times,serif" font-size="14.00">1</text>
</g>
</g>
</svg>
