<?xml version="1.0" encoding="UTF-8" standalone="no"?>
<!DOCTYPE svg PUBLIC "-//W3C//DTD SVG 1.1//EN"
 "http://www.w3.org/Graphics/SVG/1.1/DTD/svg11.dtd">
<!-- Generated by graphviz version 2.43.0 (0)
 -->
<!-- Title: nz0.EntityCannonShot Pages: 1 -->
<svg width="1312pt" height="224pt"
 viewBox="0.00 0.00 1312.18 224.00" xmlns="http://www.w3.org/2000/svg" xmlns:xlink="http://www.w3.org/1999/xlink">
<g id="graph0" class="graph" transform="scale(1 1) rotate(0) translate(4 220)">
<title>nz0.EntityCannonShot</title>
<polygon fill="white" stroke="transparent" points="-4,4 -4,-220 1308.18,-220 1308.18,4 -4,4"/>
<!-- nz0.EntityCannonShot -->
<g id="node1" class="node">
<title>nz0.EntityCannonShot</title>
<ellipse fill="green" stroke="black" cx="675.69" cy="-198" rx="115.88" ry="18"/>
<text text-anchor="middle" x="675.69" y="-194.3" font-family="Times,serif" font-size="14.00">nz0.EntityCannonShot</text>
</g>
<!-- dra.func_80102CD8 -->
<g id="node2" class="node">
<title>dra.func_80102CD8</title>
<g id="a_node2"><a xlink:href="dra.func_80102CD8.svg" xlink:title="dra.func_80102CD8">
<ellipse fill="green" stroke="black" cx="102.69" cy="-18" rx="102.88" ry="18"/>
<text text-anchor="middle" x="102.69" y="-14.3" font-family="Times,serif" font-size="14.00">dra.func_80102CD8</text>
</a>
</g>
</g>
<!-- nz0.EntityCannonShot&#45;&gt;dra.func_80102CD8 -->
<g id="edge1" class="edge">
<title>nz0.EntityCannonShot&#45;&gt;dra.func_80102CD8</title>
<path fill="none" stroke="black" d="M626.34,-181.67C520.81,-148.89 273.63,-72.1 160.75,-37.04"/>
<polygon fill="black" stroke="black" points="161.5,-33.6 150.91,-33.98 159.42,-40.29 161.5,-33.6"/>
<text text-anchor="middle" x="145.91" y="-37.78" font-family="Times,serif" font-size="14.00">1</text>
</g>
<!-- nz0.AllocEntity -->
<g id="node3" class="node">
<title>nz0.AllocEntity</title>
<g id="a_node3"><a xlink:href="nz0.AllocEntity.svg" xlink:title="nz0.AllocEntity">
<ellipse fill="green" stroke="black" cx="304.69" cy="-18" rx="81.49" ry="18"/>
<text text-anchor="middle" x="304.69" y="-14.3" font-family="Times,serif" font-size="14.00">nz0.AllocEntity</text>
</a>
</g>
</g>
<!-- nz0.EntityCannonShot&#45;&gt;nz0.AllocEntity -->
<g id="edge2" class="edge">
<title>nz0.EntityCannonShot&#45;&gt;nz0.AllocEntity</title>
<path fill="none" stroke="black" d="M641.78,-180.73C573.6,-148.02 420.09,-74.37 346.1,-38.87"/>
<polygon fill="black" stroke="black" points="347.59,-35.7 337.06,-34.53 344.56,-42.01 347.59,-35.7"/>
<text text-anchor="middle" x="332.06" y="-38.33" font-family="Times,serif" font-size="14.00">1</text>
</g>
<!-- nz0.CreateEntityFromEntity -->
<g id="node4" class="node">
<title>nz0.CreateEntityFromEntity</title>
<g id="a_node4"><a xlink:href="nz0.CreateEntityFromEntity.svg" xlink:title="nz0.CreateEntityFromEntity">
<ellipse fill="green" stroke="black" cx="547.69" cy="-18" rx="143.77" ry="18"/>
<text text-anchor="middle" x="547.69" y="-14.3" font-family="Times,serif" font-size="14.00">nz0.CreateEntityFromEntity</text>
</a>
</g>
</g>
<!-- nz0.EntityCannonShot&#45;&gt;nz0.CreateEntityFromEntity -->
<g id="edge3" class="edge">
<title>nz0.EntityCannonShot&#45;&gt;nz0.CreateEntityFromEntity</title>
<path fill="none" stroke="black" d="M663.42,-179.93C640.77,-148.43 592.3,-81.03 565.84,-44.24"/>
<polygon fill="black" stroke="black" points="568.61,-42.09 559.93,-36.02 562.92,-46.18 568.61,-42.09"/>
<text text-anchor="middle" x="554.93" y="-39.82" font-family="Times,serif" font-size="14.00">1</text>
</g>
<!-- nz0.DestroyEntity -->
<g id="node5" class="node">
<title>nz0.DestroyEntity</title>
<g id="a_node5"><a xlink:href="nz0.DestroyEntity.svg" xlink:title="nz0.DestroyEntity">
<ellipse fill="green" stroke="black" cx="804.69" cy="-18" rx="95.58" ry="18"/>
<text text-anchor="middle" x="804.69" y="-14.3" font-family="Times,serif" font-size="14.00">nz0.DestroyEntity</text>
</a>
</g>
</g>
<!-- nz0.EntityCannonShot&#45;&gt;nz0.DestroyEntity -->
<g id="edge4" class="edge">
<title>nz0.EntityCannonShot&#45;&gt;nz0.DestroyEntity</title>
<path fill="none" stroke="black" d="M688.06,-179.93C710.89,-148.43 759.73,-81.03 786.4,-44.24"/>
<polygon fill="black" stroke="black" points="789.33,-46.17 792.36,-36.02 783.66,-42.06 789.33,-46.17"/>
<text text-anchor="middle" x="787.36" y="-39.82" font-family="Times,serif" font-size="14.00">1</text>
</g>
<!-- nz0.InitializeEntity -->
<g id="node6" class="node">
<title>nz0.InitializeEntity</title>
<g id="a_node6"><a xlink:href="nz0.InitializeEntity.svg" xlink:title="nz0.InitializeEntity">
<ellipse fill="green" stroke="black" cx="1017.69" cy="-18" rx="99.38" ry="18"/>
<text text-anchor="middle" x="1017.69" y="-14.3" font-family="Times,serif" font-size="14.00">nz0.InitializeEntity</text>
</a>
</g>
</g>
<!-- nz0.EntityCannonShot&#45;&gt;nz0.InitializeEntity -->
<g id="edge5" class="edge">
<title>nz0.EntityCannonShot&#45;&gt;nz0.InitializeEntity</title>
<path fill="none" stroke="black" d="M707.25,-180.57C769.64,-148.1 908.63,-75.76 977.47,-39.94"/>
<polygon fill="black" stroke="black" points="979.45,-42.85 986.7,-35.13 976.21,-36.64 979.45,-42.85"/>
<text text-anchor="middle" x="981.7" y="-38.93" font-family="Times,serif" font-size="14.00">1</text>
</g>
<!-- nz0.MoveEntity -->
<g id="node7" class="node">
<title>nz0.MoveEntity</title>
<g id="a_node7"><a xlink:href="nz0.MoveEntity.svg" xlink:title="nz0.MoveEntity">
<ellipse fill="green" stroke="black" cx="1219.69" cy="-18" rx="84.49" ry="18"/>
<text text-anchor="middle" x="1219.69" y="-14.3" font-family="Times,serif" font-size="14.00">nz0.MoveEntity</text>
</a>
</g>
</g>
<!-- nz0.EntityCannonShot&#45;&gt;nz0.MoveEntity -->
<g id="edge6" class="edge">
<title>nz0.EntityCannonShot&#45;&gt;nz0.MoveEntity</title>
<path fill="none" stroke="black" d="M723.02,-181.52C823.91,-148.5 1059.62,-71.38 1165.96,-36.58"/>
<polygon fill="black" stroke="black" points="1167.12,-39.89 1175.53,-33.45 1164.94,-33.23 1167.12,-39.89"/>
<text text-anchor="middle" x="1170.53" y="-37.25" font-family="Times,serif" font-size="14.00">1</text>
</g>
</g>
</svg>
