<?xml version="1.0" encoding="UTF-8" standalone="no"?>
<!DOCTYPE svg PUBLIC "-//W3C//DTD SVG 1.1//EN"
 "http://www.w3.org/Graphics/SVG/1.1/DTD/svg11.dtd">
<!-- Generated by graphviz version 2.43.0 (0)
 -->
<!-- Title: nz0.AxeKnightDeath Pages: 1 -->
<svg width="630pt" height="404pt"
 viewBox="0.00 0.00 630.49 404.00" xmlns="http://www.w3.org/2000/svg" xmlns:xlink="http://www.w3.org/1999/xlink">
<g id="graph0" class="graph" transform="scale(1 1) rotate(0) translate(4 400)">
<title>nz0.AxeKnightDeath</title>
<polygon fill="white" stroke="transparent" points="-4,4 -4,-400 626.49,-400 626.49,4 -4,4"/>
<!-- nz0.AxeKnightDeath -->
<g id="node1" class="node">
<title>nz0.AxeKnightDeath</title>
<ellipse fill="green" stroke="black" cx="324.24" cy="-198" rx="106.68" ry="18"/>
<text text-anchor="middle" x="324.24" y="-194.3" font-family="Times,serif" font-size="14.00">nz0.AxeKnightDeath</text>
</g>
<!-- nz0.AllocEntity -->
<g id="node2" class="node">
<title>nz0.AllocEntity</title>
<g id="a_node2"><a xlink:href="nz0.AllocEntity.svg" xlink:title="nz0.AllocEntity">
<ellipse fill="green" stroke="black" cx="81.24" cy="-18" rx="81.49" ry="18"/>
<text text-anchor="middle" x="81.24" y="-14.3" font-family="Times,serif" font-size="14.00">nz0.AllocEntity</text>
</a>
</g>
</g>
<!-- nz0.AxeKnightDeath&#45;&gt;nz0.AllocEntity -->
<g id="edge1" class="edge">
<title>nz0.AxeKnightDeath&#45;&gt;nz0.AllocEntity</title>
<path fill="none" stroke="black" d="M301.38,-180.25C257.47,-148.09 161.3,-77.64 111.89,-41.45"/>
<polygon fill="black" stroke="black" points="113.65,-38.4 103.51,-35.31 109.51,-44.05 113.65,-38.4"/>
<text text-anchor="middle" x="98.51" y="-39.11" font-family="Times,serif" font-size="14.00">1</text>
</g>
<!-- nz0.CreateEntityFromEntity -->
<g id="node3" class="node">
<title>nz0.CreateEntityFromEntity</title>
<g id="a_node3"><a xlink:href="nz0.CreateEntityFromEntity.svg" xlink:title="nz0.CreateEntityFromEntity">
<ellipse fill="green" stroke="black" cx="324.24" cy="-18" rx="143.77" ry="18"/>
<text text-anchor="middle" x="324.24" y="-14.3" font-family="Times,serif" font-size="14.00">nz0.CreateEntityFromEntity</text>
</a>
</g>
</g>
<!-- nz0.AxeKnightDeath&#45;&gt;nz0.CreateEntityFromEntity -->
<g id="edge2" class="edge">
<title>nz0.AxeKnightDeath&#45;&gt;nz0.CreateEntityFromEntity</title>
<path fill="none" stroke="black" d="M324.24,-179.93C324.24,-148.97 324.24,-83.3 324.24,-46.13"/>
<polygon fill="black" stroke="black" points="327.74,-46.02 324.24,-36.02 320.74,-46.02 327.74,-46.02"/>
<text text-anchor="middle" x="319.24" y="-39.82" font-family="Times,serif" font-size="14.00">1</text>
</g>
<!-- nz0.Random -->
<g id="node4" class="node">
<title>nz0.Random</title>
<g id="a_node4"><a xlink:href="nz0.Random.svg" xlink:title="nz0.Random">
<ellipse fill="green" stroke="black" cx="554.24" cy="-18" rx="68.49" ry="18"/>
<text text-anchor="middle" x="554.24" y="-14.3" font-family="Times,serif" font-size="14.00">nz0.Random</text>
</a>
</g>
</g>
<!-- nz0.AxeKnightDeath&#45;&gt;nz0.Random -->
<g id="edge3" class="edge">
<title>nz0.AxeKnightDeath&#45;&gt;nz0.Random</title>
<path fill="none" stroke="black" d="M345.88,-180.25C387.44,-148.09 478.47,-77.64 525.24,-41.45"/>
<polygon fill="black" stroke="black" points="527.4,-44.2 533.16,-35.31 523.11,-38.67 527.4,-44.2"/>
<text text-anchor="middle" x="528.16" y="-39.11" font-family="Times,serif" font-size="14.00">2</text>
</g>
<!-- nz0.EntityAxeKnight -->
<g id="node5" class="node">
<title>nz0.EntityAxeKnight</title>
<g id="a_node5"><a xlink:href="nz0.EntityAxeKnight.svg" xlink:title="nz0.EntityAxeKnight">
<ellipse fill="green" stroke="black" cx="324.24" cy="-378" rx="107.48" ry="18"/>
<text text-anchor="middle" x="324.24" y="-374.3" font-family="Times,serif" font-size="14.00">nz0.EntityAxeKnight</text>
</a>
</g>
</g>
<!-- nz0.EntityAxeKnight&#45;&gt;nz0.AxeKnightDeath -->
<g id="edge4" class="edge">
<title>nz0.EntityAxeKnight&#45;&gt;nz0.AxeKnightDeath</title>
<path fill="none" stroke="black" d="M324.24,-359.93C324.24,-328.97 324.24,-263.3 324.24,-226.13"/>
<polygon fill="black" stroke="black" points="327.74,-226.02 324.24,-216.02 320.74,-226.02 327.74,-226.02"/>
<text text-anchor="middle" x="319.24" y="-348.73" font-family="Times,serif" font-size="14.00">1</text>
</g>
</g>
</svg>
