<?xml version="1.0" encoding="UTF-8" standalone="no"?>
<!DOCTYPE svg PUBLIC "-//W3C//DTD SVG 1.1//EN"
 "http://www.w3.org/Graphics/SVG/1.1/DTD/svg11.dtd">
<!-- Generated by graphviz version 2.43.0 (0)
 -->
<!-- Title: nz0.MoveEntity Pages: 1 -->
<svg width="9042pt" height="224pt"
 viewBox="0.00 0.00 9042.03 224.00" xmlns="http://www.w3.org/2000/svg" xmlns:xlink="http://www.w3.org/1999/xlink">
<g id="graph0" class="graph" transform="scale(1 1) rotate(0) translate(4 220)">
<title>nz0.MoveEntity</title>
<polygon fill="white" stroke="transparent" points="-4,4 -4,-220 9038.03,-220 9038.03,4 -4,4"/>
<!-- nz0.MoveEntity -->
<g id="node1" class="node">
<title>nz0.MoveEntity</title>
<ellipse fill="green" stroke="black" cx="4521.34" cy="-18" rx="84.49" ry="18"/>
<text text-anchor="middle" x="4521.34" y="-14.3" font-family="Times,serif" font-size="14.00">nz0.MoveEntity</text>
</g>
<!-- nz0.EntityAxeKnightThrowingAxe -->
<g id="node2" class="node">
<title>nz0.EntityAxeKnightThrowingAxe</title>
<g id="a_node2"><a xlink:href="nz0.EntityAxeKnightThrowingAxe.svg" xlink:title="nz0.EntityAxeKnightThrowingAxe">
<ellipse fill="green" stroke="black" cx="168.34" cy="-198" rx="168.17" ry="18"/>
<text text-anchor="middle" x="168.34" y="-194.3" font-family="Times,serif" font-size="14.00">nz0.EntityAxeKnightThrowingAxe</text>
</a>
</g>
</g>
<!-- nz0.EntityAxeKnightThrowingAxe&#45;&gt;nz0.MoveEntity -->
<g id="edge1" class="edge">
<title>nz0.EntityAxeKnightThrowingAxe&#45;&gt;nz0.MoveEntity</title>
<path fill="none" stroke="black" d="M284.41,-184.89C304.7,-183.05 325.62,-181.33 345.34,-180 1977.96,-70.22 3975.05,-28.91 4427.33,-20.63"/>
<polygon fill="black" stroke="black" points="4427.47,-24.13 4437.4,-20.45 4427.34,-17.13 4427.47,-24.13"/>
<text text-anchor="middle" x="279.41" y="-173.69" font-family="Times,serif" font-size="14.00">1</text>
</g>
<!-- nz0.EntityBigRedFireball -->
<g id="node3" class="node">
<title>nz0.EntityBigRedFireball</title>
<g id="a_node3"><a xlink:href="nz0.EntityBigRedFireball.svg" xlink:title="nz0.EntityBigRedFireball">
<ellipse fill="green" stroke="black" cx="483.34" cy="-198" rx="128.88" ry="18"/>
<text text-anchor="middle" x="483.34" y="-194.3" font-family="Times,serif" font-size="14.00">nz0.EntityBigRedFireball</text>
</a>
</g>
</g>
<!-- nz0.EntityBigRedFireball&#45;&gt;nz0.MoveEntity -->
<g id="edge2" class="edge">
<title>nz0.EntityBigRedFireball&#45;&gt;nz0.MoveEntity</title>
<path fill="none" stroke="black" d="M572.31,-184.96C588.59,-183.06 605.46,-181.3 621.34,-180 2137.04,-55.56 3992.44,-25.57 4427.13,-20.06"/>
<polygon fill="black" stroke="black" points="4427.18,-23.56 4437.13,-19.94 4427.09,-16.57 4427.18,-23.56"/>
<text text-anchor="middle" x="567.31" y="-173.76" font-family="Times,serif" font-size="14.00">1</text>
</g>
<!-- nz0.EntityBoneScimitarParts -->
<g id="node4" class="node">
<title>nz0.EntityBoneScimitarParts</title>
<g id="a_node4"><a xlink:href="nz0.EntityBoneScimitarParts.svg" xlink:title="nz0.EntityBoneScimitarParts">
<ellipse fill="green" stroke="black" cx="776.34" cy="-198" rx="146.47" ry="18"/>
<text text-anchor="middle" x="776.34" y="-194.3" font-family="Times,serif" font-size="14.00">nz0.EntityBoneScimitarParts</text>
</a>
</g>
</g>
<!-- nz0.EntityBoneScimitarParts&#45;&gt;nz0.MoveEntity -->
<g id="edge3" class="edge">
<title>nz0.EntityBoneScimitarParts&#45;&gt;nz0.MoveEntity</title>
<path fill="none" stroke="black" d="M877.55,-184.95C895.45,-183.09 913.93,-181.34 931.34,-180 2319.31,-72.87 4015.08,-30.18 4427.64,-20.98"/>
<polygon fill="black" stroke="black" points="4427.81,-24.48 4437.73,-20.76 4427.65,-17.48 4427.81,-24.48"/>
<text text-anchor="middle" x="872.55" y="-173.75" font-family="Times,serif" font-size="14.00">1</text>
</g>
<!-- nz0.EntityBossRoomBlock -->
<g id="node5" class="node">
<title>nz0.EntityBossRoomBlock</title>
<g id="a_node5"><a xlink:href="nz0.EntityBossRoomBlock.svg" xlink:title="nz0.EntityBossRoomBlock">
<ellipse fill="green" stroke="black" cx="1073.34" cy="-198" rx="132.68" ry="18"/>
<text text-anchor="middle" x="1073.34" y="-194.3" font-family="Times,serif" font-size="14.00">nz0.EntityBossRoomBlock</text>
</a>
</g>
</g>
<!-- nz0.EntityBossRoomBlock&#45;&gt;nz0.MoveEntity -->
<g id="edge4" class="edge">
<title>nz0.EntityBossRoomBlock&#45;&gt;nz0.MoveEntity</title>
<path fill="none" stroke="black" d="M1165.66,-184.99C1182.18,-183.11 1199.25,-181.35 1215.34,-180 2484.95,-73.22 4035.26,-30.63 4427.68,-21.14"/>
<polygon fill="black" stroke="black" points="4427.93,-24.64 4437.84,-20.9 4427.76,-17.64 4427.93,-24.64"/>
<text text-anchor="middle" x="1160.66" y="-173.79" font-family="Times,serif" font-size="14.00">2</text>
</g>
<!-- nz0.EntityCannon -->
<g id="node6" class="node">
<title>nz0.EntityCannon</title>
<g id="a_node6"><a xlink:href="nz0.EntityCannon.svg" xlink:title="nz0.EntityCannon">
<ellipse fill="green" stroke="black" cx="1318.34" cy="-198" rx="94.48" ry="18"/>
<text text-anchor="middle" x="1318.34" y="-194.3" font-family="Times,serif" font-size="14.00">nz0.EntityCannon</text>
</a>
</g>
</g>
<!-- nz0.EntityCannon&#45;&gt;nz0.MoveEntity -->
<g id="edge5" class="edge">
<title>nz0.EntityCannon&#45;&gt;nz0.MoveEntity</title>
<path fill="none" stroke="black" d="M1384.12,-185.02C1396.45,-183.09 1409.26,-181.31 1421.34,-180 2602.71,-52.23 4048.71,-25.12 4427.14,-20.06"/>
<polygon fill="black" stroke="black" points="4427.26,-23.56 4437.22,-19.93 4427.17,-16.56 4427.26,-23.56"/>
<text text-anchor="middle" x="1379.12" y="-173.82" font-family="Times,serif" font-size="14.00">1</text>
</g>
<!-- nz0.EntityCannonLever -->
<g id="node7" class="node">
<title>nz0.EntityCannonLever</title>
<g id="a_node7"><a xlink:href="nz0.EntityCannonLever.svg" xlink:title="nz0.EntityCannonLever">
<ellipse fill="green" stroke="black" cx="1550.34" cy="-198" rx="120.48" ry="18"/>
<text text-anchor="middle" x="1550.34" y="-194.3" font-family="Times,serif" font-size="14.00">nz0.EntityCannonLever</text>
</a>
</g>
</g>
<!-- nz0.EntityCannonLever&#45;&gt;nz0.MoveEntity -->
<g id="edge6" class="edge">
<title>nz0.EntityCannonLever&#45;&gt;nz0.MoveEntity</title>
<path fill="none" stroke="black" d="M1634.2,-185.03C1649.2,-183.15 1664.72,-181.38 1679.34,-180 2757.26,-78.58 4071.64,-32.84 4428.32,-21.75"/>
<polygon fill="black" stroke="black" points="4428.45,-25.25 4438.34,-21.44 4428.23,-18.25 4428.45,-25.25"/>
<text text-anchor="middle" x="1629.2" y="-173.83" font-family="Times,serif" font-size="14.00">1</text>
</g>
<!-- nz0.EntityCannonShot -->
<g id="node8" class="node">
<title>nz0.EntityCannonShot</title>
<g id="a_node8"><a xlink:href="nz0.EntityCannonShot.svg" xlink:title="nz0.EntityCannonShot">
<ellipse fill="green" stroke="black" cx="1804.34" cy="-198" rx="115.88" ry="18"/>
<text text-anchor="middle" x="1804.34" y="-194.3" font-family="Times,serif" font-size="14.00">nz0.EntityCannonShot</text>
</a>
</g>
</g>
<!-- nz0.EntityCannonShot&#45;&gt;nz0.MoveEntity -->
<g id="edge7" class="edge">
<title>nz0.EntityCannonShot&#45;&gt;nz0.MoveEntity</title>
<path fill="none" stroke="black" d="M1884.94,-185.07C1899.37,-183.18 1914.28,-181.4 1928.34,-180 2903.68,-83 4091.61,-34.67 4428.4,-22.27"/>
<polygon fill="black" stroke="black" points="4428.72,-25.76 4438.59,-21.9 4428.47,-18.77 4428.72,-25.76"/>
<text text-anchor="middle" x="1879.94" y="-173.87" font-family="Times,serif" font-size="14.00">1</text>
</g>
<!-- nz0.EntityEnemyBlood -->
<g id="node9" class="node">
<title>nz0.EntityEnemyBlood</title>
<g id="a_node9"><a xlink:href="nz0.EntityEnemyBlood.svg" xlink:title="nz0.EntityEnemyBlood">
<ellipse fill="green" stroke="black" cx="2055.34" cy="-198" rx="117.78" ry="18"/>
<text text-anchor="middle" x="2055.34" y="-194.3" font-family="Times,serif" font-size="14.00">nz0.EntityEnemyBlood</text>
</a>
</g>
</g>
<!-- nz0.EntityEnemyBlood&#45;&gt;nz0.MoveEntity -->
<g id="edge8" class="edge">
<title>nz0.EntityEnemyBlood&#45;&gt;nz0.MoveEntity</title>
<path fill="none" stroke="black" d="M2137.59,-185.11C2152.15,-183.24 2167.17,-181.44 2181.34,-180 3053.82,-91.22 4114.43,-37.87 4429.13,-23.17"/>
<polygon fill="black" stroke="black" points="4429.74,-26.65 4439.57,-22.69 4429.42,-19.65 4429.74,-26.65"/>
<text text-anchor="middle" x="2132.59" y="-173.91" font-family="Times,serif" font-size="14.00">1</text>
</g>
<!-- nz0.EntityEquipItemDrop -->
<g id="node10" class="node">
<title>nz0.EntityEquipItemDrop</title>
<g id="a_node10"><a xlink:href="nz0.EntityEquipItemDrop.svg" xlink:title="nz0.EntityEquipItemDrop">
<ellipse fill="green" stroke="black" cx="2321.34" cy="-198" rx="130.78" ry="18"/>
<text text-anchor="middle" x="2321.34" y="-194.3" font-family="Times,serif" font-size="14.00">nz0.EntityEquipItemDrop</text>
</a>
</g>
</g>
<!-- nz0.EntityEquipItemDrop&#45;&gt;nz0.MoveEntity -->
<g id="edge9" class="edge">
<title>nz0.EntityEquipItemDrop&#45;&gt;nz0.MoveEntity</title>
<path fill="none" stroke="black" d="M2413.24,-185.18C2428.94,-183.33 2445.09,-181.53 2460.34,-180 3220.97,-103.81 4142.59,-42.95 4430.78,-24.65"/>
<polygon fill="black" stroke="black" points="4431.41,-28.12 4441.17,-24 4430.97,-21.14 4431.41,-28.12"/>
<text text-anchor="middle" x="2408.24" y="-173.98" font-family="Times,serif" font-size="14.00">1</text>
</g>
<!-- nz0.EntityGaibon -->
<g id="node11" class="node">
<title>nz0.EntityGaibon</title>
<g id="a_node11"><a xlink:href="nz0.EntityGaibon.svg" xlink:title="nz0.EntityGaibon">
<ellipse fill="green" stroke="black" cx="2561.34" cy="-198" rx="91.78" ry="18"/>
<text text-anchor="middle" x="2561.34" y="-194.3" font-family="Times,serif" font-size="14.00">nz0.EntityGaibon</text>
</a>
</g>
</g>
<!-- nz0.EntityGaibon&#45;&gt;nz0.MoveEntity -->
<g id="edge10" class="edge">
<title>nz0.EntityGaibon&#45;&gt;nz0.MoveEntity</title>
<path fill="none" stroke="black" d="M2626.42,-185.26C2638.34,-183.33 2650.69,-181.48 2662.34,-180 3339.33,-93.85 4161,-40.46 4430.78,-24.25"/>
<polygon fill="black" stroke="black" points="4431.14,-27.74 4440.91,-23.65 4430.72,-20.75 4431.14,-27.74"/>
<text text-anchor="middle" x="2616.92" y="-174.06" font-family="Times,serif" font-size="14.00">10</text>
</g>
<!-- nz0.EntityLargeGaibonProjectile -->
<g id="node12" class="node">
<title>nz0.EntityLargeGaibonProjectile</title>
<g id="a_node12"><a xlink:href="nz0.EntityLargeGaibonProjectile.svg" xlink:title="nz0.EntityLargeGaibonProjectile">
<ellipse fill="green" stroke="black" cx="2834.34" cy="-198" rx="163.27" ry="18"/>
<text text-anchor="middle" x="2834.34" y="-194.3" font-family="Times,serif" font-size="14.00">nz0.EntityLargeGaibonProjectile</text>
</a>
</g>
</g>
<!-- nz0.EntityLargeGaibonProjectile&#45;&gt;nz0.MoveEntity -->
<g id="edge11" class="edge">
<title>nz0.EntityLargeGaibonProjectile&#45;&gt;nz0.MoveEntity</title>
<path fill="none" stroke="black" d="M2947.64,-185.04C3265.26,-151.53 4159.12,-57.22 4437.49,-27.85"/>
<polygon fill="black" stroke="black" points="4437.95,-31.32 4447.53,-26.79 4437.21,-24.36 4437.95,-31.32"/>
<text text-anchor="middle" x="2942.64" y="-173.84" font-family="Times,serif" font-size="14.00">1</text>
</g>
<!-- nz0.EntityLifeUpSpawn -->
<g id="node13" class="node">
<title>nz0.EntityLifeUpSpawn</title>
<g id="a_node13"><a xlink:href="nz0.EntityLifeUpSpawn.svg" xlink:title="nz0.EntityLifeUpSpawn">
<ellipse fill="green" stroke="black" cx="3137.34" cy="-198" rx="121.58" ry="18"/>
<text text-anchor="middle" x="3137.34" y="-194.3" font-family="Times,serif" font-size="14.00">nz0.EntityLifeUpSpawn</text>
</a>
</g>
</g>
<!-- nz0.EntityLifeUpSpawn&#45;&gt;nz0.MoveEntity -->
<g id="edge12" class="edge">
<title>nz0.EntityLifeUpSpawn&#45;&gt;nz0.MoveEntity</title>
<path fill="none" stroke="black" d="M3225.42,-185.55C3239.76,-183.69 3254.46,-181.79 3268.34,-180 3711.17,-122.82 4242.11,-54.76 4440.96,-29.29"/>
<polygon fill="black" stroke="black" points="4441.55,-32.74 4451.03,-28 4440.66,-25.8 4441.55,-32.74"/>
<text text-anchor="middle" x="3220.42" y="-174.35" font-family="Times,serif" font-size="14.00">1</text>
</g>
<!-- nz0.EntityMaria -->
<g id="node14" class="node">
<title>nz0.EntityMaria</title>
<g id="a_node14"><a xlink:href="nz0.EntityMaria.svg" xlink:title="nz0.EntityMaria">
<ellipse fill="green" stroke="black" cx="3363.34" cy="-198" rx="86.38" ry="18"/>
<text text-anchor="middle" x="3363.34" y="-194.3" font-family="Times,serif" font-size="14.00">nz0.EntityMaria</text>
</a>
</g>
</g>
<!-- nz0.EntityMaria&#45;&gt;nz0.MoveEntity -->
<g id="edge13" class="edge">
<title>nz0.EntityMaria&#45;&gt;nz0.MoveEntity</title>
<path fill="none" stroke="black" d="M3425.89,-185.56C3436.7,-183.65 3447.84,-181.73 3458.34,-180 3826.19,-119.24 4267.16,-55.28 4443.2,-30.1"/>
<polygon fill="black" stroke="black" points="4443.74,-33.56 4453.15,-28.68 4442.75,-26.63 4443.74,-33.56"/>
<text text-anchor="middle" x="3420.89" y="-174.36" font-family="Times,serif" font-size="14.00">4</text>
</g>
<!-- nz0.EntityPrizeDrop -->
<g id="node15" class="node">
<title>nz0.EntityPrizeDrop</title>
<g id="a_node15"><a xlink:href="nz0.EntityPrizeDrop.svg" xlink:title="nz0.EntityPrizeDrop">
<ellipse fill="green" stroke="black" cx="3573.34" cy="-198" rx="105.88" ry="18"/>
<text text-anchor="middle" x="3573.34" y="-194.3" font-family="Times,serif" font-size="14.00">nz0.EntityPrizeDrop</text>
</a>
</g>
</g>
<!-- nz0.EntityPrizeDrop&#45;&gt;nz0.MoveEntity -->
<g id="edge14" class="edge">
<title>nz0.EntityPrizeDrop&#45;&gt;nz0.MoveEntity</title>
<path fill="none" stroke="black" d="M3641.51,-184.2C3815.28,-151.57 4273.49,-65.54 4450.32,-32.33"/>
<polygon fill="black" stroke="black" points="4451.11,-35.75 4460.29,-30.46 4449.82,-28.87 4451.11,-35.75"/>
<text text-anchor="middle" x="3636.51" y="-173" font-family="Times,serif" font-size="14.00">2</text>
</g>
<!-- nz0.EntityRelicOrb -->
<g id="node16" class="node">
<title>nz0.EntityRelicOrb</title>
<g id="a_node16"><a xlink:href="nz0.EntityRelicOrb.svg" xlink:title="nz0.EntityRelicOrb">
<ellipse fill="green" stroke="black" cx="3796.34" cy="-198" rx="99.38" ry="18"/>
<text text-anchor="middle" x="3796.34" y="-194.3" font-family="Times,serif" font-size="14.00">nz0.EntityRelicOrb</text>
</a>
</g>
</g>
<!-- nz0.EntityRelicOrb&#45;&gt;nz0.MoveEntity -->
<g id="edge15" class="edge">
<title>nz0.EntityRelicOrb&#45;&gt;nz0.MoveEntity</title>
<path fill="none" stroke="black" d="M3852.92,-183.11C3986.06,-150.42 4318.38,-68.83 4457.99,-34.55"/>
<polygon fill="black" stroke="black" points="4459.23,-37.85 4468.1,-32.07 4457.56,-31.05 4459.23,-37.85"/>
<text text-anchor="middle" x="3847.92" y="-171.91" font-family="Times,serif" font-size="14.00">1</text>
</g>
<!-- nz0.EntitySlogra -->
<g id="node17" class="node">
<title>nz0.EntitySlogra</title>
<g id="a_node17"><a xlink:href="nz0.EntitySlogra.svg" xlink:title="nz0.EntitySlogra">
<ellipse fill="green" stroke="black" cx="4002.34" cy="-198" rx="89.08" ry="18"/>
<text text-anchor="middle" x="4002.34" y="-194.3" font-family="Times,serif" font-size="14.00">nz0.EntitySlogra</text>
</a>
</g>
</g>
<!-- nz0.EntitySlogra&#45;&gt;nz0.MoveEntity -->
<g id="edge16" class="edge">
<title>nz0.EntitySlogra&#45;&gt;nz0.MoveEntity</title>
<path fill="none" stroke="black" d="M4045.69,-182.13C4140.69,-149.55 4366.86,-71.98 4469.31,-36.84"/>
<polygon fill="black" stroke="black" points="4470.51,-40.13 4478.83,-33.58 4468.23,-33.51 4470.51,-40.13"/>
<text text-anchor="middle" x="4040.69" y="-170.93" font-family="Times,serif" font-size="14.00">1</text>
</g>
<!-- nz0.EntitySlograSpear -->
<g id="node18" class="node">
<title>nz0.EntitySlograSpear</title>
<g id="a_node18"><a xlink:href="nz0.EntitySlograSpear.svg" xlink:title="nz0.EntitySlograSpear">
<ellipse fill="green" stroke="black" cx="4225.34" cy="-198" rx="116.18" ry="18"/>
<text text-anchor="middle" x="4225.34" y="-194.3" font-family="Times,serif" font-size="14.00">nz0.EntitySlograSpear</text>
</a>
</g>
</g>
<!-- nz0.EntitySlograSpear&#45;&gt;nz0.MoveEntity -->
<g id="edge17" class="edge">
<title>nz0.EntitySlograSpear&#45;&gt;nz0.MoveEntity</title>
<path fill="none" stroke="black" d="M4252.92,-180.41C4306.84,-147.99 4426.16,-76.23 4485.87,-40.33"/>
<polygon fill="black" stroke="black" points="4487.81,-43.25 4494.57,-35.09 4484.2,-37.25 4487.81,-43.25"/>
<text text-anchor="middle" x="4247.92" y="-169.21" font-family="Times,serif" font-size="14.00">1</text>
</g>
<!-- nz0.EntitySlograSpearProjectile -->
<g id="node19" class="node">
<title>nz0.EntitySlograSpearProjectile</title>
<g id="a_node19"><a xlink:href="nz0.EntitySlograSpearProjectile.svg" xlink:title="nz0.EntitySlograSpearProjectile">
<ellipse fill="green" stroke="black" cx="4521.34" cy="-198" rx="161.37" ry="18"/>
<text text-anchor="middle" x="4521.34" y="-194.3" font-family="Times,serif" font-size="14.00">nz0.EntitySlograSpearProjectile</text>
</a>
</g>
</g>
<!-- nz0.EntitySlograSpearProjectile&#45;&gt;nz0.MoveEntity -->
<g id="edge18" class="edge">
<title>nz0.EntitySlograSpearProjectile&#45;&gt;nz0.MoveEntity</title>
<path fill="none" stroke="black" d="M4521.34,-179.93C4521.34,-148.97 4521.34,-83.3 4521.34,-46.13"/>
<polygon fill="black" stroke="black" points="4524.84,-46.02 4521.34,-36.02 4517.84,-46.02 4524.84,-46.02"/>
<text text-anchor="middle" x="4516.34" y="-168.73" font-family="Times,serif" font-size="14.00">1</text>
</g>
<!-- nz0.EntitySlograSpecialCollision -->
<g id="node20" class="node">
<title>nz0.EntitySlograSpecialCollision</title>
<g id="a_node20"><a xlink:href="nz0.EntitySlograSpecialCollision.svg" xlink:title="nz0.EntitySlograSpecialCollision">
<ellipse fill="green" stroke="black" cx="4863.34" cy="-198" rx="163.27" ry="18"/>
<text text-anchor="middle" x="4863.34" y="-194.3" font-family="Times,serif" font-size="14.00">nz0.EntitySlograSpecialCollision</text>
</a>
</g>
</g>
<!-- nz0.EntitySlograSpecialCollision&#45;&gt;nz0.MoveEntity -->
<g id="edge19" class="edge">
<title>nz0.EntitySlograSpecialCollision&#45;&gt;nz0.MoveEntity</title>
<path fill="none" stroke="black" d="M4831.16,-180.25C4768.27,-147.52 4629.23,-75.16 4560.86,-39.57"/>
<polygon fill="black" stroke="black" points="4562.19,-36.32 4551.7,-34.8 4558.95,-42.53 4562.19,-36.32"/>
<text text-anchor="middle" x="4826.16" y="-169.05" font-family="Times,serif" font-size="14.00">1</text>
</g>
<!-- nz0.EntitySmallGaibonProjectile -->
<g id="node21" class="node">
<title>nz0.EntitySmallGaibonProjectile</title>
<g id="a_node21"><a xlink:href="nz0.EntitySmallGaibonProjectile.svg" xlink:title="nz0.EntitySmallGaibonProjectile">
<ellipse fill="green" stroke="black" cx="5207.34" cy="-198" rx="162.47" ry="18"/>
<text text-anchor="middle" x="5207.34" y="-194.3" font-family="Times,serif" font-size="14.00">nz0.EntitySmallGaibonProjectile</text>
</a>
</g>
</g>
<!-- nz0.EntitySmallGaibonProjectile&#45;&gt;nz0.MoveEntity -->
<g id="edge20" class="edge">
<title>nz0.EntitySmallGaibonProjectile&#45;&gt;nz0.MoveEntity</title>
<path fill="none" stroke="black" d="M5146.76,-181.28C5016.88,-147.58 4712.85,-68.69 4582.47,-34.86"/>
<polygon fill="black" stroke="black" points="4583.2,-31.44 4572.64,-32.31 4581.44,-38.21 4583.2,-31.44"/>
<text text-anchor="middle" x="5141.76" y="-170.08" font-family="Times,serif" font-size="14.00">1</text>
</g>
<!-- nz0.EntitySoulStealOrb -->
<g id="node22" class="node">
<title>nz0.EntitySoulStealOrb</title>
<g id="a_node22"><a xlink:href="nz0.EntitySoulStealOrb.svg" xlink:title="nz0.EntitySoulStealOrb">
<ellipse fill="green" stroke="black" cx="5508.34" cy="-198" rx="120.78" ry="18"/>
<text text-anchor="middle" x="5508.34" y="-194.3" font-family="Times,serif" font-size="14.00">nz0.EntitySoulStealOrb</text>
</a>
</g>
</g>
<!-- nz0.EntitySoulStealOrb&#45;&gt;nz0.MoveEntity -->
<g id="edge21" class="edge">
<title>nz0.EntitySoulStealOrb&#45;&gt;nz0.MoveEntity</title>
<path fill="none" stroke="black" d="M5434.55,-183.69C5250.95,-150.58 4775.28,-64.8 4593.45,-32.01"/>
<polygon fill="black" stroke="black" points="4593.92,-28.53 4583.46,-30.2 4592.68,-35.42 4593.92,-28.53"/>
<text text-anchor="middle" x="5429.55" y="-172.49" font-family="Times,serif" font-size="14.00">1</text>
</g>
<!-- nz0.EntitySpittleBone -->
<g id="node23" class="node">
<title>nz0.EntitySpittleBone</title>
<g id="a_node23"><a xlink:href="nz0.EntitySpittleBone.svg" xlink:title="nz0.EntitySpittleBone">
<ellipse fill="green" stroke="black" cx="5761.34" cy="-198" rx="113.98" ry="18"/>
<text text-anchor="middle" x="5761.34" y="-194.3" font-family="Times,serif" font-size="14.00">nz0.EntitySpittleBone</text>
</a>
</g>
</g>
<!-- nz0.EntitySpittleBone&#45;&gt;nz0.MoveEntity -->
<g id="edge22" class="edge">
<title>nz0.EntitySpittleBone&#45;&gt;nz0.MoveEntity</title>
<path fill="none" stroke="black" d="M5679.98,-185.32C5454.05,-152.89 4821.08,-62.03 4599.3,-30.19"/>
<polygon fill="black" stroke="black" points="4599.76,-26.72 4589.37,-28.77 4598.77,-33.65 4599.76,-26.72"/>
<text text-anchor="middle" x="5674.98" y="-174.12" font-family="Times,serif" font-size="14.00">1</text>
</g>
<!-- nz0.EntitySpittleBoneSpit -->
<g id="node24" class="node">
<title>nz0.EntitySpittleBoneSpit</title>
<g id="a_node24"><a xlink:href="nz0.EntitySpittleBoneSpit.svg" xlink:title="nz0.EntitySpittleBoneSpit">
<ellipse fill="green" stroke="black" cx="6025.34" cy="-198" rx="132.68" ry="18"/>
<text text-anchor="middle" x="6025.34" y="-194.3" font-family="Times,serif" font-size="14.00">nz0.EntitySpittleBoneSpit</text>
</a>
</g>
</g>
<!-- nz0.EntitySpittleBoneSpit&#45;&gt;nz0.MoveEntity -->
<g id="edge23" class="edge">
<title>nz0.EntitySpittleBoneSpit&#45;&gt;nz0.MoveEntity</title>
<path fill="none" stroke="black" d="M5929.77,-185.45C5914.57,-183.62 5899.02,-181.75 5884.34,-180 5398.69,-122.04 4815.56,-53.52 4603.5,-28.64"/>
<polygon fill="black" stroke="black" points="4603.72,-25.14 4593.38,-27.45 4602.9,-32.09 4603.72,-25.14"/>
<text text-anchor="middle" x="5924.77" y="-174.25" font-family="Times,serif" font-size="14.00">1</text>
</g>
<!-- nz0.EntityWargExplosionPuffOpaque -->
<g id="node25" class="node">
<title>nz0.EntityWargExplosionPuffOpaque</title>
<g id="a_node25"><a xlink:href="nz0.EntityWargExplosionPuffOpaque.svg" xlink:title="nz0.EntityWargExplosionPuffOpaque">
<ellipse fill="green" stroke="black" cx="6358.34" cy="-198" rx="182.77" ry="18"/>
<text text-anchor="middle" x="6358.34" y="-194.3" font-family="Times,serif" font-size="14.00">nz0.EntityWargExplosionPuffOpaque</text>
</a>
</g>
</g>
<!-- nz0.EntityWargExplosionPuffOpaque&#45;&gt;nz0.MoveEntity -->
<g id="edge24" class="edge">
<title>nz0.EntityWargExplosionPuffOpaque&#45;&gt;nz0.MoveEntity</title>
<path fill="none" stroke="black" d="M6233.15,-184.87C5883.46,-150.99 4902.55,-55.94 4606.8,-27.28"/>
<polygon fill="black" stroke="black" points="4606.86,-23.77 4596.57,-26.29 4606.19,-30.74 4606.86,-23.77"/>
<text text-anchor="middle" x="6228.15" y="-173.67" font-family="Times,serif" font-size="14.00">2</text>
</g>
<!-- nz0.UnkCollisionFunc3 -->
<g id="node26" class="node">
<title>nz0.UnkCollisionFunc3</title>
<g id="a_node26"><a xlink:href="nz0.UnkCollisionFunc3.svg" xlink:title="nz0.UnkCollisionFunc3">
<ellipse fill="green" stroke="black" cx="6677.34" cy="-198" rx="118.08" ry="18"/>
<text text-anchor="middle" x="6677.34" y="-194.3" font-family="Times,serif" font-size="14.00">nz0.UnkCollisionFunc3</text>
</a>
</g>
</g>
<!-- nz0.UnkCollisionFunc3&#45;&gt;nz0.MoveEntity -->
<g id="edge25" class="edge">
<title>nz0.UnkCollisionFunc3&#45;&gt;nz0.MoveEntity</title>
<path fill="none" stroke="black" d="M6594.07,-185.2C6579.51,-183.32 6564.49,-181.51 6550.34,-180 5803.23,-100.41 4897.5,-41.97 4612.01,-24.45"/>
<polygon fill="black" stroke="black" points="4611.9,-20.93 4601.71,-23.82 4611.48,-27.92 4611.9,-20.93"/>
<text text-anchor="middle" x="6589.07" y="-174" font-family="Times,serif" font-size="14.00">1</text>
</g>
<!-- nz0.func_801B19A0 -->
<g id="node27" class="node">
<title>nz0.func_801B19A0</title>
<g id="a_node27"><a xlink:href="nz0.func_801B19A0.svg" xlink:title="nz0.func_801B19A0">
<ellipse fill="green" stroke="black" cx="6916.34" cy="-198" rx="102.88" ry="18"/>
<text text-anchor="middle" x="6916.34" y="-194.3" font-family="Times,serif" font-size="14.00">nz0.func_801B19A0</text>
</a>
</g>
</g>
<!-- nz0.func_801B19A0&#45;&gt;nz0.MoveEntity -->
<g id="edge26" class="edge">
<title>nz0.func_801B19A0&#45;&gt;nz0.MoveEntity</title>
<path fill="none" stroke="black" d="M6844.15,-185.17C6830.93,-183.26 6817.24,-181.43 6804.34,-180 5956.02,-85.86 4923.91,-36.35 4613.74,-22.85"/>
<polygon fill="black" stroke="black" points="4613.59,-19.34 4603.45,-22.41 4613.29,-26.34 4613.59,-19.34"/>
<text text-anchor="middle" x="6839.15" y="-173.97" font-family="Times,serif" font-size="14.00">1</text>
</g>
<!-- nz0.func_801BDE20 -->
<g id="node28" class="node">
<title>nz0.func_801BDE20</title>
<g id="a_node28"><a xlink:href="nz0.func_801BDE20.svg" xlink:title="nz0.func_801BDE20">
<ellipse fill="green" stroke="black" cx="7141.34" cy="-198" rx="104.78" ry="18"/>
<text text-anchor="middle" x="7141.34" y="-194.3" font-family="Times,serif" font-size="14.00">nz0.func_801BDE20</text>
</a>
</g>
</g>
<!-- nz0.func_801BDE20&#45;&gt;nz0.MoveEntity -->
<g id="edge27" class="edge">
<title>nz0.func_801BDE20&#45;&gt;nz0.MoveEntity</title>
<path fill="none" stroke="black" d="M7068.21,-185.07C7054.96,-183.17 7041.26,-181.38 7028.34,-180 6089.09,-79.37 4944.66,-33.77 4614.52,-22.12"/>
<polygon fill="black" stroke="black" points="4614.18,-18.6 4604.06,-21.75 4613.93,-25.6 4614.18,-18.6"/>
<text text-anchor="middle" x="7063.21" y="-173.87" font-family="Times,serif" font-size="14.00">2</text>
</g>
<!-- nz0.func_801C1034 -->
<g id="node29" class="node">
<title>nz0.func_801C1034</title>
<g id="a_node29"><a xlink:href="nz0.func_801C1034.svg" xlink:title="nz0.func_801C1034">
<ellipse fill="green" stroke="black" cx="7366.34" cy="-198" rx="102.88" ry="18"/>
<text text-anchor="middle" x="7366.34" y="-194.3" font-family="Times,serif" font-size="14.00">nz0.func_801C1034</text>
</a>
</g>
</g>
<!-- nz0.func_801C1034&#45;&gt;nz0.MoveEntity -->
<g id="edge28" class="edge">
<title>nz0.func_801C1034&#45;&gt;nz0.MoveEntity</title>
<path fill="none" stroke="black" d="M7294.81,-185.04C7281.71,-183.14 7268.13,-181.35 7255.34,-180 6223.2,-70.81 4963.45,-30.77 4614.67,-21.34"/>
<polygon fill="black" stroke="black" points="4614.7,-17.84 4604.61,-21.07 4614.52,-24.84 4614.7,-17.84"/>
<text text-anchor="middle" x="7289.81" y="-173.84" font-family="Times,serif" font-size="14.00">1</text>
</g>
<!-- nz0.func_801C16B4 -->
<g id="node30" class="node">
<title>nz0.func_801C16B4</title>
<g id="a_node30"><a xlink:href="nz0.func_801C16B4.svg" xlink:title="nz0.func_801C16B4">
<ellipse fill="green" stroke="black" cx="7590.34" cy="-198" rx="103.18" ry="18"/>
<text text-anchor="middle" x="7590.34" y="-194.3" font-family="Times,serif" font-size="14.00">nz0.func_801C16B4</text>
</a>
</g>
</g>
<!-- nz0.func_801C16B4&#45;&gt;nz0.MoveEntity -->
<g id="edge29" class="edge">
<title>nz0.func_801C16B4&#45;&gt;nz0.MoveEntity</title>
<path fill="none" stroke="black" d="M7518.47,-185.05C7505.15,-183.13 7491.35,-181.34 7478.34,-180 6354.76,-64.41 4981.91,-28.64 4615.1,-20.82"/>
<polygon fill="black" stroke="black" points="4615.13,-17.32 4605.06,-20.61 4614.98,-24.32 4615.13,-17.32"/>
<text text-anchor="middle" x="7513.47" y="-173.85" font-family="Times,serif" font-size="14.00">1</text>
</g>
<!-- nz0.func_801C6494 -->
<g id="node31" class="node">
<title>nz0.func_801C6494</title>
<g id="a_node31"><a xlink:href="nz0.func_801C6494.svg" xlink:title="nz0.func_801C6494">
<ellipse fill="green" stroke="black" cx="7814.34" cy="-198" rx="102.88" ry="18"/>
<text text-anchor="middle" x="7814.34" y="-194.3" font-family="Times,serif" font-size="14.00">nz0.func_801C6494</text>
</a>
</g>
</g>
<!-- nz0.func_801C6494&#45;&gt;nz0.MoveEntity -->
<g id="edge30" class="edge">
<title>nz0.func_801C6494&#45;&gt;nz0.MoveEntity</title>
<path fill="none" stroke="black" d="M7742.77,-185.05C7729.36,-183.12 7715.45,-181.32 7702.34,-180 6486.88,-57.31 5000.24,-26.48 4615.67,-20.33"/>
<polygon fill="black" stroke="black" points="4615.48,-16.83 4605.43,-20.17 4615.37,-23.83 4615.48,-16.83"/>
<text text-anchor="middle" x="7737.77" y="-173.85" font-family="Times,serif" font-size="14.00">1</text>
</g>
<!-- nz0.func_801C6574 -->
<g id="node32" class="node">
<title>nz0.func_801C6574</title>
<g id="a_node32"><a xlink:href="nz0.func_801C6574.svg" xlink:title="nz0.func_801C6574">
<ellipse fill="green" stroke="black" cx="8037.34" cy="-198" rx="102.88" ry="18"/>
<text text-anchor="middle" x="8037.34" y="-194.3" font-family="Times,serif" font-size="14.00">nz0.func_801C6574</text>
</a>
</g>
</g>
<!-- nz0.func_801C6574&#45;&gt;nz0.MoveEntity -->
<g id="edge31" class="edge">
<title>nz0.func_801C6574&#45;&gt;nz0.MoveEntity</title>
<path fill="none" stroke="black" d="M7966.12,-184.96C7952.92,-183.06 7939.24,-181.29 7926.34,-180 6618.17,-49.26 5016.34,-24.19 4615.58,-19.84"/>
<polygon fill="black" stroke="black" points="4615.53,-16.34 4605.49,-19.74 4615.45,-23.34 4615.53,-16.34"/>
<text text-anchor="middle" x="7961.12" y="-173.76" font-family="Times,serif" font-size="14.00">1</text>
</g>
<!-- nz0.func_801C7538 -->
<g id="node33" class="node">
<title>nz0.func_801C7538</title>
<g id="a_node33"><a xlink:href="nz0.func_801C7538.svg" xlink:title="nz0.func_801C7538">
<ellipse fill="green" stroke="black" cx="8260.34" cy="-198" rx="102.88" ry="18"/>
<text text-anchor="middle" x="8260.34" y="-194.3" font-family="Times,serif" font-size="14.00">nz0.func_801C7538</text>
</a>
</g>
</g>
<!-- nz0.func_801C7538&#45;&gt;nz0.MoveEntity -->
<g id="edge32" class="edge">
<title>nz0.func_801C7538&#45;&gt;nz0.MoveEntity</title>
<path fill="none" stroke="black" d="M8189.42,-184.98C8176.13,-183.05 8162.33,-181.28 8149.34,-180 6748.91,-42.09 5032.67,-22.27 4615.81,-19.46"/>
<polygon fill="black" stroke="black" points="4615.64,-15.96 4605.61,-19.39 4615.59,-22.96 4615.64,-15.96"/>
<text text-anchor="middle" x="8184.42" y="-173.78" font-family="Times,serif" font-size="14.00">1</text>
</g>
<!-- nz0.func_801C7654 -->
<g id="node34" class="node">
<title>nz0.func_801C7654</title>
<g id="a_node34"><a xlink:href="nz0.func_801C7654.svg" xlink:title="nz0.func_801C7654">
<ellipse fill="green" stroke="black" cx="8483.34" cy="-198" rx="102.88" ry="18"/>
<text text-anchor="middle" x="8483.34" y="-194.3" font-family="Times,serif" font-size="14.00">nz0.func_801C7654</text>
</a>
</g>
</g>
<!-- nz0.func_801C7654&#45;&gt;nz0.MoveEntity -->
<g id="edge33" class="edge">
<title>nz0.func_801C7654&#45;&gt;nz0.MoveEntity</title>
<path fill="none" stroke="black" d="M8412.42,-184.95C8399.13,-183.03 8385.34,-181.26 8372.34,-180 6879.66,-34.94 5049.03,-20.47 4616.2,-19.12"/>
<polygon fill="black" stroke="black" points="4615.94,-15.62 4605.93,-19.09 4615.92,-22.62 4615.94,-15.62"/>
<text text-anchor="middle" x="8407.42" y="-173.75" font-family="Times,serif" font-size="14.00">2</text>
</g>
<!-- nz0.func_801C77B8 -->
<g id="node35" class="node">
<title>nz0.func_801C77B8</title>
<g id="a_node35"><a xlink:href="nz0.func_801C77B8.svg" xlink:title="nz0.func_801C77B8">
<ellipse fill="green" stroke="black" cx="8707.34" cy="-198" rx="103.18" ry="18"/>
<text text-anchor="middle" x="8707.34" y="-194.3" font-family="Times,serif" font-size="14.00">nz0.func_801C77B8</text>
</a>
</g>
</g>
<!-- nz0.func_801C77B8&#45;&gt;nz0.MoveEntity -->
<g id="edge34" class="edge">
<title>nz0.func_801C77B8&#45;&gt;nz0.MoveEntity</title>
<path fill="none" stroke="black" d="M8635.78,-184.93C8622.38,-183.01 8608.45,-181.25 8595.34,-180 7009.59,-28.79 5063.59,-19.01 4616.1,-18.86"/>
<polygon fill="black" stroke="black" points="4615.81,-15.36 4605.81,-18.86 4615.81,-22.36 4615.81,-15.36"/>
<text text-anchor="middle" x="8630.78" y="-173.73" font-family="Times,serif" font-size="14.00">1</text>
</g>
<!-- nz0.func_801C7884 -->
<g id="node36" class="node">
<title>nz0.func_801C7884</title>
<g id="a_node36"><a xlink:href="nz0.func_801C7884.svg" xlink:title="nz0.func_801C7884">
<ellipse fill="green" stroke="black" cx="8931.34" cy="-198" rx="102.88" ry="18"/>
<text text-anchor="middle" x="8931.34" y="-194.3" font-family="Times,serif" font-size="14.00">nz0.func_801C7884</text>
</a>
</g>
</g>
<!-- nz0.func_801C7884&#45;&gt;nz0.MoveEntity -->
<g id="edge35" class="edge">
<title>nz0.func_801C7884&#45;&gt;nz0.MoveEntity</title>
<path fill="none" stroke="black" d="M8860.09,-184.95C8846.59,-183.02 8832.55,-181.25 8819.34,-180 7140.43,-21.65 5078.8,-17.39 4616.33,-18.58"/>
<polygon fill="black" stroke="black" points="4616.02,-15.08 4606.03,-18.61 4616.04,-22.08 4616.02,-15.08"/>
<text text-anchor="middle" x="8855.09" y="-173.75" font-family="Times,serif" font-size="14.00">1</text>
</g>
</g>
</svg>
