<?xml version="1.0" encoding="UTF-8" standalone="no"?>
<!DOCTYPE svg PUBLIC "-//W3C//DTD SVG 1.1//EN"
 "http://www.w3.org/Graphics/SVG/1.1/DTD/svg11.dtd">
<!-- Generated by graphviz version 2.43.0 (0)
 -->
<!-- Title: nz0.EntityEquipItemDrop Pages: 1 -->
<svg width="3288pt" height="224pt"
 viewBox="0.00 0.00 3288.28 224.00" xmlns="http://www.w3.org/2000/svg" xmlns:xlink="http://www.w3.org/1999/xlink">
<g id="graph0" class="graph" transform="scale(1 1) rotate(0) translate(4 220)">
<title>nz0.EntityEquipItemDrop</title>
<polygon fill="white" stroke="transparent" points="-4,4 -4,-220 3284.28,-220 3284.28,4 -4,4"/>
<!-- nz0.EntityEquipItemDrop -->
<g id="node1" class="node">
<title>nz0.EntityEquipItemDrop</title>
<ellipse fill="green" stroke="black" cx="1644.69" cy="-198" rx="130.78" ry="18"/>
<text text-anchor="middle" x="1644.69" y="-194.3" font-family="Times,serif" font-size="14.00">nz0.EntityEquipItemDrop</text>
</g>
<!-- dra.AddToInventory -->
<g id="node2" class="node">
<title>dra.AddToInventory</title>
<g id="a_node2"><a xlink:href="dra.AddToInventory.svg" xlink:title="dra.AddToInventory">
<ellipse fill="green" stroke="black" cx="102.69" cy="-18" rx="102.88" ry="18"/>
<text text-anchor="middle" x="102.69" y="-14.3" font-family="Times,serif" font-size="14.00">dra.AddToInventory</text>
</a>
</g>
</g>
<!-- nz0.EntityEquipItemDrop&#45;&gt;dra.AddToInventory -->
<g id="edge1" class="edge">
<title>nz0.EntityEquipItemDrop&#45;&gt;dra.AddToInventory</title>
<path fill="none" stroke="black" d="M1542.22,-186.83C1307.18,-163.21 711.29,-101.62 214.69,-36 205.5,-34.79 195.9,-33.44 186.35,-32.06"/>
<polygon fill="black" stroke="black" points="186.84,-28.59 176.43,-30.61 185.82,-35.52 186.84,-28.59"/>
<text text-anchor="middle" x="171.43" y="-34.41" font-family="Times,serif" font-size="14.00">1</text>
</g>
<!-- dra.AllocPrimitives -->
<g id="node3" class="node">
<title>dra.AllocPrimitives</title>
<g id="a_node3"><a xlink:href="dra.AllocPrimitives.svg" xlink:title="dra.AllocPrimitives">
<ellipse fill="green" stroke="black" cx="322.69" cy="-18" rx="99.38" ry="18"/>
<text text-anchor="middle" x="322.69" y="-14.3" font-family="Times,serif" font-size="14.00">dra.AllocPrimitives</text>
</a>
</g>
</g>
<!-- nz0.EntityEquipItemDrop&#45;&gt;dra.AllocPrimitives -->
<g id="edge2" class="edge">
<title>nz0.EntityEquipItemDrop&#45;&gt;dra.AllocPrimitives</title>
<path fill="none" stroke="black" d="M1551.38,-185.35C1347.84,-159.78 848.79,-96.2 431.69,-36 423.01,-34.75 413.96,-33.4 404.93,-32.03"/>
<polygon fill="black" stroke="black" points="405.19,-28.53 394.77,-30.48 404.13,-35.45 405.19,-28.53"/>
<text text-anchor="middle" x="389.77" y="-34.28" font-family="Times,serif" font-size="14.00">1</text>
</g>
<!-- dra.CheckCollision -->
<g id="node4" class="node">
<title>dra.CheckCollision</title>
<g id="a_node4"><a xlink:href="dra.CheckCollision.svg" xlink:title="dra.CheckCollision">
<ellipse fill="green" stroke="black" cx="537.69" cy="-18" rx="97.48" ry="18"/>
<text text-anchor="middle" x="537.69" y="-14.3" font-family="Times,serif" font-size="14.00">dra.CheckCollision</text>
</a>
</g>
</g>
<!-- nz0.EntityEquipItemDrop&#45;&gt;dra.CheckCollision -->
<g id="edge3" class="edge">
<title>nz0.EntityEquipItemDrop&#45;&gt;dra.CheckCollision</title>
<path fill="none" stroke="black" d="M1563.29,-183.91C1358.41,-150.97 823.21,-64.91 618.73,-32.03"/>
<polygon fill="black" stroke="black" points="619.09,-28.54 608.66,-30.41 617.97,-35.45 619.09,-28.54"/>
<text text-anchor="middle" x="603.66" y="-34.21" font-family="Times,serif" font-size="14.00">3</text>
</g>
<!-- dra.FreePrimitives -->
<g id="node5" class="node">
<title>dra.FreePrimitives</title>
<g id="a_node5"><a xlink:href="dra.FreePrimitives.svg" xlink:title="dra.FreePrimitives">
<ellipse fill="green" stroke="black" cx="751.69" cy="-18" rx="98.58" ry="18"/>
<text text-anchor="middle" x="751.69" y="-14.3" font-family="Times,serif" font-size="14.00">dra.FreePrimitives</text>
</a>
</g>
</g>
<!-- nz0.EntityEquipItemDrop&#45;&gt;dra.FreePrimitives -->
<g id="edge4" class="edge">
<title>nz0.EntityEquipItemDrop&#45;&gt;dra.FreePrimitives</title>
<path fill="none" stroke="black" d="M1573.5,-182.81C1407.27,-149.68 994.93,-67.48 825.83,-33.78"/>
<polygon fill="black" stroke="black" points="826.27,-30.3 815.78,-31.77 824.9,-37.16 826.27,-30.3"/>
<text text-anchor="middle" x="810.78" y="-35.57" font-family="Times,serif" font-size="14.00">1</text>
</g>
<!-- dra.LoadEquipIcon -->
<g id="node6" class="node">
<title>dra.LoadEquipIcon</title>
<g id="a_node6"><a xlink:href="dra.LoadEquipIcon.svg" xlink:title="dra.LoadEquipIcon">
<ellipse fill="green" stroke="black" cx="967.69" cy="-18" rx="98.58" ry="18"/>
<text text-anchor="middle" x="967.69" y="-14.3" font-family="Times,serif" font-size="14.00">dra.LoadEquipIcon</text>
</a>
</g>
</g>
<!-- nz0.EntityEquipItemDrop&#45;&gt;dra.LoadEquipIcon -->
<g id="edge5" class="edge">
<title>nz0.EntityEquipItemDrop&#45;&gt;dra.LoadEquipIcon</title>
<path fill="none" stroke="black" d="M1586.97,-181.82C1461.07,-148.72 1162.57,-70.24 1031.39,-35.75"/>
<polygon fill="black" stroke="black" points="1032.05,-32.3 1021.49,-33.14 1030.27,-39.07 1032.05,-32.3"/>
<text text-anchor="middle" x="1016.49" y="-36.94" font-family="Times,serif" font-size="14.00">1</text>
</g>
<!-- dra.PlaySfx -->
<g id="node7" class="node">
<title>dra.PlaySfx</title>
<g id="a_node7"><a xlink:href="dra.PlaySfx.svg" xlink:title="dra.PlaySfx">
<ellipse fill="green" stroke="black" cx="1148.69" cy="-18" rx="64.19" ry="18"/>
<text text-anchor="middle" x="1148.69" y="-14.3" font-family="Times,serif" font-size="14.00">dra.PlaySfx</text>
</a>
</g>
</g>
<!-- nz0.EntityEquipItemDrop&#45;&gt;dra.PlaySfx -->
<g id="edge6" class="edge">
<title>nz0.EntityEquipItemDrop&#45;&gt;dra.PlaySfx</title>
<path fill="none" stroke="black" d="M1600.24,-181.05C1507.02,-147.59 1291.82,-70.36 1196.09,-36.01"/>
<polygon fill="black" stroke="black" points="1197.25,-32.71 1186.66,-32.63 1194.89,-39.3 1197.25,-32.71"/>
<text text-anchor="middle" x="1181.66" y="-36.43" font-family="Times,serif" font-size="14.00">1</text>
</g>
<!-- nz0.BlinkItem -->
<g id="node8" class="node">
<title>nz0.BlinkItem</title>
<g id="a_node8"><a xlink:href="nz0.BlinkItem.svg" xlink:title="nz0.BlinkItem">
<ellipse fill="green" stroke="black" cx="1306.69" cy="-18" rx="75.29" ry="18"/>
<text text-anchor="middle" x="1306.69" y="-14.3" font-family="Times,serif" font-size="14.00">nz0.BlinkItem</text>
</a>
</g>
</g>
<!-- nz0.EntityEquipItemDrop&#45;&gt;nz0.BlinkItem -->
<g id="edge7" class="edge">
<title>nz0.EntityEquipItemDrop&#45;&gt;nz0.BlinkItem</title>
<path fill="none" stroke="black" d="M1613.2,-180.41C1551.06,-147.69 1412.86,-74.91 1345.33,-39.35"/>
<polygon fill="black" stroke="black" points="1346.77,-36.15 1336.29,-34.59 1343.5,-42.34 1346.77,-36.15"/>
<text text-anchor="middle" x="1331.29" y="-38.39" font-family="Times,serif" font-size="14.00">1</text>
</g>
<!-- nz0.BottomCornerText -->
<g id="node9" class="node">
<title>nz0.BottomCornerText</title>
<g id="a_node9"><a xlink:href="nz0.BottomCornerText.svg" xlink:title="nz0.BottomCornerText">
<ellipse fill="green" stroke="black" cx="1516.69" cy="-18" rx="116.18" ry="18"/>
<text text-anchor="middle" x="1516.69" y="-14.3" font-family="Times,serif" font-size="14.00">nz0.BottomCornerText</text>
</a>
</g>
</g>
<!-- nz0.EntityEquipItemDrop&#45;&gt;nz0.BottomCornerText -->
<g id="edge8" class="edge">
<title>nz0.EntityEquipItemDrop&#45;&gt;nz0.BottomCornerText</title>
<path fill="none" stroke="black" d="M1632.42,-179.93C1609.77,-148.43 1561.3,-81.03 1534.84,-44.24"/>
<polygon fill="black" stroke="black" points="1537.61,-42.09 1528.93,-36.02 1531.92,-46.18 1537.61,-42.09"/>
<text text-anchor="middle" x="1523.93" y="-39.82" font-family="Times,serif" font-size="14.00">1</text>
</g>
<!-- nz0.CheckFieldCollision -->
<g id="node10" class="node">
<title>nz0.CheckFieldCollision</title>
<g id="a_node10"><a xlink:href="nz0.CheckFieldCollision.svg" xlink:title="nz0.CheckFieldCollision">
<ellipse fill="green" stroke="black" cx="1773.69" cy="-18" rx="122.38" ry="18"/>
<text text-anchor="middle" x="1773.69" y="-14.3" font-family="Times,serif" font-size="14.00">nz0.CheckFieldCollision</text>
</a>
</g>
</g>
<!-- nz0.EntityEquipItemDrop&#45;&gt;nz0.CheckFieldCollision -->
<g id="edge9" class="edge">
<title>nz0.EntityEquipItemDrop&#45;&gt;nz0.CheckFieldCollision</title>
<path fill="none" stroke="black" d="M1657.06,-179.93C1679.89,-148.43 1728.73,-81.03 1755.4,-44.24"/>
<polygon fill="black" stroke="black" points="1758.33,-46.17 1761.36,-36.02 1752.66,-42.06 1758.33,-46.17"/>
<text text-anchor="middle" x="1756.36" y="-39.82" font-family="Times,serif" font-size="14.00">1</text>
</g>
<!-- nz0.DestroyEntity -->
<g id="node11" class="node">
<title>nz0.DestroyEntity</title>
<g id="a_node11"><a xlink:href="nz0.DestroyEntity.svg" xlink:title="nz0.DestroyEntity">
<ellipse fill="green" stroke="black" cx="2009.69" cy="-18" rx="95.58" ry="18"/>
<text text-anchor="middle" x="2009.69" y="-14.3" font-family="Times,serif" font-size="14.00">nz0.DestroyEntity</text>
</a>
</g>
</g>
<!-- nz0.EntityEquipItemDrop&#45;&gt;nz0.DestroyEntity -->
<g id="edge10" class="edge">
<title>nz0.EntityEquipItemDrop&#45;&gt;nz0.DestroyEntity</title>
<path fill="none" stroke="black" d="M1678.37,-180.57C1745.17,-148 1894.28,-75.28 1967.49,-39.58"/>
<polygon fill="black" stroke="black" points="1969.42,-42.53 1976.88,-35 1966.36,-36.24 1969.42,-42.53"/>
<text text-anchor="middle" x="1971.88" y="-38.8" font-family="Times,serif" font-size="14.00">2</text>
</g>
<!-- nz0.EntityPrizeDrop -->
<g id="node12" class="node">
<title>nz0.EntityPrizeDrop</title>
<g id="a_node12"><a xlink:href="nz0.EntityPrizeDrop.svg" xlink:title="nz0.EntityPrizeDrop">
<ellipse fill="green" stroke="black" cx="2228.69" cy="-18" rx="105.88" ry="18"/>
<text text-anchor="middle" x="2228.69" y="-14.3" font-family="Times,serif" font-size="14.00">nz0.EntityPrizeDrop</text>
</a>
</g>
</g>
<!-- nz0.EntityEquipItemDrop&#45;&gt;nz0.EntityPrizeDrop -->
<g id="edge11" class="edge">
<title>nz0.EntityEquipItemDrop&#45;&gt;nz0.EntityPrizeDrop</title>
<path fill="none" stroke="black" d="M1696.01,-181.36C1804.19,-148.39 2055.09,-71.91 2169.69,-36.98"/>
<polygon fill="black" stroke="black" points="2170.81,-40.3 2179.36,-34.04 2168.77,-33.6 2170.81,-40.3"/>
<text text-anchor="middle" x="2174.36" y="-37.84" font-family="Times,serif" font-size="14.00">1</text>
</g>
<!-- nz0.FallEntity -->
<g id="node13" class="node">
<title>nz0.FallEntity</title>
<g id="a_node13"><a xlink:href="nz0.FallEntity.svg" xlink:title="nz0.FallEntity">
<ellipse fill="green" stroke="black" cx="2428.69" cy="-18" rx="76.09" ry="18"/>
<text text-anchor="middle" x="2428.69" y="-14.3" font-family="Times,serif" font-size="14.00">nz0.FallEntity</text>
</a>
</g>
</g>
<!-- nz0.EntityEquipItemDrop&#45;&gt;nz0.FallEntity -->
<g id="edge12" class="edge">
<title>nz0.EntityEquipItemDrop&#45;&gt;nz0.FallEntity</title>
<path fill="none" stroke="black" d="M1709.52,-182.28C1857.66,-148.65 2219.47,-66.5 2365.77,-33.29"/>
<polygon fill="black" stroke="black" points="2366.95,-36.61 2375.92,-30.98 2365.4,-29.78 2366.95,-36.61"/>
<text text-anchor="middle" x="2370.92" y="-34.78" font-family="Times,serif" font-size="14.00">1</text>
</g>
<!-- nz0.InitializeEntity -->
<g id="node14" class="node">
<title>nz0.InitializeEntity</title>
<g id="a_node14"><a xlink:href="nz0.InitializeEntity.svg" xlink:title="nz0.InitializeEntity">
<ellipse fill="green" stroke="black" cx="2621.69" cy="-18" rx="99.38" ry="18"/>
<text text-anchor="middle" x="2621.69" y="-14.3" font-family="Times,serif" font-size="14.00">nz0.InitializeEntity</text>
</a>
</g>
</g>
<!-- nz0.EntityEquipItemDrop&#45;&gt;nz0.InitializeEntity -->
<g id="edge13" class="edge">
<title>nz0.EntityEquipItemDrop&#45;&gt;nz0.InitializeEntity</title>
<path fill="none" stroke="black" d="M1720.14,-183.25C1901.56,-150.2 2360.77,-66.54 2544.23,-33.11"/>
<polygon fill="black" stroke="black" points="2545.13,-36.51 2554.34,-31.27 2543.87,-29.62 2545.13,-36.51"/>
<text text-anchor="middle" x="2549.34" y="-35.07" font-family="Times,serif" font-size="14.00">1</text>
</g>
<!-- nz0.MoveEntity -->
<g id="node15" class="node">
<title>nz0.MoveEntity</title>
<g id="a_node15"><a xlink:href="nz0.MoveEntity.svg" xlink:title="nz0.MoveEntity">
<ellipse fill="green" stroke="black" cx="2823.69" cy="-18" rx="84.49" ry="18"/>
<text text-anchor="middle" x="2823.69" y="-14.3" font-family="Times,serif" font-size="14.00">nz0.MoveEntity</text>
</a>
</g>
</g>
<!-- nz0.EntityEquipItemDrop&#45;&gt;nz0.MoveEntity -->
<g id="edge14" class="edge">
<title>nz0.EntityEquipItemDrop&#45;&gt;nz0.MoveEntity</title>
<path fill="none" stroke="black" d="M1733.8,-184.75C1919.36,-159.03 2360.7,-96.73 2729.69,-36 2737.03,-34.79 2744.68,-33.49 2752.31,-32.15"/>
<polygon fill="black" stroke="black" points="2753.06,-35.57 2762.3,-30.39 2751.85,-28.68 2753.06,-35.57"/>
<text text-anchor="middle" x="2757.3" y="-34.19" font-family="Times,serif" font-size="14.00">1</text>
</g>
<!-- nz0.PrizeDropFall2 -->
<g id="node16" class="node">
<title>nz0.PrizeDropFall2</title>
<g id="a_node16"><a xlink:href="nz0.PrizeDropFall2.svg" xlink:title="nz0.PrizeDropFall2">
<ellipse fill="green" stroke="black" cx="3026.69" cy="-18" rx="100.18" ry="18"/>
<text text-anchor="middle" x="3026.69" y="-14.3" font-family="Times,serif" font-size="14.00">nz0.PrizeDropFall2</text>
</a>
</g>
</g>
<!-- nz0.EntityEquipItemDrop&#45;&gt;nz0.PrizeDropFall2 -->
<g id="edge15" class="edge">
<title>nz0.EntityEquipItemDrop&#45;&gt;nz0.PrizeDropFall2</title>
<path fill="none" stroke="black" d="M1740.95,-185.73C1953.39,-160.66 2478.31,-97.61 2916.69,-36 2925.61,-34.75 2934.94,-33.38 2944.22,-32"/>
<polygon fill="black" stroke="black" points="2944.88,-35.44 2954.25,-30.48 2943.84,-28.51 2944.88,-35.44"/>
<text text-anchor="middle" x="2949.25" y="-34.28" font-family="Times,serif" font-size="14.00">2</text>
</g>
<!-- nz0.SetStep -->
<g id="node17" class="node">
<title>nz0.SetStep</title>
<g id="a_node17"><a xlink:href="nz0.SetStep.svg" xlink:title="nz0.SetStep">
<ellipse fill="green" stroke="black" cx="3212.69" cy="-18" rx="67.69" ry="18"/>
<text text-anchor="middle" x="3212.69" y="-14.3" font-family="Times,serif" font-size="14.00">nz0.SetStep</text>
</a>
</g>
</g>
<!-- nz0.EntityEquipItemDrop&#45;&gt;nz0.SetStep -->
<g id="edge16" class="edge">
<title>nz0.EntityEquipItemDrop&#45;&gt;nz0.SetStep</title>
<path fill="none" stroke="black" d="M1758.43,-189C2008.6,-170.47 2625.04,-119.68 3135.69,-36 3141.58,-35.04 3147.69,-33.91 3153.78,-32.7"/>
<polygon fill="black" stroke="black" points="3154.88,-36.05 3163.97,-30.6 3153.47,-29.19 3154.88,-36.05"/>
<text text-anchor="middle" x="3158.97" y="-34.4" font-family="Times,serif" font-size="14.00">1</text>
</g>
</g>
</svg>
