<?xml version="1.0" encoding="UTF-8" standalone="no"?>
<!DOCTYPE svg PUBLIC "-//W3C//DTD SVG 1.1//EN"
 "http://www.w3.org/Graphics/SVG/1.1/DTD/svg11.dtd">
<!-- Generated by graphviz version 2.43.0 (0)
 -->
<!-- Title: nz0.func_801C7884 Pages: 1 -->
<svg width="682pt" height="224pt"
 viewBox="0.00 0.00 682.09 224.00" xmlns="http://www.w3.org/2000/svg" xmlns:xlink="http://www.w3.org/1999/xlink">
<g id="graph0" class="graph" transform="scale(1 1) rotate(0) translate(4 220)">
<title>nz0.func_801C7884</title>
<polygon fill="white" stroke="transparent" points="-4,4 -4,-220 678.09,-220 678.09,4 -4,4"/>
<!-- nz0.func_801C7884 -->
<g id="node1" class="node">
<title>nz0.func_801C7884</title>
<ellipse fill="green" stroke="black" cx="413.49" cy="-198" rx="102.88" ry="18"/>
<text text-anchor="middle" x="413.49" y="-194.3" font-family="Times,serif" font-size="14.00">nz0.func_801C7884</text>
</g>
<!-- nz0.AnimateEntity -->
<g id="node2" class="node">
<title>nz0.AnimateEntity</title>
<g id="a_node2"><a xlink:href="nz0.AnimateEntity.svg" xlink:title="nz0.AnimateEntity">
<ellipse fill="green" stroke="black" cx="97.49" cy="-18" rx="97.48" ry="18"/>
<text text-anchor="middle" x="97.49" y="-14.3" font-family="Times,serif" font-size="14.00">nz0.AnimateEntity</text>
</a>
</g>
</g>
<!-- nz0.func_801C7884&#45;&gt;nz0.AnimateEntity -->
<g id="edge1" class="edge">
<title>nz0.func_801C7884&#45;&gt;nz0.AnimateEntity</title>
<path fill="none" stroke="black" d="M384.33,-180.57C326.95,-148.25 199.43,-76.42 135.53,-40.43"/>
<polygon fill="black" stroke="black" points="137.01,-37.25 126.58,-35.39 133.58,-43.34 137.01,-37.25"/>
<text text-anchor="middle" x="121.58" y="-39.19" font-family="Times,serif" font-size="14.00">1</text>
</g>
<!-- nz0.InitializeEntity -->
<g id="node3" class="node">
<title>nz0.InitializeEntity</title>
<g id="a_node3"><a xlink:href="nz0.InitializeEntity.svg" xlink:title="nz0.InitializeEntity">
<ellipse fill="green" stroke="black" cx="312.49" cy="-18" rx="99.38" ry="18"/>
<text text-anchor="middle" x="312.49" y="-14.3" font-family="Times,serif" font-size="14.00">nz0.InitializeEntity</text>
</a>
</g>
</g>
<!-- nz0.func_801C7884&#45;&gt;nz0.InitializeEntity -->
<g id="edge2" class="edge">
<title>nz0.func_801C7884&#45;&gt;nz0.InitializeEntity</title>
<path fill="none" stroke="black" d="M403.81,-179.93C386.09,-148.7 348.33,-82.17 327.35,-45.18"/>
<polygon fill="black" stroke="black" points="330.13,-42.99 322.15,-36.02 324.04,-46.44 330.13,-42.99"/>
<text text-anchor="middle" x="317.15" y="-39.82" font-family="Times,serif" font-size="14.00">1</text>
</g>
<!-- nz0.MoveEntity -->
<g id="node4" class="node">
<title>nz0.MoveEntity</title>
<g id="a_node4"><a xlink:href="nz0.MoveEntity.svg" xlink:title="nz0.MoveEntity">
<ellipse fill="green" stroke="black" cx="514.49" cy="-18" rx="84.49" ry="18"/>
<text text-anchor="middle" x="514.49" y="-14.3" font-family="Times,serif" font-size="14.00">nz0.MoveEntity</text>
</a>
</g>
</g>
<!-- nz0.func_801C7884&#45;&gt;nz0.MoveEntity -->
<g id="edge3" class="edge">
<title>nz0.func_801C7884&#45;&gt;nz0.MoveEntity</title>
<path fill="none" stroke="black" d="M423.18,-179.93C440.9,-148.7 478.65,-82.17 499.64,-45.18"/>
<polygon fill="black" stroke="black" points="502.95,-46.44 504.84,-36.02 496.86,-42.99 502.95,-46.44"/>
<text text-anchor="middle" x="499.84" y="-39.82" font-family="Times,serif" font-size="14.00">1</text>
</g>
<!-- rsin -->
<g id="node5" class="node">
<title>rsin</title>
<g id="a_node5"><a xlink:href="rsin.svg" xlink:title="rsin">
<ellipse fill="lightblue" stroke="black" cx="645.49" cy="-18" rx="28.7" ry="18"/>
<text text-anchor="middle" x="645.49" y="-14.3" font-family="Times,serif" font-size="14.00">rsin</text>
</a>
</g>
</g>
<!-- nz0.func_801C7884&#45;&gt;rsin -->
<g id="edge4" class="edge">
<title>nz0.func_801C7884&#45;&gt;rsin</title>
<path fill="none" stroke="black" d="M435.32,-180.25C478.43,-147.18 574.3,-73.62 620.13,-38.46"/>
<polygon fill="black" stroke="black" points="622.28,-41.22 628.08,-32.36 618.02,-35.67 622.28,-41.22"/>
<text text-anchor="middle" x="623.08" y="-36.16" font-family="Times,serif" font-size="14.00">1</text>
</g>
</g>
</svg>
