<?xml version="1.0" encoding="UTF-8" standalone="no"?>
<!DOCTYPE svg PUBLIC "-//W3C//DTD SVG 1.1//EN"
 "http://www.w3.org/Graphics/SVG/1.1/DTD/svg11.dtd">
<!-- Generated by graphviz version 2.43.0 (0)
 -->
<!-- Title: nz0.EntityBoneScimitar Pages: 1 -->
<svg width="3884pt" height="224pt"
 viewBox="0.00 0.00 3884.04 224.00" xmlns="http://www.w3.org/2000/svg" xmlns:xlink="http://www.w3.org/1999/xlink">
<g id="graph0" class="graph" transform="scale(1 1) rotate(0) translate(4 220)">
<title>nz0.EntityBoneScimitar</title>
<polygon fill="white" stroke="transparent" points="-4,4 -4,-220 3880.04,-220 3880.04,4 -4,4"/>
<!-- nz0.EntityBoneScimitar -->
<g id="node1" class="node">
<title>nz0.EntityBoneScimitar</title>
<ellipse fill="green" stroke="black" cx="2113.34" cy="-198" rx="122.38" ry="18"/>
<text text-anchor="middle" x="2113.34" y="-194.3" font-family="Times,serif" font-size="14.00">nz0.EntityBoneScimitar</text>
</g>
<!-- dra.PlaySfx -->
<g id="node2" class="node">
<title>dra.PlaySfx</title>
<g id="a_node2"><a xlink:href="dra.PlaySfx.svg" xlink:title="dra.PlaySfx">
<ellipse fill="green" stroke="black" cx="64.34" cy="-18" rx="64.19" ry="18"/>
<text text-anchor="middle" x="64.34" y="-14.3" font-family="Times,serif" font-size="14.00">dra.PlaySfx</text>
</a>
</g>
</g>
<!-- nz0.EntityBoneScimitar&#45;&gt;dra.PlaySfx -->
<g id="edge1" class="edge">
<title>nz0.EntityBoneScimitar&#45;&gt;dra.PlaySfx</title>
<path fill="none" stroke="black" d="M1995.22,-193.32C1687.67,-182.46 837.41,-144.21 138.34,-36 132.5,-35.1 126.44,-33.99 120.4,-32.77"/>
<polygon fill="black" stroke="black" points="120.84,-29.29 110.33,-30.65 119.39,-36.14 120.84,-29.29"/>
<text text-anchor="middle" x="105.33" y="-34.45" font-family="Times,serif" font-size="14.00">1</text>
</g>
<!-- nz0.AllocEntity -->
<g id="node3" class="node">
<title>nz0.AllocEntity</title>
<g id="a_node3"><a xlink:href="nz0.AllocEntity.svg" xlink:title="nz0.AllocEntity">
<ellipse fill="green" stroke="black" cx="228.34" cy="-18" rx="81.49" ry="18"/>
<text text-anchor="middle" x="228.34" y="-14.3" font-family="Times,serif" font-size="14.00">nz0.AllocEntity</text>
</a>
</g>
</g>
<!-- nz0.EntityBoneScimitar&#45;&gt;nz0.AllocEntity -->
<g id="edge2" class="edge">
<title>nz0.EntityBoneScimitar&#45;&gt;nz0.AllocEntity</title>
<path fill="none" stroke="black" d="M2001.66,-190.69C1719.02,-173.9 952.84,-123.4 319.34,-36 311.93,-34.98 304.2,-33.76 296.51,-32.46"/>
<polygon fill="black" stroke="black" points="296.92,-28.98 286.46,-30.71 295.71,-35.88 296.92,-28.98"/>
<text text-anchor="middle" x="281.46" y="-34.51" font-family="Times,serif" font-size="14.00">1</text>
</g>
<!-- nz0.AnimateEntity -->
<g id="node4" class="node">
<title>nz0.AnimateEntity</title>
<g id="a_node4"><a xlink:href="nz0.AnimateEntity.svg" xlink:title="nz0.AnimateEntity">
<ellipse fill="green" stroke="black" cx="425.34" cy="-18" rx="97.48" ry="18"/>
<text text-anchor="middle" x="425.34" y="-14.3" font-family="Times,serif" font-size="14.00">nz0.AnimateEntity</text>
</a>
</g>
</g>
<!-- nz0.EntityBoneScimitar&#45;&gt;nz0.AnimateEntity -->
<g id="edge3" class="edge">
<title>nz0.EntityBoneScimitar&#45;&gt;nz0.AnimateEntity</title>
<path fill="none" stroke="black" d="M2009.45,-188.51C1756.19,-167.37 1087.02,-108.77 531.34,-36 522.68,-34.87 513.64,-33.58 504.65,-32.23"/>
<polygon fill="black" stroke="black" points="504.95,-28.73 494.54,-30.69 503.9,-35.65 504.95,-28.73"/>
<text text-anchor="middle" x="489.54" y="-34.49" font-family="Times,serif" font-size="14.00">6</text>
</g>
<!-- nz0.CreateEntityFromCurrentEntity -->
<g id="node5" class="node">
<title>nz0.CreateEntityFromCurrentEntity</title>
<g id="a_node5"><a xlink:href="nz0.CreateEntityFromCurrentEntity.svg" xlink:title="nz0.CreateEntityFromCurrentEntity">
<ellipse fill="green" stroke="black" cx="721.34" cy="-18" rx="180.87" ry="18"/>
<text text-anchor="middle" x="721.34" y="-14.3" font-family="Times,serif" font-size="14.00">nz0.CreateEntityFromCurrentEntity</text>
</a>
</g>
</g>
<!-- nz0.EntityBoneScimitar&#45;&gt;nz0.CreateEntityFromCurrentEntity -->
<g id="edge4" class="edge">
<title>nz0.EntityBoneScimitar&#45;&gt;nz0.CreateEntityFromCurrentEntity</title>
<path fill="none" stroke="black" d="M2024.42,-185.63C1782.06,-154.64 1109.93,-68.69 837.89,-33.9"/>
<polygon fill="black" stroke="black" points="837.96,-30.38 827.59,-32.59 837.07,-37.33 837.96,-30.38"/>
<text text-anchor="middle" x="822.59" y="-36.39" font-family="Times,serif" font-size="14.00">1</text>
</g>
<!-- nz0.CreateEntityFromEntity -->
<g id="node6" class="node">
<title>nz0.CreateEntityFromEntity</title>
<g id="a_node6"><a xlink:href="nz0.CreateEntityFromEntity.svg" xlink:title="nz0.CreateEntityFromEntity">
<ellipse fill="green" stroke="black" cx="1063.34" cy="-18" rx="143.77" ry="18"/>
<text text-anchor="middle" x="1063.34" y="-14.3" font-family="Times,serif" font-size="14.00">nz0.CreateEntityFromEntity</text>
</a>
</g>
</g>
<!-- nz0.EntityBoneScimitar&#45;&gt;nz0.CreateEntityFromEntity -->
<g id="edge5" class="edge">
<title>nz0.EntityBoneScimitar&#45;&gt;nz0.CreateEntityFromEntity</title>
<path fill="none" stroke="black" d="M2036.56,-183.98C1847.34,-151.91 1359.23,-69.16 1155.16,-34.57"/>
<polygon fill="black" stroke="black" points="1155.52,-31.08 1145.07,-32.85 1154.35,-37.98 1155.52,-31.08"/>
<text text-anchor="middle" x="1140.07" y="-36.65" font-family="Times,serif" font-size="14.00">1</text>
</g>
<!-- nz0.DestroyEntity -->
<g id="node7" class="node">
<title>nz0.DestroyEntity</title>
<g id="a_node7"><a xlink:href="nz0.DestroyEntity.svg" xlink:title="nz0.DestroyEntity">
<ellipse fill="green" stroke="black" cx="1320.34" cy="-18" rx="95.58" ry="18"/>
<text text-anchor="middle" x="1320.34" y="-14.3" font-family="Times,serif" font-size="14.00">nz0.DestroyEntity</text>
</a>
</g>
</g>
<!-- nz0.EntityBoneScimitar&#45;&gt;nz0.DestroyEntity -->
<g id="edge6" class="edge">
<title>nz0.EntityBoneScimitar&#45;&gt;nz0.DestroyEntity</title>
<path fill="none" stroke="black" d="M2049.12,-182.58C1901.88,-149.53 1541.01,-68.53 1389.3,-34.48"/>
<polygon fill="black" stroke="black" points="1389.7,-30.98 1379.18,-32.21 1388.17,-37.81 1389.7,-30.98"/>
<text text-anchor="middle" x="1374.18" y="-36.01" font-family="Times,serif" font-size="14.00">1</text>
</g>
<!-- nz0.GetDistanceToPlayerX -->
<g id="node8" class="node">
<title>nz0.GetDistanceToPlayerX</title>
<g id="a_node8"><a xlink:href="nz0.GetDistanceToPlayerX.svg" xlink:title="nz0.GetDistanceToPlayerX">
<ellipse fill="green" stroke="black" cx="1567.34" cy="-18" rx="133.78" ry="18"/>
<text text-anchor="middle" x="1567.34" y="-14.3" font-family="Times,serif" font-size="14.00">nz0.GetDistanceToPlayerX</text>
</a>
</g>
</g>
<!-- nz0.EntityBoneScimitar&#45;&gt;nz0.GetDistanceToPlayerX -->
<g id="edge7" class="edge">
<title>nz0.EntityBoneScimitar&#45;&gt;nz0.GetDistanceToPlayerX</title>
<path fill="none" stroke="black" d="M2065.37,-181.36C1965.19,-148.7 1734.09,-73.36 1625.59,-37.99"/>
<polygon fill="black" stroke="black" points="1626.39,-34.57 1615.8,-34.8 1624.22,-41.22 1626.39,-34.57"/>
<text text-anchor="middle" x="1610.8" y="-38.6" font-family="Times,serif" font-size="14.00">3</text>
</g>
<!-- nz0.GetDistanceToPlayerY -->
<g id="node9" class="node">
<title>nz0.GetDistanceToPlayerY</title>
<g id="a_node9"><a xlink:href="nz0.GetDistanceToPlayerY.svg" xlink:title="nz0.GetDistanceToPlayerY">
<ellipse fill="green" stroke="black" cx="1853.34" cy="-18" rx="133.78" ry="18"/>
<text text-anchor="middle" x="1853.34" y="-14.3" font-family="Times,serif" font-size="14.00">nz0.GetDistanceToPlayerY</text>
</a>
</g>
</g>
<!-- nz0.EntityBoneScimitar&#45;&gt;nz0.GetDistanceToPlayerY -->
<g id="edge8" class="edge">
<title>nz0.EntityBoneScimitar&#45;&gt;nz0.GetDistanceToPlayerY</title>
<path fill="none" stroke="black" d="M2088.88,-180.25C2041.94,-148.12 1939.2,-77.78 1886.28,-41.55"/>
<polygon fill="black" stroke="black" points="1888.16,-38.59 1877.93,-35.83 1884.2,-44.37 1888.16,-38.59"/>
<text text-anchor="middle" x="1872.93" y="-39.63" font-family="Times,serif" font-size="14.00">1</text>
</g>
<!-- nz0.GetSideToPlayer -->
<g id="node10" class="node">
<title>nz0.GetSideToPlayer</title>
<g id="a_node10"><a xlink:href="nz0.GetSideToPlayer.svg" xlink:title="nz0.GetSideToPlayer">
<ellipse fill="green" stroke="black" cx="2113.34" cy="-18" rx="107.78" ry="18"/>
<text text-anchor="middle" x="2113.34" y="-14.3" font-family="Times,serif" font-size="14.00">nz0.GetSideToPlayer</text>
</a>
</g>
</g>
<!-- nz0.EntityBoneScimitar&#45;&gt;nz0.GetSideToPlayer -->
<g id="edge9" class="edge">
<title>nz0.EntityBoneScimitar&#45;&gt;nz0.GetSideToPlayer</title>
<path fill="none" stroke="black" d="M2113.34,-179.93C2113.34,-148.97 2113.34,-83.3 2113.34,-46.13"/>
<polygon fill="black" stroke="black" points="2116.84,-46.02 2113.34,-36.02 2109.84,-46.02 2116.84,-46.02"/>
<text text-anchor="middle" x="2108.34" y="-39.82" font-family="Times,serif" font-size="14.00">3</text>
</g>
<!-- nz0.InitializeEntity -->
<g id="node11" class="node">
<title>nz0.InitializeEntity</title>
<g id="a_node11"><a xlink:href="nz0.InitializeEntity.svg" xlink:title="nz0.InitializeEntity">
<ellipse fill="green" stroke="black" cx="2338.34" cy="-18" rx="99.38" ry="18"/>
<text text-anchor="middle" x="2338.34" y="-14.3" font-family="Times,serif" font-size="14.00">nz0.InitializeEntity</text>
</a>
</g>
</g>
<!-- nz0.EntityBoneScimitar&#45;&gt;nz0.InitializeEntity -->
<g id="edge10" class="edge">
<title>nz0.EntityBoneScimitar&#45;&gt;nz0.InitializeEntity</title>
<path fill="none" stroke="black" d="M2134.51,-180.25C2174.88,-148.32 2262.95,-78.65 2308.98,-42.23"/>
<polygon fill="black" stroke="black" points="2311.4,-44.78 2317.07,-35.83 2307.06,-39.29 2311.4,-44.78"/>
<text text-anchor="middle" x="2312.07" y="-39.63" font-family="Times,serif" font-size="14.00">1</text>
</g>
<!-- nz0.Random -->
<g id="node12" class="node">
<title>nz0.Random</title>
<g id="a_node12"><a xlink:href="nz0.Random.svg" xlink:title="nz0.Random">
<ellipse fill="green" stroke="black" cx="2524.34" cy="-18" rx="68.49" ry="18"/>
<text text-anchor="middle" x="2524.34" y="-14.3" font-family="Times,serif" font-size="14.00">nz0.Random</text>
</a>
</g>
</g>
<!-- nz0.EntityBoneScimitar&#45;&gt;nz0.Random -->
<g id="edge11" class="edge">
<title>nz0.EntityBoneScimitar&#45;&gt;nz0.Random</title>
<path fill="none" stroke="black" d="M2150.91,-180.73C2227.27,-147.66 2400.21,-72.76 2481.11,-37.73"/>
<polygon fill="black" stroke="black" points="2482.72,-40.84 2490.5,-33.66 2479.94,-34.42 2482.72,-40.84"/>
<text text-anchor="middle" x="2485.5" y="-37.46" font-family="Times,serif" font-size="14.00">1</text>
</g>
<!-- nz0.SetStep -->
<g id="node13" class="node">
<title>nz0.SetStep</title>
<g id="a_node13"><a xlink:href="nz0.SetStep.svg" xlink:title="nz0.SetStep">
<ellipse fill="green" stroke="black" cx="2678.34" cy="-18" rx="67.69" ry="18"/>
<text text-anchor="middle" x="2678.34" y="-14.3" font-family="Times,serif" font-size="14.00">nz0.SetStep</text>
</a>
</g>
</g>
<!-- nz0.EntityBoneScimitar&#45;&gt;nz0.SetStep -->
<g id="edge12" class="edge">
<title>nz0.EntityBoneScimitar&#45;&gt;nz0.SetStep</title>
<path fill="none" stroke="black" d="M2162.5,-181.52C2268.59,-148.09 2518.2,-69.45 2626.59,-35.3"/>
<polygon fill="black" stroke="black" points="2627.84,-38.58 2636.32,-32.24 2625.73,-31.91 2627.84,-38.58"/>
<text text-anchor="middle" x="2631.32" y="-36.04" font-family="Times,serif" font-size="14.00">4</text>
</g>
<!-- nz0.func_801BCCFC -->
<g id="node14" class="node">
<title>nz0.func_801BCCFC</title>
<g id="a_node14"><a xlink:href="nz0.func_801BCCFC.svg" xlink:title="nz0.func_801BCCFC">
<ellipse fill="green" stroke="black" cx="2870.34" cy="-18" rx="105.88" ry="18"/>
<text text-anchor="middle" x="2870.34" y="-14.3" font-family="Times,serif" font-size="14.00">nz0.func_801BCCFC</text>
</a>
</g>
</g>
<!-- nz0.EntityBoneScimitar&#45;&gt;nz0.func_801BCCFC -->
<g id="edge13" class="edge">
<title>nz0.EntityBoneScimitar&#45;&gt;nz0.func_801BCCFC</title>
<path fill="none" stroke="black" d="M2175.29,-182.43C2315.18,-149.54 2654.69,-69.71 2801.18,-35.26"/>
<polygon fill="black" stroke="black" points="2802.03,-38.66 2810.96,-32.96 2800.43,-31.84 2802.03,-38.66"/>
<text text-anchor="middle" x="2805.96" y="-36.76" font-family="Times,serif" font-size="14.00">2</text>
</g>
<!-- nz0.func_801BCF74 -->
<g id="node15" class="node">
<title>nz0.func_801BCF74</title>
<g id="a_node15"><a xlink:href="nz0.func_801BCF74.svg" xlink:title="nz0.func_801BCF74">
<ellipse fill="green" stroke="black" cx="3098.34" cy="-18" rx="103.98" ry="18"/>
<text text-anchor="middle" x="3098.34" y="-14.3" font-family="Times,serif" font-size="14.00">nz0.func_801BCF74</text>
</a>
</g>
</g>
<!-- nz0.EntityBoneScimitar&#45;&gt;nz0.func_801BCF74 -->
<g id="edge14" class="edge">
<title>nz0.EntityBoneScimitar&#45;&gt;nz0.func_801BCF74</title>
<path fill="none" stroke="black" d="M2187.38,-183.62C2368.49,-150.89 2832.66,-67.01 3019.08,-33.32"/>
<polygon fill="black" stroke="black" points="3019.87,-36.74 3029.09,-31.52 3018.63,-29.85 3019.87,-36.74"/>
<text text-anchor="middle" x="3024.09" y="-35.32" font-family="Times,serif" font-size="14.00">1</text>
</g>
<!-- nz0.func_801BD848 -->
<g id="node16" class="node">
<title>nz0.func_801BD848</title>
<g id="a_node16"><a xlink:href="nz0.func_801BD848.svg" xlink:title="nz0.func_801BD848">
<ellipse fill="green" stroke="black" cx="3324.34" cy="-18" rx="103.98" ry="18"/>
<text text-anchor="middle" x="3324.34" y="-14.3" font-family="Times,serif" font-size="14.00">nz0.func_801BD848</text>
</a>
</g>
</g>
<!-- nz0.EntityBoneScimitar&#45;&gt;nz0.func_801BD848 -->
<g id="edge15" class="edge">
<title>nz0.EntityBoneScimitar&#45;&gt;nz0.func_801BD848</title>
<path fill="none" stroke="black" d="M2197.04,-184.84C2380.69,-158.12 2832.82,-92.22 3211.34,-36 3220.21,-34.68 3229.46,-33.3 3238.69,-31.92"/>
<polygon fill="black" stroke="black" points="3239.3,-35.37 3248.67,-30.42 3238.27,-28.44 3239.3,-35.37"/>
<text text-anchor="middle" x="3243.67" y="-34.22" font-family="Times,serif" font-size="14.00">1</text>
</g>
<!-- nz0.func_801C29B0 -->
<g id="node17" class="node">
<title>nz0.func_801C29B0</title>
<g id="a_node17"><a xlink:href="nz0.func_801C29B0.svg" xlink:title="nz0.func_801C29B0">
<ellipse fill="green" stroke="black" cx="3549.34" cy="-18" rx="103.18" ry="18"/>
<text text-anchor="middle" x="3549.34" y="-14.3" font-family="Times,serif" font-size="14.00">nz0.func_801C29B0</text>
</a>
</g>
</g>
<!-- nz0.EntityBoneScimitar&#45;&gt;nz0.func_801C29B0 -->
<g id="edge16" class="edge">
<title>nz0.EntityBoneScimitar&#45;&gt;nz0.func_801C29B0</title>
<path fill="none" stroke="black" d="M2207.78,-186.49C2425.06,-162.09 2977.07,-98.9 3437.34,-36 3446.36,-34.77 3455.77,-33.43 3465.15,-32.05"/>
<polygon fill="black" stroke="black" points="3465.91,-35.48 3475.29,-30.56 3464.88,-28.56 3465.91,-35.48"/>
<text text-anchor="middle" x="3470.29" y="-34.36" font-family="Times,serif" font-size="14.00">1</text>
</g>
<!-- nz0.func_801C3708 -->
<g id="node18" class="node">
<title>nz0.func_801C3708</title>
<g id="a_node18"><a xlink:href="nz0.func_801C3708.svg" xlink:title="nz0.func_801C3708">
<ellipse fill="green" stroke="black" cx="3773.34" cy="-18" rx="102.88" ry="18"/>
<text text-anchor="middle" x="3773.34" y="-14.3" font-family="Times,serif" font-size="14.00">nz0.func_801C3708</text>
</a>
</g>
</g>
<!-- nz0.EntityBoneScimitar&#45;&gt;nz0.func_801C3708 -->
<g id="edge17" class="edge">
<title>nz0.EntityBoneScimitar&#45;&gt;nz0.func_801C3708</title>
<path fill="none" stroke="black" d="M2215.42,-188.06C2463.49,-165.96 3117.6,-105.5 3661.34,-36 3670.61,-34.82 3680.29,-33.49 3689.92,-32.1"/>
<polygon fill="black" stroke="black" points="3690.52,-35.55 3699.91,-30.65 3689.51,-28.63 3690.52,-35.55"/>
<text text-anchor="middle" x="3694.91" y="-34.45" font-family="Times,serif" font-size="14.00">1</text>
</g>
</g>
</svg>
