<?xml version="1.0" encoding="UTF-8" standalone="no"?>
<!DOCTYPE svg PUBLIC "-//W3C//DTD SVG 1.1//EN"
 "http://www.w3.org/Graphics/SVG/1.1/DTD/svg11.dtd">
<!-- Generated by graphviz version 2.43.0 (0)
 -->
<!-- Title: nz0.func_801C53AC Pages: 1 -->
<svg width="428pt" height="404pt"
 viewBox="0.00 0.00 427.83 404.00" xmlns="http://www.w3.org/2000/svg" xmlns:xlink="http://www.w3.org/1999/xlink">
<g id="graph0" class="graph" transform="scale(1 1) rotate(0) translate(4 400)">
<title>nz0.func_801C53AC</title>
<polygon fill="white" stroke="transparent" points="-4,4 -4,-400 423.83,-400 423.83,4 -4,4"/>
<!-- nz0.func_801C53AC -->
<g id="node1" class="node">
<title>nz0.func_801C53AC</title>
<ellipse fill="green" stroke="black" cx="206.49" cy="-198" rx="103.98" ry="18"/>
<text text-anchor="middle" x="206.49" y="-194.3" font-family="Times,serif" font-size="14.00">nz0.func_801C53AC</text>
</g>
<!-- nz0.UnkPolyFunc0 -->
<g id="node2" class="node">
<title>nz0.UnkPolyFunc0</title>
<g id="a_node2"><a xlink:href="nz0.UnkPolyFunc0.svg" xlink:title="nz0.UnkPolyFunc0">
<ellipse fill="green" stroke="black" cx="97.49" cy="-18" rx="97.48" ry="18"/>
<text text-anchor="middle" x="97.49" y="-14.3" font-family="Times,serif" font-size="14.00">nz0.UnkPolyFunc0</text>
</a>
</g>
</g>
<!-- nz0.func_801C53AC&#45;&gt;nz0.UnkPolyFunc0 -->
<g id="edge1" class="edge">
<title>nz0.func_801C53AC&#45;&gt;nz0.UnkPolyFunc0</title>
<path fill="none" stroke="black" d="M196.04,-179.93C176.83,-148.57 135.83,-81.6 113.23,-44.71"/>
<polygon fill="black" stroke="black" points="116.12,-42.72 107.91,-36.02 110.15,-46.37 116.12,-42.72"/>
<text text-anchor="middle" x="102.91" y="-39.82" font-family="Times,serif" font-size="14.00">1</text>
</g>
<!-- nz0.UnkPrimHelper -->
<g id="node3" class="node">
<title>nz0.UnkPrimHelper</title>
<g id="a_node3"><a xlink:href="nz0.UnkPrimHelper.svg" xlink:title="nz0.UnkPrimHelper">
<ellipse fill="green" stroke="black" cx="316.49" cy="-18" rx="103.18" ry="18"/>
<text text-anchor="middle" x="316.49" y="-14.3" font-family="Times,serif" font-size="14.00">nz0.UnkPrimHelper</text>
</a>
</g>
</g>
<!-- nz0.func_801C53AC&#45;&gt;nz0.UnkPrimHelper -->
<g id="edge2" class="edge">
<title>nz0.func_801C53AC&#45;&gt;nz0.UnkPrimHelper</title>
<path fill="none" stroke="black" d="M217.04,-179.93C236.42,-148.57 277.8,-81.6 300.6,-44.71"/>
<polygon fill="black" stroke="black" points="303.7,-46.36 305.98,-36.02 297.74,-42.68 303.7,-46.36"/>
<text text-anchor="middle" x="300.98" y="-39.82" font-family="Times,serif" font-size="14.00">1</text>
</g>
<!-- nz0.EntityBloodyZombie -->
<g id="node4" class="node">
<title>nz0.EntityBloodyZombie</title>
<g id="a_node4"><a xlink:href="nz0.EntityBloodyZombie.svg" xlink:title="nz0.EntityBloodyZombie">
<ellipse fill="green" stroke="black" cx="206.49" cy="-378" rx="125.38" ry="18"/>
<text text-anchor="middle" x="206.49" y="-374.3" font-family="Times,serif" font-size="14.00">nz0.EntityBloodyZombie</text>
</a>
</g>
</g>
<!-- nz0.EntityBloodyZombie&#45;&gt;nz0.func_801C53AC -->
<g id="edge3" class="edge">
<title>nz0.EntityBloodyZombie&#45;&gt;nz0.func_801C53AC</title>
<path fill="none" stroke="black" d="M206.49,-359.93C206.49,-328.97 206.49,-263.3 206.49,-226.13"/>
<polygon fill="black" stroke="black" points="209.99,-226.02 206.49,-216.02 202.99,-226.02 209.99,-226.02"/>
<text text-anchor="middle" x="201.49" y="-348.73" font-family="Times,serif" font-size="14.00">2</text>
</g>
</g>
</svg>
