<?xml version="1.0" encoding="UTF-8" standalone="no"?>
<!DOCTYPE svg PUBLIC "-//W3C//DTD SVG 1.1//EN"
 "http://www.w3.org/Graphics/SVG/1.1/DTD/svg11.dtd">
<!-- Generated by graphviz version 2.43.0 (0)
 -->
<!-- Title: nz0.CheckFieldCollision Pages: 1 -->
<svg width="979pt" height="404pt"
 viewBox="0.00 0.00 978.63 404.00" xmlns="http://www.w3.org/2000/svg" xmlns:xlink="http://www.w3.org/1999/xlink">
<g id="graph0" class="graph" transform="scale(1 1) rotate(0) translate(4 400)">
<title>nz0.CheckFieldCollision</title>
<polygon fill="white" stroke="transparent" points="-4,4 -4,-400 974.63,-400 974.63,4 -4,4"/>
<!-- nz0.CheckFieldCollision -->
<g id="node1" class="node">
<title>nz0.CheckFieldCollision</title>
<ellipse fill="green" stroke="black" cx="520.19" cy="-198" rx="122.38" ry="18"/>
<text text-anchor="middle" x="520.19" y="-194.3" font-family="Times,serif" font-size="14.00">nz0.CheckFieldCollision</text>
</g>
<!-- dra.CheckCollision -->
<g id="node2" class="node">
<title>dra.CheckCollision</title>
<g id="a_node2"><a xlink:href="dra.CheckCollision.svg" xlink:title="dra.CheckCollision">
<ellipse fill="green" stroke="black" cx="520.19" cy="-18" rx="97.48" ry="18"/>
<text text-anchor="middle" x="520.19" y="-14.3" font-family="Times,serif" font-size="14.00">dra.CheckCollision</text>
</a>
</g>
</g>
<!-- nz0.CheckFieldCollision&#45;&gt;dra.CheckCollision -->
<g id="edge1" class="edge">
<title>nz0.CheckFieldCollision&#45;&gt;dra.CheckCollision</title>
<path fill="none" stroke="black" d="M520.19,-179.93C520.19,-148.97 520.19,-83.3 520.19,-46.13"/>
<polygon fill="black" stroke="black" points="523.69,-46.02 520.19,-36.02 516.69,-46.02 523.69,-46.02"/>
<text text-anchor="middle" x="515.19" y="-39.82" font-family="Times,serif" font-size="14.00">1</text>
</g>
<!-- nz0.EntityBoneScimitar -->
<g id="node3" class="node">
<title>nz0.EntityBoneScimitar</title>
<g id="a_node3"><a xlink:href="nz0.EntityBoneScimitar.svg" xlink:title="nz0.EntityBoneScimitar">
<ellipse fill="green" stroke="black" cx="122.19" cy="-378" rx="122.38" ry="18"/>
<text text-anchor="middle" x="122.19" y="-374.3" font-family="Times,serif" font-size="14.00">nz0.EntityBoneScimitar</text>
</a>
</g>
</g>
<!-- nz0.EntityBoneScimitar&#45;&gt;nz0.CheckFieldCollision -->
<g id="edge2" class="edge">
<title>nz0.EntityBoneScimitar&#45;&gt;nz0.CheckFieldCollision</title>
<path fill="none" stroke="black" d="M158.56,-360.73C231.31,-328.2 394.58,-255.18 474.44,-219.46"/>
<polygon fill="black" stroke="black" points="476.06,-222.57 483.76,-215.29 473.2,-216.18 476.06,-222.57"/>
<text text-anchor="middle" x="153.56" y="-349.53" font-family="Times,serif" font-size="14.00">1</text>
</g>
<!-- nz0.EntityEquipItemDrop -->
<g id="node4" class="node">
<title>nz0.EntityEquipItemDrop</title>
<g id="a_node4"><a xlink:href="nz0.EntityEquipItemDrop.svg" xlink:title="nz0.EntityEquipItemDrop">
<ellipse fill="green" stroke="black" cx="393.19" cy="-378" rx="130.78" ry="18"/>
<text text-anchor="middle" x="393.19" y="-374.3" font-family="Times,serif" font-size="14.00">nz0.EntityEquipItemDrop</text>
</a>
</g>
</g>
<!-- nz0.EntityEquipItemDrop&#45;&gt;nz0.CheckFieldCollision -->
<g id="edge3" class="edge">
<title>nz0.EntityEquipItemDrop&#45;&gt;nz0.CheckFieldCollision</title>
<path fill="none" stroke="black" d="M405.37,-359.93C427.84,-328.43 475.93,-261.03 502.18,-224.24"/>
<polygon fill="black" stroke="black" points="505.09,-226.19 508.05,-216.02 499.39,-222.12 505.09,-226.19"/>
<text text-anchor="middle" x="400.37" y="-348.73" font-family="Times,serif" font-size="14.00">1</text>
</g>
<!-- nz0.EntityPrizeDrop -->
<g id="node5" class="node">
<title>nz0.EntityPrizeDrop</title>
<g id="a_node5"><a xlink:href="nz0.EntityPrizeDrop.svg" xlink:title="nz0.EntityPrizeDrop">
<ellipse fill="green" stroke="black" cx="648.19" cy="-378" rx="105.88" ry="18"/>
<text text-anchor="middle" x="648.19" y="-374.3" font-family="Times,serif" font-size="14.00">nz0.EntityPrizeDrop</text>
</a>
</g>
</g>
<!-- nz0.EntityPrizeDrop&#45;&gt;nz0.CheckFieldCollision -->
<g id="edge4" class="edge">
<title>nz0.EntityPrizeDrop&#45;&gt;nz0.CheckFieldCollision</title>
<path fill="none" stroke="black" d="M635.92,-359.93C613.27,-328.43 564.8,-261.03 538.34,-224.24"/>
<polygon fill="black" stroke="black" points="541.11,-222.09 532.43,-216.02 535.42,-226.18 541.11,-222.09"/>
<text text-anchor="middle" x="630.92" y="-348.73" font-family="Times,serif" font-size="14.00">2</text>
</g>
<!-- nz0.EntitySkeleton -->
<g id="node6" class="node">
<title>nz0.EntitySkeleton</title>
<g id="a_node6"><a xlink:href="nz0.EntitySkeleton.svg" xlink:title="nz0.EntitySkeleton">
<ellipse fill="green" stroke="black" cx="871.19" cy="-378" rx="99.38" ry="18"/>
<text text-anchor="middle" x="871.19" y="-374.3" font-family="Times,serif" font-size="14.00">nz0.EntitySkeleton</text>
</a>
</g>
</g>
<!-- nz0.EntitySkeleton&#45;&gt;nz0.CheckFieldCollision -->
<g id="edge5" class="edge">
<title>nz0.EntitySkeleton&#45;&gt;nz0.CheckFieldCollision</title>
<path fill="none" stroke="black" d="M839.42,-360.89C775.79,-328.62 632.74,-256.08 561.76,-220.08"/>
<polygon fill="black" stroke="black" points="563.15,-216.86 552.65,-215.46 559.98,-223.1 563.15,-216.86"/>
<text text-anchor="middle" x="834.42" y="-349.69" font-family="Times,serif" font-size="14.00">1</text>
</g>
</g>
</svg>
