<?xml version="1.0" encoding="UTF-8" standalone="no"?>
<!DOCTYPE svg PUBLIC "-//W3C//DTD SVG 1.1//EN"
 "http://www.w3.org/Graphics/SVG/1.1/DTD/svg11.dtd">
<!-- Generated by graphviz version 2.43.0 (0)
 -->
<!-- Title: nz0.BottomCornerText Pages: 1 -->
<svg width="663pt" height="404pt"
 viewBox="0.00 0.00 662.73 404.00" xmlns="http://www.w3.org/2000/svg" xmlns:xlink="http://www.w3.org/1999/xlink">
<g id="graph0" class="graph" transform="scale(1 1) rotate(0) translate(4 400)">
<title>nz0.BottomCornerText</title>
<polygon fill="white" stroke="transparent" points="-4,4 -4,-400 658.73,-400 658.73,4 -4,4"/>
<!-- nz0.BottomCornerText -->
<g id="node1" class="node">
<title>nz0.BottomCornerText</title>
<ellipse fill="green" stroke="black" cx="315.84" cy="-198" rx="116.18" ry="18"/>
<text text-anchor="middle" x="315.84" y="-194.3" font-family="Times,serif" font-size="14.00">nz0.BottomCornerText</text>
</g>
<!-- dra.AllocPrimitives -->
<g id="node2" class="node">
<title>dra.AllocPrimitives</title>
<g id="a_node2"><a xlink:href="dra.AllocPrimitives.svg" xlink:title="dra.AllocPrimitives">
<ellipse fill="green" stroke="black" cx="315.84" cy="-18" rx="99.38" ry="18"/>
<text text-anchor="middle" x="315.84" y="-14.3" font-family="Times,serif" font-size="14.00">dra.AllocPrimitives</text>
</a>
</g>
</g>
<!-- nz0.BottomCornerText&#45;&gt;dra.AllocPrimitives -->
<g id="edge1" class="edge">
<title>nz0.BottomCornerText&#45;&gt;dra.AllocPrimitives</title>
<path fill="none" stroke="black" d="M315.84,-179.93C315.84,-148.97 315.84,-83.3 315.84,-46.13"/>
<polygon fill="black" stroke="black" points="319.34,-46.02 315.84,-36.02 312.34,-46.02 319.34,-46.02"/>
<text text-anchor="middle" x="310.84" y="-39.82" font-family="Times,serif" font-size="14.00">1</text>
</g>
<!-- nz0.CollectGold -->
<g id="node3" class="node">
<title>nz0.CollectGold</title>
<g id="a_node3"><a xlink:href="nz0.CollectGold.svg" xlink:title="nz0.CollectGold">
<ellipse fill="green" stroke="black" cx="83.84" cy="-378" rx="83.69" ry="18"/>
<text text-anchor="middle" x="83.84" y="-374.3" font-family="Times,serif" font-size="14.00">nz0.CollectGold</text>
</a>
</g>
</g>
<!-- nz0.CollectGold&#45;&gt;nz0.BottomCornerText -->
<g id="edge2" class="edge">
<title>nz0.CollectGold&#45;&gt;nz0.BottomCornerText</title>
<path fill="none" stroke="black" d="M105.25,-360.57C146.73,-328.75 238.15,-258.61 285.73,-222.1"/>
<polygon fill="black" stroke="black" points="288,-224.77 293.81,-215.91 283.74,-219.22 288,-224.77"/>
<text text-anchor="middle" x="100.25" y="-349.37" font-family="Times,serif" font-size="14.00">1</text>
</g>
<!-- nz0.EntityEquipItemDrop -->
<g id="node4" class="node">
<title>nz0.EntityEquipItemDrop</title>
<g id="a_node4"><a xlink:href="nz0.EntityEquipItemDrop.svg" xlink:title="nz0.EntityEquipItemDrop">
<ellipse fill="green" stroke="black" cx="315.84" cy="-378" rx="130.78" ry="18"/>
<text text-anchor="middle" x="315.84" y="-374.3" font-family="Times,serif" font-size="14.00">nz0.EntityEquipItemDrop</text>
</a>
</g>
</g>
<!-- nz0.EntityEquipItemDrop&#45;&gt;nz0.BottomCornerText -->
<g id="edge3" class="edge">
<title>nz0.EntityEquipItemDrop&#45;&gt;nz0.BottomCornerText</title>
<path fill="none" stroke="black" d="M315.84,-359.93C315.84,-328.97 315.84,-263.3 315.84,-226.13"/>
<polygon fill="black" stroke="black" points="319.34,-226.02 315.84,-216.02 312.34,-226.02 319.34,-226.02"/>
<text text-anchor="middle" x="310.84" y="-348.73" font-family="Times,serif" font-size="14.00">1</text>
</g>
<!-- nz0.TestCollisions -->
<g id="node5" class="node">
<title>nz0.TestCollisions</title>
<g id="a_node5"><a xlink:href="nz0.TestCollisions.svg" xlink:title="nz0.TestCollisions">
<ellipse fill="red" stroke="black" cx="559.84" cy="-378" rx="94.78" ry="18"/>
<text text-anchor="middle" x="559.84" y="-374.3" font-family="Times,serif" font-size="14.00">nz0.TestCollisions</text>
</a>
</g>
</g>
<!-- nz0.TestCollisions&#45;&gt;nz0.BottomCornerText -->
<g id="edge4" class="edge">
<title>nz0.TestCollisions&#45;&gt;nz0.BottomCornerText</title>
<path fill="none" stroke="black" d="M536.89,-360.25C492.93,-328.18 396.81,-258.07 347.06,-221.78"/>
<polygon fill="black" stroke="black" points="349.06,-218.9 338.91,-215.83 344.93,-224.55 349.06,-218.9"/>
<text text-anchor="middle" x="531.89" y="-349.05" font-family="Times,serif" font-size="14.00">1</text>
</g>
</g>
</svg>
