<?xml version="1.0" encoding="UTF-8" standalone="no"?>
<!DOCTYPE svg PUBLIC "-//W3C//DTD SVG 1.1//EN"
 "http://www.w3.org/Graphics/SVG/1.1/DTD/svg11.dtd">
<!-- Generated by graphviz version 2.43.0 (0)
 -->
<!-- Title: nz0.UnkCollisionFunc3 Pages: 1 -->
<svg width="1688pt" height="404pt"
 viewBox="0.00 0.00 1687.98 404.00" xmlns="http://www.w3.org/2000/svg" xmlns:xlink="http://www.w3.org/1999/xlink">
<g id="graph0" class="graph" transform="scale(1 1) rotate(0) translate(4 400)">
<title>nz0.UnkCollisionFunc3</title>
<polygon fill="white" stroke="transparent" points="-4,4 -4,-400 1683.98,-400 1683.98,4 -4,4"/>
<!-- nz0.UnkCollisionFunc3 -->
<g id="node1" class="node">
<title>nz0.UnkCollisionFunc3</title>
<ellipse fill="green" stroke="black" cx="894.24" cy="-198" rx="118.08" ry="18"/>
<text text-anchor="middle" x="894.24" y="-194.3" font-family="Times,serif" font-size="14.00">nz0.UnkCollisionFunc3</text>
</g>
<!-- dra.CheckCollision -->
<g id="node2" class="node">
<title>dra.CheckCollision</title>
<g id="a_node2"><a xlink:href="dra.CheckCollision.svg" xlink:title="dra.CheckCollision">
<ellipse fill="green" stroke="black" cx="570.24" cy="-18" rx="97.48" ry="18"/>
<text text-anchor="middle" x="570.24" y="-14.3" font-family="Times,serif" font-size="14.00">dra.CheckCollision</text>
</a>
</g>
</g>
<!-- nz0.UnkCollisionFunc3&#45;&gt;dra.CheckCollision -->
<g id="edge1" class="edge">
<title>nz0.UnkCollisionFunc3&#45;&gt;dra.CheckCollision</title>
<path fill="none" stroke="black" d="M864.34,-180.57C805.39,-148.19 674.23,-76.13 608.84,-40.21"/>
<polygon fill="black" stroke="black" points="610.52,-37.13 600.07,-35.39 607.15,-43.27 610.52,-37.13"/>
<text text-anchor="middle" x="595.07" y="-39.19" font-family="Times,serif" font-size="14.00">1</text>
</g>
<!-- g_api_CheckCollision -->
<g id="node3" class="node">
<title>g_api_CheckCollision</title>
<g id="a_node3"><a xlink:href="g_api_CheckCollision.svg" xlink:title="g_api_CheckCollision">
<ellipse fill="lightblue" stroke="black" cx="793.24" cy="-18" rx="107.78" ry="18"/>
<text text-anchor="middle" x="793.24" y="-14.3" font-family="Times,serif" font-size="14.00">g_api_CheckCollision</text>
</a>
</g>
</g>
<!-- nz0.UnkCollisionFunc3&#45;&gt;g_api_CheckCollision -->
<g id="edge2" class="edge">
<title>nz0.UnkCollisionFunc3&#45;&gt;g_api_CheckCollision</title>
<path fill="none" stroke="black" d="M884.56,-179.93C866.83,-148.7 829.08,-82.17 808.09,-45.18"/>
<polygon fill="black" stroke="black" points="810.87,-42.99 802.9,-36.02 804.79,-46.44 810.87,-42.99"/>
<text text-anchor="middle" x="797.9" y="-39.82" font-family="Times,serif" font-size="14.00">2</text>
</g>
<!-- nz0.FallEntity -->
<g id="node4" class="node">
<title>nz0.FallEntity</title>
<g id="a_node4"><a xlink:href="nz0.FallEntity.svg" xlink:title="nz0.FallEntity">
<ellipse fill="green" stroke="black" cx="995.24" cy="-18" rx="76.09" ry="18"/>
<text text-anchor="middle" x="995.24" y="-14.3" font-family="Times,serif" font-size="14.00">nz0.FallEntity</text>
</a>
</g>
</g>
<!-- nz0.UnkCollisionFunc3&#45;&gt;nz0.FallEntity -->
<g id="edge3" class="edge">
<title>nz0.UnkCollisionFunc3&#45;&gt;nz0.FallEntity</title>
<path fill="none" stroke="black" d="M903.92,-179.93C921.65,-148.7 959.4,-82.17 980.39,-45.18"/>
<polygon fill="black" stroke="black" points="983.69,-46.44 985.59,-36.02 977.61,-42.99 983.69,-46.44"/>
<text text-anchor="middle" x="980.59" y="-39.82" font-family="Times,serif" font-size="14.00">1</text>
</g>
<!-- nz0.MoveEntity -->
<g id="node5" class="node">
<title>nz0.MoveEntity</title>
<g id="a_node5"><a xlink:href="nz0.MoveEntity.svg" xlink:title="nz0.MoveEntity">
<ellipse fill="green" stroke="black" cx="1174.24" cy="-18" rx="84.49" ry="18"/>
<text text-anchor="middle" x="1174.24" y="-14.3" font-family="Times,serif" font-size="14.00">nz0.MoveEntity</text>
</a>
</g>
</g>
<!-- nz0.UnkCollisionFunc3&#45;&gt;nz0.MoveEntity -->
<g id="edge4" class="edge">
<title>nz0.UnkCollisionFunc3&#45;&gt;nz0.MoveEntity</title>
<path fill="none" stroke="black" d="M920.33,-180.41C971.1,-148.14 1083.18,-76.89 1139.91,-40.83"/>
<polygon fill="black" stroke="black" points="1141.96,-43.67 1148.52,-35.35 1138.2,-37.76 1141.96,-43.67"/>
<text text-anchor="middle" x="1143.52" y="-39.15" font-family="Times,serif" font-size="14.00">1</text>
</g>
<!-- nz0.EntityAxeKnight -->
<g id="node6" class="node">
<title>nz0.EntityAxeKnight</title>
<g id="a_node6"><a xlink:href="nz0.EntityAxeKnight.svg" xlink:title="nz0.EntityAxeKnight">
<ellipse fill="green" stroke="black" cx="107.24" cy="-378" rx="107.48" ry="18"/>
<text text-anchor="middle" x="107.24" y="-374.3" font-family="Times,serif" font-size="14.00">nz0.EntityAxeKnight</text>
</a>
</g>
</g>
<!-- nz0.EntityAxeKnight&#45;&gt;nz0.UnkCollisionFunc3 -->
<g id="edge5" class="edge">
<title>nz0.EntityAxeKnight&#45;&gt;nz0.UnkCollisionFunc3</title>
<path fill="none" stroke="black" d="M168.34,-363.18C311.38,-330.83 667.48,-250.29 821.43,-215.47"/>
<polygon fill="black" stroke="black" points="822.29,-218.86 831.27,-213.24 820.75,-212.03 822.29,-218.86"/>
<text text-anchor="middle" x="163.34" y="-351.98" font-family="Times,serif" font-size="14.00">1</text>
</g>
<!-- nz0.EntityBloodSkeleton -->
<g id="node7" class="node">
<title>nz0.EntityBloodSkeleton</title>
<g id="a_node7"><a xlink:href="nz0.EntityBloodSkeleton.svg" xlink:title="nz0.EntityBloodSkeleton">
<ellipse fill="green" stroke="black" cx="358.24" cy="-378" rx="126.18" ry="18"/>
<text text-anchor="middle" x="358.24" y="-374.3" font-family="Times,serif" font-size="14.00">nz0.EntityBloodSkeleton</text>
</a>
</g>
</g>
<!-- nz0.EntityBloodSkeleton&#45;&gt;nz0.UnkCollisionFunc3 -->
<g id="edge6" class="edge">
<title>nz0.EntityBloodSkeleton&#45;&gt;nz0.UnkCollisionFunc3</title>
<path fill="none" stroke="black" d="M405.81,-361.2C504.57,-328.41 731.47,-253.06 837.59,-217.81"/>
<polygon fill="black" stroke="black" points="838.78,-221.11 847.16,-214.63 836.57,-214.46 838.78,-221.11"/>
<text text-anchor="middle" x="400.81" y="-350" font-family="Times,serif" font-size="14.00">1</text>
</g>
<!-- nz0.EntityBloodyZombie -->
<g id="node8" class="node">
<title>nz0.EntityBloodyZombie</title>
<g id="a_node8"><a xlink:href="nz0.EntityBloodyZombie.svg" xlink:title="nz0.EntityBloodyZombie">
<ellipse fill="green" stroke="black" cx="628.24" cy="-378" rx="125.38" ry="18"/>
<text text-anchor="middle" x="628.24" y="-374.3" font-family="Times,serif" font-size="14.00">nz0.EntityBloodyZombie</text>
</a>
</g>
</g>
<!-- nz0.EntityBloodyZombie&#45;&gt;nz0.UnkCollisionFunc3 -->
<g id="edge7" class="edge">
<title>nz0.EntityBloodyZombie&#45;&gt;nz0.UnkCollisionFunc3</title>
<path fill="none" stroke="black" d="M653.27,-360.25C701.29,-328.12 806.4,-257.78 860.54,-221.55"/>
<polygon fill="black" stroke="black" points="862.72,-224.3 869.09,-215.83 858.83,-218.48 862.72,-224.3"/>
<text text-anchor="middle" x="648.27" y="-349.05" font-family="Times,serif" font-size="14.00">1</text>
</g>
<!-- nz0.EntityBoneScimitar -->
<g id="node9" class="node">
<title>nz0.EntityBoneScimitar</title>
<g id="a_node9"><a xlink:href="nz0.EntityBoneScimitar.svg" xlink:title="nz0.EntityBoneScimitar">
<ellipse fill="green" stroke="black" cx="894.24" cy="-378" rx="122.38" ry="18"/>
<text text-anchor="middle" x="894.24" y="-374.3" font-family="Times,serif" font-size="14.00">nz0.EntityBoneScimitar</text>
</a>
</g>
</g>
<!-- nz0.EntityBoneScimitar&#45;&gt;nz0.UnkCollisionFunc3 -->
<g id="edge8" class="edge">
<title>nz0.EntityBoneScimitar&#45;&gt;nz0.UnkCollisionFunc3</title>
<path fill="none" stroke="black" d="M894.24,-359.93C894.24,-328.97 894.24,-263.3 894.24,-226.13"/>
<polygon fill="black" stroke="black" points="897.74,-226.02 894.24,-216.02 890.74,-226.02 897.74,-226.02"/>
<text text-anchor="middle" x="889.24" y="-348.73" font-family="Times,serif" font-size="14.00">2</text>
</g>
<!-- nz0.EntityGaibon -->
<g id="node10" class="node">
<title>nz0.EntityGaibon</title>
<g id="a_node10"><a xlink:href="nz0.EntityGaibon.svg" xlink:title="nz0.EntityGaibon">
<ellipse fill="green" stroke="black" cx="1126.24" cy="-378" rx="91.78" ry="18"/>
<text text-anchor="middle" x="1126.24" y="-374.3" font-family="Times,serif" font-size="14.00">nz0.EntityGaibon</text>
</a>
</g>
</g>
<!-- nz0.EntityGaibon&#45;&gt;nz0.UnkCollisionFunc3 -->
<g id="edge9" class="edge">
<title>nz0.EntityGaibon&#45;&gt;nz0.UnkCollisionFunc3</title>
<path fill="none" stroke="black" d="M1104.41,-360.25C1062.7,-328.25 971.6,-258.36 924.22,-222"/>
<polygon fill="black" stroke="black" points="926.24,-219.14 916.18,-215.83 921.98,-224.7 926.24,-219.14"/>
<text text-anchor="middle" x="1099.41" y="-349.05" font-family="Times,serif" font-size="14.00">1</text>
</g>
<!-- nz0.EntitySkeleton -->
<g id="node11" class="node">
<title>nz0.EntitySkeleton</title>
<g id="a_node11"><a xlink:href="nz0.EntitySkeleton.svg" xlink:title="nz0.EntitySkeleton">
<ellipse fill="green" stroke="black" cx="1335.24" cy="-378" rx="99.38" ry="18"/>
<text text-anchor="middle" x="1335.24" y="-374.3" font-family="Times,serif" font-size="14.00">nz0.EntitySkeleton</text>
</a>
</g>
</g>
<!-- nz0.EntitySkeleton&#45;&gt;nz0.UnkCollisionFunc3 -->
<g id="edge10" class="edge">
<title>nz0.EntitySkeleton&#45;&gt;nz0.UnkCollisionFunc3</title>
<path fill="none" stroke="black" d="M1296.49,-361.36C1216.19,-328.95 1031.73,-254.49 943.29,-218.8"/>
<polygon fill="black" stroke="black" points="944.59,-215.55 934.01,-215.05 941.97,-222.04 944.59,-215.55"/>
<text text-anchor="middle" x="1291.49" y="-350.16" font-family="Times,serif" font-size="14.00">2</text>
</g>
<!-- nz0.EntitySpittleBone -->
<g id="node12" class="node">
<title>nz0.EntitySpittleBone</title>
<g id="a_node12"><a xlink:href="nz0.EntitySpittleBone.svg" xlink:title="nz0.EntitySpittleBone">
<ellipse fill="green" stroke="black" cx="1566.24" cy="-378" rx="113.98" ry="18"/>
<text text-anchor="middle" x="1566.24" y="-374.3" font-family="Times,serif" font-size="14.00">nz0.EntitySpittleBone</text>
</a>
</g>
</g>
<!-- nz0.EntitySpittleBone&#45;&gt;nz0.UnkCollisionFunc3 -->
<g id="edge11" class="edge">
<title>nz0.EntitySpittleBone&#45;&gt;nz0.UnkCollisionFunc3</title>
<path fill="none" stroke="black" d="M1510.68,-362.28C1387.63,-329.69 1092.6,-251.54 960.34,-216.51"/>
<polygon fill="black" stroke="black" points="960.91,-213.04 950.34,-213.86 959.11,-219.8 960.91,-213.04"/>
<text text-anchor="middle" x="1505.68" y="-351.08" font-family="Times,serif" font-size="14.00">1</text>
</g>
</g>
</svg>
