<?xml version="1.0" encoding="UTF-8" standalone="no"?>
<!DOCTYPE svg PUBLIC "-//W3C//DTD SVG 1.1//EN"
 "http://www.w3.org/Graphics/SVG/1.1/DTD/svg11.dtd">
<!-- Generated by graphviz version 2.43.0 (0)
 -->
<!-- Title: nz0.AllocEntity Pages: 1 -->
<svg width="7303pt" height="404pt"
 viewBox="0.00 0.00 7303.03 404.00" xmlns="http://www.w3.org/2000/svg" xmlns:xlink="http://www.w3.org/1999/xlink">
<g id="graph0" class="graph" transform="scale(1 1) rotate(0) translate(4 400)">
<title>nz0.AllocEntity</title>
<polygon fill="white" stroke="transparent" points="-4,4 -4,-400 7299.03,-400 7299.03,4 -4,4"/>
<!-- nz0.AllocEntity -->
<g id="node1" class="node">
<title>nz0.AllocEntity</title>
<ellipse fill="green" stroke="black" cx="3761.09" cy="-198" rx="81.49" ry="18"/>
<text text-anchor="middle" x="3761.09" y="-194.3" font-family="Times,serif" font-size="14.00">nz0.AllocEntity</text>
</g>
<!-- nz0.DestroyEntity -->
<g id="node2" class="node">
<title>nz0.DestroyEntity</title>
<g id="a_node2"><a xlink:href="nz0.DestroyEntity.svg" xlink:title="nz0.DestroyEntity">
<ellipse fill="green" stroke="black" cx="3761.09" cy="-18" rx="95.58" ry="18"/>
<text text-anchor="middle" x="3761.09" y="-14.3" font-family="Times,serif" font-size="14.00">nz0.DestroyEntity</text>
</a>
</g>
</g>
<!-- nz0.AllocEntity&#45;&gt;nz0.DestroyEntity -->
<g id="edge1" class="edge">
<title>nz0.AllocEntity&#45;&gt;nz0.DestroyEntity</title>
<path fill="none" stroke="black" d="M3761.09,-179.93C3761.09,-148.97 3761.09,-83.3 3761.09,-46.13"/>
<polygon fill="black" stroke="black" points="3764.59,-46.02 3761.09,-36.02 3757.59,-46.02 3764.59,-46.02"/>
<text text-anchor="middle" x="3756.09" y="-39.82" font-family="Times,serif" font-size="14.00">1</text>
</g>
<!-- nz0.AxeKnightUnkFunc1 -->
<g id="node3" class="node">
<title>nz0.AxeKnightUnkFunc1</title>
<g id="a_node3"><a xlink:href="nz0.AxeKnightUnkFunc1.svg" xlink:title="nz0.AxeKnightUnkFunc1">
<ellipse fill="green" stroke="black" cx="126.09" cy="-378" rx="126.18" ry="18"/>
<text text-anchor="middle" x="126.09" y="-374.3" font-family="Times,serif" font-size="14.00">nz0.AxeKnightUnkFunc1</text>
</a>
</g>
</g>
<!-- nz0.AxeKnightUnkFunc1&#45;&gt;nz0.AllocEntity -->
<g id="edge2" class="edge">
<title>nz0.AxeKnightUnkFunc1&#45;&gt;nz0.AllocEntity</title>
<path fill="none" stroke="black" d="M213.77,-365.01C229.82,-363.11 246.44,-361.34 262.09,-360 1614.85,-244.51 3269.39,-208.01 3670.43,-200.56"/>
<polygon fill="black" stroke="black" points="3670.59,-204.06 3680.52,-200.37 3670.46,-197.06 3670.59,-204.06"/>
<text text-anchor="middle" x="208.77" y="-353.81" font-family="Times,serif" font-size="14.00">1</text>
</g>
<!-- nz0.CreateExplosionPuff -->
<g id="node4" class="node">
<title>nz0.CreateExplosionPuff</title>
<g id="a_node4"><a xlink:href="nz0.CreateExplosionPuff.svg" xlink:title="nz0.CreateExplosionPuff">
<ellipse fill="green" stroke="black" cx="396.09" cy="-378" rx="125.38" ry="18"/>
<text text-anchor="middle" x="396.09" y="-374.3" font-family="Times,serif" font-size="14.00">nz0.CreateExplosionPuff</text>
</a>
</g>
</g>
<!-- nz0.CreateExplosionPuff&#45;&gt;nz0.AllocEntity -->
<g id="edge3" class="edge">
<title>nz0.CreateExplosionPuff&#45;&gt;nz0.AllocEntity</title>
<path fill="none" stroke="black" d="M483.49,-365.02C499.31,-363.13 515.68,-361.35 531.09,-360 1772.28,-251.07 3288.75,-210.01 3670.57,-201.01"/>
<polygon fill="black" stroke="black" points="3670.81,-204.5 3680.72,-200.77 3670.64,-197.51 3670.81,-204.5"/>
<text text-anchor="middle" x="478.49" y="-353.82" font-family="Times,serif" font-size="14.00">1</text>
</g>
<!-- nz0.EntityAxeKnight -->
<g id="node5" class="node">
<title>nz0.EntityAxeKnight</title>
<g id="a_node5"><a xlink:href="nz0.EntityAxeKnight.svg" xlink:title="nz0.EntityAxeKnight">
<ellipse fill="green" stroke="black" cx="647.09" cy="-378" rx="107.48" ry="18"/>
<text text-anchor="middle" x="647.09" y="-374.3" font-family="Times,serif" font-size="14.00">nz0.EntityAxeKnight</text>
</a>
</g>
</g>
<!-- nz0.EntityAxeKnight&#45;&gt;nz0.AllocEntity -->
<g id="edge4" class="edge">
<title>nz0.EntityAxeKnight&#45;&gt;nz0.AllocEntity</title>
<path fill="none" stroke="black" d="M722.18,-365.06C736.08,-363.14 750.51,-361.35 764.09,-360 1907.76,-246.43 3305.47,-209.05 3670.47,-200.87"/>
<polygon fill="black" stroke="black" points="3670.79,-204.37 3680.71,-200.64 3670.63,-197.37 3670.79,-204.37"/>
<text text-anchor="middle" x="717.18" y="-353.86" font-family="Times,serif" font-size="14.00">4</text>
</g>
<!-- nz0.EntityBloodyZombie -->
<g id="node6" class="node">
<title>nz0.EntityBloodyZombie</title>
<g id="a_node6"><a xlink:href="nz0.EntityBloodyZombie.svg" xlink:title="nz0.EntityBloodyZombie">
<ellipse fill="green" stroke="black" cx="898.09" cy="-378" rx="125.38" ry="18"/>
<text text-anchor="middle" x="898.09" y="-374.3" font-family="Times,serif" font-size="14.00">nz0.EntityBloodyZombie</text>
</a>
</g>
</g>
<!-- nz0.EntityBloodyZombie&#45;&gt;nz0.AllocEntity -->
<g id="edge5" class="edge">
<title>nz0.EntityBloodyZombie&#45;&gt;nz0.AllocEntity</title>
<path fill="none" stroke="black" d="M985.87,-365.09C1001.57,-363.2 1017.8,-361.41 1033.09,-360 2067.57,-264.45 3328.27,-214.56 3671.32,-202.13"/>
<polygon fill="black" stroke="black" points="3671.57,-205.63 3681.44,-201.77 3671.32,-198.63 3671.57,-205.63"/>
<text text-anchor="middle" x="980.87" y="-353.89" font-family="Times,serif" font-size="14.00">5</text>
</g>
<!-- nz0.EntityBoneScimitar -->
<g id="node7" class="node">
<title>nz0.EntityBoneScimitar</title>
<g id="a_node7"><a xlink:href="nz0.EntityBoneScimitar.svg" xlink:title="nz0.EntityBoneScimitar">
<ellipse fill="green" stroke="black" cx="1164.09" cy="-378" rx="122.38" ry="18"/>
<text text-anchor="middle" x="1164.09" y="-374.3" font-family="Times,serif" font-size="14.00">nz0.EntityBoneScimitar</text>
</a>
</g>
</g>
<!-- nz0.EntityBoneScimitar&#45;&gt;nz0.AllocEntity -->
<g id="edge6" class="edge">
<title>nz0.EntityBoneScimitar&#45;&gt;nz0.AllocEntity</title>
<path fill="none" stroke="black" d="M1249.62,-365.1C1264.75,-363.23 1280.37,-361.43 1295.09,-360 2222.32,-269.66 3350.77,-216.74 3671.98,-202.76"/>
<polygon fill="black" stroke="black" points="3672.32,-206.25 3682.15,-202.32 3672.01,-199.25 3672.32,-206.25"/>
<text text-anchor="middle" x="1244.62" y="-353.9" font-family="Times,serif" font-size="14.00">1</text>
</g>
<!-- nz0.EntityBossFightManager -->
<g id="node8" class="node">
<title>nz0.EntityBossFightManager</title>
<g id="a_node8"><a xlink:href="nz0.EntityBossFightManager.svg" xlink:title="nz0.EntityBossFightManager">
<ellipse fill="green" stroke="black" cx="1452.09" cy="-378" rx="147.57" ry="18"/>
<text text-anchor="middle" x="1452.09" y="-374.3" font-family="Times,serif" font-size="14.00">nz0.EntityBossFightManager</text>
</a>
</g>
</g>
<!-- nz0.EntityBossFightManager&#45;&gt;nz0.AllocEntity -->
<g id="edge7" class="edge">
<title>nz0.EntityBossFightManager&#45;&gt;nz0.AllocEntity</title>
<path fill="none" stroke="black" d="M1556.34,-365.22C1573.94,-363.37 1592.02,-361.56 1609.09,-360 2410.14,-286.69 3381.24,-223.1 3673.69,-204.49"/>
<polygon fill="black" stroke="black" points="3674.05,-207.98 3683.81,-203.85 3673.61,-200.99 3674.05,-207.98"/>
<text text-anchor="middle" x="1551.34" y="-354.02" font-family="Times,serif" font-size="14.00">1</text>
</g>
<!-- nz0.EntityBottomSecretRoomFloor -->
<g id="node9" class="node">
<title>nz0.EntityBottomSecretRoomFloor</title>
<g id="a_node9"><a xlink:href="nz0.EntityBottomSecretRoomFloor.svg" xlink:title="nz0.EntityBottomSecretRoomFloor">
<ellipse fill="green" stroke="black" cx="1792.09" cy="-378" rx="174.37" ry="18"/>
<text text-anchor="middle" x="1792.09" y="-374.3" font-family="Times,serif" font-size="14.00">nz0.EntityBottomSecretRoomFloor</text>
</a>
</g>
</g>
<!-- nz0.EntityBottomSecretRoomFloor&#45;&gt;nz0.AllocEntity -->
<g id="edge8" class="edge">
<title>nz0.EntityBottomSecretRoomFloor&#45;&gt;nz0.AllocEntity</title>
<path fill="none" stroke="black" d="M1916.61,-365.39C1936.18,-363.57 1956.18,-361.73 1975.09,-360 2630.25,-300.04 3420.76,-229.36 3676.74,-206.52"/>
<polygon fill="black" stroke="black" points="3677.43,-209.97 3687.08,-205.6 3676.8,-203 3677.43,-209.97"/>
<text text-anchor="middle" x="1911.61" y="-354.19" font-family="Times,serif" font-size="14.00">1</text>
</g>
<!-- nz0.EntityBreakableNZ0 -->
<g id="node10" class="node">
<title>nz0.EntityBreakableNZ0</title>
<g id="a_node10"><a xlink:href="nz0.EntityBreakableNZ0.svg" xlink:title="nz0.EntityBreakableNZ0">
<ellipse fill="green" stroke="black" cx="2110.09" cy="-378" rx="126.18" ry="18"/>
<text text-anchor="middle" x="2110.09" y="-374.3" font-family="Times,serif" font-size="14.00">nz0.EntityBreakableNZ0</text>
</a>
</g>
</g>
<!-- nz0.EntityBreakableNZ0&#45;&gt;nz0.AllocEntity -->
<g id="edge9" class="edge">
<title>nz0.EntityBreakableNZ0&#45;&gt;nz0.AllocEntity</title>
<path fill="none" stroke="black" d="M2200.47,-365.37C2215.37,-363.53 2230.66,-361.67 2245.09,-360 2791.43,-296.6 3449.73,-230.04 3678.22,-207.23"/>
<polygon fill="black" stroke="black" points="3678.85,-210.68 3688.45,-206.21 3678.15,-203.72 3678.85,-210.68"/>
<text text-anchor="middle" x="2195.47" y="-354.17" font-family="Times,serif" font-size="14.00">1</text>
</g>
<!-- nz0.EntityCannon -->
<g id="node11" class="node">
<title>nz0.EntityCannon</title>
<g id="a_node11"><a xlink:href="nz0.EntityCannon.svg" xlink:title="nz0.EntityCannon">
<ellipse fill="green" stroke="black" cx="2348.09" cy="-378" rx="94.48" ry="18"/>
<text text-anchor="middle" x="2348.09" y="-374.3" font-family="Times,serif" font-size="14.00">nz0.EntityCannon</text>
</a>
</g>
</g>
<!-- nz0.EntityCannon&#45;&gt;nz0.AllocEntity -->
<g id="edge10" class="edge">
<title>nz0.EntityCannon&#45;&gt;nz0.AllocEntity</title>
<path fill="none" stroke="black" d="M2415.62,-365.44C2427.43,-363.54 2439.61,-361.65 2451.09,-360 2915.01,-293.24 3473.9,-230.38 3679.83,-207.81"/>
<polygon fill="black" stroke="black" points="3680.39,-211.27 3689.95,-206.7 3679.63,-204.31 3680.39,-211.27"/>
<text text-anchor="middle" x="2410.62" y="-354.24" font-family="Times,serif" font-size="14.00">1</text>
</g>
<!-- nz0.EntityCannonShot -->
<g id="node12" class="node">
<title>nz0.EntityCannonShot</title>
<g id="a_node12"><a xlink:href="nz0.EntityCannonShot.svg" xlink:title="nz0.EntityCannonShot">
<ellipse fill="green" stroke="black" cx="2576.09" cy="-378" rx="115.88" ry="18"/>
<text text-anchor="middle" x="2576.09" y="-374.3" font-family="Times,serif" font-size="14.00">nz0.EntityCannonShot</text>
</a>
</g>
</g>
<!-- nz0.EntityCannonShot&#45;&gt;nz0.AllocEntity -->
<g id="edge11" class="edge">
<title>nz0.EntityCannonShot&#45;&gt;nz0.AllocEntity</title>
<path fill="none" stroke="black" d="M2656.14,-364.97C2873.68,-332.3 3473.55,-242.19 3685.61,-210.34"/>
<polygon fill="black" stroke="black" points="3686.35,-213.77 3695.72,-208.82 3685.31,-206.84 3686.35,-213.77"/>
<text text-anchor="middle" x="2651.14" y="-353.77" font-family="Times,serif" font-size="14.00">1</text>
</g>
<!-- nz0.EntityExplosionVariantsSpawner -->
<g id="node13" class="node">
<title>nz0.EntityExplosionVariantsSpawner</title>
<g id="a_node13"><a xlink:href="nz0.EntityExplosionVariantsSpawner.svg" xlink:title="nz0.EntityExplosionVariantsSpawner">
<ellipse fill="green" stroke="black" cx="2894.09" cy="-378" rx="183.87" ry="18"/>
<text text-anchor="middle" x="2894.09" y="-374.3" font-family="Times,serif" font-size="14.00">nz0.EntityExplosionVariantsSpawner</text>
</a>
</g>
</g>
<!-- nz0.EntityExplosionVariantsSpawner&#45;&gt;nz0.AllocEntity -->
<g id="edge12" class="edge">
<title>nz0.EntityExplosionVariantsSpawner&#45;&gt;nz0.AllocEntity</title>
<path fill="none" stroke="black" d="M2969.51,-361.52C3136.31,-327.27 3534.27,-245.57 3693.52,-212.87"/>
<polygon fill="black" stroke="black" points="3694.57,-216.23 3703.66,-210.79 3693.16,-209.37 3694.57,-216.23"/>
<text text-anchor="middle" x="2964.51" y="-350.32" font-family="Times,serif" font-size="14.00">1</text>
</g>
<!-- nz0.EntityGaibon -->
<g id="node14" class="node">
<title>nz0.EntityGaibon</title>
<g id="a_node14"><a xlink:href="nz0.EntityGaibon.svg" xlink:title="nz0.EntityGaibon">
<ellipse fill="green" stroke="black" cx="3188.09" cy="-378" rx="91.78" ry="18"/>
<text text-anchor="middle" x="3188.09" y="-374.3" font-family="Times,serif" font-size="14.00">nz0.EntityGaibon</text>
</a>
</g>
</g>
<!-- nz0.EntityGaibon&#45;&gt;nz0.AllocEntity -->
<g id="edge13" class="edge">
<title>nz0.EntityGaibon&#45;&gt;nz0.AllocEntity</title>
<path fill="none" stroke="black" d="M3234.98,-362.43C3340.06,-329.79 3593.95,-250.92 3706.18,-216.06"/>
<polygon fill="black" stroke="black" points="3707.43,-219.33 3715.94,-213.02 3705.36,-212.65 3707.43,-219.33"/>
<text text-anchor="middle" x="3229.98" y="-351.23" font-family="Times,serif" font-size="14.00">5</text>
</g>
<!-- nz0.EntityGreyPuffSpawner -->
<g id="node15" class="node">
<title>nz0.EntityGreyPuffSpawner</title>
<g id="a_node15"><a xlink:href="nz0.EntityGreyPuffSpawner.svg" xlink:title="nz0.EntityGreyPuffSpawner">
<ellipse fill="green" stroke="black" cx="3439.09" cy="-378" rx="141.07" ry="18"/>
<text text-anchor="middle" x="3439.09" y="-374.3" font-family="Times,serif" font-size="14.00">nz0.EntityGreyPuffSpawner</text>
</a>
</g>
</g>
<!-- nz0.EntityGreyPuffSpawner&#45;&gt;nz0.AllocEntity -->
<g id="edge14" class="edge">
<title>nz0.EntityGreyPuffSpawner&#45;&gt;nz0.AllocEntity</title>
<path fill="none" stroke="black" d="M3469.38,-360.25C3528.32,-327.67 3658.31,-255.82 3722.99,-220.06"/>
<polygon fill="black" stroke="black" points="3724.98,-222.96 3732.04,-215.06 3721.6,-216.83 3724.98,-222.96"/>
<text text-anchor="middle" x="3464.38" y="-349.05" font-family="Times,serif" font-size="14.00">1</text>
</g>
<!-- nz0.EntityLargeGaibonProjectile -->
<g id="node16" class="node">
<title>nz0.EntityLargeGaibonProjectile</title>
<g id="a_node16"><a xlink:href="nz0.EntityLargeGaibonProjectile.svg" xlink:title="nz0.EntityLargeGaibonProjectile">
<ellipse fill="green" stroke="black" cx="3761.09" cy="-378" rx="163.27" ry="18"/>
<text text-anchor="middle" x="3761.09" y="-374.3" font-family="Times,serif" font-size="14.00">nz0.EntityLargeGaibonProjectile</text>
</a>
</g>
</g>
<!-- nz0.EntityLargeGaibonProjectile&#45;&gt;nz0.AllocEntity -->
<g id="edge15" class="edge">
<title>nz0.EntityLargeGaibonProjectile&#45;&gt;nz0.AllocEntity</title>
<path fill="none" stroke="black" d="M3761.09,-359.93C3761.09,-328.97 3761.09,-263.3 3761.09,-226.13"/>
<polygon fill="black" stroke="black" points="3764.59,-226.02 3761.09,-216.02 3757.59,-226.02 3764.59,-226.02"/>
<text text-anchor="middle" x="3756.09" y="-348.73" font-family="Times,serif" font-size="14.00">1</text>
</g>
<!-- nz0.EntityLeftSecretRoomWall -->
<g id="node17" class="node">
<title>nz0.EntityLeftSecretRoomWall</title>
<g id="a_node17"><a xlink:href="nz0.EntityLeftSecretRoomWall.svg" xlink:title="nz0.EntityLeftSecretRoomWall">
<ellipse fill="green" stroke="black" cx="4096.09" cy="-378" rx="154.07" ry="18"/>
<text text-anchor="middle" x="4096.09" y="-374.3" font-family="Times,serif" font-size="14.00">nz0.EntityLeftSecretRoomWall</text>
</a>
</g>
</g>
<!-- nz0.EntityLeftSecretRoomWall&#45;&gt;nz0.AllocEntity -->
<g id="edge16" class="edge">
<title>nz0.EntityLeftSecretRoomWall&#45;&gt;nz0.AllocEntity</title>
<path fill="none" stroke="black" d="M4064.57,-360.25C4002.97,-327.52 3866.78,-255.16 3799.81,-219.57"/>
<polygon fill="black" stroke="black" points="3801.3,-216.41 3790.83,-214.8 3798.02,-222.59 3801.3,-216.41"/>
<text text-anchor="middle" x="4059.57" y="-349.05" font-family="Times,serif" font-size="14.00">2</text>
</g>
<!-- nz0.EntityLifeMaxTank -->
<g id="node18" class="node">
<title>nz0.EntityLifeMaxTank</title>
<g id="a_node18"><a xlink:href="nz0.EntityLifeMaxTank.svg" xlink:title="nz0.EntityLifeMaxTank">
<ellipse fill="green" stroke="black" cx="4386.09" cy="-378" rx="118.08" ry="18"/>
<text text-anchor="middle" x="4386.09" y="-374.3" font-family="Times,serif" font-size="14.00">nz0.EntityLifeMaxTank</text>
</a>
</g>
</g>
<!-- nz0.EntityLifeMaxTank&#45;&gt;nz0.AllocEntity -->
<g id="edge17" class="edge">
<title>nz0.EntityLifeMaxTank&#45;&gt;nz0.AllocEntity</title>
<path fill="none" stroke="black" d="M4333.07,-361.9C4216.68,-328.75 3939.57,-249.83 3818.9,-215.46"/>
<polygon fill="black" stroke="black" points="3819.68,-212.05 3809.1,-212.67 3817.76,-218.78 3819.68,-212.05"/>
<text text-anchor="middle" x="4328.07" y="-350.7" font-family="Times,serif" font-size="14.00">1</text>
</g>
<!-- nz0.EntityRelicContainer -->
<g id="node19" class="node">
<title>nz0.EntityRelicContainer</title>
<g id="a_node19"><a xlink:href="nz0.EntityRelicContainer.svg" xlink:title="nz0.EntityRelicContainer">
<ellipse fill="green" stroke="black" cx="4650.09" cy="-378" rx="128.08" ry="18"/>
<text text-anchor="middle" x="4650.09" y="-374.3" font-family="Times,serif" font-size="14.00">nz0.EntityRelicContainer</text>
</a>
</g>
</g>
<!-- nz0.EntityRelicContainer&#45;&gt;nz0.AllocEntity -->
<g id="edge18" class="edge">
<title>nz0.EntityRelicContainer&#45;&gt;nz0.AllocEntity</title>
<path fill="none" stroke="black" d="M4579.59,-362.88C4412.45,-329.42 3993.86,-245.61 3829.18,-212.63"/>
<polygon fill="black" stroke="black" points="3829.66,-209.16 3819.17,-210.63 3828.29,-216.02 3829.66,-209.16"/>
<text text-anchor="middle" x="4574.59" y="-351.68" font-family="Times,serif" font-size="14.00">1</text>
</g>
<!-- nz0.EntitySealedDoor -->
<g id="node20" class="node">
<title>nz0.EntitySealedDoor</title>
<g id="a_node20"><a xlink:href="nz0.EntitySealedDoor.svg" xlink:title="nz0.EntitySealedDoor">
<ellipse fill="green" stroke="black" cx="4908.09" cy="-378" rx="112.38" ry="18"/>
<text text-anchor="middle" x="4908.09" y="-374.3" font-family="Times,serif" font-size="14.00">nz0.EntitySealedDoor</text>
</a>
</g>
</g>
<!-- nz0.EntitySealedDoor&#45;&gt;nz0.AllocEntity -->
<g id="edge19" class="edge">
<title>nz0.EntitySealedDoor&#45;&gt;nz0.AllocEntity</title>
<path fill="none" stroke="black" d="M4830.15,-364.91C4619.79,-332.26 4042.41,-242.66 3835.82,-210.6"/>
<polygon fill="black" stroke="black" points="3836.1,-207.1 3825.68,-209.02 3835.03,-214.02 3836.1,-207.1"/>
<text text-anchor="middle" x="4825.15" y="-353.71" font-family="Times,serif" font-size="14.00">1</text>
</g>
<!-- nz0.EntitySecretWallDebris -->
<g id="node21" class="node">
<title>nz0.EntitySecretWallDebris</title>
<g id="a_node21"><a xlink:href="nz0.EntitySecretWallDebris.svg" xlink:title="nz0.EntitySecretWallDebris">
<ellipse fill="green" stroke="black" cx="5178.09" cy="-378" rx="139.98" ry="18"/>
<text text-anchor="middle" x="5178.09" y="-374.3" font-family="Times,serif" font-size="14.00">nz0.EntitySecretWallDebris</text>
</a>
</g>
</g>
<!-- nz0.EntitySecretWallDebris&#45;&gt;nz0.AllocEntity -->
<g id="edge20" class="edge">
<title>nz0.EntitySecretWallDebris&#45;&gt;nz0.AllocEntity</title>
<path fill="none" stroke="black" d="M5081.81,-364.91C4817.29,-331.68 4083.03,-239.44 3840.2,-208.94"/>
<polygon fill="black" stroke="black" points="3840.4,-205.44 3830.04,-207.66 3839.53,-212.38 3840.4,-205.44"/>
<text text-anchor="middle" x="5076.81" y="-353.71" font-family="Times,serif" font-size="14.00">2</text>
</g>
<!-- nz0.EntitySkeleton -->
<g id="node22" class="node">
<title>nz0.EntitySkeleton</title>
<g id="a_node22"><a xlink:href="nz0.EntitySkeleton.svg" xlink:title="nz0.EntitySkeleton">
<ellipse fill="green" stroke="black" cx="5435.09" cy="-378" rx="99.38" ry="18"/>
<text text-anchor="middle" x="5435.09" y="-374.3" font-family="Times,serif" font-size="14.00">nz0.EntitySkeleton</text>
</a>
</g>
</g>
<!-- nz0.EntitySkeleton&#45;&gt;nz0.AllocEntity -->
<g id="edge21" class="edge">
<title>nz0.EntitySkeleton&#45;&gt;nz0.AllocEntity</title>
<path fill="none" stroke="black" d="M5364.29,-365.3C5351.91,-363.41 5339.14,-361.57 5327.09,-360 4763.26,-286.7 4081.67,-226.21 3846.04,-206.12"/>
<polygon fill="black" stroke="black" points="3846.09,-202.61 3835.83,-205.25 3845.5,-209.58 3846.09,-202.61"/>
<text text-anchor="middle" x="5359.29" y="-354.1" font-family="Times,serif" font-size="14.00">2</text>
</g>
<!-- nz0.EntitySlogra -->
<g id="node23" class="node">
<title>nz0.EntitySlogra</title>
<g id="a_node23"><a xlink:href="nz0.EntitySlogra.svg" xlink:title="nz0.EntitySlogra">
<ellipse fill="green" stroke="black" cx="5641.09" cy="-378" rx="89.08" ry="18"/>
<text text-anchor="middle" x="5641.09" y="-374.3" font-family="Times,serif" font-size="14.00">nz0.EntitySlogra</text>
</a>
</g>
</g>
<!-- nz0.EntitySlogra&#45;&gt;nz0.AllocEntity -->
<g id="edge22" class="edge">
<title>nz0.EntitySlogra&#45;&gt;nz0.AllocEntity</title>
<path fill="none" stroke="black" d="M5577.94,-365.27C5566.38,-363.34 5554.39,-361.49 5543.09,-360 4894.61,-274.6 4107.33,-220.77 3848.29,-204.34"/>
<polygon fill="black" stroke="black" points="3848.39,-200.84 3838.19,-203.71 3847.95,-207.83 3848.39,-200.84"/>
<text text-anchor="middle" x="5572.94" y="-354.07" font-family="Times,serif" font-size="14.00">3</text>
</g>
<!-- nz0.EntitySlograSpearProjectile -->
<g id="node24" class="node">
<title>nz0.EntitySlograSpearProjectile</title>
<g id="a_node24"><a xlink:href="nz0.EntitySlograSpearProjectile.svg" xlink:title="nz0.EntitySlograSpearProjectile">
<ellipse fill="green" stroke="black" cx="5909.09" cy="-378" rx="161.37" ry="18"/>
<text text-anchor="middle" x="5909.09" y="-374.3" font-family="Times,serif" font-size="14.00">nz0.EntitySlograSpearProjectile</text>
</a>
</g>
</g>
<!-- nz0.EntitySlograSpearProjectile&#45;&gt;nz0.AllocEntity -->
<g id="edge23" class="edge">
<title>nz0.EntitySlograSpearProjectile&#45;&gt;nz0.AllocEntity</title>
<path fill="none" stroke="black" d="M5794.81,-365.28C5776.19,-363.45 5757.11,-361.63 5739.09,-360 5007.76,-293.68 4123.13,-226.19 3847.38,-205.45"/>
<polygon fill="black" stroke="black" points="3847.28,-201.93 3837.04,-204.67 3846.75,-208.91 3847.28,-201.93"/>
<text text-anchor="middle" x="5789.81" y="-354.08" font-family="Times,serif" font-size="14.00">1</text>
</g>
<!-- nz0.EntitySpittleBone -->
<g id="node25" class="node">
<title>nz0.EntitySpittleBone</title>
<g id="a_node25"><a xlink:href="nz0.EntitySpittleBone.svg" xlink:title="nz0.EntitySpittleBone">
<ellipse fill="green" stroke="black" cx="6202.09" cy="-378" rx="113.98" ry="18"/>
<text text-anchor="middle" x="6202.09" y="-374.3" font-family="Times,serif" font-size="14.00">nz0.EntitySpittleBone</text>
</a>
</g>
</g>
<!-- nz0.EntitySpittleBone&#45;&gt;nz0.AllocEntity -->
<g id="edge24" class="edge">
<title>nz0.EntitySpittleBone&#45;&gt;nz0.AllocEntity</title>
<path fill="none" stroke="black" d="M6122.13,-365.15C6107.82,-363.25 6093.03,-361.45 6079.09,-360 5212.7,-270.14 4158.79,-217.33 3850.03,-203"/>
<polygon fill="black" stroke="black" points="3849.95,-199.49 3839.8,-202.52 3849.63,-206.48 3849.95,-199.49"/>
<text text-anchor="middle" x="6117.13" y="-353.95" font-family="Times,serif" font-size="14.00">4</text>
</g>
<!-- nz0.EntitySubWeaponContainer -->
<g id="node26" class="node">
<title>nz0.EntitySubWeaponContainer</title>
<g id="a_node26"><a xlink:href="nz0.EntitySubWeaponContainer.svg" xlink:title="nz0.EntitySubWeaponContainer">
<ellipse fill="green" stroke="black" cx="6493.09" cy="-378" rx="159.47" ry="18"/>
<text text-anchor="middle" x="6493.09" y="-374.3" font-family="Times,serif" font-size="14.00">nz0.EntitySubWeaponContainer</text>
</a>
</g>
</g>
<!-- nz0.EntitySubWeaponContainer&#45;&gt;nz0.AllocEntity -->
<g id="edge25" class="edge">
<title>nz0.EntitySubWeaponContainer&#45;&gt;nz0.AllocEntity</title>
<path fill="none" stroke="black" d="M6381.54,-365.11C6362.71,-363.28 6343.35,-361.5 6325.09,-360 5356.26,-280.59 4178.68,-219.7 3849.99,-203.35"/>
<polygon fill="black" stroke="black" points="3849.74,-199.83 3839.58,-202.83 3849.4,-206.83 3849.74,-199.83"/>
<text text-anchor="middle" x="6376.54" y="-353.91" font-family="Times,serif" font-size="14.00">3</text>
</g>
<!-- nz0.EntityUnkId13 -->
<g id="node27" class="node">
<title>nz0.EntityUnkId13</title>
<g id="a_node27"><a xlink:href="nz0.EntityUnkId13.svg" xlink:title="nz0.EntityUnkId13">
<ellipse fill="green" stroke="black" cx="6769.09" cy="-378" rx="98.58" ry="18"/>
<text text-anchor="middle" x="6769.09" y="-374.3" font-family="Times,serif" font-size="14.00">nz0.EntityUnkId13</text>
</a>
</g>
</g>
<!-- nz0.EntityUnkId13&#45;&gt;nz0.AllocEntity -->
<g id="edge26" class="edge">
<title>nz0.EntityUnkId13&#45;&gt;nz0.AllocEntity</title>
<path fill="none" stroke="black" d="M6700.09,-365.08C6687.16,-363.15 6673.73,-361.34 6661.09,-360 5558.21,-242.89 4209.74,-208.17 3851.81,-200.71"/>
<polygon fill="black" stroke="black" points="3851.84,-197.21 3841.77,-200.5 3851.69,-204.21 3851.84,-197.21"/>
<text text-anchor="middle" x="6695.09" y="-353.88" font-family="Times,serif" font-size="14.00">1</text>
</g>
<!-- nz0.HitDetection -->
<g id="node28" class="node">
<title>nz0.HitDetection</title>
<g id="a_node28"><a xlink:href="nz0.HitDetection.svg" xlink:title="nz0.HitDetection">
<ellipse fill="green" stroke="black" cx="6975.09" cy="-378" rx="89.88" ry="18"/>
<text text-anchor="middle" x="6975.09" y="-374.3" font-family="Times,serif" font-size="14.00">nz0.HitDetection</text>
</a>
</g>
</g>
<!-- nz0.HitDetection&#45;&gt;nz0.AllocEntity -->
<g id="edge27" class="edge">
<title>nz0.HitDetection&#45;&gt;nz0.AllocEntity</title>
<path fill="none" stroke="black" d="M6912.78,-365.04C6900.96,-363.1 6888.67,-361.3 6877.09,-360 5686.44,-226.46 4227.21,-203.49 3852.27,-199.71"/>
<polygon fill="black" stroke="black" points="3852.06,-196.21 3842.02,-199.61 3851.99,-203.21 3852.06,-196.21"/>
<text text-anchor="middle" x="6907.78" y="-353.84" font-family="Times,serif" font-size="14.00">4</text>
</g>
<!-- nz0.MakeExplosions -->
<g id="node29" class="node">
<title>nz0.MakeExplosions</title>
<g id="a_node29"><a xlink:href="nz0.MakeExplosions.svg" xlink:title="nz0.MakeExplosions">
<ellipse fill="green" stroke="black" cx="7189.09" cy="-378" rx="105.88" ry="18"/>
<text text-anchor="middle" x="7189.09" y="-374.3" font-family="Times,serif" font-size="14.00">nz0.MakeExplosions</text>
</a>
</g>
</g>
<!-- nz0.MakeExplosions&#45;&gt;nz0.AllocEntity -->
<g id="edge28" class="edge">
<title>nz0.MakeExplosions&#45;&gt;nz0.AllocEntity</title>
<path fill="none" stroke="black" d="M7115.29,-365C7101.62,-363.08 7087.45,-361.31 7074.09,-360 5800.19,-235.19 4240.8,-205.74 3852.09,-200.15"/>
<polygon fill="black" stroke="black" points="3852.07,-196.65 3842.02,-200 3851.97,-203.65 3852.07,-196.65"/>
<text text-anchor="middle" x="7110.29" y="-353.8" font-family="Times,serif" font-size="14.00">1</text>
</g>
</g>
</svg>
