<?xml version="1.0" encoding="UTF-8" standalone="no"?>
<!DOCTYPE svg PUBLIC "-//W3C//DTD SVG 1.1//EN"
 "http://www.w3.org/Graphics/SVG/1.1/DTD/svg11.dtd">
<!-- Generated by graphviz version 2.43.0 (0)
 -->
<!-- Title: nz0.func_801B3C3C Pages: 1 -->
<svg width="1125pt" height="224pt"
 viewBox="0.00 0.00 1125.09 224.00" xmlns="http://www.w3.org/2000/svg" xmlns:xlink="http://www.w3.org/1999/xlink">
<g id="graph0" class="graph" transform="scale(1 1) rotate(0) translate(4 220)">
<title>nz0.func_801B3C3C</title>
<polygon fill="white" stroke="transparent" points="-4,4 -4,-220 1121.09,-220 1121.09,4 -4,4"/>
<!-- nz0.func_801B3C3C -->
<g id="node1" class="node">
<title>nz0.func_801B3C3C</title>
<ellipse fill="green" stroke="black" cx="723.49" cy="-198" rx="104.78" ry="18"/>
<text text-anchor="middle" x="723.49" y="-194.3" font-family="Times,serif" font-size="14.00">nz0.func_801B3C3C</text>
</g>
<!-- nz0.AnimateEntity -->
<g id="node2" class="node">
<title>nz0.AnimateEntity</title>
<g id="a_node2"><a xlink:href="nz0.AnimateEntity.svg" xlink:title="nz0.AnimateEntity">
<ellipse fill="green" stroke="black" cx="97.49" cy="-18" rx="97.48" ry="18"/>
<text text-anchor="middle" x="97.49" y="-14.3" font-family="Times,serif" font-size="14.00">nz0.AnimateEntity</text>
</a>
</g>
</g>
<!-- nz0.func_801B3C3C&#45;&gt;nz0.AnimateEntity -->
<g id="edge1" class="edge">
<title>nz0.func_801B3C3C&#45;&gt;nz0.AnimateEntity</title>
<path fill="none" stroke="black" d="M671.73,-182.28C556.79,-149.6 280.77,-71.11 158.06,-36.22"/>
<polygon fill="black" stroke="black" points="159.01,-32.85 148.44,-33.49 157.1,-39.59 159.01,-32.85"/>
<text text-anchor="middle" x="143.44" y="-37.29" font-family="Times,serif" font-size="14.00">2</text>
</g>
<!-- nz0.DestroyEntity -->
<g id="node3" class="node">
<title>nz0.DestroyEntity</title>
<g id="a_node3"><a xlink:href="nz0.DestroyEntity.svg" xlink:title="nz0.DestroyEntity">
<ellipse fill="green" stroke="black" cx="308.49" cy="-18" rx="95.58" ry="18"/>
<text text-anchor="middle" x="308.49" y="-14.3" font-family="Times,serif" font-size="14.00">nz0.DestroyEntity</text>
</a>
</g>
</g>
<!-- nz0.func_801B3C3C&#45;&gt;nz0.DestroyEntity -->
<g id="edge2" class="edge">
<title>nz0.func_801B3C3C&#45;&gt;nz0.DestroyEntity</title>
<path fill="none" stroke="black" d="M686.3,-181.05C610.32,-148.46 437.51,-74.34 354.57,-38.76"/>
<polygon fill="black" stroke="black" points="355.73,-35.45 345.16,-34.73 352.97,-41.88 355.73,-35.45"/>
<text text-anchor="middle" x="340.16" y="-38.53" font-family="Times,serif" font-size="14.00">1</text>
</g>
<!-- nz0.InitializeEntity -->
<g id="node4" class="node">
<title>nz0.InitializeEntity</title>
<g id="a_node4"><a xlink:href="nz0.InitializeEntity.svg" xlink:title="nz0.InitializeEntity">
<ellipse fill="green" stroke="black" cx="521.49" cy="-18" rx="99.38" ry="18"/>
<text text-anchor="middle" x="521.49" y="-14.3" font-family="Times,serif" font-size="14.00">nz0.InitializeEntity</text>
</a>
</g>
</g>
<!-- nz0.func_801B3C3C&#45;&gt;nz0.InitializeEntity -->
<g id="edge3" class="edge">
<title>nz0.func_801B3C3C&#45;&gt;nz0.InitializeEntity</title>
<path fill="none" stroke="black" d="M704.49,-180.25C668.32,-148.38 589.51,-78.94 548.11,-42.45"/>
<polygon fill="black" stroke="black" points="550.41,-39.82 540.59,-35.83 545.78,-45.07 550.41,-39.82"/>
<text text-anchor="middle" x="535.59" y="-39.63" font-family="Times,serif" font-size="14.00">1</text>
</g>
<!-- nz0.MoveEntity -->
<g id="node5" class="node">
<title>nz0.MoveEntity</title>
<g id="a_node5"><a xlink:href="nz0.MoveEntity.svg" xlink:title="nz0.MoveEntity">
<ellipse fill="green" stroke="black" cx="723.49" cy="-18" rx="84.49" ry="18"/>
<text text-anchor="middle" x="723.49" y="-14.3" font-family="Times,serif" font-size="14.00">nz0.MoveEntity</text>
</a>
</g>
</g>
<!-- nz0.func_801B3C3C&#45;&gt;nz0.MoveEntity -->
<g id="edge4" class="edge">
<title>nz0.func_801B3C3C&#45;&gt;nz0.MoveEntity</title>
<path fill="none" stroke="black" d="M723.49,-179.93C723.49,-148.97 723.49,-83.3 723.49,-46.13"/>
<polygon fill="black" stroke="black" points="726.99,-46.02 723.49,-36.02 719.99,-46.02 726.99,-46.02"/>
<text text-anchor="middle" x="718.49" y="-39.82" font-family="Times,serif" font-size="14.00">2</text>
</g>
<!-- nz0.Random -->
<g id="node6" class="node">
<title>nz0.Random</title>
<g id="a_node6"><a xlink:href="nz0.Random.svg" xlink:title="nz0.Random">
<ellipse fill="green" stroke="black" cx="894.49" cy="-18" rx="68.49" ry="18"/>
<text text-anchor="middle" x="894.49" y="-14.3" font-family="Times,serif" font-size="14.00">nz0.Random</text>
</a>
</g>
</g>
<!-- nz0.func_801B3C3C&#45;&gt;nz0.Random -->
<g id="edge5" class="edge">
<title>nz0.func_801B3C3C&#45;&gt;nz0.Random</title>
<path fill="none" stroke="black" d="M739.89,-179.93C770.48,-148.09 836.33,-79.54 871.4,-43.04"/>
<polygon fill="black" stroke="black" points="873.99,-45.39 878.39,-35.76 868.94,-40.54 873.99,-45.39"/>
<text text-anchor="middle" x="873.39" y="-39.56" font-family="Times,serif" font-size="14.00">1</text>
</g>
<!-- rcos -->
<g id="node7" class="node">
<title>rcos</title>
<g id="a_node7"><a xlink:href="rcos.svg" xlink:title="rcos">
<ellipse fill="lightblue" stroke="black" cx="1011.49" cy="-18" rx="30.59" ry="18"/>
<text text-anchor="middle" x="1011.49" y="-14.3" font-family="Times,serif" font-size="14.00">rcos</text>
</a>
</g>
</g>
<!-- nz0.func_801B3C3C&#45;&gt;rcos -->
<g id="edge6" class="edge">
<title>nz0.func_801B3C3C&#45;&gt;rcos</title>
<path fill="none" stroke="black" d="M750.07,-180.57C804.02,-147.23 926.01,-71.83 982.18,-37.12"/>
<polygon fill="black" stroke="black" points="984.26,-39.95 990.92,-31.71 980.58,-33.99 984.26,-39.95"/>
<text text-anchor="middle" x="985.92" y="-35.51" font-family="Times,serif" font-size="14.00">1</text>
</g>
<!-- rsin -->
<g id="node8" class="node">
<title>rsin</title>
<g id="a_node8"><a xlink:href="rsin.svg" xlink:title="rsin">
<ellipse fill="lightblue" stroke="black" cx="1088.49" cy="-18" rx="28.7" ry="18"/>
<text text-anchor="middle" x="1088.49" y="-14.3" font-family="Times,serif" font-size="14.00">rsin</text>
</a>
</g>
</g>
<!-- nz0.func_801B3C3C&#45;&gt;rsin -->
<g id="edge7" class="edge">
<title>nz0.func_801B3C3C&#45;&gt;rsin</title>
<path fill="none" stroke="black" d="M756.53,-180.89C826.44,-146.79 988.55,-67.74 1057.05,-34.34"/>
<polygon fill="black" stroke="black" points="1059,-37.28 1066.45,-29.75 1055.93,-30.99 1059,-37.28"/>
<text text-anchor="middle" x="1061.45" y="-33.55" font-family="Times,serif" font-size="14.00">1</text>
</g>
</g>
</svg>
