<?xml version="1.0" encoding="UTF-8" standalone="no"?>
<!DOCTYPE svg PUBLIC "-//W3C//DTD SVG 1.1//EN"
 "http://www.w3.org/Graphics/SVG/1.1/DTD/svg11.dtd">
<!-- Generated by graphviz version 2.43.0 (0)
 -->
<!-- Title: nz0.EntityBlueFlameTable Pages: 1 -->
<svg width="1025pt" height="224pt"
 viewBox="0.00 0.00 1024.94 224.00" xmlns="http://www.w3.org/2000/svg" xmlns:xlink="http://www.w3.org/1999/xlink">
<g id="graph0" class="graph" transform="scale(1 1) rotate(0) translate(4 220)">
<title>nz0.EntityBlueFlameTable</title>
<polygon fill="white" stroke="transparent" points="-4,4 -4,-220 1020.94,-220 1020.94,4 -4,4"/>
<!-- nz0.EntityBlueFlameTable -->
<g id="node1" class="node">
<title>nz0.EntityBlueFlameTable</title>
<ellipse fill="green" stroke="black" cx="503.34" cy="-198" rx="133.78" ry="18"/>
<text text-anchor="middle" x="503.34" y="-194.3" font-family="Times,serif" font-size="14.00">nz0.EntityBlueFlameTable</text>
</g>
<!-- dra.PlaySfx -->
<g id="node2" class="node">
<title>dra.PlaySfx</title>
<g id="a_node2"><a xlink:href="dra.PlaySfx.svg" xlink:title="dra.PlaySfx">
<ellipse fill="green" stroke="black" cx="64.34" cy="-18" rx="64.19" ry="18"/>
<text text-anchor="middle" x="64.34" y="-14.3" font-family="Times,serif" font-size="14.00">dra.PlaySfx</text>
</a>
</g>
</g>
<!-- nz0.EntityBlueFlameTable&#45;&gt;dra.PlaySfx -->
<g id="edge1" class="edge">
<title>nz0.EntityBlueFlameTable&#45;&gt;dra.PlaySfx</title>
<path fill="none" stroke="black" d="M463.22,-180.73C381.09,-147.43 194.33,-71.71 108.72,-36.99"/>
<polygon fill="black" stroke="black" points="109.87,-33.68 99.28,-33.17 107.24,-40.17 109.87,-33.68"/>
<text text-anchor="middle" x="94.28" y="-36.97" font-family="Times,serif" font-size="14.00">1</text>
</g>
<!-- nz0.AnimateEntity -->
<g id="node3" class="node">
<title>nz0.AnimateEntity</title>
<g id="a_node3"><a xlink:href="nz0.AnimateEntity.svg" xlink:title="nz0.AnimateEntity">
<ellipse fill="green" stroke="black" cx="244.34" cy="-18" rx="97.48" ry="18"/>
<text text-anchor="middle" x="244.34" y="-14.3" font-family="Times,serif" font-size="14.00">nz0.AnimateEntity</text>
</a>
</g>
</g>
<!-- nz0.EntityBlueFlameTable&#45;&gt;nz0.AnimateEntity -->
<g id="edge2" class="edge">
<title>nz0.EntityBlueFlameTable&#45;&gt;nz0.AnimateEntity</title>
<path fill="none" stroke="black" d="M478.98,-180.25C432.1,-148.04 329.35,-77.42 276.76,-41.27"/>
<polygon fill="black" stroke="black" points="278.68,-38.35 268.46,-35.57 274.72,-44.12 278.68,-38.35"/>
<text text-anchor="middle" x="263.46" y="-39.37" font-family="Times,serif" font-size="14.00">1</text>
</g>
<!-- nz0.CreateEntityFromEntity -->
<g id="node4" class="node">
<title>nz0.CreateEntityFromEntity</title>
<g id="a_node4"><a xlink:href="nz0.CreateEntityFromEntity.svg" xlink:title="nz0.CreateEntityFromEntity">
<ellipse fill="green" stroke="black" cx="503.34" cy="-18" rx="143.77" ry="18"/>
<text text-anchor="middle" x="503.34" y="-14.3" font-family="Times,serif" font-size="14.00">nz0.CreateEntityFromEntity</text>
</a>
</g>
</g>
<!-- nz0.EntityBlueFlameTable&#45;&gt;nz0.CreateEntityFromEntity -->
<g id="edge3" class="edge">
<title>nz0.EntityBlueFlameTable&#45;&gt;nz0.CreateEntityFromEntity</title>
<path fill="none" stroke="black" d="M503.34,-179.93C503.34,-148.97 503.34,-83.3 503.34,-46.13"/>
<polygon fill="black" stroke="black" points="506.84,-46.02 503.34,-36.02 499.84,-46.02 506.84,-46.02"/>
<text text-anchor="middle" x="498.34" y="-39.82" font-family="Times,serif" font-size="14.00">1</text>
</g>
<!-- nz0.InitializeEntity -->
<g id="node5" class="node">
<title>nz0.InitializeEntity</title>
<g id="a_node5"><a xlink:href="nz0.InitializeEntity.svg" xlink:title="nz0.InitializeEntity">
<ellipse fill="green" stroke="black" cx="764.34" cy="-18" rx="99.38" ry="18"/>
<text text-anchor="middle" x="764.34" y="-14.3" font-family="Times,serif" font-size="14.00">nz0.InitializeEntity</text>
</a>
</g>
</g>
<!-- nz0.EntityBlueFlameTable&#45;&gt;nz0.InitializeEntity -->
<g id="edge4" class="edge">
<title>nz0.EntityBlueFlameTable&#45;&gt;nz0.InitializeEntity</title>
<path fill="none" stroke="black" d="M527.9,-180.25C575.14,-148.04 678.69,-77.42 731.68,-41.27"/>
<polygon fill="black" stroke="black" points="733.76,-44.1 740.05,-35.57 729.81,-38.31 733.76,-44.1"/>
<text text-anchor="middle" x="735.05" y="-39.37" font-family="Times,serif" font-size="14.00">1</text>
</g>
<!-- nz0.SetStep -->
<g id="node6" class="node">
<title>nz0.SetStep</title>
<g id="a_node6"><a xlink:href="nz0.SetStep.svg" xlink:title="nz0.SetStep">
<ellipse fill="green" stroke="black" cx="949.34" cy="-18" rx="67.69" ry="18"/>
<text text-anchor="middle" x="949.34" y="-14.3" font-family="Times,serif" font-size="14.00">nz0.SetStep</text>
</a>
</g>
</g>
<!-- nz0.EntityBlueFlameTable&#45;&gt;nz0.SetStep -->
<g id="edge5" class="edge">
<title>nz0.EntityBlueFlameTable&#45;&gt;nz0.SetStep</title>
<path fill="none" stroke="black" d="M544.11,-180.73C627.53,-147.44 817.2,-71.74 904.2,-37.02"/>
<polygon fill="black" stroke="black" points="905.55,-40.25 913.54,-33.29 902.96,-33.74 905.55,-40.25"/>
<text text-anchor="middle" x="908.54" y="-37.09" font-family="Times,serif" font-size="14.00">1</text>
</g>
</g>
</svg>
