<?xml version="1.0" encoding="UTF-8" standalone="no"?>
<!DOCTYPE svg PUBLIC "-//W3C//DTD SVG 1.1//EN"
 "http://www.w3.org/Graphics/SVG/1.1/DTD/svg11.dtd">
<!-- Generated by graphviz version 2.43.0 (0)
 -->
<!-- Title: nz0.AnimateEntity Pages: 1 -->
<svg width="7177pt" height="224pt"
 viewBox="0.00 0.00 7176.93 224.00" xmlns="http://www.w3.org/2000/svg" xmlns:xlink="http://www.w3.org/1999/xlink">
<g id="graph0" class="graph" transform="scale(1 1) rotate(0) translate(4 220)">
<title>nz0.AnimateEntity</title>
<polygon fill="white" stroke="transparent" points="-4,4 -4,-220 7172.93,-220 7172.93,4 -4,4"/>
<!-- nz0.AnimateEntity -->
<g id="node1" class="node">
<title>nz0.AnimateEntity</title>
<ellipse fill="green" stroke="black" cx="3511.24" cy="-18" rx="97.48" ry="18"/>
<text text-anchor="middle" x="3511.24" y="-14.3" font-family="Times,serif" font-size="14.00">nz0.AnimateEntity</text>
</g>
<!-- nz0.EntityAxeKnight -->
<g id="node2" class="node">
<title>nz0.EntityAxeKnight</title>
<g id="a_node2"><a xlink:href="nz0.EntityAxeKnight.svg" xlink:title="nz0.EntityAxeKnight">
<ellipse fill="green" stroke="black" cx="107.24" cy="-198" rx="107.48" ry="18"/>
<text text-anchor="middle" x="107.24" y="-194.3" font-family="Times,serif" font-size="14.00">nz0.EntityAxeKnight</text>
</a>
</g>
</g>
<!-- nz0.EntityAxeKnight&#45;&gt;nz0.AnimateEntity -->
<g id="edge1" class="edge">
<title>nz0.EntityAxeKnight&#45;&gt;nz0.AnimateEntity</title>
<path fill="none" stroke="black" d="M181.68,-185.01C195.47,-183.09 209.77,-181.31 223.24,-180 1470.25,-58.38 2992.74,-26.99 3404.39,-20.48"/>
<polygon fill="black" stroke="black" points="3404.55,-23.98 3414.5,-20.33 3404.44,-16.98 3404.55,-23.98"/>
<text text-anchor="middle" x="176.68" y="-173.81" font-family="Times,serif" font-size="14.00">6</text>
</g>
<!-- nz0.EntityBigRedFireball -->
<g id="node3" class="node">
<title>nz0.EntityBigRedFireball</title>
<g id="a_node3"><a xlink:href="nz0.EntityBigRedFireball.svg" xlink:title="nz0.EntityBigRedFireball">
<ellipse fill="green" stroke="black" cx="361.24" cy="-198" rx="128.88" ry="18"/>
<text text-anchor="middle" x="361.24" y="-194.3" font-family="Times,serif" font-size="14.00">nz0.EntityBigRedFireball</text>
</a>
</g>
</g>
<!-- nz0.EntityBigRedFireball&#45;&gt;nz0.AnimateEntity -->
<g id="edge2" class="edge">
<title>nz0.EntityBigRedFireball&#45;&gt;nz0.AnimateEntity</title>
<path fill="none" stroke="black" d="M450.97,-185.03C467.02,-183.15 483.61,-181.38 499.24,-180 1635.14,-79.8 3017.92,-33.57 3405.72,-22"/>
<polygon fill="black" stroke="black" points="3405.91,-25.49 3415.8,-21.7 3405.7,-18.5 3405.91,-25.49"/>
<text text-anchor="middle" x="445.97" y="-173.83" font-family="Times,serif" font-size="14.00">1</text>
</g>
<!-- nz0.EntityBloodSkeleton -->
<g id="node4" class="node">
<title>nz0.EntityBloodSkeleton</title>
<g id="a_node4"><a xlink:href="nz0.EntityBloodSkeleton.svg" xlink:title="nz0.EntityBloodSkeleton">
<ellipse fill="green" stroke="black" cx="634.24" cy="-198" rx="126.18" ry="18"/>
<text text-anchor="middle" x="634.24" y="-194.3" font-family="Times,serif" font-size="14.00">nz0.EntityBloodSkeleton</text>
</a>
</g>
</g>
<!-- nz0.EntityBloodSkeleton&#45;&gt;nz0.AnimateEntity -->
<g id="edge3" class="edge">
<title>nz0.EntityBloodSkeleton&#45;&gt;nz0.AnimateEntity</title>
<path fill="none" stroke="black" d="M722.67,-185.09C738.49,-183.21 754.84,-181.41 770.24,-180 1795.47,-85.92 3041.76,-35.99 3406.38,-22.68"/>
<polygon fill="black" stroke="black" points="3406.52,-26.17 3416.39,-22.31 3406.27,-19.18 3406.52,-26.17"/>
<text text-anchor="middle" x="717.67" y="-173.89" font-family="Times,serif" font-size="14.00">3</text>
</g>
<!-- nz0.EntityBloodyZombie -->
<g id="node5" class="node">
<title>nz0.EntityBloodyZombie</title>
<g id="a_node5"><a xlink:href="nz0.EntityBloodyZombie.svg" xlink:title="nz0.EntityBloodyZombie">
<ellipse fill="green" stroke="black" cx="904.24" cy="-198" rx="125.38" ry="18"/>
<text text-anchor="middle" x="904.24" y="-194.3" font-family="Times,serif" font-size="14.00">nz0.EntityBloodyZombie</text>
</a>
</g>
</g>
<!-- nz0.EntityBloodyZombie&#45;&gt;nz0.AnimateEntity -->
<g id="edge4" class="edge">
<title>nz0.EntityBloodyZombie&#45;&gt;nz0.AnimateEntity</title>
<path fill="none" stroke="black" d="M992.39,-185.12C1007.98,-183.24 1024.07,-181.45 1039.24,-180 1955.54,-92.55 3067.53,-38.79 3407.56,-23.51"/>
<polygon fill="black" stroke="black" points="3407.8,-27.01 3417.63,-23.06 3407.48,-20.01 3407.8,-27.01"/>
<text text-anchor="middle" x="987.39" y="-173.92" font-family="Times,serif" font-size="14.00">5</text>
</g>
<!-- nz0.EntityBoneScimitar -->
<g id="node6" class="node">
<title>nz0.EntityBoneScimitar</title>
<g id="a_node6"><a xlink:href="nz0.EntityBoneScimitar.svg" xlink:title="nz0.EntityBoneScimitar">
<ellipse fill="green" stroke="black" cx="1170.24" cy="-198" rx="122.38" ry="18"/>
<text text-anchor="middle" x="1170.24" y="-194.3" font-family="Times,serif" font-size="14.00">nz0.EntityBoneScimitar</text>
</a>
</g>
</g>
<!-- nz0.EntityBoneScimitar&#45;&gt;nz0.AnimateEntity -->
<g id="edge5" class="edge">
<title>nz0.EntityBoneScimitar&#45;&gt;nz0.AnimateEntity</title>
<path fill="none" stroke="black" d="M1256.13,-185.15C1271.15,-183.28 1286.64,-181.48 1301.24,-180 2111.98,-97.93 3094.14,-41.45 3408.96,-24.4"/>
<polygon fill="black" stroke="black" points="3409.18,-27.89 3418.97,-23.85 3408.8,-20.9 3409.18,-27.89"/>
<text text-anchor="middle" x="1251.13" y="-173.95" font-family="Times,serif" font-size="14.00">6</text>
</g>
<!-- nz0.EntityBreakableNZ0 -->
<g id="node7" class="node">
<title>nz0.EntityBreakableNZ0</title>
<g id="a_node7"><a xlink:href="nz0.EntityBreakableNZ0.svg" xlink:title="nz0.EntityBreakableNZ0">
<ellipse fill="green" stroke="black" cx="1436.24" cy="-198" rx="126.18" ry="18"/>
<text text-anchor="middle" x="1436.24" y="-194.3" font-family="Times,serif" font-size="14.00">nz0.EntityBreakableNZ0</text>
</a>
</g>
</g>
<!-- nz0.EntityBreakableNZ0&#45;&gt;nz0.AnimateEntity -->
<g id="edge6" class="edge">
<title>nz0.EntityBreakableNZ0&#45;&gt;nz0.AnimateEntity</title>
<path fill="none" stroke="black" d="M1525.5,-185.22C1540.75,-183.36 1556.44,-181.55 1571.24,-180 2274.32,-106.59 3123.59,-45.66 3410.8,-25.82"/>
<polygon fill="black" stroke="black" points="3411.45,-29.29 3421.19,-25.11 3410.97,-22.3 3411.45,-29.29"/>
<text text-anchor="middle" x="1520.5" y="-174.02" font-family="Times,serif" font-size="14.00">1</text>
</g>
<!-- nz0.EntityExplosion -->
<g id="node8" class="node">
<title>nz0.EntityExplosion</title>
<g id="a_node8"><a xlink:href="nz0.EntityExplosion.svg" xlink:title="nz0.EntityExplosion">
<ellipse fill="green" stroke="black" cx="1685.24" cy="-198" rx="104.78" ry="18"/>
<text text-anchor="middle" x="1685.24" y="-194.3" font-family="Times,serif" font-size="14.00">nz0.EntityExplosion</text>
</a>
</g>
</g>
<!-- nz0.EntityExplosion&#45;&gt;nz0.AnimateEntity -->
<g id="edge7" class="edge">
<title>nz0.EntityExplosion&#45;&gt;nz0.AnimateEntity</title>
<path fill="none" stroke="black" d="M1759.32,-185.25C1772.27,-183.37 1785.64,-181.54 1798.24,-180 2410.13,-105.28 3148.67,-46.4 3412.04,-26.38"/>
<polygon fill="black" stroke="black" points="3412.64,-29.85 3422.34,-25.6 3412.11,-22.87 3412.64,-29.85"/>
<text text-anchor="middle" x="1754.32" y="-174.05" font-family="Times,serif" font-size="14.00">1</text>
</g>
<!-- nz0.EntityGaibon -->
<g id="node9" class="node">
<title>nz0.EntityGaibon</title>
<g id="a_node9"><a xlink:href="nz0.EntityGaibon.svg" xlink:title="nz0.EntityGaibon">
<ellipse fill="green" stroke="black" cx="1899.24" cy="-198" rx="91.78" ry="18"/>
<text text-anchor="middle" x="1899.24" y="-194.3" font-family="Times,serif" font-size="14.00">nz0.EntityGaibon</text>
</a>
</g>
</g>
<!-- nz0.EntityGaibon&#45;&gt;nz0.AnimateEntity -->
<g id="edge8" class="edge">
<title>nz0.EntityGaibon&#45;&gt;nz0.AnimateEntity</title>
<path fill="none" stroke="black" d="M1964.89,-185.36C1976.64,-183.44 1988.79,-181.57 2000.24,-180 2532.63,-106.9 3174.45,-48.2 3414.47,-27.26"/>
<polygon fill="black" stroke="black" points="3414.91,-30.74 3424.56,-26.38 3414.3,-23.76 3414.91,-30.74"/>
<text text-anchor="middle" x="1955.39" y="-174.16" font-family="Times,serif" font-size="14.00">13</text>
</g>
<!-- nz0.EntityLargeGaibonProjectile -->
<g id="node10" class="node">
<title>nz0.EntityLargeGaibonProjectile</title>
<g id="a_node10"><a xlink:href="nz0.EntityLargeGaibonProjectile.svg" xlink:title="nz0.EntityLargeGaibonProjectile">
<ellipse fill="green" stroke="black" cx="2172.24" cy="-198" rx="163.27" ry="18"/>
<text text-anchor="middle" x="2172.24" y="-194.3" font-family="Times,serif" font-size="14.00">nz0.EntityLargeGaibonProjectile</text>
</a>
</g>
</g>
<!-- nz0.EntityLargeGaibonProjectile&#45;&gt;nz0.AnimateEntity -->
<g id="edge9" class="edge">
<title>nz0.EntityLargeGaibonProjectile&#45;&gt;nz0.AnimateEntity</title>
<path fill="none" stroke="black" d="M2272.06,-183.73C2524.73,-150.14 3186.39,-62.18 3424.39,-30.55"/>
<polygon fill="black" stroke="black" points="3424.93,-34.01 3434.38,-29.22 3424,-27.07 3424.93,-34.01"/>
<text text-anchor="middle" x="2267.06" y="-172.53" font-family="Times,serif" font-size="14.00">2</text>
</g>
<!-- nz0.EntityMaria -->
<g id="node11" class="node">
<title>nz0.EntityMaria</title>
<g id="a_node11"><a xlink:href="nz0.EntityMaria.svg" xlink:title="nz0.EntityMaria">
<ellipse fill="green" stroke="black" cx="2440.24" cy="-198" rx="86.38" ry="18"/>
<text text-anchor="middle" x="2440.24" y="-194.3" font-family="Times,serif" font-size="14.00">nz0.EntityMaria</text>
</a>
</g>
</g>
<!-- nz0.EntityMaria&#45;&gt;nz0.AnimateEntity -->
<g id="edge10" class="edge">
<title>nz0.EntityMaria&#45;&gt;nz0.AnimateEntity</title>
<path fill="none" stroke="black" d="M2503.07,-185.63C2513.8,-183.73 2524.84,-181.79 2535.24,-180 2866.97,-122.96 3262.84,-58.89 3430.19,-31.99"/>
<polygon fill="black" stroke="black" points="3430.84,-35.43 3440.16,-30.39 3429.73,-28.52 3430.84,-35.43"/>
<text text-anchor="middle" x="2493.57" y="-174.43" font-family="Times,serif" font-size="14.00">14</text>
</g>
<!-- nz0.EntityPrizeDrop -->
<g id="node12" class="node">
<title>nz0.EntityPrizeDrop</title>
<g id="a_node12"><a xlink:href="nz0.EntityPrizeDrop.svg" xlink:title="nz0.EntityPrizeDrop">
<ellipse fill="green" stroke="black" cx="2650.24" cy="-198" rx="105.88" ry="18"/>
<text text-anchor="middle" x="2650.24" y="-194.3" font-family="Times,serif" font-size="14.00">nz0.EntityPrizeDrop</text>
</a>
</g>
</g>
<!-- nz0.EntityPrizeDrop&#45;&gt;nz0.AnimateEntity -->
<g id="edge11" class="edge">
<title>nz0.EntityPrizeDrop&#45;&gt;nz0.AnimateEntity</title>
<path fill="none" stroke="black" d="M2714.6,-183.69C2871.67,-151.22 3273.8,-68.09 3438.86,-33.96"/>
<polygon fill="black" stroke="black" points="3439.83,-37.34 3448.91,-31.89 3438.41,-30.48 3439.83,-37.34"/>
<text text-anchor="middle" x="2709.6" y="-172.49" font-family="Times,serif" font-size="14.00">1</text>
</g>
<!-- nz0.EntityRoomForeground -->
<g id="node13" class="node">
<title>nz0.EntityRoomForeground</title>
<g id="a_node13"><a xlink:href="nz0.EntityRoomForeground.svg" xlink:title="nz0.EntityRoomForeground">
<ellipse fill="green" stroke="black" cx="2914.24" cy="-198" rx="139.98" ry="18"/>
<text text-anchor="middle" x="2914.24" y="-194.3" font-family="Times,serif" font-size="14.00">nz0.EntityRoomForeground</text>
</a>
</g>
</g>
<!-- nz0.EntityRoomForeground&#45;&gt;nz0.AnimateEntity -->
<g id="edge12" class="edge">
<title>nz0.EntityRoomForeground&#45;&gt;nz0.AnimateEntity</title>
<path fill="none" stroke="black" d="M2966.96,-181.28C3078.13,-148.14 3335.89,-71.28 3452.3,-36.57"/>
<polygon fill="black" stroke="black" points="3453.53,-39.86 3462.11,-33.65 3451.53,-33.15 3453.53,-39.86"/>
<text text-anchor="middle" x="2961.96" y="-170.08" font-family="Times,serif" font-size="14.00">1</text>
</g>
<!-- nz0.EntitySkeleton -->
<g id="node14" class="node">
<title>nz0.EntitySkeleton</title>
<g id="a_node14"><a xlink:href="nz0.EntitySkeleton.svg" xlink:title="nz0.EntitySkeleton">
<ellipse fill="green" stroke="black" cx="3171.24" cy="-198" rx="99.38" ry="18"/>
<text text-anchor="middle" x="3171.24" y="-194.3" font-family="Times,serif" font-size="14.00">nz0.EntitySkeleton</text>
</a>
</g>
</g>
<!-- nz0.EntitySkeleton&#45;&gt;nz0.AnimateEntity -->
<g id="edge13" class="edge">
<title>nz0.EntitySkeleton&#45;&gt;nz0.AnimateEntity</title>
<path fill="none" stroke="black" d="M3202.31,-180.73C3264.16,-148.35 3402.59,-75.88 3471.16,-39.98"/>
<polygon fill="black" stroke="black" points="3473.13,-42.9 3480.36,-35.17 3469.88,-36.7 3473.13,-42.9"/>
<text text-anchor="middle" x="3197.31" y="-169.53" font-family="Times,serif" font-size="14.00">5</text>
</g>
<!-- nz0.EntitySlogra -->
<g id="node15" class="node">
<title>nz0.EntitySlogra</title>
<g id="a_node15"><a xlink:href="nz0.EntitySlogra.svg" xlink:title="nz0.EntitySlogra">
<ellipse fill="green" stroke="black" cx="3377.24" cy="-198" rx="89.08" ry="18"/>
<text text-anchor="middle" x="3377.24" y="-194.3" font-family="Times,serif" font-size="14.00">nz0.EntitySlogra</text>
</a>
</g>
</g>
<!-- nz0.EntitySlogra&#45;&gt;nz0.AnimateEntity -->
<g id="edge14" class="edge">
<title>nz0.EntitySlogra&#45;&gt;nz0.AnimateEntity</title>
<path fill="none" stroke="black" d="M3390.09,-179.93C3413.8,-148.43 3464.54,-81.03 3492.24,-44.24"/>
<polygon fill="black" stroke="black" points="3495.21,-46.11 3498.43,-36.02 3489.62,-41.9 3495.21,-46.11"/>
<text text-anchor="middle" x="3380.59" y="-168.73" font-family="Times,serif" font-size="14.00">13</text>
</g>
<!-- nz0.EntitySlograSpearProjectile -->
<g id="node16" class="node">
<title>nz0.EntitySlograSpearProjectile</title>
<g id="a_node16"><a xlink:href="nz0.EntitySlograSpearProjectile.svg" xlink:title="nz0.EntitySlograSpearProjectile">
<ellipse fill="green" stroke="black" cx="3645.24" cy="-198" rx="161.37" ry="18"/>
<text text-anchor="middle" x="3645.24" y="-194.3" font-family="Times,serif" font-size="14.00">nz0.EntitySlograSpearProjectile</text>
</a>
</g>
</g>
<!-- nz0.EntitySlograSpearProjectile&#45;&gt;nz0.AnimateEntity -->
<g id="edge15" class="edge">
<title>nz0.EntitySlograSpearProjectile&#45;&gt;nz0.AnimateEntity</title>
<path fill="none" stroke="black" d="M3632.39,-179.93C3608.68,-148.43 3557.94,-81.03 3530.24,-44.24"/>
<polygon fill="black" stroke="black" points="3532.86,-41.9 3524.05,-36.02 3527.27,-46.11 3532.86,-41.9"/>
<text text-anchor="middle" x="3627.39" y="-168.73" font-family="Times,serif" font-size="14.00">2</text>
</g>
<!-- nz0.EntitySmallGaibonProjectile -->
<g id="node17" class="node">
<title>nz0.EntitySmallGaibonProjectile</title>
<g id="a_node17"><a xlink:href="nz0.EntitySmallGaibonProjectile.svg" xlink:title="nz0.EntitySmallGaibonProjectile">
<ellipse fill="green" stroke="black" cx="3987.24" cy="-198" rx="162.47" ry="18"/>
<text text-anchor="middle" x="3987.24" y="-194.3" font-family="Times,serif" font-size="14.00">nz0.EntitySmallGaibonProjectile</text>
</a>
</g>
</g>
<!-- nz0.EntitySmallGaibonProjectile&#45;&gt;nz0.AnimateEntity -->
<g id="edge16" class="edge">
<title>nz0.EntitySmallGaibonProjectile&#45;&gt;nz0.AnimateEntity</title>
<path fill="none" stroke="black" d="M3943.31,-180.57C3854.84,-147.49 3655.67,-73.01 3561.89,-37.94"/>
<polygon fill="black" stroke="black" points="3562.93,-34.59 3552.34,-34.37 3560.48,-41.15 3562.93,-34.59"/>
<text text-anchor="middle" x="3938.31" y="-169.37" font-family="Times,serif" font-size="14.00">1</text>
</g>
<!-- nz0.EntitySoulStealOrb -->
<g id="node18" class="node">
<title>nz0.EntitySoulStealOrb</title>
<g id="a_node18"><a xlink:href="nz0.EntitySoulStealOrb.svg" xlink:title="nz0.EntitySoulStealOrb">
<ellipse fill="green" stroke="black" cx="4288.24" cy="-198" rx="120.78" ry="18"/>
<text text-anchor="middle" x="4288.24" y="-194.3" font-family="Times,serif" font-size="14.00">nz0.EntitySoulStealOrb</text>
</a>
</g>
</g>
<!-- nz0.EntitySoulStealOrb&#45;&gt;nz0.AnimateEntity -->
<g id="edge17" class="edge">
<title>nz0.EntitySoulStealOrb&#45;&gt;nz0.AnimateEntity</title>
<path fill="none" stroke="black" d="M4225.31,-182.58C4081.4,-149.62 3729.18,-68.93 3579.9,-34.73"/>
<polygon fill="black" stroke="black" points="3580.47,-31.27 3569.94,-32.45 3578.9,-38.09 3580.47,-31.27"/>
<text text-anchor="middle" x="4220.31" y="-171.38" font-family="Times,serif" font-size="14.00">1</text>
</g>
<!-- nz0.EntitySpittleBone -->
<g id="node19" class="node">
<title>nz0.EntitySpittleBone</title>
<g id="a_node19"><a xlink:href="nz0.EntitySpittleBone.svg" xlink:title="nz0.EntitySpittleBone">
<ellipse fill="green" stroke="black" cx="4541.24" cy="-198" rx="113.98" ry="18"/>
<text text-anchor="middle" x="4541.24" y="-194.3" font-family="Times,serif" font-size="14.00">nz0.EntitySpittleBone</text>
</a>
</g>
</g>
<!-- nz0.EntitySpittleBone&#45;&gt;nz0.AnimateEntity -->
<g id="edge18" class="edge">
<title>nz0.EntitySpittleBone&#45;&gt;nz0.AnimateEntity</title>
<path fill="none" stroke="black" d="M4467.58,-184.27C4279.63,-151.79 3783.5,-66.05 3590.05,-32.62"/>
<polygon fill="black" stroke="black" points="3590.41,-29.13 3579.96,-30.88 3589.22,-36.03 3590.41,-29.13"/>
<text text-anchor="middle" x="4462.58" y="-173.07" font-family="Times,serif" font-size="14.00">1</text>
</g>
<!-- nz0.EntitySpittleBoneSpit -->
<g id="node20" class="node">
<title>nz0.EntitySpittleBoneSpit</title>
<g id="a_node20"><a xlink:href="nz0.EntitySpittleBoneSpit.svg" xlink:title="nz0.EntitySpittleBoneSpit">
<ellipse fill="green" stroke="black" cx="4805.24" cy="-198" rx="132.68" ry="18"/>
<text text-anchor="middle" x="4805.24" y="-194.3" font-family="Times,serif" font-size="14.00">nz0.EntitySpittleBoneSpit</text>
</a>
</g>
</g>
<!-- nz0.EntitySpittleBoneSpit&#45;&gt;nz0.AnimateEntity -->
<g id="edge19" class="edge">
<title>nz0.EntitySpittleBoneSpit&#45;&gt;nz0.AnimateEntity</title>
<path fill="none" stroke="black" d="M4715.79,-184.7C4477.77,-151.95 3831.15,-63.01 3597.19,-30.82"/>
<polygon fill="black" stroke="black" points="3597.42,-27.32 3587.04,-29.43 3596.47,-34.26 3597.42,-27.32"/>
<text text-anchor="middle" x="4710.79" y="-173.5" font-family="Times,serif" font-size="14.00">1</text>
</g>
<!-- nz0.EntityTableWithGlobe -->
<g id="node21" class="node">
<title>nz0.EntityTableWithGlobe</title>
<g id="a_node21"><a xlink:href="nz0.EntityTableWithGlobe.svg" xlink:title="nz0.EntityTableWithGlobe">
<ellipse fill="green" stroke="black" cx="5088.24" cy="-198" rx="132.68" ry="18"/>
<text text-anchor="middle" x="5088.24" y="-194.3" font-family="Times,serif" font-size="14.00">nz0.EntityTableWithGlobe</text>
</a>
</g>
</g>
<!-- nz0.EntityTableWithGlobe&#45;&gt;nz0.AnimateEntity -->
<g id="edge20" class="edge">
<title>nz0.EntityTableWithGlobe&#45;&gt;nz0.AnimateEntity</title>
<path fill="none" stroke="black" d="M4993.07,-185.42C4977.75,-183.58 4962.06,-181.72 4947.24,-180 4439.84,-120.97 3831.12,-53.99 3603.27,-29.05"/>
<polygon fill="black" stroke="black" points="3603.35,-25.54 3593.03,-27.93 3602.59,-32.5 3603.35,-25.54"/>
<text text-anchor="middle" x="4988.07" y="-174.22" font-family="Times,serif" font-size="14.00">2</text>
</g>
<!-- nz0.EntityWargExplosionPuffOpaque -->
<g id="node22" class="node">
<title>nz0.EntityWargExplosionPuffOpaque</title>
<g id="a_node22"><a xlink:href="nz0.EntityWargExplosionPuffOpaque.svg" xlink:title="nz0.EntityWargExplosionPuffOpaque">
<ellipse fill="green" stroke="black" cx="5421.24" cy="-198" rx="182.77" ry="18"/>
<text text-anchor="middle" x="5421.24" y="-194.3" font-family="Times,serif" font-size="14.00">nz0.EntityWargExplosionPuffOpaque</text>
</a>
</g>
</g>
<!-- nz0.EntityWargExplosionPuffOpaque&#45;&gt;nz0.AnimateEntity -->
<g id="edge21" class="edge">
<title>nz0.EntityWargExplosionPuffOpaque&#45;&gt;nz0.AnimateEntity</title>
<path fill="none" stroke="black" d="M5293.7,-185.11C4934.77,-151.66 3921.69,-57.25 3606.23,-27.85"/>
<polygon fill="black" stroke="black" points="3606.48,-24.36 3596.2,-26.92 3605.83,-31.33 3606.48,-24.36"/>
<text text-anchor="middle" x="5288.7" y="-173.91" font-family="Times,serif" font-size="14.00">2</text>
</g>
<!-- nz0.func_801B0958 -->
<g id="node23" class="node">
<title>nz0.func_801B0958</title>
<g id="a_node23"><a xlink:href="nz0.func_801B0958.svg" xlink:title="nz0.func_801B0958">
<ellipse fill="green" stroke="black" cx="5724.24" cy="-198" rx="102.88" ry="18"/>
<text text-anchor="middle" x="5724.24" y="-194.3" font-family="Times,serif" font-size="14.00">nz0.func_801B0958</text>
</a>
</g>
</g>
<!-- nz0.func_801B0958&#45;&gt;nz0.AnimateEntity -->
<g id="edge22" class="edge">
<title>nz0.func_801B0958&#45;&gt;nz0.AnimateEntity</title>
<path fill="none" stroke="black" d="M5652.1,-185.14C5639.18,-183.25 5625.83,-181.44 5613.24,-180 4847.66,-92.18 3919.55,-39.91 3614.1,-24.12"/>
<polygon fill="black" stroke="black" points="3614.1,-20.61 3603.94,-23.59 3613.74,-27.61 3614.1,-20.61"/>
<text text-anchor="middle" x="5647.1" y="-173.94" font-family="Times,serif" font-size="14.00">1</text>
</g>
<!-- nz0.func_801B3648 -->
<g id="node24" class="node">
<title>nz0.func_801B3648</title>
<g id="a_node24"><a xlink:href="nz0.func_801B3648.svg" xlink:title="nz0.func_801B3648">
<ellipse fill="green" stroke="black" cx="5947.24" cy="-198" rx="102.88" ry="18"/>
<text text-anchor="middle" x="5947.24" y="-194.3" font-family="Times,serif" font-size="14.00">nz0.func_801B3648</text>
</a>
</g>
</g>
<!-- nz0.func_801B3648&#45;&gt;nz0.AnimateEntity -->
<g id="edge23" class="edge">
<title>nz0.func_801B3648&#45;&gt;nz0.AnimateEntity</title>
<path fill="none" stroke="black" d="M5875.41,-185.11C5862.4,-183.21 5848.93,-181.41 5836.24,-180 4981.67,-85.14 3943.78,-36.83 3615.77,-23.15"/>
<polygon fill="black" stroke="black" points="3615.48,-19.63 3605.34,-22.71 3615.19,-26.63 3615.48,-19.63"/>
<text text-anchor="middle" x="5870.41" y="-173.91" font-family="Times,serif" font-size="14.00">2</text>
</g>
<!-- nz0.func_801B37C0 -->
<g id="node25" class="node">
<title>nz0.func_801B37C0</title>
<g id="a_node25"><a xlink:href="nz0.func_801B37C0.svg" xlink:title="nz0.func_801B37C0">
<ellipse fill="green" stroke="black" cx="6171.24" cy="-198" rx="103.18" ry="18"/>
<text text-anchor="middle" x="6171.24" y="-194.3" font-family="Times,serif" font-size="14.00">nz0.func_801B37C0</text>
</a>
</g>
</g>
<!-- nz0.func_801B37C0&#45;&gt;nz0.AnimateEntity -->
<g id="edge24" class="edge">
<title>nz0.func_801B37C0&#45;&gt;nz0.AnimateEntity</title>
<path fill="none" stroke="black" d="M6099.06,-185.1C6085.84,-183.19 6072.15,-181.38 6059.24,-180 5114.41,-78.64 3965.12,-34.14 3616.44,-22.34"/>
<polygon fill="black" stroke="black" points="3616.47,-18.84 3606.36,-22.01 3616.23,-25.84 3616.47,-18.84"/>
<text text-anchor="middle" x="6094.06" y="-173.9" font-family="Times,serif" font-size="14.00">2</text>
</g>
<!-- nz0.func_801B3A50 -->
<g id="node26" class="node">
<title>nz0.func_801B3A50</title>
<g id="a_node26"><a xlink:href="nz0.func_801B3A50.svg" xlink:title="nz0.func_801B3A50">
<ellipse fill="green" stroke="black" cx="6395.24" cy="-198" rx="102.88" ry="18"/>
<text text-anchor="middle" x="6395.24" y="-194.3" font-family="Times,serif" font-size="14.00">nz0.func_801B3A50</text>
</a>
</g>
</g>
<!-- nz0.func_801B3A50&#45;&gt;nz0.AnimateEntity -->
<g id="edge25" class="edge">
<title>nz0.func_801B3A50&#45;&gt;nz0.AnimateEntity</title>
<path fill="none" stroke="black" d="M6323.37,-185.08C6310.06,-183.16 6296.25,-181.36 6283.24,-180 5247.76,-71.58 3986.46,-31.51 3617.39,-21.62"/>
<polygon fill="black" stroke="black" points="3617.34,-18.12 3607.25,-21.36 3617.16,-25.12 3617.34,-18.12"/>
<text text-anchor="middle" x="6318.37" y="-173.88" font-family="Times,serif" font-size="14.00">1</text>
</g>
<!-- nz0.func_801C16B4 -->
<g id="node27" class="node">
<title>nz0.func_801C16B4</title>
<g id="a_node27"><a xlink:href="nz0.func_801C16B4.svg" xlink:title="nz0.func_801C16B4">
<ellipse fill="green" stroke="black" cx="6619.24" cy="-198" rx="103.18" ry="18"/>
<text text-anchor="middle" x="6619.24" y="-194.3" font-family="Times,serif" font-size="14.00">nz0.func_801C16B4</text>
</a>
</g>
</g>
<!-- nz0.func_801C16B4&#45;&gt;nz0.AnimateEntity -->
<g id="edge26" class="edge">
<title>nz0.func_801C16B4&#45;&gt;nz0.AnimateEntity</title>
<path fill="none" stroke="black" d="M6547.37,-185.04C6534.06,-183.12 6520.25,-181.33 6507.24,-180 5380.49,-64.49 4006.3,-29.05 3617.96,-21"/>
<polygon fill="black" stroke="black" points="3617.93,-17.49 3607.86,-20.79 3617.79,-24.49 3617.93,-17.49"/>
<text text-anchor="middle" x="6542.37" y="-173.84" font-family="Times,serif" font-size="14.00">1</text>
</g>
<!-- nz0.func_801C7654 -->
<g id="node28" class="node">
<title>nz0.func_801C7654</title>
<g id="a_node28"><a xlink:href="nz0.func_801C7654.svg" xlink:title="nz0.func_801C7654">
<ellipse fill="green" stroke="black" cx="6843.24" cy="-198" rx="102.88" ry="18"/>
<text text-anchor="middle" x="6843.24" y="-194.3" font-family="Times,serif" font-size="14.00">nz0.func_801C7654</text>
</a>
</g>
</g>
<!-- nz0.func_801C7654&#45;&gt;nz0.AnimateEntity -->
<g id="edge27" class="edge">
<title>nz0.func_801C7654&#45;&gt;nz0.AnimateEntity</title>
<path fill="none" stroke="black" d="M6771.68,-185.04C6758.27,-183.11 6744.35,-181.32 6731.24,-180 5512.7,-57.37 4024.9,-26.75 3618.26,-20.44"/>
<polygon fill="black" stroke="black" points="3618.04,-16.94 3607.99,-20.28 3617.93,-23.94 3618.04,-16.94"/>
<text text-anchor="middle" x="6766.68" y="-173.84" font-family="Times,serif" font-size="14.00">1</text>
</g>
<!-- nz0.func_801C7884 -->
<g id="node29" class="node">
<title>nz0.func_801C7884</title>
<g id="a_node29"><a xlink:href="nz0.func_801C7884.svg" xlink:title="nz0.func_801C7884">
<ellipse fill="green" stroke="black" cx="7066.24" cy="-198" rx="102.88" ry="18"/>
<text text-anchor="middle" x="7066.24" y="-194.3" font-family="Times,serif" font-size="14.00">nz0.func_801C7884</text>
</a>
</g>
</g>
<!-- nz0.func_801C7884&#45;&gt;nz0.AnimateEntity -->
<g id="edge28" class="edge">
<title>nz0.func_801C7884&#45;&gt;nz0.AnimateEntity</title>
<path fill="none" stroke="black" d="M6995.03,-184.96C6981.83,-183.05 6968.14,-181.29 6955.24,-180 5644.73,-49.38 4042.85,-24.36 3618.52,-19.91"/>
<polygon fill="black" stroke="black" points="3618.45,-16.41 3608.41,-19.8 3618.38,-23.41 3618.45,-16.41"/>
<text text-anchor="middle" x="6990.03" y="-173.76" font-family="Times,serif" font-size="14.00">1</text>
</g>
</g>
</svg>
