<?xml version="1.0" encoding="UTF-8" standalone="no"?>
<!DOCTYPE svg PUBLIC "-//W3C//DTD SVG 1.1//EN"
 "http://www.w3.org/Graphics/SVG/1.1/DTD/svg11.dtd">
<!-- Generated by graphviz version 2.43.0 (0)
 -->
<!-- Title: nz0.UnkCollisionFunc Pages: 1 -->
<svg width="440pt" height="404pt"
 viewBox="0.00 0.00 439.68 404.00" xmlns="http://www.w3.org/2000/svg" xmlns:xlink="http://www.w3.org/1999/xlink">
<g id="graph0" class="graph" transform="scale(1 1) rotate(0) translate(4 400)">
<title>nz0.UnkCollisionFunc</title>
<polygon fill="white" stroke="transparent" points="-4,4 -4,-400 435.68,-400 435.68,4 -4,4"/>
<!-- nz0.UnkCollisionFunc -->
<g id="node1" class="node">
<title>nz0.UnkCollisionFunc</title>
<ellipse fill="green" stroke="black" cx="214.69" cy="-198" rx="112.38" ry="18"/>
<text text-anchor="middle" x="214.69" y="-194.3" font-family="Times,serif" font-size="14.00">nz0.UnkCollisionFunc</text>
</g>
<!-- dra.CheckCollision -->
<g id="node2" class="node">
<title>dra.CheckCollision</title>
<g id="a_node2"><a xlink:href="dra.CheckCollision.svg" xlink:title="dra.CheckCollision">
<ellipse fill="green" stroke="black" cx="214.69" cy="-18" rx="97.48" ry="18"/>
<text text-anchor="middle" x="214.69" y="-14.3" font-family="Times,serif" font-size="14.00">dra.CheckCollision</text>
</a>
</g>
</g>
<!-- nz0.UnkCollisionFunc&#45;&gt;dra.CheckCollision -->
<g id="edge1" class="edge">
<title>nz0.UnkCollisionFunc&#45;&gt;dra.CheckCollision</title>
<path fill="none" stroke="black" d="M214.69,-179.93C214.69,-148.97 214.69,-83.3 214.69,-46.13"/>
<polygon fill="black" stroke="black" points="218.19,-46.02 214.69,-36.02 211.19,-46.02 218.19,-46.02"/>
<text text-anchor="middle" x="209.69" y="-39.82" font-family="Times,serif" font-size="14.00">1</text>
</g>
<!-- nz0.func_801C3708 -->
<g id="node3" class="node">
<title>nz0.func_801C3708</title>
<g id="a_node3"><a xlink:href="nz0.func_801C3708.svg" xlink:title="nz0.func_801C3708">
<ellipse fill="green" stroke="black" cx="102.69" cy="-378" rx="102.88" ry="18"/>
<text text-anchor="middle" x="102.69" y="-374.3" font-family="Times,serif" font-size="14.00">nz0.func_801C3708</text>
</a>
</g>
</g>
<!-- nz0.func_801C3708&#45;&gt;nz0.UnkCollisionFunc -->
<g id="edge2" class="edge">
<title>nz0.func_801C3708&#45;&gt;nz0.UnkCollisionFunc</title>
<path fill="none" stroke="black" d="M113.43,-359.93C133.17,-328.57 175.3,-261.6 198.52,-224.71"/>
<polygon fill="black" stroke="black" points="201.62,-226.34 203.98,-216.02 195.7,-222.62 201.62,-226.34"/>
<text text-anchor="middle" x="108.43" y="-348.73" font-family="Times,serif" font-size="14.00">1</text>
</g>
<!-- nz0.func_801C5F2C -->
<g id="node4" class="node">
<title>nz0.func_801C5F2C</title>
<g id="a_node4"><a xlink:href="nz0.func_801C5F2C.svg" xlink:title="nz0.func_801C5F2C">
<ellipse fill="green" stroke="black" cx="327.69" cy="-378" rx="103.98" ry="18"/>
<text text-anchor="middle" x="327.69" y="-374.3" font-family="Times,serif" font-size="14.00">nz0.func_801C5F2C</text>
</a>
</g>
</g>
<!-- nz0.func_801C5F2C&#45;&gt;nz0.UnkCollisionFunc -->
<g id="edge3" class="edge">
<title>nz0.func_801C5F2C&#45;&gt;nz0.UnkCollisionFunc</title>
<path fill="none" stroke="black" d="M316.86,-359.93C296.94,-328.57 254.43,-261.6 231.01,-224.71"/>
<polygon fill="black" stroke="black" points="233.81,-222.58 225.49,-216.02 227.9,-226.33 233.81,-222.58"/>
<text text-anchor="middle" x="311.86" y="-348.73" font-family="Times,serif" font-size="14.00">1</text>
</g>
</g>
</svg>
