<?xml version="1.0" encoding="UTF-8" standalone="no"?>
<!DOCTYPE svg PUBLIC "-//W3C//DTD SVG 1.1//EN"
 "http://www.w3.org/Graphics/SVG/1.1/DTD/svg11.dtd">
<!-- Generated by graphviz version 2.43.0 (0)
 -->
<!-- Title: nz0.EntityPrizeDrop Pages: 1 -->
<svg width="3667pt" height="404pt"
 viewBox="0.00 0.00 3667.08 404.00" xmlns="http://www.w3.org/2000/svg" xmlns:xlink="http://www.w3.org/1999/xlink">
<g id="graph0" class="graph" transform="scale(1 1) rotate(0) translate(4 400)">
<title>nz0.EntityPrizeDrop</title>
<polygon fill="white" stroke="transparent" points="-4,4 -4,-400 3663.08,-400 3663.08,4 -4,4"/>
<!-- nz0.EntityPrizeDrop -->
<g id="node1" class="node">
<title>nz0.EntityPrizeDrop</title>
<ellipse fill="green" stroke="black" cx="1852.44" cy="-198" rx="105.88" ry="18"/>
<text text-anchor="middle" x="1852.44" y="-194.3" font-family="Times,serif" font-size="14.00">nz0.EntityPrizeDrop</text>
</g>
<!-- dra.AllocPrimitives -->
<g id="node2" class="node">
<title>dra.AllocPrimitives</title>
<g id="a_node2"><a xlink:href="dra.AllocPrimitives.svg" xlink:title="dra.AllocPrimitives">
<ellipse fill="green" stroke="black" cx="99.44" cy="-18" rx="99.38" ry="18"/>
<text text-anchor="middle" x="99.44" y="-14.3" font-family="Times,serif" font-size="14.00">dra.AllocPrimitives</text>
</a>
</g>
</g>
<!-- nz0.EntityPrizeDrop&#45;&gt;dra.AllocPrimitives -->
<g id="edge1" class="edge">
<title>nz0.EntityPrizeDrop&#45;&gt;dra.AllocPrimitives</title>
<path fill="none" stroke="black" d="M1758.17,-189.66C1506.2,-169.65 796.29,-110.56 208.44,-36 199.37,-34.85 189.89,-33.54 180.48,-32.16"/>
<polygon fill="black" stroke="black" points="180.71,-28.66 170.3,-30.65 179.68,-35.58 180.71,-28.66"/>
<text text-anchor="middle" x="165.3" y="-34.45" font-family="Times,serif" font-size="14.00">1</text>
</g>
<!-- dra.CheckCollision -->
<g id="node3" class="node">
<title>dra.CheckCollision</title>
<g id="a_node3"><a xlink:href="dra.CheckCollision.svg" xlink:title="dra.CheckCollision">
<ellipse fill="green" stroke="black" cx="314.44" cy="-18" rx="97.48" ry="18"/>
<text text-anchor="middle" x="314.44" y="-14.3" font-family="Times,serif" font-size="14.00">dra.CheckCollision</text>
</a>
</g>
</g>
<!-- nz0.EntityPrizeDrop&#45;&gt;dra.CheckCollision -->
<g id="edge2" class="edge">
<title>nz0.EntityPrizeDrop&#45;&gt;dra.CheckCollision</title>
<path fill="none" stroke="black" d="M1762.62,-188.38C1536.7,-166.39 926.75,-105.02 420.44,-36 411.85,-34.83 402.89,-33.52 393.97,-32.17"/>
<polygon fill="black" stroke="black" points="394.35,-28.69 383.93,-30.62 393.29,-35.61 394.35,-28.69"/>
<text text-anchor="middle" x="378.93" y="-34.42" font-family="Times,serif" font-size="14.00">4</text>
</g>
<!-- dra.FreePrimitives -->
<g id="node4" class="node">
<title>dra.FreePrimitives</title>
<g id="a_node4"><a xlink:href="dra.FreePrimitives.svg" xlink:title="dra.FreePrimitives">
<ellipse fill="green" stroke="black" cx="528.44" cy="-18" rx="98.58" ry="18"/>
<text text-anchor="middle" x="528.44" y="-14.3" font-family="Times,serif" font-size="14.00">dra.FreePrimitives</text>
</a>
</g>
</g>
<!-- nz0.EntityPrizeDrop&#45;&gt;dra.FreePrimitives -->
<g id="edge3" class="edge">
<title>nz0.EntityPrizeDrop&#45;&gt;dra.FreePrimitives</title>
<path fill="none" stroke="black" d="M1769.41,-186.72C1572.52,-162.18 1061.9,-97.64 636.44,-36 627.84,-34.75 618.87,-33.41 609.92,-32.04"/>
<polygon fill="black" stroke="black" points="610.28,-28.56 599.86,-30.49 609.21,-35.48 610.28,-28.56"/>
<text text-anchor="middle" x="594.86" y="-34.29" font-family="Times,serif" font-size="14.00">1</text>
</g>
<!-- nz0.AnimateEntity -->
<g id="node5" class="node">
<title>nz0.AnimateEntity</title>
<g id="a_node5"><a xlink:href="nz0.AnimateEntity.svg" xlink:title="nz0.AnimateEntity">
<ellipse fill="green" stroke="black" cx="742.44" cy="-18" rx="97.48" ry="18"/>
<text text-anchor="middle" x="742.44" y="-14.3" font-family="Times,serif" font-size="14.00">nz0.AnimateEntity</text>
</a>
</g>
</g>
<!-- nz0.EntityPrizeDrop&#45;&gt;nz0.AnimateEntity -->
<g id="edge4" class="edge">
<title>nz0.EntityPrizeDrop&#45;&gt;nz0.AnimateEntity</title>
<path fill="none" stroke="black" d="M1778.32,-185.11C1578.68,-153.1 1030.79,-65.24 823.42,-31.99"/>
<polygon fill="black" stroke="black" points="823.93,-28.52 813.5,-30.4 822.82,-35.44 823.93,-28.52"/>
<text text-anchor="middle" x="808.5" y="-34.2" font-family="Times,serif" font-size="14.00">1</text>
</g>
<!-- nz0.CheckFieldCollision -->
<g id="node6" class="node">
<title>nz0.CheckFieldCollision</title>
<g id="a_node6"><a xlink:href="nz0.CheckFieldCollision.svg" xlink:title="nz0.CheckFieldCollision">
<ellipse fill="green" stroke="black" cx="980.44" cy="-18" rx="122.38" ry="18"/>
<text text-anchor="middle" x="980.44" y="-14.3" font-family="Times,serif" font-size="14.00">nz0.CheckFieldCollision</text>
</a>
</g>
</g>
<!-- nz0.EntityPrizeDrop&#45;&gt;nz0.CheckFieldCollision -->
<g id="edge5" class="edge">
<title>nz0.EntityPrizeDrop&#45;&gt;nz0.CheckFieldCollision</title>
<path fill="none" stroke="black" d="M1787.26,-183.69C1629.76,-151.55 1229.02,-69.74 1058.82,-35"/>
<polygon fill="black" stroke="black" points="1059.42,-31.55 1048.92,-32.98 1058.02,-38.41 1059.42,-31.55"/>
<text text-anchor="middle" x="1043.92" y="-36.78" font-family="Times,serif" font-size="14.00">2</text>
</g>
<!-- nz0.CollectGold -->
<g id="node7" class="node">
<title>nz0.CollectGold</title>
<g id="a_node7"><a xlink:href="nz0.CollectGold.svg" xlink:title="nz0.CollectGold">
<ellipse fill="green" stroke="black" cx="1204.44" cy="-18" rx="83.69" ry="18"/>
<text text-anchor="middle" x="1204.44" y="-14.3" font-family="Times,serif" font-size="14.00">nz0.CollectGold</text>
</a>
</g>
</g>
<!-- nz0.EntityPrizeDrop&#45;&gt;nz0.CollectGold -->
<g id="edge6" class="edge">
<title>nz0.EntityPrizeDrop&#45;&gt;nz0.CollectGold</title>
<path fill="none" stroke="black" d="M1799.14,-182.36C1679.31,-149.44 1389.38,-69.8 1263.93,-35.34"/>
<polygon fill="black" stroke="black" points="1264.68,-31.92 1254.11,-32.64 1262.83,-38.67 1264.68,-31.92"/>
<text text-anchor="middle" x="1249.11" y="-36.44" font-family="Times,serif" font-size="14.00">1</text>
</g>
<!-- nz0.CollectHeart -->
<g id="node8" class="node">
<title>nz0.CollectHeart</title>
<g id="a_node8"><a xlink:href="nz0.CollectHeart.svg" xlink:title="nz0.CollectHeart">
<ellipse fill="green" stroke="black" cx="1395.44" cy="-18" rx="89.08" ry="18"/>
<text text-anchor="middle" x="1395.44" y="-14.3" font-family="Times,serif" font-size="14.00">nz0.CollectHeart</text>
</a>
</g>
</g>
<!-- nz0.EntityPrizeDrop&#45;&gt;nz0.CollectHeart -->
<g id="edge7" class="edge">
<title>nz0.EntityPrizeDrop&#45;&gt;nz0.CollectHeart</title>
<path fill="none" stroke="black" d="M1811.89,-181.2C1727.79,-148.45 1534.72,-73.25 1444.09,-37.95"/>
<polygon fill="black" stroke="black" points="1445.19,-34.62 1434.61,-34.25 1442.65,-41.15 1445.19,-34.62"/>
<text text-anchor="middle" x="1429.61" y="-38.05" font-family="Times,serif" font-size="14.00">1</text>
</g>
<!-- nz0.CollectHeartVessel -->
<g id="node9" class="node">
<title>nz0.CollectHeartVessel</title>
<g id="a_node9"><a xlink:href="nz0.CollectHeartVessel.svg" xlink:title="nz0.CollectHeartVessel">
<ellipse fill="green" stroke="black" cx="1620.44" cy="-18" rx="118.08" ry="18"/>
<text text-anchor="middle" x="1620.44" y="-14.3" font-family="Times,serif" font-size="14.00">nz0.CollectHeartVessel</text>
</a>
</g>
</g>
<!-- nz0.EntityPrizeDrop&#45;&gt;nz0.CollectHeartVessel -->
<g id="edge8" class="edge">
<title>nz0.EntityPrizeDrop&#45;&gt;nz0.CollectHeartVessel</title>
<path fill="none" stroke="black" d="M1830.62,-180.25C1788.9,-148.25 1697.81,-78.36 1650.42,-42"/>
<polygon fill="black" stroke="black" points="1652.44,-39.14 1642.38,-35.83 1648.18,-44.7 1652.44,-39.14"/>
<text text-anchor="middle" x="1637.38" y="-39.63" font-family="Times,serif" font-size="14.00">1</text>
</g>
<!-- nz0.DestroyEntity -->
<g id="node10" class="node">
<title>nz0.DestroyEntity</title>
<g id="a_node10"><a xlink:href="nz0.DestroyEntity.svg" xlink:title="nz0.DestroyEntity">
<ellipse fill="green" stroke="black" cx="1852.44" cy="-18" rx="95.58" ry="18"/>
<text text-anchor="middle" x="1852.44" y="-14.3" font-family="Times,serif" font-size="14.00">nz0.DestroyEntity</text>
</a>
</g>
</g>
<!-- nz0.EntityPrizeDrop&#45;&gt;nz0.DestroyEntity -->
<g id="edge9" class="edge">
<title>nz0.EntityPrizeDrop&#45;&gt;nz0.DestroyEntity</title>
<path fill="none" stroke="black" d="M1852.44,-179.93C1852.44,-148.97 1852.44,-83.3 1852.44,-46.13"/>
<polygon fill="black" stroke="black" points="1855.94,-46.02 1852.44,-36.02 1848.94,-46.02 1855.94,-46.02"/>
<text text-anchor="middle" x="1847.44" y="-39.82" font-family="Times,serif" font-size="14.00">2</text>
</g>
<!-- nz0.FallEntity -->
<g id="node11" class="node">
<title>nz0.FallEntity</title>
<g id="a_node11"><a xlink:href="nz0.FallEntity.svg" xlink:title="nz0.FallEntity">
<ellipse fill="green" stroke="black" cx="2042.44" cy="-18" rx="76.09" ry="18"/>
<text text-anchor="middle" x="2042.44" y="-14.3" font-family="Times,serif" font-size="14.00">nz0.FallEntity</text>
</a>
</g>
</g>
<!-- nz0.EntityPrizeDrop&#45;&gt;nz0.FallEntity -->
<g id="edge10" class="edge">
<title>nz0.EntityPrizeDrop&#45;&gt;nz0.FallEntity</title>
<path fill="none" stroke="black" d="M1870.32,-180.25C1904.21,-148.5 1977.92,-79.45 2016.97,-42.86"/>
<polygon fill="black" stroke="black" points="2019.85,-44.96 2024.75,-35.57 2015.06,-39.85 2019.85,-44.96"/>
<text text-anchor="middle" x="2019.75" y="-39.37" font-family="Times,serif" font-size="14.00">2</text>
</g>
<!-- nz0.InitializeEntity -->
<g id="node12" class="node">
<title>nz0.InitializeEntity</title>
<g id="a_node12"><a xlink:href="nz0.InitializeEntity.svg" xlink:title="nz0.InitializeEntity">
<ellipse fill="green" stroke="black" cx="2235.44" cy="-18" rx="99.38" ry="18"/>
<text text-anchor="middle" x="2235.44" y="-14.3" font-family="Times,serif" font-size="14.00">nz0.InitializeEntity</text>
</a>
</g>
</g>
<!-- nz0.EntityPrizeDrop&#45;&gt;nz0.InitializeEntity -->
<g id="edge11" class="edge">
<title>nz0.EntityPrizeDrop&#45;&gt;nz0.InitializeEntity</title>
<path fill="none" stroke="black" d="M1887.11,-180.89C1957.03,-148.39 2114.86,-75.04 2191.73,-39.32"/>
<polygon fill="black" stroke="black" points="2193.54,-42.33 2201.13,-34.95 2190.59,-35.99 2193.54,-42.33"/>
<text text-anchor="middle" x="2196.13" y="-38.75" font-family="Times,serif" font-size="14.00">1</text>
</g>
<!-- nz0.MoveEntity -->
<g id="node13" class="node">
<title>nz0.MoveEntity</title>
<g id="a_node13"><a xlink:href="nz0.MoveEntity.svg" xlink:title="nz0.MoveEntity">
<ellipse fill="green" stroke="black" cx="2437.44" cy="-18" rx="84.49" ry="18"/>
<text text-anchor="middle" x="2437.44" y="-14.3" font-family="Times,serif" font-size="14.00">nz0.MoveEntity</text>
</a>
</g>
</g>
<!-- nz0.EntityPrizeDrop&#45;&gt;nz0.MoveEntity -->
<g id="edge12" class="edge">
<title>nz0.EntityPrizeDrop&#45;&gt;nz0.MoveEntity</title>
<path fill="none" stroke="black" d="M1901.81,-181.98C2009.95,-149.07 2267.14,-70.82 2381.25,-36.1"/>
<polygon fill="black" stroke="black" points="2382.3,-39.44 2390.85,-33.18 2380.27,-32.74 2382.3,-39.44"/>
<text text-anchor="middle" x="2385.85" y="-36.98" font-family="Times,serif" font-size="14.00">2</text>
</g>
<!-- nz0.func_801BDD9C -->
<g id="node14" class="node">
<title>nz0.func_801BDD9C</title>
<g id="a_node14"><a xlink:href="nz0.func_801BDD9C.svg" xlink:title="nz0.func_801BDD9C">
<ellipse fill="green" stroke="black" cx="2646.44" cy="-18" rx="106.68" ry="18"/>
<text text-anchor="middle" x="2646.44" y="-14.3" font-family="Times,serif" font-size="14.00">nz0.func_801BDD9C</text>
</a>
</g>
</g>
<!-- nz0.EntityPrizeDrop&#45;&gt;nz0.func_801BDD9C -->
<g id="edge13" class="edge">
<title>nz0.EntityPrizeDrop&#45;&gt;nz0.func_801BDD9C</title>
<path fill="none" stroke="black" d="M1913.76,-183.25C2058.53,-150.8 2420.98,-69.54 2575.19,-34.97"/>
<polygon fill="black" stroke="black" points="2576.05,-38.37 2585.04,-32.76 2574.52,-31.54 2576.05,-38.37"/>
<text text-anchor="middle" x="2580.04" y="-36.56" font-family="Times,serif" font-size="14.00">1</text>
</g>
<!-- nz0.func_801BDE20 -->
<g id="node15" class="node">
<title>nz0.func_801BDE20</title>
<g id="a_node15"><a xlink:href="nz0.func_801BDE20.svg" xlink:title="nz0.func_801BDE20">
<ellipse fill="green" stroke="black" cx="2875.44" cy="-18" rx="104.78" ry="18"/>
<text text-anchor="middle" x="2875.44" y="-14.3" font-family="Times,serif" font-size="14.00">nz0.func_801BDE20</text>
</a>
</g>
</g>
<!-- nz0.EntityPrizeDrop&#45;&gt;nz0.func_801BDE20 -->
<g id="edge14" class="edge">
<title>nz0.EntityPrizeDrop&#45;&gt;nz0.func_801BDE20</title>
<path fill="none" stroke="black" d="M1923.56,-184.62C2107.95,-152.54 2600.51,-66.84 2794.92,-33.01"/>
<polygon fill="black" stroke="black" points="2795.54,-36.46 2804.79,-31.29 2794.34,-29.56 2795.54,-36.46"/>
<text text-anchor="middle" x="2799.79" y="-35.09" font-family="Times,serif" font-size="14.00">3</text>
</g>
<!-- nz0.func_801BE0D8 -->
<g id="node16" class="node">
<title>nz0.func_801BE0D8</title>
<g id="a_node16"><a xlink:href="nz0.func_801BE0D8.svg" xlink:title="nz0.func_801BE0D8">
<ellipse fill="green" stroke="black" cx="3102.44" cy="-18" rx="104.78" ry="18"/>
<text text-anchor="middle" x="3102.44" y="-14.3" font-family="Times,serif" font-size="14.00">nz0.func_801BE0D8</text>
</a>
</g>
</g>
<!-- nz0.EntityPrizeDrop&#45;&gt;nz0.func_801BE0D8 -->
<g id="edge15" class="edge">
<title>nz0.EntityPrizeDrop&#45;&gt;nz0.func_801BE0D8</title>
<path fill="none" stroke="black" d="M1931.74,-186.01C2116.95,-160.3 2592.43,-93.97 2989.44,-36 2998.31,-34.71 3007.56,-33.34 3016.79,-31.97"/>
<polygon fill="black" stroke="black" points="3017.41,-35.41 3026.78,-30.48 3016.37,-28.49 3017.41,-35.41"/>
<text text-anchor="middle" x="3021.78" y="-34.28" font-family="Times,serif" font-size="14.00">1</text>
</g>
<!-- nz0.func_801BE294 -->
<g id="node17" class="node">
<title>nz0.func_801BE294</title>
<g id="a_node17"><a xlink:href="nz0.func_801BE294.svg" xlink:title="nz0.func_801BE294">
<ellipse fill="green" stroke="black" cx="3328.44" cy="-18" rx="103.18" ry="18"/>
<text text-anchor="middle" x="3328.44" y="-14.3" font-family="Times,serif" font-size="14.00">nz0.func_801BE294</text>
</a>
</g>
</g>
<!-- nz0.EntityPrizeDrop&#45;&gt;nz0.func_801BE294 -->
<g id="edge16" class="edge">
<title>nz0.EntityPrizeDrop&#45;&gt;nz0.func_801BE294</title>
<path fill="none" stroke="black" d="M1939.54,-187.73C2155.87,-164.49 2734.96,-100.94 3216.44,-36 3225.46,-34.78 3234.87,-33.45 3244.25,-32.09"/>
<polygon fill="black" stroke="black" points="3245.01,-35.51 3254.39,-30.59 3243.99,-28.59 3245.01,-35.51"/>
<text text-anchor="middle" x="3249.39" y="-34.39" font-family="Times,serif" font-size="14.00">1</text>
</g>
<!-- nz0.func_801BE2E4 -->
<g id="node18" class="node">
<title>nz0.func_801BE2E4</title>
<g id="a_node18"><a xlink:href="nz0.func_801BE2E4.svg" xlink:title="nz0.func_801BE2E4">
<ellipse fill="green" stroke="black" cx="3554.44" cy="-18" rx="104.78" ry="18"/>
<text text-anchor="middle" x="3554.44" y="-14.3" font-family="Times,serif" font-size="14.00">nz0.func_801BE2E4</text>
</a>
</g>
</g>
<!-- nz0.EntityPrizeDrop&#45;&gt;nz0.func_801BE2E4 -->
<g id="edge17" class="edge">
<title>nz0.EntityPrizeDrop&#45;&gt;nz0.func_801BE2E4</title>
<path fill="none" stroke="black" d="M1944.8,-189.17C2189.26,-168.1 2873.33,-106.99 3440.44,-36 3449.87,-34.82 3459.73,-33.49 3469.53,-32.11"/>
<polygon fill="black" stroke="black" points="3470.29,-35.54 3479.7,-30.66 3469.3,-28.61 3470.29,-35.54"/>
<text text-anchor="middle" x="3474.7" y="-34.46" font-family="Times,serif" font-size="14.00">1</text>
</g>
<!-- nz0.EntityEquipItemDrop -->
<g id="node19" class="node">
<title>nz0.EntityEquipItemDrop</title>
<g id="a_node19"><a xlink:href="nz0.EntityEquipItemDrop.svg" xlink:title="nz0.EntityEquipItemDrop">
<ellipse fill="green" stroke="black" cx="1852.44" cy="-378" rx="130.78" ry="18"/>
<text text-anchor="middle" x="1852.44" y="-374.3" font-family="Times,serif" font-size="14.00">nz0.EntityEquipItemDrop</text>
</a>
</g>
</g>
<!-- nz0.EntityEquipItemDrop&#45;&gt;nz0.EntityPrizeDrop -->
<g id="edge18" class="edge">
<title>nz0.EntityEquipItemDrop&#45;&gt;nz0.EntityPrizeDrop</title>
<path fill="none" stroke="black" d="M1852.44,-359.93C1852.44,-328.97 1852.44,-263.3 1852.44,-226.13"/>
<polygon fill="black" stroke="black" points="1855.94,-226.02 1852.44,-216.02 1848.94,-226.02 1855.94,-226.02"/>
<text text-anchor="middle" x="1847.44" y="-348.73" font-family="Times,serif" font-size="14.00">1</text>
</g>
</g>
</svg>
