<?xml version="1.0" encoding="UTF-8" standalone="no"?>
<!DOCTYPE svg PUBLIC "-//W3C//DTD SVG 1.1//EN"
 "http://www.w3.org/Graphics/SVG/1.1/DTD/svg11.dtd">
<!-- Generated by graphviz version 2.43.0 (0)
 -->
<!-- Title: nz0.CutsceneUnk3 Pages: 1 -->
<svg width="204pt" height="404pt"
 viewBox="0.00 0.00 204.28 404.00" xmlns="http://www.w3.org/2000/svg" xmlns:xlink="http://www.w3.org/1999/xlink">
<g id="graph0" class="graph" transform="scale(1 1) rotate(0) translate(4 400)">
<title>nz0.CutsceneUnk3</title>
<polygon fill="white" stroke="transparent" points="-4,4 -4,-400 200.28,-400 200.28,4 -4,4"/>
<!-- nz0.CutsceneUnk3 -->
<g id="node1" class="node">
<title>nz0.CutsceneUnk3</title>
<ellipse fill="green" stroke="black" cx="98.14" cy="-198" rx="98.28" ry="18"/>
<text text-anchor="middle" x="98.14" y="-194.3" font-family="Times,serif" font-size="14.00">nz0.CutsceneUnk3</text>
</g>
<!-- ClearImage -->
<g id="node2" class="node">
<title>ClearImage</title>
<g id="a_node2"><a xlink:href="ClearImage.svg" xlink:title="ClearImage">
<ellipse fill="lightblue" stroke="black" cx="98.14" cy="-18" rx="64.19" ry="18"/>
<text text-anchor="middle" x="98.14" y="-14.3" font-family="Times,serif" font-size="14.00">ClearImage</text>
</a>
</g>
</g>
<!-- nz0.CutsceneUnk3&#45;&gt;ClearImage -->
<g id="edge1" class="edge">
<title>nz0.CutsceneUnk3&#45;&gt;ClearImage</title>
<path fill="none" stroke="black" d="M98.14,-179.93C98.14,-148.97 98.14,-83.3 98.14,-46.13"/>
<polygon fill="black" stroke="black" points="101.64,-46.02 98.14,-36.02 94.64,-46.02 101.64,-46.02"/>
<text text-anchor="middle" x="93.14" y="-39.82" font-family="Times,serif" font-size="14.00">1</text>
</g>
<!-- nz0.CutsceneUnk4 -->
<g id="node3" class="node">
<title>nz0.CutsceneUnk4</title>
<g id="a_node3"><a xlink:href="nz0.CutsceneUnk4.svg" xlink:title="nz0.CutsceneUnk4">
<ellipse fill="green" stroke="black" cx="98.14" cy="-378" rx="98.28" ry="18"/>
<text text-anchor="middle" x="98.14" y="-374.3" font-family="Times,serif" font-size="14.00">nz0.CutsceneUnk4</text>
</a>
</g>
</g>
<!-- nz0.CutsceneUnk4&#45;&gt;nz0.CutsceneUnk3 -->
<g id="edge2" class="edge">
<title>nz0.CutsceneUnk4&#45;&gt;nz0.CutsceneUnk3</title>
<path fill="none" stroke="black" d="M98.14,-359.93C98.14,-328.97 98.14,-263.3 98.14,-226.13"/>
<polygon fill="black" stroke="black" points="101.64,-226.02 98.14,-216.02 94.64,-226.02 101.64,-226.02"/>
<text text-anchor="middle" x="93.14" y="-348.73" font-family="Times,serif" font-size="14.00">1</text>
</g>
</g>
</svg>
