<?xml version="1.0" encoding="UTF-8" standalone="no"?>
<!DOCTYPE svg PUBLIC "-//W3C//DTD SVG 1.1//EN"
 "http://www.w3.org/Graphics/SVG/1.1/DTD/svg11.dtd">
<!-- Generated by graphviz version 2.43.0 (0)
 -->
<!-- Title: nz0.func_801B3648 Pages: 1 -->
<svg width="1298pt" height="224pt"
 viewBox="0.00 0.00 1297.84 224.00" xmlns="http://www.w3.org/2000/svg" xmlns:xlink="http://www.w3.org/1999/xlink">
<g id="graph0" class="graph" transform="scale(1 1) rotate(0) translate(4 220)">
<title>nz0.func_801B3648</title>
<polygon fill="white" stroke="transparent" points="-4,4 -4,-220 1293.84,-220 1293.84,4 -4,4"/>
<!-- nz0.func_801B3648 -->
<g id="node1" class="node">
<title>nz0.func_801B3648</title>
<ellipse fill="green" stroke="black" cx="667.24" cy="-198" rx="102.88" ry="18"/>
<text text-anchor="middle" x="667.24" y="-194.3" font-family="Times,serif" font-size="14.00">nz0.func_801B3648</text>
</g>
<!-- nz0.AllocEntity -->
<g id="node2" class="node">
<title>nz0.AllocEntity</title>
<g id="a_node2"><a xlink:href="nz0.AllocEntity.svg" xlink:title="nz0.AllocEntity">
<ellipse fill="green" stroke="black" cx="81.24" cy="-18" rx="81.49" ry="18"/>
<text text-anchor="middle" x="81.24" y="-14.3" font-family="Times,serif" font-size="14.00">nz0.AllocEntity</text>
</a>
</g>
</g>
<!-- nz0.func_801B3648&#45;&gt;nz0.AllocEntity -->
<g id="edge1" class="edge">
<title>nz0.func_801B3648&#45;&gt;nz0.AllocEntity</title>
<path fill="none" stroke="black" d="M618.29,-182.13C510.04,-149.25 250.92,-70.54 136.81,-35.88"/>
<polygon fill="black" stroke="black" points="137.79,-32.52 127.21,-32.96 135.76,-39.22 137.79,-32.52"/>
<text text-anchor="middle" x="122.21" y="-36.76" font-family="Times,serif" font-size="14.00">1</text>
</g>
<!-- nz0.AnimateEntity -->
<g id="node3" class="node">
<title>nz0.AnimateEntity</title>
<g id="a_node3"><a xlink:href="nz0.AnimateEntity.svg" xlink:title="nz0.AnimateEntity">
<ellipse fill="green" stroke="black" cx="278.24" cy="-18" rx="97.48" ry="18"/>
<text text-anchor="middle" x="278.24" y="-14.3" font-family="Times,serif" font-size="14.00">nz0.AnimateEntity</text>
</a>
</g>
</g>
<!-- nz0.func_801B3648&#45;&gt;nz0.AnimateEntity -->
<g id="edge2" class="edge">
<title>nz0.func_801B3648&#45;&gt;nz0.AnimateEntity</title>
<path fill="none" stroke="black" d="M632.38,-181.05C561.47,-148.6 400.57,-74.97 322.44,-39.23"/>
<polygon fill="black" stroke="black" points="323.44,-35.83 312.89,-34.85 320.53,-42.2 323.44,-35.83"/>
<text text-anchor="middle" x="307.89" y="-38.65" font-family="Times,serif" font-size="14.00">2</text>
</g>
<!-- nz0.CreateEntityFromEntity -->
<g id="node4" class="node">
<title>nz0.CreateEntityFromEntity</title>
<g id="a_node4"><a xlink:href="nz0.CreateEntityFromEntity.svg" xlink:title="nz0.CreateEntityFromEntity">
<ellipse fill="green" stroke="black" cx="537.24" cy="-18" rx="143.77" ry="18"/>
<text text-anchor="middle" x="537.24" y="-14.3" font-family="Times,serif" font-size="14.00">nz0.CreateEntityFromEntity</text>
</a>
</g>
</g>
<!-- nz0.func_801B3648&#45;&gt;nz0.CreateEntityFromEntity -->
<g id="edge3" class="edge">
<title>nz0.func_801B3648&#45;&gt;nz0.CreateEntityFromEntity</title>
<path fill="none" stroke="black" d="M654.78,-179.93C631.77,-148.43 582.55,-81.03 555.68,-44.24"/>
<polygon fill="black" stroke="black" points="558.39,-42.03 549.67,-36.02 552.74,-46.16 558.39,-42.03"/>
<text text-anchor="middle" x="544.67" y="-39.82" font-family="Times,serif" font-size="14.00">2</text>
</g>
<!-- nz0.InitializeEntity -->
<g id="node5" class="node">
<title>nz0.InitializeEntity</title>
<g id="a_node5"><a xlink:href="nz0.InitializeEntity.svg" xlink:title="nz0.InitializeEntity">
<ellipse fill="green" stroke="black" cx="798.24" cy="-18" rx="99.38" ry="18"/>
<text text-anchor="middle" x="798.24" y="-14.3" font-family="Times,serif" font-size="14.00">nz0.InitializeEntity</text>
</a>
</g>
</g>
<!-- nz0.func_801B3648&#45;&gt;nz0.InitializeEntity -->
<g id="edge4" class="edge">
<title>nz0.func_801B3648&#45;&gt;nz0.InitializeEntity</title>
<path fill="none" stroke="black" d="M679.8,-179.93C702.98,-148.43 752.59,-81.03 779.67,-44.24"/>
<polygon fill="black" stroke="black" points="782.61,-46.14 785.72,-36.02 776.97,-42 782.61,-46.14"/>
<text text-anchor="middle" x="780.72" y="-39.82" font-family="Times,serif" font-size="14.00">1</text>
</g>
<!-- nz0.PlaySfxPositional -->
<g id="node6" class="node">
<title>nz0.PlaySfxPositional</title>
<g id="a_node6"><a xlink:href="nz0.PlaySfxPositional.svg" xlink:title="nz0.PlaySfxPositional">
<ellipse fill="green" stroke="black" cx="1026.24" cy="-18" rx="110.48" ry="18"/>
<text text-anchor="middle" x="1026.24" y="-14.3" font-family="Times,serif" font-size="14.00">nz0.PlaySfxPositional</text>
</a>
</g>
</g>
<!-- nz0.func_801B3648&#45;&gt;nz0.PlaySfxPositional -->
<g id="edge5" class="edge">
<title>nz0.func_801B3648&#45;&gt;nz0.PlaySfxPositional</title>
<path fill="none" stroke="black" d="M699.73,-180.89C764.98,-148.54 911.87,-75.71 984.28,-39.81"/>
<polygon fill="black" stroke="black" points="986.16,-42.78 993.57,-35.2 983.05,-36.51 986.16,-42.78"/>
<text text-anchor="middle" x="988.57" y="-39" font-family="Times,serif" font-size="14.00">1</text>
</g>
<!-- nz0.SetStep -->
<g id="node7" class="node">
<title>nz0.SetStep</title>
<g id="a_node7"><a xlink:href="nz0.SetStep.svg" xlink:title="nz0.SetStep">
<ellipse fill="green" stroke="black" cx="1222.24" cy="-18" rx="67.69" ry="18"/>
<text text-anchor="middle" x="1222.24" y="-14.3" font-family="Times,serif" font-size="14.00">nz0.SetStep</text>
</a>
</g>
</g>
<!-- nz0.func_801B3648&#45;&gt;nz0.SetStep -->
<g id="edge6" class="edge">
<title>nz0.func_801B3648&#45;&gt;nz0.SetStep</title>
<path fill="none" stroke="black" d="M714.08,-181.98C817.35,-148.86 1063.92,-69.78 1171.07,-35.41"/>
<polygon fill="black" stroke="black" points="1172.23,-38.71 1180.69,-32.33 1170.1,-32.05 1172.23,-38.71"/>
<text text-anchor="middle" x="1175.69" y="-36.13" font-family="Times,serif" font-size="14.00">1</text>
</g>
</g>
</svg>
