<?xml version="1.0" encoding="UTF-8" standalone="no"?>
<!DOCTYPE svg PUBLIC "-//W3C//DTD SVG 1.1//EN"
 "http://www.w3.org/Graphics/SVG/1.1/DTD/svg11.dtd">
<!-- Generated by graphviz version 2.43.0 (0)
 -->
<!-- Title: nz0.func_801C4198 Pages: 1 -->
<svg width="884pt" height="404pt"
 viewBox="0.00 0.00 884.43 404.00" xmlns="http://www.w3.org/2000/svg" xmlns:xlink="http://www.w3.org/1999/xlink">
<g id="graph0" class="graph" transform="scale(1 1) rotate(0) translate(4 400)">
<title>nz0.func_801C4198</title>
<polygon fill="white" stroke="transparent" points="-4,4 -4,-400 880.43,-400 880.43,4 -4,4"/>
<!-- nz0.func_801C4198 -->
<g id="node1" class="node">
<title>nz0.func_801C4198</title>
<ellipse fill="green" stroke="black" cx="440.44" cy="-198" rx="102.88" ry="18"/>
<text text-anchor="middle" x="440.44" y="-194.3" font-family="Times,serif" font-size="14.00">nz0.func_801C4198</text>
</g>
<!-- dra.AllocPrimitives -->
<g id="node2" class="node">
<title>dra.AllocPrimitives</title>
<g id="a_node2"><a xlink:href="dra.AllocPrimitives.svg" xlink:title="dra.AllocPrimitives">
<ellipse fill="green" stroke="black" cx="99.44" cy="-18" rx="99.38" ry="18"/>
<text text-anchor="middle" x="99.44" y="-14.3" font-family="Times,serif" font-size="14.00">dra.AllocPrimitives</text>
</a>
</g>
</g>
<!-- nz0.func_801C4198&#45;&gt;dra.AllocPrimitives -->
<g id="edge1" class="edge">
<title>nz0.func_801C4198&#45;&gt;dra.AllocPrimitives</title>
<path fill="none" stroke="black" d="M409.28,-180.73C347.25,-148.35 208.41,-75.88 139.64,-39.98"/>
<polygon fill="black" stroke="black" points="140.9,-36.69 130.41,-35.17 137.66,-42.9 140.9,-36.69"/>
<text text-anchor="middle" x="125.41" y="-38.97" font-family="Times,serif" font-size="14.00">1</text>
</g>
<!-- nz0.PlaySfxPositional -->
<g id="node3" class="node">
<title>nz0.PlaySfxPositional</title>
<g id="a_node3"><a xlink:href="nz0.PlaySfxPositional.svg" xlink:title="nz0.PlaySfxPositional">
<ellipse fill="green" stroke="black" cx="327.44" cy="-18" rx="110.48" ry="18"/>
<text text-anchor="middle" x="327.44" y="-14.3" font-family="Times,serif" font-size="14.00">nz0.PlaySfxPositional</text>
</a>
</g>
</g>
<!-- nz0.func_801C4198&#45;&gt;nz0.PlaySfxPositional -->
<g id="edge2" class="edge">
<title>nz0.func_801C4198&#45;&gt;nz0.PlaySfxPositional</title>
<path fill="none" stroke="black" d="M429.61,-179.93C409.69,-148.57 367.18,-81.6 343.76,-44.71"/>
<polygon fill="black" stroke="black" points="346.56,-42.58 338.24,-36.02 340.65,-46.33 346.56,-42.58"/>
<text text-anchor="middle" x="333.24" y="-39.82" font-family="Times,serif" font-size="14.00">1</text>
</g>
<!-- nz0.UnkPolyFunc2 -->
<g id="node4" class="node">
<title>nz0.UnkPolyFunc2</title>
<g id="a_node4"><a xlink:href="nz0.UnkPolyFunc2.svg" xlink:title="nz0.UnkPolyFunc2">
<ellipse fill="green" stroke="black" cx="553.44" cy="-18" rx="97.48" ry="18"/>
<text text-anchor="middle" x="553.44" y="-14.3" font-family="Times,serif" font-size="14.00">nz0.UnkPolyFunc2</text>
</a>
</g>
</g>
<!-- nz0.func_801C4198&#45;&gt;nz0.UnkPolyFunc2 -->
<g id="edge3" class="edge">
<title>nz0.func_801C4198&#45;&gt;nz0.UnkPolyFunc2</title>
<path fill="none" stroke="black" d="M451.28,-179.93C471.19,-148.57 513.7,-81.6 537.12,-44.71"/>
<polygon fill="black" stroke="black" points="540.23,-46.33 542.64,-36.02 534.32,-42.58 540.23,-46.33"/>
<text text-anchor="middle" x="537.64" y="-39.82" font-family="Times,serif" font-size="14.00">1</text>
</g>
<!-- nz0.func_801C3F9C -->
<g id="node5" class="node">
<title>nz0.func_801C3F9C</title>
<g id="a_node5"><a xlink:href="nz0.func_801C3F9C.svg" xlink:title="nz0.func_801C3F9C">
<ellipse fill="green" stroke="black" cx="772.44" cy="-18" rx="103.98" ry="18"/>
<text text-anchor="middle" x="772.44" y="-14.3" font-family="Times,serif" font-size="14.00">nz0.func_801C3F9C</text>
</a>
</g>
</g>
<!-- nz0.func_801C4198&#45;&gt;nz0.func_801C3F9C -->
<g id="edge4" class="edge">
<title>nz0.func_801C4198&#45;&gt;nz0.func_801C3F9C</title>
<path fill="none" stroke="black" d="M470.78,-180.73C531.02,-148.44 665.66,-76.25 732.8,-40.25"/>
<polygon fill="black" stroke="black" points="734.65,-43.23 741.81,-35.42 731.34,-37.06 734.65,-43.23"/>
<text text-anchor="middle" x="736.81" y="-39.22" font-family="Times,serif" font-size="14.00">1</text>
</g>
<!-- nz0.EntityAxeKnight -->
<g id="node6" class="node">
<title>nz0.EntityAxeKnight</title>
<g id="a_node6"><a xlink:href="nz0.EntityAxeKnight.svg" xlink:title="nz0.EntityAxeKnight">
<ellipse fill="green" stroke="black" cx="440.44" cy="-378" rx="107.48" ry="18"/>
<text text-anchor="middle" x="440.44" y="-374.3" font-family="Times,serif" font-size="14.00">nz0.EntityAxeKnight</text>
</a>
</g>
</g>
<!-- nz0.EntityAxeKnight&#45;&gt;nz0.func_801C4198 -->
<g id="edge5" class="edge">
<title>nz0.EntityAxeKnight&#45;&gt;nz0.func_801C4198</title>
<path fill="none" stroke="black" d="M440.44,-359.93C440.44,-328.97 440.44,-263.3 440.44,-226.13"/>
<polygon fill="black" stroke="black" points="443.94,-226.02 440.44,-216.02 436.94,-226.02 443.94,-226.02"/>
<text text-anchor="middle" x="435.44" y="-348.73" font-family="Times,serif" font-size="14.00">1</text>
</g>
</g>
</svg>
