<?xml version="1.0" encoding="UTF-8" standalone="no"?>
<!DOCTYPE svg PUBLIC "-//W3C//DTD SVG 1.1//EN"
 "http://www.w3.org/Graphics/SVG/1.1/DTD/svg11.dtd">
<!-- Generated by graphviz version 2.43.0 (0)
 -->
<!-- Title: nz0.func_801B37C0 Pages: 1 -->
<svg width="1401pt" height="224pt"
 viewBox="0.00 0.00 1401.39 224.00" xmlns="http://www.w3.org/2000/svg" xmlns:xlink="http://www.w3.org/1999/xlink">
<g id="graph0" class="graph" transform="scale(1 1) rotate(0) translate(4 220)">
<title>nz0.func_801B37C0</title>
<polygon fill="white" stroke="transparent" points="-4,4 -4,-220 1397.39,-220 1397.39,4 -4,4"/>
<!-- nz0.func_801B37C0 -->
<g id="node1" class="node">
<title>nz0.func_801B37C0</title>
<ellipse fill="green" stroke="black" cx="655.05" cy="-198" rx="103.18" ry="18"/>
<text text-anchor="middle" x="655.05" y="-194.3" font-family="Times,serif" font-size="14.00">nz0.func_801B37C0</text>
</g>
<!-- FntPrint -->
<g id="node2" class="node">
<title>FntPrint</title>
<g id="a_node2"><a xlink:href="FntPrint.svg" xlink:title="FntPrint">
<ellipse fill="lightblue" stroke="black" cx="50.05" cy="-18" rx="50.09" ry="18"/>
<text text-anchor="middle" x="50.05" y="-14.3" font-family="Times,serif" font-size="14.00">FntPrint</text>
</a>
</g>
</g>
<!-- nz0.func_801B37C0&#45;&gt;FntPrint -->
<g id="edge1" class="edge">
<title>nz0.func_801B37C0&#45;&gt;FntPrint</title>
<path fill="none" stroke="black" d="M604.76,-182.21C489.85,-148.4 209.3,-65.86 97.33,-32.91"/>
<polygon fill="black" stroke="black" points="98.24,-29.53 87.66,-30.07 96.27,-36.25 98.24,-29.53"/>
<text text-anchor="middle" x="82.66" y="-33.87" font-family="Times,serif" font-size="14.00">1</text>
</g>
<!-- nz0.AllocEntity -->
<g id="node3" class="node">
<title>nz0.AllocEntity</title>
<g id="a_node3"><a xlink:href="nz0.AllocEntity.svg" xlink:title="nz0.AllocEntity">
<ellipse fill="green" stroke="black" cx="199.05" cy="-18" rx="81.49" ry="18"/>
<text text-anchor="middle" x="199.05" y="-14.3" font-family="Times,serif" font-size="14.00">nz0.AllocEntity</text>
</a>
</g>
</g>
<!-- nz0.func_801B37C0&#45;&gt;nz0.AllocEntity -->
<g id="edge2" class="edge">
<title>nz0.func_801B37C0&#45;&gt;nz0.AllocEntity</title>
<path fill="none" stroke="black" d="M614.98,-181.36C531,-148.58 336.86,-72.8 246.68,-37.59"/>
<polygon fill="black" stroke="black" points="247.84,-34.29 237.25,-33.91 245.29,-40.81 247.84,-34.29"/>
<text text-anchor="middle" x="232.25" y="-37.71" font-family="Times,serif" font-size="14.00">1</text>
</g>
<!-- nz0.AnimateEntity -->
<g id="node4" class="node">
<title>nz0.AnimateEntity</title>
<g id="a_node4"><a xlink:href="nz0.AnimateEntity.svg" xlink:title="nz0.AnimateEntity">
<ellipse fill="green" stroke="black" cx="396.05" cy="-18" rx="97.48" ry="18"/>
<text text-anchor="middle" x="396.05" y="-14.3" font-family="Times,serif" font-size="14.00">nz0.AnimateEntity</text>
</a>
</g>
</g>
<!-- nz0.func_801B37C0&#45;&gt;nz0.AnimateEntity -->
<g id="edge3" class="edge">
<title>nz0.func_801B37C0&#45;&gt;nz0.AnimateEntity</title>
<path fill="none" stroke="black" d="M630.68,-180.25C583.8,-148.04 481.05,-77.42 428.46,-41.27"/>
<polygon fill="black" stroke="black" points="430.38,-38.35 420.16,-35.57 426.42,-44.12 430.38,-38.35"/>
<text text-anchor="middle" x="415.16" y="-39.37" font-family="Times,serif" font-size="14.00">2</text>
</g>
<!-- nz0.CreateEntityFromEntity -->
<g id="node5" class="node">
<title>nz0.CreateEntityFromEntity</title>
<g id="a_node5"><a xlink:href="nz0.CreateEntityFromEntity.svg" xlink:title="nz0.CreateEntityFromEntity">
<ellipse fill="green" stroke="black" cx="655.05" cy="-18" rx="143.77" ry="18"/>
<text text-anchor="middle" x="655.05" y="-14.3" font-family="Times,serif" font-size="14.00">nz0.CreateEntityFromEntity</text>
</a>
</g>
</g>
<!-- nz0.func_801B37C0&#45;&gt;nz0.CreateEntityFromEntity -->
<g id="edge4" class="edge">
<title>nz0.func_801B37C0&#45;&gt;nz0.CreateEntityFromEntity</title>
<path fill="none" stroke="black" d="M655.05,-179.93C655.05,-148.97 655.05,-83.3 655.05,-46.13"/>
<polygon fill="black" stroke="black" points="658.55,-46.02 655.05,-36.02 651.55,-46.02 658.55,-46.02"/>
<text text-anchor="middle" x="650.05" y="-39.82" font-family="Times,serif" font-size="14.00">3</text>
</g>
<!-- nz0.InitializeEntity -->
<g id="node6" class="node">
<title>nz0.InitializeEntity</title>
<g id="a_node6"><a xlink:href="nz0.InitializeEntity.svg" xlink:title="nz0.InitializeEntity">
<ellipse fill="green" stroke="black" cx="916.05" cy="-18" rx="99.38" ry="18"/>
<text text-anchor="middle" x="916.05" y="-14.3" font-family="Times,serif" font-size="14.00">nz0.InitializeEntity</text>
</a>
</g>
</g>
<!-- nz0.func_801B37C0&#45;&gt;nz0.InitializeEntity -->
<g id="edge5" class="edge">
<title>nz0.func_801B37C0&#45;&gt;nz0.InitializeEntity</title>
<path fill="none" stroke="black" d="M679.6,-180.25C726.84,-148.04 830.39,-77.42 883.38,-41.27"/>
<polygon fill="black" stroke="black" points="885.46,-44.1 891.75,-35.57 881.51,-38.31 885.46,-44.1"/>
<text text-anchor="middle" x="886.75" y="-39.37" font-family="Times,serif" font-size="14.00">1</text>
</g>
<!-- nz0.SetStep -->
<g id="node7" class="node">
<title>nz0.SetStep</title>
<g id="a_node7"><a xlink:href="nz0.SetStep.svg" xlink:title="nz0.SetStep">
<ellipse fill="green" stroke="black" cx="1101.05" cy="-18" rx="67.69" ry="18"/>
<text text-anchor="middle" x="1101.05" y="-14.3" font-family="Times,serif" font-size="14.00">nz0.SetStep</text>
</a>
</g>
</g>
<!-- nz0.func_801B37C0&#45;&gt;nz0.SetStep -->
<g id="edge6" class="edge">
<title>nz0.func_801B37C0&#45;&gt;nz0.SetStep</title>
<path fill="none" stroke="black" d="M694.63,-181.2C777.33,-148.19 968.05,-72.08 1055.6,-37.14"/>
<polygon fill="black" stroke="black" points="1057.01,-40.34 1065,-33.38 1054.42,-33.84 1057.01,-40.34"/>
<text text-anchor="middle" x="1060" y="-37.18" font-family="Times,serif" font-size="14.00">1</text>
</g>
<!-- nz0.func_801C29B0 -->
<g id="node8" class="node">
<title>nz0.func_801C29B0</title>
<g id="a_node8"><a xlink:href="nz0.func_801C29B0.svg" xlink:title="nz0.func_801C29B0">
<ellipse fill="green" stroke="black" cx="1290.05" cy="-18" rx="103.18" ry="18"/>
<text text-anchor="middle" x="1290.05" y="-14.3" font-family="Times,serif" font-size="14.00">nz0.func_801C29B0</text>
</a>
</g>
</g>
<!-- nz0.func_801B37C0&#45;&gt;nz0.func_801C29B0 -->
<g id="edge7" class="edge">
<title>nz0.func_801B37C0&#45;&gt;nz0.func_801C29B0</title>
<path fill="none" stroke="black" d="M707.01,-182.43C823.09,-149.89 1103.04,-71.42 1228,-36.39"/>
<polygon fill="black" stroke="black" points="1229.12,-39.71 1237.81,-33.64 1227.24,-32.97 1229.12,-39.71"/>
<text text-anchor="middle" x="1232.81" y="-37.44" font-family="Times,serif" font-size="14.00">1</text>
</g>
</g>
</svg>
