<?xml version="1.0" encoding="UTF-8" standalone="no"?>
<!DOCTYPE svg PUBLIC "-//W3C//DTD SVG 1.1//EN"
 "http://www.w3.org/Graphics/SVG/1.1/DTD/svg11.dtd">
<!-- Generated by graphviz version 2.43.0 (0)
 -->
<!-- Title: nz0.EntityGaibon Pages: 1 -->
<svg width="3491pt" height="224pt"
 viewBox="0.00 0.00 3490.64 224.00" xmlns="http://www.w3.org/2000/svg" xmlns:xlink="http://www.w3.org/1999/xlink">
<g id="graph0" class="graph" transform="scale(1 1) rotate(0) translate(4 220)">
<title>nz0.EntityGaibon</title>
<polygon fill="white" stroke="transparent" points="-4,4 -4,-220 3486.64,-220 3486.64,4 -4,4"/>
<!-- nz0.EntityGaibon -->
<g id="node1" class="node">
<title>nz0.EntityGaibon</title>
<ellipse fill="green" stroke="black" cx="2052.05" cy="-198" rx="91.78" ry="18"/>
<text text-anchor="middle" x="2052.05" y="-194.3" font-family="Times,serif" font-size="14.00">nz0.EntityGaibon</text>
</g>
<!-- FntPrint -->
<g id="node2" class="node">
<title>FntPrint</title>
<g id="a_node2"><a xlink:href="FntPrint.svg" xlink:title="FntPrint">
<ellipse fill="lightblue" stroke="black" cx="50.05" cy="-18" rx="50.09" ry="18"/>
<text text-anchor="middle" x="50.05" y="-14.3" font-family="Times,serif" font-size="14.00">FntPrint</text>
</a>
</g>
</g>
<!-- nz0.EntityGaibon&#45;&gt;FntPrint -->
<g id="edge1" class="edge">
<title>nz0.EntityGaibon&#45;&gt;FntPrint</title>
<path fill="none" stroke="black" d="M1960.72,-195.68C1681.36,-190.31 814.5,-163.76 110.05,-36 105.55,-35.18 100.91,-34.18 96.28,-33.06"/>
<polygon fill="black" stroke="black" points="96.83,-29.59 86.27,-30.48 95.08,-36.36 96.83,-29.59"/>
<text text-anchor="middle" x="81.27" y="-34.28" font-family="Times,serif" font-size="14.00">1</text>
</g>
<!-- dra.CheckCollision -->
<g id="node3" class="node">
<title>dra.CheckCollision</title>
<g id="a_node3"><a xlink:href="dra.CheckCollision.svg" xlink:title="dra.CheckCollision">
<ellipse fill="green" stroke="black" cx="216.05" cy="-18" rx="97.48" ry="18"/>
<text text-anchor="middle" x="216.05" y="-14.3" font-family="Times,serif" font-size="14.00">dra.CheckCollision</text>
</a>
</g>
</g>
<!-- nz0.EntityGaibon&#45;&gt;dra.CheckCollision -->
<g id="edge2" class="edge">
<title>nz0.EntityGaibon&#45;&gt;dra.CheckCollision</title>
<path fill="none" stroke="black" d="M1967.28,-191.06C1715.87,-173.03 952.68,-115.25 323.05,-36 314.07,-34.87 304.69,-33.56 295.37,-32.19"/>
<polygon fill="black" stroke="black" points="295.72,-28.7 285.31,-30.67 294.68,-35.62 295.72,-28.7"/>
<text text-anchor="middle" x="280.31" y="-34.47" font-family="Times,serif" font-size="14.00">1</text>
</g>
<!-- nz0.AllocEntity -->
<g id="node4" class="node">
<title>nz0.AllocEntity</title>
<g id="a_node4"><a xlink:href="nz0.AllocEntity.svg" xlink:title="nz0.AllocEntity">
<ellipse fill="green" stroke="black" cx="413.05" cy="-18" rx="81.49" ry="18"/>
<text text-anchor="middle" x="413.05" y="-14.3" font-family="Times,serif" font-size="14.00">nz0.AllocEntity</text>
</a>
</g>
</g>
<!-- nz0.EntityGaibon&#45;&gt;nz0.AllocEntity -->
<g id="edge3" class="edge">
<title>nz0.EntityGaibon&#45;&gt;nz0.AllocEntity</title>
<path fill="none" stroke="black" d="M1968.27,-190.69C1735.35,-172.63 1060.57,-116.79 504.05,-36 496.64,-34.92 488.91,-33.68 481.23,-32.36"/>
<polygon fill="black" stroke="black" points="481.64,-28.88 471.18,-30.59 480.42,-35.77 481.64,-28.88"/>
<text text-anchor="middle" x="466.18" y="-34.39" font-family="Times,serif" font-size="14.00">5</text>
</g>
<!-- nz0.AnimateEntity -->
<g id="node5" class="node">
<title>nz0.AnimateEntity</title>
<g id="a_node5"><a xlink:href="nz0.AnimateEntity.svg" xlink:title="nz0.AnimateEntity">
<ellipse fill="green" stroke="black" cx="610.05" cy="-18" rx="97.48" ry="18"/>
<text text-anchor="middle" x="610.05" y="-14.3" font-family="Times,serif" font-size="14.00">nz0.AnimateEntity</text>
</a>
</g>
</g>
<!-- nz0.EntityGaibon&#45;&gt;nz0.AnimateEntity -->
<g id="edge4" class="edge">
<title>nz0.EntityGaibon&#45;&gt;nz0.AnimateEntity</title>
<path fill="none" stroke="black" d="M1973.6,-188.63C1767.3,-166.39 1192.63,-102.91 716.05,-36 707.53,-34.8 698.64,-33.49 689.79,-32.13"/>
<polygon fill="black" stroke="black" points="690.25,-28.66 679.83,-30.59 689.18,-35.58 690.25,-28.66"/>
<text text-anchor="middle" x="670.33" y="-34.39" font-family="Times,serif" font-size="14.00">13</text>
</g>
<!-- nz0.CreateEntityFromCurrentEntity -->
<g id="node6" class="node">
<title>nz0.CreateEntityFromCurrentEntity</title>
<g id="a_node6"><a xlink:href="nz0.CreateEntityFromCurrentEntity.svg" xlink:title="nz0.CreateEntityFromCurrentEntity">
<ellipse fill="green" stroke="black" cx="906.05" cy="-18" rx="180.87" ry="18"/>
<text text-anchor="middle" x="906.05" y="-14.3" font-family="Times,serif" font-size="14.00">nz0.CreateEntityFromCurrentEntity</text>
</a>
</g>
</g>
<!-- nz0.EntityGaibon&#45;&gt;nz0.CreateEntityFromCurrentEntity -->
<g id="edge5" class="edge">
<title>nz0.EntityGaibon&#45;&gt;nz0.CreateEntityFromCurrentEntity</title>
<path fill="none" stroke="black" d="M1982.51,-186.2C1788.27,-156.03 1239.13,-70.74 1009.25,-35.03"/>
<polygon fill="black" stroke="black" points="1009.63,-31.55 999.22,-33.47 1008.56,-38.46 1009.63,-31.55"/>
<text text-anchor="middle" x="994.22" y="-37.27" font-family="Times,serif" font-size="14.00">1</text>
</g>
<!-- nz0.CreateEntityFromEntity -->
<g id="node7" class="node">
<title>nz0.CreateEntityFromEntity</title>
<g id="a_node7"><a xlink:href="nz0.CreateEntityFromEntity.svg" xlink:title="nz0.CreateEntityFromEntity">
<ellipse fill="green" stroke="black" cx="1248.05" cy="-18" rx="143.77" ry="18"/>
<text text-anchor="middle" x="1248.05" y="-14.3" font-family="Times,serif" font-size="14.00">nz0.CreateEntityFromEntity</text>
</a>
</g>
</g>
<!-- nz0.EntityGaibon&#45;&gt;nz0.CreateEntityFromEntity -->
<g id="edge6" class="edge">
<title>nz0.EntityGaibon&#45;&gt;nz0.CreateEntityFromEntity</title>
<path fill="none" stroke="black" d="M1993.58,-184.06C1851.02,-152.5 1485.56,-71.58 1325.31,-36.1"/>
<polygon fill="black" stroke="black" points="1326.03,-32.68 1315.51,-33.94 1324.52,-39.52 1326.03,-32.68"/>
<text text-anchor="middle" x="1310.51" y="-37.74" font-family="Times,serif" font-size="14.00">5</text>
</g>
<!-- nz0.DestroyEntity -->
<g id="node8" class="node">
<title>nz0.DestroyEntity</title>
<g id="a_node8"><a xlink:href="nz0.DestroyEntity.svg" xlink:title="nz0.DestroyEntity">
<ellipse fill="green" stroke="black" cx="1505.05" cy="-18" rx="95.58" ry="18"/>
<text text-anchor="middle" x="1505.05" y="-14.3" font-family="Times,serif" font-size="14.00">nz0.DestroyEntity</text>
</a>
</g>
</g>
<!-- nz0.EntityGaibon&#45;&gt;nz0.DestroyEntity -->
<g id="edge7" class="edge">
<title>nz0.EntityGaibon&#45;&gt;nz0.DestroyEntity</title>
<path fill="none" stroke="black" d="M2006.82,-182.28C1907.16,-149.85 1668.91,-72.32 1560.48,-37.04"/>
<polygon fill="black" stroke="black" points="1561.3,-33.63 1550.71,-33.86 1559.14,-40.28 1561.3,-33.63"/>
<text text-anchor="middle" x="1545.71" y="-37.66" font-family="Times,serif" font-size="14.00">1</text>
</g>
<!-- nz0.GetSideToPlayer -->
<g id="node9" class="node">
<title>nz0.GetSideToPlayer</title>
<g id="a_node9"><a xlink:href="nz0.GetSideToPlayer.svg" xlink:title="nz0.GetSideToPlayer">
<ellipse fill="green" stroke="black" cx="1726.05" cy="-18" rx="107.78" ry="18"/>
<text text-anchor="middle" x="1726.05" y="-14.3" font-family="Times,serif" font-size="14.00">nz0.GetSideToPlayer</text>
</a>
</g>
</g>
<!-- nz0.EntityGaibon&#45;&gt;nz0.GetSideToPlayer -->
<g id="edge8" class="edge">
<title>nz0.EntityGaibon&#45;&gt;nz0.GetSideToPlayer</title>
<path fill="none" stroke="black" d="M2022.54,-180.89C1963.56,-148.69 1831.12,-76.37 1765.06,-40.3"/>
<polygon fill="black" stroke="black" points="1766.65,-37.18 1756.19,-35.46 1763.29,-43.32 1766.65,-37.18"/>
<text text-anchor="middle" x="1751.19" y="-39.26" font-family="Times,serif" font-size="14.00">6</text>
</g>
<!-- nz0.InitializeEntity -->
<g id="node10" class="node">
<title>nz0.InitializeEntity</title>
<g id="a_node10"><a xlink:href="nz0.InitializeEntity.svg" xlink:title="nz0.InitializeEntity">
<ellipse fill="green" stroke="black" cx="1951.05" cy="-18" rx="99.38" ry="18"/>
<text text-anchor="middle" x="1951.05" y="-14.3" font-family="Times,serif" font-size="14.00">nz0.InitializeEntity</text>
</a>
</g>
</g>
<!-- nz0.EntityGaibon&#45;&gt;nz0.InitializeEntity -->
<g id="edge9" class="edge">
<title>nz0.EntityGaibon&#45;&gt;nz0.InitializeEntity</title>
<path fill="none" stroke="black" d="M2042.36,-179.93C2024.64,-148.7 1986.89,-82.17 1965.9,-45.18"/>
<polygon fill="black" stroke="black" points="1968.68,-42.99 1960.7,-36.02 1962.59,-46.44 1968.68,-42.99"/>
<text text-anchor="middle" x="1955.7" y="-39.82" font-family="Times,serif" font-size="14.00">1</text>
</g>
<!-- nz0.MoveEntity -->
<g id="node11" class="node">
<title>nz0.MoveEntity</title>
<g id="a_node11"><a xlink:href="nz0.MoveEntity.svg" xlink:title="nz0.MoveEntity">
<ellipse fill="green" stroke="black" cx="2153.05" cy="-18" rx="84.49" ry="18"/>
<text text-anchor="middle" x="2153.05" y="-14.3" font-family="Times,serif" font-size="14.00">nz0.MoveEntity</text>
</a>
</g>
</g>
<!-- nz0.EntityGaibon&#45;&gt;nz0.MoveEntity -->
<g id="edge10" class="edge">
<title>nz0.EntityGaibon&#45;&gt;nz0.MoveEntity</title>
<path fill="none" stroke="black" d="M2061.73,-179.93C2079.45,-148.7 2117.2,-82.17 2138.19,-45.18"/>
<polygon fill="black" stroke="black" points="2141.5,-46.44 2143.39,-36.02 2135.41,-42.99 2141.5,-46.44"/>
<text text-anchor="middle" x="2133.89" y="-39.82" font-family="Times,serif" font-size="14.00">10</text>
</g>
<!-- nz0.PlaySfxPositional -->
<g id="node12" class="node">
<title>nz0.PlaySfxPositional</title>
<g id="a_node12"><a xlink:href="nz0.PlaySfxPositional.svg" xlink:title="nz0.PlaySfxPositional">
<ellipse fill="green" stroke="black" cx="2366.05" cy="-18" rx="110.48" ry="18"/>
<text text-anchor="middle" x="2366.05" y="-14.3" font-family="Times,serif" font-size="14.00">nz0.PlaySfxPositional</text>
</a>
</g>
</g>
<!-- nz0.EntityGaibon&#45;&gt;nz0.PlaySfxPositional -->
<g id="edge11" class="edge">
<title>nz0.EntityGaibon&#45;&gt;nz0.PlaySfxPositional</title>
<path fill="none" stroke="black" d="M2080.74,-180.73C2137.6,-148.5 2264.53,-76.55 2328.16,-40.48"/>
<polygon fill="black" stroke="black" points="2330.1,-43.4 2337.07,-35.42 2326.65,-37.31 2330.1,-43.4"/>
<text text-anchor="middle" x="2327.57" y="-39.22" font-family="Times,serif" font-size="14.00">14</text>
</g>
<!-- nz0.Random -->
<g id="node13" class="node">
<title>nz0.Random</title>
<g id="a_node13"><a xlink:href="nz0.Random.svg" xlink:title="nz0.Random">
<ellipse fill="green" stroke="black" cx="2563.05" cy="-18" rx="68.49" ry="18"/>
<text text-anchor="middle" x="2563.05" y="-14.3" font-family="Times,serif" font-size="14.00">nz0.Random</text>
</a>
</g>
</g>
<!-- nz0.EntityGaibon&#45;&gt;nz0.Random -->
<g id="edge12" class="edge">
<title>nz0.EntityGaibon&#45;&gt;nz0.Random</title>
<path fill="none" stroke="black" d="M2095.17,-181.98C2189.6,-149.09 2414.14,-70.87 2513.86,-36.13"/>
<polygon fill="black" stroke="black" points="2515.11,-39.4 2523.4,-32.81 2512.81,-32.79 2515.11,-39.4"/>
<text text-anchor="middle" x="2518.4" y="-36.61" font-family="Times,serif" font-size="14.00">1</text>
</g>
<!-- nz0.SetStep -->
<g id="node14" class="node">
<title>nz0.SetStep</title>
<g id="a_node14"><a xlink:href="nz0.SetStep.svg" xlink:title="nz0.SetStep">
<ellipse fill="green" stroke="black" cx="2717.05" cy="-18" rx="67.69" ry="18"/>
<text text-anchor="middle" x="2717.05" y="-14.3" font-family="Times,serif" font-size="14.00">nz0.SetStep</text>
</a>
</g>
</g>
<!-- nz0.EntityGaibon&#45;&gt;nz0.SetStep -->
<g id="edge13" class="edge">
<title>nz0.EntityGaibon&#45;&gt;nz0.SetStep</title>
<path fill="none" stroke="black" d="M2103.95,-183.11C2226.72,-150.25 2534.13,-67.96 2660.97,-34.01"/>
<polygon fill="black" stroke="black" points="2662.11,-37.33 2670.87,-31.36 2660.3,-30.57 2662.11,-37.33"/>
<text text-anchor="middle" x="2661.37" y="-35.16" font-family="Times,serif" font-size="14.00">12</text>
</g>
<!-- nz0.SetSubStep -->
<g id="node15" class="node">
<title>nz0.SetSubStep</title>
<g id="a_node15"><a xlink:href="nz0.SetSubStep.svg" xlink:title="nz0.SetSubStep">
<ellipse fill="green" stroke="black" cx="2888.05" cy="-18" rx="85.29" ry="18"/>
<text text-anchor="middle" x="2888.05" y="-14.3" font-family="Times,serif" font-size="14.00">nz0.SetSubStep</text>
</a>
</g>
</g>
<!-- nz0.EntityGaibon&#45;&gt;nz0.SetSubStep -->
<g id="edge14" class="edge">
<title>nz0.EntityGaibon&#45;&gt;nz0.SetSubStep</title>
<path fill="none" stroke="black" d="M2111.83,-184.27C2263.13,-152.06 2660.5,-67.45 2820.18,-33.45"/>
<polygon fill="black" stroke="black" points="2821.3,-36.79 2830.35,-31.28 2819.84,-29.94 2821.3,-36.79"/>
<text text-anchor="middle" x="2825.35" y="-35.08" font-family="Times,serif" font-size="14.00">2</text>
</g>
<!-- nz0.UnkCollisionFunc3 -->
<g id="node16" class="node">
<title>nz0.UnkCollisionFunc3</title>
<g id="a_node16"><a xlink:href="nz0.UnkCollisionFunc3.svg" xlink:title="nz0.UnkCollisionFunc3">
<ellipse fill="green" stroke="black" cx="3109.05" cy="-18" rx="118.08" ry="18"/>
<text text-anchor="middle" x="3109.05" y="-14.3" font-family="Times,serif" font-size="14.00">nz0.UnkCollisionFunc3</text>
</a>
</g>
</g>
<!-- nz0.EntityGaibon&#45;&gt;nz0.UnkCollisionFunc3 -->
<g id="edge15" class="edge">
<title>nz0.EntityGaibon&#45;&gt;nz0.UnkCollisionFunc3</title>
<path fill="none" stroke="black" d="M2119.37,-185.66C2303.94,-154.58 2817.86,-68.04 3022.94,-33.5"/>
<polygon fill="black" stroke="black" points="3023.78,-36.91 3033.06,-31.8 3022.61,-30.01 3023.78,-36.91"/>
<text text-anchor="middle" x="3028.06" y="-35.6" font-family="Times,serif" font-size="14.00">1</text>
</g>
<!-- ratan2 -->
<g id="node17" class="node">
<title>ratan2</title>
<g id="a_node17"><a xlink:href="ratan2.svg" xlink:title="ratan2">
<ellipse fill="lightblue" stroke="black" cx="3287.05" cy="-18" rx="41.69" ry="18"/>
<text text-anchor="middle" x="3287.05" y="-14.3" font-family="Times,serif" font-size="14.00">ratan2</text>
</a>
</g>
</g>
<!-- nz0.EntityGaibon&#45;&gt;ratan2 -->
<g id="edge16" class="edge">
<title>nz0.EntityGaibon&#45;&gt;ratan2</title>
<path fill="none" stroke="black" d="M2136.64,-190.95C2332.25,-175.77 2830.16,-130.37 3236.05,-36 3239.47,-35.2 3242.99,-34.28 3246.5,-33.27"/>
<polygon fill="black" stroke="black" points="3247.75,-36.55 3256.29,-30.28 3245.71,-29.85 3247.75,-36.55"/>
<text text-anchor="middle" x="3251.29" y="-34.08" font-family="Times,serif" font-size="14.00">3</text>
</g>
<!-- rcos -->
<g id="node18" class="node">
<title>rcos</title>
<g id="a_node18"><a xlink:href="rcos.svg" xlink:title="rcos">
<ellipse fill="lightblue" stroke="black" cx="3377.05" cy="-18" rx="30.59" ry="18"/>
<text text-anchor="middle" x="3377.05" y="-14.3" font-family="Times,serif" font-size="14.00">rcos</text>
</a>
</g>
</g>
<!-- nz0.EntityGaibon&#45;&gt;rcos -->
<g id="edge17" class="edge">
<title>nz0.EntityGaibon&#45;&gt;rcos</title>
<path fill="none" stroke="black" d="M2142.24,-194.54C2354.48,-186.87 2900.55,-156.05 3338.05,-36 3340.33,-35.37 3342.65,-34.64 3344.97,-33.83"/>
<polygon fill="black" stroke="black" points="3346.29,-37.07 3354.35,-30.19 3343.76,-30.55 3346.29,-37.07"/>
<text text-anchor="middle" x="3349.35" y="-33.99" font-family="Times,serif" font-size="14.00">3</text>
</g>
<!-- rsin -->
<g id="node19" class="node">
<title>rsin</title>
<g id="a_node19"><a xlink:href="rsin.svg" xlink:title="rsin">
<ellipse fill="lightblue" stroke="black" cx="3454.05" cy="-18" rx="28.7" ry="18"/>
<text text-anchor="middle" x="3454.05" y="-14.3" font-family="Times,serif" font-size="14.00">rsin</text>
</a>
</g>
</g>
<!-- nz0.EntityGaibon&#45;&gt;rsin -->
<g id="edge18" class="edge">
<title>nz0.EntityGaibon&#45;&gt;rsin</title>
<path fill="none" stroke="black" d="M2143.38,-196.01C2365.65,-191.52 2950.72,-167.09 3417.05,-36 3418.99,-35.45 3420.95,-34.82 3422.91,-34.12"/>
<polygon fill="black" stroke="black" points="3424.59,-37.22 3432.56,-30.24 3421.98,-30.73 3424.59,-37.22"/>
<text text-anchor="middle" x="3427.56" y="-34.04" font-family="Times,serif" font-size="14.00">3</text>
</g>
</g>
</svg>
