<?xml version="1.0" encoding="UTF-8" standalone="no"?>
<!DOCTYPE svg PUBLIC "-//W3C//DTD SVG 1.1//EN"
 "http://www.w3.org/Graphics/SVG/1.1/DTD/svg11.dtd">
<!-- Generated by graphviz version 2.43.0 (0)
 -->
<!-- Title: nz0.EntitySkeletonPieces Pages: 1 -->
<svg width="564pt" height="224pt"
 viewBox="0.00 0.00 563.54 224.00" xmlns="http://www.w3.org/2000/svg" xmlns:xlink="http://www.w3.org/1999/xlink">
<g id="graph0" class="graph" transform="scale(1 1) rotate(0) translate(4 220)">
<title>nz0.EntitySkeletonPieces</title>
<polygon fill="white" stroke="transparent" points="-4,4 -4,-220 559.54,-220 559.54,4 -4,4"/>
<!-- nz0.EntitySkeletonPieces -->
<g id="node1" class="node">
<title>nz0.EntitySkeletonPieces</title>
<ellipse fill="green" stroke="black" cx="269.04" cy="-198" rx="129.18" ry="18"/>
<text text-anchor="middle" x="269.04" y="-194.3" font-family="Times,serif" font-size="14.00">nz0.EntitySkeletonPieces</text>
</g>
<!-- nz0.FallEntity -->
<g id="node2" class="node">
<title>nz0.FallEntity</title>
<g id="a_node2"><a xlink:href="nz0.FallEntity.svg" xlink:title="nz0.FallEntity">
<ellipse fill="green" stroke="black" cx="76.04" cy="-18" rx="76.09" ry="18"/>
<text text-anchor="middle" x="76.04" y="-14.3" font-family="Times,serif" font-size="14.00">nz0.FallEntity</text>
</a>
</g>
</g>
<!-- nz0.EntitySkeletonPieces&#45;&gt;nz0.FallEntity -->
<g id="edge1" class="edge">
<title>nz0.EntitySkeletonPieces&#45;&gt;nz0.FallEntity</title>
<path fill="none" stroke="black" d="M250.54,-179.93C215.78,-147.87 140.69,-78.62 101.31,-42.3"/>
<polygon fill="black" stroke="black" points="103.65,-39.7 93.93,-35.5 98.91,-44.85 103.65,-39.7"/>
<text text-anchor="middle" x="88.93" y="-39.3" font-family="Times,serif" font-size="14.00">1</text>
</g>
<!-- nz0.InitializeEntity -->
<g id="node3" class="node">
<title>nz0.InitializeEntity</title>
<g id="a_node3"><a xlink:href="nz0.InitializeEntity.svg" xlink:title="nz0.InitializeEntity">
<ellipse fill="green" stroke="black" cx="269.04" cy="-18" rx="99.38" ry="18"/>
<text text-anchor="middle" x="269.04" y="-14.3" font-family="Times,serif" font-size="14.00">nz0.InitializeEntity</text>
</a>
</g>
</g>
<!-- nz0.EntitySkeletonPieces&#45;&gt;nz0.InitializeEntity -->
<g id="edge2" class="edge">
<title>nz0.EntitySkeletonPieces&#45;&gt;nz0.InitializeEntity</title>
<path fill="none" stroke="black" d="M269.04,-179.93C269.04,-148.97 269.04,-83.3 269.04,-46.13"/>
<polygon fill="black" stroke="black" points="272.54,-46.02 269.04,-36.02 265.54,-46.02 272.54,-46.02"/>
<text text-anchor="middle" x="264.04" y="-39.82" font-family="Times,serif" font-size="14.00">1</text>
</g>
<!-- nz0.MoveEntity -->
<g id="node4" class="node">
<title>nz0.MoveEntity</title>
<g id="a_node4"><a xlink:href="nz0.MoveEntity.svg" xlink:title="nz0.MoveEntity">
<ellipse fill="green" stroke="black" cx="471.04" cy="-18" rx="84.49" ry="18"/>
<text text-anchor="middle" x="471.04" y="-14.3" font-family="Times,serif" font-size="14.00">nz0.MoveEntity</text>
</a>
</g>
</g>
<!-- nz0.EntitySkeletonPieces&#45;&gt;nz0.MoveEntity -->
<g id="edge3" class="edge">
<title>nz0.EntitySkeletonPieces&#45;&gt;nz0.MoveEntity</title>
<path fill="none" stroke="black" d="M288.41,-179.93C324.7,-147.95 402.99,-78.97 444.29,-42.58"/>
<polygon fill="black" stroke="black" points="446.84,-44.99 452.03,-35.76 442.21,-39.74 446.84,-44.99"/>
<text text-anchor="middle" x="447.03" y="-39.56" font-family="Times,serif" font-size="14.00">1</text>
</g>
</g>
</svg>
