<?xml version="1.0" encoding="UTF-8" standalone="no"?>
<!DOCTYPE svg PUBLIC "-//W3C//DTD SVG 1.1//EN"
 "http://www.w3.org/Graphics/SVG/1.1/DTD/svg11.dtd">
<!-- Generated by graphviz version 2.43.0 (0)
 -->
<!-- Title: rbo3.AllocEntity Pages: 1 -->
<svg width="2044pt" height="404pt"
 viewBox="0.00 0.00 2043.68 404.00" xmlns="http://www.w3.org/2000/svg" xmlns:xlink="http://www.w3.org/1999/xlink">
<g id="graph0" class="graph" transform="scale(1 1) rotate(0) translate(4 400)">
<title>rbo3.AllocEntity</title>
<polygon fill="white" stroke="transparent" points="-4,4 -4,-400 2039.68,-400 2039.68,4 -4,4"/>
<!-- rbo3.AllocEntity -->
<g id="node1" class="node">
<title>rbo3.AllocEntity</title>
<ellipse fill="red" stroke="black" cx="1048.49" cy="-198" rx="86.38" ry="18"/>
<text text-anchor="middle" x="1048.49" y="-194.3" font-family="Times,serif" font-size="14.00">rbo3.AllocEntity</text>
</g>
<!-- rbo3.DestroyEntity -->
<g id="node2" class="node">
<title>rbo3.DestroyEntity</title>
<g id="a_node2"><a xlink:href="rbo3.DestroyEntity.svg" xlink:title="rbo3.DestroyEntity">
<ellipse fill="red" stroke="black" cx="1048.49" cy="-18" rx="100.98" ry="18"/>
<text text-anchor="middle" x="1048.49" y="-14.3" font-family="Times,serif" font-size="14.00">rbo3.DestroyEntity</text>
</a>
</g>
</g>
<!-- rbo3.AllocEntity&#45;&gt;rbo3.DestroyEntity -->
<g id="edge1" class="edge">
<title>rbo3.AllocEntity&#45;&gt;rbo3.DestroyEntity</title>
<path fill="none" stroke="black" d="M1048.49,-179.93C1048.49,-148.97 1048.49,-83.3 1048.49,-46.13"/>
<polygon fill="black" stroke="black" points="1051.99,-46.02 1048.49,-36.02 1044.99,-46.02 1051.99,-46.02"/>
<text text-anchor="middle" x="1043.49" y="-39.82" font-family="Times,serif" font-size="14.00">1</text>
</g>
<!-- rbo3.EntityBreakable -->
<g id="node3" class="node">
<title>rbo3.EntityBreakable</title>
<g id="a_node3"><a xlink:href="rbo3.EntityBreakable.svg" xlink:title="rbo3.EntityBreakable">
<ellipse fill="red" stroke="black" cx="110.49" cy="-378" rx="110.48" ry="18"/>
<text text-anchor="middle" x="110.49" y="-374.3" font-family="Times,serif" font-size="14.00">rbo3.EntityBreakable</text>
</a>
</g>
</g>
<!-- rbo3.EntityBreakable&#45;&gt;rbo3.AllocEntity -->
<g id="edge2" class="edge">
<title>rbo3.EntityBreakable&#45;&gt;rbo3.AllocEntity</title>
<path fill="none" stroke="black" d="M179.46,-363.91C352.12,-331.15 801.6,-245.85 976.96,-212.57"/>
<polygon fill="black" stroke="black" points="977.68,-216 986.85,-210.7 976.38,-209.12 977.68,-216"/>
<text text-anchor="middle" x="174.46" y="-352.71" font-family="Times,serif" font-size="14.00">1</text>
</g>
<!-- rbo3.EntityGreyPuffSpawner -->
<g id="node4" class="node">
<title>rbo3.EntityGreyPuffSpawner</title>
<g id="a_node4"><a xlink:href="rbo3.EntityGreyPuffSpawner.svg" xlink:title="rbo3.EntityGreyPuffSpawner">
<ellipse fill="red" stroke="black" cx="384.49" cy="-378" rx="145.67" ry="18"/>
<text text-anchor="middle" x="384.49" y="-374.3" font-family="Times,serif" font-size="14.00">rbo3.EntityGreyPuffSpawner</text>
</a>
</g>
</g>
<!-- rbo3.EntityGreyPuffSpawner&#45;&gt;rbo3.AllocEntity -->
<g id="edge3" class="edge">
<title>rbo3.EntityGreyPuffSpawner&#45;&gt;rbo3.AllocEntity</title>
<path fill="none" stroke="black" d="M442.54,-361.44C567.3,-327.99 859.96,-249.54 987.39,-215.38"/>
<polygon fill="black" stroke="black" points="988.62,-218.67 997.38,-212.7 986.81,-211.91 988.62,-218.67"/>
<text text-anchor="middle" x="437.54" y="-350.24" font-family="Times,serif" font-size="14.00">1</text>
</g>
<!-- rbo3.EntityUnkId13 -->
<g id="node5" class="node">
<title>rbo3.EntityUnkId13</title>
<g id="a_node5"><a xlink:href="rbo3.EntityUnkId13.svg" xlink:title="rbo3.EntityUnkId13">
<ellipse fill="red" stroke="black" cx="652.49" cy="-378" rx="103.98" ry="18"/>
<text text-anchor="middle" x="652.49" y="-374.3" font-family="Times,serif" font-size="14.00">rbo3.EntityUnkId13</text>
</a>
</g>
</g>
<!-- rbo3.EntityUnkId13&#45;&gt;rbo3.AllocEntity -->
<g id="edge4" class="edge">
<title>rbo3.EntityUnkId13&#45;&gt;rbo3.AllocEntity</title>
<path fill="none" stroke="black" d="M687.98,-361.05C760.5,-328.45 925.46,-254.3 1004.58,-218.74"/>
<polygon fill="black" stroke="black" points="1006.1,-221.89 1013.79,-214.6 1003.23,-215.51 1006.1,-221.89"/>
<text text-anchor="middle" x="682.98" y="-349.85" font-family="Times,serif" font-size="14.00">1</text>
</g>
<!-- rbo3.EntityUnkId14Spawner -->
<g id="node6" class="node">
<title>rbo3.EntityUnkId14Spawner</title>
<g id="a_node6"><a xlink:href="rbo3.EntityUnkId14Spawner.svg" xlink:title="rbo3.EntityUnkId14Spawner">
<ellipse fill="red" stroke="black" cx="919.49" cy="-378" rx="144.87" ry="18"/>
<text text-anchor="middle" x="919.49" y="-374.3" font-family="Times,serif" font-size="14.00">rbo3.EntityUnkId14Spawner</text>
</a>
</g>
</g>
<!-- rbo3.EntityUnkId14Spawner&#45;&gt;rbo3.AllocEntity -->
<g id="edge5" class="edge">
<title>rbo3.EntityUnkId14Spawner&#45;&gt;rbo3.AllocEntity</title>
<path fill="none" stroke="black" d="M931.86,-359.93C954.69,-328.43 1003.53,-261.03 1030.2,-224.24"/>
<polygon fill="black" stroke="black" points="1033.12,-226.17 1036.16,-216.02 1027.46,-222.06 1033.12,-226.17"/>
<text text-anchor="middle" x="926.86" y="-348.73" font-family="Times,serif" font-size="14.00">1</text>
</g>
<!-- rbo3.HitDetection -->
<g id="node7" class="node">
<title>rbo3.HitDetection</title>
<g id="a_node7"><a xlink:href="rbo3.HitDetection.svg" xlink:title="rbo3.HitDetection">
<ellipse fill="red" stroke="black" cx="1177.49" cy="-378" rx="94.78" ry="18"/>
<text text-anchor="middle" x="1177.49" y="-374.3" font-family="Times,serif" font-size="14.00">rbo3.HitDetection</text>
</a>
</g>
</g>
<!-- rbo3.HitDetection&#45;&gt;rbo3.AllocEntity -->
<g id="edge6" class="edge">
<title>rbo3.HitDetection&#45;&gt;rbo3.AllocEntity</title>
<path fill="none" stroke="black" d="M1165.12,-359.93C1142.29,-328.43 1093.45,-261.03 1066.78,-224.24"/>
<polygon fill="black" stroke="black" points="1069.52,-222.06 1060.82,-216.02 1063.86,-226.17 1069.52,-222.06"/>
<text text-anchor="middle" x="1160.12" y="-348.73" font-family="Times,serif" font-size="14.00">4</text>
</g>
<!-- rbo3.MakeExplosions -->
<g id="node8" class="node">
<title>rbo3.MakeExplosions</title>
<g id="a_node8"><a xlink:href="rbo3.MakeExplosions.svg" xlink:title="rbo3.MakeExplosions">
<ellipse fill="red" stroke="black" cx="1400.49" cy="-378" rx="110.48" ry="18"/>
<text text-anchor="middle" x="1400.49" y="-374.3" font-family="Times,serif" font-size="14.00">rbo3.MakeExplosions</text>
</a>
</g>
</g>
<!-- rbo3.MakeExplosions&#45;&gt;rbo3.AllocEntity -->
<g id="edge7" class="edge">
<title>rbo3.MakeExplosions&#45;&gt;rbo3.AllocEntity</title>
<path fill="none" stroke="black" d="M1368.32,-360.73C1304,-328.21 1159.66,-255.22 1089.01,-219.49"/>
<polygon fill="black" stroke="black" points="1090.46,-216.3 1079.95,-214.91 1087.3,-222.55 1090.46,-216.3"/>
<text text-anchor="middle" x="1363.32" y="-349.53" font-family="Times,serif" font-size="14.00">1</text>
</g>
<!-- rbo3.func_us_8019179C -->
<g id="node9" class="node">
<title>rbo3.func_us_8019179C</title>
<g id="a_node9"><a xlink:href="rbo3.func_us_8019179C.svg" xlink:title="rbo3.func_us_8019179C">
<ellipse fill="red" stroke="black" cx="1651.49" cy="-378" rx="122.38" ry="18"/>
<text text-anchor="middle" x="1651.49" y="-374.3" font-family="Times,serif" font-size="14.00">rbo3.func_us_8019179C</text>
</a>
</g>
</g>
<!-- rbo3.func_us_8019179C&#45;&gt;rbo3.AllocEntity -->
<g id="edge8" class="edge">
<title>rbo3.func_us_8019179C&#45;&gt;rbo3.AllocEntity</title>
<path fill="none" stroke="black" d="M1599.56,-361.67C1487.41,-328.57 1223.29,-250.6 1106.16,-216.02"/>
<polygon fill="black" stroke="black" points="1106.88,-212.59 1096.3,-213.11 1104.9,-219.3 1106.88,-212.59"/>
<text text-anchor="middle" x="1594.56" y="-350.47" font-family="Times,serif" font-size="14.00">3</text>
</g>
<!-- rbo3.func_us_80192B38 -->
<g id="node10" class="node">
<title>rbo3.func_us_80192B38</title>
<g id="a_node10"><a xlink:href="rbo3.func_us_80192B38.svg" xlink:title="rbo3.func_us_80192B38">
<ellipse fill="red" stroke="black" cx="1913.49" cy="-378" rx="122.38" ry="18"/>
<text text-anchor="middle" x="1913.49" y="-374.3" font-family="Times,serif" font-size="14.00">rbo3.func_us_80192B38</text>
</a>
</g>
</g>
<!-- rbo3.func_us_80192B38&#45;&gt;rbo3.AllocEntity -->
<g id="edge9" class="edge">
<title>rbo3.func_us_80192B38&#45;&gt;rbo3.AllocEntity</title>
<path fill="none" stroke="black" d="M1845.25,-362.96C1683.78,-329.73 1279.63,-246.56 1117.44,-213.19"/>
<polygon fill="black" stroke="black" points="1118.08,-209.75 1107.58,-211.16 1116.67,-216.6 1118.08,-209.75"/>
<text text-anchor="middle" x="1840.25" y="-351.76" font-family="Times,serif" font-size="14.00">1</text>
</g>
</g>
</svg>
