<?xml version="1.0" encoding="UTF-8" standalone="no"?>
<!DOCTYPE svg PUBLIC "-//W3C//DTD SVG 1.1//EN"
 "http://www.w3.org/Graphics/SVG/1.1/DTD/svg11.dtd">
<!-- Generated by graphviz version 2.43.0 (0)
 -->
<!-- Title: rbo3.EntityRedDoor Pages: 1 -->
<svg width="1971pt" height="224pt"
 viewBox="0.00 0.00 1971.04 224.00" xmlns="http://www.w3.org/2000/svg" xmlns:xlink="http://www.w3.org/1999/xlink">
<g id="graph0" class="graph" transform="scale(1 1) rotate(0) translate(4 220)">
<title>rbo3.EntityRedDoor</title>
<polygon fill="white" stroke="transparent" points="-4,4 -4,-220 1967.04,-220 1967.04,4 -4,4"/>
<!-- rbo3.EntityRedDoor -->
<g id="node1" class="node">
<title>rbo3.EntityRedDoor</title>
<ellipse fill="red" stroke="black" cx="1092.44" cy="-198" rx="104.78" ry="18"/>
<text text-anchor="middle" x="1092.44" y="-194.3" font-family="Times,serif" font-size="14.00">rbo3.EntityRedDoor</text>
</g>
<!-- dra.AllocPrimitives -->
<g id="node2" class="node">
<title>dra.AllocPrimitives</title>
<g id="a_node2"><a xlink:href="dra.AllocPrimitives.svg" xlink:title="dra.AllocPrimitives">
<ellipse fill="green" stroke="black" cx="99.44" cy="-18" rx="99.38" ry="18"/>
<text text-anchor="middle" x="99.44" y="-14.3" font-family="Times,serif" font-size="14.00">dra.AllocPrimitives</text>
</a>
</g>
</g>
<!-- rbo3.EntityRedDoor&#45;&gt;dra.AllocPrimitives -->
<g id="edge1" class="edge">
<title>rbo3.EntityRedDoor&#45;&gt;dra.AllocPrimitives</title>
<path fill="none" stroke="black" d="M1022.62,-184.48C843.04,-152.29 366.12,-66.8 177.65,-33.02"/>
<polygon fill="black" stroke="black" points="178,-29.53 167.54,-31.21 176.77,-36.42 178,-29.53"/>
<text text-anchor="middle" x="162.54" y="-35.01" font-family="Times,serif" font-size="14.00">1</text>
</g>
<!-- dra.PlaySfxVolPan -->
<g id="node3" class="node">
<title>dra.PlaySfxVolPan</title>
<g id="a_node3"><a xlink:href="dra.PlaySfxVolPan.svg" xlink:title="dra.PlaySfxVolPan">
<ellipse fill="green" stroke="black" cx="312.44" cy="-18" rx="95.58" ry="18"/>
<text text-anchor="middle" x="312.44" y="-14.3" font-family="Times,serif" font-size="14.00">dra.PlaySfxVolPan</text>
</a>
</g>
</g>
<!-- rbo3.EntityRedDoor&#45;&gt;dra.PlaySfxVolPan -->
<g id="edge2" class="edge">
<title>rbo3.EntityRedDoor&#45;&gt;dra.PlaySfxVolPan</title>
<path fill="none" stroke="black" d="M1032.21,-183.25C889.43,-150.67 531.14,-68.91 380.67,-34.57"/>
<polygon fill="black" stroke="black" points="381.16,-31.09 370.63,-32.28 379.6,-37.92 381.16,-31.09"/>
<text text-anchor="middle" x="365.63" y="-36.08" font-family="Times,serif" font-size="14.00">6</text>
</g>
<!-- dra.func_8010DFF0 -->
<g id="node4" class="node">
<title>dra.func_8010DFF0</title>
<g id="a_node4"><a xlink:href="dra.func_8010DFF0.svg" xlink:title="dra.func_8010DFF0">
<ellipse fill="green" stroke="black" cx="528.44" cy="-18" rx="102.88" ry="18"/>
<text text-anchor="middle" x="528.44" y="-14.3" font-family="Times,serif" font-size="14.00">dra.func_8010DFF0</text>
</a>
</g>
</g>
<!-- rbo3.EntityRedDoor&#45;&gt;dra.func_8010DFF0 -->
<g id="edge3" class="edge">
<title>rbo3.EntityRedDoor&#45;&gt;dra.func_8010DFF0</title>
<path fill="none" stroke="black" d="M1044.35,-181.82C940.79,-149.14 697.05,-72.21 585.72,-37.08"/>
<polygon fill="black" stroke="black" points="586.6,-33.68 576.01,-34.01 584.49,-40.36 586.6,-33.68"/>
<text text-anchor="middle" x="571.01" y="-37.81" font-family="Times,serif" font-size="14.00">1</text>
</g>
<!-- dra.func_8010E168 -->
<g id="node5" class="node">
<title>dra.func_8010E168</title>
<g id="a_node5"><a xlink:href="dra.func_8010E168.svg" xlink:title="dra.func_8010E168">
<ellipse fill="green" stroke="black" cx="750.44" cy="-18" rx="101.28" ry="18"/>
<text text-anchor="middle" x="750.44" y="-14.3" font-family="Times,serif" font-size="14.00">dra.func_8010E168</text>
</a>
</g>
</g>
<!-- rbo3.EntityRedDoor&#45;&gt;dra.func_8010E168 -->
<g id="edge4" class="edge">
<title>rbo3.EntityRedDoor&#45;&gt;dra.func_8010E168</title>
<path fill="none" stroke="black" d="M1061.18,-180.73C998.98,-148.35 859.73,-75.88 790.75,-39.98"/>
<polygon fill="black" stroke="black" points="791.99,-36.68 781.5,-35.17 788.76,-42.89 791.99,-36.68"/>
<text text-anchor="middle" x="776.5" y="-38.97" font-family="Times,serif" font-size="14.00">1</text>
</g>
<!-- rbo3.DestroyEntity -->
<g id="node6" class="node">
<title>rbo3.DestroyEntity</title>
<g id="a_node6"><a xlink:href="rbo3.DestroyEntity.svg" xlink:title="rbo3.DestroyEntity">
<ellipse fill="red" stroke="black" cx="970.44" cy="-18" rx="100.98" ry="18"/>
<text text-anchor="middle" x="970.44" y="-14.3" font-family="Times,serif" font-size="14.00">rbo3.DestroyEntity</text>
</a>
</g>
</g>
<!-- rbo3.EntityRedDoor&#45;&gt;rbo3.DestroyEntity -->
<g id="edge5" class="edge">
<title>rbo3.EntityRedDoor&#45;&gt;rbo3.DestroyEntity</title>
<path fill="none" stroke="black" d="M1080.74,-179.93C1059.25,-148.57 1013.35,-81.6 988.06,-44.71"/>
<polygon fill="black" stroke="black" points="990.64,-42.29 982.1,-36.02 984.87,-46.24 990.64,-42.29"/>
<text text-anchor="middle" x="977.1" y="-39.82" font-family="Times,serif" font-size="14.00">1</text>
</g>
<!-- rbo3.EntityIsNearPlayer -->
<g id="node7" class="node">
<title>rbo3.EntityIsNearPlayer</title>
<g id="a_node7"><a xlink:href="rbo3.EntityIsNearPlayer.svg" xlink:title="rbo3.EntityIsNearPlayer">
<ellipse fill="red" stroke="black" cx="1214.44" cy="-18" rx="124.58" ry="18"/>
<text text-anchor="middle" x="1214.44" y="-14.3" font-family="Times,serif" font-size="14.00">rbo3.EntityIsNearPlayer</text>
</a>
</g>
</g>
<!-- rbo3.EntityRedDoor&#45;&gt;rbo3.EntityIsNearPlayer -->
<g id="edge6" class="edge">
<title>rbo3.EntityRedDoor&#45;&gt;rbo3.EntityIsNearPlayer</title>
<path fill="none" stroke="black" d="M1104.14,-179.93C1125.64,-148.57 1171.53,-81.6 1196.82,-44.71"/>
<polygon fill="black" stroke="black" points="1200.01,-46.24 1202.78,-36.02 1194.24,-42.29 1200.01,-46.24"/>
<text text-anchor="middle" x="1197.78" y="-39.82" font-family="Times,serif" font-size="14.00">3</text>
</g>
<!-- rbo3.GetSideToPlayer -->
<g id="node8" class="node">
<title>rbo3.GetSideToPlayer</title>
<g id="a_node8"><a xlink:href="rbo3.GetSideToPlayer.svg" xlink:title="rbo3.GetSideToPlayer">
<ellipse fill="red" stroke="black" cx="1469.44" cy="-18" rx="112.38" ry="18"/>
<text text-anchor="middle" x="1469.44" y="-14.3" font-family="Times,serif" font-size="14.00">rbo3.GetSideToPlayer</text>
</a>
</g>
</g>
<!-- rbo3.EntityRedDoor&#45;&gt;rbo3.GetSideToPlayer -->
<g id="edge7" class="edge">
<title>rbo3.EntityRedDoor&#45;&gt;rbo3.GetSideToPlayer</title>
<path fill="none" stroke="black" d="M1126.56,-180.89C1195.22,-148.47 1349.97,-75.41 1425.84,-39.59"/>
<polygon fill="black" stroke="black" points="1427.58,-42.64 1435.13,-35.2 1424.59,-36.31 1427.58,-42.64"/>
<text text-anchor="middle" x="1430.13" y="-39" font-family="Times,serif" font-size="14.00">1</text>
</g>
<!-- rbo3.InitializeEntity -->
<g id="node9" class="node">
<title>rbo3.InitializeEntity</title>
<g id="a_node9"><a xlink:href="rbo3.InitializeEntity.svg" xlink:title="rbo3.InitializeEntity">
<ellipse fill="red" stroke="black" cx="1704.44" cy="-18" rx="104.78" ry="18"/>
<text text-anchor="middle" x="1704.44" y="-14.3" font-family="Times,serif" font-size="14.00">rbo3.InitializeEntity</text>
</a>
</g>
</g>
<!-- rbo3.EntityRedDoor&#45;&gt;rbo3.InitializeEntity -->
<g id="edge8" class="edge">
<title>rbo3.EntityRedDoor&#45;&gt;rbo3.InitializeEntity</title>
<path fill="none" stroke="black" d="M1143.31,-182.21C1255.32,-149.63 1522.91,-71.8 1643.58,-36.7"/>
<polygon fill="black" stroke="black" points="1644.78,-40 1653.4,-33.84 1642.83,-33.28 1644.78,-40"/>
<text text-anchor="middle" x="1648.4" y="-37.64" font-family="Times,serif" font-size="14.00">1</text>
</g>
<!-- rcos -->
<g id="node10" class="node">
<title>rcos</title>
<g id="a_node10"><a xlink:href="rcos.svg" xlink:title="rcos">
<ellipse fill="lightblue" stroke="black" cx="1857.44" cy="-18" rx="30.59" ry="18"/>
<text text-anchor="middle" x="1857.44" y="-14.3" font-family="Times,serif" font-size="14.00">rcos</text>
</a>
</g>
</g>
<!-- rbo3.EntityRedDoor&#45;&gt;rcos -->
<g id="edge9" class="edge">
<title>rbo3.EntityRedDoor&#45;&gt;rcos</title>
<path fill="none" stroke="black" d="M1167.13,-185.34C1300.14,-163.49 1585.95,-111.67 1818.44,-36 1820.55,-35.31 1822.71,-34.55 1824.86,-33.75"/>
<polygon fill="black" stroke="black" points="1826.24,-36.97 1834.21,-29.99 1823.63,-30.47 1826.24,-36.97"/>
<text text-anchor="middle" x="1829.21" y="-33.79" font-family="Times,serif" font-size="14.00">2</text>
</g>
<!-- rsin -->
<g id="node11" class="node">
<title>rsin</title>
<g id="a_node11"><a xlink:href="rsin.svg" xlink:title="rsin">
<ellipse fill="lightblue" stroke="black" cx="1934.44" cy="-18" rx="28.7" ry="18"/>
<text text-anchor="middle" x="1934.44" y="-14.3" font-family="Times,serif" font-size="14.00">rsin</text>
</a>
</g>
</g>
<!-- rbo3.EntityRedDoor&#45;&gt;rsin -->
<g id="edge10" class="edge">
<title>rbo3.EntityRedDoor&#45;&gt;rsin</title>
<path fill="none" stroke="black" d="M1175.18,-186.94C1322.89,-167.56 1640.57,-119.43 1897.44,-36 1899.36,-35.38 1901.31,-34.68 1903.25,-33.94"/>
<polygon fill="black" stroke="black" points="1904.98,-37.01 1912.87,-29.93 1902.29,-30.55 1904.98,-37.01"/>
<text text-anchor="middle" x="1907.87" y="-33.73" font-family="Times,serif" font-size="14.00">2</text>
</g>
</g>
</svg>
