<?xml version="1.0" encoding="UTF-8" standalone="no"?>
<!DOCTYPE svg PUBLIC "-//W3C//DTD SVG 1.1//EN"
 "http://www.w3.org/Graphics/SVG/1.1/DTD/svg11.dtd">
<!-- Generated by graphviz version 2.43.0 (0)
 -->
<!-- Title: rbo3.EntityStageNamePopup Pages: 1 -->
<svg width="1253pt" height="224pt"
 viewBox="0.00 0.00 1252.53 224.00" xmlns="http://www.w3.org/2000/svg" xmlns:xlink="http://www.w3.org/1999/xlink">
<g id="graph0" class="graph" transform="scale(1 1) rotate(0) translate(4 220)">
<title>rbo3.EntityStageNamePopup</title>
<polygon fill="white" stroke="transparent" points="-4,4 -4,-220 1248.53,-220 1248.53,4 -4,4"/>
<!-- rbo3.EntityStageNamePopup -->
<g id="node1" class="node">
<title>rbo3.EntityStageNamePopup</title>
<ellipse fill="red" stroke="black" cx="546.05" cy="-198" rx="146.77" ry="18"/>
<text text-anchor="middle" x="546.05" y="-194.3" font-family="Times,serif" font-size="14.00">rbo3.EntityStageNamePopup</text>
</g>
<!-- FntPrint -->
<g id="node2" class="node">
<title>FntPrint</title>
<g id="a_node2"><a xlink:href="FntPrint.svg" xlink:title="FntPrint">
<ellipse fill="lightblue" stroke="black" cx="50.05" cy="-18" rx="50.09" ry="18"/>
<text text-anchor="middle" x="50.05" y="-14.3" font-family="Times,serif" font-size="14.00">FntPrint</text>
</a>
</g>
</g>
<!-- rbo3.EntityStageNamePopup&#45;&gt;FntPrint -->
<g id="edge1" class="edge">
<title>rbo3.EntityStageNamePopup&#45;&gt;FntPrint</title>
<path fill="none" stroke="black" d="M500.71,-180.73C405.78,-146.66 187.16,-68.21 93.7,-34.67"/>
<polygon fill="black" stroke="black" points="94.86,-31.36 84.26,-31.28 92.49,-37.95 94.86,-31.36"/>
<text text-anchor="middle" x="79.26" y="-35.08" font-family="Times,serif" font-size="14.00">2</text>
</g>
<!-- dra.AllocPrimitives -->
<g id="node3" class="node">
<title>dra.AllocPrimitives</title>
<g id="a_node3"><a xlink:href="dra.AllocPrimitives.svg" xlink:title="dra.AllocPrimitives">
<ellipse fill="green" stroke="black" cx="217.05" cy="-18" rx="99.38" ry="18"/>
<text text-anchor="middle" x="217.05" y="-14.3" font-family="Times,serif" font-size="14.00">dra.AllocPrimitives</text>
</a>
</g>
</g>
<!-- rbo3.EntityStageNamePopup&#45;&gt;dra.AllocPrimitives -->
<g id="edge2" class="edge">
<title>rbo3.EntityStageNamePopup&#45;&gt;dra.AllocPrimitives</title>
<path fill="none" stroke="black" d="M515.09,-180.25C454.9,-147.69 322.19,-75.89 256.07,-40.11"/>
<polygon fill="black" stroke="black" points="257.66,-36.99 247.2,-35.31 254.33,-43.15 257.66,-36.99"/>
<text text-anchor="middle" x="242.2" y="-39.11" font-family="Times,serif" font-size="14.00">1</text>
</g>
<!-- rbo3.DestroyEntity -->
<g id="node4" class="node">
<title>rbo3.DestroyEntity</title>
<g id="a_node4"><a xlink:href="rbo3.DestroyEntity.svg" xlink:title="rbo3.DestroyEntity">
<ellipse fill="red" stroke="black" cx="435.05" cy="-18" rx="100.98" ry="18"/>
<text text-anchor="middle" x="435.05" y="-14.3" font-family="Times,serif" font-size="14.00">rbo3.DestroyEntity</text>
</a>
</g>
</g>
<!-- rbo3.EntityStageNamePopup&#45;&gt;rbo3.DestroyEntity -->
<g id="edge3" class="edge">
<title>rbo3.EntityStageNamePopup&#45;&gt;rbo3.DestroyEntity</title>
<path fill="none" stroke="black" d="M535.4,-179.93C515.84,-148.57 474.08,-81.6 451.08,-44.71"/>
<polygon fill="black" stroke="black" points="453.92,-42.65 445.66,-36.02 447.98,-46.35 453.92,-42.65"/>
<text text-anchor="middle" x="440.66" y="-39.82" font-family="Times,serif" font-size="14.00">1</text>
</g>
<!-- rbo3.InitializeEntity -->
<g id="node5" class="node">
<title>rbo3.InitializeEntity</title>
<g id="a_node5"><a xlink:href="rbo3.InitializeEntity.svg" xlink:title="rbo3.InitializeEntity">
<ellipse fill="red" stroke="black" cx="658.05" cy="-18" rx="104.78" ry="18"/>
<text text-anchor="middle" x="658.05" y="-14.3" font-family="Times,serif" font-size="14.00">rbo3.InitializeEntity</text>
</a>
</g>
</g>
<!-- rbo3.EntityStageNamePopup&#45;&gt;rbo3.InitializeEntity -->
<g id="edge4" class="edge">
<title>rbo3.EntityStageNamePopup&#45;&gt;rbo3.InitializeEntity</title>
<path fill="none" stroke="black" d="M556.78,-179.93C576.52,-148.57 618.66,-81.6 641.87,-44.71"/>
<polygon fill="black" stroke="black" points="644.98,-46.34 647.34,-36.02 639.05,-42.62 644.98,-46.34"/>
<text text-anchor="middle" x="642.34" y="-39.82" font-family="Times,serif" font-size="14.00">1</text>
</g>
<!-- rbo3.Random -->
<g id="node6" class="node">
<title>rbo3.Random</title>
<g id="a_node6"><a xlink:href="rbo3.Random.svg" xlink:title="rbo3.Random">
<ellipse fill="red" stroke="black" cx="854.05" cy="-18" rx="73.39" ry="18"/>
<text text-anchor="middle" x="854.05" y="-14.3" font-family="Times,serif" font-size="14.00">rbo3.Random</text>
</a>
</g>
</g>
<!-- rbo3.EntityStageNamePopup&#45;&gt;rbo3.Random -->
<g id="edge5" class="edge">
<title>rbo3.EntityStageNamePopup&#45;&gt;rbo3.Random</title>
<path fill="none" stroke="black" d="M575.02,-180.25C631.43,-147.66 755.85,-75.75 817.69,-40.01"/>
<polygon fill="black" stroke="black" points="819.79,-42.84 826.7,-34.8 816.29,-36.78 819.79,-42.84"/>
<text text-anchor="middle" x="821.7" y="-38.6" font-family="Times,serif" font-size="14.00">4</text>
</g>
<!-- rbo3.StageNamePopupHelper -->
<g id="node7" class="node">
<title>rbo3.StageNamePopupHelper</title>
<g id="a_node7"><a xlink:href="rbo3.StageNamePopupHelper.svg" xlink:title="rbo3.StageNamePopupHelper">
<ellipse fill="red" stroke="black" cx="1095.05" cy="-18" rx="149.47" ry="18"/>
<text text-anchor="middle" x="1095.05" y="-14.3" font-family="Times,serif" font-size="14.00">rbo3.StageNamePopupHelper</text>
</a>
</g>
</g>
<!-- rbo3.EntityStageNamePopup&#45;&gt;rbo3.StageNamePopupHelper -->
<g id="edge6" class="edge">
<title>rbo3.EntityStageNamePopup&#45;&gt;rbo3.StageNamePopupHelper</title>
<path fill="none" stroke="black" d="M595.73,-180.89C696.97,-148.07 926.71,-73.58 1035.63,-38.26"/>
<polygon fill="black" stroke="black" points="1037.04,-41.49 1045.47,-35.07 1034.88,-34.83 1037.04,-41.49"/>
<text text-anchor="middle" x="1040.47" y="-38.87" font-family="Times,serif" font-size="14.00">2</text>
</g>
</g>
</svg>
