<?xml version="1.0" encoding="UTF-8" standalone="no"?>
<!DOCTYPE svg PUBLIC "-//W3C//DTD SVG 1.1//EN"
 "http://www.w3.org/Graphics/SVG/1.1/DTD/svg11.dtd">
<!-- Generated by graphviz version 2.43.0 (0)
 -->
<!-- Title: rbo3.EntityEquipItemDrop Pages: 1 -->
<svg width="3392pt" height="224pt"
 viewBox="0.00 0.00 3392.23 224.00" xmlns="http://www.w3.org/2000/svg" xmlns:xlink="http://www.w3.org/1999/xlink">
<g id="graph0" class="graph" transform="scale(1 1) rotate(0) translate(4 220)">
<title>rbo3.EntityEquipItemDrop</title>
<polygon fill="white" stroke="transparent" points="-4,4 -4,-220 3388.23,-220 3388.23,4 -4,4"/>
<!-- rbo3.EntityEquipItemDrop -->
<g id="node1" class="node">
<title>rbo3.EntityEquipItemDrop</title>
<ellipse fill="red" stroke="black" cx="1664.69" cy="-198" rx="135.68" ry="18"/>
<text text-anchor="middle" x="1664.69" y="-194.3" font-family="Times,serif" font-size="14.00">rbo3.EntityEquipItemDrop</text>
</g>
<!-- dra.AddToInventory -->
<g id="node2" class="node">
<title>dra.AddToInventory</title>
<g id="a_node2"><a xlink:href="dra.AddToInventory.svg" xlink:title="dra.AddToInventory">
<ellipse fill="green" stroke="black" cx="102.69" cy="-18" rx="102.88" ry="18"/>
<text text-anchor="middle" x="102.69" y="-14.3" font-family="Times,serif" font-size="14.00">dra.AddToInventory</text>
</a>
</g>
</g>
<!-- rbo3.EntityEquipItemDrop&#45;&gt;dra.AddToInventory -->
<g id="edge1" class="edge">
<title>rbo3.EntityEquipItemDrop&#45;&gt;dra.AddToInventory</title>
<path fill="none" stroke="black" d="M1558.54,-186.68C1318.68,-163.05 716.63,-101.93 214.69,-36 205.5,-34.79 195.9,-33.45 186.35,-32.07"/>
<polygon fill="black" stroke="black" points="186.83,-28.61 176.43,-30.62 185.82,-35.53 186.83,-28.61"/>
<text text-anchor="middle" x="171.43" y="-34.42" font-family="Times,serif" font-size="14.00">1</text>
</g>
<!-- dra.AllocPrimitives -->
<g id="node3" class="node">
<title>dra.AllocPrimitives</title>
<g id="a_node3"><a xlink:href="dra.AllocPrimitives.svg" xlink:title="dra.AllocPrimitives">
<ellipse fill="green" stroke="black" cx="322.69" cy="-18" rx="99.38" ry="18"/>
<text text-anchor="middle" x="322.69" y="-14.3" font-family="Times,serif" font-size="14.00">dra.AllocPrimitives</text>
</a>
</g>
</g>
<!-- rbo3.EntityEquipItemDrop&#45;&gt;dra.AllocPrimitives -->
<g id="edge2" class="edge">
<title>rbo3.EntityEquipItemDrop&#45;&gt;dra.AllocPrimitives</title>
<path fill="none" stroke="black" d="M1568.26,-185.24C1360.37,-159.7 854.55,-96.57 431.69,-36 423.01,-34.76 413.95,-33.41 404.93,-32.05"/>
<polygon fill="black" stroke="black" points="405.18,-28.55 394.77,-30.5 404.13,-35.47 405.18,-28.55"/>
<text text-anchor="middle" x="389.77" y="-34.3" font-family="Times,serif" font-size="14.00">1</text>
</g>
<!-- dra.CheckCollision -->
<g id="node4" class="node">
<title>dra.CheckCollision</title>
<g id="a_node4"><a xlink:href="dra.CheckCollision.svg" xlink:title="dra.CheckCollision">
<ellipse fill="green" stroke="black" cx="537.69" cy="-18" rx="97.48" ry="18"/>
<text text-anchor="middle" x="537.69" y="-14.3" font-family="Times,serif" font-size="14.00">dra.CheckCollision</text>
</a>
</g>
</g>
<!-- rbo3.EntityEquipItemDrop&#45;&gt;dra.CheckCollision -->
<g id="edge3" class="edge">
<title>rbo3.EntityEquipItemDrop&#45;&gt;dra.CheckCollision</title>
<path fill="none" stroke="black" d="M1580.64,-183.82C1406.06,-156.44 991.49,-91.31 643.69,-36 635.55,-34.71 627.07,-33.35 618.59,-32"/>
<polygon fill="black" stroke="black" points="619.1,-28.53 608.67,-30.41 618,-35.45 619.1,-28.53"/>
<text text-anchor="middle" x="603.67" y="-34.21" font-family="Times,serif" font-size="14.00">3</text>
</g>
<!-- dra.FreePrimitives -->
<g id="node5" class="node">
<title>dra.FreePrimitives</title>
<g id="a_node5"><a xlink:href="dra.FreePrimitives.svg" xlink:title="dra.FreePrimitives">
<ellipse fill="green" stroke="black" cx="751.69" cy="-18" rx="98.58" ry="18"/>
<text text-anchor="middle" x="751.69" y="-14.3" font-family="Times,serif" font-size="14.00">dra.FreePrimitives</text>
</a>
</g>
</g>
<!-- rbo3.EntityEquipItemDrop&#45;&gt;dra.FreePrimitives -->
<g id="edge4" class="edge">
<title>rbo3.EntityEquipItemDrop&#45;&gt;dra.FreePrimitives</title>
<path fill="none" stroke="black" d="M1591.52,-182.73C1421,-149.49 998.66,-67.15 826.52,-33.59"/>
<polygon fill="black" stroke="black" points="827.02,-30.12 816.54,-31.64 825.68,-36.99 827.02,-30.12"/>
<text text-anchor="middle" x="811.54" y="-35.44" font-family="Times,serif" font-size="14.00">1</text>
</g>
<!-- dra.LoadEquipIcon -->
<g id="node6" class="node">
<title>dra.LoadEquipIcon</title>
<g id="a_node6"><a xlink:href="dra.LoadEquipIcon.svg" xlink:title="dra.LoadEquipIcon">
<ellipse fill="green" stroke="black" cx="967.69" cy="-18" rx="98.58" ry="18"/>
<text text-anchor="middle" x="967.69" y="-14.3" font-family="Times,serif" font-size="14.00">dra.LoadEquipIcon</text>
</a>
</g>
</g>
<!-- rbo3.EntityEquipItemDrop&#45;&gt;dra.LoadEquipIcon -->
<g id="edge5" class="edge">
<title>rbo3.EntityEquipItemDrop&#45;&gt;dra.LoadEquipIcon</title>
<path fill="none" stroke="black" d="M1604.96,-181.75C1474.85,-148.52 1166.73,-69.83 1032.3,-35.5"/>
<polygon fill="black" stroke="black" points="1033.09,-32.09 1022.54,-33.01 1031.36,-38.87 1033.09,-32.09"/>
<text text-anchor="middle" x="1017.54" y="-36.81" font-family="Times,serif" font-size="14.00">1</text>
</g>
<!-- dra.PlaySfx -->
<g id="node7" class="node">
<title>dra.PlaySfx</title>
<g id="a_node7"><a xlink:href="dra.PlaySfx.svg" xlink:title="dra.PlaySfx">
<ellipse fill="green" stroke="black" cx="1148.69" cy="-18" rx="64.19" ry="18"/>
<text text-anchor="middle" x="1148.69" y="-14.3" font-family="Times,serif" font-size="14.00">dra.PlaySfx</text>
</a>
</g>
</g>
<!-- rbo3.EntityEquipItemDrop&#45;&gt;dra.PlaySfx -->
<g id="edge6" class="edge">
<title>rbo3.EntityEquipItemDrop&#45;&gt;dra.PlaySfx</title>
<path fill="none" stroke="black" d="M1618.45,-181.05C1521.13,-147.48 1296.03,-69.83 1196.97,-35.65"/>
<polygon fill="black" stroke="black" points="1198.09,-32.34 1187.5,-32.39 1195.81,-38.96 1198.09,-32.34"/>
<text text-anchor="middle" x="1182.5" y="-36.19" font-family="Times,serif" font-size="14.00">1</text>
</g>
<!-- rbo3.BlinkItem -->
<g id="node8" class="node">
<title>rbo3.BlinkItem</title>
<g id="a_node8"><a xlink:href="rbo3.BlinkItem.svg" xlink:title="rbo3.BlinkItem">
<ellipse fill="red" stroke="black" cx="1311.69" cy="-18" rx="80.69" ry="18"/>
<text text-anchor="middle" x="1311.69" y="-14.3" font-family="Times,serif" font-size="14.00">rbo3.BlinkItem</text>
</a>
</g>
</g>
<!-- rbo3.EntityEquipItemDrop&#45;&gt;rbo3.BlinkItem -->
<g id="edge7" class="edge">
<title>rbo3.EntityEquipItemDrop&#45;&gt;rbo3.BlinkItem</title>
<path fill="none" stroke="black" d="M1631.8,-180.41C1566.93,-147.71 1422.71,-74.98 1352.15,-39.4"/>
<polygon fill="black" stroke="black" points="1353.61,-36.22 1343.1,-34.84 1350.46,-42.47 1353.61,-36.22"/>
<text text-anchor="middle" x="1338.1" y="-38.64" font-family="Times,serif" font-size="14.00">1</text>
</g>
<!-- rbo3.BottomCornerText -->
<g id="node9" class="node">
<title>rbo3.BottomCornerText</title>
<g id="a_node9"><a xlink:href="rbo3.BottomCornerText.svg" xlink:title="rbo3.BottomCornerText">
<ellipse fill="red" stroke="black" cx="1531.69" cy="-18" rx="121.58" ry="18"/>
<text text-anchor="middle" x="1531.69" y="-14.3" font-family="Times,serif" font-size="14.00">rbo3.BottomCornerText</text>
</a>
</g>
</g>
<!-- rbo3.EntityEquipItemDrop&#45;&gt;rbo3.BottomCornerText -->
<g id="edge8" class="edge">
<title>rbo3.EntityEquipItemDrop&#45;&gt;rbo3.BottomCornerText</title>
<path fill="none" stroke="black" d="M1651.94,-179.93C1628.4,-148.43 1578.04,-81.03 1550.55,-44.24"/>
<polygon fill="black" stroke="black" points="1553.19,-41.93 1544.4,-36.02 1547.59,-46.12 1553.19,-41.93"/>
<text text-anchor="middle" x="1539.4" y="-39.82" font-family="Times,serif" font-size="14.00">1</text>
</g>
<!-- rbo3.CheckFieldCollision -->
<g id="node10" class="node">
<title>rbo3.CheckFieldCollision</title>
<g id="a_node10"><a xlink:href="rbo3.CheckFieldCollision.svg" xlink:title="rbo3.CheckFieldCollision">
<ellipse fill="red" stroke="black" cx="1797.69" cy="-18" rx="126.98" ry="18"/>
<text text-anchor="middle" x="1797.69" y="-14.3" font-family="Times,serif" font-size="14.00">rbo3.CheckFieldCollision</text>
</a>
</g>
</g>
<!-- rbo3.EntityEquipItemDrop&#45;&gt;rbo3.CheckFieldCollision -->
<g id="edge9" class="edge">
<title>rbo3.EntityEquipItemDrop&#45;&gt;rbo3.CheckFieldCollision</title>
<path fill="none" stroke="black" d="M1677.44,-179.93C1700.98,-148.43 1751.34,-81.03 1778.83,-44.24"/>
<polygon fill="black" stroke="black" points="1781.8,-46.12 1784.98,-36.02 1776.19,-41.93 1781.8,-46.12"/>
<text text-anchor="middle" x="1779.98" y="-39.82" font-family="Times,serif" font-size="14.00">1</text>
</g>
<!-- rbo3.DestroyEntity -->
<g id="node11" class="node">
<title>rbo3.DestroyEntity</title>
<g id="a_node11"><a xlink:href="rbo3.DestroyEntity.svg" xlink:title="rbo3.DestroyEntity">
<ellipse fill="red" stroke="black" cx="2042.69" cy="-18" rx="100.98" ry="18"/>
<text text-anchor="middle" x="2042.69" y="-14.3" font-family="Times,serif" font-size="14.00">rbo3.DestroyEntity</text>
</a>
</g>
</g>
<!-- rbo3.EntityEquipItemDrop&#45;&gt;rbo3.DestroyEntity -->
<g id="edge10" class="edge">
<title>rbo3.EntityEquipItemDrop&#45;&gt;rbo3.DestroyEntity</title>
<path fill="none" stroke="black" d="M1699.57,-180.57C1768.89,-147.93 1923.8,-74.99 1999.45,-39.36"/>
<polygon fill="black" stroke="black" points="2001.15,-42.43 2008.71,-35 1998.17,-36.1 2001.15,-42.43"/>
<text text-anchor="middle" x="2003.71" y="-38.8" font-family="Times,serif" font-size="14.00">2</text>
</g>
<!-- rbo3.EntityPrizeDrop -->
<g id="node12" class="node">
<title>rbo3.EntityPrizeDrop</title>
<g id="a_node12"><a xlink:href="rbo3.EntityPrizeDrop.svg" xlink:title="rbo3.EntityPrizeDrop">
<ellipse fill="red" stroke="black" cx="2271.69" cy="-18" rx="110.48" ry="18"/>
<text text-anchor="middle" x="2271.69" y="-14.3" font-family="Times,serif" font-size="14.00">rbo3.EntityPrizeDrop</text>
</a>
</g>
</g>
<!-- rbo3.EntityEquipItemDrop&#45;&gt;rbo3.EntityPrizeDrop -->
<g id="edge11" class="edge">
<title>rbo3.EntityEquipItemDrop&#45;&gt;rbo3.EntityPrizeDrop</title>
<path fill="none" stroke="black" d="M1718.03,-181.36C1830.58,-148.35 2091.78,-71.76 2210.72,-36.88"/>
<polygon fill="black" stroke="black" points="2211.8,-40.21 2220.41,-34.04 2209.83,-33.49 2211.8,-40.21"/>
<text text-anchor="middle" x="2215.41" y="-37.84" font-family="Times,serif" font-size="14.00">1</text>
</g>
<!-- rbo3.FallEntity -->
<g id="node13" class="node">
<title>rbo3.FallEntity</title>
<g id="a_node13"><a xlink:href="rbo3.FallEntity.svg" xlink:title="rbo3.FallEntity">
<ellipse fill="red" stroke="black" cx="2481.69" cy="-18" rx="81.49" ry="18"/>
<text text-anchor="middle" x="2481.69" y="-14.3" font-family="Times,serif" font-size="14.00">rbo3.FallEntity</text>
</a>
</g>
</g>
<!-- rbo3.EntityEquipItemDrop&#45;&gt;rbo3.FallEntity -->
<g id="edge12" class="edge">
<title>rbo3.EntityEquipItemDrop&#45;&gt;rbo3.FallEntity</title>
<path fill="none" stroke="black" d="M1732.24,-182.28C1886.5,-148.67 2263.05,-66.63 2415.75,-33.37"/>
<polygon fill="black" stroke="black" points="2416.89,-36.7 2425.91,-31.15 2415.4,-29.86 2416.89,-36.7"/>
<text text-anchor="middle" x="2420.91" y="-34.95" font-family="Times,serif" font-size="14.00">1</text>
</g>
<!-- rbo3.InitializeEntity -->
<g id="node14" class="node">
<title>rbo3.InitializeEntity</title>
<g id="a_node14"><a xlink:href="rbo3.InitializeEntity.svg" xlink:title="rbo3.InitializeEntity">
<ellipse fill="red" stroke="black" cx="2685.69" cy="-18" rx="104.78" ry="18"/>
<text text-anchor="middle" x="2685.69" y="-14.3" font-family="Times,serif" font-size="14.00">rbo3.InitializeEntity</text>
</a>
</g>
</g>
<!-- rbo3.EntityEquipItemDrop&#45;&gt;rbo3.InitializeEntity -->
<g id="edge13" class="edge">
<title>rbo3.EntityEquipItemDrop&#45;&gt;rbo3.InitializeEntity</title>
<path fill="none" stroke="black" d="M1743.53,-183.25C1933.2,-150.19 2413.4,-66.47 2604.97,-33.07"/>
<polygon fill="black" stroke="black" points="2605.72,-36.49 2614.97,-31.33 2604.52,-29.6 2605.72,-36.49"/>
<text text-anchor="middle" x="2609.97" y="-35.13" font-family="Times,serif" font-size="14.00">1</text>
</g>
<!-- rbo3.MoveEntity -->
<g id="node15" class="node">
<title>rbo3.MoveEntity</title>
<g id="a_node15"><a xlink:href="rbo3.MoveEntity.svg" xlink:title="rbo3.MoveEntity">
<ellipse fill="red" stroke="black" cx="2897.69" cy="-18" rx="89.08" ry="18"/>
<text text-anchor="middle" x="2897.69" y="-14.3" font-family="Times,serif" font-size="14.00">rbo3.MoveEntity</text>
</a>
</g>
</g>
<!-- rbo3.EntityEquipItemDrop&#45;&gt;rbo3.MoveEntity -->
<g id="edge14" class="edge">
<title>rbo3.EntityEquipItemDrop&#45;&gt;rbo3.MoveEntity</title>
<path fill="none" stroke="black" d="M1757.52,-184.82C1951.4,-159.16 2413.38,-96.89 2799.69,-36 2807.31,-34.8 2815.25,-33.5 2823.17,-32.17"/>
<polygon fill="black" stroke="black" points="2823.89,-35.6 2833.16,-30.48 2822.72,-28.7 2823.89,-35.6"/>
<text text-anchor="middle" x="2828.16" y="-34.28" font-family="Times,serif" font-size="14.00">1</text>
</g>
<!-- rbo3.SetStep -->
<g id="node16" class="node">
<title>rbo3.SetStep</title>
<g id="a_node16"><a xlink:href="rbo3.SetStep.svg" xlink:title="rbo3.SetStep">
<ellipse fill="red" stroke="black" cx="3076.69" cy="-18" rx="72.29" ry="18"/>
<text text-anchor="middle" x="3076.69" y="-14.3" font-family="Times,serif" font-size="14.00">rbo3.SetStep</text>
</a>
</g>
</g>
<!-- rbo3.EntityEquipItemDrop&#45;&gt;rbo3.SetStep -->
<g id="edge15" class="edge">
<title>rbo3.EntityEquipItemDrop&#45;&gt;rbo3.SetStep</title>
<path fill="none" stroke="black" d="M1772.97,-187.11C2000.35,-165.63 2543.85,-110.6 2995.69,-36 3001.92,-34.97 3008.41,-33.79 3014.87,-32.55"/>
<polygon fill="black" stroke="black" points="3015.83,-35.93 3024.96,-30.55 3014.47,-29.06 3015.83,-35.93"/>
<text text-anchor="middle" x="3019.96" y="-34.35" font-family="Times,serif" font-size="14.00">1</text>
</g>
<!-- rbo3.func_8018CB34 -->
<g id="node17" class="node">
<title>rbo3.func_8018CB34</title>
<g id="a_node17"><a xlink:href="rbo3.func_8018CB34.svg" xlink:title="rbo3.func_8018CB34">
<ellipse fill="red" stroke="black" cx="3275.69" cy="-18" rx="108.58" ry="18"/>
<text text-anchor="middle" x="3275.69" y="-14.3" font-family="Times,serif" font-size="14.00">rbo3.func_8018CB34</text>
</a>
</g>
</g>
<!-- rbo3.EntityEquipItemDrop&#45;&gt;rbo3.func_8018CB34 -->
<g id="edge16" class="edge">
<title>rbo3.EntityEquipItemDrop&#45;&gt;rbo3.func_8018CB34</title>
<path fill="none" stroke="black" d="M1771.66,-186.79C2017,-163.07 2639.07,-101.3 3157.69,-36 3167.47,-34.77 3177.7,-33.41 3187.86,-32.01"/>
<polygon fill="black" stroke="black" points="3188.57,-35.44 3197.99,-30.6 3187.6,-28.51 3188.57,-35.44"/>
<text text-anchor="middle" x="3192.99" y="-34.4" font-family="Times,serif" font-size="14.00">2</text>
</g>
</g>
</svg>
