<?xml version="1.0" encoding="UTF-8" standalone="no"?>
<!DOCTYPE svg PUBLIC "-//W3C//DTD SVG 1.1//EN"
 "http://www.w3.org/Graphics/SVG/1.1/DTD/svg11.dtd">
<!-- Generated by graphviz version 2.43.0 (0)
 -->
<!-- Title: rbo3.CollectHeart Pages: 1 -->
<svg width="356pt" height="404pt"
 viewBox="0.00 0.00 356.09 404.00" xmlns="http://www.w3.org/2000/svg" xmlns:xlink="http://www.w3.org/1999/xlink">
<g id="graph0" class="graph" transform="scale(1 1) rotate(0) translate(4 400)">
<title>rbo3.CollectHeart</title>
<polygon fill="white" stroke="transparent" points="-4,4 -4,-400 352.09,-400 352.09,4 -4,4"/>
<!-- rbo3.CollectHeart -->
<g id="node1" class="node">
<title>rbo3.CollectHeart</title>
<ellipse fill="red" stroke="black" cx="155.34" cy="-198" rx="94.48" ry="18"/>
<text text-anchor="middle" x="155.34" y="-194.3" font-family="Times,serif" font-size="14.00">rbo3.CollectHeart</text>
</g>
<!-- dra.PlaySfx -->
<g id="node2" class="node">
<title>dra.PlaySfx</title>
<g id="a_node2"><a xlink:href="dra.PlaySfx.svg" xlink:title="dra.PlaySfx">
<ellipse fill="green" stroke="black" cx="64.34" cy="-18" rx="64.19" ry="18"/>
<text text-anchor="middle" x="64.34" y="-14.3" font-family="Times,serif" font-size="14.00">dra.PlaySfx</text>
</a>
</g>
</g>
<!-- rbo3.CollectHeart&#45;&gt;dra.PlaySfx -->
<g id="edge1" class="edge">
<title>rbo3.CollectHeart&#45;&gt;dra.PlaySfx</title>
<path fill="none" stroke="black" d="M146.62,-179.93C130.65,-148.7 96.64,-82.17 77.73,-45.18"/>
<polygon fill="black" stroke="black" points="80.71,-43.33 73.04,-36.02 74.48,-46.51 80.71,-43.33"/>
<text text-anchor="middle" x="68.04" y="-39.82" font-family="Times,serif" font-size="14.00">1</text>
</g>
<!-- rbo3.DestroyEntity -->
<g id="node3" class="node">
<title>rbo3.DestroyEntity</title>
<g id="a_node3"><a xlink:href="rbo3.DestroyEntity.svg" xlink:title="rbo3.DestroyEntity">
<ellipse fill="red" stroke="black" cx="247.34" cy="-18" rx="100.98" ry="18"/>
<text text-anchor="middle" x="247.34" y="-14.3" font-family="Times,serif" font-size="14.00">rbo3.DestroyEntity</text>
</a>
</g>
</g>
<!-- rbo3.CollectHeart&#45;&gt;rbo3.DestroyEntity -->
<g id="edge2" class="edge">
<title>rbo3.CollectHeart&#45;&gt;rbo3.DestroyEntity</title>
<path fill="none" stroke="black" d="M164.17,-179.93C180.31,-148.7 214.7,-82.17 233.81,-45.18"/>
<polygon fill="black" stroke="black" points="237.07,-46.51 238.55,-36.02 230.85,-43.29 237.07,-46.51"/>
<text text-anchor="middle" x="233.55" y="-39.82" font-family="Times,serif" font-size="14.00">1</text>
</g>
<!-- rbo3.EntityPrizeDrop -->
<g id="node4" class="node">
<title>rbo3.EntityPrizeDrop</title>
<g id="a_node4"><a xlink:href="rbo3.EntityPrizeDrop.svg" xlink:title="rbo3.EntityPrizeDrop">
<ellipse fill="red" stroke="black" cx="155.34" cy="-378" rx="110.48" ry="18"/>
<text text-anchor="middle" x="155.34" y="-374.3" font-family="Times,serif" font-size="14.00">rbo3.EntityPrizeDrop</text>
</a>
</g>
</g>
<!-- rbo3.EntityPrizeDrop&#45;&gt;rbo3.CollectHeart -->
<g id="edge3" class="edge">
<title>rbo3.EntityPrizeDrop&#45;&gt;rbo3.CollectHeart</title>
<path fill="none" stroke="black" d="M155.34,-359.93C155.34,-328.97 155.34,-263.3 155.34,-226.13"/>
<polygon fill="black" stroke="black" points="158.84,-226.02 155.34,-216.02 151.84,-226.02 158.84,-226.02"/>
<text text-anchor="middle" x="150.34" y="-348.73" font-family="Times,serif" font-size="14.00">1</text>
</g>
</g>
</svg>
