<?xml version="1.0" encoding="UTF-8" standalone="no"?>
<!DOCTYPE svg PUBLIC "-//W3C//DTD SVG 1.1//EN"
 "http://www.w3.org/Graphics/SVG/1.1/DTD/svg11.dtd">
<!-- Generated by graphviz version 2.43.0 (0)
 -->
<!-- Title: rbo3.DestroyEntity Pages: 1 -->
<svg width="10574pt" height="404pt"
 viewBox="0.00 0.00 10573.98 404.00" xmlns="http://www.w3.org/2000/svg" xmlns:xlink="http://www.w3.org/1999/xlink">
<g id="graph0" class="graph" transform="scale(1 1) rotate(0) translate(4 400)">
<title>rbo3.DestroyEntity</title>
<polygon fill="white" stroke="transparent" points="-4,4 -4,-400 10569.98,-400 10569.98,4 -4,4"/>
<!-- rbo3.DestroyEntity -->
<g id="node1" class="node">
<title>rbo3.DestroyEntity</title>
<ellipse fill="green" stroke="black" cx="5359.44" cy="-198" rx="100.98" ry="18"/>
<text text-anchor="middle" x="5359.44" y="-194.3" font-family="Times,serif" font-size="14.00">rbo3.DestroyEntity</text>
</g>
<!-- dra.FreePrimitives -->
<g id="node2" class="node">
<title>dra.FreePrimitives</title>
<g id="a_node2"><a xlink:href="dra.FreePrimitives.svg" xlink:title="dra.FreePrimitives">
<ellipse fill="green" stroke="black" cx="5359.44" cy="-18" rx="98.58" ry="18"/>
<text text-anchor="middle" x="5359.44" y="-14.3" font-family="Times,serif" font-size="14.00">dra.FreePrimitives</text>
</a>
</g>
</g>
<!-- rbo3.DestroyEntity&#45;&gt;dra.FreePrimitives -->
<g id="edge1" class="edge">
<title>rbo3.DestroyEntity&#45;&gt;dra.FreePrimitives</title>
<path fill="none" stroke="black" d="M5359.44,-179.93C5359.44,-148.97 5359.44,-83.3 5359.44,-46.13"/>
<polygon fill="black" stroke="black" points="5362.94,-46.02 5359.44,-36.02 5355.94,-46.02 5362.94,-46.02"/>
<text text-anchor="middle" x="5354.44" y="-39.82" font-family="Times,serif" font-size="14.00">1</text>
</g>
<!-- rbo3.AllocEntity -->
<g id="node3" class="node">
<title>rbo3.AllocEntity</title>
<g id="a_node3"><a xlink:href="rbo3.AllocEntity.svg" xlink:title="rbo3.AllocEntity">
<ellipse fill="green" stroke="black" cx="86.44" cy="-378" rx="86.38" ry="18"/>
<text text-anchor="middle" x="86.44" y="-374.3" font-family="Times,serif" font-size="14.00">rbo3.AllocEntity</text>
</a>
</g>
</g>
<!-- rbo3.AllocEntity&#45;&gt;rbo3.DestroyEntity -->
<g id="edge2" class="edge">
<title>rbo3.AllocEntity&#45;&gt;rbo3.DestroyEntity</title>
<path fill="none" stroke="black" d="M146.43,-365.01C158.32,-363.02 170.74,-361.21 182.44,-360 1214.69,-253.12 4594.07,-208.09 5248.97,-200.26"/>
<polygon fill="black" stroke="black" points="5249.38,-203.76 5259.34,-200.14 5249.3,-196.76 5249.38,-203.76"/>
<text text-anchor="middle" x="141.43" y="-353.81" font-family="Times,serif" font-size="14.00">1</text>
</g>
<!-- rbo3.CollectDummy -->
<g id="node4" class="node">
<title>rbo3.CollectDummy</title>
<g id="a_node4"><a xlink:href="rbo3.CollectDummy.svg" xlink:title="rbo3.CollectDummy">
<ellipse fill="green" stroke="black" cx="294.44" cy="-378" rx="103.18" ry="18"/>
<text text-anchor="middle" x="294.44" y="-374.3" font-family="Times,serif" font-size="14.00">rbo3.CollectDummy</text>
</a>
</g>
</g>
<!-- rbo3.CollectDummy&#45;&gt;rbo3.DestroyEntity -->
<g id="edge3" class="edge">
<title>rbo3.CollectDummy&#45;&gt;rbo3.DestroyEntity</title>
<path fill="none" stroke="black" d="M365.69,-364.9C379.19,-362.97 393.22,-361.21 406.44,-360 1393.07,-269.41 4613.49,-211.51 5249.7,-200.8"/>
<polygon fill="black" stroke="black" points="5249.84,-204.3 5259.77,-200.63 5249.72,-197.3 5249.84,-204.3"/>
<text text-anchor="middle" x="360.69" y="-353.7" font-family="Times,serif" font-size="14.00">1</text>
</g>
<!-- rbo3.CollectGold -->
<g id="node5" class="node">
<title>rbo3.CollectGold</title>
<g id="a_node5"><a xlink:href="rbo3.CollectGold.svg" xlink:title="rbo3.CollectGold">
<ellipse fill="green" stroke="black" cx="504.44" cy="-378" rx="89.08" ry="18"/>
<text text-anchor="middle" x="504.44" y="-374.3" font-family="Times,serif" font-size="14.00">rbo3.CollectGold</text>
</a>
</g>
</g>
<!-- rbo3.CollectGold&#45;&gt;rbo3.DestroyEntity -->
<g id="edge4" class="edge">
<title>rbo3.CollectGold&#45;&gt;rbo3.DestroyEntity</title>
<path fill="none" stroke="black" d="M566.21,-364.95C578.19,-363 590.68,-361.21 602.44,-360 1546.5,-262.61 4626.28,-210.37 5249.05,-200.66"/>
<polygon fill="black" stroke="black" points="5249.42,-204.16 5259.37,-200.5 5249.31,-197.16 5249.42,-204.16"/>
<text text-anchor="middle" x="561.21" y="-353.75" font-family="Times,serif" font-size="14.00">1</text>
</g>
<!-- rbo3.CollectHeart -->
<g id="node6" class="node">
<title>rbo3.CollectHeart</title>
<g id="a_node6"><a xlink:href="rbo3.CollectHeart.svg" xlink:title="rbo3.CollectHeart">
<ellipse fill="green" stroke="black" cx="705.44" cy="-378" rx="94.48" ry="18"/>
<text text-anchor="middle" x="705.44" y="-374.3" font-family="Times,serif" font-size="14.00">rbo3.CollectHeart</text>
</a>
</g>
</g>
<!-- rbo3.CollectHeart&#45;&gt;rbo3.DestroyEntity -->
<g id="edge5" class="edge">
<title>rbo3.CollectHeart&#45;&gt;rbo3.DestroyEntity</title>
<path fill="none" stroke="black" d="M771.02,-364.99C783.73,-363.03 796.97,-361.23 809.44,-360 1710.64,-270.76 4643.94,-212.29 5249.48,-201"/>
<polygon fill="black" stroke="black" points="5249.58,-204.5 5259.51,-200.81 5249.45,-197.5 5249.58,-204.5"/>
<text text-anchor="middle" x="766.02" y="-353.79" font-family="Times,serif" font-size="14.00">1</text>
</g>
<!-- rbo3.CollectHeartVessel -->
<g id="node7" class="node">
<title>rbo3.CollectHeartVessel</title>
<g id="a_node7"><a xlink:href="rbo3.CollectHeartVessel.svg" xlink:title="rbo3.CollectHeartVessel">
<ellipse fill="green" stroke="black" cx="941.44" cy="-378" rx="123.48" ry="18"/>
<text text-anchor="middle" x="941.44" y="-374.3" font-family="Times,serif" font-size="14.00">rbo3.CollectHeartVessel</text>
</a>
</g>
</g>
<!-- rbo3.CollectHeartVessel&#45;&gt;rbo3.DestroyEntity -->
<g id="edge6" class="edge">
<title>rbo3.CollectHeartVessel&#45;&gt;rbo3.DestroyEntity</title>
<path fill="none" stroke="black" d="M1026.82,-364.94C1042.63,-363.03 1059.01,-361.27 1074.44,-360 2731.04,-223.28 4757.6,-202.58 5248.54,-199.52"/>
<polygon fill="black" stroke="black" points="5248.83,-203.02 5258.81,-199.45 5248.79,-196.02 5248.83,-203.02"/>
<text text-anchor="middle" x="1021.82" y="-353.74" font-family="Times,serif" font-size="14.00">1</text>
</g>
<!-- rbo3.CollectLifeVessel -->
<g id="node8" class="node">
<title>rbo3.CollectLifeVessel</title>
<g id="a_node8"><a xlink:href="rbo3.CollectLifeVessel.svg" xlink:title="rbo3.CollectLifeVessel">
<ellipse fill="green" stroke="black" cx="1197.44" cy="-378" rx="114.28" ry="18"/>
<text text-anchor="middle" x="1197.44" y="-374.3" font-family="Times,serif" font-size="14.00">rbo3.CollectLifeVessel</text>
</a>
</g>
</g>
<!-- rbo3.CollectLifeVessel&#45;&gt;rbo3.DestroyEntity -->
<g id="edge7" class="edge">
<title>rbo3.CollectLifeVessel&#45;&gt;rbo3.DestroyEntity</title>
<path fill="none" stroke="black" d="M1276.38,-364.93C1291,-363.02 1306.16,-361.27 1320.44,-360 2874.35,-221.98 4775.12,-202.26 5248.66,-199.46"/>
<polygon fill="black" stroke="black" points="5248.93,-202.96 5258.91,-199.4 5248.89,-195.96 5248.93,-202.96"/>
<text text-anchor="middle" x="1271.38" y="-353.73" font-family="Times,serif" font-size="14.00">1</text>
</g>
<!-- rbo3.CollectSubweapon -->
<g id="node9" class="node">
<title>rbo3.CollectSubweapon</title>
<g id="a_node9"><a xlink:href="rbo3.CollectSubweapon.svg" xlink:title="rbo3.CollectSubweapon">
<ellipse fill="green" stroke="black" cx="1450.44" cy="-378" rx="120.78" ry="18"/>
<text text-anchor="middle" x="1450.44" y="-374.3" font-family="Times,serif" font-size="14.00">rbo3.CollectSubweapon</text>
</a>
</g>
</g>
<!-- rbo3.CollectSubweapon&#45;&gt;rbo3.DestroyEntity -->
<g id="edge8" class="edge">
<title>rbo3.CollectSubweapon&#45;&gt;rbo3.DestroyEntity</title>
<path fill="none" stroke="black" d="M1534.24,-364.95C1549.59,-363.05 1565.48,-361.29 1580.44,-360 3027.52,-234.8 4795.11,-205.76 5249.08,-200.18"/>
<polygon fill="black" stroke="black" points="5249.28,-203.67 5259.24,-200.05 5249.2,-196.67 5249.28,-203.67"/>
<text text-anchor="middle" x="1529.24" y="-353.75" font-family="Times,serif" font-size="14.00">1</text>
</g>
<!-- rbo3.CreateEntityFromCurrentEntity -->
<g id="node10" class="node">
<title>rbo3.CreateEntityFromCurrentEntity</title>
<g id="a_node10"><a xlink:href="rbo3.CreateEntityFromCurrentEntity.svg" xlink:title="rbo3.CreateEntityFromCurrentEntity">
<ellipse fill="green" stroke="black" cx="1774.44" cy="-378" rx="185.47" ry="18"/>
<text text-anchor="middle" x="1774.44" y="-374.3" font-family="Times,serif" font-size="14.00">rbo3.CreateEntityFromCurrentEntity</text>
</a>
</g>
</g>
<!-- rbo3.CreateEntityFromCurrentEntity&#45;&gt;rbo3.DestroyEntity -->
<g id="edge9" class="edge">
<title>rbo3.CreateEntityFromCurrentEntity&#45;&gt;rbo3.DestroyEntity</title>
<path fill="none" stroke="black" d="M1903,-365.01C1924.83,-363.18 1947.27,-361.43 1968.44,-360 3259.36,-272.83 4829.9,-216.77 5251.18,-202.56"/>
<polygon fill="black" stroke="black" points="5251.34,-206.06 5261.22,-202.23 5251.11,-199.06 5251.34,-206.06"/>
<text text-anchor="middle" x="1898" y="-353.81" font-family="Times,serif" font-size="14.00">1</text>
</g>
<!-- rbo3.CreateEntityFromEntity -->
<g id="node11" class="node">
<title>rbo3.CreateEntityFromEntity</title>
<g id="a_node11"><a xlink:href="rbo3.CreateEntityFromEntity.svg" xlink:title="rbo3.CreateEntityFromEntity">
<ellipse fill="green" stroke="black" cx="2126.44" cy="-378" rx="148.67" ry="18"/>
<text text-anchor="middle" x="2126.44" y="-374.3" font-family="Times,serif" font-size="14.00">rbo3.CreateEntityFromEntity</text>
</a>
</g>
</g>
<!-- rbo3.CreateEntityFromEntity&#45;&gt;rbo3.DestroyEntity -->
<g id="edge10" class="edge">
<title>rbo3.CreateEntityFromEntity&#45;&gt;rbo3.DestroyEntity</title>
<path fill="none" stroke="black" d="M2230.05,-365.03C2248.17,-363.17 2266.84,-361.41 2284.44,-360 3444.46,-267.3 4855.12,-215.84 5251.38,-202.51"/>
<polygon fill="black" stroke="black" points="5251.52,-206.01 5261.4,-202.17 5251.29,-199.01 5251.52,-206.01"/>
<text text-anchor="middle" x="2225.05" y="-353.83" font-family="Times,serif" font-size="14.00">1</text>
</g>
<!-- rbo3.CreateEntityFromLayout -->
<g id="node12" class="node">
<title>rbo3.CreateEntityFromLayout</title>
<g id="a_node12"><a xlink:href="rbo3.CreateEntityFromLayout.svg" xlink:title="rbo3.CreateEntityFromLayout">
<ellipse fill="green" stroke="black" cx="2444.44" cy="-378" rx="151.37" ry="18"/>
<text text-anchor="middle" x="2444.44" y="-374.3" font-family="Times,serif" font-size="14.00">rbo3.CreateEntityFromLayout</text>
</a>
</g>
</g>
<!-- rbo3.CreateEntityFromLayout&#45;&gt;rbo3.DestroyEntity -->
<g id="edge11" class="edge">
<title>rbo3.CreateEntityFromLayout&#45;&gt;rbo3.DestroyEntity</title>
<path fill="none" stroke="black" d="M2550.46,-365.09C2568.78,-363.24 2587.65,-361.46 2605.44,-360 3634.91,-275.6 4884.41,-219.14 5252.57,-203.45"/>
<polygon fill="black" stroke="black" points="5252.83,-206.94 5262.68,-203.01 5252.54,-199.94 5252.83,-206.94"/>
<text text-anchor="middle" x="2545.46" y="-353.89" font-family="Times,serif" font-size="14.00">1</text>
</g>
<!-- rbo3.DestroyEntitiesFromIndex -->
<g id="node13" class="node">
<title>rbo3.DestroyEntitiesFromIndex</title>
<g id="a_node13"><a xlink:href="rbo3.DestroyEntitiesFromIndex.svg" xlink:title="rbo3.DestroyEntitiesFromIndex">
<ellipse fill="green" stroke="black" cx="2773.44" cy="-378" rx="159.47" ry="18"/>
<text text-anchor="middle" x="2773.44" y="-374.3" font-family="Times,serif" font-size="14.00">rbo3.DestroyEntitiesFromIndex</text>
</a>
</g>
</g>
<!-- rbo3.DestroyEntitiesFromIndex&#45;&gt;rbo3.DestroyEntity -->
<g id="edge12" class="edge">
<title>rbo3.DestroyEntitiesFromIndex&#45;&gt;rbo3.DestroyEntity</title>
<path fill="none" stroke="black" d="M2885.45,-365.13C2904.14,-363.3 2923.33,-361.52 2941.44,-360 3835.4,-285.03 4917.68,-223.25 5254.37,-204.7"/>
<polygon fill="black" stroke="black" points="5254.8,-208.18 5264.59,-204.14 5254.41,-201.2 5254.8,-208.18"/>
<text text-anchor="middle" x="2880.45" y="-353.93" font-family="Times,serif" font-size="14.00">1</text>
</g>
<!-- rbo3.EntityBigRedFireball -->
<g id="node14" class="node">
<title>rbo3.EntityBigRedFireball</title>
<g id="a_node14"><a xlink:href="rbo3.EntityBigRedFireball.svg" xlink:title="rbo3.EntityBigRedFireball">
<ellipse fill="green" stroke="black" cx="3084.44" cy="-378" rx="133.78" ry="18"/>
<text text-anchor="middle" x="3084.44" y="-374.3" font-family="Times,serif" font-size="14.00">rbo3.EntityBigRedFireball</text>
</a>
</g>
</g>
<!-- rbo3.EntityBigRedFireball&#45;&gt;rbo3.DestroyEntity -->
<g id="edge13" class="edge">
<title>rbo3.EntityBigRedFireball&#45;&gt;rbo3.DestroyEntity</title>
<path fill="none" stroke="black" d="M3178.71,-365.13C3194.63,-363.29 3211,-361.51 3226.44,-360 4004.64,-284.08 4945.59,-224.14 5255.19,-205.24"/>
<polygon fill="black" stroke="black" points="5255.72,-208.72 5265.49,-204.62 5255.3,-201.73 5255.72,-208.72"/>
<text text-anchor="middle" x="3173.71" y="-353.93" font-family="Times,serif" font-size="14.00">1</text>
</g>
<!-- rbo3.EntityClouds -->
<g id="node15" class="node">
<title>rbo3.EntityClouds</title>
<g id="a_node15"><a xlink:href="rbo3.EntityClouds.svg" xlink:title="rbo3.EntityClouds">
<ellipse fill="green" stroke="black" cx="3331.44" cy="-378" rx="95.58" ry="18"/>
<text text-anchor="middle" x="3331.44" y="-374.3" font-family="Times,serif" font-size="14.00">rbo3.EntityClouds</text>
</a>
</g>
</g>
<!-- rbo3.EntityClouds&#45;&gt;rbo3.DestroyEntity -->
<g id="edge14" class="edge">
<title>rbo3.EntityClouds&#45;&gt;rbo3.DestroyEntity</title>
<path fill="none" stroke="black" d="M3399.11,-365.26C3411.51,-363.33 3424.35,-361.48 3436.44,-360 4128.01,-275.19 4965.07,-221.92 5254.81,-204.92"/>
<polygon fill="black" stroke="black" points="5255.1,-208.41 5264.88,-204.33 5254.7,-201.42 5255.1,-208.41"/>
<text text-anchor="middle" x="3394.11" y="-354.06" font-family="Times,serif" font-size="14.00">1</text>
</g>
<!-- rbo3.EntityDamageDisplay -->
<g id="node16" class="node">
<title>rbo3.EntityDamageDisplay</title>
<g id="a_node16"><a xlink:href="rbo3.EntityDamageDisplay.svg" xlink:title="rbo3.EntityDamageDisplay">
<ellipse fill="green" stroke="black" cx="3581.44" cy="-378" rx="136.48" ry="18"/>
<text text-anchor="middle" x="3581.44" y="-374.3" font-family="Times,serif" font-size="14.00">rbo3.EntityDamageDisplay</text>
</a>
</g>
</g>
<!-- rbo3.EntityDamageDisplay&#45;&gt;rbo3.DestroyEntity -->
<g id="edge15" class="edge">
<title>rbo3.EntityDamageDisplay&#45;&gt;rbo3.DestroyEntity</title>
<path fill="none" stroke="black" d="M3679.19,-365.38C3695.31,-363.53 3711.84,-361.68 3727.44,-360 4309.24,-297.44 5008.76,-231.56 5261.98,-208.01"/>
<polygon fill="black" stroke="black" points="5262.62,-211.47 5272.26,-207.06 5261.97,-204.5 5262.62,-211.47"/>
<text text-anchor="middle" x="3674.19" y="-354.18" font-family="Times,serif" font-size="14.00">1</text>
</g>
<!-- rbo3.EntityEnemyBlood -->
<g id="node17" class="node">
<title>rbo3.EntityEnemyBlood</title>
<g id="a_node17"><a xlink:href="rbo3.EntityEnemyBlood.svg" xlink:title="rbo3.EntityEnemyBlood">
<ellipse fill="green" stroke="black" cx="3858.44" cy="-378" rx="122.38" ry="18"/>
<text text-anchor="middle" x="3858.44" y="-374.3" font-family="Times,serif" font-size="14.00">rbo3.EntityEnemyBlood</text>
</a>
</g>
</g>
<!-- rbo3.EntityEnemyBlood&#45;&gt;rbo3.DestroyEntity -->
<g id="edge16" class="edge">
<title>rbo3.EntityEnemyBlood&#45;&gt;rbo3.DestroyEntity</title>
<path fill="none" stroke="black" d="M3946.51,-365.42C3960.85,-363.58 3975.56,-361.72 3989.44,-360 4469.88,-300.6 5045.79,-234.62 5266.84,-209.49"/>
<polygon fill="black" stroke="black" points="5267.24,-212.97 5276.78,-208.36 5266.45,-206.01 5267.24,-212.97"/>
<text text-anchor="middle" x="3941.51" y="-354.22" font-family="Times,serif" font-size="14.00">1</text>
</g>
<!-- rbo3.EntityEquipItemDrop -->
<g id="node18" class="node">
<title>rbo3.EntityEquipItemDrop</title>
<g id="a_node18"><a xlink:href="rbo3.EntityEquipItemDrop.svg" xlink:title="rbo3.EntityEquipItemDrop">
<ellipse fill="green" stroke="black" cx="4134.44" cy="-378" rx="135.68" ry="18"/>
<text text-anchor="middle" x="4134.44" y="-374.3" font-family="Times,serif" font-size="14.00">rbo3.EntityEquipItemDrop</text>
</a>
</g>
</g>
<!-- rbo3.EntityEquipItemDrop&#45;&gt;rbo3.DestroyEntity -->
<g id="edge17" class="edge">
<title>rbo3.EntityEquipItemDrop&#45;&gt;rbo3.DestroyEntity</title>
<path fill="none" stroke="black" d="M4222.54,-364.2C4449.19,-331.26 5050.34,-243.91 5274.02,-211.41"/>
<polygon fill="black" stroke="black" points="5274.67,-214.85 5284.06,-209.95 5273.66,-207.93 5274.67,-214.85"/>
<text text-anchor="middle" x="4217.54" y="-353" font-family="Times,serif" font-size="14.00">2</text>
</g>
<!-- rbo3.EntityExplosion -->
<g id="node19" class="node">
<title>rbo3.EntityExplosion</title>
<g id="a_node19"><a xlink:href="rbo3.EntityExplosion.svg" xlink:title="rbo3.EntityExplosion">
<ellipse fill="green" stroke="black" cx="4397.44" cy="-378" rx="109.38" ry="18"/>
<text text-anchor="middle" x="4397.44" y="-374.3" font-family="Times,serif" font-size="14.00">rbo3.EntityExplosion</text>
</a>
</g>
</g>
<!-- rbo3.EntityExplosion&#45;&gt;rbo3.DestroyEntity -->
<g id="edge18" class="edge">
<title>rbo3.EntityExplosion&#45;&gt;rbo3.DestroyEntity</title>
<path fill="none" stroke="black" d="M4467.4,-364.06C4642.55,-331.65 5098.95,-247.2 5281.92,-213.34"/>
<polygon fill="black" stroke="black" points="5282.8,-216.74 5292,-211.48 5281.53,-209.86 5282.8,-216.74"/>
<text text-anchor="middle" x="4462.4" y="-352.86" font-family="Times,serif" font-size="14.00">1</text>
</g>
<!-- rbo3.EntityExplosionSpawn -->
<g id="node20" class="node">
<title>rbo3.EntityExplosionSpawn</title>
<g id="a_node20"><a xlink:href="rbo3.EntityExplosionSpawn.svg" xlink:title="rbo3.EntityExplosionSpawn">
<ellipse fill="green" stroke="black" cx="4665.44" cy="-378" rx="140.28" ry="18"/>
<text text-anchor="middle" x="4665.44" y="-374.3" font-family="Times,serif" font-size="14.00">rbo3.EntityExplosionSpawn</text>
</a>
</g>
</g>
<!-- rbo3.EntityExplosionSpawn&#45;&gt;rbo3.DestroyEntity -->
<g id="edge19" class="edge">
<title>rbo3.EntityExplosionSpawn&#45;&gt;rbo3.DestroyEntity</title>
<path fill="none" stroke="black" d="M4725.21,-361.67C4854.8,-328.43 5160.71,-249.97 5294.69,-215.61"/>
<polygon fill="black" stroke="black" points="5295.6,-218.99 5304.42,-213.11 5293.86,-212.21 5295.6,-218.99"/>
<text text-anchor="middle" x="4720.21" y="-350.47" font-family="Times,serif" font-size="14.00">1</text>
</g>
<!-- rbo3.EntityExplosionVariants -->
<g id="node21" class="node">
<title>rbo3.EntityExplosionVariants</title>
<g id="a_node21"><a xlink:href="rbo3.EntityExplosionVariants.svg" xlink:title="rbo3.EntityExplosionVariants">
<ellipse fill="green" stroke="black" cx="4971.44" cy="-378" rx="147.57" ry="18"/>
<text text-anchor="middle" x="4971.44" y="-374.3" font-family="Times,serif" font-size="14.00">rbo3.EntityExplosionVariants</text>
</a>
</g>
</g>
<!-- rbo3.EntityExplosionVariants&#45;&gt;rbo3.DestroyEntity -->
<g id="edge20" class="edge">
<title>rbo3.EntityExplosionVariants&#45;&gt;rbo3.DestroyEntity</title>
<path fill="none" stroke="black" d="M5007.6,-360.41C5078.95,-327.68 5237.66,-254.87 5315.16,-219.32"/>
<polygon fill="black" stroke="black" points="5317.01,-222.32 5324.64,-214.97 5314.09,-215.95 5317.01,-222.32"/>
<text text-anchor="middle" x="5002.6" y="-349.21" font-family="Times,serif" font-size="14.00">1</text>
</g>
<!-- rbo3.EntityGreyPuff -->
<g id="node22" class="node">
<title>rbo3.EntityGreyPuff</title>
<g id="a_node22"><a xlink:href="rbo3.EntityGreyPuff.svg" xlink:title="rbo3.EntityGreyPuff">
<ellipse fill="green" stroke="black" cx="5241.44" cy="-378" rx="104.78" ry="18"/>
<text text-anchor="middle" x="5241.44" y="-374.3" font-family="Times,serif" font-size="14.00">rbo3.EntityGreyPuff</text>
</a>
</g>
</g>
<!-- rbo3.EntityGreyPuff&#45;&gt;rbo3.DestroyEntity -->
<g id="edge21" class="edge">
<title>rbo3.EntityGreyPuff&#45;&gt;rbo3.DestroyEntity</title>
<path fill="none" stroke="black" d="M5252.76,-359.93C5273.55,-328.57 5317.94,-261.6 5342.4,-224.71"/>
<polygon fill="black" stroke="black" points="5345.55,-226.28 5348.16,-216.02 5339.72,-222.42 5345.55,-226.28"/>
<text text-anchor="middle" x="5247.76" y="-348.73" font-family="Times,serif" font-size="14.00">1</text>
</g>
<!-- rbo3.EntityHeartDrop -->
<g id="node23" class="node">
<title>rbo3.EntityHeartDrop</title>
<g id="a_node23"><a xlink:href="rbo3.EntityHeartDrop.svg" xlink:title="rbo3.EntityHeartDrop">
<ellipse fill="green" stroke="black" cx="5477.44" cy="-378" rx="113.98" ry="18"/>
<text text-anchor="middle" x="5477.44" y="-374.3" font-family="Times,serif" font-size="14.00">rbo3.EntityHeartDrop</text>
</a>
</g>
</g>
<!-- rbo3.EntityHeartDrop&#45;&gt;rbo3.DestroyEntity -->
<g id="edge22" class="edge">
<title>rbo3.EntityHeartDrop&#45;&gt;rbo3.DestroyEntity</title>
<path fill="none" stroke="black" d="M5466.13,-359.93C5445.34,-328.57 5400.94,-261.6 5376.48,-224.71"/>
<polygon fill="black" stroke="black" points="5379.17,-222.42 5370.72,-216.02 5373.33,-226.28 5379.17,-222.42"/>
<text text-anchor="middle" x="5461.13" y="-348.73" font-family="Times,serif" font-size="14.00">1</text>
</g>
<!-- rbo3.EntityIntenseExplosion -->
<g id="node24" class="node">
<title>rbo3.EntityIntenseExplosion</title>
<g id="a_node24"><a xlink:href="rbo3.EntityIntenseExplosion.svg" xlink:title="rbo3.EntityIntenseExplosion">
<ellipse fill="green" stroke="black" cx="5752.44" cy="-378" rx="143.77" ry="18"/>
<text text-anchor="middle" x="5752.44" y="-374.3" font-family="Times,serif" font-size="14.00">rbo3.EntityIntenseExplosion</text>
</a>
</g>
</g>
<!-- rbo3.EntityIntenseExplosion&#45;&gt;rbo3.DestroyEntity -->
<g id="edge23" class="edge">
<title>rbo3.EntityIntenseExplosion&#45;&gt;rbo3.DestroyEntity</title>
<path fill="none" stroke="black" d="M5716.17,-360.57C5643.96,-327.86 5482.4,-254.69 5403.92,-219.14"/>
<polygon fill="black" stroke="black" points="5405.33,-215.94 5394.77,-215 5402.44,-222.32 5405.33,-215.94"/>
<text text-anchor="middle" x="5711.17" y="-349.37" font-family="Times,serif" font-size="14.00">1</text>
</g>
<!-- rbo3.EntityMessageBox -->
<g id="node25" class="node">
<title>rbo3.EntityMessageBox</title>
<g id="a_node25"><a xlink:href="rbo3.EntityMessageBox.svg" xlink:title="rbo3.EntityMessageBox">
<ellipse fill="green" stroke="black" cx="6036.44" cy="-378" rx="122.38" ry="18"/>
<text text-anchor="middle" x="6036.44" y="-374.3" font-family="Times,serif" font-size="14.00">rbo3.EntityMessageBox</text>
</a>
</g>
</g>
<!-- rbo3.EntityMessageBox&#45;&gt;rbo3.DestroyEntity -->
<g id="edge24" class="edge">
<title>rbo3.EntityMessageBox&#45;&gt;rbo3.DestroyEntity</title>
<path fill="none" stroke="black" d="M5979.6,-362.05C5854.43,-329.14 5555.68,-250.6 5423.84,-215.93"/>
<polygon fill="black" stroke="black" points="5424.45,-212.47 5413.89,-213.31 5422.67,-219.24 5424.45,-212.47"/>
<text text-anchor="middle" x="5974.6" y="-350.85" font-family="Times,serif" font-size="14.00">1</text>
</g>
<!-- rbo3.EntityOlroxDrool -->
<g id="node26" class="node">
<title>rbo3.EntityOlroxDrool</title>
<g id="a_node26"><a xlink:href="rbo3.EntityOlroxDrool.svg" xlink:title="rbo3.EntityOlroxDrool">
<ellipse fill="green" stroke="black" cx="6291.44" cy="-378" rx="114.28" ry="18"/>
<text text-anchor="middle" x="6291.44" y="-374.3" font-family="Times,serif" font-size="14.00">rbo3.EntityOlroxDrool</text>
</a>
</g>
</g>
<!-- rbo3.EntityOlroxDrool&#45;&gt;rbo3.DestroyEntity -->
<g id="edge25" class="edge">
<title>rbo3.EntityOlroxDrool&#45;&gt;rbo3.DestroyEntity</title>
<path fill="none" stroke="black" d="M6221.77,-363.69C6051.08,-331.09 5613.04,-247.43 5435.69,-213.56"/>
<polygon fill="black" stroke="black" points="5436.14,-210.09 5425.66,-211.65 5434.83,-216.96 5436.14,-210.09"/>
<text text-anchor="middle" x="6216.77" y="-352.49" font-family="Times,serif" font-size="14.00">1</text>
</g>
<!-- rbo3.EntityPrizeDrop -->
<g id="node27" class="node">
<title>rbo3.EntityPrizeDrop</title>
<g id="a_node27"><a xlink:href="rbo3.EntityPrizeDrop.svg" xlink:title="rbo3.EntityPrizeDrop">
<ellipse fill="green" stroke="black" cx="6534.44" cy="-378" rx="110.48" ry="18"/>
<text text-anchor="middle" x="6534.44" y="-374.3" font-family="Times,serif" font-size="14.00">rbo3.EntityPrizeDrop</text>
</a>
</g>
</g>
<!-- rbo3.EntityPrizeDrop&#45;&gt;rbo3.DestroyEntity -->
<g id="edge26" class="edge">
<title>rbo3.EntityPrizeDrop&#45;&gt;rbo3.DestroyEntity</title>
<path fill="none" stroke="black" d="M6456.44,-365.18C6245.03,-333.16 5662.34,-244.89 5443.75,-211.77"/>
<polygon fill="black" stroke="black" points="5444.03,-208.27 5433.62,-210.24 5442.98,-215.2 5444.03,-208.27"/>
<text text-anchor="middle" x="6451.44" y="-353.98" font-family="Times,serif" font-size="14.00">2</text>
</g>
<!-- rbo3.EntityRelicOrb -->
<g id="node28" class="node">
<title>rbo3.EntityRelicOrb</title>
<g id="a_node28"><a xlink:href="rbo3.EntityRelicOrb.svg" xlink:title="rbo3.EntityRelicOrb">
<ellipse fill="green" stroke="black" cx="6767.44" cy="-378" rx="104.78" ry="18"/>
<text text-anchor="middle" x="6767.44" y="-374.3" font-family="Times,serif" font-size="14.00">rbo3.EntityRelicOrb</text>
</a>
</g>
</g>
<!-- rbo3.EntityRelicOrb&#45;&gt;rbo3.DestroyEntity -->
<g id="edge27" class="edge">
<title>rbo3.EntityRelicOrb&#45;&gt;rbo3.DestroyEntity</title>
<path fill="none" stroke="black" d="M6692.05,-365.49C6679.18,-363.61 6665.93,-361.71 6653.44,-360 6203.52,-298.47 5664.22,-234.52 5451.83,-209.72"/>
<polygon fill="black" stroke="black" points="5452,-206.21 5441.66,-208.53 5451.19,-213.16 5452,-206.21"/>
<text text-anchor="middle" x="6687.05" y="-354.29" font-family="Times,serif" font-size="14.00">1</text>
</g>
<!-- rbo3.EntitySoulStealOrb -->
<g id="node29" class="node">
<title>rbo3.EntitySoulStealOrb</title>
<g id="a_node29"><a xlink:href="rbo3.EntitySoulStealOrb.svg" xlink:title="rbo3.EntitySoulStealOrb">
<ellipse fill="green" stroke="black" cx="7016.44" cy="-378" rx="126.18" ry="18"/>
<text text-anchor="middle" x="7016.44" y="-374.3" font-family="Times,serif" font-size="14.00">rbo3.EntitySoulStealOrb</text>
</a>
</g>
</g>
<!-- rbo3.EntitySoulStealOrb&#45;&gt;rbo3.DestroyEntity -->
<g id="edge28" class="edge">
<title>rbo3.EntitySoulStealOrb&#45;&gt;rbo3.DestroyEntity</title>
<path fill="none" stroke="black" d="M6926.06,-365.37C6911.16,-363.52 6895.87,-361.67 6881.44,-360 6342.81,-297.6 5695.78,-232.38 5455.43,-208.48"/>
<polygon fill="black" stroke="black" points="5455.62,-204.99 5445.33,-207.48 5454.93,-211.95 5455.62,-204.99"/>
<text text-anchor="middle" x="6921.06" y="-354.17" font-family="Times,serif" font-size="14.00">1</text>
</g>
<!-- rbo3.EntityStageNamePopup -->
<g id="node30" class="node">
<title>rbo3.EntityStageNamePopup</title>
<g id="a_node30"><a xlink:href="rbo3.EntityStageNamePopup.svg" xlink:title="rbo3.EntityStageNamePopup">
<ellipse fill="green" stroke="black" cx="7307.44" cy="-378" rx="146.77" ry="18"/>
<text text-anchor="middle" x="7307.44" y="-374.3" font-family="Times,serif" font-size="14.00">rbo3.EntityStageNamePopup</text>
</a>
</g>
</g>
<!-- rbo3.EntityStageNamePopup&#45;&gt;rbo3.DestroyEntity -->
<g id="edge29" class="edge">
<title>rbo3.EntityStageNamePopup&#45;&gt;rbo3.DestroyEntity</title>
<path fill="none" stroke="black" d="M7203,-365.34C7185.78,-363.5 7168.12,-361.66 7151.44,-360 6506.6,-295.9 5730.06,-229.96 5458.75,-207.26"/>
<polygon fill="black" stroke="black" points="5458.79,-203.75 5448.53,-206.4 5458.21,-210.72 5458.79,-203.75"/>
<text text-anchor="middle" x="7198" y="-354.14" font-family="Times,serif" font-size="14.00">1</text>
</g>
<!-- rbo3.EntityUnkId13 -->
<g id="node31" class="node">
<title>rbo3.EntityUnkId13</title>
<g id="a_node31"><a xlink:href="rbo3.EntityUnkId13.svg" xlink:title="rbo3.EntityUnkId13">
<ellipse fill="green" stroke="black" cx="7576.44" cy="-378" rx="103.98" ry="18"/>
<text text-anchor="middle" x="7576.44" y="-374.3" font-family="Times,serif" font-size="14.00">rbo3.EntityUnkId13</text>
</a>
</g>
</g>
<!-- rbo3.EntityUnkId13&#45;&gt;rbo3.DestroyEntity -->
<g id="edge30" class="edge">
<title>rbo3.EntityUnkId13&#45;&gt;rbo3.DestroyEntity</title>
<path fill="none" stroke="black" d="M7503.3,-365.2C7490.06,-363.29 7476.35,-361.46 7463.44,-360 6699.27,-273.4 5773.55,-220.56 5465.1,-204.35"/>
<polygon fill="black" stroke="black" points="5465,-200.84 5454.83,-203.81 5464.63,-207.83 5465,-200.84"/>
<text text-anchor="middle" x="7498.3" y="-354" font-family="Times,serif" font-size="14.00">1</text>
</g>
<!-- rbo3.HitDetection -->
<g id="node32" class="node">
<title>rbo3.HitDetection</title>
<g id="a_node32"><a xlink:href="rbo3.HitDetection.svg" xlink:title="rbo3.HitDetection">
<ellipse fill="green" stroke="black" cx="7793.44" cy="-378" rx="94.78" ry="18"/>
<text text-anchor="middle" x="7793.44" y="-374.3" font-family="Times,serif" font-size="14.00">rbo3.HitDetection</text>
</a>
</g>
</g>
<!-- rbo3.HitDetection&#45;&gt;rbo3.DestroyEntity -->
<g id="edge31" class="edge">
<title>rbo3.HitDetection&#45;&gt;rbo3.DestroyEntity</title>
<path fill="none" stroke="black" d="M7726.72,-365.15C7714.35,-363.22 7701.53,-361.4 7689.44,-360 6836.09,-260.99 5799.32,-215.59 5467.22,-202.88"/>
<polygon fill="black" stroke="black" points="5467.25,-199.38 5457.13,-202.49 5466.99,-206.37 5467.25,-199.38"/>
<text text-anchor="middle" x="7721.72" y="-353.95" font-family="Times,serif" font-size="14.00">1</text>
</g>
<!-- rbo3.InitializeUnkEntity -->
<g id="node33" class="node">
<title>rbo3.InitializeUnkEntity</title>
<g id="a_node33"><a xlink:href="rbo3.InitializeUnkEntity.svg" xlink:title="rbo3.InitializeUnkEntity">
<ellipse fill="green" stroke="black" cx="8029.44" cy="-378" rx="123.48" ry="18"/>
<text text-anchor="middle" x="8029.44" y="-374.3" font-family="Times,serif" font-size="14.00">rbo3.InitializeUnkEntity</text>
</a>
</g>
</g>
<!-- rbo3.InitializeUnkEntity&#45;&gt;rbo3.DestroyEntity -->
<g id="edge32" class="edge">
<title>rbo3.InitializeUnkEntity&#45;&gt;rbo3.DestroyEntity</title>
<path fill="none" stroke="black" d="M7943.26,-365.08C7928.02,-363.21 7912.28,-361.42 7897.44,-360 6957.42,-269.75 5816.47,-217.92 5466.56,-203.31"/>
<polygon fill="black" stroke="black" points="5466.58,-199.81 5456.44,-202.89 5466.28,-206.8 5466.58,-199.81"/>
<text text-anchor="middle" x="7938.26" y="-353.88" font-family="Times,serif" font-size="14.00">1</text>
</g>
<!-- rbo3.MakeEntityFromId -->
<g id="node34" class="node">
<title>rbo3.MakeEntityFromId</title>
<g id="a_node34"><a xlink:href="rbo3.MakeEntityFromId.svg" xlink:title="rbo3.MakeEntityFromId">
<ellipse fill="green" stroke="black" cx="8294.44" cy="-378" rx="123.48" ry="18"/>
<text text-anchor="middle" x="8294.44" y="-374.3" font-family="Times,serif" font-size="14.00">rbo3.MakeEntityFromId</text>
</a>
</g>
</g>
<!-- rbo3.MakeEntityFromId&#45;&gt;rbo3.DestroyEntity -->
<g id="edge33" class="edge">
<title>rbo3.MakeEntityFromId&#45;&gt;rbo3.DestroyEntity</title>
<path fill="none" stroke="black" d="M8207.97,-365.06C8192.5,-363.18 8176.51,-361.39 8161.44,-360 7114.49,-263.13 5841.72,-215.18 5467.66,-202.5"/>
<polygon fill="black" stroke="black" points="5467.76,-199 5457.65,-202.16 5467.53,-206 5467.76,-199"/>
<text text-anchor="middle" x="8202.97" y="-353.86" font-family="Times,serif" font-size="14.00">1</text>
</g>
<!-- rbo3.RBO3_EntityRedDoor -->
<g id="node35" class="node">
<title>rbo3.RBO3_EntityRedDoor</title>
<g id="a_node35"><a xlink:href="rbo3.RBO3_EntityRedDoor.svg" xlink:title="rbo3.RBO3_EntityRedDoor">
<ellipse fill="green" stroke="black" cx="8571.44" cy="-378" rx="135.68" ry="18"/>
<text text-anchor="middle" x="8571.44" y="-374.3" font-family="Times,serif" font-size="14.00">rbo3.RBO3_EntityRedDoor</text>
</a>
</g>
</g>
<!-- rbo3.RBO3_EntityRedDoor&#45;&gt;rbo3.DestroyEntity -->
<g id="edge34" class="edge">
<title>rbo3.RBO3_EntityRedDoor&#45;&gt;rbo3.DestroyEntity</title>
<path fill="none" stroke="black" d="M8476.76,-365.01C8460.02,-363.15 8442.73,-361.38 8426.44,-360 7270.55,-262 5864.19,-214.29 5467.93,-202.17"/>
<polygon fill="black" stroke="black" points="5468.01,-198.67 5457.91,-201.87 5467.8,-205.67 5468.01,-198.67"/>
<text text-anchor="middle" x="8471.76" y="-353.81" font-family="Times,serif" font-size="14.00">1</text>
</g>
<!-- rbo3.ReplaceBreakableWithItemDrop -->
<g id="node36" class="node">
<title>rbo3.ReplaceBreakableWithItemDrop</title>
<g id="a_node36"><a xlink:href="rbo3.ReplaceBreakableWithItemDrop.svg" xlink:title="rbo3.ReplaceBreakableWithItemDrop">
<ellipse fill="green" stroke="black" cx="8909.44" cy="-378" rx="184.67" ry="18"/>
<text text-anchor="middle" x="8909.44" y="-374.3" font-family="Times,serif" font-size="14.00">rbo3.ReplaceBreakableWithItemDrop</text>
</a>
</g>
</g>
<!-- rbo3.ReplaceBreakableWithItemDrop&#45;&gt;rbo3.DestroyEntity -->
<g id="edge35" class="edge">
<title>rbo3.ReplaceBreakableWithItemDrop&#45;&gt;rbo3.DestroyEntity</title>
<path fill="none" stroke="black" d="M8781.55,-365.01C8759.83,-363.18 8737.5,-361.43 8716.44,-360 7439.51,-273.18 5886.2,-216.94 5467.63,-202.62"/>
<polygon fill="black" stroke="black" points="5467.48,-199.11 5457.36,-202.27 5467.24,-206.1 5467.48,-199.11"/>
<text text-anchor="middle" x="8776.55" y="-353.81" font-family="Times,serif" font-size="14.00">1</text>
</g>
<!-- rbo3.Update -->
<g id="node37" class="node">
<title>rbo3.Update</title>
<g id="a_node37"><a xlink:href="rbo3.Update.svg" xlink:title="rbo3.Update">
<ellipse fill="green" stroke="black" cx="9181.44" cy="-378" rx="69.59" ry="18"/>
<text text-anchor="middle" x="9181.44" y="-374.3" font-family="Times,serif" font-size="14.00">rbo3.Update</text>
</a>
</g>
</g>
<!-- rbo3.Update&#45;&gt;rbo3.DestroyEntity -->
<g id="edge36" class="edge">
<title>rbo3.Update&#45;&gt;rbo3.DestroyEntity</title>
<path fill="none" stroke="black" d="M9132.57,-365.01C9122.96,-363.03 9112.93,-361.23 9103.44,-360 8373.17,-265.43 6006.99,-212.22 5468.98,-201.17"/>
<polygon fill="black" stroke="black" points="5468.96,-197.67 5458.89,-200.96 5468.82,-204.67 5468.96,-197.67"/>
<text text-anchor="middle" x="9127.57" y="-353.81" font-family="Times,serif" font-size="14.00">1</text>
</g>
<!-- rbo3.func_us_80192020 -->
<g id="node38" class="node">
<title>rbo3.func_us_80192020</title>
<g id="a_node38"><a xlink:href="rbo3.func_us_80192020.svg" xlink:title="rbo3.func_us_80192020">
<ellipse fill="green" stroke="black" cx="9390.44" cy="-378" rx="121.58" ry="18"/>
<text text-anchor="middle" x="9390.44" y="-374.3" font-family="Times,serif" font-size="14.00">rbo3.func_us_80192020</text>
</a>
</g>
</g>
<!-- rbo3.func_us_80192020&#45;&gt;rbo3.DestroyEntity -->
<g id="edge37" class="edge">
<title>rbo3.func_us_80192020&#45;&gt;rbo3.DestroyEntity</title>
<path fill="none" stroke="black" d="M9306.64,-364.93C9291.3,-363.04 9275.41,-361.28 9260.44,-360 7762.93,-231.44 5932.9,-204.8 5469.89,-199.97"/>
<polygon fill="black" stroke="black" points="5469.9,-196.47 5459.86,-199.87 5469.83,-203.47 5469.9,-196.47"/>
<text text-anchor="middle" x="9301.64" y="-353.73" font-family="Times,serif" font-size="14.00">1</text>
</g>
<!-- rbo3.func_us_801922EC -->
<g id="node39" class="node">
<title>rbo3.func_us_801922EC</title>
<g id="a_node39"><a xlink:href="rbo3.func_us_801922EC.svg" xlink:title="rbo3.func_us_801922EC">
<ellipse fill="green" stroke="black" cx="9653.44" cy="-378" rx="123.48" ry="18"/>
<text text-anchor="middle" x="9653.44" y="-374.3" font-family="Times,serif" font-size="14.00">rbo3.func_us_801922EC</text>
</a>
</g>
</g>
<!-- rbo3.func_us_801922EC&#45;&gt;rbo3.DestroyEntity -->
<g id="edge38" class="edge">
<title>rbo3.func_us_801922EC&#45;&gt;rbo3.DestroyEntity</title>
<path fill="none" stroke="black" d="M9568.35,-364.91C9552.77,-363.02 9536.64,-361.27 9521.44,-360 7915.6,-225.8 5951.68,-203.24 5469.96,-199.65"/>
<polygon fill="black" stroke="black" points="5469.91,-196.15 5459.89,-199.58 5469.86,-203.15 5469.91,-196.15"/>
<text text-anchor="middle" x="9563.35" y="-353.71" font-family="Times,serif" font-size="14.00">1</text>
</g>
<!-- rbo3.func_us_801923DC -->
<g id="node40" class="node">
<title>rbo3.func_us_801923DC</title>
<g id="a_node40"><a xlink:href="rbo3.func_us_801923DC.svg" xlink:title="rbo3.func_us_801923DC">
<ellipse fill="green" stroke="black" cx="9919.44" cy="-378" rx="124.28" ry="18"/>
<text text-anchor="middle" x="9919.44" y="-374.3" font-family="Times,serif" font-size="14.00">rbo3.func_us_801923DC</text>
</a>
</g>
</g>
<!-- rbo3.func_us_801923DC&#45;&gt;rbo3.DestroyEntity -->
<g id="edge39" class="edge">
<title>rbo3.func_us_801923DC&#45;&gt;rbo3.DestroyEntity</title>
<path fill="none" stroke="black" d="M9833.78,-364.97C9817.74,-363.05 9801.1,-361.28 9785.44,-360 8070.04,-220.27 5970.72,-201.8 5470.26,-199.37"/>
<polygon fill="black" stroke="black" points="5470.17,-195.87 5460.16,-199.32 5470.14,-202.87 5470.17,-195.87"/>
<text text-anchor="middle" x="9828.78" y="-353.77" font-family="Times,serif" font-size="14.00">1</text>
</g>
<!-- rbo3.func_us_80192998 -->
<g id="node41" class="node">
<title>rbo3.func_us_80192998</title>
<g id="a_node41"><a xlink:href="rbo3.func_us_80192998.svg" xlink:title="rbo3.func_us_80192998">
<ellipse fill="green" stroke="black" cx="10183.44" cy="-378" rx="121.58" ry="18"/>
<text text-anchor="middle" x="10183.44" y="-374.3" font-family="Times,serif" font-size="14.00">rbo3.func_us_80192998</text>
</a>
</g>
</g>
<!-- rbo3.func_us_80192998&#45;&gt;rbo3.DestroyEntity -->
<g id="edge40" class="edge">
<title>rbo3.func_us_80192998&#45;&gt;rbo3.DestroyEntity</title>
<path fill="none" stroke="black" d="M10099.71,-364.93C10084.03,-363.02 10067.76,-361.25 10052.44,-360 8226.24,-210.52 5989.26,-199.41 5470.47,-198.93"/>
<polygon fill="black" stroke="black" points="5470.37,-195.43 5460.37,-198.92 5470.37,-202.43 5470.37,-195.43"/>
<text text-anchor="middle" x="10094.71" y="-353.73" font-family="Times,serif" font-size="14.00">1</text>
</g>
<!-- rbo3.func_us_80193050 -->
<g id="node42" class="node">
<title>rbo3.func_us_80193050</title>
<g id="a_node42"><a xlink:href="rbo3.func_us_80193050.svg" xlink:title="rbo3.func_us_80193050">
<ellipse fill="green" stroke="black" cx="10444.44" cy="-378" rx="121.58" ry="18"/>
<text text-anchor="middle" x="10444.44" y="-374.3" font-family="Times,serif" font-size="14.00">rbo3.func_us_80193050</text>
</a>
</g>
</g>
<!-- rbo3.func_us_80193050&#45;&gt;rbo3.DestroyEntity -->
<g id="edge41" class="edge">
<title>rbo3.func_us_80193050&#45;&gt;rbo3.DestroyEntity</title>
<path fill="none" stroke="black" d="M10361,-364.87C10345.55,-362.97 10329.53,-361.23 10314.44,-360 8378.93,-202.38 6006.3,-197.54 5470.44,-198.6"/>
<polygon fill="black" stroke="black" points="5470.39,-195.1 5460.4,-198.63 5470.41,-202.1 5470.39,-195.1"/>
<text text-anchor="middle" x="10356" y="-353.67" font-family="Times,serif" font-size="14.00">1</text>
</g>
</g>
</svg>
