<?xml version="1.0" encoding="UTF-8" standalone="no"?>
<!DOCTYPE svg PUBLIC "-//W3C//DTD SVG 1.1//EN"
 "http://www.w3.org/Graphics/SVG/1.1/DTD/svg11.dtd">
<!-- Generated by graphviz version 2.43.0 (0)
 -->
<!-- Title: rbo3.EntityMedusa Pages: 1 -->
<svg width="2378pt" height="224pt"
 viewBox="0.00 0.00 2378.19 224.00" xmlns="http://www.w3.org/2000/svg" xmlns:xlink="http://www.w3.org/1999/xlink">
<g id="graph0" class="graph" transform="scale(1 1) rotate(0) translate(4 220)">
<title>rbo3.EntityMedusa</title>
<polygon fill="white" stroke="transparent" points="-4,4 -4,-220 2374.19,-220 2374.19,4 -4,4"/>
<!-- rbo3.EntityMedusa -->
<g id="node1" class="node">
<title>rbo3.EntityMedusa</title>
<ellipse fill="green" stroke="black" cx="1257.05" cy="-198" rx="100.98" ry="18"/>
<text text-anchor="middle" x="1257.05" y="-194.3" font-family="Times,serif" font-size="14.00">rbo3.EntityMedusa</text>
</g>
<!-- FntPrint -->
<g id="node2" class="node">
<title>FntPrint</title>
<g id="a_node2"><a xlink:href="FntPrint.svg" xlink:title="FntPrint">
<ellipse fill="lightblue" stroke="black" cx="50.05" cy="-18" rx="50.09" ry="18"/>
<text text-anchor="middle" x="50.05" y="-14.3" font-family="Times,serif" font-size="14.00">FntPrint</text>
</a>
</g>
</g>
<!-- rbo3.EntityMedusa&#45;&gt;FntPrint -->
<g id="edge1" class="edge">
<title>rbo3.EntityMedusa&#45;&gt;FntPrint</title>
<path fill="none" stroke="black" d="M1169.54,-188.99C976.57,-170.39 500.51,-119.41 109.05,-36 104.94,-35.13 100.7,-34.12 96.47,-33.04"/>
<polygon fill="black" stroke="black" points="97.23,-29.62 86.67,-30.42 95.42,-36.38 97.23,-29.62"/>
<text text-anchor="middle" x="81.67" y="-34.22" font-family="Times,serif" font-size="14.00">1</text>
</g>
<!-- rbo3.AllocEntity -->
<g id="node3" class="node">
<title>rbo3.AllocEntity</title>
<g id="a_node3"><a xlink:href="rbo3.AllocEntity.svg" xlink:title="rbo3.AllocEntity">
<ellipse fill="green" stroke="black" cx="204.05" cy="-18" rx="86.38" ry="18"/>
<text text-anchor="middle" x="204.05" y="-14.3" font-family="Times,serif" font-size="14.00">rbo3.AllocEntity</text>
</a>
</g>
</g>
<!-- rbo3.EntityMedusa&#45;&gt;rbo3.AllocEntity -->
<g id="edge2" class="edge">
<title>rbo3.EntityMedusa&#45;&gt;rbo3.AllocEntity</title>
<path fill="none" stroke="black" d="M1185.5,-185.24C1026.18,-159 630.14,-93.44 299.05,-36 291.95,-34.77 284.56,-33.47 277.18,-32.17"/>
<polygon fill="black" stroke="black" points="277.6,-28.69 267.14,-30.39 276.37,-35.58 277.6,-28.69"/>
<text text-anchor="middle" x="262.14" y="-34.19" font-family="Times,serif" font-size="14.00">3</text>
</g>
<!-- rbo3.AnimateEntity -->
<g id="node4" class="node">
<title>rbo3.AnimateEntity</title>
<g id="a_node4"><a xlink:href="rbo3.AnimateEntity.svg" xlink:title="rbo3.AnimateEntity">
<ellipse fill="green" stroke="black" cx="411.05" cy="-18" rx="102.88" ry="18"/>
<text text-anchor="middle" x="411.05" y="-14.3" font-family="Times,serif" font-size="14.00">rbo3.AnimateEntity</text>
</a>
</g>
</g>
<!-- rbo3.EntityMedusa&#45;&gt;rbo3.AnimateEntity -->
<g id="edge3" class="edge">
<title>rbo3.EntityMedusa&#45;&gt;rbo3.AnimateEntity</title>
<path fill="none" stroke="black" d="M1194.49,-183.84C1041.26,-151.6 647.74,-68.8 484.11,-34.37"/>
<polygon fill="black" stroke="black" points="484.64,-30.91 474.14,-32.27 483.2,-37.76 484.64,-30.91"/>
<text text-anchor="middle" x="469.14" y="-36.07" font-family="Times,serif" font-size="14.00">7</text>
</g>
<!-- rbo3.CreateEntityFromEntity -->
<g id="node5" class="node">
<title>rbo3.CreateEntityFromEntity</title>
<g id="a_node5"><a xlink:href="rbo3.CreateEntityFromEntity.svg" xlink:title="rbo3.CreateEntityFromEntity">
<ellipse fill="green" stroke="black" cx="681.05" cy="-18" rx="148.67" ry="18"/>
<text text-anchor="middle" x="681.05" y="-14.3" font-family="Times,serif" font-size="14.00">rbo3.CreateEntityFromEntity</text>
</a>
</g>
</g>
<!-- rbo3.EntityMedusa&#45;&gt;rbo3.CreateEntityFromEntity -->
<g id="edge4" class="edge">
<title>rbo3.EntityMedusa&#45;&gt;rbo3.CreateEntityFromEntity</title>
<path fill="none" stroke="black" d="M1208.93,-182.13C1104.63,-149.9 857.84,-73.63 742.48,-37.98"/>
<polygon fill="black" stroke="black" points="743.32,-34.58 732.73,-34.97 741.25,-41.27 743.32,-34.58"/>
<text text-anchor="middle" x="727.73" y="-38.77" font-family="Times,serif" font-size="14.00">4</text>
</g>
<!-- rbo3.GetDistanceToPlayerX -->
<g id="node6" class="node">
<title>rbo3.GetDistanceToPlayerX</title>
<g id="a_node6"><a xlink:href="rbo3.GetDistanceToPlayerX.svg" xlink:title="rbo3.GetDistanceToPlayerX">
<ellipse fill="green" stroke="black" cx="987.05" cy="-18" rx="139.18" ry="18"/>
<text text-anchor="middle" x="987.05" y="-14.3" font-family="Times,serif" font-size="14.00">rbo3.GetDistanceToPlayerX</text>
</a>
</g>
</g>
<!-- rbo3.EntityMedusa&#45;&gt;rbo3.GetDistanceToPlayerX -->
<g id="edge5" class="edge">
<title>rbo3.EntityMedusa&#45;&gt;rbo3.GetDistanceToPlayerX</title>
<path fill="none" stroke="black" d="M1231.64,-180.25C1182.9,-148.12 1076.2,-77.78 1021.25,-41.55"/>
<polygon fill="black" stroke="black" points="1022.85,-38.41 1012.58,-35.83 1019,-44.26 1022.85,-38.41"/>
<text text-anchor="middle" x="1007.58" y="-39.63" font-family="Times,serif" font-size="14.00">4</text>
</g>
<!-- rbo3.GetSideToPlayer -->
<g id="node7" class="node">
<title>rbo3.GetSideToPlayer</title>
<g id="a_node7"><a xlink:href="rbo3.GetSideToPlayer.svg" xlink:title="rbo3.GetSideToPlayer">
<ellipse fill="green" stroke="black" cx="1257.05" cy="-18" rx="112.38" ry="18"/>
<text text-anchor="middle" x="1257.05" y="-14.3" font-family="Times,serif" font-size="14.00">rbo3.GetSideToPlayer</text>
</a>
</g>
</g>
<!-- rbo3.EntityMedusa&#45;&gt;rbo3.GetSideToPlayer -->
<g id="edge6" class="edge">
<title>rbo3.EntityMedusa&#45;&gt;rbo3.GetSideToPlayer</title>
<path fill="none" stroke="black" d="M1257.05,-179.93C1257.05,-148.97 1257.05,-83.3 1257.05,-46.13"/>
<polygon fill="black" stroke="black" points="1260.55,-46.02 1257.05,-36.02 1253.55,-46.02 1260.55,-46.02"/>
<text text-anchor="middle" x="1252.05" y="-39.82" font-family="Times,serif" font-size="14.00">3</text>
</g>
<!-- rbo3.InitializeEntity -->
<g id="node8" class="node">
<title>rbo3.InitializeEntity</title>
<g id="a_node8"><a xlink:href="rbo3.InitializeEntity.svg" xlink:title="rbo3.InitializeEntity">
<ellipse fill="green" stroke="black" cx="1492.05" cy="-18" rx="104.78" ry="18"/>
<text text-anchor="middle" x="1492.05" y="-14.3" font-family="Times,serif" font-size="14.00">rbo3.InitializeEntity</text>
</a>
</g>
</g>
<!-- rbo3.EntityMedusa&#45;&gt;rbo3.InitializeEntity -->
<g id="edge7" class="edge">
<title>rbo3.EntityMedusa&#45;&gt;rbo3.InitializeEntity</title>
<path fill="none" stroke="black" d="M1279.15,-180.25C1321.41,-148.25 1413.68,-78.36 1461.68,-42"/>
<polygon fill="black" stroke="black" points="1463.97,-44.66 1469.82,-35.83 1459.74,-39.08 1463.97,-44.66"/>
<text text-anchor="middle" x="1464.82" y="-39.63" font-family="Times,serif" font-size="14.00">1</text>
</g>
<!-- rbo3.MoveEntity -->
<g id="node9" class="node">
<title>rbo3.MoveEntity</title>
<g id="a_node9"><a xlink:href="rbo3.MoveEntity.svg" xlink:title="rbo3.MoveEntity">
<ellipse fill="green" stroke="black" cx="1704.05" cy="-18" rx="89.08" ry="18"/>
<text text-anchor="middle" x="1704.05" y="-14.3" font-family="Times,serif" font-size="14.00">rbo3.MoveEntity</text>
</a>
</g>
</g>
<!-- rbo3.EntityMedusa&#45;&gt;rbo3.MoveEntity -->
<g id="edge8" class="edge">
<title>rbo3.EntityMedusa&#45;&gt;rbo3.MoveEntity</title>
<path fill="none" stroke="black" d="M1296.32,-181.36C1378.34,-148.7 1567.53,-73.36 1656.35,-37.99"/>
<polygon fill="black" stroke="black" points="1657.66,-41.24 1665.65,-34.29 1655.07,-34.74 1657.66,-41.24"/>
<text text-anchor="middle" x="1660.65" y="-38.09" font-family="Times,serif" font-size="14.00">1</text>
</g>
<!-- rbo3.PlaySfxPositional -->
<g id="node10" class="node">
<title>rbo3.PlaySfxPositional</title>
<g id="a_node10"><a xlink:href="rbo3.PlaySfxPositional.svg" xlink:title="rbo3.PlaySfxPositional">
<ellipse fill="green" stroke="black" cx="1927.05" cy="-18" rx="115.88" ry="18"/>
<text text-anchor="middle" x="1927.05" y="-14.3" font-family="Times,serif" font-size="14.00">rbo3.PlaySfxPositional</text>
</a>
</g>
</g>
<!-- rbo3.EntityMedusa&#45;&gt;rbo3.PlaySfxPositional -->
<g id="edge9" class="edge">
<title>rbo3.EntityMedusa&#45;&gt;rbo3.PlaySfxPositional</title>
<path fill="none" stroke="black" d="M1310.74,-182.73C1432.4,-150.41 1728.75,-71.68 1861.2,-36.49"/>
<polygon fill="black" stroke="black" points="1862.45,-39.78 1871.21,-33.83 1860.65,-33.02 1862.45,-39.78"/>
<text text-anchor="middle" x="1861.71" y="-37.63" font-family="Times,serif" font-size="14.00">10</text>
</g>
<!-- rbo3.Random -->
<g id="node11" class="node">
<title>rbo3.Random</title>
<g id="a_node11"><a xlink:href="rbo3.Random.svg" xlink:title="rbo3.Random">
<ellipse fill="green" stroke="black" cx="2134.05" cy="-18" rx="73.39" ry="18"/>
<text text-anchor="middle" x="2134.05" y="-14.3" font-family="Times,serif" font-size="14.00">rbo3.Random</text>
</a>
</g>
</g>
<!-- rbo3.EntityMedusa&#45;&gt;rbo3.Random -->
<g id="edge10" class="edge">
<title>rbo3.EntityMedusa&#45;&gt;rbo3.Random</title>
<path fill="none" stroke="black" d="M1321.21,-184.11C1456.4,-156.93 1780.44,-91.66 2052.05,-36 2057.79,-34.82 2063.77,-33.59 2069.75,-32.36"/>
<polygon fill="black" stroke="black" points="2070.71,-35.73 2079.8,-30.28 2069.3,-28.88 2070.71,-35.73"/>
<text text-anchor="middle" x="2074.8" y="-34.08" font-family="Times,serif" font-size="14.00">4</text>
</g>
<!-- rbo3.SetStep -->
<g id="node12" class="node">
<title>rbo3.SetStep</title>
<g id="a_node12"><a xlink:href="rbo3.SetStep.svg" xlink:title="rbo3.SetStep">
<ellipse fill="green" stroke="black" cx="2298.05" cy="-18" rx="72.29" ry="18"/>
<text text-anchor="middle" x="2298.05" y="-14.3" font-family="Times,serif" font-size="14.00">rbo3.SetStep</text>
</a>
</g>
</g>
<!-- rbo3.EntityMedusa&#45;&gt;rbo3.SetStep -->
<g id="edge11" class="edge">
<title>rbo3.EntityMedusa&#45;&gt;rbo3.SetStep</title>
<path fill="none" stroke="black" d="M1330.6,-185.63C1491.51,-160.55 1886.67,-97.77 2216.05,-36 2222.23,-34.84 2228.68,-33.58 2235.11,-32.3"/>
<polygon fill="black" stroke="black" points="2236.06,-35.68 2245.17,-30.27 2234.68,-28.82 2236.06,-35.68"/>
<text text-anchor="middle" x="2235.67" y="-34.07" font-family="Times,serif" font-size="14.00">11</text>
</g>
</g>
</svg>
