<?xml version="1.0" encoding="UTF-8" standalone="no"?>
<!DOCTYPE svg PUBLIC "-//W3C//DTD SVG 1.1//EN"
 "http://www.w3.org/Graphics/SVG/1.1/DTD/svg11.dtd">
<!-- Generated by graphviz version 2.43.0 (0)
 -->
<!-- Title: rbo3.EntityPrizeDrop Pages: 1 -->
<svg width="3862pt" height="404pt"
 viewBox="0.00 0.00 3862.08 404.00" xmlns="http://www.w3.org/2000/svg" xmlns:xlink="http://www.w3.org/1999/xlink">
<g id="graph0" class="graph" transform="scale(1 1) rotate(0) translate(4 400)">
<title>rbo3.EntityPrizeDrop</title>
<polygon fill="white" stroke="transparent" points="-4,4 -4,-400 3858.08,-400 3858.08,4 -4,4"/>
<!-- rbo3.EntityPrizeDrop -->
<g id="node1" class="node">
<title>rbo3.EntityPrizeDrop</title>
<ellipse fill="red" stroke="black" cx="1921.44" cy="-198" rx="110.48" ry="18"/>
<text text-anchor="middle" x="1921.44" y="-194.3" font-family="Times,serif" font-size="14.00">rbo3.EntityPrizeDrop</text>
</g>
<!-- dra.AllocPrimitives -->
<g id="node2" class="node">
<title>dra.AllocPrimitives</title>
<g id="a_node2"><a xlink:href="dra.AllocPrimitives.svg" xlink:title="dra.AllocPrimitives">
<ellipse fill="green" stroke="black" cx="99.44" cy="-18" rx="99.38" ry="18"/>
<text text-anchor="middle" x="99.44" y="-14.3" font-family="Times,serif" font-size="14.00">dra.AllocPrimitives</text>
</a>
</g>
</g>
<!-- rbo3.EntityPrizeDrop&#45;&gt;dra.AllocPrimitives -->
<g id="edge1" class="edge">
<title>rbo3.EntityPrizeDrop&#45;&gt;dra.AllocPrimitives</title>
<path fill="none" stroke="black" d="M1822.73,-189.84C1559.74,-170.31 820.52,-112.42 208.44,-36 199.37,-34.87 189.89,-33.57 180.47,-32.2"/>
<polygon fill="black" stroke="black" points="180.7,-28.69 170.3,-30.69 179.68,-35.62 180.7,-28.69"/>
<text text-anchor="middle" x="165.3" y="-34.49" font-family="Times,serif" font-size="14.00">1</text>
</g>
<!-- dra.CheckCollision -->
<g id="node3" class="node">
<title>dra.CheckCollision</title>
<g id="a_node3"><a xlink:href="dra.CheckCollision.svg" xlink:title="dra.CheckCollision">
<ellipse fill="green" stroke="black" cx="314.44" cy="-18" rx="97.48" ry="18"/>
<text text-anchor="middle" x="314.44" y="-14.3" font-family="Times,serif" font-size="14.00">dra.CheckCollision</text>
</a>
</g>
</g>
<!-- rbo3.EntityPrizeDrop&#45;&gt;dra.CheckCollision -->
<g id="edge2" class="edge">
<title>rbo3.EntityPrizeDrop&#45;&gt;dra.CheckCollision</title>
<path fill="none" stroke="black" d="M1826.84,-188.58C1589.66,-167.1 950.7,-106.91 420.44,-36 411.85,-34.85 402.88,-33.56 393.96,-32.21"/>
<polygon fill="black" stroke="black" points="394.34,-28.73 383.93,-30.68 393.28,-35.65 394.34,-28.73"/>
<text text-anchor="middle" x="378.93" y="-34.48" font-family="Times,serif" font-size="14.00">4</text>
</g>
<!-- dra.FreePrimitives -->
<g id="node4" class="node">
<title>dra.FreePrimitives</title>
<g id="a_node4"><a xlink:href="dra.FreePrimitives.svg" xlink:title="dra.FreePrimitives">
<ellipse fill="green" stroke="black" cx="528.44" cy="-18" rx="98.58" ry="18"/>
<text text-anchor="middle" x="528.44" y="-14.3" font-family="Times,serif" font-size="14.00">dra.FreePrimitives</text>
</a>
</g>
</g>
<!-- rbo3.EntityPrizeDrop&#45;&gt;dra.FreePrimitives -->
<g id="edge3" class="edge">
<title>rbo3.EntityPrizeDrop&#45;&gt;dra.FreePrimitives</title>
<path fill="none" stroke="black" d="M1833.6,-187.02C1625.3,-163.12 1085.16,-99.86 635.44,-36 626.92,-34.79 618.02,-33.47 609.16,-32.12"/>
<polygon fill="black" stroke="black" points="609.6,-28.64 599.19,-30.58 608.54,-35.56 609.6,-28.64"/>
<text text-anchor="middle" x="594.19" y="-34.38" font-family="Times,serif" font-size="14.00">1</text>
</g>
<!-- rbo3.AnimateEntity -->
<g id="node5" class="node">
<title>rbo3.AnimateEntity</title>
<g id="a_node5"><a xlink:href="rbo3.AnimateEntity.svg" xlink:title="rbo3.AnimateEntity">
<ellipse fill="red" stroke="black" cx="747.44" cy="-18" rx="102.88" ry="18"/>
<text text-anchor="middle" x="747.44" y="-14.3" font-family="Times,serif" font-size="14.00">rbo3.AnimateEntity</text>
</a>
</g>
</g>
<!-- rbo3.EntityPrizeDrop&#45;&gt;rbo3.AnimateEntity -->
<g id="edge4" class="edge">
<title>rbo3.EntityPrizeDrop&#45;&gt;rbo3.AnimateEntity</title>
<path fill="none" stroke="black" d="M1843.42,-185.23C1667.6,-158.69 1227.03,-92.14 858.44,-36 849.9,-34.7 840.99,-33.34 832.09,-31.98"/>
<polygon fill="black" stroke="black" points="832.49,-28.5 822.07,-30.45 831.43,-35.42 832.49,-28.5"/>
<text text-anchor="middle" x="817.07" y="-34.25" font-family="Times,serif" font-size="14.00">1</text>
</g>
<!-- rbo3.CheckFieldCollision -->
<g id="node6" class="node">
<title>rbo3.CheckFieldCollision</title>
<g id="a_node6"><a xlink:href="rbo3.CheckFieldCollision.svg" xlink:title="rbo3.CheckFieldCollision">
<ellipse fill="red" stroke="black" cx="994.44" cy="-18" rx="126.98" ry="18"/>
<text text-anchor="middle" x="994.44" y="-14.3" font-family="Times,serif" font-size="14.00">rbo3.CheckFieldCollision</text>
</a>
</g>
</g>
<!-- rbo3.EntityPrizeDrop&#45;&gt;rbo3.CheckFieldCollision -->
<g id="edge5" class="edge">
<title>rbo3.EntityPrizeDrop&#45;&gt;rbo3.CheckFieldCollision</title>
<path fill="none" stroke="black" d="M1852.9,-183.84C1685.59,-151.71 1256.82,-69.38 1076.4,-34.74"/>
<polygon fill="black" stroke="black" points="1076.92,-31.27 1066.44,-32.82 1075.6,-38.15 1076.92,-31.27"/>
<text text-anchor="middle" x="1061.44" y="-36.62" font-family="Times,serif" font-size="14.00">2</text>
</g>
<!-- rbo3.CollectGold -->
<g id="node7" class="node">
<title>rbo3.CollectGold</title>
<g id="a_node7"><a xlink:href="rbo3.CollectGold.svg" xlink:title="rbo3.CollectGold">
<ellipse fill="red" stroke="black" cx="1228.44" cy="-18" rx="89.08" ry="18"/>
<text text-anchor="middle" x="1228.44" y="-14.3" font-family="Times,serif" font-size="14.00">rbo3.CollectGold</text>
</a>
</g>
</g>
<!-- rbo3.EntityPrizeDrop&#45;&gt;rbo3.CollectGold -->
<g id="edge6" class="edge">
<title>rbo3.EntityPrizeDrop&#45;&gt;rbo3.CollectGold</title>
<path fill="none" stroke="black" d="M1865.02,-182.51C1736.87,-149.59 1424.63,-69.39 1290.9,-35.04"/>
<polygon fill="black" stroke="black" points="1291.76,-31.65 1281.21,-32.55 1290.02,-38.43 1291.76,-31.65"/>
<text text-anchor="middle" x="1276.21" y="-36.35" font-family="Times,serif" font-size="14.00">1</text>
</g>
<!-- rbo3.CollectHeart -->
<g id="node8" class="node">
<title>rbo3.CollectHeart</title>
<g id="a_node8"><a xlink:href="rbo3.CollectHeart.svg" xlink:title="rbo3.CollectHeart">
<ellipse fill="red" stroke="black" cx="1429.44" cy="-18" rx="94.48" ry="18"/>
<text text-anchor="middle" x="1429.44" y="-14.3" font-family="Times,serif" font-size="14.00">rbo3.CollectHeart</text>
</a>
</g>
</g>
<!-- rbo3.EntityPrizeDrop&#45;&gt;rbo3.CollectHeart -->
<g id="edge7" class="edge">
<title>rbo3.EntityPrizeDrop&#45;&gt;rbo3.CollectHeart</title>
<path fill="none" stroke="black" d="M1878.21,-181.36C1787.64,-148.59 1578.34,-72.87 1480.98,-37.64"/>
<polygon fill="black" stroke="black" points="1481.95,-34.27 1471.35,-34.16 1479.56,-40.86 1481.95,-34.27"/>
<text text-anchor="middle" x="1466.35" y="-37.96" font-family="Times,serif" font-size="14.00">1</text>
</g>
<!-- rbo3.CollectHeartVessel -->
<g id="node9" class="node">
<title>rbo3.CollectHeartVessel</title>
<g id="a_node9"><a xlink:href="rbo3.CollectHeartVessel.svg" xlink:title="rbo3.CollectHeartVessel">
<ellipse fill="red" stroke="black" cx="1665.44" cy="-18" rx="123.48" ry="18"/>
<text text-anchor="middle" x="1665.44" y="-14.3" font-family="Times,serif" font-size="14.00">rbo3.CollectHeartVessel</text>
</a>
</g>
</g>
<!-- rbo3.EntityPrizeDrop&#45;&gt;rbo3.CollectHeartVessel -->
<g id="edge8" class="edge">
<title>rbo3.EntityPrizeDrop&#45;&gt;rbo3.CollectHeartVessel</title>
<path fill="none" stroke="black" d="M1897.36,-180.25C1851.14,-148.12 1749.98,-77.78 1697.87,-41.55"/>
<polygon fill="black" stroke="black" points="1699.86,-38.67 1689.65,-35.83 1695.86,-44.41 1699.86,-38.67"/>
<text text-anchor="middle" x="1684.65" y="-39.63" font-family="Times,serif" font-size="14.00">1</text>
</g>
<!-- rbo3.CollectLifeVessel -->
<g id="node10" class="node">
<title>rbo3.CollectLifeVessel</title>
<g id="a_node10"><a xlink:href="rbo3.CollectLifeVessel.svg" xlink:title="rbo3.CollectLifeVessel">
<ellipse fill="red" stroke="black" cx="1921.44" cy="-18" rx="114.28" ry="18"/>
<text text-anchor="middle" x="1921.44" y="-14.3" font-family="Times,serif" font-size="14.00">rbo3.CollectLifeVessel</text>
</a>
</g>
</g>
<!-- rbo3.EntityPrizeDrop&#45;&gt;rbo3.CollectLifeVessel -->
<g id="edge9" class="edge">
<title>rbo3.EntityPrizeDrop&#45;&gt;rbo3.CollectLifeVessel</title>
<path fill="none" stroke="black" d="M1921.44,-179.93C1921.44,-148.97 1921.44,-83.3 1921.44,-46.13"/>
<polygon fill="black" stroke="black" points="1924.94,-46.02 1921.44,-36.02 1917.94,-46.02 1924.94,-46.02"/>
<text text-anchor="middle" x="1916.44" y="-39.82" font-family="Times,serif" font-size="14.00">1</text>
</g>
<!-- rbo3.CollectSubweapon -->
<g id="node11" class="node">
<title>rbo3.CollectSubweapon</title>
<g id="a_node11"><a xlink:href="rbo3.CollectSubweapon.svg" xlink:title="rbo3.CollectSubweapon">
<ellipse fill="red" stroke="black" cx="2174.44" cy="-18" rx="120.78" ry="18"/>
<text text-anchor="middle" x="2174.44" y="-14.3" font-family="Times,serif" font-size="14.00">rbo3.CollectSubweapon</text>
</a>
</g>
</g>
<!-- rbo3.EntityPrizeDrop&#45;&gt;rbo3.CollectSubweapon -->
<g id="edge10" class="edge">
<title>rbo3.EntityPrizeDrop&#45;&gt;rbo3.CollectSubweapon</title>
<path fill="none" stroke="black" d="M1945.24,-180.25C1990.83,-148.18 2090.49,-78.07 2142.07,-41.78"/>
<polygon fill="black" stroke="black" points="2144.35,-44.45 2150.52,-35.83 2140.33,-38.72 2144.35,-44.45"/>
<text text-anchor="middle" x="2145.52" y="-39.63" font-family="Times,serif" font-size="14.00">1</text>
</g>
<!-- rbo3.DestroyCurrentEntity -->
<g id="node12" class="node">
<title>rbo3.DestroyCurrentEntity</title>
<g id="a_node12"><a xlink:href="rbo3.DestroyCurrentEntity.svg" xlink:title="rbo3.DestroyCurrentEntity">
<ellipse fill="red" stroke="black" cx="2450.44" cy="-18" rx="137.28" ry="18"/>
<text text-anchor="middle" x="2450.44" y="-14.3" font-family="Times,serif" font-size="14.00">rbo3.DestroyCurrentEntity</text>
</a>
</g>
</g>
<!-- rbo3.EntityPrizeDrop&#45;&gt;rbo3.DestroyCurrentEntity -->
<g id="edge11" class="edge">
<title>rbo3.EntityPrizeDrop&#45;&gt;rbo3.DestroyCurrentEntity</title>
<path fill="none" stroke="black" d="M1967.46,-181.52C2064.11,-148.99 2287.98,-73.67 2393.48,-38.17"/>
<polygon fill="black" stroke="black" points="2394.65,-41.47 2403.01,-34.96 2392.42,-34.83 2394.65,-41.47"/>
<text text-anchor="middle" x="2398.01" y="-38.76" font-family="Times,serif" font-size="14.00">1</text>
</g>
<!-- rbo3.DestroyEntity -->
<g id="node13" class="node">
<title>rbo3.DestroyEntity</title>
<g id="a_node13"><a xlink:href="rbo3.DestroyEntity.svg" xlink:title="rbo3.DestroyEntity">
<ellipse fill="red" stroke="black" cx="2706.44" cy="-18" rx="100.98" ry="18"/>
<text text-anchor="middle" x="2706.44" y="-14.3" font-family="Times,serif" font-size="14.00">rbo3.DestroyEntity</text>
</a>
</g>
</g>
<!-- rbo3.EntityPrizeDrop&#45;&gt;rbo3.DestroyEntity -->
<g id="edge12" class="edge">
<title>rbo3.EntityPrizeDrop&#45;&gt;rbo3.DestroyEntity</title>
<path fill="none" stroke="black" d="M1983.04,-183.03C2127.02,-150.39 2484.85,-69.25 2636.61,-34.83"/>
<polygon fill="black" stroke="black" points="2637.77,-38.16 2646.74,-32.54 2636.22,-31.33 2637.77,-38.16"/>
<text text-anchor="middle" x="2641.74" y="-36.34" font-family="Times,serif" font-size="14.00">2</text>
</g>
<!-- rbo3.FallEntity -->
<g id="node14" class="node">
<title>rbo3.FallEntity</title>
<g id="a_node14"><a xlink:href="rbo3.FallEntity.svg" xlink:title="rbo3.FallEntity">
<ellipse fill="red" stroke="black" cx="2906.44" cy="-18" rx="81.49" ry="18"/>
<text text-anchor="middle" x="2906.44" y="-14.3" font-family="Times,serif" font-size="14.00">rbo3.FallEntity</text>
</a>
</g>
</g>
<!-- rbo3.EntityPrizeDrop&#45;&gt;rbo3.FallEntity -->
<g id="edge13" class="edge">
<title>rbo3.EntityPrizeDrop&#45;&gt;rbo3.FallEntity</title>
<path fill="none" stroke="black" d="M1993.41,-184.27C2145.46,-157.34 2510.58,-92.4 2816.44,-36 2823.06,-34.78 2829.95,-33.5 2836.84,-32.21"/>
<polygon fill="black" stroke="black" points="2837.73,-35.6 2846.91,-30.32 2836.43,-28.72 2837.73,-35.6"/>
<text text-anchor="middle" x="2841.91" y="-34.12" font-family="Times,serif" font-size="14.00">2</text>
</g>
<!-- rbo3.InitializeEntity -->
<g id="node15" class="node">
<title>rbo3.InitializeEntity</title>
<g id="a_node15"><a xlink:href="rbo3.InitializeEntity.svg" xlink:title="rbo3.InitializeEntity">
<ellipse fill="red" stroke="black" cx="3110.44" cy="-18" rx="104.78" ry="18"/>
<text text-anchor="middle" x="3110.44" y="-14.3" font-family="Times,serif" font-size="14.00">rbo3.InitializeEntity</text>
</a>
</g>
</g>
<!-- rbo3.EntityPrizeDrop&#45;&gt;rbo3.InitializeEntity -->
<g id="edge14" class="edge">
<title>rbo3.EntityPrizeDrop&#45;&gt;rbo3.InitializeEntity</title>
<path fill="none" stroke="black" d="M1999.91,-185.25C2213.15,-153.33 2802.08,-65.16 3024.18,-31.91"/>
<polygon fill="black" stroke="black" points="3024.78,-35.36 3034.15,-30.42 3023.75,-28.44 3024.78,-35.36"/>
<text text-anchor="middle" x="3029.15" y="-34.22" font-family="Times,serif" font-size="14.00">1</text>
</g>
<!-- rbo3.MoveEntity -->
<g id="node16" class="node">
<title>rbo3.MoveEntity</title>
<g id="a_node16"><a xlink:href="rbo3.MoveEntity.svg" xlink:title="rbo3.MoveEntity">
<ellipse fill="red" stroke="black" cx="3322.44" cy="-18" rx="89.08" ry="18"/>
<text text-anchor="middle" x="3322.44" y="-14.3" font-family="Times,serif" font-size="14.00">rbo3.MoveEntity</text>
</a>
</g>
</g>
<!-- rbo3.EntityPrizeDrop&#45;&gt;rbo3.MoveEntity -->
<g id="edge15" class="edge">
<title>rbo3.EntityPrizeDrop&#45;&gt;rbo3.MoveEntity</title>
<path fill="none" stroke="black" d="M2011.3,-187.43C2223.06,-164.53 2769.85,-103.47 3224.44,-36 3232.27,-34.84 3240.44,-33.55 3248.58,-32.21"/>
<polygon fill="black" stroke="black" points="3249.18,-35.66 3258.46,-30.56 3248.02,-28.75 3249.18,-35.66"/>
<text text-anchor="middle" x="3253.46" y="-34.36" font-family="Times,serif" font-size="14.00">2</text>
</g>
<!-- rbo3.PrizeDropFall -->
<g id="node17" class="node">
<title>rbo3.PrizeDropFall</title>
<g id="a_node17"><a xlink:href="rbo3.PrizeDropFall.svg" xlink:title="rbo3.PrizeDropFall">
<ellipse fill="green" stroke="black" cx="3528.44" cy="-18" rx="98.58" ry="18"/>
<text text-anchor="middle" x="3528.44" y="-14.3" font-family="Times,serif" font-size="14.00">rbo3.PrizeDropFall</text>
</a>
</g>
</g>
<!-- rbo3.EntityPrizeDrop&#45;&gt;rbo3.PrizeDropFall -->
<g id="edge16" class="edge">
<title>rbo3.EntityPrizeDrop&#45;&gt;rbo3.PrizeDropFall</title>
<path fill="none" stroke="black" d="M2015.47,-188.52C2251.96,-166.84 2890.46,-106.13 3420.44,-36 3429.35,-34.82 3438.67,-33.5 3447.92,-32.12"/>
<polygon fill="black" stroke="black" points="3448.56,-35.56 3457.93,-30.61 3447.52,-28.64 3448.56,-35.56"/>
<text text-anchor="middle" x="3452.93" y="-34.41" font-family="Times,serif" font-size="14.00">1</text>
</g>
<!-- rbo3.PrizeDropFall2 -->
<g id="node18" class="node">
<title>rbo3.PrizeDropFall2</title>
<g id="a_node18"><a xlink:href="rbo3.PrizeDropFall2.svg" xlink:title="rbo3.PrizeDropFall2">
<ellipse fill="green" stroke="black" cx="3749.44" cy="-18" rx="104.78" ry="18"/>
<text text-anchor="middle" x="3749.44" y="-14.3" font-family="Times,serif" font-size="14.00">rbo3.PrizeDropFall2</text>
</a>
</g>
</g>
<!-- rbo3.EntityPrizeDrop&#45;&gt;rbo3.PrizeDropFall2 -->
<g id="edge17" class="edge">
<title>rbo3.EntityPrizeDrop&#45;&gt;rbo3.PrizeDropFall2</title>
<path fill="none" stroke="black" d="M2019.77,-189.7C2282.59,-169.76 3023.08,-110.87 3636.44,-36 3645.8,-34.86 3655.57,-33.55 3665.28,-32.19"/>
<polygon fill="black" stroke="black" points="3665.96,-35.63 3675.37,-30.75 3664.97,-28.7 3665.96,-35.63"/>
<text text-anchor="middle" x="3670.37" y="-34.55" font-family="Times,serif" font-size="14.00">3</text>
</g>
<!-- rbo3.EntityEquipItemDrop -->
<g id="node19" class="node">
<title>rbo3.EntityEquipItemDrop</title>
<g id="a_node19"><a xlink:href="rbo3.EntityEquipItemDrop.svg" xlink:title="rbo3.EntityEquipItemDrop">
<ellipse fill="red" stroke="black" cx="1921.44" cy="-378" rx="135.68" ry="18"/>
<text text-anchor="middle" x="1921.44" y="-374.3" font-family="Times,serif" font-size="14.00">rbo3.EntityEquipItemDrop</text>
</a>
</g>
</g>
<!-- rbo3.EntityEquipItemDrop&#45;&gt;rbo3.EntityPrizeDrop -->
<g id="edge18" class="edge">
<title>rbo3.EntityEquipItemDrop&#45;&gt;rbo3.EntityPrizeDrop</title>
<path fill="none" stroke="black" d="M1921.44,-359.93C1921.44,-328.97 1921.44,-263.3 1921.44,-226.13"/>
<polygon fill="black" stroke="black" points="1924.94,-226.02 1921.44,-216.02 1917.94,-226.02 1924.94,-226.02"/>
<text text-anchor="middle" x="1916.44" y="-348.73" font-family="Times,serif" font-size="14.00">1</text>
</g>
</g>
</svg>
