<?xml version="1.0" encoding="UTF-8" standalone="no"?>
<!DOCTYPE svg PUBLIC "-//W3C//DTD SVG 1.1//EN"
 "http://www.w3.org/Graphics/SVG/1.1/DTD/svg11.dtd">
<!-- Generated by graphviz version 2.43.0 (0)
 -->
<!-- Title: rbo3.func_us_801922EC Pages: 1 -->
<svg width="436pt" height="224pt"
 viewBox="0.00 0.00 436.38 224.00" xmlns="http://www.w3.org/2000/svg" xmlns:xlink="http://www.w3.org/1999/xlink">
<g id="graph0" class="graph" transform="scale(1 1) rotate(0) translate(4 220)">
<title>rbo3.func_us_801922EC</title>
<polygon fill="white" stroke="transparent" points="-4,4 -4,-220 432.38,-220 432.38,4 -4,4"/>
<!-- rbo3.func_us_801922EC -->
<g id="node1" class="node">
<title>rbo3.func_us_801922EC</title>
<ellipse fill="green" stroke="black" cx="211.74" cy="-198" rx="123.48" ry="18"/>
<text text-anchor="middle" x="211.74" y="-194.3" font-family="Times,serif" font-size="14.00">rbo3.func_us_801922EC</text>
</g>
<!-- rbo3.DestroyEntity -->
<g id="node2" class="node">
<title>rbo3.DestroyEntity</title>
<g id="a_node2"><a xlink:href="rbo3.DestroyEntity.svg" xlink:title="rbo3.DestroyEntity">
<ellipse fill="red" stroke="black" cx="100.74" cy="-18" rx="100.98" ry="18"/>
<text text-anchor="middle" x="100.74" y="-14.3" font-family="Times,serif" font-size="14.00">rbo3.DestroyEntity</text>
</a>
</g>
</g>
<!-- rbo3.func_us_801922EC&#45;&gt;rbo3.DestroyEntity -->
<g id="edge1" class="edge">
<title>rbo3.func_us_801922EC&#45;&gt;rbo3.DestroyEntity</title>
<path fill="none" stroke="black" d="M201.1,-179.93C181.54,-148.57 139.78,-81.6 116.77,-44.71"/>
<polygon fill="black" stroke="black" points="119.61,-42.65 111.35,-36.02 113.67,-46.35 119.61,-42.65"/>
<text text-anchor="middle" x="106.35" y="-39.82" font-family="Times,serif" font-size="14.00">1</text>
</g>
<!-- rbo3.InitializeEntity -->
<g id="node3" class="node">
<title>rbo3.InitializeEntity</title>
<g id="a_node3"><a xlink:href="rbo3.InitializeEntity.svg" xlink:title="rbo3.InitializeEntity">
<ellipse fill="red" stroke="black" cx="323.74" cy="-18" rx="104.78" ry="18"/>
<text text-anchor="middle" x="323.74" y="-14.3" font-family="Times,serif" font-size="14.00">rbo3.InitializeEntity</text>
</a>
</g>
</g>
<!-- rbo3.func_us_801922EC&#45;&gt;rbo3.InitializeEntity -->
<g id="edge2" class="edge">
<title>rbo3.func_us_801922EC&#45;&gt;rbo3.InitializeEntity</title>
<path fill="none" stroke="black" d="M222.48,-179.93C242.22,-148.57 284.35,-81.6 307.57,-44.71"/>
<polygon fill="black" stroke="black" points="310.67,-46.34 313.03,-36.02 304.75,-42.62 310.67,-46.34"/>
<text text-anchor="middle" x="308.03" y="-39.82" font-family="Times,serif" font-size="14.00">1</text>
</g>
</g>
</svg>
