<?xml version="1.0" encoding="UTF-8" standalone="no"?>
<!DOCTYPE svg PUBLIC "-//W3C//DTD SVG 1.1//EN"
 "http://www.w3.org/Graphics/SVG/1.1/DTD/svg11.dtd">
<!-- Generated by graphviz version 2.43.0 (0)
 -->
<!-- Title: rbo3.InitializeEntity Pages: 1 -->
<svg width="7840pt" height="224pt"
 viewBox="0.00 0.00 7840.08 224.00" xmlns="http://www.w3.org/2000/svg" xmlns:xlink="http://www.w3.org/1999/xlink">
<g id="graph0" class="graph" transform="scale(1 1) rotate(0) translate(4 220)">
<title>rbo3.InitializeEntity</title>
<polygon fill="white" stroke="transparent" points="-4,4 -4,-220 7836.08,-220 7836.08,4 -4,4"/>
<!-- rbo3.InitializeEntity -->
<g id="node1" class="node">
<title>rbo3.InitializeEntity</title>
<ellipse fill="red" stroke="black" cx="3959.89" cy="-18" rx="104.78" ry="18"/>
<text text-anchor="middle" x="3959.89" y="-14.3" font-family="Times,serif" font-size="14.00">rbo3.InitializeEntity</text>
</g>
<!-- rbo3.EntityBigRedFireball -->
<g id="node2" class="node">
<title>rbo3.EntityBigRedFireball</title>
<g id="a_node2"><a xlink:href="rbo3.EntityBigRedFireball.svg" xlink:title="rbo3.EntityBigRedFireball">
<ellipse fill="red" stroke="black" cx="133.89" cy="-198" rx="133.78" ry="18"/>
<text text-anchor="middle" x="133.89" y="-194.3" font-family="Times,serif" font-size="14.00">rbo3.EntityBigRedFireball</text>
</a>
</g>
</g>
<!-- rbo3.EntityBigRedFireball&#45;&gt;rbo3.InitializeEntity -->
<g id="edge1" class="edge">
<title>rbo3.EntityBigRedFireball&#45;&gt;rbo3.InitializeEntity</title>
<path fill="none" stroke="black" d="M226.48,-184.97C243.23,-183.08 260.57,-181.33 276.89,-180 1681.17,-66 3393.67,-29.01 3845.96,-20.88"/>
<polygon fill="black" stroke="black" points="3846.15,-24.38 3856.09,-20.7 3846.03,-17.38 3846.15,-24.38"/>
<text text-anchor="middle" x="221.48" y="-173.77" font-family="Times,serif" font-size="14.00">1</text>
</g>
<!-- rbo3.EntityBreakable -->
<g id="node3" class="node">
<title>rbo3.EntityBreakable</title>
<g id="a_node3"><a xlink:href="rbo3.EntityBreakable.svg" xlink:title="rbo3.EntityBreakable">
<ellipse fill="green" stroke="black" cx="395.89" cy="-198" rx="110.48" ry="18"/>
<text text-anchor="middle" x="395.89" y="-194.3" font-family="Times,serif" font-size="14.00">rbo3.EntityBreakable</text>
</a>
</g>
</g>
<!-- rbo3.EntityBreakable&#45;&gt;rbo3.InitializeEntity -->
<g id="edge2" class="edge">
<title>rbo3.EntityBreakable&#45;&gt;rbo3.InitializeEntity</title>
<path fill="none" stroke="black" d="M472.58,-185.04C486.94,-183.11 501.85,-181.32 515.89,-180 1820.41,-57.38 3412.12,-26.74 3846.06,-20.44"/>
<polygon fill="black" stroke="black" points="3846.14,-23.94 3856.09,-20.29 3846.04,-16.94 3846.14,-23.94"/>
<text text-anchor="middle" x="467.58" y="-173.84" font-family="Times,serif" font-size="14.00">1</text>
</g>
<!-- rbo3.EntityDamageDisplay -->
<g id="node4" class="node">
<title>rbo3.EntityDamageDisplay</title>
<g id="a_node4"><a xlink:href="rbo3.EntityDamageDisplay.svg" xlink:title="rbo3.EntityDamageDisplay">
<ellipse fill="red" stroke="black" cx="660.89" cy="-198" rx="136.48" ry="18"/>
<text text-anchor="middle" x="660.89" y="-194.3" font-family="Times,serif" font-size="14.00">rbo3.EntityDamageDisplay</text>
</a>
</g>
</g>
<!-- rbo3.EntityDamageDisplay&#45;&gt;rbo3.InitializeEntity -->
<g id="edge3" class="edge">
<title>rbo3.EntityDamageDisplay&#45;&gt;rbo3.InitializeEntity</title>
<path fill="none" stroke="black" d="M755.83,-185.04C772.81,-183.16 790.36,-181.38 806.89,-180 1994.15,-80.67 3438.41,-33.95 3847.26,-22.11"/>
<polygon fill="black" stroke="black" points="3847.42,-25.6 3857.31,-21.82 3847.22,-18.61 3847.42,-25.6"/>
<text text-anchor="middle" x="750.83" y="-173.84" font-family="Times,serif" font-size="14.00">1</text>
</g>
<!-- rbo3.EntityEnemyBlood -->
<g id="node5" class="node">
<title>rbo3.EntityEnemyBlood</title>
<g id="a_node5"><a xlink:href="rbo3.EntityEnemyBlood.svg" xlink:title="rbo3.EntityEnemyBlood">
<ellipse fill="red" stroke="black" cx="937.89" cy="-198" rx="122.38" ry="18"/>
<text text-anchor="middle" x="937.89" y="-194.3" font-family="Times,serif" font-size="14.00">rbo3.EntityEnemyBlood</text>
</a>
</g>
</g>
<!-- rbo3.EntityEnemyBlood&#45;&gt;rbo3.InitializeEntity -->
<g id="edge4" class="edge">
<title>rbo3.EntityEnemyBlood&#45;&gt;rbo3.InitializeEntity</title>
<path fill="none" stroke="black" d="M1023.05,-185.03C1038.29,-183.15 1054.04,-181.37 1068.89,-180 2148.32,-80.04 3460.64,-34.24 3847.51,-22.29"/>
<polygon fill="black" stroke="black" points="3847.7,-25.78 3857.59,-21.98 3847.48,-18.79 3847.7,-25.78"/>
<text text-anchor="middle" x="1018.05" y="-173.83" font-family="Times,serif" font-size="14.00">1</text>
</g>
<!-- rbo3.EntityEquipItemDrop -->
<g id="node6" class="node">
<title>rbo3.EntityEquipItemDrop</title>
<g id="a_node6"><a xlink:href="rbo3.EntityEquipItemDrop.svg" xlink:title="rbo3.EntityEquipItemDrop">
<ellipse fill="red" stroke="black" cx="1213.89" cy="-198" rx="135.68" ry="18"/>
<text text-anchor="middle" x="1213.89" y="-194.3" font-family="Times,serif" font-size="14.00">rbo3.EntityEquipItemDrop</text>
</a>
</g>
</g>
<!-- rbo3.EntityEquipItemDrop&#45;&gt;rbo3.InitializeEntity -->
<g id="edge5" class="edge">
<title>rbo3.EntityEquipItemDrop&#45;&gt;rbo3.InitializeEntity</title>
<path fill="none" stroke="black" d="M1308.97,-185.1C1325.59,-183.23 1342.73,-181.45 1358.89,-180 2322.13,-93.79 3490.22,-39.3 3849.48,-23.66"/>
<polygon fill="black" stroke="black" points="3849.78,-27.15 3859.62,-23.22 3849.47,-20.16 3849.78,-27.15"/>
<text text-anchor="middle" x="1303.97" y="-173.9" font-family="Times,serif" font-size="14.00">1</text>
</g>
<!-- rbo3.EntityExplosion -->
<g id="node7" class="node">
<title>rbo3.EntityExplosion</title>
<g id="a_node7"><a xlink:href="rbo3.EntityExplosion.svg" xlink:title="rbo3.EntityExplosion">
<ellipse fill="red" stroke="black" cx="1476.89" cy="-198" rx="109.38" ry="18"/>
<text text-anchor="middle" x="1476.89" y="-194.3" font-family="Times,serif" font-size="14.00">rbo3.EntityExplosion</text>
</a>
</g>
</g>
<!-- rbo3.EntityExplosion&#45;&gt;rbo3.InitializeEntity -->
<g id="edge6" class="edge">
<title>rbo3.EntityExplosion&#45;&gt;rbo3.InitializeEntity</title>
<path fill="none" stroke="black" d="M1553.59,-185.1C1567.32,-183.21 1581.51,-181.42 1594.89,-180 2460.91,-88.27 3511.16,-38.18 3849.34,-23.57"/>
<polygon fill="black" stroke="black" points="3849.54,-27.06 3859.38,-23.14 3849.24,-20.07 3849.54,-27.06"/>
<text text-anchor="middle" x="1548.59" y="-173.9" font-family="Times,serif" font-size="14.00">1</text>
</g>
<!-- rbo3.EntityIntenseExplosion -->
<g id="node8" class="node">
<title>rbo3.EntityIntenseExplosion</title>
<g id="a_node8"><a xlink:href="rbo3.EntityIntenseExplosion.svg" xlink:title="rbo3.EntityIntenseExplosion">
<ellipse fill="red" stroke="black" cx="1747.89" cy="-198" rx="143.77" ry="18"/>
<text text-anchor="middle" x="1747.89" y="-194.3" font-family="Times,serif" font-size="14.00">rbo3.EntityIntenseExplosion</text>
</a>
</g>
</g>
<!-- rbo3.EntityIntenseExplosion&#45;&gt;rbo3.InitializeEntity -->
<g id="edge7" class="edge">
<title>rbo3.EntityIntenseExplosion&#45;&gt;rbo3.InitializeEntity</title>
<path fill="none" stroke="black" d="M1849.48,-185.24C1866.63,-183.39 1884.26,-181.57 1900.89,-180 2648.27,-109.28 3550.4,-46.55 3854.23,-26.04"/>
<polygon fill="black" stroke="black" points="3854.61,-29.52 3864.35,-25.36 3854.14,-22.54 3854.61,-29.52"/>
<text text-anchor="middle" x="1844.48" y="-174.04" font-family="Times,serif" font-size="14.00">1</text>
</g>
<!-- rbo3.EntityLifeUpSpawn -->
<g id="node9" class="node">
<title>rbo3.EntityLifeUpSpawn</title>
<g id="a_node9"><a xlink:href="rbo3.EntityLifeUpSpawn.svg" xlink:title="rbo3.EntityLifeUpSpawn">
<ellipse fill="red" stroke="black" cx="2035.89" cy="-198" rx="126.18" ry="18"/>
<text text-anchor="middle" x="2035.89" y="-194.3" font-family="Times,serif" font-size="14.00">rbo3.EntityLifeUpSpawn</text>
</a>
</g>
</g>
<!-- rbo3.EntityLifeUpSpawn&#45;&gt;rbo3.InitializeEntity -->
<g id="edge8" class="edge">
<title>rbo3.EntityLifeUpSpawn&#45;&gt;rbo3.InitializeEntity</title>
<path fill="none" stroke="black" d="M2125.52,-185.26C2140.65,-183.41 2156.21,-181.58 2170.89,-180 2810.66,-110.95 3581.38,-48.61 3856.29,-27.03"/>
<polygon fill="black" stroke="black" points="3856.96,-30.49 3866.65,-26.22 3856.41,-23.51 3856.96,-30.49"/>
<text text-anchor="middle" x="2120.52" y="-174.06" font-family="Times,serif" font-size="14.00">1</text>
</g>
<!-- rbo3.EntityMessageBox -->
<g id="node10" class="node">
<title>rbo3.EntityMessageBox</title>
<g id="a_node10"><a xlink:href="rbo3.EntityMessageBox.svg" xlink:title="rbo3.EntityMessageBox">
<ellipse fill="red" stroke="black" cx="2301.89" cy="-198" rx="122.38" ry="18"/>
<text text-anchor="middle" x="2301.89" y="-194.3" font-family="Times,serif" font-size="14.00">rbo3.EntityMessageBox</text>
</a>
</g>
</g>
<!-- rbo3.EntityMessageBox&#45;&gt;rbo3.InitializeEntity -->
<g id="edge9" class="edge">
<title>rbo3.EntityMessageBox&#45;&gt;rbo3.InitializeEntity</title>
<path fill="none" stroke="black" d="M2389.54,-185.42C2404.34,-183.55 2419.54,-181.68 2433.89,-180 2971.88,-116.98 3617.93,-52.5 3861,-28.64"/>
<polygon fill="black" stroke="black" points="3861.61,-32.1 3871.22,-27.64 3860.93,-25.13 3861.61,-32.1"/>
<text text-anchor="middle" x="2384.54" y="-174.22" font-family="Times,serif" font-size="14.00">1</text>
</g>
<!-- rbo3.EntityOlroxDrool -->
<g id="node11" class="node">
<title>rbo3.EntityOlroxDrool</title>
<g id="a_node11"><a xlink:href="rbo3.EntityOlroxDrool.svg" xlink:title="rbo3.EntityOlroxDrool">
<ellipse fill="red" stroke="black" cx="2556.89" cy="-198" rx="114.28" ry="18"/>
<text text-anchor="middle" x="2556.89" y="-194.3" font-family="Times,serif" font-size="14.00">rbo3.EntityOlroxDrool</text>
</a>
</g>
</g>
<!-- rbo3.EntityOlroxDrool&#45;&gt;rbo3.InitializeEntity -->
<g id="edge10" class="edge">
<title>rbo3.EntityOlroxDrool&#45;&gt;rbo3.InitializeEntity</title>
<path fill="none" stroke="black" d="M2639.58,-185.53C2653.37,-183.66 2667.53,-181.76 2680.89,-180 3124.89,-121.62 3656.2,-56.14 3867.07,-30.33"/>
<polygon fill="black" stroke="black" points="3867.67,-33.78 3877.18,-29.09 3866.82,-26.83 3867.67,-33.78"/>
<text text-anchor="middle" x="2634.58" y="-174.33" font-family="Times,serif" font-size="14.00">1</text>
</g>
<!-- rbo3.EntityPrizeDrop -->
<g id="node12" class="node">
<title>rbo3.EntityPrizeDrop</title>
<g id="a_node12"><a xlink:href="rbo3.EntityPrizeDrop.svg" xlink:title="rbo3.EntityPrizeDrop">
<ellipse fill="red" stroke="black" cx="2799.89" cy="-198" rx="110.48" ry="18"/>
<text text-anchor="middle" x="2799.89" y="-194.3" font-family="Times,serif" font-size="14.00">rbo3.EntityPrizeDrop</text>
</a>
</g>
</g>
<!-- rbo3.EntityPrizeDrop&#45;&gt;rbo3.InitializeEntity -->
<g id="edge11" class="edge">
<title>rbo3.EntityPrizeDrop&#45;&gt;rbo3.InitializeEntity</title>
<path fill="none" stroke="black" d="M2877.35,-185.11C3085.71,-153.14 3657.06,-65.47 3874.42,-32.11"/>
<polygon fill="black" stroke="black" points="3875.15,-35.54 3884.5,-30.57 3874.08,-28.63 3875.15,-35.54"/>
<text text-anchor="middle" x="2872.35" y="-173.91" font-family="Times,serif" font-size="14.00">1</text>
</g>
<!-- rbo3.EntityRedDoor -->
<g id="node13" class="node">
<title>rbo3.EntityRedDoor</title>
<g id="a_node13"><a xlink:href="rbo3.EntityRedDoor.svg" xlink:title="rbo3.EntityRedDoor">
<ellipse fill="red" stroke="black" cx="3032.89" cy="-198" rx="104.78" ry="18"/>
<text text-anchor="middle" x="3032.89" y="-194.3" font-family="Times,serif" font-size="14.00">rbo3.EntityRedDoor</text>
</a>
</g>
</g>
<!-- rbo3.EntityRedDoor&#45;&gt;rbo3.InitializeEntity -->
<g id="edge12" class="edge">
<title>rbo3.EntityRedDoor&#45;&gt;rbo3.InitializeEntity</title>
<path fill="none" stroke="black" d="M3099.93,-184.13C3267.71,-151.91 3704.98,-67.95 3882.9,-33.78"/>
<polygon fill="black" stroke="black" points="3883.8,-37.17 3892.96,-31.85 3882.48,-30.3 3883.8,-37.17"/>
<text text-anchor="middle" x="3094.93" y="-172.93" font-family="Times,serif" font-size="14.00">1</text>
</g>
<!-- rbo3.EntityRelicOrb -->
<g id="node14" class="node">
<title>rbo3.EntityRelicOrb</title>
<g id="a_node14"><a xlink:href="rbo3.EntityRelicOrb.svg" xlink:title="rbo3.EntityRelicOrb">
<ellipse fill="red" stroke="black" cx="3259.89" cy="-198" rx="104.78" ry="18"/>
<text text-anchor="middle" x="3259.89" y="-194.3" font-family="Times,serif" font-size="14.00">rbo3.EntityRelicOrb</text>
</a>
</g>
</g>
<!-- rbo3.EntityRelicOrb&#45;&gt;rbo3.InitializeEntity -->
<g id="edge13" class="edge">
<title>rbo3.EntityRelicOrb&#45;&gt;rbo3.InitializeEntity</title>
<path fill="none" stroke="black" d="M3315.99,-182.73C3443.86,-150.22 3756.43,-70.74 3893.56,-35.87"/>
<polygon fill="black" stroke="black" points="3894.69,-39.19 3903.52,-33.33 3892.97,-32.41 3894.69,-39.19"/>
<text text-anchor="middle" x="3310.99" y="-171.53" font-family="Times,serif" font-size="14.00">1</text>
</g>
<!-- rbo3.EntityRoomForeground -->
<g id="node15" class="node">
<title>rbo3.EntityRoomForeground</title>
<g id="a_node15"><a xlink:href="rbo3.EntityRoomForeground.svg" xlink:title="rbo3.EntityRoomForeground">
<ellipse fill="red" stroke="black" cx="3526.89" cy="-198" rx="144.07" ry="18"/>
<text text-anchor="middle" x="3526.89" y="-194.3" font-family="Times,serif" font-size="14.00">rbo3.EntityRoomForeground</text>
</a>
</g>
</g>
<!-- rbo3.EntityRoomForeground&#45;&gt;rbo3.InitializeEntity -->
<g id="edge14" class="edge">
<title>rbo3.EntityRoomForeground&#45;&gt;rbo3.InitializeEntity</title>
<path fill="none" stroke="black" d="M3566.85,-180.57C3646.76,-147.72 3825.96,-74.06 3912,-38.69"/>
<polygon fill="black" stroke="black" points="3913.35,-41.91 3921.27,-34.87 3910.69,-35.44 3913.35,-41.91"/>
<text text-anchor="middle" x="3561.85" y="-169.37" font-family="Times,serif" font-size="14.00">1</text>
</g>
<!-- rbo3.EntitySoulStealOrb -->
<g id="node16" class="node">
<title>rbo3.EntitySoulStealOrb</title>
<g id="a_node16"><a xlink:href="rbo3.EntitySoulStealOrb.svg" xlink:title="rbo3.EntitySoulStealOrb">
<ellipse fill="red" stroke="black" cx="3814.89" cy="-198" rx="126.18" ry="18"/>
<text text-anchor="middle" x="3814.89" y="-194.3" font-family="Times,serif" font-size="14.00">rbo3.EntitySoulStealOrb</text>
</a>
</g>
</g>
<!-- rbo3.EntitySoulStealOrb&#45;&gt;rbo3.InitializeEntity -->
<g id="edge15" class="edge">
<title>rbo3.EntitySoulStealOrb&#45;&gt;rbo3.InitializeEntity</title>
<path fill="none" stroke="black" d="M3828.79,-179.93C3854.56,-148.3 3909.82,-80.46 3939.71,-43.78"/>
<polygon fill="black" stroke="black" points="3942.42,-45.98 3946.03,-36.02 3937,-41.56 3942.42,-45.98"/>
<text text-anchor="middle" x="3823.79" y="-168.73" font-family="Times,serif" font-size="14.00">1</text>
</g>
<!-- rbo3.EntityStageNamePopup -->
<g id="node17" class="node">
<title>rbo3.EntityStageNamePopup</title>
<g id="a_node17"><a xlink:href="rbo3.EntityStageNamePopup.svg" xlink:title="rbo3.EntityStageNamePopup">
<ellipse fill="red" stroke="black" cx="4105.89" cy="-198" rx="146.77" ry="18"/>
<text text-anchor="middle" x="4105.89" y="-194.3" font-family="Times,serif" font-size="14.00">rbo3.EntityStageNamePopup</text>
</a>
</g>
</g>
<!-- rbo3.EntityStageNamePopup&#45;&gt;rbo3.InitializeEntity -->
<g id="edge16" class="edge">
<title>rbo3.EntityStageNamePopup&#45;&gt;rbo3.InitializeEntity</title>
<path fill="none" stroke="black" d="M4091.89,-179.93C4065.94,-148.3 4010.3,-80.46 3980.21,-43.78"/>
<polygon fill="black" stroke="black" points="3982.89,-41.53 3973.84,-36.02 3977.48,-45.97 3982.89,-41.53"/>
<text text-anchor="middle" x="4086.89" y="-168.73" font-family="Times,serif" font-size="14.00">1</text>
</g>
<!-- rbo3.EntityUnkId12 -->
<g id="node18" class="node">
<title>rbo3.EntityUnkId12</title>
<g id="a_node18"><a xlink:href="rbo3.EntityUnkId12.svg" xlink:title="rbo3.EntityUnkId12">
<ellipse fill="red" stroke="black" cx="4374.89" cy="-198" rx="103.98" ry="18"/>
<text text-anchor="middle" x="4374.89" y="-194.3" font-family="Times,serif" font-size="14.00">rbo3.EntityUnkId12</text>
</a>
</g>
</g>
<!-- rbo3.EntityUnkId12&#45;&gt;rbo3.InitializeEntity -->
<g id="edge17" class="edge">
<title>rbo3.EntityUnkId12&#45;&gt;rbo3.InitializeEntity</title>
<path fill="none" stroke="black" d="M4337.69,-181.05C4261.82,-148.5 4089.34,-74.52 4006.28,-38.9"/>
<polygon fill="black" stroke="black" points="4007.42,-35.58 3996.85,-34.85 4004.66,-42.01 4007.42,-35.58"/>
<text text-anchor="middle" x="4332.69" y="-169.85" font-family="Times,serif" font-size="14.00">1</text>
</g>
<!-- rbo3.EntityUnkId13 -->
<g id="node19" class="node">
<title>rbo3.EntityUnkId13</title>
<g id="a_node19"><a xlink:href="rbo3.EntityUnkId13.svg" xlink:title="rbo3.EntityUnkId13">
<ellipse fill="red" stroke="black" cx="4600.89" cy="-198" rx="103.98" ry="18"/>
<text text-anchor="middle" x="4600.89" y="-194.3" font-family="Times,serif" font-size="14.00">rbo3.EntityUnkId13</text>
</a>
</g>
</g>
<!-- rbo3.EntityUnkId13&#45;&gt;rbo3.InitializeEntity -->
<g id="edge18" class="edge">
<title>rbo3.EntityUnkId13&#45;&gt;rbo3.InitializeEntity</title>
<path fill="none" stroke="black" d="M4548.43,-182.43C4431.26,-149.89 4148.66,-71.42 4022.52,-36.39"/>
<polygon fill="black" stroke="black" points="4023.19,-32.95 4012.62,-33.64 4021.32,-39.69 4023.19,-32.95"/>
<text text-anchor="middle" x="4543.43" y="-171.23" font-family="Times,serif" font-size="14.00">1</text>
</g>
<!-- rbo3.InitializeUnkEntity -->
<g id="node20" class="node">
<title>rbo3.InitializeUnkEntity</title>
<g id="a_node20"><a xlink:href="rbo3.InitializeUnkEntity.svg" xlink:title="rbo3.InitializeUnkEntity">
<ellipse fill="red" stroke="black" cx="4845.89" cy="-198" rx="123.48" ry="18"/>
<text text-anchor="middle" x="4845.89" y="-194.3" font-family="Times,serif" font-size="14.00">rbo3.InitializeUnkEntity</text>
</a>
</g>
</g>
<!-- rbo3.InitializeUnkEntity&#45;&gt;rbo3.InitializeEntity -->
<g id="edge19" class="edge">
<title>rbo3.InitializeUnkEntity&#45;&gt;rbo3.InitializeEntity</title>
<path fill="none" stroke="black" d="M4776.37,-183.03C4612.68,-150.15 4204.08,-68.06 4034.98,-34.09"/>
<polygon fill="black" stroke="black" points="4035.66,-30.65 4025.17,-32.11 4034.28,-37.52 4035.66,-30.65"/>
<text text-anchor="middle" x="4771.37" y="-171.83" font-family="Times,serif" font-size="14.00">1</text>
</g>
<!-- rbo3.func_801A7D64 -->
<g id="node21" class="node">
<title>rbo3.func_801A7D64</title>
<g id="a_node21"><a xlink:href="rbo3.func_801A7D64.svg" xlink:title="rbo3.func_801A7D64">
<ellipse fill="red" stroke="black" cx="5095.89" cy="-198" rx="108.58" ry="18"/>
<text text-anchor="middle" x="5095.89" y="-194.3" font-family="Times,serif" font-size="14.00">rbo3.func_801A7D64</text>
</a>
</g>
</g>
<!-- rbo3.func_801A7D64&#45;&gt;rbo3.InitializeEntity -->
<g id="edge20" class="edge">
<title>rbo3.func_801A7D64&#45;&gt;rbo3.InitializeEntity</title>
<path fill="none" stroke="black" d="M5020.03,-185.11C4816.22,-153.18 4257.79,-65.68 4044.35,-32.23"/>
<polygon fill="black" stroke="black" points="4044.88,-28.77 4034.45,-30.68 4043.79,-35.69 4044.88,-28.77"/>
<text text-anchor="middle" x="5015.03" y="-173.91" font-family="Times,serif" font-size="14.00">1</text>
</g>
<!-- rbo3.func_us_80191438 -->
<g id="node22" class="node">
<title>rbo3.func_us_80191438</title>
<g id="a_node22"><a xlink:href="rbo3.func_us_80191438.svg" xlink:title="rbo3.func_us_80191438">
<ellipse fill="red" stroke="black" cx="5343.89" cy="-198" rx="121.58" ry="18"/>
<text text-anchor="middle" x="5343.89" y="-194.3" font-family="Times,serif" font-size="14.00">rbo3.func_us_80191438</text>
</a>
</g>
</g>
<!-- rbo3.func_us_80191438&#45;&gt;rbo3.InitializeEntity -->
<g id="edge21" class="edge">
<title>rbo3.func_us_80191438&#45;&gt;rbo3.InitializeEntity</title>
<path fill="none" stroke="black" d="M5256.13,-185.5C5242.01,-183.65 5227.54,-181.77 5213.89,-180 4778.81,-123.62 4258.69,-57.14 4051.54,-30.69"/>
<polygon fill="black" stroke="black" points="4051.68,-27.18 4041.32,-29.39 4050.8,-34.13 4051.68,-27.18"/>
<text text-anchor="middle" x="5251.13" y="-174.3" font-family="Times,serif" font-size="14.00">1</text>
</g>
<!-- rbo3.func_us_8019179C -->
<g id="node23" class="node">
<title>rbo3.func_us_8019179C</title>
<g id="a_node23"><a xlink:href="rbo3.func_us_8019179C.svg" xlink:title="rbo3.func_us_8019179C">
<ellipse fill="red" stroke="black" cx="5605.89" cy="-198" rx="122.38" ry="18"/>
<text text-anchor="middle" x="5605.89" y="-194.3" font-family="Times,serif" font-size="14.00">rbo3.func_us_8019179C</text>
</a>
</g>
</g>
<!-- rbo3.func_us_8019179C&#45;&gt;rbo3.InitializeEntity -->
<g id="edge22" class="edge">
<title>rbo3.func_us_8019179C&#45;&gt;rbo3.InitializeEntity</title>
<path fill="none" stroke="black" d="M5518.55,-185.38C5503.97,-183.52 5489.01,-181.67 5474.89,-180 4941.11,-117.01 4300.16,-52.58 4058.5,-28.68"/>
<polygon fill="black" stroke="black" points="4058.64,-25.18 4048.34,-27.68 4057.95,-32.14 4058.64,-25.18"/>
<text text-anchor="middle" x="5513.55" y="-174.18" font-family="Times,serif" font-size="14.00">1</text>
</g>
<!-- rbo3.func_us_80192020 -->
<g id="node24" class="node">
<title>rbo3.func_us_80192020</title>
<g id="a_node24"><a xlink:href="rbo3.func_us_80192020.svg" xlink:title="rbo3.func_us_80192020">
<ellipse fill="red" stroke="black" cx="5867.89" cy="-198" rx="121.58" ry="18"/>
<text text-anchor="middle" x="5867.89" y="-194.3" font-family="Times,serif" font-size="14.00">rbo3.func_us_80192020</text>
</a>
</g>
</g>
<!-- rbo3.func_us_80192020&#45;&gt;rbo3.InitializeEntity -->
<g id="edge23" class="edge">
<title>rbo3.func_us_80192020&#45;&gt;rbo3.InitializeEntity</title>
<path fill="none" stroke="black" d="M5781.27,-185.28C5766.48,-183.41 5751.25,-181.58 5736.89,-180 5102.29,-110.1 4337.73,-48.4 4063.78,-27"/>
<polygon fill="black" stroke="black" points="4063.7,-23.48 4053.46,-26.19 4063.16,-30.46 4063.7,-23.48"/>
<text text-anchor="middle" x="5776.27" y="-174.08" font-family="Times,serif" font-size="14.00">1</text>
</g>
<!-- rbo3.func_us_801922EC -->
<g id="node25" class="node">
<title>rbo3.func_us_801922EC</title>
<g id="a_node25"><a xlink:href="rbo3.func_us_801922EC.svg" xlink:title="rbo3.func_us_801922EC">
<ellipse fill="green" stroke="black" cx="6130.89" cy="-198" rx="123.48" ry="18"/>
<text text-anchor="middle" x="6130.89" y="-194.3" font-family="Times,serif" font-size="14.00">rbo3.func_us_801922EC</text>
</a>
</g>
</g>
<!-- rbo3.func_us_801922EC&#45;&gt;rbo3.InitializeEntity -->
<g id="edge24" class="edge">
<title>rbo3.func_us_801922EC&#45;&gt;rbo3.InitializeEntity</title>
<path fill="none" stroke="black" d="M6043.98,-185.19C6028.96,-183.32 6013.48,-181.51 5998.89,-180 5261.14,-103.41 4369.85,-44.62 4066.72,-25.57"/>
<polygon fill="black" stroke="black" points="4066.82,-22.07 4056.62,-24.94 4066.38,-29.06 4066.82,-22.07"/>
<text text-anchor="middle" x="6038.98" y="-173.99" font-family="Times,serif" font-size="14.00">1</text>
</g>
<!-- rbo3.func_us_801923DC -->
<g id="node26" class="node">
<title>rbo3.func_us_801923DC</title>
<g id="a_node26"><a xlink:href="rbo3.func_us_801923DC.svg" xlink:title="rbo3.func_us_801923DC">
<ellipse fill="red" stroke="black" cx="6396.89" cy="-198" rx="124.28" ry="18"/>
<text text-anchor="middle" x="6396.89" y="-194.3" font-family="Times,serif" font-size="14.00">rbo3.func_us_801923DC</text>
</a>
</g>
</g>
<!-- rbo3.func_us_801923DC&#45;&gt;rbo3.InitializeEntity -->
<g id="edge25" class="edge">
<title>rbo3.func_us_801923DC&#45;&gt;rbo3.InitializeEntity</title>
<path fill="none" stroke="black" d="M6309.39,-185.18C6293.92,-183.29 6277.94,-181.48 6262.89,-180 5420.01,-97.14 4399.49,-41.37 4068.87,-24.43"/>
<polygon fill="black" stroke="black" points="4068.99,-20.93 4058.82,-23.92 4068.63,-27.92 4068.99,-20.93"/>
<text text-anchor="middle" x="6304.39" y="-173.98" font-family="Times,serif" font-size="14.00">1</text>
</g>
<!-- rbo3.func_us_80192998 -->
<g id="node27" class="node">
<title>rbo3.func_us_80192998</title>
<g id="a_node27"><a xlink:href="rbo3.func_us_80192998.svg" xlink:title="rbo3.func_us_80192998">
<ellipse fill="red" stroke="black" cx="6660.89" cy="-198" rx="121.58" ry="18"/>
<text text-anchor="middle" x="6660.89" y="-194.3" font-family="Times,serif" font-size="14.00">rbo3.func_us_80192998</text>
</a>
</g>
</g>
<!-- rbo3.func_us_80192998&#45;&gt;rbo3.InitializeEntity -->
<g id="edge26" class="edge">
<title>rbo3.func_us_80192998&#45;&gt;rbo3.InitializeEntity</title>
<path fill="none" stroke="black" d="M6575.72,-185.11C6560.48,-183.22 6544.73,-181.43 6529.89,-180 5580.31,-88.74 4428.15,-37.76 4070.88,-23.31"/>
<polygon fill="black" stroke="black" points="4070.93,-19.81 4060.8,-22.91 4070.65,-26.81 4070.93,-19.81"/>
<text text-anchor="middle" x="6570.72" y="-173.91" font-family="Times,serif" font-size="14.00">1</text>
</g>
<!-- rbo3.func_us_80192B38 -->
<g id="node28" class="node">
<title>rbo3.func_us_80192B38</title>
<g id="a_node28"><a xlink:href="rbo3.func_us_80192B38.svg" xlink:title="rbo3.func_us_80192B38">
<ellipse fill="red" stroke="black" cx="6922.89" cy="-198" rx="122.38" ry="18"/>
<text text-anchor="middle" x="6922.89" y="-194.3" font-family="Times,serif" font-size="14.00">rbo3.func_us_80192B38</text>
</a>
</g>
</g>
<!-- rbo3.func_us_80192B38&#45;&gt;rbo3.InitializeEntity -->
<g id="edge27" class="edge">
<title>rbo3.func_us_80192B38&#45;&gt;rbo3.InitializeEntity</title>
<path fill="none" stroke="black" d="M6837.72,-185.04C6822.48,-183.16 6806.73,-181.38 6791.89,-180 5736.56,-81.66 4454,-34.87 4072.22,-22.47"/>
<polygon fill="black" stroke="black" points="4072.11,-18.96 4062,-22.14 4071.88,-25.96 4072.11,-18.96"/>
<text text-anchor="middle" x="6832.72" y="-173.84" font-family="Times,serif" font-size="14.00">1</text>
</g>
<!-- rbo3.func_us_80192D64 -->
<g id="node29" class="node">
<title>rbo3.func_us_80192D64</title>
<g id="a_node29"><a xlink:href="rbo3.func_us_80192D64.svg" xlink:title="rbo3.func_us_80192D64">
<ellipse fill="red" stroke="black" cx="7185.89" cy="-198" rx="122.68" ry="18"/>
<text text-anchor="middle" x="7185.89" y="-194.3" font-family="Times,serif" font-size="14.00">rbo3.func_us_80192D64</text>
</a>
</g>
</g>
<!-- rbo3.func_us_80192D64&#45;&gt;rbo3.InitializeEntity -->
<g id="edge28" class="edge">
<title>rbo3.func_us_80192D64&#45;&gt;rbo3.InitializeEntity</title>
<path fill="none" stroke="black" d="M7100.43,-185.03C7084.96,-183.14 7068.96,-181.36 7053.89,-180 5891.72,-75.08 4477.34,-32.36 4072.81,-21.77"/>
<polygon fill="black" stroke="black" points="4072.67,-18.27 4062.58,-21.51 4072.49,-25.27 4072.67,-18.27"/>
<text text-anchor="middle" x="7095.43" y="-173.83" font-family="Times,serif" font-size="14.00">1</text>
</g>
<!-- rbo3.func_us_80193050 -->
<g id="node30" class="node">
<title>rbo3.func_us_80193050</title>
<g id="a_node30"><a xlink:href="rbo3.func_us_80193050.svg" xlink:title="rbo3.func_us_80193050">
<ellipse fill="green" stroke="black" cx="7447.89" cy="-198" rx="121.58" ry="18"/>
<text text-anchor="middle" x="7447.89" y="-194.3" font-family="Times,serif" font-size="14.00">rbo3.func_us_80193050</text>
</a>
</g>
</g>
<!-- rbo3.func_us_80193050&#45;&gt;rbo3.InitializeEntity -->
<g id="edge29" class="edge">
<title>rbo3.func_us_80193050&#45;&gt;rbo3.InitializeEntity</title>
<path fill="none" stroke="black" d="M7363.73,-184.97C7348.5,-183.08 7332.74,-181.32 7317.89,-180 6048.15,-66.73 4500.71,-29.55 4073.68,-21.07"/>
<polygon fill="black" stroke="black" points="4073.56,-17.56 4063.5,-20.87 4073.43,-24.56 4073.56,-17.56"/>
<text text-anchor="middle" x="7358.73" y="-173.77" font-family="Times,serif" font-size="14.00">1</text>
</g>
<!-- rbo3.func_us_8019F2F8 -->
<g id="node31" class="node">
<title>rbo3.func_us_8019F2F8</title>
<g id="a_node31"><a xlink:href="rbo3.func_us_8019F2F8.svg" xlink:title="rbo3.func_us_8019F2F8">
<ellipse fill="red" stroke="black" cx="7709.89" cy="-198" rx="122.38" ry="18"/>
<text text-anchor="middle" x="7709.89" y="-194.3" font-family="Times,serif" font-size="14.00">rbo3.func_us_8019F2F8</text>
</a>
</g>
</g>
<!-- rbo3.func_us_8019F2F8&#45;&gt;rbo3.InitializeEntity -->
<g id="edge30" class="edge">
<title>rbo3.func_us_8019F2F8&#45;&gt;rbo3.InitializeEntity</title>
<path fill="none" stroke="black" d="M7625.44,-184.97C7609.98,-183.08 7593.97,-181.31 7578.89,-180 6201.57,-60.21 4521.18,-27.43 4073.76,-20.56"/>
<polygon fill="black" stroke="black" points="4073.79,-17.06 4063.74,-20.41 4073.68,-24.06 4073.79,-17.06"/>
<text text-anchor="middle" x="7620.44" y="-173.77" font-family="Times,serif" font-size="14.00">1</text>
</g>
</g>
</svg>
