<?xml version="1.0" encoding="UTF-8" standalone="no"?>
<!DOCTYPE svg PUBLIC "-//W3C//DTD SVG 1.1//EN"
 "http://www.w3.org/Graphics/SVG/1.1/DTD/svg11.dtd">
<!-- Generated by graphviz version 2.43.0 (0)
 -->
<!-- Title: rbo5.func_us_801C096C Pages: 1 -->
<svg width="1173pt" height="404pt"
 viewBox="0.00 0.00 1173.04 404.00" xmlns="http://www.w3.org/2000/svg" xmlns:xlink="http://www.w3.org/1999/xlink">
<g id="graph0" class="graph" transform="scale(1 1) rotate(0) translate(4 400)">
<title>rbo5.func_us_801C096C</title>
<polygon fill="white" stroke="transparent" points="-4,4 -4,-400 1169.04,-400 1169.04,4 -4,4"/>
<!-- rbo5.func_us_801C096C -->
<g id="node1" class="node">
<title>rbo5.func_us_801C096C</title>
<ellipse fill="green" stroke="black" cx="677.44" cy="-198" rx="123.48" ry="18"/>
<text text-anchor="middle" x="677.44" y="-194.3" font-family="Times,serif" font-size="14.00">rbo5.func_us_801C096C</text>
</g>
<!-- dra.AllocPrimitives -->
<g id="node2" class="node">
<title>dra.AllocPrimitives</title>
<g id="a_node2"><a xlink:href="dra.AllocPrimitives.svg" xlink:title="dra.AllocPrimitives">
<ellipse fill="green" stroke="black" cx="99.44" cy="-18" rx="99.38" ry="18"/>
<text text-anchor="middle" x="99.44" y="-14.3" font-family="Times,serif" font-size="14.00">dra.AllocPrimitives</text>
</a>
</g>
</g>
<!-- rbo5.func_us_801C096C&#45;&gt;dra.AllocPrimitives -->
<g id="edge1" class="edge">
<title>rbo5.func_us_801C096C&#45;&gt;dra.AllocPrimitives</title>
<path fill="none" stroke="black" d="M627.16,-181.52C520.25,-148.59 270.88,-71.8 157.46,-36.87"/>
<polygon fill="black" stroke="black" points="158.15,-33.42 147.57,-33.82 156.09,-40.11 158.15,-33.42"/>
<text text-anchor="middle" x="142.57" y="-37.62" font-family="Times,serif" font-size="14.00">1</text>
</g>
<!-- dra.TimeAttackController -->
<g id="node3" class="node">
<title>dra.TimeAttackController</title>
<g id="a_node3"><a xlink:href="dra.TimeAttackController.svg" xlink:title="dra.TimeAttackController">
<ellipse fill="green" stroke="black" cx="346.44" cy="-18" rx="129.18" ry="18"/>
<text text-anchor="middle" x="346.44" y="-14.3" font-family="Times,serif" font-size="14.00">dra.TimeAttackController</text>
</a>
</g>
</g>
<!-- rbo5.func_us_801C096C&#45;&gt;dra.TimeAttackController -->
<g id="edge2" class="edge">
<title>rbo5.func_us_801C096C&#45;&gt;dra.TimeAttackController</title>
<path fill="none" stroke="black" d="M646.6,-180.41C586.36,-148.02 453.13,-76.37 386.3,-40.43"/>
<polygon fill="black" stroke="black" points="387.79,-37.26 377.33,-35.61 384.48,-43.43 387.79,-37.26"/>
<text text-anchor="middle" x="372.33" y="-39.41" font-family="Times,serif" font-size="14.00">1</text>
</g>
<!-- rand -->
<g id="node4" class="node">
<title>rand</title>
<g id="a_node4"><a xlink:href="rand.svg" xlink:title="rand">
<ellipse fill="lightblue" stroke="black" cx="526.44" cy="-18" rx="32.49" ry="18"/>
<text text-anchor="middle" x="526.44" y="-14.3" font-family="Times,serif" font-size="14.00">rand</text>
</a>
</g>
</g>
<!-- rbo5.func_us_801C096C&#45;&gt;rand -->
<g id="edge3" class="edge">
<title>rbo5.func_us_801C096C&#45;&gt;rand</title>
<path fill="none" stroke="black" d="M662.96,-179.93C635.72,-147.82 576.81,-78.37 546.05,-42.11"/>
<polygon fill="black" stroke="black" points="548.71,-39.84 539.57,-34.48 543.37,-44.37 548.71,-39.84"/>
<text text-anchor="middle" x="534.57" y="-38.28" font-family="Times,serif" font-size="14.00">2</text>
</g>
<!-- rbo5.DestroyEntity -->
<g id="node5" class="node">
<title>rbo5.DestroyEntity</title>
<g id="a_node5"><a xlink:href="rbo5.DestroyEntity.svg" xlink:title="rbo5.DestroyEntity">
<ellipse fill="green" stroke="black" cx="677.44" cy="-18" rx="100.98" ry="18"/>
<text text-anchor="middle" x="677.44" y="-14.3" font-family="Times,serif" font-size="14.00">rbo5.DestroyEntity</text>
</a>
</g>
</g>
<!-- rbo5.func_us_801C096C&#45;&gt;rbo5.DestroyEntity -->
<g id="edge4" class="edge">
<title>rbo5.func_us_801C096C&#45;&gt;rbo5.DestroyEntity</title>
<path fill="none" stroke="black" d="M677.44,-179.93C677.44,-148.97 677.44,-83.3 677.44,-46.13"/>
<polygon fill="black" stroke="black" points="680.94,-46.02 677.44,-36.02 673.94,-46.02 680.94,-46.02"/>
<text text-anchor="middle" x="672.44" y="-39.82" font-family="Times,serif" font-size="14.00">1</text>
</g>
<!-- rbo5.func_8010E570 -->
<g id="node6" class="node">
<title>rbo5.func_8010E570</title>
<g id="a_node6"><a xlink:href="rbo5.func_8010E570.svg" xlink:title="rbo5.func_8010E570">
<ellipse fill="green" stroke="black" cx="903.44" cy="-18" rx="107.48" ry="18"/>
<text text-anchor="middle" x="903.44" y="-14.3" font-family="Times,serif" font-size="14.00">rbo5.func_8010E570</text>
</a>
</g>
</g>
<!-- rbo5.func_us_801C096C&#45;&gt;rbo5.func_8010E570 -->
<g id="edge5" class="edge">
<title>rbo5.func_us_801C096C&#45;&gt;rbo5.func_8010E570</title>
<path fill="none" stroke="black" d="M698.7,-180.25C739.25,-148.32 827.71,-78.65 873.95,-42.23"/>
<polygon fill="black" stroke="black" points="876.38,-44.77 882.07,-35.83 872.05,-39.27 876.38,-44.77"/>
<text text-anchor="middle" x="877.07" y="-39.63" font-family="Times,serif" font-size="14.00">1</text>
</g>
<!-- rcos -->
<g id="node7" class="node">
<title>rcos</title>
<g id="a_node7"><a xlink:href="rcos.svg" xlink:title="rcos">
<ellipse fill="lightblue" stroke="black" cx="1059.44" cy="-18" rx="30.59" ry="18"/>
<text text-anchor="middle" x="1059.44" y="-14.3" font-family="Times,serif" font-size="14.00">rcos</text>
</a>
</g>
</g>
<!-- rbo5.func_us_801C096C&#45;&gt;rcos -->
<g id="edge6" class="edge">
<title>rbo5.func_us_801C096C&#45;&gt;rcos</title>
<path fill="none" stroke="black" d="M712.35,-180.73C785.71,-146.55 954.96,-67.69 1026.53,-34.34"/>
<polygon fill="black" stroke="black" points="1028.37,-37.34 1035.96,-29.94 1025.42,-30.99 1028.37,-37.34"/>
<text text-anchor="middle" x="1030.96" y="-33.74" font-family="Times,serif" font-size="14.00">1</text>
</g>
<!-- rsin -->
<g id="node8" class="node">
<title>rsin</title>
<g id="a_node8"><a xlink:href="rsin.svg" xlink:title="rsin">
<ellipse fill="lightblue" stroke="black" cx="1136.44" cy="-18" rx="28.7" ry="18"/>
<text text-anchor="middle" x="1136.44" y="-14.3" font-family="Times,serif" font-size="14.00">rsin</text>
</a>
</g>
</g>
<!-- rbo5.func_us_801C096C&#45;&gt;rsin -->
<g id="edge7" class="edge">
<title>rbo5.func_us_801C096C&#45;&gt;rsin</title>
<path fill="none" stroke="black" d="M721.87,-181.15C799.21,-153.31 963.34,-93.16 1099.44,-36 1101.25,-35.24 1103.1,-34.45 1104.96,-33.63"/>
<polygon fill="black" stroke="black" points="1106.54,-36.76 1114.24,-29.49 1103.68,-30.37 1106.54,-36.76"/>
<text text-anchor="middle" x="1109.24" y="-33.29" font-family="Times,serif" font-size="14.00">1</text>
</g>
<!-- rbo5.EntityUnkId16 -->
<g id="node9" class="node">
<title>rbo5.EntityUnkId16</title>
<g id="a_node9"><a xlink:href="rbo5.EntityUnkId16.svg" xlink:title="rbo5.EntityUnkId16">
<ellipse fill="green" stroke="black" cx="677.44" cy="-378" rx="103.98" ry="18"/>
<text text-anchor="middle" x="677.44" y="-374.3" font-family="Times,serif" font-size="14.00">rbo5.EntityUnkId16</text>
</a>
</g>
</g>
<!-- rbo5.EntityUnkId16&#45;&gt;rbo5.func_us_801C096C -->
<g id="edge8" class="edge">
<title>rbo5.EntityUnkId16&#45;&gt;rbo5.func_us_801C096C</title>
<path fill="none" stroke="black" d="M677.44,-359.93C677.44,-328.97 677.44,-263.3 677.44,-226.13"/>
<polygon fill="black" stroke="black" points="680.94,-226.02 677.44,-216.02 673.94,-226.02 680.94,-226.02"/>
<text text-anchor="middle" x="672.44" y="-348.73" font-family="Times,serif" font-size="14.00">1</text>
</g>
</g>
</svg>
