<?xml version="1.0" encoding="UTF-8" standalone="no"?>
<!DOCTYPE svg PUBLIC "-//W3C//DTD SVG 1.1//EN"
 "http://www.w3.org/Graphics/SVG/1.1/DTD/svg11.dtd">
<!-- Generated by graphviz version 2.43.0 (0)
 -->
<!-- Title: rbo5.EntityDopplegangerBlinkWhite Pages: 1 -->
<svg width="1564pt" height="404pt"
 viewBox="0.00 0.00 1564.04 404.00" xmlns="http://www.w3.org/2000/svg" xmlns:xlink="http://www.w3.org/1999/xlink">
<g id="graph0" class="graph" transform="scale(1 1) rotate(0) translate(4 400)">
<title>rbo5.EntityDopplegangerBlinkWhite</title>
<polygon fill="white" stroke="transparent" points="-4,4 -4,-400 1560.04,-400 1560.04,4 -4,4"/>
<!-- rbo5.EntityDopplegangerBlinkWhite -->
<g id="node1" class="node">
<title>rbo5.EntityDopplegangerBlinkWhite</title>
<ellipse fill="green" stroke="black" cx="891.44" cy="-198" rx="180.87" ry="18"/>
<text text-anchor="middle" x="891.44" y="-194.3" font-family="Times,serif" font-size="14.00">rbo5.EntityDopplegangerBlinkWhite</text>
</g>
<!-- dra.AllocPrimitives -->
<g id="node2" class="node">
<title>dra.AllocPrimitives</title>
<g id="a_node2"><a xlink:href="dra.AllocPrimitives.svg" xlink:title="dra.AllocPrimitives">
<ellipse fill="green" stroke="black" cx="99.44" cy="-18" rx="99.38" ry="18"/>
<text text-anchor="middle" x="99.44" y="-14.3" font-family="Times,serif" font-size="14.00">dra.AllocPrimitives</text>
</a>
</g>
</g>
<!-- rbo5.EntityDopplegangerBlinkWhite&#45;&gt;dra.AllocPrimitives -->
<g id="edge1" class="edge">
<title>rbo5.EntityDopplegangerBlinkWhite&#45;&gt;dra.AllocPrimitives</title>
<path fill="none" stroke="black" d="M821.85,-181.36C671.86,-147.65 319.54,-68.47 169.3,-34.7"/>
<polygon fill="black" stroke="black" points="169.8,-31.23 159.27,-32.45 168.26,-38.05 169.8,-31.23"/>
<text text-anchor="middle" x="154.27" y="-36.25" font-family="Times,serif" font-size="14.00">1</text>
</g>
<!-- dra.func_800EB758 -->
<g id="node3" class="node">
<title>dra.func_800EB758</title>
<g id="a_node3"><a xlink:href="dra.func_800EB758.svg" xlink:title="dra.func_800EB758">
<ellipse fill="green" stroke="black" cx="319.44" cy="-18" rx="102.88" ry="18"/>
<text text-anchor="middle" x="319.44" y="-14.3" font-family="Times,serif" font-size="14.00">dra.func_800EB758</text>
</a>
</g>
</g>
<!-- rbo5.EntityDopplegangerBlinkWhite&#45;&gt;dra.func_800EB758 -->
<g id="edge2" class="edge">
<title>rbo5.EntityDopplegangerBlinkWhite&#45;&gt;dra.func_800EB758</title>
<path fill="none" stroke="black" d="M839.16,-180.73C732.21,-147.45 489.12,-71.8 377.47,-37.06"/>
<polygon fill="black" stroke="black" points="378.32,-33.66 367.73,-34.03 376.24,-40.34 378.32,-33.66"/>
<text text-anchor="middle" x="362.73" y="-37.83" font-family="Times,serif" font-size="14.00">1</text>
</g>
<!-- rbo5.DestroyEntity -->
<g id="node4" class="node">
<title>rbo5.DestroyEntity</title>
<g id="a_node4"><a xlink:href="rbo5.DestroyEntity.svg" xlink:title="rbo5.DestroyEntity">
<ellipse fill="green" stroke="black" cx="540.44" cy="-18" rx="100.98" ry="18"/>
<text text-anchor="middle" x="540.44" y="-14.3" font-family="Times,serif" font-size="14.00">rbo5.DestroyEntity</text>
</a>
</g>
</g>
<!-- rbo5.EntityDopplegangerBlinkWhite&#45;&gt;rbo5.DestroyEntity -->
<g id="edge3" class="edge">
<title>rbo5.EntityDopplegangerBlinkWhite&#45;&gt;rbo5.DestroyEntity</title>
<path fill="none" stroke="black" d="M858.42,-180.25C793.99,-147.58 651.68,-75.41 581.38,-39.76"/>
<polygon fill="black" stroke="black" points="582.86,-36.59 572.36,-35.19 579.69,-42.83 582.86,-36.59"/>
<text text-anchor="middle" x="567.36" y="-38.99" font-family="Times,serif" font-size="14.00">2</text>
</g>
<!-- rbo5.func_8011BD48 -->
<g id="node5" class="node">
<title>rbo5.func_8011BD48</title>
<g id="a_node5"><a xlink:href="rbo5.func_8011BD48.svg" xlink:title="rbo5.func_8011BD48">
<ellipse fill="green" stroke="black" cx="767.44" cy="-18" rx="108.58" ry="18"/>
<text text-anchor="middle" x="767.44" y="-14.3" font-family="Times,serif" font-size="14.00">rbo5.func_8011BD48</text>
</a>
</g>
</g>
<!-- rbo5.EntityDopplegangerBlinkWhite&#45;&gt;rbo5.func_8011BD48 -->
<g id="edge4" class="edge">
<title>rbo5.EntityDopplegangerBlinkWhite&#45;&gt;rbo5.func_8011BD48</title>
<path fill="none" stroke="black" d="M879.55,-179.93C857.61,-148.43 810.66,-81.03 785.02,-44.24"/>
<polygon fill="black" stroke="black" points="787.88,-42.22 779.29,-36.02 782.14,-46.22 787.88,-42.22"/>
<text text-anchor="middle" x="774.29" y="-39.82" font-family="Times,serif" font-size="14.00">1</text>
</g>
<!-- rbo5.func_us_801C4954 -->
<g id="node6" class="node">
<title>rbo5.func_us_801C4954</title>
<g id="a_node6"><a xlink:href="rbo5.func_us_801C4954.svg" xlink:title="rbo5.func_us_801C4954">
<ellipse fill="green" stroke="black" cx="1016.44" cy="-18" rx="122.38" ry="18"/>
<text text-anchor="middle" x="1016.44" y="-14.3" font-family="Times,serif" font-size="14.00">rbo5.func_us_801C4954</text>
</a>
</g>
</g>
<!-- rbo5.EntityDopplegangerBlinkWhite&#45;&gt;rbo5.func_us_801C4954 -->
<g id="edge5" class="edge">
<title>rbo5.EntityDopplegangerBlinkWhite&#45;&gt;rbo5.func_us_801C4954</title>
<path fill="none" stroke="black" d="M903.43,-179.93C925.55,-148.43 972.88,-81.03 998.72,-44.24"/>
<polygon fill="black" stroke="black" points="1001.61,-46.21 1004.49,-36.02 995.88,-42.19 1001.61,-46.21"/>
<text text-anchor="middle" x="999.49" y="-39.82" font-family="Times,serif" font-size="14.00">1</text>
</g>
<!-- rbo5.func_us_801C4A30 -->
<g id="node7" class="node">
<title>rbo5.func_us_801C4A30</title>
<g id="a_node7"><a xlink:href="rbo5.func_us_801C4A30.svg" xlink:title="rbo5.func_us_801C4A30">
<ellipse fill="green" stroke="black" cx="1279.44" cy="-18" rx="122.68" ry="18"/>
<text text-anchor="middle" x="1279.44" y="-14.3" font-family="Times,serif" font-size="14.00">rbo5.func_us_801C4A30</text>
</a>
</g>
</g>
<!-- rbo5.EntityDopplegangerBlinkWhite&#45;&gt;rbo5.func_us_801C4A30 -->
<g id="edge6" class="edge">
<title>rbo5.EntityDopplegangerBlinkWhite&#45;&gt;rbo5.func_us_801C4A30</title>
<path fill="none" stroke="black" d="M927.94,-180.25C999.22,-147.55 1156.72,-75.3 1234.37,-39.68"/>
<polygon fill="black" stroke="black" points="1236.25,-42.66 1243.88,-35.31 1233.33,-36.3 1236.25,-42.66"/>
<text text-anchor="middle" x="1238.88" y="-39.11" font-family="Times,serif" font-size="14.00">1</text>
</g>
<!-- rcos -->
<g id="node8" class="node">
<title>rcos</title>
<g id="a_node8"><a xlink:href="rcos.svg" xlink:title="rcos">
<ellipse fill="lightblue" stroke="black" cx="1450.44" cy="-18" rx="30.59" ry="18"/>
<text text-anchor="middle" x="1450.44" y="-14.3" font-family="Times,serif" font-size="14.00">rcos</text>
</a>
</g>
</g>
<!-- rbo5.EntityDopplegangerBlinkWhite&#45;&gt;rcos -->
<g id="edge7" class="edge">
<title>rbo5.EntityDopplegangerBlinkWhite&#45;&gt;rcos</title>
<path fill="none" stroke="black" d="M950.64,-180.98C1047.9,-154.16 1247.1,-97.04 1411.44,-36 1413.52,-35.23 1415.65,-34.4 1417.79,-33.55"/>
<polygon fill="black" stroke="black" points="1419.21,-36.75 1427.1,-29.67 1416.53,-30.28 1419.21,-36.75"/>
<text text-anchor="middle" x="1422.1" y="-33.47" font-family="Times,serif" font-size="14.00">2</text>
</g>
<!-- rsin -->
<g id="node9" class="node">
<title>rsin</title>
<g id="a_node9"><a xlink:href="rsin.svg" xlink:title="rsin">
<ellipse fill="lightblue" stroke="black" cx="1527.44" cy="-18" rx="28.7" ry="18"/>
<text text-anchor="middle" x="1527.44" y="-14.3" font-family="Times,serif" font-size="14.00">rsin</text>
</a>
</g>
</g>
<!-- rbo5.EntityDopplegangerBlinkWhite&#45;&gt;rsin -->
<g id="edge8" class="edge">
<title>rbo5.EntityDopplegangerBlinkWhite&#45;&gt;rsin</title>
<path fill="none" stroke="black" d="M964.57,-181.52C1078.65,-156.45 1305.1,-102.95 1490.44,-36 1492.29,-35.33 1494.17,-34.61 1496.05,-33.85"/>
<polygon fill="black" stroke="black" points="1497.57,-37.01 1505.39,-29.87 1494.82,-30.58 1497.57,-37.01"/>
<text text-anchor="middle" x="1495.89" y="-33.67" font-family="Times,serif" font-size="14.00">15</text>
</g>
<!-- rbo5.EntityMist -->
<g id="node10" class="node">
<title>rbo5.EntityMist</title>
<g id="a_node10"><a xlink:href="rbo5.EntityMist.svg" xlink:title="rbo5.EntityMist">
<ellipse fill="green" stroke="black" cx="891.44" cy="-378" rx="85.29" ry="18"/>
<text text-anchor="middle" x="891.44" y="-374.3" font-family="Times,serif" font-size="14.00">rbo5.EntityMist</text>
</a>
</g>
</g>
<!-- rbo5.EntityMist&#45;&gt;rbo5.EntityDopplegangerBlinkWhite -->
<g id="edge9" class="edge">
<title>rbo5.EntityMist&#45;&gt;rbo5.EntityDopplegangerBlinkWhite</title>
<path fill="none" stroke="black" d="M891.44,-359.93C891.44,-328.97 891.44,-263.3 891.44,-226.13"/>
<polygon fill="black" stroke="black" points="894.94,-226.02 891.44,-216.02 887.94,-226.02 894.94,-226.02"/>
<text text-anchor="middle" x="886.44" y="-348.73" font-family="Times,serif" font-size="14.00">2</text>
</g>
</g>
</svg>
