<?xml version="1.0" encoding="UTF-8" standalone="no"?>
<!DOCTYPE svg PUBLIC "-//W3C//DTD SVG 1.1//EN"
 "http://www.w3.org/Graphics/SVG/1.1/DTD/svg11.dtd">
<!-- Generated by graphviz version 2.43.0 (0)
 -->
<!-- Title: rbo5.FindFirstEntityToTheRight Pages: 1 -->
<svg width="566pt" height="224pt"
 viewBox="0.00 0.00 566.38 224.00" xmlns="http://www.w3.org/2000/svg" xmlns:xlink="http://www.w3.org/1999/xlink">
<g id="graph0" class="graph" transform="scale(1 1) rotate(0) translate(4 220)">
<title>rbo5.FindFirstEntityToTheRight</title>
<polygon fill="white" stroke="transparent" points="-4,4 -4,-220 562.38,-220 562.38,4 -4,4"/>
<!-- rbo5.FindFirstEntityToTheRight -->
<g id="node1" class="node">
<title>rbo5.FindFirstEntityToTheRight</title>
<ellipse fill="green" stroke="black" cx="299.99" cy="-18" rx="160.57" ry="18"/>
<text text-anchor="middle" x="299.99" y="-14.3" font-family="Times,serif" font-size="14.00">rbo5.FindFirstEntityToTheRight</text>
</g>
<!-- rbo5.CreateEntitiesToTheRight -->
<g id="node2" class="node">
<title>rbo5.CreateEntitiesToTheRight</title>
<g id="a_node2"><a xlink:href="rbo5.CreateEntitiesToTheRight.svg" xlink:title="rbo5.CreateEntitiesToTheRight">
<ellipse fill="green" stroke="black" cx="155.99" cy="-198" rx="155.97" ry="18"/>
<text text-anchor="middle" x="155.99" y="-194.3" font-family="Times,serif" font-size="14.00">rbo5.CreateEntitiesToTheRight</text>
</a>
</g>
</g>
<!-- rbo5.CreateEntitiesToTheRight&#45;&gt;rbo5.FindFirstEntityToTheRight -->
<g id="edge1" class="edge">
<title>rbo5.CreateEntitiesToTheRight&#45;&gt;rbo5.FindFirstEntityToTheRight</title>
<path fill="none" stroke="black" d="M169.79,-179.93C195.27,-148.43 249.8,-81.03 279.57,-44.24"/>
<polygon fill="black" stroke="black" points="282.65,-45.99 286.22,-36.02 277.21,-41.59 282.65,-45.99"/>
<text text-anchor="middle" x="164.79" y="-168.73" font-family="Times,serif" font-size="14.00">1</text>
</g>
<!-- rbo5.InitRoomEntities -->
<g id="node3" class="node">
<title>rbo5.InitRoomEntities</title>
<g id="a_node3"><a xlink:href="rbo5.InitRoomEntities.svg" xlink:title="rbo5.InitRoomEntities">
<ellipse fill="green" stroke="black" cx="443.99" cy="-198" rx="114.28" ry="18"/>
<text text-anchor="middle" x="443.99" y="-194.3" font-family="Times,serif" font-size="14.00">rbo5.InitRoomEntities</text>
</a>
</g>
</g>
<!-- rbo5.InitRoomEntities&#45;&gt;rbo5.FindFirstEntityToTheRight -->
<g id="edge2" class="edge">
<title>rbo5.InitRoomEntities&#45;&gt;rbo5.FindFirstEntityToTheRight</title>
<path fill="none" stroke="black" d="M430.18,-179.93C404.7,-148.43 350.17,-81.03 320.41,-44.24"/>
<polygon fill="black" stroke="black" points="322.76,-41.59 313.75,-36.02 317.32,-45.99 322.76,-41.59"/>
<text text-anchor="middle" x="425.18" y="-168.73" font-family="Times,serif" font-size="14.00">1</text>
</g>
</g>
</svg>
