<?xml version="1.0" encoding="UTF-8" standalone="no"?>
<!DOCTYPE svg PUBLIC "-//W3C//DTD SVG 1.1//EN"
 "http://www.w3.org/Graphics/SVG/1.1/DTD/svg11.dtd">
<!-- Generated by graphviz version 2.43.0 (0)
 -->
<!-- Title: rbo5.EntityDopplegangerOutline Pages: 1 -->
<svg width="912pt" height="224pt"
 viewBox="0.00 0.00 911.63 224.00" xmlns="http://www.w3.org/2000/svg" xmlns:xlink="http://www.w3.org/1999/xlink">
<g id="graph0" class="graph" transform="scale(1 1) rotate(0) translate(4 220)">
<title>rbo5.EntityDopplegangerOutline</title>
<polygon fill="white" stroke="transparent" points="-4,4 -4,-220 907.63,-220 907.63,4 -4,4"/>
<!-- rbo5.EntityDopplegangerOutline -->
<g id="node1" class="node">
<title>rbo5.EntityDopplegangerOutline</title>
<ellipse fill="green" stroke="black" cx="429.44" cy="-198" rx="163.27" ry="18"/>
<text text-anchor="middle" x="429.44" y="-194.3" font-family="Times,serif" font-size="14.00">rbo5.EntityDopplegangerOutline</text>
</g>
<!-- dra.AllocPrimitives -->
<g id="node2" class="node">
<title>dra.AllocPrimitives</title>
<g id="a_node2"><a xlink:href="dra.AllocPrimitives.svg" xlink:title="dra.AllocPrimitives">
<ellipse fill="green" stroke="black" cx="99.44" cy="-18" rx="99.38" ry="18"/>
<text text-anchor="middle" x="99.44" y="-14.3" font-family="Times,serif" font-size="14.00">dra.AllocPrimitives</text>
</a>
</g>
</g>
<!-- rbo5.EntityDopplegangerOutline&#45;&gt;dra.AllocPrimitives -->
<g id="edge1" class="edge">
<title>rbo5.EntityDopplegangerOutline&#45;&gt;dra.AllocPrimitives</title>
<path fill="none" stroke="black" d="M398.4,-180.25C338.02,-147.69 204.91,-75.89 138.59,-40.11"/>
<polygon fill="black" stroke="black" points="140.15,-36.98 129.69,-35.31 136.83,-43.14 140.15,-36.98"/>
<text text-anchor="middle" x="124.69" y="-39.11" font-family="Times,serif" font-size="14.00">1</text>
</g>
<!-- dra.func_800EB758 -->
<g id="node3" class="node">
<title>dra.func_800EB758</title>
<g id="a_node3"><a xlink:href="dra.func_800EB758.svg" xlink:title="dra.func_800EB758">
<ellipse fill="green" stroke="black" cx="319.44" cy="-18" rx="102.88" ry="18"/>
<text text-anchor="middle" x="319.44" y="-14.3" font-family="Times,serif" font-size="14.00">dra.func_800EB758</text>
</a>
</g>
</g>
<!-- rbo5.EntityDopplegangerOutline&#45;&gt;dra.func_800EB758 -->
<g id="edge2" class="edge">
<title>rbo5.EntityDopplegangerOutline&#45;&gt;dra.func_800EB758</title>
<path fill="none" stroke="black" d="M418.89,-179.93C399.51,-148.57 358.13,-81.6 335.33,-44.71"/>
<polygon fill="black" stroke="black" points="338.19,-42.68 329.96,-36.02 332.24,-46.36 338.19,-42.68"/>
<text text-anchor="middle" x="324.96" y="-39.82" font-family="Times,serif" font-size="14.00">1</text>
</g>
<!-- rbo5.DestroyEntity -->
<g id="node4" class="node">
<title>rbo5.DestroyEntity</title>
<g id="a_node4"><a xlink:href="rbo5.DestroyEntity.svg" xlink:title="rbo5.DestroyEntity">
<ellipse fill="green" stroke="black" cx="540.44" cy="-18" rx="100.98" ry="18"/>
<text text-anchor="middle" x="540.44" y="-14.3" font-family="Times,serif" font-size="14.00">rbo5.DestroyEntity</text>
</a>
</g>
</g>
<!-- rbo5.EntityDopplegangerOutline&#45;&gt;rbo5.DestroyEntity -->
<g id="edge3" class="edge">
<title>rbo5.EntityDopplegangerOutline&#45;&gt;rbo5.DestroyEntity</title>
<path fill="none" stroke="black" d="M440.08,-179.93C459.64,-148.57 501.4,-81.6 524.41,-44.71"/>
<polygon fill="black" stroke="black" points="527.51,-46.35 529.83,-36.02 521.57,-42.65 527.51,-46.35"/>
<text text-anchor="middle" x="524.83" y="-39.82" font-family="Times,serif" font-size="14.00">1</text>
</g>
<!-- rbo5.func_us_801C4954 -->
<g id="node5" class="node">
<title>rbo5.func_us_801C4954</title>
<g id="a_node5"><a xlink:href="rbo5.func_us_801C4954.svg" xlink:title="rbo5.func_us_801C4954">
<ellipse fill="green" stroke="black" cx="781.44" cy="-18" rx="122.38" ry="18"/>
<text text-anchor="middle" x="781.44" y="-14.3" font-family="Times,serif" font-size="14.00">rbo5.func_us_801C4954</text>
</a>
</g>
</g>
<!-- rbo5.EntityDopplegangerOutline&#45;&gt;rbo5.func_us_801C4954 -->
<g id="edge4" class="edge">
<title>rbo5.EntityDopplegangerOutline&#45;&gt;rbo5.func_us_801C4954</title>
<path fill="none" stroke="black" d="M462.56,-180.25C527.01,-147.66 669.17,-75.78 739.85,-40.03"/>
<polygon fill="black" stroke="black" points="741.58,-43.08 748.93,-35.44 738.42,-36.83 741.58,-43.08"/>
<text text-anchor="middle" x="743.93" y="-39.24" font-family="Times,serif" font-size="14.00">1</text>
</g>
</g>
</svg>
