<?xml version="1.0" encoding="UTF-8" standalone="no"?>
<!DOCTYPE svg PUBLIC "-//W3C//DTD SVG 1.1//EN"
 "http://www.w3.org/Graphics/SVG/1.1/DTD/svg11.dtd">
<!-- Generated by graphviz version 2.43.0 (0)
 -->
<!-- Title: rbo5.func_8010E570 Pages: 1 -->
<svg width="2202pt" height="404pt"
 viewBox="0.00 0.00 2201.77 404.00" xmlns="http://www.w3.org/2000/svg" xmlns:xlink="http://www.w3.org/1999/xlink">
<g id="graph0" class="graph" transform="scale(1 1) rotate(0) translate(4 400)">
<title>rbo5.func_8010E570</title>
<polygon fill="white" stroke="transparent" points="-4,4 -4,-400 2197.77,-400 2197.77,4 -4,4"/>
<!-- rbo5.func_8010E570 -->
<g id="node1" class="node">
<title>rbo5.func_8010E570</title>
<ellipse fill="green" stroke="black" cx="1183.58" cy="-198" rx="107.48" ry="18"/>
<text text-anchor="middle" x="1183.58" y="-194.3" font-family="Times,serif" font-size="14.00">rbo5.func_8010E570</text>
</g>
<!-- rbo5.SetDopplegangerAnim -->
<g id="node2" class="node">
<title>rbo5.SetDopplegangerAnim</title>
<g id="a_node2"><a xlink:href="rbo5.SetDopplegangerAnim.svg" xlink:title="rbo5.SetDopplegangerAnim">
<ellipse fill="green" stroke="black" cx="1035.58" cy="-18" rx="139.98" ry="18"/>
<text text-anchor="middle" x="1035.58" y="-14.3" font-family="Times,serif" font-size="14.00">rbo5.SetDopplegangerAnim</text>
</a>
</g>
</g>
<!-- rbo5.func_8010E570&#45;&gt;rbo5.SetDopplegangerAnim -->
<g id="edge1" class="edge">
<title>rbo5.func_8010E570&#45;&gt;rbo5.SetDopplegangerAnim</title>
<path fill="none" stroke="black" d="M1169.39,-179.93C1143.09,-148.3 1086.69,-80.46 1056.19,-43.78"/>
<polygon fill="black" stroke="black" points="1058.82,-41.47 1049.73,-36.02 1053.43,-45.94 1058.82,-41.47"/>
<text text-anchor="middle" x="1044.73" y="-39.82" font-family="Times,serif" font-size="14.00">1</text>
</g>
<!-- rbo5.SetDopplegangerStep -->
<g id="node3" class="node">
<title>rbo5.SetDopplegangerStep</title>
<g id="a_node3"><a xlink:href="rbo5.SetDopplegangerStep.svg" xlink:title="rbo5.SetDopplegangerStep">
<ellipse fill="green" stroke="black" cx="1331.58" cy="-18" rx="137.58" ry="18"/>
<text text-anchor="middle" x="1331.58" y="-14.3" font-family="Times,serif" font-size="14.00">rbo5.SetDopplegangerStep</text>
</a>
</g>
</g>
<!-- rbo5.func_8010E570&#45;&gt;rbo5.SetDopplegangerStep -->
<g id="edge2" class="edge">
<title>rbo5.func_8010E570&#45;&gt;rbo5.SetDopplegangerStep</title>
<path fill="none" stroke="black" d="M1197.78,-179.93C1224.08,-148.3 1280.48,-80.46 1310.98,-43.78"/>
<polygon fill="black" stroke="black" points="1313.73,-45.94 1317.44,-36.02 1308.35,-41.47 1313.73,-45.94"/>
<text text-anchor="middle" x="1312.44" y="-39.82" font-family="Times,serif" font-size="14.00">1</text>
</g>
<!-- rbo5.DopplegangerHandleDamage -->
<g id="node4" class="node">
<title>rbo5.DopplegangerHandleDamage</title>
<g id="a_node4"><a xlink:href="rbo5.DopplegangerHandleDamage.svg" xlink:title="rbo5.DopplegangerHandleDamage">
<ellipse fill="green" stroke="black" cx="171.58" cy="-378" rx="171.67" ry="18"/>
<text text-anchor="middle" x="171.58" y="-374.3" font-family="Times,serif" font-size="14.00">rbo5.DopplegangerHandleDamage</text>
</a>
</g>
</g>
<!-- rbo5.DopplegangerHandleDamage&#45;&gt;rbo5.func_8010E570 -->
<g id="edge3" class="edge">
<title>rbo5.DopplegangerHandleDamage&#45;&gt;rbo5.func_8010E570</title>
<path fill="none" stroke="black" d="M255.26,-362.28C446.59,-328.63 914.01,-246.41 1102.66,-213.23"/>
<polygon fill="black" stroke="black" points="1103.27,-216.68 1112.52,-211.5 1102.06,-209.79 1103.27,-216.68"/>
<text text-anchor="middle" x="250.26" y="-351.08" font-family="Times,serif" font-size="14.00">1</text>
</g>
<!-- rbo5.DopplegangerStepCrouch -->
<g id="node5" class="node">
<title>rbo5.DopplegangerStepCrouch</title>
<g id="a_node5"><a xlink:href="rbo5.DopplegangerStepCrouch.svg" xlink:title="rbo5.DopplegangerStepCrouch">
<ellipse fill="green" stroke="black" cx="516.58" cy="-378" rx="155.17" ry="18"/>
<text text-anchor="middle" x="516.58" y="-374.3" font-family="Times,serif" font-size="14.00">rbo5.DopplegangerStepCrouch</text>
</a>
</g>
</g>
<!-- rbo5.DopplegangerStepCrouch&#45;&gt;rbo5.func_8010E570 -->
<g id="edge4" class="edge">
<title>rbo5.DopplegangerStepCrouch&#45;&gt;rbo5.func_8010E570</title>
<path fill="none" stroke="black" d="M575.48,-361.28C700.22,-328 990.13,-250.63 1119.39,-216.13"/>
<polygon fill="black" stroke="black" points="1120.4,-219.48 1129.16,-213.52 1118.6,-212.72 1120.4,-219.48"/>
<text text-anchor="middle" x="570.48" y="-350.08" font-family="Times,serif" font-size="14.00">1</text>
</g>
<!-- rbo5.DopplegangerStepStand -->
<g id="node6" class="node">
<title>rbo5.DopplegangerStepStand</title>
<g id="a_node6"><a xlink:href="rbo5.DopplegangerStepStand.svg" xlink:title="rbo5.DopplegangerStepStand">
<ellipse fill="green" stroke="black" cx="839.58" cy="-378" rx="149.47" ry="18"/>
<text text-anchor="middle" x="839.58" y="-374.3" font-family="Times,serif" font-size="14.00">rbo5.DopplegangerStepStand</text>
</a>
</g>
</g>
<!-- rbo5.DopplegangerStepStand&#45;&gt;rbo5.func_8010E570 -->
<g id="edge5" class="edge">
<title>rbo5.DopplegangerStepStand&#45;&gt;rbo5.func_8010E570</title>
<path fill="none" stroke="black" d="M871.64,-360.41C934.4,-327.94 1073.41,-256.01 1142.69,-220.16"/>
<polygon fill="black" stroke="black" points="1144.71,-223.05 1151.99,-215.35 1141.5,-216.84 1144.71,-223.05"/>
<text text-anchor="middle" x="866.64" y="-349.21" font-family="Times,serif" font-size="14.00">1</text>
</g>
<!-- rbo5.DopplegangerStepSwordWarp -->
<g id="node7" class="node">
<title>rbo5.DopplegangerStepSwordWarp</title>
<g id="a_node7"><a xlink:href="rbo5.DopplegangerStepSwordWarp.svg" xlink:title="rbo5.DopplegangerStepSwordWarp">
<ellipse fill="green" stroke="black" cx="1183.58" cy="-378" rx="176.27" ry="18"/>
<text text-anchor="middle" x="1183.58" y="-374.3" font-family="Times,serif" font-size="14.00">rbo5.DopplegangerStepSwordWarp</text>
</a>
</g>
</g>
<!-- rbo5.DopplegangerStepSwordWarp&#45;&gt;rbo5.func_8010E570 -->
<g id="edge6" class="edge">
<title>rbo5.DopplegangerStepSwordWarp&#45;&gt;rbo5.func_8010E570</title>
<path fill="none" stroke="black" d="M1183.58,-359.93C1183.58,-328.97 1183.58,-263.3 1183.58,-226.13"/>
<polygon fill="black" stroke="black" points="1187.08,-226.02 1183.58,-216.02 1180.08,-226.02 1187.08,-226.02"/>
<text text-anchor="middle" x="1178.58" y="-348.73" font-family="Times,serif" font-size="14.00">1</text>
</g>
<!-- rbo5.DopplegangerStepWalk -->
<g id="node8" class="node">
<title>rbo5.DopplegangerStepWalk</title>
<g id="a_node8"><a xlink:href="rbo5.DopplegangerStepWalk.svg" xlink:title="rbo5.DopplegangerStepWalk">
<ellipse fill="green" stroke="black" cx="1521.58" cy="-378" rx="144.07" ry="18"/>
<text text-anchor="middle" x="1521.58" y="-374.3" font-family="Times,serif" font-size="14.00">rbo5.DopplegangerStepWalk</text>
</a>
</g>
</g>
<!-- rbo5.DopplegangerStepWalk&#45;&gt;rbo5.func_8010E570 -->
<g id="edge7" class="edge">
<title>rbo5.DopplegangerStepWalk&#45;&gt;rbo5.func_8010E570</title>
<path fill="none" stroke="black" d="M1490.09,-360.41C1428.42,-327.94 1291.84,-256.01 1223.77,-220.16"/>
<polygon fill="black" stroke="black" points="1225.11,-216.91 1214.63,-215.35 1221.85,-223.11 1225.11,-216.91"/>
<text text-anchor="middle" x="1485.09" y="-349.21" font-family="Times,serif" font-size="14.00">1</text>
</g>
<!-- rbo5.func_us_801C096C -->
<g id="node9" class="node">
<title>rbo5.func_us_801C096C</title>
<g id="a_node9"><a xlink:href="rbo5.func_us_801C096C.svg" xlink:title="rbo5.func_us_801C096C">
<ellipse fill="green" stroke="black" cx="1807.58" cy="-378" rx="123.48" ry="18"/>
<text text-anchor="middle" x="1807.58" y="-374.3" font-family="Times,serif" font-size="14.00">rbo5.func_us_801C096C</text>
</a>
</g>
</g>
<!-- rbo5.func_us_801C096C&#45;&gt;rbo5.func_8010E570 -->
<g id="edge8" class="edge">
<title>rbo5.func_us_801C096C&#45;&gt;rbo5.func_8010E570</title>
<path fill="none" stroke="black" d="M1754.11,-361.75C1638.98,-328.91 1368.17,-251.66 1245.69,-216.71"/>
<polygon fill="black" stroke="black" points="1246.29,-213.25 1235.71,-213.87 1244.37,-219.98 1246.29,-213.25"/>
<text text-anchor="middle" x="1749.11" y="-350.55" font-family="Times,serif" font-size="14.00">1</text>
</g>
<!-- rbo5.func_us_801C5650 -->
<g id="node10" class="node">
<title>rbo5.func_us_801C5650</title>
<g id="a_node10"><a xlink:href="rbo5.func_us_801C5650.svg" xlink:title="rbo5.func_us_801C5650">
<ellipse fill="green" stroke="black" cx="2071.58" cy="-378" rx="122.38" ry="18"/>
<text text-anchor="middle" x="2071.58" y="-374.3" font-family="Times,serif" font-size="14.00">rbo5.func_us_801C5650</text>
</a>
</g>
</g>
<!-- rbo5.func_us_801C5650&#45;&gt;rbo5.func_8010E570 -->
<g id="edge9" class="edge">
<title>rbo5.func_us_801C5650&#45;&gt;rbo5.func_8010E570</title>
<path fill="none" stroke="black" d="M2002.27,-363.11C1838.69,-330.32 1429.59,-248.31 1259.56,-214.23"/>
<polygon fill="black" stroke="black" points="1260.18,-210.78 1249.68,-212.25 1258.8,-217.65 1260.18,-210.78"/>
<text text-anchor="middle" x="1997.27" y="-351.91" font-family="Times,serif" font-size="14.00">3</text>
</g>
</g>
</svg>
