<?xml version="1.0" encoding="UTF-8" standalone="no"?>
<!DOCTYPE svg PUBLIC "-//W3C//DTD SVG 1.1//EN"
 "http://www.w3.org/Graphics/SVG/1.1/DTD/svg11.dtd">
<!-- Generated by graphviz version 2.43.0 (0)
 -->
<!-- Title: rbo5.EntityUnkId1C Pages: 1 -->
<svg width="637pt" height="224pt"
 viewBox="0.00 0.00 636.73 224.00" xmlns="http://www.w3.org/2000/svg" xmlns:xlink="http://www.w3.org/1999/xlink">
<g id="graph0" class="graph" transform="scale(1 1) rotate(0) translate(4 220)">
<title>rbo5.EntityUnkId1C</title>
<polygon fill="white" stroke="transparent" points="-4,4 -4,-220 632.73,-220 632.73,4 -4,4"/>
<!-- rbo5.EntityUnkId1C -->
<g id="node1" class="node">
<title>rbo5.EntityUnkId1C</title>
<ellipse fill="green" stroke="black" cx="327.69" cy="-198" rx="104.78" ry="18"/>
<text text-anchor="middle" x="327.69" y="-194.3" font-family="Times,serif" font-size="14.00">rbo5.EntityUnkId1C</text>
</g>
<!-- rbo5.AnimateEntity -->
<g id="node2" class="node">
<title>rbo5.AnimateEntity</title>
<g id="a_node2"><a xlink:href="rbo5.AnimateEntity.svg" xlink:title="rbo5.AnimateEntity">
<ellipse fill="green" stroke="black" cx="102.69" cy="-18" rx="102.88" ry="18"/>
<text text-anchor="middle" x="102.69" y="-14.3" font-family="Times,serif" font-size="14.00">rbo5.AnimateEntity</text>
</a>
</g>
</g>
<!-- rbo5.EntityUnkId1C&#45;&gt;rbo5.AnimateEntity -->
<g id="edge1" class="edge">
<title>rbo5.EntityUnkId1C&#45;&gt;rbo5.AnimateEntity</title>
<path fill="none" stroke="black" d="M306.52,-180.25C266.15,-148.32 178.09,-78.65 132.05,-42.23"/>
<polygon fill="black" stroke="black" points="133.98,-39.29 123.97,-35.83 129.64,-44.78 133.98,-39.29"/>
<text text-anchor="middle" x="118.97" y="-39.63" font-family="Times,serif" font-size="14.00">1</text>
</g>
<!-- rbo5.InitializeEntity -->
<g id="node3" class="node">
<title>rbo5.InitializeEntity</title>
<g id="a_node3"><a xlink:href="rbo5.InitializeEntity.svg" xlink:title="rbo5.InitializeEntity">
<ellipse fill="green" stroke="black" cx="327.69" cy="-18" rx="104.78" ry="18"/>
<text text-anchor="middle" x="327.69" y="-14.3" font-family="Times,serif" font-size="14.00">rbo5.InitializeEntity</text>
</a>
</g>
</g>
<!-- rbo5.EntityUnkId1C&#45;&gt;rbo5.InitializeEntity -->
<g id="edge2" class="edge">
<title>rbo5.EntityUnkId1C&#45;&gt;rbo5.InitializeEntity</title>
<path fill="none" stroke="black" d="M327.69,-179.93C327.69,-148.97 327.69,-83.3 327.69,-46.13"/>
<polygon fill="black" stroke="black" points="331.19,-46.02 327.69,-36.02 324.19,-46.02 331.19,-46.02"/>
<text text-anchor="middle" x="322.69" y="-39.82" font-family="Times,serif" font-size="14.00">1</text>
</g>
<!-- rbo5.MoveEntity -->
<g id="node4" class="node">
<title>rbo5.MoveEntity</title>
<g id="a_node4"><a xlink:href="rbo5.MoveEntity.svg" xlink:title="rbo5.MoveEntity">
<ellipse fill="green" stroke="black" cx="539.69" cy="-18" rx="89.08" ry="18"/>
<text text-anchor="middle" x="539.69" y="-14.3" font-family="Times,serif" font-size="14.00">rbo5.MoveEntity</text>
</a>
</g>
</g>
<!-- rbo5.EntityUnkId1C&#45;&gt;rbo5.MoveEntity -->
<g id="edge3" class="edge">
<title>rbo5.EntityUnkId1C&#45;&gt;rbo5.MoveEntity</title>
<path fill="none" stroke="black" d="M347.64,-180.25C385.69,-148.3 468.73,-78.58 512.09,-42.18"/>
<polygon fill="black" stroke="black" points="514.55,-44.68 519.95,-35.57 510.04,-39.32 514.55,-44.68"/>
<text text-anchor="middle" x="514.95" y="-39.37" font-family="Times,serif" font-size="14.00">1</text>
</g>
</g>
</svg>
