<?xml version="1.0" encoding="UTF-8" standalone="no"?>
<!DOCTYPE svg PUBLIC "-//W3C//DTD SVG 1.1//EN"
 "http://www.w3.org/Graphics/SVG/1.1/DTD/svg11.dtd">
<!-- Generated by graphviz version 2.43.0 (0)
 -->
<!-- Title: rbo5.func_us_801C504C Pages: 1 -->
<svg width="1415pt" height="404pt"
 viewBox="0.00 0.00 1414.73 404.00" xmlns="http://www.w3.org/2000/svg" xmlns:xlink="http://www.w3.org/1999/xlink">
<g id="graph0" class="graph" transform="scale(1 1) rotate(0) translate(4 400)">
<title>rbo5.func_us_801C504C</title>
<polygon fill="white" stroke="transparent" points="-4,4 -4,-400 1410.73,-400 1410.73,4 -4,4"/>
<!-- rbo5.func_us_801C504C -->
<g id="node1" class="node">
<title>rbo5.func_us_801C504C</title>
<ellipse fill="green" stroke="black" cx="782.94" cy="-198" rx="123.48" ry="18"/>
<text text-anchor="middle" x="782.94" y="-194.3" font-family="Times,serif" font-size="14.00">rbo5.func_us_801C504C</text>
</g>
<!-- rbo5.CheckMoveDirection -->
<g id="node2" class="node">
<title>rbo5.CheckMoveDirection</title>
<g id="a_node2"><a xlink:href="rbo5.CheckMoveDirection.svg" xlink:title="rbo5.CheckMoveDirection">
<ellipse fill="green" stroke="black" cx="131.94" cy="-18" rx="131.88" ry="18"/>
<text text-anchor="middle" x="131.94" y="-14.3" font-family="Times,serif" font-size="14.00">rbo5.CheckMoveDirection</text>
</a>
</g>
</g>
<!-- rbo5.func_us_801C504C&#45;&gt;rbo5.CheckMoveDirection -->
<g id="edge1" class="edge">
<title>rbo5.func_us_801C504C&#45;&gt;rbo5.CheckMoveDirection</title>
<path fill="none" stroke="black" d="M727.43,-181.82C607.86,-149.13 326.41,-72.17 197.95,-37.05"/>
<polygon fill="black" stroke="black" points="198.8,-33.65 188.23,-34.39 196.95,-40.4 198.8,-33.65"/>
<text text-anchor="middle" x="183.23" y="-38.19" font-family="Times,serif" font-size="14.00">1</text>
</g>
<!-- rbo5.CreateEntFactoryFromEntity -->
<g id="node3" class="node">
<title>rbo5.CreateEntFactoryFromEntity</title>
<g id="a_node3"><a xlink:href="rbo5.CreateEntFactoryFromEntity.svg" xlink:title="rbo5.CreateEntFactoryFromEntity">
<ellipse fill="green" stroke="black" cx="453.94" cy="-18" rx="171.67" ry="18"/>
<text text-anchor="middle" x="453.94" y="-14.3" font-family="Times,serif" font-size="14.00">rbo5.CreateEntFactoryFromEntity</text>
</a>
</g>
</g>
<!-- rbo5.func_us_801C504C&#45;&gt;rbo5.CreateEntFactoryFromEntity -->
<g id="edge2" class="edge">
<title>rbo5.func_us_801C504C&#45;&gt;rbo5.CreateEntFactoryFromEntity</title>
<path fill="none" stroke="black" d="M752.28,-180.41C692.56,-148.1 560.65,-76.74 494.07,-40.71"/>
<polygon fill="black" stroke="black" points="495.58,-37.55 485.12,-35.87 492.25,-43.71 495.58,-37.55"/>
<text text-anchor="middle" x="480.12" y="-39.67" font-family="Times,serif" font-size="14.00">1</text>
</g>
<!-- rbo5.SetDopplegangerAnim -->
<g id="node4" class="node">
<title>rbo5.SetDopplegangerAnim</title>
<g id="a_node4"><a xlink:href="rbo5.SetDopplegangerAnim.svg" xlink:title="rbo5.SetDopplegangerAnim">
<ellipse fill="green" stroke="black" cx="782.94" cy="-18" rx="139.98" ry="18"/>
<text text-anchor="middle" x="782.94" y="-14.3" font-family="Times,serif" font-size="14.00">rbo5.SetDopplegangerAnim</text>
</a>
</g>
</g>
<!-- rbo5.func_us_801C504C&#45;&gt;rbo5.SetDopplegangerAnim -->
<g id="edge3" class="edge">
<title>rbo5.func_us_801C504C&#45;&gt;rbo5.SetDopplegangerAnim</title>
<path fill="none" stroke="black" d="M782.94,-179.93C782.94,-148.97 782.94,-83.3 782.94,-46.13"/>
<polygon fill="black" stroke="black" points="786.44,-46.02 782.94,-36.02 779.44,-46.02 786.44,-46.02"/>
<text text-anchor="middle" x="777.94" y="-39.82" font-family="Times,serif" font-size="14.00">1</text>
</g>
<!-- rbo5.SetDopplegangerStep -->
<g id="node5" class="node">
<title>rbo5.SetDopplegangerStep</title>
<g id="a_node5"><a xlink:href="rbo5.SetDopplegangerStep.svg" xlink:title="rbo5.SetDopplegangerStep">
<ellipse fill="green" stroke="black" cx="1078.94" cy="-18" rx="137.58" ry="18"/>
<text text-anchor="middle" x="1078.94" y="-14.3" font-family="Times,serif" font-size="14.00">rbo5.SetDopplegangerStep</text>
</a>
</g>
</g>
<!-- rbo5.func_us_801C504C&#45;&gt;rbo5.SetDopplegangerStep -->
<g id="edge4" class="edge">
<title>rbo5.func_us_801C504C&#45;&gt;rbo5.SetDopplegangerStep</title>
<path fill="none" stroke="black" d="M810.52,-180.41C864.03,-148.23 981.96,-77.32 1042.1,-41.15"/>
<polygon fill="black" stroke="black" points="1044.12,-44.02 1050.89,-35.87 1040.51,-38.02 1044.12,-44.02"/>
<text text-anchor="middle" x="1045.89" y="-39.67" font-family="Times,serif" font-size="14.00">1</text>
</g>
<!-- rbo5.SetSpeedX -->
<g id="node6" class="node">
<title>rbo5.SetSpeedX</title>
<g id="a_node6"><a xlink:href="rbo5.SetSpeedX.svg" xlink:title="rbo5.SetSpeedX">
<ellipse fill="green" stroke="black" cx="1320.94" cy="-18" rx="85.59" ry="18"/>
<text text-anchor="middle" x="1320.94" y="-14.3" font-family="Times,serif" font-size="14.00">rbo5.SetSpeedX</text>
</a>
</g>
</g>
<!-- rbo5.func_us_801C504C&#45;&gt;rbo5.SetSpeedX -->
<g id="edge5" class="edge">
<title>rbo5.func_us_801C504C&#45;&gt;rbo5.SetSpeedX</title>
<path fill="none" stroke="black" d="M830.21,-181.36C930.07,-148.32 1161.92,-71.61 1267.21,-36.78"/>
<polygon fill="black" stroke="black" points="1268.6,-40 1276.99,-33.54 1266.4,-33.36 1268.6,-40"/>
<text text-anchor="middle" x="1271.99" y="-37.34" font-family="Times,serif" font-size="14.00">1</text>
</g>
<!-- rbo5.EntityDoppleganger40 -->
<g id="node7" class="node">
<title>rbo5.EntityDoppleganger40</title>
<g id="a_node7"><a xlink:href="rbo5.EntityDoppleganger40.svg" xlink:title="rbo5.EntityDoppleganger40">
<ellipse fill="green" stroke="black" cx="782.94" cy="-378" rx="141.07" ry="18"/>
<text text-anchor="middle" x="782.94" y="-374.3" font-family="Times,serif" font-size="14.00">rbo5.EntityDoppleganger40</text>
</a>
</g>
</g>
<!-- rbo5.EntityDoppleganger40&#45;&gt;rbo5.func_us_801C504C -->
<g id="edge6" class="edge">
<title>rbo5.EntityDoppleganger40&#45;&gt;rbo5.func_us_801C504C</title>
<path fill="none" stroke="black" d="M782.94,-359.93C782.94,-328.97 782.94,-263.3 782.94,-226.13"/>
<polygon fill="black" stroke="black" points="786.44,-226.02 782.94,-216.02 779.44,-226.02 786.44,-226.02"/>
<text text-anchor="middle" x="777.94" y="-348.73" font-family="Times,serif" font-size="14.00">1</text>
</g>
</g>
</svg>
