<?xml version="1.0" encoding="UTF-8" standalone="no"?>
<!DOCTYPE svg PUBLIC "-//W3C//DTD SVG 1.1//EN"
 "http://www.w3.org/Graphics/SVG/1.1/DTD/svg11.dtd">
<!-- Generated by graphviz version 2.43.0 (0)
 -->
<!-- Title: rbo5.func_us_801C5650 Pages: 1 -->
<svg width="3039pt" height="404pt"
 viewBox="0.00 0.00 3039.48 404.00" xmlns="http://www.w3.org/2000/svg" xmlns:xlink="http://www.w3.org/1999/xlink">
<g id="graph0" class="graph" transform="scale(1 1) rotate(0) translate(4 400)">
<title>rbo5.func_us_801C5650</title>
<polygon fill="white" stroke="transparent" points="-4,4 -4,-400 3035.48,-400 3035.48,4 -4,4"/>
<!-- rbo5.func_us_801C5650 -->
<g id="node1" class="node">
<title>rbo5.func_us_801C5650</title>
<ellipse fill="green" stroke="black" cx="1479.34" cy="-198" rx="122.38" ry="18"/>
<text text-anchor="middle" x="1479.34" y="-194.3" font-family="Times,serif" font-size="14.00">rbo5.func_us_801C5650</text>
</g>
<!-- dra.PlaySfx -->
<g id="node2" class="node">
<title>dra.PlaySfx</title>
<g id="a_node2"><a xlink:href="dra.PlaySfx.svg" xlink:title="dra.PlaySfx">
<ellipse fill="green" stroke="black" cx="64.34" cy="-18" rx="64.19" ry="18"/>
<text text-anchor="middle" x="64.34" y="-14.3" font-family="Times,serif" font-size="14.00">dra.PlaySfx</text>
</a>
</g>
</g>
<!-- rbo5.func_us_801C5650&#45;&gt;dra.PlaySfx -->
<g id="edge1" class="edge">
<title>rbo5.func_us_801C5650&#45;&gt;dra.PlaySfx</title>
<path fill="none" stroke="black" d="M1375.65,-188.46C1149.58,-168.98 595.81,-116.63 137.34,-36 131.9,-35.04 126.25,-33.93 120.61,-32.75"/>
<polygon fill="black" stroke="black" points="121.04,-29.26 110.53,-30.56 119.56,-36.1 121.04,-29.26"/>
<text text-anchor="middle" x="105.53" y="-34.36" font-family="Times,serif" font-size="14.00">6</text>
</g>
<!-- rbo5.CheckMoveDirection -->
<g id="node3" class="node">
<title>rbo5.CheckMoveDirection</title>
<g id="a_node3"><a xlink:href="rbo5.CheckMoveDirection.svg" xlink:title="rbo5.CheckMoveDirection">
<ellipse fill="green" stroke="black" cx="278.34" cy="-18" rx="131.88" ry="18"/>
<text text-anchor="middle" x="278.34" y="-14.3" font-family="Times,serif" font-size="14.00">rbo5.CheckMoveDirection</text>
</a>
</g>
</g>
<!-- rbo5.func_us_801C5650&#45;&gt;rbo5.CheckMoveDirection -->
<g id="edge2" class="edge">
<title>rbo5.func_us_801C5650&#45;&gt;rbo5.CheckMoveDirection</title>
<path fill="none" stroke="black" d="M1396.32,-184.7C1180.64,-152.73 603.48,-67.19 374.18,-33.2"/>
<polygon fill="black" stroke="black" points="374.59,-29.73 364.19,-31.72 373.57,-36.65 374.59,-29.73"/>
<text text-anchor="middle" x="359.19" y="-35.52" font-family="Times,serif" font-size="14.00">1</text>
</g>
<!-- rbo5.CreateEntFactoryFromEntity -->
<g id="node4" class="node">
<title>rbo5.CreateEntFactoryFromEntity</title>
<g id="a_node4"><a xlink:href="rbo5.CreateEntFactoryFromEntity.svg" xlink:title="rbo5.CreateEntFactoryFromEntity">
<ellipse fill="green" stroke="black" cx="600.34" cy="-18" rx="171.67" ry="18"/>
<text text-anchor="middle" x="600.34" y="-14.3" font-family="Times,serif" font-size="14.00">rbo5.CreateEntFactoryFromEntity</text>
</a>
</g>
</g>
<!-- rbo5.func_us_801C5650&#45;&gt;rbo5.CreateEntFactoryFromEntity -->
<g id="edge3" class="edge">
<title>rbo5.func_us_801C5650&#45;&gt;rbo5.CreateEntFactoryFromEntity</title>
<path fill="none" stroke="black" d="M1410.37,-183.03C1251.27,-150.81 858.95,-71.37 685.34,-36.21"/>
<polygon fill="black" stroke="black" points="685.98,-32.77 675.48,-34.22 684.59,-39.63 685.98,-32.77"/>
<text text-anchor="middle" x="670.48" y="-38.02" font-family="Times,serif" font-size="14.00">3</text>
</g>
<!-- rbo5.func_8010E470 -->
<g id="node5" class="node">
<title>rbo5.func_8010E470</title>
<g id="a_node5"><a xlink:href="rbo5.func_8010E470.svg" xlink:title="rbo5.func_8010E470">
<ellipse fill="green" stroke="black" cx="897.34" cy="-18" rx="107.48" ry="18"/>
<text text-anchor="middle" x="897.34" y="-14.3" font-family="Times,serif" font-size="14.00">rbo5.func_8010E470</text>
</a>
</g>
</g>
<!-- rbo5.func_us_801C5650&#45;&gt;rbo5.func_8010E470 -->
<g id="edge4" class="edge">
<title>rbo5.func_us_801C5650&#45;&gt;rbo5.func_8010E470</title>
<path fill="none" stroke="black" d="M1428.97,-181.59C1321.64,-148.77 1070.9,-72.08 956.34,-37.04"/>
<polygon fill="black" stroke="black" points="957.26,-33.67 946.68,-34.09 955.21,-40.36 957.26,-33.67"/>
<text text-anchor="middle" x="941.68" y="-37.89" font-family="Times,serif" font-size="14.00">3</text>
</g>
<!-- rbo5.func_8010E570 -->
<g id="node6" class="node">
<title>rbo5.func_8010E570</title>
<g id="a_node6"><a xlink:href="rbo5.func_8010E570.svg" xlink:title="rbo5.func_8010E570">
<ellipse fill="green" stroke="black" cx="1129.34" cy="-18" rx="107.48" ry="18"/>
<text text-anchor="middle" x="1129.34" y="-14.3" font-family="Times,serif" font-size="14.00">rbo5.func_8010E570</text>
</a>
</g>
</g>
<!-- rbo5.func_us_801C5650&#45;&gt;rbo5.func_8010E570 -->
<g id="edge5" class="edge">
<title>rbo5.func_us_801C5650&#45;&gt;rbo5.func_8010E570</title>
<path fill="none" stroke="black" d="M1447.04,-180.57C1383.15,-148.08 1240.74,-75.65 1170.34,-39.85"/>
<polygon fill="black" stroke="black" points="1171.81,-36.67 1161.31,-35.26 1168.64,-42.91 1171.81,-36.67"/>
<text text-anchor="middle" x="1156.31" y="-39.06" font-family="Times,serif" font-size="14.00">3</text>
</g>
<!-- rbo5.func_8010E6AC -->
<g id="node7" class="node">
<title>rbo5.func_8010E6AC</title>
<g id="a_node7"><a xlink:href="rbo5.func_8010E6AC.svg" xlink:title="rbo5.func_8010E6AC">
<ellipse fill="green" stroke="black" cx="1363.34" cy="-18" rx="108.58" ry="18"/>
<text text-anchor="middle" x="1363.34" y="-14.3" font-family="Times,serif" font-size="14.00">rbo5.func_8010E6AC</text>
</a>
</g>
</g>
<!-- rbo5.func_us_801C5650&#45;&gt;rbo5.func_8010E6AC -->
<g id="edge6" class="edge">
<title>rbo5.func_us_801C5650&#45;&gt;rbo5.func_8010E6AC</title>
<path fill="none" stroke="black" d="M1468.22,-179.93C1447.78,-148.57 1404.14,-81.6 1380.1,-44.71"/>
<polygon fill="black" stroke="black" points="1382.83,-42.48 1374.43,-36.02 1376.96,-46.3 1382.83,-42.48"/>
<text text-anchor="middle" x="1369.43" y="-39.82" font-family="Times,serif" font-size="14.00">2</text>
</g>
<!-- rbo5.func_8010FAF4 -->
<g id="node8" class="node">
<title>rbo5.func_8010FAF4</title>
<g id="a_node8"><a xlink:href="rbo5.func_8010FAF4.svg" xlink:title="rbo5.func_8010FAF4">
<ellipse fill="green" stroke="black" cx="1596.34" cy="-18" rx="106.68" ry="18"/>
<text text-anchor="middle" x="1596.34" y="-14.3" font-family="Times,serif" font-size="14.00">rbo5.func_8010FAF4</text>
</a>
</g>
</g>
<!-- rbo5.func_us_801C5650&#45;&gt;rbo5.func_8010FAF4 -->
<g id="edge7" class="edge">
<title>rbo5.func_us_801C5650&#45;&gt;rbo5.func_8010FAF4</title>
<path fill="none" stroke="black" d="M1490.56,-179.93C1511.18,-148.57 1555.2,-81.6 1579.45,-44.71"/>
<polygon fill="black" stroke="black" points="1582.59,-46.29 1585.16,-36.02 1576.74,-42.45 1582.59,-46.29"/>
<text text-anchor="middle" x="1580.16" y="-39.82" font-family="Times,serif" font-size="14.00">2</text>
</g>
<!-- rbo5.func_us_801C4EE4 -->
<g id="node9" class="node">
<title>rbo5.func_us_801C4EE4</title>
<g id="a_node9"><a xlink:href="rbo5.func_us_801C4EE4.svg" xlink:title="rbo5.func_us_801C4EE4">
<ellipse fill="green" stroke="black" cx="1845.34" cy="-18" rx="124.28" ry="18"/>
<text text-anchor="middle" x="1845.34" y="-14.3" font-family="Times,serif" font-size="14.00">rbo5.func_us_801C4EE4</text>
</a>
</g>
</g>
<!-- rbo5.func_us_801C5650&#45;&gt;rbo5.func_us_801C4EE4 -->
<g id="edge8" class="edge">
<title>rbo5.func_us_801C5650&#45;&gt;rbo5.func_us_801C4EE4</title>
<path fill="none" stroke="black" d="M1513.12,-180.57C1579.99,-148.05 1729.09,-75.54 1802.64,-39.77"/>
<polygon fill="black" stroke="black" points="1804.19,-42.91 1811.65,-35.39 1801.13,-36.61 1804.19,-42.91"/>
<text text-anchor="middle" x="1806.65" y="-39.19" font-family="Times,serif" font-size="14.00">1</text>
</g>
<!-- rbo5.func_us_801C4F90 -->
<g id="node10" class="node">
<title>rbo5.func_us_801C4F90</title>
<g id="a_node10"><a xlink:href="rbo5.func_us_801C4F90.svg" xlink:title="rbo5.func_us_801C4F90">
<ellipse fill="green" stroke="black" cx="2110.34" cy="-18" rx="122.68" ry="18"/>
<text text-anchor="middle" x="2110.34" y="-14.3" font-family="Times,serif" font-size="14.00">rbo5.func_us_801C4F90</text>
</a>
</g>
</g>
<!-- rbo5.func_us_801C5650&#45;&gt;rbo5.func_us_801C4F90 -->
<g id="edge9" class="edge">
<title>rbo5.func_us_801C5650&#45;&gt;rbo5.func_us_801C4F90</title>
<path fill="none" stroke="black" d="M1533.14,-181.82C1649.07,-149.12 1921.98,-72.13 2046.45,-37.02"/>
<polygon fill="black" stroke="black" points="2047.56,-40.35 2056.23,-34.26 2045.66,-33.61 2047.56,-40.35"/>
<text text-anchor="middle" x="2051.23" y="-38.06" font-family="Times,serif" font-size="14.00">1</text>
</g>
<!-- rbo5.func_us_801C4FDC -->
<g id="node11" class="node">
<title>rbo5.func_us_801C4FDC</title>
<g id="a_node11"><a xlink:href="rbo5.func_us_801C4FDC.svg" xlink:title="rbo5.func_us_801C4FDC">
<ellipse fill="green" stroke="black" cx="2376.34" cy="-18" rx="125.38" ry="18"/>
<text text-anchor="middle" x="2376.34" y="-14.3" font-family="Times,serif" font-size="14.00">rbo5.func_us_801C4FDC</text>
</a>
</g>
</g>
<!-- rbo5.func_us_801C5650&#45;&gt;rbo5.func_us_801C4FDC -->
<g id="edge10" class="edge">
<title>rbo5.func_us_801C5650&#45;&gt;rbo5.func_us_801C4FDC</title>
<path fill="none" stroke="black" d="M1548.98,-183.18C1712.92,-150.65 2122.43,-69.39 2296.28,-34.89"/>
<polygon fill="black" stroke="black" points="2297,-38.31 2306.13,-32.93 2295.64,-31.45 2297,-38.31"/>
<text text-anchor="middle" x="2301.13" y="-36.73" font-family="Times,serif" font-size="14.00">1</text>
</g>
<!-- rbo5.func_us_801C52F8 -->
<g id="node12" class="node">
<title>rbo5.func_us_801C52F8</title>
<g id="a_node12"><a xlink:href="rbo5.func_us_801C52F8.svg" xlink:title="rbo5.func_us_801C52F8">
<ellipse fill="green" stroke="black" cx="2642.34" cy="-18" rx="122.68" ry="18"/>
<text text-anchor="middle" x="2642.34" y="-14.3" font-family="Times,serif" font-size="14.00">rbo5.func_us_801C52F8</text>
</a>
</g>
</g>
<!-- rbo5.func_us_801C5650&#45;&gt;rbo5.func_us_801C52F8 -->
<g id="edge11" class="edge">
<title>rbo5.func_us_801C5650&#45;&gt;rbo5.func_us_801C52F8</title>
<path fill="none" stroke="black" d="M1560.66,-184.55C1770.58,-152.43 2329.64,-66.86 2550.62,-33.04"/>
<polygon fill="black" stroke="black" points="2551.21,-36.49 2560.57,-31.52 2550.15,-29.57 2551.21,-36.49"/>
<text text-anchor="middle" x="2555.57" y="-35.32" font-family="Times,serif" font-size="14.00">1</text>
</g>
<!-- rbo5.func_us_801C55EC -->
<g id="node13" class="node">
<title>rbo5.func_us_801C55EC</title>
<g id="a_node13"><a xlink:href="rbo5.func_us_801C55EC.svg" xlink:title="rbo5.func_us_801C55EC">
<ellipse fill="green" stroke="black" cx="2907.34" cy="-18" rx="124.28" ry="18"/>
<text text-anchor="middle" x="2907.34" y="-14.3" font-family="Times,serif" font-size="14.00">rbo5.func_us_801C55EC</text>
</a>
</g>
</g>
<!-- rbo5.func_us_801C5650&#45;&gt;rbo5.func_us_801C55EC -->
<g id="edge12" class="edge">
<title>rbo5.func_us_801C5650&#45;&gt;rbo5.func_us_801C55EC</title>
<path fill="none" stroke="black" d="M1570.03,-185.83C1781.21,-159.81 2322.26,-93 2774.34,-36 2785.04,-34.65 2796.22,-33.23 2807.36,-31.82"/>
<polygon fill="black" stroke="black" points="2808.09,-35.25 2817.56,-30.52 2807.2,-28.31 2808.09,-35.25"/>
<text text-anchor="middle" x="2812.56" y="-34.32" font-family="Times,serif" font-size="14.00">1</text>
</g>
<!-- rbo5.DopplegangerHandleDamage -->
<g id="node14" class="node">
<title>rbo5.DopplegangerHandleDamage</title>
<g id="a_node14"><a xlink:href="rbo5.DopplegangerHandleDamage.svg" xlink:title="rbo5.DopplegangerHandleDamage">
<ellipse fill="green" stroke="black" cx="331.34" cy="-378" rx="171.67" ry="18"/>
<text text-anchor="middle" x="331.34" y="-374.3" font-family="Times,serif" font-size="14.00">rbo5.DopplegangerHandleDamage</text>
</a>
</g>
</g>
<!-- rbo5.DopplegangerHandleDamage&#45;&gt;rbo5.func_us_801C5650 -->
<g id="edge13" class="edge">
<title>rbo5.DopplegangerHandleDamage&#45;&gt;rbo5.func_us_801C5650</title>
<path fill="none" stroke="black" d="M423.35,-362.73C638.87,-329.32 1174.34,-246.29 1388.61,-213.07"/>
<polygon fill="black" stroke="black" points="1389.22,-216.52 1398.56,-211.53 1388.15,-209.6 1389.22,-216.52"/>
<text text-anchor="middle" x="418.35" y="-351.53" font-family="Times,serif" font-size="14.00">1</text>
</g>
<!-- rbo5.DopplegangerStepCrouch -->
<g id="node15" class="node">
<title>rbo5.DopplegangerStepCrouch</title>
<g id="a_node15"><a xlink:href="rbo5.DopplegangerStepCrouch.svg" xlink:title="rbo5.DopplegangerStepCrouch">
<ellipse fill="green" stroke="black" cx="676.34" cy="-378" rx="155.17" ry="18"/>
<text text-anchor="middle" x="676.34" y="-374.3" font-family="Times,serif" font-size="14.00">rbo5.DopplegangerStepCrouch</text>
</a>
</g>
</g>
<!-- rbo5.DopplegangerStepCrouch&#45;&gt;rbo5.func_us_801C5650 -->
<g id="edge14" class="edge">
<title>rbo5.DopplegangerStepCrouch&#45;&gt;rbo5.func_us_801C5650</title>
<path fill="none" stroke="black" d="M744.81,-361.82C894.46,-328.65 1249.72,-249.9 1404.79,-215.53"/>
<polygon fill="black" stroke="black" points="1405.7,-218.91 1414.71,-213.33 1404.19,-212.08 1405.7,-218.91"/>
<text text-anchor="middle" x="739.81" y="-350.62" font-family="Times,serif" font-size="14.00">1</text>
</g>
<!-- rbo5.DopplegangerStepFall -->
<g id="node16" class="node">
<title>rbo5.DopplegangerStepFall</title>
<g id="a_node16"><a xlink:href="rbo5.DopplegangerStepFall.svg" xlink:title="rbo5.DopplegangerStepFall">
<ellipse fill="green" stroke="black" cx="988.34" cy="-378" rx="139.18" ry="18"/>
<text text-anchor="middle" x="988.34" y="-374.3" font-family="Times,serif" font-size="14.00">rbo5.DopplegangerStepFall</text>
</a>
</g>
</g>
<!-- rbo5.DopplegangerStepFall&#45;&gt;rbo5.func_us_801C5650 -->
<g id="edge15" class="edge">
<title>rbo5.DopplegangerStepFall&#45;&gt;rbo5.func_us_801C5650</title>
<path fill="none" stroke="black" d="M1032.78,-360.89C1123.27,-328.08 1328.59,-253.65 1426.06,-218.32"/>
<polygon fill="black" stroke="black" points="1427.5,-221.52 1435.71,-214.82 1425.12,-214.94 1427.5,-221.52"/>
<text text-anchor="middle" x="1027.78" y="-349.69" font-family="Times,serif" font-size="14.00">1</text>
</g>
<!-- rbo5.DopplegangerStepHighJump -->
<g id="node17" class="node">
<title>rbo5.DopplegangerStepHighJump</title>
<g id="a_node17"><a xlink:href="rbo5.DopplegangerStepHighJump.svg" xlink:title="rbo5.DopplegangerStepHighJump">
<ellipse fill="green" stroke="black" cx="1313.34" cy="-378" rx="168.17" ry="18"/>
<text text-anchor="middle" x="1313.34" y="-374.3" font-family="Times,serif" font-size="14.00">rbo5.DopplegangerStepHighJump</text>
</a>
</g>
</g>
<!-- rbo5.DopplegangerStepHighJump&#45;&gt;rbo5.func_us_801C5650 -->
<g id="edge16" class="edge">
<title>rbo5.DopplegangerStepHighJump&#45;&gt;rbo5.func_us_801C5650</title>
<path fill="none" stroke="black" d="M1329.26,-359.93C1358.76,-328.3 1422.02,-260.46 1456.24,-223.78"/>
<polygon fill="black" stroke="black" points="1459.22,-225.72 1463.48,-216.02 1454.1,-220.94 1459.22,-225.72"/>
<text text-anchor="middle" x="1324.26" y="-348.73" font-family="Times,serif" font-size="14.00">1</text>
</g>
<!-- rbo5.DopplegangerStepJump -->
<g id="node18" class="node">
<title>rbo5.DopplegangerStepJump</title>
<g id="a_node18"><a xlink:href="rbo5.DopplegangerStepJump.svg" xlink:title="rbo5.DopplegangerStepJump">
<ellipse fill="green" stroke="black" cx="1645.34" cy="-378" rx="145.67" ry="18"/>
<text text-anchor="middle" x="1645.34" y="-374.3" font-family="Times,serif" font-size="14.00">rbo5.DopplegangerStepJump</text>
</a>
</g>
</g>
<!-- rbo5.DopplegangerStepJump&#45;&gt;rbo5.func_us_801C5650 -->
<g id="edge17" class="edge">
<title>rbo5.DopplegangerStepJump&#45;&gt;rbo5.func_us_801C5650</title>
<path fill="none" stroke="black" d="M1629.43,-359.93C1599.93,-328.3 1536.67,-260.46 1502.45,-223.78"/>
<polygon fill="black" stroke="black" points="1504.59,-220.94 1495.21,-216.02 1499.47,-225.72 1504.59,-220.94"/>
<text text-anchor="middle" x="1624.43" y="-348.73" font-family="Times,serif" font-size="14.00">1</text>
</g>
<!-- rbo5.DopplegangerStepStand -->
<g id="node19" class="node">
<title>rbo5.DopplegangerStepStand</title>
<g id="a_node19"><a xlink:href="rbo5.DopplegangerStepStand.svg" xlink:title="rbo5.DopplegangerStepStand">
<ellipse fill="green" stroke="black" cx="1958.34" cy="-378" rx="149.47" ry="18"/>
<text text-anchor="middle" x="1958.34" y="-374.3" font-family="Times,serif" font-size="14.00">rbo5.DopplegangerStepStand</text>
</a>
</g>
</g>
<!-- rbo5.DopplegangerStepStand&#45;&gt;rbo5.func_us_801C5650 -->
<g id="edge18" class="edge">
<title>rbo5.DopplegangerStepStand&#45;&gt;rbo5.func_us_801C5650</title>
<path fill="none" stroke="black" d="M1914.57,-360.73C1826.15,-327.87 1626.61,-253.72 1531.57,-218.41"/>
<polygon fill="black" stroke="black" points="1532.75,-215.11 1522.16,-214.91 1530.31,-221.67 1532.75,-215.11"/>
<text text-anchor="middle" x="1909.57" y="-349.53" font-family="Times,serif" font-size="14.00">1</text>
</g>
<!-- rbo5.DopplegangerStepStone -->
<g id="node20" class="node">
<title>rbo5.DopplegangerStepStone</title>
<g id="a_node20"><a xlink:href="rbo5.DopplegangerStepStone.svg" xlink:title="rbo5.DopplegangerStepStone">
<ellipse fill="green" stroke="black" cx="2274.34" cy="-378" rx="148.67" ry="18"/>
<text text-anchor="middle" x="2274.34" y="-374.3" font-family="Times,serif" font-size="14.00">rbo5.DopplegangerStepStone</text>
</a>
</g>
</g>
<!-- rbo5.DopplegangerStepStone&#45;&gt;rbo5.func_us_801C5650 -->
<g id="edge19" class="edge">
<title>rbo5.DopplegangerStepStone&#45;&gt;rbo5.func_us_801C5650</title>
<path fill="none" stroke="black" d="M2206.91,-361.9C2058.97,-328.78 1706.92,-249.96 1553.24,-215.55"/>
<polygon fill="black" stroke="black" points="1553.93,-212.11 1543.41,-213.34 1552.4,-218.94 1553.93,-212.11"/>
<text text-anchor="middle" x="2201.91" y="-350.7" font-family="Times,serif" font-size="14.00">1</text>
</g>
<!-- rbo5.DopplegangerStepWalk -->
<g id="node21" class="node">
<title>rbo5.DopplegangerStepWalk</title>
<g id="a_node21"><a xlink:href="rbo5.DopplegangerStepWalk.svg" xlink:title="rbo5.DopplegangerStepWalk">
<ellipse fill="green" stroke="black" cx="2585.34" cy="-378" rx="144.07" ry="18"/>
<text text-anchor="middle" x="2585.34" y="-374.3" font-family="Times,serif" font-size="14.00">rbo5.DopplegangerStepWalk</text>
</a>
</g>
</g>
<!-- rbo5.DopplegangerStepWalk&#45;&gt;rbo5.func_us_801C5650 -->
<g id="edge20" class="edge">
<title>rbo5.DopplegangerStepWalk&#45;&gt;rbo5.func_us_801C5650</title>
<path fill="none" stroke="black" d="M2500.85,-363.4C2296.65,-330.54 1777.81,-247.03 1568.71,-213.38"/>
<polygon fill="black" stroke="black" points="1569.11,-209.9 1558.68,-211.77 1568,-216.81 1569.11,-209.9"/>
<text text-anchor="middle" x="2495.85" y="-352.2" font-family="Times,serif" font-size="14.00">1</text>
</g>
</g>
</svg>
