<?xml version="1.0" encoding="UTF-8" standalone="no"?>
<!DOCTYPE svg PUBLIC "-//W3C//DTD SVG 1.1//EN"
 "http://www.w3.org/Graphics/SVG/1.1/DTD/svg11.dtd">
<!-- Generated by graphviz version 2.43.0 (0)
 -->
<!-- Title: ric.func_8016E9E4 Pages: 1 -->
<svg width="1152pt" height="224pt"
 viewBox="0.00 0.00 1152.04 224.00" xmlns="http://www.w3.org/2000/svg" xmlns:xlink="http://www.w3.org/1999/xlink">
<g id="graph0" class="graph" transform="scale(1 1) rotate(0) translate(4 220)">
<title>ric.func_8016E9E4</title>
<polygon fill="white" stroke="transparent" points="-4,4 -4,-220 1148.04,-220 1148.04,4 -4,4"/>
<!-- ric.func_8016E9E4 -->
<g id="node1" class="node">
<title>ric.func_8016E9E4</title>
<ellipse fill="green" stroke="black" cx="536.44" cy="-198" rx="98.58" ry="18"/>
<text text-anchor="middle" x="536.44" y="-194.3" font-family="Times,serif" font-size="14.00">ric.func_8016E9E4</text>
</g>
<!-- dra.AllocPrimitives -->
<g id="node2" class="node">
<title>dra.AllocPrimitives</title>
<g id="a_node2"><a xlink:href="dra.AllocPrimitives.svg" xlink:title="dra.AllocPrimitives">
<ellipse fill="green" stroke="black" cx="99.44" cy="-18" rx="99.38" ry="18"/>
<text text-anchor="middle" x="99.44" y="-14.3" font-family="Times,serif" font-size="14.00">dra.AllocPrimitives</text>
</a>
</g>
</g>
<!-- ric.func_8016E9E4&#45;&gt;dra.AllocPrimitives -->
<g id="edge1" class="edge">
<title>ric.func_8016E9E4&#45;&gt;dra.AllocPrimitives</title>
<path fill="none" stroke="black" d="M498.04,-181.36C418.25,-148.86 234.67,-74.08 147.32,-38.5"/>
<polygon fill="black" stroke="black" points="148.49,-35.2 137.91,-34.67 145.85,-41.68 148.49,-35.2"/>
<text text-anchor="middle" x="132.91" y="-38.47" font-family="Times,serif" font-size="14.00">1</text>
</g>
<!-- dra.func_80134714 -->
<g id="node3" class="node">
<title>dra.func_80134714</title>
<g id="a_node3"><a xlink:href="dra.func_80134714.svg" xlink:title="dra.func_80134714">
<ellipse fill="green" stroke="black" cx="317.44" cy="-18" rx="100.98" ry="18"/>
<text text-anchor="middle" x="317.44" y="-14.3" font-family="Times,serif" font-size="14.00">dra.func_80134714</text>
</a>
</g>
</g>
<!-- ric.func_8016E9E4&#45;&gt;dra.func_80134714 -->
<g id="edge2" class="edge">
<title>ric.func_8016E9E4&#45;&gt;dra.func_80134714</title>
<path fill="none" stroke="black" d="M515.84,-180.25C476.54,-148.32 390.83,-78.65 346.02,-42.23"/>
<polygon fill="black" stroke="black" points="348.12,-39.42 338.15,-35.83 343.7,-44.85 348.12,-39.42"/>
<text text-anchor="middle" x="333.15" y="-39.63" font-family="Times,serif" font-size="14.00">1</text>
</g>
<!-- rcos -->
<g id="node4" class="node">
<title>rcos</title>
<g id="a_node4"><a xlink:href="rcos.svg" xlink:title="rcos">
<ellipse fill="lightblue" stroke="black" cx="466.44" cy="-18" rx="30.59" ry="18"/>
<text text-anchor="middle" x="466.44" y="-14.3" font-family="Times,serif" font-size="14.00">rcos</text>
</a>
</g>
</g>
<!-- ric.func_8016E9E4&#45;&gt;rcos -->
<g id="edge3" class="edge">
<title>ric.func_8016E9E4&#45;&gt;rcos</title>
<path fill="none" stroke="black" d="M529.73,-179.93C517.47,-148.75 491.37,-82.4 476.81,-45.37"/>
<polygon fill="black" stroke="black" points="479.95,-43.78 473.03,-35.76 473.43,-46.34 479.95,-43.78"/>
<text text-anchor="middle" x="468.03" y="-39.56" font-family="Times,serif" font-size="14.00">2</text>
</g>
<!-- ric.DestroyEntity -->
<g id="node5" class="node">
<title>ric.DestroyEntity</title>
<g id="a_node5"><a xlink:href="ric.DestroyEntity.svg" xlink:title="ric.DestroyEntity">
<ellipse fill="green" stroke="black" cx="606.44" cy="-18" rx="90.98" ry="18"/>
<text text-anchor="middle" x="606.44" y="-14.3" font-family="Times,serif" font-size="14.00">ric.DestroyEntity</text>
</a>
</g>
</g>
<!-- ric.func_8016E9E4&#45;&gt;ric.DestroyEntity -->
<g id="edge4" class="edge">
<title>ric.func_8016E9E4&#45;&gt;ric.DestroyEntity</title>
<path fill="none" stroke="black" d="M543.15,-179.93C555.38,-148.83 581.38,-82.73 595.96,-45.65"/>
<polygon fill="black" stroke="black" points="599.35,-46.6 599.75,-36.02 592.83,-44.04 599.35,-46.6"/>
<text text-anchor="middle" x="594.75" y="-39.82" font-family="Times,serif" font-size="14.00">2</text>
</g>
<!-- ric.RicCreateEntFactoryFromEntity -->
<g id="node6" class="node">
<title>ric.RicCreateEntFactoryFromEntity</title>
<g id="a_node6"><a xlink:href="ric.RicCreateEntFactoryFromEntity.svg" xlink:title="ric.RicCreateEntFactoryFromEntity">
<ellipse fill="green" stroke="black" cx="892.44" cy="-18" rx="176.57" ry="18"/>
<text text-anchor="middle" x="892.44" y="-14.3" font-family="Times,serif" font-size="14.00">ric.RicCreateEntFactoryFromEntity</text>
</a>
</g>
</g>
<!-- ric.func_8016E9E4&#45;&gt;ric.RicCreateEntFactoryFromEntity -->
<g id="edge5" class="edge">
<title>ric.func_8016E9E4&#45;&gt;ric.RicCreateEntFactoryFromEntity</title>
<path fill="none" stroke="black" d="M568.66,-180.89C633.04,-148.7 777.55,-76.44 849.73,-40.36"/>
<polygon fill="black" stroke="black" points="851.62,-43.32 859,-35.72 848.49,-37.06 851.62,-43.32"/>
<text text-anchor="middle" x="854" y="-39.52" font-family="Times,serif" font-size="14.00">1</text>
</g>
<!-- rsin -->
<g id="node7" class="node">
<title>rsin</title>
<g id="a_node7"><a xlink:href="rsin.svg" xlink:title="rsin">
<ellipse fill="lightblue" stroke="black" cx="1115.44" cy="-18" rx="28.7" ry="18"/>
<text text-anchor="middle" x="1115.44" y="-14.3" font-family="Times,serif" font-size="14.00">rsin</text>
</a>
</g>
</g>
<!-- ric.func_8016E9E4&#45;&gt;rsin -->
<g id="edge6" class="edge">
<title>ric.func_8016E9E4&#45;&gt;rsin</title>
<path fill="none" stroke="black" d="M592.7,-183.11C692.12,-157.94 904.79,-101.31 1078.44,-36 1080.28,-35.31 1082.15,-34.57 1084.03,-33.8"/>
<polygon fill="black" stroke="black" points="1085.56,-36.95 1093.35,-29.77 1082.79,-30.52 1085.56,-36.95"/>
<text text-anchor="middle" x="1088.35" y="-33.57" font-family="Times,serif" font-size="14.00">2</text>
</g>
</g>
</svg>
