<?xml version="1.0" encoding="UTF-8" standalone="no"?>
<!DOCTYPE svg PUBLIC "-//W3C//DTD SVG 1.1//EN"
 "http://www.w3.org/Graphics/SVG/1.1/DTD/svg11.dtd">
<!-- Generated by graphviz version 2.43.0 (0)
 -->
<!-- Title: ric.RicHandleJump Pages: 1 -->
<svg width="1688pt" height="404pt"
 viewBox="0.00 0.00 1688.03 404.00" xmlns="http://www.w3.org/2000/svg" xmlns:xlink="http://www.w3.org/1999/xlink">
<g id="graph0" class="graph" transform="scale(1 1) rotate(0) translate(4 400)">
<title>ric.RicHandleJump</title>
<polygon fill="white" stroke="transparent" points="-4,4 -4,-400 1684.03,-400 1684.03,4 -4,4"/>
<!-- ric.RicHandleJump -->
<g id="node1" class="node">
<title>ric.RicHandleJump</title>
<ellipse fill="green" stroke="black" cx="941.29" cy="-198" rx="97.48" ry="18"/>
<text text-anchor="middle" x="941.29" y="-194.3" font-family="Times,serif" font-size="14.00">ric.RicHandleJump</text>
</g>
<!-- ric.RicCheckMovement -->
<g id="node2" class="node">
<title>ric.RicCheckMovement</title>
<g id="a_node2"><a xlink:href="ric.RicCheckMovement.svg" xlink:title="ric.RicCheckMovement">
<ellipse fill="green" stroke="black" cx="118.29" cy="-18" rx="118.08" ry="18"/>
<text text-anchor="middle" x="118.29" y="-14.3" font-family="Times,serif" font-size="14.00">ric.RicCheckMovement</text>
</a>
</g>
</g>
<!-- ric.RicHandleJump&#45;&gt;ric.RicCheckMovement -->
<g id="edge1" class="edge">
<title>ric.RicHandleJump&#45;&gt;ric.RicCheckMovement</title>
<path fill="none" stroke="black" d="M880.44,-183.84C732.56,-151.85 354.61,-70.11 193.2,-35.2"/>
<polygon fill="black" stroke="black" points="193.86,-31.76 183.35,-33.07 192.39,-38.61 193.86,-31.76"/>
<text text-anchor="middle" x="178.35" y="-36.87" font-family="Times,serif" font-size="14.00">3</text>
</g>
<!-- ric.RicCreateEntFactoryFromEntity -->
<g id="node3" class="node">
<title>ric.RicCreateEntFactoryFromEntity</title>
<g id="a_node3"><a xlink:href="ric.RicCreateEntFactoryFromEntity.svg" xlink:title="ric.RicCreateEntFactoryFromEntity">
<ellipse fill="green" stroke="black" cx="431.29" cy="-18" rx="176.57" ry="18"/>
<text text-anchor="middle" x="431.29" y="-14.3" font-family="Times,serif" font-size="14.00">ric.RicCreateEntFactoryFromEntity</text>
</a>
</g>
</g>
<!-- ric.RicHandleJump&#45;&gt;ric.RicCreateEntFactoryFromEntity -->
<g id="edge2" class="edge">
<title>ric.RicHandleJump&#45;&gt;ric.RicCreateEntFactoryFromEntity</title>
<path fill="none" stroke="black" d="M897.81,-181.82C805.63,-149.65 590.65,-74.62 487.92,-38.76"/>
<polygon fill="black" stroke="black" points="488.93,-35.41 478.33,-35.42 486.62,-42.02 488.93,-35.41"/>
<text text-anchor="middle" x="473.33" y="-39.22" font-family="Times,serif" font-size="14.00">1</text>
</g>
<!-- ric.RicDecelerateX -->
<g id="node4" class="node">
<title>ric.RicDecelerateX</title>
<g id="a_node4"><a xlink:href="ric.RicDecelerateX.svg" xlink:title="ric.RicDecelerateX">
<ellipse fill="green" stroke="black" cx="723.29" cy="-18" rx="96.68" ry="18"/>
<text text-anchor="middle" x="723.29" y="-14.3" font-family="Times,serif" font-size="14.00">ric.RicDecelerateX</text>
</a>
</g>
</g>
<!-- ric.RicHandleJump&#45;&gt;ric.RicDecelerateX -->
<g id="edge3" class="edge">
<title>ric.RicHandleJump&#45;&gt;ric.RicDecelerateX</title>
<path fill="none" stroke="black" d="M920.78,-180.25C881.67,-148.32 796.34,-78.65 751.74,-42.23"/>
<polygon fill="black" stroke="black" points="753.86,-39.44 743.9,-35.83 749.44,-44.87 753.86,-39.44"/>
<text text-anchor="middle" x="738.9" y="-39.63" font-family="Times,serif" font-size="14.00">1</text>
</g>
<!-- ric.RicSetAnimation -->
<g id="node5" class="node">
<title>ric.RicSetAnimation</title>
<g id="a_node5"><a xlink:href="ric.RicSetAnimation.svg" xlink:title="ric.RicSetAnimation">
<ellipse fill="green" stroke="black" cx="941.29" cy="-18" rx="103.18" ry="18"/>
<text text-anchor="middle" x="941.29" y="-14.3" font-family="Times,serif" font-size="14.00">ric.RicSetAnimation</text>
</a>
</g>
</g>
<!-- ric.RicHandleJump&#45;&gt;ric.RicSetAnimation -->
<g id="edge4" class="edge">
<title>ric.RicHandleJump&#45;&gt;ric.RicSetAnimation</title>
<path fill="none" stroke="black" d="M941.29,-179.93C941.29,-148.97 941.29,-83.3 941.29,-46.13"/>
<polygon fill="black" stroke="black" points="944.79,-46.02 941.29,-36.02 937.79,-46.02 944.79,-46.02"/>
<text text-anchor="middle" x="936.29" y="-39.82" font-family="Times,serif" font-size="14.00">3</text>
</g>
<!-- ric.RicSetSpeedX -->
<g id="node6" class="node">
<title>ric.RicSetSpeedX</title>
<g id="a_node6"><a xlink:href="ric.RicSetSpeedX.svg" xlink:title="ric.RicSetSpeedX">
<ellipse fill="green" stroke="black" cx="1153.29" cy="-18" rx="90.98" ry="18"/>
<text text-anchor="middle" x="1153.29" y="-14.3" font-family="Times,serif" font-size="14.00">ric.RicSetSpeedX</text>
</a>
</g>
</g>
<!-- ric.RicHandleJump&#45;&gt;ric.RicSetSpeedX -->
<g id="edge5" class="edge">
<title>ric.RicHandleJump&#45;&gt;ric.RicSetSpeedX</title>
<path fill="none" stroke="black" d="M961.23,-180.25C999.29,-148.3 1082.33,-78.58 1125.69,-42.18"/>
<polygon fill="black" stroke="black" points="1128.14,-44.68 1133.55,-35.57 1123.64,-39.32 1128.14,-44.68"/>
<text text-anchor="middle" x="1128.55" y="-39.37" font-family="Times,serif" font-size="14.00">8</text>
</g>
<!-- ric.func_8015CB58 -->
<g id="node7" class="node">
<title>ric.func_8015CB58</title>
<g id="a_node7"><a xlink:href="ric.func_8015CB58.svg" xlink:title="ric.func_8015CB58">
<ellipse fill="green" stroke="black" cx="1361.29" cy="-18" rx="98.58" ry="18"/>
<text text-anchor="middle" x="1361.29" y="-14.3" font-family="Times,serif" font-size="14.00">ric.func_8015CB58</text>
</a>
</g>
</g>
<!-- ric.RicHandleJump&#45;&gt;ric.func_8015CB58 -->
<g id="edge6" class="edge">
<title>ric.RicHandleJump&#45;&gt;ric.func_8015CB58</title>
<path fill="none" stroke="black" d="M978.56,-181.2C1055.31,-148.68 1230.8,-74.3 1314.81,-38.7"/>
<polygon fill="black" stroke="black" points="1316.26,-41.89 1324.1,-34.76 1313.53,-35.44 1316.26,-41.89"/>
<text text-anchor="middle" x="1319.1" y="-38.56" font-family="Times,serif" font-size="14.00">3</text>
</g>
<!-- ric.func_8015DBB0 -->
<g id="node8" class="node">
<title>ric.func_8015DBB0</title>
<g id="a_node8"><a xlink:href="ric.func_8015DBB0.svg" xlink:title="ric.func_8015DBB0">
<ellipse fill="green" stroke="black" cx="1579.29" cy="-18" rx="100.98" ry="18"/>
<text text-anchor="middle" x="1579.29" y="-14.3" font-family="Times,serif" font-size="14.00">ric.func_8015DBB0</text>
</a>
</g>
</g>
<!-- ric.RicHandleJump&#45;&gt;ric.func_8015DBB0 -->
<g id="edge7" class="edge">
<title>ric.RicHandleJump&#45;&gt;ric.func_8015DBB0</title>
<path fill="none" stroke="black" d="M992.69,-182.66C1108.9,-150.24 1391.5,-71.39 1517.22,-36.32"/>
<polygon fill="black" stroke="black" points="1518.39,-39.63 1527.08,-33.57 1516.51,-32.88 1518.39,-39.63"/>
<text text-anchor="middle" x="1522.08" y="-37.37" font-family="Times,serif" font-size="14.00">1</text>
</g>
<!-- ric.RicMain -->
<g id="node9" class="node">
<title>ric.RicMain</title>
<g id="a_node9"><a xlink:href="ric.RicMain.svg" xlink:title="ric.RicMain">
<ellipse fill="green" stroke="black" cx="941.29" cy="-378" rx="63.89" ry="18"/>
<text text-anchor="middle" x="941.29" y="-374.3" font-family="Times,serif" font-size="14.00">ric.RicMain</text>
</a>
</g>
</g>
<!-- ric.RicMain&#45;&gt;ric.RicHandleJump -->
<g id="edge8" class="edge">
<title>ric.RicMain&#45;&gt;ric.RicHandleJump</title>
<path fill="none" stroke="black" d="M941.29,-359.93C941.29,-328.97 941.29,-263.3 941.29,-226.13"/>
<polygon fill="black" stroke="black" points="944.79,-226.02 941.29,-216.02 937.79,-226.02 944.79,-226.02"/>
<text text-anchor="middle" x="936.29" y="-348.73" font-family="Times,serif" font-size="14.00">1</text>
</g>
</g>
</svg>
