<?xml version="1.0" encoding="UTF-8" standalone="no"?>
<!DOCTYPE svg PUBLIC "-//W3C//DTD SVG 1.1//EN"
 "http://www.w3.org/Graphics/SVG/1.1/DTD/svg11.dtd">
<!-- Generated by graphviz version 2.43.0 (0)
 -->
<!-- Title: ric.func_8015FB84 Pages: 1 -->
<svg width="599pt" height="224pt"
 viewBox="0.00 0.00 598.73 224.00" xmlns="http://www.w3.org/2000/svg" xmlns:xlink="http://www.w3.org/1999/xlink">
<g id="graph0" class="graph" transform="scale(1 1) rotate(0) translate(4 220)">
<title>ric.func_8015FB84</title>
<polygon fill="white" stroke="transparent" points="-4,4 -4,-220 594.73,-220 594.73,4 -4,4"/>
<!-- ric.func_8015FB84 -->
<g id="node1" class="node">
<title>ric.func_8015FB84</title>
<ellipse fill="green" stroke="black" cx="277.59" cy="-18" rx="98.58" ry="18"/>
<text text-anchor="middle" x="277.59" y="-14.3" font-family="Times,serif" font-size="14.00">ric.func_8015FB84</text>
</g>
<!-- ric.RicDoCrash -->
<g id="node2" class="node">
<title>ric.RicDoCrash</title>
<g id="a_node2"><a xlink:href="ric.RicDoCrash.svg" xlink:title="ric.RicDoCrash">
<ellipse fill="green" stroke="black" cx="80.59" cy="-198" rx="80.69" ry="18"/>
<text text-anchor="middle" x="80.59" y="-194.3" font-family="Times,serif" font-size="14.00">ric.RicDoCrash</text>
</a>
</g>
</g>
<!-- ric.RicDoCrash&#45;&gt;ric.func_8015FB84 -->
<g id="edge1" class="edge">
<title>ric.RicDoCrash&#45;&gt;ric.func_8015FB84</title>
<path fill="none" stroke="black" d="M99.13,-180.25C134.33,-148.45 210.94,-79.22 251.38,-42.68"/>
<polygon fill="black" stroke="black" points="253.89,-45.13 258.97,-35.83 249.2,-39.94 253.89,-45.13"/>
<text text-anchor="middle" x="94.13" y="-169.05" font-family="Times,serif" font-size="14.00">2</text>
</g>
<!-- ric.func_8015D250 -->
<g id="node3" class="node">
<title>ric.func_8015D250</title>
<g id="a_node3"><a xlink:href="ric.func_8015D250.svg" xlink:title="ric.func_8015D250">
<ellipse fill="green" stroke="black" cx="277.59" cy="-198" rx="98.58" ry="18"/>
<text text-anchor="middle" x="277.59" y="-194.3" font-family="Times,serif" font-size="14.00">ric.func_8015D250</text>
</a>
</g>
</g>
<!-- ric.func_8015D250&#45;&gt;ric.func_8015FB84 -->
<g id="edge2" class="edge">
<title>ric.func_8015D250&#45;&gt;ric.func_8015FB84</title>
<path fill="none" stroke="black" d="M277.59,-179.93C277.59,-148.97 277.59,-83.3 277.59,-46.13"/>
<polygon fill="black" stroke="black" points="281.09,-46.02 277.59,-36.02 274.09,-46.02 281.09,-46.02"/>
<text text-anchor="middle" x="272.59" y="-168.73" font-family="Times,serif" font-size="14.00">2</text>
</g>
<!-- ric.func_801603C4 -->
<g id="node4" class="node">
<title>ric.func_801603C4</title>
<g id="a_node4"><a xlink:href="ric.func_801603C4.svg" xlink:title="ric.func_801603C4">
<ellipse fill="green" stroke="black" cx="492.59" cy="-198" rx="98.28" ry="18"/>
<text text-anchor="middle" x="492.59" y="-194.3" font-family="Times,serif" font-size="14.00">ric.func_801603C4</text>
</a>
</g>
</g>
<!-- ric.func_801603C4&#45;&gt;ric.func_8015FB84 -->
<g id="edge3" class="edge">
<title>ric.func_801603C4&#45;&gt;ric.func_8015FB84</title>
<path fill="none" stroke="black" d="M472.37,-180.25C433.79,-148.32 349.64,-78.65 305.65,-42.23"/>
<polygon fill="black" stroke="black" points="307.86,-39.51 297.92,-35.83 303.39,-44.9 307.86,-39.51"/>
<text text-anchor="middle" x="467.37" y="-169.05" font-family="Times,serif" font-size="14.00">1</text>
</g>
</g>
</svg>
