<?xml version="1.0" encoding="UTF-8" standalone="no"?>
<!DOCTYPE svg PUBLIC "-//W3C//DTD SVG 1.1//EN"
 "http://www.w3.org/Graphics/SVG/1.1/DTD/svg11.dtd">
<!-- Generated by graphviz version 2.43.0 (0)
 -->
<!-- Title: ric.func_8015B898 Pages: 1 -->
<svg width="1170pt" height="404pt"
 viewBox="0.00 0.00 1170.23 404.00" xmlns="http://www.w3.org/2000/svg" xmlns:xlink="http://www.w3.org/1999/xlink">
<g id="graph0" class="graph" transform="scale(1 1) rotate(0) translate(4 400)">
<title>ric.func_8015B898</title>
<polygon fill="white" stroke="transparent" points="-4,4 -4,-400 1166.23,-400 1166.23,4 -4,4"/>
<!-- ric.func_8015B898 -->
<g id="node1" class="node">
<title>ric.func_8015B898</title>
<ellipse fill="green" stroke="black" cx="626.49" cy="-198" rx="98.28" ry="18"/>
<text text-anchor="middle" x="626.49" y="-194.3" font-family="Times,serif" font-size="14.00">ric.func_8015B898</text>
</g>
<!-- ric.CreateEntFactoryFromEntity -->
<g id="node2" class="node">
<title>ric.CreateEntFactoryFromEntity</title>
<g id="a_node2"><a xlink:href="ric.CreateEntFactoryFromEntity.svg" xlink:title="ric.CreateEntFactoryFromEntity">
<ellipse fill="green" stroke="black" cx="162.49" cy="-18" rx="162.47" ry="18"/>
<text text-anchor="middle" x="162.49" y="-14.3" font-family="Times,serif" font-size="14.00">ric.CreateEntFactoryFromEntity</text>
</a>
</g>
</g>
<!-- ric.func_8015B898&#45;&gt;ric.CreateEntFactoryFromEntity -->
<g id="edge1" class="edge">
<title>ric.func_8015B898&#45;&gt;ric.CreateEntFactoryFromEntity</title>
<path fill="none" stroke="black" d="M586.12,-181.52C502.11,-149.29 308.53,-75.03 214.98,-39.14"/>
<polygon fill="black" stroke="black" points="216.03,-35.79 205.44,-35.48 213.52,-42.33 216.03,-35.79"/>
<text text-anchor="middle" x="200.44" y="-39.28" font-family="Times,serif" font-size="14.00">3</text>
</g>
<!-- ric.DecelerateX -->
<g id="node3" class="node">
<title>ric.DecelerateX</title>
<g id="a_node3"><a xlink:href="ric.DecelerateX.svg" xlink:title="ric.DecelerateX">
<ellipse fill="green" stroke="black" cx="425.49" cy="-18" rx="82.59" ry="18"/>
<text text-anchor="middle" x="425.49" y="-14.3" font-family="Times,serif" font-size="14.00">ric.DecelerateX</text>
</a>
</g>
</g>
<!-- ric.func_8015B898&#45;&gt;ric.DecelerateX -->
<g id="edge2" class="edge">
<title>ric.func_8015B898&#45;&gt;ric.DecelerateX</title>
<path fill="none" stroke="black" d="M607.58,-180.25C571.57,-148.37 493.09,-78.87 451.91,-42.4"/>
<polygon fill="black" stroke="black" points="454.01,-39.58 444.2,-35.57 449.36,-44.82 454.01,-39.58"/>
<text text-anchor="middle" x="439.2" y="-39.37" font-family="Times,serif" font-size="14.00">1</text>
</g>
<!-- ric.func_8015CCC8 -->
<g id="node4" class="node">
<title>ric.func_8015CCC8</title>
<g id="a_node4"><a xlink:href="ric.func_8015CCC8.svg" xlink:title="ric.func_8015CCC8">
<ellipse fill="green" stroke="black" cx="626.49" cy="-18" rx="100.18" ry="18"/>
<text text-anchor="middle" x="626.49" y="-14.3" font-family="Times,serif" font-size="14.00">ric.func_8015CCC8</text>
</a>
</g>
</g>
<!-- ric.func_8015B898&#45;&gt;ric.func_8015CCC8 -->
<g id="edge3" class="edge">
<title>ric.func_8015B898&#45;&gt;ric.func_8015CCC8</title>
<path fill="none" stroke="black" d="M626.49,-179.93C626.49,-148.97 626.49,-83.3 626.49,-46.13"/>
<polygon fill="black" stroke="black" points="629.99,-46.02 626.49,-36.02 622.99,-46.02 629.99,-46.02"/>
<text text-anchor="middle" x="621.49" y="-39.82" font-family="Times,serif" font-size="14.00">1</text>
</g>
<!-- ric.func_8015DA60 -->
<g id="node5" class="node">
<title>ric.func_8015DA60</title>
<g id="a_node5"><a xlink:href="ric.func_8015DA60.svg" xlink:title="ric.func_8015DA60">
<ellipse fill="green" stroke="black" cx="843.49" cy="-18" rx="98.58" ry="18"/>
<text text-anchor="middle" x="843.49" y="-14.3" font-family="Times,serif" font-size="14.00">ric.func_8015DA60</text>
</a>
</g>
</g>
<!-- ric.func_8015B898&#45;&gt;ric.func_8015DA60 -->
<g id="edge4" class="edge">
<title>ric.func_8015B898&#45;&gt;ric.func_8015DA60</title>
<path fill="none" stroke="black" d="M646.9,-180.25C685.84,-148.32 770.77,-78.65 815.17,-42.23"/>
<polygon fill="black" stroke="black" points="817.46,-44.88 822.97,-35.83 813.02,-39.47 817.46,-44.88"/>
<text text-anchor="middle" x="817.97" y="-39.63" font-family="Times,serif" font-size="14.00">1</text>
</g>
<!-- ric.func_8015DBB0 -->
<g id="node6" class="node">
<title>ric.func_8015DBB0</title>
<g id="a_node6"><a xlink:href="ric.func_8015DBB0.svg" xlink:title="ric.func_8015DBB0">
<ellipse fill="green" stroke="black" cx="1061.49" cy="-18" rx="100.98" ry="18"/>
<text text-anchor="middle" x="1061.49" y="-14.3" font-family="Times,serif" font-size="14.00">ric.func_8015DBB0</text>
</a>
</g>
</g>
<!-- ric.func_8015B898&#45;&gt;ric.func_8015DBB0 -->
<g id="edge5" class="edge">
<title>ric.func_8015B898&#45;&gt;ric.func_8015DBB0</title>
<path fill="none" stroke="black" d="M664.71,-181.36C744.14,-148.86 926.88,-74.08 1013.83,-38.5"/>
<polygon fill="black" stroke="black" points="1015.27,-41.69 1023.19,-34.67 1012.61,-35.22 1015.27,-41.69"/>
<text text-anchor="middle" x="1018.19" y="-38.47" font-family="Times,serif" font-size="14.00">2</text>
</g>
<!-- ric.UpdateEntityRichter -->
<g id="node7" class="node">
<title>ric.UpdateEntityRichter</title>
<g id="a_node7"><a xlink:href="ric.UpdateEntityRichter.svg" xlink:title="ric.UpdateEntityRichter">
<ellipse fill="green" stroke="black" cx="626.49" cy="-378" rx="122.68" ry="18"/>
<text text-anchor="middle" x="626.49" y="-374.3" font-family="Times,serif" font-size="14.00">ric.UpdateEntityRichter</text>
</a>
</g>
</g>
<!-- ric.UpdateEntityRichter&#45;&gt;ric.func_8015B898 -->
<g id="edge6" class="edge">
<title>ric.UpdateEntityRichter&#45;&gt;ric.func_8015B898</title>
<path fill="none" stroke="black" d="M626.49,-359.93C626.49,-328.97 626.49,-263.3 626.49,-226.13"/>
<polygon fill="black" stroke="black" points="629.99,-226.02 626.49,-216.02 622.99,-226.02 629.99,-226.02"/>
<text text-anchor="middle" x="621.49" y="-348.73" font-family="Times,serif" font-size="14.00">1</text>
</g>
</g>
</svg>
