<?xml version="1.0" encoding="UTF-8" standalone="no"?>
<!DOCTYPE svg PUBLIC "-//W3C//DTD SVG 1.1//EN"
 "http://www.w3.org/Graphics/SVG/1.1/DTD/svg11.dtd">
<!-- Generated by graphviz version 2.43.0 (0)
 -->
<!-- Title: ric.func_8015CAD4 Pages: 1 -->
<svg width="470pt" height="404pt"
 viewBox="0.00 0.00 469.63 404.00" xmlns="http://www.w3.org/2000/svg" xmlns:xlink="http://www.w3.org/1999/xlink">
<g id="graph0" class="graph" transform="scale(1 1) rotate(0) translate(4 400)">
<title>ric.func_8015CAD4</title>
<polygon fill="white" stroke="transparent" points="-4,4 -4,-400 465.63,-400 465.63,4 -4,4"/>
<!-- ric.func_8015CAD4 -->
<g id="node1" class="node">
<title>ric.func_8015CAD4</title>
<ellipse fill="green" stroke="black" cx="242.84" cy="-198" rx="100.18" ry="18"/>
<text text-anchor="middle" x="242.84" y="-194.3" font-family="Times,serif" font-size="14.00">ric.func_8015CAD4</text>
</g>
<!-- ric.CreateEntFactoryFromEntity -->
<g id="node2" class="node">
<title>ric.CreateEntFactoryFromEntity</title>
<g id="a_node2"><a xlink:href="ric.CreateEntFactoryFromEntity.svg" xlink:title="ric.CreateEntFactoryFromEntity">
<ellipse fill="green" stroke="black" cx="242.84" cy="-18" rx="162.47" ry="18"/>
<text text-anchor="middle" x="242.84" y="-14.3" font-family="Times,serif" font-size="14.00">ric.CreateEntFactoryFromEntity</text>
</a>
</g>
</g>
<!-- ric.func_8015CAD4&#45;&gt;ric.CreateEntFactoryFromEntity -->
<g id="edge1" class="edge">
<title>ric.func_8015CAD4&#45;&gt;ric.CreateEntFactoryFromEntity</title>
<path fill="none" stroke="black" d="M242.84,-179.93C242.84,-148.97 242.84,-83.3 242.84,-46.13"/>
<polygon fill="black" stroke="black" points="246.34,-46.02 242.84,-36.02 239.34,-46.02 246.34,-46.02"/>
<text text-anchor="middle" x="237.84" y="-39.82" font-family="Times,serif" font-size="14.00">1</text>
</g>
<!-- ric.UpdateEntityRichter -->
<g id="node3" class="node">
<title>ric.UpdateEntityRichter</title>
<g id="a_node3"><a xlink:href="ric.UpdateEntityRichter.svg" xlink:title="ric.UpdateEntityRichter">
<ellipse fill="red" stroke="black" cx="122.84" cy="-378" rx="122.68" ry="18"/>
<text text-anchor="middle" x="122.84" y="-374.3" font-family="Times,serif" font-size="14.00">ric.UpdateEntityRichter</text>
</a>
</g>
</g>
<!-- ric.UpdateEntityRichter&#45;&gt;ric.func_8015CAD4 -->
<g id="edge2" class="edge">
<title>ric.UpdateEntityRichter&#45;&gt;ric.func_8015CAD4</title>
<path fill="none" stroke="black" d="M134.35,-359.93C155.49,-328.57 200.64,-261.6 225.51,-224.71"/>
<polygon fill="black" stroke="black" points="228.68,-226.26 231.37,-216.02 222.88,-222.35 228.68,-226.26"/>
<text text-anchor="middle" x="129.35" y="-348.73" font-family="Times,serif" font-size="14.00">4</text>
</g>
<!-- ric.func_80162EF8 -->
<g id="node4" class="node">
<title>ric.func_80162EF8</title>
<g id="a_node4"><a xlink:href="ric.func_80162EF8.svg" xlink:title="ric.func_80162EF8">
<ellipse fill="red" stroke="black" cx="362.84" cy="-378" rx="98.58" ry="18"/>
<text text-anchor="middle" x="362.84" y="-374.3" font-family="Times,serif" font-size="14.00">ric.func_80162EF8</text>
</a>
</g>
</g>
<!-- ric.func_80162EF8&#45;&gt;ric.func_8015CAD4 -->
<g id="edge3" class="edge">
<title>ric.func_80162EF8&#45;&gt;ric.func_8015CAD4</title>
<path fill="none" stroke="black" d="M351.33,-359.93C330.19,-328.57 285.04,-261.6 260.17,-224.71"/>
<polygon fill="black" stroke="black" points="262.8,-222.35 254.31,-216.02 257,-226.26 262.8,-222.35"/>
<text text-anchor="middle" x="346.33" y="-348.73" font-family="Times,serif" font-size="14.00">1</text>
</g>
</g>
</svg>
