<?xml version="1.0" encoding="UTF-8" standalone="no"?>
<!DOCTYPE svg PUBLIC "-//W3C//DTD SVG 1.1//EN"
 "http://www.w3.org/Graphics/SVG/1.1/DTD/svg11.dtd">
<!-- Generated by graphviz version 2.43.0 (0)
 -->
<!-- Title: ric.func_8016D4D8 Pages: 1 -->
<svg width="1134pt" height="224pt"
 viewBox="0.00 0.00 1134.04 224.00" xmlns="http://www.w3.org/2000/svg" xmlns:xlink="http://www.w3.org/1999/xlink">
<g id="graph0" class="graph" transform="scale(1 1) rotate(0) translate(4 220)">
<title>ric.func_8016D4D8</title>
<polygon fill="white" stroke="transparent" points="-4,4 -4,-220 1130.04,-220 1130.04,4 -4,4"/>
<!-- ric.func_8016D4D8 -->
<g id="node1" class="node">
<title>ric.func_8016D4D8</title>
<ellipse fill="red" stroke="black" cx="477.44" cy="-198" rx="100.18" ry="18"/>
<text text-anchor="middle" x="477.44" y="-194.3" font-family="Times,serif" font-size="14.00">ric.func_8016D4D8</text>
</g>
<!-- dra.AllocPrimitives -->
<g id="node2" class="node">
<title>dra.AllocPrimitives</title>
<g id="a_node2"><a xlink:href="dra.AllocPrimitives.svg" xlink:title="dra.AllocPrimitives">
<ellipse fill="green" stroke="black" cx="99.44" cy="-18" rx="99.38" ry="18"/>
<text text-anchor="middle" x="99.44" y="-14.3" font-family="Times,serif" font-size="14.00">dra.AllocPrimitives</text>
</a>
</g>
</g>
<!-- ric.func_8016D4D8&#45;&gt;dra.AllocPrimitives -->
<g id="edge1" class="edge">
<title>ric.func_8016D4D8&#45;&gt;dra.AllocPrimitives</title>
<path fill="none" stroke="black" d="M443.56,-181.05C374.75,-148.64 218.7,-75.16 142.68,-39.36"/>
<polygon fill="black" stroke="black" points="143.92,-36.08 133.38,-34.98 140.93,-42.41 143.92,-36.08"/>
<text text-anchor="middle" x="128.38" y="-38.78" font-family="Times,serif" font-size="14.00">1</text>
</g>
<!-- dra.PlaySfx -->
<g id="node3" class="node">
<title>dra.PlaySfx</title>
<g id="a_node3"><a xlink:href="dra.PlaySfx.svg" xlink:title="dra.PlaySfx">
<ellipse fill="green" stroke="black" cx="281.44" cy="-18" rx="64.19" ry="18"/>
<text text-anchor="middle" x="281.44" y="-14.3" font-family="Times,serif" font-size="14.00">dra.PlaySfx</text>
</a>
</g>
</g>
<!-- ric.func_8016D4D8&#45;&gt;dra.PlaySfx -->
<g id="edge2" class="edge">
<title>ric.func_8016D4D8&#45;&gt;dra.PlaySfx</title>
<path fill="none" stroke="black" d="M459,-180.25C423.8,-148.29 346.98,-78.52 306.91,-42.13"/>
<polygon fill="black" stroke="black" points="309.16,-39.45 299.4,-35.31 304.45,-44.63 309.16,-39.45"/>
<text text-anchor="middle" x="294.4" y="-39.11" font-family="Times,serif" font-size="14.00">1</text>
</g>
<!-- rand -->
<g id="node4" class="node">
<title>rand</title>
<g id="a_node4"><a xlink:href="rand.svg" xlink:title="rand">
<ellipse fill="lightblue" stroke="black" cx="396.44" cy="-18" rx="32.49" ry="18"/>
<text text-anchor="middle" x="396.44" y="-14.3" font-family="Times,serif" font-size="14.00">rand</text>
</a>
</g>
</g>
<!-- ric.func_8016D4D8&#45;&gt;rand -->
<g id="edge3" class="edge">
<title>ric.func_8016D4D8&#45;&gt;rand</title>
<path fill="none" stroke="black" d="M469.67,-179.93C455.43,-148.62 425.03,-81.83 408.22,-44.9"/>
<polygon fill="black" stroke="black" points="411.39,-43.41 404.07,-35.76 405.02,-46.31 411.39,-43.41"/>
<text text-anchor="middle" x="399.07" y="-39.56" font-family="Times,serif" font-size="14.00">2</text>
</g>
<!-- rcos -->
<g id="node5" class="node">
<title>rcos</title>
<g id="a_node5"><a xlink:href="rcos.svg" xlink:title="rcos">
<ellipse fill="lightblue" stroke="black" cx="477.44" cy="-18" rx="30.59" ry="18"/>
<text text-anchor="middle" x="477.44" y="-14.3" font-family="Times,serif" font-size="14.00">rcos</text>
</a>
</g>
</g>
<!-- ric.func_8016D4D8&#45;&gt;rcos -->
<g id="edge4" class="edge">
<title>ric.func_8016D4D8&#45;&gt;rcos</title>
<path fill="none" stroke="black" d="M477.44,-179.93C477.44,-148.97 477.44,-83.3 477.44,-46.13"/>
<polygon fill="black" stroke="black" points="480.94,-46.02 477.44,-36.02 473.94,-46.02 480.94,-46.02"/>
<text text-anchor="middle" x="472.44" y="-39.82" font-family="Times,serif" font-size="14.00">1</text>
</g>
<!-- ric.CreateEntFactoryFromEntity -->
<g id="node6" class="node">
<title>ric.CreateEntFactoryFromEntity</title>
<g id="a_node6"><a xlink:href="ric.CreateEntFactoryFromEntity.svg" xlink:title="ric.CreateEntFactoryFromEntity">
<ellipse fill="green" stroke="black" cx="688.44" cy="-18" rx="162.47" ry="18"/>
<text text-anchor="middle" x="688.44" y="-14.3" font-family="Times,serif" font-size="14.00">ric.CreateEntFactoryFromEntity</text>
</a>
</g>
</g>
<!-- ric.func_8016D4D8&#45;&gt;ric.CreateEntFactoryFromEntity -->
<g id="edge5" class="edge">
<title>ric.func_8016D4D8&#45;&gt;ric.CreateEntFactoryFromEntity</title>
<path fill="none" stroke="black" d="M497.29,-180.25C534.98,-148.46 616.97,-79.29 660.31,-42.73"/>
<polygon fill="black" stroke="black" points="662.79,-45.22 668.18,-36.09 658.28,-39.86 662.79,-45.22"/>
<text text-anchor="middle" x="663.18" y="-39.89" font-family="Times,serif" font-size="14.00">1</text>
</g>
<!-- ric.DestroyEntity -->
<g id="node7" class="node">
<title>ric.DestroyEntity</title>
<g id="a_node7"><a xlink:href="ric.DestroyEntity.svg" xlink:title="ric.DestroyEntity">
<ellipse fill="green" stroke="black" cx="959.44" cy="-18" rx="90.98" ry="18"/>
<text text-anchor="middle" x="959.44" y="-14.3" font-family="Times,serif" font-size="14.00">ric.DestroyEntity</text>
</a>
</g>
</g>
<!-- ric.func_8016D4D8&#45;&gt;ric.DestroyEntity -->
<g id="edge6" class="edge">
<title>ric.func_8016D4D8&#45;&gt;ric.DestroyEntity</title>
<path fill="none" stroke="black" d="M519.37,-181.52C607.84,-148.85 813.26,-72.98 908.84,-37.69"/>
<polygon fill="black" stroke="black" points="910.12,-40.94 918.29,-34.2 907.7,-34.38 910.12,-40.94"/>
<text text-anchor="middle" x="913.29" y="-38" font-family="Times,serif" font-size="14.00">2</text>
</g>
<!-- rsin -->
<g id="node8" class="node">
<title>rsin</title>
<g id="a_node8"><a xlink:href="rsin.svg" xlink:title="rsin">
<ellipse fill="lightblue" stroke="black" cx="1097.44" cy="-18" rx="28.7" ry="18"/>
<text text-anchor="middle" x="1097.44" y="-14.3" font-family="Times,serif" font-size="14.00">rsin</text>
</a>
</g>
</g>
<!-- ric.func_8016D4D8&#45;&gt;rsin -->
<g id="edge7" class="edge">
<title>ric.func_8016D4D8&#45;&gt;rsin</title>
<path fill="none" stroke="black" d="M537.43,-183.57C644.02,-159 872.75,-103.15 1059.44,-36 1061.54,-35.24 1063.69,-34.42 1065.84,-33.57"/>
<polygon fill="black" stroke="black" points="1067.31,-36.74 1075.17,-29.64 1064.59,-30.29 1067.31,-36.74"/>
<text text-anchor="middle" x="1070.17" y="-33.44" font-family="Times,serif" font-size="14.00">1</text>
</g>
</g>
</svg>
