<?xml version="1.0" encoding="UTF-8" standalone="no"?>
<!DOCTYPE svg PUBLIC "-//W3C//DTD SVG 1.1//EN"
 "http://www.w3.org/Graphics/SVG/1.1/DTD/svg11.dtd">
<!-- Generated by graphviz version 2.43.0 (0)
 -->
<!-- Title: ric.UpdateEntityRichter Pages: 1 -->
<svg width="8380pt" height="224pt"
 viewBox="0.00 0.00 8379.64 224.00" xmlns="http://www.w3.org/2000/svg" xmlns:xlink="http://www.w3.org/1999/xlink">
<g id="graph0" class="graph" transform="scale(1 1) rotate(0) translate(4 220)">
<title>ric.UpdateEntityRichter</title>
<polygon fill="white" stroke="transparent" points="-4,4 -4,-220 8375.64,-220 8375.64,4 -4,4"/>
<!-- ric.UpdateEntityRichter -->
<g id="node1" class="node">
<title>ric.UpdateEntityRichter</title>
<ellipse fill="green" stroke="black" cx="4313.05" cy="-198" rx="122.68" ry="18"/>
<text text-anchor="middle" x="4313.05" y="-194.3" font-family="Times,serif" font-size="14.00">ric.UpdateEntityRichter</text>
</g>
<!-- FntPrint -->
<g id="node2" class="node">
<title>FntPrint</title>
<g id="a_node2"><a xlink:href="FntPrint.svg" xlink:title="FntPrint">
<ellipse fill="lightblue" stroke="black" cx="50.05" cy="-18" rx="50.09" ry="18"/>
<text text-anchor="middle" x="50.05" y="-14.3" font-family="Times,serif" font-size="14.00">FntPrint</text>
</a>
</g>
</g>
<!-- ric.UpdateEntityRichter&#45;&gt;FntPrint -->
<g id="edge1" class="edge">
<title>ric.UpdateEntityRichter&#45;&gt;FntPrint</title>
<path fill="none" stroke="black" d="M4190.72,-196.31C3587.47,-192.29 925.62,-167.28 109.05,-36 104.6,-35.29 100.02,-34.35 95.47,-33.27"/>
<polygon fill="black" stroke="black" points="96.17,-29.84 85.61,-30.75 94.43,-36.62 96.17,-29.84"/>
<text text-anchor="middle" x="80.61" y="-34.55" font-family="Times,serif" font-size="14.00">1</text>
</g>
<!-- dra.UpdateAnim -->
<g id="node3" class="node">
<title>dra.UpdateAnim</title>
<g id="a_node3"><a xlink:href="dra.UpdateAnim.svg" xlink:title="dra.UpdateAnim">
<ellipse fill="green" stroke="black" cx="205.05" cy="-18" rx="87.18" ry="18"/>
<text text-anchor="middle" x="205.05" y="-14.3" font-family="Times,serif" font-size="14.00">dra.UpdateAnim</text>
</a>
</g>
</g>
<!-- ric.UpdateEntityRichter&#45;&gt;dra.UpdateAnim -->
<g id="edge2" class="edge">
<title>ric.UpdateEntityRichter&#45;&gt;dra.UpdateAnim</title>
<path fill="none" stroke="black" d="M4192.45,-194.36C3609.98,-181.29 1083.98,-120.64 301.05,-36 292.76,-35.1 284.11,-33.92 275.54,-32.6"/>
<polygon fill="black" stroke="black" points="275.98,-29.13 265.55,-30.99 274.87,-36.04 275.98,-29.13"/>
<text text-anchor="middle" x="260.55" y="-34.79" font-family="Times,serif" font-size="14.00">1</text>
</g>
<!-- dra.func_800FD5BC -->
<g id="node4" class="node">
<title>dra.func_800FD5BC</title>
<g id="a_node4"><a xlink:href="dra.func_800FD5BC.svg" xlink:title="dra.func_800FD5BC">
<ellipse fill="green" stroke="black" cx="415.05" cy="-18" rx="104.78" ry="18"/>
<text text-anchor="middle" x="415.05" y="-14.3" font-family="Times,serif" font-size="14.00">dra.func_800FD5BC</text>
</a>
</g>
</g>
<!-- ric.UpdateEntityRichter&#45;&gt;dra.func_800FD5BC -->
<g id="edge3" class="edge">
<title>ric.UpdateEntityRichter&#45;&gt;dra.func_800FD5BC</title>
<path fill="none" stroke="black" d="M4190.58,-196.54C3717.46,-193.76 1963.86,-174.14 528.05,-36 518.12,-35.05 507.74,-33.81 497.46,-32.44"/>
<polygon fill="black" stroke="black" points="497.63,-28.93 487.24,-31.03 496.67,-35.87 497.63,-28.93"/>
<text text-anchor="middle" x="482.24" y="-34.83" font-family="Times,serif" font-size="14.00">1</text>
</g>
<!-- ric.CheckBladeDashInput -->
<g id="node5" class="node">
<title>ric.CheckBladeDashInput</title>
<g id="a_node5"><a xlink:href="ric.CheckBladeDashInput.svg" xlink:title="ric.CheckBladeDashInput">
<ellipse fill="green" stroke="black" cx="666.05" cy="-18" rx="128.88" ry="18"/>
<text text-anchor="middle" x="666.05" y="-14.3" font-family="Times,serif" font-size="14.00">ric.CheckBladeDashInput</text>
</a>
</g>
</g>
<!-- ric.UpdateEntityRichter&#45;&gt;ric.CheckBladeDashInput -->
<g id="edge4" class="edge">
<title>ric.UpdateEntityRichter&#45;&gt;ric.CheckBladeDashInput</title>
<path fill="none" stroke="black" d="M4192,-194.81C3742.84,-185.97 2129.17,-147.85 804.05,-36 791.61,-34.95 778.58,-33.63 765.69,-32.2"/>
<polygon fill="black" stroke="black" points="765.73,-28.68 755.39,-31.02 764.93,-35.63 765.73,-28.68"/>
<text text-anchor="middle" x="750.39" y="-34.82" font-family="Times,serif" font-size="14.00">1</text>
</g>
<!-- ric.CheckHighJumpInput -->
<g id="node6" class="node">
<title>ric.CheckHighJumpInput</title>
<g id="a_node6"><a xlink:href="ric.CheckHighJumpInput.svg" xlink:title="ric.CheckHighJumpInput">
<ellipse fill="green" stroke="black" cx="938.05" cy="-18" rx="125.38" ry="18"/>
<text text-anchor="middle" x="938.05" y="-14.3" font-family="Times,serif" font-size="14.00">ric.CheckHighJumpInput</text>
</a>
</g>
</g>
<!-- ric.UpdateEntityRichter&#45;&gt;ric.CheckHighJumpInput -->
<g id="edge5" class="edge">
<title>ric.UpdateEntityRichter&#45;&gt;ric.CheckHighJumpInput</title>
<path fill="none" stroke="black" d="M4192.56,-194.3C3766.03,-184.04 2288.05,-142.53 1073.05,-36 1060.88,-34.93 1048.13,-33.6 1035.52,-32.16"/>
<polygon fill="black" stroke="black" points="1035.79,-28.67 1025.45,-30.99 1034.98,-35.62 1035.79,-28.67"/>
<text text-anchor="middle" x="1020.45" y="-34.79" font-family="Times,serif" font-size="14.00">1</text>
</g>
<!-- ric.PlayerStepSlideKick -->
<g id="node7" class="node">
<title>ric.PlayerStepSlideKick</title>
<g id="a_node7"><a xlink:href="ric.PlayerStepSlideKick.svg" xlink:title="ric.PlayerStepSlideKick">
<ellipse fill="green" stroke="black" cx="1202.05" cy="-18" rx="120.48" ry="18"/>
<text text-anchor="middle" x="1202.05" y="-14.3" font-family="Times,serif" font-size="14.00">ric.PlayerStepSlideKick</text>
</a>
</g>
</g>
<!-- ric.UpdateEntityRichter&#45;&gt;ric.PlayerStepSlideKick -->
<g id="edge6" class="edge">
<title>ric.UpdateEntityRichter&#45;&gt;ric.PlayerStepSlideKick</title>
<path fill="none" stroke="black" d="M4193.49,-193.86C3789.89,-182.53 2440.98,-138.94 1331.05,-36 1319.54,-34.93 1307.47,-33.61 1295.54,-32.18"/>
<polygon fill="black" stroke="black" points="1295.91,-28.7 1285.56,-30.96 1295.06,-35.65 1295.91,-28.7"/>
<text text-anchor="middle" x="1280.56" y="-34.76" font-family="Times,serif" font-size="14.00">1</text>
</g>
<!-- ric.RicSetPlayerStep -->
<g id="node8" class="node">
<title>ric.RicSetPlayerStep</title>
<g id="a_node8"><a xlink:href="ric.RicSetPlayerStep.svg" xlink:title="ric.RicSetPlayerStep">
<ellipse fill="green" stroke="black" cx="1447.05" cy="-18" rx="107.48" ry="18"/>
<text text-anchor="middle" x="1447.05" y="-14.3" font-family="Times,serif" font-size="14.00">ric.RicSetPlayerStep</text>
</a>
</g>
</g>
<!-- ric.UpdateEntityRichter&#45;&gt;ric.RicSetPlayerStep -->
<g id="edge7" class="edge">
<title>ric.UpdateEntityRichter&#45;&gt;ric.RicSetPlayerStep</title>
<path fill="none" stroke="black" d="M4193.52,-193.66C3810.33,-182.18 2578.3,-139.19 1564.05,-36 1553.75,-34.95 1542.98,-33.66 1532.31,-32.26"/>
<polygon fill="black" stroke="black" points="1532.52,-28.75 1522.14,-30.88 1531.58,-35.69 1532.52,-28.75"/>
<text text-anchor="middle" x="1517.14" y="-34.68" font-family="Times,serif" font-size="14.00">3</text>
</g>
<!-- ric.RichterHandleDamage -->
<g id="node9" class="node">
<title>ric.RichterHandleDamage</title>
<g id="a_node9"><a xlink:href="ric.RichterHandleDamage.svg" xlink:title="ric.RichterHandleDamage">
<ellipse fill="green" stroke="black" cx="1704.05" cy="-18" rx="131.08" ry="18"/>
<text text-anchor="middle" x="1704.05" y="-14.3" font-family="Times,serif" font-size="14.00">ric.RichterHandleDamage</text>
</a>
</g>
</g>
<!-- ric.UpdateEntityRichter&#45;&gt;ric.RichterHandleDamage -->
<g id="edge8" class="edge">
<title>ric.UpdateEntityRichter&#45;&gt;ric.RichterHandleDamage</title>
<path fill="none" stroke="black" d="M4197.48,-191.76C3844.42,-175.25 2748.9,-120.37 1844.05,-36 1831.73,-34.85 1818.83,-33.5 1806.05,-32.06"/>
<polygon fill="black" stroke="black" points="1806.18,-28.55 1795.84,-30.89 1805.38,-35.5 1806.18,-28.55"/>
<text text-anchor="middle" x="1790.84" y="-34.69" font-family="Times,serif" font-size="14.00">1</text>
</g>
<!-- ric.func_80156CCC -->
<g id="node10" class="node">
<title>ric.func_80156CCC</title>
<g id="a_node10"><a xlink:href="ric.func_80156CCC.svg" xlink:title="ric.func_80156CCC">
<ellipse fill="green" stroke="black" cx="1953.05" cy="-18" rx="100.18" ry="18"/>
<text text-anchor="middle" x="1953.05" y="-14.3" font-family="Times,serif" font-size="14.00">ric.func_80156CCC</text>
</a>
</g>
</g>
<!-- ric.UpdateEntityRichter&#45;&gt;ric.func_80156CCC -->
<g id="edge9" class="edge">
<title>ric.UpdateEntityRichter&#45;&gt;ric.func_80156CCC</title>
<path fill="none" stroke="black" d="M4196.81,-192.05C3863.72,-177.13 2877.35,-127.9 2063.05,-36 2053.57,-34.93 2043.66,-33.64 2033.83,-32.26"/>
<polygon fill="black" stroke="black" points="2034.04,-28.75 2023.64,-30.79 2033.04,-35.68 2034.04,-28.75"/>
<text text-anchor="middle" x="2018.64" y="-34.59" font-family="Times,serif" font-size="14.00">1</text>
</g>
<!-- ric.func_80156DE4 -->
<g id="node11" class="node">
<title>ric.func_80156DE4</title>
<g id="a_node11"><a xlink:href="ric.func_80156DE4.svg" xlink:title="ric.func_80156DE4">
<ellipse fill="green" stroke="black" cx="2171.05" cy="-18" rx="99.38" ry="18"/>
<text text-anchor="middle" x="2171.05" y="-14.3" font-family="Times,serif" font-size="14.00">ric.func_80156DE4</text>
</a>
</g>
</g>
<!-- ric.UpdateEntityRichter&#45;&gt;ric.func_80156DE4 -->
<g id="edge10" class="edge">
<title>ric.UpdateEntityRichter&#45;&gt;ric.func_80156DE4</title>
<path fill="none" stroke="black" d="M4199.52,-191.03C3890.57,-174.14 3009.04,-121.59 2280.05,-36 2270.73,-34.91 2260.99,-33.61 2251.32,-32.22"/>
<polygon fill="black" stroke="black" points="2251.7,-28.74 2241.3,-30.76 2250.69,-35.67 2251.7,-28.74"/>
<text text-anchor="middle" x="2236.3" y="-34.56" font-family="Times,serif" font-size="14.00">1</text>
</g>
<!-- ric.func_801572A8 -->
<g id="node12" class="node">
<title>ric.func_801572A8</title>
<g id="a_node12"><a xlink:href="ric.func_801572A8.svg" xlink:title="ric.func_801572A8">
<ellipse fill="green" stroke="black" cx="2386.05" cy="-18" rx="97.48" ry="18"/>
<text text-anchor="middle" x="2386.05" y="-14.3" font-family="Times,serif" font-size="14.00">ric.func_801572A8</text>
</a>
</g>
</g>
<!-- ric.UpdateEntityRichter&#45;&gt;ric.func_801572A8 -->
<g id="edge11" class="edge">
<title>ric.UpdateEntityRichter&#45;&gt;ric.func_801572A8</title>
<path fill="none" stroke="black" d="M4203.01,-189.94C3919.16,-171.14 3139.2,-115.81 2493.05,-36 2484.07,-34.89 2474.68,-33.6 2465.37,-32.23"/>
<polygon fill="black" stroke="black" points="2465.71,-28.74 2455.3,-30.72 2464.67,-35.67 2465.71,-28.74"/>
<text text-anchor="middle" x="2450.3" y="-34.52" font-family="Times,serif" font-size="14.00">5</text>
</g>
<!-- ric.func_8015885C -->
<g id="node13" class="node">
<title>ric.func_8015885C</title>
<g id="a_node13"><a xlink:href="ric.func_8015885C.svg" xlink:title="ric.func_8015885C">
<ellipse fill="green" stroke="black" cx="2600.05" cy="-18" rx="98.28" ry="18"/>
<text text-anchor="middle" x="2600.05" y="-14.3" font-family="Times,serif" font-size="14.00">ric.func_8015885C</text>
</a>
</g>
</g>
<!-- ric.UpdateEntityRichter&#45;&gt;ric.func_8015885C -->
<g id="edge12" class="edge">
<title>ric.UpdateEntityRichter&#45;&gt;ric.func_8015885C</title>
<path fill="none" stroke="black" d="M4208.13,-188.53C3951.57,-167.37 3272.23,-108.64 2708.05,-36 2699.06,-34.84 2689.67,-33.53 2680.34,-32.15"/>
<polygon fill="black" stroke="black" points="2680.67,-28.66 2670.26,-30.64 2679.63,-35.58 2680.67,-28.66"/>
<text text-anchor="middle" x="2665.26" y="-34.44" font-family="Times,serif" font-size="14.00">1</text>
</g>
<!-- ric.func_80158BFC -->
<g id="node14" class="node">
<title>ric.func_80158BFC</title>
<g id="a_node14"><a xlink:href="ric.func_80158BFC.svg" xlink:title="ric.func_80158BFC">
<ellipse fill="green" stroke="black" cx="2816.05" cy="-18" rx="99.38" ry="18"/>
<text text-anchor="middle" x="2816.05" y="-14.3" font-family="Times,serif" font-size="14.00">ric.func_80158BFC</text>
</a>
</g>
</g>
<!-- ric.UpdateEntityRichter&#45;&gt;ric.func_80158BFC -->
<g id="edge13" class="edge">
<title>ric.UpdateEntityRichter&#45;&gt;ric.func_80158BFC</title>
<path fill="none" stroke="black" d="M4215.28,-186.99C3988.31,-163.47 3408.2,-101.67 2925.05,-36 2916.13,-34.79 2906.81,-33.45 2897.54,-32.07"/>
<polygon fill="black" stroke="black" points="2897.93,-28.59 2887.52,-30.56 2896.89,-35.51 2897.93,-28.59"/>
<text text-anchor="middle" x="2882.52" y="-34.36" font-family="Times,serif" font-size="14.00">1</text>
</g>
<!-- ric.func_80158F38 -->
<g id="node15" class="node">
<title>ric.func_80158F38</title>
<g id="a_node15"><a xlink:href="ric.func_80158F38.svg" xlink:title="ric.func_80158F38">
<ellipse fill="green" stroke="black" cx="3031.05" cy="-18" rx="97.48" ry="18"/>
<text text-anchor="middle" x="3031.05" y="-14.3" font-family="Times,serif" font-size="14.00">ric.func_80158F38</text>
</a>
</g>
</g>
<!-- ric.UpdateEntityRichter&#45;&gt;ric.func_80158F38 -->
<g id="edge14" class="edge">
<title>ric.UpdateEntityRichter&#45;&gt;ric.func_80158F38</title>
<path fill="none" stroke="black" d="M4224.06,-185.53C4027.68,-160.05 3542.42,-96.25 3137.05,-36 3128.76,-34.77 3120.12,-33.45 3111.51,-32.1"/>
<polygon fill="black" stroke="black" points="3111.85,-28.61 3101.43,-30.52 3110.76,-35.53 3111.85,-28.61"/>
<text text-anchor="middle" x="3096.43" y="-34.32" font-family="Times,serif" font-size="14.00">1</text>
</g>
<!-- ric.func_80158FA4 -->
<g id="node16" class="node">
<title>ric.func_80158FA4</title>
<g id="a_node16"><a xlink:href="ric.func_80158FA4.svg" xlink:title="ric.func_80158FA4">
<ellipse fill="green" stroke="black" cx="3243.05" cy="-18" rx="96.68" ry="18"/>
<text text-anchor="middle" x="3243.05" y="-14.3" font-family="Times,serif" font-size="14.00">ric.func_80158FA4</text>
</a>
</g>
</g>
<!-- ric.UpdateEntityRichter&#45;&gt;ric.func_80158FA4 -->
<g id="edge15" class="edge">
<title>ric.UpdateEntityRichter&#45;&gt;ric.func_80158FA4</title>
<path fill="none" stroke="black" d="M4235.23,-184.06C4038.24,-151.28 3521.37,-65.3 3322.55,-32.23"/>
<polygon fill="black" stroke="black" points="3322.92,-28.74 3312.48,-30.55 3321.77,-35.64 3322.92,-28.74"/>
<text text-anchor="middle" x="3307.48" y="-34.35" font-family="Times,serif" font-size="14.00">1</text>
</g>
<!-- ric.func_801590A0 -->
<g id="node17" class="node">
<title>ric.func_801590A0</title>
<g id="a_node17"><a xlink:href="ric.func_801590A0.svg" xlink:title="ric.func_801590A0">
<ellipse fill="green" stroke="black" cx="3455.05" cy="-18" rx="97.48" ry="18"/>
<text text-anchor="middle" x="3455.05" y="-14.3" font-family="Times,serif" font-size="14.00">ric.func_801590A0</text>
</a>
</g>
</g>
<!-- ric.UpdateEntityRichter&#45;&gt;ric.func_801590A0 -->
<g id="edge16" class="edge">
<title>ric.UpdateEntityRichter&#45;&gt;ric.func_801590A0</title>
<path fill="none" stroke="black" d="M4245.36,-182.96C4086.45,-149.99 3690.61,-67.87 3527.28,-33.99"/>
<polygon fill="black" stroke="black" points="3527.83,-30.53 3517.33,-31.92 3526.41,-37.38 3527.83,-30.53"/>
<text text-anchor="middle" x="3512.33" y="-35.72" font-family="Times,serif" font-size="14.00">1</text>
</g>
<!-- ric.func_801595D8 -->
<g id="node18" class="node">
<title>ric.func_801595D8</title>
<g id="a_node18"><a xlink:href="ric.func_801595D8.svg" xlink:title="ric.func_801595D8">
<ellipse fill="green" stroke="black" cx="3669.05" cy="-18" rx="98.58" ry="18"/>
<text text-anchor="middle" x="3669.05" y="-14.3" font-family="Times,serif" font-size="14.00">ric.func_801595D8</text>
</a>
</g>
</g>
<!-- ric.UpdateEntityRichter&#45;&gt;ric.func_801595D8 -->
<g id="edge17" class="edge">
<title>ric.UpdateEntityRichter&#45;&gt;ric.func_801595D8</title>
<path fill="none" stroke="black" d="M4258.14,-181.82C4138.79,-148.84 3856.39,-70.78 3730.95,-36.11"/>
<polygon fill="black" stroke="black" points="3731.68,-32.68 3721.11,-33.39 3729.81,-39.43 3731.68,-32.68"/>
<text text-anchor="middle" x="3716.11" y="-37.19" font-family="Times,serif" font-size="14.00">1</text>
</g>
<!-- ric.func_80159670 -->
<g id="node19" class="node">
<title>ric.func_80159670</title>
<g id="a_node19"><a xlink:href="ric.func_80159670.svg" xlink:title="ric.func_80159670">
<ellipse fill="green" stroke="black" cx="3883.05" cy="-18" rx="96.68" ry="18"/>
<text text-anchor="middle" x="3883.05" y="-14.3" font-family="Times,serif" font-size="14.00">ric.func_80159670</text>
</a>
</g>
</g>
<!-- ric.UpdateEntityRichter&#45;&gt;ric.func_80159670 -->
<g id="edge18" class="edge">
<title>ric.UpdateEntityRichter&#45;&gt;ric.func_80159670</title>
<path fill="none" stroke="black" d="M4274.13,-180.89C4195.1,-148.18 4016.08,-74.07 3930.43,-38.61"/>
<polygon fill="black" stroke="black" points="3931.53,-35.28 3920.95,-34.69 3928.85,-41.75 3931.53,-35.28"/>
<text text-anchor="middle" x="3915.95" y="-38.49" font-family="Times,serif" font-size="14.00">1</text>
</g>
<!-- ric.func_8015A7D0 -->
<g id="node20" class="node">
<title>ric.func_8015A7D0</title>
<g id="a_node20"><a xlink:href="ric.func_8015A7D0.svg" xlink:title="ric.func_8015A7D0">
<ellipse fill="green" stroke="black" cx="4097.05" cy="-18" rx="98.58" ry="18"/>
<text text-anchor="middle" x="4097.05" y="-14.3" font-family="Times,serif" font-size="14.00">ric.func_8015A7D0</text>
</a>
</g>
</g>
<!-- ric.UpdateEntityRichter&#45;&gt;ric.func_8015A7D0 -->
<g id="edge19" class="edge">
<title>ric.UpdateEntityRichter&#45;&gt;ric.func_8015A7D0</title>
<path fill="none" stroke="black" d="M4292.33,-179.93C4253.37,-147.82 4169.12,-78.39 4125.11,-42.13"/>
<polygon fill="black" stroke="black" points="4127.32,-39.41 4117.38,-35.76 4122.87,-44.82 4127.32,-39.41"/>
<text text-anchor="middle" x="4112.38" y="-39.56" font-family="Times,serif" font-size="14.00">1</text>
</g>
<!-- ric.func_8015A9B0 -->
<g id="node21" class="node">
<title>ric.func_8015A9B0</title>
<g id="a_node21"><a xlink:href="ric.func_8015A9B0.svg" xlink:title="ric.func_8015A9B0">
<ellipse fill="green" stroke="black" cx="4313.05" cy="-18" rx="98.58" ry="18"/>
<text text-anchor="middle" x="4313.05" y="-14.3" font-family="Times,serif" font-size="14.00">ric.func_8015A9B0</text>
</a>
</g>
</g>
<!-- ric.UpdateEntityRichter&#45;&gt;ric.func_8015A9B0 -->
<g id="edge20" class="edge">
<title>ric.UpdateEntityRichter&#45;&gt;ric.func_8015A9B0</title>
<path fill="none" stroke="black" d="M4313.05,-179.93C4313.05,-148.97 4313.05,-83.3 4313.05,-46.13"/>
<polygon fill="black" stroke="black" points="4316.55,-46.02 4313.05,-36.02 4309.55,-46.02 4316.55,-46.02"/>
<text text-anchor="middle" x="4308.05" y="-39.82" font-family="Times,serif" font-size="14.00">1</text>
</g>
<!-- ric.func_8015AFE0 -->
<g id="node22" class="node">
<title>ric.func_8015AFE0</title>
<g id="a_node22"><a xlink:href="ric.func_8015AFE0.svg" xlink:title="ric.func_8015AFE0">
<ellipse fill="green" stroke="black" cx="4529.05" cy="-18" rx="98.58" ry="18"/>
<text text-anchor="middle" x="4529.05" y="-14.3" font-family="Times,serif" font-size="14.00">ric.func_8015AFE0</text>
</a>
</g>
</g>
<!-- ric.UpdateEntityRichter&#45;&gt;ric.func_8015AFE0 -->
<g id="edge21" class="edge">
<title>ric.UpdateEntityRichter&#45;&gt;ric.func_8015AFE0</title>
<path fill="none" stroke="black" d="M4333.76,-179.93C4372.72,-147.82 4456.97,-78.39 4500.98,-42.13"/>
<polygon fill="black" stroke="black" points="4503.22,-44.82 4508.71,-35.76 4498.77,-39.41 4503.22,-44.82"/>
<text text-anchor="middle" x="4503.71" y="-39.56" font-family="Times,serif" font-size="14.00">1</text>
</g>
<!-- ric.func_8015B098 -->
<g id="node23" class="node">
<title>ric.func_8015B098</title>
<g id="a_node23"><a xlink:href="ric.func_8015B098.svg" xlink:title="ric.func_8015B098">
<ellipse fill="green" stroke="black" cx="4744.05" cy="-18" rx="98.28" ry="18"/>
<text text-anchor="middle" x="4744.05" y="-14.3" font-family="Times,serif" font-size="14.00">ric.func_8015B098</text>
</a>
</g>
</g>
<!-- ric.UpdateEntityRichter&#45;&gt;ric.func_8015B098 -->
<g id="edge22" class="edge">
<title>ric.UpdateEntityRichter&#45;&gt;ric.func_8015B098</title>
<path fill="none" stroke="black" d="M4352.05,-180.89C4431.27,-148.18 4610.71,-74.07 4696.56,-38.61"/>
<polygon fill="black" stroke="black" points="4698.15,-41.74 4706.05,-34.69 4695.47,-35.27 4698.15,-41.74"/>
<text text-anchor="middle" x="4701.05" y="-38.49" font-family="Times,serif" font-size="14.00">1</text>
</g>
<!-- ric.func_8015B18C -->
<g id="node24" class="node">
<title>ric.func_8015B18C</title>
<g id="a_node24"><a xlink:href="ric.func_8015B18C.svg" xlink:title="ric.func_8015B18C">
<ellipse fill="green" stroke="black" cx="4959.05" cy="-18" rx="98.58" ry="18"/>
<text text-anchor="middle" x="4959.05" y="-14.3" font-family="Times,serif" font-size="14.00">ric.func_8015B18C</text>
</a>
</g>
</g>
<!-- ric.UpdateEntityRichter&#45;&gt;ric.func_8015B18C -->
<g id="edge23" class="edge">
<title>ric.UpdateEntityRichter&#45;&gt;ric.func_8015B18C</title>
<path fill="none" stroke="black" d="M4368.12,-181.82C4487.84,-148.84 4771.12,-70.78 4896.95,-36.11"/>
<polygon fill="black" stroke="black" points="4898.11,-39.42 4906.82,-33.39 4896.25,-32.67 4898.11,-39.42"/>
<text text-anchor="middle" x="4901.82" y="-37.19" font-family="Times,serif" font-size="14.00">1</text>
</g>
<!-- ric.func_8015B1E8 -->
<g id="node25" class="node">
<title>ric.func_8015B1E8</title>
<g id="a_node25"><a xlink:href="ric.func_8015B1E8.svg" xlink:title="ric.func_8015B1E8">
<ellipse fill="green" stroke="black" cx="5175.05" cy="-18" rx="98.58" ry="18"/>
<text text-anchor="middle" x="5175.05" y="-14.3" font-family="Times,serif" font-size="14.00">ric.func_8015B1E8</text>
</a>
</g>
</g>
<!-- ric.UpdateEntityRichter&#45;&gt;ric.func_8015B1E8 -->
<g id="edge24" class="edge">
<title>ric.UpdateEntityRichter&#45;&gt;ric.func_8015B1E8</title>
<path fill="none" stroke="black" d="M4381.05,-182.96C4540.6,-150.01 4937.9,-67.97 5102.18,-34.05"/>
<polygon fill="black" stroke="black" points="5103.1,-37.43 5112.18,-31.98 5101.68,-30.58 5103.1,-37.43"/>
<text text-anchor="middle" x="5107.18" y="-35.78" font-family="Times,serif" font-size="14.00">1</text>
</g>
<!-- ric.func_8015B244 -->
<g id="node26" class="node">
<title>ric.func_8015B244</title>
<g id="a_node26"><a xlink:href="ric.func_8015B244.svg" xlink:title="ric.func_8015B244">
<ellipse fill="green" stroke="black" cx="5390.05" cy="-18" rx="98.28" ry="18"/>
<text text-anchor="middle" x="5390.05" y="-14.3" font-family="Times,serif" font-size="14.00">ric.func_8015B244</text>
</a>
</g>
</g>
<!-- ric.UpdateEntityRichter&#45;&gt;ric.func_8015B244 -->
<g id="edge25" class="edge">
<title>ric.UpdateEntityRichter&#45;&gt;ric.func_8015B244</title>
<path fill="none" stroke="black" d="M4391.37,-184.06C4589.53,-151.3 5109.28,-65.4 5309.66,-32.29"/>
<polygon fill="black" stroke="black" points="5310.52,-35.69 5319.81,-30.61 5309.38,-28.78 5310.52,-35.69"/>
<text text-anchor="middle" x="5314.81" y="-34.41" font-family="Times,serif" font-size="14.00">1</text>
</g>
<!-- ric.func_8015B348 -->
<g id="node27" class="node">
<title>ric.func_8015B348</title>
<g id="a_node27"><a xlink:href="ric.func_8015B348.svg" xlink:title="ric.func_8015B348">
<ellipse fill="green" stroke="black" cx="5604.05" cy="-18" rx="98.28" ry="18"/>
<text text-anchor="middle" x="5604.05" y="-14.3" font-family="Times,serif" font-size="14.00">ric.func_8015B348</text>
</a>
</g>
</g>
<!-- ric.UpdateEntityRichter&#45;&gt;ric.func_8015B348 -->
<g id="edge26" class="edge">
<title>ric.UpdateEntityRichter&#45;&gt;ric.func_8015B348</title>
<path fill="none" stroke="black" d="M4402.26,-185.56C4599.73,-160.1 5088.64,-96.2 5497.05,-36 5505.5,-34.75 5514.31,-33.42 5523.11,-32.06"/>
<polygon fill="black" stroke="black" points="5523.66,-35.51 5533,-30.52 5522.58,-28.6 5523.66,-35.51"/>
<text text-anchor="middle" x="5528" y="-34.32" font-family="Times,serif" font-size="14.00">1</text>
</g>
<!-- ric.func_8015B898 -->
<g id="node28" class="node">
<title>ric.func_8015B898</title>
<g id="a_node28"><a xlink:href="ric.func_8015B898.svg" xlink:title="ric.func_8015B898">
<ellipse fill="green" stroke="black" cx="5818.05" cy="-18" rx="98.28" ry="18"/>
<text text-anchor="middle" x="5818.05" y="-14.3" font-family="Times,serif" font-size="14.00">ric.func_8015B898</text>
</a>
</g>
</g>
<!-- ric.UpdateEntityRichter&#45;&gt;ric.func_8015B898 -->
<g id="edge27" class="edge">
<title>ric.UpdateEntityRichter&#45;&gt;ric.func_8015B898</title>
<path fill="none" stroke="black" d="M4411.53,-187.13C4640.17,-163.88 5224.52,-102.63 5711.05,-36 5719.71,-34.81 5728.76,-33.5 5737.76,-32.14"/>
<polygon fill="black" stroke="black" points="5738.53,-35.56 5747.89,-30.59 5737.48,-28.64 5738.53,-35.56"/>
<text text-anchor="middle" x="5742.89" y="-34.39" font-family="Times,serif" font-size="14.00">1</text>
</g>
<!-- ric.func_8015BCD0 -->
<g id="node29" class="node">
<title>ric.func_8015BCD0</title>
<g id="a_node29"><a xlink:href="ric.func_8015BCD0.svg" xlink:title="ric.func_8015BCD0">
<ellipse fill="green" stroke="black" cx="6035.05" cy="-18" rx="100.98" ry="18"/>
<text text-anchor="middle" x="6035.05" y="-14.3" font-family="Times,serif" font-size="14.00">ric.func_8015BCD0</text>
</a>
</g>
</g>
<!-- ric.UpdateEntityRichter&#45;&gt;ric.func_8015BCD0 -->
<g id="edge28" class="edge">
<title>ric.UpdateEntityRichter&#45;&gt;ric.func_8015BCD0</title>
<path fill="none" stroke="black" d="M4417.94,-188.49C4675.22,-167.19 5357.96,-108.09 5925.05,-36 5934.13,-34.85 5943.61,-33.54 5953.04,-32.17"/>
<polygon fill="black" stroke="black" points="5953.85,-35.59 5963.23,-30.67 5952.83,-28.66 5953.85,-35.59"/>
<text text-anchor="middle" x="5958.23" y="-34.47" font-family="Times,serif" font-size="14.00">1</text>
</g>
<!-- ric.func_8015C178 -->
<g id="node30" class="node">
<title>ric.func_8015C178</title>
<g id="a_node30"><a xlink:href="ric.func_8015C178.svg" xlink:title="ric.func_8015C178">
<ellipse fill="green" stroke="black" cx="6252.05" cy="-18" rx="98.28" ry="18"/>
<text text-anchor="middle" x="6252.05" y="-14.3" font-family="Times,serif" font-size="14.00">ric.func_8015C178</text>
</a>
</g>
</g>
<!-- ric.UpdateEntityRichter&#45;&gt;ric.func_8015C178 -->
<g id="edge29" class="edge">
<title>ric.UpdateEntityRichter&#45;&gt;ric.func_8015C178</title>
<path fill="none" stroke="black" d="M4423.29,-190.01C4708.58,-171.34 5494.24,-116.2 6145.05,-36 6153.96,-34.9 6163.26,-33.62 6172.51,-32.27"/>
<polygon fill="black" stroke="black" points="6173.13,-35.71 6182.5,-30.77 6172.09,-28.79 6173.13,-35.71"/>
<text text-anchor="middle" x="6177.5" y="-34.57" font-family="Times,serif" font-size="14.00">1</text>
</g>
<!-- ric.func_8015C2A8 -->
<g id="node31" class="node">
<title>ric.func_8015C2A8</title>
<g id="a_node31"><a xlink:href="ric.func_8015C2A8.svg" xlink:title="ric.func_8015C2A8">
<ellipse fill="green" stroke="black" cx="6467.05" cy="-18" rx="98.58" ry="18"/>
<text text-anchor="middle" x="6467.05" y="-14.3" font-family="Times,serif" font-size="14.00">ric.func_8015C2A8</text>
</a>
</g>
</g>
<!-- ric.UpdateEntityRichter&#45;&gt;ric.func_8015C2A8 -->
<g id="edge30" class="edge">
<title>ric.UpdateEntityRichter&#45;&gt;ric.func_8015C2A8</title>
<path fill="none" stroke="black" d="M4426.75,-191.16C4737.17,-174.54 5625.01,-122.52 6359.05,-36 6368.11,-34.93 6377.59,-33.66 6386.99,-32.31"/>
<polygon fill="black" stroke="black" points="6387.77,-35.73 6397.15,-30.81 6386.75,-28.81 6387.77,-35.73"/>
<text text-anchor="middle" x="6392.15" y="-34.61" font-family="Times,serif" font-size="14.00">1</text>
</g>
<!-- ric.func_8015C4AC -->
<g id="node32" class="node">
<title>ric.func_8015C4AC</title>
<g id="a_node32"><a xlink:href="ric.func_8015C4AC.svg" xlink:title="ric.func_8015C4AC">
<ellipse fill="green" stroke="black" cx="6683.05" cy="-18" rx="99.38" ry="18"/>
<text text-anchor="middle" x="6683.05" y="-14.3" font-family="Times,serif" font-size="14.00">ric.func_8015C4AC</text>
</a>
</g>
</g>
<!-- ric.UpdateEntityRichter&#45;&gt;ric.func_8015C4AC -->
<g id="edge31" class="edge">
<title>ric.UpdateEntityRichter&#45;&gt;ric.func_8015C4AC</title>
<path fill="none" stroke="black" d="M4429.61,-192.21C4764.23,-177.7 5756.29,-129.41 6575.05,-36 6584.12,-34.97 6593.59,-33.72 6603,-32.38"/>
<polygon fill="black" stroke="black" points="6603.77,-35.8 6613.16,-30.89 6602.76,-28.88 6603.77,-35.8"/>
<text text-anchor="middle" x="6608.16" y="-34.69" font-family="Times,serif" font-size="14.00">1</text>
</g>
<!-- ric.func_8015C6D4 -->
<g id="node33" class="node">
<title>ric.func_8015C6D4</title>
<g id="a_node33"><a xlink:href="ric.func_8015C6D4.svg" xlink:title="ric.func_8015C6D4">
<ellipse fill="green" stroke="black" cx="6900.05" cy="-18" rx="99.38" ry="18"/>
<text text-anchor="middle" x="6900.05" y="-14.3" font-family="Times,serif" font-size="14.00">ric.func_8015C6D4</text>
</a>
</g>
</g>
<!-- ric.UpdateEntityRichter&#45;&gt;ric.func_8015C6D4 -->
<g id="edge32" class="edge">
<title>ric.UpdateEntityRichter&#45;&gt;ric.func_8015C6D4</title>
<path fill="none" stroke="black" d="M4431.38,-193.09C4788.48,-180.47 5886.33,-135.74 6791.05,-36 6800.44,-34.96 6810.27,-33.7 6820,-32.32"/>
<polygon fill="black" stroke="black" points="6820.71,-35.76 6830.1,-30.86 6819.7,-28.83 6820.71,-35.76"/>
<text text-anchor="middle" x="6825.1" y="-34.66" font-family="Times,serif" font-size="14.00">1</text>
</g>
<!-- ric.func_8015C920 -->
<g id="node34" class="node">
<title>ric.func_8015C920</title>
<g id="a_node34"><a xlink:href="ric.func_8015C920.svg" xlink:title="ric.func_8015C920">
<ellipse fill="green" stroke="black" cx="7116.05" cy="-18" rx="98.28" ry="18"/>
<text text-anchor="middle" x="7116.05" y="-14.3" font-family="Times,serif" font-size="14.00">ric.func_8015C920</text>
</a>
</g>
</g>
<!-- ric.UpdateEntityRichter&#45;&gt;ric.func_8015C920 -->
<g id="edge33" class="edge">
<title>ric.UpdateEntityRichter&#45;&gt;ric.func_8015C920</title>
<path fill="none" stroke="black" d="M4432.93,-193.96C4811.76,-183.48 6016.65,-143.39 7008.05,-36 7017.43,-34.98 7027.24,-33.72 7036.96,-32.35"/>
<polygon fill="black" stroke="black" points="7037.65,-35.78 7047.04,-30.88 7036.64,-28.86 7037.65,-35.78"/>
<text text-anchor="middle" x="7042.04" y="-34.68" font-family="Times,serif" font-size="14.00">1</text>
</g>
<!-- ric.func_8015CAD4 -->
<g id="node35" class="node">
<title>ric.func_8015CAD4</title>
<g id="a_node35"><a xlink:href="ric.func_8015CAD4.svg" xlink:title="ric.func_8015CAD4">
<ellipse fill="green" stroke="black" cx="7332.05" cy="-18" rx="100.18" ry="18"/>
<text text-anchor="middle" x="7332.05" y="-14.3" font-family="Times,serif" font-size="14.00">ric.func_8015CAD4</text>
</a>
</g>
</g>
<!-- ric.UpdateEntityRichter&#45;&gt;ric.func_8015CAD4 -->
<g id="edge34" class="edge">
<title>ric.UpdateEntityRichter&#45;&gt;ric.func_8015CAD4</title>
<path fill="none" stroke="black" d="M4433.97,-194.62C4833.16,-185.83 6144.95,-149.61 7223.05,-36 7232.45,-35.01 7242.27,-33.77 7252.01,-32.41"/>
<polygon fill="black" stroke="black" points="7252.71,-35.85 7262.11,-30.96 7251.71,-28.92 7252.71,-35.85"/>
<text text-anchor="middle" x="7257.11" y="-34.76" font-family="Times,serif" font-size="14.00">4</text>
</g>
<!-- ric.func_8015CB58 -->
<g id="node36" class="node">
<title>ric.func_8015CB58</title>
<g id="a_node36"><a xlink:href="ric.func_8015CB58.svg" xlink:title="ric.func_8015CB58">
<ellipse fill="green" stroke="black" cx="7549.05" cy="-18" rx="98.58" ry="18"/>
<text text-anchor="middle" x="7549.05" y="-14.3" font-family="Times,serif" font-size="14.00">ric.func_8015CB58</text>
</a>
</g>
</g>
<!-- ric.UpdateEntityRichter&#45;&gt;ric.func_8015CB58 -->
<g id="edge35" class="edge">
<title>ric.UpdateEntityRichter&#45;&gt;ric.func_8015CB58</title>
<path fill="none" stroke="black" d="M4434.53,-195.32C4853.22,-188.55 6274.5,-157.5 7441.05,-36 7450.43,-35.02 7460.25,-33.78 7469.97,-32.42"/>
<polygon fill="black" stroke="black" points="7470.65,-35.86 7480.05,-30.96 7469.65,-28.93 7470.65,-35.86"/>
<text text-anchor="middle" x="7475.05" y="-34.76" font-family="Times,serif" font-size="14.00">2</text>
</g>
<!-- ric.func_8015CC28 -->
<g id="node37" class="node">
<title>ric.func_8015CC28</title>
<g id="a_node37"><a xlink:href="ric.func_8015CC28.svg" xlink:title="ric.func_8015CC28">
<ellipse fill="green" stroke="black" cx="7765.05" cy="-18" rx="98.58" ry="18"/>
<text text-anchor="middle" x="7765.05" y="-14.3" font-family="Times,serif" font-size="14.00">ric.func_8015CC28</text>
</a>
</g>
</g>
<!-- ric.UpdateEntityRichter&#45;&gt;ric.func_8015CC28 -->
<g id="edge36" class="edge">
<title>ric.UpdateEntityRichter&#45;&gt;ric.func_8015CC28</title>
<path fill="none" stroke="black" d="M4435.25,-195.88C4872.9,-190.84 6402.71,-164.54 7657.05,-36 7666.5,-35.03 7676.4,-33.79 7686.19,-32.42"/>
<polygon fill="black" stroke="black" points="7686.95,-35.85 7696.34,-30.95 7685.94,-28.92 7686.95,-35.85"/>
<text text-anchor="middle" x="7691.34" y="-34.75" font-family="Times,serif" font-size="14.00">1</text>
</g>
<!-- ric.func_8015CC70 -->
<g id="node38" class="node">
<title>ric.func_8015CC70</title>
<g id="a_node38"><a xlink:href="ric.func_8015CC70.svg" xlink:title="ric.func_8015CC70">
<ellipse fill="green" stroke="black" cx="7981.05" cy="-18" rx="98.58" ry="18"/>
<text text-anchor="middle" x="7981.05" y="-14.3" font-family="Times,serif" font-size="14.00">ric.func_8015CC70</text>
</a>
</g>
</g>
<!-- ric.UpdateEntityRichter&#45;&gt;ric.func_8015CC70 -->
<g id="edge37" class="edge">
<title>ric.UpdateEntityRichter&#45;&gt;ric.func_8015CC70</title>
<path fill="none" stroke="black" d="M4435.59,-196.38C4891.22,-193.01 6530.37,-171.61 7873.05,-36 7882.51,-35.04 7892.4,-33.81 7902.2,-32.45"/>
<polygon fill="black" stroke="black" points="7902.95,-35.88 7912.35,-30.98 7901.95,-28.95 7902.95,-35.88"/>
<text text-anchor="middle" x="7907.35" y="-34.78" font-family="Times,serif" font-size="14.00">1</text>
</g>
<!-- ric.func_8015D9B4 -->
<g id="node39" class="node">
<title>ric.func_8015D9B4</title>
<g id="a_node39"><a xlink:href="ric.func_8015D9B4.svg" xlink:title="ric.func_8015D9B4">
<ellipse fill="green" stroke="black" cx="8197.05" cy="-18" rx="99.38" ry="18"/>
<text text-anchor="middle" x="8197.05" y="-14.3" font-family="Times,serif" font-size="14.00">ric.func_8015D9B4</text>
</a>
</g>
</g>
<!-- ric.UpdateEntityRichter&#45;&gt;ric.func_8015D9B4 -->
<g id="edge38" class="edge">
<title>ric.UpdateEntityRichter&#45;&gt;ric.func_8015D9B4</title>
<path fill="none" stroke="black" d="M4435.65,-196.82C4908.35,-195.07 6657.53,-178.72 8089.05,-36 8098.44,-35.06 8108.26,-33.85 8117.98,-32.5"/>
<polygon fill="black" stroke="black" points="8118.66,-35.94 8128.06,-31.05 8117.66,-29.01 8118.66,-35.94"/>
<text text-anchor="middle" x="8123.06" y="-34.85" font-family="Times,serif" font-size="14.00">1</text>
</g>
<!-- rsin -->
<g id="node40" class="node">
<title>rsin</title>
<g id="a_node40"><a xlink:href="rsin.svg" xlink:title="rsin">
<ellipse fill="lightblue" stroke="black" cx="8343.05" cy="-18" rx="28.7" ry="18"/>
<text text-anchor="middle" x="8343.05" y="-14.3" font-family="Times,serif" font-size="14.00">rsin</text>
</a>
</g>
</g>
<!-- ric.UpdateEntityRichter&#45;&gt;rsin -->
<g id="edge39" class="edge">
<title>ric.UpdateEntityRichter&#45;&gt;rsin</title>
<path fill="none" stroke="black" d="M4434.11,-194.85C5060.62,-183.34 7920.56,-126.22 8305.05,-36 8307.51,-35.42 8310.01,-34.68 8312.49,-33.84"/>
<polygon fill="black" stroke="black" points="8313.8,-37.09 8321.84,-30.18 8311.25,-30.57 8313.8,-37.09"/>
<text text-anchor="middle" x="8316.84" y="-33.98" font-family="Times,serif" font-size="14.00">4</text>
</g>
</g>
</svg>
