<?xml version="1.0" encoding="UTF-8" standalone="no"?>
<!DOCTYPE svg PUBLIC "-//W3C//DTD SVG 1.1//EN"
 "http://www.w3.org/Graphics/SVG/1.1/DTD/svg11.dtd">
<!-- Generated by graphviz version 2.43.0 (0)
 -->
<!-- Title: ric.func_80161C2C Pages: 1 -->
<svg width="644pt" height="224pt"
 viewBox="0.00 0.00 644.28 224.00" xmlns="http://www.w3.org/2000/svg" xmlns:xlink="http://www.w3.org/1999/xlink">
<g id="graph0" class="graph" transform="scale(1 1) rotate(0) translate(4 220)">
<title>ric.func_80161C2C</title>
<polygon fill="white" stroke="transparent" points="-4,4 -4,-220 640.28,-220 640.28,4 -4,4"/>
<!-- ric.func_80161C2C -->
<g id="node1" class="node">
<title>ric.func_80161C2C</title>
<ellipse fill="green" stroke="black" cx="173.5" cy="-198" rx="98.58" ry="18"/>
<text text-anchor="middle" x="173.5" y="-194.3" font-family="Times,serif" font-size="14.00">ric.func_80161C2C</text>
</g>
<!-- rand -->
<g id="node2" class="node">
<title>rand</title>
<g id="a_node2"><a xlink:href="rand.svg" xlink:title="rand">
<ellipse fill="lightblue" stroke="black" cx="32.5" cy="-18" rx="32.49" ry="18"/>
<text text-anchor="middle" x="32.5" y="-14.3" font-family="Times,serif" font-size="14.00">rand</text>
</a>
</g>
</g>
<!-- ric.func_80161C2C&#45;&gt;rand -->
<g id="edge1" class="edge">
<title>ric.func_80161C2C&#45;&gt;rand</title>
<path fill="none" stroke="black" d="M159.98,-179.93C134.71,-148.03 80.27,-79.3 51.38,-42.84"/>
<polygon fill="black" stroke="black" points="53.91,-40.4 44.96,-34.73 48.43,-44.74 53.91,-40.4"/>
<text text-anchor="middle" x="39.96" y="-38.53" font-family="Times,serif" font-size="14.00">4</text>
</g>
<!-- ric.DestroyEntity -->
<g id="node3" class="node">
<title>ric.DestroyEntity</title>
<g id="a_node3"><a xlink:href="ric.DestroyEntity.svg" xlink:title="ric.DestroyEntity">
<ellipse fill="green" stroke="black" cx="173.5" cy="-18" rx="90.98" ry="18"/>
<text text-anchor="middle" x="173.5" y="-14.3" font-family="Times,serif" font-size="14.00">ric.DestroyEntity</text>
</a>
</g>
</g>
<!-- ric.func_80161C2C&#45;&gt;ric.DestroyEntity -->
<g id="edge2" class="edge">
<title>ric.func_80161C2C&#45;&gt;ric.DestroyEntity</title>
<path fill="none" stroke="black" d="M173.5,-179.93C173.5,-148.97 173.5,-83.3 173.5,-46.13"/>
<polygon fill="black" stroke="black" points="177,-46.02 173.5,-36.02 170,-46.02 177,-46.02"/>
<text text-anchor="middle" x="168.5" y="-39.82" font-family="Times,serif" font-size="14.00">1</text>
</g>
<!-- ric.RicCreateEntFactoryFromEntity -->
<g id="node4" class="node">
<title>ric.RicCreateEntFactoryFromEntity</title>
<g id="a_node4"><a xlink:href="ric.RicCreateEntFactoryFromEntity.svg" xlink:title="ric.RicCreateEntFactoryFromEntity">
<ellipse fill="green" stroke="black" cx="459.5" cy="-18" rx="176.57" ry="18"/>
<text text-anchor="middle" x="459.5" y="-14.3" font-family="Times,serif" font-size="14.00">ric.RicCreateEntFactoryFromEntity</text>
</a>
</g>
</g>
<!-- ric.func_80161C2C&#45;&gt;ric.RicCreateEntFactoryFromEntity -->
<g id="edge3" class="edge">
<title>ric.func_80161C2C&#45;&gt;ric.RicCreateEntFactoryFromEntity</title>
<path fill="none" stroke="black" d="M199.89,-180.57C251.45,-148.48 365.59,-77.44 423.82,-41.2"/>
<polygon fill="black" stroke="black" points="425.69,-44.16 432.33,-35.91 421.99,-38.22 425.69,-44.16"/>
<text text-anchor="middle" x="427.33" y="-39.71" font-family="Times,serif" font-size="14.00">1</text>
</g>
</g>
</svg>
