<?xml version="1.0" encoding="UTF-8" standalone="no"?>
<!DOCTYPE svg PUBLIC "-//W3C//DTD SVG 1.1//EN"
 "http://www.w3.org/Graphics/SVG/1.1/DTD/svg11.dtd">
<!-- Generated by graphviz version 2.43.0 (0)
 -->
<!-- Title: ric.RicUpdatePlayerEntities Pages: 1 -->
<svg width="1256pt" height="224pt"
 viewBox="0.00 0.00 1255.84 224.00" xmlns="http://www.w3.org/2000/svg" xmlns:xlink="http://www.w3.org/1999/xlink">
<g id="graph0" class="graph" transform="scale(1 1) rotate(0) translate(4 220)">
<title>ric.RicUpdatePlayerEntities</title>
<polygon fill="white" stroke="transparent" points="-4,4 -4,-220 1251.84,-220 1251.84,4 -4,4"/>
<!-- ric.RicUpdatePlayerEntities -->
<g id="node1" class="node">
<title>ric.RicUpdatePlayerEntities</title>
<ellipse fill="green" stroke="black" cx="601.05" cy="-198" rx="141.07" ry="18"/>
<text text-anchor="middle" x="601.05" y="-194.3" font-family="Times,serif" font-size="14.00">ric.RicUpdatePlayerEntities</text>
</g>
<!-- FntPrint -->
<g id="node2" class="node">
<title>FntPrint</title>
<g id="a_node2"><a xlink:href="FntPrint.svg" xlink:title="FntPrint">
<ellipse fill="lightblue" stroke="black" cx="50.05" cy="-18" rx="50.09" ry="18"/>
<text text-anchor="middle" x="50.05" y="-14.3" font-family="Times,serif" font-size="14.00">FntPrint</text>
</a>
</g>
</g>
<!-- ric.RicUpdatePlayerEntities&#45;&gt;FntPrint -->
<g id="edge1" class="edge">
<title>ric.RicUpdatePlayerEntities&#45;&gt;FntPrint</title>
<path fill="none" stroke="black" d="M551.66,-181.05C445.83,-146.86 198.46,-66.95 95.88,-33.81"/>
<polygon fill="black" stroke="black" points="96.72,-30.4 86.12,-30.65 94.56,-37.06 96.72,-30.4"/>
<text text-anchor="middle" x="81.12" y="-34.45" font-family="Times,serif" font-size="14.00">1</text>
</g>
<!-- UnknownpfnEntityUpdate -->
<g id="node3" class="node">
<title>UnknownpfnEntityUpdate</title>
<g id="a_node3"><a xlink:href="UnknownpfnEntityUpdate.svg" xlink:title="UnknownpfnEntityUpdate">
<ellipse fill="lightblue" stroke="black" cx="251.05" cy="-18" rx="132.68" ry="18"/>
<text text-anchor="middle" x="251.05" y="-14.3" font-family="Times,serif" font-size="14.00">UnknownpfnEntityUpdate</text>
</a>
</g>
</g>
<!-- ric.RicUpdatePlayerEntities&#45;&gt;UnknownpfnEntityUpdate -->
<g id="edge2" class="edge">
<title>ric.RicUpdatePlayerEntities&#45;&gt;UnknownpfnEntityUpdate</title>
<path fill="none" stroke="black" d="M568.43,-180.41C504.52,-147.91 362.92,-75.9 292.49,-40.08"/>
<polygon fill="black" stroke="black" points="293.95,-36.89 283.45,-35.48 290.78,-43.13 293.95,-36.89"/>
<text text-anchor="middle" x="278.45" y="-39.28" font-family="Times,serif" font-size="14.00">1</text>
</g>
<!-- dra.UpdateAnim -->
<g id="node4" class="node">
<title>dra.UpdateAnim</title>
<g id="a_node4"><a xlink:href="dra.UpdateAnim.svg" xlink:title="dra.UpdateAnim">
<ellipse fill="green" stroke="black" cx="489.05" cy="-18" rx="87.18" ry="18"/>
<text text-anchor="middle" x="489.05" y="-14.3" font-family="Times,serif" font-size="14.00">dra.UpdateAnim</text>
</a>
</g>
</g>
<!-- ric.RicUpdatePlayerEntities&#45;&gt;dra.UpdateAnim -->
<g id="edge3" class="edge">
<title>ric.RicUpdatePlayerEntities&#45;&gt;dra.UpdateAnim</title>
<path fill="none" stroke="black" d="M590.31,-179.93C570.57,-148.57 528.44,-81.6 505.22,-44.71"/>
<polygon fill="black" stroke="black" points="508.04,-42.62 499.75,-36.02 502.12,-46.34 508.04,-42.62"/>
<text text-anchor="middle" x="494.75" y="-39.82" font-family="Times,serif" font-size="14.00">1</text>
</g>
<!-- g_api_g_pfn_800EA5AC -->
<g id="node5" class="node">
<title>g_api_g_pfn_800EA5AC</title>
<g id="a_node5"><a xlink:href="g_api_g_pfn_800EA5AC.svg" xlink:title="g_api_g_pfn_800EA5AC">
<ellipse fill="lightblue" stroke="black" cx="713.05" cy="-18" rx="118.88" ry="18"/>
<text text-anchor="middle" x="713.05" y="-14.3" font-family="Times,serif" font-size="14.00">g_api_g_pfn_800EA5AC</text>
</a>
</g>
</g>
<!-- ric.RicUpdatePlayerEntities&#45;&gt;g_api_g_pfn_800EA5AC -->
<g id="edge4" class="edge">
<title>ric.RicUpdatePlayerEntities&#45;&gt;g_api_g_pfn_800EA5AC</title>
<path fill="none" stroke="black" d="M611.78,-179.93C631.52,-148.57 673.66,-81.6 696.87,-44.71"/>
<polygon fill="black" stroke="black" points="699.98,-46.34 702.34,-36.02 694.05,-42.62 699.98,-46.34"/>
<text text-anchor="middle" x="697.34" y="-39.82" font-family="Times,serif" font-size="14.00">1</text>
</g>
<!-- ric.DestroyEntity -->
<g id="node6" class="node">
<title>ric.DestroyEntity</title>
<g id="a_node6"><a xlink:href="ric.DestroyEntity.svg" xlink:title="ric.DestroyEntity">
<ellipse fill="green" stroke="black" cx="941.05" cy="-18" rx="90.98" ry="18"/>
<text text-anchor="middle" x="941.05" y="-14.3" font-family="Times,serif" font-size="14.00">ric.DestroyEntity</text>
</a>
</g>
</g>
<!-- ric.RicUpdatePlayerEntities&#45;&gt;ric.DestroyEntity -->
<g id="edge5" class="edge">
<title>ric.RicUpdatePlayerEntities&#45;&gt;ric.DestroyEntity</title>
<path fill="none" stroke="black" d="M632.73,-180.41C694.92,-147.85 832.85,-75.64 901.15,-39.89"/>
<polygon fill="black" stroke="black" points="903.07,-42.83 910.3,-35.09 899.82,-36.63 903.07,-42.83"/>
<text text-anchor="middle" x="905.3" y="-38.89" font-family="Times,serif" font-size="14.00">1</text>
</g>
<!-- ric.func_8015FB84 -->
<g id="node7" class="node">
<title>ric.func_8015FB84</title>
<g id="a_node7"><a xlink:href="ric.func_8015FB84.svg" xlink:title="ric.func_8015FB84">
<ellipse fill="green" stroke="black" cx="1149.05" cy="-18" rx="98.58" ry="18"/>
<text text-anchor="middle" x="1149.05" y="-14.3" font-family="Times,serif" font-size="14.00">ric.func_8015FB84</text>
</a>
</g>
</g>
<!-- ric.RicUpdatePlayerEntities&#45;&gt;ric.func_8015FB84 -->
<g id="edge6" class="edge">
<title>ric.RicUpdatePlayerEntities&#45;&gt;ric.func_8015FB84</title>
<path fill="none" stroke="black" d="M650.16,-181.05C752.06,-147.95 985.9,-71.99 1093.28,-37.11"/>
<polygon fill="black" stroke="black" points="1094.53,-40.39 1102.96,-33.97 1092.37,-33.73 1094.53,-40.39"/>
<text text-anchor="middle" x="1097.96" y="-37.77" font-family="Times,serif" font-size="14.00">1</text>
</g>
</g>
</svg>
