<?xml version="1.0" encoding="UTF-8" standalone="no"?>
<!DOCTYPE svg PUBLIC "-//W3C//DTD SVG 1.1//EN"
 "http://www.w3.org/Graphics/SVG/1.1/DTD/svg11.dtd">
<!-- Generated by graphviz version 2.43.0 (0)
 -->
<!-- Title: ric.func_8015885C Pages: 1 -->
<svg width="536pt" height="404pt"
 viewBox="0.00 0.00 535.89 404.00" xmlns="http://www.w3.org/2000/svg" xmlns:xlink="http://www.w3.org/1999/xlink">
<g id="graph0" class="graph" transform="scale(1 1) rotate(0) translate(4 400)">
<title>ric.func_8015885C</title>
<polygon fill="white" stroke="transparent" points="-4,4 -4,-400 531.89,-400 531.89,4 -4,4"/>
<!-- ric.func_8015885C -->
<g id="node1" class="node">
<title>ric.func_8015885C</title>
<ellipse fill="green" stroke="black" cx="217.05" cy="-198" rx="98.28" ry="18"/>
<text text-anchor="middle" x="217.05" y="-194.3" font-family="Times,serif" font-size="14.00">ric.func_8015885C</text>
</g>
<!-- FntPrint -->
<g id="node2" class="node">
<title>FntPrint</title>
<g id="a_node2"><a xlink:href="FntPrint.svg" xlink:title="FntPrint">
<ellipse fill="lightblue" stroke="black" cx="50.05" cy="-18" rx="50.09" ry="18"/>
<text text-anchor="middle" x="50.05" y="-14.3" font-family="Times,serif" font-size="14.00">FntPrint</text>
</a>
</g>
</g>
<!-- ric.func_8015885C&#45;&gt;FntPrint -->
<g id="edge1" class="edge">
<title>ric.func_8015885C&#45;&gt;FntPrint</title>
<path fill="none" stroke="black" d="M201.03,-179.93C171.13,-148.06 106.73,-79.42 72.5,-42.94"/>
<polygon fill="black" stroke="black" points="74.68,-40.14 65.28,-35.24 69.57,-44.93 74.68,-40.14"/>
<text text-anchor="middle" x="60.28" y="-39.04" font-family="Times,serif" font-size="14.00">1</text>
</g>
<!-- ric.func_801587D0 -->
<g id="node3" class="node">
<title>ric.func_801587D0</title>
<g id="a_node3"><a xlink:href="ric.func_801587D0.svg" xlink:title="ric.func_801587D0">
<ellipse fill="green" stroke="black" cx="217.05" cy="-18" rx="98.58" ry="18"/>
<text text-anchor="middle" x="217.05" y="-14.3" font-family="Times,serif" font-size="14.00">ric.func_801587D0</text>
</a>
</g>
</g>
<!-- ric.func_8015885C&#45;&gt;ric.func_801587D0 -->
<g id="edge2" class="edge">
<title>ric.func_8015885C&#45;&gt;ric.func_801587D0</title>
<path fill="none" stroke="black" d="M217.05,-179.93C217.05,-148.97 217.05,-83.3 217.05,-46.13"/>
<polygon fill="black" stroke="black" points="220.55,-46.02 217.05,-36.02 213.55,-46.02 220.55,-46.02"/>
<text text-anchor="middle" x="212.05" y="-39.82" font-family="Times,serif" font-size="14.00">1</text>
</g>
<!-- ric.func_80158814 -->
<g id="node4" class="node">
<title>ric.func_80158814</title>
<g id="a_node4"><a xlink:href="ric.func_80158814.svg" xlink:title="ric.func_80158814">
<ellipse fill="green" stroke="black" cx="431.05" cy="-18" rx="96.68" ry="18"/>
<text text-anchor="middle" x="431.05" y="-14.3" font-family="Times,serif" font-size="14.00">ric.func_80158814</text>
</a>
</g>
</g>
<!-- ric.func_8015885C&#45;&gt;ric.func_80158814 -->
<g id="edge3" class="edge">
<title>ric.func_8015885C&#45;&gt;ric.func_80158814</title>
<path fill="none" stroke="black" d="M237.18,-180.25C275.57,-148.32 359.34,-78.65 403.12,-42.23"/>
<polygon fill="black" stroke="black" points="405.36,-44.92 410.81,-35.83 400.88,-39.53 405.36,-44.92"/>
<text text-anchor="middle" x="405.81" y="-39.63" font-family="Times,serif" font-size="14.00">1</text>
</g>
<!-- ric.RicMain -->
<g id="node5" class="node">
<title>ric.RicMain</title>
<g id="a_node5"><a xlink:href="ric.RicMain.svg" xlink:title="ric.RicMain">
<ellipse fill="green" stroke="black" cx="217.05" cy="-378" rx="63.89" ry="18"/>
<text text-anchor="middle" x="217.05" y="-374.3" font-family="Times,serif" font-size="14.00">ric.RicMain</text>
</a>
</g>
</g>
<!-- ric.RicMain&#45;&gt;ric.func_8015885C -->
<g id="edge4" class="edge">
<title>ric.RicMain&#45;&gt;ric.func_8015885C</title>
<path fill="none" stroke="black" d="M217.05,-359.93C217.05,-328.97 217.05,-263.3 217.05,-226.13"/>
<polygon fill="black" stroke="black" points="220.55,-226.02 217.05,-216.02 213.55,-226.02 220.55,-226.02"/>
<text text-anchor="middle" x="212.05" y="-348.73" font-family="Times,serif" font-size="14.00">1</text>
</g>
</g>
</svg>
