<?xml version="1.0" encoding="UTF-8" standalone="no"?>
<!DOCTYPE svg PUBLIC "-//W3C//DTD SVG 1.1//EN"
 "http://www.w3.org/Graphics/SVG/1.1/DTD/svg11.dtd">
<!-- Generated by graphviz version 2.43.0 (0)
 -->
<!-- Title: ric.CreateEntFactoryFromEntity Pages: 1 -->
<svg width="9990pt" height="404pt"
 viewBox="0.00 0.00 9989.88 404.00" xmlns="http://www.w3.org/2000/svg" xmlns:xlink="http://www.w3.org/1999/xlink">
<g id="graph0" class="graph" transform="scale(1 1) rotate(0) translate(4 400)">
<title>ric.CreateEntFactoryFromEntity</title>
<polygon fill="white" stroke="transparent" points="-4,4 -4,-400 9985.88,-400 9985.88,4 -4,4"/>
<!-- ric.CreateEntFactoryFromEntity -->
<g id="node1" class="node">
<title>ric.CreateEntFactoryFromEntity</title>
<ellipse fill="green" stroke="black" cx="5239.39" cy="-198" rx="162.47" ry="18"/>
<text text-anchor="middle" x="5239.39" y="-194.3" font-family="Times,serif" font-size="14.00">ric.CreateEntFactoryFromEntity</text>
</g>
<!-- ric.DestroyEntity -->
<g id="node2" class="node">
<title>ric.DestroyEntity</title>
<g id="a_node2"><a xlink:href="ric.DestroyEntity.svg" xlink:title="ric.DestroyEntity">
<ellipse fill="green" stroke="black" cx="5138.39" cy="-18" rx="90.98" ry="18"/>
<text text-anchor="middle" x="5138.39" y="-14.3" font-family="Times,serif" font-size="14.00">ric.DestroyEntity</text>
</a>
</g>
</g>
<!-- ric.CreateEntFactoryFromEntity&#45;&gt;ric.DestroyEntity -->
<g id="edge1" class="edge">
<title>ric.CreateEntFactoryFromEntity&#45;&gt;ric.DestroyEntity</title>
<path fill="none" stroke="black" d="M5229.71,-179.93C5211.99,-148.7 5174.24,-82.17 5153.25,-45.18"/>
<polygon fill="black" stroke="black" points="5156.03,-42.99 5148.05,-36.02 5149.94,-46.44 5156.03,-42.99"/>
<text text-anchor="middle" x="5143.05" y="-39.82" font-family="Times,serif" font-size="14.00">1</text>
</g>
<!-- ric.GetFreeEntity -->
<g id="node3" class="node">
<title>ric.GetFreeEntity</title>
<g id="a_node3"><a xlink:href="ric.GetFreeEntity.svg" xlink:title="ric.GetFreeEntity">
<ellipse fill="green" stroke="black" cx="5340.39" cy="-18" rx="92.88" ry="18"/>
<text text-anchor="middle" x="5340.39" y="-14.3" font-family="Times,serif" font-size="14.00">ric.GetFreeEntity</text>
</a>
</g>
</g>
<!-- ric.CreateEntFactoryFromEntity&#45;&gt;ric.GetFreeEntity -->
<g id="edge2" class="edge">
<title>ric.CreateEntFactoryFromEntity&#45;&gt;ric.GetFreeEntity</title>
<path fill="none" stroke="black" d="M5249.08,-179.93C5266.8,-148.7 5304.55,-82.17 5325.54,-45.18"/>
<polygon fill="black" stroke="black" points="5328.85,-46.44 5330.74,-36.02 5322.76,-42.99 5328.85,-46.44"/>
<text text-anchor="middle" x="5325.74" y="-39.82" font-family="Times,serif" font-size="14.00">1</text>
</g>
<!-- ric.DoBladeDash -->
<g id="node4" class="node">
<title>ric.DoBladeDash</title>
<g id="a_node4"><a xlink:href="ric.DoBladeDash.svg" xlink:title="ric.DoBladeDash">
<ellipse fill="green" stroke="black" cx="88.39" cy="-378" rx="88.28" ry="18"/>
<text text-anchor="middle" x="88.39" y="-374.3" font-family="Times,serif" font-size="14.00">ric.DoBladeDash</text>
</a>
</g>
</g>
<!-- ric.DoBladeDash&#45;&gt;ric.CreateEntFactoryFromEntity -->
<g id="edge3" class="edge">
<title>ric.DoBladeDash&#45;&gt;ric.CreateEntFactoryFromEntity</title>
<path fill="none" stroke="black" d="M149.64,-365.02C161.77,-363.03 174.45,-361.22 186.39,-360 1164.79,-260.05 4302.51,-211.71 5069.19,-201.22"/>
<polygon fill="black" stroke="black" points="5069.25,-204.72 5079.2,-201.08 5069.15,-197.72 5069.25,-204.72"/>
<text text-anchor="middle" x="144.64" y="-353.82" font-family="Times,serif" font-size="14.00">1</text>
</g>
<!-- ric.DoHighJump -->
<g id="node5" class="node">
<title>ric.DoHighJump</title>
<g id="a_node5"><a xlink:href="ric.DoHighJump.svg" xlink:title="ric.DoHighJump">
<ellipse fill="green" stroke="black" cx="280.39" cy="-378" rx="85.29" ry="18"/>
<text text-anchor="middle" x="280.39" y="-374.3" font-family="Times,serif" font-size="14.00">ric.DoHighJump</text>
</a>
</g>
</g>
<!-- ric.DoHighJump&#45;&gt;ric.CreateEntFactoryFromEntity -->
<g id="edge4" class="edge">
<title>ric.DoHighJump&#45;&gt;ric.CreateEntFactoryFromEntity</title>
<path fill="none" stroke="black" d="M339.37,-364.98C350.94,-363 363.01,-361.21 374.39,-360 1313.41,-260.09 4320.61,-211.92 5069.34,-201.3"/>
<polygon fill="black" stroke="black" points="5069.44,-204.8 5079.39,-201.15 5069.34,-197.8 5069.44,-204.8"/>
<text text-anchor="middle" x="334.37" y="-353.78" font-family="Times,serif" font-size="14.00">1</text>
</g>
<!-- ric.EntityCrossBoomerang -->
<g id="node6" class="node">
<title>ric.EntityCrossBoomerang</title>
<g id="a_node6"><a xlink:href="ric.EntityCrossBoomerang.svg" xlink:title="ric.EntityCrossBoomerang">
<ellipse fill="green" stroke="black" cx="517.39" cy="-378" rx="133.78" ry="18"/>
<text text-anchor="middle" x="517.39" y="-374.3" font-family="Times,serif" font-size="14.00">ric.EntityCrossBoomerang</text>
</a>
</g>
</g>
<!-- ric.EntityCrossBoomerang&#45;&gt;ric.CreateEntFactoryFromEntity -->
<g id="edge5" class="edge">
<title>ric.EntityCrossBoomerang&#45;&gt;ric.CreateEntFactoryFromEntity</title>
<path fill="none" stroke="black" d="M609.59,-364.9C626.47,-363.01 643.94,-361.26 660.39,-360 2376.47,-228.06 4462.77,-204.14 5067.56,-199.89"/>
<polygon fill="black" stroke="black" points="5067.68,-203.39 5077.66,-199.82 5067.64,-196.39 5067.68,-203.39"/>
<text text-anchor="middle" x="604.59" y="-353.7" font-family="Times,serif" font-size="14.00">7</text>
</g>
<!-- ric.EntityHolyWater -->
<g id="node7" class="node">
<title>ric.EntityHolyWater</title>
<g id="a_node7"><a xlink:href="ric.EntityHolyWater.svg" xlink:title="ric.EntityHolyWater">
<ellipse fill="green" stroke="black" cx="773.39" cy="-378" rx="103.98" ry="18"/>
<text text-anchor="middle" x="773.39" y="-374.3" font-family="Times,serif" font-size="14.00">ric.EntityHolyWater</text>
</a>
</g>
</g>
<!-- ric.EntityHolyWater&#45;&gt;ric.CreateEntFactoryFromEntity -->
<g id="edge6" class="edge">
<title>ric.EntityHolyWater&#45;&gt;ric.CreateEntFactoryFromEntity</title>
<path fill="none" stroke="black" d="M845.28,-364.95C858.9,-363.02 873.06,-361.25 886.39,-360 2507.02,-208.61 4479.52,-197.98 5066.66,-198.43"/>
<polygon fill="black" stroke="black" points="5066.9,-201.93 5076.9,-198.44 5066.9,-194.93 5066.9,-201.93"/>
<text text-anchor="middle" x="840.28" y="-353.75" font-family="Times,serif" font-size="14.00">3</text>
</g>
<!-- ric.EntityStopWatchExpandingCircle -->
<g id="node8" class="node">
<title>ric.EntityStopWatchExpandingCircle</title>
<g id="a_node8"><a xlink:href="ric.EntityStopWatchExpandingCircle.svg" xlink:title="ric.EntityStopWatchExpandingCircle">
<ellipse fill="green" stroke="black" cx="1077.39" cy="-378" rx="181.97" ry="18"/>
<text text-anchor="middle" x="1077.39" y="-374.3" font-family="Times,serif" font-size="14.00">ric.EntityStopWatchExpandingCircle</text>
</a>
</g>
</g>
<!-- ric.EntityStopWatchExpandingCircle&#45;&gt;ric.CreateEntFactoryFromEntity -->
<g id="edge7" class="edge">
<title>ric.EntityStopWatchExpandingCircle&#45;&gt;ric.CreateEntFactoryFromEntity</title>
<path fill="none" stroke="black" d="M1202.93,-364.96C1224.74,-363.11 1247.21,-361.37 1268.39,-360 2741.06,-264.66 4524.83,-216.25 5071.9,-202.9"/>
<polygon fill="black" stroke="black" points="5072.32,-206.39 5082.23,-202.65 5072.15,-199.39 5072.32,-206.39"/>
<text text-anchor="middle" x="1197.93" y="-353.76" font-family="Times,serif" font-size="14.00">1</text>
</g>
<!-- ric.EntitySubwpnBible -->
<g id="node9" class="node">
<title>ric.EntitySubwpnBible</title>
<g id="a_node9"><a xlink:href="ric.EntitySubwpnBible.svg" xlink:title="ric.EntitySubwpnBible">
<ellipse fill="green" stroke="black" cx="1393.39" cy="-378" rx="116.18" ry="18"/>
<text text-anchor="middle" x="1393.39" y="-374.3" font-family="Times,serif" font-size="14.00">ric.EntitySubwpnBible</text>
</a>
</g>
</g>
<!-- ric.EntitySubwpnBible&#45;&gt;ric.CreateEntFactoryFromEntity -->
<g id="edge8" class="edge">
<title>ric.EntitySubwpnBible&#45;&gt;ric.CreateEntFactoryFromEntity</title>
<path fill="none" stroke="black" d="M1473.96,-364.94C1488.71,-363.04 1503.99,-361.29 1518.39,-360 2883.55,-237.9 4539.07,-207.62 5068.18,-200.81"/>
<polygon fill="black" stroke="black" points="5068.61,-204.31 5078.56,-200.68 5068.52,-197.31 5068.61,-204.31"/>
<text text-anchor="middle" x="1468.96" y="-353.74" font-family="Times,serif" font-size="14.00">1</text>
</g>
<!-- ric.EntitySubwpnCrashCross -->
<g id="node10" class="node">
<title>ric.EntitySubwpnCrashCross</title>
<g id="a_node10"><a xlink:href="ric.EntitySubwpnCrashCross.svg" xlink:title="ric.EntitySubwpnCrashCross">
<ellipse fill="green" stroke="black" cx="1673.39" cy="-378" rx="145.67" ry="18"/>
<text text-anchor="middle" x="1673.39" y="-374.3" font-family="Times,serif" font-size="14.00">ric.EntitySubwpnCrashCross</text>
</a>
</g>
</g>
<!-- ric.EntitySubwpnCrashCross&#45;&gt;ric.CreateEntFactoryFromEntity -->
<g id="edge9" class="edge">
<title>ric.EntitySubwpnCrashCross&#45;&gt;ric.CreateEntFactoryFromEntity</title>
<path fill="none" stroke="black" d="M1774.61,-364.98C1792.51,-363.12 1810.98,-361.36 1828.39,-360 3072.82,-262.48 4577.61,-216.47 5072.7,-203.2"/>
<polygon fill="black" stroke="black" points="5072.88,-206.7 5082.78,-202.93 5072.69,-199.7 5072.88,-206.7"/>
<text text-anchor="middle" x="1769.61" y="-353.78" font-family="Times,serif" font-size="14.00">2</text>
</g>
<!-- ric.RichterHandleDamage -->
<g id="node11" class="node">
<title>ric.RichterHandleDamage</title>
<g id="a_node11"><a xlink:href="ric.RichterHandleDamage.svg" xlink:title="ric.RichterHandleDamage">
<ellipse fill="green" stroke="black" cx="1968.39" cy="-378" rx="131.08" ry="18"/>
<text text-anchor="middle" x="1968.39" y="-374.3" font-family="Times,serif" font-size="14.00">ric.RichterHandleDamage</text>
</a>
</g>
</g>
<!-- ric.RichterHandleDamage&#45;&gt;ric.CreateEntFactoryFromEntity -->
<g id="edge10" class="edge">
<title>ric.RichterHandleDamage&#45;&gt;ric.CreateEntFactoryFromEntity</title>
<path fill="none" stroke="black" d="M2059.42,-365.02C2075.71,-363.14 2092.54,-361.37 2108.39,-360 3239.51,-262.36 4605.99,-216.95 5073.37,-203.47"/>
<polygon fill="black" stroke="black" points="5073.67,-206.97 5083.57,-203.18 5073.47,-199.97 5073.67,-206.97"/>
<text text-anchor="middle" x="2049.92" y="-353.82" font-family="Times,serif" font-size="14.00">19</text>
</g>
<!-- ric.StopwatchCrashDoneSparkle -->
<g id="node12" class="node">
<title>ric.StopwatchCrashDoneSparkle</title>
<g id="a_node12"><a xlink:href="ric.StopwatchCrashDoneSparkle.svg" xlink:title="ric.StopwatchCrashDoneSparkle">
<ellipse fill="green" stroke="black" cx="2279.39" cy="-378" rx="161.67" ry="18"/>
<text text-anchor="middle" x="2279.39" y="-374.3" font-family="Times,serif" font-size="14.00">ric.StopwatchCrashDoneSparkle</text>
</a>
</g>
</g>
<!-- ric.StopwatchCrashDoneSparkle&#45;&gt;ric.CreateEntFactoryFromEntity -->
<g id="edge11" class="edge">
<title>ric.StopwatchCrashDoneSparkle&#45;&gt;ric.CreateEntFactoryFromEntity</title>
<path fill="none" stroke="black" d="M2392.47,-365.09C2411.78,-363.25 2431.65,-361.47 2450.39,-360 3450.41,-281.46 4654.96,-224.74 5080.87,-205.85"/>
<polygon fill="black" stroke="black" points="5081.26,-209.33 5091.09,-205.39 5080.95,-202.34 5081.26,-209.33"/>
<text text-anchor="middle" x="2387.47" y="-353.89" font-family="Times,serif" font-size="14.00">1</text>
</g>
<!-- ric.func_80156F40 -->
<g id="node13" class="node">
<title>ric.func_80156F40</title>
<g id="a_node13"><a xlink:href="ric.func_80156F40.svg" xlink:title="ric.func_80156F40">
<ellipse fill="green" stroke="black" cx="2556.39" cy="-378" rx="97.48" ry="18"/>
<text text-anchor="middle" x="2556.39" y="-374.3" font-family="Times,serif" font-size="14.00">ric.func_80156F40</text>
</a>
</g>
</g>
<!-- ric.func_80156F40&#45;&gt;ric.CreateEntFactoryFromEntity -->
<g id="edge12" class="edge">
<title>ric.func_80156F40&#45;&gt;ric.CreateEntFactoryFromEntity</title>
<path fill="none" stroke="black" d="M2624.76,-365.15C2637.57,-363.21 2650.87,-361.38 2663.39,-360 3570.79,-259.79 4665.41,-217.11 5074.57,-203.86"/>
<polygon fill="black" stroke="black" points="5074.82,-207.36 5084.7,-203.54 5074.59,-200.36 5074.82,-207.36"/>
<text text-anchor="middle" x="2619.76" y="-353.95" font-family="Times,serif" font-size="14.00">3</text>
</g>
<!-- ric.func_80158B04 -->
<g id="node14" class="node">
<title>ric.func_80158B04</title>
<g id="a_node14"><a xlink:href="ric.func_80158B04.svg" xlink:title="ric.func_80158B04">
<ellipse fill="green" stroke="black" cx="2770.39" cy="-378" rx="98.28" ry="18"/>
<text text-anchor="middle" x="2770.39" y="-374.3" font-family="Times,serif" font-size="14.00">ric.func_80158B04</text>
</a>
</g>
</g>
<!-- ric.func_80158B04&#45;&gt;ric.CreateEntFactoryFromEntity -->
<g id="edge13" class="edge">
<title>ric.func_80158B04&#45;&gt;ric.CreateEntFactoryFromEntity</title>
<path fill="none" stroke="black" d="M2839.7,-365.17C2852.53,-363.24 2865.85,-361.41 2878.39,-360 3702.93,-267.18 4695.92,-220.61 5078.41,-205.09"/>
<polygon fill="black" stroke="black" points="5078.59,-208.58 5088.44,-204.68 5078.31,-201.59 5078.59,-208.58"/>
<text text-anchor="middle" x="2834.7" y="-353.97" font-family="Times,serif" font-size="14.00">1</text>
</g>
<!-- ric.func_80158BFC -->
<g id="node15" class="node">
<title>ric.func_80158BFC</title>
<g id="a_node15"><a xlink:href="ric.func_80158BFC.svg" xlink:title="ric.func_80158BFC">
<ellipse fill="green" stroke="black" cx="2986.39" cy="-378" rx="99.38" ry="18"/>
<text text-anchor="middle" x="2986.39" y="-374.3" font-family="Times,serif" font-size="14.00">ric.func_80158BFC</text>
</a>
</g>
</g>
<!-- ric.func_80158BFC&#45;&gt;ric.CreateEntFactoryFromEntity -->
<g id="edge14" class="edge">
<title>ric.func_80158BFC&#45;&gt;ric.CreateEntFactoryFromEntity</title>
<path fill="none" stroke="black" d="M3056.28,-365.15C3068.94,-363.25 3082.04,-361.43 3094.39,-360 3836.36,-273.9 4728.31,-224.06 5082.96,-206.38"/>
<polygon fill="black" stroke="black" points="5083.22,-209.87 5093.03,-205.88 5082.87,-202.88 5083.22,-209.87"/>
<text text-anchor="middle" x="3051.28" y="-353.95" font-family="Times,serif" font-size="14.00">2</text>
</g>
<!-- ric.func_80158FA4 -->
<g id="node16" class="node">
<title>ric.func_80158FA4</title>
<g id="a_node16"><a xlink:href="ric.func_80158FA4.svg" xlink:title="ric.func_80158FA4">
<ellipse fill="green" stroke="black" cx="3200.39" cy="-378" rx="96.68" ry="18"/>
<text text-anchor="middle" x="3200.39" y="-374.3" font-family="Times,serif" font-size="14.00">ric.func_80158FA4</text>
</a>
</g>
</g>
<!-- ric.func_80158FA4&#45;&gt;ric.CreateEntFactoryFromEntity -->
<g id="edge15" class="edge">
<title>ric.func_80158FA4&#45;&gt;ric.CreateEntFactoryFromEntity</title>
<path fill="none" stroke="black" d="M3268.99,-365.22C3281.42,-363.31 3294.27,-361.47 3306.39,-360 3967.99,-279.51 4761.95,-227.25 5088.18,-207.67"/>
<polygon fill="black" stroke="black" points="5088.87,-211.14 5098.65,-207.05 5088.45,-204.15 5088.87,-211.14"/>
<text text-anchor="middle" x="3263.99" y="-354.02" font-family="Times,serif" font-size="14.00">1</text>
</g>
<!-- ric.func_801590A0 -->
<g id="node17" class="node">
<title>ric.func_801590A0</title>
<g id="a_node17"><a xlink:href="ric.func_801590A0.svg" xlink:title="ric.func_801590A0">
<ellipse fill="green" stroke="black" cx="3412.39" cy="-378" rx="97.48" ry="18"/>
<text text-anchor="middle" x="3412.39" y="-374.3" font-family="Times,serif" font-size="14.00">ric.func_801590A0</text>
</a>
</g>
</g>
<!-- ric.func_801590A0&#45;&gt;ric.CreateEntFactoryFromEntity -->
<g id="edge16" class="edge">
<title>ric.func_801590A0&#45;&gt;ric.CreateEntFactoryFromEntity</title>
<path fill="none" stroke="black" d="M3481.58,-365.23C3493.82,-363.34 3506.47,-361.51 3518.39,-360 4102.04,-285.98 4801.09,-230.91 5096.48,-209.17"/>
<polygon fill="black" stroke="black" points="5097.1,-212.64 5106.82,-208.42 5096.59,-205.66 5097.1,-212.64"/>
<text text-anchor="middle" x="3476.58" y="-354.03" font-family="Times,serif" font-size="14.00">1</text>
</g>
<!-- ric.func_80159670 -->
<g id="node18" class="node">
<title>ric.func_80159670</title>
<g id="a_node18"><a xlink:href="ric.func_80159670.svg" xlink:title="ric.func_80159670">
<ellipse fill="green" stroke="black" cx="3624.39" cy="-378" rx="96.68" ry="18"/>
<text text-anchor="middle" x="3624.39" y="-374.3" font-family="Times,serif" font-size="14.00">ric.func_80159670</text>
</a>
</g>
</g>
<!-- ric.func_80159670&#45;&gt;ric.CreateEntFactoryFromEntity -->
<g id="edge17" class="edge">
<title>ric.func_80159670&#45;&gt;ric.CreateEntFactoryFromEntity</title>
<path fill="none" stroke="black" d="M3693.59,-365.36C3705.84,-363.46 3718.48,-361.59 3730.39,-360 4237.68,-292.31 4843.95,-234.64 5106.91,-210.77"/>
<polygon fill="black" stroke="black" points="5107.24,-214.25 5116.88,-209.86 5106.61,-207.28 5107.24,-214.25"/>
<text text-anchor="middle" x="3688.59" y="-354.16" font-family="Times,serif" font-size="14.00">2</text>
</g>
<!-- ric.func_8015A9B0 -->
<g id="node19" class="node">
<title>ric.func_8015A9B0</title>
<g id="a_node19"><a xlink:href="ric.func_8015A9B0.svg" xlink:title="ric.func_8015A9B0">
<ellipse fill="red" stroke="black" cx="3838.39" cy="-378" rx="98.58" ry="18"/>
<text text-anchor="middle" x="3838.39" y="-374.3" font-family="Times,serif" font-size="14.00">ric.func_8015A9B0</text>
</a>
</g>
</g>
<!-- ric.func_8015A9B0&#45;&gt;ric.CreateEntFactoryFromEntity -->
<g id="edge18" class="edge">
<title>ric.func_8015A9B0&#45;&gt;ric.CreateEntFactoryFromEntity</title>
<path fill="none" stroke="black" d="M3909.51,-365.47C3921.8,-363.58 3934.46,-361.68 3946.39,-360 4377.9,-299.19 4892.14,-238.73 5120.27,-212.53"/>
<polygon fill="black" stroke="black" points="5120.72,-216 5130.25,-211.39 5119.92,-209.05 5120.72,-216"/>
<text text-anchor="middle" x="3900.01" y="-354.27" font-family="Times,serif" font-size="14.00">10</text>
</g>
<!-- ric.func_8015B098 -->
<g id="node20" class="node">
<title>ric.func_8015B098</title>
<g id="a_node20"><a xlink:href="ric.func_8015B098.svg" xlink:title="ric.func_8015B098">
<ellipse fill="green" stroke="black" cx="4053.39" cy="-378" rx="98.28" ry="18"/>
<text text-anchor="middle" x="4053.39" y="-374.3" font-family="Times,serif" font-size="14.00">ric.func_8015B098</text>
</a>
</g>
</g>
<!-- ric.func_8015B098&#45;&gt;ric.CreateEntFactoryFromEntity -->
<g id="edge19" class="edge">
<title>ric.func_8015B098&#45;&gt;ric.CreateEntFactoryFromEntity</title>
<path fill="none" stroke="black" d="M4124.75,-365.57C4136.65,-363.69 4148.87,-361.78 4160.39,-360 4518.08,-304.9 4942.95,-242.36 5135.43,-214.18"/>
<polygon fill="black" stroke="black" points="5136.15,-217.61 5145.53,-212.7 5135.13,-210.69 5136.15,-217.61"/>
<text text-anchor="middle" x="4119.75" y="-354.37" font-family="Times,serif" font-size="14.00">3</text>
</g>
<!-- ric.func_8015B348 -->
<g id="node21" class="node">
<title>ric.func_8015B348</title>
<g id="a_node21"><a xlink:href="ric.func_8015B348.svg" xlink:title="ric.func_8015B348">
<ellipse fill="green" stroke="black" cx="4267.39" cy="-378" rx="98.28" ry="18"/>
<text text-anchor="middle" x="4267.39" y="-374.3" font-family="Times,serif" font-size="14.00">ric.func_8015B348</text>
</a>
</g>
</g>
<!-- ric.func_8015B348&#45;&gt;ric.CreateEntFactoryFromEntity -->
<g id="edge20" class="edge">
<title>ric.func_8015B348&#45;&gt;ric.CreateEntFactoryFromEntity</title>
<path fill="none" stroke="black" d="M4334.2,-364.77C4504.63,-333.56 4955.7,-250.95 5149.18,-215.52"/>
<polygon fill="black" stroke="black" points="5149.83,-218.96 5159.03,-213.72 5148.57,-212.07 5149.83,-218.96"/>
<text text-anchor="middle" x="4324.7" y="-353.57" font-family="Times,serif" font-size="14.00">11</text>
</g>
<!-- ric.func_8015B898 -->
<g id="node22" class="node">
<title>ric.func_8015B898</title>
<g id="a_node22"><a xlink:href="ric.func_8015B898.svg" xlink:title="ric.func_8015B898">
<ellipse fill="green" stroke="black" cx="4481.39" cy="-378" rx="98.28" ry="18"/>
<text text-anchor="middle" x="4481.39" y="-374.3" font-family="Times,serif" font-size="14.00">ric.func_8015B898</text>
</a>
</g>
</g>
<!-- ric.func_8015B898&#45;&gt;ric.CreateEntFactoryFromEntity -->
<g id="edge21" class="edge">
<title>ric.func_8015B898&#45;&gt;ric.CreateEntFactoryFromEntity</title>
<path fill="none" stroke="black" d="M4539.3,-363.4C4674.62,-331.62 5011.58,-252.5 5163.26,-216.88"/>
<polygon fill="black" stroke="black" points="5164.48,-220.19 5173.42,-214.49 5162.88,-213.37 5164.48,-220.19"/>
<text text-anchor="middle" x="4534.3" y="-352.2" font-family="Times,serif" font-size="14.00">3</text>
</g>
<!-- ric.func_8015BCD0 -->
<g id="node23" class="node">
<title>ric.func_8015BCD0</title>
<g id="a_node23"><a xlink:href="ric.func_8015BCD0.svg" xlink:title="ric.func_8015BCD0">
<ellipse fill="green" stroke="black" cx="4698.39" cy="-378" rx="100.98" ry="18"/>
<text text-anchor="middle" x="4698.39" y="-374.3" font-family="Times,serif" font-size="14.00">ric.func_8015BCD0</text>
</a>
</g>
</g>
<!-- ric.func_8015BCD0&#45;&gt;ric.CreateEntFactoryFromEntity -->
<g id="edge22" class="edge">
<title>ric.func_8015BCD0&#45;&gt;ric.CreateEntFactoryFromEntity</title>
<path fill="none" stroke="black" d="M4744.52,-361.82C4842.64,-329.54 5071.96,-254.09 5180.48,-218.38"/>
<polygon fill="black" stroke="black" points="5181.87,-221.61 5190.28,-215.16 5179.69,-214.96 5181.87,-221.61"/>
<text text-anchor="middle" x="4739.52" y="-350.62" font-family="Times,serif" font-size="14.00">3</text>
</g>
<!-- ric.func_8015BE84 -->
<g id="node24" class="node">
<title>ric.func_8015BE84</title>
<g id="a_node24"><a xlink:href="ric.func_8015BE84.svg" xlink:title="ric.func_8015BE84">
<ellipse fill="green" stroke="black" cx="4916.39" cy="-378" rx="98.58" ry="18"/>
<text text-anchor="middle" x="4916.39" y="-374.3" font-family="Times,serif" font-size="14.00">ric.func_8015BE84</text>
</a>
</g>
</g>
<!-- ric.func_8015BE84&#45;&gt;ric.CreateEntFactoryFromEntity -->
<g id="edge23" class="edge">
<title>ric.func_8015BE84&#45;&gt;ric.CreateEntFactoryFromEntity</title>
<path fill="none" stroke="black" d="M4945.91,-360.73C5004.22,-328.6 5134.18,-256.98 5199.82,-220.81"/>
<polygon fill="black" stroke="black" points="5201.58,-223.84 5208.65,-215.94 5198.2,-217.71 5201.58,-223.84"/>
<text text-anchor="middle" x="4940.91" y="-349.53" font-family="Times,serif" font-size="14.00">1</text>
</g>
<!-- ric.func_8015C178 -->
<g id="node25" class="node">
<title>ric.func_8015C178</title>
<g id="a_node25"><a xlink:href="ric.func_8015C178.svg" xlink:title="ric.func_8015C178">
<ellipse fill="green" stroke="black" cx="5131.39" cy="-378" rx="98.28" ry="18"/>
<text text-anchor="middle" x="5131.39" y="-374.3" font-family="Times,serif" font-size="14.00">ric.func_8015C178</text>
</a>
</g>
</g>
<!-- ric.func_8015C178&#45;&gt;ric.CreateEntFactoryFromEntity -->
<g id="edge24" class="edge">
<title>ric.func_8015C178&#45;&gt;ric.CreateEntFactoryFromEntity</title>
<path fill="none" stroke="black" d="M5141.75,-359.93C5160.78,-328.57 5201.41,-261.6 5223.79,-224.71"/>
<polygon fill="black" stroke="black" points="5226.87,-226.38 5229.07,-216.02 5220.89,-222.75 5226.87,-226.38"/>
<text text-anchor="middle" x="5136.75" y="-348.73" font-family="Times,serif" font-size="14.00">2</text>
</g>
<!-- ric.func_8015CAD4 -->
<g id="node26" class="node">
<title>ric.func_8015CAD4</title>
<g id="a_node26"><a xlink:href="ric.func_8015CAD4.svg" xlink:title="ric.func_8015CAD4">
<ellipse fill="green" stroke="black" cx="5347.39" cy="-378" rx="100.18" ry="18"/>
<text text-anchor="middle" x="5347.39" y="-374.3" font-family="Times,serif" font-size="14.00">ric.func_8015CAD4</text>
</a>
</g>
</g>
<!-- ric.func_8015CAD4&#45;&gt;ric.CreateEntFactoryFromEntity -->
<g id="edge25" class="edge">
<title>ric.func_8015CAD4&#45;&gt;ric.CreateEntFactoryFromEntity</title>
<path fill="none" stroke="black" d="M5337.04,-359.93C5318.01,-328.57 5277.38,-261.6 5254.99,-224.71"/>
<polygon fill="black" stroke="black" points="5257.9,-222.75 5249.72,-216.02 5251.91,-226.38 5257.9,-222.75"/>
<text text-anchor="middle" x="5332.04" y="-348.73" font-family="Times,serif" font-size="14.00">1</text>
</g>
<!-- ric.func_8015CE7C -->
<g id="node27" class="node">
<title>ric.func_8015CE7C</title>
<g id="a_node27"><a xlink:href="ric.func_8015CE7C.svg" xlink:title="ric.func_8015CE7C">
<ellipse fill="green" stroke="black" cx="5565.39" cy="-378" rx="100.18" ry="18"/>
<text text-anchor="middle" x="5565.39" y="-374.3" font-family="Times,serif" font-size="14.00">ric.func_8015CE7C</text>
</a>
</g>
</g>
<!-- ric.func_8015CE7C&#45;&gt;ric.CreateEntFactoryFromEntity -->
<g id="edge26" class="edge">
<title>ric.func_8015CE7C&#45;&gt;ric.CreateEntFactoryFromEntity</title>
<path fill="none" stroke="black" d="M5535.6,-360.73C5476.6,-328.52 5344.91,-256.62 5278.82,-220.53"/>
<polygon fill="black" stroke="black" points="5280.4,-217.4 5269.95,-215.68 5277.05,-223.55 5280.4,-217.4"/>
<text text-anchor="middle" x="5530.6" y="-349.53" font-family="Times,serif" font-size="14.00">1</text>
</g>
<!-- ric.func_8015D250 -->
<g id="node28" class="node">
<title>ric.func_8015D250</title>
<g id="a_node28"><a xlink:href="ric.func_8015D250.svg" xlink:title="ric.func_8015D250">
<ellipse fill="green" stroke="black" cx="5782.39" cy="-378" rx="98.58" ry="18"/>
<text text-anchor="middle" x="5782.39" y="-374.3" font-family="Times,serif" font-size="14.00">ric.func_8015D250</text>
</a>
</g>
</g>
<!-- ric.func_8015D250&#45;&gt;ric.CreateEntFactoryFromEntity -->
<g id="edge27" class="edge">
<title>ric.func_8015D250&#45;&gt;ric.CreateEntFactoryFromEntity</title>
<path fill="none" stroke="black" d="M5736.56,-361.98C5638.28,-329.76 5407.34,-254.05 5298.33,-218.32"/>
<polygon fill="black" stroke="black" points="5299.39,-214.98 5288.8,-215.2 5297.21,-221.64 5299.39,-214.98"/>
<text text-anchor="middle" x="5731.56" y="-350.78" font-family="Times,serif" font-size="14.00">2</text>
</g>
<!-- ric.func_8015D3CC -->
<g id="node29" class="node">
<title>ric.func_8015D3CC</title>
<g id="a_node29"><a xlink:href="ric.func_8015D3CC.svg" xlink:title="ric.func_8015D3CC">
<ellipse fill="green" stroke="black" cx="6000.39" cy="-378" rx="100.98" ry="18"/>
<text text-anchor="middle" x="6000.39" y="-374.3" font-family="Times,serif" font-size="14.00">ric.func_8015D3CC</text>
</a>
</g>
</g>
<!-- ric.func_8015D3CC&#45;&gt;ric.CreateEntFactoryFromEntity -->
<g id="edge28" class="edge">
<title>ric.func_8015D3CC&#45;&gt;ric.CreateEntFactoryFromEntity</title>
<path fill="none" stroke="black" d="M5941.94,-363.33C5805.85,-331.5 5467.87,-252.44 5315.74,-216.86"/>
<polygon fill="black" stroke="black" points="5316.09,-213.34 5305.55,-214.48 5314.49,-220.16 5316.09,-213.34"/>
<text text-anchor="middle" x="5936.94" y="-352.13" font-family="Times,serif" font-size="14.00">2</text>
</g>
<!-- ric.func_8015D678 -->
<g id="node30" class="node">
<title>ric.func_8015D678</title>
<g id="a_node30"><a xlink:href="ric.func_8015D678.svg" xlink:title="ric.func_8015D678">
<ellipse fill="green" stroke="black" cx="6218.39" cy="-378" rx="98.58" ry="18"/>
<text text-anchor="middle" x="6218.39" y="-374.3" font-family="Times,serif" font-size="14.00">ric.func_8015D678</text>
</a>
</g>
</g>
<!-- ric.func_8015D678&#45;&gt;ric.CreateEntFactoryFromEntity -->
<g id="edge29" class="edge">
<title>ric.func_8015D678&#45;&gt;ric.CreateEntFactoryFromEntity</title>
<path fill="none" stroke="black" d="M6151.1,-364.77C5979.34,-333.54 5524.57,-250.85 5329.89,-215.46"/>
<polygon fill="black" stroke="black" points="5330.44,-212 5319.98,-213.65 5329.19,-218.88 5330.44,-212"/>
<text text-anchor="middle" x="6146.1" y="-353.57" font-family="Times,serif" font-size="14.00">6</text>
</g>
<!-- ric.func_8015D9D4 -->
<g id="node31" class="node">
<title>ric.func_8015D9D4</title>
<g id="a_node31"><a xlink:href="ric.func_8015D9D4.svg" xlink:title="ric.func_8015D9D4">
<ellipse fill="green" stroke="black" cx="6435.39" cy="-378" rx="100.18" ry="18"/>
<text text-anchor="middle" x="6435.39" y="-374.3" font-family="Times,serif" font-size="14.00">ric.func_8015D9D4</text>
</a>
</g>
</g>
<!-- ric.func_8015D9D4&#45;&gt;ric.CreateEntFactoryFromEntity -->
<g id="edge30" class="edge">
<title>ric.func_8015D9D4&#45;&gt;ric.CreateEntFactoryFromEntity</title>
<path fill="none" stroke="black" d="M6362.7,-365.58C6350.58,-363.7 6338.13,-361.78 6326.39,-360 5965.77,-305.17 5537.46,-242.43 5343.75,-214.18"/>
<polygon fill="black" stroke="black" points="5343.97,-210.68 5333.57,-212.7 5342.96,-217.61 5343.97,-210.68"/>
<text text-anchor="middle" x="6357.7" y="-354.38" font-family="Times,serif" font-size="14.00">1</text>
</g>
<!-- ric.func_8015DA60 -->
<g id="node32" class="node">
<title>ric.func_8015DA60</title>
<g id="a_node32"><a xlink:href="ric.func_8015DA60.svg" xlink:title="ric.func_8015DA60">
<ellipse fill="green" stroke="black" cx="6652.39" cy="-378" rx="98.58" ry="18"/>
<text text-anchor="middle" x="6652.39" y="-374.3" font-family="Times,serif" font-size="14.00">ric.func_8015DA60</text>
</a>
</g>
</g>
<!-- ric.func_8015DA60&#45;&gt;ric.CreateEntFactoryFromEntity -->
<g id="edge31" class="edge">
<title>ric.func_8015DA60&#45;&gt;ric.CreateEntFactoryFromEntity</title>
<path fill="none" stroke="black" d="M6581.28,-365.46C6568.99,-363.57 6556.33,-361.68 6544.39,-360 6108.63,-298.84 5589.22,-238.5 5359.18,-212.42"/>
<polygon fill="black" stroke="black" points="5359.45,-208.93 5349.12,-211.28 5358.66,-215.89 5359.45,-208.93"/>
<text text-anchor="middle" x="6576.28" y="-354.26" font-family="Times,serif" font-size="14.00">2</text>
</g>
<!-- ric.func_8015DBB0 -->
<g id="node33" class="node">
<title>ric.func_8015DBB0</title>
<g id="a_node33"><a xlink:href="ric.func_8015DBB0.svg" xlink:title="ric.func_8015DBB0">
<ellipse fill="green" stroke="black" cx="6870.39" cy="-378" rx="100.98" ry="18"/>
<text text-anchor="middle" x="6870.39" y="-374.3" font-family="Times,serif" font-size="14.00">ric.func_8015DBB0</text>
</a>
</g>
</g>
<!-- ric.func_8015DBB0&#45;&gt;ric.CreateEntFactoryFromEntity -->
<g id="edge32" class="edge">
<title>ric.func_8015DBB0&#45;&gt;ric.CreateEntFactoryFromEntity</title>
<path fill="none" stroke="black" d="M6798.28,-365.35C6785.66,-363.46 6772.66,-361.6 6760.39,-360 6247.92,-293.32 5635.56,-234.97 5371.39,-210.83"/>
<polygon fill="black" stroke="black" points="5371.65,-207.34 5361.37,-209.91 5371.01,-214.31 5371.65,-207.34"/>
<text text-anchor="middle" x="6793.28" y="-354.15" font-family="Times,serif" font-size="14.00">5</text>
</g>
<!-- ric.func_80161C2C -->
<g id="node34" class="node">
<title>ric.func_80161C2C</title>
<g id="a_node34"><a xlink:href="ric.func_80161C2C.svg" xlink:title="ric.func_80161C2C">
<ellipse fill="green" stroke="black" cx="7088.39" cy="-378" rx="98.58" ry="18"/>
<text text-anchor="middle" x="7088.39" y="-374.3" font-family="Times,serif" font-size="14.00">ric.func_80161C2C</text>
</a>
</g>
</g>
<!-- ric.func_80161C2C&#45;&gt;ric.CreateEntFactoryFromEntity -->
<g id="edge33" class="edge">
<title>ric.func_80161C2C&#45;&gt;ric.CreateEntFactoryFromEntity</title>
<path fill="none" stroke="black" d="M7018.19,-365.28C7005.62,-363.38 6992.63,-361.53 6980.39,-360 6388.83,-286.17 5680.27,-230.86 5382.38,-209.11"/>
<polygon fill="black" stroke="black" points="5382.62,-205.62 5372.39,-208.38 5382.11,-212.6 5382.62,-205.62"/>
<text text-anchor="middle" x="7013.19" y="-354.08" font-family="Times,serif" font-size="14.00">1</text>
</g>
<!-- ric.func_80161EF8 -->
<g id="node35" class="node">
<title>ric.func_80161EF8</title>
<g id="a_node35"><a xlink:href="ric.func_80161EF8.svg" xlink:title="ric.func_80161EF8">
<ellipse fill="green" stroke="black" cx="7304.39" cy="-378" rx="98.58" ry="18"/>
<text text-anchor="middle" x="7304.39" y="-374.3" font-family="Times,serif" font-size="14.00">ric.func_80161EF8</text>
</a>
</g>
</g>
<!-- ric.func_80161EF8&#45;&gt;ric.CreateEntFactoryFromEntity -->
<g id="edge34" class="edge">
<title>ric.func_80161EF8&#45;&gt;ric.CreateEntFactoryFromEntity</title>
<path fill="none" stroke="black" d="M7234.49,-365.22C7221.83,-363.31 7208.74,-361.48 7196.39,-360 6525.1,-279.67 5719.41,-227.18 5390.43,-207.6"/>
<polygon fill="black" stroke="black" points="5390.55,-204.1 5380.36,-207 5390.14,-211.09 5390.55,-204.1"/>
<text text-anchor="middle" x="7229.49" y="-354.02" font-family="Times,serif" font-size="14.00">1</text>
</g>
<!-- ric.func_80162C84 -->
<g id="node36" class="node">
<title>ric.func_80162C84</title>
<g id="a_node36"><a xlink:href="ric.func_80162C84.svg" xlink:title="ric.func_80162C84">
<ellipse fill="green" stroke="black" cx="7519.39" cy="-378" rx="98.28" ry="18"/>
<text text-anchor="middle" x="7519.39" y="-374.3" font-family="Times,serif" font-size="14.00">ric.func_80162C84</text>
</a>
</g>
</g>
<!-- ric.func_80162C84&#45;&gt;ric.CreateEntFactoryFromEntity -->
<g id="edge35" class="edge">
<title>ric.func_80162C84&#45;&gt;ric.CreateEntFactoryFromEntity</title>
<path fill="none" stroke="black" d="M7450.44,-365.18C7437.81,-363.26 7424.72,-361.43 7412.39,-360 6660.12,-272.53 5755.5,-223.4 5396.88,-206.15"/>
<polygon fill="black" stroke="black" points="5396.85,-202.64 5386.69,-205.66 5396.51,-209.63 5396.85,-202.64"/>
<text text-anchor="middle" x="7445.44" y="-353.98" font-family="Times,serif" font-size="14.00">2</text>
</g>
<!-- ric.func_80166784 -->
<g id="node37" class="node">
<title>ric.func_80166784</title>
<g id="a_node37"><a xlink:href="ric.func_80166784.svg" xlink:title="ric.func_80166784">
<ellipse fill="green" stroke="black" cx="7732.39" cy="-378" rx="96.68" ry="18"/>
<text text-anchor="middle" x="7732.39" y="-374.3" font-family="Times,serif" font-size="14.00">ric.func_80166784</text>
</a>
</g>
</g>
<!-- ric.func_80166784&#45;&gt;ric.CreateEntFactoryFromEntity -->
<g id="edge36" class="edge">
<title>ric.func_80166784&#45;&gt;ric.CreateEntFactoryFromEntity</title>
<path fill="none" stroke="black" d="M7664.38,-365.15C7651.78,-363.22 7638.71,-361.4 7626.39,-360 6792.41,-265.2 5787.68,-219.74 5401.46,-204.8"/>
<polygon fill="black" stroke="black" points="5401.46,-201.3 5391.33,-204.41 5401.19,-208.29 5401.46,-201.3"/>
<text text-anchor="middle" x="7659.38" y="-353.95" font-family="Times,serif" font-size="14.00">3</text>
</g>
<!-- ric.func_80168A20 -->
<g id="node38" class="node">
<title>ric.func_80168A20</title>
<g id="a_node38"><a xlink:href="ric.func_80168A20.svg" xlink:title="ric.func_80168A20">
<ellipse fill="red" stroke="black" cx="7944.39" cy="-378" rx="97.48" ry="18"/>
<text text-anchor="middle" x="7944.39" y="-374.3" font-family="Times,serif" font-size="14.00">ric.func_80168A20</text>
</a>
</g>
</g>
<!-- ric.func_80168A20&#45;&gt;ric.CreateEntFactoryFromEntity -->
<g id="edge37" class="edge">
<title>ric.func_80168A20&#45;&gt;ric.CreateEntFactoryFromEntity</title>
<path fill="none" stroke="black" d="M7876.38,-365.09C7863.78,-363.17 7850.71,-361.37 7838.39,-360 6922.41,-258.42 5817.18,-216.53 5404.94,-203.67"/>
<polygon fill="black" stroke="black" points="5404.84,-200.17 5394.74,-203.36 5404.62,-207.17 5404.84,-200.17"/>
<text text-anchor="middle" x="7871.38" y="-353.89" font-family="Times,serif" font-size="14.00">1</text>
</g>
<!-- ric.func_8016B0C0 -->
<g id="node39" class="node">
<title>ric.func_8016B0C0</title>
<g id="a_node39"><a xlink:href="ric.func_8016B0C0.svg" xlink:title="ric.func_8016B0C0">
<ellipse fill="red" stroke="black" cx="8158.39" cy="-378" rx="98.58" ry="18"/>
<text text-anchor="middle" x="8158.39" y="-374.3" font-family="Times,serif" font-size="14.00">ric.func_8016B0C0</text>
</a>
</g>
</g>
<!-- ric.func_8016B0C0&#45;&gt;ric.CreateEntFactoryFromEntity -->
<g id="edge38" class="edge">
<title>ric.func_8016B0C0&#45;&gt;ric.CreateEntFactoryFromEntity</title>
<path fill="none" stroke="black" d="M8089.39,-365.1C8076.46,-363.16 8063.04,-361.35 8050.39,-360 7050.94,-252.98 5843.43,-214.01 5406.96,-202.82"/>
<polygon fill="black" stroke="black" points="5406.88,-199.31 5396.79,-202.56 5406.7,-206.31 5406.88,-199.31"/>
<text text-anchor="middle" x="8084.39" y="-353.9" font-family="Times,serif" font-size="14.00">1</text>
</g>
<!-- ric.func_8016B97C -->
<g id="node40" class="node">
<title>ric.func_8016B97C</title>
<g id="a_node40"><a xlink:href="ric.func_8016B97C.svg" xlink:title="ric.func_8016B97C">
<ellipse fill="red" stroke="black" cx="8374.39" cy="-378" rx="98.58" ry="18"/>
<text text-anchor="middle" x="8374.39" y="-374.3" font-family="Times,serif" font-size="14.00">ric.func_8016B97C</text>
</a>
</g>
</g>
<!-- ric.func_8016B97C&#45;&gt;ric.CreateEntFactoryFromEntity -->
<g id="edge39" class="edge">
<title>ric.func_8016B97C&#45;&gt;ric.CreateEntFactoryFromEntity</title>
<path fill="none" stroke="black" d="M8305.39,-365.06C8292.46,-363.13 8279.04,-361.33 8266.39,-360 7181.5,-246.07 5868.94,-211.08 5408.67,-201.89"/>
<polygon fill="black" stroke="black" points="5408.69,-198.39 5398.62,-201.7 5408.55,-205.39 5408.69,-198.39"/>
<text text-anchor="middle" x="8300.39" y="-353.86" font-family="Times,serif" font-size="14.00">1</text>
</g>
<!-- ric.func_8016C734 -->
<g id="node41" class="node">
<title>ric.func_8016C734</title>
<g id="a_node41"><a xlink:href="ric.func_8016C734.svg" xlink:title="ric.func_8016C734">
<ellipse fill="red" stroke="black" cx="8589.39" cy="-378" rx="98.28" ry="18"/>
<text text-anchor="middle" x="8589.39" y="-374.3" font-family="Times,serif" font-size="14.00">ric.func_8016C734</text>
</a>
</g>
</g>
<!-- ric.func_8016C734&#45;&gt;ric.CreateEntFactoryFromEntity -->
<g id="edge40" class="edge">
<title>ric.func_8016C734&#45;&gt;ric.CreateEntFactoryFromEntity</title>
<path fill="none" stroke="black" d="M8521.04,-365.01C8508.23,-363.09 8494.93,-361.3 8482.39,-360 7311.88,-238.32 5893.82,-208.03 5410.34,-200.99"/>
<polygon fill="black" stroke="black" points="5410.19,-197.49 5400.14,-200.85 5410.09,-204.49 5410.19,-197.49"/>
<text text-anchor="middle" x="8516.04" y="-353.81" font-family="Times,serif" font-size="14.00">2</text>
</g>
<!-- ric.func_8016D4D8 -->
<g id="node42" class="node">
<title>ric.func_8016D4D8</title>
<g id="a_node42"><a xlink:href="ric.func_8016D4D8.svg" xlink:title="ric.func_8016D4D8">
<ellipse fill="red" stroke="black" cx="8805.39" cy="-378" rx="100.18" ry="18"/>
<text text-anchor="middle" x="8805.39" y="-374.3" font-family="Times,serif" font-size="14.00">ric.func_8016D4D8</text>
</a>
</g>
</g>
<!-- ric.func_8016D4D8&#45;&gt;ric.CreateEntFactoryFromEntity -->
<g id="edge41" class="edge">
<title>ric.func_8016D4D8&#45;&gt;ric.CreateEntFactoryFromEntity</title>
<path fill="none" stroke="black" d="M8735.76,-364.99C8722.71,-363.07 8709.16,-361.29 8696.39,-360 7439.98,-233.14 5916.41,-206.06 5411.25,-200.43"/>
<polygon fill="black" stroke="black" points="5411,-196.93 5400.96,-200.32 5410.92,-203.93 5411,-196.93"/>
<text text-anchor="middle" x="8730.76" y="-353.79" font-family="Times,serif" font-size="14.00">1</text>
</g>
<!-- ric.func_8016D9C4 -->
<g id="node43" class="node">
<title>ric.func_8016D9C4</title>
<g id="a_node43"><a xlink:href="ric.func_8016D9C4.svg" xlink:title="ric.func_8016D9C4">
<ellipse fill="red" stroke="black" cx="9023.39" cy="-378" rx="99.38" ry="18"/>
<text text-anchor="middle" x="9023.39" y="-374.3" font-family="Times,serif" font-size="14.00">ric.func_8016D9C4</text>
</a>
</g>
</g>
<!-- ric.func_8016D9C4&#45;&gt;ric.CreateEntFactoryFromEntity -->
<g id="edge42" class="edge">
<title>ric.func_8016D9C4&#45;&gt;ric.CreateEntFactoryFromEntity</title>
<path fill="none" stroke="black" d="M8954.05,-365.01C8940.91,-363.07 8927.26,-361.28 8914.39,-360 7570.12,-226.14 5938.19,-203.57 5411.83,-199.77"/>
<polygon fill="black" stroke="black" points="5411.52,-196.27 5401.5,-199.7 5411.47,-203.27 5411.52,-196.27"/>
<text text-anchor="middle" x="8949.05" y="-353.81" font-family="Times,serif" font-size="14.00">1</text>
</g>
<!-- ric.func_8016E324 -->
<g id="node44" class="node">
<title>ric.func_8016E324</title>
<g id="a_node44"><a xlink:href="ric.func_8016E324.svg" xlink:title="ric.func_8016E324">
<ellipse fill="green" stroke="black" cx="9239.39" cy="-378" rx="98.28" ry="18"/>
<text text-anchor="middle" x="9239.39" y="-374.3" font-family="Times,serif" font-size="14.00">ric.func_8016E324</text>
</a>
</g>
</g>
<!-- ric.func_8016E324&#45;&gt;ric.CreateEntFactoryFromEntity -->
<g id="edge43" class="edge">
<title>ric.func_8016E324&#45;&gt;ric.CreateEntFactoryFromEntity</title>
<path fill="none" stroke="black" d="M9170.99,-365.02C9157.88,-363.07 9144.24,-361.27 9131.39,-360 7699.52,-218.16 5959.34,-200.88 5412.4,-199.09"/>
<polygon fill="black" stroke="black" points="5412.07,-195.59 5402.06,-199.06 5412.05,-202.59 5412.07,-195.59"/>
<text text-anchor="middle" x="9165.99" y="-353.82" font-family="Times,serif" font-size="14.00">3</text>
</g>
<!-- ric.func_8016E9E4 -->
<g id="node45" class="node">
<title>ric.func_8016E9E4</title>
<g id="a_node45"><a xlink:href="ric.func_8016E9E4.svg" xlink:title="ric.func_8016E9E4">
<ellipse fill="green" stroke="black" cx="9454.39" cy="-378" rx="98.58" ry="18"/>
<text text-anchor="middle" x="9454.39" y="-374.3" font-family="Times,serif" font-size="14.00">ric.func_8016E9E4</text>
</a>
</g>
</g>
<!-- ric.func_8016E9E4&#45;&gt;ric.CreateEntFactoryFromEntity -->
<g id="edge44" class="edge">
<title>ric.func_8016E9E4&#45;&gt;ric.CreateEntFactoryFromEntity</title>
<path fill="none" stroke="black" d="M9385.99,-365C9372.88,-363.05 9359.24,-361.26 9346.39,-360 7827.08,-211.16 5978.89,-198.65 5412.54,-198.56"/>
<polygon fill="black" stroke="black" points="5412.26,-195.06 5402.26,-198.56 5412.26,-202.06 5412.26,-195.06"/>
<text text-anchor="middle" x="9380.99" y="-353.8" font-family="Times,serif" font-size="14.00">1</text>
</g>
<!-- ric.func_801705EC -->
<g id="node46" class="node">
<title>ric.func_801705EC</title>
<g id="a_node46"><a xlink:href="ric.func_801705EC.svg" xlink:title="ric.func_801705EC">
<ellipse fill="green" stroke="black" cx="9670.39" cy="-378" rx="98.58" ry="18"/>
<text text-anchor="middle" x="9670.39" y="-374.3" font-family="Times,serif" font-size="14.00">ric.func_801705EC</text>
</a>
</g>
</g>
<!-- ric.func_801705EC&#45;&gt;ric.CreateEntFactoryFromEntity -->
<g id="edge45" class="edge">
<title>ric.func_801705EC&#45;&gt;ric.CreateEntFactoryFromEntity</title>
<path fill="none" stroke="black" d="M9601.99,-364.98C9588.88,-363.03 9575.24,-361.25 9562.39,-360 8733.89,-279.65 6099.06,-217.74 5407.14,-202.58"/>
<polygon fill="black" stroke="black" points="5407.17,-199.08 5397.09,-202.36 5407.02,-206.07 5407.17,-199.08"/>
<text text-anchor="middle" x="9596.99" y="-353.78" font-family="Times,serif" font-size="14.00">1</text>
</g>
<!-- ric.func_801719A4 -->
<g id="node47" class="node">
<title>ric.func_801719A4</title>
<g id="a_node47"><a xlink:href="ric.func_801719A4.svg" xlink:title="ric.func_801719A4">
<ellipse fill="green" stroke="black" cx="9884.39" cy="-378" rx="97.48" ry="18"/>
<text text-anchor="middle" x="9884.39" y="-374.3" font-family="Times,serif" font-size="14.00">ric.func_801719A4</text>
</a>
</g>
</g>
<!-- ric.func_801719A4&#45;&gt;ric.CreateEntFactoryFromEntity -->
<g id="edge46" class="edge">
<title>ric.func_801719A4&#45;&gt;ric.CreateEntFactoryFromEntity</title>
<path fill="none" stroke="black" d="M9816.98,-364.91C9804.2,-362.98 9790.91,-361.22 9778.39,-360 8905.56,-274.86 6122.71,-216.12 5407.99,-202.19"/>
<polygon fill="black" stroke="black" points="5407.95,-198.68 5397.88,-201.99 5407.81,-205.68 5407.95,-198.68"/>
<text text-anchor="middle" x="9811.98" y="-353.71" font-family="Times,serif" font-size="14.00">4</text>
</g>
</g>
</svg>
