<?xml version="1.0" encoding="UTF-8" standalone="no"?>
<!DOCTYPE svg PUBLIC "-//W3C//DTD SVG 1.1//EN"
 "http://www.w3.org/Graphics/SVG/1.1/DTD/svg11.dtd">
<!-- Generated by graphviz version 2.43.0 (0)
 -->
<!-- Title: ric.SetSpeedX Pages: 1 -->
<svg width="3959pt" height="224pt"
 viewBox="0.00 0.00 3958.53 224.00" xmlns="http://www.w3.org/2000/svg" xmlns:xlink="http://www.w3.org/1999/xlink">
<g id="graph0" class="graph" transform="scale(1 1) rotate(0) translate(4 220)">
<title>ric.SetSpeedX</title>
<polygon fill="white" stroke="transparent" points="-4,4 -4,-220 3954.53,-220 3954.53,4 -4,4"/>
<!-- ric.SetSpeedX -->
<g id="node1" class="node">
<title>ric.SetSpeedX</title>
<ellipse fill="green" stroke="black" cx="2010.39" cy="-18" rx="76.89" ry="18"/>
<text text-anchor="middle" x="2010.39" y="-14.3" font-family="Times,serif" font-size="14.00">ric.SetSpeedX</text>
</g>
<!-- ric.DoBladeDash -->
<g id="node2" class="node">
<title>ric.DoBladeDash</title>
<g id="a_node2"><a xlink:href="ric.DoBladeDash.svg" xlink:title="ric.DoBladeDash">
<ellipse fill="green" stroke="black" cx="88.39" cy="-198" rx="88.28" ry="18"/>
<text text-anchor="middle" x="88.39" y="-194.3" font-family="Times,serif" font-size="14.00">ric.DoBladeDash</text>
</a>
</g>
</g>
<!-- ric.DoBladeDash&#45;&gt;ric.SetSpeedX -->
<g id="edge1" class="edge">
<title>ric.DoBladeDash&#45;&gt;ric.SetSpeedX</title>
<path fill="none" stroke="black" d="M151.27,-185.29C162.92,-183.35 175.01,-181.49 186.39,-180 854.79,-92.68 1667.31,-39.56 1926.64,-23.89"/>
<polygon fill="black" stroke="black" points="1926.97,-27.37 1936.74,-23.28 1926.55,-20.39 1926.97,-27.37"/>
<text text-anchor="middle" x="146.27" y="-174.09" font-family="Times,serif" font-size="14.00">1</text>
</g>
<!-- ric.DoHighJump -->
<g id="node3" class="node">
<title>ric.DoHighJump</title>
<g id="a_node3"><a xlink:href="ric.DoHighJump.svg" xlink:title="ric.DoHighJump">
<ellipse fill="green" stroke="black" cx="280.39" cy="-198" rx="85.29" ry="18"/>
<text text-anchor="middle" x="280.39" y="-194.3" font-family="Times,serif" font-size="14.00">ric.DoHighJump</text>
</a>
</g>
</g>
<!-- ric.DoHighJump&#45;&gt;ric.SetSpeedX -->
<g id="edge2" class="edge">
<title>ric.DoHighJump&#45;&gt;ric.SetSpeedX</title>
<path fill="none" stroke="black" d="M340.96,-185.3C352.05,-183.37 363.55,-181.51 374.39,-180 967.6,-97.31 1687.65,-42 1927.93,-24.75"/>
<polygon fill="black" stroke="black" points="1928.26,-28.23 1937.98,-24.03 1927.76,-21.25 1928.26,-28.23"/>
<text text-anchor="middle" x="335.96" y="-174.1" font-family="Times,serif" font-size="14.00">1</text>
</g>
<!-- ric.EntityCrossBoomerang -->
<g id="node4" class="node">
<title>ric.EntityCrossBoomerang</title>
<g id="a_node4"><a xlink:href="ric.EntityCrossBoomerang.svg" xlink:title="ric.EntityCrossBoomerang">
<ellipse fill="green" stroke="black" cx="517.39" cy="-198" rx="133.78" ry="18"/>
<text text-anchor="middle" x="517.39" y="-194.3" font-family="Times,serif" font-size="14.00">ric.EntityCrossBoomerang</text>
</a>
</g>
</g>
<!-- ric.EntityCrossBoomerang&#45;&gt;ric.SetSpeedX -->
<g id="edge3" class="edge">
<title>ric.EntityCrossBoomerang&#45;&gt;ric.SetSpeedX</title>
<path fill="none" stroke="black" d="M613.92,-185.49C890.72,-152.49 1683.4,-57.99 1933.69,-28.14"/>
<polygon fill="black" stroke="black" points="1934.27,-31.6 1943.78,-26.94 1933.44,-24.65 1934.27,-31.6"/>
<text text-anchor="middle" x="608.92" y="-174.29" font-family="Times,serif" font-size="14.00">1</text>
</g>
<!-- ric.RichterHandleDamage -->
<g id="node5" class="node">
<title>ric.RichterHandleDamage</title>
<g id="a_node5"><a xlink:href="ric.RichterHandleDamage.svg" xlink:title="ric.RichterHandleDamage">
<ellipse fill="green" stroke="black" cx="800.39" cy="-198" rx="131.08" ry="18"/>
<text text-anchor="middle" x="800.39" y="-194.3" font-family="Times,serif" font-size="14.00">ric.RichterHandleDamage</text>
</a>
</g>
</g>
<!-- ric.RichterHandleDamage&#45;&gt;ric.SetSpeedX -->
<g id="edge4" class="edge">
<title>ric.RichterHandleDamage&#45;&gt;ric.SetSpeedX</title>
<path fill="none" stroke="black" d="M886.44,-184.34C1113.4,-150.95 1725.32,-60.94 1937.08,-29.78"/>
<polygon fill="black" stroke="black" points="1937.78,-33.22 1947.16,-28.3 1936.76,-26.29 1937.78,-33.22"/>
<text text-anchor="middle" x="881.44" y="-173.14" font-family="Times,serif" font-size="14.00">1</text>
</g>
<!-- ric.func_80158F38 -->
<g id="node6" class="node">
<title>ric.func_80158F38</title>
<g id="a_node6"><a xlink:href="ric.func_80158F38.svg" xlink:title="ric.func_80158F38">
<ellipse fill="green" stroke="black" cx="1047.39" cy="-198" rx="97.48" ry="18"/>
<text text-anchor="middle" x="1047.39" y="-194.3" font-family="Times,serif" font-size="14.00">ric.func_80158F38</text>
</a>
</g>
</g>
<!-- ric.func_80158F38&#45;&gt;ric.SetSpeedX -->
<g id="edge5" class="edge">
<title>ric.func_80158F38&#45;&gt;ric.SetSpeedX</title>
<path fill="none" stroke="black" d="M1113.58,-184.77C1288.97,-152.35 1764.37,-64.47 1942.12,-31.62"/>
<polygon fill="black" stroke="black" points="1942.93,-35.03 1952.13,-29.77 1941.66,-28.15 1942.93,-35.03"/>
<text text-anchor="middle" x="1108.58" y="-173.57" font-family="Times,serif" font-size="14.00">1</text>
</g>
<!-- ric.func_80158FA4 -->
<g id="node7" class="node">
<title>ric.func_80158FA4</title>
<g id="a_node7"><a xlink:href="ric.func_80158FA4.svg" xlink:title="ric.func_80158FA4">
<ellipse fill="green" stroke="black" cx="1259.39" cy="-198" rx="96.68" ry="18"/>
<text text-anchor="middle" x="1259.39" y="-194.3" font-family="Times,serif" font-size="14.00">ric.func_80158FA4</text>
</a>
</g>
</g>
<!-- ric.func_80158FA4&#45;&gt;ric.SetSpeedX -->
<g id="edge6" class="edge">
<title>ric.func_80158FA4&#45;&gt;ric.SetSpeedX</title>
<path fill="none" stroke="black" d="M1316.76,-183.4C1455.06,-150.62 1805.89,-67.47 1948.6,-33.65"/>
<polygon fill="black" stroke="black" points="1949.58,-37.01 1958.5,-31.3 1947.97,-30.2 1949.58,-37.01"/>
<text text-anchor="middle" x="1311.76" y="-172.2" font-family="Times,serif" font-size="14.00">1</text>
</g>
<!-- ric.func_801590A0 -->
<g id="node8" class="node">
<title>ric.func_801590A0</title>
<g id="a_node8"><a xlink:href="ric.func_801590A0.svg" xlink:title="ric.func_801590A0">
<ellipse fill="green" stroke="black" cx="1471.39" cy="-198" rx="97.48" ry="18"/>
<text text-anchor="middle" x="1471.39" y="-194.3" font-family="Times,serif" font-size="14.00">ric.func_801590A0</text>
</a>
</g>
</g>
<!-- ric.func_801590A0&#45;&gt;ric.SetSpeedX -->
<g id="edge7" class="edge">
<title>ric.func_801590A0&#45;&gt;ric.SetSpeedX</title>
<path fill="none" stroke="black" d="M1516.88,-181.98C1616.34,-149.13 1852.63,-71.1 1958.05,-36.28"/>
<polygon fill="black" stroke="black" points="1959.44,-39.51 1967.84,-33.05 1957.24,-32.87 1959.44,-39.51"/>
<text text-anchor="middle" x="1511.88" y="-170.78" font-family="Times,serif" font-size="14.00">8</text>
</g>
<!-- ric.func_801595D8 -->
<g id="node9" class="node">
<title>ric.func_801595D8</title>
<g id="a_node9"><a xlink:href="ric.func_801595D8.svg" xlink:title="ric.func_801595D8">
<ellipse fill="green" stroke="black" cx="1685.39" cy="-198" rx="98.58" ry="18"/>
<text text-anchor="middle" x="1685.39" y="-194.3" font-family="Times,serif" font-size="14.00">ric.func_801595D8</text>
</a>
</g>
</g>
<!-- ric.func_801595D8&#45;&gt;ric.SetSpeedX -->
<g id="edge8" class="edge">
<title>ric.func_801595D8&#45;&gt;ric.SetSpeedX</title>
<path fill="none" stroke="black" d="M1715.1,-180.73C1774.24,-148.34 1906.66,-75.81 1972.18,-39.93"/>
<polygon fill="black" stroke="black" points="1974.25,-42.78 1981.34,-34.91 1970.89,-36.64 1974.25,-42.78"/>
<text text-anchor="middle" x="1710.1" y="-169.53" font-family="Times,serif" font-size="14.00">1</text>
</g>
<!-- ric.func_8015BE84 -->
<g id="node10" class="node">
<title>ric.func_8015BE84</title>
<g id="a_node10"><a xlink:href="ric.func_8015BE84.svg" xlink:title="ric.func_8015BE84">
<ellipse fill="green" stroke="black" cx="1901.39" cy="-198" rx="98.58" ry="18"/>
<text text-anchor="middle" x="1901.39" y="-194.3" font-family="Times,serif" font-size="14.00">ric.func_8015BE84</text>
</a>
</g>
</g>
<!-- ric.func_8015BE84&#45;&gt;ric.SetSpeedX -->
<g id="edge9" class="edge">
<title>ric.func_8015BE84&#45;&gt;ric.SetSpeedX</title>
<path fill="none" stroke="black" d="M1911.84,-179.93C1931.05,-148.57 1972.06,-81.6 1994.65,-44.71"/>
<polygon fill="black" stroke="black" points="1997.73,-46.37 1999.97,-36.02 1991.77,-42.72 1997.73,-46.37"/>
<text text-anchor="middle" x="1906.84" y="-168.73" font-family="Times,serif" font-size="14.00">1</text>
</g>
<!-- ric.func_8015CDE0 -->
<g id="node11" class="node">
<title>ric.func_8015CDE0</title>
<g id="a_node11"><a xlink:href="ric.func_8015CDE0.svg" xlink:title="ric.func_8015CDE0">
<ellipse fill="green" stroke="black" cx="2119.39" cy="-198" rx="100.98" ry="18"/>
<text text-anchor="middle" x="2119.39" y="-194.3" font-family="Times,serif" font-size="14.00">ric.func_8015CDE0</text>
</a>
</g>
</g>
<!-- ric.func_8015CDE0&#45;&gt;ric.SetSpeedX -->
<g id="edge10" class="edge">
<title>ric.func_8015CDE0&#45;&gt;ric.SetSpeedX</title>
<path fill="none" stroke="black" d="M2108.94,-179.93C2089.73,-148.57 2048.73,-81.6 2026.13,-44.71"/>
<polygon fill="black" stroke="black" points="2029.02,-42.72 2020.81,-36.02 2023.05,-46.37 2029.02,-42.72"/>
<text text-anchor="middle" x="2103.94" y="-168.73" font-family="Times,serif" font-size="14.00">1</text>
</g>
<!-- ric.func_8015CE7C -->
<g id="node12" class="node">
<title>ric.func_8015CE7C</title>
<g id="a_node12"><a xlink:href="ric.func_8015CE7C.svg" xlink:title="ric.func_8015CE7C">
<ellipse fill="green" stroke="black" cx="2338.39" cy="-198" rx="100.18" ry="18"/>
<text text-anchor="middle" x="2338.39" y="-194.3" font-family="Times,serif" font-size="14.00">ric.func_8015CE7C</text>
</a>
</g>
</g>
<!-- ric.func_8015CE7C&#45;&gt;ric.SetSpeedX -->
<g id="edge11" class="edge">
<title>ric.func_8015CE7C&#45;&gt;ric.SetSpeedX</title>
<path fill="none" stroke="black" d="M2308.41,-180.73C2248.6,-148.27 2114.53,-75.52 2048.55,-39.71"/>
<polygon fill="black" stroke="black" points="2050.17,-36.6 2039.71,-34.91 2046.83,-42.76 2050.17,-36.6"/>
<text text-anchor="middle" x="2303.41" y="-169.53" font-family="Times,serif" font-size="14.00">1</text>
</g>
<!-- ric.func_8015D020 -->
<g id="node13" class="node">
<title>ric.func_8015D020</title>
<g id="a_node13"><a xlink:href="ric.func_8015D020.svg" xlink:title="ric.func_8015D020">
<ellipse fill="green" stroke="black" cx="2555.39" cy="-198" rx="98.58" ry="18"/>
<text text-anchor="middle" x="2555.39" y="-194.3" font-family="Times,serif" font-size="14.00">ric.func_8015D020</text>
</a>
</g>
</g>
<!-- ric.func_8015D020&#45;&gt;ric.SetSpeedX -->
<g id="edge12" class="edge">
<title>ric.func_8015D020&#45;&gt;ric.SetSpeedX</title>
<path fill="none" stroke="black" d="M2509.4,-181.98C2408.73,-149.1 2169.42,-70.94 2062.99,-36.18"/>
<polygon fill="black" stroke="black" points="2064.01,-32.83 2053.42,-33.05 2061.84,-39.48 2064.01,-32.83"/>
<text text-anchor="middle" x="2504.4" y="-170.78" font-family="Times,serif" font-size="14.00">2</text>
</g>
<!-- ric.func_8015D9D4 -->
<g id="node14" class="node">
<title>ric.func_8015D9D4</title>
<g id="a_node14"><a xlink:href="ric.func_8015D9D4.svg" xlink:title="ric.func_8015D9D4">
<ellipse fill="green" stroke="black" cx="2772.39" cy="-198" rx="100.18" ry="18"/>
<text text-anchor="middle" x="2772.39" y="-194.3" font-family="Times,serif" font-size="14.00">ric.func_8015D9D4</text>
</a>
</g>
</g>
<!-- ric.func_8015D9D4&#45;&gt;ric.SetSpeedX -->
<g id="edge13" class="edge">
<title>ric.func_8015D9D4&#45;&gt;ric.SetSpeedX</title>
<path fill="none" stroke="black" d="M2713.86,-183.33C2573.31,-150.49 2217.67,-67.42 2073.03,-33.63"/>
<polygon fill="black" stroke="black" points="2073.52,-30.15 2062.98,-31.28 2071.92,-36.97 2073.52,-30.15"/>
<text text-anchor="middle" x="2708.86" y="-172.13" font-family="Times,serif" font-size="14.00">1</text>
</g>
<!-- ric.func_8015DA60 -->
<g id="node15" class="node">
<title>ric.func_8015DA60</title>
<g id="a_node15"><a xlink:href="ric.func_8015DA60.svg" xlink:title="ric.func_8015DA60">
<ellipse fill="green" stroke="black" cx="2989.39" cy="-198" rx="98.58" ry="18"/>
<text text-anchor="middle" x="2989.39" y="-194.3" font-family="Times,serif" font-size="14.00">ric.func_8015DA60</text>
</a>
</g>
</g>
<!-- ric.func_8015DA60&#45;&gt;ric.SetSpeedX -->
<g id="edge14" class="edge">
<title>ric.func_8015DA60&#45;&gt;ric.SetSpeedX</title>
<path fill="none" stroke="black" d="M2922.1,-184.77C2743.5,-152.29 2258.87,-64.18 2078.89,-31.45"/>
<polygon fill="black" stroke="black" points="2079.48,-28 2069.01,-29.66 2078.23,-34.89 2079.48,-28"/>
<text text-anchor="middle" x="2917.1" y="-173.57" font-family="Times,serif" font-size="14.00">1</text>
</g>
<!-- ric.func_80160FC4 -->
<g id="node16" class="node">
<title>ric.func_80160FC4</title>
<g id="a_node16"><a xlink:href="ric.func_80160FC4.svg" xlink:title="ric.func_80160FC4">
<ellipse fill="green" stroke="black" cx="3205.39" cy="-198" rx="98.58" ry="18"/>
<text text-anchor="middle" x="3205.39" y="-194.3" font-family="Times,serif" font-size="14.00">ric.func_80160FC4</text>
</a>
</g>
</g>
<!-- ric.func_80160FC4&#45;&gt;ric.SetSpeedX -->
<g id="edge15" class="edge">
<title>ric.func_80160FC4&#45;&gt;ric.SetSpeedX</title>
<path fill="none" stroke="black" d="M3133.66,-185.62C3121.56,-183.72 3109.12,-181.79 3097.39,-180 2716.26,-121.78 2259.45,-55.14 2083.98,-29.66"/>
<polygon fill="black" stroke="black" points="2084.23,-26.16 2073.83,-28.19 2083.22,-33.09 2084.23,-26.16"/>
<text text-anchor="middle" x="3128.66" y="-174.42" font-family="Times,serif" font-size="14.00">2</text>
</g>
<!-- ric.func_8016A26C -->
<g id="node17" class="node">
<title>ric.func_8016A26C</title>
<g id="a_node17"><a xlink:href="ric.func_8016A26C.svg" xlink:title="ric.func_8016A26C">
<ellipse fill="red" stroke="black" cx="3421.39" cy="-198" rx="98.58" ry="18"/>
<text text-anchor="middle" x="3421.39" y="-194.3" font-family="Times,serif" font-size="14.00">ric.func_8016A26C</text>
</a>
</g>
</g>
<!-- ric.func_8016A26C&#45;&gt;ric.SetSpeedX -->
<g id="edge16" class="edge">
<title>ric.func_8016A26C&#45;&gt;ric.SetSpeedX</title>
<path fill="none" stroke="black" d="M3350.28,-185.46C3337.99,-183.57 3325.33,-181.68 3313.39,-180 2849.42,-114.84 2290.48,-50.52 2088.2,-27.7"/>
<polygon fill="black" stroke="black" points="2088.3,-24.19 2077.97,-26.55 2087.52,-31.15 2088.3,-24.19"/>
<text text-anchor="middle" x="3345.28" y="-174.26" font-family="Times,serif" font-size="14.00">1</text>
</g>
<!-- ric.func_8016B0C0 -->
<g id="node18" class="node">
<title>ric.func_8016B0C0</title>
<g id="a_node18"><a xlink:href="ric.func_8016B0C0.svg" xlink:title="ric.func_8016B0C0">
<ellipse fill="red" stroke="black" cx="3637.39" cy="-198" rx="98.58" ry="18"/>
<text text-anchor="middle" x="3637.39" y="-194.3" font-family="Times,serif" font-size="14.00">ric.func_8016B0C0</text>
</a>
</g>
</g>
<!-- ric.func_8016B0C0&#45;&gt;ric.SetSpeedX -->
<g id="edge17" class="edge">
<title>ric.func_8016B0C0&#45;&gt;ric.SetSpeedX</title>
<path fill="none" stroke="black" d="M3566.88,-185.38C3554.41,-183.47 3541.53,-181.6 3529.39,-180 2981.08,-107.83 2318.07,-46.4 2091.11,-26.11"/>
<polygon fill="black" stroke="black" points="2091.22,-22.6 2080.95,-25.2 2090.6,-29.58 2091.22,-22.6"/>
<text text-anchor="middle" x="3561.88" y="-174.18" font-family="Times,serif" font-size="14.00">1</text>
</g>
<!-- ric.func_8016C734 -->
<g id="node19" class="node">
<title>ric.func_8016C734</title>
<g id="a_node19"><a xlink:href="ric.func_8016C734.svg" xlink:title="ric.func_8016C734">
<ellipse fill="red" stroke="black" cx="3852.39" cy="-198" rx="98.28" ry="18"/>
<text text-anchor="middle" x="3852.39" y="-194.3" font-family="Times,serif" font-size="14.00">ric.func_8016C734</text>
</a>
</g>
</g>
<!-- ric.func_8016C734&#45;&gt;ric.SetSpeedX -->
<g id="edge18" class="edge">
<title>ric.func_8016C734&#45;&gt;ric.SetSpeedX</title>
<path fill="none" stroke="black" d="M3782.84,-185.28C3770.39,-183.37 3757.52,-181.52 3745.39,-180 3111.49,-100.32 2342.66,-42.53 2092.97,-24.75"/>
<polygon fill="black" stroke="black" points="2093.11,-21.25 2082.88,-24.03 2092.61,-28.23 2093.11,-21.25"/>
<text text-anchor="middle" x="3777.84" y="-174.08" font-family="Times,serif" font-size="14.00">1</text>
</g>
</g>
</svg>
