<?xml version="1.0" encoding="UTF-8" standalone="no"?>
<!DOCTYPE svg PUBLIC "-//W3C//DTD SVG 1.1//EN"
 "http://www.w3.org/Graphics/SVG/1.1/DTD/svg11.dtd">
<!-- Generated by graphviz version 2.43.0 (0)
 -->
<!-- Title: ric.RicCreateEntFactoryFromEntity Pages: 1 -->
<svg width="10116pt" height="404pt"
 viewBox="0.00 0.00 10116.38 404.00" xmlns="http://www.w3.org/2000/svg" xmlns:xlink="http://www.w3.org/1999/xlink">
<g id="graph0" class="graph" transform="scale(1 1) rotate(0) translate(4 400)">
<title>ric.RicCreateEntFactoryFromEntity</title>
<polygon fill="white" stroke="transparent" points="-4,4 -4,-400 10112.38,-400 10112.38,4 -4,4"/>
<!-- ric.RicCreateEntFactoryFromEntity -->
<g id="node1" class="node">
<title>ric.RicCreateEntFactoryFromEntity</title>
<ellipse fill="green" stroke="black" cx="5685.59" cy="-198" rx="176.57" ry="18"/>
<text text-anchor="middle" x="5685.59" y="-194.3" font-family="Times,serif" font-size="14.00">ric.RicCreateEntFactoryFromEntity</text>
</g>
<!-- ric.DestroyEntity -->
<g id="node2" class="node">
<title>ric.DestroyEntity</title>
<g id="a_node2"><a xlink:href="ric.DestroyEntity.svg" xlink:title="ric.DestroyEntity">
<ellipse fill="green" stroke="black" cx="5577.59" cy="-18" rx="90.98" ry="18"/>
<text text-anchor="middle" x="5577.59" y="-14.3" font-family="Times,serif" font-size="14.00">ric.DestroyEntity</text>
</a>
</g>
</g>
<!-- ric.RicCreateEntFactoryFromEntity&#45;&gt;ric.DestroyEntity -->
<g id="edge1" class="edge">
<title>ric.RicCreateEntFactoryFromEntity&#45;&gt;ric.DestroyEntity</title>
<path fill="none" stroke="black" d="M5675.24,-179.93C5656.21,-148.57 5615.57,-81.6 5593.19,-44.71"/>
<polygon fill="black" stroke="black" points="5596.1,-42.75 5587.92,-36.02 5590.11,-46.38 5596.1,-42.75"/>
<text text-anchor="middle" x="5582.92" y="-39.82" font-family="Times,serif" font-size="14.00">1</text>
</g>
<!-- ric.RicGetFreeEntity -->
<g id="node3" class="node">
<title>ric.RicGetFreeEntity</title>
<g id="a_node3"><a xlink:href="ric.RicGetFreeEntity.svg" xlink:title="ric.RicGetFreeEntity">
<ellipse fill="green" stroke="black" cx="5793.59" cy="-18" rx="107.48" ry="18"/>
<text text-anchor="middle" x="5793.59" y="-14.3" font-family="Times,serif" font-size="14.00">ric.RicGetFreeEntity</text>
</a>
</g>
</g>
<!-- ric.RicCreateEntFactoryFromEntity&#45;&gt;ric.RicGetFreeEntity -->
<g id="edge2" class="edge">
<title>ric.RicCreateEntFactoryFromEntity&#45;&gt;ric.RicGetFreeEntity</title>
<path fill="none" stroke="black" d="M5695.95,-179.93C5714.98,-148.57 5755.61,-81.6 5777.99,-44.71"/>
<polygon fill="black" stroke="black" points="5781.07,-46.38 5783.27,-36.02 5775.09,-42.75 5781.07,-46.38"/>
<text text-anchor="middle" x="5778.27" y="-39.82" font-family="Times,serif" font-size="14.00">1</text>
</g>
<!-- ric.RicCheckInput -->
<g id="node4" class="node">
<title>ric.RicCheckInput</title>
<g id="a_node4"><a xlink:href="ric.RicCheckInput.svg" xlink:title="ric.RicCheckInput">
<ellipse fill="green" stroke="black" cx="93.59" cy="-378" rx="93.68" ry="18"/>
<text text-anchor="middle" x="93.59" y="-374.3" font-family="Times,serif" font-size="14.00">ric.RicCheckInput</text>
</a>
</g>
</g>
<!-- ric.RicCheckInput&#45;&gt;ric.RicCreateEntFactoryFromEntity -->
<g id="edge3" class="edge">
<title>ric.RicCheckInput&#45;&gt;ric.RicCreateEntFactoryFromEntity</title>
<path fill="none" stroke="black" d="M158.25,-364.97C170.92,-362.99 184.14,-361.2 196.59,-360 1259.86,-257.13 4667.77,-210.99 5500.64,-201.09"/>
<polygon fill="black" stroke="black" points="5500.96,-204.58 5510.92,-200.96 5500.88,-197.58 5500.96,-204.58"/>
<text text-anchor="middle" x="153.25" y="-353.77" font-family="Times,serif" font-size="14.00">5</text>
</g>
<!-- ric.RicDoAttack -->
<g id="node5" class="node">
<title>ric.RicDoAttack</title>
<g id="a_node5"><a xlink:href="ric.RicDoAttack.svg" xlink:title="ric.RicDoAttack">
<ellipse fill="green" stroke="black" cx="288.59" cy="-378" rx="83.39" ry="18"/>
<text text-anchor="middle" x="288.59" y="-374.3" font-family="Times,serif" font-size="14.00">ric.RicDoAttack</text>
</a>
</g>
</g>
<!-- ric.RicDoAttack&#45;&gt;ric.RicCreateEntFactoryFromEntity -->
<g id="edge4" class="edge">
<title>ric.RicDoAttack&#45;&gt;ric.RicCreateEntFactoryFromEntity</title>
<path fill="none" stroke="black" d="M346.31,-364.95C357.63,-362.98 369.45,-361.19 380.59,-360 1404.62,-250.49 4685.17,-209.47 5500.71,-200.83"/>
<polygon fill="black" stroke="black" points="5500.81,-204.33 5510.78,-200.72 5500.74,-197.33 5500.81,-204.33"/>
<text text-anchor="middle" x="341.31" y="-353.75" font-family="Times,serif" font-size="14.00">2</text>
</g>
<!-- ric.RicDoCrash -->
<g id="node6" class="node">
<title>ric.RicDoCrash</title>
<g id="a_node6"><a xlink:href="ric.RicDoCrash.svg" xlink:title="ric.RicDoCrash">
<ellipse fill="green" stroke="black" cx="470.59" cy="-378" rx="80.69" ry="18"/>
<text text-anchor="middle" x="470.59" y="-374.3" font-family="Times,serif" font-size="14.00">ric.RicDoCrash</text>
</a>
</g>
</g>
<!-- ric.RicDoCrash&#45;&gt;ric.RicCreateEntFactoryFromEntity -->
<g id="edge5" class="edge">
<title>ric.RicDoCrash&#45;&gt;ric.RicCreateEntFactoryFromEntity</title>
<path fill="none" stroke="black" d="M526.56,-365.04C537.78,-363.03 549.53,-361.21 560.59,-360 1547.04,-252 4702.41,-210 5500.71,-200.96"/>
<polygon fill="black" stroke="black" points="5500.89,-204.46 5510.85,-200.84 5500.82,-197.46 5500.89,-204.46"/>
<text text-anchor="middle" x="521.56" y="-353.84" font-family="Times,serif" font-size="14.00">6</text>
</g>
<!-- ric.RicEntityAguneaCircle -->
<g id="node7" class="node">
<title>ric.RicEntityAguneaCircle</title>
<g id="a_node7"><a xlink:href="ric.RicEntityAguneaCircle.svg" xlink:title="ric.RicEntityAguneaCircle">
<ellipse fill="green" stroke="black" cx="700.59" cy="-378" rx="131.08" ry="18"/>
<text text-anchor="middle" x="700.59" y="-374.3" font-family="Times,serif" font-size="14.00">ric.RicEntityAguneaCircle</text>
</a>
</g>
</g>
<!-- ric.RicEntityAguneaCircle&#45;&gt;ric.RicCreateEntFactoryFromEntity -->
<g id="edge6" class="edge">
<title>ric.RicEntityAguneaCircle&#45;&gt;ric.RicCreateEntFactoryFromEntity</title>
<path fill="none" stroke="black" d="M791.12,-364.91C807.87,-363 825.24,-361.25 841.59,-360 2652.11,-221.03 4852.4,-201.95 5498.73,-199.38"/>
<polygon fill="black" stroke="black" points="5499.08,-202.88 5509.06,-199.34 5499.05,-195.88 5499.08,-202.88"/>
<text text-anchor="middle" x="786.12" y="-353.71" font-family="Times,serif" font-size="14.00">1</text>
</g>
<!-- ric.RicEntityCrashBible -->
<g id="node8" class="node">
<title>ric.RicEntityCrashBible</title>
<g id="a_node8"><a xlink:href="ric.RicEntityCrashBible.svg" xlink:title="ric.RicEntityCrashBible">
<ellipse fill="green" stroke="black" cx="970.59" cy="-378" rx="120.48" ry="18"/>
<text text-anchor="middle" x="970.59" y="-374.3" font-family="Times,serif" font-size="14.00">ric.RicEntityCrashBible</text>
</a>
</g>
</g>
<!-- ric.RicEntityCrashBible&#45;&gt;ric.RicCreateEntFactoryFromEntity -->
<g id="edge7" class="edge">
<title>ric.RicEntityCrashBible&#45;&gt;ric.RicCreateEntFactoryFromEntity</title>
<path fill="none" stroke="black" d="M1053.69,-364.94C1069.25,-363.02 1085.39,-361.26 1100.59,-360 2804.3,-219.01 4874.12,-201.26 5498.57,-199.21"/>
<polygon fill="black" stroke="black" points="5499.02,-202.71 5509.01,-199.18 5499,-195.71 5499.02,-202.71"/>
<text text-anchor="middle" x="1048.69" y="-353.74" font-family="Times,serif" font-size="14.00">1</text>
</g>
<!-- ric.RicEntityCrashReboundStone -->
<g id="node9" class="node">
<title>ric.RicEntityCrashReboundStone</title>
<g id="a_node9"><a xlink:href="ric.RicEntityCrashReboundStone.svg" xlink:title="ric.RicEntityCrashReboundStone">
<ellipse fill="green" stroke="black" cx="1273.59" cy="-378" rx="164.37" ry="18"/>
<text text-anchor="middle" x="1273.59" y="-374.3" font-family="Times,serif" font-size="14.00">ric.RicEntityCrashReboundStone</text>
</a>
</g>
</g>
<!-- ric.RicEntityCrashReboundStone&#45;&gt;ric.RicCreateEntFactoryFromEntity -->
<g id="edge8" class="edge">
<title>ric.RicEntityCrashReboundStone&#45;&gt;ric.RicCreateEntFactoryFromEntity</title>
<path fill="none" stroke="black" d="M1387.23,-364.92C1407.32,-363.06 1428.06,-361.32 1447.59,-360 3015.01,-253.75 4913.64,-212.77 5502.55,-202.07"/>
<polygon fill="black" stroke="black" points="5502.89,-205.56 5512.82,-201.88 5502.76,-198.56 5502.89,-205.56"/>
<text text-anchor="middle" x="1382.23" y="-353.72" font-family="Times,serif" font-size="14.00">3</text>
</g>
<!-- ric.RicEntityCrashStopwatchDoneSparkle -->
<g id="node10" class="node">
<title>ric.RicEntityCrashStopwatchDoneSparkle</title>
<g id="a_node10"><a xlink:href="ric.RicEntityCrashStopwatchDoneSparkle.svg" xlink:title="ric.RicEntityCrashStopwatchDoneSparkle">
<ellipse fill="green" stroke="black" cx="1661.59" cy="-378" rx="205.26" ry="18"/>
<text text-anchor="middle" x="1661.59" y="-374.3" font-family="Times,serif" font-size="14.00">ric.RicEntityCrashStopwatchDoneSparkle</text>
</a>
</g>
</g>
<!-- ric.RicEntityCrashStopwatchDoneSparkle&#45;&gt;ric.RicCreateEntFactoryFromEntity -->
<g id="edge9" class="edge">
<title>ric.RicEntityCrashStopwatchDoneSparkle&#45;&gt;ric.RicCreateEntFactoryFromEntity</title>
<path fill="none" stroke="black" d="M1803.7,-364.97C1827.69,-363.15 1852.34,-361.41 1875.59,-360 3274.22,-274.93 4964.41,-220.48 5508.08,-204.16"/>
<polygon fill="black" stroke="black" points="5508.47,-207.65 5518.36,-203.85 5508.26,-200.66 5508.47,-207.65"/>
<text text-anchor="middle" x="1798.7" y="-353.77" font-family="Times,serif" font-size="14.00">1</text>
</g>
<!-- ric.RicEntityCrashVibhuti -->
<g id="node11" class="node">
<title>ric.RicEntityCrashVibhuti</title>
<g id="a_node11"><a xlink:href="ric.RicEntityCrashVibhuti.svg" xlink:title="ric.RicEntityCrashVibhuti">
<ellipse fill="green" stroke="black" cx="2014.59" cy="-378" rx="129.98" ry="18"/>
<text text-anchor="middle" x="2014.59" y="-374.3" font-family="Times,serif" font-size="14.00">ric.RicEntityCrashVibhuti</text>
</a>
</g>
</g>
<!-- ric.RicEntityCrashVibhuti&#45;&gt;ric.RicCreateEntFactoryFromEntity -->
<g id="edge10" class="edge">
<title>ric.RicEntityCrashVibhuti&#45;&gt;ric.RicCreateEntFactoryFromEntity</title>
<path fill="none" stroke="black" d="M2104.59,-364.98C2120.88,-363.09 2137.72,-361.33 2153.59,-360 3433.46,-252.72 4980.66,-213.25 5503.2,-202.42"/>
<polygon fill="black" stroke="black" points="5503.54,-205.91 5513.47,-202.2 5503.4,-198.91 5503.54,-205.91"/>
<text text-anchor="middle" x="2099.59" y="-353.78" font-family="Times,serif" font-size="14.00">1</text>
</g>
<!-- ric.RicEntityMaria -->
<g id="node12" class="node">
<title>ric.RicEntityMaria</title>
<g id="a_node12"><a xlink:href="ric.RicEntityMaria.svg" xlink:title="ric.RicEntityMaria">
<ellipse fill="green" stroke="black" cx="2259.59" cy="-378" rx="96.68" ry="18"/>
<text text-anchor="middle" x="2259.59" y="-374.3" font-family="Times,serif" font-size="14.00">ric.RicEntityMaria</text>
</a>
</g>
</g>
<!-- ric.RicEntityMaria&#45;&gt;ric.RicCreateEntFactoryFromEntity -->
<g id="edge11" class="edge">
<title>ric.RicEntityMaria&#45;&gt;ric.RicCreateEntFactoryFromEntity</title>
<path fill="none" stroke="black" d="M2327.02,-365.04C2339.79,-363.1 2353.08,-361.3 2365.59,-360 3555.55,-236.11 4995.59,-207.29 5500.2,-200.81"/>
<polygon fill="black" stroke="black" points="5500.54,-204.31 5510.49,-200.68 5500.45,-197.31 5500.54,-204.31"/>
<text text-anchor="middle" x="2322.02" y="-353.84" font-family="Times,serif" font-size="14.00">2</text>
</g>
<!-- ric.RicEntitySubwpnAgunea -->
<g id="node13" class="node">
<title>ric.RicEntitySubwpnAgunea</title>
<g id="a_node13"><a xlink:href="ric.RicEntitySubwpnAgunea.svg" xlink:title="ric.RicEntitySubwpnAgunea">
<ellipse fill="green" stroke="black" cx="2516.59" cy="-378" rx="141.88" ry="18"/>
<text text-anchor="middle" x="2516.59" y="-374.3" font-family="Times,serif" font-size="14.00">ric.RicEntitySubwpnAgunea</text>
</a>
</g>
</g>
<!-- ric.RicEntitySubwpnAgunea&#45;&gt;ric.RicCreateEntFactoryFromEntity -->
<g id="edge12" class="edge">
<title>ric.RicEntitySubwpnAgunea&#45;&gt;ric.RicCreateEntFactoryFromEntity</title>
<path fill="none" stroke="black" d="M2614.95,-365C2632.14,-363.15 2649.88,-361.39 2666.59,-360 3745.3,-270.19 5045.25,-220.6 5509.94,-204.71"/>
<polygon fill="black" stroke="black" points="5510.21,-208.2 5520.09,-204.36 5509.98,-201.2 5510.21,-208.2"/>
<text text-anchor="middle" x="2609.95" y="-353.8" font-family="Times,serif" font-size="14.00">2</text>
</g>
<!-- ric.RicEntitySubwpnCrashCross -->
<g id="node14" class="node">
<title>ric.RicEntitySubwpnCrashCross</title>
<g id="a_node14"><a xlink:href="ric.RicEntitySubwpnCrashCross.svg" xlink:title="ric.RicEntitySubwpnCrashCross">
<ellipse fill="green" stroke="black" cx="2836.59" cy="-378" rx="160.57" ry="18"/>
<text text-anchor="middle" x="2836.59" y="-374.3" font-family="Times,serif" font-size="14.00">ric.RicEntitySubwpnCrashCross</text>
</a>
</g>
</g>
<!-- ric.RicEntitySubwpnCrashCross&#45;&gt;ric.RicCreateEntFactoryFromEntity -->
<g id="edge13" class="edge">
<title>ric.RicEntitySubwpnCrashCross&#45;&gt;ric.RicCreateEntFactoryFromEntity</title>
<path fill="none" stroke="black" d="M2949.01,-365.12C2968.21,-363.28 2987.96,-361.49 3006.59,-360 3955.67,-284.06 5096.5,-226.77 5518.29,-206.75"/>
<polygon fill="black" stroke="black" points="5518.6,-210.23 5528.42,-206.26 5518.27,-203.24 5518.6,-210.23"/>
<text text-anchor="middle" x="2944.01" y="-353.92" font-family="Times,serif" font-size="14.00">2</text>
</g>
<!-- ric.RicEntitySubwpnCross -->
<g id="node15" class="node">
<title>ric.RicEntitySubwpnCross</title>
<g id="a_node15"><a xlink:href="ric.RicEntitySubwpnCross.svg" xlink:title="ric.RicEntitySubwpnCross">
<ellipse fill="green" stroke="black" cx="3148.59" cy="-378" rx="133.48" ry="18"/>
<text text-anchor="middle" x="3148.59" y="-374.3" font-family="Times,serif" font-size="14.00">ric.RicEntitySubwpnCross</text>
</a>
</g>
</g>
<!-- ric.RicEntitySubwpnCross&#45;&gt;ric.RicCreateEntFactoryFromEntity -->
<g id="edge14" class="edge">
<title>ric.RicEntitySubwpnCross&#45;&gt;ric.RicCreateEntFactoryFromEntity</title>
<path fill="none" stroke="black" d="M3242.09,-365.11C3258.25,-363.25 3274.89,-361.47 3290.59,-360 4126.78,-281.89 5130.64,-226.99 5520,-207.16"/>
<polygon fill="black" stroke="black" points="5520.4,-210.64 5530.21,-206.64 5520.04,-203.65 5520.4,-210.64"/>
<text text-anchor="middle" x="3237.09" y="-353.91" font-family="Times,serif" font-size="14.00">7</text>
</g>
<!-- ric.RicEntitySubwpnDagger -->
<g id="node16" class="node">
<title>ric.RicEntitySubwpnDagger</title>
<g id="a_node16"><a xlink:href="ric.RicEntitySubwpnDagger.svg" xlink:title="ric.RicEntitySubwpnDagger">
<ellipse fill="green" stroke="black" cx="3440.59" cy="-378" rx="141.07" ry="18"/>
<text text-anchor="middle" x="3440.59" y="-374.3" font-family="Times,serif" font-size="14.00">ric.RicEntitySubwpnDagger</text>
</a>
</g>
</g>
<!-- ric.RicEntitySubwpnDagger&#45;&gt;ric.RicCreateEntFactoryFromEntity -->
<g id="edge15" class="edge">
<title>ric.RicEntitySubwpnDagger&#45;&gt;ric.RicCreateEntFactoryFromEntity</title>
<path fill="none" stroke="black" d="M3540.19,-365.2C3557,-363.36 3574.28,-361.55 3590.59,-360 4315.19,-291.12 5182.97,-231.81 5530.53,-208.99"/>
<polygon fill="black" stroke="black" points="5530.91,-212.47 5540.66,-208.33 5530.45,-205.49 5530.91,-212.47"/>
<text text-anchor="middle" x="3535.19" y="-354" font-family="Times,serif" font-size="14.00">1</text>
</g>
<!-- ric.RicEntitySubwpnHolyWater -->
<g id="node17" class="node">
<title>ric.RicEntitySubwpnHolyWater</title>
<g id="a_node17"><a xlink:href="ric.RicEntitySubwpnHolyWater.svg" xlink:title="ric.RicEntitySubwpnHolyWater">
<ellipse fill="green" stroke="black" cx="3755.59" cy="-378" rx="155.97" ry="18"/>
<text text-anchor="middle" x="3755.59" y="-374.3" font-family="Times,serif" font-size="14.00">ric.RicEntitySubwpnHolyWater</text>
</a>
</g>
</g>
<!-- ric.RicEntitySubwpnHolyWater&#45;&gt;ric.RicCreateEntFactoryFromEntity -->
<g id="edge16" class="edge">
<title>ric.RicEntitySubwpnHolyWater&#45;&gt;ric.RicCreateEntFactoryFromEntity</title>
<path fill="none" stroke="black" d="M3866.96,-365.35C3884.89,-363.52 3903.25,-361.68 3920.59,-360 4525.65,-301.24 5248.04,-237.28 5546.28,-211.15"/>
<polygon fill="black" stroke="black" points="5546.62,-214.63 5556.28,-210.27 5546.01,-207.66 5546.62,-214.63"/>
<text text-anchor="middle" x="3861.96" y="-354.15" font-family="Times,serif" font-size="14.00">2</text>
</g>
<!-- ric.RicEntitySubwpnHolyWaterFlame -->
<g id="node18" class="node">
<title>ric.RicEntitySubwpnHolyWaterFlame</title>
<g id="a_node18"><a xlink:href="ric.RicEntitySubwpnHolyWaterFlame.svg" xlink:title="ric.RicEntitySubwpnHolyWaterFlame">
<ellipse fill="green" stroke="black" cx="4114.59" cy="-378" rx="184.67" ry="18"/>
<text text-anchor="middle" x="4114.59" y="-374.3" font-family="Times,serif" font-size="14.00">ric.RicEntitySubwpnHolyWaterFlame</text>
</a>
</g>
</g>
<!-- ric.RicEntitySubwpnHolyWaterFlame&#45;&gt;ric.RicCreateEntFactoryFromEntity -->
<g id="edge17" class="edge">
<title>ric.RicEntitySubwpnHolyWaterFlame&#45;&gt;ric.RicCreateEntFactoryFromEntity</title>
<path fill="none" stroke="black" d="M4230.11,-363.91C4518.02,-331.29 5265.57,-246.59 5561.93,-213.01"/>
<polygon fill="black" stroke="black" points="5562.74,-216.44 5572.29,-211.84 5561.95,-209.49 5562.74,-216.44"/>
<text text-anchor="middle" x="4225.11" y="-352.71" font-family="Times,serif" font-size="14.00">1</text>
</g>
<!-- ric.RicEntityWhip -->
<g id="node19" class="node">
<title>ric.RicEntityWhip</title>
<g id="a_node19"><a xlink:href="ric.RicEntityWhip.svg" xlink:title="ric.RicEntityWhip">
<ellipse fill="green" stroke="black" cx="4410.59" cy="-378" rx="92.88" ry="18"/>
<text text-anchor="middle" x="4410.59" y="-374.3" font-family="Times,serif" font-size="14.00">ric.RicEntityWhip</text>
</a>
</g>
</g>
<!-- ric.RicEntityWhip&#45;&gt;ric.RicCreateEntFactoryFromEntity -->
<g id="edge18" class="edge">
<title>ric.RicEntityWhip&#45;&gt;ric.RicCreateEntFactoryFromEntity</title>
<path fill="none" stroke="black" d="M4477.76,-365.52C4489.37,-363.62 4501.32,-361.71 4512.59,-360 4899.24,-301.26 5359.08,-240.9 5569.75,-213.78"/>
<polygon fill="black" stroke="black" points="5570.43,-217.22 5579.9,-212.47 5569.53,-210.28 5570.43,-217.22"/>
<text text-anchor="middle" x="4472.76" y="-354.32" font-family="Times,serif" font-size="14.00">3</text>
</g>
<!-- ric.RicHandleBladeDash -->
<g id="node20" class="node">
<title>ric.RicHandleBladeDash</title>
<g id="a_node20"><a xlink:href="ric.RicHandleBladeDash.svg" xlink:title="ric.RicHandleBladeDash">
<ellipse fill="green" stroke="black" cx="4644.59" cy="-378" rx="123.48" ry="18"/>
<text text-anchor="middle" x="4644.59" y="-374.3" font-family="Times,serif" font-size="14.00">ric.RicHandleBladeDash</text>
</a>
</g>
</g>
<!-- ric.RicHandleBladeDash&#45;&gt;ric.RicCreateEntFactoryFromEntity -->
<g id="edge19" class="edge">
<title>ric.RicHandleBladeDash&#45;&gt;ric.RicCreateEntFactoryFromEntity</title>
<path fill="none" stroke="black" d="M4721.56,-363.84C4908.09,-331.94 5383.98,-250.57 5589.11,-215.5"/>
<polygon fill="black" stroke="black" points="5590,-218.9 5599.26,-213.76 5588.82,-212 5590,-218.9"/>
<text text-anchor="middle" x="4716.56" y="-352.64" font-family="Times,serif" font-size="14.00">2</text>
</g>
<!-- ric.RicHandleCrouch -->
<g id="node21" class="node">
<title>ric.RicHandleCrouch</title>
<g id="a_node21"><a xlink:href="ric.RicHandleCrouch.svg" xlink:title="ric.RicHandleCrouch">
<ellipse fill="green" stroke="black" cx="4892.59" cy="-378" rx="106.68" ry="18"/>
<text text-anchor="middle" x="4892.59" y="-374.3" font-family="Times,serif" font-size="14.00">ric.RicHandleCrouch</text>
</a>
</g>
</g>
<!-- ric.RicHandleCrouch&#45;&gt;ric.RicCreateEntFactoryFromEntity -->
<g id="edge20" class="edge">
<title>ric.RicHandleCrouch&#45;&gt;ric.RicCreateEntFactoryFromEntity</title>
<path fill="none" stroke="black" d="M4953.83,-363.25C5095.85,-331.38 5447.58,-252.43 5606,-216.87"/>
<polygon fill="black" stroke="black" points="5607.16,-220.19 5616.15,-214.59 5605.63,-213.36 5607.16,-220.19"/>
<text text-anchor="middle" x="4948.83" y="-352.05" font-family="Times,serif" font-size="14.00">2</text>
</g>
<!-- ric.RicHandleDead -->
<g id="node22" class="node">
<title>ric.RicHandleDead</title>
<g id="a_node22"><a xlink:href="ric.RicHandleDead.svg" xlink:title="ric.RicHandleDead">
<ellipse fill="green" stroke="black" cx="5114.59" cy="-378" rx="97.48" ry="18"/>
<text text-anchor="middle" x="5114.59" y="-374.3" font-family="Times,serif" font-size="14.00">ric.RicHandleDead</text>
</a>
</g>
</g>
<!-- ric.RicHandleDead&#45;&gt;ric.RicCreateEntFactoryFromEntity -->
<g id="edge21" class="edge">
<title>ric.RicHandleDead&#45;&gt;ric.RicCreateEntFactoryFromEntity</title>
<path fill="none" stroke="black" d="M5162.29,-362.13C5265.43,-329.98 5509.11,-254.02 5623.83,-218.25"/>
<polygon fill="black" stroke="black" points="5625.02,-221.55 5633.52,-215.23 5622.94,-214.87 5625.02,-221.55"/>
<text text-anchor="middle" x="5152.79" y="-350.93" font-family="Times,serif" font-size="14.00">10</text>
</g>
<!-- ric.RicHandleDeadPrologue -->
<g id="node23" class="node">
<title>ric.RicHandleDeadPrologue</title>
<g id="a_node23"><a xlink:href="ric.RicHandleDeadPrologue.svg" xlink:title="ric.RicHandleDeadPrologue">
<ellipse fill="green" stroke="black" cx="5369.59" cy="-378" rx="139.18" ry="18"/>
<text text-anchor="middle" x="5369.59" y="-374.3" font-family="Times,serif" font-size="14.00">ric.RicHandleDeadPrologue</text>
</a>
</g>
</g>
<!-- ric.RicHandleDeadPrologue&#45;&gt;ric.RicCreateEntFactoryFromEntity -->
<g id="edge22" class="edge">
<title>ric.RicHandleDeadPrologue&#45;&gt;ric.RicCreateEntFactoryFromEntity</title>
<path fill="none" stroke="black" d="M5399.32,-360.25C5456.72,-327.92 5582.79,-256.91 5646.74,-220.88"/>
<polygon fill="black" stroke="black" points="5648.72,-223.79 5655.71,-215.83 5645.28,-217.69 5648.72,-223.79"/>
<text text-anchor="middle" x="5389.82" y="-349.05" font-family="Times,serif" font-size="14.00">11</text>
</g>
<!-- ric.RicHandleEnableFlameWhip -->
<g id="node24" class="node">
<title>ric.RicHandleEnableFlameWhip</title>
<g id="a_node24"><a xlink:href="ric.RicHandleEnableFlameWhip.svg" xlink:title="ric.RicHandleEnableFlameWhip">
<ellipse fill="green" stroke="black" cx="5685.59" cy="-378" rx="158.67" ry="18"/>
<text text-anchor="middle" x="5685.59" y="-374.3" font-family="Times,serif" font-size="14.00">ric.RicHandleEnableFlameWhip</text>
</a>
</g>
</g>
<!-- ric.RicHandleEnableFlameWhip&#45;&gt;ric.RicCreateEntFactoryFromEntity -->
<g id="edge23" class="edge">
<title>ric.RicHandleEnableFlameWhip&#45;&gt;ric.RicCreateEntFactoryFromEntity</title>
<path fill="none" stroke="black" d="M5685.59,-359.93C5685.59,-328.97 5685.59,-263.3 5685.59,-226.13"/>
<polygon fill="black" stroke="black" points="5689.09,-226.02 5685.59,-216.02 5682.09,-226.02 5689.09,-226.02"/>
<text text-anchor="middle" x="5680.59" y="-348.73" font-family="Times,serif" font-size="14.00">3</text>
</g>
<!-- ric.RicHandleHit -->
<g id="node25" class="node">
<title>ric.RicHandleHit</title>
<g id="a_node25"><a xlink:href="ric.RicHandleHit.svg" xlink:title="ric.RicHandleHit">
<ellipse fill="green" stroke="black" cx="5950.59" cy="-378" rx="88.28" ry="18"/>
<text text-anchor="middle" x="5950.59" y="-374.3" font-family="Times,serif" font-size="14.00">ric.RicHandleHit</text>
</a>
</g>
</g>
<!-- ric.RicHandleHit&#45;&gt;ric.RicCreateEntFactoryFromEntity -->
<g id="edge24" class="edge">
<title>ric.RicHandleHit&#45;&gt;ric.RicCreateEntFactoryFromEntity</title>
<path fill="none" stroke="black" d="M5926.14,-360.57C5878.56,-328.61 5773.47,-258.03 5719.31,-221.65"/>
<polygon fill="black" stroke="black" points="5721.01,-218.58 5710.76,-215.91 5717.11,-224.39 5721.01,-218.58"/>
<text text-anchor="middle" x="5916.64" y="-349.37" font-family="Times,serif" font-size="14.00">19</text>
</g>
<!-- ric.RicHandleJump -->
<g id="node26" class="node">
<title>ric.RicHandleJump</title>
<g id="a_node26"><a xlink:href="ric.RicHandleJump.svg" xlink:title="ric.RicHandleJump">
<ellipse fill="green" stroke="black" cx="6154.59" cy="-378" rx="97.48" ry="18"/>
<text text-anchor="middle" x="6154.59" y="-374.3" font-family="Times,serif" font-size="14.00">ric.RicHandleJump</text>
</a>
</g>
</g>
<!-- ric.RicHandleJump&#45;&gt;ric.RicCreateEntFactoryFromEntity -->
<g id="edge25" class="edge">
<title>ric.RicHandleJump&#45;&gt;ric.RicCreateEntFactoryFromEntity</title>
<path fill="none" stroke="black" d="M6113.79,-361.52C6028.79,-329.26 5832.82,-254.88 5738.37,-219.03"/>
<polygon fill="black" stroke="black" points="5739.6,-215.75 5729.01,-215.48 5737.11,-222.3 5739.6,-215.75"/>
<text text-anchor="middle" x="6108.79" y="-350.32" font-family="Times,serif" font-size="14.00">1</text>
</g>
<!-- ric.RicHandleRun -->
<g id="node27" class="node">
<title>ric.RicHandleRun</title>
<g id="a_node27"><a xlink:href="ric.RicHandleRun.svg" xlink:title="ric.RicHandleRun">
<ellipse fill="green" stroke="black" cx="6362.59" cy="-378" rx="92.08" ry="18"/>
<text text-anchor="middle" x="6362.59" y="-374.3" font-family="Times,serif" font-size="14.00">ric.RicHandleRun</text>
</a>
</g>
</g>
<!-- ric.RicHandleRun&#45;&gt;ric.RicCreateEntFactoryFromEntity -->
<g id="edge26" class="edge">
<title>ric.RicHandleRun&#45;&gt;ric.RicCreateEntFactoryFromEntity</title>
<path fill="none" stroke="black" d="M6310.03,-363.18C6189.4,-331.46 5892.61,-253.43 5756.22,-217.57"/>
<polygon fill="black" stroke="black" points="5756.85,-214.12 5746.29,-214.96 5755.07,-220.89 5756.85,-214.12"/>
<text text-anchor="middle" x="6305.03" y="-351.98" font-family="Times,serif" font-size="14.00">1</text>
</g>
<!-- ric.RicHandleSlide -->
<g id="node28" class="node">
<title>ric.RicHandleSlide</title>
<g id="a_node28"><a xlink:href="ric.RicHandleSlide.svg" xlink:title="ric.RicHandleSlide">
<ellipse fill="green" stroke="black" cx="6569.59" cy="-378" rx="96.68" ry="18"/>
<text text-anchor="middle" x="6569.59" y="-374.3" font-family="Times,serif" font-size="14.00">ric.RicHandleSlide</text>
</a>
</g>
</g>
<!-- ric.RicHandleSlide&#45;&gt;ric.RicCreateEntFactoryFromEntity -->
<g id="edge27" class="edge">
<title>ric.RicHandleSlide&#45;&gt;ric.RicCreateEntFactoryFromEntity</title>
<path fill="none" stroke="black" d="M6506.37,-364.27C6350.73,-332.93 5948.85,-252.01 5771.67,-216.33"/>
<polygon fill="black" stroke="black" points="5772.11,-212.85 5761.61,-214.31 5770.72,-219.71 5772.11,-212.85"/>
<text text-anchor="middle" x="6501.37" y="-353.07" font-family="Times,serif" font-size="14.00">3</text>
</g>
<!-- ric.RicHandleSlideKick -->
<g id="node29" class="node">
<title>ric.RicHandleSlideKick</title>
<g id="a_node29"><a xlink:href="ric.RicHandleSlideKick.svg" xlink:title="ric.RicHandleSlideKick">
<ellipse fill="green" stroke="black" cx="6801.59" cy="-378" rx="116.98" ry="18"/>
<text text-anchor="middle" x="6801.59" y="-374.3" font-family="Times,serif" font-size="14.00">ric.RicHandleSlideKick</text>
</a>
</g>
</g>
<!-- ric.RicHandleSlideKick&#45;&gt;ric.RicCreateEntFactoryFromEntity -->
<g id="edge28" class="edge">
<title>ric.RicHandleSlideKick&#45;&gt;ric.RicCreateEntFactoryFromEntity</title>
<path fill="none" stroke="black" d="M6723.56,-364.55C6526.03,-333.05 6006.32,-250.16 5786.29,-215.06"/>
<polygon fill="black" stroke="black" points="5786.79,-211.6 5776.36,-213.48 5785.69,-218.51 5786.79,-211.6"/>
<text text-anchor="middle" x="6718.56" y="-353.35" font-family="Times,serif" font-size="14.00">1</text>
</g>
<!-- ric.RicHandleStand -->
<g id="node30" class="node">
<title>ric.RicHandleStand</title>
<g id="a_node30"><a xlink:href="ric.RicHandleStand.svg" xlink:title="ric.RicHandleStand">
<ellipse fill="green" stroke="black" cx="7037.59" cy="-378" rx="100.98" ry="18"/>
<text text-anchor="middle" x="7037.59" y="-374.3" font-family="Times,serif" font-size="14.00">ric.RicHandleStand</text>
</a>
</g>
</g>
<!-- ric.RicHandleStand&#45;&gt;ric.RicCreateEntFactoryFromEntity -->
<g id="edge29" class="edge">
<title>ric.RicHandleStand&#45;&gt;ric.RicCreateEntFactoryFromEntity</title>
<path fill="none" stroke="black" d="M6964.85,-365.5C6952.43,-363.61 6939.64,-361.71 6927.59,-360 6515.76,-301.49 6025.85,-240.52 5804.54,-213.44"/>
<polygon fill="black" stroke="black" points="5804.88,-209.95 5794.53,-212.21 5804.03,-216.9 5804.88,-209.95"/>
<text text-anchor="middle" x="6959.85" y="-354.3" font-family="Times,serif" font-size="14.00">2</text>
</g>
<!-- ric.RicInit -->
<g id="node31" class="node">
<title>ric.RicInit</title>
<g id="a_node31"><a xlink:href="ric.RicInit.svg" xlink:title="ric.RicInit">
<ellipse fill="green" stroke="black" cx="7212.59" cy="-378" rx="56.59" ry="18"/>
<text text-anchor="middle" x="7212.59" y="-374.3" font-family="Times,serif" font-size="14.00">ric.RicInit</text>
</a>
</g>
</g>
<!-- ric.RicInit&#45;&gt;ric.RicCreateEntFactoryFromEntity -->
<g id="edge30" class="edge">
<title>ric.RicInit&#45;&gt;ric.RicCreateEntFactoryFromEntity</title>
<path fill="none" stroke="black" d="M7171.88,-365.38C7163.88,-363.37 7155.51,-361.46 7147.59,-360 6676.86,-273.01 6111.57,-227.09 5842.63,-208.73"/>
<polygon fill="black" stroke="black" points="5842.61,-205.23 5832.4,-208.04 5842.14,-212.21 5842.61,-205.23"/>
<text text-anchor="middle" x="7166.88" y="-354.18" font-family="Times,serif" font-size="14.00">3</text>
</g>
<!-- ric.RicSetBladeDash -->
<g id="node32" class="node">
<title>ric.RicSetBladeDash</title>
<g id="a_node32"><a xlink:href="ric.RicSetBladeDash.svg" xlink:title="ric.RicSetBladeDash">
<ellipse fill="green" stroke="black" cx="7392.59" cy="-378" rx="105.88" ry="18"/>
<text text-anchor="middle" x="7392.59" y="-374.3" font-family="Times,serif" font-size="14.00">ric.RicSetBladeDash</text>
</a>
</g>
</g>
<!-- ric.RicSetBladeDash&#45;&gt;ric.RicCreateEntFactoryFromEntity -->
<g id="edge31" class="edge">
<title>ric.RicSetBladeDash&#45;&gt;ric.RicCreateEntFactoryFromEntity</title>
<path fill="none" stroke="black" d="M7317.54,-365.29C7304.57,-363.42 7291.2,-361.58 7278.59,-360 6743.55,-293.11 6104.72,-235.15 5826.58,-210.99"/>
<polygon fill="black" stroke="black" points="5826.7,-207.49 5816.44,-210.11 5826.1,-214.46 5826.7,-207.49"/>
<text text-anchor="middle" x="7312.54" y="-354.09" font-family="Times,serif" font-size="14.00">1</text>
</g>
<!-- ric.RicSetHighJump -->
<g id="node33" class="node">
<title>ric.RicSetHighJump</title>
<g id="a_node33"><a xlink:href="ric.RicSetHighJump.svg" xlink:title="ric.RicSetHighJump">
<ellipse fill="green" stroke="black" cx="7619.59" cy="-378" rx="102.88" ry="18"/>
<text text-anchor="middle" x="7619.59" y="-374.3" font-family="Times,serif" font-size="14.00">ric.RicSetHighJump</text>
</a>
</g>
</g>
<!-- ric.RicSetHighJump&#45;&gt;ric.RicCreateEntFactoryFromEntity -->
<g id="edge32" class="edge">
<title>ric.RicSetHighJump&#45;&gt;ric.RicCreateEntFactoryFromEntity</title>
<path fill="none" stroke="black" d="M7546.78,-365.27C7533.75,-363.37 7520.28,-361.52 7507.59,-360 6890.8,-286.01 6152.72,-231.09 5838.89,-209.29"/>
<polygon fill="black" stroke="black" points="5839.04,-205.8 5828.82,-208.6 5838.55,-212.78 5839.04,-205.8"/>
<text text-anchor="middle" x="7541.78" y="-354.07" font-family="Times,serif" font-size="14.00">1</text>
</g>
<!-- ric.RicSetInvincibilityFrames -->
<g id="node34" class="node">
<title>ric.RicSetInvincibilityFrames</title>
<g id="a_node34"><a xlink:href="ric.RicSetInvincibilityFrames.svg" xlink:title="ric.RicSetInvincibilityFrames">
<ellipse fill="green" stroke="black" cx="7886.59" cy="-378" rx="146.47" ry="18"/>
<text text-anchor="middle" x="7886.59" y="-374.3" font-family="Times,serif" font-size="14.00">ric.RicSetInvincibilityFrames</text>
</a>
</g>
</g>
<!-- ric.RicSetInvincibilityFrames&#45;&gt;ric.RicCreateEntFactoryFromEntity -->
<g id="edge33" class="edge">
<title>ric.RicSetInvincibilityFrames&#45;&gt;ric.RicCreateEntFactoryFromEntity</title>
<path fill="none" stroke="black" d="M7783.25,-365.22C7766.01,-363.38 7748.3,-361.57 7731.59,-360 7024.61,-293.43 6178.39,-232.93 5838.2,-209.4"/>
<polygon fill="black" stroke="black" points="5838.26,-205.89 5828.04,-208.7 5837.77,-212.88 5838.26,-205.89"/>
<text text-anchor="middle" x="7778.25" y="-354.02" font-family="Times,serif" font-size="14.00">1</text>
</g>
<!-- ric.RicSetRun -->
<g id="node35" class="node">
<title>ric.RicSetRun</title>
<g id="a_node35"><a xlink:href="ric.RicSetRun.svg" xlink:title="ric.RicSetRun">
<ellipse fill="green" stroke="black" cx="8125.59" cy="-378" rx="74.99" ry="18"/>
<text text-anchor="middle" x="8125.59" y="-374.3" font-family="Times,serif" font-size="14.00">ric.RicSetRun</text>
</a>
</g>
</g>
<!-- ric.RicSetRun&#45;&gt;ric.RicCreateEntFactoryFromEntity -->
<g id="edge34" class="edge">
<title>ric.RicSetRun&#45;&gt;ric.RicCreateEntFactoryFromEntity</title>
<path fill="none" stroke="black" d="M8072.9,-365.23C8062.56,-363.24 8051.77,-361.37 8041.59,-360 7234.41,-251.22 6261.19,-214.32 5865.74,-203.24"/>
<polygon fill="black" stroke="black" points="5865.73,-199.74 5855.64,-202.96 5865.54,-206.74 5865.73,-199.74"/>
<text text-anchor="middle" x="8067.9" y="-354.03" font-family="Times,serif" font-size="14.00">1</text>
</g>
<!-- ric.RicSetSlide -->
<g id="node36" class="node">
<title>ric.RicSetSlide</title>
<g id="a_node36"><a xlink:href="ric.RicSetSlide.svg" xlink:title="ric.RicSetSlide">
<ellipse fill="green" stroke="black" cx="8297.59" cy="-378" rx="79.09" ry="18"/>
<text text-anchor="middle" x="8297.59" y="-374.3" font-family="Times,serif" font-size="14.00">ric.RicSetSlide</text>
</a>
</g>
</g>
<!-- ric.RicSetSlide&#45;&gt;ric.RicCreateEntFactoryFromEntity -->
<g id="edge35" class="edge">
<title>ric.RicSetSlide&#45;&gt;ric.RicCreateEntFactoryFromEntity</title>
<path fill="none" stroke="black" d="M8241.9,-365.13C8231.22,-363.17 8220.09,-361.34 8209.59,-360 7336.63,-248.3 6283.41,-212.82 5867.32,-202.67"/>
<polygon fill="black" stroke="black" points="5867.39,-199.18 5857.31,-202.43 5867.22,-206.17 5867.39,-199.18"/>
<text text-anchor="middle" x="8236.9" y="-353.93" font-family="Times,serif" font-size="14.00">1</text>
</g>
<!-- ric.RicSetSlideKick -->
<g id="node37" class="node">
<title>ric.RicSetSlideKick</title>
<g id="a_node37"><a xlink:href="ric.RicSetSlideKick.svg" xlink:title="ric.RicSetSlideKick">
<ellipse fill="green" stroke="black" cx="8494.59" cy="-378" rx="99.38" ry="18"/>
<text text-anchor="middle" x="8494.59" y="-374.3" font-family="Times,serif" font-size="14.00">ric.RicSetSlideKick</text>
</a>
</g>
</g>
<!-- ric.RicSetSlideKick&#45;&gt;ric.RicCreateEntFactoryFromEntity -->
<g id="edge36" class="edge">
<title>ric.RicSetSlideKick&#45;&gt;ric.RicCreateEntFactoryFromEntity</title>
<path fill="none" stroke="black" d="M8424.94,-365.13C8411.9,-363.19 8398.35,-361.37 8385.59,-360 7438.84,-258.18 6297.89,-216.65 5864.4,-203.78"/>
<polygon fill="black" stroke="black" points="5864.39,-200.28 5854.29,-203.48 5864.19,-207.28 5864.39,-200.28"/>
<text text-anchor="middle" x="8419.94" y="-353.93" font-family="Times,serif" font-size="14.00">2</text>
</g>
<!-- ric.func_80158B04 -->
<g id="node38" class="node">
<title>ric.func_80158B04</title>
<g id="a_node38"><a xlink:href="ric.func_80158B04.svg" xlink:title="ric.func_80158B04">
<ellipse fill="green" stroke="black" cx="8710.59" cy="-378" rx="98.28" ry="18"/>
<text text-anchor="middle" x="8710.59" y="-374.3" font-family="Times,serif" font-size="14.00">ric.func_80158B04</text>
</a>
</g>
</g>
<!-- ric.func_80158B04&#45;&gt;ric.RicCreateEntFactoryFromEntity -->
<g id="edge37" class="edge">
<title>ric.func_80158B04&#45;&gt;ric.RicCreateEntFactoryFromEntity</title>
<path fill="none" stroke="black" d="M8641.88,-365.12C8628.86,-363.17 8615.33,-361.35 8602.59,-360 7571.2,-250.65 6326.29,-213.26 5867.08,-202.65"/>
<polygon fill="black" stroke="black" points="5867.12,-199.15 5857.05,-202.42 5866.96,-206.15 5867.12,-199.15"/>
<text text-anchor="middle" x="8636.88" y="-353.92" font-family="Times,serif" font-size="14.00">1</text>
</g>
<!-- ric.func_8015BCD0 -->
<g id="node39" class="node">
<title>ric.func_8015BCD0</title>
<g id="a_node39"><a xlink:href="ric.func_8015BCD0.svg" xlink:title="ric.func_8015BCD0">
<ellipse fill="green" stroke="black" cx="8927.59" cy="-378" rx="100.98" ry="18"/>
<text text-anchor="middle" x="8927.59" y="-374.3" font-family="Times,serif" font-size="14.00">ric.func_8015BCD0</text>
</a>
</g>
</g>
<!-- ric.func_8015BCD0&#45;&gt;ric.RicCreateEntFactoryFromEntity -->
<g id="edge38" class="edge">
<title>ric.func_8015BCD0&#45;&gt;ric.RicCreateEntFactoryFromEntity</title>
<path fill="none" stroke="black" d="M8857.31,-365.05C8844.14,-363.12 8830.47,-361.32 8817.59,-360 7701.35,-245.36 6352.5,-210.96 5869.01,-201.9"/>
<polygon fill="black" stroke="black" points="5868.86,-198.4 5858.8,-201.71 5868.73,-205.4 5868.86,-198.4"/>
<text text-anchor="middle" x="8852.31" y="-353.85" font-family="Times,serif" font-size="14.00">3</text>
</g>
<!-- ric.func_8015D250 -->
<g id="node40" class="node">
<title>ric.func_8015D250</title>
<g id="a_node40"><a xlink:href="ric.func_8015D250.svg" xlink:title="ric.func_8015D250">
<ellipse fill="green" stroke="black" cx="9145.59" cy="-378" rx="98.58" ry="18"/>
<text text-anchor="middle" x="9145.59" y="-374.3" font-family="Times,serif" font-size="14.00">ric.func_8015D250</text>
</a>
</g>
</g>
<!-- ric.func_8015D250&#45;&gt;ric.RicCreateEntFactoryFromEntity -->
<g id="edge39" class="edge">
<title>ric.func_8015D250&#45;&gt;ric.RicCreateEntFactoryFromEntity</title>
<path fill="none" stroke="black" d="M9076.89,-365.05C9063.87,-363.1 9050.34,-361.31 9037.59,-360 7834.54,-236.79 6378.69,-207.54 5870.92,-200.88"/>
<polygon fill="black" stroke="black" points="5870.61,-197.37 5860.57,-200.74 5870.52,-204.37 5870.61,-197.37"/>
<text text-anchor="middle" x="9071.89" y="-353.85" font-family="Times,serif" font-size="14.00">2</text>
</g>
<!-- ric.func_80161C2C -->
<g id="node41" class="node">
<title>ric.func_80161C2C</title>
<g id="a_node41"><a xlink:href="ric.func_80161C2C.svg" xlink:title="ric.func_80161C2C">
<ellipse fill="green" stroke="black" cx="9361.59" cy="-378" rx="98.58" ry="18"/>
<text text-anchor="middle" x="9361.59" y="-374.3" font-family="Times,serif" font-size="14.00">ric.func_80161C2C</text>
</a>
</g>
</g>
<!-- ric.func_80161C2C&#45;&gt;ric.RicCreateEntFactoryFromEntity -->
<g id="edge40" class="edge">
<title>ric.func_80161C2C&#45;&gt;ric.RicCreateEntFactoryFromEntity</title>
<path fill="none" stroke="black" d="M9292.89,-365.02C9279.87,-363.08 9266.34,-361.29 9253.59,-360 7963.94,-229.81 6401.41,-204.89 5871.54,-200.12"/>
<polygon fill="black" stroke="black" points="5871.54,-196.62 5861.51,-200.03 5871.48,-203.62 5871.54,-196.62"/>
<text text-anchor="middle" x="9287.89" y="-353.82" font-family="Times,serif" font-size="14.00">1</text>
</g>
<!-- ric.func_80161EF8 -->
<g id="node42" class="node">
<title>ric.func_80161EF8</title>
<g id="a_node42"><a xlink:href="ric.func_80161EF8.svg" xlink:title="ric.func_80161EF8">
<ellipse fill="green" stroke="black" cx="9577.59" cy="-378" rx="98.58" ry="18"/>
<text text-anchor="middle" x="9577.59" y="-374.3" font-family="Times,serif" font-size="14.00">ric.func_80161EF8</text>
</a>
</g>
</g>
<!-- ric.func_80161EF8&#45;&gt;ric.RicCreateEntFactoryFromEntity -->
<g id="edge41" class="edge">
<title>ric.func_80161EF8&#45;&gt;ric.RicCreateEntFactoryFromEntity</title>
<path fill="none" stroke="black" d="M9508.89,-364.99C9495.87,-363.05 9482.34,-361.27 9469.59,-360 8092.98,-222.82 6423.22,-202.38 5872,-199.45"/>
<polygon fill="black" stroke="black" points="5871.99,-195.95 5861.97,-199.4 5871.95,-202.95 5871.99,-195.95"/>
<text text-anchor="middle" x="9503.89" y="-353.79" font-family="Times,serif" font-size="14.00">1</text>
</g>
<!-- ric.func_8016D9C4 -->
<g id="node43" class="node">
<title>ric.func_8016D9C4</title>
<g id="a_node43"><a xlink:href="ric.func_8016D9C4.svg" xlink:title="ric.func_8016D9C4">
<ellipse fill="green" stroke="black" cx="9793.59" cy="-378" rx="99.38" ry="18"/>
<text text-anchor="middle" x="9793.59" y="-374.3" font-family="Times,serif" font-size="14.00">ric.func_8016D9C4</text>
</a>
</g>
</g>
<!-- ric.func_8016D9C4&#45;&gt;ric.RicCreateEntFactoryFromEntity -->
<g id="edge42" class="edge">
<title>ric.func_8016D9C4&#45;&gt;ric.RicCreateEntFactoryFromEntity</title>
<path fill="none" stroke="black" d="M9724.9,-364.97C9711.88,-363.03 9698.34,-361.26 9685.59,-360 8222.21,-215.87 6445.51,-200.01 5872.95,-198.84"/>
<polygon fill="black" stroke="black" points="5872.54,-195.34 5862.53,-198.82 5872.53,-202.34 5872.54,-195.34"/>
<text text-anchor="middle" x="9719.9" y="-353.77" font-family="Times,serif" font-size="14.00">1</text>
</g>
<!-- ric.func_801705EC -->
<g id="node44" class="node">
<title>ric.func_801705EC</title>
<g id="a_node44"><a xlink:href="ric.func_801705EC.svg" xlink:title="ric.func_801705EC">
<ellipse fill="green" stroke="black" cx="10009.59" cy="-378" rx="98.58" ry="18"/>
<text text-anchor="middle" x="10009.59" y="-374.3" font-family="Times,serif" font-size="14.00">ric.func_801705EC</text>
</a>
</g>
</g>
<!-- ric.func_801705EC&#45;&gt;ric.RicCreateEntFactoryFromEntity -->
<g id="edge43" class="edge">
<title>ric.func_801705EC&#45;&gt;ric.RicCreateEntFactoryFromEntity</title>
<path fill="none" stroke="black" d="M9941.19,-364.99C9928.08,-363.04 9914.44,-361.25 9901.59,-360 8350.39,-208.83 6465.25,-197.73 5872.9,-198.29"/>
<polygon fill="black" stroke="black" points="5872.56,-194.79 5862.56,-198.3 5872.57,-201.79 5872.56,-194.79"/>
<text text-anchor="middle" x="9936.19" y="-353.79" font-family="Times,serif" font-size="14.00">1</text>
</g>
</g>
</svg>
