<?xml version="1.0" encoding="UTF-8" standalone="no"?>
<!DOCTYPE svg PUBLIC "-//W3C//DTD SVG 1.1//EN"
 "http://www.w3.org/Graphics/SVG/1.1/DTD/svg11.dtd">
<!-- Generated by graphviz version 2.43.0 (0)
 -->
<!-- Title: ric.EntityHolyWater Pages: 1 -->
<svg width="1650pt" height="224pt"
 viewBox="0.00 0.00 1649.94 224.00" xmlns="http://www.w3.org/2000/svg" xmlns:xlink="http://www.w3.org/1999/xlink">
<g id="graph0" class="graph" transform="scale(1 1) rotate(0) translate(4 220)">
<title>ric.EntityHolyWater</title>
<polygon fill="white" stroke="transparent" points="-4,4 -4,-220 1645.94,-220 1645.94,4 -4,4"/>
<!-- ric.EntityHolyWater -->
<g id="node1" class="node">
<title>ric.EntityHolyWater</title>
<ellipse fill="green" stroke="black" cx="776.34" cy="-198" rx="103.98" ry="18"/>
<text text-anchor="middle" x="776.34" y="-194.3" font-family="Times,serif" font-size="14.00">ric.EntityHolyWater</text>
</g>
<!-- dra.PlaySfx -->
<g id="node2" class="node">
<title>dra.PlaySfx</title>
<g id="a_node2"><a xlink:href="dra.PlaySfx.svg" xlink:title="dra.PlaySfx">
<ellipse fill="green" stroke="black" cx="64.34" cy="-18" rx="64.19" ry="18"/>
<text text-anchor="middle" x="64.34" y="-14.3" font-family="Times,serif" font-size="14.00">dra.PlaySfx</text>
</a>
</g>
</g>
<!-- ric.EntityHolyWater&#45;&gt;dra.PlaySfx -->
<g id="edge1" class="edge">
<title>ric.EntityHolyWater&#45;&gt;dra.PlaySfx</title>
<path fill="none" stroke="black" d="M719.88,-182.88C586.69,-149.59 254.11,-66.44 120.86,-33.13"/>
<polygon fill="black" stroke="black" points="121.41,-29.66 110.86,-30.63 119.72,-36.45 121.41,-29.66"/>
<text text-anchor="middle" x="105.86" y="-34.43" font-family="Times,serif" font-size="14.00">1</text>
</g>
<!-- rand -->
<g id="node3" class="node">
<title>rand</title>
<g id="a_node3"><a xlink:href="rand.svg" xlink:title="rand">
<ellipse fill="lightblue" stroke="black" cx="179.34" cy="-18" rx="32.49" ry="18"/>
<text text-anchor="middle" x="179.34" y="-14.3" font-family="Times,serif" font-size="14.00">rand</text>
</a>
</g>
</g>
<!-- ric.EntityHolyWater&#45;&gt;rand -->
<g id="edge2" class="edge">
<title>ric.EntityHolyWater&#45;&gt;rand</title>
<path fill="none" stroke="black" d="M719.66,-182.82C618.36,-156.98 400.04,-99.05 220.34,-36 218.22,-35.25 216.04,-34.46 213.86,-33.63"/>
<polygon fill="black" stroke="black" points="214.91,-30.28 204.33,-29.88 212.35,-36.8 214.91,-30.28"/>
<text text-anchor="middle" x="209.33" y="-33.68" font-family="Times,serif" font-size="14.00">2</text>
</g>
<!-- rcos -->
<g id="node4" class="node">
<title>rcos</title>
<g id="a_node4"><a xlink:href="rcos.svg" xlink:title="rcos">
<ellipse fill="lightblue" stroke="black" cx="260.34" cy="-18" rx="30.59" ry="18"/>
<text text-anchor="middle" x="260.34" y="-14.3" font-family="Times,serif" font-size="14.00">rcos</text>
</a>
</g>
</g>
<!-- ric.EntityHolyWater&#45;&gt;rcos -->
<g id="edge3" class="edge">
<title>ric.EntityHolyWater&#45;&gt;rcos</title>
<path fill="none" stroke="black" d="M727.44,-182.02C640.5,-155.04 453.66,-95.55 299.34,-36 297.48,-35.28 295.58,-34.53 293.67,-33.75"/>
<polygon fill="black" stroke="black" points="294.71,-30.39 284.14,-29.75 292.01,-36.85 294.71,-30.39"/>
<text text-anchor="middle" x="289.14" y="-33.55" font-family="Times,serif" font-size="14.00">1</text>
</g>
<!-- ric.CheckHolyWaterCollision -->
<g id="node5" class="node">
<title>ric.CheckHolyWaterCollision</title>
<g id="a_node5"><a xlink:href="ric.CheckHolyWaterCollision.svg" xlink:title="ric.CheckHolyWaterCollision">
<ellipse fill="green" stroke="black" cx="452.34" cy="-18" rx="143.77" ry="18"/>
<text text-anchor="middle" x="452.34" y="-14.3" font-family="Times,serif" font-size="14.00">ric.CheckHolyWaterCollision</text>
</a>
</g>
</g>
<!-- ric.EntityHolyWater&#45;&gt;ric.CheckHolyWaterCollision -->
<g id="edge4" class="edge">
<title>ric.EntityHolyWater&#45;&gt;ric.CheckHolyWaterCollision</title>
<path fill="none" stroke="black" d="M746.73,-180.73C688.1,-148.52 557.22,-76.62 491.53,-40.53"/>
<polygon fill="black" stroke="black" points="493.16,-37.43 482.71,-35.68 489.79,-43.57 493.16,-37.43"/>
<text text-anchor="middle" x="477.71" y="-39.48" font-family="Times,serif" font-size="14.00">3</text>
</g>
<!-- ric.CreateEntFactoryFromEntity -->
<g id="node6" class="node">
<title>ric.CreateEntFactoryFromEntity</title>
<g id="a_node6"><a xlink:href="ric.CreateEntFactoryFromEntity.svg" xlink:title="ric.CreateEntFactoryFromEntity">
<ellipse fill="green" stroke="black" cx="776.34" cy="-18" rx="162.47" ry="18"/>
<text text-anchor="middle" x="776.34" y="-14.3" font-family="Times,serif" font-size="14.00">ric.CreateEntFactoryFromEntity</text>
</a>
</g>
</g>
<!-- ric.EntityHolyWater&#45;&gt;ric.CreateEntFactoryFromEntity -->
<g id="edge5" class="edge">
<title>ric.EntityHolyWater&#45;&gt;ric.CreateEntFactoryFromEntity</title>
<path fill="none" stroke="black" d="M776.34,-179.93C776.34,-148.97 776.34,-83.3 776.34,-46.13"/>
<polygon fill="black" stroke="black" points="779.84,-46.02 776.34,-36.02 772.84,-46.02 779.84,-46.02"/>
<text text-anchor="middle" x="771.34" y="-39.82" font-family="Times,serif" font-size="14.00">3</text>
</g>
<!-- ric.DestroyEntity -->
<g id="node7" class="node">
<title>ric.DestroyEntity</title>
<g id="a_node7"><a xlink:href="ric.DestroyEntity.svg" xlink:title="ric.DestroyEntity">
<ellipse fill="green" stroke="black" cx="1047.34" cy="-18" rx="90.98" ry="18"/>
<text text-anchor="middle" x="1047.34" y="-14.3" font-family="Times,serif" font-size="14.00">ric.DestroyEntity</text>
</a>
</g>
</g>
<!-- ric.EntityHolyWater&#45;&gt;ric.DestroyEntity -->
<g id="edge6" class="edge">
<title>ric.EntityHolyWater&#45;&gt;ric.DestroyEntity</title>
<path fill="none" stroke="black" d="M801.84,-180.25C850.89,-148.04 958.4,-77.42 1013.43,-41.27"/>
<polygon fill="black" stroke="black" points="1015.68,-43.99 1022.11,-35.57 1011.83,-38.14 1015.68,-43.99"/>
<text text-anchor="middle" x="1017.11" y="-39.37" font-family="Times,serif" font-size="14.00">1</text>
</g>
<!-- ric.func_8015FAB8 -->
<g id="node8" class="node">
<title>ric.func_8015FAB8</title>
<g id="a_node8"><a xlink:href="ric.func_8015FAB8.svg" xlink:title="ric.func_8015FAB8">
<ellipse fill="green" stroke="black" cx="1254.34" cy="-18" rx="98.28" ry="18"/>
<text text-anchor="middle" x="1254.34" y="-14.3" font-family="Times,serif" font-size="14.00">ric.func_8015FAB8</text>
</a>
</g>
</g>
<!-- ric.EntityHolyWater&#45;&gt;ric.func_8015FAB8 -->
<g id="edge7" class="edge">
<title>ric.EntityHolyWater&#45;&gt;ric.func_8015FAB8</title>
<path fill="none" stroke="black" d="M818.34,-181.36C906.11,-148.68 1108.67,-73.25 1203.56,-37.91"/>
<polygon fill="black" stroke="black" points="1204.8,-41.18 1212.95,-34.41 1202.36,-34.62 1204.8,-41.18"/>
<text text-anchor="middle" x="1207.95" y="-38.21" font-family="Times,serif" font-size="14.00">1</text>
</g>
<!-- ric.func_8016840C -->
<g id="node9" class="node">
<title>ric.func_8016840C</title>
<g id="a_node9"><a xlink:href="ric.func_8016840C.svg" xlink:title="ric.func_8016840C">
<ellipse fill="green" stroke="black" cx="1468.34" cy="-18" rx="98.28" ry="18"/>
<text text-anchor="middle" x="1468.34" y="-14.3" font-family="Times,serif" font-size="14.00">ric.func_8016840C</text>
</a>
</g>
</g>
<!-- ric.EntityHolyWater&#45;&gt;ric.func_8016840C -->
<g id="edge8" class="edge">
<title>ric.EntityHolyWater&#45;&gt;ric.func_8016840C</title>
<path fill="none" stroke="black" d="M831.8,-182.73C958.52,-150.14 1268.74,-70.34 1403.78,-35.61"/>
<polygon fill="black" stroke="black" points="1404.77,-38.97 1413.58,-33.09 1403.02,-32.19 1404.77,-38.97"/>
<text text-anchor="middle" x="1408.58" y="-36.89" font-family="Times,serif" font-size="14.00">3</text>
</g>
<!-- rsin -->
<g id="node10" class="node">
<title>rsin</title>
<g id="a_node10"><a xlink:href="rsin.svg" xlink:title="rsin">
<ellipse fill="lightblue" stroke="black" cx="1613.34" cy="-18" rx="28.7" ry="18"/>
<text text-anchor="middle" x="1613.34" y="-14.3" font-family="Times,serif" font-size="14.00">rsin</text>
</a>
</g>
</g>
<!-- ric.EntityHolyWater&#45;&gt;rsin -->
<g id="edge9" class="edge">
<title>ric.EntityHolyWater&#45;&gt;rsin</title>
<path fill="none" stroke="black" d="M857.51,-186.72C1003.61,-166.88 1319.45,-117.9 1575.34,-36 1577.61,-35.28 1579.92,-34.46 1582.23,-33.58"/>
<polygon fill="black" stroke="black" points="1583.65,-36.78 1591.56,-29.73 1580.99,-30.3 1583.65,-36.78"/>
<text text-anchor="middle" x="1586.56" y="-33.53" font-family="Times,serif" font-size="14.00">1</text>
</g>
</g>
</svg>
