<?xml version="1.0" encoding="UTF-8" standalone="no"?>
<!DOCTYPE svg PUBLIC "-//W3C//DTD SVG 1.1//EN"
 "http://www.w3.org/Graphics/SVG/1.1/DTD/svg11.dtd">
<!-- Generated by graphviz version 2.43.0 (0)
 -->
<!-- Title: ric.func_8015DBB0 Pages: 1 -->
<svg width="2763pt" height="404pt"
 viewBox="0.00 0.00 2763.44 404.00" xmlns="http://www.w3.org/2000/svg" xmlns:xlink="http://www.w3.org/1999/xlink">
<g id="graph0" class="graph" transform="scale(1 1) rotate(0) translate(4 400)">
<title>ric.func_8015DBB0</title>
<polygon fill="white" stroke="transparent" points="-4,4 -4,-400 2759.44,-400 2759.44,4 -4,4"/>
<!-- ric.func_8015DBB0 -->
<g id="node1" class="node">
<title>ric.func_8015DBB0</title>
<ellipse fill="green" stroke="black" cx="1454.34" cy="-198" rx="100.98" ry="18"/>
<text text-anchor="middle" x="1454.34" y="-194.3" font-family="Times,serif" font-size="14.00">ric.func_8015DBB0</text>
</g>
<!-- dra.PlaySfx -->
<g id="node2" class="node">
<title>dra.PlaySfx</title>
<g id="a_node2"><a xlink:href="dra.PlaySfx.svg" xlink:title="dra.PlaySfx">
<ellipse fill="green" stroke="black" cx="64.34" cy="-18" rx="64.19" ry="18"/>
<text text-anchor="middle" x="64.34" y="-14.3" font-family="Times,serif" font-size="14.00">dra.PlaySfx</text>
</a>
</g>
</g>
<!-- ric.func_8015DBB0&#45;&gt;dra.PlaySfx -->
<g id="edge1" class="edge">
<title>ric.func_8015DBB0&#45;&gt;dra.PlaySfx</title>
<path fill="none" stroke="black" d="M1365.7,-189.37C1152.97,-170.36 597.15,-116.54 138.34,-36 132.69,-35.01 126.81,-33.86 120.96,-32.64"/>
<polygon fill="black" stroke="black" points="121.68,-29.22 111.17,-30.53 120.21,-36.06 121.68,-29.22"/>
<text text-anchor="middle" x="106.17" y="-34.33" font-family="Times,serif" font-size="14.00">6</text>
</g>
<!-- ric.RicCheckMovement -->
<g id="node3" class="node">
<title>ric.RicCheckMovement</title>
<g id="a_node3"><a xlink:href="ric.RicCheckMovement.svg" xlink:title="ric.RicCheckMovement">
<ellipse fill="green" stroke="black" cx="265.34" cy="-18" rx="118.08" ry="18"/>
<text text-anchor="middle" x="265.34" y="-14.3" font-family="Times,serif" font-size="14.00">ric.RicCheckMovement</text>
</a>
</g>
</g>
<!-- ric.func_8015DBB0&#45;&gt;ric.RicCheckMovement -->
<g id="edge2" class="edge">
<title>ric.func_8015DBB0&#45;&gt;ric.RicCheckMovement</title>
<path fill="none" stroke="black" d="M1379.52,-185.8C1171.05,-154.59 584.1,-66.72 356.83,-32.7"/>
<polygon fill="black" stroke="black" points="357.01,-29.18 346.6,-31.17 355.98,-36.11 357.01,-29.18"/>
<text text-anchor="middle" x="341.6" y="-34.97" font-family="Times,serif" font-size="14.00">1</text>
</g>
<!-- ric.RicCreateEntFactoryFromEntity -->
<g id="node4" class="node">
<title>ric.RicCreateEntFactoryFromEntity</title>
<g id="a_node4"><a xlink:href="ric.RicCreateEntFactoryFromEntity.svg" xlink:title="ric.RicCreateEntFactoryFromEntity">
<ellipse fill="green" stroke="black" cx="578.34" cy="-18" rx="176.57" ry="18"/>
<text text-anchor="middle" x="578.34" y="-14.3" font-family="Times,serif" font-size="14.00">ric.RicCreateEntFactoryFromEntity</text>
</a>
</g>
</g>
<!-- ric.func_8015DBB0&#45;&gt;ric.RicCreateEntFactoryFromEntity -->
<g id="edge3" class="edge">
<title>ric.func_8015DBB0&#45;&gt;ric.RicCreateEntFactoryFromEntity</title>
<path fill="none" stroke="black" d="M1390.64,-184.06C1235.67,-152.57 838.9,-71.94 663.7,-36.34"/>
<polygon fill="black" stroke="black" points="664.24,-32.88 653.75,-34.32 662.85,-39.74 664.24,-32.88"/>
<text text-anchor="middle" x="648.75" y="-38.12" font-family="Times,serif" font-size="14.00">5</text>
</g>
<!-- ric.RicPrepareAttack -->
<g id="node5" class="node">
<title>ric.RicPrepareAttack</title>
<g id="a_node5"><a xlink:href="ric.RicPrepareAttack.svg" xlink:title="ric.RicPrepareAttack">
<ellipse fill="green" stroke="black" cx="880.34" cy="-18" rx="107.48" ry="18"/>
<text text-anchor="middle" x="880.34" y="-14.3" font-family="Times,serif" font-size="14.00">ric.RicPrepareAttack</text>
</a>
</g>
</g>
<!-- ric.func_8015DBB0&#45;&gt;ric.RicPrepareAttack -->
<g id="edge4" class="edge">
<title>ric.func_8015DBB0&#45;&gt;ric.RicPrepareAttack</title>
<path fill="none" stroke="black" d="M1406.39,-182.13C1301.54,-149.61 1052.17,-72.28 938.55,-37.05"/>
<polygon fill="black" stroke="black" points="939.56,-33.7 928.97,-34.08 937.48,-40.38 939.56,-33.7"/>
<text text-anchor="middle" x="923.97" y="-37.88" font-family="Times,serif" font-size="14.00">1</text>
</g>
<!-- ric.RicSetCrouch -->
<g id="node6" class="node">
<title>ric.RicSetCrouch</title>
<g id="a_node6"><a xlink:href="ric.RicSetCrouch.svg" xlink:title="ric.RicSetCrouch">
<ellipse fill="green" stroke="black" cx="1094.34" cy="-18" rx="89.08" ry="18"/>
<text text-anchor="middle" x="1094.34" y="-14.3" font-family="Times,serif" font-size="14.00">ric.RicSetCrouch</text>
</a>
</g>
</g>
<!-- ric.func_8015DBB0&#45;&gt;ric.RicSetCrouch -->
<g id="edge5" class="edge">
<title>ric.func_8015DBB0&#45;&gt;ric.RicSetCrouch</title>
<path fill="none" stroke="black" d="M1421.76,-180.89C1356.08,-148.42 1207.91,-75.15 1135.6,-39.4"/>
<polygon fill="black" stroke="black" points="1136.85,-36.11 1126.34,-34.82 1133.75,-42.39 1136.85,-36.11"/>
<text text-anchor="middle" x="1121.34" y="-38.62" font-family="Times,serif" font-size="14.00">4</text>
</g>
<!-- ric.RicSetJump -->
<g id="node7" class="node">
<title>ric.RicSetJump</title>
<g id="a_node7"><a xlink:href="ric.RicSetJump.svg" xlink:title="ric.RicSetJump">
<ellipse fill="green" stroke="black" cx="1281.34" cy="-18" rx="79.89" ry="18"/>
<text text-anchor="middle" x="1281.34" y="-14.3" font-family="Times,serif" font-size="14.00">ric.RicSetJump</text>
</a>
</g>
</g>
<!-- ric.func_8015DBB0&#45;&gt;ric.RicSetJump -->
<g id="edge6" class="edge">
<title>ric.func_8015DBB0&#45;&gt;ric.RicSetJump</title>
<path fill="none" stroke="black" d="M1437.76,-179.93C1406.81,-148.09 1340.19,-79.54 1304.7,-43.04"/>
<polygon fill="black" stroke="black" points="1307.11,-40.49 1297.63,-35.76 1302.09,-45.37 1307.11,-40.49"/>
<text text-anchor="middle" x="1292.63" y="-39.56" font-family="Times,serif" font-size="14.00">1</text>
</g>
<!-- ric.RicSetRun -->
<g id="node8" class="node">
<title>ric.RicSetRun</title>
<g id="a_node8"><a xlink:href="ric.RicSetRun.svg" xlink:title="ric.RicSetRun">
<ellipse fill="green" stroke="black" cx="1454.34" cy="-18" rx="74.99" ry="18"/>
<text text-anchor="middle" x="1454.34" y="-14.3" font-family="Times,serif" font-size="14.00">ric.RicSetRun</text>
</a>
</g>
</g>
<!-- ric.func_8015DBB0&#45;&gt;ric.RicSetRun -->
<g id="edge7" class="edge">
<title>ric.func_8015DBB0&#45;&gt;ric.RicSetRun</title>
<path fill="none" stroke="black" d="M1454.34,-179.93C1454.34,-148.97 1454.34,-83.3 1454.34,-46.13"/>
<polygon fill="black" stroke="black" points="1457.84,-46.02 1454.34,-36.02 1450.84,-46.02 1457.84,-46.02"/>
<text text-anchor="middle" x="1449.34" y="-39.82" font-family="Times,serif" font-size="14.00">1</text>
</g>
<!-- ric.RicSetStand -->
<g id="node9" class="node">
<title>ric.RicSetStand</title>
<g id="a_node9"><a xlink:href="ric.RicSetStand.svg" xlink:title="ric.RicSetStand">
<ellipse fill="green" stroke="black" cx="1630.34" cy="-18" rx="83.39" ry="18"/>
<text text-anchor="middle" x="1630.34" y="-14.3" font-family="Times,serif" font-size="14.00">ric.RicSetStand</text>
</a>
</g>
</g>
<!-- ric.func_8015DBB0&#45;&gt;ric.RicSetStand -->
<g id="edge8" class="edge">
<title>ric.func_8015DBB0&#45;&gt;ric.RicSetStand</title>
<path fill="none" stroke="black" d="M1471.22,-179.93C1502.71,-148.09 1570.48,-79.54 1606.58,-43.04"/>
<polygon fill="black" stroke="black" points="1609.23,-45.33 1613.78,-35.76 1604.26,-40.41 1609.23,-45.33"/>
<text text-anchor="middle" x="1608.78" y="-39.56" font-family="Times,serif" font-size="14.00">1</text>
</g>
<!-- ric.RicSetWalk -->
<g id="node10" class="node">
<title>ric.RicSetWalk</title>
<g id="a_node10"><a xlink:href="ric.RicSetWalk.svg" xlink:title="ric.RicSetWalk">
<ellipse fill="green" stroke="black" cx="1810.34" cy="-18" rx="78.79" ry="18"/>
<text text-anchor="middle" x="1810.34" y="-14.3" font-family="Times,serif" font-size="14.00">ric.RicSetWalk</text>
</a>
</g>
</g>
<!-- ric.func_8015DBB0&#45;&gt;ric.RicSetWalk -->
<g id="edge9" class="edge">
<title>ric.func_8015DBB0&#45;&gt;ric.RicSetWalk</title>
<path fill="none" stroke="black" d="M1486.56,-180.89C1551.68,-148.33 1698.78,-74.78 1770.08,-39.13"/>
<polygon fill="black" stroke="black" points="1771.84,-42.17 1779.22,-34.56 1768.71,-35.91 1771.84,-42.17"/>
<text text-anchor="middle" x="1774.22" y="-38.36" font-family="Times,serif" font-size="14.00">1</text>
</g>
<!-- ric.func_8015CF08 -->
<g id="node11" class="node">
<title>ric.func_8015CF08</title>
<g id="a_node11"><a xlink:href="ric.func_8015CF08.svg" xlink:title="ric.func_8015CF08">
<ellipse fill="green" stroke="black" cx="2005.34" cy="-18" rx="98.58" ry="18"/>
<text text-anchor="middle" x="2005.34" y="-14.3" font-family="Times,serif" font-size="14.00">ric.func_8015CF08</text>
</a>
</g>
</g>
<!-- ric.func_8015DBB0&#45;&gt;ric.func_8015CF08 -->
<g id="edge10" class="edge">
<title>ric.func_8015DBB0&#45;&gt;ric.func_8015CF08</title>
<path fill="none" stroke="black" d="M1500.85,-181.98C1601.74,-149.38 1840.39,-72.29 1949.34,-37.09"/>
<polygon fill="black" stroke="black" points="1950.72,-40.32 1959.16,-33.92 1948.57,-33.66 1950.72,-40.32"/>
<text text-anchor="middle" x="1954.16" y="-37.72" font-family="Times,serif" font-size="14.00">1</text>
</g>
<!-- ric.func_8015D678 -->
<g id="node12" class="node">
<title>ric.func_8015D678</title>
<g id="a_node12"><a xlink:href="ric.func_8015D678.svg" xlink:title="ric.func_8015D678">
<ellipse fill="green" stroke="black" cx="2221.34" cy="-18" rx="98.58" ry="18"/>
<text text-anchor="middle" x="2221.34" y="-14.3" font-family="Times,serif" font-size="14.00">ric.func_8015D678</text>
</a>
</g>
</g>
<!-- ric.func_8015DBB0&#45;&gt;ric.func_8015D678 -->
<g id="edge11" class="edge">
<title>ric.func_8015DBB0&#45;&gt;ric.func_8015D678</title>
<path fill="none" stroke="black" d="M1513.26,-183.33C1653.08,-150.88 2004.34,-69.36 2153.09,-34.84"/>
<polygon fill="black" stroke="black" points="2154.07,-38.21 2163.02,-32.54 2152.49,-31.39 2154.07,-38.21"/>
<text text-anchor="middle" x="2158.02" y="-36.34" font-family="Times,serif" font-size="14.00">1</text>
</g>
<!-- ric.func_8015D9B4 -->
<g id="node13" class="node">
<title>ric.func_8015D9B4</title>
<g id="a_node13"><a xlink:href="ric.func_8015D9B4.svg" xlink:title="ric.func_8015D9B4">
<ellipse fill="green" stroke="black" cx="2437.34" cy="-18" rx="99.38" ry="18"/>
<text text-anchor="middle" x="2437.34" y="-14.3" font-family="Times,serif" font-size="14.00">ric.func_8015D9B4</text>
</a>
</g>
</g>
<!-- ric.func_8015DBB0&#45;&gt;ric.func_8015D9B4 -->
<g id="edge12" class="edge">
<title>ric.func_8015DBB0&#45;&gt;ric.func_8015D9B4</title>
<path fill="none" stroke="black" d="M1522.3,-184.7C1699.07,-152.69 2172.52,-66.95 2359.67,-33.07"/>
<polygon fill="black" stroke="black" points="2360.49,-36.47 2369.71,-31.25 2359.24,-29.59 2360.49,-36.47"/>
<text text-anchor="middle" x="2364.71" y="-35.05" font-family="Times,serif" font-size="14.00">1</text>
</g>
<!-- ric.func_8015D9D4 -->
<g id="node14" class="node">
<title>ric.func_8015D9D4</title>
<g id="a_node14"><a xlink:href="ric.func_8015D9D4.svg" xlink:title="ric.func_8015D9D4">
<ellipse fill="green" stroke="black" cx="2655.34" cy="-18" rx="100.18" ry="18"/>
<text text-anchor="middle" x="2655.34" y="-14.3" font-family="Times,serif" font-size="14.00">ric.func_8015D9D4</text>
</a>
</g>
</g>
<!-- ric.func_8015DBB0&#45;&gt;ric.func_8015D9D4 -->
<g id="edge13" class="edge">
<title>ric.func_8015DBB0&#45;&gt;ric.func_8015D9D4</title>
<path fill="none" stroke="black" d="M1529.76,-186.05C1707,-160.28 2163.88,-93.62 2545.34,-36 2554.02,-34.69 2563.08,-33.31 2572.11,-31.92"/>
<polygon fill="black" stroke="black" points="2572.93,-35.34 2582.28,-30.36 2571.87,-28.42 2572.93,-35.34"/>
<text text-anchor="middle" x="2577.28" y="-34.16" font-family="Times,serif" font-size="14.00">1</text>
</g>
<!-- ric.RicHandleCrouch -->
<g id="node15" class="node">
<title>ric.RicHandleCrouch</title>
<g id="a_node15"><a xlink:href="ric.RicHandleCrouch.svg" xlink:title="ric.RicHandleCrouch">
<ellipse fill="green" stroke="black" cx="733.34" cy="-378" rx="106.68" ry="18"/>
<text text-anchor="middle" x="733.34" y="-374.3" font-family="Times,serif" font-size="14.00">ric.RicHandleCrouch</text>
</a>
</g>
</g>
<!-- ric.RicHandleCrouch&#45;&gt;ric.func_8015DBB0 -->
<g id="edge14" class="edge">
<title>ric.RicHandleCrouch&#45;&gt;ric.func_8015DBB0</title>
<path fill="none" stroke="black" d="M790.82,-362.81C922.94,-330.19 1247.6,-250.04 1387.94,-215.39"/>
<polygon fill="black" stroke="black" points="1388.85,-218.77 1397.72,-212.98 1387.17,-211.98 1388.85,-218.77"/>
<text text-anchor="middle" x="785.82" y="-351.61" font-family="Times,serif" font-size="14.00">1</text>
</g>
<!-- ric.RicHandleFall -->
<g id="node16" class="node">
<title>ric.RicHandleFall</title>
<g id="a_node16"><a xlink:href="ric.RicHandleFall.svg" xlink:title="ric.RicHandleFall">
<ellipse fill="green" stroke="black" cx="949.34" cy="-378" rx="90.98" ry="18"/>
<text text-anchor="middle" x="949.34" y="-374.3" font-family="Times,serif" font-size="14.00">ric.RicHandleFall</text>
</a>
</g>
</g>
<!-- ric.RicHandleFall&#45;&gt;ric.func_8015DBB0 -->
<g id="edge15" class="edge">
<title>ric.RicHandleFall&#45;&gt;ric.func_8015DBB0</title>
<path fill="none" stroke="black" d="M991.97,-361.98C1083.9,-329.57 1300.65,-253.17 1401.28,-217.7"/>
<polygon fill="black" stroke="black" points="1402.68,-220.92 1410.94,-214.3 1400.35,-214.32 1402.68,-220.92"/>
<text text-anchor="middle" x="986.97" y="-350.78" font-family="Times,serif" font-size="14.00">1</text>
</g>
<!-- ric.RicHandleHit -->
<g id="node17" class="node">
<title>ric.RicHandleHit</title>
<g id="a_node17"><a xlink:href="ric.RicHandleHit.svg" xlink:title="ric.RicHandleHit">
<ellipse fill="green" stroke="black" cx="1146.34" cy="-378" rx="88.28" ry="18"/>
<text text-anchor="middle" x="1146.34" y="-374.3" font-family="Times,serif" font-size="14.00">ric.RicHandleHit</text>
</a>
</g>
</g>
<!-- ric.RicHandleHit&#45;&gt;ric.func_8015DBB0 -->
<g id="edge16" class="edge">
<title>ric.RicHandleHit&#45;&gt;ric.func_8015DBB0</title>
<path fill="none" stroke="black" d="M1174.22,-360.89C1229.83,-328.75 1354.56,-256.67 1417.1,-220.52"/>
<polygon fill="black" stroke="black" points="1418.96,-223.49 1425.86,-215.46 1415.45,-217.43 1418.96,-223.49"/>
<text text-anchor="middle" x="1169.22" y="-349.69" font-family="Times,serif" font-size="14.00">1</text>
</g>
<!-- ric.RicHandleJump -->
<g id="node18" class="node">
<title>ric.RicHandleJump</title>
<g id="a_node18"><a xlink:href="ric.RicHandleJump.svg" xlink:title="ric.RicHandleJump">
<ellipse fill="green" stroke="black" cx="1350.34" cy="-378" rx="97.48" ry="18"/>
<text text-anchor="middle" x="1350.34" y="-374.3" font-family="Times,serif" font-size="14.00">ric.RicHandleJump</text>
</a>
</g>
</g>
<!-- ric.RicHandleJump&#45;&gt;ric.func_8015DBB0 -->
<g id="edge17" class="edge">
<title>ric.RicHandleJump&#45;&gt;ric.func_8015DBB0</title>
<path fill="none" stroke="black" d="M1360.32,-359.93C1378.64,-328.57 1417.77,-261.6 1439.32,-224.71"/>
<polygon fill="black" stroke="black" points="1442.38,-226.42 1444.4,-216.02 1436.34,-222.88 1442.38,-226.42"/>
<text text-anchor="middle" x="1355.32" y="-348.73" font-family="Times,serif" font-size="14.00">1</text>
</g>
<!-- ric.RicHandleRun -->
<g id="node19" class="node">
<title>ric.RicHandleRun</title>
<g id="a_node19"><a xlink:href="ric.RicHandleRun.svg" xlink:title="ric.RicHandleRun">
<ellipse fill="green" stroke="black" cx="1558.34" cy="-378" rx="92.08" ry="18"/>
<text text-anchor="middle" x="1558.34" y="-374.3" font-family="Times,serif" font-size="14.00">ric.RicHandleRun</text>
</a>
</g>
</g>
<!-- ric.RicHandleRun&#45;&gt;ric.func_8015DBB0 -->
<g id="edge18" class="edge">
<title>ric.RicHandleRun&#45;&gt;ric.func_8015DBB0</title>
<path fill="none" stroke="black" d="M1548.37,-359.93C1530.05,-328.57 1490.92,-261.6 1469.36,-224.71"/>
<polygon fill="black" stroke="black" points="1472.35,-222.88 1464.29,-216.02 1466.31,-226.42 1472.35,-222.88"/>
<text text-anchor="middle" x="1543.37" y="-348.73" font-family="Times,serif" font-size="14.00">1</text>
</g>
<!-- ric.RicHandleStand -->
<g id="node20" class="node">
<title>ric.RicHandleStand</title>
<g id="a_node20"><a xlink:href="ric.RicHandleStand.svg" xlink:title="ric.RicHandleStand">
<ellipse fill="green" stroke="black" cx="1769.34" cy="-378" rx="100.98" ry="18"/>
<text text-anchor="middle" x="1769.34" y="-374.3" font-family="Times,serif" font-size="14.00">ric.RicHandleStand</text>
</a>
</g>
</g>
<!-- ric.RicHandleStand&#45;&gt;ric.func_8015DBB0 -->
<g id="edge19" class="edge">
<title>ric.RicHandleStand&#45;&gt;ric.func_8015DBB0</title>
<path fill="none" stroke="black" d="M1740.56,-360.73C1683.52,-328.5 1556.18,-256.55 1492.35,-220.48"/>
<polygon fill="black" stroke="black" points="1493.84,-217.3 1483.41,-215.42 1490.39,-223.39 1493.84,-217.3"/>
<text text-anchor="middle" x="1735.56" y="-349.53" font-family="Times,serif" font-size="14.00">1</text>
</g>
<!-- ric.RicHandleWalk -->
<g id="node21" class="node">
<title>ric.RicHandleWalk</title>
<g id="a_node21"><a xlink:href="ric.RicHandleWalk.svg" xlink:title="ric.RicHandleWalk">
<ellipse fill="green" stroke="black" cx="1984.34" cy="-378" rx="96.38" ry="18"/>
<text text-anchor="middle" x="1984.34" y="-374.3" font-family="Times,serif" font-size="14.00">ric.RicHandleWalk</text>
</a>
</g>
</g>
<!-- ric.RicHandleWalk&#45;&gt;ric.func_8015DBB0 -->
<g id="edge20" class="edge">
<title>ric.RicHandleWalk&#45;&gt;ric.func_8015DBB0</title>
<path fill="none" stroke="black" d="M1939.61,-361.98C1842.81,-329.47 1614.16,-252.67 1509,-217.36"/>
<polygon fill="black" stroke="black" points="1510.11,-214.04 1499.52,-214.17 1507.88,-220.67 1510.11,-214.04"/>
<text text-anchor="middle" x="1934.61" y="-350.78" font-family="Times,serif" font-size="14.00">1</text>
</g>
<!-- ric.func_8015B898 -->
<g id="node22" class="node">
<title>ric.func_8015B898</title>
<g id="a_node22"><a xlink:href="ric.func_8015B898.svg" xlink:title="ric.func_8015B898">
<ellipse fill="green" stroke="black" cx="2196.34" cy="-378" rx="98.28" ry="18"/>
<text text-anchor="middle" x="2196.34" y="-374.3" font-family="Times,serif" font-size="14.00">ric.func_8015B898</text>
</a>
</g>
</g>
<!-- ric.func_8015B898&#45;&gt;ric.func_8015DBB0 -->
<g id="edge21" class="edge">
<title>ric.func_8015B898&#45;&gt;ric.func_8015DBB0</title>
<path fill="none" stroke="black" d="M2139.35,-363.33C2004.64,-331.01 1667.03,-250.02 1522.13,-215.26"/>
<polygon fill="black" stroke="black" points="1522.58,-211.77 1512.04,-212.84 1520.95,-218.58 1522.58,-211.77"/>
<text text-anchor="middle" x="2134.35" y="-352.13" font-family="Times,serif" font-size="14.00">2</text>
</g>
</g>
</svg>
