<?xml version="1.0" encoding="UTF-8" standalone="no"?>
<!DOCTYPE svg PUBLIC "-//W3C//DTD SVG 1.1//EN"
 "http://www.w3.org/Graphics/SVG/1.1/DTD/svg11.dtd">
<!-- Generated by graphviz version 2.43.0 (0)
 -->
<!-- Title: ric.func_8015C2A8 Pages: 1 -->
<svg width="923pt" height="404pt"
 viewBox="0.00 0.00 923.19 404.00" xmlns="http://www.w3.org/2000/svg" xmlns:xlink="http://www.w3.org/1999/xlink">
<g id="graph0" class="graph" transform="scale(1 1) rotate(0) translate(4 400)">
<title>ric.func_8015C2A8</title>
<polygon fill="white" stroke="transparent" points="-4,4 -4,-400 919.19,-400 919.19,4 -4,4"/>
<!-- ric.func_8015C2A8 -->
<g id="node1" class="node">
<title>ric.func_8015C2A8</title>
<ellipse fill="green" stroke="black" cx="394.05" cy="-198" rx="98.58" ry="18"/>
<text text-anchor="middle" x="394.05" y="-194.3" font-family="Times,serif" font-size="14.00">ric.func_8015C2A8</text>
</g>
<!-- FntPrint -->
<g id="node2" class="node">
<title>FntPrint</title>
<g id="a_node2"><a xlink:href="FntPrint.svg" xlink:title="FntPrint">
<ellipse fill="lightblue" stroke="black" cx="50.05" cy="-18" rx="50.09" ry="18"/>
<text text-anchor="middle" x="50.05" y="-14.3" font-family="Times,serif" font-size="14.00">FntPrint</text>
</a>
</g>
</g>
<!-- ric.func_8015C2A8&#45;&gt;FntPrint -->
<g id="edge1" class="edge">
<title>ric.func_8015C2A8&#45;&gt;FntPrint</title>
<path fill="none" stroke="black" d="M362.91,-180.89C299.25,-147.95 154.5,-73.05 86.55,-37.89"/>
<polygon fill="black" stroke="black" points="87.98,-34.69 77.49,-33.2 84.76,-40.9 87.98,-34.69"/>
<text text-anchor="middle" x="72.49" y="-37" font-family="Times,serif" font-size="14.00">3</text>
</g>
<!-- ric.DecelerateX -->
<g id="node3" class="node">
<title>ric.DecelerateX</title>
<g id="a_node3"><a xlink:href="ric.DecelerateX.svg" xlink:title="ric.DecelerateX">
<ellipse fill="green" stroke="black" cx="201.05" cy="-18" rx="82.59" ry="18"/>
<text text-anchor="middle" x="201.05" y="-14.3" font-family="Times,serif" font-size="14.00">ric.DecelerateX</text>
</a>
</g>
</g>
<!-- ric.func_8015C2A8&#45;&gt;ric.DecelerateX -->
<g id="edge2" class="edge">
<title>ric.func_8015C2A8&#45;&gt;ric.DecelerateX</title>
<path fill="none" stroke="black" d="M375.89,-180.25C341.32,-148.37 265.96,-78.87 226.42,-42.4"/>
<polygon fill="black" stroke="black" points="228.74,-39.78 219.01,-35.57 223.99,-44.92 228.74,-39.78"/>
<text text-anchor="middle" x="214.01" y="-39.37" font-family="Times,serif" font-size="14.00">1</text>
</g>
<!-- ric.SetPlayerStep -->
<g id="node4" class="node">
<title>ric.SetPlayerStep</title>
<g id="a_node4"><a xlink:href="ric.SetPlayerStep.svg" xlink:title="ric.SetPlayerStep">
<ellipse fill="green" stroke="black" cx="394.05" cy="-18" rx="92.88" ry="18"/>
<text text-anchor="middle" x="394.05" y="-14.3" font-family="Times,serif" font-size="14.00">ric.SetPlayerStep</text>
</a>
</g>
</g>
<!-- ric.func_8015C2A8&#45;&gt;ric.SetPlayerStep -->
<g id="edge3" class="edge">
<title>ric.func_8015C2A8&#45;&gt;ric.SetPlayerStep</title>
<path fill="none" stroke="black" d="M394.05,-179.93C394.05,-148.97 394.05,-83.3 394.05,-46.13"/>
<polygon fill="black" stroke="black" points="397.55,-46.02 394.05,-36.02 390.55,-46.02 397.55,-46.02"/>
<text text-anchor="middle" x="389.05" y="-39.82" font-family="Times,serif" font-size="14.00">1</text>
</g>
<!-- ric.func_80158B04 -->
<g id="node5" class="node">
<title>ric.func_80158B04</title>
<g id="a_node5"><a xlink:href="ric.func_80158B04.svg" xlink:title="ric.func_80158B04">
<ellipse fill="green" stroke="black" cx="603.05" cy="-18" rx="98.28" ry="18"/>
<text text-anchor="middle" x="603.05" y="-14.3" font-family="Times,serif" font-size="14.00">ric.func_80158B04</text>
</a>
</g>
</g>
<!-- ric.func_8015C2A8&#45;&gt;ric.func_80158B04 -->
<g id="edge4" class="edge">
<title>ric.func_8015C2A8&#45;&gt;ric.func_80158B04</title>
<path fill="none" stroke="black" d="M413.71,-180.25C451.13,-148.38 532.67,-78.94 575.51,-42.45"/>
<polygon fill="black" stroke="black" points="577.94,-44.98 583.28,-35.83 573.4,-39.65 577.94,-44.98"/>
<text text-anchor="middle" x="578.28" y="-39.63" font-family="Times,serif" font-size="14.00">2</text>
</g>
<!-- ric.func_8015C920 -->
<g id="node6" class="node">
<title>ric.func_8015C920</title>
<g id="a_node6"><a xlink:href="ric.func_8015C920.svg" xlink:title="ric.func_8015C920">
<ellipse fill="green" stroke="black" cx="817.05" cy="-18" rx="98.28" ry="18"/>
<text text-anchor="middle" x="817.05" y="-14.3" font-family="Times,serif" font-size="14.00">ric.func_8015C920</text>
</a>
</g>
</g>
<!-- ric.func_8015C2A8&#45;&gt;ric.func_8015C920 -->
<g id="edge5" class="edge">
<title>ric.func_8015C2A8&#45;&gt;ric.func_8015C920</title>
<path fill="none" stroke="black" d="M431.58,-181.2C508.88,-148.68 685.62,-74.3 770.23,-38.7"/>
<polygon fill="black" stroke="black" points="771.73,-41.87 779.59,-34.76 769.02,-35.41 771.73,-41.87"/>
<text text-anchor="middle" x="774.59" y="-38.56" font-family="Times,serif" font-size="14.00">1</text>
</g>
<!-- ric.UpdateEntityRichter -->
<g id="node7" class="node">
<title>ric.UpdateEntityRichter</title>
<g id="a_node7"><a xlink:href="ric.UpdateEntityRichter.svg" xlink:title="ric.UpdateEntityRichter">
<ellipse fill="green" stroke="black" cx="394.05" cy="-378" rx="122.68" ry="18"/>
<text text-anchor="middle" x="394.05" y="-374.3" font-family="Times,serif" font-size="14.00">ric.UpdateEntityRichter</text>
</a>
</g>
</g>
<!-- ric.UpdateEntityRichter&#45;&gt;ric.func_8015C2A8 -->
<g id="edge6" class="edge">
<title>ric.UpdateEntityRichter&#45;&gt;ric.func_8015C2A8</title>
<path fill="none" stroke="black" d="M394.05,-359.93C394.05,-328.97 394.05,-263.3 394.05,-226.13"/>
<polygon fill="black" stroke="black" points="397.55,-226.02 394.05,-216.02 390.55,-226.02 397.55,-226.02"/>
<text text-anchor="middle" x="389.05" y="-348.73" font-family="Times,serif" font-size="14.00">1</text>
</g>
</g>
</svg>
