<?xml version="1.0" encoding="UTF-8" standalone="no"?>
<!DOCTYPE svg PUBLIC "-//W3C//DTD SVG 1.1//EN"
 "http://www.w3.org/Graphics/SVG/1.1/DTD/svg11.dtd">
<!-- Generated by graphviz version 2.43.0 (0)
 -->
<!-- Title: ric.RicSetSpeedX Pages: 1 -->
<svg width="3997pt" height="224pt"
 viewBox="0.00 0.00 3997.48 224.00" xmlns="http://www.w3.org/2000/svg" xmlns:xlink="http://www.w3.org/1999/xlink">
<g id="graph0" class="graph" transform="scale(1 1) rotate(0) translate(4 220)">
<title>ric.RicSetSpeedX</title>
<polygon fill="white" stroke="transparent" points="-4,4 -4,-220 3993.48,-220 3993.48,4 -4,4"/>
<!-- ric.RicSetSpeedX -->
<g id="node1" class="node">
<title>ric.RicSetSpeedX</title>
<ellipse fill="green" stroke="black" cx="2193.69" cy="-18" rx="90.98" ry="18"/>
<text text-anchor="middle" x="2193.69" y="-14.3" font-family="Times,serif" font-size="14.00">ric.RicSetSpeedX</text>
</g>
<!-- ric.RicEntitySubwpnAgunea -->
<g id="node2" class="node">
<title>ric.RicEntitySubwpnAgunea</title>
<g id="a_node2"><a xlink:href="ric.RicEntitySubwpnAgunea.svg" xlink:title="ric.RicEntitySubwpnAgunea">
<ellipse fill="green" stroke="black" cx="141.69" cy="-198" rx="141.88" ry="18"/>
<text text-anchor="middle" x="141.69" y="-194.3" font-family="Times,serif" font-size="14.00">ric.RicEntitySubwpnAgunea</text>
</a>
</g>
</g>
<!-- ric.RicEntitySubwpnAgunea&#45;&gt;ric.RicSetSpeedX -->
<g id="edge1" class="edge">
<title>ric.RicEntitySubwpnAgunea&#45;&gt;ric.RicSetSpeedX</title>
<path fill="none" stroke="black" d="M242.36,-185.27C259.16,-183.43 276.41,-181.61 292.69,-180 986.2,-111.61 1823.84,-46.88 2100.24,-26"/>
<polygon fill="black" stroke="black" points="2100.52,-29.48 2110.23,-25.24 2099.99,-22.5 2100.52,-29.48"/>
<text text-anchor="middle" x="237.36" y="-174.07" font-family="Times,serif" font-size="14.00">1</text>
</g>
<!-- ric.RicEntitySubwpnAxe -->
<g id="node3" class="node">
<title>ric.RicEntitySubwpnAxe</title>
<g id="a_node3"><a xlink:href="ric.RicEntitySubwpnAxe.svg" xlink:title="ric.RicEntitySubwpnAxe">
<ellipse fill="green" stroke="black" cx="425.69" cy="-198" rx="124.28" ry="18"/>
<text text-anchor="middle" x="425.69" y="-194.3" font-family="Times,serif" font-size="14.00">ric.RicEntitySubwpnAxe</text>
</a>
</g>
</g>
<!-- ric.RicEntitySubwpnAxe&#45;&gt;ric.RicSetSpeedX -->
<g id="edge2" class="edge">
<title>ric.RicEntitySubwpnAxe&#45;&gt;ric.RicSetSpeedX</title>
<path fill="none" stroke="black" d="M514,-185.35C528.91,-183.49 544.23,-181.64 558.69,-180 1146.08,-113.55 1854,-49.17 2102.31,-27.06"/>
<polygon fill="black" stroke="black" points="2102.72,-30.54 2112.37,-26.17 2102.09,-23.57 2102.72,-30.54"/>
<text text-anchor="middle" x="509" y="-174.15" font-family="Times,serif" font-size="14.00">1</text>
</g>
<!-- ric.RicEntitySubwpnCross -->
<g id="node4" class="node">
<title>ric.RicEntitySubwpnCross</title>
<g id="a_node4"><a xlink:href="ric.RicEntitySubwpnCross.svg" xlink:title="ric.RicEntitySubwpnCross">
<ellipse fill="green" stroke="black" cx="700.69" cy="-198" rx="133.48" ry="18"/>
<text text-anchor="middle" x="700.69" y="-194.3" font-family="Times,serif" font-size="14.00">ric.RicEntitySubwpnCross</text>
</a>
</g>
</g>
<!-- ric.RicEntitySubwpnCross&#45;&gt;ric.RicSetSpeedX -->
<g id="edge3" class="edge">
<title>ric.RicEntitySubwpnCross&#45;&gt;ric.RicSetSpeedX</title>
<path fill="none" stroke="black" d="M796.93,-185.47C812.24,-183.64 827.9,-181.77 842.69,-180 1320.65,-122.91 1893.77,-54.69 2107.66,-29.24"/>
<polygon fill="black" stroke="black" points="2108.36,-32.68 2117.88,-28.02 2107.54,-25.73 2108.36,-32.68"/>
<text text-anchor="middle" x="791.93" y="-174.27" font-family="Times,serif" font-size="14.00">1</text>
</g>
<!-- ric.RicEntitySubwpnDagger -->
<g id="node5" class="node">
<title>ric.RicEntitySubwpnDagger</title>
<g id="a_node5"><a xlink:href="ric.RicEntitySubwpnDagger.svg" xlink:title="ric.RicEntitySubwpnDagger">
<ellipse fill="green" stroke="black" cx="992.69" cy="-198" rx="141.07" ry="18"/>
<text text-anchor="middle" x="992.69" y="-194.3" font-family="Times,serif" font-size="14.00">ric.RicEntitySubwpnDagger</text>
</a>
</g>
</g>
<!-- ric.RicEntitySubwpnDagger&#45;&gt;ric.RicSetSpeedX -->
<g id="edge4" class="edge">
<title>ric.RicEntitySubwpnDagger&#45;&gt;ric.RicSetSpeedX</title>
<path fill="none" stroke="black" d="M1081,-183.91C1305.76,-150.6 1896.96,-62.98 2113.08,-30.95"/>
<polygon fill="black" stroke="black" points="2113.71,-34.39 2123.09,-29.46 2112.68,-27.47 2113.71,-34.39"/>
<text text-anchor="middle" x="1076" y="-172.71" font-family="Times,serif" font-size="14.00">1</text>
</g>
<!-- ric.RicHandleFall -->
<g id="node6" class="node">
<title>ric.RicHandleFall</title>
<g id="a_node6"><a xlink:href="ric.RicHandleFall.svg" xlink:title="ric.RicHandleFall">
<ellipse fill="green" stroke="black" cx="1242.69" cy="-198" rx="90.98" ry="18"/>
<text text-anchor="middle" x="1242.69" y="-194.3" font-family="Times,serif" font-size="14.00">ric.RicHandleFall</text>
</a>
</g>
</g>
<!-- ric.RicHandleFall&#45;&gt;ric.RicSetSpeedX -->
<g id="edge5" class="edge">
<title>ric.RicHandleFall&#45;&gt;ric.RicSetSpeedX</title>
<path fill="none" stroke="black" d="M1306.56,-185.04C1476.59,-153.22 1939.56,-66.57 2120.15,-32.76"/>
<polygon fill="black" stroke="black" points="2120.91,-36.18 2130.09,-30.9 2119.62,-29.3 2120.91,-36.18"/>
<text text-anchor="middle" x="1301.56" y="-173.84" font-family="Times,serif" font-size="14.00">1</text>
</g>
<!-- ric.RicHandleHit -->
<g id="node7" class="node">
<title>ric.RicHandleHit</title>
<g id="a_node7"><a xlink:href="ric.RicHandleHit.svg" xlink:title="ric.RicHandleHit">
<ellipse fill="green" stroke="black" cx="1439.69" cy="-198" rx="88.28" ry="18"/>
<text text-anchor="middle" x="1439.69" y="-194.3" font-family="Times,serif" font-size="14.00">ric.RicHandleHit</text>
</a>
</g>
</g>
<!-- ric.RicHandleHit&#45;&gt;ric.RicSetSpeedX -->
<g id="edge6" class="edge">
<title>ric.RicHandleHit&#45;&gt;ric.RicSetSpeedX</title>
<path fill="none" stroke="black" d="M1495.13,-183.91C1631.27,-151.77 1981.54,-69.08 2127.89,-34.53"/>
<polygon fill="black" stroke="black" points="2128.72,-37.93 2137.65,-32.23 2127.11,-31.12 2128.72,-37.93"/>
<text text-anchor="middle" x="1490.13" y="-172.71" font-family="Times,serif" font-size="14.00">1</text>
</g>
<!-- ric.RicHandleJump -->
<g id="node8" class="node">
<title>ric.RicHandleJump</title>
<g id="a_node8"><a xlink:href="ric.RicHandleJump.svg" xlink:title="ric.RicHandleJump">
<ellipse fill="green" stroke="black" cx="1643.69" cy="-198" rx="97.48" ry="18"/>
<text text-anchor="middle" x="1643.69" y="-194.3" font-family="Times,serif" font-size="14.00">ric.RicHandleJump</text>
</a>
</g>
</g>
<!-- ric.RicHandleJump&#45;&gt;ric.RicSetSpeedX -->
<g id="edge7" class="edge">
<title>ric.RicHandleJump&#45;&gt;ric.RicSetSpeedX</title>
<path fill="none" stroke="black" d="M1690.11,-181.98C1791.06,-149.3 2030.22,-71.9 2138.6,-36.83"/>
<polygon fill="black" stroke="black" points="2139.92,-40.08 2148.36,-33.67 2137.77,-33.42 2139.92,-40.08"/>
<text text-anchor="middle" x="1685.11" y="-170.78" font-family="Times,serif" font-size="14.00">8</text>
</g>
<!-- ric.RicHandleRun -->
<g id="node9" class="node">
<title>ric.RicHandleRun</title>
<g id="a_node9"><a xlink:href="ric.RicHandleRun.svg" xlink:title="ric.RicHandleRun">
<ellipse fill="green" stroke="black" cx="1851.69" cy="-198" rx="92.08" ry="18"/>
<text text-anchor="middle" x="1851.69" y="-194.3" font-family="Times,serif" font-size="14.00">ric.RicHandleRun</text>
</a>
</g>
</g>
<!-- ric.RicHandleRun&#45;&gt;ric.RicSetSpeedX -->
<g id="edge8" class="edge">
<title>ric.RicHandleRun&#45;&gt;ric.RicSetSpeedX</title>
<path fill="none" stroke="black" d="M1882.64,-180.89C1944.67,-148.6 2084.16,-76 2153.29,-40.03"/>
<polygon fill="black" stroke="black" points="2155.3,-42.92 2162.56,-35.2 2152.07,-36.71 2155.3,-42.92"/>
<text text-anchor="middle" x="1877.64" y="-169.69" font-family="Times,serif" font-size="14.00">1</text>
</g>
<!-- ric.RicHandleSlideKick -->
<g id="node10" class="node">
<title>ric.RicHandleSlideKick</title>
<g id="a_node10"><a xlink:href="ric.RicHandleSlideKick.svg" xlink:title="ric.RicHandleSlideKick">
<ellipse fill="green" stroke="black" cx="2078.69" cy="-198" rx="116.98" ry="18"/>
<text text-anchor="middle" x="2078.69" y="-194.3" font-family="Times,serif" font-size="14.00">ric.RicHandleSlideKick</text>
</a>
</g>
</g>
<!-- ric.RicHandleSlideKick&#45;&gt;ric.RicSetSpeedX -->
<g id="edge9" class="edge">
<title>ric.RicHandleSlideKick&#45;&gt;ric.RicSetSpeedX</title>
<path fill="none" stroke="black" d="M2089.71,-179.93C2109.98,-148.57 2153.24,-81.6 2177.08,-44.71"/>
<polygon fill="black" stroke="black" points="2180.21,-46.31 2182.69,-36.02 2174.33,-42.52 2180.21,-46.31"/>
<text text-anchor="middle" x="2084.71" y="-168.73" font-family="Times,serif" font-size="14.00">1</text>
</g>
<!-- ric.RicHandleWalk -->
<g id="node11" class="node">
<title>ric.RicHandleWalk</title>
<g id="a_node11"><a xlink:href="ric.RicHandleWalk.svg" xlink:title="ric.RicHandleWalk">
<ellipse fill="green" stroke="black" cx="2309.69" cy="-198" rx="96.38" ry="18"/>
<text text-anchor="middle" x="2309.69" y="-194.3" font-family="Times,serif" font-size="14.00">ric.RicHandleWalk</text>
</a>
</g>
</g>
<!-- ric.RicHandleWalk&#45;&gt;ric.RicSetSpeedX -->
<g id="edge10" class="edge">
<title>ric.RicHandleWalk&#45;&gt;ric.RicSetSpeedX</title>
<path fill="none" stroke="black" d="M2298.56,-179.93C2278.12,-148.57 2234.48,-81.6 2210.44,-44.71"/>
<polygon fill="black" stroke="black" points="2213.17,-42.48 2204.78,-36.02 2207.3,-46.3 2213.17,-42.48"/>
<text text-anchor="middle" x="2293.56" y="-168.73" font-family="Times,serif" font-size="14.00">1</text>
</g>
<!-- ric.RicSetBladeDash -->
<g id="node12" class="node">
<title>ric.RicSetBladeDash</title>
<g id="a_node12"><a xlink:href="ric.RicSetBladeDash.svg" xlink:title="ric.RicSetBladeDash">
<ellipse fill="green" stroke="black" cx="2529.69" cy="-198" rx="105.88" ry="18"/>
<text text-anchor="middle" x="2529.69" y="-194.3" font-family="Times,serif" font-size="14.00">ric.RicSetBladeDash</text>
</a>
</g>
</g>
<!-- ric.RicSetBladeDash&#45;&gt;ric.RicSetSpeedX -->
<g id="edge11" class="edge">
<title>ric.RicSetBladeDash&#45;&gt;ric.RicSetSpeedX</title>
<path fill="none" stroke="black" d="M2498.98,-180.73C2437.86,-148.35 2301.06,-75.88 2233.29,-39.98"/>
<polygon fill="black" stroke="black" points="2234.68,-36.75 2224.2,-35.17 2231.4,-42.94 2234.68,-36.75"/>
<text text-anchor="middle" x="2493.98" y="-169.53" font-family="Times,serif" font-size="14.00">1</text>
</g>
<!-- ric.RicSetHighJump -->
<g id="node13" class="node">
<title>ric.RicSetHighJump</title>
<g id="a_node13"><a xlink:href="ric.RicSetHighJump.svg" xlink:title="ric.RicSetHighJump">
<ellipse fill="green" stroke="black" cx="2756.69" cy="-198" rx="102.88" ry="18"/>
<text text-anchor="middle" x="2756.69" y="-194.3" font-family="Times,serif" font-size="14.00">ric.RicSetHighJump</text>
</a>
</g>
</g>
<!-- ric.RicSetHighJump&#45;&gt;ric.RicSetSpeedX -->
<g id="edge12" class="edge">
<title>ric.RicSetHighJump&#45;&gt;ric.RicSetSpeedX</title>
<path fill="none" stroke="black" d="M2709.17,-181.98C2605.59,-149.23 2359.92,-71.56 2249.33,-36.59"/>
<polygon fill="black" stroke="black" points="2250.28,-33.22 2239.69,-33.55 2248.17,-39.9 2250.28,-33.22"/>
<text text-anchor="middle" x="2704.17" y="-170.78" font-family="Times,serif" font-size="14.00">1</text>
</g>
<!-- ric.RicSetJump -->
<g id="node14" class="node">
<title>ric.RicSetJump</title>
<g id="a_node14"><a xlink:href="ric.RicSetJump.svg" xlink:title="ric.RicSetJump">
<ellipse fill="green" stroke="black" cx="2957.69" cy="-198" rx="79.89" ry="18"/>
<text text-anchor="middle" x="2957.69" y="-194.3" font-family="Times,serif" font-size="14.00">ric.RicSetJump</text>
</a>
</g>
</g>
<!-- ric.RicSetJump&#45;&gt;ric.RicSetSpeedX -->
<g id="edge13" class="edge">
<title>ric.RicSetJump&#45;&gt;ric.RicSetSpeedX</title>
<path fill="none" stroke="black" d="M2904.27,-184.55C2768.31,-152.88 2409.38,-69.25 2260.19,-34.49"/>
<polygon fill="black" stroke="black" points="2260.78,-31.04 2250.24,-32.18 2259.19,-37.85 2260.78,-31.04"/>
<text text-anchor="middle" x="2899.27" y="-173.35" font-family="Times,serif" font-size="14.00">2</text>
</g>
<!-- ric.RicSetRun -->
<g id="node15" class="node">
<title>ric.RicSetRun</title>
<g id="a_node15"><a xlink:href="ric.RicSetRun.svg" xlink:title="ric.RicSetRun">
<ellipse fill="green" stroke="black" cx="3130.69" cy="-198" rx="74.99" ry="18"/>
<text text-anchor="middle" x="3130.69" y="-194.3" font-family="Times,serif" font-size="14.00">ric.RicSetRun</text>
</a>
</g>
</g>
<!-- ric.RicSetRun&#45;&gt;ric.RicSetSpeedX -->
<g id="edge14" class="edge">
<title>ric.RicSetRun&#45;&gt;ric.RicSetSpeedX</title>
<path fill="none" stroke="black" d="M3075.58,-185.74C3065.96,-183.8 3056.03,-181.83 3046.69,-180 2758.97,-123.74 2415.97,-60.01 2267.84,-32.66"/>
<polygon fill="black" stroke="black" points="2268.42,-29.2 2257.95,-30.83 2267.14,-36.09 2268.42,-29.2"/>
<text text-anchor="middle" x="3070.58" y="-174.54" font-family="Times,serif" font-size="14.00">1</text>
</g>
<!-- ric.RicSetSlide -->
<g id="node16" class="node">
<title>ric.RicSetSlide</title>
<g id="a_node16"><a xlink:href="ric.RicSetSlide.svg" xlink:title="ric.RicSetSlide">
<ellipse fill="green" stroke="black" cx="3302.69" cy="-198" rx="79.09" ry="18"/>
<text text-anchor="middle" x="3302.69" y="-194.3" font-family="Times,serif" font-size="14.00">ric.RicSetSlide</text>
</a>
</g>
</g>
<!-- ric.RicSetSlide&#45;&gt;ric.RicSetSpeedX -->
<g id="edge15" class="edge">
<title>ric.RicSetSlide&#45;&gt;ric.RicSetSpeedX</title>
<path fill="none" stroke="black" d="M3244.99,-185.56C3234.9,-183.64 3224.5,-181.72 3214.69,-180 2865.71,-118.8 2447.71,-56.23 2274.73,-30.81"/>
<polygon fill="black" stroke="black" points="2275.09,-27.33 2264.69,-29.34 2274.08,-34.25 2275.09,-27.33"/>
<text text-anchor="middle" x="3239.99" y="-174.36" font-family="Times,serif" font-size="14.00">1</text>
</g>
<!-- ric.RicSetSlideKick -->
<g id="node17" class="node">
<title>ric.RicSetSlideKick</title>
<g id="a_node17"><a xlink:href="ric.RicSetSlideKick.svg" xlink:title="ric.RicSetSlideKick">
<ellipse fill="green" stroke="black" cx="3499.69" cy="-198" rx="99.38" ry="18"/>
<text text-anchor="middle" x="3499.69" y="-194.3" font-family="Times,serif" font-size="14.00">ric.RicSetSlideKick</text>
</a>
</g>
</g>
<!-- ric.RicSetSlideKick&#45;&gt;ric.RicSetSpeedX -->
<g id="edge16" class="edge">
<title>ric.RicSetSlideKick&#45;&gt;ric.RicSetSpeedX</title>
<path fill="none" stroke="black" d="M3427.6,-185.54C3415.29,-183.64 3402.63,-181.73 3390.69,-180 2973.59,-119.43 2473.53,-54.72 2277.93,-29.71"/>
<polygon fill="black" stroke="black" points="2278.37,-26.24 2268,-28.44 2277.48,-33.18 2278.37,-26.24"/>
<text text-anchor="middle" x="3422.6" y="-174.34" font-family="Times,serif" font-size="14.00">1</text>
</g>
<!-- ric.RicSetWalk -->
<g id="node18" class="node">
<title>ric.RicSetWalk</title>
<g id="a_node18"><a xlink:href="ric.RicSetWalk.svg" xlink:title="ric.RicSetWalk">
<ellipse fill="green" stroke="black" cx="3695.69" cy="-198" rx="78.79" ry="18"/>
<text text-anchor="middle" x="3695.69" y="-194.3" font-family="Times,serif" font-size="14.00">ric.RicSetWalk</text>
</a>
</g>
</g>
<!-- ric.RicSetWalk&#45;&gt;ric.RicSetSpeedX -->
<g id="edge17" class="edge">
<title>ric.RicSetWalk&#45;&gt;ric.RicSetSpeedX</title>
<path fill="none" stroke="black" d="M3638.99,-185.38C3628.6,-183.44 3617.84,-181.56 3607.69,-180 3111.01,-103.87 2511.08,-47.09 2285.41,-26.96"/>
<polygon fill="black" stroke="black" points="2285.55,-23.46 2275.28,-26.06 2284.93,-30.43 2285.55,-23.46"/>
<text text-anchor="middle" x="3633.99" y="-174.18" font-family="Times,serif" font-size="14.00">1</text>
</g>
<!-- ric.func_80160FC4 -->
<g id="node19" class="node">
<title>ric.func_80160FC4</title>
<g id="a_node19"><a xlink:href="ric.func_80160FC4.svg" xlink:title="ric.func_80160FC4">
<ellipse fill="green" stroke="black" cx="3890.69" cy="-198" rx="98.58" ry="18"/>
<text text-anchor="middle" x="3890.69" y="-194.3" font-family="Times,serif" font-size="14.00">ric.func_80160FC4</text>
</a>
</g>
</g>
<!-- ric.func_80160FC4&#45;&gt;ric.RicSetSpeedX -->
<g id="edge18" class="edge">
<title>ric.func_80160FC4&#45;&gt;ric.RicSetSpeedX</title>
<path fill="none" stroke="black" d="M3820.55,-185.27C3808.28,-183.39 3795.63,-181.55 3783.69,-180 3216.45,-106.28 2531.64,-46.88 2286.51,-26.55"/>
<polygon fill="black" stroke="black" points="2286.47,-23.03 2276.22,-25.7 2285.9,-30.01 2286.47,-23.03"/>
<text text-anchor="middle" x="3815.55" y="-174.07" font-family="Times,serif" font-size="14.00">2</text>
</g>
</g>
</svg>
