<?xml version="1.0" encoding="UTF-8" standalone="no"?>
<!DOCTYPE svg PUBLIC "-//W3C//DTD SVG 1.1//EN"
 "http://www.w3.org/Graphics/SVG/1.1/DTD/svg11.dtd">
<!-- Generated by graphviz version 2.43.0 (0)
 -->
<!-- Title: ric.func_8015D9D4 Pages: 1 -->
<svg width="1575pt" height="404pt"
 viewBox="0.00 0.00 1575.14 404.00" xmlns="http://www.w3.org/2000/svg" xmlns:xlink="http://www.w3.org/1999/xlink">
<g id="graph0" class="graph" transform="scale(1 1) rotate(0) translate(4 400)">
<title>ric.func_8015D9D4</title>
<polygon fill="white" stroke="transparent" points="-4,4 -4,-400 1571.14,-400 1571.14,4 -4,4"/>
<!-- ric.func_8015D9D4 -->
<g id="node1" class="node">
<title>ric.func_8015D9D4</title>
<ellipse fill="green" stroke="black" cx="876.34" cy="-198" rx="100.18" ry="18"/>
<text text-anchor="middle" x="876.34" y="-194.3" font-family="Times,serif" font-size="14.00">ric.func_8015D9D4</text>
</g>
<!-- dra.PlaySfx -->
<g id="node2" class="node">
<title>dra.PlaySfx</title>
<g id="a_node2"><a xlink:href="dra.PlaySfx.svg" xlink:title="dra.PlaySfx">
<ellipse fill="green" stroke="black" cx="64.34" cy="-18" rx="64.19" ry="18"/>
<text text-anchor="middle" x="64.34" y="-14.3" font-family="Times,serif" font-size="14.00">dra.PlaySfx</text>
</a>
</g>
</g>
<!-- ric.func_8015D9D4&#45;&gt;dra.PlaySfx -->
<g id="edge1" class="edge">
<title>ric.func_8015D9D4&#45;&gt;dra.PlaySfx</title>
<path fill="none" stroke="black" d="M814.58,-183.77C687.75,-156.54 388.84,-92.1 138.34,-36 133.12,-34.83 127.69,-33.6 122.25,-32.37"/>
<polygon fill="black" stroke="black" points="123.02,-28.95 112.49,-30.14 121.46,-35.78 123.02,-28.95"/>
<text text-anchor="middle" x="107.49" y="-33.94" font-family="Times,serif" font-size="14.00">1</text>
</g>
<!-- ric.RicCheckMovement -->
<g id="node3" class="node">
<title>ric.RicCheckMovement</title>
<g id="a_node3"><a xlink:href="ric.RicCheckMovement.svg" xlink:title="ric.RicCheckMovement">
<ellipse fill="green" stroke="black" cx="265.34" cy="-18" rx="118.08" ry="18"/>
<text text-anchor="middle" x="265.34" y="-14.3" font-family="Times,serif" font-size="14.00">ric.RicCheckMovement</text>
</a>
</g>
</g>
<!-- ric.func_8015D9D4&#45;&gt;ric.RicCheckMovement -->
<g id="edge2" class="edge">
<title>ric.func_8015D9D4&#45;&gt;ric.RicCheckMovement</title>
<path fill="none" stroke="black" d="M826.08,-182.36C715.02,-150 448.96,-72.49 327.6,-37.14"/>
<polygon fill="black" stroke="black" points="328.29,-33.69 317.71,-34.26 326.33,-40.41 328.29,-33.69"/>
<text text-anchor="middle" x="312.71" y="-38.06" font-family="Times,serif" font-size="14.00">1</text>
</g>
<!-- ric.RicCreateEntFactoryFromEntity -->
<g id="node4" class="node">
<title>ric.RicCreateEntFactoryFromEntity</title>
<g id="a_node4"><a xlink:href="ric.RicCreateEntFactoryFromEntity.svg" xlink:title="ric.RicCreateEntFactoryFromEntity">
<ellipse fill="green" stroke="black" cx="578.34" cy="-18" rx="176.57" ry="18"/>
<text text-anchor="middle" x="578.34" y="-14.3" font-family="Times,serif" font-size="14.00">ric.RicCreateEntFactoryFromEntity</text>
</a>
</g>
</g>
<!-- ric.func_8015D9D4&#45;&gt;ric.RicCreateEntFactoryFromEntity -->
<g id="edge3" class="edge">
<title>ric.func_8015D9D4&#45;&gt;ric.RicCreateEntFactoryFromEntity</title>
<path fill="none" stroke="black" d="M848.84,-180.57C795.12,-148.48 676.19,-77.44 615.51,-41.2"/>
<polygon fill="black" stroke="black" points="617.03,-38.03 606.65,-35.91 613.44,-44.04 617.03,-38.03"/>
<text text-anchor="middle" x="601.65" y="-39.71" font-family="Times,serif" font-size="14.00">1</text>
</g>
<!-- ric.RicSetAnimation -->
<g id="node5" class="node">
<title>ric.RicSetAnimation</title>
<g id="a_node5"><a xlink:href="ric.RicSetAnimation.svg" xlink:title="ric.RicSetAnimation">
<ellipse fill="green" stroke="black" cx="876.34" cy="-18" rx="103.18" ry="18"/>
<text text-anchor="middle" x="876.34" y="-14.3" font-family="Times,serif" font-size="14.00">ric.RicSetAnimation</text>
</a>
</g>
</g>
<!-- ric.func_8015D9D4&#45;&gt;ric.RicSetAnimation -->
<g id="edge4" class="edge">
<title>ric.func_8015D9D4&#45;&gt;ric.RicSetAnimation</title>
<path fill="none" stroke="black" d="M876.34,-179.93C876.34,-148.97 876.34,-83.3 876.34,-46.13"/>
<polygon fill="black" stroke="black" points="879.84,-46.02 876.34,-36.02 872.84,-46.02 879.84,-46.02"/>
<text text-anchor="middle" x="871.34" y="-39.82" font-family="Times,serif" font-size="14.00">1</text>
</g>
<!-- ric.RicSetSpeedX -->
<g id="node6" class="node">
<title>ric.RicSetSpeedX</title>
<g id="a_node6"><a xlink:href="ric.RicSetSpeedX.svg" xlink:title="ric.RicSetSpeedX">
<ellipse fill="green" stroke="black" cx="1088.34" cy="-18" rx="90.98" ry="18"/>
<text text-anchor="middle" x="1088.34" y="-14.3" font-family="Times,serif" font-size="14.00">ric.RicSetSpeedX</text>
</a>
</g>
</g>
<!-- ric.func_8015D9D4&#45;&gt;ric.RicSetSpeedX -->
<g id="edge5" class="edge">
<title>ric.func_8015D9D4&#45;&gt;ric.RicSetSpeedX</title>
<path fill="none" stroke="black" d="M896.29,-180.25C934.34,-148.3 1017.38,-78.58 1060.74,-42.18"/>
<polygon fill="black" stroke="black" points="1063.2,-44.68 1068.61,-35.57 1058.7,-39.32 1063.2,-44.68"/>
<text text-anchor="middle" x="1063.61" y="-39.37" font-family="Times,serif" font-size="14.00">1</text>
</g>
<!-- ric.RicSetStep -->
<g id="node7" class="node">
<title>ric.RicSetStep</title>
<g id="a_node7"><a xlink:href="ric.RicSetStep.svg" xlink:title="ric.RicSetStep">
<ellipse fill="green" stroke="black" cx="1274.34" cy="-18" rx="77.19" ry="18"/>
<text text-anchor="middle" x="1274.34" y="-14.3" font-family="Times,serif" font-size="14.00">ric.RicSetStep</text>
</a>
</g>
</g>
<!-- ric.func_8015D9D4&#45;&gt;ric.RicSetStep -->
<g id="edge6" class="edge">
<title>ric.func_8015D9D4&#45;&gt;ric.RicSetStep</title>
<path fill="none" stroke="black" d="M912.01,-181.05C985.17,-148.33 1151.95,-73.74 1231.11,-38.34"/>
<polygon fill="black" stroke="black" points="1232.61,-41.5 1240.31,-34.22 1229.75,-35.11 1232.61,-41.5"/>
<text text-anchor="middle" x="1235.31" y="-38.02" font-family="Times,serif" font-size="14.00">1</text>
</g>
<!-- ric.func_8015CC28 -->
<g id="node8" class="node">
<title>ric.func_8015CC28</title>
<g id="a_node8"><a xlink:href="ric.func_8015CC28.svg" xlink:title="ric.func_8015CC28">
<ellipse fill="green" stroke="black" cx="1468.34" cy="-18" rx="98.58" ry="18"/>
<text text-anchor="middle" x="1468.34" y="-14.3" font-family="Times,serif" font-size="14.00">ric.func_8015CC28</text>
</a>
</g>
</g>
<!-- ric.func_8015D9D4&#45;&gt;ric.func_8015CC28 -->
<g id="edge7" class="edge">
<title>ric.func_8015D9D4&#45;&gt;ric.func_8015CC28</title>
<path fill="none" stroke="black" d="M925.29,-182.28C1033.5,-149.75 1292.68,-71.82 1409.49,-36.69"/>
<polygon fill="black" stroke="black" points="1410.77,-39.97 1419.34,-33.74 1408.75,-33.26 1410.77,-39.97"/>
<text text-anchor="middle" x="1414.34" y="-37.54" font-family="Times,serif" font-size="14.00">1</text>
</g>
<!-- ric.func_8015DBB0 -->
<g id="node9" class="node">
<title>ric.func_8015DBB0</title>
<g id="a_node9"><a xlink:href="ric.func_8015DBB0.svg" xlink:title="ric.func_8015DBB0">
<ellipse fill="green" stroke="black" cx="876.34" cy="-378" rx="100.98" ry="18"/>
<text text-anchor="middle" x="876.34" y="-374.3" font-family="Times,serif" font-size="14.00">ric.func_8015DBB0</text>
</a>
</g>
</g>
<!-- ric.func_8015DBB0&#45;&gt;ric.func_8015D9D4 -->
<g id="edge8" class="edge">
<title>ric.func_8015DBB0&#45;&gt;ric.func_8015D9D4</title>
<path fill="none" stroke="black" d="M876.34,-359.93C876.34,-328.97 876.34,-263.3 876.34,-226.13"/>
<polygon fill="black" stroke="black" points="879.84,-226.02 876.34,-216.02 872.84,-226.02 879.84,-226.02"/>
<text text-anchor="middle" x="871.34" y="-348.73" font-family="Times,serif" font-size="14.00">1</text>
</g>
</g>
</svg>
