<?xml version="1.0" encoding="UTF-8" standalone="no"?>
<!DOCTYPE svg PUBLIC "-//W3C//DTD SVG 1.1//EN"
 "http://www.w3.org/Graphics/SVG/1.1/DTD/svg11.dtd">
<!-- Generated by graphviz version 2.43.0 (0)
 -->
<!-- Title: ric.func_8015CE7C Pages: 1 -->
<svg width="1142pt" height="404pt"
 viewBox="0.00 0.00 1142.23 404.00" xmlns="http://www.w3.org/2000/svg" xmlns:xlink="http://www.w3.org/1999/xlink">
<g id="graph0" class="graph" transform="scale(1 1) rotate(0) translate(4 400)">
<title>ric.func_8015CE7C</title>
<polygon fill="white" stroke="transparent" points="-4,4 -4,-400 1138.23,-400 1138.23,4 -4,4"/>
<!-- ric.func_8015CE7C -->
<g id="node1" class="node">
<title>ric.func_8015CE7C</title>
<ellipse fill="green" stroke="black" cx="719.49" cy="-198" rx="100.18" ry="18"/>
<text text-anchor="middle" x="719.49" y="-194.3" font-family="Times,serif" font-size="14.00">ric.func_8015CE7C</text>
</g>
<!-- ric.CreateEntFactoryFromEntity -->
<g id="node2" class="node">
<title>ric.CreateEntFactoryFromEntity</title>
<g id="a_node2"><a xlink:href="ric.CreateEntFactoryFromEntity.svg" xlink:title="ric.CreateEntFactoryFromEntity">
<ellipse fill="green" stroke="black" cx="162.49" cy="-18" rx="162.47" ry="18"/>
<text text-anchor="middle" x="162.49" y="-14.3" font-family="Times,serif" font-size="14.00">ric.CreateEntFactoryFromEntity</text>
</a>
</g>
</g>
<!-- ric.func_8015CE7C&#45;&gt;ric.CreateEntFactoryFromEntity -->
<g id="edge1" class="edge">
<title>ric.func_8015CE7C&#45;&gt;ric.CreateEntFactoryFromEntity</title>
<path fill="none" stroke="black" d="M672.48,-181.98C571.66,-149.76 334.76,-74.05 222.94,-38.32"/>
<polygon fill="black" stroke="black" points="223.76,-34.91 213.16,-35.2 221.62,-41.57 223.76,-34.91"/>
<text text-anchor="middle" x="208.16" y="-39" font-family="Times,serif" font-size="14.00">1</text>
</g>
<!-- ric.SetPlayerStep -->
<g id="node3" class="node">
<title>ric.SetPlayerStep</title>
<g id="a_node3"><a xlink:href="ric.SetPlayerStep.svg" xlink:title="ric.SetPlayerStep">
<ellipse fill="green" stroke="black" cx="435.49" cy="-18" rx="92.88" ry="18"/>
<text text-anchor="middle" x="435.49" y="-14.3" font-family="Times,serif" font-size="14.00">ric.SetPlayerStep</text>
</a>
</g>
</g>
<!-- ric.func_8015CE7C&#45;&gt;ric.SetPlayerStep -->
<g id="edge2" class="edge">
<title>ric.func_8015CE7C&#45;&gt;ric.SetPlayerStep</title>
<path fill="none" stroke="black" d="M693.28,-180.57C641.92,-148.39 528.04,-77.01 470.38,-40.87"/>
<polygon fill="black" stroke="black" points="471.96,-37.73 461.63,-35.39 468.25,-43.66 471.96,-37.73"/>
<text text-anchor="middle" x="456.63" y="-39.19" font-family="Times,serif" font-size="14.00">1</text>
</g>
<!-- ric.SetSpeedX -->
<g id="node4" class="node">
<title>ric.SetSpeedX</title>
<g id="a_node4"><a xlink:href="ric.SetSpeedX.svg" xlink:title="ric.SetSpeedX">
<ellipse fill="green" stroke="black" cx="623.49" cy="-18" rx="76.89" ry="18"/>
<text text-anchor="middle" x="623.49" y="-14.3" font-family="Times,serif" font-size="14.00">ric.SetSpeedX</text>
</a>
</g>
</g>
<!-- ric.func_8015CE7C&#45;&gt;ric.SetSpeedX -->
<g id="edge3" class="edge">
<title>ric.func_8015CE7C&#45;&gt;ric.SetSpeedX</title>
<path fill="none" stroke="black" d="M710.28,-179.93C693.44,-148.7 657.55,-82.17 637.6,-45.18"/>
<polygon fill="black" stroke="black" points="640.49,-43.16 632.66,-36.02 634.33,-46.48 640.49,-43.16"/>
<text text-anchor="middle" x="627.66" y="-39.82" font-family="Times,serif" font-size="14.00">1</text>
</g>
<!-- ric.func_8015C920 -->
<g id="node5" class="node">
<title>ric.func_8015C920</title>
<g id="a_node5"><a xlink:href="ric.func_8015C920.svg" xlink:title="ric.func_8015C920">
<ellipse fill="green" stroke="black" cx="816.49" cy="-18" rx="98.28" ry="18"/>
<text text-anchor="middle" x="816.49" y="-14.3" font-family="Times,serif" font-size="14.00">ric.func_8015C920</text>
</a>
</g>
</g>
<!-- ric.func_8015CE7C&#45;&gt;ric.func_8015C920 -->
<g id="edge4" class="edge">
<title>ric.func_8015CE7C&#45;&gt;ric.func_8015C920</title>
<path fill="none" stroke="black" d="M728.79,-179.93C745.81,-148.7 782.06,-82.17 802.22,-45.18"/>
<polygon fill="black" stroke="black" points="805.5,-46.47 807.21,-36.02 799.35,-43.12 805.5,-46.47"/>
<text text-anchor="middle" x="802.21" y="-39.82" font-family="Times,serif" font-size="14.00">1</text>
</g>
<!-- ric.func_8015CDE0 -->
<g id="node6" class="node">
<title>ric.func_8015CDE0</title>
<g id="a_node6"><a xlink:href="ric.func_8015CDE0.svg" xlink:title="ric.func_8015CDE0">
<ellipse fill="green" stroke="black" cx="1033.49" cy="-18" rx="100.98" ry="18"/>
<text text-anchor="middle" x="1033.49" y="-14.3" font-family="Times,serif" font-size="14.00">ric.func_8015CDE0</text>
</a>
</g>
</g>
<!-- ric.func_8015CE7C&#45;&gt;ric.func_8015CDE0 -->
<g id="edge5" class="edge">
<title>ric.func_8015CE7C&#45;&gt;ric.func_8015CDE0</title>
<path fill="none" stroke="black" d="M744.61,-180.41C798.7,-147.85 925.95,-75.64 992.1,-39.89"/>
<polygon fill="black" stroke="black" points="993.87,-42.91 1001.02,-35.09 990.55,-36.75 993.87,-42.91"/>
<text text-anchor="middle" x="996.02" y="-38.89" font-family="Times,serif" font-size="14.00">1</text>
</g>
<!-- ric.func_8015CDE0&#45;&gt;ric.func_8015CE7C -->
<g id="edge6" class="edge">
<title>ric.func_8015CDE0&#45;&gt;ric.func_8015CE7C</title>
<path fill="none" stroke="black" d="M1008.57,-35.46C954.61,-67.95 827.16,-140.28 760.91,-176.09"/>
<polygon fill="black" stroke="black" points="759.13,-173.07 751.99,-180.89 762.45,-179.24 759.13,-173.07"/>
<text text-anchor="middle" x="1013.57" y="-39.26" font-family="Times,serif" font-size="14.00">1</text>
</g>
<!-- ric.func_8015DBB0 -->
<g id="node7" class="node">
<title>ric.func_8015DBB0</title>
<g id="a_node7"><a xlink:href="ric.func_8015DBB0.svg" xlink:title="ric.func_8015DBB0">
<ellipse fill="green" stroke="black" cx="719.49" cy="-378" rx="100.98" ry="18"/>
<text text-anchor="middle" x="719.49" y="-374.3" font-family="Times,serif" font-size="14.00">ric.func_8015DBB0</text>
</a>
</g>
</g>
<!-- ric.func_8015DBB0&#45;&gt;ric.func_8015CE7C -->
<g id="edge7" class="edge">
<title>ric.func_8015DBB0&#45;&gt;ric.func_8015CE7C</title>
<path fill="none" stroke="black" d="M719.49,-359.93C719.49,-328.97 719.49,-263.3 719.49,-226.13"/>
<polygon fill="black" stroke="black" points="722.99,-226.02 719.49,-216.02 715.99,-226.02 722.99,-226.02"/>
<text text-anchor="middle" x="714.49" y="-348.73" font-family="Times,serif" font-size="14.00">1</text>
</g>
</g>
</svg>
