<?xml version="1.0" encoding="UTF-8" standalone="no"?>
<!DOCTYPE svg PUBLIC "-//W3C//DTD SVG 1.1//EN"
 "http://www.w3.org/Graphics/SVG/1.1/DTD/svg11.dtd">
<!-- Generated by graphviz version 2.43.0 (0)
 -->
<!-- Title: ric.RicHandleThrowDaggers Pages: 1 -->
<svg width="822pt" height="404pt"
 viewBox="0.00 0.00 822.08 404.00" xmlns="http://www.w3.org/2000/svg" xmlns:xlink="http://www.w3.org/1999/xlink">
<g id="graph0" class="graph" transform="scale(1 1) rotate(0) translate(4 400)">
<title>ric.RicHandleThrowDaggers</title>
<polygon fill="white" stroke="transparent" points="-4,4 -4,-400 818.08,-400 818.08,4 -4,4"/>
<!-- ric.RicHandleThrowDaggers -->
<g id="node1" class="node">
<title>ric.RicHandleThrowDaggers</title>
<ellipse fill="green" stroke="black" cx="424.29" cy="-198" rx="141.88" ry="18"/>
<text text-anchor="middle" x="424.29" y="-194.3" font-family="Times,serif" font-size="14.00">ric.RicHandleThrowDaggers</text>
</g>
<!-- ric.RicCheckMovement -->
<g id="node2" class="node">
<title>ric.RicCheckMovement</title>
<g id="a_node2"><a xlink:href="ric.RicCheckMovement.svg" xlink:title="ric.RicCheckMovement">
<ellipse fill="green" stroke="black" cx="118.29" cy="-18" rx="118.08" ry="18"/>
<text text-anchor="middle" x="118.29" y="-14.3" font-family="Times,serif" font-size="14.00">ric.RicCheckMovement</text>
</a>
</g>
</g>
<!-- ric.RicHandleThrowDaggers&#45;&gt;ric.RicCheckMovement -->
<g id="edge1" class="edge">
<title>ric.RicHandleThrowDaggers&#45;&gt;ric.RicCheckMovement</title>
<path fill="none" stroke="black" d="M395.5,-180.25C339.77,-147.84 217.21,-76.54 155.44,-40.61"/>
<polygon fill="black" stroke="black" points="157.18,-37.57 146.78,-35.57 153.66,-43.63 157.18,-37.57"/>
<text text-anchor="middle" x="141.78" y="-39.37" font-family="Times,serif" font-size="14.00">1</text>
</g>
<!-- ric.RicSetJump -->
<g id="node3" class="node">
<title>ric.RicSetJump</title>
<g id="a_node3"><a xlink:href="ric.RicSetJump.svg" xlink:title="ric.RicSetJump">
<ellipse fill="green" stroke="black" cx="334.29" cy="-18" rx="79.89" ry="18"/>
<text text-anchor="middle" x="334.29" y="-14.3" font-family="Times,serif" font-size="14.00">ric.RicSetJump</text>
</a>
</g>
</g>
<!-- ric.RicHandleThrowDaggers&#45;&gt;ric.RicSetJump -->
<g id="edge2" class="edge">
<title>ric.RicHandleThrowDaggers&#45;&gt;ric.RicSetJump</title>
<path fill="none" stroke="black" d="M415.66,-179.93C399.87,-148.7 366.23,-82.17 347.53,-45.18"/>
<polygon fill="black" stroke="black" points="350.53,-43.36 342.89,-36.02 344.28,-46.52 350.53,-43.36"/>
<text text-anchor="middle" x="337.89" y="-39.82" font-family="Times,serif" font-size="14.00">1</text>
</g>
<!-- ric.RicSetStand -->
<g id="node4" class="node">
<title>ric.RicSetStand</title>
<g id="a_node4"><a xlink:href="ric.RicSetStand.svg" xlink:title="ric.RicSetStand">
<ellipse fill="green" stroke="black" cx="515.29" cy="-18" rx="83.39" ry="18"/>
<text text-anchor="middle" x="515.29" y="-14.3" font-family="Times,serif" font-size="14.00">ric.RicSetStand</text>
</a>
</g>
</g>
<!-- ric.RicHandleThrowDaggers&#45;&gt;ric.RicSetStand -->
<g id="edge3" class="edge">
<title>ric.RicHandleThrowDaggers&#45;&gt;ric.RicSetStand</title>
<path fill="none" stroke="black" d="M433.01,-179.93C448.98,-148.7 483,-82.17 501.91,-45.18"/>
<polygon fill="black" stroke="black" points="505.15,-46.51 506.59,-36.02 498.92,-43.33 505.15,-46.51"/>
<text text-anchor="middle" x="501.59" y="-39.82" font-family="Times,serif" font-size="14.00">1</text>
</g>
<!-- ric.func_8015CF08 -->
<g id="node5" class="node">
<title>ric.func_8015CF08</title>
<g id="a_node5"><a xlink:href="ric.func_8015CF08.svg" xlink:title="ric.func_8015CF08">
<ellipse fill="green" stroke="black" cx="715.29" cy="-18" rx="98.58" ry="18"/>
<text text-anchor="middle" x="715.29" y="-14.3" font-family="Times,serif" font-size="14.00">ric.func_8015CF08</text>
</a>
</g>
</g>
<!-- ric.RicHandleThrowDaggers&#45;&gt;ric.func_8015CF08 -->
<g id="edge4" class="edge">
<title>ric.RicHandleThrowDaggers&#45;&gt;ric.func_8015CF08</title>
<path fill="none" stroke="black" d="M451.67,-180.25C504.55,-147.9 620.74,-76.84 679.6,-40.83"/>
<polygon fill="black" stroke="black" points="681.49,-43.78 688.2,-35.57 677.84,-37.8 681.49,-43.78"/>
<text text-anchor="middle" x="683.2" y="-39.37" font-family="Times,serif" font-size="14.00">1</text>
</g>
<!-- ric.RicMain -->
<g id="node6" class="node">
<title>ric.RicMain</title>
<g id="a_node6"><a xlink:href="ric.RicMain.svg" xlink:title="ric.RicMain">
<ellipse fill="green" stroke="black" cx="424.29" cy="-378" rx="63.89" ry="18"/>
<text text-anchor="middle" x="424.29" y="-374.3" font-family="Times,serif" font-size="14.00">ric.RicMain</text>
</a>
</g>
</g>
<!-- ric.RicMain&#45;&gt;ric.RicHandleThrowDaggers -->
<g id="edge5" class="edge">
<title>ric.RicMain&#45;&gt;ric.RicHandleThrowDaggers</title>
<path fill="none" stroke="black" d="M424.29,-359.93C424.29,-328.97 424.29,-263.3 424.29,-226.13"/>
<polygon fill="black" stroke="black" points="427.79,-226.02 424.29,-216.02 420.79,-226.02 427.79,-226.02"/>
<text text-anchor="middle" x="419.29" y="-348.73" font-family="Times,serif" font-size="14.00">1</text>
</g>
</g>
</svg>
