<?xml version="1.0" encoding="UTF-8" standalone="no"?>
<!DOCTYPE svg PUBLIC "-//W3C//DTD SVG 1.1//EN"
 "http://www.w3.org/Graphics/SVG/1.1/DTD/svg11.dtd">
<!-- Generated by graphviz version 2.43.0 (0)
 -->
<!-- Title: ric.func_8015C93C Pages: 1 -->
<svg width="2626pt" height="224pt"
 viewBox="0.00 0.00 2626.08 224.00" xmlns="http://www.w3.org/2000/svg" xmlns:xlink="http://www.w3.org/1999/xlink">
<g id="graph0" class="graph" transform="scale(1 1) rotate(0) translate(4 220)">
<title>ric.func_8015C93C</title>
<polygon fill="white" stroke="transparent" points="-4,4 -4,-220 2622.08,-220 2622.08,4 -4,4"/>
<!-- ric.func_8015C93C -->
<g id="node1" class="node">
<title>ric.func_8015C93C</title>
<ellipse fill="green" stroke="black" cx="1340.29" cy="-18" rx="98.58" ry="18"/>
<text text-anchor="middle" x="1340.29" y="-14.3" font-family="Times,serif" font-size="14.00">ric.func_8015C93C</text>
</g>
<!-- ric.RichterHandleDamage -->
<g id="node2" class="node">
<title>ric.RichterHandleDamage</title>
<g id="a_node2"><a xlink:href="ric.RichterHandleDamage.svg" xlink:title="ric.RichterHandleDamage">
<ellipse fill="green" stroke="black" cx="131.29" cy="-198" rx="131.08" ry="18"/>
<text text-anchor="middle" x="131.29" y="-194.3" font-family="Times,serif" font-size="14.00">ric.RichterHandleDamage</text>
</a>
</g>
</g>
<!-- ric.RichterHandleDamage&#45;&gt;ric.func_8015C93C -->
<g id="edge1" class="edge">
<title>ric.RichterHandleDamage&#45;&gt;ric.func_8015C93C</title>
<path fill="none" stroke="black" d="M217.27,-184.34C440.28,-151.51 1035.28,-63.91 1256.19,-31.38"/>
<polygon fill="black" stroke="black" points="1256.72,-34.84 1266.11,-29.92 1255.7,-27.92 1256.72,-34.84"/>
<text text-anchor="middle" x="212.27" y="-173.14" font-family="Times,serif" font-size="14.00">3</text>
</g>
<!-- ric.func_80158BFC -->
<g id="node3" class="node">
<title>ric.func_80158BFC</title>
<g id="a_node3"><a xlink:href="ric.func_80158BFC.svg" xlink:title="ric.func_80158BFC">
<ellipse fill="green" stroke="black" cx="380.29" cy="-198" rx="99.38" ry="18"/>
<text text-anchor="middle" x="380.29" y="-194.3" font-family="Times,serif" font-size="14.00">ric.func_80158BFC</text>
</a>
</g>
</g>
<!-- ric.func_80158BFC&#45;&gt;ric.func_8015C93C -->
<g id="edge2" class="edge">
<title>ric.func_80158BFC&#45;&gt;ric.func_8015C93C</title>
<path fill="none" stroke="black" d="M447.03,-184.62C619.7,-152.61 1080.36,-67.2 1263.58,-33.22"/>
<polygon fill="black" stroke="black" points="1264.47,-36.62 1273.67,-31.35 1263.2,-29.73 1264.47,-36.62"/>
<text text-anchor="middle" x="442.03" y="-173.42" font-family="Times,serif" font-size="14.00">1</text>
</g>
<!-- ric.func_80158F38 -->
<g id="node4" class="node">
<title>ric.func_80158F38</title>
<g id="a_node4"><a xlink:href="ric.func_80158F38.svg" xlink:title="ric.func_80158F38">
<ellipse fill="green" stroke="black" cx="595.29" cy="-198" rx="97.48" ry="18"/>
<text text-anchor="middle" x="595.29" y="-194.3" font-family="Times,serif" font-size="14.00">ric.func_80158F38</text>
</a>
</g>
</g>
<!-- ric.func_80158F38&#45;&gt;ric.func_8015C93C -->
<g id="edge3" class="edge">
<title>ric.func_80158F38&#45;&gt;ric.func_8015C93C</title>
<path fill="none" stroke="black" d="M652.51,-183.33C787.93,-150.97 1127.58,-69.82 1272.76,-35.13"/>
<polygon fill="black" stroke="black" points="1273.96,-38.45 1282.87,-32.72 1272.33,-31.64 1273.96,-38.45"/>
<text text-anchor="middle" x="647.51" y="-172.13" font-family="Times,serif" font-size="14.00">1</text>
</g>
<!-- ric.func_80158FA4 -->
<g id="node5" class="node">
<title>ric.func_80158FA4</title>
<g id="a_node5"><a xlink:href="ric.func_80158FA4.svg" xlink:title="ric.func_80158FA4">
<ellipse fill="green" stroke="black" cx="807.29" cy="-198" rx="96.68" ry="18"/>
<text text-anchor="middle" x="807.29" y="-194.3" font-family="Times,serif" font-size="14.00">ric.func_80158FA4</text>
</a>
</g>
</g>
<!-- ric.func_80158FA4&#45;&gt;ric.func_8015C93C -->
<g id="edge4" class="edge">
<title>ric.func_80158FA4&#45;&gt;ric.func_8015C93C</title>
<path fill="none" stroke="black" d="M852.27,-181.98C949.74,-149.43 1180.14,-72.48 1285.72,-37.22"/>
<polygon fill="black" stroke="black" points="1286.86,-40.53 1295.24,-34.05 1284.64,-33.89 1286.86,-40.53"/>
<text text-anchor="middle" x="847.27" y="-170.78" font-family="Times,serif" font-size="14.00">1</text>
</g>
<!-- ric.func_801590A0 -->
<g id="node6" class="node">
<title>ric.func_801590A0</title>
<g id="a_node6"><a xlink:href="ric.func_801590A0.svg" xlink:title="ric.func_801590A0">
<ellipse fill="green" stroke="black" cx="1019.29" cy="-198" rx="97.48" ry="18"/>
<text text-anchor="middle" x="1019.29" y="-194.3" font-family="Times,serif" font-size="14.00">ric.func_801590A0</text>
</a>
</g>
</g>
<!-- ric.func_801590A0&#45;&gt;ric.func_8015C93C -->
<g id="edge5" class="edge">
<title>ric.func_801590A0&#45;&gt;ric.func_8015C93C</title>
<path fill="none" stroke="black" d="M1048.63,-180.73C1106.75,-148.5 1236.51,-76.55 1301.56,-40.48"/>
<polygon fill="black" stroke="black" points="1303.62,-43.33 1310.67,-35.42 1300.23,-37.21 1303.62,-43.33"/>
<text text-anchor="middle" x="1043.63" y="-169.53" font-family="Times,serif" font-size="14.00">1</text>
</g>
<!-- ric.func_801595D8 -->
<g id="node7" class="node">
<title>ric.func_801595D8</title>
<g id="a_node7"><a xlink:href="ric.func_801595D8.svg" xlink:title="ric.func_801595D8">
<ellipse fill="green" stroke="black" cx="1233.29" cy="-198" rx="98.58" ry="18"/>
<text text-anchor="middle" x="1233.29" y="-194.3" font-family="Times,serif" font-size="14.00">ric.func_801595D8</text>
</a>
</g>
</g>
<!-- ric.func_801595D8&#45;&gt;ric.func_8015C93C -->
<g id="edge6" class="edge">
<title>ric.func_801595D8&#45;&gt;ric.func_8015C93C</title>
<path fill="none" stroke="black" d="M1243.55,-179.93C1262.4,-148.57 1302.66,-81.6 1324.83,-44.71"/>
<polygon fill="black" stroke="black" points="1327.91,-46.39 1330.06,-36.02 1321.91,-42.78 1327.91,-46.39"/>
<text text-anchor="middle" x="1238.55" y="-168.73" font-family="Times,serif" font-size="14.00">1</text>
</g>
<!-- ric.func_80159670 -->
<g id="node8" class="node">
<title>ric.func_80159670</title>
<g id="a_node8"><a xlink:href="ric.func_80159670.svg" xlink:title="ric.func_80159670">
<ellipse fill="green" stroke="black" cx="1447.29" cy="-198" rx="96.68" ry="18"/>
<text text-anchor="middle" x="1447.29" y="-194.3" font-family="Times,serif" font-size="14.00">ric.func_80159670</text>
</a>
</g>
</g>
<!-- ric.func_80159670&#45;&gt;ric.func_8015C93C -->
<g id="edge7" class="edge">
<title>ric.func_80159670&#45;&gt;ric.func_8015C93C</title>
<path fill="none" stroke="black" d="M1437.03,-179.93C1418.17,-148.57 1377.92,-81.6 1355.74,-44.71"/>
<polygon fill="black" stroke="black" points="1358.67,-42.78 1350.52,-36.02 1352.67,-46.39 1358.67,-42.78"/>
<text text-anchor="middle" x="1432.03" y="-168.73" font-family="Times,serif" font-size="14.00">1</text>
</g>
<!-- ric.func_8015B348 -->
<g id="node9" class="node">
<title>ric.func_8015B348</title>
<g id="a_node9"><a xlink:href="ric.func_8015B348.svg" xlink:title="ric.func_8015B348">
<ellipse fill="green" stroke="black" cx="1660.29" cy="-198" rx="98.28" ry="18"/>
<text text-anchor="middle" x="1660.29" y="-194.3" font-family="Times,serif" font-size="14.00">ric.func_8015B348</text>
</a>
</g>
</g>
<!-- ric.func_8015B348&#45;&gt;ric.func_8015C93C -->
<g id="edge8" class="edge">
<title>ric.func_8015B348&#45;&gt;ric.func_8015C93C</title>
<path fill="none" stroke="black" d="M1631.04,-180.73C1573.1,-148.5 1443.74,-76.55 1378.9,-40.48"/>
<polygon fill="black" stroke="black" points="1380.25,-37.23 1369.81,-35.42 1376.85,-43.34 1380.25,-37.23"/>
<text text-anchor="middle" x="1626.04" y="-169.53" font-family="Times,serif" font-size="14.00">1</text>
</g>
<!-- ric.func_8015B898 -->
<g id="node10" class="node">
<title>ric.func_8015B898</title>
<g id="a_node10"><a xlink:href="ric.func_8015B898.svg" xlink:title="ric.func_8015B898">
<ellipse fill="green" stroke="black" cx="1874.29" cy="-198" rx="98.28" ry="18"/>
<text text-anchor="middle" x="1874.29" y="-194.3" font-family="Times,serif" font-size="14.00">ric.func_8015B898</text>
</a>
</g>
</g>
<!-- ric.func_8015B898&#45;&gt;ric.func_8015C93C -->
<g id="edge9" class="edge">
<title>ric.func_8015B898&#45;&gt;ric.func_8015C93C</title>
<path fill="none" stroke="black" d="M1829.22,-181.98C1731.56,-149.43 1500.73,-72.48 1394.96,-37.22"/>
<polygon fill="black" stroke="black" points="1396.02,-33.89 1385.42,-34.05 1393.8,-40.53 1396.02,-33.89"/>
<text text-anchor="middle" x="1824.22" y="-170.78" font-family="Times,serif" font-size="14.00">1</text>
</g>
<!-- ric.func_8015BE84 -->
<g id="node11" class="node">
<title>ric.func_8015BE84</title>
<g id="a_node11"><a xlink:href="ric.func_8015BE84.svg" xlink:title="ric.func_8015BE84">
<ellipse fill="green" stroke="black" cx="2089.29" cy="-198" rx="98.58" ry="18"/>
<text text-anchor="middle" x="2089.29" y="-194.3" font-family="Times,serif" font-size="14.00">ric.func_8015BE84</text>
</a>
</g>
</g>
<!-- ric.func_8015BE84&#45;&gt;ric.func_8015C93C -->
<g id="edge10" class="edge">
<title>ric.func_8015BE84&#45;&gt;ric.func_8015C93C</title>
<path fill="none" stroke="black" d="M2031.76,-183.33C1895.52,-150.95 1553.72,-69.72 1407.91,-35.07"/>
<polygon fill="black" stroke="black" points="1408.29,-31.56 1397.76,-32.66 1406.68,-38.37 1408.29,-31.56"/>
<text text-anchor="middle" x="2026.76" y="-172.13" font-family="Times,serif" font-size="14.00">3</text>
</g>
<!-- ric.func_8015C178 -->
<g id="node12" class="node">
<title>ric.func_8015C178</title>
<g id="a_node12"><a xlink:href="ric.func_8015C178.svg" xlink:title="ric.func_8015C178">
<ellipse fill="green" stroke="black" cx="2304.29" cy="-198" rx="98.28" ry="18"/>
<text text-anchor="middle" x="2304.29" y="-194.3" font-family="Times,serif" font-size="14.00">ric.func_8015C178</text>
</a>
</g>
</g>
<!-- ric.func_8015C178&#45;&gt;ric.func_8015C93C -->
<g id="edge11" class="edge">
<title>ric.func_8015C178&#45;&gt;ric.func_8015C93C</title>
<path fill="none" stroke="black" d="M2237.65,-184.7C2064.4,-152.7 1600.56,-67.06 1416.79,-33.13"/>
<polygon fill="black" stroke="black" points="1417.41,-29.68 1406.94,-31.31 1416.14,-36.56 1417.41,-29.68"/>
<text text-anchor="middle" x="2232.65" y="-173.5" font-family="Times,serif" font-size="14.00">1</text>
</g>
<!-- ric.func_8015C2A8 -->
<g id="node13" class="node">
<title>ric.func_8015C2A8</title>
<g id="a_node13"><a xlink:href="ric.func_8015C2A8.svg" xlink:title="ric.func_8015C2A8">
<ellipse fill="green" stroke="black" cx="2519.29" cy="-198" rx="98.58" ry="18"/>
<text text-anchor="middle" x="2519.29" y="-194.3" font-family="Times,serif" font-size="14.00">ric.func_8015C2A8</text>
</a>
</g>
</g>
<!-- ric.func_8015C2A8&#45;&gt;ric.func_8015C93C -->
<g id="edge12" class="edge">
<title>ric.func_8015C2A8&#45;&gt;ric.func_8015C93C</title>
<path fill="none" stroke="black" d="M2447.26,-185.59C2435.25,-183.71 2422.92,-181.79 2411.29,-180 2043.77,-123.45 1604.94,-58.19 1424.29,-31.43"/>
<polygon fill="black" stroke="black" points="1424.73,-27.95 1414.33,-29.95 1423.71,-34.88 1424.73,-27.95"/>
<text text-anchor="middle" x="2442.26" y="-174.39" font-family="Times,serif" font-size="14.00">1</text>
</g>
</g>
</svg>
