<?xml version="1.0" encoding="UTF-8" standalone="no"?>
<!DOCTYPE svg PUBLIC "-//W3C//DTD SVG 1.1//EN"
 "http://www.w3.org/Graphics/SVG/1.1/DTD/svg11.dtd">
<!-- Generated by graphviz version 2.43.0 (0)
 -->
<!-- Title: ric.func_8015A9B0 Pages: 1 -->
<svg width="1874pt" height="404pt"
 viewBox="0.00 0.00 1873.89 404.00" xmlns="http://www.w3.org/2000/svg" xmlns:xlink="http://www.w3.org/1999/xlink">
<g id="graph0" class="graph" transform="scale(1 1) rotate(0) translate(4 400)">
<title>ric.func_8015A9B0</title>
<polygon fill="white" stroke="transparent" points="-4,4 -4,-400 1869.89,-400 1869.89,4 -4,4"/>
<!-- ric.func_8015A9B0 -->
<g id="node1" class="node">
<title>ric.func_8015A9B0</title>
<ellipse fill="green" stroke="black" cx="906.74" cy="-198" rx="98.58" ry="18"/>
<text text-anchor="middle" x="906.74" y="-194.3" font-family="Times,serif" font-size="14.00">ric.func_8015A9B0</text>
</g>
<!-- LoadImage -->
<g id="node2" class="node">
<title>LoadImage</title>
<g id="a_node2"><a xlink:href="LoadImage.svg" xlink:title="LoadImage">
<ellipse fill="lightblue" stroke="black" cx="61.74" cy="-18" rx="61.99" ry="18"/>
<text text-anchor="middle" x="61.74" y="-14.3" font-family="Times,serif" font-size="14.00">LoadImage</text>
</a>
</g>
</g>
<!-- ric.func_8015A9B0&#45;&gt;LoadImage -->
<g id="edge1" class="edge">
<title>ric.func_8015A9B0&#45;&gt;LoadImage</title>
<path fill="none" stroke="black" d="M842.39,-184.29C709.51,-157.9 395.27,-94.72 132.74,-36 127.77,-34.89 122.61,-33.7 117.43,-32.5"/>
<polygon fill="black" stroke="black" points="118.07,-29.05 107.53,-30.18 116.46,-35.87 118.07,-29.05"/>
<text text-anchor="middle" x="102.53" y="-33.98" font-family="Times,serif" font-size="14.00">1</text>
</g>
<!-- StoreImage -->
<g id="node3" class="node">
<title>StoreImage</title>
<g id="a_node3"><a xlink:href="StoreImage.svg" xlink:title="StoreImage">
<ellipse fill="lightblue" stroke="black" cx="206.74" cy="-18" rx="64.99" ry="18"/>
<text text-anchor="middle" x="206.74" y="-14.3" font-family="Times,serif" font-size="14.00">StoreImage</text>
</a>
</g>
</g>
<!-- ric.func_8015A9B0&#45;&gt;StoreImage -->
<g id="edge2" class="edge">
<title>ric.func_8015A9B0&#45;&gt;StoreImage</title>
<path fill="none" stroke="black" d="M851.82,-183.03C721.46,-149.88 394.5,-66.74 262.91,-33.28"/>
<polygon fill="black" stroke="black" points="263.58,-29.84 253.03,-30.77 261.86,-36.63 263.58,-29.84"/>
<text text-anchor="middle" x="248.03" y="-34.57" font-family="Times,serif" font-size="14.00">1</text>
</g>
<!-- dra.PlaySfx -->
<g id="node4" class="node">
<title>dra.PlaySfx</title>
<g id="a_node4"><a xlink:href="dra.PlaySfx.svg" xlink:title="dra.PlaySfx">
<ellipse fill="green" stroke="black" cx="353.74" cy="-18" rx="64.19" ry="18"/>
<text text-anchor="middle" x="353.74" y="-14.3" font-family="Times,serif" font-size="14.00">dra.PlaySfx</text>
</a>
</g>
</g>
<!-- ric.func_8015A9B0&#45;&gt;dra.PlaySfx -->
<g id="edge3" class="edge">
<title>ric.func_8015A9B0&#45;&gt;dra.PlaySfx</title>
<path fill="none" stroke="black" d="M860.07,-181.98C756.92,-148.78 510.29,-69.39 403.95,-35.16"/>
<polygon fill="black" stroke="black" points="405,-31.82 394.41,-32.09 402.86,-38.49 405,-31.82"/>
<text text-anchor="middle" x="389.41" y="-35.89" font-family="Times,serif" font-size="14.00">1</text>
</g>
<!-- ric.RicCreateEntFactoryFromEntity -->
<g id="node5" class="node">
<title>ric.RicCreateEntFactoryFromEntity</title>
<g id="a_node5"><a xlink:href="ric.RicCreateEntFactoryFromEntity.svg" xlink:title="ric.RicCreateEntFactoryFromEntity">
<ellipse fill="green" stroke="black" cx="612.74" cy="-18" rx="176.57" ry="18"/>
<text text-anchor="middle" x="612.74" y="-14.3" font-family="Times,serif" font-size="14.00">ric.RicCreateEntFactoryFromEntity</text>
</a>
</g>
</g>
<!-- ric.func_8015A9B0&#45;&gt;ric.RicCreateEntFactoryFromEntity -->
<g id="edge4" class="edge">
<title>ric.func_8015A9B0&#45;&gt;ric.RicCreateEntFactoryFromEntity</title>
<path fill="none" stroke="black" d="M879.61,-180.57C826.61,-148.48 709.28,-77.44 649.42,-41.2"/>
<polygon fill="black" stroke="black" points="651.04,-38.09 640.67,-35.91 647.41,-44.08 651.04,-38.09"/>
<text text-anchor="middle" x="631.17" y="-39.71" font-family="Times,serif" font-size="14.00">10</text>
</g>
<!-- ric.func_80159BC8 -->
<g id="node6" class="node">
<title>ric.func_80159BC8</title>
<g id="a_node6"><a xlink:href="ric.func_80159BC8.svg" xlink:title="ric.func_80159BC8">
<ellipse fill="green" stroke="black" cx="906.74" cy="-18" rx="98.58" ry="18"/>
<text text-anchor="middle" x="906.74" y="-14.3" font-family="Times,serif" font-size="14.00">ric.func_80159BC8</text>
</a>
</g>
</g>
<!-- ric.func_8015A9B0&#45;&gt;ric.func_80159BC8 -->
<g id="edge5" class="edge">
<title>ric.func_8015A9B0&#45;&gt;ric.func_80159BC8</title>
<path fill="none" stroke="black" d="M906.74,-179.93C906.74,-148.97 906.74,-83.3 906.74,-46.13"/>
<polygon fill="black" stroke="black" points="910.24,-46.02 906.74,-36.02 903.24,-46.02 910.24,-46.02"/>
<text text-anchor="middle" x="901.74" y="-39.82" font-family="Times,serif" font-size="14.00">1</text>
</g>
<!-- ric.func_80159C04 -->
<g id="node7" class="node">
<title>ric.func_80159C04</title>
<g id="a_node7"><a xlink:href="ric.func_80159C04.svg" xlink:title="ric.func_80159C04">
<ellipse fill="green" stroke="black" cx="1121.74" cy="-18" rx="98.28" ry="18"/>
<text text-anchor="middle" x="1121.74" y="-14.3" font-family="Times,serif" font-size="14.00">ric.func_80159C04</text>
</a>
</g>
</g>
<!-- ric.func_8015A9B0&#45;&gt;ric.func_80159C04 -->
<g id="edge6" class="edge">
<title>ric.func_8015A9B0&#45;&gt;ric.func_80159C04</title>
<path fill="none" stroke="black" d="M926.97,-180.25C965.55,-148.32 1049.7,-78.65 1093.69,-42.23"/>
<polygon fill="black" stroke="black" points="1095.94,-44.9 1101.41,-35.83 1091.48,-39.51 1095.94,-44.9"/>
<text text-anchor="middle" x="1096.41" y="-39.63" font-family="Times,serif" font-size="14.00">1</text>
</g>
<!-- ric.func_8015C920 -->
<g id="node8" class="node">
<title>ric.func_8015C920</title>
<g id="a_node8"><a xlink:href="ric.func_8015C920.svg" xlink:title="ric.func_8015C920">
<ellipse fill="green" stroke="black" cx="1335.74" cy="-18" rx="98.28" ry="18"/>
<text text-anchor="middle" x="1335.74" y="-14.3" font-family="Times,serif" font-size="14.00">ric.func_8015C920</text>
</a>
</g>
</g>
<!-- ric.func_8015A9B0&#45;&gt;ric.func_8015C920 -->
<g id="edge7" class="edge">
<title>ric.func_8015A9B0&#45;&gt;ric.func_8015C920</title>
<path fill="none" stroke="black" d="M944.44,-181.36C1022.7,-148.89 1202.63,-74.23 1288.49,-38.61"/>
<polygon fill="black" stroke="black" points="1290.09,-41.73 1297.98,-34.67 1287.4,-35.27 1290.09,-41.73"/>
<text text-anchor="middle" x="1292.98" y="-38.47" font-family="Times,serif" font-size="14.00">1</text>
</g>
<!-- ric.func_8015CAAC -->
<g id="node9" class="node">
<title>ric.func_8015CAAC</title>
<g id="a_node9"><a xlink:href="ric.func_8015CAAC.svg" xlink:title="ric.func_8015CAAC">
<ellipse fill="green" stroke="black" cx="1551.74" cy="-18" rx="100.18" ry="18"/>
<text text-anchor="middle" x="1551.74" y="-14.3" font-family="Times,serif" font-size="14.00">ric.func_8015CAAC</text>
</a>
</g>
</g>
<!-- ric.func_8015A9B0&#45;&gt;ric.func_8015CAAC -->
<g id="edge8" class="edge">
<title>ric.func_8015A9B0&#45;&gt;ric.func_8015CAAC</title>
<path fill="none" stroke="black" d="M958.71,-182.66C1076.34,-150.2 1362.61,-71.2 1489.46,-36.19"/>
<polygon fill="black" stroke="black" points="1490.7,-39.48 1499.41,-33.44 1488.84,-32.73 1490.7,-39.48"/>
<text text-anchor="middle" x="1494.41" y="-37.24" font-family="Times,serif" font-size="14.00">1</text>
</g>
<!-- ric.func_8015FA5C -->
<g id="node10" class="node">
<title>ric.func_8015FA5C</title>
<g id="a_node10"><a xlink:href="ric.func_8015FA5C.svg" xlink:title="ric.func_8015FA5C">
<ellipse fill="green" stroke="black" cx="1767.74" cy="-18" rx="98.28" ry="18"/>
<text text-anchor="middle" x="1767.74" y="-14.3" font-family="Times,serif" font-size="14.00">ric.func_8015FA5C</text>
</a>
</g>
</g>
<!-- ric.func_8015A9B0&#45;&gt;ric.func_8015FA5C -->
<g id="edge9" class="edge">
<title>ric.func_8015A9B0&#45;&gt;ric.func_8015FA5C</title>
<path fill="none" stroke="black" d="M969.36,-184.06C1125.14,-151.85 1529.53,-68.25 1695.27,-33.98"/>
<polygon fill="black" stroke="black" points="1696.28,-37.35 1705.36,-31.9 1694.86,-30.49 1696.28,-37.35"/>
<text text-anchor="middle" x="1700.36" y="-35.7" font-family="Times,serif" font-size="14.00">4</text>
</g>
<!-- ric.RichterHandleDamage -->
<g id="node11" class="node">
<title>ric.RichterHandleDamage</title>
<g id="a_node11"><a xlink:href="ric.RichterHandleDamage.svg" xlink:title="ric.RichterHandleDamage">
<ellipse fill="green" stroke="black" cx="634.74" cy="-378" rx="131.08" ry="18"/>
<text text-anchor="middle" x="634.74" y="-374.3" font-family="Times,serif" font-size="14.00">ric.RichterHandleDamage</text>
</a>
</g>
</g>
<!-- ric.RichterHandleDamage&#45;&gt;ric.func_8015A9B0 -->
<g id="edge10" class="edge">
<title>ric.RichterHandleDamage&#45;&gt;ric.func_8015A9B0</title>
<path fill="none" stroke="black" d="M660.33,-360.25C709.67,-327.97 817.92,-257.13 873.05,-221.05"/>
<polygon fill="black" stroke="black" points="874.97,-223.98 881.42,-215.57 871.14,-218.12 874.97,-223.98"/>
<text text-anchor="middle" x="655.33" y="-349.05" font-family="Times,serif" font-size="14.00">1</text>
</g>
<!-- ric.UpdateEntityRichter -->
<g id="node12" class="node">
<title>ric.UpdateEntityRichter</title>
<g id="a_node12"><a xlink:href="ric.UpdateEntityRichter.svg" xlink:title="ric.UpdateEntityRichter">
<ellipse fill="green" stroke="black" cx="906.74" cy="-378" rx="122.68" ry="18"/>
<text text-anchor="middle" x="906.74" y="-374.3" font-family="Times,serif" font-size="14.00">ric.UpdateEntityRichter</text>
</a>
</g>
</g>
<!-- ric.UpdateEntityRichter&#45;&gt;ric.func_8015A9B0 -->
<g id="edge11" class="edge">
<title>ric.UpdateEntityRichter&#45;&gt;ric.func_8015A9B0</title>
<path fill="none" stroke="black" d="M906.74,-359.93C906.74,-328.97 906.74,-263.3 906.74,-226.13"/>
<polygon fill="black" stroke="black" points="910.24,-226.02 906.74,-216.02 903.24,-226.02 910.24,-226.02"/>
<text text-anchor="middle" x="901.74" y="-348.73" font-family="Times,serif" font-size="14.00">1</text>
</g>
<!-- ric.func_8015A7D0 -->
<g id="node13" class="node">
<title>ric.func_8015A7D0</title>
<g id="a_node13"><a xlink:href="ric.func_8015A7D0.svg" xlink:title="ric.func_8015A7D0">
<ellipse fill="green" stroke="black" cx="1146.74" cy="-378" rx="98.58" ry="18"/>
<text text-anchor="middle" x="1146.74" y="-374.3" font-family="Times,serif" font-size="14.00">ric.func_8015A7D0</text>
</a>
</g>
</g>
<!-- ric.func_8015A7D0&#45;&gt;ric.func_8015A9B0 -->
<g id="edge12" class="edge">
<title>ric.func_8015A7D0&#45;&gt;ric.func_8015A9B0</title>
<path fill="none" stroke="black" d="M1124.17,-360.25C1080.9,-328.17 986.3,-258 937.38,-221.72"/>
<polygon fill="black" stroke="black" points="939.21,-218.72 929.09,-215.57 935.04,-224.34 939.21,-218.72"/>
<text text-anchor="middle" x="1119.17" y="-349.05" font-family="Times,serif" font-size="14.00">1</text>
</g>
</g>
</svg>
