<?xml version="1.0" encoding="UTF-8" standalone="no"?>
<!DOCTYPE svg PUBLIC "-//W3C//DTD SVG 1.1//EN"
 "http://www.w3.org/Graphics/SVG/1.1/DTD/svg11.dtd">
<!-- Generated by graphviz version 2.43.0 (0)
 -->
<!-- Title: ric.RicEntityAguneaLightning Pages: 1 -->
<svg width="951pt" height="224pt"
 viewBox="0.00 0.00 951.49 224.00" xmlns="http://www.w3.org/2000/svg" xmlns:xlink="http://www.w3.org/1999/xlink">
<g id="graph0" class="graph" transform="scale(1 1) rotate(0) translate(4 220)">
<title>ric.RicEntityAguneaLightning</title>
<polygon fill="white" stroke="transparent" points="-4,4 -4,-220 947.49,-220 947.49,4 -4,4"/>
<!-- ric.RicEntityAguneaLightning -->
<g id="node1" class="node">
<title>ric.RicEntityAguneaLightning</title>
<ellipse fill="green" stroke="black" cx="470.44" cy="-198" rx="148.67" ry="18"/>
<text text-anchor="middle" x="470.44" y="-194.3" font-family="Times,serif" font-size="14.00">ric.RicEntityAguneaLightning</text>
</g>
<!-- dra.AllocPrimitives -->
<g id="node2" class="node">
<title>dra.AllocPrimitives</title>
<g id="a_node2"><a xlink:href="dra.AllocPrimitives.svg" xlink:title="dra.AllocPrimitives">
<ellipse fill="green" stroke="black" cx="99.44" cy="-18" rx="99.38" ry="18"/>
<text text-anchor="middle" x="99.44" y="-14.3" font-family="Times,serif" font-size="14.00">dra.AllocPrimitives</text>
</a>
</g>
</g>
<!-- ric.RicEntityAguneaLightning&#45;&gt;dra.AllocPrimitives -->
<g id="edge1" class="edge">
<title>ric.RicEntityAguneaLightning&#45;&gt;dra.AllocPrimitives</title>
<path fill="none" stroke="black" d="M435.87,-180.41C367.65,-147.68 215.88,-74.87 141.79,-39.32"/>
<polygon fill="black" stroke="black" points="143.25,-36.14 132.72,-34.97 140.22,-42.45 143.25,-36.14"/>
<text text-anchor="middle" x="127.72" y="-38.77" font-family="Times,serif" font-size="14.00">1</text>
</g>
<!-- rand -->
<g id="node3" class="node">
<title>rand</title>
<g id="a_node3"><a xlink:href="rand.svg" xlink:title="rand">
<ellipse fill="lightblue" stroke="black" cx="249.44" cy="-18" rx="32.49" ry="18"/>
<text text-anchor="middle" x="249.44" y="-14.3" font-family="Times,serif" font-size="14.00">rand</text>
</a>
</g>
</g>
<!-- ric.RicEntityAguneaLightning&#45;&gt;rand -->
<g id="edge2" class="edge">
<title>ric.RicEntityAguneaLightning&#45;&gt;rand</title>
<path fill="none" stroke="black" d="M449.25,-179.93C408.45,-147.07 319.13,-75.13 275.06,-39.64"/>
<polygon fill="black" stroke="black" points="277.12,-36.8 267.13,-33.25 272.73,-42.25 277.12,-36.8"/>
<text text-anchor="middle" x="262.13" y="-37.05" font-family="Times,serif" font-size="14.00">4</text>
</g>
<!-- rcos -->
<g id="node4" class="node">
<title>rcos</title>
<g id="a_node4"><a xlink:href="rcos.svg" xlink:title="rcos">
<ellipse fill="lightblue" stroke="black" cx="330.44" cy="-18" rx="30.59" ry="18"/>
<text text-anchor="middle" x="330.44" y="-14.3" font-family="Times,serif" font-size="14.00">rcos</text>
</a>
</g>
</g>
<!-- ric.RicEntityAguneaLightning&#45;&gt;rcos -->
<g id="edge3" class="edge">
<title>ric.RicEntityAguneaLightning&#45;&gt;rcos</title>
<path fill="none" stroke="black" d="M457.02,-179.93C431.93,-148.03 377.87,-79.3 349.19,-42.84"/>
<polygon fill="black" stroke="black" points="351.75,-40.43 342.82,-34.73 346.25,-44.76 351.75,-40.43"/>
<text text-anchor="middle" x="337.82" y="-38.53" font-family="Times,serif" font-size="14.00">1</text>
</g>
<!-- ric.DestroyEntity -->
<g id="node5" class="node">
<title>ric.DestroyEntity</title>
<g id="a_node5"><a xlink:href="ric.DestroyEntity.svg" xlink:title="ric.DestroyEntity">
<ellipse fill="green" stroke="black" cx="470.44" cy="-18" rx="90.98" ry="18"/>
<text text-anchor="middle" x="470.44" y="-14.3" font-family="Times,serif" font-size="14.00">ric.DestroyEntity</text>
</a>
</g>
</g>
<!-- ric.RicEntityAguneaLightning&#45;&gt;ric.DestroyEntity -->
<g id="edge4" class="edge">
<title>ric.RicEntityAguneaLightning&#45;&gt;ric.DestroyEntity</title>
<path fill="none" stroke="black" d="M470.44,-179.93C470.44,-148.97 470.44,-83.3 470.44,-46.13"/>
<polygon fill="black" stroke="black" points="473.94,-46.02 470.44,-36.02 466.94,-46.02 473.94,-46.02"/>
<text text-anchor="middle" x="465.44" y="-39.82" font-family="Times,serif" font-size="14.00">1</text>
</g>
<!-- ric.func_801706C0 -->
<g id="node6" class="node">
<title>ric.func_801706C0</title>
<g id="a_node6"><a xlink:href="ric.func_801706C0.svg" xlink:title="ric.func_801706C0">
<ellipse fill="green" stroke="black" cx="677.44" cy="-18" rx="98.28" ry="18"/>
<text text-anchor="middle" x="677.44" y="-14.3" font-family="Times,serif" font-size="14.00">ric.func_801706C0</text>
</a>
</g>
</g>
<!-- ric.RicEntityAguneaLightning&#45;&gt;ric.func_801706C0 -->
<g id="edge5" class="edge">
<title>ric.RicEntityAguneaLightning&#45;&gt;ric.func_801706C0</title>
<path fill="none" stroke="black" d="M490.29,-179.93C527.55,-147.89 608.04,-78.68 650.28,-42.35"/>
<polygon fill="black" stroke="black" points="652.66,-44.93 657.96,-35.76 648.09,-39.62 652.66,-44.93"/>
<text text-anchor="middle" x="652.96" y="-39.56" font-family="Times,serif" font-size="14.00">1</text>
</g>
<!-- rsin -->
<g id="node7" class="node">
<title>rsin</title>
<g id="a_node7"><a xlink:href="rsin.svg" xlink:title="rsin">
<ellipse fill="lightblue" stroke="black" cx="822.44" cy="-18" rx="28.7" ry="18"/>
<text text-anchor="middle" x="822.44" y="-14.3" font-family="Times,serif" font-size="14.00">rsin</text>
</a>
</g>
</g>
<!-- ric.RicEntityAguneaLightning&#45;&gt;rsin -->
<g id="edge6" class="edge">
<title>ric.RicEntityAguneaLightning&#45;&gt;rsin</title>
<path fill="none" stroke="black" d="M503.24,-180.41C571.07,-146.11 725.94,-67.8 791.85,-34.47"/>
<polygon fill="black" stroke="black" points="793.56,-37.53 800.9,-29.89 790.4,-31.28 793.56,-37.53"/>
<text text-anchor="middle" x="795.9" y="-33.69" font-family="Times,serif" font-size="14.00">1</text>
</g>
<!-- srand -->
<g id="node8" class="node">
<title>srand</title>
<g id="a_node8"><a xlink:href="srand.svg" xlink:title="srand">
<ellipse fill="lightblue" stroke="black" cx="906.44" cy="-18" rx="37.09" ry="18"/>
<text text-anchor="middle" x="906.44" y="-14.3" font-family="Times,serif" font-size="14.00">srand</text>
</a>
</g>
</g>
<!-- ric.RicEntityAguneaLightning&#45;&gt;srand -->
<g id="edge7" class="edge">
<title>ric.RicEntityAguneaLightning&#45;&gt;srand</title>
<path fill="none" stroke="black" d="M510.68,-180.57C594.85,-146.21 788.42,-67.18 869.57,-34.05"/>
<polygon fill="black" stroke="black" points="870.96,-37.26 878.9,-30.24 868.32,-30.78 870.96,-37.26"/>
<text text-anchor="middle" x="873.9" y="-34.04" font-family="Times,serif" font-size="14.00">1</text>
</g>
</g>
</svg>
