<?xml version="1.0" encoding="UTF-8" standalone="no"?>
<!DOCTYPE svg PUBLIC "-//W3C//DTD SVG 1.1//EN"
 "http://www.w3.org/Graphics/SVG/1.1/DTD/svg11.dtd">
<!-- Generated by graphviz version 2.43.0 (0)
 -->
<!-- Title: ric.RicSetSubweaponParams Pages: 1 -->
<svg width="7148pt" height="404pt"
 viewBox="0.00 0.00 7148.08 404.00" xmlns="http://www.w3.org/2000/svg" xmlns:xlink="http://www.w3.org/1999/xlink">
<g id="graph0" class="graph" transform="scale(1 1) rotate(0) translate(4 400)">
<title>ric.RicSetSubweaponParams</title>
<polygon fill="white" stroke="transparent" points="-4,4 -4,-400 7144.08,-400 7144.08,4 -4,4"/>
<!-- ric.RicSetSubweaponParams -->
<g id="node1" class="node">
<title>ric.RicSetSubweaponParams</title>
<ellipse fill="green" stroke="black" cx="3670.29" cy="-198" rx="144.07" ry="18"/>
<text text-anchor="middle" x="3670.29" y="-194.3" font-family="Times,serif" font-size="14.00">ric.RicSetSubweaponParams</text>
</g>
<!-- dra.func_800FD664 -->
<g id="node2" class="node">
<title>dra.func_800FD664</title>
<g id="a_node2"><a xlink:href="dra.func_800FD664.svg" xlink:title="dra.func_800FD664">
<ellipse fill="green" stroke="black" cx="3561.29" cy="-18" rx="102.88" ry="18"/>
<text text-anchor="middle" x="3561.29" y="-14.3" font-family="Times,serif" font-size="14.00">dra.func_800FD664</text>
</a>
</g>
</g>
<!-- ric.RicSetSubweaponParams&#45;&gt;dra.func_800FD664 -->
<g id="edge1" class="edge">
<title>ric.RicSetSubweaponParams&#45;&gt;dra.func_800FD664</title>
<path fill="none" stroke="black" d="M3659.84,-179.93C3640.63,-148.57 3599.62,-81.6 3577.03,-44.71"/>
<polygon fill="black" stroke="black" points="3579.92,-42.72 3571.71,-36.02 3573.95,-46.37 3579.92,-42.72"/>
<text text-anchor="middle" x="3566.71" y="-39.82" font-family="Times,serif" font-size="14.00">1</text>
</g>
<!-- ric.func_8015F9F0 -->
<g id="node3" class="node">
<title>ric.func_8015F9F0</title>
<g id="a_node3"><a xlink:href="ric.func_8015F9F0.svg" xlink:title="ric.func_8015F9F0">
<ellipse fill="green" stroke="black" cx="3780.29" cy="-18" rx="98.28" ry="18"/>
<text text-anchor="middle" x="3780.29" y="-14.3" font-family="Times,serif" font-size="14.00">ric.func_8015F9F0</text>
</a>
</g>
</g>
<!-- ric.RicSetSubweaponParams&#45;&gt;ric.func_8015F9F0 -->
<g id="edge2" class="edge">
<title>ric.RicSetSubweaponParams&#45;&gt;ric.func_8015F9F0</title>
<path fill="none" stroke="black" d="M3680.84,-179.93C3700.22,-148.57 3741.6,-81.6 3764.4,-44.71"/>
<polygon fill="black" stroke="black" points="3767.49,-46.36 3769.77,-36.02 3761.54,-42.68 3767.49,-46.36"/>
<text text-anchor="middle" x="3764.77" y="-39.82" font-family="Times,serif" font-size="14.00">1</text>
</g>
<!-- ric.RicEntityAguneaCircle -->
<g id="node4" class="node">
<title>ric.RicEntityAguneaCircle</title>
<g id="a_node4"><a xlink:href="ric.RicEntityAguneaCircle.svg" xlink:title="ric.RicEntityAguneaCircle">
<ellipse fill="green" stroke="black" cx="131.29" cy="-378" rx="131.08" ry="18"/>
<text text-anchor="middle" x="131.29" y="-374.3" font-family="Times,serif" font-size="14.00">ric.RicEntityAguneaCircle</text>
</a>
</g>
</g>
<!-- ric.RicEntityAguneaCircle&#45;&gt;ric.RicSetSubweaponParams -->
<g id="edge3" class="edge">
<title>ric.RicEntityAguneaCircle&#45;&gt;ric.RicSetSubweaponParams</title>
<path fill="none" stroke="black" d="M222.31,-364.96C238.6,-363.09 255.43,-361.34 271.29,-360 1523.6,-254.45 3041.75,-213.14 3519.15,-202.2"/>
<polygon fill="black" stroke="black" points="3519.28,-205.7 3529.2,-201.97 3519.12,-198.7 3519.28,-205.7"/>
<text text-anchor="middle" x="217.31" y="-353.76" font-family="Times,serif" font-size="14.00">1</text>
</g>
<!-- ric.RicEntityBladeDash -->
<g id="node5" class="node">
<title>ric.RicEntityBladeDash</title>
<g id="a_node5"><a xlink:href="ric.RicEntityBladeDash.svg" xlink:title="ric.RicEntityBladeDash">
<ellipse fill="green" stroke="black" cx="399.29" cy="-378" rx="118.88" ry="18"/>
<text text-anchor="middle" x="399.29" y="-374.3" font-family="Times,serif" font-size="14.00">ric.RicEntityBladeDash</text>
</a>
</g>
</g>
<!-- ric.RicEntityBladeDash&#45;&gt;ric.RicSetSubweaponParams -->
<g id="edge4" class="edge">
<title>ric.RicEntityBladeDash&#45;&gt;ric.RicSetSubweaponParams</title>
<path fill="none" stroke="black" d="M482.15,-365C497.15,-363.11 512.67,-361.34 527.29,-360 1675.39,-254.53 3066.25,-213.54 3519.6,-202.4"/>
<polygon fill="black" stroke="black" points="3519.9,-205.89 3529.81,-202.15 3519.73,-198.89 3519.9,-205.89"/>
<text text-anchor="middle" x="477.15" y="-353.8" font-family="Times,serif" font-size="14.00">1</text>
</g>
<!-- ric.RicEntityCrashAxe -->
<g id="node6" class="node">
<title>ric.RicEntityCrashAxe</title>
<g id="a_node6"><a xlink:href="ric.RicEntityCrashAxe.svg" xlink:title="ric.RicEntityCrashAxe">
<ellipse fill="green" stroke="black" cx="650.29" cy="-378" rx="113.98" ry="18"/>
<text text-anchor="middle" x="650.29" y="-374.3" font-family="Times,serif" font-size="14.00">ric.RicEntityCrashAxe</text>
</a>
</g>
</g>
<!-- ric.RicEntityCrashAxe&#45;&gt;ric.RicSetSubweaponParams -->
<g id="edge5" class="edge">
<title>ric.RicEntityCrashAxe&#45;&gt;ric.RicSetSubweaponParams</title>
<path fill="none" stroke="black" d="M729.57,-365.07C744.09,-363.16 759.13,-361.37 773.29,-360 1822.38,-258.52 3091.86,-215.37 3520.63,-203"/>
<polygon fill="black" stroke="black" points="3521.01,-206.49 3530.91,-202.7 3520.81,-199.49 3521.01,-206.49"/>
<text text-anchor="middle" x="724.57" y="-353.87" font-family="Times,serif" font-size="14.00">1</text>
</g>
<!-- ric.RicEntityCrashBibleBeam -->
<g id="node7" class="node">
<title>ric.RicEntityCrashBibleBeam</title>
<g id="a_node7"><a xlink:href="ric.RicEntityCrashBibleBeam.svg" xlink:title="ric.RicEntityCrashBibleBeam">
<ellipse fill="green" stroke="black" cx="929.29" cy="-378" rx="146.77" ry="18"/>
<text text-anchor="middle" x="929.29" y="-374.3" font-family="Times,serif" font-size="14.00">ric.RicEntityCrashBibleBeam</text>
</a>
</g>
</g>
<!-- ric.RicEntityCrashBibleBeam&#45;&gt;ric.RicSetSubweaponParams -->
<g id="edge6" class="edge">
<title>ric.RicEntityCrashBibleBeam&#45;&gt;ric.RicSetSubweaponParams</title>
<path fill="none" stroke="black" d="M1032.02,-365.12C1049.77,-363.26 1068.05,-361.48 1085.29,-360 2015.08,-280.43 3136.22,-224.06 3527.4,-205.57"/>
<polygon fill="black" stroke="black" points="3527.8,-209.06 3537.63,-205.09 3527.47,-202.06 3527.8,-209.06"/>
<text text-anchor="middle" x="1027.02" y="-353.92" font-family="Times,serif" font-size="14.00">1</text>
</g>
<!-- ric.RicEntityCrashCrossBeam -->
<g id="node8" class="node">
<title>ric.RicEntityCrashCrossBeam</title>
<g id="a_node8"><a xlink:href="ric.RicEntityCrashCrossBeam.svg" xlink:title="ric.RicEntityCrashCrossBeam">
<ellipse fill="green" stroke="black" cx="1243.29" cy="-378" rx="149.47" ry="18"/>
<text text-anchor="middle" x="1243.29" y="-374.3" font-family="Times,serif" font-size="14.00">ric.RicEntityCrashCrossBeam</text>
</a>
</g>
</g>
<!-- ric.RicEntityCrashCrossBeam&#45;&gt;ric.RicSetSubweaponParams -->
<g id="edge7" class="edge">
<title>ric.RicEntityCrashCrossBeam&#45;&gt;ric.RicSetSubweaponParams</title>
<path fill="none" stroke="black" d="M1348.86,-365.18C1366.68,-363.34 1385.01,-361.54 1402.29,-360 2208.68,-288.29 3178.66,-228.15 3532.56,-207.06"/>
<polygon fill="black" stroke="black" points="3532.82,-210.55 3542.59,-206.46 3532.4,-203.56 3532.82,-210.55"/>
<text text-anchor="middle" x="1343.86" y="-353.98" font-family="Times,serif" font-size="14.00">1</text>
</g>
<!-- ric.RicEntityCrashHydroStorm -->
<g id="node9" class="node">
<title>ric.RicEntityCrashHydroStorm</title>
<g id="a_node9"><a xlink:href="ric.RicEntityCrashHydroStorm.svg" xlink:title="ric.RicEntityCrashHydroStorm">
<ellipse fill="green" stroke="black" cx="1565.29" cy="-378" rx="154.07" ry="18"/>
<text text-anchor="middle" x="1565.29" y="-374.3" font-family="Times,serif" font-size="14.00">ric.RicEntityCrashHydroStorm</text>
</a>
</g>
</g>
<!-- ric.RicEntityCrashHydroStorm&#45;&gt;ric.RicSetSubweaponParams -->
<g id="edge8" class="edge">
<title>ric.RicEntityCrashHydroStorm&#45;&gt;ric.RicSetSubweaponParams</title>
<path fill="none" stroke="black" d="M1674.42,-365.3C1692.41,-363.46 1710.87,-361.63 1728.29,-360 2410.14,-296.19 3227.91,-232.63 3540.32,-208.82"/>
<polygon fill="black" stroke="black" points="3540.62,-212.31 3550.32,-208.06 3540.08,-205.33 3540.62,-212.31"/>
<text text-anchor="middle" x="1669.42" y="-354.1" font-family="Times,serif" font-size="14.00">1</text>
</g>
<!-- ric.RicEntityCrashReboundStoneExplosion -->
<g id="node10" class="node">
<title>ric.RicEntityCrashReboundStoneExplosion</title>
<g id="a_node10"><a xlink:href="ric.RicEntityCrashReboundStoneExplosion.svg" xlink:title="ric.RicEntityCrashReboundStoneExplosion">
<ellipse fill="green" stroke="black" cx="1947.29" cy="-378" rx="209.86" ry="18"/>
<text text-anchor="middle" x="1947.29" y="-374.3" font-family="Times,serif" font-size="14.00">ric.RicEntityCrashReboundStoneExplosion</text>
</a>
</g>
</g>
<!-- ric.RicEntityCrashReboundStoneExplosion&#45;&gt;ric.RicSetSubweaponParams -->
<g id="edge9" class="edge">
<title>ric.RicEntityCrashReboundStoneExplosion&#45;&gt;ric.RicSetSubweaponParams</title>
<path fill="none" stroke="black" d="M2075.74,-363.73C2398.84,-330.35 3241.69,-243.28 3552.74,-211.14"/>
<polygon fill="black" stroke="black" points="3553.55,-214.58 3563.13,-210.07 3552.83,-207.62 3553.55,-214.58"/>
<text text-anchor="middle" x="2070.74" y="-352.53" font-family="Times,serif" font-size="14.00">1</text>
</g>
<!-- ric.RicEntityCrashReboundStoneParticles -->
<g id="node11" class="node">
<title>ric.RicEntityCrashReboundStoneParticles</title>
<g id="a_node11"><a xlink:href="ric.RicEntityCrashReboundStoneParticles.svg" xlink:title="ric.RicEntityCrashReboundStoneParticles">
<ellipse fill="green" stroke="black" cx="2380.29" cy="-378" rx="204.96" ry="18"/>
<text text-anchor="middle" x="2380.29" y="-374.3" font-family="Times,serif" font-size="14.00">ric.RicEntityCrashReboundStoneParticles</text>
</a>
</g>
</g>
<!-- ric.RicEntityCrashReboundStoneParticles&#45;&gt;ric.RicSetSubweaponParams -->
<g id="edge10" class="edge">
<title>ric.RicEntityCrashReboundStoneParticles&#45;&gt;ric.RicSetSubweaponParams</title>
<path fill="none" stroke="black" d="M2485.31,-362.51C2728.14,-329 3326.07,-246.5 3567.1,-213.24"/>
<polygon fill="black" stroke="black" points="3567.84,-216.67 3577.27,-211.84 3566.88,-209.74 3567.84,-216.67"/>
<text text-anchor="middle" x="2480.31" y="-351.31" font-family="Times,serif" font-size="14.00">1</text>
</g>
<!-- ric.RicEntitySlideKick -->
<g id="node12" class="node">
<title>ric.RicEntitySlideKick</title>
<g id="a_node12"><a xlink:href="ric.RicEntitySlideKick.svg" xlink:title="ric.RicEntitySlideKick">
<ellipse fill="green" stroke="black" cx="2715.29" cy="-378" rx="112.38" ry="18"/>
<text text-anchor="middle" x="2715.29" y="-374.3" font-family="Times,serif" font-size="14.00">ric.RicEntitySlideKick</text>
</a>
</g>
</g>
<!-- ric.RicEntitySlideKick&#45;&gt;ric.RicSetSubweaponParams -->
<g id="edge11" class="edge">
<title>ric.RicEntitySlideKick&#45;&gt;ric.RicSetSubweaponParams</title>
<path fill="none" stroke="black" d="M2785.51,-363.91C2956.92,-331.96 3396.34,-250.06 3583.63,-215.15"/>
<polygon fill="black" stroke="black" points="3584.52,-218.55 3593.71,-213.27 3583.23,-211.67 3584.52,-218.55"/>
<text text-anchor="middle" x="2780.51" y="-352.71" font-family="Times,serif" font-size="14.00">1</text>
</g>
<!-- ric.RicEntityStopwatchCrashLightning -->
<g id="node13" class="node">
<title>ric.RicEntityStopwatchCrashLightning</title>
<g id="a_node13"><a xlink:href="ric.RicEntityStopwatchCrashLightning.svg" xlink:title="ric.RicEntityStopwatchCrashLightning">
<ellipse fill="green" stroke="black" cx="3036.29" cy="-378" rx="190.37" ry="18"/>
<text text-anchor="middle" x="3036.29" y="-374.3" font-family="Times,serif" font-size="14.00">ric.RicEntityStopwatchCrashLightning</text>
</a>
</g>
</g>
<!-- ric.RicEntityStopwatchCrashLightning&#45;&gt;ric.RicSetSubweaponParams -->
<g id="edge12" class="edge">
<title>ric.RicEntityStopwatchCrashLightning&#45;&gt;ric.RicSetSubweaponParams</title>
<path fill="none" stroke="black" d="M3093.95,-360.81C3211.94,-327.68 3480.26,-252.35 3604.68,-217.42"/>
<polygon fill="black" stroke="black" points="3605.78,-220.75 3614.46,-214.67 3603.89,-214.01 3605.78,-220.75"/>
<text text-anchor="middle" x="3088.95" y="-349.61" font-family="Times,serif" font-size="14.00">1</text>
</g>
<!-- ric.RicEntitySubwpnAgunea -->
<g id="node14" class="node">
<title>ric.RicEntitySubwpnAgunea</title>
<g id="a_node14"><a xlink:href="ric.RicEntitySubwpnAgunea.svg" xlink:title="ric.RicEntitySubwpnAgunea">
<ellipse fill="green" stroke="black" cx="3386.29" cy="-378" rx="141.88" ry="18"/>
<text text-anchor="middle" x="3386.29" y="-374.3" font-family="Times,serif" font-size="14.00">ric.RicEntitySubwpnAgunea</text>
</a>
</g>
</g>
<!-- ric.RicEntitySubwpnAgunea&#45;&gt;ric.RicSetSubweaponParams -->
<g id="edge13" class="edge">
<title>ric.RicEntitySubwpnAgunea&#45;&gt;ric.RicSetSubweaponParams</title>
<path fill="none" stroke="black" d="M3413.01,-360.25C3464.39,-328.05 3576.97,-257.49 3634.66,-221.33"/>
<polygon fill="black" stroke="black" points="3636.82,-224.11 3643.43,-215.83 3633.1,-218.18 3636.82,-224.11"/>
<text text-anchor="middle" x="3408.01" y="-349.05" font-family="Times,serif" font-size="14.00">1</text>
</g>
<!-- ric.RicEntitySubwpnAxe -->
<g id="node15" class="node">
<title>ric.RicEntitySubwpnAxe</title>
<g id="a_node15"><a xlink:href="ric.RicEntitySubwpnAxe.svg" xlink:title="ric.RicEntitySubwpnAxe">
<ellipse fill="green" stroke="black" cx="3670.29" cy="-378" rx="124.28" ry="18"/>
<text text-anchor="middle" x="3670.29" y="-374.3" font-family="Times,serif" font-size="14.00">ric.RicEntitySubwpnAxe</text>
</a>
</g>
</g>
<!-- ric.RicEntitySubwpnAxe&#45;&gt;ric.RicSetSubweaponParams -->
<g id="edge14" class="edge">
<title>ric.RicEntitySubwpnAxe&#45;&gt;ric.RicSetSubweaponParams</title>
<path fill="none" stroke="black" d="M3670.29,-359.93C3670.29,-328.97 3670.29,-263.3 3670.29,-226.13"/>
<polygon fill="black" stroke="black" points="3673.79,-226.02 3670.29,-216.02 3666.79,-226.02 3673.79,-226.02"/>
<text text-anchor="middle" x="3665.29" y="-348.73" font-family="Times,serif" font-size="14.00">1</text>
</g>
<!-- ric.RicEntitySubwpnCrashCross -->
<g id="node16" class="node">
<title>ric.RicEntitySubwpnCrashCross</title>
<g id="a_node16"><a xlink:href="ric.RicEntitySubwpnCrashCross.svg" xlink:title="ric.RicEntitySubwpnCrashCross">
<ellipse fill="green" stroke="black" cx="3973.29" cy="-378" rx="160.57" ry="18"/>
<text text-anchor="middle" x="3973.29" y="-374.3" font-family="Times,serif" font-size="14.00">ric.RicEntitySubwpnCrashCross</text>
</a>
</g>
</g>
<!-- ric.RicEntitySubwpnCrashCross&#45;&gt;ric.RicSetSubweaponParams -->
<g id="edge15" class="edge">
<title>ric.RicEntitySubwpnCrashCross&#45;&gt;ric.RicSetSubweaponParams</title>
<path fill="none" stroke="black" d="M3944.78,-360.25C3889.85,-327.99 3769.35,-257.2 3707.92,-221.11"/>
<polygon fill="black" stroke="black" points="3709.33,-217.88 3698.94,-215.83 3705.79,-223.91 3709.33,-217.88"/>
<text text-anchor="middle" x="3939.78" y="-349.05" font-family="Times,serif" font-size="14.00">1</text>
</g>
<!-- ric.RicEntitySubwpnCross -->
<g id="node17" class="node">
<title>ric.RicEntitySubwpnCross</title>
<g id="a_node17"><a xlink:href="ric.RicEntitySubwpnCross.svg" xlink:title="ric.RicEntitySubwpnCross">
<ellipse fill="green" stroke="black" cx="4285.29" cy="-378" rx="133.48" ry="18"/>
<text text-anchor="middle" x="4285.29" y="-374.3" font-family="Times,serif" font-size="14.00">ric.RicEntitySubwpnCross</text>
</a>
</g>
</g>
<!-- ric.RicEntitySubwpnCross&#45;&gt;ric.RicSetSubweaponParams -->
<g id="edge16" class="edge">
<title>ric.RicEntitySubwpnCross&#45;&gt;ric.RicSetSubweaponParams</title>
<path fill="none" stroke="black" d="M4231.52,-361.44C4118.36,-328.69 3856.07,-252.77 3734.41,-217.56"/>
<polygon fill="black" stroke="black" points="3735.06,-214.1 3724.48,-214.69 3733.12,-220.83 3735.06,-214.1"/>
<text text-anchor="middle" x="4226.52" y="-350.24" font-family="Times,serif" font-size="14.00">1</text>
</g>
<!-- ric.RicEntitySubwpnDagger -->
<g id="node18" class="node">
<title>ric.RicEntitySubwpnDagger</title>
<g id="a_node18"><a xlink:href="ric.RicEntitySubwpnDagger.svg" xlink:title="ric.RicEntitySubwpnDagger">
<ellipse fill="green" stroke="black" cx="4577.29" cy="-378" rx="141.07" ry="18"/>
<text text-anchor="middle" x="4577.29" y="-374.3" font-family="Times,serif" font-size="14.00">ric.RicEntitySubwpnDagger</text>
</a>
</g>
</g>
<!-- ric.RicEntitySubwpnDagger&#45;&gt;ric.RicSetSubweaponParams -->
<g id="edge17" class="edge">
<title>ric.RicEntitySubwpnDagger&#45;&gt;ric.RicSetSubweaponParams</title>
<path fill="none" stroke="black" d="M4503.83,-362.58C4337.01,-329.84 3930.41,-250.05 3754.12,-215.45"/>
<polygon fill="black" stroke="black" points="3754.6,-211.98 3744.11,-213.49 3753.25,-218.85 3754.6,-211.98"/>
<text text-anchor="middle" x="4498.83" y="-351.38" font-family="Times,serif" font-size="14.00">1</text>
</g>
<!-- ric.RicEntitySubwpnHolyWater -->
<g id="node19" class="node">
<title>ric.RicEntitySubwpnHolyWater</title>
<g id="a_node19"><a xlink:href="ric.RicEntitySubwpnHolyWater.svg" xlink:title="ric.RicEntitySubwpnHolyWater">
<ellipse fill="green" stroke="black" cx="4892.29" cy="-378" rx="155.97" ry="18"/>
<text text-anchor="middle" x="4892.29" y="-374.3" font-family="Times,serif" font-size="14.00">ric.RicEntitySubwpnHolyWater</text>
</a>
</g>
</g>
<!-- ric.RicEntitySubwpnHolyWater&#45;&gt;ric.RicSetSubweaponParams -->
<g id="edge18" class="edge">
<title>ric.RicEntitySubwpnHolyWater&#45;&gt;ric.RicSetSubweaponParams</title>
<path fill="none" stroke="black" d="M4799.69,-363.51C4575,-330.78 4002.37,-247.37 3770.27,-213.56"/>
<polygon fill="black" stroke="black" points="3770.55,-210.07 3760.15,-212.09 3769.54,-216.99 3770.55,-210.07"/>
<text text-anchor="middle" x="4794.69" y="-352.31" font-family="Times,serif" font-size="14.00">1</text>
</g>
<!-- ric.RicEntitySubwpnHolyWaterFlame -->
<g id="node20" class="node">
<title>ric.RicEntitySubwpnHolyWaterFlame</title>
<g id="a_node20"><a xlink:href="ric.RicEntitySubwpnHolyWaterFlame.svg" xlink:title="ric.RicEntitySubwpnHolyWaterFlame">
<ellipse fill="green" stroke="black" cx="5251.29" cy="-378" rx="184.67" ry="18"/>
<text text-anchor="middle" x="5251.29" y="-374.3" font-family="Times,serif" font-size="14.00">ric.RicEntitySubwpnHolyWaterFlame</text>
</a>
</g>
</g>
<!-- ric.RicEntitySubwpnHolyWaterFlame&#45;&gt;ric.RicSetSubweaponParams -->
<g id="edge19" class="edge">
<title>ric.RicEntitySubwpnHolyWaterFlame&#45;&gt;ric.RicSetSubweaponParams</title>
<path fill="none" stroke="black" d="M5135.35,-363.95C4842.17,-330.94 4073.91,-244.44 3783.59,-211.76"/>
<polygon fill="black" stroke="black" points="3783.8,-208.26 3773.47,-210.62 3783.01,-215.21 3783.8,-208.26"/>
<text text-anchor="middle" x="5130.35" y="-352.75" font-family="Times,serif" font-size="14.00">1</text>
</g>
<!-- ric.RicEntitySubwpnReboundStone -->
<g id="node21" class="node">
<title>ric.RicEntitySubwpnReboundStone</title>
<g id="a_node21"><a xlink:href="ric.RicEntitySubwpnReboundStone.svg" xlink:title="ric.RicEntitySubwpnReboundStone">
<ellipse fill="green" stroke="black" cx="5628.29" cy="-378" rx="174.67" ry="18"/>
<text text-anchor="middle" x="5628.29" y="-374.3" font-family="Times,serif" font-size="14.00">ric.RicEntitySubwpnReboundStone</text>
</a>
</g>
</g>
<!-- ric.RicEntitySubwpnReboundStone&#45;&gt;ric.RicSetSubweaponParams -->
<g id="edge20" class="edge">
<title>ric.RicEntitySubwpnReboundStone&#45;&gt;ric.RicSetSubweaponParams</title>
<path fill="none" stroke="black" d="M5503.27,-365.35C5483.86,-363.55 5464.04,-361.72 5445.29,-360 4824.83,-303.04 4082.26,-236.08 3793.55,-210.09"/>
<polygon fill="black" stroke="black" points="3793.75,-206.59 3783.47,-209.18 3793.12,-213.56 3793.75,-206.59"/>
<text text-anchor="middle" x="5498.27" y="-354.15" font-family="Times,serif" font-size="14.00">1</text>
</g>
<!-- ric.RicEntitySubwpnThrownVibhuti -->
<g id="node22" class="node">
<title>ric.RicEntitySubwpnThrownVibhuti</title>
<g id="a_node22"><a xlink:href="ric.RicEntitySubwpnThrownVibhuti.svg" xlink:title="ric.RicEntitySubwpnThrownVibhuti">
<ellipse fill="green" stroke="black" cx="5996.29" cy="-378" rx="175.47" ry="18"/>
<text text-anchor="middle" x="5996.29" y="-374.3" font-family="Times,serif" font-size="14.00">ric.RicEntitySubwpnThrownVibhuti</text>
</a>
</g>
</g>
<!-- ric.RicEntitySubwpnThrownVibhuti&#45;&gt;ric.RicSetSubweaponParams -->
<g id="edge21" class="edge">
<title>ric.RicEntitySubwpnThrownVibhuti&#45;&gt;ric.RicSetSubweaponParams</title>
<path fill="none" stroke="black" d="M5872.1,-365.23C5852.11,-363.42 5831.63,-361.62 5812.29,-360 5052.53,-296.35 4140.15,-231.68 3803.48,-208.22"/>
<polygon fill="black" stroke="black" points="3803.42,-204.7 3793.2,-207.5 3802.93,-211.69 3803.42,-204.7"/>
<text text-anchor="middle" x="5867.1" y="-354.03" font-family="Times,serif" font-size="14.00">1</text>
</g>
<!-- ric.RicEntityVibhutiCrashCloud -->
<g id="node23" class="node">
<title>ric.RicEntityVibhutiCrashCloud</title>
<g id="a_node23"><a xlink:href="ric.RicEntityVibhutiCrashCloud.svg" xlink:title="ric.RicEntityVibhutiCrashCloud">
<ellipse fill="green" stroke="black" cx="6347.29" cy="-378" rx="157.07" ry="18"/>
<text text-anchor="middle" x="6347.29" y="-374.3" font-family="Times,serif" font-size="14.00">ric.RicEntityVibhutiCrashCloud</text>
</a>
</g>
</g>
<!-- ric.RicEntityVibhutiCrashCloud&#45;&gt;ric.RicSetSubweaponParams -->
<g id="edge22" class="edge">
<title>ric.RicEntityVibhutiCrashCloud&#45;&gt;ric.RicSetSubweaponParams</title>
<path fill="none" stroke="black" d="M6236.85,-365.17C6217.99,-363.32 6198.59,-361.52 6180.29,-360 5279.01,-285.25 4193.18,-226.07 3811.33,-206.19"/>
<polygon fill="black" stroke="black" points="3811.23,-202.68 3801.07,-205.66 3810.87,-209.67 3811.23,-202.68"/>
<text text-anchor="middle" x="6231.85" y="-353.97" font-family="Times,serif" font-size="14.00">1</text>
</g>
<!-- ric.RicEntityWhip -->
<g id="node24" class="node">
<title>ric.RicEntityWhip</title>
<g id="a_node24"><a xlink:href="ric.RicEntityWhip.svg" xlink:title="ric.RicEntityWhip">
<ellipse fill="green" stroke="black" cx="6615.29" cy="-378" rx="92.88" ry="18"/>
<text text-anchor="middle" x="6615.29" y="-374.3" font-family="Times,serif" font-size="14.00">ric.RicEntityWhip</text>
</a>
</g>
</g>
<!-- ric.RicEntityWhip&#45;&gt;ric.RicSetSubweaponParams -->
<g id="edge23" class="edge">
<title>ric.RicEntityWhip&#45;&gt;ric.RicSetSubweaponParams</title>
<path fill="none" stroke="black" d="M6550.41,-365.1C6538.12,-363.16 6525.33,-361.34 6513.29,-360 5489.19,-246 4248.08,-210.91 3822.21,-201.8"/>
<polygon fill="black" stroke="black" points="3822.07,-198.3 3811.99,-201.59 3821.92,-205.3 3822.07,-198.3"/>
<text text-anchor="middle" x="6545.41" y="-353.9" font-family="Times,serif" font-size="14.00">1</text>
</g>
<!-- ric.func_80160D2C -->
<g id="node25" class="node">
<title>ric.func_80160D2C</title>
<g id="a_node25"><a xlink:href="ric.func_80160D2C.svg" xlink:title="ric.func_80160D2C">
<ellipse fill="green" stroke="black" cx="6825.29" cy="-378" rx="99.38" ry="18"/>
<text text-anchor="middle" x="6825.29" y="-374.3" font-family="Times,serif" font-size="14.00">ric.func_80160D2C</text>
</a>
</g>
</g>
<!-- ric.func_80160D2C&#45;&gt;ric.RicSetSubweaponParams -->
<g id="edge24" class="edge">
<title>ric.func_80160D2C&#45;&gt;ric.RicSetSubweaponParams</title>
<path fill="none" stroke="black" d="M6756,-365.01C6743.16,-363.1 6729.84,-361.32 6717.29,-360 5610.47,-243.96 4268.23,-209.95 3822.36,-201.48"/>
<polygon fill="black" stroke="black" points="3822.38,-197.98 3812.32,-201.29 3822.25,-204.98 3822.38,-197.98"/>
<text text-anchor="middle" x="6751" y="-353.81" font-family="Times,serif" font-size="14.00">1</text>
</g>
<!-- ric.func_80160F0C -->
<g id="node26" class="node">
<title>ric.func_80160F0C</title>
<g id="a_node26"><a xlink:href="ric.func_80160F0C.svg" xlink:title="ric.func_80160F0C">
<ellipse fill="green" stroke="black" cx="7041.29" cy="-378" rx="98.58" ry="18"/>
<text text-anchor="middle" x="7041.29" y="-374.3" font-family="Times,serif" font-size="14.00">ric.func_80160F0C</text>
</a>
</g>
</g>
<!-- ric.func_80160F0C&#45;&gt;ric.RicSetSubweaponParams -->
<g id="edge25" class="edge">
<title>ric.func_80160F0C&#45;&gt;ric.RicSetSubweaponParams</title>
<path fill="none" stroke="black" d="M6972.58,-365.06C6959.57,-363.12 6946.03,-361.31 6933.29,-360 5740.01,-237 4291.22,-207.35 3823.62,-200.75"/>
<polygon fill="black" stroke="black" points="3823.47,-197.25 3813.43,-200.61 3823.38,-204.25 3823.47,-197.25"/>
<text text-anchor="middle" x="6967.58" y="-353.86" font-family="Times,serif" font-size="14.00">1</text>
</g>
</g>
</svg>
