<?xml version="1.0" encoding="UTF-8" standalone="no"?>
<!DOCTYPE svg PUBLIC "-//W3C//DTD SVG 1.1//EN"
 "http://www.w3.org/Graphics/SVG/1.1/DTD/svg11.dtd">
<!-- Generated by graphviz version 2.43.0 (0)
 -->
<!-- Title: ric.RicSetSubweaponParams Pages: 1 -->
<svg width="6890pt" height="404pt"
 viewBox="0.00 0.00 6890.08 404.00" xmlns="http://www.w3.org/2000/svg" xmlns:xlink="http://www.w3.org/1999/xlink">
<g id="graph0" class="graph" transform="scale(1 1) rotate(0) translate(4 400)">
<title>ric.RicSetSubweaponParams</title>
<polygon fill="white" stroke="transparent" points="-4,4 -4,-400 6886.08,-400 6886.08,4 -4,4"/>
<!-- ric.RicSetSubweaponParams -->
<g id="node1" class="node">
<title>ric.RicSetSubweaponParams</title>
<ellipse fill="green" stroke="black" cx="3470.24" cy="-198" rx="144.07" ry="18"/>
<text text-anchor="middle" x="3470.24" y="-194.3" font-family="Times,serif" font-size="14.00">ric.RicSetSubweaponParams</text>
</g>
<!-- dra.func_800FD664 -->
<g id="node2" class="node">
<title>dra.func_800FD664</title>
<g id="a_node2"><a xlink:href="dra.func_800FD664.svg" xlink:title="dra.func_800FD664">
<ellipse fill="green" stroke="black" cx="3361.24" cy="-18" rx="102.88" ry="18"/>
<text text-anchor="middle" x="3361.24" y="-14.3" font-family="Times,serif" font-size="14.00">dra.func_800FD664</text>
</a>
</g>
</g>
<!-- ric.RicSetSubweaponParams&#45;&gt;dra.func_800FD664 -->
<g id="edge1" class="edge">
<title>ric.RicSetSubweaponParams&#45;&gt;dra.func_800FD664</title>
<path fill="none" stroke="black" d="M3459.79,-179.93C3440.58,-148.57 3399.58,-81.6 3376.98,-44.71"/>
<polygon fill="black" stroke="black" points="3379.87,-42.72 3371.66,-36.02 3373.9,-46.37 3379.87,-42.72"/>
<text text-anchor="middle" x="3366.66" y="-39.82" font-family="Times,serif" font-size="14.00">1</text>
</g>
<!-- ric.func_8015F9F0 -->
<g id="node3" class="node">
<title>ric.func_8015F9F0</title>
<g id="a_node3"><a xlink:href="ric.func_8015F9F0.svg" xlink:title="ric.func_8015F9F0">
<ellipse fill="green" stroke="black" cx="3580.24" cy="-18" rx="98.28" ry="18"/>
<text text-anchor="middle" x="3580.24" y="-14.3" font-family="Times,serif" font-size="14.00">ric.func_8015F9F0</text>
</a>
</g>
</g>
<!-- ric.RicSetSubweaponParams&#45;&gt;ric.func_8015F9F0 -->
<g id="edge2" class="edge">
<title>ric.RicSetSubweaponParams&#45;&gt;ric.func_8015F9F0</title>
<path fill="none" stroke="black" d="M3480.79,-179.93C3500.17,-148.57 3541.55,-81.6 3564.35,-44.71"/>
<polygon fill="black" stroke="black" points="3567.45,-46.36 3569.73,-36.02 3561.49,-42.68 3567.45,-46.36"/>
<text text-anchor="middle" x="3564.73" y="-39.82" font-family="Times,serif" font-size="14.00">1</text>
</g>
<!-- ric.BladeDashHelper -->
<g id="node4" class="node">
<title>ric.BladeDashHelper</title>
<g id="a_node4"><a xlink:href="ric.BladeDashHelper.svg" xlink:title="ric.BladeDashHelper">
<ellipse fill="green" stroke="black" cx="107.24" cy="-378" rx="107.48" ry="18"/>
<text text-anchor="middle" x="107.24" y="-374.3" font-family="Times,serif" font-size="14.00">ric.BladeDashHelper</text>
</a>
</g>
</g>
<!-- ric.BladeDashHelper&#45;&gt;ric.RicSetSubweaponParams -->
<g id="edge3" class="edge">
<title>ric.BladeDashHelper&#45;&gt;ric.RicSetSubweaponParams</title>
<path fill="none" stroke="black" d="M182.01,-365.06C196.02,-363.13 210.55,-361.33 224.24,-360 1412.35,-244.48 2853.63,-209.94 3318.18,-201.43"/>
<polygon fill="black" stroke="black" points="3318.37,-204.92 3328.31,-201.24 3318.24,-197.93 3318.37,-204.92"/>
<text text-anchor="middle" x="177.01" y="-353.86" font-family="Times,serif" font-size="14.00">1</text>
</g>
<!-- ric.EntityAguneaCircle -->
<g id="node5" class="node">
<title>ric.EntityAguneaCircle</title>
<g id="a_node5"><a xlink:href="ric.EntityAguneaCircle.svg" xlink:title="ric.EntityAguneaCircle">
<ellipse fill="green" stroke="black" cx="349.24" cy="-378" rx="116.18" ry="18"/>
<text text-anchor="middle" x="349.24" y="-374.3" font-family="Times,serif" font-size="14.00">ric.EntityAguneaCircle</text>
</a>
</g>
</g>
<!-- ric.EntityAguneaCircle&#45;&gt;ric.RicSetSubweaponParams -->
<g id="edge4" class="edge">
<title>ric.EntityAguneaCircle&#45;&gt;ric.RicSetSubweaponParams</title>
<path fill="none" stroke="black" d="M430.47,-365.06C445.34,-363.16 460.74,-361.37 475.24,-360 1563.78,-257.48 2881.5,-214.82 3320.16,-202.8"/>
<polygon fill="black" stroke="black" points="3320.46,-206.29 3330.36,-202.52 3320.27,-199.3 3320.46,-206.29"/>
<text text-anchor="middle" x="425.47" y="-353.86" font-family="Times,serif" font-size="14.00">1</text>
</g>
<!-- ric.EntityBiblePageBeam -->
<g id="node6" class="node">
<title>ric.EntityBiblePageBeam</title>
<g id="a_node6"><a xlink:href="ric.EntityBiblePageBeam.svg" xlink:title="ric.EntityBiblePageBeam">
<ellipse fill="green" stroke="black" cx="611.24" cy="-378" rx="127.28" ry="18"/>
<text text-anchor="middle" x="611.24" y="-374.3" font-family="Times,serif" font-size="14.00">ric.EntityBiblePageBeam</text>
</a>
</g>
</g>
<!-- ric.EntityBiblePageBeam&#45;&gt;ric.RicSetSubweaponParams -->
<g id="edge5" class="edge">
<title>ric.EntityBiblePageBeam&#45;&gt;ric.RicSetSubweaponParams</title>
<path fill="none" stroke="black" d="M700.03,-365.05C715.74,-363.18 731.96,-361.41 747.24,-360 1729.04,-269.71 2914.9,-219.79 3323.55,-204.3"/>
<polygon fill="black" stroke="black" points="3323.79,-207.79 3333.65,-203.92 3323.52,-200.8 3323.79,-207.79"/>
<text text-anchor="middle" x="695.03" y="-353.85" font-family="Times,serif" font-size="14.00">1</text>
</g>
<!-- ric.EntityCrossBoomerang -->
<g id="node7" class="node">
<title>ric.EntityCrossBoomerang</title>
<g id="a_node7"><a xlink:href="ric.EntityCrossBoomerang.svg" xlink:title="ric.EntityCrossBoomerang">
<ellipse fill="green" stroke="black" cx="890.24" cy="-378" rx="133.78" ry="18"/>
<text text-anchor="middle" x="890.24" y="-374.3" font-family="Times,serif" font-size="14.00">ric.EntityCrossBoomerang</text>
</a>
</g>
</g>
<!-- ric.EntityCrossBoomerang&#45;&gt;ric.RicSetSubweaponParams -->
<g id="edge6" class="edge">
<title>ric.EntityCrossBoomerang&#45;&gt;ric.RicSetSubweaponParams</title>
<path fill="none" stroke="black" d="M984.01,-365.14C1000.4,-363.27 1017.31,-361.47 1033.24,-360 1903.51,-279.58 2952.23,-224.29 3327.86,-205.8"/>
<polygon fill="black" stroke="black" points="3328.15,-209.29 3337.96,-205.3 3327.8,-202.29 3328.15,-209.29"/>
<text text-anchor="middle" x="979.01" y="-353.94" font-family="Times,serif" font-size="14.00">1</text>
</g>
<!-- ric.EntityHydroStorm -->
<g id="node8" class="node">
<title>ric.EntityHydroStorm</title>
<g id="a_node8"><a xlink:href="ric.EntityHydroStorm.svg" xlink:title="ric.EntityHydroStorm">
<ellipse fill="green" stroke="black" cx="1154.24" cy="-378" rx="112.38" ry="18"/>
<text text-anchor="middle" x="1154.24" y="-374.3" font-family="Times,serif" font-size="14.00">ric.EntityHydroStorm</text>
</a>
</g>
</g>
<!-- ric.EntityHydroStorm&#45;&gt;ric.RicSetSubweaponParams -->
<g id="edge7" class="edge">
<title>ric.EntityHydroStorm&#45;&gt;ric.RicSetSubweaponParams</title>
<path fill="none" stroke="black" d="M1233.23,-365.13C1247.2,-363.25 1261.64,-361.45 1275.24,-360 2048.63,-277.4 2979.89,-224.37 3328.99,-206.1"/>
<polygon fill="black" stroke="black" points="3329.35,-209.59 3339.15,-205.57 3328.98,-202.6 3329.35,-209.59"/>
<text text-anchor="middle" x="1228.23" y="-353.93" font-family="Times,serif" font-size="14.00">1</text>
</g>
<!-- ric.EntityStopwatch -->
<g id="node9" class="node">
<title>ric.EntityStopwatch</title>
<g id="a_node9"><a xlink:href="ric.EntityStopwatch.svg" xlink:title="ric.EntityStopwatch">
<ellipse fill="green" stroke="black" cx="1388.24" cy="-378" rx="103.98" ry="18"/>
<text text-anchor="middle" x="1388.24" y="-374.3" font-family="Times,serif" font-size="14.00">ric.EntityStopwatch</text>
</a>
</g>
</g>
<!-- ric.EntityStopwatch&#45;&gt;ric.RicSetSubweaponParams -->
<g id="edge8" class="edge">
<title>ric.EntityStopwatch&#45;&gt;ric.RicSetSubweaponParams</title>
<path fill="none" stroke="black" d="M1461.69,-365.21C1474.84,-363.31 1488.43,-361.49 1501.24,-360 2186.69,-280.51 3010.88,-226.52 3332.38,-207.05"/>
<polygon fill="black" stroke="black" points="3332.9,-210.52 3342.67,-206.43 3332.48,-203.54 3332.9,-210.52"/>
<text text-anchor="middle" x="1456.69" y="-354.01" font-family="Times,serif" font-size="14.00">1</text>
</g>
<!-- ric.EntitySubwpnCrashAgunea -->
<g id="node10" class="node">
<title>ric.EntitySubwpnCrashAgunea</title>
<g id="a_node10"><a xlink:href="ric.EntitySubwpnCrashAgunea.svg" xlink:title="ric.EntitySubwpnCrashAgunea">
<ellipse fill="green" stroke="black" cx="1664.24" cy="-378" rx="154.07" ry="18"/>
<text text-anchor="middle" x="1664.24" y="-374.3" font-family="Times,serif" font-size="14.00">ric.EntitySubwpnCrashAgunea</text>
</a>
</g>
</g>
<!-- ric.EntitySubwpnCrashAgunea&#45;&gt;ric.RicSetSubweaponParams -->
<g id="edge9" class="edge">
<title>ric.EntitySubwpnCrashAgunea&#45;&gt;ric.RicSetSubweaponParams</title>
<path fill="none" stroke="black" d="M1774.94,-365.44C1792.76,-363.6 1811.01,-361.74 1828.24,-360 2397.32,-302.61 3077.64,-236.79 3349.43,-210.61"/>
<polygon fill="black" stroke="black" points="3350.09,-214.07 3359.71,-209.62 3349.42,-207.1 3350.09,-214.07"/>
<text text-anchor="middle" x="1769.94" y="-354.24" font-family="Times,serif" font-size="14.00">1</text>
</g>
<!-- ric.EntitySubwpnCrashAxe -->
<g id="node11" class="node">
<title>ric.EntitySubwpnCrashAxe</title>
<g id="a_node11"><a xlink:href="ric.EntitySubwpnCrashAxe.svg" xlink:title="ric.EntitySubwpnCrashAxe">
<ellipse fill="green" stroke="black" cx="1973.24" cy="-378" rx="136.48" ry="18"/>
<text text-anchor="middle" x="1973.24" y="-374.3" font-family="Times,serif" font-size="14.00">ric.EntitySubwpnCrashAxe</text>
</a>
</g>
</g>
<!-- ric.EntitySubwpnCrashAxe&#45;&gt;ric.RicSetSubweaponParams -->
<g id="edge10" class="edge">
<title>ric.EntitySubwpnCrashAxe&#45;&gt;ric.RicSetSubweaponParams</title>
<path fill="none" stroke="black" d="M2070.89,-365.39C2337.65,-333.67 3077.59,-245.69 3359.35,-212.19"/>
<polygon fill="black" stroke="black" points="3360.07,-215.62 3369.58,-210.97 3359.24,-208.67 3360.07,-215.62"/>
<text text-anchor="middle" x="2065.89" y="-354.19" font-family="Times,serif" font-size="14.00">1</text>
</g>
<!-- ric.RicEntityGiantSpinningCross -->
<g id="node12" class="node">
<title>ric.RicEntityGiantSpinningCross</title>
<g id="a_node12"><a xlink:href="ric.RicEntityGiantSpinningCross.svg" xlink:title="ric.RicEntityGiantSpinningCross">
<ellipse fill="green" stroke="black" cx="2290.24" cy="-378" rx="162.47" ry="18"/>
<text text-anchor="middle" x="2290.24" y="-374.3" font-family="Times,serif" font-size="14.00">ric.RicEntityGiantSpinningCross</text>
</a>
</g>
</g>
<!-- ric.RicEntityGiantSpinningCross&#45;&gt;ric.RicSetSubweaponParams -->
<g id="edge11" class="edge">
<title>ric.RicEntityGiantSpinningCross&#45;&gt;ric.RicSetSubweaponParams</title>
<path fill="none" stroke="black" d="M2382.34,-363.11C2600.56,-330.19 3147.55,-247.68 3371.9,-213.84"/>
<polygon fill="black" stroke="black" points="3372.64,-217.26 3382.01,-212.31 3371.6,-210.34 3372.64,-217.26"/>
<text text-anchor="middle" x="2377.34" y="-351.91" font-family="Times,serif" font-size="14.00">1</text>
</g>
<!-- ric.RicEntityHolyWater -->
<g id="node13" class="node">
<title>ric.RicEntityHolyWater</title>
<g id="a_node13"><a xlink:href="ric.RicEntityHolyWater.svg" xlink:title="ric.RicEntityHolyWater">
<ellipse fill="green" stroke="black" cx="2589.24" cy="-378" rx="118.08" ry="18"/>
<text text-anchor="middle" x="2589.24" y="-374.3" font-family="Times,serif" font-size="14.00">ric.RicEntityHolyWater</text>
</a>
</g>
</g>
<!-- ric.RicEntityHolyWater&#45;&gt;ric.RicSetSubweaponParams -->
<g id="edge12" class="edge">
<title>ric.RicEntityHolyWater&#45;&gt;ric.RicSetSubweaponParams</title>
<path fill="none" stroke="black" d="M2657.27,-363.25C2816.93,-331 3215.15,-250.54 3388.01,-215.61"/>
<polygon fill="black" stroke="black" points="3388.71,-219.04 3397.82,-213.63 3387.32,-212.18 3388.71,-219.04"/>
<text text-anchor="middle" x="2652.27" y="-352.05" font-family="Times,serif" font-size="14.00">1</text>
</g>
<!-- ric.RicEntityHolyWaterFlame -->
<g id="node14" class="node">
<title>ric.RicEntityHolyWaterFlame</title>
<g id="a_node14"><a xlink:href="ric.RicEntityHolyWaterFlame.svg" xlink:title="ric.RicEntityHolyWaterFlame">
<ellipse fill="green" stroke="black" cx="2873.24" cy="-378" rx="147.57" ry="18"/>
<text text-anchor="middle" x="2873.24" y="-374.3" font-family="Times,serif" font-size="14.00">ric.RicEntityHolyWaterFlame</text>
</a>
</g>
</g>
<!-- ric.RicEntityHolyWaterFlame&#45;&gt;ric.RicSetSubweaponParams -->
<g id="edge13" class="edge">
<title>ric.RicEntityHolyWaterFlame&#45;&gt;ric.RicSetSubweaponParams</title>
<path fill="none" stroke="black" d="M2926.48,-361.13C3036.7,-328.26 3289.39,-252.92 3407.38,-217.74"/>
<polygon fill="black" stroke="black" points="3408.43,-221.08 3417.01,-214.87 3406.43,-214.37 3408.43,-221.08"/>
<text text-anchor="middle" x="2921.48" y="-349.93" font-family="Times,serif" font-size="14.00">1</text>
</g>
<!-- ric.RicEntitySubwpnAgunea -->
<g id="node15" class="node">
<title>ric.RicEntitySubwpnAgunea</title>
<g id="a_node15"><a xlink:href="ric.RicEntitySubwpnAgunea.svg" xlink:title="ric.RicEntitySubwpnAgunea">
<ellipse fill="green" stroke="black" cx="3180.24" cy="-378" rx="141.88" ry="18"/>
<text text-anchor="middle" x="3180.24" y="-374.3" font-family="Times,serif" font-size="14.00">ric.RicEntitySubwpnAgunea</text>
</a>
</g>
</g>
<!-- ric.RicEntitySubwpnAgunea&#45;&gt;ric.RicSetSubweaponParams -->
<g id="edge14" class="edge">
<title>ric.RicEntitySubwpnAgunea&#45;&gt;ric.RicSetSubweaponParams</title>
<path fill="none" stroke="black" d="M3207.52,-360.25C3260.1,-327.99 3375.43,-257.2 3434.23,-221.11"/>
<polygon fill="black" stroke="black" points="3436.13,-224.05 3442.82,-215.83 3432.47,-218.08 3436.13,-224.05"/>
<text text-anchor="middle" x="3202.52" y="-349.05" font-family="Times,serif" font-size="14.00">1</text>
</g>
<!-- ric.RicEntitySubwpnBible -->
<g id="node16" class="node">
<title>ric.RicEntitySubwpnBible</title>
<g id="a_node16"><a xlink:href="ric.RicEntitySubwpnBible.svg" xlink:title="ric.RicEntitySubwpnBible">
<ellipse fill="green" stroke="black" cx="3470.24" cy="-378" rx="130.78" ry="18"/>
<text text-anchor="middle" x="3470.24" y="-374.3" font-family="Times,serif" font-size="14.00">ric.RicEntitySubwpnBible</text>
</a>
</g>
</g>
<!-- ric.RicEntitySubwpnBible&#45;&gt;ric.RicSetSubweaponParams -->
<g id="edge15" class="edge">
<title>ric.RicEntitySubwpnBible&#45;&gt;ric.RicSetSubweaponParams</title>
<path fill="none" stroke="black" d="M3470.24,-359.93C3470.24,-328.97 3470.24,-263.3 3470.24,-226.13"/>
<polygon fill="black" stroke="black" points="3473.74,-226.02 3470.24,-216.02 3466.74,-226.02 3473.74,-226.02"/>
<text text-anchor="middle" x="3465.24" y="-348.73" font-family="Times,serif" font-size="14.00">1</text>
</g>
<!-- ric.RicEntitySubwpnCrashCross -->
<g id="node17" class="node">
<title>ric.RicEntitySubwpnCrashCross</title>
<g id="a_node17"><a xlink:href="ric.RicEntitySubwpnCrashCross.svg" xlink:title="ric.RicEntitySubwpnCrashCross">
<ellipse fill="green" stroke="black" cx="3779.24" cy="-378" rx="160.57" ry="18"/>
<text text-anchor="middle" x="3779.24" y="-374.3" font-family="Times,serif" font-size="14.00">ric.RicEntitySubwpnCrashCross</text>
</a>
</g>
</g>
<!-- ric.RicEntitySubwpnCrashCross&#45;&gt;ric.RicSetSubweaponParams -->
<g id="edge16" class="edge">
<title>ric.RicEntitySubwpnCrashCross&#45;&gt;ric.RicSetSubweaponParams</title>
<path fill="none" stroke="black" d="M3750.17,-360.25C3694.04,-327.92 3570.76,-256.91 3508.23,-220.88"/>
<polygon fill="black" stroke="black" points="3509.87,-217.79 3499.46,-215.83 3506.38,-223.86 3509.87,-217.79"/>
<text text-anchor="middle" x="3745.17" y="-349.05" font-family="Times,serif" font-size="14.00">1</text>
</g>
<!-- ric.RicEntitySubwpnReboundStone -->
<g id="node18" class="node">
<title>ric.RicEntitySubwpnReboundStone</title>
<g id="a_node18"><a xlink:href="ric.RicEntitySubwpnReboundStone.svg" xlink:title="ric.RicEntitySubwpnReboundStone">
<ellipse fill="green" stroke="black" cx="4132.24" cy="-378" rx="174.67" ry="18"/>
<text text-anchor="middle" x="4132.24" y="-374.3" font-family="Times,serif" font-size="14.00">ric.RicEntitySubwpnReboundStone</text>
</a>
</g>
</g>
<!-- ric.RicEntitySubwpnReboundStone&#45;&gt;ric.RicSetSubweaponParams -->
<g id="edge17" class="edge">
<title>ric.RicEntitySubwpnReboundStone&#45;&gt;ric.RicSetSubweaponParams</title>
<path fill="none" stroke="black" d="M4072.91,-361.05C3949.96,-327.99 3668.03,-252.18 3538.09,-217.24"/>
<polygon fill="black" stroke="black" points="3538.82,-213.82 3528.25,-214.6 3537,-220.58 3538.82,-213.82"/>
<text text-anchor="middle" x="4067.91" y="-349.85" font-family="Times,serif" font-size="14.00">1</text>
</g>
<!-- ric.RicEntitySubwpnThrownDagger -->
<g id="node19" class="node">
<title>ric.RicEntitySubwpnThrownDagger</title>
<g id="a_node19"><a xlink:href="ric.RicEntitySubwpnThrownDagger.svg" xlink:title="ric.RicEntitySubwpnThrownDagger">
<ellipse fill="green" stroke="black" cx="4501.24" cy="-378" rx="176.27" ry="18"/>
<text text-anchor="middle" x="4501.24" y="-374.3" font-family="Times,serif" font-size="14.00">ric.RicEntitySubwpnThrownDagger</text>
</a>
</g>
</g>
<!-- ric.RicEntitySubwpnThrownDagger&#45;&gt;ric.RicSetSubweaponParams -->
<g id="edge18" class="edge">
<title>ric.RicEntitySubwpnThrownDagger&#45;&gt;ric.RicSetSubweaponParams</title>
<path fill="none" stroke="black" d="M4415.55,-362.21C4223.2,-329 3758.51,-248.77 3561.25,-214.71"/>
<polygon fill="black" stroke="black" points="3561.65,-211.23 3551.2,-212.98 3560.46,-218.13 3561.65,-211.23"/>
<text text-anchor="middle" x="4410.55" y="-351.01" font-family="Times,serif" font-size="14.00">1</text>
</g>
<!-- ric.RicEntitySubwpnThrownVibhuti -->
<g id="node20" class="node">
<title>ric.RicEntitySubwpnThrownVibhuti</title>
<g id="a_node20"><a xlink:href="ric.RicEntitySubwpnThrownVibhuti.svg" xlink:title="ric.RicEntitySubwpnThrownVibhuti">
<ellipse fill="green" stroke="black" cx="4871.24" cy="-378" rx="175.47" ry="18"/>
<text text-anchor="middle" x="4871.24" y="-374.3" font-family="Times,serif" font-size="14.00">ric.RicEntitySubwpnThrownVibhuti</text>
</a>
</g>
</g>
<!-- ric.RicEntitySubwpnThrownVibhuti&#45;&gt;ric.RicSetSubweaponParams -->
<g id="edge19" class="edge">
<title>ric.RicEntitySubwpnThrownVibhuti&#45;&gt;ric.RicSetSubweaponParams</title>
<path fill="none" stroke="black" d="M4765.65,-363.58C4506.07,-330.6 3838.94,-245.84 3577.56,-212.64"/>
<polygon fill="black" stroke="black" points="3577.67,-209.12 3567.3,-211.33 3576.78,-216.06 3577.67,-209.12"/>
<text text-anchor="middle" x="4760.65" y="-352.38" font-family="Times,serif" font-size="14.00">1</text>
</g>
<!-- ric.RicEntityVibhutiCrashCloud -->
<g id="node21" class="node">
<title>ric.RicEntityVibhutiCrashCloud</title>
<g id="a_node21"><a xlink:href="ric.RicEntityVibhutiCrashCloud.svg" xlink:title="ric.RicEntityVibhutiCrashCloud">
<ellipse fill="green" stroke="black" cx="5222.24" cy="-378" rx="157.07" ry="18"/>
<text text-anchor="middle" x="5222.24" y="-374.3" font-family="Times,serif" font-size="14.00">ric.RicEntityVibhutiCrashCloud</text>
</a>
</g>
</g>
<!-- ric.RicEntityVibhutiCrashCloud&#45;&gt;ric.RicSetSubweaponParams -->
<g id="edge20" class="edge">
<title>ric.RicEntityVibhutiCrashCloud&#45;&gt;ric.RicSetSubweaponParams</title>
<path fill="none" stroke="black" d="M5109.05,-365.47C5091.05,-363.64 5072.64,-361.77 5055.24,-360 4506.79,-304.23 3851.58,-237.71 3588.3,-210.98"/>
<polygon fill="black" stroke="black" points="3588.64,-207.5 3578.34,-209.97 3587.93,-214.46 3588.64,-207.5"/>
<text text-anchor="middle" x="5104.05" y="-354.27" font-family="Times,serif" font-size="14.00">1</text>
</g>
<!-- ric.func_80160C38 -->
<g id="node22" class="node">
<title>ric.func_80160C38</title>
<g id="a_node22"><a xlink:href="ric.func_80160C38.svg" xlink:title="ric.func_80160C38">
<ellipse fill="green" stroke="black" cx="5495.24" cy="-378" rx="98.28" ry="18"/>
<text text-anchor="middle" x="5495.24" y="-374.3" font-family="Times,serif" font-size="14.00">ric.func_80160C38</text>
</a>
</g>
</g>
<!-- ric.func_80160C38&#45;&gt;ric.RicSetSubweaponParams -->
<g id="edge21" class="edge">
<title>ric.func_80160C38&#45;&gt;ric.RicSetSubweaponParams</title>
<path fill="none" stroke="black" d="M5425.99,-365.23C5413.45,-363.32 5400.47,-361.48 5388.24,-360 4723.3,-279.38 3923.75,-226.3 3608.06,-207.06"/>
<polygon fill="black" stroke="black" points="3608.14,-203.56 3597.94,-206.45 3607.71,-210.55 3608.14,-203.56"/>
<text text-anchor="middle" x="5420.99" y="-354.03" font-family="Times,serif" font-size="14.00">1</text>
</g>
<!-- ric.func_80160D2C -->
<g id="node23" class="node">
<title>ric.func_80160D2C</title>
<g id="a_node23"><a xlink:href="ric.func_80160D2C.svg" xlink:title="ric.func_80160D2C">
<ellipse fill="green" stroke="black" cx="5711.24" cy="-378" rx="99.38" ry="18"/>
<text text-anchor="middle" x="5711.24" y="-374.3" font-family="Times,serif" font-size="14.00">ric.func_80160D2C</text>
</a>
</g>
</g>
<!-- ric.func_80160D2C&#45;&gt;ric.RicSetSubweaponParams -->
<g id="edge22" class="edge">
<title>ric.func_80160D2C&#45;&gt;ric.RicSetSubweaponParams</title>
<path fill="none" stroke="black" d="M5640.99,-365.21C5628.12,-363.28 5614.8,-361.45 5602.24,-360 4855.26,-273.68 3955.46,-223.16 3612.44,-205.83"/>
<polygon fill="black" stroke="black" points="3612.37,-202.32 3602.21,-205.32 3612.02,-209.31 3612.37,-202.32"/>
<text text-anchor="middle" x="5635.99" y="-354.01" font-family="Times,serif" font-size="14.00">1</text>
</g>
<!-- ric.func_80160F0C -->
<g id="node24" class="node">
<title>ric.func_80160F0C</title>
<g id="a_node24"><a xlink:href="ric.func_80160F0C.svg" xlink:title="ric.func_80160F0C">
<ellipse fill="green" stroke="black" cx="5927.24" cy="-378" rx="98.58" ry="18"/>
<text text-anchor="middle" x="5927.24" y="-374.3" font-family="Times,serif" font-size="14.00">ric.func_80160F0C</text>
</a>
</g>
</g>
<!-- ric.func_80160F0C&#45;&gt;ric.RicSetSubweaponParams -->
<g id="edge23" class="edge">
<title>ric.func_80160F0C&#45;&gt;ric.RicSetSubweaponParams</title>
<path fill="none" stroke="black" d="M5857.94,-365.17C5845.1,-363.24 5831.78,-361.41 5819.24,-360 4988.48,-266.33 3985.85,-219.57 3616.21,-204.55"/>
<polygon fill="black" stroke="black" points="3616.13,-201.04 3606,-204.14 3615.85,-208.04 3616.13,-201.04"/>
<text text-anchor="middle" x="5852.94" y="-353.97" font-family="Times,serif" font-size="14.00">1</text>
</g>
<!-- ric.func_80166784 -->
<g id="node25" class="node">
<title>ric.func_80166784</title>
<g id="a_node25"><a xlink:href="ric.func_80166784.svg" xlink:title="ric.func_80166784">
<ellipse fill="green" stroke="black" cx="6141.24" cy="-378" rx="96.68" ry="18"/>
<text text-anchor="middle" x="6141.24" y="-374.3" font-family="Times,serif" font-size="14.00">ric.func_80166784</text>
</a>
</g>
</g>
<!-- ric.func_80166784&#45;&gt;ric.RicSetSubweaponParams -->
<g id="edge24" class="edge">
<title>ric.func_80166784&#45;&gt;ric.RicSetSubweaponParams</title>
<path fill="none" stroke="black" d="M6073.23,-365.1C6060.63,-363.18 6047.56,-361.37 6035.24,-360 5120.2,-258.15 4013.79,-215.89 3619.02,-203.33"/>
<polygon fill="black" stroke="black" points="3619.08,-199.83 3608.97,-203.01 3618.86,-206.82 3619.08,-199.83"/>
<text text-anchor="middle" x="6068.23" y="-353.9" font-family="Times,serif" font-size="14.00">1</text>
</g>
<!-- ric.func_8016D920 -->
<g id="node26" class="node">
<title>ric.func_8016D920</title>
<g id="a_node26"><a xlink:href="ric.func_8016D920.svg" xlink:title="ric.func_8016D920">
<ellipse fill="green" stroke="black" cx="6355.24" cy="-378" rx="98.58" ry="18"/>
<text text-anchor="middle" x="6355.24" y="-374.3" font-family="Times,serif" font-size="14.00">ric.func_8016D920</text>
</a>
</g>
</g>
<!-- ric.func_8016D920&#45;&gt;ric.RicSetSubweaponParams -->
<g id="edge25" class="edge">
<title>ric.func_8016D920&#45;&gt;ric.RicSetSubweaponParams</title>
<path fill="none" stroke="black" d="M6286.24,-365.11C6273.31,-363.17 6259.88,-361.36 6247.24,-360 5247.91,-252.64 4038.04,-213.43 3620.44,-202.52"/>
<polygon fill="black" stroke="black" points="3620.51,-199.02 3610.43,-202.26 3620.33,-206.02 3620.51,-199.02"/>
<text text-anchor="middle" x="6281.24" y="-353.91" font-family="Times,serif" font-size="14.00">1</text>
</g>
<!-- ric.func_8016DF74 -->
<g id="node27" class="node">
<title>ric.func_8016DF74</title>
<g id="a_node27"><a xlink:href="ric.func_8016DF74.svg" xlink:title="ric.func_8016DF74">
<ellipse fill="green" stroke="black" cx="6571.24" cy="-378" rx="98.58" ry="18"/>
<text text-anchor="middle" x="6571.24" y="-374.3" font-family="Times,serif" font-size="14.00">ric.func_8016DF74</text>
</a>
</g>
</g>
<!-- ric.func_8016DF74&#45;&gt;ric.RicSetSubweaponParams -->
<g id="edge26" class="edge">
<title>ric.func_8016DF74&#45;&gt;ric.RicSetSubweaponParams</title>
<path fill="none" stroke="black" d="M6502.24,-365.06C6489.31,-363.13 6475.89,-361.33 6463.24,-360 5378.23,-245.73 4062.9,-210.64 3622.28,-201.68"/>
<polygon fill="black" stroke="black" points="3622.1,-198.18 3612.04,-201.48 3621.96,-205.18 3622.1,-198.18"/>
<text text-anchor="middle" x="6497.24" y="-353.86" font-family="Times,serif" font-size="14.00">1</text>
</g>
<!-- ric.func_80170548 -->
<g id="node28" class="node">
<title>ric.func_80170548</title>
<g id="a_node28"><a xlink:href="ric.func_80170548.svg" xlink:title="ric.func_80170548">
<ellipse fill="green" stroke="black" cx="6785.24" cy="-378" rx="96.68" ry="18"/>
<text text-anchor="middle" x="6785.24" y="-374.3" font-family="Times,serif" font-size="14.00">ric.func_80170548</text>
</a>
</g>
</g>
<!-- ric.func_80170548&#45;&gt;ric.RicSetSubweaponParams -->
<g id="edge27" class="edge">
<title>ric.func_80170548&#45;&gt;ric.RicSetSubweaponParams</title>
<path fill="none" stroke="black" d="M6717.81,-365.06C6705.04,-363.12 6691.75,-361.31 6679.24,-360 5507.61,-237.03 4085.14,-207.38 3623.08,-200.77"/>
<polygon fill="black" stroke="black" points="3623.06,-197.27 3613.01,-200.63 3622.96,-204.27 3623.06,-197.27"/>
<text text-anchor="middle" x="6712.81" y="-353.86" font-family="Times,serif" font-size="14.00">1</text>
</g>
</g>
</svg>
