<?xml version="1.0" encoding="UTF-8" standalone="no"?>
<!DOCTYPE svg PUBLIC "-//W3C//DTD SVG 1.1//EN"
 "http://www.w3.org/Graphics/SVG/1.1/DTD/svg11.dtd">
<!-- Generated by graphviz version 2.43.0 (0)
 -->
<!-- Title: ric.EntityStopwatch Pages: 1 -->
<svg width="1470pt" height="224pt"
 viewBox="0.00 0.00 1470.04 224.00" xmlns="http://www.w3.org/2000/svg" xmlns:xlink="http://www.w3.org/1999/xlink">
<g id="graph0" class="graph" transform="scale(1 1) rotate(0) translate(4 220)">
<title>ric.EntityStopwatch</title>
<polygon fill="white" stroke="transparent" points="-4,4 -4,-220 1466.04,-220 1466.04,4 -4,4"/>
<!-- ric.EntityStopwatch -->
<g id="node1" class="node">
<title>ric.EntityStopwatch</title>
<ellipse fill="green" stroke="black" cx="547.44" cy="-198" rx="103.98" ry="18"/>
<text text-anchor="middle" x="547.44" y="-194.3" font-family="Times,serif" font-size="14.00">ric.EntityStopwatch</text>
</g>
<!-- dra.AllocPrimitives -->
<g id="node2" class="node">
<title>dra.AllocPrimitives</title>
<g id="a_node2"><a xlink:href="dra.AllocPrimitives.svg" xlink:title="dra.AllocPrimitives">
<ellipse fill="green" stroke="black" cx="99.44" cy="-18" rx="99.38" ry="18"/>
<text text-anchor="middle" x="99.44" y="-14.3" font-family="Times,serif" font-size="14.00">dra.AllocPrimitives</text>
</a>
</g>
</g>
<!-- ric.EntityStopwatch&#45;&gt;dra.AllocPrimitives -->
<g id="edge1" class="edge">
<title>ric.EntityStopwatch&#45;&gt;dra.AllocPrimitives</title>
<path fill="none" stroke="black" d="M507.68,-181.2C425.55,-148.57 237.4,-73.81 148.14,-38.35"/>
<polygon fill="black" stroke="black" points="149.37,-35.07 138.79,-34.63 146.79,-41.58 149.37,-35.07"/>
<text text-anchor="middle" x="133.79" y="-38.43" font-family="Times,serif" font-size="14.00">1</text>
</g>
<!-- dra.PlaySfx -->
<g id="node3" class="node">
<title>dra.PlaySfx</title>
<g id="a_node3"><a xlink:href="dra.PlaySfx.svg" xlink:title="dra.PlaySfx">
<ellipse fill="green" stroke="black" cx="281.44" cy="-18" rx="64.19" ry="18"/>
<text text-anchor="middle" x="281.44" y="-14.3" font-family="Times,serif" font-size="14.00">dra.PlaySfx</text>
</a>
</g>
</g>
<!-- ric.EntityStopwatch&#45;&gt;dra.PlaySfx -->
<g id="edge2" class="edge">
<title>ric.EntityStopwatch&#45;&gt;dra.PlaySfx</title>
<path fill="none" stroke="black" d="M522.42,-180.25C473.9,-147.79 367.13,-76.34 313.5,-40.45"/>
<polygon fill="black" stroke="black" points="315.32,-37.46 305.06,-34.8 311.42,-43.27 315.32,-37.46"/>
<text text-anchor="middle" x="300.06" y="-38.6" font-family="Times,serif" font-size="14.00">4</text>
</g>
<!-- rand -->
<g id="node4" class="node">
<title>rand</title>
<g id="a_node4"><a xlink:href="rand.svg" xlink:title="rand">
<ellipse fill="lightblue" stroke="black" cx="396.44" cy="-18" rx="32.49" ry="18"/>
<text text-anchor="middle" x="396.44" y="-14.3" font-family="Times,serif" font-size="14.00">rand</text>
</a>
</g>
</g>
<!-- ric.EntityStopwatch&#45;&gt;rand -->
<g id="edge3" class="edge">
<title>ric.EntityStopwatch&#45;&gt;rand</title>
<path fill="none" stroke="black" d="M532.96,-179.93C505.72,-147.82 446.81,-78.37 416.05,-42.11"/>
<polygon fill="black" stroke="black" points="418.71,-39.84 409.57,-34.48 413.37,-44.37 418.71,-39.84"/>
<text text-anchor="middle" x="404.57" y="-38.28" font-family="Times,serif" font-size="14.00">4</text>
</g>
<!-- rcos -->
<g id="node5" class="node">
<title>rcos</title>
<g id="a_node5"><a xlink:href="rcos.svg" xlink:title="rcos">
<ellipse fill="lightblue" stroke="black" cx="477.44" cy="-18" rx="30.59" ry="18"/>
<text text-anchor="middle" x="477.44" y="-14.3" font-family="Times,serif" font-size="14.00">rcos</text>
</a>
</g>
</g>
<!-- ric.EntityStopwatch&#45;&gt;rcos -->
<g id="edge4" class="edge">
<title>ric.EntityStopwatch&#45;&gt;rcos</title>
<path fill="none" stroke="black" d="M540.73,-179.93C528.47,-148.75 502.37,-82.4 487.81,-45.37"/>
<polygon fill="black" stroke="black" points="490.95,-43.78 484.03,-35.76 484.43,-46.34 490.95,-43.78"/>
<text text-anchor="middle" x="479.03" y="-39.56" font-family="Times,serif" font-size="14.00">2</text>
</g>
<!-- ric.DestroyEntity -->
<g id="node6" class="node">
<title>ric.DestroyEntity</title>
<g id="a_node6"><a xlink:href="ric.DestroyEntity.svg" xlink:title="ric.DestroyEntity">
<ellipse fill="green" stroke="black" cx="617.44" cy="-18" rx="90.98" ry="18"/>
<text text-anchor="middle" x="617.44" y="-14.3" font-family="Times,serif" font-size="14.00">ric.DestroyEntity</text>
</a>
</g>
</g>
<!-- ric.EntityStopwatch&#45;&gt;ric.DestroyEntity -->
<g id="edge5" class="edge">
<title>ric.EntityStopwatch&#45;&gt;ric.DestroyEntity</title>
<path fill="none" stroke="black" d="M554.15,-179.93C566.38,-148.83 592.38,-82.73 606.96,-45.65"/>
<polygon fill="black" stroke="black" points="610.35,-46.6 610.75,-36.02 603.83,-44.04 610.35,-46.6"/>
<text text-anchor="middle" x="605.75" y="-39.82" font-family="Times,serif" font-size="14.00">1</text>
</g>
<!-- ric.RicCreateEntFactoryFromEntity -->
<g id="node7" class="node">
<title>ric.RicCreateEntFactoryFromEntity</title>
<g id="a_node7"><a xlink:href="ric.RicCreateEntFactoryFromEntity.svg" xlink:title="ric.RicCreateEntFactoryFromEntity">
<ellipse fill="green" stroke="black" cx="903.44" cy="-18" rx="176.57" ry="18"/>
<text text-anchor="middle" x="903.44" y="-14.3" font-family="Times,serif" font-size="14.00">ric.RicCreateEntFactoryFromEntity</text>
</a>
</g>
</g>
<!-- ric.EntityStopwatch&#45;&gt;ric.RicCreateEntFactoryFromEntity -->
<g id="edge6" class="edge">
<title>ric.EntityStopwatch&#45;&gt;ric.RicCreateEntFactoryFromEntity</title>
<path fill="none" stroke="black" d="M579.98,-180.73C644.54,-148.45 788.8,-76.32 860.82,-40.31"/>
<polygon fill="black" stroke="black" points="862.7,-43.29 870.08,-35.68 859.57,-37.02 862.7,-43.29"/>
<text text-anchor="middle" x="865.08" y="-39.48" font-family="Times,serif" font-size="14.00">4</text>
</g>
<!-- ric.RicSetSubweaponParams -->
<g id="node8" class="node">
<title>ric.RicSetSubweaponParams</title>
<g id="a_node8"><a xlink:href="ric.RicSetSubweaponParams.svg" xlink:title="ric.RicSetSubweaponParams">
<ellipse fill="green" stroke="black" cx="1242.44" cy="-18" rx="144.07" ry="18"/>
<text text-anchor="middle" x="1242.44" y="-14.3" font-family="Times,serif" font-size="14.00">ric.RicSetSubweaponParams</text>
</a>
</g>
</g>
<!-- ric.EntityStopwatch&#45;&gt;ric.RicSetSubweaponParams -->
<g id="edge7" class="edge">
<title>ric.EntityStopwatch&#45;&gt;ric.RicSetSubweaponParams</title>
<path fill="none" stroke="black" d="M603.14,-182.73C728.76,-150.56 1033.93,-72.4 1172.23,-36.98"/>
<polygon fill="black" stroke="black" points="1173.48,-40.28 1182.3,-34.4 1171.74,-33.49 1173.48,-40.28"/>
<text text-anchor="middle" x="1177.3" y="-38.2" font-family="Times,serif" font-size="14.00">1</text>
</g>
<!-- rsin -->
<g id="node9" class="node">
<title>rsin</title>
<g id="a_node9"><a xlink:href="rsin.svg" xlink:title="rsin">
<ellipse fill="lightblue" stroke="black" cx="1433.44" cy="-18" rx="28.7" ry="18"/>
<text text-anchor="middle" x="1433.44" y="-14.3" font-family="Times,serif" font-size="14.00">rsin</text>
</a>
</g>
</g>
<!-- ric.EntityStopwatch&#45;&gt;rsin -->
<g id="edge8" class="edge">
<title>ric.EntityStopwatch&#45;&gt;rsin</title>
<path fill="none" stroke="black" d="M632.39,-187.53C786.93,-168.84 1123.25,-121.44 1395.44,-36 1397.71,-35.29 1400.02,-34.48 1402.33,-33.61"/>
<polygon fill="black" stroke="black" points="1403.75,-36.81 1411.68,-29.78 1401.1,-30.33 1403.75,-36.81"/>
<text text-anchor="middle" x="1406.68" y="-33.58" font-family="Times,serif" font-size="14.00">2</text>
</g>
</g>
</svg>
