<?xml version="1.0" encoding="UTF-8" standalone="no"?>
<!DOCTYPE svg PUBLIC "-//W3C//DTD SVG 1.1//EN"
 "http://www.w3.org/Graphics/SVG/1.1/DTD/svg11.dtd">
<!-- Generated by graphviz version 2.43.0 (0)
 -->
<!-- Title: ric.func_801719A4 Pages: 1 -->
<svg width="1348pt" height="224pt"
 viewBox="0.00 0.00 1348.04 224.00" xmlns="http://www.w3.org/2000/svg" xmlns:xlink="http://www.w3.org/1999/xlink">
<g id="graph0" class="graph" transform="scale(1 1) rotate(0) translate(4 220)">
<title>ric.func_801719A4</title>
<polygon fill="white" stroke="transparent" points="-4,4 -4,-220 1344.04,-220 1344.04,4 -4,4"/>
<!-- ric.func_801719A4 -->
<g id="node1" class="node">
<title>ric.func_801719A4</title>
<ellipse fill="green" stroke="black" cx="582.44" cy="-198" rx="97.48" ry="18"/>
<text text-anchor="middle" x="582.44" y="-194.3" font-family="Times,serif" font-size="14.00">ric.func_801719A4</text>
</g>
<!-- dra.AllocPrimitives -->
<g id="node2" class="node">
<title>dra.AllocPrimitives</title>
<g id="a_node2"><a xlink:href="dra.AllocPrimitives.svg" xlink:title="dra.AllocPrimitives">
<ellipse fill="green" stroke="black" cx="99.44" cy="-18" rx="99.38" ry="18"/>
<text text-anchor="middle" x="99.44" y="-14.3" font-family="Times,serif" font-size="14.00">dra.AllocPrimitives</text>
</a>
</g>
</g>
<!-- ric.func_801719A4&#45;&gt;dra.AllocPrimitives -->
<g id="edge1" class="edge">
<title>ric.func_801719A4&#45;&gt;dra.AllocPrimitives</title>
<path fill="none" stroke="black" d="M540.84,-181.67C452.57,-149.14 246.75,-73.29 150.62,-37.86"/>
<polygon fill="black" stroke="black" points="151.7,-34.53 141.11,-34.36 149.28,-41.1 151.7,-34.53"/>
<text text-anchor="middle" x="136.11" y="-38.16" font-family="Times,serif" font-size="14.00">1</text>
</g>
<!-- dra.PlaySfx -->
<g id="node3" class="node">
<title>dra.PlaySfx</title>
<g id="a_node3"><a xlink:href="dra.PlaySfx.svg" xlink:title="dra.PlaySfx">
<ellipse fill="green" stroke="black" cx="281.44" cy="-18" rx="64.19" ry="18"/>
<text text-anchor="middle" x="281.44" y="-14.3" font-family="Times,serif" font-size="14.00">dra.PlaySfx</text>
</a>
</g>
</g>
<!-- ric.func_801719A4&#45;&gt;dra.PlaySfx -->
<g id="edge2" class="edge">
<title>ric.func_801719A4&#45;&gt;dra.PlaySfx</title>
<path fill="none" stroke="black" d="M554.66,-180.57C499.71,-148.07 377.19,-75.63 316.67,-39.83"/>
<polygon fill="black" stroke="black" points="318.25,-36.7 307.86,-34.62 314.68,-42.72 318.25,-36.7"/>
<text text-anchor="middle" x="302.86" y="-38.42" font-family="Times,serif" font-size="14.00">4</text>
</g>
<!-- rand -->
<g id="node4" class="node">
<title>rand</title>
<g id="a_node4"><a xlink:href="rand.svg" xlink:title="rand">
<ellipse fill="lightblue" stroke="black" cx="396.44" cy="-18" rx="32.49" ry="18"/>
<text text-anchor="middle" x="396.44" y="-14.3" font-family="Times,serif" font-size="14.00">rand</text>
</a>
</g>
</g>
<!-- ric.func_801719A4&#45;&gt;rand -->
<g id="edge3" class="edge">
<title>ric.func_801719A4&#45;&gt;rand</title>
<path fill="none" stroke="black" d="M564.94,-180.25C531.26,-148.02 457.39,-77.33 419.65,-41.21"/>
<polygon fill="black" stroke="black" points="421.81,-38.44 412.17,-34.05 416.97,-43.49 421.81,-38.44"/>
<text text-anchor="middle" x="407.17" y="-37.85" font-family="Times,serif" font-size="14.00">4</text>
</g>
<!-- rcos -->
<g id="node5" class="node">
<title>rcos</title>
<g id="a_node5"><a xlink:href="rcos.svg" xlink:title="rcos">
<ellipse fill="lightblue" stroke="black" cx="477.44" cy="-18" rx="30.59" ry="18"/>
<text text-anchor="middle" x="477.44" y="-14.3" font-family="Times,serif" font-size="14.00">rcos</text>
</a>
</g>
</g>
<!-- ric.func_801719A4&#45;&gt;rcos -->
<g id="edge4" class="edge">
<title>ric.func_801719A4&#45;&gt;rcos</title>
<path fill="none" stroke="black" d="M572.37,-179.93C553.73,-148.33 513.76,-80.57 492.11,-43.86"/>
<polygon fill="black" stroke="black" points="495.12,-42.08 487.02,-35.24 489.09,-45.63 495.12,-42.08"/>
<text text-anchor="middle" x="482.02" y="-39.04" font-family="Times,serif" font-size="14.00">2</text>
</g>
<!-- ric.CreateEntFactoryFromEntity -->
<g id="node6" class="node">
<title>ric.CreateEntFactoryFromEntity</title>
<g id="a_node6"><a xlink:href="ric.CreateEntFactoryFromEntity.svg" xlink:title="ric.CreateEntFactoryFromEntity">
<ellipse fill="green" stroke="black" cx="688.44" cy="-18" rx="162.47" ry="18"/>
<text text-anchor="middle" x="688.44" y="-14.3" font-family="Times,serif" font-size="14.00">ric.CreateEntFactoryFromEntity</text>
</a>
</g>
</g>
<!-- ric.func_801719A4&#45;&gt;ric.CreateEntFactoryFromEntity -->
<g id="edge5" class="edge">
<title>ric.func_801719A4&#45;&gt;ric.CreateEntFactoryFromEntity</title>
<path fill="none" stroke="black" d="M592.6,-179.93C611.28,-148.57 651.16,-81.6 673.13,-44.71"/>
<polygon fill="black" stroke="black" points="676.2,-46.4 678.31,-36.02 670.18,-42.82 676.2,-46.4"/>
<text text-anchor="middle" x="673.31" y="-39.82" font-family="Times,serif" font-size="14.00">4</text>
</g>
<!-- ric.DestroyEntity -->
<g id="node7" class="node">
<title>ric.DestroyEntity</title>
<g id="a_node7"><a xlink:href="ric.DestroyEntity.svg" xlink:title="ric.DestroyEntity">
<ellipse fill="green" stroke="black" cx="959.44" cy="-18" rx="90.98" ry="18"/>
<text text-anchor="middle" x="959.44" y="-14.3" font-family="Times,serif" font-size="14.00">ric.DestroyEntity</text>
</a>
</g>
</g>
<!-- ric.func_801719A4&#45;&gt;ric.DestroyEntity -->
<g id="edge6" class="edge">
<title>ric.func_801719A4&#45;&gt;ric.DestroyEntity</title>
<path fill="none" stroke="black" d="M616.23,-181.05C684.95,-148.6 840.89,-74.97 916.6,-39.23"/>
<polygon fill="black" stroke="black" points="918.32,-42.29 925.86,-34.85 915.33,-35.96 918.32,-42.29"/>
<text text-anchor="middle" x="920.86" y="-38.65" font-family="Times,serif" font-size="14.00">1</text>
</g>
<!-- ric.func_8015FAB8 -->
<g id="node8" class="node">
<title>ric.func_8015FAB8</title>
<g id="a_node8"><a xlink:href="ric.func_8015FAB8.svg" xlink:title="ric.func_8015FAB8">
<ellipse fill="green" stroke="black" cx="1166.44" cy="-18" rx="98.28" ry="18"/>
<text text-anchor="middle" x="1166.44" y="-14.3" font-family="Times,serif" font-size="14.00">ric.func_8015FAB8</text>
</a>
</g>
</g>
<!-- ric.func_801719A4&#45;&gt;ric.func_8015FAB8 -->
<g id="edge7" class="edge">
<title>ric.func_801719A4&#45;&gt;ric.func_8015FAB8</title>
<path fill="none" stroke="black" d="M630.73,-182.28C737.48,-149.75 993.15,-71.82 1108.39,-36.69"/>
<polygon fill="black" stroke="black" points="1109.55,-40 1118.1,-33.74 1107.51,-33.3 1109.55,-40"/>
<text text-anchor="middle" x="1113.1" y="-37.54" font-family="Times,serif" font-size="14.00">1</text>
</g>
<!-- rsin -->
<g id="node9" class="node">
<title>rsin</title>
<g id="a_node9"><a xlink:href="rsin.svg" xlink:title="rsin">
<ellipse fill="lightblue" stroke="black" cx="1311.44" cy="-18" rx="28.7" ry="18"/>
<text text-anchor="middle" x="1311.44" y="-14.3" font-family="Times,serif" font-size="14.00">rsin</text>
</a>
</g>
</g>
<!-- ric.func_801719A4&#45;&gt;rsin -->
<g id="edge8" class="edge">
<title>ric.func_801719A4&#45;&gt;rsin</title>
<path fill="none" stroke="black" d="M652.32,-185.31C778.44,-163.19 1051.64,-110.68 1273.44,-36 1275.56,-35.29 1277.71,-34.5 1279.87,-33.67"/>
<polygon fill="black" stroke="black" points="1281.32,-36.85 1289.22,-29.8 1278.64,-30.39 1281.32,-36.85"/>
<text text-anchor="middle" x="1284.22" y="-33.6" font-family="Times,serif" font-size="14.00">2</text>
</g>
</g>
</svg>
