<?xml version="1.0" encoding="UTF-8" standalone="no"?>
<!DOCTYPE svg PUBLIC "-//W3C//DTD SVG 1.1//EN"
 "http://www.w3.org/Graphics/SVG/1.1/DTD/svg11.dtd">
<!-- Generated by graphviz version 2.43.0 (0)
 -->
<!-- Title: ric.RicHandleHit Pages: 1 -->
<svg width="3650pt" height="404pt"
 viewBox="0.00 0.00 3650.09 404.00" xmlns="http://www.w3.org/2000/svg" xmlns:xlink="http://www.w3.org/1999/xlink">
<g id="graph0" class="graph" transform="scale(1 1) rotate(0) translate(4 400)">
<title>ric.RicHandleHit</title>
<polygon fill="white" stroke="transparent" points="-4,4 -4,-400 3646.09,-400 3646.09,4 -4,4"/>
<!-- ric.RicHandleHit -->
<g id="node1" class="node">
<title>ric.RicHandleHit</title>
<ellipse fill="green" stroke="black" cx="1872.34" cy="-198" rx="88.28" ry="18"/>
<text text-anchor="middle" x="1872.34" y="-194.3" font-family="Times,serif" font-size="14.00">ric.RicHandleHit</text>
</g>
<!-- dra.PlaySfx -->
<g id="node2" class="node">
<title>dra.PlaySfx</title>
<g id="a_node2"><a xlink:href="dra.PlaySfx.svg" xlink:title="dra.PlaySfx">
<ellipse fill="green" stroke="black" cx="64.34" cy="-18" rx="64.19" ry="18"/>
<text text-anchor="middle" x="64.34" y="-14.3" font-family="Times,serif" font-size="14.00">dra.PlaySfx</text>
</a>
</g>
</g>
<!-- ric.RicHandleHit&#45;&gt;dra.PlaySfx -->
<g id="edge1" class="edge">
<title>ric.RicHandleHit&#45;&gt;dra.PlaySfx</title>
<path fill="none" stroke="black" d="M1786.97,-193.2C1533.85,-181.07 765.93,-137.87 137.34,-36 131.67,-35.08 125.77,-33.97 119.91,-32.76"/>
<polygon fill="black" stroke="black" points="120.62,-29.34 110.11,-30.66 119.15,-36.18 120.62,-29.34"/>
<text text-anchor="middle" x="105.11" y="-34.46" font-family="Times,serif" font-size="14.00">6</text>
</g>
<!-- dra.func_800FD5BC -->
<g id="node3" class="node">
<title>dra.func_800FD5BC</title>
<g id="a_node3"><a xlink:href="dra.func_800FD5BC.svg" xlink:title="dra.func_800FD5BC">
<ellipse fill="green" stroke="black" cx="251.34" cy="-18" rx="104.78" ry="18"/>
<text text-anchor="middle" x="251.34" y="-14.3" font-family="Times,serif" font-size="14.00">dra.func_800FD5BC</text>
</a>
</g>
</g>
<!-- ric.RicHandleHit&#45;&gt;dra.func_800FD5BC -->
<g id="edge2" class="edge">
<title>ric.RicHandleHit&#45;&gt;dra.func_800FD5BC</title>
<path fill="none" stroke="black" d="M1793.31,-189.77C1569.07,-169 909.81,-106.12 364.34,-36 355.14,-34.82 345.53,-33.5 335.97,-32.14"/>
<polygon fill="black" stroke="black" points="336.44,-28.67 326.04,-30.7 335.44,-35.6 336.44,-28.67"/>
<text text-anchor="middle" x="321.04" y="-34.5" font-family="Times,serif" font-size="14.00">1</text>
</g>
<!-- dra.func_80102CD8 -->
<g id="node4" class="node">
<title>dra.func_80102CD8</title>
<g id="a_node4"><a xlink:href="dra.func_80102CD8.svg" xlink:title="dra.func_80102CD8">
<ellipse fill="green" stroke="black" cx="476.34" cy="-18" rx="102.88" ry="18"/>
<text text-anchor="middle" x="476.34" y="-14.3" font-family="Times,serif" font-size="14.00">dra.func_80102CD8</text>
</a>
</g>
</g>
<!-- ric.RicHandleHit&#45;&gt;dra.func_80102CD8 -->
<g id="edge3" class="edge">
<title>ric.RicHandleHit&#45;&gt;dra.func_80102CD8</title>
<path fill="none" stroke="black" d="M1797.65,-188.37C1599.95,-165.35 1046.64,-99.93 587.34,-36 578.48,-34.77 569.23,-33.43 560.01,-32.06"/>
<polygon fill="black" stroke="black" points="560.45,-28.59 550.04,-30.58 559.42,-35.51 560.45,-28.59"/>
<text text-anchor="middle" x="545.04" y="-34.38" font-family="Times,serif" font-size="14.00">2</text>
</g>
<!-- ric.RicCreateEntFactoryFromEntity -->
<g id="node5" class="node">
<title>ric.RicCreateEntFactoryFromEntity</title>
<g id="a_node5"><a xlink:href="ric.RicCreateEntFactoryFromEntity.svg" xlink:title="ric.RicCreateEntFactoryFromEntity">
<ellipse fill="green" stroke="black" cx="773.34" cy="-18" rx="176.57" ry="18"/>
<text text-anchor="middle" x="773.34" y="-14.3" font-family="Times,serif" font-size="14.00">ric.RicCreateEntFactoryFromEntity</text>
</a>
</g>
</g>
<!-- ric.RicHandleHit&#45;&gt;ric.RicCreateEntFactoryFromEntity -->
<g id="edge4" class="edge">
<title>ric.RicHandleHit&#45;&gt;ric.RicCreateEntFactoryFromEntity</title>
<path fill="none" stroke="black" d="M1805.25,-186.13C1618.79,-155.93 1093.61,-70.87 872.95,-35.13"/>
<polygon fill="black" stroke="black" points="873.42,-31.66 862.99,-33.52 872.31,-38.57 873.42,-31.66"/>
<text text-anchor="middle" x="853.49" y="-37.32" font-family="Times,serif" font-size="14.00">19</text>
</g>
<!-- ric.RicDecelerateX -->
<g id="node6" class="node">
<title>ric.RicDecelerateX</title>
<g id="a_node6"><a xlink:href="ric.RicDecelerateX.svg" xlink:title="ric.RicDecelerateX">
<ellipse fill="green" stroke="black" cx="1065.34" cy="-18" rx="96.68" ry="18"/>
<text text-anchor="middle" x="1065.34" y="-14.3" font-family="Times,serif" font-size="14.00">ric.RicDecelerateX</text>
</a>
</g>
</g>
<!-- ric.RicHandleHit&#45;&gt;ric.RicDecelerateX -->
<g id="edge5" class="edge">
<title>ric.RicHandleHit&#45;&gt;ric.RicDecelerateX</title>
<path fill="none" stroke="black" d="M1814.63,-184.27C1669.9,-152.35 1291.93,-68.98 1135.1,-34.39"/>
<polygon fill="black" stroke="black" points="1135.62,-30.92 1125.1,-32.18 1134.11,-37.75 1135.62,-30.92"/>
<text text-anchor="middle" x="1120.1" y="-35.98" font-family="Times,serif" font-size="14.00">3</text>
</g>
<!-- ric.RicHandleDead -->
<g id="node7" class="node">
<title>ric.RicHandleDead</title>
<g id="a_node7"><a xlink:href="ric.RicHandleDead.svg" xlink:title="ric.RicHandleDead">
<ellipse fill="green" stroke="black" cx="1277.34" cy="-18" rx="97.48" ry="18"/>
<text text-anchor="middle" x="1277.34" y="-14.3" font-family="Times,serif" font-size="14.00">ric.RicHandleDead</text>
</a>
</g>
</g>
<!-- ric.RicHandleHit&#45;&gt;ric.RicHandleDead -->
<g id="edge6" class="edge">
<title>ric.RicHandleHit&#45;&gt;ric.RicHandleDead</title>
<path fill="none" stroke="black" d="M1824.66,-182.73C1716.81,-150.47 1454.37,-71.96 1336.44,-36.68"/>
<polygon fill="black" stroke="black" points="1337.09,-33.22 1326.51,-33.71 1335.08,-39.93 1337.09,-33.22"/>
<text text-anchor="middle" x="1321.51" y="-37.51" font-family="Times,serif" font-size="14.00">1</text>
</g>
<!-- ric.RicSetCrouch -->
<g id="node8" class="node">
<title>ric.RicSetCrouch</title>
<g id="a_node8"><a xlink:href="ric.RicSetCrouch.svg" xlink:title="ric.RicSetCrouch">
<ellipse fill="green" stroke="black" cx="1482.34" cy="-18" rx="89.08" ry="18"/>
<text text-anchor="middle" x="1482.34" y="-14.3" font-family="Times,serif" font-size="14.00">ric.RicSetCrouch</text>
</a>
</g>
</g>
<!-- ric.RicHandleHit&#45;&gt;ric.RicSetCrouch -->
<g id="edge7" class="edge">
<title>ric.RicHandleHit&#45;&gt;ric.RicSetCrouch</title>
<path fill="none" stroke="black" d="M1838.08,-181.36C1767.08,-148.96 1604.02,-74.54 1525.78,-38.83"/>
<polygon fill="black" stroke="black" points="1527.22,-35.64 1516.67,-34.67 1524.32,-42 1527.22,-35.64"/>
<text text-anchor="middle" x="1511.67" y="-38.47" font-family="Times,serif" font-size="14.00">1</text>
</g>
<!-- ric.RicSetSpeedX -->
<g id="node9" class="node">
<title>ric.RicSetSpeedX</title>
<g id="a_node9"><a xlink:href="ric.RicSetSpeedX.svg" xlink:title="ric.RicSetSpeedX">
<ellipse fill="green" stroke="black" cx="1680.34" cy="-18" rx="90.98" ry="18"/>
<text text-anchor="middle" x="1680.34" y="-14.3" font-family="Times,serif" font-size="14.00">ric.RicSetSpeedX</text>
</a>
</g>
</g>
<!-- ric.RicHandleHit&#45;&gt;ric.RicSetSpeedX -->
<g id="edge8" class="edge">
<title>ric.RicHandleHit&#45;&gt;ric.RicSetSpeedX</title>
<path fill="none" stroke="black" d="M1854.28,-180.25C1819.97,-148.45 1745.3,-79.22 1705.89,-42.68"/>
<polygon fill="black" stroke="black" points="1708.21,-40.06 1698.5,-35.83 1703.45,-45.2 1708.21,-40.06"/>
<text text-anchor="middle" x="1693.5" y="-39.63" font-family="Times,serif" font-size="14.00">1</text>
</g>
<!-- ric.RicSetStand -->
<g id="node10" class="node">
<title>ric.RicSetStand</title>
<g id="a_node10"><a xlink:href="ric.RicSetStand.svg" xlink:title="ric.RicSetStand">
<ellipse fill="green" stroke="black" cx="1872.34" cy="-18" rx="83.39" ry="18"/>
<text text-anchor="middle" x="1872.34" y="-14.3" font-family="Times,serif" font-size="14.00">ric.RicSetStand</text>
</a>
</g>
</g>
<!-- ric.RicHandleHit&#45;&gt;ric.RicSetStand -->
<g id="edge9" class="edge">
<title>ric.RicHandleHit&#45;&gt;ric.RicSetStand</title>
<path fill="none" stroke="black" d="M1872.34,-179.93C1872.34,-148.97 1872.34,-83.3 1872.34,-46.13"/>
<polygon fill="black" stroke="black" points="1875.84,-46.02 1872.34,-36.02 1868.84,-46.02 1875.84,-46.02"/>
<text text-anchor="middle" x="1867.34" y="-39.82" font-family="Times,serif" font-size="14.00">1</text>
</g>
<!-- ric.RicSetStep -->
<g id="node11" class="node">
<title>ric.RicSetStep</title>
<g id="a_node11"><a xlink:href="ric.RicSetStep.svg" xlink:title="ric.RicSetStep">
<ellipse fill="green" stroke="black" cx="2051.34" cy="-18" rx="77.19" ry="18"/>
<text text-anchor="middle" x="2051.34" y="-14.3" font-family="Times,serif" font-size="14.00">ric.RicSetStep</text>
</a>
</g>
</g>
<!-- ric.RicHandleHit&#45;&gt;ric.RicSetStep -->
<g id="edge10" class="edge">
<title>ric.RicHandleHit&#45;&gt;ric.RicSetStep</title>
<path fill="none" stroke="black" d="M1889.18,-180.25C1921.03,-148.58 1990.2,-79.8 2027.07,-43.14"/>
<polygon fill="black" stroke="black" points="2029.8,-45.36 2034.42,-35.83 2024.86,-40.4 2029.8,-45.36"/>
<text text-anchor="middle" x="2029.42" y="-39.63" font-family="Times,serif" font-size="14.00">1</text>
</g>
<!-- ric.func_80158B04 -->
<g id="node12" class="node">
<title>ric.func_80158B04</title>
<g id="a_node12"><a xlink:href="ric.func_80158B04.svg" xlink:title="ric.func_80158B04">
<ellipse fill="green" stroke="black" cx="2244.34" cy="-18" rx="98.28" ry="18"/>
<text text-anchor="middle" x="2244.34" y="-14.3" font-family="Times,serif" font-size="14.00">ric.func_80158B04</text>
</a>
</g>
</g>
<!-- ric.RicHandleHit&#45;&gt;ric.func_80158B04 -->
<g id="edge11" class="edge">
<title>ric.RicHandleHit&#45;&gt;ric.func_80158B04</title>
<path fill="none" stroke="black" d="M1905.36,-181.2C1972.88,-148.89 2126.73,-75.28 2201.7,-39.41"/>
<polygon fill="black" stroke="black" points="2203.36,-42.49 2210.87,-35.02 2200.34,-36.18 2203.36,-42.49"/>
<text text-anchor="middle" x="2205.87" y="-38.82" font-family="Times,serif" font-size="14.00">2</text>
</g>
<!-- ric.func_80159BC8 -->
<g id="node13" class="node">
<title>ric.func_80159BC8</title>
<g id="a_node13"><a xlink:href="ric.func_80159BC8.svg" xlink:title="ric.func_80159BC8">
<ellipse fill="green" stroke="black" cx="2459.34" cy="-18" rx="98.58" ry="18"/>
<text text-anchor="middle" x="2459.34" y="-14.3" font-family="Times,serif" font-size="14.00">ric.func_80159BC8</text>
</a>
</g>
</g>
<!-- ric.RicHandleHit&#45;&gt;ric.func_80159BC8 -->
<g id="edge12" class="edge">
<title>ric.RicHandleHit&#45;&gt;ric.func_80159BC8</title>
<path fill="none" stroke="black" d="M1919.39,-182.73C2025.79,-150.47 2284.7,-71.96 2401.04,-36.68"/>
<polygon fill="black" stroke="black" points="2402.29,-39.96 2410.84,-33.71 2400.26,-33.26 2402.29,-39.96"/>
<text text-anchor="middle" x="2405.84" y="-37.51" font-family="Times,serif" font-size="14.00">1</text>
</g>
<!-- ric.func_80159C04 -->
<g id="node14" class="node">
<title>ric.func_80159C04</title>
<g id="a_node14"><a xlink:href="ric.func_80159C04.svg" xlink:title="ric.func_80159C04">
<ellipse fill="green" stroke="black" cx="2674.34" cy="-18" rx="98.28" ry="18"/>
<text text-anchor="middle" x="2674.34" y="-14.3" font-family="Times,serif" font-size="14.00">ric.func_80159C04</text>
</a>
</g>
</g>
<!-- ric.RicHandleHit&#45;&gt;ric.func_80159C04 -->
<g id="edge13" class="edge">
<title>ric.RicHandleHit&#45;&gt;ric.func_80159C04</title>
<path fill="none" stroke="black" d="M1929.7,-184.27C2073.36,-152.39 2448.25,-69.18 2604.45,-34.51"/>
<polygon fill="black" stroke="black" points="2605.41,-37.89 2614.41,-32.3 2603.89,-31.05 2605.41,-37.89"/>
<text text-anchor="middle" x="2609.41" y="-36.1" font-family="Times,serif" font-size="14.00">1</text>
</g>
<!-- ric.func_8015CAAC -->
<g id="node15" class="node">
<title>ric.func_8015CAAC</title>
<g id="a_node15"><a xlink:href="ric.func_8015CAAC.svg" xlink:title="ric.func_8015CAAC">
<ellipse fill="green" stroke="black" cx="2890.34" cy="-18" rx="100.18" ry="18"/>
<text text-anchor="middle" x="2890.34" y="-14.3" font-family="Times,serif" font-size="14.00">ric.func_8015CAAC</text>
</a>
</g>
</g>
<!-- ric.RicHandleHit&#45;&gt;ric.func_8015CAAC -->
<g id="edge14" class="edge">
<title>ric.RicHandleHit&#45;&gt;ric.func_8015CAAC</title>
<path fill="none" stroke="black" d="M1937.18,-185.66C2116.15,-154.37 2616.62,-66.86 2811.38,-32.81"/>
<polygon fill="black" stroke="black" points="2812.01,-36.25 2821.26,-31.08 2810.81,-29.35 2812.01,-36.25"/>
<text text-anchor="middle" x="2816.26" y="-34.88" font-family="Times,serif" font-size="14.00">6</text>
</g>
<!-- ric.func_8015CF08 -->
<g id="node16" class="node">
<title>ric.func_8015CF08</title>
<g id="a_node16"><a xlink:href="ric.func_8015CF08.svg" xlink:title="ric.func_8015CF08">
<ellipse fill="green" stroke="black" cx="3107.34" cy="-18" rx="98.58" ry="18"/>
<text text-anchor="middle" x="3107.34" y="-14.3" font-family="Times,serif" font-size="14.00">ric.func_8015CF08</text>
</a>
</g>
</g>
<!-- ric.RicHandleHit&#45;&gt;ric.func_8015CF08 -->
<g id="edge15" class="edge">
<title>ric.RicHandleHit&#45;&gt;ric.func_8015CF08</title>
<path fill="none" stroke="black" d="M1943.27,-187.22C2121.12,-162.64 2600.37,-95.9 2999.34,-36 3007.87,-34.72 3016.77,-33.36 3025.64,-31.99"/>
<polygon fill="black" stroke="black" points="3026.28,-35.43 3035.62,-30.44 3025.2,-28.51 3026.28,-35.43"/>
<text text-anchor="middle" x="3030.62" y="-34.24" font-family="Times,serif" font-size="14.00">2</text>
</g>
<!-- ric.func_8015D9B4 -->
<g id="node17" class="node">
<title>ric.func_8015D9B4</title>
<g id="a_node17"><a xlink:href="ric.func_8015D9B4.svg" xlink:title="ric.func_8015D9B4">
<ellipse fill="green" stroke="black" cx="3323.34" cy="-18" rx="99.38" ry="18"/>
<text text-anchor="middle" x="3323.34" y="-14.3" font-family="Times,serif" font-size="14.00">ric.func_8015D9B4</text>
</a>
</g>
</g>
<!-- ric.RicHandleHit&#45;&gt;ric.func_8015D9B4 -->
<g id="edge16" class="edge">
<title>ric.RicHandleHit&#45;&gt;ric.func_8015D9B4</title>
<path fill="none" stroke="black" d="M1948.57,-188.86C2153.64,-166.73 2734.14,-102.69 3215.34,-36 3223.95,-34.81 3232.93,-33.5 3241.88,-32.15"/>
<polygon fill="black" stroke="black" points="3242.58,-35.58 3251.94,-30.62 3241.53,-28.66 3242.58,-35.58"/>
<text text-anchor="middle" x="3246.94" y="-34.42" font-family="Times,serif" font-size="14.00">1</text>
</g>
<!-- ric.func_8015DBB0 -->
<g id="node18" class="node">
<title>ric.func_8015DBB0</title>
<g id="a_node18"><a xlink:href="ric.func_8015DBB0.svg" xlink:title="ric.func_8015DBB0">
<ellipse fill="green" stroke="black" cx="3541.34" cy="-18" rx="100.98" ry="18"/>
<text text-anchor="middle" x="3541.34" y="-14.3" font-family="Times,serif" font-size="14.00">ric.func_8015DBB0</text>
</a>
</g>
</g>
<!-- ric.RicHandleHit&#45;&gt;ric.func_8015DBB0 -->
<g id="edge17" class="edge">
<title>ric.RicHandleHit&#45;&gt;ric.func_8015DBB0</title>
<path fill="none" stroke="black" d="M1952.42,-190.17C2182.69,-170.21 2866.31,-108.79 3431.34,-36 3440.42,-34.83 3449.91,-33.51 3459.34,-32.14"/>
<polygon fill="black" stroke="black" points="3460.15,-35.56 3469.53,-30.63 3459.12,-28.63 3460.15,-35.56"/>
<text text-anchor="middle" x="3464.53" y="-34.43" font-family="Times,serif" font-size="14.00">1</text>
</g>
<!-- ric.RicMain -->
<g id="node19" class="node">
<title>ric.RicMain</title>
<g id="a_node19"><a xlink:href="ric.RicMain.svg" xlink:title="ric.RicMain">
<ellipse fill="green" stroke="black" cx="1872.34" cy="-378" rx="63.89" ry="18"/>
<text text-anchor="middle" x="1872.34" y="-374.3" font-family="Times,serif" font-size="14.00">ric.RicMain</text>
</a>
</g>
</g>
<!-- ric.RicMain&#45;&gt;ric.RicHandleHit -->
<g id="edge18" class="edge">
<title>ric.RicMain&#45;&gt;ric.RicHandleHit</title>
<path fill="none" stroke="black" d="M1872.34,-359.93C1872.34,-328.97 1872.34,-263.3 1872.34,-226.13"/>
<polygon fill="black" stroke="black" points="1875.84,-226.02 1872.34,-216.02 1868.84,-226.02 1875.84,-226.02"/>
<text text-anchor="middle" x="1867.34" y="-348.73" font-family="Times,serif" font-size="14.00">1</text>
</g>
</g>
</svg>
