<?xml version="1.0" encoding="UTF-8" standalone="no"?>
<!DOCTYPE svg PUBLIC "-//W3C//DTD SVG 1.1//EN"
 "http://www.w3.org/Graphics/SVG/1.1/DTD/svg11.dtd">
<!-- Generated by graphviz version 2.43.0 (0)
 -->
<!-- Title: ric.RicEntityCrashAxe Pages: 1 -->
<svg width="1035pt" height="224pt"
 viewBox="0.00 0.00 1035.04 224.00" xmlns="http://www.w3.org/2000/svg" xmlns:xlink="http://www.w3.org/1999/xlink">
<g id="graph0" class="graph" transform="scale(1 1) rotate(0) translate(4 220)">
<title>ric.RicEntityCrashAxe</title>
<polygon fill="white" stroke="transparent" points="-4,4 -4,-220 1031.04,-220 1031.04,4 -4,4"/>
<!-- ric.RicEntityCrashAxe -->
<g id="node1" class="node">
<title>ric.RicEntityCrashAxe</title>
<ellipse fill="green" stroke="black" cx="484.44" cy="-198" rx="113.98" ry="18"/>
<text text-anchor="middle" x="484.44" y="-194.3" font-family="Times,serif" font-size="14.00">ric.RicEntityCrashAxe</text>
</g>
<!-- dra.AllocPrimitives -->
<g id="node2" class="node">
<title>dra.AllocPrimitives</title>
<g id="a_node2"><a xlink:href="dra.AllocPrimitives.svg" xlink:title="dra.AllocPrimitives">
<ellipse fill="green" stroke="black" cx="99.44" cy="-18" rx="99.38" ry="18"/>
<text text-anchor="middle" x="99.44" y="-14.3" font-family="Times,serif" font-size="14.00">dra.AllocPrimitives</text>
</a>
</g>
</g>
<!-- ric.RicEntityCrashAxe&#45;&gt;dra.AllocPrimitives -->
<g id="edge1" class="edge">
<title>ric.RicEntityCrashAxe&#45;&gt;dra.AllocPrimitives</title>
<path fill="none" stroke="black" d="M449.25,-180.73C378.76,-148.14 220.39,-74.92 143.29,-39.27"/>
<polygon fill="black" stroke="black" points="144.4,-35.93 133.85,-34.91 141.46,-42.28 144.4,-35.93"/>
<text text-anchor="middle" x="128.85" y="-38.71" font-family="Times,serif" font-size="14.00">1</text>
</g>
<!-- g_api_PlaySfx -->
<g id="node3" class="node">
<title>g_api_PlaySfx</title>
<g id="a_node3"><a xlink:href="g_api_PlaySfx.svg" xlink:title="g_api_PlaySfx">
<ellipse fill="lightblue" stroke="black" cx="291.44" cy="-18" rx="74.99" ry="18"/>
<text text-anchor="middle" x="291.44" y="-14.3" font-family="Times,serif" font-size="14.00">g_api_PlaySfx</text>
</a>
</g>
</g>
<!-- ric.RicEntityCrashAxe&#45;&gt;g_api_PlaySfx -->
<g id="edge2" class="edge">
<title>ric.RicEntityCrashAxe&#45;&gt;g_api_PlaySfx</title>
<path fill="none" stroke="black" d="M465.94,-179.93C431.17,-147.87 356.08,-78.62 316.71,-42.3"/>
<polygon fill="black" stroke="black" points="319.05,-39.7 309.33,-35.5 314.31,-44.85 319.05,-39.7"/>
<text text-anchor="middle" x="304.33" y="-39.3" font-family="Times,serif" font-size="14.00">2</text>
</g>
<!-- rcos -->
<g id="node4" class="node">
<title>rcos</title>
<g id="a_node4"><a xlink:href="rcos.svg" xlink:title="rcos">
<ellipse fill="lightblue" stroke="black" cx="414.44" cy="-18" rx="30.59" ry="18"/>
<text text-anchor="middle" x="414.44" y="-14.3" font-family="Times,serif" font-size="14.00">rcos</text>
</a>
</g>
</g>
<!-- ric.RicEntityCrashAxe&#45;&gt;rcos -->
<g id="edge3" class="edge">
<title>ric.RicEntityCrashAxe&#45;&gt;rcos</title>
<path fill="none" stroke="black" d="M477.73,-179.93C465.47,-148.75 439.37,-82.4 424.81,-45.37"/>
<polygon fill="black" stroke="black" points="427.95,-43.78 421.03,-35.76 421.43,-46.34 427.95,-43.78"/>
<text text-anchor="middle" x="416.03" y="-39.56" font-family="Times,serif" font-size="14.00">6</text>
</g>
<!-- ric.DestroyEntity -->
<g id="node5" class="node">
<title>ric.DestroyEntity</title>
<g id="a_node5"><a xlink:href="ric.DestroyEntity.svg" xlink:title="ric.DestroyEntity">
<ellipse fill="green" stroke="black" cx="554.44" cy="-18" rx="90.98" ry="18"/>
<text text-anchor="middle" x="554.44" y="-14.3" font-family="Times,serif" font-size="14.00">ric.DestroyEntity</text>
</a>
</g>
</g>
<!-- ric.RicEntityCrashAxe&#45;&gt;ric.DestroyEntity -->
<g id="edge4" class="edge">
<title>ric.RicEntityCrashAxe&#45;&gt;ric.DestroyEntity</title>
<path fill="none" stroke="black" d="M491.15,-179.93C503.38,-148.83 529.38,-82.73 543.96,-45.65"/>
<polygon fill="black" stroke="black" points="547.35,-46.6 547.75,-36.02 540.83,-44.04 547.35,-46.6"/>
<text text-anchor="middle" x="542.75" y="-39.82" font-family="Times,serif" font-size="14.00">1</text>
</g>
<!-- ric.RicSetSubweaponParams -->
<g id="node6" class="node">
<title>ric.RicSetSubweaponParams</title>
<g id="a_node6"><a xlink:href="ric.RicSetSubweaponParams.svg" xlink:title="ric.RicSetSubweaponParams">
<ellipse fill="green" stroke="black" cx="807.44" cy="-18" rx="144.07" ry="18"/>
<text text-anchor="middle" x="807.44" y="-14.3" font-family="Times,serif" font-size="14.00">ric.RicSetSubweaponParams</text>
</a>
</g>
</g>
<!-- ric.RicEntityCrashAxe&#45;&gt;ric.RicSetSubweaponParams -->
<g id="edge5" class="edge">
<title>ric.RicEntityCrashAxe&#45;&gt;ric.RicSetSubweaponParams</title>
<path fill="none" stroke="black" d="M514.25,-180.57C572.87,-148.27 703.11,-76.49 768.46,-40.48"/>
<polygon fill="black" stroke="black" points="770.17,-43.54 777.24,-35.65 766.79,-37.41 770.17,-43.54"/>
<text text-anchor="middle" x="772.24" y="-39.45" font-family="Times,serif" font-size="14.00">1</text>
</g>
<!-- rsin -->
<g id="node7" class="node">
<title>rsin</title>
<g id="a_node7"><a xlink:href="rsin.svg" xlink:title="rsin">
<ellipse fill="lightblue" stroke="black" cx="998.44" cy="-18" rx="28.7" ry="18"/>
<text text-anchor="middle" x="998.44" y="-14.3" font-family="Times,serif" font-size="14.00">rsin</text>
</a>
</g>
</g>
<!-- ric.RicEntityCrashAxe&#45;&gt;rsin -->
<g id="edge6" class="edge">
<title>ric.RicEntityCrashAxe&#45;&gt;rsin</title>
<path fill="none" stroke="black" d="M534.68,-181.73C622.11,-154.77 807.53,-95.91 960.44,-36 962.52,-35.19 964.65,-34.32 966.79,-33.43"/>
<polygon fill="black" stroke="black" points="968.29,-36.59 976.09,-29.42 965.52,-30.17 968.29,-36.59"/>
<text text-anchor="middle" x="971.09" y="-33.22" font-family="Times,serif" font-size="14.00">6</text>
</g>
</g>
</svg>
