<?xml version="1.0" encoding="UTF-8" standalone="no"?>
<!DOCTYPE svg PUBLIC "-//W3C//DTD SVG 1.1//EN"
 "http://www.w3.org/Graphics/SVG/1.1/DTD/svg11.dtd">
<!-- Generated by graphviz version 2.43.0 (0)
 -->
<!-- Title: ric.func_80167EC4 Pages: 1 -->
<svg width="1227pt" height="224pt"
 viewBox="0.00 0.00 1227.04 224.00" xmlns="http://www.w3.org/2000/svg" xmlns:xlink="http://www.w3.org/1999/xlink">
<g id="graph0" class="graph" transform="scale(1 1) rotate(0) translate(4 220)">
<title>ric.func_80167EC4</title>
<polygon fill="white" stroke="transparent" points="-4,4 -4,-220 1223.04,-220 1223.04,4 -4,4"/>
<!-- ric.func_80167EC4 -->
<g id="node1" class="node">
<title>ric.func_80167EC4</title>
<ellipse fill="red" stroke="black" cx="657.44" cy="-198" rx="98.58" ry="18"/>
<text text-anchor="middle" x="657.44" y="-194.3" font-family="Times,serif" font-size="14.00">ric.func_80167EC4</text>
</g>
<!-- dra.AllocPrimitives -->
<g id="node2" class="node">
<title>dra.AllocPrimitives</title>
<g id="a_node2"><a xlink:href="dra.AllocPrimitives.svg" xlink:title="dra.AllocPrimitives">
<ellipse fill="green" stroke="black" cx="99.44" cy="-18" rx="99.38" ry="18"/>
<text text-anchor="middle" x="99.44" y="-14.3" font-family="Times,serif" font-size="14.00">dra.AllocPrimitives</text>
</a>
</g>
</g>
<!-- ric.func_80167EC4&#45;&gt;dra.AllocPrimitives -->
<g id="edge1" class="edge">
<title>ric.func_80167EC4&#45;&gt;dra.AllocPrimitives</title>
<path fill="none" stroke="black" d="M610.35,-181.98C508.07,-149.35 266.01,-72.13 155.82,-36.98"/>
<polygon fill="black" stroke="black" points="156.8,-33.62 146.21,-33.92 154.68,-40.29 156.8,-33.62"/>
<text text-anchor="middle" x="141.21" y="-37.72" font-family="Times,serif" font-size="14.00">1</text>
</g>
<!-- dra.PlaySfx -->
<g id="node3" class="node">
<title>dra.PlaySfx</title>
<g id="a_node3"><a xlink:href="dra.PlaySfx.svg" xlink:title="dra.PlaySfx">
<ellipse fill="green" stroke="black" cx="281.44" cy="-18" rx="64.19" ry="18"/>
<text text-anchor="middle" x="281.44" y="-14.3" font-family="Times,serif" font-size="14.00">dra.PlaySfx</text>
</a>
</g>
</g>
<!-- ric.func_80167EC4&#45;&gt;dra.PlaySfx -->
<g id="edge2" class="edge">
<title>ric.func_80167EC4&#45;&gt;dra.PlaySfx</title>
<path fill="none" stroke="black" d="M623.74,-181.05C554.51,-148.27 396.53,-73.48 321.9,-38.16"/>
<polygon fill="black" stroke="black" points="323.34,-34.96 312.8,-33.85 320.34,-41.29 323.34,-34.96"/>
<text text-anchor="middle" x="307.8" y="-37.65" font-family="Times,serif" font-size="14.00">1</text>
</g>
<!-- dra.func_801027C4 -->
<g id="node4" class="node">
<title>dra.func_801027C4</title>
<g id="a_node4"><a xlink:href="dra.func_801027C4.svg" xlink:title="dra.func_801027C4">
<ellipse fill="green" stroke="black" cx="465.44" cy="-18" rx="101.28" ry="18"/>
<text text-anchor="middle" x="465.44" y="-14.3" font-family="Times,serif" font-size="14.00">dra.func_801027C4</text>
</a>
</g>
</g>
<!-- ric.func_80167EC4&#45;&gt;dra.func_801027C4 -->
<g id="edge3" class="edge">
<title>ric.func_80167EC4&#45;&gt;dra.func_801027C4</title>
<path fill="none" stroke="black" d="M639.38,-180.25C605.07,-148.45 530.4,-79.22 490.99,-42.68"/>
<polygon fill="black" stroke="black" points="493.31,-40.06 483.6,-35.83 488.55,-45.2 493.31,-40.06"/>
<text text-anchor="middle" x="478.6" y="-39.63" font-family="Times,serif" font-size="14.00">1</text>
</g>
<!-- rand -->
<g id="node5" class="node">
<title>rand</title>
<g id="a_node5"><a xlink:href="rand.svg" xlink:title="rand">
<ellipse fill="lightblue" stroke="black" cx="617.44" cy="-18" rx="32.49" ry="18"/>
<text text-anchor="middle" x="617.44" y="-14.3" font-family="Times,serif" font-size="14.00">rand</text>
</a>
</g>
</g>
<!-- ric.func_80167EC4&#45;&gt;rand -->
<g id="edge4" class="edge">
<title>ric.func_80167EC4&#45;&gt;rand</title>
<path fill="none" stroke="black" d="M653.61,-179.93C646.65,-148.97 631.89,-83.3 623.54,-46.13"/>
<polygon fill="black" stroke="black" points="626.87,-45 621.26,-36.02 620.04,-46.54 626.87,-45"/>
<text text-anchor="middle" x="616.26" y="-39.82" font-family="Times,serif" font-size="14.00">4</text>
</g>
<!-- rcos -->
<g id="node6" class="node">
<title>rcos</title>
<g id="a_node6"><a xlink:href="rcos.svg" xlink:title="rcos">
<ellipse fill="lightblue" stroke="black" cx="698.44" cy="-18" rx="30.59" ry="18"/>
<text text-anchor="middle" x="698.44" y="-14.3" font-family="Times,serif" font-size="14.00">rcos</text>
</a>
</g>
</g>
<!-- ric.func_80167EC4&#45;&gt;rcos -->
<g id="edge5" class="edge">
<title>ric.func_80167EC4&#45;&gt;rcos</title>
<path fill="none" stroke="black" d="M661.37,-179.93C668.51,-148.97 683.63,-83.3 692.19,-46.13"/>
<polygon fill="black" stroke="black" points="695.69,-46.55 694.52,-36.02 688.87,-44.97 695.69,-46.55"/>
<text text-anchor="middle" x="689.52" y="-39.82" font-family="Times,serif" font-size="14.00">1</text>
</g>
<!-- ric.DestroyEntity -->
<g id="node7" class="node">
<title>ric.DestroyEntity</title>
<g id="a_node7"><a xlink:href="ric.DestroyEntity.svg" xlink:title="ric.DestroyEntity">
<ellipse fill="green" stroke="black" cx="838.44" cy="-18" rx="90.98" ry="18"/>
<text text-anchor="middle" x="838.44" y="-14.3" font-family="Times,serif" font-size="14.00">ric.DestroyEntity</text>
</a>
</g>
</g>
<!-- ric.func_80167EC4&#45;&gt;ric.DestroyEntity -->
<g id="edge6" class="edge">
<title>ric.func_80167EC4&#45;&gt;ric.DestroyEntity</title>
<path fill="none" stroke="black" d="M674.47,-180.25C706.68,-148.58 776.62,-79.8 813.89,-43.14"/>
<polygon fill="black" stroke="black" points="816.65,-45.34 821.33,-35.83 811.74,-40.35 816.65,-45.34"/>
<text text-anchor="middle" x="816.33" y="-39.63" font-family="Times,serif" font-size="14.00">2</text>
</g>
<!-- ric.func_8015FAB8 -->
<g id="node8" class="node">
<title>ric.func_8015FAB8</title>
<g id="a_node8"><a xlink:href="ric.func_8015FAB8.svg" xlink:title="ric.func_8015FAB8">
<ellipse fill="green" stroke="black" cx="1045.44" cy="-18" rx="98.28" ry="18"/>
<text text-anchor="middle" x="1045.44" y="-14.3" font-family="Times,serif" font-size="14.00">ric.func_8015FAB8</text>
</a>
</g>
</g>
<!-- ric.func_80167EC4&#45;&gt;ric.func_8015FAB8 -->
<g id="edge7" class="edge">
<title>ric.func_80167EC4&#45;&gt;ric.func_8015FAB8</title>
<path fill="none" stroke="black" d="M692.22,-181.05C762.94,-148.6 923.43,-74.97 1001.35,-39.23"/>
<polygon fill="black" stroke="black" points="1003.25,-42.2 1010.88,-34.85 1000.34,-35.84 1003.25,-42.2"/>
<text text-anchor="middle" x="1005.88" y="-38.65" font-family="Times,serif" font-size="14.00">1</text>
</g>
<!-- rsin -->
<g id="node9" class="node">
<title>rsin</title>
<g id="a_node9"><a xlink:href="rsin.svg" xlink:title="rsin">
<ellipse fill="lightblue" stroke="black" cx="1190.44" cy="-18" rx="28.7" ry="18"/>
<text text-anchor="middle" x="1190.44" y="-14.3" font-family="Times,serif" font-size="14.00">rsin</text>
</a>
</g>
</g>
<!-- ric.func_80167EC4&#45;&gt;rsin -->
<g id="edge8" class="edge">
<title>ric.func_80167EC4&#45;&gt;rsin</title>
<path fill="none" stroke="black" d="M707.94,-182.51C798.18,-156.19 992.63,-97.54 1152.44,-36 1154.52,-35.2 1156.66,-34.34 1158.8,-33.46"/>
<polygon fill="black" stroke="black" points="1160.29,-36.63 1168.1,-29.47 1157.53,-30.19 1160.29,-36.63"/>
<text text-anchor="middle" x="1163.1" y="-33.27" font-family="Times,serif" font-size="14.00">1</text>
</g>
</g>
</svg>
