<?xml version="1.0" encoding="UTF-8" standalone="no"?>
<!DOCTYPE svg PUBLIC "-//W3C//DTD SVG 1.1//EN"
 "http://www.w3.org/Graphics/SVG/1.1/DTD/svg11.dtd">
<!-- Generated by graphviz version 2.43.0 (0)
 -->
<!-- Title: ric.RicSetSubweaponParams Pages: 1 -->
<svg width="6774pt" height="404pt"
 viewBox="0.00 0.00 6774.08 404.00" xmlns="http://www.w3.org/2000/svg" xmlns:xlink="http://www.w3.org/1999/xlink">
<g id="graph0" class="graph" transform="scale(1 1) rotate(0) translate(4 400)">
<title>ric.RicSetSubweaponParams</title>
<polygon fill="white" stroke="transparent" points="-4,4 -4,-400 6770.08,-400 6770.08,4 -4,4"/>
<!-- ric.RicSetSubweaponParams -->
<g id="node1" class="node">
<title>ric.RicSetSubweaponParams</title>
<ellipse fill="green" stroke="black" cx="3470.24" cy="-198" rx="144.07" ry="18"/>
<text text-anchor="middle" x="3470.24" y="-194.3" font-family="Times,serif" font-size="14.00">ric.RicSetSubweaponParams</text>
</g>
<!-- dra.func_800FD664 -->
<g id="node2" class="node">
<title>dra.func_800FD664</title>
<g id="a_node2"><a xlink:href="dra.func_800FD664.svg" xlink:title="dra.func_800FD664">
<ellipse fill="green" stroke="black" cx="3361.24" cy="-18" rx="102.88" ry="18"/>
<text text-anchor="middle" x="3361.24" y="-14.3" font-family="Times,serif" font-size="14.00">dra.func_800FD664</text>
</a>
</g>
</g>
<!-- ric.RicSetSubweaponParams&#45;&gt;dra.func_800FD664 -->
<g id="edge1" class="edge">
<title>ric.RicSetSubweaponParams&#45;&gt;dra.func_800FD664</title>
<path fill="none" stroke="black" d="M3459.79,-179.93C3440.58,-148.57 3399.58,-81.6 3376.98,-44.71"/>
<polygon fill="black" stroke="black" points="3379.87,-42.72 3371.66,-36.02 3373.9,-46.37 3379.87,-42.72"/>
<text text-anchor="middle" x="3366.66" y="-39.82" font-family="Times,serif" font-size="14.00">1</text>
</g>
<!-- ric.func_8015F9F0 -->
<g id="node3" class="node">
<title>ric.func_8015F9F0</title>
<g id="a_node3"><a xlink:href="ric.func_8015F9F0.svg" xlink:title="ric.func_8015F9F0">
<ellipse fill="green" stroke="black" cx="3580.24" cy="-18" rx="98.28" ry="18"/>
<text text-anchor="middle" x="3580.24" y="-14.3" font-family="Times,serif" font-size="14.00">ric.func_8015F9F0</text>
</a>
</g>
</g>
<!-- ric.RicSetSubweaponParams&#45;&gt;ric.func_8015F9F0 -->
<g id="edge2" class="edge">
<title>ric.RicSetSubweaponParams&#45;&gt;ric.func_8015F9F0</title>
<path fill="none" stroke="black" d="M3480.79,-179.93C3500.17,-148.57 3541.55,-81.6 3564.35,-44.71"/>
<polygon fill="black" stroke="black" points="3567.45,-46.36 3569.73,-36.02 3561.49,-42.68 3567.45,-46.36"/>
<text text-anchor="middle" x="3564.73" y="-39.82" font-family="Times,serif" font-size="14.00">1</text>
</g>
<!-- ric.BladeDashHelper -->
<g id="node4" class="node">
<title>ric.BladeDashHelper</title>
<g id="a_node4"><a xlink:href="ric.BladeDashHelper.svg" xlink:title="ric.BladeDashHelper">
<ellipse fill="green" stroke="black" cx="107.24" cy="-378" rx="107.48" ry="18"/>
<text text-anchor="middle" x="107.24" y="-374.3" font-family="Times,serif" font-size="14.00">ric.BladeDashHelper</text>
</a>
</g>
</g>
<!-- ric.BladeDashHelper&#45;&gt;ric.RicSetSubweaponParams -->
<g id="edge3" class="edge">
<title>ric.BladeDashHelper&#45;&gt;ric.RicSetSubweaponParams</title>
<path fill="none" stroke="black" d="M182.01,-365.06C196.02,-363.13 210.55,-361.33 224.24,-360 1412.35,-244.48 2853.63,-209.94 3318.18,-201.43"/>
<polygon fill="black" stroke="black" points="3318.37,-204.92 3328.31,-201.24 3318.24,-197.93 3318.37,-204.92"/>
<text text-anchor="middle" x="177.01" y="-353.86" font-family="Times,serif" font-size="14.00">1</text>
</g>
<!-- ric.EntityAguneaCircle -->
<g id="node5" class="node">
<title>ric.EntityAguneaCircle</title>
<g id="a_node5"><a xlink:href="ric.EntityAguneaCircle.svg" xlink:title="ric.EntityAguneaCircle">
<ellipse fill="green" stroke="black" cx="349.24" cy="-378" rx="116.18" ry="18"/>
<text text-anchor="middle" x="349.24" y="-374.3" font-family="Times,serif" font-size="14.00">ric.EntityAguneaCircle</text>
</a>
</g>
</g>
<!-- ric.EntityAguneaCircle&#45;&gt;ric.RicSetSubweaponParams -->
<g id="edge4" class="edge">
<title>ric.EntityAguneaCircle&#45;&gt;ric.RicSetSubweaponParams</title>
<path fill="none" stroke="black" d="M430.47,-365.06C445.34,-363.16 460.74,-361.37 475.24,-360 1563.78,-257.48 2881.5,-214.82 3320.16,-202.8"/>
<polygon fill="black" stroke="black" points="3320.46,-206.29 3330.36,-202.52 3320.27,-199.3 3320.46,-206.29"/>
<text text-anchor="middle" x="425.47" y="-353.86" font-family="Times,serif" font-size="14.00">1</text>
</g>
<!-- ric.EntityBiblePageBeam -->
<g id="node6" class="node">
<title>ric.EntityBiblePageBeam</title>
<g id="a_node6"><a xlink:href="ric.EntityBiblePageBeam.svg" xlink:title="ric.EntityBiblePageBeam">
<ellipse fill="green" stroke="black" cx="611.24" cy="-378" rx="127.28" ry="18"/>
<text text-anchor="middle" x="611.24" y="-374.3" font-family="Times,serif" font-size="14.00">ric.EntityBiblePageBeam</text>
</a>
</g>
</g>
<!-- ric.EntityBiblePageBeam&#45;&gt;ric.RicSetSubweaponParams -->
<g id="edge5" class="edge">
<title>ric.EntityBiblePageBeam&#45;&gt;ric.RicSetSubweaponParams</title>
<path fill="none" stroke="black" d="M700.03,-365.05C715.74,-363.18 731.96,-361.41 747.24,-360 1729.04,-269.71 2914.9,-219.79 3323.55,-204.3"/>
<polygon fill="black" stroke="black" points="3323.79,-207.79 3333.65,-203.92 3323.52,-200.8 3323.79,-207.79"/>
<text text-anchor="middle" x="695.03" y="-353.85" font-family="Times,serif" font-size="14.00">1</text>
</g>
<!-- ric.EntityCrossBoomerang -->
<g id="node7" class="node">
<title>ric.EntityCrossBoomerang</title>
<g id="a_node7"><a xlink:href="ric.EntityCrossBoomerang.svg" xlink:title="ric.EntityCrossBoomerang">
<ellipse fill="green" stroke="black" cx="890.24" cy="-378" rx="133.78" ry="18"/>
<text text-anchor="middle" x="890.24" y="-374.3" font-family="Times,serif" font-size="14.00">ric.EntityCrossBoomerang</text>
</a>
</g>
</g>
<!-- ric.EntityCrossBoomerang&#45;&gt;ric.RicSetSubweaponParams -->
<g id="edge6" class="edge">
<title>ric.EntityCrossBoomerang&#45;&gt;ric.RicSetSubweaponParams</title>
<path fill="none" stroke="black" d="M984.01,-365.14C1000.4,-363.27 1017.31,-361.47 1033.24,-360 1903.51,-279.58 2952.23,-224.29 3327.86,-205.8"/>
<polygon fill="black" stroke="black" points="3328.15,-209.29 3337.96,-205.3 3327.8,-202.29 3328.15,-209.29"/>
<text text-anchor="middle" x="979.01" y="-353.94" font-family="Times,serif" font-size="14.00">1</text>
</g>
<!-- ric.EntityHydroStorm -->
<g id="node8" class="node">
<title>ric.EntityHydroStorm</title>
<g id="a_node8"><a xlink:href="ric.EntityHydroStorm.svg" xlink:title="ric.EntityHydroStorm">
<ellipse fill="green" stroke="black" cx="1154.24" cy="-378" rx="112.38" ry="18"/>
<text text-anchor="middle" x="1154.24" y="-374.3" font-family="Times,serif" font-size="14.00">ric.EntityHydroStorm</text>
</a>
</g>
</g>
<!-- ric.EntityHydroStorm&#45;&gt;ric.RicSetSubweaponParams -->
<g id="edge7" class="edge">
<title>ric.EntityHydroStorm&#45;&gt;ric.RicSetSubweaponParams</title>
<path fill="none" stroke="black" d="M1233.23,-365.13C1247.2,-363.25 1261.64,-361.45 1275.24,-360 2048.63,-277.4 2979.89,-224.37 3328.99,-206.1"/>
<polygon fill="black" stroke="black" points="3329.35,-209.59 3339.15,-205.57 3328.98,-202.6 3329.35,-209.59"/>
<text text-anchor="middle" x="1228.23" y="-353.93" font-family="Times,serif" font-size="14.00">1</text>
</g>
<!-- ric.EntityStopwatch -->
<g id="node9" class="node">
<title>ric.EntityStopwatch</title>
<g id="a_node9"><a xlink:href="ric.EntityStopwatch.svg" xlink:title="ric.EntityStopwatch">
<ellipse fill="green" stroke="black" cx="1388.24" cy="-378" rx="103.98" ry="18"/>
<text text-anchor="middle" x="1388.24" y="-374.3" font-family="Times,serif" font-size="14.00">ric.EntityStopwatch</text>
</a>
</g>
</g>
<!-- ric.EntityStopwatch&#45;&gt;ric.RicSetSubweaponParams -->
<g id="edge8" class="edge">
<title>ric.EntityStopwatch&#45;&gt;ric.RicSetSubweaponParams</title>
<path fill="none" stroke="black" d="M1461.69,-365.21C1474.84,-363.31 1488.43,-361.49 1501.24,-360 2186.69,-280.51 3010.88,-226.52 3332.38,-207.05"/>
<polygon fill="black" stroke="black" points="3332.9,-210.52 3342.67,-206.43 3332.48,-203.54 3332.9,-210.52"/>
<text text-anchor="middle" x="1456.69" y="-354.01" font-family="Times,serif" font-size="14.00">1</text>
</g>
<!-- ric.EntitySubwpnCrashAgunea -->
<g id="node10" class="node">
<title>ric.EntitySubwpnCrashAgunea</title>
<g id="a_node10"><a xlink:href="ric.EntitySubwpnCrashAgunea.svg" xlink:title="ric.EntitySubwpnCrashAgunea">
<ellipse fill="green" stroke="black" cx="1664.24" cy="-378" rx="154.07" ry="18"/>
<text text-anchor="middle" x="1664.24" y="-374.3" font-family="Times,serif" font-size="14.00">ric.EntitySubwpnCrashAgunea</text>
</a>
</g>
</g>
<!-- ric.EntitySubwpnCrashAgunea&#45;&gt;ric.RicSetSubweaponParams -->
<g id="edge9" class="edge">
<title>ric.EntitySubwpnCrashAgunea&#45;&gt;ric.RicSetSubweaponParams</title>
<path fill="none" stroke="black" d="M1774.94,-365.44C1792.76,-363.6 1811.01,-361.74 1828.24,-360 2397.32,-302.61 3077.64,-236.79 3349.43,-210.61"/>
<polygon fill="black" stroke="black" points="3350.09,-214.07 3359.71,-209.62 3349.42,-207.1 3350.09,-214.07"/>
<text text-anchor="middle" x="1769.94" y="-354.24" font-family="Times,serif" font-size="14.00">1</text>
</g>
<!-- ric.EntitySubwpnCrashAxe -->
<g id="node11" class="node">
<title>ric.EntitySubwpnCrashAxe</title>
<g id="a_node11"><a xlink:href="ric.EntitySubwpnCrashAxe.svg" xlink:title="ric.EntitySubwpnCrashAxe">
<ellipse fill="green" stroke="black" cx="1973.24" cy="-378" rx="136.48" ry="18"/>
<text text-anchor="middle" x="1973.24" y="-374.3" font-family="Times,serif" font-size="14.00">ric.EntitySubwpnCrashAxe</text>
</a>
</g>
</g>
<!-- ric.EntitySubwpnCrashAxe&#45;&gt;ric.RicSetSubweaponParams -->
<g id="edge10" class="edge">
<title>ric.EntitySubwpnCrashAxe&#45;&gt;ric.RicSetSubweaponParams</title>
<path fill="none" stroke="black" d="M2070.89,-365.39C2337.65,-333.67 3077.59,-245.69 3359.35,-212.19"/>
<polygon fill="black" stroke="black" points="3360.07,-215.62 3369.58,-210.97 3359.24,-208.67 3360.07,-215.62"/>
<text text-anchor="middle" x="2065.89" y="-354.19" font-family="Times,serif" font-size="14.00">1</text>
</g>
<!-- ric.RicEntityGiantSpinningCross -->
<g id="node12" class="node">
<title>ric.RicEntityGiantSpinningCross</title>
<g id="a_node12"><a xlink:href="ric.RicEntityGiantSpinningCross.svg" xlink:title="ric.RicEntityGiantSpinningCross">
<ellipse fill="green" stroke="black" cx="2290.24" cy="-378" rx="162.47" ry="18"/>
<text text-anchor="middle" x="2290.24" y="-374.3" font-family="Times,serif" font-size="14.00">ric.RicEntityGiantSpinningCross</text>
</a>
</g>
</g>
<!-- ric.RicEntityGiantSpinningCross&#45;&gt;ric.RicSetSubweaponParams -->
<g id="edge11" class="edge">
<title>ric.RicEntityGiantSpinningCross&#45;&gt;ric.RicSetSubweaponParams</title>
<path fill="none" stroke="black" d="M2382.34,-363.11C2600.56,-330.19 3147.55,-247.68 3371.9,-213.84"/>
<polygon fill="black" stroke="black" points="3372.64,-217.26 3382.01,-212.31 3371.6,-210.34 3372.64,-217.26"/>
<text text-anchor="middle" x="2377.34" y="-351.91" font-family="Times,serif" font-size="14.00">1</text>
</g>
<!-- ric.RicEntityHolyWater -->
<g id="node13" class="node">
<title>ric.RicEntityHolyWater</title>
<g id="a_node13"><a xlink:href="ric.RicEntityHolyWater.svg" xlink:title="ric.RicEntityHolyWater">
<ellipse fill="green" stroke="black" cx="2589.24" cy="-378" rx="118.08" ry="18"/>
<text text-anchor="middle" x="2589.24" y="-374.3" font-family="Times,serif" font-size="14.00">ric.RicEntityHolyWater</text>
</a>
</g>
</g>
<!-- ric.RicEntityHolyWater&#45;&gt;ric.RicSetSubweaponParams -->
<g id="edge12" class="edge">
<title>ric.RicEntityHolyWater&#45;&gt;ric.RicSetSubweaponParams</title>
<path fill="none" stroke="black" d="M2657.27,-363.25C2816.93,-331 3215.15,-250.54 3388.01,-215.61"/>
<polygon fill="black" stroke="black" points="3388.71,-219.04 3397.82,-213.63 3387.32,-212.18 3388.71,-219.04"/>
<text text-anchor="middle" x="2652.27" y="-352.05" font-family="Times,serif" font-size="14.00">1</text>
</g>
<!-- ric.RicEntityHolyWaterFlame -->
<g id="node14" class="node">
<title>ric.RicEntityHolyWaterFlame</title>
<g id="a_node14"><a xlink:href="ric.RicEntityHolyWaterFlame.svg" xlink:title="ric.RicEntityHolyWaterFlame">
<ellipse fill="green" stroke="black" cx="2873.24" cy="-378" rx="147.57" ry="18"/>
<text text-anchor="middle" x="2873.24" y="-374.3" font-family="Times,serif" font-size="14.00">ric.RicEntityHolyWaterFlame</text>
</a>
</g>
</g>
<!-- ric.RicEntityHolyWaterFlame&#45;&gt;ric.RicSetSubweaponParams -->
<g id="edge13" class="edge">
<title>ric.RicEntityHolyWaterFlame&#45;&gt;ric.RicSetSubweaponParams</title>
<path fill="none" stroke="black" d="M2926.48,-361.13C3036.7,-328.26 3289.39,-252.92 3407.38,-217.74"/>
<polygon fill="black" stroke="black" points="3408.43,-221.08 3417.01,-214.87 3406.43,-214.37 3408.43,-221.08"/>
<text text-anchor="middle" x="2921.48" y="-349.93" font-family="Times,serif" font-size="14.00">1</text>
</g>
<!-- ric.RicEntitySubwpnAgunea -->
<g id="node15" class="node">
<title>ric.RicEntitySubwpnAgunea</title>
<g id="a_node15"><a xlink:href="ric.RicEntitySubwpnAgunea.svg" xlink:title="ric.RicEntitySubwpnAgunea">
<ellipse fill="green" stroke="black" cx="3180.24" cy="-378" rx="141.88" ry="18"/>
<text text-anchor="middle" x="3180.24" y="-374.3" font-family="Times,serif" font-size="14.00">ric.RicEntitySubwpnAgunea</text>
</a>
</g>
</g>
<!-- ric.RicEntitySubwpnAgunea&#45;&gt;ric.RicSetSubweaponParams -->
<g id="edge14" class="edge">
<title>ric.RicEntitySubwpnAgunea&#45;&gt;ric.RicSetSubweaponParams</title>
<path fill="none" stroke="black" d="M3207.52,-360.25C3260.1,-327.99 3375.43,-257.2 3434.23,-221.11"/>
<polygon fill="black" stroke="black" points="3436.13,-224.05 3442.82,-215.83 3432.47,-218.08 3436.13,-224.05"/>
<text text-anchor="middle" x="3202.52" y="-349.05" font-family="Times,serif" font-size="14.00">1</text>
</g>
<!-- ric.RicEntitySubwpnBible -->
<g id="node16" class="node">
<title>ric.RicEntitySubwpnBible</title>
<g id="a_node16"><a xlink:href="ric.RicEntitySubwpnBible.svg" xlink:title="ric.RicEntitySubwpnBible">
<ellipse fill="green" stroke="black" cx="3470.24" cy="-378" rx="130.78" ry="18"/>
<text text-anchor="middle" x="3470.24" y="-374.3" font-family="Times,serif" font-size="14.00">ric.RicEntitySubwpnBible</text>
</a>
</g>
</g>
<!-- ric.RicEntitySubwpnBible&#45;&gt;ric.RicSetSubweaponParams -->
<g id="edge15" class="edge">
<title>ric.RicEntitySubwpnBible&#45;&gt;ric.RicSetSubweaponParams</title>
<path fill="none" stroke="black" d="M3470.24,-359.93C3470.24,-328.97 3470.24,-263.3 3470.24,-226.13"/>
<polygon fill="black" stroke="black" points="3473.74,-226.02 3470.24,-216.02 3466.74,-226.02 3473.74,-226.02"/>
<text text-anchor="middle" x="3465.24" y="-348.73" font-family="Times,serif" font-size="14.00">1</text>
</g>
<!-- ric.RicEntitySubwpnCrashCross -->
<g id="node17" class="node">
<title>ric.RicEntitySubwpnCrashCross</title>
<g id="a_node17"><a xlink:href="ric.RicEntitySubwpnCrashCross.svg" xlink:title="ric.RicEntitySubwpnCrashCross">
<ellipse fill="green" stroke="black" cx="3779.24" cy="-378" rx="160.57" ry="18"/>
<text text-anchor="middle" x="3779.24" y="-374.3" font-family="Times,serif" font-size="14.00">ric.RicEntitySubwpnCrashCross</text>
</a>
</g>
</g>
<!-- ric.RicEntitySubwpnCrashCross&#45;&gt;ric.RicSetSubweaponParams -->
<g id="edge16" class="edge">
<title>ric.RicEntitySubwpnCrashCross&#45;&gt;ric.RicSetSubweaponParams</title>
<path fill="none" stroke="black" d="M3750.17,-360.25C3694.04,-327.92 3570.76,-256.91 3508.23,-220.88"/>
<polygon fill="black" stroke="black" points="3509.87,-217.79 3499.46,-215.83 3506.38,-223.86 3509.87,-217.79"/>
<text text-anchor="middle" x="3745.17" y="-349.05" font-family="Times,serif" font-size="14.00">1</text>
</g>
<!-- ric.RicEntitySubwpnReboundStone -->
<g id="node18" class="node">
<title>ric.RicEntitySubwpnReboundStone</title>
<g id="a_node18"><a xlink:href="ric.RicEntitySubwpnReboundStone.svg" xlink:title="ric.RicEntitySubwpnReboundStone">
<ellipse fill="green" stroke="black" cx="4132.24" cy="-378" rx="174.67" ry="18"/>
<text text-anchor="middle" x="4132.24" y="-374.3" font-family="Times,serif" font-size="14.00">ric.RicEntitySubwpnReboundStone</text>
</a>
</g>
</g>
<!-- ric.RicEntitySubwpnReboundStone&#45;&gt;ric.RicSetSubweaponParams -->
<g id="edge17" class="edge">
<title>ric.RicEntitySubwpnReboundStone&#45;&gt;ric.RicSetSubweaponParams</title>
<path fill="none" stroke="black" d="M4072.91,-361.05C3949.96,-327.99 3668.03,-252.18 3538.09,-217.24"/>
<polygon fill="black" stroke="black" points="3538.82,-213.82 3528.25,-214.6 3537,-220.58 3538.82,-213.82"/>
<text text-anchor="middle" x="4067.91" y="-349.85" font-family="Times,serif" font-size="14.00">1</text>
</g>
<!-- ric.RicEntitySubwpnThrownDagger -->
<g id="node19" class="node">
<title>ric.RicEntitySubwpnThrownDagger</title>
<g id="a_node19"><a xlink:href="ric.RicEntitySubwpnThrownDagger.svg" xlink:title="ric.RicEntitySubwpnThrownDagger">
<ellipse fill="green" stroke="black" cx="4501.24" cy="-378" rx="176.27" ry="18"/>
<text text-anchor="middle" x="4501.24" y="-374.3" font-family="Times,serif" font-size="14.00">ric.RicEntitySubwpnThrownDagger</text>
</a>
</g>
</g>
<!-- ric.RicEntitySubwpnThrownDagger&#45;&gt;ric.RicSetSubweaponParams -->
<g id="edge18" class="edge">
<title>ric.RicEntitySubwpnThrownDagger&#45;&gt;ric.RicSetSubweaponParams</title>
<path fill="none" stroke="black" d="M4415.55,-362.21C4223.2,-329 3758.51,-248.77 3561.25,-214.71"/>
<polygon fill="black" stroke="black" points="3561.65,-211.23 3551.2,-212.98 3560.46,-218.13 3561.65,-211.23"/>
<text text-anchor="middle" x="4410.55" y="-351.01" font-family="Times,serif" font-size="14.00">1</text>
</g>
<!-- ric.RicEntitySubwpnThrownVibhuti -->
<g id="node20" class="node">
<title>ric.RicEntitySubwpnThrownVibhuti</title>
<g id="a_node20"><a xlink:href="ric.RicEntitySubwpnThrownVibhuti.svg" xlink:title="ric.RicEntitySubwpnThrownVibhuti">
<ellipse fill="green" stroke="black" cx="4871.24" cy="-378" rx="175.47" ry="18"/>
<text text-anchor="middle" x="4871.24" y="-374.3" font-family="Times,serif" font-size="14.00">ric.RicEntitySubwpnThrownVibhuti</text>
</a>
</g>
</g>
<!-- ric.RicEntitySubwpnThrownVibhuti&#45;&gt;ric.RicSetSubweaponParams -->
<g id="edge19" class="edge">
<title>ric.RicEntitySubwpnThrownVibhuti&#45;&gt;ric.RicSetSubweaponParams</title>
<path fill="none" stroke="black" d="M4765.65,-363.58C4506.07,-330.6 3838.94,-245.84 3577.56,-212.64"/>
<polygon fill="black" stroke="black" points="3577.67,-209.12 3567.3,-211.33 3576.78,-216.06 3577.67,-209.12"/>
<text text-anchor="middle" x="4760.65" y="-352.38" font-family="Times,serif" font-size="14.00">1</text>
</g>
<!-- ric.func_80160C38 -->
<g id="node21" class="node">
<title>ric.func_80160C38</title>
<g id="a_node21"><a xlink:href="ric.func_80160C38.svg" xlink:title="ric.func_80160C38">
<ellipse fill="green" stroke="black" cx="5163.24" cy="-378" rx="98.28" ry="18"/>
<text text-anchor="middle" x="5163.24" y="-374.3" font-family="Times,serif" font-size="14.00">ric.func_80160C38</text>
</a>
</g>
</g>
<!-- ric.func_80160C38&#45;&gt;ric.RicSetSubweaponParams -->
<g id="edge20" class="edge">
<title>ric.func_80160C38&#45;&gt;ric.RicSetSubweaponParams</title>
<path fill="none" stroke="black" d="M5093.03,-365.38C5080.46,-363.46 5067.48,-361.58 5055.24,-360 4514.28,-290 3866.15,-232.3 3597.02,-209.5"/>
<polygon fill="black" stroke="black" points="3597.08,-205.99 3586.82,-208.63 3596.49,-212.97 3597.08,-205.99"/>
<text text-anchor="middle" x="5088.03" y="-354.18" font-family="Times,serif" font-size="14.00">1</text>
</g>
<!-- ric.func_80160D2C -->
<g id="node22" class="node">
<title>ric.func_80160D2C</title>
<g id="a_node22"><a xlink:href="ric.func_80160D2C.svg" xlink:title="ric.func_80160D2C">
<ellipse fill="green" stroke="black" cx="5379.24" cy="-378" rx="99.38" ry="18"/>
<text text-anchor="middle" x="5379.24" y="-374.3" font-family="Times,serif" font-size="14.00">ric.func_80160D2C</text>
</a>
</g>
</g>
<!-- ric.func_80160D2C&#45;&gt;ric.RicSetSubweaponParams -->
<g id="edge21" class="edge">
<title>ric.func_80160D2C&#45;&gt;ric.RicSetSubweaponParams</title>
<path fill="none" stroke="black" d="M5308.68,-365.3C5295.91,-363.38 5282.69,-361.53 5270.24,-360 4649.21,-283.88 3903.44,-228.65 3604.13,-207.96"/>
<polygon fill="black" stroke="black" points="3604.33,-204.47 3594.11,-207.27 3603.84,-211.45 3604.33,-204.47"/>
<text text-anchor="middle" x="5303.68" y="-354.1" font-family="Times,serif" font-size="14.00">1</text>
</g>
<!-- ric.func_80160F0C -->
<g id="node23" class="node">
<title>ric.func_80160F0C</title>
<g id="a_node23"><a xlink:href="ric.func_80160F0C.svg" xlink:title="ric.func_80160F0C">
<ellipse fill="green" stroke="black" cx="5595.24" cy="-378" rx="98.58" ry="18"/>
<text text-anchor="middle" x="5595.24" y="-374.3" font-family="Times,serif" font-size="14.00">ric.func_80160F0C</text>
</a>
</g>
</g>
<!-- ric.func_80160F0C&#45;&gt;ric.RicSetSubweaponParams -->
<g id="edge22" class="edge">
<title>ric.func_80160F0C&#45;&gt;ric.RicSetSubweaponParams</title>
<path fill="none" stroke="black" d="M5525.34,-365.2C5512.69,-363.29 5499.59,-361.46 5487.24,-360 4784.4,-276.76 3938.54,-224.82 3610.11,-206.47"/>
<polygon fill="black" stroke="black" points="3610.25,-202.97 3600.07,-205.91 3609.86,-209.96 3610.25,-202.97"/>
<text text-anchor="middle" x="5520.34" y="-354" font-family="Times,serif" font-size="14.00">1</text>
</g>
<!-- ric.func_80166784 -->
<g id="node24" class="node">
<title>ric.func_80166784</title>
<g id="a_node24"><a xlink:href="ric.func_80166784.svg" xlink:title="ric.func_80166784">
<ellipse fill="green" stroke="black" cx="5809.24" cy="-378" rx="96.68" ry="18"/>
<text text-anchor="middle" x="5809.24" y="-374.3" font-family="Times,serif" font-size="14.00">ric.func_80166784</text>
</a>
</g>
</g>
<!-- ric.func_80166784&#45;&gt;ric.RicSetSubweaponParams -->
<g id="edge23" class="edge">
<title>ric.func_80166784&#45;&gt;ric.RicSetSubweaponParams</title>
<path fill="none" stroke="black" d="M5740.94,-365.15C5728.42,-363.23 5715.46,-361.42 5703.24,-360 4917.86,-268.88 3970.7,-220.91 3614.75,-205.05"/>
<polygon fill="black" stroke="black" points="3614.8,-201.55 3604.65,-204.61 3614.49,-208.55 3614.8,-201.55"/>
<text text-anchor="middle" x="5735.94" y="-353.95" font-family="Times,serif" font-size="14.00">1</text>
</g>
<!-- ric.func_8016D328 -->
<g id="node25" class="node">
<title>ric.func_8016D328</title>
<g id="a_node25"><a xlink:href="ric.func_8016D328.svg" xlink:title="ric.func_8016D328">
<ellipse fill="green" stroke="black" cx="6023.24" cy="-378" rx="98.58" ry="18"/>
<text text-anchor="middle" x="6023.24" y="-374.3" font-family="Times,serif" font-size="14.00">ric.func_8016D328</text>
</a>
</g>
</g>
<!-- ric.func_8016D328&#45;&gt;ric.RicSetSubweaponParams -->
<g id="edge24" class="edge">
<title>ric.func_8016D328&#45;&gt;ric.RicSetSubweaponParams</title>
<path fill="none" stroke="black" d="M5953.94,-365.14C5941.1,-363.22 5927.79,-361.4 5915.24,-360 5047.2,-263.3 3998.83,-218.15 3617.73,-204.06"/>
<polygon fill="black" stroke="black" points="3617.6,-200.56 3607.48,-203.69 3617.34,-207.55 3617.6,-200.56"/>
<text text-anchor="middle" x="5948.94" y="-353.94" font-family="Times,serif" font-size="14.00">1</text>
</g>
<!-- ric.func_8016D920 -->
<g id="node26" class="node">
<title>ric.func_8016D920</title>
<g id="a_node26"><a xlink:href="ric.func_8016D920.svg" xlink:title="ric.func_8016D920">
<ellipse fill="green" stroke="black" cx="6239.24" cy="-378" rx="98.58" ry="18"/>
<text text-anchor="middle" x="6239.24" y="-374.3" font-family="Times,serif" font-size="14.00">ric.func_8016D920</text>
</a>
</g>
</g>
<!-- ric.func_8016D920&#45;&gt;ric.RicSetSubweaponParams -->
<g id="edge25" class="edge">
<title>ric.func_8016D920&#45;&gt;ric.RicSetSubweaponParams</title>
<path fill="none" stroke="black" d="M6169.94,-365.09C6157.11,-363.17 6143.79,-361.36 6131.24,-360 5177.87,-256.37 4024.55,-215.02 3619.51,-203.02"/>
<polygon fill="black" stroke="black" points="3619.6,-199.52 3609.5,-202.73 3619.39,-206.52 3619.6,-199.52"/>
<text text-anchor="middle" x="6164.94" y="-353.89" font-family="Times,serif" font-size="14.00">1</text>
</g>
<!-- ric.func_8016DF74 -->
<g id="node27" class="node">
<title>ric.func_8016DF74</title>
<g id="a_node27"><a xlink:href="ric.func_8016DF74.svg" xlink:title="ric.func_8016DF74">
<ellipse fill="green" stroke="black" cx="6455.24" cy="-378" rx="98.58" ry="18"/>
<text text-anchor="middle" x="6455.24" y="-374.3" font-family="Times,serif" font-size="14.00">ric.func_8016DF74</text>
</a>
</g>
</g>
<!-- ric.func_8016DF74&#45;&gt;ric.RicSetSubweaponParams -->
<g id="edge26" class="edge">
<title>ric.func_8016DF74&#45;&gt;ric.RicSetSubweaponParams</title>
<path fill="none" stroke="black" d="M6386.24,-365.08C6373.31,-363.15 6359.89,-361.35 6347.24,-360 5308.54,-249.47 4050.27,-212.14 3621.63,-202.13"/>
<polygon fill="black" stroke="black" points="3621.43,-198.62 3611.35,-201.89 3621.26,-205.62 3621.43,-198.62"/>
<text text-anchor="middle" x="6381.24" y="-353.88" font-family="Times,serif" font-size="14.00">1</text>
</g>
<!-- ric.func_80170548 -->
<g id="node28" class="node">
<title>ric.func_80170548</title>
<g id="a_node28"><a xlink:href="ric.func_80170548.svg" xlink:title="ric.func_80170548">
<ellipse fill="green" stroke="black" cx="6669.24" cy="-378" rx="96.68" ry="18"/>
<text text-anchor="middle" x="6669.24" y="-374.3" font-family="Times,serif" font-size="14.00">ric.func_80170548</text>
</a>
</g>
</g>
<!-- ric.func_80170548&#45;&gt;ric.RicSetSubweaponParams -->
<g id="edge27" class="edge">
<title>ric.func_80170548&#45;&gt;ric.RicSetSubweaponParams</title>
<path fill="none" stroke="black" d="M6601.81,-365.08C6589.03,-363.13 6575.75,-361.32 6563.24,-360 5438.55,-240.89 4074.05,-208.82 3623.03,-201.17"/>
<polygon fill="black" stroke="black" points="3622.93,-197.67 3612.87,-201 3622.81,-204.67 3622.93,-197.67"/>
<text text-anchor="middle" x="6596.81" y="-353.88" font-family="Times,serif" font-size="14.00">1</text>
</g>
</g>
</svg>
