<?xml version="1.0" encoding="UTF-8" standalone="no"?>
<!DOCTYPE svg PUBLIC "-//W3C//DTD SVG 1.1//EN"
 "http://www.w3.org/Graphics/SVG/1.1/DTD/svg11.dtd">
<!-- Generated by graphviz version 2.43.0 (0)
 -->
<!-- Title: ric.func_8015CCC8 Pages: 1 -->
<svg width="963pt" height="404pt"
 viewBox="0.00 0.00 962.98 404.00" xmlns="http://www.w3.org/2000/svg" xmlns:xlink="http://www.w3.org/1999/xlink">
<g id="graph0" class="graph" transform="scale(1 1) rotate(0) translate(4 400)">
<title>ric.func_8015CCC8</title>
<polygon fill="white" stroke="transparent" points="-4,4 -4,-400 958.98,-400 958.98,4 -4,4"/>
<!-- ric.func_8015CCC8 -->
<g id="node1" class="node">
<title>ric.func_8015CCC8</title>
<ellipse fill="green" stroke="black" cx="513.24" cy="-198" rx="100.18" ry="18"/>
<text text-anchor="middle" x="513.24" y="-194.3" font-family="Times,serif" font-size="14.00">ric.func_8015CCC8</text>
</g>
<!-- ric.RicSetPlayerStep -->
<g id="node2" class="node">
<title>ric.RicSetPlayerStep</title>
<g id="a_node2"><a xlink:href="ric.RicSetPlayerStep.svg" xlink:title="ric.RicSetPlayerStep">
<ellipse fill="green" stroke="black" cx="402.24" cy="-18" rx="107.48" ry="18"/>
<text text-anchor="middle" x="402.24" y="-14.3" font-family="Times,serif" font-size="14.00">ric.RicSetPlayerStep</text>
</a>
</g>
</g>
<!-- ric.func_8015CCC8&#45;&gt;ric.RicSetPlayerStep -->
<g id="edge1" class="edge">
<title>ric.func_8015CCC8&#45;&gt;ric.RicSetPlayerStep</title>
<path fill="none" stroke="black" d="M502.6,-179.93C483.04,-148.57 441.28,-81.6 418.27,-44.71"/>
<polygon fill="black" stroke="black" points="421.11,-42.65 412.85,-36.02 415.17,-46.35 421.11,-42.65"/>
<text text-anchor="middle" x="407.85" y="-39.82" font-family="Times,serif" font-size="14.00">1</text>
</g>
<!-- ric.func_8015C920 -->
<g id="node3" class="node">
<title>ric.func_8015C920</title>
<g id="a_node3"><a xlink:href="ric.func_8015C920.svg" xlink:title="ric.func_8015C920">
<ellipse fill="green" stroke="black" cx="625.24" cy="-18" rx="98.28" ry="18"/>
<text text-anchor="middle" x="625.24" y="-14.3" font-family="Times,serif" font-size="14.00">ric.func_8015C920</text>
</a>
</g>
</g>
<!-- ric.func_8015CCC8&#45;&gt;ric.func_8015C920 -->
<g id="edge2" class="edge">
<title>ric.func_8015CCC8&#45;&gt;ric.func_8015C920</title>
<path fill="none" stroke="black" d="M523.98,-179.93C543.71,-148.57 585.85,-81.6 609.06,-44.71"/>
<polygon fill="black" stroke="black" points="612.17,-46.34 614.53,-36.02 606.24,-42.62 612.17,-46.34"/>
<text text-anchor="middle" x="609.53" y="-39.82" font-family="Times,serif" font-size="14.00">1</text>
</g>
<!-- ric.PlayerStepSlideKick -->
<g id="node4" class="node">
<title>ric.PlayerStepSlideKick</title>
<g id="a_node4"><a xlink:href="ric.PlayerStepSlideKick.svg" xlink:title="ric.PlayerStepSlideKick">
<ellipse fill="green" stroke="black" cx="120.24" cy="-378" rx="120.48" ry="18"/>
<text text-anchor="middle" x="120.24" y="-374.3" font-family="Times,serif" font-size="14.00">ric.PlayerStepSlideKick</text>
</a>
</g>
</g>
<!-- ric.PlayerStepSlideKick&#45;&gt;ric.func_8015CCC8 -->
<g id="edge3" class="edge">
<title>ric.PlayerStepSlideKick&#45;&gt;ric.func_8015CCC8</title>
<path fill="none" stroke="black" d="M156.16,-360.73C228.26,-328.07 390.43,-254.62 468.96,-219.05"/>
<polygon fill="black" stroke="black" points="470.45,-222.22 478.11,-214.91 467.56,-215.85 470.45,-222.22"/>
<text text-anchor="middle" x="151.16" y="-349.53" font-family="Times,serif" font-size="14.00">1</text>
</g>
<!-- ric.RichterHandleDamage -->
<g id="node5" class="node">
<title>ric.RichterHandleDamage</title>
<g id="a_node5"><a xlink:href="ric.RichterHandleDamage.svg" xlink:title="ric.RichterHandleDamage">
<ellipse fill="green" stroke="black" cx="390.24" cy="-378" rx="131.08" ry="18"/>
<text text-anchor="middle" x="390.24" y="-374.3" font-family="Times,serif" font-size="14.00">ric.RichterHandleDamage</text>
</a>
</g>
</g>
<!-- ric.RichterHandleDamage&#45;&gt;ric.func_8015CCC8 -->
<g id="edge4" class="edge">
<title>ric.RichterHandleDamage&#45;&gt;ric.func_8015CCC8</title>
<path fill="none" stroke="black" d="M402.03,-359.93C423.71,-328.57 469.98,-261.6 495.47,-224.71"/>
<polygon fill="black" stroke="black" points="498.68,-226.23 501.48,-216.02 492.92,-222.25 498.68,-226.23"/>
<text text-anchor="middle" x="397.03" y="-348.73" font-family="Times,serif" font-size="14.00">1</text>
</g>
<!-- ric.func_8015B898 -->
<g id="node6" class="node">
<title>ric.func_8015B898</title>
<g id="a_node6"><a xlink:href="ric.func_8015B898.svg" xlink:title="ric.func_8015B898">
<ellipse fill="green" stroke="black" cx="637.24" cy="-378" rx="98.28" ry="18"/>
<text text-anchor="middle" x="637.24" y="-374.3" font-family="Times,serif" font-size="14.00">ric.func_8015B898</text>
</a>
</g>
</g>
<!-- ric.func_8015B898&#45;&gt;ric.func_8015CCC8 -->
<g id="edge5" class="edge">
<title>ric.func_8015B898&#45;&gt;ric.func_8015CCC8</title>
<path fill="none" stroke="black" d="M625.35,-359.93C603.41,-328.43 556.45,-261.03 530.82,-224.24"/>
<polygon fill="black" stroke="black" points="533.68,-222.22 525.09,-216.02 527.94,-226.22 533.68,-222.22"/>
<text text-anchor="middle" x="620.35" y="-348.73" font-family="Times,serif" font-size="14.00">1</text>
</g>
<!-- ric.func_8015DBB0 -->
<g id="node7" class="node">
<title>ric.func_8015DBB0</title>
<g id="a_node7"><a xlink:href="ric.func_8015DBB0.svg" xlink:title="ric.func_8015DBB0">
<ellipse fill="green" stroke="black" cx="854.24" cy="-378" rx="100.98" ry="18"/>
<text text-anchor="middle" x="854.24" y="-374.3" font-family="Times,serif" font-size="14.00">ric.func_8015DBB0</text>
</a>
</g>
</g>
<!-- ric.func_8015DBB0&#45;&gt;ric.func_8015CCC8 -->
<g id="edge6" class="edge">
<title>ric.func_8015DBB0&#45;&gt;ric.func_8015CCC8</title>
<path fill="none" stroke="black" d="M823.07,-360.73C761.05,-328.35 622.21,-255.88 553.43,-219.98"/>
<polygon fill="black" stroke="black" points="554.69,-216.69 544.21,-215.17 551.45,-222.9 554.69,-216.69"/>
<text text-anchor="middle" x="818.07" y="-349.53" font-family="Times,serif" font-size="14.00">4</text>
</g>
</g>
</svg>
