<?xml version="1.0" encoding="UTF-8" standalone="no"?>
<!DOCTYPE svg PUBLIC "-//W3C//DTD SVG 1.1//EN"
 "http://www.w3.org/Graphics/SVG/1.1/DTD/svg11.dtd">
<!-- Generated by graphviz version 2.43.0 (0)
 -->
<!-- Title: ric.RicHandleStand Pages: 1 -->
<svg width="1795pt" height="404pt"
 viewBox="0.00 0.00 1795.23 404.00" xmlns="http://www.w3.org/2000/svg" xmlns:xlink="http://www.w3.org/1999/xlink">
<g id="graph0" class="graph" transform="scale(1 1) rotate(0) translate(4 400)">
<title>ric.RicHandleStand</title>
<polygon fill="white" stroke="transparent" points="-4,4 -4,-400 1791.23,-400 1791.23,4 -4,4"/>
<!-- ric.RicHandleStand -->
<g id="node1" class="node">
<title>ric.RicHandleStand</title>
<ellipse fill="green" stroke="black" cx="999.44" cy="-198" rx="100.98" ry="18"/>
<text text-anchor="middle" x="999.44" y="-194.3" font-family="Times,serif" font-size="14.00">ric.RicHandleStand</text>
</g>
<!-- ric.RicCheckFacing -->
<g id="node2" class="node">
<title>ric.RicCheckFacing</title>
<g id="a_node2"><a xlink:href="ric.RicCheckFacing.svg" xlink:title="ric.RicCheckFacing">
<ellipse fill="green" stroke="black" cx="99.44" cy="-18" rx="99.38" ry="18"/>
<text text-anchor="middle" x="99.44" y="-14.3" font-family="Times,serif" font-size="14.00">ric.RicCheckFacing</text>
</a>
</g>
</g>
<!-- ric.RicHandleStand&#45;&gt;ric.RicCheckFacing -->
<g id="edge1" class="edge">
<title>ric.RicHandleStand&#45;&gt;ric.RicCheckFacing</title>
<path fill="none" stroke="black" d="M934.72,-184.2C772,-152.02 346.58,-67.88 173.9,-33.73"/>
<polygon fill="black" stroke="black" points="174.37,-30.25 163.88,-31.74 173.01,-37.12 174.37,-30.25"/>
<text text-anchor="middle" x="158.88" y="-35.54" font-family="Times,serif" font-size="14.00">4</text>
</g>
<!-- ric.RicCheckInput -->
<g id="node3" class="node">
<title>ric.RicCheckInput</title>
<g id="a_node3"><a xlink:href="ric.RicCheckInput.svg" xlink:title="ric.RicCheckInput">
<ellipse fill="green" stroke="black" cx="310.44" cy="-18" rx="93.68" ry="18"/>
<text text-anchor="middle" x="310.44" y="-14.3" font-family="Times,serif" font-size="14.00">ric.RicCheckInput</text>
</a>
</g>
</g>
<!-- ric.RicHandleStand&#45;&gt;ric.RicCheckInput -->
<g id="edge2" class="edge">
<title>ric.RicHandleStand&#45;&gt;ric.RicCheckInput</title>
<path fill="none" stroke="black" d="M944.51,-182.81C818.23,-150.19 507.86,-70 373.8,-35.37"/>
<polygon fill="black" stroke="black" points="374.63,-31.97 364.08,-32.86 372.88,-38.75 374.63,-31.97"/>
<text text-anchor="middle" x="359.08" y="-36.66" font-family="Times,serif" font-size="14.00">1</text>
</g>
<!-- ric.RicCreateEntFactoryFromEntity -->
<g id="node4" class="node">
<title>ric.RicCreateEntFactoryFromEntity</title>
<g id="a_node4"><a xlink:href="ric.RicCreateEntFactoryFromEntity.svg" xlink:title="ric.RicCreateEntFactoryFromEntity">
<ellipse fill="green" stroke="black" cx="598.44" cy="-18" rx="176.57" ry="18"/>
<text text-anchor="middle" x="598.44" y="-14.3" font-family="Times,serif" font-size="14.00">ric.RicCreateEntFactoryFromEntity</text>
</a>
</g>
</g>
<!-- ric.RicHandleStand&#45;&gt;ric.RicCreateEntFactoryFromEntity -->
<g id="edge3" class="edge">
<title>ric.RicHandleStand&#45;&gt;ric.RicCreateEntFactoryFromEntity</title>
<path fill="none" stroke="black" d="M963.5,-181.05C890.81,-148.78 726.37,-75.79 645.35,-39.82"/>
<polygon fill="black" stroke="black" points="646.46,-36.49 635.9,-35.63 643.62,-42.88 646.46,-36.49"/>
<text text-anchor="middle" x="630.9" y="-39.43" font-family="Times,serif" font-size="14.00">2</text>
</g>
<!-- ric.RicDecelerateX -->
<g id="node5" class="node">
<title>ric.RicDecelerateX</title>
<g id="a_node5"><a xlink:href="ric.RicDecelerateX.svg" xlink:title="ric.RicDecelerateX">
<ellipse fill="green" stroke="black" cx="890.44" cy="-18" rx="96.68" ry="18"/>
<text text-anchor="middle" x="890.44" y="-14.3" font-family="Times,serif" font-size="14.00">ric.RicDecelerateX</text>
</a>
</g>
</g>
<!-- ric.RicHandleStand&#45;&gt;ric.RicDecelerateX -->
<g id="edge4" class="edge">
<title>ric.RicHandleStand&#45;&gt;ric.RicDecelerateX</title>
<path fill="none" stroke="black" d="M988.99,-179.93C969.78,-148.57 928.78,-81.6 906.18,-44.71"/>
<polygon fill="black" stroke="black" points="909.07,-42.72 900.86,-36.02 903.1,-46.37 909.07,-42.72"/>
<text text-anchor="middle" x="895.86" y="-39.82" font-family="Times,serif" font-size="14.00">1</text>
</g>
<!-- ric.RicSetAnimation -->
<g id="node6" class="node">
<title>ric.RicSetAnimation</title>
<g id="a_node6"><a xlink:href="ric.RicSetAnimation.svg" xlink:title="ric.RicSetAnimation">
<ellipse fill="green" stroke="black" cx="1108.44" cy="-18" rx="103.18" ry="18"/>
<text text-anchor="middle" x="1108.44" y="-14.3" font-family="Times,serif" font-size="14.00">ric.RicSetAnimation</text>
</a>
</g>
</g>
<!-- ric.RicHandleStand&#45;&gt;ric.RicSetAnimation -->
<g id="edge5" class="edge">
<title>ric.RicHandleStand&#45;&gt;ric.RicSetAnimation</title>
<path fill="none" stroke="black" d="M1009.89,-179.93C1029.1,-148.57 1070.11,-81.6 1092.7,-44.71"/>
<polygon fill="black" stroke="black" points="1095.78,-46.37 1098.02,-36.02 1089.81,-42.72 1095.78,-46.37"/>
<text text-anchor="middle" x="1093.02" y="-39.82" font-family="Times,serif" font-size="14.00">2</text>
</g>
<!-- ric.RicSetStand -->
<g id="node7" class="node">
<title>ric.RicSetStand</title>
<g id="a_node7"><a xlink:href="ric.RicSetStand.svg" xlink:title="ric.RicSetStand">
<ellipse fill="green" stroke="black" cx="1313.44" cy="-18" rx="83.39" ry="18"/>
<text text-anchor="middle" x="1313.44" y="-14.3" font-family="Times,serif" font-size="14.00">ric.RicSetStand</text>
</a>
</g>
</g>
<!-- ric.RicHandleStand&#45;&gt;ric.RicSetStand -->
<g id="edge6" class="edge">
<title>ric.RicHandleStand&#45;&gt;ric.RicSetStand</title>
<path fill="none" stroke="black" d="M1028.14,-180.73C1085.14,-148.42 1212.57,-76.18 1276.04,-40.2"/>
<polygon fill="black" stroke="black" points="1277.95,-43.14 1284.92,-35.17 1274.5,-37.05 1277.95,-43.14"/>
<text text-anchor="middle" x="1279.92" y="-38.97" font-family="Times,serif" font-size="14.00">1</text>
</g>
<!-- ric.RicSetWalk -->
<g id="node8" class="node">
<title>ric.RicSetWalk</title>
<g id="a_node8"><a xlink:href="ric.RicSetWalk.svg" xlink:title="ric.RicSetWalk">
<ellipse fill="green" stroke="black" cx="1493.44" cy="-18" rx="78.79" ry="18"/>
<text text-anchor="middle" x="1493.44" y="-14.3" font-family="Times,serif" font-size="14.00">ric.RicSetWalk</text>
</a>
</g>
</g>
<!-- ric.RicHandleStand&#45;&gt;ric.RicSetWalk -->
<g id="edge7" class="edge">
<title>ric.RicHandleStand&#45;&gt;ric.RicSetWalk</title>
<path fill="none" stroke="black" d="M1041.99,-181.67C1133.06,-148.85 1346.48,-71.95 1443.66,-36.94"/>
<polygon fill="black" stroke="black" points="1445.03,-40.16 1453.25,-33.48 1442.66,-33.58 1445.03,-40.16"/>
<text text-anchor="middle" x="1448.25" y="-37.28" font-family="Times,serif" font-size="14.00">1</text>
</g>
<!-- ric.func_8015CB58 -->
<g id="node9" class="node">
<title>ric.func_8015CB58</title>
<g id="a_node9"><a xlink:href="ric.func_8015CB58.svg" xlink:title="ric.func_8015CB58">
<ellipse fill="green" stroke="black" cx="1688.44" cy="-18" rx="98.58" ry="18"/>
<text text-anchor="middle" x="1688.44" y="-14.3" font-family="Times,serif" font-size="14.00">ric.func_8015CB58</text>
</a>
</g>
</g>
<!-- ric.RicHandleStand&#45;&gt;ric.func_8015CB58 -->
<g id="edge8" class="edge">
<title>ric.RicHandleStand&#45;&gt;ric.func_8015CB58</title>
<path fill="none" stroke="black" d="M1054.37,-182.81C1180.34,-150.27 1489.49,-70.4 1624.08,-35.63"/>
<polygon fill="black" stroke="black" points="1625.05,-38.99 1633.86,-33.1 1623.3,-32.21 1625.05,-38.99"/>
<text text-anchor="middle" x="1628.86" y="-36.9" font-family="Times,serif" font-size="14.00">3</text>
</g>
<!-- ric.RicMain -->
<g id="node10" class="node">
<title>ric.RicMain</title>
<g id="a_node10"><a xlink:href="ric.RicMain.svg" xlink:title="ric.RicMain">
<ellipse fill="green" stroke="black" cx="999.44" cy="-378" rx="63.89" ry="18"/>
<text text-anchor="middle" x="999.44" y="-374.3" font-family="Times,serif" font-size="14.00">ric.RicMain</text>
</a>
</g>
</g>
<!-- ric.RicMain&#45;&gt;ric.RicHandleStand -->
<g id="edge9" class="edge">
<title>ric.RicMain&#45;&gt;ric.RicHandleStand</title>
<path fill="none" stroke="black" d="M999.44,-359.93C999.44,-328.97 999.44,-263.3 999.44,-226.13"/>
<polygon fill="black" stroke="black" points="1002.94,-226.02 999.44,-216.02 995.94,-226.02 1002.94,-226.02"/>
<text text-anchor="middle" x="994.44" y="-348.73" font-family="Times,serif" font-size="14.00">1</text>
</g>
</g>
</svg>
