<?xml version="1.0" encoding="UTF-8" standalone="no"?>
<!DOCTYPE svg PUBLIC "-//W3C//DTD SVG 1.1//EN"
 "http://www.w3.org/Graphics/SVG/1.1/DTD/svg11.dtd">
<!-- Generated by graphviz version 2.43.0 (0)
 -->
<!-- Title: ric.func_8015CD98 Pages: 1 -->
<svg width="2851pt" height="404pt"
 viewBox="0.00 0.00 2851.03 404.00" xmlns="http://www.w3.org/2000/svg" xmlns:xlink="http://www.w3.org/1999/xlink">
<g id="graph0" class="graph" transform="scale(1 1) rotate(0) translate(4 400)">
<title>ric.func_8015CD98</title>
<polygon fill="white" stroke="transparent" points="-4,4 -4,-400 2847.03,-400 2847.03,4 -4,4"/>
<!-- ric.func_8015CD98 -->
<g id="node1" class="node">
<title>ric.func_8015CD98</title>
<ellipse fill="green" stroke="black" cx="1445.29" cy="-198" rx="99.38" ry="18"/>
<text text-anchor="middle" x="1445.29" y="-194.3" font-family="Times,serif" font-size="14.00">ric.func_8015CD98</text>
</g>
<!-- ric.RicSetPlayerStep -->
<g id="node2" class="node">
<title>ric.RicSetPlayerStep</title>
<g id="a_node2"><a xlink:href="ric.RicSetPlayerStep.svg" xlink:title="ric.RicSetPlayerStep">
<ellipse fill="green" stroke="black" cx="1334.29" cy="-18" rx="107.48" ry="18"/>
<text text-anchor="middle" x="1334.29" y="-14.3" font-family="Times,serif" font-size="14.00">ric.RicSetPlayerStep</text>
</a>
</g>
</g>
<!-- ric.func_8015CD98&#45;&gt;ric.RicSetPlayerStep -->
<g id="edge1" class="edge">
<title>ric.func_8015CD98&#45;&gt;ric.RicSetPlayerStep</title>
<path fill="none" stroke="black" d="M1434.65,-179.93C1415.09,-148.57 1373.33,-81.6 1350.32,-44.71"/>
<polygon fill="black" stroke="black" points="1353.16,-42.65 1344.9,-36.02 1347.22,-46.35 1353.16,-42.65"/>
<text text-anchor="middle" x="1339.9" y="-39.82" font-family="Times,serif" font-size="14.00">1</text>
</g>
<!-- ric.func_8015C920 -->
<g id="node3" class="node">
<title>ric.func_8015C920</title>
<g id="a_node3"><a xlink:href="ric.func_8015C920.svg" xlink:title="ric.func_8015C920">
<ellipse fill="green" stroke="black" cx="1557.29" cy="-18" rx="98.28" ry="18"/>
<text text-anchor="middle" x="1557.29" y="-14.3" font-family="Times,serif" font-size="14.00">ric.func_8015C920</text>
</a>
</g>
</g>
<!-- ric.func_8015CD98&#45;&gt;ric.func_8015C920 -->
<g id="edge2" class="edge">
<title>ric.func_8015CD98&#45;&gt;ric.func_8015C920</title>
<path fill="none" stroke="black" d="M1456.03,-179.93C1475.76,-148.57 1517.9,-81.6 1541.11,-44.71"/>
<polygon fill="black" stroke="black" points="1544.22,-46.34 1546.58,-36.02 1538.29,-42.62 1544.22,-46.34"/>
<text text-anchor="middle" x="1541.58" y="-39.82" font-family="Times,serif" font-size="14.00">1</text>
</g>
<!-- ric.RichterHandleDamage -->
<g id="node4" class="node">
<title>ric.RichterHandleDamage</title>
<g id="a_node4"><a xlink:href="ric.RichterHandleDamage.svg" xlink:title="ric.RichterHandleDamage">
<ellipse fill="green" stroke="black" cx="131.29" cy="-378" rx="131.08" ry="18"/>
<text text-anchor="middle" x="131.29" y="-374.3" font-family="Times,serif" font-size="14.00">ric.RichterHandleDamage</text>
</a>
</g>
</g>
<!-- ric.RichterHandleDamage&#45;&gt;ric.func_8015CD98 -->
<g id="edge3" class="edge">
<title>ric.RichterHandleDamage&#45;&gt;ric.func_8015CD98</title>
<path fill="none" stroke="black" d="M221.09,-364.84C462,-332.2 1120.39,-243.01 1358.17,-210.8"/>
<polygon fill="black" stroke="black" points="1358.71,-214.26 1368.15,-209.45 1357.77,-207.32 1358.71,-214.26"/>
<text text-anchor="middle" x="216.09" y="-353.64" font-family="Times,serif" font-size="14.00">1</text>
</g>
<!-- ric.func_80156F40 -->
<g id="node5" class="node">
<title>ric.func_80156F40</title>
<g id="a_node5"><a xlink:href="ric.func_80156F40.svg" xlink:title="ric.func_80156F40">
<ellipse fill="green" stroke="black" cx="378.29" cy="-378" rx="97.48" ry="18"/>
<text text-anchor="middle" x="378.29" y="-374.3" font-family="Times,serif" font-size="14.00">ric.func_80156F40</text>
</a>
</g>
</g>
<!-- ric.func_80156F40&#45;&gt;ric.func_8015CD98 -->
<g id="edge4" class="edge">
<title>ric.func_80156F40&#45;&gt;ric.func_8015CD98</title>
<path fill="none" stroke="black" d="M447.89,-365.39C637.64,-333.74 1163.26,-246.05 1365.01,-212.39"/>
<polygon fill="black" stroke="black" points="1365.66,-215.83 1374.95,-210.73 1364.51,-208.93 1365.66,-215.83"/>
<text text-anchor="middle" x="442.89" y="-354.19" font-family="Times,serif" font-size="14.00">1</text>
</g>
<!-- ric.func_80158BFC -->
<g id="node6" class="node">
<title>ric.func_80158BFC</title>
<g id="a_node6"><a xlink:href="ric.func_80158BFC.svg" xlink:title="ric.func_80158BFC">
<ellipse fill="green" stroke="black" cx="593.29" cy="-378" rx="99.38" ry="18"/>
<text text-anchor="middle" x="593.29" y="-374.3" font-family="Times,serif" font-size="14.00">ric.func_80158BFC</text>
</a>
</g>
</g>
<!-- ric.func_80158BFC&#45;&gt;ric.func_8015CD98 -->
<g id="edge5" class="edge">
<title>ric.func_80158BFC&#45;&gt;ric.func_8015CD98</title>
<path fill="none" stroke="black" d="M655.94,-363.91C810.36,-331.65 1208.61,-248.45 1372.83,-214.14"/>
<polygon fill="black" stroke="black" points="1373.76,-217.52 1382.84,-212.05 1372.33,-210.67 1373.76,-217.52"/>
<text text-anchor="middle" x="650.94" y="-352.71" font-family="Times,serif" font-size="14.00">1</text>
</g>
<!-- ric.func_80158F38 -->
<g id="node7" class="node">
<title>ric.func_80158F38</title>
<g id="a_node7"><a xlink:href="ric.func_80158F38.svg" xlink:title="ric.func_80158F38">
<ellipse fill="green" stroke="black" cx="808.29" cy="-378" rx="97.48" ry="18"/>
<text text-anchor="middle" x="808.29" y="-374.3" font-family="Times,serif" font-size="14.00">ric.func_80158F38</text>
</a>
</g>
</g>
<!-- ric.func_80158F38&#45;&gt;ric.func_8015CD98 -->
<g id="edge6" class="edge">
<title>ric.func_80158F38&#45;&gt;ric.func_8015CD98</title>
<path fill="none" stroke="black" d="M859.61,-362.66C975.78,-330.2 1258.5,-251.2 1383.78,-216.19"/>
<polygon fill="black" stroke="black" points="1384.92,-219.5 1393.61,-213.44 1383.03,-212.76 1384.92,-219.5"/>
<text text-anchor="middle" x="854.61" y="-351.46" font-family="Times,serif" font-size="14.00">1</text>
</g>
<!-- ric.func_80158FA4 -->
<g id="node8" class="node">
<title>ric.func_80158FA4</title>
<g id="a_node8"><a xlink:href="ric.func_80158FA4.svg" xlink:title="ric.func_80158FA4">
<ellipse fill="green" stroke="black" cx="1020.29" cy="-378" rx="96.68" ry="18"/>
<text text-anchor="middle" x="1020.29" y="-374.3" font-family="Times,serif" font-size="14.00">ric.func_80158FA4</text>
</a>
</g>
</g>
<!-- ric.func_80158FA4&#45;&gt;ric.func_8015CD98 -->
<g id="edge7" class="edge">
<title>ric.func_80158FA4&#45;&gt;ric.func_8015CD98</title>
<path fill="none" stroke="black" d="M1057.63,-361.36C1135.06,-328.93 1312.96,-254.42 1398.15,-218.74"/>
<polygon fill="black" stroke="black" points="1399.7,-221.89 1407.57,-214.8 1397,-215.43 1399.7,-221.89"/>
<text text-anchor="middle" x="1052.63" y="-350.16" font-family="Times,serif" font-size="14.00">1</text>
</g>
<!-- ric.func_80159670 -->
<g id="node9" class="node">
<title>ric.func_80159670</title>
<g id="a_node9"><a xlink:href="ric.func_80159670.svg" xlink:title="ric.func_80159670">
<ellipse fill="green" stroke="black" cx="1232.29" cy="-378" rx="96.68" ry="18"/>
<text text-anchor="middle" x="1232.29" y="-374.3" font-family="Times,serif" font-size="14.00">ric.func_80159670</text>
</a>
</g>
</g>
<!-- ric.func_80159670&#45;&gt;ric.func_8015CD98 -->
<g id="edge8" class="edge">
<title>ric.func_80159670&#45;&gt;ric.func_8015CD98</title>
<path fill="none" stroke="black" d="M1252.33,-360.25C1290.46,-328.38 1373.57,-258.94 1417.22,-222.45"/>
<polygon fill="black" stroke="black" points="1419.72,-224.93 1425.15,-215.83 1415.23,-219.56 1419.72,-224.93"/>
<text text-anchor="middle" x="1247.33" y="-349.05" font-family="Times,serif" font-size="14.00">1</text>
</g>
<!-- ric.func_8015B098 -->
<g id="node10" class="node">
<title>ric.func_8015B098</title>
<g id="a_node10"><a xlink:href="ric.func_8015B098.svg" xlink:title="ric.func_8015B098">
<ellipse fill="green" stroke="black" cx="1445.29" cy="-378" rx="98.28" ry="18"/>
<text text-anchor="middle" x="1445.29" y="-374.3" font-family="Times,serif" font-size="14.00">ric.func_8015B098</text>
</a>
</g>
</g>
<!-- ric.func_8015B098&#45;&gt;ric.func_8015CD98 -->
<g id="edge9" class="edge">
<title>ric.func_8015B098&#45;&gt;ric.func_8015CD98</title>
<path fill="none" stroke="black" d="M1445.29,-359.93C1445.29,-328.97 1445.29,-263.3 1445.29,-226.13"/>
<polygon fill="black" stroke="black" points="1448.79,-226.02 1445.29,-216.02 1441.79,-226.02 1448.79,-226.02"/>
<text text-anchor="middle" x="1440.29" y="-348.73" font-family="Times,serif" font-size="14.00">1</text>
</g>
<!-- ric.func_8015B18C -->
<g id="node11" class="node">
<title>ric.func_8015B18C</title>
<g id="a_node11"><a xlink:href="ric.func_8015B18C.svg" xlink:title="ric.func_8015B18C">
<ellipse fill="green" stroke="black" cx="1660.29" cy="-378" rx="98.58" ry="18"/>
<text text-anchor="middle" x="1660.29" y="-374.3" font-family="Times,serif" font-size="14.00">ric.func_8015B18C</text>
</a>
</g>
</g>
<!-- ric.func_8015B18C&#45;&gt;ric.func_8015CD98 -->
<g id="edge10" class="edge">
<title>ric.func_8015B18C&#45;&gt;ric.func_8015CD98</title>
<path fill="none" stroke="black" d="M1640.06,-360.25C1601.49,-328.32 1517.33,-258.65 1473.34,-222.23"/>
<polygon fill="black" stroke="black" points="1475.55,-219.51 1465.62,-215.83 1471.09,-224.9 1475.55,-219.51"/>
<text text-anchor="middle" x="1635.06" y="-349.05" font-family="Times,serif" font-size="14.00">1</text>
</g>
<!-- ric.func_8015B1E8 -->
<g id="node12" class="node">
<title>ric.func_8015B1E8</title>
<g id="a_node12"><a xlink:href="ric.func_8015B1E8.svg" xlink:title="ric.func_8015B1E8">
<ellipse fill="green" stroke="black" cx="1876.29" cy="-378" rx="98.58" ry="18"/>
<text text-anchor="middle" x="1876.29" y="-374.3" font-family="Times,serif" font-size="14.00">ric.func_8015B1E8</text>
</a>
</g>
</g>
<!-- ric.func_8015B1E8&#45;&gt;ric.func_8015CD98 -->
<g id="edge11" class="edge">
<title>ric.func_8015B1E8&#45;&gt;ric.func_8015CD98</title>
<path fill="none" stroke="black" d="M1838.42,-361.36C1759.72,-328.86 1578.66,-254.08 1492.51,-218.5"/>
<polygon fill="black" stroke="black" points="1493.81,-215.25 1483.23,-214.67 1491.13,-221.72 1493.81,-215.25"/>
<text text-anchor="middle" x="1833.42" y="-350.16" font-family="Times,serif" font-size="14.00">1</text>
</g>
<!-- ric.func_8015B244 -->
<g id="node13" class="node">
<title>ric.func_8015B244</title>
<g id="a_node13"><a xlink:href="ric.func_8015B244.svg" xlink:title="ric.func_8015B244">
<ellipse fill="green" stroke="black" cx="2091.29" cy="-378" rx="98.28" ry="18"/>
<text text-anchor="middle" x="2091.29" y="-374.3" font-family="Times,serif" font-size="14.00">ric.func_8015B244</text>
</a>
</g>
</g>
<!-- ric.func_8015B244&#45;&gt;ric.func_8015CD98 -->
<g id="edge12" class="edge">
<title>ric.func_8015B244&#45;&gt;ric.func_8015CD98</title>
<path fill="none" stroke="black" d="M2039.24,-362.66C1921.43,-330.2 1634.72,-251.2 1507.67,-216.19"/>
<polygon fill="black" stroke="black" points="1508.27,-212.72 1497.7,-213.44 1506.41,-219.47 1508.27,-212.72"/>
<text text-anchor="middle" x="2034.24" y="-351.46" font-family="Times,serif" font-size="14.00">1</text>
</g>
<!-- ric.func_8015BCD0 -->
<g id="node14" class="node">
<title>ric.func_8015BCD0</title>
<g id="a_node14"><a xlink:href="ric.func_8015BCD0.svg" xlink:title="ric.func_8015BCD0">
<ellipse fill="green" stroke="black" cx="2308.29" cy="-378" rx="100.98" ry="18"/>
<text text-anchor="middle" x="2308.29" y="-374.3" font-family="Times,serif" font-size="14.00">ric.func_8015BCD0</text>
</a>
</g>
</g>
<!-- ric.func_8015BCD0&#45;&gt;ric.func_8015CD98 -->
<g id="edge13" class="edge">
<title>ric.func_8015BCD0&#45;&gt;ric.func_8015CD98</title>
<path fill="none" stroke="black" d="M2244.83,-363.91C2088.32,-331.63 1684.53,-248.35 1518.38,-214.07"/>
<polygon fill="black" stroke="black" points="1518.76,-210.58 1508.26,-211.99 1517.34,-217.44 1518.76,-210.58"/>
<text text-anchor="middle" x="2239.83" y="-352.71" font-family="Times,serif" font-size="14.00">2</text>
</g>
<!-- ric.func_8015C178 -->
<g id="node15" class="node">
<title>ric.func_8015C178</title>
<g id="a_node15"><a xlink:href="ric.func_8015C178.svg" xlink:title="ric.func_8015C178">
<ellipse fill="green" stroke="black" cx="2525.29" cy="-378" rx="98.28" ry="18"/>
<text text-anchor="middle" x="2525.29" y="-374.3" font-family="Times,serif" font-size="14.00">ric.func_8015C178</text>
</a>
</g>
</g>
<!-- ric.func_8015C178&#45;&gt;ric.func_8015CD98 -->
<g id="edge14" class="edge">
<title>ric.func_8015C178&#45;&gt;ric.func_8015CD98</title>
<path fill="none" stroke="black" d="M2454.84,-365.39C2262.67,-333.72 1730.12,-245.94 1526.18,-212.33"/>
<polygon fill="black" stroke="black" points="1526.57,-208.85 1516.14,-210.68 1525.43,-215.76 1526.57,-208.85"/>
<text text-anchor="middle" x="2449.84" y="-354.19" font-family="Times,serif" font-size="14.00">1</text>
</g>
<!-- ric.func_8015DBB0 -->
<g id="node16" class="node">
<title>ric.func_8015DBB0</title>
<g id="a_node16"><a xlink:href="ric.func_8015DBB0.svg" xlink:title="ric.func_8015DBB0">
<ellipse fill="green" stroke="black" cx="2742.29" cy="-378" rx="100.98" ry="18"/>
<text text-anchor="middle" x="2742.29" y="-374.3" font-family="Times,serif" font-size="14.00">ric.func_8015DBB0</text>
</a>
</g>
</g>
<!-- ric.func_8015DBB0&#45;&gt;ric.func_8015CD98 -->
<g id="edge15" class="edge">
<title>ric.func_8015DBB0&#45;&gt;ric.func_8015CD98</title>
<path fill="none" stroke="black" d="M2669.24,-365.52C2656.91,-363.63 2644.24,-361.73 2632.29,-360 2222.14,-300.5 1731.24,-236.07 1533.86,-210.44"/>
<polygon fill="black" stroke="black" points="1534.2,-206.96 1523.83,-209.14 1533.3,-213.9 1534.2,-206.96"/>
<text text-anchor="middle" x="2664.24" y="-354.32" font-family="Times,serif" font-size="14.00">1</text>
</g>
</g>
</svg>
