<?xml version="1.0" encoding="UTF-8" standalone="no"?>
<!DOCTYPE svg PUBLIC "-//W3C//DTD SVG 1.1//EN"
 "http://www.w3.org/Graphics/SVG/1.1/DTD/svg11.dtd">
<!-- Generated by graphviz version 2.43.0 (0)
 -->
<!-- Title: ric.EntityCrossBoomerang Pages: 1 -->
<svg width="1065pt" height="224pt"
 viewBox="0.00 0.00 1065.49 224.00" xmlns="http://www.w3.org/2000/svg" xmlns:xlink="http://www.w3.org/1999/xlink">
<g id="graph0" class="graph" transform="scale(1 1) rotate(0) translate(4 220)">
<title>ric.EntityCrossBoomerang</title>
<polygon fill="white" stroke="transparent" points="-4,4 -4,-220 1061.49,-220 1061.49,4 -4,4"/>
<!-- ric.EntityCrossBoomerang -->
<g id="node1" class="node">
<title>ric.EntityCrossBoomerang</title>
<ellipse fill="green" stroke="black" cx="580.34" cy="-198" rx="133.78" ry="18"/>
<text text-anchor="middle" x="580.34" y="-194.3" font-family="Times,serif" font-size="14.00">ric.EntityCrossBoomerang</text>
</g>
<!-- dra.PlaySfx -->
<g id="node2" class="node">
<title>dra.PlaySfx</title>
<g id="a_node2"><a xlink:href="dra.PlaySfx.svg" xlink:title="dra.PlaySfx">
<ellipse fill="green" stroke="black" cx="64.34" cy="-18" rx="64.19" ry="18"/>
<text text-anchor="middle" x="64.34" y="-14.3" font-family="Times,serif" font-size="14.00">dra.PlaySfx</text>
</a>
</g>
</g>
<!-- ric.EntityCrossBoomerang&#45;&gt;dra.PlaySfx -->
<g id="edge1" class="edge">
<title>ric.EntityCrossBoomerang&#45;&gt;dra.PlaySfx</title>
<path fill="none" stroke="black" d="M534.1,-181.05C436.78,-147.48 211.68,-69.83 112.62,-35.65"/>
<polygon fill="black" stroke="black" points="113.75,-32.34 103.15,-32.39 111.46,-38.96 113.75,-32.34"/>
<text text-anchor="middle" x="98.15" y="-36.19" font-family="Times,serif" font-size="14.00">1</text>
</g>
<!-- ric.CreateEntFactoryFromEntity -->
<g id="node3" class="node">
<title>ric.CreateEntFactoryFromEntity</title>
<g id="a_node3"><a xlink:href="ric.CreateEntFactoryFromEntity.svg" xlink:title="ric.CreateEntFactoryFromEntity">
<ellipse fill="green" stroke="black" cx="309.34" cy="-18" rx="162.47" ry="18"/>
<text text-anchor="middle" x="309.34" y="-14.3" font-family="Times,serif" font-size="14.00">ric.CreateEntFactoryFromEntity</text>
</a>
</g>
</g>
<!-- ric.EntityCrossBoomerang&#45;&gt;ric.CreateEntFactoryFromEntity -->
<g id="edge2" class="edge">
<title>ric.EntityCrossBoomerang&#45;&gt;ric.CreateEntFactoryFromEntity</title>
<path fill="none" stroke="black" d="M554.85,-180.25C505.82,-148.05 398.39,-77.49 343.34,-41.33"/>
<polygon fill="black" stroke="black" points="345.25,-38.4 334.97,-35.83 341.41,-44.25 345.25,-38.4"/>
<text text-anchor="middle" x="329.97" y="-39.63" font-family="Times,serif" font-size="14.00">7</text>
</g>
<!-- ric.DestroyEntity -->
<g id="node4" class="node">
<title>ric.DestroyEntity</title>
<g id="a_node4"><a xlink:href="ric.DestroyEntity.svg" xlink:title="ric.DestroyEntity">
<ellipse fill="green" stroke="black" cx="580.34" cy="-18" rx="90.98" ry="18"/>
<text text-anchor="middle" x="580.34" y="-14.3" font-family="Times,serif" font-size="14.00">ric.DestroyEntity</text>
</a>
</g>
</g>
<!-- ric.EntityCrossBoomerang&#45;&gt;ric.DestroyEntity -->
<g id="edge3" class="edge">
<title>ric.EntityCrossBoomerang&#45;&gt;ric.DestroyEntity</title>
<path fill="none" stroke="black" d="M580.34,-179.93C580.34,-148.97 580.34,-83.3 580.34,-46.13"/>
<polygon fill="black" stroke="black" points="583.84,-46.02 580.34,-36.02 576.84,-46.02 583.84,-46.02"/>
<text text-anchor="middle" x="575.34" y="-39.82" font-family="Times,serif" font-size="14.00">1</text>
</g>
<!-- ric.SetSpeedX -->
<g id="node5" class="node">
<title>ric.SetSpeedX</title>
<g id="a_node5"><a xlink:href="ric.SetSpeedX.svg" xlink:title="ric.SetSpeedX">
<ellipse fill="green" stroke="black" cx="766.34" cy="-18" rx="76.89" ry="18"/>
<text text-anchor="middle" x="766.34" y="-14.3" font-family="Times,serif" font-size="14.00">ric.SetSpeedX</text>
</a>
</g>
</g>
<!-- ric.EntityCrossBoomerang&#45;&gt;ric.SetSpeedX -->
<g id="edge4" class="edge">
<title>ric.EntityCrossBoomerang&#45;&gt;ric.SetSpeedX</title>
<path fill="none" stroke="black" d="M598.18,-179.93C631.45,-148.09 703.08,-79.54 741.23,-43.04"/>
<polygon fill="black" stroke="black" points="744.03,-45.2 748.84,-35.76 739.19,-40.14 744.03,-45.2"/>
<text text-anchor="middle" x="743.84" y="-39.56" font-family="Times,serif" font-size="14.00">1</text>
</g>
<!-- ric.func_8015FAB8 -->
<g id="node6" class="node">
<title>ric.func_8015FAB8</title>
<g id="a_node6"><a xlink:href="ric.func_8015FAB8.svg" xlink:title="ric.func_8015FAB8">
<ellipse fill="green" stroke="black" cx="959.34" cy="-18" rx="98.28" ry="18"/>
<text text-anchor="middle" x="959.34" y="-14.3" font-family="Times,serif" font-size="14.00">ric.func_8015FAB8</text>
</a>
</g>
</g>
<!-- ric.EntityCrossBoomerang&#45;&gt;ric.func_8015FAB8 -->
<g id="edge5" class="edge">
<title>ric.EntityCrossBoomerang&#45;&gt;ric.func_8015FAB8</title>
<path fill="none" stroke="black" d="M615.32,-180.57C684.82,-147.93 840.14,-74.99 915.99,-39.36"/>
<polygon fill="black" stroke="black" points="917.71,-42.42 925.27,-35 914.73,-36.09 917.71,-42.42"/>
<text text-anchor="middle" x="920.27" y="-38.8" font-family="Times,serif" font-size="14.00">1</text>
</g>
</g>
</svg>
