<?xml version="1.0" encoding="UTF-8" standalone="no"?>
<!DOCTYPE svg PUBLIC "-//W3C//DTD SVG 1.1//EN"
 "http://www.w3.org/Graphics/SVG/1.1/DTD/svg11.dtd">
<!-- Generated by graphviz version 2.43.0 (0)
 -->
<!-- Title: ric.func_8015CE7C Pages: 1 -->
<svg width="1228pt" height="404pt"
 viewBox="0.00 0.00 1227.53 404.00" xmlns="http://www.w3.org/2000/svg" xmlns:xlink="http://www.w3.org/1999/xlink">
<g id="graph0" class="graph" transform="scale(1 1) rotate(0) translate(4 400)">
<title>ric.func_8015CE7C</title>
<polygon fill="white" stroke="transparent" points="-4,4 -4,-400 1223.53,-400 1223.53,4 -4,4"/>
<!-- ric.func_8015CE7C -->
<g id="node1" class="node">
<title>ric.func_8015CE7C</title>
<ellipse fill="green" stroke="black" cx="797.78" cy="-198" rx="100.18" ry="18"/>
<text text-anchor="middle" x="797.78" y="-194.3" font-family="Times,serif" font-size="14.00">ric.func_8015CE7C</text>
</g>
<!-- ric.RicCreateEntFactoryFromEntity -->
<g id="node2" class="node">
<title>ric.RicCreateEntFactoryFromEntity</title>
<g id="a_node2"><a xlink:href="ric.RicCreateEntFactoryFromEntity.svg" xlink:title="ric.RicCreateEntFactoryFromEntity">
<ellipse fill="green" stroke="black" cx="176.78" cy="-18" rx="176.57" ry="18"/>
<text text-anchor="middle" x="176.78" y="-14.3" font-family="Times,serif" font-size="14.00">ric.RicCreateEntFactoryFromEntity</text>
</a>
</g>
</g>
<!-- ric.func_8015CE7C&#45;&gt;ric.RicCreateEntFactoryFromEntity -->
<g id="edge1" class="edge">
<title>ric.func_8015CE7C&#45;&gt;ric.RicCreateEntFactoryFromEntity</title>
<path fill="none" stroke="black" d="M746.97,-182.43C635.14,-150.38 367.79,-73.75 243.02,-37.99"/>
<polygon fill="black" stroke="black" points="243.78,-34.56 233.21,-35.17 241.85,-41.29 243.78,-34.56"/>
<text text-anchor="middle" x="228.21" y="-38.97" font-family="Times,serif" font-size="14.00">1</text>
</g>
<!-- ric.RicSetPlayerStep -->
<g id="node3" class="node">
<title>ric.RicSetPlayerStep</title>
<g id="a_node3"><a xlink:href="ric.RicSetPlayerStep.svg" xlink:title="ric.RicSetPlayerStep">
<ellipse fill="green" stroke="black" cx="478.78" cy="-18" rx="107.48" ry="18"/>
<text text-anchor="middle" x="478.78" y="-14.3" font-family="Times,serif" font-size="14.00">ric.RicSetPlayerStep</text>
</a>
</g>
</g>
<!-- ric.func_8015CE7C&#45;&gt;ric.RicSetPlayerStep -->
<g id="edge2" class="edge">
<title>ric.func_8015CE7C&#45;&gt;ric.RicSetPlayerStep</title>
<path fill="none" stroke="black" d="M768.63,-180.73C710.87,-148.5 581.91,-76.55 517.27,-40.48"/>
<polygon fill="black" stroke="black" points="518.66,-37.24 508.22,-35.42 515.24,-43.35 518.66,-37.24"/>
<text text-anchor="middle" x="503.22" y="-39.22" font-family="Times,serif" font-size="14.00">1</text>
</g>
<!-- ric.RicSetSpeedX -->
<g id="node4" class="node">
<title>ric.RicSetSpeedX</title>
<g id="a_node4"><a xlink:href="ric.RicSetSpeedX.svg" xlink:title="ric.RicSetSpeedX">
<ellipse fill="green" stroke="black" cx="694.78" cy="-18" rx="90.98" ry="18"/>
<text text-anchor="middle" x="694.78" y="-14.3" font-family="Times,serif" font-size="14.00">ric.RicSetSpeedX</text>
</a>
</g>
</g>
<!-- ric.func_8015CE7C&#45;&gt;ric.RicSetSpeedX -->
<g id="edge3" class="edge">
<title>ric.func_8015CE7C&#45;&gt;ric.RicSetSpeedX</title>
<path fill="none" stroke="black" d="M787.91,-179.93C769.76,-148.57 731.01,-81.6 709.66,-44.71"/>
<polygon fill="black" stroke="black" points="712.67,-42.92 704.63,-36.02 706.61,-46.42 712.67,-42.92"/>
<text text-anchor="middle" x="699.63" y="-39.82" font-family="Times,serif" font-size="14.00">1</text>
</g>
<!-- ric.func_8015C920 -->
<g id="node5" class="node">
<title>ric.func_8015C920</title>
<g id="a_node5"><a xlink:href="ric.func_8015C920.svg" xlink:title="ric.func_8015C920">
<ellipse fill="green" stroke="black" cx="901.78" cy="-18" rx="98.28" ry="18"/>
<text text-anchor="middle" x="901.78" y="-14.3" font-family="Times,serif" font-size="14.00">ric.func_8015C920</text>
</a>
</g>
</g>
<!-- ric.func_8015CE7C&#45;&gt;ric.func_8015C920 -->
<g id="edge4" class="edge">
<title>ric.func_8015CE7C&#45;&gt;ric.func_8015C920</title>
<path fill="none" stroke="black" d="M807.76,-179.93C826.08,-148.57 865.21,-81.6 886.76,-44.71"/>
<polygon fill="black" stroke="black" points="889.82,-46.42 891.84,-36.02 883.78,-42.88 889.82,-46.42"/>
<text text-anchor="middle" x="886.84" y="-39.82" font-family="Times,serif" font-size="14.00">1</text>
</g>
<!-- ric.func_8015CDE0 -->
<g id="node6" class="node">
<title>ric.func_8015CDE0</title>
<g id="a_node6"><a xlink:href="ric.func_8015CDE0.svg" xlink:title="ric.func_8015CDE0">
<ellipse fill="green" stroke="black" cx="1118.78" cy="-18" rx="100.98" ry="18"/>
<text text-anchor="middle" x="1118.78" y="-14.3" font-family="Times,serif" font-size="14.00">ric.func_8015CDE0</text>
</a>
</g>
</g>
<!-- ric.func_8015CE7C&#45;&gt;ric.func_8015CDE0 -->
<g id="edge5" class="edge">
<title>ric.func_8015CE7C&#45;&gt;ric.func_8015CDE0</title>
<path fill="none" stroke="black" d="M823.29,-180.57C878.48,-148.1 1008.8,-75.76 1076.49,-39.94"/>
<polygon fill="black" stroke="black" points="1078.4,-42.89 1085.61,-35.13 1075.13,-36.69 1078.4,-42.89"/>
<text text-anchor="middle" x="1080.61" y="-38.93" font-family="Times,serif" font-size="14.00">1</text>
</g>
<!-- ric.func_8015CDE0&#45;&gt;ric.func_8015CE7C -->
<g id="edge6" class="edge">
<title>ric.func_8015CDE0&#45;&gt;ric.func_8015CE7C</title>
<path fill="none" stroke="black" d="M1093.22,-35.46C1037.99,-67.95 907.69,-140.28 840.03,-176.09"/>
<polygon fill="black" stroke="black" points="838.13,-173.13 830.92,-180.89 841.4,-179.33 838.13,-173.13"/>
<text text-anchor="middle" x="1098.22" y="-39.26" font-family="Times,serif" font-size="14.00">1</text>
</g>
<!-- ric.func_8015DBB0 -->
<g id="node7" class="node">
<title>ric.func_8015DBB0</title>
<g id="a_node7"><a xlink:href="ric.func_8015DBB0.svg" xlink:title="ric.func_8015DBB0">
<ellipse fill="green" stroke="black" cx="797.78" cy="-378" rx="100.98" ry="18"/>
<text text-anchor="middle" x="797.78" y="-374.3" font-family="Times,serif" font-size="14.00">ric.func_8015DBB0</text>
</a>
</g>
</g>
<!-- ric.func_8015DBB0&#45;&gt;ric.func_8015CE7C -->
<g id="edge7" class="edge">
<title>ric.func_8015DBB0&#45;&gt;ric.func_8015CE7C</title>
<path fill="none" stroke="black" d="M797.78,-359.93C797.78,-328.97 797.78,-263.3 797.78,-226.13"/>
<polygon fill="black" stroke="black" points="801.28,-226.02 797.78,-216.02 794.28,-226.02 801.28,-226.02"/>
<text text-anchor="middle" x="792.78" y="-348.73" font-family="Times,serif" font-size="14.00">1</text>
</g>
</g>
</svg>
