<?xml version="1.0" encoding="UTF-8" standalone="no"?>
<!DOCTYPE svg PUBLIC "-//W3C//DTD SVG 1.1//EN"
 "http://www.w3.org/Graphics/SVG/1.1/DTD/svg11.dtd">
<!-- Generated by graphviz version 2.43.0 (0)
 -->
<!-- Title: rtop.GetSideToPlayer Pages: 1 -->
<svg width="1990pt" height="224pt"
 viewBox="0.00 0.00 1989.68 224.00" xmlns="http://www.w3.org/2000/svg" xmlns:xlink="http://www.w3.org/1999/xlink">
<g id="graph0" class="graph" transform="scale(1 1) rotate(0) translate(4 220)">
<title>rtop.GetSideToPlayer</title>
<polygon fill="white" stroke="transparent" points="-4,4 -4,-220 1985.68,-220 1985.68,4 -4,4"/>
<!-- rtop.GetSideToPlayer -->
<g id="node1" class="node">
<title>rtop.GetSideToPlayer</title>
<ellipse fill="green" stroke="black" cx="921.59" cy="-18" rx="110.48" ry="18"/>
<text text-anchor="middle" x="921.59" y="-14.3" font-family="Times,serif" font-size="14.00">rtop.GetSideToPlayer</text>
</g>
<!-- rtop.EntitySkullLord -->
<g id="node2" class="node">
<title>rtop.EntitySkullLord</title>
<g id="a_node2"><a xlink:href="rtop.EntitySkullLord.svg" xlink:title="rtop.EntitySkullLord">
<ellipse fill="green" stroke="black" cx="106.59" cy="-198" rx="106.68" ry="18"/>
<text text-anchor="middle" x="106.59" y="-194.3" font-family="Times,serif" font-size="14.00">rtop.EntitySkullLord</text>
</a>
</g>
</g>
<!-- rtop.EntitySkullLord&#45;&gt;rtop.GetSideToPlayer -->
<g id="edge1" class="edge">
<title>rtop.EntitySkullLord&#45;&gt;rtop.GetSideToPlayer</title>
<path fill="none" stroke="black" d="M169.19,-183.33C317.54,-150.93 689.92,-69.6 848.38,-34.99"/>
<polygon fill="black" stroke="black" points="849.48,-38.33 858.5,-32.78 847.98,-31.49 849.48,-38.33"/>
<text text-anchor="middle" x="164.19" y="-172.13" font-family="Times,serif" font-size="14.00">2</text>
</g>
<!-- rtop.EntityTombstone -->
<g id="node3" class="node">
<title>rtop.EntityTombstone</title>
<g id="a_node3"><a xlink:href="rtop.EntityTombstone.svg" xlink:title="rtop.EntityTombstone">
<ellipse fill="green" stroke="black" cx="343.59" cy="-198" rx="112.38" ry="18"/>
<text text-anchor="middle" x="343.59" y="-194.3" font-family="Times,serif" font-size="14.00">rtop.EntityTombstone</text>
</a>
</g>
</g>
<!-- rtop.EntityTombstone&#45;&gt;rtop.GetSideToPlayer -->
<g id="edge2" class="edge">
<title>rtop.EntityTombstone&#45;&gt;rtop.GetSideToPlayer</title>
<path fill="none" stroke="black" d="M393.12,-181.75C499.26,-149.06 748.23,-72.39 862.44,-37.21"/>
<polygon fill="black" stroke="black" points="863.55,-40.54 872.08,-34.25 861.49,-33.85 863.55,-40.54"/>
<text text-anchor="middle" x="388.12" y="-170.55" font-family="Times,serif" font-size="14.00">1</text>
</g>
<!-- rtop.RTOP_EntityBreakable -->
<g id="node4" class="node">
<title>rtop.RTOP_EntityBreakable</title>
<g id="a_node4"><a xlink:href="rtop.RTOP_EntityBreakable.svg" xlink:title="rtop.RTOP_EntityBreakable">
<ellipse fill="green" stroke="black" cx="613.59" cy="-198" rx="139.98" ry="18"/>
<text text-anchor="middle" x="613.59" y="-194.3" font-family="Times,serif" font-size="14.00">rtop.RTOP_EntityBreakable</text>
</a>
</g>
</g>
<!-- rtop.RTOP_EntityBreakable&#45;&gt;rtop.GetSideToPlayer -->
<g id="edge3" class="edge">
<title>rtop.RTOP_EntityBreakable&#45;&gt;rtop.GetSideToPlayer</title>
<path fill="none" stroke="black" d="M642.57,-180.25C698.66,-147.84 822.02,-76.54 884.2,-40.61"/>
<polygon fill="black" stroke="black" points="886.01,-43.61 892.92,-35.57 882.51,-37.55 886.01,-43.61"/>
<text text-anchor="middle" x="637.57" y="-169.05" font-family="Times,serif" font-size="14.00">1</text>
</g>
<!-- rtop.RTOP_EntityLockCamera -->
<g id="node5" class="node">
<title>rtop.RTOP_EntityLockCamera</title>
<g id="a_node5"><a xlink:href="rtop.RTOP_EntityLockCamera.svg" xlink:title="rtop.RTOP_EntityLockCamera">
<ellipse fill="green" stroke="black" cx="921.59" cy="-198" rx="150.27" ry="18"/>
<text text-anchor="middle" x="921.59" y="-194.3" font-family="Times,serif" font-size="14.00">rtop.RTOP_EntityLockCamera</text>
</a>
</g>
</g>
<!-- rtop.RTOP_EntityLockCamera&#45;&gt;rtop.GetSideToPlayer -->
<g id="edge4" class="edge">
<title>rtop.RTOP_EntityLockCamera&#45;&gt;rtop.GetSideToPlayer</title>
<path fill="none" stroke="black" d="M921.59,-179.93C921.59,-148.97 921.59,-83.3 921.59,-46.13"/>
<polygon fill="black" stroke="black" points="925.09,-46.02 921.59,-36.02 918.09,-46.02 925.09,-46.02"/>
<text text-anchor="middle" x="916.59" y="-168.73" font-family="Times,serif" font-size="14.00">1</text>
</g>
<!-- rtop.RTOP_EntityRedDoor -->
<g id="node6" class="node">
<title>rtop.RTOP_EntityRedDoor</title>
<g id="a_node6"><a xlink:href="rtop.RTOP_EntityRedDoor.svg" xlink:title="rtop.RTOP_EntityRedDoor">
<ellipse fill="green" stroke="black" cx="1222.59" cy="-198" rx="133.48" ry="18"/>
<text text-anchor="middle" x="1222.59" y="-194.3" font-family="Times,serif" font-size="14.00">rtop.RTOP_EntityRedDoor</text>
</a>
</g>
</g>
<!-- rtop.RTOP_EntityRedDoor&#45;&gt;rtop.GetSideToPlayer -->
<g id="edge5" class="edge">
<title>rtop.RTOP_EntityRedDoor&#45;&gt;rtop.GetSideToPlayer</title>
<path fill="none" stroke="black" d="M1194.27,-180.25C1139.57,-147.9 1019.39,-76.84 958.5,-40.83"/>
<polygon fill="black" stroke="black" points="960,-37.65 949.61,-35.57 956.44,-43.67 960,-37.65"/>
<text text-anchor="middle" x="1189.27" y="-169.05" font-family="Times,serif" font-size="14.00">1</text>
</g>
<!-- rwrp.RWRP_EntityLockCamera -->
<g id="node7" class="node">
<title>rwrp.RWRP_EntityLockCamera</title>
<g id="a_node7"><a xlink:href="rwrp.RWRP_EntityLockCamera.svg" xlink:title="rwrp.RWRP_EntityLockCamera">
<ellipse fill="green" stroke="black" cx="1529.59" cy="-198" rx="155.97" ry="18"/>
<text text-anchor="middle" x="1529.59" y="-194.3" font-family="Times,serif" font-size="14.00">rwrp.RWRP_EntityLockCamera</text>
</a>
</g>
</g>
<!-- rwrp.RWRP_EntityLockCamera&#45;&gt;rtop.GetSideToPlayer -->
<g id="edge6" class="edge">
<title>rwrp.RWRP_EntityLockCamera&#45;&gt;rtop.GetSideToPlayer</title>
<path fill="none" stroke="black" d="M1475.1,-181.05C1361.7,-147.85 1101.03,-71.53 982.39,-36.8"/>
<polygon fill="black" stroke="black" points="983.31,-33.42 972.72,-33.97 981.34,-40.14 983.31,-33.42"/>
<text text-anchor="middle" x="1470.1" y="-169.85" font-family="Times,serif" font-size="14.00">1</text>
</g>
<!-- rwrp.RWRP_EntityRedDoor -->
<g id="node8" class="node">
<title>rwrp.RWRP_EntityRedDoor</title>
<g id="a_node8"><a xlink:href="rwrp.RWRP_EntityRedDoor.svg" xlink:title="rwrp.RWRP_EntityRedDoor">
<ellipse fill="green" stroke="black" cx="1842.59" cy="-198" rx="139.18" ry="18"/>
<text text-anchor="middle" x="1842.59" y="-194.3" font-family="Times,serif" font-size="14.00">rwrp.RWRP_EntityRedDoor</text>
</a>
</g>
</g>
<!-- rwrp.RWRP_EntityRedDoor&#45;&gt;rtop.GetSideToPlayer -->
<g id="edge7" class="edge">
<title>rwrp.RWRP_EntityRedDoor&#45;&gt;rtop.GetSideToPlayer</title>
<path fill="none" stroke="black" d="M1768.78,-182.73C1597.62,-149.66 1174.96,-67.97 999.69,-34.09"/>
<polygon fill="black" stroke="black" points="1000.25,-30.64 989.77,-32.18 998.92,-37.51 1000.25,-30.64"/>
<text text-anchor="middle" x="1763.78" y="-171.53" font-family="Times,serif" font-size="14.00">1</text>
</g>
</g>
</svg>
