<?xml version="1.0" encoding="UTF-8" standalone="no"?>
<!DOCTYPE svg PUBLIC "-//W3C//DTD SVG 1.1//EN"
 "http://www.w3.org/Graphics/SVG/1.1/DTD/svg11.dtd">
<!-- Generated by graphviz version 2.43.0 (0)
 -->
<!-- Title: rtop.CreateEntityFromEntity Pages: 1 -->
<svg width="2738pt" height="404pt"
 viewBox="0.00 0.00 2738.43 404.00" xmlns="http://www.w3.org/2000/svg" xmlns:xlink="http://www.w3.org/1999/xlink">
<g id="graph0" class="graph" transform="scale(1 1) rotate(0) translate(4 400)">
<title>rtop.CreateEntityFromEntity</title>
<polygon fill="white" stroke="transparent" points="-4,4 -4,-400 2734.43,-400 2734.43,4 -4,4"/>
<!-- rtop.CreateEntityFromEntity -->
<g id="node1" class="node">
<title>rtop.CreateEntityFromEntity</title>
<ellipse fill="green" stroke="black" cx="1448.69" cy="-198" rx="146.77" ry="18"/>
<text text-anchor="middle" x="1448.69" y="-194.3" font-family="Times,serif" font-size="14.00">rtop.CreateEntityFromEntity</text>
</g>
<!-- rtop.DestroyEntity -->
<g id="node2" class="node">
<title>rtop.DestroyEntity</title>
<g id="a_node2"><a xlink:href="rtop.DestroyEntity.svg" xlink:title="rtop.DestroyEntity">
<ellipse fill="green" stroke="black" cx="1448.69" cy="-18" rx="98.58" ry="18"/>
<text text-anchor="middle" x="1448.69" y="-14.3" font-family="Times,serif" font-size="14.00">rtop.DestroyEntity</text>
</a>
</g>
</g>
<!-- rtop.CreateEntityFromEntity&#45;&gt;rtop.DestroyEntity -->
<g id="edge1" class="edge">
<title>rtop.CreateEntityFromEntity&#45;&gt;rtop.DestroyEntity</title>
<path fill="none" stroke="black" d="M1448.69,-179.93C1448.69,-148.97 1448.69,-83.3 1448.69,-46.13"/>
<polygon fill="black" stroke="black" points="1452.19,-46.02 1448.69,-36.02 1445.19,-46.02 1452.19,-46.02"/>
<text text-anchor="middle" x="1443.69" y="-39.82" font-family="Times,serif" font-size="14.00">1</text>
</g>
<!-- rtop.EntityBreakableWall -->
<g id="node3" class="node">
<title>rtop.EntityBreakableWall</title>
<g id="a_node3"><a xlink:href="rtop.EntityBreakableWall.svg" xlink:title="rtop.EntityBreakableWall">
<ellipse fill="green" stroke="black" cx="128.69" cy="-378" rx="128.88" ry="18"/>
<text text-anchor="middle" x="128.69" y="-374.3" font-family="Times,serif" font-size="14.00">rtop.EntityBreakableWall</text>
</a>
</g>
</g>
<!-- rtop.EntityBreakableWall&#45;&gt;rtop.CreateEntityFromEntity -->
<g id="edge2" class="edge">
<title>rtop.EntityBreakableWall&#45;&gt;rtop.CreateEntityFromEntity</title>
<path fill="none" stroke="black" d="M217.86,-364.97C453.36,-333.22 1091.09,-247.22 1343.65,-213.16"/>
<polygon fill="black" stroke="black" points="1344.48,-216.58 1353.93,-211.78 1343.55,-209.65 1344.48,-216.58"/>
<text text-anchor="middle" x="212.86" y="-353.77" font-family="Times,serif" font-size="14.00">1</text>
</g>
<!-- rtop.EntitySkullLord -->
<g id="node4" class="node">
<title>rtop.EntitySkullLord</title>
<g id="a_node4"><a xlink:href="rtop.EntitySkullLord.svg" xlink:title="rtop.EntitySkullLord">
<ellipse fill="green" stroke="black" cx="381.69" cy="-378" rx="106.68" ry="18"/>
<text text-anchor="middle" x="381.69" y="-374.3" font-family="Times,serif" font-size="14.00">rtop.EntitySkullLord</text>
</a>
</g>
</g>
<!-- rtop.EntitySkullLord&#45;&gt;rtop.CreateEntityFromEntity -->
<g id="edge3" class="edge">
<title>rtop.EntitySkullLord&#45;&gt;rtop.CreateEntityFromEntity</title>
<path fill="none" stroke="black" d="M454.61,-364.84C643.14,-333.38 1146.54,-249.4 1355.63,-214.52"/>
<polygon fill="black" stroke="black" points="1356.38,-217.95 1365.67,-212.85 1355.23,-211.04 1356.38,-217.95"/>
<text text-anchor="middle" x="449.61" y="-353.64" font-family="Times,serif" font-size="14.00">3</text>
</g>
<!-- rtop.EntitySkullLordFlames -->
<g id="node5" class="node">
<title>rtop.EntitySkullLordFlames</title>
<g id="a_node5"><a xlink:href="rtop.EntitySkullLordFlames.svg" xlink:title="rtop.EntitySkullLordFlames">
<ellipse fill="green" stroke="black" cx="646.69" cy="-378" rx="140.28" ry="18"/>
<text text-anchor="middle" x="646.69" y="-374.3" font-family="Times,serif" font-size="14.00">rtop.EntitySkullLordFlames</text>
</a>
</g>
</g>
<!-- rtop.EntitySkullLordFlames&#45;&gt;rtop.CreateEntityFromEntity -->
<g id="edge4" class="edge">
<title>rtop.EntitySkullLordFlames&#45;&gt;rtop.CreateEntityFromEntity</title>
<path fill="none" stroke="black" d="M713.69,-362.13C861.32,-329.36 1213.96,-251.1 1370.98,-216.25"/>
<polygon fill="black" stroke="black" points="1372.03,-219.6 1381.03,-214.02 1370.51,-212.77 1372.03,-219.6"/>
<text text-anchor="middle" x="708.69" y="-350.93" font-family="Times,serif" font-size="14.00">1</text>
</g>
<!-- rtop.EntitySkullLordOutline -->
<g id="node6" class="node">
<title>rtop.EntitySkullLordOutline</title>
<g id="a_node6"><a xlink:href="rtop.EntitySkullLordOutline.svg" xlink:title="rtop.EntitySkullLordOutline">
<ellipse fill="green" stroke="black" cx="945.69" cy="-378" rx="141.07" ry="18"/>
<text text-anchor="middle" x="945.69" y="-374.3" font-family="Times,serif" font-size="14.00">rtop.EntitySkullLordOutline</text>
</a>
</g>
</g>
<!-- rtop.EntitySkullLordOutline&#45;&gt;rtop.CreateEntityFromEntity -->
<g id="edge5" class="edge">
<title>rtop.EntitySkullLordOutline&#45;&gt;rtop.CreateEntityFromEntity</title>
<path fill="none" stroke="black" d="M991.21,-360.89C1083.66,-328.18 1293.08,-254.07 1393.27,-218.61"/>
<polygon fill="black" stroke="black" points="1394.64,-221.84 1402.9,-215.2 1392.31,-215.24 1394.64,-221.84"/>
<text text-anchor="middle" x="986.21" y="-349.69" font-family="Times,serif" font-size="14.00">1</text>
</g>
<!-- rtop.EntityTombstone -->
<g id="node7" class="node">
<title>rtop.EntityTombstone</title>
<g id="a_node7"><a xlink:href="rtop.EntityTombstone.svg" xlink:title="rtop.EntityTombstone">
<ellipse fill="green" stroke="black" cx="1216.69" cy="-378" rx="112.38" ry="18"/>
<text text-anchor="middle" x="1216.69" y="-374.3" font-family="Times,serif" font-size="14.00">rtop.EntityTombstone</text>
</a>
</g>
</g>
<!-- rtop.EntityTombstone&#45;&gt;rtop.CreateEntityFromEntity -->
<g id="edge6" class="edge">
<title>rtop.EntityTombstone&#45;&gt;rtop.CreateEntityFromEntity</title>
<path fill="none" stroke="black" d="M1238.51,-360.25C1280.23,-328.25 1371.32,-258.36 1418.71,-222"/>
<polygon fill="black" stroke="black" points="1420.95,-224.7 1426.75,-215.83 1416.69,-219.14 1420.95,-224.7"/>
<text text-anchor="middle" x="1233.51" y="-349.05" font-family="Times,serif" font-size="14.00">1</text>
</g>
<!-- rtop.EntityUnkId13 -->
<g id="node8" class="node">
<title>rtop.EntityUnkId13</title>
<g id="a_node8"><a xlink:href="rtop.EntityUnkId13.svg" xlink:title="rtop.EntityUnkId13">
<ellipse fill="green" stroke="black" cx="1448.69" cy="-378" rx="102.08" ry="18"/>
<text text-anchor="middle" x="1448.69" y="-374.3" font-family="Times,serif" font-size="14.00">rtop.EntityUnkId13</text>
</a>
</g>
</g>
<!-- rtop.EntityUnkId13&#45;&gt;rtop.CreateEntityFromEntity -->
<g id="edge7" class="edge">
<title>rtop.EntityUnkId13&#45;&gt;rtop.CreateEntityFromEntity</title>
<path fill="none" stroke="black" d="M1448.69,-359.93C1448.69,-328.97 1448.69,-263.3 1448.69,-226.13"/>
<polygon fill="black" stroke="black" points="1452.19,-226.02 1448.69,-216.02 1445.19,-226.02 1452.19,-226.02"/>
<text text-anchor="middle" x="1443.69" y="-348.73" font-family="Times,serif" font-size="14.00">1</text>
</g>
<!-- rtop.EntityYorick -->
<g id="node9" class="node">
<title>rtop.EntityYorick</title>
<g id="a_node9"><a xlink:href="rtop.EntityYorick.svg" xlink:title="rtop.EntityYorick">
<ellipse fill="green" stroke="black" cx="1658.69" cy="-378" rx="90.18" ry="18"/>
<text text-anchor="middle" x="1658.69" y="-374.3" font-family="Times,serif" font-size="14.00">rtop.EntityYorick</text>
</a>
</g>
</g>
<!-- rtop.EntityYorick&#45;&gt;rtop.CreateEntityFromEntity -->
<g id="edge8" class="edge">
<title>rtop.EntityYorick&#45;&gt;rtop.CreateEntityFromEntity</title>
<path fill="none" stroke="black" d="M1638.93,-360.25C1601.43,-328.46 1519.82,-259.29 1476.69,-222.73"/>
<polygon fill="black" stroke="black" points="1478.74,-219.89 1468.85,-216.09 1474.22,-225.23 1478.74,-219.89"/>
<text text-anchor="middle" x="1633.93" y="-349.05" font-family="Times,serif" font-size="14.00">1</text>
</g>
<!-- rtop.EntityYorickSkull -->
<g id="node10" class="node">
<title>rtop.EntityYorickSkull</title>
<g id="a_node10"><a xlink:href="rtop.EntityYorickSkull.svg" xlink:title="rtop.EntityYorickSkull">
<ellipse fill="green" stroke="black" cx="1880.69" cy="-378" rx="113.98" ry="18"/>
<text text-anchor="middle" x="1880.69" y="-374.3" font-family="Times,serif" font-size="14.00">rtop.EntityYorickSkull</text>
</a>
</g>
</g>
<!-- rtop.EntityYorickSkull&#45;&gt;rtop.CreateEntityFromEntity -->
<g id="edge9" class="edge">
<title>rtop.EntityYorickSkull&#45;&gt;rtop.CreateEntityFromEntity</title>
<path fill="none" stroke="black" d="M1841.97,-361.05C1763.22,-328.6 1584.53,-254.97 1497.77,-219.22"/>
<polygon fill="black" stroke="black" points="1498.99,-215.94 1488.41,-215.37 1496.32,-222.41 1498.99,-215.94"/>
<text text-anchor="middle" x="1836.97" y="-349.85" font-family="Times,serif" font-size="14.00">1</text>
</g>
<!-- rtop.HitDetection -->
<g id="node11" class="node">
<title>rtop.HitDetection</title>
<g id="a_node11"><a xlink:href="rtop.HitDetection.svg" xlink:title="rtop.HitDetection">
<ellipse fill="green" stroke="black" cx="2105.69" cy="-378" rx="92.88" ry="18"/>
<text text-anchor="middle" x="2105.69" y="-374.3" font-family="Times,serif" font-size="14.00">rtop.HitDetection</text>
</a>
</g>
</g>
<!-- rtop.HitDetection&#45;&gt;rtop.CreateEntityFromEntity -->
<g id="edge10" class="edge">
<title>rtop.HitDetection&#45;&gt;rtop.CreateEntityFromEntity</title>
<path fill="none" stroke="black" d="M2053.86,-362.96C1936.03,-331.04 1648.09,-253.02 1516.41,-217.35"/>
<polygon fill="black" stroke="black" points="1517.01,-213.88 1506.44,-214.65 1515.18,-220.64 1517.01,-213.88"/>
<text text-anchor="middle" x="2048.86" y="-351.76" font-family="Times,serif" font-size="14.00">3</text>
</g>
<!-- rtop.MakeExplosions -->
<g id="node12" class="node">
<title>rtop.MakeExplosions</title>
<g id="a_node12"><a xlink:href="rtop.MakeExplosions.svg" xlink:title="rtop.MakeExplosions">
<ellipse fill="green" stroke="black" cx="2324.69" cy="-378" rx="108.58" ry="18"/>
<text text-anchor="middle" x="2324.69" y="-374.3" font-family="Times,serif" font-size="14.00">rtop.MakeExplosions</text>
</a>
</g>
</g>
<!-- rtop.MakeExplosions&#45;&gt;rtop.CreateEntityFromEntity -->
<g id="edge11" class="edge">
<title>rtop.MakeExplosions&#45;&gt;rtop.CreateEntityFromEntity</title>
<path fill="none" stroke="black" d="M2258.85,-363.62C2101.45,-331.64 1703.67,-250.81 1530.9,-215.71"/>
<polygon fill="black" stroke="black" points="1531.59,-212.27 1521.1,-213.71 1530.2,-219.13 1531.59,-212.27"/>
<text text-anchor="middle" x="2253.85" y="-352.42" font-family="Times,serif" font-size="14.00">1</text>
</g>
<!-- rtop.RTOP_EntityBreakable -->
<g id="node13" class="node">
<title>rtop.RTOP_EntityBreakable</title>
<g id="a_node13"><a xlink:href="rtop.RTOP_EntityBreakable.svg" xlink:title="rtop.RTOP_EntityBreakable">
<ellipse fill="green" stroke="black" cx="2590.69" cy="-378" rx="139.98" ry="18"/>
<text text-anchor="middle" x="2590.69" y="-374.3" font-family="Times,serif" font-size="14.00">rtop.RTOP_EntityBreakable</text>
</a>
</g>
</g>
<!-- rtop.RTOP_EntityBreakable&#45;&gt;rtop.CreateEntityFromEntity -->
<g id="edge12" class="edge">
<title>rtop.RTOP_EntityBreakable&#45;&gt;rtop.CreateEntityFromEntity</title>
<path fill="none" stroke="black" d="M2505.32,-363.69C2297.25,-331.26 1764.96,-248.3 1545.51,-214.09"/>
<polygon fill="black" stroke="black" points="1546.04,-210.63 1535.62,-212.55 1544.96,-217.55 1546.04,-210.63"/>
<text text-anchor="middle" x="2500.32" y="-352.49" font-family="Times,serif" font-size="14.00">3</text>
</g>
</g>
</svg>
