<?xml version="1.0" encoding="UTF-8" standalone="no"?>
<!DOCTYPE svg PUBLIC "-//W3C//DTD SVG 1.1//EN"
 "http://www.w3.org/Graphics/SVG/1.1/DTD/svg11.dtd">
<!-- Generated by graphviz version 2.43.0 (0)
 -->
<!-- Title: rtop.EntityPrizeDrop Pages: 1 -->
<svg width="3741pt" height="404pt"
 viewBox="0.00 0.00 3741.13 404.00" xmlns="http://www.w3.org/2000/svg" xmlns:xlink="http://www.w3.org/1999/xlink">
<g id="graph0" class="graph" transform="scale(1 1) rotate(0) translate(4 400)">
<title>rtop.EntityPrizeDrop</title>
<polygon fill="white" stroke="transparent" points="-4,4 -4,-400 3737.13,-400 3737.13,4 -4,4"/>
<!-- rtop.EntityPrizeDrop -->
<g id="node1" class="node">
<title>rtop.EntityPrizeDrop</title>
<ellipse fill="green" stroke="black" cx="1869.44" cy="-198" rx="108.58" ry="18"/>
<text text-anchor="middle" x="1869.44" y="-194.3" font-family="Times,serif" font-size="14.00">rtop.EntityPrizeDrop</text>
</g>
<!-- dra.AllocPrimitives -->
<g id="node2" class="node">
<title>dra.AllocPrimitives</title>
<g id="a_node2"><a xlink:href="dra.AllocPrimitives.svg" xlink:title="dra.AllocPrimitives">
<ellipse fill="green" stroke="black" cx="99.44" cy="-18" rx="99.38" ry="18"/>
<text text-anchor="middle" x="99.44" y="-14.3" font-family="Times,serif" font-size="14.00">dra.AllocPrimitives</text>
</a>
</g>
</g>
<!-- rtop.EntityPrizeDrop&#45;&gt;dra.AllocPrimitives -->
<g id="edge1" class="edge">
<title>rtop.EntityPrizeDrop&#45;&gt;dra.AllocPrimitives</title>
<path fill="none" stroke="black" d="M1773.26,-189.64C1517.87,-169.69 801.63,-110.94 208.44,-36 199.37,-34.85 189.89,-33.54 180.48,-32.17"/>
<polygon fill="black" stroke="black" points="180.71,-28.67 170.3,-30.66 179.68,-35.59 180.71,-28.67"/>
<text text-anchor="middle" x="165.3" y="-34.46" font-family="Times,serif" font-size="14.00">1</text>
</g>
<!-- dra.CheckCollision -->
<g id="node3" class="node">
<title>dra.CheckCollision</title>
<g id="a_node3"><a xlink:href="dra.CheckCollision.svg" xlink:title="dra.CheckCollision">
<ellipse fill="green" stroke="black" cx="314.44" cy="-18" rx="97.48" ry="18"/>
<text text-anchor="middle" x="314.44" y="-14.3" font-family="Times,serif" font-size="14.00">dra.CheckCollision</text>
</a>
</g>
</g>
<!-- rtop.EntityPrizeDrop&#45;&gt;dra.CheckCollision -->
<g id="edge2" class="edge">
<title>rtop.EntityPrizeDrop&#45;&gt;dra.CheckCollision</title>
<path fill="none" stroke="black" d="M1777.71,-188.36C1548.43,-166.44 932.1,-105.41 420.44,-36 411.85,-34.83 402.89,-33.53 393.97,-32.18"/>
<polygon fill="black" stroke="black" points="394.35,-28.7 383.93,-30.64 393.28,-35.62 394.35,-28.7"/>
<text text-anchor="middle" x="378.93" y="-34.44" font-family="Times,serif" font-size="14.00">4</text>
</g>
<!-- dra.FreePrimitives -->
<g id="node4" class="node">
<title>dra.FreePrimitives</title>
<g id="a_node4"><a xlink:href="dra.FreePrimitives.svg" xlink:title="dra.FreePrimitives">
<ellipse fill="green" stroke="black" cx="528.44" cy="-18" rx="98.58" ry="18"/>
<text text-anchor="middle" x="528.44" y="-14.3" font-family="Times,serif" font-size="14.00">dra.FreePrimitives</text>
</a>
</g>
</g>
<!-- rtop.EntityPrizeDrop&#45;&gt;dra.FreePrimitives -->
<g id="edge3" class="edge">
<title>rtop.EntityPrizeDrop&#45;&gt;dra.FreePrimitives</title>
<path fill="none" stroke="black" d="M1784.5,-186.69C1584.3,-162.22 1067.27,-98.02 636.44,-36 627.84,-34.76 618.86,-33.42 609.92,-32.06"/>
<polygon fill="black" stroke="black" points="610.27,-28.57 599.86,-30.51 609.21,-35.49 610.27,-28.57"/>
<text text-anchor="middle" x="594.86" y="-34.31" font-family="Times,serif" font-size="14.00">1</text>
</g>
<!-- rtop.AnimateEntity -->
<g id="node5" class="node">
<title>rtop.AnimateEntity</title>
<g id="a_node5"><a xlink:href="rtop.AnimateEntity.svg" xlink:title="rtop.AnimateEntity">
<ellipse fill="green" stroke="black" cx="746.44" cy="-18" rx="100.98" ry="18"/>
<text text-anchor="middle" x="746.44" y="-14.3" font-family="Times,serif" font-size="14.00">rtop.AnimateEntity</text>
</a>
</g>
</g>
<!-- rtop.EntityPrizeDrop&#45;&gt;rtop.AnimateEntity -->
<g id="edge4" class="edge">
<title>rtop.EntityPrizeDrop&#45;&gt;rtop.AnimateEntity</title>
<path fill="none" stroke="black" d="M1794.01,-185.04C1591.88,-153.01 1039.18,-65.4 829.03,-32.09"/>
<polygon fill="black" stroke="black" points="829.41,-28.61 818.98,-30.5 828.31,-35.52 829.41,-28.61"/>
<text text-anchor="middle" x="813.98" y="-34.3" font-family="Times,serif" font-size="14.00">1</text>
</g>
<!-- rtop.CheckFieldCollision -->
<g id="node6" class="node">
<title>rtop.CheckFieldCollision</title>
<g id="a_node6"><a xlink:href="rtop.CheckFieldCollision.svg" xlink:title="rtop.CheckFieldCollision">
<ellipse fill="green" stroke="black" cx="990.44" cy="-18" rx="124.58" ry="18"/>
<text text-anchor="middle" x="990.44" y="-14.3" font-family="Times,serif" font-size="14.00">rtop.CheckFieldCollision</text>
</a>
</g>
</g>
<!-- rtop.EntityPrizeDrop&#45;&gt;rtop.CheckFieldCollision -->
<g id="edge5" class="edge">
<title>rtop.EntityPrizeDrop&#45;&gt;rtop.CheckFieldCollision</title>
<path fill="none" stroke="black" d="M1803.37,-183.62C1644.44,-151.44 1241.24,-69.79 1069.68,-35.05"/>
<polygon fill="black" stroke="black" points="1070.2,-31.58 1059.7,-33.03 1068.81,-38.44 1070.2,-31.58"/>
<text text-anchor="middle" x="1054.7" y="-36.83" font-family="Times,serif" font-size="14.00">2</text>
</g>
<!-- rtop.CollectDummy -->
<g id="node7" class="node">
<title>rtop.CollectDummy</title>
<g id="a_node7"><a xlink:href="rtop.CollectDummy.svg" xlink:title="rtop.CollectDummy">
<ellipse fill="green" stroke="black" cx="1234.44" cy="-18" rx="101.28" ry="18"/>
<text text-anchor="middle" x="1234.44" y="-14.3" font-family="Times,serif" font-size="14.00">rtop.CollectDummy</text>
</a>
</g>
</g>
<!-- rtop.EntityPrizeDrop&#45;&gt;rtop.CollectDummy -->
<g id="edge6" class="edge">
<title>rtop.EntityPrizeDrop&#45;&gt;rtop.CollectDummy</title>
<path fill="none" stroke="black" d="M1816.67,-182.21C1700.03,-149.51 1420.85,-71.25 1296.28,-36.33"/>
<polygon fill="black" stroke="black" points="1297.08,-32.92 1286.5,-33.59 1295.19,-39.66 1297.08,-32.92"/>
<text text-anchor="middle" x="1281.5" y="-37.39" font-family="Times,serif" font-size="14.00">1</text>
</g>
<!-- rtop.CollectGold -->
<g id="node8" class="node">
<title>rtop.CollectGold</title>
<g id="a_node8"><a xlink:href="rtop.CollectGold.svg" xlink:title="rtop.CollectGold">
<ellipse fill="green" stroke="black" cx="1440.44" cy="-18" rx="87.18" ry="18"/>
<text text-anchor="middle" x="1440.44" y="-14.3" font-family="Times,serif" font-size="14.00">rtop.CollectGold</text>
</a>
</g>
</g>
<!-- rtop.EntityPrizeDrop&#45;&gt;rtop.CollectGold -->
<g id="edge7" class="edge">
<title>rtop.EntityPrizeDrop&#45;&gt;rtop.CollectGold</title>
<path fill="none" stroke="black" d="M1830.99,-181.05C1752.08,-148.3 1572.09,-73.62 1486.85,-38.26"/>
<polygon fill="black" stroke="black" points="1488,-34.95 1477.43,-34.35 1485.32,-41.41 1488,-34.95"/>
<text text-anchor="middle" x="1472.43" y="-38.15" font-family="Times,serif" font-size="14.00">1</text>
</g>
<!-- rtop.CollectHeart -->
<g id="node9" class="node">
<title>rtop.CollectHeart</title>
<g id="a_node9"><a xlink:href="rtop.CollectHeart.svg" xlink:title="rtop.CollectHeart">
<ellipse fill="green" stroke="black" cx="1637.44" cy="-18" rx="92.08" ry="18"/>
<text text-anchor="middle" x="1637.44" y="-14.3" font-family="Times,serif" font-size="14.00">rtop.CollectHeart</text>
</a>
</g>
</g>
<!-- rtop.EntityPrizeDrop&#45;&gt;rtop.CollectHeart -->
<g id="edge8" class="edge">
<title>rtop.EntityPrizeDrop&#45;&gt;rtop.CollectHeart</title>
<path fill="none" stroke="black" d="M1847.62,-180.25C1805.8,-148.17 1714.34,-78 1667.06,-41.72"/>
<polygon fill="black" stroke="black" points="1669.1,-38.88 1659.04,-35.57 1664.84,-44.44 1669.1,-38.88"/>
<text text-anchor="middle" x="1654.04" y="-39.37" font-family="Times,serif" font-size="14.00">1</text>
</g>
<!-- rtop.CollectHeartVessel -->
<g id="node10" class="node">
<title>rtop.CollectHeartVessel</title>
<g id="a_node10"><a xlink:href="rtop.CollectHeartVessel.svg" xlink:title="rtop.CollectHeartVessel">
<ellipse fill="green" stroke="black" cx="1869.44" cy="-18" rx="121.58" ry="18"/>
<text text-anchor="middle" x="1869.44" y="-14.3" font-family="Times,serif" font-size="14.00">rtop.CollectHeartVessel</text>
</a>
</g>
</g>
<!-- rtop.EntityPrizeDrop&#45;&gt;rtop.CollectHeartVessel -->
<g id="edge9" class="edge">
<title>rtop.EntityPrizeDrop&#45;&gt;rtop.CollectHeartVessel</title>
<path fill="none" stroke="black" d="M1869.44,-179.93C1869.44,-148.97 1869.44,-83.3 1869.44,-46.13"/>
<polygon fill="black" stroke="black" points="1872.94,-46.02 1869.44,-36.02 1865.94,-46.02 1872.94,-46.02"/>
<text text-anchor="middle" x="1864.44" y="-39.82" font-family="Times,serif" font-size="14.00">1</text>
</g>
<!-- rtop.CollectLifeVessel -->
<g id="node11" class="node">
<title>rtop.CollectLifeVessel</title>
<g id="a_node11"><a xlink:href="rtop.CollectLifeVessel.svg" xlink:title="rtop.CollectLifeVessel">
<ellipse fill="green" stroke="black" cx="2121.44" cy="-18" rx="112.38" ry="18"/>
<text text-anchor="middle" x="2121.44" y="-14.3" font-family="Times,serif" font-size="14.00">rtop.CollectLifeVessel</text>
</a>
</g>
</g>
<!-- rtop.EntityPrizeDrop&#45;&gt;rtop.CollectLifeVessel -->
<g id="edge10" class="edge">
<title>rtop.EntityPrizeDrop&#45;&gt;rtop.CollectLifeVessel</title>
<path fill="none" stroke="black" d="M1893.15,-180.25C1938.55,-148.18 2037.82,-78.07 2089.2,-41.78"/>
<polygon fill="black" stroke="black" points="2091.46,-44.46 2097.61,-35.83 2087.43,-38.74 2091.46,-44.46"/>
<text text-anchor="middle" x="2092.61" y="-39.63" font-family="Times,serif" font-size="14.00">1</text>
</g>
<!-- rtop.CollectSubweapon -->
<g id="node12" class="node">
<title>rtop.CollectSubweapon</title>
<g id="a_node12"><a xlink:href="rtop.CollectSubweapon.svg" xlink:title="rtop.CollectSubweapon">
<ellipse fill="green" stroke="black" cx="2370.44" cy="-18" rx="118.88" ry="18"/>
<text text-anchor="middle" x="2370.44" y="-14.3" font-family="Times,serif" font-size="14.00">rtop.CollectSubweapon</text>
</a>
</g>
</g>
<!-- rtop.EntityPrizeDrop&#45;&gt;rtop.CollectSubweapon -->
<g id="edge11" class="edge">
<title>rtop.EntityPrizeDrop&#45;&gt;rtop.CollectSubweapon</title>
<path fill="none" stroke="black" d="M1913.46,-181.36C2005.2,-148.77 2216.58,-73.66 2316.39,-38.2"/>
<polygon fill="black" stroke="black" points="2317.73,-41.44 2325.98,-34.8 2315.39,-34.85 2317.73,-41.44"/>
<text text-anchor="middle" x="2320.98" y="-38.6" font-family="Times,serif" font-size="14.00">1</text>
</g>
<!-- rtop.DestroyEntity -->
<g id="node13" class="node">
<title>rtop.DestroyEntity</title>
<g id="a_node13"><a xlink:href="rtop.DestroyEntity.svg" xlink:title="rtop.DestroyEntity">
<ellipse fill="green" stroke="black" cx="2606.44" cy="-18" rx="98.58" ry="18"/>
<text text-anchor="middle" x="2606.44" y="-14.3" font-family="Times,serif" font-size="14.00">rtop.DestroyEntity</text>
</a>
</g>
</g>
<!-- rtop.EntityPrizeDrop&#45;&gt;rtop.DestroyEntity -->
<g id="edge12" class="edge">
<title>rtop.EntityPrizeDrop&#45;&gt;rtop.DestroyEntity</title>
<path fill="none" stroke="black" d="M1928.2,-182.81C2063.57,-150.11 2396.75,-69.64 2539.62,-35.14"/>
<polygon fill="black" stroke="black" points="2540.68,-38.48 2549.57,-32.73 2539.03,-31.68 2540.68,-38.48"/>
<text text-anchor="middle" x="2544.57" y="-36.53" font-family="Times,serif" font-size="14.00">2</text>
</g>
<!-- rtop.FallEntity -->
<g id="node14" class="node">
<title>rtop.FallEntity</title>
<g id="a_node14"><a xlink:href="rtop.FallEntity.svg" xlink:title="rtop.FallEntity">
<ellipse fill="green" stroke="black" cx="2802.44" cy="-18" rx="79.09" ry="18"/>
<text text-anchor="middle" x="2802.44" y="-14.3" font-family="Times,serif" font-size="14.00">rtop.FallEntity</text>
</a>
</g>
</g>
<!-- rtop.EntityPrizeDrop&#45;&gt;rtop.FallEntity -->
<g id="edge13" class="edge">
<title>rtop.EntityPrizeDrop&#45;&gt;rtop.FallEntity</title>
<path fill="none" stroke="black" d="M1937.91,-184.02C2081.75,-156.73 2425.88,-91.36 2714.44,-36 2720.91,-34.76 2727.64,-33.46 2734.38,-32.17"/>
<polygon fill="black" stroke="black" points="2735.07,-35.6 2744.22,-30.27 2733.74,-28.72 2735.07,-35.6"/>
<text text-anchor="middle" x="2739.22" y="-34.07" font-family="Times,serif" font-size="14.00">2</text>
</g>
<!-- rtop.InitializeEntity -->
<g id="node15" class="node">
<title>rtop.InitializeEntity</title>
<g id="a_node15"><a xlink:href="rtop.InitializeEntity.svg" xlink:title="rtop.InitializeEntity">
<ellipse fill="green" stroke="black" cx="3002.44" cy="-18" rx="102.88" ry="18"/>
<text text-anchor="middle" x="3002.44" y="-14.3" font-family="Times,serif" font-size="14.00">rtop.InitializeEntity</text>
</a>
</g>
</g>
<!-- rtop.EntityPrizeDrop&#45;&gt;rtop.InitializeEntity -->
<g id="edge14" class="edge">
<title>rtop.EntityPrizeDrop&#45;&gt;rtop.InitializeEntity</title>
<path fill="none" stroke="black" d="M1945.54,-185.04C2149.23,-153.04 2705.76,-65.61 2918.36,-32.21"/>
<polygon fill="black" stroke="black" points="2919.19,-35.62 2928.52,-30.61 2918.1,-28.71 2919.19,-35.62"/>
<text text-anchor="middle" x="2923.52" y="-34.41" font-family="Times,serif" font-size="14.00">1</text>
</g>
<!-- rtop.MoveEntity -->
<g id="node16" class="node">
<title>rtop.MoveEntity</title>
<g id="a_node16"><a xlink:href="rtop.MoveEntity.svg" xlink:title="rtop.MoveEntity">
<ellipse fill="green" stroke="black" cx="3210.44" cy="-18" rx="87.18" ry="18"/>
<text text-anchor="middle" x="3210.44" y="-14.3" font-family="Times,serif" font-size="14.00">rtop.MoveEntity</text>
</a>
</g>
</g>
<!-- rtop.EntityPrizeDrop&#45;&gt;rtop.MoveEntity -->
<g id="edge15" class="edge">
<title>rtop.EntityPrizeDrop&#45;&gt;rtop.MoveEntity</title>
<path fill="none" stroke="black" d="M1956.43,-187.17C2159.58,-163.89 2680.88,-102.38 3114.44,-36 3122.03,-34.84 3129.94,-33.55 3137.82,-32.23"/>
<polygon fill="black" stroke="black" points="3138.5,-35.66 3147.77,-30.53 3137.32,-28.76 3138.5,-35.66"/>
<text text-anchor="middle" x="3142.77" y="-34.33" font-family="Times,serif" font-size="14.00">2</text>
</g>
<!-- rtop.PrizeDropFall -->
<g id="node17" class="node">
<title>rtop.PrizeDropFall</title>
<g id="a_node17"><a xlink:href="rtop.PrizeDropFall.svg" xlink:title="rtop.PrizeDropFall">
<ellipse fill="green" stroke="black" cx="3412.44" cy="-18" rx="96.68" ry="18"/>
<text text-anchor="middle" x="3412.44" y="-14.3" font-family="Times,serif" font-size="14.00">rtop.PrizeDropFall</text>
</a>
</g>
</g>
<!-- rtop.EntityPrizeDrop&#45;&gt;rtop.PrizeDropFall -->
<g id="edge16" class="edge">
<title>rtop.EntityPrizeDrop&#45;&gt;rtop.PrizeDropFall</title>
<path fill="none" stroke="black" d="M1960.83,-188.28C2188.53,-166.22 2799.31,-105.04 3306.44,-36 3315.03,-34.83 3323.99,-33.53 3332.92,-32.17"/>
<polygon fill="black" stroke="black" points="3333.6,-35.61 3342.95,-30.63 3332.53,-28.69 3333.6,-35.61"/>
<text text-anchor="middle" x="3337.95" y="-34.43" font-family="Times,serif" font-size="14.00">1</text>
</g>
<!-- rtop.PrizeDropFall2 -->
<g id="node18" class="node">
<title>rtop.PrizeDropFall2</title>
<g id="a_node18"><a xlink:href="rtop.PrizeDropFall2.svg" xlink:title="rtop.PrizeDropFall2">
<ellipse fill="green" stroke="black" cx="3630.44" cy="-18" rx="102.88" ry="18"/>
<text text-anchor="middle" x="3630.44" y="-14.3" font-family="Times,serif" font-size="14.00">rtop.PrizeDropFall2</text>
</a>
</g>
</g>
<!-- rtop.EntityPrizeDrop&#45;&gt;rtop.PrizeDropFall2 -->
<g id="edge17" class="edge">
<title>rtop.EntityPrizeDrop&#45;&gt;rtop.PrizeDropFall2</title>
<path fill="none" stroke="black" d="M1965.37,-189.43C2219.27,-169.02 2929.73,-109.37 3518.44,-36 3527.78,-34.84 3537.55,-33.51 3547.25,-32.13"/>
<polygon fill="black" stroke="black" points="3547.92,-35.57 3557.32,-30.67 3546.92,-28.64 3547.92,-35.57"/>
<text text-anchor="middle" x="3552.32" y="-34.47" font-family="Times,serif" font-size="14.00">3</text>
</g>
<!-- rtop.EntityEquipItemDrop -->
<g id="node19" class="node">
<title>rtop.EntityEquipItemDrop</title>
<g id="a_node19"><a xlink:href="rtop.EntityEquipItemDrop.svg" xlink:title="rtop.EntityEquipItemDrop">
<ellipse fill="green" stroke="black" cx="1869.44" cy="-378" rx="133.78" ry="18"/>
<text text-anchor="middle" x="1869.44" y="-374.3" font-family="Times,serif" font-size="14.00">rtop.EntityEquipItemDrop</text>
</a>
</g>
</g>
<!-- rtop.EntityEquipItemDrop&#45;&gt;rtop.EntityPrizeDrop -->
<g id="edge18" class="edge">
<title>rtop.EntityEquipItemDrop&#45;&gt;rtop.EntityPrizeDrop</title>
<path fill="none" stroke="black" d="M1869.44,-359.93C1869.44,-328.97 1869.44,-263.3 1869.44,-226.13"/>
<polygon fill="black" stroke="black" points="1872.94,-226.02 1869.44,-216.02 1865.94,-226.02 1872.94,-226.02"/>
<text text-anchor="middle" x="1864.44" y="-348.73" font-family="Times,serif" font-size="14.00">1</text>
</g>
</g>
</svg>
