<?xml version="1.0" encoding="UTF-8" standalone="no"?>
<!DOCTYPE svg PUBLIC "-//W3C//DTD SVG 1.1//EN"
 "http://www.w3.org/Graphics/SVG/1.1/DTD/svg11.dtd">
<!-- Generated by graphviz version 2.43.0 (0)
 -->
<!-- Title: rtop.RTOP_EntityRedDoor Pages: 1 -->
<svg width="1955pt" height="224pt"
 viewBox="0.00 0.00 1955.13 224.00" xmlns="http://www.w3.org/2000/svg" xmlns:xlink="http://www.w3.org/1999/xlink">
<g id="graph0" class="graph" transform="scale(1 1) rotate(0) translate(4 220)">
<title>rtop.RTOP_EntityRedDoor</title>
<polygon fill="white" stroke="transparent" points="-4,4 -4,-220 1951.13,-220 1951.13,4 -4,4"/>
<!-- rtop.RTOP_EntityRedDoor -->
<g id="node1" class="node">
<title>rtop.RTOP_EntityRedDoor</title>
<ellipse fill="green" stroke="black" cx="938.44" cy="-198" rx="133.48" ry="18"/>
<text text-anchor="middle" x="938.44" y="-194.3" font-family="Times,serif" font-size="14.00">rtop.RTOP_EntityRedDoor</text>
</g>
<!-- dra.AllocPrimitives -->
<g id="node2" class="node">
<title>dra.AllocPrimitives</title>
<g id="a_node2"><a xlink:href="dra.AllocPrimitives.svg" xlink:title="dra.AllocPrimitives">
<ellipse fill="green" stroke="black" cx="99.44" cy="-18" rx="99.38" ry="18"/>
<text text-anchor="middle" x="99.44" y="-14.3" font-family="Times,serif" font-size="14.00">dra.AllocPrimitives</text>
</a>
</g>
</g>
<!-- rtop.RTOP_EntityRedDoor&#45;&gt;dra.AllocPrimitives -->
<g id="edge1" class="edge">
<title>rtop.RTOP_EntityRedDoor&#45;&gt;dra.AllocPrimitives</title>
<path fill="none" stroke="black" d="M870.14,-182.51C713.86,-149.35 331.42,-68.22 171.54,-34.3"/>
<polygon fill="black" stroke="black" points="171.85,-30.78 161.34,-32.13 170.4,-37.63 171.85,-30.78"/>
<text text-anchor="middle" x="156.34" y="-35.93" font-family="Times,serif" font-size="14.00">1</text>
</g>
<!-- dra.PlaySfxVolPan -->
<g id="node3" class="node">
<title>dra.PlaySfxVolPan</title>
<g id="a_node3"><a xlink:href="dra.PlaySfxVolPan.svg" xlink:title="dra.PlaySfxVolPan">
<ellipse fill="green" stroke="black" cx="312.44" cy="-18" rx="95.58" ry="18"/>
<text text-anchor="middle" x="312.44" y="-14.3" font-family="Times,serif" font-size="14.00">dra.PlaySfxVolPan</text>
</a>
</g>
</g>
<!-- rtop.RTOP_EntityRedDoor&#45;&gt;dra.PlaySfxVolPan -->
<g id="edge2" class="edge">
<title>rtop.RTOP_EntityRedDoor&#45;&gt;dra.PlaySfxVolPan</title>
<path fill="none" stroke="black" d="M883.98,-181.52C767.38,-148.36 494.32,-70.72 372.71,-36.14"/>
<polygon fill="black" stroke="black" points="373.4,-32.69 362.82,-33.33 371.48,-39.43 373.4,-32.69"/>
<text text-anchor="middle" x="357.82" y="-37.13" font-family="Times,serif" font-size="14.00">6</text>
</g>
<!-- dra.func_8010DFF0 -->
<g id="node4" class="node">
<title>dra.func_8010DFF0</title>
<g id="a_node4"><a xlink:href="dra.func_8010DFF0.svg" xlink:title="dra.func_8010DFF0">
<ellipse fill="green" stroke="black" cx="528.44" cy="-18" rx="102.88" ry="18"/>
<text text-anchor="middle" x="528.44" y="-14.3" font-family="Times,serif" font-size="14.00">dra.func_8010DFF0</text>
</a>
</g>
</g>
<!-- rtop.RTOP_EntityRedDoor&#45;&gt;dra.func_8010DFF0 -->
<g id="edge3" class="edge">
<title>rtop.RTOP_EntityRedDoor&#45;&gt;dra.func_8010DFF0</title>
<path fill="none" stroke="black" d="M900.6,-180.57C825.17,-147.82 656.29,-74.5 574.53,-39.01"/>
<polygon fill="black" stroke="black" points="575.57,-35.65 565.01,-34.87 572.79,-42.07 575.57,-35.65"/>
<text text-anchor="middle" x="560.01" y="-38.67" font-family="Times,serif" font-size="14.00">1</text>
</g>
<!-- dra.func_8010E168 -->
<g id="node5" class="node">
<title>dra.func_8010E168</title>
<g id="a_node5"><a xlink:href="dra.func_8010E168.svg" xlink:title="dra.func_8010E168">
<ellipse fill="green" stroke="black" cx="750.44" cy="-18" rx="101.28" ry="18"/>
<text text-anchor="middle" x="750.44" y="-14.3" font-family="Times,serif" font-size="14.00">dra.func_8010E168</text>
</a>
</g>
</g>
<!-- rtop.RTOP_EntityRedDoor&#45;&gt;dra.func_8010E168 -->
<g id="edge4" class="edge">
<title>rtop.RTOP_EntityRedDoor&#45;&gt;dra.func_8010E168</title>
<path fill="none" stroke="black" d="M920.41,-179.93C886.78,-148.09 814.39,-79.54 775.83,-43.04"/>
<polygon fill="black" stroke="black" points="777.81,-40.09 768.14,-35.76 772.99,-45.17 777.81,-40.09"/>
<text text-anchor="middle" x="763.14" y="-39.56" font-family="Times,serif" font-size="14.00">1</text>
</g>
<!-- rcos -->
<g id="node6" class="node">
<title>rcos</title>
<g id="a_node6"><a xlink:href="rcos.svg" xlink:title="rcos">
<ellipse fill="lightblue" stroke="black" cx="900.44" cy="-18" rx="30.59" ry="18"/>
<text text-anchor="middle" x="900.44" y="-14.3" font-family="Times,serif" font-size="14.00">rcos</text>
</a>
</g>
</g>
<!-- rtop.RTOP_EntityRedDoor&#45;&gt;rcos -->
<g id="edge5" class="edge">
<title>rtop.RTOP_EntityRedDoor&#45;&gt;rcos</title>
<path fill="none" stroke="black" d="M934.8,-179.93C928.19,-148.97 914.17,-83.3 906.23,-46.13"/>
<polygon fill="black" stroke="black" points="909.58,-45.06 904.07,-36.02 902.74,-46.53 909.58,-45.06"/>
<text text-anchor="middle" x="899.07" y="-39.82" font-family="Times,serif" font-size="14.00">2</text>
</g>
<!-- rsin -->
<g id="node7" class="node">
<title>rsin</title>
<g id="a_node7"><a xlink:href="rsin.svg" xlink:title="rsin">
<ellipse fill="lightblue" stroke="black" cx="977.44" cy="-18" rx="28.7" ry="18"/>
<text text-anchor="middle" x="977.44" y="-14.3" font-family="Times,serif" font-size="14.00">rsin</text>
</a>
</g>
</g>
<!-- rtop.RTOP_EntityRedDoor&#45;&gt;rsin -->
<g id="edge6" class="edge">
<title>rtop.RTOP_EntityRedDoor&#45;&gt;rsin</title>
<path fill="none" stroke="black" d="M942.18,-179.93C948.97,-148.97 963.35,-83.3 971.5,-46.13"/>
<polygon fill="black" stroke="black" points="974.99,-46.53 973.71,-36.02 968.15,-45.03 974.99,-46.53"/>
<text text-anchor="middle" x="968.71" y="-39.82" font-family="Times,serif" font-size="14.00">2</text>
</g>
<!-- rtop.DestroyEntity -->
<g id="node8" class="node">
<title>rtop.DestroyEntity</title>
<g id="a_node8"><a xlink:href="rtop.DestroyEntity.svg" xlink:title="rtop.DestroyEntity">
<ellipse fill="green" stroke="black" cx="1122.44" cy="-18" rx="98.58" ry="18"/>
<text text-anchor="middle" x="1122.44" y="-14.3" font-family="Times,serif" font-size="14.00">rtop.DestroyEntity</text>
</a>
</g>
</g>
<!-- rtop.RTOP_EntityRedDoor&#45;&gt;rtop.DestroyEntity -->
<g id="edge7" class="edge">
<title>rtop.RTOP_EntityRedDoor&#45;&gt;rtop.DestroyEntity</title>
<path fill="none" stroke="black" d="M956.08,-179.93C989,-148.09 1059.86,-79.54 1097.6,-43.04"/>
<polygon fill="black" stroke="black" points="1100.37,-45.22 1105.12,-35.76 1095.5,-40.19 1100.37,-45.22"/>
<text text-anchor="middle" x="1100.12" y="-39.56" font-family="Times,serif" font-size="14.00">1</text>
</g>
<!-- rtop.EntityIsNearPlayer -->
<g id="node9" class="node">
<title>rtop.EntityIsNearPlayer</title>
<g id="a_node9"><a xlink:href="rtop.EntityIsNearPlayer.svg" xlink:title="rtop.EntityIsNearPlayer">
<ellipse fill="green" stroke="black" cx="1362.44" cy="-18" rx="122.68" ry="18"/>
<text text-anchor="middle" x="1362.44" y="-14.3" font-family="Times,serif" font-size="14.00">rtop.EntityIsNearPlayer</text>
</a>
</g>
</g>
<!-- rtop.RTOP_EntityRedDoor&#45;&gt;rtop.EntityIsNearPlayer -->
<g id="edge8" class="edge">
<title>rtop.RTOP_EntityRedDoor&#45;&gt;rtop.EntityIsNearPlayer</title>
<path fill="none" stroke="black" d="M977.19,-180.73C1054.95,-148.09 1229.77,-74.7 1314.54,-39.11"/>
<polygon fill="black" stroke="black" points="1316.07,-42.26 1323.93,-35.17 1313.36,-35.81 1316.07,-42.26"/>
<text text-anchor="middle" x="1318.93" y="-38.97" font-family="Times,serif" font-size="14.00">3</text>
</g>
<!-- rtop.GetSideToPlayer -->
<g id="node10" class="node">
<title>rtop.GetSideToPlayer</title>
<g id="a_node10"><a xlink:href="rtop.GetSideToPlayer.svg" xlink:title="rtop.GetSideToPlayer">
<ellipse fill="green" stroke="black" cx="1613.44" cy="-18" rx="110.48" ry="18"/>
<text text-anchor="middle" x="1613.44" y="-14.3" font-family="Times,serif" font-size="14.00">rtop.GetSideToPlayer</text>
</a>
</g>
</g>
<!-- rtop.RTOP_EntityRedDoor&#45;&gt;rtop.GetSideToPlayer -->
<g id="edge9" class="edge">
<title>rtop.RTOP_EntityRedDoor&#45;&gt;rtop.GetSideToPlayer</title>
<path fill="none" stroke="black" d="M996.28,-181.75C1121.38,-148.76 1416.41,-70.96 1548.05,-36.24"/>
<polygon fill="black" stroke="black" points="1549.22,-39.56 1558,-33.62 1547.43,-32.79 1549.22,-39.56"/>
<text text-anchor="middle" x="1553" y="-37.42" font-family="Times,serif" font-size="14.00">1</text>
</g>
<!-- rtop.InitializeEntity -->
<g id="node11" class="node">
<title>rtop.InitializeEntity</title>
<g id="a_node11"><a xlink:href="rtop.InitializeEntity.svg" xlink:title="rtop.InitializeEntity">
<ellipse fill="green" stroke="black" cx="1844.44" cy="-18" rx="102.88" ry="18"/>
<text text-anchor="middle" x="1844.44" y="-14.3" font-family="Times,serif" font-size="14.00">rtop.InitializeEntity</text>
</a>
</g>
</g>
<!-- rtop.RTOP_EntityRedDoor&#45;&gt;rtop.InitializeEntity -->
<g id="edge10" class="edge">
<title>rtop.RTOP_EntityRedDoor&#45;&gt;rtop.InitializeEntity</title>
<path fill="none" stroke="black" d="M1010.67,-182.81C1179.19,-149.7 1597.06,-67.6 1768.85,-33.85"/>
<polygon fill="black" stroke="black" points="1769.68,-37.26 1778.82,-31.89 1768.33,-30.39 1769.68,-37.26"/>
<text text-anchor="middle" x="1773.82" y="-35.69" font-family="Times,serif" font-size="14.00">1</text>
</g>
</g>
</svg>
