<?xml version="1.0" encoding="UTF-8" standalone="no"?>
<!DOCTYPE svg PUBLIC "-//W3C//DTD SVG 1.1//EN"
 "http://www.w3.org/Graphics/SVG/1.1/DTD/svg11.dtd">
<!-- Generated by graphviz version 2.43.0 (0)
 -->
<!-- Title: rtop.EntityUnkId13 Pages: 1 -->
<svg width="927pt" height="224pt"
 viewBox="0.00 0.00 927.18 224.00" xmlns="http://www.w3.org/2000/svg" xmlns:xlink="http://www.w3.org/1999/xlink">
<g id="graph0" class="graph" transform="scale(1 1) rotate(0) translate(4 220)">
<title>rtop.EntityUnkId13</title>
<polygon fill="white" stroke="transparent" points="-4,4 -4,-220 923.18,-220 923.18,4 -4,4"/>
<!-- rtop.EntityUnkId13 -->
<g id="node1" class="node">
<title>rtop.EntityUnkId13</title>
<ellipse fill="green" stroke="black" cx="465.49" cy="-198" rx="102.08" ry="18"/>
<text text-anchor="middle" x="465.49" y="-194.3" font-family="Times,serif" font-size="14.00">rtop.EntityUnkId13</text>
</g>
<!-- rtop.AllocEntity -->
<g id="node2" class="node">
<title>rtop.AllocEntity</title>
<g id="a_node2"><a xlink:href="rtop.AllocEntity.svg" xlink:title="rtop.AllocEntity">
<ellipse fill="green" stroke="black" cx="84.49" cy="-18" rx="84.49" ry="18"/>
<text text-anchor="middle" x="84.49" y="-14.3" font-family="Times,serif" font-size="14.00">rtop.AllocEntity</text>
</a>
</g>
</g>
<!-- rtop.EntityUnkId13&#45;&gt;rtop.AllocEntity -->
<g id="edge1" class="edge">
<title>rtop.EntityUnkId13&#45;&gt;rtop.AllocEntity</title>
<path fill="none" stroke="black" d="M431.01,-180.89C361.18,-148.27 203.25,-74.48 127.11,-38.91"/>
<polygon fill="black" stroke="black" points="128.35,-35.63 117.81,-34.56 125.39,-41.97 128.35,-35.63"/>
<text text-anchor="middle" x="112.81" y="-38.36" font-family="Times,serif" font-size="14.00">1</text>
</g>
<!-- rtop.CreateEntityFromEntity -->
<g id="node3" class="node">
<title>rtop.CreateEntityFromEntity</title>
<g id="a_node3"><a xlink:href="rtop.CreateEntityFromEntity.svg" xlink:title="rtop.CreateEntityFromEntity">
<ellipse fill="green" stroke="black" cx="333.49" cy="-18" rx="146.77" ry="18"/>
<text text-anchor="middle" x="333.49" y="-14.3" font-family="Times,serif" font-size="14.00">rtop.CreateEntityFromEntity</text>
</a>
</g>
</g>
<!-- rtop.EntityUnkId13&#45;&gt;rtop.CreateEntityFromEntity -->
<g id="edge2" class="edge">
<title>rtop.EntityUnkId13&#45;&gt;rtop.CreateEntityFromEntity</title>
<path fill="none" stroke="black" d="M452.84,-179.93C429.48,-148.43 379.5,-81.03 352.21,-44.24"/>
<polygon fill="black" stroke="black" points="354.88,-41.96 346.11,-36.02 349.26,-46.13 354.88,-41.96"/>
<text text-anchor="middle" x="341.11" y="-39.82" font-family="Times,serif" font-size="14.00">1</text>
</g>
<!-- rtop.DestroyEntity -->
<g id="node4" class="node">
<title>rtop.DestroyEntity</title>
<g id="a_node4"><a xlink:href="rtop.DestroyEntity.svg" xlink:title="rtop.DestroyEntity">
<ellipse fill="green" stroke="black" cx="597.49" cy="-18" rx="98.58" ry="18"/>
<text text-anchor="middle" x="597.49" y="-14.3" font-family="Times,serif" font-size="14.00">rtop.DestroyEntity</text>
</a>
</g>
</g>
<!-- rtop.EntityUnkId13&#45;&gt;rtop.DestroyEntity -->
<g id="edge3" class="edge">
<title>rtop.EntityUnkId13&#45;&gt;rtop.DestroyEntity</title>
<path fill="none" stroke="black" d="M478.15,-179.93C501.51,-148.43 551.49,-81.03 578.77,-44.24"/>
<polygon fill="black" stroke="black" points="581.73,-46.13 584.87,-36.02 576.11,-41.96 581.73,-46.13"/>
<text text-anchor="middle" x="579.87" y="-39.82" font-family="Times,serif" font-size="14.00">1</text>
</g>
<!-- rtop.InitializeEntity -->
<g id="node5" class="node">
<title>rtop.InitializeEntity</title>
<g id="a_node5"><a xlink:href="rtop.InitializeEntity.svg" xlink:title="rtop.InitializeEntity">
<ellipse fill="green" stroke="black" cx="816.49" cy="-18" rx="102.88" ry="18"/>
<text text-anchor="middle" x="816.49" y="-14.3" font-family="Times,serif" font-size="14.00">rtop.InitializeEntity</text>
</a>
</g>
</g>
<!-- rtop.EntityUnkId13&#45;&gt;rtop.InitializeEntity -->
<g id="edge4" class="edge">
<title>rtop.EntityUnkId13&#45;&gt;rtop.InitializeEntity</title>
<path fill="none" stroke="black" d="M497.26,-180.89C561.05,-148.54 704.67,-75.71 775.46,-39.81"/>
<polygon fill="black" stroke="black" points="777.21,-42.85 784.54,-35.2 774.04,-36.6 777.21,-42.85"/>
<text text-anchor="middle" x="779.54" y="-39" font-family="Times,serif" font-size="14.00">1</text>
</g>
</g>
</svg>
