<?xml version="1.0" encoding="UTF-8" standalone="no"?>
<!DOCTYPE svg PUBLIC "-//W3C//DTD SVG 1.1//EN"
 "http://www.w3.org/Graphics/SVG/1.1/DTD/svg11.dtd">
<!-- Generated by graphviz version 2.43.0 (0)
 -->
<!-- Title: rtop.EntityMessageBox Pages: 1 -->
<svg width="1096pt" height="224pt"
 viewBox="0.00 0.00 1096.04 224.00" xmlns="http://www.w3.org/2000/svg" xmlns:xlink="http://www.w3.org/1999/xlink">
<g id="graph0" class="graph" transform="scale(1 1) rotate(0) translate(4 220)">
<title>rtop.EntityMessageBox</title>
<polygon fill="white" stroke="transparent" points="-4,4 -4,-220 1092.04,-220 1092.04,4 -4,4"/>
<!-- rtop.EntityMessageBox -->
<g id="node1" class="node">
<title>rtop.EntityMessageBox</title>
<ellipse fill="green" stroke="black" cx="482.34" cy="-198" rx="120.48" ry="18"/>
<text text-anchor="middle" x="482.34" y="-194.3" font-family="Times,serif" font-size="14.00">rtop.EntityMessageBox</text>
</g>
<!-- ClearImage -->
<g id="node2" class="node">
<title>ClearImage</title>
<g id="a_node2"><a xlink:href="ClearImage.svg" xlink:title="ClearImage">
<ellipse fill="lightblue" stroke="black" cx="64.34" cy="-18" rx="64.19" ry="18"/>
<text text-anchor="middle" x="64.34" y="-14.3" font-family="Times,serif" font-size="14.00">ClearImage</text>
</a>
</g>
</g>
<!-- rtop.EntityMessageBox&#45;&gt;ClearImage -->
<g id="edge1" class="edge">
<title>rtop.EntityMessageBox&#45;&gt;ClearImage</title>
<path fill="none" stroke="black" d="M444.51,-180.89C366.88,-147.83 189.98,-72.5 107.8,-37.51"/>
<polygon fill="black" stroke="black" points="108.83,-34.14 98.26,-33.44 106.09,-40.58 108.83,-34.14"/>
<text text-anchor="middle" x="93.26" y="-37.24" font-family="Times,serif" font-size="14.00">1</text>
</g>
<!-- LoadTPage -->
<g id="node3" class="node">
<title>LoadTPage</title>
<g id="a_node3"><a xlink:href="LoadTPage.svg" xlink:title="LoadTPage">
<ellipse fill="lightblue" stroke="black" cx="208.34" cy="-18" rx="61.99" ry="18"/>
<text text-anchor="middle" x="208.34" y="-14.3" font-family="Times,serif" font-size="14.00">LoadTPage</text>
</a>
</g>
</g>
<!-- rtop.EntityMessageBox&#45;&gt;LoadTPage -->
<g id="edge2" class="edge">
<title>rtop.EntityMessageBox&#45;&gt;LoadTPage</title>
<path fill="none" stroke="black" d="M456.57,-180.25C406.59,-147.79 296.61,-76.34 241.37,-40.45"/>
<polygon fill="black" stroke="black" points="242.96,-37.32 232.67,-34.8 239.15,-43.19 242.96,-37.32"/>
<text text-anchor="middle" x="227.67" y="-38.6" font-family="Times,serif" font-size="14.00">1</text>
</g>
<!-- dra.AllocPrimitives -->
<g id="node4" class="node">
<title>dra.AllocPrimitives</title>
<g id="a_node4"><a xlink:href="dra.AllocPrimitives.svg" xlink:title="dra.AllocPrimitives">
<ellipse fill="green" stroke="black" cx="387.34" cy="-18" rx="99.38" ry="18"/>
<text text-anchor="middle" x="387.34" y="-14.3" font-family="Times,serif" font-size="14.00">dra.AllocPrimitives</text>
</a>
</g>
</g>
<!-- rtop.EntityMessageBox&#45;&gt;dra.AllocPrimitives -->
<g id="edge3" class="edge">
<title>rtop.EntityMessageBox&#45;&gt;dra.AllocPrimitives</title>
<path fill="none" stroke="black" d="M473.24,-179.93C456.57,-148.7 421.06,-82.17 401.32,-45.18"/>
<polygon fill="black" stroke="black" points="404.22,-43.19 396.43,-36.02 398.05,-46.49 404.22,-43.19"/>
<text text-anchor="middle" x="391.43" y="-39.82" font-family="Times,serif" font-size="14.00">1</text>
</g>
<!-- rtop.BlitChar -->
<g id="node5" class="node">
<title>rtop.BlitChar</title>
<g id="a_node5"><a xlink:href="rtop.BlitChar.svg" xlink:title="rtop.BlitChar">
<ellipse fill="green" stroke="black" cx="577.34" cy="-18" rx="72.29" ry="18"/>
<text text-anchor="middle" x="577.34" y="-14.3" font-family="Times,serif" font-size="14.00">rtop.BlitChar</text>
</a>
</g>
</g>
<!-- rtop.EntityMessageBox&#45;&gt;rtop.BlitChar -->
<g id="edge4" class="edge">
<title>rtop.EntityMessageBox&#45;&gt;rtop.BlitChar</title>
<path fill="none" stroke="black" d="M491.45,-179.93C508.12,-148.7 543.63,-82.17 563.37,-45.18"/>
<polygon fill="black" stroke="black" points="566.64,-46.49 568.26,-36.02 560.47,-43.19 566.64,-46.49"/>
<text text-anchor="middle" x="563.26" y="-39.82" font-family="Times,serif" font-size="14.00">1</text>
</g>
<!-- rtop.DestroyEntity -->
<g id="node6" class="node">
<title>rtop.DestroyEntity</title>
<g id="a_node6"><a xlink:href="rtop.DestroyEntity.svg" xlink:title="rtop.DestroyEntity">
<ellipse fill="green" stroke="black" cx="766.34" cy="-18" rx="98.58" ry="18"/>
<text text-anchor="middle" x="766.34" y="-14.3" font-family="Times,serif" font-size="14.00">rtop.DestroyEntity</text>
</a>
</g>
</g>
<!-- rtop.EntityMessageBox&#45;&gt;rtop.DestroyEntity -->
<g id="edge5" class="edge">
<title>rtop.EntityMessageBox&#45;&gt;rtop.DestroyEntity</title>
<path fill="none" stroke="black" d="M508.81,-180.41C560.18,-148.22 673.41,-77.25 731.08,-41.1"/>
<polygon fill="black" stroke="black" points="733.23,-43.89 739.84,-35.61 729.51,-37.95 733.23,-43.89"/>
<text text-anchor="middle" x="734.84" y="-39.41" font-family="Times,serif" font-size="14.00">1</text>
</g>
<!-- rtop.InitializeEntity -->
<g id="node7" class="node">
<title>rtop.InitializeEntity</title>
<g id="a_node7"><a xlink:href="rtop.InitializeEntity.svg" xlink:title="rtop.InitializeEntity">
<ellipse fill="green" stroke="black" cx="985.34" cy="-18" rx="102.88" ry="18"/>
<text text-anchor="middle" x="985.34" y="-14.3" font-family="Times,serif" font-size="14.00">rtop.InitializeEntity</text>
</a>
</g>
</g>
<!-- rtop.EntityMessageBox&#45;&gt;rtop.InitializeEntity -->
<g id="edge6" class="edge">
<title>rtop.EntityMessageBox&#45;&gt;rtop.InitializeEntity</title>
<path fill="none" stroke="black" d="M526.98,-181.2C619.71,-148.39 832.8,-72.98 932.33,-37.76"/>
<polygon fill="black" stroke="black" points="933.62,-41.02 941.88,-34.38 931.29,-34.42 933.62,-41.02"/>
<text text-anchor="middle" x="936.88" y="-38.18" font-family="Times,serif" font-size="14.00">1</text>
</g>
</g>
</svg>
