<?xml version="1.0" encoding="UTF-8" standalone="no"?>
<!DOCTYPE svg PUBLIC "-//W3C//DTD SVG 1.1//EN"
 "http://www.w3.org/Graphics/SVG/1.1/DTD/svg11.dtd">
<!-- Generated by graphviz version 2.43.0 (0)
 -->
<!-- Title: rwrp.InitializeEntity Pages: 1 -->
<svg width="7805pt" height="224pt"
 viewBox="0.00 0.00 7804.78 224.00" xmlns="http://www.w3.org/2000/svg" xmlns:xlink="http://www.w3.org/1999/xlink">
<g id="graph0" class="graph" transform="scale(1 1) rotate(0) translate(4 220)">
<title>rwrp.InitializeEntity</title>
<polygon fill="white" stroke="transparent" points="-4,4 -4,-220 7800.78,-220 7800.78,4 -4,4"/>
<!-- rwrp.InitializeEntity -->
<g id="node1" class="node">
<title>rwrp.InitializeEntity</title>
<ellipse fill="green" stroke="black" cx="3906.54" cy="-18" rx="105.08" ry="18"/>
<text text-anchor="middle" x="3906.54" y="-14.3" font-family="Times,serif" font-size="14.00">rwrp.InitializeEntity</text>
</g>
<!-- rwrp.EntityBigRedFireball -->
<g id="node2" class="node">
<title>rwrp.EntityBigRedFireball</title>
<g id="a_node2"><a xlink:href="rwrp.EntityBigRedFireball.svg" xlink:title="rwrp.EntityBigRedFireball">
<ellipse fill="green" stroke="black" cx="134.54" cy="-198" rx="134.58" ry="18"/>
<text text-anchor="middle" x="134.54" y="-194.3" font-family="Times,serif" font-size="14.00">rwrp.EntityBigRedFireball</text>
</a>
</g>
</g>
<!-- rwrp.EntityBigRedFireball&#45;&gt;rwrp.InitializeEntity -->
<g id="edge1" class="edge">
<title>rwrp.EntityBigRedFireball&#45;&gt;rwrp.InitializeEntity</title>
<path fill="none" stroke="black" d="M227.51,-184.94C244.15,-183.07 261.34,-181.32 277.54,-180 1659.28,-67.37 3343.87,-29.46 3792.39,-20.99"/>
<polygon fill="black" stroke="black" points="3792.5,-24.49 3802.43,-20.8 3792.37,-17.49 3792.5,-24.49"/>
<text text-anchor="middle" x="222.51" y="-173.74" font-family="Times,serif" font-size="14.00">1</text>
</g>
<!-- rwrp.EntityBreakable -->
<g id="node3" class="node">
<title>rwrp.EntityBreakable</title>
<g id="a_node3"><a xlink:href="rwrp.EntityBreakable.svg" xlink:title="rwrp.EntityBreakable">
<ellipse fill="green" stroke="black" cx="398.54" cy="-198" rx="111.58" ry="18"/>
<text text-anchor="middle" x="398.54" y="-194.3" font-family="Times,serif" font-size="14.00">rwrp.EntityBreakable</text>
</a>
</g>
</g>
<!-- rwrp.EntityBreakable&#45;&gt;rwrp.InitializeEntity -->
<g id="edge2" class="edge">
<title>rwrp.EntityBreakable&#45;&gt;rwrp.InitializeEntity</title>
<path fill="none" stroke="black" d="M476.2,-185.01C490.58,-183.1 505.49,-181.32 519.54,-180 1799.68,-59.9 3360.89,-27.54 3791.73,-20.63"/>
<polygon fill="black" stroke="black" points="3792.06,-24.12 3802,-20.46 3791.95,-17.12 3792.06,-24.12"/>
<text text-anchor="middle" x="471.2" y="-173.81" font-family="Times,serif" font-size="14.00">1</text>
</g>
<!-- rwrp.EntityDamageDisplay -->
<g id="node4" class="node">
<title>rwrp.EntityDamageDisplay</title>
<g id="a_node4"><a xlink:href="rwrp.EntityDamageDisplay.svg" xlink:title="rwrp.EntityDamageDisplay">
<ellipse fill="green" stroke="black" cx="666.54" cy="-198" rx="137.58" ry="18"/>
<text text-anchor="middle" x="666.54" y="-194.3" font-family="Times,serif" font-size="14.00">rwrp.EntityDamageDisplay</text>
</a>
</g>
</g>
<!-- rwrp.EntityDamageDisplay&#45;&gt;rwrp.InitializeEntity -->
<g id="edge3" class="edge">
<title>rwrp.EntityDamageDisplay&#45;&gt;rwrp.InitializeEntity</title>
<path fill="none" stroke="black" d="M762.53,-185.02C779.5,-183.15 797.03,-181.38 813.54,-180 1975.65,-82.66 3388.65,-34.69 3793.35,-22.31"/>
<polygon fill="black" stroke="black" points="3793.7,-25.8 3803.59,-22 3793.48,-18.8 3793.7,-25.8"/>
<text text-anchor="middle" x="757.53" y="-173.82" font-family="Times,serif" font-size="14.00">1</text>
</g>
<!-- rwrp.EntityEnemyBlood -->
<g id="node5" class="node">
<title>rwrp.EntityEnemyBlood</title>
<g id="a_node5"><a xlink:href="rwrp.EntityEnemyBlood.svg" xlink:title="rwrp.EntityEnemyBlood">
<ellipse fill="green" stroke="black" cx="945.54" cy="-198" rx="123.48" ry="18"/>
<text text-anchor="middle" x="945.54" y="-194.3" font-family="Times,serif" font-size="14.00">rwrp.EntityEnemyBlood</text>
</a>
</g>
</g>
<!-- rwrp.EntityEnemyBlood&#45;&gt;rwrp.InitializeEntity -->
<g id="edge4" class="edge">
<title>rwrp.EntityEnemyBlood&#45;&gt;rwrp.InitializeEntity</title>
<path fill="none" stroke="black" d="M1031.36,-185.05C1046.71,-183.17 1062.58,-181.39 1077.54,-180 2131.19,-82.29 3411.49,-35.11 3793.67,-22.53"/>
<polygon fill="black" stroke="black" points="3794.02,-26.02 3803.9,-22.2 3793.79,-19.03 3794.02,-26.02"/>
<text text-anchor="middle" x="1026.36" y="-173.85" font-family="Times,serif" font-size="14.00">1</text>
</g>
<!-- rwrp.EntityIntenseExplosion -->
<g id="node6" class="node">
<title>rwrp.EntityIntenseExplosion</title>
<g id="a_node6"><a xlink:href="rwrp.EntityIntenseExplosion.svg" xlink:title="rwrp.EntityIntenseExplosion">
<ellipse fill="green" stroke="black" cx="1231.54" cy="-198" rx="144.87" ry="18"/>
<text text-anchor="middle" x="1231.54" y="-194.3" font-family="Times,serif" font-size="14.00">rwrp.EntityIntenseExplosion</text>
</a>
</g>
</g>
<!-- rwrp.EntityIntenseExplosion&#45;&gt;rwrp.InitializeEntity -->
<g id="edge5" class="edge">
<title>rwrp.EntityIntenseExplosion&#45;&gt;rwrp.InitializeEntity</title>
<path fill="none" stroke="black" d="M1332.95,-185.13C1350.47,-183.27 1368.52,-181.48 1385.54,-180 2316.54,-98.93 3444.31,-41.27 3796.25,-24.22"/>
<polygon fill="black" stroke="black" points="3796.61,-27.71 3806.43,-23.73 3796.28,-20.72 3796.61,-27.71"/>
<text text-anchor="middle" x="1327.95" y="-173.93" font-family="Times,serif" font-size="14.00">1</text>
</g>
<!-- rwrp.EntityMessageBox -->
<g id="node7" class="node">
<title>rwrp.EntityMessageBox</title>
<g id="a_node7"><a xlink:href="rwrp.EntityMessageBox.svg" xlink:title="rwrp.EntityMessageBox">
<ellipse fill="green" stroke="black" cx="1517.54" cy="-198" rx="123.48" ry="18"/>
<text text-anchor="middle" x="1517.54" y="-194.3" font-family="Times,serif" font-size="14.00">rwrp.EntityMessageBox</text>
</a>
</g>
</g>
<!-- rwrp.EntityMessageBox&#45;&gt;rwrp.InitializeEntity -->
<g id="edge6" class="edge">
<title>rwrp.EntityMessageBox&#45;&gt;rwrp.InitializeEntity</title>
<path fill="none" stroke="black" d="M1604.08,-185.14C1619.22,-183.27 1634.82,-181.47 1649.54,-180 2473.18,-97.65 3470.03,-41.79 3796.96,-24.6"/>
<polygon fill="black" stroke="black" points="3797.56,-28.07 3807.37,-24.06 3797.2,-21.08 3797.56,-28.07"/>
<text text-anchor="middle" x="1599.08" y="-173.94" font-family="Times,serif" font-size="14.00">1</text>
</g>
<!-- rwrp.EntityOlroxDrool -->
<g id="node8" class="node">
<title>rwrp.EntityOlroxDrool</title>
<g id="a_node8"><a xlink:href="rwrp.EntityOlroxDrool.svg" xlink:title="rwrp.EntityOlroxDrool">
<ellipse fill="green" stroke="black" cx="1774.54" cy="-198" rx="115.88" ry="18"/>
<text text-anchor="middle" x="1774.54" y="-194.3" font-family="Times,serif" font-size="14.00">rwrp.EntityOlroxDrool</text>
</a>
</g>
</g>
<!-- rwrp.EntityOlroxDrool&#45;&gt;rwrp.InitializeEntity -->
<g id="edge7" class="edge">
<title>rwrp.EntityOlroxDrool&#45;&gt;rwrp.InitializeEntity</title>
<path fill="none" stroke="black" d="M1856.15,-185.24C1870.59,-183.35 1885.49,-181.52 1899.54,-180 2623.74,-101.77 3498.77,-44.22 3799.23,-25.52"/>
<polygon fill="black" stroke="black" points="3799.48,-29.01 3809.24,-24.9 3799.04,-22.02 3799.48,-29.01"/>
<text text-anchor="middle" x="1851.15" y="-174.04" font-family="Times,serif" font-size="14.00">1</text>
</g>
<!-- rwrp.EntityRWarpRoom -->
<g id="node9" class="node">
<title>rwrp.EntityRWarpRoom</title>
<g id="a_node9"><a xlink:href="rwrp.EntityRWarpRoom.svg" xlink:title="rwrp.EntityRWarpRoom">
<ellipse fill="green" stroke="black" cx="2030.54" cy="-198" rx="122.38" ry="18"/>
<text text-anchor="middle" x="2030.54" y="-194.3" font-family="Times,serif" font-size="14.00">rwrp.EntityRWarpRoom</text>
</a>
</g>
</g>
<!-- rwrp.EntityRWarpRoom&#45;&gt;rwrp.InitializeEntity -->
<g id="edge8" class="edge">
<title>rwrp.EntityRWarpRoom&#45;&gt;rwrp.InitializeEntity</title>
<path fill="none" stroke="black" d="M2117.16,-185.3C2131.95,-183.43 2147.18,-181.59 2161.54,-180 2783.63,-110.96 3532.82,-48.91 3803.06,-27.2"/>
<polygon fill="black" stroke="black" points="3803.56,-30.67 3813.25,-26.38 3803,-23.69 3803.56,-30.67"/>
<text text-anchor="middle" x="2112.16" y="-174.1" font-family="Times,serif" font-size="14.00">1</text>
</g>
<!-- rwrp.EntityRedDoor -->
<g id="node10" class="node">
<title>rwrp.EntityRedDoor</title>
<g id="a_node10"><a xlink:href="rwrp.EntityRedDoor.svg" xlink:title="rwrp.EntityRedDoor">
<ellipse fill="green" stroke="black" cx="2275.54" cy="-198" rx="105.08" ry="18"/>
<text text-anchor="middle" x="2275.54" y="-194.3" font-family="Times,serif" font-size="14.00">rwrp.EntityRedDoor</text>
</a>
</g>
</g>
<!-- rwrp.EntityRedDoor&#45;&gt;rwrp.InitializeEntity -->
<g id="edge9" class="edge">
<title>rwrp.EntityRedDoor&#45;&gt;rwrp.InitializeEntity</title>
<path fill="none" stroke="black" d="M2350.95,-185.4C2364.13,-183.5 2377.72,-181.63 2390.54,-180 2922.8,-112.42 3562.69,-50.92 3806.01,-28.24"/>
<polygon fill="black" stroke="black" points="3806.62,-31.7 3816.25,-27.29 3805.97,-24.73 3806.62,-31.7"/>
<text text-anchor="middle" x="2345.95" y="-174.2" font-family="Times,serif" font-size="14.00">1</text>
</g>
<!-- rwrp.EntityRelicOrb -->
<g id="node11" class="node">
<title>rwrp.EntityRelicOrb</title>
<g id="a_node11"><a xlink:href="rwrp.EntityRelicOrb.svg" xlink:title="rwrp.EntityRelicOrb">
<ellipse fill="green" stroke="black" cx="2504.54" cy="-198" rx="105.08" ry="18"/>
<text text-anchor="middle" x="2504.54" y="-194.3" font-family="Times,serif" font-size="14.00">rwrp.EntityRelicOrb</text>
</a>
</g>
</g>
<!-- rwrp.EntityRelicOrb&#45;&gt;rwrp.InitializeEntity -->
<g id="edge10" class="edge">
<title>rwrp.EntityRelicOrb&#45;&gt;rwrp.InitializeEntity</title>
<path fill="none" stroke="black" d="M2580.23,-185.46C2593.01,-183.58 2606.15,-181.7 2618.54,-180 3064.46,-118.89 3598.58,-55.13 3811.84,-30.06"/>
<polygon fill="black" stroke="black" points="3812.53,-33.5 3822.06,-28.86 3811.72,-26.55 3812.53,-33.5"/>
<text text-anchor="middle" x="2575.23" y="-174.26" font-family="Times,serif" font-size="14.00">1</text>
</g>
<!-- rwrp.EntitySoulStealOrb -->
<g id="node12" class="node">
<title>rwrp.EntitySoulStealOrb</title>
<g id="a_node12"><a xlink:href="rwrp.EntitySoulStealOrb.svg" xlink:title="rwrp.EntitySoulStealOrb">
<ellipse fill="green" stroke="black" cx="2754.54" cy="-198" rx="126.98" ry="18"/>
<text text-anchor="middle" x="2754.54" y="-194.3" font-family="Times,serif" font-size="14.00">rwrp.EntitySoulStealOrb</text>
</a>
</g>
</g>
<!-- rwrp.EntitySoulStealOrb&#45;&gt;rwrp.InitializeEntity -->
<g id="edge11" class="edge">
<title>rwrp.EntitySoulStealOrb&#45;&gt;rwrp.InitializeEntity</title>
<path fill="none" stroke="black" d="M2836.92,-184.27C3048.06,-151.65 3606.92,-65.3 3821.23,-32.18"/>
<polygon fill="black" stroke="black" points="3821.82,-35.63 3831.17,-30.65 3820.75,-28.71 3821.82,-35.63"/>
<text text-anchor="middle" x="2831.92" y="-173.07" font-family="Times,serif" font-size="14.00">1</text>
</g>
<!-- rwrp.EntityUnkId12 -->
<g id="node13" class="node">
<title>rwrp.EntityUnkId12</title>
<g id="a_node13"><a xlink:href="rwrp.EntityUnkId12.svg" xlink:title="rwrp.EntityUnkId12">
<ellipse fill="green" stroke="black" cx="3003.54" cy="-198" rx="104.78" ry="18"/>
<text text-anchor="middle" x="3003.54" y="-194.3" font-family="Times,serif" font-size="14.00">rwrp.EntityUnkId12</text>
</a>
</g>
</g>
<!-- rwrp.EntityUnkId12&#45;&gt;rwrp.InitializeEntity -->
<g id="edge12" class="edge">
<title>rwrp.EntityUnkId12&#45;&gt;rwrp.InitializeEntity</title>
<path fill="none" stroke="black" d="M3069.57,-183.98C3233.19,-151.73 3656.69,-68.25 3830.44,-34"/>
<polygon fill="black" stroke="black" points="3831.14,-37.43 3840.27,-32.06 3829.79,-30.56 3831.14,-37.43"/>
<text text-anchor="middle" x="3064.57" y="-172.78" font-family="Times,serif" font-size="14.00">1</text>
</g>
<!-- rwrp.EntityUnkId13 -->
<g id="node14" class="node">
<title>rwrp.EntityUnkId13</title>
<g id="a_node14"><a xlink:href="rwrp.EntityUnkId13.svg" xlink:title="rwrp.EntityUnkId13">
<ellipse fill="green" stroke="black" cx="3230.54" cy="-198" rx="104.78" ry="18"/>
<text text-anchor="middle" x="3230.54" y="-194.3" font-family="Times,serif" font-size="14.00">rwrp.EntityUnkId13</text>
</a>
</g>
</g>
<!-- rwrp.EntityUnkId13&#45;&gt;rwrp.InitializeEntity -->
<g id="edge13" class="edge">
<title>rwrp.EntityUnkId13&#45;&gt;rwrp.InitializeEntity</title>
<path fill="none" stroke="black" d="M3285.29,-182.58C3408.89,-150.04 3709.12,-70.98 3841.74,-36.06"/>
<polygon fill="black" stroke="black" points="3842.97,-39.36 3851.75,-33.43 3841.19,-32.59 3842.97,-39.36"/>
<text text-anchor="middle" x="3280.29" y="-171.38" font-family="Times,serif" font-size="14.00">1</text>
</g>
<!-- rwrp.EntityWarpSmallRocks -->
<g id="node15" class="node">
<title>rwrp.EntityWarpSmallRocks</title>
<g id="a_node15"><a xlink:href="rwrp.EntityWarpSmallRocks.svg" xlink:title="rwrp.EntityWarpSmallRocks">
<ellipse fill="green" stroke="black" cx="3496.54" cy="-198" rx="142.97" ry="18"/>
<text text-anchor="middle" x="3496.54" y="-194.3" font-family="Times,serif" font-size="14.00">rwrp.EntityWarpSmallRocks</text>
</a>
</g>
</g>
<!-- rwrp.EntityWarpSmallRocks&#45;&gt;rwrp.InitializeEntity -->
<g id="edge14" class="edge">
<title>rwrp.EntityWarpSmallRocks&#45;&gt;rwrp.InitializeEntity</title>
<path fill="none" stroke="black" d="M3534.37,-180.57C3609.72,-147.86 3778.27,-74.69 3860.14,-39.14"/>
<polygon fill="black" stroke="black" points="3861.9,-42.19 3869.68,-35 3859.11,-35.77 3861.9,-42.19"/>
<text text-anchor="middle" x="3529.37" y="-169.37" font-family="Times,serif" font-size="14.00">1</text>
</g>
<!-- rwrp.InitializeUnkEntity -->
<g id="node16" class="node">
<title>rwrp.InitializeUnkEntity</title>
<g id="a_node16"><a xlink:href="rwrp.InitializeUnkEntity.svg" xlink:title="rwrp.InitializeUnkEntity">
<ellipse fill="green" stroke="black" cx="3781.54" cy="-198" rx="124.28" ry="18"/>
<text text-anchor="middle" x="3781.54" y="-194.3" font-family="Times,serif" font-size="14.00">rwrp.InitializeUnkEntity</text>
</a>
</g>
</g>
<!-- rwrp.InitializeUnkEntity&#45;&gt;rwrp.InitializeEntity -->
<g id="edge15" class="edge">
<title>rwrp.InitializeUnkEntity&#45;&gt;rwrp.InitializeEntity</title>
<path fill="none" stroke="black" d="M3793.52,-179.93C3815.64,-148.43 3862.97,-81.03 3888.81,-44.24"/>
<polygon fill="black" stroke="black" points="3891.71,-46.21 3894.59,-36.02 3885.98,-42.19 3891.71,-46.21"/>
<text text-anchor="middle" x="3788.52" y="-168.73" font-family="Times,serif" font-size="14.00">1</text>
</g>
<!-- rwrp.func_80188DF0 -->
<g id="node17" class="node">
<title>rwrp.func_80188DF0</title>
<g id="a_node17"><a xlink:href="rwrp.func_80188DF0.svg" xlink:title="rwrp.func_80188DF0">
<ellipse fill="green" stroke="black" cx="4032.54" cy="-198" rx="109.38" ry="18"/>
<text text-anchor="middle" x="4032.54" y="-194.3" font-family="Times,serif" font-size="14.00">rwrp.func_80188DF0</text>
</a>
</g>
</g>
<!-- rwrp.func_80188DF0&#45;&gt;rwrp.InitializeEntity -->
<g id="edge16" class="edge">
<title>rwrp.func_80188DF0&#45;&gt;rwrp.InitializeEntity</title>
<path fill="none" stroke="black" d="M4020.46,-179.93C3998.16,-148.43 3950.45,-81.03 3924.4,-44.24"/>
<polygon fill="black" stroke="black" points="3927.22,-42.16 3918.58,-36.02 3921.5,-46.2 3927.22,-42.16"/>
<text text-anchor="middle" x="4015.46" y="-168.73" font-family="Times,serif" font-size="14.00">1</text>
</g>
<!-- wrp.EntityBigRedFireball -->
<g id="node18" class="node">
<title>wrp.EntityBigRedFireball</title>
<g id="a_node18"><a xlink:href="wrp.EntityBigRedFireball.svg" xlink:title="wrp.EntityBigRedFireball">
<ellipse fill="green" stroke="black" cx="4289.54" cy="-198" rx="129.98" ry="18"/>
<text text-anchor="middle" x="4289.54" y="-194.3" font-family="Times,serif" font-size="14.00">wrp.EntityBigRedFireball</text>
</a>
</g>
</g>
<!-- wrp.EntityBigRedFireball&#45;&gt;rwrp.InitializeEntity -->
<g id="edge17" class="edge">
<title>wrp.EntityBigRedFireball&#45;&gt;rwrp.InitializeEntity</title>
<path fill="none" stroke="black" d="M4254.19,-180.57C4184.04,-147.97 4027.4,-75.17 3950.64,-39.5"/>
<polygon fill="black" stroke="black" points="3951.79,-36.17 3941.24,-35.13 3948.84,-42.52 3951.79,-36.17"/>
<text text-anchor="middle" x="4249.19" y="-169.37" font-family="Times,serif" font-size="14.00">1</text>
</g>
<!-- wrp.EntityEquipItemDrop -->
<g id="node19" class="node">
<title>wrp.EntityEquipItemDrop</title>
<g id="a_node19"><a xlink:href="wrp.EntityEquipItemDrop.svg" xlink:title="wrp.EntityEquipItemDrop">
<ellipse fill="green" stroke="black" cx="4569.54" cy="-198" rx="131.88" ry="18"/>
<text text-anchor="middle" x="4569.54" y="-194.3" font-family="Times,serif" font-size="14.00">wrp.EntityEquipItemDrop</text>
</a>
</g>
</g>
<!-- wrp.EntityEquipItemDrop&#45;&gt;rwrp.InitializeEntity -->
<g id="edge18" class="edge">
<title>wrp.EntityEquipItemDrop&#45;&gt;rwrp.InitializeEntity</title>
<path fill="none" stroke="black" d="M4512.72,-181.75C4389.7,-148.72 4099.35,-70.76 3970.29,-36.12"/>
<polygon fill="black" stroke="black" points="3971.1,-32.71 3960.54,-33.5 3969.29,-39.47 3971.1,-32.71"/>
<text text-anchor="middle" x="4507.72" y="-170.55" font-family="Times,serif" font-size="14.00">1</text>
</g>
<!-- wrp.EntityExplosion -->
<g id="node20" class="node">
<title>wrp.EntityExplosion</title>
<g id="a_node20"><a xlink:href="wrp.EntityExplosion.svg" xlink:title="wrp.EntityExplosion">
<ellipse fill="green" stroke="black" cx="4825.54" cy="-198" rx="105.88" ry="18"/>
<text text-anchor="middle" x="4825.54" y="-194.3" font-family="Times,serif" font-size="14.00">wrp.EntityExplosion</text>
</a>
</g>
</g>
<!-- wrp.EntityExplosion&#45;&gt;rwrp.InitializeEntity -->
<g id="edge19" class="edge">
<title>wrp.EntityExplosion&#45;&gt;rwrp.InitializeEntity</title>
<path fill="none" stroke="black" d="M4758.33,-183.98C4591.61,-151.69 4159.77,-68.05 3983.34,-33.88"/>
<polygon fill="black" stroke="black" points="3983.84,-30.41 3973.36,-31.94 3982.51,-37.28 3983.84,-30.41"/>
<text text-anchor="middle" x="4753.33" y="-172.78" font-family="Times,serif" font-size="14.00">1</text>
</g>
<!-- wrp.EntityIntenseExplosion -->
<g id="node21" class="node">
<title>wrp.EntityIntenseExplosion</title>
<g id="a_node21"><a xlink:href="wrp.EntityIntenseExplosion.svg" xlink:title="wrp.EntityIntenseExplosion">
<ellipse fill="green" stroke="black" cx="5089.54" cy="-198" rx="140.28" ry="18"/>
<text text-anchor="middle" x="5089.54" y="-194.3" font-family="Times,serif" font-size="14.00">wrp.EntityIntenseExplosion</text>
</a>
</g>
</g>
<!-- wrp.EntityIntenseExplosion&#45;&gt;rwrp.InitializeEntity -->
<g id="edge20" class="edge">
<title>wrp.EntityIntenseExplosion&#45;&gt;rwrp.InitializeEntity</title>
<path fill="none" stroke="black" d="M5002.07,-183.84C4782.65,-150.82 4210.89,-64.79 3992.79,-31.98"/>
<polygon fill="black" stroke="black" points="3993.08,-28.48 3982.67,-30.46 3992.04,-35.4 3993.08,-28.48"/>
<text text-anchor="middle" x="4997.07" y="-172.64" font-family="Times,serif" font-size="14.00">1</text>
</g>
<!-- wrp.EntityMessageBox -->
<g id="node22" class="node">
<title>wrp.EntityMessageBox</title>
<g id="a_node22"><a xlink:href="wrp.EntityMessageBox.svg" xlink:title="wrp.EntityMessageBox">
<ellipse fill="green" stroke="black" cx="5366.54" cy="-198" rx="118.88" ry="18"/>
<text text-anchor="middle" x="5366.54" y="-194.3" font-family="Times,serif" font-size="14.00">wrp.EntityMessageBox</text>
</a>
</g>
</g>
<!-- wrp.EntityMessageBox&#45;&gt;rwrp.InitializeEntity -->
<g id="edge21" class="edge">
<title>wrp.EntityMessageBox&#45;&gt;rwrp.InitializeEntity</title>
<path fill="none" stroke="black" d="M5280.84,-185.48C5266.71,-183.62 5252.22,-181.73 5238.54,-180 4774.5,-121.14 4218.86,-55.56 4000.86,-30.01"/>
<polygon fill="black" stroke="black" points="4001.07,-26.52 3990.73,-28.83 4000.26,-33.47 4001.07,-26.52"/>
<text text-anchor="middle" x="5275.84" y="-174.28" font-family="Times,serif" font-size="14.00">1</text>
</g>
<!-- wrp.EntityOlroxDrool -->
<g id="node23" class="node">
<title>wrp.EntityOlroxDrool</title>
<g id="a_node23"><a xlink:href="wrp.EntityOlroxDrool.svg" xlink:title="wrp.EntityOlroxDrool">
<ellipse fill="green" stroke="black" cx="5614.54" cy="-198" rx="111.28" ry="18"/>
<text text-anchor="middle" x="5614.54" y="-194.3" font-family="Times,serif" font-size="14.00">wrp.EntityOlroxDrool</text>
</a>
</g>
</g>
<!-- wrp.EntityOlroxDrool&#45;&gt;rwrp.InitializeEntity -->
<g id="edge22" class="edge">
<title>wrp.EntityOlroxDrool&#45;&gt;rwrp.InitializeEntity</title>
<path fill="none" stroke="black" d="M5535.2,-185.31C5521.65,-183.44 5507.7,-181.6 5494.54,-180 4934.25,-111.94 4260.3,-50.27 4008.22,-27.9"/>
<polygon fill="black" stroke="black" points="4008.25,-24.39 3997.98,-26.99 4007.63,-31.36 4008.25,-24.39"/>
<text text-anchor="middle" x="5530.2" y="-174.11" font-family="Times,serif" font-size="14.00">1</text>
</g>
<!-- wrp.EntityPrizeDrop -->
<g id="node24" class="node">
<title>wrp.EntityPrizeDrop</title>
<g id="a_node24"><a xlink:href="wrp.EntityPrizeDrop.svg" xlink:title="wrp.EntityPrizeDrop">
<ellipse fill="green" stroke="black" cx="5850.54" cy="-198" rx="107.48" ry="18"/>
<text text-anchor="middle" x="5850.54" y="-194.3" font-family="Times,serif" font-size="14.00">wrp.EntityPrizeDrop</text>
</a>
</g>
</g>
<!-- wrp.EntityPrizeDrop&#45;&gt;rwrp.InitializeEntity -->
<g id="edge23" class="edge">
<title>wrp.EntityPrizeDrop&#45;&gt;rwrp.InitializeEntity</title>
<path fill="none" stroke="black" d="M5774.5,-185.22C5761.2,-183.34 5747.48,-181.52 5734.54,-180 5081.68,-103.48 4293.76,-45.72 4012.57,-26.19"/>
<polygon fill="black" stroke="black" points="4012.59,-22.68 4002.38,-25.48 4012.11,-29.67 4012.59,-22.68"/>
<text text-anchor="middle" x="5769.5" y="-174.02" font-family="Times,serif" font-size="14.00">1</text>
</g>
<!-- wrp.EntityRelicOrb -->
<g id="node25" class="node">
<title>wrp.EntityRelicOrb</title>
<g id="a_node25"><a xlink:href="wrp.EntityRelicOrb.svg" xlink:title="wrp.EntityRelicOrb">
<ellipse fill="green" stroke="black" cx="6076.54" cy="-198" rx="100.98" ry="18"/>
<text text-anchor="middle" x="6076.54" y="-194.3" font-family="Times,serif" font-size="14.00">wrp.EntityRelicOrb</text>
</a>
</g>
</g>
<!-- wrp.EntityRelicOrb&#45;&gt;rwrp.InitializeEntity -->
<g id="edge24" class="edge">
<title>wrp.EntityRelicOrb&#45;&gt;rwrp.InitializeEntity</title>
<path fill="none" stroke="black" d="M6005.34,-185.2C5992.45,-183.29 5979.11,-181.46 5966.54,-180 5223.34,-93.65 4323.77,-41.14 4015.94,-24.64"/>
<polygon fill="black" stroke="black" points="4015.86,-21.13 4005.69,-24.09 4015.48,-28.12 4015.86,-21.13"/>
<text text-anchor="middle" x="6000.34" y="-174" font-family="Times,serif" font-size="14.00">1</text>
</g>
<!-- wrp.EntityRoomForeground -->
<g id="node26" class="node">
<title>wrp.EntityRoomForeground</title>
<g id="a_node26"><a xlink:href="wrp.EntityRoomForeground.svg" xlink:title="wrp.EntityRoomForeground">
<ellipse fill="green" stroke="black" cx="6336.54" cy="-198" rx="141.07" ry="18"/>
<text text-anchor="middle" x="6336.54" y="-194.3" font-family="Times,serif" font-size="14.00">wrp.EntityRoomForeground</text>
</a>
</g>
</g>
<!-- wrp.EntityRoomForeground&#45;&gt;rwrp.InitializeEntity -->
<g id="edge25" class="edge">
<title>wrp.EntityRoomForeground&#45;&gt;rwrp.InitializeEntity</title>
<path fill="none" stroke="black" d="M6237.36,-185.16C6220.41,-183.31 6202.98,-181.51 6186.54,-180 5352.44,-103.32 4343.74,-43.63 4015.44,-25.05"/>
<polygon fill="black" stroke="black" points="4015.17,-21.53 4004.99,-24.46 4014.78,-28.52 4015.17,-21.53"/>
<text text-anchor="middle" x="6232.36" y="-173.96" font-family="Times,serif" font-size="14.00">1</text>
</g>
<!-- wrp.EntityStageNamePopup -->
<g id="node27" class="node">
<title>wrp.EntityStageNamePopup</title>
<g id="a_node27"><a xlink:href="wrp.EntityStageNamePopup.svg" xlink:title="wrp.EntityStageNamePopup">
<ellipse fill="green" stroke="black" cx="6639.54" cy="-198" rx="143.77" ry="18"/>
<text text-anchor="middle" x="6639.54" y="-194.3" font-family="Times,serif" font-size="14.00">wrp.EntityStageNamePopup</text>
</a>
</g>
</g>
<!-- wrp.EntityStageNamePopup&#45;&gt;rwrp.InitializeEntity -->
<g id="edge26" class="edge">
<title>wrp.EntityStageNamePopup&#45;&gt;rwrp.InitializeEntity</title>
<path fill="none" stroke="black" d="M6538.79,-185.11C6521.38,-183.25 6503.45,-181.47 6486.54,-180 5531.64,-97.2 4374.34,-40.5 4016.96,-23.98"/>
<polygon fill="black" stroke="black" points="4017.03,-20.48 4006.88,-23.51 4016.71,-27.47 4017.03,-20.48"/>
<text text-anchor="middle" x="6533.79" y="-173.91" font-family="Times,serif" font-size="14.00">1</text>
</g>
<!-- wrp.EntityUnkId13 -->
<g id="node28" class="node">
<title>wrp.EntityUnkId13</title>
<g id="a_node28"><a xlink:href="wrp.EntityUnkId13.svg" xlink:title="wrp.EntityUnkId13">
<ellipse fill="green" stroke="black" cx="6901.54" cy="-198" rx="100.98" ry="18"/>
<text text-anchor="middle" x="6901.54" y="-194.3" font-family="Times,serif" font-size="14.00">wrp.EntityUnkId13</text>
</a>
</g>
</g>
<!-- wrp.EntityUnkId13&#45;&gt;rwrp.InitializeEntity -->
<g id="edge27" class="edge">
<title>wrp.EntityUnkId13&#45;&gt;rwrp.InitializeEntity</title>
<path fill="none" stroke="black" d="M6831.31,-185C6818.44,-183.1 6805.11,-181.33 6792.54,-180 5717.89,-66.5 4409.12,-30.03 4020.49,-21.3"/>
<polygon fill="black" stroke="black" points="4020.45,-17.8 4010.37,-21.08 4020.29,-24.8 4020.45,-17.8"/>
<text text-anchor="middle" x="6826.31" y="-173.8" font-family="Times,serif" font-size="14.00">1</text>
</g>
<!-- wrp.EntityWarpRoom -->
<g id="node29" class="node">
<title>wrp.EntityWarpRoom</title>
<g id="a_node29"><a xlink:href="wrp.EntityWarpRoom.svg" xlink:title="wrp.EntityWarpRoom">
<ellipse fill="green" stroke="black" cx="7131.54" cy="-198" rx="111.28" ry="18"/>
<text text-anchor="middle" x="7131.54" y="-194.3" font-family="Times,serif" font-size="14.00">wrp.EntityWarpRoom</text>
</a>
</g>
</g>
<!-- wrp.EntityWarpRoom&#45;&gt;rwrp.InitializeEntity -->
<g id="edge28" class="edge">
<title>wrp.EntityWarpRoom&#45;&gt;rwrp.InitializeEntity</title>
<path fill="none" stroke="black" d="M7054.2,-185.01C7040.03,-183.11 7025.36,-181.33 7011.54,-180 5846.64,-67.51 4427.77,-30.08 4020.66,-21.26"/>
<polygon fill="black" stroke="black" points="4020.72,-17.76 4010.65,-21.04 4020.57,-24.75 4020.72,-17.76"/>
<text text-anchor="middle" x="7049.2" y="-173.81" font-family="Times,serif" font-size="14.00">1</text>
</g>
<!-- wrp.EntityWarpSmallRocks -->
<g id="node30" class="node">
<title>wrp.EntityWarpSmallRocks</title>
<g id="a_node30"><a xlink:href="wrp.EntityWarpSmallRocks.svg" xlink:title="wrp.EntityWarpSmallRocks">
<ellipse fill="green" stroke="black" cx="7399.54" cy="-198" rx="138.38" ry="18"/>
<text text-anchor="middle" x="7399.54" y="-194.3" font-family="Times,serif" font-size="14.00">wrp.EntityWarpSmallRocks</text>
</a>
</g>
</g>
<!-- wrp.EntityWarpSmallRocks&#45;&gt;rwrp.InitializeEntity -->
<g id="edge29" class="edge">
<title>wrp.EntityWarpSmallRocks&#45;&gt;rwrp.InitializeEntity</title>
<path fill="none" stroke="black" d="M7303.3,-185.01C7286.08,-183.13 7268.29,-181.36 7251.54,-180 5986.22,-76.99 4445.89,-32.58 4020.2,-21.74"/>
<polygon fill="black" stroke="black" points="4020.13,-18.24 4010.05,-21.48 4019.95,-25.23 4020.13,-18.24"/>
<text text-anchor="middle" x="7298.3" y="-173.81" font-family="Times,serif" font-size="14.00">1</text>
</g>
<!-- wrp.InitializeUnkEntity -->
<g id="node31" class="node">
<title>wrp.InitializeUnkEntity</title>
<g id="a_node31"><a xlink:href="wrp.InitializeUnkEntity.svg" xlink:title="wrp.InitializeUnkEntity">
<ellipse fill="green" stroke="black" cx="7676.54" cy="-198" rx="120.48" ry="18"/>
<text text-anchor="middle" x="7676.54" y="-194.3" font-family="Times,serif" font-size="14.00">wrp.InitializeUnkEntity</text>
</a>
</g>
</g>
<!-- wrp.InitializeUnkEntity&#45;&gt;rwrp.InitializeEntity -->
<g id="edge30" class="edge">
<title>wrp.InitializeUnkEntity&#45;&gt;rwrp.InitializeEntity</title>
<path fill="none" stroke="black" d="M7593.08,-185.01C7577.63,-183.1 7561.62,-181.32 7546.54,-180 6161.29,-59.02 4471.1,-27.09 4021.07,-20.49"/>
<polygon fill="black" stroke="black" points="4021.04,-16.99 4010.99,-20.34 4020.94,-23.99 4021.04,-16.99"/>
<text text-anchor="middle" x="7588.08" y="-173.81" font-family="Times,serif" font-size="14.00">1</text>
</g>
</g>
</svg>
