<?xml version="1.0" encoding="UTF-8" standalone="no"?>
<!DOCTYPE svg PUBLIC "-//W3C//DTD SVG 1.1//EN"
 "http://www.w3.org/Graphics/SVG/1.1/DTD/svg11.dtd">
<!-- Generated by graphviz version 2.43.0 (0)
 -->
<!-- Title: rwrp.DestroyEntity Pages: 1 -->
<svg width="8910pt" height="404pt"
 viewBox="0.00 0.00 8909.78 404.00" xmlns="http://www.w3.org/2000/svg" xmlns:xlink="http://www.w3.org/1999/xlink">
<g id="graph0" class="graph" transform="scale(1 1) rotate(0) translate(4 400)">
<title>rwrp.DestroyEntity</title>
<polygon fill="white" stroke="transparent" points="-4,4 -4,-400 8905.78,-400 8905.78,4 -4,4"/>
<!-- rwrp.DestroyEntity -->
<g id="node1" class="node">
<title>rwrp.DestroyEntity</title>
<ellipse fill="green" stroke="black" cx="4895.09" cy="-198" rx="101.28" ry="18"/>
<text text-anchor="middle" x="4895.09" y="-194.3" font-family="Times,serif" font-size="14.00">rwrp.DestroyEntity</text>
</g>
<!-- dra.FreePrimitives -->
<g id="node2" class="node">
<title>dra.FreePrimitives</title>
<g id="a_node2"><a xlink:href="dra.FreePrimitives.svg" xlink:title="dra.FreePrimitives">
<ellipse fill="green" stroke="black" cx="4895.09" cy="-18" rx="98.58" ry="18"/>
<text text-anchor="middle" x="4895.09" y="-14.3" font-family="Times,serif" font-size="14.00">dra.FreePrimitives</text>
</a>
</g>
</g>
<!-- rwrp.DestroyEntity&#45;&gt;dra.FreePrimitives -->
<g id="edge1" class="edge">
<title>rwrp.DestroyEntity&#45;&gt;dra.FreePrimitives</title>
<path fill="none" stroke="black" d="M4895.09,-179.93C4895.09,-148.97 4895.09,-83.3 4895.09,-46.13"/>
<polygon fill="black" stroke="black" points="4898.59,-46.02 4895.09,-36.02 4891.59,-46.02 4898.59,-46.02"/>
<text text-anchor="middle" x="4890.09" y="-39.82" font-family="Times,serif" font-size="14.00">1</text>
</g>
<!-- rwrp.AllocEntity -->
<g id="node3" class="node">
<title>rwrp.AllocEntity</title>
<g id="a_node3"><a xlink:href="rwrp.AllocEntity.svg" xlink:title="rwrp.AllocEntity">
<ellipse fill="green" stroke="black" cx="87.09" cy="-378" rx="87.18" ry="18"/>
<text text-anchor="middle" x="87.09" y="-374.3" font-family="Times,serif" font-size="14.00">rwrp.AllocEntity</text>
</a>
</g>
</g>
<!-- rwrp.AllocEntity&#45;&gt;rwrp.DestroyEntity -->
<g id="edge2" class="edge">
<title>rwrp.AllocEntity&#45;&gt;rwrp.DestroyEntity</title>
<path fill="none" stroke="black" d="M147.34,-364.99C159.15,-363.02 171.48,-361.22 183.09,-360 1117.28,-261.82 4163.88,-210.27 4784.23,-200.66"/>
<polygon fill="black" stroke="black" points="4784.57,-204.16 4794.51,-200.5 4784.46,-197.16 4784.57,-204.16"/>
<text text-anchor="middle" x="142.34" y="-353.79" font-family="Times,serif" font-size="14.00">1</text>
</g>
<!-- rwrp.DestroyEntitiesFromIndex -->
<g id="node4" class="node">
<title>rwrp.DestroyEntitiesFromIndex</title>
<g id="a_node4"><a xlink:href="rwrp.DestroyEntitiesFromIndex.svg" xlink:title="rwrp.DestroyEntitiesFromIndex">
<ellipse fill="green" stroke="black" cx="352.09" cy="-378" rx="159.77" ry="18"/>
<text text-anchor="middle" x="352.09" y="-374.3" font-family="Times,serif" font-size="14.00">rwrp.DestroyEntitiesFromIndex</text>
</a>
</g>
</g>
<!-- rwrp.DestroyEntitiesFromIndex&#45;&gt;rwrp.DestroyEntity -->
<g id="edge3" class="edge">
<title>rwrp.DestroyEntitiesFromIndex&#45;&gt;rwrp.DestroyEntity</title>
<path fill="none" stroke="black" d="M462.01,-364.92C481.66,-363.05 501.97,-361.31 521.09,-360 2216.58,-243.64 4287.96,-207.71 4784.42,-200.49"/>
<polygon fill="black" stroke="black" points="4784.5,-203.99 4794.44,-200.34 4784.39,-196.99 4784.5,-203.99"/>
<text text-anchor="middle" x="457.01" y="-353.72" font-family="Times,serif" font-size="14.00">1</text>
</g>
<!-- rwrp.EntityExplosionSpawn -->
<g id="node5" class="node">
<title>rwrp.EntityExplosionSpawn</title>
<g id="a_node5"><a xlink:href="rwrp.EntityExplosionSpawn.svg" xlink:title="rwrp.EntityExplosionSpawn">
<ellipse fill="green" stroke="black" cx="672.09" cy="-378" rx="141.88" ry="18"/>
<text text-anchor="middle" x="672.09" y="-374.3" font-family="Times,serif" font-size="14.00">rwrp.EntityExplosionSpawn</text>
</a>
</g>
</g>
<!-- rwrp.EntityExplosionSpawn&#45;&gt;rwrp.DestroyEntity -->
<g id="edge4" class="edge">
<title>rwrp.EntityExplosionSpawn&#45;&gt;rwrp.DestroyEntity</title>
<path fill="none" stroke="black" d="M769.63,-364.9C787.08,-363.03 805.11,-361.3 822.09,-360 2391.1,-240.24 4307.33,-207.06 4783.86,-200.41"/>
<polygon fill="black" stroke="black" points="4784.22,-203.9 4794.17,-200.26 4784.12,-196.9 4784.22,-203.9"/>
<text text-anchor="middle" x="764.63" y="-353.7" font-family="Times,serif" font-size="14.00">1</text>
</g>
<!-- rwrp.EntityStageNamePopup -->
<g id="node6" class="node">
<title>rwrp.EntityStageNamePopup</title>
<g id="a_node6"><a xlink:href="rwrp.EntityStageNamePopup.svg" xlink:title="rwrp.EntityStageNamePopup">
<ellipse fill="green" stroke="black" cx="979.09" cy="-378" rx="147.57" ry="18"/>
<text text-anchor="middle" x="979.09" y="-374.3" font-family="Times,serif" font-size="14.00">rwrp.EntityStageNamePopup</text>
</a>
</g>
</g>
<!-- rwrp.EntityStageNamePopup&#45;&gt;rwrp.DestroyEntity -->
<g id="edge5" class="edge">
<title>rwrp.EntityStageNamePopup&#45;&gt;rwrp.DestroyEntity</title>
<path fill="none" stroke="black" d="M1080.96,-364.92C1098.97,-363.07 1117.57,-361.33 1135.09,-360 2575.34,-250.81 4331.97,-210.14 4784.6,-201.08"/>
<polygon fill="black" stroke="black" points="4784.8,-204.57 4794.73,-200.87 4784.66,-197.57 4784.8,-204.57"/>
<text text-anchor="middle" x="1075.96" y="-353.72" font-family="Times,serif" font-size="14.00">1</text>
</g>
<!-- rwrp.ReplaceBreakableWithItemDrop -->
<g id="node7" class="node">
<title>rwrp.ReplaceBreakableWithItemDrop</title>
<g id="a_node7"><a xlink:href="rwrp.ReplaceBreakableWithItemDrop.svg" xlink:title="rwrp.ReplaceBreakableWithItemDrop">
<ellipse fill="green" stroke="black" cx="1330.09" cy="-378" rx="185.77" ry="18"/>
<text text-anchor="middle" x="1330.09" y="-374.3" font-family="Times,serif" font-size="14.00">rwrp.ReplaceBreakableWithItemDrop</text>
</a>
</g>
</g>
<!-- rwrp.ReplaceBreakableWithItemDrop&#45;&gt;rwrp.DestroyEntity -->
<g id="edge6" class="edge">
<title>rwrp.ReplaceBreakableWithItemDrop&#45;&gt;rwrp.DestroyEntity</title>
<path fill="none" stroke="black" d="M1459.32,-365.02C1481.25,-363.19 1503.82,-361.44 1525.09,-360 2806.95,-273.54 4366.19,-217.04 4786.44,-202.64"/>
<polygon fill="black" stroke="black" points="4786.58,-206.14 4796.45,-202.3 4786.34,-199.14 4786.58,-206.14"/>
<text text-anchor="middle" x="1454.32" y="-353.82" font-family="Times,serif" font-size="14.00">1</text>
</g>
<!-- wrp.CollectGold -->
<g id="node8" class="node">
<title>wrp.CollectGold</title>
<g id="a_node8"><a xlink:href="wrp.CollectGold.svg" xlink:title="wrp.CollectGold">
<ellipse fill="green" stroke="black" cx="1619.09" cy="-378" rx="85.29" ry="18"/>
<text text-anchor="middle" x="1619.09" y="-374.3" font-family="Times,serif" font-size="14.00">wrp.CollectGold</text>
</a>
</g>
</g>
<!-- wrp.CollectGold&#45;&gt;rwrp.DestroyEntity -->
<g id="edge7" class="edge">
<title>wrp.CollectGold&#45;&gt;rwrp.DestroyEntity</title>
<path fill="none" stroke="black" d="M1678.59,-365.05C1690.01,-363.1 1701.89,-361.29 1713.09,-360 2909.91,-222.08 4373.51,-202.3 4783.64,-199.47"/>
<polygon fill="black" stroke="black" points="4783.74,-202.97 4793.72,-199.4 4783.69,-195.97 4783.74,-202.97"/>
<text text-anchor="middle" x="1673.59" y="-353.85" font-family="Times,serif" font-size="14.00">1</text>
</g>
<!-- wrp.CollectHeart -->
<g id="node9" class="node">
<title>wrp.CollectHeart</title>
<g id="a_node9"><a xlink:href="wrp.CollectHeart.svg" xlink:title="wrp.CollectHeart">
<ellipse fill="green" stroke="black" cx="1813.09" cy="-378" rx="90.98" ry="18"/>
<text text-anchor="middle" x="1813.09" y="-374.3" font-family="Times,serif" font-size="14.00">wrp.CollectHeart</text>
</a>
</g>
</g>
<!-- wrp.CollectHeart&#45;&gt;rwrp.DestroyEntity -->
<g id="edge8" class="edge">
<title>wrp.CollectHeart&#45;&gt;rwrp.DestroyEntity</title>
<path fill="none" stroke="black" d="M1876.69,-365.07C1888.74,-363.12 1901.28,-361.32 1913.09,-360 3029.05,-235.43 4391.11,-206.4 4784.13,-200.42"/>
<polygon fill="black" stroke="black" points="4784.41,-203.91 4794.35,-200.26 4784.3,-196.91 4784.41,-203.91"/>
<text text-anchor="middle" x="1871.69" y="-353.87" font-family="Times,serif" font-size="14.00">1</text>
</g>
<!-- wrp.CollectHeartVessel -->
<g id="node10" class="node">
<title>wrp.CollectHeartVessel</title>
<g id="a_node10"><a xlink:href="wrp.CollectHeartVessel.svg" xlink:title="wrp.CollectHeartVessel">
<ellipse fill="green" stroke="black" cx="2042.09" cy="-378" rx="120.48" ry="18"/>
<text text-anchor="middle" x="2042.09" y="-374.3" font-family="Times,serif" font-size="14.00">wrp.CollectHeartVessel</text>
</a>
</g>
</g>
<!-- wrp.CollectHeartVessel&#45;&gt;rwrp.DestroyEntity -->
<g id="edge9" class="edge">
<title>wrp.CollectHeartVessel&#45;&gt;rwrp.DestroyEntity</title>
<path fill="none" stroke="black" d="M2125.96,-365.06C2140.96,-363.17 2156.48,-361.39 2171.09,-360 3185.56,-263.3 4418.48,-215.43 4786.45,-202.61"/>
<polygon fill="black" stroke="black" points="4786.69,-206.1 4796.56,-202.26 4786.45,-199.11 4786.69,-206.1"/>
<text text-anchor="middle" x="2120.96" y="-353.86" font-family="Times,serif" font-size="14.00">1</text>
</g>
<!-- wrp.CreateEntityFromCurrentEntity -->
<g id="node11" class="node">
<title>wrp.CreateEntityFromCurrentEntity</title>
<g id="a_node11"><a xlink:href="wrp.CreateEntityFromCurrentEntity.svg" xlink:title="wrp.CreateEntityFromCurrentEntity">
<ellipse fill="green" stroke="black" cx="2362.09" cy="-378" rx="181.97" ry="18"/>
<text text-anchor="middle" x="2362.09" y="-374.3" font-family="Times,serif" font-size="14.00">wrp.CreateEntityFromCurrentEntity</text>
</a>
</g>
</g>
<!-- wrp.CreateEntityFromCurrentEntity&#45;&gt;rwrp.DestroyEntity -->
<g id="edge10" class="edge">
<title>wrp.CreateEntityFromCurrentEntity&#45;&gt;rwrp.DestroyEntity</title>
<path fill="none" stroke="black" d="M2490.49,-365.21C2511.41,-363.4 2532.85,-361.6 2553.09,-360 3416.99,-291.87 4461.48,-225.85 4790.59,-205.43"/>
<polygon fill="black" stroke="black" points="4791.3,-208.89 4801.06,-204.78 4790.86,-201.91 4791.3,-208.89"/>
<text text-anchor="middle" x="2485.49" y="-354.01" font-family="Times,serif" font-size="14.00">1</text>
</g>
<!-- wrp.CreateEntityFromEntity -->
<g id="node12" class="node">
<title>wrp.CreateEntityFromEntity</title>
<g id="a_node12"><a xlink:href="wrp.CreateEntityFromEntity.svg" xlink:title="wrp.CreateEntityFromEntity">
<ellipse fill="green" stroke="black" cx="2708.09" cy="-378" rx="145.67" ry="18"/>
<text text-anchor="middle" x="2708.09" y="-374.3" font-family="Times,serif" font-size="14.00">wrp.CreateEntityFromEntity</text>
</a>
</g>
</g>
<!-- wrp.CreateEntityFromEntity&#45;&gt;rwrp.DestroyEntity -->
<g id="edge11" class="edge">
<title>wrp.CreateEntityFromEntity&#45;&gt;rwrp.DestroyEntity</title>
<path fill="none" stroke="black" d="M2811.43,-365.23C2828.68,-363.39 2846.38,-361.58 2863.09,-360 3601.68,-290.25 4493.27,-226.77 4791.97,-206.07"/>
<polygon fill="black" stroke="black" points="4792.61,-209.53 4802.35,-205.35 4792.13,-202.55 4792.61,-209.53"/>
<text text-anchor="middle" x="2806.43" y="-354.03" font-family="Times,serif" font-size="14.00">1</text>
</g>
<!-- wrp.CreateEntityFromLayout -->
<g id="node13" class="node">
<title>wrp.CreateEntityFromLayout</title>
<g id="a_node13"><a xlink:href="wrp.CreateEntityFromLayout.svg" xlink:title="wrp.CreateEntityFromLayout">
<ellipse fill="green" stroke="black" cx="3020.09" cy="-378" rx="148.37" ry="18"/>
<text text-anchor="middle" x="3020.09" y="-374.3" font-family="Times,serif" font-size="14.00">wrp.CreateEntityFromLayout</text>
</a>
</g>
</g>
<!-- wrp.CreateEntityFromLayout&#45;&gt;rwrp.DestroyEntity -->
<g id="edge12" class="edge">
<title>wrp.CreateEntityFromLayout&#45;&gt;rwrp.DestroyEntity</title>
<path fill="none" stroke="black" d="M3125.63,-365.36C3142.83,-363.53 3160.45,-361.68 3177.09,-360 3792.55,-297.84 4532.9,-231.21 4796.24,-207.76"/>
<polygon fill="black" stroke="black" points="4796.88,-211.22 4806.53,-206.84 4796.26,-204.25 4796.88,-211.22"/>
<text text-anchor="middle" x="3120.63" y="-354.16" font-family="Times,serif" font-size="14.00">1</text>
</g>
<!-- wrp.EntityBigRedFireball -->
<g id="node14" class="node">
<title>wrp.EntityBigRedFireball</title>
<g id="a_node14"><a xlink:href="wrp.EntityBigRedFireball.svg" xlink:title="wrp.EntityBigRedFireball">
<ellipse fill="green" stroke="black" cx="3316.09" cy="-378" rx="129.98" ry="18"/>
<text text-anchor="middle" x="3316.09" y="-374.3" font-family="Times,serif" font-size="14.00">wrp.EntityBigRedFireball</text>
</a>
</g>
</g>
<!-- wrp.EntityBigRedFireball&#45;&gt;rwrp.DestroyEntity -->
<g id="edge13" class="edge">
<title>wrp.EntityBigRedFireball&#45;&gt;rwrp.DestroyEntity</title>
<path fill="none" stroke="black" d="M3409.54,-365.44C3424.76,-363.59 3440.36,-361.72 3455.09,-360 3962.56,-300.6 4571.21,-234.11 4801.06,-209.17"/>
<polygon fill="black" stroke="black" points="4801.5,-212.65 4811.06,-208.09 4800.74,-205.69 4801.5,-212.65"/>
<text text-anchor="middle" x="3404.54" y="-354.24" font-family="Times,serif" font-size="14.00">1</text>
</g>
<!-- wrp.EntityDamageDisplay -->
<g id="node15" class="node">
<title>wrp.EntityDamageDisplay</title>
<g id="a_node15"><a xlink:href="wrp.EntityDamageDisplay.svg" xlink:title="wrp.EntityDamageDisplay">
<ellipse fill="green" stroke="black" cx="3597.09" cy="-378" rx="133.48" ry="18"/>
<text text-anchor="middle" x="3597.09" y="-374.3" font-family="Times,serif" font-size="14.00">wrp.EntityDamageDisplay</text>
</a>
</g>
</g>
<!-- wrp.EntityDamageDisplay&#45;&gt;rwrp.DestroyEntity -->
<g id="edge14" class="edge">
<title>wrp.EntityDamageDisplay&#45;&gt;rwrp.DestroyEntity</title>
<path fill="none" stroke="black" d="M3687.08,-364.66C3925.49,-331.97 4571.29,-243.4 4807.25,-211.05"/>
<polygon fill="black" stroke="black" points="4808.06,-214.47 4817.5,-209.64 4807.11,-207.53 4808.06,-214.47"/>
<text text-anchor="middle" x="3682.08" y="-353.46" font-family="Times,serif" font-size="14.00">1</text>
</g>
<!-- wrp.EntityEnemyBlood -->
<g id="node16" class="node">
<title>wrp.EntityEnemyBlood</title>
<g id="a_node16"><a xlink:href="wrp.EntityEnemyBlood.svg" xlink:title="wrp.EntityEnemyBlood">
<ellipse fill="green" stroke="black" cx="3867.09" cy="-378" rx="118.88" ry="18"/>
<text text-anchor="middle" x="3867.09" y="-374.3" font-family="Times,serif" font-size="14.00">wrp.EntityEnemyBlood</text>
</a>
</g>
</g>
<!-- wrp.EntityEnemyBlood&#45;&gt;rwrp.DestroyEntity -->
<g id="edge15" class="edge">
<title>wrp.EntityEnemyBlood&#45;&gt;rwrp.DestroyEntity</title>
<path fill="none" stroke="black" d="M3942.27,-363.98C4130.64,-331.37 4621.55,-246.36 4815.03,-212.86"/>
<polygon fill="black" stroke="black" points="4815.87,-216.27 4825.13,-211.11 4814.68,-209.37 4815.87,-216.27"/>
<text text-anchor="middle" x="3937.27" y="-352.78" font-family="Times,serif" font-size="14.00">1</text>
</g>
<!-- wrp.EntityEquipItemDrop -->
<g id="node17" class="node">
<title>wrp.EntityEquipItemDrop</title>
<g id="a_node17"><a xlink:href="wrp.EntityEquipItemDrop.svg" xlink:title="wrp.EntityEquipItemDrop">
<ellipse fill="green" stroke="black" cx="4136.09" cy="-378" rx="131.88" ry="18"/>
<text text-anchor="middle" x="4136.09" y="-374.3" font-family="Times,serif" font-size="14.00">wrp.EntityEquipItemDrop</text>
</a>
</g>
</g>
<!-- wrp.EntityEquipItemDrop&#45;&gt;rwrp.DestroyEntity -->
<g id="edge16" class="edge">
<title>wrp.EntityEquipItemDrop&#45;&gt;rwrp.DestroyEntity</title>
<path fill="none" stroke="black" d="M4199.5,-362.13C4340.9,-328.97 4681.05,-249.2 4826.86,-215"/>
<polygon fill="black" stroke="black" points="4827.66,-218.41 4836.59,-212.72 4826.06,-211.59 4827.66,-218.41"/>
<text text-anchor="middle" x="4194.5" y="-350.93" font-family="Times,serif" font-size="14.00">2</text>
</g>
<!-- wrp.EntityExplosion -->
<g id="node18" class="node">
<title>wrp.EntityExplosion</title>
<g id="a_node18"><a xlink:href="wrp.EntityExplosion.svg" xlink:title="wrp.EntityExplosion">
<ellipse fill="green" stroke="black" cx="4392.09" cy="-378" rx="105.88" ry="18"/>
<text text-anchor="middle" x="4392.09" y="-374.3" font-family="Times,serif" font-size="14.00">wrp.EntityExplosion</text>
</a>
</g>
</g>
<!-- wrp.EntityExplosion&#45;&gt;rwrp.DestroyEntity -->
<g id="edge17" class="edge">
<title>wrp.EntityExplosion&#45;&gt;rwrp.DestroyEntity</title>
<path fill="none" stroke="black" d="M4435.85,-361.52C4528.14,-328.85 4742.44,-253.02 4842.22,-217.71"/>
<polygon fill="black" stroke="black" points="4843.53,-220.96 4851.79,-214.32 4841.2,-214.36 4843.53,-220.96"/>
<text text-anchor="middle" x="4430.85" y="-350.32" font-family="Times,serif" font-size="14.00">1</text>
</g>
<!-- wrp.EntityHeartDrop -->
<g id="node19" class="node">
<title>wrp.EntityHeartDrop</title>
<g id="a_node19"><a xlink:href="wrp.EntityHeartDrop.svg" xlink:title="wrp.EntityHeartDrop">
<ellipse fill="green" stroke="black" cx="4626.09" cy="-378" rx="110.48" ry="18"/>
<text text-anchor="middle" x="4626.09" y="-374.3" font-family="Times,serif" font-size="14.00">wrp.EntityHeartDrop</text>
</a>
</g>
</g>
<!-- wrp.EntityHeartDrop&#45;&gt;rwrp.DestroyEntity -->
<g id="edge18" class="edge">
<title>wrp.EntityHeartDrop&#45;&gt;rwrp.DestroyEntity</title>
<path fill="none" stroke="black" d="M4651.4,-360.25C4700.09,-328.04 4806.81,-257.42 4861.43,-221.27"/>
<polygon fill="black" stroke="black" points="4863.64,-224.01 4870.05,-215.57 4859.78,-218.17 4863.64,-224.01"/>
<text text-anchor="middle" x="4646.4" y="-349.05" font-family="Times,serif" font-size="14.00">1</text>
</g>
<!-- wrp.EntityIntenseExplosion -->
<g id="node20" class="node">
<title>wrp.EntityIntenseExplosion</title>
<g id="a_node20"><a xlink:href="wrp.EntityIntenseExplosion.svg" xlink:title="wrp.EntityIntenseExplosion">
<ellipse fill="green" stroke="black" cx="4895.09" cy="-378" rx="140.28" ry="18"/>
<text text-anchor="middle" x="4895.09" y="-374.3" font-family="Times,serif" font-size="14.00">wrp.EntityIntenseExplosion</text>
</a>
</g>
</g>
<!-- wrp.EntityIntenseExplosion&#45;&gt;rwrp.DestroyEntity -->
<g id="edge19" class="edge">
<title>wrp.EntityIntenseExplosion&#45;&gt;rwrp.DestroyEntity</title>
<path fill="none" stroke="black" d="M4895.09,-359.93C4895.09,-328.97 4895.09,-263.3 4895.09,-226.13"/>
<polygon fill="black" stroke="black" points="4898.59,-226.02 4895.09,-216.02 4891.59,-226.02 4898.59,-226.02"/>
<text text-anchor="middle" x="4890.09" y="-348.73" font-family="Times,serif" font-size="14.00">1</text>
</g>
<!-- wrp.EntityMessageBox -->
<g id="node21" class="node">
<title>wrp.EntityMessageBox</title>
<g id="a_node21"><a xlink:href="wrp.EntityMessageBox.svg" xlink:title="wrp.EntityMessageBox">
<ellipse fill="green" stroke="black" cx="5172.09" cy="-378" rx="118.88" ry="18"/>
<text text-anchor="middle" x="5172.09" y="-374.3" font-family="Times,serif" font-size="14.00">wrp.EntityMessageBox</text>
</a>
</g>
</g>
<!-- wrp.EntityMessageBox&#45;&gt;rwrp.DestroyEntity -->
<g id="edge20" class="edge">
<title>wrp.EntityMessageBox&#45;&gt;rwrp.DestroyEntity</title>
<path fill="none" stroke="black" d="M5146.28,-360.41C5096.18,-328.22 4985.74,-257.25 4929.48,-221.1"/>
<polygon fill="black" stroke="black" points="4931.24,-218.07 4920.94,-215.61 4927.46,-223.96 4931.24,-218.07"/>
<text text-anchor="middle" x="5141.28" y="-349.21" font-family="Times,serif" font-size="14.00">1</text>
</g>
<!-- wrp.EntityOlroxDrool -->
<g id="node22" class="node">
<title>wrp.EntityOlroxDrool</title>
<g id="a_node22"><a xlink:href="wrp.EntityOlroxDrool.svg" xlink:title="wrp.EntityOlroxDrool">
<ellipse fill="green" stroke="black" cx="5420.09" cy="-378" rx="111.28" ry="18"/>
<text text-anchor="middle" x="5420.09" y="-374.3" font-family="Times,serif" font-size="14.00">wrp.EntityOlroxDrool</text>
</a>
</g>
</g>
<!-- wrp.EntityOlroxDrool&#45;&gt;rwrp.DestroyEntity -->
<g id="edge21" class="edge">
<title>wrp.EntityOlroxDrool&#45;&gt;rwrp.DestroyEntity</title>
<path fill="none" stroke="black" d="M5374.42,-361.52C5277.87,-328.78 5053.41,-252.68 4949.58,-217.47"/>
<polygon fill="black" stroke="black" points="4950.51,-214.09 4939.91,-214.2 4948.26,-220.72 4950.51,-214.09"/>
<text text-anchor="middle" x="5369.42" y="-350.32" font-family="Times,serif" font-size="14.00">1</text>
</g>
<!-- wrp.EntityPrizeDrop -->
<g id="node23" class="node">
<title>wrp.EntityPrizeDrop</title>
<g id="a_node23"><a xlink:href="wrp.EntityPrizeDrop.svg" xlink:title="wrp.EntityPrizeDrop">
<ellipse fill="green" stroke="black" cx="5656.09" cy="-378" rx="107.48" ry="18"/>
<text text-anchor="middle" x="5656.09" y="-374.3" font-family="Times,serif" font-size="14.00">wrp.EntityPrizeDrop</text>
</a>
</g>
</g>
<!-- wrp.EntityPrizeDrop&#45;&gt;rwrp.DestroyEntity -->
<g id="edge22" class="edge">
<title>wrp.EntityPrizeDrop&#45;&gt;rwrp.DestroyEntity</title>
<path fill="none" stroke="black" d="M5596.38,-363.03C5457.06,-330.45 5111.19,-249.55 4963.6,-215.02"/>
<polygon fill="black" stroke="black" points="4964.28,-211.59 4953.74,-212.72 4962.68,-218.4 4964.28,-211.59"/>
<text text-anchor="middle" x="5591.38" y="-351.83" font-family="Times,serif" font-size="14.00">2</text>
</g>
<!-- wrp.EntityRedDoor -->
<g id="node24" class="node">
<title>wrp.EntityRedDoor</title>
<g id="a_node24"><a xlink:href="wrp.EntityRedDoor.svg" xlink:title="wrp.EntityRedDoor">
<ellipse fill="green" stroke="black" cx="5882.09" cy="-378" rx="100.98" ry="18"/>
<text text-anchor="middle" x="5882.09" y="-374.3" font-family="Times,serif" font-size="14.00">wrp.EntityRedDoor</text>
</a>
</g>
</g>
<!-- wrp.EntityRedDoor&#45;&gt;rwrp.DestroyEntity -->
<g id="edge23" class="edge">
<title>wrp.EntityRedDoor&#45;&gt;rwrp.DestroyEntity</title>
<path fill="none" stroke="black" d="M5813.86,-364.7C5636.58,-332.72 5162.14,-247.16 4973.76,-213.19"/>
<polygon fill="black" stroke="black" points="4974.12,-209.7 4963.66,-211.37 4972.88,-216.59 4974.12,-209.7"/>
<text text-anchor="middle" x="5808.86" y="-353.5" font-family="Times,serif" font-size="14.00">1</text>
</g>
<!-- wrp.EntityRelicOrb -->
<g id="node25" class="node">
<title>wrp.EntityRelicOrb</title>
<g id="a_node25"><a xlink:href="wrp.EntityRelicOrb.svg" xlink:title="wrp.EntityRelicOrb">
<ellipse fill="green" stroke="black" cx="6101.09" cy="-378" rx="100.98" ry="18"/>
<text text-anchor="middle" x="6101.09" y="-374.3" font-family="Times,serif" font-size="14.00">wrp.EntityRelicOrb</text>
</a>
</g>
</g>
<!-- wrp.EntityRelicOrb&#45;&gt;rwrp.DestroyEntity -->
<g id="edge24" class="edge">
<title>wrp.EntityRelicOrb&#45;&gt;rwrp.DestroyEntity</title>
<path fill="none" stroke="black" d="M6028.11,-365.52C6016.08,-363.66 6003.74,-361.76 5992.09,-360 5615.75,-303.04 5166.3,-238.02 4981.21,-211.37"/>
<polygon fill="black" stroke="black" points="4981.66,-207.9 4971.27,-209.94 4980.67,-214.83 4981.66,-207.9"/>
<text text-anchor="middle" x="6023.11" y="-354.32" font-family="Times,serif" font-size="14.00">1</text>
</g>
<!-- wrp.EntitySoulStealOrb -->
<g id="node26" class="node">
<title>wrp.EntitySoulStealOrb</title>
<g id="a_node26"><a xlink:href="wrp.EntitySoulStealOrb.svg" xlink:title="wrp.EntitySoulStealOrb">
<ellipse fill="green" stroke="black" cx="6342.09" cy="-378" rx="122.38" ry="18"/>
<text text-anchor="middle" x="6342.09" y="-374.3" font-family="Times,serif" font-size="14.00">wrp.EntitySoulStealOrb</text>
</a>
</g>
</g>
<!-- wrp.EntitySoulStealOrb&#45;&gt;rwrp.DestroyEntity -->
<g id="edge25" class="edge">
<title>wrp.EntitySoulStealOrb&#45;&gt;rwrp.DestroyEntity</title>
<path fill="none" stroke="black" d="M6254.02,-365.48C6239.68,-363.63 6224.97,-361.75 6211.09,-360 5751.38,-302.05 5200.92,-235.69 4986.69,-209.97"/>
<polygon fill="black" stroke="black" points="4987.09,-206.49 4976.74,-208.78 4986.25,-213.44 4987.09,-206.49"/>
<text text-anchor="middle" x="6249.02" y="-354.28" font-family="Times,serif" font-size="14.00">1</text>
</g>
<!-- wrp.EntityUnkId13 -->
<g id="node27" class="node">
<title>wrp.EntityUnkId13</title>
<g id="a_node27"><a xlink:href="wrp.EntityUnkId13.svg" xlink:title="wrp.EntityUnkId13">
<ellipse fill="green" stroke="black" cx="6583.09" cy="-378" rx="100.98" ry="18"/>
<text text-anchor="middle" x="6583.09" y="-374.3" font-family="Times,serif" font-size="14.00">wrp.EntityUnkId13</text>
</a>
</g>
</g>
<!-- wrp.EntityUnkId13&#45;&gt;rwrp.DestroyEntity -->
<g id="edge26" class="edge">
<title>wrp.EntityUnkId13&#45;&gt;rwrp.DestroyEntity</title>
<path fill="none" stroke="black" d="M6511.28,-365.35C6498.57,-363.45 6485.46,-361.58 6473.09,-360 5915.75,-288.55 5244.37,-228.72 4994.82,-207.37"/>
<polygon fill="black" stroke="black" points="4994.95,-203.87 4984.69,-206.51 4994.36,-210.85 4994.95,-203.87"/>
<text text-anchor="middle" x="6506.28" y="-354.15" font-family="Times,serif" font-size="14.00">1</text>
</g>
<!-- wrp.EntityUnkId14 -->
<g id="node28" class="node">
<title>wrp.EntityUnkId14</title>
<g id="a_node28"><a xlink:href="wrp.EntityUnkId14.svg" xlink:title="wrp.EntityUnkId14">
<ellipse fill="green" stroke="black" cx="6802.09" cy="-378" rx="100.98" ry="18"/>
<text text-anchor="middle" x="6802.09" y="-374.3" font-family="Times,serif" font-size="14.00">wrp.EntityUnkId14</text>
</a>
</g>
</g>
<!-- wrp.EntityUnkId14&#45;&gt;rwrp.DestroyEntity -->
<g id="edge27" class="edge">
<title>wrp.EntityUnkId14&#45;&gt;rwrp.DestroyEntity</title>
<path fill="none" stroke="black" d="M6730.95,-365.22C6718.36,-363.33 6705.35,-361.5 6693.09,-360 6050.5,-281.21 5274.23,-224.74 4998.43,-205.88"/>
<polygon fill="black" stroke="black" points="4998.65,-202.38 4988.43,-205.19 4998.17,-209.37 4998.65,-202.38"/>
<text text-anchor="middle" x="6725.95" y="-354.02" font-family="Times,serif" font-size="14.00">1</text>
</g>
<!-- wrp.EntityUnkId15 -->
<g id="node29" class="node">
<title>wrp.EntityUnkId15</title>
<g id="a_node29"><a xlink:href="wrp.EntityUnkId15.svg" xlink:title="wrp.EntityUnkId15">
<ellipse fill="green" stroke="black" cx="7021.09" cy="-378" rx="100.98" ry="18"/>
<text text-anchor="middle" x="7021.09" y="-374.3" font-family="Times,serif" font-size="14.00">wrp.EntityUnkId15</text>
</a>
</g>
</g>
<!-- wrp.EntityUnkId15&#45;&gt;rwrp.DestroyEntity -->
<g id="edge28" class="edge">
<title>wrp.EntityUnkId15&#45;&gt;rwrp.DestroyEntity</title>
<path fill="none" stroke="black" d="M6950.25,-365.16C6937.57,-363.27 6924.46,-361.46 6912.09,-360 6183.15,-274.19 5300.5,-221.2 5000.62,-204.62"/>
<polygon fill="black" stroke="black" points="5000.8,-201.13 4990.62,-204.07 5000.42,-208.12 5000.8,-201.13"/>
<text text-anchor="middle" x="6945.25" y="-353.96" font-family="Times,serif" font-size="14.00">1</text>
</g>
<!-- wrp.EntityWarpSmallRocks -->
<g id="node30" class="node">
<title>wrp.EntityWarpSmallRocks</title>
<g id="a_node30"><a xlink:href="wrp.EntityWarpSmallRocks.svg" xlink:title="wrp.EntityWarpSmallRocks">
<ellipse fill="green" stroke="black" cx="7278.09" cy="-378" rx="138.38" ry="18"/>
<text text-anchor="middle" x="7278.09" y="-374.3" font-family="Times,serif" font-size="14.00">wrp.EntityWarpSmallRocks</text>
</a>
</g>
</g>
<!-- wrp.EntityWarpSmallRocks&#45;&gt;rwrp.DestroyEntity -->
<g id="edge29" class="edge">
<title>wrp.EntityWarpSmallRocks&#45;&gt;rwrp.DestroyEntity</title>
<path fill="none" stroke="black" d="M7180.9,-365.16C7164.29,-363.31 7147.21,-361.51 7131.09,-360 6311.71,-283.16 5320.4,-223.41 5000.21,-204.95"/>
<polygon fill="black" stroke="black" points="5000.2,-201.44 4990.02,-204.36 4999.8,-208.43 5000.2,-201.44"/>
<text text-anchor="middle" x="7175.9" y="-353.96" font-family="Times,serif" font-size="14.00">1</text>
</g>
<!-- wrp.HitDetection -->
<g id="node31" class="node">
<title>wrp.HitDetection</title>
<g id="a_node31"><a xlink:href="wrp.HitDetection.svg" xlink:title="wrp.HitDetection">
<ellipse fill="green" stroke="black" cx="7525.09" cy="-378" rx="90.98" ry="18"/>
<text text-anchor="middle" x="7525.09" y="-374.3" font-family="Times,serif" font-size="14.00">wrp.HitDetection</text>
</a>
</g>
</g>
<!-- wrp.HitDetection&#45;&gt;rwrp.DestroyEntity -->
<g id="edge30" class="edge">
<title>wrp.HitDetection&#45;&gt;rwrp.DestroyEntity</title>
<path fill="none" stroke="black" d="M7461.22,-365.12C7449.25,-363.18 7436.81,-361.37 7425.09,-360 6492.47,-251.36 5357.27,-211.98 5004.78,-201.87"/>
<polygon fill="black" stroke="black" points="5004.68,-198.37 4994.58,-201.58 5004.48,-205.37 5004.68,-198.37"/>
<text text-anchor="middle" x="7456.22" y="-353.92" font-family="Times,serif" font-size="14.00">1</text>
</g>
<!-- wrp.Update -->
<g id="node32" class="node">
<title>wrp.Update</title>
<g id="a_node32"><a xlink:href="wrp.Update.svg" xlink:title="wrp.Update">
<ellipse fill="green" stroke="black" cx="7700.09" cy="-378" rx="65.79" ry="18"/>
<text text-anchor="middle" x="7700.09" y="-374.3" font-family="Times,serif" font-size="14.00">wrp.Update</text>
</a>
</g>
</g>
<!-- wrp.Update&#45;&gt;rwrp.DestroyEntity -->
<g id="edge31" class="edge">
<title>wrp.Update&#45;&gt;rwrp.DestroyEntity</title>
<path fill="none" stroke="black" d="M7653.5,-365.2C7644.15,-363.18 7634.35,-361.31 7625.09,-360 6615.95,-216.86 5379.51,-200.57 5006.64,-199.04"/>
<polygon fill="black" stroke="black" points="5006.41,-195.54 4996.39,-199 5006.38,-202.54 5006.41,-195.54"/>
<text text-anchor="middle" x="7648.5" y="-354" font-family="Times,serif" font-size="14.00">1</text>
</g>
<!-- wrp.func_8018CDEC -->
<g id="node33" class="node">
<title>wrp.func_8018CDEC</title>
<g id="a_node33"><a xlink:href="wrp.func_8018CDEC.svg" xlink:title="wrp.func_8018CDEC">
<ellipse fill="green" stroke="black" cx="7891.09" cy="-378" rx="107.48" ry="18"/>
<text text-anchor="middle" x="7891.09" y="-374.3" font-family="Times,serif" font-size="14.00">wrp.func_8018CDEC</text>
</a>
</g>
</g>
<!-- wrp.func_8018CDEC&#45;&gt;rwrp.DestroyEntity -->
<g id="edge32" class="edge">
<title>wrp.func_8018CDEC&#45;&gt;rwrp.DestroyEntity</title>
<path fill="none" stroke="black" d="M7816.33,-365.04C7802.64,-363.13 7788.46,-361.35 7775.09,-360 6698.73,-251.26 5388.09,-211.4 5005.07,-201.6"/>
<polygon fill="black" stroke="black" points="5004.91,-198.09 4994.83,-201.34 5004.74,-205.09 5004.91,-198.09"/>
<text text-anchor="middle" x="7811.33" y="-353.84" font-family="Times,serif" font-size="14.00">1</text>
</g>
<!-- wrp.func_8018CFA8 -->
<g id="node34" class="node">
<title>wrp.func_8018CFA8</title>
<g id="a_node34"><a xlink:href="wrp.func_8018CFA8.svg" xlink:title="wrp.func_8018CFA8">
<ellipse fill="green" stroke="black" cx="8120.09" cy="-378" rx="103.98" ry="18"/>
<text text-anchor="middle" x="8120.09" y="-374.3" font-family="Times,serif" font-size="14.00">wrp.func_8018CFA8</text>
</a>
</g>
</g>
<!-- wrp.func_8018CFA8&#45;&gt;rwrp.DestroyEntity -->
<g id="edge33" class="edge">
<title>wrp.func_8018CFA8&#45;&gt;rwrp.DestroyEntity</title>
<path fill="none" stroke="black" d="M8047.58,-365.02C8034.15,-363.11 8020.22,-361.32 8007.09,-360 6836.35,-241.94 5408.6,-208.27 5005.64,-200.82"/>
<polygon fill="black" stroke="black" points="5005.51,-197.32 4995.45,-200.63 5005.38,-204.31 5005.51,-197.32"/>
<text text-anchor="middle" x="8042.58" y="-353.82" font-family="Times,serif" font-size="14.00">1</text>
</g>
<!-- wrp.func_8018CFF8 -->
<g id="node35" class="node">
<title>wrp.func_8018CFF8</title>
<g id="a_node35"><a xlink:href="wrp.func_8018CFF8.svg" xlink:title="wrp.func_8018CFF8">
<ellipse fill="green" stroke="black" cx="8347.09" cy="-378" rx="104.78" ry="18"/>
<text text-anchor="middle" x="8347.09" y="-374.3" font-family="Times,serif" font-size="14.00">wrp.func_8018CFF8</text>
</a>
</g>
</g>
<!-- wrp.func_8018CFF8&#45;&gt;rwrp.DestroyEntity -->
<g id="edge34" class="edge">
<title>wrp.func_8018CFF8&#45;&gt;rwrp.DestroyEntity</title>
<path fill="none" stroke="black" d="M8274.25,-365.03C8260.6,-363.1 8246.43,-361.31 8233.09,-360 6969.83,-235.66 5427.76,-206.26 5006.12,-200.33"/>
<polygon fill="black" stroke="black" points="5006.11,-196.83 4996.06,-200.2 5006.01,-203.83 5006.11,-196.83"/>
<text text-anchor="middle" x="8269.25" y="-353.83" font-family="Times,serif" font-size="14.00">1</text>
</g>
<!-- wrp.func_801903C8 -->
<g id="node36" class="node">
<title>wrp.func_801903C8</title>
<g id="a_node36"><a xlink:href="wrp.func_801903C8.svg" xlink:title="wrp.func_801903C8">
<ellipse fill="green" stroke="black" cx="8574.09" cy="-378" rx="103.98" ry="18"/>
<text text-anchor="middle" x="8574.09" y="-374.3" font-family="Times,serif" font-size="14.00">wrp.func_801903C8</text>
</a>
</g>
</g>
<!-- wrp.func_801903C8&#45;&gt;rwrp.DestroyEntity -->
<g id="edge35" class="edge">
<title>wrp.func_801903C8&#45;&gt;rwrp.DestroyEntity</title>
<path fill="none" stroke="black" d="M8501.89,-364.99C8488.37,-363.07 8474.32,-361.29 8461.09,-360 7104.02,-227.65 5445.6,-203.87 5006.21,-199.8"/>
<polygon fill="black" stroke="black" points="5006.09,-196.3 4996.06,-199.71 5006.02,-203.3 5006.09,-196.3"/>
<text text-anchor="middle" x="8496.89" y="-353.79" font-family="Times,serif" font-size="14.00">1</text>
</g>
<!-- wrp.func_80190494 -->
<g id="node37" class="node">
<title>wrp.func_80190494</title>
<g id="a_node37"><a xlink:href="wrp.func_80190494.svg" xlink:title="wrp.func_80190494">
<ellipse fill="green" stroke="black" cx="8799.09" cy="-378" rx="102.88" ry="18"/>
<text text-anchor="middle" x="8799.09" y="-374.3" font-family="Times,serif" font-size="14.00">wrp.func_80190494</text>
</a>
</g>
</g>
<!-- wrp.func_80190494&#45;&gt;rwrp.DestroyEntity -->
<g id="edge36" class="edge">
<title>wrp.func_80190494&#45;&gt;rwrp.DestroyEntity</title>
<path fill="none" stroke="black" d="M8727.84,-365C8714.34,-363.07 8700.31,-361.28 8687.09,-360 7237.22,-219.6 5463.72,-201.62 5006.67,-199.33"/>
<polygon fill="black" stroke="black" points="5006.46,-195.83 4996.45,-199.28 5006.43,-202.83 5006.46,-195.83"/>
<text text-anchor="middle" x="8722.84" y="-353.8" font-family="Times,serif" font-size="14.00">1</text>
</g>
</g>
</svg>
