<?xml version="1.0" encoding="UTF-8" standalone="no"?>
<!DOCTYPE svg PUBLIC "-//W3C//DTD SVG 1.1//EN"
 "http://www.w3.org/Graphics/SVG/1.1/DTD/svg11.dtd">
<!-- Generated by graphviz version 2.43.0 (0)
 -->
<!-- Title: rwrp.UnkRecursivePrimFunc2 Pages: 1 -->
<svg width="348pt" height="47pt"
 viewBox="0.00 0.00 348.17 47.42" xmlns="http://www.w3.org/2000/svg" xmlns:xlink="http://www.w3.org/1999/xlink">
<g id="graph0" class="graph" transform="scale(1 1) rotate(0) translate(4 43.42)">
<title>rwrp.UnkRecursivePrimFunc2</title>
<polygon fill="white" stroke="transparent" points="-4,4 -4,-43.42 344.17,-43.42 344.17,4 -4,4"/>
<!-- rwrp.UnkRecursivePrimFunc2 -->
<g id="node1" class="node">
<title>rwrp.UnkRecursivePrimFunc2</title>
<g id="a_node1"><a xlink:href="rwrp.UnkRecursivePrimFunc2.svg" xlink:title="rwrp.UnkRecursivePrimFunc2">
<ellipse fill="green" stroke="black" cx="152.09" cy="-18" rx="152.17" ry="18"/>
<text text-anchor="middle" x="152.09" y="-14.3" font-family="Times,serif" font-size="14.00">rwrp.UnkRecursivePrimFunc2</text>
</a>
</g>
</g>
<!-- rwrp.UnkRecursivePrimFunc2&#45;&gt;rwrp.UnkRecursivePrimFunc2 -->
<g id="edge1" class="edge">
<title>rwrp.UnkRecursivePrimFunc2&#45;&gt;rwrp.UnkRecursivePrimFunc2</title>
<path fill="none" stroke="black" d="M302.75,-20.57C314.75,-20.01 322.17,-19.15 322.17,-18 322.17,-17.23 318.82,-16.59 312.98,-16.08"/>
<polygon fill="black" stroke="black" points="312.95,-12.57 302.75,-15.43 312.51,-19.56 312.95,-12.57"/>
<text text-anchor="middle" x="307.75" y="-19.23" font-family="Times,serif" font-size="14.00">1</text>
</g>
<!-- rwrp.UnkRecursivePrimFunc2&#45;&gt;rwrp.UnkRecursivePrimFunc2 -->
<g id="edge2" class="edge">
<title>rwrp.UnkRecursivePrimFunc2&#45;&gt;rwrp.UnkRecursivePrimFunc2</title>
<path fill="none" stroke="black" d="M294.39,-24.42C321.23,-23.64 340.17,-21.5 340.17,-18 340.17,-14.97 325.93,-12.96 304.64,-11.97"/>
<polygon fill="black" stroke="black" points="304.51,-8.46 294.39,-11.58 304.25,-15.45 304.51,-8.46"/>
<text text-anchor="middle" x="289.39" y="-28.22" font-family="Times,serif" font-size="14.00">1</text>
</g>
</g>
</svg>
