<?xml version="1.0" encoding="UTF-8" standalone="no"?>
<!DOCTYPE svg PUBLIC "-//W3C//DTD SVG 1.1//EN"
 "http://www.w3.org/Graphics/SVG/1.1/DTD/svg11.dtd">
<!-- Generated by graphviz version 2.43.0 (0)
 -->
<!-- Title: rwrp.InitRoomEntities Pages: 1 -->
<svg width="1112pt" height="224pt"
 viewBox="0.00 0.00 1111.83 224.00" xmlns="http://www.w3.org/2000/svg" xmlns:xlink="http://www.w3.org/1999/xlink">
<g id="graph0" class="graph" transform="scale(1 1) rotate(0) translate(4 220)">
<title>rwrp.InitRoomEntities</title>
<polygon fill="white" stroke="transparent" points="-4,4 -4,-220 1107.83,-220 1107.83,4 -4,4"/>
<!-- rwrp.InitRoomEntities -->
<g id="node1" class="node">
<title>rwrp.InitRoomEntities</title>
<ellipse fill="green" stroke="black" cx="627.29" cy="-198" rx="115.08" ry="18"/>
<text text-anchor="middle" x="627.29" y="-194.3" font-family="Times,serif" font-size="14.00">rwrp.InitRoomEntities</text>
</g>
<!-- rwrp.CreateEntitiesToTheRight -->
<g id="node2" class="node">
<title>rwrp.CreateEntitiesToTheRight</title>
<g id="a_node2"><a xlink:href="rwrp.CreateEntitiesToTheRight.svg" xlink:title="rwrp.CreateEntitiesToTheRight">
<ellipse fill="green" stroke="black" cx="157.29" cy="-18" rx="157.07" ry="18"/>
<text text-anchor="middle" x="157.29" y="-14.3" font-family="Times,serif" font-size="14.00">rwrp.CreateEntitiesToTheRight</text>
</a>
</g>
</g>
<!-- rwrp.InitRoomEntities&#45;&gt;rwrp.CreateEntitiesToTheRight -->
<g id="edge1" class="edge">
<title>rwrp.InitRoomEntities&#45;&gt;rwrp.CreateEntitiesToTheRight</title>
<path fill="none" stroke="black" d="M585.58,-181.2C499.98,-148.79 304.6,-74.79 210.23,-39.05"/>
<polygon fill="black" stroke="black" points="211.19,-35.67 200.6,-35.4 208.71,-42.22 211.19,-35.67"/>
<text text-anchor="middle" x="195.6" y="-39.2" font-family="Times,serif" font-size="14.00">1</text>
</g>
<!-- rwrp.FindFirstEntityAbove -->
<g id="node3" class="node">
<title>rwrp.FindFirstEntityAbove</title>
<g id="a_node3"><a xlink:href="rwrp.FindFirstEntityAbove.svg" xlink:title="rwrp.FindFirstEntityAbove">
<ellipse fill="green" stroke="black" cx="469.29" cy="-18" rx="136.48" ry="18"/>
<text text-anchor="middle" x="469.29" y="-14.3" font-family="Times,serif" font-size="14.00">rwrp.FindFirstEntityAbove</text>
</a>
</g>
</g>
<!-- rwrp.InitRoomEntities&#45;&gt;rwrp.FindFirstEntityAbove -->
<g id="edge2" class="edge">
<title>rwrp.InitRoomEntities&#45;&gt;rwrp.FindFirstEntityAbove</title>
<path fill="none" stroke="black" d="M612.14,-179.93C584.06,-148.3 523.84,-80.46 491.28,-43.78"/>
<polygon fill="black" stroke="black" points="493.65,-41.17 484.39,-36.02 488.41,-45.82 493.65,-41.17"/>
<text text-anchor="middle" x="479.39" y="-39.82" font-family="Times,serif" font-size="14.00">1</text>
</g>
<!-- rwrp.FindFirstEntityToTheRight -->
<g id="node4" class="node">
<title>rwrp.FindFirstEntityToTheRight</title>
<g id="a_node4"><a xlink:href="rwrp.FindFirstEntityToTheRight.svg" xlink:title="rwrp.FindFirstEntityToTheRight">
<ellipse fill="green" stroke="black" cx="785.29" cy="-18" rx="161.37" ry="18"/>
<text text-anchor="middle" x="785.29" y="-14.3" font-family="Times,serif" font-size="14.00">rwrp.FindFirstEntityToTheRight</text>
</a>
</g>
</g>
<!-- rwrp.InitRoomEntities&#45;&gt;rwrp.FindFirstEntityToTheRight -->
<g id="edge3" class="edge">
<title>rwrp.InitRoomEntities&#45;&gt;rwrp.FindFirstEntityToTheRight</title>
<path fill="none" stroke="black" d="M642.44,-179.93C670.51,-148.3 730.73,-80.46 763.29,-43.78"/>
<polygon fill="black" stroke="black" points="766.16,-45.82 770.18,-36.02 760.93,-41.17 766.16,-45.82"/>
<text text-anchor="middle" x="765.18" y="-39.82" font-family="Times,serif" font-size="14.00">1</text>
</g>
<!-- wrp.Random -->
<g id="node5" class="node">
<title>wrp.Random</title>
<g id="a_node5"><a xlink:href="wrp.Random.svg" xlink:title="wrp.Random">
<ellipse fill="green" stroke="black" cx="1034.29" cy="-18" rx="69.59" ry="18"/>
<text text-anchor="middle" x="1034.29" y="-14.3" font-family="Times,serif" font-size="14.00">wrp.Random</text>
</a>
</g>
</g>
<!-- rwrp.InitRoomEntities&#45;&gt;wrp.Random -->
<g id="edge4" class="edge">
<title>rwrp.InitRoomEntities&#45;&gt;wrp.Random</title>
<path fill="none" stroke="black" d="M664.12,-180.89C739.43,-147.95 910.67,-73.06 991.07,-37.9"/>
<polygon fill="black" stroke="black" points="992.66,-41.03 1000.42,-33.81 989.85,-34.61 992.66,-41.03"/>
<text text-anchor="middle" x="995.42" y="-37.61" font-family="Times,serif" font-size="14.00">1</text>
</g>
</g>
</svg>
