<?xml version="1.0" encoding="UTF-8" standalone="no"?>
<!DOCTYPE svg PUBLIC "-//W3C//DTD SVG 1.1//EN"
 "http://www.w3.org/Graphics/SVG/1.1/DTD/svg11.dtd">
<!-- Generated by graphviz version 2.43.0 (0)
 -->
<!-- Title: rwrp.AnimateEntity Pages: 1 -->
<svg width="2516pt" height="224pt"
 viewBox="0.00 0.00 2515.53 224.00" xmlns="http://www.w3.org/2000/svg" xmlns:xlink="http://www.w3.org/1999/xlink">
<g id="graph0" class="graph" transform="scale(1 1) rotate(0) translate(4 220)">
<title>rwrp.AnimateEntity</title>
<polygon fill="white" stroke="transparent" points="-4,4 -4,-220 2511.53,-220 2511.53,4 -4,4"/>
<!-- rwrp.AnimateEntity -->
<g id="node1" class="node">
<title>rwrp.AnimateEntity</title>
<ellipse fill="green" stroke="black" cx="1356.54" cy="-18" rx="103.18" ry="18"/>
<text text-anchor="middle" x="1356.54" y="-14.3" font-family="Times,serif" font-size="14.00">rwrp.AnimateEntity</text>
</g>
<!-- rwrp.EntityBigRedFireball -->
<g id="node2" class="node">
<title>rwrp.EntityBigRedFireball</title>
<g id="a_node2"><a xlink:href="rwrp.EntityBigRedFireball.svg" xlink:title="rwrp.EntityBigRedFireball">
<ellipse fill="green" stroke="black" cx="134.54" cy="-198" rx="134.58" ry="18"/>
<text text-anchor="middle" x="134.54" y="-194.3" font-family="Times,serif" font-size="14.00">rwrp.EntityBigRedFireball</text>
</a>
</g>
</g>
<!-- rwrp.EntityBigRedFireball&#45;&gt;rwrp.AnimateEntity -->
<g id="edge1" class="edge">
<title>rwrp.EntityBigRedFireball&#45;&gt;rwrp.AnimateEntity</title>
<path fill="none" stroke="black" d="M221.93,-184.27C447.22,-151.45 1045.72,-64.27 1270.03,-31.6"/>
<polygon fill="black" stroke="black" points="1270.71,-35.04 1280.1,-30.13 1269.7,-28.11 1270.71,-35.04"/>
<text text-anchor="middle" x="216.93" y="-173.07" font-family="Times,serif" font-size="14.00">1</text>
</g>
<!-- rwrp.EntityRoomForeground -->
<g id="node3" class="node">
<title>rwrp.EntityRoomForeground</title>
<g id="a_node3"><a xlink:href="rwrp.EntityRoomForeground.svg" xlink:title="rwrp.EntityRoomForeground">
<ellipse fill="green" stroke="black" cx="432.54" cy="-198" rx="145.67" ry="18"/>
<text text-anchor="middle" x="432.54" y="-194.3" font-family="Times,serif" font-size="14.00">rwrp.EntityRoomForeground</text>
</a>
</g>
</g>
<!-- rwrp.EntityRoomForeground&#45;&gt;rwrp.AnimateEntity -->
<g id="edge2" class="edge">
<title>rwrp.EntityRoomForeground&#45;&gt;rwrp.AnimateEntity</title>
<path fill="none" stroke="black" d="M507.76,-182.51C680.83,-149.17 1105.75,-67.31 1280.04,-33.74"/>
<polygon fill="black" stroke="black" points="1280.75,-37.16 1289.91,-31.84 1279.43,-30.29 1280.75,-37.16"/>
<text text-anchor="middle" x="502.76" y="-171.31" font-family="Times,serif" font-size="14.00">1</text>
</g>
<!-- rwrp.EntitySoulStealOrb -->
<g id="node4" class="node">
<title>rwrp.EntitySoulStealOrb</title>
<g id="a_node4"><a xlink:href="rwrp.EntitySoulStealOrb.svg" xlink:title="rwrp.EntitySoulStealOrb">
<ellipse fill="green" stroke="black" cx="722.54" cy="-198" rx="126.98" ry="18"/>
<text text-anchor="middle" x="722.54" y="-194.3" font-family="Times,serif" font-size="14.00">rwrp.EntitySoulStealOrb</text>
</a>
</g>
</g>
<!-- rwrp.EntitySoulStealOrb&#45;&gt;rwrp.AnimateEntity -->
<g id="edge3" class="edge">
<title>rwrp.EntitySoulStealOrb&#45;&gt;rwrp.AnimateEntity</title>
<path fill="none" stroke="black" d="M777.14,-181.67C894.7,-148.66 1171.12,-71.06 1294.81,-36.33"/>
<polygon fill="black" stroke="black" points="1295.84,-39.68 1304.52,-33.6 1293.94,-32.94 1295.84,-39.68"/>
<text text-anchor="middle" x="772.14" y="-170.47" font-family="Times,serif" font-size="14.00">1</text>
</g>
<!-- rwrp.func_80192348 -->
<g id="node5" class="node">
<title>rwrp.func_80192348</title>
<g id="a_node5"><a xlink:href="rwrp.func_80192348.svg" xlink:title="rwrp.func_80192348">
<ellipse fill="green" stroke="black" cx="974.54" cy="-198" rx="107.48" ry="18"/>
<text text-anchor="middle" x="974.54" y="-194.3" font-family="Times,serif" font-size="14.00">rwrp.func_80192348</text>
</a>
</g>
</g>
<!-- rwrp.func_80192348&#45;&gt;rwrp.AnimateEntity -->
<g id="edge4" class="edge">
<title>rwrp.func_80192348&#45;&gt;rwrp.AnimateEntity</title>
<path fill="none" stroke="black" d="M1009.11,-180.89C1078.77,-148.43 1235.88,-75.22 1312.65,-39.45"/>
<polygon fill="black" stroke="black" points="1314.46,-42.47 1322.04,-35.07 1311.5,-36.12 1314.46,-42.47"/>
<text text-anchor="middle" x="1004.11" y="-169.69" font-family="Times,serif" font-size="14.00">1</text>
</g>
<!-- wrp.EntityBigRedFireball -->
<g id="node6" class="node">
<title>wrp.EntityBigRedFireball</title>
<g id="a_node6"><a xlink:href="wrp.EntityBigRedFireball.svg" xlink:title="wrp.EntityBigRedFireball">
<ellipse fill="green" stroke="black" cx="1229.54" cy="-198" rx="129.98" ry="18"/>
<text text-anchor="middle" x="1229.54" y="-194.3" font-family="Times,serif" font-size="14.00">wrp.EntityBigRedFireball</text>
</a>
</g>
</g>
<!-- wrp.EntityBigRedFireball&#45;&gt;rwrp.AnimateEntity -->
<g id="edge5" class="edge">
<title>wrp.EntityBigRedFireball&#45;&gt;rwrp.AnimateEntity</title>
<path fill="none" stroke="black" d="M1241.72,-179.93C1264.19,-148.43 1312.28,-81.03 1338.53,-44.24"/>
<polygon fill="black" stroke="black" points="1341.44,-46.19 1344.4,-36.02 1335.74,-42.12 1341.44,-46.19"/>
<text text-anchor="middle" x="1236.72" y="-168.73" font-family="Times,serif" font-size="14.00">1</text>
</g>
<!-- wrp.EntityBreakable -->
<g id="node7" class="node">
<title>wrp.EntityBreakable</title>
<g id="a_node7"><a xlink:href="wrp.EntityBreakable.svg" xlink:title="wrp.EntityBreakable">
<ellipse fill="green" stroke="black" cx="1484.54" cy="-198" rx="107.48" ry="18"/>
<text text-anchor="middle" x="1484.54" y="-194.3" font-family="Times,serif" font-size="14.00">wrp.EntityBreakable</text>
</a>
</g>
</g>
<!-- wrp.EntityBreakable&#45;&gt;rwrp.AnimateEntity -->
<g id="edge6" class="edge">
<title>wrp.EntityBreakable&#45;&gt;rwrp.AnimateEntity</title>
<path fill="none" stroke="black" d="M1472.26,-179.93C1449.61,-148.43 1401.15,-81.03 1374.69,-44.24"/>
<polygon fill="black" stroke="black" points="1377.45,-42.09 1368.77,-36.02 1371.77,-46.18 1377.45,-42.09"/>
<text text-anchor="middle" x="1467.26" y="-168.73" font-family="Times,serif" font-size="14.00">1</text>
</g>
<!-- wrp.EntityExplosion -->
<g id="node8" class="node">
<title>wrp.EntityExplosion</title>
<g id="a_node8"><a xlink:href="wrp.EntityExplosion.svg" xlink:title="wrp.EntityExplosion">
<ellipse fill="green" stroke="black" cx="1715.54" cy="-198" rx="105.88" ry="18"/>
<text text-anchor="middle" x="1715.54" y="-194.3" font-family="Times,serif" font-size="14.00">wrp.EntityExplosion</text>
</a>
</g>
</g>
<!-- wrp.EntityExplosion&#45;&gt;rwrp.AnimateEntity -->
<g id="edge7" class="edge">
<title>wrp.EntityExplosion&#45;&gt;rwrp.AnimateEntity</title>
<path fill="none" stroke="black" d="M1682.73,-180.73C1617.29,-148.29 1470.67,-75.59 1398.41,-39.76"/>
<polygon fill="black" stroke="black" points="1399.66,-36.47 1389.14,-35.17 1396.55,-42.74 1399.66,-36.47"/>
<text text-anchor="middle" x="1677.73" y="-169.53" font-family="Times,serif" font-size="14.00">1</text>
</g>
<!-- wrp.EntityPrizeDrop -->
<g id="node9" class="node">
<title>wrp.EntityPrizeDrop</title>
<g id="a_node9"><a xlink:href="wrp.EntityPrizeDrop.svg" xlink:title="wrp.EntityPrizeDrop">
<ellipse fill="green" stroke="black" cx="1946.54" cy="-198" rx="107.48" ry="18"/>
<text text-anchor="middle" x="1946.54" y="-194.3" font-family="Times,serif" font-size="14.00">wrp.EntityPrizeDrop</text>
</a>
</g>
</g>
<!-- wrp.EntityPrizeDrop&#45;&gt;rwrp.AnimateEntity -->
<g id="edge8" class="edge">
<title>wrp.EntityPrizeDrop&#45;&gt;rwrp.AnimateEntity</title>
<path fill="none" stroke="black" d="M1896.74,-181.98C1788.49,-149.32 1532.14,-71.98 1415.8,-36.88"/>
<polygon fill="black" stroke="black" points="1416.58,-33.46 1405.99,-33.92 1414.55,-40.16 1416.58,-33.46"/>
<text text-anchor="middle" x="1891.74" y="-170.78" font-family="Times,serif" font-size="14.00">1</text>
</g>
<!-- wrp.func_80186FD0 -->
<g id="node10" class="node">
<title>wrp.func_80186FD0</title>
<g id="a_node10"><a xlink:href="wrp.func_80186FD0.svg" xlink:title="wrp.func_80186FD0">
<ellipse fill="green" stroke="black" cx="2176.54" cy="-198" rx="104.78" ry="18"/>
<text text-anchor="middle" x="2176.54" y="-194.3" font-family="Times,serif" font-size="14.00">wrp.func_80186FD0</text>
</a>
</g>
</g>
<!-- wrp.func_80186FD0&#45;&gt;rwrp.AnimateEntity -->
<g id="edge9" class="edge">
<title>wrp.func_80186FD0&#45;&gt;rwrp.AnimateEntity</title>
<path fill="none" stroke="black" d="M2114.23,-183.47C1964.93,-151.06 1587.35,-69.1 1428.6,-34.64"/>
<polygon fill="black" stroke="black" points="1428.98,-31.14 1418.47,-32.44 1427.5,-37.99 1428.98,-31.14"/>
<text text-anchor="middle" x="2109.23" y="-172.27" font-family="Times,serif" font-size="14.00">1</text>
</g>
<!-- wrp.func_801903C8 -->
<g id="node11" class="node">
<title>wrp.func_801903C8</title>
<g id="a_node11"><a xlink:href="wrp.func_801903C8.svg" xlink:title="wrp.func_801903C8">
<ellipse fill="green" stroke="black" cx="2403.54" cy="-198" rx="103.98" ry="18"/>
<text text-anchor="middle" x="2403.54" y="-194.3" font-family="Times,serif" font-size="14.00">wrp.func_801903C8</text>
</a>
</g>
</g>
<!-- wrp.func_801903C8&#45;&gt;rwrp.AnimateEntity -->
<g id="edge10" class="edge">
<title>wrp.func_801903C8&#45;&gt;rwrp.AnimateEntity</title>
<path fill="none" stroke="black" d="M2331.99,-184.84C2143.89,-152.86 1636.36,-66.57 1437.77,-32.81"/>
<polygon fill="black" stroke="black" points="1438.14,-29.32 1427.7,-31.1 1436.97,-36.22 1438.14,-29.32"/>
<text text-anchor="middle" x="2326.99" y="-173.64" font-family="Times,serif" font-size="14.00">1</text>
</g>
</g>
</svg>
