<?xml version="1.0" encoding="UTF-8" standalone="no"?>
<!DOCTYPE svg PUBLIC "-//W3C//DTD SVG 1.1//EN"
 "http://www.w3.org/Graphics/SVG/1.1/DTD/svg11.dtd">
<!-- Generated by graphviz version 2.43.0 (0)
 -->
<!-- Title: rwrp.DestroyEntity Pages: 1 -->
<svg width="9011pt" height="404pt"
 viewBox="0.00 0.00 9010.73 404.00" xmlns="http://www.w3.org/2000/svg" xmlns:xlink="http://www.w3.org/1999/xlink">
<g id="graph0" class="graph" transform="scale(1 1) rotate(0) translate(4 400)">
<title>rwrp.DestroyEntity</title>
<polygon fill="white" stroke="transparent" points="-4,4 -4,-400 9006.73,-400 9006.73,4 -4,4"/>
<!-- rwrp.DestroyEntity -->
<g id="node1" class="node">
<title>rwrp.DestroyEntity</title>
<ellipse fill="green" stroke="black" cx="4888.09" cy="-198" rx="101.28" ry="18"/>
<text text-anchor="middle" x="4888.09" y="-194.3" font-family="Times,serif" font-size="14.00">rwrp.DestroyEntity</text>
</g>
<!-- dra.FreePrimitives -->
<g id="node2" class="node">
<title>dra.FreePrimitives</title>
<g id="a_node2"><a xlink:href="dra.FreePrimitives.svg" xlink:title="dra.FreePrimitives">
<ellipse fill="green" stroke="black" cx="4888.09" cy="-18" rx="98.58" ry="18"/>
<text text-anchor="middle" x="4888.09" y="-14.3" font-family="Times,serif" font-size="14.00">dra.FreePrimitives</text>
</a>
</g>
</g>
<!-- rwrp.DestroyEntity&#45;&gt;dra.FreePrimitives -->
<g id="edge1" class="edge">
<title>rwrp.DestroyEntity&#45;&gt;dra.FreePrimitives</title>
<path fill="none" stroke="black" d="M4888.09,-179.93C4888.09,-148.97 4888.09,-83.3 4888.09,-46.13"/>
<polygon fill="black" stroke="black" points="4891.59,-46.02 4888.09,-36.02 4884.59,-46.02 4891.59,-46.02"/>
<text text-anchor="middle" x="4883.09" y="-39.82" font-family="Times,serif" font-size="14.00">1</text>
</g>
<!-- rwrp.AllocEntity -->
<g id="node3" class="node">
<title>rwrp.AllocEntity</title>
<g id="a_node3"><a xlink:href="rwrp.AllocEntity.svg" xlink:title="rwrp.AllocEntity">
<ellipse fill="green" stroke="black" cx="87.09" cy="-378" rx="87.18" ry="18"/>
<text text-anchor="middle" x="87.09" y="-374.3" font-family="Times,serif" font-size="14.00">rwrp.AllocEntity</text>
</a>
</g>
</g>
<!-- rwrp.AllocEntity&#45;&gt;rwrp.DestroyEntity -->
<g id="edge2" class="edge">
<title>rwrp.AllocEntity&#45;&gt;rwrp.DestroyEntity</title>
<path fill="none" stroke="black" d="M147.34,-364.99C159.15,-363.02 171.48,-361.22 183.09,-360 1115.89,-261.94 4157.97,-210.3 4777.4,-200.66"/>
<polygon fill="black" stroke="black" points="4777.71,-204.16 4787.66,-200.51 4777.61,-197.16 4777.71,-204.16"/>
<text text-anchor="middle" x="142.34" y="-353.79" font-family="Times,serif" font-size="14.00">1</text>
</g>
<!-- rwrp.CreateEntityFromCurrentEntity -->
<g id="node4" class="node">
<title>rwrp.CreateEntityFromCurrentEntity</title>
<g id="a_node4"><a xlink:href="rwrp.CreateEntityFromCurrentEntity.svg" xlink:title="rwrp.CreateEntityFromCurrentEntity">
<ellipse fill="green" stroke="black" cx="379.09" cy="-378" rx="186.57" ry="18"/>
<text text-anchor="middle" x="379.09" y="-374.3" font-family="Times,serif" font-size="14.00">rwrp.CreateEntityFromCurrentEntity</text>
</a>
</g>
</g>
<!-- rwrp.CreateEntityFromCurrentEntity&#45;&gt;rwrp.DestroyEntity -->
<g id="edge3" class="edge">
<title>rwrp.CreateEntityFromCurrentEntity&#45;&gt;rwrp.DestroyEntity</title>
<path fill="none" stroke="black" d="M507.65,-364.94C530.12,-363.09 553.27,-361.35 575.09,-360 2245.89,-256.42 4285.21,-211.01 4777.41,-201.13"/>
<polygon fill="black" stroke="black" points="4777.77,-204.62 4787.7,-200.92 4777.63,-197.62 4777.77,-204.62"/>
<text text-anchor="middle" x="502.65" y="-353.74" font-family="Times,serif" font-size="14.00">1</text>
</g>
<!-- rwrp.CreateEntityFromEntity -->
<g id="node5" class="node">
<title>rwrp.CreateEntityFromEntity</title>
<g id="a_node5"><a xlink:href="rwrp.CreateEntityFromEntity.svg" xlink:title="rwrp.CreateEntityFromEntity">
<ellipse fill="green" stroke="black" cx="733.09" cy="-378" rx="149.47" ry="18"/>
<text text-anchor="middle" x="733.09" y="-374.3" font-family="Times,serif" font-size="14.00">rwrp.CreateEntityFromEntity</text>
</a>
</g>
</g>
<!-- rwrp.CreateEntityFromEntity&#45;&gt;rwrp.DestroyEntity -->
<g id="edge4" class="edge">
<title>rwrp.CreateEntityFromEntity&#45;&gt;rwrp.DestroyEntity</title>
<path fill="none" stroke="black" d="M836.27,-364.89C854.51,-363.04 873.35,-361.31 891.09,-360 2429.43,-246.39 4307.19,-208.72 4777.38,-200.74"/>
<polygon fill="black" stroke="black" points="4777.62,-204.24 4787.56,-200.57 4777.5,-197.24 4777.62,-204.24"/>
<text text-anchor="middle" x="831.27" y="-353.69" font-family="Times,serif" font-size="14.00">1</text>
</g>
<!-- rwrp.CreateEntityFromLayout -->
<g id="node6" class="node">
<title>rwrp.CreateEntityFromLayout</title>
<g id="a_node6"><a xlink:href="rwrp.CreateEntityFromLayout.svg" xlink:title="rwrp.CreateEntityFromLayout">
<ellipse fill="green" stroke="black" cx="1053.09" cy="-378" rx="152.97" ry="18"/>
<text text-anchor="middle" x="1053.09" y="-374.3" font-family="Times,serif" font-size="14.00">rwrp.CreateEntityFromLayout</text>
</a>
</g>
</g>
<!-- rwrp.CreateEntityFromLayout&#45;&gt;rwrp.DestroyEntity -->
<g id="edge5" class="edge">
<title>rwrp.CreateEntityFromLayout&#45;&gt;rwrp.DestroyEntity</title>
<path fill="none" stroke="black" d="M1158.89,-364.96C1177.59,-363.1 1196.9,-361.35 1215.09,-360 2619.91,-255.6 4332.4,-211.55 4777.97,-201.38"/>
<polygon fill="black" stroke="black" points="4778.34,-204.88 4788.26,-201.15 4778.18,-197.88 4778.34,-204.88"/>
<text text-anchor="middle" x="1153.89" y="-353.76" font-family="Times,serif" font-size="14.00">1</text>
</g>
<!-- rwrp.DestroyEntitiesFromIndex -->
<g id="node7" class="node">
<title>rwrp.DestroyEntitiesFromIndex</title>
<g id="a_node7"><a xlink:href="rwrp.DestroyEntitiesFromIndex.svg" xlink:title="rwrp.DestroyEntitiesFromIndex">
<ellipse fill="green" stroke="black" cx="1384.09" cy="-378" rx="159.77" ry="18"/>
<text text-anchor="middle" x="1384.09" y="-374.3" font-family="Times,serif" font-size="14.00">rwrp.DestroyEntitiesFromIndex</text>
</a>
</g>
</g>
<!-- rwrp.DestroyEntitiesFromIndex&#45;&gt;rwrp.DestroyEntity -->
<g id="edge6" class="edge">
<title>rwrp.DestroyEntitiesFromIndex&#45;&gt;rwrp.DestroyEntity</title>
<path fill="none" stroke="black" d="M1494.93,-365.02C1514.3,-363.16 1534.27,-361.4 1553.09,-360 2819.31,-265.81 4360.27,-214.94 4778.81,-202.21"/>
<polygon fill="black" stroke="black" points="4779.19,-205.7 4789.08,-201.9 4778.98,-198.7 4779.19,-205.7"/>
<text text-anchor="middle" x="1489.93" y="-353.82" font-family="Times,serif" font-size="14.00">1</text>
</g>
<!-- rwrp.EntityEnemyBlood -->
<g id="node8" class="node">
<title>rwrp.EntityEnemyBlood</title>
<g id="a_node8"><a xlink:href="rwrp.EntityEnemyBlood.svg" xlink:title="rwrp.EntityEnemyBlood">
<ellipse fill="green" stroke="black" cx="1685.09" cy="-378" rx="123.48" ry="18"/>
<text text-anchor="middle" x="1685.09" y="-374.3" font-family="Times,serif" font-size="14.00">rwrp.EntityEnemyBlood</text>
</a>
</g>
</g>
<!-- rwrp.EntityEnemyBlood&#45;&gt;rwrp.DestroyEntity -->
<g id="edge7" class="edge">
<title>rwrp.EntityEnemyBlood&#45;&gt;rwrp.DestroyEntity</title>
<path fill="none" stroke="black" d="M1770.91,-364.99C1786.26,-363.12 1802.13,-361.35 1817.09,-360 2972.93,-255.42 4380.1,-212.36 4778.4,-201.75"/>
<polygon fill="black" stroke="black" points="4778.57,-205.24 4788.48,-201.48 4778.39,-198.25 4778.57,-205.24"/>
<text text-anchor="middle" x="1765.91" y="-353.79" font-family="Times,serif" font-size="14.00">1</text>
</g>
<!-- rwrp.EntityExplosionSpawn -->
<g id="node9" class="node">
<title>rwrp.EntityExplosionSpawn</title>
<g id="a_node9"><a xlink:href="rwrp.EntityExplosionSpawn.svg" xlink:title="rwrp.EntityExplosionSpawn">
<ellipse fill="green" stroke="black" cx="1968.09" cy="-378" rx="141.88" ry="18"/>
<text text-anchor="middle" x="1968.09" y="-374.3" font-family="Times,serif" font-size="14.00">rwrp.EntityExplosionSpawn</text>
</a>
</g>
</g>
<!-- rwrp.EntityExplosionSpawn&#45;&gt;rwrp.DestroyEntity -->
<g id="edge8" class="edge">
<title>rwrp.EntityExplosionSpawn&#45;&gt;rwrp.DestroyEntity</title>
<path fill="none" stroke="black" d="M2066.86,-365.03C2083.93,-363.18 2101.51,-361.42 2118.09,-360 3152.61,-271.38 4408.75,-217.86 4779.93,-203.15"/>
<polygon fill="black" stroke="black" points="4780.27,-206.64 4790.13,-202.75 4780,-199.65 4780.27,-206.64"/>
<text text-anchor="middle" x="2061.86" y="-353.83" font-family="Times,serif" font-size="14.00">1</text>
</g>
<!-- rwrp.EntitySoulStealOrb -->
<g id="node10" class="node">
<title>rwrp.EntitySoulStealOrb</title>
<g id="a_node10"><a xlink:href="rwrp.EntitySoulStealOrb.svg" xlink:title="rwrp.EntitySoulStealOrb">
<ellipse fill="green" stroke="black" cx="2254.09" cy="-378" rx="126.98" ry="18"/>
<text text-anchor="middle" x="2254.09" y="-374.3" font-family="Times,serif" font-size="14.00">rwrp.EntitySoulStealOrb</text>
</a>
</g>
</g>
<!-- rwrp.EntitySoulStealOrb&#45;&gt;rwrp.DestroyEntity -->
<g id="edge9" class="edge">
<title>rwrp.EntitySoulStealOrb&#45;&gt;rwrp.DestroyEntity</title>
<path fill="none" stroke="black" d="M2342.89,-365.12C2358.6,-363.24 2374.81,-361.45 2390.09,-360 3313.88,-272.57 4434.43,-218.98 4780.88,-203.61"/>
<polygon fill="black" stroke="black" points="4781.07,-207.1 4790.9,-203.16 4780.76,-200.11 4781.07,-207.1"/>
<text text-anchor="middle" x="2337.89" y="-353.92" font-family="Times,serif" font-size="14.00">1</text>
</g>
<!-- rwrp.ReplaceBreakableWithItemDrop -->
<g id="node11" class="node">
<title>rwrp.ReplaceBreakableWithItemDrop</title>
<g id="a_node11"><a xlink:href="rwrp.ReplaceBreakableWithItemDrop.svg" xlink:title="rwrp.ReplaceBreakableWithItemDrop">
<ellipse fill="green" stroke="black" cx="2585.09" cy="-378" rx="185.77" ry="18"/>
<text text-anchor="middle" x="2585.09" y="-374.3" font-family="Times,serif" font-size="14.00">rwrp.ReplaceBreakableWithItemDrop</text>
</a>
</g>
</g>
<!-- rwrp.ReplaceBreakableWithItemDrop&#45;&gt;rwrp.DestroyEntity -->
<g id="edge10" class="edge">
<title>rwrp.ReplaceBreakableWithItemDrop&#45;&gt;rwrp.DestroyEntity</title>
<path fill="none" stroke="black" d="M2716.98,-365.31C2738.08,-363.49 2759.69,-361.67 2780.09,-360 3550.98,-296.96 4481.13,-228.61 4785.97,-206.41"/>
<polygon fill="black" stroke="black" points="4786.4,-209.89 4796.12,-205.67 4785.89,-202.91 4786.4,-209.89"/>
<text text-anchor="middle" x="2711.98" y="-354.11" font-family="Times,serif" font-size="14.00">1</text>
</g>
<!-- wrp.CollectGold -->
<g id="node12" class="node">
<title>wrp.CollectGold</title>
<g id="a_node12"><a xlink:href="wrp.CollectGold.svg" xlink:title="wrp.CollectGold">
<ellipse fill="green" stroke="black" cx="2874.09" cy="-378" rx="85.29" ry="18"/>
<text text-anchor="middle" x="2874.09" y="-374.3" font-family="Times,serif" font-size="14.00">wrp.CollectGold</text>
</a>
</g>
</g>
<!-- wrp.CollectGold&#45;&gt;rwrp.DestroyEntity -->
<g id="edge11" class="edge">
<title>wrp.CollectGold&#45;&gt;rwrp.DestroyEntity</title>
<path fill="none" stroke="black" d="M2934.39,-365.22C2945.56,-363.28 2957.16,-361.44 2968.09,-360 3656.55,-269.09 4491.05,-219.75 4781.98,-204.34"/>
<polygon fill="black" stroke="black" points="4782.3,-207.83 4792.1,-203.81 4781.93,-200.84 4782.3,-207.83"/>
<text text-anchor="middle" x="2929.39" y="-354.02" font-family="Times,serif" font-size="14.00">1</text>
</g>
<!-- wrp.CollectHeart -->
<g id="node13" class="node">
<title>wrp.CollectHeart</title>
<g id="a_node13"><a xlink:href="wrp.CollectHeart.svg" xlink:title="wrp.CollectHeart">
<ellipse fill="green" stroke="black" cx="3068.09" cy="-378" rx="90.98" ry="18"/>
<text text-anchor="middle" x="3068.09" y="-374.3" font-family="Times,serif" font-size="14.00">wrp.CollectHeart</text>
</a>
</g>
</g>
<!-- wrp.CollectHeart&#45;&gt;rwrp.DestroyEntity -->
<g id="edge12" class="edge">
<title>wrp.CollectHeart&#45;&gt;rwrp.DestroyEntity</title>
<path fill="none" stroke="black" d="M3132.81,-365.27C3144.53,-363.35 3156.66,-361.51 3168.09,-360 3779.1,-279.58 4517.39,-224.53 4784.97,-205.94"/>
<polygon fill="black" stroke="black" points="4785.33,-209.42 4795.06,-205.24 4784.84,-202.44 4785.33,-209.42"/>
<text text-anchor="middle" x="3127.81" y="-354.07" font-family="Times,serif" font-size="14.00">1</text>
</g>
<!-- wrp.CollectHeartVessel -->
<g id="node14" class="node">
<title>wrp.CollectHeartVessel</title>
<g id="a_node14"><a xlink:href="wrp.CollectHeartVessel.svg" xlink:title="wrp.CollectHeartVessel">
<ellipse fill="green" stroke="black" cx="3297.09" cy="-378" rx="120.48" ry="18"/>
<text text-anchor="middle" x="3297.09" y="-374.3" font-family="Times,serif" font-size="14.00">wrp.CollectHeartVessel</text>
</a>
</g>
</g>
<!-- wrp.CollectHeartVessel&#45;&gt;rwrp.DestroyEntity -->
<g id="edge13" class="edge">
<title>wrp.CollectHeartVessel&#45;&gt;rwrp.DestroyEntity</title>
<path fill="none" stroke="black" d="M3383.1,-365.41C3397.45,-363.55 3412.19,-361.68 3426.09,-360 3940.98,-297.73 4559.12,-232.93 4792.58,-208.8"/>
<polygon fill="black" stroke="black" points="4793.15,-212.26 4802.74,-207.76 4792.43,-205.3 4793.15,-212.26"/>
<text text-anchor="middle" x="3378.1" y="-354.21" font-family="Times,serif" font-size="14.00">1</text>
</g>
<!-- wrp.EntityBigRedFireball -->
<g id="node15" class="node">
<title>wrp.EntityBigRedFireball</title>
<g id="a_node15"><a xlink:href="wrp.EntityBigRedFireball.svg" xlink:title="wrp.EntityBigRedFireball">
<ellipse fill="green" stroke="black" cx="3565.09" cy="-378" rx="129.98" ry="18"/>
<text text-anchor="middle" x="3565.09" y="-374.3" font-family="Times,serif" font-size="14.00">wrp.EntityBigRedFireball</text>
</a>
</g>
</g>
<!-- wrp.EntityBigRedFireball&#45;&gt;rwrp.DestroyEntity -->
<g id="edge14" class="edge">
<title>wrp.EntityBigRedFireball&#45;&gt;rwrp.DestroyEntity</title>
<path fill="none" stroke="black" d="M3654.73,-364.94C3896.45,-332.42 4559.66,-243.19 4799.81,-210.88"/>
<polygon fill="black" stroke="black" points="4800.45,-214.32 4809.89,-209.52 4799.51,-207.39 4800.45,-214.32"/>
<text text-anchor="middle" x="3649.73" y="-353.74" font-family="Times,serif" font-size="14.00">1</text>
</g>
<!-- wrp.EntityDamageDisplay -->
<g id="node16" class="node">
<title>wrp.EntityDamageDisplay</title>
<g id="a_node16"><a xlink:href="wrp.EntityDamageDisplay.svg" xlink:title="wrp.EntityDamageDisplay">
<ellipse fill="green" stroke="black" cx="3846.09" cy="-378" rx="133.48" ry="18"/>
<text text-anchor="middle" x="3846.09" y="-374.3" font-family="Times,serif" font-size="14.00">wrp.EntityDamageDisplay</text>
</a>
</g>
</g>
<!-- wrp.EntityDamageDisplay&#45;&gt;rwrp.DestroyEntity -->
<g id="edge15" class="edge">
<title>wrp.EntityDamageDisplay&#45;&gt;rwrp.DestroyEntity</title>
<path fill="none" stroke="black" d="M3925.27,-363.47C4118.65,-330.44 4613.37,-245.93 4807.85,-212.71"/>
<polygon fill="black" stroke="black" points="4808.45,-216.15 4817.72,-211.02 4807.28,-209.25 4808.45,-216.15"/>
<text text-anchor="middle" x="3920.27" y="-352.27" font-family="Times,serif" font-size="14.00">1</text>
</g>
<!-- wrp.EntityEquipItemDrop -->
<g id="node17" class="node">
<title>wrp.EntityEquipItemDrop</title>
<g id="a_node17"><a xlink:href="wrp.EntityEquipItemDrop.svg" xlink:title="wrp.EntityEquipItemDrop">
<ellipse fill="green" stroke="black" cx="4129.09" cy="-378" rx="131.88" ry="18"/>
<text text-anchor="middle" x="4129.09" y="-374.3" font-family="Times,serif" font-size="14.00">wrp.EntityEquipItemDrop</text>
</a>
</g>
</g>
<!-- wrp.EntityEquipItemDrop&#45;&gt;rwrp.DestroyEntity -->
<g id="edge16" class="edge">
<title>wrp.EntityEquipItemDrop&#45;&gt;rwrp.DestroyEntity</title>
<path fill="none" stroke="black" d="M4192.5,-362.13C4333.9,-328.97 4674.05,-249.2 4819.86,-215"/>
<polygon fill="black" stroke="black" points="4820.66,-218.41 4829.59,-212.72 4819.06,-211.59 4820.66,-218.41"/>
<text text-anchor="middle" x="4187.5" y="-350.93" font-family="Times,serif" font-size="14.00">2</text>
</g>
<!-- wrp.EntityExplosion -->
<g id="node18" class="node">
<title>wrp.EntityExplosion</title>
<g id="a_node18"><a xlink:href="wrp.EntityExplosion.svg" xlink:title="wrp.EntityExplosion">
<ellipse fill="green" stroke="black" cx="4385.09" cy="-378" rx="105.88" ry="18"/>
<text text-anchor="middle" x="4385.09" y="-374.3" font-family="Times,serif" font-size="14.00">wrp.EntityExplosion</text>
</a>
</g>
</g>
<!-- wrp.EntityExplosion&#45;&gt;rwrp.DestroyEntity -->
<g id="edge17" class="edge">
<title>wrp.EntityExplosion&#45;&gt;rwrp.DestroyEntity</title>
<path fill="none" stroke="black" d="M4428.85,-361.52C4521.14,-328.85 4735.44,-253.02 4835.22,-217.71"/>
<polygon fill="black" stroke="black" points="4836.53,-220.96 4844.79,-214.32 4834.2,-214.36 4836.53,-220.96"/>
<text text-anchor="middle" x="4423.85" y="-350.32" font-family="Times,serif" font-size="14.00">1</text>
</g>
<!-- wrp.EntityHeartDrop -->
<g id="node19" class="node">
<title>wrp.EntityHeartDrop</title>
<g id="a_node19"><a xlink:href="wrp.EntityHeartDrop.svg" xlink:title="wrp.EntityHeartDrop">
<ellipse fill="green" stroke="black" cx="4619.09" cy="-378" rx="110.48" ry="18"/>
<text text-anchor="middle" x="4619.09" y="-374.3" font-family="Times,serif" font-size="14.00">wrp.EntityHeartDrop</text>
</a>
</g>
</g>
<!-- wrp.EntityHeartDrop&#45;&gt;rwrp.DestroyEntity -->
<g id="edge18" class="edge">
<title>wrp.EntityHeartDrop&#45;&gt;rwrp.DestroyEntity</title>
<path fill="none" stroke="black" d="M4644.4,-360.25C4693.09,-328.04 4799.81,-257.42 4854.43,-221.27"/>
<polygon fill="black" stroke="black" points="4856.64,-224.01 4863.05,-215.57 4852.78,-218.17 4856.64,-224.01"/>
<text text-anchor="middle" x="4639.4" y="-349.05" font-family="Times,serif" font-size="14.00">1</text>
</g>
<!-- wrp.EntityIntenseExplosion -->
<g id="node20" class="node">
<title>wrp.EntityIntenseExplosion</title>
<g id="a_node20"><a xlink:href="wrp.EntityIntenseExplosion.svg" xlink:title="wrp.EntityIntenseExplosion">
<ellipse fill="green" stroke="black" cx="4888.09" cy="-378" rx="140.28" ry="18"/>
<text text-anchor="middle" x="4888.09" y="-374.3" font-family="Times,serif" font-size="14.00">wrp.EntityIntenseExplosion</text>
</a>
</g>
</g>
<!-- wrp.EntityIntenseExplosion&#45;&gt;rwrp.DestroyEntity -->
<g id="edge19" class="edge">
<title>wrp.EntityIntenseExplosion&#45;&gt;rwrp.DestroyEntity</title>
<path fill="none" stroke="black" d="M4888.09,-359.93C4888.09,-328.97 4888.09,-263.3 4888.09,-226.13"/>
<polygon fill="black" stroke="black" points="4891.59,-226.02 4888.09,-216.02 4884.59,-226.02 4891.59,-226.02"/>
<text text-anchor="middle" x="4883.09" y="-348.73" font-family="Times,serif" font-size="14.00">1</text>
</g>
<!-- wrp.EntityMessageBox -->
<g id="node21" class="node">
<title>wrp.EntityMessageBox</title>
<g id="a_node21"><a xlink:href="wrp.EntityMessageBox.svg" xlink:title="wrp.EntityMessageBox">
<ellipse fill="green" stroke="black" cx="5165.09" cy="-378" rx="118.88" ry="18"/>
<text text-anchor="middle" x="5165.09" y="-374.3" font-family="Times,serif" font-size="14.00">wrp.EntityMessageBox</text>
</a>
</g>
</g>
<!-- wrp.EntityMessageBox&#45;&gt;rwrp.DestroyEntity -->
<g id="edge20" class="edge">
<title>wrp.EntityMessageBox&#45;&gt;rwrp.DestroyEntity</title>
<path fill="none" stroke="black" d="M5139.28,-360.41C5089.18,-328.22 4978.74,-257.25 4922.48,-221.1"/>
<polygon fill="black" stroke="black" points="4924.24,-218.07 4913.94,-215.61 4920.46,-223.96 4924.24,-218.07"/>
<text text-anchor="middle" x="5134.28" y="-349.21" font-family="Times,serif" font-size="14.00">1</text>
</g>
<!-- wrp.EntityOlroxDrool -->
<g id="node22" class="node">
<title>wrp.EntityOlroxDrool</title>
<g id="a_node22"><a xlink:href="wrp.EntityOlroxDrool.svg" xlink:title="wrp.EntityOlroxDrool">
<ellipse fill="green" stroke="black" cx="5413.09" cy="-378" rx="111.28" ry="18"/>
<text text-anchor="middle" x="5413.09" y="-374.3" font-family="Times,serif" font-size="14.00">wrp.EntityOlroxDrool</text>
</a>
</g>
</g>
<!-- wrp.EntityOlroxDrool&#45;&gt;rwrp.DestroyEntity -->
<g id="edge21" class="edge">
<title>wrp.EntityOlroxDrool&#45;&gt;rwrp.DestroyEntity</title>
<path fill="none" stroke="black" d="M5367.42,-361.52C5270.87,-328.78 5046.41,-252.68 4942.58,-217.47"/>
<polygon fill="black" stroke="black" points="4943.51,-214.09 4932.91,-214.2 4941.26,-220.72 4943.51,-214.09"/>
<text text-anchor="middle" x="5362.42" y="-350.32" font-family="Times,serif" font-size="14.00">1</text>
</g>
<!-- wrp.EntityPrizeDrop -->
<g id="node23" class="node">
<title>wrp.EntityPrizeDrop</title>
<g id="a_node23"><a xlink:href="wrp.EntityPrizeDrop.svg" xlink:title="wrp.EntityPrizeDrop">
<ellipse fill="green" stroke="black" cx="5649.09" cy="-378" rx="107.48" ry="18"/>
<text text-anchor="middle" x="5649.09" y="-374.3" font-family="Times,serif" font-size="14.00">wrp.EntityPrizeDrop</text>
</a>
</g>
</g>
<!-- wrp.EntityPrizeDrop&#45;&gt;rwrp.DestroyEntity -->
<g id="edge22" class="edge">
<title>wrp.EntityPrizeDrop&#45;&gt;rwrp.DestroyEntity</title>
<path fill="none" stroke="black" d="M5589.38,-363.03C5450.06,-330.45 5104.19,-249.55 4956.6,-215.02"/>
<polygon fill="black" stroke="black" points="4957.28,-211.59 4946.74,-212.72 4955.68,-218.4 4957.28,-211.59"/>
<text text-anchor="middle" x="5584.38" y="-351.83" font-family="Times,serif" font-size="14.00">2</text>
</g>
<!-- wrp.EntityRedDoor -->
<g id="node24" class="node">
<title>wrp.EntityRedDoor</title>
<g id="a_node24"><a xlink:href="wrp.EntityRedDoor.svg" xlink:title="wrp.EntityRedDoor">
<ellipse fill="green" stroke="black" cx="5875.09" cy="-378" rx="100.98" ry="18"/>
<text text-anchor="middle" x="5875.09" y="-374.3" font-family="Times,serif" font-size="14.00">wrp.EntityRedDoor</text>
</a>
</g>
</g>
<!-- wrp.EntityRedDoor&#45;&gt;rwrp.DestroyEntity -->
<g id="edge23" class="edge">
<title>wrp.EntityRedDoor&#45;&gt;rwrp.DestroyEntity</title>
<path fill="none" stroke="black" d="M5806.86,-364.7C5629.58,-332.72 5155.14,-247.16 4966.76,-213.19"/>
<polygon fill="black" stroke="black" points="4967.12,-209.7 4956.66,-211.37 4965.88,-216.59 4967.12,-209.7"/>
<text text-anchor="middle" x="5801.86" y="-353.5" font-family="Times,serif" font-size="14.00">1</text>
</g>
<!-- wrp.EntityRelicOrb -->
<g id="node25" class="node">
<title>wrp.EntityRelicOrb</title>
<g id="a_node25"><a xlink:href="wrp.EntityRelicOrb.svg" xlink:title="wrp.EntityRelicOrb">
<ellipse fill="green" stroke="black" cx="6094.09" cy="-378" rx="100.98" ry="18"/>
<text text-anchor="middle" x="6094.09" y="-374.3" font-family="Times,serif" font-size="14.00">wrp.EntityRelicOrb</text>
</a>
</g>
</g>
<!-- wrp.EntityRelicOrb&#45;&gt;rwrp.DestroyEntity -->
<g id="edge24" class="edge">
<title>wrp.EntityRelicOrb&#45;&gt;rwrp.DestroyEntity</title>
<path fill="none" stroke="black" d="M6021.11,-365.52C6009.08,-363.66 5996.74,-361.76 5985.09,-360 5608.75,-303.04 5159.3,-238.02 4974.21,-211.37"/>
<polygon fill="black" stroke="black" points="4974.66,-207.9 4964.27,-209.94 4973.67,-214.83 4974.66,-207.9"/>
<text text-anchor="middle" x="6016.11" y="-354.32" font-family="Times,serif" font-size="14.00">1</text>
</g>
<!-- wrp.EntityStageNamePopup -->
<g id="node26" class="node">
<title>wrp.EntityStageNamePopup</title>
<g id="a_node26"><a xlink:href="wrp.EntityStageNamePopup.svg" xlink:title="wrp.EntityStageNamePopup">
<ellipse fill="green" stroke="black" cx="6356.09" cy="-378" rx="143.77" ry="18"/>
<text text-anchor="middle" x="6356.09" y="-374.3" font-family="Times,serif" font-size="14.00">wrp.EntityStageNamePopup</text>
</a>
</g>
</g>
<!-- wrp.EntityStageNamePopup&#45;&gt;rwrp.DestroyEntity -->
<g id="edge25" class="edge">
<title>wrp.EntityStageNamePopup&#45;&gt;rwrp.DestroyEntity</title>
<path fill="none" stroke="black" d="M6256.92,-364.97C5986.79,-332.22 5240.75,-241.76 4979.72,-210.11"/>
<polygon fill="black" stroke="black" points="4979.87,-206.6 4969.52,-208.87 4979.02,-213.55 4979.87,-206.6"/>
<text text-anchor="middle" x="6251.92" y="-353.77" font-family="Times,serif" font-size="14.00">1</text>
</g>
<!-- wrp.EntityUnkId13 -->
<g id="node27" class="node">
<title>wrp.EntityUnkId13</title>
<g id="a_node27"><a xlink:href="wrp.EntityUnkId13.svg" xlink:title="wrp.EntityUnkId13">
<ellipse fill="green" stroke="black" cx="6618.09" cy="-378" rx="100.98" ry="18"/>
<text text-anchor="middle" x="6618.09" y="-374.3" font-family="Times,serif" font-size="14.00">wrp.EntityUnkId13</text>
</a>
</g>
</g>
<!-- wrp.EntityUnkId13&#45;&gt;rwrp.DestroyEntity -->
<g id="edge26" class="edge">
<title>wrp.EntityUnkId13&#45;&gt;rwrp.DestroyEntity</title>
<path fill="none" stroke="black" d="M6546.64,-365.27C6534.14,-363.39 6521.25,-361.55 6509.09,-360 5935.35,-286.82 5243.75,-227.81 4988.79,-207.04"/>
<polygon fill="black" stroke="black" points="4989.05,-203.55 4978.8,-206.22 4988.48,-210.52 4989.05,-203.55"/>
<text text-anchor="middle" x="6541.64" y="-354.07" font-family="Times,serif" font-size="14.00">1</text>
</g>
<!-- wrp.EntityUnkId14 -->
<g id="node28" class="node">
<title>wrp.EntityUnkId14</title>
<g id="a_node28"><a xlink:href="wrp.EntityUnkId14.svg" xlink:title="wrp.EntityUnkId14">
<ellipse fill="green" stroke="black" cx="6837.09" cy="-378" rx="100.98" ry="18"/>
<text text-anchor="middle" x="6837.09" y="-374.3" font-family="Times,serif" font-size="14.00">wrp.EntityUnkId14</text>
</a>
</g>
</g>
<!-- wrp.EntityUnkId14&#45;&gt;rwrp.DestroyEntity -->
<g id="edge27" class="edge">
<title>wrp.EntityUnkId14&#45;&gt;rwrp.DestroyEntity</title>
<path fill="none" stroke="black" d="M6765.95,-365.2C6753.36,-363.31 6740.36,-361.49 6728.09,-360 6068.96,-279.86 5272.3,-224.03 4991.83,-205.61"/>
<polygon fill="black" stroke="black" points="4991.88,-202.11 4981.67,-204.95 4991.42,-209.09 4991.88,-202.11"/>
<text text-anchor="middle" x="6760.95" y="-354" font-family="Times,serif" font-size="14.00">1</text>
</g>
<!-- wrp.EntityUnkId15 -->
<g id="node29" class="node">
<title>wrp.EntityUnkId15</title>
<g id="a_node29"><a xlink:href="wrp.EntityUnkId15.svg" xlink:title="wrp.EntityUnkId15">
<ellipse fill="green" stroke="black" cx="7056.09" cy="-378" rx="100.98" ry="18"/>
<text text-anchor="middle" x="7056.09" y="-374.3" font-family="Times,serif" font-size="14.00">wrp.EntityUnkId15</text>
</a>
</g>
</g>
<!-- wrp.EntityUnkId15&#45;&gt;rwrp.DestroyEntity -->
<g id="edge28" class="edge">
<title>wrp.EntityUnkId15&#45;&gt;rwrp.DestroyEntity</title>
<path fill="none" stroke="black" d="M6985.25,-365.15C6972.57,-363.25 6959.46,-361.45 6947.09,-360 6201.67,-272.86 5298.75,-220.59 4994.19,-204.42"/>
<polygon fill="black" stroke="black" points="4994.22,-200.91 4984.05,-203.88 4993.85,-207.9 4994.22,-200.91"/>
<text text-anchor="middle" x="6980.25" y="-353.95" font-family="Times,serif" font-size="14.00">1</text>
</g>
<!-- wrp.EntityWarpSmallRocks -->
<g id="node30" class="node">
<title>wrp.EntityWarpSmallRocks</title>
<g id="a_node30"><a xlink:href="wrp.EntityWarpSmallRocks.svg" xlink:title="wrp.EntityWarpSmallRocks">
<ellipse fill="green" stroke="black" cx="7313.09" cy="-378" rx="138.38" ry="18"/>
<text text-anchor="middle" x="7313.09" y="-374.3" font-family="Times,serif" font-size="14.00">wrp.EntityWarpSmallRocks</text>
</a>
</g>
</g>
<!-- wrp.EntityWarpSmallRocks&#45;&gt;rwrp.DestroyEntity -->
<g id="edge29" class="edge">
<title>wrp.EntityWarpSmallRocks&#45;&gt;rwrp.DestroyEntity</title>
<path fill="none" stroke="black" d="M7215.9,-365.14C7199.29,-363.29 7182.21,-361.5 7166.09,-360 6330.13,-282.16 5318.44,-222.93 4993.76,-204.79"/>
<polygon fill="black" stroke="black" points="4993.61,-201.27 4983.43,-204.21 4993.22,-208.26 4993.61,-201.27"/>
<text text-anchor="middle" x="7210.9" y="-353.94" font-family="Times,serif" font-size="14.00">1</text>
</g>
<!-- wrp.HitDetection -->
<g id="node31" class="node">
<title>wrp.HitDetection</title>
<g id="a_node31"><a xlink:href="wrp.HitDetection.svg" xlink:title="wrp.HitDetection">
<ellipse fill="green" stroke="black" cx="7560.09" cy="-378" rx="90.98" ry="18"/>
<text text-anchor="middle" x="7560.09" y="-374.3" font-family="Times,serif" font-size="14.00">wrp.HitDetection</text>
</a>
</g>
</g>
<!-- wrp.HitDetection&#45;&gt;rwrp.DestroyEntity -->
<g id="edge30" class="edge">
<title>wrp.HitDetection&#45;&gt;rwrp.DestroyEntity</title>
<path fill="none" stroke="black" d="M7496.22,-365.11C7484.25,-363.17 7471.81,-361.36 7460.09,-360 6510.38,-249.86 5354.03,-211.41 4997.78,-201.71"/>
<polygon fill="black" stroke="black" points="4997.82,-198.21 4987.73,-201.44 4997.63,-205.21 4997.82,-198.21"/>
<text text-anchor="middle" x="7491.22" y="-353.91" font-family="Times,serif" font-size="14.00">1</text>
</g>
<!-- wrp.InitializeUnkEntity -->
<g id="node32" class="node">
<title>wrp.InitializeUnkEntity</title>
<g id="a_node32"><a xlink:href="wrp.InitializeUnkEntity.svg" xlink:title="wrp.InitializeUnkEntity">
<ellipse fill="green" stroke="black" cx="7789.09" cy="-378" rx="120.48" ry="18"/>
<text text-anchor="middle" x="7789.09" y="-374.3" font-family="Times,serif" font-size="14.00">wrp.InitializeUnkEntity</text>
</a>
</g>
</g>
<!-- wrp.InitializeUnkEntity&#45;&gt;rwrp.DestroyEntity -->
<g id="edge31" class="edge">
<title>wrp.InitializeUnkEntity&#45;&gt;rwrp.DestroyEntity</title>
<path fill="none" stroke="black" d="M7705.23,-365.05C7690.22,-363.16 7674.71,-361.39 7660.09,-360 6626.27,-261.99 5369.49,-214.92 4997.04,-202.47"/>
<polygon fill="black" stroke="black" points="4996.92,-198.96 4986.81,-202.12 4996.68,-205.96 4996.92,-198.96"/>
<text text-anchor="middle" x="7700.23" y="-353.85" font-family="Times,serif" font-size="14.00">1</text>
</g>
<!-- wrp.MakeEntityFromId -->
<g id="node33" class="node">
<title>wrp.MakeEntityFromId</title>
<g id="a_node33"><a xlink:href="wrp.MakeEntityFromId.svg" xlink:title="wrp.MakeEntityFromId">
<ellipse fill="green" stroke="black" cx="8047.09" cy="-378" rx="120.48" ry="18"/>
<text text-anchor="middle" x="8047.09" y="-374.3" font-family="Times,serif" font-size="14.00">wrp.MakeEntityFromId</text>
</a>
</g>
</g>
<!-- wrp.MakeEntityFromId&#45;&gt;rwrp.DestroyEntity -->
<g id="edge32" class="edge">
<title>wrp.MakeEntityFromId&#45;&gt;rwrp.DestroyEntity</title>
<path fill="none" stroke="black" d="M7963.58,-365.03C7948.46,-363.14 7932.83,-361.36 7918.09,-360 6779.42,-254.88 5393.19,-212.27 4997.97,-201.74"/>
<polygon fill="black" stroke="black" points="4997.78,-198.24 4987.69,-201.47 4997.59,-205.24 4997.78,-198.24"/>
<text text-anchor="middle" x="7958.58" y="-353.83" font-family="Times,serif" font-size="14.00">1</text>
</g>
<!-- wrp.Update -->
<g id="node34" class="node">
<title>wrp.Update</title>
<g id="a_node34"><a xlink:href="wrp.Update.svg" xlink:title="wrp.Update">
<ellipse fill="green" stroke="black" cx="8251.09" cy="-378" rx="65.79" ry="18"/>
<text text-anchor="middle" x="8251.09" y="-374.3" font-family="Times,serif" font-size="14.00">wrp.Update</text>
</a>
</g>
</g>
<!-- wrp.Update&#45;&gt;rwrp.DestroyEntity -->
<g id="edge33" class="edge">
<title>wrp.Update&#45;&gt;rwrp.DestroyEntity</title>
<path fill="none" stroke="black" d="M8204.51,-365.12C8195.16,-363.11 8185.35,-361.27 8176.09,-360 7541.13,-273.17 5495.26,-214.91 4997.85,-201.81"/>
<polygon fill="black" stroke="black" points="4997.89,-198.31 4987.8,-201.54 4997.7,-205.3 4997.89,-198.31"/>
<text text-anchor="middle" x="8199.51" y="-353.92" font-family="Times,serif" font-size="14.00">1</text>
</g>
<!-- wrp.func_8018CDEC -->
<g id="node35" class="node">
<title>wrp.func_8018CDEC</title>
<g id="a_node35"><a xlink:href="wrp.func_8018CDEC.svg" xlink:title="wrp.func_8018CDEC">
<ellipse fill="green" stroke="black" cx="8442.09" cy="-378" rx="107.48" ry="18"/>
<text text-anchor="middle" x="8442.09" y="-374.3" font-family="Times,serif" font-size="14.00">wrp.func_8018CDEC</text>
</a>
</g>
</g>
<!-- wrp.func_8018CDEC&#45;&gt;rwrp.DestroyEntity -->
<g id="edge34" class="edge">
<title>wrp.func_8018CDEC&#45;&gt;rwrp.DestroyEntity</title>
<path fill="none" stroke="black" d="M8367.66,-364.98C8353.87,-363.07 8339.57,-361.3 8326.09,-360 7021.51,-234.17 5428.57,-205.77 4999.13,-200.22"/>
<polygon fill="black" stroke="black" points="4998.94,-196.72 4988.9,-200.09 4998.85,-203.71 4998.94,-196.72"/>
<text text-anchor="middle" x="8362.66" y="-353.78" font-family="Times,serif" font-size="14.00">1</text>
</g>
<!-- wrp.func_8018CFA8 -->
<g id="node36" class="node">
<title>wrp.func_8018CFA8</title>
<g id="a_node36"><a xlink:href="wrp.func_8018CFA8.svg" xlink:title="wrp.func_8018CFA8">
<ellipse fill="green" stroke="black" cx="8671.09" cy="-378" rx="103.98" ry="18"/>
<text text-anchor="middle" x="8671.09" y="-374.3" font-family="Times,serif" font-size="14.00">wrp.func_8018CFA8</text>
</a>
</g>
</g>
<!-- wrp.func_8018CFA8&#45;&gt;rwrp.DestroyEntity -->
<g id="edge35" class="edge">
<title>wrp.func_8018CFA8&#45;&gt;rwrp.DestroyEntity</title>
<path fill="none" stroke="black" d="M8598.89,-364.98C8585.37,-363.06 8571.32,-361.28 8558.09,-360 7158.34,-224.39 5447.08,-202.94 4999.45,-199.61"/>
<polygon fill="black" stroke="black" points="4999.46,-196.11 4989.44,-199.53 4999.41,-203.11 4999.46,-196.11"/>
<text text-anchor="middle" x="8593.89" y="-353.78" font-family="Times,serif" font-size="14.00">1</text>
</g>
<!-- wrp.func_8018CFF8 -->
<g id="node37" class="node">
<title>wrp.func_8018CFF8</title>
<g id="a_node37"><a xlink:href="wrp.func_8018CFF8.svg" xlink:title="wrp.func_8018CFF8">
<ellipse fill="green" stroke="black" cx="8898.09" cy="-378" rx="104.78" ry="18"/>
<text text-anchor="middle" x="8898.09" y="-374.3" font-family="Times,serif" font-size="14.00">wrp.func_8018CFF8</text>
</a>
</g>
</g>
<!-- wrp.func_8018CFF8&#45;&gt;rwrp.DestroyEntity -->
<g id="edge36" class="edge">
<title>wrp.func_8018CFF8&#45;&gt;rwrp.DestroyEntity</title>
<path fill="none" stroke="black" d="M8825.56,-365C8811.82,-363.06 8797.54,-361.28 8784.09,-360 7290.97,-218.23 5464.21,-201.26 4999.63,-199.26"/>
<polygon fill="black" stroke="black" points="4999.58,-195.76 4989.57,-199.22 4999.55,-202.76 4999.58,-195.76"/>
<text text-anchor="middle" x="8820.56" y="-353.8" font-family="Times,serif" font-size="14.00">1</text>
</g>
</g>
</svg>
