<?xml version="1.0" encoding="UTF-8" standalone="no"?>
<!DOCTYPE svg PUBLIC "-//W3C//DTD SVG 1.1//EN"
 "http://www.w3.org/Graphics/SVG/1.1/DTD/svg11.dtd">
<!-- Generated by graphviz version 2.43.0 (0)
 -->
<!-- Title: rwrp.FallEntity Pages: 1 -->
<svg width="1661pt" height="224pt"
 viewBox="0.00 0.00 1660.83 224.00" xmlns="http://www.w3.org/2000/svg" xmlns:xlink="http://www.w3.org/1999/xlink">
<g id="graph0" class="graph" transform="scale(1 1) rotate(0) translate(4 220)">
<title>rwrp.FallEntity</title>
<polygon fill="white" stroke="transparent" points="-4,4 -4,-220 1656.83,-220 1656.83,4 -4,4"/>
<!-- rwrp.FallEntity -->
<g id="node1" class="node">
<title>rwrp.FallEntity</title>
<ellipse fill="green" stroke="black" cx="862.54" cy="-18" rx="81.79" ry="18"/>
<text text-anchor="middle" x="862.54" y="-14.3" font-family="Times,serif" font-size="14.00">rwrp.FallEntity</text>
</g>
<!-- rwrp.func_8018D990 -->
<g id="node2" class="node">
<title>rwrp.func_8018D990</title>
<g id="a_node2"><a xlink:href="rwrp.func_8018D990.svg" xlink:title="rwrp.func_8018D990">
<ellipse fill="green" stroke="black" cx="108.54" cy="-198" rx="108.58" ry="18"/>
<text text-anchor="middle" x="108.54" y="-194.3" font-family="Times,serif" font-size="14.00">rwrp.func_8018D990</text>
</a>
</g>
</g>
<!-- rwrp.func_8018D990&#45;&gt;rwrp.FallEntity -->
<g id="edge1" class="edge">
<title>rwrp.func_8018D990&#45;&gt;rwrp.FallEntity</title>
<path fill="none" stroke="black" d="M168.34,-182.88C308.14,-149.88 655.36,-67.91 798.89,-34.03"/>
<polygon fill="black" stroke="black" points="799.94,-37.37 808.87,-31.67 798.33,-30.56 799.94,-37.37"/>
<text text-anchor="middle" x="163.34" y="-171.68" font-family="Times,serif" font-size="14.00">1</text>
</g>
<!-- rwrp.func_80191BCC -->
<g id="node3" class="node">
<title>rwrp.func_80191BCC</title>
<g id="a_node3"><a xlink:href="rwrp.func_80191BCC.svg" xlink:title="rwrp.func_80191BCC">
<ellipse fill="green" stroke="black" cx="345.54" cy="-198" rx="110.48" ry="18"/>
<text text-anchor="middle" x="345.54" y="-194.3" font-family="Times,serif" font-size="14.00">rwrp.func_80191BCC</text>
</a>
</g>
</g>
<!-- rwrp.func_80191BCC&#45;&gt;rwrp.FallEntity -->
<g id="edge2" class="edge">
<title>rwrp.func_80191BCC&#45;&gt;rwrp.FallEntity</title>
<path fill="none" stroke="black" d="M390.52,-181.52C486.09,-148.61 708.96,-71.88 810.49,-36.92"/>
<polygon fill="black" stroke="black" points="811.9,-40.14 820.21,-33.57 809.62,-33.52 811.9,-40.14"/>
<text text-anchor="middle" x="385.52" y="-170.32" font-family="Times,serif" font-size="14.00">1</text>
</g>
<!-- wrp.EntityEquipItemDrop -->
<g id="node4" class="node">
<title>wrp.EntityEquipItemDrop</title>
<g id="a_node4"><a xlink:href="wrp.EntityEquipItemDrop.svg" xlink:title="wrp.EntityEquipItemDrop">
<ellipse fill="green" stroke="black" cx="605.54" cy="-198" rx="131.88" ry="18"/>
<text text-anchor="middle" x="605.54" y="-194.3" font-family="Times,serif" font-size="14.00">wrp.EntityEquipItemDrop</text>
</a>
</g>
</g>
<!-- wrp.EntityEquipItemDrop&#45;&gt;rwrp.FallEntity -->
<g id="edge3" class="edge">
<title>wrp.EntityEquipItemDrop&#45;&gt;rwrp.FallEntity</title>
<path fill="none" stroke="black" d="M629.72,-180.25C676.26,-148.02 778.29,-77.35 830.45,-41.22"/>
<polygon fill="black" stroke="black" points="832.76,-43.89 838.99,-35.31 828.77,-38.13 832.76,-43.89"/>
<text text-anchor="middle" x="624.72" y="-169.05" font-family="Times,serif" font-size="14.00">1</text>
</g>
<!-- wrp.EntityPrizeDrop -->
<g id="node5" class="node">
<title>wrp.EntityPrizeDrop</title>
<g id="a_node5"><a xlink:href="wrp.EntityPrizeDrop.svg" xlink:title="wrp.EntityPrizeDrop">
<ellipse fill="green" stroke="black" cx="862.54" cy="-198" rx="107.48" ry="18"/>
<text text-anchor="middle" x="862.54" y="-194.3" font-family="Times,serif" font-size="14.00">wrp.EntityPrizeDrop</text>
</a>
</g>
</g>
<!-- wrp.EntityPrizeDrop&#45;&gt;rwrp.FallEntity -->
<g id="edge4" class="edge">
<title>wrp.EntityPrizeDrop&#45;&gt;rwrp.FallEntity</title>
<path fill="none" stroke="black" d="M862.54,-179.93C862.54,-148.97 862.54,-83.3 862.54,-46.13"/>
<polygon fill="black" stroke="black" points="866.04,-46.02 862.54,-36.02 859.04,-46.02 866.04,-46.02"/>
<text text-anchor="middle" x="857.54" y="-168.73" font-family="Times,serif" font-size="14.00">2</text>
</g>
<!-- wrp.func_8018BA10 -->
<g id="node6" class="node">
<title>wrp.func_8018BA10</title>
<g id="a_node6"><a xlink:href="wrp.func_8018BA10.svg" xlink:title="wrp.func_8018BA10">
<ellipse fill="green" stroke="black" cx="1092.54" cy="-198" rx="104.78" ry="18"/>
<text text-anchor="middle" x="1092.54" y="-194.3" font-family="Times,serif" font-size="14.00">wrp.func_8018BA10</text>
</a>
</g>
</g>
<!-- wrp.func_8018BA10&#45;&gt;rwrp.FallEntity -->
<g id="edge5" class="edge">
<title>wrp.func_8018BA10&#45;&gt;rwrp.FallEntity</title>
<path fill="none" stroke="black" d="M1070.9,-180.25C1029.44,-148.17 938.78,-78 891.9,-41.72"/>
<polygon fill="black" stroke="black" points="894,-38.92 883.95,-35.57 889.72,-44.46 894,-38.92"/>
<text text-anchor="middle" x="1065.9" y="-169.05" font-family="Times,serif" font-size="14.00">1</text>
</g>
<!-- wrp.func_8018CB34 -->
<g id="node7" class="node">
<title>wrp.func_8018CB34</title>
<g id="a_node7"><a xlink:href="wrp.func_8018CB34.svg" xlink:title="wrp.func_8018CB34">
<ellipse fill="green" stroke="black" cx="1319.54" cy="-198" rx="104.78" ry="18"/>
<text text-anchor="middle" x="1319.54" y="-194.3" font-family="Times,serif" font-size="14.00">wrp.func_8018CB34</text>
</a>
</g>
</g>
<!-- wrp.func_8018CB34&#45;&gt;rwrp.FallEntity -->
<g id="edge6" class="edge">
<title>wrp.func_8018CB34&#45;&gt;rwrp.FallEntity</title>
<path fill="none" stroke="black" d="M1279.39,-181.36C1195.22,-148.58 1000.66,-72.8 910.28,-37.59"/>
<polygon fill="black" stroke="black" points="911.41,-34.28 900.83,-33.91 908.87,-40.8 911.41,-34.28"/>
<text text-anchor="middle" x="1274.39" y="-170.16" font-family="Times,serif" font-size="14.00">1</text>
</g>
<!-- wrp.func_8018FC4C -->
<g id="node8" class="node">
<title>wrp.func_8018FC4C</title>
<g id="a_node8"><a xlink:href="wrp.func_8018FC4C.svg" xlink:title="wrp.func_8018FC4C">
<ellipse fill="green" stroke="black" cx="1547.54" cy="-198" rx="105.08" ry="18"/>
<text text-anchor="middle" x="1547.54" y="-194.3" font-family="Times,serif" font-size="14.00">wrp.func_8018FC4C</text>
</a>
</g>
</g>
<!-- wrp.func_8018FC4C&#45;&gt;rwrp.FallEntity -->
<g id="edge7" class="edge">
<title>wrp.func_8018FC4C&#45;&gt;rwrp.FallEntity</title>
<path fill="none" stroke="black" d="M1492.35,-182.66C1365.75,-149.76 1055.22,-69.07 923.36,-34.8"/>
<polygon fill="black" stroke="black" points="923.98,-31.35 913.42,-32.22 922.22,-38.12 923.98,-31.35"/>
<text text-anchor="middle" x="1487.35" y="-171.46" font-family="Times,serif" font-size="14.00">1</text>
</g>
</g>
</svg>
