<?xml version="1.0" encoding="UTF-8" standalone="no"?>
<!DOCTYPE svg PUBLIC "-//W3C//DTD SVG 1.1//EN"
 "http://www.w3.org/Graphics/SVG/1.1/DTD/svg11.dtd">
<!-- Generated by graphviz version 2.43.0 (0)
 -->
<!-- Title: rwrp.InitializeEntity Pages: 1 -->
<svg width="7767pt" height="224pt"
 viewBox="0.00 0.00 7767.18 224.00" xmlns="http://www.w3.org/2000/svg" xmlns:xlink="http://www.w3.org/1999/xlink">
<g id="graph0" class="graph" transform="scale(1 1) rotate(0) translate(4 220)">
<title>rwrp.InitializeEntity</title>
<polygon fill="white" stroke="transparent" points="-4,4 -4,-220 7763.18,-220 7763.18,4 -4,4"/>
<!-- rwrp.InitializeEntity -->
<g id="node1" class="node">
<title>rwrp.InitializeEntity</title>
<ellipse fill="green" stroke="black" cx="4029.54" cy="-18" rx="105.08" ry="18"/>
<text text-anchor="middle" x="4029.54" y="-14.3" font-family="Times,serif" font-size="14.00">rwrp.InitializeEntity</text>
</g>
<!-- rwrp.EntityBigRedFireball -->
<g id="node2" class="node">
<title>rwrp.EntityBigRedFireball</title>
<g id="a_node2"><a xlink:href="rwrp.EntityBigRedFireball.svg" xlink:title="rwrp.EntityBigRedFireball">
<ellipse fill="green" stroke="black" cx="134.54" cy="-198" rx="134.58" ry="18"/>
<text text-anchor="middle" x="134.54" y="-194.3" font-family="Times,serif" font-size="14.00">rwrp.EntityBigRedFireball</text>
</a>
</g>
</g>
<!-- rwrp.EntityBigRedFireball&#45;&gt;rwrp.InitializeEntity -->
<g id="edge1" class="edge">
<title>rwrp.EntityBigRedFireball&#45;&gt;rwrp.InitializeEntity</title>
<path fill="none" stroke="black" d="M227.78,-184.96C244.65,-183.08 262.1,-181.32 278.54,-180 1710.4,-64.91 3456.81,-28.66 3915.06,-20.8"/>
<polygon fill="black" stroke="black" points="3915.38,-24.29 3925.32,-20.62 3915.26,-17.3 3915.38,-24.29"/>
<text text-anchor="middle" x="222.78" y="-173.76" font-family="Times,serif" font-size="14.00">1</text>
</g>
<!-- rwrp.EntityEnemyBlood -->
<g id="node3" class="node">
<title>rwrp.EntityEnemyBlood</title>
<g id="a_node3"><a xlink:href="rwrp.EntityEnemyBlood.svg" xlink:title="rwrp.EntityEnemyBlood">
<ellipse fill="green" stroke="black" cx="410.54" cy="-198" rx="123.48" ry="18"/>
<text text-anchor="middle" x="410.54" y="-194.3" font-family="Times,serif" font-size="14.00">rwrp.EntityEnemyBlood</text>
</a>
</g>
</g>
<!-- rwrp.EntityEnemyBlood&#45;&gt;rwrp.InitializeEntity -->
<g id="edge2" class="edge">
<title>rwrp.EntityEnemyBlood&#45;&gt;rwrp.InitializeEntity</title>
<path fill="none" stroke="black" d="M495.99,-184.96C511.46,-183.07 527.46,-181.32 542.54,-180 1864.86,-64.52 3476.98,-28.79 3915.08,-20.88"/>
<polygon fill="black" stroke="black" points="3915.27,-24.38 3925.21,-20.7 3915.15,-17.38 3915.27,-24.38"/>
<text text-anchor="middle" x="490.99" y="-173.76" font-family="Times,serif" font-size="14.00">1</text>
</g>
<!-- rwrp.EntityIntenseExplosion -->
<g id="node4" class="node">
<title>rwrp.EntityIntenseExplosion</title>
<g id="a_node4"><a xlink:href="rwrp.EntityIntenseExplosion.svg" xlink:title="rwrp.EntityIntenseExplosion">
<ellipse fill="green" stroke="black" cx="696.54" cy="-198" rx="144.87" ry="18"/>
<text text-anchor="middle" x="696.54" y="-194.3" font-family="Times,serif" font-size="14.00">rwrp.EntityIntenseExplosion</text>
</a>
</g>
</g>
<!-- rwrp.EntityIntenseExplosion&#45;&gt;rwrp.InitializeEntity -->
<g id="edge3" class="edge">
<title>rwrp.EntityIntenseExplosion&#45;&gt;rwrp.InitializeEntity</title>
<path fill="none" stroke="black" d="M797.11,-185.03C814.89,-183.16 833.24,-181.39 850.54,-180 2048.57,-83.62 3505.51,-34.8 3916.71,-22.29"/>
<polygon fill="black" stroke="black" points="3916.93,-25.79 3926.81,-21.98 3916.71,-18.79 3916.93,-25.79"/>
<text text-anchor="middle" x="792.11" y="-173.83" font-family="Times,serif" font-size="14.00">1</text>
</g>
<!-- rwrp.EntityMessageBox -->
<g id="node5" class="node">
<title>rwrp.EntityMessageBox</title>
<g id="a_node5"><a xlink:href="rwrp.EntityMessageBox.svg" xlink:title="rwrp.EntityMessageBox">
<ellipse fill="green" stroke="black" cx="982.54" cy="-198" rx="123.48" ry="18"/>
<text text-anchor="middle" x="982.54" y="-194.3" font-family="Times,serif" font-size="14.00">rwrp.EntityMessageBox</text>
</a>
</g>
</g>
<!-- rwrp.EntityMessageBox&#45;&gt;rwrp.InitializeEntity -->
<g id="edge4" class="edge">
<title>rwrp.EntityMessageBox&#45;&gt;rwrp.InitializeEntity</title>
<path fill="none" stroke="black" d="M1068.35,-185.03C1083.71,-183.15 1099.58,-181.37 1114.54,-180 2203.28,-79.96 3526.92,-34.2 3916.57,-22.27"/>
<polygon fill="black" stroke="black" points="3916.83,-25.77 3926.72,-21.96 3916.61,-18.77 3916.83,-25.77"/>
<text text-anchor="middle" x="1063.35" y="-173.83" font-family="Times,serif" font-size="14.00">1</text>
</g>
<!-- rwrp.EntityOlroxDrool -->
<g id="node6" class="node">
<title>rwrp.EntityOlroxDrool</title>
<g id="a_node6"><a xlink:href="rwrp.EntityOlroxDrool.svg" xlink:title="rwrp.EntityOlroxDrool">
<ellipse fill="green" stroke="black" cx="1239.54" cy="-198" rx="115.88" ry="18"/>
<text text-anchor="middle" x="1239.54" y="-194.3" font-family="Times,serif" font-size="14.00">rwrp.EntityOlroxDrool</text>
</a>
</g>
</g>
<!-- rwrp.EntityOlroxDrool&#45;&gt;rwrp.InitializeEntity -->
<g id="edge5" class="edge">
<title>rwrp.EntityOlroxDrool&#45;&gt;rwrp.InitializeEntity</title>
<path fill="none" stroke="black" d="M1320.46,-185.1C1335.11,-183.2 1350.26,-181.4 1364.54,-180 2351.43,-83.22 3550,-35.76 3917.25,-22.77"/>
<polygon fill="black" stroke="black" points="3917.48,-26.27 3927.35,-22.42 3917.23,-19.27 3917.48,-26.27"/>
<text text-anchor="middle" x="1315.46" y="-173.9" font-family="Times,serif" font-size="14.00">1</text>
</g>
<!-- rwrp.EntityRWarpRoom -->
<g id="node7" class="node">
<title>rwrp.EntityRWarpRoom</title>
<g id="a_node7"><a xlink:href="rwrp.EntityRWarpRoom.svg" xlink:title="rwrp.EntityRWarpRoom">
<ellipse fill="green" stroke="black" cx="1495.54" cy="-198" rx="122.38" ry="18"/>
<text text-anchor="middle" x="1495.54" y="-194.3" font-family="Times,serif" font-size="14.00">rwrp.EntityRWarpRoom</text>
</a>
</g>
</g>
<!-- rwrp.EntityRWarpRoom&#45;&gt;rwrp.InitializeEntity -->
<g id="edge6" class="edge">
<title>rwrp.EntityRWarpRoom&#45;&gt;rwrp.InitializeEntity</title>
<path fill="none" stroke="black" d="M1581.07,-185.12C1596.2,-183.24 1611.82,-181.45 1626.54,-180 2508.63,-93.3 3577.55,-39.79 3919.07,-23.95"/>
<polygon fill="black" stroke="black" points="3919.38,-27.44 3929.21,-23.48 3919.05,-20.45 3919.38,-27.44"/>
<text text-anchor="middle" x="1576.07" y="-173.92" font-family="Times,serif" font-size="14.00">1</text>
</g>
<!-- rwrp.EntityRelicOrb -->
<g id="node8" class="node">
<title>rwrp.EntityRelicOrb</title>
<g id="a_node8"><a xlink:href="rwrp.EntityRelicOrb.svg" xlink:title="rwrp.EntityRelicOrb">
<ellipse fill="green" stroke="black" cx="1740.54" cy="-198" rx="105.08" ry="18"/>
<text text-anchor="middle" x="1740.54" y="-194.3" font-family="Times,serif" font-size="14.00">rwrp.EntityRelicOrb</text>
</a>
</g>
</g>
<!-- rwrp.EntityRelicOrb&#45;&gt;rwrp.InitializeEntity -->
<g id="edge7" class="edge">
<title>rwrp.EntityRelicOrb&#45;&gt;rwrp.InitializeEntity</title>
<path fill="none" stroke="black" d="M1814.63,-185.14C1827.9,-183.25 1841.61,-181.44 1854.54,-180 2643.74,-92.07 3599.59,-40.16 3919.38,-24.26"/>
<polygon fill="black" stroke="black" points="3919.76,-27.75 3929.57,-23.76 3919.41,-20.76 3919.76,-27.75"/>
<text text-anchor="middle" x="1809.63" y="-173.94" font-family="Times,serif" font-size="14.00">1</text>
</g>
<!-- rwrp.EntitySoulStealOrb -->
<g id="node9" class="node">
<title>rwrp.EntitySoulStealOrb</title>
<g id="a_node9"><a xlink:href="rwrp.EntitySoulStealOrb.svg" xlink:title="rwrp.EntitySoulStealOrb">
<ellipse fill="green" stroke="black" cx="1990.54" cy="-198" rx="126.98" ry="18"/>
<text text-anchor="middle" x="1990.54" y="-194.3" font-family="Times,serif" font-size="14.00">rwrp.EntitySoulStealOrb</text>
</a>
</g>
</g>
<!-- rwrp.EntitySoulStealOrb&#45;&gt;rwrp.InitializeEntity -->
<g id="edge8" class="edge">
<title>rwrp.EntitySoulStealOrb&#45;&gt;rwrp.InitializeEntity</title>
<path fill="none" stroke="black" d="M2080.16,-185.19C2095.29,-183.35 2110.85,-181.54 2125.54,-180 2809.83,-108.01 3635.16,-46.99 3923.78,-26.42"/>
<polygon fill="black" stroke="black" points="3924.09,-29.9 3933.81,-25.7 3923.59,-22.92 3924.09,-29.9"/>
<text text-anchor="middle" x="2075.16" y="-173.99" font-family="Times,serif" font-size="14.00">1</text>
</g>
<!-- rwrp.EntityStageNamePopup -->
<g id="node10" class="node">
<title>rwrp.EntityStageNamePopup</title>
<g id="a_node10"><a xlink:href="rwrp.EntityStageNamePopup.svg" xlink:title="rwrp.EntityStageNamePopup">
<ellipse fill="green" stroke="black" cx="2282.54" cy="-198" rx="147.57" ry="18"/>
<text text-anchor="middle" x="2282.54" y="-194.3" font-family="Times,serif" font-size="14.00">rwrp.EntityStageNamePopup</text>
</a>
</g>
</g>
<!-- rwrp.EntityStageNamePopup&#45;&gt;rwrp.InitializeEntity -->
<g id="edge9" class="edge">
<title>rwrp.EntityStageNamePopup&#45;&gt;rwrp.InitializeEntity</title>
<path fill="none" stroke="black" d="M2388.26,-185.37C2405.08,-183.55 2422.28,-181.71 2438.54,-180 3002.94,-120.69 3680.42,-53.44 3930.53,-28.75"/>
<polygon fill="black" stroke="black" points="3931.07,-32.22 3940.68,-27.75 3930.38,-25.25 3931.07,-32.22"/>
<text text-anchor="middle" x="2383.26" y="-174.17" font-family="Times,serif" font-size="14.00">1</text>
</g>
<!-- rwrp.EntityUnkId13 -->
<g id="node11" class="node">
<title>rwrp.EntityUnkId13</title>
<g id="a_node11"><a xlink:href="rwrp.EntityUnkId13.svg" xlink:title="rwrp.EntityUnkId13">
<ellipse fill="green" stroke="black" cx="2552.54" cy="-198" rx="104.78" ry="18"/>
<text text-anchor="middle" x="2552.54" y="-194.3" font-family="Times,serif" font-size="14.00">rwrp.EntityUnkId13</text>
</a>
</g>
</g>
<!-- rwrp.EntityUnkId13&#45;&gt;rwrp.InitializeEntity -->
<g id="edge10" class="edge">
<title>rwrp.EntityUnkId13&#45;&gt;rwrp.InitializeEntity</title>
<path fill="none" stroke="black" d="M2627.92,-185.43C2640.79,-183.55 2654.04,-181.67 2666.54,-180 3140.76,-116.65 3709.57,-53.63 3932.86,-29.4"/>
<polygon fill="black" stroke="black" points="3933.35,-32.86 3942.91,-28.31 3932.59,-25.9 3933.35,-32.86"/>
<text text-anchor="middle" x="2622.92" y="-174.23" font-family="Times,serif" font-size="14.00">1</text>
</g>
<!-- rwrp.EntityWarpSmallRocks -->
<g id="node12" class="node">
<title>rwrp.EntityWarpSmallRocks</title>
<g id="a_node12"><a xlink:href="rwrp.EntityWarpSmallRocks.svg" xlink:title="rwrp.EntityWarpSmallRocks">
<ellipse fill="green" stroke="black" cx="2818.54" cy="-198" rx="142.97" ry="18"/>
<text text-anchor="middle" x="2818.54" y="-194.3" font-family="Times,serif" font-size="14.00">rwrp.EntityWarpSmallRocks</text>
</a>
</g>
</g>
<!-- rwrp.EntityWarpSmallRocks&#45;&gt;rwrp.InitializeEntity -->
<g id="edge11" class="edge">
<title>rwrp.EntityWarpSmallRocks&#45;&gt;rwrp.InitializeEntity</title>
<path fill="none" stroke="black" d="M2907.59,-183.91C3132.18,-150.9 3719.64,-64.55 3942.29,-31.82"/>
<polygon fill="black" stroke="black" points="3942.91,-35.27 3952.29,-30.35 3941.89,-28.35 3942.91,-35.27"/>
<text text-anchor="middle" x="2902.59" y="-172.71" font-family="Times,serif" font-size="14.00">1</text>
</g>
<!-- rwrp.InitializeUnkEntity -->
<g id="node13" class="node">
<title>rwrp.InitializeUnkEntity</title>
<g id="a_node13"><a xlink:href="rwrp.InitializeUnkEntity.svg" xlink:title="rwrp.InitializeUnkEntity">
<ellipse fill="green" stroke="black" cx="3103.54" cy="-198" rx="124.28" ry="18"/>
<text text-anchor="middle" x="3103.54" y="-194.3" font-family="Times,serif" font-size="14.00">rwrp.InitializeUnkEntity</text>
</a>
</g>
</g>
<!-- rwrp.InitializeUnkEntity&#45;&gt;rwrp.InitializeEntity -->
<g id="edge12" class="edge">
<title>rwrp.InitializeUnkEntity&#45;&gt;rwrp.InitializeEntity</title>
<path fill="none" stroke="black" d="M3175.05,-183.25C3345.77,-150.44 3776.03,-67.73 3952.35,-33.84"/>
<polygon fill="black" stroke="black" points="3953.17,-37.24 3962.33,-31.92 3951.85,-30.37 3953.17,-37.24"/>
<text text-anchor="middle" x="3170.05" y="-172.05" font-family="Times,serif" font-size="14.00">1</text>
</g>
<!-- wrp.EntityBigRedFireball -->
<g id="node14" class="node">
<title>wrp.EntityBigRedFireball</title>
<g id="a_node14"><a xlink:href="wrp.EntityBigRedFireball.svg" xlink:title="wrp.EntityBigRedFireball">
<ellipse fill="green" stroke="black" cx="3375.54" cy="-198" rx="129.98" ry="18"/>
<text text-anchor="middle" x="3375.54" y="-194.3" font-family="Times,serif" font-size="14.00">wrp.EntityBigRedFireball</text>
</a>
</g>
</g>
<!-- wrp.EntityBigRedFireball&#45;&gt;rwrp.InitializeEntity -->
<g id="edge13" class="edge">
<title>wrp.EntityBigRedFireball&#45;&gt;rwrp.InitializeEntity</title>
<path fill="none" stroke="black" d="M3431.58,-181.75C3552.67,-148.79 3838.06,-71.11 3965.79,-36.35"/>
<polygon fill="black" stroke="black" points="3967.09,-39.62 3975.82,-33.62 3965.25,-32.87 3967.09,-39.62"/>
<text text-anchor="middle" x="3426.58" y="-170.55" font-family="Times,serif" font-size="14.00">1</text>
</g>
<!-- wrp.EntityBreakable -->
<g id="node15" class="node">
<title>wrp.EntityBreakable</title>
<g id="a_node15"><a xlink:href="wrp.EntityBreakable.svg" xlink:title="wrp.EntityBreakable">
<ellipse fill="green" stroke="black" cx="3630.54" cy="-198" rx="107.48" ry="18"/>
<text text-anchor="middle" x="3630.54" y="-194.3" font-family="Times,serif" font-size="14.00">wrp.EntityBreakable</text>
</a>
</g>
</g>
<!-- wrp.EntityBreakable&#45;&gt;rwrp.InitializeEntity -->
<g id="edge14" class="edge">
<title>wrp.EntityBreakable&#45;&gt;rwrp.InitializeEntity</title>
<path fill="none" stroke="black" d="M3666.65,-180.89C3739.65,-148.32 3904.59,-74.74 3984.49,-39.1"/>
<polygon fill="black" stroke="black" points="3986.09,-42.22 3993.79,-34.95 3983.24,-35.82 3986.09,-42.22"/>
<text text-anchor="middle" x="3661.65" y="-169.69" font-family="Times,serif" font-size="14.00">1</text>
</g>
<!-- wrp.EntityDamageDisplay -->
<g id="node16" class="node">
<title>wrp.EntityDamageDisplay</title>
<g id="a_node16"><a xlink:href="wrp.EntityDamageDisplay.svg" xlink:title="wrp.EntityDamageDisplay">
<ellipse fill="green" stroke="black" cx="3888.54" cy="-198" rx="133.48" ry="18"/>
<text text-anchor="middle" x="3888.54" y="-194.3" font-family="Times,serif" font-size="14.00">wrp.EntityDamageDisplay</text>
</a>
</g>
</g>
<!-- wrp.EntityDamageDisplay&#45;&gt;rwrp.InitializeEntity -->
<g id="edge15" class="edge">
<title>wrp.EntityDamageDisplay&#45;&gt;rwrp.InitializeEntity</title>
<path fill="none" stroke="black" d="M3902.06,-179.93C3927.01,-148.43 3980.4,-81.03 4009.54,-44.24"/>
<polygon fill="black" stroke="black" points="4012.59,-46.03 4016.06,-36.02 4007.11,-41.68 4012.59,-46.03"/>
<text text-anchor="middle" x="3897.06" y="-168.73" font-family="Times,serif" font-size="14.00">1</text>
</g>
<!-- wrp.EntityEquipItemDrop -->
<g id="node17" class="node">
<title>wrp.EntityEquipItemDrop</title>
<g id="a_node17"><a xlink:href="wrp.EntityEquipItemDrop.svg" xlink:title="wrp.EntityEquipItemDrop">
<ellipse fill="green" stroke="black" cx="4171.54" cy="-198" rx="131.88" ry="18"/>
<text text-anchor="middle" x="4171.54" y="-194.3" font-family="Times,serif" font-size="14.00">wrp.EntityEquipItemDrop</text>
</a>
</g>
</g>
<!-- wrp.EntityEquipItemDrop&#45;&gt;rwrp.InitializeEntity -->
<g id="edge16" class="edge">
<title>wrp.EntityEquipItemDrop&#45;&gt;rwrp.InitializeEntity</title>
<path fill="none" stroke="black" d="M4157.92,-179.93C4132.79,-148.43 4079.03,-81.03 4049.67,-44.24"/>
<polygon fill="black" stroke="black" points="4052.08,-41.65 4043.11,-36.02 4046.61,-46.02 4052.08,-41.65"/>
<text text-anchor="middle" x="4152.92" y="-168.73" font-family="Times,serif" font-size="14.00">1</text>
</g>
<!-- wrp.EntityExplosion -->
<g id="node18" class="node">
<title>wrp.EntityExplosion</title>
<g id="a_node18"><a xlink:href="wrp.EntityExplosion.svg" xlink:title="wrp.EntityExplosion">
<ellipse fill="green" stroke="black" cx="4427.54" cy="-198" rx="105.88" ry="18"/>
<text text-anchor="middle" x="4427.54" y="-194.3" font-family="Times,serif" font-size="14.00">wrp.EntityExplosion</text>
</a>
</g>
</g>
<!-- wrp.EntityExplosion&#45;&gt;rwrp.InitializeEntity -->
<g id="edge17" class="edge">
<title>wrp.EntityExplosion&#45;&gt;rwrp.InitializeEntity</title>
<path fill="none" stroke="black" d="M4391.87,-181.05C4319.26,-148.58 4154.44,-74.86 4074.58,-39.14"/>
<polygon fill="black" stroke="black" points="4075.83,-35.87 4065.27,-34.98 4072.97,-42.26 4075.83,-35.87"/>
<text text-anchor="middle" x="4386.87" y="-169.85" font-family="Times,serif" font-size="14.00">1</text>
</g>
<!-- wrp.EntityIntenseExplosion -->
<g id="node19" class="node">
<title>wrp.EntityIntenseExplosion</title>
<g id="a_node19"><a xlink:href="wrp.EntityIntenseExplosion.svg" xlink:title="wrp.EntityIntenseExplosion">
<ellipse fill="green" stroke="black" cx="4691.54" cy="-198" rx="140.28" ry="18"/>
<text text-anchor="middle" x="4691.54" y="-194.3" font-family="Times,serif" font-size="14.00">wrp.EntityIntenseExplosion</text>
</a>
</g>
</g>
<!-- wrp.EntityIntenseExplosion&#45;&gt;rwrp.InitializeEntity -->
<g id="edge18" class="edge">
<title>wrp.EntityIntenseExplosion&#45;&gt;rwrp.InitializeEntity</title>
<path fill="none" stroke="black" d="M4633.95,-181.52C4510.7,-148.38 4222.16,-70.79 4093.46,-36.19"/>
<polygon fill="black" stroke="black" points="4094.3,-32.79 4083.73,-33.57 4092.48,-39.55 4094.3,-32.79"/>
<text text-anchor="middle" x="4628.95" y="-170.32" font-family="Times,serif" font-size="14.00">1</text>
</g>
<!-- wrp.EntityMessageBox -->
<g id="node20" class="node">
<title>wrp.EntityMessageBox</title>
<g id="a_node20"><a xlink:href="wrp.EntityMessageBox.svg" xlink:title="wrp.EntityMessageBox">
<ellipse fill="green" stroke="black" cx="4968.54" cy="-198" rx="118.88" ry="18"/>
<text text-anchor="middle" x="4968.54" y="-194.3" font-family="Times,serif" font-size="14.00">wrp.EntityMessageBox</text>
</a>
</g>
</g>
<!-- wrp.EntityMessageBox&#45;&gt;rwrp.InitializeEntity -->
<g id="edge19" class="edge">
<title>wrp.EntityMessageBox&#45;&gt;rwrp.InitializeEntity</title>
<path fill="none" stroke="black" d="M4897.58,-183.55C4725.34,-150.9 4286.2,-67.65 4107.23,-33.73"/>
<polygon fill="black" stroke="black" points="4107.84,-30.28 4097.36,-31.86 4106.53,-37.16 4107.84,-30.28"/>
<text text-anchor="middle" x="4892.58" y="-172.35" font-family="Times,serif" font-size="14.00">1</text>
</g>
<!-- wrp.EntityOlroxDrool -->
<g id="node21" class="node">
<title>wrp.EntityOlroxDrool</title>
<g id="a_node21"><a xlink:href="wrp.EntityOlroxDrool.svg" xlink:title="wrp.EntityOlroxDrool">
<ellipse fill="green" stroke="black" cx="5216.54" cy="-198" rx="111.28" ry="18"/>
<text text-anchor="middle" x="5216.54" y="-194.3" font-family="Times,serif" font-size="14.00">wrp.EntityOlroxDrool</text>
</a>
</g>
</g>
<!-- wrp.EntityOlroxDrool&#45;&gt;rwrp.InitializeEntity -->
<g id="edge20" class="edge">
<title>wrp.EntityOlroxDrool&#45;&gt;rwrp.InitializeEntity</title>
<path fill="none" stroke="black" d="M5137.74,-185.18C4924.57,-153.22 4337.75,-65.22 4115.96,-31.96"/>
<polygon fill="black" stroke="black" points="4116.41,-28.49 4106,-30.47 4115.37,-35.41 4116.41,-28.49"/>
<text text-anchor="middle" x="5132.74" y="-173.98" font-family="Times,serif" font-size="14.00">1</text>
</g>
<!-- wrp.EntityPrizeDrop -->
<g id="node22" class="node">
<title>wrp.EntityPrizeDrop</title>
<g id="a_node22"><a xlink:href="wrp.EntityPrizeDrop.svg" xlink:title="wrp.EntityPrizeDrop">
<ellipse fill="green" stroke="black" cx="5452.54" cy="-198" rx="107.48" ry="18"/>
<text text-anchor="middle" x="5452.54" y="-194.3" font-family="Times,serif" font-size="14.00">wrp.EntityPrizeDrop</text>
</a>
</g>
</g>
<!-- wrp.EntityPrizeDrop&#45;&gt;rwrp.InitializeEntity -->
<g id="edge21" class="edge">
<title>wrp.EntityPrizeDrop&#45;&gt;rwrp.InitializeEntity</title>
<path fill="none" stroke="black" d="M5375.51,-185.46C5362.51,-183.58 5349.15,-181.7 5336.54,-180 4882.94,-118.83 4339.49,-54.87 4124.11,-29.9"/>
<polygon fill="black" stroke="black" points="4124.44,-26.41 4114.11,-28.74 4123.64,-33.36 4124.44,-26.41"/>
<text text-anchor="middle" x="5370.51" y="-174.26" font-family="Times,serif" font-size="14.00">1</text>
</g>
<!-- wrp.EntityRedDoor -->
<g id="node23" class="node">
<title>wrp.EntityRedDoor</title>
<g id="a_node23"><a xlink:href="wrp.EntityRedDoor.svg" xlink:title="wrp.EntityRedDoor">
<ellipse fill="green" stroke="black" cx="5678.54" cy="-198" rx="100.98" ry="18"/>
<text text-anchor="middle" x="5678.54" y="-194.3" font-family="Times,serif" font-size="14.00">wrp.EntityRedDoor</text>
</a>
</g>
</g>
<!-- wrp.EntityRedDoor&#45;&gt;rwrp.InitializeEntity -->
<g id="edge22" class="edge">
<title>wrp.EntityRedDoor&#45;&gt;rwrp.InitializeEntity</title>
<path fill="none" stroke="black" d="M5606.42,-185.34C5593.81,-183.44 5580.8,-181.59 5568.54,-180 5028.2,-110.03 4378.07,-49.87 4131.25,-27.9"/>
<polygon fill="black" stroke="black" points="4131.49,-24.41 4121.22,-27.01 4130.87,-31.38 4131.49,-24.41"/>
<text text-anchor="middle" x="5601.42" y="-174.14" font-family="Times,serif" font-size="14.00">1</text>
</g>
<!-- wrp.EntityRelicOrb -->
<g id="node24" class="node">
<title>wrp.EntityRelicOrb</title>
<g id="a_node24"><a xlink:href="wrp.EntityRelicOrb.svg" xlink:title="wrp.EntityRelicOrb">
<ellipse fill="green" stroke="black" cx="5897.54" cy="-198" rx="100.98" ry="18"/>
<text text-anchor="middle" x="5897.54" y="-194.3" font-family="Times,serif" font-size="14.00">wrp.EntityRelicOrb</text>
</a>
</g>
</g>
<!-- wrp.EntityRelicOrb&#45;&gt;rwrp.InitializeEntity -->
<g id="edge23" class="edge">
<title>wrp.EntityRelicOrb&#45;&gt;rwrp.InitializeEntity</title>
<path fill="none" stroke="black" d="M5826.39,-185.24C5813.8,-183.35 5800.8,-181.52 5788.54,-180 5163.54,-102.74 4409.35,-45.83 4135.43,-26.34"/>
<polygon fill="black" stroke="black" points="4135.33,-22.82 4125.1,-25.6 4134.83,-29.8 4135.33,-22.82"/>
<text text-anchor="middle" x="5821.39" y="-174.04" font-family="Times,serif" font-size="14.00">1</text>
</g>
<!-- wrp.EntityRoomForeground -->
<g id="node25" class="node">
<title>wrp.EntityRoomForeground</title>
<g id="a_node25"><a xlink:href="wrp.EntityRoomForeground.svg" xlink:title="wrp.EntityRoomForeground">
<ellipse fill="green" stroke="black" cx="6157.54" cy="-198" rx="141.07" ry="18"/>
<text text-anchor="middle" x="6157.54" y="-194.3" font-family="Times,serif" font-size="14.00">wrp.EntityRoomForeground</text>
</a>
</g>
</g>
<!-- wrp.EntityRoomForeground&#45;&gt;rwrp.InitializeEntity -->
<g id="edge24" class="edge">
<title>wrp.EntityRoomForeground&#45;&gt;rwrp.InitializeEntity</title>
<path fill="none" stroke="black" d="M6057.53,-185.22C6040.85,-183.38 6023.71,-181.57 6007.54,-180 5292.88,-110.44 4430.93,-47.43 4135.12,-26.41"/>
<polygon fill="black" stroke="black" points="4135.06,-22.9 4124.84,-25.68 4134.57,-29.88 4135.06,-22.9"/>
<text text-anchor="middle" x="6052.53" y="-174.02" font-family="Times,serif" font-size="14.00">1</text>
</g>
<!-- wrp.EntityUnkId12 -->
<g id="node26" class="node">
<title>wrp.EntityUnkId12</title>
<g id="a_node26"><a xlink:href="wrp.EntityUnkId12.svg" xlink:title="wrp.EntityUnkId12">
<ellipse fill="green" stroke="black" cx="6417.54" cy="-198" rx="100.98" ry="18"/>
<text text-anchor="middle" x="6417.54" y="-194.3" font-family="Times,serif" font-size="14.00">wrp.EntityUnkId12</text>
</a>
</g>
</g>
<!-- wrp.EntityUnkId12&#45;&gt;rwrp.InitializeEntity -->
<g id="edge25" class="edge">
<title>wrp.EntityUnkId12&#45;&gt;rwrp.InitializeEntity</title>
<path fill="none" stroke="black" d="M6346.65,-185.16C6333.66,-183.24 6320.21,-181.42 6307.54,-180 5477.67,-86.71 4471.28,-37.94 4140.63,-23.59"/>
<polygon fill="black" stroke="black" points="4140.71,-20.09 4130.57,-23.15 4140.41,-27.08 4140.71,-20.09"/>
<text text-anchor="middle" x="6341.65" y="-173.96" font-family="Times,serif" font-size="14.00">1</text>
</g>
<!-- wrp.EntityUnkId13 -->
<g id="node27" class="node">
<title>wrp.EntityUnkId13</title>
<g id="a_node27"><a xlink:href="wrp.EntityUnkId13.svg" xlink:title="wrp.EntityUnkId13">
<ellipse fill="green" stroke="black" cx="6636.54" cy="-198" rx="100.98" ry="18"/>
<text text-anchor="middle" x="6636.54" y="-194.3" font-family="Times,serif" font-size="14.00">wrp.EntityUnkId13</text>
</a>
</g>
</g>
<!-- wrp.EntityUnkId13&#45;&gt;rwrp.InitializeEntity -->
<g id="edge26" class="edge">
<title>wrp.EntityUnkId13&#45;&gt;rwrp.InitializeEntity</title>
<path fill="none" stroke="black" d="M6566.3,-185.09C6553.43,-183.18 6540.1,-181.38 6527.54,-180 5609.73,-79.06 4494.73,-34.77 4142.05,-22.63"/>
<polygon fill="black" stroke="black" points="4141.96,-19.12 4131.84,-22.28 4141.72,-26.12 4141.96,-19.12"/>
<text text-anchor="middle" x="6561.3" y="-173.89" font-family="Times,serif" font-size="14.00">1</text>
</g>
<!-- wrp.EntityWarpRoom -->
<g id="node28" class="node">
<title>wrp.EntityWarpRoom</title>
<g id="a_node28"><a xlink:href="wrp.EntityWarpRoom.svg" xlink:title="wrp.EntityWarpRoom">
<ellipse fill="green" stroke="black" cx="6866.54" cy="-198" rx="111.28" ry="18"/>
<text text-anchor="middle" x="6866.54" y="-194.3" font-family="Times,serif" font-size="14.00">wrp.EntityWarpRoom</text>
</a>
</g>
</g>
<!-- wrp.EntityWarpRoom&#45;&gt;rwrp.InitializeEntity -->
<g id="edge27" class="edge">
<title>wrp.EntityWarpRoom&#45;&gt;rwrp.InitializeEntity</title>
<path fill="none" stroke="black" d="M6788.87,-185.05C6774.8,-183.16 6760.25,-181.38 6746.54,-180 5739.23,-78.97 4514.99,-34.28 4142.42,-22.39"/>
<polygon fill="black" stroke="black" points="4142.28,-18.88 4132.17,-22.06 4142.06,-25.88 4142.28,-18.88"/>
<text text-anchor="middle" x="6783.87" y="-173.85" font-family="Times,serif" font-size="14.00">1</text>
</g>
<!-- wrp.EntityWarpSmallRocks -->
<g id="node29" class="node">
<title>wrp.EntityWarpSmallRocks</title>
<g id="a_node29"><a xlink:href="wrp.EntityWarpSmallRocks.svg" xlink:title="wrp.EntityWarpSmallRocks">
<ellipse fill="green" stroke="black" cx="7134.54" cy="-198" rx="138.38" ry="18"/>
<text text-anchor="middle" x="7134.54" y="-194.3" font-family="Times,serif" font-size="14.00">wrp.EntityWarpSmallRocks</text>
</a>
</g>
</g>
<!-- wrp.EntityWarpSmallRocks&#45;&gt;rwrp.InitializeEntity -->
<g id="edge28" class="edge">
<title>wrp.EntityWarpSmallRocks&#45;&gt;rwrp.InitializeEntity</title>
<path fill="none" stroke="black" d="M7037.89,-185.05C7020.8,-183.18 7003.16,-181.41 6986.54,-180 5879.54,-86.37 4534.56,-36.1 4142.05,-22.69"/>
<polygon fill="black" stroke="black" points="4141.95,-19.19 4131.83,-22.35 4141.71,-26.18 4141.95,-19.19"/>
<text text-anchor="middle" x="7032.89" y="-173.85" font-family="Times,serif" font-size="14.00">1</text>
</g>
<!-- wrp.InitializeUnkEntity -->
<g id="node30" class="node">
<title>wrp.InitializeUnkEntity</title>
<g id="a_node30"><a xlink:href="wrp.InitializeUnkEntity.svg" xlink:title="wrp.InitializeUnkEntity">
<ellipse fill="green" stroke="black" cx="7411.54" cy="-198" rx="120.48" ry="18"/>
<text text-anchor="middle" x="7411.54" y="-194.3" font-family="Times,serif" font-size="14.00">wrp.InitializeUnkEntity</text>
</a>
</g>
</g>
<!-- wrp.InitializeUnkEntity&#45;&gt;rwrp.InitializeEntity -->
<g id="edge29" class="edge">
<title>wrp.InitializeUnkEntity&#45;&gt;rwrp.InitializeEntity</title>
<path fill="none" stroke="black" d="M7327.73,-185.03C7312.39,-183.13 7296.5,-181.35 7281.54,-180 6055.66,-69.68 4562.52,-30.55 4143.59,-21.32"/>
<polygon fill="black" stroke="black" points="4143.38,-17.82 4133.3,-21.1 4143.22,-24.81 4143.38,-17.82"/>
<text text-anchor="middle" x="7322.73" y="-173.83" font-family="Times,serif" font-size="14.00">1</text>
</g>
<!-- wrp.func_80186FD0 -->
<g id="node31" class="node">
<title>wrp.func_80186FD0</title>
<g id="a_node31"><a xlink:href="wrp.func_80186FD0.svg" xlink:title="wrp.func_80186FD0">
<ellipse fill="green" stroke="black" cx="7654.54" cy="-198" rx="104.78" ry="18"/>
<text text-anchor="middle" x="7654.54" y="-194.3" font-family="Times,serif" font-size="14.00">wrp.func_80186FD0</text>
</a>
</g>
</g>
<!-- wrp.func_80186FD0&#45;&gt;rwrp.InitializeEntity -->
<g id="edge30" class="edge">
<title>wrp.func_80186FD0&#45;&gt;rwrp.InitializeEntity</title>
<path fill="none" stroke="black" d="M7581.7,-185.01C7568.05,-183.08 7553.88,-181.3 7540.54,-180 6209.97,-50.63 4585.33,-24.77 4144.49,-20.01"/>
<polygon fill="black" stroke="black" points="4144.33,-16.51 4134.29,-19.9 4144.25,-23.51 4144.33,-16.51"/>
<text text-anchor="middle" x="7576.7" y="-173.81" font-family="Times,serif" font-size="14.00">1</text>
</g>
</g>
</svg>
