<?xml version="1.0" encoding="UTF-8" standalone="no"?>
<!DOCTYPE svg PUBLIC "-//W3C//DTD SVG 1.1//EN"
 "http://www.w3.org/Graphics/SVG/1.1/DTD/svg11.dtd">
<!-- Generated by graphviz version 2.43.0 (0)
 -->
<!-- Title: rwrp.AnimateEntity Pages: 1 -->
<svg width="1923pt" height="224pt"
 viewBox="0.00 0.00 1923.28 224.00" xmlns="http://www.w3.org/2000/svg" xmlns:xlink="http://www.w3.org/1999/xlink">
<g id="graph0" class="graph" transform="scale(1 1) rotate(0) translate(4 220)">
<title>rwrp.AnimateEntity</title>
<polygon fill="white" stroke="transparent" points="-4,4 -4,-220 1919.28,-220 1919.28,4 -4,4"/>
<!-- rwrp.AnimateEntity -->
<g id="node1" class="node">
<title>rwrp.AnimateEntity</title>
<ellipse fill="green" stroke="black" cx="975.79" cy="-18" rx="103.18" ry="18"/>
<text text-anchor="middle" x="975.79" y="-14.3" font-family="Times,serif" font-size="14.00">rwrp.AnimateEntity</text>
</g>
<!-- rwrp.EntityBreakable -->
<g id="node2" class="node">
<title>rwrp.EntityBreakable</title>
<g id="a_node2"><a xlink:href="rwrp.EntityBreakable.svg" xlink:title="rwrp.EntityBreakable">
<ellipse fill="green" stroke="black" cx="111.79" cy="-198" rx="111.58" ry="18"/>
<text text-anchor="middle" x="111.79" y="-194.3" font-family="Times,serif" font-size="14.00">rwrp.EntityBreakable</text>
</a>
</g>
</g>
<!-- rwrp.EntityBreakable&#45;&gt;rwrp.AnimateEntity -->
<g id="edge1" class="edge">
<title>rwrp.EntityBreakable&#45;&gt;rwrp.AnimateEntity</title>
<path fill="none" stroke="black" d="M177.8,-183.4C335.92,-150.82 735.59,-68.48 901.66,-34.27"/>
<polygon fill="black" stroke="black" points="902.69,-37.63 911.78,-32.19 901.28,-30.78 902.69,-37.63"/>
<text text-anchor="middle" x="172.8" y="-172.2" font-family="Times,serif" font-size="14.00">1</text>
</g>
<!-- rwrp.EntityExplosion -->
<g id="node3" class="node">
<title>rwrp.EntityExplosion</title>
<g id="a_node3"><a xlink:href="rwrp.EntityExplosion.svg" xlink:title="rwrp.EntityExplosion">
<ellipse fill="red" stroke="black" cx="351.79" cy="-198" rx="110.48" ry="18"/>
<text text-anchor="middle" x="351.79" y="-194.3" font-family="Times,serif" font-size="14.00">rwrp.EntityExplosion</text>
</a>
</g>
</g>
<!-- rwrp.EntityExplosion&#45;&gt;rwrp.AnimateEntity -->
<g id="edge2" class="edge">
<title>rwrp.EntityExplosion&#45;&gt;rwrp.AnimateEntity</title>
<path fill="none" stroke="black" d="M404.19,-182.05C518.9,-149.33 791.77,-71.49 914.33,-36.53"/>
<polygon fill="black" stroke="black" points="915.65,-39.8 924.31,-33.69 913.73,-33.06 915.65,-39.8"/>
<text text-anchor="middle" x="399.19" y="-170.85" font-family="Times,serif" font-size="14.00">1</text>
</g>
<!-- rwrp.EntityPrizeDrop -->
<g id="node4" class="node">
<title>rwrp.EntityPrizeDrop</title>
<g id="a_node4"><a xlink:href="rwrp.EntityPrizeDrop.svg" xlink:title="rwrp.EntityPrizeDrop">
<ellipse fill="red" stroke="black" cx="591.79" cy="-198" rx="111.58" ry="18"/>
<text text-anchor="middle" x="591.79" y="-194.3" font-family="Times,serif" font-size="14.00">rwrp.EntityPrizeDrop</text>
</a>
</g>
</g>
<!-- rwrp.EntityPrizeDrop&#45;&gt;rwrp.AnimateEntity -->
<g id="edge3" class="edge">
<title>rwrp.EntityPrizeDrop&#45;&gt;rwrp.AnimateEntity</title>
<path fill="none" stroke="black" d="M626.54,-180.89C696.57,-148.43 854.5,-75.22 931.67,-39.45"/>
<polygon fill="black" stroke="black" points="933.51,-42.45 941.11,-35.07 930.57,-36.1 933.51,-42.45"/>
<text text-anchor="middle" x="621.54" y="-169.69" font-family="Times,serif" font-size="14.00">1</text>
</g>
<!-- rwrp.EntitySoulStealOrb -->
<g id="node5" class="node">
<title>rwrp.EntitySoulStealOrb</title>
<g id="a_node5"><a xlink:href="rwrp.EntitySoulStealOrb.svg" xlink:title="rwrp.EntitySoulStealOrb">
<ellipse fill="green" stroke="black" cx="848.79" cy="-198" rx="126.98" ry="18"/>
<text text-anchor="middle" x="848.79" y="-194.3" font-family="Times,serif" font-size="14.00">rwrp.EntitySoulStealOrb</text>
</a>
</g>
</g>
<!-- rwrp.EntitySoulStealOrb&#45;&gt;rwrp.AnimateEntity -->
<g id="edge4" class="edge">
<title>rwrp.EntitySoulStealOrb&#45;&gt;rwrp.AnimateEntity</title>
<path fill="none" stroke="black" d="M860.97,-179.93C883.44,-148.43 931.53,-81.03 957.78,-44.24"/>
<polygon fill="black" stroke="black" points="960.69,-46.19 963.65,-36.02 954.99,-42.12 960.69,-46.19"/>
<text text-anchor="middle" x="855.97" y="-168.73" font-family="Times,serif" font-size="14.00">1</text>
</g>
<!-- rwrp.func_80188DF0 -->
<g id="node6" class="node">
<title>rwrp.func_80188DF0</title>
<g id="a_node6"><a xlink:href="rwrp.func_80188DF0.svg" xlink:title="rwrp.func_80188DF0">
<ellipse fill="red" stroke="black" cx="1102.79" cy="-198" rx="109.38" ry="18"/>
<text text-anchor="middle" x="1102.79" y="-194.3" font-family="Times,serif" font-size="14.00">rwrp.func_80188DF0</text>
</a>
</g>
</g>
<!-- rwrp.func_80188DF0&#45;&gt;rwrp.AnimateEntity -->
<g id="edge5" class="edge">
<title>rwrp.func_80188DF0&#45;&gt;rwrp.AnimateEntity</title>
<path fill="none" stroke="black" d="M1090.61,-179.93C1068.14,-148.43 1020.05,-81.03 993.8,-44.24"/>
<polygon fill="black" stroke="black" points="996.59,-42.12 987.93,-36.02 990.89,-46.19 996.59,-42.12"/>
<text text-anchor="middle" x="1085.61" y="-168.73" font-family="Times,serif" font-size="14.00">1</text>
</g>
<!-- rwrp.func_80192348 -->
<g id="node7" class="node">
<title>rwrp.func_80192348</title>
<g id="a_node7"><a xlink:href="rwrp.func_80192348.svg" xlink:title="rwrp.func_80192348">
<ellipse fill="red" stroke="black" cx="1336.79" cy="-198" rx="107.48" ry="18"/>
<text text-anchor="middle" x="1336.79" y="-194.3" font-family="Times,serif" font-size="14.00">rwrp.func_80192348</text>
</a>
</g>
</g>
<!-- rwrp.func_80192348&#45;&gt;rwrp.AnimateEntity -->
<g id="edge6" class="edge">
<title>rwrp.func_80192348&#45;&gt;rwrp.AnimateEntity</title>
<path fill="none" stroke="black" d="M1303.8,-180.73C1238,-148.29 1090.55,-75.59 1017.9,-39.76"/>
<polygon fill="black" stroke="black" points="1019.09,-36.45 1008.58,-35.17 1016,-42.73 1019.09,-36.45"/>
<text text-anchor="middle" x="1298.8" y="-169.53" font-family="Times,serif" font-size="14.00">1</text>
</g>
<!-- rwrp.func_80192594 -->
<g id="node8" class="node">
<title>rwrp.func_80192594</title>
<g id="a_node8"><a xlink:href="rwrp.func_80192594.svg" xlink:title="rwrp.func_80192594">
<ellipse fill="red" stroke="black" cx="1568.79" cy="-198" rx="107.48" ry="18"/>
<text text-anchor="middle" x="1568.79" y="-194.3" font-family="Times,serif" font-size="14.00">rwrp.func_80192594</text>
</a>
</g>
</g>
<!-- rwrp.func_80192594&#45;&gt;rwrp.AnimateEntity -->
<g id="edge7" class="edge">
<title>rwrp.func_80192594&#45;&gt;rwrp.AnimateEntity</title>
<path fill="none" stroke="black" d="M1519,-182.05C1410.37,-149.45 1152.48,-72.04 1035.42,-36.9"/>
<polygon fill="black" stroke="black" points="1036.13,-33.46 1025.55,-33.94 1034.12,-40.16 1036.13,-33.46"/>
<text text-anchor="middle" x="1514" y="-170.85" font-family="Times,serif" font-size="14.00">1</text>
</g>
<!-- rwrp.func_80194DD4 -->
<g id="node9" class="node">
<title>rwrp.func_80194DD4</title>
<g id="a_node9"><a xlink:href="rwrp.func_80194DD4.svg" xlink:title="rwrp.func_80194DD4">
<ellipse fill="green" stroke="black" cx="1804.79" cy="-198" rx="110.48" ry="18"/>
<text text-anchor="middle" x="1804.79" y="-194.3" font-family="Times,serif" font-size="14.00">rwrp.func_80194DD4</text>
</a>
</g>
</g>
<!-- rwrp.func_80194DD4&#45;&gt;rwrp.AnimateEntity -->
<g id="edge8" class="edge">
<title>rwrp.func_80194DD4&#45;&gt;rwrp.AnimateEntity</title>
<path fill="none" stroke="black" d="M1740.77,-183.25C1589.06,-150.68 1208.4,-68.94 1048.41,-34.59"/>
<polygon fill="black" stroke="black" points="1048.71,-31.08 1038.19,-32.4 1047.24,-37.92 1048.71,-31.08"/>
<text text-anchor="middle" x="1735.77" y="-172.05" font-family="Times,serif" font-size="14.00">1</text>
</g>
</g>
</svg>
