<?xml version="1.0" encoding="UTF-8" standalone="no"?>
<!DOCTYPE svg PUBLIC "-//W3C//DTD SVG 1.1//EN"
 "http://www.w3.org/Graphics/SVG/1.1/DTD/svg11.dtd">
<!-- Generated by graphviz version 2.43.0 (0)
 -->
<!-- Title: rwrp.func_8018E0E0 Pages: 1 -->
<svg width="261pt" height="404pt"
 viewBox="0.00 0.00 261.48 404.00" xmlns="http://www.w3.org/2000/svg" xmlns:xlink="http://www.w3.org/1999/xlink">
<g id="graph0" class="graph" transform="scale(1 1) rotate(0) translate(4 400)">
<title>rwrp.func_8018E0E0</title>
<polygon fill="white" stroke="transparent" points="-4,4 -4,-400 257.48,-400 257.48,4 -4,4"/>
<!-- rwrp.func_8018E0E0 -->
<g id="node1" class="node">
<title>rwrp.func_8018E0E0</title>
<ellipse fill="green" stroke="black" cx="126.74" cy="-198" rx="109.38" ry="18"/>
<text text-anchor="middle" x="126.74" y="-194.3" font-family="Times,serif" font-size="14.00">rwrp.func_8018E0E0</text>
</g>
<!-- ratan2 -->
<g id="node2" class="node">
<title>ratan2</title>
<g id="a_node2"><a xlink:href="ratan2.svg" xlink:title="ratan2">
<ellipse fill="lightblue" stroke="black" cx="126.74" cy="-18" rx="41.69" ry="18"/>
<text text-anchor="middle" x="126.74" y="-14.3" font-family="Times,serif" font-size="14.00">ratan2</text>
</a>
</g>
</g>
<!-- rwrp.func_8018E0E0&#45;&gt;ratan2 -->
<g id="edge1" class="edge">
<title>rwrp.func_8018E0E0&#45;&gt;ratan2</title>
<path fill="none" stroke="black" d="M126.74,-179.93C126.74,-148.97 126.74,-83.3 126.74,-46.13"/>
<polygon fill="black" stroke="black" points="130.24,-46.02 126.74,-36.02 123.24,-46.02 130.24,-46.02"/>
<text text-anchor="middle" x="121.74" y="-39.82" font-family="Times,serif" font-size="14.00">1</text>
</g>
<!-- rwrp.EntitySoulStealOrb -->
<g id="node3" class="node">
<title>rwrp.EntitySoulStealOrb</title>
<g id="a_node3"><a xlink:href="rwrp.EntitySoulStealOrb.svg" xlink:title="rwrp.EntitySoulStealOrb">
<ellipse fill="green" stroke="black" cx="126.74" cy="-378" rx="126.98" ry="18"/>
<text text-anchor="middle" x="126.74" y="-374.3" font-family="Times,serif" font-size="14.00">rwrp.EntitySoulStealOrb</text>
</a>
</g>
</g>
<!-- rwrp.EntitySoulStealOrb&#45;&gt;rwrp.func_8018E0E0 -->
<g id="edge2" class="edge">
<title>rwrp.EntitySoulStealOrb&#45;&gt;rwrp.func_8018E0E0</title>
<path fill="none" stroke="black" d="M126.74,-359.93C126.74,-328.97 126.74,-263.3 126.74,-226.13"/>
<polygon fill="black" stroke="black" points="130.24,-226.02 126.74,-216.02 123.24,-226.02 130.24,-226.02"/>
<text text-anchor="middle" x="121.74" y="-348.73" font-family="Times,serif" font-size="14.00">2</text>
</g>
</g>
</svg>
