<?xml version="1.0" encoding="UTF-8" standalone="no"?>
<!DOCTYPE svg PUBLIC "-//W3C//DTD SVG 1.1//EN"
 "http://www.w3.org/Graphics/SVG/1.1/DTD/svg11.dtd">
<!-- Generated by graphviz version 2.43.0 (0)
 -->
<!-- Title: rwrp.func_8018EAB4 Pages: 1 -->
<svg width="818pt" height="404pt"
 viewBox="0.00 0.00 818.03 404.00" xmlns="http://www.w3.org/2000/svg" xmlns:xlink="http://www.w3.org/1999/xlink">
<g id="graph0" class="graph" transform="scale(1 1) rotate(0) translate(4 400)">
<title>rwrp.func_8018EAB4</title>
<polygon fill="white" stroke="transparent" points="-4,4 -4,-400 814.03,-400 814.03,4 -4,4"/>
<!-- rwrp.func_8018EAB4 -->
<g id="node1" class="node">
<title>rwrp.func_8018EAB4</title>
<ellipse fill="green" stroke="black" cx="389.49" cy="-198" rx="109.68" ry="18"/>
<text text-anchor="middle" x="389.49" y="-194.3" font-family="Times,serif" font-size="14.00">rwrp.func_8018EAB4</text>
</g>
<!-- dra.CheckCollision -->
<g id="node2" class="node">
<title>dra.CheckCollision</title>
<g id="a_node2"><a xlink:href="dra.CheckCollision.svg" xlink:title="dra.CheckCollision">
<ellipse fill="green" stroke="black" cx="97.49" cy="-18" rx="97.48" ry="18"/>
<text text-anchor="middle" x="97.49" y="-14.3" font-family="Times,serif" font-size="14.00">dra.CheckCollision</text>
</a>
</g>
</g>
<!-- rwrp.func_8018EAB4&#45;&gt;dra.CheckCollision -->
<g id="edge1" class="edge">
<title>rwrp.func_8018EAB4&#45;&gt;dra.CheckCollision</title>
<path fill="none" stroke="black" d="M362.28,-180.41C309.22,-148.07 191.97,-76.6 132.93,-40.6"/>
<polygon fill="black" stroke="black" points="134.67,-37.57 124.31,-35.35 131.03,-43.54 134.67,-37.57"/>
<text text-anchor="middle" x="119.31" y="-39.15" font-family="Times,serif" font-size="14.00">2</text>
</g>
<!-- rwrp.FallEntity -->
<g id="node3" class="node">
<title>rwrp.FallEntity</title>
<g id="a_node3"><a xlink:href="rwrp.FallEntity.svg" xlink:title="rwrp.FallEntity">
<ellipse fill="green" stroke="black" cx="294.49" cy="-18" rx="81.79" ry="18"/>
<text text-anchor="middle" x="294.49" y="-14.3" font-family="Times,serif" font-size="14.00">rwrp.FallEntity</text>
</a>
</g>
</g>
<!-- rwrp.func_8018EAB4&#45;&gt;rwrp.FallEntity -->
<g id="edge2" class="edge">
<title>rwrp.func_8018EAB4&#45;&gt;rwrp.FallEntity</title>
<path fill="none" stroke="black" d="M380.38,-179.93C363.71,-148.7 328.21,-82.17 308.46,-45.18"/>
<polygon fill="black" stroke="black" points="311.37,-43.19 303.57,-36.02 305.19,-46.49 311.37,-43.19"/>
<text text-anchor="middle" x="298.57" y="-39.82" font-family="Times,serif" font-size="14.00">1</text>
</g>
<!-- rwrp.MoveEntity -->
<g id="node4" class="node">
<title>rwrp.MoveEntity</title>
<g id="a_node4"><a xlink:href="rwrp.MoveEntity.svg" xlink:title="rwrp.MoveEntity">
<ellipse fill="green" stroke="black" cx="484.49" cy="-18" rx="90.18" ry="18"/>
<text text-anchor="middle" x="484.49" y="-14.3" font-family="Times,serif" font-size="14.00">rwrp.MoveEntity</text>
</a>
</g>
</g>
<!-- rwrp.func_8018EAB4&#45;&gt;rwrp.MoveEntity -->
<g id="edge3" class="edge">
<title>rwrp.func_8018EAB4&#45;&gt;rwrp.MoveEntity</title>
<path fill="none" stroke="black" d="M398.6,-179.93C415.27,-148.7 450.78,-82.17 470.52,-45.18"/>
<polygon fill="black" stroke="black" points="473.79,-46.49 475.41,-36.02 467.61,-43.19 473.79,-46.49"/>
<text text-anchor="middle" x="470.41" y="-39.82" font-family="Times,serif" font-size="14.00">2</text>
</g>
<!-- rwrp.func_8018EA30 -->
<g id="node5" class="node">
<title>rwrp.func_8018EA30</title>
<g id="a_node5"><a xlink:href="rwrp.func_8018EA30.svg" xlink:title="rwrp.func_8018EA30">
<ellipse fill="green" stroke="black" cx="701.49" cy="-18" rx="108.58" ry="18"/>
<text text-anchor="middle" x="701.49" y="-14.3" font-family="Times,serif" font-size="14.00">rwrp.func_8018EA30</text>
</a>
</g>
</g>
<!-- rwrp.func_8018EAB4&#45;&gt;rwrp.func_8018EA30 -->
<g id="edge4" class="edge">
<title>rwrp.func_8018EAB4&#45;&gt;rwrp.func_8018EA30</title>
<path fill="none" stroke="black" d="M418.28,-180.57C474.94,-148.25 600.84,-76.42 663.93,-40.43"/>
<polygon fill="black" stroke="black" points="665.82,-43.38 672.77,-35.39 662.35,-37.3 665.82,-43.38"/>
<text text-anchor="middle" x="667.77" y="-39.19" font-family="Times,serif" font-size="14.00">1</text>
</g>
<!-- rwrp.EntityEquipItemDrop -->
<g id="node6" class="node">
<title>rwrp.EntityEquipItemDrop</title>
<g id="a_node6"><a xlink:href="rwrp.EntityEquipItemDrop.svg" xlink:title="rwrp.EntityEquipItemDrop">
<ellipse fill="green" stroke="black" cx="256.49" cy="-378" rx="136.48" ry="18"/>
<text text-anchor="middle" x="256.49" y="-374.3" font-family="Times,serif" font-size="14.00">rwrp.EntityEquipItemDrop</text>
</a>
</g>
</g>
<!-- rwrp.EntityEquipItemDrop&#45;&gt;rwrp.func_8018EAB4 -->
<g id="edge5" class="edge">
<title>rwrp.EntityEquipItemDrop&#45;&gt;rwrp.func_8018EAB4</title>
<path fill="none" stroke="black" d="M269.24,-359.93C292.78,-328.43 343.14,-261.03 370.63,-224.24"/>
<polygon fill="black" stroke="black" points="373.6,-226.12 376.78,-216.02 367.99,-221.93 373.6,-226.12"/>
<text text-anchor="middle" x="264.24" y="-348.73" font-family="Times,serif" font-size="14.00">2</text>
</g>
<!-- rwrp.EntityPrizeDrop -->
<g id="node7" class="node">
<title>rwrp.EntityPrizeDrop</title>
<g id="a_node7"><a xlink:href="rwrp.EntityPrizeDrop.svg" xlink:title="rwrp.EntityPrizeDrop">
<ellipse fill="green" stroke="black" cx="522.49" cy="-378" rx="111.58" ry="18"/>
<text text-anchor="middle" x="522.49" y="-374.3" font-family="Times,serif" font-size="14.00">rwrp.EntityPrizeDrop</text>
</a>
</g>
</g>
<!-- rwrp.EntityPrizeDrop&#45;&gt;rwrp.func_8018EAB4 -->
<g id="edge6" class="edge">
<title>rwrp.EntityPrizeDrop&#45;&gt;rwrp.func_8018EAB4</title>
<path fill="none" stroke="black" d="M509.74,-359.93C486.2,-328.43 435.84,-261.03 408.35,-224.24"/>
<polygon fill="black" stroke="black" points="410.99,-221.93 402.21,-216.02 405.39,-226.12 410.99,-221.93"/>
<text text-anchor="middle" x="504.74" y="-348.73" font-family="Times,serif" font-size="14.00">3</text>
</g>
</g>
</svg>
