<?xml version="1.0" encoding="UTF-8" standalone="no"?>
<!DOCTYPE svg PUBLIC "-//W3C//DTD SVG 1.1//EN"
 "http://www.w3.org/Graphics/SVG/1.1/DTD/svg11.dtd">
<!-- Generated by graphviz version 2.43.0 (0)
 -->
<!-- Title: rwrp.DestroyEntity Pages: 1 -->
<svg width="9204pt" height="404pt"
 viewBox="0.00 0.00 9204.33 404.00" xmlns="http://www.w3.org/2000/svg" xmlns:xlink="http://www.w3.org/1999/xlink">
<g id="graph0" class="graph" transform="scale(1 1) rotate(0) translate(4 400)">
<title>rwrp.DestroyEntity</title>
<polygon fill="white" stroke="transparent" points="-4,4 -4,-400 9200.33,-400 9200.33,4 -4,4"/>
<!-- rwrp.DestroyEntity -->
<g id="node1" class="node">
<title>rwrp.DestroyEntity</title>
<ellipse fill="green" stroke="black" cx="4828.09" cy="-198" rx="101.28" ry="18"/>
<text text-anchor="middle" x="4828.09" y="-194.3" font-family="Times,serif" font-size="14.00">rwrp.DestroyEntity</text>
</g>
<!-- dra.FreePrimitives -->
<g id="node2" class="node">
<title>dra.FreePrimitives</title>
<g id="a_node2"><a xlink:href="dra.FreePrimitives.svg" xlink:title="dra.FreePrimitives">
<ellipse fill="green" stroke="black" cx="4828.09" cy="-18" rx="98.58" ry="18"/>
<text text-anchor="middle" x="4828.09" y="-14.3" font-family="Times,serif" font-size="14.00">dra.FreePrimitives</text>
</a>
</g>
</g>
<!-- rwrp.DestroyEntity&#45;&gt;dra.FreePrimitives -->
<g id="edge1" class="edge">
<title>rwrp.DestroyEntity&#45;&gt;dra.FreePrimitives</title>
<path fill="none" stroke="black" d="M4828.09,-179.93C4828.09,-148.97 4828.09,-83.3 4828.09,-46.13"/>
<polygon fill="black" stroke="black" points="4831.59,-46.02 4828.09,-36.02 4824.59,-46.02 4831.59,-46.02"/>
<text text-anchor="middle" x="4823.09" y="-39.82" font-family="Times,serif" font-size="14.00">1</text>
</g>
<!-- rwrp.AllocEntity -->
<g id="node3" class="node">
<title>rwrp.AllocEntity</title>
<g id="a_node3"><a xlink:href="rwrp.AllocEntity.svg" xlink:title="rwrp.AllocEntity">
<ellipse fill="green" stroke="black" cx="87.09" cy="-378" rx="87.18" ry="18"/>
<text text-anchor="middle" x="87.09" y="-374.3" font-family="Times,serif" font-size="14.00">rwrp.AllocEntity</text>
</a>
</g>
</g>
<!-- rwrp.AllocEntity&#45;&gt;rwrp.DestroyEntity -->
<g id="edge2" class="edge">
<title>rwrp.AllocEntity&#45;&gt;rwrp.DestroyEntity</title>
<path fill="none" stroke="black" d="M147.34,-365C159.15,-363.02 171.48,-361.22 183.09,-360 1103.24,-263.07 4102.4,-210.6 4717.31,-200.72"/>
<polygon fill="black" stroke="black" points="4717.56,-204.22 4727.5,-200.56 4717.45,-197.22 4717.56,-204.22"/>
<text text-anchor="middle" x="142.34" y="-353.8" font-family="Times,serif" font-size="14.00">1</text>
</g>
<!-- rwrp.CollectGold -->
<g id="node4" class="node">
<title>rwrp.CollectGold</title>
<g id="a_node4"><a xlink:href="rwrp.CollectGold.svg" xlink:title="rwrp.CollectGold">
<ellipse fill="green" stroke="black" cx="282.09" cy="-378" rx="89.88" ry="18"/>
<text text-anchor="middle" x="282.09" y="-374.3" font-family="Times,serif" font-size="14.00">rwrp.CollectGold</text>
</a>
</g>
</g>
<!-- rwrp.CollectGold&#45;&gt;rwrp.DestroyEntity -->
<g id="edge3" class="edge">
<title>rwrp.CollectGold&#45;&gt;rwrp.DestroyEntity</title>
<path fill="none" stroke="black" d="M344.5,-364.98C356.6,-363.02 369.21,-361.23 381.09,-360 1259.87,-269.05 4117.98,-212.1 4717.25,-201"/>
<polygon fill="black" stroke="black" points="4717.68,-204.49 4727.61,-200.81 4717.55,-197.49 4717.68,-204.49"/>
<text text-anchor="middle" x="339.5" y="-353.78" font-family="Times,serif" font-size="14.00">1</text>
</g>
<!-- rwrp.CollectHeart -->
<g id="node5" class="node">
<title>rwrp.CollectHeart</title>
<g id="a_node5"><a xlink:href="rwrp.CollectHeart.svg" xlink:title="rwrp.CollectHeart">
<ellipse fill="green" stroke="black" cx="485.09" cy="-378" rx="94.78" ry="18"/>
<text text-anchor="middle" x="485.09" y="-374.3" font-family="Times,serif" font-size="14.00">rwrp.CollectHeart</text>
</a>
</g>
</g>
<!-- rwrp.CollectHeart&#45;&gt;rwrp.DestroyEntity -->
<g id="edge4" class="edge">
<title>rwrp.CollectHeart&#45;&gt;rwrp.DestroyEntity</title>
<path fill="none" stroke="black" d="M550.95,-364.97C563.57,-363.02 576.71,-361.24 589.09,-360 1424.81,-276.15 4136.48,-213.91 4717.75,-201.33"/>
<polygon fill="black" stroke="black" points="4717.88,-204.83 4727.8,-201.12 4717.73,-197.83 4717.88,-204.83"/>
<text text-anchor="middle" x="545.95" y="-353.77" font-family="Times,serif" font-size="14.00">1</text>
</g>
<!-- rwrp.CollectHeartVessel -->
<g id="node6" class="node">
<title>rwrp.CollectHeartVessel</title>
<g id="a_node6"><a xlink:href="rwrp.CollectHeartVessel.svg" xlink:title="rwrp.CollectHeartVessel">
<ellipse fill="green" stroke="black" cx="722.09" cy="-378" rx="124.28" ry="18"/>
<text text-anchor="middle" x="722.09" y="-374.3" font-family="Times,serif" font-size="14.00">rwrp.CollectHeartVessel</text>
</a>
</g>
</g>
<!-- rwrp.CollectHeartVessel&#45;&gt;rwrp.DestroyEntity -->
<g id="edge5" class="edge">
<title>rwrp.CollectHeartVessel&#45;&gt;rwrp.DestroyEntity</title>
<path fill="none" stroke="black" d="M807.83,-364.93C823.53,-363.04 839.78,-361.29 855.09,-360 2381.71,-231.74 4247.23,-204.86 4716.8,-199.98"/>
<polygon fill="black" stroke="black" points="4717.01,-203.48 4726.97,-199.88 4716.93,-196.48 4717.01,-203.48"/>
<text text-anchor="middle" x="802.83" y="-353.73" font-family="Times,serif" font-size="14.00">1</text>
</g>
<!-- rwrp.CollectLifeVessel -->
<g id="node7" class="node">
<title>rwrp.CollectLifeVessel</title>
<g id="a_node7"><a xlink:href="rwrp.CollectLifeVessel.svg" xlink:title="rwrp.CollectLifeVessel">
<ellipse fill="green" stroke="black" cx="979.09" cy="-378" rx="115.08" ry="18"/>
<text text-anchor="middle" x="979.09" y="-374.3" font-family="Times,serif" font-size="14.00">rwrp.CollectLifeVessel</text>
</a>
</g>
</g>
<!-- rwrp.CollectLifeVessel&#45;&gt;rwrp.DestroyEntity -->
<g id="edge6" class="edge">
<title>rwrp.CollectLifeVessel&#45;&gt;rwrp.DestroyEntity</title>
<path fill="none" stroke="black" d="M1058.68,-364.97C1073.42,-363.06 1088.7,-361.29 1103.09,-360 2526.7,-231.93 4265.86,-205.01 4717.02,-200.03"/>
<polygon fill="black" stroke="black" points="4717.15,-203.53 4727.12,-199.92 4717.08,-196.53 4717.15,-203.53"/>
<text text-anchor="middle" x="1053.68" y="-353.77" font-family="Times,serif" font-size="14.00">1</text>
</g>
<!-- rwrp.CollectSubweapon -->
<g id="node8" class="node">
<title>rwrp.CollectSubweapon</title>
<g id="a_node8"><a xlink:href="rwrp.CollectSubweapon.svg" xlink:title="rwrp.CollectSubweapon">
<ellipse fill="green" stroke="black" cx="1234.09" cy="-378" rx="122.38" ry="18"/>
<text text-anchor="middle" x="1234.09" y="-374.3" font-family="Times,serif" font-size="14.00">rwrp.CollectSubweapon</text>
</a>
</g>
</g>
<!-- rwrp.CollectSubweapon&#45;&gt;rwrp.DestroyEntity -->
<g id="edge7" class="edge">
<title>rwrp.CollectSubweapon&#45;&gt;rwrp.DestroyEntity</title>
<path fill="none" stroke="black" d="M1318.89,-364.96C1334.25,-363.07 1350.13,-361.32 1365.09,-360 2681.28,-244.2 4286.69,-208.61 4717.4,-200.82"/>
<polygon fill="black" stroke="black" points="4717.73,-204.32 4727.67,-200.64 4717.6,-197.32 4717.73,-204.32"/>
<text text-anchor="middle" x="1313.89" y="-353.76" font-family="Times,serif" font-size="14.00">1</text>
</g>
<!-- rwrp.CreateEntityFromCurrentEntity -->
<g id="node9" class="node">
<title>rwrp.CreateEntityFromCurrentEntity</title>
<g id="a_node9"><a xlink:href="rwrp.CreateEntityFromCurrentEntity.svg" xlink:title="rwrp.CreateEntityFromCurrentEntity">
<ellipse fill="green" stroke="black" cx="1561.09" cy="-378" rx="186.57" ry="18"/>
<text text-anchor="middle" x="1561.09" y="-374.3" font-family="Times,serif" font-size="14.00">rwrp.CreateEntityFromCurrentEntity</text>
</a>
</g>
</g>
<!-- rwrp.CreateEntityFromCurrentEntity&#45;&gt;rwrp.DestroyEntity -->
<g id="edge8" class="edge">
<title>rwrp.CreateEntityFromCurrentEntity&#45;&gt;rwrp.DestroyEntity</title>
<path fill="none" stroke="black" d="M1691.25,-365.08C1713.22,-363.25 1735.8,-361.48 1757.09,-360 2916.5,-279.35 4324.69,-219.45 4720.23,-203.32"/>
<polygon fill="black" stroke="black" points="4720.38,-206.82 4730.23,-202.91 4720.1,-199.82 4720.38,-206.82"/>
<text text-anchor="middle" x="1686.25" y="-353.88" font-family="Times,serif" font-size="14.00">1</text>
</g>
<!-- rwrp.CreateEntityFromEntity -->
<g id="node10" class="node">
<title>rwrp.CreateEntityFromEntity</title>
<g id="a_node10"><a xlink:href="rwrp.CreateEntityFromEntity.svg" xlink:title="rwrp.CreateEntityFromEntity">
<ellipse fill="green" stroke="black" cx="1915.09" cy="-378" rx="149.47" ry="18"/>
<text text-anchor="middle" x="1915.09" y="-374.3" font-family="Times,serif" font-size="14.00">rwrp.CreateEntityFromEntity</text>
</a>
</g>
</g>
<!-- rwrp.CreateEntityFromEntity&#45;&gt;rwrp.DestroyEntity -->
<g id="edge9" class="edge">
<title>rwrp.CreateEntityFromEntity&#45;&gt;rwrp.DestroyEntity</title>
<path fill="none" stroke="black" d="M2019.56,-365.03C2037.41,-363.2 2055.77,-361.44 2073.09,-360 3101.96,-274.64 4350.71,-218.91 4720.22,-203.41"/>
<polygon fill="black" stroke="black" points="4720.52,-206.9 4730.37,-202.98 4720.23,-199.9 4720.52,-206.9"/>
<text text-anchor="middle" x="2014.56" y="-353.83" font-family="Times,serif" font-size="14.00">1</text>
</g>
<!-- rwrp.CreateEntityFromLayout -->
<g id="node11" class="node">
<title>rwrp.CreateEntityFromLayout</title>
<g id="a_node11"><a xlink:href="rwrp.CreateEntityFromLayout.svg" xlink:title="rwrp.CreateEntityFromLayout">
<ellipse fill="green" stroke="black" cx="2235.09" cy="-378" rx="152.97" ry="18"/>
<text text-anchor="middle" x="2235.09" y="-374.3" font-family="Times,serif" font-size="14.00">rwrp.CreateEntityFromLayout</text>
</a>
</g>
</g>
<!-- rwrp.CreateEntityFromLayout&#45;&gt;rwrp.DestroyEntity -->
<g id="edge10" class="edge">
<title>rwrp.CreateEntityFromLayout&#45;&gt;rwrp.DestroyEntity</title>
<path fill="none" stroke="black" d="M2342.66,-365.13C2360.81,-363.29 2379.48,-361.51 2397.09,-360 3295.67,-283.13 4383.81,-222.62 4722.4,-204.55"/>
<polygon fill="black" stroke="black" points="4722.64,-208.04 4732.44,-204.01 4722.26,-201.05 4722.64,-208.04"/>
<text text-anchor="middle" x="2337.66" y="-353.93" font-family="Times,serif" font-size="14.00">1</text>
</g>
<!-- rwrp.DestroyCurrentEntity -->
<g id="node12" class="node">
<title>rwrp.DestroyCurrentEntity</title>
<g id="a_node12"><a xlink:href="rwrp.DestroyCurrentEntity.svg" xlink:title="rwrp.DestroyCurrentEntity">
<ellipse fill="green" stroke="black" cx="2544.09" cy="-378" rx="137.58" ry="18"/>
<text text-anchor="middle" x="2544.09" y="-374.3" font-family="Times,serif" font-size="14.00">rwrp.DestroyCurrentEntity</text>
</a>
</g>
</g>
<!-- rwrp.DestroyCurrentEntity&#45;&gt;rwrp.DestroyEntity -->
<g id="edge11" class="edge">
<title>rwrp.DestroyCurrentEntity&#45;&gt;rwrp.DestroyEntity</title>
<path fill="none" stroke="black" d="M2641.29,-365.2C2657.9,-363.35 2674.98,-361.54 2691.09,-360 3470.9,-285.56 4413.51,-224.66 4723.66,-205.38"/>
<polygon fill="black" stroke="black" points="4724.22,-208.86 4733.98,-204.74 4723.78,-201.87 4724.22,-208.86"/>
<text text-anchor="middle" x="2636.29" y="-354" font-family="Times,serif" font-size="14.00">1</text>
</g>
<!-- rwrp.DestroyEntitiesFromIndex -->
<g id="node13" class="node">
<title>rwrp.DestroyEntitiesFromIndex</title>
<g id="a_node13"><a xlink:href="rwrp.DestroyEntitiesFromIndex.svg" xlink:title="rwrp.DestroyEntitiesFromIndex">
<ellipse fill="green" stroke="black" cx="2860.09" cy="-378" rx="159.77" ry="18"/>
<text text-anchor="middle" x="2860.09" y="-374.3" font-family="Times,serif" font-size="14.00">rwrp.DestroyEntitiesFromIndex</text>
</a>
</g>
</g>
<!-- rwrp.DestroyEntitiesFromIndex&#45;&gt;rwrp.DestroyEntity -->
<g id="edge12" class="edge">
<title>rwrp.DestroyEntitiesFromIndex&#45;&gt;rwrp.DestroyEntity</title>
<path fill="none" stroke="black" d="M2973.94,-365.3C2992.05,-363.49 3010.58,-361.67 3028.09,-360 3676.05,-298.24 4455.91,-230.85 4728.37,-207.51"/>
<polygon fill="black" stroke="black" points="4728.96,-210.97 4738.63,-206.63 4728.36,-204 4728.96,-210.97"/>
<text text-anchor="middle" x="2968.94" y="-354.1" font-family="Times,serif" font-size="14.00">1</text>
</g>
<!-- rwrp.EntityBigRedFireball -->
<g id="node14" class="node">
<title>rwrp.EntityBigRedFireball</title>
<g id="a_node14"><a xlink:href="rwrp.EntityBigRedFireball.svg" xlink:title="rwrp.EntityBigRedFireball">
<ellipse fill="green" stroke="black" cx="3172.09" cy="-378" rx="134.58" ry="18"/>
<text text-anchor="middle" x="3172.09" y="-374.3" font-family="Times,serif" font-size="14.00">rwrp.EntityBigRedFireball</text>
</a>
</g>
</g>
<!-- rwrp.EntityBigRedFireball&#45;&gt;rwrp.DestroyEntity -->
<g id="edge13" class="edge">
<title>rwrp.EntityBigRedFireball&#45;&gt;rwrp.DestroyEntity</title>
<path fill="none" stroke="black" d="M3268.22,-365.41C3283.89,-363.57 3299.94,-361.71 3315.09,-360 3850.44,-299.7 4493.06,-233.29 4732.27,-208.78"/>
<polygon fill="black" stroke="black" points="4732.73,-212.25 4742.32,-207.75 4732.02,-205.29 4732.73,-212.25"/>
<text text-anchor="middle" x="3263.22" y="-354.21" font-family="Times,serif" font-size="14.00">1</text>
</g>
<!-- rwrp.EntityDamageDisplay -->
<g id="node15" class="node">
<title>rwrp.EntityDamageDisplay</title>
<g id="a_node15"><a xlink:href="rwrp.EntityDamageDisplay.svg" xlink:title="rwrp.EntityDamageDisplay">
<ellipse fill="red" stroke="black" cx="3462.09" cy="-378" rx="137.58" ry="18"/>
<text text-anchor="middle" x="3462.09" y="-374.3" font-family="Times,serif" font-size="14.00">rwrp.EntityDamageDisplay</text>
</a>
</g>
</g>
<!-- rwrp.EntityDamageDisplay&#45;&gt;rwrp.DestroyEntity -->
<g id="edge14" class="edge">
<title>rwrp.EntityDamageDisplay&#45;&gt;rwrp.DestroyEntity</title>
<path fill="none" stroke="black" d="M3555.98,-364.77C3807.32,-332.01 4492.99,-242.67 4738.87,-210.63"/>
<polygon fill="black" stroke="black" points="4739.37,-214.09 4748.83,-209.33 4738.47,-207.15 4739.37,-214.09"/>
<text text-anchor="middle" x="3550.98" y="-353.57" font-family="Times,serif" font-size="14.00">1</text>
</g>
<!-- rwrp.EntityEnemyBlood -->
<g id="node16" class="node">
<title>rwrp.EntityEnemyBlood</title>
<g id="a_node16"><a xlink:href="rwrp.EntityEnemyBlood.svg" xlink:title="rwrp.EntityEnemyBlood">
<ellipse fill="green" stroke="black" cx="3741.09" cy="-378" rx="123.48" ry="18"/>
<text text-anchor="middle" x="3741.09" y="-374.3" font-family="Times,serif" font-size="14.00">rwrp.EntityEnemyBlood</text>
</a>
</g>
</g>
<!-- rwrp.EntityEnemyBlood&#45;&gt;rwrp.DestroyEntity -->
<g id="edge15" class="edge">
<title>rwrp.EntityEnemyBlood&#45;&gt;rwrp.DestroyEntity</title>
<path fill="none" stroke="black" d="M3820.14,-364.06C4019.88,-331.35 4543.35,-245.63 4746.16,-212.42"/>
<polygon fill="black" stroke="black" points="4746.85,-215.85 4756.16,-210.78 4745.72,-208.94 4746.85,-215.85"/>
<text text-anchor="middle" x="3815.14" y="-352.86" font-family="Times,serif" font-size="14.00">1</text>
</g>
<!-- rwrp.EntityEquipItemDrop -->
<g id="node17" class="node">
<title>rwrp.EntityEquipItemDrop</title>
<g id="a_node17"><a xlink:href="rwrp.EntityEquipItemDrop.svg" xlink:title="rwrp.EntityEquipItemDrop">
<ellipse fill="red" stroke="black" cx="4019.09" cy="-378" rx="136.48" ry="18"/>
<text text-anchor="middle" x="4019.09" y="-374.3" font-family="Times,serif" font-size="14.00">rwrp.EntityEquipItemDrop</text>
</a>
</g>
</g>
<!-- rwrp.EntityEquipItemDrop&#45;&gt;rwrp.DestroyEntity -->
<g id="edge16" class="edge">
<title>rwrp.EntityEquipItemDrop&#45;&gt;rwrp.DestroyEntity</title>
<path fill="none" stroke="black" d="M4085.98,-362.28C4236.84,-329.09 4602.43,-248.65 4757.1,-214.62"/>
<polygon fill="black" stroke="black" points="4757.96,-218.01 4766.97,-212.45 4756.46,-211.18 4757.96,-218.01"/>
<text text-anchor="middle" x="4080.98" y="-351.08" font-family="Times,serif" font-size="14.00">2</text>
</g>
<!-- rwrp.EntityExplosion -->
<g id="node18" class="node">
<title>rwrp.EntityExplosion</title>
<g id="a_node18"><a xlink:href="rwrp.EntityExplosion.svg" xlink:title="rwrp.EntityExplosion">
<ellipse fill="red" stroke="black" cx="4284.09" cy="-378" rx="110.48" ry="18"/>
<text text-anchor="middle" x="4284.09" y="-374.3" font-family="Times,serif" font-size="14.00">rwrp.EntityExplosion</text>
</a>
</g>
</g>
<!-- rwrp.EntityExplosion&#45;&gt;rwrp.DestroyEntity -->
<g id="edge17" class="edge">
<title>rwrp.EntityExplosion&#45;&gt;rwrp.DestroyEntity</title>
<path fill="none" stroke="black" d="M4330.94,-361.67C4430.91,-328.96 4664.75,-252.45 4772.24,-217.27"/>
<polygon fill="black" stroke="black" points="4773.52,-220.54 4781.93,-214.1 4771.34,-213.89 4773.52,-220.54"/>
<text text-anchor="middle" x="4325.94" y="-350.47" font-family="Times,serif" font-size="14.00">1</text>
</g>
<!-- rwrp.EntityExplosionSpawn -->
<g id="node19" class="node">
<title>rwrp.EntityExplosionSpawn</title>
<g id="a_node19"><a xlink:href="rwrp.EntityExplosionSpawn.svg" xlink:title="rwrp.EntityExplosionSpawn">
<ellipse fill="green" stroke="black" cx="4554.09" cy="-378" rx="141.88" ry="18"/>
<text text-anchor="middle" x="4554.09" y="-374.3" font-family="Times,serif" font-size="14.00">rwrp.EntityExplosionSpawn</text>
</a>
</g>
</g>
<!-- rwrp.EntityExplosionSpawn&#45;&gt;rwrp.DestroyEntity -->
<g id="edge18" class="edge">
<title>rwrp.EntityExplosionSpawn&#45;&gt;rwrp.DestroyEntity</title>
<path fill="none" stroke="black" d="M4579.87,-360.25C4629.57,-327.97 4738.62,-257.13 4794.15,-221.05"/>
<polygon fill="black" stroke="black" points="4796.1,-223.95 4802.58,-215.57 4792.29,-218.08 4796.1,-223.95"/>
<text text-anchor="middle" x="4574.87" y="-349.05" font-family="Times,serif" font-size="14.00">1</text>
</g>
<!-- rwrp.EntityHeartDrop -->
<g id="node20" class="node">
<title>rwrp.EntityHeartDrop</title>
<g id="a_node20"><a xlink:href="rwrp.EntityHeartDrop.svg" xlink:title="rwrp.EntityHeartDrop">
<ellipse fill="red" stroke="black" cx="4828.09" cy="-378" rx="114.28" ry="18"/>
<text text-anchor="middle" x="4828.09" y="-374.3" font-family="Times,serif" font-size="14.00">rwrp.EntityHeartDrop</text>
</a>
</g>
</g>
<!-- rwrp.EntityHeartDrop&#45;&gt;rwrp.DestroyEntity -->
<g id="edge19" class="edge">
<title>rwrp.EntityHeartDrop&#45;&gt;rwrp.DestroyEntity</title>
<path fill="none" stroke="black" d="M4828.09,-359.93C4828.09,-328.97 4828.09,-263.3 4828.09,-226.13"/>
<polygon fill="black" stroke="black" points="4831.59,-226.02 4828.09,-216.02 4824.59,-226.02 4831.59,-226.02"/>
<text text-anchor="middle" x="4823.09" y="-348.73" font-family="Times,serif" font-size="14.00">1</text>
</g>
<!-- rwrp.EntityIntenseExplosion -->
<g id="node21" class="node">
<title>rwrp.EntityIntenseExplosion</title>
<g id="a_node21"><a xlink:href="rwrp.EntityIntenseExplosion.svg" xlink:title="rwrp.EntityIntenseExplosion">
<ellipse fill="green" stroke="black" cx="5105.09" cy="-378" rx="144.87" ry="18"/>
<text text-anchor="middle" x="5105.09" y="-374.3" font-family="Times,serif" font-size="14.00">rwrp.EntityIntenseExplosion</text>
</a>
</g>
</g>
<!-- rwrp.EntityIntenseExplosion&#45;&gt;rwrp.DestroyEntity -->
<g id="edge20" class="edge">
<title>rwrp.EntityIntenseExplosion&#45;&gt;rwrp.DestroyEntity</title>
<path fill="none" stroke="black" d="M5079.03,-360.25C5028.79,-327.97 4918.55,-257.13 4862.41,-221.05"/>
<polygon fill="black" stroke="black" points="4864.19,-218.03 4853.88,-215.57 4860.4,-223.92 4864.19,-218.03"/>
<text text-anchor="middle" x="5074.03" y="-349.05" font-family="Times,serif" font-size="14.00">1</text>
</g>
<!-- rwrp.EntityMessageBox -->
<g id="node22" class="node">
<title>rwrp.EntityMessageBox</title>
<g id="a_node22"><a xlink:href="rwrp.EntityMessageBox.svg" xlink:title="rwrp.EntityMessageBox">
<ellipse fill="green" stroke="black" cx="5391.09" cy="-378" rx="123.48" ry="18"/>
<text text-anchor="middle" x="5391.09" y="-374.3" font-family="Times,serif" font-size="14.00">rwrp.EntityMessageBox</text>
</a>
</g>
</g>
<!-- rwrp.EntityMessageBox&#45;&gt;rwrp.DestroyEntity -->
<g id="edge21" class="edge">
<title>rwrp.EntityMessageBox&#45;&gt;rwrp.DestroyEntity</title>
<path fill="none" stroke="black" d="M5341.62,-361.36C5237.44,-328.42 4995.93,-252.07 4885.31,-217.09"/>
<polygon fill="black" stroke="black" points="4886.24,-213.71 4875.65,-214.04 4884.13,-220.39 4886.24,-213.71"/>
<text text-anchor="middle" x="5336.62" y="-350.16" font-family="Times,serif" font-size="14.00">1</text>
</g>
<!-- rwrp.EntityOlroxDrool -->
<g id="node23" class="node">
<title>rwrp.EntityOlroxDrool</title>
<g id="a_node23"><a xlink:href="rwrp.EntityOlroxDrool.svg" xlink:title="rwrp.EntityOlroxDrool">
<ellipse fill="green" stroke="black" cx="5648.09" cy="-378" rx="115.88" ry="18"/>
<text text-anchor="middle" x="5648.09" y="-374.3" font-family="Times,serif" font-size="14.00">rwrp.EntityOlroxDrool</text>
</a>
</g>
</g>
<!-- rwrp.EntityOlroxDrool&#45;&gt;rwrp.DestroyEntity -->
<g id="edge22" class="edge">
<title>rwrp.EntityOlroxDrool&#45;&gt;rwrp.DestroyEntity</title>
<path fill="none" stroke="black" d="M5583.75,-363.03C5432.92,-330.29 5057.44,-248.79 4899.69,-214.54"/>
<polygon fill="black" stroke="black" points="4900.13,-211.06 4889.62,-212.36 4898.65,-217.9 4900.13,-211.06"/>
<text text-anchor="middle" x="5578.75" y="-351.83" font-family="Times,serif" font-size="14.00">1</text>
</g>
<!-- rwrp.EntityPrizeDrop -->
<g id="node24" class="node">
<title>rwrp.EntityPrizeDrop</title>
<g id="a_node24"><a xlink:href="rwrp.EntityPrizeDrop.svg" xlink:title="rwrp.EntityPrizeDrop">
<ellipse fill="red" stroke="black" cx="5893.09" cy="-378" rx="111.58" ry="18"/>
<text text-anchor="middle" x="5893.09" y="-374.3" font-family="Times,serif" font-size="14.00">rwrp.EntityPrizeDrop</text>
</a>
</g>
</g>
<!-- rwrp.EntityPrizeDrop&#45;&gt;rwrp.DestroyEntity -->
<g id="edge23" class="edge">
<title>rwrp.EntityPrizeDrop&#45;&gt;rwrp.DestroyEntity</title>
<path fill="none" stroke="black" d="M5818.63,-364.55C5625.41,-332.26 5109.16,-245.98 4908.98,-212.52"/>
<polygon fill="black" stroke="black" points="4909.56,-209.07 4899.12,-210.87 4908.4,-215.97 4909.56,-209.07"/>
<text text-anchor="middle" x="5813.63" y="-353.35" font-family="Times,serif" font-size="14.00">2</text>
</g>
<!-- rwrp.EntityRelicOrb -->
<g id="node25" class="node">
<title>rwrp.EntityRelicOrb</title>
<g id="a_node25"><a xlink:href="rwrp.EntityRelicOrb.svg" xlink:title="rwrp.EntityRelicOrb">
<ellipse fill="green" stroke="black" cx="6128.09" cy="-378" rx="105.08" ry="18"/>
<text text-anchor="middle" x="6128.09" y="-374.3" font-family="Times,serif" font-size="14.00">rwrp.EntityRelicOrb</text>
</a>
</g>
</g>
<!-- rwrp.EntityRelicOrb&#45;&gt;rwrp.DestroyEntity -->
<g id="edge24" class="edge">
<title>rwrp.EntityRelicOrb&#45;&gt;rwrp.DestroyEntity</title>
<path fill="none" stroke="black" d="M6052.07,-365.52C6039.39,-363.65 6026.37,-361.75 6014.09,-360 5604.39,-301.65 5114.34,-236.64 4916.93,-210.66"/>
<polygon fill="black" stroke="black" points="4917.27,-207.17 4906.9,-209.34 4916.36,-214.11 4917.27,-207.17"/>
<text text-anchor="middle" x="6047.07" y="-354.32" font-family="Times,serif" font-size="14.00">1</text>
</g>
<!-- rwrp.EntitySoulStealOrb -->
<g id="node26" class="node">
<title>rwrp.EntitySoulStealOrb</title>
<g id="a_node26"><a xlink:href="rwrp.EntitySoulStealOrb.svg" xlink:title="rwrp.EntitySoulStealOrb">
<ellipse fill="green" stroke="black" cx="6378.09" cy="-378" rx="126.98" ry="18"/>
<text text-anchor="middle" x="6378.09" y="-374.3" font-family="Times,serif" font-size="14.00">rwrp.EntitySoulStealOrb</text>
</a>
</g>
</g>
<!-- rwrp.EntitySoulStealOrb&#45;&gt;rwrp.DestroyEntity -->
<g id="edge25" class="edge">
<title>rwrp.EntitySoulStealOrb&#45;&gt;rwrp.DestroyEntity</title>
<path fill="none" stroke="black" d="M6287.03,-365.48C6272.02,-363.62 6256.62,-361.74 6242.09,-360 5744.97,-300.63 5148.9,-234.37 4922,-209.33"/>
<polygon fill="black" stroke="black" points="4922.12,-205.82 4911.8,-208.21 4921.36,-212.78 4922.12,-205.82"/>
<text text-anchor="middle" x="6282.03" y="-354.28" font-family="Times,serif" font-size="14.00">1</text>
</g>
<!-- rwrp.EntityStageNamePopup -->
<g id="node27" class="node">
<title>rwrp.EntityStageNamePopup</title>
<g id="a_node27"><a xlink:href="rwrp.EntityStageNamePopup.svg" xlink:title="rwrp.EntityStageNamePopup">
<ellipse fill="green" stroke="black" cx="6670.09" cy="-378" rx="147.57" ry="18"/>
<text text-anchor="middle" x="6670.09" y="-374.3" font-family="Times,serif" font-size="14.00">rwrp.EntityStageNamePopup</text>
</a>
</g>
</g>
<!-- rwrp.EntityStageNamePopup&#45;&gt;rwrp.DestroyEntity -->
<g id="edge26" class="edge">
<title>rwrp.EntityStageNamePopup&#45;&gt;rwrp.DestroyEntity</title>
<path fill="none" stroke="black" d="M6564.8,-365.33C6547.85,-363.51 6530.49,-361.68 6514.09,-360 5911.16,-298.36 5186.13,-231.61 4926.5,-207.93"/>
<polygon fill="black" stroke="black" points="4926.62,-204.43 4916.34,-207.01 4925.98,-211.4 4926.62,-204.43"/>
<text text-anchor="middle" x="6559.8" y="-354.13" font-family="Times,serif" font-size="14.00">1</text>
</g>
<!-- rwrp.EntityUnkId14 -->
<g id="node28" class="node">
<title>rwrp.EntityUnkId14</title>
<g id="a_node28"><a xlink:href="rwrp.EntityUnkId14.svg" xlink:title="rwrp.EntityUnkId14">
<ellipse fill="green" stroke="black" cx="6940.09" cy="-378" rx="104.78" ry="18"/>
<text text-anchor="middle" x="6940.09" y="-374.3" font-family="Times,serif" font-size="14.00">rwrp.EntityUnkId14</text>
</a>
</g>
</g>
<!-- rwrp.EntityUnkId14&#45;&gt;rwrp.DestroyEntity -->
<g id="edge27" class="edge">
<title>rwrp.EntityUnkId14&#45;&gt;rwrp.DestroyEntity</title>
<path fill="none" stroke="black" d="M6866.34,-365.16C6853.28,-363.27 6839.8,-361.47 6827.09,-360 6105.2,-276.73 5231.69,-222.22 4933.62,-204.93"/>
<polygon fill="black" stroke="black" points="4933.45,-201.41 4923.26,-204.33 4933.04,-208.4 4933.45,-201.41"/>
<text text-anchor="middle" x="6861.34" y="-353.96" font-family="Times,serif" font-size="14.00">1</text>
</g>
<!-- rwrp.EntityUnkId15 -->
<g id="node29" class="node">
<title>rwrp.EntityUnkId15</title>
<g id="a_node29"><a xlink:href="rwrp.EntityUnkId15.svg" xlink:title="rwrp.EntityUnkId15">
<ellipse fill="red" stroke="black" cx="7167.09" cy="-378" rx="104.78" ry="18"/>
<text text-anchor="middle" x="7167.09" y="-374.3" font-family="Times,serif" font-size="14.00">rwrp.EntityUnkId15</text>
</a>
</g>
</g>
<!-- rwrp.EntityUnkId15&#45;&gt;rwrp.DestroyEntity -->
<g id="edge28" class="edge">
<title>rwrp.EntityUnkId15&#45;&gt;rwrp.DestroyEntity</title>
<path fill="none" stroke="black" d="M7093.65,-365.11C7080.5,-363.22 7066.91,-361.43 7054.09,-360 6241.94,-269.67 5257.19,-218.91 4935.4,-203.82"/>
<polygon fill="black" stroke="black" points="4935.31,-200.31 4925.16,-203.34 4934.98,-207.3 4935.31,-200.31"/>
<text text-anchor="middle" x="7088.65" y="-353.91" font-family="Times,serif" font-size="14.00">1</text>
</g>
<!-- rwrp.HitDetection -->
<g id="node30" class="node">
<title>rwrp.HitDetection</title>
<g id="a_node30"><a xlink:href="rwrp.HitDetection.svg" xlink:title="rwrp.HitDetection">
<ellipse fill="green" stroke="black" cx="7385.09" cy="-378" rx="95.58" ry="18"/>
<text text-anchor="middle" x="7385.09" y="-374.3" font-family="Times,serif" font-size="14.00">rwrp.HitDetection</text>
</a>
</g>
</g>
<!-- rwrp.HitDetection&#45;&gt;rwrp.DestroyEntity -->
<g id="edge29" class="edge">
<title>rwrp.HitDetection&#45;&gt;rwrp.DestroyEntity</title>
<path fill="none" stroke="black" d="M7318.37,-365.12C7306.01,-363.19 7293.18,-361.38 7281.09,-360 6379.09,-256.92 5282.37,-213.98 4937.36,-202.41"/>
<polygon fill="black" stroke="black" points="4937.24,-198.9 4927.13,-202.07 4937,-205.9 4937.24,-198.9"/>
<text text-anchor="middle" x="7313.37" y="-353.92" font-family="Times,serif" font-size="14.00">1</text>
</g>
<!-- rwrp.ReplaceBreakableWithItemDrop -->
<g id="node31" class="node">
<title>rwrp.ReplaceBreakableWithItemDrop</title>
<g id="a_node31"><a xlink:href="rwrp.ReplaceBreakableWithItemDrop.svg" xlink:title="rwrp.ReplaceBreakableWithItemDrop">
<ellipse fill="green" stroke="black" cx="7684.09" cy="-378" rx="185.77" ry="18"/>
<text text-anchor="middle" x="7684.09" y="-374.3" font-family="Times,serif" font-size="14.00">rwrp.ReplaceBreakableWithItemDrop</text>
</a>
</g>
</g>
<!-- rwrp.ReplaceBreakableWithItemDrop&#45;&gt;rwrp.DestroyEntity -->
<g id="edge30" class="edge">
<title>rwrp.ReplaceBreakableWithItemDrop&#45;&gt;rwrp.DestroyEntity</title>
<path fill="none" stroke="black" d="M7553.95,-365.11C7532.62,-363.3 7510.74,-361.53 7490.09,-360 6497.1,-286.48 5293.86,-222.86 4934.38,-204.4"/>
<polygon fill="black" stroke="black" points="4934.42,-200.89 4924.25,-203.88 4934.06,-207.88 4934.42,-200.89"/>
<text text-anchor="middle" x="7548.95" y="-353.91" font-family="Times,serif" font-size="14.00">1</text>
</g>
<!-- rwrp.Update -->
<g id="node32" class="node">
<title>rwrp.Update</title>
<g id="a_node32"><a xlink:href="rwrp.Update.svg" xlink:title="rwrp.Update">
<ellipse fill="green" stroke="black" cx="7958.09" cy="-378" rx="70.39" ry="18"/>
<text text-anchor="middle" x="7958.09" y="-374.3" font-family="Times,serif" font-size="14.00">rwrp.Update</text>
</a>
</g>
</g>
<!-- rwrp.Update&#45;&gt;rwrp.DestroyEntity -->
<g id="edge31" class="edge">
<title>rwrp.Update&#45;&gt;rwrp.DestroyEntity</title>
<path fill="none" stroke="black" d="M7908.58,-365.08C7898.85,-363.1 7888.69,-361.28 7879.09,-360 6738.44,-208.16 5339.99,-198.05 4939.82,-198.5"/>
<polygon fill="black" stroke="black" points="4939.69,-195 4929.7,-198.51 4939.7,-202 4939.69,-195"/>
<text text-anchor="middle" x="7903.58" y="-353.88" font-family="Times,serif" font-size="14.00">1</text>
</g>
<!-- rwrp.func_80189E9C -->
<g id="node33" class="node">
<title>rwrp.func_80189E9C</title>
<g id="a_node33"><a xlink:href="rwrp.func_80189E9C.svg" xlink:title="rwrp.func_80189E9C">
<ellipse fill="red" stroke="black" cx="8155.09" cy="-378" rx="109.38" ry="18"/>
<text text-anchor="middle" x="8155.09" y="-374.3" font-family="Times,serif" font-size="14.00">rwrp.func_80189E9C</text>
</a>
</g>
</g>
<!-- rwrp.func_80189E9C&#45;&gt;rwrp.DestroyEntity -->
<g id="edge32" class="edge">
<title>rwrp.func_80189E9C&#45;&gt;rwrp.DestroyEntity</title>
<path fill="none" stroke="black" d="M8079.36,-365.03C8065.34,-363.11 8050.79,-361.33 8037.09,-360 6826.1,-242.64 5349.21,-208.39 4938.58,-200.82"/>
<polygon fill="black" stroke="black" points="4938.56,-197.32 4928.49,-200.64 4938.43,-204.32 4938.56,-197.32"/>
<text text-anchor="middle" x="8074.36" y="-353.83" font-family="Times,serif" font-size="14.00">1</text>
</g>
<!-- rwrp.func_8018C948 -->
<g id="node34" class="node">
<title>rwrp.func_8018C948</title>
<g id="a_node34"><a xlink:href="rwrp.func_8018C948.svg" xlink:title="rwrp.func_8018C948">
<ellipse fill="red" stroke="black" cx="8391.09" cy="-378" rx="108.58" ry="18"/>
<text text-anchor="middle" x="8391.09" y="-374.3" font-family="Times,serif" font-size="14.00">rwrp.func_8018C948</text>
</a>
</g>
</g>
<!-- rwrp.func_8018C948&#45;&gt;rwrp.DestroyEntity -->
<g id="edge33" class="edge">
<title>rwrp.func_8018C948&#45;&gt;rwrp.DestroyEntity</title>
<path fill="none" stroke="black" d="M8315.68,-365.03C8301.56,-363.1 8286.9,-361.31 8273.09,-360 6965.7,-235.57 5369.62,-206.17 4939.35,-200.3"/>
<polygon fill="black" stroke="black" points="4939.14,-196.8 4929.1,-200.17 4939.05,-203.8 4939.14,-196.8"/>
<text text-anchor="middle" x="8310.68" y="-353.83" font-family="Times,serif" font-size="14.00">1</text>
</g>
<!-- rwrp.func_80191490 -->
<g id="node35" class="node">
<title>rwrp.func_80191490</title>
<g id="a_node35"><a xlink:href="rwrp.func_80191490.svg" xlink:title="rwrp.func_80191490">
<ellipse fill="red" stroke="black" cx="8625.09" cy="-378" rx="107.48" ry="18"/>
<text text-anchor="middle" x="8625.09" y="-374.3" font-family="Times,serif" font-size="14.00">rwrp.func_80191490</text>
</a>
</g>
</g>
<!-- rwrp.func_80191490&#45;&gt;rwrp.DestroyEntity -->
<g id="edge34" class="edge">
<title>rwrp.func_80191490&#45;&gt;rwrp.DestroyEntity</title>
<path fill="none" stroke="black" d="M8550.97,-364.99C8537.08,-363.07 8522.67,-361.29 8509.09,-360 7104.49,-226.71 5387.71,-203.59 4939.4,-199.74"/>
<polygon fill="black" stroke="black" points="4939.39,-196.24 4929.36,-199.65 4939.33,-203.24 4939.39,-196.24"/>
<text text-anchor="middle" x="8545.97" y="-353.79" font-family="Times,serif" font-size="14.00">1</text>
</g>
<!-- rwrp.func_80192348 -->
<g id="node36" class="node">
<title>rwrp.func_80192348</title>
<g id="a_node36"><a xlink:href="rwrp.func_80192348.svg" xlink:title="rwrp.func_80192348">
<ellipse fill="red" stroke="black" cx="8857.09" cy="-378" rx="107.48" ry="18"/>
<text text-anchor="middle" x="8857.09" y="-374.3" font-family="Times,serif" font-size="14.00">rwrp.func_80192348</text>
</a>
</g>
</g>
<!-- rwrp.func_80192348&#45;&gt;rwrp.DestroyEntity -->
<g id="edge35" class="edge">
<title>rwrp.func_80192348&#45;&gt;rwrp.DestroyEntity</title>
<path fill="none" stroke="black" d="M8782.97,-364.96C8769.09,-363.04 8754.67,-361.27 8741.09,-360 7240.44,-219.55 5404.62,-201.62 4939.32,-199.33"/>
<polygon fill="black" stroke="black" points="4939.27,-195.83 4929.25,-199.28 4939.23,-202.83 4939.27,-195.83"/>
<text text-anchor="middle" x="8777.97" y="-353.76" font-family="Times,serif" font-size="14.00">1</text>
</g>
<!-- rwrp.func_80192414 -->
<g id="node37" class="node">
<title>rwrp.func_80192414</title>
<g id="a_node37"><a xlink:href="rwrp.func_80192414.svg" xlink:title="rwrp.func_80192414">
<ellipse fill="red" stroke="black" cx="9089.09" cy="-378" rx="107.48" ry="18"/>
<text text-anchor="middle" x="9089.09" y="-374.3" font-family="Times,serif" font-size="14.00">rwrp.func_80192414</text>
</a>
</g>
</g>
<!-- rwrp.func_80192414&#45;&gt;rwrp.DestroyEntity -->
<g id="edge36" class="edge">
<title>rwrp.func_80192414&#45;&gt;rwrp.DestroyEntity</title>
<path fill="none" stroke="black" d="M9014.97,-364.94C9001.09,-363.02 8986.67,-361.26 8973.09,-360 7376.37,-212.41 5421.5,-199.76 4939.43,-198.97"/>
<polygon fill="black" stroke="black" points="4939.35,-195.47 4929.34,-198.96 4939.34,-202.47 4939.35,-195.47"/>
<text text-anchor="middle" x="9009.97" y="-353.74" font-family="Times,serif" font-size="14.00">1</text>
</g>
</g>
</svg>
