<?xml version="1.0" encoding="UTF-8" standalone="no"?>
<!DOCTYPE svg PUBLIC "-//W3C//DTD SVG 1.1//EN"
 "http://www.w3.org/Graphics/SVG/1.1/DTD/svg11.dtd">
<!-- Generated by graphviz version 2.43.0 (0)
 -->
<!-- Title: rwrp.InitializeEntity Pages: 1 -->
<svg width="5362pt" height="224pt"
 viewBox="0.00 0.00 5362.03 224.00" xmlns="http://www.w3.org/2000/svg" xmlns:xlink="http://www.w3.org/1999/xlink">
<g id="graph0" class="graph" transform="scale(1 1) rotate(0) translate(4 220)">
<title>rwrp.InitializeEntity</title>
<polygon fill="white" stroke="transparent" points="-4,4 -4,-220 5358.03,-220 5358.03,4 -4,4"/>
<!-- rwrp.InitializeEntity -->
<g id="node1" class="node">
<title>rwrp.InitializeEntity</title>
<ellipse fill="red" stroke="black" cx="2784.54" cy="-18" rx="105.08" ry="18"/>
<text text-anchor="middle" x="2784.54" y="-14.3" font-family="Times,serif" font-size="14.00">rwrp.InitializeEntity</text>
</g>
<!-- rwrp.EntityBigRedFireball -->
<g id="node2" class="node">
<title>rwrp.EntityBigRedFireball</title>
<g id="a_node2"><a xlink:href="rwrp.EntityBigRedFireball.svg" xlink:title="rwrp.EntityBigRedFireball">
<ellipse fill="green" stroke="black" cx="134.54" cy="-198" rx="134.58" ry="18"/>
<text text-anchor="middle" x="134.54" y="-194.3" font-family="Times,serif" font-size="14.00">rwrp.EntityBigRedFireball</text>
</a>
</g>
</g>
<!-- rwrp.EntityBigRedFireball&#45;&gt;rwrp.InitializeEntity -->
<g id="edge1" class="edge">
<title>rwrp.EntityBigRedFireball&#45;&gt;rwrp.InitializeEntity</title>
<path fill="none" stroke="black" d="M228.69,-185.07C244.96,-183.22 261.73,-181.45 277.54,-180 1202.22,-95.41 2322.81,-40.16 2673.92,-23.96"/>
<polygon fill="black" stroke="black" points="2674.25,-27.45 2684.08,-23.49 2673.93,-20.46 2674.25,-27.45"/>
<text text-anchor="middle" x="223.69" y="-173.87" font-family="Times,serif" font-size="14.00">1</text>
</g>
<!-- rwrp.EntityBreakable -->
<g id="node3" class="node">
<title>rwrp.EntityBreakable</title>
<g id="a_node3"><a xlink:href="rwrp.EntityBreakable.svg" xlink:title="rwrp.EntityBreakable">
<ellipse fill="green" stroke="black" cx="398.54" cy="-198" rx="111.58" ry="18"/>
<text text-anchor="middle" x="398.54" y="-194.3" font-family="Times,serif" font-size="14.00">rwrp.EntityBreakable</text>
</a>
</g>
</g>
<!-- rwrp.EntityBreakable&#45;&gt;rwrp.InitializeEntity -->
<g id="edge2" class="edge">
<title>rwrp.EntityBreakable&#45;&gt;rwrp.InitializeEntity</title>
<path fill="none" stroke="black" d="M477.2,-185.15C491.28,-183.26 505.83,-181.45 519.54,-180 1345.13,-92.77 2345.14,-40.1 2673.94,-24.17"/>
<polygon fill="black" stroke="black" points="2674.6,-27.64 2684.41,-23.66 2674.26,-20.65 2674.6,-27.64"/>
<text text-anchor="middle" x="472.2" y="-173.95" font-family="Times,serif" font-size="14.00">1</text>
</g>
<!-- rwrp.EntityDamageDisplay -->
<g id="node4" class="node">
<title>rwrp.EntityDamageDisplay</title>
<g id="a_node4"><a xlink:href="rwrp.EntityDamageDisplay.svg" xlink:title="rwrp.EntityDamageDisplay">
<ellipse fill="red" stroke="black" cx="666.54" cy="-198" rx="137.58" ry="18"/>
<text text-anchor="middle" x="666.54" y="-194.3" font-family="Times,serif" font-size="14.00">rwrp.EntityDamageDisplay</text>
</a>
</g>
</g>
<!-- rwrp.EntityDamageDisplay&#45;&gt;rwrp.InitializeEntity -->
<g id="edge3" class="edge">
<title>rwrp.EntityDamageDisplay&#45;&gt;rwrp.InitializeEntity</title>
<path fill="none" stroke="black" d="M764.14,-185.25C780.62,-183.4 797.56,-181.58 813.54,-180 1525.17,-109.81 2383.52,-47.26 2678.79,-26.38"/>
<polygon fill="black" stroke="black" points="2679.33,-29.85 2689.06,-25.66 2678.84,-22.87 2679.33,-29.85"/>
<text text-anchor="middle" x="759.14" y="-174.05" font-family="Times,serif" font-size="14.00">1</text>
</g>
<!-- rwrp.EntityEnemyBlood -->
<g id="node5" class="node">
<title>rwrp.EntityEnemyBlood</title>
<g id="a_node5"><a xlink:href="rwrp.EntityEnemyBlood.svg" xlink:title="rwrp.EntityEnemyBlood">
<ellipse fill="green" stroke="black" cx="945.54" cy="-198" rx="123.48" ry="18"/>
<text text-anchor="middle" x="945.54" y="-194.3" font-family="Times,serif" font-size="14.00">rwrp.EntityEnemyBlood</text>
</a>
</g>
</g>
<!-- rwrp.EntityEnemyBlood&#45;&gt;rwrp.InitializeEntity -->
<g id="edge4" class="edge">
<title>rwrp.EntityEnemyBlood&#45;&gt;rwrp.InitializeEntity</title>
<path fill="none" stroke="black" d="M1033.49,-185.34C1048.51,-183.47 1063.96,-181.62 1078.54,-180 1685.74,-112.56 2416.58,-49.72 2681.96,-27.49"/>
<polygon fill="black" stroke="black" points="2682.29,-30.98 2691.96,-26.65 2681.71,-24 2682.29,-30.98"/>
<text text-anchor="middle" x="1028.49" y="-174.14" font-family="Times,serif" font-size="14.00">1</text>
</g>
<!-- rwrp.EntityEquipItemDrop -->
<g id="node6" class="node">
<title>rwrp.EntityEquipItemDrop</title>
<g id="a_node6"><a xlink:href="rwrp.EntityEquipItemDrop.svg" xlink:title="rwrp.EntityEquipItemDrop">
<ellipse fill="red" stroke="black" cx="1223.54" cy="-198" rx="136.48" ry="18"/>
<text text-anchor="middle" x="1223.54" y="-194.3" font-family="Times,serif" font-size="14.00">rwrp.EntityEquipItemDrop</text>
</a>
</g>
</g>
<!-- rwrp.EntityEquipItemDrop&#45;&gt;rwrp.InitializeEntity -->
<g id="edge5" class="edge">
<title>rwrp.EntityEquipItemDrop&#45;&gt;rwrp.InitializeEntity</title>
<path fill="none" stroke="black" d="M1322.1,-185.49C1337.96,-183.65 1354.2,-181.77 1369.54,-180 1866.05,-122.85 2460.7,-55.57 2688.93,-29.79"/>
<polygon fill="black" stroke="black" points="2689.65,-33.23 2699.2,-28.63 2688.87,-26.28 2689.65,-33.23"/>
<text text-anchor="middle" x="1317.1" y="-174.29" font-family="Times,serif" font-size="14.00">1</text>
</g>
<!-- rwrp.EntityExplosion -->
<g id="node7" class="node">
<title>rwrp.EntityExplosion</title>
<g id="a_node7"><a xlink:href="rwrp.EntityExplosion.svg" xlink:title="rwrp.EntityExplosion">
<ellipse fill="red" stroke="black" cx="1488.54" cy="-198" rx="110.48" ry="18"/>
<text text-anchor="middle" x="1488.54" y="-194.3" font-family="Times,serif" font-size="14.00">rwrp.EntityExplosion</text>
</a>
</g>
</g>
<!-- rwrp.EntityExplosion&#45;&gt;rwrp.InitializeEntity -->
<g id="edge6" class="edge">
<title>rwrp.EntityExplosion&#45;&gt;rwrp.InitializeEntity</title>
<path fill="none" stroke="black" d="M1568.54,-185.5C1581.57,-183.65 1594.93,-181.76 1607.54,-180 2013.08,-123.3 2497.56,-57.7 2694.58,-31.12"/>
<polygon fill="black" stroke="black" points="2695.15,-34.57 2704.6,-29.77 2694.22,-27.64 2695.15,-34.57"/>
<text text-anchor="middle" x="1563.54" y="-174.3" font-family="Times,serif" font-size="14.00">1</text>
</g>
<!-- rwrp.EntityIntenseExplosion -->
<g id="node8" class="node">
<title>rwrp.EntityIntenseExplosion</title>
<g id="a_node8"><a xlink:href="rwrp.EntityIntenseExplosion.svg" xlink:title="rwrp.EntityIntenseExplosion">
<ellipse fill="green" stroke="black" cx="1761.54" cy="-198" rx="144.87" ry="18"/>
<text text-anchor="middle" x="1761.54" y="-194.3" font-family="Times,serif" font-size="14.00">rwrp.EntityIntenseExplosion</text>
</a>
</g>
</g>
<!-- rwrp.EntityIntenseExplosion&#45;&gt;rwrp.InitializeEntity -->
<g id="edge7" class="edge">
<title>rwrp.EntityIntenseExplosion&#45;&gt;rwrp.InitializeEntity</title>
<path fill="none" stroke="black" d="M1842.24,-182.96C2033.44,-149.69 2512.29,-66.37 2703.67,-33.07"/>
<polygon fill="black" stroke="black" points="2704.41,-36.5 2713.66,-31.33 2703.21,-29.6 2704.41,-36.5"/>
<text text-anchor="middle" x="1837.24" y="-171.76" font-family="Times,serif" font-size="14.00">1</text>
</g>
<!-- rwrp.EntityMessageBox -->
<g id="node9" class="node">
<title>rwrp.EntityMessageBox</title>
<g id="a_node9"><a xlink:href="rwrp.EntityMessageBox.svg" xlink:title="rwrp.EntityMessageBox">
<ellipse fill="green" stroke="black" cx="2047.54" cy="-198" rx="123.48" ry="18"/>
<text text-anchor="middle" x="2047.54" y="-194.3" font-family="Times,serif" font-size="14.00">rwrp.EntityMessageBox</text>
</a>
</g>
</g>
<!-- rwrp.EntityMessageBox&#45;&gt;rwrp.InitializeEntity -->
<g id="edge8" class="edge">
<title>rwrp.EntityMessageBox&#45;&gt;rwrp.InitializeEntity</title>
<path fill="none" stroke="black" d="M2108.48,-182.28C2244.79,-149.36 2573.56,-69.96 2716.39,-35.46"/>
<polygon fill="black" stroke="black" points="2717.45,-38.8 2726.35,-33.05 2715.8,-32 2717.45,-38.8"/>
<text text-anchor="middle" x="2103.48" y="-171.08" font-family="Times,serif" font-size="14.00">1</text>
</g>
<!-- rwrp.EntityOlroxDrool -->
<g id="node10" class="node">
<title>rwrp.EntityOlroxDrool</title>
<g id="a_node10"><a xlink:href="rwrp.EntityOlroxDrool.svg" xlink:title="rwrp.EntityOlroxDrool">
<ellipse fill="green" stroke="black" cx="2304.54" cy="-198" rx="115.88" ry="18"/>
<text text-anchor="middle" x="2304.54" y="-194.3" font-family="Times,serif" font-size="14.00">rwrp.EntityOlroxDrool</text>
</a>
</g>
</g>
<!-- rwrp.EntityOlroxDrool&#45;&gt;rwrp.InitializeEntity -->
<g id="edge9" class="edge">
<title>rwrp.EntityOlroxDrool&#45;&gt;rwrp.InitializeEntity</title>
<path fill="none" stroke="black" d="M2347.13,-181.2C2435.31,-148.51 2637.54,-73.51 2732.94,-38.13"/>
<polygon fill="black" stroke="black" points="2734.22,-41.39 2742.38,-34.63 2731.79,-34.83 2734.22,-41.39"/>
<text text-anchor="middle" x="2342.13" y="-170" font-family="Times,serif" font-size="14.00">1</text>
</g>
<!-- rwrp.EntityPrizeDrop -->
<g id="node11" class="node">
<title>rwrp.EntityPrizeDrop</title>
<g id="a_node11"><a xlink:href="rwrp.EntityPrizeDrop.svg" xlink:title="rwrp.EntityPrizeDrop">
<ellipse fill="red" stroke="black" cx="2549.54" cy="-198" rx="111.58" ry="18"/>
<text text-anchor="middle" x="2549.54" y="-194.3" font-family="Times,serif" font-size="14.00">rwrp.EntityPrizeDrop</text>
</a>
</g>
</g>
<!-- rwrp.EntityPrizeDrop&#45;&gt;rwrp.InitializeEntity -->
<g id="edge10" class="edge">
<title>rwrp.EntityPrizeDrop&#45;&gt;rwrp.InitializeEntity</title>
<path fill="none" stroke="black" d="M2571.65,-180.25C2613.9,-148.25 2706.17,-78.36 2754.17,-42"/>
<polygon fill="black" stroke="black" points="2756.46,-44.66 2762.32,-35.83 2752.23,-39.08 2756.46,-44.66"/>
<text text-anchor="middle" x="2566.65" y="-169.05" font-family="Times,serif" font-size="14.00">1</text>
</g>
<!-- rwrp.EntityRelicOrb -->
<g id="node12" class="node">
<title>rwrp.EntityRelicOrb</title>
<g id="a_node12"><a xlink:href="rwrp.EntityRelicOrb.svg" xlink:title="rwrp.EntityRelicOrb">
<ellipse fill="green" stroke="black" cx="2784.54" cy="-198" rx="105.08" ry="18"/>
<text text-anchor="middle" x="2784.54" y="-194.3" font-family="Times,serif" font-size="14.00">rwrp.EntityRelicOrb</text>
</a>
</g>
</g>
<!-- rwrp.EntityRelicOrb&#45;&gt;rwrp.InitializeEntity -->
<g id="edge11" class="edge">
<title>rwrp.EntityRelicOrb&#45;&gt;rwrp.InitializeEntity</title>
<path fill="none" stroke="black" d="M2784.54,-179.93C2784.54,-148.97 2784.54,-83.3 2784.54,-46.13"/>
<polygon fill="black" stroke="black" points="2788.04,-46.02 2784.54,-36.02 2781.04,-46.02 2788.04,-46.02"/>
<text text-anchor="middle" x="2779.54" y="-168.73" font-family="Times,serif" font-size="14.00">1</text>
</g>
<!-- rwrp.EntitySoulStealOrb -->
<g id="node13" class="node">
<title>rwrp.EntitySoulStealOrb</title>
<g id="a_node13"><a xlink:href="rwrp.EntitySoulStealOrb.svg" xlink:title="rwrp.EntitySoulStealOrb">
<ellipse fill="green" stroke="black" cx="3034.54" cy="-198" rx="126.98" ry="18"/>
<text text-anchor="middle" x="3034.54" y="-194.3" font-family="Times,serif" font-size="14.00">rwrp.EntitySoulStealOrb</text>
</a>
</g>
</g>
<!-- rwrp.EntitySoulStealOrb&#45;&gt;rwrp.InitializeEntity -->
<g id="edge12" class="edge">
<title>rwrp.EntitySoulStealOrb&#45;&gt;rwrp.InitializeEntity</title>
<path fill="none" stroke="black" d="M3011.02,-180.25C2965.86,-148.1 2867,-77.71 2816.14,-41.5"/>
<polygon fill="black" stroke="black" points="2817.99,-38.52 2807.81,-35.57 2813.93,-44.22 2817.99,-38.52"/>
<text text-anchor="middle" x="3006.02" y="-169.05" font-family="Times,serif" font-size="14.00">1</text>
</g>
<!-- rwrp.EntityStageNamePopup -->
<g id="node14" class="node">
<title>rwrp.EntityStageNamePopup</title>
<g id="a_node14"><a xlink:href="rwrp.EntityStageNamePopup.svg" xlink:title="rwrp.EntityStageNamePopup">
<ellipse fill="green" stroke="black" cx="3326.54" cy="-198" rx="147.57" ry="18"/>
<text text-anchor="middle" x="3326.54" y="-194.3" font-family="Times,serif" font-size="14.00">rwrp.EntityStageNamePopup</text>
</a>
</g>
</g>
<!-- rwrp.EntityStageNamePopup&#45;&gt;rwrp.InitializeEntity -->
<g id="edge13" class="edge">
<title>rwrp.EntityStageNamePopup&#45;&gt;rwrp.InitializeEntity</title>
<path fill="none" stroke="black" d="M3277.48,-180.89C3176.66,-147.78 2946.71,-72.26 2840.37,-37.34"/>
<polygon fill="black" stroke="black" points="2841.37,-33.98 2830.78,-34.19 2839.19,-40.63 2841.37,-33.98"/>
<text text-anchor="middle" x="3272.48" y="-169.69" font-family="Times,serif" font-size="14.00">1</text>
</g>
<!-- rwrp.EntityUnkId13 -->
<g id="node15" class="node">
<title>rwrp.EntityUnkId13</title>
<g id="a_node15"><a xlink:href="rwrp.EntityUnkId13.svg" xlink:title="rwrp.EntityUnkId13">
<ellipse fill="green" stroke="black" cx="3596.54" cy="-198" rx="104.78" ry="18"/>
<text text-anchor="middle" x="3596.54" y="-194.3" font-family="Times,serif" font-size="14.00">rwrp.EntityUnkId13</text>
</a>
</g>
</g>
<!-- rwrp.EntityUnkId13&#45;&gt;rwrp.InitializeEntity -->
<g id="edge14" class="edge">
<title>rwrp.EntityUnkId13&#45;&gt;rwrp.InitializeEntity</title>
<path fill="none" stroke="black" d="M3534.51,-183.4C3386.68,-151 3014.23,-69.35 2856.69,-34.82"/>
<polygon fill="black" stroke="black" points="2857.15,-31.33 2846.63,-32.61 2855.65,-38.17 2857.15,-31.33"/>
<text text-anchor="middle" x="3529.51" y="-172.2" font-family="Times,serif" font-size="14.00">1</text>
</g>
<!-- rwrp.func_80188DF0 -->
<g id="node16" class="node">
<title>rwrp.func_80188DF0</title>
<g id="a_node16"><a xlink:href="rwrp.func_80188DF0.svg" xlink:title="rwrp.func_80188DF0">
<ellipse fill="red" stroke="black" cx="3828.54" cy="-198" rx="109.38" ry="18"/>
<text text-anchor="middle" x="3828.54" y="-194.3" font-family="Times,serif" font-size="14.00">rwrp.func_80188DF0</text>
</a>
</g>
</g>
<!-- rwrp.func_80188DF0&#45;&gt;rwrp.InitializeEntity -->
<g id="edge15" class="edge">
<title>rwrp.func_80188DF0&#45;&gt;rwrp.InitializeEntity</title>
<path fill="none" stroke="black" d="M3755.54,-184.55C3566.91,-152.39 3064.21,-66.68 2866.26,-32.93"/>
<polygon fill="black" stroke="black" points="2866.66,-29.45 2856.22,-31.22 2865.49,-36.35 2866.66,-29.45"/>
<text text-anchor="middle" x="3750.54" y="-173.35" font-family="Times,serif" font-size="14.00">1</text>
</g>
<!-- rwrp.func_80188ED0 -->
<g id="node17" class="node">
<title>rwrp.func_80188ED0</title>
<g id="a_node17"><a xlink:href="rwrp.func_80188ED0.svg" xlink:title="rwrp.func_80188ED0">
<ellipse fill="red" stroke="black" cx="4065.54" cy="-198" rx="109.68" ry="18"/>
<text text-anchor="middle" x="4065.54" y="-194.3" font-family="Times,serif" font-size="14.00">rwrp.func_80188ED0</text>
</a>
</g>
</g>
<!-- rwrp.func_80188ED0&#45;&gt;rwrp.InitializeEntity -->
<g id="edge16" class="edge">
<title>rwrp.func_80188ED0&#45;&gt;rwrp.InitializeEntity</title>
<path fill="none" stroke="black" d="M3985.85,-185.57C3972.72,-183.7 3959.25,-181.79 3946.54,-180 3546.56,-123.72 3068.91,-58.01 2873.99,-31.26"/>
<polygon fill="black" stroke="black" points="2874.19,-27.76 2863.8,-29.87 2873.23,-34.69 2874.19,-27.76"/>
<text text-anchor="middle" x="3980.85" y="-174.37" font-family="Times,serif" font-size="14.00">1</text>
</g>
<!-- rwrp.func_801891C0 -->
<g id="node18" class="node">
<title>rwrp.func_801891C0</title>
<g id="a_node18"><a xlink:href="rwrp.func_801891C0.svg" xlink:title="rwrp.func_801891C0">
<ellipse fill="red" stroke="black" cx="4301.54" cy="-198" rx="108.58" ry="18"/>
<text text-anchor="middle" x="4301.54" y="-194.3" font-family="Times,serif" font-size="14.00">rwrp.func_801891C0</text>
</a>
</g>
</g>
<!-- rwrp.func_801891C0&#45;&gt;rwrp.InitializeEntity -->
<g id="edge17" class="edge">
<title>rwrp.func_801891C0&#45;&gt;rwrp.InitializeEntity</title>
<path fill="none" stroke="black" d="M4223.86,-185.38C4210.74,-183.52 4197.26,-181.66 4184.54,-180 3696.2,-116.46 3110.3,-53.31 2882.15,-29.21"/>
<polygon fill="black" stroke="black" points="2882.2,-25.7 2871.88,-28.13 2881.46,-32.66 2882.2,-25.7"/>
<text text-anchor="middle" x="4218.86" y="-174.18" font-family="Times,serif" font-size="14.00">1</text>
</g>
<!-- rwrp.func_80189E9C -->
<g id="node19" class="node">
<title>rwrp.func_80189E9C</title>
<g id="a_node19"><a xlink:href="rwrp.func_80189E9C.svg" xlink:title="rwrp.func_80189E9C">
<ellipse fill="red" stroke="black" cx="4537.54" cy="-198" rx="109.38" ry="18"/>
<text text-anchor="middle" x="4537.54" y="-194.3" font-family="Times,serif" font-size="14.00">rwrp.func_80189E9C</text>
</a>
</g>
</g>
<!-- rwrp.func_80189E9C&#45;&gt;rwrp.InitializeEntity -->
<g id="edge18" class="edge">
<title>rwrp.func_80189E9C&#45;&gt;rwrp.InitializeEntity</title>
<path fill="none" stroke="black" d="M4459.85,-185.3C4446.42,-183.42 4432.59,-181.58 4419.54,-180 3841.48,-109.94 3145.63,-49.23 2887.45,-27.52"/>
<polygon fill="black" stroke="black" points="2887.6,-24.02 2877.34,-26.67 2887.01,-30.99 2887.6,-24.02"/>
<text text-anchor="middle" x="4454.85" y="-174.1" font-family="Times,serif" font-size="14.00">1</text>
</g>
<!-- rwrp.func_8018C948 -->
<g id="node20" class="node">
<title>rwrp.func_8018C948</title>
<g id="a_node20"><a xlink:href="rwrp.func_8018C948.svg" xlink:title="rwrp.func_8018C948">
<ellipse fill="red" stroke="black" cx="4773.54" cy="-198" rx="108.58" ry="18"/>
<text text-anchor="middle" x="4773.54" y="-194.3" font-family="Times,serif" font-size="14.00">rwrp.func_8018C948</text>
</a>
</g>
</g>
<!-- rwrp.func_8018C948&#45;&gt;rwrp.InitializeEntity -->
<g id="edge19" class="edge">
<title>rwrp.func_8018C948&#45;&gt;rwrp.InitializeEntity</title>
<path fill="none" stroke="black" d="M4696.5,-185.25C4682.87,-183.36 4668.8,-181.52 4655.54,-180 3986.06,-103.03 3177.95,-45.4 2891.51,-26.05"/>
<polygon fill="black" stroke="black" points="2891.34,-22.53 2881.13,-25.35 2890.87,-29.52 2891.34,-22.53"/>
<text text-anchor="middle" x="4691.5" y="-174.05" font-family="Times,serif" font-size="14.00">1</text>
</g>
<!-- rwrp.func_80192348 -->
<g id="node21" class="node">
<title>rwrp.func_80192348</title>
<g id="a_node21"><a xlink:href="rwrp.func_80192348.svg" xlink:title="rwrp.func_80192348">
<ellipse fill="red" stroke="black" cx="5007.54" cy="-198" rx="107.48" ry="18"/>
<text text-anchor="middle" x="5007.54" y="-194.3" font-family="Times,serif" font-size="14.00">rwrp.func_80192348</text>
</a>
</g>
</g>
<!-- rwrp.func_80192348&#45;&gt;rwrp.InitializeEntity -->
<g id="edge20" class="edge">
<title>rwrp.func_80192348&#45;&gt;rwrp.InitializeEntity</title>
<path fill="none" stroke="black" d="M4932.13,-185.18C4918.64,-183.28 4904.69,-181.46 4891.54,-180 4129.27,-95.12 3206.82,-41.5 2894.18,-24.69"/>
<polygon fill="black" stroke="black" points="2893.94,-21.17 2883.76,-24.13 2893.56,-28.16 2893.94,-21.17"/>
<text text-anchor="middle" x="4927.13" y="-173.98" font-family="Times,serif" font-size="14.00">1</text>
</g>
<!-- rwrp.func_80194DD4 -->
<g id="node22" class="node">
<title>rwrp.func_80194DD4</title>
<g id="a_node22"><a xlink:href="rwrp.func_80194DD4.svg" xlink:title="rwrp.func_80194DD4">
<ellipse fill="green" stroke="black" cx="5243.54" cy="-198" rx="110.48" ry="18"/>
<text text-anchor="middle" x="5243.54" y="-194.3" font-family="Times,serif" font-size="14.00">rwrp.func_80194DD4</text>
</a>
</g>
</g>
<!-- rwrp.func_80194DD4&#45;&gt;rwrp.InitializeEntity -->
<g id="edge21" class="edge">
<title>rwrp.func_80194DD4&#45;&gt;rwrp.InitializeEntity</title>
<path fill="none" stroke="black" d="M5165.86,-185.16C5151.79,-183.26 5137.24,-181.44 5123.54,-180 4268.39,-90.11 3231.84,-38.94 2895.58,-23.8"/>
<polygon fill="black" stroke="black" points="2895.5,-20.29 2885.36,-23.34 2895.19,-27.29 2895.5,-20.29"/>
<text text-anchor="middle" x="5160.86" y="-173.96" font-family="Times,serif" font-size="14.00">1</text>
</g>
</g>
</svg>
