<?xml version="1.0" encoding="UTF-8" standalone="no"?>
<!DOCTYPE svg PUBLIC "-//W3C//DTD SVG 1.1//EN"
 "http://www.w3.org/Graphics/SVG/1.1/DTD/svg11.dtd">
<!-- Generated by graphviz version 2.43.0 (0)
 -->
<!-- Title: rwrp.FallEntity Pages: 1 -->
<svg width="1465pt" height="224pt"
 viewBox="0.00 0.00 1465.43 224.00" xmlns="http://www.w3.org/2000/svg" xmlns:xlink="http://www.w3.org/1999/xlink">
<g id="graph0" class="graph" transform="scale(1 1) rotate(0) translate(4 220)">
<title>rwrp.FallEntity</title>
<polygon fill="white" stroke="transparent" points="-4,4 -4,-220 1461.43,-220 1461.43,4 -4,4"/>
<!-- rwrp.FallEntity -->
<g id="node1" class="node">
<title>rwrp.FallEntity</title>
<ellipse fill="green" stroke="black" cx="765.14" cy="-18" rx="81.79" ry="18"/>
<text text-anchor="middle" x="765.14" y="-14.3" font-family="Times,serif" font-size="14.00">rwrp.FallEntity</text>
</g>
<!-- rwrp.UnkCollisionFunc3 -->
<g id="node2" class="node">
<title>rwrp.UnkCollisionFunc3</title>
<g id="a_node2"><a xlink:href="rwrp.UnkCollisionFunc3.svg" xlink:title="rwrp.UnkCollisionFunc3">
<ellipse fill="green" stroke="black" cx="124.14" cy="-198" rx="124.28" ry="18"/>
<text text-anchor="middle" x="124.14" y="-194.3" font-family="Times,serif" font-size="14.00">rwrp.UnkCollisionFunc3</text>
</a>
</g>
</g>
<!-- rwrp.UnkCollisionFunc3&#45;&gt;rwrp.FallEntity -->
<g id="edge1" class="edge">
<title>rwrp.UnkCollisionFunc3&#45;&gt;rwrp.FallEntity</title>
<path fill="none" stroke="black" d="M178.79,-181.82C298.62,-148.55 583.56,-69.42 706.74,-35.22"/>
<polygon fill="black" stroke="black" points="707.69,-38.59 716.39,-32.54 705.82,-31.84 707.69,-38.59"/>
<text text-anchor="middle" x="173.79" y="-170.62" font-family="Times,serif" font-size="14.00">1</text>
</g>
<!-- rwrp.func_80191BCC -->
<g id="node3" class="node">
<title>rwrp.func_80191BCC</title>
<g id="a_node3"><a xlink:href="rwrp.func_80191BCC.svg" xlink:title="rwrp.func_80191BCC">
<ellipse fill="green" stroke="black" cx="377.14" cy="-198" rx="110.48" ry="18"/>
<text text-anchor="middle" x="377.14" y="-194.3" font-family="Times,serif" font-size="14.00">rwrp.func_80191BCC</text>
</a>
</g>
</g>
<!-- rwrp.func_80191BCC&#45;&gt;rwrp.FallEntity -->
<g id="edge2" class="edge">
<title>rwrp.func_80191BCC&#45;&gt;rwrp.FallEntity</title>
<path fill="none" stroke="black" d="M412.26,-180.89C483.45,-148.23 644.6,-74.3 722.03,-38.78"/>
<polygon fill="black" stroke="black" points="723.86,-41.79 731.49,-34.44 720.94,-35.43 723.86,-41.79"/>
<text text-anchor="middle" x="407.26" y="-169.69" font-family="Times,serif" font-size="14.00">1</text>
</g>
<!-- wrp.EntityEquipItemDrop -->
<g id="node4" class="node">
<title>wrp.EntityEquipItemDrop</title>
<g id="a_node4"><a xlink:href="wrp.EntityEquipItemDrop.svg" xlink:title="wrp.EntityEquipItemDrop">
<ellipse fill="green" stroke="black" cx="637.14" cy="-198" rx="131.88" ry="18"/>
<text text-anchor="middle" x="637.14" y="-194.3" font-family="Times,serif" font-size="14.00">wrp.EntityEquipItemDrop</text>
</a>
</g>
</g>
<!-- wrp.EntityEquipItemDrop&#45;&gt;rwrp.FallEntity -->
<g id="edge3" class="edge">
<title>wrp.EntityEquipItemDrop&#45;&gt;rwrp.FallEntity</title>
<path fill="none" stroke="black" d="M649.41,-179.93C672.06,-148.43 720.53,-81.03 746.99,-44.24"/>
<polygon fill="black" stroke="black" points="749.91,-46.18 752.9,-36.02 744.22,-42.09 749.91,-46.18"/>
<text text-anchor="middle" x="644.41" y="-168.73" font-family="Times,serif" font-size="14.00">1</text>
</g>
<!-- wrp.EntityPrizeDrop -->
<g id="node5" class="node">
<title>wrp.EntityPrizeDrop</title>
<g id="a_node5"><a xlink:href="wrp.EntityPrizeDrop.svg" xlink:title="wrp.EntityPrizeDrop">
<ellipse fill="green" stroke="black" cx="894.14" cy="-198" rx="107.48" ry="18"/>
<text text-anchor="middle" x="894.14" y="-194.3" font-family="Times,serif" font-size="14.00">wrp.EntityPrizeDrop</text>
</a>
</g>
</g>
<!-- wrp.EntityPrizeDrop&#45;&gt;rwrp.FallEntity -->
<g id="edge4" class="edge">
<title>wrp.EntityPrizeDrop&#45;&gt;rwrp.FallEntity</title>
<path fill="none" stroke="black" d="M881.77,-179.93C858.94,-148.43 810.1,-81.03 783.43,-44.24"/>
<polygon fill="black" stroke="black" points="786.17,-42.06 777.47,-36.02 780.5,-46.17 786.17,-42.06"/>
<text text-anchor="middle" x="876.77" y="-168.73" font-family="Times,serif" font-size="14.00">2</text>
</g>
<!-- wrp.func_8018CB34 -->
<g id="node6" class="node">
<title>wrp.func_8018CB34</title>
<g id="a_node6"><a xlink:href="wrp.func_8018CB34.svg" xlink:title="wrp.func_8018CB34">
<ellipse fill="green" stroke="black" cx="1124.14" cy="-198" rx="104.78" ry="18"/>
<text text-anchor="middle" x="1124.14" y="-194.3" font-family="Times,serif" font-size="14.00">wrp.func_8018CB34</text>
</a>
</g>
</g>
<!-- wrp.func_8018CB34&#45;&gt;rwrp.FallEntity -->
<g id="edge5" class="edge">
<title>wrp.func_8018CB34&#45;&gt;rwrp.FallEntity</title>
<path fill="none" stroke="black" d="M1091.33,-180.73C1025.56,-148.12 877.78,-74.85 805.92,-39.22"/>
<polygon fill="black" stroke="black" points="807.23,-35.96 796.71,-34.66 804.12,-42.23 807.23,-35.96"/>
<text text-anchor="middle" x="1086.33" y="-169.53" font-family="Times,serif" font-size="14.00">1</text>
</g>
<!-- wrp.func_8018FC4C -->
<g id="node7" class="node">
<title>wrp.func_8018FC4C</title>
<g id="a_node7"><a xlink:href="wrp.func_8018FC4C.svg" xlink:title="wrp.func_8018FC4C">
<ellipse fill="green" stroke="black" cx="1352.14" cy="-198" rx="105.08" ry="18"/>
<text text-anchor="middle" x="1352.14" y="-194.3" font-family="Times,serif" font-size="14.00">wrp.func_8018FC4C</text>
</a>
</g>
</g>
<!-- wrp.func_8018FC4C&#45;&gt;rwrp.FallEntity -->
<g id="edge6" class="edge">
<title>wrp.func_8018FC4C&#45;&gt;rwrp.FallEntity</title>
<path fill="none" stroke="black" d="M1302.85,-182.05C1194.25,-149.12 934.93,-70.49 820.74,-35.86"/>
<polygon fill="black" stroke="black" points="821.72,-32.5 811.13,-32.95 819.69,-39.2 821.72,-32.5"/>
<text text-anchor="middle" x="1297.85" y="-170.85" font-family="Times,serif" font-size="14.00">1</text>
</g>
</g>
</svg>
