<?xml version="1.0" encoding="UTF-8" standalone="no"?>
<!DOCTYPE svg PUBLIC "-//W3C//DTD SVG 1.1//EN"
 "http://www.w3.org/Graphics/SVG/1.1/DTD/svg11.dtd">
<!-- Generated by graphviz version 2.43.0 (0)
 -->
<!-- Title: rwrp.CreateEntityFromEntity Pages: 1 -->
<svg width="1120pt" height="404pt"
 viewBox="0.00 0.00 1119.88 404.00" xmlns="http://www.w3.org/2000/svg" xmlns:xlink="http://www.w3.org/1999/xlink">
<g id="graph0" class="graph" transform="scale(1 1) rotate(0) translate(4 400)">
<title>rwrp.CreateEntityFromEntity</title>
<polygon fill="white" stroke="transparent" points="-4,4 -4,-400 1115.88,-400 1115.88,4 -4,4"/>
<!-- rwrp.CreateEntityFromEntity -->
<g id="node1" class="node">
<title>rwrp.CreateEntityFromEntity</title>
<ellipse fill="green" stroke="black" cx="547.64" cy="-198" rx="149.47" ry="18"/>
<text text-anchor="middle" x="547.64" y="-194.3" font-family="Times,serif" font-size="14.00">rwrp.CreateEntityFromEntity</text>
</g>
<!-- wrp.DestroyEntity -->
<g id="node2" class="node">
<title>wrp.DestroyEntity</title>
<g id="a_node2"><a xlink:href="wrp.DestroyEntity.svg" xlink:title="wrp.DestroyEntity">
<ellipse fill="green" stroke="black" cx="547.64" cy="-18" rx="96.68" ry="18"/>
<text text-anchor="middle" x="547.64" y="-14.3" font-family="Times,serif" font-size="14.00">wrp.DestroyEntity</text>
</a>
</g>
</g>
<!-- rwrp.CreateEntityFromEntity&#45;&gt;wrp.DestroyEntity -->
<g id="edge1" class="edge">
<title>rwrp.CreateEntityFromEntity&#45;&gt;wrp.DestroyEntity</title>
<path fill="none" stroke="black" d="M547.64,-179.93C547.64,-148.97 547.64,-83.3 547.64,-46.13"/>
<polygon fill="black" stroke="black" points="551.14,-46.02 547.64,-36.02 544.14,-46.02 551.14,-46.02"/>
<text text-anchor="middle" x="542.64" y="-39.82" font-family="Times,serif" font-size="14.00">1</text>
</g>
<!-- rwrp.EntityUnkId13 -->
<g id="node3" class="node">
<title>rwrp.EntityUnkId13</title>
<g id="a_node3"><a xlink:href="rwrp.EntityUnkId13.svg" xlink:title="rwrp.EntityUnkId13">
<ellipse fill="green" stroke="black" cx="104.64" cy="-378" rx="104.78" ry="18"/>
<text text-anchor="middle" x="104.64" y="-374.3" font-family="Times,serif" font-size="14.00">rwrp.EntityUnkId13</text>
</a>
</g>
</g>
<!-- rwrp.EntityUnkId13&#45;&gt;rwrp.CreateEntityFromEntity -->
<g id="edge2" class="edge">
<title>rwrp.EntityUnkId13&#45;&gt;rwrp.CreateEntityFromEntity</title>
<path fill="none" stroke="black" d="M143.95,-361.2C224.55,-328.82 408.42,-254.94 497.47,-219.16"/>
<polygon fill="black" stroke="black" points="498.84,-222.38 506.82,-215.4 496.23,-215.88 498.84,-222.38"/>
<text text-anchor="middle" x="138.95" y="-350" font-family="Times,serif" font-size="14.00">1</text>
</g>
<!-- rwrp.HitDetection -->
<g id="node4" class="node">
<title>rwrp.HitDetection</title>
<g id="a_node4"><a xlink:href="rwrp.HitDetection.svg" xlink:title="rwrp.HitDetection">
<ellipse fill="green" stroke="black" cx="322.64" cy="-378" rx="95.58" ry="18"/>
<text text-anchor="middle" x="322.64" y="-374.3" font-family="Times,serif" font-size="14.00">rwrp.HitDetection</text>
</a>
</g>
</g>
<!-- rwrp.HitDetection&#45;&gt;rwrp.CreateEntityFromEntity -->
<g id="edge3" class="edge">
<title>rwrp.HitDetection&#45;&gt;rwrp.CreateEntityFromEntity</title>
<path fill="none" stroke="black" d="M343.81,-360.25C384.18,-328.32 472.25,-258.65 518.28,-222.23"/>
<polygon fill="black" stroke="black" points="520.69,-224.78 526.37,-215.83 516.35,-219.29 520.69,-224.78"/>
<text text-anchor="middle" x="338.81" y="-349.05" font-family="Times,serif" font-size="14.00">3</text>
</g>
<!-- rwrp.MakeExplosions -->
<g id="node5" class="node">
<title>rwrp.MakeExplosions</title>
<g id="a_node5"><a xlink:href="rwrp.MakeExplosions.svg" xlink:title="rwrp.MakeExplosions">
<ellipse fill="green" stroke="black" cx="547.64" cy="-378" rx="111.58" ry="18"/>
<text text-anchor="middle" x="547.64" y="-374.3" font-family="Times,serif" font-size="14.00">rwrp.MakeExplosions</text>
</a>
</g>
</g>
<!-- rwrp.MakeExplosions&#45;&gt;rwrp.CreateEntityFromEntity -->
<g id="edge4" class="edge">
<title>rwrp.MakeExplosions&#45;&gt;rwrp.CreateEntityFromEntity</title>
<path fill="none" stroke="black" d="M547.64,-359.93C547.64,-328.97 547.64,-263.3 547.64,-226.13"/>
<polygon fill="black" stroke="black" points="551.14,-226.02 547.64,-216.02 544.14,-226.02 551.14,-226.02"/>
<text text-anchor="middle" x="542.64" y="-348.73" font-family="Times,serif" font-size="14.00">1</text>
</g>
<!-- wrp.EntityUnkId13 -->
<g id="node6" class="node">
<title>wrp.EntityUnkId13</title>
<g id="a_node6"><a xlink:href="wrp.EntityUnkId13.svg" xlink:title="wrp.EntityUnkId13">
<ellipse fill="green" stroke="black" cx="778.64" cy="-378" rx="100.98" ry="18"/>
<text text-anchor="middle" x="778.64" y="-374.3" font-family="Times,serif" font-size="14.00">wrp.EntityUnkId13</text>
</a>
</g>
</g>
<!-- wrp.EntityUnkId13&#45;&gt;rwrp.CreateEntityFromEntity -->
<g id="edge5" class="edge">
<title>wrp.EntityUnkId13&#45;&gt;rwrp.CreateEntityFromEntity</title>
<path fill="none" stroke="black" d="M756.91,-360.25C715.38,-328.25 624.67,-258.36 577.49,-222"/>
<polygon fill="black" stroke="black" points="579.54,-219.16 569.48,-215.83 575.27,-224.71 579.54,-219.16"/>
<text text-anchor="middle" x="751.91" y="-349.05" font-family="Times,serif" font-size="14.00">1</text>
</g>
<!-- wrp.MakeExplosions -->
<g id="node7" class="node">
<title>wrp.MakeExplosions</title>
<g id="a_node7"><a xlink:href="wrp.MakeExplosions.svg" xlink:title="wrp.MakeExplosions">
<ellipse fill="green" stroke="black" cx="1004.64" cy="-378" rx="107.48" ry="18"/>
<text text-anchor="middle" x="1004.64" y="-374.3" font-family="Times,serif" font-size="14.00">wrp.MakeExplosions</text>
</a>
</g>
</g>
<!-- wrp.MakeExplosions&#45;&gt;rwrp.CreateEntityFromEntity -->
<g id="edge6" class="edge">
<title>wrp.MakeExplosions&#45;&gt;rwrp.CreateEntityFromEntity</title>
<path fill="none" stroke="black" d="M964.09,-361.2C880.85,-328.79 690.88,-254.79 599.12,-219.05"/>
<polygon fill="black" stroke="black" points="600.34,-215.77 589.76,-215.4 597.8,-222.29 600.34,-215.77"/>
<text text-anchor="middle" x="959.09" y="-350" font-family="Times,serif" font-size="14.00">1</text>
</g>
</g>
</svg>
