<?xml version="1.0" encoding="UTF-8" standalone="no"?>
<!DOCTYPE svg PUBLIC "-//W3C//DTD SVG 1.1//EN"
 "http://www.w3.org/Graphics/SVG/1.1/DTD/svg11.dtd">
<!-- Generated by graphviz version 2.43.0 (0)
 -->
<!-- Title: rwrp.BlinkItem Pages: 1 -->
<svg width="729pt" height="224pt"
 viewBox="0.00 0.00 729.23 224.00" xmlns="http://www.w3.org/2000/svg" xmlns:xlink="http://www.w3.org/1999/xlink">
<g id="graph0" class="graph" transform="scale(1 1) rotate(0) translate(4 220)">
<title>rwrp.BlinkItem</title>
<polygon fill="white" stroke="transparent" points="-4,4 -4,-220 725.23,-220 725.23,4 -4,4"/>
<!-- rwrp.BlinkItem -->
<g id="node1" class="node">
<title>rwrp.BlinkItem</title>
<ellipse fill="green" stroke="black" cx="396.49" cy="-18" rx="81.49" ry="18"/>
<text text-anchor="middle" x="396.49" y="-14.3" font-family="Times,serif" font-size="14.00">rwrp.BlinkItem</text>
</g>
<!-- rwrp.EntityEquipItemDrop -->
<g id="node2" class="node">
<title>rwrp.EntityEquipItemDrop</title>
<g id="a_node2"><a xlink:href="rwrp.EntityEquipItemDrop.svg" xlink:title="rwrp.EntityEquipItemDrop">
<ellipse fill="green" stroke="black" cx="136.49" cy="-198" rx="136.48" ry="18"/>
<text text-anchor="middle" x="136.49" y="-194.3" font-family="Times,serif" font-size="14.00">rwrp.EntityEquipItemDrop</text>
</a>
</g>
</g>
<!-- rwrp.EntityEquipItemDrop&#45;&gt;rwrp.BlinkItem -->
<g id="edge1" class="edge">
<title>rwrp.EntityEquipItemDrop&#45;&gt;rwrp.BlinkItem</title>
<path fill="none" stroke="black" d="M160.95,-180.25C208.13,-147.95 311.68,-77.06 364.35,-41"/>
<polygon fill="black" stroke="black" points="366.38,-43.85 372.66,-35.31 362.43,-38.08 366.38,-43.85"/>
<text text-anchor="middle" x="155.95" y="-169.05" font-family="Times,serif" font-size="14.00">1</text>
</g>
<!-- rwrp.EntityRelicOrb -->
<g id="node3" class="node">
<title>rwrp.EntityRelicOrb</title>
<g id="a_node3"><a xlink:href="rwrp.EntityRelicOrb.svg" xlink:title="rwrp.EntityRelicOrb">
<ellipse fill="green" stroke="black" cx="396.49" cy="-198" rx="105.08" ry="18"/>
<text text-anchor="middle" x="396.49" y="-194.3" font-family="Times,serif" font-size="14.00">rwrp.EntityRelicOrb</text>
</a>
</g>
</g>
<!-- rwrp.EntityRelicOrb&#45;&gt;rwrp.BlinkItem -->
<g id="edge2" class="edge">
<title>rwrp.EntityRelicOrb&#45;&gt;rwrp.BlinkItem</title>
<path fill="none" stroke="black" d="M396.49,-179.93C396.49,-148.97 396.49,-83.3 396.49,-46.13"/>
<polygon fill="black" stroke="black" points="399.99,-46.02 396.49,-36.02 392.99,-46.02 399.99,-46.02"/>
<text text-anchor="middle" x="391.49" y="-168.73" font-family="Times,serif" font-size="14.00">1</text>
</g>
<!-- wrp.EntityRelicOrb -->
<g id="node4" class="node">
<title>wrp.EntityRelicOrb</title>
<g id="a_node4"><a xlink:href="wrp.EntityRelicOrb.svg" xlink:title="wrp.EntityRelicOrb">
<ellipse fill="green" stroke="black" cx="620.49" cy="-198" rx="100.98" ry="18"/>
<text text-anchor="middle" x="620.49" y="-194.3" font-family="Times,serif" font-size="14.00">wrp.EntityRelicOrb</text>
</a>
</g>
</g>
<!-- wrp.EntityRelicOrb&#45;&gt;rwrp.BlinkItem -->
<g id="edge3" class="edge">
<title>wrp.EntityRelicOrb&#45;&gt;rwrp.BlinkItem</title>
<path fill="none" stroke="black" d="M599.41,-180.25C559.12,-148.24 471.1,-78.29 425.37,-41.95"/>
<polygon fill="black" stroke="black" points="427.35,-39.05 417.34,-35.57 422.99,-44.53 427.35,-39.05"/>
<text text-anchor="middle" x="594.41" y="-169.05" font-family="Times,serif" font-size="14.00">1</text>
</g>
</g>
</svg>
