<?xml version="1.0" encoding="UTF-8" standalone="no"?>
<!DOCTYPE svg PUBLIC "-//W3C//DTD SVG 1.1//EN"
 "http://www.w3.org/Graphics/SVG/1.1/DTD/svg11.dtd">
<!-- Generated by graphviz version 2.43.0 (0)
 -->
<!-- Title: rwrp.EntityRelicOrb Pages: 1 -->
<svg width="1882pt" height="224pt"
 viewBox="0.00 0.00 1882.14 224.00" xmlns="http://www.w3.org/2000/svg" xmlns:xlink="http://www.w3.org/1999/xlink">
<g id="graph0" class="graph" transform="scale(1 1) rotate(0) translate(4 220)">
<title>rwrp.EntityRelicOrb</title>
<polygon fill="white" stroke="transparent" points="-4,4 -4,-220 1878.14,-220 1878.14,4 -4,4"/>
<!-- rwrp.EntityRelicOrb -->
<g id="node1" class="node">
<title>rwrp.EntityRelicOrb</title>
<ellipse fill="green" stroke="black" cx="920.34" cy="-198" rx="105.08" ry="18"/>
<text text-anchor="middle" x="920.34" y="-194.3" font-family="Times,serif" font-size="14.00">rwrp.EntityRelicOrb</text>
</g>
<!-- ClearImage -->
<g id="node2" class="node">
<title>ClearImage</title>
<g id="a_node2"><a xlink:href="ClearImage.svg" xlink:title="ClearImage">
<ellipse fill="lightblue" stroke="black" cx="64.34" cy="-18" rx="64.19" ry="18"/>
<text text-anchor="middle" x="64.34" y="-14.3" font-family="Times,serif" font-size="14.00">ClearImage</text>
</a>
</g>
</g>
<!-- rwrp.EntityRelicOrb&#45;&gt;ClearImage -->
<g id="edge1" class="edge">
<title>rwrp.EntityRelicOrb&#45;&gt;ClearImage</title>
<path fill="none" stroke="black" d="M853.97,-183.96C718.85,-157.27 402.2,-94.06 137.34,-36 132.31,-34.9 127.09,-33.73 121.85,-32.54"/>
<polygon fill="black" stroke="black" points="122.35,-29.06 111.82,-30.24 120.79,-35.89 122.35,-29.06"/>
<text text-anchor="middle" x="106.82" y="-34.04" font-family="Times,serif" font-size="14.00">1</text>
</g>
<!-- LoadTPage -->
<g id="node3" class="node">
<title>LoadTPage</title>
<g id="a_node3"><a xlink:href="LoadTPage.svg" xlink:title="LoadTPage">
<ellipse fill="lightblue" stroke="black" cx="208.34" cy="-18" rx="61.99" ry="18"/>
<text text-anchor="middle" x="208.34" y="-14.3" font-family="Times,serif" font-size="14.00">LoadTPage</text>
</a>
</g>
</g>
<!-- rwrp.EntityRelicOrb&#45;&gt;LoadTPage -->
<g id="edge2" class="edge">
<title>rwrp.EntityRelicOrb&#45;&gt;LoadTPage</title>
<path fill="none" stroke="black" d="M863.58,-182.81C729.85,-149.38 396.31,-65.99 263.84,-32.87"/>
<polygon fill="black" stroke="black" points="264.46,-29.42 253.91,-30.39 262.76,-36.21 264.46,-29.42"/>
<text text-anchor="middle" x="248.91" y="-34.19" font-family="Times,serif" font-size="14.00">1</text>
</g>
<!-- dra.AllocPrimitives -->
<g id="node4" class="node">
<title>dra.AllocPrimitives</title>
<g id="a_node4"><a xlink:href="dra.AllocPrimitives.svg" xlink:title="dra.AllocPrimitives">
<ellipse fill="green" stroke="black" cx="387.34" cy="-18" rx="99.38" ry="18"/>
<text text-anchor="middle" x="387.34" y="-14.3" font-family="Times,serif" font-size="14.00">dra.AllocPrimitives</text>
</a>
</g>
</g>
<!-- rwrp.EntityRelicOrb&#45;&gt;dra.AllocPrimitives -->
<g id="edge3" class="edge">
<title>rwrp.EntityRelicOrb&#45;&gt;dra.AllocPrimitives</title>
<path fill="none" stroke="black" d="M874.44,-181.67C776.49,-148.96 547.38,-72.45 442.07,-37.27"/>
<polygon fill="black" stroke="black" points="443.17,-33.95 432.57,-34.1 440.95,-40.59 443.17,-33.95"/>
<text text-anchor="middle" x="427.57" y="-37.9" font-family="Times,serif" font-size="14.00">1</text>
</g>
<!-- dra.DestroyEntity -->
<g id="node5" class="node">
<title>dra.DestroyEntity</title>
<g id="a_node5"><a xlink:href="dra.DestroyEntity.svg" xlink:title="dra.DestroyEntity">
<ellipse fill="green" stroke="black" cx="599.34" cy="-18" rx="94.78" ry="18"/>
<text text-anchor="middle" x="599.34" y="-14.3" font-family="Times,serif" font-size="14.00">dra.DestroyEntity</text>
</a>
</g>
</g>
<!-- rwrp.EntityRelicOrb&#45;&gt;dra.DestroyEntity -->
<g id="edge4" class="edge">
<title>rwrp.EntityRelicOrb&#45;&gt;dra.DestroyEntity</title>
<path fill="none" stroke="black" d="M890.72,-180.57C832.44,-148.25 702.9,-76.42 637.99,-40.43"/>
<polygon fill="black" stroke="black" points="639.34,-37.18 628.9,-35.39 635.94,-43.3 639.34,-37.18"/>
<text text-anchor="middle" x="623.9" y="-39.19" font-family="Times,serif" font-size="14.00">1</text>
</g>
<!-- dra.LoadEquipIcon -->
<g id="node6" class="node">
<title>dra.LoadEquipIcon</title>
<g id="a_node6"><a xlink:href="dra.LoadEquipIcon.svg" xlink:title="dra.LoadEquipIcon">
<ellipse fill="green" stroke="black" cx="811.34" cy="-18" rx="98.58" ry="18"/>
<text text-anchor="middle" x="811.34" y="-14.3" font-family="Times,serif" font-size="14.00">dra.LoadEquipIcon</text>
</a>
</g>
</g>
<!-- rwrp.EntityRelicOrb&#45;&gt;dra.LoadEquipIcon -->
<g id="edge5" class="edge">
<title>rwrp.EntityRelicOrb&#45;&gt;dra.LoadEquipIcon</title>
<path fill="none" stroke="black" d="M909.89,-179.93C890.69,-148.57 849.68,-81.6 827.09,-44.71"/>
<polygon fill="black" stroke="black" points="829.97,-42.72 821.76,-36.02 824,-46.37 829.97,-42.72"/>
<text text-anchor="middle" x="816.76" y="-39.82" font-family="Times,serif" font-size="14.00">1</text>
</g>
<!-- dra.func_800FE044 -->
<g id="node7" class="node">
<title>dra.func_800FE044</title>
<g id="a_node7"><a xlink:href="dra.func_800FE044.svg" xlink:title="dra.func_800FE044">
<ellipse fill="green" stroke="black" cx="1030.34" cy="-18" rx="102.08" ry="18"/>
<text text-anchor="middle" x="1030.34" y="-14.3" font-family="Times,serif" font-size="14.00">dra.func_800FE044</text>
</a>
</g>
</g>
<!-- rwrp.EntityRelicOrb&#45;&gt;dra.func_800FE044 -->
<g id="edge6" class="edge">
<title>rwrp.EntityRelicOrb&#45;&gt;dra.func_800FE044</title>
<path fill="none" stroke="black" d="M930.89,-179.93C950.27,-148.57 991.66,-81.6 1014.46,-44.71"/>
<polygon fill="black" stroke="black" points="1017.55,-46.36 1019.83,-36.02 1011.59,-42.68 1017.55,-46.36"/>
<text text-anchor="middle" x="1014.83" y="-39.82" font-family="Times,serif" font-size="14.00">1</text>
</g>
<!-- wrp.BlinkItem -->
<g id="node8" class="node">
<title>wrp.BlinkItem</title>
<g id="a_node8"><a xlink:href="wrp.BlinkItem.svg" xlink:title="wrp.BlinkItem">
<ellipse fill="green" stroke="black" cx="1227.34" cy="-18" rx="77.19" ry="18"/>
<text text-anchor="middle" x="1227.34" y="-14.3" font-family="Times,serif" font-size="14.00">wrp.BlinkItem</text>
</a>
</g>
</g>
<!-- rwrp.EntityRelicOrb&#45;&gt;wrp.BlinkItem -->
<g id="edge7" class="edge">
<title>rwrp.EntityRelicOrb&#45;&gt;wrp.BlinkItem</title>
<path fill="none" stroke="black" d="M948.68,-180.57C1004.59,-148.16 1129.05,-75.99 1190.95,-40.1"/>
<polygon fill="black" stroke="black" points="1193.07,-42.92 1199.97,-34.87 1189.56,-36.86 1193.07,-42.92"/>
<text text-anchor="middle" x="1194.97" y="-38.67" font-family="Times,serif" font-size="14.00">1</text>
</g>
<!-- wrp.BlitChar -->
<g id="node9" class="node">
<title>wrp.BlitChar</title>
<g id="a_node9"><a xlink:href="wrp.BlitChar.svg" xlink:title="wrp.BlitChar">
<ellipse fill="green" stroke="black" cx="1393.34" cy="-18" rx="70.69" ry="18"/>
<text text-anchor="middle" x="1393.34" y="-14.3" font-family="Times,serif" font-size="14.00">wrp.BlitChar</text>
</a>
</g>
</g>
<!-- rwrp.EntityRelicOrb&#45;&gt;wrp.BlitChar -->
<g id="edge8" class="edge">
<title>rwrp.EntityRelicOrb&#45;&gt;wrp.BlitChar</title>
<path fill="none" stroke="black" d="M961.91,-181.36C1049.65,-148.34 1253.32,-71.69 1345.95,-36.83"/>
<polygon fill="black" stroke="black" points="1347.23,-40.09 1355.36,-33.29 1344.77,-33.54 1347.23,-40.09"/>
<text text-anchor="middle" x="1350.36" y="-37.09" font-family="Times,serif" font-size="14.00">1</text>
</g>
<!-- wrp.InitializeEntity -->
<g id="node10" class="node">
<title>wrp.InitializeEntity</title>
<g id="a_node10"><a xlink:href="wrp.InitializeEntity.svg" xlink:title="wrp.InitializeEntity">
<ellipse fill="green" stroke="black" cx="1583.34" cy="-18" rx="100.98" ry="18"/>
<text text-anchor="middle" x="1583.34" y="-14.3" font-family="Times,serif" font-size="14.00">wrp.InitializeEntity</text>
</a>
</g>
</g>
<!-- rwrp.EntityRelicOrb&#45;&gt;wrp.InitializeEntity -->
<g id="edge9" class="edge">
<title>rwrp.EntityRelicOrb&#45;&gt;wrp.InitializeEntity</title>
<path fill="none" stroke="black" d="M974.32,-182.51C1095.9,-149.87 1390.66,-70.73 1520.34,-35.92"/>
<polygon fill="black" stroke="black" points="1521.38,-39.26 1530.13,-33.29 1519.57,-32.5 1521.38,-39.26"/>
<text text-anchor="middle" x="1525.13" y="-37.09" font-family="Times,serif" font-size="14.00">1</text>
</g>
<!-- wrp.MoveEntity -->
<g id="node11" class="node">
<title>wrp.MoveEntity</title>
<g id="a_node11"><a xlink:href="wrp.MoveEntity.svg" xlink:title="wrp.MoveEntity">
<ellipse fill="green" stroke="black" cx="1788.34" cy="-18" rx="85.59" ry="18"/>
<text text-anchor="middle" x="1788.34" y="-14.3" font-family="Times,serif" font-size="14.00">wrp.MoveEntity</text>
</a>
</g>
</g>
<!-- rwrp.EntityRelicOrb&#45;&gt;wrp.MoveEntity -->
<g id="edge10" class="edge">
<title>rwrp.EntityRelicOrb&#45;&gt;wrp.MoveEntity</title>
<path fill="none" stroke="black" d="M984.88,-183.77C1144.2,-151.09 1555.15,-66.82 1719.21,-33.18"/>
<polygon fill="black" stroke="black" points="1720.09,-36.57 1729.18,-31.13 1718.68,-29.71 1720.09,-36.57"/>
<text text-anchor="middle" x="1724.18" y="-34.93" font-family="Times,serif" font-size="14.00">1</text>
</g>
</g>
</svg>
