<?xml version="1.0" encoding="UTF-8" standalone="no"?>
<!DOCTYPE svg PUBLIC "-//W3C//DTD SVG 1.1//EN"
 "http://www.w3.org/Graphics/SVG/1.1/DTD/svg11.dtd">
<!-- Generated by graphviz version 2.43.0 (0)
 -->
<!-- Title: rwrp.InitializeEntity Pages: 1 -->
<svg width="5312pt" height="224pt"
 viewBox="0.00 0.00 5312.28 224.00" xmlns="http://www.w3.org/2000/svg" xmlns:xlink="http://www.w3.org/1999/xlink">
<g id="graph0" class="graph" transform="scale(1 1) rotate(0) translate(4 220)">
<title>rwrp.InitializeEntity</title>
<polygon fill="white" stroke="transparent" points="-4,4 -4,-220 5308.28,-220 5308.28,4 -4,4"/>
<!-- rwrp.InitializeEntity -->
<g id="node1" class="node">
<title>rwrp.InitializeEntity</title>
<ellipse fill="red" stroke="black" cx="2747.79" cy="-18" rx="105.08" ry="18"/>
<text text-anchor="middle" x="2747.79" y="-14.3" font-family="Times,serif" font-size="14.00">rwrp.InitializeEntity</text>
</g>
<!-- rwrp.EntityBreakable -->
<g id="node2" class="node">
<title>rwrp.EntityBreakable</title>
<g id="a_node2"><a xlink:href="rwrp.EntityBreakable.svg" xlink:title="rwrp.EntityBreakable">
<ellipse fill="green" stroke="black" cx="111.79" cy="-198" rx="111.58" ry="18"/>
<text text-anchor="middle" x="111.79" y="-194.3" font-family="Times,serif" font-size="14.00">rwrp.EntityBreakable</text>
</a>
</g>
</g>
<!-- rwrp.EntityBreakable&#45;&gt;rwrp.InitializeEntity -->
<g id="edge1" class="edge">
<title>rwrp.EntityBreakable&#45;&gt;rwrp.InitializeEntity</title>
<path fill="none" stroke="black" d="M190.12,-185.11C204.3,-183.21 218.97,-181.41 232.79,-180 1158.66,-85.46 2282.3,-36.87 2635.81,-23.14"/>
<polygon fill="black" stroke="black" points="2636.19,-26.63 2646.04,-22.75 2635.91,-19.64 2636.19,-26.63"/>
<text text-anchor="middle" x="185.12" y="-173.91" font-family="Times,serif" font-size="14.00">1</text>
</g>
<!-- rwrp.EntityDamageDisplay -->
<g id="node3" class="node">
<title>rwrp.EntityDamageDisplay</title>
<g id="a_node3"><a xlink:href="rwrp.EntityDamageDisplay.svg" xlink:title="rwrp.EntityDamageDisplay">
<ellipse fill="red" stroke="black" cx="379.79" cy="-198" rx="137.58" ry="18"/>
<text text-anchor="middle" x="379.79" y="-194.3" font-family="Times,serif" font-size="14.00">rwrp.EntityDamageDisplay</text>
</a>
</g>
</g>
<!-- rwrp.EntityDamageDisplay&#45;&gt;rwrp.InitializeEntity -->
<g id="edge2" class="edge">
<title>rwrp.EntityDamageDisplay&#45;&gt;rwrp.InitializeEntity</title>
<path fill="none" stroke="black" d="M476.99,-185.17C493.59,-183.31 510.68,-181.52 526.79,-180 1337.35,-103.79 2317.28,-44.01 2639.44,-25.21"/>
<polygon fill="black" stroke="black" points="2639.92,-28.68 2649.7,-24.61 2639.51,-21.7 2639.92,-28.68"/>
<text text-anchor="middle" x="471.99" y="-173.97" font-family="Times,serif" font-size="14.00">1</text>
</g>
<!-- rwrp.EntityEnemyBlood -->
<g id="node4" class="node">
<title>rwrp.EntityEnemyBlood</title>
<g id="a_node4"><a xlink:href="rwrp.EntityEnemyBlood.svg" xlink:title="rwrp.EntityEnemyBlood">
<ellipse fill="green" stroke="black" cx="658.79" cy="-198" rx="123.48" ry="18"/>
<text text-anchor="middle" x="658.79" y="-194.3" font-family="Times,serif" font-size="14.00">rwrp.EntityEnemyBlood</text>
</a>
</g>
</g>
<!-- rwrp.EntityEnemyBlood&#45;&gt;rwrp.InitializeEntity -->
<g id="edge3" class="edge">
<title>rwrp.EntityEnemyBlood&#45;&gt;rwrp.InitializeEntity</title>
<path fill="none" stroke="black" d="M746.36,-185.24C761.5,-183.37 777.09,-181.54 791.79,-180 1496.33,-106.02 2346.63,-46.01 2641.24,-26.08"/>
<polygon fill="black" stroke="black" points="2641.74,-29.55 2651.48,-25.39 2641.27,-22.57 2641.74,-29.55"/>
<text text-anchor="middle" x="741.36" y="-174.04" font-family="Times,serif" font-size="14.00">1</text>
</g>
<!-- rwrp.EntityEquipItemDrop -->
<g id="node5" class="node">
<title>rwrp.EntityEquipItemDrop</title>
<g id="a_node5"><a xlink:href="rwrp.EntityEquipItemDrop.svg" xlink:title="rwrp.EntityEquipItemDrop">
<ellipse fill="red" stroke="black" cx="936.79" cy="-198" rx="136.48" ry="18"/>
<text text-anchor="middle" x="936.79" y="-194.3" font-family="Times,serif" font-size="14.00">rwrp.EntityEquipItemDrop</text>
</a>
</g>
</g>
<!-- rwrp.EntityEquipItemDrop&#45;&gt;rwrp.InitializeEntity -->
<g id="edge4" class="edge">
<title>rwrp.EntityEquipItemDrop&#45;&gt;rwrp.InitializeEntity</title>
<path fill="none" stroke="black" d="M1034.54,-185.35C1050.65,-183.51 1067.18,-181.66 1082.79,-180 1675.17,-116.88 2387.28,-51.54 2646.87,-28.07"/>
<polygon fill="black" stroke="black" points="2647.39,-31.53 2657.03,-27.15 2646.76,-24.56 2647.39,-31.53"/>
<text text-anchor="middle" x="1029.54" y="-174.15" font-family="Times,serif" font-size="14.00">1</text>
</g>
<!-- rwrp.EntityExplosion -->
<g id="node6" class="node">
<title>rwrp.EntityExplosion</title>
<g id="a_node6"><a xlink:href="rwrp.EntityExplosion.svg" xlink:title="rwrp.EntityExplosion">
<ellipse fill="red" stroke="black" cx="1201.79" cy="-198" rx="110.48" ry="18"/>
<text text-anchor="middle" x="1201.79" y="-194.3" font-family="Times,serif" font-size="14.00">rwrp.EntityExplosion</text>
</a>
</g>
</g>
<!-- rwrp.EntityExplosion&#45;&gt;rwrp.InitializeEntity -->
<g id="edge5" class="edge">
<title>rwrp.EntityExplosion&#45;&gt;rwrp.InitializeEntity</title>
<path fill="none" stroke="black" d="M1280.8,-185.38C1294.14,-183.51 1307.85,-181.65 1320.79,-180 1819.73,-116.23 2418.54,-52.98 2649.92,-29.03"/>
<polygon fill="black" stroke="black" points="2650.41,-32.5 2660,-27.99 2649.69,-25.54 2650.41,-32.5"/>
<text text-anchor="middle" x="1275.8" y="-174.18" font-family="Times,serif" font-size="14.00">1</text>
</g>
<!-- rwrp.EntityIntenseExplosion -->
<g id="node7" class="node">
<title>rwrp.EntityIntenseExplosion</title>
<g id="a_node7"><a xlink:href="rwrp.EntityIntenseExplosion.svg" xlink:title="rwrp.EntityIntenseExplosion">
<ellipse fill="green" stroke="black" cx="1474.79" cy="-198" rx="144.87" ry="18"/>
<text text-anchor="middle" x="1474.79" y="-194.3" font-family="Times,serif" font-size="14.00">rwrp.EntityIntenseExplosion</text>
</a>
</g>
</g>
<!-- rwrp.EntityIntenseExplosion&#45;&gt;rwrp.InitializeEntity -->
<g id="edge6" class="edge">
<title>rwrp.EntityIntenseExplosion&#45;&gt;rwrp.InitializeEntity</title>
<path fill="none" stroke="black" d="M1567.11,-184.09C1803.26,-151.07 2426.97,-63.86 2659.1,-31.4"/>
<polygon fill="black" stroke="black" points="2659.77,-34.84 2669.19,-29.99 2658.8,-27.91 2659.77,-34.84"/>
<text text-anchor="middle" x="1562.11" y="-172.89" font-family="Times,serif" font-size="14.00">1</text>
</g>
<!-- rwrp.EntityMessageBox -->
<g id="node8" class="node">
<title>rwrp.EntityMessageBox</title>
<g id="a_node8"><a xlink:href="rwrp.EntityMessageBox.svg" xlink:title="rwrp.EntityMessageBox">
<ellipse fill="green" stroke="black" cx="1760.79" cy="-198" rx="123.48" ry="18"/>
<text text-anchor="middle" x="1760.79" y="-194.3" font-family="Times,serif" font-size="14.00">rwrp.EntityMessageBox</text>
</a>
</g>
</g>
<!-- rwrp.EntityMessageBox&#45;&gt;rwrp.InitializeEntity -->
<g id="edge7" class="edge">
<title>rwrp.EntityMessageBox&#45;&gt;rwrp.InitializeEntity</title>
<path fill="none" stroke="black" d="M1835.38,-183.55C2017.06,-150.78 2481.28,-67.06 2668.12,-33.37"/>
<polygon fill="black" stroke="black" points="2668.92,-36.78 2678.14,-31.56 2667.68,-29.89 2668.92,-36.78"/>
<text text-anchor="middle" x="1830.38" y="-172.35" font-family="Times,serif" font-size="14.00">1</text>
</g>
<!-- rwrp.EntityOlroxDrool -->
<g id="node9" class="node">
<title>rwrp.EntityOlroxDrool</title>
<g id="a_node9"><a xlink:href="rwrp.EntityOlroxDrool.svg" xlink:title="rwrp.EntityOlroxDrool">
<ellipse fill="green" stroke="black" cx="2017.79" cy="-198" rx="115.88" ry="18"/>
<text text-anchor="middle" x="2017.79" y="-194.3" font-family="Times,serif" font-size="14.00">rwrp.EntityOlroxDrool</text>
</a>
</g>
</g>
<!-- rwrp.EntityOlroxDrool&#45;&gt;rwrp.InitializeEntity -->
<g id="edge8" class="edge">
<title>rwrp.EntityOlroxDrool&#45;&gt;rwrp.InitializeEntity</title>
<path fill="none" stroke="black" d="M2077.22,-182.51C2211.6,-149.74 2538.15,-70.12 2680.07,-35.51"/>
<polygon fill="black" stroke="black" points="2681.07,-38.87 2689.96,-33.1 2679.41,-32.07 2681.07,-38.87"/>
<text text-anchor="middle" x="2072.22" y="-171.31" font-family="Times,serif" font-size="14.00">1</text>
</g>
<!-- rwrp.EntityPrizeDrop -->
<g id="node10" class="node">
<title>rwrp.EntityPrizeDrop</title>
<g id="a_node10"><a xlink:href="rwrp.EntityPrizeDrop.svg" xlink:title="rwrp.EntityPrizeDrop">
<ellipse fill="red" stroke="black" cx="2262.79" cy="-198" rx="111.58" ry="18"/>
<text text-anchor="middle" x="2262.79" y="-194.3" font-family="Times,serif" font-size="14.00">rwrp.EntityPrizeDrop</text>
</a>
</g>
</g>
<!-- rwrp.EntityPrizeDrop&#45;&gt;rwrp.InitializeEntity -->
<g id="edge9" class="edge">
<title>rwrp.EntityPrizeDrop&#45;&gt;rwrp.InitializeEntity</title>
<path fill="none" stroke="black" d="M2305.83,-181.2C2395.04,-148.46 2599.78,-73.32 2696.02,-38"/>
<polygon fill="black" stroke="black" points="2697.36,-41.24 2705.54,-34.51 2694.94,-34.67 2697.36,-41.24"/>
<text text-anchor="middle" x="2300.83" y="-170" font-family="Times,serif" font-size="14.00">1</text>
</g>
<!-- rwrp.EntityRelicOrb -->
<g id="node11" class="node">
<title>rwrp.EntityRelicOrb</title>
<g id="a_node11"><a xlink:href="rwrp.EntityRelicOrb.svg" xlink:title="rwrp.EntityRelicOrb">
<ellipse fill="green" stroke="black" cx="2497.79" cy="-198" rx="105.08" ry="18"/>
<text text-anchor="middle" x="2497.79" y="-194.3" font-family="Times,serif" font-size="14.00">rwrp.EntityRelicOrb</text>
</a>
</g>
</g>
<!-- rwrp.EntityRelicOrb&#45;&gt;rwrp.InitializeEntity -->
<g id="edge10" class="edge">
<title>rwrp.EntityRelicOrb&#45;&gt;rwrp.InitializeEntity</title>
<path fill="none" stroke="black" d="M2521.31,-180.25C2566.47,-148.1 2665.33,-77.71 2716.19,-41.5"/>
<polygon fill="black" stroke="black" points="2718.4,-44.22 2724.52,-35.57 2714.34,-38.52 2718.4,-44.22"/>
<text text-anchor="middle" x="2516.31" y="-169.05" font-family="Times,serif" font-size="14.00">1</text>
</g>
<!-- rwrp.EntitySoulStealOrb -->
<g id="node12" class="node">
<title>rwrp.EntitySoulStealOrb</title>
<g id="a_node12"><a xlink:href="rwrp.EntitySoulStealOrb.svg" xlink:title="rwrp.EntitySoulStealOrb">
<ellipse fill="green" stroke="black" cx="2747.79" cy="-198" rx="126.98" ry="18"/>
<text text-anchor="middle" x="2747.79" y="-194.3" font-family="Times,serif" font-size="14.00">rwrp.EntitySoulStealOrb</text>
</a>
</g>
</g>
<!-- rwrp.EntitySoulStealOrb&#45;&gt;rwrp.InitializeEntity -->
<g id="edge11" class="edge">
<title>rwrp.EntitySoulStealOrb&#45;&gt;rwrp.InitializeEntity</title>
<path fill="none" stroke="black" d="M2747.79,-179.93C2747.79,-148.97 2747.79,-83.3 2747.79,-46.13"/>
<polygon fill="black" stroke="black" points="2751.29,-46.02 2747.79,-36.02 2744.29,-46.02 2751.29,-46.02"/>
<text text-anchor="middle" x="2742.79" y="-168.73" font-family="Times,serif" font-size="14.00">1</text>
</g>
<!-- rwrp.EntityStageNamePopup -->
<g id="node13" class="node">
<title>rwrp.EntityStageNamePopup</title>
<g id="a_node13"><a xlink:href="rwrp.EntityStageNamePopup.svg" xlink:title="rwrp.EntityStageNamePopup">
<ellipse fill="green" stroke="black" cx="3039.79" cy="-198" rx="147.57" ry="18"/>
<text text-anchor="middle" x="3039.79" y="-194.3" font-family="Times,serif" font-size="14.00">rwrp.EntityStageNamePopup</text>
</a>
</g>
</g>
<!-- rwrp.EntityStageNamePopup&#45;&gt;rwrp.InitializeEntity -->
<g id="edge12" class="edge">
<title>rwrp.EntityStageNamePopup&#45;&gt;rwrp.InitializeEntity</title>
<path fill="none" stroke="black" d="M3012.32,-180.25C2959.25,-147.9 2842.67,-76.84 2783.6,-40.83"/>
<polygon fill="black" stroke="black" points="2785.34,-37.79 2774.98,-35.57 2781.69,-43.77 2785.34,-37.79"/>
<text text-anchor="middle" x="3007.32" y="-169.05" font-family="Times,serif" font-size="14.00">1</text>
</g>
<!-- rwrp.func_80188DF0 -->
<g id="node14" class="node">
<title>rwrp.func_80188DF0</title>
<g id="a_node14"><a xlink:href="rwrp.func_80188DF0.svg" xlink:title="rwrp.func_80188DF0">
<ellipse fill="red" stroke="black" cx="3314.79" cy="-198" rx="109.38" ry="18"/>
<text text-anchor="middle" x="3314.79" y="-194.3" font-family="Times,serif" font-size="14.00">rwrp.func_80188DF0</text>
</a>
</g>
</g>
<!-- rwrp.func_80188DF0&#45;&gt;rwrp.InitializeEntity -->
<g id="edge13" class="edge">
<title>rwrp.func_80188DF0&#45;&gt;rwrp.InitializeEntity</title>
<path fill="none" stroke="black" d="M3266.45,-181.82C3162.46,-149.18 2917.91,-72.41 2805.79,-37.21"/>
<polygon fill="black" stroke="black" points="2806.6,-33.79 2796.01,-34.14 2804.5,-40.47 2806.6,-33.79"/>
<text text-anchor="middle" x="3261.45" y="-170.62" font-family="Times,serif" font-size="14.00">1</text>
</g>
<!-- rwrp.func_80188ED0 -->
<g id="node15" class="node">
<title>rwrp.func_80188ED0</title>
<g id="a_node15"><a xlink:href="rwrp.func_80188ED0.svg" xlink:title="rwrp.func_80188ED0">
<ellipse fill="red" stroke="black" cx="3551.79" cy="-198" rx="109.68" ry="18"/>
<text text-anchor="middle" x="3551.79" y="-194.3" font-family="Times,serif" font-size="14.00">rwrp.func_80188ED0</text>
</a>
</g>
</g>
<!-- rwrp.func_80188ED0&#45;&gt;rwrp.InitializeEntity -->
<g id="edge14" class="edge">
<title>rwrp.func_80188ED0&#45;&gt;rwrp.InitializeEntity</title>
<path fill="none" stroke="black" d="M3489.37,-183.18C3342.34,-150.63 2974.95,-69.29 2819.28,-34.83"/>
<polygon fill="black" stroke="black" points="2819.86,-31.37 2809.34,-32.63 2818.35,-38.21 2819.86,-31.37"/>
<text text-anchor="middle" x="3484.37" y="-171.98" font-family="Times,serif" font-size="14.00">1</text>
</g>
<!-- rwrp.func_801891C0 -->
<g id="node16" class="node">
<title>rwrp.func_801891C0</title>
<g id="a_node16"><a xlink:href="rwrp.func_801891C0.svg" xlink:title="rwrp.func_801891C0">
<ellipse fill="red" stroke="black" cx="3787.79" cy="-198" rx="108.58" ry="18"/>
<text text-anchor="middle" x="3787.79" y="-194.3" font-family="Times,serif" font-size="14.00">rwrp.func_801891C0</text>
</a>
</g>
</g>
<!-- rwrp.func_801891C0&#45;&gt;rwrp.InitializeEntity -->
<g id="edge15" class="edge">
<title>rwrp.func_801891C0&#45;&gt;rwrp.InitializeEntity</title>
<path fill="none" stroke="black" d="M3715.07,-184.55C3527.28,-152.41 3026.99,-66.79 2829.56,-32.99"/>
<polygon fill="black" stroke="black" points="2829.99,-29.52 2819.54,-31.28 2828.8,-36.42 2829.99,-29.52"/>
<text text-anchor="middle" x="3710.07" y="-173.35" font-family="Times,serif" font-size="14.00">1</text>
</g>
<!-- rwrp.func_80189E9C -->
<g id="node17" class="node">
<title>rwrp.func_80189E9C</title>
<g id="a_node17"><a xlink:href="rwrp.func_80189E9C.svg" xlink:title="rwrp.func_80189E9C">
<ellipse fill="red" stroke="black" cx="4023.79" cy="-198" rx="109.38" ry="18"/>
<text text-anchor="middle" x="4023.79" y="-194.3" font-family="Times,serif" font-size="14.00">rwrp.func_80189E9C</text>
</a>
</g>
</g>
<!-- rwrp.func_80189E9C&#45;&gt;rwrp.InitializeEntity -->
<g id="edge16" class="edge">
<title>rwrp.func_80189E9C&#45;&gt;rwrp.InitializeEntity</title>
<path fill="none" stroke="black" d="M3944.77,-185.56C3931.75,-183.69 3918.39,-181.78 3905.79,-180 3507.46,-123.62 3031.78,-58.03 2837.3,-31.29"/>
<polygon fill="black" stroke="black" points="2837.52,-27.79 2827.13,-29.89 2836.56,-34.72 2837.52,-27.79"/>
<text text-anchor="middle" x="3939.77" y="-174.36" font-family="Times,serif" font-size="14.00">1</text>
</g>
<!-- rwrp.func_8018C948 -->
<g id="node18" class="node">
<title>rwrp.func_8018C948</title>
<g id="a_node18"><a xlink:href="rwrp.func_8018C948.svg" xlink:title="rwrp.func_8018C948">
<ellipse fill="red" stroke="black" cx="4259.79" cy="-198" rx="108.58" ry="18"/>
<text text-anchor="middle" x="4259.79" y="-194.3" font-family="Times,serif" font-size="14.00">rwrp.func_8018C948</text>
</a>
</g>
</g>
<!-- rwrp.func_8018C948&#45;&gt;rwrp.InitializeEntity -->
<g id="edge17" class="edge">
<title>rwrp.func_8018C948&#45;&gt;rwrp.InitializeEntity</title>
<path fill="none" stroke="black" d="M4181.76,-185.44C4168.43,-183.56 4154.72,-181.68 4141.79,-180 3655.5,-116.9 3072.14,-53.5 2844.98,-29.27"/>
<polygon fill="black" stroke="black" points="2845.07,-25.76 2834.76,-28.18 2844.33,-32.72 2845.07,-25.76"/>
<text text-anchor="middle" x="4176.76" y="-174.24" font-family="Times,serif" font-size="14.00">1</text>
</g>
<!-- rwrp.func_80191490 -->
<g id="node19" class="node">
<title>rwrp.func_80191490</title>
<g id="a_node19"><a xlink:href="rwrp.func_80191490.svg" xlink:title="rwrp.func_80191490">
<ellipse fill="red" stroke="black" cx="4493.79" cy="-198" rx="107.48" ry="18"/>
<text text-anchor="middle" x="4493.79" y="-194.3" font-family="Times,serif" font-size="14.00">rwrp.func_80191490</text>
</a>
</g>
</g>
<!-- rwrp.func_80191490&#45;&gt;rwrp.InitializeEntity -->
<g id="edge18" class="edge">
<title>rwrp.func_80191490&#45;&gt;rwrp.InitializeEntity</title>
<path fill="none" stroke="black" d="M4417.42,-185.29C4404.22,-183.41 4390.62,-181.57 4377.79,-180 3801.58,-109.36 3107.81,-49 2850.4,-27.45"/>
<polygon fill="black" stroke="black" points="2850.57,-23.95 2840.32,-26.6 2849.99,-30.92 2850.57,-23.95"/>
<text text-anchor="middle" x="4412.42" y="-174.09" font-family="Times,serif" font-size="14.00">1</text>
</g>
<!-- rwrp.func_80192348 -->
<g id="node20" class="node">
<title>rwrp.func_80192348</title>
<g id="a_node20"><a xlink:href="rwrp.func_80192348.svg" xlink:title="rwrp.func_80192348">
<ellipse fill="red" stroke="black" cx="4725.79" cy="-198" rx="107.48" ry="18"/>
<text text-anchor="middle" x="4725.79" y="-194.3" font-family="Times,serif" font-size="14.00">rwrp.func_80192348</text>
</a>
</g>
</g>
<!-- rwrp.func_80192348&#45;&gt;rwrp.InitializeEntity -->
<g id="edge19" class="edge">
<title>rwrp.func_80192348&#45;&gt;rwrp.InitializeEntity</title>
<path fill="none" stroke="black" d="M4650.06,-185.24C4636.66,-183.35 4622.83,-181.52 4609.79,-180 3944.02,-102.5 3140.31,-45.24 2854.77,-26.02"/>
<polygon fill="black" stroke="black" points="2854.63,-22.5 2844.42,-25.33 2854.16,-29.49 2854.63,-22.5"/>
<text text-anchor="middle" x="4645.06" y="-174.04" font-family="Times,serif" font-size="14.00">1</text>
</g>
<!-- rwrp.func_80192594 -->
<g id="node21" class="node">
<title>rwrp.func_80192594</title>
<g id="a_node21"><a xlink:href="rwrp.func_80192594.svg" xlink:title="rwrp.func_80192594">
<ellipse fill="red" stroke="black" cx="4957.79" cy="-198" rx="107.48" ry="18"/>
<text text-anchor="middle" x="4957.79" y="-194.3" font-family="Times,serif" font-size="14.00">rwrp.func_80192594</text>
</a>
</g>
</g>
<!-- rwrp.func_80192594&#45;&gt;rwrp.InitializeEntity -->
<g id="edge20" class="edge">
<title>rwrp.func_80192594&#45;&gt;rwrp.InitializeEntity</title>
<path fill="none" stroke="black" d="M4882.39,-185.18C4868.89,-183.29 4854.94,-181.47 4841.79,-180 4084.67,-95.52 3168.54,-41.69 2857.31,-24.76"/>
<polygon fill="black" stroke="black" points="2857.11,-21.24 2846.94,-24.19 2856.73,-28.23 2857.11,-21.24"/>
<text text-anchor="middle" x="4877.39" y="-173.98" font-family="Times,serif" font-size="14.00">1</text>
</g>
<!-- rwrp.func_80194DD4 -->
<g id="node22" class="node">
<title>rwrp.func_80194DD4</title>
<g id="a_node22"><a xlink:href="rwrp.func_80194DD4.svg" xlink:title="rwrp.func_80194DD4">
<ellipse fill="green" stroke="black" cx="5193.79" cy="-198" rx="110.48" ry="18"/>
<text text-anchor="middle" x="5193.79" y="-194.3" font-family="Times,serif" font-size="14.00">rwrp.func_80194DD4</text>
</a>
</g>
</g>
<!-- rwrp.func_80194DD4&#45;&gt;rwrp.InitializeEntity -->
<g id="edge21" class="edge">
<title>rwrp.func_80194DD4&#45;&gt;rwrp.InitializeEntity</title>
<path fill="none" stroke="black" d="M5116.11,-185.17C5102.04,-183.26 5087.5,-181.44 5073.79,-180 4223.64,-90.47 3193.21,-39.09 2858.51,-23.84"/>
<polygon fill="black" stroke="black" points="2858.48,-20.34 2848.33,-23.38 2858.16,-27.33 2858.48,-20.34"/>
<text text-anchor="middle" x="5111.11" y="-173.97" font-family="Times,serif" font-size="14.00">1</text>
</g>
</g>
</svg>
