<?xml version="1.0" encoding="UTF-8" standalone="no"?>
<!DOCTYPE svg PUBLIC "-//W3C//DTD SVG 1.1//EN"
 "http://www.w3.org/Graphics/SVG/1.1/DTD/svg11.dtd">
<!-- Generated by graphviz version 2.43.0 (0)
 -->
<!-- Title: sel.func_801B24F8 Pages: 1 -->
<svg width="426pt" height="404pt"
 viewBox="0.00 0.00 425.53 404.00" xmlns="http://www.w3.org/2000/svg" xmlns:xlink="http://www.w3.org/1999/xlink">
<g id="graph0" class="graph" transform="scale(1 1) rotate(0) translate(4 400)">
<title>sel.func_801B24F8</title>
<polygon fill="white" stroke="transparent" points="-4,4 -4,-400 421.53,-400 421.53,4 -4,4"/>
<!-- sel.func_801B24F8 -->
<g id="node1" class="node">
<title>sel.func_801B24F8</title>
<ellipse fill="green" stroke="black" cx="209.74" cy="-198" rx="99.38" ry="18"/>
<text text-anchor="middle" x="209.74" y="-194.3" font-family="Times,serif" font-size="14.00">sel.func_801B24F8</text>
</g>
<!-- sel.func_801B1F4C -->
<g id="node2" class="node">
<title>sel.func_801B1F4C</title>
<g id="a_node2"><a xlink:href="sel.func_801B1F4C.svg" xlink:title="sel.func_801B1F4C">
<ellipse fill="green" stroke="black" cx="100.74" cy="-18" rx="100.98" ry="18"/>
<text text-anchor="middle" x="100.74" y="-14.3" font-family="Times,serif" font-size="14.00">sel.func_801B1F4C</text>
</a>
</g>
</g>
<!-- sel.func_801B24F8&#45;&gt;sel.func_801B1F4C -->
<g id="edge1" class="edge">
<title>sel.func_801B24F8&#45;&gt;sel.func_801B1F4C</title>
<path fill="none" stroke="black" d="M199.29,-179.93C180.08,-148.57 139.08,-81.6 116.48,-44.71"/>
<polygon fill="black" stroke="black" points="119.37,-42.72 111.16,-36.02 113.4,-46.37 119.37,-42.72"/>
<text text-anchor="middle" x="106.16" y="-39.82" font-family="Times,serif" font-size="14.00">1</text>
</g>
<!-- sel.func_801B2108 -->
<g id="node3" class="node">
<title>sel.func_801B2108</title>
<g id="a_node3"><a xlink:href="sel.func_801B2108.svg" xlink:title="sel.func_801B2108">
<ellipse fill="green" stroke="black" cx="318.74" cy="-18" rx="98.58" ry="18"/>
<text text-anchor="middle" x="318.74" y="-14.3" font-family="Times,serif" font-size="14.00">sel.func_801B2108</text>
</a>
</g>
</g>
<!-- sel.func_801B24F8&#45;&gt;sel.func_801B2108 -->
<g id="edge2" class="edge">
<title>sel.func_801B24F8&#45;&gt;sel.func_801B2108</title>
<path fill="none" stroke="black" d="M220.19,-179.93C239.4,-148.57 280.41,-81.6 303,-44.71"/>
<polygon fill="black" stroke="black" points="306.08,-46.37 308.32,-36.02 300.11,-42.72 306.08,-46.37"/>
<text text-anchor="middle" x="303.32" y="-39.82" font-family="Times,serif" font-size="14.00">1</text>
</g>
<!-- sel.func_801B259C -->
<g id="node4" class="node">
<title>sel.func_801B259C</title>
<g id="a_node4"><a xlink:href="sel.func_801B259C.svg" xlink:title="sel.func_801B259C">
<ellipse fill="green" stroke="black" cx="101.74" cy="-378" rx="100.18" ry="18"/>
<text text-anchor="middle" x="101.74" y="-374.3" font-family="Times,serif" font-size="14.00">sel.func_801B259C</text>
</a>
</g>
</g>
<!-- sel.func_801B259C&#45;&gt;sel.func_801B24F8 -->
<g id="edge3" class="edge">
<title>sel.func_801B259C&#45;&gt;sel.func_801B24F8</title>
<path fill="none" stroke="black" d="M112.1,-359.93C131.13,-328.57 171.76,-261.6 194.14,-224.71"/>
<polygon fill="black" stroke="black" points="197.22,-226.38 199.42,-216.02 191.24,-222.75 197.22,-226.38"/>
<text text-anchor="middle" x="107.1" y="-348.73" font-family="Times,serif" font-size="14.00">1</text>
</g>
<!-- sel.func_801B2608 -->
<g id="node5" class="node">
<title>sel.func_801B2608</title>
<g id="a_node5"><a xlink:href="sel.func_801B2608.svg" xlink:title="sel.func_801B2608">
<ellipse fill="green" stroke="black" cx="318.74" cy="-378" rx="98.58" ry="18"/>
<text text-anchor="middle" x="318.74" y="-374.3" font-family="Times,serif" font-size="14.00">sel.func_801B2608</text>
</a>
</g>
</g>
<!-- sel.func_801B2608&#45;&gt;sel.func_801B24F8 -->
<g id="edge4" class="edge">
<title>sel.func_801B2608&#45;&gt;sel.func_801B24F8</title>
<path fill="none" stroke="black" d="M308.29,-359.93C289.08,-328.57 248.08,-261.6 225.48,-224.71"/>
<polygon fill="black" stroke="black" points="228.37,-222.72 220.16,-216.02 222.4,-226.37 228.37,-222.72"/>
<text text-anchor="middle" x="303.29" y="-348.73" font-family="Times,serif" font-size="14.00">1</text>
</g>
</g>
</svg>
