<?xml version="1.0" encoding="UTF-8" standalone="no"?>
<!DOCTYPE svg PUBLIC "-//W3C//DTD SVG 1.1//EN"
 "http://www.w3.org/Graphics/SVG/1.1/DTD/svg11.dtd">
<!-- Generated by graphviz version 2.43.0 (0)
 -->
<!-- Title: sel.DrawCutsceneActorName Pages: 1 -->
<svg width="410pt" height="404pt"
 viewBox="0.00 0.00 409.73 404.00" xmlns="http://www.w3.org/2000/svg" xmlns:xlink="http://www.w3.org/1999/xlink">
<g id="graph0" class="graph" transform="scale(1 1) rotate(0) translate(4 400)">
<title>sel.DrawCutsceneActorName</title>
<polygon fill="white" stroke="transparent" points="-4,4 -4,-400 405.73,-400 405.73,4 -4,4"/>
<!-- sel.DrawCutsceneActorName -->
<g id="node1" class="node">
<title>sel.DrawCutsceneActorName</title>
<ellipse fill="green" stroke="black" cx="204.44" cy="-198" rx="146.77" ry="18"/>
<text text-anchor="middle" x="204.44" y="-194.3" font-family="Times,serif" font-size="14.00">sel.DrawCutsceneActorName</text>
</g>
<!-- dra.AllocPrimitives -->
<g id="node2" class="node">
<title>dra.AllocPrimitives</title>
<g id="a_node2"><a xlink:href="dra.AllocPrimitives.svg" xlink:title="dra.AllocPrimitives">
<ellipse fill="green" stroke="black" cx="99.44" cy="-18" rx="99.38" ry="18"/>
<text text-anchor="middle" x="99.44" y="-14.3" font-family="Times,serif" font-size="14.00">dra.AllocPrimitives</text>
</a>
</g>
</g>
<!-- sel.DrawCutsceneActorName&#45;&gt;dra.AllocPrimitives -->
<g id="edge1" class="edge">
<title>sel.DrawCutsceneActorName&#45;&gt;dra.AllocPrimitives</title>
<path fill="none" stroke="black" d="M194.37,-179.93C175.87,-148.57 136.37,-81.6 114.61,-44.71"/>
<polygon fill="black" stroke="black" points="117.57,-42.85 109.48,-36.02 111.54,-46.41 117.57,-42.85"/>
<text text-anchor="middle" x="104.48" y="-39.82" font-family="Times,serif" font-size="14.00">1</text>
</g>
<!-- sel.DestroyEntity -->
<g id="node3" class="node">
<title>sel.DestroyEntity</title>
<g id="a_node3"><a xlink:href="sel.DestroyEntity.svg" xlink:title="sel.DestroyEntity">
<ellipse fill="green" stroke="black" cx="309.44" cy="-18" rx="92.08" ry="18"/>
<text text-anchor="middle" x="309.44" y="-14.3" font-family="Times,serif" font-size="14.00">sel.DestroyEntity</text>
</a>
</g>
</g>
<!-- sel.DrawCutsceneActorName&#45;&gt;sel.DestroyEntity -->
<g id="edge2" class="edge">
<title>sel.DrawCutsceneActorName&#45;&gt;sel.DestroyEntity</title>
<path fill="none" stroke="black" d="M214.51,-179.93C233.01,-148.57 272.51,-81.6 294.28,-44.71"/>
<polygon fill="black" stroke="black" points="297.34,-46.41 299.4,-36.02 291.31,-42.85 297.34,-46.41"/>
<text text-anchor="middle" x="294.4" y="-39.82" font-family="Times,serif" font-size="14.00">1</text>
</g>
<!-- sel.SEL_EntityCutscene -->
<g id="node4" class="node">
<title>sel.SEL_EntityCutscene</title>
<g id="a_node4"><a xlink:href="sel.SEL_EntityCutscene.svg" xlink:title="sel.SEL_EntityCutscene">
<ellipse fill="green" stroke="black" cx="204.44" cy="-378" rx="122.38" ry="18"/>
<text text-anchor="middle" x="204.44" y="-374.3" font-family="Times,serif" font-size="14.00">sel.SEL_EntityCutscene</text>
</a>
</g>
</g>
<!-- sel.SEL_EntityCutscene&#45;&gt;sel.DrawCutsceneActorName -->
<g id="edge3" class="edge">
<title>sel.SEL_EntityCutscene&#45;&gt;sel.DrawCutsceneActorName</title>
<path fill="none" stroke="black" d="M204.44,-359.93C204.44,-328.97 204.44,-263.3 204.44,-226.13"/>
<polygon fill="black" stroke="black" points="207.94,-226.02 204.44,-216.02 200.94,-226.02 207.94,-226.02"/>
<text text-anchor="middle" x="199.44" y="-348.73" font-family="Times,serif" font-size="14.00">1</text>
</g>
</g>
</svg>
