<?xml version="1.0" encoding="UTF-8" standalone="no"?>
<!DOCTYPE svg PUBLIC "-//W3C//DTD SVG 1.1//EN"
 "http://www.w3.org/Graphics/SVG/1.1/DTD/svg11.dtd">
<!-- Generated by graphviz version 2.43.0 (0)
 -->
<!-- Title: sel.func_801B2C70 Pages: 1 -->
<svg width="428pt" height="404pt"
 viewBox="0.00 0.00 428.48 404.00" xmlns="http://www.w3.org/2000/svg" xmlns:xlink="http://www.w3.org/1999/xlink">
<g id="graph0" class="graph" transform="scale(1 1) rotate(0) translate(4 400)">
<title>sel.func_801B2C70</title>
<polygon fill="white" stroke="transparent" points="-4,4 -4,-400 424.48,-400 424.48,4 -4,4"/>
<!-- sel.func_801B2C70 -->
<g id="node1" class="node">
<title>sel.func_801B2C70</title>
<ellipse fill="green" stroke="black" cx="209.74" cy="-198" rx="100.18" ry="18"/>
<text text-anchor="middle" x="209.74" y="-194.3" font-family="Times,serif" font-size="14.00">sel.func_801B2C70</text>
</g>
<!-- sel.func_801B2B78 -->
<g id="node2" class="node">
<title>sel.func_801B2B78</title>
<g id="a_node2"><a xlink:href="sel.func_801B2B78.svg" xlink:title="sel.func_801B2B78">
<ellipse fill="green" stroke="black" cx="209.74" cy="-18" rx="100.18" ry="18"/>
<text text-anchor="middle" x="209.74" y="-14.3" font-family="Times,serif" font-size="14.00">sel.func_801B2B78</text>
</a>
</g>
</g>
<!-- sel.func_801B2C70&#45;&gt;sel.func_801B2B78 -->
<g id="edge1" class="edge">
<title>sel.func_801B2C70&#45;&gt;sel.func_801B2B78</title>
<path fill="none" stroke="black" d="M209.74,-179.93C209.74,-148.97 209.74,-83.3 209.74,-46.13"/>
<polygon fill="black" stroke="black" points="213.24,-46.02 209.74,-36.02 206.24,-46.02 213.24,-46.02"/>
<text text-anchor="middle" x="204.74" y="-39.82" font-family="Times,serif" font-size="14.00">2</text>
</g>
<!-- sel.func_801ADF94 -->
<g id="node3" class="node">
<title>sel.func_801ADF94</title>
<g id="a_node3"><a xlink:href="sel.func_801ADF94.svg" xlink:title="sel.func_801ADF94">
<ellipse fill="green" stroke="black" cx="100.74" cy="-378" rx="100.98" ry="18"/>
<text text-anchor="middle" x="100.74" y="-374.3" font-family="Times,serif" font-size="14.00">sel.func_801ADF94</text>
</a>
</g>
</g>
<!-- sel.func_801ADF94&#45;&gt;sel.func_801B2C70 -->
<g id="edge2" class="edge">
<title>sel.func_801ADF94&#45;&gt;sel.func_801B2C70</title>
<path fill="none" stroke="black" d="M111.19,-359.93C130.4,-328.57 171.41,-261.6 194,-224.71"/>
<polygon fill="black" stroke="black" points="197.08,-226.37 199.32,-216.02 191.11,-222.72 197.08,-226.37"/>
<text text-anchor="middle" x="106.19" y="-348.73" font-family="Times,serif" font-size="14.00">2</text>
</g>
<!-- sel.func_801AE6D0 -->
<g id="node4" class="node">
<title>sel.func_801AE6D0</title>
<g id="a_node4"><a xlink:href="sel.func_801AE6D0.svg" xlink:title="sel.func_801AE6D0">
<ellipse fill="green" stroke="black" cx="319.74" cy="-378" rx="100.98" ry="18"/>
<text text-anchor="middle" x="319.74" y="-374.3" font-family="Times,serif" font-size="14.00">sel.func_801AE6D0</text>
</a>
</g>
</g>
<!-- sel.func_801AE6D0&#45;&gt;sel.func_801B2C70 -->
<g id="edge3" class="edge">
<title>sel.func_801AE6D0&#45;&gt;sel.func_801B2C70</title>
<path fill="none" stroke="black" d="M309.19,-359.93C289.81,-328.57 248.43,-261.6 225.63,-224.71"/>
<polygon fill="black" stroke="black" points="228.49,-222.68 220.26,-216.02 222.54,-226.36 228.49,-222.68"/>
<text text-anchor="middle" x="304.19" y="-348.73" font-family="Times,serif" font-size="14.00">2</text>
</g>
</g>
</svg>
