<?xml version="1.0" encoding="UTF-8" standalone="no"?>
<!DOCTYPE svg PUBLIC "-//W3C//DTD SVG 1.1//EN"
 "http://www.w3.org/Graphics/SVG/1.1/DTD/svg11.dtd">
<!-- Generated by graphviz version 2.43.0 (0)
 -->
<!-- Title: sel.TryLoadSaveData Pages: 1 -->
<svg width="1210pt" height="404pt"
 viewBox="0.00 0.00 1209.84 404.00" xmlns="http://www.w3.org/2000/svg" xmlns:xlink="http://www.w3.org/1999/xlink">
<g id="graph0" class="graph" transform="scale(1 1) rotate(0) translate(4 400)">
<title>sel.TryLoadSaveData</title>
<polygon fill="white" stroke="transparent" points="-4,4 -4,-400 1205.84,-400 1205.84,4 -4,4"/>
<!-- sel.TryLoadSaveData -->
<g id="node1" class="node">
<title>sel.TryLoadSaveData</title>
<ellipse fill="green" stroke="black" cx="556.05" cy="-198" rx="109.38" ry="18"/>
<text text-anchor="middle" x="556.05" y="-194.3" font-family="Times,serif" font-size="14.00">sel.TryLoadSaveData</text>
</g>
<!-- FntPrint -->
<g id="node2" class="node">
<title>FntPrint</title>
<g id="a_node2"><a xlink:href="FntPrint.svg" xlink:title="FntPrint">
<ellipse fill="lightblue" stroke="black" cx="50.05" cy="-18" rx="50.09" ry="18"/>
<text text-anchor="middle" x="50.05" y="-14.3" font-family="Times,serif" font-size="14.00">FntPrint</text>
</a>
</g>
</g>
<!-- sel.TryLoadSaveData&#45;&gt;FntPrint -->
<g id="edge1" class="edge">
<title>sel.TryLoadSaveData&#45;&gt;FntPrint</title>
<path fill="none" stroke="black" d="M512.03,-181.52C416.35,-147.86 190.35,-68.36 94.38,-34.6"/>
<polygon fill="black" stroke="black" points="95.29,-31.21 84.69,-31.19 92.97,-37.81 95.29,-31.21"/>
<text text-anchor="middle" x="79.69" y="-34.99" font-family="Times,serif" font-size="14.00">2</text>
</g>
<!-- sel.LoadSaveData -->
<g id="node3" class="node">
<title>sel.LoadSaveData</title>
<g id="a_node3"><a xlink:href="sel.LoadSaveData.svg" xlink:title="sel.LoadSaveData">
<ellipse fill="green" stroke="black" cx="212.05" cy="-18" rx="93.68" ry="18"/>
<text text-anchor="middle" x="212.05" y="-14.3" font-family="Times,serif" font-size="14.00">sel.LoadSaveData</text>
</a>
</g>
</g>
<!-- sel.TryLoadSaveData&#45;&gt;sel.LoadSaveData -->
<g id="edge2" class="edge">
<title>sel.TryLoadSaveData&#45;&gt;sel.LoadSaveData</title>
<path fill="none" stroke="black" d="M524.61,-180.73C462.03,-148.35 321.98,-75.88 252.59,-39.98"/>
<polygon fill="black" stroke="black" points="253.78,-36.65 243.29,-35.17 250.56,-42.87 253.78,-36.65"/>
<text text-anchor="middle" x="238.29" y="-38.97" font-family="Times,serif" font-size="14.00">1</text>
</g>
<!-- sel.MakeMemcardPath -->
<g id="node4" class="node">
<title>sel.MakeMemcardPath</title>
<g id="a_node4"><a xlink:href="sel.MakeMemcardPath.svg" xlink:title="sel.MakeMemcardPath">
<ellipse fill="green" stroke="black" cx="441.05" cy="-18" rx="116.98" ry="18"/>
<text text-anchor="middle" x="441.05" y="-14.3" font-family="Times,serif" font-size="14.00">sel.MakeMemcardPath</text>
</a>
</g>
</g>
<!-- sel.TryLoadSaveData&#45;&gt;sel.MakeMemcardPath -->
<g id="edge3" class="edge">
<title>sel.TryLoadSaveData&#45;&gt;sel.MakeMemcardPath</title>
<path fill="none" stroke="black" d="M545.02,-179.93C524.75,-148.57 481.49,-81.6 457.65,-44.71"/>
<polygon fill="black" stroke="black" points="460.41,-42.52 452.04,-36.02 454.53,-46.31 460.41,-42.52"/>
<text text-anchor="middle" x="447.04" y="-39.82" font-family="Times,serif" font-size="14.00">1</text>
</g>
<!-- sel.MemcardClose -->
<g id="node5" class="node">
<title>sel.MemcardClose</title>
<g id="a_node5"><a xlink:href="sel.MemcardClose.svg" xlink:title="sel.MemcardClose">
<ellipse fill="green" stroke="black" cx="672.05" cy="-18" rx="96.38" ry="18"/>
<text text-anchor="middle" x="672.05" y="-14.3" font-family="Times,serif" font-size="14.00">sel.MemcardClose</text>
</a>
</g>
</g>
<!-- sel.TryLoadSaveData&#45;&gt;sel.MemcardClose -->
<g id="edge4" class="edge">
<title>sel.TryLoadSaveData&#45;&gt;sel.MemcardClose</title>
<path fill="none" stroke="black" d="M567.17,-179.93C587.61,-148.57 631.25,-81.6 655.29,-44.71"/>
<polygon fill="black" stroke="black" points="658.43,-46.3 660.96,-36.02 652.56,-42.48 658.43,-46.3"/>
<text text-anchor="middle" x="655.96" y="-39.82" font-family="Times,serif" font-size="14.00">1</text>
</g>
<!-- sel.MemcardInit -->
<g id="node6" class="node">
<title>sel.MemcardInit</title>
<g id="a_node6"><a xlink:href="sel.MemcardInit.svg" xlink:title="sel.MemcardInit">
<ellipse fill="green" stroke="black" cx="873.05" cy="-18" rx="87.18" ry="18"/>
<text text-anchor="middle" x="873.05" y="-14.3" font-family="Times,serif" font-size="14.00">sel.MemcardInit</text>
</a>
</g>
</g>
<!-- sel.TryLoadSaveData&#45;&gt;sel.MemcardInit -->
<g id="edge5" class="edge">
<title>sel.TryLoadSaveData&#45;&gt;sel.MemcardInit</title>
<path fill="none" stroke="black" d="M585.3,-180.57C643.01,-148.17 771.43,-76.06 835.37,-40.16"/>
<polygon fill="black" stroke="black" points="837.31,-43.08 844.32,-35.13 833.89,-36.97 837.31,-43.08"/>
<text text-anchor="middle" x="839.32" y="-38.93" font-family="Times,serif" font-size="14.00">1</text>
</g>
<!-- sel.MemcardReadFile -->
<g id="node7" class="node">
<title>sel.MemcardReadFile</title>
<g id="a_node7"><a xlink:href="sel.MemcardReadFile.svg" xlink:title="sel.MemcardReadFile">
<ellipse fill="green" stroke="black" cx="1090.05" cy="-18" rx="111.58" ry="18"/>
<text text-anchor="middle" x="1090.05" y="-14.3" font-family="Times,serif" font-size="14.00">sel.MemcardReadFile</text>
</a>
</g>
</g>
<!-- sel.TryLoadSaveData&#45;&gt;sel.MemcardReadFile -->
<g id="edge6" class="edge">
<title>sel.TryLoadSaveData&#45;&gt;sel.MemcardReadFile</title>
<path fill="none" stroke="black" d="M602.04,-181.67C699.8,-149.08 927.99,-73.02 1034.03,-37.67"/>
<polygon fill="black" stroke="black" points="1035.22,-40.97 1043.6,-34.48 1033,-34.33 1035.22,-40.97"/>
<text text-anchor="middle" x="1038.6" y="-38.28" font-family="Times,serif" font-size="14.00">1</text>
</g>
<!-- sel.SEL_Update -->
<g id="node8" class="node">
<title>sel.SEL_Update</title>
<g id="a_node8"><a xlink:href="sel.SEL_Update.svg" xlink:title="sel.SEL_Update">
<ellipse fill="green" stroke="black" cx="556.05" cy="-378" rx="84.49" ry="18"/>
<text text-anchor="middle" x="556.05" y="-374.3" font-family="Times,serif" font-size="14.00">sel.SEL_Update</text>
</a>
</g>
</g>
<!-- sel.SEL_Update&#45;&gt;sel.TryLoadSaveData -->
<g id="edge7" class="edge">
<title>sel.SEL_Update&#45;&gt;sel.TryLoadSaveData</title>
<path fill="none" stroke="black" d="M556.05,-359.93C556.05,-328.97 556.05,-263.3 556.05,-226.13"/>
<polygon fill="black" stroke="black" points="559.55,-226.02 556.05,-216.02 552.55,-226.02 559.55,-226.02"/>
<text text-anchor="middle" x="551.05" y="-348.73" font-family="Times,serif" font-size="14.00">1</text>
</g>
</g>
</svg>
