<?xml version="1.0" encoding="UTF-8" standalone="no"?>
<!DOCTYPE svg PUBLIC "-//W3C//DTD SVG 1.1//EN"
 "http://www.w3.org/Graphics/SVG/1.1/DTD/svg11.dtd">
<!-- Generated by graphviz version 2.43.0 (0)
 -->
<!-- Title: sel.MDEC_out Pages: 1 -->
<svg width="212pt" height="404pt"
 viewBox="0.00 0.00 212.08 404.00" xmlns="http://www.w3.org/2000/svg" xmlns:xlink="http://www.w3.org/1999/xlink">
<g id="graph0" class="graph" transform="scale(1 1) rotate(0) translate(4 400)">
<title>sel.MDEC_out</title>
<polygon fill="white" stroke="transparent" points="-4,4 -4,-400 208.08,-400 208.08,4 -4,4"/>
<!-- sel.MDEC_out -->
<g id="node1" class="node">
<title>sel.MDEC_out</title>
<ellipse fill="green" stroke="black" cx="102.04" cy="-198" rx="76.89" ry="18"/>
<text text-anchor="middle" x="102.04" y="-194.3" font-family="Times,serif" font-size="14.00">sel.MDEC_out</text>
</g>
<!-- sel.MDEC_out_sync -->
<g id="node2" class="node">
<title>sel.MDEC_out_sync</title>
<g id="a_node2"><a xlink:href="sel.MDEC_out_sync.svg" xlink:title="sel.MDEC_out_sync">
<ellipse fill="green" stroke="black" cx="102.04" cy="-18" rx="102.08" ry="18"/>
<text text-anchor="middle" x="102.04" y="-14.3" font-family="Times,serif" font-size="14.00">sel.MDEC_out_sync</text>
</a>
</g>
</g>
<!-- sel.MDEC_out&#45;&gt;sel.MDEC_out_sync -->
<g id="edge1" class="edge">
<title>sel.MDEC_out&#45;&gt;sel.MDEC_out_sync</title>
<path fill="none" stroke="black" d="M102.04,-179.93C102.04,-148.97 102.04,-83.3 102.04,-46.13"/>
<polygon fill="black" stroke="black" points="105.54,-46.02 102.04,-36.02 98.54,-46.02 105.54,-46.02"/>
<text text-anchor="middle" x="97.04" y="-39.82" font-family="Times,serif" font-size="14.00">1</text>
</g>
<!-- sel.DecDCTout -->
<g id="node3" class="node">
<title>sel.DecDCTout</title>
<g id="a_node3"><a xlink:href="sel.DecDCTout.svg" xlink:title="sel.DecDCTout">
<ellipse fill="green" stroke="black" cx="102.04" cy="-378" rx="79.09" ry="18"/>
<text text-anchor="middle" x="102.04" y="-374.3" font-family="Times,serif" font-size="14.00">sel.DecDCTout</text>
</a>
</g>
</g>
<!-- sel.DecDCTout&#45;&gt;sel.MDEC_out -->
<g id="edge2" class="edge">
<title>sel.DecDCTout&#45;&gt;sel.MDEC_out</title>
<path fill="none" stroke="black" d="M102.04,-359.93C102.04,-328.97 102.04,-263.3 102.04,-226.13"/>
<polygon fill="black" stroke="black" points="105.54,-226.02 102.04,-216.02 98.54,-226.02 105.54,-226.02"/>
<text text-anchor="middle" x="97.04" y="-348.73" font-family="Times,serif" font-size="14.00">1</text>
</g>
</g>
</svg>
