<?xml version="1.0" encoding="UTF-8" standalone="no"?>
<!DOCTYPE svg PUBLIC "-//W3C//DTD SVG 1.1//EN"
 "http://www.w3.org/Graphics/SVG/1.1/DTD/svg11.dtd">
<!-- Generated by graphviz version 2.43.0 (0)
 -->
<!-- Title: sel.func_801B3A94 Pages: 1 -->
<svg width="2101pt" height="404pt"
 viewBox="0.00 0.00 2101.34 404.00" xmlns="http://www.w3.org/2000/svg" xmlns:xlink="http://www.w3.org/1999/xlink">
<g id="graph0" class="graph" transform="scale(1 1) rotate(0) translate(4 400)">
<title>sel.func_801B3A94</title>
<polygon fill="white" stroke="transparent" points="-4,4 -4,-400 2097.34,-400 2097.34,4 -4,4"/>
<!-- sel.func_801B3A94 -->
<g id="node1" class="node">
<title>sel.func_801B3A94</title>
<ellipse fill="green" stroke="black" cx="1107.05" cy="-198" rx="99.38" ry="18"/>
<text text-anchor="middle" x="1107.05" y="-194.3" font-family="Times,serif" font-size="14.00">sel.func_801B3A94</text>
</g>
<!-- FntPrint -->
<g id="node2" class="node">
<title>FntPrint</title>
<g id="a_node2"><a xlink:href="FntPrint.svg" xlink:title="FntPrint">
<ellipse fill="lightblue" stroke="black" cx="50.05" cy="-18" rx="50.09" ry="18"/>
<text text-anchor="middle" x="50.05" y="-14.3" font-family="Times,serif" font-size="14.00">FntPrint</text>
</a>
</g>
</g>
<!-- sel.func_801B3A94&#45;&gt;FntPrint -->
<g id="edge1" class="edge">
<title>sel.func_801B3A94&#45;&gt;FntPrint</title>
<path fill="none" stroke="black" d="M1026.54,-187.36C856.08,-166.23 446.65,-111.58 109.05,-36 104.95,-35.08 100.72,-34.05 96.49,-32.95"/>
<polygon fill="black" stroke="black" points="97.26,-29.53 86.69,-30.3 95.43,-36.29 97.26,-29.53"/>
<text text-anchor="middle" x="81.69" y="-34.1" font-family="Times,serif" font-size="14.00">2</text>
</g>
<!-- sel.HydrateSaveSummaryEntry -->
<g id="node3" class="node">
<title>sel.HydrateSaveSummaryEntry</title>
<g id="a_node3"><a xlink:href="sel.HydrateSaveSummaryEntry.svg" xlink:title="sel.HydrateSaveSummaryEntry">
<ellipse fill="green" stroke="black" cx="277.05" cy="-18" rx="158.67" ry="18"/>
<text text-anchor="middle" x="277.05" y="-14.3" font-family="Times,serif" font-size="14.00">sel.HydrateSaveSummaryEntry</text>
</a>
</g>
</g>
<!-- sel.func_801B3A94&#45;&gt;sel.HydrateSaveSummaryEntry -->
<g id="edge2" class="edge">
<title>sel.func_801B3A94&#45;&gt;sel.HydrateSaveSummaryEntry</title>
<path fill="none" stroke="black" d="M1045.34,-183.77C897.5,-152.06 523.07,-71.76 357.69,-36.29"/>
<polygon fill="black" stroke="black" points="358.09,-32.8 347.58,-34.13 356.62,-39.65 358.09,-32.8"/>
<text text-anchor="middle" x="342.58" y="-37.93" font-family="Times,serif" font-size="14.00">1</text>
</g>
<!-- sel.LoadSaveData -->
<g id="node4" class="node">
<title>sel.LoadSaveData</title>
<g id="a_node4"><a xlink:href="sel.LoadSaveData.svg" xlink:title="sel.LoadSaveData">
<ellipse fill="green" stroke="black" cx="547.05" cy="-18" rx="93.68" ry="18"/>
<text text-anchor="middle" x="547.05" y="-14.3" font-family="Times,serif" font-size="14.00">sel.LoadSaveData</text>
</a>
</g>
</g>
<!-- sel.func_801B3A94&#45;&gt;sel.LoadSaveData -->
<g id="edge3" class="edge">
<title>sel.func_801B3A94&#45;&gt;sel.LoadSaveData</title>
<path fill="none" stroke="black" d="M1059.78,-181.98C956.89,-149.27 713,-71.75 602.8,-36.72"/>
<polygon fill="black" stroke="black" points="603.79,-33.36 593.2,-33.67 601.67,-40.03 603.79,-33.36"/>
<text text-anchor="middle" x="588.2" y="-37.47" font-family="Times,serif" font-size="14.00">1</text>
</g>
<!-- sel.MakeMemcardPath -->
<g id="node5" class="node">
<title>sel.MakeMemcardPath</title>
<g id="a_node5"><a xlink:href="sel.MakeMemcardPath.svg" xlink:title="sel.MakeMemcardPath">
<ellipse fill="green" stroke="black" cx="776.05" cy="-18" rx="116.98" ry="18"/>
<text text-anchor="middle" x="776.05" y="-14.3" font-family="Times,serif" font-size="14.00">sel.MakeMemcardPath</text>
</a>
</g>
</g>
<!-- sel.func_801B3A94&#45;&gt;sel.MakeMemcardPath -->
<g id="edge4" class="edge">
<title>sel.func_801B3A94&#45;&gt;sel.MakeMemcardPath</title>
<path fill="none" stroke="black" d="M1076.79,-180.73C1016.74,-148.44 882.51,-76.25 815.57,-40.25"/>
<polygon fill="black" stroke="black" points="817.05,-37.08 806.59,-35.42 813.74,-43.24 817.05,-37.08"/>
<text text-anchor="middle" x="801.59" y="-39.22" font-family="Times,serif" font-size="14.00">2</text>
</g>
<!-- sel.MemcardClose -->
<g id="node6" class="node">
<title>sel.MemcardClose</title>
<g id="a_node6"><a xlink:href="sel.MemcardClose.svg" xlink:title="sel.MemcardClose">
<ellipse fill="green" stroke="black" cx="1007.05" cy="-18" rx="96.38" ry="18"/>
<text text-anchor="middle" x="1007.05" y="-14.3" font-family="Times,serif" font-size="14.00">sel.MemcardClose</text>
</a>
</g>
</g>
<!-- sel.func_801B3A94&#45;&gt;sel.MemcardClose -->
<g id="edge5" class="edge">
<title>sel.func_801B3A94&#45;&gt;sel.MemcardClose</title>
<path fill="none" stroke="black" d="M1097.46,-179.93C1079.91,-148.7 1042.53,-82.17 1021.75,-45.18"/>
<polygon fill="black" stroke="black" points="1024.55,-43.02 1016.6,-36.02 1018.45,-46.45 1024.55,-43.02"/>
<text text-anchor="middle" x="1011.6" y="-39.82" font-family="Times,serif" font-size="14.00">2</text>
</g>
<!-- sel.MemcardInit -->
<g id="node7" class="node">
<title>sel.MemcardInit</title>
<g id="a_node7"><a xlink:href="sel.MemcardInit.svg" xlink:title="sel.MemcardInit">
<ellipse fill="green" stroke="black" cx="1208.05" cy="-18" rx="87.18" ry="18"/>
<text text-anchor="middle" x="1208.05" y="-14.3" font-family="Times,serif" font-size="14.00">sel.MemcardInit</text>
</a>
</g>
</g>
<!-- sel.func_801B3A94&#45;&gt;sel.MemcardInit -->
<g id="edge6" class="edge">
<title>sel.func_801B3A94&#45;&gt;sel.MemcardInit</title>
<path fill="none" stroke="black" d="M1116.73,-179.93C1134.45,-148.7 1172.2,-82.17 1193.19,-45.18"/>
<polygon fill="black" stroke="black" points="1196.5,-46.44 1198.39,-36.02 1190.41,-42.99 1196.5,-46.44"/>
<text text-anchor="middle" x="1193.39" y="-39.82" font-family="Times,serif" font-size="14.00">1</text>
</g>
<!-- sel.MemcardReadFile -->
<g id="node8" class="node">
<title>sel.MemcardReadFile</title>
<g id="a_node8"><a xlink:href="sel.MemcardReadFile.svg" xlink:title="sel.MemcardReadFile">
<ellipse fill="green" stroke="black" cx="1425.05" cy="-18" rx="111.58" ry="18"/>
<text text-anchor="middle" x="1425.05" y="-14.3" font-family="Times,serif" font-size="14.00">sel.MemcardReadFile</text>
</a>
</g>
</g>
<!-- sel.func_801B3A94&#45;&gt;sel.MemcardReadFile -->
<g id="edge7" class="edge">
<title>sel.func_801B3A94&#45;&gt;sel.MemcardReadFile</title>
<path fill="none" stroke="black" d="M1136.11,-180.73C1193.69,-148.5 1322.24,-76.55 1386.68,-40.48"/>
<polygon fill="black" stroke="black" points="1388.69,-43.36 1395.7,-35.42 1385.27,-37.25 1388.69,-43.36"/>
<text text-anchor="middle" x="1390.7" y="-39.22" font-family="Times,serif" font-size="14.00">1</text>
</g>
<!-- sel.MemcardWriteFile -->
<g id="node9" class="node">
<title>sel.MemcardWriteFile</title>
<g id="a_node9"><a xlink:href="sel.MemcardWriteFile.svg" xlink:title="sel.MemcardWriteFile">
<ellipse fill="green" stroke="black" cx="1669.05" cy="-18" rx="113.98" ry="18"/>
<text text-anchor="middle" x="1669.05" y="-14.3" font-family="Times,serif" font-size="14.00">sel.MemcardWriteFile</text>
</a>
</g>
</g>
<!-- sel.func_801B3A94&#45;&gt;sel.MemcardWriteFile -->
<g id="edge8" class="edge">
<title>sel.func_801B3A94&#45;&gt;sel.MemcardWriteFile</title>
<path fill="none" stroke="black" d="M1153.99,-182.13C1256.3,-149.73 1499.1,-72.83 1610.88,-37.42"/>
<polygon fill="black" stroke="black" points="1612.16,-40.69 1620.64,-34.33 1610.05,-34.01 1612.16,-40.69"/>
<text text-anchor="middle" x="1615.64" y="-38.13" font-family="Times,serif" font-size="14.00">1</text>
</g>
<!-- sel.StoreSaveData -->
<g id="node10" class="node">
<title>sel.StoreSaveData</title>
<g id="a_node10"><a xlink:href="sel.StoreSaveData.svg" xlink:title="sel.StoreSaveData">
<ellipse fill="green" stroke="black" cx="1898.05" cy="-18" rx="96.68" ry="18"/>
<text text-anchor="middle" x="1898.05" y="-14.3" font-family="Times,serif" font-size="14.00">sel.StoreSaveData</text>
</a>
</g>
</g>
<!-- sel.func_801B3A94&#45;&gt;sel.StoreSaveData -->
<g id="edge9" class="edge">
<title>sel.func_801B3A94&#45;&gt;sel.StoreSaveData</title>
<path fill="none" stroke="black" d="M1166.82,-183.55C1310.72,-151.17 1675.77,-69.02 1828.84,-34.57"/>
<polygon fill="black" stroke="black" points="1830.06,-37.89 1839.05,-32.28 1828.52,-31.06 1830.06,-37.89"/>
<text text-anchor="middle" x="1834.05" y="-36.08" font-family="Times,serif" font-size="14.00">1</text>
</g>
<!-- strcpy -->
<g id="node11" class="node">
<title>strcpy</title>
<g id="a_node11"><a xlink:href="strcpy.svg" xlink:title="strcpy">
<ellipse fill="lightblue" stroke="black" cx="2053.05" cy="-18" rx="40.09" ry="18"/>
<text text-anchor="middle" x="2053.05" y="-14.3" font-family="Times,serif" font-size="14.00">strcpy</text>
</a>
</g>
</g>
<!-- sel.func_801B3A94&#45;&gt;strcpy -->
<g id="edge10" class="edge">
<title>sel.func_801B3A94&#45;&gt;strcpy</title>
<path fill="none" stroke="black" d="M1186.23,-187.03C1343.68,-166.28 1706.51,-113.8 2004.05,-36 2007.18,-35.18 2010.4,-34.25 2013.63,-33.27"/>
<polygon fill="black" stroke="black" points="2014.77,-36.58 2023.21,-30.18 2012.62,-29.92 2014.77,-36.58"/>
<text text-anchor="middle" x="2018.21" y="-33.98" font-family="Times,serif" font-size="14.00">2</text>
</g>
<!-- sel.SEL_Update -->
<g id="node12" class="node">
<title>sel.SEL_Update</title>
<g id="a_node12"><a xlink:href="sel.SEL_Update.svg" xlink:title="sel.SEL_Update">
<ellipse fill="green" stroke="black" cx="1006.05" cy="-378" rx="84.49" ry="18"/>
<text text-anchor="middle" x="1006.05" y="-374.3" font-family="Times,serif" font-size="14.00">sel.SEL_Update</text>
</a>
</g>
</g>
<!-- sel.SEL_Update&#45;&gt;sel.func_801B3A94 -->
<g id="edge11" class="edge">
<title>sel.SEL_Update&#45;&gt;sel.func_801B3A94</title>
<path fill="none" stroke="black" d="M1015.73,-359.93C1033.45,-328.7 1071.2,-262.17 1092.19,-225.18"/>
<polygon fill="black" stroke="black" points="1095.5,-226.44 1097.39,-216.02 1089.41,-222.99 1095.5,-226.44"/>
<text text-anchor="middle" x="1010.73" y="-348.73" font-family="Times,serif" font-size="14.00">2</text>
</g>
<!-- sel.func_801B17C8 -->
<g id="node13" class="node">
<title>sel.func_801B17C8</title>
<g id="a_node13"><a xlink:href="sel.func_801B17C8.svg" xlink:title="sel.func_801B17C8">
<ellipse fill="green" stroke="black" cx="1209.05" cy="-378" rx="100.18" ry="18"/>
<text text-anchor="middle" x="1209.05" y="-374.3" font-family="Times,serif" font-size="14.00">sel.func_801B17C8</text>
</a>
</g>
</g>
<!-- sel.func_801B17C8&#45;&gt;sel.func_801B3A94 -->
<g id="edge12" class="edge">
<title>sel.func_801B17C8&#45;&gt;sel.func_801B3A94</title>
<path fill="none" stroke="black" d="M1199.27,-359.93C1181.29,-328.57 1142.92,-261.6 1121.78,-224.71"/>
<polygon fill="black" stroke="black" points="1124.8,-222.95 1116.8,-216.02 1118.73,-226.43 1124.8,-222.95"/>
<text text-anchor="middle" x="1194.27" y="-348.73" font-family="Times,serif" font-size="14.00">1</text>
</g>
</g>
</svg>
