<?xml version="1.0" encoding="UTF-8" standalone="no"?>
<!DOCTYPE svg PUBLIC "-//W3C//DTD SVG 1.1//EN"
 "http://www.w3.org/Graphics/SVG/1.1/DTD/svg11.dtd">
<!-- Generated by graphviz version 2.43.0 (0)
 -->
<!-- Title: sel.func_801B1EF4 Pages: 1 -->
<svg width="645pt" height="240pt"
 viewBox="0.00 0.00 644.53 240.23" xmlns="http://www.w3.org/2000/svg" xmlns:xlink="http://www.w3.org/1999/xlink">
<g id="graph0" class="graph" transform="scale(1 1) rotate(0) translate(4 236.23)">
<title>sel.func_801B1EF4</title>
<polygon fill="white" stroke="transparent" points="-4,4 -4,-236.23 640.53,-236.23 640.53,4 -4,4"/>
<!-- sel.func_801B1EF4 -->
<g id="node1" class="node">
<title>sel.func_801B1EF4</title>
<g id="a_node1"><a xlink:href="sel.func_801B1EF4.svg" xlink:title="sel.func_801B1EF4">
<ellipse fill="green" stroke="black" cx="319.74" cy="-34.23" rx="100.98" ry="18"/>
<text text-anchor="middle" x="319.74" y="-30.53" font-family="Times,serif" font-size="14.00">sel.func_801B1EF4</text>
</a>
</g>
</g>
<!-- sel.func_801B1EF4&#45;&gt;sel.func_801B1EF4 -->
<g id="edge1" class="edge">
<title>sel.func_801B1EF4&#45;&gt;sel.func_801B1EF4</title>
<path fill="none" stroke="black" d="M371.62,-49.69C405.6,-53.89 438.48,-48.73 438.48,-34.23 438.48,-21.2 411.94,-15.72 381.91,-17.78"/>
<polygon fill="black" stroke="black" points="381.24,-14.32 371.62,-18.76 381.91,-21.29 381.24,-14.32"/>
<text text-anchor="middle" x="366.62" y="-7.56" font-family="Times,serif" font-size="14.00">1</text>
</g>
<!-- sel.func_801B1EF4&#45;&gt;sel.func_801B1EF4 -->
<g id="edge2" class="edge">
<title>sel.func_801B1EF4&#45;&gt;sel.func_801B1EF4</title>
<path fill="none" stroke="black" d="M343.59,-51.85C391.28,-78.16 456.48,-72.29 456.48,-34.23 456.48,1.45 399.18,8.84 352.72,-12.06"/>
<polygon fill="black" stroke="black" points="350.98,-9.01 343.59,-16.61 354.1,-15.28 350.98,-9.01"/>
<text text-anchor="middle" x="338.59" y="-55.65" font-family="Times,serif" font-size="14.00">1</text>
</g>
<!-- sel.func_801B1F4C -->
<g id="node2" class="node">
<title>sel.func_801B1F4C</title>
<g id="a_node2"><a xlink:href="sel.func_801B1F4C.svg" xlink:title="sel.func_801B1F4C">
<ellipse fill="green" stroke="black" cx="100.74" cy="-214.23" rx="100.98" ry="18"/>
<text text-anchor="middle" x="100.74" y="-210.53" font-family="Times,serif" font-size="14.00">sel.func_801B1F4C</text>
</a>
</g>
</g>
<!-- sel.func_801B1F4C&#45;&gt;sel.func_801B1EF4 -->
<g id="edge3" class="edge">
<title>sel.func_801B1F4C&#45;&gt;sel.func_801B1EF4</title>
<path fill="none" stroke="black" d="M121.34,-196.48C160.64,-164.55 246.36,-94.88 291.16,-58.46"/>
<polygon fill="black" stroke="black" points="293.48,-61.08 299.03,-52.06 289.07,-55.65 293.48,-61.08"/>
<text text-anchor="middle" x="116.34" y="-185.28" font-family="Times,serif" font-size="14.00">1</text>
</g>
<!-- sel.func_801B1FD8 -->
<g id="node3" class="node">
<title>sel.func_801B1FD8</title>
<g id="a_node3"><a xlink:href="sel.func_801B1FD8.svg" xlink:title="sel.func_801B1FD8">
<ellipse fill="green" stroke="black" cx="319.74" cy="-214.23" rx="100.98" ry="18"/>
<text text-anchor="middle" x="319.74" y="-210.53" font-family="Times,serif" font-size="14.00">sel.func_801B1FD8</text>
</a>
</g>
</g>
<!-- sel.func_801B1FD8&#45;&gt;sel.func_801B1EF4 -->
<g id="edge4" class="edge">
<title>sel.func_801B1FD8&#45;&gt;sel.func_801B1EF4</title>
<path fill="none" stroke="black" d="M319.74,-196.16C319.74,-165.2 319.74,-99.53 319.74,-62.36"/>
<polygon fill="black" stroke="black" points="323.24,-62.24 319.74,-52.24 316.24,-62.24 323.24,-62.24"/>
<text text-anchor="middle" x="314.74" y="-184.96" font-family="Times,serif" font-size="14.00">1</text>
</g>
<!-- sel.func_801B2108 -->
<g id="node4" class="node">
<title>sel.func_801B2108</title>
<g id="a_node4"><a xlink:href="sel.func_801B2108.svg" xlink:title="sel.func_801B2108">
<ellipse fill="green" stroke="black" cx="537.74" cy="-214.23" rx="98.58" ry="18"/>
<text text-anchor="middle" x="537.74" y="-210.53" font-family="Times,serif" font-size="14.00">sel.func_801B2108</text>
</a>
</g>
</g>
<!-- sel.func_801B2108&#45;&gt;sel.func_801B1EF4 -->
<g id="edge5" class="edge">
<title>sel.func_801B2108&#45;&gt;sel.func_801B1EF4</title>
<path fill="none" stroke="black" d="M517.23,-196.48C478.12,-164.55 392.79,-94.88 348.19,-58.46"/>
<polygon fill="black" stroke="black" points="350.31,-55.67 340.35,-52.06 345.89,-61.1 350.31,-55.67"/>
<text text-anchor="middle" x="512.23" y="-185.28" font-family="Times,serif" font-size="14.00">1</text>
</g>
</g>
</svg>
