<?xml version="1.0" encoding="UTF-8" standalone="no"?>
<!DOCTYPE svg PUBLIC "-//W3C//DTD SVG 1.1//EN"
 "http://www.w3.org/Graphics/SVG/1.1/DTD/svg11.dtd">
<!-- Generated by graphviz version 2.43.0 (0)
 -->
<!-- Title: sel.func_801B5350 Pages: 1 -->
<svg width="388pt" height="404pt"
 viewBox="0.00 0.00 388.33 404.00" xmlns="http://www.w3.org/2000/svg" xmlns:xlink="http://www.w3.org/1999/xlink">
<g id="graph0" class="graph" transform="scale(1 1) rotate(0) translate(4 400)">
<title>sel.func_801B5350</title>
<polygon fill="white" stroke="transparent" points="-4,4 -4,-400 384.33,-400 384.33,4 -4,4"/>
<!-- sel.func_801B5350 -->
<g id="node1" class="node">
<title>sel.func_801B5350</title>
<ellipse fill="green" stroke="black" cx="193.24" cy="-198" rx="98.58" ry="18"/>
<text text-anchor="middle" x="193.24" y="-194.3" font-family="Times,serif" font-size="14.00">sel.func_801B5350</text>
</g>
<!-- sel.AnimateEntity -->
<g id="node2" class="node">
<title>sel.AnimateEntity</title>
<g id="a_node2"><a xlink:href="sel.AnimateEntity.svg" xlink:title="sel.AnimateEntity">
<ellipse fill="green" stroke="black" cx="94.24" cy="-18" rx="94.48" ry="18"/>
<text text-anchor="middle" x="94.24" y="-14.3" font-family="Times,serif" font-size="14.00">sel.AnimateEntity</text>
</a>
</g>
</g>
<!-- sel.func_801B5350&#45;&gt;sel.AnimateEntity -->
<g id="edge1" class="edge">
<title>sel.func_801B5350&#45;&gt;sel.AnimateEntity</title>
<path fill="none" stroke="black" d="M183.75,-179.93C166.38,-148.7 129.37,-82.17 108.8,-45.18"/>
<polygon fill="black" stroke="black" points="111.62,-43.05 103.71,-36.02 105.51,-46.46 111.62,-43.05"/>
<text text-anchor="middle" x="98.71" y="-39.82" font-family="Times,serif" font-size="14.00">2</text>
</g>
<!-- sel.SEL_SetStep -->
<g id="node3" class="node">
<title>sel.SEL_SetStep</title>
<g id="a_node3"><a xlink:href="sel.SEL_SetStep.svg" xlink:title="sel.SEL_SetStep">
<ellipse fill="green" stroke="black" cx="293.24" cy="-18" rx="87.18" ry="18"/>
<text text-anchor="middle" x="293.24" y="-14.3" font-family="Times,serif" font-size="14.00">sel.SEL_SetStep</text>
</a>
</g>
</g>
<!-- sel.func_801B5350&#45;&gt;sel.SEL_SetStep -->
<g id="edge2" class="edge">
<title>sel.func_801B5350&#45;&gt;sel.SEL_SetStep</title>
<path fill="none" stroke="black" d="M202.83,-179.93C220.38,-148.7 257.75,-82.17 278.53,-45.18"/>
<polygon fill="black" stroke="black" points="281.84,-46.45 283.68,-36.02 275.73,-43.02 281.84,-46.45"/>
<text text-anchor="middle" x="278.68" y="-39.82" font-family="Times,serif" font-size="14.00">1</text>
</g>
<!-- sel.func_801B5A7C -->
<g id="node4" class="node">
<title>sel.func_801B5A7C</title>
<g id="a_node4"><a xlink:href="sel.func_801B5A7C.svg" xlink:title="sel.func_801B5A7C">
<ellipse fill="green" stroke="black" cx="193.24" cy="-378" rx="100.98" ry="18"/>
<text text-anchor="middle" x="193.24" y="-374.3" font-family="Times,serif" font-size="14.00">sel.func_801B5A7C</text>
</a>
</g>
</g>
<!-- sel.func_801B5A7C&#45;&gt;sel.func_801B5350 -->
<g id="edge3" class="edge">
<title>sel.func_801B5A7C&#45;&gt;sel.func_801B5350</title>
<path fill="none" stroke="black" d="M193.24,-359.93C193.24,-328.97 193.24,-263.3 193.24,-226.13"/>
<polygon fill="black" stroke="black" points="196.74,-226.02 193.24,-216.02 189.74,-226.02 196.74,-226.02"/>
<text text-anchor="middle" x="188.24" y="-348.73" font-family="Times,serif" font-size="14.00">1</text>
</g>
</g>
</svg>
