<?xml version="1.0" encoding="UTF-8" standalone="no"?>
<!DOCTYPE svg PUBLIC "-//W3C//DTD SVG 1.1//EN"
 "http://www.w3.org/Graphics/SVG/1.1/DTD/svg11.dtd">
<!-- Generated by graphviz version 2.43.0 (0)
 -->
<!-- Title: servant.func_80171560 Pages: 1 -->
<svg width="508pt" height="224pt"
 viewBox="0.00 0.00 508.13 224.00" xmlns="http://www.w3.org/2000/svg" xmlns:xlink="http://www.w3.org/1999/xlink">
<g id="graph0" class="graph" transform="scale(1 1) rotate(0) translate(4 220)">
<title>servant.func_80171560</title>
<polygon fill="white" stroke="transparent" points="-4,4 -4,-220 504.13,-220 504.13,4 -4,4"/>
<!-- servant.func_80171560 -->
<g id="node1" class="node">
<title>servant.func_80171560</title>
<ellipse fill="green" stroke="black" cx="249.24" cy="-18" rx="120.48" ry="18"/>
<text text-anchor="middle" x="249.24" y="-14.3" font-family="Times,serif" font-size="14.00">servant.func_80171560</text>
</g>
<!-- servant.func_80172120 -->
<g id="node2" class="node">
<title>servant.func_80172120</title>
<g id="a_node2"><a xlink:href="servant.func_80172120.svg" xlink:title="servant.func_80172120">
<ellipse fill="red" stroke="black" cx="120.24" cy="-198" rx="120.48" ry="18"/>
<text text-anchor="middle" x="120.24" y="-194.3" font-family="Times,serif" font-size="14.00">servant.func_80172120</text>
</a>
</g>
</g>
<!-- servant.func_80172120&#45;&gt;servant.func_80171560 -->
<g id="edge1" class="edge">
<title>servant.func_80172120&#45;&gt;servant.func_80171560</title>
<path fill="none" stroke="black" d="M132.61,-179.93C155.44,-148.43 204.28,-81.03 230.95,-44.24"/>
<polygon fill="black" stroke="black" points="233.87,-46.17 236.91,-36.02 228.21,-42.06 233.87,-46.17"/>
<text text-anchor="middle" x="127.61" y="-168.73" font-family="Times,serif" font-size="14.00">1</text>
</g>
<!-- servant.func_80172C30 -->
<g id="node3" class="node">
<title>servant.func_80172C30</title>
<g id="a_node3"><a xlink:href="servant.func_80172C30.svg" xlink:title="servant.func_80172C30">
<ellipse fill="red" stroke="black" cx="379.24" cy="-198" rx="120.78" ry="18"/>
<text text-anchor="middle" x="379.24" y="-194.3" font-family="Times,serif" font-size="14.00">servant.func_80172C30</text>
</a>
</g>
</g>
<!-- servant.func_80172C30&#45;&gt;servant.func_80171560 -->
<g id="edge2" class="edge">
<title>servant.func_80172C30&#45;&gt;servant.func_80171560</title>
<path fill="none" stroke="black" d="M366.77,-179.93C343.77,-148.43 294.55,-81.03 267.67,-44.24"/>
<polygon fill="black" stroke="black" points="270.39,-42.03 261.67,-36.02 264.74,-46.16 270.39,-42.03"/>
<text text-anchor="middle" x="361.77" y="-168.73" font-family="Times,serif" font-size="14.00">1</text>
</g>
</g>
</svg>
