<?xml version="1.0" encoding="UTF-8" standalone="no"?>
<!DOCTYPE svg PUBLIC "-//W3C//DTD SVG 1.1//EN"
 "http://www.w3.org/Graphics/SVG/1.1/DTD/svg11.dtd">
<!-- Generated by graphviz version 2.43.0 (0)
 -->
<!-- Title: servant.DestroyEntity Pages: 1 -->
<svg width="2472pt" height="404pt"
 viewBox="0.00 0.00 2471.83 404.00" xmlns="http://www.w3.org/2000/svg" xmlns:xlink="http://www.w3.org/1999/xlink">
<g id="graph0" class="graph" transform="scale(1 1) rotate(0) translate(4 400)">
<title>servant.DestroyEntity</title>
<polygon fill="white" stroke="transparent" points="-4,4 -4,-400 2467.83,-400 2467.83,4 -4,4"/>
<!-- servant.DestroyEntity -->
<g id="node1" class="node">
<title>servant.DestroyEntity</title>
<ellipse fill="green" stroke="black" cx="1300.59" cy="-198" rx="114.28" ry="18"/>
<text text-anchor="middle" x="1300.59" y="-194.3" font-family="Times,serif" font-size="14.00">servant.DestroyEntity</text>
</g>
<!-- dra.FreePrimitives -->
<g id="node2" class="node">
<title>dra.FreePrimitives</title>
<g id="a_node2"><a xlink:href="dra.FreePrimitives.svg" xlink:title="dra.FreePrimitives">
<ellipse fill="green" stroke="black" cx="1300.59" cy="-18" rx="98.58" ry="18"/>
<text text-anchor="middle" x="1300.59" y="-14.3" font-family="Times,serif" font-size="14.00">dra.FreePrimitives</text>
</a>
</g>
</g>
<!-- servant.DestroyEntity&#45;&gt;dra.FreePrimitives -->
<g id="edge1" class="edge">
<title>servant.DestroyEntity&#45;&gt;dra.FreePrimitives</title>
<path fill="none" stroke="black" d="M1300.59,-179.93C1300.59,-148.97 1300.59,-83.3 1300.59,-46.13"/>
<polygon fill="black" stroke="black" points="1304.09,-46.02 1300.59,-36.02 1297.09,-46.02 1304.09,-46.02"/>
<text text-anchor="middle" x="1295.59" y="-39.82" font-family="Times,serif" font-size="14.00">1</text>
</g>
<!-- servant.BatFamiliarBlueTrail -->
<g id="node3" class="node">
<title>servant.BatFamiliarBlueTrail</title>
<g id="a_node3"><a xlink:href="servant.BatFamiliarBlueTrail.svg" xlink:title="servant.BatFamiliarBlueTrail">
<ellipse fill="green" stroke="black" cx="145.59" cy="-378" rx="145.67" ry="18"/>
<text text-anchor="middle" x="145.59" y="-374.3" font-family="Times,serif" font-size="14.00">servant.BatFamiliarBlueTrail</text>
</a>
</g>
</g>
<!-- servant.BatFamiliarBlueTrail&#45;&gt;servant.DestroyEntity -->
<g id="edge2" class="edge">
<title>servant.BatFamiliarBlueTrail&#45;&gt;servant.DestroyEntity</title>
<path fill="none" stroke="black" d="M232.87,-363.55C446.92,-330.56 996.06,-245.93 1211.73,-212.69"/>
<polygon fill="black" stroke="black" points="1212.4,-216.13 1221.75,-211.15 1211.33,-209.21 1212.4,-216.13"/>
<text text-anchor="middle" x="227.87" y="-352.35" font-family="Times,serif" font-size="14.00">1</text>
</g>
<!-- servant.CreateBlueTrailEntity -->
<g id="node4" class="node">
<title>servant.CreateBlueTrailEntity</title>
<g id="a_node4"><a xlink:href="servant.CreateBlueTrailEntity.svg" xlink:title="servant.CreateBlueTrailEntity">
<ellipse fill="green" stroke="black" cx="460.59" cy="-378" rx="151.37" ry="18"/>
<text text-anchor="middle" x="460.59" y="-374.3" font-family="Times,serif" font-size="14.00">servant.CreateBlueTrailEntity</text>
</a>
</g>
</g>
<!-- servant.CreateBlueTrailEntity&#45;&gt;servant.DestroyEntity -->
<g id="edge3" class="edge">
<title>servant.CreateBlueTrailEntity&#45;&gt;servant.DestroyEntity</title>
<path fill="none" stroke="black" d="M531.12,-362.05C687.98,-328.82 1064.53,-249.02 1225.52,-214.91"/>
<polygon fill="black" stroke="black" points="1226.29,-218.32 1235.35,-212.82 1224.84,-211.47 1226.29,-218.32"/>
<text text-anchor="middle" x="526.12" y="-350.85" font-family="Times,serif" font-size="14.00">1</text>
</g>
<!-- servant.CreateEventEntity -->
<g id="node5" class="node">
<title>servant.CreateEventEntity</title>
<g id="a_node5"><a xlink:href="servant.CreateEventEntity.svg" xlink:title="servant.CreateEventEntity">
<ellipse fill="green" stroke="black" cx="765.59" cy="-378" rx="135.68" ry="18"/>
<text text-anchor="middle" x="765.59" y="-374.3" font-family="Times,serif" font-size="14.00">servant.CreateEventEntity</text>
</a>
</g>
</g>
<!-- servant.CreateEventEntity&#45;&gt;servant.DestroyEntity -->
<g id="edge4" class="edge">
<title>servant.CreateEventEntity&#45;&gt;servant.DestroyEntity</title>
<path fill="none" stroke="black" d="M813.54,-361.05C912.52,-328.11 1139.03,-252.75 1244.56,-217.64"/>
<polygon fill="black" stroke="black" points="1245.7,-220.95 1254.08,-214.47 1243.49,-214.31 1245.7,-220.95"/>
<text text-anchor="middle" x="808.54" y="-349.85" font-family="Times,serif" font-size="14.00">1</text>
</g>
<!-- servant.func_8017160C -->
<g id="node6" class="node">
<title>servant.func_8017160C</title>
<g id="a_node6"><a xlink:href="servant.func_8017160C.svg" xlink:title="servant.func_8017160C">
<ellipse fill="green" stroke="black" cx="1040.59" cy="-378" rx="120.78" ry="18"/>
<text text-anchor="middle" x="1040.59" y="-374.3" font-family="Times,serif" font-size="14.00">servant.func_8017160C</text>
</a>
</g>
</g>
<!-- servant.func_8017160C&#45;&gt;servant.DestroyEntity -->
<g id="edge5" class="edge">
<title>servant.func_8017160C&#45;&gt;servant.DestroyEntity</title>
<path fill="none" stroke="black" d="M1065.05,-360.25C1111.99,-328.12 1214.73,-257.78 1267.65,-221.55"/>
<polygon fill="black" stroke="black" points="1269.73,-224.37 1276,-215.83 1265.77,-218.59 1269.73,-224.37"/>
<text text-anchor="middle" x="1060.05" y="-349.05" font-family="Times,serif" font-size="14.00">1</text>
</g>
<!-- servant.func_801719E0 -->
<g id="node7" class="node">
<title>servant.func_801719E0</title>
<g id="a_node7"><a xlink:href="servant.func_801719E0.svg" xlink:title="servant.func_801719E0">
<ellipse fill="green" stroke="black" cx="1300.59" cy="-378" rx="120.78" ry="18"/>
<text text-anchor="middle" x="1300.59" y="-374.3" font-family="Times,serif" font-size="14.00">servant.func_801719E0</text>
</a>
</g>
</g>
<!-- servant.func_801719E0&#45;&gt;servant.DestroyEntity -->
<g id="edge6" class="edge">
<title>servant.func_801719E0&#45;&gt;servant.DestroyEntity</title>
<path fill="none" stroke="black" d="M1300.59,-359.93C1300.59,-328.97 1300.59,-263.3 1300.59,-226.13"/>
<polygon fill="black" stroke="black" points="1304.09,-226.02 1300.59,-216.02 1297.09,-226.02 1304.09,-226.02"/>
<text text-anchor="middle" x="1295.59" y="-348.73" font-family="Times,serif" font-size="14.00">1</text>
</g>
<!-- servant.func_80171ED4 -->
<g id="node8" class="node">
<title>servant.func_80171ED4</title>
<g id="a_node8"><a xlink:href="servant.func_80171ED4.svg" xlink:title="servant.func_80171ED4">
<ellipse fill="green" stroke="black" cx="1561.59" cy="-378" rx="122.38" ry="18"/>
<text text-anchor="middle" x="1561.59" y="-374.3" font-family="Times,serif" font-size="14.00">servant.func_80171ED4</text>
</a>
</g>
</g>
<!-- servant.func_80171ED4&#45;&gt;servant.DestroyEntity -->
<g id="edge7" class="edge">
<title>servant.func_80171ED4&#45;&gt;servant.DestroyEntity</title>
<path fill="none" stroke="black" d="M1537.03,-360.25C1489.91,-328.12 1386.77,-257.78 1333.65,-221.55"/>
<polygon fill="black" stroke="black" points="1335.5,-218.57 1325.27,-215.83 1331.56,-224.36 1335.5,-218.57"/>
<text text-anchor="middle" x="1532.03" y="-349.05" font-family="Times,serif" font-size="14.00">1</text>
</g>
<!-- servant.func_80172C30 -->
<g id="node9" class="node">
<title>servant.func_80172C30</title>
<g id="a_node9"><a xlink:href="servant.func_80172C30.svg" xlink:title="servant.func_80172C30">
<ellipse fill="red" stroke="black" cx="1822.59" cy="-378" rx="120.78" ry="18"/>
<text text-anchor="middle" x="1822.59" y="-374.3" font-family="Times,serif" font-size="14.00">servant.func_80172C30</text>
</a>
</g>
</g>
<!-- servant.func_80172C30&#45;&gt;servant.DestroyEntity -->
<g id="edge8" class="edge">
<title>servant.func_80172C30&#45;&gt;servant.DestroyEntity</title>
<path fill="none" stroke="black" d="M1776.26,-361.2C1680.18,-328.44 1459.55,-253.21 1356.07,-217.92"/>
<polygon fill="black" stroke="black" points="1357.03,-214.55 1346.43,-214.63 1354.77,-221.17 1357.03,-214.55"/>
<text text-anchor="middle" x="1771.26" y="-350" font-family="Times,serif" font-size="14.00">1</text>
</g>
<!-- servant.func_80173C2C -->
<g id="node10" class="node">
<title>servant.func_80173C2C</title>
<g id="a_node10"><a xlink:href="servant.func_80173C2C.svg" xlink:title="servant.func_80173C2C">
<ellipse fill="green" stroke="black" cx="2083.59" cy="-378" rx="122.38" ry="18"/>
<text text-anchor="middle" x="2083.59" y="-374.3" font-family="Times,serif" font-size="14.00">servant.func_80173C2C</text>
</a>
</g>
</g>
<!-- servant.func_80173C2C&#45;&gt;servant.DestroyEntity -->
<g id="edge9" class="edge">
<title>servant.func_80173C2C&#45;&gt;servant.DestroyEntity</title>
<path fill="none" stroke="black" d="M2020.17,-362.58C1876.13,-329.84 1524.99,-250.01 1372.85,-215.43"/>
<polygon fill="black" stroke="black" points="1373.21,-211.92 1362.69,-213.12 1371.66,-218.75 1373.21,-211.92"/>
<text text-anchor="middle" x="2015.17" y="-351.38" font-family="Times,serif" font-size="14.00">1</text>
</g>
<!-- servant.func_80174038 -->
<g id="node11" class="node">
<title>servant.func_80174038</title>
<g id="a_node11"><a xlink:href="servant.func_80174038.svg" xlink:title="servant.func_80174038">
<ellipse fill="green" stroke="black" cx="2343.59" cy="-378" rx="120.48" ry="18"/>
<text text-anchor="middle" x="2343.59" y="-374.3" font-family="Times,serif" font-size="14.00">servant.func_80174038</text>
</a>
</g>
</g>
<!-- servant.func_80174038&#45;&gt;servant.DestroyEntity -->
<g id="edge10" class="edge">
<title>servant.func_80174038&#45;&gt;servant.DestroyEntity</title>
<path fill="none" stroke="black" d="M2267.32,-363.98C2077.26,-331.55 1583.63,-247.31 1385.11,-213.42"/>
<polygon fill="black" stroke="black" points="1385.47,-209.94 1375.02,-211.7 1384.29,-216.84 1385.47,-209.94"/>
<text text-anchor="middle" x="2262.32" y="-352.78" font-family="Times,serif" font-size="14.00">1</text>
</g>
</g>
</svg>
