<?xml version="1.0" encoding="UTF-8" standalone="no"?>
<!DOCTYPE svg PUBLIC "-//W3C//DTD SVG 1.1//EN"
 "http://www.w3.org/Graphics/SVG/1.1/DTD/svg11.dtd">
<!-- Generated by graphviz version 2.43.0 (0)
 -->
<!-- Title: servant.func_80171ED4 Pages: 1 -->
<svg width="880pt" height="224pt"
 viewBox="0.00 0.00 879.98 224.00" xmlns="http://www.w3.org/2000/svg" xmlns:xlink="http://www.w3.org/1999/xlink">
<g id="graph0" class="graph" transform="scale(1 1) rotate(0) translate(4 220)">
<title>servant.func_80171ED4</title>
<polygon fill="white" stroke="transparent" points="-4,4 -4,-220 875.98,-220 875.98,4 -4,4"/>
<!-- servant.func_80171ED4 -->
<g id="node1" class="node">
<title>servant.func_80171ED4</title>
<ellipse fill="red" stroke="black" cx="377.74" cy="-198" rx="122.38" ry="18"/>
<text text-anchor="middle" x="377.74" y="-194.3" font-family="Times,serif" font-size="14.00">servant.func_80171ED4</text>
</g>
<!-- LoadImage -->
<g id="node2" class="node">
<title>LoadImage</title>
<g id="a_node2"><a xlink:href="LoadImage.svg" xlink:title="LoadImage">
<ellipse fill="lightblue" stroke="black" cx="61.74" cy="-18" rx="61.99" ry="18"/>
<text text-anchor="middle" x="61.74" y="-14.3" font-family="Times,serif" font-size="14.00">LoadImage</text>
</a>
</g>
</g>
<!-- servant.func_80171ED4&#45;&gt;LoadImage -->
<g id="edge1" class="edge">
<title>servant.func_80171ED4&#45;&gt;LoadImage</title>
<path fill="none" stroke="black" d="M348.3,-180.41C290.18,-147.67 160.88,-74.84 97.78,-39.3"/>
<polygon fill="black" stroke="black" points="99.4,-36.19 88.97,-34.33 95.96,-42.29 99.4,-36.19"/>
<text text-anchor="middle" x="83.97" y="-38.13" font-family="Times,serif" font-size="14.00">1</text>
</g>
<!-- servant.DestroyEntity -->
<g id="node3" class="node">
<title>servant.DestroyEntity</title>
<g id="a_node3"><a xlink:href="servant.DestroyEntity.svg" xlink:title="servant.DestroyEntity">
<ellipse fill="green" stroke="black" cx="255.74" cy="-18" rx="114.28" ry="18"/>
<text text-anchor="middle" x="255.74" y="-14.3" font-family="Times,serif" font-size="14.00">servant.DestroyEntity</text>
</a>
</g>
</g>
<!-- servant.func_80171ED4&#45;&gt;servant.DestroyEntity -->
<g id="edge2" class="edge">
<title>servant.func_80171ED4&#45;&gt;servant.DestroyEntity</title>
<path fill="none" stroke="black" d="M366.05,-179.93C344.55,-148.57 298.65,-81.6 273.36,-44.71"/>
<polygon fill="black" stroke="black" points="275.95,-42.29 267.41,-36.02 270.17,-46.24 275.95,-42.29"/>
<text text-anchor="middle" x="262.41" y="-39.82" font-family="Times,serif" font-size="14.00">1</text>
</g>
<!-- servant.ProcessEvent -->
<g id="node4" class="node">
<title>servant.ProcessEvent</title>
<g id="a_node4"><a xlink:href="servant.ProcessEvent.svg" xlink:title="servant.ProcessEvent">
<ellipse fill="red" stroke="black" cx="500.74" cy="-18" rx="112.38" ry="18"/>
<text text-anchor="middle" x="500.74" y="-14.3" font-family="Times,serif" font-size="14.00">servant.ProcessEvent</text>
</a>
</g>
</g>
<!-- servant.func_80171ED4&#45;&gt;servant.ProcessEvent -->
<g id="edge3" class="edge">
<title>servant.func_80171ED4&#45;&gt;servant.ProcessEvent</title>
<path fill="none" stroke="black" d="M389.54,-179.93C411.21,-148.57 457.49,-81.6 482.98,-44.71"/>
<polygon fill="black" stroke="black" points="486.18,-46.23 488.99,-36.02 480.42,-42.25 486.18,-46.23"/>
<text text-anchor="middle" x="483.99" y="-39.82" font-family="Times,serif" font-size="14.00">1</text>
</g>
<!-- servant.func_80174864 -->
<g id="node5" class="node">
<title>servant.func_80174864</title>
<g id="a_node5"><a xlink:href="servant.func_80174864.svg" xlink:title="servant.func_80174864">
<ellipse fill="green" stroke="black" cx="751.74" cy="-18" rx="120.48" ry="18"/>
<text text-anchor="middle" x="751.74" y="-14.3" font-family="Times,serif" font-size="14.00">servant.func_80174864</text>
</a>
</g>
</g>
<!-- servant.func_80171ED4&#45;&gt;servant.func_80174864 -->
<g id="edge4" class="edge">
<title>servant.func_80171ED4&#45;&gt;servant.func_80174864</title>
<path fill="none" stroke="black" d="M412.26,-180.57C480.67,-148.01 633.34,-75.35 708.39,-39.63"/>
<polygon fill="black" stroke="black" points="710.06,-42.72 717.58,-35.26 707.05,-36.4 710.06,-42.72"/>
<text text-anchor="middle" x="712.58" y="-39.06" font-family="Times,serif" font-size="14.00">1</text>
</g>
</g>
</svg>
