<?xml version="1.0" encoding="UTF-8" standalone="no"?>
<!DOCTYPE svg PUBLIC "-//W3C//DTD SVG 1.1//EN"
 "http://www.w3.org/Graphics/SVG/1.1/DTD/svg11.dtd">
<!-- Generated by graphviz version 2.43.0 (0)
 -->
<!-- Title: servant.func_80172120 Pages: 1 -->
<svg width="3970pt" height="224pt"
 viewBox="0.00 0.00 3969.58 224.00" xmlns="http://www.w3.org/2000/svg" xmlns:xlink="http://www.w3.org/1999/xlink">
<g id="graph0" class="graph" transform="scale(1 1) rotate(0) translate(4 220)">
<title>servant.func_80172120</title>
<polygon fill="white" stroke="transparent" points="-4,4 -4,-220 3965.58,-220 3965.58,4 -4,4"/>
<!-- servant.func_80172120 -->
<g id="node1" class="node">
<title>servant.func_80172120</title>
<ellipse fill="red" stroke="black" cx="1642.34" cy="-198" rx="120.48" ry="18"/>
<text text-anchor="middle" x="1642.34" y="-194.3" font-family="Times,serif" font-size="14.00">servant.func_80172120</text>
</g>
<!-- SquareRoot12 -->
<g id="node2" class="node">
<title>SquareRoot12</title>
<g id="a_node2"><a xlink:href="SquareRoot12.svg" xlink:title="SquareRoot12">
<ellipse fill="lightblue" stroke="black" cx="77.34" cy="-18" rx="77.19" ry="18"/>
<text text-anchor="middle" x="77.34" y="-14.3" font-family="Times,serif" font-size="14.00">SquareRoot12</text>
</a>
</g>
</g>
<!-- servant.func_80172120&#45;&gt;SquareRoot12 -->
<g id="edge1" class="edge">
<title>servant.func_80172120&#45;&gt;SquareRoot12</title>
<path fill="none" stroke="black" d="M1538.92,-188.76C1297.42,-168.86 677.91,-114.01 164.34,-36 157.33,-34.94 150.03,-33.7 142.77,-32.4"/>
<polygon fill="black" stroke="black" points="143.38,-28.95 132.92,-30.58 142.12,-35.84 143.38,-28.95"/>
<text text-anchor="middle" x="127.92" y="-34.38" font-family="Times,serif" font-size="14.00">3</text>
</g>
<!-- dra.PlaySfx -->
<g id="node3" class="node">
<title>dra.PlaySfx</title>
<g id="a_node3"><a xlink:href="dra.PlaySfx.svg" xlink:title="dra.PlaySfx">
<ellipse fill="green" stroke="black" cx="237.34" cy="-18" rx="64.19" ry="18"/>
<text text-anchor="middle" x="237.34" y="-14.3" font-family="Times,serif" font-size="14.00">dra.PlaySfx</text>
</a>
</g>
</g>
<!-- servant.func_80172120&#45;&gt;dra.PlaySfx -->
<g id="edge2" class="edge">
<title>servant.func_80172120&#45;&gt;dra.PlaySfx</title>
<path fill="none" stroke="black" d="M1540.27,-188.47C1316.43,-168.93 765.98,-116.35 310.34,-36 304.9,-35.04 299.25,-33.93 293.61,-32.75"/>
<polygon fill="black" stroke="black" points="294.04,-29.26 283.53,-30.55 292.56,-36.1 294.04,-29.26"/>
<text text-anchor="middle" x="278.53" y="-34.35" font-family="Times,serif" font-size="14.00">2</text>
</g>
<!-- dra.UpdateAnim -->
<g id="node4" class="node">
<title>dra.UpdateAnim</title>
<g id="a_node4"><a xlink:href="dra.UpdateAnim.svg" xlink:title="dra.UpdateAnim">
<ellipse fill="green" stroke="black" cx="406.34" cy="-18" rx="87.18" ry="18"/>
<text text-anchor="middle" x="406.34" y="-14.3" font-family="Times,serif" font-size="14.00">dra.UpdateAnim</text>
</a>
</g>
</g>
<!-- servant.func_80172120&#45;&gt;dra.UpdateAnim -->
<g id="edge3" class="edge">
<title>servant.func_80172120&#45;&gt;dra.UpdateAnim</title>
<path fill="none" stroke="black" d="M1554.58,-185.67C1363.17,-160.73 893.93,-98.3 502.34,-36 494.82,-34.8 486.98,-33.5 479.16,-32.17"/>
<polygon fill="black" stroke="black" points="479.74,-28.72 469.29,-30.47 478.55,-35.62 479.74,-28.72"/>
<text text-anchor="middle" x="464.29" y="-34.27" font-family="Times,serif" font-size="14.00">1</text>
</g>
<!-- dra.func_8011A3AC -->
<g id="node5" class="node">
<title>dra.func_8011A3AC</title>
<g id="a_node5"><a xlink:href="dra.func_8011A3AC.svg" xlink:title="dra.func_8011A3AC">
<ellipse fill="green" stroke="black" cx="614.34" cy="-18" rx="102.88" ry="18"/>
<text text-anchor="middle" x="614.34" y="-14.3" font-family="Times,serif" font-size="14.00">dra.func_8011A3AC</text>
</a>
</g>
</g>
<!-- servant.func_80172120&#45;&gt;dra.func_8011A3AC -->
<g id="edge4" class="edge">
<title>servant.func_80172120&#45;&gt;dra.func_8011A3AC</title>
<path fill="none" stroke="black" d="M1566.75,-183.91C1378.16,-151.26 888.19,-66.42 694.67,-32.91"/>
<polygon fill="black" stroke="black" points="695.02,-29.42 684.57,-31.16 693.82,-36.31 695.02,-29.42"/>
<text text-anchor="middle" x="679.57" y="-34.96" font-family="Times,serif" font-size="14.00">2</text>
</g>
<!-- rcos -->
<g id="node6" class="node">
<title>rcos</title>
<g id="a_node6"><a xlink:href="rcos.svg" xlink:title="rcos">
<ellipse fill="lightblue" stroke="black" cx="765.34" cy="-18" rx="30.59" ry="18"/>
<text text-anchor="middle" x="765.34" y="-14.3" font-family="Times,serif" font-size="14.00">rcos</text>
</a>
</g>
</g>
<!-- servant.func_80172120&#45;&gt;rcos -->
<g id="edge5" class="edge">
<title>servant.func_80172120&#45;&gt;rcos</title>
<path fill="none" stroke="black" d="M1551.14,-186.2C1395.44,-166.3 1069.5,-118.15 804.34,-36 802.22,-35.34 800.06,-34.61 797.9,-33.82"/>
<polygon fill="black" stroke="black" points="799.12,-30.54 788.53,-30.11 796.54,-37.04 799.12,-30.54"/>
<text text-anchor="middle" x="793.53" y="-33.91" font-family="Times,serif" font-size="14.00">7</text>
</g>
<!-- rsin -->
<g id="node7" class="node">
<title>rsin</title>
<g id="a_node7"><a xlink:href="rsin.svg" xlink:title="rsin">
<ellipse fill="lightblue" stroke="black" cx="842.34" cy="-18" rx="28.7" ry="18"/>
<text text-anchor="middle" x="842.34" y="-14.3" font-family="Times,serif" font-size="14.00">rsin</text>
</a>
</g>
</g>
<!-- servant.func_80172120&#45;&gt;rsin -->
<g id="edge6" class="edge">
<title>servant.func_80172120&#45;&gt;rsin</title>
<path fill="none" stroke="black" d="M1557.95,-185.17C1415.76,-163.93 1120.47,-114.1 880.34,-36 878.08,-35.26 875.77,-34.44 873.47,-33.55"/>
<polygon fill="black" stroke="black" points="874.71,-30.28 864.13,-29.7 872.04,-36.75 874.71,-30.28"/>
<text text-anchor="middle" x="869.13" y="-33.5" font-family="Times,serif" font-size="14.00">7</text>
</g>
<!-- servant.ProcessEvent -->
<g id="node8" class="node">
<title>servant.ProcessEvent</title>
<g id="a_node8"><a xlink:href="servant.ProcessEvent.svg" xlink:title="servant.ProcessEvent">
<ellipse fill="green" stroke="black" cx="1001.34" cy="-18" rx="112.38" ry="18"/>
<text text-anchor="middle" x="1001.34" y="-14.3" font-family="Times,serif" font-size="14.00">servant.ProcessEvent</text>
</a>
</g>
</g>
<!-- servant.func_80172120&#45;&gt;servant.ProcessEvent -->
<g id="edge7" class="edge">
<title>servant.func_80172120&#45;&gt;servant.ProcessEvent</title>
<path fill="none" stroke="black" d="M1587.97,-181.9C1469.94,-149.13 1190.81,-71.61 1064.9,-36.65"/>
<polygon fill="black" stroke="black" points="1065.58,-33.21 1055.01,-33.9 1063.71,-39.95 1065.58,-33.21"/>
<text text-anchor="middle" x="1050.01" y="-37.7" font-family="Times,serif" font-size="14.00">1</text>
</g>
<!-- servant.func_801710E8 -->
<g id="node9" class="node">
<title>servant.func_801710E8</title>
<g id="a_node9"><a xlink:href="servant.func_801710E8.svg" xlink:title="servant.func_801710E8">
<ellipse fill="green" stroke="black" cx="1252.34" cy="-18" rx="120.78" ry="18"/>
<text text-anchor="middle" x="1252.34" y="-14.3" font-family="Times,serif" font-size="14.00">servant.func_801710E8</text>
</a>
</g>
</g>
<!-- servant.func_80172120&#45;&gt;servant.func_801710E8 -->
<g id="edge8" class="edge">
<title>servant.func_80172120&#45;&gt;servant.func_801710E8</title>
<path fill="none" stroke="black" d="M1606.7,-180.73C1535.42,-148.2 1375.43,-75.18 1297.17,-39.46"/>
<polygon fill="black" stroke="black" points="1298.6,-36.26 1288.04,-35.29 1295.69,-42.63 1298.6,-36.26"/>
<text text-anchor="middle" x="1283.04" y="-39.09" font-family="Times,serif" font-size="14.00">4</text>
</g>
<!-- servant.func_8017110C -->
<g id="node10" class="node">
<title>servant.func_8017110C</title>
<g id="a_node10"><a xlink:href="servant.func_8017110C.svg" xlink:title="servant.func_8017110C">
<ellipse fill="green" stroke="black" cx="1512.34" cy="-18" rx="120.78" ry="18"/>
<text text-anchor="middle" x="1512.34" y="-14.3" font-family="Times,serif" font-size="14.00">servant.func_8017110C</text>
</a>
</g>
</g>
<!-- servant.func_80172120&#45;&gt;servant.func_8017110C -->
<g id="edge9" class="edge">
<title>servant.func_80172120&#45;&gt;servant.func_8017110C</title>
<path fill="none" stroke="black" d="M1629.88,-179.93C1606.87,-148.43 1557.65,-81.03 1530.78,-44.24"/>
<polygon fill="black" stroke="black" points="1533.49,-42.03 1524.77,-36.02 1527.84,-46.16 1533.49,-42.03"/>
<text text-anchor="middle" x="1519.77" y="-39.82" font-family="Times,serif" font-size="14.00">1</text>
</g>
<!-- servant.func_801713C8 -->
<g id="node11" class="node">
<title>servant.func_801713C8</title>
<g id="a_node11"><a xlink:href="servant.func_801713C8.svg" xlink:title="servant.func_801713C8">
<ellipse fill="green" stroke="black" cx="1772.34" cy="-18" rx="120.78" ry="18"/>
<text text-anchor="middle" x="1772.34" y="-14.3" font-family="Times,serif" font-size="14.00">servant.func_801713C8</text>
</a>
</g>
</g>
<!-- servant.func_80172120&#45;&gt;servant.func_801713C8 -->
<g id="edge10" class="edge">
<title>servant.func_80172120&#45;&gt;servant.func_801713C8</title>
<path fill="none" stroke="black" d="M1654.81,-179.93C1677.81,-148.43 1727.04,-81.03 1753.91,-44.24"/>
<polygon fill="black" stroke="black" points="1756.84,-46.16 1759.92,-36.02 1751.19,-42.03 1756.84,-46.16"/>
<text text-anchor="middle" x="1754.92" y="-39.82" font-family="Times,serif" font-size="14.00">1</text>
</g>
<!-- servant.func_80171560 -->
<g id="node12" class="node">
<title>servant.func_80171560</title>
<g id="a_node12"><a xlink:href="servant.func_80171560.svg" xlink:title="servant.func_80171560">
<ellipse fill="green" stroke="black" cx="2031.34" cy="-18" rx="120.48" ry="18"/>
<text text-anchor="middle" x="2031.34" y="-14.3" font-family="Times,serif" font-size="14.00">servant.func_80171560</text>
</a>
</g>
</g>
<!-- servant.func_80172120&#45;&gt;servant.func_80171560 -->
<g id="edge11" class="edge">
<title>servant.func_80172120&#45;&gt;servant.func_80171560</title>
<path fill="none" stroke="black" d="M1677.9,-180.73C1749,-148.2 1908.57,-75.18 1986.63,-39.46"/>
<polygon fill="black" stroke="black" points="1988.1,-42.64 1995.73,-35.29 1985.18,-36.27 1988.1,-42.64"/>
<text text-anchor="middle" x="1990.73" y="-39.09" font-family="Times,serif" font-size="14.00">1</text>
</g>
<!-- servant.func_80171568 -->
<g id="node13" class="node">
<title>servant.func_80171568</title>
<g id="a_node13"><a xlink:href="servant.func_80171568.svg" xlink:title="servant.func_80171568">
<ellipse fill="green" stroke="black" cx="2289.34" cy="-18" rx="120.48" ry="18"/>
<text text-anchor="middle" x="2289.34" y="-14.3" font-family="Times,serif" font-size="14.00">servant.func_80171568</text>
</a>
</g>
</g>
<!-- servant.func_80172120&#45;&gt;servant.func_80171568 -->
<g id="edge12" class="edge">
<title>servant.func_80172120&#45;&gt;servant.func_80171568</title>
<path fill="none" stroke="black" d="M1697.23,-181.9C1816.06,-149.21 2096.7,-72 2224.24,-36.91"/>
<polygon fill="black" stroke="black" points="2225.55,-40.18 2234.26,-34.15 2223.69,-33.43 2225.55,-40.18"/>
<text text-anchor="middle" x="2229.26" y="-37.95" font-family="Times,serif" font-size="14.00">1</text>
</g>
<!-- servant.func_8017170C -->
<g id="node14" class="node">
<title>servant.func_8017170C</title>
<g id="a_node14"><a xlink:href="servant.func_8017170C.svg" xlink:title="servant.func_8017170C">
<ellipse fill="green" stroke="black" cx="2548.34" cy="-18" rx="120.78" ry="18"/>
<text text-anchor="middle" x="2548.34" y="-14.3" font-family="Times,serif" font-size="14.00">servant.func_8017170C</text>
</a>
</g>
</g>
<!-- servant.func_80172120&#45;&gt;servant.func_8017170C -->
<g id="edge13" class="edge">
<title>servant.func_80172120&#45;&gt;servant.func_8017170C</title>
<path fill="none" stroke="black" d="M1712.31,-183.25C1878.02,-150.7 2293.65,-69.04 2468.68,-34.65"/>
<polygon fill="black" stroke="black" points="2469.46,-38.07 2478.59,-32.7 2468.11,-31.2 2469.46,-38.07"/>
<text text-anchor="middle" x="2473.59" y="-36.5" font-family="Times,serif" font-size="14.00">4</text>
</g>
<!-- servant.func_801718A0 -->
<g id="node15" class="node">
<title>servant.func_801718A0</title>
<g id="a_node15"><a xlink:href="servant.func_801718A0.svg" xlink:title="servant.func_801718A0">
<ellipse fill="green" stroke="black" cx="2807.34" cy="-18" rx="120.48" ry="18"/>
<text text-anchor="middle" x="2807.34" y="-14.3" font-family="Times,serif" font-size="14.00">servant.func_801718A0</text>
</a>
</g>
</g>
<!-- servant.func_80172120&#45;&gt;servant.func_801718A0 -->
<g id="edge14" class="edge">
<title>servant.func_80172120&#45;&gt;servant.func_801718A0</title>
<path fill="none" stroke="black" d="M1723.34,-184.62C1933.61,-152.5 2495.8,-66.6 2716.56,-32.87"/>
<polygon fill="black" stroke="black" points="2717.14,-36.32 2726.5,-31.35 2716.08,-29.4 2717.14,-36.32"/>
<text text-anchor="middle" x="2721.5" y="-35.15" font-family="Times,serif" font-size="14.00">1</text>
</g>
<!-- servant.func_801719E0 -->
<g id="node16" class="node">
<title>servant.func_801719E0</title>
<g id="a_node16"><a xlink:href="servant.func_801719E0.svg" xlink:title="servant.func_801719E0">
<ellipse fill="green" stroke="black" cx="3066.34" cy="-18" rx="120.78" ry="18"/>
<text text-anchor="middle" x="3066.34" y="-14.3" font-family="Times,serif" font-size="14.00">servant.func_801719E0</text>
</a>
</g>
</g>
<!-- servant.func_80172120&#45;&gt;servant.func_801719E0 -->
<g id="edge15" class="edge">
<title>servant.func_80172120&#45;&gt;servant.func_801719E0</title>
<path fill="none" stroke="black" d="M1732.18,-186.02C1942.66,-160.25 2484.13,-93.7 2936.34,-36 2946.89,-34.65 2957.91,-33.23 2968.89,-31.81"/>
<polygon fill="black" stroke="black" points="2969.48,-35.26 2978.94,-30.51 2968.58,-28.32 2969.48,-35.26"/>
<text text-anchor="middle" x="2973.94" y="-34.31" font-family="Times,serif" font-size="14.00">1</text>
</g>
<!-- servant.func_80173F30 -->
<g id="node17" class="node">
<title>servant.func_80173F30</title>
<g id="a_node17"><a xlink:href="servant.func_80173F30.svg" xlink:title="servant.func_80173F30">
<ellipse fill="green" stroke="black" cx="3325.34" cy="-18" rx="120.48" ry="18"/>
<text text-anchor="middle" x="3325.34" y="-14.3" font-family="Times,serif" font-size="14.00">servant.func_80173F30</text>
</a>
</g>
</g>
<!-- servant.func_80172120&#45;&gt;servant.func_80173F30 -->
<g id="edge16" class="edge">
<title>servant.func_80172120&#45;&gt;servant.func_80173F30</title>
<path fill="none" stroke="black" d="M1741.53,-187.69C1987.91,-164.35 2647.49,-100.58 3196.34,-36 3206.99,-34.75 3218.13,-33.37 3229.2,-31.97"/>
<polygon fill="black" stroke="black" points="3229.87,-35.41 3239.34,-30.67 3228.98,-28.47 3229.87,-35.41"/>
<text text-anchor="middle" x="3234.34" y="-34.47" font-family="Times,serif" font-size="14.00">3</text>
</g>
<!-- servant.func_80173F74 -->
<g id="node18" class="node">
<title>servant.func_80173F74</title>
<g id="a_node18"><a xlink:href="servant.func_80173F74.svg" xlink:title="servant.func_80173F74">
<ellipse fill="green" stroke="black" cx="3583.34" cy="-18" rx="120.48" ry="18"/>
<text text-anchor="middle" x="3583.34" y="-14.3" font-family="Times,serif" font-size="14.00">servant.func_80173F74</text>
</a>
</g>
</g>
<!-- servant.func_80172120&#45;&gt;servant.func_80173F74 -->
<g id="edge17" class="edge">
<title>servant.func_80172120&#45;&gt;servant.func_80173F74</title>
<path fill="none" stroke="black" d="M1747.43,-189.23C2026.06,-168.29 2806.69,-107.42 3454.34,-36 3465.28,-34.79 3476.73,-33.43 3488.1,-32.01"/>
<polygon fill="black" stroke="black" points="3488.57,-35.48 3498.06,-30.76 3487.7,-28.54 3488.57,-35.48"/>
<text text-anchor="middle" x="3493.06" y="-34.56" font-family="Times,serif" font-size="14.00">3</text>
</g>
<!-- servant.func_80174864 -->
<g id="node19" class="node">
<title>servant.func_80174864</title>
<g id="a_node19"><a xlink:href="servant.func_80174864.svg" xlink:title="servant.func_80174864">
<ellipse fill="green" stroke="black" cx="3841.34" cy="-18" rx="120.48" ry="18"/>
<text text-anchor="middle" x="3841.34" y="-14.3" font-family="Times,serif" font-size="14.00">servant.func_80174864</text>
</a>
</g>
</g>
<!-- servant.func_80172120&#45;&gt;servant.func_80174864 -->
<g id="edge18" class="edge">
<title>servant.func_80172120&#45;&gt;servant.func_80174864</title>
<path fill="none" stroke="black" d="M1751.94,-190.55C2060.78,-171.91 2964.42,-114.31 3712.34,-36 3723.46,-34.84 3735.11,-33.49 3746.66,-32.07"/>
<polygon fill="black" stroke="black" points="3747.27,-35.52 3756.76,-30.8 3746.41,-28.57 3747.27,-35.52"/>
<text text-anchor="middle" x="3751.76" y="-34.6" font-family="Times,serif" font-size="14.00">1</text>
</g>
</g>
</svg>
