<?xml version="1.0" encoding="UTF-8" standalone="no"?>
<!DOCTYPE svg PUBLIC "-//W3C//DTD SVG 1.1//EN"
 "http://www.w3.org/Graphics/SVG/1.1/DTD/svg11.dtd">
<!-- Generated by graphviz version 2.43.0 (0)
 -->
<!-- Title: st0.EntityCutscenePhotograph Pages: 1 -->
<svg width="2884pt" height="224pt"
 viewBox="0.00 0.00 2884.49 224.00" xmlns="http://www.w3.org/2000/svg" xmlns:xlink="http://www.w3.org/1999/xlink">
<g id="graph0" class="graph" transform="scale(1 1) rotate(0) translate(4 220)">
<title>st0.EntityCutscenePhotograph</title>
<polygon fill="white" stroke="transparent" points="-4,4 -4,-220 2880.49,-220 2880.49,4 -4,4"/>
<!-- st0.EntityCutscenePhotograph -->
<g id="node1" class="node">
<title>st0.EntityCutscenePhotograph</title>
<ellipse fill="green" stroke="black" cx="1263.84" cy="-198" rx="154.07" ry="18"/>
<text text-anchor="middle" x="1263.84" y="-194.3" font-family="Times,serif" font-size="14.00">st0.EntityCutscenePhotograph</text>
</g>
<!-- RotMatrix -->
<g id="node2" class="node">
<title>RotMatrix</title>
<g id="a_node2"><a xlink:href="RotMatrix.svg" xlink:title="RotMatrix">
<ellipse fill="lightblue" stroke="black" cx="57.84" cy="-18" rx="57.69" ry="18"/>
<text text-anchor="middle" x="57.84" y="-14.3" font-family="Times,serif" font-size="14.00">RotMatrix</text>
</a>
</g>
</g>
<!-- st0.EntityCutscenePhotograph&#45;&gt;RotMatrix -->
<g id="edge1" class="edge">
<title>st0.EntityCutscenePhotograph&#45;&gt;RotMatrix</title>
<path fill="none" stroke="black" d="M1152.7,-185.48C947.99,-163.35 498.05,-110.37 123.84,-36 119.16,-35.07 114.31,-34.01 109.47,-32.88"/>
<polygon fill="black" stroke="black" points="110.12,-29.44 99.58,-30.5 108.48,-36.25 110.12,-29.44"/>
<text text-anchor="middle" x="94.58" y="-34.3" font-family="Times,serif" font-size="14.00">1</text>
</g>
<!-- SetDrawEnv -->
<g id="node3" class="node">
<title>SetDrawEnv</title>
<g id="a_node3"><a xlink:href="SetDrawEnv.svg" xlink:title="SetDrawEnv">
<ellipse fill="lightblue" stroke="black" cx="202.84" cy="-18" rx="69.59" ry="18"/>
<text text-anchor="middle" x="202.84" y="-14.3" font-family="Times,serif" font-size="14.00">SetDrawEnv</text>
</a>
</g>
</g>
<!-- st0.EntityCutscenePhotograph&#45;&gt;SetDrawEnv -->
<g id="edge2" class="edge">
<title>st0.EntityCutscenePhotograph&#45;&gt;SetDrawEnv</title>
<path fill="none" stroke="black" d="M1172.19,-183.52C998.19,-157.59 608.18,-97.82 281.84,-36 276.02,-34.9 269.96,-33.69 263.91,-32.45"/>
<polygon fill="black" stroke="black" points="264.27,-28.95 253.77,-30.34 262.84,-35.81 264.27,-28.95"/>
<text text-anchor="middle" x="248.77" y="-34.14" font-family="Times,serif" font-size="14.00">3</text>
</g>
<!-- SetGeomOffset -->
<g id="node4" class="node">
<title>SetGeomOffset</title>
<g id="a_node4"><a xlink:href="SetGeomOffset.svg" xlink:title="SetGeomOffset">
<ellipse fill="lightblue" stroke="black" cx="371.84" cy="-18" rx="81.49" ry="18"/>
<text text-anchor="middle" x="371.84" y="-14.3" font-family="Times,serif" font-size="14.00">SetGeomOffset</text>
</a>
</g>
</g>
<!-- st0.EntityCutscenePhotograph&#45;&gt;SetGeomOffset -->
<g id="edge3" class="edge">
<title>st0.EntityCutscenePhotograph&#45;&gt;SetGeomOffset</title>
<path fill="none" stroke="black" d="M1189.71,-182.21C1019.77,-148.29 604.16,-65.36 440.08,-32.62"/>
<polygon fill="black" stroke="black" points="440.6,-29.15 430.11,-30.63 439.23,-36.02 440.6,-29.15"/>
<text text-anchor="middle" x="425.11" y="-34.43" font-family="Times,serif" font-size="14.00">1</text>
</g>
<!-- SetGeomScreen -->
<g id="node5" class="node">
<title>SetGeomScreen</title>
<g id="a_node5"><a xlink:href="SetGeomScreen.svg" xlink:title="SetGeomScreen">
<ellipse fill="lightblue" stroke="black" cx="555.84" cy="-18" rx="85.29" ry="18"/>
<text text-anchor="middle" x="555.84" y="-14.3" font-family="Times,serif" font-size="14.00">SetGeomScreen</text>
</a>
</g>
</g>
<!-- st0.EntityCutscenePhotograph&#45;&gt;SetGeomScreen -->
<g id="edge4" class="edge">
<title>st0.EntityCutscenePhotograph&#45;&gt;SetGeomScreen</title>
<path fill="none" stroke="black" d="M1201.94,-181.44C1068,-147.76 752.53,-68.45 618.18,-34.67"/>
<polygon fill="black" stroke="black" points="619,-31.27 608.44,-32.22 617.29,-38.06 619,-31.27"/>
<text text-anchor="middle" x="603.44" y="-36.02" font-family="Times,serif" font-size="14.00">1</text>
</g>
<!-- SetRotMatrix -->
<g id="node6" class="node">
<title>SetRotMatrix</title>
<g id="a_node6"><a xlink:href="SetRotMatrix.svg" xlink:title="SetRotMatrix">
<ellipse fill="lightblue" stroke="black" cx="732.84" cy="-18" rx="73.39" ry="18"/>
<text text-anchor="middle" x="732.84" y="-14.3" font-family="Times,serif" font-size="14.00">SetRotMatrix</text>
</a>
</g>
</g>
<!-- st0.EntityCutscenePhotograph&#45;&gt;SetRotMatrix -->
<g id="edge5" class="edge">
<title>st0.EntityCutscenePhotograph&#45;&gt;SetRotMatrix</title>
<path fill="none" stroke="black" d="M1215.79,-180.89C1115.87,-147.4 886.52,-70.51 783.99,-36.15"/>
<polygon fill="black" stroke="black" points="785.07,-32.82 774.48,-32.96 782.85,-39.45 785.07,-32.82"/>
<text text-anchor="middle" x="769.48" y="-36.76" font-family="Times,serif" font-size="14.00">1</text>
</g>
<!-- SetTransMatrix -->
<g id="node7" class="node">
<title>SetTransMatrix</title>
<g id="a_node7"><a xlink:href="SetTransMatrix.svg" xlink:title="SetTransMatrix">
<ellipse fill="lightblue" stroke="black" cx="907.84" cy="-18" rx="83.69" ry="18"/>
<text text-anchor="middle" x="907.84" y="-14.3" font-family="Times,serif" font-size="14.00">SetTransMatrix</text>
</a>
</g>
</g>
<!-- st0.EntityCutscenePhotograph&#45;&gt;SetTransMatrix -->
<g id="edge6" class="edge">
<title>st0.EntityCutscenePhotograph&#45;&gt;SetTransMatrix</title>
<path fill="none" stroke="black" d="M1230.67,-180.41C1165.17,-147.66 1019.44,-74.8 948.38,-39.27"/>
<polygon fill="black" stroke="black" points="949.78,-36.05 939.27,-34.71 946.65,-42.31 949.78,-36.05"/>
<text text-anchor="middle" x="934.27" y="-38.51" font-family="Times,serif" font-size="14.00">1</text>
</g>
<!-- TransMatrix -->
<g id="node8" class="node">
<title>TransMatrix</title>
<g id="a_node8"><a xlink:href="TransMatrix.svg" xlink:title="TransMatrix">
<ellipse fill="lightblue" stroke="black" cx="1077.84" cy="-18" rx="68.49" ry="18"/>
<text text-anchor="middle" x="1077.84" y="-14.3" font-family="Times,serif" font-size="14.00">TransMatrix</text>
</a>
</g>
</g>
<!-- st0.EntityCutscenePhotograph&#45;&gt;TransMatrix -->
<g id="edge7" class="edge">
<title>st0.EntityCutscenePhotograph&#45;&gt;TransMatrix</title>
<path fill="none" stroke="black" d="M1246.01,-179.93C1212.65,-148.01 1140.74,-79.19 1102.67,-42.76"/>
<polygon fill="black" stroke="black" points="1104.73,-39.88 1095.08,-35.5 1099.89,-44.94 1104.73,-39.88"/>
<text text-anchor="middle" x="1090.08" y="-39.3" font-family="Times,serif" font-size="14.00">1</text>
</g>
<!-- dra.AllocPrimitives -->
<g id="node9" class="node">
<title>dra.AllocPrimitives</title>
<g id="a_node9"><a xlink:href="dra.AllocPrimitives.svg" xlink:title="dra.AllocPrimitives">
<ellipse fill="green" stroke="black" cx="1263.84" cy="-18" rx="99.38" ry="18"/>
<text text-anchor="middle" x="1263.84" y="-14.3" font-family="Times,serif" font-size="14.00">dra.AllocPrimitives</text>
</a>
</g>
</g>
<!-- st0.EntityCutscenePhotograph&#45;&gt;dra.AllocPrimitives -->
<g id="edge8" class="edge">
<title>st0.EntityCutscenePhotograph&#45;&gt;dra.AllocPrimitives</title>
<path fill="none" stroke="black" d="M1263.84,-179.93C1263.84,-148.97 1263.84,-83.3 1263.84,-46.13"/>
<polygon fill="black" stroke="black" points="1267.34,-46.02 1263.84,-36.02 1260.34,-46.02 1267.34,-46.02"/>
<text text-anchor="middle" x="1258.84" y="-39.82" font-family="Times,serif" font-size="14.00">1</text>
</g>
<!-- dra.PlaySfx -->
<g id="node10" class="node">
<title>dra.PlaySfx</title>
<g id="a_node10"><a xlink:href="dra.PlaySfx.svg" xlink:title="dra.PlaySfx">
<ellipse fill="green" stroke="black" cx="1445.84" cy="-18" rx="64.19" ry="18"/>
<text text-anchor="middle" x="1445.84" y="-14.3" font-family="Times,serif" font-size="14.00">dra.PlaySfx</text>
</a>
</g>
</g>
<!-- st0.EntityCutscenePhotograph&#45;&gt;dra.PlaySfx -->
<g id="edge9" class="edge">
<title>st0.EntityCutscenePhotograph&#45;&gt;dra.PlaySfx</title>
<path fill="none" stroke="black" d="M1281.3,-179.93C1313.94,-148.01 1384.3,-79.19 1421.55,-42.76"/>
<polygon fill="black" stroke="black" points="1424.27,-44.99 1428.98,-35.5 1419.38,-39.99 1424.27,-44.99"/>
<text text-anchor="middle" x="1423.98" y="-39.3" font-family="Times,serif" font-size="14.00">2</text>
</g>
<!-- g_api_func_800EDB08 -->
<g id="node11" class="node">
<title>g_api_func_800EDB08</title>
<g id="a_node11"><a xlink:href="g_api_func_800EDB08.svg" xlink:title="g_api_func_800EDB08">
<ellipse fill="lightblue" stroke="black" cx="1642.84" cy="-18" rx="114.28" ry="18"/>
<text text-anchor="middle" x="1642.84" y="-14.3" font-family="Times,serif" font-size="14.00">g_api_func_800EDB08</text>
</a>
</g>
</g>
<!-- st0.EntityCutscenePhotograph&#45;&gt;g_api_func_800EDB08 -->
<g id="edge10" class="edge">
<title>st0.EntityCutscenePhotograph&#45;&gt;g_api_func_800EDB08</title>
<path fill="none" stroke="black" d="M1299.16,-180.41C1368.68,-147.76 1523.11,-75.24 1599.01,-39.59"/>
<polygon fill="black" stroke="black" points="1600.74,-42.64 1608.3,-35.22 1597.77,-36.31 1600.74,-42.64"/>
<text text-anchor="middle" x="1603.3" y="-39.02" font-family="Times,serif" font-size="14.00">4</text>
</g>
<!-- st0.AllocEntity -->
<g id="node12" class="node">
<title>st0.AllocEntity</title>
<g id="a_node12"><a xlink:href="st0.AllocEntity.svg" xlink:title="st0.AllocEntity">
<ellipse fill="green" stroke="black" cx="1854.84" cy="-18" rx="79.09" ry="18"/>
<text text-anchor="middle" x="1854.84" y="-14.3" font-family="Times,serif" font-size="14.00">st0.AllocEntity</text>
</a>
</g>
</g>
<!-- st0.EntityCutscenePhotograph&#45;&gt;st0.AllocEntity -->
<g id="edge11" class="edge">
<title>st0.EntityCutscenePhotograph&#45;&gt;st0.AllocEntity</title>
<path fill="none" stroke="black" d="M1316.81,-181.05C1428.2,-147.5 1685.74,-69.93 1799.32,-35.72"/>
<polygon fill="black" stroke="black" points="1800.64,-38.98 1809.21,-32.75 1798.62,-32.28 1800.64,-38.98"/>
<text text-anchor="middle" x="1804.21" y="-36.55" font-family="Times,serif" font-size="14.00">2</text>
</g>
<!-- st0.CreateEntityFromCurrentEntity -->
<g id="node13" class="node">
<title>st0.CreateEntityFromCurrentEntity</title>
<g id="a_node13"><a xlink:href="st0.CreateEntityFromCurrentEntity.svg" xlink:title="st0.CreateEntityFromCurrentEntity">
<ellipse fill="green" stroke="black" cx="2130.84" cy="-18" rx="178.97" ry="18"/>
<text text-anchor="middle" x="2130.84" y="-14.3" font-family="Times,serif" font-size="14.00">st0.CreateEntityFromCurrentEntity</text>
</a>
</g>
</g>
<!-- st0.EntityCutscenePhotograph&#45;&gt;st0.CreateEntityFromCurrentEntity -->
<g id="edge12" class="edge">
<title>st0.EntityCutscenePhotograph&#45;&gt;st0.CreateEntityFromCurrentEntity</title>
<path fill="none" stroke="black" d="M1336.65,-182.05C1496.21,-149.29 1876.03,-71.32 2046.03,-36.41"/>
<polygon fill="black" stroke="black" points="2046.85,-39.82 2055.94,-34.38 2045.44,-32.96 2046.85,-39.82"/>
<text text-anchor="middle" x="2050.94" y="-38.18" font-family="Times,serif" font-size="14.00">2</text>
</g>
<!-- st0.DestroyEntity -->
<g id="node14" class="node">
<title>st0.DestroyEntity</title>
<g id="a_node14"><a xlink:href="st0.DestroyEntity.svg" xlink:title="st0.DestroyEntity">
<ellipse fill="green" stroke="black" cx="2420.84" cy="-18" rx="93.68" ry="18"/>
<text text-anchor="middle" x="2420.84" y="-14.3" font-family="Times,serif" font-size="14.00">st0.DestroyEntity</text>
</a>
</g>
</g>
<!-- st0.EntityCutscenePhotograph&#45;&gt;st0.DestroyEntity -->
<g id="edge13" class="edge">
<title>st0.EntityCutscenePhotograph&#45;&gt;st0.DestroyEntity</title>
<path fill="none" stroke="black" d="M1355.28,-183.48C1538.33,-156.31 1962.75,-92.84 2318.84,-36 2326.72,-34.74 2334.94,-33.41 2343.14,-32.06"/>
<polygon fill="black" stroke="black" points="2343.81,-35.5 2353.11,-30.42 2342.67,-28.59 2343.81,-35.5"/>
<text text-anchor="middle" x="2348.11" y="-34.22" font-family="Times,serif" font-size="14.00">1</text>
</g>
<!-- st0.InitializeEntity -->
<g id="node15" class="node">
<title>st0.InitializeEntity</title>
<g id="a_node15"><a xlink:href="st0.InitializeEntity.svg" xlink:title="st0.InitializeEntity">
<ellipse fill="green" stroke="black" cx="2629.84" cy="-18" rx="97.48" ry="18"/>
<text text-anchor="middle" x="2629.84" y="-14.3" font-family="Times,serif" font-size="14.00">st0.InitializeEntity</text>
</a>
</g>
</g>
<!-- st0.EntityCutscenePhotograph&#45;&gt;st0.InitializeEntity -->
<g id="edge14" class="edge">
<title>st0.EntityCutscenePhotograph&#45;&gt;st0.InitializeEntity</title>
<path fill="none" stroke="black" d="M1368.54,-184.77C1584.72,-159.26 2096.02,-97.62 2523.84,-36 2532.2,-34.8 2540.91,-33.49 2549.6,-32.15"/>
<polygon fill="black" stroke="black" points="2550.42,-35.56 2559.76,-30.56 2549.34,-28.65 2550.42,-35.56"/>
<text text-anchor="middle" x="2554.76" y="-34.36" font-family="Times,serif" font-size="14.00">1</text>
</g>
<!-- st0.SetStep -->
<g id="node16" class="node">
<title>st0.SetStep</title>
<g id="a_node16"><a xlink:href="st0.SetStep.svg" xlink:title="st0.SetStep">
<ellipse fill="green" stroke="black" cx="2810.84" cy="-18" rx="65.79" ry="18"/>
<text text-anchor="middle" x="2810.84" y="-14.3" font-family="Times,serif" font-size="14.00">st0.SetStep</text>
</a>
</g>
</g>
<!-- st0.EntityCutscenePhotograph&#45;&gt;st0.SetStep -->
<g id="edge15" class="edge">
<title>st0.EntityCutscenePhotograph&#45;&gt;st0.SetStep</title>
<path fill="none" stroke="black" d="M1392.01,-187.92C1648.43,-168.68 2242.38,-118.64 2735.84,-36 2741.58,-35.04 2747.54,-33.91 2753.47,-32.71"/>
<polygon fill="black" stroke="black" points="2754.33,-36.1 2763.4,-30.61 2752.89,-29.25 2754.33,-36.1"/>
<text text-anchor="middle" x="2758.4" y="-34.41" font-family="Times,serif" font-size="14.00">1</text>
</g>
</g>
</svg>
