<?xml version="1.0" encoding="UTF-8" standalone="no"?>
<!DOCTYPE svg PUBLIC "-//W3C//DTD SVG 1.1//EN"
 "http://www.w3.org/Graphics/SVG/1.1/DTD/svg11.dtd">
<!-- Generated by graphviz version 2.43.0 (0)
 -->
<!-- Title: st0.func_801A8BF8 Pages: 1 -->
<svg width="212pt" height="404pt"
 viewBox="0.00 0.00 212.08 404.00" xmlns="http://www.w3.org/2000/svg" xmlns:xlink="http://www.w3.org/1999/xlink">
<g id="graph0" class="graph" transform="scale(1 1) rotate(0) translate(4 400)">
<title>st0.func_801A8BF8</title>
<polygon fill="white" stroke="transparent" points="-4,4 -4,-400 208.08,-400 208.08,4 -4,4"/>
<!-- st0.func_801A8BF8 -->
<g id="node1" class="node">
<title>st0.func_801A8BF8</title>
<ellipse fill="green" stroke="black" cx="102.04" cy="-198" rx="101.28" ry="18"/>
<text text-anchor="middle" x="102.04" y="-194.3" font-family="Times,serif" font-size="14.00">st0.func_801A8BF8</text>
</g>
<!-- st0.func_801A8B9C -->
<g id="node2" class="node">
<title>st0.func_801A8B9C</title>
<g id="a_node2"><a xlink:href="st0.func_801A8B9C.svg" xlink:title="st0.func_801A8B9C">
<ellipse fill="green" stroke="black" cx="102.04" cy="-18" rx="102.08" ry="18"/>
<text text-anchor="middle" x="102.04" y="-14.3" font-family="Times,serif" font-size="14.00">st0.func_801A8B9C</text>
</a>
</g>
</g>
<!-- st0.func_801A8BF8&#45;&gt;st0.func_801A8B9C -->
<g id="edge1" class="edge">
<title>st0.func_801A8BF8&#45;&gt;st0.func_801A8B9C</title>
<path fill="none" stroke="black" d="M102.04,-179.93C102.04,-148.97 102.04,-83.3 102.04,-46.13"/>
<polygon fill="black" stroke="black" points="105.54,-46.02 102.04,-36.02 98.54,-46.02 105.54,-46.02"/>
<text text-anchor="middle" x="97.04" y="-39.82" font-family="Times,serif" font-size="14.00">1</text>
</g>
<!-- st0.EntityDialogue -->
<g id="node3" class="node">
<title>st0.EntityDialogue</title>
<g id="a_node3"><a xlink:href="st0.EntityDialogue.svg" xlink:title="st0.EntityDialogue">
<ellipse fill="red" stroke="black" cx="102.04" cy="-378" rx="98.28" ry="18"/>
<text text-anchor="middle" x="102.04" y="-374.3" font-family="Times,serif" font-size="14.00">st0.EntityDialogue</text>
</a>
</g>
</g>
<!-- st0.EntityDialogue&#45;&gt;st0.func_801A8BF8 -->
<g id="edge2" class="edge">
<title>st0.EntityDialogue&#45;&gt;st0.func_801A8BF8</title>
<path fill="none" stroke="black" d="M102.04,-359.93C102.04,-328.97 102.04,-263.3 102.04,-226.13"/>
<polygon fill="black" stroke="black" points="105.54,-226.02 102.04,-216.02 98.54,-226.02 105.54,-226.02"/>
<text text-anchor="middle" x="97.04" y="-348.73" font-family="Times,serif" font-size="14.00">2</text>
</g>
</g>
</svg>
