<?xml version="1.0" encoding="UTF-8" standalone="no"?>
<!DOCTYPE svg PUBLIC "-//W3C//DTD SVG 1.1//EN"
 "http://www.w3.org/Graphics/SVG/1.1/DTD/svg11.dtd">
<!-- Generated by graphviz version 2.43.0 (0)
 -->
<!-- Title: st0.CutsceneRun Pages: 1 -->
<svg width="280pt" height="404pt"
 viewBox="0.00 0.00 279.68 404.00" xmlns="http://www.w3.org/2000/svg" xmlns:xlink="http://www.w3.org/1999/xlink">
<g id="graph0" class="graph" transform="scale(1 1) rotate(0) translate(4 400)">
<title>st0.CutsceneRun</title>
<polygon fill="white" stroke="transparent" points="-4,4 -4,-400 275.68,-400 275.68,4 -4,4"/>
<!-- st0.CutsceneRun -->
<g id="node1" class="node">
<title>st0.CutsceneRun</title>
<ellipse fill="green" stroke="black" cx="135.84" cy="-198" rx="89.88" ry="18"/>
<text text-anchor="middle" x="135.84" y="-194.3" font-family="Times,serif" font-size="14.00">st0.CutsceneRun</text>
</g>
<!-- st0.DestroyEntity -->
<g id="node2" class="node">
<title>st0.DestroyEntity</title>
<g id="a_node2"><a xlink:href="st0.DestroyEntity.svg" xlink:title="st0.DestroyEntity">
<ellipse fill="green" stroke="black" cx="135.84" cy="-18" rx="93.68" ry="18"/>
<text text-anchor="middle" x="135.84" y="-14.3" font-family="Times,serif" font-size="14.00">st0.DestroyEntity</text>
</a>
</g>
</g>
<!-- st0.CutsceneRun&#45;&gt;st0.DestroyEntity -->
<g id="edge1" class="edge">
<title>st0.CutsceneRun&#45;&gt;st0.DestroyEntity</title>
<path fill="none" stroke="black" d="M135.84,-179.93C135.84,-148.97 135.84,-83.3 135.84,-46.13"/>
<polygon fill="black" stroke="black" points="139.34,-46.02 135.84,-36.02 132.34,-46.02 139.34,-46.02"/>
<text text-anchor="middle" x="130.84" y="-39.82" font-family="Times,serif" font-size="14.00">2</text>
</g>
<!-- st0.EntityDraculaCutscene -->
<g id="node3" class="node">
<title>st0.EntityDraculaCutscene</title>
<g id="a_node3"><a xlink:href="st0.EntityDraculaCutscene.svg" xlink:title="st0.EntityDraculaCutscene">
<ellipse fill="green" stroke="black" cx="135.84" cy="-378" rx="135.68" ry="18"/>
<text text-anchor="middle" x="135.84" y="-374.3" font-family="Times,serif" font-size="14.00">st0.EntityDraculaCutscene</text>
</a>
</g>
</g>
<!-- st0.EntityDraculaCutscene&#45;&gt;st0.CutsceneRun -->
<g id="edge2" class="edge">
<title>st0.EntityDraculaCutscene&#45;&gt;st0.CutsceneRun</title>
<path fill="none" stroke="black" d="M135.84,-359.93C135.84,-328.97 135.84,-263.3 135.84,-226.13"/>
<polygon fill="black" stroke="black" points="139.34,-226.02 135.84,-216.02 132.34,-226.02 139.34,-226.02"/>
<text text-anchor="middle" x="130.84" y="-348.73" font-family="Times,serif" font-size="14.00">1</text>
</g>
</g>
</svg>
