<?xml version="1.0" encoding="UTF-8" standalone="no"?>
<!DOCTYPE svg PUBLIC "-//W3C//DTD SVG 1.1//EN"
 "http://www.w3.org/Graphics/SVG/1.1/DTD/svg11.dtd">
<!-- Generated by graphviz version 2.43.0 (0)
 -->
<!-- Title: st0.UnkPolyFunc2 Pages: 1 -->
<svg width="208pt" height="404pt"
 viewBox="0.00 0.00 208.18 404.00" xmlns="http://www.w3.org/2000/svg" xmlns:xlink="http://www.w3.org/1999/xlink">
<g id="graph0" class="graph" transform="scale(1 1) rotate(0) translate(4 400)">
<title>st0.UnkPolyFunc2</title>
<polygon fill="white" stroke="transparent" points="-4,4 -4,-400 204.18,-400 204.18,4 -4,4"/>
<!-- st0.UnkPolyFunc2 -->
<g id="node1" class="node">
<title>st0.UnkPolyFunc2</title>
<ellipse fill="green" stroke="black" cx="100.09" cy="-198" rx="95.58" ry="18"/>
<text text-anchor="middle" x="100.09" y="-194.3" font-family="Times,serif" font-size="14.00">st0.UnkPolyFunc2</text>
</g>
<!-- st0.PrimResetNext -->
<g id="node2" class="node">
<title>st0.PrimResetNext</title>
<g id="a_node2"><a xlink:href="st0.PrimResetNext.svg" xlink:title="st0.PrimResetNext">
<ellipse fill="green" stroke="black" cx="100.09" cy="-18" rx="99.38" ry="18"/>
<text text-anchor="middle" x="100.09" y="-14.3" font-family="Times,serif" font-size="14.00">st0.PrimResetNext</text>
</a>
</g>
</g>
<!-- st0.UnkPolyFunc2&#45;&gt;st0.PrimResetNext -->
<g id="edge1" class="edge">
<title>st0.UnkPolyFunc2&#45;&gt;st0.PrimResetNext</title>
<path fill="none" stroke="black" d="M100.09,-179.93C100.09,-148.97 100.09,-83.3 100.09,-46.13"/>
<polygon fill="black" stroke="black" points="103.59,-46.02 100.09,-36.02 96.59,-46.02 103.59,-46.02"/>
<text text-anchor="middle" x="95.09" y="-39.82" font-family="Times,serif" font-size="14.00">1</text>
</g>
<!-- st0.func_801A8328 -->
<g id="node3" class="node">
<title>st0.func_801A8328</title>
<g id="a_node3"><a xlink:href="st0.func_801A8328.svg" xlink:title="st0.func_801A8328">
<ellipse fill="green" stroke="black" cx="100.09" cy="-378" rx="100.18" ry="18"/>
<text text-anchor="middle" x="100.09" y="-374.3" font-family="Times,serif" font-size="14.00">st0.func_801A8328</text>
</a>
</g>
</g>
<!-- st0.func_801A8328&#45;&gt;st0.UnkPolyFunc2 -->
<g id="edge2" class="edge">
<title>st0.func_801A8328&#45;&gt;st0.UnkPolyFunc2</title>
<path fill="none" stroke="black" d="M100.09,-359.93C100.09,-328.97 100.09,-263.3 100.09,-226.13"/>
<polygon fill="black" stroke="black" points="103.59,-226.02 100.09,-216.02 96.59,-226.02 103.59,-226.02"/>
<text text-anchor="middle" x="95.09" y="-348.73" font-family="Times,serif" font-size="14.00">1</text>
</g>
</g>
</svg>
