<?xml version="1.0" encoding="UTF-8" standalone="no"?>
<!DOCTYPE svg PUBLIC "-//W3C//DTD SVG 1.1//EN"
 "http://www.w3.org/Graphics/SVG/1.1/DTD/svg11.dtd">
<!-- Generated by graphviz version 2.43.0 (0)
 -->
<!-- Title: st0.ST0_EntityCutscene Pages: 1 -->
<svg width="3154pt" height="224pt"
 viewBox="0.00 0.00 3153.78 224.00" xmlns="http://www.w3.org/2000/svg" xmlns:xlink="http://www.w3.org/1999/xlink">
<g id="graph0" class="graph" transform="scale(1 1) rotate(0) translate(4 220)">
<title>st0.ST0_EntityCutscene</title>
<polygon fill="white" stroke="transparent" points="-4,4 -4,-220 3149.78,-220 3149.78,4 -4,4"/>
<!-- st0.ST0_EntityCutscene -->
<g id="node1" class="node">
<title>st0.ST0_EntityCutscene</title>
<ellipse fill="green" stroke="black" cx="1411.74" cy="-198" rx="122.38" ry="18"/>
<text text-anchor="middle" x="1411.74" y="-194.3" font-family="Times,serif" font-size="14.00">st0.ST0_EntityCutscene</text>
</g>
<!-- LoadTPage -->
<g id="node2" class="node">
<title>LoadTPage</title>
<g id="a_node2"><a xlink:href="LoadTPage.svg" xlink:title="LoadTPage">
<ellipse fill="lightblue" stroke="black" cx="61.74" cy="-18" rx="61.99" ry="18"/>
<text text-anchor="middle" x="61.74" y="-14.3" font-family="Times,serif" font-size="14.00">LoadTPage</text>
</a>
</g>
</g>
<!-- st0.ST0_EntityCutscene&#45;&gt;LoadTPage -->
<g id="edge1" class="edge">
<title>st0.ST0_EntityCutscene&#45;&gt;LoadTPage</title>
<path fill="none" stroke="black" d="M1310.03,-188.03C1092.73,-168.01 567.6,-115.18 132.74,-36 127.44,-35.03 121.95,-33.92 116.47,-32.74"/>
<polygon fill="black" stroke="black" points="117.18,-29.31 106.66,-30.54 115.65,-36.14 117.18,-29.31"/>
<text text-anchor="middle" x="101.66" y="-34.34" font-family="Times,serif" font-size="14.00">1</text>
</g>
<!-- MoveImage -->
<g id="node3" class="node">
<title>MoveImage</title>
<g id="a_node3"><a xlink:href="MoveImage.svg" xlink:title="MoveImage">
<ellipse fill="lightblue" stroke="black" cx="206.74" cy="-18" rx="64.99" ry="18"/>
<text text-anchor="middle" x="206.74" y="-14.3" font-family="Times,serif" font-size="14.00">MoveImage</text>
</a>
</g>
</g>
<!-- st0.ST0_EntityCutscene&#45;&gt;MoveImage -->
<g id="edge2" class="edge">
<title>st0.ST0_EntityCutscene&#45;&gt;MoveImage</title>
<path fill="none" stroke="black" d="M1318.21,-186.4C1124.05,-163.79 663.43,-107.06 280.74,-36 275.32,-34.99 269.69,-33.86 264.06,-32.67"/>
<polygon fill="black" stroke="black" points="264.51,-29.18 253.99,-30.48 263.02,-36.02 264.51,-29.18"/>
<text text-anchor="middle" x="248.99" y="-34.28" font-family="Times,serif" font-size="14.00">1</text>
</g>
<!-- dra.AllocPrimitives -->
<g id="node4" class="node">
<title>dra.AllocPrimitives</title>
<g id="a_node4"><a xlink:href="dra.AllocPrimitives.svg" xlink:title="dra.AllocPrimitives">
<ellipse fill="green" stroke="black" cx="388.74" cy="-18" rx="99.38" ry="18"/>
<text text-anchor="middle" x="388.74" y="-14.3" font-family="Times,serif" font-size="14.00">dra.AllocPrimitives</text>
</a>
</g>
</g>
<!-- st0.ST0_EntityCutscene&#45;&gt;dra.AllocPrimitives -->
<g id="edge3" class="edge">
<title>st0.ST0_EntityCutscene&#45;&gt;dra.AllocPrimitives</title>
<path fill="none" stroke="black" d="M1336.11,-183.84C1147.88,-151.09 659.79,-66.16 467.89,-32.77"/>
<polygon fill="black" stroke="black" points="468.33,-29.3 457.88,-31.03 467.13,-36.19 468.33,-29.3"/>
<text text-anchor="middle" x="452.88" y="-34.83" font-family="Times,serif" font-size="14.00">1</text>
</g>
<!-- dra.FreePrimitives -->
<g id="node5" class="node">
<title>dra.FreePrimitives</title>
<g id="a_node5"><a xlink:href="dra.FreePrimitives.svg" xlink:title="dra.FreePrimitives">
<ellipse fill="green" stroke="black" cx="604.74" cy="-18" rx="98.58" ry="18"/>
<text text-anchor="middle" x="604.74" y="-14.3" font-family="Times,serif" font-size="14.00">dra.FreePrimitives</text>
</a>
</g>
</g>
<!-- st0.ST0_EntityCutscene&#45;&gt;dra.FreePrimitives -->
<g id="edge4" class="edge">
<title>st0.ST0_EntityCutscene&#45;&gt;dra.FreePrimitives</title>
<path fill="none" stroke="black" d="M1346.73,-182.66C1197.07,-149.65 829.26,-68.52 674.82,-34.46"/>
<polygon fill="black" stroke="black" points="675.48,-31.02 664.96,-32.28 673.97,-37.85 675.48,-31.02"/>
<text text-anchor="middle" x="659.96" y="-36.08" font-family="Times,serif" font-size="14.00">3</text>
</g>
<!-- dra.PlaySfx -->
<g id="node6" class="node">
<title>dra.PlaySfx</title>
<g id="a_node6"><a xlink:href="dra.PlaySfx.svg" xlink:title="dra.PlaySfx">
<ellipse fill="green" stroke="black" cx="785.74" cy="-18" rx="64.19" ry="18"/>
<text text-anchor="middle" x="785.74" y="-14.3" font-family="Times,serif" font-size="14.00">dra.PlaySfx</text>
</a>
</g>
</g>
<!-- st0.ST0_EntityCutscene&#45;&gt;dra.PlaySfx -->
<g id="edge5" class="edge">
<title>st0.ST0_EntityCutscene&#45;&gt;dra.PlaySfx</title>
<path fill="none" stroke="black" d="M1358.1,-181.75C1239.7,-148.08 957.16,-67.74 839.06,-34.16"/>
<polygon fill="black" stroke="black" points="839.74,-30.71 829.16,-31.34 837.82,-37.45 839.74,-30.71"/>
<text text-anchor="middle" x="824.16" y="-35.14" font-family="Times,serif" font-size="14.00">2</text>
</g>
<!-- dra.func_80131F68 -->
<g id="node7" class="node">
<title>dra.func_80131F68</title>
<g id="a_node7"><a xlink:href="dra.func_80131F68.svg" xlink:title="dra.func_80131F68">
<ellipse fill="green" stroke="black" cx="968.74" cy="-18" rx="100.98" ry="18"/>
<text text-anchor="middle" x="968.74" y="-14.3" font-family="Times,serif" font-size="14.00">dra.func_80131F68</text>
</a>
</g>
</g>
<!-- st0.ST0_EntityCutscene&#45;&gt;dra.func_80131F68 -->
<g id="edge6" class="edge">
<title>st0.ST0_EntityCutscene&#45;&gt;dra.func_80131F68</title>
<path fill="none" stroke="black" d="M1371.65,-180.89C1290.15,-148.14 1105.42,-73.92 1017.29,-38.51"/>
<polygon fill="black" stroke="black" points="1018.38,-35.17 1007.8,-34.69 1015.77,-41.67 1018.38,-35.17"/>
<text text-anchor="middle" x="1002.8" y="-38.49" font-family="Times,serif" font-size="14.00">2</text>
</g>
<!-- g_api_FreePrimitives -->
<g id="node8" class="node">
<title>g_api_FreePrimitives</title>
<g id="a_node8"><a xlink:href="g_api_FreePrimitives.svg" xlink:title="g_api_FreePrimitives">
<ellipse fill="lightblue" stroke="black" cx="1195.74" cy="-18" rx="108.58" ry="18"/>
<text text-anchor="middle" x="1195.74" y="-14.3" font-family="Times,serif" font-size="14.00">g_api_FreePrimitives</text>
</a>
</g>
</g>
<!-- st0.ST0_EntityCutscene&#45;&gt;g_api_FreePrimitives -->
<g id="edge7" class="edge">
<title>st0.ST0_EntityCutscene&#45;&gt;g_api_FreePrimitives</title>
<path fill="none" stroke="black" d="M1391.03,-179.93C1352.07,-147.82 1267.82,-78.39 1223.81,-42.13"/>
<polygon fill="black" stroke="black" points="1226.02,-39.41 1216.08,-35.76 1221.57,-44.82 1226.02,-39.41"/>
<text text-anchor="middle" x="1211.08" y="-39.56" font-family="Times,serif" font-size="14.00">3</text>
</g>
<!-- st0.CutsceneRun -->
<g id="node9" class="node">
<title>st0.CutsceneRun</title>
<g id="a_node9"><a xlink:href="st0.CutsceneRun.svg" xlink:title="st0.CutsceneRun">
<ellipse fill="green" stroke="black" cx="1411.74" cy="-18" rx="89.88" ry="18"/>
<text text-anchor="middle" x="1411.74" y="-14.3" font-family="Times,serif" font-size="14.00">st0.CutsceneRun</text>
</a>
</g>
</g>
<!-- st0.ST0_EntityCutscene&#45;&gt;st0.CutsceneRun -->
<g id="edge8" class="edge">
<title>st0.ST0_EntityCutscene&#45;&gt;st0.CutsceneRun</title>
<path fill="none" stroke="black" d="M1411.74,-179.93C1411.74,-148.97 1411.74,-83.3 1411.74,-46.13"/>
<polygon fill="black" stroke="black" points="1415.24,-46.02 1411.74,-36.02 1408.24,-46.02 1415.24,-46.02"/>
<text text-anchor="middle" x="1406.74" y="-39.82" font-family="Times,serif" font-size="14.00">1</text>
</g>
<!-- st0.CutsceneUnk1 -->
<g id="node10" class="node">
<title>st0.CutsceneUnk1</title>
<g id="a_node10"><a xlink:href="st0.CutsceneUnk1.svg" xlink:title="st0.CutsceneUnk1">
<ellipse fill="green" stroke="black" cx="1615.74" cy="-18" rx="96.38" ry="18"/>
<text text-anchor="middle" x="1615.74" y="-14.3" font-family="Times,serif" font-size="14.00">st0.CutsceneUnk1</text>
</a>
</g>
</g>
<!-- st0.ST0_EntityCutscene&#45;&gt;st0.CutsceneUnk1 -->
<g id="edge9" class="edge">
<title>st0.ST0_EntityCutscene&#45;&gt;st0.CutsceneUnk1</title>
<path fill="none" stroke="black" d="M1431.3,-179.93C1468.03,-147.89 1547.34,-78.68 1588.98,-42.35"/>
<polygon fill="black" stroke="black" points="1591.31,-44.97 1596.54,-35.76 1586.71,-39.69 1591.31,-44.97"/>
<text text-anchor="middle" x="1591.54" y="-39.56" font-family="Times,serif" font-size="14.00">1</text>
</g>
<!-- st0.CutsceneUnk4 -->
<g id="node11" class="node">
<title>st0.CutsceneUnk4</title>
<g id="a_node11"><a xlink:href="st0.CutsceneUnk4.svg" xlink:title="st0.CutsceneUnk4">
<ellipse fill="green" stroke="black" cx="1825.74" cy="-18" rx="96.38" ry="18"/>
<text text-anchor="middle" x="1825.74" y="-14.3" font-family="Times,serif" font-size="14.00">st0.CutsceneUnk4</text>
</a>
</g>
</g>
<!-- st0.ST0_EntityCutscene&#45;&gt;st0.CutsceneUnk4 -->
<g id="edge10" class="edge">
<title>st0.ST0_EntityCutscene&#45;&gt;st0.CutsceneUnk4</title>
<path fill="none" stroke="black" d="M1449.58,-180.73C1525.71,-148 1697.16,-74.29 1779.67,-38.81"/>
<polygon fill="black" stroke="black" points="1781.23,-41.95 1789.04,-34.78 1778.47,-35.52 1781.23,-41.95"/>
<text text-anchor="middle" x="1784.04" y="-38.58" font-family="Times,serif" font-size="14.00">2</text>
</g>
<!-- st0.DestroyEntity -->
<g id="node12" class="node">
<title>st0.DestroyEntity</title>
<g id="a_node12"><a xlink:href="st0.DestroyEntity.svg" xlink:title="st0.DestroyEntity">
<ellipse fill="green" stroke="black" cx="2033.74" cy="-18" rx="93.68" ry="18"/>
<text text-anchor="middle" x="2033.74" y="-14.3" font-family="Times,serif" font-size="14.00">st0.DestroyEntity</text>
</a>
</g>
</g>
<!-- st0.ST0_EntityCutscene&#45;&gt;st0.DestroyEntity -->
<g id="edge11" class="edge">
<title>st0.ST0_EntityCutscene&#45;&gt;st0.DestroyEntity</title>
<path fill="none" stroke="black" d="M1465.04,-181.75C1580.52,-148.7 1853.12,-70.69 1974.11,-36.07"/>
<polygon fill="black" stroke="black" points="1975.3,-39.37 1983.95,-33.25 1973.37,-32.64 1975.3,-39.37"/>
<text text-anchor="middle" x="1978.95" y="-37.05" font-family="Times,serif" font-size="14.00">1</text>
</g>
<!-- st0.DrawCutsceneAvatar -->
<g id="node13" class="node">
<title>st0.DrawCutsceneAvatar</title>
<g id="a_node13"><a xlink:href="st0.DrawCutsceneAvatar.svg" xlink:title="st0.DrawCutsceneAvatar">
<ellipse fill="green" stroke="black" cx="2271.74" cy="-18" rx="126.98" ry="18"/>
<text text-anchor="middle" x="2271.74" y="-14.3" font-family="Times,serif" font-size="14.00">st0.DrawCutsceneAvatar</text>
</a>
</g>
</g>
<!-- st0.ST0_EntityCutscene&#45;&gt;st0.DrawCutsceneAvatar -->
<g id="edge12" class="edge">
<title>st0.ST0_EntityCutscene&#45;&gt;st0.DrawCutsceneAvatar</title>
<path fill="none" stroke="black" d="M1479.59,-182.96C1636.91,-150.4 2025.9,-69.88 2193.19,-35.26"/>
<polygon fill="black" stroke="black" points="2194.08,-38.65 2203.16,-33.19 2192.66,-31.79 2194.08,-38.65"/>
<text text-anchor="middle" x="2198.16" y="-36.99" font-family="Times,serif" font-size="14.00">1</text>
</g>
<!-- st0.ScaleCutsceneAvatar -->
<g id="node14" class="node">
<title>st0.ScaleCutsceneAvatar</title>
<g id="a_node14"><a xlink:href="st0.ScaleCutsceneAvatar.svg" xlink:title="st0.ScaleCutsceneAvatar">
<ellipse fill="green" stroke="black" cx="2542.74" cy="-18" rx="126.98" ry="18"/>
<text text-anchor="middle" x="2542.74" y="-14.3" font-family="Times,serif" font-size="14.00">st0.ScaleCutsceneAvatar</text>
</a>
</g>
</g>
<!-- st0.ST0_EntityCutscene&#45;&gt;st0.ScaleCutsceneAvatar -->
<g id="edge13" class="edge">
<title>st0.ST0_EntityCutscene&#45;&gt;st0.ScaleCutsceneAvatar</title>
<path fill="none" stroke="black" d="M1492.18,-184.34C1696.6,-152.17 2235.14,-67.41 2451.17,-33.41"/>
<polygon fill="black" stroke="black" points="2451.87,-36.84 2461.21,-31.83 2450.78,-29.93 2451.87,-36.84"/>
<text text-anchor="middle" x="2456.21" y="-35.63" font-family="Times,serif" font-size="14.00">1</text>
</g>
<!-- st0.SetCutsceneEnd -->
<g id="node15" class="node">
<title>st0.SetCutsceneEnd</title>
<g id="a_node15"><a xlink:href="st0.SetCutsceneEnd.svg" xlink:title="st0.SetCutsceneEnd">
<ellipse fill="green" stroke="black" cx="2792.74" cy="-18" rx="105.08" ry="18"/>
<text text-anchor="middle" x="2792.74" y="-14.3" font-family="Times,serif" font-size="14.00">st0.SetCutsceneEnd</text>
</a>
</g>
</g>
<!-- st0.ST0_EntityCutscene&#45;&gt;st0.SetCutsceneEnd -->
<g id="edge14" class="edge">
<title>st0.ST0_EntityCutscene&#45;&gt;st0.SetCutsceneEnd</title>
<path fill="none" stroke="black" d="M1503.26,-186.06C1711.92,-160.97 2238.9,-96.73 2678.74,-36 2687.94,-34.73 2697.55,-33.36 2707.11,-31.97"/>
<polygon fill="black" stroke="black" points="2707.66,-35.43 2717.05,-30.52 2706.64,-28.51 2707.66,-35.43"/>
<text text-anchor="middle" x="2712.05" y="-34.32" font-family="Times,serif" font-size="14.00">1</text>
</g>
<!-- st0.SetCutsceneScript -->
<g id="node16" class="node">
<title>st0.SetCutsceneScript</title>
<g id="a_node16"><a xlink:href="st0.SetCutsceneScript.svg" xlink:title="st0.SetCutsceneScript">
<ellipse fill="green" stroke="black" cx="3030.74" cy="-18" rx="115.08" ry="18"/>
<text text-anchor="middle" x="3030.74" y="-14.3" font-family="Times,serif" font-size="14.00">st0.SetCutsceneScript</text>
</a>
</g>
</g>
<!-- st0.ST0_EntityCutscene&#45;&gt;st0.SetCutsceneScript -->
<g id="edge15" class="edge">
<title>st0.ST0_EntityCutscene&#45;&gt;st0.SetCutsceneScript</title>
<path fill="none" stroke="black" d="M1510.7,-187.34C1750.45,-163.73 2381.39,-100.29 2906.74,-36 2916.96,-34.75 2927.64,-33.38 2938.26,-31.98"/>
<polygon fill="black" stroke="black" points="2938.96,-35.42 2948.41,-30.63 2938.04,-28.48 2938.96,-35.42"/>
<text text-anchor="middle" x="2943.41" y="-34.43" font-family="Times,serif" font-size="14.00">1</text>
</g>
</g>
</svg>
