<?xml version="1.0" encoding="UTF-8" standalone="no"?>
<!DOCTYPE svg PUBLIC "-//W3C//DTD SVG 1.1//EN"
 "http://www.w3.org/Graphics/SVG/1.1/DTD/svg11.dtd">
<!-- Generated by graphviz version 2.43.0 (0)
 -->
<!-- Title: st0.EntitySecretButton Pages: 1 -->
<svg width="1467pt" height="224pt"
 viewBox="0.00 0.00 1466.68 224.00" xmlns="http://www.w3.org/2000/svg" xmlns:xlink="http://www.w3.org/1999/xlink">
<g id="graph0" class="graph" transform="scale(1 1) rotate(0) translate(4 220)">
<title>st0.EntitySecretButton</title>
<polygon fill="white" stroke="transparent" points="-4,4 -4,-220 1462.68,-220 1462.68,4 -4,4"/>
<!-- st0.EntitySecretButton -->
<g id="node1" class="node">
<title>st0.EntitySecretButton</title>
<ellipse fill="green" stroke="black" cx="718.34" cy="-198" rx="118.88" ry="18"/>
<text text-anchor="middle" x="718.34" y="-194.3" font-family="Times,serif" font-size="14.00">st0.EntitySecretButton</text>
</g>
<!-- dra.PlaySfx -->
<g id="node2" class="node">
<title>dra.PlaySfx</title>
<g id="a_node2"><a xlink:href="dra.PlaySfx.svg" xlink:title="dra.PlaySfx">
<ellipse fill="green" stroke="black" cx="64.34" cy="-18" rx="64.19" ry="18"/>
<text text-anchor="middle" x="64.34" y="-14.3" font-family="Times,serif" font-size="14.00">dra.PlaySfx</text>
</a>
</g>
</g>
<!-- st0.EntitySecretButton&#45;&gt;dra.PlaySfx -->
<g id="edge1" class="edge">
<title>st0.EntitySecretButton&#45;&gt;dra.PlaySfx</title>
<path fill="none" stroke="black" d="M663.15,-181.98C539.59,-148.35 241.97,-67.34 118.96,-33.86"/>
<polygon fill="black" stroke="black" points="119.57,-30.4 109.01,-31.16 117.74,-37.16 119.57,-30.4"/>
<text text-anchor="middle" x="104.01" y="-34.96" font-family="Times,serif" font-size="14.00">3</text>
</g>
<!-- st0.AllocEntity -->
<g id="node3" class="node">
<title>st0.AllocEntity</title>
<g id="a_node3"><a xlink:href="st0.AllocEntity.svg" xlink:title="st0.AllocEntity">
<ellipse fill="green" stroke="black" cx="226.34" cy="-18" rx="79.09" ry="18"/>
<text text-anchor="middle" x="226.34" y="-14.3" font-family="Times,serif" font-size="14.00">st0.AllocEntity</text>
</a>
</g>
</g>
<!-- st0.EntitySecretButton&#45;&gt;st0.AllocEntity -->
<g id="edge2" class="edge">
<title>st0.EntitySecretButton&#45;&gt;st0.AllocEntity</title>
<path fill="none" stroke="black" d="M674.68,-181.2C583.39,-148.18 372.83,-72 276.32,-37.08"/>
<polygon fill="black" stroke="black" points="277.38,-33.74 266.78,-33.63 275,-40.32 277.38,-33.74"/>
<text text-anchor="middle" x="261.78" y="-37.43" font-family="Times,serif" font-size="14.00">2</text>
</g>
<!-- st0.CreateEntityFromEntity -->
<g id="node4" class="node">
<title>st0.CreateEntityFromEntity</title>
<g id="a_node4"><a xlink:href="st0.CreateEntityFromEntity.svg" xlink:title="st0.CreateEntityFromEntity">
<ellipse fill="green" stroke="black" cx="465.34" cy="-18" rx="141.88" ry="18"/>
<text text-anchor="middle" x="465.34" y="-14.3" font-family="Times,serif" font-size="14.00">st0.CreateEntityFromEntity</text>
</a>
</g>
</g>
<!-- st0.EntitySecretButton&#45;&gt;st0.CreateEntityFromEntity -->
<g id="edge3" class="edge">
<title>st0.EntitySecretButton&#45;&gt;st0.CreateEntityFromEntity</title>
<path fill="none" stroke="black" d="M694.54,-180.25C648.96,-148.18 549.3,-78.07 497.72,-41.78"/>
<polygon fill="black" stroke="black" points="499.46,-38.72 489.27,-35.83 495.43,-44.45 499.46,-38.72"/>
<text text-anchor="middle" x="484.27" y="-39.63" font-family="Times,serif" font-size="14.00">2</text>
</g>
<!-- st0.DestroyEntity -->
<g id="node5" class="node">
<title>st0.DestroyEntity</title>
<g id="a_node5"><a xlink:href="st0.DestroyEntity.svg" xlink:title="st0.DestroyEntity">
<ellipse fill="green" stroke="black" cx="718.34" cy="-18" rx="93.68" ry="18"/>
<text text-anchor="middle" x="718.34" y="-14.3" font-family="Times,serif" font-size="14.00">st0.DestroyEntity</text>
</a>
</g>
</g>
<!-- st0.EntitySecretButton&#45;&gt;st0.DestroyEntity -->
<g id="edge4" class="edge">
<title>st0.EntitySecretButton&#45;&gt;st0.DestroyEntity</title>
<path fill="none" stroke="black" d="M718.34,-179.93C718.34,-148.97 718.34,-83.3 718.34,-46.13"/>
<polygon fill="black" stroke="black" points="721.84,-46.02 718.34,-36.02 714.84,-46.02 721.84,-46.02"/>
<text text-anchor="middle" x="713.34" y="-39.82" font-family="Times,serif" font-size="14.00">1</text>
</g>
<!-- st0.InitializeEntity -->
<g id="node6" class="node">
<title>st0.InitializeEntity</title>
<g id="a_node6"><a xlink:href="st0.InitializeEntity.svg" xlink:title="st0.InitializeEntity">
<ellipse fill="green" stroke="black" cx="927.34" cy="-18" rx="97.48" ry="18"/>
<text text-anchor="middle" x="927.34" y="-14.3" font-family="Times,serif" font-size="14.00">st0.InitializeEntity</text>
</a>
</g>
</g>
<!-- st0.EntitySecretButton&#45;&gt;st0.InitializeEntity -->
<g id="edge5" class="edge">
<title>st0.EntitySecretButton&#45;&gt;st0.InitializeEntity</title>
<path fill="none" stroke="black" d="M738.38,-179.93C776.01,-147.89 857.27,-78.68 899.93,-42.35"/>
<polygon fill="black" stroke="black" points="902.33,-44.9 907.67,-35.76 897.79,-39.58 902.33,-44.9"/>
<text text-anchor="middle" x="902.67" y="-39.56" font-family="Times,serif" font-size="14.00">1</text>
</g>
<!-- st0.MoveEntity -->
<g id="node7" class="node">
<title>st0.MoveEntity</title>
<g id="a_node7"><a xlink:href="st0.MoveEntity.svg" xlink:title="st0.MoveEntity">
<ellipse fill="green" stroke="black" cx="1125.34" cy="-18" rx="82.59" ry="18"/>
<text text-anchor="middle" x="1125.34" y="-14.3" font-family="Times,serif" font-size="14.00">st0.MoveEntity</text>
</a>
</g>
</g>
<!-- st0.EntitySecretButton&#45;&gt;st0.MoveEntity -->
<g id="edge6" class="edge">
<title>st0.EntitySecretButton&#45;&gt;st0.MoveEntity</title>
<path fill="none" stroke="black" d="M755.54,-180.73C830.59,-147.91 999.86,-73.88 1080.71,-38.52"/>
<polygon fill="black" stroke="black" points="1082.36,-41.62 1090.12,-34.4 1079.56,-35.2 1082.36,-41.62"/>
<text text-anchor="middle" x="1085.12" y="-38.2" font-family="Times,serif" font-size="14.00">1</text>
</g>
<!-- st0.UnkCollisionFunc3 -->
<g id="node8" class="node">
<title>st0.UnkCollisionFunc3</title>
<g id="a_node8"><a xlink:href="st0.UnkCollisionFunc3.svg" xlink:title="st0.UnkCollisionFunc3">
<ellipse fill="green" stroke="black" cx="1342.34" cy="-18" rx="116.18" ry="18"/>
<text text-anchor="middle" x="1342.34" y="-14.3" font-family="Times,serif" font-size="14.00">st0.UnkCollisionFunc3</text>
</a>
</g>
</g>
<!-- st0.EntitySecretButton&#45;&gt;st0.UnkCollisionFunc3 -->
<g id="edge7" class="edge">
<title>st0.EntitySecretButton&#45;&gt;st0.UnkCollisionFunc3</title>
<path fill="none" stroke="black" d="M771.55,-181.82C886.33,-149.08 1156.75,-71.94 1279.62,-36.89"/>
<polygon fill="black" stroke="black" points="1280.62,-40.25 1289.28,-34.14 1278.7,-33.52 1280.62,-40.25"/>
<text text-anchor="middle" x="1284.28" y="-37.94" font-family="Times,serif" font-size="14.00">1</text>
</g>
</g>
</svg>
