<?xml version="1.0" encoding="UTF-8" standalone="no"?>
<!DOCTYPE svg PUBLIC "-//W3C//DTD SVG 1.1//EN"
 "http://www.w3.org/Graphics/SVG/1.1/DTD/svg11.dtd">
<!-- Generated by graphviz version 2.43.0 (0)
 -->
<!-- Title: st0.InitializeEntity Pages: 1 -->
<svg width="10978pt" height="224pt"
 viewBox="0.00 0.00 10977.68 224.00" xmlns="http://www.w3.org/2000/svg" xmlns:xlink="http://www.w3.org/1999/xlink">
<g id="graph0" class="graph" transform="scale(1 1) rotate(0) translate(4 220)">
<title>st0.InitializeEntity</title>
<polygon fill="white" stroke="transparent" points="-4,4 -4,-220 10973.68,-220 10973.68,4 -4,4"/>
<!-- st0.InitializeEntity -->
<g id="node1" class="node">
<title>st0.InitializeEntity</title>
<ellipse fill="green" stroke="black" cx="5842.99" cy="-18" rx="97.48" ry="18"/>
<text text-anchor="middle" x="5842.99" y="-14.3" font-family="Times,serif" font-size="14.00">st0.InitializeEntity</text>
</g>
<!-- st0.EntityBackgroundVortex -->
<g id="node2" class="node">
<title>st0.EntityBackgroundVortex</title>
<g id="a_node2"><a xlink:href="st0.EntityBackgroundVortex.svg" xlink:title="st0.EntityBackgroundVortex">
<ellipse fill="red" stroke="black" cx="142.99" cy="-198" rx="142.97" ry="18"/>
<text text-anchor="middle" x="142.99" y="-194.3" font-family="Times,serif" font-size="14.00">st0.EntityBackgroundVortex</text>
</a>
</g>
</g>
<!-- st0.EntityBackgroundVortex&#45;&gt;st0.InitializeEntity -->
<g id="edge1" class="edge">
<title>st0.EntityBackgroundVortex&#45;&gt;st0.InitializeEntity</title>
<path fill="none" stroke="black" d="M241,-184.84C258.93,-182.95 277.51,-181.23 294.99,-180 2483.96,-26.09 5168.7,-18.6 5735.02,-18.83"/>
<polygon fill="black" stroke="black" points="5735.21,-22.33 5745.21,-18.83 5735.21,-15.33 5735.21,-22.33"/>
<text text-anchor="middle" x="236" y="-173.64" font-family="Times,serif" font-size="14.00">1</text>
</g>
<!-- st0.EntityBigRedFireball -->
<g id="node3" class="node">
<title>st0.EntityBigRedFireball</title>
<g id="a_node3"><a xlink:href="st0.EntityBigRedFireball.svg" xlink:title="st0.EntityBigRedFireball">
<ellipse fill="green" stroke="black" cx="430.99" cy="-198" rx="126.98" ry="18"/>
<text text-anchor="middle" x="430.99" y="-194.3" font-family="Times,serif" font-size="14.00">st0.EntityBigRedFireball</text>
</a>
</g>
</g>
<!-- st0.EntityBigRedFireball&#45;&gt;st0.InitializeEntity -->
<g id="edge2" class="edge">
<title>st0.EntityBigRedFireball&#45;&gt;st0.InitializeEntity</title>
<path fill="none" stroke="black" d="M517.93,-184.9C534.2,-182.99 551.09,-181.23 566.99,-180 2640.86,-19.1 5184.96,-16.95 5734.96,-18.54"/>
<polygon fill="black" stroke="black" points="5735.25,-22.04 5745.26,-18.57 5735.27,-15.04 5735.25,-22.04"/>
<text text-anchor="middle" x="512.93" y="-173.7" font-family="Times,serif" font-size="14.00">1</text>
</g>
<!-- st0.EntityClockTower3D -->
<g id="node4" class="node">
<title>st0.EntityClockTower3D</title>
<g id="a_node4"><a xlink:href="st0.EntityClockTower3D.svg" xlink:title="st0.EntityClockTower3D">
<ellipse fill="red" stroke="black" cx="699.99" cy="-198" rx="124.28" ry="18"/>
<text text-anchor="middle" x="699.99" y="-194.3" font-family="Times,serif" font-size="14.00">st0.EntityClockTower3D</text>
</a>
</g>
</g>
<!-- st0.EntityClockTower3D&#45;&gt;st0.InitializeEntity -->
<g id="edge3" class="edge">
<title>st0.EntityClockTower3D&#45;&gt;st0.InitializeEntity</title>
<path fill="none" stroke="black" d="M785.36,-184.87C801.17,-182.97 817.56,-181.23 832.99,-180 2795.12,-23.43 5201.04,-17.85 5734.8,-18.67"/>
<polygon fill="black" stroke="black" points="5735.17,-22.17 5745.18,-18.69 5735.19,-15.17 5735.17,-22.17"/>
<text text-anchor="middle" x="780.36" y="-173.67" font-family="Times,serif" font-size="14.00">1</text>
</g>
<!-- st0.EntityClouds -->
<g id="node5" class="node">
<title>st0.EntityClouds</title>
<g id="a_node5"><a xlink:href="st0.EntityClouds.svg" xlink:title="st0.EntityClouds">
<ellipse fill="red" stroke="black" cx="930.99" cy="-198" rx="89.08" ry="18"/>
<text text-anchor="middle" x="930.99" y="-194.3" font-family="Times,serif" font-size="14.00">st0.EntityClouds</text>
</a>
</g>
</g>
<!-- st0.EntityClouds&#45;&gt;st0.InitializeEntity -->
<g id="edge4" class="edge">
<title>st0.EntityClouds&#45;&gt;st0.InitializeEntity</title>
<path fill="none" stroke="black" d="M992.76,-184.95C1004.73,-182.99 1017.22,-181.21 1028.99,-180 1986.69,-81.4 5116.24,-29.92 5735.83,-20.56"/>
<polygon fill="black" stroke="black" points="5736.14,-24.06 5746.09,-20.41 5736.04,-17.06 5736.14,-24.06"/>
<text text-anchor="middle" x="987.76" y="-173.75" font-family="Times,serif" font-size="14.00">1</text>
</g>
<!-- st0.EntityCutscene -->
<g id="node6" class="node">
<title>st0.EntityCutscene</title>
<g id="a_node6"><a xlink:href="st0.EntityCutscene.svg" xlink:title="st0.EntityCutscene">
<ellipse fill="green" stroke="black" cx="1137.99" cy="-198" rx="100.18" ry="18"/>
<text text-anchor="middle" x="1137.99" y="-194.3" font-family="Times,serif" font-size="14.00">st0.EntityCutscene</text>
</a>
</g>
</g>
<!-- st0.EntityCutscene&#45;&gt;st0.InitializeEntity -->
<g id="edge5" class="edge">
<title>st0.EntityCutscene&#45;&gt;st0.InitializeEntity</title>
<path fill="none" stroke="black" d="M1207.02,-184.96C1220.25,-183.01 1234.02,-181.23 1246.99,-180 2159.62,-93.16 5133.34,-32.56 5735.91,-21.01"/>
<polygon fill="black" stroke="black" points="5736.39,-24.5 5746.32,-20.81 5736.25,-17.5 5736.39,-24.5"/>
<text text-anchor="middle" x="1202.02" y="-173.76" font-family="Times,serif" font-size="14.00">1</text>
</g>
<!-- st0.EntityCutscenePhotograph -->
<g id="node7" class="node">
<title>st0.EntityCutscenePhotograph</title>
<g id="a_node7"><a xlink:href="st0.EntityCutscenePhotograph.svg" xlink:title="st0.EntityCutscenePhotograph">
<ellipse fill="red" stroke="black" cx="1409.99" cy="-198" rx="154.07" ry="18"/>
<text text-anchor="middle" x="1409.99" y="-194.3" font-family="Times,serif" font-size="14.00">st0.EntityCutscenePhotograph</text>
</a>
</g>
</g>
<!-- st0.EntityCutscenePhotograph&#45;&gt;st0.InitializeEntity -->
<g id="edge6" class="edge">
<title>st0.EntityCutscenePhotograph&#45;&gt;st0.InitializeEntity</title>
<path fill="none" stroke="black" d="M1515.99,-184.92C1534.95,-183.05 1554.54,-181.31 1572.99,-180 3229.39,-62.53 5253.73,-27.39 5736.19,-20.42"/>
<polygon fill="black" stroke="black" points="5736.32,-23.92 5746.27,-20.28 5736.22,-16.92 5736.32,-23.92"/>
<text text-anchor="middle" x="1510.99" y="-173.72" font-family="Times,serif" font-size="14.00">1</text>
</g>
<!-- st0.EntityCutscenePhotographFire -->
<g id="node8" class="node">
<title>st0.EntityCutscenePhotographFire</title>
<g id="a_node8"><a xlink:href="st0.EntityCutscenePhotographFire.svg" xlink:title="st0.EntityCutscenePhotographFire">
<ellipse fill="green" stroke="black" cx="1754.99" cy="-198" rx="172.77" ry="18"/>
<text text-anchor="middle" x="1754.99" y="-194.3" font-family="Times,serif" font-size="14.00">st0.EntityCutscenePhotographFire</text>
</a>
</g>
</g>
<!-- st0.EntityCutscenePhotographFire&#45;&gt;st0.InitializeEntity -->
<g id="edge7" class="edge">
<title>st0.EntityCutscenePhotographFire&#45;&gt;st0.InitializeEntity</title>
<path fill="none" stroke="black" d="M1874.35,-184.96C1895.22,-183.11 1916.72,-181.36 1936.99,-180 3442.79,-78.71 5279.73,-31.91 5736.42,-21.36"/>
<polygon fill="black" stroke="black" points="5736.71,-24.86 5746.62,-21.13 5736.54,-17.86 5736.71,-24.86"/>
<text text-anchor="middle" x="1869.35" y="-173.76" font-family="Times,serif" font-size="14.00">1</text>
</g>
<!-- st0.EntityDamageDisplay -->
<g id="node9" class="node">
<title>st0.EntityDamageDisplay</title>
<g id="a_node9"><a xlink:href="st0.EntityDamageDisplay.svg" xlink:title="st0.EntityDamageDisplay">
<ellipse fill="green" stroke="black" cx="2075.99" cy="-198" rx="129.98" ry="18"/>
<text text-anchor="middle" x="2075.99" y="-194.3" font-family="Times,serif" font-size="14.00">st0.EntityDamageDisplay</text>
</a>
</g>
</g>
<!-- st0.EntityDamageDisplay&#45;&gt;st0.InitializeEntity -->
<g id="edge8" class="edge">
<title>st0.EntityDamageDisplay&#45;&gt;st0.InitializeEntity</title>
<path fill="none" stroke="black" d="M2165.98,-184.96C2182.27,-183.08 2199.12,-181.32 2214.99,-180 3604,-64.41 5299.56,-28.4 5736.38,-20.72"/>
<polygon fill="black" stroke="black" points="5736.52,-24.22 5746.46,-20.54 5736.4,-17.22 5736.52,-24.22"/>
<text text-anchor="middle" x="2160.98" y="-173.76" font-family="Times,serif" font-size="14.00">1</text>
</g>
<!-- st0.EntityDracula -->
<g id="node10" class="node">
<title>st0.EntityDracula</title>
<g id="a_node10"><a xlink:href="st0.EntityDracula.svg" xlink:title="st0.EntityDracula">
<ellipse fill="green" stroke="black" cx="2316.99" cy="-198" rx="92.88" ry="18"/>
<text text-anchor="middle" x="2316.99" y="-194.3" font-family="Times,serif" font-size="14.00">st0.EntityDracula</text>
</a>
</g>
</g>
<!-- st0.EntityDracula&#45;&gt;st0.InitializeEntity -->
<g id="edge9" class="edge">
<title>st0.EntityDracula&#45;&gt;st0.InitializeEntity</title>
<path fill="none" stroke="black" d="M2381.58,-185.05C2393.96,-183.1 2406.85,-181.29 2418.99,-180 3720.27,-41.46 5312.42,-22.13 5735.56,-19.44"/>
<polygon fill="black" stroke="black" points="5735.66,-22.94 5745.64,-19.37 5735.62,-15.94 5735.66,-22.94"/>
<text text-anchor="middle" x="2376.58" y="-173.85" font-family="Times,serif" font-size="14.00">1</text>
</g>
<!-- st0.EntityDraculaBody -->
<g id="node11" class="node">
<title>st0.EntityDraculaBody</title>
<g id="a_node11"><a xlink:href="st0.EntityDraculaBody.svg" xlink:title="st0.EntityDraculaBody">
<ellipse fill="green" stroke="black" cx="2543.99" cy="-198" rx="116.18" ry="18"/>
<text text-anchor="middle" x="2543.99" y="-194.3" font-family="Times,serif" font-size="14.00">st0.EntityDraculaBody</text>
</a>
</g>
</g>
<!-- st0.EntityDraculaBody&#45;&gt;st0.InitializeEntity -->
<g id="edge10" class="edge">
<title>st0.EntityDraculaBody&#45;&gt;st0.InitializeEntity</title>
<path fill="none" stroke="black" d="M2624.9,-184.98C2639.55,-183.09 2654.7,-181.33 2668.99,-180 3870,-68.07 5334.43,-29.9 5736.53,-21.14"/>
<polygon fill="black" stroke="black" points="5736.77,-24.63 5746.69,-20.92 5736.62,-17.63 5736.77,-24.63"/>
<text text-anchor="middle" x="2619.9" y="-173.78" font-family="Times,serif" font-size="14.00">1</text>
</g>
<!-- st0.EntityDraculaFinalForm -->
<g id="node12" class="node">
<title>st0.EntityDraculaFinalForm</title>
<g id="a_node12"><a xlink:href="st0.EntityDraculaFinalForm.svg" xlink:title="st0.EntityDraculaFinalForm">
<ellipse fill="green" stroke="black" cx="2818.99" cy="-198" rx="141.07" ry="18"/>
<text text-anchor="middle" x="2818.99" y="-194.3" font-family="Times,serif" font-size="14.00">st0.EntityDraculaFinalForm</text>
</a>
</g>
</g>
<!-- st0.EntityDraculaFinalForm&#45;&gt;st0.InitializeEntity -->
<g id="edge11" class="edge">
<title>st0.EntityDraculaFinalForm&#45;&gt;st0.InitializeEntity</title>
<path fill="none" stroke="black" d="M2917.35,-185.04C2934.54,-183.18 2952.27,-181.41 2968.99,-180 4049.36,-88.59 5362.77,-36.48 5738.23,-22.71"/>
<polygon fill="black" stroke="black" points="5738.4,-26.21 5748.27,-22.35 5738.14,-19.21 5738.4,-26.21"/>
<text text-anchor="middle" x="2912.35" y="-173.84" font-family="Times,serif" font-size="14.00">1</text>
</g>
<!-- st0.EntityDraculaFireball -->
<g id="node13" class="node">
<title>st0.EntityDraculaFireball</title>
<g id="a_node13"><a xlink:href="st0.EntityDraculaFireball.svg" xlink:title="st0.EntityDraculaFireball">
<ellipse fill="green" stroke="black" cx="3106.99" cy="-198" rx="129.18" ry="18"/>
<text text-anchor="middle" x="3106.99" y="-194.3" font-family="Times,serif" font-size="14.00">st0.EntityDraculaFireball</text>
</a>
</g>
</g>
<!-- st0.EntityDraculaFireball&#45;&gt;st0.InitializeEntity -->
<g id="edge12" class="edge">
<title>st0.EntityDraculaFireball&#45;&gt;st0.InitializeEntity</title>
<path fill="none" stroke="black" d="M3197.75,-185.11C3213.8,-183.23 3230.37,-181.44 3245.99,-180 4212.87,-90.98 5386.91,-37.95 5738.63,-23.23"/>
<polygon fill="black" stroke="black" points="5738.95,-26.72 5748.79,-22.8 5738.65,-19.72 5738.95,-26.72"/>
<text text-anchor="middle" x="3192.75" y="-173.91" font-family="Times,serif" font-size="14.00">1</text>
</g>
<!-- st0.EntityDraculaGlass -->
<g id="node14" class="node">
<title>st0.EntityDraculaGlass</title>
<g id="a_node14"><a xlink:href="st0.EntityDraculaGlass.svg" xlink:title="st0.EntityDraculaGlass">
<ellipse fill="green" stroke="black" cx="3372.99" cy="-198" rx="118.08" ry="18"/>
<text text-anchor="middle" x="3372.99" y="-194.3" font-family="Times,serif" font-size="14.00">st0.EntityDraculaGlass</text>
</a>
</g>
</g>
<!-- st0.EntityDraculaGlass&#45;&gt;st0.InitializeEntity -->
<g id="edge13" class="edge">
<title>st0.EntityDraculaGlass&#45;&gt;st0.InitializeEntity</title>
<path fill="none" stroke="black" d="M3456.21,-185.17C3471.1,-183.27 3486.49,-181.46 3500.99,-180 4363.96,-93.12 5410.63,-39.43 5739.2,-23.78"/>
<polygon fill="black" stroke="black" points="5739.83,-27.26 5749.65,-23.29 5739.5,-20.26 5739.83,-27.26"/>
<text text-anchor="middle" x="3451.21" y="-173.97" font-family="Times,serif" font-size="14.00">1</text>
</g>
<!-- st0.EntityDraculaMegaFireball -->
<g id="node15" class="node">
<title>st0.EntityDraculaMegaFireball</title>
<g id="a_node15"><a xlink:href="st0.EntityDraculaMegaFireball.svg" xlink:title="st0.EntityDraculaMegaFireball">
<ellipse fill="green" stroke="black" cx="3664.99" cy="-198" rx="155.17" ry="18"/>
<text text-anchor="middle" x="3664.99" y="-194.3" font-family="Times,serif" font-size="14.00">st0.EntityDraculaMegaFireball</text>
</a>
</g>
</g>
<!-- st0.EntityDraculaMegaFireball&#45;&gt;st0.InitializeEntity -->
<g id="edge14" class="edge">
<title>st0.EntityDraculaMegaFireball&#45;&gt;st0.InitializeEntity</title>
<path fill="none" stroke="black" d="M3774.78,-185.26C3792.88,-183.43 3811.46,-181.61 3828.99,-180 4563.41,-112.59 5450.01,-47.31 5743.4,-26.13"/>
<polygon fill="black" stroke="black" points="5743.87,-29.6 5753.59,-25.39 5743.36,-22.62 5743.87,-29.6"/>
<text text-anchor="middle" x="3769.78" y="-174.06" font-family="Times,serif" font-size="14.00">1</text>
</g>
<!-- st0.EntityDraculaMeteorball -->
<g id="node16" class="node">
<title>st0.EntityDraculaMeteorball</title>
<g id="a_node16"><a xlink:href="st0.EntityDraculaMeteorball.svg" xlink:title="st0.EntityDraculaMeteorball">
<ellipse fill="green" stroke="black" cx="3981.99" cy="-198" rx="143.77" ry="18"/>
<text text-anchor="middle" x="3981.99" y="-194.3" font-family="Times,serif" font-size="14.00">st0.EntityDraculaMeteorball</text>
</a>
</g>
</g>
<!-- st0.EntityDraculaMeteorball&#45;&gt;st0.InitializeEntity -->
<g id="edge15" class="edge">
<title>st0.EntityDraculaMeteorball&#45;&gt;st0.InitializeEntity</title>
<path fill="none" stroke="black" d="M4084.16,-185.32C4100.81,-183.49 4117.87,-181.66 4133.99,-180 4747.95,-116.75 5487.05,-50.47 5746.97,-27.45"/>
<polygon fill="black" stroke="black" points="5747.48,-30.92 5757.13,-26.55 5746.86,-23.95 5747.48,-30.92"/>
<text text-anchor="middle" x="4079.16" y="-174.12" font-family="Times,serif" font-size="14.00">1</text>
</g>
<!-- st0.EntityDraculaRainAttack -->
<g id="node17" class="node">
<title>st0.EntityDraculaRainAttack</title>
<g id="a_node17"><a xlink:href="st0.EntityDraculaRainAttack.svg" xlink:title="st0.EntityDraculaRainAttack">
<ellipse fill="green" stroke="black" cx="4286.99" cy="-198" rx="143.77" ry="18"/>
<text text-anchor="middle" x="4286.99" y="-194.3" font-family="Times,serif" font-size="14.00">st0.EntityDraculaRainAttack</text>
</a>
</g>
</g>
<!-- st0.EntityDraculaRainAttack&#45;&gt;st0.InitializeEntity -->
<g id="edge16" class="edge">
<title>st0.EntityDraculaRainAttack&#45;&gt;st0.InitializeEntity</title>
<path fill="none" stroke="black" d="M4389.08,-185.32C4674.95,-152.62 5480.18,-60.5 5752.03,-29.41"/>
<polygon fill="black" stroke="black" points="5752.71,-32.85 5762.25,-28.24 5751.92,-25.9 5752.71,-32.85"/>
<text text-anchor="middle" x="4384.08" y="-174.12" font-family="Times,serif" font-size="14.00">1</text>
</g>
<!-- st0.EntityEnemyBlood -->
<g id="node18" class="node">
<title>st0.EntityEnemyBlood</title>
<g id="a_node18"><a xlink:href="st0.EntityEnemyBlood.svg" xlink:title="st0.EntityEnemyBlood">
<ellipse fill="green" stroke="black" cx="4563.99" cy="-198" rx="115.88" ry="18"/>
<text text-anchor="middle" x="4563.99" y="-194.3" font-family="Times,serif" font-size="14.00">st0.EntityEnemyBlood</text>
</a>
</g>
</g>
<!-- st0.EntityEnemyBlood&#45;&gt;st0.InitializeEntity -->
<g id="edge17" class="edge">
<title>st0.EntityEnemyBlood&#45;&gt;st0.InitializeEntity</title>
<path fill="none" stroke="black" d="M4647.41,-185.39C4878.32,-153.25 5524.17,-63.37 5757.51,-30.9"/>
<polygon fill="black" stroke="black" points="5758.22,-34.33 5767.64,-29.49 5757.26,-27.4 5758.22,-34.33"/>
<text text-anchor="middle" x="4642.41" y="-174.19" font-family="Times,serif" font-size="14.00">1</text>
</g>
<!-- st0.EntityEquipItemDrop -->
<g id="node19" class="node">
<title>st0.EntityEquipItemDrop</title>
<g id="a_node19"><a xlink:href="st0.EntityEquipItemDrop.svg" xlink:title="st0.EntityEquipItemDrop">
<ellipse fill="green" stroke="black" cx="4825.99" cy="-198" rx="128.88" ry="18"/>
<text text-anchor="middle" x="4825.99" y="-194.3" font-family="Times,serif" font-size="14.00">st0.EntityEquipItemDrop</text>
</a>
</g>
</g>
<!-- st0.EntityEquipItemDrop&#45;&gt;st0.InitializeEntity -->
<g id="edge18" class="edge">
<title>st0.EntityEquipItemDrop&#45;&gt;st0.InitializeEntity</title>
<path fill="none" stroke="black" d="M4902.84,-183.55C5091.39,-150.55 5575.26,-65.86 5764.99,-32.65"/>
<polygon fill="black" stroke="black" points="5765.64,-36.09 5774.89,-30.92 5764.44,-29.2 5765.64,-36.09"/>
<text text-anchor="middle" x="4897.84" y="-172.35" font-family="Times,serif" font-size="14.00">1</text>
</g>
<!-- st0.EntityExplosion -->
<g id="node20" class="node">
<title>st0.EntityExplosion</title>
<g id="a_node20"><a xlink:href="st0.EntityExplosion.svg" xlink:title="st0.EntityExplosion">
<ellipse fill="green" stroke="black" cx="5074.99" cy="-198" rx="102.88" ry="18"/>
<text text-anchor="middle" x="5074.99" y="-194.3" font-family="Times,serif" font-size="14.00">st0.EntityExplosion</text>
</a>
</g>
</g>
<!-- st0.EntityExplosion&#45;&gt;st0.InitializeEntity -->
<g id="edge19" class="edge">
<title>st0.EntityExplosion&#45;&gt;st0.InitializeEntity</title>
<path fill="none" stroke="black" d="M5134.29,-183.25C5274.62,-150.73 5626.36,-69.21 5774.99,-34.76"/>
<polygon fill="black" stroke="black" points="5775.96,-38.13 5784.91,-32.46 5774.38,-31.31 5775.96,-38.13"/>
<text text-anchor="middle" x="5129.29" y="-172.05" font-family="Times,serif" font-size="14.00">1</text>
</g>
<!-- st0.EntityIntenseExplosion -->
<g id="node21" class="node">
<title>st0.EntityIntenseExplosion</title>
<g id="a_node21"><a xlink:href="st0.EntityIntenseExplosion.svg" xlink:title="st0.EntityIntenseExplosion">
<ellipse fill="green" stroke="black" cx="5332.99" cy="-198" rx="137.28" ry="18"/>
<text text-anchor="middle" x="5332.99" y="-194.3" font-family="Times,serif" font-size="14.00">st0.EntityIntenseExplosion</text>
</a>
</g>
</g>
<!-- st0.EntityIntenseExplosion&#45;&gt;st0.InitializeEntity -->
<g id="edge20" class="edge">
<title>st0.EntityIntenseExplosion&#45;&gt;st0.InitializeEntity</title>
<path fill="none" stroke="black" d="M5379.15,-180.89C5473.83,-147.84 5689.52,-72.56 5789.85,-37.55"/>
<polygon fill="black" stroke="black" points="5791.19,-40.79 5799.48,-34.19 5788.88,-34.18 5791.19,-40.79"/>
<text text-anchor="middle" x="5374.15" y="-169.69" font-family="Times,serif" font-size="14.00">1</text>
</g>
<!-- st0.EntityLockCamera -->
<g id="node22" class="node">
<title>st0.EntityLockCamera</title>
<g id="a_node22"><a xlink:href="st0.EntityLockCamera.svg" xlink:title="st0.EntityLockCamera">
<ellipse fill="green" stroke="black" cx="5602.99" cy="-198" rx="114.28" ry="18"/>
<text text-anchor="middle" x="5602.99" y="-194.3" font-family="Times,serif" font-size="14.00">st0.EntityLockCamera</text>
</a>
</g>
</g>
<!-- st0.EntityLockCamera&#45;&gt;st0.InitializeEntity -->
<g id="edge21" class="edge">
<title>st0.EntityLockCamera&#45;&gt;st0.InitializeEntity</title>
<path fill="none" stroke="black" d="M5625.57,-180.25C5668.83,-148.17 5763.44,-78 5812.35,-41.72"/>
<polygon fill="black" stroke="black" points="5814.7,-44.34 5820.64,-35.57 5810.53,-38.72 5814.7,-44.34"/>
<text text-anchor="middle" x="5620.57" y="-169.05" font-family="Times,serif" font-size="14.00">1</text>
</g>
<!-- st0.EntityOlroxDrool -->
<g id="node23" class="node">
<title>st0.EntityOlroxDrool</title>
<g id="a_node23"><a xlink:href="st0.EntityOlroxDrool.svg" xlink:title="st0.EntityOlroxDrool">
<ellipse fill="green" stroke="black" cx="5842.99" cy="-198" rx="107.78" ry="18"/>
<text text-anchor="middle" x="5842.99" y="-194.3" font-family="Times,serif" font-size="14.00">st0.EntityOlroxDrool</text>
</a>
</g>
</g>
<!-- st0.EntityOlroxDrool&#45;&gt;st0.InitializeEntity -->
<g id="edge22" class="edge">
<title>st0.EntityOlroxDrool&#45;&gt;st0.InitializeEntity</title>
<path fill="none" stroke="black" d="M5842.99,-179.93C5842.99,-148.97 5842.99,-83.3 5842.99,-46.13"/>
<polygon fill="black" stroke="black" points="5846.49,-46.02 5842.99,-36.02 5839.49,-46.02 5846.49,-46.02"/>
<text text-anchor="middle" x="5837.99" y="-168.73" font-family="Times,serif" font-size="14.00">1</text>
</g>
<!-- st0.EntityPrizeDrop -->
<g id="node24" class="node">
<title>st0.EntityPrizeDrop</title>
<g id="a_node24"><a xlink:href="st0.EntityPrizeDrop.svg" xlink:title="st0.EntityPrizeDrop">
<ellipse fill="green" stroke="black" cx="6072.99" cy="-198" rx="103.98" ry="18"/>
<text text-anchor="middle" x="6072.99" y="-194.3" font-family="Times,serif" font-size="14.00">st0.EntityPrizeDrop</text>
</a>
</g>
</g>
<!-- st0.EntityPrizeDrop&#45;&gt;st0.InitializeEntity -->
<g id="edge23" class="edge">
<title>st0.EntityPrizeDrop&#45;&gt;st0.InitializeEntity</title>
<path fill="none" stroke="black" d="M6051.35,-180.25C6009.89,-148.17 5919.22,-78 5872.35,-41.72"/>
<polygon fill="black" stroke="black" points="5874.45,-38.92 5864.4,-35.57 5870.17,-44.46 5874.45,-38.92"/>
<text text-anchor="middle" x="6046.35" y="-169.05" font-family="Times,serif" font-size="14.00">1</text>
</g>
<!-- st0.EntityRedDoor -->
<g id="node25" class="node">
<title>st0.EntityRedDoor</title>
<g id="a_node25"><a xlink:href="st0.EntityRedDoor.svg" xlink:title="st0.EntityRedDoor">
<ellipse fill="green" stroke="black" cx="6291.99" cy="-198" rx="97.48" ry="18"/>
<text text-anchor="middle" x="6291.99" y="-194.3" font-family="Times,serif" font-size="14.00">st0.EntityRedDoor</text>
</a>
</g>
</g>
<!-- st0.EntityRedDoor&#45;&gt;st0.InitializeEntity -->
<g id="edge24" class="edge">
<title>st0.EntityRedDoor&#45;&gt;st0.InitializeEntity</title>
<path fill="none" stroke="black" d="M6252.54,-181.36C6170.36,-148.78 5981.07,-73.74 5891.57,-38.26"/>
<polygon fill="black" stroke="black" points="5892.78,-34.97 5882.19,-34.54 5890.2,-41.48 5892.78,-34.97"/>
<text text-anchor="middle" x="6247.54" y="-170.16" font-family="Times,serif" font-size="14.00">1</text>
</g>
<!-- st0.EntityRoomForeground -->
<g id="node26" class="node">
<title>st0.EntityRoomForeground</title>
<g id="a_node26"><a xlink:href="st0.EntityRoomForeground.svg" xlink:title="st0.EntityRoomForeground">
<ellipse fill="green" stroke="black" cx="6544.99" cy="-198" rx="137.58" ry="18"/>
<text text-anchor="middle" x="6544.99" y="-194.3" font-family="Times,serif" font-size="14.00">st0.EntityRoomForeground</text>
</a>
</g>
</g>
<!-- st0.EntityRoomForeground&#45;&gt;st0.InitializeEntity -->
<g id="edge25" class="edge">
<title>st0.EntityRoomForeground&#45;&gt;st0.InitializeEntity</title>
<path fill="none" stroke="black" d="M6484.83,-181.75C6353.79,-148.52 6043.46,-69.83 5908.06,-35.5"/>
<polygon fill="black" stroke="black" points="5908.78,-32.07 5898.23,-33.01 5907.06,-38.86 5908.78,-32.07"/>
<text text-anchor="middle" x="6479.83" y="-170.55" font-family="Times,serif" font-size="14.00">1</text>
</g>
<!-- st0.EntitySecretButton -->
<g id="node27" class="node">
<title>st0.EntitySecretButton</title>
<g id="a_node27"><a xlink:href="st0.EntitySecretButton.svg" xlink:title="st0.EntitySecretButton">
<ellipse fill="green" stroke="black" cx="6819.99" cy="-198" rx="118.88" ry="18"/>
<text text-anchor="middle" x="6819.99" y="-194.3" font-family="Times,serif" font-size="14.00">st0.EntitySecretButton</text>
</a>
</g>
</g>
<!-- st0.EntitySecretButton&#45;&gt;st0.InitializeEntity -->
<g id="edge26" class="edge">
<title>st0.EntitySecretButton&#45;&gt;st0.InitializeEntity</title>
<path fill="none" stroke="black" d="M6746.95,-183.69C6566.97,-150.9 6103.44,-66.45 5919.68,-32.97"/>
<polygon fill="black" stroke="black" points="5920.29,-29.53 5909.83,-31.18 5919.04,-36.41 5920.29,-29.53"/>
<text text-anchor="middle" x="6741.95" y="-172.49" font-family="Times,serif" font-size="14.00">1</text>
</g>
<!-- st0.EntitySecretStairs -->
<g id="node28" class="node">
<title>st0.EntitySecretStairs</title>
<g id="a_node28"><a xlink:href="st0.EntitySecretStairs.svg" xlink:title="st0.EntitySecretStairs">
<ellipse fill="green" stroke="black" cx="7071.99" cy="-198" rx="115.08" ry="18"/>
<text text-anchor="middle" x="7071.99" y="-194.3" font-family="Times,serif" font-size="14.00">st0.EntitySecretStairs</text>
</a>
</g>
</g>
<!-- st0.EntitySecretStairs&#45;&gt;st0.InitializeEntity -->
<g id="edge27" class="edge">
<title>st0.EntitySecretStairs&#45;&gt;st0.InitializeEntity</title>
<path fill="none" stroke="black" d="M6990.4,-185.18C6767.98,-152.97 6152.64,-63.85 5927.18,-31.19"/>
<polygon fill="black" stroke="black" points="5927.46,-27.7 5917.07,-29.73 5926.46,-34.63 5927.46,-27.7"/>
<text text-anchor="middle" x="6985.4" y="-173.98" font-family="Times,serif" font-size="14.00">1</text>
</g>
<!-- st0.EntitySecretStairsCeiling -->
<g id="node29" class="node">
<title>st0.EntitySecretStairsCeiling</title>
<g id="a_node29"><a xlink:href="st0.EntitySecretStairsCeiling.svg" xlink:title="st0.EntitySecretStairsCeiling">
<ellipse fill="green" stroke="black" cx="7352.99" cy="-198" rx="147.57" ry="18"/>
<text text-anchor="middle" x="7352.99" y="-194.3" font-family="Times,serif" font-size="14.00">st0.EntitySecretStairsCeiling</text>
</a>
</g>
</g>
<!-- st0.EntitySecretStairsCeiling&#45;&gt;st0.InitializeEntity -->
<g id="edge28" class="edge">
<title>st0.EntitySecretStairsCeiling&#45;&gt;st0.InitializeEntity</title>
<path fill="none" stroke="black" d="M7250.98,-184.97C6971.51,-152.03 6196.83,-60.71 5932.62,-29.57"/>
<polygon fill="black" stroke="black" points="5933.02,-26.09 5922.68,-28.39 5932.2,-33.04 5933.02,-26.09"/>
<text text-anchor="middle" x="7245.98" y="-173.77" font-family="Times,serif" font-size="14.00">1</text>
</g>
<!-- st0.EntitySoulStealOrb -->
<g id="node30" class="node">
<title>st0.EntitySoulStealOrb</title>
<g id="a_node30"><a xlink:href="st0.EntitySoulStealOrb.svg" xlink:title="st0.EntitySoulStealOrb">
<ellipse fill="green" stroke="black" cx="7636.99" cy="-198" rx="118.88" ry="18"/>
<text text-anchor="middle" x="7636.99" y="-194.3" font-family="Times,serif" font-size="14.00">st0.EntitySoulStealOrb</text>
</a>
</g>
</g>
<!-- st0.EntitySoulStealOrb&#45;&gt;st0.InitializeEntity -->
<g id="edge29" class="edge">
<title>st0.EntitySoulStealOrb&#45;&gt;st0.InitializeEntity</title>
<path fill="none" stroke="black" d="M7552.67,-185.27C7538.44,-183.42 7523.8,-181.59 7509.99,-180 6914.26,-111.38 6196.43,-48.83 5939.91,-27.11"/>
<polygon fill="black" stroke="black" points="5940.14,-23.61 5929.88,-26.26 5939.55,-30.59 5940.14,-23.61"/>
<text text-anchor="middle" x="7547.67" y="-174.07" font-family="Times,serif" font-size="14.00">1</text>
</g>
<!-- st0.EntityStageTitleCard -->
<g id="node31" class="node">
<title>st0.EntityStageTitleCard</title>
<g id="a_node31"><a xlink:href="st0.EntityStageTitleCard.svg" xlink:title="st0.EntityStageTitleCard">
<ellipse fill="green" stroke="black" cx="7900.99" cy="-198" rx="127.28" ry="18"/>
<text text-anchor="middle" x="7900.99" y="-194.3" font-family="Times,serif" font-size="14.00">st0.EntityStageTitleCard</text>
</a>
</g>
</g>
<!-- st0.EntityStageTitleCard&#45;&gt;st0.InitializeEntity -->
<g id="edge30" class="edge">
<title>st0.EntityStageTitleCard&#45;&gt;st0.InitializeEntity</title>
<path fill="none" stroke="black" d="M7811.07,-185.23C7795.7,-183.38 7779.9,-181.56 7764.99,-180 7068.79,-107.36 6228.02,-46 5943,-25.93"/>
<polygon fill="black" stroke="black" points="5942.91,-22.42 5932.69,-25.21 5942.42,-29.4 5942.91,-22.42"/>
<text text-anchor="middle" x="7806.07" y="-174.03" font-family="Times,serif" font-size="14.00">1</text>
</g>
<!-- st0.EntityStageTitleFadeout -->
<g id="node32" class="node">
<title>st0.EntityStageTitleFadeout</title>
<g id="a_node32"><a xlink:href="st0.EntityStageTitleFadeout.svg" xlink:title="st0.EntityStageTitleFadeout">
<ellipse fill="green" stroke="black" cx="8188.99" cy="-198" rx="142.17" ry="18"/>
<text text-anchor="middle" x="8188.99" y="-194.3" font-family="Times,serif" font-size="14.00">st0.EntityStageTitleFadeout</text>
</a>
</g>
</g>
<!-- st0.EntityStageTitleFadeout&#45;&gt;st0.InitializeEntity -->
<g id="edge31" class="edge">
<title>st0.EntityStageTitleFadeout&#45;&gt;st0.InitializeEntity</title>
<path fill="none" stroke="black" d="M8088.48,-185.21C8071.31,-183.35 8053.64,-181.54 8036.99,-180 7231.58,-105.44 6257.22,-44.06 5944.66,-25.08"/>
<polygon fill="black" stroke="black" points="5944.46,-21.56 5934.27,-24.45 5944.04,-28.55 5944.46,-21.56"/>
<text text-anchor="middle" x="8083.48" y="-174.01" font-family="Times,serif" font-size="14.00">1</text>
</g>
<!-- st0.EntityUnkId13 -->
<g id="node33" class="node">
<title>st0.EntityUnkId13</title>
<g id="a_node33"><a xlink:href="st0.EntityUnkId13.svg" xlink:title="st0.EntityUnkId13">
<ellipse fill="green" stroke="black" cx="8445.99" cy="-198" rx="96.68" ry="18"/>
<text text-anchor="middle" x="8445.99" y="-194.3" font-family="Times,serif" font-size="14.00">st0.EntityUnkId13</text>
</a>
</g>
</g>
<!-- st0.EntityUnkId13&#45;&gt;st0.InitializeEntity -->
<g id="edge32" class="edge">
<title>st0.EntityUnkId13&#45;&gt;st0.InitializeEntity</title>
<path fill="none" stroke="black" d="M8377.98,-185.12C8365.37,-183.19 8352.3,-181.38 8339.99,-180 7416.58,-76.42 6293.02,-33.53 5948.45,-22.23"/>
<polygon fill="black" stroke="black" points="5948.35,-18.72 5938.24,-21.89 5948.12,-25.72 5948.35,-18.72"/>
<text text-anchor="middle" x="8372.98" y="-173.92" font-family="Times,serif" font-size="14.00">1</text>
</g>
<!-- st0.func_801A7D64 -->
<g id="node34" class="node">
<title>st0.func_801A7D64</title>
<g id="a_node34"><a xlink:href="st0.func_801A7D64.svg" xlink:title="st0.func_801A7D64">
<ellipse fill="green" stroke="black" cx="8661.99" cy="-198" rx="101.28" ry="18"/>
<text text-anchor="middle" x="8661.99" y="-194.3" font-family="Times,serif" font-size="14.00">st0.func_801A7D64</text>
</a>
</g>
</g>
<!-- st0.func_801A7D64&#45;&gt;st0.InitializeEntity -->
<g id="edge33" class="edge">
<title>st0.func_801A7D64&#45;&gt;st0.InitializeEntity</title>
<path fill="none" stroke="black" d="M8591.11,-185.04C8578.12,-183.14 8564.67,-181.35 8551.99,-180 7542.45,-72.23 6313,-31.82 5949.18,-21.72"/>
<polygon fill="black" stroke="black" points="5949.02,-18.22 5938.93,-21.44 5948.83,-25.21 5949.02,-18.22"/>
<text text-anchor="middle" x="8586.11" y="-173.84" font-family="Times,serif" font-size="14.00">1</text>
</g>
<!-- st0.func_801A805C -->
<g id="node35" class="node">
<title>st0.func_801A805C</title>
<g id="a_node35"><a xlink:href="st0.func_801A805C.svg" xlink:title="st0.func_801A805C">
<ellipse fill="green" stroke="black" cx="8881.99" cy="-198" rx="100.98" ry="18"/>
<text text-anchor="middle" x="8881.99" y="-194.3" font-family="Times,serif" font-size="14.00">st0.func_801A805C</text>
</a>
</g>
</g>
<!-- st0.func_801A805C&#45;&gt;st0.InitializeEntity -->
<g id="edge34" class="edge">
<title>st0.func_801A805C&#45;&gt;st0.InitializeEntity</title>
<path fill="none" stroke="black" d="M8811.7,-185.08C8798.54,-183.15 8784.86,-181.35 8771.99,-180 7672.74,-65.13 6332.28,-29.31 5949.57,-21.07"/>
<polygon fill="black" stroke="black" points="5949.41,-17.57 5939.34,-20.85 5949.26,-24.57 5949.41,-17.57"/>
<text text-anchor="middle" x="8806.7" y="-173.88" font-family="Times,serif" font-size="14.00">1</text>
</g>
<!-- st0.func_801A8328 -->
<g id="node36" class="node">
<title>st0.func_801A8328</title>
<g id="a_node36"><a xlink:href="st0.func_801A8328.svg" xlink:title="st0.func_801A8328">
<ellipse fill="green" stroke="black" cx="9100.99" cy="-198" rx="100.18" ry="18"/>
<text text-anchor="middle" x="9100.99" y="-194.3" font-family="Times,serif" font-size="14.00">st0.func_801A8328</text>
</a>
</g>
</g>
<!-- st0.func_801A8328&#45;&gt;st0.InitializeEntity -->
<g id="edge35" class="edge">
<title>st0.func_801A8328&#45;&gt;st0.InitializeEntity</title>
<path fill="none" stroke="black" d="M9031.35,-185.04C9018.3,-183.11 9004.75,-181.32 8991.99,-180 7802.93,-57.21 6351.16,-26.76 5950.04,-20.45"/>
<polygon fill="black" stroke="black" points="5949.96,-16.95 5939.9,-20.3 5949.85,-23.95 5949.96,-16.95"/>
<text text-anchor="middle" x="9026.35" y="-173.84" font-family="Times,serif" font-size="14.00">2</text>
</g>
<!-- st0.func_801A8620 -->
<g id="node37" class="node">
<title>st0.func_801A8620</title>
<g id="a_node37"><a xlink:href="st0.func_801A8620.svg" xlink:title="st0.func_801A8620">
<ellipse fill="green" stroke="black" cx="9318.99" cy="-198" rx="100.18" ry="18"/>
<text text-anchor="middle" x="9318.99" y="-194.3" font-family="Times,serif" font-size="14.00">st0.func_801A8620</text>
</a>
</g>
</g>
<!-- st0.func_801A8620&#45;&gt;st0.InitializeEntity -->
<g id="edge36" class="edge">
<title>st0.func_801A8620&#45;&gt;st0.InitializeEntity</title>
<path fill="none" stroke="black" d="M9249.35,-185C9236.3,-183.08 9222.75,-181.3 9209.99,-180 7931.44,-50.1 6368.83,-24.59 5950.3,-19.96"/>
<polygon fill="black" stroke="black" points="5950.07,-16.46 5940.03,-19.85 5949.99,-23.46 5950.07,-16.46"/>
<text text-anchor="middle" x="9244.35" y="-173.8" font-family="Times,serif" font-size="14.00">1</text>
</g>
<!-- st0.func_801AD838 -->
<g id="node38" class="node">
<title>st0.func_801AD838</title>
<g id="a_node38"><a xlink:href="st0.func_801AD838.svg" xlink:title="st0.func_801AD838">
<ellipse fill="green" stroke="black" cx="9537.99" cy="-198" rx="101.28" ry="18"/>
<text text-anchor="middle" x="9537.99" y="-194.3" font-family="Times,serif" font-size="14.00">st0.func_801AD838</text>
</a>
</g>
</g>
<!-- st0.func_801AD838&#45;&gt;st0.InitializeEntity -->
<g id="edge37" class="edge">
<title>st0.func_801AD838&#45;&gt;st0.InitializeEntity</title>
<path fill="none" stroke="black" d="M9467.71,-184.98C9454.55,-183.06 9440.87,-181.28 9427.99,-180 8059.34,-43.91 6385.22,-22.81 5950.27,-19.58"/>
<polygon fill="black" stroke="black" points="5950.25,-16.08 5940.23,-19.5 5950.2,-23.08 5950.25,-16.08"/>
<text text-anchor="middle" x="9462.71" y="-173.78" font-family="Times,serif" font-size="14.00">1</text>
</g>
<!-- st0.func_801AF774 -->
<g id="node39" class="node">
<title>st0.func_801AF774</title>
<g id="a_node39"><a xlink:href="st0.func_801AF774.svg" xlink:title="st0.func_801AF774">
<ellipse fill="green" stroke="black" cx="9757.99" cy="-198" rx="100.98" ry="18"/>
<text text-anchor="middle" x="9757.99" y="-194.3" font-family="Times,serif" font-size="14.00">st0.func_801AF774</text>
</a>
</g>
</g>
<!-- st0.func_801AF774&#45;&gt;st0.InitializeEntity -->
<g id="edge38" class="edge">
<title>st0.func_801AF774&#45;&gt;st0.InitializeEntity</title>
<path fill="none" stroke="black" d="M9688.01,-184.99C9674.75,-183.06 9660.97,-181.27 9647.99,-180 8188.44,-36.78 6401.63,-20.88 5950.37,-19.18"/>
<polygon fill="black" stroke="black" points="5950.3,-15.68 5940.28,-19.15 5950.27,-22.68 5950.3,-15.68"/>
<text text-anchor="middle" x="9683.01" y="-173.79" font-family="Times,serif" font-size="14.00">1</text>
</g>
<!-- st0.func_801B6C5C -->
<g id="node40" class="node">
<title>st0.func_801B6C5C</title>
<g id="a_node40"><a xlink:href="st0.func_801B6C5C.svg" xlink:title="st0.func_801B6C5C">
<ellipse fill="green" stroke="black" cx="9978.99" cy="-198" rx="102.88" ry="18"/>
<text text-anchor="middle" x="9978.99" y="-194.3" font-family="Times,serif" font-size="14.00">st0.func_801B6C5C</text>
</a>
</g>
</g>
<!-- st0.func_801B6C5C&#45;&gt;st0.InitializeEntity -->
<g id="edge39" class="edge">
<title>st0.func_801B6C5C&#45;&gt;st0.InitializeEntity</title>
<path fill="none" stroke="black" d="M9908.08,-184.93C9894.79,-183.01 9880.99,-181.25 9867.99,-180 8317.5,-30.73 6418.16,-19.33 5950.69,-18.89"/>
<polygon fill="black" stroke="black" points="5950.58,-15.39 5940.58,-18.88 5950.57,-22.39 5950.58,-15.39"/>
<text text-anchor="middle" x="9903.08" y="-173.73" font-family="Times,serif" font-size="14.00">1</text>
</g>
<!-- st0.func_801B7308 -->
<g id="node41" class="node">
<title>st0.func_801B7308</title>
<g id="a_node41"><a xlink:href="st0.func_801B7308.svg" xlink:title="st0.func_801B7308">
<ellipse fill="red" stroke="black" cx="10199.99" cy="-198" rx="100.98" ry="18"/>
<text text-anchor="middle" x="10199.99" y="-194.3" font-family="Times,serif" font-size="14.00">st0.func_801B7308</text>
</a>
</g>
</g>
<!-- st0.func_801B7308&#45;&gt;st0.InitializeEntity -->
<g id="edge40" class="edge">
<title>st0.func_801B7308&#45;&gt;st0.InitializeEntity</title>
<path fill="none" stroke="black" d="M10130.36,-184.9C10117.31,-182.99 10103.76,-181.23 10090.99,-180 8447.99,-21.29 6433.44,-17.01 5950.61,-18.46"/>
<polygon fill="black" stroke="black" points="5950.5,-14.96 5940.51,-18.49 5950.52,-21.96 5950.5,-14.96"/>
<text text-anchor="middle" x="10125.36" y="-173.7" font-family="Times,serif" font-size="14.00">1</text>
</g>
<!-- st0.func_801B8AB4 -->
<g id="node42" class="node">
<title>st0.func_801B8AB4</title>
<g id="a_node42"><a xlink:href="st0.func_801B8AB4.svg" xlink:title="st0.func_801B8AB4">
<ellipse fill="green" stroke="black" cx="10420.99" cy="-198" rx="102.08" ry="18"/>
<text text-anchor="middle" x="10420.99" y="-194.3" font-family="Times,serif" font-size="14.00">st0.func_801B8AB4</text>
</a>
</g>
</g>
<!-- st0.func_801B8AB4&#45;&gt;st0.InitializeEntity -->
<g id="edge41" class="edge">
<title>st0.func_801B8AB4&#45;&gt;st0.InitializeEntity</title>
<path fill="none" stroke="black" d="M10350.38,-184.93C10337,-183 10323.09,-181.24 10309.99,-180 9424.06,-96.48 6540.51,-33.39 5949.44,-21.16"/>
<polygon fill="black" stroke="black" points="5949.3,-17.65 5939.23,-20.95 5949.16,-24.65 5949.3,-17.65"/>
<text text-anchor="middle" x="10345.38" y="-173.73" font-family="Times,serif" font-size="14.00">1</text>
</g>
<!-- st0.func_801BC5C0 -->
<g id="node43" class="node">
<title>st0.func_801BC5C0</title>
<g id="a_node43"><a xlink:href="st0.func_801BC5C0.svg" xlink:title="st0.func_801BC5C0">
<ellipse fill="red" stroke="black" cx="10643.99" cy="-198" rx="102.88" ry="18"/>
<text text-anchor="middle" x="10643.99" y="-194.3" font-family="Times,serif" font-size="14.00">st0.func_801BC5C0</text>
</a>
</g>
</g>
<!-- st0.func_801BC5C0&#45;&gt;st0.InitializeEntity -->
<g id="edge42" class="edge">
<title>st0.func_801BC5C0&#45;&gt;st0.InitializeEntity</title>
<path fill="none" stroke="black" d="M10573.04,-184.96C10559.45,-183.01 10545.3,-181.24 10531.99,-180 9599.46,-93.51 6558.9,-32.5 5949.79,-20.98"/>
<polygon fill="black" stroke="black" points="5949.76,-17.47 5939.7,-20.78 5949.63,-24.47 5949.76,-17.47"/>
<text text-anchor="middle" x="10568.04" y="-173.76" font-family="Times,serif" font-size="14.00">1</text>
</g>
<!-- st0.func_801BD8F0 -->
<g id="node44" class="node">
<title>st0.func_801BD8F0</title>
<g id="a_node44"><a xlink:href="st0.func_801BD8F0.svg" xlink:title="st0.func_801BD8F0">
<ellipse fill="red" stroke="black" cx="10866.99" cy="-198" rx="102.88" ry="18"/>
<text text-anchor="middle" x="10866.99" y="-194.3" font-family="Times,serif" font-size="14.00">st0.func_801BD8F0</text>
</a>
</g>
</g>
<!-- st0.func_801BD8F0&#45;&gt;st0.InitializeEntity -->
<g id="edge43" class="edge">
<title>st0.func_801BD8F0&#45;&gt;st0.InitializeEntity</title>
<path fill="none" stroke="black" d="M10796.38,-184.9C10783,-182.97 10769.09,-181.21 10755.99,-180 9776.58,-89.28 6577.59,-31.4 5950.28,-20.77"/>
<polygon fill="black" stroke="black" points="5949.95,-17.27 5939.9,-20.6 5949.84,-24.27 5949.95,-17.27"/>
<text text-anchor="middle" x="10791.38" y="-173.7" font-family="Times,serif" font-size="14.00">1</text>
</g>
</g>
</svg>
