<?xml version="1.0" encoding="UTF-8" standalone="no"?>
<!DOCTYPE svg PUBLIC "-//W3C//DTD SVG 1.1//EN"
 "http://www.w3.org/Graphics/SVG/1.1/DTD/svg11.dtd">
<!-- Generated by graphviz version 2.43.0 (0)
 -->
<!-- Title: st0.SetDisplayBufferColorsToBlack Pages: 1 -->
<svg width="484pt" height="224pt"
 viewBox="0.00 0.00 483.78 224.00" xmlns="http://www.w3.org/2000/svg" xmlns:xlink="http://www.w3.org/1999/xlink">
<g id="graph0" class="graph" transform="scale(1 1) rotate(0) translate(4 220)">
<title>st0.SetDisplayBufferColorsToBlack</title>
<polygon fill="white" stroke="transparent" points="-4,4 -4,-220 479.78,-220 479.78,4 -4,4"/>
<!-- st0.SetDisplayBufferColorsToBlack -->
<g id="node1" class="node">
<title>st0.SetDisplayBufferColorsToBlack</title>
<ellipse fill="green" stroke="black" cx="251.04" cy="-18" rx="172.77" ry="18"/>
<text text-anchor="middle" x="251.04" y="-14.3" font-family="Times,serif" font-size="14.00">st0.SetDisplayBufferColorsToBlack</text>
</g>
<!-- st0.SetTitleDisplayBuffer -->
<g id="node2" class="node">
<title>st0.SetTitleDisplayBuffer</title>
<g id="a_node2"><a xlink:href="st0.SetTitleDisplayBuffer.svg" xlink:title="st0.SetTitleDisplayBuffer">
<ellipse fill="green" stroke="black" cx="128.04" cy="-198" rx="128.08" ry="18"/>
<text text-anchor="middle" x="128.04" y="-194.3" font-family="Times,serif" font-size="14.00">st0.SetTitleDisplayBuffer</text>
</a>
</g>
</g>
<!-- st0.SetTitleDisplayBuffer&#45;&gt;st0.SetDisplayBufferColorsToBlack -->
<g id="edge1" class="edge">
<title>st0.SetTitleDisplayBuffer&#45;&gt;st0.SetDisplayBufferColorsToBlack</title>
<path fill="none" stroke="black" d="M139.83,-179.93C161.51,-148.57 207.78,-81.6 233.27,-44.71"/>
<polygon fill="black" stroke="black" points="236.48,-46.23 239.28,-36.02 230.72,-42.25 236.48,-46.23"/>
<text text-anchor="middle" x="134.83" y="-168.73" font-family="Times,serif" font-size="14.00">1</text>
</g>
<!-- st0.func_801B01F8 -->
<g id="node3" class="node">
<title>st0.func_801B01F8</title>
<g id="a_node3"><a xlink:href="st0.func_801B01F8.svg" xlink:title="st0.func_801B01F8">
<ellipse fill="green" stroke="black" cx="375.04" cy="-198" rx="100.98" ry="18"/>
<text text-anchor="middle" x="375.04" y="-194.3" font-family="Times,serif" font-size="14.00">st0.func_801B01F8</text>
</a>
</g>
</g>
<!-- st0.func_801B01F8&#45;&gt;st0.SetDisplayBufferColorsToBlack -->
<g id="edge2" class="edge">
<title>st0.func_801B01F8&#45;&gt;st0.SetDisplayBufferColorsToBlack</title>
<path fill="none" stroke="black" d="M363.15,-179.93C341.21,-148.43 294.25,-81.03 268.62,-44.24"/>
<polygon fill="black" stroke="black" points="271.48,-42.22 262.89,-36.02 265.74,-46.22 271.48,-42.22"/>
<text text-anchor="middle" x="358.15" y="-168.73" font-family="Times,serif" font-size="14.00">1</text>
</g>
</g>
</svg>
