<?xml version="1.0" encoding="UTF-8" standalone="no"?>
<!DOCTYPE svg PUBLIC "-//W3C//DTD SVG 1.1//EN"
 "http://www.w3.org/Graphics/SVG/1.1/DTD/svg11.dtd">
<!-- Generated by graphviz version 2.43.0 (0)
 -->
<!-- Title: st0.AllocEntity Pages: 1 -->
<svg width="3592pt" height="404pt"
 viewBox="0.00 0.00 3592.43 404.00" xmlns="http://www.w3.org/2000/svg" xmlns:xlink="http://www.w3.org/1999/xlink">
<g id="graph0" class="graph" transform="scale(1 1) rotate(0) translate(4 400)">
<title>st0.AllocEntity</title>
<polygon fill="white" stroke="transparent" points="-4,4 -4,-400 3588.43,-400 3588.43,4 -4,4"/>
<!-- st0.AllocEntity -->
<g id="node1" class="node">
<title>st0.AllocEntity</title>
<ellipse fill="green" stroke="black" cx="1931.04" cy="-198" rx="79.09" ry="18"/>
<text text-anchor="middle" x="1931.04" y="-194.3" font-family="Times,serif" font-size="14.00">st0.AllocEntity</text>
</g>
<!-- st0.DestroyEntity -->
<g id="node2" class="node">
<title>st0.DestroyEntity</title>
<g id="a_node2"><a xlink:href="st0.DestroyEntity.svg" xlink:title="st0.DestroyEntity">
<ellipse fill="green" stroke="black" cx="1931.04" cy="-18" rx="93.68" ry="18"/>
<text text-anchor="middle" x="1931.04" y="-14.3" font-family="Times,serif" font-size="14.00">st0.DestroyEntity</text>
</a>
</g>
</g>
<!-- st0.AllocEntity&#45;&gt;st0.DestroyEntity -->
<g id="edge1" class="edge">
<title>st0.AllocEntity&#45;&gt;st0.DestroyEntity</title>
<path fill="none" stroke="black" d="M1931.04,-179.93C1931.04,-148.97 1931.04,-83.3 1931.04,-46.13"/>
<polygon fill="black" stroke="black" points="1934.54,-46.02 1931.04,-36.02 1927.54,-46.02 1934.54,-46.02"/>
<text text-anchor="middle" x="1926.04" y="-39.82" font-family="Times,serif" font-size="14.00">1</text>
</g>
<!-- st0.EntityCutscenePhotograph -->
<g id="node3" class="node">
<title>st0.EntityCutscenePhotograph</title>
<g id="a_node3"><a xlink:href="st0.EntityCutscenePhotograph.svg" xlink:title="st0.EntityCutscenePhotograph">
<ellipse fill="red" stroke="black" cx="154.04" cy="-378" rx="154.07" ry="18"/>
<text text-anchor="middle" x="154.04" y="-374.3" font-family="Times,serif" font-size="14.00">st0.EntityCutscenePhotograph</text>
</a>
</g>
</g>
<!-- st0.EntityCutscenePhotograph&#45;&gt;st0.AllocEntity -->
<g id="edge2" class="edge">
<title>st0.EntityCutscenePhotograph&#45;&gt;st0.AllocEntity</title>
<path fill="none" stroke="black" d="M264.51,-365.41C282.08,-363.59 300.05,-361.73 317.04,-360 904.66,-300.05 1612.9,-230.25 1849.59,-206.99"/>
<polygon fill="black" stroke="black" points="1850.22,-210.45 1859.83,-205.99 1849.54,-203.48 1850.22,-210.45"/>
<text text-anchor="middle" x="259.51" y="-354.21" font-family="Times,serif" font-size="14.00">2</text>
</g>
<!-- st0.EntityDracula -->
<g id="node4" class="node">
<title>st0.EntityDracula</title>
<g id="a_node4"><a xlink:href="st0.EntityDracula.svg" xlink:title="st0.EntityDracula">
<ellipse fill="green" stroke="black" cx="419.04" cy="-378" rx="92.88" ry="18"/>
<text text-anchor="middle" x="419.04" y="-374.3" font-family="Times,serif" font-size="14.00">st0.EntityDracula</text>
</a>
</g>
</g>
<!-- st0.EntityDracula&#45;&gt;st0.AllocEntity -->
<g id="edge3" class="edge">
<title>st0.EntityDracula&#45;&gt;st0.AllocEntity</title>
<path fill="none" stroke="black" d="M485.62,-365.4C497.41,-363.49 509.57,-361.61 521.04,-360 1024.51,-289.35 1632.44,-227.99 1849.31,-206.85"/>
<polygon fill="black" stroke="black" points="1849.73,-210.32 1859.34,-205.87 1849.05,-203.36 1849.73,-210.32"/>
<text text-anchor="middle" x="480.62" y="-354.2" font-family="Times,serif" font-size="14.00">3</text>
</g>
<!-- st0.EntityDraculaFinalForm -->
<g id="node5" class="node">
<title>st0.EntityDraculaFinalForm</title>
<g id="a_node5"><a xlink:href="st0.EntityDraculaFinalForm.svg" xlink:title="st0.EntityDraculaFinalForm">
<ellipse fill="green" stroke="black" cx="671.04" cy="-378" rx="141.07" ry="18"/>
<text text-anchor="middle" x="671.04" y="-374.3" font-family="Times,serif" font-size="14.00">st0.EntityDraculaFinalForm</text>
</a>
</g>
</g>
<!-- st0.EntityDraculaFinalForm&#45;&gt;st0.AllocEntity -->
<g id="edge4" class="edge">
<title>st0.EntityDraculaFinalForm&#45;&gt;st0.AllocEntity</title>
<path fill="none" stroke="black" d="M761.65,-364.2C999.11,-330.65 1636.2,-240.65 1855.58,-209.66"/>
<polygon fill="black" stroke="black" points="1856.29,-213.09 1865.71,-208.23 1855.32,-206.16 1856.29,-213.09"/>
<text text-anchor="middle" x="756.65" y="-353" font-family="Times,serif" font-size="14.00">5</text>
</g>
<!-- st0.EntityDraculaGlass -->
<g id="node6" class="node">
<title>st0.EntityDraculaGlass</title>
<g id="a_node6"><a xlink:href="st0.EntityDraculaGlass.svg" xlink:title="st0.EntityDraculaGlass">
<ellipse fill="green" stroke="black" cx="948.04" cy="-378" rx="118.08" ry="18"/>
<text text-anchor="middle" x="948.04" y="-374.3" font-family="Times,serif" font-size="14.00">st0.EntityDraculaGlass</text>
</a>
</g>
</g>
<!-- st0.EntityDraculaGlass&#45;&gt;st0.AllocEntity -->
<g id="edge5" class="edge">
<title>st0.EntityDraculaGlass&#45;&gt;st0.AllocEntity</title>
<path fill="none" stroke="black" d="M1021.12,-363.77C1204.42,-330.57 1681.83,-244.13 1861.39,-211.61"/>
<polygon fill="black" stroke="black" points="1862.04,-215.05 1871.25,-209.83 1860.79,-208.16 1862.04,-215.05"/>
<text text-anchor="middle" x="1016.12" y="-352.57" font-family="Times,serif" font-size="14.00">1</text>
</g>
<!-- st0.EntityDraculaMeteorball -->
<g id="node7" class="node">
<title>st0.EntityDraculaMeteorball</title>
<g id="a_node7"><a xlink:href="st0.EntityDraculaMeteorball.svg" xlink:title="st0.EntityDraculaMeteorball">
<ellipse fill="green" stroke="black" cx="1228.04" cy="-378" rx="143.77" ry="18"/>
<text text-anchor="middle" x="1228.04" y="-374.3" font-family="Times,serif" font-size="14.00">st0.EntityDraculaMeteorball</text>
</a>
</g>
</g>
<!-- st0.EntityDraculaMeteorball&#45;&gt;st0.AllocEntity -->
<g id="edge6" class="edge">
<title>st0.EntityDraculaMeteorball&#45;&gt;st0.AllocEntity</title>
<path fill="none" stroke="black" d="M1288.58,-361.67C1421.34,-328.06 1736.8,-248.18 1870,-214.45"/>
<polygon fill="black" stroke="black" points="1871.2,-217.76 1880.04,-211.91 1869.48,-210.98 1871.2,-217.76"/>
<text text-anchor="middle" x="1283.58" y="-350.47" font-family="Times,serif" font-size="14.00">1</text>
</g>
<!-- st0.EntityDraculaRainAttack -->
<g id="node8" class="node">
<title>st0.EntityDraculaRainAttack</title>
<g id="a_node8"><a xlink:href="st0.EntityDraculaRainAttack.svg" xlink:title="st0.EntityDraculaRainAttack">
<ellipse fill="green" stroke="black" cx="1533.04" cy="-378" rx="143.77" ry="18"/>
<text text-anchor="middle" x="1533.04" y="-374.3" font-family="Times,serif" font-size="14.00">st0.EntityDraculaRainAttack</text>
</a>
</g>
</g>
<!-- st0.EntityDraculaRainAttack&#45;&gt;st0.AllocEntity -->
<g id="edge7" class="edge">
<title>st0.EntityDraculaRainAttack&#45;&gt;st0.AllocEntity</title>
<path fill="none" stroke="black" d="M1569.77,-360.57C1643.36,-327.66 1808.59,-253.76 1887.49,-218.48"/>
<polygon fill="black" stroke="black" points="1888.97,-221.65 1896.67,-214.37 1886.11,-215.26 1888.97,-221.65"/>
<text text-anchor="middle" x="1564.77" y="-349.37" font-family="Times,serif" font-size="14.00">2</text>
</g>
<!-- st0.EntitySecretButton -->
<g id="node9" class="node">
<title>st0.EntitySecretButton</title>
<g id="a_node9"><a xlink:href="st0.EntitySecretButton.svg" xlink:title="st0.EntitySecretButton">
<ellipse fill="green" stroke="black" cx="1814.04" cy="-378" rx="118.88" ry="18"/>
<text text-anchor="middle" x="1814.04" y="-374.3" font-family="Times,serif" font-size="14.00">st0.EntitySecretButton</text>
</a>
</g>
</g>
<!-- st0.EntitySecretButton&#45;&gt;st0.AllocEntity -->
<g id="edge8" class="edge">
<title>st0.EntitySecretButton&#45;&gt;st0.AllocEntity</title>
<path fill="none" stroke="black" d="M1825.25,-359.93C1845.87,-328.57 1889.89,-261.6 1914.14,-224.71"/>
<polygon fill="black" stroke="black" points="1917.28,-226.29 1919.85,-216.02 1911.43,-222.45 1917.28,-226.29"/>
<text text-anchor="middle" x="1820.25" y="-348.73" font-family="Times,serif" font-size="14.00">2</text>
</g>
<!-- st0.EntityUnkId13 -->
<g id="node10" class="node">
<title>st0.EntityUnkId13</title>
<g id="a_node10"><a xlink:href="st0.EntityUnkId13.svg" xlink:title="st0.EntityUnkId13">
<ellipse fill="green" stroke="black" cx="2048.04" cy="-378" rx="96.68" ry="18"/>
<text text-anchor="middle" x="2048.04" y="-374.3" font-family="Times,serif" font-size="14.00">st0.EntityUnkId13</text>
</a>
</g>
</g>
<!-- st0.EntityUnkId13&#45;&gt;st0.AllocEntity -->
<g id="edge9" class="edge">
<title>st0.EntityUnkId13&#45;&gt;st0.AllocEntity</title>
<path fill="none" stroke="black" d="M2036.82,-359.93C2016.2,-328.57 1972.18,-261.6 1947.93,-224.71"/>
<polygon fill="black" stroke="black" points="1950.64,-222.45 1942.22,-216.02 1944.79,-226.29 1950.64,-222.45"/>
<text text-anchor="middle" x="2031.82" y="-348.73" font-family="Times,serif" font-size="14.00">1</text>
</g>
<!-- st0.EntityUnkId14Spawner -->
<g id="node11" class="node">
<title>st0.EntityUnkId14Spawner</title>
<g id="a_node11"><a xlink:href="st0.EntityUnkId14Spawner.svg" xlink:title="st0.EntityUnkId14Spawner">
<ellipse fill="green" stroke="black" cx="2301.04" cy="-378" rx="137.58" ry="18"/>
<text text-anchor="middle" x="2301.04" y="-374.3" font-family="Times,serif" font-size="14.00">st0.EntityUnkId14Spawner</text>
</a>
</g>
</g>
<!-- st0.EntityUnkId14Spawner&#45;&gt;st0.AllocEntity -->
<g id="edge10" class="edge">
<title>st0.EntityUnkId14Spawner&#45;&gt;st0.AllocEntity</title>
<path fill="none" stroke="black" d="M2266.56,-360.41C2198.31,-327.58 2046.25,-254.43 1972.6,-219"/>
<polygon fill="black" stroke="black" points="1973.7,-215.64 1963.17,-214.46 1970.67,-221.95 1973.7,-215.64"/>
<text text-anchor="middle" x="2261.56" y="-349.21" font-family="Times,serif" font-size="14.00">1</text>
</g>
<!-- st0.EntityUnkId15Spawner -->
<g id="node12" class="node">
<title>st0.EntityUnkId15Spawner</title>
<g id="a_node12"><a xlink:href="st0.EntityUnkId15Spawner.svg" xlink:title="st0.EntityUnkId15Spawner">
<ellipse fill="green" stroke="black" cx="2595.04" cy="-378" rx="137.58" ry="18"/>
<text text-anchor="middle" x="2595.04" y="-374.3" font-family="Times,serif" font-size="14.00">st0.EntityUnkId15Spawner</text>
</a>
</g>
</g>
<!-- st0.EntityUnkId15Spawner&#45;&gt;st0.AllocEntity -->
<g id="edge11" class="edge">
<title>st0.EntityUnkId15Spawner&#45;&gt;st0.AllocEntity</title>
<path fill="none" stroke="black" d="M2537.56,-361.59C2412.56,-328.08 2117.08,-248.87 1990.39,-214.91"/>
<polygon fill="black" stroke="black" points="1991.04,-211.46 1980.48,-212.25 1989.23,-218.22 1991.04,-211.46"/>
<text text-anchor="middle" x="2532.56" y="-350.39" font-family="Times,serif" font-size="14.00">1</text>
</g>
<!-- st0.HitDetection -->
<g id="node13" class="node">
<title>st0.HitDetection</title>
<g id="a_node13"><a xlink:href="st0.HitDetection.svg" xlink:title="st0.HitDetection">
<ellipse fill="green" stroke="black" cx="2839.04" cy="-378" rx="87.99" ry="18"/>
<text text-anchor="middle" x="2839.04" y="-374.3" font-family="Times,serif" font-size="14.00">st0.HitDetection</text>
</a>
</g>
</g>
<!-- st0.HitDetection&#45;&gt;st0.AllocEntity -->
<g id="edge12" class="edge">
<title>st0.HitDetection&#45;&gt;st0.AllocEntity</title>
<path fill="none" stroke="black" d="M2778.05,-365.04C2614.99,-333.08 2169.77,-245.8 1998.98,-212.32"/>
<polygon fill="black" stroke="black" points="1999.59,-208.87 1989.1,-210.38 1998.24,-215.74 1999.59,-208.87"/>
<text text-anchor="middle" x="2773.05" y="-353.84" font-family="Times,serif" font-size="14.00">2</text>
</g>
<!-- st0.func_801A805C -->
<g id="node14" class="node">
<title>st0.func_801A805C</title>
<g id="a_node14"><a xlink:href="st0.func_801A805C.svg" xlink:title="st0.func_801A805C">
<ellipse fill="green" stroke="black" cx="3045.04" cy="-378" rx="100.98" ry="18"/>
<text text-anchor="middle" x="3045.04" y="-374.3" font-family="Times,serif" font-size="14.00">st0.func_801A805C</text>
</a>
</g>
</g>
<!-- st0.func_801A805C&#45;&gt;st0.AllocEntity -->
<g id="edge13" class="edge">
<title>st0.func_801A805C&#45;&gt;st0.AllocEntity</title>
<path fill="none" stroke="black" d="M2972.37,-365.39C2770.7,-333.17 2205.64,-242.88 2003.82,-210.63"/>
<polygon fill="black" stroke="black" points="2004.34,-207.17 1993.91,-209.05 2003.24,-214.08 2004.34,-207.17"/>
<text text-anchor="middle" x="2967.37" y="-354.19" font-family="Times,serif" font-size="14.00">4</text>
</g>
<!-- st0.func_801A8328 -->
<g id="node15" class="node">
<title>st0.func_801A8328</title>
<g id="a_node15"><a xlink:href="st0.func_801A8328.svg" xlink:title="st0.func_801A8328">
<ellipse fill="green" stroke="black" cx="3264.04" cy="-378" rx="100.18" ry="18"/>
<text text-anchor="middle" x="3264.04" y="-374.3" font-family="Times,serif" font-size="14.00">st0.func_801A8328</text>
</a>
</g>
</g>
<!-- st0.func_801A8328&#45;&gt;st0.AllocEntity -->
<g id="edge14" class="edge">
<title>st0.func_801A8328&#45;&gt;st0.AllocEntity</title>
<path fill="none" stroke="black" d="M3191.96,-365.51C3179.65,-363.62 3166.98,-361.72 3155.04,-360 2722.82,-297.88 2203.34,-232.67 2009.23,-208.63"/>
<polygon fill="black" stroke="black" points="2009.48,-205.13 1999.12,-207.38 2008.62,-212.08 2009.48,-205.13"/>
<text text-anchor="middle" x="3186.96" y="-354.31" font-family="Times,serif" font-size="14.00">1</text>
</g>
<!-- st0.func_801B8C48 -->
<g id="node16" class="node">
<title>st0.func_801B8C48</title>
<g id="a_node16"><a xlink:href="st0.func_801B8C48.svg" xlink:title="st0.func_801B8C48">
<ellipse fill="green" stroke="black" cx="3483.04" cy="-378" rx="101.28" ry="18"/>
<text text-anchor="middle" x="3483.04" y="-374.3" font-family="Times,serif" font-size="14.00">st0.func_801B8C48</text>
</a>
</g>
</g>
<!-- st0.func_801B8C48&#45;&gt;st0.AllocEntity -->
<g id="edge15" class="edge">
<title>st0.func_801B8C48&#45;&gt;st0.AllocEntity</title>
<path fill="none" stroke="black" d="M3410.62,-365.36C3398.1,-363.48 3385.2,-361.62 3373.04,-360 2856.24,-291.25 2232.56,-228.43 2012.6,-206.89"/>
<polygon fill="black" stroke="black" points="2012.73,-203.39 2002.44,-205.9 2012.05,-210.35 2012.73,-203.39"/>
<text text-anchor="middle" x="3405.62" y="-354.16" font-family="Times,serif" font-size="14.00">1</text>
</g>
</g>
</svg>
