<?xml version="1.0" encoding="UTF-8" standalone="no"?>
<!DOCTYPE svg PUBLIC "-//W3C//DTD SVG 1.1//EN"
 "http://www.w3.org/Graphics/SVG/1.1/DTD/svg11.dtd">
<!-- Generated by graphviz version 2.43.0 (0)
 -->
<!-- Title: st0.CreateEntitiesToTheRight Pages: 1 -->
<svg width="710pt" height="404pt"
 viewBox="0.00 0.00 709.87 404.00" xmlns="http://www.w3.org/2000/svg" xmlns:xlink="http://www.w3.org/1999/xlink">
<g id="graph0" class="graph" transform="scale(1 1) rotate(0) translate(4 400)">
<title>st0.CreateEntitiesToTheRight</title>
<polygon fill="white" stroke="transparent" points="-4,4 -4,-400 705.87,-400 705.87,4 -4,4"/>
<!-- st0.CreateEntitiesToTheRight -->
<g id="node1" class="node">
<title>st0.CreateEntitiesToTheRight</title>
<ellipse fill="green" stroke="black" cx="368.48" cy="-198" rx="149.47" ry="18"/>
<text text-anchor="middle" x="368.48" y="-194.3" font-family="Times,serif" font-size="14.00">st0.CreateEntitiesToTheRight</text>
</g>
<!-- st0.CreateEntityWhenInVerticalRange -->
<g id="node2" class="node">
<title>st0.CreateEntityWhenInVerticalRange</title>
<g id="a_node2"><a xlink:href="st0.CreateEntityWhenInVerticalRange.svg" xlink:title="st0.CreateEntityWhenInVerticalRange">
<ellipse fill="green" stroke="black" cx="188.48" cy="-18" rx="188.47" ry="18"/>
<text text-anchor="middle" x="188.48" y="-14.3" font-family="Times,serif" font-size="14.00">st0.CreateEntityWhenInVerticalRange</text>
</a>
</g>
</g>
<!-- st0.CreateEntitiesToTheRight&#45;&gt;st0.CreateEntityWhenInVerticalRange -->
<g id="edge1" class="edge">
<title>st0.CreateEntitiesToTheRight&#45;&gt;st0.CreateEntityWhenInVerticalRange</title>
<path fill="none" stroke="black" d="M351.22,-179.93C319.1,-148.17 250.06,-79.89 213.07,-43.32"/>
<polygon fill="black" stroke="black" points="215.26,-40.56 205.69,-36.02 210.34,-45.54 215.26,-40.56"/>
<text text-anchor="middle" x="200.69" y="-39.82" font-family="Times,serif" font-size="14.00">1</text>
</g>
<!-- st0.FindFirstEntityToTheRight -->
<g id="node3" class="node">
<title>st0.FindFirstEntityToTheRight</title>
<g id="a_node3"><a xlink:href="st0.FindFirstEntityToTheRight.svg" xlink:title="st0.FindFirstEntityToTheRight">
<ellipse fill="green" stroke="black" cx="548.48" cy="-18" rx="153.27" ry="18"/>
<text text-anchor="middle" x="548.48" y="-14.3" font-family="Times,serif" font-size="14.00">st0.FindFirstEntityToTheRight</text>
</a>
</g>
</g>
<!-- st0.CreateEntitiesToTheRight&#45;&gt;st0.FindFirstEntityToTheRight -->
<g id="edge2" class="edge">
<title>st0.CreateEntitiesToTheRight&#45;&gt;st0.FindFirstEntityToTheRight</title>
<path fill="none" stroke="black" d="M385.74,-179.93C417.86,-148.17 486.91,-79.89 523.89,-43.32"/>
<polygon fill="black" stroke="black" points="526.63,-45.54 531.28,-36.02 521.7,-40.56 526.63,-45.54"/>
<text text-anchor="middle" x="526.28" y="-39.82" font-family="Times,serif" font-size="14.00">1</text>
</g>
<!-- st0.InitRoomEntities -->
<g id="node4" class="node">
<title>st0.InitRoomEntities</title>
<g id="a_node4"><a xlink:href="st0.InitRoomEntities.svg" xlink:title="st0.InitRoomEntities">
<ellipse fill="green" stroke="black" cx="243.48" cy="-378" rx="107.48" ry="18"/>
<text text-anchor="middle" x="243.48" y="-374.3" font-family="Times,serif" font-size="14.00">st0.InitRoomEntities</text>
</a>
</g>
</g>
<!-- st0.InitRoomEntities&#45;&gt;st0.CreateEntitiesToTheRight -->
<g id="edge3" class="edge">
<title>st0.InitRoomEntities&#45;&gt;st0.CreateEntitiesToTheRight</title>
<path fill="none" stroke="black" d="M255.47,-359.93C277.59,-328.43 324.92,-261.03 350.76,-224.24"/>
<polygon fill="black" stroke="black" points="353.65,-226.21 356.53,-216.02 347.92,-222.19 353.65,-226.21"/>
<text text-anchor="middle" x="250.47" y="-348.73" font-family="Times,serif" font-size="14.00">1</text>
</g>
<!-- st0.UpdateRoomPosition -->
<g id="node5" class="node">
<title>st0.UpdateRoomPosition</title>
<g id="a_node5"><a xlink:href="st0.UpdateRoomPosition.svg" xlink:title="st0.UpdateRoomPosition">
<ellipse fill="green" stroke="black" cx="494.48" cy="-378" rx="126.18" ry="18"/>
<text text-anchor="middle" x="494.48" y="-374.3" font-family="Times,serif" font-size="14.00">st0.UpdateRoomPosition</text>
</a>
</g>
</g>
<!-- st0.UpdateRoomPosition&#45;&gt;st0.CreateEntitiesToTheRight -->
<g id="edge4" class="edge">
<title>st0.UpdateRoomPosition&#45;&gt;st0.CreateEntitiesToTheRight</title>
<path fill="none" stroke="black" d="M482.4,-359.93C460.11,-328.43 412.39,-261.03 386.35,-224.24"/>
<polygon fill="black" stroke="black" points="389.16,-222.16 380.53,-216.02 383.45,-226.2 389.16,-222.16"/>
<text text-anchor="middle" x="477.4" y="-348.73" font-family="Times,serif" font-size="14.00">1</text>
</g>
</g>
</svg>
