<?xml version="1.0" encoding="UTF-8" standalone="no"?>
<!DOCTYPE svg PUBLIC "-//W3C//DTD SVG 1.1//EN"
 "http://www.w3.org/Graphics/SVG/1.1/DTD/svg11.dtd">
<!-- Generated by graphviz version 2.43.0 (0)
 -->
<!-- Title: st0.AnimateEntity Pages: 1 -->
<svg width="4948pt" height="224pt"
 viewBox="0.00 0.00 4948.13 224.00" xmlns="http://www.w3.org/2000/svg" xmlns:xlink="http://www.w3.org/1999/xlink">
<g id="graph0" class="graph" transform="scale(1 1) rotate(0) translate(4 220)">
<title>st0.AnimateEntity</title>
<polygon fill="white" stroke="transparent" points="-4,4 -4,-220 4944.13,-220 4944.13,4 -4,4"/>
<!-- st0.AnimateEntity -->
<g id="node1" class="node">
<title>st0.AnimateEntity</title>
<ellipse fill="green" stroke="black" cx="2666.74" cy="-18" rx="95.58" ry="18"/>
<text text-anchor="middle" x="2666.74" y="-14.3" font-family="Times,serif" font-size="14.00">st0.AnimateEntity</text>
</g>
<!-- st0.EntityBigRedFireball -->
<g id="node2" class="node">
<title>st0.EntityBigRedFireball</title>
<g id="a_node2"><a xlink:href="st0.EntityBigRedFireball.svg" xlink:title="st0.EntityBigRedFireball">
<ellipse fill="green" stroke="black" cx="126.74" cy="-198" rx="126.98" ry="18"/>
<text text-anchor="middle" x="126.74" y="-194.3" font-family="Times,serif" font-size="14.00">st0.EntityBigRedFireball</text>
</a>
</g>
</g>
<!-- st0.EntityBigRedFireball&#45;&gt;st0.AnimateEntity -->
<g id="edge1" class="edge">
<title>st0.EntityBigRedFireball&#45;&gt;st0.AnimateEntity</title>
<path fill="none" stroke="black" d="M215.54,-185.15C231.25,-183.27 247.46,-181.47 262.74,-180 1153.17,-94.6 2233.47,-39.53 2565.09,-23.71"/>
<polygon fill="black" stroke="black" points="2565.33,-27.2 2575.16,-23.23 2565,-20.21 2565.33,-27.2"/>
<text text-anchor="middle" x="210.54" y="-173.95" font-family="Times,serif" font-size="14.00">1</text>
</g>
<!-- st0.EntityCutscene -->
<g id="node3" class="node">
<title>st0.EntityCutscene</title>
<g id="a_node3"><a xlink:href="st0.EntityCutscene.svg" xlink:title="st0.EntityCutscene">
<ellipse fill="green" stroke="black" cx="371.74" cy="-198" rx="100.18" ry="18"/>
<text text-anchor="middle" x="371.74" y="-194.3" font-family="Times,serif" font-size="14.00">st0.EntityCutscene</text>
</a>
</g>
</g>
<!-- st0.EntityCutscene&#45;&gt;st0.AnimateEntity -->
<g id="edge2" class="edge">
<title>st0.EntityCutscene&#45;&gt;st0.AnimateEntity</title>
<path fill="none" stroke="black" d="M442.28,-185.14C455.05,-183.24 468.28,-181.43 480.74,-180 1280.72,-88.31 2251.69,-38.2 2564.46,-23.58"/>
<polygon fill="black" stroke="black" points="2565.03,-27.05 2574.86,-23.09 2564.71,-20.06 2565.03,-27.05"/>
<text text-anchor="middle" x="432.78" y="-173.94" font-family="Times,serif" font-size="14.00">10</text>
</g>
<!-- st0.EntityCutscenePhotographFire -->
<g id="node4" class="node">
<title>st0.EntityCutscenePhotographFire</title>
<g id="a_node4"><a xlink:href="st0.EntityCutscenePhotographFire.svg" xlink:title="st0.EntityCutscenePhotographFire">
<ellipse fill="green" stroke="black" cx="662.74" cy="-198" rx="172.77" ry="18"/>
<text text-anchor="middle" x="662.74" y="-194.3" font-family="Times,serif" font-size="14.00">st0.EntityCutscenePhotographFire</text>
</a>
</g>
</g>
<!-- st0.EntityCutscenePhotographFire&#45;&gt;st0.AnimateEntity -->
<g id="edge3" class="edge">
<title>st0.EntityCutscenePhotographFire&#45;&gt;st0.AnimateEntity</title>
<path fill="none" stroke="black" d="M786.58,-185.35C806.04,-183.54 825.93,-181.71 844.74,-180 1505.5,-119.95 2301.36,-50.67 2571.65,-27.23"/>
<polygon fill="black" stroke="black" points="2572.15,-30.7 2581.81,-26.35 2571.54,-23.73 2572.15,-30.7"/>
<text text-anchor="middle" x="781.58" y="-174.15" font-family="Times,serif" font-size="14.00">1</text>
</g>
<!-- st0.EntityDracula -->
<g id="node5" class="node">
<title>st0.EntityDracula</title>
<g id="a_node5"><a xlink:href="st0.EntityDracula.svg" xlink:title="st0.EntityDracula">
<ellipse fill="green" stroke="black" cx="946.74" cy="-198" rx="92.88" ry="18"/>
<text text-anchor="middle" x="946.74" y="-194.3" font-family="Times,serif" font-size="14.00">st0.EntityDracula</text>
</a>
</g>
</g>
<!-- st0.EntityDracula&#45;&gt;st0.AnimateEntity -->
<g id="edge4" class="edge">
<title>st0.EntityDracula&#45;&gt;st0.AnimateEntity</title>
<path fill="none" stroke="black" d="M1013.03,-185.3C1024.9,-183.39 1037.17,-181.54 1048.74,-180 1623.51,-103.59 2317.57,-46.15 2569.47,-26.43"/>
<polygon fill="black" stroke="black" points="2569.99,-29.9 2579.69,-25.63 2569.44,-22.92 2569.99,-29.9"/>
<text text-anchor="middle" x="1008.03" y="-174.1" font-family="Times,serif" font-size="14.00">8</text>
</g>
<!-- st0.EntityDraculaFinalForm -->
<g id="node6" class="node">
<title>st0.EntityDraculaFinalForm</title>
<g id="a_node6"><a xlink:href="st0.EntityDraculaFinalForm.svg" xlink:title="st0.EntityDraculaFinalForm">
<ellipse fill="green" stroke="black" cx="1198.74" cy="-198" rx="141.07" ry="18"/>
<text text-anchor="middle" x="1198.74" y="-194.3" font-family="Times,serif" font-size="14.00">st0.EntityDraculaFinalForm</text>
</a>
</g>
</g>
<!-- st0.EntityDraculaFinalForm&#45;&gt;st0.AnimateEntity -->
<g id="edge5" class="edge">
<title>st0.EntityDraculaFinalForm&#45;&gt;st0.AnimateEntity</title>
<path fill="none" stroke="black" d="M1297.05,-185.08C1567.67,-152.27 2320.56,-60.98 2578.62,-29.68"/>
<polygon fill="black" stroke="black" points="2579.19,-33.14 2588.7,-28.46 2578.35,-26.19 2579.19,-33.14"/>
<text text-anchor="middle" x="1287.55" y="-173.88" font-family="Times,serif" font-size="14.00">13</text>
</g>
<!-- st0.EntityDraculaFireball -->
<g id="node7" class="node">
<title>st0.EntityDraculaFireball</title>
<g id="a_node7"><a xlink:href="st0.EntityDraculaFireball.svg" xlink:title="st0.EntityDraculaFireball">
<ellipse fill="green" stroke="black" cx="1486.74" cy="-198" rx="129.18" ry="18"/>
<text text-anchor="middle" x="1486.74" y="-194.3" font-family="Times,serif" font-size="14.00">st0.EntityDraculaFireball</text>
</a>
</g>
</g>
<!-- st0.EntityDraculaFireball&#45;&gt;st0.AnimateEntity -->
<g id="edge6" class="edge">
<title>st0.EntityDraculaFireball&#45;&gt;st0.AnimateEntity</title>
<path fill="none" stroke="black" d="M1571.13,-184.27C1789.21,-151.37 2369.48,-63.84 2584.81,-31.36"/>
<polygon fill="black" stroke="black" points="2585.42,-34.81 2594.79,-29.85 2584.38,-27.88 2585.42,-34.81"/>
<text text-anchor="middle" x="1566.13" y="-173.07" font-family="Times,serif" font-size="14.00">1</text>
</g>
<!-- st0.EntityDraculaGlass -->
<g id="node8" class="node">
<title>st0.EntityDraculaGlass</title>
<g id="a_node8"><a xlink:href="st0.EntityDraculaGlass.svg" xlink:title="st0.EntityDraculaGlass">
<ellipse fill="green" stroke="black" cx="1752.74" cy="-198" rx="118.08" ry="18"/>
<text text-anchor="middle" x="1752.74" y="-194.3" font-family="Times,serif" font-size="14.00">st0.EntityDraculaGlass</text>
</a>
</g>
</g>
<!-- st0.EntityDraculaGlass&#45;&gt;st0.AnimateEntity -->
<g id="edge7" class="edge">
<title>st0.EntityDraculaGlass&#45;&gt;st0.AnimateEntity</title>
<path fill="none" stroke="black" d="M1822.56,-183.4C1991.34,-150.53 2420.23,-67.01 2592.97,-33.37"/>
<polygon fill="black" stroke="black" points="2593.84,-36.76 2602.99,-31.42 2592.5,-29.89 2593.84,-36.76"/>
<text text-anchor="middle" x="1817.56" y="-172.2" font-family="Times,serif" font-size="14.00">1</text>
</g>
<!-- st0.EntityDraculaMegaFireball -->
<g id="node9" class="node">
<title>st0.EntityDraculaMegaFireball</title>
<g id="a_node9"><a xlink:href="st0.EntityDraculaMegaFireball.svg" xlink:title="st0.EntityDraculaMegaFireball">
<ellipse fill="green" stroke="black" cx="2044.74" cy="-198" rx="155.17" ry="18"/>
<text text-anchor="middle" x="2044.74" y="-194.3" font-family="Times,serif" font-size="14.00">st0.EntityDraculaMegaFireball</text>
</a>
</g>
</g>
<!-- st0.EntityDraculaMegaFireball&#45;&gt;st0.AnimateEntity -->
<g id="edge8" class="edge">
<title>st0.EntityDraculaMegaFireball&#45;&gt;st0.AnimateEntity</title>
<path fill="none" stroke="black" d="M2100.21,-181.13C2216.78,-147.77 2486.31,-70.63 2606.73,-36.17"/>
<polygon fill="black" stroke="black" points="2607.88,-39.48 2616.53,-33.37 2605.95,-32.75 2607.88,-39.48"/>
<text text-anchor="middle" x="2095.21" y="-169.93" font-family="Times,serif" font-size="14.00">2</text>
</g>
<!-- st0.EntityDraculaMeteorball -->
<g id="node10" class="node">
<title>st0.EntityDraculaMeteorball</title>
<g id="a_node10"><a xlink:href="st0.EntityDraculaMeteorball.svg" xlink:title="st0.EntityDraculaMeteorball">
<ellipse fill="green" stroke="black" cx="2361.74" cy="-198" rx="143.77" ry="18"/>
<text text-anchor="middle" x="2361.74" y="-194.3" font-family="Times,serif" font-size="14.00">st0.EntityDraculaMeteorball</text>
</a>
</g>
</g>
<!-- st0.EntityDraculaMeteorball&#45;&gt;st0.AnimateEntity -->
<g id="edge9" class="edge">
<title>st0.EntityDraculaMeteorball&#45;&gt;st0.AnimateEntity</title>
<path fill="none" stroke="black" d="M2390.43,-180.25C2446.01,-147.82 2568.26,-76.47 2629.8,-40.56"/>
<polygon fill="black" stroke="black" points="2631.91,-43.38 2638.79,-35.31 2628.38,-37.33 2631.91,-43.38"/>
<text text-anchor="middle" x="2385.43" y="-169.05" font-family="Times,serif" font-size="14.00">2</text>
</g>
<!-- st0.EntityDraculaRainAttack -->
<g id="node11" class="node">
<title>st0.EntityDraculaRainAttack</title>
<g id="a_node11"><a xlink:href="st0.EntityDraculaRainAttack.svg" xlink:title="st0.EntityDraculaRainAttack">
<ellipse fill="green" stroke="black" cx="2666.74" cy="-198" rx="143.77" ry="18"/>
<text text-anchor="middle" x="2666.74" y="-194.3" font-family="Times,serif" font-size="14.00">st0.EntityDraculaRainAttack</text>
</a>
</g>
</g>
<!-- st0.EntityDraculaRainAttack&#45;&gt;st0.AnimateEntity -->
<g id="edge10" class="edge">
<title>st0.EntityDraculaRainAttack&#45;&gt;st0.AnimateEntity</title>
<path fill="none" stroke="black" d="M2666.74,-179.93C2666.74,-148.97 2666.74,-83.3 2666.74,-46.13"/>
<polygon fill="black" stroke="black" points="2670.24,-46.02 2666.74,-36.02 2663.24,-46.02 2670.24,-46.02"/>
<text text-anchor="middle" x="2661.74" y="-168.73" font-family="Times,serif" font-size="14.00">2</text>
</g>
<!-- st0.EntityExplosion -->
<g id="node12" class="node">
<title>st0.EntityExplosion</title>
<g id="a_node12"><a xlink:href="st0.EntityExplosion.svg" xlink:title="st0.EntityExplosion">
<ellipse fill="green" stroke="black" cx="2930.74" cy="-198" rx="102.88" ry="18"/>
<text text-anchor="middle" x="2930.74" y="-194.3" font-family="Times,serif" font-size="14.00">st0.EntityExplosion</text>
</a>
</g>
</g>
<!-- st0.EntityExplosion&#45;&gt;st0.AnimateEntity -->
<g id="edge11" class="edge">
<title>st0.EntityExplosion&#45;&gt;st0.AnimateEntity</title>
<path fill="none" stroke="black" d="M2905.9,-180.25C2858.12,-148.04 2753.38,-77.42 2699.78,-41.27"/>
<polygon fill="black" stroke="black" points="2701.56,-38.26 2691.32,-35.57 2697.65,-44.06 2701.56,-38.26"/>
<text text-anchor="middle" x="2900.9" y="-169.05" font-family="Times,serif" font-size="14.00">1</text>
</g>
<!-- st0.EntityPrizeDrop -->
<g id="node13" class="node">
<title>st0.EntityPrizeDrop</title>
<g id="a_node13"><a xlink:href="st0.EntityPrizeDrop.svg" xlink:title="st0.EntityPrizeDrop">
<ellipse fill="green" stroke="black" cx="3155.74" cy="-198" rx="103.98" ry="18"/>
<text text-anchor="middle" x="3155.74" y="-194.3" font-family="Times,serif" font-size="14.00">st0.EntityPrizeDrop</text>
</a>
</g>
</g>
<!-- st0.EntityPrizeDrop&#45;&gt;st0.AnimateEntity -->
<g id="edge12" class="edge">
<title>st0.EntityPrizeDrop&#45;&gt;st0.AnimateEntity</title>
<path fill="none" stroke="black" d="M3113.2,-181.52C3023.45,-148.85 2815.04,-72.98 2718.07,-37.69"/>
<polygon fill="black" stroke="black" points="2719.08,-34.33 2708.49,-34.2 2716.69,-40.91 2719.08,-34.33"/>
<text text-anchor="middle" x="3108.2" y="-170.32" font-family="Times,serif" font-size="14.00">1</text>
</g>
<!-- st0.EntityRoomForeground -->
<g id="node14" class="node">
<title>st0.EntityRoomForeground</title>
<g id="a_node14"><a xlink:href="st0.EntityRoomForeground.svg" xlink:title="st0.EntityRoomForeground">
<ellipse fill="green" stroke="black" cx="3415.74" cy="-198" rx="137.58" ry="18"/>
<text text-anchor="middle" x="3415.74" y="-194.3" font-family="Times,serif" font-size="14.00">st0.EntityRoomForeground</text>
</a>
</g>
</g>
<!-- st0.EntityRoomForeground&#45;&gt;st0.AnimateEntity -->
<g id="edge13" class="edge">
<title>st0.EntityRoomForeground&#45;&gt;st0.AnimateEntity</title>
<path fill="none" stroke="black" d="M3352.52,-181.98C3212.43,-148.68 2876.95,-68.96 2733.56,-34.88"/>
<polygon fill="black" stroke="black" points="2734.12,-31.41 2723.58,-32.51 2732.5,-38.23 2734.12,-31.41"/>
<text text-anchor="middle" x="3347.52" y="-170.78" font-family="Times,serif" font-size="14.00">1</text>
</g>
<!-- st0.EntitySoulStealOrb -->
<g id="node15" class="node">
<title>st0.EntitySoulStealOrb</title>
<g id="a_node15"><a xlink:href="st0.EntitySoulStealOrb.svg" xlink:title="st0.EntitySoulStealOrb">
<ellipse fill="green" stroke="black" cx="3690.74" cy="-198" rx="118.88" ry="18"/>
<text text-anchor="middle" x="3690.74" y="-194.3" font-family="Times,serif" font-size="14.00">st0.EntitySoulStealOrb</text>
</a>
</g>
</g>
<!-- st0.EntitySoulStealOrb&#45;&gt;st0.AnimateEntity -->
<g id="edge14" class="edge">
<title>st0.EntitySoulStealOrb&#45;&gt;st0.AnimateEntity</title>
<path fill="none" stroke="black" d="M3615.86,-183.98C3427.54,-151.25 2935.67,-65.75 2744.4,-32.5"/>
<polygon fill="black" stroke="black" points="2744.88,-29.03 2734.43,-30.77 2743.68,-35.93 2744.88,-29.03"/>
<text text-anchor="middle" x="3610.86" y="-172.78" font-family="Times,serif" font-size="14.00">1</text>
</g>
<!-- st0.InitializeUnkEntity -->
<g id="node16" class="node">
<title>st0.InitializeUnkEntity</title>
<g id="a_node16"><a xlink:href="st0.InitializeUnkEntity.svg" xlink:title="st0.InitializeUnkEntity">
<ellipse fill="green" stroke="black" cx="3943.74" cy="-198" rx="116.18" ry="18"/>
<text text-anchor="middle" x="3943.74" y="-194.3" font-family="Times,serif" font-size="14.00">st0.InitializeUnkEntity</text>
</a>
</g>
</g>
<!-- st0.InitializeUnkEntity&#45;&gt;st0.AnimateEntity -->
<g id="edge15" class="edge">
<title>st0.InitializeUnkEntity&#45;&gt;st0.AnimateEntity</title>
<path fill="none" stroke="black" d="M3860.44,-185.39C3629.62,-153.22 2983.53,-63.16 2751.25,-30.78"/>
<polygon fill="black" stroke="black" points="2751.56,-27.29 2741.17,-29.38 2750.59,-34.22 2751.56,-27.29"/>
<text text-anchor="middle" x="3855.44" y="-174.19" font-family="Times,serif" font-size="14.00">1</text>
</g>
<!-- st0.func_801A7D64 -->
<g id="node17" class="node">
<title>st0.func_801A7D64</title>
<g id="a_node17"><a xlink:href="st0.func_801A7D64.svg" xlink:title="st0.func_801A7D64">
<ellipse fill="green" stroke="black" cx="4179.74" cy="-198" rx="101.28" ry="18"/>
<text text-anchor="middle" x="4179.74" y="-194.3" font-family="Times,serif" font-size="14.00">st0.func_801A7D64</text>
</a>
</g>
</g>
<!-- st0.func_801A7D64&#45;&gt;st0.AnimateEntity -->
<g id="edge16" class="edge">
<title>st0.func_801A7D64&#45;&gt;st0.AnimateEntity</title>
<path fill="none" stroke="black" d="M4106.95,-185.45C4094.23,-183.55 4081.11,-181.66 4068.74,-180 3575.77,-113.97 2983.02,-51.42 2758.73,-28.35"/>
<polygon fill="black" stroke="black" points="2758.96,-24.86 2748.65,-27.32 2758.24,-31.82 2758.96,-24.86"/>
<text text-anchor="middle" x="4101.95" y="-174.25" font-family="Times,serif" font-size="14.00">1</text>
</g>
<!-- st0.func_801A805C -->
<g id="node18" class="node">
<title>st0.func_801A805C</title>
<g id="a_node18"><a xlink:href="st0.func_801A805C.svg" xlink:title="st0.func_801A805C">
<ellipse fill="green" stroke="black" cx="4399.74" cy="-198" rx="100.98" ry="18"/>
<text text-anchor="middle" x="4399.74" y="-194.3" font-family="Times,serif" font-size="14.00">st0.func_801A805C</text>
</a>
</g>
</g>
<!-- st0.func_801A805C&#45;&gt;st0.AnimateEntity -->
<g id="edge17" class="edge">
<title>st0.func_801A805C&#45;&gt;st0.AnimateEntity</title>
<path fill="none" stroke="black" d="M4327.93,-185.33C4315.22,-183.42 4302.1,-181.57 4289.74,-180 3711.71,-106.72 3014.31,-47.22 2762.9,-26.7"/>
<polygon fill="black" stroke="black" points="2762.96,-23.19 2752.7,-25.87 2762.39,-30.17 2762.96,-23.19"/>
<text text-anchor="middle" x="4322.93" y="-174.13" font-family="Times,serif" font-size="14.00">1</text>
</g>
<!-- st0.func_801AC458 -->
<g id="node19" class="node">
<title>st0.func_801AC458</title>
<g id="a_node19"><a xlink:href="st0.func_801AC458.svg" xlink:title="st0.func_801AC458">
<ellipse fill="green" stroke="black" cx="4618.74" cy="-198" rx="100.98" ry="18"/>
<text text-anchor="middle" x="4618.74" y="-194.3" font-family="Times,serif" font-size="14.00">st0.func_801AC458</text>
</a>
</g>
</g>
<!-- st0.func_801AC458&#45;&gt;st0.AnimateEntity -->
<g id="edge18" class="edge">
<title>st0.func_801AC458&#45;&gt;st0.AnimateEntity</title>
<path fill="none" stroke="black" d="M4547.6,-185.2C4535,-183.31 4522,-181.49 4509.74,-180 3845.6,-99.29 3042.06,-43.33 2765.67,-25.28"/>
<polygon fill="black" stroke="black" points="2765.88,-21.79 2755.67,-24.63 2765.42,-28.77 2765.88,-21.79"/>
<text text-anchor="middle" x="4542.6" y="-174" font-family="Times,serif" font-size="14.00">1</text>
</g>
<!-- st0.func_801AD838 -->
<g id="node20" class="node">
<title>st0.func_801AD838</title>
<g id="a_node20"><a xlink:href="st0.func_801AD838.svg" xlink:title="st0.func_801AD838">
<ellipse fill="green" stroke="black" cx="4838.74" cy="-198" rx="101.28" ry="18"/>
<text text-anchor="middle" x="4838.74" y="-194.3" font-family="Times,serif" font-size="14.00">st0.func_801AD838</text>
</a>
</g>
</g>
<!-- st0.func_801AD838&#45;&gt;st0.AnimateEntity -->
<g id="edge19" class="edge">
<title>st0.func_801AD838&#45;&gt;st0.AnimateEntity</title>
<path fill="none" stroke="black" d="M4767.25,-185.15C4754.45,-183.26 4741.22,-181.45 4728.74,-180 3978.14,-92.82 3068.19,-40.18 2768.09,-24.2"/>
<polygon fill="black" stroke="black" points="2767.85,-20.68 2757.67,-23.65 2767.48,-27.67 2767.85,-20.68"/>
<text text-anchor="middle" x="4762.25" y="-173.95" font-family="Times,serif" font-size="14.00">1</text>
</g>
</g>
</svg>
