<?xml version="1.0" encoding="UTF-8" standalone="no"?>
<!DOCTYPE svg PUBLIC "-//W3C//DTD SVG 1.1//EN"
 "http://www.w3.org/Graphics/SVG/1.1/DTD/svg11.dtd">
<!-- Generated by graphviz version 2.43.0 (0)
 -->
<!-- Title: st0.Random Pages: 1 -->
<svg width="3399pt" height="224pt"
 viewBox="0.00 0.00 3398.63 224.00" xmlns="http://www.w3.org/2000/svg" xmlns:xlink="http://www.w3.org/1999/xlink">
<g id="graph0" class="graph" transform="scale(1 1) rotate(0) translate(4 220)">
<title>st0.Random</title>
<polygon fill="white" stroke="transparent" points="-4,4 -4,-220 3394.63,-220 3394.63,4 -4,4"/>
<!-- st0.Random -->
<g id="node1" class="node">
<title>st0.Random</title>
<ellipse fill="green" stroke="black" cx="1848.94" cy="-18" rx="66.09" ry="18"/>
<text text-anchor="middle" x="1848.94" y="-14.3" font-family="Times,serif" font-size="14.00">st0.Random</text>
</g>
<!-- st0.EntityDracula -->
<g id="node2" class="node">
<title>st0.EntityDracula</title>
<g id="a_node2"><a xlink:href="st0.EntityDracula.svg" xlink:title="st0.EntityDracula">
<ellipse fill="green" stroke="black" cx="92.94" cy="-198" rx="92.88" ry="18"/>
<text text-anchor="middle" x="92.94" y="-194.3" font-family="Times,serif" font-size="14.00">st0.EntityDracula</text>
</a>
</g>
</g>
<!-- st0.EntityDracula&#45;&gt;st0.Random -->
<g id="edge1" class="edge">
<title>st0.EntityDracula&#45;&gt;st0.Random</title>
<path fill="none" stroke="black" d="M158.96,-185.32C170.91,-183.4 183.28,-181.54 194.94,-180 803.73,-99.73 1543.5,-41.65 1775.65,-24.34"/>
<polygon fill="black" stroke="black" points="1775.96,-27.83 1785.67,-23.6 1775.44,-20.85 1775.96,-27.83"/>
<text text-anchor="middle" x="153.96" y="-174.12" font-family="Times,serif" font-size="14.00">1</text>
</g>
<!-- st0.EntityDraculaFinalForm -->
<g id="node3" class="node">
<title>st0.EntityDraculaFinalForm</title>
<g id="a_node3"><a xlink:href="st0.EntityDraculaFinalForm.svg" xlink:title="st0.EntityDraculaFinalForm">
<ellipse fill="green" stroke="black" cx="344.94" cy="-198" rx="141.07" ry="18"/>
<text text-anchor="middle" x="344.94" y="-194.3" font-family="Times,serif" font-size="14.00">st0.EntityDraculaFinalForm</text>
</a>
</g>
</g>
<!-- st0.EntityDraculaFinalForm&#45;&gt;st0.Random -->
<g id="edge2" class="edge">
<title>st0.EntityDraculaFinalForm&#45;&gt;st0.Random</title>
<path fill="none" stroke="black" d="M444.5,-185.22C728.32,-151.63 1536.67,-55.96 1779.27,-27.25"/>
<polygon fill="black" stroke="black" points="1779.85,-30.7 1789.37,-26.05 1779.03,-23.75 1779.85,-30.7"/>
<text text-anchor="middle" x="439.5" y="-174.02" font-family="Times,serif" font-size="14.00">5</text>
</g>
<!-- st0.EntityDraculaGlass -->
<g id="node4" class="node">
<title>st0.EntityDraculaGlass</title>
<g id="a_node4"><a xlink:href="st0.EntityDraculaGlass.svg" xlink:title="st0.EntityDraculaGlass">
<ellipse fill="green" stroke="black" cx="621.94" cy="-198" rx="118.08" ry="18"/>
<text text-anchor="middle" x="621.94" y="-194.3" font-family="Times,serif" font-size="14.00">st0.EntityDraculaGlass</text>
</a>
</g>
</g>
<!-- st0.EntityDraculaGlass&#45;&gt;st0.Random -->
<g id="edge3" class="edge">
<title>st0.EntityDraculaGlass&#45;&gt;st0.Random</title>
<path fill="none" stroke="black" d="M704.35,-185.04C933.13,-151.86 1572.95,-59.04 1781.96,-28.72"/>
<polygon fill="black" stroke="black" points="1782.48,-32.18 1791.88,-27.28 1781.48,-25.25 1782.48,-32.18"/>
<text text-anchor="middle" x="699.35" y="-173.84" font-family="Times,serif" font-size="14.00">2</text>
</g>
<!-- st0.EntityDraculaMeteorball -->
<g id="node5" class="node">
<title>st0.EntityDraculaMeteorball</title>
<g id="a_node5"><a xlink:href="st0.EntityDraculaMeteorball.svg" xlink:title="st0.EntityDraculaMeteorball">
<ellipse fill="green" stroke="black" cx="901.94" cy="-198" rx="143.77" ry="18"/>
<text text-anchor="middle" x="901.94" y="-194.3" font-family="Times,serif" font-size="14.00">st0.EntityDraculaMeteorball</text>
</a>
</g>
</g>
<!-- st0.EntityDraculaMeteorball&#45;&gt;st0.Random -->
<g id="edge4" class="edge">
<title>st0.EntityDraculaMeteorball&#45;&gt;st0.Random</title>
<path fill="none" stroke="black" d="M978.24,-182.66C1160.47,-148.41 1618.37,-62.34 1786.11,-30.81"/>
<polygon fill="black" stroke="black" points="1786.84,-34.23 1796.02,-28.95 1785.54,-27.36 1786.84,-34.23"/>
<text text-anchor="middle" x="973.24" y="-171.46" font-family="Times,serif" font-size="14.00">1</text>
</g>
<!-- st0.EntityDraculaRainAttack -->
<g id="node6" class="node">
<title>st0.EntityDraculaRainAttack</title>
<g id="a_node6"><a xlink:href="st0.EntityDraculaRainAttack.svg" xlink:title="st0.EntityDraculaRainAttack">
<ellipse fill="green" stroke="black" cx="1206.94" cy="-198" rx="143.77" ry="18"/>
<text text-anchor="middle" x="1206.94" y="-194.3" font-family="Times,serif" font-size="14.00">st0.EntityDraculaRainAttack</text>
</a>
</g>
</g>
<!-- st0.EntityDraculaRainAttack&#45;&gt;st0.Random -->
<g id="edge5" class="edge">
<title>st0.EntityDraculaRainAttack&#45;&gt;st0.Random</title>
<path fill="none" stroke="black" d="M1263.35,-181.36C1385.67,-147.45 1673.97,-67.51 1794.49,-34.1"/>
<polygon fill="black" stroke="black" points="1795.55,-37.44 1804.25,-31.39 1793.68,-30.69 1795.55,-37.44"/>
<text text-anchor="middle" x="1258.35" y="-170.16" font-family="Times,serif" font-size="14.00">2</text>
</g>
<!-- st0.EntityEnemyBlood -->
<g id="node7" class="node">
<title>st0.EntityEnemyBlood</title>
<g id="a_node7"><a xlink:href="st0.EntityEnemyBlood.svg" xlink:title="st0.EntityEnemyBlood">
<ellipse fill="green" stroke="black" cx="1483.94" cy="-198" rx="115.88" ry="18"/>
<text text-anchor="middle" x="1483.94" y="-194.3" font-family="Times,serif" font-size="14.00">st0.EntityEnemyBlood</text>
</a>
</g>
</g>
<!-- st0.EntityEnemyBlood&#45;&gt;st0.Random -->
<g id="edge6" class="edge">
<title>st0.EntityEnemyBlood&#45;&gt;st0.Random</title>
<path fill="none" stroke="black" d="M1517.3,-180.73C1584.59,-147.92 1736.31,-73.93 1808.85,-38.55"/>
<polygon fill="black" stroke="black" points="1810.67,-41.56 1818.13,-34.03 1807.6,-35.27 1810.67,-41.56"/>
<text text-anchor="middle" x="1512.3" y="-169.53" font-family="Times,serif" font-size="14.00">5</text>
</g>
<!-- st0.EntitySoulStealOrb -->
<g id="node8" class="node">
<title>st0.EntitySoulStealOrb</title>
<g id="a_node8"><a xlink:href="st0.EntitySoulStealOrb.svg" xlink:title="st0.EntitySoulStealOrb">
<ellipse fill="green" stroke="black" cx="1736.94" cy="-198" rx="118.88" ry="18"/>
<text text-anchor="middle" x="1736.94" y="-194.3" font-family="Times,serif" font-size="14.00">st0.EntitySoulStealOrb</text>
</a>
</g>
</g>
<!-- st0.EntitySoulStealOrb&#45;&gt;st0.Random -->
<g id="edge7" class="edge">
<title>st0.EntitySoulStealOrb&#45;&gt;st0.Random</title>
<path fill="none" stroke="black" d="M1747.68,-179.93C1767.42,-148.57 1809.55,-81.6 1832.77,-44.71"/>
<polygon fill="black" stroke="black" points="1835.87,-46.34 1838.24,-36.02 1829.95,-42.62 1835.87,-46.34"/>
<text text-anchor="middle" x="1742.68" y="-168.73" font-family="Times,serif" font-size="14.00">2</text>
</g>
<!-- st0.HitDetection -->
<g id="node9" class="node">
<title>st0.HitDetection</title>
<g id="a_node9"><a xlink:href="st0.HitDetection.svg" xlink:title="st0.HitDetection">
<ellipse fill="green" stroke="black" cx="1961.94" cy="-198" rx="87.99" ry="18"/>
<text text-anchor="middle" x="1961.94" y="-194.3" font-family="Times,serif" font-size="14.00">st0.HitDetection</text>
</a>
</g>
</g>
<!-- st0.HitDetection&#45;&gt;st0.Random -->
<g id="edge8" class="edge">
<title>st0.HitDetection&#45;&gt;st0.Random</title>
<path fill="none" stroke="black" d="M1951.11,-179.93C1931.2,-148.57 1888.68,-81.6 1865.26,-44.71"/>
<polygon fill="black" stroke="black" points="1868.06,-42.58 1859.74,-36.02 1862.15,-46.33 1868.06,-42.58"/>
<text text-anchor="middle" x="1946.11" y="-168.73" font-family="Times,serif" font-size="14.00">2</text>
</g>
<!-- st0.InitRoomEntities -->
<g id="node10" class="node">
<title>st0.InitRoomEntities</title>
<g id="a_node10"><a xlink:href="st0.InitRoomEntities.svg" xlink:title="st0.InitRoomEntities">
<ellipse fill="green" stroke="black" cx="2174.94" cy="-198" rx="107.48" ry="18"/>
<text text-anchor="middle" x="2174.94" y="-194.3" font-family="Times,serif" font-size="14.00">st0.InitRoomEntities</text>
</a>
</g>
</g>
<!-- st0.InitRoomEntities&#45;&gt;st0.Random -->
<g id="edge9" class="edge">
<title>st0.InitRoomEntities&#45;&gt;st0.Random</title>
<path fill="none" stroke="black" d="M2144.86,-180.57C2085.06,-147.92 1951.43,-74.96 1886.2,-39.34"/>
<polygon fill="black" stroke="black" points="1887.54,-36.09 1877.09,-34.37 1884.19,-42.23 1887.54,-36.09"/>
<text text-anchor="middle" x="2139.86" y="-169.37" font-family="Times,serif" font-size="14.00">1</text>
</g>
<!-- st0.func_801A8328 -->
<g id="node11" class="node">
<title>st0.func_801A8328</title>
<g id="a_node11"><a xlink:href="st0.func_801A8328.svg" xlink:title="st0.func_801A8328">
<ellipse fill="green" stroke="black" cx="2399.94" cy="-198" rx="100.18" ry="18"/>
<text text-anchor="middle" x="2399.94" y="-194.3" font-family="Times,serif" font-size="14.00">st0.func_801A8328</text>
</a>
</g>
</g>
<!-- st0.func_801A8328&#45;&gt;st0.Random -->
<g id="edge10" class="edge">
<title>st0.func_801A8328&#45;&gt;st0.Random</title>
<path fill="none" stroke="black" d="M2353.44,-181.98C2250.79,-148.82 2005.53,-69.58 1899.36,-35.29"/>
<polygon fill="black" stroke="black" points="1900.42,-31.95 1889.83,-32.21 1898.27,-38.61 1900.42,-31.95"/>
<text text-anchor="middle" x="2348.44" y="-170.78" font-family="Times,serif" font-size="14.00">2</text>
</g>
<!-- st0.func_801ABBBC -->
<g id="node12" class="node">
<title>st0.func_801ABBBC</title>
<g id="a_node12"><a xlink:href="st0.func_801ABBBC.svg" xlink:title="st0.func_801ABBBC">
<ellipse fill="green" stroke="black" cx="2621.94" cy="-198" rx="103.98" ry="18"/>
<text text-anchor="middle" x="2621.94" y="-194.3" font-family="Times,serif" font-size="14.00">st0.func_801ABBBC</text>
</a>
</g>
</g>
<!-- st0.func_801ABBBC&#45;&gt;st0.Random -->
<g id="edge11" class="edge">
<title>st0.func_801ABBBC&#45;&gt;st0.Random</title>
<path fill="none" stroke="black" d="M2562.25,-183.25C2417.87,-150.01 2051.11,-65.55 1907.69,-32.53"/>
<polygon fill="black" stroke="black" points="1908.29,-29.07 1897.76,-30.24 1906.72,-35.9 1908.29,-29.07"/>
<text text-anchor="middle" x="2557.25" y="-172.05" font-family="Times,serif" font-size="14.00">2</text>
</g>
<!-- st0.func_801B4AF0 -->
<g id="node13" class="node">
<title>st0.func_801B4AF0</title>
<g id="a_node13"><a xlink:href="st0.func_801B4AF0.svg" xlink:title="st0.func_801B4AF0">
<ellipse fill="green" stroke="black" cx="2844.94" cy="-198" rx="101.28" ry="18"/>
<text text-anchor="middle" x="2844.94" y="-194.3" font-family="Times,serif" font-size="14.00">st0.func_801B4AF0</text>
</a>
</g>
</g>
<!-- st0.func_801B4AF0&#45;&gt;st0.Random -->
<g id="edge12" class="edge">
<title>st0.func_801B4AF0&#45;&gt;st0.Random</title>
<path fill="none" stroke="black" d="M2776.09,-184.7C2592.08,-151.81 2090.81,-62.23 1912.75,-30.4"/>
<polygon fill="black" stroke="black" points="1913.21,-26.93 1902.75,-28.62 1911.98,-33.82 1913.21,-26.93"/>
<text text-anchor="middle" x="2771.09" y="-173.5" font-family="Times,serif" font-size="14.00">1</text>
</g>
<!-- st0.func_801B8C48 -->
<g id="node14" class="node">
<title>st0.func_801B8C48</title>
<g id="a_node14"><a xlink:href="st0.func_801B8C48.svg" xlink:title="st0.func_801B8C48">
<ellipse fill="green" stroke="black" cx="3065.94" cy="-198" rx="101.28" ry="18"/>
<text text-anchor="middle" x="3065.94" y="-194.3" font-family="Times,serif" font-size="14.00">st0.func_801B8C48</text>
</a>
</g>
</g>
<!-- st0.func_801B8C48&#45;&gt;st0.Random -->
<g id="edge13" class="edge">
<title>st0.func_801B8C48&#45;&gt;st0.Random</title>
<path fill="none" stroke="black" d="M2992.21,-185.63C2979.78,-183.73 2966.99,-181.8 2954.94,-180 2561.45,-121.23 2088.78,-53.32 1916.19,-28.61"/>
<polygon fill="black" stroke="black" points="1916.63,-25.14 1906.24,-27.19 1915.64,-32.07 1916.63,-25.14"/>
<text text-anchor="middle" x="2987.21" y="-174.43" font-family="Times,serif" font-size="14.00">2</text>
</g>
<!-- st0.func_801BD8F0 -->
<g id="node15" class="node">
<title>st0.func_801BD8F0</title>
<g id="a_node15"><a xlink:href="st0.func_801BD8F0.svg" xlink:title="st0.func_801BD8F0">
<ellipse fill="red" stroke="black" cx="3287.94" cy="-198" rx="102.88" ry="18"/>
<text text-anchor="middle" x="3287.94" y="-194.3" font-family="Times,serif" font-size="14.00">st0.func_801BD8F0</text>
</a>
</g>
</g>
<!-- st0.func_801BD8F0&#45;&gt;st0.Random -->
<g id="edge14" class="edge">
<title>st0.func_801BD8F0&#45;&gt;st0.Random</title>
<path fill="none" stroke="black" d="M3213.88,-185.44C3201.24,-183.56 3188.22,-181.68 3175.94,-180 2696.24,-114.51 2117.11,-48.84 1919.18,-26.77"/>
<polygon fill="black" stroke="black" points="1919.53,-23.29 1909.2,-25.66 1918.75,-30.25 1919.53,-23.29"/>
<text text-anchor="middle" x="3208.88" y="-174.24" font-family="Times,serif" font-size="14.00">1</text>
</g>
</g>
</svg>
