<?xml version="1.0" encoding="UTF-8" standalone="no"?>
<!DOCTYPE svg PUBLIC "-//W3C//DTD SVG 1.1//EN"
 "http://www.w3.org/Graphics/SVG/1.1/DTD/svg11.dtd">
<!-- Generated by graphviz version 2.43.0 (0)
 -->
<!-- Title: st0.EntityClouds Pages: 1 -->
<svg width="1352pt" height="224pt"
 viewBox="0.00 0.00 1352.34 224.00" xmlns="http://www.w3.org/2000/svg" xmlns:xlink="http://www.w3.org/1999/xlink">
<g id="graph0" class="graph" transform="scale(1 1) rotate(0) translate(4 220)">
<title>st0.EntityClouds</title>
<polygon fill="white" stroke="transparent" points="-4,4 -4,-220 1348.34,-220 1348.34,4 -4,4"/>
<!-- st0.EntityClouds -->
<g id="node1" class="node">
<title>st0.EntityClouds</title>
<ellipse fill="red" stroke="black" cx="590.84" cy="-198" rx="89.08" ry="18"/>
<text text-anchor="middle" x="590.84" y="-194.3" font-family="Times,serif" font-size="14.00">st0.EntityClouds</text>
</g>
<!-- RotMatrix -->
<g id="node2" class="node">
<title>RotMatrix</title>
<g id="a_node2"><a xlink:href="RotMatrix.svg" xlink:title="RotMatrix">
<ellipse fill="lightblue" stroke="black" cx="57.84" cy="-18" rx="57.69" ry="18"/>
<text text-anchor="middle" x="57.84" y="-14.3" font-family="Times,serif" font-size="14.00">RotMatrix</text>
</a>
</g>
</g>
<!-- st0.EntityClouds&#45;&gt;RotMatrix -->
<g id="edge1" class="edge">
<title>st0.EntityClouds&#45;&gt;RotMatrix</title>
<path fill="none" stroke="black" d="M546.77,-182.28C447.69,-149.19 208.01,-69.15 105.57,-34.94"/>
<polygon fill="black" stroke="black" points="106.39,-31.52 95.8,-31.68 104.18,-38.16 106.39,-31.52"/>
<text text-anchor="middle" x="90.8" y="-35.48" font-family="Times,serif" font-size="14.00">1</text>
</g>
<!-- SetGeomScreen -->
<g id="node3" class="node">
<title>SetGeomScreen</title>
<g id="a_node3"><a xlink:href="SetGeomScreen.svg" xlink:title="SetGeomScreen">
<ellipse fill="lightblue" stroke="black" cx="218.84" cy="-18" rx="85.29" ry="18"/>
<text text-anchor="middle" x="218.84" y="-14.3" font-family="Times,serif" font-size="14.00">SetGeomScreen</text>
</a>
</g>
</g>
<!-- st0.EntityClouds&#45;&gt;SetGeomScreen -->
<g id="edge2" class="edge">
<title>st0.EntityClouds&#45;&gt;SetGeomScreen</title>
<path fill="none" stroke="black" d="M557.83,-181.2C490.05,-148.77 335.29,-74.72 260.64,-39"/>
<polygon fill="black" stroke="black" points="262.05,-35.79 251.52,-34.63 259.03,-42.11 262.05,-35.79"/>
<text text-anchor="middle" x="246.52" y="-38.43" font-family="Times,serif" font-size="14.00">1</text>
</g>
<!-- SetRotMatrix -->
<g id="node4" class="node">
<title>SetRotMatrix</title>
<g id="a_node4"><a xlink:href="SetRotMatrix.svg" xlink:title="SetRotMatrix">
<ellipse fill="lightblue" stroke="black" cx="395.84" cy="-18" rx="73.39" ry="18"/>
<text text-anchor="middle" x="395.84" y="-14.3" font-family="Times,serif" font-size="14.00">SetRotMatrix</text>
</a>
</g>
</g>
<!-- st0.EntityClouds&#45;&gt;SetRotMatrix -->
<g id="edge3" class="edge">
<title>st0.EntityClouds&#45;&gt;SetRotMatrix</title>
<path fill="none" stroke="black" d="M572.5,-180.25C537.57,-148.37 461.43,-78.87 421.48,-42.4"/>
<polygon fill="black" stroke="black" points="423.74,-39.73 414,-35.57 419.03,-44.9 423.74,-39.73"/>
<text text-anchor="middle" x="409" y="-39.37" font-family="Times,serif" font-size="14.00">1</text>
</g>
<!-- dra.func_800EDB58 -->
<g id="node5" class="node">
<title>dra.func_800EDB58</title>
<g id="a_node5"><a xlink:href="dra.func_800EDB58.svg" xlink:title="dra.func_800EDB58">
<ellipse fill="green" stroke="black" cx="590.84" cy="-18" rx="103.98" ry="18"/>
<text text-anchor="middle" x="590.84" y="-14.3" font-family="Times,serif" font-size="14.00">dra.func_800EDB58</text>
</a>
</g>
</g>
<!-- st0.EntityClouds&#45;&gt;dra.func_800EDB58 -->
<g id="edge4" class="edge">
<title>st0.EntityClouds&#45;&gt;dra.func_800EDB58</title>
<path fill="none" stroke="black" d="M590.84,-179.93C590.84,-148.97 590.84,-83.3 590.84,-46.13"/>
<polygon fill="black" stroke="black" points="594.34,-46.02 590.84,-36.02 587.34,-46.02 594.34,-46.02"/>
<text text-anchor="middle" x="585.84" y="-39.82" font-family="Times,serif" font-size="14.00">1</text>
</g>
<!-- main.SetGeomOffset -->
<g id="node6" class="node">
<title>main.SetGeomOffset</title>
<g id="a_node6"><a xlink:href="main.SetGeomOffset.svg" xlink:title="main.SetGeomOffset">
<ellipse fill="red" stroke="black" cx="819.84" cy="-18" rx="106.68" ry="18"/>
<text text-anchor="middle" x="819.84" y="-14.3" font-family="Times,serif" font-size="14.00">main.SetGeomOffset</text>
</a>
</g>
</g>
<!-- st0.EntityClouds&#45;&gt;main.SetGeomOffset -->
<g id="edge5" class="edge">
<title>st0.EntityClouds&#45;&gt;main.SetGeomOffset</title>
<path fill="none" stroke="black" d="M612.39,-180.25C653.56,-148.25 743.48,-78.36 790.25,-42"/>
<polygon fill="black" stroke="black" points="792.44,-44.73 798.19,-35.83 788.15,-39.2 792.44,-44.73"/>
<text text-anchor="middle" x="793.19" y="-39.63" font-family="Times,serif" font-size="14.00">1</text>
</g>
<!-- st0.DestroyEntity -->
<g id="node7" class="node">
<title>st0.DestroyEntity</title>
<g id="a_node7"><a xlink:href="st0.DestroyEntity.svg" xlink:title="st0.DestroyEntity">
<ellipse fill="green" stroke="black" cx="1037.84" cy="-18" rx="93.68" ry="18"/>
<text text-anchor="middle" x="1037.84" y="-14.3" font-family="Times,serif" font-size="14.00">st0.DestroyEntity</text>
</a>
</g>
</g>
<!-- st0.EntityClouds&#45;&gt;st0.DestroyEntity -->
<g id="edge6" class="edge">
<title>st0.EntityClouds&#45;&gt;st0.DestroyEntity</title>
<path fill="none" stroke="black" d="M629.34,-181.67C710.77,-149.25 900.27,-73.78 989.61,-38.21"/>
<polygon fill="black" stroke="black" points="990.97,-41.43 998.96,-34.48 988.38,-34.93 990.97,-41.43"/>
<text text-anchor="middle" x="993.96" y="-38.28" font-family="Times,serif" font-size="14.00">1</text>
</g>
<!-- st0.InitializeEntity -->
<g id="node8" class="node">
<title>st0.InitializeEntity</title>
<g id="a_node8"><a xlink:href="st0.InitializeEntity.svg" xlink:title="st0.InitializeEntity">
<ellipse fill="green" stroke="black" cx="1246.84" cy="-18" rx="97.48" ry="18"/>
<text text-anchor="middle" x="1246.84" y="-14.3" font-family="Times,serif" font-size="14.00">st0.InitializeEntity</text>
</a>
</g>
</g>
<!-- st0.EntityClouds&#45;&gt;st0.InitializeEntity -->
<g id="edge7" class="edge">
<title>st0.EntityClouds&#45;&gt;st0.InitializeEntity</title>
<path fill="none" stroke="black" d="M641.77,-183.18C760.45,-150.98 1055.1,-71.03 1184.37,-35.95"/>
<polygon fill="black" stroke="black" points="1185.39,-39.3 1194.13,-33.3 1183.56,-32.55 1185.39,-39.3"/>
<text text-anchor="middle" x="1189.13" y="-37.1" font-family="Times,serif" font-size="14.00">1</text>
</g>
</g>
</svg>
