<?xml version="1.0" encoding="UTF-8" standalone="no"?>
<!DOCTYPE svg PUBLIC "-//W3C//DTD SVG 1.1//EN"
 "http://www.w3.org/Graphics/SVG/1.1/DTD/svg11.dtd">
<!-- Generated by graphviz version 2.43.0 (0)
 -->
<!-- Title: st0.MoveEntity Pages: 1 -->
<svg width="5608pt" height="224pt"
 viewBox="0.00 0.00 5608.13 224.00" xmlns="http://www.w3.org/2000/svg" xmlns:xlink="http://www.w3.org/1999/xlink">
<g id="graph0" class="graph" transform="scale(1 1) rotate(0) translate(4 220)">
<title>st0.MoveEntity</title>
<polygon fill="white" stroke="transparent" points="-4,4 -4,-220 5604.13,-220 5604.13,4 -4,4"/>
<!-- st0.MoveEntity -->
<g id="node1" class="node">
<title>st0.MoveEntity</title>
<ellipse fill="green" stroke="black" cx="3037.74" cy="-18" rx="82.59" ry="18"/>
<text text-anchor="middle" x="3037.74" y="-14.3" font-family="Times,serif" font-size="14.00">st0.MoveEntity</text>
</g>
<!-- st0.EntityBigRedFireball -->
<g id="node2" class="node">
<title>st0.EntityBigRedFireball</title>
<g id="a_node2"><a xlink:href="st0.EntityBigRedFireball.svg" xlink:title="st0.EntityBigRedFireball">
<ellipse fill="green" stroke="black" cx="126.74" cy="-198" rx="126.98" ry="18"/>
<text text-anchor="middle" x="126.74" y="-194.3" font-family="Times,serif" font-size="14.00">st0.EntityBigRedFireball</text>
</a>
</g>
</g>
<!-- st0.EntityBigRedFireball&#45;&gt;st0.MoveEntity -->
<g id="edge1" class="edge">
<title>st0.EntityBigRedFireball&#45;&gt;st0.MoveEntity</title>
<path fill="none" stroke="black" d="M215.17,-185.08C230.99,-183.2 247.34,-181.41 262.74,-180 1315.34,-83.78 2598.11,-34.35 2946.68,-22.08"/>
<polygon fill="black" stroke="black" points="2946.85,-25.58 2956.72,-21.73 2946.6,-18.58 2946.85,-25.58"/>
<text text-anchor="middle" x="210.17" y="-173.88" font-family="Times,serif" font-size="14.00">1</text>
</g>
<!-- st0.EntityDraculaFinalForm -->
<g id="node3" class="node">
<title>st0.EntityDraculaFinalForm</title>
<g id="a_node3"><a xlink:href="st0.EntityDraculaFinalForm.svg" xlink:title="st0.EntityDraculaFinalForm">
<ellipse fill="green" stroke="black" cx="412.74" cy="-198" rx="141.07" ry="18"/>
<text text-anchor="middle" x="412.74" y="-194.3" font-family="Times,serif" font-size="14.00">st0.EntityDraculaFinalForm</text>
</a>
</g>
</g>
<!-- st0.EntityDraculaFinalForm&#45;&gt;st0.MoveEntity -->
<g id="edge2" class="edge">
<title>st0.EntityDraculaFinalForm&#45;&gt;st0.MoveEntity</title>
<path fill="none" stroke="black" d="M511.51,-185.13C528.58,-183.27 546.16,-181.48 562.74,-180 1493.52,-97.03 2624.84,-39.03 2947.8,-23.29"/>
<polygon fill="black" stroke="black" points="2948.22,-26.77 2958.03,-22.79 2947.87,-19.78 2948.22,-26.77"/>
<text text-anchor="middle" x="506.51" y="-173.93" font-family="Times,serif" font-size="14.00">4</text>
</g>
<!-- st0.EntityDraculaFireball -->
<g id="node4" class="node">
<title>st0.EntityDraculaFireball</title>
<g id="a_node4"><a xlink:href="st0.EntityDraculaFireball.svg" xlink:title="st0.EntityDraculaFireball">
<ellipse fill="green" stroke="black" cx="700.74" cy="-198" rx="129.18" ry="18"/>
<text text-anchor="middle" x="700.74" y="-194.3" font-family="Times,serif" font-size="14.00">st0.EntityDraculaFireball</text>
</a>
</g>
</g>
<!-- st0.EntityDraculaFireball&#45;&gt;st0.MoveEntity -->
<g id="edge3" class="edge">
<title>st0.EntityDraculaFireball&#45;&gt;st0.MoveEntity</title>
<path fill="none" stroke="black" d="M791.89,-185.21C807.82,-183.33 824.25,-181.51 839.74,-180 1657.34,-100.11 2649.59,-40.98 2948.43,-23.98"/>
<polygon fill="black" stroke="black" points="2948.98,-27.45 2958.77,-23.39 2948.59,-20.47 2948.98,-27.45"/>
<text text-anchor="middle" x="786.89" y="-174.01" font-family="Times,serif" font-size="14.00">1</text>
</g>
<!-- st0.EntityDraculaGlass -->
<g id="node5" class="node">
<title>st0.EntityDraculaGlass</title>
<g id="a_node5"><a xlink:href="st0.EntityDraculaGlass.svg" xlink:title="st0.EntityDraculaGlass">
<ellipse fill="green" stroke="black" cx="966.74" cy="-198" rx="118.08" ry="18"/>
<text text-anchor="middle" x="966.74" y="-194.3" font-family="Times,serif" font-size="14.00">st0.EntityDraculaGlass</text>
</a>
</g>
</g>
<!-- st0.EntityDraculaGlass&#45;&gt;st0.MoveEntity -->
<g id="edge4" class="edge">
<title>st0.EntityDraculaGlass&#45;&gt;st0.MoveEntity</title>
<path fill="none" stroke="black" d="M1050.67,-185.25C1065.34,-183.37 1080.47,-181.54 1094.74,-180 1809.1,-103.01 2674.69,-43 2949.56,-24.75"/>
<polygon fill="black" stroke="black" points="2950.12,-28.22 2959.87,-24.07 2949.66,-21.24 2950.12,-28.22"/>
<text text-anchor="middle" x="1045.67" y="-174.05" font-family="Times,serif" font-size="14.00">2</text>
</g>
<!-- st0.EntityDraculaMegaFireball -->
<g id="node6" class="node">
<title>st0.EntityDraculaMegaFireball</title>
<g id="a_node6"><a xlink:href="st0.EntityDraculaMegaFireball.svg" xlink:title="st0.EntityDraculaMegaFireball">
<ellipse fill="green" stroke="black" cx="1258.74" cy="-198" rx="155.17" ry="18"/>
<text text-anchor="middle" x="1258.74" y="-194.3" font-family="Times,serif" font-size="14.00">st0.EntityDraculaMegaFireball</text>
</a>
</g>
</g>
<!-- st0.EntityDraculaMegaFireball&#45;&gt;st0.MoveEntity -->
<g id="edge5" class="edge">
<title>st0.EntityDraculaMegaFireball&#45;&gt;st0.MoveEntity</title>
<path fill="none" stroke="black" d="M1369.89,-185.42C1387.57,-183.59 1405.65,-181.74 1422.74,-180 2008.96,-120.4 2715.11,-50.74 2954.08,-27.22"/>
<polygon fill="black" stroke="black" points="2954.48,-30.7 2964.09,-26.24 2953.79,-23.73 2954.48,-30.7"/>
<text text-anchor="middle" x="1364.89" y="-174.22" font-family="Times,serif" font-size="14.00">1</text>
</g>
<!-- st0.EntityDraculaMeteorball -->
<g id="node7" class="node">
<title>st0.EntityDraculaMeteorball</title>
<g id="a_node7"><a xlink:href="st0.EntityDraculaMeteorball.svg" xlink:title="st0.EntityDraculaMeteorball">
<ellipse fill="green" stroke="black" cx="1575.74" cy="-198" rx="143.77" ry="18"/>
<text text-anchor="middle" x="1575.74" y="-194.3" font-family="Times,serif" font-size="14.00">st0.EntityDraculaMeteorball</text>
</a>
</g>
</g>
<!-- st0.EntityDraculaMeteorball&#45;&gt;st0.MoveEntity -->
<g id="edge6" class="edge">
<title>st0.EntityDraculaMeteorball&#45;&gt;st0.MoveEntity</title>
<path fill="none" stroke="black" d="M1674.79,-184.94C1947.9,-151.69 2707.9,-59.16 2957.31,-28.79"/>
<polygon fill="black" stroke="black" points="2957.89,-32.25 2967.39,-27.57 2957.04,-25.3 2957.89,-32.25"/>
<text text-anchor="middle" x="1669.79" y="-173.74" font-family="Times,serif" font-size="14.00">1</text>
</g>
<!-- st0.EntityDraculaRainAttack -->
<g id="node8" class="node">
<title>st0.EntityDraculaRainAttack</title>
<g id="a_node8"><a xlink:href="st0.EntityDraculaRainAttack.svg" xlink:title="st0.EntityDraculaRainAttack">
<ellipse fill="green" stroke="black" cx="1880.74" cy="-198" rx="143.77" ry="18"/>
<text text-anchor="middle" x="1880.74" y="-194.3" font-family="Times,serif" font-size="14.00">st0.EntityDraculaRainAttack</text>
</a>
</g>
</g>
<!-- st0.EntityDraculaRainAttack&#45;&gt;st0.MoveEntity -->
<g id="edge7" class="edge">
<title>st0.EntityDraculaRainAttack&#45;&gt;st0.MoveEntity</title>
<path fill="none" stroke="black" d="M1967.7,-183.62C2186.44,-149.97 2756.69,-62.24 2962.38,-30.59"/>
<polygon fill="black" stroke="black" points="2963.13,-34.02 2972.48,-29.04 2962.07,-27.1 2963.13,-34.02"/>
<text text-anchor="middle" x="1962.7" y="-172.42" font-family="Times,serif" font-size="14.00">2</text>
</g>
<!-- st0.EntityEnemyBlood -->
<g id="node9" class="node">
<title>st0.EntityEnemyBlood</title>
<g id="a_node9"><a xlink:href="st0.EntityEnemyBlood.svg" xlink:title="st0.EntityEnemyBlood">
<ellipse fill="green" stroke="black" cx="2157.74" cy="-198" rx="115.88" ry="18"/>
<text text-anchor="middle" x="2157.74" y="-194.3" font-family="Times,serif" font-size="14.00">st0.EntityEnemyBlood</text>
</a>
</g>
</g>
<!-- st0.EntityEnemyBlood&#45;&gt;st0.MoveEntity -->
<g id="edge8" class="edge">
<title>st0.EntityEnemyBlood&#45;&gt;st0.MoveEntity</title>
<path fill="none" stroke="black" d="M2225.33,-183.33C2388.93,-150.24 2804.83,-66.11 2969.3,-32.84"/>
<polygon fill="black" stroke="black" points="2970.19,-36.23 2979.29,-30.82 2968.8,-29.37 2970.19,-36.23"/>
<text text-anchor="middle" x="2220.33" y="-172.13" font-family="Times,serif" font-size="14.00">1</text>
</g>
<!-- st0.EntityEquipItemDrop -->
<g id="node10" class="node">
<title>st0.EntityEquipItemDrop</title>
<g id="a_node10"><a xlink:href="st0.EntityEquipItemDrop.svg" xlink:title="st0.EntityEquipItemDrop">
<ellipse fill="green" stroke="black" cx="2419.74" cy="-198" rx="128.88" ry="18"/>
<text text-anchor="middle" x="2419.74" y="-194.3" font-family="Times,serif" font-size="14.00">st0.EntityEquipItemDrop</text>
</a>
</g>
</g>
<!-- st0.EntityEquipItemDrop&#45;&gt;st0.MoveEntity -->
<g id="edge9" class="edge">
<title>st0.EntityEquipItemDrop&#45;&gt;st0.MoveEntity</title>
<path fill="none" stroke="black" d="M2473.23,-181.59C2588.88,-148.28 2861.34,-69.81 2980.39,-35.52"/>
<polygon fill="black" stroke="black" points="2981.42,-38.86 2990.06,-32.73 2979.48,-32.14 2981.42,-38.86"/>
<text text-anchor="middle" x="2468.23" y="-170.39" font-family="Times,serif" font-size="14.00">1</text>
</g>
<!-- st0.EntityPrizeDrop -->
<g id="node11" class="node">
<title>st0.EntityPrizeDrop</title>
<g id="a_node11"><a xlink:href="st0.EntityPrizeDrop.svg" xlink:title="st0.EntityPrizeDrop">
<ellipse fill="green" stroke="black" cx="2670.74" cy="-198" rx="103.98" ry="18"/>
<text text-anchor="middle" x="2670.74" y="-194.3" font-family="Times,serif" font-size="14.00">st0.EntityPrizeDrop</text>
</a>
</g>
</g>
<!-- st0.EntityPrizeDrop&#45;&gt;st0.MoveEntity -->
<g id="edge10" class="edge">
<title>st0.EntityPrizeDrop&#45;&gt;st0.MoveEntity</title>
<path fill="none" stroke="black" d="M2703.95,-180.89C2770.99,-148.37 2922.34,-74.97 2995.96,-39.26"/>
<polygon fill="black" stroke="black" points="2997.92,-42.2 3005.39,-34.69 2994.86,-35.91 2997.92,-42.2"/>
<text text-anchor="middle" x="2698.95" y="-169.69" font-family="Times,serif" font-size="14.00">2</text>
</g>
<!-- st0.EntitySecretButton -->
<g id="node12" class="node">
<title>st0.EntitySecretButton</title>
<g id="a_node12"><a xlink:href="st0.EntitySecretButton.svg" xlink:title="st0.EntitySecretButton">
<ellipse fill="green" stroke="black" cx="2911.74" cy="-198" rx="118.88" ry="18"/>
<text text-anchor="middle" x="2911.74" y="-194.3" font-family="Times,serif" font-size="14.00">st0.EntitySecretButton</text>
</a>
</g>
</g>
<!-- st0.EntitySecretButton&#45;&gt;st0.MoveEntity -->
<g id="edge11" class="edge">
<title>st0.EntitySecretButton&#45;&gt;st0.MoveEntity</title>
<path fill="none" stroke="black" d="M2923.82,-179.93C2946.12,-148.43 2993.83,-81.03 3019.87,-44.24"/>
<polygon fill="black" stroke="black" points="3022.77,-46.2 3025.69,-36.02 3017.06,-42.16 3022.77,-46.2"/>
<text text-anchor="middle" x="2918.82" y="-168.73" font-family="Times,serif" font-size="14.00">1</text>
</g>
<!-- st0.EntitySecretStairs -->
<g id="node13" class="node">
<title>st0.EntitySecretStairs</title>
<g id="a_node13"><a xlink:href="st0.EntitySecretStairs.svg" xlink:title="st0.EntitySecretStairs">
<ellipse fill="green" stroke="black" cx="3163.74" cy="-198" rx="115.08" ry="18"/>
<text text-anchor="middle" x="3163.74" y="-194.3" font-family="Times,serif" font-size="14.00">st0.EntitySecretStairs</text>
</a>
</g>
</g>
<!-- st0.EntitySecretStairs&#45;&gt;st0.MoveEntity -->
<g id="edge12" class="edge">
<title>st0.EntitySecretStairs&#45;&gt;st0.MoveEntity</title>
<path fill="none" stroke="black" d="M3151.66,-179.93C3129.36,-148.43 3081.65,-81.03 3055.61,-44.24"/>
<polygon fill="black" stroke="black" points="3058.42,-42.16 3049.78,-36.02 3052.7,-46.2 3058.42,-42.16"/>
<text text-anchor="middle" x="3146.66" y="-168.73" font-family="Times,serif" font-size="14.00">1</text>
</g>
<!-- st0.EntitySoulStealOrb -->
<g id="node14" class="node">
<title>st0.EntitySoulStealOrb</title>
<g id="a_node14"><a xlink:href="st0.EntitySoulStealOrb.svg" xlink:title="st0.EntitySoulStealOrb">
<ellipse fill="green" stroke="black" cx="3415.74" cy="-198" rx="118.88" ry="18"/>
<text text-anchor="middle" x="3415.74" y="-194.3" font-family="Times,serif" font-size="14.00">st0.EntitySoulStealOrb</text>
</a>
</g>
</g>
<!-- st0.EntitySoulStealOrb&#45;&gt;st0.MoveEntity -->
<g id="edge13" class="edge">
<title>st0.EntitySoulStealOrb&#45;&gt;st0.MoveEntity</title>
<path fill="none" stroke="black" d="M3381.19,-180.73C3311.72,-148.02 3155.31,-74.37 3079.93,-38.87"/>
<polygon fill="black" stroke="black" points="3081.26,-35.62 3070.72,-34.53 3078.27,-41.96 3081.26,-35.62"/>
<text text-anchor="middle" x="3376.19" y="-169.53" font-family="Times,serif" font-size="14.00">1</text>
</g>
<!-- st0.InitializeUnkEntity -->
<g id="node15" class="node">
<title>st0.InitializeUnkEntity</title>
<g id="a_node15"><a xlink:href="st0.InitializeUnkEntity.svg" xlink:title="st0.InitializeUnkEntity">
<ellipse fill="green" stroke="black" cx="3668.74" cy="-198" rx="116.18" ry="18"/>
<text text-anchor="middle" x="3668.74" y="-194.3" font-family="Times,serif" font-size="14.00">st0.InitializeUnkEntity</text>
</a>
</g>
</g>
<!-- st0.InitializeUnkEntity&#45;&gt;st0.MoveEntity -->
<g id="edge14" class="edge">
<title>st0.InitializeUnkEntity&#45;&gt;st0.MoveEntity</title>
<path fill="none" stroke="black" d="M3615.48,-181.98C3498.15,-148.88 3218.12,-69.88 3096.17,-35.48"/>
<polygon fill="black" stroke="black" points="3096.84,-32.03 3086.26,-32.69 3094.94,-38.77 3096.84,-32.03"/>
<text text-anchor="middle" x="3610.48" y="-170.78" font-family="Times,serif" font-size="14.00">1</text>
</g>
<!-- st0.UnkCollisionFunc3 -->
<g id="node16" class="node">
<title>st0.UnkCollisionFunc3</title>
<g id="a_node16"><a xlink:href="st0.UnkCollisionFunc3.svg" xlink:title="st0.UnkCollisionFunc3">
<ellipse fill="green" stroke="black" cx="3919.74" cy="-198" rx="116.18" ry="18"/>
<text text-anchor="middle" x="3919.74" y="-194.3" font-family="Times,serif" font-size="14.00">st0.UnkCollisionFunc3</text>
</a>
</g>
</g>
<!-- st0.UnkCollisionFunc3&#45;&gt;st0.MoveEntity -->
<g id="edge15" class="edge">
<title>st0.UnkCollisionFunc3&#45;&gt;st0.MoveEntity</title>
<path fill="none" stroke="black" d="M3851.99,-183.33C3687.93,-150.22 3270.67,-66.01 3106.04,-32.78"/>
<polygon fill="black" stroke="black" points="3106.53,-29.31 3096.03,-30.76 3105.14,-36.17 3106.53,-29.31"/>
<text text-anchor="middle" x="3846.99" y="-172.13" font-family="Times,serif" font-size="14.00">1</text>
</g>
<!-- st0.UnkCollisionFunc4 -->
<g id="node17" class="node">
<title>st0.UnkCollisionFunc4</title>
<g id="a_node17"><a xlink:href="st0.UnkCollisionFunc4.svg" xlink:title="st0.UnkCollisionFunc4">
<ellipse fill="green" stroke="black" cx="4170.74" cy="-198" rx="116.18" ry="18"/>
<text text-anchor="middle" x="4170.74" y="-194.3" font-family="Times,serif" font-size="14.00">st0.UnkCollisionFunc4</text>
</a>
</g>
</g>
<!-- st0.UnkCollisionFunc4&#45;&gt;st0.MoveEntity -->
<g id="edge16" class="edge">
<title>st0.UnkCollisionFunc4&#45;&gt;st0.MoveEntity</title>
<path fill="none" stroke="black" d="M4091.97,-184.62C3883.09,-151.81 3317.12,-62.89 3112.68,-30.77"/>
<polygon fill="black" stroke="black" points="3113.06,-27.29 3102.64,-29.2 3111.98,-34.21 3113.06,-27.29"/>
<text text-anchor="middle" x="4086.97" y="-173.42" font-family="Times,serif" font-size="14.00">1</text>
</g>
<!-- st0.func_8018CB34 -->
<g id="node18" class="node">
<title>st0.func_8018CB34</title>
<g id="a_node18"><a xlink:href="st0.func_8018CB34.svg" xlink:title="st0.func_8018CB34">
<ellipse fill="green" stroke="black" cx="4406.74" cy="-198" rx="101.28" ry="18"/>
<text text-anchor="middle" x="4406.74" y="-194.3" font-family="Times,serif" font-size="14.00">st0.func_8018CB34</text>
</a>
</g>
</g>
<!-- st0.func_8018CB34&#45;&gt;st0.MoveEntity -->
<g id="edge17" class="edge">
<title>st0.func_8018CB34&#45;&gt;st0.MoveEntity</title>
<path fill="none" stroke="black" d="M4333.34,-185.5C4320.8,-183.61 4307.9,-181.71 4295.74,-180 3851.84,-117.61 3318.37,-52.63 3118.53,-28.64"/>
<polygon fill="black" stroke="black" points="3118.75,-25.14 3108.41,-27.42 3117.92,-32.09 3118.75,-25.14"/>
<text text-anchor="middle" x="4328.34" y="-174.3" font-family="Times,serif" font-size="14.00">2</text>
</g>
<!-- st0.func_8019214C -->
<g id="node19" class="node">
<title>st0.func_8019214C</title>
<g id="a_node19"><a xlink:href="st0.func_8019214C.svg" xlink:title="st0.func_8019214C">
<ellipse fill="green" stroke="black" cx="4626.74" cy="-198" rx="100.98" ry="18"/>
<text text-anchor="middle" x="4626.74" y="-194.3" font-family="Times,serif" font-size="14.00">st0.func_8019214C</text>
</a>
</g>
</g>
<!-- st0.func_8019214C&#45;&gt;st0.MoveEntity -->
<g id="edge18" class="edge">
<title>st0.func_8019214C&#45;&gt;st0.MoveEntity</title>
<path fill="none" stroke="black" d="M4554.62,-185.38C4542.01,-183.48 4529,-181.61 4516.74,-180 3987.43,-110.32 3348.68,-48.2 3122.28,-26.86"/>
<polygon fill="black" stroke="black" points="3122.42,-23.36 3112.14,-25.91 3121.76,-30.33 3122.42,-23.36"/>
<text text-anchor="middle" x="4549.62" y="-174.18" font-family="Times,serif" font-size="14.00">1</text>
</g>
<!-- st0.func_80192408 -->
<g id="node20" class="node">
<title>st0.func_80192408</title>
<g id="a_node20"><a xlink:href="st0.func_80192408.svg" xlink:title="st0.func_80192408">
<ellipse fill="green" stroke="black" cx="4844.74" cy="-198" rx="99.38" ry="18"/>
<text text-anchor="middle" x="4844.74" y="-194.3" font-family="Times,serif" font-size="14.00">st0.func_80192408</text>
</a>
</g>
</g>
<!-- st0.func_80192408&#45;&gt;st0.MoveEntity -->
<g id="edge19" class="edge">
<title>st0.func_80192408&#45;&gt;st0.MoveEntity</title>
<path fill="none" stroke="black" d="M4774.24,-185.26C4761.77,-183.37 4748.89,-181.53 4736.74,-180 4121.33,-102.48 3376.25,-44.08 3125.13,-25.37"/>
<polygon fill="black" stroke="black" points="3125.21,-21.86 3114.97,-24.61 3124.69,-28.85 3125.21,-21.86"/>
<text text-anchor="middle" x="4769.24" y="-174.06" font-family="Times,serif" font-size="14.00">1</text>
</g>
<!-- st0.func_80194314 -->
<g id="node21" class="node">
<title>st0.func_80194314</title>
<g id="a_node21"><a xlink:href="st0.func_80194314.svg" xlink:title="st0.func_80194314">
<ellipse fill="green" stroke="black" cx="5061.74" cy="-198" rx="99.38" ry="18"/>
<text text-anchor="middle" x="5061.74" y="-194.3" font-family="Times,serif" font-size="14.00">st0.func_80194314</text>
</a>
</g>
</g>
<!-- st0.func_80194314&#45;&gt;st0.MoveEntity -->
<g id="edge20" class="edge">
<title>st0.func_80194314&#45;&gt;st0.MoveEntity</title>
<path fill="none" stroke="black" d="M4991.19,-185.25C4978.41,-183.33 4965.19,-181.49 4952.74,-180 4251.19,-95.91 3399.83,-40.77 3126.63,-24.23"/>
<polygon fill="black" stroke="black" points="3126.57,-20.72 3116.38,-23.61 3126.15,-27.7 3126.57,-20.72"/>
<text text-anchor="middle" x="4986.19" y="-174.05" font-family="Times,serif" font-size="14.00">1</text>
</g>
<!-- st0.func_801A8328 -->
<g id="node22" class="node">
<title>st0.func_801A8328</title>
<g id="a_node22"><a xlink:href="st0.func_801A8328.svg" xlink:title="st0.func_801A8328">
<ellipse fill="green" stroke="black" cx="5279.74" cy="-198" rx="100.18" ry="18"/>
<text text-anchor="middle" x="5279.74" y="-194.3" font-family="Times,serif" font-size="14.00">st0.func_801A8328</text>
</a>
</g>
</g>
<!-- st0.func_801A8328&#45;&gt;st0.MoveEntity -->
<g id="edge21" class="edge">
<title>st0.func_801A8328&#45;&gt;st0.MoveEntity</title>
<path fill="none" stroke="black" d="M5208.84,-185.21C5195.86,-183.29 5182.41,-181.46 5169.74,-180 4381.17,-89.43 3422.41,-37.83 3128,-23.29"/>
<polygon fill="black" stroke="black" points="3127.97,-19.79 3117.81,-22.79 3127.63,-26.78 3127.97,-19.79"/>
<text text-anchor="middle" x="5203.84" y="-174.01" font-family="Times,serif" font-size="14.00">1</text>
</g>
<!-- st0.func_801AD838 -->
<g id="node23" class="node">
<title>st0.func_801AD838</title>
<g id="a_node23"><a xlink:href="st0.func_801AD838.svg" xlink:title="st0.func_801AD838">
<ellipse fill="green" stroke="black" cx="5498.74" cy="-198" rx="101.28" ry="18"/>
<text text-anchor="middle" x="5498.74" y="-194.3" font-family="Times,serif" font-size="14.00">st0.func_801AD838</text>
</a>
</g>
</g>
<!-- st0.func_801AD838&#45;&gt;st0.MoveEntity -->
<g id="edge22" class="edge">
<title>st0.func_801AD838&#45;&gt;st0.MoveEntity</title>
<path fill="none" stroke="black" d="M5427.55,-185.1C5414.66,-183.2 5401.32,-181.4 5388.74,-180 4511.54,-82.36 3443.17,-34.95 3128.81,-22.45"/>
<polygon fill="black" stroke="black" points="3128.53,-18.94 3118.4,-22.04 3128.25,-25.93 3128.53,-18.94"/>
<text text-anchor="middle" x="5422.55" y="-173.9" font-family="Times,serif" font-size="14.00">1</text>
</g>
</g>
</svg>
