<?xml version="1.0" encoding="UTF-8" standalone="no"?>
<!DOCTYPE svg PUBLIC "-//W3C//DTD SVG 1.1//EN"
 "http://www.w3.org/Graphics/SVG/1.1/DTD/svg11.dtd">
<!-- Generated by graphviz version 2.43.0 (0)
 -->
<!-- Title: st0.EntityNumericDamage Pages: 1 -->
<svg width="625pt" height="224pt"
 viewBox="0.00 0.00 624.93 224.00" xmlns="http://www.w3.org/2000/svg" xmlns:xlink="http://www.w3.org/1999/xlink">
<g id="graph0" class="graph" transform="scale(1 1) rotate(0) translate(4 220)">
<title>st0.EntityNumericDamage</title>
<polygon fill="white" stroke="transparent" points="-4,4 -4,-220 620.93,-220 620.93,4 -4,4"/>
<!-- st0.EntityNumericDamage -->
<g id="node1" class="node">
<title>st0.EntityNumericDamage</title>
<ellipse fill="red" stroke="black" cx="310.44" cy="-198" rx="135.38" ry="18"/>
<text text-anchor="middle" x="310.44" y="-194.3" font-family="Times,serif" font-size="14.00">st0.EntityNumericDamage</text>
</g>
<!-- dra.AllocPrimitives -->
<g id="node2" class="node">
<title>dra.AllocPrimitives</title>
<g id="a_node2"><a xlink:href="dra.AllocPrimitives.svg" xlink:title="dra.AllocPrimitives">
<ellipse fill="green" stroke="black" cx="99.44" cy="-18" rx="99.38" ry="18"/>
<text text-anchor="middle" x="99.44" y="-14.3" font-family="Times,serif" font-size="14.00">dra.AllocPrimitives</text>
</a>
</g>
</g>
<!-- st0.EntityNumericDamage&#45;&gt;dra.AllocPrimitives -->
<g id="edge1" class="edge">
<title>st0.EntityNumericDamage&#45;&gt;dra.AllocPrimitives</title>
<path fill="none" stroke="black" d="M290.21,-179.93C252.22,-147.89 170.19,-78.68 127.12,-42.35"/>
<polygon fill="black" stroke="black" points="129.2,-39.53 119.3,-35.76 124.69,-44.88 129.2,-39.53"/>
<text text-anchor="middle" x="114.3" y="-39.56" font-family="Times,serif" font-size="14.00">1</text>
</g>
<!-- st0.DestroyEntity -->
<g id="node3" class="node">
<title>st0.DestroyEntity</title>
<g id="a_node3"><a xlink:href="st0.DestroyEntity.svg" xlink:title="st0.DestroyEntity">
<ellipse fill="green" stroke="black" cx="310.44" cy="-18" rx="93.68" ry="18"/>
<text text-anchor="middle" x="310.44" y="-14.3" font-family="Times,serif" font-size="14.00">st0.DestroyEntity</text>
</a>
</g>
</g>
<!-- st0.EntityNumericDamage&#45;&gt;st0.DestroyEntity -->
<g id="edge2" class="edge">
<title>st0.EntityNumericDamage&#45;&gt;st0.DestroyEntity</title>
<path fill="none" stroke="black" d="M310.44,-179.93C310.44,-148.97 310.44,-83.3 310.44,-46.13"/>
<polygon fill="black" stroke="black" points="313.94,-46.02 310.44,-36.02 306.94,-46.02 313.94,-46.02"/>
<text text-anchor="middle" x="305.44" y="-39.82" font-family="Times,serif" font-size="14.00">1</text>
</g>
<!-- st0.InitializeEntity -->
<g id="node4" class="node">
<title>st0.InitializeEntity</title>
<g id="a_node4"><a xlink:href="st0.InitializeEntity.svg" xlink:title="st0.InitializeEntity">
<ellipse fill="green" stroke="black" cx="519.44" cy="-18" rx="97.48" ry="18"/>
<text text-anchor="middle" x="519.44" y="-14.3" font-family="Times,serif" font-size="14.00">st0.InitializeEntity</text>
</a>
</g>
</g>
<!-- st0.EntityNumericDamage&#45;&gt;st0.InitializeEntity -->
<g id="edge3" class="edge">
<title>st0.EntityNumericDamage&#45;&gt;st0.InitializeEntity</title>
<path fill="none" stroke="black" d="M330.48,-179.93C368.11,-147.89 449.36,-78.68 492.02,-42.35"/>
<polygon fill="black" stroke="black" points="494.42,-44.9 499.77,-35.76 489.88,-39.58 494.42,-44.9"/>
<text text-anchor="middle" x="494.77" y="-39.56" font-family="Times,serif" font-size="14.00">1</text>
</g>
</g>
</svg>
