<?xml version="1.0" encoding="UTF-8" standalone="no"?>
<!DOCTYPE svg PUBLIC "-//W3C//DTD SVG 1.1//EN"
 "http://www.w3.org/Graphics/SVG/1.1/DTD/svg11.dtd">
<!-- Generated by graphviz version 2.43.0 (0)
 -->
<!-- Title: top.CreateEntitiesToTheRight Pages: 1 -->
<svg width="712pt" height="404pt"
 viewBox="0.00 0.00 712.17 404.00" xmlns="http://www.w3.org/2000/svg" xmlns:xlink="http://www.w3.org/1999/xlink">
<g id="graph0" class="graph" transform="scale(1 1) rotate(0) translate(4 400)">
<title>top.CreateEntitiesToTheRight</title>
<polygon fill="white" stroke="transparent" points="-4,4 -4,-400 708.17,-400 708.17,4 -4,4"/>
<!-- top.CreateEntitiesToTheRight -->
<g id="node1" class="node">
<title>top.CreateEntitiesToTheRight</title>
<ellipse fill="green" stroke="black" cx="369.13" cy="-198" rx="149.47" ry="18"/>
<text text-anchor="middle" x="369.13" y="-194.3" font-family="Times,serif" font-size="14.00">top.CreateEntitiesToTheRight</text>
</g>
<!-- top.CreateEntityWhenInVerticalRange -->
<g id="node2" class="node">
<title>top.CreateEntityWhenInVerticalRange</title>
<g id="a_node2"><a xlink:href="top.CreateEntityWhenInVerticalRange.svg" xlink:title="top.CreateEntityWhenInVerticalRange">
<ellipse fill="green" stroke="black" cx="189.13" cy="-18" rx="189.27" ry="18"/>
<text text-anchor="middle" x="189.13" y="-14.3" font-family="Times,serif" font-size="14.00">top.CreateEntityWhenInVerticalRange</text>
</a>
</g>
</g>
<!-- top.CreateEntitiesToTheRight&#45;&gt;top.CreateEntityWhenInVerticalRange -->
<g id="edge1" class="edge">
<title>top.CreateEntitiesToTheRight&#45;&gt;top.CreateEntityWhenInVerticalRange</title>
<path fill="none" stroke="black" d="M351.87,-179.93C319.75,-148.17 250.71,-79.89 213.72,-43.32"/>
<polygon fill="black" stroke="black" points="215.91,-40.56 206.34,-36.02 210.99,-45.54 215.91,-40.56"/>
<text text-anchor="middle" x="201.34" y="-39.82" font-family="Times,serif" font-size="14.00">1</text>
</g>
<!-- top.FindFirstEntityToTheRight -->
<g id="node3" class="node">
<title>top.FindFirstEntityToTheRight</title>
<g id="a_node3"><a xlink:href="top.FindFirstEntityToTheRight.svg" xlink:title="top.FindFirstEntityToTheRight">
<ellipse fill="green" stroke="black" cx="550.13" cy="-18" rx="154.07" ry="18"/>
<text text-anchor="middle" x="550.13" y="-14.3" font-family="Times,serif" font-size="14.00">top.FindFirstEntityToTheRight</text>
</a>
</g>
</g>
<!-- top.CreateEntitiesToTheRight&#45;&gt;top.FindFirstEntityToTheRight -->
<g id="edge2" class="edge">
<title>top.CreateEntitiesToTheRight&#45;&gt;top.FindFirstEntityToTheRight</title>
<path fill="none" stroke="black" d="M386.49,-179.93C418.79,-148.17 488.21,-79.89 525.41,-43.32"/>
<polygon fill="black" stroke="black" points="528.15,-45.52 532.83,-36.02 523.25,-40.53 528.15,-45.52"/>
<text text-anchor="middle" x="527.83" y="-39.82" font-family="Times,serif" font-size="14.00">1</text>
</g>
<!-- top.InitRoomEntities -->
<g id="node4" class="node">
<title>top.InitRoomEntities</title>
<g id="a_node4"><a xlink:href="top.InitRoomEntities.svg" xlink:title="top.InitRoomEntities">
<ellipse fill="green" stroke="black" cx="243.13" cy="-378" rx="107.78" ry="18"/>
<text text-anchor="middle" x="243.13" y="-374.3" font-family="Times,serif" font-size="14.00">top.InitRoomEntities</text>
</a>
</g>
</g>
<!-- top.InitRoomEntities&#45;&gt;top.CreateEntitiesToTheRight -->
<g id="edge3" class="edge">
<title>top.InitRoomEntities&#45;&gt;top.CreateEntitiesToTheRight</title>
<path fill="none" stroke="black" d="M255.21,-359.93C277.51,-328.43 325.22,-261.03 351.27,-224.24"/>
<polygon fill="black" stroke="black" points="354.17,-226.2 357.09,-216.02 348.45,-222.16 354.17,-226.2"/>
<text text-anchor="middle" x="250.21" y="-348.73" font-family="Times,serif" font-size="14.00">1</text>
</g>
<!-- top.UpdateRoomPosition -->
<g id="node5" class="node">
<title>top.UpdateRoomPosition</title>
<g id="a_node5"><a xlink:href="top.UpdateRoomPosition.svg" xlink:title="top.UpdateRoomPosition">
<ellipse fill="green" stroke="black" cx="495.13" cy="-378" rx="126.18" ry="18"/>
<text text-anchor="middle" x="495.13" y="-374.3" font-family="Times,serif" font-size="14.00">top.UpdateRoomPosition</text>
</a>
</g>
</g>
<!-- top.UpdateRoomPosition&#45;&gt;top.CreateEntitiesToTheRight -->
<g id="edge4" class="edge">
<title>top.UpdateRoomPosition&#45;&gt;top.CreateEntitiesToTheRight</title>
<path fill="none" stroke="black" d="M483.05,-359.93C460.76,-328.43 413.04,-261.03 387,-224.24"/>
<polygon fill="black" stroke="black" points="389.81,-222.16 381.18,-216.02 384.1,-226.2 389.81,-222.16"/>
<text text-anchor="middle" x="478.05" y="-348.73" font-family="Times,serif" font-size="14.00">1</text>
</g>
</g>
</svg>
