<?xml version="1.0" encoding="UTF-8" standalone="no"?>
<!DOCTYPE svg PUBLIC "-//W3C//DTD SVG 1.1//EN"
 "http://www.w3.org/Graphics/SVG/1.1/DTD/svg11.dtd">
<!-- Generated by graphviz version 2.43.0 (0)
 -->
<!-- Title: top.CreateEntityFromLayout Pages: 1 -->
<svg width="808pt" height="404pt"
 viewBox="0.00 0.00 808.27 404.00" xmlns="http://www.w3.org/2000/svg" xmlns:xlink="http://www.w3.org/1999/xlink">
<g id="graph0" class="graph" transform="scale(1 1) rotate(0) translate(4 400)">
<title>top.CreateEntityFromLayout</title>
<polygon fill="white" stroke="transparent" points="-4,4 -4,-400 804.27,-400 804.27,4 -4,4"/>
<!-- top.CreateEntityFromLayout -->
<g id="node1" class="node">
<title>top.CreateEntityFromLayout</title>
<ellipse fill="green" stroke="black" cx="406.13" cy="-198" rx="145.67" ry="18"/>
<text text-anchor="middle" x="406.13" y="-194.3" font-family="Times,serif" font-size="14.00">top.CreateEntityFromLayout</text>
</g>
<!-- top.DestroyEntity -->
<g id="node2" class="node">
<title>top.DestroyEntity</title>
<g id="a_node2"><a xlink:href="top.DestroyEntity.svg" xlink:title="top.DestroyEntity">
<ellipse fill="green" stroke="black" cx="406.13" cy="-18" rx="94.48" ry="18"/>
<text text-anchor="middle" x="406.13" y="-14.3" font-family="Times,serif" font-size="14.00">top.DestroyEntity</text>
</a>
</g>
</g>
<!-- top.CreateEntityFromLayout&#45;&gt;top.DestroyEntity -->
<g id="edge1" class="edge">
<title>top.CreateEntityFromLayout&#45;&gt;top.DestroyEntity</title>
<path fill="none" stroke="black" d="M406.13,-179.93C406.13,-148.97 406.13,-83.3 406.13,-46.13"/>
<polygon fill="black" stroke="black" points="409.63,-46.02 406.13,-36.02 402.63,-46.02 409.63,-46.02"/>
<text text-anchor="middle" x="401.13" y="-39.82" font-family="Times,serif" font-size="14.00">1</text>
</g>
<!-- top.CreateEntityWhenInHorizontalRange -->
<g id="node3" class="node">
<title>top.CreateEntityWhenInHorizontalRange</title>
<g id="a_node3"><a xlink:href="top.CreateEntityWhenInHorizontalRange.svg" xlink:title="top.CreateEntityWhenInHorizontalRange">
<ellipse fill="green" stroke="black" cx="202.13" cy="-378" rx="202.26" ry="18"/>
<text text-anchor="middle" x="202.13" y="-374.3" font-family="Times,serif" font-size="14.00">top.CreateEntityWhenInHorizontalRange</text>
</a>
</g>
</g>
<!-- top.CreateEntityWhenInHorizontalRange&#45;&gt;top.CreateEntityFromLayout -->
<g id="edge2" class="edge">
<title>top.CreateEntityWhenInHorizontalRange&#45;&gt;top.CreateEntityFromLayout</title>
<path fill="none" stroke="black" d="M221.69,-359.93C258.32,-327.97 337.33,-259.04 379.05,-222.63"/>
<polygon fill="black" stroke="black" points="381.4,-225.23 386.63,-216.02 376.79,-219.95 381.4,-225.23"/>
<text text-anchor="middle" x="216.69" y="-348.73" font-family="Times,serif" font-size="14.00">1</text>
</g>
<!-- top.CreateEntityWhenInVerticalRange -->
<g id="node4" class="node">
<title>top.CreateEntityWhenInVerticalRange</title>
<g id="a_node4"><a xlink:href="top.CreateEntityWhenInVerticalRange.svg" xlink:title="top.CreateEntityWhenInVerticalRange">
<ellipse fill="green" stroke="black" cx="611.13" cy="-378" rx="189.27" ry="18"/>
<text text-anchor="middle" x="611.13" y="-374.3" font-family="Times,serif" font-size="14.00">top.CreateEntityWhenInVerticalRange</text>
</a>
</g>
</g>
<!-- top.CreateEntityWhenInVerticalRange&#45;&gt;top.CreateEntityFromLayout -->
<g id="edge3" class="edge">
<title>top.CreateEntityWhenInVerticalRange&#45;&gt;top.CreateEntityFromLayout</title>
<path fill="none" stroke="black" d="M591.48,-359.93C554.66,-327.97 475.27,-259.04 433.35,-222.63"/>
<polygon fill="black" stroke="black" points="435.57,-219.93 425.73,-216.02 430.98,-225.21 435.57,-219.93"/>
<text text-anchor="middle" x="586.48" y="-348.73" font-family="Times,serif" font-size="14.00">1</text>
</g>
</g>
</svg>
