<?xml version="1.0" encoding="UTF-8" standalone="no"?>
<!DOCTYPE svg PUBLIC "-//W3C//DTD SVG 1.1//EN"
 "http://www.w3.org/Graphics/SVG/1.1/DTD/svg11.dtd">
<!-- Generated by graphviz version 2.43.0 (0)
 -->
<!-- Title: top.CreateEntityWhenInHorizontalRange Pages: 1 -->
<svg width="526pt" height="404pt"
 viewBox="0.00 0.00 525.58 404.00" xmlns="http://www.w3.org/2000/svg" xmlns:xlink="http://www.w3.org/1999/xlink">
<g id="graph0" class="graph" transform="scale(1 1) rotate(0) translate(4 400)">
<title>top.CreateEntityWhenInHorizontalRange</title>
<polygon fill="white" stroke="transparent" points="-4,4 -4,-400 521.58,-400 521.58,4 -4,4"/>
<!-- top.CreateEntityWhenInHorizontalRange -->
<g id="node1" class="node">
<title>top.CreateEntityWhenInHorizontalRange</title>
<ellipse fill="green" stroke="black" cx="258.79" cy="-198" rx="202.26" ry="18"/>
<text text-anchor="middle" x="258.79" y="-194.3" font-family="Times,serif" font-size="14.00">top.CreateEntityWhenInHorizontalRange</text>
</g>
<!-- top.CreateEntityFromLayout -->
<g id="node2" class="node">
<title>top.CreateEntityFromLayout</title>
<g id="a_node2"><a xlink:href="top.CreateEntityFromLayout.svg" xlink:title="top.CreateEntityFromLayout">
<ellipse fill="green" stroke="black" cx="258.79" cy="-18" rx="145.67" ry="18"/>
<text text-anchor="middle" x="258.79" y="-14.3" font-family="Times,serif" font-size="14.00">top.CreateEntityFromLayout</text>
</a>
</g>
</g>
<!-- top.CreateEntityWhenInHorizontalRange&#45;&gt;top.CreateEntityFromLayout -->
<g id="edge1" class="edge">
<title>top.CreateEntityWhenInHorizontalRange&#45;&gt;top.CreateEntityFromLayout</title>
<path fill="none" stroke="black" d="M258.79,-179.93C258.79,-148.97 258.79,-83.3 258.79,-46.13"/>
<polygon fill="black" stroke="black" points="262.29,-46.02 258.79,-36.02 255.29,-46.02 262.29,-46.02"/>
<text text-anchor="middle" x="253.79" y="-39.82" font-family="Times,serif" font-size="14.00">1</text>
</g>
<!-- top.CreateEntitiesAbove -->
<g id="node3" class="node">
<title>top.CreateEntitiesAbove</title>
<g id="a_node3"><a xlink:href="top.CreateEntitiesAbove.svg" xlink:title="top.CreateEntitiesAbove">
<ellipse fill="green" stroke="black" cx="124.79" cy="-378" rx="124.58" ry="18"/>
<text text-anchor="middle" x="124.79" y="-374.3" font-family="Times,serif" font-size="14.00">top.CreateEntitiesAbove</text>
</a>
</g>
</g>
<!-- top.CreateEntitiesAbove&#45;&gt;top.CreateEntityWhenInHorizontalRange -->
<g id="edge2" class="edge">
<title>top.CreateEntitiesAbove&#45;&gt;top.CreateEntityWhenInHorizontalRange</title>
<path fill="none" stroke="black" d="M137.64,-359.93C161.35,-328.43 212.09,-261.03 239.79,-224.24"/>
<polygon fill="black" stroke="black" points="242.76,-226.11 245.98,-216.02 237.17,-221.9 242.76,-226.11"/>
<text text-anchor="middle" x="132.64" y="-348.73" font-family="Times,serif" font-size="14.00">1</text>
</g>
<!-- top.CreateEntitiesBelow -->
<g id="node4" class="node">
<title>top.CreateEntitiesBelow</title>
<g id="a_node4"><a xlink:href="top.CreateEntitiesBelow.svg" xlink:title="top.CreateEntitiesBelow">
<ellipse fill="green" stroke="black" cx="392.79" cy="-378" rx="124.58" ry="18"/>
<text text-anchor="middle" x="392.79" y="-374.3" font-family="Times,serif" font-size="14.00">top.CreateEntitiesBelow</text>
</a>
</g>
</g>
<!-- top.CreateEntitiesBelow&#45;&gt;top.CreateEntityWhenInHorizontalRange -->
<g id="edge3" class="edge">
<title>top.CreateEntitiesBelow&#45;&gt;top.CreateEntityWhenInHorizontalRange</title>
<path fill="none" stroke="black" d="M379.94,-359.93C356.23,-328.43 305.49,-261.03 277.79,-224.24"/>
<polygon fill="black" stroke="black" points="280.41,-221.9 271.6,-216.02 274.82,-226.11 280.41,-221.9"/>
<text text-anchor="middle" x="374.94" y="-348.73" font-family="Times,serif" font-size="14.00">1</text>
</g>
</g>
</svg>
