<?xml version="1.0" encoding="UTF-8" standalone="no"?>
<!DOCTYPE svg PUBLIC "-//W3C//DTD SVG 1.1//EN"
 "http://www.w3.org/Graphics/SVG/1.1/DTD/svg11.dtd">
<!-- Generated by graphviz version 2.43.0 (0)
 -->
<!-- Title: top.PlaySfxPositional Pages: 1 -->
<svg width="1376pt" height="404pt"
 viewBox="0.00 0.00 1376.38 404.00" xmlns="http://www.w3.org/2000/svg" xmlns:xlink="http://www.w3.org/1999/xlink">
<g id="graph0" class="graph" transform="scale(1 1) rotate(0) translate(4 400)">
<title>top.PlaySfxPositional</title>
<polygon fill="white" stroke="transparent" points="-4,4 -4,-400 1372.38,-400 1372.38,4 -4,4"/>
<!-- top.PlaySfxPositional -->
<g id="node1" class="node">
<title>top.PlaySfxPositional</title>
<ellipse fill="green" stroke="black" cx="757.74" cy="-198" rx="109.38" ry="18"/>
<text text-anchor="middle" x="757.74" y="-194.3" font-family="Times,serif" font-size="14.00">top.PlaySfxPositional</text>
</g>
<!-- dra.PlaySfxVolPan -->
<g id="node2" class="node">
<title>dra.PlaySfxVolPan</title>
<g id="a_node2"><a xlink:href="dra.PlaySfxVolPan.svg" xlink:title="dra.PlaySfxVolPan">
<ellipse fill="green" stroke="black" cx="757.74" cy="-18" rx="95.58" ry="18"/>
<text text-anchor="middle" x="757.74" y="-14.3" font-family="Times,serif" font-size="14.00">dra.PlaySfxVolPan</text>
</a>
</g>
</g>
<!-- top.PlaySfxPositional&#45;&gt;dra.PlaySfxVolPan -->
<g id="edge1" class="edge">
<title>top.PlaySfxPositional&#45;&gt;dra.PlaySfxVolPan</title>
<path fill="none" stroke="black" d="M757.74,-179.93C757.74,-148.97 757.74,-83.3 757.74,-46.13"/>
<polygon fill="black" stroke="black" points="761.24,-46.02 757.74,-36.02 754.24,-46.02 761.24,-46.02"/>
<text text-anchor="middle" x="752.74" y="-39.82" font-family="Times,serif" font-size="14.00">1</text>
</g>
<!-- top.EntityAxeKnightBlue -->
<g id="node3" class="node">
<title>top.EntityAxeKnightBlue</title>
<g id="a_node3"><a xlink:href="top.EntityAxeKnightBlue.svg" xlink:title="top.EntityAxeKnightBlue">
<ellipse fill="green" stroke="black" cx="126.74" cy="-378" rx="126.98" ry="18"/>
<text text-anchor="middle" x="126.74" y="-374.3" font-family="Times,serif" font-size="14.00">top.EntityAxeKnightBlue</text>
</a>
</g>
</g>
<!-- top.EntityAxeKnightBlue&#45;&gt;top.PlaySfxPositional -->
<g id="edge2" class="edge">
<title>top.EntityAxeKnightBlue&#45;&gt;top.PlaySfxPositional</title>
<path fill="none" stroke="black" d="M181.08,-361.67C297.8,-328.75 571.83,-251.44 695.38,-216.59"/>
<polygon fill="black" stroke="black" points="696.41,-219.94 705.08,-213.85 694.51,-213.2 696.41,-219.94"/>
<text text-anchor="middle" x="176.08" y="-350.47" font-family="Times,serif" font-size="14.00">8</text>
</g>
<!-- top.EntityAxeKnightThrowingAxe -->
<g id="node4" class="node">
<title>top.EntityAxeKnightThrowingAxe</title>
<g id="a_node4"><a xlink:href="top.EntityAxeKnightThrowingAxe.svg" xlink:title="top.EntityAxeKnightThrowingAxe">
<ellipse fill="green" stroke="black" cx="438.74" cy="-378" rx="167.07" ry="18"/>
<text text-anchor="middle" x="438.74" y="-374.3" font-family="Times,serif" font-size="14.00">top.EntityAxeKnightThrowingAxe</text>
</a>
</g>
</g>
<!-- top.EntityAxeKnightThrowingAxe&#45;&gt;top.PlaySfxPositional -->
<g id="edge3" class="edge">
<title>top.EntityAxeKnightThrowingAxe&#45;&gt;top.PlaySfxPositional</title>
<path fill="none" stroke="black" d="M468.75,-360.25C526.85,-327.84 654.61,-256.54 719.01,-220.61"/>
<polygon fill="black" stroke="black" points="721.01,-223.5 728.04,-215.57 717.6,-217.39 721.01,-223.5"/>
<text text-anchor="middle" x="463.75" y="-349.05" font-family="Times,serif" font-size="14.00">1</text>
</g>
<!-- top.EntityExplosionSpawn -->
<g id="node5" class="node">
<title>top.EntityExplosionSpawn</title>
<g id="a_node5"><a xlink:href="top.EntityExplosionSpawn.svg" xlink:title="top.EntityExplosionSpawn">
<ellipse fill="green" stroke="black" cx="757.74" cy="-378" rx="133.78" ry="18"/>
<text text-anchor="middle" x="757.74" y="-374.3" font-family="Times,serif" font-size="14.00">top.EntityExplosionSpawn</text>
</a>
</g>
</g>
<!-- top.EntityExplosionSpawn&#45;&gt;top.PlaySfxPositional -->
<g id="edge4" class="edge">
<title>top.EntityExplosionSpawn&#45;&gt;top.PlaySfxPositional</title>
<path fill="none" stroke="black" d="M757.74,-359.93C757.74,-328.97 757.74,-263.3 757.74,-226.13"/>
<polygon fill="black" stroke="black" points="761.24,-226.02 757.74,-216.02 754.24,-226.02 761.24,-226.02"/>
<text text-anchor="middle" x="752.74" y="-348.73" font-family="Times,serif" font-size="14.00">1</text>
</g>
<!-- top.EntityFleaRider -->
<g id="node6" class="node">
<title>top.EntityFleaRider</title>
<g id="a_node6"><a xlink:href="top.EntityFleaRider.svg" xlink:title="top.EntityFleaRider">
<ellipse fill="green" stroke="black" cx="1012.74" cy="-378" rx="102.88" ry="18"/>
<text text-anchor="middle" x="1012.74" y="-374.3" font-family="Times,serif" font-size="14.00">top.EntityFleaRider</text>
</a>
</g>
</g>
<!-- top.EntityFleaRider&#45;&gt;top.PlaySfxPositional -->
<g id="edge5" class="edge">
<title>top.EntityFleaRider&#45;&gt;top.PlaySfxPositional</title>
<path fill="none" stroke="black" d="M988.75,-360.25C942.69,-328.1 841.85,-257.71 789.97,-221.5"/>
<polygon fill="black" stroke="black" points="791.68,-218.43 781.48,-215.57 787.68,-224.17 791.68,-218.43"/>
<text text-anchor="middle" x="983.75" y="-349.05" font-family="Times,serif" font-size="14.00">3</text>
</g>
<!-- top.func_us_801CA51C -->
<g id="node7" class="node">
<title>top.func_us_801CA51C</title>
<g id="a_node7"><a xlink:href="top.func_us_801CA51C.svg" xlink:title="top.func_us_801CA51C">
<ellipse fill="green" stroke="black" cx="1250.74" cy="-378" rx="117.78" ry="18"/>
<text text-anchor="middle" x="1250.74" y="-374.3" font-family="Times,serif" font-size="14.00">top.func_us_801CA51C</text>
</a>
</g>
</g>
<!-- top.func_us_801CA51C&#45;&gt;top.PlaySfxPositional -->
<g id="edge6" class="edge">
<title>top.func_us_801CA51C&#45;&gt;top.PlaySfxPositional</title>
<path fill="none" stroke="black" d="M1206.99,-361.2C1116.43,-328.51 908.71,-253.51 810.74,-218.13"/>
<polygon fill="black" stroke="black" points="811.63,-214.74 801.04,-214.63 809.26,-221.32 811.63,-214.74"/>
<text text-anchor="middle" x="1201.99" y="-350" font-family="Times,serif" font-size="14.00">3</text>
</g>
</g>
</svg>
