<?xml version="1.0" encoding="UTF-8" standalone="no"?>
<!DOCTYPE svg PUBLIC "-//W3C//DTD SVG 1.1//EN"
 "http://www.w3.org/Graphics/SVG/1.1/DTD/svg11.dtd">
<!-- Generated by graphviz version 2.43.0 (0)
 -->
<!-- Title: top.Update Pages: 1 -->
<svg width="678pt" height="224pt"
 viewBox="0.00 0.00 678.38 224.00" xmlns="http://www.w3.org/2000/svg" xmlns:xlink="http://www.w3.org/1999/xlink">
<g id="graph0" class="graph" transform="scale(1 1) rotate(0) translate(4 220)">
<title>top.Update</title>
<polygon fill="white" stroke="transparent" points="-4,4 -4,-220 674.38,-220 674.38,4 -4,4"/>
<!-- top.Update -->
<g id="node1" class="node">
<title>top.Update</title>
<ellipse fill="green" stroke="black" cx="365.14" cy="-198" rx="63.09" ry="18"/>
<text text-anchor="middle" x="365.14" y="-194.3" font-family="Times,serif" font-size="14.00">top.Update</text>
</g>
<!-- UnknownEntityFunction -->
<g id="node2" class="node">
<title>UnknownEntityFunction</title>
<g id="a_node2"><a xlink:href="UnknownEntityFunction.svg" xlink:title="UnknownEntityFunction">
<ellipse fill="lightblue" stroke="black" cx="124.14" cy="-18" rx="124.28" ry="18"/>
<text text-anchor="middle" x="124.14" y="-14.3" font-family="Times,serif" font-size="14.00">UnknownEntityFunction</text>
</a>
</g>
</g>
<!-- top.Update&#45;&gt;UnknownEntityFunction -->
<g id="edge1" class="edge">
<title>top.Update&#45;&gt;UnknownEntityFunction</title>
<path fill="none" stroke="black" d="M343.33,-180.89C300.28,-149.1 204.3,-78.21 154.87,-41.7"/>
<polygon fill="black" stroke="black" points="156.9,-38.85 146.78,-35.72 152.74,-44.48 156.9,-38.85"/>
<text text-anchor="middle" x="141.78" y="-39.52" font-family="Times,serif" font-size="14.00">1</text>
</g>
<!-- dra.FreePrimitives -->
<g id="node3" class="node">
<title>dra.FreePrimitives</title>
<g id="a_node3"><a xlink:href="dra.FreePrimitives.svg" xlink:title="dra.FreePrimitives">
<ellipse fill="green" stroke="black" cx="365.14" cy="-18" rx="98.58" ry="18"/>
<text text-anchor="middle" x="365.14" y="-14.3" font-family="Times,serif" font-size="14.00">dra.FreePrimitives</text>
</a>
</g>
</g>
<!-- top.Update&#45;&gt;dra.FreePrimitives -->
<g id="edge2" class="edge">
<title>top.Update&#45;&gt;dra.FreePrimitives</title>
<path fill="none" stroke="black" d="M365.14,-179.93C365.14,-148.97 365.14,-83.3 365.14,-46.13"/>
<polygon fill="black" stroke="black" points="368.64,-46.02 365.14,-36.02 361.64,-46.02 368.64,-46.02"/>
<text text-anchor="middle" x="360.14" y="-39.82" font-family="Times,serif" font-size="14.00">1</text>
</g>
<!-- top.DestroyEntity -->
<g id="node4" class="node">
<title>top.DestroyEntity</title>
<g id="a_node4"><a xlink:href="top.DestroyEntity.svg" xlink:title="top.DestroyEntity">
<ellipse fill="green" stroke="black" cx="576.14" cy="-18" rx="94.48" ry="18"/>
<text text-anchor="middle" x="576.14" y="-14.3" font-family="Times,serif" font-size="14.00">top.DestroyEntity</text>
</a>
</g>
</g>
<!-- top.Update&#45;&gt;top.DestroyEntity -->
<g id="edge3" class="edge">
<title>top.Update&#45;&gt;top.DestroyEntity</title>
<path fill="none" stroke="black" d="M384.61,-180.57C422.28,-148.8 505.21,-78.83 548.55,-42.28"/>
<polygon fill="black" stroke="black" points="551.02,-44.77 556.41,-35.65 546.51,-39.42 551.02,-44.77"/>
<text text-anchor="middle" x="551.41" y="-39.45" font-family="Times,serif" font-size="14.00">1</text>
</g>
</g>
</svg>
