<?xml version="1.0" encoding="UTF-8" standalone="no"?>
<!DOCTYPE svg PUBLIC "-//W3C//DTD SVG 1.1//EN"
 "http://www.w3.org/Graphics/SVG/1.1/DTD/svg11.dtd">
<!-- Generated by graphviz version 2.43.0 (0)
 -->
<!-- Title: tt_004.CheckEntityValid Pages: 1 -->
<svg width="554pt" height="224pt"
 viewBox="0.00 0.00 553.88 224.00" xmlns="http://www.w3.org/2000/svg" xmlns:xlink="http://www.w3.org/1999/xlink">
<g id="graph0" class="graph" transform="scale(1 1) rotate(0) translate(4 220)">
<title>tt_004.CheckEntityValid</title>
<polygon fill="white" stroke="transparent" points="-4,4 -4,-220 549.88,-220 549.88,4 -4,4"/>
<!-- tt_004.CheckEntityValid -->
<g id="node1" class="node">
<title>tt_004.CheckEntityValid</title>
<ellipse fill="green" stroke="black" cx="272.94" cy="-18" rx="123.48" ry="18"/>
<text text-anchor="middle" x="272.94" y="-14.3" font-family="Times,serif" font-size="14.00">tt_004.CheckEntityValid</text>
</g>
<!-- tt_004.func_us_801746BC -->
<g id="node2" class="node">
<title>tt_004.func_us_801746BC</title>
<g id="a_node2"><a xlink:href="tt_004.func_us_801746BC.svg" xlink:title="tt_004.func_us_801746BC">
<ellipse fill="green" stroke="black" cx="131.94" cy="-198" rx="131.88" ry="18"/>
<text text-anchor="middle" x="131.94" y="-194.3" font-family="Times,serif" font-size="14.00">tt_004.func_us_801746BC</text>
</a>
</g>
</g>
<!-- tt_004.func_us_801746BC&#45;&gt;tt_004.CheckEntityValid -->
<g id="edge1" class="edge">
<title>tt_004.func_us_801746BC&#45;&gt;tt_004.CheckEntityValid</title>
<path fill="none" stroke="black" d="M145.46,-179.93C170.41,-148.43 223.8,-81.03 252.94,-44.24"/>
<polygon fill="black" stroke="black" points="255.99,-46.03 259.46,-36.02 250.51,-41.68 255.99,-46.03"/>
<text text-anchor="middle" x="140.46" y="-168.73" font-family="Times,serif" font-size="14.00">1</text>
</g>
<!-- tt_004.func_us_80174B6C -->
<g id="node3" class="node">
<title>tt_004.func_us_80174B6C</title>
<g id="a_node3"><a xlink:href="tt_004.func_us_80174B6C.svg" xlink:title="tt_004.func_us_80174B6C">
<ellipse fill="red" stroke="black" cx="413.94" cy="-198" rx="131.88" ry="18"/>
<text text-anchor="middle" x="413.94" y="-194.3" font-family="Times,serif" font-size="14.00">tt_004.func_us_80174B6C</text>
</a>
</g>
</g>
<!-- tt_004.func_us_80174B6C&#45;&gt;tt_004.CheckEntityValid -->
<g id="edge2" class="edge">
<title>tt_004.func_us_80174B6C&#45;&gt;tt_004.CheckEntityValid</title>
<path fill="none" stroke="black" d="M400.42,-179.93C375.47,-148.43 322.08,-81.03 292.93,-44.24"/>
<polygon fill="black" stroke="black" points="295.37,-41.68 286.42,-36.02 289.88,-46.03 295.37,-41.68"/>
<text text-anchor="middle" x="395.42" y="-168.73" font-family="Times,serif" font-size="14.00">2</text>
</g>
</g>
</svg>
