<?xml version="1.0" encoding="UTF-8" standalone="no"?>
<!DOCTYPE svg PUBLIC "-//W3C//DTD SVG 1.1//EN"
 "http://www.w3.org/Graphics/SVG/1.1/DTD/svg11.dtd">
<!-- Generated by graphviz version 2.43.0 (0)
 -->
<!-- Title: tt_004.GetTargetPositionWithDistanceBuffer Pages: 1 -->
<svg width="1704pt" height="224pt"
 viewBox="0.00 0.00 1704.18 224.00" xmlns="http://www.w3.org/2000/svg" xmlns:xlink="http://www.w3.org/1999/xlink">
<g id="graph0" class="graph" transform="scale(1 1) rotate(0) translate(4 220)">
<title>tt_004.GetTargetPositionWithDistanceBuffer</title>
<polygon fill="white" stroke="transparent" points="-4,4 -4,-220 1700.18,-220 1700.18,4 -4,4"/>
<!-- tt_004.GetTargetPositionWithDistanceBuffer -->
<g id="node1" class="node">
<title>tt_004.GetTargetPositionWithDistanceBuffer</title>
<ellipse fill="green" stroke="black" cx="868.19" cy="-18" rx="218.26" ry="18"/>
<text text-anchor="middle" x="868.19" y="-14.3" font-family="Times,serif" font-size="14.00">tt_004.GetTargetPositionWithDistanceBuffer</text>
</g>
<!-- tt_004.UpdateServantDefault -->
<g id="node2" class="node">
<title>tt_004.UpdateServantDefault</title>
<g id="a_node2"><a xlink:href="tt_004.UpdateServantDefault.svg" xlink:title="tt_004.UpdateServantDefault">
<ellipse fill="green" stroke="black" cx="148.19" cy="-198" rx="148.37" ry="18"/>
<text text-anchor="middle" x="148.19" y="-194.3" font-family="Times,serif" font-size="14.00">tt_004.UpdateServantDefault</text>
</a>
</g>
</g>
<!-- tt_004.UpdateServantDefault&#45;&gt;tt_004.GetTargetPositionWithDistanceBuffer -->
<g id="edge1" class="edge">
<title>tt_004.UpdateServantDefault&#45;&gt;tt_004.GetTargetPositionWithDistanceBuffer</title>
<path fill="none" stroke="black" d="M210.51,-181.59C342.45,-148.97 649.59,-73.04 792.51,-37.71"/>
<polygon fill="black" stroke="black" points="793.65,-41.03 802.52,-35.24 791.97,-34.24 793.65,-41.03"/>
<text text-anchor="middle" x="205.51" y="-170.39" font-family="Times,serif" font-size="14.00">2</text>
</g>
<!-- tt_004.func_us_801746BC -->
<g id="node3" class="node">
<title>tt_004.func_us_801746BC</title>
<g id="a_node3"><a xlink:href="tt_004.func_us_801746BC.svg" xlink:title="tt_004.func_us_801746BC">
<ellipse fill="green" stroke="black" cx="446.19" cy="-198" rx="131.88" ry="18"/>
<text text-anchor="middle" x="446.19" y="-194.3" font-family="Times,serif" font-size="14.00">tt_004.func_us_801746BC</text>
</a>
</g>
</g>
<!-- tt_004.func_us_801746BC&#45;&gt;tt_004.GetTargetPositionWithDistanceBuffer -->
<g id="edge2" class="edge">
<title>tt_004.func_us_801746BC&#45;&gt;tt_004.GetTargetPositionWithDistanceBuffer</title>
<path fill="none" stroke="black" d="M484.76,-180.73C561.65,-148.3 733.95,-75.62 818.9,-39.79"/>
<polygon fill="black" stroke="black" points="820.47,-42.92 828.33,-35.81 817.75,-36.47 820.47,-42.92"/>
<text text-anchor="middle" x="479.76" y="-169.53" font-family="Times,serif" font-size="14.00">1</text>
</g>
<!-- tt_004.func_us_80174B6C -->
<g id="node4" class="node">
<title>tt_004.func_us_80174B6C</title>
<g id="a_node4"><a xlink:href="tt_004.func_us_80174B6C.svg" xlink:title="tt_004.func_us_80174B6C">
<ellipse fill="red" stroke="black" cx="728.19" cy="-198" rx="131.88" ry="18"/>
<text text-anchor="middle" x="728.19" y="-194.3" font-family="Times,serif" font-size="14.00">tt_004.func_us_80174B6C</text>
</a>
</g>
</g>
<!-- tt_004.func_us_80174B6C&#45;&gt;tt_004.GetTargetPositionWithDistanceBuffer -->
<g id="edge3" class="edge">
<title>tt_004.func_us_80174B6C&#45;&gt;tt_004.GetTargetPositionWithDistanceBuffer</title>
<path fill="none" stroke="black" d="M741.61,-179.93C766.38,-148.43 819.4,-81.03 848.33,-44.24"/>
<polygon fill="black" stroke="black" points="851.37,-46.04 854.8,-36.02 845.87,-41.71 851.37,-46.04"/>
<text text-anchor="middle" x="732.11" y="-168.73" font-family="Times,serif" font-size="14.00">10</text>
</g>
<!-- tt_004.func_us_801758C8 -->
<g id="node5" class="node">
<title>tt_004.func_us_801758C8</title>
<g id="a_node5"><a xlink:href="tt_004.func_us_801758C8.svg" xlink:title="tt_004.func_us_801758C8">
<ellipse fill="red" stroke="black" cx="1009.19" cy="-198" rx="130.78" ry="18"/>
<text text-anchor="middle" x="1009.19" y="-194.3" font-family="Times,serif" font-size="14.00">tt_004.func_us_801758C8</text>
</a>
</g>
</g>
<!-- tt_004.func_us_801758C8&#45;&gt;tt_004.GetTargetPositionWithDistanceBuffer -->
<g id="edge4" class="edge">
<title>tt_004.func_us_801758C8&#45;&gt;tt_004.GetTargetPositionWithDistanceBuffer</title>
<path fill="none" stroke="black" d="M995.67,-179.93C970.72,-148.43 917.33,-81.03 888.18,-44.24"/>
<polygon fill="black" stroke="black" points="890.62,-41.68 881.67,-36.02 885.13,-46.03 890.62,-41.68"/>
<text text-anchor="middle" x="990.67" y="-168.73" font-family="Times,serif" font-size="14.00">2</text>
</g>
<!-- tt_004.func_us_80176270 -->
<g id="node6" class="node">
<title>tt_004.func_us_80176270</title>
<g id="a_node6"><a xlink:href="tt_004.func_us_80176270.svg" xlink:title="tt_004.func_us_80176270">
<ellipse fill="green" stroke="black" cx="1288.19" cy="-198" rx="129.98" ry="18"/>
<text text-anchor="middle" x="1288.19" y="-194.3" font-family="Times,serif" font-size="14.00">tt_004.func_us_80176270</text>
</a>
</g>
</g>
<!-- tt_004.func_us_80176270&#45;&gt;tt_004.GetTargetPositionWithDistanceBuffer -->
<g id="edge5" class="edge">
<title>tt_004.func_us_80176270&#45;&gt;tt_004.GetTargetPositionWithDistanceBuffer</title>
<path fill="none" stroke="black" d="M1249.8,-180.73C1173.27,-148.3 1001.79,-75.62 917.24,-39.79"/>
<polygon fill="black" stroke="black" points="918.43,-36.49 907.86,-35.81 915.7,-42.94 918.43,-36.49"/>
<text text-anchor="middle" x="1244.8" y="-169.53" font-family="Times,serif" font-size="14.00">2</text>
</g>
<!-- tt_004.func_us_80176674 -->
<g id="node7" class="node">
<title>tt_004.func_us_80176674</title>
<g id="a_node7"><a xlink:href="tt_004.func_us_80176674.svg" xlink:title="tt_004.func_us_80176674">
<ellipse fill="green" stroke="black" cx="1566.19" cy="-198" rx="129.98" ry="18"/>
<text text-anchor="middle" x="1566.19" y="-194.3" font-family="Times,serif" font-size="14.00">tt_004.func_us_80176674</text>
</a>
</g>
</g>
<!-- tt_004.func_us_80176674&#45;&gt;tt_004.GetTargetPositionWithDistanceBuffer -->
<g id="edge6" class="edge">
<title>tt_004.func_us_80176674&#45;&gt;tt_004.GetTargetPositionWithDistanceBuffer</title>
<path fill="none" stroke="black" d="M1506.98,-181.9C1379.76,-149.46 1080.63,-73.18 941.61,-37.72"/>
<polygon fill="black" stroke="black" points="942.43,-34.32 931.88,-35.24 940.7,-41.1 942.43,-34.32"/>
<text text-anchor="middle" x="1501.98" y="-170.7" font-family="Times,serif" font-size="14.00">2</text>
</g>
</g>
</svg>
