<?xml version="1.0" encoding="UTF-8" standalone="no"?>
<!DOCTYPE svg PUBLIC "-//W3C//DTD SVG 1.1//EN"
 "http://www.w3.org/Graphics/SVG/1.1/DTD/svg11.dtd">
<!-- Generated by graphviz version 2.43.0 (0)
 -->
<!-- Title: tt_004.CalculateDistance Pages: 1 -->
<svg width="272pt" height="404pt"
 viewBox="0.00 0.00 271.88 404.00" xmlns="http://www.w3.org/2000/svg" xmlns:xlink="http://www.w3.org/1999/xlink">
<g id="graph0" class="graph" transform="scale(1 1) rotate(0) translate(4 400)">
<title>tt_004.CalculateDistance</title>
<polygon fill="white" stroke="transparent" points="-4,4 -4,-400 267.88,-400 267.88,4 -4,4"/>
<!-- tt_004.CalculateDistance -->
<g id="node1" class="node">
<title>tt_004.CalculateDistance</title>
<ellipse fill="green" stroke="black" cx="131.94" cy="-198" rx="127.28" ry="18"/>
<text text-anchor="middle" x="131.94" y="-194.3" font-family="Times,serif" font-size="14.00">tt_004.CalculateDistance</text>
</g>
<!-- SquareRoot12 -->
<g id="node2" class="node">
<title>SquareRoot12</title>
<g id="a_node2"><a xlink:href="SquareRoot12.svg" xlink:title="SquareRoot12">
<ellipse fill="lightblue" stroke="black" cx="131.94" cy="-18" rx="77.19" ry="18"/>
<text text-anchor="middle" x="131.94" y="-14.3" font-family="Times,serif" font-size="14.00">SquareRoot12</text>
</a>
</g>
</g>
<!-- tt_004.CalculateDistance&#45;&gt;SquareRoot12 -->
<g id="edge1" class="edge">
<title>tt_004.CalculateDistance&#45;&gt;SquareRoot12</title>
<path fill="none" stroke="black" d="M131.94,-179.93C131.94,-148.97 131.94,-83.3 131.94,-46.13"/>
<polygon fill="black" stroke="black" points="135.44,-46.02 131.94,-36.02 128.44,-46.02 135.44,-46.02"/>
<text text-anchor="middle" x="126.94" y="-39.82" font-family="Times,serif" font-size="14.00">1</text>
</g>
<!-- tt_004.func_us_801746BC -->
<g id="node3" class="node">
<title>tt_004.func_us_801746BC</title>
<g id="a_node3"><a xlink:href="tt_004.func_us_801746BC.svg" xlink:title="tt_004.func_us_801746BC">
<ellipse fill="green" stroke="black" cx="131.94" cy="-378" rx="131.88" ry="18"/>
<text text-anchor="middle" x="131.94" y="-374.3" font-family="Times,serif" font-size="14.00">tt_004.func_us_801746BC</text>
</a>
</g>
</g>
<!-- tt_004.func_us_801746BC&#45;&gt;tt_004.CalculateDistance -->
<g id="edge2" class="edge">
<title>tt_004.func_us_801746BC&#45;&gt;tt_004.CalculateDistance</title>
<path fill="none" stroke="black" d="M131.94,-359.93C131.94,-328.97 131.94,-263.3 131.94,-226.13"/>
<polygon fill="black" stroke="black" points="135.44,-226.02 131.94,-216.02 128.44,-226.02 135.44,-226.02"/>
<text text-anchor="middle" x="126.94" y="-348.73" font-family="Times,serif" font-size="14.00">1</text>
</g>
</g>
</svg>
