<?xml version="1.0" encoding="UTF-8" standalone="no"?>
<!DOCTYPE svg PUBLIC "-//W3C//DTD SVG 1.1//EN"
 "http://www.w3.org/Graphics/SVG/1.1/DTD/svg11.dtd">
<!-- Generated by graphviz version 2.43.0 (0)
 -->
<!-- Title: tt_001.func_us_80171568 Pages: 1 -->
<svg width="304pt" height="404pt"
 viewBox="0.00 0.00 304.37 404.00" xmlns="http://www.w3.org/2000/svg" xmlns:xlink="http://www.w3.org/1999/xlink">
<g id="graph0" class="graph" transform="scale(1 1) rotate(0) translate(4 400)">
<title>tt_001.func_us_80171568</title>
<polygon fill="white" stroke="transparent" points="-4,4 -4,-400 300.37,-400 300.37,4 -4,4"/>
<!-- tt_001.func_us_80171568 -->
<g id="node1" class="node">
<title>tt_001.func_us_80171568</title>
<ellipse fill="green" stroke="black" cx="148.19" cy="-198" rx="129.98" ry="18"/>
<text text-anchor="middle" x="148.19" y="-194.3" font-family="Times,serif" font-size="14.00">tt_001.func_us_80171568</text>
</g>
<!-- tt_001.DestroyEntity -->
<g id="node2" class="node">
<title>tt_001.DestroyEntity</title>
<g id="a_node2"><a xlink:href="tt_001.DestroyEntity.svg" xlink:title="tt_001.DestroyEntity">
<ellipse fill="green" stroke="black" cx="148.19" cy="-18" rx="108.58" ry="18"/>
<text text-anchor="middle" x="148.19" y="-14.3" font-family="Times,serif" font-size="14.00">tt_001.DestroyEntity</text>
</a>
</g>
</g>
<!-- tt_001.func_us_80171568&#45;&gt;tt_001.DestroyEntity -->
<g id="edge1" class="edge">
<title>tt_001.func_us_80171568&#45;&gt;tt_001.DestroyEntity</title>
<path fill="none" stroke="black" d="M148.19,-179.93C148.19,-148.97 148.19,-83.3 148.19,-46.13"/>
<polygon fill="black" stroke="black" points="151.69,-46.02 148.19,-36.02 144.69,-46.02 151.69,-46.02"/>
<text text-anchor="middle" x="143.19" y="-39.82" font-family="Times,serif" font-size="14.00">1</text>
</g>
<!-- tt_001.UpdateServantDefault -->
<g id="node3" class="node">
<title>tt_001.UpdateServantDefault</title>
<g id="a_node3"><a xlink:href="tt_001.UpdateServantDefault.svg" xlink:title="tt_001.UpdateServantDefault">
<ellipse fill="green" stroke="black" cx="148.19" cy="-378" rx="148.37" ry="18"/>
<text text-anchor="middle" x="148.19" y="-374.3" font-family="Times,serif" font-size="14.00">tt_001.UpdateServantDefault</text>
</a>
</g>
</g>
<!-- tt_001.UpdateServantDefault&#45;&gt;tt_001.func_us_80171568 -->
<g id="edge2" class="edge">
<title>tt_001.UpdateServantDefault&#45;&gt;tt_001.func_us_80171568</title>
<path fill="none" stroke="black" d="M148.19,-359.93C148.19,-328.97 148.19,-263.3 148.19,-226.13"/>
<polygon fill="black" stroke="black" points="151.69,-226.02 148.19,-216.02 144.69,-226.02 151.69,-226.02"/>
<text text-anchor="middle" x="143.19" y="-348.73" font-family="Times,serif" font-size="14.00">2</text>
</g>
</g>
</svg>
