<?xml version="1.0" encoding="UTF-8" standalone="no"?>
<!DOCTYPE svg PUBLIC "-//W3C//DTD SVG 1.1//EN"
 "http://www.w3.org/Graphics/SVG/1.1/DTD/svg11.dtd">
<!-- Generated by graphviz version 2.43.0 (0)
 -->
<!-- Title: tt_003.func_us_801765A0 Pages: 1 -->
<svg width="1028pt" height="224pt"
 viewBox="0.00 0.00 1028.38 224.00" xmlns="http://www.w3.org/2000/svg" xmlns:xlink="http://www.w3.org/1999/xlink">
<g id="graph0" class="graph" transform="scale(1 1) rotate(0) translate(4 220)">
<title>tt_003.func_us_801765A0</title>
<polygon fill="white" stroke="transparent" points="-4,4 -4,-220 1024.38,-220 1024.38,4 -4,4"/>
<!-- tt_003.func_us_801765A0 -->
<g id="node1" class="node">
<title>tt_003.func_us_801765A0</title>
<ellipse fill="green" stroke="black" cx="489.59" cy="-198" rx="129.98" ry="18"/>
<text text-anchor="middle" x="489.59" y="-194.3" font-family="Times,serif" font-size="14.00">tt_003.func_us_801765A0</text>
</g>
<!-- dra.GetServantStats -->
<g id="node2" class="node">
<title>dra.GetServantStats</title>
<g id="a_node2"><a xlink:href="dra.GetServantStats.svg" xlink:title="dra.GetServantStats">
<ellipse fill="green" stroke="black" cx="106.59" cy="-18" rx="106.68" ry="18"/>
<text text-anchor="middle" x="106.59" y="-14.3" font-family="Times,serif" font-size="14.00">dra.GetServantStats</text>
</a>
</g>
</g>
<!-- tt_003.func_us_801765A0&#45;&gt;dra.GetServantStats -->
<g id="edge1" class="edge">
<title>tt_003.func_us_801765A0&#45;&gt;dra.GetServantStats</title>
<path fill="none" stroke="black" d="M454.25,-180.57C384.1,-147.97 227.45,-75.17 150.69,-39.5"/>
<polygon fill="black" stroke="black" points="151.84,-36.17 141.3,-35.13 148.89,-42.52 151.84,-36.17"/>
<text text-anchor="middle" x="136.3" y="-38.93" font-family="Times,serif" font-size="14.00">1</text>
</g>
<!-- tt_003.CreateEventEntity -->
<g id="node3" class="node">
<title>tt_003.CreateEventEntity</title>
<g id="a_node3"><a xlink:href="tt_003.CreateEventEntity.svg" xlink:title="tt_003.CreateEventEntity">
<ellipse fill="green" stroke="black" cx="361.59" cy="-18" rx="130.78" ry="18"/>
<text text-anchor="middle" x="361.59" y="-14.3" font-family="Times,serif" font-size="14.00">tt_003.CreateEventEntity</text>
</a>
</g>
</g>
<!-- tt_003.func_us_801765A0&#45;&gt;tt_003.CreateEventEntity -->
<g id="edge2" class="edge">
<title>tt_003.func_us_801765A0&#45;&gt;tt_003.CreateEventEntity</title>
<path fill="none" stroke="black" d="M477.32,-179.93C454.67,-148.43 406.2,-81.03 379.74,-44.24"/>
<polygon fill="black" stroke="black" points="382.51,-42.09 373.83,-36.02 376.82,-46.18 382.51,-42.09"/>
<text text-anchor="middle" x="368.83" y="-39.82" font-family="Times,serif" font-size="14.00">1</text>
</g>
<!-- tt_003.DestroyEntity -->
<g id="node4" class="node">
<title>tt_003.DestroyEntity</title>
<g id="a_node4"><a xlink:href="tt_003.DestroyEntity.svg" xlink:title="tt_003.DestroyEntity">
<ellipse fill="green" stroke="black" cx="618.59" cy="-18" rx="108.58" ry="18"/>
<text text-anchor="middle" x="618.59" y="-14.3" font-family="Times,serif" font-size="14.00">tt_003.DestroyEntity</text>
</a>
</g>
</g>
<!-- tt_003.func_us_801765A0&#45;&gt;tt_003.DestroyEntity -->
<g id="edge3" class="edge">
<title>tt_003.func_us_801765A0&#45;&gt;tt_003.DestroyEntity</title>
<path fill="none" stroke="black" d="M501.96,-179.93C524.79,-148.43 573.63,-81.03 600.3,-44.24"/>
<polygon fill="black" stroke="black" points="603.22,-46.17 606.26,-36.02 597.56,-42.06 603.22,-46.17"/>
<text text-anchor="middle" x="601.26" y="-39.82" font-family="Times,serif" font-size="14.00">1</text>
</g>
<!-- tt_003.ServantUpdateAnim -->
<g id="node5" class="node">
<title>tt_003.ServantUpdateAnim</title>
<g id="a_node5"><a xlink:href="tt_003.ServantUpdateAnim.svg" xlink:title="tt_003.ServantUpdateAnim">
<ellipse fill="green" stroke="black" cx="882.59" cy="-18" rx="137.58" ry="18"/>
<text text-anchor="middle" x="882.59" y="-14.3" font-family="Times,serif" font-size="14.00">tt_003.ServantUpdateAnim</text>
</a>
</g>
</g>
<!-- tt_003.func_us_801765A0&#45;&gt;tt_003.ServantUpdateAnim -->
<g id="edge4" class="edge">
<title>tt_003.func_us_801765A0&#45;&gt;tt_003.ServantUpdateAnim</title>
<path fill="none" stroke="black" d="M525.86,-180.57C597.8,-147.99 758.41,-75.24 837.22,-39.55"/>
<polygon fill="black" stroke="black" points="838.74,-42.7 846.41,-35.39 835.86,-36.32 838.74,-42.7"/>
<text text-anchor="middle" x="841.41" y="-39.19" font-family="Times,serif" font-size="14.00">1</text>
</g>
</g>
</svg>
