<?xml version="1.0" encoding="UTF-8" standalone="no"?>
<!DOCTYPE svg PUBLIC "-//W3C//DTD SVG 1.1//EN"
 "http://www.w3.org/Graphics/SVG/1.1/DTD/svg11.dtd">
<!-- Generated by graphviz version 2.43.0 (0)
 -->
<!-- Title: tt_003.UpdateServantBasicAttack Pages: 1 -->
<svg width="1874pt" height="224pt"
 viewBox="0.00 0.00 1874.08 224.00" xmlns="http://www.w3.org/2000/svg" xmlns:xlink="http://www.w3.org/1999/xlink">
<g id="graph0" class="graph" transform="scale(1 1) rotate(0) translate(4 220)">
<title>tt_003.UpdateServantBasicAttack</title>
<polygon fill="white" stroke="transparent" points="-4,4 -4,-220 1870.08,-220 1870.08,4 -4,4"/>
<!-- tt_003.UpdateServantBasicAttack -->
<g id="node1" class="node">
<title>tt_003.UpdateServantBasicAttack</title>
<ellipse fill="green" stroke="black" cx="730.59" cy="-198" rx="168.97" ry="18"/>
<text text-anchor="middle" x="730.59" y="-194.3" font-family="Times,serif" font-size="14.00">tt_003.UpdateServantBasicAttack</text>
</g>
<!-- dra.GetServantStats -->
<g id="node2" class="node">
<title>dra.GetServantStats</title>
<g id="a_node2"><a xlink:href="dra.GetServantStats.svg" xlink:title="dra.GetServantStats">
<ellipse fill="green" stroke="black" cx="106.59" cy="-18" rx="106.68" ry="18"/>
<text text-anchor="middle" x="106.59" y="-14.3" font-family="Times,serif" font-size="14.00">dra.GetServantStats</text>
</a>
</g>
</g>
<!-- tt_003.UpdateServantBasicAttack&#45;&gt;dra.GetServantStats -->
<g id="edge1" class="edge">
<title>tt_003.UpdateServantBasicAttack&#45;&gt;dra.GetServantStats</title>
<path fill="none" stroke="black" d="M674.39,-180.97C557.69,-147.68 289.89,-71.29 168.46,-36.65"/>
<polygon fill="black" stroke="black" points="169.15,-33.21 158.58,-33.83 167.23,-39.94 169.15,-33.21"/>
<text text-anchor="middle" x="153.58" y="-37.63" font-family="Times,serif" font-size="14.00">1</text>
</g>
<!-- dra.PlaySfx -->
<g id="node3" class="node">
<title>dra.PlaySfx</title>
<g id="a_node3"><a xlink:href="dra.PlaySfx.svg" xlink:title="dra.PlaySfx">
<ellipse fill="green" stroke="black" cx="295.59" cy="-18" rx="64.19" ry="18"/>
<text text-anchor="middle" x="295.59" y="-14.3" font-family="Times,serif" font-size="14.00">dra.PlaySfx</text>
</a>
</g>
</g>
<!-- tt_003.UpdateServantBasicAttack&#45;&gt;dra.PlaySfx -->
<g id="edge2" class="edge">
<title>tt_003.UpdateServantBasicAttack&#45;&gt;dra.PlaySfx</title>
<path fill="none" stroke="black" d="M690.06,-180.41C608.31,-146.97 424.3,-71.67 339.68,-37.04"/>
<polygon fill="black" stroke="black" points="340.93,-33.77 330.35,-33.22 338.28,-40.25 340.93,-33.77"/>
<text text-anchor="middle" x="325.35" y="-37.02" font-family="Times,serif" font-size="14.00">1</text>
</g>
<!-- rand -->
<g id="node4" class="node">
<title>rand</title>
<g id="a_node4"><a xlink:href="rand.svg" xlink:title="rand">
<ellipse fill="lightblue" stroke="black" cx="410.59" cy="-18" rx="32.49" ry="18"/>
<text text-anchor="middle" x="410.59" y="-14.3" font-family="Times,serif" font-size="14.00">rand</text>
</a>
</g>
</g>
<!-- tt_003.UpdateServantBasicAttack&#45;&gt;rand -->
<g id="edge3" class="edge">
<title>tt_003.UpdateServantBasicAttack&#45;&gt;rand</title>
<path fill="none" stroke="black" d="M700.49,-180.25C639.81,-146.5 503.38,-70.61 441.8,-36.36"/>
<polygon fill="black" stroke="black" points="443.37,-33.23 432.93,-31.42 439.97,-39.34 443.37,-33.23"/>
<text text-anchor="middle" x="427.93" y="-35.22" font-family="Times,serif" font-size="14.00">3</text>
</g>
<!-- tt_003.CheckEntityValid -->
<g id="node5" class="node">
<title>tt_003.CheckEntityValid</title>
<g id="a_node5"><a xlink:href="tt_003.CheckEntityValid.svg" xlink:title="tt_003.CheckEntityValid">
<ellipse fill="green" stroke="black" cx="584.59" cy="-18" rx="123.48" ry="18"/>
<text text-anchor="middle" x="584.59" y="-14.3" font-family="Times,serif" font-size="14.00">tt_003.CheckEntityValid</text>
</a>
</g>
</g>
<!-- tt_003.UpdateServantBasicAttack&#45;&gt;tt_003.CheckEntityValid -->
<g id="edge4" class="edge">
<title>tt_003.UpdateServantBasicAttack&#45;&gt;tt_003.CheckEntityValid</title>
<path fill="none" stroke="black" d="M716.59,-179.93C690.65,-148.3 635.01,-80.46 604.91,-43.78"/>
<polygon fill="black" stroke="black" points="607.6,-41.53 598.55,-36.02 602.18,-45.97 607.6,-41.53"/>
<text text-anchor="middle" x="593.55" y="-39.82" font-family="Times,serif" font-size="14.00">1</text>
</g>
<!-- tt_003.ExecuteAbilityInitialize -->
<g id="node6" class="node">
<title>tt_003.ExecuteAbilityInitialize</title>
<g id="a_node6"><a xlink:href="tt_003.ExecuteAbilityInitialize.svg" xlink:title="tt_003.ExecuteAbilityInitialize">
<ellipse fill="green" stroke="black" cx="877.59" cy="-18" rx="151.37" ry="18"/>
<text text-anchor="middle" x="877.59" y="-14.3" font-family="Times,serif" font-size="14.00">tt_003.ExecuteAbilityInitialize</text>
</a>
</g>
</g>
<!-- tt_003.UpdateServantBasicAttack&#45;&gt;tt_003.ExecuteAbilityInitialize -->
<g id="edge5" class="edge">
<title>tt_003.UpdateServantBasicAttack&#45;&gt;tt_003.ExecuteAbilityInitialize</title>
<path fill="none" stroke="black" d="M744.69,-179.93C770.81,-148.3 826.83,-80.46 857.13,-43.78"/>
<polygon fill="black" stroke="black" points="859.87,-45.95 863.54,-36.02 854.47,-41.5 859.87,-45.95"/>
<text text-anchor="middle" x="858.54" y="-39.82" font-family="Times,serif" font-size="14.00">1</text>
</g>
<!-- tt_003.FindValidTarget -->
<g id="node7" class="node">
<title>tt_003.FindValidTarget</title>
<g id="a_node7"><a xlink:href="tt_003.FindValidTarget.svg" xlink:title="tt_003.FindValidTarget">
<ellipse fill="green" stroke="black" cx="1164.59" cy="-18" rx="117.78" ry="18"/>
<text text-anchor="middle" x="1164.59" y="-14.3" font-family="Times,serif" font-size="14.00">tt_003.FindValidTarget</text>
</a>
</g>
</g>
<!-- tt_003.UpdateServantBasicAttack&#45;&gt;tt_003.FindValidTarget -->
<g id="edge6" class="edge">
<title>tt_003.UpdateServantBasicAttack&#45;&gt;tt_003.FindValidTarget</title>
<path fill="none" stroke="black" d="M771.03,-180.41C851.15,-147.56 1029.73,-74.31 1116.04,-38.91"/>
<polygon fill="black" stroke="black" points="1117.43,-42.13 1125.35,-35.09 1114.77,-35.65 1117.43,-42.13"/>
<text text-anchor="middle" x="1120.35" y="-38.89" font-family="Times,serif" font-size="14.00">2</text>
</g>
<!-- tt_003.ServantUpdateAnim -->
<g id="node8" class="node">
<title>tt_003.ServantUpdateAnim</title>
<g id="a_node8"><a xlink:href="tt_003.ServantUpdateAnim.svg" xlink:title="tt_003.ServantUpdateAnim">
<ellipse fill="green" stroke="black" cx="1437.59" cy="-18" rx="137.58" ry="18"/>
<text text-anchor="middle" x="1437.59" y="-14.3" font-family="Times,serif" font-size="14.00">tt_003.ServantUpdateAnim</text>
</a>
</g>
</g>
<!-- tt_003.UpdateServantBasicAttack&#45;&gt;tt_003.ServantUpdateAnim -->
<g id="edge7" class="edge">
<title>tt_003.UpdateServantBasicAttack&#45;&gt;tt_003.ServantUpdateAnim</title>
<path fill="none" stroke="black" d="M793.33,-181.2C924.88,-148.08 1228.79,-71.57 1366.95,-36.79"/>
<polygon fill="black" stroke="black" points="1368.16,-40.09 1377,-34.25 1366.45,-33.3 1368.16,-40.09"/>
<text text-anchor="middle" x="1372" y="-38.05" font-family="Times,serif" font-size="14.00">1</text>
</g>
<!-- tt_003.SetAnimationFrame -->
<g id="node9" class="node">
<title>tt_003.SetAnimationFrame</title>
<g id="a_node9"><a xlink:href="tt_003.SetAnimationFrame.svg" xlink:title="tt_003.SetAnimationFrame">
<ellipse fill="green" stroke="black" cx="1729.59" cy="-18" rx="136.48" ry="18"/>
<text text-anchor="middle" x="1729.59" y="-14.3" font-family="Times,serif" font-size="14.00">tt_003.SetAnimationFrame</text>
</a>
</g>
</g>
<!-- tt_003.UpdateServantBasicAttack&#45;&gt;tt_003.SetAnimationFrame -->
<g id="edge8" class="edge">
<title>tt_003.UpdateServantBasicAttack&#45;&gt;tt_003.SetAnimationFrame</title>
<path fill="none" stroke="black" d="M813.19,-182.28C999.42,-149.1 1450.63,-68.7 1641.74,-34.65"/>
<polygon fill="black" stroke="black" points="1642.51,-38.07 1651.74,-32.87 1641.28,-31.18 1642.51,-38.07"/>
<text text-anchor="middle" x="1646.74" y="-36.67" font-family="Times,serif" font-size="14.00">1</text>
</g>
</g>
</svg>
