<?xml version="1.0" encoding="UTF-8" standalone="no"?>
<!DOCTYPE svg PUBLIC "-//W3C//DTD SVG 1.1//EN"
 "http://www.w3.org/Graphics/SVG/1.1/DTD/svg11.dtd">
<!-- Generated by graphviz version 2.43.0 (0)
 -->
<!-- Title: tt_000.ProcessEvent Pages: 1 -->
<svg width="738pt" height="404pt"
 viewBox="0.00 0.00 737.68 404.00" xmlns="http://www.w3.org/2000/svg" xmlns:xlink="http://www.w3.org/1999/xlink">
<g id="graph0" class="graph" transform="scale(1 1) rotate(0) translate(4 400)">
<title>tt_000.ProcessEvent</title>
<polygon fill="white" stroke="transparent" points="-4,4 -4,-400 733.68,-400 733.68,4 -4,4"/>
<!-- tt_000.ProcessEvent -->
<g id="node1" class="node">
<title>tt_000.ProcessEvent</title>
<ellipse fill="green" stroke="black" cx="365.99" cy="-198" rx="106.68" ry="18"/>
<text text-anchor="middle" x="365.99" y="-194.3" font-family="Times,serif" font-size="14.00">tt_000.ProcessEvent</text>
</g>
<!-- tt_000.CreateEventEntity -->
<g id="node2" class="node">
<title>tt_000.CreateEventEntity</title>
<g id="a_node2"><a xlink:href="tt_000.CreateEventEntity.svg" xlink:title="tt_000.CreateEventEntity">
<ellipse fill="green" stroke="black" cx="365.99" cy="-18" rx="130.78" ry="18"/>
<text text-anchor="middle" x="365.99" y="-14.3" font-family="Times,serif" font-size="14.00">tt_000.CreateEventEntity</text>
</a>
</g>
</g>
<!-- tt_000.ProcessEvent&#45;&gt;tt_000.CreateEventEntity -->
<g id="edge1" class="edge">
<title>tt_000.ProcessEvent&#45;&gt;tt_000.CreateEventEntity</title>
<path fill="none" stroke="black" d="M365.99,-179.93C365.99,-148.97 365.99,-83.3 365.99,-46.13"/>
<polygon fill="black" stroke="black" points="369.49,-46.02 365.99,-36.02 362.49,-46.02 369.49,-46.02"/>
<text text-anchor="middle" x="360.99" y="-39.82" font-family="Times,serif" font-size="14.00">2</text>
</g>
<!-- tt_000.func_80171ED4 -->
<g id="node3" class="node">
<title>tt_000.func_80171ED4</title>
<g id="a_node3"><a xlink:href="tt_000.func_80171ED4.svg" xlink:title="tt_000.func_80171ED4">
<ellipse fill="green" stroke="black" cx="116.99" cy="-378" rx="116.98" ry="18"/>
<text text-anchor="middle" x="116.99" y="-374.3" font-family="Times,serif" font-size="14.00">tt_000.func_80171ED4</text>
</a>
</g>
</g>
<!-- tt_000.func_80171ED4&#45;&gt;tt_000.ProcessEvent -->
<g id="edge2" class="edge">
<title>tt_000.func_80171ED4&#45;&gt;tt_000.ProcessEvent</title>
<path fill="none" stroke="black" d="M140.41,-360.25C185.39,-328.1 283.86,-257.71 334.52,-221.5"/>
<polygon fill="black" stroke="black" points="336.71,-224.23 342.81,-215.57 332.64,-218.54 336.71,-224.23"/>
<text text-anchor="middle" x="135.41" y="-349.05" font-family="Times,serif" font-size="14.00">1</text>
</g>
<!-- tt_000.func_80172120 -->
<g id="node4" class="node">
<title>tt_000.func_80172120</title>
<g id="a_node4"><a xlink:href="tt_000.func_80172120.svg" xlink:title="tt_000.func_80172120">
<ellipse fill="red" stroke="black" cx="365.99" cy="-378" rx="114.28" ry="18"/>
<text text-anchor="middle" x="365.99" y="-374.3" font-family="Times,serif" font-size="14.00">tt_000.func_80172120</text>
</a>
</g>
</g>
<!-- tt_000.func_80172120&#45;&gt;tt_000.ProcessEvent -->
<g id="edge3" class="edge">
<title>tt_000.func_80172120&#45;&gt;tt_000.ProcessEvent</title>
<path fill="none" stroke="black" d="M365.99,-359.93C365.99,-328.97 365.99,-263.3 365.99,-226.13"/>
<polygon fill="black" stroke="black" points="369.49,-226.02 365.99,-216.02 362.49,-226.02 369.49,-226.02"/>
<text text-anchor="middle" x="360.99" y="-348.73" font-family="Times,serif" font-size="14.00">1</text>
</g>
<!-- tt_000.func_80172C30 -->
<g id="node5" class="node">
<title>tt_000.func_80172C30</title>
<g id="a_node5"><a xlink:href="tt_000.func_80172C30.svg" xlink:title="tt_000.func_80172C30">
<ellipse fill="red" stroke="black" cx="613.99" cy="-378" rx="115.88" ry="18"/>
<text text-anchor="middle" x="613.99" y="-374.3" font-family="Times,serif" font-size="14.00">tt_000.func_80172C30</text>
</a>
</g>
</g>
<!-- tt_000.func_80172C30&#45;&gt;tt_000.ProcessEvent -->
<g id="edge4" class="edge">
<title>tt_000.func_80172C30&#45;&gt;tt_000.ProcessEvent</title>
<path fill="none" stroke="black" d="M590.66,-360.25C545.98,-328.18 448.29,-258.07 397.72,-221.78"/>
<polygon fill="black" stroke="black" points="399.6,-218.82 389.44,-215.83 395.52,-224.51 399.6,-218.82"/>
<text text-anchor="middle" x="585.66" y="-349.05" font-family="Times,serif" font-size="14.00">1</text>
</g>
</g>
</svg>
