<?xml version="1.0" encoding="UTF-8" standalone="no"?>
<!DOCTYPE svg PUBLIC "-//W3C//DTD SVG 1.1//EN"
 "http://www.w3.org/Graphics/SVG/1.1/DTD/svg11.dtd">
<!-- Generated by graphviz version 2.43.0 (0)
 -->
<!-- Title: tt_001.ProcessEvent Pages: 1 -->
<svg width="269pt" height="404pt"
 viewBox="0.00 0.00 269.28 404.00" xmlns="http://www.w3.org/2000/svg" xmlns:xlink="http://www.w3.org/1999/xlink">
<g id="graph0" class="graph" transform="scale(1 1) rotate(0) translate(4 400)">
<title>tt_001.ProcessEvent</title>
<polygon fill="white" stroke="transparent" points="-4,4 -4,-400 265.28,-400 265.28,4 -4,4"/>
<!-- tt_001.ProcessEvent -->
<g id="node1" class="node">
<title>tt_001.ProcessEvent</title>
<ellipse fill="green" stroke="black" cx="130.64" cy="-198" rx="106.68" ry="18"/>
<text text-anchor="middle" x="130.64" y="-194.3" font-family="Times,serif" font-size="14.00">tt_001.ProcessEvent</text>
</g>
<!-- tt_001.CreateEventEntity -->
<g id="node2" class="node">
<title>tt_001.CreateEventEntity</title>
<g id="a_node2"><a xlink:href="tt_001.CreateEventEntity.svg" xlink:title="tt_001.CreateEventEntity">
<ellipse fill="green" stroke="black" cx="130.64" cy="-18" rx="130.78" ry="18"/>
<text text-anchor="middle" x="130.64" y="-14.3" font-family="Times,serif" font-size="14.00">tt_001.CreateEventEntity</text>
</a>
</g>
</g>
<!-- tt_001.ProcessEvent&#45;&gt;tt_001.CreateEventEntity -->
<g id="edge1" class="edge">
<title>tt_001.ProcessEvent&#45;&gt;tt_001.CreateEventEntity</title>
<path fill="none" stroke="black" d="M130.64,-179.93C130.64,-148.97 130.64,-83.3 130.64,-46.13"/>
<polygon fill="black" stroke="black" points="134.14,-46.02 130.64,-36.02 127.14,-46.02 134.14,-46.02"/>
<text text-anchor="middle" x="125.64" y="-39.82" font-family="Times,serif" font-size="14.00">2</text>
</g>
<!-- tt_001.func_us_80171864 -->
<g id="node3" class="node">
<title>tt_001.func_us_80171864</title>
<g id="a_node3"><a xlink:href="tt_001.func_us_80171864.svg" xlink:title="tt_001.func_us_80171864">
<ellipse fill="green" stroke="black" cx="130.64" cy="-378" rx="129.98" ry="18"/>
<text text-anchor="middle" x="130.64" y="-374.3" font-family="Times,serif" font-size="14.00">tt_001.func_us_80171864</text>
</a>
</g>
</g>
<!-- tt_001.func_us_80171864&#45;&gt;tt_001.ProcessEvent -->
<g id="edge2" class="edge">
<title>tt_001.func_us_80171864&#45;&gt;tt_001.ProcessEvent</title>
<path fill="none" stroke="black" d="M130.64,-359.93C130.64,-328.97 130.64,-263.3 130.64,-226.13"/>
<polygon fill="black" stroke="black" points="134.14,-226.02 130.64,-216.02 127.14,-226.02 134.14,-226.02"/>
<text text-anchor="middle" x="125.64" y="-348.73" font-family="Times,serif" font-size="14.00">1</text>
</g>
</g>
</svg>
