<?xml version="1.0" encoding="UTF-8" standalone="no"?>
<!DOCTYPE svg PUBLIC "-//W3C//DTD SVG 1.1//EN"
 "http://www.w3.org/Graphics/SVG/1.1/DTD/svg11.dtd">
<!-- Generated by graphviz version 2.43.0 (0)
 -->
<!-- Title: tt_001.ServantInit Pages: 1 -->
<svg width="816pt" height="224pt"
 viewBox="0.00 0.00 816.39 224.00" xmlns="http://www.w3.org/2000/svg" xmlns:xlink="http://www.w3.org/1999/xlink">
<g id="graph0" class="graph" transform="scale(1 1) rotate(0) translate(4 220)">
<title>tt_001.ServantInit</title>
<polygon fill="white" stroke="transparent" points="-4,4 -4,-220 812.39,-220 812.39,4 -4,4"/>
<!-- tt_001.ServantInit -->
<g id="node1" class="node">
<title>tt_001.ServantInit</title>
<ellipse fill="green" stroke="black" cx="357.74" cy="-198" rx="96.38" ry="18"/>
<text text-anchor="middle" x="357.74" y="-194.3" font-family="Times,serif" font-size="14.00">tt_001.ServantInit</text>
</g>
<!-- LoadImage -->
<g id="node2" class="node">
<title>LoadImage</title>
<g id="a_node2"><a xlink:href="LoadImage.svg" xlink:title="LoadImage">
<ellipse fill="lightblue" stroke="black" cx="61.74" cy="-18" rx="61.99" ry="18"/>
<text text-anchor="middle" x="61.74" y="-14.3" font-family="Times,serif" font-size="14.00">LoadImage</text>
</a>
</g>
</g>
<!-- tt_001.ServantInit&#45;&gt;LoadImage -->
<g id="edge1" class="edge">
<title>tt_001.ServantInit&#45;&gt;LoadImage</title>
<path fill="none" stroke="black" d="M330.43,-180.57C276.38,-148.07 155.91,-75.63 96.39,-39.83"/>
<polygon fill="black" stroke="black" points="98.09,-36.77 87.72,-34.62 94.49,-42.77 98.09,-36.77"/>
<text text-anchor="middle" x="82.72" y="-38.42" font-family="Times,serif" font-size="14.00">1</text>
</g>
<!-- dra.func_8011A3AC -->
<g id="node3" class="node">
<title>dra.func_8011A3AC</title>
<g id="a_node3"><a xlink:href="dra.func_8011A3AC.svg" xlink:title="dra.func_8011A3AC">
<ellipse fill="green" stroke="black" cx="243.74" cy="-18" rx="102.88" ry="18"/>
<text text-anchor="middle" x="243.74" y="-14.3" font-family="Times,serif" font-size="14.00">dra.func_8011A3AC</text>
</a>
</g>
</g>
<!-- tt_001.ServantInit&#45;&gt;dra.func_8011A3AC -->
<g id="edge2" class="edge">
<title>tt_001.ServantInit&#45;&gt;dra.func_8011A3AC</title>
<path fill="none" stroke="black" d="M346.81,-179.93C326.73,-148.57 283.84,-81.6 260.21,-44.71"/>
<polygon fill="black" stroke="black" points="262.98,-42.55 254.64,-36.02 257.09,-46.32 262.98,-42.55"/>
<text text-anchor="middle" x="249.64" y="-39.82" font-family="Times,serif" font-size="14.00">1</text>
</g>
<!-- tt_001.DestroyEntity -->
<g id="node4" class="node">
<title>tt_001.DestroyEntity</title>
<g id="a_node4"><a xlink:href="tt_001.DestroyEntity.svg" xlink:title="tt_001.DestroyEntity">
<ellipse fill="green" stroke="black" cx="472.74" cy="-18" rx="108.58" ry="18"/>
<text text-anchor="middle" x="472.74" y="-14.3" font-family="Times,serif" font-size="14.00">tt_001.DestroyEntity</text>
</a>
</g>
</g>
<!-- tt_001.ServantInit&#45;&gt;tt_001.DestroyEntity -->
<g id="edge3" class="edge">
<title>tt_001.ServantInit&#45;&gt;tt_001.DestroyEntity</title>
<path fill="none" stroke="black" d="M368.77,-179.93C389.04,-148.57 432.3,-81.6 456.14,-44.71"/>
<polygon fill="black" stroke="black" points="459.26,-46.31 461.75,-36.02 453.38,-42.52 459.26,-46.31"/>
<text text-anchor="middle" x="456.75" y="-39.82" font-family="Times,serif" font-size="14.00">1</text>
</g>
<!-- tt_001.ServantUnk0 -->
<g id="node5" class="node">
<title>tt_001.ServantUnk0</title>
<g id="a_node5"><a xlink:href="tt_001.ServantUnk0.svg" xlink:title="tt_001.ServantUnk0">
<ellipse fill="green" stroke="black" cx="703.74" cy="-18" rx="104.78" ry="18"/>
<text text-anchor="middle" x="703.74" y="-14.3" font-family="Times,serif" font-size="14.00">tt_001.ServantUnk0</text>
</a>
</g>
</g>
<!-- tt_001.ServantInit&#45;&gt;tt_001.ServantUnk0 -->
<g id="edge4" class="edge">
<title>tt_001.ServantInit&#45;&gt;tt_001.ServantUnk0</title>
<path fill="none" stroke="black" d="M389.06,-180.89C451.94,-148.54 593.52,-75.71 663.3,-39.81"/>
<polygon fill="black" stroke="black" points="664.96,-42.89 672.25,-35.2 661.76,-36.66 664.96,-42.89"/>
<text text-anchor="middle" x="667.25" y="-39" font-family="Times,serif" font-size="14.00">1</text>
</g>
</g>
</svg>
