<?xml version="1.0" encoding="UTF-8" standalone="no"?>
<!DOCTYPE svg PUBLIC "-//W3C//DTD SVG 1.1//EN"
 "http://www.w3.org/Graphics/SVG/1.1/DTD/svg11.dtd">
<!-- Generated by graphviz version 2.43.0 (0)
 -->
<!-- Title: tt_000.UpdateBatAttackMode Pages: 1 -->
<svg width="3314pt" height="224pt"
 viewBox="0.00 0.00 3313.98 224.00" xmlns="http://www.w3.org/2000/svg" xmlns:xlink="http://www.w3.org/1999/xlink">
<g id="graph0" class="graph" transform="scale(1 1) rotate(0) translate(4 220)">
<title>tt_000.UpdateBatAttackMode</title>
<polygon fill="white" stroke="transparent" points="-4,4 -4,-220 3309.98,-220 3309.98,4 -4,4"/>
<!-- tt_000.UpdateBatAttackMode -->
<g id="node1" class="node">
<title>tt_000.UpdateBatAttackMode</title>
<ellipse fill="red" stroke="black" cx="1452.34" cy="-198" rx="149.47" ry="18"/>
<text text-anchor="middle" x="1452.34" y="-194.3" font-family="Times,serif" font-size="14.00">tt_000.UpdateBatAttackMode</text>
</g>
<!-- SquareRoot12 -->
<g id="node2" class="node">
<title>SquareRoot12</title>
<g id="a_node2"><a xlink:href="SquareRoot12.svg" xlink:title="SquareRoot12">
<ellipse fill="lightblue" stroke="black" cx="77.34" cy="-18" rx="77.19" ry="18"/>
<text text-anchor="middle" x="77.34" y="-14.3" font-family="Times,serif" font-size="14.00">SquareRoot12</text>
</a>
</g>
</g>
<!-- tt_000.UpdateBatAttackMode&#45;&gt;SquareRoot12 -->
<g id="edge1" class="edge">
<title>tt_000.UpdateBatAttackMode&#45;&gt;SquareRoot12</title>
<path fill="none" stroke="black" d="M1341.62,-185.85C1118.15,-162.74 597.52,-105.94 163.34,-36 156.78,-34.94 149.96,-33.75 143.15,-32.5"/>
<polygon fill="black" stroke="black" points="143.69,-29.04 133.22,-30.64 142.4,-35.92 143.69,-29.04"/>
<text text-anchor="middle" x="128.22" y="-34.44" font-family="Times,serif" font-size="14.00">1</text>
</g>
<!-- dra.CreateEntFactoryFromEntity -->
<g id="node3" class="node">
<title>dra.CreateEntFactoryFromEntity</title>
<g id="a_node3"><a xlink:href="dra.CreateEntFactoryFromEntity.svg" xlink:title="dra.CreateEntFactoryFromEntity">
<ellipse fill="green" stroke="black" cx="338.34" cy="-18" rx="165.97" ry="18"/>
<text text-anchor="middle" x="338.34" y="-14.3" font-family="Times,serif" font-size="14.00">dra.CreateEntFactoryFromEntity</text>
</a>
</g>
</g>
<!-- tt_000.UpdateBatAttackMode&#45;&gt;dra.CreateEntFactoryFromEntity -->
<g id="edge2" class="edge">
<title>tt_000.UpdateBatAttackMode&#45;&gt;dra.CreateEntFactoryFromEntity</title>
<path fill="none" stroke="black" d="M1366.32,-183.25C1162.86,-150.74 652.98,-69.27 437.23,-34.8"/>
<polygon fill="black" stroke="black" points="437.61,-31.32 427.19,-33.2 436.51,-38.23 437.61,-31.32"/>
<text text-anchor="middle" x="422.19" y="-37" font-family="Times,serif" font-size="14.00">1</text>
</g>
<!-- dra.GetServantStats -->
<g id="node4" class="node">
<title>dra.GetServantStats</title>
<g id="a_node4"><a xlink:href="dra.GetServantStats.svg" xlink:title="dra.GetServantStats">
<ellipse fill="green" stroke="black" cx="628.34" cy="-18" rx="106.68" ry="18"/>
<text text-anchor="middle" x="628.34" y="-14.3" font-family="Times,serif" font-size="14.00">dra.GetServantStats</text>
</a>
</g>
</g>
<!-- tt_000.UpdateBatAttackMode&#45;&gt;dra.GetServantStats -->
<g id="edge3" class="edge">
<title>tt_000.UpdateBatAttackMode&#45;&gt;dra.GetServantStats</title>
<path fill="none" stroke="black" d="M1382.8,-181.98C1228.47,-148.64 858.58,-68.73 701.21,-34.74"/>
<polygon fill="black" stroke="black" points="701.67,-31.26 691.15,-32.57 700.19,-38.1 701.67,-31.26"/>
<text text-anchor="middle" x="686.15" y="-36.37" font-family="Times,serif" font-size="14.00">1</text>
</g>
<!-- dra.PlaySfx -->
<g id="node5" class="node">
<title>dra.PlaySfx</title>
<g id="a_node5"><a xlink:href="dra.PlaySfx.svg" xlink:title="dra.PlaySfx">
<ellipse fill="green" stroke="black" cx="817.34" cy="-18" rx="64.19" ry="18"/>
<text text-anchor="middle" x="817.34" y="-14.3" font-family="Times,serif" font-size="14.00">dra.PlaySfx</text>
</a>
</g>
</g>
<!-- tt_000.UpdateBatAttackMode&#45;&gt;dra.PlaySfx -->
<g id="edge4" class="edge">
<title>tt_000.UpdateBatAttackMode&#45;&gt;dra.PlaySfx</title>
<path fill="none" stroke="black" d="M1396.27,-181.28C1275.08,-147.31 990.1,-67.43 871.06,-34.06"/>
<polygon fill="black" stroke="black" points="871.66,-30.59 861.09,-31.26 869.77,-37.33 871.66,-30.59"/>
<text text-anchor="middle" x="856.09" y="-35.06" font-family="Times,serif" font-size="14.00">1</text>
</g>
<!-- dra.UpdateAnim -->
<g id="node6" class="node">
<title>dra.UpdateAnim</title>
<g id="a_node6"><a xlink:href="dra.UpdateAnim.svg" xlink:title="dra.UpdateAnim">
<ellipse fill="green" stroke="black" cx="986.34" cy="-18" rx="87.18" ry="18"/>
<text text-anchor="middle" x="986.34" y="-14.3" font-family="Times,serif" font-size="14.00">dra.UpdateAnim</text>
</a>
</g>
</g>
<!-- tt_000.UpdateBatAttackMode&#45;&gt;dra.UpdateAnim -->
<g id="edge5" class="edge">
<title>tt_000.UpdateBatAttackMode&#45;&gt;dra.UpdateAnim</title>
<path fill="none" stroke="black" d="M1409.75,-180.73C1323.26,-147.69 1127.46,-72.9 1035.63,-37.82"/>
<polygon fill="black" stroke="black" points="1036.6,-34.45 1026.01,-34.15 1034.1,-40.99 1036.6,-34.45"/>
<text text-anchor="middle" x="1021.01" y="-37.95" font-family="Times,serif" font-size="14.00">1</text>
</g>
<!-- rand -->
<g id="node7" class="node">
<title>rand</title>
<g id="a_node7"><a xlink:href="rand.svg" xlink:title="rand">
<ellipse fill="lightblue" stroke="black" cx="1124.34" cy="-18" rx="32.49" ry="18"/>
<text text-anchor="middle" x="1124.34" y="-14.3" font-family="Times,serif" font-size="14.00">rand</text>
</a>
</g>
</g>
<!-- tt_000.UpdateBatAttackMode&#45;&gt;rand -->
<g id="edge6" class="edge">
<title>tt_000.UpdateBatAttackMode&#45;&gt;rand</title>
<path fill="none" stroke="black" d="M1421.49,-180.25C1359.14,-146.42 1218.77,-70.24 1155.87,-36.11"/>
<polygon fill="black" stroke="black" points="1157.28,-32.89 1146.82,-31.2 1153.94,-39.04 1157.28,-32.89"/>
<text text-anchor="middle" x="1141.82" y="-35" font-family="Times,serif" font-size="14.00">1</text>
</g>
<!-- tt_000.CreateAdditionalBats -->
<g id="node8" class="node">
<title>tt_000.CreateAdditionalBats</title>
<g id="a_node8"><a xlink:href="tt_000.CreateAdditionalBats.svg" xlink:title="tt_000.CreateAdditionalBats">
<ellipse fill="green" stroke="black" cx="1317.34" cy="-18" rx="142.97" ry="18"/>
<text text-anchor="middle" x="1317.34" y="-14.3" font-family="Times,serif" font-size="14.00">tt_000.CreateAdditionalBats</text>
</a>
</g>
</g>
<!-- tt_000.UpdateBatAttackMode&#45;&gt;tt_000.CreateAdditionalBats -->
<g id="edge7" class="edge">
<title>tt_000.UpdateBatAttackMode&#45;&gt;tt_000.CreateAdditionalBats</title>
<path fill="none" stroke="black" d="M1439.4,-179.93C1415.51,-148.43 1364.39,-81.03 1336.49,-44.24"/>
<polygon fill="black" stroke="black" points="1339.08,-41.87 1330.25,-36.02 1333.5,-46.1 1339.08,-41.87"/>
<text text-anchor="middle" x="1325.25" y="-39.82" font-family="Times,serif" font-size="14.00">1</text>
</g>
<!-- tt_000.DestroyEntity -->
<g id="node9" class="node">
<title>tt_000.DestroyEntity</title>
<g id="a_node9"><a xlink:href="tt_000.DestroyEntity.svg" xlink:title="tt_000.DestroyEntity">
<ellipse fill="green" stroke="black" cx="1587.34" cy="-18" rx="108.58" ry="18"/>
<text text-anchor="middle" x="1587.34" y="-14.3" font-family="Times,serif" font-size="14.00">tt_000.DestroyEntity</text>
</a>
</g>
</g>
<!-- tt_000.UpdateBatAttackMode&#45;&gt;tt_000.DestroyEntity -->
<g id="edge8" class="edge">
<title>tt_000.UpdateBatAttackMode&#45;&gt;tt_000.DestroyEntity</title>
<path fill="none" stroke="black" d="M1465.29,-179.93C1489.18,-148.43 1540.29,-81.03 1568.2,-44.24"/>
<polygon fill="black" stroke="black" points="1571.18,-46.1 1574.44,-36.02 1565.61,-41.87 1571.18,-46.1"/>
<text text-anchor="middle" x="1569.44" y="-39.82" font-family="Times,serif" font-size="14.00">1</text>
</g>
<!-- tt_000.IsMovementAllowed -->
<g id="node10" class="node">
<title>tt_000.IsMovementAllowed</title>
<g id="a_node10"><a xlink:href="tt_000.IsMovementAllowed.svg" xlink:title="tt_000.IsMovementAllowed">
<ellipse fill="green" stroke="black" cx="1851.34" cy="-18" rx="137.58" ry="18"/>
<text text-anchor="middle" x="1851.34" y="-14.3" font-family="Times,serif" font-size="14.00">tt_000.IsMovementAllowed</text>
</a>
</g>
</g>
<!-- tt_000.UpdateBatAttackMode&#45;&gt;tt_000.IsMovementAllowed -->
<g id="edge9" class="edge">
<title>tt_000.UpdateBatAttackMode&#45;&gt;tt_000.IsMovementAllowed</title>
<path fill="none" stroke="black" d="M1489.52,-180.41C1562.67,-147.78 1725.12,-75.31 1805.07,-39.64"/>
<polygon fill="black" stroke="black" points="1806.7,-42.75 1814.4,-35.48 1803.84,-36.36 1806.7,-42.75"/>
<text text-anchor="middle" x="1809.4" y="-39.28" font-family="Times,serif" font-size="14.00">1</text>
</g>
<!-- tt_000.ProcessEvent -->
<g id="node11" class="node">
<title>tt_000.ProcessEvent</title>
<g id="a_node11"><a xlink:href="tt_000.ProcessEvent.svg" xlink:title="tt_000.ProcessEvent">
<ellipse fill="green" stroke="black" cx="2113.34" cy="-18" rx="106.68" ry="18"/>
<text text-anchor="middle" x="2113.34" y="-14.3" font-family="Times,serif" font-size="14.00">tt_000.ProcessEvent</text>
</a>
</g>
</g>
<!-- tt_000.UpdateBatAttackMode&#45;&gt;tt_000.ProcessEvent -->
<g id="edge10" class="edge">
<title>tt_000.UpdateBatAttackMode&#45;&gt;tt_000.ProcessEvent</title>
<path fill="none" stroke="black" d="M1510.42,-181.36C1633.85,-148.12 1921.43,-70.68 2049.66,-36.15"/>
<polygon fill="black" stroke="black" points="2050.6,-39.52 2059.35,-33.54 2048.78,-32.76 2050.6,-39.52"/>
<text text-anchor="middle" x="2054.35" y="-37.34" font-family="Times,serif" font-size="14.00">1</text>
</g>
<!-- tt_000.SetEntityAnimation -->
<g id="node12" class="node">
<title>tt_000.SetEntityAnimation</title>
<g id="a_node12"><a xlink:href="tt_000.SetEntityAnimation.svg" xlink:title="tt_000.SetEntityAnimation">
<ellipse fill="green" stroke="black" cx="2373.34" cy="-18" rx="135.38" ry="18"/>
<text text-anchor="middle" x="2373.34" y="-14.3" font-family="Times,serif" font-size="14.00">tt_000.SetEntityAnimation</text>
</a>
</g>
</g>
<!-- tt_000.UpdateBatAttackMode&#45;&gt;tt_000.SetEntityAnimation -->
<g id="edge11" class="edge">
<title>tt_000.UpdateBatAttackMode&#45;&gt;tt_000.SetEntityAnimation</title>
<path fill="none" stroke="black" d="M1527.71,-182.43C1698.18,-149.49 2112.33,-69.45 2290.06,-35.1"/>
<polygon fill="black" stroke="black" points="2290.99,-38.48 2300.14,-33.15 2289.66,-31.61 2290.99,-38.48"/>
<text text-anchor="middle" x="2295.14" y="-36.95" font-family="Times,serif" font-size="14.00">3</text>
</g>
<!-- tt_000.SwitchModeInitialize -->
<g id="node13" class="node">
<title>tt_000.SwitchModeInitialize</title>
<g id="a_node13"><a xlink:href="tt_000.SwitchModeInitialize.svg" xlink:title="tt_000.SwitchModeInitialize">
<ellipse fill="green" stroke="black" cx="2668.34" cy="-18" rx="141.88" ry="18"/>
<text text-anchor="middle" x="2668.34" y="-14.3" font-family="Times,serif" font-size="14.00">tt_000.SwitchModeInitialize</text>
</a>
</g>
</g>
<!-- tt_000.UpdateBatAttackMode&#45;&gt;tt_000.SwitchModeInitialize -->
<g id="edge12" class="edge">
<title>tt_000.UpdateBatAttackMode&#45;&gt;tt_000.SwitchModeInitialize</title>
<path fill="none" stroke="black" d="M1543.24,-183.69C1766,-151.09 2337.71,-67.4 2569,-33.54"/>
<polygon fill="black" stroke="black" points="2569.7,-36.98 2579.09,-32.06 2568.69,-30.05 2569.7,-36.98"/>
<text text-anchor="middle" x="2574.09" y="-35.86" font-family="Times,serif" font-size="14.00">1</text>
</g>
<!-- tt_000.UpdatePrimitives -->
<g id="node14" class="node">
<title>tt_000.UpdatePrimitives</title>
<g id="a_node14"><a xlink:href="tt_000.UpdatePrimitives.svg" xlink:title="tt_000.UpdatePrimitives">
<ellipse fill="green" stroke="black" cx="2953.34" cy="-18" rx="125.38" ry="18"/>
<text text-anchor="middle" x="2953.34" y="-14.3" font-family="Times,serif" font-size="14.00">tt_000.UpdatePrimitives</text>
</a>
</g>
</g>
<!-- tt_000.UpdateBatAttackMode&#45;&gt;tt_000.UpdatePrimitives -->
<g id="edge13" class="edge">
<title>tt_000.UpdateBatAttackMode&#45;&gt;tt_000.UpdatePrimitives</title>
<path fill="none" stroke="black" d="M1556.56,-185.05C1785.24,-158.75 2348.21,-93.63 2819.34,-36 2830.33,-34.66 2841.81,-33.23 2853.24,-31.8"/>
<polygon fill="black" stroke="black" points="2853.77,-35.26 2863.26,-30.54 2852.9,-28.31 2853.77,-35.26"/>
<text text-anchor="middle" x="2858.26" y="-34.34" font-family="Times,serif" font-size="14.00">2</text>
</g>
<!-- tt_000.unused_1560 -->
<g id="node15" class="node">
<title>tt_000.unused_1560</title>
<g id="a_node15"><a xlink:href="tt_000.unused_1560.svg" xlink:title="tt_000.unused_1560">
<ellipse fill="green" stroke="black" cx="3201.34" cy="-18" rx="104.78" ry="18"/>
<text text-anchor="middle" x="3201.34" y="-14.3" font-family="Times,serif" font-size="14.00">tt_000.unused_1560</text>
</a>
</g>
</g>
<!-- tt_000.UpdateBatAttackMode&#45;&gt;tt_000.unused_1560 -->
<g id="edge14" class="edge">
<title>tt_000.UpdateBatAttackMode&#45;&gt;tt_000.unused_1560</title>
<path fill="none" stroke="black" d="M1572.32,-187.25C1843.01,-164.8 2521.74,-105.98 3087.34,-36 3096.78,-34.83 3106.63,-33.51 3116.43,-32.14"/>
<polygon fill="black" stroke="black" points="3117.2,-35.57 3126.6,-30.69 3116.21,-28.64 3117.2,-35.57"/>
<text text-anchor="middle" x="3121.6" y="-34.49" font-family="Times,serif" font-size="14.00">1</text>
</g>
</g>
</svg>
