<?xml version="1.0" encoding="UTF-8" standalone="no"?>
<!DOCTYPE svg PUBLIC "-//W3C//DTD SVG 1.1//EN"
 "http://www.w3.org/Graphics/SVG/1.1/DTD/svg11.dtd">
<!-- Generated by graphviz version 2.43.0 (0)
 -->
<!-- Title: tt_001.UpdateServantDefault Pages: 1 -->
<svg width="3065pt" height="224pt"
 viewBox="0.00 0.00 3065.13 224.00" xmlns="http://www.w3.org/2000/svg" xmlns:xlink="http://www.w3.org/1999/xlink">
<g id="graph0" class="graph" transform="scale(1 1) rotate(0) translate(4 220)">
<title>tt_001.UpdateServantDefault</title>
<polygon fill="white" stroke="transparent" points="-4,4 -4,-220 3061.13,-220 3061.13,4 -4,4"/>
<!-- tt_001.UpdateServantDefault -->
<g id="node1" class="node">
<title>tt_001.UpdateServantDefault</title>
<ellipse fill="green" stroke="black" cx="1259.49" cy="-198" rx="148.37" ry="18"/>
<text text-anchor="middle" x="1259.49" y="-194.3" font-family="Times,serif" font-size="14.00">tt_001.UpdateServantDefault</text>
</g>
<!-- D_us_80170028 -->
<g id="node2" class="node">
<title>D_us_80170028</title>
<g id="a_node2"><a xlink:href="D_us_80170028.svg" xlink:title="D_us_80170028">
<ellipse fill="lightblue" stroke="black" cx="84.49" cy="-18" rx="84.49" ry="18"/>
<text text-anchor="middle" x="84.49" y="-14.3" font-family="Times,serif" font-size="14.00">D_us_80170028</text>
</a>
</g>
</g>
<!-- tt_001.UpdateServantDefault&#45;&gt;D_us_80170028 -->
<g id="edge1" class="edge">
<title>tt_001.UpdateServantDefault&#45;&gt;D_us_80170028</title>
<path fill="none" stroke="black" d="M1165.71,-184.03C978.01,-157.86 542.86,-96.07 178.49,-36 171.15,-34.79 163.5,-33.48 155.87,-32.15"/>
<polygon fill="black" stroke="black" points="156.34,-28.68 145.88,-30.39 155.12,-35.57 156.34,-28.68"/>
<text text-anchor="middle" x="140.88" y="-34.19" font-family="Times,serif" font-size="14.00">1</text>
</g>
<!-- D_us_8017002C -->
<g id="node3" class="node">
<title>D_us_8017002C</title>
<g id="a_node3"><a xlink:href="D_us_8017002C.svg" xlink:title="D_us_8017002C">
<ellipse fill="lightblue" stroke="black" cx="272.49" cy="-18" rx="85.29" ry="18"/>
<text text-anchor="middle" x="272.49" y="-14.3" font-family="Times,serif" font-size="14.00">D_us_8017002C</text>
</a>
</g>
</g>
<!-- tt_001.UpdateServantDefault&#45;&gt;D_us_8017002C -->
<g id="edge2" class="edge">
<title>tt_001.UpdateServantDefault&#45;&gt;D_us_8017002C</title>
<path fill="none" stroke="black" d="M1180.35,-182.75C1024.54,-154.68 667.05,-90.27 366.49,-36 359.48,-34.73 352.17,-33.41 344.87,-32.09"/>
<polygon fill="black" stroke="black" points="345.4,-28.63 334.94,-30.3 344.15,-35.52 345.4,-28.63"/>
<text text-anchor="middle" x="329.94" y="-34.1" font-family="Times,serif" font-size="14.00">1</text>
</g>
<!-- dra.UpdateAnim -->
<g id="node4" class="node">
<title>dra.UpdateAnim</title>
<g id="a_node4"><a xlink:href="dra.UpdateAnim.svg" xlink:title="dra.UpdateAnim">
<ellipse fill="green" stroke="black" cx="462.49" cy="-18" rx="87.18" ry="18"/>
<text text-anchor="middle" x="462.49" y="-14.3" font-family="Times,serif" font-size="14.00">dra.UpdateAnim</text>
</a>
</g>
</g>
<!-- tt_001.UpdateServantDefault&#45;&gt;dra.UpdateAnim -->
<g id="edge3" class="edge">
<title>tt_001.UpdateServantDefault&#45;&gt;dra.UpdateAnim</title>
<path fill="none" stroke="black" d="M1191.88,-181.9C1041.15,-148.24 679.05,-67.37 529.18,-33.89"/>
<polygon fill="black" stroke="black" points="529.72,-30.43 519.19,-31.66 528.19,-37.26 529.72,-30.43"/>
<text text-anchor="middle" x="514.19" y="-35.46" font-family="Times,serif" font-size="14.00">1</text>
</g>
<!-- dra.func_8011A3AC -->
<g id="node5" class="node">
<title>dra.func_8011A3AC</title>
<g id="a_node5"><a xlink:href="dra.func_8011A3AC.svg" xlink:title="dra.func_8011A3AC">
<ellipse fill="green" stroke="black" cx="670.49" cy="-18" rx="102.88" ry="18"/>
<text text-anchor="middle" x="670.49" y="-14.3" font-family="Times,serif" font-size="14.00">dra.func_8011A3AC</text>
</a>
</g>
</g>
<!-- tt_001.UpdateServantDefault&#45;&gt;dra.func_8011A3AC -->
<g id="edge4" class="edge">
<title>tt_001.UpdateServantDefault&#45;&gt;dra.func_8011A3AC</title>
<path fill="none" stroke="black" d="M1206.96,-181.13C1097.24,-147.97 844.39,-71.55 729.37,-36.79"/>
<polygon fill="black" stroke="black" points="730.26,-33.4 719.67,-33.86 728.23,-40.11 730.26,-33.4"/>
<text text-anchor="middle" x="714.67" y="-37.66" font-family="Times,serif" font-size="14.00">2</text>
</g>
<!-- rsin -->
<g id="node6" class="node">
<title>rsin</title>
<g id="a_node6"><a xlink:href="rsin.svg" xlink:title="rsin">
<ellipse fill="lightblue" stroke="black" cx="819.49" cy="-18" rx="28.7" ry="18"/>
<text text-anchor="middle" x="819.49" y="-14.3" font-family="Times,serif" font-size="14.00">rsin</text>
</a>
</g>
</g>
<!-- tt_001.UpdateServantDefault&#45;&gt;rsin -->
<g id="edge5" class="edge">
<title>tt_001.UpdateServantDefault&#45;&gt;rsin</title>
<path fill="none" stroke="black" d="M1217.31,-180.74C1143.84,-152.29 987.8,-91.22 857.49,-36 855.44,-35.13 853.33,-34.22 851.2,-33.3"/>
<polygon fill="black" stroke="black" points="852.5,-30.04 841.93,-29.22 849.67,-36.45 852.5,-30.04"/>
<text text-anchor="middle" x="846.93" y="-33.02" font-family="Times,serif" font-size="14.00">1</text>
</g>
<!-- tt_001.CheckEntityValid -->
<g id="node7" class="node">
<title>tt_001.CheckEntityValid</title>
<g id="a_node7"><a xlink:href="tt_001.CheckEntityValid.svg" xlink:title="tt_001.CheckEntityValid">
<ellipse fill="green" stroke="black" cx="989.49" cy="-18" rx="123.48" ry="18"/>
<text text-anchor="middle" x="989.49" y="-14.3" font-family="Times,serif" font-size="14.00">tt_001.CheckEntityValid</text>
</a>
</g>
</g>
<!-- tt_001.UpdateServantDefault&#45;&gt;tt_001.CheckEntityValid -->
<g id="edge6" class="edge">
<title>tt_001.UpdateServantDefault&#45;&gt;tt_001.CheckEntityValid</title>
<path fill="none" stroke="black" d="M1234.09,-180.25C1185.35,-148.12 1078.65,-77.78 1023.7,-41.55"/>
<polygon fill="black" stroke="black" points="1025.3,-38.41 1015.02,-35.83 1021.45,-44.26 1025.3,-38.41"/>
<text text-anchor="middle" x="1010.02" y="-39.63" font-family="Times,serif" font-size="14.00">1</text>
</g>
<!-- tt_001.CreateChildEntity -->
<g id="node8" class="node">
<title>tt_001.CreateChildEntity</title>
<g id="a_node8"><a xlink:href="tt_001.CreateChildEntity.svg" xlink:title="tt_001.CreateChildEntity">
<ellipse fill="green" stroke="black" cx="1259.49" cy="-18" rx="128.08" ry="18"/>
<text text-anchor="middle" x="1259.49" y="-14.3" font-family="Times,serif" font-size="14.00">tt_001.CreateChildEntity</text>
</a>
</g>
</g>
<!-- tt_001.UpdateServantDefault&#45;&gt;tt_001.CreateChildEntity -->
<g id="edge7" class="edge">
<title>tt_001.UpdateServantDefault&#45;&gt;tt_001.CreateChildEntity</title>
<path fill="none" stroke="black" d="M1259.49,-179.93C1259.49,-148.97 1259.49,-83.3 1259.49,-46.13"/>
<polygon fill="black" stroke="black" points="1262.99,-46.02 1259.49,-36.02 1255.99,-46.02 1262.99,-46.02"/>
<text text-anchor="middle" x="1254.49" y="-39.82" font-family="Times,serif" font-size="14.00">2</text>
</g>
<!-- tt_001.FindValidTarget -->
<g id="node9" class="node">
<title>tt_001.FindValidTarget</title>
<g id="a_node9"><a xlink:href="tt_001.FindValidTarget.svg" xlink:title="tt_001.FindValidTarget">
<ellipse fill="green" stroke="black" cx="1523.49" cy="-18" rx="117.78" ry="18"/>
<text text-anchor="middle" x="1523.49" y="-14.3" font-family="Times,serif" font-size="14.00">tt_001.FindValidTarget</text>
</a>
</g>
</g>
<!-- tt_001.UpdateServantDefault&#45;&gt;tt_001.FindValidTarget -->
<g id="edge8" class="edge">
<title>tt_001.UpdateServantDefault&#45;&gt;tt_001.FindValidTarget</title>
<path fill="none" stroke="black" d="M1284.33,-180.25C1331.99,-148.12 1436.32,-77.78 1490.05,-41.55"/>
<polygon fill="black" stroke="black" points="1492.19,-44.32 1498.53,-35.83 1488.28,-38.52 1492.19,-44.32"/>
<text text-anchor="middle" x="1493.53" y="-39.63" font-family="Times,serif" font-size="14.00">1</text>
</g>
<!-- tt_001.ProcessEvent -->
<g id="node10" class="node">
<title>tt_001.ProcessEvent</title>
<g id="a_node10"><a xlink:href="tt_001.ProcessEvent.svg" xlink:title="tt_001.ProcessEvent">
<ellipse fill="green" stroke="black" cx="1765.49" cy="-18" rx="106.68" ry="18"/>
<text text-anchor="middle" x="1765.49" y="-14.3" font-family="Times,serif" font-size="14.00">tt_001.ProcessEvent</text>
</a>
</g>
</g>
<!-- tt_001.UpdateServantDefault&#45;&gt;tt_001.ProcessEvent -->
<g id="edge9" class="edge">
<title>tt_001.UpdateServantDefault&#45;&gt;tt_001.ProcessEvent</title>
<path fill="none" stroke="black" d="M1305.74,-180.73C1399.59,-147.72 1611.95,-73.01 1711.76,-37.9"/>
<polygon fill="black" stroke="black" points="1713.08,-41.15 1721.35,-34.53 1710.75,-34.55 1713.08,-41.15"/>
<text text-anchor="middle" x="1716.35" y="-38.33" font-family="Times,serif" font-size="14.00">1</text>
</g>
<!-- tt_001.ServantUnk0 -->
<g id="node11" class="node">
<title>tt_001.ServantUnk0</title>
<g id="a_node11"><a xlink:href="tt_001.ServantUnk0.svg" xlink:title="tt_001.ServantUnk0">
<ellipse fill="green" stroke="black" cx="1994.49" cy="-18" rx="104.78" ry="18"/>
<text text-anchor="middle" x="1994.49" y="-14.3" font-family="Times,serif" font-size="14.00">tt_001.ServantUnk0</text>
</a>
</g>
</g>
<!-- tt_001.UpdateServantDefault&#45;&gt;tt_001.ServantUnk0 -->
<g id="edge10" class="edge">
<title>tt_001.UpdateServantDefault&#45;&gt;tt_001.ServantUnk0</title>
<path fill="none" stroke="black" d="M1322.79,-181.67C1460.26,-148.38 1785.07,-69.72 1926.6,-35.44"/>
<polygon fill="black" stroke="black" points="1927.58,-38.81 1936.47,-33.05 1925.93,-32 1927.58,-38.81"/>
<text text-anchor="middle" x="1931.47" y="-36.85" font-family="Times,serif" font-size="14.00">1</text>
</g>
<!-- tt_001.SetEntityAnimation -->
<g id="node12" class="node">
<title>tt_001.SetEntityAnimation</title>
<g id="a_node12"><a xlink:href="tt_001.SetEntityAnimation.svg" xlink:title="tt_001.SetEntityAnimation">
<ellipse fill="green" stroke="black" cx="2252.49" cy="-18" rx="135.38" ry="18"/>
<text text-anchor="middle" x="2252.49" y="-14.3" font-family="Times,serif" font-size="14.00">tt_001.SetEntityAnimation</text>
</a>
</g>
</g>
<!-- tt_001.UpdateServantDefault&#45;&gt;tt_001.SetEntityAnimation -->
<g id="edge11" class="edge">
<title>tt_001.UpdateServantDefault&#45;&gt;tt_001.SetEntityAnimation</title>
<path fill="none" stroke="black" d="M1339.08,-182.73C1522.64,-149.83 1974.54,-68.82 2165.29,-34.63"/>
<polygon fill="black" stroke="black" points="2166.05,-38.05 2175.28,-32.84 2164.82,-31.16 2166.05,-38.05"/>
<text text-anchor="middle" x="2170.28" y="-36.64" font-family="Times,serif" font-size="14.00">1</text>
</g>
<!-- tt_001.UpdateEntityVelocityTowardsTarget -->
<g id="node13" class="node">
<title>tt_001.UpdateEntityVelocityTowardsTarget</title>
<g id="a_node13"><a xlink:href="tt_001.UpdateEntityVelocityTowardsTarget.svg" xlink:title="tt_001.UpdateEntityVelocityTowardsTarget">
<ellipse fill="green" stroke="black" cx="2617.49" cy="-18" rx="211.76" ry="18"/>
<text text-anchor="middle" x="2617.49" y="-14.3" font-family="Times,serif" font-size="14.00">tt_001.UpdateEntityVelocityTowardsTarget</text>
</a>
</g>
</g>
<!-- tt_001.UpdateServantDefault&#45;&gt;tt_001.UpdateEntityVelocityTowardsTarget -->
<g id="edge12" class="edge">
<title>tt_001.UpdateServantDefault&#45;&gt;tt_001.UpdateEntityVelocityTowardsTarget</title>
<path fill="none" stroke="black" d="M1356.07,-184.34C1598.36,-152.58 2231.57,-69.58 2497.33,-34.75"/>
<polygon fill="black" stroke="black" points="2497.94,-38.2 2507.4,-33.43 2497.03,-31.26 2497.94,-38.2"/>
<text text-anchor="middle" x="2502.4" y="-37.23" font-family="Times,serif" font-size="14.00">3</text>
</g>
<!-- tt_001.unused_1560 -->
<g id="node14" class="node">
<title>tt_001.unused_1560</title>
<g id="a_node14"><a xlink:href="tt_001.unused_1560.svg" xlink:title="tt_001.unused_1560">
<ellipse fill="green" stroke="black" cx="2952.49" cy="-18" rx="104.78" ry="18"/>
<text text-anchor="middle" x="2952.49" y="-14.3" font-family="Times,serif" font-size="14.00">tt_001.unused_1560</text>
</a>
</g>
</g>
<!-- tt_001.UpdateServantDefault&#45;&gt;tt_001.unused_1560 -->
<g id="edge13" class="edge">
<title>tt_001.UpdateServantDefault&#45;&gt;tt_001.unused_1560</title>
<path fill="none" stroke="black" d="M1376.57,-186.94C1638.79,-163.99 2293.04,-104.44 2838.49,-36 2847.92,-34.82 2857.78,-33.49 2867.58,-32.11"/>
<polygon fill="black" stroke="black" points="2868.34,-35.53 2877.75,-30.65 2867.35,-28.6 2868.34,-35.53"/>
<text text-anchor="middle" x="2872.75" y="-34.45" font-family="Times,serif" font-size="14.00">1</text>
</g>
</g>
</svg>
