<?xml version="1.0" encoding="UTF-8" standalone="no"?>
<!DOCTYPE svg PUBLIC "-//W3C//DTD SVG 1.1//EN"
 "http://www.w3.org/Graphics/SVG/1.1/DTD/svg11.dtd">
<!-- Generated by graphviz version 2.43.0 (0)
 -->
<!-- Title: tt_003.ServantInit Pages: 1 -->
<svg width="1055pt" height="224pt"
 viewBox="0.00 0.00 1055.39 224.00" xmlns="http://www.w3.org/2000/svg" xmlns:xlink="http://www.w3.org/1999/xlink">
<g id="graph0" class="graph" transform="scale(1 1) rotate(0) translate(4 220)">
<title>tt_003.ServantInit</title>
<polygon fill="white" stroke="transparent" points="-4,4 -4,-220 1051.39,-220 1051.39,4 -4,4"/>
<!-- tt_003.ServantInit -->
<g id="node1" class="node">
<title>tt_003.ServantInit</title>
<ellipse fill="green" stroke="black" cx="480.74" cy="-198" rx="96.38" ry="18"/>
<text text-anchor="middle" x="480.74" y="-194.3" font-family="Times,serif" font-size="14.00">tt_003.ServantInit</text>
</g>
<!-- LoadImage -->
<g id="node2" class="node">
<title>LoadImage</title>
<g id="a_node2"><a xlink:href="LoadImage.svg" xlink:title="LoadImage">
<ellipse fill="lightblue" stroke="black" cx="61.74" cy="-18" rx="61.99" ry="18"/>
<text text-anchor="middle" x="61.74" y="-14.3" font-family="Times,serif" font-size="14.00">LoadImage</text>
</a>
</g>
</g>
<!-- tt_003.ServantInit&#45;&gt;LoadImage -->
<g id="edge1" class="edge">
<title>tt_003.ServantInit&#45;&gt;LoadImage</title>
<path fill="none" stroke="black" d="M443.93,-181.36C366.5,-148.47 187.16,-72.28 104.67,-37.24"/>
<polygon fill="black" stroke="black" points="105.68,-33.86 95.1,-33.17 102.94,-40.3 105.68,-33.86"/>
<text text-anchor="middle" x="90.1" y="-36.97" font-family="Times,serif" font-size="14.00">1</text>
</g>
<!-- dra.GetServantStats -->
<g id="node3" class="node">
<title>dra.GetServantStats</title>
<g id="a_node3"><a xlink:href="dra.GetServantStats.svg" xlink:title="dra.GetServantStats">
<ellipse fill="green" stroke="black" cx="247.74" cy="-18" rx="106.68" ry="18"/>
<text text-anchor="middle" x="247.74" y="-14.3" font-family="Times,serif" font-size="14.00">dra.GetServantStats</text>
</a>
</g>
</g>
<!-- tt_003.ServantInit&#45;&gt;dra.GetServantStats -->
<g id="edge2" class="edge">
<title>tt_003.ServantInit&#45;&gt;dra.GetServantStats</title>
<path fill="none" stroke="black" d="M458.82,-180.25C416.93,-148.25 325.44,-78.36 277.85,-42"/>
<polygon fill="black" stroke="black" points="279.85,-39.12 269.78,-35.83 275.6,-44.68 279.85,-39.12"/>
<text text-anchor="middle" x="264.78" y="-39.63" font-family="Times,serif" font-size="14.00">1</text>
</g>
<!-- tt_003.DestroyEntity -->
<g id="node4" class="node">
<title>tt_003.DestroyEntity</title>
<g id="a_node4"><a xlink:href="tt_003.DestroyEntity.svg" xlink:title="tt_003.DestroyEntity">
<ellipse fill="green" stroke="black" cx="480.74" cy="-18" rx="108.58" ry="18"/>
<text text-anchor="middle" x="480.74" y="-14.3" font-family="Times,serif" font-size="14.00">tt_003.DestroyEntity</text>
</a>
</g>
</g>
<!-- tt_003.ServantInit&#45;&gt;tt_003.DestroyEntity -->
<g id="edge3" class="edge">
<title>tt_003.ServantInit&#45;&gt;tt_003.DestroyEntity</title>
<path fill="none" stroke="black" d="M480.74,-179.93C480.74,-148.97 480.74,-83.3 480.74,-46.13"/>
<polygon fill="black" stroke="black" points="484.24,-46.02 480.74,-36.02 477.24,-46.02 484.24,-46.02"/>
<text text-anchor="middle" x="475.74" y="-39.82" font-family="Times,serif" font-size="14.00">1</text>
</g>
<!-- tt_003.ProcessEvent -->
<g id="node5" class="node">
<title>tt_003.ProcessEvent</title>
<g id="a_node5"><a xlink:href="tt_003.ProcessEvent.svg" xlink:title="tt_003.ProcessEvent">
<ellipse fill="green" stroke="black" cx="713.74" cy="-18" rx="106.68" ry="18"/>
<text text-anchor="middle" x="713.74" y="-14.3" font-family="Times,serif" font-size="14.00">tt_003.ProcessEvent</text>
</a>
</g>
</g>
<!-- tt_003.ServantInit&#45;&gt;tt_003.ProcessEvent -->
<g id="edge4" class="edge">
<title>tt_003.ServantInit&#45;&gt;tt_003.ProcessEvent</title>
<path fill="none" stroke="black" d="M502.66,-180.25C544.56,-148.25 636.05,-78.36 683.64,-42"/>
<polygon fill="black" stroke="black" points="685.89,-44.68 691.71,-35.83 681.64,-39.12 685.89,-44.68"/>
<text text-anchor="middle" x="686.71" y="-39.63" font-family="Times,serif" font-size="14.00">1</text>
</g>
<!-- tt_003.ServantUnk0 -->
<g id="node6" class="node">
<title>tt_003.ServantUnk0</title>
<g id="a_node6"><a xlink:href="tt_003.ServantUnk0.svg" xlink:title="tt_003.ServantUnk0">
<ellipse fill="green" stroke="black" cx="942.74" cy="-18" rx="104.78" ry="18"/>
<text text-anchor="middle" x="942.74" y="-14.3" font-family="Times,serif" font-size="14.00">tt_003.ServantUnk0</text>
</a>
</g>
</g>
<!-- tt_003.ServantInit&#45;&gt;tt_003.ServantUnk0 -->
<g id="edge5" class="edge">
<title>tt_003.ServantInit&#45;&gt;tt_003.ServantUnk0</title>
<path fill="none" stroke="black" d="M520.94,-181.52C605.22,-149.04 800.27,-73.89 892.58,-38.33"/>
<polygon fill="black" stroke="black" points="893.91,-41.56 901.99,-34.7 891.4,-35.03 893.91,-41.56"/>
<text text-anchor="middle" x="896.99" y="-38.5" font-family="Times,serif" font-size="14.00">1</text>
</g>
</g>
</svg>
