<?xml version="1.0" encoding="UTF-8" standalone="no"?>
<!DOCTYPE svg PUBLIC "-//W3C//DTD SVG 1.1//EN"
 "http://www.w3.org/Graphics/SVG/1.1/DTD/svg11.dtd">
<!-- Generated by graphviz version 2.43.0 (0)
 -->
<!-- Title: tt_000.func_80171560 Pages: 1 -->
<svg width="486pt" height="224pt"
 viewBox="0.00 0.00 486.08 224.00" xmlns="http://www.w3.org/2000/svg" xmlns:xlink="http://www.w3.org/1999/xlink">
<g id="graph0" class="graph" transform="scale(1 1) rotate(0) translate(4 220)">
<title>tt_000.func_80171560</title>
<polygon fill="white" stroke="transparent" points="-4,4 -4,-220 482.08,-220 482.08,4 -4,4"/>
<!-- tt_000.func_80171560 -->
<g id="node1" class="node">
<title>tt_000.func_80171560</title>
<ellipse fill="green" stroke="black" cx="238.39" cy="-18" rx="114.28" ry="18"/>
<text text-anchor="middle" x="238.39" y="-14.3" font-family="Times,serif" font-size="14.00">tt_000.func_80171560</text>
</g>
<!-- tt_000.func_80172120 -->
<g id="node2" class="node">
<title>tt_000.func_80172120</title>
<g id="a_node2"><a xlink:href="tt_000.func_80172120.svg" xlink:title="tt_000.func_80172120">
<ellipse fill="red" stroke="black" cx="114.39" cy="-198" rx="114.28" ry="18"/>
<text text-anchor="middle" x="114.39" y="-194.3" font-family="Times,serif" font-size="14.00">tt_000.func_80172120</text>
</a>
</g>
</g>
<!-- tt_000.func_80172120&#45;&gt;tt_000.func_80171560 -->
<g id="edge1" class="edge">
<title>tt_000.func_80172120&#45;&gt;tt_000.func_80171560</title>
<path fill="none" stroke="black" d="M126.28,-179.93C148.22,-148.43 195.18,-81.03 220.81,-44.24"/>
<polygon fill="black" stroke="black" points="223.69,-46.22 226.54,-36.02 217.95,-42.22 223.69,-46.22"/>
<text text-anchor="middle" x="121.28" y="-168.73" font-family="Times,serif" font-size="14.00">1</text>
</g>
<!-- tt_000.func_80172C30 -->
<g id="node3" class="node">
<title>tt_000.func_80172C30</title>
<g id="a_node3"><a xlink:href="tt_000.func_80172C30.svg" xlink:title="tt_000.func_80172C30">
<ellipse fill="red" stroke="black" cx="362.39" cy="-198" rx="115.88" ry="18"/>
<text text-anchor="middle" x="362.39" y="-194.3" font-family="Times,serif" font-size="14.00">tt_000.func_80172C30</text>
</a>
</g>
</g>
<!-- tt_000.func_80172C30&#45;&gt;tt_000.func_80171560 -->
<g id="edge2" class="edge">
<title>tt_000.func_80172C30&#45;&gt;tt_000.func_80171560</title>
<path fill="none" stroke="black" d="M350.5,-179.93C328.56,-148.43 281.6,-81.03 255.97,-44.24"/>
<polygon fill="black" stroke="black" points="258.83,-42.22 250.24,-36.02 253.09,-46.22 258.83,-42.22"/>
<text text-anchor="middle" x="345.5" y="-168.73" font-family="Times,serif" font-size="14.00">1</text>
</g>
</g>
</svg>
