<?xml version="1.0" encoding="UTF-8" standalone="no"?>
<!DOCTYPE svg PUBLIC "-//W3C//DTD SVG 1.1//EN"
 "http://www.w3.org/Graphics/SVG/1.1/DTD/svg11.dtd">
<!-- Generated by graphviz version 2.43.0 (0)
 -->
<!-- Title: tt_001.DestroyEntity Pages: 1 -->
<svg width="1974pt" height="404pt"
 viewBox="0.00 0.00 1973.93 404.00" xmlns="http://www.w3.org/2000/svg" xmlns:xlink="http://www.w3.org/1999/xlink">
<g id="graph0" class="graph" transform="scale(1 1) rotate(0) translate(4 400)">
<title>tt_001.DestroyEntity</title>
<polygon fill="white" stroke="transparent" points="-4,4 -4,-400 1969.93,-400 1969.93,4 -4,4"/>
<!-- tt_001.DestroyEntity -->
<g id="node1" class="node">
<title>tt_001.DestroyEntity</title>
<ellipse fill="green" stroke="black" cx="996.64" cy="-198" rx="108.58" ry="18"/>
<text text-anchor="middle" x="996.64" y="-194.3" font-family="Times,serif" font-size="14.00">tt_001.DestroyEntity</text>
</g>
<!-- dra.FreePrimitives -->
<g id="node2" class="node">
<title>dra.FreePrimitives</title>
<g id="a_node2"><a xlink:href="dra.FreePrimitives.svg" xlink:title="dra.FreePrimitives">
<ellipse fill="green" stroke="black" cx="996.64" cy="-18" rx="98.58" ry="18"/>
<text text-anchor="middle" x="996.64" y="-14.3" font-family="Times,serif" font-size="14.00">dra.FreePrimitives</text>
</a>
</g>
</g>
<!-- tt_001.DestroyEntity&#45;&gt;dra.FreePrimitives -->
<g id="edge1" class="edge">
<title>tt_001.DestroyEntity&#45;&gt;dra.FreePrimitives</title>
<path fill="none" stroke="black" d="M996.64,-179.93C996.64,-148.97 996.64,-83.3 996.64,-46.13"/>
<polygon fill="black" stroke="black" points="1000.14,-46.02 996.64,-36.02 993.14,-46.02 1000.14,-46.02"/>
<text text-anchor="middle" x="991.64" y="-39.82" font-family="Times,serif" font-size="14.00">1</text>
</g>
<!-- tt_001.CreateEventEntity -->
<g id="node3" class="node">
<title>tt_001.CreateEventEntity</title>
<g id="a_node3"><a xlink:href="tt_001.CreateEventEntity.svg" xlink:title="tt_001.CreateEventEntity">
<ellipse fill="green" stroke="black" cx="130.64" cy="-378" rx="130.78" ry="18"/>
<text text-anchor="middle" x="130.64" y="-374.3" font-family="Times,serif" font-size="14.00">tt_001.CreateEventEntity</text>
</a>
</g>
</g>
<!-- tt_001.CreateEventEntity&#45;&gt;tt_001.DestroyEntity -->
<g id="edge2" class="edge">
<title>tt_001.CreateEventEntity&#45;&gt;tt_001.DestroyEntity</title>
<path fill="none" stroke="black" d="M200.04,-362.73C360.34,-329.79 755.27,-248.61 921.25,-214.5"/>
<polygon fill="black" stroke="black" points="922.27,-217.86 931.37,-212.42 920.87,-211 922.27,-217.86"/>
<text text-anchor="middle" x="195.04" y="-351.53" font-family="Times,serif" font-size="14.00">1</text>
</g>
<!-- tt_001.DestroyServantEntity -->
<g id="node4" class="node">
<title>tt_001.DestroyServantEntity</title>
<g id="a_node4"><a xlink:href="tt_001.DestroyServantEntity.svg" xlink:title="tt_001.DestroyServantEntity">
<ellipse fill="green" stroke="black" cx="424.64" cy="-378" rx="145.67" ry="18"/>
<text text-anchor="middle" x="424.64" y="-374.3" font-family="Times,serif" font-size="14.00">tt_001.DestroyServantEntity</text>
</a>
</g>
</g>
<!-- tt_001.DestroyServantEntity&#45;&gt;tt_001.DestroyEntity -->
<g id="edge3" class="edge">
<title>tt_001.DestroyServantEntity&#45;&gt;tt_001.DestroyEntity</title>
<path fill="none" stroke="black" d="M475.65,-361.13C581.84,-328.08 826.05,-252.09 938.28,-217.16"/>
<polygon fill="black" stroke="black" points="939.57,-220.43 948.08,-214.11 937.49,-213.74 939.57,-220.43"/>
<text text-anchor="middle" x="470.65" y="-349.93" font-family="Times,serif" font-size="14.00">1</text>
</g>
<!-- tt_001.func_us_80171568 -->
<g id="node5" class="node">
<title>tt_001.func_us_80171568</title>
<g id="a_node5"><a xlink:href="tt_001.func_us_80171568.svg" xlink:title="tt_001.func_us_80171568">
<ellipse fill="red" stroke="black" cx="718.64" cy="-378" rx="129.98" ry="18"/>
<text text-anchor="middle" x="718.64" y="-374.3" font-family="Times,serif" font-size="14.00">tt_001.func_us_80171568</text>
</a>
</g>
</g>
<!-- tt_001.func_us_80171568&#45;&gt;tt_001.DestroyEntity -->
<g id="edge4" class="edge">
<title>tt_001.func_us_80171568&#45;&gt;tt_001.DestroyEntity</title>
<path fill="none" stroke="black" d="M744.79,-360.25C795.21,-327.97 905.86,-257.13 962.2,-221.05"/>
<polygon fill="black" stroke="black" points="964.22,-223.91 970.76,-215.57 960.45,-218.02 964.22,-223.91"/>
<text text-anchor="middle" x="739.79" y="-349.05" font-family="Times,serif" font-size="14.00">1</text>
</g>
<!-- tt_001.func_us_80171624 -->
<g id="node6" class="node">
<title>tt_001.func_us_80171624</title>
<g id="a_node6"><a xlink:href="tt_001.func_us_80171624.svg" xlink:title="tt_001.func_us_80171624">
<ellipse fill="red" stroke="black" cx="996.64" cy="-378" rx="129.98" ry="18"/>
<text text-anchor="middle" x="996.64" y="-374.3" font-family="Times,serif" font-size="14.00">tt_001.func_us_80171624</text>
</a>
</g>
</g>
<!-- tt_001.func_us_80171624&#45;&gt;tt_001.DestroyEntity -->
<g id="edge5" class="edge">
<title>tt_001.func_us_80171624&#45;&gt;tt_001.DestroyEntity</title>
<path fill="none" stroke="black" d="M996.64,-359.93C996.64,-328.97 996.64,-263.3 996.64,-226.13"/>
<polygon fill="black" stroke="black" points="1000.14,-226.02 996.64,-216.02 993.14,-226.02 1000.14,-226.02"/>
<text text-anchor="middle" x="991.64" y="-348.73" font-family="Times,serif" font-size="14.00">1</text>
</g>
<!-- tt_001.func_us_801720E4 -->
<g id="node7" class="node">
<title>tt_001.func_us_801720E4</title>
<g id="a_node7"><a xlink:href="tt_001.func_us_801720E4.svg" xlink:title="tt_001.func_us_801720E4">
<ellipse fill="red" stroke="black" cx="1275.64" cy="-378" rx="130.78" ry="18"/>
<text text-anchor="middle" x="1275.64" y="-374.3" font-family="Times,serif" font-size="14.00">tt_001.func_us_801720E4</text>
</a>
</g>
</g>
<!-- tt_001.func_us_801720E4&#45;&gt;tt_001.DestroyEntity -->
<g id="edge6" class="edge">
<title>tt_001.func_us_801720E4&#45;&gt;tt_001.DestroyEntity</title>
<path fill="none" stroke="black" d="M1249.39,-360.25C1198.79,-327.97 1087.75,-257.13 1031.2,-221.05"/>
<polygon fill="black" stroke="black" points="1032.93,-218 1022.61,-215.57 1029.16,-223.9 1032.93,-218"/>
<text text-anchor="middle" x="1244.39" y="-349.05" font-family="Times,serif" font-size="14.00">2</text>
</g>
<!-- tt_001.func_us_8017246C -->
<g id="node8" class="node">
<title>tt_001.func_us_8017246C</title>
<g id="a_node8"><a xlink:href="tt_001.func_us_8017246C.svg" xlink:title="tt_001.func_us_8017246C">
<ellipse fill="red" stroke="black" cx="1554.64" cy="-378" rx="130.78" ry="18"/>
<text text-anchor="middle" x="1554.64" y="-374.3" font-family="Times,serif" font-size="14.00">tt_001.func_us_8017246C</text>
</a>
</g>
</g>
<!-- tt_001.func_us_8017246C&#45;&gt;tt_001.DestroyEntity -->
<g id="edge7" class="edge">
<title>tt_001.func_us_8017246C&#45;&gt;tt_001.DestroyEntity</title>
<path fill="none" stroke="black" d="M1505.12,-361.2C1401.81,-328.25 1163.83,-252.33 1054.04,-217.31"/>
<polygon fill="black" stroke="black" points="1055.05,-213.96 1044.46,-214.25 1052.92,-220.63 1055.05,-213.96"/>
<text text-anchor="middle" x="1500.12" y="-350" font-family="Times,serif" font-size="14.00">2</text>
</g>
<!-- tt_001.func_us_80172D10 -->
<g id="node9" class="node">
<title>tt_001.func_us_80172D10</title>
<g id="a_node9"><a xlink:href="tt_001.func_us_80172D10.svg" xlink:title="tt_001.func_us_80172D10">
<ellipse fill="red" stroke="black" cx="1834.64" cy="-378" rx="131.08" ry="18"/>
<text text-anchor="middle" x="1834.64" y="-374.3" font-family="Times,serif" font-size="14.00">tt_001.func_us_80172D10</text>
</a>
</g>
</g>
<!-- tt_001.func_us_80172D10&#45;&gt;tt_001.DestroyEntity -->
<g id="edge8" class="edge">
<title>tt_001.func_us_80172D10&#45;&gt;tt_001.DestroyEntity</title>
<path fill="none" stroke="black" d="M1766.77,-362.58C1611.44,-329.59 1231.1,-248.8 1070.32,-214.65"/>
<polygon fill="black" stroke="black" points="1071.02,-211.22 1060.51,-212.57 1069.57,-218.07 1071.02,-211.22"/>
<text text-anchor="middle" x="1761.77" y="-351.38" font-family="Times,serif" font-size="14.00">1</text>
</g>
</g>
</svg>
