<?xml version="1.0" encoding="UTF-8" standalone="no"?>
<!DOCTYPE svg PUBLIC "-//W3C//DTD SVG 1.1//EN"
 "http://www.w3.org/Graphics/SVG/1.1/DTD/svg11.dtd">
<!-- Generated by graphviz version 2.43.0 (0)
 -->
<!-- Title: tt_004.func_us_80172420 Pages: 1 -->
<svg width="470pt" height="404pt"
 viewBox="0.00 0.00 470.28 404.00" xmlns="http://www.w3.org/2000/svg" xmlns:xlink="http://www.w3.org/1999/xlink">
<g id="graph0" class="graph" transform="scale(1 1) rotate(0) translate(4 400)">
<title>tt_004.func_us_80172420</title>
<polygon fill="white" stroke="transparent" points="-4,4 -4,-400 466.28,-400 466.28,4 -4,4"/>
<!-- tt_004.func_us_80172420 -->
<g id="node1" class="node">
<title>tt_004.func_us_80172420</title>
<ellipse fill="green" stroke="black" cx="246.09" cy="-198" rx="129.98" ry="18"/>
<text text-anchor="middle" x="246.09" y="-194.3" font-family="Times,serif" font-size="14.00">tt_004.func_us_80172420</text>
</g>
<!-- tt_004.DestroyEntity -->
<g id="node2" class="node">
<title>tt_004.DestroyEntity</title>
<g id="a_node2"><a xlink:href="tt_004.DestroyEntity.svg" xlink:title="tt_004.DestroyEntity">
<ellipse fill="green" stroke="black" cx="246.09" cy="-18" rx="108.58" ry="18"/>
<text text-anchor="middle" x="246.09" y="-14.3" font-family="Times,serif" font-size="14.00">tt_004.DestroyEntity</text>
</a>
</g>
</g>
<!-- tt_004.func_us_80172420&#45;&gt;tt_004.DestroyEntity -->
<g id="edge1" class="edge">
<title>tt_004.func_us_80172420&#45;&gt;tt_004.DestroyEntity</title>
<path fill="none" stroke="black" d="M246.09,-179.93C246.09,-148.97 246.09,-83.3 246.09,-46.13"/>
<polygon fill="black" stroke="black" points="249.59,-46.02 246.09,-36.02 242.59,-46.02 249.59,-46.02"/>
<text text-anchor="middle" x="241.09" y="-39.82" font-family="Times,serif" font-size="14.00">1</text>
</g>
<!-- tt_004.CheckSwordLevel -->
<g id="node3" class="node">
<title>tt_004.CheckSwordLevel</title>
<g id="a_node3"><a xlink:href="tt_004.CheckSwordLevel.svg" xlink:title="tt_004.CheckSwordLevel">
<ellipse fill="green" stroke="black" cx="126.09" cy="-378" rx="126.18" ry="18"/>
<text text-anchor="middle" x="126.09" y="-374.3" font-family="Times,serif" font-size="14.00">tt_004.CheckSwordLevel</text>
</a>
</g>
</g>
<!-- tt_004.CheckSwordLevel&#45;&gt;tt_004.func_us_80172420 -->
<g id="edge2" class="edge">
<title>tt_004.CheckSwordLevel&#45;&gt;tt_004.func_us_80172420</title>
<path fill="none" stroke="black" d="M137.59,-359.93C158.74,-328.57 203.89,-261.6 228.76,-224.71"/>
<polygon fill="black" stroke="black" points="231.93,-226.26 234.62,-216.02 226.13,-222.35 231.93,-226.26"/>
<text text-anchor="middle" x="132.59" y="-348.73" font-family="Times,serif" font-size="14.00">2</text>
</g>
<!-- tt_004.ServantInit -->
<g id="node4" class="node">
<title>tt_004.ServantInit</title>
<g id="a_node4"><a xlink:href="tt_004.ServantInit.svg" xlink:title="tt_004.ServantInit">
<ellipse fill="green" stroke="black" cx="366.09" cy="-378" rx="96.38" ry="18"/>
<text text-anchor="middle" x="366.09" y="-374.3" font-family="Times,serif" font-size="14.00">tt_004.ServantInit</text>
</a>
</g>
</g>
<!-- tt_004.ServantInit&#45;&gt;tt_004.func_us_80172420 -->
<g id="edge3" class="edge">
<title>tt_004.ServantInit&#45;&gt;tt_004.func_us_80172420</title>
<path fill="none" stroke="black" d="M354.58,-359.93C333.44,-328.57 288.29,-261.6 263.42,-224.71"/>
<polygon fill="black" stroke="black" points="266.05,-222.35 257.56,-216.02 260.25,-226.26 266.05,-222.35"/>
<text text-anchor="middle" x="349.58" y="-348.73" font-family="Times,serif" font-size="14.00">2</text>
</g>
</g>
</svg>
