<?xml version="1.0" encoding="UTF-8" standalone="no"?>
<!DOCTYPE svg PUBLIC "-//W3C//DTD SVG 1.1//EN"
 "http://www.w3.org/Graphics/SVG/1.1/DTD/svg11.dtd">
<!-- Generated by graphviz version 2.43.0 (0)
 -->
<!-- Title: w_001.SetWeaponProperties Pages: 1 -->
<svg width="854pt" height="404pt"
 viewBox="0.00 0.00 853.68 404.00" xmlns="http://www.w3.org/2000/svg" xmlns:xlink="http://www.w3.org/1999/xlink">
<g id="graph0" class="graph" transform="scale(1 1) rotate(0) translate(4 400)">
<title>w_001.SetWeaponProperties</title>
<polygon fill="white" stroke="transparent" points="-4,4 -4,-400 849.68,-400 849.68,4 -4,4"/>
<!-- w_001.SetWeaponProperties -->
<g id="node1" class="node">
<title>w_001.SetWeaponProperties</title>
<ellipse fill="green" stroke="black" cx="428.44" cy="-198" rx="144.07" ry="18"/>
<text text-anchor="middle" x="428.44" y="-194.3" font-family="Times,serif" font-size="14.00">w_001.SetWeaponProperties</text>
</g>
<!-- dra.GetEquipProperties -->
<g id="node2" class="node">
<title>dra.GetEquipProperties</title>
<g id="a_node2"><a xlink:href="dra.GetEquipProperties.svg" xlink:title="dra.GetEquipProperties">
<ellipse fill="green" stroke="black" cx="308.44" cy="-18" rx="122.38" ry="18"/>
<text text-anchor="middle" x="308.44" y="-14.3" font-family="Times,serif" font-size="14.00">dra.GetEquipProperties</text>
</a>
</g>
</g>
<!-- w_001.SetWeaponProperties&#45;&gt;dra.GetEquipProperties -->
<g id="edge1" class="edge">
<title>w_001.SetWeaponProperties&#45;&gt;dra.GetEquipProperties</title>
<path fill="none" stroke="black" d="M416.93,-179.93C395.79,-148.57 350.64,-81.6 325.77,-44.71"/>
<polygon fill="black" stroke="black" points="328.4,-42.35 319.91,-36.02 322.6,-46.26 328.4,-42.35"/>
<text text-anchor="middle" x="314.91" y="-39.82" font-family="Times,serif" font-size="14.00">1</text>
</g>
<!-- dra.func_80118894 -->
<g id="node3" class="node">
<title>dra.func_80118894</title>
<g id="a_node3"><a xlink:href="dra.func_80118894.svg" xlink:title="dra.func_80118894">
<ellipse fill="green" stroke="black" cx="549.44" cy="-18" rx="100.98" ry="18"/>
<text text-anchor="middle" x="549.44" y="-14.3" font-family="Times,serif" font-size="14.00">dra.func_80118894</text>
</a>
</g>
</g>
<!-- w_001.SetWeaponProperties&#45;&gt;dra.func_80118894 -->
<g id="edge2" class="edge">
<title>w_001.SetWeaponProperties&#45;&gt;dra.func_80118894</title>
<path fill="none" stroke="black" d="M440.04,-179.93C461.36,-148.57 506.88,-81.6 531.96,-44.71"/>
<polygon fill="black" stroke="black" points="535.14,-46.25 537.87,-36.02 529.35,-42.32 535.14,-46.25"/>
<text text-anchor="middle" x="532.87" y="-39.82" font-family="Times,serif" font-size="14.00">1</text>
</g>
<!-- w_001.EntityWeaponAttack -->
<g id="node4" class="node">
<title>w_001.EntityWeaponAttack</title>
<g id="a_node4"><a xlink:href="w_001.EntityWeaponAttack.svg" xlink:title="w_001.EntityWeaponAttack">
<ellipse fill="green" stroke="black" cx="138.44" cy="-378" rx="138.38" ry="18"/>
<text text-anchor="middle" x="138.44" y="-374.3" font-family="Times,serif" font-size="14.00">w_001.EntityWeaponAttack</text>
</a>
</g>
</g>
<!-- w_001.EntityWeaponAttack&#45;&gt;w_001.SetWeaponProperties -->
<g id="edge3" class="edge">
<title>w_001.EntityWeaponAttack&#45;&gt;w_001.SetWeaponProperties</title>
<path fill="none" stroke="black" d="M165.72,-360.25C218.29,-327.99 333.62,-257.2 392.42,-221.11"/>
<polygon fill="black" stroke="black" points="394.32,-224.05 401.02,-215.83 390.66,-218.08 394.32,-224.05"/>
<text text-anchor="middle" x="160.72" y="-349.05" font-family="Times,serif" font-size="14.00">1</text>
</g>
<!-- w_001.func_ptr_80170004 -->
<g id="node5" class="node">
<title>w_001.func_ptr_80170004</title>
<g id="a_node5"><a xlink:href="w_001.func_ptr_80170004.svg" xlink:title="w_001.func_ptr_80170004">
<ellipse fill="green" stroke="black" cx="428.44" cy="-378" rx="133.48" ry="18"/>
<text text-anchor="middle" x="428.44" y="-374.3" font-family="Times,serif" font-size="14.00">w_001.func_ptr_80170004</text>
</a>
</g>
</g>
<!-- w_001.func_ptr_80170004&#45;&gt;w_001.SetWeaponProperties -->
<g id="edge4" class="edge">
<title>w_001.func_ptr_80170004&#45;&gt;w_001.SetWeaponProperties</title>
<path fill="none" stroke="black" d="M428.44,-359.93C428.44,-328.97 428.44,-263.3 428.44,-226.13"/>
<polygon fill="black" stroke="black" points="431.94,-226.02 428.44,-216.02 424.94,-226.02 431.94,-226.02"/>
<text text-anchor="middle" x="423.44" y="-348.73" font-family="Times,serif" font-size="14.00">1</text>
</g>
<!-- w_001.func_ptr_80170008 -->
<g id="node6" class="node">
<title>w_001.func_ptr_80170008</title>
<g id="a_node6"><a xlink:href="w_001.func_ptr_80170008.svg" xlink:title="w_001.func_ptr_80170008">
<ellipse fill="green" stroke="black" cx="712.44" cy="-378" rx="133.48" ry="18"/>
<text text-anchor="middle" x="712.44" y="-374.3" font-family="Times,serif" font-size="14.00">w_001.func_ptr_80170008</text>
</a>
</g>
</g>
<!-- w_001.func_ptr_80170008&#45;&gt;w_001.SetWeaponProperties -->
<g id="edge5" class="edge">
<title>w_001.func_ptr_80170008&#45;&gt;w_001.SetWeaponProperties</title>
<path fill="none" stroke="black" d="M685.72,-360.25C634.34,-328.05 521.75,-257.49 464.06,-221.33"/>
<polygon fill="black" stroke="black" points="465.62,-218.18 455.29,-215.83 461.91,-224.11 465.62,-218.18"/>
<text text-anchor="middle" x="680.72" y="-349.05" font-family="Times,serif" font-size="14.00">1</text>
</g>
</g>
</svg>
