<?xml version="1.0" encoding="UTF-8" standalone="no"?>
<!DOCTYPE svg PUBLIC "-//W3C//DTD SVG 1.1//EN"
 "http://www.w3.org/Graphics/SVG/1.1/DTD/svg11.dtd">
<!-- Generated by graphviz version 2.43.0 (0)
 -->
<!-- Title: w_007.func_ptr_80170008 Pages: 1 -->
<svg width="842pt" height="224pt"
 viewBox="0.00 0.00 841.93 224.00" xmlns="http://www.w3.org/2000/svg" xmlns:xlink="http://www.w3.org/1999/xlink">
<g id="graph0" class="graph" transform="scale(1 1) rotate(0) translate(4 220)">
<title>w_007.func_ptr_80170008</title>
<polygon fill="white" stroke="transparent" points="-4,4 -4,-220 837.93,-220 837.93,4 -4,4"/>
<!-- w_007.func_ptr_80170008 -->
<g id="node1" class="node">
<title>w_007.func_ptr_80170008</title>
<ellipse fill="red" stroke="black" cx="328.44" cy="-198" rx="133.48" ry="18"/>
<text text-anchor="middle" x="328.44" y="-194.3" font-family="Times,serif" font-size="14.00">w_007.func_ptr_80170008</text>
</g>
<!-- dra.AllocPrimitives -->
<g id="node2" class="node">
<title>dra.AllocPrimitives</title>
<g id="a_node2"><a xlink:href="dra.AllocPrimitives.svg" xlink:title="dra.AllocPrimitives">
<ellipse fill="green" stroke="black" cx="99.44" cy="-18" rx="99.38" ry="18"/>
<text text-anchor="middle" x="99.44" y="-14.3" font-family="Times,serif" font-size="14.00">dra.AllocPrimitives</text>
</a>
</g>
</g>
<!-- w_007.func_ptr_80170008&#45;&gt;dra.AllocPrimitives -->
<g id="edge1" class="edge">
<title>w_007.func_ptr_80170008&#45;&gt;dra.AllocPrimitives</title>
<path fill="none" stroke="black" d="M306.48,-179.93C265.09,-147.75 175.48,-78.11 128.9,-41.9"/>
<polygon fill="black" stroke="black" points="131.04,-39.13 121,-35.76 126.75,-44.66 131.04,-39.13"/>
<text text-anchor="middle" x="116" y="-39.56" font-family="Times,serif" font-size="14.00">1</text>
</g>
<!-- rand -->
<g id="node3" class="node">
<title>rand</title>
<g id="a_node3"><a xlink:href="rand.svg" xlink:title="rand">
<ellipse fill="lightblue" stroke="black" cx="249.44" cy="-18" rx="32.49" ry="18"/>
<text text-anchor="middle" x="249.44" y="-14.3" font-family="Times,serif" font-size="14.00">rand</text>
</a>
</g>
</g>
<!-- w_007.func_ptr_80170008&#45;&gt;rand -->
<g id="edge2" class="edge">
<title>w_007.func_ptr_80170008&#45;&gt;rand</title>
<path fill="none" stroke="black" d="M320.87,-179.93C307.03,-148.75 277.58,-82.4 261.14,-45.37"/>
<polygon fill="black" stroke="black" points="264.13,-43.48 256.88,-35.76 257.74,-46.32 264.13,-43.48"/>
<text text-anchor="middle" x="251.88" y="-39.56" font-family="Times,serif" font-size="14.00">2</text>
</g>
<!-- w_007.DestroyEntity -->
<g id="node4" class="node">
<title>w_007.DestroyEntity</title>
<g id="a_node4"><a xlink:href="w_007.DestroyEntity.svg" xlink:title="w_007.DestroyEntity">
<ellipse fill="green" stroke="black" cx="408.44" cy="-18" rx="108.58" ry="18"/>
<text text-anchor="middle" x="408.44" y="-14.3" font-family="Times,serif" font-size="14.00">w_007.DestroyEntity</text>
</a>
</g>
</g>
<!-- w_007.func_ptr_80170008&#45;&gt;w_007.DestroyEntity -->
<g id="edge3" class="edge">
<title>w_007.func_ptr_80170008&#45;&gt;w_007.DestroyEntity</title>
<path fill="none" stroke="black" d="M336.11,-179.93C350.15,-148.7 380.05,-82.17 396.68,-45.18"/>
<polygon fill="black" stroke="black" points="399.89,-46.57 400.79,-36.02 393.5,-43.7 399.89,-46.57"/>
<text text-anchor="middle" x="395.79" y="-39.82" font-family="Times,serif" font-size="14.00">1</text>
</g>
<!-- w_007.func_35000_8017B604 -->
<g id="node5" class="node">
<title>w_007.func_35000_8017B604</title>
<g id="a_node5"><a xlink:href="w_007.func_35000_8017B604.svg" xlink:title="w_007.func_35000_8017B604">
<ellipse fill="red" stroke="black" cx="684.44" cy="-18" rx="149.47" ry="18"/>
<text text-anchor="middle" x="684.44" y="-14.3" font-family="Times,serif" font-size="14.00">w_007.func_35000_8017B604</text>
</a>
</g>
</g>
<!-- w_007.func_ptr_80170008&#45;&gt;w_007.func_35000_8017B604 -->
<g id="edge4" class="edge">
<title>w_007.func_ptr_80170008&#45;&gt;w_007.func_35000_8017B604</title>
<path fill="none" stroke="black" d="M361.61,-180.41C426.53,-147.95 570.28,-76.08 642.01,-40.21"/>
<polygon fill="black" stroke="black" points="643.84,-43.21 651.22,-35.61 640.71,-36.95 643.84,-43.21"/>
<text text-anchor="middle" x="646.22" y="-39.41" font-family="Times,serif" font-size="14.00">2</text>
</g>
</g>
</svg>
