<?xml version="1.0" encoding="UTF-8" standalone="no"?>
<!DOCTYPE svg PUBLIC "-//W3C//DTD SVG 1.1//EN"
 "http://www.w3.org/Graphics/SVG/1.1/DTD/svg11.dtd">
<!-- Generated by graphviz version 2.43.0 (0)
 -->
<!-- Title: w_015.EntityWeaponAttack Pages: 1 -->
<svg width="1815pt" height="224pt"
 viewBox="0.00 0.00 1815.02 224.00" xmlns="http://www.w3.org/2000/svg" xmlns:xlink="http://www.w3.org/1999/xlink">
<g id="graph0" class="graph" transform="scale(1 1) rotate(0) translate(4 220)">
<title>w_015.EntityWeaponAttack</title>
<polygon fill="white" stroke="transparent" points="-4,4 -4,-220 1811.02,-220 1811.02,4 -4,4"/>
<!-- w_015.EntityWeaponAttack -->
<g id="node1" class="node">
<title>w_015.EntityWeaponAttack</title>
<ellipse fill="green" stroke="black" cx="896.74" cy="-198" rx="138.38" ry="18"/>
<text text-anchor="middle" x="896.74" y="-194.3" font-family="Times,serif" font-size="14.00">w_015.EntityWeaponAttack</text>
</g>
<!-- dra.CreateEntFactoryFromEntity -->
<g id="node2" class="node">
<title>dra.CreateEntFactoryFromEntity</title>
<g id="a_node2"><a xlink:href="dra.CreateEntFactoryFromEntity.svg" xlink:title="dra.CreateEntFactoryFromEntity">
<ellipse fill="green" stroke="black" cx="165.74" cy="-18" rx="165.97" ry="18"/>
<text text-anchor="middle" x="165.74" y="-14.3" font-family="Times,serif" font-size="14.00">dra.CreateEntFactoryFromEntity</text>
</a>
</g>
</g>
<!-- w_015.EntityWeaponAttack&#45;&gt;dra.CreateEntFactoryFromEntity -->
<g id="edge1" class="edge">
<title>w_015.EntityWeaponAttack&#45;&gt;dra.CreateEntFactoryFromEntity</title>
<path fill="none" stroke="black" d="M834.73,-181.9C700.74,-149.27 384.66,-72.31 240.16,-37.12"/>
<polygon fill="black" stroke="black" points="240.6,-33.63 230.06,-34.66 238.95,-40.43 240.6,-33.63"/>
<text text-anchor="middle" x="225.06" y="-38.46" font-family="Times,serif" font-size="14.00">2</text>
</g>
<!-- g_api_PlaySfx -->
<g id="node3" class="node">
<title>g_api_PlaySfx</title>
<g id="a_node3"><a xlink:href="g_api_PlaySfx.svg" xlink:title="g_api_PlaySfx">
<ellipse fill="lightblue" stroke="black" cx="423.74" cy="-18" rx="74.99" ry="18"/>
<text text-anchor="middle" x="423.74" y="-14.3" font-family="Times,serif" font-size="14.00">g_api_PlaySfx</text>
</a>
</g>
</g>
<!-- w_015.EntityWeaponAttack&#45;&gt;g_api_PlaySfx -->
<g id="edge2" class="edge">
<title>w_015.EntityWeaponAttack&#45;&gt;g_api_PlaySfx</title>
<path fill="none" stroke="black" d="M853.51,-180.73C765.07,-147.45 564.07,-71.81 471.74,-37.06"/>
<polygon fill="black" stroke="black" points="472.95,-33.78 462.35,-33.53 470.48,-40.33 472.95,-33.78"/>
<text text-anchor="middle" x="457.35" y="-37.33" font-family="Times,serif" font-size="14.00">2</text>
</g>
<!-- w_015.DestroyEntity -->
<g id="node4" class="node">
<title>w_015.DestroyEntity</title>
<g id="a_node4"><a xlink:href="w_015.DestroyEntity.svg" xlink:title="w_015.DestroyEntity">
<ellipse fill="green" stroke="black" cx="624.74" cy="-18" rx="108.58" ry="18"/>
<text text-anchor="middle" x="624.74" y="-14.3" font-family="Times,serif" font-size="14.00">w_015.DestroyEntity</text>
</a>
</g>
</g>
<!-- w_015.EntityWeaponAttack&#45;&gt;w_015.DestroyEntity -->
<g id="edge3" class="edge">
<title>w_015.EntityWeaponAttack&#45;&gt;w_015.DestroyEntity</title>
<path fill="none" stroke="black" d="M871.15,-180.25C821.81,-147.97 713.56,-77.13 658.43,-41.05"/>
<polygon fill="black" stroke="black" points="660.34,-38.12 650.06,-35.57 656.51,-43.98 660.34,-38.12"/>
<text text-anchor="middle" x="645.06" y="-39.37" font-family="Times,serif" font-size="14.00">1</text>
</g>
<!-- w_015.DestroyEntityWeapon -->
<g id="node5" class="node">
<title>w_015.DestroyEntityWeapon</title>
<g id="a_node5"><a xlink:href="w_015.DestroyEntityWeapon.svg" xlink:title="w_015.DestroyEntityWeapon">
<ellipse fill="green" stroke="black" cx="896.74" cy="-18" rx="145.67" ry="18"/>
<text text-anchor="middle" x="896.74" y="-14.3" font-family="Times,serif" font-size="14.00">w_015.DestroyEntityWeapon</text>
</a>
</g>
</g>
<!-- w_015.EntityWeaponAttack&#45;&gt;w_015.DestroyEntityWeapon -->
<g id="edge4" class="edge">
<title>w_015.EntityWeaponAttack&#45;&gt;w_015.DestroyEntityWeapon</title>
<path fill="none" stroke="black" d="M896.74,-179.93C896.74,-148.97 896.74,-83.3 896.74,-46.13"/>
<polygon fill="black" stroke="black" points="900.24,-46.02 896.74,-36.02 893.24,-46.02 900.24,-46.02"/>
<text text-anchor="middle" x="891.74" y="-39.82" font-family="Times,serif" font-size="14.00">1</text>
</g>
<!-- w_015.SetSpeedX -->
<g id="node6" class="node">
<title>w_015.SetSpeedX</title>
<g id="a_node6"><a xlink:href="w_015.SetSpeedX.svg" xlink:title="w_015.SetSpeedX">
<ellipse fill="green" stroke="black" cx="1154.74" cy="-18" rx="94.48" ry="18"/>
<text text-anchor="middle" x="1154.74" y="-14.3" font-family="Times,serif" font-size="14.00">w_015.SetSpeedX</text>
</a>
</g>
</g>
<!-- w_015.EntityWeaponAttack&#45;&gt;w_015.SetSpeedX -->
<g id="edge5" class="edge">
<title>w_015.EntityWeaponAttack&#45;&gt;w_015.SetSpeedX</title>
<path fill="none" stroke="black" d="M921.01,-180.25C967.71,-148.04 1070.06,-77.42 1122.45,-41.27"/>
<polygon fill="black" stroke="black" points="1124.47,-44.13 1130.72,-35.57 1120.5,-38.37 1124.47,-44.13"/>
<text text-anchor="middle" x="1125.72" y="-39.37" font-family="Times,serif" font-size="14.00">2</text>
</g>
<!-- w_015.SetSpriteBank1 -->
<g id="node7" class="node">
<title>w_015.SetSpriteBank1</title>
<g id="a_node7"><a xlink:href="w_015.SetSpriteBank1.svg" xlink:title="w_015.SetSpriteBank1">
<ellipse fill="green" stroke="black" cx="1383.74" cy="-18" rx="116.98" ry="18"/>
<text text-anchor="middle" x="1383.74" y="-14.3" font-family="Times,serif" font-size="14.00">w_015.SetSpriteBank1</text>
</a>
</g>
</g>
<!-- w_015.EntityWeaponAttack&#45;&gt;w_015.SetSpriteBank1 -->
<g id="edge6" class="edge">
<title>w_015.EntityWeaponAttack&#45;&gt;w_015.SetSpriteBank1</title>
<path fill="none" stroke="black" d="M940.81,-180.89C1030.57,-148.08 1234.2,-73.65 1330.88,-38.32"/>
<polygon fill="black" stroke="black" points="1332.27,-41.54 1340.46,-34.82 1329.86,-34.96 1332.27,-41.54"/>
<text text-anchor="middle" x="1335.46" y="-38.62" font-family="Times,serif" font-size="14.00">1</text>
</g>
<!-- w_015.SetWeaponProperties -->
<g id="node8" class="node">
<title>w_015.SetWeaponProperties</title>
<g id="a_node8"><a xlink:href="w_015.SetWeaponProperties.svg" xlink:title="w_015.SetWeaponProperties">
<ellipse fill="green" stroke="black" cx="1662.74" cy="-18" rx="144.07" ry="18"/>
<text text-anchor="middle" x="1662.74" y="-14.3" font-family="Times,serif" font-size="14.00">w_015.SetWeaponProperties</text>
</a>
</g>
</g>
<!-- w_015.EntityWeaponAttack&#45;&gt;w_015.SetWeaponProperties -->
<g id="edge7" class="edge">
<title>w_015.EntityWeaponAttack&#45;&gt;w_015.SetWeaponProperties</title>
<path fill="none" stroke="black" d="M961.05,-182.05C1101.96,-149.31 1437.27,-71.39 1587.58,-36.46"/>
<polygon fill="black" stroke="black" points="1588.7,-39.8 1597.65,-34.13 1587.11,-32.98 1588.7,-39.8"/>
<text text-anchor="middle" x="1592.65" y="-37.93" font-family="Times,serif" font-size="14.00">1</text>
</g>
</g>
</svg>
