<?xml version="1.0" encoding="UTF-8" standalone="no"?>
<!DOCTYPE svg PUBLIC "-//W3C//DTD SVG 1.1//EN"
 "http://www.w3.org/Graphics/SVG/1.1/DTD/svg11.dtd">
<!-- Generated by graphviz version 2.43.0 (0)
 -->
<!-- Title: w_010.func_ptr_80170024 Pages: 1 -->
<svg width="1050pt" height="224pt"
 viewBox="0.00 0.00 1049.73 224.00" xmlns="http://www.w3.org/2000/svg" xmlns:xlink="http://www.w3.org/1999/xlink">
<g id="graph0" class="graph" transform="scale(1 1) rotate(0) translate(4 220)">
<title>w_010.func_ptr_80170024</title>
<polygon fill="white" stroke="transparent" points="-4,4 -4,-220 1045.73,-220 1045.73,4 -4,4"/>
<!-- w_010.func_ptr_80170024 -->
<g id="node1" class="node">
<title>w_010.func_ptr_80170024</title>
<ellipse fill="red" stroke="black" cx="432.44" cy="-198" rx="133.48" ry="18"/>
<text text-anchor="middle" x="432.44" y="-194.3" font-family="Times,serif" font-size="14.00">w_010.func_ptr_80170024</text>
</g>
<!-- dra.AllocPrimitives -->
<g id="node2" class="node">
<title>dra.AllocPrimitives</title>
<g id="a_node2"><a xlink:href="dra.AllocPrimitives.svg" xlink:title="dra.AllocPrimitives">
<ellipse fill="green" stroke="black" cx="99.44" cy="-18" rx="99.38" ry="18"/>
<text text-anchor="middle" x="99.44" y="-14.3" font-family="Times,serif" font-size="14.00">dra.AllocPrimitives</text>
</a>
</g>
</g>
<!-- w_010.func_ptr_80170024&#45;&gt;dra.AllocPrimitives -->
<g id="edge1" class="edge">
<title>w_010.func_ptr_80170024&#45;&gt;dra.AllocPrimitives</title>
<path fill="none" stroke="black" d="M401.41,-180.41C340.66,-147.94 206.09,-76.01 139.03,-40.16"/>
<polygon fill="black" stroke="black" points="140.5,-36.98 130.03,-35.35 137.2,-43.15 140.5,-36.98"/>
<text text-anchor="middle" x="125.03" y="-39.15" font-family="Times,serif" font-size="14.00">1</text>
</g>
<!-- dra.PlaySfx -->
<g id="node3" class="node">
<title>dra.PlaySfx</title>
<g id="a_node3"><a xlink:href="dra.PlaySfx.svg" xlink:title="dra.PlaySfx">
<ellipse fill="green" stroke="black" cx="281.44" cy="-18" rx="64.19" ry="18"/>
<text text-anchor="middle" x="281.44" y="-14.3" font-family="Times,serif" font-size="14.00">dra.PlaySfx</text>
</a>
</g>
</g>
<!-- w_010.func_ptr_80170024&#45;&gt;dra.PlaySfx -->
<g id="edge2" class="edge">
<title>w_010.func_ptr_80170024&#45;&gt;dra.PlaySfx</title>
<path fill="none" stroke="black" d="M417.96,-179.93C391.06,-148.22 333.29,-80.12 302.22,-43.5"/>
<polygon fill="black" stroke="black" points="304.79,-41.12 295.66,-35.76 299.46,-45.65 304.79,-41.12"/>
<text text-anchor="middle" x="290.66" y="-39.56" font-family="Times,serif" font-size="14.00">2</text>
</g>
<!-- rcos -->
<g id="node4" class="node">
<title>rcos</title>
<g id="a_node4"><a xlink:href="rcos.svg" xlink:title="rcos">
<ellipse fill="lightblue" stroke="black" cx="394.44" cy="-18" rx="30.59" ry="18"/>
<text text-anchor="middle" x="394.44" y="-14.3" font-family="Times,serif" font-size="14.00">rcos</text>
</a>
</g>
</g>
<!-- w_010.func_ptr_80170024&#45;&gt;rcos -->
<g id="edge3" class="edge">
<title>w_010.func_ptr_80170024&#45;&gt;rcos</title>
<path fill="none" stroke="black" d="M428.8,-179.93C422.19,-148.97 408.17,-83.3 400.23,-46.13"/>
<polygon fill="black" stroke="black" points="403.58,-45.06 398.07,-36.02 396.74,-46.53 403.58,-45.06"/>
<text text-anchor="middle" x="393.07" y="-39.82" font-family="Times,serif" font-size="14.00">5</text>
</g>
<!-- rsin -->
<g id="node5" class="node">
<title>rsin</title>
<g id="a_node5"><a xlink:href="rsin.svg" xlink:title="rsin">
<ellipse fill="lightblue" stroke="black" cx="471.44" cy="-18" rx="28.7" ry="18"/>
<text text-anchor="middle" x="471.44" y="-14.3" font-family="Times,serif" font-size="14.00">rsin</text>
</a>
</g>
</g>
<!-- w_010.func_ptr_80170024&#45;&gt;rsin -->
<g id="edge4" class="edge">
<title>w_010.func_ptr_80170024&#45;&gt;rsin</title>
<path fill="none" stroke="black" d="M436.18,-179.93C442.97,-148.97 457.35,-83.3 465.5,-46.13"/>
<polygon fill="black" stroke="black" points="468.99,-46.53 467.71,-36.02 462.15,-45.03 468.99,-46.53"/>
<text text-anchor="middle" x="462.71" y="-39.82" font-family="Times,serif" font-size="14.00">7</text>
</g>
<!-- w_010.DestroyEntity -->
<g id="node6" class="node">
<title>w_010.DestroyEntity</title>
<g id="a_node6"><a xlink:href="w_010.DestroyEntity.svg" xlink:title="w_010.DestroyEntity">
<ellipse fill="green" stroke="black" cx="626.44" cy="-18" rx="108.58" ry="18"/>
<text text-anchor="middle" x="626.44" y="-14.3" font-family="Times,serif" font-size="14.00">w_010.DestroyEntity</text>
</a>
</g>
</g>
<!-- w_010.func_ptr_80170024&#45;&gt;w_010.DestroyEntity -->
<g id="edge5" class="edge">
<title>w_010.func_ptr_80170024&#45;&gt;w_010.DestroyEntity</title>
<path fill="none" stroke="black" d="M451.04,-179.93C485.9,-147.95 561.08,-78.97 600.74,-42.58"/>
<polygon fill="black" stroke="black" points="603.18,-45.1 608.18,-35.76 598.44,-39.94 603.18,-45.1"/>
<text text-anchor="middle" x="603.18" y="-39.56" font-family="Times,serif" font-size="14.00">2</text>
</g>
<!-- w_010.SetWeaponProperties -->
<g id="node7" class="node">
<title>w_010.SetWeaponProperties</title>
<g id="a_node7"><a xlink:href="w_010.SetWeaponProperties.svg" xlink:title="w_010.SetWeaponProperties">
<ellipse fill="green" stroke="black" cx="897.44" cy="-18" rx="144.07" ry="18"/>
<text text-anchor="middle" x="897.44" y="-14.3" font-family="Times,serif" font-size="14.00">w_010.SetWeaponProperties</text>
</a>
</g>
</g>
<!-- w_010.func_ptr_80170024&#45;&gt;w_010.SetWeaponProperties -->
<g id="edge6" class="edge">
<title>w_010.func_ptr_80170024&#45;&gt;w_010.SetWeaponProperties</title>
<path fill="none" stroke="black" d="M474.53,-180.89C559.71,-148.28 752.32,-74.55 845.29,-38.96"/>
<polygon fill="black" stroke="black" points="846.69,-42.17 854.78,-35.33 844.19,-35.64 846.69,-42.17"/>
<text text-anchor="middle" x="849.78" y="-39.13" font-family="Times,serif" font-size="14.00">1</text>
</g>
</g>
</svg>
