<?xml version="1.0" encoding="UTF-8" standalone="no"?>
<!DOCTYPE svg PUBLIC "-//W3C//DTD SVG 1.1//EN"
 "http://www.w3.org/Graphics/SVG/1.1/DTD/svg11.dtd">
<!-- Generated by graphviz version 2.43.0 (0)
 -->
<!-- Title: w_016.DestroyEntityWeapon Pages: 1 -->
<svg width="1140pt" height="404pt"
 viewBox="0.00 0.00 1139.68 404.00" xmlns="http://www.w3.org/2000/svg" xmlns:xlink="http://www.w3.org/1999/xlink">
<g id="graph0" class="graph" transform="scale(1 1) rotate(0) translate(4 400)">
<title>w_016.DestroyEntityWeapon</title>
<polygon fill="white" stroke="transparent" points="-4,4 -4,-400 1135.68,-400 1135.68,4 -4,4"/>
<!-- w_016.DestroyEntityWeapon -->
<g id="node1" class="node">
<title>w_016.DestroyEntityWeapon</title>
<ellipse fill="green" stroke="black" cx="570.44" cy="-198" rx="145.67" ry="18"/>
<text text-anchor="middle" x="570.44" y="-194.3" font-family="Times,serif" font-size="14.00">w_016.DestroyEntityWeapon</text>
</g>
<!-- w_016.DestroyEntity -->
<g id="node2" class="node">
<title>w_016.DestroyEntity</title>
<g id="a_node2"><a xlink:href="w_016.DestroyEntity.svg" xlink:title="w_016.DestroyEntity">
<ellipse fill="green" stroke="black" cx="570.44" cy="-18" rx="108.58" ry="18"/>
<text text-anchor="middle" x="570.44" y="-14.3" font-family="Times,serif" font-size="14.00">w_016.DestroyEntity</text>
</a>
</g>
</g>
<!-- w_016.DestroyEntityWeapon&#45;&gt;w_016.DestroyEntity -->
<g id="edge1" class="edge">
<title>w_016.DestroyEntityWeapon&#45;&gt;w_016.DestroyEntity</title>
<path fill="none" stroke="black" d="M570.44,-179.93C570.44,-148.97 570.44,-83.3 570.44,-46.13"/>
<polygon fill="black" stroke="black" points="573.94,-46.02 570.44,-36.02 566.94,-46.02 573.94,-46.02"/>
<text text-anchor="middle" x="565.44" y="-39.82" font-family="Times,serif" font-size="14.00">2</text>
</g>
<!-- w_016.EntityWeaponAttack -->
<g id="node3" class="node">
<title>w_016.EntityWeaponAttack</title>
<g id="a_node3"><a xlink:href="w_016.EntityWeaponAttack.svg" xlink:title="w_016.EntityWeaponAttack">
<ellipse fill="green" stroke="black" cx="138.44" cy="-378" rx="138.38" ry="18"/>
<text text-anchor="middle" x="138.44" y="-374.3" font-family="Times,serif" font-size="14.00">w_016.EntityWeaponAttack</text>
</a>
</g>
</g>
<!-- w_016.EntityWeaponAttack&#45;&gt;w_016.DestroyEntityWeapon -->
<g id="edge2" class="edge">
<title>w_016.EntityWeaponAttack&#45;&gt;w_016.DestroyEntityWeapon</title>
<path fill="none" stroke="black" d="M177.92,-360.73C257.02,-328.14 434.73,-254.92 521.24,-219.27"/>
<polygon fill="black" stroke="black" points="522.67,-222.47 530.58,-215.42 520,-216 522.67,-222.47"/>
<text text-anchor="middle" x="172.92" y="-349.53" font-family="Times,serif" font-size="14.00">1</text>
</g>
<!-- w_016.func_ptr_80170008 -->
<g id="node4" class="node">
<title>w_016.func_ptr_80170008</title>
<g id="a_node4"><a xlink:href="w_016.func_ptr_80170008.svg" xlink:title="w_016.func_ptr_80170008">
<ellipse fill="green" stroke="black" cx="428.44" cy="-378" rx="133.48" ry="18"/>
<text text-anchor="middle" x="428.44" y="-374.3" font-family="Times,serif" font-size="14.00">w_016.func_ptr_80170008</text>
</a>
</g>
</g>
<!-- w_016.func_ptr_80170008&#45;&gt;w_016.DestroyEntityWeapon -->
<g id="edge3" class="edge">
<title>w_016.func_ptr_80170008&#45;&gt;w_016.DestroyEntityWeapon</title>
<path fill="none" stroke="black" d="M442.05,-359.93C467.18,-328.43 520.95,-261.03 550.3,-224.24"/>
<polygon fill="black" stroke="black" points="553.36,-226.02 556.86,-216.02 547.89,-221.65 553.36,-226.02"/>
<text text-anchor="middle" x="437.05" y="-348.73" font-family="Times,serif" font-size="14.00">1</text>
</g>
<!-- w_016.func_ptr_8017000C -->
<g id="node5" class="node">
<title>w_016.func_ptr_8017000C</title>
<g id="a_node5"><a xlink:href="w_016.func_ptr_8017000C.svg" xlink:title="w_016.func_ptr_8017000C">
<ellipse fill="green" stroke="black" cx="713.44" cy="-378" rx="133.78" ry="18"/>
<text text-anchor="middle" x="713.44" y="-374.3" font-family="Times,serif" font-size="14.00">w_016.func_ptr_8017000C</text>
</a>
</g>
</g>
<!-- w_016.func_ptr_8017000C&#45;&gt;w_016.DestroyEntityWeapon -->
<g id="edge4" class="edge">
<title>w_016.func_ptr_8017000C&#45;&gt;w_016.DestroyEntityWeapon</title>
<path fill="none" stroke="black" d="M699.73,-359.93C674.42,-328.43 620.27,-261.03 590.72,-224.24"/>
<polygon fill="black" stroke="black" points="593.1,-221.62 584.11,-216.02 587.64,-226 593.1,-221.62"/>
<text text-anchor="middle" x="694.73" y="-348.73" font-family="Times,serif" font-size="14.00">1</text>
</g>
<!-- w_016.func_ptr_80170014 -->
<g id="node6" class="node">
<title>w_016.func_ptr_80170014</title>
<g id="a_node6"><a xlink:href="w_016.func_ptr_80170014.svg" xlink:title="w_016.func_ptr_80170014">
<ellipse fill="green" stroke="black" cx="998.44" cy="-378" rx="133.48" ry="18"/>
<text text-anchor="middle" x="998.44" y="-374.3" font-family="Times,serif" font-size="14.00">w_016.func_ptr_80170014</text>
</a>
</g>
</g>
<!-- w_016.func_ptr_80170014&#45;&gt;w_016.DestroyEntityWeapon -->
<g id="edge5" class="edge">
<title>w_016.func_ptr_80170014&#45;&gt;w_016.DestroyEntityWeapon</title>
<path fill="none" stroke="black" d="M959.32,-360.73C880.95,-328.14 704.89,-254.92 619.18,-219.27"/>
<polygon fill="black" stroke="black" points="620.51,-216.03 609.93,-215.42 617.82,-222.5 620.51,-216.03"/>
<text text-anchor="middle" x="954.32" y="-349.53" font-family="Times,serif" font-size="14.00">1</text>
</g>
</g>
</svg>
