<?xml version="1.0" encoding="UTF-8" standalone="no"?>
<!DOCTYPE svg PUBLIC "-//W3C//DTD SVG 1.1//EN"
 "http://www.w3.org/Graphics/SVG/1.1/DTD/svg11.dtd">
<!-- Generated by graphviz version 2.43.0 (0)
 -->
<!-- Title: w_028.DestroyEntity Pages: 1 -->
<svg width="1219pt" height="404pt"
 viewBox="0.00 0.00 1218.83 404.00" xmlns="http://www.w3.org/2000/svg" xmlns:xlink="http://www.w3.org/1999/xlink">
<g id="graph0" class="graph" transform="scale(1 1) rotate(0) translate(4 400)">
<title>w_028.DestroyEntity</title>
<polygon fill="white" stroke="transparent" points="-4,4 -4,-400 1214.83,-400 1214.83,4 -4,4"/>
<!-- w_028.DestroyEntity -->
<g id="node1" class="node">
<title>w_028.DestroyEntity</title>
<ellipse fill="green" stroke="black" cx="606.59" cy="-198" rx="108.58" ry="18"/>
<text text-anchor="middle" x="606.59" y="-194.3" font-family="Times,serif" font-size="14.00">w_028.DestroyEntity</text>
</g>
<!-- dra.FreePrimitives -->
<g id="node2" class="node">
<title>dra.FreePrimitives</title>
<g id="a_node2"><a xlink:href="dra.FreePrimitives.svg" xlink:title="dra.FreePrimitives">
<ellipse fill="green" stroke="black" cx="606.59" cy="-18" rx="98.58" ry="18"/>
<text text-anchor="middle" x="606.59" y="-14.3" font-family="Times,serif" font-size="14.00">dra.FreePrimitives</text>
</a>
</g>
</g>
<!-- w_028.DestroyEntity&#45;&gt;dra.FreePrimitives -->
<g id="edge1" class="edge">
<title>w_028.DestroyEntity&#45;&gt;dra.FreePrimitives</title>
<path fill="none" stroke="black" d="M606.59,-179.93C606.59,-148.97 606.59,-83.3 606.59,-46.13"/>
<polygon fill="black" stroke="black" points="610.09,-46.02 606.59,-36.02 603.09,-46.02 610.09,-46.02"/>
<text text-anchor="middle" x="601.59" y="-39.82" font-family="Times,serif" font-size="14.00">1</text>
</g>
<!-- w_028.DestroyEntityWeapon -->
<g id="node3" class="node">
<title>w_028.DestroyEntityWeapon</title>
<g id="a_node3"><a xlink:href="w_028.DestroyEntityWeapon.svg" xlink:title="w_028.DestroyEntityWeapon">
<ellipse fill="green" stroke="black" cx="145.59" cy="-378" rx="145.67" ry="18"/>
<text text-anchor="middle" x="145.59" y="-374.3" font-family="Times,serif" font-size="14.00">w_028.DestroyEntityWeapon</text>
</a>
</g>
</g>
<!-- w_028.DestroyEntityWeapon&#45;&gt;w_028.DestroyEntity -->
<g id="edge2" class="edge">
<title>w_028.DestroyEntityWeapon&#45;&gt;w_028.DestroyEntity</title>
<path fill="none" stroke="black" d="M187.72,-360.73C272.75,-327.9 464.56,-253.84 556.11,-218.49"/>
<polygon fill="black" stroke="black" points="557.64,-221.65 565.71,-214.78 555.12,-215.12 557.64,-221.65"/>
<text text-anchor="middle" x="182.72" y="-349.53" font-family="Times,serif" font-size="14.00">2</text>
</g>
<!-- w_028.EntityWeaponAttack -->
<g id="node4" class="node">
<title>w_028.EntityWeaponAttack</title>
<g id="a_node4"><a xlink:href="w_028.EntityWeaponAttack.svg" xlink:title="w_028.EntityWeaponAttack">
<ellipse fill="red" stroke="black" cx="447.59" cy="-378" rx="138.38" ry="18"/>
<text text-anchor="middle" x="447.59" y="-374.3" font-family="Times,serif" font-size="14.00">w_028.EntityWeaponAttack</text>
</a>
</g>
</g>
<!-- w_028.EntityWeaponAttack&#45;&gt;w_028.DestroyEntity -->
<g id="edge3" class="edge">
<title>w_028.EntityWeaponAttack&#45;&gt;w_028.DestroyEntity</title>
<path fill="none" stroke="black" d="M462.83,-359.93C491.09,-328.3 551.68,-260.46 584.46,-223.78"/>
<polygon fill="black" stroke="black" points="587.34,-225.81 591.39,-216.02 582.12,-221.14 587.34,-225.81"/>
<text text-anchor="middle" x="457.83" y="-348.73" font-family="Times,serif" font-size="14.00">1</text>
</g>
<!-- w_028.EntityWeaponShieldSpell -->
<g id="node5" class="node">
<title>w_028.EntityWeaponShieldSpell</title>
<g id="a_node5"><a xlink:href="w_028.EntityWeaponShieldSpell.svg" xlink:title="w_028.EntityWeaponShieldSpell">
<ellipse fill="red" stroke="black" cx="765.59" cy="-378" rx="161.37" ry="18"/>
<text text-anchor="middle" x="765.59" y="-374.3" font-family="Times,serif" font-size="14.00">w_028.EntityWeaponShieldSpell</text>
</a>
</g>
</g>
<!-- w_028.EntityWeaponShieldSpell&#45;&gt;w_028.DestroyEntity -->
<g id="edge4" class="edge">
<title>w_028.EntityWeaponShieldSpell&#45;&gt;w_028.DestroyEntity</title>
<path fill="none" stroke="black" d="M750.34,-359.93C722.09,-328.3 661.49,-260.46 628.72,-223.78"/>
<polygon fill="black" stroke="black" points="631.06,-221.14 621.79,-216.02 625.84,-225.81 631.06,-221.14"/>
<text text-anchor="middle" x="745.34" y="-348.73" font-family="Times,serif" font-size="14.00">1</text>
</g>
<!-- w_028.func_ptr_80170024 -->
<g id="node6" class="node">
<title>w_028.func_ptr_80170024</title>
<g id="a_node6"><a xlink:href="w_028.func_ptr_80170024.svg" xlink:title="w_028.func_ptr_80170024">
<ellipse fill="red" stroke="black" cx="1077.59" cy="-378" rx="133.48" ry="18"/>
<text text-anchor="middle" x="1077.59" y="-374.3" font-family="Times,serif" font-size="14.00">w_028.func_ptr_80170024</text>
</a>
</g>
</g>
<!-- w_028.func_ptr_80170024&#45;&gt;w_028.DestroyEntity -->
<g id="edge5" class="edge">
<title>w_028.func_ptr_80170024&#45;&gt;w_028.DestroyEntity</title>
<path fill="none" stroke="black" d="M1034.96,-360.89C948.13,-328.08 751.11,-253.62 657.63,-218.29"/>
<polygon fill="black" stroke="black" points="658.7,-214.95 648.11,-214.69 656.22,-221.5 658.7,-214.95"/>
<text text-anchor="middle" x="1029.96" y="-349.69" font-family="Times,serif" font-size="14.00">1</text>
</g>
</g>
</svg>
