<?xml version="1.0" encoding="UTF-8" standalone="no"?>
<!DOCTYPE svg PUBLIC "-//W3C//DTD SVG 1.1//EN"
 "http://www.w3.org/Graphics/SVG/1.1/DTD/svg11.dtd">
<!-- Generated by graphviz version 2.43.0 (0)
 -->
<!-- Title: w_029.EntityWeaponAttack Pages: 1 -->
<svg width="1385pt" height="224pt"
 viewBox="0.00 0.00 1385.42 224.00" xmlns="http://www.w3.org/2000/svg" xmlns:xlink="http://www.w3.org/1999/xlink">
<g id="graph0" class="graph" transform="scale(1 1) rotate(0) translate(4 220)">
<title>w_029.EntityWeaponAttack</title>
<polygon fill="white" stroke="transparent" points="-4,4 -4,-220 1381.42,-220 1381.42,4 -4,4"/>
<!-- w_029.EntityWeaponAttack -->
<g id="node1" class="node">
<title>w_029.EntityWeaponAttack</title>
<ellipse fill="green" stroke="black" cx="710.13" cy="-198" rx="138.38" ry="18"/>
<text text-anchor="middle" x="710.13" y="-194.3" font-family="Times,serif" font-size="14.00">w_029.EntityWeaponAttack</text>
</g>
<!-- g_api_CreateEntFactoryFromEntity -->
<g id="node2" class="node">
<title>g_api_CreateEntFactoryFromEntity</title>
<g id="a_node2"><a xlink:href="g_api_CreateEntFactoryFromEntity.svg" xlink:title="g_api_CreateEntFactoryFromEntity">
<ellipse fill="lightblue" stroke="black" cx="176.13" cy="-18" rx="176.27" ry="18"/>
<text text-anchor="middle" x="176.13" y="-14.3" font-family="Times,serif" font-size="14.00">g_api_CreateEntFactoryFromEntity</text>
</a>
</g>
</g>
<!-- w_029.EntityWeaponAttack&#45;&gt;g_api_CreateEntFactoryFromEntity -->
<g id="edge1" class="edge">
<title>w_029.EntityWeaponAttack&#45;&gt;g_api_CreateEntFactoryFromEntity</title>
<path fill="none" stroke="black" d="M662.28,-181.05C564.34,-148.4 341.35,-74.07 234.86,-38.58"/>
<polygon fill="black" stroke="black" points="235.83,-35.21 225.24,-35.37 233.62,-41.85 235.83,-35.21"/>
<text text-anchor="middle" x="220.24" y="-39.17" font-family="Times,serif" font-size="14.00">1</text>
</g>
<!-- g_api_PlayAnimation -->
<g id="node3" class="node">
<title>g_api_PlayAnimation</title>
<g id="a_node3"><a xlink:href="g_api_PlayAnimation.svg" xlink:title="g_api_PlayAnimation">
<ellipse fill="lightblue" stroke="black" cx="477.13" cy="-18" rx="106.68" ry="18"/>
<text text-anchor="middle" x="477.13" y="-14.3" font-family="Times,serif" font-size="14.00">g_api_PlayAnimation</text>
</a>
</g>
</g>
<!-- w_029.EntityWeaponAttack&#45;&gt;g_api_PlayAnimation -->
<g id="edge2" class="edge">
<title>w_029.EntityWeaponAttack&#45;&gt;g_api_PlayAnimation</title>
<path fill="none" stroke="black" d="M687.79,-179.93C645.67,-147.75 554.5,-78.11 507.11,-41.9"/>
<polygon fill="black" stroke="black" points="509.14,-39.05 499.07,-35.76 504.89,-44.61 509.14,-39.05"/>
<text text-anchor="middle" x="494.07" y="-39.56" font-family="Times,serif" font-size="14.00">1</text>
</g>
<!-- w_029.DestroyEntity -->
<g id="node4" class="node">
<title>w_029.DestroyEntity</title>
<g id="a_node4"><a xlink:href="w_029.DestroyEntity.svg" xlink:title="w_029.DestroyEntity">
<ellipse fill="green" stroke="black" cx="710.13" cy="-18" rx="108.58" ry="18"/>
<text text-anchor="middle" x="710.13" y="-14.3" font-family="Times,serif" font-size="14.00">w_029.DestroyEntity</text>
</a>
</g>
</g>
<!-- w_029.EntityWeaponAttack&#45;&gt;w_029.DestroyEntity -->
<g id="edge3" class="edge">
<title>w_029.EntityWeaponAttack&#45;&gt;w_029.DestroyEntity</title>
<path fill="none" stroke="black" d="M710.13,-179.93C710.13,-148.97 710.13,-83.3 710.13,-46.13"/>
<polygon fill="black" stroke="black" points="713.63,-46.02 710.13,-36.02 706.63,-46.02 713.63,-46.02"/>
<text text-anchor="middle" x="705.13" y="-39.82" font-family="Times,serif" font-size="14.00">1</text>
</g>
<!-- w_029.SetSpriteBank1 -->
<g id="node5" class="node">
<title>w_029.SetSpriteBank1</title>
<g id="a_node5"><a xlink:href="w_029.SetSpriteBank1.svg" xlink:title="w_029.SetSpriteBank1">
<ellipse fill="green" stroke="black" cx="954.13" cy="-18" rx="116.98" ry="18"/>
<text text-anchor="middle" x="954.13" y="-14.3" font-family="Times,serif" font-size="14.00">w_029.SetSpriteBank1</text>
</a>
</g>
</g>
<!-- w_029.EntityWeaponAttack&#45;&gt;w_029.SetSpriteBank1 -->
<g id="edge4" class="edge">
<title>w_029.EntityWeaponAttack&#45;&gt;w_029.SetSpriteBank1</title>
<path fill="none" stroke="black" d="M733.53,-179.93C777.73,-147.69 873.51,-77.82 923.05,-41.68"/>
<polygon fill="black" stroke="black" points="925.15,-44.48 931.17,-35.76 921.02,-38.82 925.15,-44.48"/>
<text text-anchor="middle" x="926.17" y="-39.56" font-family="Times,serif" font-size="14.00">1</text>
</g>
<!-- w_029.SetWeaponProperties -->
<g id="node6" class="node">
<title>w_029.SetWeaponProperties</title>
<g id="a_node6"><a xlink:href="w_029.SetWeaponProperties.svg" xlink:title="w_029.SetWeaponProperties">
<ellipse fill="green" stroke="black" cx="1233.13" cy="-18" rx="144.07" ry="18"/>
<text text-anchor="middle" x="1233.13" y="-14.3" font-family="Times,serif" font-size="14.00">w_029.SetWeaponProperties</text>
</a>
</g>
</g>
<!-- w_029.EntityWeaponAttack&#45;&gt;w_029.SetWeaponProperties -->
<g id="edge5" class="edge">
<title>w_029.EntityWeaponAttack&#45;&gt;w_029.SetWeaponProperties</title>
<path fill="none" stroke="black" d="M757.01,-181.05C853.07,-148.35 1071.99,-73.85 1176.09,-38.41"/>
<polygon fill="black" stroke="black" points="1177.46,-41.64 1185.8,-35.11 1175.21,-35.02 1177.46,-41.64"/>
<text text-anchor="middle" x="1180.8" y="-38.91" font-family="Times,serif" font-size="14.00">1</text>
</g>
</g>
</svg>
