<?xml version="1.0" encoding="UTF-8" standalone="no"?>
<!DOCTYPE svg PUBLIC "-//W3C//DTD SVG 1.1//EN"
 "http://www.w3.org/Graphics/SVG/1.1/DTD/svg11.dtd">
<!-- Generated by graphviz version 2.43.0 (0)
 -->
<!-- Title: w_023.EntityWeaponAttack Pages: 1 -->
<svg width="1188pt" height="224pt"
 viewBox="0.00 0.00 1187.58 224.00" xmlns="http://www.w3.org/2000/svg" xmlns:xlink="http://www.w3.org/1999/xlink">
<g id="graph0" class="graph" transform="scale(1 1) rotate(0) translate(4 220)">
<title>w_023.EntityWeaponAttack</title>
<polygon fill="white" stroke="transparent" points="-4,4 -4,-220 1183.58,-220 1183.58,4 -4,4"/>
<!-- w_023.EntityWeaponAttack -->
<g id="node1" class="node">
<title>w_023.EntityWeaponAttack</title>
<ellipse fill="red" stroke="black" cx="512.29" cy="-198" rx="138.38" ry="18"/>
<text text-anchor="middle" x="512.29" y="-194.3" font-family="Times,serif" font-size="14.00">w_023.EntityWeaponAttack</text>
</g>
<!-- dra.AddHearts -->
<g id="node2" class="node">
<title>dra.AddHearts</title>
<g id="a_node2"><a xlink:href="dra.AddHearts.svg" xlink:title="dra.AddHearts">
<ellipse fill="green" stroke="black" cx="79.29" cy="-18" rx="79.09" ry="18"/>
<text text-anchor="middle" x="79.29" y="-14.3" font-family="Times,serif" font-size="14.00">dra.AddHearts</text>
</a>
</g>
</g>
<!-- w_023.EntityWeaponAttack&#45;&gt;dra.AddHearts -->
<g id="edge1" class="edge">
<title>w_023.EntityWeaponAttack&#45;&gt;dra.AddHearts</title>
<path fill="none" stroke="black" d="M472.72,-180.73C392.41,-147.72 210.7,-73.02 125.28,-37.91"/>
<polygon fill="black" stroke="black" points="126.43,-34.59 115.85,-34.03 123.77,-41.07 126.43,-34.59"/>
<text text-anchor="middle" x="110.85" y="-37.83" font-family="Times,serif" font-size="14.00">1</text>
</g>
<!-- dra.func_8010DBFC -->
<g id="node3" class="node">
<title>dra.func_8010DBFC</title>
<g id="a_node3"><a xlink:href="dra.func_8010DBFC.svg" xlink:title="dra.func_8010DBFC">
<ellipse fill="green" stroke="black" cx="281.29" cy="-18" rx="104.78" ry="18"/>
<text text-anchor="middle" x="281.29" y="-14.3" font-family="Times,serif" font-size="14.00">dra.func_8010DBFC</text>
</a>
</g>
</g>
<!-- w_023.EntityWeaponAttack&#45;&gt;dra.func_8010DBFC -->
<g id="edge2" class="edge">
<title>w_023.EntityWeaponAttack&#45;&gt;dra.func_8010DBFC</title>
<path fill="none" stroke="black" d="M490.14,-179.93C448.38,-147.75 358,-78.11 311.01,-41.9"/>
<polygon fill="black" stroke="black" points="313.1,-39.09 303.04,-35.76 308.82,-44.63 313.1,-39.09"/>
<text text-anchor="middle" x="298.04" y="-39.56" font-family="Times,serif" font-size="14.00">1</text>
</g>
<!-- w_023.DestroyEntity -->
<g id="node4" class="node">
<title>w_023.DestroyEntity</title>
<g id="a_node4"><a xlink:href="w_023.DestroyEntity.svg" xlink:title="w_023.DestroyEntity">
<ellipse fill="green" stroke="black" cx="512.29" cy="-18" rx="108.58" ry="18"/>
<text text-anchor="middle" x="512.29" y="-14.3" font-family="Times,serif" font-size="14.00">w_023.DestroyEntity</text>
</a>
</g>
</g>
<!-- w_023.EntityWeaponAttack&#45;&gt;w_023.DestroyEntity -->
<g id="edge3" class="edge">
<title>w_023.EntityWeaponAttack&#45;&gt;w_023.DestroyEntity</title>
<path fill="none" stroke="black" d="M512.29,-179.93C512.29,-148.97 512.29,-83.3 512.29,-46.13"/>
<polygon fill="black" stroke="black" points="515.79,-46.02 512.29,-36.02 508.79,-46.02 515.79,-46.02"/>
<text text-anchor="middle" x="507.29" y="-39.82" font-family="Times,serif" font-size="14.00">1</text>
</g>
<!-- w_023.SetSpriteBank1 -->
<g id="node5" class="node">
<title>w_023.SetSpriteBank1</title>
<g id="a_node5"><a xlink:href="w_023.SetSpriteBank1.svg" xlink:title="w_023.SetSpriteBank1">
<ellipse fill="green" stroke="black" cx="756.29" cy="-18" rx="116.98" ry="18"/>
<text text-anchor="middle" x="756.29" y="-14.3" font-family="Times,serif" font-size="14.00">w_023.SetSpriteBank1</text>
</a>
</g>
</g>
<!-- w_023.EntityWeaponAttack&#45;&gt;w_023.SetSpriteBank1 -->
<g id="edge4" class="edge">
<title>w_023.EntityWeaponAttack&#45;&gt;w_023.SetSpriteBank1</title>
<path fill="none" stroke="black" d="M535.69,-179.93C579.89,-147.69 675.67,-77.82 725.21,-41.68"/>
<polygon fill="black" stroke="black" points="727.31,-44.48 733.32,-35.76 723.18,-38.82 727.31,-44.48"/>
<text text-anchor="middle" x="728.32" y="-39.56" font-family="Times,serif" font-size="14.00">1</text>
</g>
<!-- w_023.SetWeaponProperties -->
<g id="node6" class="node">
<title>w_023.SetWeaponProperties</title>
<g id="a_node6"><a xlink:href="w_023.SetWeaponProperties.svg" xlink:title="w_023.SetWeaponProperties">
<ellipse fill="green" stroke="black" cx="1035.29" cy="-18" rx="144.07" ry="18"/>
<text text-anchor="middle" x="1035.29" y="-14.3" font-family="Times,serif" font-size="14.00">w_023.SetWeaponProperties</text>
</a>
</g>
</g>
<!-- w_023.EntityWeaponAttack&#45;&gt;w_023.SetWeaponProperties -->
<g id="edge5" class="edge">
<title>w_023.EntityWeaponAttack&#45;&gt;w_023.SetWeaponProperties</title>
<path fill="none" stroke="black" d="M559.17,-181.05C655.23,-148.35 874.14,-73.85 978.25,-38.41"/>
<polygon fill="black" stroke="black" points="979.62,-41.64 987.96,-35.11 977.37,-35.02 979.62,-41.64"/>
<text text-anchor="middle" x="982.96" y="-38.91" font-family="Times,serif" font-size="14.00">1</text>
</g>
</g>
</svg>
