<?xml version="1.0" encoding="UTF-8" standalone="no"?>
<!DOCTYPE svg PUBLIC "-//W3C//DTD SVG 1.1//EN"
 "http://www.w3.org/Graphics/SVG/1.1/DTD/svg11.dtd">
<!-- Generated by graphviz version 2.43.0 (0)
 -->
<!-- Title: w_045.func_13F000_8017A718 Pages: 1 -->
<svg width="844pt" height="224pt"
 viewBox="0.00 0.00 844.13 224.00" xmlns="http://www.w3.org/2000/svg" xmlns:xlink="http://www.w3.org/1999/xlink">
<g id="graph0" class="graph" transform="scale(1 1) rotate(0) translate(4 220)">
<title>w_045.func_13F000_8017A718</title>
<polygon fill="white" stroke="transparent" points="-4,4 -4,-220 840.13,-220 840.13,4 -4,4"/>
<!-- w_045.func_13F000_8017A718 -->
<g id="node1" class="node">
<title>w_045.func_13F000_8017A718</title>
<ellipse fill="green" stroke="black" cx="417.24" cy="-18" rx="155.17" ry="18"/>
<text text-anchor="middle" x="417.24" y="-14.3" font-family="Times,serif" font-size="14.00">w_045.func_13F000_8017A718</text>
</g>
<!-- w_045.func_ptr_80170004 -->
<g id="node2" class="node">
<title>w_045.func_ptr_80170004</title>
<g id="a_node2"><a xlink:href="w_045.func_ptr_80170004.svg" xlink:title="w_045.func_ptr_80170004">
<ellipse fill="green" stroke="black" cx="133.24" cy="-198" rx="133.48" ry="18"/>
<text text-anchor="middle" x="133.24" y="-194.3" font-family="Times,serif" font-size="14.00">w_045.func_ptr_80170004</text>
</a>
</g>
</g>
<!-- w_045.func_ptr_80170004&#45;&gt;w_045.func_13F000_8017A718 -->
<g id="edge1" class="edge">
<title>w_045.func_ptr_80170004&#45;&gt;w_045.func_13F000_8017A718</title>
<path fill="none" stroke="black" d="M159.96,-180.25C211.34,-148.05 323.92,-77.49 381.61,-41.33"/>
<polygon fill="black" stroke="black" points="383.77,-44.11 390.38,-35.83 380.05,-38.18 383.77,-44.11"/>
<text text-anchor="middle" x="154.96" y="-169.05" font-family="Times,serif" font-size="14.00">2</text>
</g>
<!-- w_045.func_ptr_80170008 -->
<g id="node3" class="node">
<title>w_045.func_ptr_80170008</title>
<g id="a_node3"><a xlink:href="w_045.func_ptr_80170008.svg" xlink:title="w_045.func_ptr_80170008">
<ellipse fill="green" stroke="black" cx="417.24" cy="-198" rx="133.48" ry="18"/>
<text text-anchor="middle" x="417.24" y="-194.3" font-family="Times,serif" font-size="14.00">w_045.func_ptr_80170008</text>
</a>
</g>
</g>
<!-- w_045.func_ptr_80170008&#45;&gt;w_045.func_13F000_8017A718 -->
<g id="edge2" class="edge">
<title>w_045.func_ptr_80170008&#45;&gt;w_045.func_13F000_8017A718</title>
<path fill="none" stroke="black" d="M417.24,-179.93C417.24,-148.97 417.24,-83.3 417.24,-46.13"/>
<polygon fill="black" stroke="black" points="420.74,-46.02 417.24,-36.02 413.74,-46.02 420.74,-46.02"/>
<text text-anchor="middle" x="412.24" y="-168.73" font-family="Times,serif" font-size="14.00">2</text>
</g>
<!-- w_045.func_ptr_8017000C -->
<g id="node4" class="node">
<title>w_045.func_ptr_8017000C</title>
<g id="a_node4"><a xlink:href="w_045.func_ptr_8017000C.svg" xlink:title="w_045.func_ptr_8017000C">
<ellipse fill="green" stroke="black" cx="702.24" cy="-198" rx="133.78" ry="18"/>
<text text-anchor="middle" x="702.24" y="-194.3" font-family="Times,serif" font-size="14.00">w_045.func_ptr_8017000C</text>
</a>
</g>
</g>
<!-- w_045.func_ptr_8017000C&#45;&gt;w_045.func_13F000_8017A718 -->
<g id="edge3" class="edge">
<title>w_045.func_ptr_8017000C&#45;&gt;w_045.func_13F000_8017A718</title>
<path fill="none" stroke="black" d="M675.43,-180.25C623.87,-148.05 510.88,-77.49 452.99,-41.33"/>
<polygon fill="black" stroke="black" points="454.52,-38.16 444.19,-35.83 450.81,-44.1 454.52,-38.16"/>
<text text-anchor="middle" x="670.43" y="-169.05" font-family="Times,serif" font-size="14.00">2</text>
</g>
</g>
</svg>
