<?xml version="1.0" encoding="UTF-8" standalone="no"?>
<!DOCTYPE svg PUBLIC "-//W3C//DTD SVG 1.1//EN"
 "http://www.w3.org/Graphics/SVG/1.1/DTD/svg11.dtd">
<!-- Generated by graphviz version 2.43.0 (0)
 -->
<!-- Title: w_040.SetWeaponProperties Pages: 1 -->
<svg width="558pt" height="404pt"
 viewBox="0.00 0.00 558.48 404.00" xmlns="http://www.w3.org/2000/svg" xmlns:xlink="http://www.w3.org/1999/xlink">
<g id="graph0" class="graph" transform="scale(1 1) rotate(0) translate(4 400)">
<title>w_040.SetWeaponProperties</title>
<polygon fill="white" stroke="transparent" points="-4,4 -4,-400 554.48,-400 554.48,4 -4,4"/>
<!-- w_040.SetWeaponProperties -->
<g id="node1" class="node">
<title>w_040.SetWeaponProperties</title>
<ellipse fill="green" stroke="black" cx="275.24" cy="-198" rx="144.07" ry="18"/>
<text text-anchor="middle" x="275.24" y="-194.3" font-family="Times,serif" font-size="14.00">w_040.SetWeaponProperties</text>
</g>
<!-- dra.GetEquipProperties -->
<g id="node2" class="node">
<title>dra.GetEquipProperties</title>
<g id="a_node2"><a xlink:href="dra.GetEquipProperties.svg" xlink:title="dra.GetEquipProperties">
<ellipse fill="green" stroke="black" cx="155.24" cy="-18" rx="122.38" ry="18"/>
<text text-anchor="middle" x="155.24" y="-14.3" font-family="Times,serif" font-size="14.00">dra.GetEquipProperties</text>
</a>
</g>
</g>
<!-- w_040.SetWeaponProperties&#45;&gt;dra.GetEquipProperties -->
<g id="edge1" class="edge">
<title>w_040.SetWeaponProperties&#45;&gt;dra.GetEquipProperties</title>
<path fill="none" stroke="black" d="M263.73,-179.93C242.59,-148.57 197.44,-81.6 172.57,-44.71"/>
<polygon fill="black" stroke="black" points="175.2,-42.35 166.71,-36.02 169.4,-46.26 175.2,-42.35"/>
<text text-anchor="middle" x="161.71" y="-39.82" font-family="Times,serif" font-size="14.00">1</text>
</g>
<!-- dra.func_80118894 -->
<g id="node3" class="node">
<title>dra.func_80118894</title>
<g id="a_node3"><a xlink:href="dra.func_80118894.svg" xlink:title="dra.func_80118894">
<ellipse fill="green" stroke="black" cx="396.24" cy="-18" rx="100.98" ry="18"/>
<text text-anchor="middle" x="396.24" y="-14.3" font-family="Times,serif" font-size="14.00">dra.func_80118894</text>
</a>
</g>
</g>
<!-- w_040.SetWeaponProperties&#45;&gt;dra.func_80118894 -->
<g id="edge2" class="edge">
<title>w_040.SetWeaponProperties&#45;&gt;dra.func_80118894</title>
<path fill="none" stroke="black" d="M286.84,-179.93C308.16,-148.57 353.68,-81.6 378.76,-44.71"/>
<polygon fill="black" stroke="black" points="381.94,-46.25 384.67,-36.02 376.15,-42.32 381.94,-46.25"/>
<text text-anchor="middle" x="379.67" y="-39.82" font-family="Times,serif" font-size="14.00">1</text>
</g>
<!-- w_040.func_ptr_80170004 -->
<g id="node4" class="node">
<title>w_040.func_ptr_80170004</title>
<g id="a_node4"><a xlink:href="w_040.func_ptr_80170004.svg" xlink:title="w_040.func_ptr_80170004">
<ellipse fill="green" stroke="black" cx="133.24" cy="-378" rx="133.48" ry="18"/>
<text text-anchor="middle" x="133.24" y="-374.3" font-family="Times,serif" font-size="14.00">w_040.func_ptr_80170004</text>
</a>
</g>
</g>
<!-- w_040.func_ptr_80170004&#45;&gt;w_040.SetWeaponProperties -->
<g id="edge3" class="edge">
<title>w_040.func_ptr_80170004&#45;&gt;w_040.SetWeaponProperties</title>
<path fill="none" stroke="black" d="M146.85,-359.93C171.98,-328.43 225.75,-261.03 255.1,-224.24"/>
<polygon fill="black" stroke="black" points="258.16,-226.02 261.66,-216.02 252.69,-221.65 258.16,-226.02"/>
<text text-anchor="middle" x="141.85" y="-348.73" font-family="Times,serif" font-size="14.00">1</text>
</g>
<!-- w_040.func_ptr_80170008 -->
<g id="node5" class="node">
<title>w_040.func_ptr_80170008</title>
<g id="a_node5"><a xlink:href="w_040.func_ptr_80170008.svg" xlink:title="w_040.func_ptr_80170008">
<ellipse fill="green" stroke="black" cx="417.24" cy="-378" rx="133.48" ry="18"/>
<text text-anchor="middle" x="417.24" y="-374.3" font-family="Times,serif" font-size="14.00">w_040.func_ptr_80170008</text>
</a>
</g>
</g>
<!-- w_040.func_ptr_80170008&#45;&gt;w_040.SetWeaponProperties -->
<g id="edge4" class="edge">
<title>w_040.func_ptr_80170008&#45;&gt;w_040.SetWeaponProperties</title>
<path fill="none" stroke="black" d="M403.62,-359.93C378.5,-328.43 324.73,-261.03 295.37,-224.24"/>
<polygon fill="black" stroke="black" points="297.78,-221.65 288.81,-216.02 292.31,-226.02 297.78,-221.65"/>
<text text-anchor="middle" x="398.62" y="-348.73" font-family="Times,serif" font-size="14.00">1</text>
</g>
</g>
</svg>
