<?xml version="1.0" encoding="UTF-8" standalone="no"?>
<!DOCTYPE svg PUBLIC "-//W3C//DTD SVG 1.1//EN"
 "http://www.w3.org/Graphics/SVG/1.1/DTD/svg11.dtd">
<!-- Generated by graphviz version 2.43.0 (0)
 -->
<!-- Title: w_047.func_ptr_80170004 Pages: 1 -->
<svg width="714pt" height="224pt"
 viewBox="0.00 0.00 714.49 224.00" xmlns="http://www.w3.org/2000/svg" xmlns:xlink="http://www.w3.org/1999/xlink">
<g id="graph0" class="graph" transform="scale(1 1) rotate(0) translate(4 220)">
<title>w_047.func_ptr_80170004</title>
<polygon fill="white" stroke="transparent" points="-4,4 -4,-220 710.49,-220 710.49,4 -4,4"/>
<!-- w_047.func_ptr_80170004 -->
<g id="node1" class="node">
<title>w_047.func_ptr_80170004</title>
<ellipse fill="red" stroke="black" cx="190.5" cy="-198" rx="133.48" ry="18"/>
<text text-anchor="middle" x="190.5" y="-194.3" font-family="Times,serif" font-size="14.00">w_047.func_ptr_80170004</text>
</g>
<!-- rand -->
<g id="node2" class="node">
<title>rand</title>
<g id="a_node2"><a xlink:href="rand.svg" xlink:title="rand">
<ellipse fill="lightblue" stroke="black" cx="32.5" cy="-18" rx="32.49" ry="18"/>
<text text-anchor="middle" x="32.5" y="-14.3" font-family="Times,serif" font-size="14.00">rand</text>
</a>
</g>
</g>
<!-- w_047.func_ptr_80170004&#45;&gt;rand -->
<g id="edge1" class="edge">
<title>w_047.func_ptr_80170004&#45;&gt;rand</title>
<path fill="none" stroke="black" d="M175.35,-179.93C146.84,-147.82 85.2,-78.37 53.01,-42.11"/>
<polygon fill="black" stroke="black" points="55.49,-39.64 46.24,-34.48 50.26,-44.28 55.49,-39.64"/>
<text text-anchor="middle" x="41.24" y="-38.28" font-family="Times,serif" font-size="14.00">2</text>
</g>
<!-- rcos -->
<g id="node3" class="node">
<title>rcos</title>
<g id="a_node3"><a xlink:href="rcos.svg" xlink:title="rcos">
<ellipse fill="lightblue" stroke="black" cx="113.5" cy="-18" rx="30.59" ry="18"/>
<text text-anchor="middle" x="113.5" y="-14.3" font-family="Times,serif" font-size="14.00">rcos</text>
</a>
</g>
</g>
<!-- w_047.func_ptr_80170004&#45;&gt;rcos -->
<g id="edge2" class="edge">
<title>w_047.func_ptr_80170004&#45;&gt;rcos</title>
<path fill="none" stroke="black" d="M183.11,-179.93C169.63,-148.75 140.92,-82.4 124.9,-45.37"/>
<polygon fill="black" stroke="black" points="127.93,-43.54 120.75,-35.76 121.5,-46.32 127.93,-43.54"/>
<text text-anchor="middle" x="115.75" y="-39.56" font-family="Times,serif" font-size="14.00">1</text>
</g>
<!-- rsin -->
<g id="node4" class="node">
<title>rsin</title>
<g id="a_node4"><a xlink:href="rsin.svg" xlink:title="rsin">
<ellipse fill="lightblue" stroke="black" cx="190.5" cy="-18" rx="28.7" ry="18"/>
<text text-anchor="middle" x="190.5" y="-14.3" font-family="Times,serif" font-size="14.00">rsin</text>
</a>
</g>
</g>
<!-- w_047.func_ptr_80170004&#45;&gt;rsin -->
<g id="edge3" class="edge">
<title>w_047.func_ptr_80170004&#45;&gt;rsin</title>
<path fill="none" stroke="black" d="M190.5,-179.93C190.5,-148.97 190.5,-83.3 190.5,-46.13"/>
<polygon fill="black" stroke="black" points="194,-46.02 190.5,-36.02 187,-46.02 194,-46.02"/>
<text text-anchor="middle" x="185.5" y="-39.82" font-family="Times,serif" font-size="14.00">1</text>
</g>
<!-- w_047.DestroyEntity -->
<g id="node5" class="node">
<title>w_047.DestroyEntity</title>
<g id="a_node5"><a xlink:href="w_047.DestroyEntity.svg" xlink:title="w_047.DestroyEntity">
<ellipse fill="green" stroke="black" cx="345.5" cy="-18" rx="108.58" ry="18"/>
<text text-anchor="middle" x="345.5" y="-14.3" font-family="Times,serif" font-size="14.00">w_047.DestroyEntity</text>
</a>
</g>
</g>
<!-- w_047.func_ptr_80170004&#45;&gt;w_047.DestroyEntity -->
<g id="edge4" class="edge">
<title>w_047.func_ptr_80170004&#45;&gt;w_047.DestroyEntity</title>
<path fill="none" stroke="black" d="M205.36,-179.93C232.9,-148.3 291.97,-80.46 323.92,-43.78"/>
<polygon fill="black" stroke="black" points="326.75,-45.86 330.68,-36.02 321.47,-41.26 326.75,-45.86"/>
<text text-anchor="middle" x="325.68" y="-39.82" font-family="Times,serif" font-size="14.00">1</text>
</g>
<!-- w_047.SetSpriteBank2 -->
<g id="node6" class="node">
<title>w_047.SetSpriteBank2</title>
<g id="a_node6"><a xlink:href="w_047.SetSpriteBank2.svg" xlink:title="w_047.SetSpriteBank2">
<ellipse fill="green" stroke="black" cx="589.5" cy="-18" rx="116.98" ry="18"/>
<text text-anchor="middle" x="589.5" y="-14.3" font-family="Times,serif" font-size="14.00">w_047.SetSpriteBank2</text>
</a>
</g>
</g>
<!-- w_047.func_ptr_80170004&#45;&gt;w_047.SetSpriteBank2 -->
<g id="edge5" class="edge">
<title>w_047.func_ptr_80170004&#45;&gt;w_047.SetSpriteBank2</title>
<path fill="none" stroke="black" d="M227.32,-180.57C300.55,-147.91 464.25,-74.87 544.04,-39.28"/>
<polygon fill="black" stroke="black" points="545.63,-42.4 553.34,-35.13 542.78,-36.01 545.63,-42.4"/>
<text text-anchor="middle" x="548.34" y="-38.93" font-family="Times,serif" font-size="14.00">1</text>
</g>
</g>
</svg>
