<?xml version="1.0" encoding="UTF-8" standalone="no"?>
<!DOCTYPE svg PUBLIC "-//W3C//DTD SVG 1.1//EN"
 "http://www.w3.org/Graphics/SVG/1.1/DTD/svg11.dtd">
<!-- Generated by graphviz version 2.43.0 (0)
 -->
<!-- Title: w_050.DestroyEntity Pages: 1 -->
<svg width="1733pt" height="404pt"
 viewBox="0.00 0.00 1732.83 404.00" xmlns="http://www.w3.org/2000/svg" xmlns:xlink="http://www.w3.org/1999/xlink">
<g id="graph0" class="graph" transform="scale(1 1) rotate(0) translate(4 400)">
<title>w_050.DestroyEntity</title>
<polygon fill="white" stroke="transparent" points="-4,4 -4,-400 1728.83,-400 1728.83,4 -4,4"/>
<!-- w_050.DestroyEntity -->
<g id="node1" class="node">
<title>w_050.DestroyEntity</title>
<ellipse fill="green" stroke="black" cx="879.59" cy="-198" rx="108.58" ry="18"/>
<text text-anchor="middle" x="879.59" y="-194.3" font-family="Times,serif" font-size="14.00">w_050.DestroyEntity</text>
</g>
<!-- dra.FreePrimitives -->
<g id="node2" class="node">
<title>dra.FreePrimitives</title>
<g id="a_node2"><a xlink:href="dra.FreePrimitives.svg" xlink:title="dra.FreePrimitives">
<ellipse fill="green" stroke="black" cx="879.59" cy="-18" rx="98.58" ry="18"/>
<text text-anchor="middle" x="879.59" y="-14.3" font-family="Times,serif" font-size="14.00">dra.FreePrimitives</text>
</a>
</g>
</g>
<!-- w_050.DestroyEntity&#45;&gt;dra.FreePrimitives -->
<g id="edge1" class="edge">
<title>w_050.DestroyEntity&#45;&gt;dra.FreePrimitives</title>
<path fill="none" stroke="black" d="M879.59,-179.93C879.59,-148.97 879.59,-83.3 879.59,-46.13"/>
<polygon fill="black" stroke="black" points="883.09,-46.02 879.59,-36.02 876.09,-46.02 883.09,-46.02"/>
<text text-anchor="middle" x="874.59" y="-39.82" font-family="Times,serif" font-size="14.00">1</text>
</g>
<!-- w_050.DestroyEntityWeapon -->
<g id="node3" class="node">
<title>w_050.DestroyEntityWeapon</title>
<g id="a_node3"><a xlink:href="w_050.DestroyEntityWeapon.svg" xlink:title="w_050.DestroyEntityWeapon">
<ellipse fill="green" stroke="black" cx="145.59" cy="-378" rx="145.67" ry="18"/>
<text text-anchor="middle" x="145.59" y="-374.3" font-family="Times,serif" font-size="14.00">w_050.DestroyEntityWeapon</text>
</a>
</g>
</g>
<!-- w_050.DestroyEntityWeapon&#45;&gt;w_050.DestroyEntity -->
<g id="edge2" class="edge">
<title>w_050.DestroyEntityWeapon&#45;&gt;w_050.DestroyEntity</title>
<path fill="none" stroke="black" d="M208.48,-361.75C345.39,-328.55 669.43,-249.97 811.19,-215.59"/>
<polygon fill="black" stroke="black" points="812.18,-218.95 821.07,-213.19 810.53,-212.15 812.18,-218.95"/>
<text text-anchor="middle" x="203.48" y="-350.55" font-family="Times,serif" font-size="14.00">2</text>
</g>
<!-- w_050.EntityWeaponAttack -->
<g id="node4" class="node">
<title>w_050.EntityWeaponAttack</title>
<g id="a_node4"><a xlink:href="w_050.EntityWeaponAttack.svg" xlink:title="w_050.EntityWeaponAttack">
<ellipse fill="green" stroke="black" cx="447.59" cy="-378" rx="138.38" ry="18"/>
<text text-anchor="middle" x="447.59" y="-374.3" font-family="Times,serif" font-size="14.00">w_050.EntityWeaponAttack</text>
</a>
</g>
</g>
<!-- w_050.EntityWeaponAttack&#45;&gt;w_050.DestroyEntity -->
<g id="edge3" class="edge">
<title>w_050.EntityWeaponAttack&#45;&gt;w_050.DestroyEntity</title>
<path fill="none" stroke="black" d="M487.07,-360.73C566.57,-327.97 745.68,-254.17 831.7,-218.73"/>
<polygon fill="black" stroke="black" points="833.06,-221.96 840.97,-214.91 830.39,-215.48 833.06,-221.96"/>
<text text-anchor="middle" x="482.07" y="-349.53" font-family="Times,serif" font-size="14.00">1</text>
</g>
<!-- w_050.func_ptr_80170004 -->
<g id="node5" class="node">
<title>w_050.func_ptr_80170004</title>
<g id="a_node5"><a xlink:href="w_050.func_ptr_80170004.svg" xlink:title="w_050.func_ptr_80170004">
<ellipse fill="green" stroke="black" cx="737.59" cy="-378" rx="133.48" ry="18"/>
<text text-anchor="middle" x="737.59" y="-374.3" font-family="Times,serif" font-size="14.00">w_050.func_ptr_80170004</text>
</a>
</g>
</g>
<!-- w_050.func_ptr_80170004&#45;&gt;w_050.DestroyEntity -->
<g id="edge4" class="edge">
<title>w_050.func_ptr_80170004&#45;&gt;w_050.DestroyEntity</title>
<path fill="none" stroke="black" d="M751.2,-359.93C776.33,-328.43 830.1,-261.03 859.45,-224.24"/>
<polygon fill="black" stroke="black" points="862.51,-226.02 866.01,-216.02 857.04,-221.65 862.51,-226.02"/>
<text text-anchor="middle" x="746.2" y="-348.73" font-family="Times,serif" font-size="14.00">1</text>
</g>
<!-- w_050.func_ptr_80170008 -->
<g id="node6" class="node">
<title>w_050.func_ptr_80170008</title>
<g id="a_node6"><a xlink:href="w_050.func_ptr_80170008.svg" xlink:title="w_050.func_ptr_80170008">
<ellipse fill="green" stroke="black" cx="1021.59" cy="-378" rx="133.48" ry="18"/>
<text text-anchor="middle" x="1021.59" y="-374.3" font-family="Times,serif" font-size="14.00">w_050.func_ptr_80170008</text>
</a>
</g>
</g>
<!-- w_050.func_ptr_80170008&#45;&gt;w_050.DestroyEntity -->
<g id="edge5" class="edge">
<title>w_050.func_ptr_80170008&#45;&gt;w_050.DestroyEntity</title>
<path fill="none" stroke="black" d="M1007.97,-359.93C982.84,-328.43 929.07,-261.03 899.72,-224.24"/>
<polygon fill="black" stroke="black" points="902.13,-221.65 893.16,-216.02 896.66,-226.02 902.13,-221.65"/>
<text text-anchor="middle" x="1002.97" y="-348.73" font-family="Times,serif" font-size="14.00">1</text>
</g>
<!-- w_050.func_ptr_8017000C -->
<g id="node7" class="node">
<title>w_050.func_ptr_8017000C</title>
<g id="a_node7"><a xlink:href="w_050.func_ptr_8017000C.svg" xlink:title="w_050.func_ptr_8017000C">
<ellipse fill="green" stroke="black" cx="1306.59" cy="-378" rx="133.78" ry="18"/>
<text text-anchor="middle" x="1306.59" y="-374.3" font-family="Times,serif" font-size="14.00">w_050.func_ptr_8017000C</text>
</a>
</g>
</g>
<!-- w_050.func_ptr_8017000C&#45;&gt;w_050.DestroyEntity -->
<g id="edge6" class="edge">
<title>w_050.func_ptr_8017000C&#45;&gt;w_050.DestroyEntity</title>
<path fill="none" stroke="black" d="M1267.56,-360.73C1189.06,-328.01 1012.3,-254.32 927.18,-218.84"/>
<polygon fill="black" stroke="black" points="928.33,-215.53 917.75,-214.91 925.64,-221.99 928.33,-215.53"/>
<text text-anchor="middle" x="1262.56" y="-349.53" font-family="Times,serif" font-size="14.00">1</text>
</g>
<!-- w_050.func_ptr_80170010 -->
<g id="node8" class="node">
<title>w_050.func_ptr_80170010</title>
<g id="a_node8"><a xlink:href="w_050.func_ptr_80170010.svg" xlink:title="w_050.func_ptr_80170010">
<ellipse fill="green" stroke="black" cx="1591.59" cy="-378" rx="133.48" ry="18"/>
<text text-anchor="middle" x="1591.59" y="-374.3" font-family="Times,serif" font-size="14.00">w_050.func_ptr_80170010</text>
</a>
</g>
</g>
<!-- w_050.func_ptr_80170010&#45;&gt;w_050.DestroyEntity -->
<g id="edge7" class="edge">
<title>w_050.func_ptr_80170010&#45;&gt;w_050.DestroyEntity</title>
<path fill="none" stroke="black" d="M1531.19,-361.9C1399.17,-328.9 1085.68,-250.52 947.27,-215.92"/>
<polygon fill="black" stroke="black" points="947.76,-212.44 937.21,-213.41 946.06,-219.23 947.76,-212.44"/>
<text text-anchor="middle" x="1526.19" y="-350.7" font-family="Times,serif" font-size="14.00">1</text>
</g>
</g>
</svg>
