<?xml version="1.0" encoding="UTF-8" standalone="no"?>
<!DOCTYPE svg PUBLIC "-//W3C//DTD SVG 1.1//EN"
 "http://www.w3.org/Graphics/SVG/1.1/DTD/svg11.dtd">
<!-- Generated by graphviz version 2.43.0 (0)
 -->
<!-- Title: wrp.InitializeEntity Pages: 1 -->
<svg width="7842pt" height="224pt"
 viewBox="0.00 0.00 7841.78 224.00" xmlns="http://www.w3.org/2000/svg" xmlns:xlink="http://www.w3.org/1999/xlink">
<g id="graph0" class="graph" transform="scale(1 1) rotate(0) translate(4 220)">
<title>wrp.InitializeEntity</title>
<polygon fill="white" stroke="transparent" points="-4,4 -4,-220 7837.78,-220 7837.78,4 -4,4"/>
<!-- wrp.InitializeEntity -->
<g id="node1" class="node">
<title>wrp.InitializeEntity</title>
<ellipse fill="green" stroke="black" cx="4057.54" cy="-18" rx="100.98" ry="18"/>
<text text-anchor="middle" x="4057.54" y="-14.3" font-family="Times,serif" font-size="14.00">wrp.InitializeEntity</text>
</g>
<!-- rwrp.EntityBigRedFireball -->
<g id="node2" class="node">
<title>rwrp.EntityBigRedFireball</title>
<g id="a_node2"><a xlink:href="rwrp.EntityBigRedFireball.svg" xlink:title="rwrp.EntityBigRedFireball">
<ellipse fill="green" stroke="black" cx="134.54" cy="-198" rx="134.58" ry="18"/>
<text text-anchor="middle" x="134.54" y="-194.3" font-family="Times,serif" font-size="14.00">rwrp.EntityBigRedFireball</text>
</a>
</g>
</g>
<!-- rwrp.EntityBigRedFireball&#45;&gt;wrp.InitializeEntity -->
<g id="edge1" class="edge">
<title>rwrp.EntityBigRedFireball&#45;&gt;wrp.InitializeEntity</title>
<path fill="none" stroke="black" d="M227.78,-184.96C244.65,-183.08 262.1,-181.32 278.54,-180 1726.77,-63.83 3494.41,-28.2 3947.6,-20.67"/>
<polygon fill="black" stroke="black" points="3947.8,-24.17 3957.74,-20.51 3947.69,-17.17 3947.8,-24.17"/>
<text text-anchor="middle" x="222.78" y="-173.76" font-family="Times,serif" font-size="14.00">1</text>
</g>
<!-- rwrp.EntityEnemyBlood -->
<g id="node3" class="node">
<title>rwrp.EntityEnemyBlood</title>
<g id="a_node3"><a xlink:href="rwrp.EntityEnemyBlood.svg" xlink:title="rwrp.EntityEnemyBlood">
<ellipse fill="green" stroke="black" cx="410.54" cy="-198" rx="123.48" ry="18"/>
<text text-anchor="middle" x="410.54" y="-194.3" font-family="Times,serif" font-size="14.00">rwrp.EntityEnemyBlood</text>
</a>
</g>
</g>
<!-- rwrp.EntityEnemyBlood&#45;&gt;wrp.InitializeEntity -->
<g id="edge2" class="edge">
<title>rwrp.EntityEnemyBlood&#45;&gt;wrp.InitializeEntity</title>
<path fill="none" stroke="black" d="M495.99,-184.95C511.46,-183.07 527.46,-181.31 542.54,-180 1881.14,-63.35 3514.35,-28.3 3947.72,-20.74"/>
<polygon fill="black" stroke="black" points="3947.8,-24.24 3957.74,-20.57 3947.68,-17.24 3947.8,-24.24"/>
<text text-anchor="middle" x="490.99" y="-173.75" font-family="Times,serif" font-size="14.00">1</text>
</g>
<!-- rwrp.EntityIntenseExplosion -->
<g id="node4" class="node">
<title>rwrp.EntityIntenseExplosion</title>
<g id="a_node4"><a xlink:href="rwrp.EntityIntenseExplosion.svg" xlink:title="rwrp.EntityIntenseExplosion">
<ellipse fill="green" stroke="black" cx="696.54" cy="-198" rx="144.87" ry="18"/>
<text text-anchor="middle" x="696.54" y="-194.3" font-family="Times,serif" font-size="14.00">rwrp.EntityIntenseExplosion</text>
</a>
</g>
</g>
<!-- rwrp.EntityIntenseExplosion&#45;&gt;wrp.InitializeEntity -->
<g id="edge3" class="edge">
<title>rwrp.EntityIntenseExplosion&#45;&gt;wrp.InitializeEntity</title>
<path fill="none" stroke="black" d="M797.1,-185.02C814.89,-183.15 833.24,-181.39 850.54,-180 2064.28,-82.63 3541.46,-34.21 3948.98,-22.09"/>
<polygon fill="black" stroke="black" points="3949.09,-25.59 3958.98,-21.8 3948.89,-18.6 3949.09,-25.59"/>
<text text-anchor="middle" x="792.1" y="-173.82" font-family="Times,serif" font-size="14.00">1</text>
</g>
<!-- rwrp.EntityMessageBox -->
<g id="node5" class="node">
<title>rwrp.EntityMessageBox</title>
<g id="a_node5"><a xlink:href="rwrp.EntityMessageBox.svg" xlink:title="rwrp.EntityMessageBox">
<ellipse fill="green" stroke="black" cx="982.54" cy="-198" rx="123.48" ry="18"/>
<text text-anchor="middle" x="982.54" y="-194.3" font-family="Times,serif" font-size="14.00">rwrp.EntityMessageBox</text>
</a>
</g>
</g>
<!-- rwrp.EntityMessageBox&#45;&gt;wrp.InitializeEntity -->
<g id="edge4" class="edge">
<title>rwrp.EntityMessageBox&#45;&gt;wrp.InitializeEntity</title>
<path fill="none" stroke="black" d="M1068.35,-185.02C1083.71,-183.14 1099.58,-181.37 1114.54,-180 2218.79,-78.83 3562.38,-33.57 3948.85,-22.06"/>
<polygon fill="black" stroke="black" points="3949.01,-25.56 3958.9,-21.77 3948.8,-18.56 3949.01,-25.56"/>
<text text-anchor="middle" x="1063.35" y="-173.82" font-family="Times,serif" font-size="14.00">1</text>
</g>
<!-- rwrp.EntityOlroxDrool -->
<g id="node6" class="node">
<title>rwrp.EntityOlroxDrool</title>
<g id="a_node6"><a xlink:href="rwrp.EntityOlroxDrool.svg" xlink:title="rwrp.EntityOlroxDrool">
<ellipse fill="green" stroke="black" cx="1239.54" cy="-198" rx="115.88" ry="18"/>
<text text-anchor="middle" x="1239.54" y="-194.3" font-family="Times,serif" font-size="14.00">rwrp.EntityOlroxDrool</text>
</a>
</g>
</g>
<!-- rwrp.EntityOlroxDrool&#45;&gt;wrp.InitializeEntity -->
<g id="edge5" class="edge">
<title>rwrp.EntityOlroxDrool&#45;&gt;wrp.InitializeEntity</title>
<path fill="none" stroke="black" d="M1320.46,-185.09C1335.11,-183.19 1350.26,-181.4 1364.54,-180 2366.69,-82.04 3584.89,-35.07 3949.49,-22.53"/>
<polygon fill="black" stroke="black" points="3949.63,-26.03 3959.51,-22.19 3949.39,-19.03 3949.63,-26.03"/>
<text text-anchor="middle" x="1315.46" y="-173.89" font-family="Times,serif" font-size="14.00">1</text>
</g>
<!-- rwrp.EntityRWarpRoom -->
<g id="node7" class="node">
<title>rwrp.EntityRWarpRoom</title>
<g id="a_node7"><a xlink:href="rwrp.EntityRWarpRoom.svg" xlink:title="rwrp.EntityRWarpRoom">
<ellipse fill="green" stroke="black" cx="1495.54" cy="-198" rx="122.38" ry="18"/>
<text text-anchor="middle" x="1495.54" y="-194.3" font-family="Times,serif" font-size="14.00">rwrp.EntityRWarpRoom</text>
</a>
</g>
</g>
<!-- rwrp.EntityRWarpRoom&#45;&gt;wrp.InitializeEntity -->
<g id="edge6" class="edge">
<title>rwrp.EntityRWarpRoom&#45;&gt;wrp.InitializeEntity</title>
<path fill="none" stroke="black" d="M1581.07,-185.11C1596.2,-183.24 1611.82,-181.44 1626.54,-180 2523.33,-92.2 3611.02,-39.04 3950.87,-23.66"/>
<polygon fill="black" stroke="black" points="3951.12,-27.16 3960.95,-23.21 3950.8,-20.16 3951.12,-27.16"/>
<text text-anchor="middle" x="1576.07" y="-173.91" font-family="Times,serif" font-size="14.00">1</text>
</g>
<!-- rwrp.EntityRelicOrb -->
<g id="node8" class="node">
<title>rwrp.EntityRelicOrb</title>
<g id="a_node8"><a xlink:href="rwrp.EntityRelicOrb.svg" xlink:title="rwrp.EntityRelicOrb">
<ellipse fill="green" stroke="black" cx="1740.54" cy="-198" rx="105.08" ry="18"/>
<text text-anchor="middle" x="1740.54" y="-194.3" font-family="Times,serif" font-size="14.00">rwrp.EntityRelicOrb</text>
</a>
</g>
</g>
<!-- rwrp.EntityRelicOrb&#45;&gt;wrp.InitializeEntity -->
<g id="edge7" class="edge">
<title>rwrp.EntityRelicOrb&#45;&gt;wrp.InitializeEntity</title>
<path fill="none" stroke="black" d="M1814.63,-185.13C1827.9,-183.24 1841.61,-181.43 1854.54,-180 2658.37,-90.82 3632.9,-39.31 3951.34,-23.93"/>
<polygon fill="black" stroke="black" points="3951.66,-27.42 3961.48,-23.44 3951.33,-20.42 3951.66,-27.42"/>
<text text-anchor="middle" x="1809.63" y="-173.93" font-family="Times,serif" font-size="14.00">1</text>
</g>
<!-- rwrp.EntityRoomForeground -->
<g id="node9" class="node">
<title>rwrp.EntityRoomForeground</title>
<g id="a_node9"><a xlink:href="rwrp.EntityRoomForeground.svg" xlink:title="rwrp.EntityRoomForeground">
<ellipse fill="green" stroke="black" cx="2009.54" cy="-198" rx="145.67" ry="18"/>
<text text-anchor="middle" x="2009.54" y="-194.3" font-family="Times,serif" font-size="14.00">rwrp.EntityRoomForeground</text>
</a>
</g>
</g>
<!-- rwrp.EntityRoomForeground&#45;&gt;wrp.InitializeEntity -->
<g id="edge8" class="edge">
<title>rwrp.EntityRoomForeground&#45;&gt;wrp.InitializeEntity</title>
<path fill="none" stroke="black" d="M2112.63,-185.26C2129.63,-183.42 2147.07,-181.61 2163.54,-180 2848.09,-113.13 3673.42,-48.43 3956.54,-26.69"/>
<polygon fill="black" stroke="black" points="3957.08,-30.16 3966.78,-25.9 3956.55,-23.18 3957.08,-30.16"/>
<text text-anchor="middle" x="2107.63" y="-174.06" font-family="Times,serif" font-size="14.00">1</text>
</g>
<!-- rwrp.EntitySoulStealOrb -->
<g id="node10" class="node">
<title>rwrp.EntitySoulStealOrb</title>
<g id="a_node10"><a xlink:href="rwrp.EntitySoulStealOrb.svg" xlink:title="rwrp.EntitySoulStealOrb">
<ellipse fill="green" stroke="black" cx="2299.54" cy="-198" rx="126.98" ry="18"/>
<text text-anchor="middle" x="2299.54" y="-194.3" font-family="Times,serif" font-size="14.00">rwrp.EntitySoulStealOrb</text>
</a>
</g>
</g>
<!-- rwrp.EntitySoulStealOrb&#45;&gt;wrp.InitializeEntity -->
<g id="edge9" class="edge">
<title>rwrp.EntitySoulStealOrb&#45;&gt;wrp.InitializeEntity</title>
<path fill="none" stroke="black" d="M2389.91,-185.29C2404.81,-183.45 2420.1,-181.62 2434.54,-180 3011.8,-115.03 3706.17,-50.8 3959.22,-27.84"/>
<polygon fill="black" stroke="black" points="3959.84,-31.3 3969.49,-26.91 3959.21,-24.33 3959.84,-31.3"/>
<text text-anchor="middle" x="2384.91" y="-174.09" font-family="Times,serif" font-size="14.00">1</text>
</g>
<!-- rwrp.EntityUnkId13 -->
<g id="node11" class="node">
<title>rwrp.EntityUnkId13</title>
<g id="a_node11"><a xlink:href="rwrp.EntityUnkId13.svg" xlink:title="rwrp.EntityUnkId13">
<ellipse fill="green" stroke="black" cx="2548.54" cy="-198" rx="104.78" ry="18"/>
<text text-anchor="middle" x="2548.54" y="-194.3" font-family="Times,serif" font-size="14.00">rwrp.EntityUnkId13</text>
</a>
</g>
</g>
<!-- rwrp.EntityUnkId13&#45;&gt;wrp.InitializeEntity -->
<g id="edge10" class="edge">
<title>rwrp.EntityUnkId13&#45;&gt;wrp.InitializeEntity</title>
<path fill="none" stroke="black" d="M2623.61,-185.44C2636.58,-183.55 2649.94,-181.67 2662.54,-180 3150.8,-115.44 3737.18,-52.51 3962.75,-28.84"/>
<polygon fill="black" stroke="black" points="3963.31,-32.3 3972.89,-27.78 3962.58,-25.34 3963.31,-32.3"/>
<text text-anchor="middle" x="2618.61" y="-174.24" font-family="Times,serif" font-size="14.00">1</text>
</g>
<!-- rwrp.EntityWarpSmallRocks -->
<g id="node12" class="node">
<title>rwrp.EntityWarpSmallRocks</title>
<g id="a_node12"><a xlink:href="rwrp.EntityWarpSmallRocks.svg" xlink:title="rwrp.EntityWarpSmallRocks">
<ellipse fill="green" stroke="black" cx="2814.54" cy="-198" rx="142.97" ry="18"/>
<text text-anchor="middle" x="2814.54" y="-194.3" font-family="Times,serif" font-size="14.00">rwrp.EntityWarpSmallRocks</text>
</a>
</g>
</g>
<!-- rwrp.EntityWarpSmallRocks&#45;&gt;wrp.InitializeEntity -->
<g id="edge11" class="edge">
<title>rwrp.EntityWarpSmallRocks&#45;&gt;wrp.InitializeEntity</title>
<path fill="none" stroke="black" d="M2905.18,-184.02C3136.34,-150.92 3745.46,-63.69 3971.5,-31.32"/>
<polygon fill="black" stroke="black" points="3972.25,-34.75 3981.65,-29.87 3971.25,-27.82 3972.25,-34.75"/>
<text text-anchor="middle" x="2900.18" y="-172.82" font-family="Times,serif" font-size="14.00">1</text>
</g>
<!-- rwrp.InitializeUnkEntity -->
<g id="node13" class="node">
<title>rwrp.InitializeUnkEntity</title>
<g id="a_node13"><a xlink:href="rwrp.InitializeUnkEntity.svg" xlink:title="rwrp.InitializeUnkEntity">
<ellipse fill="green" stroke="black" cx="3099.54" cy="-198" rx="124.28" ry="18"/>
<text text-anchor="middle" x="3099.54" y="-194.3" font-family="Times,serif" font-size="14.00">rwrp.InitializeUnkEntity</text>
</a>
</g>
</g>
<!-- rwrp.InitializeUnkEntity&#45;&gt;wrp.InitializeEntity -->
<g id="edge12" class="edge">
<title>rwrp.InitializeUnkEntity&#45;&gt;wrp.InitializeEntity</title>
<path fill="none" stroke="black" d="M3172.72,-183.4C3349.69,-150.52 3799.51,-66.94 3980.43,-33.33"/>
<polygon fill="black" stroke="black" points="3981.21,-36.74 3990.4,-31.47 3979.93,-29.86 3981.21,-36.74"/>
<text text-anchor="middle" x="3167.72" y="-172.2" font-family="Times,serif" font-size="14.00">1</text>
</g>
<!-- wrp.EntityBackgroundBlock -->
<g id="node14" class="node">
<title>wrp.EntityBackgroundBlock</title>
<g id="a_node14"><a xlink:href="wrp.EntityBackgroundBlock.svg" xlink:title="wrp.EntityBackgroundBlock">
<ellipse fill="green" stroke="black" cx="3383.54" cy="-198" rx="141.88" ry="18"/>
<text text-anchor="middle" x="3383.54" y="-194.3" font-family="Times,serif" font-size="14.00">wrp.EntityBackgroundBlock</text>
</a>
</g>
</g>
<!-- wrp.EntityBackgroundBlock&#45;&gt;wrp.InitializeEntity -->
<g id="edge13" class="edge">
<title>wrp.EntityBackgroundBlock&#45;&gt;wrp.InitializeEntity</title>
<path fill="none" stroke="black" d="M3441.88,-181.59C3567.64,-148.38 3863.42,-70.27 3993.85,-35.82"/>
<polygon fill="black" stroke="black" points="3994.92,-39.16 4003.7,-33.22 3993.13,-32.39 3994.92,-39.16"/>
<text text-anchor="middle" x="3436.88" y="-170.39" font-family="Times,serif" font-size="14.00">1</text>
</g>
<!-- wrp.EntityBigRedFireball -->
<g id="node15" class="node">
<title>wrp.EntityBigRedFireball</title>
<g id="a_node15"><a xlink:href="wrp.EntityBigRedFireball.svg" xlink:title="wrp.EntityBigRedFireball">
<ellipse fill="green" stroke="black" cx="3673.54" cy="-198" rx="129.98" ry="18"/>
<text text-anchor="middle" x="3673.54" y="-194.3" font-family="Times,serif" font-size="14.00">wrp.EntityBigRedFireball</text>
</a>
</g>
</g>
<!-- wrp.EntityBigRedFireball&#45;&gt;wrp.InitializeEntity -->
<g id="edge14" class="edge">
<title>wrp.EntityBigRedFireball&#45;&gt;wrp.InitializeEntity</title>
<path fill="none" stroke="black" d="M3708.98,-180.57C3779.4,-147.93 3936.76,-74.99 4013.61,-39.36"/>
<polygon fill="black" stroke="black" points="4015.42,-42.38 4023.02,-35 4012.47,-36.03 4015.42,-42.38"/>
<text text-anchor="middle" x="3703.98" y="-169.37" font-family="Times,serif" font-size="14.00">1</text>
</g>
<!-- wrp.EntityBreakable -->
<g id="node16" class="node">
<title>wrp.EntityBreakable</title>
<g id="a_node16"><a xlink:href="wrp.EntityBreakable.svg" xlink:title="wrp.EntityBreakable">
<ellipse fill="green" stroke="black" cx="3928.54" cy="-198" rx="107.48" ry="18"/>
<text text-anchor="middle" x="3928.54" y="-194.3" font-family="Times,serif" font-size="14.00">wrp.EntityBreakable</text>
</a>
</g>
</g>
<!-- wrp.EntityBreakable&#45;&gt;wrp.InitializeEntity -->
<g id="edge15" class="edge">
<title>wrp.EntityBreakable&#45;&gt;wrp.InitializeEntity</title>
<path fill="none" stroke="black" d="M3940.91,-179.93C3963.73,-148.43 4012.58,-81.03 4039.25,-44.24"/>
<polygon fill="black" stroke="black" points="4042.17,-46.17 4045.21,-36.02 4036.5,-42.06 4042.17,-46.17"/>
<text text-anchor="middle" x="3935.91" y="-168.73" font-family="Times,serif" font-size="14.00">1</text>
</g>
<!-- wrp.EntityDamageDisplay -->
<g id="node17" class="node">
<title>wrp.EntityDamageDisplay</title>
<g id="a_node17"><a xlink:href="wrp.EntityDamageDisplay.svg" xlink:title="wrp.EntityDamageDisplay">
<ellipse fill="green" stroke="black" cx="4186.54" cy="-198" rx="133.48" ry="18"/>
<text text-anchor="middle" x="4186.54" y="-194.3" font-family="Times,serif" font-size="14.00">wrp.EntityDamageDisplay</text>
</a>
</g>
</g>
<!-- wrp.EntityDamageDisplay&#45;&gt;wrp.InitializeEntity -->
<g id="edge16" class="edge">
<title>wrp.EntityDamageDisplay&#45;&gt;wrp.InitializeEntity</title>
<path fill="none" stroke="black" d="M4174.17,-179.93C4151.34,-148.43 4102.5,-81.03 4075.83,-44.24"/>
<polygon fill="black" stroke="black" points="4078.57,-42.06 4069.87,-36.02 4072.9,-46.17 4078.57,-42.06"/>
<text text-anchor="middle" x="4169.17" y="-168.73" font-family="Times,serif" font-size="14.00">1</text>
</g>
<!-- wrp.EntityEquipItemDrop -->
<g id="node18" class="node">
<title>wrp.EntityEquipItemDrop</title>
<g id="a_node18"><a xlink:href="wrp.EntityEquipItemDrop.svg" xlink:title="wrp.EntityEquipItemDrop">
<ellipse fill="green" stroke="black" cx="4469.54" cy="-198" rx="131.88" ry="18"/>
<text text-anchor="middle" x="4469.54" y="-194.3" font-family="Times,serif" font-size="14.00">wrp.EntityEquipItemDrop</text>
</a>
</g>
</g>
<!-- wrp.EntityEquipItemDrop&#45;&gt;wrp.InitializeEntity -->
<g id="edge17" class="edge">
<title>wrp.EntityEquipItemDrop&#45;&gt;wrp.InitializeEntity</title>
<path fill="none" stroke="black" d="M4431.88,-180.73C4356.2,-148.03 4185.85,-74.44 4103.64,-38.92"/>
<polygon fill="black" stroke="black" points="4104.64,-35.54 4094.07,-34.78 4101.86,-41.96 4104.64,-35.54"/>
<text text-anchor="middle" x="4426.88" y="-169.53" font-family="Times,serif" font-size="14.00">1</text>
</g>
<!-- wrp.EntityExplosion -->
<g id="node19" class="node">
<title>wrp.EntityExplosion</title>
<g id="a_node19"><a xlink:href="wrp.EntityExplosion.svg" xlink:title="wrp.EntityExplosion">
<ellipse fill="green" stroke="black" cx="4725.54" cy="-198" rx="105.88" ry="18"/>
<text text-anchor="middle" x="4725.54" y="-194.3" font-family="Times,serif" font-size="14.00">wrp.EntityExplosion</text>
</a>
</g>
</g>
<!-- wrp.EntityExplosion&#45;&gt;wrp.InitializeEntity -->
<g id="edge18" class="edge">
<title>wrp.EntityExplosion&#45;&gt;wrp.InitializeEntity</title>
<path fill="none" stroke="black" d="M4671.16,-182.51C4548.66,-149.87 4251.68,-70.73 4121.02,-35.92"/>
<polygon fill="black" stroke="black" points="4121.72,-32.48 4111.15,-33.29 4119.91,-39.24 4121.72,-32.48"/>
<text text-anchor="middle" x="4666.16" y="-171.31" font-family="Times,serif" font-size="14.00">1</text>
</g>
<!-- wrp.EntityIntenseExplosion -->
<g id="node20" class="node">
<title>wrp.EntityIntenseExplosion</title>
<g id="a_node20"><a xlink:href="wrp.EntityIntenseExplosion.svg" xlink:title="wrp.EntityIntenseExplosion">
<ellipse fill="green" stroke="black" cx="4989.54" cy="-198" rx="140.28" ry="18"/>
<text text-anchor="middle" x="4989.54" y="-194.3" font-family="Times,serif" font-size="14.00">wrp.EntityIntenseExplosion</text>
</a>
</g>
</g>
<!-- wrp.EntityIntenseExplosion&#45;&gt;wrp.InitializeEntity -->
<g id="edge19" class="edge">
<title>wrp.EntityIntenseExplosion&#45;&gt;wrp.InitializeEntity</title>
<path fill="none" stroke="black" d="M4914.84,-182.73C4740.69,-149.47 4309.22,-67.07 4133.66,-33.54"/>
<polygon fill="black" stroke="black" points="4134.21,-30.08 4123.73,-31.64 4132.9,-36.96 4134.21,-30.08"/>
<text text-anchor="middle" x="4909.84" y="-171.53" font-family="Times,serif" font-size="14.00">1</text>
</g>
<!-- wrp.EntityMessageBox -->
<g id="node21" class="node">
<title>wrp.EntityMessageBox</title>
<g id="a_node21"><a xlink:href="wrp.EntityMessageBox.svg" xlink:title="wrp.EntityMessageBox">
<ellipse fill="green" stroke="black" cx="5266.54" cy="-198" rx="118.88" ry="18"/>
<text text-anchor="middle" x="5266.54" y="-194.3" font-family="Times,serif" font-size="14.00">wrp.EntityMessageBox</text>
</a>
</g>
</g>
<!-- wrp.EntityMessageBox&#45;&gt;wrp.InitializeEntity -->
<g id="edge20" class="edge">
<title>wrp.EntityMessageBox&#45;&gt;wrp.InitializeEntity</title>
<path fill="none" stroke="black" d="M5184.39,-184.91C4964.81,-152.58 4365.86,-64.39 4142.77,-31.55"/>
<polygon fill="black" stroke="black" points="4143.16,-28.07 4132.76,-30.07 4142.14,-34.99 4143.16,-28.07"/>
<text text-anchor="middle" x="5179.39" y="-173.71" font-family="Times,serif" font-size="14.00">1</text>
</g>
<!-- wrp.EntityOlroxDrool -->
<g id="node22" class="node">
<title>wrp.EntityOlroxDrool</title>
<g id="a_node22"><a xlink:href="wrp.EntityOlroxDrool.svg" xlink:title="wrp.EntityOlroxDrool">
<ellipse fill="green" stroke="black" cx="5514.54" cy="-198" rx="111.28" ry="18"/>
<text text-anchor="middle" x="5514.54" y="-194.3" font-family="Times,serif" font-size="14.00">wrp.EntityOlroxDrool</text>
</a>
</g>
</g>
<!-- wrp.EntityOlroxDrool&#45;&gt;wrp.InitializeEntity -->
<g id="edge21" class="edge">
<title>wrp.EntityOlroxDrool&#45;&gt;wrp.InitializeEntity</title>
<path fill="none" stroke="black" d="M5434.53,-185.43C5421.18,-183.57 5407.47,-181.69 5394.54,-180 4927.6,-118.82 4367.73,-54.24 4150.25,-29.49"/>
<polygon fill="black" stroke="black" points="4150.48,-25.99 4140.15,-28.34 4149.69,-32.95 4150.48,-25.99"/>
<text text-anchor="middle" x="5429.53" y="-174.23" font-family="Times,serif" font-size="14.00">1</text>
</g>
<!-- wrp.EntityPrizeDrop -->
<g id="node23" class="node">
<title>wrp.EntityPrizeDrop</title>
<g id="a_node23"><a xlink:href="wrp.EntityPrizeDrop.svg" xlink:title="wrp.EntityPrizeDrop">
<ellipse fill="green" stroke="black" cx="5750.54" cy="-198" rx="107.48" ry="18"/>
<text text-anchor="middle" x="5750.54" y="-194.3" font-family="Times,serif" font-size="14.00">wrp.EntityPrizeDrop</text>
</a>
</g>
</g>
<!-- wrp.EntityPrizeDrop&#45;&gt;wrp.InitializeEntity -->
<g id="edge22" class="edge">
<title>wrp.EntityPrizeDrop&#45;&gt;wrp.InitializeEntity</title>
<path fill="none" stroke="black" d="M5674.17,-185.32C5660.96,-183.44 5647.36,-181.59 5634.54,-180 5076.6,-110.67 4404.86,-49.46 4156.27,-27.57"/>
<polygon fill="black" stroke="black" points="4156.45,-24.07 4146.18,-26.68 4155.83,-31.04 4156.45,-24.07"/>
<text text-anchor="middle" x="5669.17" y="-174.12" font-family="Times,serif" font-size="14.00">1</text>
</g>
<!-- wrp.EntityRedDoor -->
<g id="node24" class="node">
<title>wrp.EntityRedDoor</title>
<g id="a_node24"><a xlink:href="wrp.EntityRedDoor.svg" xlink:title="wrp.EntityRedDoor">
<ellipse fill="green" stroke="black" cx="5976.54" cy="-198" rx="100.98" ry="18"/>
<text text-anchor="middle" x="5976.54" y="-194.3" font-family="Times,serif" font-size="14.00">wrp.EntityRedDoor</text>
</a>
</g>
</g>
<!-- wrp.EntityRedDoor&#45;&gt;wrp.InitializeEntity -->
<g id="edge23" class="edge">
<title>wrp.EntityRedDoor&#45;&gt;wrp.InitializeEntity</title>
<path fill="none" stroke="black" d="M5905.03,-185.26C5892.24,-183.36 5879.01,-181.52 5866.54,-180 5219.2,-101.26 4437.11,-44.66 4160.51,-25.82"/>
<polygon fill="black" stroke="black" points="4160.7,-22.33 4150.48,-25.14 4160.22,-29.31 4160.7,-22.33"/>
<text text-anchor="middle" x="5900.03" y="-174.06" font-family="Times,serif" font-size="14.00">1</text>
</g>
<!-- wrp.EntityRelicOrb -->
<g id="node25" class="node">
<title>wrp.EntityRelicOrb</title>
<g id="a_node25"><a xlink:href="wrp.EntityRelicOrb.svg" xlink:title="wrp.EntityRelicOrb">
<ellipse fill="green" stroke="black" cx="6195.54" cy="-198" rx="100.98" ry="18"/>
<text text-anchor="middle" x="6195.54" y="-194.3" font-family="Times,serif" font-size="14.00">wrp.EntityRelicOrb</text>
</a>
</g>
</g>
<!-- wrp.EntityRelicOrb&#45;&gt;wrp.InitializeEntity -->
<g id="edge24" class="edge">
<title>wrp.EntityRelicOrb&#45;&gt;wrp.InitializeEntity</title>
<path fill="none" stroke="black" d="M6124.7,-185.16C6112.01,-183.26 6098.9,-181.45 6086.54,-180 5352.4,-93.75 4463.26,-40.95 4162.62,-24.53"/>
<polygon fill="black" stroke="black" points="4162.78,-21.03 4152.61,-23.98 4162.4,-28.02 4162.78,-21.03"/>
<text text-anchor="middle" x="6119.7" y="-173.96" font-family="Times,serif" font-size="14.00">1</text>
</g>
<!-- wrp.EntityStageNamePopup -->
<g id="node26" class="node">
<title>wrp.EntityStageNamePopup</title>
<g id="a_node26"><a xlink:href="wrp.EntityStageNamePopup.svg" xlink:title="wrp.EntityStageNamePopup">
<ellipse fill="green" stroke="black" cx="6457.54" cy="-198" rx="143.77" ry="18"/>
<text text-anchor="middle" x="6457.54" y="-194.3" font-family="Times,serif" font-size="14.00">wrp.EntityStageNamePopup</text>
</a>
</g>
</g>
<!-- wrp.EntityStageNamePopup&#45;&gt;wrp.InitializeEntity -->
<g id="edge25" class="edge">
<title>wrp.EntityStageNamePopup&#45;&gt;wrp.InitializeEntity</title>
<path fill="none" stroke="black" d="M6356.62,-185.14C6339.58,-183.3 6322.06,-181.52 6305.54,-180 5480.66,-104.36 4482.75,-43.72 4162.08,-25"/>
<polygon fill="black" stroke="black" points="4162.06,-21.49 4151.88,-24.4 4161.66,-28.48 4162.06,-21.49"/>
<text text-anchor="middle" x="6351.62" y="-173.94" font-family="Times,serif" font-size="14.00">1</text>
</g>
<!-- wrp.EntityUnkId12 -->
<g id="node27" class="node">
<title>wrp.EntityUnkId12</title>
<g id="a_node27"><a xlink:href="wrp.EntityUnkId12.svg" xlink:title="wrp.EntityUnkId12">
<ellipse fill="green" stroke="black" cx="6719.54" cy="-198" rx="100.98" ry="18"/>
<text text-anchor="middle" x="6719.54" y="-194.3" font-family="Times,serif" font-size="14.00">wrp.EntityUnkId12</text>
</a>
</g>
</g>
<!-- wrp.EntityUnkId12&#45;&gt;wrp.InitializeEntity -->
<g id="edge26" class="edge">
<title>wrp.EntityUnkId12&#45;&gt;wrp.InitializeEntity</title>
<path fill="none" stroke="black" d="M6649.3,-185.08C6636.44,-183.17 6623.1,-181.37 6610.54,-180 5667.07,-76.9 4519.69,-33.74 4166.31,-22.29"/>
<polygon fill="black" stroke="black" points="4166.2,-18.78 4156.09,-21.96 4165.97,-25.78 4166.2,-18.78"/>
<text text-anchor="middle" x="6644.3" y="-173.88" font-family="Times,serif" font-size="14.00">1</text>
</g>
<!-- wrp.EntityUnkId13 -->
<g id="node28" class="node">
<title>wrp.EntityUnkId13</title>
<g id="a_node28"><a xlink:href="wrp.EntityUnkId13.svg" xlink:title="wrp.EntityUnkId13">
<ellipse fill="green" stroke="black" cx="6938.54" cy="-198" rx="100.98" ry="18"/>
<text text-anchor="middle" x="6938.54" y="-194.3" font-family="Times,serif" font-size="14.00">wrp.EntityUnkId13</text>
</a>
</g>
</g>
<!-- wrp.EntityUnkId13&#45;&gt;wrp.InitializeEntity -->
<g id="edge27" class="edge">
<title>wrp.EntityUnkId13&#45;&gt;wrp.InitializeEntity</title>
<path fill="none" stroke="black" d="M6868.31,-185.02C6855.44,-183.12 6842.11,-181.34 6829.54,-180 5797.25,-69.78 4540.05,-31.07 4166.9,-21.55"/>
<polygon fill="black" stroke="black" points="4166.73,-18.05 4156.65,-21.29 4166.55,-25.04 4166.73,-18.05"/>
<text text-anchor="middle" x="6863.31" y="-173.82" font-family="Times,serif" font-size="14.00">1</text>
</g>
<!-- wrp.EntityWarpRoom -->
<g id="node29" class="node">
<title>wrp.EntityWarpRoom</title>
<g id="a_node29"><a xlink:href="wrp.EntityWarpRoom.svg" xlink:title="wrp.EntityWarpRoom">
<ellipse fill="green" stroke="black" cx="7168.54" cy="-198" rx="111.28" ry="18"/>
<text text-anchor="middle" x="7168.54" y="-194.3" font-family="Times,serif" font-size="14.00">wrp.EntityWarpRoom</text>
</a>
</g>
</g>
<!-- wrp.EntityWarpRoom&#45;&gt;wrp.InitializeEntity -->
<g id="edge28" class="edge">
<title>wrp.EntityWarpRoom&#45;&gt;wrp.InitializeEntity</title>
<path fill="none" stroke="black" d="M7091.19,-185.04C7077.03,-183.13 7062.36,-181.35 7048.54,-180 5925.99,-70.48 4558.64,-30.97 4167.04,-21.46"/>
<polygon fill="black" stroke="black" points="4166.93,-17.95 4156.85,-21.21 4166.77,-24.95 4166.93,-17.95"/>
<text text-anchor="middle" x="7086.19" y="-173.84" font-family="Times,serif" font-size="14.00">1</text>
</g>
<!-- wrp.EntityWarpSmallRocks -->
<g id="node30" class="node">
<title>wrp.EntityWarpSmallRocks</title>
<g id="a_node30"><a xlink:href="wrp.EntityWarpSmallRocks.svg" xlink:title="wrp.EntityWarpSmallRocks">
<ellipse fill="green" stroke="black" cx="7436.54" cy="-198" rx="138.38" ry="18"/>
<text text-anchor="middle" x="7436.54" y="-194.3" font-family="Times,serif" font-size="14.00">wrp.EntityWarpSmallRocks</text>
</a>
</g>
</g>
<!-- wrp.EntityWarpSmallRocks&#45;&gt;wrp.InitializeEntity -->
<g id="edge29" class="edge">
<title>wrp.EntityWarpSmallRocks&#45;&gt;wrp.InitializeEntity</title>
<path fill="none" stroke="black" d="M7340.3,-185.03C7323.08,-183.15 7305.29,-181.38 7288.54,-180 6065.59,-79.4 4576.7,-33.25 4166.58,-21.88"/>
<polygon fill="black" stroke="black" points="4166.6,-18.38 4156.51,-21.6 4166.41,-25.37 4166.6,-18.38"/>
<text text-anchor="middle" x="7335.3" y="-173.83" font-family="Times,serif" font-size="14.00">1</text>
</g>
<!-- wrp.InitializeUnkEntity -->
<g id="node31" class="node">
<title>wrp.InitializeUnkEntity</title>
<g id="a_node31"><a xlink:href="wrp.InitializeUnkEntity.svg" xlink:title="wrp.InitializeUnkEntity">
<ellipse fill="green" stroke="black" cx="7713.54" cy="-198" rx="120.48" ry="18"/>
<text text-anchor="middle" x="7713.54" y="-194.3" font-family="Times,serif" font-size="14.00">wrp.InitializeUnkEntity</text>
</a>
</g>
</g>
<!-- wrp.InitializeUnkEntity&#45;&gt;wrp.InitializeEntity -->
<g id="edge30" class="edge">
<title>wrp.InitializeUnkEntity&#45;&gt;wrp.InitializeEntity</title>
<path fill="none" stroke="black" d="M7630.08,-185.03C7614.63,-183.11 7598.62,-181.33 7583.54,-180 6240.87,-61.77 4602.46,-27.85 4167.7,-20.64"/>
<polygon fill="black" stroke="black" points="4167.71,-17.14 4157.66,-20.48 4167.6,-24.14 4167.71,-17.14"/>
<text text-anchor="middle" x="7625.08" y="-173.83" font-family="Times,serif" font-size="14.00">1</text>
</g>
</g>
</svg>
