<?xml version="1.0" encoding="UTF-8" standalone="no"?>
<!DOCTYPE svg PUBLIC "-//W3C//DTD SVG 1.1//EN"
 "http://www.w3.org/Graphics/SVG/1.1/DTD/svg11.dtd">
<!-- Generated by graphviz version 2.43.0 (0)
 -->
<!-- Title: wrp.AnimateEntity Pages: 1 -->
<svg width="2825pt" height="224pt"
 viewBox="0.00 0.00 2824.53 224.00" xmlns="http://www.w3.org/2000/svg" xmlns:xlink="http://www.w3.org/1999/xlink">
<g id="graph0" class="graph" transform="scale(1 1) rotate(0) translate(4 220)">
<title>wrp.AnimateEntity</title>
<polygon fill="white" stroke="transparent" points="-4,4 -4,-220 2820.53,-220 2820.53,4 -4,4"/>
<!-- wrp.AnimateEntity -->
<g id="node1" class="node">
<title>wrp.AnimateEntity</title>
<ellipse fill="green" stroke="black" cx="1438.54" cy="-18" rx="98.58" ry="18"/>
<text text-anchor="middle" x="1438.54" y="-14.3" font-family="Times,serif" font-size="14.00">wrp.AnimateEntity</text>
</g>
<!-- rwrp.EntityBigRedFireball -->
<g id="node2" class="node">
<title>rwrp.EntityBigRedFireball</title>
<g id="a_node2"><a xlink:href="rwrp.EntityBigRedFireball.svg" xlink:title="rwrp.EntityBigRedFireball">
<ellipse fill="green" stroke="black" cx="134.54" cy="-198" rx="134.58" ry="18"/>
<text text-anchor="middle" x="134.54" y="-194.3" font-family="Times,serif" font-size="14.00">rwrp.EntityBigRedFireball</text>
</a>
</g>
</g>
<!-- rwrp.EntityBigRedFireball&#45;&gt;wrp.AnimateEntity -->
<g id="edge1" class="edge">
<title>rwrp.EntityBigRedFireball&#45;&gt;wrp.AnimateEntity</title>
<path fill="none" stroke="black" d="M224.94,-184.66C464.88,-151.91 1115.55,-63.09 1351.55,-30.87"/>
<polygon fill="black" stroke="black" points="1352.36,-34.3 1361.8,-29.48 1351.42,-27.36 1352.36,-34.3"/>
<text text-anchor="middle" x="219.94" y="-173.46" font-family="Times,serif" font-size="14.00">1</text>
</g>
<!-- rwrp.EntityExplosion -->
<g id="node3" class="node">
<title>rwrp.EntityExplosion</title>
<g id="a_node3"><a xlink:href="rwrp.EntityExplosion.svg" xlink:title="rwrp.EntityExplosion">
<ellipse fill="green" stroke="black" cx="397.54" cy="-198" rx="110.48" ry="18"/>
<text text-anchor="middle" x="397.54" y="-194.3" font-family="Times,serif" font-size="14.00">rwrp.EntityExplosion</text>
</a>
</g>
</g>
<!-- rwrp.EntityExplosion&#45;&gt;wrp.AnimateEntity -->
<g id="edge2" class="edge">
<title>rwrp.EntityExplosion&#45;&gt;wrp.AnimateEntity</title>
<path fill="none" stroke="black" d="M470.74,-184.48C659.86,-152.15 1163.6,-66.01 1359.27,-32.55"/>
<polygon fill="black" stroke="black" points="1359.92,-35.99 1369.19,-30.86 1358.74,-29.09 1359.92,-35.99"/>
<text text-anchor="middle" x="465.74" y="-173.28" font-family="Times,serif" font-size="14.00">1</text>
</g>
<!-- rwrp.EntityPrizeDrop -->
<g id="node4" class="node">
<title>rwrp.EntityPrizeDrop</title>
<g id="a_node4"><a xlink:href="rwrp.EntityPrizeDrop.svg" xlink:title="rwrp.EntityPrizeDrop">
<ellipse fill="green" stroke="black" cx="637.54" cy="-198" rx="111.58" ry="18"/>
<text text-anchor="middle" x="637.54" y="-194.3" font-family="Times,serif" font-size="14.00">rwrp.EntityPrizeDrop</text>
</a>
</g>
</g>
<!-- rwrp.EntityPrizeDrop&#45;&gt;wrp.AnimateEntity -->
<g id="edge3" class="edge">
<title>rwrp.EntityPrizeDrop&#45;&gt;wrp.AnimateEntity</title>
<path fill="none" stroke="black" d="M700.39,-183.03C847.72,-150.29 1214.5,-68.79 1368.6,-34.54"/>
<polygon fill="black" stroke="black" points="1369.44,-37.94 1378.44,-32.36 1367.92,-31.11 1369.44,-37.94"/>
<text text-anchor="middle" x="695.39" y="-171.83" font-family="Times,serif" font-size="14.00">1</text>
</g>
<!-- rwrp.EntityRoomForeground -->
<g id="node5" class="node">
<title>rwrp.EntityRoomForeground</title>
<g id="a_node5"><a xlink:href="rwrp.EntityRoomForeground.svg" xlink:title="rwrp.EntityRoomForeground">
<ellipse fill="green" stroke="black" cx="912.54" cy="-198" rx="145.67" ry="18"/>
<text text-anchor="middle" x="912.54" y="-194.3" font-family="Times,serif" font-size="14.00">rwrp.EntityRoomForeground</text>
</a>
</g>
</g>
<!-- rwrp.EntityRoomForeground&#45;&gt;wrp.AnimateEntity -->
<g id="edge4" class="edge">
<title>rwrp.EntityRoomForeground&#45;&gt;wrp.AnimateEntity</title>
<path fill="none" stroke="black" d="M960.14,-180.89C1057.89,-147.81 1280.71,-72.41 1384.04,-37.44"/>
<polygon fill="black" stroke="black" points="1385.31,-40.71 1393.66,-34.19 1383.07,-34.08 1385.31,-40.71"/>
<text text-anchor="middle" x="955.14" y="-169.69" font-family="Times,serif" font-size="14.00">1</text>
</g>
<!-- rwrp.func_80192348 -->
<g id="node6" class="node">
<title>rwrp.func_80192348</title>
<g id="a_node6"><a xlink:href="rwrp.func_80192348.svg" xlink:title="rwrp.func_80192348">
<ellipse fill="green" stroke="black" cx="1183.54" cy="-198" rx="107.48" ry="18"/>
<text text-anchor="middle" x="1183.54" y="-194.3" font-family="Times,serif" font-size="14.00">rwrp.func_80192348</text>
</a>
</g>
</g>
<!-- rwrp.func_80192348&#45;&gt;wrp.AnimateEntity -->
<g id="edge5" class="edge">
<title>rwrp.func_80192348&#45;&gt;wrp.AnimateEntity</title>
<path fill="none" stroke="black" d="M1207.53,-180.25C1253.59,-148.1 1354.43,-77.71 1406.31,-41.5"/>
<polygon fill="black" stroke="black" points="1408.6,-44.17 1414.8,-35.57 1404.59,-38.43 1408.6,-44.17"/>
<text text-anchor="middle" x="1202.53" y="-169.05" font-family="Times,serif" font-size="14.00">1</text>
</g>
<!-- wrp.EntityBigRedFireball -->
<g id="node7" class="node">
<title>wrp.EntityBigRedFireball</title>
<g id="a_node7"><a xlink:href="wrp.EntityBigRedFireball.svg" xlink:title="wrp.EntityBigRedFireball">
<ellipse fill="green" stroke="black" cx="1438.54" cy="-198" rx="129.98" ry="18"/>
<text text-anchor="middle" x="1438.54" y="-194.3" font-family="Times,serif" font-size="14.00">wrp.EntityBigRedFireball</text>
</a>
</g>
</g>
<!-- wrp.EntityBigRedFireball&#45;&gt;wrp.AnimateEntity -->
<g id="edge6" class="edge">
<title>wrp.EntityBigRedFireball&#45;&gt;wrp.AnimateEntity</title>
<path fill="none" stroke="black" d="M1438.54,-179.93C1438.54,-148.97 1438.54,-83.3 1438.54,-46.13"/>
<polygon fill="black" stroke="black" points="1442.04,-46.02 1438.54,-36.02 1435.04,-46.02 1442.04,-46.02"/>
<text text-anchor="middle" x="1433.54" y="-168.73" font-family="Times,serif" font-size="14.00">1</text>
</g>
<!-- wrp.EntityBreakable -->
<g id="node8" class="node">
<title>wrp.EntityBreakable</title>
<g id="a_node8"><a xlink:href="wrp.EntityBreakable.svg" xlink:title="wrp.EntityBreakable">
<ellipse fill="green" stroke="black" cx="1693.54" cy="-198" rx="107.48" ry="18"/>
<text text-anchor="middle" x="1693.54" y="-194.3" font-family="Times,serif" font-size="14.00">wrp.EntityBreakable</text>
</a>
</g>
</g>
<!-- wrp.EntityBreakable&#45;&gt;wrp.AnimateEntity -->
<g id="edge7" class="edge">
<title>wrp.EntityBreakable&#45;&gt;wrp.AnimateEntity</title>
<path fill="none" stroke="black" d="M1669.55,-180.25C1623.49,-148.1 1522.64,-77.71 1470.77,-41.5"/>
<polygon fill="black" stroke="black" points="1472.48,-38.43 1462.28,-35.57 1468.47,-44.17 1472.48,-38.43"/>
<text text-anchor="middle" x="1664.55" y="-169.05" font-family="Times,serif" font-size="14.00">1</text>
</g>
<!-- wrp.EntityRoomForeground -->
<g id="node9" class="node">
<title>wrp.EntityRoomForeground</title>
<g id="a_node9"><a xlink:href="wrp.EntityRoomForeground.svg" xlink:title="wrp.EntityRoomForeground">
<ellipse fill="green" stroke="black" cx="1959.54" cy="-198" rx="141.07" ry="18"/>
<text text-anchor="middle" x="1959.54" y="-194.3" font-family="Times,serif" font-size="14.00">wrp.EntityRoomForeground</text>
</a>
</g>
</g>
<!-- wrp.EntityRoomForeground&#45;&gt;wrp.AnimateEntity -->
<g id="edge8" class="edge">
<title>wrp.EntityRoomForeground&#45;&gt;wrp.AnimateEntity</title>
<path fill="none" stroke="black" d="M1912.38,-180.89C1815.56,-147.81 1594.87,-72.41 1492.52,-37.44"/>
<polygon fill="black" stroke="black" points="1493.58,-34.11 1482.99,-34.19 1491.32,-40.73 1493.58,-34.11"/>
<text text-anchor="middle" x="1907.38" y="-169.69" font-family="Times,serif" font-size="14.00">1</text>
</g>
<!-- wrp.EntitySoulStealOrb -->
<g id="node10" class="node">
<title>wrp.EntitySoulStealOrb</title>
<g id="a_node10"><a xlink:href="wrp.EntitySoulStealOrb.svg" xlink:title="wrp.EntitySoulStealOrb">
<ellipse fill="green" stroke="black" cx="2240.54" cy="-198" rx="122.38" ry="18"/>
<text text-anchor="middle" x="2240.54" y="-194.3" font-family="Times,serif" font-size="14.00">wrp.EntitySoulStealOrb</text>
</a>
</g>
</g>
<!-- wrp.EntitySoulStealOrb&#45;&gt;wrp.AnimateEntity -->
<g id="edge9" class="edge">
<title>wrp.EntitySoulStealOrb&#45;&gt;wrp.AnimateEntity</title>
<path fill="none" stroke="black" d="M2175.92,-182.66C2027.29,-149.67 1662.11,-68.62 1508.46,-34.52"/>
<polygon fill="black" stroke="black" points="1509.17,-31.09 1498.65,-32.34 1507.65,-37.93 1509.17,-31.09"/>
<text text-anchor="middle" x="2170.92" y="-171.46" font-family="Times,serif" font-size="14.00">1</text>
</g>
<!-- wrp.func_80186FD0 -->
<g id="node11" class="node">
<title>wrp.func_80186FD0</title>
<g id="a_node11"><a xlink:href="wrp.func_80186FD0.svg" xlink:title="wrp.func_80186FD0">
<ellipse fill="green" stroke="black" cx="2485.54" cy="-198" rx="104.78" ry="18"/>
<text text-anchor="middle" x="2485.54" y="-194.3" font-family="Times,serif" font-size="14.00">wrp.func_80186FD0</text>
</a>
</g>
</g>
<!-- wrp.func_80186FD0&#45;&gt;wrp.AnimateEntity -->
<g id="edge10" class="edge">
<title>wrp.func_80186FD0&#45;&gt;wrp.AnimateEntity</title>
<path fill="none" stroke="black" d="M2413.99,-184.84C2225.32,-152.76 1715.3,-66.05 1517.99,-32.51"/>
<polygon fill="black" stroke="black" points="1518.43,-29.03 1507.98,-30.81 1517.26,-35.93 1518.43,-29.03"/>
<text text-anchor="middle" x="2408.99" y="-173.64" font-family="Times,serif" font-size="14.00">1</text>
</g>
<!-- wrp.func_801903C8 -->
<g id="node12" class="node">
<title>wrp.func_801903C8</title>
<g id="a_node12"><a xlink:href="wrp.func_801903C8.svg" xlink:title="wrp.func_801903C8">
<ellipse fill="green" stroke="black" cx="2712.54" cy="-198" rx="103.98" ry="18"/>
<text text-anchor="middle" x="2712.54" y="-194.3" font-family="Times,serif" font-size="14.00">wrp.func_801903C8</text>
</a>
</g>
</g>
<!-- wrp.func_801903C8&#45;&gt;wrp.AnimateEntity -->
<g id="edge11" class="edge">
<title>wrp.func_801903C8&#45;&gt;wrp.AnimateEntity</title>
<path fill="none" stroke="black" d="M2637.18,-185.54C2624.62,-183.66 2611.71,-181.76 2599.54,-180 2198.38,-122.01 1718.62,-56.79 1525.43,-30.7"/>
<polygon fill="black" stroke="black" points="1525.72,-27.21 1515.34,-29.34 1524.78,-34.15 1525.72,-27.21"/>
<text text-anchor="middle" x="2632.18" y="-174.34" font-family="Times,serif" font-size="14.00">1</text>
</g>
</g>
</svg>
