<?xml version="1.0" encoding="UTF-8" standalone="no"?>
<!DOCTYPE svg PUBLIC "-//W3C//DTD SVG 1.1//EN"
 "http://www.w3.org/Graphics/SVG/1.1/DTD/svg11.dtd">
<!-- Generated by graphviz version 2.43.0 (0)
 -->
<!-- Title: wrp.EntitySoulStealOrb Pages: 1 -->
<svg width="2035pt" height="224pt"
 viewBox="0.00 0.00 2034.98 224.00" xmlns="http://www.w3.org/2000/svg" xmlns:xlink="http://www.w3.org/1999/xlink">
<g id="graph0" class="graph" transform="scale(1 1) rotate(0) translate(4 220)">
<title>wrp.EntitySoulStealOrb</title>
<polygon fill="white" stroke="transparent" points="-4,4 -4,-220 2030.98,-220 2030.98,4 -4,4"/>
<!-- wrp.EntitySoulStealOrb -->
<g id="node1" class="node">
<title>wrp.EntitySoulStealOrb</title>
<ellipse fill="green" stroke="black" cx="957.44" cy="-198" rx="122.38" ry="18"/>
<text text-anchor="middle" x="957.44" y="-194.3" font-family="Times,serif" font-size="14.00">wrp.EntitySoulStealOrb</text>
</g>
<!-- dra.AllocPrimitives -->
<g id="node2" class="node">
<title>dra.AllocPrimitives</title>
<g id="a_node2"><a xlink:href="dra.AllocPrimitives.svg" xlink:title="dra.AllocPrimitives">
<ellipse fill="green" stroke="black" cx="99.44" cy="-18" rx="99.38" ry="18"/>
<text text-anchor="middle" x="99.44" y="-14.3" font-family="Times,serif" font-size="14.00">dra.AllocPrimitives</text>
</a>
</g>
</g>
<!-- wrp.EntitySoulStealOrb&#45;&gt;dra.AllocPrimitives -->
<g id="edge1" class="edge">
<title>wrp.EntitySoulStealOrb&#45;&gt;dra.AllocPrimitives</title>
<path fill="none" stroke="black" d="M889.76,-182.96C731.04,-150.03 335.97,-68.07 172.27,-34.11"/>
<polygon fill="black" stroke="black" points="172.8,-30.64 162.3,-32.04 171.38,-37.5 172.8,-30.64"/>
<text text-anchor="middle" x="157.3" y="-35.84" font-family="Times,serif" font-size="14.00">1</text>
</g>
<!-- dra.DestroyEntity -->
<g id="node3" class="node">
<title>dra.DestroyEntity</title>
<g id="a_node3"><a xlink:href="dra.DestroyEntity.svg" xlink:title="dra.DestroyEntity">
<ellipse fill="green" stroke="black" cx="311.44" cy="-18" rx="94.78" ry="18"/>
<text text-anchor="middle" x="311.44" y="-14.3" font-family="Times,serif" font-size="14.00">dra.DestroyEntity</text>
</a>
</g>
</g>
<!-- wrp.EntitySoulStealOrb&#45;&gt;dra.DestroyEntity -->
<g id="edge2" class="edge">
<title>wrp.EntitySoulStealOrb&#45;&gt;dra.DestroyEntity</title>
<path fill="none" stroke="black" d="M902.64,-181.9C782.81,-148.88 498.16,-70.45 372.67,-35.87"/>
<polygon fill="black" stroke="black" points="373.4,-32.44 362.83,-33.16 371.54,-39.19 373.4,-32.44"/>
<text text-anchor="middle" x="357.83" y="-36.96" font-family="Times,serif" font-size="14.00">1</text>
</g>
<!-- rwrp.Random -->
<g id="node4" class="node">
<title>rwrp.Random</title>
<g id="a_node4"><a xlink:href="rwrp.Random.svg" xlink:title="rwrp.Random">
<ellipse fill="green" stroke="black" cx="498.44" cy="-18" rx="74.19" ry="18"/>
<text text-anchor="middle" x="498.44" y="-14.3" font-family="Times,serif" font-size="14.00">rwrp.Random</text>
</a>
</g>
</g>
<!-- wrp.EntitySoulStealOrb&#45;&gt;rwrp.Random -->
<g id="edge3" class="edge">
<title>wrp.EntitySoulStealOrb&#45;&gt;rwrp.Random</title>
<path fill="none" stroke="black" d="M916.3,-181.05C831.06,-147.99 635.6,-72.19 545.5,-37.25"/>
<polygon fill="black" stroke="black" points="546.67,-33.95 536.08,-33.6 544.14,-40.48 546.67,-33.95"/>
<text text-anchor="middle" x="531.08" y="-37.4" font-family="Times,serif" font-size="14.00">2</text>
</g>
<!-- wrp.AnimateEntity -->
<g id="node5" class="node">
<title>wrp.AnimateEntity</title>
<g id="a_node5"><a xlink:href="wrp.AnimateEntity.svg" xlink:title="wrp.AnimateEntity">
<ellipse fill="green" stroke="black" cx="689.44" cy="-18" rx="98.58" ry="18"/>
<text text-anchor="middle" x="689.44" y="-14.3" font-family="Times,serif" font-size="14.00">wrp.AnimateEntity</text>
</a>
</g>
</g>
<!-- wrp.EntitySoulStealOrb&#45;&gt;wrp.AnimateEntity -->
<g id="edge4" class="edge">
<title>wrp.EntitySoulStealOrb&#45;&gt;wrp.AnimateEntity</title>
<path fill="none" stroke="black" d="M932.23,-180.25C883.72,-148.04 777.4,-77.42 722.98,-41.27"/>
<polygon fill="black" stroke="black" points="724.66,-38.19 714.39,-35.57 720.79,-44.02 724.66,-38.19"/>
<text text-anchor="middle" x="709.39" y="-39.37" font-family="Times,serif" font-size="14.00">1</text>
</g>
<!-- wrp.GetAngleBetweenEntities -->
<g id="node6" class="node">
<title>wrp.GetAngleBetweenEntities</title>
<g id="a_node6"><a xlink:href="wrp.GetAngleBetweenEntities.svg" xlink:title="wrp.GetAngleBetweenEntities">
<ellipse fill="green" stroke="black" cx="957.44" cy="-18" rx="151.37" ry="18"/>
<text text-anchor="middle" x="957.44" y="-14.3" font-family="Times,serif" font-size="14.00">wrp.GetAngleBetweenEntities</text>
</a>
</g>
</g>
<!-- wrp.EntitySoulStealOrb&#45;&gt;wrp.GetAngleBetweenEntities -->
<g id="edge5" class="edge">
<title>wrp.EntitySoulStealOrb&#45;&gt;wrp.GetAngleBetweenEntities</title>
<path fill="none" stroke="black" d="M957.44,-179.93C957.44,-148.97 957.44,-83.3 957.44,-46.13"/>
<polygon fill="black" stroke="black" points="960.94,-46.02 957.44,-36.02 953.94,-46.02 960.94,-46.02"/>
<text text-anchor="middle" x="952.44" y="-39.82" font-family="Times,serif" font-size="14.00">2</text>
</g>
<!-- wrp.GetNormalizedAngle -->
<g id="node7" class="node">
<title>wrp.GetNormalizedAngle</title>
<g id="a_node7"><a xlink:href="wrp.GetNormalizedAngle.svg" xlink:title="wrp.GetNormalizedAngle">
<ellipse fill="green" stroke="black" cx="1254.44" cy="-18" rx="128.08" ry="18"/>
<text text-anchor="middle" x="1254.44" y="-14.3" font-family="Times,serif" font-size="14.00">wrp.GetNormalizedAngle</text>
</a>
</g>
</g>
<!-- wrp.EntitySoulStealOrb&#45;&gt;wrp.GetNormalizedAngle -->
<g id="edge6" class="edge">
<title>wrp.EntitySoulStealOrb&#45;&gt;wrp.GetNormalizedAngle</title>
<path fill="none" stroke="black" d="M985.12,-180.41C1038.95,-148.15 1157.74,-76.96 1217.94,-40.88"/>
<polygon fill="black" stroke="black" points="1219.95,-43.75 1226.73,-35.61 1216.35,-37.75 1219.95,-43.75"/>
<text text-anchor="middle" x="1221.73" y="-39.41" font-family="Times,serif" font-size="14.00">1</text>
</g>
<!-- wrp.InitializeEntity -->
<g id="node8" class="node">
<title>wrp.InitializeEntity</title>
<g id="a_node8"><a xlink:href="wrp.InitializeEntity.svg" xlink:title="wrp.InitializeEntity">
<ellipse fill="green" stroke="black" cx="1501.44" cy="-18" rx="100.98" ry="18"/>
<text text-anchor="middle" x="1501.44" y="-14.3" font-family="Times,serif" font-size="14.00">wrp.InitializeEntity</text>
</a>
</g>
</g>
<!-- wrp.EntitySoulStealOrb&#45;&gt;wrp.InitializeEntity -->
<g id="edge7" class="edge">
<title>wrp.EntitySoulStealOrb&#45;&gt;wrp.InitializeEntity</title>
<path fill="none" stroke="black" d="M1005.24,-181.36C1105.81,-148.45 1338.79,-72.22 1445.84,-37.19"/>
<polygon fill="black" stroke="black" points="1447.07,-40.47 1455.49,-34.04 1444.89,-33.82 1447.07,-40.47"/>
<text text-anchor="middle" x="1450.49" y="-37.84" font-family="Times,serif" font-size="14.00">1</text>
</g>
<!-- wrp.MoveEntity -->
<g id="node9" class="node">
<title>wrp.MoveEntity</title>
<g id="a_node9"><a xlink:href="wrp.MoveEntity.svg" xlink:title="wrp.MoveEntity">
<ellipse fill="green" stroke="black" cx="1706.44" cy="-18" rx="85.59" ry="18"/>
<text text-anchor="middle" x="1706.44" y="-14.3" font-family="Times,serif" font-size="14.00">wrp.MoveEntity</text>
</a>
</g>
</g>
<!-- wrp.EntitySoulStealOrb&#45;&gt;wrp.MoveEntity -->
<g id="edge8" class="edge">
<title>wrp.EntitySoulStealOrb&#45;&gt;wrp.MoveEntity</title>
<path fill="none" stroke="black" d="M1019.05,-182.36C1158.99,-149.1 1499.67,-68.14 1642.14,-34.28"/>
<polygon fill="black" stroke="black" points="1643.13,-37.64 1652.05,-31.93 1641.52,-30.83 1643.13,-37.64"/>
<text text-anchor="middle" x="1647.05" y="-35.73" font-family="Times,serif" font-size="14.00">1</text>
</g>
<!-- wrp.UnkEntityFunc0 -->
<g id="node10" class="node">
<title>wrp.UnkEntityFunc0</title>
<g id="a_node10"><a xlink:href="wrp.UnkEntityFunc0.svg" xlink:title="wrp.UnkEntityFunc0">
<ellipse fill="green" stroke="black" cx="1918.44" cy="-18" rx="108.58" ry="18"/>
<text text-anchor="middle" x="1918.44" y="-14.3" font-family="Times,serif" font-size="14.00">wrp.UnkEntityFunc0</text>
</a>
</g>
</g>
<!-- wrp.EntitySoulStealOrb&#45;&gt;wrp.UnkEntityFunc0 -->
<g id="edge9" class="edge">
<title>wrp.EntitySoulStealOrb&#45;&gt;wrp.UnkEntityFunc0</title>
<path fill="none" stroke="black" d="M1030.46,-183.47C1206.93,-150.79 1655.5,-67.7 1838.68,-33.77"/>
<polygon fill="black" stroke="black" points="1839.59,-37.17 1848.78,-31.9 1838.31,-30.28 1839.59,-37.17"/>
<text text-anchor="middle" x="1843.78" y="-35.7" font-family="Times,serif" font-size="14.00">1</text>
</g>
</g>
</svg>
