<?xml version="1.0" encoding="UTF-8" standalone="no"?>
<!DOCTYPE svg PUBLIC "-//W3C//DTD SVG 1.1//EN"
 "http://www.w3.org/Graphics/SVG/1.1/DTD/svg11.dtd">
<!-- Generated by graphviz version 2.43.0 (0)
 -->
<!-- Title: wrp.InitializeEntity Pages: 1 -->
<svg width="8058pt" height="224pt"
 viewBox="0.00 0.00 8058.18 224.00" xmlns="http://www.w3.org/2000/svg" xmlns:xlink="http://www.w3.org/1999/xlink">
<g id="graph0" class="graph" transform="scale(1 1) rotate(0) translate(4 220)">
<title>wrp.InitializeEntity</title>
<polygon fill="white" stroke="transparent" points="-4,4 -4,-220 8054.18,-220 8054.18,4 -4,4"/>
<!-- wrp.InitializeEntity -->
<g id="node1" class="node">
<title>wrp.InitializeEntity</title>
<ellipse fill="green" stroke="black" cx="4200.54" cy="-18" rx="100.98" ry="18"/>
<text text-anchor="middle" x="4200.54" y="-14.3" font-family="Times,serif" font-size="14.00">wrp.InitializeEntity</text>
</g>
<!-- rwrp.EntityBigRedFireball -->
<g id="node2" class="node">
<title>rwrp.EntityBigRedFireball</title>
<g id="a_node2"><a xlink:href="rwrp.EntityBigRedFireball.svg" xlink:title="rwrp.EntityBigRedFireball">
<ellipse fill="green" stroke="black" cx="134.54" cy="-198" rx="134.58" ry="18"/>
<text text-anchor="middle" x="134.54" y="-194.3" font-family="Times,serif" font-size="14.00">rwrp.EntityBigRedFireball</text>
</a>
</g>
</g>
<!-- rwrp.EntityBigRedFireball&#45;&gt;wrp.InitializeEntity -->
<g id="edge1" class="edge">
<title>rwrp.EntityBigRedFireball&#45;&gt;wrp.InitializeEntity</title>
<path fill="none" stroke="black" d="M227.13,-184.93C243.88,-183.05 261.21,-181.3 277.54,-180 1785.07,-59.64 3626.1,-26.98 4090.29,-20.4"/>
<polygon fill="black" stroke="black" points="4090.39,-23.9 4100.34,-20.26 4090.29,-16.9 4090.39,-23.9"/>
<text text-anchor="middle" x="222.13" y="-173.73" font-family="Times,serif" font-size="14.00">1</text>
</g>
<!-- rwrp.EntityIntenseExplosion -->
<g id="node3" class="node">
<title>rwrp.EntityIntenseExplosion</title>
<g id="a_node3"><a xlink:href="rwrp.EntityIntenseExplosion.svg" xlink:title="rwrp.EntityIntenseExplosion">
<ellipse fill="green" stroke="black" cx="431.54" cy="-198" rx="144.87" ry="18"/>
<text text-anchor="middle" x="431.54" y="-194.3" font-family="Times,serif" font-size="14.00">rwrp.EntityIntenseExplosion</text>
</a>
</g>
</g>
<!-- rwrp.EntityIntenseExplosion&#45;&gt;wrp.InitializeEntity -->
<g id="edge2" class="edge">
<title>rwrp.EntityIntenseExplosion&#45;&gt;wrp.InitializeEntity</title>
<path fill="none" stroke="black" d="M531.68,-184.98C549.6,-183.11 568.11,-181.35 585.54,-180 1966.73,-73.12 3650.71,-30.91 4091.03,-21.26"/>
<polygon fill="black" stroke="black" points="4091.28,-24.76 4101.2,-21.04 4091.12,-17.76 4091.28,-24.76"/>
<text text-anchor="middle" x="526.68" y="-173.78" font-family="Times,serif" font-size="14.00">1</text>
</g>
<!-- rwrp.EntityMessageBox -->
<g id="node4" class="node">
<title>rwrp.EntityMessageBox</title>
<g id="a_node4"><a xlink:href="rwrp.EntityMessageBox.svg" xlink:title="rwrp.EntityMessageBox">
<ellipse fill="green" stroke="black" cx="717.54" cy="-198" rx="123.48" ry="18"/>
<text text-anchor="middle" x="717.54" y="-194.3" font-family="Times,serif" font-size="14.00">rwrp.EntityMessageBox</text>
</a>
</g>
</g>
<!-- rwrp.EntityMessageBox&#45;&gt;wrp.InitializeEntity -->
<g id="edge3" class="edge">
<title>rwrp.EntityMessageBox&#45;&gt;wrp.InitializeEntity</title>
<path fill="none" stroke="black" d="M802.99,-184.98C818.46,-183.09 834.46,-181.33 849.54,-180 2120.7,-67.79 3670.53,-29.72 4090.95,-21.08"/>
<polygon fill="black" stroke="black" points="4091.04,-24.58 4100.97,-20.87 4090.9,-17.58 4091.04,-24.58"/>
<text text-anchor="middle" x="797.99" y="-173.78" font-family="Times,serif" font-size="14.00">1</text>
</g>
<!-- rwrp.EntityOlroxDrool -->
<g id="node5" class="node">
<title>rwrp.EntityOlroxDrool</title>
<g id="a_node5"><a xlink:href="rwrp.EntityOlroxDrool.svg" xlink:title="rwrp.EntityOlroxDrool">
<ellipse fill="green" stroke="black" cx="974.54" cy="-198" rx="115.88" ry="18"/>
<text text-anchor="middle" x="974.54" y="-194.3" font-family="Times,serif" font-size="14.00">rwrp.EntityOlroxDrool</text>
</a>
</g>
</g>
<!-- rwrp.EntityOlroxDrool&#45;&gt;wrp.InitializeEntity -->
<g id="edge4" class="edge">
<title>rwrp.EntityOlroxDrool&#45;&gt;wrp.InitializeEntity</title>
<path fill="none" stroke="black" d="M1055.11,-185.04C1069.87,-183.13 1085.15,-181.35 1099.54,-180 2267.61,-70.44 3690.71,-30.8 4091.12,-21.38"/>
<polygon fill="black" stroke="black" points="4091.33,-24.88 4101.25,-21.15 4091.17,-17.88 4091.33,-24.88"/>
<text text-anchor="middle" x="1050.11" y="-173.84" font-family="Times,serif" font-size="14.00">1</text>
</g>
<!-- rwrp.EntityRWarpRoom -->
<g id="node6" class="node">
<title>rwrp.EntityRWarpRoom</title>
<g id="a_node6"><a xlink:href="rwrp.EntityRWarpRoom.svg" xlink:title="rwrp.EntityRWarpRoom">
<ellipse fill="green" stroke="black" cx="1230.54" cy="-198" rx="122.38" ry="18"/>
<text text-anchor="middle" x="1230.54" y="-194.3" font-family="Times,serif" font-size="14.00">rwrp.EntityRWarpRoom</text>
</a>
</g>
</g>
<!-- rwrp.EntityRWarpRoom&#45;&gt;wrp.InitializeEntity -->
<g id="edge5" class="edge">
<title>rwrp.EntityRWarpRoom&#45;&gt;wrp.InitializeEntity</title>
<path fill="none" stroke="black" d="M1315.7,-185.04C1330.94,-183.16 1346.7,-181.38 1361.54,-180 2423.43,-81.12 3714.82,-34.47 4092.19,-22.32"/>
<polygon fill="black" stroke="black" points="4092.4,-25.81 4102.28,-21.99 4092.17,-18.82 4092.4,-25.81"/>
<text text-anchor="middle" x="1310.7" y="-173.84" font-family="Times,serif" font-size="14.00">1</text>
</g>
<!-- rwrp.EntityRelicOrb -->
<g id="node7" class="node">
<title>rwrp.EntityRelicOrb</title>
<g id="a_node7"><a xlink:href="rwrp.EntityRelicOrb.svg" xlink:title="rwrp.EntityRelicOrb">
<ellipse fill="green" stroke="black" cx="1475.54" cy="-198" rx="105.08" ry="18"/>
<text text-anchor="middle" x="1475.54" y="-194.3" font-family="Times,serif" font-size="14.00">rwrp.EntityRelicOrb</text>
</a>
</g>
</g>
<!-- rwrp.EntityRelicOrb&#45;&gt;wrp.InitializeEntity -->
<g id="edge6" class="edge">
<title>rwrp.EntityRelicOrb&#45;&gt;wrp.InitializeEntity</title>
<path fill="none" stroke="black" d="M1549.01,-185.09C1562.46,-183.18 1576.4,-181.38 1589.54,-180 2557.25,-78.2 3734.02,-34.03 4092.08,-22.33"/>
<polygon fill="black" stroke="black" points="4092.3,-25.82 4102.18,-22 4092.07,-18.83 4092.3,-25.82"/>
<text text-anchor="middle" x="1544.01" y="-173.89" font-family="Times,serif" font-size="14.00">1</text>
</g>
<!-- rwrp.EntityRoomForeground -->
<g id="node8" class="node">
<title>rwrp.EntityRoomForeground</title>
<g id="a_node8"><a xlink:href="rwrp.EntityRoomForeground.svg" xlink:title="rwrp.EntityRoomForeground">
<ellipse fill="green" stroke="black" cx="1744.54" cy="-198" rx="145.67" ry="18"/>
<text text-anchor="middle" x="1744.54" y="-194.3" font-family="Times,serif" font-size="14.00">rwrp.EntityRoomForeground</text>
</a>
</g>
</g>
<!-- rwrp.EntityRoomForeground&#45;&gt;wrp.InitializeEntity -->
<g id="edge7" class="edge">
<title>rwrp.EntityRoomForeground&#45;&gt;wrp.InitializeEntity</title>
<path fill="none" stroke="black" d="M1846.78,-185.13C1864.05,-183.29 1881.79,-181.51 1898.54,-180 2744.98,-103.71 3769.3,-43.3 4095.49,-24.84"/>
<polygon fill="black" stroke="black" points="4096.08,-28.31 4105.87,-24.26 4095.69,-21.33 4096.08,-28.31"/>
<text text-anchor="middle" x="1841.78" y="-173.93" font-family="Times,serif" font-size="14.00">1</text>
</g>
<!-- rwrp.EntityStageNamePopup -->
<g id="node9" class="node">
<title>rwrp.EntityStageNamePopup</title>
<g id="a_node9"><a xlink:href="rwrp.EntityStageNamePopup.svg" xlink:title="rwrp.EntityStageNamePopup">
<ellipse fill="green" stroke="black" cx="2055.54" cy="-198" rx="147.57" ry="18"/>
<text text-anchor="middle" x="2055.54" y="-194.3" font-family="Times,serif" font-size="14.00">rwrp.EntityStageNamePopup</text>
</a>
</g>
</g>
<!-- rwrp.EntityStageNamePopup&#45;&gt;wrp.InitializeEntity -->
<g id="edge8" class="edge">
<title>rwrp.EntityStageNamePopup&#45;&gt;wrp.InitializeEntity</title>
<path fill="none" stroke="black" d="M2159.97,-185.21C2177.19,-183.39 2194.86,-181.58 2211.54,-180 2933.71,-111.44 3805.18,-47.32 4098.57,-26.25"/>
<polygon fill="black" stroke="black" points="4099.04,-29.72 4108.76,-25.52 4098.54,-22.74 4099.04,-29.72"/>
<text text-anchor="middle" x="2154.97" y="-174.01" font-family="Times,serif" font-size="14.00">1</text>
</g>
<!-- rwrp.EntityUnkId13 -->
<g id="node10" class="node">
<title>rwrp.EntityUnkId13</title>
<g id="a_node10"><a xlink:href="rwrp.EntityUnkId13.svg" xlink:title="rwrp.EntityUnkId13">
<ellipse fill="green" stroke="black" cx="2325.54" cy="-198" rx="104.78" ry="18"/>
<text text-anchor="middle" x="2325.54" y="-194.3" font-family="Times,serif" font-size="14.00">rwrp.EntityUnkId13</text>
</a>
</g>
</g>
<!-- rwrp.EntityUnkId13&#45;&gt;wrp.InitializeEntity -->
<g id="edge9" class="edge">
<title>rwrp.EntityUnkId13&#45;&gt;wrp.InitializeEntity</title>
<path fill="none" stroke="black" d="M2399.96,-185.28C2413.13,-183.38 2426.72,-181.54 2439.54,-180 3068.51,-104.41 3827.65,-46.08 4098.48,-26.29"/>
<polygon fill="black" stroke="black" points="4098.96,-29.76 4108.68,-25.55 4098.45,-22.78 4098.96,-29.76"/>
<text text-anchor="middle" x="2394.96" y="-174.08" font-family="Times,serif" font-size="14.00">1</text>
</g>
<!-- rwrp.EntityWarpSmallRocks -->
<g id="node11" class="node">
<title>rwrp.EntityWarpSmallRocks</title>
<g id="a_node11"><a xlink:href="rwrp.EntityWarpSmallRocks.svg" xlink:title="rwrp.EntityWarpSmallRocks">
<ellipse fill="green" stroke="black" cx="2591.54" cy="-198" rx="142.97" ry="18"/>
<text text-anchor="middle" x="2591.54" y="-194.3" font-family="Times,serif" font-size="14.00">rwrp.EntityWarpSmallRocks</text>
</a>
</g>
</g>
<!-- rwrp.EntityWarpSmallRocks&#45;&gt;wrp.InitializeEntity -->
<g id="edge10" class="edge">
<title>rwrp.EntityWarpSmallRocks&#45;&gt;wrp.InitializeEntity</title>
<path fill="none" stroke="black" d="M2694.56,-185.46C2710.94,-183.63 2727.7,-181.76 2743.54,-180 3258.5,-122.75 3875.93,-54.73 4107.12,-29.28"/>
<polygon fill="black" stroke="black" points="4107.61,-32.75 4117.17,-28.17 4106.85,-25.79 4107.61,-32.75"/>
<text text-anchor="middle" x="2689.56" y="-174.26" font-family="Times,serif" font-size="14.00">1</text>
</g>
<!-- rwrp.InitializeUnkEntity -->
<g id="node12" class="node">
<title>rwrp.InitializeUnkEntity</title>
<g id="a_node12"><a xlink:href="rwrp.InitializeUnkEntity.svg" xlink:title="rwrp.InitializeUnkEntity">
<ellipse fill="green" stroke="black" cx="2876.54" cy="-198" rx="124.28" ry="18"/>
<text text-anchor="middle" x="2876.54" y="-194.3" font-family="Times,serif" font-size="14.00">rwrp.InitializeUnkEntity</text>
</a>
</g>
</g>
<!-- rwrp.InitializeUnkEntity&#45;&gt;wrp.InitializeEntity -->
<g id="edge11" class="edge">
<title>rwrp.InitializeUnkEntity&#45;&gt;wrp.InitializeEntity</title>
<path fill="none" stroke="black" d="M2964.18,-185.22C3204.51,-152.91 3872.04,-63.16 4112.65,-30.82"/>
<polygon fill="black" stroke="black" points="4113.31,-34.26 4122.76,-29.46 4112.38,-27.32 4113.31,-34.26"/>
<text text-anchor="middle" x="2959.18" y="-174.02" font-family="Times,serif" font-size="14.00">1</text>
</g>
<!-- wrp.EntityBigRedFireball -->
<g id="node13" class="node">
<title>wrp.EntityBigRedFireball</title>
<g id="a_node13"><a xlink:href="wrp.EntityBigRedFireball.svg" xlink:title="wrp.EntityBigRedFireball">
<ellipse fill="green" stroke="black" cx="3148.54" cy="-198" rx="129.98" ry="18"/>
<text text-anchor="middle" x="3148.54" y="-194.3" font-family="Times,serif" font-size="14.00">wrp.EntityBigRedFireball</text>
</a>
</g>
</g>
<!-- wrp.EntityBigRedFireball&#45;&gt;wrp.InitializeEntity -->
<g id="edge12" class="edge">
<title>wrp.EntityBigRedFireball&#45;&gt;wrp.InitializeEntity</title>
<path fill="none" stroke="black" d="M3227.61,-183.62C3422.41,-150.66 3923.8,-65.82 4120.06,-32.62"/>
<polygon fill="black" stroke="black" points="4120.74,-36.05 4130.02,-30.93 4119.58,-29.15 4120.74,-36.05"/>
<text text-anchor="middle" x="3222.61" y="-172.42" font-family="Times,serif" font-size="14.00">1</text>
</g>
<!-- wrp.EntityBreakable -->
<g id="node14" class="node">
<title>wrp.EntityBreakable</title>
<g id="a_node14"><a xlink:href="wrp.EntityBreakable.svg" xlink:title="wrp.EntityBreakable">
<ellipse fill="green" stroke="black" cx="3403.54" cy="-198" rx="107.48" ry="18"/>
<text text-anchor="middle" x="3403.54" y="-194.3" font-family="Times,serif" font-size="14.00">wrp.EntityBreakable</text>
</a>
</g>
</g>
<!-- wrp.EntityBreakable&#45;&gt;wrp.InitializeEntity -->
<g id="edge13" class="edge">
<title>wrp.EntityBreakable&#45;&gt;wrp.InitializeEntity</title>
<path fill="none" stroke="black" d="M3465.08,-183.25C3610.85,-150.7 3976.46,-69.04 4130.44,-34.66"/>
<polygon fill="black" stroke="black" points="4131.27,-38.06 4140.27,-32.46 4129.75,-31.22 4131.27,-38.06"/>
<text text-anchor="middle" x="3460.08" y="-172.05" font-family="Times,serif" font-size="14.00">1</text>
</g>
<!-- wrp.EntityDamageDisplay -->
<g id="node15" class="node">
<title>wrp.EntityDamageDisplay</title>
<g id="a_node15"><a xlink:href="wrp.EntityDamageDisplay.svg" xlink:title="wrp.EntityDamageDisplay">
<ellipse fill="green" stroke="black" cx="3661.54" cy="-198" rx="133.48" ry="18"/>
<text text-anchor="middle" x="3661.54" y="-194.3" font-family="Times,serif" font-size="14.00">wrp.EntityDamageDisplay</text>
</a>
</g>
</g>
<!-- wrp.EntityDamageDisplay&#45;&gt;wrp.InitializeEntity -->
<g id="edge14" class="edge">
<title>wrp.EntityDamageDisplay&#45;&gt;wrp.InitializeEntity</title>
<path fill="none" stroke="black" d="M3709.85,-181.05C3809.95,-147.99 4039.5,-72.18 4145.29,-37.25"/>
<polygon fill="black" stroke="black" points="4146.43,-40.55 4154.83,-34.1 4144.24,-33.91 4146.43,-40.55"/>
<text text-anchor="middle" x="3704.85" y="-169.85" font-family="Times,serif" font-size="14.00">1</text>
</g>
<!-- wrp.EntityEnemyBlood -->
<g id="node16" class="node">
<title>wrp.EntityEnemyBlood</title>
<g id="a_node16"><a xlink:href="wrp.EntityEnemyBlood.svg" xlink:title="wrp.EntityEnemyBlood">
<ellipse fill="green" stroke="black" cx="3931.54" cy="-198" rx="118.88" ry="18"/>
<text text-anchor="middle" x="3931.54" y="-194.3" font-family="Times,serif" font-size="14.00">wrp.EntityEnemyBlood</text>
</a>
</g>
</g>
<!-- wrp.EntityEnemyBlood&#45;&gt;wrp.InitializeEntity -->
<g id="edge15" class="edge">
<title>wrp.EntityEnemyBlood&#45;&gt;wrp.InitializeEntity</title>
<path fill="none" stroke="black" d="M3956.84,-180.25C4005.53,-148.04 4112.25,-77.42 4166.88,-41.27"/>
<polygon fill="black" stroke="black" points="4169.09,-44.01 4175.49,-35.57 4165.22,-38.17 4169.09,-44.01"/>
<text text-anchor="middle" x="3951.84" y="-169.05" font-family="Times,serif" font-size="14.00">1</text>
</g>
<!-- wrp.EntityEquipItemDrop -->
<g id="node17" class="node">
<title>wrp.EntityEquipItemDrop</title>
<g id="a_node17"><a xlink:href="wrp.EntityEquipItemDrop.svg" xlink:title="wrp.EntityEquipItemDrop">
<ellipse fill="green" stroke="black" cx="4200.54" cy="-198" rx="131.88" ry="18"/>
<text text-anchor="middle" x="4200.54" y="-194.3" font-family="Times,serif" font-size="14.00">wrp.EntityEquipItemDrop</text>
</a>
</g>
</g>
<!-- wrp.EntityEquipItemDrop&#45;&gt;wrp.InitializeEntity -->
<g id="edge16" class="edge">
<title>wrp.EntityEquipItemDrop&#45;&gt;wrp.InitializeEntity</title>
<path fill="none" stroke="black" d="M4200.54,-179.93C4200.54,-148.97 4200.54,-83.3 4200.54,-46.13"/>
<polygon fill="black" stroke="black" points="4204.04,-46.02 4200.54,-36.02 4197.04,-46.02 4204.04,-46.02"/>
<text text-anchor="middle" x="4195.54" y="-168.73" font-family="Times,serif" font-size="14.00">1</text>
</g>
<!-- wrp.EntityExplosion -->
<g id="node18" class="node">
<title>wrp.EntityExplosion</title>
<g id="a_node18"><a xlink:href="wrp.EntityExplosion.svg" xlink:title="wrp.EntityExplosion">
<ellipse fill="green" stroke="black" cx="4456.54" cy="-198" rx="105.88" ry="18"/>
<text text-anchor="middle" x="4456.54" y="-194.3" font-family="Times,serif" font-size="14.00">wrp.EntityExplosion</text>
</a>
</g>
</g>
<!-- wrp.EntityExplosion&#45;&gt;wrp.InitializeEntity -->
<g id="edge17" class="edge">
<title>wrp.EntityExplosion&#45;&gt;wrp.InitializeEntity</title>
<path fill="none" stroke="black" d="M4432.45,-180.25C4386.21,-148.1 4284.97,-77.71 4232.9,-41.5"/>
<polygon fill="black" stroke="black" points="4234.58,-38.41 4224.37,-35.57 4230.58,-44.15 4234.58,-38.41"/>
<text text-anchor="middle" x="4427.45" y="-169.05" font-family="Times,serif" font-size="14.00">1</text>
</g>
<!-- wrp.EntityIntenseExplosion -->
<g id="node19" class="node">
<title>wrp.EntityIntenseExplosion</title>
<g id="a_node19"><a xlink:href="wrp.EntityIntenseExplosion.svg" xlink:title="wrp.EntityIntenseExplosion">
<ellipse fill="green" stroke="black" cx="4720.54" cy="-198" rx="140.28" ry="18"/>
<text text-anchor="middle" x="4720.54" y="-194.3" font-family="Times,serif" font-size="14.00">wrp.EntityIntenseExplosion</text>
</a>
</g>
</g>
<!-- wrp.EntityIntenseExplosion&#45;&gt;wrp.InitializeEntity -->
<g id="edge18" class="edge">
<title>wrp.EntityIntenseExplosion&#45;&gt;wrp.InitializeEntity</title>
<path fill="none" stroke="black" d="M4673.47,-180.89C4576.84,-147.81 4356.57,-72.41 4254.41,-37.44"/>
<polygon fill="black" stroke="black" points="4255.5,-34.11 4244.9,-34.19 4253.23,-40.74 4255.5,-34.11"/>
<text text-anchor="middle" x="4668.47" y="-169.69" font-family="Times,serif" font-size="14.00">1</text>
</g>
<!-- wrp.EntityMessageBox -->
<g id="node20" class="node">
<title>wrp.EntityMessageBox</title>
<g id="a_node20"><a xlink:href="wrp.EntityMessageBox.svg" xlink:title="wrp.EntityMessageBox">
<ellipse fill="green" stroke="black" cx="4997.54" cy="-198" rx="118.88" ry="18"/>
<text text-anchor="middle" x="4997.54" y="-194.3" font-family="Times,serif" font-size="14.00">wrp.EntityMessageBox</text>
</a>
</g>
</g>
<!-- wrp.EntityMessageBox&#45;&gt;wrp.InitializeEntity -->
<g id="edge19" class="edge">
<title>wrp.EntityMessageBox&#45;&gt;wrp.InitializeEntity</title>
<path fill="none" stroke="black" d="M4933.66,-182.73C4786.37,-149.84 4423.84,-68.87 4270.66,-34.66"/>
<polygon fill="black" stroke="black" points="4271.4,-31.24 4260.88,-32.48 4269.88,-38.07 4271.4,-31.24"/>
<text text-anchor="middle" x="4928.66" y="-171.53" font-family="Times,serif" font-size="14.00">1</text>
</g>
<!-- wrp.EntityOlroxDrool -->
<g id="node21" class="node">
<title>wrp.EntityOlroxDrool</title>
<g id="a_node21"><a xlink:href="wrp.EntityOlroxDrool.svg" xlink:title="wrp.EntityOlroxDrool">
<ellipse fill="green" stroke="black" cx="5245.54" cy="-198" rx="111.28" ry="18"/>
<text text-anchor="middle" x="5245.54" y="-194.3" font-family="Times,serif" font-size="14.00">wrp.EntityOlroxDrool</text>
</a>
</g>
</g>
<!-- wrp.EntityOlroxDrool&#45;&gt;wrp.InitializeEntity -->
<g id="edge20" class="edge">
<title>wrp.EntityOlroxDrool&#45;&gt;wrp.InitializeEntity</title>
<path fill="none" stroke="black" d="M5172.06,-184.48C4982.44,-152.18 4477.75,-66.22 4280.82,-32.68"/>
<polygon fill="black" stroke="black" points="4281.28,-29.2 4270.83,-30.97 4280.1,-36.1 4281.28,-29.2"/>
<text text-anchor="middle" x="5167.06" y="-173.28" font-family="Times,serif" font-size="14.00">1</text>
</g>
<!-- wrp.EntityPrizeDrop -->
<g id="node22" class="node">
<title>wrp.EntityPrizeDrop</title>
<g id="a_node22"><a xlink:href="wrp.EntityPrizeDrop.svg" xlink:title="wrp.EntityPrizeDrop">
<ellipse fill="green" stroke="black" cx="5481.54" cy="-198" rx="107.48" ry="18"/>
<text text-anchor="middle" x="5481.54" y="-194.3" font-family="Times,serif" font-size="14.00">wrp.EntityPrizeDrop</text>
</a>
</g>
</g>
<!-- wrp.EntityPrizeDrop&#45;&gt;wrp.InitializeEntity -->
<g id="edge21" class="edge">
<title>wrp.EntityPrizeDrop&#45;&gt;wrp.InitializeEntity</title>
<path fill="none" stroke="black" d="M5403.87,-185.53C5391.06,-183.66 5377.93,-181.76 5365.54,-180 4963.4,-122.75 4482.73,-57.25 4288.43,-30.9"/>
<polygon fill="black" stroke="black" points="4288.66,-27.4 4278.28,-29.52 4287.72,-34.33 4288.66,-27.4"/>
<text text-anchor="middle" x="5398.87" y="-174.33" font-family="Times,serif" font-size="14.00">1</text>
</g>
<!-- wrp.EntityRedDoor -->
<g id="node23" class="node">
<title>wrp.EntityRedDoor</title>
<g id="a_node23"><a xlink:href="wrp.EntityRedDoor.svg" xlink:title="wrp.EntityRedDoor">
<ellipse fill="green" stroke="black" cx="5707.54" cy="-198" rx="100.98" ry="18"/>
<text text-anchor="middle" x="5707.54" y="-194.3" font-family="Times,serif" font-size="14.00">wrp.EntityRedDoor</text>
</a>
</g>
</g>
<!-- wrp.EntityRedDoor&#45;&gt;wrp.InitializeEntity -->
<g id="edge22" class="edge">
<title>wrp.EntityRedDoor&#45;&gt;wrp.InitializeEntity</title>
<path fill="none" stroke="black" d="M5635.11,-185.4C5622.59,-183.51 5609.7,-181.64 5597.54,-180 5109.05,-114.13 4522.15,-52.02 4295.9,-28.71"/>
<polygon fill="black" stroke="black" points="4296.03,-25.2 4285.72,-27.66 4295.31,-32.17 4296.03,-25.2"/>
<text text-anchor="middle" x="5630.11" y="-174.2" font-family="Times,serif" font-size="14.00">1</text>
</g>
<!-- wrp.EntityRelicOrb -->
<g id="node24" class="node">
<title>wrp.EntityRelicOrb</title>
<g id="a_node24"><a xlink:href="wrp.EntityRelicOrb.svg" xlink:title="wrp.EntityRelicOrb">
<ellipse fill="green" stroke="black" cx="5926.54" cy="-198" rx="100.98" ry="18"/>
<text text-anchor="middle" x="5926.54" y="-194.3" font-family="Times,serif" font-size="14.00">wrp.EntityRelicOrb</text>
</a>
</g>
</g>
<!-- wrp.EntityRelicOrb&#45;&gt;wrp.InitializeEntity -->
<g id="edge23" class="edge">
<title>wrp.EntityRelicOrb&#45;&gt;wrp.InitializeEntity</title>
<path fill="none" stroke="black" d="M5855.09,-185.28C5842.59,-183.39 5829.7,-181.55 5817.54,-180 5245.14,-106.92 4555.16,-47.84 4300.9,-27.04"/>
<polygon fill="black" stroke="black" points="4300.83,-23.53 4290.58,-26.2 4300.26,-30.5 4300.83,-23.53"/>
<text text-anchor="middle" x="5850.09" y="-174.08" font-family="Times,serif" font-size="14.00">1</text>
</g>
<!-- wrp.EntityRoomForeground -->
<g id="node25" class="node">
<title>wrp.EntityRoomForeground</title>
<g id="a_node25"><a xlink:href="wrp.EntityRoomForeground.svg" xlink:title="wrp.EntityRoomForeground">
<ellipse fill="green" stroke="black" cx="6186.54" cy="-198" rx="141.07" ry="18"/>
<text text-anchor="middle" x="6186.54" y="-194.3" font-family="Times,serif" font-size="14.00">wrp.EntityRoomForeground</text>
</a>
</g>
</g>
<!-- wrp.EntityRoomForeground&#45;&gt;wrp.InitializeEntity -->
<g id="edge24" class="edge">
<title>wrp.EntityRoomForeground&#45;&gt;wrp.InitializeEntity</title>
<path fill="none" stroke="black" d="M6086.53,-185.31C6069.84,-183.46 6052.71,-181.62 6036.54,-180 5374.94,-113.51 4577.64,-48.88 4300.9,-26.9"/>
<polygon fill="black" stroke="black" points="4301.13,-23.41 4290.88,-26.1 4300.57,-30.39 4301.13,-23.41"/>
<text text-anchor="middle" x="6081.53" y="-174.11" font-family="Times,serif" font-size="14.00">1</text>
</g>
<!-- wrp.EntitySoulStealOrb -->
<g id="node26" class="node">
<title>wrp.EntitySoulStealOrb</title>
<g id="a_node26"><a xlink:href="wrp.EntitySoulStealOrb.svg" xlink:title="wrp.EntitySoulStealOrb">
<ellipse fill="green" stroke="black" cx="6467.54" cy="-198" rx="122.38" ry="18"/>
<text text-anchor="middle" x="6467.54" y="-194.3" font-family="Times,serif" font-size="14.00">wrp.EntitySoulStealOrb</text>
</a>
</g>
</g>
<!-- wrp.EntitySoulStealOrb&#45;&gt;wrp.InitializeEntity -->
<g id="edge25" class="edge">
<title>wrp.EntitySoulStealOrb&#45;&gt;wrp.InitializeEntity</title>
<path fill="none" stroke="black" d="M6381.65,-185.18C6366.63,-183.31 6351.14,-181.5 6336.54,-180 5558.09,-100.21 4616.22,-42.81 4305.52,-24.91"/>
<polygon fill="black" stroke="black" points="4305.36,-21.39 4295.18,-24.31 4304.96,-28.38 4305.36,-21.39"/>
<text text-anchor="middle" x="6376.65" y="-173.98" font-family="Times,serif" font-size="14.00">1</text>
</g>
<!-- wrp.EntityUnkId12 -->
<g id="node27" class="node">
<title>wrp.EntityUnkId12</title>
<g id="a_node27"><a xlink:href="wrp.EntityUnkId12.svg" xlink:title="wrp.EntityUnkId12">
<ellipse fill="green" stroke="black" cx="6708.54" cy="-198" rx="100.98" ry="18"/>
<text text-anchor="middle" x="6708.54" y="-194.3" font-family="Times,serif" font-size="14.00">wrp.EntityUnkId12</text>
</a>
</g>
</g>
<!-- wrp.EntityUnkId12&#45;&gt;wrp.InitializeEntity -->
<g id="edge26" class="edge">
<title>wrp.EntityUnkId12&#45;&gt;wrp.InitializeEntity</title>
<path fill="none" stroke="black" d="M6637.65,-185.12C6624.67,-183.21 6611.21,-181.4 6598.54,-180 5717.08,-82.48 4646.35,-35.91 4308.2,-22.91"/>
<polygon fill="black" stroke="black" points="4308.3,-19.41 4298.17,-22.53 4308.03,-26.41 4308.3,-19.41"/>
<text text-anchor="middle" x="6632.65" y="-173.92" font-family="Times,serif" font-size="14.00">1</text>
</g>
<!-- wrp.EntityUnkId13 -->
<g id="node28" class="node">
<title>wrp.EntityUnkId13</title>
<g id="a_node28"><a xlink:href="wrp.EntityUnkId13.svg" xlink:title="wrp.EntityUnkId13">
<ellipse fill="green" stroke="black" cx="6927.54" cy="-198" rx="100.98" ry="18"/>
<text text-anchor="middle" x="6927.54" y="-194.3" font-family="Times,serif" font-size="14.00">wrp.EntityUnkId13</text>
</a>
</g>
</g>
<!-- wrp.EntityUnkId13&#45;&gt;wrp.InitializeEntity -->
<g id="edge27" class="edge">
<title>wrp.EntityUnkId13&#45;&gt;wrp.InitializeEntity</title>
<path fill="none" stroke="black" d="M6857.3,-185.06C6844.44,-183.15 6831.1,-181.36 6818.54,-180 5848.58,-74.77 4668.42,-32.91 4309.31,-22.05"/>
<polygon fill="black" stroke="black" points="4309.28,-18.55 4299.18,-21.75 4309.07,-25.55 4309.28,-18.55"/>
<text text-anchor="middle" x="6852.3" y="-173.86" font-family="Times,serif" font-size="14.00">1</text>
</g>
<!-- wrp.EntityWarpRoom -->
<g id="node29" class="node">
<title>wrp.EntityWarpRoom</title>
<g id="a_node29"><a xlink:href="wrp.EntityWarpRoom.svg" xlink:title="wrp.EntityWarpRoom">
<ellipse fill="green" stroke="black" cx="7157.54" cy="-198" rx="111.28" ry="18"/>
<text text-anchor="middle" x="7157.54" y="-194.3" font-family="Times,serif" font-size="14.00">wrp.EntityWarpRoom</text>
</a>
</g>
</g>
<!-- wrp.EntityWarpRoom&#45;&gt;wrp.InitializeEntity -->
<g id="edge28" class="edge">
<title>wrp.EntityWarpRoom&#45;&gt;wrp.InitializeEntity</title>
<path fill="none" stroke="black" d="M7080.19,-185.07C7066.03,-183.16 7051.36,-181.37 7037.54,-180 5977.6,-75.03 4687.58,-32.6 4309.5,-21.89"/>
<polygon fill="black" stroke="black" points="4309.49,-18.38 4299.39,-21.6 4309.29,-25.38 4309.49,-18.38"/>
<text text-anchor="middle" x="7075.19" y="-173.87" font-family="Times,serif" font-size="14.00">1</text>
</g>
<!-- wrp.EntityWarpSmallRocks -->
<g id="node30" class="node">
<title>wrp.EntityWarpSmallRocks</title>
<g id="a_node30"><a xlink:href="wrp.EntityWarpSmallRocks.svg" xlink:title="wrp.EntityWarpSmallRocks">
<ellipse fill="green" stroke="black" cx="7425.54" cy="-198" rx="138.38" ry="18"/>
<text text-anchor="middle" x="7425.54" y="-194.3" font-family="Times,serif" font-size="14.00">wrp.EntityWarpSmallRocks</text>
</a>
</g>
</g>
<!-- wrp.EntityWarpSmallRocks&#45;&gt;wrp.InitializeEntity -->
<g id="edge29" class="edge">
<title>wrp.EntityWarpSmallRocks&#45;&gt;wrp.InitializeEntity</title>
<path fill="none" stroke="black" d="M7328.9,-185.02C7311.8,-183.16 7294.16,-181.39 7277.54,-180 6117.43,-83.12 4706.1,-34.6 4309.03,-22.24"/>
<polygon fill="black" stroke="black" points="4309.1,-18.74 4298.99,-21.93 4308.88,-25.73 4309.1,-18.74"/>
<text text-anchor="middle" x="7323.9" y="-173.82" font-family="Times,serif" font-size="14.00">1</text>
</g>
<!-- wrp.InitializeUnkEntity -->
<g id="node31" class="node">
<title>wrp.InitializeUnkEntity</title>
<g id="a_node31"><a xlink:href="wrp.InitializeUnkEntity.svg" xlink:title="wrp.InitializeUnkEntity">
<ellipse fill="green" stroke="black" cx="7702.54" cy="-198" rx="120.48" ry="18"/>
<text text-anchor="middle" x="7702.54" y="-194.3" font-family="Times,serif" font-size="14.00">wrp.InitializeUnkEntity</text>
</a>
</g>
</g>
<!-- wrp.InitializeUnkEntity&#45;&gt;wrp.InitializeEntity -->
<g id="edge30" class="edge">
<title>wrp.InitializeUnkEntity&#45;&gt;wrp.InitializeEntity</title>
<path fill="none" stroke="black" d="M7618.73,-185.01C7603.39,-183.11 7587.5,-181.33 7572.54,-180 6293.16,-66 4733.02,-29.19 4310.46,-20.96"/>
<polygon fill="black" stroke="black" points="4310.46,-17.46 4300.39,-20.77 4310.32,-24.46 4310.46,-17.46"/>
<text text-anchor="middle" x="7613.73" y="-173.81" font-family="Times,serif" font-size="14.00">1</text>
</g>
<!-- wrp.func_80186FD0 -->
<g id="node32" class="node">
<title>wrp.func_80186FD0</title>
<g id="a_node32"><a xlink:href="wrp.func_80186FD0.svg" xlink:title="wrp.func_80186FD0">
<ellipse fill="green" stroke="black" cx="7945.54" cy="-198" rx="104.78" ry="18"/>
<text text-anchor="middle" x="7945.54" y="-194.3" font-family="Times,serif" font-size="14.00">wrp.func_80186FD0</text>
</a>
</g>
</g>
<!-- wrp.func_80186FD0&#45;&gt;wrp.InitializeEntity -->
<g id="edge31" class="edge">
<title>wrp.func_80186FD0&#45;&gt;wrp.InitializeEntity</title>
<path fill="none" stroke="black" d="M7872.7,-184.99C7859.05,-183.07 7844.88,-181.29 7831.54,-180 6447.3,-46.46 4755.34,-23.53 4311.41,-19.73"/>
<polygon fill="black" stroke="black" points="4311.19,-16.23 4301.16,-19.64 4311.13,-23.23 4311.19,-16.23"/>
<text text-anchor="middle" x="7867.7" y="-173.79" font-family="Times,serif" font-size="14.00">1</text>
</g>
</g>
</svg>
