<?xml version="1.0" encoding="UTF-8" standalone="no"?>
<!DOCTYPE svg PUBLIC "-//W3C//DTD SVG 1.1//EN"
 "http://www.w3.org/Graphics/SVG/1.1/DTD/svg11.dtd">
<!-- Generated by graphviz version 2.43.0 (0)
 -->
<!-- Title: wrp.Random Pages: 1 -->
<svg width="3036pt" height="224pt"
 viewBox="0.00 0.00 3035.98 224.00" xmlns="http://www.w3.org/2000/svg" xmlns:xlink="http://www.w3.org/1999/xlink">
<g id="graph0" class="graph" transform="scale(1 1) rotate(0) translate(4 220)">
<title>wrp.Random</title>
<polygon fill="white" stroke="transparent" points="-4,4 -4,-220 3031.98,-220 3031.98,4 -4,4"/>
<!-- wrp.Random -->
<g id="node1" class="node">
<title>wrp.Random</title>
<ellipse fill="green" stroke="black" cx="1629.49" cy="-18" rx="69.59" ry="18"/>
<text text-anchor="middle" x="1629.49" y="-14.3" font-family="Times,serif" font-size="14.00">wrp.Random</text>
</g>
<!-- rwrp.EntityEnemyBlood -->
<g id="node2" class="node">
<title>rwrp.EntityEnemyBlood</title>
<g id="a_node2"><a xlink:href="rwrp.EntityEnemyBlood.svg" xlink:title="rwrp.EntityEnemyBlood">
<ellipse fill="green" stroke="black" cx="123.49" cy="-198" rx="123.48" ry="18"/>
<text text-anchor="middle" x="123.49" y="-194.3" font-family="Times,serif" font-size="14.00">rwrp.EntityEnemyBlood</text>
</a>
</g>
</g>
<!-- rwrp.EntityEnemyBlood&#45;&gt;wrp.Random -->
<g id="edge1" class="edge">
<title>rwrp.EntityEnemyBlood&#45;&gt;wrp.Random</title>
<path fill="none" stroke="black" d="M212.23,-185.43C226.68,-183.59 241.5,-181.72 255.49,-180 753.05,-118.81 1352.65,-50.37 1557.13,-27.18"/>
<polygon fill="black" stroke="black" points="1557.61,-30.65 1567.15,-26.05 1556.82,-23.7 1557.61,-30.65"/>
<text text-anchor="middle" x="207.23" y="-174.23" font-family="Times,serif" font-size="14.00">5</text>
</g>
<!-- rwrp.EntitySoulStealOrb -->
<g id="node3" class="node">
<title>rwrp.EntitySoulStealOrb</title>
<g id="a_node3"><a xlink:href="rwrp.EntitySoulStealOrb.svg" xlink:title="rwrp.EntitySoulStealOrb">
<ellipse fill="green" stroke="black" cx="391.49" cy="-198" rx="126.98" ry="18"/>
<text text-anchor="middle" x="391.49" y="-194.3" font-family="Times,serif" font-size="14.00">rwrp.EntitySoulStealOrb</text>
</a>
</g>
</g>
<!-- rwrp.EntitySoulStealOrb&#45;&gt;wrp.Random -->
<g id="edge2" class="edge">
<title>rwrp.EntitySoulStealOrb&#45;&gt;wrp.Random</title>
<path fill="none" stroke="black" d="M477.07,-184.7C709.3,-151.31 1348.07,-59.46 1560.08,-28.98"/>
<polygon fill="black" stroke="black" points="1560.75,-32.42 1570.15,-27.53 1559.75,-25.49 1560.75,-32.42"/>
<text text-anchor="middle" x="472.07" y="-173.5" font-family="Times,serif" font-size="14.00">2</text>
</g>
<!-- rwrp.EntityStageNamePopup -->
<g id="node4" class="node">
<title>rwrp.EntityStageNamePopup</title>
<g id="a_node4"><a xlink:href="rwrp.EntityStageNamePopup.svg" xlink:title="rwrp.EntityStageNamePopup">
<ellipse fill="green" stroke="black" cx="683.49" cy="-198" rx="147.57" ry="18"/>
<text text-anchor="middle" x="683.49" y="-194.3" font-family="Times,serif" font-size="14.00">rwrp.EntityStageNamePopup</text>
</a>
</g>
</g>
<!-- rwrp.EntityStageNamePopup&#45;&gt;wrp.Random -->
<g id="edge3" class="edge">
<title>rwrp.EntityStageNamePopup&#45;&gt;wrp.Random</title>
<path fill="none" stroke="black" d="M760.1,-182.58C941.79,-148.4 1396.17,-62.9 1565,-31.13"/>
<polygon fill="black" stroke="black" points="1565.8,-34.55 1574.98,-29.26 1564.51,-27.67 1565.8,-34.55"/>
<text text-anchor="middle" x="755.1" y="-171.38" font-family="Times,serif" font-size="14.00">4</text>
</g>
<!-- rwrp.EntityWarpSmallRocks -->
<g id="node5" class="node">
<title>rwrp.EntityWarpSmallRocks</title>
<g id="a_node5"><a xlink:href="rwrp.EntityWarpSmallRocks.svg" xlink:title="rwrp.EntityWarpSmallRocks">
<ellipse fill="green" stroke="black" cx="992.49" cy="-198" rx="142.97" ry="18"/>
<text text-anchor="middle" x="992.49" y="-194.3" font-family="Times,serif" font-size="14.00">rwrp.EntityWarpSmallRocks</text>
</a>
</g>
</g>
<!-- rwrp.EntityWarpSmallRocks&#45;&gt;wrp.Random -->
<g id="edge4" class="edge">
<title>rwrp.EntityWarpSmallRocks&#45;&gt;wrp.Random</title>
<path fill="none" stroke="black" d="M1048.46,-181.36C1169.38,-147.57 1453.79,-68.1 1574.15,-34.46"/>
<polygon fill="black" stroke="black" points="1575.21,-37.8 1583.9,-31.74 1573.33,-31.06 1575.21,-37.8"/>
<text text-anchor="middle" x="1043.46" y="-170.16" font-family="Times,serif" font-size="14.00">4</text>
</g>
<!-- rwrp.InitRoomEntities -->
<g id="node6" class="node">
<title>rwrp.InitRoomEntities</title>
<g id="a_node6"><a xlink:href="rwrp.InitRoomEntities.svg" xlink:title="rwrp.InitRoomEntities">
<ellipse fill="green" stroke="black" cx="1268.49" cy="-198" rx="115.08" ry="18"/>
<text text-anchor="middle" x="1268.49" y="-194.3" font-family="Times,serif" font-size="14.00">rwrp.InitRoomEntities</text>
</a>
</g>
</g>
<!-- rwrp.InitRoomEntities&#45;&gt;wrp.Random -->
<g id="edge5" class="edge">
<title>rwrp.InitRoomEntities&#45;&gt;wrp.Random</title>
<path fill="none" stroke="black" d="M1301.48,-180.73C1367.95,-147.96 1517.72,-74.11 1589.57,-38.68"/>
<polygon fill="black" stroke="black" points="1591.34,-41.71 1598.76,-34.15 1588.24,-35.44 1591.34,-41.71"/>
<text text-anchor="middle" x="1296.48" y="-169.53" font-family="Times,serif" font-size="14.00">1</text>
</g>
<!-- rwrp.MakeExplosions -->
<g id="node7" class="node">
<title>rwrp.MakeExplosions</title>
<g id="a_node7"><a xlink:href="rwrp.MakeExplosions.svg" xlink:title="rwrp.MakeExplosions">
<ellipse fill="green" stroke="black" cx="1513.49" cy="-198" rx="111.58" ry="18"/>
<text text-anchor="middle" x="1513.49" y="-194.3" font-family="Times,serif" font-size="14.00">rwrp.MakeExplosions</text>
</a>
</g>
</g>
<!-- rwrp.MakeExplosions&#45;&gt;wrp.Random -->
<g id="edge6" class="edge">
<title>rwrp.MakeExplosions&#45;&gt;wrp.Random</title>
<path fill="none" stroke="black" d="M1524.61,-179.93C1545.05,-148.57 1588.69,-81.6 1612.74,-44.71"/>
<polygon fill="black" stroke="black" points="1615.87,-46.3 1618.4,-36.02 1610.01,-42.48 1615.87,-46.3"/>
<text text-anchor="middle" x="1519.61" y="-168.73" font-family="Times,serif" font-size="14.00">2</text>
</g>
<!-- rwrp.UnkAnimFunc -->
<g id="node8" class="node">
<title>rwrp.UnkAnimFunc</title>
<g id="a_node8"><a xlink:href="rwrp.UnkAnimFunc.svg" xlink:title="rwrp.UnkAnimFunc">
<ellipse fill="green" stroke="black" cx="1745.49" cy="-198" rx="102.08" ry="18"/>
<text text-anchor="middle" x="1745.49" y="-194.3" font-family="Times,serif" font-size="14.00">rwrp.UnkAnimFunc</text>
</a>
</g>
</g>
<!-- rwrp.UnkAnimFunc&#45;&gt;wrp.Random -->
<g id="edge7" class="edge">
<title>rwrp.UnkAnimFunc&#45;&gt;wrp.Random</title>
<path fill="none" stroke="black" d="M1734.37,-179.93C1713.93,-148.57 1670.29,-81.6 1646.24,-44.71"/>
<polygon fill="black" stroke="black" points="1648.97,-42.48 1640.58,-36.02 1643.11,-46.3 1648.97,-42.48"/>
<text text-anchor="middle" x="1729.37" y="-168.73" font-family="Times,serif" font-size="14.00">1</text>
</g>
<!-- wrp.EntityWarpRoom -->
<g id="node9" class="node">
<title>wrp.EntityWarpRoom</title>
<g id="a_node9"><a xlink:href="wrp.EntityWarpRoom.svg" xlink:title="wrp.EntityWarpRoom">
<ellipse fill="green" stroke="black" cx="1976.49" cy="-198" rx="111.28" ry="18"/>
<text text-anchor="middle" x="1976.49" y="-194.3" font-family="Times,serif" font-size="14.00">wrp.EntityWarpRoom</text>
</a>
</g>
</g>
<!-- wrp.EntityWarpRoom&#45;&gt;wrp.Random -->
<g id="edge8" class="edge">
<title>wrp.EntityWarpRoom&#45;&gt;wrp.Random</title>
<path fill="none" stroke="black" d="M1944.78,-180.73C1881.18,-148.11 1738.23,-74.78 1668.81,-39.17"/>
<polygon fill="black" stroke="black" points="1670.01,-35.85 1659.52,-34.4 1666.82,-42.08 1670.01,-35.85"/>
<text text-anchor="middle" x="1939.78" y="-169.53" font-family="Times,serif" font-size="14.00">1</text>
</g>
<!-- wrp.EntityWarpSmallRocks -->
<g id="node10" class="node">
<title>wrp.EntityWarpSmallRocks</title>
<g id="a_node10"><a xlink:href="wrp.EntityWarpSmallRocks.svg" xlink:title="wrp.EntityWarpSmallRocks">
<ellipse fill="green" stroke="black" cx="2244.49" cy="-198" rx="138.38" ry="18"/>
<text text-anchor="middle" x="2244.49" y="-194.3" font-family="Times,serif" font-size="14.00">wrp.EntityWarpSmallRocks</text>
</a>
</g>
</g>
<!-- wrp.EntityWarpSmallRocks&#45;&gt;wrp.Random -->
<g id="edge9" class="edge">
<title>wrp.EntityWarpSmallRocks&#45;&gt;wrp.Random</title>
<path fill="none" stroke="black" d="M2190.45,-181.36C2073.96,-147.65 1800.34,-68.45 1683.7,-34.69"/>
<polygon fill="black" stroke="black" points="1684.49,-31.27 1673.91,-31.86 1682.54,-38 1684.49,-31.27"/>
<text text-anchor="middle" x="2185.45" y="-170.16" font-family="Times,serif" font-size="14.00">4</text>
</g>
<!-- wrp.HitDetection -->
<g id="node11" class="node">
<title>wrp.HitDetection</title>
<g id="a_node11"><a xlink:href="wrp.HitDetection.svg" xlink:title="wrp.HitDetection">
<ellipse fill="green" stroke="black" cx="2491.49" cy="-198" rx="90.98" ry="18"/>
<text text-anchor="middle" x="2491.49" y="-194.3" font-family="Times,serif" font-size="14.00">wrp.HitDetection</text>
</a>
</g>
</g>
<!-- wrp.HitDetection&#45;&gt;wrp.Random -->
<g id="edge10" class="edge">
<title>wrp.HitDetection&#45;&gt;wrp.Random</title>
<path fill="none" stroke="black" d="M2430.87,-184.48C2273.29,-151.94 1851.88,-64.92 1692.1,-31.93"/>
<polygon fill="black" stroke="black" points="1692.46,-28.43 1681.95,-29.83 1691.04,-35.28 1692.46,-28.43"/>
<text text-anchor="middle" x="2425.87" y="-173.28" font-family="Times,serif" font-size="14.00">2</text>
</g>
<!-- wrp.MakeExplosions -->
<g id="node12" class="node">
<title>wrp.MakeExplosions</title>
<g id="a_node12"><a xlink:href="wrp.MakeExplosions.svg" xlink:title="wrp.MakeExplosions">
<ellipse fill="green" stroke="black" cx="2707.49" cy="-198" rx="107.48" ry="18"/>
<text text-anchor="middle" x="2707.49" y="-194.3" font-family="Times,serif" font-size="14.00">wrp.MakeExplosions</text>
</a>
</g>
</g>
<!-- wrp.MakeExplosions&#45;&gt;wrp.Random -->
<g id="edge11" class="edge">
<title>wrp.MakeExplosions&#45;&gt;wrp.Random</title>
<path fill="none" stroke="black" d="M2633.82,-184.84C2434.65,-151.95 1887.65,-61.63 1696.49,-30.06"/>
<polygon fill="black" stroke="black" points="1697.01,-26.6 1686.58,-28.43 1695.87,-33.51 1697.01,-26.6"/>
<text text-anchor="middle" x="2628.82" y="-173.64" font-family="Times,serif" font-size="14.00">2</text>
</g>
<!-- wrp.UnkAnimFunc -->
<g id="node13" class="node">
<title>wrp.UnkAnimFunc</title>
<g id="a_node13"><a xlink:href="wrp.UnkAnimFunc.svg" xlink:title="wrp.UnkAnimFunc">
<ellipse fill="green" stroke="black" cx="2930.49" cy="-198" rx="97.48" ry="18"/>
<text text-anchor="middle" x="2930.49" y="-194.3" font-family="Times,serif" font-size="14.00">wrp.UnkAnimFunc</text>
</a>
</g>
</g>
<!-- wrp.UnkAnimFunc&#45;&gt;wrp.Random -->
<g id="edge12" class="edge">
<title>wrp.UnkAnimFunc&#45;&gt;wrp.Random</title>
<path fill="none" stroke="black" d="M2859.73,-185.52C2847.65,-183.63 2835.21,-181.72 2823.49,-180 2397.98,-117.52 1885.75,-51.54 1700.59,-27.99"/>
<polygon fill="black" stroke="black" points="1700.81,-24.49 1690.45,-26.7 1699.93,-31.44 1700.81,-24.49"/>
<text text-anchor="middle" x="2854.73" y="-174.32" font-family="Times,serif" font-size="14.00">1</text>
</g>
</g>
</svg>
