<?xml version="1.0" encoding="UTF-8" standalone="no"?>
<!DOCTYPE svg PUBLIC "-//W3C//DTD SVG 1.1//EN"
 "http://www.w3.org/Graphics/SVG/1.1/DTD/svg11.dtd">
<!-- Generated by graphviz version 2.43.0 (0)
 -->
<!-- Title: wrp.DestroyEntity Pages: 1 -->
<svg width="9028pt" height="404pt"
 viewBox="0.00 0.00 9027.84 404.00" xmlns="http://www.w3.org/2000/svg" xmlns:xlink="http://www.w3.org/1999/xlink">
<g id="graph0" class="graph" transform="scale(1 1) rotate(0) translate(4 400)">
<title>wrp.DestroyEntity</title>
<polygon fill="white" stroke="transparent" points="-4,4 -4,-400 9023.84,-400 9023.84,4 -4,4"/>
<!-- wrp.DestroyEntity -->
<g id="node1" class="node">
<title>wrp.DestroyEntity</title>
<ellipse fill="green" stroke="black" cx="4667.19" cy="-198" rx="96.68" ry="18"/>
<text text-anchor="middle" x="4667.19" y="-194.3" font-family="Times,serif" font-size="14.00">wrp.DestroyEntity</text>
</g>
<!-- dra.FreePrimitives -->
<g id="node2" class="node">
<title>dra.FreePrimitives</title>
<g id="a_node2"><a xlink:href="dra.FreePrimitives.svg" xlink:title="dra.FreePrimitives">
<ellipse fill="green" stroke="black" cx="4667.19" cy="-18" rx="98.58" ry="18"/>
<text text-anchor="middle" x="4667.19" y="-14.3" font-family="Times,serif" font-size="14.00">dra.FreePrimitives</text>
</a>
</g>
</g>
<!-- wrp.DestroyEntity&#45;&gt;dra.FreePrimitives -->
<g id="edge1" class="edge">
<title>wrp.DestroyEntity&#45;&gt;dra.FreePrimitives</title>
<path fill="none" stroke="black" d="M4667.19,-179.93C4667.19,-148.97 4667.19,-83.3 4667.19,-46.13"/>
<polygon fill="black" stroke="black" points="4670.69,-46.02 4667.19,-36.02 4663.69,-46.02 4670.69,-46.02"/>
<text text-anchor="middle" x="4662.19" y="-39.82" font-family="Times,serif" font-size="14.00">1</text>
</g>
<!-- wrp.AllocEntity -->
<g id="node3" class="node">
<title>wrp.AllocEntity</title>
<g id="a_node3"><a xlink:href="wrp.AllocEntity.svg" xlink:title="wrp.AllocEntity">
<ellipse fill="green" stroke="black" cx="83.19" cy="-378" rx="83.39" ry="18"/>
<text text-anchor="middle" x="83.19" y="-374.3" font-family="Times,serif" font-size="14.00">wrp.AllocEntity</text>
</a>
</g>
</g>
<!-- wrp.AllocEntity&#45;&gt;wrp.DestroyEntity -->
<g id="edge2" class="edge">
<title>wrp.AllocEntity&#45;&gt;wrp.DestroyEntity</title>
<path fill="none" stroke="black" d="M140.91,-365C152.23,-363.02 164.05,-361.22 175.19,-360 1065.16,-262.36 3968.62,-210.41 4561.06,-200.68"/>
<polygon fill="black" stroke="black" points="4561.35,-204.18 4571.3,-200.52 4561.24,-197.18 4561.35,-204.18"/>
<text text-anchor="middle" x="135.91" y="-353.8" font-family="Times,serif" font-size="14.00">1</text>
</g>
<!-- wrp.CollectGold -->
<g id="node4" class="node">
<title>wrp.CollectGold</title>
<g id="a_node4"><a xlink:href="wrp.CollectGold.svg" xlink:title="wrp.CollectGold">
<ellipse fill="green" stroke="black" cx="269.19" cy="-378" rx="85.29" ry="18"/>
<text text-anchor="middle" x="269.19" y="-374.3" font-family="Times,serif" font-size="14.00">wrp.CollectGold</text>
</a>
</g>
</g>
<!-- wrp.CollectGold&#45;&gt;wrp.DestroyEntity -->
<g id="edge3" class="edge">
<title>wrp.CollectGold&#45;&gt;wrp.DestroyEntity</title>
<path fill="none" stroke="black" d="M328.18,-365.02C339.74,-363.04 351.82,-361.24 363.19,-360 1213.78,-267.65 3982.98,-211.75 4560.89,-200.93"/>
<polygon fill="black" stroke="black" points="4561.36,-204.42 4571.29,-200.74 4561.23,-197.43 4561.36,-204.42"/>
<text text-anchor="middle" x="323.18" y="-353.82" font-family="Times,serif" font-size="14.00">1</text>
</g>
<!-- wrp.CollectHeart -->
<g id="node5" class="node">
<title>wrp.CollectHeart</title>
<g id="a_node5"><a xlink:href="wrp.CollectHeart.svg" xlink:title="wrp.CollectHeart">
<ellipse fill="green" stroke="black" cx="463.19" cy="-378" rx="90.98" ry="18"/>
<text text-anchor="middle" x="463.19" y="-374.3" font-family="Times,serif" font-size="14.00">wrp.CollectHeart</text>
</a>
</g>
</g>
<!-- wrp.CollectHeart&#45;&gt;wrp.DestroyEntity -->
<g id="edge4" class="edge">
<title>wrp.CollectHeart&#45;&gt;wrp.DestroyEntity</title>
<path fill="none" stroke="black" d="M526.24,-365.01C538.46,-363.05 551.19,-361.25 563.19,-360 1372.48,-275.69 4000.54,-213.75 4561.31,-201.3"/>
<polygon fill="black" stroke="black" points="4561.49,-204.79 4571.41,-201.07 4561.34,-197.8 4561.49,-204.79"/>
<text text-anchor="middle" x="521.24" y="-353.81" font-family="Times,serif" font-size="14.00">1</text>
</g>
<!-- wrp.CollectHeartVessel -->
<g id="node6" class="node">
<title>wrp.CollectHeartVessel</title>
<g id="a_node6"><a xlink:href="wrp.CollectHeartVessel.svg" xlink:title="wrp.CollectHeartVessel">
<ellipse fill="green" stroke="black" cx="692.19" cy="-378" rx="120.48" ry="18"/>
<text text-anchor="middle" x="692.19" y="-374.3" font-family="Times,serif" font-size="14.00">wrp.CollectHeartVessel</text>
</a>
</g>
</g>
<!-- wrp.CollectHeartVessel&#45;&gt;wrp.DestroyEntity -->
<g id="edge5" class="edge">
<title>wrp.CollectHeartVessel&#45;&gt;wrp.DestroyEntity</title>
<path fill="none" stroke="black" d="M775.64,-364.98C791.09,-363.07 807.11,-361.3 822.19,-360 2300.73,-232.62 4108.15,-205.08 4560.67,-200.02"/>
<polygon fill="black" stroke="black" points="4560.82,-203.52 4570.78,-199.91 4560.74,-196.52 4560.82,-203.52"/>
<text text-anchor="middle" x="770.64" y="-353.78" font-family="Times,serif" font-size="14.00">1</text>
</g>
<!-- wrp.CollectLifeVessel -->
<g id="node7" class="node">
<title>wrp.CollectLifeVessel</title>
<g id="a_node7"><a xlink:href="wrp.CollectLifeVessel.svg" xlink:title="wrp.CollectLifeVessel">
<ellipse fill="green" stroke="black" cx="941.19" cy="-378" rx="110.48" ry="18"/>
<text text-anchor="middle" x="941.19" y="-374.3" font-family="Times,serif" font-size="14.00">wrp.CollectLifeVessel</text>
</a>
</g>
</g>
<!-- wrp.CollectLifeVessel&#45;&gt;wrp.DestroyEntity -->
<g id="edge6" class="edge">
<title>wrp.CollectLifeVessel&#45;&gt;wrp.DestroyEntity</title>
<path fill="none" stroke="black" d="M1017.56,-364.97C1031.71,-363.06 1046.37,-361.29 1060.19,-360 2439.55,-231 4125.63,-204.74 4560.77,-199.97"/>
<polygon fill="black" stroke="black" points="4560.85,-203.47 4570.81,-199.86 4560.77,-196.47 4560.85,-203.47"/>
<text text-anchor="middle" x="1012.56" y="-353.77" font-family="Times,serif" font-size="14.00">1</text>
</g>
<!-- wrp.CollectSubweapon -->
<g id="node8" class="node">
<title>wrp.CollectSubweapon</title>
<g id="a_node8"><a xlink:href="wrp.CollectSubweapon.svg" xlink:title="wrp.CollectSubweapon">
<ellipse fill="green" stroke="black" cx="1187.19" cy="-378" rx="117.78" ry="18"/>
<text text-anchor="middle" x="1187.19" y="-374.3" font-family="Times,serif" font-size="14.00">wrp.CollectSubweapon</text>
</a>
</g>
</g>
<!-- wrp.CollectSubweapon&#45;&gt;wrp.DestroyEntity -->
<g id="edge7" class="edge">
<title>wrp.CollectSubweapon&#45;&gt;wrp.DestroyEntity</title>
<path fill="none" stroke="black" d="M1269.06,-365C1284.05,-363.1 1299.57,-361.33 1314.19,-360 2589.47,-244.24 4145.67,-208.59 4561.11,-200.81"/>
<polygon fill="black" stroke="black" points="4561.37,-204.31 4571.3,-200.62 4561.24,-197.31 4561.37,-204.31"/>
<text text-anchor="middle" x="1264.06" y="-353.8" font-family="Times,serif" font-size="14.00">1</text>
</g>
<!-- wrp.CreateEntityFromCurrentEntity -->
<g id="node9" class="node">
<title>wrp.CreateEntityFromCurrentEntity</title>
<g id="a_node9"><a xlink:href="wrp.CreateEntityFromCurrentEntity.svg" xlink:title="wrp.CreateEntityFromCurrentEntity">
<ellipse fill="green" stroke="black" cx="1505.19" cy="-378" rx="181.97" ry="18"/>
<text text-anchor="middle" x="1505.19" y="-374.3" font-family="Times,serif" font-size="14.00">wrp.CreateEntityFromCurrentEntity</text>
</a>
</g>
</g>
<!-- wrp.CreateEntityFromCurrentEntity&#45;&gt;wrp.DestroyEntity -->
<g id="edge8" class="edge">
<title>wrp.CreateEntityFromCurrentEntity&#45;&gt;wrp.DestroyEntity</title>
<path fill="none" stroke="black" d="M1632.03,-365.09C1653.43,-363.26 1675.44,-361.49 1696.19,-360 2818.52,-279.67 4181.93,-219.48 4563.58,-203.31"/>
<polygon fill="black" stroke="black" points="4563.93,-206.8 4573.77,-202.88 4563.63,-199.81 4563.93,-206.8"/>
<text text-anchor="middle" x="1627.03" y="-353.89" font-family="Times,serif" font-size="14.00">1</text>
</g>
<!-- wrp.CreateEntityFromEntity -->
<g id="node10" class="node">
<title>wrp.CreateEntityFromEntity</title>
<g id="a_node10"><a xlink:href="wrp.CreateEntityFromEntity.svg" xlink:title="wrp.CreateEntityFromEntity">
<ellipse fill="green" stroke="black" cx="1851.19" cy="-378" rx="145.67" ry="18"/>
<text text-anchor="middle" x="1851.19" y="-374.3" font-family="Times,serif" font-size="14.00">wrp.CreateEntityFromEntity</text>
</a>
</g>
</g>
<!-- wrp.CreateEntityFromEntity&#45;&gt;wrp.DestroyEntity -->
<g id="edge9" class="edge">
<title>wrp.CreateEntityFromEntity&#45;&gt;wrp.DestroyEntity</title>
<path fill="none" stroke="black" d="M1953.26,-365.09C1970.9,-363.24 1989.06,-361.46 2006.19,-360 3000.81,-275.42 4208.26,-219.08 4563.96,-203.43"/>
<polygon fill="black" stroke="black" points="4564.14,-206.92 4573.98,-202.99 4563.84,-199.93 4564.14,-206.92"/>
<text text-anchor="middle" x="1948.26" y="-353.89" font-family="Times,serif" font-size="14.00">1</text>
</g>
<!-- wrp.CreateEntityFromLayout -->
<g id="node11" class="node">
<title>wrp.CreateEntityFromLayout</title>
<g id="a_node11"><a xlink:href="wrp.CreateEntityFromLayout.svg" xlink:title="wrp.CreateEntityFromLayout">
<ellipse fill="green" stroke="black" cx="2163.19" cy="-378" rx="148.37" ry="18"/>
<text text-anchor="middle" x="2163.19" y="-374.3" font-family="Times,serif" font-size="14.00">wrp.CreateEntityFromLayout</text>
</a>
</g>
</g>
<!-- wrp.CreateEntityFromLayout&#45;&gt;wrp.DestroyEntity -->
<g id="edge10" class="edge">
<title>wrp.CreateEntityFromLayout&#45;&gt;wrp.DestroyEntity</title>
<path fill="none" stroke="black" d="M2267.43,-365.13C2285.03,-363.29 2303.12,-361.51 2320.19,-360 3187.76,-283.3 4238.51,-222.67 4565.27,-204.55"/>
<polygon fill="black" stroke="black" points="4565.87,-208.03 4575.66,-203.98 4565.48,-201.04 4565.87,-208.03"/>
<text text-anchor="middle" x="2262.43" y="-353.93" font-family="Times,serif" font-size="14.00">1</text>
</g>
<!-- wrp.DestroyCurrentEntity -->
<g id="node12" class="node">
<title>wrp.DestroyCurrentEntity</title>
<g id="a_node12"><a xlink:href="wrp.DestroyCurrentEntity.svg" xlink:title="wrp.DestroyCurrentEntity">
<ellipse fill="green" stroke="black" cx="2463.19" cy="-378" rx="133.78" ry="18"/>
<text text-anchor="middle" x="2463.19" y="-374.3" font-family="Times,serif" font-size="14.00">wrp.DestroyCurrentEntity</text>
</a>
</g>
</g>
<!-- wrp.DestroyCurrentEntity&#45;&gt;wrp.DestroyEntity -->
<g id="edge11" class="edge">
<title>wrp.DestroyCurrentEntity&#45;&gt;wrp.DestroyEntity</title>
<path fill="none" stroke="black" d="M2557.75,-365.21C2573.9,-363.36 2590.52,-361.54 2606.19,-360 3358.5,-285.93 4268.04,-224.76 4566.81,-205.4"/>
<polygon fill="black" stroke="black" points="4567.43,-208.87 4577.18,-204.73 4566.98,-201.88 4567.43,-208.87"/>
<text text-anchor="middle" x="2552.75" y="-354.01" font-family="Times,serif" font-size="14.00">1</text>
</g>
<!-- wrp.DestroyEntitiesFromIndex -->
<g id="node13" class="node">
<title>wrp.DestroyEntitiesFromIndex</title>
<g id="a_node13"><a xlink:href="wrp.DestroyEntitiesFromIndex.svg" xlink:title="wrp.DestroyEntitiesFromIndex">
<ellipse fill="green" stroke="black" cx="2770.19" cy="-378" rx="155.17" ry="18"/>
<text text-anchor="middle" x="2770.19" y="-374.3" font-family="Times,serif" font-size="14.00">wrp.DestroyEntitiesFromIndex</text>
</a>
</g>
</g>
<!-- wrp.DestroyEntitiesFromIndex&#45;&gt;wrp.DestroyEntity -->
<g id="edge12" class="edge">
<title>wrp.DestroyEntitiesFromIndex&#45;&gt;wrp.DestroyEntity</title>
<path fill="none" stroke="black" d="M2880.89,-365.36C2898.71,-363.54 2916.96,-361.69 2934.19,-360 3558.48,-298.65 4309.92,-230.92 4571.73,-207.51"/>
<polygon fill="black" stroke="black" points="4572.31,-210.97 4581.96,-206.59 4571.69,-204 4572.31,-210.97"/>
<text text-anchor="middle" x="2875.89" y="-354.16" font-family="Times,serif" font-size="14.00">1</text>
</g>
<!-- wrp.EntityBigRedFireball -->
<g id="node14" class="node">
<title>wrp.EntityBigRedFireball</title>
<g id="a_node14"><a xlink:href="wrp.EntityBigRedFireball.svg" xlink:title="wrp.EntityBigRedFireball">
<ellipse fill="green" stroke="black" cx="3073.19" cy="-378" rx="129.98" ry="18"/>
<text text-anchor="middle" x="3073.19" y="-374.3" font-family="Times,serif" font-size="14.00">wrp.EntityBigRedFireball</text>
</a>
</g>
</g>
<!-- wrp.EntityBigRedFireball&#45;&gt;wrp.DestroyEntity -->
<g id="edge13" class="edge">
<title>wrp.EntityBigRedFireball&#45;&gt;wrp.DestroyEntity</title>
<path fill="none" stroke="black" d="M3166.64,-365.42C3181.86,-363.58 3197.46,-361.72 3212.19,-360 3727.4,-299.99 4345.89,-233.34 4575.53,-208.77"/>
<polygon fill="black" stroke="black" points="4575.94,-212.25 4585.51,-207.71 4575.2,-205.29 4575.94,-212.25"/>
<text text-anchor="middle" x="3161.64" y="-354.22" font-family="Times,serif" font-size="14.00">1</text>
</g>
<!-- wrp.EntityDamageDisplay -->
<g id="node15" class="node">
<title>wrp.EntityDamageDisplay</title>
<g id="a_node15"><a xlink:href="wrp.EntityDamageDisplay.svg" xlink:title="wrp.EntityDamageDisplay">
<ellipse fill="green" stroke="black" cx="3354.19" cy="-378" rx="133.48" ry="18"/>
<text text-anchor="middle" x="3354.19" y="-374.3" font-family="Times,serif" font-size="14.00">wrp.EntityDamageDisplay</text>
</a>
</g>
</g>
<!-- wrp.EntityDamageDisplay&#45;&gt;wrp.DestroyEntity -->
<g id="edge14" class="edge">
<title>wrp.EntityDamageDisplay&#45;&gt;wrp.DestroyEntity</title>
<path fill="none" stroke="black" d="M3444.7,-364.73C3686.54,-331.95 4345.39,-242.63 4581.54,-210.61"/>
<polygon fill="black" stroke="black" points="4582.02,-214.08 4591.45,-209.27 4581.07,-207.14 4582.02,-214.08"/>
<text text-anchor="middle" x="3439.7" y="-353.53" font-family="Times,serif" font-size="14.00">1</text>
</g>
<!-- wrp.EntityEnemyBlood -->
<g id="node16" class="node">
<title>wrp.EntityEnemyBlood</title>
<g id="a_node16"><a xlink:href="wrp.EntityEnemyBlood.svg" xlink:title="wrp.EntityEnemyBlood">
<ellipse fill="green" stroke="black" cx="3624.19" cy="-378" rx="118.88" ry="18"/>
<text text-anchor="middle" x="3624.19" y="-374.3" font-family="Times,serif" font-size="14.00">wrp.EntityEnemyBlood</text>
</a>
</g>
</g>
<!-- wrp.EntityEnemyBlood&#45;&gt;wrp.DestroyEntity -->
<g id="edge15" class="edge">
<title>wrp.EntityEnemyBlood&#45;&gt;wrp.DestroyEntity</title>
<path fill="none" stroke="black" d="M3700.04,-364.06C3891.72,-331.34 4394.08,-245.61 4588.64,-212.41"/>
<polygon fill="black" stroke="black" points="4589.24,-215.85 4598.51,-210.72 4588.06,-208.95 4589.24,-215.85"/>
<text text-anchor="middle" x="3695.04" y="-352.86" font-family="Times,serif" font-size="14.00">1</text>
</g>
<!-- wrp.EntityEquipItemDrop -->
<g id="node17" class="node">
<title>wrp.EntityEquipItemDrop</title>
<g id="a_node17"><a xlink:href="wrp.EntityEquipItemDrop.svg" xlink:title="wrp.EntityEquipItemDrop">
<ellipse fill="green" stroke="black" cx="3893.19" cy="-378" rx="131.88" ry="18"/>
<text text-anchor="middle" x="3893.19" y="-374.3" font-family="Times,serif" font-size="14.00">wrp.EntityEquipItemDrop</text>
</a>
</g>
</g>
<!-- wrp.EntityEquipItemDrop&#45;&gt;wrp.DestroyEntity -->
<g id="edge16" class="edge">
<title>wrp.EntityEquipItemDrop&#45;&gt;wrp.DestroyEntity</title>
<path fill="none" stroke="black" d="M3957.52,-362.21C4101.94,-328.99 4450.82,-248.76 4598.9,-214.71"/>
<polygon fill="black" stroke="black" points="4599.82,-218.08 4608.78,-212.43 4598.25,-211.26 4599.82,-218.08"/>
<text text-anchor="middle" x="3952.52" y="-351.01" font-family="Times,serif" font-size="14.00">2</text>
</g>
<!-- wrp.EntityExplosion -->
<g id="node18" class="node">
<title>wrp.EntityExplosion</title>
<g id="a_node18"><a xlink:href="wrp.EntityExplosion.svg" xlink:title="wrp.EntityExplosion">
<ellipse fill="green" stroke="black" cx="4149.19" cy="-378" rx="105.88" ry="18"/>
<text text-anchor="middle" x="4149.19" y="-374.3" font-family="Times,serif" font-size="14.00">wrp.EntityExplosion</text>
</a>
</g>
</g>
<!-- wrp.EntityExplosion&#45;&gt;wrp.DestroyEntity -->
<g id="edge17" class="edge">
<title>wrp.EntityExplosion&#45;&gt;wrp.DestroyEntity</title>
<path fill="none" stroke="black" d="M4193.81,-361.67C4288.9,-328.99 4511.21,-252.6 4613.7,-217.38"/>
<polygon fill="black" stroke="black" points="4614.92,-220.66 4623.24,-214.1 4612.64,-214.04 4614.92,-220.66"/>
<text text-anchor="middle" x="4188.81" y="-350.47" font-family="Times,serif" font-size="14.00">1</text>
</g>
<!-- wrp.EntityExplosionSpawn -->
<g id="node19" class="node">
<title>wrp.EntityExplosionSpawn</title>
<g id="a_node19"><a xlink:href="wrp.EntityExplosionSpawn.svg" xlink:title="wrp.EntityExplosionSpawn">
<ellipse fill="green" stroke="black" cx="4410.19" cy="-378" rx="137.28" ry="18"/>
<text text-anchor="middle" x="4410.19" y="-374.3" font-family="Times,serif" font-size="14.00">wrp.EntityExplosionSpawn</text>
</a>
</g>
</g>
<!-- wrp.EntityExplosionSpawn&#45;&gt;wrp.DestroyEntity -->
<g id="edge18" class="edge">
<title>wrp.EntityExplosionSpawn&#45;&gt;wrp.DestroyEntity</title>
<path fill="none" stroke="black" d="M4434.37,-360.25C4480.89,-328.04 4582.85,-257.42 4635.03,-221.27"/>
<polygon fill="black" stroke="black" points="4637.04,-224.14 4643.27,-215.57 4633.05,-218.39 4637.04,-224.14"/>
<text text-anchor="middle" x="4429.37" y="-349.05" font-family="Times,serif" font-size="14.00">1</text>
</g>
<!-- wrp.EntityGreyPuff -->
<g id="node20" class="node">
<title>wrp.EntityGreyPuff</title>
<g id="a_node20"><a xlink:href="wrp.EntityGreyPuff.svg" xlink:title="wrp.EntityGreyPuff">
<ellipse fill="green" stroke="black" cx="4667.19" cy="-378" rx="101.28" ry="18"/>
<text text-anchor="middle" x="4667.19" y="-374.3" font-family="Times,serif" font-size="14.00">wrp.EntityGreyPuff</text>
</a>
</g>
</g>
<!-- wrp.EntityGreyPuff&#45;&gt;wrp.DestroyEntity -->
<g id="edge19" class="edge">
<title>wrp.EntityGreyPuff&#45;&gt;wrp.DestroyEntity</title>
<path fill="none" stroke="black" d="M4667.19,-359.93C4667.19,-328.97 4667.19,-263.3 4667.19,-226.13"/>
<polygon fill="black" stroke="black" points="4670.69,-226.02 4667.19,-216.02 4663.69,-226.02 4670.69,-226.02"/>
<text text-anchor="middle" x="4662.19" y="-348.73" font-family="Times,serif" font-size="14.00">1</text>
</g>
<!-- wrp.EntityHeartDrop -->
<g id="node21" class="node">
<title>wrp.EntityHeartDrop</title>
<g id="a_node21"><a xlink:href="wrp.EntityHeartDrop.svg" xlink:title="wrp.EntityHeartDrop">
<ellipse fill="green" stroke="black" cx="4897.19" cy="-378" rx="110.48" ry="18"/>
<text text-anchor="middle" x="4897.19" y="-374.3" font-family="Times,serif" font-size="14.00">wrp.EntityHeartDrop</text>
</a>
</g>
</g>
<!-- wrp.EntityHeartDrop&#45;&gt;wrp.DestroyEntity -->
<g id="edge20" class="edge">
<title>wrp.EntityHeartDrop&#45;&gt;wrp.DestroyEntity</title>
<path fill="none" stroke="black" d="M4875.55,-360.25C4834.1,-328.17 4743.43,-258 4696.55,-221.72"/>
<polygon fill="black" stroke="black" points="4698.66,-218.92 4688.61,-215.57 4694.37,-224.46 4698.66,-218.92"/>
<text text-anchor="middle" x="4870.55" y="-349.05" font-family="Times,serif" font-size="14.00">1</text>
</g>
<!-- wrp.EntityIntenseExplosion -->
<g id="node22" class="node">
<title>wrp.EntityIntenseExplosion</title>
<g id="a_node22"><a xlink:href="wrp.EntityIntenseExplosion.svg" xlink:title="wrp.EntityIntenseExplosion">
<ellipse fill="green" stroke="black" cx="5166.19" cy="-378" rx="140.28" ry="18"/>
<text text-anchor="middle" x="5166.19" y="-374.3" font-family="Times,serif" font-size="14.00">wrp.EntityIntenseExplosion</text>
</a>
</g>
</g>
<!-- wrp.EntityIntenseExplosion&#45;&gt;wrp.DestroyEntity -->
<g id="edge21" class="edge">
<title>wrp.EntityIntenseExplosion&#45;&gt;wrp.DestroyEntity</title>
<path fill="none" stroke="black" d="M5121.03,-360.89C5028.39,-327.84 4817.35,-252.56 4719.19,-217.55"/>
<polygon fill="black" stroke="black" points="4720.36,-214.25 4709.77,-214.19 4718.01,-220.84 4720.36,-214.25"/>
<text text-anchor="middle" x="5116.03" y="-349.69" font-family="Times,serif" font-size="14.00">1</text>
</g>
<!-- wrp.EntityMessageBox -->
<g id="node23" class="node">
<title>wrp.EntityMessageBox</title>
<g id="a_node23"><a xlink:href="wrp.EntityMessageBox.svg" xlink:title="wrp.EntityMessageBox">
<ellipse fill="green" stroke="black" cx="5443.19" cy="-378" rx="118.88" ry="18"/>
<text text-anchor="middle" x="5443.19" y="-374.3" font-family="Times,serif" font-size="14.00">wrp.EntityMessageBox</text>
</a>
</g>
</g>
<!-- wrp.EntityMessageBox&#45;&gt;wrp.DestroyEntity -->
<g id="edge22" class="edge">
<title>wrp.EntityMessageBox&#45;&gt;wrp.DestroyEntity</title>
<path fill="none" stroke="black" d="M5380.67,-362.66C5237.09,-329.72 4884.65,-248.88 4735.57,-214.68"/>
<polygon fill="black" stroke="black" points="4736.15,-211.23 4725.62,-212.4 4734.58,-218.05 4736.15,-211.23"/>
<text text-anchor="middle" x="5375.67" y="-351.46" font-family="Times,serif" font-size="14.00">1</text>
</g>
<!-- wrp.EntityOlroxDrool -->
<g id="node24" class="node">
<title>wrp.EntityOlroxDrool</title>
<g id="a_node24"><a xlink:href="wrp.EntityOlroxDrool.svg" xlink:title="wrp.EntityOlroxDrool">
<ellipse fill="green" stroke="black" cx="5691.19" cy="-378" rx="111.28" ry="18"/>
<text text-anchor="middle" x="5691.19" y="-374.3" font-family="Times,serif" font-size="14.00">wrp.EntityOlroxDrool</text>
</a>
</g>
</g>
<!-- wrp.EntityOlroxDrool&#45;&gt;wrp.DestroyEntity -->
<g id="edge23" class="edge">
<title>wrp.EntityOlroxDrool&#45;&gt;wrp.DestroyEntity</title>
<path fill="none" stroke="black" d="M5618.37,-364.34C5431.75,-331.9 4937.56,-246 4745.28,-212.57"/>
<polygon fill="black" stroke="black" points="4745.71,-209.1 4735.26,-210.83 4744.51,-215.99 4745.71,-209.1"/>
<text text-anchor="middle" x="5613.37" y="-353.14" font-family="Times,serif" font-size="14.00">1</text>
</g>
<!-- wrp.EntityPrizeDrop -->
<g id="node25" class="node">
<title>wrp.EntityPrizeDrop</title>
<g id="a_node25"><a xlink:href="wrp.EntityPrizeDrop.svg" xlink:title="wrp.EntityPrizeDrop">
<ellipse fill="green" stroke="black" cx="5927.19" cy="-378" rx="107.48" ry="18"/>
<text text-anchor="middle" x="5927.19" y="-374.3" font-family="Times,serif" font-size="14.00">wrp.EntityPrizeDrop</text>
</a>
</g>
</g>
<!-- wrp.EntityPrizeDrop&#45;&gt;wrp.DestroyEntity -->
<g id="edge24" class="edge">
<title>wrp.EntityPrizeDrop&#45;&gt;wrp.DestroyEntity</title>
<path fill="none" stroke="black" d="M5849.52,-365.55C5836.72,-363.69 5823.58,-361.78 5811.19,-360 5415.26,-303.13 4941.93,-237.16 4752.09,-210.78"/>
<polygon fill="black" stroke="black" points="4752.56,-207.31 4742.17,-209.4 4751.59,-214.24 4752.56,-207.31"/>
<text text-anchor="middle" x="5844.52" y="-354.35" font-family="Times,serif" font-size="14.00">2</text>
</g>
<!-- wrp.EntityRedDoor -->
<g id="node26" class="node">
<title>wrp.EntityRedDoor</title>
<g id="a_node26"><a xlink:href="wrp.EntityRedDoor.svg" xlink:title="wrp.EntityRedDoor">
<ellipse fill="green" stroke="black" cx="6153.19" cy="-378" rx="100.98" ry="18"/>
<text text-anchor="middle" x="6153.19" y="-374.3" font-family="Times,serif" font-size="14.00">wrp.EntityRedDoor</text>
</a>
</g>
</g>
<!-- wrp.EntityRedDoor&#45;&gt;wrp.DestroyEntity -->
<g id="edge25" class="edge">
<title>wrp.EntityRedDoor&#45;&gt;wrp.DestroyEntity</title>
<path fill="none" stroke="black" d="M6080.76,-365.42C6068.25,-363.53 6055.35,-361.65 6043.19,-360 5560.83,-294.53 4981.13,-231.95 4759.49,-208.61"/>
<polygon fill="black" stroke="black" points="4759.84,-205.13 4749.53,-207.56 4759.11,-212.09 4759.84,-205.13"/>
<text text-anchor="middle" x="6075.76" y="-354.22" font-family="Times,serif" font-size="14.00">1</text>
</g>
<!-- wrp.EntityRelicOrb -->
<g id="node27" class="node">
<title>wrp.EntityRelicOrb</title>
<g id="a_node27"><a xlink:href="wrp.EntityRelicOrb.svg" xlink:title="wrp.EntityRelicOrb">
<ellipse fill="green" stroke="black" cx="6372.19" cy="-378" rx="100.98" ry="18"/>
<text text-anchor="middle" x="6372.19" y="-374.3" font-family="Times,serif" font-size="14.00">wrp.EntityRelicOrb</text>
</a>
</g>
</g>
<!-- wrp.EntityRelicOrb&#45;&gt;wrp.DestroyEntity -->
<g id="edge26" class="edge">
<title>wrp.EntityRelicOrb&#45;&gt;wrp.DestroyEntity</title>
<path fill="none" stroke="black" d="M6300.74,-365.29C6288.24,-363.4 6275.35,-361.56 6263.19,-360 5696.5,-287.28 5013.1,-227.72 4763.99,-206.92"/>
<polygon fill="black" stroke="black" points="4764.14,-203.42 4753.88,-206.08 4763.56,-210.4 4764.14,-203.42"/>
<text text-anchor="middle" x="6295.74" y="-354.09" font-family="Times,serif" font-size="14.00">1</text>
</g>
<!-- wrp.EntitySoulStealOrb -->
<g id="node28" class="node">
<title>wrp.EntitySoulStealOrb</title>
<g id="a_node28"><a xlink:href="wrp.EntitySoulStealOrb.svg" xlink:title="wrp.EntitySoulStealOrb">
<ellipse fill="green" stroke="black" cx="6613.19" cy="-378" rx="122.38" ry="18"/>
<text text-anchor="middle" x="6613.19" y="-374.3" font-family="Times,serif" font-size="14.00">wrp.EntitySoulStealOrb</text>
</a>
</g>
</g>
<!-- wrp.EntitySoulStealOrb&#45;&gt;wrp.DestroyEntity -->
<g id="edge27" class="edge">
<title>wrp.EntitySoulStealOrb&#45;&gt;wrp.DestroyEntity</title>
<path fill="none" stroke="black" d="M6526.58,-365.26C6511.78,-363.39 6496.56,-361.57 6482.19,-360 5828.24,-288.59 5039.09,-226.96 4765.9,-206.34"/>
<polygon fill="black" stroke="black" points="4765.85,-202.83 4755.61,-205.56 4765.32,-209.81 4765.85,-202.83"/>
<text text-anchor="middle" x="6521.58" y="-354.06" font-family="Times,serif" font-size="14.00">1</text>
</g>
<!-- wrp.EntityStageNamePopup -->
<g id="node29" class="node">
<title>wrp.EntityStageNamePopup</title>
<g id="a_node29"><a xlink:href="wrp.EntityStageNamePopup.svg" xlink:title="wrp.EntityStageNamePopup">
<ellipse fill="green" stroke="black" cx="6897.19" cy="-378" rx="143.77" ry="18"/>
<text text-anchor="middle" x="6897.19" y="-374.3" font-family="Times,serif" font-size="14.00">wrp.EntityStageNamePopup</text>
</a>
</g>
</g>
<!-- wrp.EntityStageNamePopup&#45;&gt;wrp.DestroyEntity -->
<g id="edge28" class="edge">
<title>wrp.EntityStageNamePopup&#45;&gt;wrp.DestroyEntity</title>
<path fill="none" stroke="black" d="M6795.6,-365.23C6778.45,-363.38 6760.82,-361.57 6744.19,-360 5984.89,-288.41 5067.2,-225.52 4767.27,-205.57"/>
<polygon fill="black" stroke="black" points="4767.07,-202.05 4756.86,-204.88 4766.61,-209.03 4767.07,-202.05"/>
<text text-anchor="middle" x="6790.6" y="-354.03" font-family="Times,serif" font-size="14.00">1</text>
</g>
<!-- wrp.EntityUnkId13 -->
<g id="node30" class="node">
<title>wrp.EntityUnkId13</title>
<g id="a_node30"><a xlink:href="wrp.EntityUnkId13.svg" xlink:title="wrp.EntityUnkId13">
<ellipse fill="green" stroke="black" cx="7159.19" cy="-378" rx="100.98" ry="18"/>
<text text-anchor="middle" x="7159.19" y="-374.3" font-family="Times,serif" font-size="14.00">wrp.EntityUnkId13</text>
</a>
</g>
</g>
<!-- wrp.EntityUnkId13&#45;&gt;wrp.DestroyEntity -->
<g id="edge29" class="edge">
<title>wrp.EntityUnkId13&#45;&gt;wrp.DestroyEntity</title>
<path fill="none" stroke="black" d="M7088.66,-365.08C7075.88,-363.18 7062.66,-361.39 7050.19,-360 6171.73,-262.01 5103.95,-215.58 4771.23,-202.78"/>
<polygon fill="black" stroke="black" points="4771.25,-199.28 4761.12,-202.4 4770.98,-206.28 4771.25,-199.28"/>
<text text-anchor="middle" x="7083.66" y="-353.88" font-family="Times,serif" font-size="14.00">1</text>
</g>
<!-- wrp.EntityUnkId14 -->
<g id="node31" class="node">
<title>wrp.EntityUnkId14</title>
<g id="a_node31"><a xlink:href="wrp.EntityUnkId14.svg" xlink:title="wrp.EntityUnkId14">
<ellipse fill="green" stroke="black" cx="7378.19" cy="-378" rx="100.98" ry="18"/>
<text text-anchor="middle" x="7378.19" y="-374.3" font-family="Times,serif" font-size="14.00">wrp.EntityUnkId14</text>
</a>
</g>
</g>
<!-- wrp.EntityUnkId14&#45;&gt;wrp.DestroyEntity -->
<g id="edge30" class="edge">
<title>wrp.EntityUnkId14&#45;&gt;wrp.DestroyEntity</title>
<path fill="none" stroke="black" d="M7307.96,-365.06C7295.09,-363.16 7281.76,-361.37 7269.19,-360 6302.61,-254.95 5126.02,-212.83 4772.49,-202"/>
<polygon fill="black" stroke="black" points="4772.37,-198.5 4762.27,-201.69 4772.16,-205.49 4772.37,-198.5"/>
<text text-anchor="middle" x="7302.96" y="-353.86" font-family="Times,serif" font-size="14.00">1</text>
</g>
<!-- wrp.EntityWarpSmallRocks -->
<g id="node32" class="node">
<title>wrp.EntityWarpSmallRocks</title>
<g id="a_node32"><a xlink:href="wrp.EntityWarpSmallRocks.svg" xlink:title="wrp.EntityWarpSmallRocks">
<ellipse fill="green" stroke="black" cx="7635.19" cy="-378" rx="138.38" ry="18"/>
<text text-anchor="middle" x="7635.19" y="-374.3" font-family="Times,serif" font-size="14.00">wrp.EntityWarpSmallRocks</text>
</a>
</g>
</g>
<!-- wrp.EntityWarpSmallRocks&#45;&gt;wrp.DestroyEntity -->
<g id="edge31" class="edge">
<title>wrp.EntityWarpSmallRocks&#45;&gt;wrp.DestroyEntity</title>
<path fill="none" stroke="black" d="M7538.8,-365.04C7521.95,-363.18 7504.57,-361.41 7488.19,-360 6429.3,-268.63 5142.16,-216.6 4771.56,-202.76"/>
<polygon fill="black" stroke="black" points="4771.52,-199.26 4761.39,-202.39 4771.25,-206.26 4771.52,-199.26"/>
<text text-anchor="middle" x="7533.8" y="-353.84" font-family="Times,serif" font-size="14.00">1</text>
</g>
<!-- wrp.HitDetection -->
<g id="node33" class="node">
<title>wrp.HitDetection</title>
<g id="a_node33"><a xlink:href="wrp.HitDetection.svg" xlink:title="wrp.HitDetection">
<ellipse fill="green" stroke="black" cx="7882.19" cy="-378" rx="90.98" ry="18"/>
<text text-anchor="middle" x="7882.19" y="-374.3" font-family="Times,serif" font-size="14.00">wrp.HitDetection</text>
</a>
</g>
</g>
<!-- wrp.HitDetection&#45;&gt;wrp.DestroyEntity -->
<g id="edge32" class="edge">
<title>wrp.HitDetection&#45;&gt;wrp.DestroyEntity</title>
<path fill="none" stroke="black" d="M7818.6,-365.05C7806.54,-363.1 7794.01,-361.31 7782.19,-360 6607.5,-230.24 5171.77,-204.71 4773.82,-200.01"/>
<polygon fill="black" stroke="black" points="4773.8,-196.51 4763.76,-199.89 4773.72,-203.5 4773.8,-196.51"/>
<text text-anchor="middle" x="7813.6" y="-353.85" font-family="Times,serif" font-size="14.00">1</text>
</g>
<!-- wrp.InitializeUnkEntity -->
<g id="node34" class="node">
<title>wrp.InitializeUnkEntity</title>
<g id="a_node34"><a xlink:href="wrp.InitializeUnkEntity.svg" xlink:title="wrp.InitializeUnkEntity">
<ellipse fill="green" stroke="black" cx="8111.19" cy="-378" rx="120.48" ry="18"/>
<text text-anchor="middle" x="8111.19" y="-374.3" font-family="Times,serif" font-size="14.00">wrp.InitializeUnkEntity</text>
</a>
</g>
</g>
<!-- wrp.InitializeUnkEntity&#45;&gt;wrp.DestroyEntity -->
<g id="edge33" class="edge">
<title>wrp.InitializeUnkEntity&#45;&gt;wrp.DestroyEntity</title>
<path fill="none" stroke="black" d="M8027.69,-364.97C8012.57,-363.09 7996.93,-361.33 7982.19,-360 6722.31,-246.59 5185.37,-209.29 4773.11,-200.97"/>
<polygon fill="black" stroke="black" points="4773.06,-197.46 4763,-200.76 4772.92,-204.46 4773.06,-197.46"/>
<text text-anchor="middle" x="8022.69" y="-353.77" font-family="Times,serif" font-size="14.00">1</text>
</g>
<!-- wrp.MakeEntityFromId -->
<g id="node35" class="node">
<title>wrp.MakeEntityFromId</title>
<g id="a_node35"><a xlink:href="wrp.MakeEntityFromId.svg" xlink:title="wrp.MakeEntityFromId">
<ellipse fill="green" stroke="black" cx="8369.19" cy="-378" rx="120.48" ry="18"/>
<text text-anchor="middle" x="8369.19" y="-374.3" font-family="Times,serif" font-size="14.00">wrp.MakeEntityFromId</text>
</a>
</g>
</g>
<!-- wrp.MakeEntityFromId&#45;&gt;wrp.DestroyEntity -->
<g id="edge34" class="edge">
<title>wrp.MakeEntityFromId&#45;&gt;wrp.DestroyEntity</title>
<path fill="none" stroke="black" d="M8286.04,-364.97C8270.81,-363.08 8255.04,-361.31 8240.19,-360 6874.27,-239.45 5206.17,-207.07 4773.62,-200.46"/>
<polygon fill="black" stroke="black" points="4773.38,-196.95 4763.33,-200.3 4773.28,-203.95 4773.38,-196.95"/>
<text text-anchor="middle" x="8281.04" y="-353.77" font-family="Times,serif" font-size="14.00">1</text>
</g>
<!-- wrp.ReplaceBreakableWithItemDrop -->
<g id="node36" class="node">
<title>wrp.ReplaceBreakableWithItemDrop</title>
<g id="a_node36"><a xlink:href="wrp.ReplaceBreakableWithItemDrop.svg" xlink:title="wrp.ReplaceBreakableWithItemDrop">
<ellipse fill="green" stroke="black" cx="8689.19" cy="-378" rx="181.17" ry="18"/>
<text text-anchor="middle" x="8689.19" y="-374.3" font-family="Times,serif" font-size="14.00">wrp.ReplaceBreakableWithItemDrop</text>
</a>
</g>
</g>
<!-- wrp.ReplaceBreakableWithItemDrop&#45;&gt;wrp.DestroyEntity -->
<g id="edge35" class="edge">
<title>wrp.ReplaceBreakableWithItemDrop&#45;&gt;wrp.DestroyEntity</title>
<path fill="none" stroke="black" d="M8563.66,-364.98C8541.84,-363.14 8519.37,-361.39 8498.19,-360 7021.9,-263.33 5221.58,-213.17 4772.46,-201.62"/>
<polygon fill="black" stroke="black" points="4772.51,-198.12 4762.42,-201.36 4772.33,-205.12 4772.51,-198.12"/>
<text text-anchor="middle" x="8558.66" y="-353.78" font-family="Times,serif" font-size="14.00">1</text>
</g>
<!-- wrp.Update -->
<g id="node37" class="node">
<title>wrp.Update</title>
<g id="a_node37"><a xlink:href="wrp.Update.svg" xlink:title="wrp.Update">
<ellipse fill="green" stroke="black" cx="8954.19" cy="-378" rx="65.79" ry="18"/>
<text text-anchor="middle" x="8954.19" y="-374.3" font-family="Times,serif" font-size="14.00">wrp.Update</text>
</a>
</g>
</g>
<!-- wrp.Update&#45;&gt;wrp.DestroyEntity -->
<g id="edge36" class="edge">
<title>wrp.Update&#45;&gt;wrp.DestroyEntity</title>
<path fill="none" stroke="black" d="M8908.02,-365.13C8898.55,-363.09 8888.59,-361.23 8879.19,-360 8050.12,-251.14 5344.61,-208.34 4773.61,-200.4"/>
<polygon fill="black" stroke="black" points="4773.38,-196.9 4763.33,-200.26 4773.28,-203.9 4773.38,-196.9"/>
<text text-anchor="middle" x="8903.02" y="-353.93" font-family="Times,serif" font-size="14.00">1</text>
</g>
</g>
</svg>
