<?xml version="1.0" encoding="UTF-8" standalone="no"?>
<!DOCTYPE svg PUBLIC "-//W3C//DTD SVG 1.1//EN"
 "http://www.w3.org/Graphics/SVG/1.1/DTD/svg11.dtd">
<!-- Generated by graphviz version 2.43.0 (0)
 -->
<!-- Title: wrp.AnimateEntity Pages: 1 -->
<svg width="2572pt" height="224pt"
 viewBox="0.00 0.00 2572.18 224.00" xmlns="http://www.w3.org/2000/svg" xmlns:xlink="http://www.w3.org/1999/xlink">
<g id="graph0" class="graph" transform="scale(1 1) rotate(0) translate(4 220)">
<title>wrp.AnimateEntity</title>
<polygon fill="white" stroke="transparent" points="-4,4 -4,-220 2568.18,-220 2568.18,4 -4,4"/>
<!-- wrp.AnimateEntity -->
<g id="node1" class="node">
<title>wrp.AnimateEntity</title>
<ellipse fill="green" stroke="black" cx="1324.54" cy="-18" rx="98.58" ry="18"/>
<text text-anchor="middle" x="1324.54" y="-14.3" font-family="Times,serif" font-size="14.00">wrp.AnimateEntity</text>
</g>
<!-- rwrp.EntityBigRedFireball -->
<g id="node2" class="node">
<title>rwrp.EntityBigRedFireball</title>
<g id="a_node2"><a xlink:href="rwrp.EntityBigRedFireball.svg" xlink:title="rwrp.EntityBigRedFireball">
<ellipse fill="green" stroke="black" cx="134.54" cy="-198" rx="134.58" ry="18"/>
<text text-anchor="middle" x="134.54" y="-194.3" font-family="Times,serif" font-size="14.00">rwrp.EntityBigRedFireball</text>
</a>
</g>
</g>
<!-- rwrp.EntityBigRedFireball&#45;&gt;wrp.AnimateEntity -->
<g id="edge1" class="edge">
<title>rwrp.EntityBigRedFireball&#45;&gt;wrp.AnimateEntity</title>
<path fill="none" stroke="black" d="M220.6,-184.13C440.8,-151.19 1022.62,-64.16 1240.54,-31.56"/>
<polygon fill="black" stroke="black" points="1241.27,-34.99 1250.64,-30.05 1240.24,-28.07 1241.27,-34.99"/>
<text text-anchor="middle" x="215.6" y="-172.93" font-family="Times,serif" font-size="14.00">1</text>
</g>
<!-- rwrp.EntitySoulStealOrb -->
<g id="node3" class="node">
<title>rwrp.EntitySoulStealOrb</title>
<g id="a_node3"><a xlink:href="rwrp.EntitySoulStealOrb.svg" xlink:title="rwrp.EntitySoulStealOrb">
<ellipse fill="green" stroke="black" cx="413.54" cy="-198" rx="126.98" ry="18"/>
<text text-anchor="middle" x="413.54" y="-194.3" font-family="Times,serif" font-size="14.00">rwrp.EntitySoulStealOrb</text>
</a>
</g>
</g>
<!-- rwrp.EntitySoulStealOrb&#45;&gt;wrp.AnimateEntity -->
<g id="edge2" class="edge">
<title>rwrp.EntitySoulStealOrb&#45;&gt;wrp.AnimateEntity</title>
<path fill="none" stroke="black" d="M485.02,-183.03C654.15,-149.99 1077.57,-67.26 1249.86,-33.59"/>
<polygon fill="black" stroke="black" points="1250.71,-36.99 1259.85,-31.64 1249.36,-30.12 1250.71,-36.99"/>
<text text-anchor="middle" x="480.02" y="-171.83" font-family="Times,serif" font-size="14.00">1</text>
</g>
<!-- rwrp.InitializeUnkEntity -->
<g id="node4" class="node">
<title>rwrp.InitializeUnkEntity</title>
<g id="a_node4"><a xlink:href="rwrp.InitializeUnkEntity.svg" xlink:title="rwrp.InitializeUnkEntity">
<ellipse fill="green" stroke="black" cx="682.54" cy="-198" rx="124.28" ry="18"/>
<text text-anchor="middle" x="682.54" y="-194.3" font-family="Times,serif" font-size="14.00">rwrp.InitializeUnkEntity</text>
</a>
</g>
</g>
<!-- rwrp.InitializeUnkEntity&#45;&gt;wrp.AnimateEntity -->
<g id="edge3" class="edge">
<title>rwrp.InitializeUnkEntity&#45;&gt;wrp.AnimateEntity</title>
<path fill="none" stroke="black" d="M737.27,-181.82C856.25,-148.84 1137.77,-70.78 1262.83,-36.11"/>
<polygon fill="black" stroke="black" points="1263.94,-39.43 1272.64,-33.39 1262.07,-32.69 1263.94,-39.43"/>
<text text-anchor="middle" x="732.27" y="-170.62" font-family="Times,serif" font-size="14.00">1</text>
</g>
<!-- wrp.EntityBigRedFireball -->
<g id="node5" class="node">
<title>wrp.EntityBigRedFireball</title>
<g id="a_node5"><a xlink:href="wrp.EntityBigRedFireball.svg" xlink:title="wrp.EntityBigRedFireball">
<ellipse fill="green" stroke="black" cx="954.54" cy="-198" rx="129.98" ry="18"/>
<text text-anchor="middle" x="954.54" y="-194.3" font-family="Times,serif" font-size="14.00">wrp.EntityBigRedFireball</text>
</a>
</g>
</g>
<!-- wrp.EntityBigRedFireball&#45;&gt;wrp.AnimateEntity -->
<g id="edge4" class="edge">
<title>wrp.EntityBigRedFireball&#45;&gt;wrp.AnimateEntity</title>
<path fill="none" stroke="black" d="M988.68,-180.57C1056.54,-147.93 1208.16,-74.99 1282.21,-39.36"/>
<polygon fill="black" stroke="black" points="1283.78,-42.49 1291.28,-35 1280.75,-36.18 1283.78,-42.49"/>
<text text-anchor="middle" x="983.68" y="-169.37" font-family="Times,serif" font-size="14.00">1</text>
</g>
<!-- wrp.EntityBreakable -->
<g id="node6" class="node">
<title>wrp.EntityBreakable</title>
<g id="a_node6"><a xlink:href="wrp.EntityBreakable.svg" xlink:title="wrp.EntityBreakable">
<ellipse fill="green" stroke="black" cx="1209.54" cy="-198" rx="107.48" ry="18"/>
<text text-anchor="middle" x="1209.54" y="-194.3" font-family="Times,serif" font-size="14.00">wrp.EntityBreakable</text>
</a>
</g>
</g>
<!-- wrp.EntityBreakable&#45;&gt;wrp.AnimateEntity -->
<g id="edge5" class="edge">
<title>wrp.EntityBreakable&#45;&gt;wrp.AnimateEntity</title>
<path fill="none" stroke="black" d="M1220.56,-179.93C1240.83,-148.57 1284.09,-81.6 1307.93,-44.71"/>
<polygon fill="black" stroke="black" points="1311.06,-46.31 1313.54,-36.02 1305.18,-42.52 1311.06,-46.31"/>
<text text-anchor="middle" x="1215.56" y="-168.73" font-family="Times,serif" font-size="14.00">1</text>
</g>
<!-- wrp.EntityExplosion -->
<g id="node7" class="node">
<title>wrp.EntityExplosion</title>
<g id="a_node7"><a xlink:href="wrp.EntityExplosion.svg" xlink:title="wrp.EntityExplosion">
<ellipse fill="green" stroke="black" cx="1440.54" cy="-198" rx="105.88" ry="18"/>
<text text-anchor="middle" x="1440.54" y="-194.3" font-family="Times,serif" font-size="14.00">wrp.EntityExplosion</text>
</a>
</g>
</g>
<!-- wrp.EntityExplosion&#45;&gt;wrp.AnimateEntity -->
<g id="edge6" class="edge">
<title>wrp.EntityExplosion&#45;&gt;wrp.AnimateEntity</title>
<path fill="none" stroke="black" d="M1429.42,-179.93C1408.98,-148.57 1365.33,-81.6 1341.29,-44.71"/>
<polygon fill="black" stroke="black" points="1344.02,-42.48 1335.63,-36.02 1338.15,-46.3 1344.02,-42.48"/>
<text text-anchor="middle" x="1424.42" y="-168.73" font-family="Times,serif" font-size="14.00">1</text>
</g>
<!-- wrp.EntityPrizeDrop -->
<g id="node8" class="node">
<title>wrp.EntityPrizeDrop</title>
<g id="a_node8"><a xlink:href="wrp.EntityPrizeDrop.svg" xlink:title="wrp.EntityPrizeDrop">
<ellipse fill="green" stroke="black" cx="1671.54" cy="-198" rx="107.48" ry="18"/>
<text text-anchor="middle" x="1671.54" y="-194.3" font-family="Times,serif" font-size="14.00">wrp.EntityPrizeDrop</text>
</a>
</g>
</g>
<!-- wrp.EntityPrizeDrop&#45;&gt;wrp.AnimateEntity -->
<g id="edge7" class="edge">
<title>wrp.EntityPrizeDrop&#45;&gt;wrp.AnimateEntity</title>
<path fill="none" stroke="black" d="M1639.82,-180.73C1576.58,-148.29 1434.85,-75.59 1365.01,-39.76"/>
<polygon fill="black" stroke="black" points="1366.55,-36.62 1356.05,-35.17 1363.35,-42.84 1366.55,-36.62"/>
<text text-anchor="middle" x="1634.82" y="-169.53" font-family="Times,serif" font-size="14.00">1</text>
</g>
<!-- wrp.EntityRoomForeground -->
<g id="node9" class="node">
<title>wrp.EntityRoomForeground</title>
<g id="a_node9"><a xlink:href="wrp.EntityRoomForeground.svg" xlink:title="wrp.EntityRoomForeground">
<ellipse fill="green" stroke="black" cx="1937.54" cy="-198" rx="141.07" ry="18"/>
<text text-anchor="middle" x="1937.54" y="-194.3" font-family="Times,serif" font-size="14.00">wrp.EntityRoomForeground</text>
</a>
</g>
</g>
<!-- wrp.EntityRoomForeground&#45;&gt;wrp.AnimateEntity -->
<g id="edge8" class="edge">
<title>wrp.EntityRoomForeground&#45;&gt;wrp.AnimateEntity</title>
<path fill="none" stroke="black" d="M1883.68,-181.36C1769.44,-148.19 1503.59,-70.99 1384.32,-36.36"/>
<polygon fill="black" stroke="black" points="1385.19,-32.97 1374.61,-33.54 1383.24,-39.69 1385.19,-32.97"/>
<text text-anchor="middle" x="1878.68" y="-170.16" font-family="Times,serif" font-size="14.00">1</text>
</g>
<!-- wrp.InitializeUnkEntity -->
<g id="node10" class="node">
<title>wrp.InitializeUnkEntity</title>
<g id="a_node10"><a xlink:href="wrp.InitializeUnkEntity.svg" xlink:title="wrp.InitializeUnkEntity">
<ellipse fill="green" stroke="black" cx="2216.54" cy="-198" rx="120.48" ry="18"/>
<text text-anchor="middle" x="2216.54" y="-194.3" font-family="Times,serif" font-size="14.00">wrp.InitializeUnkEntity</text>
</a>
</g>
</g>
<!-- wrp.InitializeUnkEntity&#45;&gt;wrp.AnimateEntity -->
<g id="edge9" class="edge">
<title>wrp.InitializeUnkEntity&#45;&gt;wrp.AnimateEntity</title>
<path fill="none" stroke="black" d="M2147.29,-183.18C1982.44,-150.28 1567.88,-67.56 1398.44,-33.75"/>
<polygon fill="black" stroke="black" points="1399.1,-30.31 1388.61,-31.79 1397.73,-37.18 1399.1,-30.31"/>
<text text-anchor="middle" x="2142.29" y="-171.98" font-family="Times,serif" font-size="14.00">1</text>
</g>
<!-- wrp.func_80186FD0 -->
<g id="node11" class="node">
<title>wrp.func_80186FD0</title>
<g id="a_node11"><a xlink:href="wrp.func_80186FD0.svg" xlink:title="wrp.func_80186FD0">
<ellipse fill="green" stroke="black" cx="2459.54" cy="-198" rx="104.78" ry="18"/>
<text text-anchor="middle" x="2459.54" y="-194.3" font-family="Times,serif" font-size="14.00">wrp.func_80186FD0</text>
</a>
</g>
</g>
<!-- wrp.func_80186FD0&#45;&gt;wrp.AnimateEntity -->
<g id="edge10" class="edge">
<title>wrp.func_80186FD0&#45;&gt;wrp.AnimateEntity</title>
<path fill="none" stroke="black" d="M2385.07,-185.32C2181.88,-153.45 1618.97,-65.18 1406.85,-31.91"/>
<polygon fill="black" stroke="black" points="1407.13,-28.41 1396.71,-30.32 1406.05,-35.33 1407.13,-28.41"/>
<text text-anchor="middle" x="2380.07" y="-174.12" font-family="Times,serif" font-size="14.00">1</text>
</g>
</g>
</svg>
