<?xml version="1.0" encoding="UTF-8" standalone="no"?>
<!DOCTYPE svg PUBLIC "-//W3C//DTD SVG 1.1//EN"
 "http://www.w3.org/Graphics/SVG/1.1/DTD/svg11.dtd">
<!-- Generated by graphviz version 2.43.0 (0)
 -->
<!-- Title: wrp.EntityUnkId13 Pages: 1 -->
<svg width="911pt" height="224pt"
 viewBox="0.00 0.00 910.63 224.00" xmlns="http://www.w3.org/2000/svg" xmlns:xlink="http://www.w3.org/1999/xlink">
<g id="graph0" class="graph" transform="scale(1 1) rotate(0) translate(4 220)">
<title>wrp.EntityUnkId13</title>
<polygon fill="white" stroke="transparent" points="-4,4 -4,-220 906.63,-220 906.63,4 -4,4"/>
<!-- wrp.EntityUnkId13 -->
<g id="node1" class="node">
<title>wrp.EntityUnkId13</title>
<ellipse fill="green" stroke="black" cx="413.89" cy="-198" rx="100.98" ry="18"/>
<text text-anchor="middle" x="413.89" y="-194.3" font-family="Times,serif" font-size="14.00">wrp.EntityUnkId13</text>
</g>
<!-- dra.DestroyEntity -->
<g id="node2" class="node">
<title>dra.DestroyEntity</title>
<g id="a_node2"><a xlink:href="dra.DestroyEntity.svg" xlink:title="dra.DestroyEntity">
<ellipse fill="green" stroke="black" cx="94.89" cy="-18" rx="94.78" ry="18"/>
<text text-anchor="middle" x="94.89" y="-14.3" font-family="Times,serif" font-size="14.00">dra.DestroyEntity</text>
</a>
</g>
</g>
<!-- wrp.EntityUnkId13&#45;&gt;dra.DestroyEntity -->
<g id="edge1" class="edge">
<title>wrp.EntityUnkId13&#45;&gt;dra.DestroyEntity</title>
<path fill="none" stroke="black" d="M384.74,-180.73C326.83,-148.42 197.37,-76.18 132.89,-40.2"/>
<polygon fill="black" stroke="black" points="134.3,-36.98 123.86,-35.17 130.89,-43.1 134.3,-36.98"/>
<text text-anchor="middle" x="118.86" y="-38.97" font-family="Times,serif" font-size="14.00">1</text>
</g>
<!-- wrp.AllocEntity -->
<g id="node3" class="node">
<title>wrp.AllocEntity</title>
<g id="a_node3"><a xlink:href="wrp.AllocEntity.svg" xlink:title="wrp.AllocEntity">
<ellipse fill="green" stroke="black" cx="290.89" cy="-18" rx="83.39" ry="18"/>
<text text-anchor="middle" x="290.89" y="-14.3" font-family="Times,serif" font-size="14.00">wrp.AllocEntity</text>
</a>
</g>
</g>
<!-- wrp.EntityUnkId13&#45;&gt;wrp.AllocEntity -->
<g id="edge2" class="edge">
<title>wrp.EntityUnkId13&#45;&gt;wrp.AllocEntity</title>
<path fill="none" stroke="black" d="M402.1,-179.93C380.42,-148.57 334.15,-81.6 308.66,-44.71"/>
<polygon fill="black" stroke="black" points="311.21,-42.25 302.65,-36.02 305.46,-46.23 311.21,-42.25"/>
<text text-anchor="middle" x="297.65" y="-39.82" font-family="Times,serif" font-size="14.00">1</text>
</g>
<!-- wrp.CreateEntityFromEntity -->
<g id="node4" class="node">
<title>wrp.CreateEntityFromEntity</title>
<g id="a_node4"><a xlink:href="wrp.CreateEntityFromEntity.svg" xlink:title="wrp.CreateEntityFromEntity">
<ellipse fill="green" stroke="black" cx="537.89" cy="-18" rx="145.67" ry="18"/>
<text text-anchor="middle" x="537.89" y="-14.3" font-family="Times,serif" font-size="14.00">wrp.CreateEntityFromEntity</text>
</a>
</g>
</g>
<!-- wrp.EntityUnkId13&#45;&gt;wrp.CreateEntityFromEntity -->
<g id="edge3" class="edge">
<title>wrp.EntityUnkId13&#45;&gt;wrp.CreateEntityFromEntity</title>
<path fill="none" stroke="black" d="M425.78,-179.93C447.72,-148.43 494.68,-81.03 520.31,-44.24"/>
<polygon fill="black" stroke="black" points="523.19,-46.22 526.04,-36.02 517.45,-42.22 523.19,-46.22"/>
<text text-anchor="middle" x="521.04" y="-39.82" font-family="Times,serif" font-size="14.00">1</text>
</g>
<!-- wrp.InitializeEntity -->
<g id="node5" class="node">
<title>wrp.InitializeEntity</title>
<g id="a_node5"><a xlink:href="wrp.InitializeEntity.svg" xlink:title="wrp.InitializeEntity">
<ellipse fill="green" stroke="black" cx="801.89" cy="-18" rx="100.98" ry="18"/>
<text text-anchor="middle" x="801.89" y="-14.3" font-family="Times,serif" font-size="14.00">wrp.InitializeEntity</text>
</a>
</g>
</g>
<!-- wrp.EntityUnkId13&#45;&gt;wrp.InitializeEntity -->
<g id="edge4" class="edge">
<title>wrp.EntityUnkId13&#45;&gt;wrp.InitializeEntity</title>
<path fill="none" stroke="black" d="M448.67,-181.05C519.3,-148.64 679.48,-75.16 757.51,-39.36"/>
<polygon fill="black" stroke="black" points="759.43,-42.33 767.06,-34.98 756.51,-35.97 759.43,-42.33"/>
<text text-anchor="middle" x="762.06" y="-38.78" font-family="Times,serif" font-size="14.00">1</text>
</g>
</g>
</svg>
