<?xml version="1.0" encoding="UTF-8" standalone="no"?>
<!DOCTYPE svg PUBLIC "-//W3C//DTD SVG 1.1//EN"
 "http://www.w3.org/Graphics/SVG/1.1/DTD/svg11.dtd">
<!-- Generated by graphviz version 2.43.0 (0)
 -->
<!-- Title: wrp.GetSineScaled Pages: 1 -->
<svg width="690pt" height="224pt"
 viewBox="0.00 0.00 690.12 224.00" xmlns="http://www.w3.org/2000/svg" xmlns:xlink="http://www.w3.org/1999/xlink">
<g id="graph0" class="graph" transform="scale(1 1) rotate(0) translate(4 220)">
<title>wrp.GetSineScaled</title>
<polygon fill="white" stroke="transparent" points="-4,4 -4,-220 686.12,-220 686.12,4 -4,4"/>
<!-- wrp.GetSineScaled -->
<g id="node1" class="node">
<title>wrp.GetSineScaled</title>
<ellipse fill="green" stroke="black" cx="343.34" cy="-18" rx="99.38" ry="18"/>
<text text-anchor="middle" x="343.34" y="-14.3" font-family="Times,serif" font-size="14.00">wrp.GetSineScaled</text>
</g>
<!-- rwrp.SetEntityVelocityFromAngle -->
<g id="node2" class="node">
<title>rwrp.SetEntityVelocityFromAngle</title>
<g id="a_node2"><a xlink:href="rwrp.SetEntityVelocityFromAngle.svg" xlink:title="rwrp.SetEntityVelocityFromAngle">
<ellipse fill="green" stroke="black" cx="168.34" cy="-198" rx="168.17" ry="18"/>
<text text-anchor="middle" x="168.34" y="-194.3" font-family="Times,serif" font-size="14.00">rwrp.SetEntityVelocityFromAngle</text>
</a>
</g>
</g>
<!-- rwrp.SetEntityVelocityFromAngle&#45;&gt;wrp.GetSineScaled -->
<g id="edge1" class="edge">
<title>rwrp.SetEntityVelocityFromAngle&#45;&gt;wrp.GetSineScaled</title>
<path fill="none" stroke="black" d="M185.11,-179.93C216.42,-148.09 283.81,-79.54 319.7,-43.04"/>
<polygon fill="black" stroke="black" points="322.35,-45.34 326.86,-35.76 317.36,-40.43 322.35,-45.34"/>
<text text-anchor="middle" x="180.11" y="-168.73" font-family="Times,serif" font-size="14.00">2</text>
</g>
<!-- wrp.SetEntityVelocityFromAngle -->
<g id="node3" class="node">
<title>wrp.SetEntityVelocityFromAngle</title>
<g id="a_node3"><a xlink:href="wrp.SetEntityVelocityFromAngle.svg" xlink:title="wrp.SetEntityVelocityFromAngle">
<ellipse fill="green" stroke="black" cx="518.34" cy="-198" rx="163.57" ry="18"/>
<text text-anchor="middle" x="518.34" y="-194.3" font-family="Times,serif" font-size="14.00">wrp.SetEntityVelocityFromAngle</text>
</a>
</g>
</g>
<!-- wrp.SetEntityVelocityFromAngle&#45;&gt;wrp.GetSineScaled -->
<g id="edge2" class="edge">
<title>wrp.SetEntityVelocityFromAngle&#45;&gt;wrp.GetSineScaled</title>
<path fill="none" stroke="black" d="M501.56,-179.93C470.25,-148.09 402.86,-79.54 366.97,-43.04"/>
<polygon fill="black" stroke="black" points="369.32,-40.43 359.81,-35.76 364.32,-45.34 369.32,-40.43"/>
<text text-anchor="middle" x="496.56" y="-168.73" font-family="Times,serif" font-size="14.00">2</text>
</g>
</g>
</svg>
