<?xml version="1.0" encoding="UTF-8" standalone="no"?>
<!DOCTYPE svg PUBLIC "-//W3C//DTD SVG 1.1//EN"
 "http://www.w3.org/Graphics/SVG/1.1/DTD/svg11.dtd">
<!-- Generated by graphviz version 2.43.0 (0)
 -->
<!-- Title: wrp.InitializeEntity Pages: 1 -->
<svg width="7851pt" height="224pt"
 viewBox="0.00 0.00 7850.78 224.00" xmlns="http://www.w3.org/2000/svg" xmlns:xlink="http://www.w3.org/1999/xlink">
<g id="graph0" class="graph" transform="scale(1 1) rotate(0) translate(4 220)">
<title>wrp.InitializeEntity</title>
<polygon fill="white" stroke="transparent" points="-4,4 -4,-220 7846.78,-220 7846.78,4 -4,4"/>
<!-- wrp.InitializeEntity -->
<g id="node1" class="node">
<title>wrp.InitializeEntity</title>
<ellipse fill="green" stroke="black" cx="4039.54" cy="-18" rx="100.98" ry="18"/>
<text text-anchor="middle" x="4039.54" y="-14.3" font-family="Times,serif" font-size="14.00">wrp.InitializeEntity</text>
</g>
<!-- rwrp.EntityBigRedFireball -->
<g id="node2" class="node">
<title>rwrp.EntityBigRedFireball</title>
<g id="a_node2"><a xlink:href="rwrp.EntityBigRedFireball.svg" xlink:title="rwrp.EntityBigRedFireball">
<ellipse fill="green" stroke="black" cx="134.54" cy="-198" rx="134.58" ry="18"/>
<text text-anchor="middle" x="134.54" y="-194.3" font-family="Times,serif" font-size="14.00">rwrp.EntityBigRedFireball</text>
</a>
</g>
</g>
<!-- rwrp.EntityBigRedFireball&#45;&gt;wrp.InitializeEntity -->
<g id="edge1" class="edge">
<title>rwrp.EntityBigRedFireball&#45;&gt;wrp.InitializeEntity</title>
<path fill="none" stroke="black" d="M227.78,-184.96C244.65,-183.08 262.1,-181.32 278.54,-180 1719.07,-64.3 3477.12,-28.35 3929.37,-20.71"/>
<polygon fill="black" stroke="black" points="3929.55,-24.21 3939.49,-20.54 3929.43,-17.21 3929.55,-24.21"/>
<text text-anchor="middle" x="222.78" y="-173.76" font-family="Times,serif" font-size="14.00">1</text>
</g>
<!-- rwrp.EntityEquipItemDrop -->
<g id="node3" class="node">
<title>rwrp.EntityEquipItemDrop</title>
<g id="a_node3"><a xlink:href="rwrp.EntityEquipItemDrop.svg" xlink:title="rwrp.EntityEquipItemDrop">
<ellipse fill="green" stroke="black" cx="423.54" cy="-198" rx="136.48" ry="18"/>
<text text-anchor="middle" x="423.54" y="-194.3" font-family="Times,serif" font-size="14.00">rwrp.EntityEquipItemDrop</text>
</a>
</g>
</g>
<!-- rwrp.EntityEquipItemDrop&#45;&gt;wrp.InitializeEntity -->
<g id="edge2" class="edge">
<title>rwrp.EntityEquipItemDrop&#45;&gt;wrp.InitializeEntity</title>
<path fill="none" stroke="black" d="M518.47,-184.98C535.46,-183.1 553.01,-181.34 569.54,-180 1890.24,-72.6 3499.98,-30.96 3929.77,-21.31"/>
<polygon fill="black" stroke="black" points="3930.08,-24.81 3940,-21.08 3929.93,-17.81 3930.08,-24.81"/>
<text text-anchor="middle" x="513.47" y="-173.78" font-family="Times,serif" font-size="14.00">1</text>
</g>
<!-- rwrp.EntityExplosion -->
<g id="node4" class="node">
<title>rwrp.EntityExplosion</title>
<g id="a_node4"><a xlink:href="rwrp.EntityExplosion.svg" xlink:title="rwrp.EntityExplosion">
<ellipse fill="green" stroke="black" cx="688.54" cy="-198" rx="110.48" ry="18"/>
<text text-anchor="middle" x="688.54" y="-194.3" font-family="Times,serif" font-size="14.00">rwrp.EntityExplosion</text>
</a>
</g>
</g>
<!-- rwrp.EntityExplosion&#45;&gt;wrp.InitializeEntity -->
<g id="edge3" class="edge">
<title>rwrp.EntityExplosion&#45;&gt;wrp.InitializeEntity</title>
<path fill="none" stroke="black" d="M765.23,-184.99C779.28,-183.09 793.83,-181.32 807.54,-180 2028.67,-62.61 3518.08,-28.34 3929.67,-20.81"/>
<polygon fill="black" stroke="black" points="3929.84,-24.3 3939.78,-20.62 3929.71,-17.3 3929.84,-24.3"/>
<text text-anchor="middle" x="760.23" y="-173.79" font-family="Times,serif" font-size="14.00">1</text>
</g>
<!-- rwrp.EntityIntenseExplosion -->
<g id="node5" class="node">
<title>rwrp.EntityIntenseExplosion</title>
<g id="a_node5"><a xlink:href="rwrp.EntityIntenseExplosion.svg" xlink:title="rwrp.EntityIntenseExplosion">
<ellipse fill="green" stroke="black" cx="961.54" cy="-198" rx="144.87" ry="18"/>
<text text-anchor="middle" x="961.54" y="-194.3" font-family="Times,serif" font-size="14.00">rwrp.EntityIntenseExplosion</text>
</a>
</g>
</g>
<!-- rwrp.EntityIntenseExplosion&#45;&gt;wrp.InitializeEntity -->
<g id="edge4" class="edge">
<title>rwrp.EntityIntenseExplosion&#45;&gt;wrp.InitializeEntity</title>
<path fill="none" stroke="black" d="M1062.52,-185.05C1080.18,-183.19 1098.38,-181.42 1115.54,-180 2213.26,-89.26 3547.19,-36.8 3931.33,-22.81"/>
<polygon fill="black" stroke="black" points="3931.73,-26.3 3941.6,-22.44 3931.48,-19.3 3931.73,-26.3"/>
<text text-anchor="middle" x="1057.52" y="-173.85" font-family="Times,serif" font-size="14.00">1</text>
</g>
<!-- rwrp.EntityMessageBox -->
<g id="node6" class="node">
<title>rwrp.EntityMessageBox</title>
<g id="a_node6"><a xlink:href="rwrp.EntityMessageBox.svg" xlink:title="rwrp.EntityMessageBox">
<ellipse fill="green" stroke="black" cx="1247.54" cy="-198" rx="123.48" ry="18"/>
<text text-anchor="middle" x="1247.54" y="-194.3" font-family="Times,serif" font-size="14.00">rwrp.EntityMessageBox</text>
</a>
</g>
</g>
<!-- rwrp.EntityMessageBox&#45;&gt;wrp.InitializeEntity -->
<g id="edge5" class="edge">
<title>rwrp.EntityMessageBox&#45;&gt;wrp.InitializeEntity</title>
<path fill="none" stroke="black" d="M1333.71,-185.05C1348.96,-183.18 1364.7,-181.4 1379.54,-180 2368.66,-86.48 3570.12,-36.57 3931.64,-22.91"/>
<polygon fill="black" stroke="black" points="3931.97,-26.4 3941.83,-22.53 3931.71,-19.4 3931.97,-26.4"/>
<text text-anchor="middle" x="1328.71" y="-173.85" font-family="Times,serif" font-size="14.00">1</text>
</g>
<!-- rwrp.EntityOlroxDrool -->
<g id="node7" class="node">
<title>rwrp.EntityOlroxDrool</title>
<g id="a_node7"><a xlink:href="rwrp.EntityOlroxDrool.svg" xlink:title="rwrp.EntityOlroxDrool">
<ellipse fill="green" stroke="black" cx="1504.54" cy="-198" rx="115.88" ry="18"/>
<text text-anchor="middle" x="1504.54" y="-194.3" font-family="Times,serif" font-size="14.00">rwrp.EntityOlroxDrool</text>
</a>
</g>
</g>
<!-- rwrp.EntityOlroxDrool&#45;&gt;wrp.InitializeEntity -->
<g id="edge6" class="edge">
<title>rwrp.EntityOlroxDrool&#45;&gt;wrp.InitializeEntity</title>
<path fill="none" stroke="black" d="M1585.48,-185.08C1599.81,-183.2 1614.59,-181.42 1628.54,-180 2516.6,-89.58 3594.08,-38.24 3932.54,-23.49"/>
<polygon fill="black" stroke="black" points="3932.74,-26.98 3942.58,-23.05 3932.44,-19.99 3932.74,-26.98"/>
<text text-anchor="middle" x="1580.48" y="-173.88" font-family="Times,serif" font-size="14.00">1</text>
</g>
<!-- rwrp.EntityPrizeDrop -->
<g id="node8" class="node">
<title>rwrp.EntityPrizeDrop</title>
<g id="a_node8"><a xlink:href="rwrp.EntityPrizeDrop.svg" xlink:title="rwrp.EntityPrizeDrop">
<ellipse fill="green" stroke="black" cx="1749.54" cy="-198" rx="111.58" ry="18"/>
<text text-anchor="middle" x="1749.54" y="-194.3" font-family="Times,serif" font-size="14.00">rwrp.EntityPrizeDrop</text>
</a>
</g>
</g>
<!-- rwrp.EntityPrizeDrop&#45;&gt;wrp.InitializeEntity -->
<g id="edge7" class="edge">
<title>rwrp.EntityPrizeDrop&#45;&gt;wrp.InitializeEntity</title>
<path fill="none" stroke="black" d="M1828.2,-185.19C1842.28,-183.29 1856.83,-181.47 1870.54,-180 2661.65,-95.16 3619.9,-40.91 3934.19,-24.37"/>
<polygon fill="black" stroke="black" points="3934.39,-27.86 3944.2,-23.84 3934.03,-20.87 3934.39,-27.86"/>
<text text-anchor="middle" x="1823.2" y="-173.99" font-family="Times,serif" font-size="14.00">1</text>
</g>
<!-- rwrp.EntityRWarpRoom -->
<g id="node9" class="node">
<title>rwrp.EntityRWarpRoom</title>
<g id="a_node9"><a xlink:href="rwrp.EntityRWarpRoom.svg" xlink:title="rwrp.EntityRWarpRoom">
<ellipse fill="green" stroke="black" cx="2001.54" cy="-198" rx="122.38" ry="18"/>
<text text-anchor="middle" x="2001.54" y="-194.3" font-family="Times,serif" font-size="14.00">rwrp.EntityRWarpRoom</text>
</a>
</g>
</g>
<!-- rwrp.EntityRWarpRoom&#45;&gt;wrp.InitializeEntity -->
<g id="edge8" class="edge">
<title>rwrp.EntityRWarpRoom&#45;&gt;wrp.InitializeEntity</title>
<path fill="none" stroke="black" d="M2087.79,-185.25C2102.7,-183.38 2118.06,-181.55 2132.54,-180 2820.29,-106.38 3650.56,-46.03 3936.76,-26.05"/>
<polygon fill="black" stroke="black" points="3937.38,-29.51 3947.12,-25.33 3936.9,-22.53 3937.38,-29.51"/>
<text text-anchor="middle" x="2082.79" y="-174.05" font-family="Times,serif" font-size="14.00">1</text>
</g>
<!-- rwrp.EntityRelicOrb -->
<g id="node10" class="node">
<title>rwrp.EntityRelicOrb</title>
<g id="a_node10"><a xlink:href="rwrp.EntityRelicOrb.svg" xlink:title="rwrp.EntityRelicOrb">
<ellipse fill="green" stroke="black" cx="2246.54" cy="-198" rx="105.08" ry="18"/>
<text text-anchor="middle" x="2246.54" y="-194.3" font-family="Times,serif" font-size="14.00">rwrp.EntityRelicOrb</text>
</a>
</g>
</g>
<!-- rwrp.EntityRelicOrb&#45;&gt;wrp.InitializeEntity -->
<g id="edge9" class="edge">
<title>rwrp.EntityRelicOrb&#45;&gt;wrp.InitializeEntity</title>
<path fill="none" stroke="black" d="M2321.27,-185.28C2334.35,-183.4 2347.83,-181.56 2360.54,-180 2957.5,-106.92 3677.28,-47.47 3938.58,-26.82"/>
<polygon fill="black" stroke="black" points="3939.12,-30.29 3948.81,-26.02 3938.57,-23.31 3939.12,-30.29"/>
<text text-anchor="middle" x="2316.27" y="-174.08" font-family="Times,serif" font-size="14.00">1</text>
</g>
<!-- rwrp.EntityStageNamePopup -->
<g id="node11" class="node">
<title>rwrp.EntityStageNamePopup</title>
<g id="a_node11"><a xlink:href="rwrp.EntityStageNamePopup.svg" xlink:title="rwrp.EntityStageNamePopup">
<ellipse fill="green" stroke="black" cx="2517.54" cy="-198" rx="147.57" ry="18"/>
<text text-anchor="middle" x="2517.54" y="-194.3" font-family="Times,serif" font-size="14.00">rwrp.EntityStageNamePopup</text>
</a>
</g>
</g>
<!-- rwrp.EntityStageNamePopup&#45;&gt;wrp.InitializeEntity -->
<g id="edge10" class="edge">
<title>rwrp.EntityStageNamePopup&#45;&gt;wrp.InitializeEntity</title>
<path fill="none" stroke="black" d="M2620.06,-185.01C2900.99,-152.16 3679.96,-61.05 3947.74,-29.74"/>
<polygon fill="black" stroke="black" points="3948.28,-33.2 3957.81,-28.56 3947.47,-26.24 3948.28,-33.2"/>
<text text-anchor="middle" x="2615.06" y="-173.81" font-family="Times,serif" font-size="14.00">1</text>
</g>
<!-- rwrp.EntityUnkId13 -->
<g id="node12" class="node">
<title>rwrp.EntityUnkId13</title>
<g id="a_node12"><a xlink:href="rwrp.EntityUnkId13.svg" xlink:title="rwrp.EntityUnkId13">
<ellipse fill="green" stroke="black" cx="2787.54" cy="-198" rx="104.78" ry="18"/>
<text text-anchor="middle" x="2787.54" y="-194.3" font-family="Times,serif" font-size="14.00">rwrp.EntityUnkId13</text>
</a>
</g>
</g>
<!-- rwrp.EntityUnkId13&#45;&gt;wrp.InitializeEntity -->
<g id="edge11" class="edge">
<title>rwrp.EntityUnkId13&#45;&gt;wrp.InitializeEntity</title>
<path fill="none" stroke="black" d="M2863.56,-185.58C2876.24,-183.7 2889.26,-181.78 2901.54,-180 3293.65,-123.03 3762.16,-57.57 3952.62,-31.07"/>
<polygon fill="black" stroke="black" points="3953.16,-34.53 3962.58,-29.69 3952.19,-27.6 3953.16,-34.53"/>
<text text-anchor="middle" x="2858.56" y="-174.38" font-family="Times,serif" font-size="14.00">1</text>
</g>
<!-- rwrp.EntityWarpSmallRocks -->
<g id="node13" class="node">
<title>rwrp.EntityWarpSmallRocks</title>
<g id="a_node13"><a xlink:href="rwrp.EntityWarpSmallRocks.svg" xlink:title="rwrp.EntityWarpSmallRocks">
<ellipse fill="green" stroke="black" cx="3053.54" cy="-198" rx="142.97" ry="18"/>
<text text-anchor="middle" x="3053.54" y="-194.3" font-family="Times,serif" font-size="14.00">rwrp.EntityWarpSmallRocks</text>
</a>
</g>
</g>
<!-- rwrp.EntityWarpSmallRocks&#45;&gt;wrp.InitializeEntity -->
<g id="edge12" class="edge">
<title>rwrp.EntityWarpSmallRocks&#45;&gt;wrp.InitializeEntity</title>
<path fill="none" stroke="black" d="M3131.73,-182.88C3316.23,-149.58 3776.96,-66.4 3961.4,-33.11"/>
<polygon fill="black" stroke="black" points="3962.08,-36.54 3971.3,-31.32 3960.83,-29.65 3962.08,-36.54"/>
<text text-anchor="middle" x="3126.73" y="-171.68" font-family="Times,serif" font-size="14.00">1</text>
</g>
<!-- rwrp.InitializeUnkEntity -->
<g id="node14" class="node">
<title>rwrp.InitializeUnkEntity</title>
<g id="a_node14"><a xlink:href="rwrp.InitializeUnkEntity.svg" xlink:title="rwrp.InitializeUnkEntity">
<ellipse fill="green" stroke="black" cx="3338.54" cy="-198" rx="124.28" ry="18"/>
<text text-anchor="middle" x="3338.54" y="-194.3" font-family="Times,serif" font-size="14.00">rwrp.InitializeUnkEntity</text>
</a>
</g>
</g>
<!-- rwrp.InitializeUnkEntity&#45;&gt;wrp.InitializeEntity -->
<g id="edge13" class="edge">
<title>rwrp.InitializeUnkEntity&#45;&gt;wrp.InitializeEntity</title>
<path fill="none" stroke="black" d="M3397.4,-182.05C3527.46,-149.03 3838.5,-70.05 3974.27,-35.57"/>
<polygon fill="black" stroke="black" points="3975.3,-38.92 3984.13,-33.07 3973.58,-32.14 3975.3,-38.92"/>
<text text-anchor="middle" x="3392.4" y="-170.85" font-family="Times,serif" font-size="14.00">1</text>
</g>
<!-- wrp.EntityBackgroundBlock -->
<g id="node15" class="node">
<title>wrp.EntityBackgroundBlock</title>
<g id="a_node15"><a xlink:href="wrp.EntityBackgroundBlock.svg" xlink:title="wrp.EntityBackgroundBlock">
<ellipse fill="green" stroke="black" cx="3622.54" cy="-198" rx="141.88" ry="18"/>
<text text-anchor="middle" x="3622.54" y="-194.3" font-family="Times,serif" font-size="14.00">wrp.EntityBackgroundBlock</text>
</a>
</g>
</g>
<!-- wrp.EntityBackgroundBlock&#45;&gt;wrp.InitializeEntity -->
<g id="edge14" class="edge">
<title>wrp.EntityBackgroundBlock&#45;&gt;wrp.InitializeEntity</title>
<path fill="none" stroke="black" d="M3661.02,-180.57C3737.82,-147.79 3909.86,-74.35 3992.91,-38.9"/>
<polygon fill="black" stroke="black" points="3994.53,-42.02 4002.35,-34.87 3991.78,-35.58 3994.53,-42.02"/>
<text text-anchor="middle" x="3656.02" y="-169.37" font-family="Times,serif" font-size="14.00">1</text>
</g>
<!-- wrp.EntityBigRedFireball -->
<g id="node16" class="node">
<title>wrp.EntityBigRedFireball</title>
<g id="a_node16"><a xlink:href="wrp.EntityBigRedFireball.svg" xlink:title="wrp.EntityBigRedFireball">
<ellipse fill="green" stroke="black" cx="3912.54" cy="-198" rx="129.98" ry="18"/>
<text text-anchor="middle" x="3912.54" y="-194.3" font-family="Times,serif" font-size="14.00">wrp.EntityBigRedFireball</text>
</a>
</g>
</g>
<!-- wrp.EntityBigRedFireball&#45;&gt;wrp.InitializeEntity -->
<g id="edge15" class="edge">
<title>wrp.EntityBigRedFireball&#45;&gt;wrp.InitializeEntity</title>
<path fill="none" stroke="black" d="M3924.72,-179.93C3947.19,-148.43 3995.28,-81.03 4021.53,-44.24"/>
<polygon fill="black" stroke="black" points="4024.44,-46.19 4027.4,-36.02 4018.74,-42.12 4024.44,-46.19"/>
<text text-anchor="middle" x="3919.72" y="-168.73" font-family="Times,serif" font-size="14.00">1</text>
</g>
<!-- wrp.EntityBreakable -->
<g id="node17" class="node">
<title>wrp.EntityBreakable</title>
<g id="a_node17"><a xlink:href="wrp.EntityBreakable.svg" xlink:title="wrp.EntityBreakable">
<ellipse fill="green" stroke="black" cx="4167.54" cy="-198" rx="107.48" ry="18"/>
<text text-anchor="middle" x="4167.54" y="-194.3" font-family="Times,serif" font-size="14.00">wrp.EntityBreakable</text>
</a>
</g>
</g>
<!-- wrp.EntityBreakable&#45;&gt;wrp.InitializeEntity -->
<g id="edge16" class="edge">
<title>wrp.EntityBreakable&#45;&gt;wrp.InitializeEntity</title>
<path fill="none" stroke="black" d="M4155.26,-179.93C4132.61,-148.43 4084.15,-81.03 4057.69,-44.24"/>
<polygon fill="black" stroke="black" points="4060.45,-42.09 4051.77,-36.02 4054.77,-46.18 4060.45,-42.09"/>
<text text-anchor="middle" x="4150.26" y="-168.73" font-family="Times,serif" font-size="14.00">1</text>
</g>
<!-- wrp.EntityDamageDisplay -->
<g id="node18" class="node">
<title>wrp.EntityDamageDisplay</title>
<g id="a_node18"><a xlink:href="wrp.EntityDamageDisplay.svg" xlink:title="wrp.EntityDamageDisplay">
<ellipse fill="green" stroke="black" cx="4425.54" cy="-198" rx="133.48" ry="18"/>
<text text-anchor="middle" x="4425.54" y="-194.3" font-family="Times,serif" font-size="14.00">wrp.EntityDamageDisplay</text>
</a>
</g>
</g>
<!-- wrp.EntityDamageDisplay&#45;&gt;wrp.InitializeEntity -->
<g id="edge17" class="edge">
<title>wrp.EntityDamageDisplay&#45;&gt;wrp.InitializeEntity</title>
<path fill="none" stroke="black" d="M4389.92,-180.57C4319.13,-147.93 4160.95,-74.99 4083.69,-39.36"/>
<polygon fill="black" stroke="black" points="4084.79,-36.01 4074.24,-35 4081.85,-42.37 4084.79,-36.01"/>
<text text-anchor="middle" x="4384.92" y="-169.37" font-family="Times,serif" font-size="14.00">1</text>
</g>
<!-- wrp.EntityEnemyBlood -->
<g id="node19" class="node">
<title>wrp.EntityEnemyBlood</title>
<g id="a_node19"><a xlink:href="wrp.EntityEnemyBlood.svg" xlink:title="wrp.EntityEnemyBlood">
<ellipse fill="green" stroke="black" cx="4695.54" cy="-198" rx="118.88" ry="18"/>
<text text-anchor="middle" x="4695.54" y="-194.3" font-family="Times,serif" font-size="14.00">wrp.EntityEnemyBlood</text>
</a>
</g>
</g>
<!-- wrp.EntityEnemyBlood&#45;&gt;wrp.InitializeEntity -->
<g id="edge18" class="edge">
<title>wrp.EntityEnemyBlood&#45;&gt;wrp.InitializeEntity</title>
<path fill="none" stroke="black" d="M4640.17,-181.98C4518.85,-149.06 4230.21,-70.74 4102.35,-36.04"/>
<polygon fill="black" stroke="black" points="4103.26,-32.66 4092.69,-33.42 4101.42,-39.42 4103.26,-32.66"/>
<text text-anchor="middle" x="4635.17" y="-170.78" font-family="Times,serif" font-size="14.00">1</text>
</g>
<!-- wrp.EntityIntenseExplosion -->
<g id="node20" class="node">
<title>wrp.EntityIntenseExplosion</title>
<g id="a_node20"><a xlink:href="wrp.EntityIntenseExplosion.svg" xlink:title="wrp.EntityIntenseExplosion">
<ellipse fill="green" stroke="black" cx="4972.54" cy="-198" rx="140.28" ry="18"/>
<text text-anchor="middle" x="4972.54" y="-194.3" font-family="Times,serif" font-size="14.00">wrp.EntityIntenseExplosion</text>
</a>
</g>
</g>
<!-- wrp.EntityIntenseExplosion&#45;&gt;wrp.InitializeEntity -->
<g id="edge19" class="edge">
<title>wrp.EntityIntenseExplosion&#45;&gt;wrp.InitializeEntity</title>
<path fill="none" stroke="black" d="M4897.76,-182.73C4723.42,-149.47 4291.49,-67.07 4115.75,-33.54"/>
<polygon fill="black" stroke="black" points="4116.28,-30.08 4105.8,-31.64 4114.97,-36.95 4116.28,-30.08"/>
<text text-anchor="middle" x="4892.76" y="-171.53" font-family="Times,serif" font-size="14.00">1</text>
</g>
<!-- wrp.EntityMessageBox -->
<g id="node21" class="node">
<title>wrp.EntityMessageBox</title>
<g id="a_node21"><a xlink:href="wrp.EntityMessageBox.svg" xlink:title="wrp.EntityMessageBox">
<ellipse fill="green" stroke="black" cx="5249.54" cy="-198" rx="118.88" ry="18"/>
<text text-anchor="middle" x="5249.54" y="-194.3" font-family="Times,serif" font-size="14.00">wrp.EntityMessageBox</text>
</a>
</g>
</g>
<!-- wrp.EntityMessageBox&#45;&gt;wrp.InitializeEntity -->
<g id="edge20" class="edge">
<title>wrp.EntityMessageBox&#45;&gt;wrp.InitializeEntity</title>
<path fill="none" stroke="black" d="M5167.32,-184.91C4947.56,-152.58 4348.12,-64.39 4124.84,-31.55"/>
<polygon fill="black" stroke="black" points="4125.22,-28.07 4114.82,-30.07 4124.2,-34.99 4125.22,-28.07"/>
<text text-anchor="middle" x="5162.32" y="-173.71" font-family="Times,serif" font-size="14.00">1</text>
</g>
<!-- wrp.EntityOlroxDrool -->
<g id="node22" class="node">
<title>wrp.EntityOlroxDrool</title>
<g id="a_node22"><a xlink:href="wrp.EntityOlroxDrool.svg" xlink:title="wrp.EntityOlroxDrool">
<ellipse fill="green" stroke="black" cx="5497.54" cy="-198" rx="111.28" ry="18"/>
<text text-anchor="middle" x="5497.54" y="-194.3" font-family="Times,serif" font-size="14.00">wrp.EntityOlroxDrool</text>
</a>
</g>
</g>
<!-- wrp.EntityOlroxDrool&#45;&gt;wrp.InitializeEntity -->
<g id="edge21" class="edge">
<title>wrp.EntityOlroxDrool&#45;&gt;wrp.InitializeEntity</title>
<path fill="none" stroke="black" d="M5417.53,-185.43C5404.18,-183.57 5390.47,-181.69 5377.54,-180 4910.25,-118.79 4349.96,-54.23 4132.32,-29.49"/>
<polygon fill="black" stroke="black" points="4132.55,-25.99 4122.22,-28.34 4131.76,-32.94 4132.55,-25.99"/>
<text text-anchor="middle" x="5412.53" y="-174.23" font-family="Times,serif" font-size="14.00">1</text>
</g>
<!-- wrp.EntityRedDoor -->
<g id="node23" class="node">
<title>wrp.EntityRedDoor</title>
<g id="a_node23"><a xlink:href="wrp.EntityRedDoor.svg" xlink:title="wrp.EntityRedDoor">
<ellipse fill="green" stroke="black" cx="5727.54" cy="-198" rx="100.98" ry="18"/>
<text text-anchor="middle" x="5727.54" y="-194.3" font-family="Times,serif" font-size="14.00">wrp.EntityRedDoor</text>
</a>
</g>
</g>
<!-- wrp.EntityRedDoor&#45;&gt;wrp.InitializeEntity -->
<g id="edge22" class="edge">
<title>wrp.EntityRedDoor&#45;&gt;wrp.InitializeEntity</title>
<path fill="none" stroke="black" d="M5655.72,-185.35C5643.02,-183.45 5629.9,-181.58 5617.54,-180 5059.86,-108.51 4388.01,-48.64 4138.82,-27.33"/>
<polygon fill="black" stroke="black" points="4138.96,-23.83 4128.7,-26.47 4138.37,-30.81 4138.96,-23.83"/>
<text text-anchor="middle" x="5650.72" y="-174.15" font-family="Times,serif" font-size="14.00">1</text>
</g>
<!-- wrp.EntityRelicOrb -->
<g id="node24" class="node">
<title>wrp.EntityRelicOrb</title>
<g id="a_node24"><a xlink:href="wrp.EntityRelicOrb.svg" xlink:title="wrp.EntityRelicOrb">
<ellipse fill="green" stroke="black" cx="5946.54" cy="-198" rx="100.98" ry="18"/>
<text text-anchor="middle" x="5946.54" y="-194.3" font-family="Times,serif" font-size="14.00">wrp.EntityRelicOrb</text>
</a>
</g>
</g>
<!-- wrp.EntityRelicOrb&#45;&gt;wrp.InitializeEntity -->
<g id="edge23" class="edge">
<title>wrp.EntityRelicOrb&#45;&gt;wrp.InitializeEntity</title>
<path fill="none" stroke="black" d="M5875.39,-185.22C5862.8,-183.33 5849.8,-181.5 5837.54,-180 5194.57,-101.16 4417.75,-44.67 4142.38,-25.84"/>
<polygon fill="black" stroke="black" points="4142.62,-22.35 4132.4,-25.16 4142.14,-29.33 4142.62,-22.35"/>
<text text-anchor="middle" x="5870.39" y="-174.02" font-family="Times,serif" font-size="14.00">1</text>
</g>
<!-- wrp.EntityRoomForeground -->
<g id="node25" class="node">
<title>wrp.EntityRoomForeground</title>
<g id="a_node25"><a xlink:href="wrp.EntityRoomForeground.svg" xlink:title="wrp.EntityRoomForeground">
<ellipse fill="green" stroke="black" cx="6206.54" cy="-198" rx="141.07" ry="18"/>
<text text-anchor="middle" x="6206.54" y="-194.3" font-family="Times,serif" font-size="14.00">wrp.EntityRoomForeground</text>
</a>
</g>
</g>
<!-- wrp.EntityRoomForeground&#45;&gt;wrp.InitializeEntity -->
<g id="edge24" class="edge">
<title>wrp.EntityRoomForeground&#45;&gt;wrp.InitializeEntity</title>
<path fill="none" stroke="black" d="M6106.94,-185.24C6090.13,-183.39 6072.84,-181.57 6056.54,-180 5323.73,-109.25 4438.96,-46.44 4142.17,-25.98"/>
<polygon fill="black" stroke="black" points="4142.08,-22.47 4131.86,-25.27 4141.6,-29.45 4142.08,-22.47"/>
<text text-anchor="middle" x="6101.94" y="-174.04" font-family="Times,serif" font-size="14.00">1</text>
</g>
<!-- wrp.EntitySoulStealOrb -->
<g id="node26" class="node">
<title>wrp.EntitySoulStealOrb</title>
<g id="a_node26"><a xlink:href="wrp.EntitySoulStealOrb.svg" xlink:title="wrp.EntitySoulStealOrb">
<ellipse fill="green" stroke="black" cx="6487.54" cy="-198" rx="122.38" ry="18"/>
<text text-anchor="middle" x="6487.54" y="-194.3" font-family="Times,serif" font-size="14.00">wrp.EntitySoulStealOrb</text>
</a>
</g>
</g>
<!-- wrp.EntitySoulStealOrb&#45;&gt;wrp.InitializeEntity -->
<g id="edge25" class="edge">
<title>wrp.EntitySoulStealOrb&#45;&gt;wrp.InitializeEntity</title>
<path fill="none" stroke="black" d="M6401.65,-185.11C6386.63,-183.24 6371.14,-181.45 6356.54,-180 5505.86,-95.32 4475.05,-40.48 4145.92,-24.13"/>
<polygon fill="black" stroke="black" points="4145.6,-20.61 4135.44,-23.61 4145.26,-27.6 4145.6,-20.61"/>
<text text-anchor="middle" x="6396.65" y="-173.91" font-family="Times,serif" font-size="14.00">1</text>
</g>
<!-- wrp.EntityUnkId12 -->
<g id="node27" class="node">
<title>wrp.EntityUnkId12</title>
<g id="a_node27"><a xlink:href="wrp.EntityUnkId12.svg" xlink:title="wrp.EntityUnkId12">
<ellipse fill="green" stroke="black" cx="6728.54" cy="-198" rx="100.98" ry="18"/>
<text text-anchor="middle" x="6728.54" y="-194.3" font-family="Times,serif" font-size="14.00">wrp.EntityUnkId12</text>
</a>
</g>
</g>
<!-- wrp.EntityUnkId12&#45;&gt;wrp.InitializeEntity -->
<g id="edge26" class="edge">
<title>wrp.EntityUnkId12&#45;&gt;wrp.InitializeEntity</title>
<path fill="none" stroke="black" d="M6657.95,-185.12C6644.87,-183.19 6631.31,-181.38 6618.54,-180 5664.06,-76.67 4503.12,-33.59 4147.92,-22.23"/>
<polygon fill="black" stroke="black" points="4148,-18.74 4137.9,-21.92 4147.78,-25.73 4148,-18.74"/>
<text text-anchor="middle" x="6652.95" y="-173.92" font-family="Times,serif" font-size="14.00">1</text>
</g>
<!-- wrp.EntityUnkId13 -->
<g id="node28" class="node">
<title>wrp.EntityUnkId13</title>
<g id="a_node28"><a xlink:href="wrp.EntityUnkId13.svg" xlink:title="wrp.EntityUnkId13">
<ellipse fill="green" stroke="black" cx="6947.54" cy="-198" rx="100.98" ry="18"/>
<text text-anchor="middle" x="6947.54" y="-194.3" font-family="Times,serif" font-size="14.00">wrp.EntityUnkId13</text>
</a>
</g>
</g>
<!-- wrp.EntityUnkId13&#45;&gt;wrp.InitializeEntity -->
<g id="edge27" class="edge">
<title>wrp.EntityUnkId13&#45;&gt;wrp.InitializeEntity</title>
<path fill="none" stroke="black" d="M6877.31,-185.02C6864.44,-183.12 6851.11,-181.34 6838.54,-180 5795.04,-68.88 4523.94,-30.73 4148.71,-21.46"/>
<polygon fill="black" stroke="black" points="4148.76,-17.96 4138.67,-21.22 4148.58,-24.96 4148.76,-17.96"/>
<text text-anchor="middle" x="6872.31" y="-173.82" font-family="Times,serif" font-size="14.00">1</text>
</g>
<!-- wrp.EntityWarpRoom -->
<g id="node29" class="node">
<title>wrp.EntityWarpRoom</title>
<g id="a_node29"><a xlink:href="wrp.EntityWarpRoom.svg" xlink:title="wrp.EntityWarpRoom">
<ellipse fill="green" stroke="black" cx="7177.54" cy="-198" rx="111.28" ry="18"/>
<text text-anchor="middle" x="7177.54" y="-194.3" font-family="Times,serif" font-size="14.00">wrp.EntityWarpRoom</text>
</a>
</g>
</g>
<!-- wrp.EntityWarpRoom&#45;&gt;wrp.InitializeEntity -->
<g id="edge28" class="edge">
<title>wrp.EntityWarpRoom&#45;&gt;wrp.InitializeEntity</title>
<path fill="none" stroke="black" d="M7100.19,-185.03C7086.03,-183.13 7071.36,-181.35 7057.54,-180 5923.89,-69.68 4542.8,-30.69 4149.01,-21.38"/>
<polygon fill="black" stroke="black" points="4148.85,-17.88 4138.77,-21.14 4148.69,-24.88 4148.85,-17.88"/>
<text text-anchor="middle" x="7095.19" y="-173.83" font-family="Times,serif" font-size="14.00">1</text>
</g>
<!-- wrp.EntityWarpSmallRocks -->
<g id="node30" class="node">
<title>wrp.EntityWarpSmallRocks</title>
<g id="a_node30"><a xlink:href="wrp.EntityWarpSmallRocks.svg" xlink:title="wrp.EntityWarpSmallRocks">
<ellipse fill="green" stroke="black" cx="7445.54" cy="-198" rx="138.38" ry="18"/>
<text text-anchor="middle" x="7445.54" y="-194.3" font-family="Times,serif" font-size="14.00">wrp.EntityWarpSmallRocks</text>
</a>
</g>
</g>
<!-- wrp.EntityWarpSmallRocks&#45;&gt;wrp.InitializeEntity -->
<g id="edge29" class="edge">
<title>wrp.EntityWarpSmallRocks&#45;&gt;wrp.InitializeEntity</title>
<path fill="none" stroke="black" d="M7349.3,-185.03C7332.08,-183.15 7314.29,-181.37 7297.54,-180 6063.33,-78.73 4560.48,-33 4148.43,-21.81"/>
<polygon fill="black" stroke="black" points="4148.41,-18.31 4138.32,-21.54 4148.22,-25.31 4148.41,-18.31"/>
<text text-anchor="middle" x="7344.3" y="-173.83" font-family="Times,serif" font-size="14.00">1</text>
</g>
<!-- wrp.InitializeUnkEntity -->
<g id="node31" class="node">
<title>wrp.InitializeUnkEntity</title>
<g id="a_node31"><a xlink:href="wrp.InitializeUnkEntity.svg" xlink:title="wrp.InitializeUnkEntity">
<ellipse fill="green" stroke="black" cx="7722.54" cy="-198" rx="120.48" ry="18"/>
<text text-anchor="middle" x="7722.54" y="-194.3" font-family="Times,serif" font-size="14.00">wrp.InitializeUnkEntity</text>
</a>
</g>
</g>
<!-- wrp.InitializeUnkEntity&#45;&gt;wrp.InitializeEntity -->
<g id="edge30" class="edge">
<title>wrp.InitializeUnkEntity&#45;&gt;wrp.InitializeEntity</title>
<path fill="none" stroke="black" d="M7639.08,-185.02C7623.63,-183.11 7607.62,-181.33 7592.54,-180 6238.82,-61.03 4586.77,-27.63 4149.81,-20.59"/>
<polygon fill="black" stroke="black" points="4149.77,-17.09 4139.71,-20.43 4149.65,-24.09 4149.77,-17.09"/>
<text text-anchor="middle" x="7634.08" y="-173.82" font-family="Times,serif" font-size="14.00">1</text>
</g>
</g>
</svg>
