<?xml version="1.0" encoding="UTF-8" standalone="no"?>
<!DOCTYPE svg PUBLIC "-//W3C//DTD SVG 1.1//EN"
 "http://www.w3.org/Graphics/SVG/1.1/DTD/svg11.dtd">
<!-- Generated by graphviz version 2.43.0 (0)
 -->
<!-- Title: wrp.Random Pages: 1 -->
<svg width="2779pt" height="224pt"
 viewBox="0.00 0.00 2779.48 224.00" xmlns="http://www.w3.org/2000/svg" xmlns:xlink="http://www.w3.org/1999/xlink">
<g id="graph0" class="graph" transform="scale(1 1) rotate(0) translate(4 220)">
<title>wrp.Random</title>
<polygon fill="white" stroke="transparent" points="-4,4 -4,-220 2775.48,-220 2775.48,4 -4,4"/>
<!-- wrp.Random -->
<g id="node1" class="node">
<title>wrp.Random</title>
<ellipse fill="green" stroke="black" cx="1480.99" cy="-18" rx="69.59" ry="18"/>
<text text-anchor="middle" x="1480.99" y="-14.3" font-family="Times,serif" font-size="14.00">wrp.Random</text>
</g>
<!-- rwrp.EntityWarpSmallRocks -->
<g id="node2" class="node">
<title>rwrp.EntityWarpSmallRocks</title>
<g id="a_node2"><a xlink:href="rwrp.EntityWarpSmallRocks.svg" xlink:title="rwrp.EntityWarpSmallRocks">
<ellipse fill="green" stroke="black" cx="142.99" cy="-198" rx="142.97" ry="18"/>
<text text-anchor="middle" x="142.99" y="-194.3" font-family="Times,serif" font-size="14.00">rwrp.EntityWarpSmallRocks</text>
</a>
</g>
</g>
<!-- rwrp.EntityWarpSmallRocks&#45;&gt;wrp.Random -->
<g id="edge1" class="edge">
<title>rwrp.EntityWarpSmallRocks&#45;&gt;wrp.Random</title>
<path fill="none" stroke="black" d="M237.34,-184.45C491.53,-150.63 1186.54,-58.17 1410.46,-28.38"/>
<polygon fill="black" stroke="black" points="1411,-31.84 1420.45,-27.05 1410.08,-24.9 1411,-31.84"/>
<text text-anchor="middle" x="232.34" y="-173.25" font-family="Times,serif" font-size="14.00">4</text>
</g>
<!-- rwrp.MakeExplosions -->
<g id="node3" class="node">
<title>rwrp.MakeExplosions</title>
<g id="a_node3"><a xlink:href="rwrp.MakeExplosions.svg" xlink:title="rwrp.MakeExplosions">
<ellipse fill="green" stroke="black" cx="415.99" cy="-198" rx="111.58" ry="18"/>
<text text-anchor="middle" x="415.99" y="-194.3" font-family="Times,serif" font-size="14.00">rwrp.MakeExplosions</text>
</a>
</g>
</g>
<!-- rwrp.MakeExplosions&#45;&gt;wrp.Random -->
<g id="edge2" class="edge">
<title>rwrp.MakeExplosions&#45;&gt;wrp.Random</title>
<path fill="none" stroke="black" d="M490.45,-184.55C688.37,-151.47 1225.24,-61.75 1414.14,-30.17"/>
<polygon fill="black" stroke="black" points="1414.92,-33.59 1424.21,-28.49 1413.77,-26.69 1414.92,-33.59"/>
<text text-anchor="middle" x="485.45" y="-173.35" font-family="Times,serif" font-size="14.00">2</text>
</g>
<!-- wrp.EntityEnemyBlood -->
<g id="node4" class="node">
<title>wrp.EntityEnemyBlood</title>
<g id="a_node4"><a xlink:href="wrp.EntityEnemyBlood.svg" xlink:title="wrp.EntityEnemyBlood">
<ellipse fill="green" stroke="black" cx="664.99" cy="-198" rx="118.88" ry="18"/>
<text text-anchor="middle" x="664.99" y="-194.3" font-family="Times,serif" font-size="14.00">wrp.EntityEnemyBlood</text>
</a>
</g>
</g>
<!-- wrp.EntityEnemyBlood&#45;&gt;wrp.Random -->
<g id="edge3" class="edge">
<title>wrp.EntityEnemyBlood&#45;&gt;wrp.Random</title>
<path fill="none" stroke="black" d="M729.7,-182.88C883.54,-149.32 1269.49,-65.14 1419.76,-32.36"/>
<polygon fill="black" stroke="black" points="1420.71,-35.73 1429.74,-30.18 1419.22,-28.89 1420.71,-35.73"/>
<text text-anchor="middle" x="724.7" y="-171.68" font-family="Times,serif" font-size="14.00">5</text>
</g>
<!-- wrp.EntitySoulStealOrb -->
<g id="node5" class="node">
<title>wrp.EntitySoulStealOrb</title>
<g id="a_node5"><a xlink:href="wrp.EntitySoulStealOrb.svg" xlink:title="wrp.EntitySoulStealOrb">
<ellipse fill="green" stroke="black" cx="923.99" cy="-198" rx="122.38" ry="18"/>
<text text-anchor="middle" x="923.99" y="-194.3" font-family="Times,serif" font-size="14.00">wrp.EntitySoulStealOrb</text>
</a>
</g>
</g>
<!-- wrp.EntitySoulStealOrb&#45;&gt;wrp.Random -->
<g id="edge4" class="edge">
<title>wrp.EntitySoulStealOrb&#45;&gt;wrp.Random</title>
<path fill="none" stroke="black" d="M972.93,-181.36C1077.57,-147.92 1322.24,-69.73 1429.29,-35.52"/>
<polygon fill="black" stroke="black" points="1430.45,-38.83 1438.91,-32.45 1428.32,-32.16 1430.45,-38.83"/>
<text text-anchor="middle" x="967.93" y="-170.16" font-family="Times,serif" font-size="14.00">2</text>
</g>
<!-- wrp.EntityStageNamePopup -->
<g id="node6" class="node">
<title>wrp.EntityStageNamePopup</title>
<g id="a_node6"><a xlink:href="wrp.EntityStageNamePopup.svg" xlink:title="wrp.EntityStageNamePopup">
<ellipse fill="green" stroke="black" cx="1207.99" cy="-198" rx="143.77" ry="18"/>
<text text-anchor="middle" x="1207.99" y="-194.3" font-family="Times,serif" font-size="14.00">wrp.EntityStageNamePopup</text>
</a>
</g>
</g>
<!-- wrp.EntityStageNamePopup&#45;&gt;wrp.Random -->
<g id="edge5" class="edge">
<title>wrp.EntityStageNamePopup&#45;&gt;wrp.Random</title>
<path fill="none" stroke="black" d="M1233.67,-180.25C1283.34,-147.87 1392.49,-76.7 1447.67,-40.73"/>
<polygon fill="black" stroke="black" points="1449.89,-43.45 1456.36,-35.06 1446.07,-37.59 1449.89,-43.45"/>
<text text-anchor="middle" x="1228.67" y="-169.05" font-family="Times,serif" font-size="14.00">4</text>
</g>
<!-- wrp.EntityWarpRoom -->
<g id="node7" class="node">
<title>wrp.EntityWarpRoom</title>
<g id="a_node7"><a xlink:href="wrp.EntityWarpRoom.svg" xlink:title="wrp.EntityWarpRoom">
<ellipse fill="green" stroke="black" cx="1480.99" cy="-198" rx="111.28" ry="18"/>
<text text-anchor="middle" x="1480.99" y="-194.3" font-family="Times,serif" font-size="14.00">wrp.EntityWarpRoom</text>
</a>
</g>
</g>
<!-- wrp.EntityWarpRoom&#45;&gt;wrp.Random -->
<g id="edge6" class="edge">
<title>wrp.EntityWarpRoom&#45;&gt;wrp.Random</title>
<path fill="none" stroke="black" d="M1480.99,-179.93C1480.99,-148.97 1480.99,-83.3 1480.99,-46.13"/>
<polygon fill="black" stroke="black" points="1484.49,-46.02 1480.99,-36.02 1477.49,-46.02 1484.49,-46.02"/>
<text text-anchor="middle" x="1475.99" y="-168.73" font-family="Times,serif" font-size="14.00">1</text>
</g>
<!-- wrp.EntityWarpSmallRocks -->
<g id="node8" class="node">
<title>wrp.EntityWarpSmallRocks</title>
<g id="a_node8"><a xlink:href="wrp.EntityWarpSmallRocks.svg" xlink:title="wrp.EntityWarpSmallRocks">
<ellipse fill="green" stroke="black" cx="1748.99" cy="-198" rx="138.38" ry="18"/>
<text text-anchor="middle" x="1748.99" y="-194.3" font-family="Times,serif" font-size="14.00">wrp.EntityWarpSmallRocks</text>
</a>
</g>
</g>
<!-- wrp.EntityWarpSmallRocks&#45;&gt;wrp.Random -->
<g id="edge7" class="edge">
<title>wrp.EntityWarpSmallRocks&#45;&gt;wrp.Random</title>
<path fill="none" stroke="black" d="M1723.77,-180.25C1675.02,-147.87 1567.86,-76.7 1513.7,-40.73"/>
<polygon fill="black" stroke="black" points="1515.43,-37.68 1505.16,-35.06 1511.56,-43.51 1515.43,-37.68"/>
<text text-anchor="middle" x="1718.77" y="-169.05" font-family="Times,serif" font-size="14.00">4</text>
</g>
<!-- wrp.HitDetection -->
<g id="node9" class="node">
<title>wrp.HitDetection</title>
<g id="a_node9"><a xlink:href="wrp.HitDetection.svg" xlink:title="wrp.HitDetection">
<ellipse fill="green" stroke="black" cx="1995.99" cy="-198" rx="90.98" ry="18"/>
<text text-anchor="middle" x="1995.99" y="-194.3" font-family="Times,serif" font-size="14.00">wrp.HitDetection</text>
</a>
</g>
</g>
<!-- wrp.HitDetection&#45;&gt;wrp.Random -->
<g id="edge8" class="edge">
<title>wrp.HitDetection&#45;&gt;wrp.Random</title>
<path fill="none" stroke="black" d="M1952.96,-182.13C1858.09,-149.34 1631.38,-70.98 1530.66,-36.17"/>
<polygon fill="black" stroke="black" points="1531.63,-32.8 1521.03,-32.84 1529.34,-39.42 1531.63,-32.8"/>
<text text-anchor="middle" x="1947.96" y="-170.93" font-family="Times,serif" font-size="14.00">2</text>
</g>
<!-- wrp.InitRoomEntities -->
<g id="node10" class="node">
<title>wrp.InitRoomEntities</title>
<g id="a_node10"><a xlink:href="wrp.InitRoomEntities.svg" xlink:title="wrp.InitRoomEntities">
<ellipse fill="green" stroke="black" cx="2214.99" cy="-198" rx="110.48" ry="18"/>
<text text-anchor="middle" x="2214.99" y="-194.3" font-family="Times,serif" font-size="14.00">wrp.InitRoomEntities</text>
</a>
</g>
</g>
<!-- wrp.InitRoomEntities&#45;&gt;wrp.Random -->
<g id="edge9" class="edge">
<title>wrp.InitRoomEntities&#45;&gt;wrp.Random</title>
<path fill="none" stroke="black" d="M2156.16,-182.73C2018.6,-149.37 1677.16,-66.57 1539.7,-33.24"/>
<polygon fill="black" stroke="black" points="1540.32,-29.79 1529.77,-30.83 1538.67,-36.59 1540.32,-29.79"/>
<text text-anchor="middle" x="2151.16" y="-171.53" font-family="Times,serif" font-size="14.00">1</text>
</g>
<!-- wrp.MakeExplosions -->
<g id="node11" class="node">
<title>wrp.MakeExplosions</title>
<g id="a_node11"><a xlink:href="wrp.MakeExplosions.svg" xlink:title="wrp.MakeExplosions">
<ellipse fill="green" stroke="black" cx="2450.99" cy="-198" rx="107.48" ry="18"/>
<text text-anchor="middle" x="2450.99" y="-194.3" font-family="Times,serif" font-size="14.00">wrp.MakeExplosions</text>
</a>
</g>
</g>
<!-- wrp.MakeExplosions&#45;&gt;wrp.Random -->
<g id="edge10" class="edge">
<title>wrp.MakeExplosions&#45;&gt;wrp.Random</title>
<path fill="none" stroke="black" d="M2381.62,-184.27C2201.48,-151.21 1720.72,-62.99 1545.79,-30.89"/>
<polygon fill="black" stroke="black" points="1546.42,-27.45 1535.95,-29.09 1545.16,-34.33 1546.42,-27.45"/>
<text text-anchor="middle" x="2376.62" y="-173.07" font-family="Times,serif" font-size="14.00">2</text>
</g>
<!-- wrp.UnkAnimFunc -->
<g id="node12" class="node">
<title>wrp.UnkAnimFunc</title>
<g id="a_node12"><a xlink:href="wrp.UnkAnimFunc.svg" xlink:title="wrp.UnkAnimFunc">
<ellipse fill="green" stroke="black" cx="2673.99" cy="-198" rx="97.48" ry="18"/>
<text text-anchor="middle" x="2673.99" y="-194.3" font-family="Times,serif" font-size="14.00">wrp.UnkAnimFunc</text>
</a>
</g>
</g>
<!-- wrp.UnkAnimFunc&#45;&gt;wrp.Random -->
<g id="edge11" class="edge">
<title>wrp.UnkAnimFunc&#45;&gt;wrp.Random</title>
<path fill="none" stroke="black" d="M2602.92,-185.6C2590.93,-183.71 2578.61,-181.78 2566.99,-180 2183.01,-121.04 1722.07,-53.91 1550.1,-28.99"/>
<polygon fill="black" stroke="black" points="1550.57,-25.52 1540.17,-27.55 1549.57,-32.45 1550.57,-25.52"/>
<text text-anchor="middle" x="2597.92" y="-174.4" font-family="Times,serif" font-size="14.00">1</text>
</g>
</g>
</svg>
