<?xml version="1.0" encoding="UTF-8" standalone="no"?>
<!DOCTYPE svg PUBLIC "-//W3C//DTD SVG 1.1//EN"
 "http://www.w3.org/Graphics/SVG/1.1/DTD/svg11.dtd">
<!-- Generated by graphviz version 2.43.0 (0)
 -->
<!-- Title: wrp.BlinkItem Pages: 1 -->
<svg width="1011pt" height="224pt"
 viewBox="0.00 0.00 1011.23 224.00" xmlns="http://www.w3.org/2000/svg" xmlns:xlink="http://www.w3.org/1999/xlink">
<g id="graph0" class="graph" transform="scale(1 1) rotate(0) translate(4 220)">
<title>wrp.BlinkItem</title>
<polygon fill="white" stroke="transparent" points="-4,4 -4,-220 1007.23,-220 1007.23,4 -4,4"/>
<!-- wrp.BlinkItem -->
<g id="node1" class="node">
<title>wrp.BlinkItem</title>
<ellipse fill="green" stroke="black" cx="523.49" cy="-18" rx="77.19" ry="18"/>
<text text-anchor="middle" x="523.49" y="-14.3" font-family="Times,serif" font-size="14.00">wrp.BlinkItem</text>
</g>
<!-- rwrp.EntityEquipItemDrop -->
<g id="node2" class="node">
<title>rwrp.EntityEquipItemDrop</title>
<g id="a_node2"><a xlink:href="rwrp.EntityEquipItemDrop.svg" xlink:title="rwrp.EntityEquipItemDrop">
<ellipse fill="green" stroke="black" cx="136.49" cy="-198" rx="136.48" ry="18"/>
<text text-anchor="middle" x="136.49" y="-194.3" font-family="Times,serif" font-size="14.00">rwrp.EntityEquipItemDrop</text>
</a>
</g>
</g>
<!-- rwrp.EntityEquipItemDrop&#45;&gt;wrp.BlinkItem -->
<g id="edge1" class="edge">
<title>rwrp.EntityEquipItemDrop&#45;&gt;wrp.BlinkItem</title>
<path fill="none" stroke="black" d="M172.2,-180.57C243.62,-147.72 403.77,-74.06 480.68,-38.69"/>
<polygon fill="black" stroke="black" points="482.45,-41.73 490.07,-34.37 479.53,-35.37 482.45,-41.73"/>
<text text-anchor="middle" x="167.2" y="-169.37" font-family="Times,serif" font-size="14.00">1</text>
</g>
<!-- rwrp.EntityRelicOrb -->
<g id="node3" class="node">
<title>rwrp.EntityRelicOrb</title>
<g id="a_node3"><a xlink:href="rwrp.EntityRelicOrb.svg" xlink:title="rwrp.EntityRelicOrb">
<ellipse fill="green" stroke="black" cx="396.49" cy="-198" rx="105.08" ry="18"/>
<text text-anchor="middle" x="396.49" y="-194.3" font-family="Times,serif" font-size="14.00">rwrp.EntityRelicOrb</text>
</a>
</g>
</g>
<!-- rwrp.EntityRelicOrb&#45;&gt;wrp.BlinkItem -->
<g id="edge2" class="edge">
<title>rwrp.EntityRelicOrb&#45;&gt;wrp.BlinkItem</title>
<path fill="none" stroke="black" d="M408.67,-179.93C431.14,-148.43 479.23,-81.03 505.48,-44.24"/>
<polygon fill="black" stroke="black" points="508.39,-46.19 511.35,-36.02 502.69,-42.12 508.39,-46.19"/>
<text text-anchor="middle" x="403.67" y="-168.73" font-family="Times,serif" font-size="14.00">1</text>
</g>
<!-- wrp.EntityEquipItemDrop -->
<g id="node4" class="node">
<title>wrp.EntityEquipItemDrop</title>
<g id="a_node4"><a xlink:href="wrp.EntityEquipItemDrop.svg" xlink:title="wrp.EntityEquipItemDrop">
<ellipse fill="green" stroke="black" cx="651.49" cy="-198" rx="131.88" ry="18"/>
<text text-anchor="middle" x="651.49" y="-194.3" font-family="Times,serif" font-size="14.00">wrp.EntityEquipItemDrop</text>
</a>
</g>
</g>
<!-- wrp.EntityEquipItemDrop&#45;&gt;wrp.BlinkItem -->
<g id="edge3" class="edge">
<title>wrp.EntityEquipItemDrop&#45;&gt;wrp.BlinkItem</title>
<path fill="none" stroke="black" d="M639.21,-179.93C616.56,-148.43 568.1,-81.03 541.64,-44.24"/>
<polygon fill="black" stroke="black" points="544.4,-42.09 535.72,-36.02 538.72,-46.18 544.4,-42.09"/>
<text text-anchor="middle" x="634.21" y="-168.73" font-family="Times,serif" font-size="14.00">1</text>
</g>
<!-- wrp.EntityRelicOrb -->
<g id="node5" class="node">
<title>wrp.EntityRelicOrb</title>
<g id="a_node5"><a xlink:href="wrp.EntityRelicOrb.svg" xlink:title="wrp.EntityRelicOrb">
<ellipse fill="green" stroke="black" cx="902.49" cy="-198" rx="100.98" ry="18"/>
<text text-anchor="middle" x="902.49" y="-194.3" font-family="Times,serif" font-size="14.00">wrp.EntityRelicOrb</text>
</a>
</g>
</g>
<!-- wrp.EntityRelicOrb&#45;&gt;wrp.BlinkItem -->
<g id="edge4" class="edge">
<title>wrp.EntityRelicOrb&#45;&gt;wrp.BlinkItem</title>
<path fill="none" stroke="black" d="M868.52,-181.05C799.09,-148.44 641.08,-74.23 565.41,-38.69"/>
<polygon fill="black" stroke="black" points="566.7,-35.43 556.16,-34.35 563.73,-41.77 566.7,-35.43"/>
<text text-anchor="middle" x="863.52" y="-169.85" font-family="Times,serif" font-size="14.00">1</text>
</g>
</g>
</svg>
