<?xml version="1.0" encoding="UTF-8" standalone="no"?>
<!DOCTYPE svg PUBLIC "-//W3C//DTD SVG 1.1//EN"
 "http://www.w3.org/Graphics/SVG/1.1/DTD/svg11.dtd">
<!-- Generated by graphviz version 2.43.0 (0)
 -->
<!-- Title: wrp.StageNamePopupHelper Pages: 1 -->
<svg width="608pt" height="404pt"
 viewBox="0.00 0.00 608.17 404.00" xmlns="http://www.w3.org/2000/svg" xmlns:xlink="http://www.w3.org/1999/xlink">
<g id="graph0" class="graph" transform="scale(1 1) rotate(0) translate(4 400)">
<title>wrp.StageNamePopupHelper</title>
<polygon fill="white" stroke="transparent" points="-4,4 -4,-400 604.17,-400 604.17,4 -4,4"/>
<!-- wrp.StageNamePopupHelper -->
<g id="node1" class="node">
<title>wrp.StageNamePopupHelper</title>
<ellipse fill="green" stroke="black" cx="301.54" cy="-198" rx="146.47" ry="18"/>
<text text-anchor="middle" x="301.54" y="-194.3" font-family="Times,serif" font-size="14.00">wrp.StageNamePopupHelper</text>
</g>
<!-- rwrp.PrimDecreaseBrightness -->
<g id="node2" class="node">
<title>rwrp.PrimDecreaseBrightness</title>
<g id="a_node2"><a xlink:href="rwrp.PrimDecreaseBrightness.svg" xlink:title="rwrp.PrimDecreaseBrightness">
<ellipse fill="green" stroke="black" cx="301.54" cy="-18" rx="152.17" ry="18"/>
<text text-anchor="middle" x="301.54" y="-14.3" font-family="Times,serif" font-size="14.00">rwrp.PrimDecreaseBrightness</text>
</a>
</g>
</g>
<!-- wrp.StageNamePopupHelper&#45;&gt;rwrp.PrimDecreaseBrightness -->
<g id="edge1" class="edge">
<title>wrp.StageNamePopupHelper&#45;&gt;rwrp.PrimDecreaseBrightness</title>
<path fill="none" stroke="black" d="M301.54,-179.93C301.54,-148.97 301.54,-83.3 301.54,-46.13"/>
<polygon fill="black" stroke="black" points="305.04,-46.02 301.54,-36.02 298.04,-46.02 305.04,-46.02"/>
<text text-anchor="middle" x="296.54" y="-39.82" font-family="Times,serif" font-size="14.00">1</text>
</g>
<!-- rwrp.EntityStageNamePopup -->
<g id="node3" class="node">
<title>rwrp.EntityStageNamePopup</title>
<g id="a_node3"><a xlink:href="rwrp.EntityStageNamePopup.svg" xlink:title="rwrp.EntityStageNamePopup">
<ellipse fill="green" stroke="black" cx="147.54" cy="-378" rx="147.57" ry="18"/>
<text text-anchor="middle" x="147.54" y="-374.3" font-family="Times,serif" font-size="14.00">rwrp.EntityStageNamePopup</text>
</a>
</g>
</g>
<!-- rwrp.EntityStageNamePopup&#45;&gt;wrp.StageNamePopupHelper -->
<g id="edge2" class="edge">
<title>rwrp.EntityStageNamePopup&#45;&gt;wrp.StageNamePopupHelper</title>
<path fill="none" stroke="black" d="M162.3,-359.93C189.67,-328.3 248.36,-260.46 280.1,-223.78"/>
<polygon fill="black" stroke="black" points="282.92,-225.87 286.82,-216.02 277.63,-221.29 282.92,-225.87"/>
<text text-anchor="middle" x="157.3" y="-348.73" font-family="Times,serif" font-size="14.00">2</text>
</g>
<!-- wrp.EntityStageNamePopup -->
<g id="node4" class="node">
<title>wrp.EntityStageNamePopup</title>
<g id="a_node4"><a xlink:href="wrp.EntityStageNamePopup.svg" xlink:title="wrp.EntityStageNamePopup">
<ellipse fill="green" stroke="black" cx="456.54" cy="-378" rx="143.77" ry="18"/>
<text text-anchor="middle" x="456.54" y="-374.3" font-family="Times,serif" font-size="14.00">wrp.EntityStageNamePopup</text>
</a>
</g>
</g>
<!-- wrp.EntityStageNamePopup&#45;&gt;wrp.StageNamePopupHelper -->
<g id="edge3" class="edge">
<title>wrp.EntityStageNamePopup&#45;&gt;wrp.StageNamePopupHelper</title>
<path fill="none" stroke="black" d="M441.67,-359.93C414.13,-328.3 355.06,-260.46 323.11,-223.78"/>
<polygon fill="black" stroke="black" points="325.56,-221.26 316.35,-216.02 320.28,-225.86 325.56,-221.26"/>
<text text-anchor="middle" x="436.67" y="-348.73" font-family="Times,serif" font-size="14.00">2</text>
</g>
</g>
</svg>
