<?xml version="1.0" encoding="UTF-8" standalone="no"?>
<!DOCTYPE svg PUBLIC "-//W3C//DTD SVG 1.1//EN"
 "http://www.w3.org/Graphics/SVG/1.1/DTD/svg11.dtd">
<!-- Generated by graphviz version 2.43.0 (0)
 -->
<!-- Title: wrp.func_80186FD0 Pages: 1 -->
<svg width="426pt" height="224pt"
 viewBox="0.00 0.00 425.53 224.00" xmlns="http://www.w3.org/2000/svg" xmlns:xlink="http://www.w3.org/1999/xlink">
<g id="graph0" class="graph" transform="scale(1 1) rotate(0) translate(4 220)">
<title>wrp.func_80186FD0</title>
<polygon fill="white" stroke="transparent" points="-4,4 -4,-220 421.53,-220 421.53,4 -4,4"/>
<!-- wrp.func_80186FD0 -->
<g id="node1" class="node">
<title>wrp.func_80186FD0</title>
<ellipse fill="green" stroke="black" cx="207.79" cy="-198" rx="104.78" ry="18"/>
<text text-anchor="middle" x="207.79" y="-194.3" font-family="Times,serif" font-size="14.00">wrp.func_80186FD0</text>
</g>
<!-- wrp.AnimateEntity -->
<g id="node2" class="node">
<title>wrp.AnimateEntity</title>
<g id="a_node2"><a xlink:href="wrp.AnimateEntity.svg" xlink:title="wrp.AnimateEntity">
<ellipse fill="green" stroke="black" cx="98.79" cy="-18" rx="98.58" ry="18"/>
<text text-anchor="middle" x="98.79" y="-14.3" font-family="Times,serif" font-size="14.00">wrp.AnimateEntity</text>
</a>
</g>
</g>
<!-- wrp.func_80186FD0&#45;&gt;wrp.AnimateEntity -->
<g id="edge1" class="edge">
<title>wrp.func_80186FD0&#45;&gt;wrp.AnimateEntity</title>
<path fill="none" stroke="black" d="M197.34,-179.93C178.13,-148.57 137.13,-81.6 114.53,-44.71"/>
<polygon fill="black" stroke="black" points="117.42,-42.72 109.21,-36.02 111.45,-46.37 117.42,-42.72"/>
<text text-anchor="middle" x="104.21" y="-39.82" font-family="Times,serif" font-size="14.00">1</text>
</g>
<!-- wrp.InitializeEntity -->
<g id="node3" class="node">
<title>wrp.InitializeEntity</title>
<g id="a_node3"><a xlink:href="wrp.InitializeEntity.svg" xlink:title="wrp.InitializeEntity">
<ellipse fill="green" stroke="black" cx="316.79" cy="-18" rx="100.98" ry="18"/>
<text text-anchor="middle" x="316.79" y="-14.3" font-family="Times,serif" font-size="14.00">wrp.InitializeEntity</text>
</a>
</g>
</g>
<!-- wrp.func_80186FD0&#45;&gt;wrp.InitializeEntity -->
<g id="edge2" class="edge">
<title>wrp.func_80186FD0&#45;&gt;wrp.InitializeEntity</title>
<path fill="none" stroke="black" d="M218.24,-179.93C237.45,-148.57 278.46,-81.6 301.05,-44.71"/>
<polygon fill="black" stroke="black" points="304.13,-46.37 306.37,-36.02 298.16,-42.72 304.13,-46.37"/>
<text text-anchor="middle" x="301.37" y="-39.82" font-family="Times,serif" font-size="14.00">1</text>
</g>
</g>
</svg>
