<?xml version="1.0" encoding="UTF-8" standalone="no"?>
<!DOCTYPE svg PUBLIC "-//W3C//DTD SVG 1.1//EN"
 "http://www.w3.org/Graphics/SVG/1.1/DTD/svg11.dtd">
<!-- Generated by graphviz version 2.43.0 (0)
 -->
<!-- Title: wrp.CreateEntityFromEntity Pages: 1 -->
<svg width="851pt" height="404pt"
 viewBox="0.00 0.00 850.78 404.00" xmlns="http://www.w3.org/2000/svg" xmlns:xlink="http://www.w3.org/1999/xlink">
<g id="graph0" class="graph" transform="scale(1 1) rotate(0) translate(4 400)">
<title>wrp.CreateEntityFromEntity</title>
<polygon fill="white" stroke="transparent" points="-4,4 -4,-400 846.78,-400 846.78,4 -4,4"/>
<!-- wrp.CreateEntityFromEntity -->
<g id="node1" class="node">
<title>wrp.CreateEntityFromEntity</title>
<ellipse fill="green" stroke="black" cx="414.54" cy="-198" rx="145.67" ry="18"/>
<text text-anchor="middle" x="414.54" y="-194.3" font-family="Times,serif" font-size="14.00">wrp.CreateEntityFromEntity</text>
</g>
<!-- dra.DestroyEntity -->
<g id="node2" class="node">
<title>dra.DestroyEntity</title>
<g id="a_node2"><a xlink:href="dra.DestroyEntity.svg" xlink:title="dra.DestroyEntity">
<ellipse fill="green" stroke="black" cx="414.54" cy="-18" rx="94.78" ry="18"/>
<text text-anchor="middle" x="414.54" y="-14.3" font-family="Times,serif" font-size="14.00">dra.DestroyEntity</text>
</a>
</g>
</g>
<!-- wrp.CreateEntityFromEntity&#45;&gt;dra.DestroyEntity -->
<g id="edge1" class="edge">
<title>wrp.CreateEntityFromEntity&#45;&gt;dra.DestroyEntity</title>
<path fill="none" stroke="black" d="M414.54,-179.93C414.54,-148.97 414.54,-83.3 414.54,-46.13"/>
<polygon fill="black" stroke="black" points="418.04,-46.02 414.54,-36.02 411.04,-46.02 418.04,-46.02"/>
<text text-anchor="middle" x="409.54" y="-39.82" font-family="Times,serif" font-size="14.00">1</text>
</g>
<!-- rwrp.HitDetection -->
<g id="node3" class="node">
<title>rwrp.HitDetection</title>
<g id="a_node3"><a xlink:href="rwrp.HitDetection.svg" xlink:title="rwrp.HitDetection">
<ellipse fill="green" stroke="black" cx="95.54" cy="-378" rx="95.58" ry="18"/>
<text text-anchor="middle" x="95.54" y="-374.3" font-family="Times,serif" font-size="14.00">rwrp.HitDetection</text>
</a>
</g>
</g>
<!-- rwrp.HitDetection&#45;&gt;wrp.CreateEntityFromEntity -->
<g id="edge2" class="edge">
<title>rwrp.HitDetection&#45;&gt;wrp.CreateEntityFromEntity</title>
<path fill="none" stroke="black" d="M124.7,-360.73C182.31,-328.58 310.76,-256.91 375.56,-220.75"/>
<polygon fill="black" stroke="black" points="377.62,-223.61 384.64,-215.68 374.21,-217.5 377.62,-223.61"/>
<text text-anchor="middle" x="119.7" y="-349.53" font-family="Times,serif" font-size="14.00">3</text>
</g>
<!-- wrp.EntityUnkId13 -->
<g id="node4" class="node">
<title>wrp.EntityUnkId13</title>
<g id="a_node4"><a xlink:href="wrp.EntityUnkId13.svg" xlink:title="wrp.EntityUnkId13">
<ellipse fill="green" stroke="black" cx="309.54" cy="-378" rx="100.98" ry="18"/>
<text text-anchor="middle" x="309.54" y="-374.3" font-family="Times,serif" font-size="14.00">wrp.EntityUnkId13</text>
</a>
</g>
</g>
<!-- wrp.EntityUnkId13&#45;&gt;wrp.CreateEntityFromEntity -->
<g id="edge3" class="edge">
<title>wrp.EntityUnkId13&#45;&gt;wrp.CreateEntityFromEntity</title>
<path fill="none" stroke="black" d="M319.61,-359.93C338.11,-328.57 377.61,-261.6 399.38,-224.71"/>
<polygon fill="black" stroke="black" points="402.44,-226.41 404.5,-216.02 396.41,-222.85 402.44,-226.41"/>
<text text-anchor="middle" x="314.61" y="-348.73" font-family="Times,serif" font-size="14.00">1</text>
</g>
<!-- wrp.HitDetection -->
<g id="node5" class="node">
<title>wrp.HitDetection</title>
<g id="a_node5"><a xlink:href="wrp.HitDetection.svg" xlink:title="wrp.HitDetection">
<ellipse fill="green" stroke="black" cx="519.54" cy="-378" rx="90.98" ry="18"/>
<text text-anchor="middle" x="519.54" y="-374.3" font-family="Times,serif" font-size="14.00">wrp.HitDetection</text>
</a>
</g>
</g>
<!-- wrp.HitDetection&#45;&gt;wrp.CreateEntityFromEntity -->
<g id="edge4" class="edge">
<title>wrp.HitDetection&#45;&gt;wrp.CreateEntityFromEntity</title>
<path fill="none" stroke="black" d="M509.47,-359.93C490.97,-328.57 451.47,-261.6 429.71,-224.71"/>
<polygon fill="black" stroke="black" points="432.67,-222.85 424.58,-216.02 426.65,-226.41 432.67,-222.85"/>
<text text-anchor="middle" x="504.47" y="-348.73" font-family="Times,serif" font-size="14.00">3</text>
</g>
<!-- wrp.MakeExplosions -->
<g id="node6" class="node">
<title>wrp.MakeExplosions</title>
<g id="a_node6"><a xlink:href="wrp.MakeExplosions.svg" xlink:title="wrp.MakeExplosions">
<ellipse fill="green" stroke="black" cx="735.54" cy="-378" rx="107.48" ry="18"/>
<text text-anchor="middle" x="735.54" y="-374.3" font-family="Times,serif" font-size="14.00">wrp.MakeExplosions</text>
</a>
</g>
</g>
<!-- wrp.MakeExplosions&#45;&gt;wrp.CreateEntityFromEntity -->
<g id="edge5" class="edge">
<title>wrp.MakeExplosions&#45;&gt;wrp.CreateEntityFromEntity</title>
<path fill="none" stroke="black" d="M705.92,-360.57C647.78,-328.34 518.75,-256.79 453.68,-220.7"/>
<polygon fill="black" stroke="black" points="455,-217.43 444.56,-215.65 451.61,-223.56 455,-217.43"/>
<text text-anchor="middle" x="700.92" y="-349.37" font-family="Times,serif" font-size="14.00">1</text>
</g>
</g>
</svg>
