<?xml version="1.0" encoding="UTF-8" standalone="no"?>
<!DOCTYPE svg PUBLIC "-//W3C//DTD SVG 1.1//EN"
 "http://www.w3.org/Graphics/SVG/1.1/DTD/svg11.dtd">
<!-- Generated by graphviz version 2.43.0 (0)
 -->
<!-- Title: wrp.EntityUnkId13 Pages: 1 -->
<svg width="949pt" height="224pt"
 viewBox="0.00 0.00 949.38 224.00" xmlns="http://www.w3.org/2000/svg" xmlns:xlink="http://www.w3.org/1999/xlink">
<g id="graph0" class="graph" transform="scale(1 1) rotate(0) translate(4 220)">
<title>wrp.EntityUnkId13</title>
<polygon fill="white" stroke="transparent" points="-4,4 -4,-220 945.38,-220 945.38,4 -4,4"/>
<!-- wrp.EntityUnkId13 -->
<g id="node1" class="node">
<title>wrp.EntityUnkId13</title>
<ellipse fill="green" stroke="black" cx="476.09" cy="-198" rx="100.98" ry="18"/>
<text text-anchor="middle" x="476.09" y="-194.3" font-family="Times,serif" font-size="14.00">wrp.EntityUnkId13</text>
</g>
<!-- rwrp.AllocEntity -->
<g id="node2" class="node">
<title>rwrp.AllocEntity</title>
<g id="a_node2"><a xlink:href="rwrp.AllocEntity.svg" xlink:title="rwrp.AllocEntity">
<ellipse fill="green" stroke="black" cx="87.09" cy="-18" rx="87.18" ry="18"/>
<text text-anchor="middle" x="87.09" y="-14.3" font-family="Times,serif" font-size="14.00">rwrp.AllocEntity</text>
</a>
</g>
</g>
<!-- wrp.EntityUnkId13&#45;&gt;rwrp.AllocEntity -->
<g id="edge1" class="edge">
<title>wrp.EntityUnkId13&#45;&gt;rwrp.AllocEntity</title>
<path fill="none" stroke="black" d="M441.23,-181.05C370.14,-148.52 208.6,-74.6 130.7,-38.96"/>
<polygon fill="black" stroke="black" points="131.73,-35.58 121.18,-34.6 128.82,-41.94 131.73,-35.58"/>
<text text-anchor="middle" x="116.18" y="-38.4" font-family="Times,serif" font-size="14.00">1</text>
</g>
<!-- rwrp.CreateEntityFromEntity -->
<g id="node3" class="node">
<title>rwrp.CreateEntityFromEntity</title>
<g id="a_node3"><a xlink:href="rwrp.CreateEntityFromEntity.svg" xlink:title="rwrp.CreateEntityFromEntity">
<ellipse fill="green" stroke="black" cx="342.09" cy="-18" rx="149.47" ry="18"/>
<text text-anchor="middle" x="342.09" y="-14.3" font-family="Times,serif" font-size="14.00">rwrp.CreateEntityFromEntity</text>
</a>
</g>
</g>
<!-- wrp.EntityUnkId13&#45;&gt;rwrp.CreateEntityFromEntity -->
<g id="edge2" class="edge">
<title>wrp.EntityUnkId13&#45;&gt;rwrp.CreateEntityFromEntity</title>
<path fill="none" stroke="black" d="M463.24,-179.93C439.53,-148.43 388.79,-81.03 361.09,-44.24"/>
<polygon fill="black" stroke="black" points="363.71,-41.9 354.9,-36.02 358.12,-46.11 363.71,-41.9"/>
<text text-anchor="middle" x="349.9" y="-39.82" font-family="Times,serif" font-size="14.00">1</text>
</g>
<!-- rwrp.DestroyEntity -->
<g id="node4" class="node">
<title>rwrp.DestroyEntity</title>
<g id="a_node4"><a xlink:href="rwrp.DestroyEntity.svg" xlink:title="rwrp.DestroyEntity">
<ellipse fill="green" stroke="black" cx="611.09" cy="-18" rx="101.28" ry="18"/>
<text text-anchor="middle" x="611.09" y="-14.3" font-family="Times,serif" font-size="14.00">rwrp.DestroyEntity</text>
</a>
</g>
</g>
<!-- wrp.EntityUnkId13&#45;&gt;rwrp.DestroyEntity -->
<g id="edge3" class="edge">
<title>wrp.EntityUnkId13&#45;&gt;rwrp.DestroyEntity</title>
<path fill="none" stroke="black" d="M489.04,-179.93C512.93,-148.43 564.04,-81.03 591.95,-44.24"/>
<polygon fill="black" stroke="black" points="594.93,-46.1 598.19,-36.02 589.36,-41.87 594.93,-46.1"/>
<text text-anchor="middle" x="593.19" y="-39.82" font-family="Times,serif" font-size="14.00">1</text>
</g>
<!-- rwrp.InitializeEntity -->
<g id="node5" class="node">
<title>rwrp.InitializeEntity</title>
<g id="a_node5"><a xlink:href="rwrp.InitializeEntity.svg" xlink:title="rwrp.InitializeEntity">
<ellipse fill="green" stroke="black" cx="836.09" cy="-18" rx="105.08" ry="18"/>
<text text-anchor="middle" x="836.09" y="-14.3" font-family="Times,serif" font-size="14.00">rwrp.InitializeEntity</text>
</a>
</g>
</g>
<!-- wrp.EntityUnkId13&#45;&gt;rwrp.InitializeEntity -->
<g id="edge4" class="edge">
<title>wrp.EntityUnkId13&#45;&gt;rwrp.InitializeEntity</title>
<path fill="none" stroke="black" d="M508.67,-180.89C574.1,-148.54 721.4,-75.71 794.01,-39.81"/>
<polygon fill="black" stroke="black" points="795.91,-42.77 803.32,-35.2 792.81,-36.5 795.91,-42.77"/>
<text text-anchor="middle" x="798.32" y="-39" font-family="Times,serif" font-size="14.00">1</text>
</g>
</g>
</svg>
