<?xml version="1.0" encoding="UTF-8" standalone="no"?>
<!DOCTYPE svg PUBLIC "-//W3C//DTD SVG 1.1//EN"
 "http://www.w3.org/Graphics/SVG/1.1/DTD/svg11.dtd">
<!-- Generated by graphviz version 2.43.0 (0)
 -->
<!-- Title: wrp.DestroyEntity Pages: 1 -->
<svg width="8942pt" height="404pt"
 viewBox="0.00 0.00 8942.18 404.00" xmlns="http://www.w3.org/2000/svg" xmlns:xlink="http://www.w3.org/1999/xlink">
<g id="graph0" class="graph" transform="scale(1 1) rotate(0) translate(4 400)">
<title>wrp.DestroyEntity</title>
<polygon fill="white" stroke="transparent" points="-4,4 -4,-400 8938.18,-400 8938.18,4 -4,4"/>
<!-- wrp.DestroyEntity -->
<g id="node1" class="node">
<title>wrp.DestroyEntity</title>
<ellipse fill="green" stroke="black" cx="4757.54" cy="-198" rx="96.68" ry="18"/>
<text text-anchor="middle" x="4757.54" y="-194.3" font-family="Times,serif" font-size="14.00">wrp.DestroyEntity</text>
</g>
<!-- dra.FreePrimitives -->
<g id="node2" class="node">
<title>dra.FreePrimitives</title>
<g id="a_node2"><a xlink:href="dra.FreePrimitives.svg" xlink:title="dra.FreePrimitives">
<ellipse fill="green" stroke="black" cx="4757.54" cy="-18" rx="98.58" ry="18"/>
<text text-anchor="middle" x="4757.54" y="-14.3" font-family="Times,serif" font-size="14.00">dra.FreePrimitives</text>
</a>
</g>
</g>
<!-- wrp.DestroyEntity&#45;&gt;dra.FreePrimitives -->
<g id="edge1" class="edge">
<title>wrp.DestroyEntity&#45;&gt;dra.FreePrimitives</title>
<path fill="none" stroke="black" d="M4757.54,-179.93C4757.54,-148.97 4757.54,-83.3 4757.54,-46.13"/>
<polygon fill="black" stroke="black" points="4761.04,-46.02 4757.54,-36.02 4754.04,-46.02 4761.04,-46.02"/>
<text text-anchor="middle" x="4752.54" y="-39.82" font-family="Times,serif" font-size="14.00">1</text>
</g>
<!-- rwrp.EntityStageNamePopup -->
<g id="node3" class="node">
<title>rwrp.EntityStageNamePopup</title>
<g id="a_node3"><a xlink:href="rwrp.EntityStageNamePopup.svg" xlink:title="rwrp.EntityStageNamePopup">
<ellipse fill="green" stroke="black" cx="147.54" cy="-378" rx="147.57" ry="18"/>
<text text-anchor="middle" x="147.54" y="-374.3" font-family="Times,serif" font-size="14.00">rwrp.EntityStageNamePopup</text>
</a>
</g>
</g>
<!-- rwrp.EntityStageNamePopup&#45;&gt;wrp.DestroyEntity -->
<g id="edge2" class="edge">
<title>rwrp.EntityStageNamePopup&#45;&gt;wrp.DestroyEntity</title>
<path fill="none" stroke="black" d="M249.21,-364.92C267.6,-363.04 286.63,-361.29 304.54,-360 2036.94,-235.05 4155.84,-205.43 4650.71,-200.04"/>
<polygon fill="black" stroke="black" points="4651.08,-203.53 4661.04,-199.92 4651.01,-196.53 4651.08,-203.53"/>
<text text-anchor="middle" x="244.21" y="-353.72" font-family="Times,serif" font-size="14.00">1</text>
</g>
<!-- wrp.AllocEntity -->
<g id="node4" class="node">
<title>wrp.AllocEntity</title>
<g id="a_node4"><a xlink:href="wrp.AllocEntity.svg" xlink:title="wrp.AllocEntity">
<ellipse fill="green" stroke="black" cx="396.54" cy="-378" rx="83.39" ry="18"/>
<text text-anchor="middle" x="396.54" y="-374.3" font-family="Times,serif" font-size="14.00">wrp.AllocEntity</text>
</a>
</g>
</g>
<!-- wrp.AllocEntity&#45;&gt;wrp.DestroyEntity -->
<g id="edge3" class="edge">
<title>wrp.AllocEntity&#45;&gt;wrp.DestroyEntity</title>
<path fill="none" stroke="black" d="M454.26,-365.01C465.58,-363.04 477.4,-361.23 488.54,-360 1331.57,-266.71 4075.86,-211.6 4651.16,-200.92"/>
<polygon fill="black" stroke="black" points="4651.58,-204.41 4661.51,-200.73 4651.45,-197.41 4651.58,-204.41"/>
<text text-anchor="middle" x="449.26" y="-353.81" font-family="Times,serif" font-size="14.00">1</text>
</g>
<!-- wrp.CollectGold -->
<g id="node5" class="node">
<title>wrp.CollectGold</title>
<g id="a_node5"><a xlink:href="wrp.CollectGold.svg" xlink:title="wrp.CollectGold">
<ellipse fill="green" stroke="black" cx="582.54" cy="-378" rx="85.29" ry="18"/>
<text text-anchor="middle" x="582.54" y="-374.3" font-family="Times,serif" font-size="14.00">wrp.CollectGold</text>
</a>
</g>
</g>
<!-- wrp.CollectGold&#45;&gt;wrp.DestroyEntity -->
<g id="edge4" class="edge">
<title>wrp.CollectGold&#45;&gt;wrp.DestroyEntity</title>
<path fill="none" stroke="black" d="M641.77,-364.99C653.26,-363.03 665.24,-361.24 676.54,-360 1480.62,-271.86 4093.1,-212.94 4651.78,-201.17"/>
<polygon fill="black" stroke="black" points="4651.92,-204.67 4661.84,-200.96 4651.77,-197.67 4651.92,-204.67"/>
<text text-anchor="middle" x="636.77" y="-353.79" font-family="Times,serif" font-size="14.00">1</text>
</g>
<!-- wrp.CollectHeart -->
<g id="node6" class="node">
<title>wrp.CollectHeart</title>
<g id="a_node6"><a xlink:href="wrp.CollectHeart.svg" xlink:title="wrp.CollectHeart">
<ellipse fill="green" stroke="black" cx="776.54" cy="-378" rx="90.98" ry="18"/>
<text text-anchor="middle" x="776.54" y="-374.3" font-family="Times,serif" font-size="14.00">wrp.CollectHeart</text>
</a>
</g>
</g>
<!-- wrp.CollectHeart&#45;&gt;wrp.DestroyEntity -->
<g id="edge5" class="edge">
<title>wrp.CollectHeart&#45;&gt;wrp.DestroyEntity</title>
<path fill="none" stroke="black" d="M839.85,-364.99C851.99,-363.04 864.63,-361.25 876.54,-360 2366.6,-203.08 4193.55,-197.27 4650.25,-198.47"/>
<polygon fill="black" stroke="black" points="4650.45,-201.97 4660.46,-198.5 4650.47,-194.97 4650.45,-201.97"/>
<text text-anchor="middle" x="834.85" y="-353.79" font-family="Times,serif" font-size="14.00">1</text>
</g>
<!-- wrp.CollectHeartVessel -->
<g id="node7" class="node">
<title>wrp.CollectHeartVessel</title>
<g id="a_node7"><a xlink:href="wrp.CollectHeartVessel.svg" xlink:title="wrp.CollectHeartVessel">
<ellipse fill="green" stroke="black" cx="1005.54" cy="-378" rx="120.48" ry="18"/>
<text text-anchor="middle" x="1005.54" y="-374.3" font-family="Times,serif" font-size="14.00">wrp.CollectHeartVessel</text>
</a>
</g>
</g>
<!-- wrp.CollectHeartVessel&#45;&gt;wrp.DestroyEntity -->
<g id="edge6" class="edge">
<title>wrp.CollectHeartVessel&#45;&gt;wrp.DestroyEntity</title>
<path fill="none" stroke="black" d="M1088.69,-364.97C1103.92,-363.07 1119.69,-361.31 1134.54,-360 2521.08,-238.06 4214.7,-206.66 4651.04,-200.36"/>
<polygon fill="black" stroke="black" points="4651.17,-203.86 4661.12,-200.22 4651.07,-196.86 4651.17,-203.86"/>
<text text-anchor="middle" x="1083.69" y="-353.77" font-family="Times,serif" font-size="14.00">1</text>
</g>
<!-- wrp.CreateEntityFromCurrentEntity -->
<g id="node8" class="node">
<title>wrp.CreateEntityFromCurrentEntity</title>
<g id="a_node8"><a xlink:href="wrp.CreateEntityFromCurrentEntity.svg" xlink:title="wrp.CreateEntityFromCurrentEntity">
<ellipse fill="green" stroke="black" cx="1325.54" cy="-378" rx="181.97" ry="18"/>
<text text-anchor="middle" x="1325.54" y="-374.3" font-family="Times,serif" font-size="14.00">wrp.CreateEntityFromCurrentEntity</text>
</a>
</g>
</g>
<!-- wrp.CreateEntityFromCurrentEntity&#45;&gt;wrp.DestroyEntity -->
<g id="edge7" class="edge">
<title>wrp.CreateEntityFromCurrentEntity&#45;&gt;wrp.DestroyEntity</title>
<path fill="none" stroke="black" d="M1452.11,-365.03C1473.6,-363.2 1495.7,-361.44 1516.54,-360 2749.38,-274.55 4249.09,-217.33 4653.13,-202.7"/>
<polygon fill="black" stroke="black" points="4653.46,-206.19 4663.33,-202.33 4653.21,-199.19 4653.46,-206.19"/>
<text text-anchor="middle" x="1447.11" y="-353.83" font-family="Times,serif" font-size="14.00">1</text>
</g>
<!-- wrp.CreateEntityFromEntity -->
<g id="node9" class="node">
<title>wrp.CreateEntityFromEntity</title>
<g id="a_node9"><a xlink:href="wrp.CreateEntityFromEntity.svg" xlink:title="wrp.CreateEntityFromEntity">
<ellipse fill="green" stroke="black" cx="1671.54" cy="-378" rx="145.67" ry="18"/>
<text text-anchor="middle" x="1671.54" y="-374.3" font-family="Times,serif" font-size="14.00">wrp.CreateEntityFromEntity</text>
</a>
</g>
</g>
<!-- wrp.CreateEntityFromEntity&#45;&gt;wrp.DestroyEntity -->
<g id="edge8" class="edge">
<title>wrp.CreateEntityFromEntity&#45;&gt;wrp.DestroyEntity</title>
<path fill="none" stroke="black" d="M1773.18,-365.05C1790.95,-363.19 1809.27,-361.42 1826.54,-360 2931.01,-269.17 4273.96,-216.48 4653.32,-202.67"/>
<polygon fill="black" stroke="black" points="4653.59,-206.17 4663.46,-202.31 4653.34,-199.17 4653.59,-206.17"/>
<text text-anchor="middle" x="1768.18" y="-353.85" font-family="Times,serif" font-size="14.00">1</text>
</g>
<!-- wrp.CreateEntityFromLayout -->
<g id="node10" class="node">
<title>wrp.CreateEntityFromLayout</title>
<g id="a_node10"><a xlink:href="wrp.CreateEntityFromLayout.svg" xlink:title="wrp.CreateEntityFromLayout">
<ellipse fill="green" stroke="black" cx="1983.54" cy="-378" rx="148.37" ry="18"/>
<text text-anchor="middle" x="1983.54" y="-374.3" font-family="Times,serif" font-size="14.00">wrp.CreateEntityFromLayout</text>
</a>
</g>
</g>
<!-- wrp.CreateEntityFromLayout&#45;&gt;wrp.DestroyEntity -->
<g id="edge9" class="edge">
<title>wrp.CreateEntityFromLayout&#45;&gt;wrp.DestroyEntity</title>
<path fill="none" stroke="black" d="M2087.58,-365.12C2105.56,-363.27 2124.08,-361.48 2141.54,-360 3118.07,-277.46 4303.09,-219.85 4654.59,-203.64"/>
<polygon fill="black" stroke="black" points="4654.92,-207.13 4664.75,-203.17 4654.6,-200.14 4654.92,-207.13"/>
<text text-anchor="middle" x="2082.58" y="-353.92" font-family="Times,serif" font-size="14.00">1</text>
</g>
<!-- wrp.DestroyEntitiesFromIndex -->
<g id="node11" class="node">
<title>wrp.DestroyEntitiesFromIndex</title>
<g id="a_node11"><a xlink:href="wrp.DestroyEntitiesFromIndex.svg" xlink:title="wrp.DestroyEntitiesFromIndex">
<ellipse fill="green" stroke="black" cx="2305.54" cy="-378" rx="155.17" ry="18"/>
<text text-anchor="middle" x="2305.54" y="-374.3" font-family="Times,serif" font-size="14.00">wrp.DestroyEntitiesFromIndex</text>
</a>
</g>
</g>
<!-- wrp.DestroyEntitiesFromIndex&#45;&gt;wrp.DestroyEntity -->
<g id="edge10" class="edge">
<title>wrp.DestroyEntitiesFromIndex&#45;&gt;wrp.DestroyEntity</title>
<path fill="none" stroke="black" d="M2414.88,-365.16C2433.12,-363.33 2451.86,-361.54 2469.54,-360 3314.03,-286.54 4336.13,-223.92 4656.53,-204.91"/>
<polygon fill="black" stroke="black" points="4656.94,-208.39 4666.71,-204.31 4656.52,-201.41 4656.94,-208.39"/>
<text text-anchor="middle" x="2409.88" y="-353.96" font-family="Times,serif" font-size="14.00">1</text>
</g>
<!-- wrp.EntityBigRedFireball -->
<g id="node12" class="node">
<title>wrp.EntityBigRedFireball</title>
<g id="a_node12"><a xlink:href="wrp.EntityBigRedFireball.svg" xlink:title="wrp.EntityBigRedFireball">
<ellipse fill="green" stroke="black" cx="2608.54" cy="-378" rx="129.98" ry="18"/>
<text text-anchor="middle" x="2608.54" y="-374.3" font-family="Times,serif" font-size="14.00">wrp.EntityBigRedFireball</text>
</a>
</g>
</g>
<!-- wrp.EntityBigRedFireball&#45;&gt;wrp.DestroyEntity -->
<g id="edge11" class="edge">
<title>wrp.EntityBigRedFireball&#45;&gt;wrp.DestroyEntity</title>
<path fill="none" stroke="black" d="M2700.44,-365.21C2716.14,-363.35 2732.3,-361.54 2747.54,-360 3479.43,-285.96 4364.07,-224.99 4657.57,-205.52"/>
<polygon fill="black" stroke="black" points="4658.02,-209 4667.76,-204.85 4657.55,-202.02 4658.02,-209"/>
<text text-anchor="middle" x="2695.44" y="-354.01" font-family="Times,serif" font-size="14.00">1</text>
</g>
<!-- wrp.EntityDamageDisplay -->
<g id="node13" class="node">
<title>wrp.EntityDamageDisplay</title>
<g id="a_node13"><a xlink:href="wrp.EntityDamageDisplay.svg" xlink:title="wrp.EntityDamageDisplay">
<ellipse fill="green" stroke="black" cx="2889.54" cy="-378" rx="133.48" ry="18"/>
<text text-anchor="middle" x="2889.54" y="-374.3" font-family="Times,serif" font-size="14.00">wrp.EntityDamageDisplay</text>
</a>
</g>
</g>
<!-- wrp.EntityDamageDisplay&#45;&gt;wrp.DestroyEntity -->
<g id="edge12" class="edge">
<title>wrp.EntityDamageDisplay&#45;&gt;wrp.DestroyEntity</title>
<path fill="none" stroke="black" d="M2984.21,-365.32C3000.01,-363.47 3016.23,-361.63 3031.54,-360 3651.7,-293.96 4398.85,-229.34 4661.01,-207.11"/>
<polygon fill="black" stroke="black" points="4661.58,-210.58 4671.25,-206.24 4660.99,-203.6 4661.58,-210.58"/>
<text text-anchor="middle" x="2979.21" y="-354.12" font-family="Times,serif" font-size="14.00">1</text>
</g>
<!-- wrp.EntityEnemyBlood -->
<g id="node14" class="node">
<title>wrp.EntityEnemyBlood</title>
<g id="a_node14"><a xlink:href="wrp.EntityEnemyBlood.svg" xlink:title="wrp.EntityEnemyBlood">
<ellipse fill="green" stroke="black" cx="3159.54" cy="-378" rx="118.88" ry="18"/>
<text text-anchor="middle" x="3159.54" y="-374.3" font-family="Times,serif" font-size="14.00">wrp.EntityEnemyBlood</text>
</a>
</g>
</g>
<!-- wrp.EntityEnemyBlood&#45;&gt;wrp.DestroyEntity -->
<g id="edge13" class="edge">
<title>wrp.EntityEnemyBlood&#45;&gt;wrp.DestroyEntity</title>
<path fill="none" stroke="black" d="M3244.88,-365.39C3259.12,-363.53 3273.74,-361.67 3287.54,-360 3807.39,-297.02 4432.03,-232.19 4664.47,-208.44"/>
<polygon fill="black" stroke="black" points="4664.98,-211.91 4674.57,-207.41 4664.27,-204.95 4664.98,-211.91"/>
<text text-anchor="middle" x="3239.88" y="-354.19" font-family="Times,serif" font-size="14.00">1</text>
</g>
<!-- wrp.EntityEquipItemDrop -->
<g id="node15" class="node">
<title>wrp.EntityEquipItemDrop</title>
<g id="a_node15"><a xlink:href="wrp.EntityEquipItemDrop.svg" xlink:title="wrp.EntityEquipItemDrop">
<ellipse fill="green" stroke="black" cx="3428.54" cy="-378" rx="131.88" ry="18"/>
<text text-anchor="middle" x="3428.54" y="-374.3" font-family="Times,serif" font-size="14.00">wrp.EntityEquipItemDrop</text>
</a>
</g>
</g>
<!-- wrp.EntityEquipItemDrop&#45;&gt;wrp.DestroyEntity -->
<g id="edge14" class="edge">
<title>wrp.EntityEquipItemDrop&#45;&gt;wrp.DestroyEntity</title>
<path fill="none" stroke="black" d="M3519.1,-364.87C3763.25,-332.17 4432.7,-242.51 4671.5,-210.52"/>
<polygon fill="black" stroke="black" points="4672.07,-213.98 4681.52,-209.18 4671.15,-207.04 4672.07,-213.98"/>
<text text-anchor="middle" x="3514.1" y="-353.67" font-family="Times,serif" font-size="14.00">2</text>
</g>
<!-- wrp.EntityExplosion -->
<g id="node16" class="node">
<title>wrp.EntityExplosion</title>
<g id="a_node16"><a xlink:href="wrp.EntityExplosion.svg" xlink:title="wrp.EntityExplosion">
<ellipse fill="green" stroke="black" cx="3684.54" cy="-378" rx="105.88" ry="18"/>
<text text-anchor="middle" x="3684.54" y="-374.3" font-family="Times,serif" font-size="14.00">wrp.EntityExplosion</text>
</a>
</g>
</g>
<!-- wrp.EntityExplosion&#45;&gt;wrp.DestroyEntity -->
<g id="edge15" class="edge">
<title>wrp.EntityExplosion&#45;&gt;wrp.DestroyEntity</title>
<path fill="none" stroke="black" d="M3757.44,-364.91C3950.99,-332.8 4476.64,-245.6 4677.78,-212.23"/>
<polygon fill="black" stroke="black" points="4678.39,-215.68 4687.68,-210.59 4677.25,-208.77 4678.39,-215.68"/>
<text text-anchor="middle" x="3752.44" y="-353.71" font-family="Times,serif" font-size="14.00">1</text>
</g>
<!-- wrp.EntityExplosionSpawn -->
<g id="node17" class="node">
<title>wrp.EntityExplosionSpawn</title>
<g id="a_node17"><a xlink:href="wrp.EntityExplosionSpawn.svg" xlink:title="wrp.EntityExplosionSpawn">
<ellipse fill="green" stroke="black" cx="3945.54" cy="-378" rx="137.28" ry="18"/>
<text text-anchor="middle" x="3945.54" y="-374.3" font-family="Times,serif" font-size="14.00">wrp.EntityExplosionSpawn</text>
</a>
</g>
</g>
<!-- wrp.EntityExplosionSpawn&#45;&gt;wrp.DestroyEntity -->
<g id="edge16" class="edge">
<title>wrp.EntityExplosionSpawn&#45;&gt;wrp.DestroyEntity</title>
<path fill="none" stroke="black" d="M4012.68,-362.28C4164.56,-328.99 4533.29,-248.16 4687.7,-214.31"/>
<polygon fill="black" stroke="black" points="4688.54,-217.71 4697.56,-212.15 4687.04,-210.87 4688.54,-217.71"/>
<text text-anchor="middle" x="4007.68" y="-351.08" font-family="Times,serif" font-size="14.00">1</text>
</g>
<!-- wrp.EntityHeartDrop -->
<g id="node18" class="node">
<title>wrp.EntityHeartDrop</title>
<g id="a_node18"><a xlink:href="wrp.EntityHeartDrop.svg" xlink:title="wrp.EntityHeartDrop">
<ellipse fill="green" stroke="black" cx="4211.54" cy="-378" rx="110.48" ry="18"/>
<text text-anchor="middle" x="4211.54" y="-374.3" font-family="Times,serif" font-size="14.00">wrp.EntityHeartDrop</text>
</a>
</g>
</g>
<!-- wrp.EntityHeartDrop&#45;&gt;wrp.DestroyEntity -->
<g id="edge17" class="edge">
<title>wrp.EntityHeartDrop&#45;&gt;wrp.DestroyEntity</title>
<path fill="none" stroke="black" d="M4258.56,-361.67C4359.02,-328.92 4594.18,-252.26 4701.88,-217.14"/>
<polygon fill="black" stroke="black" points="4703.17,-220.41 4711.59,-213.98 4701,-213.75 4703.17,-220.41"/>
<text text-anchor="middle" x="4253.56" y="-350.47" font-family="Times,serif" font-size="14.00">1</text>
</g>
<!-- wrp.EntityIntenseExplosion -->
<g id="node19" class="node">
<title>wrp.EntityIntenseExplosion</title>
<g id="a_node19"><a xlink:href="wrp.EntityIntenseExplosion.svg" xlink:title="wrp.EntityIntenseExplosion">
<ellipse fill="green" stroke="black" cx="4480.54" cy="-378" rx="140.28" ry="18"/>
<text text-anchor="middle" x="4480.54" y="-374.3" font-family="Times,serif" font-size="14.00">wrp.EntityIntenseExplosion</text>
</a>
</g>
</g>
<!-- wrp.EntityIntenseExplosion&#45;&gt;wrp.DestroyEntity -->
<g id="edge18" class="edge">
<title>wrp.EntityIntenseExplosion&#45;&gt;wrp.DestroyEntity</title>
<path fill="none" stroke="black" d="M4506.6,-360.25C4556.84,-327.97 4667.08,-257.13 4723.22,-221.05"/>
<polygon fill="black" stroke="black" points="4725.23,-223.92 4731.75,-215.57 4721.44,-218.03 4725.23,-223.92"/>
<text text-anchor="middle" x="4501.6" y="-349.05" font-family="Times,serif" font-size="14.00">1</text>
</g>
<!-- wrp.EntityMessageBox -->
<g id="node20" class="node">
<title>wrp.EntityMessageBox</title>
<g id="a_node20"><a xlink:href="wrp.EntityMessageBox.svg" xlink:title="wrp.EntityMessageBox">
<ellipse fill="green" stroke="black" cx="4757.54" cy="-378" rx="118.88" ry="18"/>
<text text-anchor="middle" x="4757.54" y="-374.3" font-family="Times,serif" font-size="14.00">wrp.EntityMessageBox</text>
</a>
</g>
</g>
<!-- wrp.EntityMessageBox&#45;&gt;wrp.DestroyEntity -->
<g id="edge19" class="edge">
<title>wrp.EntityMessageBox&#45;&gt;wrp.DestroyEntity</title>
<path fill="none" stroke="black" d="M4757.54,-359.93C4757.54,-328.97 4757.54,-263.3 4757.54,-226.13"/>
<polygon fill="black" stroke="black" points="4761.04,-226.02 4757.54,-216.02 4754.04,-226.02 4761.04,-226.02"/>
<text text-anchor="middle" x="4752.54" y="-348.73" font-family="Times,serif" font-size="14.00">1</text>
</g>
<!-- wrp.EntityOlroxDrool -->
<g id="node21" class="node">
<title>wrp.EntityOlroxDrool</title>
<g id="a_node21"><a xlink:href="wrp.EntityOlroxDrool.svg" xlink:title="wrp.EntityOlroxDrool">
<ellipse fill="green" stroke="black" cx="5005.54" cy="-378" rx="111.28" ry="18"/>
<text text-anchor="middle" x="5005.54" y="-374.3" font-family="Times,serif" font-size="14.00">wrp.EntityOlroxDrool</text>
</a>
</g>
</g>
<!-- wrp.EntityOlroxDrool&#45;&gt;wrp.DestroyEntity -->
<g id="edge20" class="edge">
<title>wrp.EntityOlroxDrool&#45;&gt;wrp.DestroyEntity</title>
<path fill="none" stroke="black" d="M4982.21,-360.25C4937.41,-328.1 4839.33,-257.71 4788.88,-221.5"/>
<polygon fill="black" stroke="black" points="4790.79,-218.56 4780.63,-215.57 4786.71,-224.25 4790.79,-218.56"/>
<text text-anchor="middle" x="4977.21" y="-349.05" font-family="Times,serif" font-size="14.00">1</text>
</g>
<!-- wrp.EntityPrizeDrop -->
<g id="node22" class="node">
<title>wrp.EntityPrizeDrop</title>
<g id="a_node22"><a xlink:href="wrp.EntityPrizeDrop.svg" xlink:title="wrp.EntityPrizeDrop">
<ellipse fill="green" stroke="black" cx="5241.54" cy="-378" rx="107.48" ry="18"/>
<text text-anchor="middle" x="5241.54" y="-374.3" font-family="Times,serif" font-size="14.00">wrp.EntityPrizeDrop</text>
</a>
</g>
</g>
<!-- wrp.EntityPrizeDrop&#45;&gt;wrp.DestroyEntity -->
<g id="edge21" class="edge">
<title>wrp.EntityPrizeDrop&#45;&gt;wrp.DestroyEntity</title>
<path fill="none" stroke="black" d="M5199.01,-361.36C5110.03,-328.63 4904.53,-253.06 4808.59,-217.78"/>
<polygon fill="black" stroke="black" points="4809.7,-214.46 4799.11,-214.29 4807.28,-221.02 4809.7,-214.46"/>
<text text-anchor="middle" x="5194.01" y="-350.16" font-family="Times,serif" font-size="14.00">2</text>
</g>
<!-- wrp.EntityRedDoor -->
<g id="node23" class="node">
<title>wrp.EntityRedDoor</title>
<g id="a_node23"><a xlink:href="wrp.EntityRedDoor.svg" xlink:title="wrp.EntityRedDoor">
<ellipse fill="green" stroke="black" cx="5467.54" cy="-378" rx="100.98" ry="18"/>
<text text-anchor="middle" x="5467.54" y="-374.3" font-family="Times,serif" font-size="14.00">wrp.EntityRedDoor</text>
</a>
</g>
</g>
<!-- wrp.EntityRedDoor&#45;&gt;wrp.DestroyEntity -->
<g id="edge22" class="edge">
<title>wrp.EntityRedDoor&#45;&gt;wrp.DestroyEntity</title>
<path fill="none" stroke="black" d="M5411.53,-362.96C5281.83,-330.44 4961.41,-250.11 4822.97,-215.41"/>
<polygon fill="black" stroke="black" points="4823.48,-211.92 4812.93,-212.89 4821.78,-218.71 4823.48,-211.92"/>
<text text-anchor="middle" x="5406.53" y="-351.76" font-family="Times,serif" font-size="14.00">1</text>
</g>
<!-- wrp.EntityRelicOrb -->
<g id="node24" class="node">
<title>wrp.EntityRelicOrb</title>
<g id="a_node24"><a xlink:href="wrp.EntityRelicOrb.svg" xlink:title="wrp.EntityRelicOrb">
<ellipse fill="green" stroke="black" cx="5686.54" cy="-378" rx="100.98" ry="18"/>
<text text-anchor="middle" x="5686.54" y="-374.3" font-family="Times,serif" font-size="14.00">wrp.EntityRelicOrb</text>
</a>
</g>
</g>
<!-- wrp.EntityRelicOrb&#45;&gt;wrp.DestroyEntity -->
<g id="edge23" class="edge">
<title>wrp.EntityRelicOrb&#45;&gt;wrp.DestroyEntity</title>
<path fill="none" stroke="black" d="M5620.47,-364.34C5452.43,-332.14 5009.53,-247.28 4832.35,-213.33"/>
<polygon fill="black" stroke="black" points="4832.82,-209.86 4822.34,-211.42 4831.5,-216.74 4832.82,-209.86"/>
<text text-anchor="middle" x="5615.47" y="-353.14" font-family="Times,serif" font-size="14.00">1</text>
</g>
<!-- wrp.EntitySoulStealOrb -->
<g id="node25" class="node">
<title>wrp.EntitySoulStealOrb</title>
<g id="a_node25"><a xlink:href="wrp.EntitySoulStealOrb.svg" xlink:title="wrp.EntitySoulStealOrb">
<ellipse fill="green" stroke="black" cx="5927.54" cy="-378" rx="122.38" ry="18"/>
<text text-anchor="middle" x="5927.54" y="-374.3" font-family="Times,serif" font-size="14.00">wrp.EntitySoulStealOrb</text>
</a>
</g>
</g>
<!-- wrp.EntitySoulStealOrb&#45;&gt;wrp.DestroyEntity -->
<g id="edge24" class="edge">
<title>wrp.EntitySoulStealOrb&#45;&gt;wrp.DestroyEntity</title>
<path fill="none" stroke="black" d="M5845.73,-364.55C5631.33,-331.94 5054.91,-244.24 4839.89,-211.53"/>
<polygon fill="black" stroke="black" points="4840.34,-208.06 4829.93,-210.01 4839.29,-214.98 4840.34,-208.06"/>
<text text-anchor="middle" x="5840.73" y="-353.35" font-family="Times,serif" font-size="14.00">1</text>
</g>
<!-- wrp.EntityUnkId13 -->
<g id="node26" class="node">
<title>wrp.EntityUnkId13</title>
<g id="a_node26"><a xlink:href="wrp.EntityUnkId13.svg" xlink:title="wrp.EntityUnkId13">
<ellipse fill="green" stroke="black" cx="6168.54" cy="-378" rx="100.98" ry="18"/>
<text text-anchor="middle" x="6168.54" y="-374.3" font-family="Times,serif" font-size="14.00">wrp.EntityUnkId13</text>
</a>
</g>
</g>
<!-- wrp.EntityUnkId13&#45;&gt;wrp.DestroyEntity -->
<g id="edge25" class="edge">
<title>wrp.EntityUnkId13&#45;&gt;wrp.DestroyEntity</title>
<path fill="none" stroke="black" d="M6096.1,-365.49C6083.58,-363.59 6070.69,-361.69 6058.54,-360 5604.7,-296.86 5060.05,-233.46 4848.11,-209.25"/>
<polygon fill="black" stroke="black" points="4848.3,-205.75 4837.96,-208.1 4847.5,-212.71 4848.3,-205.75"/>
<text text-anchor="middle" x="6091.1" y="-354.29" font-family="Times,serif" font-size="14.00">1</text>
</g>
<!-- wrp.EntityUnkId14 -->
<g id="node27" class="node">
<title>wrp.EntityUnkId14</title>
<g id="a_node27"><a xlink:href="wrp.EntityUnkId14.svg" xlink:title="wrp.EntityUnkId14">
<ellipse fill="green" stroke="black" cx="6387.54" cy="-378" rx="100.98" ry="18"/>
<text text-anchor="middle" x="6387.54" y="-374.3" font-family="Times,serif" font-size="14.00">wrp.EntityUnkId14</text>
</a>
</g>
</g>
<!-- wrp.EntityUnkId14&#45;&gt;wrp.DestroyEntity -->
<g id="edge26" class="edge">
<title>wrp.EntityUnkId14&#45;&gt;wrp.DestroyEntity</title>
<path fill="none" stroke="black" d="M6315.78,-365.3C6303.38,-363.42 6290.6,-361.58 6278.54,-360 5740.91,-289.66 5093.26,-229.1 4853.15,-207.47"/>
<polygon fill="black" stroke="black" points="4853.33,-203.97 4843.05,-206.56 4852.7,-210.94 4853.33,-203.97"/>
<text text-anchor="middle" x="6310.78" y="-354.1" font-family="Times,serif" font-size="14.00">1</text>
</g>
<!-- wrp.EntityUnkId15 -->
<g id="node28" class="node">
<title>wrp.EntityUnkId15</title>
<g id="a_node28"><a xlink:href="wrp.EntityUnkId15.svg" xlink:title="wrp.EntityUnkId15">
<ellipse fill="green" stroke="black" cx="6606.54" cy="-378" rx="100.98" ry="18"/>
<text text-anchor="middle" x="6606.54" y="-374.3" font-family="Times,serif" font-size="14.00">wrp.EntityUnkId15</text>
</a>
</g>
</g>
<!-- wrp.EntityUnkId15&#45;&gt;wrp.DestroyEntity -->
<g id="edge27" class="edge">
<title>wrp.EntityUnkId15&#45;&gt;wrp.DestroyEntity</title>
<path fill="none" stroke="black" d="M6535.39,-365.25C6522.8,-363.36 6509.8,-361.52 6497.54,-360 5874.82,-282.71 5122.48,-225.21 4856.5,-205.98"/>
<polygon fill="black" stroke="black" points="4856.7,-202.49 4846.48,-205.26 4856.2,-209.47 4856.7,-202.49"/>
<text text-anchor="middle" x="6530.39" y="-354.05" font-family="Times,serif" font-size="14.00">1</text>
</g>
<!-- wrp.EntityWarpSmallRocks -->
<g id="node29" class="node">
<title>wrp.EntityWarpSmallRocks</title>
<g id="a_node29"><a xlink:href="wrp.EntityWarpSmallRocks.svg" xlink:title="wrp.EntityWarpSmallRocks">
<ellipse fill="green" stroke="black" cx="6863.54" cy="-378" rx="138.38" ry="18"/>
<text text-anchor="middle" x="6863.54" y="-374.3" font-family="Times,serif" font-size="14.00">wrp.EntityWarpSmallRocks</text>
</a>
</g>
</g>
<!-- wrp.EntityWarpSmallRocks&#45;&gt;wrp.DestroyEntity -->
<g id="edge28" class="edge">
<title>wrp.EntityWarpSmallRocks&#45;&gt;wrp.DestroyEntity</title>
<path fill="none" stroke="black" d="M6765.54,-365.21C6749.18,-363.37 6732.39,-361.57 6716.54,-360 6004.19,-289.56 5143.96,-226.46 4856.46,-205.97"/>
<polygon fill="black" stroke="black" points="4856.69,-202.47 4846.47,-205.25 4856.2,-209.46 4856.69,-202.47"/>
<text text-anchor="middle" x="6760.54" y="-354.01" font-family="Times,serif" font-size="14.00">1</text>
</g>
<!-- wrp.HitDetection -->
<g id="node30" class="node">
<title>wrp.HitDetection</title>
<g id="a_node30"><a xlink:href="wrp.HitDetection.svg" xlink:title="wrp.HitDetection">
<ellipse fill="green" stroke="black" cx="7110.54" cy="-378" rx="90.98" ry="18"/>
<text text-anchor="middle" x="7110.54" y="-374.3" font-family="Times,serif" font-size="14.00">wrp.HitDetection</text>
</a>
</g>
</g>
<!-- wrp.HitDetection&#45;&gt;wrp.DestroyEntity -->
<g id="edge29" class="edge">
<title>wrp.HitDetection&#45;&gt;wrp.DestroyEntity</title>
<path fill="none" stroke="black" d="M7046.39,-365.15C7034.5,-363.22 7022.16,-361.4 7010.54,-360 6185.6,-260.64 5182.8,-215.46 4861.69,-202.84"/>
<polygon fill="black" stroke="black" points="4861.6,-199.34 4851.47,-202.44 4861.33,-206.33 4861.6,-199.34"/>
<text text-anchor="middle" x="7041.39" y="-353.95" font-family="Times,serif" font-size="14.00">1</text>
</g>
<!-- wrp.InitializeUnkEntity -->
<g id="node31" class="node">
<title>wrp.InitializeUnkEntity</title>
<g id="a_node31"><a xlink:href="wrp.InitializeUnkEntity.svg" xlink:title="wrp.InitializeUnkEntity">
<ellipse fill="green" stroke="black" cx="7339.54" cy="-378" rx="120.48" ry="18"/>
<text text-anchor="middle" x="7339.54" y="-374.3" font-family="Times,serif" font-size="14.00">wrp.InitializeUnkEntity</text>
</a>
</g>
</g>
<!-- wrp.InitializeUnkEntity&#45;&gt;wrp.DestroyEntity -->
<g id="edge30" class="edge">
<title>wrp.InitializeUnkEntity&#45;&gt;wrp.DestroyEntity</title>
<path fill="none" stroke="black" d="M7255.32,-365.09C7240.42,-363.22 7225.04,-361.43 7210.54,-360 6301.79,-270.4 5198.56,-218.11 4860.74,-203.35"/>
<polygon fill="black" stroke="black" points="4860.87,-199.85 4850.73,-202.91 4860.56,-206.85 4860.87,-199.85"/>
<text text-anchor="middle" x="7250.32" y="-353.89" font-family="Times,serif" font-size="14.00">1</text>
</g>
<!-- wrp.MakeEntityFromId -->
<g id="node32" class="node">
<title>wrp.MakeEntityFromId</title>
<g id="a_node32"><a xlink:href="wrp.MakeEntityFromId.svg" xlink:title="wrp.MakeEntityFromId">
<ellipse fill="green" stroke="black" cx="7597.54" cy="-378" rx="120.48" ry="18"/>
<text text-anchor="middle" x="7597.54" y="-374.3" font-family="Times,serif" font-size="14.00">wrp.MakeEntityFromId</text>
</a>
</g>
</g>
<!-- wrp.MakeEntityFromId&#45;&gt;wrp.DestroyEntity -->
<g id="edge31" class="edge">
<title>wrp.MakeEntityFromId&#45;&gt;wrp.DestroyEntity</title>
<path fill="none" stroke="black" d="M7513.67,-365.06C7498.66,-363.18 7483.15,-361.4 7468.54,-360 6455.67,-263.31 5224,-215.23 4862.16,-202.51"/>
<polygon fill="black" stroke="black" points="4862.08,-199.01 4851.97,-202.15 4861.84,-206 4862.08,-199.01"/>
<text text-anchor="middle" x="7508.67" y="-353.86" font-family="Times,serif" font-size="14.00">1</text>
</g>
<!-- wrp.ReplaceBreakableWithItemDrop -->
<g id="node33" class="node">
<title>wrp.ReplaceBreakableWithItemDrop</title>
<g id="a_node33"><a xlink:href="wrp.ReplaceBreakableWithItemDrop.svg" xlink:title="wrp.ReplaceBreakableWithItemDrop">
<ellipse fill="green" stroke="black" cx="7917.54" cy="-378" rx="181.17" ry="18"/>
<text text-anchor="middle" x="7917.54" y="-374.3" font-family="Times,serif" font-size="14.00">wrp.ReplaceBreakableWithItemDrop</text>
</a>
</g>
</g>
<!-- wrp.ReplaceBreakableWithItemDrop&#45;&gt;wrp.DestroyEntity -->
<g id="edge32" class="edge">
<title>wrp.ReplaceBreakableWithItemDrop&#45;&gt;wrp.DestroyEntity</title>
<path fill="none" stroke="black" d="M7790.7,-365.09C7769.3,-363.26 7747.29,-361.49 7726.54,-360 6604.97,-279.7 5242.48,-219.49 4861.08,-203.32"/>
<polygon fill="black" stroke="black" points="4861.04,-199.81 4850.9,-202.88 4860.74,-206.8 4861.04,-199.81"/>
<text text-anchor="middle" x="7785.7" y="-353.89" font-family="Times,serif" font-size="14.00">1</text>
</g>
<!-- wrp.Update -->
<g id="node34" class="node">
<title>wrp.Update</title>
<g id="a_node34"><a xlink:href="wrp.Update.svg" xlink:title="wrp.Update">
<ellipse fill="green" stroke="black" cx="8182.54" cy="-378" rx="65.79" ry="18"/>
<text text-anchor="middle" x="8182.54" y="-374.3" font-family="Times,serif" font-size="14.00">wrp.Update</text>
</a>
</g>
</g>
<!-- wrp.Update&#45;&gt;wrp.DestroyEntity -->
<g id="edge33" class="edge">
<title>wrp.Update&#45;&gt;wrp.DestroyEntity</title>
<path fill="none" stroke="black" d="M8136.36,-365.2C8126.88,-363.16 8116.93,-361.28 8107.54,-360 7457.89,-271.46 5358.7,-214.1 4863.09,-201.58"/>
<polygon fill="black" stroke="black" points="4862.82,-198.08 4852.73,-201.32 4862.64,-205.07 4862.82,-198.08"/>
<text text-anchor="middle" x="8131.36" y="-354" font-family="Times,serif" font-size="14.00">1</text>
</g>
<!-- wrp.func_8018CDEC -->
<g id="node35" class="node">
<title>wrp.func_8018CDEC</title>
<g id="a_node35"><a xlink:href="wrp.func_8018CDEC.svg" xlink:title="wrp.func_8018CDEC">
<ellipse fill="green" stroke="black" cx="8373.54" cy="-378" rx="107.48" ry="18"/>
<text text-anchor="middle" x="8373.54" y="-374.3" font-family="Times,serif" font-size="14.00">wrp.func_8018CDEC</text>
</a>
</g>
</g>
<!-- wrp.func_8018CDEC&#45;&gt;wrp.DestroyEntity -->
<g id="edge34" class="edge">
<title>wrp.func_8018CDEC&#45;&gt;wrp.DestroyEntity</title>
<path fill="none" stroke="black" d="M8299.1,-364.97C8285.31,-363.06 8271.01,-361.29 8257.54,-360 6923.04,-231.84 5292.17,-205.02 4864.36,-200.04"/>
<polygon fill="black" stroke="black" points="4864.21,-196.54 4854.17,-199.92 4864.13,-203.54 4864.21,-196.54"/>
<text text-anchor="middle" x="8294.1" y="-353.77" font-family="Times,serif" font-size="14.00">1</text>
</g>
<!-- wrp.func_8018CFA8 -->
<g id="node36" class="node">
<title>wrp.func_8018CFA8</title>
<g id="a_node36"><a xlink:href="wrp.func_8018CFA8.svg" xlink:title="wrp.func_8018CFA8">
<ellipse fill="green" stroke="black" cx="8602.54" cy="-378" rx="103.98" ry="18"/>
<text text-anchor="middle" x="8602.54" y="-374.3" font-family="Times,serif" font-size="14.00">wrp.func_8018CFA8</text>
</a>
</g>
</g>
<!-- wrp.func_8018CFA8&#45;&gt;wrp.DestroyEntity -->
<g id="edge35" class="edge">
<title>wrp.func_8018CFA8&#45;&gt;wrp.DestroyEntity</title>
<path fill="none" stroke="black" d="M8530.34,-364.97C8516.81,-363.05 8502.77,-361.28 8489.54,-360 7059.67,-221.99 5310.17,-202.27 4864.67,-199.46"/>
<polygon fill="black" stroke="black" points="4864.41,-195.96 4854.39,-199.4 4864.37,-202.96 4864.41,-195.96"/>
<text text-anchor="middle" x="8525.34" y="-353.77" font-family="Times,serif" font-size="14.00">1</text>
</g>
<!-- wrp.func_8018CFF8 -->
<g id="node37" class="node">
<title>wrp.func_8018CFF8</title>
<g id="a_node37"><a xlink:href="wrp.func_8018CFF8.svg" xlink:title="wrp.func_8018CFF8">
<ellipse fill="green" stroke="black" cx="8829.54" cy="-378" rx="104.78" ry="18"/>
<text text-anchor="middle" x="8829.54" y="-374.3" font-family="Times,serif" font-size="14.00">wrp.func_8018CFF8</text>
</a>
</g>
</g>
<!-- wrp.func_8018CFF8&#45;&gt;wrp.DestroyEntity -->
<g id="edge36" class="edge">
<title>wrp.func_8018CFF8&#45;&gt;wrp.DestroyEntity</title>
<path fill="none" stroke="black" d="M8757.01,-364.99C8743.27,-363.06 8728.98,-361.27 8715.54,-360 7191.8,-215.82 5326.06,-200.65 4864.54,-199.14"/>
<polygon fill="black" stroke="black" points="4864.24,-195.64 4854.23,-199.11 4864.22,-202.64 4864.24,-195.64"/>
<text text-anchor="middle" x="8752.01" y="-353.79" font-family="Times,serif" font-size="14.00">1</text>
</g>
</g>
</svg>
