<?xml version="1.0" encoding="UTF-8" standalone="no"?>
<!DOCTYPE svg PUBLIC "-//W3C//DTD SVG 1.1//EN"
 "http://www.w3.org/Graphics/SVG/1.1/DTD/svg11.dtd">
<!-- Generated by graphviz version 2.43.0 (0)
 -->
<!-- Title: wrp.GetSideToPlayer Pages: 1 -->
<svg width="436pt" height="224pt"
 viewBox="0.00 0.00 435.73 224.00" xmlns="http://www.w3.org/2000/svg" xmlns:xlink="http://www.w3.org/1999/xlink">
<g id="graph0" class="graph" transform="scale(1 1) rotate(0) translate(4 220)">
<title>wrp.GetSideToPlayer</title>
<polygon fill="white" stroke="transparent" points="-4,4 -4,-220 431.73,-220 431.73,4 -4,4"/>
<!-- wrp.GetSideToPlayer -->
<g id="node1" class="node">
<title>wrp.GetSideToPlayer</title>
<ellipse fill="green" stroke="black" cx="211.74" cy="-18" rx="109.38" ry="18"/>
<text text-anchor="middle" x="211.74" y="-14.3" font-family="Times,serif" font-size="14.00">wrp.GetSideToPlayer</text>
</g>
<!-- wrp.EntityRedDoor -->
<g id="node2" class="node">
<title>wrp.EntityRedDoor</title>
<g id="a_node2"><a xlink:href="wrp.EntityRedDoor.svg" xlink:title="wrp.EntityRedDoor">
<ellipse fill="red" stroke="black" cx="100.74" cy="-198" rx="100.98" ry="18"/>
<text text-anchor="middle" x="100.74" y="-194.3" font-family="Times,serif" font-size="14.00">wrp.EntityRedDoor</text>
</a>
</g>
</g>
<!-- wrp.EntityRedDoor&#45;&gt;wrp.GetSideToPlayer -->
<g id="edge1" class="edge">
<title>wrp.EntityRedDoor&#45;&gt;wrp.GetSideToPlayer</title>
<path fill="none" stroke="black" d="M111.38,-179.93C130.94,-148.57 172.7,-81.6 195.71,-44.71"/>
<polygon fill="black" stroke="black" points="198.81,-46.35 201.13,-36.02 192.87,-42.65 198.81,-46.35"/>
<text text-anchor="middle" x="106.38" y="-168.73" font-family="Times,serif" font-size="14.00">1</text>
</g>
<!-- wrp.func_801870B0 -->
<g id="node3" class="node">
<title>wrp.func_801870B0</title>
<g id="a_node3"><a xlink:href="wrp.func_801870B0.svg" xlink:title="wrp.func_801870B0">
<ellipse fill="green" stroke="black" cx="323.74" cy="-198" rx="103.98" ry="18"/>
<text text-anchor="middle" x="323.74" y="-194.3" font-family="Times,serif" font-size="14.00">wrp.func_801870B0</text>
</a>
</g>
</g>
<!-- wrp.func_801870B0&#45;&gt;wrp.GetSideToPlayer -->
<g id="edge2" class="edge">
<title>wrp.func_801870B0&#45;&gt;wrp.GetSideToPlayer</title>
<path fill="none" stroke="black" d="M313,-179.93C293.27,-148.57 251.13,-81.6 227.92,-44.71"/>
<polygon fill="black" stroke="black" points="230.74,-42.62 222.45,-36.02 224.81,-46.34 230.74,-42.62"/>
<text text-anchor="middle" x="308" y="-168.73" font-family="Times,serif" font-size="14.00">1</text>
</g>
</g>
</svg>
