<?xml version="1.0" encoding="UTF-8" standalone="no"?>
<!DOCTYPE svg PUBLIC "-//W3C//DTD SVG 1.1//EN"
 "http://www.w3.org/Graphics/SVG/1.1/DTD/svg11.dtd">
<!-- Generated by graphviz version 2.43.0 (0)
 -->
<!-- Title: wrp.DestroyEntity Pages: 1 -->
<svg width="9139pt" height="404pt"
 viewBox="0.00 0.00 9139.34 404.00" xmlns="http://www.w3.org/2000/svg" xmlns:xlink="http://www.w3.org/1999/xlink">
<g id="graph0" class="graph" transform="scale(1 1) rotate(0) translate(4 400)">
<title>wrp.DestroyEntity</title>
<polygon fill="white" stroke="transparent" points="-4,4 -4,-400 9135.34,-400 9135.34,4 -4,4"/>
<!-- wrp.DestroyEntity -->
<g id="node1" class="node">
<title>wrp.DestroyEntity</title>
<ellipse fill="green" stroke="black" cx="4670.69" cy="-198" rx="96.68" ry="18"/>
<text text-anchor="middle" x="4670.69" y="-194.3" font-family="Times,serif" font-size="14.00">wrp.DestroyEntity</text>
</g>
<!-- dra.FreePrimitives -->
<g id="node2" class="node">
<title>dra.FreePrimitives</title>
<g id="a_node2"><a xlink:href="dra.FreePrimitives.svg" xlink:title="dra.FreePrimitives">
<ellipse fill="green" stroke="black" cx="4670.69" cy="-18" rx="98.58" ry="18"/>
<text text-anchor="middle" x="4670.69" y="-14.3" font-family="Times,serif" font-size="14.00">dra.FreePrimitives</text>
</a>
</g>
</g>
<!-- wrp.DestroyEntity&#45;&gt;dra.FreePrimitives -->
<g id="edge1" class="edge">
<title>wrp.DestroyEntity&#45;&gt;dra.FreePrimitives</title>
<path fill="none" stroke="black" d="M4670.69,-179.93C4670.69,-148.97 4670.69,-83.3 4670.69,-46.13"/>
<polygon fill="black" stroke="black" points="4674.19,-46.02 4670.69,-36.02 4667.19,-46.02 4674.19,-46.02"/>
<text text-anchor="middle" x="4665.69" y="-39.82" font-family="Times,serif" font-size="14.00">1</text>
</g>
<!-- rwrp.CollectGold -->
<g id="node3" class="node">
<title>rwrp.CollectGold</title>
<g id="a_node3"><a xlink:href="rwrp.CollectGold.svg" xlink:title="rwrp.CollectGold">
<ellipse fill="green" stroke="black" cx="89.69" cy="-378" rx="89.88" ry="18"/>
<text text-anchor="middle" x="89.69" y="-374.3" font-family="Times,serif" font-size="14.00">rwrp.CollectGold</text>
</a>
</g>
</g>
<!-- rwrp.CollectGold&#45;&gt;wrp.DestroyEntity -->
<g id="edge2" class="edge">
<title>rwrp.CollectGold&#45;&gt;wrp.DestroyEntity</title>
<path fill="none" stroke="black" d="M151.83,-365.02C164.01,-363.04 176.72,-361.24 188.69,-360 1077.04,-268.19 3972.23,-211.64 4564.34,-200.88"/>
<polygon fill="black" stroke="black" points="4564.63,-204.38 4574.56,-200.69 4564.5,-197.38 4564.63,-204.38"/>
<text text-anchor="middle" x="146.83" y="-353.82" font-family="Times,serif" font-size="14.00">1</text>
</g>
<!-- rwrp.CollectHeart -->
<g id="node4" class="node">
<title>rwrp.CollectHeart</title>
<g id="a_node4"><a xlink:href="rwrp.CollectHeart.svg" xlink:title="rwrp.CollectHeart">
<ellipse fill="green" stroke="black" cx="292.69" cy="-378" rx="94.78" ry="18"/>
<text text-anchor="middle" x="292.69" y="-374.3" font-family="Times,serif" font-size="14.00">rwrp.CollectHeart</text>
</a>
</g>
</g>
<!-- rwrp.CollectHeart&#45;&gt;wrp.DestroyEntity -->
<g id="edge3" class="edge">
<title>rwrp.CollectHeart&#45;&gt;wrp.DestroyEntity</title>
<path fill="none" stroke="black" d="M358.55,-364.97C371.17,-363.02 384.31,-361.24 396.69,-360 1241.86,-275.34 3989.91,-213.41 4564.69,-201.2"/>
<polygon fill="black" stroke="black" points="4565.11,-204.69 4575.03,-200.98 4564.96,-197.7 4565.11,-204.69"/>
<text text-anchor="middle" x="353.55" y="-353.77" font-family="Times,serif" font-size="14.00">1</text>
</g>
<!-- rwrp.CollectHeartVessel -->
<g id="node5" class="node">
<title>rwrp.CollectHeartVessel</title>
<g id="a_node5"><a xlink:href="rwrp.CollectHeartVessel.svg" xlink:title="rwrp.CollectHeartVessel">
<ellipse fill="green" stroke="black" cx="529.69" cy="-378" rx="124.28" ry="18"/>
<text text-anchor="middle" x="529.69" y="-374.3" font-family="Times,serif" font-size="14.00">rwrp.CollectHeartVessel</text>
</a>
</g>
</g>
<!-- rwrp.CollectHeartVessel&#45;&gt;wrp.DestroyEntity -->
<g id="edge4" class="edge">
<title>rwrp.CollectHeartVessel&#45;&gt;wrp.DestroyEntity</title>
<path fill="none" stroke="black" d="M615.43,-364.93C631.13,-363.04 647.38,-361.28 662.69,-360 2208.79,-230.38 4099.45,-204.43 4563.92,-199.88"/>
<polygon fill="black" stroke="black" points="4564,-203.38 4573.97,-199.78 4563.93,-196.38 4564,-203.38"/>
<text text-anchor="middle" x="610.43" y="-353.73" font-family="Times,serif" font-size="14.00">1</text>
</g>
<!-- rwrp.CollectLifeVessel -->
<g id="node6" class="node">
<title>rwrp.CollectLifeVessel</title>
<g id="a_node6"><a xlink:href="rwrp.CollectLifeVessel.svg" xlink:title="rwrp.CollectLifeVessel">
<ellipse fill="green" stroke="black" cx="786.69" cy="-378" rx="115.08" ry="18"/>
<text text-anchor="middle" x="786.69" y="-374.3" font-family="Times,serif" font-size="14.00">rwrp.CollectLifeVessel</text>
</a>
</g>
</g>
<!-- rwrp.CollectLifeVessel&#45;&gt;wrp.DestroyEntity -->
<g id="edge5" class="edge">
<title>rwrp.CollectLifeVessel&#45;&gt;wrp.DestroyEntity</title>
<path fill="none" stroke="black" d="M866.28,-364.97C881.02,-363.06 896.3,-361.29 910.69,-360 2353.37,-230.5 4117.11,-204.55 4563.93,-199.92"/>
<polygon fill="black" stroke="black" points="4564.28,-203.42 4574.24,-199.82 4564.21,-196.42 4564.28,-203.42"/>
<text text-anchor="middle" x="861.28" y="-353.77" font-family="Times,serif" font-size="14.00">1</text>
</g>
<!-- rwrp.CollectSubweapon -->
<g id="node7" class="node">
<title>rwrp.CollectSubweapon</title>
<g id="a_node7"><a xlink:href="rwrp.CollectSubweapon.svg" xlink:title="rwrp.CollectSubweapon">
<ellipse fill="green" stroke="black" cx="1041.69" cy="-378" rx="122.38" ry="18"/>
<text text-anchor="middle" x="1041.69" y="-374.3" font-family="Times,serif" font-size="14.00">rwrp.CollectSubweapon</text>
</a>
</g>
</g>
<!-- rwrp.CollectSubweapon&#45;&gt;wrp.DestroyEntity -->
<g id="edge6" class="edge">
<title>rwrp.CollectSubweapon&#45;&gt;wrp.DestroyEntity</title>
<path fill="none" stroke="black" d="M1126.49,-364.95C1141.85,-363.07 1157.73,-361.31 1172.69,-360 2507.81,-242.85 4137.56,-208.07 4564.35,-200.67"/>
<polygon fill="black" stroke="black" points="4564.57,-204.17 4574.51,-200.5 4564.45,-197.17 4564.57,-204.17"/>
<text text-anchor="middle" x="1121.49" y="-353.75" font-family="Times,serif" font-size="14.00">1</text>
</g>
<!-- rwrp.DestroyCurrentEntity -->
<g id="node8" class="node">
<title>rwrp.DestroyCurrentEntity</title>
<g id="a_node8"><a xlink:href="rwrp.DestroyCurrentEntity.svg" xlink:title="rwrp.DestroyCurrentEntity">
<ellipse fill="green" stroke="black" cx="1319.69" cy="-378" rx="137.58" ry="18"/>
<text text-anchor="middle" x="1319.69" y="-374.3" font-family="Times,serif" font-size="14.00">rwrp.DestroyCurrentEntity</text>
</a>
</g>
</g>
<!-- rwrp.DestroyCurrentEntity&#45;&gt;wrp.DestroyEntity -->
<g id="edge7" class="edge">
<title>rwrp.DestroyCurrentEntity&#45;&gt;wrp.DestroyEntity</title>
<path fill="none" stroke="black" d="M1415.28,-365.03C1432.38,-363.15 1450.05,-361.38 1466.69,-360 2682.18,-259.28 4162.67,-213.07 4565.36,-201.81"/>
<polygon fill="black" stroke="black" points="4565.63,-205.3 4575.53,-201.52 4565.44,-198.3 4565.63,-205.3"/>
<text text-anchor="middle" x="1410.28" y="-353.83" font-family="Times,serif" font-size="14.00">1</text>
</g>
<!-- rwrp.EntityEnemyBlood -->
<g id="node9" class="node">
<title>rwrp.EntityEnemyBlood</title>
<g id="a_node9"><a xlink:href="rwrp.EntityEnemyBlood.svg" xlink:title="rwrp.EntityEnemyBlood">
<ellipse fill="green" stroke="black" cx="1598.69" cy="-378" rx="123.48" ry="18"/>
<text text-anchor="middle" x="1598.69" y="-374.3" font-family="Times,serif" font-size="14.00">rwrp.EntityEnemyBlood</text>
</a>
</g>
</g>
<!-- rwrp.EntityEnemyBlood&#45;&gt;wrp.DestroyEntity -->
<g id="edge8" class="edge">
<title>rwrp.EntityEnemyBlood&#45;&gt;wrp.DestroyEntity</title>
<path fill="none" stroke="black" d="M1684.8,-365.07C1700.39,-363.17 1716.51,-361.38 1731.69,-360 2837.69,-259.16 4184,-213.5 4565.48,-202.01"/>
<polygon fill="black" stroke="black" points="4565.79,-205.5 4575.68,-201.7 4565.58,-198.5 4565.79,-205.5"/>
<text text-anchor="middle" x="1679.8" y="-353.87" font-family="Times,serif" font-size="14.00">1</text>
</g>
<!-- rwrp.EntityEquipItemDrop -->
<g id="node10" class="node">
<title>rwrp.EntityEquipItemDrop</title>
<g id="a_node10"><a xlink:href="rwrp.EntityEquipItemDrop.svg" xlink:title="rwrp.EntityEquipItemDrop">
<ellipse fill="green" stroke="black" cx="1876.69" cy="-378" rx="136.48" ry="18"/>
<text text-anchor="middle" x="1876.69" y="-374.3" font-family="Times,serif" font-size="14.00">rwrp.EntityEquipItemDrop</text>
</a>
</g>
</g>
<!-- rwrp.EntityEquipItemDrop&#45;&gt;wrp.DestroyEntity -->
<g id="edge9" class="edge">
<title>rwrp.EntityEquipItemDrop&#45;&gt;wrp.DestroyEntity</title>
<path fill="none" stroke="black" d="M1972.43,-365.09C1989.16,-363.22 2006.42,-361.44 2022.69,-360 3011.6,-272.43 4212.53,-218.18 4567.33,-203.23"/>
<polygon fill="black" stroke="black" points="4567.48,-206.73 4577.33,-202.81 4567.19,-199.73 4567.48,-206.73"/>
<text text-anchor="middle" x="1967.43" y="-353.89" font-family="Times,serif" font-size="14.00">2</text>
</g>
<!-- rwrp.EntityExplosion -->
<g id="node11" class="node">
<title>rwrp.EntityExplosion</title>
<g id="a_node11"><a xlink:href="rwrp.EntityExplosion.svg" xlink:title="rwrp.EntityExplosion">
<ellipse fill="green" stroke="black" cx="2141.69" cy="-378" rx="110.48" ry="18"/>
<text text-anchor="middle" x="2141.69" y="-374.3" font-family="Times,serif" font-size="14.00">rwrp.EntityExplosion</text>
</a>
</g>
</g>
<!-- rwrp.EntityExplosion&#45;&gt;wrp.DestroyEntity -->
<g id="edge10" class="edge">
<title>rwrp.EntityExplosion&#45;&gt;wrp.DestroyEntity</title>
<path fill="none" stroke="black" d="M2219.04,-365.09C2232.89,-363.2 2247.2,-361.41 2260.69,-360 3151.01,-266.8 4232.32,-217.08 4566.99,-203.14"/>
<polygon fill="black" stroke="black" points="4567.3,-206.63 4577.15,-202.71 4567.01,-199.63 4567.3,-206.63"/>
<text text-anchor="middle" x="2214.04" y="-353.89" font-family="Times,serif" font-size="14.00">1</text>
</g>
<!-- rwrp.EntityPrizeDrop -->
<g id="node12" class="node">
<title>rwrp.EntityPrizeDrop</title>
<g id="a_node12"><a xlink:href="rwrp.EntityPrizeDrop.svg" xlink:title="rwrp.EntityPrizeDrop">
<ellipse fill="green" stroke="black" cx="2381.69" cy="-378" rx="111.58" ry="18"/>
<text text-anchor="middle" x="2381.69" y="-374.3" font-family="Times,serif" font-size="14.00">rwrp.EntityPrizeDrop</text>
</a>
</g>
</g>
<!-- rwrp.EntityPrizeDrop&#45;&gt;wrp.DestroyEntity -->
<g id="edge11" class="edge">
<title>rwrp.EntityPrizeDrop&#45;&gt;wrp.DestroyEntity</title>
<path fill="none" stroke="black" d="M2460.36,-365.19C2474.43,-363.29 2488.98,-361.47 2502.69,-360 3295.83,-274.93 4257.05,-220.59 4568.22,-204.22"/>
<polygon fill="black" stroke="black" points="4568.77,-207.7 4578.57,-203.68 4568.41,-200.71 4568.77,-207.7"/>
<text text-anchor="middle" x="2455.36" y="-353.99" font-family="Times,serif" font-size="14.00">2</text>
</g>
<!-- rwrp.EntityRedDoor -->
<g id="node13" class="node">
<title>rwrp.EntityRedDoor</title>
<g id="a_node13"><a xlink:href="rwrp.EntityRedDoor.svg" xlink:title="rwrp.EntityRedDoor">
<ellipse fill="green" stroke="black" cx="2616.69" cy="-378" rx="105.08" ry="18"/>
<text text-anchor="middle" x="2616.69" y="-374.3" font-family="Times,serif" font-size="14.00">rwrp.EntityRedDoor</text>
</a>
</g>
</g>
<!-- rwrp.EntityRedDoor&#45;&gt;wrp.DestroyEntity -->
<g id="edge12" class="edge">
<title>rwrp.EntityRedDoor&#45;&gt;wrp.DestroyEntity</title>
<path fill="none" stroke="black" d="M2691.11,-365.19C2704.27,-363.3 2717.87,-361.49 2730.69,-360 3432.82,-278.6 4282.55,-222.75 4570.08,-205.03"/>
<polygon fill="black" stroke="black" points="4570.3,-208.52 4580.07,-204.41 4569.87,-201.53 4570.3,-208.52"/>
<text text-anchor="middle" x="2686.11" y="-353.99" font-family="Times,serif" font-size="14.00">1</text>
</g>
<!-- rwrp.EntitySoulStealOrb -->
<g id="node14" class="node">
<title>rwrp.EntitySoulStealOrb</title>
<g id="a_node14"><a xlink:href="rwrp.EntitySoulStealOrb.svg" xlink:title="rwrp.EntitySoulStealOrb">
<ellipse fill="green" stroke="black" cx="2866.69" cy="-378" rx="126.98" ry="18"/>
<text text-anchor="middle" x="2866.69" y="-374.3" font-family="Times,serif" font-size="14.00">rwrp.EntitySoulStealOrb</text>
</a>
</g>
</g>
<!-- rwrp.EntitySoulStealOrb&#45;&gt;wrp.DestroyEntity -->
<g id="edge13" class="edge">
<title>rwrp.EntitySoulStealOrb&#45;&gt;wrp.DestroyEntity</title>
<path fill="none" stroke="black" d="M2956.69,-365.3C2971.71,-363.45 2987.14,-361.62 3001.69,-360 3599.11,-293.58 4318.64,-229.56 4574.6,-207.28"/>
<polygon fill="black" stroke="black" points="4574.95,-210.77 4584.61,-206.41 4574.35,-203.79 4574.95,-210.77"/>
<text text-anchor="middle" x="2951.69" y="-354.1" font-family="Times,serif" font-size="14.00">1</text>
</g>
<!-- rwrp.EntityStageNamePopup -->
<g id="node15" class="node">
<title>rwrp.EntityStageNamePopup</title>
<g id="a_node15"><a xlink:href="rwrp.EntityStageNamePopup.svg" xlink:title="rwrp.EntityStageNamePopup">
<ellipse fill="green" stroke="black" cx="3158.69" cy="-378" rx="147.57" ry="18"/>
<text text-anchor="middle" x="3158.69" y="-374.3" font-family="Times,serif" font-size="14.00">rwrp.EntityStageNamePopup</text>
</a>
</g>
</g>
<!-- rwrp.EntityStageNamePopup&#45;&gt;wrp.DestroyEntity -->
<g id="edge14" class="edge">
<title>rwrp.EntityStageNamePopup&#45;&gt;wrp.DestroyEntity</title>
<path fill="none" stroke="black" d="M3260.84,-364.97C3540.84,-332.01 4317.29,-240.6 4581.41,-209.51"/>
<polygon fill="black" stroke="black" points="4581.82,-212.99 4591.34,-208.34 4581,-206.04 4581.82,-212.99"/>
<text text-anchor="middle" x="3255.84" y="-353.77" font-family="Times,serif" font-size="14.00">1</text>
</g>
<!-- wrp.AllocEntity -->
<g id="node16" class="node">
<title>wrp.AllocEntity</title>
<g id="a_node16"><a xlink:href="wrp.AllocEntity.svg" xlink:title="wrp.AllocEntity">
<ellipse fill="green" stroke="black" cx="3407.69" cy="-378" rx="83.39" ry="18"/>
<text text-anchor="middle" x="3407.69" y="-374.3" font-family="Times,serif" font-size="14.00">wrp.AllocEntity</text>
</a>
</g>
</g>
<!-- wrp.AllocEntity&#45;&gt;wrp.DestroyEntity -->
<g id="edge15" class="edge">
<title>wrp.AllocEntity&#45;&gt;wrp.DestroyEntity</title>
<path fill="none" stroke="black" d="M3468,-365.45C3478.55,-363.54 3489.43,-361.65 3499.69,-360 3902.7,-295.1 4386.42,-233.85 4582.1,-209.76"/>
<polygon fill="black" stroke="black" points="4582.55,-213.24 4592.04,-208.54 4581.69,-206.29 4582.55,-213.24"/>
<text text-anchor="middle" x="3463" y="-354.25" font-family="Times,serif" font-size="14.00">1</text>
</g>
<!-- wrp.CreateEntityFromCurrentEntity -->
<g id="node17" class="node">
<title>wrp.CreateEntityFromCurrentEntity</title>
<g id="a_node17"><a xlink:href="wrp.CreateEntityFromCurrentEntity.svg" xlink:title="wrp.CreateEntityFromCurrentEntity">
<ellipse fill="green" stroke="black" cx="3690.69" cy="-378" rx="181.97" ry="18"/>
<text text-anchor="middle" x="3690.69" y="-374.3" font-family="Times,serif" font-size="14.00">wrp.CreateEntityFromCurrentEntity</text>
</a>
</g>
</g>
<!-- wrp.CreateEntityFromCurrentEntity&#45;&gt;wrp.DestroyEntity -->
<g id="edge16" class="edge">
<title>wrp.CreateEntityFromCurrentEntity&#45;&gt;wrp.DestroyEntity</title>
<path fill="none" stroke="black" d="M3773.82,-361.9C3961.04,-327.9 4413.44,-245.73 4594.2,-212.89"/>
<polygon fill="black" stroke="black" points="4594.94,-216.32 4604.16,-211.08 4593.69,-209.43 4594.94,-216.32"/>
<text text-anchor="middle" x="3768.82" y="-350.7" font-family="Times,serif" font-size="14.00">1</text>
</g>
<!-- wrp.CreateEntityFromEntity -->
<g id="node18" class="node">
<title>wrp.CreateEntityFromEntity</title>
<g id="a_node18"><a xlink:href="wrp.CreateEntityFromEntity.svg" xlink:title="wrp.CreateEntityFromEntity">
<ellipse fill="green" stroke="black" cx="4036.69" cy="-378" rx="145.67" ry="18"/>
<text text-anchor="middle" x="4036.69" y="-374.3" font-family="Times,serif" font-size="14.00">wrp.CreateEntityFromEntity</text>
</a>
</g>
</g>
<!-- wrp.CreateEntityFromEntity&#45;&gt;wrp.DestroyEntity -->
<g id="edge17" class="edge">
<title>wrp.CreateEntityFromEntity&#45;&gt;wrp.DestroyEntity</title>
<path fill="none" stroke="black" d="M4092.4,-361.36C4210.81,-328.11 4486.75,-250.64 4609.7,-216.12"/>
<polygon fill="black" stroke="black" points="4610.66,-219.49 4619.34,-213.42 4608.77,-212.75 4610.66,-219.49"/>
<text text-anchor="middle" x="4087.4" y="-350.16" font-family="Times,serif" font-size="14.00">1</text>
</g>
<!-- wrp.CreateEntityFromLayout -->
<g id="node19" class="node">
<title>wrp.CreateEntityFromLayout</title>
<g id="a_node19"><a xlink:href="wrp.CreateEntityFromLayout.svg" xlink:title="wrp.CreateEntityFromLayout">
<ellipse fill="green" stroke="black" cx="4348.69" cy="-378" rx="148.37" ry="18"/>
<text text-anchor="middle" x="4348.69" y="-374.3" font-family="Times,serif" font-size="14.00">wrp.CreateEntityFromLayout</text>
</a>
</g>
</g>
<!-- wrp.CreateEntityFromLayout&#45;&gt;wrp.DestroyEntity -->
<g id="edge18" class="edge">
<title>wrp.CreateEntityFromLayout&#45;&gt;wrp.DestroyEntity</title>
<path fill="none" stroke="black" d="M4378.99,-360.25C4437.78,-327.75 4567.25,-256.18 4632.1,-220.33"/>
<polygon fill="black" stroke="black" points="4634.12,-223.22 4641.18,-215.31 4630.74,-217.09 4634.12,-223.22"/>
<text text-anchor="middle" x="4373.99" y="-349.05" font-family="Times,serif" font-size="14.00">1</text>
</g>
<!-- wrp.DestroyEntitiesFromIndex -->
<g id="node20" class="node">
<title>wrp.DestroyEntitiesFromIndex</title>
<g id="a_node20"><a xlink:href="wrp.DestroyEntitiesFromIndex.svg" xlink:title="wrp.DestroyEntitiesFromIndex">
<ellipse fill="green" stroke="black" cx="4670.69" cy="-378" rx="155.17" ry="18"/>
<text text-anchor="middle" x="4670.69" y="-374.3" font-family="Times,serif" font-size="14.00">wrp.DestroyEntitiesFromIndex</text>
</a>
</g>
</g>
<!-- wrp.DestroyEntitiesFromIndex&#45;&gt;wrp.DestroyEntity -->
<g id="edge19" class="edge">
<title>wrp.DestroyEntitiesFromIndex&#45;&gt;wrp.DestroyEntity</title>
<path fill="none" stroke="black" d="M4670.69,-359.93C4670.69,-328.97 4670.69,-263.3 4670.69,-226.13"/>
<polygon fill="black" stroke="black" points="4674.19,-226.02 4670.69,-216.02 4667.19,-226.02 4674.19,-226.02"/>
<text text-anchor="middle" x="4665.69" y="-348.73" font-family="Times,serif" font-size="14.00">1</text>
</g>
<!-- wrp.EntityBigRedFireball -->
<g id="node21" class="node">
<title>wrp.EntityBigRedFireball</title>
<g id="a_node21"><a xlink:href="wrp.EntityBigRedFireball.svg" xlink:title="wrp.EntityBigRedFireball">
<ellipse fill="green" stroke="black" cx="4973.69" cy="-378" rx="129.98" ry="18"/>
<text text-anchor="middle" x="4973.69" y="-374.3" font-family="Times,serif" font-size="14.00">wrp.EntityBigRedFireball</text>
</a>
</g>
</g>
<!-- wrp.EntityBigRedFireball&#45;&gt;wrp.DestroyEntity -->
<g id="edge20" class="edge">
<title>wrp.EntityBigRedFireball&#45;&gt;wrp.DestroyEntity</title>
<path fill="none" stroke="black" d="M4945.46,-360.41C4890.4,-328.07 4768.73,-256.6 4707.47,-220.6"/>
<polygon fill="black" stroke="black" points="4708.92,-217.4 4698.52,-215.35 4705.37,-223.43 4708.92,-217.4"/>
<text text-anchor="middle" x="4940.46" y="-349.21" font-family="Times,serif" font-size="14.00">1</text>
</g>
<!-- wrp.EntityDamageDisplay -->
<g id="node22" class="node">
<title>wrp.EntityDamageDisplay</title>
<g id="a_node22"><a xlink:href="wrp.EntityDamageDisplay.svg" xlink:title="wrp.EntityDamageDisplay">
<ellipse fill="green" stroke="black" cx="5254.69" cy="-378" rx="133.48" ry="18"/>
<text text-anchor="middle" x="5254.69" y="-374.3" font-family="Times,serif" font-size="14.00">wrp.EntityDamageDisplay</text>
</a>
</g>
</g>
<!-- wrp.EntityDamageDisplay&#45;&gt;wrp.DestroyEntity -->
<g id="edge21" class="edge">
<title>wrp.EntityDamageDisplay&#45;&gt;wrp.DestroyEntity</title>
<path fill="none" stroke="black" d="M5203.38,-361.36C5094.79,-328.26 4842.41,-251.34 4728.41,-216.59"/>
<polygon fill="black" stroke="black" points="4729.39,-213.23 4718.8,-213.66 4727.35,-219.93 4729.39,-213.23"/>
<text text-anchor="middle" x="5198.38" y="-350.16" font-family="Times,serif" font-size="14.00">1</text>
</g>
<!-- wrp.EntityExplosionSpawn -->
<g id="node23" class="node">
<title>wrp.EntityExplosionSpawn</title>
<g id="a_node23"><a xlink:href="wrp.EntityExplosionSpawn.svg" xlink:title="wrp.EntityExplosionSpawn">
<ellipse fill="green" stroke="black" cx="5542.69" cy="-378" rx="137.28" ry="18"/>
<text text-anchor="middle" x="5542.69" y="-374.3" font-family="Times,serif" font-size="14.00">wrp.EntityExplosionSpawn</text>
</a>
</g>
</g>
<!-- wrp.EntityExplosionSpawn&#45;&gt;wrp.DestroyEntity -->
<g id="edge22" class="edge">
<title>wrp.EntityExplosionSpawn&#45;&gt;wrp.DestroyEntity</title>
<path fill="none" stroke="black" d="M5471.7,-362.51C5308.51,-329.2 4908.08,-247.46 4743.32,-213.83"/>
<polygon fill="black" stroke="black" points="4743.78,-210.35 4733.28,-211.78 4742.38,-217.21 4743.78,-210.35"/>
<text text-anchor="middle" x="5466.7" y="-351.31" font-family="Times,serif" font-size="14.00">1</text>
</g>
<!-- wrp.EntityHeartDrop -->
<g id="node24" class="node">
<title>wrp.EntityHeartDrop</title>
<g id="a_node24"><a xlink:href="wrp.EntityHeartDrop.svg" xlink:title="wrp.EntityHeartDrop">
<ellipse fill="green" stroke="black" cx="5808.69" cy="-378" rx="110.48" ry="18"/>
<text text-anchor="middle" x="5808.69" y="-374.3" font-family="Times,serif" font-size="14.00">wrp.EntityHeartDrop</text>
</a>
</g>
</g>
<!-- wrp.EntityHeartDrop&#45;&gt;wrp.DestroyEntity -->
<g id="edge23" class="edge">
<title>wrp.EntityHeartDrop&#45;&gt;wrp.DestroyEntity</title>
<path fill="none" stroke="black" d="M5731.81,-364.97C5525.98,-332.78 4963.68,-244.83 4752.39,-211.78"/>
<polygon fill="black" stroke="black" points="4752.72,-208.29 4742.3,-210.2 4751.63,-215.2 4752.72,-208.29"/>
<text text-anchor="middle" x="5726.81" y="-353.77" font-family="Times,serif" font-size="14.00">1</text>
</g>
<!-- wrp.EntityIntenseExplosion -->
<g id="node25" class="node">
<title>wrp.EntityIntenseExplosion</title>
<g id="a_node25"><a xlink:href="wrp.EntityIntenseExplosion.svg" xlink:title="wrp.EntityIntenseExplosion">
<ellipse fill="green" stroke="black" cx="6077.69" cy="-378" rx="140.28" ry="18"/>
<text text-anchor="middle" x="6077.69" y="-374.3" font-family="Times,serif" font-size="14.00">wrp.EntityIntenseExplosion</text>
</a>
</g>
</g>
<!-- wrp.EntityIntenseExplosion&#45;&gt;wrp.DestroyEntity -->
<g id="edge24" class="edge">
<title>wrp.EntityIntenseExplosion&#45;&gt;wrp.DestroyEntity</title>
<path fill="none" stroke="black" d="M5981.54,-364.84C5721.77,-331.97 5008.68,-241.76 4758.69,-210.13"/>
<polygon fill="black" stroke="black" points="4758.92,-206.63 4748.56,-208.85 4758.04,-213.58 4758.92,-206.63"/>
<text text-anchor="middle" x="5976.54" y="-353.64" font-family="Times,serif" font-size="14.00">1</text>
</g>
<!-- wrp.EntityMessageBox -->
<g id="node26" class="node">
<title>wrp.EntityMessageBox</title>
<g id="a_node26"><a xlink:href="wrp.EntityMessageBox.svg" xlink:title="wrp.EntityMessageBox">
<ellipse fill="green" stroke="black" cx="6354.69" cy="-378" rx="118.88" ry="18"/>
<text text-anchor="middle" x="6354.69" y="-374.3" font-family="Times,serif" font-size="14.00">wrp.EntityMessageBox</text>
</a>
</g>
</g>
<!-- wrp.EntityMessageBox&#45;&gt;wrp.DestroyEntity -->
<g id="edge25" class="edge">
<title>wrp.EntityMessageBox&#45;&gt;wrp.DestroyEntity</title>
<path fill="none" stroke="black" d="M6269.7,-365.36C6255.36,-363.5 6240.61,-361.64 6226.69,-360 5673.65,-294.68 5008.26,-230.7 4765.33,-207.83"/>
<polygon fill="black" stroke="black" points="4765.4,-204.32 4755.12,-206.87 4764.75,-211.29 4765.4,-204.32"/>
<text text-anchor="middle" x="6264.7" y="-354.16" font-family="Times,serif" font-size="14.00">1</text>
</g>
<!-- wrp.EntityOlroxDrool -->
<g id="node27" class="node">
<title>wrp.EntityOlroxDrool</title>
<g id="a_node27"><a xlink:href="wrp.EntityOlroxDrool.svg" xlink:title="wrp.EntityOlroxDrool">
<ellipse fill="green" stroke="black" cx="6602.69" cy="-378" rx="111.28" ry="18"/>
<text text-anchor="middle" x="6602.69" y="-374.3" font-family="Times,serif" font-size="14.00">wrp.EntityOlroxDrool</text>
</a>
</g>
</g>
<!-- wrp.EntityOlroxDrool&#45;&gt;wrp.DestroyEntity -->
<g id="edge26" class="edge">
<title>wrp.EntityOlroxDrool&#45;&gt;wrp.DestroyEntity</title>
<path fill="none" stroke="black" d="M6524.02,-365.26C6510.26,-363.37 6496.07,-361.54 6482.69,-360 5830.64,-284.9 5043.07,-225.63 4769.76,-205.98"/>
<polygon fill="black" stroke="black" points="4769.7,-202.47 4759.48,-205.24 4769.2,-209.45 4769.7,-202.47"/>
<text text-anchor="middle" x="6519.02" y="-354.06" font-family="Times,serif" font-size="14.00">1</text>
</g>
<!-- wrp.EntityRelicOrb -->
<g id="node28" class="node">
<title>wrp.EntityRelicOrb</title>
<g id="a_node28"><a xlink:href="wrp.EntityRelicOrb.svg" xlink:title="wrp.EntityRelicOrb">
<ellipse fill="green" stroke="black" cx="6832.69" cy="-378" rx="100.98" ry="18"/>
<text text-anchor="middle" x="6832.69" y="-374.3" font-family="Times,serif" font-size="14.00">wrp.EntityRelicOrb</text>
</a>
</g>
</g>
<!-- wrp.EntityRelicOrb&#45;&gt;wrp.DestroyEntity -->
<g id="edge27" class="edge">
<title>wrp.EntityRelicOrb&#45;&gt;wrp.DestroyEntity</title>
<path fill="none" stroke="black" d="M6761.5,-365.2C6748.6,-363.29 6735.26,-361.46 6722.69,-360 5977.04,-273.25 5073.38,-220.46 4773.14,-204.31"/>
<polygon fill="black" stroke="black" points="4772.88,-200.79 4762.71,-203.75 4772.51,-207.78 4772.88,-200.79"/>
<text text-anchor="middle" x="6756.5" y="-354" font-family="Times,serif" font-size="14.00">1</text>
</g>
<!-- wrp.EntityUnkId13 -->
<g id="node29" class="node">
<title>wrp.EntityUnkId13</title>
<g id="a_node29"><a xlink:href="wrp.EntityUnkId13.svg" xlink:title="wrp.EntityUnkId13">
<ellipse fill="green" stroke="black" cx="7051.69" cy="-378" rx="100.98" ry="18"/>
<text text-anchor="middle" x="7051.69" y="-374.3" font-family="Times,serif" font-size="14.00">wrp.EntityUnkId13</text>
</a>
</g>
</g>
<!-- wrp.EntityUnkId13&#45;&gt;wrp.DestroyEntity -->
<g id="edge28" class="edge">
<title>wrp.EntityUnkId13&#45;&gt;wrp.DestroyEntity</title>
<path fill="none" stroke="black" d="M6981.15,-365.11C6968.38,-363.21 6955.16,-361.41 6942.69,-360 6109.17,-265.64 5096.95,-217.11 4774.54,-203.25"/>
<polygon fill="black" stroke="black" points="4774.42,-199.74 4764.28,-202.81 4774.12,-206.74 4774.42,-199.74"/>
<text text-anchor="middle" x="6976.15" y="-353.91" font-family="Times,serif" font-size="14.00">1</text>
</g>
<!-- wrp.EntityUnkId14 -->
<g id="node30" class="node">
<title>wrp.EntityUnkId14</title>
<g id="a_node30"><a xlink:href="wrp.EntityUnkId14.svg" xlink:title="wrp.EntityUnkId14">
<ellipse fill="green" stroke="black" cx="7270.69" cy="-378" rx="100.98" ry="18"/>
<text text-anchor="middle" x="7270.69" y="-374.3" font-family="Times,serif" font-size="14.00">wrp.EntityUnkId14</text>
</a>
</g>
</g>
<!-- wrp.EntityUnkId14&#45;&gt;wrp.DestroyEntity -->
<g id="edge29" class="edge">
<title>wrp.EntityUnkId14&#45;&gt;wrp.DestroyEntity</title>
<path fill="none" stroke="black" d="M7200.45,-365.09C7187.59,-363.18 7174.26,-361.38 7161.69,-360 6239.75,-258.52 5118.28,-214.19 4775.29,-202.38"/>
<polygon fill="black" stroke="black" points="4775.24,-198.88 4765.12,-202.03 4775,-205.87 4775.24,-198.88"/>
<text text-anchor="middle" x="7195.45" y="-353.89" font-family="Times,serif" font-size="14.00">1</text>
</g>
<!-- wrp.EntityUnkId15 -->
<g id="node31" class="node">
<title>wrp.EntityUnkId15</title>
<g id="a_node31"><a xlink:href="wrp.EntityUnkId15.svg" xlink:title="wrp.EntityUnkId15">
<ellipse fill="green" stroke="black" cx="7489.69" cy="-378" rx="100.98" ry="18"/>
<text text-anchor="middle" x="7489.69" y="-374.3" font-family="Times,serif" font-size="14.00">wrp.EntityUnkId15</text>
</a>
</g>
</g>
<!-- wrp.EntityUnkId15&#45;&gt;wrp.DestroyEntity -->
<g id="edge30" class="edge">
<title>wrp.EntityUnkId15&#45;&gt;wrp.DestroyEntity</title>
<path fill="none" stroke="black" d="M7419.46,-365.04C7406.59,-363.13 7393.26,-361.35 7380.69,-360 6370.28,-251.44 5139.49,-211.54 4776.3,-201.65"/>
<polygon fill="black" stroke="black" points="4776.16,-198.15 4766.07,-201.37 4775.97,-205.14 4776.16,-198.15"/>
<text text-anchor="middle" x="7414.46" y="-353.84" font-family="Times,serif" font-size="14.00">1</text>
</g>
<!-- wrp.EntityWarpSmallRocks -->
<g id="node32" class="node">
<title>wrp.EntityWarpSmallRocks</title>
<g id="a_node32"><a xlink:href="wrp.EntityWarpSmallRocks.svg" xlink:title="wrp.EntityWarpSmallRocks">
<ellipse fill="green" stroke="black" cx="7746.69" cy="-378" rx="138.38" ry="18"/>
<text text-anchor="middle" x="7746.69" y="-374.3" font-family="Times,serif" font-size="14.00">wrp.EntityWarpSmallRocks</text>
</a>
</g>
</g>
<!-- wrp.EntityWarpSmallRocks&#45;&gt;wrp.DestroyEntity -->
<g id="edge31" class="edge">
<title>wrp.EntityWarpSmallRocks&#45;&gt;wrp.DestroyEntity</title>
<path fill="none" stroke="black" d="M7650.31,-365.01C7633.45,-363.16 7616.07,-361.4 7599.69,-360 6496.56,-265.98 5154.79,-215.54 4775.18,-202.47"/>
<polygon fill="black" stroke="black" points="4775.15,-198.96 4765.04,-202.12 4774.91,-205.96 4775.15,-198.96"/>
<text text-anchor="middle" x="7645.31" y="-353.81" font-family="Times,serif" font-size="14.00">1</text>
</g>
<!-- wrp.HitDetection -->
<g id="node33" class="node">
<title>wrp.HitDetection</title>
<g id="a_node33"><a xlink:href="wrp.HitDetection.svg" xlink:title="wrp.HitDetection">
<ellipse fill="green" stroke="black" cx="7993.69" cy="-378" rx="90.98" ry="18"/>
<text text-anchor="middle" x="7993.69" y="-374.3" font-family="Times,serif" font-size="14.00">wrp.HitDetection</text>
</a>
</g>
</g>
<!-- wrp.HitDetection&#45;&gt;wrp.DestroyEntity -->
<g id="edge32" class="edge">
<title>wrp.HitDetection&#45;&gt;wrp.DestroyEntity</title>
<path fill="none" stroke="black" d="M7930.37,-365.07C7918.23,-363.12 7905.6,-361.3 7893.69,-360 6674.81,-226.43 5184.32,-203.57 4777.54,-199.75"/>
<polygon fill="black" stroke="black" points="4777.29,-196.25 4767.26,-199.65 4777.23,-203.25 4777.29,-196.25"/>
<text text-anchor="middle" x="7925.37" y="-353.87" font-family="Times,serif" font-size="14.00">1</text>
</g>
<!-- wrp.InitializeUnkEntity -->
<g id="node34" class="node">
<title>wrp.InitializeUnkEntity</title>
<g id="a_node34"><a xlink:href="wrp.InitializeUnkEntity.svg" xlink:title="wrp.InitializeUnkEntity">
<ellipse fill="green" stroke="black" cx="8222.69" cy="-378" rx="120.48" ry="18"/>
<text text-anchor="middle" x="8222.69" y="-374.3" font-family="Times,serif" font-size="14.00">wrp.InitializeUnkEntity</text>
</a>
</g>
</g>
<!-- wrp.InitializeUnkEntity&#45;&gt;wrp.DestroyEntity -->
<g id="edge33" class="edge">
<title>wrp.InitializeUnkEntity&#45;&gt;wrp.DestroyEntity</title>
<path fill="none" stroke="black" d="M8139.53,-365C8124.31,-363.1 8108.54,-361.33 8093.69,-360 6789.51,-243.6 5197.8,-208.35 4776.88,-200.74"/>
<polygon fill="black" stroke="black" points="4776.92,-197.24 4766.86,-200.56 4776.8,-204.24 4776.92,-197.24"/>
<text text-anchor="middle" x="8134.53" y="-353.8" font-family="Times,serif" font-size="14.00">1</text>
</g>
<!-- wrp.MakeEntityFromId -->
<g id="node35" class="node">
<title>wrp.MakeEntityFromId</title>
<g id="a_node35"><a xlink:href="wrp.MakeEntityFromId.svg" xlink:title="wrp.MakeEntityFromId">
<ellipse fill="green" stroke="black" cx="8480.69" cy="-378" rx="120.48" ry="18"/>
<text text-anchor="middle" x="8480.69" y="-374.3" font-family="Times,serif" font-size="14.00">wrp.MakeEntityFromId</text>
</a>
</g>
</g>
<!-- wrp.MakeEntityFromId&#45;&gt;wrp.DestroyEntity -->
<g id="edge34" class="edge">
<title>wrp.MakeEntityFromId&#45;&gt;wrp.DestroyEntity</title>
<path fill="none" stroke="black" d="M8397.54,-364.96C8382.31,-363.06 8366.54,-361.3 8351.69,-360 6940.97,-236.43 5217.39,-206.18 4777.03,-200.26"/>
<polygon fill="black" stroke="black" points="4776.92,-196.76 4766.87,-200.12 4776.82,-203.75 4776.92,-196.76"/>
<text text-anchor="middle" x="8392.54" y="-353.76" font-family="Times,serif" font-size="14.00">1</text>
</g>
<!-- wrp.ReplaceBreakableWithItemDrop -->
<g id="node36" class="node">
<title>wrp.ReplaceBreakableWithItemDrop</title>
<g id="a_node36"><a xlink:href="wrp.ReplaceBreakableWithItemDrop.svg" xlink:title="wrp.ReplaceBreakableWithItemDrop">
<ellipse fill="green" stroke="black" cx="8800.69" cy="-378" rx="181.17" ry="18"/>
<text text-anchor="middle" x="8800.69" y="-374.3" font-family="Times,serif" font-size="14.00">wrp.ReplaceBreakableWithItemDrop</text>
</a>
</g>
</g>
<!-- wrp.ReplaceBreakableWithItemDrop&#45;&gt;wrp.DestroyEntity -->
<g id="edge35" class="edge">
<title>wrp.ReplaceBreakableWithItemDrop&#45;&gt;wrp.DestroyEntity</title>
<path fill="none" stroke="black" d="M8675.41,-364.98C8653.52,-363.13 8630.95,-361.38 8609.69,-360 7088.84,-261.29 5233.48,-212.49 4776.23,-201.46"/>
<polygon fill="black" stroke="black" points="4776.1,-197.95 4766.02,-201.21 4775.93,-204.95 4776.1,-197.95"/>
<text text-anchor="middle" x="8670.41" y="-353.78" font-family="Times,serif" font-size="14.00">1</text>
</g>
<!-- wrp.Update -->
<g id="node37" class="node">
<title>wrp.Update</title>
<g id="a_node37"><a xlink:href="wrp.Update.svg" xlink:title="wrp.Update">
<ellipse fill="green" stroke="black" cx="9065.69" cy="-378" rx="65.79" ry="18"/>
<text text-anchor="middle" x="9065.69" y="-374.3" font-family="Times,serif" font-size="14.00">wrp.Update</text>
</a>
</g>
</g>
<!-- wrp.Update&#45;&gt;wrp.DestroyEntity -->
<g id="edge36" class="edge">
<title>wrp.Update&#45;&gt;wrp.DestroyEntity</title>
<path fill="none" stroke="black" d="M9019.52,-365.12C9010.05,-363.08 9000.09,-361.23 8990.69,-360 8138.97,-248.58 5356.56,-207.69 4777.03,-200.28"/>
<polygon fill="black" stroke="black" points="4777.06,-196.79 4767.02,-200.16 4776.97,-203.78 4777.06,-196.79"/>
<text text-anchor="middle" x="9014.52" y="-353.92" font-family="Times,serif" font-size="14.00">1</text>
</g>
</g>
</svg>
