<?xml version="1.0" encoding="UTF-8" standalone="no"?>
<!DOCTYPE svg PUBLIC "-//W3C//DTD SVG 1.1//EN"
 "http://www.w3.org/Graphics/SVG/1.1/DTD/svg11.dtd">
<!-- Generated by graphviz version 2.43.0 (0)
 -->
<!-- Title: wrp.AllocEntity Pages: 1 -->
<svg width="2812pt" height="404pt"
 viewBox="0.00 0.00 2812.03 404.00" xmlns="http://www.w3.org/2000/svg" xmlns:xlink="http://www.w3.org/1999/xlink">
<g id="graph0" class="graph" transform="scale(1 1) rotate(0) translate(4 400)">
<title>wrp.AllocEntity</title>
<polygon fill="white" stroke="transparent" points="-4,4 -4,-400 2808.03,-400 2808.03,4 -4,4"/>
<!-- wrp.AllocEntity -->
<g id="node1" class="node">
<title>wrp.AllocEntity</title>
<ellipse fill="green" stroke="black" cx="1428.79" cy="-198" rx="83.39" ry="18"/>
<text text-anchor="middle" x="1428.79" y="-194.3" font-family="Times,serif" font-size="14.00">wrp.AllocEntity</text>
</g>
<!-- wrp.DestroyEntity -->
<g id="node2" class="node">
<title>wrp.DestroyEntity</title>
<g id="a_node2"><a xlink:href="wrp.DestroyEntity.svg" xlink:title="wrp.DestroyEntity">
<ellipse fill="green" stroke="black" cx="1428.79" cy="-18" rx="96.68" ry="18"/>
<text text-anchor="middle" x="1428.79" y="-14.3" font-family="Times,serif" font-size="14.00">wrp.DestroyEntity</text>
</a>
</g>
</g>
<!-- wrp.AllocEntity&#45;&gt;wrp.DestroyEntity -->
<g id="edge1" class="edge">
<title>wrp.AllocEntity&#45;&gt;wrp.DestroyEntity</title>
<path fill="none" stroke="black" d="M1428.79,-179.93C1428.79,-148.97 1428.79,-83.3 1428.79,-46.13"/>
<polygon fill="black" stroke="black" points="1432.29,-46.02 1428.79,-36.02 1425.29,-46.02 1432.29,-46.02"/>
<text text-anchor="middle" x="1423.79" y="-39.82" font-family="Times,serif" font-size="14.00">1</text>
</g>
<!-- rwrp.EntityBreakable -->
<g id="node3" class="node">
<title>rwrp.EntityBreakable</title>
<g id="a_node3"><a xlink:href="rwrp.EntityBreakable.svg" xlink:title="rwrp.EntityBreakable">
<ellipse fill="green" stroke="black" cx="111.79" cy="-378" rx="111.58" ry="18"/>
<text text-anchor="middle" x="111.79" y="-374.3" font-family="Times,serif" font-size="14.00">rwrp.EntityBreakable</text>
</a>
</g>
</g>
<!-- rwrp.EntityBreakable&#45;&gt;wrp.AllocEntity -->
<g id="edge2" class="edge">
<title>rwrp.EntityBreakable&#45;&gt;wrp.AllocEntity</title>
<path fill="none" stroke="black" d="M192.47,-365.49C205.61,-363.64 219.08,-361.76 231.79,-360 652.92,-301.85 1157.8,-234.82 1349.62,-209.45"/>
<polygon fill="black" stroke="black" points="1350.16,-212.91 1359.61,-208.13 1349.24,-205.97 1350.16,-212.91"/>
<text text-anchor="middle" x="187.47" y="-354.29" font-family="Times,serif" font-size="14.00">1</text>
</g>
<!-- rwrp.EntityUnkId13 -->
<g id="node4" class="node">
<title>rwrp.EntityUnkId13</title>
<g id="a_node4"><a xlink:href="rwrp.EntityUnkId13.svg" xlink:title="rwrp.EntityUnkId13">
<ellipse fill="green" stroke="black" cx="345.79" cy="-378" rx="104.78" ry="18"/>
<text text-anchor="middle" x="345.79" y="-374.3" font-family="Times,serif" font-size="14.00">rwrp.EntityUnkId13</text>
</a>
</g>
</g>
<!-- rwrp.EntityUnkId13&#45;&gt;wrp.AllocEntity -->
<g id="edge3" class="edge">
<title>rwrp.EntityUnkId13&#45;&gt;wrp.AllocEntity</title>
<path fill="none" stroke="black" d="M418.53,-365.04C615.25,-332.71 1156.28,-243.79 1354.64,-211.19"/>
<polygon fill="black" stroke="black" points="1355.37,-214.61 1364.67,-209.54 1354.23,-207.71 1355.37,-214.61"/>
<text text-anchor="middle" x="413.53" y="-353.84" font-family="Times,serif" font-size="14.00">1</text>
</g>
<!-- rwrp.EntityUnkId14Spawner -->
<g id="node5" class="node">
<title>rwrp.EntityUnkId14Spawner</title>
<g id="a_node5"><a xlink:href="rwrp.EntityUnkId14Spawner.svg" xlink:title="rwrp.EntityUnkId14Spawner">
<ellipse fill="green" stroke="black" cx="613.79" cy="-378" rx="145.67" ry="18"/>
<text text-anchor="middle" x="613.79" y="-374.3" font-family="Times,serif" font-size="14.00">rwrp.EntityUnkId14Spawner</text>
</a>
</g>
</g>
<!-- rwrp.EntityUnkId14Spawner&#45;&gt;wrp.AllocEntity -->
<g id="edge4" class="edge">
<title>rwrp.EntityUnkId14Spawner&#45;&gt;wrp.AllocEntity</title>
<path fill="none" stroke="black" d="M682.22,-362.05C836.54,-328.35 1210.03,-246.78 1362.4,-213.5"/>
<polygon fill="black" stroke="black" points="1363.52,-216.84 1372.54,-211.28 1362.03,-210 1363.52,-216.84"/>
<text text-anchor="middle" x="677.22" y="-350.85" font-family="Times,serif" font-size="14.00">1</text>
</g>
<!-- rwrp.EntityUnkId15Spawner -->
<g id="node6" class="node">
<title>rwrp.EntityUnkId15Spawner</title>
<g id="a_node6"><a xlink:href="rwrp.EntityUnkId15Spawner.svg" xlink:title="rwrp.EntityUnkId15Spawner">
<ellipse fill="green" stroke="black" cx="922.79" cy="-378" rx="145.67" ry="18"/>
<text text-anchor="middle" x="922.79" y="-374.3" font-family="Times,serif" font-size="14.00">rwrp.EntityUnkId15Spawner</text>
</a>
</g>
</g>
<!-- rwrp.EntityUnkId15Spawner&#45;&gt;wrp.AllocEntity -->
<g id="edge5" class="edge">
<title>rwrp.EntityUnkId15Spawner&#45;&gt;wrp.AllocEntity</title>
<path fill="none" stroke="black" d="M968.59,-360.89C1063,-327.68 1278.68,-251.81 1377.55,-217.02"/>
<polygon fill="black" stroke="black" points="1378.76,-220.31 1387.03,-213.69 1376.44,-213.71 1378.76,-220.31"/>
<text text-anchor="middle" x="963.59" y="-349.69" font-family="Times,serif" font-size="14.00">1</text>
</g>
<!-- rwrp.MakeExplosions -->
<g id="node7" class="node">
<title>rwrp.MakeExplosions</title>
<g id="a_node7"><a xlink:href="rwrp.MakeExplosions.svg" xlink:title="rwrp.MakeExplosions">
<ellipse fill="green" stroke="black" cx="1197.79" cy="-378" rx="111.58" ry="18"/>
<text text-anchor="middle" x="1197.79" y="-374.3" font-family="Times,serif" font-size="14.00">rwrp.MakeExplosions</text>
</a>
</g>
</g>
<!-- rwrp.MakeExplosions&#45;&gt;wrp.AllocEntity -->
<g id="edge6" class="edge">
<title>rwrp.MakeExplosions&#45;&gt;wrp.AllocEntity</title>
<path fill="none" stroke="black" d="M1219.52,-360.25C1261.16,-328.17 1352.22,-258 1399.3,-221.72"/>
<polygon fill="black" stroke="black" points="1401.5,-224.45 1407.28,-215.57 1397.23,-218.9 1401.5,-224.45"/>
<text text-anchor="middle" x="1214.52" y="-349.05" font-family="Times,serif" font-size="14.00">1</text>
</g>
<!-- wrp.EntityUnkId13 -->
<g id="node8" class="node">
<title>wrp.EntityUnkId13</title>
<g id="a_node8"><a xlink:href="wrp.EntityUnkId13.svg" xlink:title="wrp.EntityUnkId13">
<ellipse fill="green" stroke="black" cx="1428.79" cy="-378" rx="100.98" ry="18"/>
<text text-anchor="middle" x="1428.79" y="-374.3" font-family="Times,serif" font-size="14.00">wrp.EntityUnkId13</text>
</a>
</g>
</g>
<!-- wrp.EntityUnkId13&#45;&gt;wrp.AllocEntity -->
<g id="edge7" class="edge">
<title>wrp.EntityUnkId13&#45;&gt;wrp.AllocEntity</title>
<path fill="none" stroke="black" d="M1428.79,-359.93C1428.79,-328.97 1428.79,-263.3 1428.79,-226.13"/>
<polygon fill="black" stroke="black" points="1432.29,-226.02 1428.79,-216.02 1425.29,-226.02 1432.29,-226.02"/>
<text text-anchor="middle" x="1423.79" y="-348.73" font-family="Times,serif" font-size="14.00">1</text>
</g>
<!-- wrp.EntityUnkId14Spawner -->
<g id="node9" class="node">
<title>wrp.EntityUnkId14Spawner</title>
<g id="a_node9"><a xlink:href="wrp.EntityUnkId14Spawner.svg" xlink:title="wrp.EntityUnkId14Spawner">
<ellipse fill="green" stroke="black" cx="1688.79" cy="-378" rx="141.88" ry="18"/>
<text text-anchor="middle" x="1688.79" y="-374.3" font-family="Times,serif" font-size="14.00">wrp.EntityUnkId14Spawner</text>
</a>
</g>
</g>
<!-- wrp.EntityUnkId14Spawner&#45;&gt;wrp.AllocEntity -->
<g id="edge8" class="edge">
<title>wrp.EntityUnkId14Spawner&#45;&gt;wrp.AllocEntity</title>
<path fill="none" stroke="black" d="M1664.33,-360.25C1617.15,-327.95 1513.6,-257.06 1460.92,-221"/>
<polygon fill="black" stroke="black" points="1462.85,-218.08 1452.62,-215.31 1458.89,-223.85 1462.85,-218.08"/>
<text text-anchor="middle" x="1659.33" y="-349.05" font-family="Times,serif" font-size="14.00">1</text>
</g>
<!-- wrp.EntityUnkId15Spawner -->
<g id="node10" class="node">
<title>wrp.EntityUnkId15Spawner</title>
<g id="a_node10"><a xlink:href="wrp.EntityUnkId15Spawner.svg" xlink:title="wrp.EntityUnkId15Spawner">
<ellipse fill="green" stroke="black" cx="1989.79" cy="-378" rx="141.88" ry="18"/>
<text text-anchor="middle" x="1989.79" y="-374.3" font-family="Times,serif" font-size="14.00">wrp.EntityUnkId15Spawner</text>
</a>
</g>
</g>
<!-- wrp.EntityUnkId15Spawner&#45;&gt;wrp.AllocEntity -->
<g id="edge9" class="edge">
<title>wrp.EntityUnkId15Spawner&#45;&gt;wrp.AllocEntity</title>
<path fill="none" stroke="black" d="M1939.51,-361.05C1834.41,-327.7 1592.21,-250.85 1483.43,-216.34"/>
<polygon fill="black" stroke="black" points="1484.23,-212.92 1473.64,-213.23 1482.11,-219.59 1484.23,-212.92"/>
<text text-anchor="middle" x="1934.51" y="-349.85" font-family="Times,serif" font-size="14.00">1</text>
</g>
<!-- wrp.EntityWarpRoom -->
<g id="node11" class="node">
<title>wrp.EntityWarpRoom</title>
<g id="a_node11"><a xlink:href="wrp.EntityWarpRoom.svg" xlink:title="wrp.EntityWarpRoom">
<ellipse fill="green" stroke="black" cx="2260.79" cy="-378" rx="111.28" ry="18"/>
<text text-anchor="middle" x="2260.79" y="-374.3" font-family="Times,serif" font-size="14.00">wrp.EntityWarpRoom</text>
</a>
</g>
</g>
<!-- wrp.EntityWarpRoom&#45;&gt;wrp.AllocEntity -->
<g id="edge10" class="edge">
<title>wrp.EntityWarpRoom&#45;&gt;wrp.AllocEntity</title>
<path fill="none" stroke="black" d="M2196.54,-363.25C2042.32,-330.26 1652.37,-246.83 1495.59,-213.29"/>
<polygon fill="black" stroke="black" points="1496.11,-209.82 1485.6,-211.15 1494.65,-216.67 1496.11,-209.82"/>
<text text-anchor="middle" x="2191.54" y="-352.05" font-family="Times,serif" font-size="14.00">1</text>
</g>
<!-- wrp.HitDetection -->
<g id="node12" class="node">
<title>wrp.HitDetection</title>
<g id="a_node12"><a xlink:href="wrp.HitDetection.svg" xlink:title="wrp.HitDetection">
<ellipse fill="green" stroke="black" cx="2480.79" cy="-378" rx="90.98" ry="18"/>
<text text-anchor="middle" x="2480.79" y="-374.3" font-family="Times,serif" font-size="14.00">wrp.HitDetection</text>
</a>
</g>
</g>
<!-- wrp.HitDetection&#45;&gt;wrp.AllocEntity -->
<g id="edge11" class="edge">
<title>wrp.HitDetection&#45;&gt;wrp.AllocEntity</title>
<path fill="none" stroke="black" d="M2414.36,-365.7C2403.15,-363.79 2391.64,-361.84 2380.79,-360 2053.32,-304.47 1662.43,-238.45 1502.5,-211.44"/>
<polygon fill="black" stroke="black" points="1502.74,-207.93 1492.3,-209.72 1501.58,-214.84 1502.74,-207.93"/>
<text text-anchor="middle" x="2409.36" y="-354.5" font-family="Times,serif" font-size="14.00">4</text>
</g>
<!-- wrp.MakeExplosions -->
<g id="node13" class="node">
<title>wrp.MakeExplosions</title>
<g id="a_node13"><a xlink:href="wrp.MakeExplosions.svg" xlink:title="wrp.MakeExplosions">
<ellipse fill="green" stroke="black" cx="2696.79" cy="-378" rx="107.48" ry="18"/>
<text text-anchor="middle" x="2696.79" y="-374.3" font-family="Times,serif" font-size="14.00">wrp.MakeExplosions</text>
</a>
</g>
</g>
<!-- wrp.MakeExplosions&#45;&gt;wrp.AllocEntity -->
<g id="edge12" class="edge">
<title>wrp.MakeExplosions&#45;&gt;wrp.AllocEntity</title>
<path fill="none" stroke="black" d="M2619.12,-365.54C2606.31,-363.68 2593.18,-361.77 2580.79,-360 2176.91,-302.18 1693.02,-235.35 1506.95,-209.74"/>
<polygon fill="black" stroke="black" points="1507.36,-206.26 1496.98,-208.37 1506.41,-213.2 1507.36,-206.26"/>
<text text-anchor="middle" x="2614.12" y="-354.34" font-family="Times,serif" font-size="14.00">1</text>
</g>
</g>
</svg>
