<?xml version="1.0" encoding="UTF-8" standalone="no"?>
<!DOCTYPE svg PUBLIC "-//W3C//DTD SVG 1.1//EN"
 "http://www.w3.org/Graphics/SVG/1.1/DTD/svg11.dtd">
<!-- Generated by graphviz version 2.43.0 (0)
 -->
<!-- Title: wrp.func_8018A7AC Pages: 1 -->
<svg width="892pt" height="224pt"
 viewBox="0.00 0.00 891.68 224.00" xmlns="http://www.w3.org/2000/svg" xmlns:xlink="http://www.w3.org/1999/xlink">
<g id="graph0" class="graph" transform="scale(1 1) rotate(0) translate(4 220)">
<title>wrp.func_8018A7AC</title>
<polygon fill="white" stroke="transparent" points="-4,4 -4,-220 887.68,-220 887.68,4 -4,4"/>
<!-- wrp.func_8018A7AC -->
<g id="node1" class="node">
<title>wrp.func_8018A7AC</title>
<ellipse fill="green" stroke="black" cx="442.34" cy="-198" rx="104.78" ry="18"/>
<text text-anchor="middle" x="442.34" y="-194.3" font-family="Times,serif" font-size="14.00">wrp.func_8018A7AC</text>
</g>
<!-- wrp.func_8018A170 -->
<g id="node2" class="node">
<title>wrp.func_8018A170</title>
<g id="a_node2"><a xlink:href="wrp.func_8018A170.svg" xlink:title="wrp.func_8018A170">
<ellipse fill="green" stroke="black" cx="103.34" cy="-18" rx="103.18" ry="18"/>
<text text-anchor="middle" x="103.34" y="-14.3" font-family="Times,serif" font-size="14.00">wrp.func_8018A170</text>
</a>
</g>
</g>
<!-- wrp.func_8018A7AC&#45;&gt;wrp.func_8018A170 -->
<g id="edge1" class="edge">
<title>wrp.func_8018A7AC&#45;&gt;wrp.func_8018A170</title>
<path fill="none" stroke="black" d="M411.36,-180.73C349.85,-148.44 212.37,-76.25 143.82,-40.25"/>
<polygon fill="black" stroke="black" points="145.1,-36.97 134.62,-35.42 141.85,-43.17 145.1,-36.97"/>
<text text-anchor="middle" x="129.62" y="-39.22" font-family="Times,serif" font-size="14.00">1</text>
</g>
<!-- wrp.func_8018A26C -->
<g id="node3" class="node">
<title>wrp.func_8018A26C</title>
<g id="a_node3"><a xlink:href="wrp.func_8018A26C.svg" xlink:title="wrp.func_8018A26C">
<ellipse fill="green" stroke="black" cx="329.34" cy="-18" rx="104.78" ry="18"/>
<text text-anchor="middle" x="329.34" y="-14.3" font-family="Times,serif" font-size="14.00">wrp.func_8018A26C</text>
</a>
</g>
</g>
<!-- wrp.func_8018A7AC&#45;&gt;wrp.func_8018A26C -->
<g id="edge2" class="edge">
<title>wrp.func_8018A7AC&#45;&gt;wrp.func_8018A26C</title>
<path fill="none" stroke="black" d="M431.51,-179.93C411.59,-148.57 369.08,-81.6 345.66,-44.71"/>
<polygon fill="black" stroke="black" points="348.46,-42.58 340.14,-36.02 342.55,-46.33 348.46,-42.58"/>
<text text-anchor="middle" x="335.14" y="-39.82" font-family="Times,serif" font-size="14.00">1</text>
</g>
<!-- wrp.func_8018A424 -->
<g id="node4" class="node">
<title>wrp.func_8018A424</title>
<g id="a_node4"><a xlink:href="wrp.func_8018A424.svg" xlink:title="wrp.func_8018A424">
<ellipse fill="green" stroke="black" cx="555.34" cy="-18" rx="103.18" ry="18"/>
<text text-anchor="middle" x="555.34" y="-14.3" font-family="Times,serif" font-size="14.00">wrp.func_8018A424</text>
</a>
</g>
</g>
<!-- wrp.func_8018A7AC&#45;&gt;wrp.func_8018A424 -->
<g id="edge3" class="edge">
<title>wrp.func_8018A7AC&#45;&gt;wrp.func_8018A424</title>
<path fill="none" stroke="black" d="M453.18,-179.93C473.09,-148.57 515.6,-81.6 539.02,-44.71"/>
<polygon fill="black" stroke="black" points="542.13,-46.33 544.54,-36.02 536.22,-42.58 542.13,-46.33"/>
<text text-anchor="middle" x="539.54" y="-39.82" font-family="Times,serif" font-size="14.00">1</text>
</g>
<!-- wrp.func_8018A520 -->
<g id="node5" class="node">
<title>wrp.func_8018A520</title>
<g id="a_node5"><a xlink:href="wrp.func_8018A520.svg" xlink:title="wrp.func_8018A520">
<ellipse fill="green" stroke="black" cx="780.34" cy="-18" rx="103.18" ry="18"/>
<text text-anchor="middle" x="780.34" y="-14.3" font-family="Times,serif" font-size="14.00">wrp.func_8018A520</text>
</a>
</g>
</g>
<!-- wrp.func_8018A7AC&#45;&gt;wrp.func_8018A520 -->
<g id="edge4" class="edge">
<title>wrp.func_8018A7AC&#45;&gt;wrp.func_8018A520</title>
<path fill="none" stroke="black" d="M473.23,-180.73C534.56,-148.44 671.63,-76.25 739.98,-40.25"/>
<polygon fill="black" stroke="black" points="741.94,-43.18 749.15,-35.42 738.68,-36.99 741.94,-43.18"/>
<text text-anchor="middle" x="744.15" y="-39.22" font-family="Times,serif" font-size="14.00">1</text>
</g>
</g>
</svg>
