<?xml version="1.0" encoding="UTF-8" standalone="no"?>
<!DOCTYPE svg PUBLIC "-//W3C//DTD SVG 1.1//EN"
 "http://www.w3.org/Graphics/SVG/1.1/DTD/svg11.dtd">
<!-- Generated by graphviz version 2.43.0 (0)
 -->
<!-- Title: wrp.FallEntity Pages: 1 -->
<svg width="1778pt" height="224pt"
 viewBox="0.00 0.00 1777.78 224.00" xmlns="http://www.w3.org/2000/svg" xmlns:xlink="http://www.w3.org/1999/xlink">
<g id="graph0" class="graph" transform="scale(1 1) rotate(0) translate(4 220)">
<title>wrp.FallEntity</title>
<polygon fill="white" stroke="transparent" points="-4,4 -4,-220 1773.78,-220 1773.78,4 -4,4"/>
<!-- wrp.FallEntity -->
<g id="node1" class="node">
<title>wrp.FallEntity</title>
<ellipse fill="green" stroke="black" cx="921.14" cy="-18" rx="77.19" ry="18"/>
<text text-anchor="middle" x="921.14" y="-14.3" font-family="Times,serif" font-size="14.00">wrp.FallEntity</text>
</g>
<!-- rwrp.UnkCollisionFunc3 -->
<g id="node2" class="node">
<title>rwrp.UnkCollisionFunc3</title>
<g id="a_node2"><a xlink:href="rwrp.UnkCollisionFunc3.svg" xlink:title="rwrp.UnkCollisionFunc3">
<ellipse fill="green" stroke="black" cx="124.14" cy="-198" rx="124.28" ry="18"/>
<text text-anchor="middle" x="124.14" y="-194.3" font-family="Times,serif" font-size="14.00">rwrp.UnkCollisionFunc3</text>
</a>
</g>
</g>
<!-- rwrp.UnkCollisionFunc3&#45;&gt;wrp.FallEntity -->
<g id="edge1" class="edge">
<title>rwrp.UnkCollisionFunc3&#45;&gt;wrp.FallEntity</title>
<path fill="none" stroke="black" d="M188.69,-182.58C338.57,-149.11 708.72,-66.44 857.61,-33.19"/>
<polygon fill="black" stroke="black" points="858.52,-36.57 867.51,-30.98 856.99,-29.74 858.52,-36.57"/>
<text text-anchor="middle" x="183.69" y="-171.38" font-family="Times,serif" font-size="14.00">1</text>
</g>
<!-- rwrp.UnkCollisionFunc5 -->
<g id="node3" class="node">
<title>rwrp.UnkCollisionFunc5</title>
<g id="a_node3"><a xlink:href="rwrp.UnkCollisionFunc5.svg" xlink:title="rwrp.UnkCollisionFunc5">
<ellipse fill="green" stroke="black" cx="390.14" cy="-198" rx="124.28" ry="18"/>
<text text-anchor="middle" x="390.14" y="-194.3" font-family="Times,serif" font-size="14.00">rwrp.UnkCollisionFunc5</text>
</a>
</g>
</g>
<!-- rwrp.UnkCollisionFunc5&#45;&gt;wrp.FallEntity -->
<g id="edge2" class="edge">
<title>rwrp.UnkCollisionFunc5&#45;&gt;wrp.FallEntity</title>
<path fill="none" stroke="black" d="M437.26,-181.2C536.48,-147.94 766.24,-70.93 869.38,-36.35"/>
<polygon fill="black" stroke="black" points="870.59,-39.64 878.96,-33.14 868.36,-33 870.59,-39.64"/>
<text text-anchor="middle" x="432.26" y="-170" font-family="Times,serif" font-size="14.00">1</text>
</g>
<!-- wrp.EntityEquipItemDrop -->
<g id="node4" class="node">
<title>wrp.EntityEquipItemDrop</title>
<g id="a_node4"><a xlink:href="wrp.EntityEquipItemDrop.svg" xlink:title="wrp.EntityEquipItemDrop">
<ellipse fill="green" stroke="black" cx="664.14" cy="-198" rx="131.88" ry="18"/>
<text text-anchor="middle" x="664.14" y="-194.3" font-family="Times,serif" font-size="14.00">wrp.EntityEquipItemDrop</text>
</a>
</g>
</g>
<!-- wrp.EntityEquipItemDrop&#45;&gt;wrp.FallEntity -->
<g id="edge3" class="edge">
<title>wrp.EntityEquipItemDrop&#45;&gt;wrp.FallEntity</title>
<path fill="none" stroke="black" d="M688.32,-180.25C734.86,-148.02 836.89,-77.35 889.05,-41.22"/>
<polygon fill="black" stroke="black" points="891.36,-43.89 897.58,-35.31 887.37,-38.13 891.36,-43.89"/>
<text text-anchor="middle" x="683.32" y="-169.05" font-family="Times,serif" font-size="14.00">1</text>
</g>
<!-- wrp.EntityPrizeDrop -->
<g id="node5" class="node">
<title>wrp.EntityPrizeDrop</title>
<g id="a_node5"><a xlink:href="wrp.EntityPrizeDrop.svg" xlink:title="wrp.EntityPrizeDrop">
<ellipse fill="green" stroke="black" cx="921.14" cy="-198" rx="107.48" ry="18"/>
<text text-anchor="middle" x="921.14" y="-194.3" font-family="Times,serif" font-size="14.00">wrp.EntityPrizeDrop</text>
</a>
</g>
</g>
<!-- wrp.EntityPrizeDrop&#45;&gt;wrp.FallEntity -->
<g id="edge4" class="edge">
<title>wrp.EntityPrizeDrop&#45;&gt;wrp.FallEntity</title>
<path fill="none" stroke="black" d="M921.14,-179.93C921.14,-148.97 921.14,-83.3 921.14,-46.13"/>
<polygon fill="black" stroke="black" points="924.64,-46.02 921.14,-36.02 917.64,-46.02 924.64,-46.02"/>
<text text-anchor="middle" x="916.14" y="-168.73" font-family="Times,serif" font-size="14.00">2</text>
</g>
<!-- wrp.UnkCollisionFunc3 -->
<g id="node6" class="node">
<title>wrp.UnkCollisionFunc3</title>
<g id="a_node6"><a xlink:href="wrp.UnkCollisionFunc3.svg" xlink:title="wrp.UnkCollisionFunc3">
<ellipse fill="green" stroke="black" cx="1166.14" cy="-198" rx="119.68" ry="18"/>
<text text-anchor="middle" x="1166.14" y="-194.3" font-family="Times,serif" font-size="14.00">wrp.UnkCollisionFunc3</text>
</a>
</g>
</g>
<!-- wrp.UnkCollisionFunc3&#45;&gt;wrp.FallEntity -->
<g id="edge5" class="edge">
<title>wrp.UnkCollisionFunc3&#45;&gt;wrp.FallEntity</title>
<path fill="none" stroke="black" d="M1143.09,-180.25C1098.72,-148.02 1001.45,-77.35 951.73,-41.22"/>
<polygon fill="black" stroke="black" points="953.74,-38.36 943.59,-35.31 949.63,-44.02 953.74,-38.36"/>
<text text-anchor="middle" x="1138.09" y="-169.05" font-family="Times,serif" font-size="14.00">1</text>
</g>
<!-- wrp.UnkCollisionFunc5 -->
<g id="node7" class="node">
<title>wrp.UnkCollisionFunc5</title>
<g id="a_node7"><a xlink:href="wrp.UnkCollisionFunc5.svg" xlink:title="wrp.UnkCollisionFunc5">
<ellipse fill="green" stroke="black" cx="1423.14" cy="-198" rx="119.68" ry="18"/>
<text text-anchor="middle" x="1423.14" y="-194.3" font-family="Times,serif" font-size="14.00">wrp.UnkCollisionFunc5</text>
</a>
</g>
</g>
<!-- wrp.UnkCollisionFunc5&#45;&gt;wrp.FallEntity -->
<g id="edge6" class="edge">
<title>wrp.UnkCollisionFunc5&#45;&gt;wrp.FallEntity</title>
<path fill="none" stroke="black" d="M1378.59,-181.2C1285.21,-148.09 1069.53,-71.62 971.39,-36.82"/>
<polygon fill="black" stroke="black" points="972.3,-33.43 961.71,-33.38 969.96,-40.03 972.3,-33.43"/>
<text text-anchor="middle" x="1373.59" y="-170" font-family="Times,serif" font-size="14.00">1</text>
</g>
<!-- wrp.func_8018CB34 -->
<g id="node8" class="node">
<title>wrp.func_8018CB34</title>
<g id="a_node8"><a xlink:href="wrp.func_8018CB34.svg" xlink:title="wrp.func_8018CB34">
<ellipse fill="green" stroke="black" cx="1665.14" cy="-198" rx="104.78" ry="18"/>
<text text-anchor="middle" x="1665.14" y="-194.3" font-family="Times,serif" font-size="14.00">wrp.func_8018CB34</text>
</a>
</g>
</g>
<!-- wrp.func_8018CB34&#45;&gt;wrp.FallEntity -->
<g id="edge7" class="edge">
<title>wrp.func_8018CB34&#45;&gt;wrp.FallEntity</title>
<path fill="none" stroke="black" d="M1606.76,-183.03C1468.93,-150.06 1124.33,-67.61 983.05,-33.81"/>
<polygon fill="black" stroke="black" points="983.77,-30.39 973.23,-31.46 982.14,-37.19 983.77,-30.39"/>
<text text-anchor="middle" x="1601.76" y="-171.83" font-family="Times,serif" font-size="14.00">1</text>
</g>
</g>
</svg>
