<?xml version="1.0" encoding="UTF-8" standalone="no"?>
<!DOCTYPE svg PUBLIC "-//W3C//DTD SVG 1.1//EN"
 "http://www.w3.org/Graphics/SVG/1.1/DTD/svg11.dtd">
<!-- Generated by graphviz version 2.43.0 (0)
 -->
<!-- Title: wrp.CollectHeart Pages: 1 -->
<svg width="358pt" height="404pt"
 viewBox="0.00 0.00 357.74 404.00" xmlns="http://www.w3.org/2000/svg" xmlns:xlink="http://www.w3.org/1999/xlink">
<g id="graph0" class="graph" transform="scale(1 1) rotate(0) translate(4 400)">
<title>wrp.CollectHeart</title>
<polygon fill="white" stroke="transparent" points="-4,4 -4,-400 353.74,-400 353.74,4 -4,4"/>
<!-- wrp.CollectHeart -->
<g id="node1" class="node">
<title>wrp.CollectHeart</title>
<ellipse fill="green" stroke="black" cx="156.34" cy="-198" rx="90.98" ry="18"/>
<text text-anchor="middle" x="156.34" y="-194.3" font-family="Times,serif" font-size="14.00">wrp.CollectHeart</text>
</g>
<!-- dra.PlaySfx -->
<g id="node2" class="node">
<title>dra.PlaySfx</title>
<g id="a_node2"><a xlink:href="dra.PlaySfx.svg" xlink:title="dra.PlaySfx">
<ellipse fill="green" stroke="black" cx="64.34" cy="-18" rx="64.19" ry="18"/>
<text text-anchor="middle" x="64.34" y="-14.3" font-family="Times,serif" font-size="14.00">dra.PlaySfx</text>
</a>
</g>
</g>
<!-- wrp.CollectHeart&#45;&gt;dra.PlaySfx -->
<g id="edge1" class="edge">
<title>wrp.CollectHeart&#45;&gt;dra.PlaySfx</title>
<path fill="none" stroke="black" d="M147.52,-179.93C131.38,-148.7 96.99,-82.17 77.87,-45.18"/>
<polygon fill="black" stroke="black" points="80.84,-43.29 73.14,-36.02 74.62,-46.51 80.84,-43.29"/>
<text text-anchor="middle" x="68.14" y="-39.82" font-family="Times,serif" font-size="14.00">1</text>
</g>
<!-- rwrp.DestroyEntity -->
<g id="node3" class="node">
<title>rwrp.DestroyEntity</title>
<g id="a_node3"><a xlink:href="rwrp.DestroyEntity.svg" xlink:title="rwrp.DestroyEntity">
<ellipse fill="green" stroke="black" cx="248.34" cy="-18" rx="101.28" ry="18"/>
<text text-anchor="middle" x="248.34" y="-14.3" font-family="Times,serif" font-size="14.00">rwrp.DestroyEntity</text>
</a>
</g>
</g>
<!-- wrp.CollectHeart&#45;&gt;rwrp.DestroyEntity -->
<g id="edge2" class="edge">
<title>wrp.CollectHeart&#45;&gt;rwrp.DestroyEntity</title>
<path fill="none" stroke="black" d="M165.17,-179.93C181.31,-148.7 215.7,-82.17 234.81,-45.18"/>
<polygon fill="black" stroke="black" points="238.07,-46.51 239.55,-36.02 231.85,-43.29 238.07,-46.51"/>
<text text-anchor="middle" x="234.55" y="-39.82" font-family="Times,serif" font-size="14.00">1</text>
</g>
<!-- wrp.EntityPrizeDrop -->
<g id="node4" class="node">
<title>wrp.EntityPrizeDrop</title>
<g id="a_node4"><a xlink:href="wrp.EntityPrizeDrop.svg" xlink:title="wrp.EntityPrizeDrop">
<ellipse fill="green" stroke="black" cx="156.34" cy="-378" rx="107.48" ry="18"/>
<text text-anchor="middle" x="156.34" y="-374.3" font-family="Times,serif" font-size="14.00">wrp.EntityPrizeDrop</text>
</a>
</g>
</g>
<!-- wrp.EntityPrizeDrop&#45;&gt;wrp.CollectHeart -->
<g id="edge3" class="edge">
<title>wrp.EntityPrizeDrop&#45;&gt;wrp.CollectHeart</title>
<path fill="none" stroke="black" d="M156.34,-359.93C156.34,-328.97 156.34,-263.3 156.34,-226.13"/>
<polygon fill="black" stroke="black" points="159.84,-226.02 156.34,-216.02 152.84,-226.02 159.84,-226.02"/>
<text text-anchor="middle" x="151.34" y="-348.73" font-family="Times,serif" font-size="14.00">1</text>
</g>
</g>
</svg>
