<?xml version="1.0" encoding="UTF-8" standalone="no"?>
<!DOCTYPE svg PUBLIC "-//W3C//DTD SVG 1.1//EN"
 "http://www.w3.org/Graphics/SVG/1.1/DTD/svg11.dtd">
<!-- Generated by graphviz version 2.43.0 (0)
 -->
<!-- Title: wrp.AllocEntity Pages: 1 -->
<svg width="1650pt" height="404pt"
 viewBox="0.00 0.00 1650.23 404.00" xmlns="http://www.w3.org/2000/svg" xmlns:xlink="http://www.w3.org/1999/xlink">
<g id="graph0" class="graph" transform="scale(1 1) rotate(0) translate(4 400)">
<title>wrp.AllocEntity</title>
<polygon fill="white" stroke="transparent" points="-4,4 -4,-400 1646.23,-400 1646.23,4 -4,4"/>
<!-- wrp.AllocEntity -->
<g id="node1" class="node">
<title>wrp.AllocEntity</title>
<ellipse fill="green" stroke="black" cx="870.24" cy="-198" rx="83.39" ry="18"/>
<text text-anchor="middle" x="870.24" y="-194.3" font-family="Times,serif" font-size="14.00">wrp.AllocEntity</text>
</g>
<!-- wrp.DestroyEntity -->
<g id="node2" class="node">
<title>wrp.DestroyEntity</title>
<g id="a_node2"><a xlink:href="wrp.DestroyEntity.svg" xlink:title="wrp.DestroyEntity">
<ellipse fill="green" stroke="black" cx="870.24" cy="-18" rx="96.68" ry="18"/>
<text text-anchor="middle" x="870.24" y="-14.3" font-family="Times,serif" font-size="14.00">wrp.DestroyEntity</text>
</a>
</g>
</g>
<!-- wrp.AllocEntity&#45;&gt;wrp.DestroyEntity -->
<g id="edge1" class="edge">
<title>wrp.AllocEntity&#45;&gt;wrp.DestroyEntity</title>
<path fill="none" stroke="black" d="M870.24,-179.93C870.24,-148.97 870.24,-83.3 870.24,-46.13"/>
<polygon fill="black" stroke="black" points="873.74,-46.02 870.24,-36.02 866.74,-46.02 873.74,-46.02"/>
<text text-anchor="middle" x="865.24" y="-39.82" font-family="Times,serif" font-size="14.00">1</text>
</g>
<!-- wrp.EntityBreakable -->
<g id="node3" class="node">
<title>wrp.EntityBreakable</title>
<g id="a_node3"><a xlink:href="wrp.EntityBreakable.svg" xlink:title="wrp.EntityBreakable">
<ellipse fill="green" stroke="black" cx="107.24" cy="-378" rx="107.48" ry="18"/>
<text text-anchor="middle" x="107.24" y="-374.3" font-family="Times,serif" font-size="14.00">wrp.EntityBreakable</text>
</a>
</g>
</g>
<!-- wrp.EntityBreakable&#45;&gt;wrp.AllocEntity -->
<g id="edge2" class="edge">
<title>wrp.EntityBreakable&#45;&gt;wrp.AllocEntity</title>
<path fill="none" stroke="black" d="M167.11,-363.03C308.12,-330.14 660.14,-248.01 805.69,-214.06"/>
<polygon fill="black" stroke="black" points="806.86,-217.38 815.81,-211.7 805.27,-210.56 806.86,-217.38"/>
<text text-anchor="middle" x="162.11" y="-351.83" font-family="Times,serif" font-size="14.00">1</text>
</g>
<!-- wrp.EntityUnkId15Spawner -->
<g id="node4" class="node">
<title>wrp.EntityUnkId15Spawner</title>
<g id="a_node4"><a xlink:href="wrp.EntityUnkId15Spawner.svg" xlink:title="wrp.EntityUnkId15Spawner">
<ellipse fill="green" stroke="black" cx="374.24" cy="-378" rx="141.88" ry="18"/>
<text text-anchor="middle" x="374.24" y="-374.3" font-family="Times,serif" font-size="14.00">wrp.EntityUnkId15Spawner</text>
</a>
</g>
</g>
<!-- wrp.EntityUnkId15Spawner&#45;&gt;wrp.AllocEntity -->
<g id="edge3" class="edge">
<title>wrp.EntityUnkId15Spawner&#45;&gt;wrp.AllocEntity</title>
<path fill="none" stroke="black" d="M419.13,-360.89C511.58,-327.71 722.67,-251.96 819.72,-217.13"/>
<polygon fill="black" stroke="black" points="821.08,-220.36 829.31,-213.69 818.72,-213.77 821.08,-220.36"/>
<text text-anchor="middle" x="414.13" y="-349.69" font-family="Times,serif" font-size="14.00">1</text>
</g>
<!-- wrp.EntityWarpRoom -->
<g id="node5" class="node">
<title>wrp.EntityWarpRoom</title>
<g id="a_node5"><a xlink:href="wrp.EntityWarpRoom.svg" xlink:title="wrp.EntityWarpRoom">
<ellipse fill="red" stroke="black" cx="645.24" cy="-378" rx="111.28" ry="18"/>
<text text-anchor="middle" x="645.24" y="-374.3" font-family="Times,serif" font-size="14.00">wrp.EntityWarpRoom</text>
</a>
</g>
</g>
<!-- wrp.EntityWarpRoom&#45;&gt;wrp.AllocEntity -->
<g id="edge4" class="edge">
<title>wrp.EntityWarpRoom&#45;&gt;wrp.AllocEntity</title>
<path fill="none" stroke="black" d="M666.41,-360.25C706.88,-328.24 795.29,-258.29 841.23,-221.95"/>
<polygon fill="black" stroke="black" points="843.62,-224.52 849.29,-215.57 839.28,-219.03 843.62,-224.52"/>
<text text-anchor="middle" x="661.41" y="-349.05" font-family="Times,serif" font-size="14.00">1</text>
</g>
<!-- wrp.TestCollisions -->
<g id="node6" class="node">
<title>wrp.TestCollisions</title>
<g id="a_node6"><a xlink:href="wrp.TestCollisions.svg" xlink:title="wrp.TestCollisions">
<ellipse fill="red" stroke="black" cx="870.24" cy="-378" rx="96.38" ry="18"/>
<text text-anchor="middle" x="870.24" y="-374.3" font-family="Times,serif" font-size="14.00">wrp.TestCollisions</text>
</a>
</g>
</g>
<!-- wrp.TestCollisions&#45;&gt;wrp.AllocEntity -->
<g id="edge5" class="edge">
<title>wrp.TestCollisions&#45;&gt;wrp.AllocEntity</title>
<path fill="none" stroke="black" d="M870.24,-359.93C870.24,-328.97 870.24,-263.3 870.24,-226.13"/>
<polygon fill="black" stroke="black" points="873.74,-226.02 870.24,-216.02 866.74,-226.02 873.74,-226.02"/>
<text text-anchor="middle" x="865.24" y="-348.73" font-family="Times,serif" font-size="14.00">4</text>
</g>
<!-- wrp.func_8018F510 -->
<g id="node7" class="node">
<title>wrp.func_8018F510</title>
<g id="a_node7"><a xlink:href="wrp.func_8018F510.svg" xlink:title="wrp.func_8018F510">
<ellipse fill="green" stroke="black" cx="1088.24" cy="-378" rx="103.18" ry="18"/>
<text text-anchor="middle" x="1088.24" y="-374.3" font-family="Times,serif" font-size="14.00">wrp.func_8018F510</text>
</a>
</g>
</g>
<!-- wrp.func_8018F510&#45;&gt;wrp.AllocEntity -->
<g id="edge6" class="edge">
<title>wrp.func_8018F510&#45;&gt;wrp.AllocEntity</title>
<path fill="none" stroke="black" d="M1067.73,-360.25C1028.52,-328.24 942.85,-258.29 898.35,-221.95"/>
<polygon fill="black" stroke="black" points="900.5,-219.19 890.54,-215.57 896.07,-224.61 900.5,-219.19"/>
<text text-anchor="middle" x="1062.73" y="-349.05" font-family="Times,serif" font-size="14.00">1</text>
</g>
<!-- wrp.func_8018F620 -->
<g id="node8" class="node">
<title>wrp.func_8018F620</title>
<g id="a_node8"><a xlink:href="wrp.func_8018F620.svg" xlink:title="wrp.func_8018F620">
<ellipse fill="green" stroke="black" cx="1313.24" cy="-378" rx="103.18" ry="18"/>
<text text-anchor="middle" x="1313.24" y="-374.3" font-family="Times,serif" font-size="14.00">wrp.func_8018F620</text>
</a>
</g>
</g>
<!-- wrp.func_8018F620&#45;&gt;wrp.AllocEntity -->
<g id="edge7" class="edge">
<title>wrp.func_8018F620&#45;&gt;wrp.AllocEntity</title>
<path fill="none" stroke="black" d="M1273.93,-361.2C1192.39,-328.44 1005.16,-253.21 917.34,-217.92"/>
<polygon fill="black" stroke="black" points="918.48,-214.61 907.89,-214.13 915.87,-221.1 918.48,-214.61"/>
<text text-anchor="middle" x="1268.93" y="-350" font-family="Times,serif" font-size="14.00">1</text>
</g>
<!-- wrp.func_8019055C -->
<g id="node9" class="node">
<title>wrp.func_8019055C</title>
<g id="a_node9"><a xlink:href="wrp.func_8019055C.svg" xlink:title="wrp.func_8019055C">
<ellipse fill="green" stroke="black" cx="1538.24" cy="-378" rx="103.98" ry="18"/>
<text text-anchor="middle" x="1538.24" y="-374.3" font-family="Times,serif" font-size="14.00">wrp.func_8019055C</text>
</a>
</g>
</g>
<!-- wrp.func_8019055C&#45;&gt;wrp.AllocEntity -->
<g id="edge8" class="edge">
<title>wrp.func_8019055C&#45;&gt;wrp.AllocEntity</title>
<path fill="none" stroke="black" d="M1484.14,-362.58C1360.78,-329.71 1059.42,-249.41 930.43,-215.04"/>
<polygon fill="black" stroke="black" points="931.27,-211.64 920.7,-212.45 929.47,-218.4 931.27,-211.64"/>
<text text-anchor="middle" x="1479.14" y="-351.38" font-family="Times,serif" font-size="14.00">1</text>
</g>
</g>
</svg>
