<?xml version="1.0" encoding="UTF-8" standalone="no"?>
<!DOCTYPE svg PUBLIC "-//W3C//DTD SVG 1.1//EN"
 "http://www.w3.org/Graphics/SVG/1.1/DTD/svg11.dtd">
<!-- Generated by graphviz version 2.43.0 (0)
 -->
<!-- Title: wrp.AnimateEntity Pages: 1 -->
<svg width="2543pt" height="224pt"
 viewBox="0.00 0.00 2542.53 224.00" xmlns="http://www.w3.org/2000/svg" xmlns:xlink="http://www.w3.org/1999/xlink">
<g id="graph0" class="graph" transform="scale(1 1) rotate(0) translate(4 220)">
<title>wrp.AnimateEntity</title>
<polygon fill="white" stroke="transparent" points="-4,4 -4,-220 2538.53,-220 2538.53,4 -4,4"/>
<!-- wrp.AnimateEntity -->
<g id="node1" class="node">
<title>wrp.AnimateEntity</title>
<ellipse fill="green" stroke="black" cx="1262.54" cy="-18" rx="98.58" ry="18"/>
<text text-anchor="middle" x="1262.54" y="-14.3" font-family="Times,serif" font-size="14.00">wrp.AnimateEntity</text>
</g>
<!-- rwrp.EntityBigRedFireball -->
<g id="node2" class="node">
<title>rwrp.EntityBigRedFireball</title>
<g id="a_node2"><a xlink:href="rwrp.EntityBigRedFireball.svg" xlink:title="rwrp.EntityBigRedFireball">
<ellipse fill="green" stroke="black" cx="134.54" cy="-198" rx="134.58" ry="18"/>
<text text-anchor="middle" x="134.54" y="-194.3" font-family="Times,serif" font-size="14.00">rwrp.EntityBigRedFireball</text>
</a>
</g>
</g>
<!-- rwrp.EntityBigRedFireball&#45;&gt;wrp.AnimateEntity -->
<g id="edge1" class="edge">
<title>rwrp.EntityBigRedFireball&#45;&gt;wrp.AnimateEntity</title>
<path fill="none" stroke="black" d="M217.94,-183.84C427.18,-150.82 972.45,-64.78 1180.37,-31.97"/>
<polygon fill="black" stroke="black" points="1180.97,-35.41 1190.31,-30.4 1179.88,-28.5 1180.97,-35.41"/>
<text text-anchor="middle" x="212.94" y="-172.64" font-family="Times,serif" font-size="14.00">1</text>
</g>
<!-- rwrp.EntityBreakable -->
<g id="node3" class="node">
<title>rwrp.EntityBreakable</title>
<g id="a_node3"><a xlink:href="rwrp.EntityBreakable.svg" xlink:title="rwrp.EntityBreakable">
<ellipse fill="green" stroke="black" cx="398.54" cy="-198" rx="111.58" ry="18"/>
<text text-anchor="middle" x="398.54" y="-194.3" font-family="Times,serif" font-size="14.00">rwrp.EntityBreakable</text>
</a>
</g>
</g>
<!-- rwrp.EntityBreakable&#45;&gt;wrp.AnimateEntity -->
<g id="edge2" class="edge">
<title>rwrp.EntityBreakable&#45;&gt;wrp.AnimateEntity</title>
<path fill="none" stroke="black" d="M464.54,-183.4C623.06,-150.74 1024.3,-68.08 1189.62,-34.02"/>
<polygon fill="black" stroke="black" points="1190.6,-37.39 1199.69,-31.95 1189.19,-30.54 1190.6,-37.39"/>
<text text-anchor="middle" x="459.54" y="-172.2" font-family="Times,serif" font-size="14.00">1</text>
</g>
<!-- rwrp.EntityExplosion -->
<g id="node4" class="node">
<title>rwrp.EntityExplosion</title>
<g id="a_node4"><a xlink:href="rwrp.EntityExplosion.svg" xlink:title="rwrp.EntityExplosion">
<ellipse fill="green" stroke="black" cx="638.54" cy="-198" rx="110.48" ry="18"/>
<text text-anchor="middle" x="638.54" y="-194.3" font-family="Times,serif" font-size="14.00">rwrp.EntityExplosion</text>
</a>
</g>
</g>
<!-- rwrp.EntityExplosion&#45;&gt;wrp.AnimateEntity -->
<g id="edge3" class="edge">
<title>rwrp.EntityExplosion&#45;&gt;wrp.AnimateEntity</title>
<path fill="none" stroke="black" d="M690.93,-182.05C805.79,-149.29 1079.2,-71.3 1201.54,-36.4"/>
<polygon fill="black" stroke="black" points="1202.83,-39.67 1211.49,-33.56 1200.91,-32.94 1202.83,-39.67"/>
<text text-anchor="middle" x="685.93" y="-170.85" font-family="Times,serif" font-size="14.00">1</text>
</g>
<!-- rwrp.EntityPrizeDrop -->
<g id="node5" class="node">
<title>rwrp.EntityPrizeDrop</title>
<g id="a_node5"><a xlink:href="rwrp.EntityPrizeDrop.svg" xlink:title="rwrp.EntityPrizeDrop">
<ellipse fill="green" stroke="black" cx="878.54" cy="-198" rx="111.58" ry="18"/>
<text text-anchor="middle" x="878.54" y="-194.3" font-family="Times,serif" font-size="14.00">rwrp.EntityPrizeDrop</text>
</a>
</g>
</g>
<!-- rwrp.EntityPrizeDrop&#45;&gt;wrp.AnimateEntity -->
<g id="edge4" class="edge">
<title>rwrp.EntityPrizeDrop&#45;&gt;wrp.AnimateEntity</title>
<path fill="none" stroke="black" d="M913.29,-180.89C983.4,-148.39 1141.64,-75.04 1218.71,-39.32"/>
<polygon fill="black" stroke="black" points="1220.54,-42.33 1228.14,-34.95 1217.59,-35.98 1220.54,-42.33"/>
<text text-anchor="middle" x="908.29" y="-169.69" font-family="Times,serif" font-size="14.00">1</text>
</g>
<!-- rwrp.EntitySoulStealOrb -->
<g id="node6" class="node">
<title>rwrp.EntitySoulStealOrb</title>
<g id="a_node6"><a xlink:href="rwrp.EntitySoulStealOrb.svg" xlink:title="rwrp.EntitySoulStealOrb">
<ellipse fill="green" stroke="black" cx="1135.54" cy="-198" rx="126.98" ry="18"/>
<text text-anchor="middle" x="1135.54" y="-194.3" font-family="Times,serif" font-size="14.00">rwrp.EntitySoulStealOrb</text>
</a>
</g>
</g>
<!-- rwrp.EntitySoulStealOrb&#45;&gt;wrp.AnimateEntity -->
<g id="edge5" class="edge">
<title>rwrp.EntitySoulStealOrb&#45;&gt;wrp.AnimateEntity</title>
<path fill="none" stroke="black" d="M1147.72,-179.93C1170.19,-148.43 1218.28,-81.03 1244.53,-44.24"/>
<polygon fill="black" stroke="black" points="1247.44,-46.19 1250.4,-36.02 1241.74,-42.12 1247.44,-46.19"/>
<text text-anchor="middle" x="1142.72" y="-168.73" font-family="Times,serif" font-size="14.00">1</text>
</g>
<!-- rwrp.func_80188DF0 -->
<g id="node7" class="node">
<title>rwrp.func_80188DF0</title>
<g id="a_node7"><a xlink:href="rwrp.func_80188DF0.svg" xlink:title="rwrp.func_80188DF0">
<ellipse fill="green" stroke="black" cx="1389.54" cy="-198" rx="109.38" ry="18"/>
<text text-anchor="middle" x="1389.54" y="-194.3" font-family="Times,serif" font-size="14.00">rwrp.func_80188DF0</text>
</a>
</g>
</g>
<!-- rwrp.func_80188DF0&#45;&gt;wrp.AnimateEntity -->
<g id="edge6" class="edge">
<title>rwrp.func_80188DF0&#45;&gt;wrp.AnimateEntity</title>
<path fill="none" stroke="black" d="M1377.36,-179.93C1354.89,-148.43 1306.8,-81.03 1280.55,-44.24"/>
<polygon fill="black" stroke="black" points="1283.34,-42.12 1274.68,-36.02 1277.64,-46.19 1283.34,-42.12"/>
<text text-anchor="middle" x="1372.36" y="-168.73" font-family="Times,serif" font-size="14.00">1</text>
</g>
<!-- rwrp.func_80192348 -->
<g id="node8" class="node">
<title>rwrp.func_80192348</title>
<g id="a_node8"><a xlink:href="rwrp.func_80192348.svg" xlink:title="rwrp.func_80192348">
<ellipse fill="green" stroke="black" cx="1623.54" cy="-198" rx="107.48" ry="18"/>
<text text-anchor="middle" x="1623.54" y="-194.3" font-family="Times,serif" font-size="14.00">rwrp.func_80192348</text>
</a>
</g>
</g>
<!-- rwrp.func_80192348&#45;&gt;wrp.AnimateEntity -->
<g id="edge7" class="edge">
<title>rwrp.func_80192348&#45;&gt;wrp.AnimateEntity</title>
<path fill="none" stroke="black" d="M1590.54,-180.73C1524.66,-148.25 1376.93,-75.4 1304.37,-39.63"/>
<polygon fill="black" stroke="black" points="1305.58,-36.32 1295.06,-35.04 1302.49,-42.6 1305.58,-36.32"/>
<text text-anchor="middle" x="1585.54" y="-169.53" font-family="Times,serif" font-size="14.00">1</text>
</g>
<!-- wrp.EntityBigRedFireball -->
<g id="node9" class="node">
<title>wrp.EntityBigRedFireball</title>
<g id="a_node9"><a xlink:href="wrp.EntityBigRedFireball.svg" xlink:title="wrp.EntityBigRedFireball">
<ellipse fill="green" stroke="black" cx="1878.54" cy="-198" rx="129.98" ry="18"/>
<text text-anchor="middle" x="1878.54" y="-194.3" font-family="Times,serif" font-size="14.00">wrp.EntityBigRedFireball</text>
</a>
</g>
</g>
<!-- wrp.EntityBigRedFireball&#45;&gt;wrp.AnimateEntity -->
<g id="edge8" class="edge">
<title>wrp.EntityBigRedFireball&#45;&gt;wrp.AnimateEntity</title>
<path fill="none" stroke="black" d="M1824.95,-181.52C1710.5,-148.44 1442.85,-71.1 1322.74,-36.4"/>
<polygon fill="black" stroke="black" points="1323.55,-32.99 1312.97,-33.57 1321.6,-39.71 1323.55,-32.99"/>
<text text-anchor="middle" x="1819.95" y="-170.32" font-family="Times,serif" font-size="14.00">1</text>
</g>
<!-- wrp.EntityRoomForeground -->
<g id="node10" class="node">
<title>wrp.EntityRoomForeground</title>
<g id="a_node10"><a xlink:href="wrp.EntityRoomForeground.svg" xlink:title="wrp.EntityRoomForeground">
<ellipse fill="green" stroke="black" cx="2167.54" cy="-198" rx="141.07" ry="18"/>
<text text-anchor="middle" x="2167.54" y="-194.3" font-family="Times,serif" font-size="14.00">wrp.EntityRoomForeground</text>
</a>
</g>
</g>
<!-- wrp.EntityRoomForeground&#45;&gt;wrp.AnimateEntity -->
<g id="edge9" class="edge">
<title>wrp.EntityRoomForeground&#45;&gt;wrp.AnimateEntity</title>
<path fill="none" stroke="black" d="M2094.24,-182.58C1924.78,-149.25 1507.33,-67.15 1336.86,-33.62"/>
<polygon fill="black" stroke="black" points="1337.46,-30.17 1326.97,-31.67 1336.11,-37.04 1337.46,-30.17"/>
<text text-anchor="middle" x="2089.24" y="-171.38" font-family="Times,serif" font-size="14.00">1</text>
</g>
<!-- wrp.func_801903C8 -->
<g id="node11" class="node">
<title>wrp.func_801903C8</title>
<g id="a_node11"><a xlink:href="wrp.func_801903C8.svg" xlink:title="wrp.func_801903C8">
<ellipse fill="green" stroke="black" cx="2430.54" cy="-198" rx="103.98" ry="18"/>
<text text-anchor="middle" x="2430.54" y="-194.3" font-family="Times,serif" font-size="14.00">wrp.func_801903C8</text>
</a>
</g>
</g>
<!-- wrp.func_801903C8&#45;&gt;wrp.AnimateEntity -->
<g id="edge10" class="edge">
<title>wrp.func_801903C8&#45;&gt;wrp.AnimateEntity</title>
<path fill="none" stroke="black" d="M2355.25,-185.53C2146.79,-153.76 1563.14,-64.81 1345.63,-31.66"/>
<polygon fill="black" stroke="black" points="1345.96,-28.17 1335.55,-30.13 1344.91,-35.09 1345.96,-28.17"/>
<text text-anchor="middle" x="2350.25" y="-174.33" font-family="Times,serif" font-size="14.00">1</text>
</g>
</g>
</svg>
