<?xml version="1.0" encoding="UTF-8" standalone="no"?>
<!DOCTYPE svg PUBLIC "-//W3C//DTD SVG 1.1//EN"
 "http://www.w3.org/Graphics/SVG/1.1/DTD/svg11.dtd">
<!-- Generated by graphviz version 2.43.0 (0)
 -->
<!-- Title: wrp.CollectHeart Pages: 1 -->
<svg width="464pt" height="404pt"
 viewBox="0.00 0.00 464.03 404.00" xmlns="http://www.w3.org/2000/svg" xmlns:xlink="http://www.w3.org/1999/xlink">
<g id="graph0" class="graph" transform="scale(1 1) rotate(0) translate(4 400)">
<title>wrp.CollectHeart</title>
<polygon fill="white" stroke="transparent" points="-4,4 -4,-400 460.03,-400 460.03,4 -4,4"/>
<!-- wrp.CollectHeart -->
<g id="node1" class="node">
<title>wrp.CollectHeart</title>
<ellipse fill="green" stroke="black" cx="229.79" cy="-198" rx="90.98" ry="18"/>
<text text-anchor="middle" x="229.79" y="-194.3" font-family="Times,serif" font-size="14.00">wrp.CollectHeart</text>
</g>
<!-- dra.PlaySfx -->
<g id="node2" class="node">
<title>dra.PlaySfx</title>
<g id="a_node2"><a xlink:href="dra.PlaySfx.svg" xlink:title="dra.PlaySfx">
<ellipse fill="green" stroke="black" cx="140.79" cy="-18" rx="64.19" ry="18"/>
<text text-anchor="middle" x="140.79" y="-14.3" font-family="Times,serif" font-size="14.00">dra.PlaySfx</text>
</a>
</g>
</g>
<!-- wrp.CollectHeart&#45;&gt;dra.PlaySfx -->
<g id="edge1" class="edge">
<title>wrp.CollectHeart&#45;&gt;dra.PlaySfx</title>
<path fill="none" stroke="black" d="M221.26,-179.93C205.64,-148.7 172.37,-82.17 153.88,-45.18"/>
<polygon fill="black" stroke="black" points="156.9,-43.39 149.3,-36.02 150.64,-46.53 156.9,-43.39"/>
<text text-anchor="middle" x="144.3" y="-39.82" font-family="Times,serif" font-size="14.00">1</text>
</g>
<!-- wrp.DestroyEntity -->
<g id="node3" class="node">
<title>wrp.DestroyEntity</title>
<g id="a_node3"><a xlink:href="wrp.DestroyEntity.svg" xlink:title="wrp.DestroyEntity">
<ellipse fill="green" stroke="black" cx="319.79" cy="-18" rx="96.68" ry="18"/>
<text text-anchor="middle" x="319.79" y="-14.3" font-family="Times,serif" font-size="14.00">wrp.DestroyEntity</text>
</a>
</g>
</g>
<!-- wrp.CollectHeart&#45;&gt;wrp.DestroyEntity -->
<g id="edge2" class="edge">
<title>wrp.CollectHeart&#45;&gt;wrp.DestroyEntity</title>
<path fill="none" stroke="black" d="M238.42,-179.93C254.21,-148.7 287.85,-82.17 306.55,-45.18"/>
<polygon fill="black" stroke="black" points="309.8,-46.52 311.19,-36.02 303.55,-43.36 309.8,-46.52"/>
<text text-anchor="middle" x="306.19" y="-39.82" font-family="Times,serif" font-size="14.00">1</text>
</g>
<!-- rwrp.EntityPrizeDrop -->
<g id="node4" class="node">
<title>rwrp.EntityPrizeDrop</title>
<g id="a_node4"><a xlink:href="rwrp.EntityPrizeDrop.svg" xlink:title="rwrp.EntityPrizeDrop">
<ellipse fill="green" stroke="black" cx="111.79" cy="-378" rx="111.58" ry="18"/>
<text text-anchor="middle" x="111.79" y="-374.3" font-family="Times,serif" font-size="14.00">rwrp.EntityPrizeDrop</text>
</a>
</g>
</g>
<!-- rwrp.EntityPrizeDrop&#45;&gt;wrp.CollectHeart -->
<g id="edge3" class="edge">
<title>rwrp.EntityPrizeDrop&#45;&gt;wrp.CollectHeart</title>
<path fill="none" stroke="black" d="M123.1,-359.93C143.9,-328.57 188.29,-261.6 212.75,-224.71"/>
<polygon fill="black" stroke="black" points="215.9,-226.28 218.51,-216.02 210.07,-222.42 215.9,-226.28"/>
<text text-anchor="middle" x="118.1" y="-348.73" font-family="Times,serif" font-size="14.00">1</text>
</g>
<!-- wrp.EntityPrizeDrop -->
<g id="node5" class="node">
<title>wrp.EntityPrizeDrop</title>
<g id="a_node5"><a xlink:href="wrp.EntityPrizeDrop.svg" xlink:title="wrp.EntityPrizeDrop">
<ellipse fill="green" stroke="black" cx="348.79" cy="-378" rx="107.48" ry="18"/>
<text text-anchor="middle" x="348.79" y="-374.3" font-family="Times,serif" font-size="14.00">wrp.EntityPrizeDrop</text>
</a>
</g>
</g>
<!-- wrp.EntityPrizeDrop&#45;&gt;wrp.CollectHeart -->
<g id="edge4" class="edge">
<title>wrp.EntityPrizeDrop&#45;&gt;wrp.CollectHeart</title>
<path fill="none" stroke="black" d="M337.38,-359.93C316.41,-328.57 271.64,-261.6 246.98,-224.71"/>
<polygon fill="black" stroke="black" points="249.63,-222.38 241.17,-216.02 243.81,-226.27 249.63,-222.38"/>
<text text-anchor="middle" x="332.38" y="-348.73" font-family="Times,serif" font-size="14.00">1</text>
</g>
</g>
</svg>
