<?xml version="1.0" encoding="UTF-8" standalone="no"?>
<!DOCTYPE svg PUBLIC "-//W3C//DTD SVG 1.1//EN"
 "http://www.w3.org/Graphics/SVG/1.1/DTD/svg11.dtd">
<!-- Generated by graphviz version 2.43.0 (0)
 -->
<!-- Title: wrp.AnimateEntity Pages: 1 -->
<svg width="2807pt" height="224pt"
 viewBox="0.00 0.00 2806.53 224.00" xmlns="http://www.w3.org/2000/svg" xmlns:xlink="http://www.w3.org/1999/xlink">
<g id="graph0" class="graph" transform="scale(1 1) rotate(0) translate(4 220)">
<title>wrp.AnimateEntity</title>
<polygon fill="white" stroke="transparent" points="-4,4 -4,-220 2802.53,-220 2802.53,4 -4,4"/>
<!-- wrp.AnimateEntity -->
<g id="node1" class="node">
<title>wrp.AnimateEntity</title>
<ellipse fill="green" stroke="black" cx="1444.54" cy="-18" rx="98.58" ry="18"/>
<text text-anchor="middle" x="1444.54" y="-14.3" font-family="Times,serif" font-size="14.00">wrp.AnimateEntity</text>
</g>
<!-- rwrp.EntityBigRedFireball -->
<g id="node2" class="node">
<title>rwrp.EntityBigRedFireball</title>
<g id="a_node2"><a xlink:href="rwrp.EntityBigRedFireball.svg" xlink:title="rwrp.EntityBigRedFireball">
<ellipse fill="green" stroke="black" cx="134.54" cy="-198" rx="134.58" ry="18"/>
<text text-anchor="middle" x="134.54" y="-194.3" font-family="Times,serif" font-size="14.00">rwrp.EntityBigRedFireball</text>
</a>
</g>
</g>
<!-- rwrp.EntityBigRedFireball&#45;&gt;wrp.AnimateEntity -->
<g id="edge1" class="edge">
<title>rwrp.EntityBigRedFireball&#45;&gt;wrp.AnimateEntity</title>
<path fill="none" stroke="black" d="M225.36,-184.66C466.66,-151.87 1121.49,-62.9 1357.92,-30.77"/>
<polygon fill="black" stroke="black" points="1358.41,-34.24 1367.85,-29.42 1357.47,-27.3 1358.41,-34.24"/>
<text text-anchor="middle" x="220.36" y="-173.46" font-family="Times,serif" font-size="14.00">1</text>
</g>
<!-- rwrp.EntityRoomForeground -->
<g id="node3" class="node">
<title>rwrp.EntityRoomForeground</title>
<g id="a_node3"><a xlink:href="rwrp.EntityRoomForeground.svg" xlink:title="rwrp.EntityRoomForeground">
<ellipse fill="green" stroke="black" cx="432.54" cy="-198" rx="145.67" ry="18"/>
<text text-anchor="middle" x="432.54" y="-194.3" font-family="Times,serif" font-size="14.00">rwrp.EntityRoomForeground</text>
</a>
</g>
</g>
<!-- rwrp.EntityRoomForeground&#45;&gt;wrp.AnimateEntity -->
<g id="edge2" class="edge">
<title>rwrp.EntityRoomForeground&#45;&gt;wrp.AnimateEntity</title>
<path fill="none" stroke="black" d="M512.79,-182.88C702.73,-149.48 1177.91,-65.9 1366.05,-32.8"/>
<polygon fill="black" stroke="black" points="1366.9,-36.21 1376.14,-31.03 1365.69,-29.32 1366.9,-36.21"/>
<text text-anchor="middle" x="507.79" y="-171.68" font-family="Times,serif" font-size="14.00">1</text>
</g>
<!-- rwrp.func_80192348 -->
<g id="node4" class="node">
<title>rwrp.func_80192348</title>
<g id="a_node4"><a xlink:href="rwrp.func_80192348.svg" xlink:title="rwrp.func_80192348">
<ellipse fill="green" stroke="black" cx="703.54" cy="-198" rx="107.48" ry="18"/>
<text text-anchor="middle" x="703.54" y="-194.3" font-family="Times,serif" font-size="14.00">rwrp.func_80192348</text>
</a>
</g>
</g>
<!-- rwrp.func_80192348&#45;&gt;wrp.AnimateEntity -->
<g id="edge3" class="edge">
<title>rwrp.func_80192348&#45;&gt;wrp.AnimateEntity</title>
<path fill="none" stroke="black" d="M762.3,-182.88C898.19,-150.24 1233.48,-69.7 1377.28,-35.16"/>
<polygon fill="black" stroke="black" points="1378.39,-38.49 1387.3,-32.75 1376.76,-31.68 1378.39,-38.49"/>
<text text-anchor="middle" x="757.3" y="-171.68" font-family="Times,serif" font-size="14.00">1</text>
</g>
<!-- wrp.EntityBigRedFireball -->
<g id="node5" class="node">
<title>wrp.EntityBigRedFireball</title>
<g id="a_node5"><a xlink:href="wrp.EntityBigRedFireball.svg" xlink:title="wrp.EntityBigRedFireball">
<ellipse fill="green" stroke="black" cx="958.54" cy="-198" rx="129.98" ry="18"/>
<text text-anchor="middle" x="958.54" y="-194.3" font-family="Times,serif" font-size="14.00">wrp.EntityBigRedFireball</text>
</a>
</g>
</g>
<!-- wrp.EntityBigRedFireball&#45;&gt;wrp.AnimateEntity -->
<g id="edge4" class="edge">
<title>wrp.EntityBigRedFireball&#45;&gt;wrp.AnimateEntity</title>
<path fill="none" stroke="black" d="M1002.52,-180.89C1092.55,-147.92 1297.37,-72.9 1393.25,-37.79"/>
<polygon fill="black" stroke="black" points="1394.55,-41.04 1402.73,-34.31 1392.14,-34.46 1394.55,-41.04"/>
<text text-anchor="middle" x="997.52" y="-169.69" font-family="Times,serif" font-size="14.00">1</text>
</g>
<!-- wrp.EntityBreakable -->
<g id="node6" class="node">
<title>wrp.EntityBreakable</title>
<g id="a_node6"><a xlink:href="wrp.EntityBreakable.svg" xlink:title="wrp.EntityBreakable">
<ellipse fill="green" stroke="black" cx="1213.54" cy="-198" rx="107.48" ry="18"/>
<text text-anchor="middle" x="1213.54" y="-194.3" font-family="Times,serif" font-size="14.00">wrp.EntityBreakable</text>
</a>
</g>
</g>
<!-- wrp.EntityBreakable&#45;&gt;wrp.AnimateEntity -->
<g id="edge5" class="edge">
<title>wrp.EntityBreakable&#45;&gt;wrp.AnimateEntity</title>
<path fill="none" stroke="black" d="M1235.27,-180.25C1276.91,-148.17 1367.97,-78 1415.05,-41.72"/>
<polygon fill="black" stroke="black" points="1417.25,-44.45 1423.03,-35.57 1412.97,-38.9 1417.25,-44.45"/>
<text text-anchor="middle" x="1230.27" y="-169.05" font-family="Times,serif" font-size="14.00">1</text>
</g>
<!-- wrp.EntityExplosion -->
<g id="node7" class="node">
<title>wrp.EntityExplosion</title>
<g id="a_node7"><a xlink:href="wrp.EntityExplosion.svg" xlink:title="wrp.EntityExplosion">
<ellipse fill="green" stroke="black" cx="1444.54" cy="-198" rx="105.88" ry="18"/>
<text text-anchor="middle" x="1444.54" y="-194.3" font-family="Times,serif" font-size="14.00">wrp.EntityExplosion</text>
</a>
</g>
</g>
<!-- wrp.EntityExplosion&#45;&gt;wrp.AnimateEntity -->
<g id="edge6" class="edge">
<title>wrp.EntityExplosion&#45;&gt;wrp.AnimateEntity</title>
<path fill="none" stroke="black" d="M1444.54,-179.93C1444.54,-148.97 1444.54,-83.3 1444.54,-46.13"/>
<polygon fill="black" stroke="black" points="1448.04,-46.02 1444.54,-36.02 1441.04,-46.02 1448.04,-46.02"/>
<text text-anchor="middle" x="1439.54" y="-168.73" font-family="Times,serif" font-size="14.00">1</text>
</g>
<!-- wrp.EntityPrizeDrop -->
<g id="node8" class="node">
<title>wrp.EntityPrizeDrop</title>
<g id="a_node8"><a xlink:href="wrp.EntityPrizeDrop.svg" xlink:title="wrp.EntityPrizeDrop">
<ellipse fill="green" stroke="black" cx="1675.54" cy="-198" rx="107.48" ry="18"/>
<text text-anchor="middle" x="1675.54" y="-194.3" font-family="Times,serif" font-size="14.00">wrp.EntityPrizeDrop</text>
</a>
</g>
</g>
<!-- wrp.EntityPrizeDrop&#45;&gt;wrp.AnimateEntity -->
<g id="edge7" class="edge">
<title>wrp.EntityPrizeDrop&#45;&gt;wrp.AnimateEntity</title>
<path fill="none" stroke="black" d="M1653.81,-180.25C1612.17,-148.17 1521.11,-78 1474.03,-41.72"/>
<polygon fill="black" stroke="black" points="1476.1,-38.9 1466.04,-35.57 1471.83,-44.45 1476.1,-38.9"/>
<text text-anchor="middle" x="1648.81" y="-169.05" font-family="Times,serif" font-size="14.00">1</text>
</g>
<!-- wrp.EntityRoomForeground -->
<g id="node9" class="node">
<title>wrp.EntityRoomForeground</title>
<g id="a_node9"><a xlink:href="wrp.EntityRoomForeground.svg" xlink:title="wrp.EntityRoomForeground">
<ellipse fill="green" stroke="black" cx="1941.54" cy="-198" rx="141.07" ry="18"/>
<text text-anchor="middle" x="1941.54" y="-194.3" font-family="Times,serif" font-size="14.00">wrp.EntityRoomForeground</text>
</a>
</g>
</g>
<!-- wrp.EntityRoomForeground&#45;&gt;wrp.AnimateEntity -->
<g id="edge8" class="edge">
<title>wrp.EntityRoomForeground&#45;&gt;wrp.AnimateEntity</title>
<path fill="none" stroke="black" d="M1896.56,-180.89C1804.5,-147.92 1595.04,-72.9 1496.99,-37.79"/>
<polygon fill="black" stroke="black" points="1497.89,-34.39 1487.29,-34.31 1495.53,-40.98 1497.89,-34.39"/>
<text text-anchor="middle" x="1891.56" y="-169.69" font-family="Times,serif" font-size="14.00">1</text>
</g>
<!-- wrp.EntitySoulStealOrb -->
<g id="node10" class="node">
<title>wrp.EntitySoulStealOrb</title>
<g id="a_node10"><a xlink:href="wrp.EntitySoulStealOrb.svg" xlink:title="wrp.EntitySoulStealOrb">
<ellipse fill="green" stroke="black" cx="2222.54" cy="-198" rx="122.38" ry="18"/>
<text text-anchor="middle" x="2222.54" y="-194.3" font-family="Times,serif" font-size="14.00">wrp.EntitySoulStealOrb</text>
</a>
</g>
</g>
<!-- wrp.EntitySoulStealOrb&#45;&gt;wrp.AnimateEntity -->
<g id="edge9" class="edge">
<title>wrp.EntitySoulStealOrb&#45;&gt;wrp.AnimateEntity</title>
<path fill="none" stroke="black" d="M2159.2,-182.51C2014.96,-149.51 1662.96,-68.97 1513.49,-34.78"/>
<polygon fill="black" stroke="black" points="1514.04,-31.31 1503.51,-32.49 1512.48,-38.13 1514.04,-31.31"/>
<text text-anchor="middle" x="2154.2" y="-171.31" font-family="Times,serif" font-size="14.00">1</text>
</g>
<!-- wrp.func_80186FD0 -->
<g id="node11" class="node">
<title>wrp.func_80186FD0</title>
<g id="a_node11"><a xlink:href="wrp.func_80186FD0.svg" xlink:title="wrp.func_80186FD0">
<ellipse fill="green" stroke="black" cx="2467.54" cy="-198" rx="104.78" ry="18"/>
<text text-anchor="middle" x="2467.54" y="-194.3" font-family="Times,serif" font-size="14.00">wrp.func_80186FD0</text>
</a>
</g>
</g>
<!-- wrp.func_80186FD0&#45;&gt;wrp.AnimateEntity -->
<g id="edge10" class="edge">
<title>wrp.func_80186FD0&#45;&gt;wrp.AnimateEntity</title>
<path fill="none" stroke="black" d="M2396.82,-184.7C2212.21,-152.57 1716.67,-66.35 1523.33,-32.71"/>
<polygon fill="black" stroke="black" points="1523.7,-29.22 1513.24,-30.95 1522.5,-36.12 1523.7,-29.22"/>
<text text-anchor="middle" x="2391.82" y="-173.5" font-family="Times,serif" font-size="14.00">1</text>
</g>
<!-- wrp.func_801903C8 -->
<g id="node12" class="node">
<title>wrp.func_801903C8</title>
<g id="a_node12"><a xlink:href="wrp.func_801903C8.svg" xlink:title="wrp.func_801903C8">
<ellipse fill="green" stroke="black" cx="2694.54" cy="-198" rx="103.98" ry="18"/>
<text text-anchor="middle" x="2694.54" y="-194.3" font-family="Times,serif" font-size="14.00">wrp.func_801903C8</text>
</a>
</g>
</g>
<!-- wrp.func_801903C8&#45;&gt;wrp.AnimateEntity -->
<g id="edge11" class="edge">
<title>wrp.func_801903C8&#45;&gt;wrp.AnimateEntity</title>
<path fill="none" stroke="black" d="M2619.18,-185.57C2606.61,-183.69 2593.71,-181.78 2581.54,-180 2189.32,-122.73 1720.53,-57.31 1530.68,-30.94"/>
<polygon fill="black" stroke="black" points="1531.14,-27.47 1520.75,-29.56 1530.18,-34.4 1531.14,-27.47"/>
<text text-anchor="middle" x="2614.18" y="-174.37" font-family="Times,serif" font-size="14.00">1</text>
</g>
</g>
</svg>
