<?xml version="1.0" encoding="UTF-8" standalone="no"?>
<!DOCTYPE svg PUBLIC "-//W3C//DTD SVG 1.1//EN"
 "http://www.w3.org/Graphics/SVG/1.1/DTD/svg11.dtd">
<!-- Generated by graphviz version 2.43.0 (0)
 -->
<!-- Title: wrp.EntityEquipItemDrop Pages: 1 -->
<svg width="3377pt" height="224pt"
 viewBox="0.00 0.00 3377.33 224.00" xmlns="http://www.w3.org/2000/svg" xmlns:xlink="http://www.w3.org/1999/xlink">
<g id="graph0" class="graph" transform="scale(1 1) rotate(0) translate(4 220)">
<title>wrp.EntityEquipItemDrop</title>
<polygon fill="white" stroke="transparent" points="-4,4 -4,-220 3373.33,-220 3373.33,4 -4,4"/>
<!-- wrp.EntityEquipItemDrop -->
<g id="node1" class="node">
<title>wrp.EntityEquipItemDrop</title>
<ellipse fill="green" stroke="black" cx="1705.69" cy="-198" rx="131.88" ry="18"/>
<text text-anchor="middle" x="1705.69" y="-194.3" font-family="Times,serif" font-size="14.00">wrp.EntityEquipItemDrop</text>
</g>
<!-- dra.AddToInventory -->
<g id="node2" class="node">
<title>dra.AddToInventory</title>
<g id="a_node2"><a xlink:href="dra.AddToInventory.svg" xlink:title="dra.AddToInventory">
<ellipse fill="green" stroke="black" cx="102.69" cy="-18" rx="102.88" ry="18"/>
<text text-anchor="middle" x="102.69" y="-14.3" font-family="Times,serif" font-size="14.00">dra.AddToInventory</text>
</a>
</g>
</g>
<!-- wrp.EntityEquipItemDrop&#45;&gt;dra.AddToInventory -->
<g id="edge1" class="edge">
<title>wrp.EntityEquipItemDrop&#45;&gt;dra.AddToInventory</title>
<path fill="none" stroke="black" d="M1600.21,-187.19C1356.07,-164.13 733.33,-103.33 214.69,-36 205.43,-34.8 195.74,-33.46 186.12,-32.07"/>
<polygon fill="black" stroke="black" points="186.53,-28.59 176.13,-30.61 185.52,-35.52 186.53,-28.59"/>
<text text-anchor="middle" x="171.13" y="-34.41" font-family="Times,serif" font-size="14.00">1</text>
</g>
<!-- dra.AllocPrimitives -->
<g id="node3" class="node">
<title>dra.AllocPrimitives</title>
<g id="a_node3"><a xlink:href="dra.AllocPrimitives.svg" xlink:title="dra.AllocPrimitives">
<ellipse fill="green" stroke="black" cx="322.69" cy="-18" rx="99.38" ry="18"/>
<text text-anchor="middle" x="322.69" y="-14.3" font-family="Times,serif" font-size="14.00">dra.AllocPrimitives</text>
</a>
</g>
</g>
<!-- wrp.EntityEquipItemDrop&#45;&gt;dra.AllocPrimitives -->
<g id="edge2" class="edge">
<title>wrp.EntityEquipItemDrop&#45;&gt;dra.AllocPrimitives</title>
<path fill="none" stroke="black" d="M1608.87,-185.74C1395.82,-160.74 870.44,-97.92 431.69,-36 422.85,-34.75 413.61,-33.39 404.41,-32.01"/>
<polygon fill="black" stroke="black" points="404.88,-28.54 394.47,-30.5 403.83,-35.46 404.88,-28.54"/>
<text text-anchor="middle" x="389.47" y="-34.3" font-family="Times,serif" font-size="14.00">1</text>
</g>
<!-- dra.CheckCollision -->
<g id="node4" class="node">
<title>dra.CheckCollision</title>
<g id="a_node4"><a xlink:href="dra.CheckCollision.svg" xlink:title="dra.CheckCollision">
<ellipse fill="green" stroke="black" cx="537.69" cy="-18" rx="97.48" ry="18"/>
<text text-anchor="middle" x="537.69" y="-14.3" font-family="Times,serif" font-size="14.00">dra.CheckCollision</text>
</a>
</g>
</g>
<!-- wrp.EntityEquipItemDrop&#45;&gt;dra.CheckCollision -->
<g id="edge3" class="edge">
<title>wrp.EntityEquipItemDrop&#45;&gt;dra.CheckCollision</title>
<path fill="none" stroke="black" d="M1619.96,-184.26C1439.35,-157.36 1006.44,-92.58 643.69,-36 635.48,-34.72 626.92,-33.37 618.38,-32.01"/>
<polygon fill="black" stroke="black" points="618.81,-28.54 608.38,-30.42 617.71,-35.45 618.81,-28.54"/>
<text text-anchor="middle" x="603.38" y="-34.22" font-family="Times,serif" font-size="14.00">3</text>
</g>
<!-- dra.FreePrimitives -->
<g id="node5" class="node">
<title>dra.FreePrimitives</title>
<g id="a_node5"><a xlink:href="dra.FreePrimitives.svg" xlink:title="dra.FreePrimitives">
<ellipse fill="green" stroke="black" cx="751.69" cy="-18" rx="98.58" ry="18"/>
<text text-anchor="middle" x="751.69" y="-14.3" font-family="Times,serif" font-size="14.00">dra.FreePrimitives</text>
</a>
</g>
</g>
<!-- wrp.EntityEquipItemDrop&#45;&gt;dra.FreePrimitives -->
<g id="edge4" class="edge">
<title>wrp.EntityEquipItemDrop&#45;&gt;dra.FreePrimitives</title>
<path fill="none" stroke="black" d="M1631.23,-183.11C1453.7,-149.98 1007.01,-66.64 827.81,-33.2"/>
<polygon fill="black" stroke="black" points="828.41,-29.75 817.94,-31.36 827.13,-36.64 828.41,-29.75"/>
<text text-anchor="middle" x="812.94" y="-35.16" font-family="Times,serif" font-size="14.00">1</text>
</g>
<!-- dra.LoadEquipIcon -->
<g id="node6" class="node">
<title>dra.LoadEquipIcon</title>
<g id="a_node6"><a xlink:href="dra.LoadEquipIcon.svg" xlink:title="dra.LoadEquipIcon">
<ellipse fill="green" stroke="black" cx="967.69" cy="-18" rx="98.58" ry="18"/>
<text text-anchor="middle" x="967.69" y="-14.3" font-family="Times,serif" font-size="14.00">dra.LoadEquipIcon</text>
</a>
</g>
</g>
<!-- wrp.EntityEquipItemDrop&#45;&gt;dra.LoadEquipIcon -->
<g id="edge5" class="edge">
<title>wrp.EntityEquipItemDrop&#45;&gt;dra.LoadEquipIcon</title>
<path fill="none" stroke="black" d="M1643.72,-182.05C1506.24,-148.89 1176.66,-69.4 1034.65,-35.15"/>
<polygon fill="black" stroke="black" points="1035.3,-31.71 1024.76,-32.76 1033.66,-38.51 1035.3,-31.71"/>
<text text-anchor="middle" x="1019.76" y="-36.56" font-family="Times,serif" font-size="14.00">1</text>
</g>
<!-- dra.PlaySfx -->
<g id="node7" class="node">
<title>dra.PlaySfx</title>
<g id="a_node7"><a xlink:href="dra.PlaySfx.svg" xlink:title="dra.PlaySfx">
<ellipse fill="green" stroke="black" cx="1148.69" cy="-18" rx="64.19" ry="18"/>
<text text-anchor="middle" x="1148.69" y="-14.3" font-family="Times,serif" font-size="14.00">dra.PlaySfx</text>
</a>
</g>
</g>
<!-- wrp.EntityEquipItemDrop&#45;&gt;dra.PlaySfx -->
<g id="edge6" class="edge">
<title>wrp.EntityEquipItemDrop&#45;&gt;dra.PlaySfx</title>
<path fill="none" stroke="black" d="M1656.26,-181.2C1550.92,-147.54 1305.29,-69.04 1199.09,-35.11"/>
<polygon fill="black" stroke="black" points="1200.15,-31.77 1189.56,-32.06 1198.02,-38.44 1200.15,-31.77"/>
<text text-anchor="middle" x="1184.56" y="-35.86" font-family="Times,serif" font-size="14.00">1</text>
</g>
<!-- rwrp.CheckFieldCollision -->
<g id="node8" class="node">
<title>rwrp.CheckFieldCollision</title>
<g id="a_node8"><a xlink:href="rwrp.CheckFieldCollision.svg" xlink:title="rwrp.CheckFieldCollision">
<ellipse fill="green" stroke="black" cx="1358.69" cy="-18" rx="128.08" ry="18"/>
<text text-anchor="middle" x="1358.69" y="-14.3" font-family="Times,serif" font-size="14.00">rwrp.CheckFieldCollision</text>
</a>
</g>
</g>
<!-- wrp.EntityEquipItemDrop&#45;&gt;rwrp.CheckFieldCollision -->
<g id="edge7" class="edge">
<title>wrp.EntityEquipItemDrop&#45;&gt;rwrp.CheckFieldCollision</title>
<path fill="none" stroke="black" d="M1673.36,-180.41C1610,-147.91 1469.61,-75.9 1399.78,-40.08"/>
<polygon fill="black" stroke="black" points="1401.31,-36.93 1390.82,-35.48 1398.12,-43.16 1401.31,-36.93"/>
<text text-anchor="middle" x="1385.82" y="-39.28" font-family="Times,serif" font-size="14.00">1</text>
</g>
<!-- rwrp.DestroyEntity -->
<g id="node9" class="node">
<title>rwrp.DestroyEntity</title>
<g id="a_node9"><a xlink:href="rwrp.DestroyEntity.svg" xlink:title="rwrp.DestroyEntity">
<ellipse fill="green" stroke="black" cx="1605.69" cy="-18" rx="101.28" ry="18"/>
<text text-anchor="middle" x="1605.69" y="-14.3" font-family="Times,serif" font-size="14.00">rwrp.DestroyEntity</text>
</a>
</g>
</g>
<!-- wrp.EntityEquipItemDrop&#45;&gt;rwrp.DestroyEntity -->
<g id="edge8" class="edge">
<title>wrp.EntityEquipItemDrop&#45;&gt;rwrp.DestroyEntity</title>
<path fill="none" stroke="black" d="M1696.1,-179.93C1678.56,-148.7 1641.18,-82.17 1620.4,-45.18"/>
<polygon fill="black" stroke="black" points="1623.2,-43.02 1615.25,-36.02 1617.1,-46.45 1623.2,-43.02"/>
<text text-anchor="middle" x="1610.25" y="-39.82" font-family="Times,serif" font-size="14.00">2</text>
</g>
<!-- rwrp.FallEntity -->
<g id="node10" class="node">
<title>rwrp.FallEntity</title>
<g id="a_node10"><a xlink:href="rwrp.FallEntity.svg" xlink:title="rwrp.FallEntity">
<ellipse fill="green" stroke="black" cx="1806.69" cy="-18" rx="81.79" ry="18"/>
<text text-anchor="middle" x="1806.69" y="-14.3" font-family="Times,serif" font-size="14.00">rwrp.FallEntity</text>
</a>
</g>
</g>
<!-- wrp.EntityEquipItemDrop&#45;&gt;rwrp.FallEntity -->
<g id="edge9" class="edge">
<title>wrp.EntityEquipItemDrop&#45;&gt;rwrp.FallEntity</title>
<path fill="none" stroke="black" d="M1715.38,-179.93C1733.1,-148.7 1770.85,-82.17 1791.84,-45.18"/>
<polygon fill="black" stroke="black" points="1795.14,-46.44 1797.04,-36.02 1789.06,-42.99 1795.14,-46.44"/>
<text text-anchor="middle" x="1792.04" y="-39.82" font-family="Times,serif" font-size="14.00">1</text>
</g>
<!-- rwrp.InitializeEntity -->
<g id="node11" class="node">
<title>rwrp.InitializeEntity</title>
<g id="a_node11"><a xlink:href="rwrp.InitializeEntity.svg" xlink:title="rwrp.InitializeEntity">
<ellipse fill="green" stroke="black" cx="2011.69" cy="-18" rx="105.08" ry="18"/>
<text text-anchor="middle" x="2011.69" y="-14.3" font-family="Times,serif" font-size="14.00">rwrp.InitializeEntity</text>
</a>
</g>
</g>
<!-- wrp.EntityEquipItemDrop&#45;&gt;rwrp.InitializeEntity -->
<g id="edge10" class="edge">
<title>wrp.EntityEquipItemDrop&#45;&gt;rwrp.InitializeEntity</title>
<path fill="none" stroke="black" d="M1734.2,-180.41C1789.92,-148 1913.18,-76.3 1974.93,-40.38"/>
<polygon fill="black" stroke="black" points="1976.7,-43.4 1983.58,-35.35 1973.18,-37.35 1976.7,-43.4"/>
<text text-anchor="middle" x="1978.58" y="-39.15" font-family="Times,serif" font-size="14.00">1</text>
</g>
<!-- rwrp.MoveEntity -->
<g id="node12" class="node">
<title>rwrp.MoveEntity</title>
<g id="a_node12"><a xlink:href="rwrp.MoveEntity.svg" xlink:title="rwrp.MoveEntity">
<ellipse fill="green" stroke="black" cx="2225.69" cy="-18" rx="90.18" ry="18"/>
<text text-anchor="middle" x="2225.69" y="-14.3" font-family="Times,serif" font-size="14.00">rwrp.MoveEntity</text>
</a>
</g>
</g>
<!-- wrp.EntityEquipItemDrop&#45;&gt;rwrp.MoveEntity -->
<g id="edge11" class="edge">
<title>wrp.EntityEquipItemDrop&#45;&gt;rwrp.MoveEntity</title>
<path fill="none" stroke="black" d="M1752.3,-181.05C1849.01,-147.94 2070.99,-71.96 2172.85,-37.09"/>
<polygon fill="black" stroke="black" points="2173.99,-40.4 2182.32,-33.85 2171.73,-33.77 2173.99,-40.4"/>
<text text-anchor="middle" x="2177.32" y="-37.65" font-family="Times,serif" font-size="14.00">1</text>
</g>
<!-- rwrp.SetStep -->
<g id="node13" class="node">
<title>rwrp.SetStep</title>
<g id="a_node13"><a xlink:href="rwrp.SetStep.svg" xlink:title="rwrp.SetStep">
<ellipse fill="green" stroke="black" cx="2407.69" cy="-18" rx="73.39" ry="18"/>
<text text-anchor="middle" x="2407.69" y="-14.3" font-family="Times,serif" font-size="14.00">rwrp.SetStep</text>
</a>
</g>
</g>
<!-- wrp.EntityEquipItemDrop&#45;&gt;rwrp.SetStep -->
<g id="edge12" class="edge">
<title>wrp.EntityEquipItemDrop&#45;&gt;rwrp.SetStep</title>
<path fill="none" stroke="black" d="M1765.24,-181.9C1897.85,-148.28 2216.19,-67.56 2348.48,-34.01"/>
<polygon fill="black" stroke="black" points="2349.61,-37.34 2358.44,-31.49 2347.88,-30.55 2349.61,-37.34"/>
<text text-anchor="middle" x="2353.44" y="-35.29" font-family="Times,serif" font-size="14.00">1</text>
</g>
<!-- wrp.BlinkItem -->
<g id="node14" class="node">
<title>wrp.BlinkItem</title>
<g id="a_node14"><a xlink:href="wrp.BlinkItem.svg" xlink:title="wrp.BlinkItem">
<ellipse fill="green" stroke="black" cx="2576.69" cy="-18" rx="77.19" ry="18"/>
<text text-anchor="middle" x="2576.69" y="-14.3" font-family="Times,serif" font-size="14.00">wrp.BlinkItem</text>
</a>
</g>
</g>
<!-- wrp.EntityEquipItemDrop&#45;&gt;wrp.BlinkItem -->
<g id="edge13" class="edge">
<title>wrp.EntityEquipItemDrop&#45;&gt;wrp.BlinkItem</title>
<path fill="none" stroke="black" d="M1775.86,-182.66C1940.45,-149.02 2349.53,-65.42 2510.3,-32.57"/>
<polygon fill="black" stroke="black" points="2511.43,-35.91 2520.53,-30.48 2510.03,-29.05 2511.43,-35.91"/>
<text text-anchor="middle" x="2515.53" y="-34.28" font-family="Times,serif" font-size="14.00">1</text>
</g>
<!-- wrp.BottomCornerText -->
<g id="node15" class="node">
<title>wrp.BottomCornerText</title>
<g id="a_node15"><a xlink:href="wrp.BottomCornerText.svg" xlink:title="wrp.BottomCornerText">
<ellipse fill="green" stroke="black" cx="2790.69" cy="-18" rx="118.08" ry="18"/>
<text text-anchor="middle" x="2790.69" y="-14.3" font-family="Times,serif" font-size="14.00">wrp.BottomCornerText</text>
</a>
</g>
</g>
<!-- wrp.EntityEquipItemDrop&#45;&gt;wrp.BottomCornerText -->
<g id="edge14" class="edge">
<title>wrp.EntityEquipItemDrop&#45;&gt;wrp.BottomCornerText</title>
<path fill="none" stroke="black" d="M1786.8,-183.69C1985.89,-151.03 2497.38,-67.12 2703.08,-33.37"/>
<polygon fill="black" stroke="black" points="2703.94,-36.78 2713.24,-31.71 2702.8,-29.87 2703.94,-36.78"/>
<text text-anchor="middle" x="2708.24" y="-35.51" font-family="Times,serif" font-size="14.00">1</text>
</g>
<!-- wrp.EntityPrizeDrop -->
<g id="node16" class="node">
<title>wrp.EntityPrizeDrop</title>
<g id="a_node16"><a xlink:href="wrp.EntityPrizeDrop.svg" xlink:title="wrp.EntityPrizeDrop">
<ellipse fill="green" stroke="black" cx="3034.69" cy="-18" rx="107.48" ry="18"/>
<text text-anchor="middle" x="3034.69" y="-14.3" font-family="Times,serif" font-size="14.00">wrp.EntityPrizeDrop</text>
</a>
</g>
</g>
<!-- wrp.EntityEquipItemDrop&#45;&gt;wrp.EntityPrizeDrop -->
<g id="edge15" class="edge">
<title>wrp.EntityEquipItemDrop&#45;&gt;wrp.EntityPrizeDrop</title>
<path fill="none" stroke="black" d="M1798.11,-185.11C2000.9,-158.95 2500.1,-94.07 2917.69,-36 2927.12,-34.69 2936.98,-33.29 2946.79,-31.89"/>
<polygon fill="black" stroke="black" points="2947.58,-35.31 2956.99,-30.43 2946.59,-28.38 2947.58,-35.31"/>
<text text-anchor="middle" x="2951.99" y="-34.23" font-family="Times,serif" font-size="14.00">1</text>
</g>
<!-- wrp.func_8018CB34 -->
<g id="node17" class="node">
<title>wrp.func_8018CB34</title>
<g id="a_node17"><a xlink:href="wrp.func_8018CB34.svg" xlink:title="wrp.func_8018CB34">
<ellipse fill="green" stroke="black" cx="3264.69" cy="-18" rx="104.78" ry="18"/>
<text text-anchor="middle" x="3264.69" y="-14.3" font-family="Times,serif" font-size="14.00">wrp.func_8018CB34</text>
</a>
</g>
</g>
<!-- wrp.EntityEquipItemDrop&#45;&gt;wrp.func_8018CB34 -->
<g id="edge16" class="edge">
<title>wrp.EntityEquipItemDrop&#45;&gt;wrp.func_8018CB34</title>
<path fill="none" stroke="black" d="M1809.23,-186.79C2046.71,-163.1 2648.83,-101.36 3150.69,-36 3160.04,-34.78 3169.81,-33.44 3179.54,-32.05"/>
<polygon fill="black" stroke="black" points="3180.23,-35.49 3189.63,-30.6 3179.23,-28.56 3180.23,-35.49"/>
<text text-anchor="middle" x="3184.63" y="-34.4" font-family="Times,serif" font-size="14.00">2</text>
</g>
</g>
</svg>
