<?xml version="1.0" encoding="UTF-8" standalone="no"?>
<!DOCTYPE svg PUBLIC "-//W3C//DTD SVG 1.1//EN"
 "http://www.w3.org/Graphics/SVG/1.1/DTD/svg11.dtd">
<!-- Generated by graphviz version 2.43.0 (0)
 -->
<!-- Title: wrp.GetSideToPlayer Pages: 1 -->
<svg width="884pt" height="224pt"
 viewBox="0.00 0.00 884.03 224.00" xmlns="http://www.w3.org/2000/svg" xmlns:xlink="http://www.w3.org/1999/xlink">
<g id="graph0" class="graph" transform="scale(1 1) rotate(0) translate(4 220)">
<title>wrp.GetSideToPlayer</title>
<polygon fill="white" stroke="transparent" points="-4,4 -4,-220 880.03,-220 880.03,4 -4,4"/>
<!-- wrp.GetSideToPlayer -->
<g id="node1" class="node">
<title>wrp.GetSideToPlayer</title>
<ellipse fill="green" stroke="black" cx="444.29" cy="-18" rx="109.38" ry="18"/>
<text text-anchor="middle" x="444.29" y="-14.3" font-family="Times,serif" font-size="14.00">wrp.GetSideToPlayer</text>
</g>
<!-- rwrp.EntityRedDoor -->
<g id="node2" class="node">
<title>rwrp.EntityRedDoor</title>
<g id="a_node2"><a xlink:href="rwrp.EntityRedDoor.svg" xlink:title="rwrp.EntityRedDoor">
<ellipse fill="green" stroke="black" cx="105.29" cy="-198" rx="105.08" ry="18"/>
<text text-anchor="middle" x="105.29" y="-194.3" font-family="Times,serif" font-size="14.00">rwrp.EntityRedDoor</text>
</a>
</g>
</g>
<!-- rwrp.EntityRedDoor&#45;&gt;wrp.GetSideToPlayer -->
<g id="edge1" class="edge">
<title>rwrp.EntityRedDoor&#45;&gt;wrp.GetSideToPlayer</title>
<path fill="none" stroke="black" d="M136.27,-180.73C197.78,-148.44 335.26,-76.25 403.81,-40.25"/>
<polygon fill="black" stroke="black" points="405.79,-43.17 413.01,-35.42 402.53,-36.97 405.79,-43.17"/>
<text text-anchor="middle" x="131.27" y="-169.53" font-family="Times,serif" font-size="14.00">1</text>
</g>
<!-- rwrp.EntityUnkId12 -->
<g id="node3" class="node">
<title>rwrp.EntityUnkId12</title>
<g id="a_node3"><a xlink:href="rwrp.EntityUnkId12.svg" xlink:title="rwrp.EntityUnkId12">
<ellipse fill="green" stroke="black" cx="333.29" cy="-198" rx="104.78" ry="18"/>
<text text-anchor="middle" x="333.29" y="-194.3" font-family="Times,serif" font-size="14.00">rwrp.EntityUnkId12</text>
</a>
</g>
</g>
<!-- rwrp.EntityUnkId12&#45;&gt;wrp.GetSideToPlayer -->
<g id="edge2" class="edge">
<title>rwrp.EntityUnkId12&#45;&gt;wrp.GetSideToPlayer</title>
<path fill="none" stroke="black" d="M343.93,-179.93C363.49,-148.57 405.25,-81.6 428.26,-44.71"/>
<polygon fill="black" stroke="black" points="431.36,-46.35 433.68,-36.02 425.42,-42.65 431.36,-46.35"/>
<text text-anchor="middle" x="338.93" y="-168.73" font-family="Times,serif" font-size="14.00">1</text>
</g>
<!-- wrp.EntityRedDoor -->
<g id="node4" class="node">
<title>wrp.EntityRedDoor</title>
<g id="a_node4"><a xlink:href="wrp.EntityRedDoor.svg" xlink:title="wrp.EntityRedDoor">
<ellipse fill="green" stroke="black" cx="556.29" cy="-198" rx="100.98" ry="18"/>
<text text-anchor="middle" x="556.29" y="-194.3" font-family="Times,serif" font-size="14.00">wrp.EntityRedDoor</text>
</a>
</g>
</g>
<!-- wrp.EntityRedDoor&#45;&gt;wrp.GetSideToPlayer -->
<g id="edge3" class="edge">
<title>wrp.EntityRedDoor&#45;&gt;wrp.GetSideToPlayer</title>
<path fill="none" stroke="black" d="M545.55,-179.93C525.82,-148.57 483.68,-81.6 460.47,-44.71"/>
<polygon fill="black" stroke="black" points="463.29,-42.62 455,-36.02 457.36,-46.34 463.29,-42.62"/>
<text text-anchor="middle" x="540.55" y="-168.73" font-family="Times,serif" font-size="14.00">1</text>
</g>
<!-- wrp.EntityUnkId12 -->
<g id="node5" class="node">
<title>wrp.EntityUnkId12</title>
<g id="a_node5"><a xlink:href="wrp.EntityUnkId12.svg" xlink:title="wrp.EntityUnkId12">
<ellipse fill="green" stroke="black" cx="775.29" cy="-198" rx="100.98" ry="18"/>
<text text-anchor="middle" x="775.29" y="-194.3" font-family="Times,serif" font-size="14.00">wrp.EntityUnkId12</text>
</a>
</g>
</g>
<!-- wrp.EntityUnkId12&#45;&gt;wrp.GetSideToPlayer -->
<g id="edge4" class="edge">
<title>wrp.EntityUnkId12&#45;&gt;wrp.GetSideToPlayer</title>
<path fill="none" stroke="black" d="M745.04,-180.73C684.98,-148.44 550.75,-76.25 483.81,-40.25"/>
<polygon fill="black" stroke="black" points="485.3,-37.08 474.83,-35.42 481.98,-43.24 485.3,-37.08"/>
<text text-anchor="middle" x="740.04" y="-169.53" font-family="Times,serif" font-size="14.00">1</text>
</g>
</g>
</svg>
