<?xml version="1.0" encoding="UTF-8" standalone="no"?>
<!DOCTYPE svg PUBLIC "-//W3C//DTD SVG 1.1//EN"
 "http://www.w3.org/Graphics/SVG/1.1/DTD/svg11.dtd">
<!-- Generated by graphviz version 2.43.0 (0)
 -->
<!-- Title: wrp.AnimateEntity Pages: 1 -->
<svg width="2516pt" height="224pt"
 viewBox="0.00 0.00 2515.53 224.00" xmlns="http://www.w3.org/2000/svg" xmlns:xlink="http://www.w3.org/1999/xlink">
<g id="graph0" class="graph" transform="scale(1 1) rotate(0) translate(4 220)">
<title>wrp.AnimateEntity</title>
<polygon fill="white" stroke="transparent" points="-4,4 -4,-220 2511.53,-220 2511.53,4 -4,4"/>
<!-- wrp.AnimateEntity -->
<g id="node1" class="node">
<title>wrp.AnimateEntity</title>
<ellipse fill="green" stroke="black" cx="1256.54" cy="-18" rx="98.58" ry="18"/>
<text text-anchor="middle" x="1256.54" y="-14.3" font-family="Times,serif" font-size="14.00">wrp.AnimateEntity</text>
</g>
<!-- rwrp.EntityBigRedFireball -->
<g id="node2" class="node">
<title>rwrp.EntityBigRedFireball</title>
<g id="a_node2"><a xlink:href="rwrp.EntityBigRedFireball.svg" xlink:title="rwrp.EntityBigRedFireball">
<ellipse fill="green" stroke="black" cx="134.54" cy="-198" rx="134.58" ry="18"/>
<text text-anchor="middle" x="134.54" y="-194.3" font-family="Times,serif" font-size="14.00">rwrp.EntityBigRedFireball</text>
</a>
</g>
</g>
<!-- rwrp.EntityBigRedFireball&#45;&gt;wrp.AnimateEntity -->
<g id="edge1" class="edge">
<title>rwrp.EntityBigRedFireball&#45;&gt;wrp.AnimateEntity</title>
<path fill="none" stroke="black" d="M217.95,-183.77C426.45,-150.69 968.3,-64.73 1174.89,-31.95"/>
<polygon fill="black" stroke="black" points="1175.44,-35.41 1184.77,-30.39 1174.34,-28.5 1175.44,-35.41"/>
<text text-anchor="middle" x="212.95" y="-172.57" font-family="Times,serif" font-size="14.00">1</text>
</g>
<!-- rwrp.EntityExplosion -->
<g id="node3" class="node">
<title>rwrp.EntityExplosion</title>
<g id="a_node3"><a xlink:href="rwrp.EntityExplosion.svg" xlink:title="rwrp.EntityExplosion">
<ellipse fill="green" stroke="black" cx="397.54" cy="-198" rx="110.48" ry="18"/>
<text text-anchor="middle" x="397.54" y="-194.3" font-family="Times,serif" font-size="14.00">rwrp.EntityExplosion</text>
</a>
</g>
</g>
<!-- rwrp.EntityExplosion&#45;&gt;wrp.AnimateEntity -->
<g id="edge2" class="edge">
<title>rwrp.EntityExplosion&#45;&gt;wrp.AnimateEntity</title>
<path fill="none" stroke="black" d="M462.81,-183.47C620.14,-150.87 1019.42,-68.13 1183.96,-34.04"/>
<polygon fill="black" stroke="black" points="1184.9,-37.42 1193.99,-31.96 1183.48,-30.56 1184.9,-37.42"/>
<text text-anchor="middle" x="457.81" y="-172.27" font-family="Times,serif" font-size="14.00">1</text>
</g>
<!-- rwrp.EntityPrizeDrop -->
<g id="node4" class="node">
<title>rwrp.EntityPrizeDrop</title>
<g id="a_node4"><a xlink:href="rwrp.EntityPrizeDrop.svg" xlink:title="rwrp.EntityPrizeDrop">
<ellipse fill="green" stroke="black" cx="637.54" cy="-198" rx="111.58" ry="18"/>
<text text-anchor="middle" x="637.54" y="-194.3" font-family="Times,serif" font-size="14.00">rwrp.EntityPrizeDrop</text>
</a>
</g>
</g>
<!-- rwrp.EntityPrizeDrop&#45;&gt;wrp.AnimateEntity -->
<g id="edge3" class="edge">
<title>rwrp.EntityPrizeDrop&#45;&gt;wrp.AnimateEntity</title>
<path fill="none" stroke="black" d="M689.51,-182.05C803.45,-149.29 1074.67,-71.3 1196.03,-36.4"/>
<polygon fill="black" stroke="black" points="1197.26,-39.69 1205.9,-33.56 1195.32,-32.96 1197.26,-39.69"/>
<text text-anchor="middle" x="684.51" y="-170.85" font-family="Times,serif" font-size="14.00">1</text>
</g>
<!-- rwrp.func_80192348 -->
<g id="node5" class="node">
<title>rwrp.func_80192348</title>
<g id="a_node5"><a xlink:href="rwrp.func_80192348.svg" xlink:title="rwrp.func_80192348">
<ellipse fill="green" stroke="black" cx="874.54" cy="-198" rx="107.48" ry="18"/>
<text text-anchor="middle" x="874.54" y="-194.3" font-family="Times,serif" font-size="14.00">rwrp.func_80192348</text>
</a>
</g>
</g>
<!-- rwrp.func_80192348&#45;&gt;wrp.AnimateEntity -->
<g id="edge4" class="edge">
<title>rwrp.func_80192348&#45;&gt;wrp.AnimateEntity</title>
<path fill="none" stroke="black" d="M909.11,-180.89C978.86,-148.39 1136.27,-75.04 1212.94,-39.32"/>
<polygon fill="black" stroke="black" points="1214.73,-42.34 1222.32,-34.95 1211.78,-36 1214.73,-42.34"/>
<text text-anchor="middle" x="904.11" y="-169.69" font-family="Times,serif" font-size="14.00">1</text>
</g>
<!-- wrp.EntityBigRedFireball -->
<g id="node6" class="node">
<title>wrp.EntityBigRedFireball</title>
<g id="a_node6"><a xlink:href="wrp.EntityBigRedFireball.svg" xlink:title="wrp.EntityBigRedFireball">
<ellipse fill="green" stroke="black" cx="1129.54" cy="-198" rx="129.98" ry="18"/>
<text text-anchor="middle" x="1129.54" y="-194.3" font-family="Times,serif" font-size="14.00">wrp.EntityBigRedFireball</text>
</a>
</g>
</g>
<!-- wrp.EntityBigRedFireball&#45;&gt;wrp.AnimateEntity -->
<g id="edge5" class="edge">
<title>wrp.EntityBigRedFireball&#45;&gt;wrp.AnimateEntity</title>
<path fill="none" stroke="black" d="M1141.72,-179.93C1164.19,-148.43 1212.28,-81.03 1238.53,-44.24"/>
<polygon fill="black" stroke="black" points="1241.44,-46.19 1244.4,-36.02 1235.74,-42.12 1241.44,-46.19"/>
<text text-anchor="middle" x="1136.72" y="-168.73" font-family="Times,serif" font-size="14.00">1</text>
</g>
<!-- wrp.EntityBreakable -->
<g id="node7" class="node">
<title>wrp.EntityBreakable</title>
<g id="a_node7"><a xlink:href="wrp.EntityBreakable.svg" xlink:title="wrp.EntityBreakable">
<ellipse fill="green" stroke="black" cx="1384.54" cy="-198" rx="107.48" ry="18"/>
<text text-anchor="middle" x="1384.54" y="-194.3" font-family="Times,serif" font-size="14.00">wrp.EntityBreakable</text>
</a>
</g>
</g>
<!-- wrp.EntityBreakable&#45;&gt;wrp.AnimateEntity -->
<g id="edge6" class="edge">
<title>wrp.EntityBreakable&#45;&gt;wrp.AnimateEntity</title>
<path fill="none" stroke="black" d="M1372.26,-179.93C1349.61,-148.43 1301.15,-81.03 1274.69,-44.24"/>
<polygon fill="black" stroke="black" points="1277.45,-42.09 1268.77,-36.02 1271.77,-46.18 1277.45,-42.09"/>
<text text-anchor="middle" x="1367.26" y="-168.73" font-family="Times,serif" font-size="14.00">1</text>
</g>
<!-- wrp.EntityRoomForeground -->
<g id="node8" class="node">
<title>wrp.EntityRoomForeground</title>
<g id="a_node8"><a xlink:href="wrp.EntityRoomForeground.svg" xlink:title="wrp.EntityRoomForeground">
<ellipse fill="green" stroke="black" cx="1650.54" cy="-198" rx="141.07" ry="18"/>
<text text-anchor="middle" x="1650.54" y="-194.3" font-family="Times,serif" font-size="14.00">wrp.EntityRoomForeground</text>
</a>
</g>
</g>
<!-- wrp.EntityRoomForeground&#45;&gt;wrp.AnimateEntity -->
<g id="edge7" class="edge">
<title>wrp.EntityRoomForeground&#45;&gt;wrp.AnimateEntity</title>
<path fill="none" stroke="black" d="M1614.18,-180.57C1541.68,-147.82 1379.39,-74.5 1300.83,-39.01"/>
<polygon fill="black" stroke="black" points="1302.23,-35.8 1291.68,-34.87 1299.35,-42.18 1302.23,-35.8"/>
<text text-anchor="middle" x="1609.18" y="-169.37" font-family="Times,serif" font-size="14.00">1</text>
</g>
<!-- wrp.EntitySoulStealOrb -->
<g id="node9" class="node">
<title>wrp.EntitySoulStealOrb</title>
<g id="a_node9"><a xlink:href="wrp.EntitySoulStealOrb.svg" xlink:title="wrp.EntitySoulStealOrb">
<ellipse fill="green" stroke="black" cx="1931.54" cy="-198" rx="122.38" ry="18"/>
<text text-anchor="middle" x="1931.54" y="-194.3" font-family="Times,serif" font-size="14.00">wrp.EntitySoulStealOrb</text>
</a>
</g>
</g>
<!-- wrp.EntitySoulStealOrb&#45;&gt;wrp.AnimateEntity -->
<g id="edge8" class="edge">
<title>wrp.EntitySoulStealOrb&#45;&gt;wrp.AnimateEntity</title>
<path fill="none" stroke="black" d="M1874.57,-181.98C1749.42,-148.98 1451.25,-70.35 1320.19,-35.79"/>
<polygon fill="black" stroke="black" points="1320.86,-32.34 1310.29,-33.18 1319.07,-39.11 1320.86,-32.34"/>
<text text-anchor="middle" x="1869.57" y="-170.78" font-family="Times,serif" font-size="14.00">1</text>
</g>
<!-- wrp.func_80186FD0 -->
<g id="node10" class="node">
<title>wrp.func_80186FD0</title>
<g id="a_node10"><a xlink:href="wrp.func_80186FD0.svg" xlink:title="wrp.func_80186FD0">
<ellipse fill="green" stroke="black" cx="2176.54" cy="-198" rx="104.78" ry="18"/>
<text text-anchor="middle" x="2176.54" y="-194.3" font-family="Times,serif" font-size="14.00">wrp.func_80186FD0</text>
</a>
</g>
</g>
<!-- wrp.func_80186FD0&#45;&gt;wrp.AnimateEntity -->
<g id="edge9" class="edge">
<title>wrp.func_80186FD0&#45;&gt;wrp.AnimateEntity</title>
<path fill="none" stroke="black" d="M2109.63,-184.06C1942.42,-151.7 1507.14,-67.49 1331.58,-33.52"/>
<polygon fill="black" stroke="black" points="1332.13,-30.06 1321.65,-31.6 1330.81,-36.93 1332.13,-30.06"/>
<text text-anchor="middle" x="2104.63" y="-172.86" font-family="Times,serif" font-size="14.00">1</text>
</g>
<!-- wrp.func_801903C8 -->
<g id="node11" class="node">
<title>wrp.func_801903C8</title>
<g id="a_node11"><a xlink:href="wrp.func_801903C8.svg" xlink:title="wrp.func_801903C8">
<ellipse fill="green" stroke="black" cx="2403.54" cy="-198" rx="103.98" ry="18"/>
<text text-anchor="middle" x="2403.54" y="-194.3" font-family="Times,serif" font-size="14.00">wrp.func_801903C8</text>
</a>
</g>
</g>
<!-- wrp.func_801903C8&#45;&gt;wrp.AnimateEntity -->
<g id="edge10" class="edge">
<title>wrp.func_801903C8&#45;&gt;wrp.AnimateEntity</title>
<path fill="none" stroke="black" d="M2328.72,-185.39C2123.56,-153.55 1553.15,-65.03 1339.1,-31.81"/>
<polygon fill="black" stroke="black" points="1339.6,-28.35 1329.18,-30.27 1338.53,-35.27 1339.6,-28.35"/>
<text text-anchor="middle" x="2323.72" y="-174.19" font-family="Times,serif" font-size="14.00">1</text>
</g>
</g>
</svg>
