<?xml version="1.0" encoding="UTF-8" standalone="no"?>
<!DOCTYPE svg PUBLIC "-//W3C//DTD SVG 1.1//EN"
 "http://www.w3.org/Graphics/SVG/1.1/DTD/svg11.dtd">
<!-- Generated by graphviz version 2.43.0 (0)
 -->
<!-- Title: wrp.FallEntity Pages: 1 -->
<svg width="1455pt" height="224pt"
 viewBox="0.00 0.00 1454.78 224.00" xmlns="http://www.w3.org/2000/svg" xmlns:xlink="http://www.w3.org/1999/xlink">
<g id="graph0" class="graph" transform="scale(1 1) rotate(0) translate(4 220)">
<title>wrp.FallEntity</title>
<polygon fill="white" stroke="transparent" points="-4,4 -4,-220 1450.78,-220 1450.78,4 -4,4"/>
<!-- wrp.FallEntity -->
<g id="node1" class="node">
<title>wrp.FallEntity</title>
<ellipse fill="green" stroke="black" cx="761.49" cy="-18" rx="77.19" ry="18"/>
<text text-anchor="middle" x="761.49" y="-14.3" font-family="Times,serif" font-size="14.00">wrp.FallEntity</text>
</g>
<!-- rwrp.EntityEquipItemDrop -->
<g id="node2" class="node">
<title>rwrp.EntityEquipItemDrop</title>
<g id="a_node2"><a xlink:href="rwrp.EntityEquipItemDrop.svg" xlink:title="rwrp.EntityEquipItemDrop">
<ellipse fill="green" stroke="black" cx="136.49" cy="-198" rx="136.48" ry="18"/>
<text text-anchor="middle" x="136.49" y="-194.3" font-family="Times,serif" font-size="14.00">rwrp.EntityEquipItemDrop</text>
</a>
</g>
</g>
<!-- rwrp.EntityEquipItemDrop&#45;&gt;wrp.FallEntity -->
<g id="edge1" class="edge">
<title>rwrp.EntityEquipItemDrop&#45;&gt;wrp.FallEntity</title>
<path fill="none" stroke="black" d="M191.13,-181.44C308.88,-147.9 585.51,-69.12 704.94,-35.1"/>
<polygon fill="black" stroke="black" points="705.98,-38.45 714.64,-32.34 704.06,-31.72 705.98,-38.45"/>
<text text-anchor="middle" x="186.13" y="-170.24" font-family="Times,serif" font-size="14.00">1</text>
</g>
<!-- rwrp.EntityPrizeDrop -->
<g id="node3" class="node">
<title>rwrp.EntityPrizeDrop</title>
<g id="a_node3"><a xlink:href="rwrp.EntityPrizeDrop.svg" xlink:title="rwrp.EntityPrizeDrop">
<ellipse fill="green" stroke="black" cx="402.49" cy="-198" rx="111.58" ry="18"/>
<text text-anchor="middle" x="402.49" y="-194.3" font-family="Times,serif" font-size="14.00">rwrp.EntityPrizeDrop</text>
</a>
</g>
</g>
<!-- rwrp.EntityPrizeDrop&#45;&gt;wrp.FallEntity -->
<g id="edge2" class="edge">
<title>rwrp.EntityPrizeDrop&#45;&gt;wrp.FallEntity</title>
<path fill="none" stroke="black" d="M435.3,-180.73C501.15,-148.08 649.22,-74.67 720.98,-39.09"/>
<polygon fill="black" stroke="black" points="722.76,-42.11 730.17,-34.53 719.65,-35.84 722.76,-42.11"/>
<text text-anchor="middle" x="430.3" y="-169.53" font-family="Times,serif" font-size="14.00">2</text>
</g>
<!-- rwrp.func_8018EAB4 -->
<g id="node4" class="node">
<title>rwrp.func_8018EAB4</title>
<g id="a_node4"><a xlink:href="rwrp.func_8018EAB4.svg" xlink:title="rwrp.func_8018EAB4">
<ellipse fill="green" stroke="black" cx="642.49" cy="-198" rx="109.68" ry="18"/>
<text text-anchor="middle" x="642.49" y="-194.3" font-family="Times,serif" font-size="14.00">rwrp.func_8018EAB4</text>
</a>
</g>
</g>
<!-- rwrp.func_8018EAB4&#45;&gt;wrp.FallEntity -->
<g id="edge3" class="edge">
<title>rwrp.func_8018EAB4&#45;&gt;wrp.FallEntity</title>
<path fill="none" stroke="black" d="M653.9,-179.93C674.87,-148.57 719.64,-81.6 744.3,-44.71"/>
<polygon fill="black" stroke="black" points="747.46,-46.27 750.11,-36.02 741.64,-42.38 747.46,-46.27"/>
<text text-anchor="middle" x="648.9" y="-168.73" font-family="Times,serif" font-size="14.00">1</text>
</g>
<!-- rwrp.func_80191BCC -->
<g id="node5" class="node">
<title>rwrp.func_80191BCC</title>
<g id="a_node5"><a xlink:href="rwrp.func_80191BCC.svg" xlink:title="rwrp.func_80191BCC">
<ellipse fill="green" stroke="black" cx="880.49" cy="-198" rx="110.48" ry="18"/>
<text text-anchor="middle" x="880.49" y="-194.3" font-family="Times,serif" font-size="14.00">rwrp.func_80191BCC</text>
</a>
</g>
</g>
<!-- rwrp.func_80191BCC&#45;&gt;wrp.FallEntity -->
<g id="edge4" class="edge">
<title>rwrp.func_80191BCC&#45;&gt;wrp.FallEntity</title>
<path fill="none" stroke="black" d="M869.08,-179.93C848.11,-148.57 803.34,-81.6 778.67,-44.71"/>
<polygon fill="black" stroke="black" points="781.33,-42.38 772.86,-36.02 775.51,-46.27 781.33,-42.38"/>
<text text-anchor="middle" x="864.08" y="-168.73" font-family="Times,serif" font-size="14.00">1</text>
</g>
<!-- wrp.func_8018BA10 -->
<g id="node6" class="node">
<title>wrp.func_8018BA10</title>
<g id="a_node6"><a xlink:href="wrp.func_8018BA10.svg" xlink:title="wrp.func_8018BA10">
<ellipse fill="green" stroke="black" cx="1113.49" cy="-198" rx="104.78" ry="18"/>
<text text-anchor="middle" x="1113.49" y="-194.3" font-family="Times,serif" font-size="14.00">wrp.func_8018BA10</text>
</a>
</g>
</g>
<!-- wrp.func_8018BA10&#45;&gt;wrp.FallEntity -->
<g id="edge5" class="edge">
<title>wrp.func_8018BA10&#45;&gt;wrp.FallEntity</title>
<path fill="none" stroke="black" d="M1081.32,-180.73C1016.83,-148.12 871.93,-74.85 801.47,-39.22"/>
<polygon fill="black" stroke="black" points="802.95,-36.05 792.45,-34.66 799.79,-42.29 802.95,-36.05"/>
<text text-anchor="middle" x="1076.32" y="-169.53" font-family="Times,serif" font-size="14.00">1</text>
</g>
<!-- wrp.func_8018FC4C -->
<g id="node7" class="node">
<title>wrp.func_8018FC4C</title>
<g id="a_node7"><a xlink:href="wrp.func_8018FC4C.svg" xlink:title="wrp.func_8018FC4C">
<ellipse fill="green" stroke="black" cx="1341.49" cy="-198" rx="105.08" ry="18"/>
<text text-anchor="middle" x="1341.49" y="-194.3" font-family="Times,serif" font-size="14.00">wrp.func_8018FC4C</text>
</a>
</g>
</g>
<!-- wrp.func_8018FC4C&#45;&gt;wrp.FallEntity -->
<g id="edge6" class="edge">
<title>wrp.func_8018FC4C&#45;&gt;wrp.FallEntity</title>
<path fill="none" stroke="black" d="M1292.54,-181.98C1185.04,-148.99 928.96,-70.4 816.29,-35.82"/>
<polygon fill="black" stroke="black" points="817.07,-32.4 806.49,-32.81 815.02,-39.09 817.07,-32.4"/>
<text text-anchor="middle" x="1287.54" y="-170.78" font-family="Times,serif" font-size="14.00">1</text>
</g>
</g>
</svg>
