<?xml version="1.0" encoding="UTF-8" standalone="no"?>
<!DOCTYPE svg PUBLIC "-//W3C//DTD SVG 1.1//EN"
 "http://www.w3.org/Graphics/SVG/1.1/DTD/svg11.dtd">
<!-- Generated by graphviz version 2.43.0 (0)
 -->
<!-- Title: wrp.InitializeEntity Pages: 1 -->
<svg width="8019pt" height="224pt"
 viewBox="0.00 0.00 8018.53 224.00" xmlns="http://www.w3.org/2000/svg" xmlns:xlink="http://www.w3.org/1999/xlink">
<g id="graph0" class="graph" transform="scale(1 1) rotate(0) translate(4 220)">
<title>wrp.InitializeEntity</title>
<polygon fill="white" stroke="transparent" points="-4,4 -4,-220 8014.53,-220 8014.53,4 -4,4"/>
<!-- wrp.InitializeEntity -->
<g id="node1" class="node">
<title>wrp.InitializeEntity</title>
<ellipse fill="green" stroke="black" cx="4140.54" cy="-18" rx="100.98" ry="18"/>
<text text-anchor="middle" x="4140.54" y="-14.3" font-family="Times,serif" font-size="14.00">wrp.InitializeEntity</text>
</g>
<!-- rwrp.EntityBigRedFireball -->
<g id="node2" class="node">
<title>rwrp.EntityBigRedFireball</title>
<g id="a_node2"><a xlink:href="rwrp.EntityBigRedFireball.svg" xlink:title="rwrp.EntityBigRedFireball">
<ellipse fill="green" stroke="black" cx="134.54" cy="-198" rx="134.58" ry="18"/>
<text text-anchor="middle" x="134.54" y="-194.3" font-family="Times,serif" font-size="14.00">rwrp.EntityBigRedFireball</text>
</a>
</g>
</g>
<!-- rwrp.EntityBigRedFireball&#45;&gt;wrp.InitializeEntity -->
<g id="edge1" class="edge">
<title>rwrp.EntityBigRedFireball&#45;&gt;wrp.InitializeEntity</title>
<path fill="none" stroke="black" d="M227.78,-184.95C244.65,-183.06 262.1,-181.31 278.54,-180 1760.65,-61.79 3570.1,-27.6 4030.13,-20.54"/>
<polygon fill="black" stroke="black" points="4030.47,-24.03 4040.42,-20.38 4030.36,-17.04 4030.47,-24.03"/>
<text text-anchor="middle" x="222.78" y="-173.75" font-family="Times,serif" font-size="14.00">1</text>
</g>
<!-- rwrp.EntityEquipItemDrop -->
<g id="node3" class="node">
<title>rwrp.EntityEquipItemDrop</title>
<g id="a_node3"><a xlink:href="rwrp.EntityEquipItemDrop.svg" xlink:title="rwrp.EntityEquipItemDrop">
<ellipse fill="green" stroke="black" cx="423.54" cy="-198" rx="136.48" ry="18"/>
<text text-anchor="middle" x="423.54" y="-194.3" font-family="Times,serif" font-size="14.00">rwrp.EntityEquipItemDrop</text>
</a>
</g>
</g>
<!-- rwrp.EntityEquipItemDrop&#45;&gt;wrp.InitializeEntity -->
<g id="edge2" class="edge">
<title>rwrp.EntityEquipItemDrop&#45;&gt;wrp.InitializeEntity</title>
<path fill="none" stroke="black" d="M518.08,-185C535.18,-183.11 552.88,-181.34 569.54,-180 1932.07,-70.1 3593.57,-30.13 4030.87,-21.11"/>
<polygon fill="black" stroke="black" points="4031.04,-24.61 4040.97,-20.9 4030.9,-17.61 4031.04,-24.61"/>
<text text-anchor="middle" x="513.08" y="-173.8" font-family="Times,serif" font-size="14.00">1</text>
</g>
<!-- rwrp.EntityExplosion -->
<g id="node4" class="node">
<title>rwrp.EntityExplosion</title>
<g id="a_node4"><a xlink:href="rwrp.EntityExplosion.svg" xlink:title="rwrp.EntityExplosion">
<ellipse fill="green" stroke="black" cx="688.54" cy="-198" rx="110.48" ry="18"/>
<text text-anchor="middle" x="688.54" y="-194.3" font-family="Times,serif" font-size="14.00">rwrp.EntityExplosion</text>
</a>
</g>
</g>
<!-- rwrp.EntityExplosion&#45;&gt;wrp.InitializeEntity -->
<g id="edge3" class="edge">
<title>rwrp.EntityExplosion&#45;&gt;wrp.InitializeEntity</title>
<path fill="none" stroke="black" d="M765.23,-184.97C779.28,-183.07 793.83,-181.31 807.54,-180 2070,-59.6 3610.52,-27.38 4030.42,-20.58"/>
<polygon fill="black" stroke="black" points="4030.49,-24.08 4040.43,-20.42 4030.37,-17.08 4030.49,-24.08"/>
<text text-anchor="middle" x="760.23" y="-173.77" font-family="Times,serif" font-size="14.00">1</text>
</g>
<!-- rwrp.EntityIntenseExplosion -->
<g id="node5" class="node">
<title>rwrp.EntityIntenseExplosion</title>
<g id="a_node5"><a xlink:href="rwrp.EntityIntenseExplosion.svg" xlink:title="rwrp.EntityIntenseExplosion">
<ellipse fill="green" stroke="black" cx="961.54" cy="-198" rx="144.87" ry="18"/>
<text text-anchor="middle" x="961.54" y="-194.3" font-family="Times,serif" font-size="14.00">rwrp.EntityIntenseExplosion</text>
</a>
</g>
</g>
<!-- rwrp.EntityIntenseExplosion&#45;&gt;wrp.InitializeEntity -->
<g id="edge4" class="edge">
<title>rwrp.EntityIntenseExplosion&#45;&gt;wrp.InitializeEntity</title>
<path fill="none" stroke="black" d="M1062.52,-185.02C1080.18,-183.17 1098.38,-181.4 1115.54,-180 2254.68,-86.89 3639.75,-35.84 4032.26,-22.54"/>
<polygon fill="black" stroke="black" points="4032.59,-26.03 4042.47,-22.19 4032.36,-19.03 4032.59,-26.03"/>
<text text-anchor="middle" x="1057.52" y="-173.82" font-family="Times,serif" font-size="14.00">1</text>
</g>
<!-- rwrp.EntityMessageBox -->
<g id="node6" class="node">
<title>rwrp.EntityMessageBox</title>
<g id="a_node6"><a xlink:href="rwrp.EntityMessageBox.svg" xlink:title="rwrp.EntityMessageBox">
<ellipse fill="green" stroke="black" cx="1247.54" cy="-198" rx="123.48" ry="18"/>
<text text-anchor="middle" x="1247.54" y="-194.3" font-family="Times,serif" font-size="14.00">rwrp.EntityMessageBox</text>
</a>
</g>
</g>
<!-- rwrp.EntityMessageBox&#45;&gt;wrp.InitializeEntity -->
<g id="edge5" class="edge">
<title>rwrp.EntityMessageBox&#45;&gt;wrp.InitializeEntity</title>
<path fill="none" stroke="black" d="M1333.71,-185.02C1348.96,-183.15 1364.7,-181.39 1379.54,-180 2409.7,-83.75 3661.81,-35.46 4032.36,-22.59"/>
<polygon fill="black" stroke="black" points="4032.66,-26.08 4042.53,-22.24 4032.42,-19.08 4032.66,-26.08"/>
<text text-anchor="middle" x="1328.71" y="-173.82" font-family="Times,serif" font-size="14.00">1</text>
</g>
<!-- rwrp.EntityOlroxDrool -->
<g id="node7" class="node">
<title>rwrp.EntityOlroxDrool</title>
<g id="a_node7"><a xlink:href="rwrp.EntityOlroxDrool.svg" xlink:title="rwrp.EntityOlroxDrool">
<ellipse fill="green" stroke="black" cx="1504.54" cy="-198" rx="115.88" ry="18"/>
<text text-anchor="middle" x="1504.54" y="-194.3" font-family="Times,serif" font-size="14.00">rwrp.EntityOlroxDrool</text>
</a>
</g>
</g>
<!-- rwrp.EntityOlroxDrool&#45;&gt;wrp.InitializeEntity -->
<g id="edge6" class="edge">
<title>rwrp.EntityOlroxDrool&#45;&gt;wrp.InitializeEntity</title>
<path fill="none" stroke="black" d="M1585.48,-185.05C1599.8,-183.18 1614.59,-181.4 1628.54,-180 2557.23,-86.7 3684.8,-37.02 4032.98,-23.11"/>
<polygon fill="black" stroke="black" points="4033.2,-26.61 4043.05,-22.71 4032.92,-19.61 4033.2,-26.61"/>
<text text-anchor="middle" x="1580.48" y="-173.85" font-family="Times,serif" font-size="14.00">1</text>
</g>
<!-- rwrp.EntityPrizeDrop -->
<g id="node8" class="node">
<title>rwrp.EntityPrizeDrop</title>
<g id="a_node8"><a xlink:href="rwrp.EntityPrizeDrop.svg" xlink:title="rwrp.EntityPrizeDrop">
<ellipse fill="green" stroke="black" cx="1749.54" cy="-198" rx="111.58" ry="18"/>
<text text-anchor="middle" x="1749.54" y="-194.3" font-family="Times,serif" font-size="14.00">rwrp.EntityPrizeDrop</text>
</a>
</g>
</g>
<!-- rwrp.EntityPrizeDrop&#45;&gt;wrp.InitializeEntity -->
<g id="edge7" class="edge">
<title>rwrp.EntityPrizeDrop&#45;&gt;wrp.InitializeEntity</title>
<path fill="none" stroke="black" d="M1828.2,-185.15C1842.28,-183.26 1856.83,-181.45 1870.54,-180 2701.59,-92.25 3709,-39.6 4034.01,-23.95"/>
<polygon fill="black" stroke="black" points="4034.54,-27.43 4044.36,-23.45 4034.2,-20.43 4034.54,-27.43"/>
<text text-anchor="middle" x="1823.2" y="-173.95" font-family="Times,serif" font-size="14.00">1</text>
</g>
<!-- rwrp.EntityRWarpRoom -->
<g id="node9" class="node">
<title>rwrp.EntityRWarpRoom</title>
<g id="a_node9"><a xlink:href="rwrp.EntityRWarpRoom.svg" xlink:title="rwrp.EntityRWarpRoom">
<ellipse fill="red" stroke="black" cx="2001.54" cy="-198" rx="122.38" ry="18"/>
<text text-anchor="middle" x="2001.54" y="-194.3" font-family="Times,serif" font-size="14.00">rwrp.EntityRWarpRoom</text>
</a>
</g>
</g>
<!-- rwrp.EntityRWarpRoom&#45;&gt;wrp.InitializeEntity -->
<g id="edge8" class="edge">
<title>rwrp.EntityRWarpRoom&#45;&gt;wrp.InitializeEntity</title>
<path fill="none" stroke="black" d="M2087.79,-185.2C2102.7,-183.33 2118.05,-181.52 2132.54,-180 2860.42,-103.64 3740.09,-44.54 4037,-25.5"/>
<polygon fill="black" stroke="black" points="4037.55,-28.97 4047.31,-24.84 4037.11,-21.99 4037.55,-28.97"/>
<text text-anchor="middle" x="2082.79" y="-174" font-family="Times,serif" font-size="14.00">1</text>
</g>
<!-- rwrp.EntityRelicOrb -->
<g id="node10" class="node">
<title>rwrp.EntityRelicOrb</title>
<g id="a_node10"><a xlink:href="rwrp.EntityRelicOrb.svg" xlink:title="rwrp.EntityRelicOrb">
<ellipse fill="green" stroke="black" cx="2246.54" cy="-198" rx="105.08" ry="18"/>
<text text-anchor="middle" x="2246.54" y="-194.3" font-family="Times,serif" font-size="14.00">rwrp.EntityRelicOrb</text>
</a>
</g>
</g>
<!-- rwrp.EntityRelicOrb&#45;&gt;wrp.InitializeEntity -->
<g id="edge9" class="edge">
<title>rwrp.EntityRelicOrb&#45;&gt;wrp.InitializeEntity</title>
<path fill="none" stroke="black" d="M2321.27,-185.22C2334.34,-183.35 2347.82,-181.52 2360.54,-180 2997.03,-103.82 3765.46,-45.74 4038.35,-26.16"/>
<polygon fill="black" stroke="black" points="4038.91,-29.63 4048.63,-25.43 4038.41,-22.65 4038.91,-29.63"/>
<text text-anchor="middle" x="2316.27" y="-174.02" font-family="Times,serif" font-size="14.00">1</text>
</g>
<!-- rwrp.EntityRoomForeground -->
<g id="node11" class="node">
<title>rwrp.EntityRoomForeground</title>
<g id="a_node11"><a xlink:href="rwrp.EntityRoomForeground.svg" xlink:title="rwrp.EntityRoomForeground">
<ellipse fill="green" stroke="black" cx="2515.54" cy="-198" rx="145.67" ry="18"/>
<text text-anchor="middle" x="2515.54" y="-194.3" font-family="Times,serif" font-size="14.00">rwrp.EntityRoomForeground</text>
</a>
</g>
</g>
<!-- rwrp.EntityRoomForeground&#45;&gt;wrp.InitializeEntity -->
<g id="edge10" class="edge">
<title>rwrp.EntityRoomForeground&#45;&gt;wrp.InitializeEntity</title>
<path fill="none" stroke="black" d="M2620.33,-185.42C2636.8,-183.6 2653.63,-181.75 2669.54,-180 3189.78,-122.82 3813.57,-54.69 4046.64,-29.25"/>
<polygon fill="black" stroke="black" points="4047.22,-32.7 4056.78,-28.14 4046.46,-25.75 4047.22,-32.7"/>
<text text-anchor="middle" x="2615.33" y="-174.22" font-family="Times,serif" font-size="14.00">1</text>
</g>
<!-- rwrp.EntityStageNamePopup -->
<g id="node12" class="node">
<title>rwrp.EntityStageNamePopup</title>
<g id="a_node12"><a xlink:href="rwrp.EntityStageNamePopup.svg" xlink:title="rwrp.EntityStageNamePopup">
<ellipse fill="green" stroke="black" cx="2826.54" cy="-198" rx="147.57" ry="18"/>
<text text-anchor="middle" x="2826.54" y="-194.3" font-family="Times,serif" font-size="14.00">rwrp.EntityStageNamePopup</text>
</a>
</g>
</g>
<!-- rwrp.EntityStageNamePopup&#45;&gt;wrp.InitializeEntity -->
<g id="edge11" class="edge">
<title>rwrp.EntityStageNamePopup&#45;&gt;wrp.InitializeEntity</title>
<path fill="none" stroke="black" d="M2921.3,-184.16C3166.04,-151.01 3816.6,-62.88 4053.06,-30.85"/>
<polygon fill="black" stroke="black" points="4053.56,-34.32 4062.99,-29.5 4052.62,-27.38 4053.56,-34.32"/>
<text text-anchor="middle" x="2916.3" y="-172.96" font-family="Times,serif" font-size="14.00">1</text>
</g>
<!-- rwrp.EntityUnkId13 -->
<g id="node13" class="node">
<title>rwrp.EntityUnkId13</title>
<g id="a_node13"><a xlink:href="rwrp.EntityUnkId13.svg" xlink:title="rwrp.EntityUnkId13">
<ellipse fill="green" stroke="black" cx="3096.54" cy="-198" rx="104.78" ry="18"/>
<text text-anchor="middle" x="3096.54" y="-194.3" font-family="Times,serif" font-size="14.00">rwrp.EntityUnkId13</text>
</a>
</g>
</g>
<!-- rwrp.EntityUnkId13&#45;&gt;wrp.InitializeEntity -->
<g id="edge12" class="edge">
<title>rwrp.EntityUnkId13&#45;&gt;wrp.InitializeEntity</title>
<path fill="none" stroke="black" d="M3168.3,-184.77C3356.44,-152.69 3863.03,-66.32 4060.34,-32.67"/>
<polygon fill="black" stroke="black" points="4061.07,-36.1 4070.34,-30.97 4059.9,-29.2 4061.07,-36.1"/>
<text text-anchor="middle" x="3163.3" y="-173.57" font-family="Times,serif" font-size="14.00">1</text>
</g>
<!-- rwrp.EntityWarpSmallRocks -->
<g id="node14" class="node">
<title>rwrp.EntityWarpSmallRocks</title>
<g id="a_node14"><a xlink:href="rwrp.EntityWarpSmallRocks.svg" xlink:title="rwrp.EntityWarpSmallRocks">
<ellipse fill="green" stroke="black" cx="3362.54" cy="-198" rx="142.97" ry="18"/>
<text text-anchor="middle" x="3362.54" y="-194.3" font-family="Times,serif" font-size="14.00">rwrp.EntityWarpSmallRocks</text>
</a>
</g>
</g>
<!-- rwrp.EntityWarpSmallRocks&#45;&gt;wrp.InitializeEntity -->
<g id="edge13" class="edge">
<title>rwrp.EntityWarpSmallRocks&#45;&gt;wrp.InitializeEntity</title>
<path fill="none" stroke="black" d="M3428.2,-181.98C3573.77,-148.67 3922.46,-68.89 4071.3,-34.84"/>
<polygon fill="black" stroke="black" points="4072.27,-38.21 4081.24,-32.57 4070.71,-31.39 4072.27,-38.21"/>
<text text-anchor="middle" x="3423.2" y="-170.78" font-family="Times,serif" font-size="14.00">1</text>
</g>
<!-- rwrp.func_80192348 -->
<g id="node15" class="node">
<title>rwrp.func_80192348</title>
<g id="a_node15"><a xlink:href="rwrp.func_80192348.svg" xlink:title="rwrp.func_80192348">
<ellipse fill="green" stroke="black" cx="3630.54" cy="-198" rx="107.48" ry="18"/>
<text text-anchor="middle" x="3630.54" y="-194.3" font-family="Times,serif" font-size="14.00">rwrp.func_80192348</text>
</a>
</g>
</g>
<!-- rwrp.func_80192348&#45;&gt;wrp.InitializeEntity -->
<g id="edge14" class="edge">
<title>rwrp.func_80192348&#45;&gt;wrp.InitializeEntity</title>
<path fill="none" stroke="black" d="M3674.91,-181.52C3768.48,-148.85 3985.76,-73.02 4086.93,-37.71"/>
<polygon fill="black" stroke="black" points="4088.35,-40.92 4096.64,-34.32 4086.04,-34.31 4088.35,-40.92"/>
<text text-anchor="middle" x="3669.91" y="-170.32" font-family="Times,serif" font-size="14.00">1</text>
</g>
<!-- wrp.EntityBigRedFireball -->
<g id="node16" class="node">
<title>wrp.EntityBigRedFireball</title>
<g id="a_node16"><a xlink:href="wrp.EntityBigRedFireball.svg" xlink:title="wrp.EntityBigRedFireball">
<ellipse fill="green" stroke="black" cx="3885.54" cy="-198" rx="129.98" ry="18"/>
<text text-anchor="middle" x="3885.54" y="-194.3" font-family="Times,serif" font-size="14.00">wrp.EntityBigRedFireball</text>
</a>
</g>
</g>
<!-- wrp.EntityBigRedFireball&#45;&gt;wrp.InitializeEntity -->
<g id="edge15" class="edge">
<title>wrp.EntityBigRedFireball&#45;&gt;wrp.InitializeEntity</title>
<path fill="none" stroke="black" d="M3909.53,-180.25C3955.59,-148.1 4056.43,-77.71 4108.31,-41.5"/>
<polygon fill="black" stroke="black" points="4110.6,-44.17 4116.8,-35.57 4106.59,-38.43 4110.6,-44.17"/>
<text text-anchor="middle" x="3904.53" y="-169.05" font-family="Times,serif" font-size="14.00">1</text>
</g>
<!-- wrp.EntityBreakable -->
<g id="node17" class="node">
<title>wrp.EntityBreakable</title>
<g id="a_node17"><a xlink:href="wrp.EntityBreakable.svg" xlink:title="wrp.EntityBreakable">
<ellipse fill="green" stroke="black" cx="4140.54" cy="-198" rx="107.48" ry="18"/>
<text text-anchor="middle" x="4140.54" y="-194.3" font-family="Times,serif" font-size="14.00">wrp.EntityBreakable</text>
</a>
</g>
</g>
<!-- wrp.EntityBreakable&#45;&gt;wrp.InitializeEntity -->
<g id="edge16" class="edge">
<title>wrp.EntityBreakable&#45;&gt;wrp.InitializeEntity</title>
<path fill="none" stroke="black" d="M4140.54,-179.93C4140.54,-148.97 4140.54,-83.3 4140.54,-46.13"/>
<polygon fill="black" stroke="black" points="4144.04,-46.02 4140.54,-36.02 4137.04,-46.02 4144.04,-46.02"/>
<text text-anchor="middle" x="4135.54" y="-168.73" font-family="Times,serif" font-size="14.00">1</text>
</g>
<!-- wrp.EntityDamageDisplay -->
<g id="node18" class="node">
<title>wrp.EntityDamageDisplay</title>
<g id="a_node18"><a xlink:href="wrp.EntityDamageDisplay.svg" xlink:title="wrp.EntityDamageDisplay">
<ellipse fill="green" stroke="black" cx="4398.54" cy="-198" rx="133.48" ry="18"/>
<text text-anchor="middle" x="4398.54" y="-194.3" font-family="Times,serif" font-size="14.00">wrp.EntityDamageDisplay</text>
</a>
</g>
</g>
<!-- wrp.EntityDamageDisplay&#45;&gt;wrp.InitializeEntity -->
<g id="edge17" class="edge">
<title>wrp.EntityDamageDisplay&#45;&gt;wrp.InitializeEntity</title>
<path fill="none" stroke="black" d="M4374.27,-180.25C4327.57,-148.04 4225.21,-77.42 4172.82,-41.27"/>
<polygon fill="black" stroke="black" points="4174.78,-38.37 4164.56,-35.57 4170.8,-44.13 4174.78,-38.37"/>
<text text-anchor="middle" x="4369.27" y="-169.05" font-family="Times,serif" font-size="14.00">1</text>
</g>
<!-- wrp.EntityEnemyBlood -->
<g id="node19" class="node">
<title>wrp.EntityEnemyBlood</title>
<g id="a_node19"><a xlink:href="wrp.EntityEnemyBlood.svg" xlink:title="wrp.EntityEnemyBlood">
<ellipse fill="green" stroke="black" cx="4668.54" cy="-198" rx="118.88" ry="18"/>
<text text-anchor="middle" x="4668.54" y="-194.3" font-family="Times,serif" font-size="14.00">wrp.EntityEnemyBlood</text>
</a>
</g>
</g>
<!-- wrp.EntityEnemyBlood&#45;&gt;wrp.InitializeEntity -->
<g id="edge18" class="edge">
<title>wrp.EntityEnemyBlood&#45;&gt;wrp.InitializeEntity</title>
<path fill="none" stroke="black" d="M4622.14,-181.36C4524.75,-148.53 4299.42,-72.56 4195.21,-37.43"/>
<polygon fill="black" stroke="black" points="4196.11,-34.04 4185.51,-34.16 4193.87,-40.67 4196.11,-34.04"/>
<text text-anchor="middle" x="4617.14" y="-170.16" font-family="Times,serif" font-size="14.00">1</text>
</g>
<!-- wrp.EntityIntenseExplosion -->
<g id="node20" class="node">
<title>wrp.EntityIntenseExplosion</title>
<g id="a_node20"><a xlink:href="wrp.EntityIntenseExplosion.svg" xlink:title="wrp.EntityIntenseExplosion">
<ellipse fill="green" stroke="black" cx="4945.54" cy="-198" rx="140.28" ry="18"/>
<text text-anchor="middle" x="4945.54" y="-194.3" font-family="Times,serif" font-size="14.00">wrp.EntityIntenseExplosion</text>
</a>
</g>
</g>
<!-- wrp.EntityIntenseExplosion&#45;&gt;wrp.InitializeEntity -->
<g id="edge19" class="edge">
<title>wrp.EntityIntenseExplosion&#45;&gt;wrp.InitializeEntity</title>
<path fill="none" stroke="black" d="M4878.29,-182.13C4727.7,-148.83 4364.61,-68.55 4211.03,-34.59"/>
<polygon fill="black" stroke="black" points="4211.74,-31.16 4201.22,-32.42 4210.23,-37.99 4211.74,-31.16"/>
<text text-anchor="middle" x="4873.29" y="-170.93" font-family="Times,serif" font-size="14.00">1</text>
</g>
<!-- wrp.EntityMessageBox -->
<g id="node21" class="node">
<title>wrp.EntityMessageBox</title>
<g id="a_node21"><a xlink:href="wrp.EntityMessageBox.svg" xlink:title="wrp.EntityMessageBox">
<ellipse fill="green" stroke="black" cx="5222.54" cy="-198" rx="118.88" ry="18"/>
<text text-anchor="middle" x="5222.54" y="-194.3" font-family="Times,serif" font-size="14.00">wrp.EntityMessageBox</text>
</a>
</g>
</g>
<!-- wrp.EntityMessageBox&#45;&gt;wrp.InitializeEntity -->
<g id="edge20" class="edge">
<title>wrp.EntityMessageBox&#45;&gt;wrp.InitializeEntity</title>
<path fill="none" stroke="black" d="M5145.16,-184.27C4947.29,-151.72 4424.25,-65.67 4221.99,-32.4"/>
<polygon fill="black" stroke="black" points="4222.46,-28.93 4212.03,-30.76 4221.33,-35.84 4222.46,-28.93"/>
<text text-anchor="middle" x="5140.16" y="-173.07" font-family="Times,serif" font-size="14.00">1</text>
</g>
<!-- wrp.EntityOlroxDrool -->
<g id="node22" class="node">
<title>wrp.EntityOlroxDrool</title>
<g id="a_node22"><a xlink:href="wrp.EntityOlroxDrool.svg" xlink:title="wrp.EntityOlroxDrool">
<ellipse fill="green" stroke="black" cx="5470.54" cy="-198" rx="111.28" ry="18"/>
<text text-anchor="middle" x="5470.54" y="-194.3" font-family="Times,serif" font-size="14.00">wrp.EntityOlroxDrool</text>
</a>
</g>
</g>
<!-- wrp.EntityOlroxDrool&#45;&gt;wrp.InitializeEntity -->
<g id="edge21" class="edge">
<title>wrp.EntityOlroxDrool&#45;&gt;wrp.InitializeEntity</title>
<path fill="none" stroke="black" d="M5390.19,-185.52C5376.94,-183.66 5363.36,-181.76 5350.54,-180 4931.37,-122.42 4430.05,-56.73 4229.67,-30.6"/>
<polygon fill="black" stroke="black" points="4229.86,-27.09 4219.49,-29.27 4228.96,-34.03 4229.86,-27.09"/>
<text text-anchor="middle" x="5385.19" y="-174.32" font-family="Times,serif" font-size="14.00">1</text>
</g>
<!-- wrp.EntityRedDoor -->
<g id="node23" class="node">
<title>wrp.EntityRedDoor</title>
<g id="a_node23"><a xlink:href="wrp.EntityRedDoor.svg" xlink:title="wrp.EntityRedDoor">
<ellipse fill="green" stroke="black" cx="5700.54" cy="-198" rx="100.98" ry="18"/>
<text text-anchor="middle" x="5700.54" y="-194.3" font-family="Times,serif" font-size="14.00">wrp.EntityRedDoor</text>
</a>
</g>
</g>
<!-- wrp.EntityRedDoor&#45;&gt;wrp.InitializeEntity -->
<g id="edge22" class="edge">
<title>wrp.EntityRedDoor&#45;&gt;wrp.InitializeEntity</title>
<path fill="none" stroke="black" d="M5628.41,-185.4C5615.8,-183.5 5602.8,-181.63 5590.54,-180 5081.82,-112.48 4470.07,-50.99 4237.05,-28.28"/>
<polygon fill="black" stroke="black" points="4237.2,-24.77 4226.91,-27.29 4236.52,-31.74 4237.2,-24.77"/>
<text text-anchor="middle" x="5623.41" y="-174.2" font-family="Times,serif" font-size="14.00">1</text>
</g>
<!-- wrp.EntityRelicOrb -->
<g id="node24" class="node">
<title>wrp.EntityRelicOrb</title>
<g id="a_node24"><a xlink:href="wrp.EntityRelicOrb.svg" xlink:title="wrp.EntityRelicOrb">
<ellipse fill="green" stroke="black" cx="5919.54" cy="-198" rx="100.98" ry="18"/>
<text text-anchor="middle" x="5919.54" y="-194.3" font-family="Times,serif" font-size="14.00">wrp.EntityRelicOrb</text>
</a>
</g>
</g>
<!-- wrp.EntityRelicOrb&#45;&gt;wrp.InitializeEntity -->
<g id="edge23" class="edge">
<title>wrp.EntityRelicOrb&#45;&gt;wrp.InitializeEntity</title>
<path fill="none" stroke="black" d="M5848.09,-185.24C5835.59,-183.36 5822.7,-181.53 5810.54,-180 5217.37,-105.22 4501.81,-46.85 4241.45,-26.65"/>
<polygon fill="black" stroke="black" points="4241.5,-23.15 4231.26,-25.87 4240.96,-30.13 4241.5,-23.15"/>
<text text-anchor="middle" x="5843.09" y="-174.04" font-family="Times,serif" font-size="14.00">1</text>
</g>
<!-- wrp.EntityRoomForeground -->
<g id="node25" class="node">
<title>wrp.EntityRoomForeground</title>
<g id="a_node25"><a xlink:href="wrp.EntityRoomForeground.svg" xlink:title="wrp.EntityRoomForeground">
<ellipse fill="green" stroke="black" cx="6179.54" cy="-198" rx="141.07" ry="18"/>
<text text-anchor="middle" x="6179.54" y="-194.3" font-family="Times,serif" font-size="14.00">wrp.EntityRoomForeground</text>
</a>
</g>
</g>
<!-- wrp.EntityRoomForeground&#45;&gt;wrp.InitializeEntity -->
<g id="edge24" class="edge">
<title>wrp.EntityRoomForeground&#45;&gt;wrp.InitializeEntity</title>
<path fill="none" stroke="black" d="M6079.53,-185.27C6062.84,-183.43 6045.71,-181.61 6029.54,-180 5347.29,-112.28 4524.65,-48.17 4241.78,-26.63"/>
<polygon fill="black" stroke="black" points="4241.78,-23.12 4231.55,-25.85 4241.25,-30.1 4241.78,-23.12"/>
<text text-anchor="middle" x="6074.53" y="-174.07" font-family="Times,serif" font-size="14.00">1</text>
</g>
<!-- wrp.EntitySoulStealOrb -->
<g id="node26" class="node">
<title>wrp.EntitySoulStealOrb</title>
<g id="a_node26"><a xlink:href="wrp.EntitySoulStealOrb.svg" xlink:title="wrp.EntitySoulStealOrb">
<ellipse fill="green" stroke="black" cx="6460.54" cy="-198" rx="122.38" ry="18"/>
<text text-anchor="middle" x="6460.54" y="-194.3" font-family="Times,serif" font-size="14.00">wrp.EntitySoulStealOrb</text>
</a>
</g>
</g>
<!-- wrp.EntitySoulStealOrb&#45;&gt;wrp.InitializeEntity -->
<g id="edge25" class="edge">
<title>wrp.EntitySoulStealOrb&#45;&gt;wrp.InitializeEntity</title>
<path fill="none" stroke="black" d="M6374.65,-185.16C6359.63,-183.29 6344.14,-181.48 6329.54,-180 5529.54,-98.74 4561.05,-42.05 4245.43,-24.64"/>
<polygon fill="black" stroke="black" points="4245.56,-21.14 4235.38,-24.08 4245.17,-28.13 4245.56,-21.14"/>
<text text-anchor="middle" x="6369.65" y="-173.96" font-family="Times,serif" font-size="14.00">1</text>
</g>
<!-- wrp.EntityUnkId12 -->
<g id="node27" class="node">
<title>wrp.EntityUnkId12</title>
<g id="a_node27"><a xlink:href="wrp.EntityUnkId12.svg" xlink:title="wrp.EntityUnkId12">
<ellipse fill="green" stroke="black" cx="6701.54" cy="-198" rx="100.98" ry="18"/>
<text text-anchor="middle" x="6701.54" y="-194.3" font-family="Times,serif" font-size="14.00">wrp.EntityUnkId12</text>
</a>
</g>
</g>
<!-- wrp.EntityUnkId12&#45;&gt;wrp.InitializeEntity -->
<g id="edge26" class="edge">
<title>wrp.EntityUnkId12&#45;&gt;wrp.InitializeEntity</title>
<path fill="none" stroke="black" d="M6630.95,-185.15C6617.87,-183.23 6604.31,-181.4 6591.54,-180 5689.04,-80.81 4592.39,-35.25 4248.78,-22.72"/>
<polygon fill="black" stroke="black" points="4248.71,-19.21 4238.59,-22.35 4248.45,-26.21 4248.71,-19.21"/>
<text text-anchor="middle" x="6625.95" y="-173.95" font-family="Times,serif" font-size="14.00">1</text>
</g>
<!-- wrp.EntityUnkId13 -->
<g id="node28" class="node">
<title>wrp.EntityUnkId13</title>
<g id="a_node28"><a xlink:href="wrp.EntityUnkId13.svg" xlink:title="wrp.EntityUnkId13">
<ellipse fill="green" stroke="black" cx="6920.54" cy="-198" rx="100.98" ry="18"/>
<text text-anchor="middle" x="6920.54" y="-194.3" font-family="Times,serif" font-size="14.00">wrp.EntityUnkId13</text>
</a>
</g>
</g>
<!-- wrp.EntityUnkId13&#45;&gt;wrp.InitializeEntity -->
<g id="edge27" class="edge">
<title>wrp.EntityUnkId13&#45;&gt;wrp.InitializeEntity</title>
<path fill="none" stroke="black" d="M6850.31,-185.05C6837.44,-183.14 6824.11,-181.36 6811.54,-180 5819.99,-73.04 4613.13,-32.25 4249.35,-21.87"/>
<polygon fill="black" stroke="black" points="4249.45,-18.37 4239.35,-21.59 4249.25,-25.37 4249.45,-18.37"/>
<text text-anchor="middle" x="6845.31" y="-173.85" font-family="Times,serif" font-size="14.00">1</text>
</g>
<!-- wrp.EntityWarpRoom -->
<g id="node29" class="node">
<title>wrp.EntityWarpRoom</title>
<g id="a_node29"><a xlink:href="wrp.EntityWarpRoom.svg" xlink:title="wrp.EntityWarpRoom">
<ellipse fill="green" stroke="black" cx="7150.54" cy="-198" rx="111.28" ry="18"/>
<text text-anchor="middle" x="7150.54" y="-194.3" font-family="Times,serif" font-size="14.00">wrp.EntityWarpRoom</text>
</a>
</g>
</g>
<!-- wrp.EntityWarpRoom&#45;&gt;wrp.InitializeEntity -->
<g id="edge28" class="edge">
<title>wrp.EntityWarpRoom&#45;&gt;wrp.InitializeEntity</title>
<path fill="none" stroke="black" d="M7073.19,-185.06C7059.03,-183.15 7044.36,-181.36 7030.54,-180 5949.25,-73.48 4632.91,-32.05 4249.89,-21.74"/>
<polygon fill="black" stroke="black" points="4249.74,-18.23 4239.65,-21.46 4249.55,-25.23 4249.74,-18.23"/>
<text text-anchor="middle" x="7068.19" y="-173.86" font-family="Times,serif" font-size="14.00">1</text>
</g>
<!-- wrp.EntityWarpSmallRocks -->
<g id="node30" class="node">
<title>wrp.EntityWarpSmallRocks</title>
<g id="a_node30"><a xlink:href="wrp.EntityWarpSmallRocks.svg" xlink:title="wrp.EntityWarpSmallRocks">
<ellipse fill="green" stroke="black" cx="7418.54" cy="-198" rx="138.38" ry="18"/>
<text text-anchor="middle" x="7418.54" y="-194.3" font-family="Times,serif" font-size="14.00">wrp.EntityWarpSmallRocks</text>
</a>
</g>
</g>
<!-- wrp.EntityWarpSmallRocks&#45;&gt;wrp.InitializeEntity -->
<g id="edge29" class="edge">
<title>wrp.EntityWarpSmallRocks&#45;&gt;wrp.InitializeEntity</title>
<path fill="none" stroke="black" d="M7322.29,-185.06C7305.08,-183.17 7287.29,-181.39 7270.54,-180 6088.78,-81.83 4650.72,-34.13 4249.18,-22.11"/>
<polygon fill="black" stroke="black" points="4249.13,-18.61 4239.03,-21.81 4248.93,-25.6 4249.13,-18.61"/>
<text text-anchor="middle" x="7317.29" y="-173.86" font-family="Times,serif" font-size="14.00">1</text>
</g>
<!-- wrp.func_80186FD0 -->
<g id="node31" class="node">
<title>wrp.func_80186FD0</title>
<g id="a_node31"><a xlink:href="wrp.func_80186FD0.svg" xlink:title="wrp.func_80186FD0">
<ellipse fill="green" stroke="black" cx="7679.54" cy="-198" rx="104.78" ry="18"/>
<text text-anchor="middle" x="7679.54" y="-194.3" font-family="Times,serif" font-size="14.00">wrp.func_80186FD0</text>
</a>
</g>
</g>
<!-- wrp.func_80186FD0&#45;&gt;wrp.InitializeEntity -->
<g id="edge30" class="edge">
<title>wrp.func_80186FD0&#45;&gt;wrp.InitializeEntity</title>
<path fill="none" stroke="black" d="M7606.7,-185.02C7593.05,-183.09 7578.88,-181.31 7565.54,-180 6266.04,-52.89 4679.01,-25.41 4251.17,-20.14"/>
<polygon fill="black" stroke="black" points="4251.01,-16.64 4240.97,-20.02 4250.93,-23.64 4251.01,-16.64"/>
<text text-anchor="middle" x="7601.7" y="-173.82" font-family="Times,serif" font-size="14.00">1</text>
</g>
<!-- wrp.func_801903C8 -->
<g id="node32" class="node">
<title>wrp.func_801903C8</title>
<g id="a_node32"><a xlink:href="wrp.func_801903C8.svg" xlink:title="wrp.func_801903C8">
<ellipse fill="green" stroke="black" cx="7906.54" cy="-198" rx="103.98" ry="18"/>
<text text-anchor="middle" x="7906.54" y="-194.3" font-family="Times,serif" font-size="14.00">wrp.func_801903C8</text>
</a>
</g>
</g>
<!-- wrp.func_801903C8&#45;&gt;wrp.InitializeEntity -->
<g id="edge31" class="edge">
<title>wrp.func_801903C8&#45;&gt;wrp.InitializeEntity</title>
<path fill="none" stroke="black" d="M7834.34,-184.98C7820.81,-183.06 7806.77,-181.28 7793.54,-180 6400.22,-44.87 4696.81,-23.08 4251.34,-19.63"/>
<polygon fill="black" stroke="black" points="4251.08,-16.13 4241.05,-19.56 4251.02,-23.13 4251.08,-16.13"/>
<text text-anchor="middle" x="7829.34" y="-173.78" font-family="Times,serif" font-size="14.00">1</text>
</g>
</g>
</svg>
