<?xml version="1.0" encoding="UTF-8" standalone="no"?>
<!DOCTYPE svg PUBLIC "-//W3C//DTD SVG 1.1//EN"
 "http://www.w3.org/Graphics/SVG/1.1/DTD/svg11.dtd">
<!-- Generated by graphviz version 2.43.0 (0)
 -->
<!-- Title: wrp.DestroyEntity Pages: 1 -->
<svg width="9043pt" height="404pt"
 viewBox="0.00 0.00 9043.13 404.00" xmlns="http://www.w3.org/2000/svg" xmlns:xlink="http://www.w3.org/1999/xlink">
<g id="graph0" class="graph" transform="scale(1 1) rotate(0) translate(4 400)">
<title>wrp.DestroyEntity</title>
<polygon fill="white" stroke="transparent" points="-4,4 -4,-400 9039.13,-400 9039.13,4 -4,4"/>
<!-- wrp.DestroyEntity -->
<g id="node1" class="node">
<title>wrp.DestroyEntity</title>
<ellipse fill="green" stroke="black" cx="4690.49" cy="-198" rx="96.68" ry="18"/>
<text text-anchor="middle" x="4690.49" y="-194.3" font-family="Times,serif" font-size="14.00">wrp.DestroyEntity</text>
</g>
<!-- dra.FreePrimitives -->
<g id="node2" class="node">
<title>dra.FreePrimitives</title>
<g id="a_node2"><a xlink:href="dra.FreePrimitives.svg" xlink:title="dra.FreePrimitives">
<ellipse fill="green" stroke="black" cx="4690.49" cy="-18" rx="98.58" ry="18"/>
<text text-anchor="middle" x="4690.49" y="-14.3" font-family="Times,serif" font-size="14.00">dra.FreePrimitives</text>
</a>
</g>
</g>
<!-- wrp.DestroyEntity&#45;&gt;dra.FreePrimitives -->
<g id="edge1" class="edge">
<title>wrp.DestroyEntity&#45;&gt;dra.FreePrimitives</title>
<path fill="none" stroke="black" d="M4690.49,-179.93C4690.49,-148.97 4690.49,-83.3 4690.49,-46.13"/>
<polygon fill="black" stroke="black" points="4693.99,-46.02 4690.49,-36.02 4686.99,-46.02 4693.99,-46.02"/>
<text text-anchor="middle" x="4685.49" y="-39.82" font-family="Times,serif" font-size="14.00">1</text>
</g>
<!-- rwrp.EntityEnemyBlood -->
<g id="node3" class="node">
<title>rwrp.EntityEnemyBlood</title>
<g id="a_node3"><a xlink:href="rwrp.EntityEnemyBlood.svg" xlink:title="rwrp.EntityEnemyBlood">
<ellipse fill="green" stroke="black" cx="123.49" cy="-378" rx="123.48" ry="18"/>
<text text-anchor="middle" x="123.49" y="-374.3" font-family="Times,serif" font-size="14.00">rwrp.EntityEnemyBlood</text>
</a>
</g>
</g>
<!-- rwrp.EntityEnemyBlood&#45;&gt;wrp.DestroyEntity -->
<g id="edge2" class="edge">
<title>rwrp.EntityEnemyBlood&#45;&gt;wrp.DestroyEntity</title>
<path fill="none" stroke="black" d="M208.58,-364.88C224.16,-362.99 240.29,-361.25 255.49,-360 1978.59,-218.07 4088.56,-201.25 4583.21,-199.27"/>
<polygon fill="black" stroke="black" points="4583.56,-202.76 4593.54,-199.23 4583.53,-195.76 4583.56,-202.76"/>
<text text-anchor="middle" x="203.58" y="-353.68" font-family="Times,serif" font-size="14.00">1</text>
</g>
<!-- rwrp.EntitySoulStealOrb -->
<g id="node4" class="node">
<title>rwrp.EntitySoulStealOrb</title>
<g id="a_node4"><a xlink:href="rwrp.EntitySoulStealOrb.svg" xlink:title="rwrp.EntitySoulStealOrb">
<ellipse fill="green" stroke="black" cx="391.49" cy="-378" rx="126.98" ry="18"/>
<text text-anchor="middle" x="391.49" y="-374.3" font-family="Times,serif" font-size="14.00">rwrp.EntitySoulStealOrb</text>
</a>
</g>
</g>
<!-- rwrp.EntitySoulStealOrb&#45;&gt;wrp.DestroyEntity -->
<g id="edge3" class="edge">
<title>rwrp.EntitySoulStealOrb&#45;&gt;wrp.DestroyEntity</title>
<path fill="none" stroke="black" d="M479.17,-364.92C495.22,-363.03 511.84,-361.28 527.49,-360 2138.04,-228.44 4108.14,-203.89 4583.59,-199.77"/>
<polygon fill="black" stroke="black" points="4583.9,-203.26 4593.87,-199.68 4583.84,-196.26 4583.9,-203.26"/>
<text text-anchor="middle" x="474.17" y="-353.72" font-family="Times,serif" font-size="14.00">1</text>
</g>
<!-- wrp.AllocEntity -->
<g id="node5" class="node">
<title>wrp.AllocEntity</title>
<g id="a_node5"><a xlink:href="wrp.AllocEntity.svg" xlink:title="wrp.AllocEntity">
<ellipse fill="green" stroke="black" cx="619.49" cy="-378" rx="83.39" ry="18"/>
<text text-anchor="middle" x="619.49" y="-374.3" font-family="Times,serif" font-size="14.00">wrp.AllocEntity</text>
</a>
</g>
</g>
<!-- wrp.AllocEntity&#45;&gt;wrp.DestroyEntity -->
<g id="edge4" class="edge">
<title>wrp.AllocEntity&#45;&gt;wrp.DestroyEntity</title>
<path fill="none" stroke="black" d="M677.21,-365.04C688.53,-363.06 700.35,-361.25 711.49,-360 1493.82,-272.34 4033.06,-213.23 4584.28,-201.25"/>
<polygon fill="black" stroke="black" points="4584.68,-204.74 4594.6,-201.03 4584.52,-197.74 4584.68,-204.74"/>
<text text-anchor="middle" x="672.21" y="-353.84" font-family="Times,serif" font-size="14.00">1</text>
</g>
<!-- wrp.CollectGold -->
<g id="node6" class="node">
<title>wrp.CollectGold</title>
<g id="a_node6"><a xlink:href="wrp.CollectGold.svg" xlink:title="wrp.CollectGold">
<ellipse fill="green" stroke="black" cx="805.49" cy="-378" rx="85.29" ry="18"/>
<text text-anchor="middle" x="805.49" y="-374.3" font-family="Times,serif" font-size="14.00">wrp.CollectGold</text>
</a>
</g>
</g>
<!-- wrp.CollectGold&#45;&gt;wrp.DestroyEntity -->
<g id="edge5" class="edge">
<title>wrp.CollectGold&#45;&gt;wrp.DestroyEntity</title>
<path fill="none" stroke="black" d="M864.73,-365.02C876.22,-363.06 888.2,-361.25 899.49,-360 1642.96,-277.37 4050.97,-214.64 4584.96,-201.53"/>
<polygon fill="black" stroke="black" points="4585.05,-205.03 4594.97,-201.29 4584.88,-198.03 4585.05,-205.03"/>
<text text-anchor="middle" x="859.73" y="-353.82" font-family="Times,serif" font-size="14.00">1</text>
</g>
<!-- wrp.CollectHeart -->
<g id="node7" class="node">
<title>wrp.CollectHeart</title>
<g id="a_node7"><a xlink:href="wrp.CollectHeart.svg" xlink:title="wrp.CollectHeart">
<ellipse fill="green" stroke="black" cx="999.49" cy="-378" rx="90.98" ry="18"/>
<text text-anchor="middle" x="999.49" y="-374.3" font-family="Times,serif" font-size="14.00">wrp.CollectHeart</text>
</a>
</g>
</g>
<!-- wrp.CollectHeart&#45;&gt;wrp.DestroyEntity -->
<g id="edge6" class="edge">
<title>wrp.CollectHeart&#45;&gt;wrp.DestroyEntity</title>
<path fill="none" stroke="black" d="M1062.81,-365.02C1074.95,-363.07 1087.58,-361.27 1099.49,-360 2470.13,-213.34 4148.94,-199.9 4583.7,-198.98"/>
<polygon fill="black" stroke="black" points="4583.74,-202.48 4593.74,-198.96 4583.73,-195.48 4583.74,-202.48"/>
<text text-anchor="middle" x="1057.81" y="-353.82" font-family="Times,serif" font-size="14.00">1</text>
</g>
<!-- wrp.CollectHeartVessel -->
<g id="node8" class="node">
<title>wrp.CollectHeartVessel</title>
<g id="a_node8"><a xlink:href="wrp.CollectHeartVessel.svg" xlink:title="wrp.CollectHeartVessel">
<ellipse fill="green" stroke="black" cx="1228.49" cy="-378" rx="120.48" ry="18"/>
<text text-anchor="middle" x="1228.49" y="-374.3" font-family="Times,serif" font-size="14.00">wrp.CollectHeartVessel</text>
</a>
</g>
</g>
<!-- wrp.CollectHeartVessel&#45;&gt;wrp.DestroyEntity -->
<g id="edge7" class="edge">
<title>wrp.CollectHeartVessel&#45;&gt;wrp.DestroyEntity</title>
<path fill="none" stroke="black" d="M1312.3,-365.02C1327.64,-363.12 1343.53,-361.34 1358.49,-360 2625.24,-246.76 4170.54,-209.33 4584.38,-200.97"/>
<polygon fill="black" stroke="black" points="4584.61,-204.47 4594.53,-200.77 4584.47,-197.47 4584.61,-204.47"/>
<text text-anchor="middle" x="1307.3" y="-353.82" font-family="Times,serif" font-size="14.00">1</text>
</g>
<!-- wrp.CollectLifeVessel -->
<g id="node9" class="node">
<title>wrp.CollectLifeVessel</title>
<g id="a_node9"><a xlink:href="wrp.CollectLifeVessel.svg" xlink:title="wrp.CollectLifeVessel">
<ellipse fill="green" stroke="black" cx="1477.49" cy="-378" rx="110.48" ry="18"/>
<text text-anchor="middle" x="1477.49" y="-374.3" font-family="Times,serif" font-size="14.00">wrp.CollectLifeVessel</text>
</a>
</g>
</g>
<!-- wrp.CollectLifeVessel&#45;&gt;wrp.DestroyEntity -->
<g id="edge8" class="edge">
<title>wrp.CollectLifeVessel&#45;&gt;wrp.DestroyEntity</title>
<path fill="none" stroke="black" d="M1554.18,-365.01C1568.23,-363.11 1582.78,-361.33 1596.49,-360 2764.58,-246.41 4189.09,-209.49 4584.39,-201.06"/>
<polygon fill="black" stroke="black" points="4584.74,-204.56 4594.66,-200.85 4584.59,-197.56 4584.74,-204.56"/>
<text text-anchor="middle" x="1549.18" y="-353.81" font-family="Times,serif" font-size="14.00">1</text>
</g>
<!-- wrp.CollectSubweapon -->
<g id="node10" class="node">
<title>wrp.CollectSubweapon</title>
<g id="a_node10"><a xlink:href="wrp.CollectSubweapon.svg" xlink:title="wrp.CollectSubweapon">
<ellipse fill="green" stroke="black" cx="1723.49" cy="-378" rx="117.78" ry="18"/>
<text text-anchor="middle" x="1723.49" y="-374.3" font-family="Times,serif" font-size="14.00">wrp.CollectSubweapon</text>
</a>
</g>
</g>
<!-- wrp.CollectSubweapon&#45;&gt;wrp.DestroyEntity -->
<g id="edge9" class="edge">
<title>wrp.CollectSubweapon&#45;&gt;wrp.DestroyEntity</title>
<path fill="none" stroke="black" d="M1805.71,-365.06C1820.59,-363.17 1835.98,-361.38 1850.49,-360 2915.64,-258.67 4212.05,-213.54 4585.36,-202.06"/>
<polygon fill="black" stroke="black" points="4585.71,-205.55 4595.6,-201.75 4585.5,-198.55 4585.71,-205.55"/>
<text text-anchor="middle" x="1800.71" y="-353.86" font-family="Times,serif" font-size="14.00">1</text>
</g>
<!-- wrp.CreateEntityFromCurrentEntity -->
<g id="node11" class="node">
<title>wrp.CreateEntityFromCurrentEntity</title>
<g id="a_node11"><a xlink:href="wrp.CreateEntityFromCurrentEntity.svg" xlink:title="wrp.CreateEntityFromCurrentEntity">
<ellipse fill="green" stroke="black" cx="2041.49" cy="-378" rx="181.97" ry="18"/>
<text text-anchor="middle" x="2041.49" y="-374.3" font-family="Times,serif" font-size="14.00">wrp.CreateEntityFromCurrentEntity</text>
</a>
</g>
</g>
<!-- wrp.CreateEntityFromCurrentEntity&#45;&gt;wrp.DestroyEntity -->
<g id="edge10" class="edge">
<title>wrp.CreateEntityFromCurrentEntity&#45;&gt;wrp.DestroyEntity</title>
<path fill="none" stroke="black" d="M2169.62,-365.18C2190.62,-363.36 2212.16,-361.57 2232.49,-360 3146.66,-289.39 4253.69,-224.12 4589.3,-204.78"/>
<polygon fill="black" stroke="black" points="4589.7,-208.26 4599.48,-204.19 4589.3,-201.27 4589.7,-208.26"/>
<text text-anchor="middle" x="2164.62" y="-353.98" font-family="Times,serif" font-size="14.00">1</text>
</g>
<!-- wrp.CreateEntityFromEntity -->
<g id="node12" class="node">
<title>wrp.CreateEntityFromEntity</title>
<g id="a_node12"><a xlink:href="wrp.CreateEntityFromEntity.svg" xlink:title="wrp.CreateEntityFromEntity">
<ellipse fill="green" stroke="black" cx="2387.49" cy="-378" rx="145.67" ry="18"/>
<text text-anchor="middle" x="2387.49" y="-374.3" font-family="Times,serif" font-size="14.00">wrp.CreateEntityFromEntity</text>
</a>
</g>
</g>
<!-- wrp.CreateEntityFromEntity&#45;&gt;wrp.DestroyEntity -->
<g id="edge11" class="edge">
<title>wrp.CreateEntityFromEntity&#45;&gt;wrp.DestroyEntity</title>
<path fill="none" stroke="black" d="M2490.41,-365.21C2507.78,-363.36 2525.64,-361.55 2542.49,-360 3330.43,-287.28 4283.31,-224.78 4590.15,-205.29"/>
<polygon fill="black" stroke="black" points="4590.6,-208.77 4600.36,-204.64 4590.16,-201.78 4590.6,-208.77"/>
<text text-anchor="middle" x="2485.41" y="-354.01" font-family="Times,serif" font-size="14.00">1</text>
</g>
<!-- wrp.CreateEntityFromLayout -->
<g id="node13" class="node">
<title>wrp.CreateEntityFromLayout</title>
<g id="a_node13"><a xlink:href="wrp.CreateEntityFromLayout.svg" xlink:title="wrp.CreateEntityFromLayout">
<ellipse fill="green" stroke="black" cx="2699.49" cy="-378" rx="148.37" ry="18"/>
<text text-anchor="middle" x="2699.49" y="-374.3" font-family="Times,serif" font-size="14.00">wrp.CreateEntityFromLayout</text>
</a>
</g>
</g>
<!-- wrp.CreateEntityFromLayout&#45;&gt;wrp.DestroyEntity -->
<g id="edge12" class="edge">
<title>wrp.CreateEntityFromLayout&#45;&gt;wrp.DestroyEntity</title>
<path fill="none" stroke="black" d="M2805.02,-365.28C2822.22,-363.45 2839.84,-361.63 2856.49,-360 3519.95,-294.97 4319.69,-229.03 4593.27,-206.84"/>
<polygon fill="black" stroke="black" points="4593.88,-210.3 4603.56,-206 4593.31,-203.32 4593.88,-210.3"/>
<text text-anchor="middle" x="2800.02" y="-354.08" font-family="Times,serif" font-size="14.00">1</text>
</g>
<!-- wrp.DestroyCurrentEntity -->
<g id="node14" class="node">
<title>wrp.DestroyCurrentEntity</title>
<g id="a_node14"><a xlink:href="wrp.DestroyCurrentEntity.svg" xlink:title="wrp.DestroyCurrentEntity">
<ellipse fill="green" stroke="black" cx="2999.49" cy="-378" rx="133.78" ry="18"/>
<text text-anchor="middle" x="2999.49" y="-374.3" font-family="Times,serif" font-size="14.00">wrp.DestroyCurrentEntity</text>
</a>
</g>
</g>
<!-- wrp.DestroyCurrentEntity&#45;&gt;wrp.DestroyEntity -->
<g id="edge13" class="edge">
<title>wrp.DestroyCurrentEntity&#45;&gt;wrp.DestroyEntity</title>
<path fill="none" stroke="black" d="M3095.62,-365.38C3111.28,-363.54 3127.33,-361.69 3142.49,-360 3693.47,-298.6 4355.63,-232.2 4596.83,-208.26"/>
<polygon fill="black" stroke="black" points="4597.36,-211.72 4606.96,-207.25 4596.66,-204.76 4597.36,-211.72"/>
<text text-anchor="middle" x="3090.62" y="-354.18" font-family="Times,serif" font-size="14.00">1</text>
</g>
<!-- wrp.DestroyEntitiesFromIndex -->
<g id="node15" class="node">
<title>wrp.DestroyEntitiesFromIndex</title>
<g id="a_node15"><a xlink:href="wrp.DestroyEntitiesFromIndex.svg" xlink:title="wrp.DestroyEntitiesFromIndex">
<ellipse fill="green" stroke="black" cx="3306.49" cy="-378" rx="155.17" ry="18"/>
<text text-anchor="middle" x="3306.49" y="-374.3" font-family="Times,serif" font-size="14.00">wrp.DestroyEntitiesFromIndex</text>
</a>
</g>
</g>
<!-- wrp.DestroyEntitiesFromIndex&#45;&gt;wrp.DestroyEntity -->
<g id="edge14" class="edge">
<title>wrp.DestroyEntitiesFromIndex&#45;&gt;wrp.DestroyEntity</title>
<path fill="none" stroke="black" d="M3406.3,-364.16C3665.76,-330.79 4358.26,-241.73 4603.17,-210.23"/>
<polygon fill="black" stroke="black" points="4603.98,-213.66 4613.45,-208.91 4603.08,-206.71 4603.98,-213.66"/>
<text text-anchor="middle" x="3401.3" y="-352.96" font-family="Times,serif" font-size="14.00">1</text>
</g>
<!-- wrp.EntityBigRedFireball -->
<g id="node16" class="node">
<title>wrp.EntityBigRedFireball</title>
<g id="a_node16"><a xlink:href="wrp.EntityBigRedFireball.svg" xlink:title="wrp.EntityBigRedFireball">
<ellipse fill="green" stroke="black" cx="3609.49" cy="-378" rx="129.98" ry="18"/>
<text text-anchor="middle" x="3609.49" y="-374.3" font-family="Times,serif" font-size="14.00">wrp.EntityBigRedFireball</text>
</a>
</g>
</g>
<!-- wrp.EntityBigRedFireball&#45;&gt;wrp.DestroyEntity -->
<g id="edge15" class="edge">
<title>wrp.EntityBigRedFireball&#45;&gt;wrp.DestroyEntity</title>
<path fill="none" stroke="black" d="M3689.86,-363.77C3890.29,-330.76 4410.5,-245.1 4610.51,-212.17"/>
<polygon fill="black" stroke="black" points="4611.36,-215.58 4620.65,-210.5 4610.22,-208.67 4611.36,-215.58"/>
<text text-anchor="middle" x="3684.86" y="-352.57" font-family="Times,serif" font-size="14.00">1</text>
</g>
<!-- wrp.EntityDamageDisplay -->
<g id="node17" class="node">
<title>wrp.EntityDamageDisplay</title>
<g id="a_node17"><a xlink:href="wrp.EntityDamageDisplay.svg" xlink:title="wrp.EntityDamageDisplay">
<ellipse fill="green" stroke="black" cx="3890.49" cy="-378" rx="133.48" ry="18"/>
<text text-anchor="middle" x="3890.49" y="-374.3" font-family="Times,serif" font-size="14.00">wrp.EntityDamageDisplay</text>
</a>
</g>
</g>
<!-- wrp.EntityDamageDisplay&#45;&gt;wrp.DestroyEntity -->
<g id="edge16" class="edge">
<title>wrp.EntityDamageDisplay&#45;&gt;wrp.DestroyEntity</title>
<path fill="none" stroke="black" d="M3956.64,-362.28C4105.94,-329.06 4467.94,-248.52 4620.67,-214.54"/>
<polygon fill="black" stroke="black" points="4621.86,-217.86 4630.86,-212.27 4620.34,-211.02 4621.86,-217.86"/>
<text text-anchor="middle" x="3951.64" y="-351.08" font-family="Times,serif" font-size="14.00">1</text>
</g>
<!-- wrp.EntityEquipItemDrop -->
<g id="node18" class="node">
<title>wrp.EntityEquipItemDrop</title>
<g id="a_node18"><a xlink:href="wrp.EntityEquipItemDrop.svg" xlink:title="wrp.EntityEquipItemDrop">
<ellipse fill="green" stroke="black" cx="4173.49" cy="-378" rx="131.88" ry="18"/>
<text text-anchor="middle" x="4173.49" y="-374.3" font-family="Times,serif" font-size="14.00">wrp.EntityEquipItemDrop</text>
</a>
</g>
</g>
<!-- wrp.EntityEquipItemDrop&#45;&gt;wrp.DestroyEntity -->
<g id="edge17" class="edge">
<title>wrp.EntityEquipItemDrop&#45;&gt;wrp.DestroyEntity</title>
<path fill="none" stroke="black" d="M4219.82,-361.05C4315.75,-328.02 4535.58,-252.33 4637.19,-217.35"/>
<polygon fill="black" stroke="black" points="4638.33,-220.66 4646.65,-214.1 4636.05,-214.04 4638.33,-220.66"/>
<text text-anchor="middle" x="4214.82" y="-349.85" font-family="Times,serif" font-size="14.00">2</text>
</g>
<!-- wrp.EntityExplosion -->
<g id="node19" class="node">
<title>wrp.EntityExplosion</title>
<g id="a_node19"><a xlink:href="wrp.EntityExplosion.svg" xlink:title="wrp.EntityExplosion">
<ellipse fill="green" stroke="black" cx="4429.49" cy="-378" rx="105.88" ry="18"/>
<text text-anchor="middle" x="4429.49" y="-374.3" font-family="Times,serif" font-size="14.00">wrp.EntityExplosion</text>
</a>
</g>
</g>
<!-- wrp.EntityExplosion&#45;&gt;wrp.DestroyEntity -->
<g id="edge18" class="edge">
<title>wrp.EntityExplosion&#45;&gt;wrp.DestroyEntity</title>
<path fill="none" stroke="black" d="M4454.04,-360.25C4501.28,-328.04 4604.83,-257.42 4657.83,-221.27"/>
<polygon fill="black" stroke="black" points="4659.9,-224.1 4666.19,-215.57 4655.96,-218.31 4659.9,-224.1"/>
<text text-anchor="middle" x="4449.04" y="-349.05" font-family="Times,serif" font-size="14.00">1</text>
</g>
<!-- wrp.EntityExplosionSpawn -->
<g id="node20" class="node">
<title>wrp.EntityExplosionSpawn</title>
<g id="a_node20"><a xlink:href="wrp.EntityExplosionSpawn.svg" xlink:title="wrp.EntityExplosionSpawn">
<ellipse fill="green" stroke="black" cx="4690.49" cy="-378" rx="137.28" ry="18"/>
<text text-anchor="middle" x="4690.49" y="-374.3" font-family="Times,serif" font-size="14.00">wrp.EntityExplosionSpawn</text>
</a>
</g>
</g>
<!-- wrp.EntityExplosionSpawn&#45;&gt;wrp.DestroyEntity -->
<g id="edge19" class="edge">
<title>wrp.EntityExplosionSpawn&#45;&gt;wrp.DestroyEntity</title>
<path fill="none" stroke="black" d="M4690.49,-359.93C4690.49,-328.97 4690.49,-263.3 4690.49,-226.13"/>
<polygon fill="black" stroke="black" points="4693.99,-226.02 4690.49,-216.02 4686.99,-226.02 4693.99,-226.02"/>
<text text-anchor="middle" x="4685.49" y="-348.73" font-family="Times,serif" font-size="14.00">1</text>
</g>
<!-- wrp.EntityHeartDrop -->
<g id="node21" class="node">
<title>wrp.EntityHeartDrop</title>
<g id="a_node21"><a xlink:href="wrp.EntityHeartDrop.svg" xlink:title="wrp.EntityHeartDrop">
<ellipse fill="green" stroke="black" cx="4956.49" cy="-378" rx="110.48" ry="18"/>
<text text-anchor="middle" x="4956.49" y="-374.3" font-family="Times,serif" font-size="14.00">wrp.EntityHeartDrop</text>
</a>
</g>
</g>
<!-- wrp.EntityHeartDrop&#45;&gt;wrp.DestroyEntity -->
<g id="edge20" class="edge">
<title>wrp.EntityHeartDrop&#45;&gt;wrp.DestroyEntity</title>
<path fill="none" stroke="black" d="M4931.46,-360.25C4883.32,-328.04 4777.79,-257.42 4723.78,-221.27"/>
<polygon fill="black" stroke="black" points="4725.51,-218.22 4715.25,-215.57 4721.62,-224.04 4725.51,-218.22"/>
<text text-anchor="middle" x="4926.46" y="-349.05" font-family="Times,serif" font-size="14.00">1</text>
</g>
<!-- wrp.EntityIntenseExplosion -->
<g id="node22" class="node">
<title>wrp.EntityIntenseExplosion</title>
<g id="a_node22"><a xlink:href="wrp.EntityIntenseExplosion.svg" xlink:title="wrp.EntityIntenseExplosion">
<ellipse fill="green" stroke="black" cx="5225.49" cy="-378" rx="140.28" ry="18"/>
<text text-anchor="middle" x="5225.49" y="-374.3" font-family="Times,serif" font-size="14.00">wrp.EntityIntenseExplosion</text>
</a>
</g>
</g>
<!-- wrp.EntityIntenseExplosion&#45;&gt;wrp.DestroyEntity -->
<g id="edge21" class="edge">
<title>wrp.EntityIntenseExplosion&#45;&gt;wrp.DestroyEntity</title>
<path fill="none" stroke="black" d="M5177.54,-361.05C5078.16,-327.98 4850.22,-252.15 4745.25,-217.22"/>
<polygon fill="black" stroke="black" points="4746.08,-213.81 4735.48,-213.97 4743.87,-220.45 4746.08,-213.81"/>
<text text-anchor="middle" x="5172.54" y="-349.85" font-family="Times,serif" font-size="14.00">1</text>
</g>
<!-- wrp.EntityMessageBox -->
<g id="node23" class="node">
<title>wrp.EntityMessageBox</title>
<g id="a_node23"><a xlink:href="wrp.EntityMessageBox.svg" xlink:title="wrp.EntityMessageBox">
<ellipse fill="green" stroke="black" cx="5502.49" cy="-378" rx="118.88" ry="18"/>
<text text-anchor="middle" x="5502.49" y="-374.3" font-family="Times,serif" font-size="14.00">wrp.EntityMessageBox</text>
</a>
</g>
</g>
<!-- wrp.EntityMessageBox&#45;&gt;wrp.DestroyEntity -->
<g id="edge22" class="edge">
<title>wrp.EntityMessageBox&#45;&gt;wrp.DestroyEntity</title>
<path fill="none" stroke="black" d="M5437.75,-362.81C5287.48,-329.87 4915.97,-248.43 4760.58,-214.36"/>
<polygon fill="black" stroke="black" points="4761.18,-210.91 4750.66,-212.19 4759.68,-217.75 4761.18,-210.91"/>
<text text-anchor="middle" x="5432.75" y="-351.61" font-family="Times,serif" font-size="14.00">1</text>
</g>
<!-- wrp.EntityOlroxDrool -->
<g id="node24" class="node">
<title>wrp.EntityOlroxDrool</title>
<g id="a_node24"><a xlink:href="wrp.EntityOlroxDrool.svg" xlink:title="wrp.EntityOlroxDrool">
<ellipse fill="green" stroke="black" cx="5750.49" cy="-378" rx="111.28" ry="18"/>
<text text-anchor="middle" x="5750.49" y="-374.3" font-family="Times,serif" font-size="14.00">wrp.EntityOlroxDrool</text>
</a>
</g>
</g>
<!-- wrp.EntityOlroxDrool&#45;&gt;wrp.DestroyEntity -->
<g id="edge23" class="edge">
<title>wrp.EntityOlroxDrool&#45;&gt;wrp.DestroyEntity</title>
<path fill="none" stroke="black" d="M5676.37,-364.55C5483.69,-332.2 4968.27,-245.65 4769.86,-212.33"/>
<polygon fill="black" stroke="black" points="4770.24,-208.84 4759.8,-210.64 4769.08,-215.75 4770.24,-208.84"/>
<text text-anchor="middle" x="5671.37" y="-353.35" font-family="Times,serif" font-size="14.00">1</text>
</g>
<!-- wrp.EntityPrizeDrop -->
<g id="node25" class="node">
<title>wrp.EntityPrizeDrop</title>
<g id="a_node25"><a xlink:href="wrp.EntityPrizeDrop.svg" xlink:title="wrp.EntityPrizeDrop">
<ellipse fill="green" stroke="black" cx="5986.49" cy="-378" rx="107.48" ry="18"/>
<text text-anchor="middle" x="5986.49" y="-374.3" font-family="Times,serif" font-size="14.00">wrp.EntityPrizeDrop</text>
</a>
</g>
</g>
<!-- wrp.EntityPrizeDrop&#45;&gt;wrp.DestroyEntity -->
<g id="edge24" class="edge">
<title>wrp.EntityPrizeDrop&#45;&gt;wrp.DestroyEntity</title>
<path fill="none" stroke="black" d="M5908.82,-365.51C5896.02,-363.65 5882.88,-361.75 5870.49,-360 5461.46,-302.13 4972.12,-236.52 4776.99,-210.5"/>
<polygon fill="black" stroke="black" points="4777.17,-207 4766.8,-209.15 4776.25,-213.94 4777.17,-207"/>
<text text-anchor="middle" x="5903.82" y="-354.31" font-family="Times,serif" font-size="14.00">2</text>
</g>
<!-- wrp.EntityRedDoor -->
<g id="node26" class="node">
<title>wrp.EntityRedDoor</title>
<g id="a_node26"><a xlink:href="wrp.EntityRedDoor.svg" xlink:title="wrp.EntityRedDoor">
<ellipse fill="green" stroke="black" cx="6212.49" cy="-378" rx="100.98" ry="18"/>
<text text-anchor="middle" x="6212.49" y="-374.3" font-family="Times,serif" font-size="14.00">wrp.EntityRedDoor</text>
</a>
</g>
</g>
<!-- wrp.EntityRedDoor&#45;&gt;wrp.DestroyEntity -->
<g id="edge25" class="edge">
<title>wrp.EntityRedDoor&#45;&gt;wrp.DestroyEntity</title>
<path fill="none" stroke="black" d="M6140.36,-365.43C6127.75,-363.53 6114.75,-361.65 6102.49,-360 5606.67,-293.45 5010.5,-231.32 4783.97,-208.36"/>
<polygon fill="black" stroke="black" points="4784.09,-204.85 4773.79,-207.33 4783.38,-211.82 4784.09,-204.85"/>
<text text-anchor="middle" x="6135.36" y="-354.23" font-family="Times,serif" font-size="14.00">1</text>
</g>
<!-- wrp.EntityRelicOrb -->
<g id="node27" class="node">
<title>wrp.EntityRelicOrb</title>
<g id="a_node27"><a xlink:href="wrp.EntityRelicOrb.svg" xlink:title="wrp.EntityRelicOrb">
<ellipse fill="green" stroke="black" cx="6431.49" cy="-378" rx="100.98" ry="18"/>
<text text-anchor="middle" x="6431.49" y="-374.3" font-family="Times,serif" font-size="14.00">wrp.EntityRelicOrb</text>
</a>
</g>
</g>
<!-- wrp.EntityRelicOrb&#45;&gt;wrp.DestroyEntity -->
<g id="edge26" class="edge">
<title>wrp.EntityRelicOrb&#45;&gt;wrp.DestroyEntity</title>
<path fill="none" stroke="black" d="M6360.04,-365.27C6347.54,-363.38 6334.65,-361.55 6322.49,-360 5742.02,-286.16 5041.69,-227.11 4788.1,-206.7"/>
<polygon fill="black" stroke="black" points="4788.06,-203.18 4777.82,-205.87 4787.5,-210.16 4788.06,-203.18"/>
<text text-anchor="middle" x="6355.04" y="-354.07" font-family="Times,serif" font-size="14.00">1</text>
</g>
<!-- wrp.EntityStageNamePopup -->
<g id="node28" class="node">
<title>wrp.EntityStageNamePopup</title>
<g id="a_node28"><a xlink:href="wrp.EntityStageNamePopup.svg" xlink:title="wrp.EntityStageNamePopup">
<ellipse fill="green" stroke="black" cx="6693.49" cy="-378" rx="143.77" ry="18"/>
<text text-anchor="middle" x="6693.49" y="-374.3" font-family="Times,serif" font-size="14.00">wrp.EntityStageNamePopup</text>
</a>
</g>
</g>
<!-- wrp.EntityStageNamePopup&#45;&gt;wrp.DestroyEntity -->
<g id="edge27" class="edge">
<title>wrp.EntityStageNamePopup&#45;&gt;wrp.DestroyEntity</title>
<path fill="none" stroke="black" d="M6591.73,-365.27C6574.95,-363.44 6557.74,-361.62 6541.49,-360 5871.62,-293.42 5063.82,-228.4 4788.13,-206.64"/>
<polygon fill="black" stroke="black" points="4788.01,-203.12 4777.77,-205.82 4787.46,-210.1 4788.01,-203.12"/>
<text text-anchor="middle" x="6586.73" y="-354.07" font-family="Times,serif" font-size="14.00">1</text>
</g>
<!-- wrp.EntityUnkId13 -->
<g id="node29" class="node">
<title>wrp.EntityUnkId13</title>
<g id="a_node29"><a xlink:href="wrp.EntityUnkId13.svg" xlink:title="wrp.EntityUnkId13">
<ellipse fill="green" stroke="black" cx="6955.49" cy="-378" rx="100.98" ry="18"/>
<text text-anchor="middle" x="6955.49" y="-374.3" font-family="Times,serif" font-size="14.00">wrp.EntityUnkId13</text>
</a>
</g>
</g>
<!-- wrp.EntityUnkId13&#45;&gt;wrp.DestroyEntity -->
<g id="edge28" class="edge">
<title>wrp.EntityUnkId13&#45;&gt;wrp.DestroyEntity</title>
<path fill="none" stroke="black" d="M6884.65,-365.11C6871.97,-363.22 6858.86,-361.42 6846.49,-360 6059.32,-269.37 5104.31,-218.73 4793.54,-203.76"/>
<polygon fill="black" stroke="black" points="4793.36,-200.24 4783.2,-203.26 4793.02,-207.24 4793.36,-200.24"/>
<text text-anchor="middle" x="6879.65" y="-353.91" font-family="Times,serif" font-size="14.00">1</text>
</g>
<!-- wrp.EntityUnkId14 -->
<g id="node30" class="node">
<title>wrp.EntityUnkId14</title>
<g id="a_node30"><a xlink:href="wrp.EntityUnkId14.svg" xlink:title="wrp.EntityUnkId14">
<ellipse fill="green" stroke="black" cx="7174.49" cy="-378" rx="100.98" ry="18"/>
<text text-anchor="middle" x="7174.49" y="-374.3" font-family="Times,serif" font-size="14.00">wrp.EntityUnkId14</text>
</a>
</g>
</g>
<!-- wrp.EntityUnkId14&#45;&gt;wrp.DestroyEntity -->
<g id="edge29" class="edge">
<title>wrp.EntityUnkId14&#45;&gt;wrp.DestroyEntity</title>
<path fill="none" stroke="black" d="M7103.96,-365.08C7091.18,-363.18 7077.96,-361.39 7065.49,-360 6190.23,-262.27 5126.4,-215.68 4794.46,-202.81"/>
<polygon fill="black" stroke="black" points="4794.51,-199.31 4784.38,-202.42 4794.24,-206.31 4794.51,-199.31"/>
<text text-anchor="middle" x="7098.96" y="-353.88" font-family="Times,serif" font-size="14.00">1</text>
</g>
<!-- wrp.EntityUnkId15 -->
<g id="node31" class="node">
<title>wrp.EntityUnkId15</title>
<g id="a_node31"><a xlink:href="wrp.EntityUnkId15.svg" xlink:title="wrp.EntityUnkId15">
<ellipse fill="green" stroke="black" cx="7393.49" cy="-378" rx="100.98" ry="18"/>
<text text-anchor="middle" x="7393.49" y="-374.3" font-family="Times,serif" font-size="14.00">wrp.EntityUnkId15</text>
</a>
</g>
</g>
<!-- wrp.EntityUnkId15&#45;&gt;wrp.DestroyEntity -->
<g id="edge30" class="edge">
<title>wrp.EntityUnkId15&#45;&gt;wrp.DestroyEntity</title>
<path fill="none" stroke="black" d="M7323.25,-365.07C7310.39,-363.16 7297.06,-361.37 7284.49,-360 6320.88,-255.18 5147.9,-212.91 4795.46,-202.02"/>
<polygon fill="black" stroke="black" points="4795.38,-198.52 4785.28,-201.71 4795.16,-205.51 4795.38,-198.52"/>
<text text-anchor="middle" x="7318.25" y="-353.87" font-family="Times,serif" font-size="14.00">1</text>
</g>
<!-- wrp.EntityWarpSmallRocks -->
<g id="node32" class="node">
<title>wrp.EntityWarpSmallRocks</title>
<g id="a_node32"><a xlink:href="wrp.EntityWarpSmallRocks.svg" xlink:title="wrp.EntityWarpSmallRocks">
<ellipse fill="green" stroke="black" cx="7650.49" cy="-378" rx="138.38" ry="18"/>
<text text-anchor="middle" x="7650.49" y="-374.3" font-family="Times,serif" font-size="14.00">wrp.EntityWarpSmallRocks</text>
</a>
</g>
</g>
<!-- wrp.EntityWarpSmallRocks&#45;&gt;wrp.DestroyEntity -->
<g id="edge31" class="edge">
<title>wrp.EntityWarpSmallRocks&#45;&gt;wrp.DestroyEntity</title>
<path fill="none" stroke="black" d="M7554.1,-365.04C7537.25,-363.18 7519.87,-361.41 7503.49,-360 6447.6,-268.81 5164.11,-216.65 4794.56,-202.78"/>
<polygon fill="black" stroke="black" points="4794.55,-199.27 4784.42,-202.4 4794.28,-206.27 4794.55,-199.27"/>
<text text-anchor="middle" x="7549.1" y="-353.84" font-family="Times,serif" font-size="14.00">1</text>
</g>
<!-- wrp.HitDetection -->
<g id="node33" class="node">
<title>wrp.HitDetection</title>
<g id="a_node33"><a xlink:href="wrp.HitDetection.svg" xlink:title="wrp.HitDetection">
<ellipse fill="green" stroke="black" cx="7897.49" cy="-378" rx="90.98" ry="18"/>
<text text-anchor="middle" x="7897.49" y="-374.3" font-family="Times,serif" font-size="14.00">wrp.HitDetection</text>
</a>
</g>
</g>
<!-- wrp.HitDetection&#45;&gt;wrp.DestroyEntity -->
<g id="edge32" class="edge">
<title>wrp.HitDetection&#45;&gt;wrp.DestroyEntity</title>
<path fill="none" stroke="black" d="M7833.9,-365.05C7821.84,-363.11 7809.3,-361.31 7797.49,-360 6625.82,-230.5 5193.77,-204.79 4796.84,-200.02"/>
<polygon fill="black" stroke="black" points="4796.85,-196.52 4786.81,-199.9 4796.77,-203.52 4796.85,-196.52"/>
<text text-anchor="middle" x="7828.9" y="-353.85" font-family="Times,serif" font-size="14.00">1</text>
</g>
<!-- wrp.InitializeUnkEntity -->
<g id="node34" class="node">
<title>wrp.InitializeUnkEntity</title>
<g id="a_node34"><a xlink:href="wrp.InitializeUnkEntity.svg" xlink:title="wrp.InitializeUnkEntity">
<ellipse fill="green" stroke="black" cx="8126.49" cy="-378" rx="120.48" ry="18"/>
<text text-anchor="middle" x="8126.49" y="-374.3" font-family="Times,serif" font-size="14.00">wrp.InitializeUnkEntity</text>
</a>
</g>
</g>
<!-- wrp.InitializeUnkEntity&#45;&gt;wrp.DestroyEntity -->
<g id="edge33" class="edge">
<title>wrp.InitializeUnkEntity&#45;&gt;wrp.DestroyEntity</title>
<path fill="none" stroke="black" d="M8042.98,-364.97C8027.87,-363.09 8012.23,-361.33 7997.49,-360 6741.01,-246.82 5208.28,-209.37 4796.5,-200.98"/>
<polygon fill="black" stroke="black" points="4796.47,-197.48 4786.4,-200.78 4796.32,-204.48 4796.47,-197.48"/>
<text text-anchor="middle" x="8037.98" y="-353.77" font-family="Times,serif" font-size="14.00">1</text>
</g>
<!-- wrp.MakeEntityFromId -->
<g id="node35" class="node">
<title>wrp.MakeEntityFromId</title>
<g id="a_node35"><a xlink:href="wrp.MakeEntityFromId.svg" xlink:title="wrp.MakeEntityFromId">
<ellipse fill="green" stroke="black" cx="8384.49" cy="-378" rx="120.48" ry="18"/>
<text text-anchor="middle" x="8384.49" y="-374.3" font-family="Times,serif" font-size="14.00">wrp.MakeEntityFromId</text>
</a>
</g>
</g>
<!-- wrp.MakeEntityFromId&#45;&gt;wrp.DestroyEntity -->
<g id="edge34" class="edge">
<title>wrp.MakeEntityFromId&#45;&gt;wrp.DestroyEntity</title>
<path fill="none" stroke="black" d="M8301.33,-364.97C8286.11,-363.08 8270.34,-361.31 8255.49,-360 6893,-239.68 5229.19,-207.15 4797.05,-200.47"/>
<polygon fill="black" stroke="black" points="4796.81,-196.97 4786.76,-200.31 4796.71,-203.97 4796.81,-196.97"/>
<text text-anchor="middle" x="8296.33" y="-353.77" font-family="Times,serif" font-size="14.00">1</text>
</g>
<!-- wrp.ReplaceBreakableWithItemDrop -->
<g id="node36" class="node">
<title>wrp.ReplaceBreakableWithItemDrop</title>
<g id="a_node36"><a xlink:href="wrp.ReplaceBreakableWithItemDrop.svg" xlink:title="wrp.ReplaceBreakableWithItemDrop">
<ellipse fill="green" stroke="black" cx="8704.49" cy="-378" rx="181.17" ry="18"/>
<text text-anchor="middle" x="8704.49" y="-374.3" font-family="Times,serif" font-size="14.00">wrp.ReplaceBreakableWithItemDrop</text>
</a>
</g>
</g>
<!-- wrp.ReplaceBreakableWithItemDrop&#45;&gt;wrp.DestroyEntity -->
<g id="edge35" class="edge">
<title>wrp.ReplaceBreakableWithItemDrop&#45;&gt;wrp.DestroyEntity</title>
<path fill="none" stroke="black" d="M8578.95,-364.99C8557.14,-363.14 8534.67,-361.39 8513.49,-360 7040.69,-263.5 5244.73,-213.23 4795.91,-201.63"/>
<polygon fill="black" stroke="black" points="4795.96,-198.13 4785.88,-201.38 4795.78,-205.13 4795.96,-198.13"/>
<text text-anchor="middle" x="8573.95" y="-353.79" font-family="Times,serif" font-size="14.00">1</text>
</g>
<!-- wrp.Update -->
<g id="node37" class="node">
<title>wrp.Update</title>
<g id="a_node37"><a xlink:href="wrp.Update.svg" xlink:title="wrp.Update">
<ellipse fill="green" stroke="black" cx="8969.49" cy="-378" rx="65.79" ry="18"/>
<text text-anchor="middle" x="8969.49" y="-374.3" font-family="Times,serif" font-size="14.00">wrp.Update</text>
</a>
</g>
</g>
<!-- wrp.Update&#45;&gt;wrp.DestroyEntity -->
<g id="edge36" class="edge">
<title>wrp.Update&#45;&gt;wrp.DestroyEntity</title>
<path fill="none" stroke="black" d="M8923.32,-365.13C8913.84,-363.09 8903.89,-361.23 8894.49,-360 8067.22,-251.35 5368.09,-208.4 4797.17,-200.42"/>
<polygon fill="black" stroke="black" points="4796.94,-196.91 4786.89,-200.27 4796.84,-203.91 4796.94,-196.91"/>
<text text-anchor="middle" x="8918.32" y="-353.93" font-family="Times,serif" font-size="14.00">1</text>
</g>
</g>
</svg>
