<?xml version="1.0" encoding="UTF-8" standalone="no"?>
<!DOCTYPE svg PUBLIC "-//W3C//DTD SVG 1.1//EN"
 "http://www.w3.org/Graphics/SVG/1.1/DTD/svg11.dtd">
<!-- Generated by graphviz version 2.43.0 (0)
 -->
<!-- Title: wrp.PrimDecreaseBrightness Pages: 1 -->
<svg width="452pt" height="224pt"
 viewBox="0.00 0.00 452.18 224.00" xmlns="http://www.w3.org/2000/svg" xmlns:xlink="http://www.w3.org/1999/xlink">
<g id="graph0" class="graph" transform="scale(1 1) rotate(0) translate(4 220)">
<title>wrp.PrimDecreaseBrightness</title>
<polygon fill="white" stroke="transparent" points="-4,4 -4,-220 448.18,-220 448.18,4 -4,4"/>
<!-- wrp.PrimDecreaseBrightness -->
<g id="node1" class="node">
<title>wrp.PrimDecreaseBrightness</title>
<ellipse fill="green" stroke="black" cx="223.54" cy="-18" rx="147.57" ry="18"/>
<text text-anchor="middle" x="223.54" y="-14.3" font-family="Times,serif" font-size="14.00">wrp.PrimDecreaseBrightness</text>
</g>
<!-- rwrp.func_8019373C -->
<g id="node2" class="node">
<title>rwrp.func_8019373C</title>
<g id="a_node2"><a xlink:href="rwrp.func_8019373C.svg" xlink:title="rwrp.func_8019373C">
<ellipse fill="green" stroke="black" cx="108.54" cy="-198" rx="108.58" ry="18"/>
<text text-anchor="middle" x="108.54" y="-194.3" font-family="Times,serif" font-size="14.00">rwrp.func_8019373C</text>
</a>
</g>
</g>
<!-- rwrp.func_8019373C&#45;&gt;wrp.PrimDecreaseBrightness -->
<g id="edge1" class="edge">
<title>rwrp.func_8019373C&#45;&gt;wrp.PrimDecreaseBrightness</title>
<path fill="none" stroke="black" d="M119.57,-179.93C139.83,-148.57 183.1,-81.6 206.93,-44.71"/>
<polygon fill="black" stroke="black" points="210.06,-46.31 212.55,-36.02 204.18,-42.52 210.06,-46.31"/>
<text text-anchor="middle" x="114.57" y="-168.73" font-family="Times,serif" font-size="14.00">1</text>
</g>
<!-- wrp.func_801917BC -->
<g id="node3" class="node">
<title>wrp.func_801917BC</title>
<g id="a_node3"><a xlink:href="wrp.func_801917BC.svg" xlink:title="wrp.func_801917BC">
<ellipse fill="green" stroke="black" cx="339.54" cy="-198" rx="104.78" ry="18"/>
<text text-anchor="middle" x="339.54" y="-194.3" font-family="Times,serif" font-size="14.00">wrp.func_801917BC</text>
</a>
</g>
</g>
<!-- wrp.func_801917BC&#45;&gt;wrp.PrimDecreaseBrightness -->
<g id="edge2" class="edge">
<title>wrp.func_801917BC&#45;&gt;wrp.PrimDecreaseBrightness</title>
<path fill="none" stroke="black" d="M328.42,-179.93C307.98,-148.57 264.34,-81.6 240.29,-44.71"/>
<polygon fill="black" stroke="black" points="243.02,-42.48 234.63,-36.02 237.16,-46.3 243.02,-42.48"/>
<text text-anchor="middle" x="323.42" y="-168.73" font-family="Times,serif" font-size="14.00">1</text>
</g>
</g>
</svg>
