<?xml version="1.0" encoding="UTF-8" standalone="no"?>
<!DOCTYPE svg PUBLIC "-//W3C//DTD SVG 1.1//EN"
 "http://www.w3.org/Graphics/SVG/1.1/DTD/svg11.dtd">
<!-- Generated by graphviz version 2.43.0 (0)
 -->
<!-- Title: wrp.func_8018FA1C Pages: 1 -->
<svg width="1355pt" height="224pt"
 viewBox="0.00 0.00 1354.78 224.00" xmlns="http://www.w3.org/2000/svg" xmlns:xlink="http://www.w3.org/1999/xlink">
<g id="graph0" class="graph" transform="scale(1 1) rotate(0) translate(4 220)">
<title>wrp.func_8018FA1C</title>
<polygon fill="white" stroke="transparent" points="-4,4 -4,-220 1350.78,-220 1350.78,4 -4,4"/>
<!-- wrp.func_8018FA1C -->
<g id="node1" class="node">
<title>wrp.func_8018FA1C</title>
<ellipse fill="green" stroke="black" cx="683.44" cy="-198" rx="103.98" ry="18"/>
<text text-anchor="middle" x="683.44" y="-194.3" font-family="Times,serif" font-size="14.00">wrp.func_8018FA1C</text>
</g>
<!-- dra.AllocPrimitives -->
<g id="node2" class="node">
<title>dra.AllocPrimitives</title>
<g id="a_node2"><a xlink:href="dra.AllocPrimitives.svg" xlink:title="dra.AllocPrimitives">
<ellipse fill="green" stroke="black" cx="99.44" cy="-18" rx="99.38" ry="18"/>
<text text-anchor="middle" x="99.44" y="-14.3" font-family="Times,serif" font-size="14.00">dra.AllocPrimitives</text>
</a>
</g>
</g>
<!-- wrp.func_8018FA1C&#45;&gt;dra.AllocPrimitives -->
<g id="edge1" class="edge">
<title>wrp.func_8018FA1C&#45;&gt;dra.AllocPrimitives</title>
<path fill="none" stroke="black" d="M634.4,-182.05C527.29,-149.41 272.81,-71.84 157.73,-36.77"/>
<polygon fill="black" stroke="black" points="158.62,-33.38 148.03,-33.81 156.58,-40.07 158.62,-33.38"/>
<text text-anchor="middle" x="143.03" y="-37.61" font-family="Times,serif" font-size="14.00">1</text>
</g>
<!-- dra.FreePrimitives -->
<g id="node3" class="node">
<title>dra.FreePrimitives</title>
<g id="a_node3"><a xlink:href="dra.FreePrimitives.svg" xlink:title="dra.FreePrimitives">
<ellipse fill="green" stroke="black" cx="315.44" cy="-18" rx="98.58" ry="18"/>
<text text-anchor="middle" x="315.44" y="-14.3" font-family="Times,serif" font-size="14.00">dra.FreePrimitives</text>
</a>
</g>
</g>
<!-- wrp.func_8018FA1C&#45;&gt;dra.FreePrimitives -->
<g id="edge2" class="edge">
<title>wrp.func_8018FA1C&#45;&gt;dra.FreePrimitives</title>
<path fill="none" stroke="black" d="M650.13,-180.89C583.03,-148.43 431.68,-75.22 357.72,-39.45"/>
<polygon fill="black" stroke="black" points="359.2,-36.28 348.67,-35.07 356.15,-42.58 359.2,-36.28"/>
<text text-anchor="middle" x="343.67" y="-38.87" font-family="Times,serif" font-size="14.00">1</text>
</g>
<!-- wrp.CheckColliderOffsets -->
<g id="node4" class="node">
<title>wrp.CheckColliderOffsets</title>
<g id="a_node4"><a xlink:href="wrp.CheckColliderOffsets.svg" xlink:title="wrp.CheckColliderOffsets">
<ellipse fill="green" stroke="black" cx="561.44" cy="-18" rx="129.18" ry="18"/>
<text text-anchor="middle" x="561.44" y="-14.3" font-family="Times,serif" font-size="14.00">wrp.CheckColliderOffsets</text>
</a>
</g>
</g>
<!-- wrp.func_8018FA1C&#45;&gt;wrp.CheckColliderOffsets -->
<g id="edge3" class="edge">
<title>wrp.func_8018FA1C&#45;&gt;wrp.CheckColliderOffsets</title>
<path fill="none" stroke="black" d="M671.74,-179.93C650.25,-148.57 604.35,-81.6 579.06,-44.71"/>
<polygon fill="black" stroke="black" points="581.64,-42.29 573.1,-36.02 575.87,-46.24 581.64,-42.29"/>
<text text-anchor="middle" x="568.1" y="-39.82" font-family="Times,serif" font-size="14.00">1</text>
</g>
<!-- wrp.DestroyEntity -->
<g id="node5" class="node">
<title>wrp.DestroyEntity</title>
<g id="a_node5"><a xlink:href="wrp.DestroyEntity.svg" xlink:title="wrp.DestroyEntity">
<ellipse fill="green" stroke="black" cx="805.44" cy="-18" rx="96.68" ry="18"/>
<text text-anchor="middle" x="805.44" y="-14.3" font-family="Times,serif" font-size="14.00">wrp.DestroyEntity</text>
</a>
</g>
</g>
<!-- wrp.func_8018FA1C&#45;&gt;wrp.DestroyEntity -->
<g id="edge4" class="edge">
<title>wrp.func_8018FA1C&#45;&gt;wrp.DestroyEntity</title>
<path fill="none" stroke="black" d="M695.14,-179.93C716.64,-148.57 762.53,-81.6 787.82,-44.71"/>
<polygon fill="black" stroke="black" points="791.01,-46.24 793.78,-36.02 785.24,-42.29 791.01,-46.24"/>
<text text-anchor="middle" x="788.78" y="-39.82" font-family="Times,serif" font-size="14.00">1</text>
</g>
<!-- wrp.InitializeEntity -->
<g id="node6" class="node">
<title>wrp.InitializeEntity</title>
<g id="a_node6"><a xlink:href="wrp.InitializeEntity.svg" xlink:title="wrp.InitializeEntity">
<ellipse fill="green" stroke="black" cx="1021.44" cy="-18" rx="100.98" ry="18"/>
<text text-anchor="middle" x="1021.44" y="-14.3" font-family="Times,serif" font-size="14.00">wrp.InitializeEntity</text>
</a>
</g>
</g>
<!-- wrp.func_8018FA1C&#45;&gt;wrp.InitializeEntity -->
<g id="edge5" class="edge">
<title>wrp.func_8018FA1C&#45;&gt;wrp.InitializeEntity</title>
<path fill="none" stroke="black" d="M714.33,-180.73C775.81,-148.35 913.43,-75.88 981.6,-39.98"/>
<polygon fill="black" stroke="black" points="983.53,-42.92 990.74,-35.17 980.26,-36.73 983.53,-42.92"/>
<text text-anchor="middle" x="985.74" y="-38.97" font-family="Times,serif" font-size="14.00">1</text>
</g>
<!-- wrp.func_8018F620 -->
<g id="node7" class="node">
<title>wrp.func_8018F620</title>
<g id="a_node7"><a xlink:href="wrp.func_8018F620.svg" xlink:title="wrp.func_8018F620">
<ellipse fill="green" stroke="black" cx="1243.44" cy="-18" rx="103.18" ry="18"/>
<text text-anchor="middle" x="1243.44" y="-14.3" font-family="Times,serif" font-size="14.00">wrp.func_8018F620</text>
</a>
</g>
</g>
<!-- wrp.func_8018FA1C&#45;&gt;wrp.func_8018F620 -->
<g id="edge6" class="edge">
<title>wrp.func_8018FA1C&#45;&gt;wrp.func_8018F620</title>
<path fill="none" stroke="black" d="M731.19,-181.82C834.01,-149.14 1076.03,-72.21 1186.57,-37.08"/>
<polygon fill="black" stroke="black" points="1187.74,-40.38 1196.21,-34.01 1185.62,-33.71 1187.74,-40.38"/>
<text text-anchor="middle" x="1191.21" y="-37.81" font-family="Times,serif" font-size="14.00">1</text>
</g>
</g>
</svg>
